<?xml version="1.0" encoding="iso-8859-1"?>
<!-- Generator: Adobe Illustrator 27.0.0, SVG Export Plug-In . SVG Version: 6.00 Build 0)  -->
<svg version="1.1" id="Layer_1" xmlns="http://www.w3.org/2000/svg" xmlns:xlink="http://www.w3.org/1999/xlink" x="0px" y="0px"
	 viewBox="0 0 1539 1875.661" style="enable-background:new 0 0 1539 1875.661;" xml:space="preserve">
<g>
	<path style="fill:#EF3942;" d="M0,1548.913c0-105.333,0-210.667,0-316c1.565-6.962,1.061-14.015,0.938-21.052
		c0.021-10.833,0.67-21.675,1.386-32.444c0.467-7.021,0.006-14.16,1.564-21.199c1.754-7.922,0.842-16.17,2.036-24.241
		c1.356-9.166,1.823-18.452,2.887-27.673c2.229-19.313,4.513-38.618,7.335-57.851c3.261-22.227,6.914-44.398,11.126-66.464
		c7.517-39.382,16.381-78.463,26.701-117.214c23.408-87.895,53.882-173.274,91.196-256.21
		c37.413-83.157,81.447-162.683,131.838-238.666c54.181-81.698,115.341-157.833,183.286-228.499
		c34.673-36.061,71.031-70.354,108.978-102.957C584.554,25.312,600.066,12.456,615.842,0c102.44,0,204.758,0,307.054,0
		c0.599,0.423,1.163,0.779,1.68,1.193c33.197,26.549,65.314,54.342,96.343,83.4c52.63,49.288,101.494,102.088,146.991,157.993
		c41.245,50.681,79.224,103.727,114.082,159.013c67.063,106.364,121.565,218.803,163.386,337.374
		c21.145,59.952,38.838,120.912,52.863,182.934c6.386,28.24,12.226,56.582,16.938,85.149c1.46,8.852,2.989,17.686,4.099,26.609
		c0.77,6.187,2.163,12.389,3.056,18.62c0.8,5.579,1.109,11.245,2.197,16.762c1.349,6.839,1.672,13.77,2.422,20.655
		c0.444,4.069,0.519,8.383,1.375,12.208c1.644,7.346,1.502,14.782,2.516,22.129c0.986,7.146,1.401,14.404,2.05,21.614
		c1.251,13.894,2.252,27.818,2.987,41.75c1.08,20.465,2.099,40.938,2.215,61.441c-0.546,7.589,0.099,15.171,0.156,22.756
		c-0.084,1.659-0.242,3.317-0.243,4.976c-0.012,57.764-0.01,115.527-0.009,173.291c0,30.463-0.017,60.926,0.04,91.39
		c0.004,1.891-0.823,4.028,0.96,5.658c0,0.667,0,1.333,0,2c-1.736-0.909-3.604-0.429-5.399-0.43
		c-47.999-0.033-95.998-0.022-143.997-0.04c-2.466-0.001-4.967,0.27-7.447-0.426c-0.826-2.19-0.458-4.371-0.458-6.499
		c-0.023-82.331,0.126-164.663-0.091-246.994c-0.094-35.621-0.519-71.24-3.422-106.8c-0.919-11.261-1.287-22.605-2.24-33.886
		c-1.233-14.601-2.468-29.214-4.596-43.714c-1.1-7.498-1.572-15.062-3.086-22.543c-0.892-4.406-0.902-9.2-1.561-13.725
		c-2.254-15.476-4.743-30.92-7.458-46.33c-7.741-43.935-17.567-87.394-29.261-130.432c-15.141-55.723-33.542-110.358-55.007-163.964
		c-21.097-52.685-45.042-104.044-71.88-154.044c-26.784-49.9-56.251-98.173-88.397-144.802
		c-5.548-8.047-11.274-15.972-17.564-24.868c0,380.367,0,759.582,0,1138.815c-52.28,52.21-104.407,104.268-157.328,157.118
		c0-494.27,0-987.23,0-1480.978c-0.788-0.579-1.984-1.256-2.933-2.186c-16.674-16.323-33.676-32.296-51.127-47.788
		c-11.704-10.39-23.397-20.794-35.67-30.52c-0.312-0.764-0.847-1.237-1.876-1.35c0,0.503,0,0.956,0,1.409
		c-0.049,2.164-0.142,4.328-0.142,6.492c-0.006,546.941-0.006,1093.882-0.006,1640.823c0,2.152,0,4.304,0,5.378
		c-26.602,26.86-52.509,53.017-78.272,79.031c-26.349-26.269-52.513-52.353-78.889-78.647c0-1.908,0-4.069,0-6.23
		c0-547.108,0-1094.215-0.01-1641.323c0-2.159-0.139-4.319-0.214-6.478c-0.067-0.232-0.134-0.464-0.201-0.696
		c-0.134,0.22-0.269,0.44-0.403,0.66c-0.558,0.34-1.17,0.616-1.665,1.031c-29.907,25.044-58.888,51.109-86.636,78.535
		c-0.933,0.922-2.084,1.688-2.886,3.048c0,492.998,0,985.996,0,1478.536c-52.23-52.014-104.493-104.061-157.134-156.485
		c0-378.743,0-757.899,0-1137.94c-1.419,1.899-2.32,3.058-3.173,4.251c-40.345,56.382-76.611,115.277-108.912,176.622
		c-40.602,77.112-74.304,157.13-101.185,240.023c-14.011,43.205-26.037,86.957-35.966,131.277
		c-6.431,28.707-12.233,57.54-16.777,86.616c-2.166,13.858-4.951,27.641-6.526,41.563c-1.402,12.395-2.998,24.777-4.149,37.201
		c-0.748,8.075-2.404,16.067-2.265,24.226c0.014,0.824-0.224,1.649-0.304,2.478c-0.833,8.545-1.762,17.082-2.44,25.64
		c-0.354,4.475-0.097,8.997-0.4,13.478c-1.375,20.288-2.277,40.606-2.311,60.928c-0.16,95.827-0.088,191.654-0.125,287.482
		c-0.001,2.136,0.394,4.321-0.398,6.45c-2.088,0.94-4.279,0.528-6.404,0.529c-48.33,0.026-96.661,0.015-144.991,0.04
		C3.611,1548.477,1.747,1548.067,0,1548.913z"/>
	<path style="fill:#F15853;" d="M1539,1546.913c-1.783-1.63-0.957-3.767-0.96-5.658c-0.057-30.463-0.04-60.926-0.04-91.39
		c0-57.764-0.003-115.527,0.009-173.291c0-1.659,0.158-3.317,0.243-4.976c0.27,0.056,0.519,0.161,0.748,0.314
		C1539,1363.58,1539,1455.246,1539,1546.913z"/>
	<path style="fill:#F8A594;" d="M1539,1271.913c-0.229-0.153-0.479-0.257-0.748-0.314c-0.056-7.585-0.702-15.166-0.156-22.756
		c0.295,0.101,0.597,0.124,0.904,0.069C1539,1256.58,1539,1264.246,1539,1271.913z"/>
	<path style="fill:#F79B8A;" d="M0,1211.913c0.323,0.171,0.636,0.153,0.938-0.052c0.123,7.037,0.627,14.091-0.938,21.052
		C0,1225.913,0,1218.913,0,1211.913z"/>
	<path style="fill:#FEEAE2;" d="M850.077,143.879c-0.625,0.02-1.251,0.039-1.876,0.059c0-0.453,0-0.906,0-1.409
		C849.23,142.641,849.765,143.115,850.077,143.879z"/>
	<path style="fill:#FDD9CF;" d="M690.668,142.983l-0.307,0.057c0,0-0.298-0.093-0.298-0.093c0.134-0.22,0.269-0.44,0.403-0.66
		C690.534,142.519,690.601,142.751,690.668,142.983z"/>
</g>
</svg>
