<?xml version="1.0" encoding="iso-8859-1"?>
<!-- Generator: Adobe Illustrator 27.0.0, SVG Export Plug-In . SVG Version: 6.00 Build 0)  -->
<svg version="1.1" id="Layer_1" xmlns="http://www.w3.org/2000/svg" xmlns:xlink="http://www.w3.org/1999/xlink" x="0px" y="0px"
	 viewBox="0 0 1581.299 349.1" style="enable-background:new 0 0 1581.299 349.1;" xml:space="preserve">
<g>
	<path style="fill:#7A7A7D;" d="M158.242,348.143c-15.025-0.85-29.442-4.542-43.525-9.592c-19.914-7.14-37.897-17.713-53.818-31.608
		c-13.989-12.209-26.05-26.115-35.631-42.13c-11.373-19.009-18.818-39.466-22.687-61.197C0.066,189.483-0.646,175.12,0.6,160.85
		c3.126-35.798,15.701-67.974,38.398-96.01c22.268-27.506,50.394-46.489,84.126-56.998c11.055-3.444,22.401-5.737,34.016-6.934
		c29.398-3.03,57.582,1.603,84.75,12.727c16.077,6.582,30.736,15.666,44.105,26.823c18.927,15.794,33.714,34.837,44.639,56.863
		c8.461,17.057,13.771,35.154,16.433,53.977c1.819,12.859,2.092,25.865,0.984,38.772c-1.626,18.934-6.366,37.174-14.032,54.625
		c-6.046,13.763-13.675,26.552-23.059,38.293c-10.027,12.545-21.492,23.566-34.507,33.01
		c-20.614,14.958-43.642,24.383-68.369,29.778c-5.795,1.264-11.715,2.404-17.737,2.368c-0.825-0.005-1.682-0.036-2.05,0.957
		c-1.667,0-3.333,0-5,0c-0.453-1.238-1.518-1.007-2.466-1.005C173.303,348.104,165.772,348.125,158.242,348.143z M10.106,174.283
		c-0.778,89.76,72.975,165.385,164.963,164.959c89.757-0.416,163.927-72.607,163.968-164.612
		C339.08,81.22,263.124,8.131,170.85,9.778C85.827,11.296,9.857,80.656,10.106,174.283z"/>
	<path style="fill:#1E3E66;" d="M1581.299,63.1c-2.425,0.513-4.861,0.722-7.355,0.714c-16.156-0.057-32.311-0.029-48.467-0.029
		c-1.627,0-3.254,0-5.177,0c0,16.392,0,32.291,0,48.826c4.766,0.606,9.541,0.214,14.28,0.28c4.996,0.07,9.993,0.016,14.99,0.016
		c4.83,0,9.66,0,14.49,0c4.792,0,9.584,0,14.481,0c1.015,4.271,0.786,7.979,0.25,12.196c-19.547,0.568-38.93-0.178-58.756,0.415
		c0,16.363-0.008,32.147,0.021,47.931c0.002,0.84,0.501,1.57,1.35,2.213c1.565,0.84,3.434,0.405,5.23,0.41
		c15.823,0.037,31.646,0.06,47.468-0.02c2.489-0.013,4.858,0.276,7.194,1.05c0,3.333,0,6.667,0,10
		c-1.824,1.187-3.742,1.742-6.001,1.734c-21.161-0.078-42.323-0.051-63.484-0.039c-1.848,0.001-3.69,0.091-5.106-1.417
		c-0.932-3.548-1.163-130.606-0.25-135.687c0.672-0.661,1.519-0.598,2.343-0.598c22.994-0.003,45.988-0.006,68.983,0.011
		c0.816,0.001,1.631,0.214,2.447,0.328c0.032,1.926-0.034,3.86,0.13,5.775c0.113,1.321-0.784,2.946,0.938,3.893
		C1581.299,61.767,1581.299,62.434,1581.299,63.1z"/>
	<path style="fill:#9E9D9F;" d="M158.242,348.143c7.53-0.017,15.061-0.038,22.591-0.048c0.947-0.001,2.013-0.233,2.466,1.005
		c-8.333,0-16.667,0-25,0C158.423,348.772,158.404,348.453,158.242,348.143z"/>
	<path style="fill:#3D658B;" d="M1581.299,61.1c-1.722-0.947-0.826-2.572-0.938-3.893c-0.163-1.915-0.098-3.849-0.13-5.775
		c0.356-0.111,0.712-0.222,1.068-0.333C1581.299,54.434,1581.299,57.767,1581.299,61.1z"/>
	<path style="fill:#1E3E66;" d="M1064.663,51.255c4.905,0,8.867,0,12.758,0c1.533,1.397,1.224,3.13,1.225,4.748
		c0.013,42.162,0.023,84.325-0.003,126.487c-0.003,5.458-0.913,6.25-6.486,6.296c-0.833,0.007-1.682-0.104-2.497,0.019
		c-3.624,0.547-5.808-1.146-7.776-4.096c-13.751-20.62-27.641-41.148-41.489-61.704c-11.339-16.831-22.676-33.663-34.028-50.485
		c-0.806-1.194-1.727-2.311-2.994-3.351c-0.387,39.47-0.387,78.832-0.387,118.278c-4.903,1.809-8.996,1.912-13.007,0.443
		c-1.208-3.784-1.665-128.638-0.53-136.574c5.958-0.491,12.034-0.099,18.324-0.242c25.353,37.714,50.647,75.343,75.942,112.971
		c0.316-0.079,0.632-0.157,0.948-0.236C1064.663,126.452,1064.663,89.095,1064.663,51.255z"/>
	<path style="fill:#1D3D66;" d="M1464.645,87.004c-4.785,1.624-9.565,0.286-14.371,0.912c-10.458-16.028-25.4-24.474-43.858-26.514
		c-13.484-1.49-26.069,1.907-37.554,9.131c-24.214,15.23-34.05,44.514-23.433,70.977c10.286,25.638,37.331,40.399,64.614,36.183
		c23.31-3.602,45.735-23.311,45.939-39.699c-8.276,0-16.559,0-24.843,0c-8.497,0-16.994,0.006-25.491-0.002
		c-8.249-0.008-16.501,0.038-24.751-0.034c-0.73-4.503-0.593-8.101-0.244-11.537c0.302-0.279,0.42-0.396,0.547-0.503
		c0.126-0.106,0.247-0.258,0.393-0.294c0.636-0.155,1.28-0.39,1.922-0.391c28.99-0.019,57.981-0.017,86.971-0.005
		c0.486,0,0.985,0.127,1.452,0.275c0.305,0.096,0.563,0.338,1.326,0.819c0.398,5.099-1.12,10.193-2.842,15.14
		c-8.786,25.238-26.459,41.188-52.198,47.424c-26.241,6.357-49.57-0.715-68.997-19.075c-15.961-15.085-23.716-34.134-21.494-56.218
		c2.638-26.21,16.74-44.968,39.86-57.114c10.661-5.601,22.234-8.285,34.131-7.93c25.306,0.754,45.806,11.207,60.528,32.172
		C1463.374,82.317,1464.677,83.907,1464.645,87.004z"/>
	<path style="fill:#1D3D66;" d="M560.662,51.091c8.269,0,16.584-0.043,24.899,0.011c9.486,0.062,18.959-0.155,28.439,0.975
		c35.109,4.187,56.829,28.478,60.916,57.947c3.595,25.922-5.557,47.324-25.924,63.905c-9.326,7.592-20.221,11.049-31.811,13.251
		c-10.589,2.012-21.224,1.495-31.863,1.593c-6.664,0.061-13.33,0.042-19.994,0.001c-4.928-0.03-5.826-0.9-5.833-5.814
		c-0.029-19.328-0.013-38.656-0.013-57.984c0-22.661-0.012-45.321,0.024-67.982C559.505,55.213,558.976,53.31,560.662,51.091z
		 M575.907,176.106c12.483-0.266,25.306,0.743,38.059-0.989c12.702-1.725,24.089-6.383,32.909-16.006
		c11.939-13.026,16.194-28.62,14.633-45.976c-1.806-20.083-16.481-41.316-41.213-47.037c-14.38-3.326-29.063-2.7-43.677-2.786
		c-1.049-0.006-1.927,0.426-2.749,1.136c-0.719,1.544-0.35,3.234-0.36,4.871c-0.044,7.326-0.019,14.653-0.019,21.979
		c0,26.142-0.008,52.285,0.015,78.427C573.508,171.822,572.899,174.151,575.907,176.106z"/>
	<path style="fill:#1B3C65;" d="M867.48,51.27c5.286,0,10.246,0,15.054,0c1.29,1.234,1.668,2.715,2.249,4.066
		c18.137,42.188,36.262,84.381,54.371,126.581c2.162,5.037,1.059,6.73-4.359,6.852c-1.83,0.041-3.667,0.065-5.491-0.059
		c-0.797-0.054-1.567-0.499-2.762-0.908c-2.72-6.314-5.536-12.845-8.349-19.378c-3.148-7.311-6.428-14.57-9.375-21.961
		c-1.244-3.122-3.067-4.245-6.381-4.223c-18.15,0.119-36.302,0.153-54.452-0.024c-3.624-0.035-5.382,1.378-6.708,4.527
		c-4.954,11.765-10.044,23.473-15.18,35.16c-3.24,7.372-2.111,6.997-11.118,6.834c-4.116-0.074-5.316-2.06-3.751-5.85
		c2.787-6.749,5.667-13.46,8.53-20.178c15.343-36.002,30.69-72.002,46.046-107.999C866.258,53.647,866.815,52.629,867.48,51.27z
		 M876.47,69.949c-3.3-0.126-3.411,2.16-4.062,3.67c-5.772,13.38-11.453,26.799-17.148,40.212
		c-2.059,4.849-4.082,9.714-6.012,14.309c0.685,1.145,1.308,1.639,2.197,1.764c4.064,0.57,46.166-0.068,48.655-0.743
		c0.641-1.14,0.304-2.256-0.158-3.335C891.956,107.173,884.515,88.282,876.47,69.949z"/>
	<path style="fill:#1B3C65;" d="M461.993,51.209c5.322,0,10.139,0,14.809,0c1.489,1.019,1.817,2.556,2.393,3.895
		c18.036,41.933,36.044,83.877,54.056,125.821c0.196,0.456,0.386,0.916,0.571,1.377c1.773,4.424,0.679,6.228-3.941,6.47
		c-0.831,0.044-1.679-0.088-2.497,0.022c-4.227,0.567-6.597-1.03-8.271-5.202c-5.062-12.617-10.66-25.018-15.942-37.548
		c-1.11-2.633-2.649-3.816-5.623-3.799c-18.663,0.105-37.327,0.053-55.99,0.053c-1.168,0-2.348-0.056-3.932,1.097
		c-1.305,1.356-1.868,3.839-2.852,6.087c-4.924,11.251-9.968,22.454-14.615,33.819c-1.717,4.199-4.111,6.132-8.641,5.518
		c-1.948-0.264-4.021,0.201-5.685-1.311c-1.483-2.172-0.348-4.135,0.494-6.107c8.605-20.141,17.225-40.275,25.822-60.419
		c9.379-21.978,18.735-43.966,28.107-65.947C460.771,53.829,461.34,52.645,461.993,51.209z M443.602,128.916
		c1.694,0.57,2.312,0.957,2.93,0.959c15.313,0.037,30.626,0.033,45.939,0.037c1.29,0,2.232-0.513,2.782-2.176
		c-7.717-18.532-15.543-37.34-23.392-56.138c-0.388-0.93-1.01-1.732-2.203-1.72c-1.334,0.27-1.802,1.346-2.248,2.433
		C459.691,91.091,451.286,109.592,443.602,128.916z"/>
	<path style="fill:#1B3C65;" d="M1239.801,51.208c5.212,0,10.022,0,15.062,0c2.401,3.363,3.577,7.375,5.196,11.13
		c17.018,39.47,33.944,78.979,50.895,118.478c0.065,0.153,0.124,0.308,0.189,0.461c2.465,5.779,1.339,7.491-5.051,7.48
		c-2.297-0.004-4.691,0.495-7.437-1.258c-2.316-5.358-4.886-11.269-7.427-17.194c-3.333-7.77-6.757-15.504-9.908-23.347
		c-1.357-3.378-3.189-4.81-7.066-4.761c-17.823,0.227-35.651,0.201-53.475,0.021c-3.917-0.04-6.007,1.246-7.52,4.898
		c-5.143,12.415-10.619,24.693-15.934,37.038c-0.797,1.851-1.383,4.064-3.643,4.365c-3.098,0.412-6.347,0.93-9.324-0.479
		c-1.43-0.677-2.005-2.156-1.39-3.816c0.462-1.245,0.913-2.496,1.433-3.716c17.697-41.51,35.4-83.017,53.115-124.52
		C1238.165,54.47,1238.939,53.005,1239.801,51.208z M1272.254,129.349c-0.06-4.483-21.658-56.568-24.521-59.449
		c-1.167,0.012-1.867,0.749-2.263,1.691c-7.994,19.026-16.311,37.921-24.136,57.013
		C1225.036,130.139,1265.102,130.562,1272.254,129.349z"/>
	<path style="fill:#1B3C65;" d="M690.463,51.449c4.763-0.659,9.206-0.285,13.485-0.27c1.367,1.416,1.834,3.021,2.45,4.556
		c13.973,34.778,27.938,69.559,41.965,104.315c0.944,2.339,1.191,5.372,4.461,6.038c2.74-0.336,3.247-2.607,4.042-4.574
		c9.501-23.524,18.981-47.057,28.477-70.583c4.967-12.306,9.951-24.606,14.943-36.902c0.367-0.905,0.86-1.759,1.346-2.743
		c4.355,0,8.635,0,12.836,0c1.853,2.205,0.204,3.997-0.478,5.674c-5.626,13.823-11.36,27.602-17.086,41.384
		c-11.835,28.486-23.684,56.966-35.53,85.447c-2.024,4.867-2.154,4.972-7.299,4.976c-2.158,0.001-4.319-0.068-6.471-0.223
		c-0.619-0.045-1.208-0.501-1.7-0.719C741.053,178.874,690.829,55.719,690.463,51.449z"/>
	<path style="fill:#1D3D66;" d="M1104.97,62.668c-0.488-3.76-0.659-7.352,0.177-11.252c25.167,0,50.223,0,75.35,0
		c1.48,1.728,0.639,3.814,0.783,5.729c0.135,1.802,0.029,3.621,0.029,5.128c-1.758,1.868-3.66,1.495-5.444,1.502
		c-6.661,0.024-13.322-0.013-19.982,0.026c-1.642,0.01-3.324-0.31-5.014,0.38c-1.242,1.578-0.645,3.483-0.647,5.238
		c-0.039,37.3-0.029,74.601-0.031,111.901c0,1.332,0.045,2.667-0.039,3.995c-0.09,1.436-0.762,2.775-2.199,2.998
		c-3.863,0.599-7.828,1.428-11.679-1.322c0-40.819,0-81.568,0-121.846c-1.385-1.735-2.808-1.341-4.089-1.347
		c-7.16-0.03-14.321-0.004-21.481-0.021C1108.901,63.773,1107.033,64.063,1104.97,62.668z"/>
	<path style="fill:#78797C;" d="M937.166,301.652c-3.99,0-7.594,0-11.184,0c-1.13-3.974-1.561-52.158-0.664-74.067
		c3.657-1.028,7.43-0.274,11.383-0.443c10.69,16.197,21.362,32.366,32.604,49.399c0-16.986,0-32.915,0-49.142
		c3.999,0,7.727,0,11.729,0c0,24.645,0,49.234,0,74.075c-3.231,0.693-6.478,0.474-10.092,0.109
		c-10.974-16.648-22.001-33.379-33.029-50.109c-0.249,0.079-0.498,0.158-0.747,0.237
		C937.166,268.287,937.166,284.865,937.166,301.652z"/>
	<path style="fill:#797A7D;" d="M831.057,264.547c-0.273-6.588,0.808-12.934,3.465-18.961c4.908-11.133,15.573-20.41,30.696-19.64
		c14.102,0.717,23.421,7.94,28.49,20.538c4.903,12.184,4.688,24.67-0.54,36.837c-5.696,13.256-17.302,20.217-30.741,19.562
		c-14.835-0.723-24.26-9.162-29.11-22.64c-0.783-2.175-1.474-4.438-1.774-6.718C831.154,270.562,831.198,267.542,831.057,264.547z
		 M844.123,263.727c-0.333,6.006,0.375,11.728,3.331,16.944c3.565,6.291,8.57,10.474,16.229,10.525
		c7.554,0.051,13.221-3.425,16.494-9.989c5.582-11.196,5.57-22.682-0.173-33.854c-3.374-6.563-9.171-10.171-16.529-10.015
		c-7.339,0.155-12.826,3.995-16.166,10.622C844.794,252.947,843.709,258.252,844.123,263.727z"/>
	<path style="fill:#797A7D;" d="M534.386,264.163c0.32,10.12-2.007,19.155-8.176,26.852c-7.565,9.44-17.399,12.828-29.505,11.476
		c-16.012-1.788-25.911-17.159-27.545-29.323c-1.152-8.574-0.817-16.838,2.049-24.975c6.341-18.006,22.535-26.278,41.021-20.667
		c11.453,3.476,17.814,12.762,20.979,24.144C534.378,255.873,534.482,260.186,534.386,264.163z M521.525,265.365
		c0.02-9.47-1.396-14.758-5.124-20.084c-7.169-10.241-21.224-10.483-28.976-1.088c-3.665,4.441-5.023,9.632-5.758,15.08
		c-1.07,7.93-0.039,15.6,4.076,22.548c3.743,6.32,9.382,9.664,16.913,9.371c7.455-0.29,12.227-4.543,15.596-10.72
		C520.942,275.54,521.724,270.161,521.525,265.365z"/>
	<path style="fill:#7C7C7F;" d="M630.379,227.221c4.453,0,8.249,0,11.934,0c1.217,1.237,0.749,2.644,0.752,3.915
		c0.035,13.651-0.003,27.302,0.04,40.953c0.01,3.141-0.072,6.275,1.051,9.352c2.324,6.368,7.003,9.718,14.053,9.74
		c7.067,0.022,11.796-3.271,14.029-9.742c1.047-3.035,1.148-6.175,1.145-9.338c-0.011-13.151-0.005-26.303-0.004-39.455
		c0-1.641,0-3.282,0-5.237c4.197,0,8.11,0,12.122,0c1.034,1.024,0.561,2.434,0.564,3.704c0.036,12.985,0.266,25.976-0.074,38.953
		c-0.189,7.222-0.593,14.498-4.605,21.08c-3.442,5.647-8.483,8.841-14.463,10.679c-5.823,1.79-11.858,1.608-17.71,0.008
		c-9.487-2.594-15.325-8.965-17.726-18.403c-0.854-3.358-1.185-6.825-1.155-10.353c0.115-13.483,0.046-26.969,0.046-40.453
		C630.379,230.988,630.379,229.351,630.379,227.221z"/>
	<path style="fill:#797A7D;" d="M442.552,235.027c-2.124,3.345-4.231,6.288-6.845,9.17c-4.318-3.329-8.92-5.758-14.269-6.707
		c-3.138-0.557-5.984,0.097-8.65,1.428c-5.587,2.79-6.041,10.127-0.938,14.022c4.417,3.372,9.731,4.958,14.745,7.116
		c4.61,1.984,9.032,4.245,12.519,7.915c8.811,9.275,5.972,27.638-9.098,32.924c-10.308,3.615-20.25,1.724-29.612-3.482
		c-2.571-1.43-5.168-2.98-7.275-5.574c2.012-3.245,4.433-6.077,6.876-8.716c2.007-0.061,2.802,1.421,3.946,2.295
		c5.335,4.077,11.228,6.374,18.046,5.716c5.953-0.575,9.602-4.655,9.428-10.13c-0.098-3.085-1.984-4.878-4.121-6.457
		c-2.813-2.078-6.133-3.218-9.355-4.535c-4.285-1.752-8.622-3.374-12.575-5.892c-6.786-4.321-10.139-10.54-9.577-18.406
		c0.64-8.968,5.673-15.137,14.107-18.127C420.542,223.815,434.862,226.96,442.552,235.027z"/>
	<path style="fill:#797A7D;" d="M1056.594,235.167c-1.661,3.248-4.048,5.96-6.394,8.829c-2.889-1.649-5.476-3.443-8.309-4.664
		c-3.978-1.714-8.117-2.76-12.55-1.351c-3.482,1.107-5.755,3.172-6.505,6.778c-0.727,3.496,0.889,6.142,3.383,8.252
		c3.222,2.727,7.284,3.947,11.087,5.571c4.127,1.763,8.222,3.512,12.018,5.963c6.893,4.451,9.574,10.897,8.829,18.774
		c-0.73,7.719-4.819,13.531-11.859,16.648c-10.995,4.869-21.682,2.873-31.914-2.648c-2.624-1.416-5.038-3.211-7.081-5.749
		c2.308-2.894,4.564-5.722,6.737-8.447c2.037-0.107,2.845,1.376,3.983,2.23c5.366,4.028,11.253,6.382,18.081,5.787
		c4.707-0.411,10.088-3.666,9.455-10.03c-0.266-2.677-1.285-4.619-3.489-6.242c-3.687-2.715-7.972-4.045-12.097-5.764
		c-3.683-1.534-7.27-3.219-10.685-5.319c-7.417-4.563-9.839-11.31-8.97-19.614c0.789-7.539,5.287-12.456,11.688-15.654
		c9.827-4.908,25.534-2.294,33.653,5.288C1055.998,234.127,1056.205,234.593,1056.594,235.167z"/>
	<path style="fill:#7C7C7F;" d="M730.522,238.857c-6.655,0-12.734,0-19.024,0c0-4.052,0-7.634,0-11.495c17.023,0,33.928,0,51.083,0
		c0.811,3.499,0.487,7.065,0.126,11.199c-6.289,0.778-12.569-0.004-19.273,0.489c0,20.782,0,41.498,0,62.386
		c-4.38,0.792-8.263,0.371-12.885,0.333c-0.047-10.674-0.021-20.924-0.027-31.174C730.518,260.289,730.522,249.984,730.522,238.857z
		"/>
	<path style="fill:#7A7A7D;" d="M562.758,301.54c0-24.957,0-49.369,0-74.115c3.993,0,7.9,0,12.278,0c0,20.601,0,41.314,0,62.527
		c10.838,0,21.231,0,31.894,0c0,4.077,0,7.661,0,11.587C592.398,301.54,577.864,301.54,562.758,301.54z"/>
	<path style="fill:#78797C;" d="M790.387,227.243c3.991,0,7.61,0,11.544,0c0,24.508,0,48.886,0,73.571c-3.727,0-7.464,0-11.544,0
		C790.387,276.428,790.387,252.061,790.387,227.243z"/>
	<path style="fill:#7D95AF;" d="M137.275,110.831c12.452-21.577,24.59-42.61,37.207-64.473
		c12.547,21.77,24.718,42.888,37.158,64.473C186.649,110.831,162.27,110.831,137.275,110.831z"/>
	<path style="fill:#1D3D66;" d="M167.913,193.682c-12.306,21.327-24.289,42.093-36.781,63.741
		c-12.497-21.638-24.555-42.514-36.815-63.741C118.989,193.682,143.032,193.682,167.913,193.682z"/>
	<path style="fill:#1D3D66;" d="M254.616,193.692c-12.386,21.458-24.464,42.381-36.789,63.733
		c-12.348-21.388-24.43-42.317-36.794-63.733C205.697,193.692,229.714,193.692,254.616,193.692z"/>
	<path style="fill:#3D658B;" d="M131.112,121.55c12.449,21.581,24.59,42.627,36.801,63.796c-4.003,1.065-67.808,1.301-73.765,0.345
		C106.373,164.477,118.527,143.387,131.112,121.55z"/>
	<path style="fill:#3D658B;" d="M180.688,186.022c12.411-21.556,24.547-42.636,37.118-64.47c12.513,21.695,24.7,42.824,37.185,64.47
		C229.935,186.022,205.697,186.022,180.688,186.022z"/>
	<path style="fill:#193B64;" d="M87.768,196.736c12.431,21.557,24.578,42.619,37.026,64.204c-24.864,0-49.133,0-74.027,0
		C63.159,239.438,75.311,218.351,87.768,196.736z"/>
	<path style="fill:#193B64;" d="M261.17,196.733c12.583,21.821,24.642,42.733,37.037,64.228c-24.934,0-49.099,0-74.038,0
		C236.424,239.689,248.52,218.692,261.17,196.733z"/>
	<path style="fill:#3E668B;" d="M211.24,118.442c-12.397,21.463-24.322,42.109-36.699,63.537
		c-12.61-21.269-24.484-42.187-36.77-63.537C162.422,118.442,186.31,118.442,211.24,118.442z"/>
</g>
</svg>
