<?xml version="1.0" encoding="iso-8859-1"?>
<!-- Generator: Adobe Illustrator 27.0.0, SVG Export Plug-In . SVG Version: 6.00 Build 0)  -->
<svg version="1.1" id="Layer_1" xmlns="http://www.w3.org/2000/svg" xmlns:xlink="http://www.w3.org/1999/xlink" x="0px" y="0px"
	 viewBox="0 0 1484 316" style="enable-background:new 0 0 1484 316;" xml:space="preserve">
<g>
	<path style="fill:#11A29C;" d="M1484,194c-0.934,0.076-1.368,0.859-1.963,1.404c-2.946,2.697-6.286,2.748-9.705,1.24
		c-3.3-1.456-5.23-4.025-5.359-7.741c-0.064-1.831-0.081-3.664-0.081-5.496c-0.004-45.319-0.003-90.637-0.003-135.956
		c0-1.619,0-3.237,0-5.821c-3.48,5.576-5.313,10.914-7.612,15.991c-7.188,15.872-14.111,31.864-21.172,47.794
		c-12.033,27.144-24.091,54.277-36.145,81.411c-0.606,1.364-1.192,2.745-1.926,4.04c-1.717,3.028-3.922,5.25-7.808,5.266
		c-4.025,0.016-6.64-1.997-8.267-5.352c-2.605-5.372-5.049-10.825-7.46-16.288c-6.898-15.63-13.723-31.292-20.619-46.923
		c-10.042-22.762-20.121-45.507-30.181-68.261c-2.281-5.159-4.541-10.327-6.829-15.483c-0.264-0.594-0.553-1.233-1.758-1.358
		c0,1.584,0,3.15,0,4.716c0,46.652-0.015,93.303,0.031,139.955c0.003,3.29-0.261,6.262-3.104,8.501
		c-2.911,2.291-5.974,2.776-9.312,1.234c-3.148-1.454-4.876-3.844-4.845-7.447c0.054-6.331,0.01-12.662,0.01-18.994
		c-0.001-26.991,0.473-53.993-0.14-80.971c-0.559-24.637-0.289-49.266-0.508-73.897c-0.012-1.333-0.1-2.676,0.032-3.997
		c0.563-5.622,3.833-9.832,8.382-10.385c5.219-0.634,10.529,0.695,13.221,6.591c6.612,14.479,13.405,28.875,19.99,43.365
		c6.657,14.648,13.121,29.385,19.727,44.057c9.739,21.632,19.523,43.243,29.308,64.854c0.744,1.642,1.304,3.402,2.79,4.986
		c2.415-5.246,4.811-10.341,7.118-15.476c15.637-34.798,31.245-69.609,46.885-104.405c5.306-11.805,11.302-23.347,15.82-35.444
		C1466.086,0.145,1476.308-1.64,1484,4C1484,67.333,1484,130.667,1484,194z"/>
	<path style="fill:#15A29C;" d="M101,0c4.623,3.539,6.877,8.625,9.194,13.739c11.293,24.931,22.665,49.827,34.054,74.714
		c0.533,1.164,0.77,2.595,2.178,3.382c1.121,0.525,2.094-0.247,3.178-0.626c19.233-6.734,38.473-13.449,57.719-20.145
		c4.38-1.524,8.664-3.337,13.23-4.311c4.41-0.941,8.682,1.311,10.369,5.565c1.656,4.175,0.094,9.105-3.883,11.102
		c-4.744,2.382-9.867,3.858-14.875,5.601c-19.235,6.695-38.462,13.415-58.011,20.237c2.224,6.521,5.477,12.438,8.241,18.542
		c8.348,18.435,16.94,36.759,25.451,55.12c1.463,3.155,1.956,6.457,0.588,9.649c-1.991,4.646-7.478,6.538-12.21,3.978
		c-7.296-3.946-14.39-8.27-21.545-12.475c-24.19-14.22-48.37-28.455-72.549-42.693c-3.434-2.022-6.963-3.914-10.227-6.184
		c-4.705-3.274-5.761-6.88-3.861-11.596c0.995-2.467,2.761-3.921,5.306-4.83c10.608-3.788,21.151-7.756,31.734-11.615
		c7.923-2.889,15.87-5.711,23.767-8.55c-0.362-4.11-26.498-63.802-34.351-78.516c-3.407,5.621-5.573,11.643-8.197,17.417
		c-8.027,17.666-15.815,35.441-23.708,53.168c-13.29,29.847-26.587,59.69-39.887,89.532c-1.552,3.483-3.121,6.958-4.719,10.42
		c-4.048,8.771-11.45,9.567-17.177,1.875C0.634,192.265,0.274,192.164,0,192c0-2,0-4,0-6c5.757-10.79,10.412-22.101,15.535-33.187
		c13.982-30.258,27.742-60.619,41.576-90.945c6.123-13.423,12.067-26.931,18.374-40.267C79.043,14.076,81.328,5.745,88,0
		C92.333,0,96.667,0,101,0z M98.168,129.31c20.792,12.247,40.59,23.908,60.388,35.569c0.281-0.221,0.562-0.441,0.843-0.662
		c-7.259-16.205-14.519-32.41-21.957-49.015C124.307,119.92,111.731,124.438,98.168,129.31z"/>
	<path style="fill:#11A29C;" d="M1223,0c0.413,1.231,1.655,0.881,2.498,1.275c3.487,1.632,5.43,4.27,5.55,8.165
		c0.036,1.166,0.062,2.332,0.06,3.499c-0.032,35.665,0.118,71.331-0.179,106.994c-0.161,19.435-5.625,37.295-17.841,52.805
		c-9.203,11.684-21.239,19.207-35.349,22.963c-20.863,5.553-41.748,5.279-62.15-2.536c-14.833-5.682-26.189-15.587-34.085-29.339
		c-6.116-10.651-9.198-22.238-10.66-34.423c-1.217-10.147-0.701-20.284-0.776-30.415c-0.208-28.328-0.076-56.658-0.065-84.987
		c0.001-1.831-0.112-3.703,0.216-5.484c0.641-3.479,2.544-6.386,5.998-7.327c3.646-0.993,7.24-0.441,10.077,2.648
		c1.632,1.776,1.83,3.805,1.825,6.014c-0.023,10.5-0.01,20.999-0.01,31.499c0,13.666-0.103,27.334,0.029,40.999
		c0.13,13.472,0.183,26.958,0.846,40.409c0.719,14.585,5.271,27.952,14.439,39.58c5.839,7.405,13.428,12.216,22.023,15.763
		c7.962,3.285,16.399,4.695,24.788,4.612c14.6-0.145,28.649-2.873,40.586-12.456c10.209-8.195,15.764-19.054,19.139-31.316
		c2.219-8.06,2.782-16.388,2.841-24.648c0.22-31.164,0.039-62.331,0.156-93.497c0.014-3.612-1.029-7.073-0.268-10.86
		c1.054-5.24,3.244-8.566,8.739-9.224c0.216-0.026,0.382-0.464,0.571-0.711C1222.333,0,1222.667,0,1223,0z"/>
	<path style="fill:#31AADF;" d="M718,316c-1.336-1.75-1.916-3.641-1.897-5.924c0.103-12.644,0.049-25.289,0.049-37.934
		c0-0.499,0.035-1.001-0.005-1.497c-0.168-2.071,0.673-3.65,2.572-4.385c2.028-0.786,3.541,0.379,4.73,1.882
		c2.878,3.638,5.676,7.339,8.541,10.987c6.423,8.18,12.868,16.344,19.849,25.206c0.101-1.993,0.213-3.2,0.215-4.408
		c0.015-9.151,0.018-18.302,0.002-27.452c-0.004-2.166-0.16-4.35,1.574-6.047c3.666-0.091,4.018,0.126,4.341,2.891
		c0.096,0.822,0.043,1.662,0.043,2.493c0.002,12.978-0.022,25.955,0.028,38.932c0.007,1.856-0.24,3.594-1.042,5.256c-1,0-2,0-3,0
		c-0.656-0.702-1.369-1.36-1.96-2.113c-8.372-10.671-16.728-21.355-25.089-32.035c-1.179-1.506-2.196-3.2-4.144-4.057
		c-1.177,1.8-0.685,3.489-0.694,5.071c-0.051,8.968-0.035,17.937-0.017,26.906c0.004,2.149,0.009,4.282-1.095,6.228
		C720,316,719,316,718,316z"/>
	<path style="fill:#2CA9DE;" d="M999,316c-4.202-2.461-8.762-4.421-11.87-8.422c-6.032-7.767-7.77-16.427-4.311-25.622
		c3.384-8.994,9.851-14.565,19.71-16.078c6.723-1.032,12.866,0.161,18.323,3.901c4.893,3.354,8.597,8.072,9.738,13.974
		c2.644,13.679-2.088,26.845-16.591,31.3c-0.499,0.153-0.869,0.417-1,0.947C1008.333,316,1003.667,316,999,316z M1025.035,290.718
		c0.587-3.696-0.844-7.174-2.821-10.524c-6.855-11.616-23.054-12.255-30.831-1.542c-3.774,5.199-4.079,10.782-3.328,16.57
		c1.361,10.488,13.914,18.384,23.869,14.864C1019.445,307.427,1025.958,298.96,1025.035,290.718z"/>
	<path style="fill:#2CA9DE;" d="M293,316c-0.44-1.5-1.938-1.082-2.912-1.473c-18.173-7.302-19.625-31.317-7.596-42.324
		c7.096-6.493,15.785-8.433,24.946-5.679c8.907,2.679,14.234,9.038,16.672,18.163c3.207,12.003-3.307,25.674-15.692,30.213
		c-0.626,0.23-1.287,0.288-1.418,1.1C302.333,316,297.667,316,293,316z M298.157,271.019c-3.197,0.474-7.535,1.545-11.063,5.061
		c-4.962,4.944-6.855,10.852-6.039,17.638c1.774,14.76,18.273,21.933,29.341,13.708c7.166-5.326,9.236-12.366,7.701-20.887
		C316.471,277.518,308.756,270.949,298.157,271.019z"/>
	<path style="fill:#2CA9DE;" d="M825,316c-2.318-1.811-5.239-2.445-7.684-4.1c-6.725-4.554-9.675-11.052-10.313-18.849
		c-0.531-6.489,0.687-12.501,4.892-17.726c4.102-5.097,9.218-8.224,15.736-9.429c6.924-1.28,13.046,0.277,18.759,4.057
		c9.125,6.038,13.534,19.426,8.571,30.909c-2.954,6.834-7.645,11.957-15.032,14.146c-0.502,0.149-0.849,0.445-0.93,0.991
		C834.333,316,829.667,316,825,316z M812.995,290.924c-0.401,3.205,0.773,7.173,2.904,10.857
		c4.725,8.169,16.763,12.204,25.916,6.139c8.766-5.808,11.77-16.812,6.419-27.118c-3.121-6.012-8.441-9.271-15.184-9.754
		C822.402,270.285,812.711,279.153,812.995,290.924z"/>
	<path style="fill:#2CA9DE;" d="M1096,316c-0.742-1.673-2.566-1.272-3.834-1.854c-9.331-4.289-13.598-11.807-14.067-21.698
		c-0.51-10.743,3.944-18.894,13.3-24.328c8.22-4.775,24.843-2.772,29.258,4.5c0.107,1.389-0.596,2.418-1.654,3.212
		c-2.328,0.63-3.819-0.894-5.511-1.89c-8.603-5.064-18.432-3.64-24.784,3.779c-6.375,7.447-5.913,21.187,1.425,28.178
		c7.134,6.797,19.955,6.606,26.781-0.297c0.091-3.468,0.341-7.084-0.227-10.856c-4.634-1.468-9.357-0.039-13.859-0.898
		c-1.176-3.801-0.737-4.737,2.664-4.823c5.157-0.13,10.319-0.034,14.992-0.034c1.285,0.628,1.876,1.368,1.994,2.131
		c0.844,5.446,0.64,10.931,0.126,16.38c-0.151,1.602-1.578,2.7-2.99,3.766c-2.938,2.218-6.524,2.943-9.617,4.731
		C1105.333,316,1100.667,316,1096,316z"/>
	<path style="fill:#36ABDF;" d="M627,316c-0.742-1.68-1.055-3.408-1.047-5.274c0.055-13.164,0.029-26.329,0.029-39.493
		c0-0.167-0.004-0.333,0.001-0.5c0.104-3.538,0.871-4.715,3.047-4.68c2.144,0.035,2.878,1.172,2.902,4.788
		c0.037,5.482,0.01,10.965,0.01,16.369c3.835,1.061,21.912,1.198,27.316,0.192c0-5.361-0.032-10.819,0.013-16.276
		c0.024-2.902,0.085-2.901,3.083-5.16c2.513,0.435,3.486,2.158,3.489,4.575c0.017,13.664-0.026,27.329,0.049,40.992
		c0.01,1.871-1.249,2.988-1.891,4.466c-1,0-2,0-3,0c-1.071-1.582-1.13-3.36-1.11-5.192c0.047-4.307,0.024-8.615,0.009-12.923
		c-0.005-1.301,0.23-2.694-1.642-4.035c-3.866,0-8.33-0.232-12.758,0.066c-4.358,0.293-8.711-1.154-13.56-0.288
		c0,5.976-0.052,11.575,0.027,17.173c0.029,2.05-0.14,3.906-1.966,5.199C629,316,628,316,627,316z"/>
	<path style="fill:#2CA9DE;" d="M1325,316c-2.818-1.61-6.133-2.104-8.841-3.98c-1.886-1.307-4.105-2.24-4.859-4.833
		c0.161-1.373,1.206-2.164,2.4-2.896c1.366,0.054,2.505,0.73,3.526,1.574c3.149,2.602,6.846,3.871,10.767,4.763
		c3.618,0.824,6.925,0.016,10.085-1.567c2.583-1.294,3.843-3.554,3.911-6.462c0.07-3.005-1.396-4.97-4.017-6.298
		c-3.442-1.745-7.197-2.397-10.878-3.318c-3.719-0.93-7.258-2.169-10.291-4.684c-5.509-4.568-5.19-14.003,0.784-18.876
		c6.878-5.61,20.143-4.45,26.707,0.554c2.472,1.884,2.308,3.213-0.593,5.999c-3.534-1.025-6.506-3.585-10.271-4.444
		c-3.219-0.734-6.239-0.741-9.24,0.465c-3.001,1.207-4.976,3.474-5.146,6.727c-0.177,3.383,1.878,5.628,4.883,6.8
		c2.607,1.016,5.31,1.911,8.052,2.424c2.974,0.556,5.681,1.666,8.44,2.805c5.046,2.083,7.326,5.835,7.623,11.164
		c0.321,5.755-2.878,9.208-7.226,12.166c-1.222,0.831-3.062,0.287-3.815,1.918C1333,316,1329,316,1325,316z"/>
	<path style="fill:#2CA9DE;" d="M553,316c-2.367-1.732-5.213-2.524-7.7-4.104c-13.469-8.559-13.501-31.565-0.922-41.392
		c7.174-5.604,23.511-6.438,31.08-0.209c2.33,1.917,2.523,2.108,2.258,6.03c-2.414,1.508-4.151,0.225-6.14-1.24
		c-6.057-4.462-12.547-5.438-19.62-2.237c-8.437,3.818-12.145,13.117-10.729,21.055c1.416,7.941,5.407,14.569,15.488,16.597
		c5.853,1.178,10.698-0.86,15.326-3.979c1.21-0.815,2.019-2.233,3.589-2.442c1.768,0.26,2.561,1.449,3.336,2.914
		c-2.29,3.786-5.748,5.944-9.547,7.702c-0.83,0.384-2.093-0.015-2.419,1.304C562.333,316,557.667,316,553,316z"/>
	<path style="fill:#39ACE0;" d="M384,316c-0.862-1.839-0.972-3.781-0.965-5.785c0.04-10.987,0.035-21.974,0.001-32.961
		c-0.005-1.616,0.344-3.294-0.327-4.776c-5.41-1.988-11.729,1.811-16.617-2.802c0.693-2.584,2.139-3.551,4.437-3.545
		c10.321,0.026,20.642,0.027,30.963,0c2.28-0.006,3.778,0.93,4.442,3.058c-0.4,2.511-2.142,2.769-4.096,2.76
		c-4.116-0.018-8.233-0.005-12.258-0.005c-0.87,2.043-0.537,3.718-0.542,5.337c-0.033,10.987-0.044,21.974,0.007,32.961
		c0.009,2.012-0.111,3.944-1.046,5.758C386.667,316,385.333,316,384,316z"/>
	<path style="fill:#39ACE0;" d="M221,316c-1.357-1.939-1.942-3.996-1.917-6.455c0.128-12.486,0.085-24.975,0.038-37.462
		c-0.01-2.62,0.125-5.026,3.203-6.123c2.52,0.481,3.442,2.131,3.438,4.608c-0.022,13.653-0.056,27.307,0.043,40.959
		c0.014,1.879-1.199,2.991-1.805,4.474C223,316,222,316,221,316z"/>
	<path style="fill:#39ACE0;" d="M1174,316c-1.129-2.581-1.805-5.218-1.785-8.096c0.08-11.615,0.051-23.231,0.015-34.847
		c-0.006-1.846,0.053-3.654,0.921-5.313c0.677-1.293,1.778-1.969,3.279-1.695c1.494,0.273,2.295,1.237,2.401,2.737
		c0.058,0.826,0.026,1.658,0.026,2.488c0.001,12.943-0.05,25.887,0.048,38.829c0.017,2.275-0.502,4.179-1.906,5.898
		C1176,316,1175,316,1174,316z"/>
	<path style="fill:#9CCCEC;" d="M487.1,315.12c-0.068,0.289-0.101,0.583-0.1,0.88c-10.667,0-21.333,0-32,0
		c0.036-0.314,0.015-0.625-0.063-0.932C465.658,315.086,476.379,315.103,487.1,315.12z"/>
	<path style="fill:#9CCCEC;" d="M1232,316c0.047-0.322,0.034-0.642-0.04-0.959c10.722,0.042,21.445,0.085,32.167,0.127
		c-0.052,0.276-0.094,0.554-0.127,0.833C1253.333,316,1242.667,316,1232,316z"/>
	<path style="fill:#9CCCEC;" d="M937.117,315.152c-0.054,0.281-0.093,0.563-0.117,0.848c-9.667,0-19.333,0-29,0
		c0.001-0.298-0.031-0.592-0.096-0.883C917.642,315.129,927.379,315.14,937.117,315.152z"/>
	<path style="fill:#9CCCEC;" d="M133,316c0.047-0.325,0.037-0.649-0.029-0.971c8.033,0.016,16.066,0.033,24.099,0.049
		c-0.083,0.303-0.107,0.61-0.07,0.922C149,316,141,316,133,316z"/>
	<path style="fill:#17A29C;" d="M959.043,115.413c0.048,2.153,1.38,3.265,2.364,4.532c16.214,20.87,32.471,41.707,48.646,62.607
		c4.658,6.019,2.061,13.215-5.24,14.904c-4.061,0.939-7.179-0.801-9.606-3.843c-4.145-5.196-8.169-10.489-12.219-15.761
		c-14.583-18.983-29.156-37.972-43.724-56.966c-0.509-0.664-0.915-1.406-1.106-1.703c-20.228,0-39.689,0-58.989,0
		c-1.796,1.647-1.13,3.602-1.134,5.347c-0.045,20.991-0.076,41.983,0.008,62.974c0.018,4.522-1.692,7.665-5.879,9.437
		c-4.706,1.991-10.65-0.644-12.026-5.58c-0.615-2.206-0.947-4.505-0.944-6.879c0.054-56.31,0.042-112.62,0.042-168.93
		c0-0.666-0.04-1.336,0.008-1.999c0.531-7.354,3.35-11.767,12.145-11.66c26.152,0.318,52.32-0.287,78.46,0.357
		c19.549,0.482,37.196,6.761,50.636,21.871c6.823,7.671,10.081,16.966,11.559,27.059c1.051,7.179,0.7,14.198-0.864,21.216
		c-4.099,18.396-15.799,30.213-32.63,37.505C972.335,112.594,965.789,114.283,959.043,115.413z M878.166,102.994
		c2.126,0,3.769,0,5.412,0c19.15,0,38.3-0.053,57.45,0.031c6.019,0.026,11.936-0.694,17.751-2.05
		c7.661-1.787,14.894-4.698,20.913-9.95c12.77-11.143,16.428-25.159,12.819-41.403c-1.759-7.916-5.75-14.505-12.12-19.479
		c-9.486-7.409-20.507-10.905-32.395-11.067c-22.472-0.306-44.949-0.201-67.424-0.251c-0.81-0.002-1.68-0.014-2.406,0.994
		C878.166,47.186,878.166,74.777,878.166,102.994z"/>
	<path style="fill:#1BA39D;" d="M684.314,106.768c0,24.647,0,48.57,0,72.356c2.113,1.391,4.172,0.841,6.112,0.841
		c34.665,0.001,69.329-0.046,103.994-0.078c1.666-0.002,3.337-0.036,4.998,0.063c4.975,0.297,7.847,3.492,7.693,8.478
		c-0.143,4.634-3.119,7.553-8.04,7.559c-27.999,0.039-55.998,0.008-83.997,0.024c-12.332,0.007-24.663,0.094-36.995,0.093
		c-9.722,0-12.835-3.116-12.844-12.766c-0.013-14.166-0.003-28.332-0.003-42.498c0-41.499,0-82.997,0-124.496c0-1-0.021-2,0.004-3
		c0.184-7.381,4.16-11.338,11.535-11.345c25.332-0.023,50.665-0.009,75.997-0.009c14,0,27.999-0.001,41.999,0.002
		c1.333,0,2.681-0.086,3.996,0.075c3.966,0.487,6.785,3.368,7.136,7.154c0.357,3.853-1.758,7.361-5.29,8.714
		c-2.219,0.85-4.542,0.844-6.881,0.842c-34.499-0.019-68.998-0.013-103.496-0.013c-1.827,0-3.655,0-5.422,0
		c-1.067,3.975-1.473,56.171-0.599,70.541c1.537,1.358,3.458,0.756,5.207,0.757c18.165,0.015,36.331-0.062,54.496-0.066
		c13.332-0.003,26.664,0.1,39.996,0.072c3.605-0.008,6.539,0.931,8.264,4.363c2.421,4.815,0.306,9.951-4.769,11.607
		c-2.259,0.737-4.575,0.733-6.906,0.732c-30.166-0.008-60.331-0.005-90.497-0.005C688.196,106.768,686.391,106.768,684.314,106.768z
		"/>
	<path style="fill:#17A29C;" d="M264.006,178.753c0.959,0.235,1.423,0.455,1.883,0.445c11.645-0.255,23.286,1.508,34.897,0.586
		c11.888-0.944,23.91,0.314,35.684-2.668c30.992-7.849,51.776-26.277,59.442-57.805c4.646-19.108,2.851-38.009-5.351-55.955
		c-6.382-13.963-16.407-24.876-29.804-32.578c-14.299-8.221-29.68-12.048-46.166-11.913c-18.654,0.152-37.31,0.038-55.966,0.03
		c-1.498-0.001-3.034,0.129-4.486-0.149c-4.965-0.95-7.035-3.347-6.982-9.235c0.042-4.577,3.254-7.484,8.202-7.488
		c22.489-0.02,45.001-0.574,67.459,0.275c24.844,0.939,46.954,9.87,65.384,26.835c15.031,13.836,24.05,31.161,27.685,51.184
		c3.1,17.078,2.195,34.04-3.385,50.538c-8.35,24.689-24.502,42.673-47.822,54.17c-14.805,7.298-30.497,11.026-47.055,10.991
		c-19.824-0.042-39.648,0-59.473-0.015c-7.59-0.006-11.011-3.282-11.028-10.895c-0.058-27.321-0.048-54.642-0.004-81.962
		c0.01-6.33,3.253-9.449,9.17-9.145c4.707,0.242,7.676,3.198,7.697,7.969c0.058,13.494,0.021,26.988,0.021,40.481
		c0,10.495,0,20.99,0,31.486C264.006,175.558,264.006,177.182,264.006,178.753z"/>
	<path style="fill:#15A29C;" d="M528.292,175.82c5.722-13.615,11.077-26.281,16.372-38.972c9.191-22.03,18.337-44.078,27.515-66.113
		c8.094-19.432,16.191-38.862,24.328-58.276c1.024-2.443,2.116-4.894,3.497-7.145c2.682-4.369,7.713-5.795,12.157-3.689
		c4.252,2.015,6.083,6.436,4.162,11.398c-2.633,6.799-5.634,13.456-8.522,20.155c-11.356,26.341-22.691,52.69-34.108,79.004
		c-9.437,21.752-18.981,43.458-28.47,65.187c-2.057,4.71-4.081,9.434-6.118,14.152c-2.827,6.546-9.917,8.371-15.888,6.415
		c-3.658-1.198-5.659-3.993-7.075-7.254c-7.857-18.098-15.621-36.236-23.463-54.341c-8.041-18.564-16.168-37.091-24.198-55.66
		c-8.884-20.543-17.696-41.117-26.552-61.672c-0.721-1.675-1.603-3.282-2.294-4.968c-1.99-4.855-0.444-9.834,3.714-12.155
		c4.1-2.29,9.525-1.171,12.582,2.659c1.679,2.104,2.601,4.638,3.62,7.078c14.253,34.103,28.472,68.22,42.673,102.345
		c7.704,18.513,15.348,37.052,23.046,55.568C526.021,171.342,526.963,173.07,528.292,175.82z"/>
	<path style="fill:#36ABDF;" d="M157.07,315.078c-8.033-0.016-16.066-0.033-24.099-0.049c-1.904-0.85-1.832-2.531-1.83-4.226
		c0.014-13.134-0.019-26.269,0.023-39.403c0.014-4.312,0.941-5.198,5.294-5.238c5.486-0.052,10.973,0.009,16.46-0.02
		c2.701-0.014,5.168,0.797,7.685,1.695c8.875,3.162,10.076,14.518,4.083,19.864c-0.711,0.634-1.637,1.169-1.763,2.24
		c0.091,0.867,0.805,1.016,1.375,1.291c5.131,2.479,7.238,6.728,6.615,12.192c-0.592,5.189-3.428,8.854-8.536,10.544
		C160.647,314.539,158.944,315.206,157.07,315.078z M137.228,309.984c6.517,0,12.636,0.071,18.752-0.052
		c1.439-0.029,2.959-0.513,4.28-1.133c5.057-2.37,6.325-8.746,2.593-12.459c-1.495-1.487-3.479-1.854-5.365-2.367
		c-5.533-1.502-11.207-0.692-16.822-0.872c-1.16-0.037-2.35-0.102-3.439,1.159C137.228,299.108,137.228,304.214,137.228,309.984z
		 M137.259,272.006c0,5.455,0,10.496,0,15.996c5.148,0,10.068-0.062,14.986,0.034c1.73,0.034,3.359-0.454,4.776-1.121
		c2.559-1.205,4.745-2.997,5.066-6.194c0.476-4.73-2.12-8.219-7.374-8.616C148.998,271.672,143.224,272.006,137.259,272.006z"/>
	<path style="fill:#36ABDF;" d="M1264.127,315.167c-10.722-0.042-21.445-0.085-32.167-0.127c-1.944-0.798-1.912-2.47-1.91-4.181
		c0.016-13.165-0.019-26.33,0.025-39.496c0.014-4.244,1-5.177,5.385-5.201c8.499-0.048,16.998,0.007,25.497-0.032
		c1.723-0.008,3.304,0.209,4.597,1.422c0.135,3.89-0.073,4.309-3.324,4.358c-6.664,0.1-13.331,0.031-19.997,0.031
		c-1.823,0-3.646,0-5.841,0c0,5.256,0,10.322,0,15.539c1.52,1.102,3.407,0.52,5.169,0.549c5.165,0.083,10.332,0.029,15.498,0.03
		c1,0,2.001-0.031,2.999,0.013c1.745,0.077,2.919,0.91,2.778,2.76c-0.119,1.561-1.25,2.251-2.771,2.256
		c-4,0.012-8.001-0.073-11.998,0.034c-3.781,0.101-7.608-0.487-11.804,0.499c-0.456,5.339-0.245,10.575-0.11,16.412
		c9.776,0,19.346,0,28.82,0C1266.203,312.44,1267.165,314.209,1264.127,315.167z"/>
	<path style="fill:#36ABDF;" d="M487.1,315.12c-10.721-0.017-21.442-0.034-32.163-0.052c-1.441-0.162-1.937-1.057-1.937-2.406
		c0.008-14.964,0.005-29.927,0.005-44.549c1.688-1.859,3.456-1.989,5.336-1.981c8.492,0.036,16.985,0.059,25.477-0.01
		c2.607-0.021,4.597,0.546,5.087,3.384c-0.677,2.447-2.53,2.443-4.415,2.439c-6.661-0.012-13.322-0.004-19.982-0.004
		c-1.641,0-3.282,0-5.163,0c-0.827,5.366-0.163,10.431-0.484,16.117c4.399,0,8.339,0,12.279,0c3.663,0,7.327,0.027,10.99-0.011
		c1.837-0.019,3.56,0.373,3.615,2.484c0.056,2.136-1.628,2.583-3.488,2.575c-6.328-0.028-12.656-0.035-18.983,0.013
		c-1.284,0.01-2.655-0.396-4.089,0.594c0,5.133,0,10.391,0,15.626c1.146,1.148,2.553,0.689,3.822,0.696
		c7.493,0.046,14.987,0.035,22.48,0.015c1.628-0.004,3.047,0.321,3.428,2.139C489.218,313.644,488.861,314.861,487.1,315.12z"/>
	<path style="fill:#FED73F;" d="M268.907,63.658c-0.035,7.075-6.442,13.227-13.483,13.21c-8.432-0.02-13.463-8.147-13.326-13.478
		c0.18-7.021,6.591-13.342,13.619-13.279C262.751,50.175,268.942,56.533,268.907,63.658z"/>
	<path style="fill:#30A9DF;" d="M937.117,315.152c-9.738-0.012-19.475-0.023-29.213-0.035c-2.588-0.623-2.605-2.765-2.612-4.727
		c-0.049-12.969-0.051-25.938-0.001-38.908c0.009-2.361,0.44-4.652,3.153-5.549c3.183,0.854,3.436,3.202,3.423,5.857
		c-0.051,10.807-0.021,21.615-0.021,32.423c0,1.658,0,3.315,0,4.744c1.209,1.507,2.644,0.993,3.902,1.004
		c5.985,0.053,11.972,0.003,17.957,0.038c1.621,0.01,3.365-0.419,4.92,1.145C939.147,312.709,939.866,314.473,937.117,315.152z"/>
</g>
</svg>
