<?xml version="1.0" encoding="iso-8859-1"?>
<!-- Generator: Adobe Illustrator 27.0.0, SVG Export Plug-In . SVG Version: 6.00 Build 0)  -->
<svg version="1.1" id="Layer_1" xmlns="http://www.w3.org/2000/svg" xmlns:xlink="http://www.w3.org/1999/xlink" x="0px" y="0px"
	 viewBox="0 0 1527.432 733" style="enable-background:new 0 0 1527.432 733;" xml:space="preserve">
<g>
	<path style="fill:#FFD006;" d="M450.432,0c1.891,1.909,4.405,2.788,6.72,3.964c26.215,13.321,52.451,26.599,78.681,39.89
		c47.573,24.104,95.153,48.195,142.718,72.316c45.787,23.219,91.555,46.477,137.339,69.702
		c48.599,24.653,97.214,49.275,145.809,73.937c17.472,8.867,34.905,17.811,52.668,26.878c0,5.122,0,10.42,0,16.023
		c9.805,7.96,19.581,15.895,29.395,23.862c-2.046,6.996-3.983,13.62-6.081,20.79c-2.431-1.6-4.591-2.797-6.48-4.329
		c-1.799-1.459-3.667-1.954-5.951-1.951c-37.83,0.053-75.66,0.038-113.491,0.044c-0.493,0-0.986,0.07-1.999,0.146
		c-4.28,6.957-8.723,14.139-13.115,21.353c-0.942,1.547-0.465,3.303-0.155,4.896c2.979,15.289,6.038,30.562,9.134,46.141
		c11.997,0.823,23.886,1.638,35.765,2.452c3.08,4.289,5.877,8.528,8.588,13.576c-12.191,0.693-23.718,1.348-35.278,2.005
		c-3.858,6.973-7.54,13.627-11.561,20.894c-3.116-5.633-5.908-10.632-8.652-15.657c-2.469-4.521-5.01-9.01-7.269-13.636
		c-1.05-2.15-2.63-3.306-4.719-4.068c-20.714-7.562-41.43-15.12-62.139-22.697c-9.961-3.645-19.912-7.316-29.851-11.019
		c-0.707-0.263-1.647-0.365-2.076-1.786c10.399-10.604,20.962-21.374,31.649-32.271c-1.907-0.784-3.558-0.433-5.162-0.437
		c-14.832-0.033-29.664-0.022-44.496-0.016c-1.996,0.001-3.899-0.171-5.862-0.83c-63.81-21.432-127.641-42.801-191.471-64.17
		c-65.718-22.001-131.439-43.992-197.157-65.993c-10.341-3.462-20.672-6.957-30.961-10.766c7.794-0.268,15.543-0.364,23.286,0.224
		c1.325,0.101,2.643,0.332,3.968,0.374c14.145,0.446,28.293,0.811,42.436,1.305c18.461,0.644,36.929,1.193,55.372,2.182
		c6.821,0.366,13.636,0.456,20.453,0.708c19.458,0.719,38.926,1.254,58.368,2.292c7.654,0.409,15.304,0.44,22.951,0.759
		c17.957,0.75,35.913,1.536,53.871,2.26c9.648,0.389,19.305,0.367,28.946,0.899c6.642,0.366,13.294,0.564,19.942,0.813
		c1.478,0.055,2.96,0.008,4.688-0.736c-66.485-31.685-132.971-63.37-199.586-95.117c-1.739-6.999-3.49-13.894-5.165-20.808
		c-6.477-26.739-12.942-53.48-19.385-80.227c-1.938-8.047-3.792-16.114-5.685-24.172C449.766,0,450.099,0,450.432,0z"/>
	<path style="fill:#080707;" d="M728.432,733c-1.913-1.889-4.561-1.355-6.828-1.874c-32.214-7.38-53.679-26.622-61.868-58.65
		c-10.634-41.587,15.445-82.682,56.526-93.355c30.182-7.841,56.995-0.757,79.377,21.064c12.497,12.183,19.563,27.294,21.917,44.744
		c5.266,39.048-21.263,75.985-59.762,85.382c-3.378,0.825-6.773,1.647-10.285,1.767c-0.781,0.027-1.7-0.088-2.077,0.923
		C739.766,733,734.099,733,728.432,733z M783.778,661.38c-0.332-22.902-6.562-35.899-19.214-45.712
		c-14.733-11.426-35.808-11.524-50.527-2.211c-24.565,15.542-29.846,49.889-11.096,72.299c11.254,13.45,25.97,18.769,43.247,15.676
		C768.841,697.375,784.138,676.155,783.778,661.38z"/>
	<path style="fill:#090808;" d="M1224.432,733c-0.649-1.431-1.978-0.888-3.053-1.031c-22.225-2.939-40.993-12.086-54.29-30.701
		c-8.396-11.753-12.715-25.006-13.766-39.414c-0.695-9.529-0.369-18.923,1.952-28.231c6.547-26.254,22.635-43.803,48.142-52.639
		c13.722-4.753,27.842-5.719,42.284-4.272c11.357,1.137,22.186,3.768,32.433,8.787c5.259,2.576,10.108,5.73,14.691,10.359
		c-7.676,8.223-15.332,16.424-22.763,24.384c-1.88,0.09-2.462-1.094-3.282-1.83c-8.397-7.528-18.251-11.197-29.492-11.558
		c-8.068-0.259-15.997,0.299-23.45,3.579c-14.19,6.247-22.197,17.529-25.378,32.388c-2.17,10.137-1.366,20.231,2.019,29.994
		c5.843,16.852,20.165,28.159,39.48,29.284c12.018,0.699,23.445-1.483,34.186-7.246c0-7.841,0-15.613,0-23.734
		c-11.95,0-23.72,0-36.318,0c4.406-10.383,8.561-20.177,12.794-30.152c18.37,0,36.644,0,55.219,0c0,25.835,0,51.585,0,77.543
		c-10.087,5.415-20.825,9.153-32.075,11.441c-5.537,1.126-11.094,2.207-16.789,2.158c-0.695-0.006-1.302,0.122-1.546,0.89
		c-0.667,0-1.333,0-2,0c-0.202-0.71-0.694-1.036-1.411-1.036c-4.383,0.002-8.765,0.006-13.148,0.013
		c-0.716,0.001-1.209,0.333-1.441,1.023C1226.432,733,1225.432,733,1224.432,733z"/>
	<path style="fill:#070606;" d="M219.432,733c-0.526-1.613-1.926-0.905-2.953-1.055c-21.572-3.168-39.971-12.004-53.098-30.022
		c-8.198-11.252-12.554-23.972-14.022-37.801c-1.372-12.929-0.41-25.554,3.905-37.864c7.889-22.503,23.297-37.476,45.723-45.204
		c13.877-4.782,28.156-5.824,42.77-4.32c11.528,1.186,22.498,3.9,32.836,9.146c4.925,2.499,9.34,5.686,13.813,9.904
		c-7.683,8.362-15.282,16.633-23.035,25.072c-5.39-4.923-10.738-9.047-17.316-11.24c-16.577-5.527-39.425-3.879-52.693,10.883
		c-6.924,7.703-10.681,16.825-11.752,26.925c-1.007,9.498-0.154,18.932,3.7,27.871c7.317,16.968,20.553,25.492,38.669,26.789
		c10.259,0.735,20.184-0.952,29.65-5.075c1.063-0.463,2.123-0.938,3.15-1.471c0.428-0.222,0.769-0.613,1.258-1.016
		c0-7.561,0-15.19,0-23.353c-11.963,0-23.846,0-36.385,0c4.494-10.549,8.694-20.406,12.902-30.284c18.456,0,36.57,0,55.027,0
		c0,25.867,0,51.597,0,77.678c-8.414,4.629-17.574,7.932-27.057,10.27c-6.76,1.667-13.59,3.18-20.626,3.206
		c-0.705,0.003-1.29,0.166-1.467,0.962c-1,0-2,0-3,0c-0.195-0.715-0.687-1.043-1.404-1.042c-4.385,0.003-8.769,0.01-13.154,0.019
		c-0.717,0.001-1.209,0.332-1.442,1.023C222.099,733,220.766,733,219.432,733z"/>
	<path style="fill:#080808;" d="M596.432,733c-0.3-1.056-1.195-0.922-1.994-1.019c-19.07-2.312-35.843-9.411-49.118-23.708
		c-10.491-11.299-16.342-24.812-18.795-39.902c-0.991-6.095-1.229-12.242-1.022-18.408c1.052-31.463,19.223-58.407,49.851-68.833
		c19.483-6.633,39.047-6.994,58.4,0.796c8.618,3.469,16.002,8.684,22.44,16.418c-8.442,6.762-16.789,13.449-25.102,20.107
		c-0.632-0.334-1.195-0.459-1.491-0.811c-14.816-17.631-51.278-14.755-63.818,11.833c-9.616,20.388-8.359,40.475,5.848,58.532
		c13.105,16.656,39.095,19.329,54.252,5.5c2.312-2.109,4.328-4.542,6.81-7.174c8.943,6.837,17.852,13.649,27.06,20.689
		c-10.957,14.889-25.63,22.515-43.305,24.989c-4.696-0.011-9.392-0.016-14.088-0.038c-0.844-0.004-1.612,0.072-1.928,1.028
		C599.099,733,597.766,733,596.432,733z"/>
	<path style="fill:#4F4D4C;" d="M1526.435,698.993c0.333,0.002,0.665,0.004,0.998,0.007c0,10,0,20,0,30
		c-0.349-0.053-0.699-0.106-1.048-0.159C1526.401,718.892,1526.418,708.943,1526.435,698.993z"/>
	<path style="fill:#565353;" d="M223.432,733c0.233-0.69,0.726-1.021,1.442-1.023c4.385-0.009,8.769-0.016,13.154-0.019
		c0.717,0,1.209,0.327,1.404,1.042C234.099,733,228.766,733,223.432,733z"/>
	<path style="fill:#52504F;" d="M600.432,733c0.317-0.956,1.084-1.032,1.928-1.028c4.696,0.021,9.392,0.027,14.088,0.038
		c-0.066,0.219-0.159,0.435-0.185,0.659c-0.012,0.103,0.108,0.221,0.169,0.332C611.099,733,605.766,733,600.432,733z"/>
	<path style="fill:#565353;" d="M1227.432,733c0.233-0.69,0.725-1.022,1.441-1.023c4.383-0.007,8.765-0.012,13.148-0.013
		c0.717,0,1.209,0.326,1.411,1.036C1238.099,733,1232.766,733,1227.432,733z"/>
	<path style="fill:#070606;" d="M454.581,580.364c0,49.635,0,98.913,0,148.414c-14.29,0-28.405,0-42.945,0
		c-21.369-34.762-42.879-69.753-64.389-104.744c-0.232,0.083-0.465,0.166-0.697,0.249c0,34.703,0,69.405,0,104.413
		c-11.006,0-21.722,0-32.683,0c0-49.468,0-98.858,0-148.473c14.794,0,29.407,0,44.671,0c20.617,33.875,41.46,68.121,62.875,103.307
		c0-35.009,0-68.906,0-103.167C432.57,580.364,443.444,580.364,454.581,580.364z"/>
	<path style="fill:#030303;" d="M998.023,698.683c0,10.281,0,20.031,0,30.05c-34.854,0-69.6,0-104.634,0
		c0-49.419,0-98.811,0-148.468c33.498,0,67.064,0,100.818,0c0,9.929,0,19.685,0,29.91c-22.532,0-44.928,0-67.614,0
		c0,9.377,0,18.296,0,27.719c21.086,0,42.311,0,63.736,0c0,10.255,0,20.01,0,30.189c-21.125,0-42.19,0-63.135,0
		c-1.075,3.857-1.366,21.995-0.541,30.6C950.327,698.683,974.061,698.683,998.023,698.683z"/>
	<path style="fill:#020202;" d="M1526.435,698.993c-0.017,9.949-0.034,19.898-0.051,29.848c-6.327,0.053-12.654,0.148-18.981,0.152
		c-26.657,0.017-53.315,0.007-79.973,0.007c-1.631,0-3.263,0-5.068,0c0-49.809,0-99.191,0-148.787c33.599,0,67.005,0,100.64,0
		c0,9.939,0,19.683,0,29.864c-22.55,0-44.965,0-67.256,0c-1.069,3.842-1.274,21.891-0.394,27.798c21.085,0,42.208,0,63.682,0
		c0,10.102,0,19.977,0,30.372c-21.215,0-42.43,0-63.908,0c0,10.271,0,20.028,0,29.829c1.557,1.155,3.278,0.61,4.867,0.614
		c20.326,0.04,40.653,0.019,60.979,0.039C1522.793,698.731,1524.614,698.901,1526.435,698.993z"/>
	<path style="fill:#070707;" d="M156.207,728.792c-12.728,0-24.845,0-37.056,0c-4.29-10.545-8.52-20.946-12.757-31.361
		c-19.243,0-38.204,0-57.523,0c-4.186,10.408-8.372,20.82-12.605,31.346c-11.938,0-23.861,0-36.267,0
		c21.492-49.731,42.826-99.095,64.206-148.564c9.157,0,18.109,0,27.512,0C113.106,629.49,134.584,678.974,156.207,728.792z
		 M94.963,668.997c-6.012-15.113-11.857-29.803-17.979-45.191c-6.062,15.594-11.77,30.28-17.566,45.191
		C71.523,668.997,82.949,668.997,94.963,668.997z"/>
	<path style="fill:#070707;" d="M1160.407,728.854c-12.481,0-24.619,0-37.04,0c-4.218-10.37-8.446-20.764-12.739-31.316
		c-19.25,0-38.342,0-57.631,0c-4.215,10.488-8.399,20.898-12.586,31.318c-12.039,0-23.836,0-35.666,0
		c0.876-3.862,60.609-142.592,64.023-148.727c8.902,0,17.871,0,27.092,0C1117.345,629.633,1138.822,679.119,1160.407,728.854z
		 M1081.13,623.776c-6.05,15.553-11.771,30.259-17.548,45.109c11.962,0,23.463,0,35.481,0
		C1093.077,653.829,1087.288,639.268,1081.13,623.776z"/>
	<path style="fill:#070606;" d="M946.056,222.657c-55.811-30.355-111.622-60.711-167.968-91.357
		c1.724-35.409,3.455-70.965,5.235-107.518c8.356,10.021,16.105,19.274,23.81,28.565c7.867,9.485,15.681,19.013,23.535,28.509
		c7.747,9.368,15.526,18.71,23.27,28.081c7.85,9.499,15.658,19.032,23.514,28.525c7.751,9.366,15.549,18.692,23.308,28.052
		c7.865,9.487,15.754,18.953,23.544,28.501c7.58,9.292,15.711,18.165,22.731,27.891
		C946.708,222.156,946.382,222.407,946.056,222.657z"/>
	<path style="fill:#030303;" d="M1351.224,698.743c20.646,0,40.575,0,60.767,0c0,10.13,0,19.881,0,29.946
		c-31.043,0-62.091,0-93.387,0c0-49.398,0-98.787,0-148.433c10.774,0,21.515,0,32.62,0
		C1351.224,619.53,1351.224,658.781,1351.224,698.743z"/>
	<path style="fill:#010101;" d="M478.351,580.215c10.834,0,21.425,0,32.203,0c0,49.583,0,98.952,0,148.553
		c-10.726,0-21.317,0-32.203,0C478.351,679.338,478.351,629.968,478.351,580.215z"/>
</g>
</svg>
