<?xml version="1.0" encoding="iso-8859-1"?>
<!-- Generator: Adobe Illustrator 27.0.0, SVG Export Plug-In . SVG Version: 6.00 Build 0)  -->
<svg version="1.1" id="Layer_1" xmlns="http://www.w3.org/2000/svg" xmlns:xlink="http://www.w3.org/1999/xlink" x="0px" y="0px"
	 viewBox="0 0 1489 514" style="enable-background:new 0 0 1489 514;" xml:space="preserve">
<g>
	<path style="fill:#366799;" d="M1489,302c-3.099,1.968-3.111,5.409-3.581,8.38c-2.239,14.176-6.708,27.711-11.823,41.013
		c-10.355,26.934-25.223,51.234-43.897,73.21c-1.04,1.224-1.892,2.731-3.85,3.465c-1.559-2.68-3.183-5.335-4.678-8.061
		c-26.922-49.097-53.806-98.214-80.745-147.302c-18.942-34.516-37.871-69.038-56.385-103.786c-3.938-7.39-8.75-14.094-15.561-19.244
		c-9.723-7.352-20.86-9.077-32.559-8.373c-2.972,0.179-5.953,0.46-8.939,0.587c-19.294,0.817-38.594,1.287-57.905,0.809
		c-11.309-0.28-22.615-0.673-33.924-0.935c-4.652-0.108-9.342-0.406-13.922,0.738c-8.561,2.138-14.811,7.399-19.181,14.873
		c-4.866,8.321-9.518,16.768-14.2,25.195c-28.172,50.698-56.328,101.406-83.994,152.383c-3.011,5.547-6.137,11.032-9.219,16.564
		c-1.616-0.473-1.488-1.984-1.935-3.11c-7.887-19.853-13.009-40.436-15.413-61.623c-1.879-16.556-1.845-33.173-0.5-49.827
		c1.748-21.641,6.175-42.672,13.243-63.143c10.583-30.648,26.345-58.37,47.501-82.999c33.653-39.178,75.452-65.681,124.853-80.378
		c10.041-2.987,20.314-4.891,30.674-6.359c3.479-0.493,6.761-1.61,9.934-3.081c4.139-0.001,8.278,0.004,12.417-0.002
		c16.885-0.024,33.771-0.052,50.656-0.078c14.636,0.809,28.932,3.537,42.982,7.636c24.24,7.072,46.633,18.097,67.757,31.805
		c16.95,10.999,32.422,23.826,46.248,38.54c15.885,16.905,29.26,35.675,40.211,56.138c11.406,21.312,20.501,43.44,24.018,67.585
		c0.304,2.084-0.305,4.668,1.717,6.383C1489,240,1489,271,1489,302z"/>
	<path style="fill:#366799;" d="M1193,514c-6.885-2.81-14.17-4.25-21.344-5.989c-26.014-6.305-50.308-16.662-73.194-30.446
		c-7.775-4.683-8.132-6.235-3.704-14.233c21.551-38.925,43.047-77.88,64.6-116.804c11.579-20.912,23.231-41.784,34.85-62.674
		c0.876,0.56,1.269,1.485,1.812,2.315c7.365,11.256,13.49,23.222,19.948,34.99c18.983,34.587,37.816,69.256,56.732,103.879
		c1.507,2.759,3.049,5.522,4.848,8.093c2.197,3.141,5.242,4.899,9.252,4.887c24.482-0.073,48.964-0.122,73.445-0.121
		c18.649,0.001,37.298,0.087,55.947,0.135c-13.959,15.819-30.34,28.734-48.191,39.817c-24.445,15.177-51.067,25.079-78.916,31.83
		c-4.645,1.126-9.482,1.459-14.228,2.172c-1.81,0.272-3.58,0.659-4.856,2.149C1244.333,514,1218.667,514,1193,514z"/>
	<path style="fill:#96A4C3;" d="M1266,0c-0.07,0.311-0.047,0.616,0.068,0.913c-16.885,0.026-33.771,0.054-50.656,0.078
		c-4.139,0.006-8.278,0.002-12.417,0.002c0.002-0.331,0.004-0.662,0.005-0.994C1224,0,1245,0,1266,0z"/>
	<path style="fill:#6A6666;" d="M0.821,331.198c0,0-0.444,0.039-0.444,0.039L0,331c0-7,0-14,0-21
		c0.322,0.084,0.635,0.056,0.938-0.082C0.899,317.011,0.86,324.105,0.821,331.198z"/>
	<path style="fill:#030303;" d="M1416.19,438.033c-18.649-0.048-37.298-0.134-55.947-0.135c-24.482-0.001-48.964,0.048-73.445,0.121
		c-4.01,0.012-7.055-1.746-9.252-4.887c-1.798-2.571-3.34-5.334-4.848-8.093c-18.916-34.624-37.749-69.293-56.732-103.879
		c-6.459-11.768-12.584-23.734-19.948-34.99c-0.542-0.829-0.935-1.755-1.812-2.315c7.257-13.588,14.489-27.189,21.778-40.76
		c12.157-22.631,24.345-45.246,36.543-67.856c0.865-1.604,1.767-3.229,2.909-4.635c3.35-4.123,7.473-4.665,11.865-1.664
		c3.926,2.682,6.887,6.314,9.227,10.352c4.905,8.464,9.631,17.034,14.332,25.614c30.355,55.399,60.683,110.812,91.02,166.221
		c10.907,19.92,21.862,39.815,32.646,59.801C1415.648,433.006,1418.203,435.085,1416.19,438.033z"/>
	<path style="fill:#0D0C0B;" d="M407.764,236.757c6.697-6.129,12.999-11.753,20.445-15.934c21.5-12.072,43.694-13.597,66.428-3.894
		c15.365,6.558,23.432,18.37,24.424,35.087c0.178,2.995,0.276,5.98,0.319,8.975c0.119,8.314,0.377,16.628,0.357,24.941
		c-0.038,15.818-0.27,31.636-0.338,47.454c-0.021,4.814,0.259,9.629,0.348,14.444c0.025,1.325-0.057,2.665-0.236,3.978
		c-0.624,4.58-3.438,6.712-8.05,5.557c-2.945-0.737-5.948-0.529-8.942-0.232c-6.428,0.637-8.506-1.184-8.506-7.705
		c-0.001-8.161,0.212-16.323,0.207-24.484c-0.011-18.826-0.153-37.652-0.112-56.477c0.009-4.203-0.558-8.328-1.357-12.379
		c-2.088-10.593-8.165-17.956-18.571-21.448c-13.776-4.623-27.368-4.727-40.557,1.988c-12.413,6.32-19.164,17.033-22.608,30.097
		c-1.996,7.571-3.034,15.316-3.069,23.157c-0.087,19.156-0.461,38.312,0.046,57.468c0.035,1.331,0.076,2.674-0.049,3.996
		c-0.358,3.805-2.265,5.582-6.143,5.644c-4.33,0.069-8.663,0.077-12.993-0.002c-3.935-0.071-5.254-1.148-6.177-5.082
		c-0.376-1.601-0.517-3.289-0.528-4.939c-0.028-4.162,0.071-8.324,0.133-12.487c0.617-41.306,0.442-82.616,0.31-123.923
		c-0.037-11.65-0.285-23.304-0.31-34.958c-0.003-1.166-0.09-2.342,0.022-3.497c0.513-5.335,2.796-7.343,8.198-6.986
		c2.983,0.197,5.91,0.343,8.923,0.053c5.921-0.57,8.606,2.037,8.603,8.139c-0.006,13.325-0.154,26.651-0.211,39.976
		C407.736,221.108,407.764,228.933,407.764,236.757z"/>
	<path style="fill:#0A0909;" d="M613.018,286.52c-0.409-14.458,2.186-27.567,8.479-39.726c9.649-18.644,25.436-29.342,45.671-33.629
		c13.669-2.895,27.416-2.73,40.962,0.905c22.849,6.132,38.561,20.243,46.111,42.768c6.944,20.716,6.611,41.532-1.299,61.936
		c-6.927,17.867-19.691,30.163-37.756,36.588c-18.231,6.484-36.862,6.947-55.286,1.249c-22.875-7.075-37.259-22.821-43.819-45.734
		C613.736,302.689,612.56,294.305,613.018,286.52z M733.014,286.163c0.079-7.004-0.454-13.974-2.04-20.782
		c-3.875-16.632-13.351-28.298-30.28-32.953c-6.768-1.861-13.69-2.242-20.7-1.635c-18.088,1.568-30.979,10.334-37.206,27.581
		c-5.728,15.865-5.88,32.166-2.014,48.516c2.149,9.091,6.342,17.081,13.439,23.313c10.628,9.333,23.244,12.22,37.011,11.007
		c18.795-1.656,31.186-11.71,37.904-29.131C732.349,303.723,732.926,294.982,733.014,286.163z"/>
	<path style="fill:#111010;" d="M0.821,331.198c0.039-7.093,0.078-14.187,0.117-21.28c5.007-11.764,13.899-19.566,25.213-25.019
		c10.101-4.868,20.941-7.253,31.73-9.837c9.184-2.199,18.358-4.415,27.129-8.016c3.386-1.39,6.651-2.971,9.717-4.997
		c5.603-3.702,8.557-8.89,8.1-15.544c-0.528-7.69-4.624-13.002-12.025-15.524c-8.92-3.04-18.11-3.912-27.488-3.447
		c-14.261,0.707-27.645,5.033-40.946,9.733c-0.927,0.328-1.775,0.894-2.964,0.662c-1.571-3.891-1.52-8.052-1.272-12.168
		c0.224-3.722,2.716-5.906,5.962-7.312c3.833-1.66,7.94-2.401,11.983-3.208c13.386-2.673,26.893-4.514,40.584-3.968
		c9.794,0.391,19.513,1.453,28.916,4.557c13.524,4.466,21.267,13.485,22.595,27.849c0.353,3.815,0.607,7.615,0.604,11.444
		c-0.02,25.649-0.02,51.299-0.003,76.948c0.004,5.661,0.185,11.322,0.139,16.981c-0.054,6.676-2.15,8.47-8.848,8.01
		c-2.989-0.205-5.978-0.143-8.978,0.118c-5.41,0.47-7.695-1.548-7.987-7.001c-0.124-2.321,0.125-4.659,0.126-6.989
		c0.012-20.823,0.009-41.646,0.002-62.469c0-0.808-0.082-1.616-0.117-2.265c-1.295-0.889-2.059-0.017-2.909,0.35
		c-12.962,5.587-26.598,9.138-40.051,13.239c-8.799,2.682-17.102,6.351-24.466,11.937c-7.991,6.061-10.738,14.87-7.783,24.345
		c1.516,4.861,4.565,8.373,8.91,10.892c4.993,2.896,10.496,4.31,16.126,4.69c9.658,0.652,19.254,0.01,28.542-3.144
		c4.065-1.38,5.047-0.729,5.718,3.34c0.441,2.676,0.262,5.338-0.315,7.929c-0.665,2.983-2.61,5.229-5.625,5.734
		c-16.448,2.751-32.864,4.288-49.446,0.355c-11.664-2.766-20.713-8.576-26.504-19.196C3.881,336.315,2.32,333.773,0.821,331.198z"/>
	<path style="fill:#0A0909;" d="M813.294,236.576c4.312-4.25,8.197-8.097,12.646-11.299c23.756-17.096,49.165-18.615,75.442-7.165
		c15.068,6.565,22.135,19.261,22.298,35.387c0.328,32.313,0.219,64.63,0.227,96.946c0.002,6.092-2.388,7.907-8.51,6.795
		c-2.984-0.542-5.945-0.331-8.941-0.082c-5.702,0.474-7.979-1.498-8.166-7.325c-0.117-3.639,0.392-7.294,0.399-10.942
		c0.042-22.49,0.131-44.981-0.049-67.47c-0.05-6.276-0.51-12.572-2.273-18.722c-2.367-8.256-7.443-13.99-15.315-17.155
		c-11.597-4.662-23.493-5.689-35.551-1.965c-15.846,4.893-25.032,16.101-29.515,31.644c-2.179,7.553-3.182,15.272-3.219,23.123
		c-0.047,10.147-0.117,20.29-0.388,30.438c-0.235,8.802,0.327,17.625,0.506,26.439c0.044,2.163,0.183,4.357-0.103,6.486
		c-0.522,3.883-2.467,5.67-6.352,5.52c-4.323-0.167-8.623-0.181-12.948-0.061c-4.05,0.113-5.898-1.872-6.512-5.99
		c-0.545-3.657,0-7.304,0.004-10.956c0.036-35.317,0.046-70.634-0.009-105.951c-0.007-4.319-0.536-8.637-0.03-12.958
		c0.585-4.994,2.746-7.067,7.765-7.221c3.495-0.107,7.003-0.142,10.493,0.032c6.151,0.307,7.997,2.288,7.781,8.392
		C812.817,226.968,811.867,231.414,813.294,236.576z"/>
	<path style="fill:#39689B;" d="M265.942,332.917c0.034,5.903-0.672,11.642-2.323,17.174c-0.947,3.172-3.69,4.971-6.922,5.931
		c-5.452,1.619-11.114,1.962-16.69,2.758c-10.239,1.461-20.59,1.996-30.886,1.136c-18.475-1.543-34.901-7.9-47.809-21.836
		c-9.118-9.844-13.995-21.649-16.204-34.694c-1.453-8.579-1.413-17.238-1.127-25.899c1.268-38.353,27.951-60.359,57.313-65.552
		c16-2.829,31.495-1.25,45.892,6.881c15.309,8.646,24.385,21.55,26.947,39.12c0.995,6.822,0.786,13.609,0.837,20.418
		c0.031,4.19-1.258,5.508-5.254,5.509c-27.492,0.006-54.984-0.047-82.476-0.076c-3.831-0.004-7.672-0.152-11.489,0.075
		c-4.463,0.265-6.252,2.166-6.706,6.499c-1.792,17.091,8.673,37.378,23.695,45.38c6.672,3.554,13.92,5.408,21.537,5.509
		c17.058,0.226,33.881-1.012,49.751-8.109C264.459,332.949,265.007,333.018,265.942,332.917z M171.906,267.641
		c2.184,0.692,4.196,0.47,6.183,0.467c17.98-0.024,35.96-0.083,53.94-0.103c3.657-0.004,7.322,0.284,10.969,0.122
		c4.297-0.191,5.935-2.009,6.114-6.204c0.114-2.676-0.382-5.264-0.945-7.881c-3.803-17.655-19.46-28.751-37.639-26.826
		c-9.978,1.057-18.893,5.091-26.535,11.583c-7.153,6.076-12.246,13.473-13.617,23.072
		C170.067,264.03,170.36,265.782,171.906,267.641z"/>
	<path style="fill:#0A0909;" d="M361.604,337.579c2.09,5.049,2.363,10.323,0.65,15.687c-0.777,2.434-2.843,3.896-5.123,4.356
		c-11.768,2.372-23.612,3.831-35.61,1.722c-13.777-2.422-20.46-11.008-22.536-25.362c-0.814-5.626-0.943-11.255-0.925-16.914
		c0.078-24.978,0.123-49.956,0.172-74.934c0.002-0.998-0.022-2.001-0.127-2.992c-0.467-4.403-2.604-6.109-7.013-5.634
		c-0.161,0.017-0.312,0.13-0.473,0.15c-8.37,1.081-10.573-0.851-10.549-9.245c0.001-0.5-0.012-1,0.005-1.499
		c0.27-7.825,2.561-9.758,10.241-8.646c5.736,0.831,7.626-0.699,7.734-6.483c0.078-4.157,0.099-8.322-0.091-12.473
		c-0.168-3.666,1.299-6.183,4.71-7.319c5.04-1.679,10.217-2.907,15.56-2.956c3.217-0.029,4.435,1.177,4.833,4.43
		c0.446,3.642,0.3,7.307,0.076,10.963c-0.163,2.658-0.293,5.285,0.441,7.923c1.395,5.013,4.384,7.4,9.513,6.454
		c7.135-1.317,14.277-0.519,21.41-0.679c4.833-0.108,6.876,2.001,7.512,6.785c0.066,0.493,0.18,0.984,0.201,1.479
		c0.374,8.939-1.858,11.977-10.513,11.575c-4.487-0.208-8.991-0.033-13.488-0.026c-2.169,0.003-4.291,0.233-6.417,0.771
		c-5.101,1.292-7.28,3.564-7.789,8.886c-0.379,3.966-0.673,7.956-0.688,11.937c-0.071,18.652-0.169,37.305,0.057,55.955
		c0.064,5.271,0.082,10.628,1.549,15.825c2.254,7.982,7.468,12.269,15.777,12.672c5.018,0.244,9.953-0.277,14.698-2.007
		C357.141,337.347,358.835,336.701,361.604,337.579z"/>
	<path style="fill:#0D0C0B;" d="M582.004,261.41c0,28.299,0,56.598-0.001,84.898c0,1.332,0.076,2.672-0.044,3.994
		c-0.376,4.122-2.486,6.42-6.63,6.645c-4.137,0.224-8.307,0.164-12.446-0.073c-3.079-0.177-5.258-1.823-5.978-5.049
		c-0.326-1.459-0.704-2.877-0.685-4.408c0.278-21.955,0.63-43.91,0.73-65.866c0.066-14.478,0.325-28.96-0.196-43.439
		c-0.18-4.988,0.001-9.989-0.045-14.983c-0.14-15.137-0.311-30.274-0.467-45.411c-0.012-1.165-0.058-2.334,0.01-3.496
		c0.354-6.058,2.552-8.467,8.468-8.924c3.144-0.243,6.332-0.323,9.474-0.102c5.444,0.382,7.78,2.871,7.783,8.323
		c0.006,12.65-0.173,25.301-0.204,37.951c-0.04,16.647-0.01,33.295-0.01,49.942C581.842,261.41,581.923,261.41,582.004,261.41z"/>
	<path style="fill:#3C6A9C;" d="M415.55,447.201c2.812-8.071,5.675-16.125,8.413-24.222c1.166-3.449,2.032-6.999,3.103-10.481
		c1.9-6.172,4.064-7.724,10.476-7.624c2.329,0.037,4.659,0.136,6.988,0.112c2.103-0.021,3.975,0.362,5.39,2.527
		c0,4.87-0.008,10.011,0.002,15.151c0.024,12.818,0.102,25.636,0.061,38.454c-0.014,4.424-1.179,5.665-5.307,6.404
		c-4.862,0.871-7.738-1.375-7.786-6.364c-0.089-9.322-0.007-18.646-0.047-27.969c-0.007-1.637,0.36-3.324-0.385-4.975
		c-2.254-0.549-2.251,1.265-2.697,2.582c-3.297,9.728-6.611,19.45-9.873,29.19c-1.211,3.616-2.807,6.671-7.073,7.508
		c-5.169,1.014-9.211-0.954-11.007-5.986c-3.117-8.736-5.703-17.667-9.714-26.069c-0.835-1.748-1.684-3.49-3.365-5.005
		c0,6.292,0.003,12.583-0.001,18.875c-0.002,3.995,0.203,8.006-0.075,11.983c-0.367,5.252-4.626,7.639-9.489,5.607
		c-1.152-0.482-1.876-1.299-2.237-2.491c-0.535-1.769-0.669-3.566-0.67-5.411c-0.01-15.981-0.067-31.963-0.099-47.944
		c-0.009-4.593,1.3-5.908,5.889-6.004c2.828-0.059,5.656-0.195,8.483-0.171c4.459,0.039,6.813,1.67,8.217,5.809
		c0.849,2.505,1.422,5.102,2.144,7.651c2.755,9.73,6.33,19.184,9.568,28.751C414.822,447.127,415.186,447.164,415.55,447.201z"/>
	<path style="fill:#3C699B;" d="M943.258,448.452c0-11.638,0.001-23.276-0.005-34.913c0-0.498-0.106-0.995-0.11-1.493
		c-0.053-6.18,4.981-9.37,10.483-6.617c1.226,0.613,2.097,1.572,2.43,2.993c0.418,1.786,0.7,3.558,0.693,5.412
		c-0.046,11.656,0.056,23.313-0.065,34.969c-0.044,4.285-0.548,8.519,0.123,12.849c0.555,3.582-0.809,4.819-4.271,5.344
		c-1.473,0.223-2.944,0.465-4.415,0.705c-5.654,0.924-9.904-0.802-13.142-5.832c-6.924-10.755-14.179-21.297-21.326-31.907
		c-0.899-1.334-1.46-3.069-3.451-3.386c-1.83,0.853-1.151,2.559-1.159,3.917c-0.058,9.988-0.348,19.991,0.08,29.961
		c0.283,6.591-4.975,8.096-9.685,6.609c-2.176-0.687-3.318-2.102-3.458-4.337c-0.083-1.328-0.119-2.661-0.115-3.992
		c0.034-12.987,0.09-25.975,0.118-38.962c0.006-2.652-0.067-5.266-0.628-7.919c-0.888-4.199,0.84-6.219,5.147-6.743
		c0.495-0.06,1.006-0.01,1.494-0.098c8.43-1.521,13.905,1.549,18.262,9.25c6.681,11.811,14.602,22.92,21.997,34.327
		C942.588,448.543,942.923,448.497,943.258,448.452z"/>
	<path style="fill:#3A699B;" d="M523.939,434.408c0-6.327-0.138-12.657,0.037-18.979c0.196-7.109,2.938-10.019,10.044-10.251
		c8.148-0.266,16.343-0.552,24.459,0.016c14.71,1.03,23.336,9.237,25.339,24.03c0.891,6.575,0.664,13.241-1.659,19.698
		c-3.749,10.419-12.933,17.396-23.922,18.175c-5.968,0.423-11.922,0.944-17.911,0.789c-0.832-0.022-1.675,0.075-2.496-0.022
		c-8.486-1.001-13.255-2.367-13.779-13.983c-0.292-6.479-0.052-12.982-0.052-19.474
		C523.978,434.408,523.958,434.408,523.939,434.408z M538.004,437.557c0.043,0,0.086,0,0.128,0c0,4.817-0.059,9.634,0.021,14.449
		c0.055,3.299,1.035,4.711,3.68,4.913c3.801,0.291,7.662,0.533,11.424-0.188c4.829-0.925,8.909-3.113,12.104-7.139
		c6.343-7.994,5.731-18.534,1.344-26.649c-2.407-4.453-6.36-6.616-11.306-7.032c-2.468-0.208-4.976-0.066-7.419-0.415
		c-6.832-0.975-9.891,1.574-9.966,8.611C537.965,428.59,538.004,433.074,538.004,437.557z"/>
	<path style="fill:#3C6A9C;" d="M748.046,465.851c-3.029,1.415-6.137,2.041-9.205,1.704c-4.219-0.464-7.468-2.668-8.902-6.935
		c-0.368-1.095-0.693-2.207-0.972-3.327c-2.265-9.112-6.53-12.122-15.819-11.123c-1.973,0.212-3.936,0.545-5.913,0.693
		c-4.894,0.365-7.987,2.877-9.307,7.589c-0.447,1.594-0.782,3.226-1.328,4.785c-2.225,6.347-7.325,9.252-14.053,8
		c-1.752-0.326-3.715,0-5.504-1.824c2.511-5.322,5.063-10.817,7.689-16.277c6.113-12.709,12.222-25.42,18.411-38.092
		c3.479-7.122,13.596-9.215,19.958-4.265c1.677,1.305,2.314,3.202,3.066,5.032c6.3,15.326,12.605,30.65,18.844,46
		C746.052,460.373,747.552,462.791,748.046,465.851z M718.31,435.708c4.671-7.085-1.249-11.905-3.976-18.032
		c-3.974,5.352-6.621,10.618-7.505,16.77C710.511,435.71,713.86,436.409,718.31,435.708z"/>
	<path style="fill:#3C699B;" d="M505.762,439.749c-5.573,1.098-11.442,1.261-17.328,0.718c-4.263-0.393-6.958,0.502-8.177,3.102
		c-1.658,3.537-1.197,9.685,0.943,11.876c1.377,1.409,3.152,1.693,5.048,1.674c5.659-0.058,11.318-0.082,16.977-0.083
		c1.494,0,3.04-0.088,4.471,0.248c2.318,0.545,3.443,2.699,3.186,5.491c-0.243,2.633-1.432,3.965-3.947,4.306
		c-0.819,0.111-1.663,0.058-2.495,0.058c-11.159,0.003-22.318,0.018-33.477-0.005c-5.585-0.011-6.736-1.033-6.65-6.717
		c0.141-9.306-0.412-18.611,0.338-27.928c0.287-3.568-0.636-7.246-1.122-10.859c-0.424-3.152-0.626-6.23,0.234-9.384
		c1.347-4.945,4.272-7.777,9.318-8.214c2.644-0.229,5.343-0.296,7.979-0.043c8.12,0.776,16.254,1.399,24.399,0.941
		c5.196-0.293,6.302,4.531,4.931,7.905c-0.998,2.456-3,2.874-5.265,2.887c-4.993,0.03-9.985,0.046-14.978,0.061
		c-0.665,0.002-1.331-0.048-1.997-0.055c-7.274-0.08-8.786,1.501-8.423,8.803c0.217,4.367,2.072,6.313,6.527,6.427
		c4.824,0.124,9.653,0.005,14.48,0.014C506.668,430.984,508.069,433.222,505.762,439.749z"/>
	<path style="fill:#3C6A9C;" d="M1019.461,415.786c-2.318,0.516-4.249,0.018-6.212-0.32c-5.295-0.913-10.569-0.824-15.8,0.528
		c-8.347,2.159-13.466,8.188-14.363,17.044c-0.389,3.84-0.126,7.679,1.105,11.33c2.623,7.777,8.464,11.726,16.337,12.621
		c6.11,0.694,12.261,0.377,18.287-0.682c3.78,3.977,3.068,9.617-1.704,11.368c-21.154,7.762-43.35-3.253-48.246-24.772
		c-4.838-21.265,10.957-35.597,27.232-39.767c6.222-1.594,12.453-1.612,18.582,0.74
		C1020.696,406.184,1022.014,409.227,1019.461,415.786z"/>
	<path style="fill:#3C6A9C;" d="M672.785,416.127c-4.746-0.665-9.317-1.151-13.927-1.17c-3.05-0.012-5.981,0.504-8.841,1.329
		c-11.501,3.314-14.877,13.774-13.716,23.065c1.327,10.617,7.782,16.556,19.532,17.72c4.795,0.475,9.62,0.319,14.403-0.539
		c2.771-0.498,4.1,0.489,4.597,3.134c0.708,3.768-1.261,7.396-4.981,7.98c-9.229,1.448-18.531,2.173-27.619-0.839
		c-12.849-4.258-20.812-15.811-21.308-29.532c-0.546-15.126,7.923-26.223,19.783-31.04c2.436-0.99,5.067-1.739,7.672-2.029
		c5.968-0.664,11.999-0.602,17.956,0.064C673.262,405.043,675.262,408.626,672.785,416.127z"/>
	<path style="fill:#3A699B;" d="M795.711,466.905c-13.709,0-27.142,0-40.5,0c-2.555-1.473-2.342-3.883-2.342-6.208
		c-0.003-13.301,0.025-26.603-0.025-39.904c-0.009-2.47-0.066-4.937-0.322-7.426c-0.272-2.649-0.373-5.922,2.745-7.394
		c3.422-1.616,7.071-1.77,10.525-0.027c1.816,0.917,2.132,2.867,2.17,4.738c0.06,2.992,0.05,5.985,0.04,8.978
		c-0.032,9.144-0.079,18.287-0.116,27.431c-0.005,1.33-0.059,2.665,0.037,3.989c0.312,4.272,1.983,5.941,6.279,6.008
		c4.487,0.07,8.976-0.068,13.464-0.087c1.495-0.007,2.993,0.028,4.486,0.118c3.973,0.242,5.004,1.319,4.97,5.17
		c-0.007,0.826-0.034,1.678-0.238,2.469C796.726,465.37,796.275,465.905,795.711,466.905z"/>
	<path style="fill:#416F9F;" d="M881.146,436.505c0,7.996,0.034,15.992-0.011,23.987c-0.03,5.266-2.284,7.468-7.784,7.208
		c-5.558-0.262-7.209-2.107-7.221-7.351c-0.037-15.991-0.021-31.981-0.006-47.972c0.003-2.891,0.068-6.056,3.434-7.018
		c3.363-0.961,6.951-1.18,10.045,1.114c1.679,1.245,1.537,3.212,1.539,5.046C881.151,419.847,881.146,428.176,881.146,436.505z"/>
	<path style="fill:#416F9F;" d="M596.518,465.486c-2.047-6.082-1.4-12.223-0.943-18.292c0.513-6.807,0.611-13.637,0.085-20.388
		c-0.389-4.984-0.28-9.934-0.33-14.893c-0.025-2.463,0.409-5.313,3.089-6.324c3.128-1.181,6.526-1.367,9.625,0.325
		c2.265,1.237,2.073,3.608,2.076,5.76c0.013,10.468-0.01,20.937-0.013,31.405c-0.001,5.648,0.047,11.295,0.014,16.943
		c-0.037,6.174-3.692,8.963-9.75,7.442C599.094,467.144,597.766,466.81,596.518,465.486z"/>
	<path style="fill:#4975A2;" d="M820.008,458.423c0.143,1.836-0.034,3.294-0.786,4.641c-2.411,4.32-4.598,8.787-7.304,12.914
		c-2.866,4.371-7.756,3.863-10.578-0.793c0.921-3.495,1.793-7.004,2.776-10.482c1.493-5.281,3.387-6.771,8.777-6.806
		C815.178,457.882,817.51,457.531,820.008,458.423z"/>
	<path style="fill:#3C699B;" d="M1048.141,461.005c-0.003,5.02-1.61,6.41-7.578,6.553c-4.097,0.098-5.678-1.792-5.702-6.817
		c-0.024-5.033,1.28-6.296,6.499-6.292C1046.92,454.452,1048.144,455.636,1048.141,461.005z"/>
</g>
</svg>
