<?xml version="1.0" encoding="iso-8859-1"?>
<!-- Generator: Adobe Illustrator 27.0.0, SVG Export Plug-In . SVG Version: 6.00 Build 0)  -->
<svg version="1.1" id="Layer_1" xmlns="http://www.w3.org/2000/svg" xmlns:xlink="http://www.w3.org/1999/xlink" x="0px" y="0px"
	 viewBox="0 0 1475 346" style="enable-background:new 0 0 1475 346;" xml:space="preserve">
<g>
	<path style="fill:#0D0C0C;" d="M184,0c4.225,5.543,9.477,10.129,14.279,15.124c14.425,15.003,29.056,29.809,43.605,44.694
		c28.87,29.536,57.745,59.068,86.6,88.619c2.269,2.324,4.4,4.784,7.291,7.94c-6.077,0-11.178,0.074-16.276-0.023
		c-4.316-0.082-8.853,0.989-12.889-0.5c-3.923-1.447-6.035-5.573-8.927-8.515c-24.168-24.58-48.237-49.258-72.323-73.919
		c-12.798-13.104-25.562-26.241-38.37-39.335c-1.141-1.167-2.094-2.601-4.019-3.329c-3.998,3.058-7.263,7.06-10.839,10.702
		c-12.949,13.187-25.771,26.498-38.625,39.779c-22.925,23.687-45.871,47.355-68.715,71.12c-2.74,2.851-5.59,4.245-9.622,4.101
		c-7.605-0.272-15.226-0.079-23.586-0.079c3.792-5.122,8.02-8.814,11.865-12.798c20.929-21.689,42.036-43.206,63.042-64.822
		c21.234-21.85,42.481-43.688,63.578-65.669C174.149,8.839,178.743,5.016,182,0C182.667,0,183.333,0,184,0z"/>
	<path style="fill:#A3A3A4;" d="M181,346c-0.62-1.968-1.998-3.385-3.409-4.804c-7.867-7.915-15.944-15.638-23.509-23.832
		c-11.745-12.722-24.421-24.532-36.172-37.221c-10.862-11.728-22.567-22.617-33.398-34.348
		c-10.954-11.865-22.692-22.956-33.693-34.753c-4.987-5.348-10.115-10.555-15.119-15.884c-0.663-0.706-1.461-1.327-1.712-2.789
		c9.235,0,18.273,0,27.808,0c0.6,0.555,1.602,1.417,2.531,2.351c7.632,7.679,15.378,15.25,22.846,23.086
		c12.972,13.611,26.392,26.792,39.291,40.459c10.968,11.621,22.666,22.533,33.354,34.385c6.676,7.402,14.351,13.846,20.438,21.787
		c1.685,2.198,3.364,2.311,5.427,0.257c2.108-2.099,3.857-4.558,5.949-6.675c12.41-12.559,25.142-24.811,37.249-37.654
		c14.16-15.021,29.18-29.197,43.246-44.283c10.785-11.567,22.206-22.477,32.969-33.894c9.364,0,18.489,0,27.56,0
		c0.52,1.627-0.64,2.281-1.398,3.087c-13.103,13.947-26.552,27.556-40.076,41.092c-5.769,5.774-11.723,11.379-17.239,17.385
		c-13.855,15.086-28.907,29.002-42.878,43.953c-12.619,13.504-25.887,26.349-38.761,39.589c-2.653,2.728-5.03,5.671-7.306,8.707
		C183.667,346,182.333,346,181,346z"/>
	<path style="fill:#121111;" d="M1475,133c-1.759,0.892-1.484,2.766-1.996,4.235c-7.701,22.092-23.364,34.355-46.321,37.752
		c-13.317,1.971-26.537,0.223-39.786-0.762c-4.484-0.333-8.968-0.498-13.439,0.303c-2.627,0.471-5.243,0.625-7.321-1.597
		c0.831-1.898,2.463-1.567,3.871-1.779c3.889-0.584,4.815-1.354,5.615-5.137c0.376-1.779,0.456-3.626,0.597-5.448
		c1.407-18.233,1.51-36.497,1.42-54.771c-0.053-10.64-0.334-21.259-1.396-31.853c-0.56-5.586-2.109-7.05-7.901-7.128
		c-2.23-0.03-2.23-0.03-4.086-1.811c1.017-2.582,3.305-1.872,5.101-1.677c5.134,0.558,10.271,0.741,15.424,0.659
		c8.48-0.135,16.938-1.215,25.431-0.74c8.447,0.473,16.909,0.67,25.222,2.66c19.743,4.726,32.982,16.305,38.646,36.059
		c0.144,0.502,0.399,0.88,0.919,1.035C1475,113,1475,123,1475,133z M1391.643,70.168c-2.172,1.712-1.614,3.834-1.619,5.767
		c-0.05,19.31-0.16,38.621-0.042,57.93c0.049,8.138-0.412,16.293,0.682,24.421c0.937,6.962,1.869,8.34,8.828,9.996
		c11.907,2.834,23.747,2.547,35.313-1.639c11.938-4.321,20.131-12.421,24.323-24.558c2.598-7.521,3.283-15.226,2.918-23.065
		c-0.98-21.05-11.176-36.162-30.189-44.909C1418.95,68.172,1405.159,68.47,1391.643,70.168z"/>
	<path style="fill:#353333;" d="M0,172c1.614-0.999,3.414-0.843,5.191-0.843c118.114,0.001,236.228,0,354.342,0.008
		c1.305,0,2.61,0.116,3.599,0.163c1.194,1.093,0.916,2.067,0.669,3.132c-0.406,0.154-0.85,0.445-1.309,0.472
		c-1.329,0.077-2.663,0.057-3.995,0.057c-117.448,0.002-234.895,0.002-352.343-0.006c-2.095,0-4.267,0.366-6.154-0.985
		C0,173.333,0,172.667,0,172z"/>
	<path style="fill:#0D0C0C;" d="M182.538,89.314c-5.635,5.817-11.181,11.524-16.706,17.25
		c-15.021,15.568-30.067,31.112-45.008,46.756c-2.129,2.23-4.319,3.202-7.425,3.125c-7.969-0.197-15.946-0.066-25.088-0.066
		c31.735-33.097,63.011-65.304,94.497-97.983c31.427,32.545,62.599,64.826,93.771,97.107c-0.831,1.602-2.135,0.83-3.122,0.839
		c-7.326,0.071-14.653,0-21.979,0.067c-2.284,0.021-4.069-0.521-5.751-2.28c-14.261-14.909-28.612-29.732-42.954-44.564
		c-6.132-6.341-12.302-12.645-18.472-18.949C183.857,90.164,183.272,89.849,182.538,89.314z"/>
	<path style="fill:#A3A3A4;" d="M91.27,192.001c8.619,0,17.238-0.001,25.857,0.001c1.608,0,2.767,0.844,3.842,1.951
		c7.765,7.999,15.757,15.789,23.28,24.009c9.437,10.312,19.469,20.029,29.137,30.106c2.959,3.084,5.32,6.751,9.593,9.507
		c21.521-21.448,42.121-43.76,63.354-65.421c9.477,0,18.769,0,28.099,0c0.036,2.184-1.513,3.286-2.76,4.548
		c-8.428,8.525-17.066,16.853-25.259,25.598c-10.351,11.048-21.303,21.516-31.555,32.635c-8.462,9.177-17.437,17.826-26.027,26.861
		c-1.025,1.078-2.232,1.988-2.935,3.369c-0.759,1.491-2.04,2.111-4.506,1.836c-29.895-30.975-60.207-62.384-90.52-93.792
		C91.002,192.808,91.136,192.404,91.27,192.001z"/>
	<path style="fill:#100F0F;" d="M757.768,109.749c21.124,0,41.535,0,61.633,0c1.624-1.226,1.201-2.66,1.2-3.935
		c-0.009-9.819,0.133-19.637-0.346-29.454c-0.386-7.919-2.146-9.827-10.152-10.231c-0.703-0.035-1.289-0.162-1.857-0.564
		c-0.333-1.738,0.931-1.949,2.088-1.932c3.324,0.047,6.648,0.36,9.969,0.331c6.154-0.054,12.312,0.308,18.466-0.301
		c1.688-0.167,3.67-0.669,5.304,1.269c-1.355,1.59-3.329,1.352-4.929,1.819c-3.622,1.056-4.734,2.079-5.175,5.675
		c-0.283,2.307-0.538,4.633-0.565,6.953c-0.17,14.315-0.643,28.639-0.286,42.943c0.324,12.972-0.279,25.966,0.823,38.919
		c0.112,1.321,0.148,2.668,0.447,3.951c1.025,4.396,2.272,5.439,6.716,5.973c1.812,0.218,3.62,0.487,5.417,0.801
		c0.229,0.04,0.385,0.492,0.573,0.755c-0.021,0.163-0.024,0.329-0.063,0.485c-0.037,0.148-0.103,0.406-0.172,0.411
		c-11.459,0.846-22.937,0.071-34.402,0.386c-0.809,0.022-1.619-0.004-2.361-0.718c0.412-2.109,2.274-1.896,3.525-1.99
		c3.652-0.273,5.351-2.235,5.754-5.685c0.154-1.316,0.571-2.611,0.63-3.926c0.63-14.138,0.7-28.286,0.61-42.435
		c-0.006-0.987,0.123-2.017-1.058-3.044c-20.108,0-40.532,0-61.092,0c-1.155,0.912-0.677,2.349-0.674,3.609
		c0.031,12.824,0.144,25.649,0.154,38.473c0.002,2.528,0.48,4.957,0.955,7.399c0.725,3.729,2.167,4.932,5.973,5.4
		c2.302,0.283,4.892-0.304,6.945,1.814c-3.915,1.546-33.856,1.523-37.356,0.085c0.396-1.809,2.058-1.447,3.204-1.713
		c4.692-1.089,5.839-2.1,6.284-6.882c0.492-5.295,0.97-10.613,0.998-15.924c0.112-20.99,0.087-41.982,0.011-62.972
		c-0.015-4.145-0.321-8.307-0.782-12.429c-0.467-4.182-1.704-5.349-5.769-6.315c-1.132-0.269-2.279-0.482-3.422-0.703
		c-0.926-0.179-2.018,0.268-2.746-0.768c0.157-1.551,1.318-1.694,2.51-1.664c4.154,0.103,8.306,0.362,12.459,0.351
		c5.656-0.016,11.31-0.244,16.966-0.338c1.392-0.023,2.996-0.404,3.828,1.318c-0.894,1.606-2.443,1.101-3.609,1.419
		c-5.044,1.379-6.22,2.64-6.409,7.982c-0.177,4.99-0.184,9.988-0.208,14.982C757.744,95.973,757.768,102.618,757.768,109.749z"/>
	<path style="fill:#161414;" d="M1090.893,175.927c-12.709,0.595-24.363-2.628-34.593-10.233
		c-11.936-8.872-18.521-21.176-20.973-35.557c-2.691-15.782,0.08-30.73,9.156-44.142c10.613-15.684,25.634-23.621,44.456-24.356
		c9.698-0.379,19.316,0.551,28.3,4.449c18.749,8.136,29.519,22.221,31.859,42.816c1.615,14.207-0.623,27.436-7.983,39.701
		c-9.175,15.29-22.574,24.409-40.245,27.147c-0.493,0.076-0.992,0.164-1.488,0.167
		C1096.552,175.935,1093.723,175.927,1090.893,175.927z M1048.789,115.801c-0.491,7.81,1.529,16.01,4.487,23.972
		c4.526,12.179,12.423,21.46,24.454,26.809c22.479,9.994,46.528-1.428,53.547-22.612c4.788-14.45,4.925-28.918,0.914-43.562
		c-5.936-21.671-25.252-37.052-50.257-32.518c-13.015,2.36-22.466,9.413-27.969,21.471
		C1050.264,97.473,1048.591,106.061,1048.789,115.801z"/>
	<path style="fill:#131111;" d="M1321.218,173.105c-0.99,1.337-2.23,0.874-3.299,0.884c-4.998,0.047-9.998-0.073-14.994,0.043
		c-7.311,0.17-13.151-2.713-18.068-7.997c-8.075-8.68-14.58-18.569-21.774-27.926c-2.522-3.281-4.874-6.692-7.491-10.302
		c-6.304,0-12.587,0-18.959,0c-0.131,0.159-0.521,0.41-0.522,0.663c-0.029,11.637-0.866,23.29,0.614,34.898
		c0.799,6.262,1.94,7.337,8.016,7.872c1.756,0.155,3.684-0.128,4.984,1.448c-0.036,0.284-0.032,0.457-0.085,0.611
		c-0.046,0.137-0.148,0.357-0.237,0.363c-11.458,0.786-22.931,0.017-34.394,0.33c-0.638,0.017-1.327-0.062-1.83-1.147
		c0.781-1.62,2.612-1.496,4.083-1.671c2.912-0.347,4.263-1.856,4.934-4.695c1.434-6.063,1.264-12.238,1.328-18.339
		c0.231-21.823,0.115-43.649,0.064-65.474c-0.008-3.317-0.262-6.644-0.599-9.946c-0.351-3.435-1.824-4.971-5.189-5.8
		c-1.129-0.278-2.315-0.341-3.424-0.673c-1.069-0.32-2.377,0.172-3.237-0.932c0.031-1.703,1.324-1.713,2.463-1.691
		c3.991,0.077,7.981,0.361,11.97,0.342c7.819-0.037,15.637-0.291,23.455-0.326c5.158-0.023,10.347,0.241,15.307,1.727
		c17.014,5.097,23.303,19.692,17.998,36.224c-2.163,6.741-6.145,12.496-11.027,17.595c-1.378,1.438-2.963,2.678-4.534,4.083
		c1.937,3.607,4.482,6.231,6.692,9.074c7.049,9.068,14.132,18.105,21.778,26.694c6.428,7.222,13.776,12.477,23.897,12.607
		C1319.967,171.652,1320.819,171.791,1321.218,173.105z M1236.141,70.271c0,16.589,0,32.869,0,49.061
		c0.96,1.016,1.914,1.48,3.1,1.811c4.405,1.232,8.896,1.094,13.382,1.081c8.668-0.024,13.371-3.472,16.491-11.67
		c2.381-6.255,2.765-12.739,1.792-19.164C1268.289,74.121,1256.274,65.307,1236.141,70.271z"/>
	<path style="fill:#161414;" d="M529.464,173.203c-0.018-1.701,1.541-2.06,1.867-4.25c-4.023-11.792-8.943-24.194-13.662-36.25
		c-4.26-1.527-23.805-1.98-32.823-0.938c-1.743,1.457-1.734,3.787-2.413,5.75c-2.702,7.811-5.809,15.492-7.801,23.54
		c-0.199,0.802-0.499,1.581-0.671,2.388c-1.283,6.016-0.685,6.963,5.218,8.088c0.983,0.187,2.013,0.116,2.378,1.332
		c-2.541,1.299-26.224,1.743-32.721,0.61c-0.395-1.344,0.351-1.912,1.506-1.869c8.155,0.299,12.255-4.38,14.827-11.472
		c11.616-32.024,23.361-64.001,35.072-95.99c0.223-0.61,0.609-1.161,0.858-1.625c1.047-0.687,1.996-0.637,3.404-0.031
		c2.069,5.381,4.245,11.078,6.448,16.765c9.681,24.994,19.361,49.989,29.065,74.974c1.32,3.398,2.956,6.641,4.837,9.784
		c2.557,4.27,6.011,6.931,11.082,7.438c1.333,0.133,3.081-0.363,3.938,1.392C556.972,174.327,535.459,174.605,529.464,173.203z
		 M500.297,83.348c-4.731,14.452-9.123,27.867-13.684,41.798c9.729,0,18.884,0,28.416,0
		C510.165,111.345,505.457,97.988,500.297,83.348z"/>
	<path style="fill:#121111;" d="M911.028,65.457c1.481-2.624,3.355-1.859,4.862-1.799c13.813,0.555,27.631,0.277,41.447,0.322
		c5.953,0.019,11.943,0.498,18.403-1.812c-0.747,7.021-1.417,13.326-2.074,19.5c-1.814,0.714-2.351-0.004-2.61-1.426
		c-1.329-7.299-2.97-9.123-10.272-9.64c-7.615-0.54-15.267-0.847-22.866-0.576c-1.239,3.108-1.649,30.534-0.67,41.659
		c0.538,0.757,1.33,0.999,2.184,0.91c6.31-0.659,12.639-0.257,18.959-0.362c4.611-0.077,9.352,0.298,12.352-3.989
		c1.142,0.439,1.327,1.146,1.193,1.764c-1.446,6.631-0.914,13.507-2.223,20.382c-2.386-0.708-2.268-2.525-2.623-4.028
		c-1.304-5.517-3.335-7.4-8.835-7.55c-6.936-0.189-13.882-0.944-20.66-0.161c-0.247,0.378-0.417,0.517-0.418,0.657
		c-0.131,14.791-1.055,29.603,0.586,44.357c0.689,6.191,1.756,6.872,7.724,7.605c1.812,0.222,3.999-0.364,5.46,1.574
		c-3.017,1.393-29.854,1.832-36.937,0.672c-0.384-2.127,1.472-1.915,2.543-2.226c5.525-1.604,5.952-2.18,6.608-7.754
		c0.722-6.13,0.859-12.268,0.847-18.428c-0.042-21.657-0.024-43.314-0.006-64.97c0.002-2.672-0.23-5.289-0.753-7.924
		c-0.635-3.197-2.342-4.971-5.56-5.447C915.605,66.458,913.549,65.96,911.028,65.457z"/>
	<path style="fill:#161414;" d="M660.596,64.524c0.563,7.031-0.173,16.375-1.62,19.54c-1.741-1.031-1.652-2.8-1.835-4.351
		c-0.659-5.577-3.785-9.128-9.014-10.739c-4.755-1.465-9.466-2.25-14.656-1.357c-9.635,1.657-18.443,13.718-10.262,26.074
		c2.78,4.199,6.44,7.588,10.315,10.773c6.422,5.278,13.153,10.185,18.974,16.183c6.225,6.415,10.267,13.778,10.765,22.876
		c0.68,12.418-5.45,23.268-15.618,28.434c-12.379,6.29-24.886,5.779-37.542,0.964c-2.305-0.877-3.569-2.367-3.493-4.851
		c0.174-5.651,0.373-11.301,0.588-16.95c0.047-1.246,0.361-2.344,1.988-2.217c1.221,0.582,0.769,1.698,0.813,2.608
		c0.498,10.283,6.569,16.222,14.949,17.956c6.355,1.315,12.568,1.411,18.303-2.129c9.141-5.642,11.807-17.989,6.081-27.639
		c-2.496-4.206-5.836-7.666-9.517-10.816c-5.31-4.543-10.778-8.908-15.959-13.593c-5.466-4.943-10.232-10.503-12.448-17.75
		c-4.255-13.923,0.387-30.756,20.228-35.264C638.318,60.758,652.291,61.603,660.596,64.524z"/>
	<path style="fill:#201E1E;" d="M1245.81,258.457c4.103,6.754,6.656,14.2,11.794,20.588c-2.561,0.808-5.281,0.134-8.278,0.426
		c-0.061-4.148-2.729-7.002-4.435-10.298c-1.746-3.374-3.683-6.649-5.563-10.016c-3.659-0.302-7.095-0.385-10.899,0.114
		c0.24,6.696-0.729,13.282,0.775,19.981c-2.378,0-4.834,0-7.154,0c0.052-7.829,0.262-15.686,0.113-23.536
		c-0.148-7.749,0.847-15.557-0.832-23.746c7.963,0.499,16.065-0.688,24.169,0.844c8.573,1.62,12.958,10.904,8.507,20.056
		C1252.411,256.149,1249.033,257.034,1245.81,258.457z M1228.413,254.088c5.751-0.413,10.719,0.515,15.627-0.81
		c3.887-1.05,5.608-3.001,5.935-6.894c0.286-3.403-1.465-7.051-4.485-8.163c-5.534-2.039-11.233-1.534-17.077-0.859
		C1228.413,243.059,1228.413,248.263,1228.413,254.088z"/>
	<path style="fill:#201E1E;" d="M570.944,255.565c0.582,5.937-1.107,11.192-4.009,16.197c-6.724,11.598-25.484,10.981-31.327-0.924
		c-4.954-10.092-5.187-19.989-0.033-29.96c3.277-6.34,8.742-9.52,15.717-9.595c7.19-0.077,12.791,3.231,16.309,9.575
		C570.135,245.427,571.518,250.35,570.944,255.565z M537.812,255.704c-0.214,4.702,0.459,9.247,3.077,13.323
		c2.734,4.258,6.566,6.434,11.719,6.123c4.813-0.291,8.031-2.898,10.073-7.037c3.91-7.928,3.857-15.94,0.354-24.028
		c-2.143-4.948-5.785-7.609-11.17-7.659c-5.555-0.051-9.484,2.614-11.844,7.601C538.279,247.709,537.7,251.629,537.812,255.704z"/>
	<path style="fill:#232121;" d="M469.441,232.393c-1.246,6.769-0.373,13.363-0.696,20.258c7.532,0,14.585,0,22.317,0
		c-0.201-6.835,0.467-13.498-0.59-20.309c2.32,0,4.619,0,6.901,0c-0.772,5.127-0.33,10.199-0.398,15.255
		c-0.072,5.331-0.146,10.667,0.021,15.993c0.159,5.058-0.783,10.186,0.784,15.503c-2.665,0-5.391,0-8.078,0
		c2.723-6.583,0.637-13.607,1.461-20.39c-3.687-1.107-15.738-1.304-22.297-0.373c-0.002,6.824-0.367,13.711,0.278,20.846
		c-2.087,0-4.469,0-6.889,0c1.098-4.122,0.967-42.854-0.182-46.782C464.581,232.393,467.037,232.393,469.441,232.393z"/>
	<path style="fill:#201E1E;" d="M602.343,274.526c1.226-2.431,2.225-4.719,4.178-6.884c3.402,5.867,8.782,7.809,15.061,7.331
		c4.051-0.308,7.211-2.369,8.663-6.418c1.414-3.943,0.067-7.349-3.698-9.151c-2.869-1.373-6.023-1.782-9.111-2.392
		c-1.788-0.353-3.605-0.633-5.339-1.171c-5.772-1.793-8.586-4.967-8.867-10.087c-0.304-5.542,2.16-9.717,7.002-12.225
		c6.698-3.469,13.458-2.735,20.112,0.378c1.934,0.905,3.659,2.281,6.192,2.4c-1.381,2.647-2.599,4.983-4.083,7.828
		c-2.429-5.297-6.735-7.352-11.896-7.659c-4.118-0.246-8.03,0.541-10.428,4.45c-2.25,3.669-1.149,7.437,2.884,8.954
		c2.767,1.041,5.78,1.428,8.683,2.109c1.934,0.454,3.905,0.793,5.794,1.39c5.208,1.648,8.642,4.986,9.136,10.628
		c0.47,5.362-1.494,9.765-5.922,12.936c-5.297,3.795-11.177,3.586-17.206,2.464C609.49,278.66,606.25,276.225,602.343,274.526z"/>
	<path style="fill:#201E1E;" d="M1396.479,236.336c-1.406,2.677-2.634,5.015-4.027,7.667c-3.719-6.833-9.567-8.304-16.546-7.101
		c-1.375,0.237-2.532,0.865-3.587,1.625c-2.304,1.658-3.641,3.985-3.264,6.848c0.337,2.554,2.252,3.906,4.59,4.725
		c4.399,1.542,9.098,1.787,13.532,3.13c8.8,2.666,12.357,13.074,6.963,20.462c-2.93,4.014-7.233,5.742-12.005,6.285
		c-5.432,0.618-10.582-0.499-15.363-3.144c-1.445-0.799-2.814-1.73-4.677-2.144c1.486-2.586,2.856-4.971,4.32-7.519
		c3.27,6.093,8.516,8.086,14.719,7.8c4.284-0.197,7.549-2.286,9.061-6.57c1.392-3.943,0.34-6.681-3.31-8.766
		c-2.813-1.607-6.014-1.781-9.047-2.566c-1.921-0.497-3.94-0.64-5.838-1.203c-4.832-1.433-8.329-4.308-8.74-9.654
		c-0.416-5.413,1.598-9.838,6.514-12.476c6.647-3.566,13.378-3.085,20.096-0.018C1391.953,234.67,1393.777,236.192,1396.479,236.336
		z"/>
	<path style="fill:#232121;" d="M840.709,232.442c3.316,0,6.581,0,9.693,0c4.613,15.519,9.202,30.957,13.806,46.444
		c-2.035,0-4.323,0-6.749,0c0.082-4.474-2.312-8.181-2.841-12.763c-5.813-0.633-11.377-0.203-17.069-0.326
		c-1.247,4.71-3.208,8.84-3.208,13.624c-2.1-0.124-4.224,0.311-6.617-0.436C833.043,263.658,837.628,248.368,840.709,232.442z
		 M846.105,238.249c-2.484,7.289-5.246,14.197-6.487,21.874c4.486-0.041,8.501,0.571,12.822-0.456
		C850.263,252.31,848.184,245.28,846.105,238.249z"/>
	<path style="fill:#262424;" d="M1319.965,232.387c2.6,0,4.711,0,6.839,0c0,11.126,0.031,22.061-0.009,32.995
		c-0.036,9.713-4.579,14.333-14.322,14.63c-2.163,0.066-4.338,0.099-6.495-0.039c-8.29-0.532-12.804-5.138-12.911-13.408
		c-0.121-9.329-0.022-18.66-0.035-27.991c-0.003-1.978,0.254-3.997-0.89-6.028c2.55-0.679,4.986-0.223,8.114-0.357
		c-1.489,2.511-1.477,4.868-1.466,7.245c0.039,8.664-0.067,17.329,0.047,25.991c0.093,7.09,2.633,9.526,9.703,9.596
		c2.646,0.026,5.286,0.194,7.88-0.846c2.81-1.126,4.452-3.143,4.485-5.99c0.125-10.995,0.052-21.992-0.006-32.988
		C1320.894,234.435,1320.408,233.674,1319.965,232.387z"/>
	<path style="fill:#1D1B1B;" d="M678.812,259.519c-0.805,5.917-0.514,15.806,0.632,19.717c-2.649,0-5.247,0-8.363,0
		c1.64-2.204,1.539-4.478,1.534-6.759c-0.024-11.465-0.028-22.931,0.006-34.396c0.006-1.926,0.111-3.832-1.341-5.696
		c6.372-0.426,12.334-0.473,18.298-0.304c2.34,0.066,4.579,0.684,6.715,1.622c5.521,2.424,8.26,7.32,7.683,13.661
		c-0.529,5.823-3.846,9.255-9.973,10.757c-3.776,0.926-7.569,0.828-11.378,0.797C681.308,258.906,679.971,258.531,678.812,259.519z
		 M679.487,253.542c4.685,0.888,9.271,0.66,13.796-0.528c2.863-0.752,4.392-2.795,4.742-5.735c0.694-5.831-2.213-9.658-8.173-10.183
		c-3.589-0.316-7.228-0.058-11.457-0.058C679.1,242.718,677.217,248.094,679.487,253.542z"/>
	<path style="fill:#201F1F;" d="M802.081,231.244c0.871,2.222,0.943,4.322,0.012,6.455c-4.447-0.94-8.936-1.076-14.002-0.373
		c0.797,14.043-0.45,27.807,0.586,41.824c-2.265,0-4.679,0-7.063,0c1.175-6.925,0.637-13.962,0.513-20.956
		c-0.122-6.903,1.163-13.833,0.034-21.085c-4.817,0.273-9.428-1.395-13.899,1.568c0-2.519,0-4.898,0-7.304
		c5.614,1.254,11.199,0.648,16.741,0.614C790.567,231.955,796.198,232.755,802.081,231.244z"/>
	<path style="fill:#232121;" d="M1082.063,251.307c3.295-6.36,7.795-11.821,9.498-18.903c1.955,0,4.064,0,6.178,0
		c0.739,1.795-0.641,2.906-1.262,4.117c-3.244,6.333-6.609,12.604-10.003,18.858c-1.057,1.947-1.622,3.906-1.555,6.156
		c0.125,4.156,0.033,8.318,0.037,12.478c0.001,1.626-0.232,3.29,1.394,5.086c-3.019,0-5.404,0-7.887,0
		c0.766-6.568,1.343-13.205-0.255-19.859c-1.098-4.574-2.79-8.898-5.432-12.708c-3.039-4.382-5.07-9.271-8.155-14.162
		c2.927,0,5.45,0,8.009,0C1073.738,239.51,1078.791,244.861,1082.063,251.307z"/>
	<path style="fill:#201F1F;" d="M1015.087,237.094c-4.459,0.049-8.861-0.676-13.369,0.592c0-2.157,0-4.126,0-6.19
		c5.781,0.996,11.517,0.588,17.224,0.492c5.568-0.094,11.231,0.979,16.776-1.007c0.465,2.323,0.312,4.622,0.162,7.35
		c-4.487-2.166-8.868-1.101-13.104-1.255c-1.153,3.805-1.465,36.138-0.503,42.142c-2.602,0-5.186,0-8.712,0
		c2.26-2.015,2.456-4.053,2.444-6.229c-0.061-10.664-0.024-21.329-0.034-31.993C1015.97,239.857,1016.169,238.667,1015.087,237.094z
		"/>
	<path style="fill:#131111;" d="M1175.532,279.195c-2.464,0-4.893,0-8.036,0c1.873-2.324,1.483-4.626,1.487-6.873
		c0.015-9.812,0.022-19.625-0.008-29.437c-0.005-1.647,0.281-3.325-0.51-5.59c-4.398-0.19-9.013-1.336-13.719,1.048
		c0-2.346,0-4.61,0-7.081c5.769,1.445,11.518,0.802,17.221,0.731c5.547-0.069,11.195,1.054,16.712-1.065
		c0.48,2.393,0.318,4.66,0.105,7.242c-4.66-1.934-9.115-0.968-13.451-1.159C1173.872,242.223,1174.067,274.86,1175.532,279.195z"/>
	<path style="fill:#201F1F;" d="M1441.209,236.894c-5.017,0.582-9.594-1.062-13.997,1.534c-0.246-2.492-0.335-4.787-0.028-6.88
		c11.401,0.739,22.639,0.909,34.039-0.093c0.342,1.878,0.257,3.993-0.012,6.424c-4.609-1.502-9.155-0.729-13.641-0.836
		c-0.96,6.314-0.749,38.417,0.252,41.941c-0.437,0.14-0.874,0.392-1.317,0.402c-1.982,0.044-3.965,0.019-5.888,0.019
		c1.14-7.199,0.447-14.236,0.566-21.246C1441.302,251.231,1441.209,244.298,1441.209,236.894z"/>
	<path style="fill:#262424;" d="M898.274,232.293c2.761,0,4.902,0,7.27,0c-1.129,6.929-0.445,13.791-0.558,20.64
		c-0.115,6.957-0.025,13.918-0.025,21.508c7.943,0.042,15.477,0.747,23.29-0.626c0.25,2.254,0.313,4.61-0.182,7.66
		c-1.863-2.018-3.814-1.715-5.771-1.701c-8.292,0.058-16.585,0.024-25.523,0.024c2.063-2.06,2.313-4.09,2.3-6.316
		c-0.074-11.991-0.039-23.982-0.031-35.974C899.045,235.852,899.122,234.194,898.274,232.293z"/>
	<path style="fill:#100F0F;" d="M737.466,279.288c-3.443,0-5.916,0-9.09,0c2.461-2.289,2.274-4.97,2.263-7.654
		c-0.038-10.141-0.003-20.282-0.023-30.424c-0.006-2.914,0.356-5.859-1.117-8.927c2.968,0,5.419,0,8.204,0
		c-1.128,2.002-1.434,4.069-1.397,6.378c0.186,11.468,0.073,22.941,0.074,34.412C736.38,275.03,736.11,277.015,737.466,279.288z"/>
	<path style="fill:#262424;" d="M967.981,232.326c-0.343,15.797-0.099,31.169-0.202,47.014c-1.686,0.297-4.081,0.078-6.503-0.051
		c1.521-7.964,0.538-15.874,0.641-23.746c0.101-7.704,0.36-15.428-0.254-23.217C963.659,232.326,965.956,232.326,967.981,232.326z"
		/>
</g>
</svg>
