<?xml version="1.0" encoding="iso-8859-1"?>
<!-- Generator: Adobe Illustrator 27.0.0, SVG Export Plug-In . SVG Version: 6.00 Build 0)  -->
<svg version="1.1" id="Layer_1" xmlns="http://www.w3.org/2000/svg" xmlns:xlink="http://www.w3.org/1999/xlink" x="0px" y="0px"
	 viewBox="0 0 717 1565.942" style="enable-background:new 0 0 717 1565.942;" xml:space="preserve">
<g>
	<path style="fill:#040404;" d="M540.747,1562.866c4.414-8.347,8.946-16.634,13.222-25.052
		c26.826-52.817,47.514-107.903,61.243-165.575c5.039-21.167,8.936-42.519,12.01-64.06c4.722-33.096,5.885-66.342,4.659-99.673
		c-0.575-15.614-2.296-31.168-4.559-46.666c-3.34-22.869-8.384-45.311-15.147-67.398c-11.681-38.15-28.6-73.82-50.249-107.305
		c-14.879-23.014-28.644-46.702-41.832-70.714c-19.887-36.212-37.876-73.303-51.397-112.443
		c-8.248-23.875-14.598-48.22-18.433-73.183c-3.757-24.451-4.686-49.082-2.934-73.732c2.269-31.94,9.074-63.001,19.237-93.363
		c13.416-40.079,31.641-77.946,52.286-114.722c12.429-22.142,25.829-43.724,38.013-66.007
		c27.97-51.153,49.689-104.75,62.871-161.638c4.122-17.789,7.22-35.777,9.523-53.919c3.154-24.845,4.532-49.771,3.659-74.765
		c-1.071-30.631-4.622-60.956-13.657-90.417c-0.195-0.635-0.372-1.282,0.138-2.234c3.535,4.067,6.036,8.664,8.599,13.186
		c13.096,23.101,21.774,47.891,27.988,73.618c3.594,14.877,6.178,29.944,7.741,45.142c2.423,23.559,2.972,47.177,1.53,70.859
		c-0.921,15.129-2.311,30.2-4.521,45.17c-3.781,25.614-9.316,50.871-16.291,75.819c-8.889,31.795-20.392,62.65-32.799,93.208
		c-8.47,20.862-17.565,41.47-25.162,62.693c-10.743,30.012-19.551,60.552-25.307,91.908c-3.393,18.486-5.405,37.151-6.524,55.948
		c-0.944,15.86-0.629,31.663,0.465,47.443c1.507,21.741,5.135,43.183,10.334,64.37c9.005,36.694,22.973,71.554,38.804,105.728
		c13.658,29.484,28.631,58.328,42.87,87.531c12.784,26.218,24.801,52.764,36.127,79.658c9.233,21.923,16.478,44.389,22.051,67.435
		c4.101,16.96,6.998,34.144,8.735,51.525c0.977,9.776,1.954,19.539,2.012,29.374c0.005,0.895-0.395,2.06,0.952,2.491c0,1,0,2,0,3
		c-0.755,0.156-1.039,0.675-1.029,1.386c0.064,4.556,0.136,9.113,0.205,13.669c-0.018,3.327-0.036,6.654-0.055,9.982
		c-2.153,53.946-14.537,105.624-34.578,155.589c-15.105,37.659-34.181,73.249-56.133,107.334
		c-22.009,34.173-46.402,66.551-73.029,97.253c-3.598,4.148-7.202,8.291-10.803,12.437
		C541.302,1563.459,541.024,1563.162,540.747,1562.866z"/>
	<path style="fill:#040404;" d="M0,1149.106c0.759-0.219,0.939-0.799,0.98-1.503c2.685-45.992,13.974-89.969,30.661-132.753
		c13.086-33.553,28.916-65.828,44.842-98.065c16.078-32.545,32.654-64.847,46.974-98.232c11.576-26.989,21.431-54.574,28.196-83.175
		c4.014-16.972,6.934-34.146,8.603-51.547c1.418-14.787,2.113-29.576,1.727-44.407c-0.407-15.647-1.677-31.224-3.731-46.762
		c-3.335-25.223-8.903-49.923-15.945-74.344c-8.552-29.654-19.331-58.482-31.728-86.715c-13.328-30.354-25.219-61.236-34.844-92.971
		c-7.418-24.455-13.329-49.259-17.845-74.425c-5.989-33.381-8.595-66.998-7.824-100.875c0.47-20.654,2.847-41.111,6.738-61.417
		c4.067-21.223,10-41.866,18.243-61.836c5.392-13.063,11.871-25.567,19.629-37.393c0.535-0.815,1.113-1.601,1.751-2.515
		c0.976,1.33,0.477,2.369,0.158,3.417c-5.371,17.681-8.568,35.777-10.783,54.103c-2.404,19.89-3.21,39.834-2.757,59.832
		c0.302,13.315,1.268,26.596,2.625,39.859c8.053,78.697,33.549,151.777,70.719,221.167c9.493,17.723,20.33,34.635,30.457,51.973
		c23.116,39.576,44.138,80.166,59.417,123.511c8.389,23.798,14.99,48.043,18.916,73.025c3.216,20.459,4.929,41.017,4.392,61.677
		c-0.91,35.083-7.479,69.237-18.1,102.656c-12.037,37.879-28.595,73.79-47.04,108.898c-16.066,30.578-33.871,60.147-51.954,89.551
		c-14.709,23.917-27.747,48.666-37.96,74.855c-8.805,22.579-15.618,45.741-20.647,69.452c-2.828,13.334-5.174,26.755-6.728,40.273
		c-2.321,20.192-3.43,40.467-3.298,60.826c0.105,16.177,0.839,32.319,2.292,48.397c1.81,20.02,4.773,39.903,8.543,59.678
		c7.468,39.178,18.403,77.359,32.257,114.718c12.809,34.539,27.823,68.088,45.725,100.312c0.996,1.793,1.029,1.773,0.979,4.553
		c-14.615-16.413-28.623-33.314-42.023-50.714c-30.185-39.194-56.902-80.577-78.834-124.983
		c-18.714-37.892-33.209-77.302-42.469-118.561c-4.003-17.834-6.942-35.866-8.447-54.112c-0.301-3.649-0.886-7.274-0.885-10.949
		c0-0.704-0.207-1.285-0.982-1.481c0-12,0-24,0-36c1.782-4.545,1.122-9.172,0.437-13.795c-0.013-0.088-0.286-0.138-0.437-0.205
		C0,1151.106,0,1150.106,0,1149.106z"/>
	<path style="fill:#9D9999;" d="M716.176,1181.161c-0.069-4.556-0.141-9.113-0.205-13.669c-0.01-0.711,0.274-1.23,1.029-1.386
		c0,5,0,10,0,15C716.727,1181.151,716.452,1181.169,716.176,1181.161z"/>
	<path style="fill:#535050;" d="M0,1152.106c0.152,0.068,0.424,0.117,0.437,0.205c0.685,4.623,1.345,9.249-0.437,13.795
		C0,1161.439,0,1156.772,0,1152.106z"/>
	<path style="fill:#C5C3C3;" d="M716.176,1181.161c0.277,0.008,0.551-0.01,0.824-0.055c0,3.333,0,6.667,0,10
		c-0.294-0.012-0.587,0.001-0.879,0.037C716.139,1187.815,716.157,1184.488,716.176,1181.161z"/>
	<path style="fill:#040404;" d="M541.579,1563.755c-0.475,0.513-0.649,1.384-1.594,1.334l0.07,0.08
		c-0.698-1.047-0.037-1.685,0.692-2.303C541.024,1563.162,541.302,1563.459,541.579,1563.755z"/>
	<path style="fill:#040404;" d="M539.985,1565.089c-0.003,0.461-0.123,0.849-0.673,0.853c-0.084,0-0.264-0.269-0.237-0.372
		c0.14-0.538,0.507-0.623,0.981-0.401L539.985,1565.089z"/>
</g>
</svg>
