<?xml version="1.0" encoding="iso-8859-1"?>
<!-- Generator: Adobe Illustrator 27.0.0, SVG Export Plug-In . SVG Version: 6.00 Build 0)  -->
<svg version="1.1" id="Layer_1" xmlns="http://www.w3.org/2000/svg" xmlns:xlink="http://www.w3.org/1999/xlink" x="0px" y="0px"
	 viewBox="0 0 1510 545" style="enable-background:new 0 0 1510 545;" xml:space="preserve">
<g>
	<path style="fill:#B9224E;" d="M710,0c0.373,0.995,1.326,0.771,2.074,1.014c7.501,2.44,12.435,8.818,12.867,16.662
		c0.091,1.662,0.045,3.331,0.045,4.997c0.002,75.979,0.001,151.959,0.001,227.938c0,1.972,0,3.945,0,6.09
		c1.977,0.74,3.81,0.403,5.573,0.404c37.157,0.026,74.313,0.046,111.47-0.012c4.843-0.008,9.238,0.912,12.908,4.256
		c4.822,4.394,7.097,9.712,5.019,16.117c-2.126,6.556-6.734,10.547-13.695,11.485c-1.642,0.221-3.325,0.193-4.989,0.193
		c-43.488,0.01-86.976,0.009-130.465,0.003c-1.499,0-3-0.029-4.495-0.116c-10.188-0.595-16.224-6.425-17.119-16.548
		c-0.117-1.325-0.113-2.663-0.113-3.996c-0.005-82.811,0.005-165.622-0.033-248.433c-0.002-4.274,0.699-8.238,3.131-11.837
		c1.918-2.837,4.328-4.987,7.525-6.305C700.862,1.436,702.35,1.398,703,0C705.333,0,707.667,0,710,0z"/>
	<path style="fill:#0F59A4;" d="M0.908,446.956c3.609-30.988,26.368-53.708,56.127-59.463c0-4.165-0.004-8.449,0.002-12.733
		c0.004-2.908,0.557-5.634,2.825-7.697c2.903-2.64,6.238-3.917,10.09-2.524c4.09,1.479,6.657,4.357,6.916,8.852
		c0.153,2.658,0.009,5.331,0.083,7.995c0.055,1.973-0.312,3.974,0.32,6.052c17.691,3.263,32.279,11.893,43.204,26.201
		c10.419,13.646,14.786,29.326,13.413,46.379c-2.41,29.931-24.138,55.815-56.626,61.394c-0.708,2.979-0.546,6.171-0.245,9.223
		C77.687,537.422,75.16,542.157,69,545c-1.333,0-2.667,0-4,0c-6.519-2.858-8.752-7.95-8.017-14.816
		c0.313-2.919,0.052-5.899,0.052-8.727c-33.686-6.589-53.27-32.187-56.202-60.382C0.858,456.37,0.883,451.663,0.908,446.956z
		 M77.192,500.198c6.445-1.379,11.851-4.188,16.513-8.301c12.906-11.387,18.21-25.855,16.438-42.815
		c-1.94-18.572-11.641-31.723-28.672-39.436c-1.366-0.619-2.747-0.849-4.279-0.565C77.192,439.523,77.192,469.738,77.192,500.198z
		 M56.854,408.917c-19.821,4.979-33.514,25.037-32.795,47.32c0.741,22.944,16.904,41.118,32.795,43.331
		C56.854,469.477,56.854,439.401,56.854,408.917z"/>
	<path style="fill:#1159A4;" d="M1510,400c-4.353,9.311-10.817,17.298-16.335,25.872c-7.734,12.018-15.741,23.862-23.755,35.696
		c-1.576,2.328-2.23,4.642-2.208,7.422c0.099,12.322,0.03,24.645,0.054,36.968c0.004,2.173-0.077,4.312-0.694,6.419
		c-1.514,5.17-6.481,8.878-11.508,8.538c-5.298-0.358-9.704-4.271-10.602-9.595c-0.33-1.955-0.435-3.968-0.441-5.955
		c-0.039-11.823-0.105-23.647,0.039-35.469c0.037-2.994-0.782-5.394-2.428-7.853c-12.294-18.372-24.457-36.832-36.712-55.23
		c-1.896-2.846-3.375-5.755-2.812-9.272c0.755-4.715,3.412-7.918,8.049-9.173c4.943-1.339,8.917,0.608,11.781,4.508
		c2.946,4.012,5.507,8.309,8.188,12.512c7.867,12.328,15.706,24.674,23.58,36.997c0.42,0.658,0.751,1.484,1.922,1.775
		c1.958-2.083,3.382-4.69,4.973-7.165c8.896-13.842,17.764-27.701,26.652-41.547c0.807-1.257,1.565-2.579,2.563-3.673
		c5.646-6.195,15.241-4.449,18.439,3.267c0.409,0.986-0.271,2.453,1.253,2.958C1510,398.667,1510,399.333,1510,400z"/>
	<path style="fill:#AAB3D8;" d="M0.833,461.076C0.554,461.071,0.276,461.046,0,461c0-4.667,0-9.333,0-14
		c0.306,0.048,0.609,0.034,0.908-0.044C0.883,451.663,0.858,456.37,0.833,461.076z"/>
	<path style="fill:#D3858A;" d="M498,0c0.006,0.328,0.013,0.655,0.019,0.983c-4.032-0.02-8.064-0.039-12.095-0.059
		C486.077,0.626,486.102,0.318,486,0C490,0,494,0,498,0z"/>
	<path style="fill:#B9234F;" d="M485.924,0.924c4.032,0.02,8.064,0.039,12.095,0.059c10.836,2.03,18.462,8.25,22.625,18.305
		c8.444,20.398,16.578,40.923,24.854,61.391c20.781,51.398,41.561,102.796,62.363,154.186c4.17,10.301,8.159,20.67,12.557,30.885
		c3.91,9.082,0.085,17.969-7.911,22.798c-7.541,4.553-17.885,2.566-23.315-4.52c-1.831-2.389-3.108-5.086-4.179-7.902
		c-5.96-15.669-11.964-31.32-17.928-46.987c-0.413-1.085-0.739-2.189-1.674-3.25c-48.974,0-98.074,0-147.463,0
		c-2.196,5.619-4.385,11.151-6.523,16.704c-4.832,12.545-9.644,25.098-14.453,37.652c-2.41,6.291-9.415,10.847-16.571,10.747
		c-7.693-0.107-14.714-5.079-17.346-12.105c-2.154-5.752-0.709-11.189,1.425-16.471c16.476-40.783,33.031-81.535,49.562-122.296
		c15.969-39.374,31.981-78.732,47.886-118.132C466.419,10.859,474.026,3.503,485.924,0.924z M430.739,193.044
		c41.019,0,81.555,0,122.814,0c-20.427-52.965-40.67-105.45-60.912-157.934c-0.315-0.025-0.631-0.049-0.946-0.074
		C471.429,87.569,451.163,140.102,430.739,193.044z"/>
	<path style="fill:#B9224E;" d="M1012.018,165.479c-8.254,11.793-16.19,23.064-24.056,34.384
		c-17.563,25.278-35.044,50.613-52.666,75.85c-4.401,6.302-9.218,12.215-17.106,14.641c-6.552,2.015-13.101,2.326-19.661,0.588
		c-7.856-2.081-10.584-7.976-7.119-15.355c2.269-4.832,5.617-9.037,8.768-13.316c18.652-25.328,37.373-50.604,56.061-75.905
		c10.58-14.323,21.144-28.656,31.705-42.993c0.585-0.795,1.071-1.663,1.809-2.822c-4.079-5.782-8.122-11.634-12.289-17.397
		c-22.433-31.016-44.901-62.007-67.343-93.017c-2.046-2.827-4.021-5.707-5.98-8.595c-1.127-1.661-1.861-3.486-2.318-5.469
		c-1.251-5.419,0.654-9.616,5.795-11.699c5.671-2.298,11.648-2.598,17.674-1.98c9.801,1.005,16.987,6.204,22.41,14.156
		c5.718,8.386,11.418,16.784,17.132,25.173c15.921,23.376,31.842,46.753,47.781,70.118c0.624,0.915,1.073,2.053,2.687,2.537
		c3.706-5.145,7.519-10.344,11.233-15.613c19.171-27.202,38.449-54.33,57.411-81.677c8.593-12.393,19.985-16.911,34.543-14.149
		c8.875,1.684,12.253,8.248,8.211,16.225c-1.57,3.097-3.557,6.023-5.637,8.815c-26.853,36.035-53.756,72.032-80.65,108.036
		c-0.797,1.067-1.7,2.067-2.041,3.87c3.878,5.421,7.905,11.12,12.003,16.768c18.666,25.728,37.339,51.45,56.035,77.156
		c7.733,10.633,15.543,21.21,23.291,31.833c2.743,3.76,5.502,7.52,6.677,12.156c1.282,5.056-0.582,9.356-5.325,11.558
		c-10.061,4.669-28.436,3.816-37.467-7.722c-5.851-7.476-11.236-15.267-16.648-23.049c-20.616-29.645-41.234-59.288-61.857-88.928
		C1014.224,168.434,1013.315,167.248,1012.018,165.479z"/>
	<path style="fill:#0E59A4;" d="M310.174,481.593c0-8.073,0-14.897,0-21.721c0-19.498,0.04-38.996-0.031-58.493
		c-0.015-4.252,1.135-7.886,4.432-10.652c3.161-2.653,6.706-3.506,10.695-2.021c4.236,1.577,6.991,4.44,7.699,8.972
		c0.255,1.632,0.168,3.325,0.169,4.99c0.008,33.663,0.008,67.326,0.001,100.989c0,1.665,0.086,3.354-0.15,4.992
		c-0.776,5.383-3.777,9.189-8.784,11.204c-5.251,2.113-10.147,1.21-14.384-2.563c-1.357-1.209-2.584-2.619-3.643-4.1
		c-18.669-26.132-37.299-52.292-55.948-78.438c-2.199-3.083-4.462-6.121-6.839-9.377c-0.745,2.069-0.402,3.872-0.403,5.632
		c-0.028,25.497-0.048,50.994,0.008,76.491c0.009,4.219-0.962,7.877-4.356,10.642c-3.549,2.89-7.473,3.521-11.659,1.757
		c-3.998-1.684-6.236-4.858-6.887-9.114c-0.175-1.143-0.094-2.328-0.094-3.494c-0.004-34.496-0.018-68.992,0.009-103.489
		c0.006-7.403,3.638-12.606,10.193-14.902c6.337-2.219,12.809-0.312,16.82,5.184c6.965,9.544,13.829,19.162,20.728,28.753
		c13.312,18.507,26.619,37.019,39.932,55.525C308.243,479.139,308.854,479.883,310.174,481.593z"/>
	<path style="fill:#1059A4;" d="M1304.875,489.755c0-6.599,0-12.907,0-19.136c-1.194-1.25-2.606-0.714-3.856-0.722
		c-8.165-0.054-16.331-0.047-24.497-0.019c-2.924,0.01-5.564-0.65-7.899-2.532c-3.369-2.716-4.463-6.298-3.415-10.263
		c0.987-3.734,3.505-6.357,7.532-7.158c1.798-0.358,3.588-0.613,5.439-0.607c11.498,0.041,22.997,0.02,34.495,0.02
		c0.333,0,0.667-0.005,1,0.001c10.306,0.19,14.545,4.277,14.245,14.707c-0.254,8.825-0.05,17.663-0.053,26.495
		c-0.002,5.841-2.262,10.61-6.683,14.44c-25.715,22.279-64.677,22.37-89.719,3.571c-15.664-11.759-23.824-27.729-25.622-47.135
		c-1.028-11.098,0.075-21.896,4.107-32.31c8.327-21.506,24.067-34.609,46.242-40.06c14.032-3.449,28-3.02,41.694,1.98
		c7.798,2.848,14.485,7.451,20.365,13.203c4.381,4.285,4.587,10.523,0.808,14.863c-3.804,4.368-9.885,4.886-14.824,1.163
		c-1.723-1.299-3.226-2.887-4.92-4.229c-20.234-16.023-52.802-9.7-64.72,14.885c-9.214,19.007-7.914,37.793,5.19,54.922
		c6.998,9.147,16.68,13.89,28.071,15.432c12.706,1.72,23.967-1.778,34.314-8.936c0.545-0.377,1.035-0.841,1.521-1.296
		C1304.056,490.695,1304.372,490.305,1304.875,489.755z"/>
	<path style="fill:#1059A4;" d="M991.888,454.616c-0.414-38.089,31.555-67.833,66.742-67.73
		c34.598,0.102,66.965,28.118,66.773,67.745c-0.193,39.765-31.781,67.259-66.528,67.427
		C1022.431,522.234,991.744,492.139,991.888,454.616z M1101.947,456.731c-0.046-17.493-6.56-31.566-18.274-40.72
		c-15.485-12.102-36.378-11.632-51.421,1.048c-19.855,16.737-22.249,47.477-6.95,67.588c12.154,15.978,34.176,22.916,53.786,11.337
		C1094.863,486.67,1101.139,471.892,1101.947,456.731z"/>
	<path style="fill:#1059A4;" d="M681.488,522.002c-36.373,0.434-67.024-28.928-67.279-67.158
		c-0.261-39.071,31.742-67.808,66.588-67.965c34.572-0.155,67.064,28.336,67.045,67.533
		C747.823,492.869,717.04,522.042,681.488,522.002z M724.158,454.589c0.214-4.039-0.254-8.007-1.224-11.889
		c-3.926-15.714-13.031-27.551-28.275-33.082c-14.596-5.295-28.648-2.514-40.491,7.862c-17.869,15.655-21.672,42.976-9.167,63.202
		c13.707,22.17,41.228,27.803,61.184,12.198C718.508,483.245,723.989,470.067,724.158,454.589z"/>
	<path style="fill:#1059A4;" d="M418.857,454.09c0.524-25.528,10.774-45.894,33.445-58.374
		c20.744-11.419,42.457-12.122,64.088-1.697c5.907,2.847,10.931,6.997,15.408,11.735c4.451,4.711,4.335,10.722-0.019,15.168
		c-3.859,3.941-9.594,4.422-14.022,1.111c-1.061-0.793-2.036-1.726-2.946-2.693c-14.246-15.139-37.966-15.342-53.827-3.952
		c-10.759,7.727-16.484,18.483-18.072,31.439c-1.767,14.421,0.889,27.836,10.31,39.343c6.799,8.304,15.559,13.361,26.236,14.873
		c13.916,1.971,25.929-1.886,35.883-11.917c2.01-2.025,4.153-3.826,7.177-4.168c5.023-0.568,8.978,1.399,11.238,5.679
		c2.179,4.127,1.669,8.794-1.804,12.452c-6.134,6.46-13.209,11.693-21.609,14.843c-24.486,9.183-56.856,3.506-75.975-19.062
		c-7.773-9.176-12.539-19.849-14.458-31.807C419.221,462.756,419.027,458.466,418.857,454.09z"/>
	<path style="fill:#165AA5;" d="M861.71,499.328c15.692,0,30.519,0.017,45.345-0.016c2.521-0.006,5.093-0.024,7.31,1.18
		c3.749,2.037,6.06,5.06,5.775,9.67c-0.267,4.317-2.521,7.085-6.292,8.817c-2.025,0.93-4.196,0.907-6.372,0.905
		c-18.162-0.015-36.324-0.007-54.487-0.015c-1.332-0.001-2.68,0.046-3.993-0.132c-6.173-0.836-9.468-4.126-10.311-10.323
		c-0.223-1.641-0.25-3.319-0.251-4.98c-0.013-33.825-0.008-67.65-0.014-101.475c0-2.001-0.004-3.989,0.499-5.953
		c1.359-5.311,5.888-8.979,11.164-8.995c5.191-0.016,9.74,3.737,11.141,9.028c0.568,2.145,0.476,4.294,0.476,6.451
		c0.012,29.993,0.008,59.985,0.009,89.978C861.71,495.258,861.71,497.046,861.71,499.328z"/>
</g>
</svg>
