<?xml version="1.0" encoding="iso-8859-1"?>
<!-- Generator: Adobe Illustrator 27.0.0, SVG Export Plug-In . SVG Version: 6.00 Build 0)  -->
<svg version="1.1" id="Layer_1" xmlns="http://www.w3.org/2000/svg" xmlns:xlink="http://www.w3.org/1999/xlink" x="0px" y="0px"
	 viewBox="0 0 1489 349.775" style="enable-background:new 0 0 1489 349.775;" xml:space="preserve">
<g>
	<path style="fill:#5A5960;" d="M0,296.775c2.174-0.513,2.293-2.65,3.023-4.142c5.69-11.627,11.25-23.317,16.829-34.998
		c17.742-37.149,35.476-74.301,53.209-111.454c2.626-5.501,2.845-5.625,10.26-5.226c2.079,0.811,2.706,2.812,3.529,4.589
		c12.142,26.196,24.238,52.414,36.379,78.61c7.329,15.815,14.687,31.618,22.096,47.395c1.836,3.91,3.967,7.679,6.477,11.212
		c4.466,6.286,10.497,10.048,18.145,11.163c1.146,0.167,2.349,0.08,3.457,1.014c1.078,1.179,0.465,2.651,0.429,3.886
		c-0.947,1.175-2.018,1.656-3.186,1.783c-22.347,2.417-41.087-5.118-51.87-26.243c-3.168-6.206-5.688-12.701-8.459-18.997
		c-4.228-2.348-8.676-1.553-12.882-1.276c-4.156,0.274-8.298,0.374-12.449,0.39c-10.495,0.042-20.991,0.067-31.485-0.011
		c-4.478-0.033-8.954-0.341-13.431-0.521c-2.019-0.081-3.987,0.114-6.183,1.296c-4.208,8.827-8.572,17.947-12.904,27.081
		c-2.061,4.346-4.122,8.694-6.071,13.09c-1.36,3.069-3.353,4.753-6.937,4.411c-2.636-0.251-5.314-0.053-7.974-0.055
		C0,298.775,0,297.775,0,296.775z M72.073,175.487c-11.372,23.363-22.181,45.57-33.135,68.076c21.831,0,43.224,0,64.958,0
		C93.367,221.039,82.979,198.817,72.073,175.487z"/>
	<path style="fill:#5A585F;" d="M1436.324,176.064c-5.694,5.624-12.277,10.199-18.254,15.495
		c-27.27,24.16-50.798,51.238-66.281,84.619c-7.234,15.596-12.014,31.928-14.958,48.865c-1.427,8.209-1.631,16.519-2.83,24.732
		c-0.333,0-0.667,0-1,0c-1.96-6.534-2.906-13.272-3.844-19.996c-1.496-10.737-1.523-21.562-1.018-32.352
		c1.567-33.47,11.822-64.019,31.214-91.444c13.693-19.365,30.655-35.342,50.133-48.742c0.402-0.277,0.899-0.416,1.351-0.62
		c1.89-0.055,2.858,1.378,4.069,2.465c2.187,1.963,4.269,4.041,6.465,5.997C1426.033,169.236,1431.685,171.948,1436.324,176.064z"/>
	<path style="fill:#8C898C;" d="M1436.324,176.064c-4.639-4.117-10.291-6.828-14.952-10.98c-2.196-1.956-4.278-4.034-6.465-5.997
		c-1.211-1.087-2.179-2.52-4.069-2.465c8.64-6.466,16.825-13.513,24.496-21.054c7.921-7.786,15.276-16.157,21.854-25.171
		c5.877-8.054,11.334-16.339,15.422-25.469c0.268-0.598,0.751-1.097,1.93-1.297c2.814,0.969,4.352,3.841,6.447,6.086
		c2.439,2.613,4.248,5.949,8.014,7.058c0,3.333,0,6.667,0,10c-1.563,0.626-1.298,2.28-1.6,3.397
		c-3.431,12.689-9.519,24.028-17.394,34.429C1460.605,157.017,1449.648,167.822,1436.324,176.064z"/>
	<path style="fill:#1995CA;" d="M883.315,298.472c-0.759-1.91-0.398-3.931-0.399-5.904c-0.023-39.819-0.002-79.638-0.036-119.457
		c-0.004-5.31-0.637-10.582-1.902-15.745c-1.58-6.451-5.609-9.862-12.108-10.783c-3.286-0.466-6.573-0.762-9.875-0.838
		c-1.367-1.589-1.251-3.03,0.188-4.593c0.537-0.084,1.18-0.273,1.823-0.272c26.823,0.022,53.65-0.23,80.466,0.226
		c12.763,0.217,25.402,2.282,37.185,7.769c10.088,4.698,18.624,10.993,22.244,22.169c5.074,15.666-1.172,31.437-16.121,39.745
		c-4.602,2.558-9.38,4.738-14.561,6.446c2.537,2.068,5.553,1.726,8.214,2.489c4.945,1.417,9.875,2.786,14.514,5.073
		c10.172,5.014,16.883,12.637,18.568,24.172c2.159,14.784-1.957,29.1-15.226,37.921c-5.172,3.438-10.765,5.87-16.598,7.803
		c-7.103,2.354-14.418,3.606-21.892,4.166c-23.61,1.771-47.253,0.518-70.876,0.916C885.756,299.795,884.568,299.831,883.315,298.472
		z M908.112,286.597c2.53,2.622,5.579,1.93,8.273,2.496c12.845,2.698,25.696,2.508,38.448-0.43c4.654-1.072,9.234-2.625,13.503-4.9
		c10.444-5.567,15.827-14.105,15.92-26.096c0.088-11.333-4.76-19.765-14.231-25.617c-8.102-5.007-17.256-6.817-26.544-7.241
		c-10.959-0.5-21.955-0.195-32.934-0.228c-0.814-0.002-1.676-0.063-2.435,0.874C908.112,245.811,908.112,266.356,908.112,286.597z
		 M908.319,152.453c-1.036,6.749-0.704,57.643,0.422,61.339c9.379,0,18.854,0.157,28.322-0.043
		c10.046-0.212,19.242-3.378,27.42-9.196c9.761-6.943,14.22-20.281,10.451-30.933c-3.099-8.761-9.813-14.012-17.888-17.758
		c-11.086-5.142-22.833-6.913-34.931-5.955C917.564,150.267,912.865,150.44,908.319,152.453z"/>
	<path style="fill:#5A5960;" d="M458.427,295.73c-1.025,1.493-0.688,2.695-0.686,3.824c0.02,13.496,0.07,26.992,0.131,40.487
		c0.008,1.851,0.025,3.675-1.547,5.255c-7.456,0-15.012,0-22.297,0c-1.636-1.934-1.186-3.841-1.184-5.617
		c0.017-12.496,0.135-24.991,0.136-37.487c0.001-12.162-0.128-24.325-0.15-36.487c-0.028-15.492,0.056-30.985-0.048-46.477
		c-0.029-4.311-0.296-8.656-0.899-12.922c-1.396-9.874-6.417-14.169-16.421-14.537c-2.135-0.078-4.322,0.405-6.305-0.389
		c-1.346-1.347-1.288-2.711-0.659-3.936c0.68-0.763,1.359-0.846,2.017-0.816c8.463,0.385,16.9-0.699,25.395-0.125
		c8.48,0.573,16.362,1.653,20.391,10.455c0.864-0.353,1.418-0.422,1.737-0.733c8.303-8.085,18.702-11.228,29.829-12.227
		c9.051-0.813,17.979,0.386,26.358,4.064c12.354,5.423,20.078,15.378,24.347,27.681c6.526,18.808,6.752,37.955-0.757,56.573
		c-7.071,17.532-20.516,27.184-39.327,29.591c-12.72,1.627-24.747-1.03-36.645-5.01C460.755,296.533,459.671,296.155,458.427,295.73
		z M458.594,285.196c6.391,2.54,13.088,5.547,20.355,6.542c12.318,1.686,22.243-2.615,29.302-12.947
		c3.512-5.14,5.441-10.994,6.754-17.037c2.392-11.018,2.179-22.147,0.841-33.233c-1.152-9.547-4.317-18.393-10.741-25.837
		c-3.501-4.057-7.832-6.79-13.029-7.803c-10.931-2.13-20.738,0.361-29.224,7.732c-3.438,2.987-5.269,6.398-5.223,11.24
		c0.211,21.998,0.087,43.999,0.104,65.999C457.734,281.495,457.438,283.197,458.594,285.196z"/>
	<path style="fill:#5A5960;" d="M203.818,299.476c-8.151,0-15.904,0-23.559,0c-1.72-1.778-1.13-3.881-1.133-5.817
		c-0.033-26.166-0.045-52.333,0.003-78.499c0.007-3.69-0.321-7.309-1.155-10.893c-1.957-8.406-6.367-12.092-15.049-12.469
		c-2.462-0.107-4.933-0.016-7.278-0.016c-0.938-1.932-0.558-3.322-0.494-4.866c0.947-0.132,1.586-0.322,2.214-0.294
		c8.299,0.378,16.573-0.612,24.9-0.126c8.282,0.484,15.955,1.63,20.72,9.236c2.199-0.567,3.503-1.907,5.001-2.895
		c12.252-8.089,25.698-10.365,40.06-8.384c3.79,0.523,7.562,1.086,11.239,2.178c14.906,4.427,24.295,15.981,25.869,31.418
		c0.458,4.488,0.561,8.953,0.563,13.439c0.008,20.666,0.018,41.333-0.02,61.999c-0.004,1.946,0.563,4.028-1.058,6.039
		c-7.419,0-15.044,0-22.864,0c-1.869-1.685-1.586-4.105-1.476-6.38c0.748-15.476,0.572-30.961,0.486-46.443
		c-0.043-7.815-0.597-15.62-0.545-23.447c0.121-18.253-16.046-30.909-34.821-27.224c-5.755,1.129-11.076,3.509-15.672,7.284
		c-4.157,3.414-6.047,7.864-5.805,13.189c0.166,3.647,0.788,7.29,0.733,10.928c-0.345,22.982-0.665,45.962-0.517,68.947
		C204.166,297.198,203.985,298.016,203.818,299.476z"/>
	<path style="fill:#1594CA;" d="M1149.635,183.833c11.805,0.207,24.094,3.079,34.859,10.781c13.15,9.409,20.21,22.437,22.587,38.316
		c1.681,11.232,0.875,22.172-3.05,32.789c-7.155,19.353-21.235,30.686-41.204,35.105c-12.085,2.674-24.078,2.263-35.743-1.673
		c-21.553-7.271-34.455-22.171-38.181-44.772c-2.069-12.547-1.051-24.722,3.933-36.548c5.798-13.756,15.793-23.215,29.372-28.911
		C1130.529,185.428,1139.344,183.904,1149.635,183.833z M1114.873,243.407c-0.925,11.216,1.776,22.187,7.53,32.441
		c11.24,20.028,34.798,21.543,48.511,3.762c8.593-11.142,10.467-24.182,10.735-37.505c0.094-4.654-0.47-9.546-1.547-14.284
		c-2.254-9.915-5.865-19.05-13.567-26.036c-9.989-9.061-22.085-10.491-33.655-2.625c-6.559,4.459-10.754,10.762-13.844,17.872
		C1115.46,225.26,1114.426,233.944,1114.873,243.407z"/>
	<path style="fill:#5B5960;" d="M378.739,233.33c-0.687-10.46-0.945-20.716-7.007-29.723c-2.635-3.915-6.151-6.552-10.592-7.836
		c-9.245-2.673-18.402-2.006-27.27,1.562c-5.333,2.146-8.897,6.215-11.054,11.569c-2.432,6.039-2.563,6.068-9.155,5.876
		c-0.832-0.024-1.668-0.05-2.49-0.162c-0.48-0.066-0.937-0.305-1.237-0.408c-1.036-0.702-1.627-1.605-1.665-2.586
		c-0.335-8.547,1.267-17.566,11.104-21.974c5.679-2.545,11.633-4.016,17.73-4.672c10.247-1.102,20.504-1.475,30.834-0.322
		c17.203,1.919,28.617,11.535,33.224,28.366c1.727,6.308,2.493,12.713,2.526,19.186c0.105,20.487,0.052,40.975,0.015,61.463
		c-0.003,1.775,0.553,3.689-1.019,5.576c-10.07,3.431-16.89-1.399-21.752-9.309c-1.952-0.467-2.859,0.272-3.771,1.024
		c-8.503,7.017-18.249,10.504-29.281,11.079c-7.873,0.411-15.608,0.147-23.083-2.332c-10.08-3.342-17.902-9.359-21.67-19.739
		c-5.189-14.297,0.052-29.243,13.679-36.017c9.347-4.646,19.237-7.058,29.553-8.214c10.09-1.131,20.224-1.142,30.336-1.678
		C377.161,234.035,377.613,233.742,378.739,233.33z M378.289,244.847c-9.079-0.406-17.476-0.24-25.819,1.538
		c-5.753,1.226-11.23,3.084-15.993,6.589c-4.725,3.477-7.897,7.946-8.613,14.004c-1.266,10.701,5.737,18.57,13.358,21.757
		c7.918,3.312,16.316,3.397,23.771-0.277c7.665-3.777,15.399-8.693,13.293-19.629c-0.031-0.16,0.003-0.332,0.003-0.499
		C378.289,260.714,378.289,253.098,378.289,244.847z"/>
	<path style="fill:#1294CA;" d="M1402.066,147.885c-3.24,3.617-7.315,6.249-11.114,9.172
		c-18.898,14.538-35.062,31.549-47.713,51.823c-6.353,10.18-11.385,20.97-15.319,32.301c-0.609,1.755-0.516,3.979-2.916,5.54
		c0-8.581,0.344-16.711-0.062-24.803c-1.391-27.681-9.745-52.955-26.468-75.318c-10.938-14.628-23.907-27.157-38.172-38.474
		c-3.234-2.566-6.748-4.873-9.465-8.072c0.897-4.089,4.426-6.14,7.196-8.542c2.749-2.384,5.451-4.618,7.596-7.637
		c1.242-1.749,2.558-4.004,5.295-4.078c22.603,16.216,39.196,37.117,49.004,63.223c4.326,11.514,6.955,23.431,8.246,35.695
		c0.434,4.126,0.547,8.267,1.057,13.464c5.678-13.945,11.998-26.422,21.75-36.798c9.709-10.331,20.53-19.388,31.968-27.73
		c2.746,3.446,5.283,7.061,8.522,10.098C1395.035,141.093,1398.537,144.504,1402.066,147.885z"/>
	<path style="fill:#5A5960;" d="M625.609,191.472c-0.88-1.512-0.666-2.802-0.342-4.188c0.403-0.195,0.835-0.581,1.273-0.588
		c9.288-0.137,18.545-1.126,27.873-0.008c9.638,1.155,17.436,5.104,23.143,12.995c4.625,6.395,7.122,13.866,10.409,20.928
		c6.864,14.748,13.56,29.573,20.373,44.345c0.463,1.003,0.734,2.253,2.346,3.001c5.608-13.648,11.181-27.224,16.764-40.796
		c5.536-13.459,11.082-26.914,16.571-40.245c4.906-0.512,9.174-0.312,13.219-0.234c1.063,1.58,0.182,2.574-0.233,3.581
		c-17.112,41.578-34.206,83.162-51.399,124.707c-3.053,7.377-6.518,14.578-11.844,20.692c-6.831,7.842-15.464,11.833-25.816,12.099
		c-4.147,0.107-8.298,0.018-12.227,0.018c-2.45-2.611-0.645-4.931-0.519-7.328c3.367-1.186,6.745-0.607,10.002-1.201
		c8.948-1.633,15.52-6.503,20.517-13.794c4.55-6.639,6.94-14.311,10.064-21.627c0.878-2.057-0.101-3.886-0.936-5.706
		c-7.336-15.993-14.656-31.993-22.005-47.981c-5.892-12.817-12.024-25.529-17.663-38.457c-4.768-10.931-13.177-16.716-24.482-19.008
		C628.929,192.318,627.183,191.847,625.609,191.472z"/>
	<path style="fill:#5A5960;" d="M767.153,267.222c1.992-0.41,3.456-0.594,4.746,0.05c1.204,0.8,1.457,2.025,1.773,3.094
		c3.235,10.95,10.701,17.255,21.583,19.879c10.723,2.585,21.446,2.597,32.05-0.452c5.278-1.517,9.702-4.434,11.775-9.901
		c1.973-5.202,0.759-9.836-2.883-13.85c-4.002-4.411-9.207-7.01-14.567-9.362c-10.64-4.668-21.952-7.615-32.414-12.743
		c-6.154-3.016-12.02-6.346-16.546-11.705c-10.55-12.492-6.803-30.449,5.224-39.18c5.907-4.288,12.621-6.78,19.711-7.952
		c13.944-2.305,27.839-1.459,41.557,1.822c4.534,1.085,8.823,2.956,12.549,5.874c4.413,3.456,7.02,7.884,7.31,13.589
		c0.201,3.957,0.528,7.907,0.793,11.779c-2.15,1.958-4.089,1.582-6.189,0.179c-0.473-1.126-1.047-2.319-1.483-3.56
		c-3.967-11.278-12.12-17.781-23.659-19.653c-8.042-1.305-16.277-1.488-24.27,0.703c-5.26,1.442-9.807,4.173-12.459,9.246
		c-2.621,5.013-1.611,9.684,1.742,13.909c3.599,4.534,8.326,7.66,13.656,9.773c10.335,4.098,20.741,8.019,31.095,12.069
		c4.665,1.825,8.933,4.425,13.094,7.178c16.048,10.618,17.264,33.205,0.073,45.344c-6.853,4.839-14.687,7.028-22.785,8.07
		c-14.622,1.882-29.159,1.103-43.462-2.72c-3.4-0.909-6.551-2.434-9.465-4.365c-5.51-3.652-8.482-8.9-8.636-15.471
		C766.977,275.091,766.413,271.267,767.153,267.222z"/>
	<path style="fill:#5A585F;" d="M1240.992,107.851c5.961,3.384,11.075,7.918,16.268,12.294
		c18.242,15.371,33.729,32.993,44.207,54.684c6.854,14.189,11.118,29.022,12.713,44.74c1.883,18.57-0.06,36.812-3.675,54.96
		c-1.389,6.972-3.194,13.862-4.956,21.417c-2.024-7.466-1.668-14.493-2.226-21.395c-3.38-41.832-18.849-78.424-46.643-109.879
		c-10.52-11.906-22.339-22.347-34.791-32.137c-1.809-1.422-3.846-2.639-5.044-4.729
		C1225.296,121.64,1233.117,114.713,1240.992,107.851z"/>
	<path style="fill:#5A585F;" d="M564.703,196.843c-5.419-1.06-11.463,0.425-17.165-0.799c-1.255-3.112-0.366-5.84-0.39-8.716
		c3.428-1.187,6.589-0.625,9.694-0.645c1.329-0.009,2.661,0.203,3.989,0.179c4.088-0.072,5.318-1.243,5.399-5.438
		c0.048-2.489-0.12-4.997-0.384-7.476c-0.708-6.644,1.204-12.146,6.716-16.191c0.534-0.392,1.164-0.802,1.45-1.357
		c3.742-7.27,10.186-5.974,16.905-5.506c0,11.487,0,22.738,0,33.469c1.898,2.277,3.911,2.259,5.925,2.24
		c7.49-0.071,14.979-0.114,22.468-0.238c1.212-0.02,2.272,0.263,3.451,0.715c0.675,2.813,0.59,5.572-0.011,8.126
		c-1.692,1.697-3.604,1.267-5.392,1.275c-6.995,0.031-13.991-0.011-20.986,0.031c-1.617,0.01-3.356-0.432-4.765,0.821
		c-0.942,1.192-0.586,2.575-0.587,3.867c-0.021,23.651-0.017,47.302-0.013,70.953c0,1.661,0.058,3.298,0.418,4.955
		c2.27,10.426,7.314,14.537,18.059,14.848c5.923,0.171,11.57-0.794,16.951-3.279c1.05-0.485,2.067-1.127,3.544-0.681
		c1.787,1.018,2.529,2.662,1.867,5.233c-5.998,4.276-12.994,6.807-20.321,8.302c-8.937,1.823-17.787,0.984-26.586-1.469
		c-11.408-3.181-18.189-11.854-18.868-24.604c-0.31-5.813-0.073-11.656-0.074-17.485c-0.003-18.488,0.01-36.976-0.02-55.463
		C565.975,200.727,566.472,198.81,564.703,196.843z"/>
	<path style="fill:#8C898C;" d="M1240.992,107.851c-7.875,6.862-15.696,13.789-24.146,19.956c-3.96-1.177-6.69-4.243-9.712-6.706
		c-18.533-15.109-33.149-33.352-43.085-55.193c-1.985-4.363-3.563-8.9-4.659-13.582c-0.918-3.924-0.675-7.444,2.695-10.4
		c4.207-3.691,7.17-8.638,11.803-12.249c3.682,5.897,7.139,11.692,10.845,17.323c11.579,17.596,25.925,32.801,41.196,47.178
		C1230.867,98.825,1235.967,103.298,1240.992,107.851z"/>
	<path style="fill:#1294CA;" d="M1019.049,191.334c-1.177-1.512-1.147-2.747-0.515-4.125c0.411-0.159,0.855-0.468,1.312-0.488
		c5.129-0.227,10.251-0.179,15.396-0.58c6.572-0.513,13.193,0.383,19.741,1.492c6.041,1.024,9.253,4.943,10.841,10.361
		c1.256,4.283,1.89,8.775,1.913,13.227c0.141,27.626,0.126,55.252,0.177,82.878c0.003,1.848,0.054,3.677-1.671,5.399
		c-7.137,0-14.566,0-21.893,0c-2.626-1.537-2.133-4.012-2.134-6.3c-0.009-26.629,0.007-53.258-0.023-79.887
		c-0.004-3.138,0.024-6.254-0.93-9.365c-2.65-8.646-6.178-11.574-15.163-12.213C1023.792,191.57,1021.447,192.031,1019.049,191.334z
		"/>
	<path style="fill:#2AAAD5;" d="M1270.924,79.797c-2.737,0.073-4.053,2.329-5.295,4.078c-2.145,3.019-4.847,5.253-7.596,7.637
		c-2.77,2.402-6.299,4.453-7.196,8.542c-4.638-2.368-8.3-6.064-12.202-9.355c-21.241-17.911-39.378-38.525-53.43-62.592
		c-1.503-2.574-3.041-5.218-1.851-8.977c5.844-5.897,11.021-13.2,18.405-19.13c3.661,7.658,7.316,14.464,11.677,20.875
		c10.625,15.622,23.363,29.317,37.623,41.649C1257.695,68.263,1264.303,74.038,1270.924,79.797z"/>
	<path style="fill:#2AAAD5;" d="M1402.066,147.885c-3.529-3.381-7.031-6.792-10.596-10.135c-3.239-3.037-5.777-6.652-8.522-10.098
		c2.495-3.404,6.077-5.65,9.254-8.25c21.223-17.373,38.88-37.58,50.818-62.481c0.695-1.45,1.061-3.197,3.109-4.159
		c7.061,5.618,12.216,13.261,18.572,19.266c0.936,2.76,0.183,4.923-0.864,7.055c-6.259,12.736-14.245,24.271-23.51,35.028
		c-9.707,11.27-20.565,21.228-32.387,30.182C1406.115,145.674,1404.453,147.393,1402.066,147.885z"/>
	<path style="fill:#1594CA;" d="M1050.38,145.867c6.967,0.072,13.599,4.762,15.208,11.43c1.791,7.418-0.279,13.627-10.32,15.311
		c-7.316,1.227-15.664-4.909-17.18-12.154C1036.301,151.922,1041.481,145.775,1050.38,145.867z"/>
</g>
</svg>
