<?xml version="1.0" encoding="iso-8859-1"?>
<!-- Generator: Adobe Illustrator 27.0.0, SVG Export Plug-In . SVG Version: 6.00 Build 0)  -->
<svg version="1.1" id="Layer_1" xmlns="http://www.w3.org/2000/svg" xmlns:xlink="http://www.w3.org/1999/xlink" x="0px" y="0px"
	 viewBox="0 0 1274.342 378.75" style="enable-background:new 0 0 1274.342 378.75;" xml:space="preserve">
<g>
	<path style="fill:#323132;" d="M845.503,0c4.069,1.841,5.652,4.872,5.528,9.434c-0.271,9.971-0.295,19.961,0.006,29.93
		c0.149,4.941-2.945,8.751-8.757,8.67c-14.457-0.2-28.919-0.05-43.38-0.071c-6.343-0.009-8.853-2.527-8.86-8.81
		c-0.011-9.729,0.182-19.463-0.084-29.185c-0.125-4.572,1.247-7.875,5.327-9.969C812.022,0,828.762,0,845.503,0z"/>
	<path style="fill:#24305A;" d="M1247.235,378.065c-4.533-0.225-8.749-1.466-12.905-3.822c1.208-3.306,2.347-6.426,3.581-9.805
		c4.457,2.529,9.155,3.515,14.077,3.421c1.743-0.033,3.518-0.069,5.216-0.415c2.237-0.455,3.823-1.878,4.244-4.207
		c0.394-2.184-0.582-3.937-2.322-5.158c-2.151-1.51-4.591-2.477-7.052-3.39c-2.563-0.952-5.168-1.85-7.606-3.069
		c-5.931-2.965-9.595-7.552-9.201-14.512c0.381-6.734,3.684-11.599,10.078-13.957c8.906-3.284,17.548-2.155,26.157,1.867
		c-0.961,3.461-1.992,6.585-3.625,9.868c-4.279-2.489-8.797-3.012-13.464-2.774c-3.73,0.19-5.737,1.289-6.314,3.589
		c-0.63,2.516,0.697,4.745,4.103,6.291c3.054,1.387,6.233,2.498,9.345,3.757c1.267,0.513,2.522,1.061,3.754,1.653
		c9.401,4.516,10.286,13.781,7.953,20.959c-1.549,4.766-5.4,7.286-9.987,8.83c-1.814,0.611-3.879,0.314-5.507,1.56
		c-0.5,0-0.999,0-1.499,0c-0.149-0.531-0.516-0.782-1.05-0.777C1252.553,377.999,1249.894,378.033,1247.235,378.065z"/>
	<path style="fill:#223565;" d="M1086.889,378.005c-11.035-1.124-18.918-8.485-20.977-20.053c-1.014-5.695-1.096-11.38,0.494-17.027
		c2.997-10.645,9.911-17.055,20.745-19.031c7.941-1.448,15.567-0.279,22.898,3.497c-0.712,3.454-2.379,6.377-3.319,9.788
		c-3.006-0.485-5.583-2.097-8.508-2.527c-2.743-0.404-5.489-0.621-8.178-0.099c-6.311,1.225-10.362,5.795-11.532,12.186
		c-0.831,4.539-0.562,8.948,0.807,13.282c1.783,5.64,6.655,9.299,12.566,9.48c2.724,0.083,5.431,0.056,8.178-0.47
		c2.585-0.495,4.879-1.712,7.483-2.388c1.137,3.218,2.244,6.353,3.393,9.607c-3.594,2.246-7.431,3.119-11.348,3.75
		c-0.589,0.095-1.272-0.062-1.488,0.749c-0.5,0-0.999,0-1.499,0c-0.194-0.74-0.766-0.807-1.395-0.802
		C1092.436,377.972,1089.663,377.987,1086.889,378.005z"/>
	<path style="fill:#54668C;" d="M761.552,378.75c-0.006-0.247-0.013-0.494-0.019-0.741c3.756-0.003,7.512-0.006,11.268-0.008
		c-0.002,0.25-0.004,0.499-0.005,0.749C769.048,378.75,765.3,378.75,761.552,378.75z"/>
	<path style="fill:#54668C;" d="M1086.889,378.005c2.773-0.018,5.547-0.034,8.32-0.057c0.629-0.005,1.201,0.061,1.395,0.802
		c-3.248,0-6.496,0-9.744,0C1086.87,378.502,1086.88,378.254,1086.889,378.005z"/>
	<path style="fill:#54668C;" d="M670.855,378.75c0.111-0.254,0.079-0.487-0.098-0.701c3.292-0.014,6.583-0.028,9.875-0.041
		c-0.011,0.247-0.022,0.495-0.033,0.742C677.352,378.75,674.103,378.75,670.855,378.75z"/>
	<path style="fill:#54668C;" d="M592.115,377.974c0.012,0.259,0.024,0.518,0.036,0.776c-3.248,0-6.496,0-9.744,0
		c0.054-0.17,0.129-0.338,0.153-0.512c0.011-0.081-0.075-0.175-0.118-0.264C585.667,377.974,588.891,377.974,592.115,377.974z"/>
	<path style="fill:#54668C;" d="M1247.235,378.065c2.659-0.031,5.317-0.066,7.976-0.092c0.534-0.005,0.901,0.246,1.05,0.777
		c-2.998,0-5.996,0-8.995,0C1247.424,378.514,1247.414,378.286,1247.235,378.065z"/>
	<path style="fill:#54668C;" d="M1.34,308.534c-0.447-0.345-0.893-0.689-1.34-1.034c0-0.25,0-0.5,0-0.75
		c0.838-0.179,0.709-1.286,1.474-1.535C1.429,306.321,1.384,307.427,1.34,308.534z"/>
	<path style="fill:#323132;" d="M625.023,86.797c6.836-4.644,13.221-8.494,20.088-11.458c8.302-3.584,16.966-5.604,25.992-6.413
		c5.488-0.492,10.962-0.764,16.441-0.534c8.878,0.372,17.602,1.755,25.803,5.386c12.9,5.711,21.399,15.586,26.526,28.543
		c4.314,10.902,6.267,22.321,6.616,33.958c1.308,43.6,0.283,87.214,0.601,130.82c0.015,2.019-0.037,4.069-1.036,5.819
		c-1.695,2.967-4.372,4.126-7.832,4.102c-13.614-0.094-27.228-0.038-40.842-0.037c-0.25,0-0.5,0.006-0.749-0.002
		c-4.99-0.168-7.706-2.938-7.836-8.011c-0.029-1.124-0.007-2.249-0.007-3.374c0-38.867-0.007-77.734,0.008-116.601
		c0.002-5.372-0.287-10.689-1.376-15.983c-1.985-9.647-6.944-14.402-16.749-15.905c-9.132-1.401-17.864-0.021-26.351,3.427
		c-5.303,2.155-10.491,4.544-15.446,7.434c-0.735,1.559-0.421,3.209-0.421,4.81c-0.017,44.616-0.092,89.232,0.065,133.847
		c0.026,7.498-2.635,10.633-10.431,10.443c-12.732-0.31-25.478-0.076-38.218-0.096c-1.368-0.002-2.779,0.016-4.095-0.294
		c-2.898-0.684-5.121-3.425-5.413-6.475c-0.107-1.116-0.058-2.247-0.059-3.372C570.3,204.841,570.3,142.854,570.3,80.867
		c0-0.75-0.026-1.501,0.007-2.249c0.203-4.622,2.94-7.322,7.649-7.352c8.493-0.054,16.986-0.016,25.48-0.016
		c4.496,0,8.993-0.03,13.489,0.008c5.163,0.043,8.012,2.924,8.092,8.141C625.052,81.636,625.023,83.876,625.023,86.797z"/>
	<path style="fill:#323132;" d="M1219.598,264.443c-4.629,3.017-8.878,5.815-13.507,7.948c-21.038,9.697-42.486,10.948-64.289,2.903
		c-14.038-5.179-23.745-14.968-28.78-29.009c-6.02-16.788-6.274-34.029-1.968-51.187c3.371-13.431,11.953-22.964,24.204-29.378
		c9.295-4.867,19.24-7.355,29.49-8.988c13.496-2.15,27.092-2.321,40.708-2.184c3.354,0.034,6.709,0.005,10.398,0.005
		c0-5.772-0.029-11.336,0.012-16.899c0.021-2.789-0.65-5.427-1.506-8.036c-1.95-5.945-6.084-9.547-12.035-11.202
		c-4-1.113-8.086-1.41-12.218-1.429c-15.111-0.067-30.196,0.546-45.285,1.331c-5.359,0.279-10.678,1.067-16.054,1.037
		c-5.53-0.031-7.411-1.846-7.422-7.379c-0.017-8.999-0.016-17.999,0-26.998c0.009-5.138,1.753-7.598,6.68-8.989
		c6.475-1.829,13.103-2.991,19.751-3.97c6.656-0.979,13.314-2.095,20.013-2.586c11.435-0.838,22.86-1.608,34.384-0.636
		c9.242,0.78,18.334,2.03,27.141,4.838c14.04,4.477,25.935,12.085,34.082,24.737c4.994,7.755,7.837,16.309,9.383,25.382
		c1.328,7.796,1.492,15.626,1.486,23.495c-0.032,39.997-0.015,79.994-0.015,119.992c0,1,0.06,2.004-0.015,2.999
		c-0.275,3.656-2.782,6.25-6.398,6.672c-0.371,0.043-0.747,0.069-1.121,0.069c-13.116,0.003-26.233,0.056-39.349-0.026
		c-5.131-0.032-7.7-2.82-7.767-7.995C1219.583,267.6,1219.598,266.24,1219.598,264.443z M1217.027,189.176
		c-8.721,0-17.079-0.152-25.427,0.065c-4.092,0.107-8.204,0.704-12.141,2.004c-5.694,1.88-10.39,5.061-12.364,10.987
		c-2.494,7.484-2.716,15.218-1.262,22.927c0.982,5.203,4.114,8.688,9.452,9.903c1.333,0.303,2.643,0.789,3.991,0.933
		c7.75,0.826,15.44,0.527,22.983-1.61c5.13-1.453,10.1-3.316,14.768-5.818C1217.027,215.34,1217.027,202.382,1217.027,189.176z"/>
	<path style="fill:#323132;" d="M472.56,264.552c-2.926,1.793-5.527,3.438-8.175,5.001c-15.606,9.209-32.516,12.105-50.38,10.397
		c-8.261-0.79-16.187-2.827-23.629-6.512c-13.541-6.705-22.002-17.651-26.057-32.054c-3.219-11.433-3.559-23.081-2.445-34.877
		c0.678-7.186,2.336-14.026,5.588-20.409c6.106-11.985,16.295-19.299,28.546-23.945c11.031-4.184,22.603-5.833,34.306-6.88
		c11.6-1.038,23.21-0.562,34.816-0.734c1.21-0.018,2.472,0.296,3.957-0.464c-0.327-7.349,0.597-14.79-1.137-22.201
		c-1.706-7.288-5.941-11.811-13.22-13.587c-2.434-0.594-4.866-1.116-7.361-1.17c-10.112-0.217-20.22-0.171-30.325,0.369
		c-7.353,0.393-14.71,0.761-22.07,0.948c-4.496,0.114-8.915,1.045-13.429,0.935c-5.245-0.128-7.32-1.948-7.365-7.158
		c-0.078-9.123-0.066-18.247-0.007-27.37c0.031-4.899,1.849-7.358,6.561-8.746c6.58-1.937,13.34-3.085,20.111-4.092
		c6.16-0.916,12.34-1.761,18.538-2.346c11.923-1.125,23.836-1.813,35.853-0.851c8.369,0.67,16.617,1.753,24.641,4.08
		c14.622,4.241,27.276,11.582,35.913,24.59c5.74,8.646,8.933,18.252,10.442,28.52c1.006,6.846,0.869,13.693,0.873,20.551
		c0.024,40.492,0.013,80.985,0.007,121.477c0,1.247,0.069,2.52-0.148,3.736c-0.456,2.553-2.675,4.596-5.396,5.022
		c-1.225,0.192-2.488,0.187-3.733,0.189c-11.991,0.013-23.981,0.012-35.972,0.001c-1.121-0.001-2.257,0.006-3.359-0.166
		c-3.133-0.488-5.159-2.53-5.535-5.677C472.723,269.077,472.703,266.994,472.56,264.552z M469.951,188.982
		c-7.104,0-13.939-0.066-20.772,0.02c-5.619,0.071-11.211,0.598-16.615,2.234c-6.64,2.01-11.424,6.121-13.142,13.018
		c-1.831,7.349-2.003,14.849-0.282,22.228c0.957,4.105,3.864,6.899,7.928,8.276c3.211,1.088,6.552,1.399,9.921,1.586
		c11.754,0.653,22.586-2.461,32.962-7.717C469.951,215.446,469.951,202.476,469.951,188.982z"/>
	<path style="fill:#323132;" d="M791.534,174.024c0-31.357-0.002-62.714,0.007-94.071c0-1.366-0.165-2.749,0.321-4.084
		c1.059-2.912,3.67-4.602,7.401-4.61c12.61-0.026,25.221-0.01,37.831-0.01c1.748,0,3.498-0.048,5.244,0.01
		c4.313,0.145,6.927,2.749,7.086,7.007c0.028,0.749,0.01,1.499,0.01,2.249c0,62.339-0.071,124.679,0.095,187.017
		c0.019,7.291-3.285,9.639-9.624,9.523c-13.23-0.241-26.468-0.07-39.703-0.075c-1.618-0.001-3.311,0.166-4.757-0.687
		c-2.512-1.483-3.987-3.543-3.948-6.698c0.109-8.619,0.037-17.24,0.037-25.86C791.534,220.498,791.534,197.261,791.534,174.024z"/>
	<path style="fill:#323132;" d="M1016.602,173.779c1.467-0.064,1.726,1.256,2.305,2.116c12.45,18.486,24.869,36.993,37.3,55.492
		c8.049,11.978,16.098,23.956,24.172,35.918c1.493,2.211,3.044,4.344,1.459,7.169c-1.499,2.672-4.045,2.513-6.563,2.512
		c-16.717-0.008-33.434-0.11-50.149,0.066c-4.523,0.048-7.527-1.68-9.866-5.386c-10.826-17.146-21.731-34.242-32.608-51.357
		c-0.085-1.039,0.214-1.885,0.984-2.655c1.3-1.3,2.363-2.787,2.903-4.586c1.002-0.049,1.421-0.607,1.371-1.573
		c1.082-0.345,1.524-1.135,1.541-2.221l-0.007,0.003c1.047-0.375,1.504-1.164,1.564-2.231c1.527-0.046,1.579-1.432,2.138-2.357
		c1.106-0.31,1.54-1.09,1.521-2.184l0.005-0.005c1.415-0.495,1.6-1.92,2.256-2.989c2.367-2.338,4.049-5.211,6.061-7.825
		C1007.561,185.744,1012.068,179.751,1016.602,173.779z"/>
	<path style="fill:#323132;" d="M985.668,127.794c4.872-7.349,9.154-15.056,13.681-22.614c5.372-8.968,10.676-17.976,16.041-26.948
		c0.829-1.387,1.729-2.753,2.759-3.993c1.576-1.897,3.591-3.001,6.16-2.998c15.842,0.018,31.684-0.02,47.526,0.029
		c4.164,0.013,6.36,3.498,4.427,7.178c-1.674,3.187-3.748,6.165-5.67,9.22c-11.535,18.335-23.073,36.667-34.617,54.996
		c-5.772,9.164-11.553,18.322-17.353,27.469c-0.499,0.787-0.75,1.932-2.056,1.86c-5.883-7.568-11.026-15.663-16.681-23.391
		c-1.361-1.859-2.282-4.115-4.378-5.389c-0.168-1.414-1.054-2.443-1.817-3.568C991.011,135.698,987.913,132.034,985.668,127.794z"/>
	<path style="fill:#27447B;" d="M42.639,229.477c2.087-4.916,4.895-9.452,7.431-14.131c5.259-9.703,10.506-19.412,15.777-29.108
		c0.469-0.864,1.079-1.651,1.624-2.474c2.968,0.63,2.924-2.458,4.31-3.637c1.883,0.109,1.319,1.999,2.304,2.789
		c1.164,0.063,2.387,0.129,3.568,0.193c0.594,0.634,1.23,1.103,1.583,1.731c1.086,1.932,2.346,2.965,4.752,2.014
		c1.314-0.519,2.624,0.177,3.563,1.278c-0.546,2.782,0.216,4.151,2.636,4.57c0.847,0.147,1.742,0.087,2.61,0.037
		c1.928-0.111,3.701,0.183,5.164,1.751c0.515,0.882-0.158,2.245,0.926,2.998c1.993,1.758,4.299-1.63,6.439,0.606
		c0.799,0.51,0.001,1.772,0.691,2.562c1.749,1.455,4.22,1.255,5.603,2.244c1.167,1.157,0.441,2.391,1.461,3.342
		c4.003,1.445,8.568,1.909,12.666,3.989c4.243,2.155,7.095,5.944,10.412,8.729c1.296-0.253,1.611-1.406,2.854-1.295
		c0.579,0.97,0.5,2.654,2.144,2.96c-4.482,8.405-8.928,16.829-13.459,25.207c-3.829,7.079-7.757,14.104-11.641,21.153
		c-1.992-0.907-4.337-0.109-6.302-1.931c-1.569-1.455-4.212-1.679-6.073-2.912c-1.859-1.231-2.634-3.858-5.429-4.115
		c0.645-4.862-3.668-4.299-6.003-6.06c-0.765,0.517-1.465,0.991-2.172,1.469c-1.274-0.538-2.647-0.813-3.199-2.327
		c-0.263-0.722-0.823-1.218-1.651-1.346c-3.04-0.467-5.104-2.211-6.555-4.874c-0.594-1.089-1.475-2.022-1.938-2.641
		c-1.921,0-3.039-0.038-4.153,0.009c-1.548,0.065-2.997-0.433-4.183-1.25c-2.62-1.804-5.057-3.87-7.624-5.754
		c-1.099-0.806-2.316-1.373-3.796-1.286c-1.092,0.064-2.232,0.248-3.274-0.178c-0.866-1.369-0.842-3.193-2.682-4.289
		c-1.075,0-2.485-0.225-3.786,0.058C45.652,229.904,44.165,229.917,42.639,229.477z"/>
	<path style="fill:#223565;" d="M337.453,324.704c0.58,0.344,0.637,0.92,0.669,1.507c-0.995,1.472-0.621,2.289,1.392,3.041
		c0.586,0.542,0.925,1.19,0.866,2.01c0.415,1.511-1.79,1.713-1.555,3.152c-0.289,1.152,1.019,1.998,0.509,3.626
		c-1.687,0.945-3.694,2.036-5.67,3.18c-5.779,3.346-12.194,5.295-18.133,8.288c-1.879,0.947-3.7,2.49-5.658,2.693
		c-3.237,0.335-5.39,2.16-6.653,3.226c-8.374,3.165-15.048,7.063-22.076,10.168c-1.249,0.552-2.458,1.189-3.023,2.763
		c0.117,0.557,0.966,1.121,0.219,2.234c-1.426,1.399-3.531,0.421-5.42,0.646c-1.844,0.22-2.917,2.592-5.161,1.902
		c0.857-2.709-0.129-5.055-0.695-7.387c-1.618-0.879-3.448-0.096-4.782-1.228l0.023,0.036c1.106-5.313-1.915-8.702-5.507-11.824
		l0.047-0.025c0.212-0.509,0.009-0.811-0.483-0.968c-3.496-5.853-5.896-12.237-8.829-18.362c-0.997-2.082-2.558-3.961-2.706-6.411
		c3.506,0.533,6.83-1.061,9.327-0.832c5.154-2.244,9.277-4.565,14.094-5.478c0.829-0.786,1.732-1.642,2.779-2.635
		c3.05,0.465,5.651-1.119,7.356-3.277c1.451-1.836,3.214-2.604,5.078-3.446c3.774-1.705,8.251-1.901,10.915-5.417
		c2.182,0,4.038,0,6.004,0c0.854-1.581,1.856-3.13,3.66-3.467c2.799-0.522,4.976-2.005,6.774-3.845
		c2.427-0.252,4.681,0.2,6.858-0.38c1.295-0.37,0.297-2.367,1.788-2.544c0.895,0.554,0.916,2.24,2.455,1.827
		c1.049-1.255-0.382-3.038,0.963-4.196c1.408,3.489,2.667,7.044,4.687,10.257c0.157,0.249-0.023,0.711-0.047,1.073
		c0.002,1.067,0.519,1.767,1.513,2.127c0.128,0.096,0.188,0.224,0.178,0.385c-0.056,0.725-0.452,1.603,0.784,1.747l-0.137,0.134
		l0.112-0.156c-0.083,0.865-0.578,1.83,0.573,2.4c-0.049,0.973,0.329,1.553,1.386,1.509c0.194,0.147,0.255,0.337,0.183,0.57
		c-0.028,0.681-0.201,1.43,0.772,1.64l-0.028-0.043c-0.016,0.477-0.11,0.968-0.03,1.429c0.125,0.725,0.445,0.659,0.767,0.083
		c0.613,0.347,0.717,0.927,0.712,1.557c-1.291,0.788-0.755,1.792-0.363,2.891c0.617,0.041,1.207,0.08,1.796,0.119
		c0.192,0.114,0.243,0.274,0.155,0.479c-0.042,0.711-0.283,1.513,0.788,1.711l-0.042-0.054
		C336.569,323.84,336.448,324.566,337.453,324.704z M273.452,365.008c-0.864-0.561-1.658-1.373-2.938-1.204
		c-0.94,0.498-1.78,1.144-2.105,2.268c0.835,1.623,2.036,2.631,3.84,2.054C273.677,367.669,273.762,366.374,273.452,365.008z
		 M333.063,332.973c0.643-1.095,0.727-1.988-0.033-2.837c-0.512-0.06-1.008-0.229-1.584,0.396
		C331.134,331.58,331.445,332.447,333.063,332.973z M335.794,331.893c0.89-1.479,1.025-2.346,0.018-3.425
		C334.762,329.49,334.939,330.377,335.794,331.893z"/>
	<path style="fill:#27447B;" d="M269.249,178.383c3.712,6.469,6.431,13.414,9.578,20.152c1.619,3.466,3.839,6.688,4.559,10.547
		c-0.008,0.464,0.192,0.782,0.647,0.919c0.153,0.097,0.201,0.231,0.143,0.403c0.263,1.21-1.125,3.122,1.427,3.359
		c0.146,0.146,0.168,0.309,0.064,0.488c-0.257,0.758,0.323,1.788-0.616,2.246c-1.034,0.29-1.014-1.666-2.172-0.831
		c-0.345,3.639-0.309,3.697,3.319,5.417c0.458,1.355-0.088,2.527-0.868,3.482c-1.433,1.755-3.749,0.822-5.436,1.437
		c-1.002,1.753-1.691,3.387-3.516,4.41c-2.165,1.213-4.062-0.012-5.813-0.134c-1.589,0.777-2.183,2.036-2.764,3.271
		c-0.73,1.55-1.739,2.355-3.549,2.833c-2.481,0.655-4.908,0.554-7.37,0.613c-3.731,0.089-4.261,0.529-5.097,4.412
		c-0.082,0.382-0.298,0.662-0.705,0.748c-0.85,0.241-1.349-0.366-1.992-0.74c-1.883-1.096-2.956-1.002-4.154,0.72
		c-1.919,2.759-4.503,3.929-7.754,3.861c-1.469-0.031-2.602,0.67-3.512,1.383c-0.938,1.065-0.123,2.468-1.466,3.515
		c-1.377,0.175-2.861,1.841-4.849,0.495c-0.497-0.336-1.173,0.108-1.771,0.215c-3.063,0.548-4.15,2.801-4.725,5.481
		c-2.939,0.587-4.893-1.837-7.454-1.722c-0.599-1.719-1.119-3.212-1.7-4.883c-1.119,0.406-1.818-0.663-2.848-0.646
		c-5.004-9.663-9.311-19.655-13.94-29.495c-1.366-2.905-2.615-5.865-3.918-8.8c1.588-0.298,2.047,1.066,2.212,1.991
		c0.276,1.551,1.22,2,2.527,2.367c2.187-2.828,5.181-4.705,8.627-5c2.535-0.217,4.553-1.052,6.414-2.477
		c2.103-1.61,4.457-2.63,6.919-3.457c0.934-0.313,1.91-0.41,2.612-1.258c1.739-2.101,4.187-2.973,6.681-3.779
		c1.283-0.415,2.633-0.815,3.741-1.543c3.15-2.071,6.472-3.515,10.156-3.477c5.353-4.826,17.003-9.835,21.748-9.416
		c2.218,2.944,2.218,2.944,4.968,2.011c-1.146-1.464-1.901-3.062-2.103-4.721c0.59-0.646,1.091-0.451,1.572-0.395
		c1.914,4.284,1.749,4.661,4.782,4.562c0.299-2.058-1.983-2.295-2.605-3.604C269.249,181.604,269.249,179.994,269.249,178.383z"/>
	<path style="fill:#263E71;" d="M986.538,213.068c-0.54,1.799-1.603,3.287-2.903,4.586c-0.77,0.769-1.07,1.616-0.984,2.655
		c-1.616,0.213-2.077,1.679-2.865,2.734c-6.478,8.675-12.674,17.56-19.474,25.994c-0.528,0.053-0.802,0.328-0.76,0.876l0.058-0.023
		c-1.361-0.4-2.36,0.106-3.327,1.092c-0.906,0.925-1.637,2.179-3.177,2.463c-0.616-1.382,0.874-2.483,0.256-3.659
		c-1.053-2.004-0.653-4.148-0.656-6.236c-0.028-19.25-0.018-38.499-0.014-57.749c0-1.491,0.168-3.02-0.759-4.328
		c-1.677-2.366-1.924-4.704-0.034-7.086c0.091-0.115-0.101-0.454-0.164-0.702c-0.456-0.58-1.124-0.365-1.718-0.432
		c-0.004-1.213-0.807-2.027-1.436-2.942c-4.064-5.909-8.118-11.824-12.153-17.753c-0.55-0.808-0.971-1.703-1.452-2.557
		c0.478-0.045,0.93-0.135,1.134-0.714c-0.328-1.2-1.099-1.694-2.362-1.373l0.043,0.009c0.682-2.973-1.646-4.885-2.989-7.566
		c2.93,0.278,4.143-1.053,4.536-3.418c-1.371-0.712-1.354,1.102-2.336,0.879c-0.689-0.271-1.253-0.685-1.108-1.563
		c0.441-0.758,1.514-0.278,2.056-1.411c0-0.895,0-2.132,0-3.37c0-16.847-0.059-33.694,0.056-50.54
		c0.02-2.964-0.135-5.999,0.697-8.924c1.468-0.003,2.946,0.097,4.403-0.033c2.265-0.202,4.603,0.622,6.8-0.48
		c1.915,0.354,3.375,1.451,4.515,2.949c3.361,4.413,6.546,8.948,9.148,13.865c-1.814,0.175-2.612-2.139-4.24-1.609
		c-1.103-1.238,1.013-2.241-0.397-3.431c-2.45,2.196-1.339,4.379,0.038,6.719c-1.138,1.321-0.771,2.987-0.772,4.584
		c-0.015,21.997-0.048,43.995,0.031,65.992c0.012,3.292-0.068,6.423-2.23,9.128c-0.114,0.142,0.02,0.482,0.049,0.876
		c1.398,0.857,3.019,1.52,4.323,2.742c5.894,0,11.753,0,17.526,0c0.963,0.797,1.82,1.507,2.527,2.093
		c2.145,0.494,3.946-1.603,6.247-0.053c0,5.645-0.018,11.491,0.014,17.337c0.007,1.23-0.188,2.467,0.284,3.697
		c1.056,2.745,0.526,5.433-0.966,7.791c-0.915,1.447-1.164,2.808-0.469,4.176c0.599,1.178-0.02,2.509,0.855,3.772
		C983.815,211.912,985.048,212.97,986.538,213.068z"/>
	<path style="fill:#263E71;" d="M141.157,220.626c-1.644-0.306-1.565-1.99-2.144-2.96c-1.243-0.111-1.558,1.043-2.854,1.295
		c-3.317-2.785-6.169-6.574-10.412-8.729c-4.098-2.081-8.663-2.544-12.666-3.989c-1.02-0.951-0.294-2.185-1.461-3.342
		c-1.383-0.989-3.854-0.789-5.603-2.244c-0.69-0.79,0.109-2.052-0.691-2.562c-2.141-2.237-4.446,1.151-6.439-0.606
		c-1.084-0.754-0.411-2.116-0.926-2.998c-1.463-1.567-3.236-1.862-5.164-1.751c-0.868,0.05-1.762,0.11-2.61-0.037
		c-2.42-0.419-3.182-1.788-2.636-4.57c-0.939-1.101-2.25-1.797-3.563-1.278c-2.406,0.95-3.666-0.082-4.752-2.014
		c-0.353-0.628-0.989-1.097-1.583-1.731c-1.182-0.064-2.405-0.13-3.568-0.193c-0.984-0.79-0.421-2.681-2.304-2.789
		c-1.386,1.179-1.342,4.267-4.31,3.637c3.46-7.587,7.808-14.702,11.73-22.043c2.515-4.706,5.144-9.351,7.721-14.024
		c0.261,0.747,0.704,1.3,1.515,1.447c1.217-0.129,1.293-1.429,1.843-1.825c6.225-0.133,9.492,4.478,13.786,7.925
		c0.996,0,2.222,0,4.065,0c0.582,0.739,1.157,2.188,2.166,2.619c3.324,1.419,6.4,3.339,9.677,4.748
		c2.179,0.937,4.352,1.462,5.41,3.789c1.026,0.053,1.906,0,2.746,0.16c2.231,0.425,3.308,2.566,5.132,3.581
		c1.785,0.992,4.216,0.367,5.705,2.252c0.53,0.67,1.114,1.48,2.009,1.611c3.488,0.509,5.537,2.83,7.388,5.524
		c0.546,0.794,1.282,1.539,2.581,2.054c1.616-0.721,3.303,0.448,5.129,0.684c2.859,0.369,3.188,0.795,3.674,4.042
		c-3.816,8.223-8.565,15.947-12.809,23.942C145.085,213.744,143.507,217.404,141.157,220.626z"/>
	<path style="fill:#294983;" d="M269.249,178.383c0,1.611,0,3.222,0,4.957c0.622,1.309,2.904,1.547,2.605,3.604
		c-3.033,0.1-2.868-0.278-4.782-4.562c-0.481-0.056-0.982-0.251-1.572,0.395c0.202,1.659,0.957,3.258,2.103,4.721
		c-2.75,0.934-2.75,0.934-4.968-2.011c-4.745-0.419-16.396,4.59-21.748,9.416c-3.684-0.038-7.006,1.406-10.156,3.477
		c-1.108,0.729-2.458,1.129-3.741,1.543c-2.495,0.806-4.942,1.678-6.681,3.779c-0.702,0.848-1.679,0.944-2.612,1.258
		c-2.461,0.826-4.815,1.846-6.919,3.457c-1.861,1.425-3.879,2.26-6.414,2.477c-3.447,0.295-6.441,2.172-8.627,5
		c-1.307-0.367-2.251-0.816-2.527-2.367c-0.165-0.925-0.624-2.289-2.212-1.991c-4.101-7.475-7.23-15.411-10.905-23.089
		c-1.431-2.989-3.19-5.854-4.032-9.111c1.227-0.072,2.481-0.378,3.505,0.69c0.891,0.93,2.003,0.952,3.093,0.456
		c6.034-2.749,12.189-5.28,18.005-8.433c2.042-1.107,4.273-0.786,6.209-2.076c2.864-1.908,5.96-3.516,9.089-4.967
		c6.453-2.993,12.887-6.019,19.216-9.267c0.772-0.396,1.526-1.069,2.326-1.13c3.118-0.239,5.555-1.801,7.907-3.642
		c2.044-1.599,4.294-2.327,6.516-1.54c0.939,0.598,0.351,1.76,1.503,1.917c2.005-0.553,1.183-2.385,1.545-3.691
		c3.911,7.163,7.053,14.691,10.393,22.122c0.586,1.303,1.575,2.509,1.52,4.071c0.011,0.486,0.233,0.798,0.728,0.884l0,0.001
		c-0.005,0.82-0.011,1.64-0.016,2.46c-0.006,1.142,0.686,1.345,1.629,1.213L269.249,178.383z"/>
	<path style="fill:#243A6B;" d="M159.749,186.307c-0.486-3.247-0.816-3.673-3.674-4.042c-1.826-0.236-3.513-1.405-5.129-0.684
		c-1.299-0.516-2.035-1.26-2.581-2.054c-1.851-2.694-3.901-5.016-7.388-5.524c-0.895-0.131-1.479-0.94-2.009-1.611
		c-1.489-1.885-3.92-1.26-5.705-2.252c-1.825-1.014-2.902-3.155-5.132-3.581c-0.84-0.16-1.72-0.107-2.746-0.16
		c-1.058-2.326-3.231-2.851-5.41-3.789c-3.277-1.409-6.353-3.329-9.677-4.748c-1.009-0.431-1.584-1.88-2.166-2.619
		c-1.843,0-3.069,0-4.065,0c-4.294-3.447-7.561-8.059-13.786-7.925c-0.551,0.396-0.626,1.697-1.843,1.825
		c-0.811-0.147-1.255-0.7-1.515-1.447c3.504-7.136,7.46-14.026,11.359-20.946c1.916-0.038,1.328-1.418,1.329-2.483
		c0.006-0.557,0.005-1.118,0.697-1.311c1.001-0.156,0.862-0.905,0.832-1.598c-0.035-0.224,0.016-0.427,0.152-0.609
		c1.25,0.038,1.493-0.688,1.316-1.734c-0.069-0.213-0.015-0.388,0.161-0.526c0.425-0.122,0.62-0.408,0.604-0.846l-0.044,0.047
		c0.557-0.07,0.807-0.339,0.589-0.911l-0.031-0.102c2.816,0.616,3.491-1.882,4.945-3.453c3.321,0.55,3.518,4.152,5.557,5.988
		c1.913,0,3.77,0,5.445,0c2.192,1.33,4.088,2.702,5.788,4.552c2.69-0.407,4.664,0.868,6.498,2.743
		c1.618,1.654,3.361,3.167,5.943,3.397c0.947,0.084,2.165,0.638,2.692,1.791c0.43,1.04-0.186,2.26,0.712,3.446
		c1.715,1.279,3.902,0.505,5.935,0.564c2.624,0.076,3.78,1.983,5.152,3.805c1.531,0,3.003,0,4.391,0
		c1.394,1.32,2.652,2.511,3.726,3.527c4.471,0.565,7.437,2.604,8.519,6.84c3.642-0.893,7.114-1.691,10.725-1.371
		c-0.184,1.797-1.338,3.157-2.102,4.694c-2.457,4.94-5.613,9.517-7.615,14.693C166.713,174.033,163.231,180.17,159.749,186.307z
		 M95.049,139.557c-0.894,0.928-0.619,1.524,0.37,2.512C95.708,140.938,96.538,140.313,95.049,139.557z M93.064,143.203
		c0.176,0.596,0.507,0.764,0.834,0.636c0.324-0.127,0.476-0.503,0.287-0.84c-0.088-0.157-0.377-0.308-0.552-0.286
		C93.277,142.759,93.027,142.992,93.064,143.203z"/>
	<path style="fill:#22325F;" d="M121.181,84.768c1.287-3.179,2.665-6.31,4.822-9.024c0.436-0.137,0.628-0.428,0.56-0.885
		l-0.016,0.025c1.493,0.039,2.987,0.11,4.48,0.111c29.788,0.012,59.576,0.016,89.364,0.021
		c-8.002,14.494-16.005,28.989-24.007,43.483c-1.492-0.094-2.332,0.929-2.877,2.017c-0.819,1.637-2.272,2.589-3.389,3.807
		c-1.21,0.233-2.301,0.362-2.976,0.043c-2.623-2.148-4.913-4.022-7.258-5.942c-1.353,0-2.712,0-3.793,0
		c-4.041-2.88-7.892-5.482-12.78-6.273c-1.026-2.901-3.454-3.537-6.173-3.499c-0.629-1.03-1.196-1.961-1.689-2.768
		c-2.544-0.472-4.872-1.318-6.41-3.025c-3.191-3.542-7.218-4.98-11.144-5.473c-1.523-0.687-1.426-1.991-2.382-2.555
		c-1.779-0.687-3.65-1.246-5.42-1.203c-1.566-1.156-1.524-3.105-2.885-4.099c-1.517-0.831-3.436,0.404-4.921-0.835
		c1.796-2.745,1.796-2.745,1.707-4.538C123.051,84.362,122.116,84.565,121.181,84.768z"/>
	<path style="fill:#243A6B;" d="M322.877,293.284c-1.345,1.157,0.086,2.941-0.963,4.196c-1.539,0.413-1.56-1.273-2.455-1.827
		c-1.491,0.177-0.493,2.174-1.788,2.544c-2.176,0.581-4.431,0.128-6.858,0.38c-1.798,1.84-3.975,3.323-6.774,3.845
		c-1.804,0.336-2.807,1.885-3.66,3.467c-1.966,0-3.822,0-6.004,0c-2.665,3.516-7.142,3.712-10.915,5.417
		c-1.864,0.842-3.627,1.609-5.078,3.446c-1.705,2.158-4.306,3.741-7.356,3.277c-1.047,0.993-1.95,1.849-2.779,2.635
		c-4.817,0.913-8.94,3.234-14.094,5.478c-2.497-0.229-5.821,1.365-9.327,0.832c-3.869-6.758-6.781-13.979-10.062-21.017
		c-1.607-3.446-3.513-6.777-4.598-10.458c2.461-0.057,2.89,2.02,3.562,3.973c1.159-0.962,2.008-1.666,2.807-2.328
		c4.23-0.069,7.606-1.686,10.162-5.002c2.833-1.632,6.018-0.966,9.023-1.189c1.128-1.439,2.04-2.952,3.776-3.738
		c1.184,0,2.427,0,3.684,0c2.594-4.033,8.153-3.556,10.633-7.228c1.568-0.538,3.116,0.295,4.26-0.649
		c2.495-2.058,5.595-3.039,8.224-4.717c2.303-1.47,4.358-2.723,7.144-2.343c3.022-4.118,8.953-3.771,11.421-8.103
		c0.949-0.097,1.556,1,2.492-0.228c0-1.067,0-2.427,0-3.787c2.508,3.983,4.109,8.406,6.064,12.653
		C316.559,279.64,320.098,286.287,322.877,293.284z"/>
	<path style="fill:#233768;" d="M950.018,173.253c0.594,0.067,1.262-0.148,1.718,0.432c0.063,0.247,0.255,0.587,0.164,0.702
		c-1.89,2.382-1.643,4.72,0.034,7.086c0.927,1.308,0.759,2.837,0.759,4.328c-0.004,19.25-0.014,38.499,0.014,57.749
		c0.003,2.088-0.397,4.232,0.656,6.236c0.618,1.176-0.872,2.277-0.256,3.659c1.54-0.284,2.271-1.538,3.177-2.463
		c0.966-0.986,1.965-1.492,3.327-1.092c-1.239,2.76-3.382,4.887-5.123,7.294c-3.648,5.043-7.348,10.048-11.026,15.069
		c-1.015-0.037-1.309,0.566-1.284,1.451l-0.027,0.034c-0.401,0.111-0.633,0.37-0.689,0.785l0.008-0.009
		c-0.42,0.055-0.679,0.29-0.782,0.7l-0.032,0.019c-6.193,1.213-12.458,0.652-18.696,0.76c-1.034-4.886-0.732-9.842-0.745-14.779
		c-0.023-8.957,0.059-17.915-0.042-26.871c-0.036-3.187,0.631-6.439-0.636-9.573c-0.2-0.495-0.05-1.277,0.211-1.787
		c0.978-1.916,0.363-3.598-0.569-5.274c1.222-3.174,3.428-5.747,5.293-8.515c6.115-9.078,12.356-18.071,18.489-27.137
		C945.956,179.107,947.66,175.956,950.018,173.253z"/>
	<path style="fill:#27447B;" d="M986.538,213.068c-1.49-0.098-2.723-1.157-4.146-0.945c-0.875-1.263-0.256-2.594-0.855-3.772
		c-0.695-1.368-0.447-2.729,0.469-4.176c1.491-2.358,2.021-5.046,0.966-7.791c-0.473-1.229-0.278-2.466-0.284-3.697
		c-0.032-5.846-0.014-11.692-0.014-17.337c-2.301-1.55-4.102,0.547-6.247,0.053c-0.707-0.586-1.564-1.295-2.527-2.093
		c-5.773,0-11.632,0-17.526,0c-1.304-1.222-2.925-1.885-4.323-2.742c-0.029-0.394-0.162-0.733-0.049-0.876
		c2.161-2.706,2.242-5.836,2.23-9.128c-0.08-21.997-0.046-43.994-0.031-65.992c0.001-1.597-0.366-3.263,0.772-4.584
		c-1.377-2.341-2.488-4.523-0.038-6.719c1.41,1.19-0.706,2.193,0.397,3.431c1.629-0.531,2.426,1.783,4.24,1.609l-0.037,0.076
		c-0.043,0.469,0.175,0.749,0.624,0.862c4.489,6.117,8.386,12.626,12.509,18.984c2.97,4.579,6.233,8.986,8.575,13.954
		c-0.611,0-1.222,0-1.784,0c-0.542-1.227-1.009-1.827-2.142-2.802c-1.865,2.1-1.865,2.1,1.091,6.455
		c-2.474,1.876-1.604,4.722-1.735,7.386c-0.188,3.819,0.339,7.64-0.643,11.471c-0.505,1.972-0.182,4.222,0.065,6.311
		c0.766,6.473,1.468,12.92-0.829,19.39c1.159,0.926,2.397,1.914,3.565,2.847c3.868,0,7.605,0,11.342,0
		c8.723-0.001,17.445-0.002,26.167-0.004c0.185,0.132,0.272,0.312,0.263,0.539c-4.534,5.972-9.041,11.965-13.615,17.907
		c-2.012,2.614-3.694,5.487-6.061,7.825c-1.36,0.697-1.339-1.794-2.779-1.154c-0.705,1.474,1.028,2.696,0.522,4.143l-0.005,0.005
		c-1.733-0.126-1.481,1.13-1.521,2.184c-0.56,0.925-0.611,2.311-2.138,2.357c-1.869-0.202-1.583,1.108-1.564,2.231l0.007-0.003
		c-2.086,0.375-2.426,0.864-1.541,2.221C987.959,212.462,987.54,213.02,986.538,213.068z M982.892,208.914
		c0.821,0.379,1.381,0.385,2.013-0.377c-0.331-0.706,0.726-2.186-1.29-2.202c-0.21-0.002-0.422,0.19-0.656,0.304
		C982.523,207.306,982.656,208.018,982.892,208.914z"/>
	<path style="fill:#295391;" d="M1.34,308.534c0.045-1.106,0.089-2.213,0.134-3.319l-0.008,0.019c1.638-1.421,3.2-2.884,2.904-5.355
		l-0.025,0.026c0.997-0.101,0.893-0.806,0.819-1.495l-0.025,0.034c0.924-0.149,0.865-0.827,0.809-1.504l0.039,0.045
		c1.587-0.053,3.01-1.337,5.012-0.43c2.186,2.074,5.278,3.406,8.257,4.787c3.253,1.507,6.265,3.413,9.275,5.261
		c3.889,2.387,7.808,4.602,12.066,6.236c0.91,0.349,1.9,0.811,2.525,1.514c1.55,1.739,3.656,2.511,5.555,3.667
		c4.963,3.021,9.969,5.931,15.378,8.111c1.239,0.499,2.521,1.195,3.438,2.138c2.859,2.94,6.183,4.81,10.032,4.976
		c0.827,1.221-0.1,1.87-0.277,2.686c-0.466,2.152-2.461,3.726-2.275,6.111c-0.738,3.051-2.664,5.503-4.112,8.198
		c-4.43,8.243-8.832,16.501-13.244,24.754c-0.269,0.021-0.538,0.043-0.807,0.064c-5.7-6.753-11.455-13.461-17.084-20.273
		c-4.521-5.471-9.316-10.718-13.52-16.45c0.117-1.06-0.325-1.624-1.422-1.606c-0.136-0.083-0.213-0.204-0.232-0.362
		c0.117-0.598-0.066-0.967-0.736-0.963l0.149-0.146l-0.13,0.163c0.038-0.593-0.263-0.836-0.83-0.805
		c-0.191-0.241-0.382-0.482-0.573-0.723c0.015-0.501-0.226-0.795-0.718-0.884l0.017,0.018c-0.045-0.447-0.292-0.706-0.73-0.788
		l0.002,0.003c-0.126-0.945,0.263-1.988-0.616-2.911c-0.529,0-1.138,0-1.747,0l0.032,0.019c0.005-0.481-0.244-0.749-0.704-0.839
		l0.009,0.015c0.038-1.166-0.365-1.995-1.646-2.149l0.017,0.028c0.256-1.178-0.219-1.714-1.418-1.613l0.021,0.019
		c0.136-1.07-0.34-1.594-1.412-1.589l-0.013-0.018c-0.08-1.084,0.18-2.451-1.695-2.049l0.024,0.002
		c0.06-0.53-0.192-0.796-0.709-0.839l0.02,0.027c0.178-1.106-0.28-1.652-1.412-1.605l0.003,0.003
		c-0.046-0.644,0.068-1.411-0.984-1.282l0.16-0.224l-0.173,0.218c0.407-1.238-0.108-1.733-1.333-1.656l0.024,0.022
		c-0.001-0.485-0.251-0.749-0.724-0.813l0.014,0.015c-0.039-0.443-0.277-0.706-0.713-0.791l-0.006-0.008
		c0.037-1.631-0.256-2.997-2.343-2.925l0.02,0.02c0.146-1.082-0.321-1.619-1.418-1.596C1.716,309.525,1.486,309.062,1.34,308.534z"
		/>
	<path style="fill:#223565;" d="M121.181,84.768c0.935-0.203,1.87-0.407,2.816-0.613c0.089,1.793,0.089,1.793-1.707,4.538
		c1.485,1.239,3.403,0.004,4.921,0.835c1.36,0.993,1.318,2.942,2.885,4.099c1.77-0.043,3.641,0.516,5.42,1.203
		c0.956,0.565,0.859,1.869,2.382,2.555c3.926,0.493,7.953,1.931,11.144,5.473c1.538,1.707,3.866,2.553,6.41,3.025
		c0.493,0.808,1.06,1.738,1.689,2.768c2.719-0.038,5.147,0.598,6.173,3.499c4.889,0.791,8.74,3.393,12.78,6.273
		c1.081,0,2.439,0,3.793,0c2.345,1.92,4.635,3.795,7.258,5.942c0.675,0.318,1.766,0.189,2.976-0.043
		c1.117-1.217,2.569-2.169,3.389-3.807c0.544-1.088,1.385-2.112,2.877-2.017c-0.265,1.885-1.404,3.352-2.291,4.957
		c-2.526,4.573-4.964,9.196-7.436,13.799c-1.061,0.717-1.412,1.793-1.513,2.996c-0.762,0.232-0.746,0.874-0.783,1.488
		c-0.764,0.246-0.718,0.889-0.734,1.501l0.003-0.004c-2.237,1.053-1.883,3.936-3.72,5.271c-3.612-0.32-7.084,0.478-10.725,1.371
		c-1.082-4.237-4.048-6.275-8.519-6.84c-1.074-1.017-2.332-2.208-3.726-3.527c-1.388,0-2.859,0-4.391,0
		c-1.372-1.823-2.528-3.73-5.152-3.805c-2.033-0.059-4.22,0.715-5.935-0.564c-0.898-1.185-0.282-2.406-0.712-3.446
		c-0.527-1.153-1.745-1.707-2.692-1.791c-2.582-0.23-4.326-1.743-5.943-3.397c-1.833-1.875-3.808-3.149-6.498-2.743
		c-1.7-1.851-3.596-3.223-5.788-4.552c-1.675,0-3.532,0-5.445,0c-2.038-1.836-2.235-5.438-5.557-5.988
		c-1.454,1.571-2.129,4.068-4.945,3.453c3.163-6.85,6.948-13.375,10.6-19.962C116.698,92.725,118.52,88.509,121.181,84.768z"/>
	<path style="fill:#294983;" d="M42.639,229.477c1.526,0.44,3.013,0.427,4.598,0.082c1.3-0.283,2.711-0.058,3.786-0.058
		c1.84,1.096,1.816,2.92,2.682,4.289c1.042,0.426,2.182,0.242,3.274,0.178c1.48-0.087,2.697,0.48,3.796,1.286
		c2.567,1.884,5.005,3.95,7.624,5.754c1.186,0.817,2.635,1.315,4.183,1.25c1.114-0.047,2.232-0.009,4.153-0.009
		c0.463,0.619,1.344,1.552,1.938,2.641c1.451,2.662,3.514,4.406,6.555,4.874c0.828,0.127,1.388,0.623,1.651,1.346
		c0.552,1.513,1.925,1.789,3.199,2.327c0.707-0.478,1.407-0.951,2.172-1.469c2.335,1.761,6.648,1.197,6.003,6.06
		c2.795,0.258,3.57,2.884,5.429,4.115c1.861,1.233,4.504,1.456,6.073,2.912c1.964,1.822,4.309,1.025,6.302,1.931
		c-4.963,9.273-9.764,18.635-15.114,27.696c-1.271-1.449,0.191-3.428-1.082-5.133c-1.576,0-3.286,0-5.05,0
		c-2.205-2.647-4.975-3.905-8.177-4.868c-2.996-0.901-5.886-2.687-8.331-4.686c-1.361-1.112-2.593-1.979-4.229-2.632
		c-3.542-1.415-7.154-2.856-10.347-4.897c-4.152-2.654-8.357-5.199-12.611-7.679c-3.056-1.781-6.525-2.901-9.034-5.564
		c-1.279-1.358-2.629-2.62-4.042-3.317c-1.434-2.216-0.943-4.684-1.907-7.052c-2.31,2.342,0.999,4.744-0.769,6.935
		c-1.87-0.812-3.729-0.584-5.502,0.418c-0.713,0.403-1.152,0.13-1.444-0.55c2.555-5.672,5.638-11.06,8.833-16.386
		c2.174-0.954,3.607-3.479,3.9-6.869l-0.041,0.024c1.012-0.066,2.162,0.486,3.015-0.516c-0.414-1.041-1.353-1.162-2.007-1.647
		C42.037,229.832,42.221,229.577,42.639,229.477z"/>
	<path style="fill:#294D89;" d="M179.912,148.508c1.838-1.335,1.483-4.219,3.72-5.271c0.249,1.471-0.58,2.612-1.14,3.848
		c-0.531,1.174-0.618,2.371,0.151,3.573c0.639,0,1.252,0,1.838,0c1.096-0.65,0.931-2.313,2.051-2.701
		c1.344,0.144,0.388,1.786,1.823,1.913c2.835-2.294,6.803-3.057,9.472-5.958c1.46,0,2.819,0,4.178,0
		c2.237-0.637,1.284-3.623,3.283-4.358c0.228,0,0.492-0.057,0.722,0.008c3.716,1.057,7.323,1.769,9.731-2.456
		c0.209-0.367,0.803-0.556,1.254-0.737c1.423-0.57,2.548-1.476,3.202-2.956c3.335,0.768,5.547-1.101,7.648-2.975
		c2.644,0.197,4.931-0.317,7.343-1.202c2.49-0.914,4.447-3.246,7.77-2.541c-0.338-2.851-2.471-4.971-1.541-7.588
		c3.266,5.485,5.799,11.323,8.256,17.197c-0.037,0.685-0.228,1.439,0.752,1.665l-0.024-0.027c-0.728,2.882,1.263,5.18,1.815,7.788
		c0.136,0.644,1.123,2.294,2.739,1.94l0.021-0.017c-0.361,1.307,0.46,3.138-1.545,3.691c-1.152-0.157-0.564-1.319-1.503-1.917
		c-2.222-0.788-4.472-0.059-6.516,1.54c-2.353,1.841-4.789,3.404-7.907,3.642c-0.799,0.061-1.553,0.734-2.326,1.13
		c-6.329,3.248-12.763,6.275-19.216,9.267c-3.129,1.451-6.225,3.059-9.089,4.967c-1.936,1.29-4.167,0.969-6.209,2.076
		c-5.816,3.154-11.971,5.684-18.005,8.433c-1.09,0.496-2.202,0.474-3.093-0.456c-1.024-1.068-2.279-0.762-3.505-0.69l0.028-0.023
		c-0.187-1.16,0.911-2.935-1.458-3.051l0.002,0.003c-0.002-0.607,0.071-1.248-0.683-1.516c-1.252-2.285-2.504-4.57-3.756-6.855
		c2.002-5.176,5.158-9.753,7.615-14.693C178.574,151.665,179.728,150.305,179.912,148.508z"/>
	<path style="fill:#263E71;" d="M307.352,260.158c0,1.36,0,2.72,0,3.787c-0.936,1.227-1.543,0.131-2.492,0.228
		c-2.468,4.332-8.399,3.985-11.421,8.103c-2.786-0.38-4.842,0.873-7.144,2.343c-2.629,1.678-5.729,2.659-8.224,4.717
		c-1.144,0.944-2.692,0.111-4.26,0.649c-2.481,3.672-8.039,3.196-10.633,7.228c-1.257,0-2.5,0-3.684,0
		c-1.737,0.786-2.648,2.299-3.776,3.738c-3.005,0.223-6.19-0.443-9.023,1.189c-2.555,3.316-5.932,4.934-10.162,5.002
		c-0.799,0.663-1.647,1.367-2.807,2.328c-0.672-1.953-1.101-4.03-3.562-3.973c-3.267-5.367-5.396-11.285-8.143-16.904
		c-0.746-1.527-1.712-3.004-1.951-4.755c0.727,0.004,1.482-0.291,2.277,0.268c0.254,1.546,1.333,2.72,2.308,3.936
		c3.246-1.589,5.547-4.128,7.219-7.568c2.061,1.442,4.038,0.99,5.7,0.962c2.447-0.867,2.009-3.164,2.858-4.736
		c2.437-1.015,5.002,0.007,6.573-0.429c2.303-0.901,2.402-2.77,4.008-3.77c1.067,0,2.429-0.048,3.786,0.012
		c1.726,0.076,3.11-0.588,4.373-1.703c2.221-1.962,4.485-3.877,6.574-5.677c1.938-0.364,3.71,0.196,5.591-0.457
		c0.878-1.122,1.35-2.847,3.44-3.518c0.977,0,2.335,0,3.611,0c1.408-1.04,1.6-3.03,3.772-3.679c0.916,0,2.276,0,3.751,0
		c2.395-3.171,6.548-1.544,9.68-3.61c0.38-0.78,0.86-1.764,1.386-2.844c-0.994-1.327-1.03-2.794-0.783-4.301
		c3.34,5.651,5.85,11.693,8.351,17.74C305.358,256.419,306.987,257.977,307.352,260.158z"/>
	<path style="fill:#22325F;" d="M262.282,364.526c1.334,1.132,3.164,0.349,4.782,1.228c0.566,2.332,1.552,4.678,0.695,7.387
		c2.245,0.69,3.318-1.682,5.161-1.902c1.889-0.225,3.994,0.753,5.42-0.646c0.746-1.113-0.103-1.677-0.219-2.234
		c0.565-1.574,1.774-2.211,3.023-2.763c7.028-3.105,13.702-7.003,22.076-10.168c1.263-1.066,3.416-2.891,6.653-3.226
		c1.958-0.203,3.779-1.746,5.658-2.693c5.939-2.993,12.354-4.941,18.133-8.288c1.976-1.144,3.983-2.236,5.67-3.18
		c0.51-1.629-0.798-2.474-0.509-3.626c-0.235-1.439,1.971-1.641,1.555-3.152c2.53,4.006,4.214,8.43,6.233,12.686
		c4.536,9.562,8.983,19.167,13.454,28.76c0.412,0.884,0.729,1.812,1.168,2.915c-31.405,0-62.592,0-93.988,0
		C265.441,372.024,263.504,368.443,262.282,364.526z"/>
	<path style="fill:#2A508E;" d="M241.415,119.107c-0.93,2.616,1.203,4.737,1.541,7.588c-3.323-0.705-5.28,1.627-7.77,2.541
		c-2.413,0.886-4.7,1.399-7.343,1.202c-2.101,1.874-4.313,3.743-7.648,2.975c-0.653,1.48-1.779,2.386-3.202,2.956
		c-0.451,0.181-1.045,0.37-1.254,0.737c-2.408,4.226-6.014,3.514-9.731,2.456c-0.23-0.065-0.494-0.008-0.722-0.008
		c-1.998,0.735-1.046,3.721-3.283,4.358c-1.359,0-2.718,0-4.178,0c-2.669,2.901-6.636,3.664-9.472,5.958
		c-1.435-0.127-0.479-1.769-1.823-1.913c-1.119,0.387-0.955,2.051-2.051,2.701c-0.587,0-1.199,0-1.838,0
		c-0.769-1.202-0.682-2.399-0.151-3.573c0.559-1.236,1.388-2.378,1.14-3.848l-0.003,0.004c0.482-0.014,1.056,0.05,1.307-0.426
		c0.271-0.514-0.045-0.893-0.573-1.075c0.037-0.614,0.021-1.256,0.783-1.488c2.421-0.663,2.655-1.127,1.513-2.996
		c2.472-4.603,4.91-9.226,7.436-13.799c0.886-1.605,2.025-3.072,2.291-4.957c8.002-14.494,16.005-28.989,24.007-43.483l0.369-0.018
		l0.369,0.011c4.208,8.791,8.458,17.562,12.608,26.38c2.316,4.921,4.468,9.92,6.695,14.884c-0.647,0.342-0.422,0.555,0.106,0.724
		c0.126,0.185,0.165,0.386,0.118,0.605c-0.009,0.441,0.174,0.751,0.605,0.893C241.394,118.679,241.445,118.883,241.415,119.107z"/>
	<path style="fill:#294D89;" d="M28.418,255.657c0.292,0.68,0.732,0.953,1.444,0.55c1.772-1.002,3.632-1.229,5.502-0.418
		c1.769-2.191-1.54-4.594,0.769-6.935c0.964,2.367,0.473,4.836,1.907,7.052c1.413,0.697,2.763,1.959,4.042,3.317
		c2.508,2.662,5.978,3.782,9.034,5.564c4.253,2.48,8.459,5.025,12.611,7.679c3.193,2.041,6.805,3.482,10.347,4.897
		c1.636,0.654,2.869,1.52,4.229,2.632c2.445,1.999,5.334,3.785,8.331,4.686c3.202,0.963,5.972,2.221,8.177,4.868
		c1.764,0,3.474,0,5.05,0c1.273,1.705-0.19,3.684,1.082,5.133c-2.236,4.494-4.508,8.97-7.156,13.242
		c-1.11,2.689-3.17,4.904-3.855,7.815c-0.17,0.724-0.717,1.275-1.479,1.52c-0.016-1.366,0.112-2.561,1.004-3.829
		c1.231-1.749,0.641-2.634-1.841-3.635c-1.051,0.628-0.966,2.219-2.166,2.816c-1.231-0.448-0.441-2.261-2.241-2.684
		c-2.711,0.451-3.707-2.741-6.092-3.988c-0.986,0-2.099,0-3.247,0c-1.292-1.227-2.552-2.424-3.918-3.721c-1.196,0-2.423,0-3.526,0
		c-1.427-1.332-2.697-2.517-3.987-3.722c-1.422,0-2.785,0-3.866,0c-1.804-0.713-2.221-2.304-3.167-3.434
		c-1.878-0.51-4.055-0.397-5.144-2.467c-1.453-2.761-3.829-4.817-5.561-7.569c-4.133,0.226-8.072-0.452-11.876-2.165
		c-1.222-0.55-1.96-1.331-2.832-2.208c-2.395-2.409-4.938-4.671-7.297-6.874c-1.577,0.693-0.286,2.489-1.949,2.942
		c-1.297,0.415-1.421-2.027-2.925-1.525c2.122-5.036,4.995-9.682,7.61-14.456C26.368,259.027,26.988,257.091,28.418,255.657z"/>
	<path style="fill:#2A508E;" d="M17.819,275.196c1.504-0.502,1.628,1.941,2.925,1.525c1.663-0.454,0.372-2.25,1.949-2.942
		c2.359,2.203,4.902,4.465,7.297,6.874c0.872,0.877,1.609,1.657,2.832,2.208c3.804,1.713,7.744,2.391,11.876,2.165
		c1.733,2.752,4.108,4.808,5.561,7.569c1.089,2.07,3.266,1.957,5.144,2.467c0.946,1.13,1.363,2.721,3.167,3.434
		c1.082,0,2.445,0,3.866,0c1.291,1.205,2.561,2.39,3.987,3.722c1.103,0,2.33,0,3.526,0c1.366,1.298,2.626,2.494,3.918,3.721
		c1.149,0,2.261,0,3.247,0c2.385,1.247,3.381,4.439,6.092,3.988c1.8,0.422,1.01,2.236,2.241,2.684
		c1.2-0.597,1.115-2.188,2.166-2.816c2.482,1.001,3.072,1.885,1.841,3.635c-0.892,1.268-1.02,2.463-1.004,3.829
		c-0.29,1.894-1.446,3.37-2.327,4.996c-2.052,3.791-3.966,7.656-5.936,11.491c-1.202,1.726-2.459,3.456-2.954,5.521
		c-0.329,1.371-1.187,2.112-2.263,2.771c-0.186-2.385,1.809-3.959,2.275-6.111c0.177-0.816,1.104-1.464,0.277-2.686
		c-3.849-0.166-7.173-2.036-10.032-4.976c-0.916-0.942-2.199-1.638-3.438-2.138c-5.409-2.18-10.415-5.089-15.378-8.111
		c-1.899-1.156-4.005-1.927-5.555-3.667c-0.626-0.702-1.616-1.165-2.525-1.514c-4.258-1.634-8.177-3.849-12.066-6.236
		c-3.01-1.848-6.022-3.754-9.275-5.261c-2.979-1.38-6.071-2.713-8.257-4.787c-2.002-0.907-3.426,0.377-5.012,0.43
		C6.093,295.77,6.853,294.9,7.555,294c0.434-0.127,0.641-0.413,0.601-0.869l-0.044,0.048c0.998-0.107,0.86-0.832,0.817-1.505
		l-0.025,0.012c2.042-0.374,2.187-2.743,3.887-3.409c-0.072-1.264-0.133-2.339-0.194-3.413c0,0-0.037,0.022-0.037,0.022
		c1.068-0.026,0.899-0.786,0.866-1.464l-0.028,0.031c1.5-0.549,2.919-1.206,3.821-2.901c-0.288-0.75-0.862-1.586-0.823-2.582
		C16.374,276.79,17.108,275.999,17.819,275.196z"/>
	<path style="fill:#264075;" d="M296.198,236.722c-0.247,1.507-0.212,2.974,0.783,4.301c-0.527,1.08-1.006,2.065-1.386,2.844
		c-3.132,2.066-7.285,0.439-9.68,3.61c-1.474,0-2.835,0-3.751,0c-2.172,0.648-2.364,2.639-3.772,3.679c-1.277,0-2.634,0-3.611,0
		c-2.09,0.671-2.562,2.396-3.44,3.518c-1.881,0.653-3.653,0.093-5.591,0.457c-2.089,1.8-4.353,3.714-6.574,5.677
		c-1.263,1.116-2.647,1.779-4.373,1.703c-1.357-0.06-2.72-0.012-3.786-0.012c-1.607,1-1.705,2.869-4.008,3.77
		c-1.57,0.436-4.136-0.585-6.573,0.429c-0.85,1.571-0.411,3.869-2.858,4.736c-1.662,0.028-3.639,0.48-5.7-0.962
		c-1.671,3.44-3.972,5.979-7.219,7.568c-0.975-1.216-2.055-2.39-2.308-3.936c-0.795-0.559-1.55-0.264-2.277-0.268
		c-4.016-7.872-7.994-15.763-11.217-24.006c1.03-0.017,1.729,1.052,2.848,0.646c0.582,1.671,1.102,3.164,1.7,4.883
		c2.561-0.115,4.515,2.309,7.454,1.722c0.575-2.68,1.662-4.933,4.725-5.481c0.598-0.107,1.274-0.551,1.771-0.215
		c1.987,1.346,3.472-0.32,4.849-0.495c1.342-1.047,0.528-2.45,1.466-3.515c0.91-0.712,2.043-1.413,3.512-1.383
		c3.251,0.068,5.834-1.102,7.754-3.861c1.198-1.722,2.272-1.816,4.154-0.72c0.643,0.374,1.142,0.981,1.992,0.74
		c0.407-0.086,0.623-0.366,0.705-0.748c0.836-3.883,1.366-4.324,5.097-4.412c2.463-0.058,4.889,0.042,7.37-0.613
		c1.81-0.478,2.819-1.283,3.549-2.833c0.582-1.234,1.175-2.493,2.764-3.271c1.75,0.123,3.648,1.348,5.813,0.134
		c1.826-1.023,2.514-2.658,3.516-4.41c1.686-0.615,4.003,0.318,5.436-1.437c0.779-0.955,1.326-2.127,0.868-3.482
		c-3.628-1.72-3.664-1.778-3.319-5.417c1.158-0.835,1.138,1.121,2.172,0.831c0.939-0.458,0.359-1.487,0.616-2.246
		c1.559,1.339,1.849,3.39,2.719,5.093c2.455,4.805,4.607,9.764,6.879,14.662c-0.832,0.407-0.455,0.601,0.133,0.758
		c0.112,0.137,0.12,0.279,0.022,0.426c-0.052,0.543,0.155,0.919,0.699,1.074C296.267,236.395,296.294,236.548,296.198,236.722z"/>
	<path style="fill:#295391;" d="M447.856,347.919c4.674,1.685,7.362,4.791,8.178,9.312c1.374,7.617-0.864,15.074-9.551,18.476
		c-3.265,1.278-6.674,2.036-10.17,2.208c-6.735,0.33-13.462,0.218-20.151-0.776c-0.983-0.146-1.974-0.261-2.879-1.095
		c0-17.346,0-34.798,0-52.508c7.129-1.465,14.278-1.814,21.482-1.33c3.233,0.217,6.428,0.675,9.493,1.822
		c7.832,2.931,10.365,8.785,9.09,16.683C453.022,342.723,451.7,344.324,447.856,347.919z M425.276,353.748c0,4.762,0,9.198,0,13.796
		c4.718,0.869,9.244,0.882,13.702-0.598c3.621-1.202,5.109-3.373,4.874-6.915c-0.215-3.234-2.058-5.331-5.643-5.923
		C434.054,353.42,429.851,353.238,425.276,353.748z M425.259,344.262c4.257-0.264,8.138,0.427,11.935-0.739
		c3.359-1.032,4.472-2.399,4.477-5.534c0.005-3.036-1.305-4.919-4.529-5.484c-3.897-0.683-7.863-0.65-11.883-0.067
		C425.259,336.397,425.259,340.095,425.259,344.262z"/>
	<path style="fill:#243A6B;" d="M1011.92,377.132c-0.988,0.171-1.973,0.282-2.972-0.128c-7.107-11.927-14.336-23.797-24.207-35.006
		c0,12.242,0,23.608,0,35.117c-4.258,0-8.093,0-12.179,0c0-18.034,0-36.065,0-54.325c3.182,0,6.377,0,10.143,0
		c8.787,9.352,16.461,20.187,24.496,30.99c0-10.25,0-20.499,0-31.128c4.117,0,7.937-0.005,11.756,0.026
		c0.101,0.001,0.199,0.381,0.298,0.584c-1.201,0.994-0.577,2.34-0.58,3.503c-0.046,15.114-0.03,30.228-0.03,45.342
		c0,1.344,0,2.688,0,4.392c-1.68,0-3.023-0.037-4.362,0.014C1013.465,376.544,1012.499,376.14,1011.92,377.132z"/>
	<path style="fill:#2A508E;" d="M178.415,308.224c8.972-0.613,7.397-0.212,10.242,6.004c8.779,19.184,17.406,38.438,26.052,57.682
		c0.49,1.09,1.376,2.117,1.027,3.645c-3.172,0.298-6.384,0.225-9.597,0.058c-0.855-1.135-2.073-0.575-3.113-0.585
		c-6.462-0.061-12.924-0.042-19.386-0.05c-0.808-3.278,1.834-6.513,0.116-9.786c0.332-1.315,1.51-2.317,1.311-4.029
		c-4.604-2.653-5.421-6.736-3.58-11.571c-1.868-2.499-3.193-5.099-3.097-8.218c0.049-1.59-0.701-3.281-1.693-3.98
		c-2.045-1.442-2.46-3.566-3.423-5.51c-1.11-2.242-1.076-4.843-2.052-7.018c-1.972-4.395-2.649-9.207-4.723-13.548
		c-0.275-0.575-0.32-1.479,0.653-2.318c2.812,0,5.905,0.016,8.997-0.011C176.967,308.981,177.943,309.313,178.415,308.224z"/>
	<path style="fill:#22325F;" d="M1154.441,377.267c0-18.404,0-36.355,0-54.509c12.173,0,24.23,0,36.558,0
		c0.804,3.169,0.205,6.477,0.411,10.153c-8.239,0-16.27,0-24.456,0c0,3.704,0,7.015,0,10.677c7.113,0,14.164,0,21.379,0
		c0.755,3.482,0.27,6.673,0.361,10.289c-7.268,0-14.421,0-21.735,0c0,4.499,0,8.557,0,12.953c8.658,0,17.213,0,26.004,0
		c0,3.509,0,6.695,0,10.438C1180.311,377.278,1167.535,377.266,1154.441,377.267z"/>
	<path style="fill:#2C4171;" d="M889.209,322.679c12.287,0,24.235,0,36.412,0c0,3.404,0,6.685,0,10.219c-8.02,0-15.971,0-24.18,0
		c0,3.649,0,7.057,0,10.819c7.16,0,14.222,0,21.433,0c0.717,3.491,0.28,6.662,0.358,10.139c-7.346,0-14.413,0-21.914,0
		c-0.246,4.451-0.095,8.603-0.125,13.02c8.961,0,17.537,0,26.276,0c0.713,3.409,0.215,6.616,0.347,9.774
		c-2.71,0.798-30.527,1.075-38.607,0.388C889.209,359.03,889.209,341.002,889.209,322.679z"/>
	<path style="fill:#233768;" d="M934.704,72.01c-0.833,2.925-0.677,5.961-0.697,8.924c-0.115,16.846-0.056,33.693-0.056,50.54
		c0,1.237,0,2.475,0,3.37c-0.542,1.133-1.614,0.653-2.056,1.411c-0.145,0.879,0.419,1.292,1.108,1.563
		c0.983,0.223,0.965-1.591,2.336-0.879c-0.393,2.364-1.605,3.696-4.536,3.418c1.342,2.681,3.671,4.594,2.989,7.566
		c-2.441-1.837-3.58-4.652-5.248-7.062c-5.163-7.462-10.271-14.963-15.384-22.461c-0.623-0.913-1.145-1.895-1.714-2.846
		c-0.009-1.739,0.063-3.53-2.391-3.676l0.047,0.018c0.056-0.495-0.168-0.785-0.649-0.885l-0.001-0.002
		c0.101-5.311,1.125-10.564,0.806-15.913c-0.222-3.721-0.051-7.466-0.04-11.2c0.006-1.988,0-3.979,0.105-5.963
		c0.022-0.418,0.502-0.812,0.451-0.735c1.259-1.223,2.211,0.761,3.053-0.551c-0.068-1.017-0.704-1.511-1.661-1.632
		c-1.855-0.235-2.036-1.522-1.94-3.002C917.718,72.012,926.211,72.011,934.704,72.01z"/>
	<path style="fill:#233768;" d="M80.191,333.747c1.97-3.835,3.884-7.701,5.936-11.491c0.88-1.626,2.037-3.102,2.327-4.996
		c0.762-0.246,1.309-0.797,1.479-1.52c0.685-2.911,2.745-5.126,3.855-7.815c1.222,0.083,2.444,0.166,3.666,0.249
		c0.872,2.985,3.621,4.952,4.225,8.536c-0.788,1.051-0.316,2.464,0.417,3.983c1.704,3.528,3.94,7.058,4.146,10.931
		c0.229,4.316,1.667,8.142,2.937,12.098c0.037,0.117,0.158,0.22,0.162,0.333c0.1,3.021,1.495,5.393,3.651,7.194
		c0.416,4.09,0.954,8.104,2.831,11.479c2.23,4.011,2.094,8.068,1.873,12.286c-8.245,0.006-16.49,0.013-24.735,0.019
		c1.477-4.466,1.297-9.187,1.991-13.909c-0.743-2.369-2.476-4.313-4.323-6.251c0.633-3.779-0.994-7.327-0.793-10.118
		c-0.892-3.925-4.431-1.712-5.828-4.059c1.634-2.535,0.136-4.978-0.404-7.577C82.329,333.312,81.34,334.003,80.191,333.747z"/>
	<path style="fill:#294983;" d="M680.632,378.008c-3.292,0.014-6.583,0.028-9.875,0.041c-4.821,0.014-9.265-1.322-13.614-3.611
		c0.65-3.456,1.989-6.491,3.224-9.889c4.171,2.007,8.374,3.211,12.896,3.383c2.152,0.082,4.239-0.105,6.304-0.451
		c2.036-0.341,3.739-1.36,4.166-3.693c0.443-2.422-0.084-4.469-2.213-5.9c-2.081-1.399-4.406-2.277-6.745-3.137
		c-3.607-1.325-7.154-2.743-10.499-4.711c-9.396-5.529-8.299-21.623,1.995-26.238c3.252-1.458,6.605-2.271,10.088-2.428
		c6.16-0.278,12.085,0.765,17.757,3.747c-1.142,3.229-2.21,6.247-3.197,9.039c-1.236,0.728-1.964-0.027-2.683-0.368
		c-3.99-1.893-8.215-1.876-12.458-1.606c-3.034,0.193-4.629,1.404-5.053,3.553c-0.499,2.528,0.345,4.404,3.013,5.815
		c1.969,1.042,4.09,1.817,6.189,2.586c2.689,0.985,5.292,2.148,7.893,3.341c6.647,3.048,9.17,8.453,8.836,15.407
		C696.216,372.044,690.424,377.429,680.632,378.008z"/>
	<path style="fill:#27447B;" d="M772.801,378.001c-3.756,0.003-7.512,0.005-11.268,0.008c-8.986-0.913-15.905-4.96-19.393-13.564
		c-3.596-8.869-3.76-18.024-0.387-26.954c3.41-9.028,10.389-14.062,19.809-15.668c6.513-1.111,12.888-0.364,19.084,1.932
		c1.164,0.432,2.35,0.805,3.413,1.878c-0.723,3.278-2.175,6.387-3.305,9.771c-4.45-1.764-8.642-3.135-13.23-3.155
		c-6.044-0.027-12.715,2.747-14.672,11.777c-0.942,4.348-0.911,8.926,0.424,13.33c1.933,6.375,6.557,9.972,13.148,10.173
		c4.491,0.137,7.977,0.227,15.048-2.903c1.397,3.125,2.566,6.314,3.483,9.72C781.067,376.641,777.049,377.694,772.801,378.001z"/>
	<path style="fill:#294983;" d="M178.415,308.224c-0.472,1.088-1.448,0.757-2.266,0.764c-3.093,0.026-6.186,0.011-8.997,0.011
		c-0.973,0.839-0.928,1.743-0.653,2.318c2.074,4.341,2.751,9.153,4.723,13.548c0.976,2.176,0.941,4.777,2.052,7.018
		c0.963,1.944,1.378,4.068,3.423,5.51c0.992,0.7,1.742,2.39,1.693,3.98c-0.096,3.119,1.228,5.719,3.097,8.218
		c-1.841,4.835-1.024,8.918,3.58,11.571c0.2,1.712-0.978,2.714-1.311,4.029c1.718,3.273-0.924,6.508-0.116,9.786
		c-5.245,0.001-10.491,0.002-15.736,0.002c0.597-2.254,1.335-4.504,0.281-6.932c-0.464-0.184-0.897-0.444-1.36-0.519
		c-0.658-0.106-1.168-0.384-1.669-1.024c-0.657-4.122-1.359-8.382-0.96-12.638c-0.44-0.519-0.705-0.967-1.087-1.262
		c-2.821-2.174-3.938-5.02-3.453-8.525c0.196-1.42-0.025-2.858-0.933-3.883c-1.774-2.005-2.319-4.309-2.108-6.761
		c-1.06-1.139-1.989-2.136-3.201-3.438c1.465-3.23-0.882-5.941-1.678-8.966c-1.047-3.98-3.538-7.625-2.581-12.036
		c1.987-0.404,4.186,0.836,6.017-0.778C162.92,307.904,170.668,307.961,178.415,308.224z"/>
	<path style="fill:#294D89;" d="M577.486,376.588l-0.291,0.003c-0.541-1.603-1.747-1.766-3.167-1.463l0.003,0.047
		c0.62-1.755-1.143-1.464-1.814-2.067c0.089-0.595,0.713-1.176-0.07-1.671c-0.917-0.473-2.003,0.147-2.859-0.47
		c-1.075-2.534-1.075-2.534-4.17-3.424l0.009,0.005c0.029-0.707,0.091-1.435-0.931-1.478c-2.392-2.879-3.172-6.43-3.746-9.939
		c-1.692-10.336,0.238-19.773,7.746-27.529c2.611-2.697,5.682-4.776,9.514-5.419c1.73,0.011,3.555,0.384,5.174-0.036
		c4.956-1.285,9.661-0.875,14.255,1.276c0.637,0.961-0.202,2.264,0.472,2.878c2.073,1.314,3.756-1.339,5.528,0.086
		c0.537,0.823-0.96,1.551-0.071,2.38c1.346,0.744,2.256-0.802,3.481-0.66l-0.042-0.002c-0.027,0.546,0.228,0.812,0.778,0.786
		l-0.006-0.014c0.3,1.743-1.772,1.327-2.448,2.62c2.118,0.94,4.116,1.826,6.114,2.712l-0.008-0.003
		c-0.024,0.653-0.142,1.356,0.795,1.499l-0.027-0.023c-0.094,0.856-0.164,1.715-0.309,2.562c-0.023,0.133-0.384,0.209-0.569,0.301
		c-1.153-0.044-0.142-2.203-1.936-1.732c-0.324,1.032-0.565,2.151,0.5,2.962c0.87,0.662,1.912,1.097,2.908,1.649
		c0,0.951,0,1.809,0.002,2.667c-1.9,1.61-1.9,1.61-1.977,3.879c0.644,0.946,2.005,0.114,2.721,1.19c0,0.49,0,1.102,0,1.683
		c-0.693,1.106-2.308,0.985-2.772,2.039c-0.448,1.672,1.463,2.156,1.334,3.544c-2.285,3.007-3.366,6.314-2.185,10.11l0.012-0.011
		c-2.618-0.081-4.826,1.027-6.584,2.779c-0.859,0.856-2.09,1.348-2.498,0.758c-1.755-2.536-3.987,0.177-5.952-1.352
		c0.734,3.371,2.714,1.813,4.226,1.652c0.413,1.097,0.252,1.879-0.485,2.5c-2.088,1.762-4.57,2.893-7.187,3.302
		c-2.426,0.379-4.983-0.133-7.434,0.158c-1.483,0.176-1.668-1.399-2.986-1.433C579.753,376.699,578.58,376.453,577.486,376.588z
		 M597.343,336.041l0.015,0.014c-0.044-0.471-0.304-0.724-0.774-0.762l0.012,0.024c0.299-2.288-2.287-2.275-2.889-3.955
		c-2.017,0.46-3.674-0.194-5.396-0.976c-2.334-1.06-3.364-0.504-4.413,1.869c-0.13,0.158-0.282,0.185-0.459,0.083
		c-1.521,0-3.304-0.701-4.002,1.499c-0.054,0.35-0.151,0.666-0.567,0.737c-0.514-0.02-0.84,0.2-0.921,0.728l0.012-0.012
		c-0.478,0.052-0.725,0.326-0.769,0.797c-0.186,0.703-0.724,1.106-1.275,1.498c-2.643-0.204-1.482,1.782-1.708,2.97l0.019-0.021
		c-0.96,0.233-0.809,0.922-0.661,1.61l0.049-0.035c-1.784,0.533-0.649,1.957-0.902,2.957l0.031-0.036
		c-1.671,0.801-0.656,2.448-1.078,3.661c-0.958,2.754,0.393,5.495,0.684,8.25c0.048,0.453,0.663,0.697,1.198,0.727l-0.035-0.011
		c-0.107,0.678-0.189,1.346,0.681,1.611l0.08,0.315c-0.076,0.508,0.022,0.934,0.546,1.159c0.12,0.195,0.164,0.406,0.133,0.632
		c0.034,0.502,0.288,0.788,0.801,0.823l-0.023-0.031c0.185,1.483,0.63,2.949,0.153,4.037c0.907,2.205,2.351,0.149,3.158,0.793
		c0.513,0.666,0.228,1.435,0.564,1.64c4.237-0.142,8.194,0.878,12.171,0.185c0.746-0.605,1.649-1.086,1.807-2.192l-0.031,0.035
		c1.228,0.187,2.029-0.26,2.276-1.532l-0.022,0.03c0.86,0,1.72,0,2.707,0c0.483-2.059,1.667-3.511,3.412-4.397
		c0.75,0.417,1.262,0.758,1.332,1.916c0.095,0.475-1.814,0.386-0.858,1.903c1.231,0.621,2.659,1.469,4.312,1.299
		c0.725-1.172,0.232-1.833-0.347-2.553c-1.007-1.252-2.075-2.488-2.858-3.878c-1.096-1.946-1.381-4.021-0.251-6.13
		c0.989,0.423,0.774,1.167,1.028,1.691c0.276,0.567,0.671,1.046,1.369,1.116c2.933-2.791,3.052-4.031,0.879-8.705
		c-1.609-0.611-2.437,0.153-2.695,1.908c-1.744-3.082-0.93-6.155-1.291-9.053c-0.943-0.698-1.912-1.223-2.341-2.378
		c-0.332-0.893-1.152-1.273-2.149-1.068l0.029,0.01C598.074,336.354,597.825,336.089,597.343,336.041z M592.181,326.761
		c1.804,1.492,1.804,1.492,3.815,1.146C595.032,326.207,593.922,325.805,592.181,326.761z M605.263,338.797
		c1.099,0.156,1.562-0.444,1.764-1.344c-0.244-0.823-0.716-1.287-1.621-1.264C604.638,337.011,604.775,337.887,605.263,338.797z
		 M597.048,331.349c0.706,0.095,1.346,0.347,1.783-0.715c-0.376-0.53-0.597-1.378-1.742-1.183
		C596.592,329.955,596.55,330.507,597.048,331.349z M602.12,333.636c-0.026-1.577-0.026-1.577-1.588-1.58
		C600.6,333.054,601.11,333.587,602.12,333.636z M602.849,367.402c-1.162-0.642-1.892-1.09-2.356,0.29
		C601.197,368.388,601.82,368.394,602.849,367.402z"/>
	<path style="fill:#263E71;" d="M117.694,375.012c0.221-4.218,0.357-8.274-1.873-12.286c-1.876-3.375-2.414-7.389-2.831-11.479
		c-2.156-1.801-3.551-4.173-3.651-7.194c-0.004-0.112-0.124-0.216-0.162-0.333c-1.27-3.957-2.708-7.782-2.937-12.098
		c-0.206-3.873-2.443-7.403-4.146-10.931c-0.733-1.519-1.205-2.931-0.417-3.983c-0.605-3.584-3.353-5.551-4.225-8.536
		c6.993-0.292,13.986-0.285,20.978,0.017c-0.001,0.27-0.001,0.54-0.002,0.81c-0.705,0.091-1.513-0.226-2.072,0.515
		c-0.382,1.376-0.073,2.604,0.506,3.915c1.416,3.205,3.197,6.23,3.584,9.898c0.274,2.595-0.112,5.197,0.382,7.823
		c1.368,1.669,3.492,2.988,3.559,5.432c0.088,3.224,1.229,6.25,2.388,9.047c1.191,2.872,1.389,5.644,1.402,8.412
		c3.67,4.609,6.116,9.413,5.037,15.239c-1.342,0.959-3.078-0.12-4.411,1.333c2.275,1.332,4.653,0.021,6.871,1.091
		c0,1.086,0,2.189,0,3.292C129.681,375.001,123.688,375.007,117.694,375.012z"/>
	<path style="fill:#223565;" d="M920.178,217.71c0.932,1.676,1.547,3.358,0.569,5.274c-0.26,0.51-0.411,1.292-0.211,1.787
		c1.267,3.134,0.601,6.386,0.636,9.573c0.101,8.956,0.019,17.914,0.042,26.871c0.013,4.937-0.29,9.892,0.745,14.779
		c-7.171,0-14.342,0-21.814,0c0.531-1.649,0.898-2.79,1.247-3.874c1.583-0.921,3.551-0.841,4.824-2.801
		c0-3.994,0.034-8.341-0.01-12.687c-0.039-3.811,0.503-7.685-1.374-11.31c-0.351-0.677-0.05-1.692-0.05-2.337
		c0.555-1.009,1.923-0.448,2.117-1.601c0-1.484,0-2.977,0-4.47l-0.028,0.03c0.522-0.044,0.775-0.317,0.724-0.85l-0.053,0.021
		c2.112,0.329,1.658-1.083,1.537-2.268l-0.041,0.018c2.114,0.327,1.663-1.081,1.536-2.271l-0.037,0.04
		c0.595,0.006,0.859-0.252,0.683-0.86l-0.015,0.189l-0.028-0.188c1.2,0.164,0.977-0.676,0.965-1.368l-0.031,0.039
		c0.553-0.072,0.797-0.347,0.6-0.913l-0.001,0.201l-0.03-0.2c1.333,0.112,0.928-0.844,0.946-1.54
		c-0.065-0.228,0.01-0.391,0.226-0.488c1.147,0.012,1.479-0.599,1.251-1.638l-0.044,0.053c0.959-0.034,0.871-0.757,0.914-1.393
		l0.012-0.022c0.478-0.148,0.681-0.481,0.654-0.969C917.541,220.725,918.573,219.007,920.178,217.71z"/>
	<path style="fill:#2C4171;" d="M828.681,322.741c4.203,0,8.034,0,12.036,0c0,18.122,0,36.068,0,54.254
		c-3.916,0.612-7.863,0.078-12.036,0.318C828.681,359.053,828.681,341.014,828.681,322.741z"/>
	<path style="fill:#294983;" d="M990.171,173.244c-3.737,0-7.474,0-11.342,0c-1.168-0.933-2.405-1.921-3.565-2.847
		c2.297-6.47,1.595-12.917,0.829-19.39c-0.247-2.089-0.571-4.338-0.065-6.311c0.981-3.831,0.455-7.652,0.643-11.471
		c0.131-2.664-0.739-5.51,1.735-7.386c-2.956-4.355-2.956-4.355-1.091-6.455c1.133,0.975,1.599,1.574,2.142,2.802
		c0.561,0,1.172,0,1.784,0l-0.031-0.007c0.057,0.504,0.348,0.755,0.846,0.779c1.204,1.612,2.408,3.224,3.613,4.837
		c2.246,4.239,5.343,7.904,8.021,11.851c0.763,1.125,1.649,2.153,1.817,3.568c-3.288,0.316-3.758-3.591-6.396-4.463
		c-0.179,0.509-0.48,0.91-0.386,1.169c0.924,2.571,1.108,5.282,1.65,7.912c1.002,4.861,0.585,9.696,0.344,14.483
		c-0.11,2.191-0.608,4.298,0.229,6.254c-0.519,1.133-1.91,1.112-2.158,2.614C989.047,171.758,990.39,172.07,990.171,173.244z"/>
	<path style="fill:#22325F;" d="M909.226,72.014c-0.096,1.481,0.085,2.768,1.94,3.002c0.957,0.121,1.593,0.615,1.661,1.632
		c-0.841,1.311-1.794-0.673-3.053,0.551c0.051-0.077-0.429,0.317-0.451,0.735c-0.104,1.984-0.099,3.975-0.105,5.963
		c-0.011,3.734-0.183,7.479,0.04,11.2c0.32,5.349-0.705,10.602-0.806,15.913c-3.115-3.649-5.663-7.703-8.349-11.66
		c-4.376-6.448-8.801-12.862-13.167-19.317c-2.702-3.994-1.835-6.553,2.823-8.594c0.75,1.008,1.829,0.534,2.754,0.542
		C898.084,72.029,903.655,72.01,909.226,72.014z"/>
	<path style="fill:#22325F;" d="M906.899,236.915c0,1.493,0,2.986,0,4.47c-0.193,1.153-1.562,0.592-2.117,1.601
		c0,0.644-0.301,1.66,0.05,2.337c1.877,3.625,1.335,7.498,1.374,11.31c0.045,4.346,0.01,8.694,0.01,12.687
		c-1.273,1.96-3.242,1.879-4.824,2.801c-0.349,1.083-0.716,2.225-1.247,3.874c7.472,0,14.643,0,21.814,0
		c6.238-0.108,12.503,0.453,18.696-0.76c-1.316,1.672-3.217,1.74-5.076,1.744c-15.723,0.033-31.447,0.07-47.17,0.016
		c-4.332-0.015-6.178-3.354-3.95-7.169c1.756-3.007,3.776-5.868,5.8-8.708C895.943,253.143,900.926,244.688,906.899,236.915z"/>
	<path style="fill:#294D89;" d="M990.171,173.244c0.219-1.175-1.124-1.486-1.382-2.064c0.248-1.501,1.639-1.481,2.158-2.614
		c-0.837-1.956-0.339-4.062-0.229-6.254c0.241-4.787,0.658-9.622-0.344-14.483c-0.542-2.629-0.727-5.341-1.65-7.912
		c-0.093-0.259,0.207-0.66,0.386-1.169c2.638,0.872,3.108,4.78,6.396,4.463c2.096,1.273,3.017,3.529,4.378,5.389
		c5.655,7.728,10.798,15.823,16.681,23.391c-0.076,0.416-0.151,0.832-0.227,1.248C1007.616,173.242,998.894,173.243,990.171,173.244
		z"/>
	<path style="fill:#54668C;" d="M501.829,322.602c4.134,0,7.981,0,11.816,0c0.861,2.9,1.189,38.425,0.501,54.423
		c-4.008,0-8.044,0-12.317,0C501.829,359.054,501.829,341.022,501.829,322.602z M503.19,323.419c0,17.833,0,35.364,0,52.803
		c3.564,0,6.854,0,10.067,0c0-17.749,0-35.191,0-52.803C509.859,323.419,506.66,323.419,503.19,323.419z"/>
	<path style="fill:#54668C;" d="M117.694,375.012c5.993-0.005,11.987-0.01,17.981-0.015c2.998-0.003,5.996-0.006,8.994-0.01
		c7.745-0.002,15.49-0.005,23.236-0.007c5.245-0.001,10.491-0.002,15.736-0.002c6.462,0.008,12.925-0.011,19.386,0.05
		c1.04,0.01,2.258-0.55,3.113,0.585c-1.241,0.065-2.481,0.185-3.722,0.186c-47.154,0.038-94.308,0.072-141.461,0.057
		c-1.381,0-3.013,0.716-4.146-0.8c0.269-0.021,0.538-0.043,0.807-0.064c11.78,0.013,23.561,0.027,35.341,0.04
		C101.204,375.025,109.449,375.018,117.694,375.012z"/>
	<path style="fill:#294983;" d="M609.418,367.537c-1.18-3.796-0.1-7.103,2.185-10.11c0.129-1.388-1.783-1.872-1.334-3.544
		c0.464-1.054,2.079-0.934,2.772-2.039c0-0.581,0-1.193,0-1.683c-0.716-1.076-2.076-0.244-2.721-1.19
		c0.077-2.268,0.077-2.268,1.977-3.879c-0.002-0.858-0.002-1.717-0.002-2.667c-0.995-0.552-2.037-0.987-2.908-1.649
		c-1.066-0.81-0.825-1.93-0.5-2.962c1.794-0.471,0.784,1.688,1.936,1.732c0.185-0.092,0.546-0.168,0.569-0.301
		c0.144-0.847,0.214-1.707,0.309-2.562c2.994,5.541,3.181,11.55,2.605,17.575C613.847,359.049,612.583,363.677,609.418,367.537z"/>
	<path style="fill:#294983;" d="M577.486,376.588c1.094-0.135,2.267,0.111,3.045-0.697c1.318,0.034,1.503,1.609,2.986,1.433
		c2.451-0.291,5.008,0.221,7.434-0.158c2.618-0.409,5.099-1.54,7.187-3.302c0.737-0.621,0.898-1.403,0.485-2.5
		c-1.513,0.161-3.492,1.718-4.226-1.652c1.965,1.529,4.197-1.184,5.952,1.352c0.408,0.589,1.638,0.098,2.498-0.758
		c1.758-1.752,3.966-2.86,6.584-2.779c-2.443,4.828-7.024,6.976-11.589,9.034c-1.767,0.796-3.681,1.505-5.726,1.413
		c-3.224,0-6.449,0-9.673,0.001C580.634,378.073,578.988,377.586,577.486,376.588z"/>
	<path style="fill:#24305A;" d="M221.13,75.01l-0.369-0.011l-0.369,0.018c-29.788-0.005-59.576-0.009-89.364-0.021
		c-1.493-0.001-2.987-0.072-4.48-0.111c0.955-1.553,2.49-0.783,3.72-0.789c14.854-0.068,29.709-0.049,44.563-0.051
		c14.23-0.002,28.461-0.026,42.691,0.037C218.727,74.087,220.306,73.273,221.13,75.01z"/>
	<path style="fill:#294983;" d="M606.546,329.106c-1.225-0.142-2.135,1.405-3.481,0.66c-0.889-0.829,0.608-1.557,0.071-2.38
		c-1.773-1.425-3.456,1.228-5.528-0.086c-0.674-0.614,0.165-1.917-0.472-2.878c-4.593-2.151-9.299-2.561-14.255-1.276
		c-1.619,0.42-3.443,0.047-5.174,0.036c10.386-3.667,19.832-1.897,28.384,4.943C606.344,328.327,606.399,328.774,606.546,329.106z"
		/>
	<path style="fill:#24305A;" d="M1011.92,377.132c0.579-0.991,1.545-0.588,2.363-0.619c1.339-0.051,2.682-0.014,4.362-0.014
		c0-1.704,0-3.048,0-4.392c0-15.114-0.016-30.228,0.03-45.342c0.004-1.163-0.621-2.51,0.58-3.503
		c0.05,9.119,0.118,18.239,0.144,27.358c0.025,8.732,0.005,17.465,0.005,26.512C1016.81,377.132,1014.365,377.132,1011.92,377.132z"
		/>
	<path style="fill:#24305A;" d="M909.226,72.014c-5.571-0.004-11.142,0.015-16.713-0.032c-0.924-0.008-2.004,0.465-2.754-0.542
		c0.617-0.065,1.233-0.187,1.85-0.187c17.359-0.002,34.718,0.006,52.077,0.027c0.74,0.001,1.48,0.142,2.22,0.218
		c-2.197,1.101-4.535,0.278-6.8,0.48c-1.457,0.13-2.934,0.03-4.403,0.033C926.211,72.011,917.718,72.012,909.226,72.014z"/>
	<path style="fill:#2C4171;" d="M118.429,309c0.001-0.27,0.001-0.54,0.002-0.81c7.176-0.053,14.351-0.142,21.527-0.145
		c5.072-0.002,10.143,0.112,15.215,0.174c-1.831,1.614-4.03,0.374-6.017,0.778c-7.244,0.002-14.487,0.004-21.731,0.006
		C124.426,309.001,121.427,309.001,118.429,309z"/>
	<path style="fill:#294983;" d="M565.116,367.543c3.095,0.89,3.095,0.89,4.17,3.424c0.856,0.617,1.942-0.003,2.859,0.47
		c0.784,0.495,0.159,1.075,0.07,1.671c0.671,0.603,2.434,0.312,1.814,2.067C570.023,373.842,567.164,371.166,565.116,367.543z"/>
	<path style="fill:#22325F;" d="M256.798,352.739c3.592,3.122,6.613,6.511,5.507,11.824
		C260.074,360.805,258.244,356.862,256.798,352.739z"/>
	<path style="fill:#294983;" d="M610.942,335.208c-1.998-0.886-3.996-1.773-6.114-2.712c0.676-1.293,2.749-0.877,2.448-2.62
		C609.013,331.299,610.355,332.994,610.942,335.208z"/>
	<path style="fill:#294983;" d="M254.954,147.669c-1.616,0.354-2.603-1.296-2.739-1.94c-0.552-2.608-2.543-4.907-1.815-7.788
		C251.876,141.203,253.857,144.229,254.954,147.669z"/>
	<path style="fill:#294D89;" d="M12.597,284.864c0.061,1.075,0.122,2.149,0.194,3.413c-1.7,0.667-1.845,3.036-3.887,3.409
		C9.657,289.152,10.998,286.938,12.597,284.864z"/>
	<path style="fill:#294D89;" d="M16.396,277.97c-0.039,0.996,0.534,1.832,0.823,2.582c-0.902,1.694-2.321,2.352-3.821,2.901
		C14.084,281.454,14.96,279.558,16.396,277.97z"/>
	<path style="fill:#27447B;" d="M41.152,232.402c-0.293,3.39-1.726,5.915-3.9,6.869C38.197,236.78,39.187,234.314,41.152,232.402z"
		/>
	<path style="fill:#54668C;" d="M4.37,299.878c0.295,2.471-1.266,3.934-2.904,5.355C2.127,303.282,2.866,301.372,4.37,299.878z"/>
	<path style="fill:#22325F;" d="M909.056,111.879c2.454,0.146,2.382,1.938,2.391,3.676
		C910.227,114.605,909.618,113.258,909.056,111.879z"/>
	<path style="fill:#54668C;" d="M18.64,329.328c0.609,0,1.218,0,1.747,0c0.879,0.923,0.49,1.966,0.616,2.911
		C19.901,331.524,19.07,330.589,18.64,329.328z"/>
	<path style="fill:#27447B;" d="M42.118,230.263c0.655,0.484,1.593,0.605,2.007,1.647c-0.852,1.003-2.003,0.451-3.015,0.516
		C41.083,231.536,41.686,230.939,42.118,230.263z"/>
	<path style="fill:#22325F;" d="M335.735,321.005c-0.589-0.039-1.179-0.078-1.796-0.119c-0.392-1.098-0.928-2.102,0.363-2.891
		C335.16,318.818,335.458,319.906,335.735,321.005z"/>
	<path style="fill:#22325F;" d="M339.514,329.253c-2.013-0.752-2.387-1.569-1.392-3.041
		C338.899,327.082,339.43,328.065,339.514,329.253z"/>
	<path style="fill:#54668C;" d="M3.68,311.295c2.087-0.072,2.379,1.294,2.343,2.925C4.923,313.5,4.054,312.596,3.68,311.295z"/>
	<path style="fill:#233768;" d="M933.749,147.915c1.263-0.321,2.033,0.173,2.362,1.373c-0.203,0.579-0.655,0.669-1.134,0.714
		C934.424,149.391,933.763,148.843,933.749,147.915z"/>
	<path style="fill:#27447B;" d="M269.229,178.403c-0.942,0.133-1.635-0.071-1.629-1.213c0.005-0.82,0.01-1.64,0.016-2.46
		C268.488,175.808,269.08,177.008,269.229,178.403z"/>
	<path style="fill:#294983;" d="M174.631,176.263c2.369,0.116,1.271,1.891,1.458,3.051
		C175.192,178.493,174.676,177.491,174.631,176.263z"/>
	<path style="fill:#264075;" d="M285.603,213.762c-2.552-0.236-1.164-2.149-1.427-3.359
		C284.972,211.387,285.67,212.412,285.603,213.762z"/>
	<path style="fill:#294983;" d="M574.027,375.128c1.421-0.303,2.626-0.14,3.167,1.463
		C575.96,376.492,574.802,376.225,574.027,375.128z"/>
	<path style="fill:#54668C;" d="M11.831,321.152c1.875-0.402,1.614,0.965,1.695,2.049C12.655,322.771,12.051,322.121,11.831,321.152
		z"/>
	<path style="fill:#2C4171;" d="M330.541,311.252c-1.152-0.57-0.656-1.534-0.573-2.4c0.783,0.606,1.081,1.468,1.26,2.393
		C330.998,311.245,330.769,311.247,330.541,311.252z"/>
	<path style="fill:#22325F;" d="M910.574,231.595c0.128,1.19,0.578,2.599-1.536,2.271
		C909.093,232.799,909.739,232.133,910.574,231.595z"/>
	<path style="fill:#2C4171;" d="M329.03,306.742c-0.994-0.36-1.511-1.06-1.513-2.127
		C328.562,304.939,329.066,305.648,329.03,306.742z"/>
	<path style="fill:#22325F;" d="M909.08,233.848c0.12,1.185,0.574,2.597-1.537,2.268C907.51,234.991,908.254,234.391,909.08,233.848
		z"/>
	<path style="fill:#54668C;" d="M14.93,324.789c1.198-0.101,1.673,0.435,1.418,1.613C15.492,326.202,15.052,325.635,14.93,324.789z"
		/>
	<path style="fill:#54668C;" d="M16.33,326.374c1.281,0.155,1.684,0.983,1.646,2.149C17.161,328.012,16.54,327.35,16.33,326.374z"/>
	<path style="fill:#54668C;" d="M7.428,315.795c1.225-0.077,1.74,0.418,1.333,1.656C7.975,317.174,7.511,316.638,7.428,315.795z"/>
	<path style="fill:#24305A;" d="M330.541,311.252c0.229-0.005,0.458-0.007,0.687-0.006c0.47,0.396,0.806,0.853,0.699,1.515
		C330.869,312.805,330.491,312.225,330.541,311.252z"/>
	<path style="fill:#223565;" d="M99.61,124.268c-0.001,1.064,0.587,2.445-1.329,2.483C98.48,125.792,98.788,124.893,99.61,124.268z"
		/>
	<path style="fill:#54668C;" d="M24.784,336.726c1.098-0.018,1.539,0.546,1.422,1.606C25.507,337.996,24.978,337.51,24.784,336.726z
		"/>
	<path style="fill:#54668C;" d="M2.282,309.719c1.096-0.023,1.563,0.514,1.418,1.596C2.956,311.024,2.52,310.46,2.282,309.719z"/>
	<path style="fill:#54668C;" d="M13.539,323.219c1.072-0.005,1.548,0.519,1.412,1.589C14.243,324.489,13.753,323.976,13.539,323.219
		z"/>
	<path style="fill:#24305A;" d="M333.59,316.439c-0.323,0.576-0.642,0.643-0.767-0.083c-0.079-0.461,0.014-0.951,0.03-1.429
		C333.48,315.245,333.601,315.81,333.59,316.439z"/>
	<path style="fill:#223565;" d="M102.607,119.016c0.177,1.046-0.066,1.772-1.316,1.734
		C101.348,119.881,102.001,119.467,102.607,119.016z"/>
	<path style="fill:#54668C;" d="M9.754,318.737c1.132-0.047,1.59,0.498,1.412,1.605C10.396,320.071,10.004,319.466,9.754,318.737z"
		/>
	<path style="fill:#22325F;" d="M942.177,273.704c-0.025-0.885,0.268-1.488,1.284-1.451
		C943.297,272.97,942.807,273.399,942.177,273.704z"/>
	<path style="fill:#22325F;" d="M915.104,224.868c0.228,1.039-0.104,1.65-1.251,1.638
		C913.982,225.741,914.453,225.236,915.104,224.868z"/>
	<path style="fill:#294983;" d="M250.423,137.969c-0.979-0.225-0.788-0.98-0.752-1.665
		C250.344,136.668,250.426,137.299,250.423,137.969z"/>
	<path style="fill:#54668C;" d="M5.164,298.409c0.074,0.688,0.177,1.393-0.819,1.495C4.377,299.274,4.467,298.675,5.164,298.409z"/>
	<path style="fill:#294D89;" d="M13.426,283.421c0.033,0.678,0.202,1.438-0.866,1.464C12.603,284.252,12.784,283.7,13.426,283.421z"
		/>
	<path style="fill:#24305A;" d="M332.881,314.971c-0.973-0.21-0.8-0.959-0.772-1.64
		C332.819,313.664,332.875,314.306,332.881,314.971z"/>
	<path style="fill:#294983;" d="M611.728,336.704c-0.937-0.143-0.818-0.846-0.795-1.499
		C611.611,335.486,611.701,336.078,611.728,336.704z"/>
	<path style="fill:#22325F;" d="M336.678,323.195c-1.071-0.197-0.83-1-0.788-1.711C336.541,321.875,336.655,322.514,336.678,323.195
		z"/>
	<path style="fill:#223565;" d="M101.14,121.359c0.03,0.693,0.169,1.443-0.832,1.598
		C100.466,122.363,100.313,121.606,101.14,121.359z"/>
	<path style="fill:#294D89;" d="M8.93,291.674c0.043,0.673,0.18,1.398-0.817,1.505C8.173,292.563,8.232,291.945,8.93,291.674z"/>
	<path style="fill:#22325F;" d="M337.453,324.704c-1.005-0.138-0.884-0.864-0.817-1.563
		C337.28,323.468,337.413,324.062,337.453,324.704z"/>
	<path style="fill:#2C4171;" d="M329.993,308.874c-1.236-0.144-0.84-1.022-0.784-1.747
		C329.837,307.544,329.909,308.211,329.993,308.874z"/>
	<path style="fill:#294983;" d="M564.193,366.069c1.023,0.043,0.961,0.771,0.931,1.478
		C564.399,367.316,564.34,366.666,564.193,366.069z"/>
	<path style="fill:#54668C;" d="M5.948,296.939c0.056,0.677,0.114,1.355-0.809,1.504C5.186,297.822,5.262,297.216,5.948,296.939z"/>
	<path style="fill:#22325F;" d="M912.143,229.408c0.012,0.692,0.234,1.532-0.965,1.368
		C911.236,230.134,911.502,229.639,912.143,229.408z"/>
	<path style="fill:#22325F;" d="M915.974,223.529c-0.044,0.636,0.045,1.359-0.914,1.393
		C915.092,224.279,915.417,223.827,915.974,223.529z"/>
	<path style="fill:#54668C;" d="M8.774,317.458c1.052-0.129,0.938,0.638,0.984,1.282C9.076,318.584,8.859,318.071,8.774,317.458z"/>
	<path style="fill:#22325F;" d="M913.626,226.994c-0.018,0.696,0.388,1.653-0.946,1.54
		C912.764,227.879,913.013,227.325,913.626,226.994z"/>
	<path style="fill:#294983;" d="M173.95,174.75c0.754,0.268,0.681,0.909,0.683,1.516C174.045,175.924,173.898,175.382,173.95,174.75
		z"/>
	<path style="fill:#27447B;" d="M267.616,174.729c-0.495-0.087-0.717-0.399-0.728-0.884
		C267.315,173.988,267.598,174.249,267.616,174.729z"/>
	<path style="fill:#264075;" d="M284.033,210.001c-0.455-0.137-0.655-0.455-0.647-0.919
		C283.817,209.237,284.068,209.519,284.033,210.001z"/>
	<path style="fill:#22325F;" d="M916.64,222.538c0.027,0.488-0.176,0.821-0.654,0.969
		C915.979,223.032,916.209,222.717,916.64,222.538z"/>
	<path style="fill:#263E71;" d="M296.118,236.263c-0.544-0.156-0.75-0.531-0.699-1.074
		C295.871,235.404,296.243,235.672,296.118,236.263z"/>
	<path style="fill:#22325F;" d="M941.462,274.523c0.056-0.415,0.288-0.674,0.689-0.785
		C942.124,274.179,941.876,274.424,941.462,274.523z"/>
	<path style="fill:#233768;" d="M959.552,249.913c-0.041-0.548,0.232-0.823,0.76-0.876
		C960.231,249.479,960.043,249.828,959.552,249.913z"/>
	<path style="fill:#54668C;" d="M17.967,328.508c0.461,0.09,0.709,0.358,0.704,0.839C18.201,329.266,17.979,328.975,17.967,328.508z
		"/>
	<path style="fill:#24305A;" d="M126.563,74.86c0.069,0.457-0.124,0.748-0.56,0.885C125.933,75.288,126.096,74.978,126.563,74.86z"
		/>
	<path style="fill:#22325F;" d="M911.22,230.775c0.176,0.608-0.088,0.866-0.683,0.86
		C910.571,231.194,910.772,230.886,911.22,230.775z"/>
	<path style="fill:#294983;" d="M607.282,329.89c-0.55,0.026-0.805-0.24-0.778-0.786C606.981,329.15,607.244,329.409,607.282,329.89
		z"/>
	<path style="fill:#263E71;" d="M960.156,89.248c-0.449-0.113-0.666-0.393-0.624-0.862C960.04,88.457,960.13,88.829,960.156,89.248z
		"/>
	<path style="fill:#22325F;" d="M256.362,351.746c0.492,0.157,0.696,0.458,0.483,0.968
		C256.378,352.544,256.372,352.144,256.362,351.746z"/>
	<path style="fill:#54668C;" d="M11.147,320.315c0.516,0.042,0.768,0.309,0.709,0.839C11.396,321.063,11.195,320.753,11.147,320.315
		z"/>
	<path style="fill:#22325F;" d="M908.453,111.012c0.482,0.1,0.706,0.389,0.649,0.885
		C908.615,111.801,908.466,111.457,908.453,111.012z"/>
	<path style="fill:#22325F;" d="M940.687,275.214c0.103-0.409,0.362-0.645,0.782-0.7
		C941.415,274.979,941.143,275.199,940.687,275.214z"/>
	<path style="fill:#294D89;" d="M240.539,116.998c-0.529-0.169-0.753-0.382-0.106-0.724
		C240.468,116.515,240.504,116.757,240.539,116.998z"/>
	<path style="fill:#223565;" d="M103.916,116.78c0.218,0.572-0.031,0.841-0.589,0.911
		C103.408,117.313,103.464,116.918,103.916,116.78z"/>
	<path style="fill:#22325F;" d="M912.712,228.533c0.198,0.566-0.047,0.841-0.6,0.913
		C912.148,229.035,912.247,228.664,912.712,228.533z"/>
	<path style="fill:#54668C;" d="M21.001,332.236c0.438,0.082,0.685,0.341,0.73,0.788C21.303,332.932,21.032,332.695,21.001,332.236z
		"/>
	<path style="fill:#22325F;" d="M907.595,236.095c0.051,0.533-0.202,0.806-0.724,0.85
		C906.97,236.541,907.125,236.183,907.595,236.095z"/>
	<path style="fill:#263E71;" d="M295.397,234.762c-0.588-0.157-0.965-0.351-0.133-0.758c0.068,0.162,0.153,0.319,0.196,0.487
		C295.48,234.571,295.421,234.671,295.397,234.762z"/>
	<path style="fill:#223565;" d="M103.372,117.644c0.017,0.438-0.179,0.724-0.604,0.846
		C102.694,118.011,102.921,117.748,103.372,117.644z"/>
	<path style="fill:#294D89;" d="M241.262,118.495c-0.431-0.142-0.615-0.452-0.605-0.893
		C241.059,117.764,241.383,117.979,241.262,118.495z"/>
	<path style="fill:#54668C;" d="M21.714,333.006c0.493,0.089,0.733,0.382,0.718,0.884C21.983,333.766,21.783,333.439,21.714,333.006
		z"/>
	<path style="fill:#27447B;" d="M982.055,122.958c-0.498-0.025-0.789-0.275-0.846-0.779
		C981.643,122.273,981.963,122.492,982.055,122.958z"/>
	<path style="fill:#54668C;" d="M23.005,334.612c0.567-0.032,0.868,0.211,0.83,0.805C23.387,335.326,23.115,335.053,23.005,334.612z
		"/>
	<path style="fill:#294D89;" d="M8.156,293.132c0.04,0.456-0.167,0.741-0.601,0.869C7.514,293.544,7.674,293.226,8.156,293.132z"/>
	<path style="fill:#54668C;" d="M23.816,335.4c0.67-0.004,0.853,0.365,0.736,0.963C24.144,336.166,23.884,335.857,23.816,335.4z"/>
	<path style="fill:#54668C;" d="M6.728,315.004c0.474,0.064,0.723,0.328,0.724,0.813C7.043,315.695,6.78,315.443,6.728,315.004z"/>
	<path style="fill:#54668C;" d="M6.029,314.228c0.436,0.084,0.675,0.348,0.713,0.791C6.302,314.938,6.062,314.677,6.029,314.228z"/>
	<path style="fill:#263E71;" d="M994.67,202.499c0.505-1.447-1.227-2.669-0.522-4.143c1.44-0.64,1.419,1.851,2.779,1.154
		C996.27,200.579,996.085,202.004,994.67,202.499z"/>
	<path style="fill:#263E71;" d="M987.909,211.495c-0.885-1.356-0.545-1.846,1.541-2.221
		C989.433,210.36,988.992,211.15,987.909,211.495z"/>
	<path style="fill:#263E71;" d="M993.145,204.689c0.039-1.054-0.212-2.311,1.521-2.184
		C994.684,203.599,994.251,204.379,993.145,204.689z"/>
	<path style="fill:#263E71;" d="M989.443,209.277c-0.019-1.123-0.306-2.433,1.564-2.231
		C990.947,208.114,990.489,208.902,989.443,209.277z"/>
	<path style="fill:#22325F;" d="M273.452,365.008c0.31,1.366,0.225,2.661-1.203,3.118c-1.804,0.577-3.005-0.431-3.84-2.054
		c0.326-1.124,1.165-1.769,2.105-2.268C271.794,363.635,272.588,364.447,273.452,365.008z"/>
	<path style="fill:#22325F;" d="M333.063,332.973c-1.618-0.526-1.929-1.392-1.616-2.441c0.575-0.625,1.072-0.456,1.584-0.396
		C333.79,330.984,333.706,331.877,333.063,332.973z"/>
	<path style="fill:#22325F;" d="M335.794,331.893c-0.855-1.516-1.032-2.403,0.018-3.425
		C336.819,329.547,336.684,330.414,335.794,331.893z"/>
	<path style="fill:#263E71;" d="M95.049,139.557c1.488,0.756,0.658,1.382,0.37,2.512C94.431,141.08,94.155,140.485,95.049,139.557z"
		/>
	<path style="fill:#263E71;" d="M93.064,143.203c-0.038-0.211,0.212-0.444,0.569-0.49c0.175-0.023,0.464,0.129,0.552,0.286
		c0.188,0.337,0.037,0.713-0.287,0.84C93.572,143.966,93.241,143.799,93.064,143.203z"/>
	<path style="fill:#263E71;" d="M982.892,208.914c-0.235-0.896-0.369-1.609,0.066-2.275c0.234-0.113,0.446-0.305,0.656-0.304
		c2.016,0.016,0.959,1.497,1.29,2.202C984.272,209.299,983.713,209.294,982.892,208.914z"/>
	<path style="fill:#22325F;" d="M92.959,375.031c-11.78-0.013-23.561-0.027-35.341-0.04c4.413-8.252,8.814-16.511,13.244-24.754
		c1.448-2.695,3.374-5.147,4.112-8.198c1.076-0.659,1.934-1.4,2.263-2.771c0.495-2.065,1.752-3.795,2.954-5.521
		c1.15,0.256,2.138-0.434,3.411-0.629c0.54,2.599,2.039,5.041,0.404,7.577c1.397,2.346,4.935,0.133,5.828,4.059
		c-0.2,2.791,1.426,6.338,0.793,10.118c1.847,1.938,3.581,3.882,4.323,6.251C94.256,365.844,94.436,370.565,92.959,375.031z"/>
	<path style="fill:#294D89;" d="M186.658,137.256c1.142,1.869,0.908,2.333-1.513,2.996
		C185.245,139.049,185.596,137.973,186.658,137.256z"/>
	<path style="fill:#294D89;" d="M184.362,141.74c0.528,0.181,0.845,0.56,0.573,1.075c-0.251,0.475-0.825,0.412-1.307,0.426
		C183.645,142.628,183.598,141.986,184.362,141.74z"/>
	<path style="fill:#27447B;" d="M127.425,309.002c7.244-0.002,14.487-0.004,21.731-0.006c-0.958,4.411,1.534,8.055,2.581,12.036
		c0.795,3.025,3.142,5.736,1.678,8.966c1.212,1.302,2.141,2.299,3.201,3.438c-0.211,2.451,0.334,4.756,2.108,6.761
		c0.908,1.026,1.13,2.464,0.933,3.883c-0.485,3.504,0.632,6.351,3.453,8.525c0.382,0.295,0.647,0.742,1.087,1.262
		c-0.4,4.257,0.303,8.516,0.96,12.638c0.501,0.64,1.011,0.918,1.669,1.024c0.463,0.075,0.896,0.334,1.36,0.519
		c1.054,2.428,0.316,4.678-0.281,6.932c-7.745,0.002-15.49,0.005-23.236,0.007c0.033-0.609,0.067-1.218,0.086-1.571
		c0.537-0.986,2.068-0.233,1.954-1.741c-4.472-2.38-3.577-6.375-2.734-10.393c-1.809-0.806-2.901-2.197-2.995-4.01
		c-0.096-1.864-0.663-3.688-0.692-5.466c-0.048-2.965-1.167-4.954-3.602-6.158c-0.367-1.76-0.69-3.317-1.016-4.874
		c-0.719-3.435-0.322-7.199-3.001-10.061c-0.325-0.347-0.612-0.867-0.645-1.327c-0.275-3.848-2.593-7.167-2.867-10.981
		c-0.184-2.558-1.132-4.773-2.379-6.878C126.747,310.583,127.636,309.933,127.425,309.002z"/>
	<path style="fill:#294983;" d="M595.805,365.161c7.115-7.816,8.051-18.359,2.464-27.628c-0.123-0.203-0.146-0.467-0.216-0.702
		c0.996-0.205,1.817,0.175,2.149,1.068c0.429,1.155,1.398,1.68,2.341,2.378c0.361,2.898-0.453,5.971,1.291,9.053
		c0.258-1.755,1.086-2.519,2.695-1.908c2.173,4.674,2.054,5.914-0.879,8.705c-0.698-0.07-1.093-0.549-1.369-1.116
		c-0.255-0.523-0.04-1.268-1.028-1.691c-1.13,2.109-0.844,4.184,0.251,6.13c0.782,1.39,1.851,2.626,2.858,3.878
		c0.579,0.72,1.071,1.382,0.347,2.553c-1.653,0.17-3.08-0.678-4.312-1.299c-0.956-1.517,0.954-1.428,0.858-1.903
		c-0.069-1.158-0.582-1.499-1.332-1.916c-1.745,0.887-2.93,2.338-3.412,4.397C597.525,365.161,596.665,365.161,595.805,365.161z"/>
	<path style="fill:#294983;" d="M575.729,362.165c2.594,2.734,5.304,5.127,9.338,5.658c1.384,0.182,2.489,0.423,3.861-0.156
		c1.441-0.608,3.094-0.714,4.654-1.039c-0.158,1.105-1.061,1.587-1.807,2.192c-3.977,0.694-7.934-0.326-12.171-0.185
		c-0.336-0.205-0.051-0.973-0.564-1.64c-0.807-0.645-2.25,1.411-3.158-0.793C576.359,365.114,575.914,363.647,575.729,362.165z"/>
	<path style="fill:#294983;" d="M596.596,335.317c-3.817-2.748-8.131-3.429-12.698-3.063c1.049-2.372,2.079-2.929,4.413-1.869
		c1.722,0.782,3.379,1.436,5.396,0.976C594.309,333.041,596.895,333.029,596.596,335.317z"/>
	<path style="fill:#294983;" d="M572.744,345.03c0.001,4.23-0.377,8.484,0.804,12.638c-0.535-0.03-1.15-0.273-1.198-0.727
		c-0.29-2.755-1.641-5.496-0.684-8.25C572.088,347.477,571.073,345.83,572.744,345.03z"/>
	<path style="fill:#294983;" d="M592.181,326.761c1.74-0.956,2.851-0.554,3.815,1.146
		C593.985,328.253,593.985,328.253,592.181,326.761z"/>
	<path style="fill:#294983;" d="M605.263,338.797c-0.488-0.91-0.625-1.786,0.143-2.608c0.905-0.023,1.377,0.441,1.621,1.264
		C606.825,338.353,606.362,338.953,605.263,338.797z"/>
	<path style="fill:#294983;" d="M597.048,331.349c-0.498-0.842-0.456-1.394,0.041-1.898c1.145-0.195,1.366,0.653,1.742,1.183
		C598.394,331.696,597.754,331.444,597.048,331.349z"/>
	<path style="fill:#294983;" d="M583.439,332.337c-1.229,0.78-2.524,1.385-4.002,1.499
		C580.135,331.637,581.918,332.337,583.439,332.337z"/>
	<path style="fill:#294983;" d="M602.12,333.636c-1.01-0.05-1.52-0.582-1.588-1.58C602.094,332.06,602.094,332.06,602.12,333.636z"
		/>
	<path style="fill:#294983;" d="M575.916,337.583c-0.432,1.069-0.789,2.182-1.708,2.97
		C574.434,339.366,573.273,337.38,575.916,337.583z"/>
	<path style="fill:#294983;" d="M602.849,367.402c-1.029,0.992-1.652,0.986-2.356,0.29
		C600.957,366.312,601.687,366.76,602.849,367.402z"/>
	<path style="fill:#294983;" d="M593.551,366.663c0.51-0.881,1.139-1.585,2.276-1.532
		C595.58,366.403,594.778,366.85,593.551,366.663z"/>
	<path style="fill:#294983;" d="M573.615,342.108c-0.156,1.03,0.055,2.172-0.902,2.957
		C572.966,344.065,571.832,342.641,573.615,342.108z"/>
	<path style="fill:#294983;" d="M573.513,357.656c0.728,0.325,0.647,0.992,0.681,1.611
		C573.324,359.002,573.406,358.334,573.513,357.656z"/>
	<path style="fill:#294983;" d="M574.227,340.533c-0.039,0.611,0.076,1.286-0.661,1.61
		C573.418,341.455,573.267,340.765,574.227,340.533z"/>
	<path style="fill:#294983;" d="M577.96,335.289c-0.082,0.434-0.352,0.686-0.769,0.797
		C577.235,335.615,577.482,335.341,577.96,335.289z"/>
	<path style="fill:#294983;" d="M597.358,336.055c-0.424-0.085-0.702-0.319-0.774-0.762
		C597.054,335.331,597.313,335.584,597.358,336.055z"/>
	<path style="fill:#294983;" d="M574.273,359.582c0.472,0.249,0.668,0.629,0.546,1.159
		C574.295,360.516,574.196,360.09,574.273,359.582z"/>
	<path style="fill:#294983;" d="M574.952,361.373c0.416,0.129,0.758,0.33,0.801,0.823
		C575.24,362.161,574.986,361.874,574.952,361.373z"/>
	<path style="fill:#294983;" d="M578.869,334.573c-0.145,0.448-0.463,0.678-0.921,0.728
		C578.029,334.772,578.355,334.553,578.869,334.573z"/>
	<path style="fill:#294983;" d="M598.082,336.841c-0.468-0.061-0.687-0.354-0.74-0.8
		C597.825,336.089,598.074,336.354,598.082,336.841z"/>
	<path style="fill:#264075;" d="M127.425,309.002c0.211,0.931-0.677,1.581-0.647,2.525c1.246,2.105,2.194,4.32,2.379,6.878
		c0.275,3.815,2.593,7.133,2.867,10.981c0.033,0.459,0.32,0.98,0.645,1.327c2.679,2.862,2.283,6.626,3.001,10.061
		c0.326,1.557,0.649,3.114,1.016,4.874c2.435,1.204,3.553,3.193,3.602,6.158c0.029,1.778,0.596,3.602,0.692,5.466
		c0.093,1.814,1.186,3.204,2.995,4.01c-0.843,4.018-1.738,8.013,2.734,10.393c0.115,1.508-1.417,0.755-1.954,1.741
		c-0.019,0.353-0.053,0.962-0.086,1.571c-2.998,0.003-5.996,0.006-8.994,0.01c0-1.103,0-2.206,0-3.292
		c-2.218-1.07-4.595,0.242-6.871-1.091c1.333-1.453,3.07-0.374,4.411-1.333c1.079-5.826-1.367-10.63-5.037-15.239
		c-0.013-2.768-0.212-5.54-1.402-8.412c-1.16-2.797-2.3-5.822-2.388-9.047c-0.067-2.444-2.19-3.763-3.559-5.432
		c-0.494-2.626-0.108-5.229-0.382-7.823c-0.387-3.669-2.168-6.693-3.584-9.898c-0.579-1.311-0.888-2.539-0.506-3.915
		c0.559-0.741,1.366-0.423,2.072-0.515C121.427,309.001,124.426,309.001,127.425,309.002z"/>
	<path style="fill:#2A508E;" d="M503.19,323.419c3.47,0,6.668,0,10.067,0c0,17.612,0,35.054,0,52.803c-3.213,0-6.502,0-10.067,0
		C503.19,358.783,503.19,341.252,503.19,323.419z"/>
</g>
</svg>
