<?xml version="1.0" encoding="iso-8859-1"?>
<!-- Generator: Adobe Illustrator 27.0.0, SVG Export Plug-In . SVG Version: 6.00 Build 0)  -->
<svg version="1.1" id="Layer_1" xmlns="http://www.w3.org/2000/svg" xmlns:xlink="http://www.w3.org/1999/xlink" x="0px" y="0px"
	 viewBox="0 0 1483 484" style="enable-background:new 0 0 1483 484;" xml:space="preserve">
<g>
	<path style="fill:#13426B;" d="M896,0c3.401,1.832,7.257,1.214,10.868,1.974c4.396,0.926,8.783,1.802,12.937,3.541
		c13.048,5.463,21.052,15.299,22.865,29.176c3.409,26.101-1.684,50.558-15.982,72.921c-6.816,10.66-16.431,17.704-28.009,22.287
		c-3.848,1.523-7.812,2.759-11.745,4.061c-0.948,0.314-1.965,0.401-2.673,1.495c5.736,3.273,11.493,6.483,16.694,10.59
		c10.199,8.053,15.45,18.345,15.279,31.501c-0.164,12.65-3.583,24.598-7.092,36.556c-3.955,13.477-9.304,26.291-18.061,37.466
		c-10.795,13.776-25.21,21.241-42.156,24.413c-9.538,1.785-19.169,2.014-28.821,2.016c-54.483,0.01-108.965,0.005-163.448,0.005
		c-1.155,0-2.31,0-3.461,0c-0.18-1.803,1.095-2.588,1.843-3.613c13.488-18.464,22.431-39.084,29.015-60.843
		c5.345-17.665,9.091-35.714,12.8-53.76c4.18-20.34,8.882-40.518,14.874-60.422c7.373-24.49,12.646-49.527,18.305-74.455
		c1.066-4.696,2.11-9.397,3.163-14.095C734.254,6.095,736.394,2.157,741,0c12.667,0,25.333,0,38,0
		c0.655,1.44,1.965,0.983,3.053,0.984c35.975,0.018,71.95,0.019,107.925,0C891.054,0.983,892.378,1.5,893,0C894,0,895,0,896,0z
		 M746.184,225.797c1.776,2.197,3.964,2.086,6.144,2.072c5.329-0.032,10.658-0.044,15.987-0.045
		c17.488-0.005,34.975-0.015,52.463,0.002c13.308,0.013,18.84-5.124,22.263-15.81c2.582-8.062,5.104-16.141,6.879-24.414
		c1.322-6.16,2.781-12.34,2.411-18.736c-0.313-5.406-2.879-8.531-8.153-9.936c-3.414-0.909-6.904-0.928-10.399-0.935
		c-21.15-0.037-42.3-0.08-63.45-0.122c-6.731-0.013-8.565,1.295-10.061,7.814c-4.157,18.116-9.03,36.051-13.656,54.047
		C746.108,221.697,745.63,223.593,746.184,225.797z M773.815,111.535c0.853,0.918,1.717,0.79,2.527,0.791
		c18.804,0.008,37.608,0.105,56.41-0.042c7.457-0.058,14.951-0.039,22.262-2.116c6.839-1.943,11.703-5.998,14.588-12.494
		c1.898-4.275,2.997-8.77,3.881-13.332c1.453-7.5,2.899-14.998,2.652-22.703c-0.227-7.063-2.828-10.001-9.73-10.787
		c-2.305-0.263-4.618-0.633-6.929-0.645c-20.964-0.108-41.929-0.17-62.893-0.193c-6.314-0.007-8.158,1.484-9.718,7.712
		c-3.666,14.635-7.311,29.277-10.898,43.932C775.153,104.985,773.769,108.219,773.815,111.535z"/>
	<path style="fill:#13426B;" d="M360.05,0.972c3.419,1.372,2.3,4.207,1.631,6.372c-3.244,10.487-5.395,21.239-8.039,31.869
		c-13.903,55.911-27.795,111.826-41.65,167.749c-5.072,20.473-10.027,40.975-15.048,61.46c-0.316,1.289-0.658,2.587-1.148,3.817
		c-1.507,3.786-4.243,5.814-8.428,5.77c-6.997-0.073-13.995-0.128-20.992-0.125c-8.665,0.004-17.329,0.058-25.994,0.127
		c-2.382,0.019-4.716,0.049-6.227-2.49c-0.543-2.188-0.212-4.457,0.37-6.745c5.076-19.952,10.136-39.907,15.172-59.869
		c0.526-2.086,1.007-4.217,0.292-6.288c-1.838-2.278-4.31-1.724-6.566-1.723c-16.83,0.003-33.661,0.089-50.491,0.096
		c-11.998,0.004-23.997,0.027-35.992-0.165c-4.96-0.079-8.606,1.781-11.455,5.763c-14.042,19.623-28.142,39.205-42.219,58.804
		c-0.388,0.54-0.791,1.075-1.126,1.648c-4.976,8.531-12.262,11.378-22.161,11.152c-24.982-0.57-49.986-0.191-74.981-0.192
		C3.332,278,1.666,278,0,278c0-0.333,0-0.667,0-1c0.54-0.345,1.173-0.601,1.606-1.05c6.473-6.703,12.888-13.462,19.378-20.148
		c20.986-21.615,41.225-43.919,61.213-66.452c14.132-15.932,28.226-31.897,41.78-48.329c18.104-21.948,35.175-44.741,54.021-66.083
		c14.569-16.499,29.943-32.143,47.751-45.223c23.317-17.127,48.972-27.874,78.259-28.738C304.809,0.953,305.703,1.073,306,0
		c1.333,0,2.667,0,4,0c0.343,0.986,1.162,1.011,2.006,1.006c2.655-0.017,5.309-0.026,7.964-0.038
		C333.33,0.969,346.69,0.97,360.05,0.972z M290.191,57.397c-3.126-1.104-6.062-0.501-8.988,0.098
		c-9.565,1.959-18.25,5.98-26.372,11.307c-14.529,9.53-26.342,21.9-36.557,35.78c-11.334,15.401-22.285,31.085-33.361,46.675
		c-0.794,1.117-2.216,1.907-2.253,3.866c24.6,0,49.073,0.036,73.546-0.03c5.061-0.014,7.139-1.78,8.77-7.19
		c8.479-28.116,16.895-56.25,25.357-84.371C290.918,61.591,291.466,59.707,290.191,57.397z"/>
	<path style="fill:#14436D;" d="M1483,63c-2.27,4.712-2.109,9.921-2.967,14.912c-0.844,4.91-1.551,9.831-2.925,14.638
		c-0.645,2.257-1.56,4.376-2.574,6.468c-3.23,6.662-8.657,9.723-15.96,10.014c-7.034,0.281-13.945-0.832-20.888-1.545
		c-2.992-0.307-5.955-0.5-8.949-0.295c-4.739,0.323-7.653,2.759-8.776,7.411c-1.557,6.452-3.182,12.887-4.797,19.325
		c-6.18,24.635-12.358,49.27-18.563,73.898c-0.895,3.551-1.763,7.098-1.869,10.779c-0.176,6.123,2.328,9.315,8.398,10.368
		c6.587,1.143,13.213,1.324,19.882,0.589c3.466-0.382,6.973-0.425,10.464-0.542c2.022-0.068,3.991,0.223,6.105,1.945
		c1.039,3.989,1.013,8.455-0.09,12.821c-1.788,7.077-3.846,14.088-5.872,21.103c-0.797,2.759-2.683,4.439-5.523,5.199
		c-11.55,3.092-23.118,6.107-34.963,7.873c-10.223,1.525-20.467,2.346-30.803,1.058c-5.486-0.683-10.808-1.855-15.779-4.309
		c-10.321-5.095-15.603-13.641-16.556-24.909c-0.877-10.367,0.673-20.57,2.585-30.728c3.507-18.626,9.616-36.601,13.785-55.051
		c4.319-19.114,9.782-37.938,14.073-57.05c1.311-5.838,1.928-11.796,1.134-17.829c-1.223-9.289-5.356-17.025-12.097-23.452
		c-1.681-1.603-3.268-3.304-5.123-5.189c2.526-1.758,5.324-1.329,7.927-0.981c3.477,0.465,6.955,0.624,10.442,0.825
		c5.75,0.332,9.452-2.49,11.767-7.494c1.828-3.952,2.787-8.166,3.495-12.427c1.337-8.047,3.524-15.864,5.919-23.649
		c2.085-6.777,6.229-10.812,13.473-11.297c1.658-0.111,3.316-0.334,4.974-0.339c10.83-0.031,21.66-0.042,32.489-0.008
		c10,0.031,11.86,2.399,9.596,12.099c-2.302,9.861-5.079,19.61-6.941,29.573c-0.061,0.326-0.194,0.64-0.251,0.967
		c-1.384,7.931,0.822,10.842,8.855,11.369c10.13,0.665,20.276,0.793,30.427,0.693c2.157-0.021,4.316,0.107,6.474,0.167
		C1483,61,1483,62,1483,63z"/>
	<path style="fill:#4D5F83;" d="M893,0c-0.622,1.5-1.946,0.983-3.022,0.984c-35.975,0.019-71.95,0.019-107.925,0
		C780.965,0.983,779.655,1.44,779,0C817,0,855,0,893,0z"/>
	<path style="fill:#4D5F83;" d="M360.05,0.972c-13.36-0.001-26.72-0.003-40.08-0.004C320.032,0.646,320.042,0.324,320,0
		c13.333,0,26.667,0,40,0C360.017,0.324,360.033,0.648,360.05,0.972z"/>
	<path style="fill:#ACD9D0;" d="M935,484c0.016-0.314-0.008-0.625-0.073-0.933c9.042-0.007,18.084-0.014,27.125-0.02
		c-0.073,0.315-0.09,0.633-0.052,0.954C953,484,944,484,935,484z"/>
	<path style="fill:#7B829F;" d="M320,0c0.042,0.324,0.032,0.646-0.03,0.967c-2.655,0.012-5.309,0.021-7.964,0.038
		C311.162,1.011,310.343,0.986,310,0C313.333,0,316.667,0,320,0z"/>
	<path style="fill:#14426C;" d="M1118.831,204.871c-3.273,14.44-7.188,27.797-13.834,40.213
		c-6.278,11.728-14.578,21.411-26.981,27.054c-5.822,2.649-11.923,4.263-18.248,4.688c-17.932,1.205-35.893,2.101-53.866,1.772
		c-12.967-0.238-25.954-0.549-38.879-1.768c-5.633-0.531-11.163-1.819-16.369-4.132c-11.747-5.22-18.996-14.266-22.111-26.63
		c-2.044-8.112-2.264-16.352-1.953-24.724c1.126-30.395,9.607-59.264,17.79-88.205c3.892-13.763,8.457-27.271,15.612-39.774
		c7.396-12.924,17.203-23.196,31.202-28.969c6.52-2.688,13.331-4.242,20.367-4.363c18.812-0.324,37.626-0.594,56.44-0.653
		c9.643-0.03,19.309,0.11,28.926,0.755c13.451,0.902,25.399,5.322,33.549,16.89c4.502,6.39,6.673,13.659,7.542,21.39
		c1.466,13.042-0.242,25.912-2.402,38.682c-2.076,12.271-5.06,24.378-8.501,36.356c-1.918,6.678-4.733,9.011-11.632,9.434
		c-1.495,0.092-2.997,0.111-4.496,0.109c-35.995-0.036-71.99-0.079-107.985-0.121c-1.167-0.001-2.333-0.02-3.5,0.004
		c-7.509,0.153-10.768,2.854-11.318,10.356c-0.598,8.158-2.483,16.089-3.615,24.148c-1.276,9.088,1.729,13.516,10.743,15.01
		c5.284,0.876,10.629,0.481,15.94,0.55c9.994,0.129,19.992-0.039,29.988-0.134c8.672-0.082,14.055-3.774,17.131-11.886
		c1.054-2.778,1.686-5.714,2.561-8.563c1.429-4.656,4.568-7.413,9.459-7.448C1086.359,204.802,1102.33,204.871,1118.831,204.871z
		 M1000.293,148.384c2.055,1.319,4.176,1.452,6.366,1.45c20.998-0.021,41.995-0.017,62.993-0.004
		c1.849,0.001,3.685,0.072,5.53-1.816c1.77-7.916,4.601-16.096,5.649-24.711c0.453-3.72-0.137-7.32-1.245-10.825
		c-1.793-5.672-5.04-8.048-11.052-8.286c-1.327-0.053-2.696-0.133-3.985,0.114c-3.639,0.696-7.278,0.445-10.941,0.429
		c-8.825-0.039-17.656,0.022-26.476,0.306c-9.976,0.321-17.123,4.763-20.121,14.744c-0.287,0.954-0.713,1.867-0.981,2.826
		c-2.05,7.349-4.083,14.703-6.105,22.06C999.613,145.815,999.533,146.971,1000.293,148.384z"/>
	<path style="fill:#14426C;" d="M1258.752,59.999c15.661,0,31.321,0.024,46.981-0.018c3.698-0.01,7.321,0.572,10.865,1.419
		c14.257,3.405,21.497,11.159,23.187,26.846c1.051,9.751,0.781,19.625-0.748,29.391c-0.983,6.281-3.141,8.405-9.541,9.624
		c-2.144,0.408-4.282,0.6-6.446,0.611c-10.163,0.051-20.325,0.091-30.488,0.125c-1.166,0.004-2.346,0.054-3.494-0.105
		c-3.975-0.551-5.74-2.653-5.968-6.689c-0.125-2.226,0.502-4.293,1.047-6.372c1.544-5.893-0.572-9.29-6.688-9.902
		c-5.122-0.513-10.286-0.724-15.436-0.804c-11.811-0.184-23.625-0.707-35.426,0.532c-6.422,0.674-10.412,4.038-12.161,10.091
		c-1.48,5.124-2.289,10.399-2.526,15.722c-0.209,4.692,1.449,7.176,6.052,8.446c4.788,1.321,9.713,2.155,14.592,3.133
		c20.026,4.012,40.064,7.958,60.076,12.037c2.904,0.592,5.72,1.687,8.521,2.702c12.746,4.617,19.183,14.101,19.636,27.291
		c0.835,24.273-4.593,47.276-16.445,68.466c-9.491,16.969-24.605,25.112-43.993,25.318c-7.331,0.078-14.673-0.235-21.993,0.065
		c-14.299,0.587-28.536-1.406-42.829-0.775c-3.155,0.139-6.314,0.376-9.457,0.439c-11.146,0.226-22.287-0.131-33.352-1.659
		c-3.13-0.432-6.137-1.393-9.056-2.653c-6.361-2.747-10.486-7.504-12.577-14.013c-1.12-3.486-1.848-7.118-1.912-10.777
		c-0.151-8.649-0.332-17.293,0.774-25.927c1.326-10.353,6.277-15.272,16.617-16.612c10.621-1.377,21.283-0.649,31.92-1.037
		c7.163-0.261,9.765,3.593,8.024,10.712c-0.552,2.256-1.338,4.457-1.854,6.72c-1.272,5.566,1.295,9.528,6.864,10.558
		c1.459,0.27,2.987,0.23,4.484,0.231c15.163,0.008,30.329-0.17,45.488,0.073c5.81,0.093,10.42-1.98,14.245-5.948
		c4.456-4.622,7.525-10.04,8.641-16.52c1.372-7.965-1.775-13.105-9.506-14.724c-11.537-2.415-23.121-4.61-34.638-7.114
		c-12.009-2.611-24.144-4.625-36.057-7.692c-3.227-0.831-6.34-1.946-9.439-3.144c-13.17-5.091-19.542-14.817-19.738-28.793
		c-0.188-13.423,2.257-26.466,5.751-39.344c2.531-9.329,5.868-18.337,11.069-26.566c9.741-15.412,23.706-23.36,41.942-23.519
		c14.996-0.13,29.993-0.027,44.99-0.027C1258.752,59.879,1258.752,59.939,1258.752,59.999z"/>
	<path style="fill:#14426C;" d="M667.838,195.555c0.857,1.528,0.946,3.064,0.463,4.792c-3.841,13.749-7.235,27.637-13.248,40.683
		c-3.433,7.448-7.481,14.49-13.147,20.484c-9.015,9.536-20.499,13.79-33.201,15.494c-10.943,1.468-21.922,1.125-32.909,1.018
		c-14.829-0.144-29.662,0.049-44.488-0.218c-7.309-0.131-14.567-1.152-21.617-3.338c-15.503-4.805-24.265-15.573-27.672-31.101
		c-2.639-12.03-2.579-24.195-0.659-36.239c4.345-27.258,10.232-54.197,18.682-80.506c4.269-13.29,8.984-26.445,16.771-38.207
		c12.539-18.938,30.231-28.51,52.913-28.57c25.497-0.068,50.995,0.063,76.492,0.172c6.043,0.026,11.891,1.376,17.472,3.622
		c14.182,5.706,21.569,16.534,23.364,31.482c1.346,11.209-0.441,22.226-2.285,33.193c-1.027,6.112-4.709,9.91-11.236,11.017
		c-5.486,0.93-10.961,0.579-16.431,0.774c-6.82,0.243-13.661,0.034-20.489-0.135c-6.754-0.167-8.607-2.104-8.6-8.757
		c0.004-3.329,0.121-6.661,0.274-9.987c0.487-10.615-3.074-14.34-13.617-14.23c-7.997,0.083-15.995,0.148-23.993,0.172
		c-3.329,0.01-6.66-0.183-9.989-0.154c-9.339,0.081-14.962,4.031-17.881,12.967c-7.689,23.535-14.121,47.411-18.881,71.72
		c-1.627,8.309-3.512,16.58-4.081,25.06c-0.1,1.487-0.045,2.99,0.017,4.482c0.167,4.026,2.45,6.493,6.127,7.581
		c2.211,0.654,4.491,1.2,6.866,1.193c11.831-0.037,23.662-0.032,35.493-0.009c2.535,0.005,4.973-0.609,7.358-1.259
		c4.668-1.272,7.574-4.565,9.377-8.957c1.71-4.164,2.846-8.496,3.96-12.841c0.411-1.603,0.925-3.188,1.506-4.738
		c2.11-5.63,6.16-8.564,12.218-8.379c13.327,0.407,26.654,0.333,39.981,0.111C664.622,193.915,666.408,194.174,667.838,195.555z"/>
	<path style="fill:#14426C;" d="M316.488,278.001c2.463-9.879,4.743-19.057,7.04-28.231c13.066-52.181,26.144-104.36,39.195-156.545
		c2.095-8.375,3.971-16.806,6.143-25.161c1.798-6.916,4.165-8.904,11.299-8.666c13.649,0.456,27.296,0.424,40.945,0.401
		c3.124-0.005,6.248-0.258,9.992-0.425c-1.058,8.787-4.031,16.87-5.37,25.39c1.894-0.197,2.498-1.51,3.405-2.365
		c13.369-12.618,29.161-20.071,47.381-22.5c14.465-1.928,28.891-1.168,43.317,0.361c0.451,0.048,1.039,0.061,1.247,1.061
		c-1.788,2.322-4.543,3.904-6.809,5.996c-12.677,11.706-20.792,26.209-26.208,42.39c-0.369,1.102-0.662,2.229-1.033,3.33
		c-1.529,4.538-3.264,5.872-7.987,5.952c-6.162,0.105-12.335-0.074-18.485,0.235c-10.966,0.551-21.805,1.968-32.495,4.709
		c-9.06,2.323-13.962,7.761-16.153,16.842c-10.165,42.119-20.647,84.162-31.043,126.226c-0.396,1.6-1.039,3.143-1.616,4.695
		c-1.571,4.228-4.683,6.343-9.14,6.428c-2.661,0.051-5.326-0.114-7.989-0.117c-13.994-0.014-27.988-0.007-41.982-0.007
		C319.166,278.001,318.189,278.001,316.488,278.001z"/>
	<path style="fill:#75C6B7;" d="M252.533,430.032c1.699-0.252,2.029-1.418,2.614-2.405c9.717-16.392,19.47-32.763,29.185-49.157
		c2.369-3.997,5.287-7.286,10.136-8.086c3.912-0.645,7.439,0.24,10.17,2.474c1.203,4.839-0.018,8.909-0.793,12.931
		c-3.243,16.842-6.346,33.705-8.994,50.654c-0.941,6.024-2.171,12.002-2.995,18.054c-0.76,5.583-3.697,7.974-8.565,7.457
		c-3.562-0.378-5.749-3.022-5.113-6.52c1.74-9.569,3.61-19.115,5.397-28.676c1.485-7.943,2.992-15.883,4.326-23.851
		c0.249-1.486,0.83-3.256-0.675-4.894c-2.945,2.2-4.095,5.583-5.84,8.425c-7.542,12.286-14.86,24.71-22.201,37.119
		c-0.69,1.166-1.427,2.254-2.393,3.162c-4.915,4.622-12.165,2.71-13.637-3.85c-2.061-9.186-4.81-18.176-7.245-27.254
		c-1.577-5.882-3.677-11.607-6.557-18.099c-1.906,10.225-3.672,19.509-5.361,28.807c-1.739,9.572-3.287,19.181-5.138,28.731
		c-1.44,7.431-6.439,9.103-12.662,4.348c-1.044-4.46,0.579-8.785,1.282-13.137c2.051-12.696,4.31-25.359,6.609-38.014
		c1.355-7.46,2.837-14.901,4.476-22.303c0.61-2.757,0.479-5.562,1.259-8.327c1.529-5.42,3.463-7.577,8.914-7.386
		c4.303,0.15,7.658,1.152,9.313,6.609c1.435,4.731,2.64,9.533,3.879,14.321c3.097,11.966,6.139,23.945,9.254,35.906
		C251.453,428.133,252.096,429.099,252.533,430.032z"/>
	<path style="fill:#ACD9D0;" d="M330.111,462.006c-4.328,0-8.657-0.047-12.983,0.022c-1.859,0.029-3.583-0.349-5.328-0.939
		c-5.293-1.788-7.406-4.662-7.88-10.143c-0.379-4.38,0.456-8.654,1.329-12.791c1.868-8.848,2.893-17.83,4.745-26.668
		c0.844-4.025,1.623-8.067,3.661-11.739c2.41-4.343,6.014-6.87,10.886-7.78c10.724-2.004,21.541-0.867,32.305-0.847
		c6.223,0.011,10.178,4.885,10.166,11.163c-0.012,6.13-1.385,12.114-2.368,18.11c-1.566,9.551-3.826,18.987-5.569,28.512
		c-1.564,8.544-6.574,12.461-14.984,12.99c-4.642,0.292-9.318,0.052-13.979,0.052C330.111,461.966,330.111,461.986,330.111,462.006z
		"/>
	<path style="fill:#75C6B7;" d="M962.052,483.046c-9.042,0.007-18.084,0.014-27.125,0.02c-3.065-1.551-4.282-3.477-3.792-6
		c0.562-2.896,2.727-4.935,5.974-5.024c5.824-0.16,11.658-0.148,17.484-0.026c3.184,0.067,6.267-0.451,9.355-1.016
		c3.347-0.612,5.909-3.433,6.057-6.855c0.15-3.477,0.033-6.966,0.033-10.28c-0.658-0.538-1.084-0.328-1.481-0.071
		c-7.666,4.96-16.173,6.433-25.133,6.169c-2.526-0.074-4.98-0.593-7.232-1.517c-4.519-1.852-6.949-5.349-7.244-10.353
		c-0.296-5.025,0.604-9.91,1.492-14.785c1.418-7.783,2.945-15.549,4.601-23.284c1.374-6.419,3.581-12.584,9.622-16.091
		c4.874-2.83,9.999-4.476,16.049-3.28c5.715,1.129,11.351,2.098,16.483,4.984c0.915,0.515,1.916,0.476,2.771,0.382
		c2.467-0.746,2.728-3.392,4.665-4.844c3.144-0.403,6.392-0.592,9.026,2.129c1.375,4.742-0.245,9.296-0.938,13.799
		c-1.628,10.579-3.802,21.073-5.727,31.607c-1.688,9.239-3.171,18.519-5.048,27.718
		C979.817,476.859,972.736,482.606,962.052,483.046z M952.725,448.941c0.36,0,1.204,0.089,2.024-0.014
		c10.027-1.251,16.077-2.18,20.342-15.412c1.68-5.214,2.704-10.549,3.738-15.874c1.246-6.413-2.384-12.148-8.641-14.495
		c-2.671-1.002-5.518-0.983-8.294-1.404c-8.086-1.224-14.083,3.227-14.938,11.151c-0.885,8.199-1.591,16.464-4.056,24.376
		C940.342,445.474,943.395,450.04,952.725,448.941z"/>
	<path style="fill:#75C6B7;" d="M690.349,395.874c2.731-2.04,4.221-5.244,7.754-5.617c4.721,2.134,5.361,2.889,4.806,7.879
		c-0.582,5.233-1.506,10.431-2.397,15.625c-1.809,10.546-3.694,21.08-5.552,31.618c-0.686,3.892-1.05,7.88-2.161,11.647
		c-1.411,4.785-3.501,5.844-9.023,4.839c-0.584-0.775-1.26-1.698-1.964-2.598c-0.614-0.785-1.26-1.545-1.431-1.754
		c-3.606-1.413-5.819,0.198-8.192,1.385c-8.591,4.298-17.662,4.103-26.644,1.996c-6.281-1.474-8.779-6.874-7.895-13.391
		c1.796-13.236,4.414-26.302,7.337-39.32c0.583-2.598,1.561-5.02,2.58-7.465c2.793-6.705,8.338-9.062,14.977-9.643
		c2.643-0.231,5.329,0.07,7.98-0.108c4.822-0.324,9.144,0.644,13.037,3.726C685.724,396.406,685.906,396.176,690.349,395.874z
		 M651.951,440.543c0,1.613,0.021,2.28-0.003,2.945c-0.224,6.053,3.988,8.792,9.759,8.343c2.271-0.176,4.49-0.983,6.738-1.48
		c10.359-2.288,14.566-7.159,15.712-17.606c0.43-3.922,0.973-7.888,2.058-11.663c0.757-2.636,0.93-5.198,0.883-7.838
		c-0.085-4.751-2.17-7.69-6.742-9.237c-5.062-1.714-10.293-2.394-15.649-2.092c-3.153,0.177-5.365,1.641-6.436,4.603
		c-0.557,1.541-1.012,3.155-1.229,4.775c-0.505,3.759-1.202,7.471-1.973,11.185C653.763,428.766,652.21,435.027,651.951,440.543z"/>
	<path style="fill:#79C6B5;" d="M430.271,448.544c1.896,2.135,4.082,2.578,6.516,2.533c3.83-0.071,7.662,0.005,11.494-0.024
		c6.143-0.046,9.071-2.134,11.144-7.892c0.335-0.929,0.654-1.864,0.973-2.776c4.407-3.093,6.855-2.878,11.304,0.976
		c1.054,10.683-6.897,19.906-18.183,20.443c-8.309,0.395-16.658,0.274-24.977,0.011c-7.37-0.233-11.522-3.87-12.184-10.446
		c-0.241-2.397,0.336-4.911,0.755-7.334c2.3-13.32,4.417-26.68,7.099-39.924c1.797-8.876,7.566-12.357,16.572-12.892
		c8.465-0.503,16.987-0.288,25.476-0.078c6.659,0.165,10.031,2.757,11.187,9.121c1.066,5.863,1.103,11.904-0.083,17.818
		c-1.506,7.511-6.728,10.14-12.592,10.763c-6.084,0.646-12.262,0.05-18.364,0.981c-1.604,0.245-3.244-0.12-4.902-0.484
		c-5.957-1.31-9.481,1.204-10.65,7.161c-0.318,1.618-0.967,3.154-0.868,4.867C430.122,443.68,429.675,446.016,430.271,448.544z
		 M451.202,420.925c0.999,0,2,0.051,2.995-0.008c8.136-0.481,10.55-2.621,11.394-10.063c0.792-6.981-2.054-9.797-8.931-9.042
		c-1.964,0.215-4.026,0.239-5.961-0.108c-10.608-1.904-16.237,2.863-15.825,13.555c0.013,0.333,0.012,0.667,0.042,0.998
		c0.309,3.425,1.802,5.222,5.051,4.602C443.804,420.127,447.465,420.681,451.202,420.925z"/>
	<path style="fill:#79C6B5;" d="M592.972,395.781c2.048,0.083,3.104-0.808,4.243-1.387c8.559-4.348,17.783-4.135,26.822-3.097
		c8.037,0.923,11.321,6.799,9.774,14.927c-2.59,13.606-5.198,27.209-6.944,40.961c-0.372,2.933-1.327,5.796-1.66,8.731
		c-0.341,3-1.753,5.057-4.525,5.925c-3.304,1.034-5.733-0.135-8.554-3.76c2.808-15.569,5.023-31.4,8.704-46.967
		c0.338-1.428,0.233-2.989,0.162-4.481c-0.12-2.521-1.782-4.201-3.998-4.454c-4.277-0.488-8.649-0.743-12.905,0.282
		c-8.325,2.005-13.223,7.761-14.861,15.715c-2.094,10.165-4.112,20.37-5.428,30.698c-0.39,3.058-0.487,6.247-1.686,9.22
		c-1.651,4.097-8.171,5.408-11.178,2.176c-0.887-0.954-1.066-2.082-0.777-3.254c2.336-9.46,3.443-19.142,5.198-28.707
		c1.993-10.866,3.782-21.769,5.659-32.655c1.345-7.8,2.56-15.624,4.078-23.39c0.959-4.908,3.165-6.55,7.4-6.258
		c4.016,0.277,6.304,2.798,5.354,6.645C595.998,380.163,595.456,387.927,592.972,395.781z"/>
	<path style="fill:#76C7B5;" d="M901.849,391.06c4.434,0.255,10.271-0.793,15.986,0.903c3.982,1.182,6.188,3.594,7.321,7.759
		c1.244,4.573,0.35,8.931-0.318,13.239c-1.611,10.402-3.835,20.709-5.651,31.082c-0.318,1.817-0.884,3.533-1.39,5.261
		c-1.709,5.833-5.353,9.852-11.517,11.014c-10.968,2.067-22.014,2.468-33.062,0.809c-8.926-1.34-11.302-7.813-9.98-15.288
		c2.206-12.479,4.493-24.944,6.783-37.408c0.386-2.102,0.707-4.27,1.493-6.234c2.763-6.894,7.328-10.755,16.012-11.106
		C891.846,390.916,896.178,391.06,901.849,391.06z M877.072,448.704c2.153,1.858,4.163,2.229,6.403,2.354
		c4.118,0.229,8.22-0.257,12.389,0.607c2.539,0.526,5.48-0.424,7.696-2.561c2.79-2.691,3.917-6.028,4.48-9.707
		c0.995-6.507,1.293-13.104,2.919-19.538c1.2-4.75,2.903-9.521,1.817-14.359c-1.66-2.319-3.625-3.989-6.157-4.36
		c-7.364-1.079-14.238,0.391-20.153,5.048c-3.214,2.53-5.099,5.865-5.584,10.146c-0.798,7.033-1.79,14.067-3.195,21
		C876.914,441.152,876.88,444.85,877.072,448.704z"/>
	<path style="fill:#78C5B5;" d="M1040.519,417.725c6.802,2.111,13.721,2.814,20.504,4.169c1.461,0.292,2.878,0.82,4.331,0.976
		c5.3,0.567,9.568,4.955,9.372,12.159c-0.151,5.548-1.035,11.181-3.789,16.268c-3.627,6.699-9.222,10.37-16.797,10.596
		c-7.324,0.219-14.663,0.175-21.99,0.015c-9.273-0.203-15.902-8.412-13.675-16.717c1.543-5.755,4.186-6.913,9.658-6.023
		c1.666,0.776,2.823,2.146,3.784,3.749c3.991,6.663,14.343,10.872,21.556,8.788c4.238-1.224,7.253-4.926,7.52-9.429
		c0.127-2.152,0.022-4.318,0.022-6.309c-1.502-2.698-3.554-3.719-6.474-4.226c-5.85-1.016-11.714-1.906-17.575-2.84
		c-6.579-1.049-11.197-4.789-11.017-12.369c0.079-3.305,0.062-6.556,0.868-9.871c2.119-8.712,7.331-14.468,16.143-15.283
		c8.879-0.821,17.945-1.392,26.825,0.619c7.923,1.794,11.444,11.944,6.433,18.274c-1.009,1.275-2.313,1.746-3.943,1.691
		c-2.757-0.093-4.821-1.359-6.106-3.679c-1.746-3.153-4.476-4.708-7.806-5.665c-4.03-1.157-8.092-1.429-12.152-0.564
		c-6.559,1.398-9.113,7.315-6.405,14.496C1039.919,416.854,1040.143,417.116,1040.519,417.725z"/>
	<path style="fill:#78C5B5;" d="M1231.462,417.872c6.869,1.372,13.621,2.842,20.426,4.004c1.978,0.338,3.886,0.835,5.755,1.435
		c5.995,1.922,8.936,5.701,8.03,11.939c-0.519,3.567-0.5,7.186-1.404,10.774c-2.865,11.364-9.063,15.001-19.395,15.825
		c-7.28,0.58-14.651,0.29-21.969,0.041c-9.74-0.331-15.529-8.823-12.697-18.238c0.827-2.75,2.895-4.415,5.863-4.572
		c2.702-0.144,5.186,0.647,5.996,3.415c1.319,4.504,4.525,6.995,8.61,8.193c5.281,1.548,10.707,2.129,15.951-0.541
		c3.59-1.828,6.739-6.435,6.286-9.997c-0.552-4.348-3.195-6.983-7.375-8.432c-5.391-1.869-11.026-1.918-16.562-2.685
		c-5.23-0.725-9.852-2.347-11.359-8.025c-2.211-8.333,0.276-22.064,8.886-27.093c3.105-1.813,6.386-2.762,9.885-2.817
		c7.158-0.114,14.322-0.158,21.479-0.001c8.174,0.18,14.423,9.113,12.018,16.931c-1.032,3.354-6.121,4.944-9.715,3.103
		c-1.082-0.554-1.889-1.34-2.605-2.263c-5.421-6.995-13.265-9.491-21.371-6.79C1230.172,404.081,1228.159,410.268,1231.462,417.872z
		"/>
	<path style="fill:#79C5B7;" d="M721.776,390.247c4.15,0.306,4.585,5.603,9.478,5.672c3.378-1.641,7.398-3.992,12.087-4.532
		c5.043-0.58,9.973-1.985,15.162-0.388c6.553,2.017,9.401,5.666,9.609,12.576c0.206,6.866-1.578,13.438-2.571,20.12
		c-1.332,8.955-3.121,17.842-4.451,26.797c-0.292,1.968-0.732,3.902-1.154,5.814c-1.322,5.995-6.764,7.499-11.702,3.295
		c-1.11-5.438,0.375-10.789,1.148-16.154c1.056-7.334,2.571-14.603,3.542-21.946c0.48-3.629,1.699-7.044,2.308-10.625
		c0.719-4.228-0.182-6.802-4.063-8.225c-2.702-0.991-5.403-1.654-8.592-0.947c-4.294,0.953-8.155,2.395-11.837,4.767
		c-3.166,2.039-4.974,4.807-5.737,8.337c-2.369,10.949-4.385,21.962-6.09,33.036c-0.376,2.444-0.665,4.918-1.154,7.327
		c-1.447,7.123-6.291,8.774-12.466,4.324c-1.253-5.101,0.343-10.113,1.177-15.11c2.035-12.178,4.858-24.214,6.647-36.442
		c0.452-3.089,1.405-6.111,1.775-9.205C715.43,394.237,717.862,391.555,721.776,390.247z"/>
	<path style="fill:#75C6B7;" d="M1201.899,414.761c-3.064-0.809-4.994-2.497-5.071-6.208c-0.047-2.283-1.377-4.383-3.382-6.492
		c-5.796-0.556-11.961-0.201-18.048,0.163c-3.907,0.233-6.521,3.263-7.404,7.138c-1.17,5.135-2.013,10.345-2.999,15.522
		c-0.955,5.014-1.922,10.026-2.86,15.043c-0.121,0.65-0.105,1.326-0.148,1.991c-0.416,6.501,0.286,7.747,6.509,8.736
		c3.406,0.541,6.776,1.534,10.309,1.366c4.523-0.216,7.973-1.973,9.917-6.222c0.482-1.055,0.893-2.157,1.495-3.14
		c3.31-5.41,6.934-6.059,12.471-2.212c0.676,2.071,0.554,4.096-0.499,6.16c-0.822,1.611-1.407,3.353-1.989,5.074
		c-2.09,6.179-5.718,8.672-11.94,9.409c-7.787,0.923-15.567,0.818-23.362,0.85c-0.833,0.003-1.666,0.017-2.498-0.012
		c-11.512-0.41-14.708-6.122-13.175-15.696c1.849-11.548,3.171-23.19,5.779-34.611c0.623-2.729,1.259-5.458,2.007-8.155
		c2.505-9.039,7.208-11.741,16.345-12.303c7.798-0.48,15.651-0.226,23.475-0.064c8.263,0.172,14.852,7.179,12.988,16.773
		C1209.093,411.599,1207.027,414.675,1201.899,414.761z"/>
	<path style="fill:#75C6B7;" d="M523.383,459.821c-0.696-1.412-0.563-2.899-0.139-4.349c2.929-10.012,3.801-20.409,5.622-30.623
		c1.765-9.901,3.603-19.786,5.653-29.627c0.471-2.259,0.51-4.557,1.153-6.829c0.905-3.194-1.76-6.246-5.172-6.423
		c-3.155-0.164-6.328-0.109-9.488-0.008c-2.529,0.081-4.956-0.216-7.31-1.25c-2.518-4.368-2.486-4.923,0.577-9.247
		c1.376-0.777,2.906-0.51,4.383-0.518c5.829-0.032,11.659,0.056,17.486-0.033c6.128-0.093,12.241,0.202,18.383-0.68
		c6.762-0.97,13.532,0.918,20.4,0.786c2.511,2.219,2.71,4.776,1.23,7.592c-1.174,2.233-4.687,3.918-7.719,3.173
		c-2.3-0.565-4.55-0.822-6.874-0.78c-6.893,0.126-11.734,3.692-13.445,10.356c-1.188,4.628-1.921,9.353-2.192,14.171
		c-0.353,6.262-1.711,12.406-2.908,18.557c-1.983,10.191-3.866,20.402-5.994,30.563C535.415,462.364,530.306,464.22,523.383,459.821
		z"/>
	<path style="fill:#75C7B6;" d="M854.247,450.775c1.079,2.052,0.859,3.758,0.669,5.372c-0.419,3.552-2.668,5.781-6.293,5.808
		c-12.15,0.088-24.301,0.045-36.45-0.092c-1.936-0.022-3.924-0.608-5.782-1.244c-3.911-1.338-5.962-5.236-5.197-10.676
		c1.376-9.782,2.634-19.58,4.455-29.303c2.637-14.083,5.004-28.217,7.383-42.347c0.9-5.341,4.301-8.161,9.233-7.293
		c2.705,0.476,4.755,2.998,4.319,5.716c-1.697,10.57-3.591,21.108-5.238,31.685c-1.774,11.4-3.828,22.74-6.199,34.032
		c-1.007,4.794,1.397,6.889,5.963,6.765c8.482-0.23,16.975-0.006,25.462-0.098C849.291,449.071,851.785,449.6,854.247,450.775z"/>
	<path style="fill:#75C7B6;" d="M1124.804,396.077c-0.557,1.576-0.993,2.809-1.464,4.139c-2.012,0.819-3.803,1.796-6.144,1.368
		c-6.269-1.146-9.882,1.255-11.106,7.481c-1.812,9.219-3.353,18.491-5.17,27.709c-0.678,3.437-1.329,6.828-0.874,10.408
		c1.507,2.993,4.017,4.113,7.338,3.9c2.331-0.15,4.755-0.319,6.462,2.524c0.462,1.694,0.293,3.809-0.064,5.64
		c-1.031,1.666-2.465,2.54-3.877,2.569c-4.955,0.1-9.971,0.772-14.836-0.86c-4.682-1.571-6.862-4.617-7.128-9.632
		c-0.39-7.363,1.258-14.516,2.456-21.665c1.143-6.818,1.826-13.716,3.479-20.471c1.076-4.398-0.311-6.487-4.639-8.03
		c-2.172-0.775-4.17-1.354-4.274-4.066c-0.093-2.428,1.405-4.044,4.529-5.148c1.7-0.601,3.504-0.833,5.071-1.907
		c3.233-2.217,3.91-5.602,4.347-9.075c0.766-6.098,2.76-7.73,8.767-6.952c3.163,0.41,4.759,2.384,4.158,5.505
		c-0.341,1.77-1.232,3.428-1.651,5.189c-0.917,3.856,0.79,6.071,4.75,6.325c0.996,0.064,1.999,0.02,2.998,0.032
		C1122.654,391.118,1122.747,391.185,1124.804,396.077z"/>
	<path style="fill:#79C5B7;" d="M382.433,392.196c5.899-1.154,8.22,3.944,12.643,5.696c3.542-1.729,7.325-3.783,11.273-5.444
		c4.058-1.707,8.26-2.754,12.066,0.647c1.424,7.511-1.087,10.758-8.584,10.79c-4.717,0.021-9.246,0.416-13.415,2.908
		c-4.269,2.552-6.973,6.182-7.4,11.133c-0.926,10.716-2.948,21.238-5.479,31.656c-0.55,2.265-0.411,4.559-1.183,6.819
		c-1.883,5.511-4.711,6.988-10.128,4.706c-0.599-0.252-1.139-0.644-2.152-1.227c0.221-7.602,1.898-15.142,3.028-22.726
		c1.117-7.495,2.446-14.966,3.938-22.395C378.554,407.218,378.804,399.348,382.433,392.196z"/>
	<path style="fill:#7AC8B7;" d="M996.54,462.003c-1.997-2.37-2.335-4.154-1.843-6.803c2.375-12.78,4.212-25.658,6.414-38.472
		c1.059-6.165,2.052-12.338,3.068-18.508c1.195-7.257,8.079-9.571,13.789-4.63c0.549,5.677-1.558,11.2-2.327,16.874
		c-0.971,7.169-2.414,14.274-3.645,21.409c-1.371,7.946-2.654,15.909-4.131,23.835c-0.741,3.977-3.595,6.125-7.798,6.29
		C998.919,462.041,997.767,462.003,996.54,462.003z"/>
	<path style="fill:#75C7B6;" d="M1135.32,393.028c1.728-1.16,3.022-1.821,4.564-1.97c5.305-0.514,7.734,2.244,6.787,7.444
		c-1.975,10.84-3.834,21.7-5.708,32.558c-1.372,7.947-2.617,15.916-4.061,23.849c-0.866,4.761-3.587,7.137-7.58,7.028
		c-3.157-0.086-4.82-1.657-5.273-4.769c-0.444-3.053,0.633-5.915,1.127-8.81c2.434-14.261,5.232-28.461,7.657-42.724
		C1133.552,401.407,1134.206,397.198,1135.32,393.028z"/>
	<path style="fill:#7AC8B7;" d="M1137.311,379.509c-0.902-3.179,0.428-6.105,1.931-8.811c2.051-3.691,9.118-3.187,11.222-1.305
		c0.466,0.417,0.795,1.075,0.996,1.685c1.576,4.779-3.167,10.976-8.215,10.857C1141.002,381.881,1138.992,381.415,1137.311,379.509z
		"/>
	<path style="fill:#79C6B5;" d="M1009.05,379.433c0.245-3.883-1.805-8.219,2.817-10.776c2.852-1.578,7.183-0.638,10.123,2.053
		c-0.052,3.524,1.112,7.682-2.892,10.13C1015.839,382.833,1012.449,382.404,1009.05,379.433z"/>
</g>
</svg>
