<?xml version="1.0" encoding="iso-8859-1"?>
<!-- Generator: Adobe Illustrator 27.0.0, SVG Export Plug-In . SVG Version: 6.00 Build 0)  -->
<svg version="1.1" id="Layer_1" xmlns="http://www.w3.org/2000/svg" xmlns:xlink="http://www.w3.org/1999/xlink" x="0px" y="0px"
	 viewBox="0 0 1524 457" style="enable-background:new 0 0 1524 457;" xml:space="preserve">
<g>
	<path style="fill:#2A327E;" d="M1523.194,163.003c-0.726,17.505-2.851,34.803-8.313,51.524
		c-10.487,32.108-30.377,56.422-60.164,72.655c-19.804,10.793-41.035,17.035-63.112,20.72c-21.89,3.653-43.986,5.122-66.145,4.647
		c-25.645-0.55-51.138-2.784-76.069-9.404c-17.614-4.677-34.399-11.32-49.723-21.249c-22.781-14.761-39.023-34.909-48.647-60.324
		c-5.932-15.664-8.921-31.917-10.194-48.601c-0.954-12.504-0.896-24.962,0.272-37.4c2.494-26.538,9.494-51.587,25.364-73.529
		c12.136-16.779,27.666-29.615,46.09-38.912c18.235-9.201,37.603-14.913,57.731-18.236c11.174-1.845,22.38-3.283,33.687-3.919
		c0.806-0.045,1.692,0.055,2.03-0.975c13,0,26,0,39,0c4.249,1.789,8.688,0.878,13.06,0.922c9.648,0.399,19.207,1.631,28.761,2.972
		c20.004,2.808,39.385,7.86,57.784,16.265c37.88,17.306,62.279,46.025,72.744,86.454c3.6,13.908,5.119,28.088,5.844,42.385
		C1523.193,153.666,1523.193,158.334,1523.194,163.003z M1419.261,155.674c0.217-10.934-1.019-22.482-4.295-33.752
		c-4.124-14.186-11.196-26.518-22.468-36.379c-12.496-10.932-27.427-16.044-43.408-18.416c-14.759-2.19-29.53-1.635-44.124,1.803
		c-24.122,5.683-42.191,19.012-52.459,41.937c-4.516,10.082-6.798,20.758-7.839,31.786c-1.694,17.955-0.569,35.602,5.333,52.699
		c7.368,21.34,21.481,36.768,42.754,44.493c25.2,9.151,50.881,9.23,76.325,0.637c18.701-6.316,32.414-18.637,40.917-36.489
		C1417.152,188.977,1419.463,172.94,1419.261,155.674z"/>
	<path style="fill:#2B327E;" d="M0,302c2.431-3.002,3.412-6.73,4.912-10.169c26.886-61.625,53.685-123.288,80.512-184.939
		c13.513-31.054,27.036-62.104,40.587-93.141c0.654-1.497,1.072-3.154,2.42-4.484c39.529,0,79.166,0,119.325,0
		c42,97.865,84.065,195.881,126.248,294.171c-35.212,0-69.839,0-104.775,0c-5.87-15.746-11.716-31.426-17.642-47.32
		c-42.793,0-85.56,0-128.734,0c-5.791,15.574-11.619,31.247-17.381,46.741c-1.891,1.292-3.782,0.744-5.559,0.746
		c-31.494,0.037-62.989,0.018-94.483,0.047C3.622,303.654,1.768,303.261,0,304C0,303.333,0,302.667,0,302z M187.903,83.963
		c-0.352-0.001-0.704-0.002-1.056-0.003c-4.53,12.264-9.084,24.519-13.581,36.795c-4.508,12.307-8.983,24.626-13.428,36.956
		c-4.402,12.212-9.287,24.26-13.339,36.843c27.606,0,54.494,0,81.931,0C214.815,157.404,201.359,120.683,187.903,83.963z"/>
	<path style="fill:#E03329;" d="M0,422c7.678,0.312,10.105-1.042,13.16-7.908c8.434-18.954,15.338-38.511,22.678-57.896
		c0.857-2.263,0.771-4.5-0.298-6.968c5.378-2.317,10.988-3.475,15.24-7.308c1.726,0.956,1.716,2.591,2.169,3.912
		c7.269,21.192,13.493,42.728,21.038,63.829c0.391,1.094,0.816,2.175,1.189,3.275c1.981,5.847,5.132,10.155,12.05,9.071
		c1.253,1.606,0.6,3.037,0.641,4.724c-12.312,0-24.373,0-36.549,0c-0.706-1.427-0.691-2.799-0.011-4.224
		c2.019-0.935,4.368,0.283,6.937-1.467c-0.875-8.455-4.683-16.399-6.827-25.06c-8.284,0-16.371,0-25.015,0
		c-2.415,6.474-4.908,13.292-6.286,20.433c-0.712,3.689,1.133,5.636,4.822,5.96c1.303,0.115,2.664-0.316,3.955,0.421
		c1.029,1.094,0.881,2.345,0.206,4.207c-9.581,0-19.339,0-29.098,0C0,425.333,0,423.667,0,422z M40.161,357.51
		c-4.475,11.004-8.229,21.808-12.045,32.89c7.496,0,14.557,0,21.634,0C49.394,385.763,42.334,361.218,40.161,357.51z"/>
	<path style="fill:#E0362A;" d="M393,457c-1.41-1.483-3.432-2.241-4.214-4.497c-1.734-4.998,1.51-9.375,6.689-8.529
		c1.928,0.315,3.764,1.191,5.643,1.813c1.512-0.21,2.169-1.409,2.892-2.52c0.271-0.417,0.5-0.862,0.74-1.299
		c6.805-12.416,6.83-12.426,1.621-25.835c-3.664-9.433-7.461-18.814-11.089-28.261c-1.258-3.276-2.661-6.171-6.54-5.894
		c-0.854-1.288-0.559-2.284-0.448-3.628c8.866,0,17.763,0,26.797,0c0.988,0.841,0.307,2.013,0.489,2.818
		c-1.195,1.626-3.293,0.459-4.502,3.049c1.45,8.405,4.839,17.224,7.442,27.563c4.174-9.453,7.454-18.082,10.389-26.396
		c-0.866-3.453-3.551-3.08-5.452-3.341c-0.691-1.353-0.468-2.316-0.074-3.796c6.283-0.06,12.718,0.413,18.816-0.139
		c1.542,0.941,1.548,1.997,1.179,3.148c-5.2,1.322-5.414,1.404-8.026,6.497c-8.714,16.991-16.302,34.517-24.491,51.758
		c-1.069,2.251-2.215,4.467-3.242,6.737c-2.084,4.601-5.08,8.361-9.618,10.755C396.333,457,394.667,457,393,457z"/>
	<path style="fill:#E03529;" d="M1524,414c-0.253,0.192-0.676,0.342-0.734,0.581c-2.303,9.389-12.037,13.846-22.62,12.954
		c-3.765-0.317-7.579-0.993-11.062-3.603c-0.583-3.989-1.785-8.101-1.621-12.132c1.038-1.186,2.065-0.834,3.143-1.087
		c2.085,2.9,4.052,5.759,6.147,8.519c2.4,3.161,5.622,4.572,9.607,4.094c2.89-0.347,4.577-1.807,5.252-4.521
		c0.753-3.027-0.016-5.398-2.296-7.067c-1.777-1.301-3.874-1.901-5.911-2.587c-2.833-0.955-5.658-1.888-8.349-3.222
		c-10.953-5.429-8.653-19.496-2.474-24.433c2.366-1.891,4.992-3.327,7.897-4.126c5.745-1.582,13.77-0.207,19.29,3.227
		c0.63,3.112,1.691,6.264,1.732,9.542c-0.694,1.174-1.669,1.658-3.408,1.739c-1.891-2.09-3.972-4.431-6.098-6.729
		c-2.264-2.447-4.988-3.835-8.424-3.44c-3.036,0.35-5.041,2.186-5.415,4.949c-0.432,3.196,0.492,5.031,3.564,6.284
		c2.294,0.935,4.691,1.668,7.097,2.268c6.73,1.68,12.136,4.933,14.681,11.79C1524,409.333,1524,411.667,1524,414z"/>
	<path style="fill:#8984B1;" d="M1358,0c-0.156,0.319-0.136,0.626,0.06,0.922c-4.372-0.044-8.811,0.867-13.06-0.922
		C1349.333,0,1353.667,0,1358,0z"/>
	<path style="fill:#2B327E;" d="M402.084,9.656c1.635-0.95,3.335-0.495,4.95-0.495c77.986-0.026,155.972-0.134,233.958,0.07
		c15.817,0.041,31.461,1.977,46.567,7.428c23.081,8.328,38.689,23.564,44.812,47.59c4.203,16.494,5.086,33.19,0.688,49.852
		c-5.58,21.138-18.299,35.807-39.277,42.869c-1.382,0.465-2.838,0.749-3.965,1.653c-0.09,0.701,0.33,1.067,0.762,1.227
		c17.945,6.649,27.268,20.335,31.398,38.316c1.609,7.002,2.288,14.131,2.795,21.255c1.086,15.278,2.316,30.542,4.331,45.723
		c1.422,10.711,3.176,21.402,8.608,31.025c1.365,2.417,2.88,4.75,4.543,7.478c-35.865,0-71.271,0-106.851,0
		c-3.542-7.877-4.803-16.235-5.31-24.682c-0.589-9.808-0.712-19.643-1.106-29.464c-0.268-6.664-1.278-13.23-3.018-19.673
		c-1.406-5.203-3.734-9.971-7.17-14.124c-4.958-5.993-11.704-8.579-19.168-9.566c-2.635-0.349-5.316-0.48-7.976-0.482
		c-29.661-0.032-59.323-0.02-88.984-0.015c-0.665,0-1.329,0.059-1.907,0.086c-0.183,0.169-0.31,0.268-0.414,0.386
		c-0.11,0.124-0.223,0.257-0.289,0.406c-0.064,0.145-0.091,0.314-0.099,0.474c-0.027,0.499-0.052,0.999-0.052,1.498
		c-0.048,31.322-0.093,62.645-0.145,93.967c0,0.16-0.087,0.32-0.234,0.829c-32.303,0-64.71,0-97.446,0
		C402.084,205.389,402.084,107.52,402.084,9.656z M499.95,138.599c0.775,0.898,1.485,0.751,2.119,0.752
		c31.663,0.015,63.326,0.029,94.988,0.006c5.558-0.004,10.933-1.165,15.996-3.418c8.206-3.652,13.774-9.707,16.105-18.52
		c1.695-6.409,1.517-12.849,0.2-19.28c-1.92-9.376-7.605-15.676-16.202-19.528c-6.359-2.849-13.106-3.605-19.979-3.607
		c-29.996-0.006-59.993-0.006-89.989,0.012c-1.126,0.001-2.355-0.352-3.237,0.502C499.95,96.705,499.95,117.805,499.95,138.599z"/>
	<path style="fill:#2B327E;" d="M792.398,9.356c32.734,0,65.012,0,97.61,0c0,38.143,0,76.07,0,115.261
		C931.57,85.614,972.332,47.361,1012.869,9.32c43.462,0,86.526,0,130.654,0c-44.71,38.727-88.723,76.85-133.239,115.408
		c47.588,59.429,95.078,118.737,143.003,178.587c-43.906,0-87.095,0-130.818,0c-29.97-38.782-60.162-77.853-90.608-117.252
		c-14.02,11.655-27.689,23.019-41.6,34.584c0,27.394,0,54.852,0,82.647c-32.746,0-65.138,0-97.863,0
		C792.398,205.357,792.398,107.498,792.398,9.356z"/>
	<path style="fill:#DF3128;" d="M1190.401,426.86c-0.668-1.853-0.86-3.111,0.155-4.53c2.155-0.13,4.44-0.268,6.526-0.394
		c2.3-1.599,2.148-3.86,2.286-5.991c0.979-15.133,0.654-30.285,0.503-45.429c-0.048-4.816,0.387-9.655-0.371-14.46
		c-0.842-5.339-1.285-5.76-6.635-5.887c-0.99-0.024-1.982-0.003-2.864-0.003c-1.279-1.507-0.929-2.912-0.517-4.297
		c1.254-1.005,2.638-0.453,3.914-0.457c11.956-0.045,23.913-0.081,35.869,0.003c4.151,0.029,8.318,0.365,12.309,1.631
		c6.313,2.002,10.82,5.976,12.118,12.651c1.329,6.832-0.387,12.887-5.829,17.577c-2.624,2.261-5.69,3.83-9.285,5.547
		c3.518,1.604,6.75,2.797,9.706,4.476c10.562,6.002,13.935,18.026,8.486,28.839c-3.438,6.821-9.673,8.631-16.356,9.833
		c-8.423,1.516-16.927,1.116-25.407,0.861c-7.322-0.22-14.636-0.346-21.954,0.025C1192.244,426.895,1191.432,426.86,1190.401,426.86
		z M1216.165,386.035c0,8.7-0.061,16.965,0.045,25.228c0.025,1.966,0.45,3.968,0.972,5.877c0.725,2.655,2.175,4.915,4.963,5.795
		c6.47,2.042,14.325-1.85,16.679-8.312c1.807-4.96,1.821-10.133,0.709-15.195c-1.47-6.695-5.479-11.09-12.409-12.717
		C1223.669,385.9,1220.268,385.773,1216.165,386.035z M1216.143,380.943c8.224,1.554,14.811-0.767,18.035-6.086
		c3.695-6.097,3.459-14.774-0.54-19.803c-3.621-4.554-10.961-6.629-17.201-4.498C1215.826,360.57,1216.286,370.804,1216.143,380.943
		z"/>
	<path style="fill:#E03529;" d="M253.815,420.483c1.255,2.189,2.756,1.59,3.754,2.446c0.714,1.107,0.554,2.349,0.041,3.846
		c-8.385,0-16.804,0-25.31,0c-0.761-1.275-0.52-2.532-0.153-3.773c1.555-1.341,3.692,0.058,5.279-1.238
		c1.06-1.195,0.933-2.724,0.935-4.21c0.01-6.664-0.001-13.327,0.006-19.991c0.004-4.011-0.558-7.692-4.927-9.45
		c-1.178-0.474-1.843-1.407-1.193-3.62c5.614-2.444,11.735-5.109,17.633-7.677c2.732,2.383,1.66,5.161,2.421,7.679
		c1.679-0.024,2.219-1.656,3.258-2.503c5.714-4.659,12.077-6.082,19.144-3.902c3.656,1.128,5.975,4.002,8.268,7.265
		c3.805-3.746,7.573-6.808,12.769-7.665c10.123-1.669,17.319,3.708,18.46,13.857c0.842,7.492,0.236,14.94-0.09,22.413
		c-0.111,2.559-0.908,5.332,0.759,7.429c1.645,1.434,3.526,0.593,4.721,1.164c1.379,1.187,1.041,2.285,0.57,3.962
		c-8.164-0.291-16.376-0.697-24.24,0.173c-1.289-1.389-0.902-2.543-0.774-3.601c0.721-1.507,2.642-0.507,3.472-1.859
		c0.099-0.207,0.319-0.489,0.368-0.799c1.391-8.768,0.685-17.603,0.81-26.411c0.012-0.817-0.245-1.64-0.398-2.457
		c-0.849-4.519-2.878-6.555-6.654-6.688c-3.769-0.133-7.664,2.699-8.551,6.34c-0.272,1.119-0.305,2.315-0.308,3.477
		c-0.025,7.996-0.024,15.993,0.003,23.989c0.003,0.974,0.212,1.947,0.272,2.455c1.361,1.859,3.241,0.703,4.426,1.73
		c0.789,1.083,0.314,2.182,0.171,3.723c-8.194-0.464-16.256-0.74-23.876,0.177c-1.369-1.498-1.053-2.645-0.872-3.717
		c0.811-1.564,2.588-0.413,3.808-1.623c1.09-1.241,1.171-3.055,1.17-4.9c-0.005-6.33,0.017-12.661-0.011-18.991
		c-0.011-2.49,0.16-4.982-0.436-7.459c-1.324-5.509-7.016-7.497-11.477-3.919c-1.598,1.281-2.917,2.888-3.06,4.977
		C253.316,401.25,253.586,411.362,253.815,420.483z"/>
	<path style="fill:#E03329;" d="M876.311,421.697c1.336,1.154,3.151,0.172,4.503,1.694c0.329,0.603,0.308,1.563-0.267,3.138
		c-7.84-0.345-15.9-0.695-23.651,0.183c-1.792-1.358-1.843-2.657-0.876-4.042c1.004-0.95,2.367-0.182,3.512-1.023
		c0.147-0.259,0.43-0.663,0.618-1.107c0.661-1.562,0.818-3.223,0.82-4.893c0.009-6.995,0.016-13.99-0.035-20.985
		c-0.01-1.32-0.198-2.654-0.453-3.953c-0.956-4.868-1.939-5.87-5.784-6.083c-4.075-0.226-7.514,1.785-8.568,5.378
		c-0.601,2.049-0.881,4.255-0.917,6.396c-0.114,6.66-0.019,13.324-0.056,19.985c-0.01,1.866,0.38,3.608,1.158,5.454
		c1.002,0.35,2.072,0.725,3.009,1.052c0.874,1.207,0.402,2.359,0.475,3.801c-8.557,0-16.981,0-25.61,0
		c-1.082-1.078-1.13-2.393-0.141-3.805c1.61-1.152,3.69,0.112,5.322-1.125c0.902-0.866,0.751-2.078,0.754-3.223
		c0.018-7.328-0.076-14.658,0.045-21.984c0.061-3.688-1.096-6.476-4.513-8.162c-1.015-0.501-2.202-0.909-2.482-2.999
		c5.649-3.684,12.168-6.038,18.698-8.517c1.794,2.571,1.43,5.21,2.402,8.015c4.111-4.783,9.117-7.455,15.296-7.78
		c6.469-0.34,11.183,2.514,14.65,7.793c1.63-0.477,2.367-1.854,3.456-2.778c3.698-3.139,7.947-4.743,12.806-4.759
		c7.607-0.024,13.472,4.641,14.709,12.157c1.332,8.092,0.814,16.251,0.208,24.382c-0.197,2.641-0.735,5.281,0.686,7.446
		c1.801,1.558,3.855,0.577,5.524,1.375c1.01,0.861,1.307,1.872,0.329,3.722c-8.008-0.317-16.345-0.515-24.355,0.138
		c-1.041-1.588-0.695-2.703-0.533-3.629c0.985-1.36,2.944-0.299,3.619-1.993c1.127-9.819,1.619-19.747,0.526-29.694
		c-0.424-3.859-2.903-6.233-6.386-6.403c-4.15-0.203-8.059,2.693-8.783,6.585c-0.181,0.972-0.15,1.99-0.151,2.987
		c-0.011,7.828-0.013,15.656,0.001,23.484C875.877,419.239,875.69,420.593,876.311,421.697z"/>
	<path style="fill:#E03329;" d="M748.258,377.134c2.657,1.891,1.124,4.904,2.435,7.156c1.573-0.183,2.17-1.53,3.127-2.311
		c5.544-4.523,11.724-5.947,18.66-4.027c3.926,1.087,6.234,4.208,8.819,7.256c4.532-5.257,9.941-8.056,16.715-7.834
		c7.543,0.247,13.384,5.967,14.11,13.5c0.721,7.479,0.43,14.923-0.02,22.395c-0.165,2.743-0.754,5.641,0.547,7.948
		c1.73,1.749,3.894,0.578,5.414,1.649c0.883,1.12,0.737,2.17-0.338,3.705c-7.889-0.438-16.098-0.705-23.98,0.157
		c-1.013-1.628-0.808-2.75-0.512-3.852c0.87-1.196,2.701-0.375,3.76-2.272c1.034-9.351,1.404-19.286,0.29-29.221
		c-0.47-4.19-2.726-6.256-6.239-6.508c-3.873-0.279-7.771,2.318-8.805,5.931c-0.226,0.789-0.315,1.642-0.316,2.465
		c-0.005,8.989,0.014,17.977,0.055,26.966c0.002,0.469,0.255,0.938,0.362,1.305c1.221,1.339,3.042,0.424,4.299,1.488
		c0.48,1.023,0.64,2.11-0.353,3.584c-7.814-0.593-15.873-0.666-23.549,0.113c-1.204-1.555-0.902-2.699-0.71-3.829
		c1.037-1.5,2.965-0.145,3.907-1.139c0.831-0.762,1.156-1.544,1.176-2.383c0.112-4.656,0.243-9.314,0.24-13.971
		c-0.003-4.822-0.057-9.648-0.274-14.464c-0.123-2.726-0.733-5.414-4.017-6.103c-3.469-0.728-6.656-0.263-8.977,2.776
		c-1.241,1.624-1.951,3.511-2.02,5.541c-0.291,8.652-0.342,17.306,0.019,25.957c0.033,0.8,0.395,1.586,0.477,1.896
		c1.044,1.741,2.895,0.927,3.808,2.388c0.467,0.938,0.362,2.032-0.48,3.354c-8.249,0-16.658,0-25.132,0
		c-1.054-1.128-0.622-2.405-0.333-3.625c1.563-1.411,3.674-0.168,5.2-1.17c1.27-0.974,1.368-2.285,1.367-3.644
		c-0.006-6.993-0.02-13.985,0.003-20.978c0.014-4.125-1.112-7.546-5.309-9.253c-0.78-0.317-1.395-0.896-1.652-1.759
		C731.507,383.777,738.836,380.064,748.258,377.134z"/>
	<path style="fill:#E03429;" d="M1138.065,381.581c-1.397,0.892-3.042,0.257-4.219,2.396c1.581,8.769,4.751,17.755,7.709,28.126
		c3.498-10.262,8.329-18.773,9.928-27.878c-1.707-2.282-3.545-1.843-5.082-2.263c-0.862-1.055-0.652-2.147,0.044-3.823
		c6.496,0.409,13.21,0.187,19.901,0.071c0.13,1.016,0.192,1.502,0.314,2.457c-5.605,0.222-7.493,4.634-9.473,8.811
		c-7.751,16.35-15.384,32.755-23.139,49.102c-2.061,4.344-3.963,8.784-6.763,12.748c-2.404,3.403-5.574,5.143-9.8,4.745
		c-2.743-0.258-4.645-1.63-5.623-4.233c-0.979-2.605-0.426-4.951,1.395-6.941c1.945-2.124,4.295-2.138,6.865-1.131
		c1.637,0.642,3.186,2.008,5.582,0.874c3.588-4.779,5.73-10.718,8.472-16.894c-3.877-9.932-7.849-20.12-11.831-30.304
		c-1.511-3.865-2.94-7.768-4.615-11.561c-0.92-2.084-1.9-4.455-5.22-3.903c-0.574,0.764-1.253,1.668-2.106,2.802
		c-4.185,0-8.482,0-12.791,0c-1.017,2.109-0.716,4.122-0.729,6.071c-0.042,5.997-0.021,11.994-0.011,17.991
		c0.002,1.165,0,2.335,0.1,3.494c0.618,7.176,3.641,9.32,10.569,7.521c0.474-0.123,0.931-0.315,1.345-0.457
		c1.37,0.522,1.536,1.677,1.832,3.169c-5.89,4.084-12.452,5.927-19.621,4.685c-6.357-1.101-9.828-5.25-9.638-11.995
		c0.216-7.651,0.37-15.298,0.349-22.949c-0.006-2.141,0.309-4.31-0.292-6.518c-2.202-1.457-4.947,0.155-7.246-1.209
		c-0.686-1.592-0.282-2.766,1.289-3.647c6.61-3.708,11.999-8.91,17.264-14.25c1.205-1.222,2.313-2.494,4.478-1.31
		c0.846,3.958-0.822,8.069-0.043,12.474c13.396,0,26.791,0,39.805,0C1138.605,379.063,1138.059,380.259,1138.065,381.581z"/>
	<path style="fill:#E03429;" d="M1460.096,378.274c-0.28-8.051-0.543-15.498-0.794-22.945c-0.083-2.467-1.486-3.99-3.593-4.937
		c-1.352-0.608-2.78-1.047-4.066-1.522c-0.71-1.042-0.576-1.996-0.019-3.498c7.451-0.597,15.139-1.34,23.136-2.713
		c0,5.653,0.009,10.904-0.002,16.155c-0.036,18.3-0.108,36.6-0.076,54.899c0.004,2.087-0.094,4.416,1.954,5.789
		c1.935,1.104,4.058-0.171,6.104,0.818c0.567,1.289,0.616,2.5-1.13,2.948c-5.6,1.438-11.137,3.173-16.619,4
		c-2.371-1.517-1.622-4.3-3.446-5.88c-2.703,1.917-5.438,3.914-8.727,5.115c-13.676,4.994-24.64-5.536-26.383-14.962
		c-1.636-8.85-0.487-17.448,5.334-25.056c6.41-8.376,14.718-10.799,24.691-9.04C1457.434,377.617,1458.391,377.882,1460.096,378.274
		z M1459.385,402.734c-0.08,0-0.159-0.001-0.239-0.001c0-1.999,0.006-3.999-0.002-5.998c-0.008-2.165,0.071-4.337-0.066-6.495
		c-0.288-4.546-3.33-7.721-7.813-8.315c-4.303-0.57-7.367,1.29-9.255,6.604c-3.368,9.482-2.109,18.632,3.092,27.202
		c1.314,2.166,3.227,3.748,5.782,4.468c4.843,1.365,8.335-1.011,8.479-5.983C1459.473,410.392,1459.385,406.562,1459.385,402.734z"
		/>
	<path style="fill:#E0382B;" d="M122.603,351.884c-2.907-2.199-6.157-0.543-8.991-1.605c-1.058-1.136-0.542-2.468-0.481-3.684
		c0.603-0.85,1.464-0.763,2.284-0.763c16.492-0.005,32.984,0.032,49.476-0.036c3.788-0.016,7.574-0.391,11.609-0.614
		c2.048,6.661,3.307,13.32,4.786,19.721c-0.584,1.426-1.538,1.978-2.851,2.198c-0.365-0.207-0.897-0.355-1.197-0.703
		c-3.036-3.533-5.955-7.169-9.065-10.635c-3.401-3.79-7.796-5.622-12.861-5.691c-4.777-0.065-9.574-0.613-14.497,0.151
		c0,11.844,0,23.472,0,35.108c10.603,2.246,15.645-0.513,19.489-10.71c1.085-0.717,2.165-0.546,3.702,0.286
		c0.227,8.323-0.377,16.904,0.534,25.264c-1.147,1.094-2.244,1.151-3.697,0.811c-1.549-3.421-2.513-7.587-6.478-9.409
		c-4.201-1.93-8.707-1.648-13.641-1.433c-0.022,10.587-0.343,20.936,0.187,31.276c3.583,1.006,6.617,0.21,9.441,0.72
		c1.158,1.522,0.471,2.92,0.509,4.702c-11.934-0.108-23.542-0.46-34.921,0.149c-1.599-1.46-1.144-2.902-0.808-4.378
		c2.16-1.187,4.67,0.197,6.815-0.984C123.589,417.406,124.15,361.677,122.603,351.884z"/>
	<path style="fill:#E03228;" d="M661.643,406.247c1.189,0.473,2.027,1.194,2.383,2.691c-10.33,14.433-24.096,20.794-42.116,18.49
		c-20.795-2.659-33.277-18.992-33.969-39.194c-0.316-9.239,1.754-17.825,6.757-25.609c9.998-15.556,24.76-20.193,42.315-18.174
		c5.937,0.683,11.587,2.554,16.854,4.823c1.631-1.178,0.999-3.224,2.832-4.107c2.33-0.687,2.931,0.957,3.082,2.991
		c0.247,3.318,0.632,6.627,0.89,9.934c0.386,4.95,1.655,9.836,1.353,14.688c-0.997,1.139-2.038,1.434-3.549,0.971
		c-0.909-2.088-1.737-4.424-2.898-6.582c-4.847-9.017-11.468-15.818-22.117-17.672c-8.925-1.554-17.206,1.778-21.925,9.441
		c-5.195,8.435-6.196,17.824-5.239,27.442c0.51,5.121,1.815,10.129,3.837,14.907c2.115,4.998,5.289,9.197,9.426,12.707
		c6.406,5.435,13.834,6.049,21.646,4.544c7.754-1.495,14.408-4.981,19.335-11.357C660.831,406.805,661.278,406.55,661.643,406.247z"
		/>
	<path style="fill:#E03529;" d="M1414.394,421.787c1.672,1.05,3.496,0.165,4.851,0.839c0.89,1.528,0.254,2.735,0.057,4.174
		c-8.812,0-17.416,0-26.113,0c-1.411-0.924-0.643-2.27-0.667-3.206c1.148-1.774,3.129-0.713,4.269-1.991
		c1.278-2.356,1.255-5.035,1.325-7.68c0.189-7.146,0.51-14.295-0.024-21.439c-0.38-5.076-3.243-7.927-7.821-7.897
		c-4.611,0.03-7.925,2.871-8.152,7.648c-0.308,6.475-0.226,12.971-0.232,19.458c-0.003,3.285-0.85,6.623,0.33,9.588
		c0.883,1.436,2.384,0.749,3.378,1.643c0.898,1.274,0.203,2.745,0.402,4.702c-8.316-0.214-16.375-0.434-24.168,0.072
		c-1.394-1.453-0.983-2.75-0.76-4.023c1.16-1.324,2.954-0.185,3.701-0.758c1.52-1.088,2.018-2.11,2.027-3.34
		c0.028-3.993,0.026-7.987,0.031-11.98c0.004-3.162-0.005-6.323,0.002-9.485c0.009-4.042-0.843-7.597-4.984-9.492
		c-1.083-0.495-1.939-1.34-1.454-3.556c5.807-2.606,11.891-5.798,18.19-8.023c2.574,1.354,1.842,4.081,3.195,5.707
		c1.667,0.606,2.406-0.836,3.392-1.553c5.623-4.088,11.801-5.072,18.438-3.339c5.963,1.557,10.16,6.495,10.205,12.599
		c0.067,8.973,0.499,17.965-0.421,26.918C1413.208,419.151,1413.317,420.628,1414.394,421.787z"/>
	<path style="fill:#E03429;" d="M997.248,377.35c1.983,1.199,1.25,3.691,2.478,5.269c1.472,0.547,2.028-0.811,2.883-1.424
		c5.646-4.051,11.819-5.048,18.492-3.34c5.807,1.486,9.443,6.132,10.111,12.132c0.982,8.827-0.187,17.604-0.181,26.404
		c0.001,1.773-0.684,3.678,0.495,5.004c1.733,1.68,3.892,0.315,5.365,1.439c1.194,1.239,0.625,2.49,0.53,3.955
		c-8.885,0-17.495,0-26.126,0c-1.107-1.064-1.147-2.275-0.586-3.34c1.088-1.48,2.747-0.716,4.145-1.845
		c0.177-0.395,0.73-1.116,0.809-1.886c0.974-9.466,1.065-18.962,0.32-28.436c-0.318-4.046-3.57-6.682-7.391-6.767
		c-4.09-0.091-7.499,2.437-8.234,6.479c-0.413,2.27-0.366,4.638-0.379,6.963c-0.041,7.806-0.016,15.612-0.016,22.696
		c1.087,2.171,2.893,1.307,3.897,2.401c0.397,1.361,0.635,2.791-0.509,4.65c-7.828-0.605-15.899-0.225-23.749-0.086
		c-1.045-1.614-0.922-2.857-0.358-4.146c1.252-1.016,3.022,0.04,4.334-1.16c1.639-1.25,1.234-3.182,1.24-4.979
		c0.021-6.166-0.097-12.335,0.042-18.498c0.105-4.651-0.766-8.629-5.509-10.722c-0.625-0.276-1.065-0.782-1.158-1.511
		C980.245,383.789,991.398,378.373,997.248,377.35z"/>
	<path style="fill:#E0362A;" d="M914.181,381.603c-0.174-1.28-0.462-2.267,0.629-3.343c6.696,0,13.633,0,20.569,0
		c1.136,1.149,0.571,2.534,0.57,3.806c-0.011,9.653-0.067,19.306-0.072,28.958c-0.001,1.158,0.1,2.343,0.356,3.47
		c1.03,4.545,3.432,6.743,6.929,6.461c3.697-0.298,7.78-4.088,7.912-7.793c0.19-5.325,0.052-10.661,0.053-15.993
		c0.001-4.308,0-8.616,0-12.154c-1.766-2.73-4.222-1.83-5.828-2.902c-0.771-1.141-0.446-2.227-0.03-3.641c7.107,0,14.185,0,21.627,0
		c-0.497,13.802-1.754,27.516,0.268,40.527c2.201,2.087,4.184,0.581,5.932,1.316c0.918,0.705,0.874,1.619,0.282,2.885
		c-6.296,1.839-12.805,3.562-19.315,4.879c-1.807-2.333-1.021-4.971-2.45-7.175c-3.13,3.014-6.521,5.514-10.894,6.445
		c-10.37,2.208-15.655-1.006-19.682-11.138c-0.859-2.161-0.956-4.531-0.933-6.892c0.065-6.664,0.037-13.329,0.018-19.993
		C920.106,383.662,919.85,383.34,914.181,381.603z"/>
	<path style="fill:#E03429;" d="M531.682,378.017c0.425-4.502,0.19-9.001,1.289-13.426c2.919-11.747,14.709-23.505,30.628-21.688
		c1.347,0.154,2.617,0.454,3.843,0.989c3.306,1.443,5.409,4.314,5.161,7.25c-0.219,2.604-1.765,4.205-4.192,5.039
		c-2.992,1.028-6.424,0.143-8.568-2.399c-1.283-1.521-2.245-3.315-3.932-4.482c-4.758-0.088-7.52,2.272-7.844,7.426
		c-0.334,5.313-0.158,10.659-0.196,15.99c-0.014,1.955-0.002,3.911-0.002,6.361c4.815,0,9.229,0,13.466,0
		c0.794,2.225-0.058,3.744-0.485,5.549c-4.145,0.957-8.49-0.091-12.663,0.59c-1.038,6.486-0.75,32.445,0.39,36.289
		c1.989,1.647,4.522,0.341,6.832,1.16c1.029,1.052,0.569,2.35,0.257,4.211c-10.173-0.233-20.425-0.437-30.361,0.034
		c-1.53-1.411-1.352-2.621-0.671-3.866c1.979-1.55,4.768,0.307,6.979-2.054c0-11.503,0-23.414,0-35.562
		c-2.298-0.955-4.884,0.058-7.467-0.783c-0.507-1.797,0.015-3.505,0.134-5.068C526.738,377.936,529.579,379.849,531.682,378.017z"/>
	<path style="fill:#DF3128;" d="M491.958,428.15c-15.464,0.735-25.977-11.499-25.84-25.51c0.134-13.755,12.325-25.19,26.725-25.577
		c13.401-0.36,26.266,10.954,26.195,25.15C518.964,416.89,507.372,428.107,491.958,428.15z M501.884,402.411
		c-0.453-5.075-0.609-10.08-2.858-14.692c-1.562-3.203-3.794-5.547-7.595-5.536c-3.728,0.011-5.694,2.492-6.785,5.661
		c-3.535,10.268-3.722,20.524,0.495,30.68c1.367,3.292,3.801,4.783,7.447,4.666c3.383-0.109,5.065-2.147,6.348-4.807
		C501.388,413.297,501.336,407.742,501.884,402.411z"/>
	<path style="fill:#DF3128;" d="M696.372,428.134c-14.812,0.768-25.623-11.737-25.43-25.421
		c0.171-12.138,11.042-26.083,27.675-25.614c14.01,0.396,25.395,11.73,25.245,25.544
		C723.702,417.25,711.815,428.274,696.372,428.134z M706.726,402.571c-0.297-2.985-0.401-6.167-0.986-9.257
		c-0.522-2.754-1.392-5.489-3.155-7.79c-3.751-4.897-9.597-4.438-12.537,0.974c-1.451,2.671-2.124,5.587-2.504,8.559
		c-1.025,8.013-1.062,15.949,2.486,23.474c1.816,3.852,4.424,5.162,8.449,4.539c3.055-0.473,4.44-2.698,5.549-5.181
		C706.181,413.069,706.117,407.853,706.726,402.571z"/>
	<path style="fill:#E0382B;" d="M379.972,421.044c2.736,1.89,4.89,0.88,6.796,1.591c1.279,1.017,0.976,2.29,0.388,4.131
		c-10.063,0.046-20.28-0.399-30.109,0.153c-1.358-1.413-1.139-2.525-0.808-3.69c1.911-1.79,4.611-0.068,6.557-1.426
		c1.72-1.431,1.309-3.365,1.312-5.149c0.023-17.156,0.061-34.312-0.01-51.468c-0.028-6.722,0.548-8.178-7.403-10.958
		c-0.454-0.159-0.859-0.457-1.209-0.648c-0.665-1.018-0.626-1.956,0.001-3.244c7.917-1.88,15.712-4.967,24.296-7.942
		C379.78,369.246,379.258,395.303,379.972,421.044z"/>
	<path style="fill:#E03329;" d="M1356.895,417.739c0.783,0.673,1.278,1.098,2.002,1.72c-1.544,4.631-4.708,7.556-9.398,8.42
		c-5.599,1.031-10.189-0.763-12.875-6.048c-1.861-0.153-2.75,1.261-3.949,2.039c-4.133,2.683-8.553,4.321-13.56,4.238
		c-4.197-0.069-6.777-1.908-8.09-5.981c-2.054-6.374,0.361-12.909,6.594-16.722c3.523-2.155,7.381-3.763,11.093-5.606
		c2.067-1.026,4.202-1.933,6.256-3.629c0-2.164,0.102-4.481-0.021-6.786c-0.282-5.277-2.464-7.03-7.775-6.472
		c-1.875,0.197-3.505,0.903-4.954,2.004c-0.944,2.008-0.077,4.002-0.178,5.966c-0.207,4.01-2.971,6.852-6.948,6.943
		c-3.317,0.076-5.171-1.862-5.13-5.236c0.034-2.847,1.182-5.178,3.242-7.024c7.944-7.118,17.266-9.692,27.714-7.935
		c4.775,0.803,7.481,3.866,8.287,8.714c0.659,3.962,0.534,7.944,0.638,11.919c0.144,5.488,0.113,10.981,0.164,16.472
		c0.017,1.831,0.032,3.67,1.36,5.075C1353.868,421.115,1354.885,418.534,1356.895,417.739z M1334.995,400.821
		c-5.434,2.678-10.051,5.323-10.125,11.938c-0.041,3.692,0.441,6.972,4.661,8.293c2.749-0.936,5.42-1.927,5.453-5.49
		C1335.029,410.788,1334.995,406.014,1334.995,400.821z"/>
	<path style="fill:#E03228;" d="M206.198,396.302c0.266-3.045,0.343-5.872-0.052-8.682c-0.485-3.448-1.733-4.557-5.25-4.723
		c-2.901-0.137-5.636,0.273-7.509,2.532c-0.643,1.758,0.198,3.175,0.252,4.655c0.154,4.216-2.09,7.004-6.23,7.628
		c-3.927,0.592-6.567-1.956-5.934-5.836c0.38-2.33,1.27-4.418,3.097-6.096c7.894-7.254,17.227-9.822,27.657-8.216
		c5.501,0.847,8.593,4.768,8.746,10.515c0.186,6.989,0.088,13.986,0.212,20.978c0.064,3.614,0.148,7.254,1.363,10.479
		c2.692,1.687,3.82-0.685,5.349-1.668c2.692,0.773,2.571,2.238,1.426,4.15c-4.97,8.299-16.56,7.652-20.186,1.435
		c-0.405-0.694-1.039-1.254-1.635-1.957c-4.944,3.766-10.063,6.69-16.44,6.594c-4.504-0.068-6.708-1.421-8.325-5.61
		c-2.185-5.659-0.264-12.104,4.84-16.017c3.729-2.859,8.118-4.503,12.307-6.504C201.981,398.96,204.094,398.012,206.198,396.302z
		 M206.619,400.916c-2.574,0.847-4.359,1.991-6.02,3.277c-3.829,2.964-5.241,7.733-3.809,12.45c0.909,2.991,2.521,4.47,4.669,4.281
		c2.485-0.219,5.017-2.574,5.113-5.266C206.741,410.905,206.619,406.142,206.619,400.916z"/>
	<path style="fill:#E03529;" d="M1265.628,426.622c-0.836-1.612-0.749-2.725-0.314-3.892c1.74-1.296,3.934-0.032,6.026-1.111
		c1.484-2.074,1.416-4.765,1.46-7.368c0.092-5.323-0.036-10.649,0.047-15.972c0.07-4.502-1.15-8.202-5.59-10.188
		c-0.963-0.431-1.645-1.099-1.868-2.79c6.004-3.263,12.543-5.715,19.033-8.437c2.547,3.162,0.743,6.983,2.735,9.967
		c1.444-1.026,1.89-2.658,2.823-3.904c2.363-3.157,5.206-5.602,9.164-6.435c2.783-0.585,5.449,0.334,6.573,2.417
		c1.25,2.318,1.427,4.771,0.021,7.139c-1.807,3.044-5.478,4.282-9.082,3.167c-1.705-0.528-3.284-1.764-5.714-0.849
		c-1.803,1.753-2.938,4.359-2.989,7.199c-0.146,7.982-0.048,15.97-0.006,23.955c0.003,0.627,0.326,1.252,0.457,1.722
		c2.305,2.027,5.043,0.513,7.384,1.427c1.119,1.076,1.14,2.246-0.101,3.983C1285.793,425.98,1275.585,426.025,1265.628,426.622z"/>
	<path style="fill:#E03529;" d="M1041.683,426.961c-0.895-1.648-0.793-2.76-0.398-3.972c1.857-1.366,4.237,0.015,6.455-1.155
		c1.297-4.666,1.287-9.632,1.023-14.548c-0.232-4.314-0.48-8.621-0.384-12.938c0.074-3.31-1.047-5.767-4.226-7.192
		c-1.671-0.749-1.602-0.905-2.253-3.683c7.088-2.367,14.16-4.91,22.084-6.811c0,15.231,0,29.949,0,44.191
		c2.15,2.379,4.658,0.896,6.514,1.885c0.915,1.276,0.861,2.483-0.13,4.098C1060.982,426.794,1051.389,426.334,1041.683,426.961z"/>
	<path style="fill:#E03529;" d="M347.28,421.686c2.684,1.305,4.891,0.018,6.685,1.232c1.062,1.214,0.801,2.399-0.35,3.964
		c-9.353-0.109-18.97-0.574-28.163,0.103c-1.826-1.342-1.233-2.638-1.114-3.722c2.025-1.706,4.499-0.152,6.679-1.628
		c1.407-6.694,0.839-13.67,0.628-20.597c-0.07-2.311-0.317-4.647-0.251-6.965c0.09-3.166-0.972-5.535-4.022-6.755
		c-1.661-0.665-3.113-1.404-2.103-3.913c6.809-2.411,13.868-4.671,21.745-6.786c0,7.85-0.004,15.257,0.001,22.663
		C347.02,406.727,346.993,414.174,347.28,421.686z"/>
	<path style="fill:#DF3128;" d="M337.938,353.842c4.871-0.087,8.527,2.935,8.517,7.04c-0.009,3.848-3.603,7.034-8.036,7.125
		c-4.729,0.096-8.413-3.028-8.424-7.142C329.985,356.809,333.246,353.926,337.938,353.842z"/>
	<path style="fill:#DF3128;" d="M1054.671,353.84c4.757-0.068,8.152,2.666,8.333,6.711c0.189,4.219-3.361,7.455-8.18,7.456
		c-4.576,0.001-7.993-2.991-8.061-7.059C1046.694,356.809,1049.921,353.908,1054.671,353.84z"/>
</g>
</svg>
