<?xml version="1.0" encoding="iso-8859-1"?>
<!-- Generator: Adobe Illustrator 27.0.0, SVG Export Plug-In . SVG Version: 6.00 Build 0)  -->
<svg version="1.1" id="Layer_1" xmlns="http://www.w3.org/2000/svg" xmlns:xlink="http://www.w3.org/1999/xlink" x="0px" y="0px"
	 viewBox="0 0 548 630.109" style="enable-background:new 0 0 548 630.109;" xml:space="preserve">
<g>
	<path style="fill:#214A87;" d="M275,630.109c-0.667,0-1.333,0-2,0c-1.097-1.505-2.924-1.39-4.429-1.852
		c-79.34-24.323-141.557-71.316-186.652-140.955c-25.047-38.679-42.412-80.759-54.943-124.95
		c-6.716-23.686-11.78-47.743-15.781-72.02c-3.137-19.036-5.426-38.193-7.101-57.41c-1.618-18.556-2.634-37.156-3.255-55.774
		c0.006-3.33,0.011-6.661,0.017-9.991c0.143-14.041,0.311-28.081-0.087-42.121c0.371-3.658,0.323-7.317,0.041-10.977
		C1.5,99.605,2.101,85.148,2.911,70.702C3.544,59.408,4.236,48.11,5.291,36.85c0.597-6.37,0.589-12.838,2.132-19.305
		c1.729,0.736,3.26,1.371,4.777,2.034c36.552,15.979,74.428,26.435,114.551,27.654c18.371,0.558,36.585-0.754,54.576-4.521
		c32.878-6.884,62.616-20.725,89.51-40.782c1.04-0.775,1.937-1.867,3.607-1.931c1.093,0.765,2.328,1.592,3.523,2.472
		c33.943,25.007,71.691,40.057,113.831,43.869c21.854,1.977,43.576,1.05,65.154-2.589c27.634-4.66,54.15-13.102,79.72-24.557
		c1.26-0.564,2.466-1.653,4.288-1.163c3.238,31.28,5.044,62.637,6.186,94.04c-0.198,3.655-0.313,7.31,0.083,10.961
		c-0.391,15.373-0.227,30.746-0.086,46.12c-0.203,3.003-0.283,6.005,0.05,9.005c-0.565,12.625-1.204,25.244-2.014,37.858
		c-1.003,15.615-2.449,31.187-4.406,46.698c-3.038,24.09-7.136,48.002-12.607,71.681c-10.18,44.053-24.822,86.451-46.308,126.342
		c-18.206,33.801-40.786,64.331-68.725,90.744c-35.727,33.776-77.225,57.923-123.734,73.643
		C284.591,626.752,279.497,627.581,275,630.109z M23.113,43.869c-1.03,1.276-0.956,2.121-1.005,2.948
		c-0.435,7.309-0.781,14.624-1.34,21.923c-1.564,20.414-2.234,40.873-2.569,61.326c-0.447,27.302-0.012,54.6,1.644,81.88
		c1.201,19.776,2.883,39.501,5.411,59.138c2.845,22.101,6.688,44.045,11.819,65.746c9.016,38.138,21.624,74.968,39.961,109.708
		c22.774,43.147,53.02,80.051,91.687,109.971c31.164,24.115,65.655,42.112,102.301,56.238c2.411,0.929,4.392,0.526,6.655-0.338
		c18.952-7.236,37.37-15.62,55.14-25.413c62.175-34.261,109.319-83.011,141.269-146.443c24.786-49.208,38.63-101.696,46.778-155.879
		c2.921-19.421,4.953-38.947,6.379-58.545c1.426-19.587,2.353-39.191,2.604-58.82c0.247-19.314,0.132-38.626-0.574-57.941
		c-0.638-17.463-1.591-34.905-2.618-52.345c-0.252-4.279-0.696-8.547-1.052-12.826c-2.531-0.289-4.469,0.842-6.493,1.48
		c-26.547,8.369-53.573,14.553-81.304,17.229c-22.277,2.15-44.522,1.853-66.712-1.626c-31.535-4.944-60.549-16.135-86.868-34.23
		c-3.406-2.341-6.743-4.782-9.878-7.01c-0.55,0.09-0.746,0.067-0.865,0.151c-1.222,0.862-2.439,1.733-3.645,2.618
		c-15.502,11.37-32.179,20.565-50.194,27.335c-35.798,13.451-72.823,16.349-110.547,12.652
		c-24.553-2.406-48.572-7.656-72.204-14.693C32.305,46.738,27.742,45.294,23.113,43.869z"/>
	<path style="fill:#94A8C5;" d="M547.143,169.154c-0.141-15.374-0.305-30.747,0.086-46.12l0.392-0.026l0.379,0.1
		c0,15.333,0,30.667,0,46C547.715,169.139,547.429,169.154,547.143,169.154z"/>
	<path style="fill:#94A8C5;" d="M0.768,125.035c0.399,14.04,0.23,28.08,0.087,42.121c-0.286-0.002-0.571-0.018-0.856-0.048
		c0-14,0-28,0-42l0.378-0.104L0.768,125.035z"/>
	<path style="fill:#C5D0DE;" d="M548,123.109l-0.379-0.1l-0.392,0.026c-0.396-3.651-0.281-7.305-0.083-10.961
		c0.286-0.013,0.571-0.001,0.854,0.035C548,115.775,548,119.442,548,123.109z"/>
	<path style="fill:#C5D0DE;" d="M0.768,125.035l-0.391-0.03L0,125.109c0-3.667,0-7.333,0-11c0.265-0.09,0.535-0.106,0.81-0.051
		C1.092,117.718,1.139,121.378,0.768,125.035z"/>
	<path style="fill:#C5D0DE;" d="M0,167.109c0.285,0.03,0.57,0.046,0.856,0.048c-0.006,3.33-0.011,6.661-0.017,9.991l-0.421,0.013
		L0,177.109C0,173.775,0,170.442,0,167.109z"/>
	<path style="fill:#C5D0DE;" d="M547.143,169.154c0.286,0,0.572-0.016,0.857-0.046c0,3,0,6,0,9l-0.4,0.082l-0.407-0.031
		C546.86,175.16,546.94,172.157,547.143,169.154z"/>
	<path style="fill:#1F4986;" d="M243.9,577.502c-22.432-11.779-43.864-25.111-63.796-40.809
		c-42.983-33.854-74.978-76.153-97.098-126.068c-12.499-28.204-21.437-57.546-27.958-87.653
		c-5.781-26.691-9.507-53.699-11.852-80.887c-1.344-15.583-2.045-31.211-2.625-46.85c-0.661-17.819-0.803-35.632-0.282-53.437
		c0.506-17.29,0.876-34.596,2.346-51.848c0.438-5.138,0.693-10.292,1.022-15.44c0.053-0.836,0.067-1.672,1.005-2.529
		c6.985,1.817,14.153,3.804,21.38,5.541c25.318,6.085,50.945,9.836,77.049,9.46c46.104-0.663,87.94-14.233,125.13-41.697
		c1.864-1.377,3.729-2.753,5.8-4.281c7.893,5.919,15.874,11.58,24.308,16.567c25.237,14.92,52.379,24.09,81.507,27.656
		c28.217,3.455,56.108,1.434,83.906-3.824c12.747-2.411,25.324-5.452,37.766-9.093c0.631-0.185,1.308-0.209,2.095-0.328
		c1.108,1.975,1.045,4.164,1.169,6.263c1.022,17.272,2.024,34.543,2.623,51.84c0.519,14.985,0.768,29.968,0.558,44.952
		c-0.34,24.291-1.463,48.542-3.711,72.751c-2.896,31.179-7.665,62.031-15.274,92.406c-10.401,41.521-25.84,80.972-48.981,117.183
		c-27.3,42.72-63.231,76.569-106.172,103.201c-0.83,0.515-1.595,1.213-3.006,1.204c-0.162-44.267,0.962-88.519,1.209-133.15
		c-14.637-8.479-29.272-16.956-43.907-25.434c-0.688-0.111-1.118,0.247-1.443,0.795c-14.572,6.625-28.522,14.441-42.535,21.597
		c0,2.233,0,3.884,0,5.535c-0.122,5.67-0.389,11.34,0.114,17.006c-0.209,4.338-0.375,8.676,0.079,13.01
		c-0.252,4.353-0.685,8.71,0.334,13.03c-0.571,4.997-0.931,9.992,0.17,14.97c0.069,6.658,0.138,13.316,0.207,19.974
		c-0.339,5.672-0.108,11.34,0.128,17.008c-0.169,6.342-0.489,12.686,0.191,19.02c-0.376,6.313-0.348,12.627-0.057,18.941
		c-0.264,1.004-0.258,1.974,0.371,2.862c-0.002,0.772-0.005,1.545-0.007,2.317c-0.771,1.734-0.318,3.572-0.445,5.36
		C245.14,575.756,245.31,576.986,243.9,577.502z M313.776,127.689c-8.755-1.92-17.156-3.799-25.581-5.562
		c-1.092-0.229-2.331,0.029-3.465,0.249c-24.254,4.708-47.683,11.962-69.58,23.537c-63.967,33.815-105.318,85.238-120.558,156.518
		c-4.531,21.194-4.621,42.623,0.466,63.859c4.11,17.155,11.568,32.58,24.455,44.932c16.731,16.037,37.34,21.772,59.887,21.442
		c11.481-0.168,22.803-2.125,33.938-5.131c21.323-5.757,41.164-14.936,60.323-25.731c4.61-2.597,9.14-5.336,13.684-7.996
		c15.881,9.288,31.504,18.426,47.115,27.556c19.614-9.184,37.592-20.862,57.12-30.72c-6.863-5.546-11.392-12.234-14.929-19.446
		c-10.117,1.987-19.872,2.232-29.681,0.947c-3.457-0.453-6.24-1.856-8.434-4.695c-3.295-4.266-5.655-8.996-7.53-13.99
		c-4.766-12.69-7.048-25.969-8.939-39.302c-2.992-21.099-4.495-42.349-5.881-63.6c-1.483-22.741-2.781-45.495-4.139-68.244
		c-0.356-5.966-0.632-11.936-0.932-17.652c1.155-1.598,3.102-1.861,3.869-3.684C315.122,150.007,313.981,138.939,313.776,127.689z
		 M310.75,122.795c0.71-10.302-12.423-17.461-21.913-17.793c-10.05-0.351-24.284,6.761-23.898,17.793
		c6.154-1.488,12.252-2.923,18.327-4.45c2.931-0.737,5.765-0.974,8.773-0.158C298.126,119.837,304.284,121.22,310.75,122.795z"/>
	<path style="fill:#B4C2D6;" d="M245.666,569.262c0.002-0.772,0.005-1.545,0.007-2.317c0.133-0.939,0.266-1.878,0.4-2.817
		c7.036-1,13.964-2.635,20.747-4.619c3.736-1.093,7.603-0.76,11.18-1.98c3.214-1.096,6.422-1.584,9.77-1.46
		c0,9.588,0,19.176,0,28.772c-3.52,2.562-7.393,4.057-11.107,5.817c-1.855,0.879-3.921,0.786-5.772-0.182
		c-8.198-4.288-17.015-7.31-24.93-12.174C245.929,575.286,246.481,572.252,245.666,569.262z"/>
	<path style="fill:#889EBF;" d="M245.04,509.114c-0.069-6.658-0.138-13.316-0.207-19.974c5.73,0.49,11.029-1.686,16.519-2.68
		c8.726-1.58,17.23-4.485,26.237-4.381c0.53,6.324,0.404,12.65,0.039,18.976c-2.454,0.227-4.904,0.326-7.367,0.664
		c-3.784,0.52-7.393,1.615-11.103,2.289C261.065,505.48,253.049,507.267,245.04,509.114z"/>
	<path style="fill:#A8B8D0;" d="M287.769,556.069c-3.348-0.124-6.556,0.364-9.77,1.46c-3.577,1.219-7.444,0.887-11.18,1.98
		c-6.782,1.984-13.711,3.62-20.747,4.619c-0.256-0.029-0.513-0.044-0.771-0.045c-0.29-6.315-0.319-12.629,0.057-18.941
		c2.905-0.522,5.854-0.869,8.707-1.596c11.142-2.839,22.575-4.351,33.65-7.478C288.135,542.734,287.997,549.401,287.769,556.069z"/>
	<path style="fill:#9DAFCA;" d="M287.716,536.068c-11.075,3.126-22.509,4.639-33.65,7.478c-2.853,0.727-5.802,1.074-8.707,1.596
		c-0.68-6.334-0.36-12.678-0.191-19.02c6.896-0.526,13.595-2.193,20.286-3.766c7.357-1.729,14.596-3.971,22.22-4.278
		C288.129,524.074,288.001,530.071,287.716,536.068z"/>
	<path style="fill:#94A8C5;" d="M287.675,518.078c-7.624,0.307-14.863,2.549-22.22,4.278c-6.691,1.572-13.39,3.24-20.286,3.766
		c-0.236-5.668-0.467-11.336-0.128-17.008c8.008-1.847,16.025-3.634,24.118-5.105c3.709-0.674,7.319-1.769,11.103-2.289
		c2.462-0.338,4.913-0.438,7.367-0.664C288.128,506.728,288.012,512.403,287.675,518.078z"/>
	<path style="fill:#6683AD;" d="M244.25,448.13c-0.503-5.665-0.236-11.336-0.114-17.006c5.599-1.337,11.161-2.86,16.809-3.944
		c3.538-0.679,7.131-1.109,10.685-1.788c5.328-1.018,10.295-3.777,15.926-3.304c0.484,5.659,0.433,11.318-0.011,16.977
		c-5.48,0.965-11.05,1.581-16.419,2.972C262.222,444.345,253.167,445.923,244.25,448.13z"/>
	<path style="fill:#7F97BA;" d="M287.589,482.079c-9.007-0.104-17.511,2.801-26.237,4.381c-5.49,0.994-10.788,3.17-16.519,2.68
		c-1.101-4.978-0.741-9.973-0.17-14.97c0.66-0.023,1.34,0.047,1.978-0.083c10.421-2.13,20.847-4.239,31.248-6.462
		c3.208-0.686,6.325-1.834,9.683-1.538C288.089,471.417,288.002,476.748,287.589,482.079z"/>
	<path style="fill:#7790B6;" d="M287.572,466.086c-3.358-0.296-6.475,0.852-9.683,1.538c-10.401,2.223-20.827,4.332-31.248,6.462
		c-0.638,0.13-1.318,0.06-1.978,0.083c-1.019-4.32-0.586-8.677-0.334-13.03c1.317-0.052,2.611-0.382,3.889-0.526
		c3.01-0.34,5.428-2.548,8.483-2.487c4.347,0.086,8.427-1.224,12.591-2.179c6.067-1.391,12.18-2.581,18.274-3.857
		C288.073,456.756,288.005,461.421,287.572,466.086z"/>
	<path style="fill:#6F8BB2;" d="M287.565,452.091c-6.093,1.276-12.207,2.466-18.274,3.857c-4.164,0.955-8.243,2.265-12.591,2.179
		c-3.056-0.06-5.473,2.147-8.483,2.487c-1.278,0.144-2.572,0.475-3.889,0.526c-0.454-4.334-0.288-8.672-0.079-13.01
		c8.917-2.207,17.973-3.785,26.875-6.093c5.369-1.392,10.939-2.008,16.419-2.972C288.058,443.406,287.987,447.748,287.565,452.091z"
		/>
	<path style="fill:#5D7CA9;" d="M287.555,422.088c-5.631-0.473-10.598,2.286-15.926,3.304c-3.554,0.679-7.147,1.109-10.685,1.788
		c-5.647,1.084-11.21,2.607-16.809,3.944c0-1.651,0-3.301,0-5.535c14.012-7.156,27.963-14.972,42.535-21.597
		c0.321,0.066,0.644,0.112,0.971,0.137C287.935,410.117,288.019,416.104,287.555,422.088z"/>
	<path style="fill:#9DAFCA;" d="M245.666,569.262c0.816,2.99,0.263,6.024,0.294,9.039c-0.767-0.059-1.602,0.057-2.059-0.799
		c1.41-0.517,1.24-1.746,1.32-2.88C245.348,572.834,244.895,570.997,245.666,569.262z"/>
	<path style="fill:#6683AD;" d="M287.641,404.129c-0.327-0.025-0.65-0.071-0.971-0.137c0.325-0.548,0.755-0.906,1.443-0.795
		C287.956,403.508,287.798,403.819,287.641,404.129z"/>
	<path style="fill:#9DAFCA;" d="M245.302,564.083c0.258,0.001,0.515,0.016,0.771,0.045c-0.133,0.939-0.266,1.878-0.4,2.817
		C245.044,566.057,245.038,565.087,245.302,564.083z"/>
	<path style="fill:#1F4986;" d="M260.457,149.51c0,3.841,0,7.772,0,12.055c0.934,0.716,2.107,1.614,3.469,2.658
		c0.371,6.206-0.249,12.478-0.549,18.765c-0.618,12.963-1.046,25.935-1.577,38.902c-1.007,24.601-2.407,49.184-4.902,73.679
		c-1.886,18.521-4.373,36.978-9.826,54.88c-0.048,0.159-0.062,0.328-0.105,0.488c-3.663,13.671-11.194,24.08-24.079,30.775
		c-11.255,5.848-22.533,11.218-35.082,13.758c-26.318,5.327-49.227-5.02-62.284-28.574c-6.304-11.373-9.62-23.691-10.574-36.592
		c-2.976-40.262,10.099-75.607,33.879-107.357c20.17-26.931,46.326-46.575,76.671-60.808c10.68-5.009,21.682-9.182,32.944-12.681
		C259.085,149.259,259.689,149.038,260.457,149.51z"/>
</g>
</svg>
