<?xml version="1.0" encoding="iso-8859-1"?>
<!-- Generator: Adobe Illustrator 27.0.0, SVG Export Plug-In . SVG Version: 6.00 Build 0)  -->
<svg version="1.1" id="Layer_1" xmlns="http://www.w3.org/2000/svg" xmlns:xlink="http://www.w3.org/1999/xlink" x="0px" y="0px"
	 viewBox="0 0 1728 312" style="enable-background:new 0 0 1728 312;" xml:space="preserve">
<g>
	<path style="fill:#1058A8;" d="M211.79,254.375c0-12.443,0-24.886,0-37.808c-29.978,3.048-59.513,6.052-89.061,9.056
		c-17.182,25.418-34.212,50.614-51.371,75.999c-3.731,1.603-7.979,1.49-12.044,2.036c-17.286,2.322-34.616,4.323-51.926,6.465
		C4.926,310.429,2.516,311.158,0,311c0-0.333,0-0.667,0-1c1.245-0.022,1.506-1.123,2.006-1.901
		c2.337-3.633,4.634-7.293,6.939-10.946c21.37-33.87,42.726-67.75,64.112-101.61c23.604-37.373,47.236-74.729,70.855-112.093
		c5.135-8.124,10.262-16.252,15.431-24.439c16.296,1.811,32.027,5.003,47.489,9.534c18.489,5.418,36.258,12.654,53.456,21.315
		c1.177-0.177,1.772,1.023,2.806,1.184c1.868,2.427,1.564,5.331,1.705,8.105c0.685,13.449,1.313,26.901,1.96,40.351
		c1.039,21.589,2.076,43.178,3.115,64.766c0.743,15.444,1.486,30.889,2.229,46.333c-10.645,2.833-21.584,3.647-32.496,4.282
		c-8.138,0.474-16.326,0.106-24.491,0.074C213.993,254.951,212.765,255.32,211.79,254.375z M206.654,86.642
		c-18.93,31.444-37.586,61.856-56.317,93.247c20.236-2.713,39.388-5.28,58.92-7.898C208.391,143.609,207.541,115.725,206.654,86.642
		z"/>
	<path style="fill:#1158A8;" d="M1103,0c-0.034,1.831-0.099,3.662-0.099,5.493c-0.005,69.145-0.004,138.289-0.004,207.434
		c0,1.816,0,3.631,0,5.385c-3.728,1.023-33.763,1.362-43.409,0.495c0-8.007,0-16.088,0-24.462c-2.182,0.774-2.304,2.396-2.931,3.591
		c-6.773,12.913-17.195,21.496-31.622,23.411c-21.209,2.814-41.352-3.65-53.274-24.972c-5.934-10.613-8.954-22.106-10.612-34.028
		c-1.52-10.928-1.647-21.936-0.974-32.905c0.88-14.347,3.808-28.307,9.922-41.424c5.733-12.298,14.165-22.096,26.896-27.56
		c5.694-2.444,11.754-3.186,17.929-3.829c6.452-0.672,12.591-0.22,18.706,1.627c8.708,2.63,15.851,7.508,21.238,14.897
		c0.558,0.765,0.909,1.793,2.267,2.135c0-21.55,0-43.013,0-64.858c8.047-1.836,15.933-3.655,23.829-5.43
		c6.314-1.419,12.642-2.774,18.955-4.197c0.433-0.098,0.791-0.527,1.183-0.802C1101.667,0,1102.333,0,1103,0z M1056.96,140.011
		c-0.1-9.335,0.314-17.992-0.924-26.598c-0.834-5.797-2.207-11.371-5.521-16.343c-6.134-9.202-20.378-10.215-28.168-3.205
		c-4.617,4.155-7.411,9.333-9.293,15.084c-2.699,8.253-3.746,16.772-4.42,25.422c-0.833,10.687-0.358,21.257,1.409,31.769
		c1.027,6.109,3.037,11.993,7.465,16.565c5.539,5.72,12.603,7.634,20.114,5.705c7.659-1.967,13.985-6.231,16.28-14.5
		c0.928-3.342,1.492-6.789,2.141-10.204C1057.581,155.626,1056.678,147.449,1056.96,140.011z"/>
	<path style="fill:#EB3829;" d="M1047,312c-0.575-1.579-1.946-0.944-2.983-0.974c-3.701-0.105-7.251-0.969-10.701-2.169
		c-6.791-2.361-11.314-8.526-10.863-15.641c0.76-11.981,0.139-23.958,0.39-35.934c0.034-1.623,0.005-3.247,0.005-5.065
		c6.173,0,11.932,0,17.697,0c1.087,1.165,0.574,2.561,0.58,3.813c0.047,10.66,0.047,21.32,0.012,31.98
		c-0.008,2.518,0.059,4.981,1.572,7.353c2.012,0.821,4.147,1.692,6.292,2.568c2.222-0.905,4.36-1.776,6.386-2.602
		c1.243-2.085,1.477-4.192,1.482-6.383c0.022-10.492,0.083-20.984,0.127-31.476c0.007-1.638,0.001-3.277,0.001-5.193
		c4.668,0,9.079,0,13.59,0c1.069,1.034,0.53,2.443,0.536,3.69c0.048,11.326,0.018,22.653,0.035,33.979
		c0.004,2.676-0.277,5.274-1.056,7.868c-2.152,7.167-6.603,11.768-14.088,13.175c-0.778,0.146-1.704-0.05-2.015,1.01
		C1051.667,312,1049.333,312,1047,312z"/>
	<path style="fill:#1358A8;" d="M191.352,20.344c7.519-1.38,14.669-4.047,21.945-6.276c13.456-4.123,26.923-8.21,40.352-12.42
		C254.783,1.293,256.383,1.533,257,0c0.667,0,1.333,0,2,0c0.722,14.364,1.454,28.728,2.153,43.094
		c0.073,1.501,0.172,2.97,0.834,4.346c-0.14,0.647-0.28,1.293-0.511,2.359c-23.485-11.679-47.882-20.646-73.212-27.206
		C189.054,20.927,190.514,21.137,191.352,20.344z"/>
	<path style="fill:#2D60AD;" d="M1728,84c-1.911,3.205-2.719,6.922-5.209,9.908c-5.839,7.005-13.886,9.934-21.629,7.474
		c-8.409-2.672-14.021-9.938-14.592-18.892c-0.541-8.476,4.766-16.84,12.466-20.467c11.943-5.626,24.284,4.136,27.365,13.082
		c0.441,1.28-0.197,3.148,1.6,3.896C1728,80.667,1728,82.333,1728,84z M1690.893,80.972c0.041,9.778,7.27,17.249,16.719,17.277
		c9.795,0.028,17.406-8.202,17.232-18.633c-0.145-8.664-8.463-16.703-17.283-16.572
		C1698.135,63.184,1689.987,71.683,1690.893,80.972z"/>
	<path style="fill:#1158A8;" d="M1430.642,84.728c1.985-3.112,3.492-5.672,5.19-8.1c7.512-10.74,18.227-16.598,30.838-18.328
		c11.821-1.621,23.51-0.353,34.552,5.06c14.58,7.149,21.943,18.863,22.677,34.827c0.344,7.482,0.097,14.992,0.098,22.49
		c0.005,31.493,0.003,62.985,0.003,94.478c0,1.142,0,2.284,0,3.696c-15.37,0-30.419,0-45.562,0
		c-0.781-1.815-0.383-3.663-0.385-5.444c-0.036-27.16-0.023-54.32-0.039-81.481c-0.004-7.326-0.138-14.634-0.966-21.941
		c-1.123-9.904-10.142-16.85-20.1-15.548c-6.465,0.845-12.359,2.454-16.73,7.691c-1.623,1.945-2.821,3.981-3.408,6.528
		c-1.279,5.548-1.895,11.139-1.897,16.815c-0.013,29.159-0.026,58.319-0.039,87.479c-0.001,1.815,0,3.63,0,5.373
		c-3.831,1.019-41.771,1.176-46.862,0.245c-0.636-1.738-0.303-3.573-0.305-5.365c-0.027-24.328,0.235-48.659-0.146-72.981
		c-0.146-9.293,1.17-18.615-0.43-27.901c-0.483-2.802-1.039-5.543-2.128-8.158c-1.62-3.889-4.41-6.864-8.364-8.083
		c-11.523-3.554-25.03-1.346-29.697,12.96c-2.353,7.212-2.889,14.643-2.883,22.152c0.023,27.327,0.047,54.653,0.07,81.98
		c0.002,1.8,0,3.6,0,5.68c-15.397,0-30.444,0-45.723,0c0-50.486,0-100.755,0-151.735c13.887-3.817,28.225-6.898,42.816-10.434
		c1.043,4.863,0.388,9.471,0.507,14.026c0.121,4.644,0.027,9.293,0.499,14.182c3.978-6.096,7.672-12.278,13.333-16.909
		c5.788-4.735,12.338-7.802,19.632-9.25c7.091-1.407,14.228-1.33,21.329-0.062c7.328,1.308,13.908,4.435,19.912,8.758
		C1422.504,71.797,1426.719,77.771,1430.642,84.728z"/>
	<path style="fill:#1058A8;" d="M461.108,217.788c-14.708,0-28.831,0-43.456,0c20.664-66.18,41.223-132.024,61.874-198.16
		c20.398-5.144,40.765-10.281,61.671-15.553c22.196,71.324,44.261,142.23,66.466,213.587c-17.191,0-33.887,0-50.88,0
		c-4.31-14.737-8.63-29.511-12.97-44.352c-23.27,0-46.218,0-69.52,0C469.906,188.109,465.531,202.866,461.108,217.788z
		 M510.152,60.424c-10.544,30.611-21.871,70.771-21.743,74.49c14.425,0,28.852,0,43.933,0
		C524.868,109.825,517.51,85.124,510.152,60.424z"/>
	<path style="fill:#1358A8;" d="M933.508,218.982c-14.883,0-29.355,0-44.243,0c0-7.716,0-15.474,0-23.856
		c-1.933,1.308-2.504,2.821-3.41,4.037c-11.297,15.168-26.21,22.953-45.313,22.78c-9.603-0.087-18.93-1.179-27.719-5.149
		c-13.172-5.949-20.521-16.302-22.883-30.499c-2.237-13.448,0.225-25.782,8.012-36.989c6.075-8.742,14.217-14.915,24.221-18.412
		c19.092-6.674,38.703-10.757,59.005-11.078c1.164-0.018,2.331-0.074,3.49-0.187c0.817-0.08,1.622-0.286,2.988-0.539
		c-0.19-6.467-0.504-12.795-2.076-19.095c-1.244-4.986-4.065-8.169-8.864-9.801c-7.915-2.691-16.087-3.694-23.958-0.838
		c-8.812,3.196-14.681,9.54-16.009,19.3c-0.089,0.654-0.241,1.301-0.39,1.945c-0.034,0.148-0.179,0.27-0.502,0.732
		c-13.335,0-26.902,0-40.714,0c-0.978-5.13,0.661-9.914,2.201-14.52c4.581-13.693,13.41-23.934,26.23-30.667
		c11.553-6.068,23.994-8.583,36.908-9.238c9.148-0.464,18.275-0.451,27.333,1.117c11.47,1.986,22.172,6.03,31.393,13.182
		c7.091,5.5,11.078,13.157,12.774,21.948c1.745,9.042,1.656,18.217,1.675,27.363c0.065,31.991,0.034,63.982,0.031,95.973
		C933.688,217.136,933.598,217.782,933.508,218.982z M887.155,143.118c-2.608,0.347-4.729,0.594-6.839,0.917
		c-9.334,1.431-18.668,2.846-27.369,6.845c-4.127,1.897-7.829,4.328-10.741,7.856c-4.093,4.959-4.554,10.843-4.357,16.924
		c0.25,7.733,4.856,13.992,12.203,16.422c10.76,3.559,25.72-2.74,31.606-13.377C887.76,167.68,889.097,155.889,887.155,143.118z"/>
	<path style="fill:#EB3929;" d="M191.352,20.344c-0.838,0.793-2.298,0.583-3.089,2.249c25.33,6.56,49.726,15.527,73.212,27.206
		c0.231-1.066,0.371-1.712,0.511-2.359c22.961,12.328,42.988,28.374,60.288,47.822c11.66,13.108,21.715,27.325,29.005,43.363
		c6.527,14.36,10.975,29.282,10.675,45.204c-0.489,25.995-11.937,45.806-34.275,59.239c-12.271,7.379-25.642,11.504-39.687,13.94
		c-18.646,3.235-37.403,3.591-56.224,2.862c-15.179-0.588-29.975-3.76-44.769-6.898c-0.524-0.111-0.857-0.401-0.909-0.959
		l-0.042,0.05c4.884-0.871,9.548,0.909,14.338,1.206c3.809,0.237,7.603,0.727,11.404,1.105c0.975,0.945,2.204,0.576,3.325,0.58
		c8.165,0.032,16.353,0.4,24.491-0.074c10.912-0.635,21.851-1.449,32.496-4.282c4.487-1.202,9.063-2.143,13.443-3.655
		c11.754-4.056,22.498-9.819,31.061-19.138c9.839-10.707,14.383-23.469,14.014-37.796c-0.389-15.096-5.571-28.892-13.054-41.871
		c-11.634-20.179-27.322-36.769-45.523-51.082c-2.81-2.21-5.298-5.014-8.95-6.014c-1.034-0.162-1.629-1.362-2.806-1.184
		c0.086-2.192-1.879-2.558-3.174-3.403c-16.511-10.773-34.231-19.041-52.868-25.397c-24.286-8.283-49.322-12.443-74.917-12.78
		c-19.032-0.25-37.904,1.666-56.084,7.798c-14.39,4.853-27.46,12.033-37.547,23.668c-12.547,14.471-17.74,31.195-15.112,50.378
		c1.873,13.671,7.383,25.766,14.637,37.249c0.704,1.115,1.333,2.277,1.997,3.417c-0.277,0.301-0.553,0.602-0.83,0.904
		c-7.335-7.903-12.366-17.267-16.895-26.917c-5.71-12.166-9.122-24.928-9.501-38.434C9.493,88.484,14.98,72.626,25.987,58.662
		c10.342-13.12,23.754-22.111,38.964-28.677C81.26,22.946,98.334,19,115.898,16.807c7.119-0.889,14.262-1.259,21.406-1.517
		c16.367-0.591,32.562,1.104,48.623,4.217C187.723,19.854,189.544,20.068,191.352,20.344z"/>
	<path style="fill:#1058A8;" d="M1273.126,147.074c-33.852,0-67.13,0-100.633,0c-1.006,10.964-0.367,21.226,6.657,30.049
		c11.263,14.148,29.252,15.586,42.609,5.355c5.78-4.428,8.644-10.792,9.663-18.209c14.176,0,28.269,0,42.76,0
		c0.033,4.075-1.305,7.817-2.754,11.387c-10.762,26.519-30.564,41.453-58.783,45.468c-12.565,1.788-24.944,0.633-37.008-2.984
		c-22.568-6.766-38.254-21.492-46.088-43.508c-9.255-26.009-8.145-52.127,3.995-77.069c10.881-22.356,29.137-35.189,53.927-38.747
		c15.746-2.259,30.823-0.54,45.26,6.196c13.614,6.352,23.711,16.21,30.31,29.814C1270.987,111.202,1274.28,128.373,1273.126,147.074
		z M1171.082,120.61c18.973,0,37.355,0,55.962,0c0.62-8.408-1.151-15.978-5.27-23.035c-2.072-3.549-5.003-6.145-8.627-8.033
		c-12.802-6.667-28.831-1.629-36.049,11.368C1173.752,106.933,1172.2,113.503,1171.082,120.61z"/>
	<path style="fill:#1158A8;" d="M1615.6,153.511c10.276-31.966,20.267-63.045,30.309-94.282c12.099,0,24.033,0,35.996,0
		c0.739,1.983-0.395,3.581-0.929,5.221c-15.136,46.534-30.39,93.031-45.432,139.595c-4.535,14.038-8.188,28.361-13.505,42.15
		c-3.979,10.319-9,19.966-17.168,27.738c-7.558,7.192-16.635,11.144-26.817,11.831c-9.436,0.637-18.948,0.136-28.759,0.136
		c0-10.687,0-21.421,0-32.763c3.381,0,6.819,0,10.256,0c4.165,0,8.337-0.167,12.492,0.04c5.937,0.296,10.307-2.58,13.689-6.889
		c6.08-7.745,8.683-17.083,11.253-26.386c0.533-1.929-0.345-3.572-0.966-5.284c-13.505-37.28-27.006-74.561-40.498-111.845
		c-5.19-14.341-10.355-28.69-15.677-43.438c15.004,0,29.685,0,44.564,0C1594.702,90.411,1604.998,121.498,1615.6,153.511z"/>
	<path style="fill:#1158A8;" d="M724.055,160.293c14.804,0,29.095,0,43.769,0c0.303,4.836-0.966,9.312-2.289,13.644
		c-6.944,22.733-21.972,37.376-44.71,44.29c-12.654,3.848-25.364,4.855-38.385,2.169c-15.333-3.162-28.215-10.757-39.08-21.731
		c-15.185-15.337-22.779-33.974-23.409-55.581c-0.539-18.48,3.67-35.645,13.601-51.247c12.071-18.964,29.54-29.725,51.673-32.948
		c14.667-2.136,29.16-1.302,43.474,2.831c19.774,5.71,31.638,18.723,36.182,38.597c0.915,4,1.375,8.105,2.092,12.447
		c-14.482,0-28.589,0-42.88,0c-0.258-1.279-0.681-2.532-0.74-3.803c-0.423-9.049-11.593-17.415-20.356-17.075
		c-8.107,0.315-15.534,1.636-21.275,7.909c-3.328,3.637-5.429,7.952-6.661,12.675c-2.844,10.905-3.218,22.042-2.596,33.204
		c0.387,6.951,0.458,13.921,2.343,20.776c4.426,16.098,16.543,20.817,31.235,17.878c9.44-1.888,14.733-9.106,16.97-18.391
		C723.44,164.166,723.681,162.349,724.055,160.293z"/>
	<path style="fill:#EB3829;" d="M694.898,285.096c3.857,8.62,7.566,16.907,11.46,25.609c-7.161,0-13.872,0-20.894,0
		c-2.527-7.069-5.082-14.219-7.675-21.475c-2.102-0.662-4.2-0.34-6.671-0.267c0,7.298,0,14.385,0,21.755
		c-6.097,0.566-11.845,0.192-17.929,0.239c0-19.541,0-38.918,0-58.513c0.735-0.841,1.98-0.418,3.09-0.427
		c9.82-0.079,19.64-0.092,29.459-0.173c6.146-0.051,11.257,2.539,15.887,6.233c2.925,2.334,4.053,5.584,3.903,9.282
		c-0.02,0.49-0.33,0.986-0.287,1.459C705.962,276.646,702.27,281.752,694.898,285.096z M684.456,265.459c-4.513,0-8.908,0-13.193,0
		c0,3.6,0,6.853,0,10.406c2.571,0,4.867,0.037,7.16-0.014c1.322-0.029,2.664-0.082,3.958-0.33c3.885-0.744,5.5-3.731,4.043-7.419
		C686,267.027,685.432,265.995,684.456,265.459z"/>
	<path style="fill:#EB3829;" d="M1433.375,310.779c-2.576-7.231-5.125-14.385-7.733-21.704c-2.037,0-4,0-6.521,0
		c0,7.092,0,14.32,0,21.728c-6.298,0-12.046,0-18.034,0c0-19.578,0-38.968,0-58.804c2.11,0,4.071,0.009,6.032-0.001
		c8.665-0.044,17.332,0,25.994-0.173c6.366-0.127,11.68,2.434,16.434,6.231c3.005,2.401,4.395,5.833,3.791,9.759
		c-0.404,2.623,0.157,5.31-0.844,7.901c-1.728,4.471-4.927,7.389-9.7,9.27c3.838,8.619,7.585,17.034,11.485,25.793
		C1447.238,310.779,1440.626,310.779,1433.375,310.779z M1432.341,265.371c-4.46,0-8.724,0-13.255,0
		c0.024,3.637-0.615,7.034,0.419,10.453c4.057,0.089,7.897,0.285,11.607-0.786c3.275-0.946,4.422-3.366,3.343-6.545
		C1434.077,267.381,1433.512,266.361,1432.341,265.371z"/>
	<path style="fill:#EB3829;" d="M1161.857,310.901c0-19.395-0.002-38.214,0.01-57.032c0-0.465,0.152-0.93,0.316-1.871
		c6.791,0,13.572-0.021,20.352,0.009c3.321,0.015,6.616,0.064,9.938,0.636c13.186,2.27,18.517,8.137,21.339,22.714
		c1.303,6.73,0.233,13.489-2.551,20.007c-4.204,9.844-11.945,14.652-22.032,15.4C1180.319,311.424,1171.32,310.901,1161.857,310.901
		z M1189.217,296.722c3.711-2.677,5.891-5.962,6.501-10.064c0.847-5.698,0.307-11.21-2.838-16.284
		c-2.982-4.813-5.009-5.753-11.25-4.718c0,10.643,0,21.309,0,32.394C1184.188,296.282,1186.742,297.208,1189.217,296.722z"/>
	<path style="fill:#EB3A2A;" d="M968.117,250.846c14.135-0.972,28.482,9.451,28.531,28.304c0.011,4.161,0.053,8.31-1.09,12.346
		c-3.277,11.58-13.245,19.214-25.322,19.522c-4.493,0.115-8.931,0.174-13.204-1.648c-6.937-2.959-11.81-7.932-14.596-14.868
		c-3.34-8.315-3.626-16.966-0.996-25.393C944.973,257.795,955.552,250.002,968.117,250.846z M976.857,281.836
		c0-1.589,0.035-3.42-0.008-5.25c-0.071-3.015-0.495-5.997-1.836-8.714c-2.424-4.913-7.961-5.531-11.419-1.301
		c-0.827,1.012-1.564,2.198-1.982,3.427c-2.481,7.284-2.333,14.671-0.586,22.079c0.148,0.629,0.532,1.208,0.843,1.79
		c1.704,3.179,4.524,4.29,7.926,4.035c3.373-0.253,5.353-2.192,6.319-5.435C977.136,289.034,977.019,285.57,976.857,281.836z"/>
	<path style="fill:#EB3A2A;" d="M1319.149,280.387c-0.538-15.434,8.335-24.812,16.787-27.682
		c21.724-7.375,38.816,4.547,39.905,26.128c0.295,5.843-0.002,11.615-2.758,17.016c-4.986,9.771-12.885,14.763-23.857,15.195
		c-6.513,0.257-12.583-0.941-18.019-4.58c-7.936-5.313-11.412-13.109-12.045-22.383
		C1319.072,282.757,1319.149,281.42,1319.149,280.387z M1355.978,281.333c0.183-4.355-0.285-8.443-1.98-12.313
		c-1.367-3.119-3.534-5.15-7.195-5.115c-3.455,0.033-5.628,1.986-6.783,4.924c-3.084,7.842-3.169,15.796-0.289,23.741
		c0.278,0.767,0.7,1.505,1.171,2.175c2.749,3.908,7.808,4.331,11.152,0.916c1.54-1.573,2.436-3.522,2.945-5.652
		C1355.693,287.101,1356.231,284.175,1355.978,281.333z"/>
	<path style="fill:#EB3A2A;" d="M627.86,280.877c0.437,15.635-7.393,26.797-21.287,29.534c-19.964,3.933-34.853-8.471-35.262-26.989
		c-0.134-6.059-0.037-11.974,2.704-17.508c4.68-9.449,12.306-14.463,22.864-15.085c5.854-0.345,11.572-0.187,16.83,2.889
		c9.115,5.331,13.238,13.616,14.135,23.808C627.96,278.847,627.86,280.187,627.86,280.877z M608.015,280.853
		c0.173-4.604-0.225-9.08-2.591-13.088c-3.071-5.201-9.414-5.28-12.587-0.186c-0.78,1.252-1.411,2.659-1.806,4.08
		c-1.778,6.397-1.627,12.824,0.045,19.221c0.468,1.791,1.359,3.374,2.692,4.713c3.068,3.084,7.042,3.191,10.199,0.217
		c1.5-1.413,2.365-3.201,2.944-5.135C607.876,287.453,608.191,284.15,608.015,280.853z"/>
	<path style="fill:#EB3A2A;" d="M1237.998,280.903c-0.97-14.819,7.508-25.928,18.58-28.901c17.173-4.611,33.024,2.774,36.85,19.259
		c2.093,9.016,2.241,18.186-2.735,26.562c-5.046,8.493-12.623,12.889-22.549,13.193c-4.326,0.132-8.596,0.145-12.749-1.441
		c-9.768-3.731-16.983-13.86-17.388-24.638C1237.944,283.277,1237.998,281.614,1237.998,280.903z M1257.874,280.872
		c-0.167,4.212,0.075,8.478,2.087,12.463c1.376,2.726,3.487,4.467,6.562,4.617c3.36,0.164,5.87-1.667,7.095-4.559
		c3.445-8.133,3.385-16.467,0.191-24.653c-1.123-2.879-3.358-4.853-6.862-4.848c-3.471,0.005-5.472,1.941-6.909,4.775
		C1258.108,272.473,1257.693,276.559,1257.874,280.872z"/>
	<path style="fill:#EB3B2A;" d="M1475.605,292.66c5.762-0.898,11.107-1.731,16.696-2.602c2.025,5.02,5.918,7.595,11.103,7.805
		c2.964,0.12,5.957-0.568,7.455-3.655c-0.619-2.446-2.566-3.223-4.373-3.941c-3.847-1.53-7.783-2.834-11.667-4.274
		c-3.912-1.451-7.616-3.272-10.775-6.083c-3.786-3.37-5.313-7.513-4.46-12.516c0.196-1.147,0.291-2.334,0.661-3.425
		c2.027-5.991,5.418-10.558,12.133-11.843c5.382-1.03,10.746-2.002,16.249-1.259c8.52,1.151,13.928,6.245,17.8,13.924
		c-4.496,2.129-9.162,2.551-13.733,4.282c-2.65-4.178-6.611-5.644-11.424-5.176c-4.341,0.422-5.109,1.664-3.76,6.412
		c1.944,1.333,4.22,1.569,6.569,1.537c4.035-0.055,7.884,0.862,11.721,2.042c5.072,1.559,8.624,4.837,11.171,9.328
		c4.019,7.088,2.579,15.454-3.626,20.751c-4.009,3.422-8.743,5.336-13.911,6.274c-5.938,1.077-11.925,1.667-17.729-0.293
		C1483.524,307.185,1477.892,301.83,1475.605,292.66z"/>
	<path style="fill:#EB3B2A;" d="M416.713,292.643c5.836-0.901,11.199-1.729,16.773-2.589c1.331,3.761,3.579,6.47,7.45,7.484
		c2.15,0.563,4.236,0.583,6.362-0.238c1.486-0.573,2.813-1.265,3.067-2.929c0.261-1.714-0.832-2.76-2.235-3.543
		c-2.181-1.217-4.433-2.214-6.834-2.964c-4.908-1.532-9.828-3.043-14.246-5.833c-4.966-3.137-8.506-7.18-7.844-13.401
		c0.707-6.637,3.591-12.099,10.058-14.955c7.199-3.179,14.833-3.982,22.412-2.453c7.409,1.495,12.576,6.303,15.718,13.53
		c-2.499,1.559-5.17,1.73-7.693,2.359c-2.399,0.598-4.787,1.245-7.433,1.937c-3.065-6.218-8.459-5.336-13.789-4.954
		c-1.185,2.199-0.924,4.08-0.076,6.091c2.097,1.508,4.549,1.687,7.065,1.665c4.408-0.039,8.501,1.223,12.521,2.927
		c6.631,2.812,10.163,7.978,10.945,14.892c0.784,6.937-2.442,12.136-8.023,16.097c-8.268,5.868-25.207,7.942-34.518,1.112
		C421.556,303.332,418.119,298.974,416.713,292.643z"/>
	<path style="fill:#EB3B2A;" d="M790.952,292.613c5.496-0.86,10.71-1.675,16.235-2.54c2.218,4.933,6.167,7.54,11.558,7.847
		c2.716,0.154,4.777-0.994,7.254-3.881c-1.861-3.705-5.647-4.793-9.087-6.118c-3.713-1.431-7.552-2.545-11.172-4.23
		c-0.9-0.419-1.76-0.928-2.623-1.423c-5.193-2.975-9.255-6.888-8.636-13.392c0.709-7.443,4.049-13.28,11.607-15.902
		c6.541-2.269,13.302-3.111,20.066-1.906c7.863,1.401,13.202,6.242,16.586,14.051c-5.202,1.353-9.972,2.595-15.057,3.918
		c-2.232-3.172-5.15-5.272-9.381-5.21c-5.09,0.076-6.005,1.222-4.506,6.481c1.641,1.155,3.633,1.21,5.579,1.603
		c5.034,1.017,10.035,2.218,15.01,3.496c1.967,0.506,3.452,1.93,4.846,3.397c6.909,7.272,6.66,18.099-0.594,24.972
		c-12.741,12.073-36.381,9.203-45.468-5.54C792.224,296.704,791.23,295.157,790.952,292.613z"/>
	<path style="fill:#EB3B2A;" d="M496.684,251.993c7.094,0,13.91-0.099,20.72,0.04c3.632,0.074,7.191-1.271,10.894-0.231
		c1.57,0.441,3.221,0.711,4.819,1.151c9.323,2.566,14.088,11.082,13.147,19.173c-1.218,10.472-8.565,16.262-18.417,16.838
		c-4.105,0.24-8.235,0.04-12.731,0.04c0,7.282,0,14.366,0,21.722c-6.288,0-12.202,0-18.432,0
		C496.684,291.401,496.684,272.021,496.684,251.993z M515.207,276.863c3.145,0,5.954,0.199,8.722-0.051
		c3.314-0.3,4.892-1.8,5.219-4.314c0.417-3.208-0.83-5.234-4.062-6.528c-3.177-1.272-6.426-0.806-9.878-0.682
		C515.207,269.203,515.207,272.791,515.207,276.863z"/>
	<path style="fill:#1B5AA9;" d="M903.181,288.748c0,6.445,0,12.068,0,18.044c-5.276,0-10.312,0-15.788,0c0-5.842,0-11.596,0-17.542
		c-6.134-0.838-11.937,0.01-17.959-0.586c-0.633-5.034-0.167-9.97-0.315-15.503c6.003,0,11.887,0,18.209,0
		c0-6.334,0-12.078,0-17.991c5.367-0.598,10.287-0.244,15.655-0.265c0,5.984,0,11.721,0,17.73c6.325,0.811,12.287,0.004,18.54,0.522
		c0,5.053,0,10.098,0,15.592C915.581,288.748,909.659,288.748,903.181,288.748z"/>
	<path style="fill:#EB3B2A;" d="M769.411,252.231c0,4.836,0,9.267,0,13.867c-3.687,1.219-7.395-0.019-11.426,0.879
		c0,14.441,0,28.982,0,43.773c-5.897,0-11.288,0-17.057,0c0-14.535,0-28.929,0-43.561c-4.443-1.269-8.804,0.049-13.201-0.921
		c-0.661-4.675-0.325-9.236-0.224-14.036C741.541,252.231,755.287,252.231,769.411,252.231z"/>
	<path style="fill:#EB3929;" d="M1108.054,310.79c0-14.637,0-29.067,0-43.995c-4.353,0-8.411,0-12.753,0c0-5.059,0-9.63,0-14.502
		c13.66,0,27.39,0,41.412,0c0,4.531,0,9.116,0,13.924c-3.608,1.016-7.463-0.085-11.646,0.723c0,14.509,0,29.081,0,43.85
		C1119.19,310.79,1113.791,310.79,1108.054,310.79z"/>
	<path style="fill:#F07352;" d="M186.09,252.014c-3.773-0.083-7.362-0.962-11.085-2.417c4.169-0.947,8.751,0.13,11.044,2.467
		L186.09,252.014z"/>
	<path style="fill:#F07352;" d="M167.666,246.597c-0.604,0.457-1.217,0.346-1.857,0.079
		C166.398,245.713,167.02,246.02,167.666,246.597z"/>
	<path style="fill:#F07352;" d="M169.127,247.54c1.03-0.742,1.698-0.372,2.527-0.089C170.784,248.21,170.057,248.074,169.127,247.54
		z"/>
	<path style="fill:#F07352;" d="M41.588,176.447c1.471,1.238,2.831,2.566,3.584,4.389c-0.218,0.202-0.424,0.416-0.616,0.643
		c-1.718-1.014-2.949-2.461-3.79-4.255C41.04,176.965,41.314,176.706,41.588,176.447z"/>
	<path style="fill:#F07352;" d="M39.001,172.999c1.397,0.749,1.881,2.182,2.587,3.449c-0.274,0.259-0.548,0.518-0.822,0.777
		c-1.122-0.902-2.166-1.868-2.672-3.273C38.646,173.872,38.876,173.485,39.001,172.999z"/>
	<path style="fill:#EB3929;" d="M37.221,170.788c0.785,0.304,0.977,1.075,1.344,1.708c-0.272,0.242-0.543,0.484-0.815,0.725
		c-0.453-0.51-0.906-1.02-1.359-1.53C36.668,171.391,36.944,171.09,37.221,170.788z"/>
	<path style="fill:#F07352;" d="M47.971,185.033c-0.611-0.035-0.941-0.377-1.049-0.961c0.133-0.127,0.269-0.251,0.408-0.373
		c0.573,0.199,0.918,0.542,0.764,1.203L47.971,185.033z"/>
	<path style="fill:#F07352;" d="M46.921,184.072c-0.444-0.157-1.031-0.426-0.573-0.904c0.431-0.45,0.782,0.092,0.981,0.532
		C47.191,183.821,47.055,183.945,46.921,184.072z"/>
	<path style="fill:#F07352;" d="M48.093,184.902c0.271,0.117,0.541,0.234,0.812,0.351c-0.146,0.174-0.292,0.349-0.438,0.523
		c-0.166-0.248-0.331-0.496-0.497-0.744C47.971,185.033,48.093,184.902,48.093,184.902z"/>
	<path style="fill:#F07352;" d="M45.172,180.837c0.426,0.218,0.943,0.535,0.514,1.012c-0.402,0.447-0.823-0.005-1.13-0.369
		C44.748,181.253,44.953,181.038,45.172,180.837z"/>
	<path style="fill:#EB3929;" d="M39.001,172.999c-0.125,0.487-0.354,0.873-0.906,0.953c-0.247-0.181-0.362-0.424-0.344-0.729
		c0.272-0.242,0.543-0.484,0.815-0.725C38.708,172.666,38.854,172.833,39.001,172.999z"/>
	<path style="fill:#FEF0E9;" d="M684.456,265.459c0.977,0.535,1.544,1.568,1.969,2.643c1.457,3.688-0.158,6.675-4.043,7.419
		c-1.294,0.248-2.636,0.301-3.958,0.33c-2.294,0.051-4.589,0.014-7.16,0.014c0-3.553,0-6.806,0-10.406
		C675.548,265.459,679.942,265.459,684.456,265.459z"/>
	<path style="fill:#FEF0E9;" d="M1432.341,265.371c1.171,0.99,1.736,2.011,2.113,3.121c1.079,3.179-0.068,5.599-3.343,6.545
		c-3.71,1.072-7.55,0.875-11.607,0.786c-1.033-3.419-0.394-6.816-0.419-10.453C1423.617,265.371,1427.881,265.371,1432.341,265.371z
		"/>
	<path style="fill:#FEF0E9;" d="M1189.217,296.722c-2.476,0.486-5.029-0.44-7.587,1.328c0-11.085,0-21.752,0-32.394
		c6.241-1.034,8.268-0.095,11.25,4.718c3.144,5.074,3.684,10.586,2.838,16.284C1195.109,290.76,1192.928,294.045,1189.217,296.722z"
		/>
	<path style="fill:#2D60AD;" d="M1712.774,91.92c-1.484-4.815-0.379-11.413-8.467-9.976c-0.977,3.415,0.015,6.942-0.594,10.355
		c-1.037,1.449-2.278,0.641-3.663,0.715c0-7.989,0-15.581,0-23.379c4.79-0.694,9.384-0.215,13.756-0.269
		c2.983,4.784,2.558,7.501-1.666,11.183c2.738,2.986,4.263,6.521,3.906,10.996C1715.413,92.523,1714.244,91.794,1712.774,91.92z
		 M1703.984,79.679c3.05,0.541,5.511,0.514,7.061-1.916c0.401-1.783,0.403-3.215-0.556-4.502c-2.089-1.149-4.201-1.627-6.504-0.502
		C1703.984,75.013,1703.984,77.131,1703.984,79.679z"/>
</g>
</svg>
