<?xml version="1.0" encoding="iso-8859-1"?>
<!-- Generator: Adobe Illustrator 27.0.0, SVG Export Plug-In . SVG Version: 6.00 Build 0)  -->
<svg version="1.1" id="Layer_1" xmlns="http://www.w3.org/2000/svg" xmlns:xlink="http://www.w3.org/1999/xlink" x="0px" y="0px"
	 viewBox="0 0 29.369 6.213" style="enable-background:new 0 0 29.369 6.213;" xml:space="preserve">
<g>
	<path style="fill:#4061AD;" d="M0,4.271c0.033-0.05,0.029-0.111,0.048-0.165c0.039-0.112,0.102-0.211,0.165-0.309
		c0.637-0.999,1.275-1.998,1.913-2.996C2.278,0.564,2.429,0.327,2.58,0.09C2.598,0.062,2.617,0.034,2.639,0
		c0.037,0.026,0.053,0.063,0.073,0.095C3.171,0.812,3.63,1.53,4.088,2.248c0.35,0.549,0.699,1.099,1.051,1.647
		c0.094,0.147,0.147,0.307,0.152,0.479c0.007,0.241,0.002,0.482,0.002,0.738c-0.096-0.07-0.151-0.166-0.236-0.229
		c-0.17-0.195-0.351-0.38-0.537-0.56C4.463,4.261,4.409,4.198,4.351,4.138C3.992,3.763,3.632,3.389,3.273,3.014
		C3.087,2.82,2.902,2.625,2.716,2.431c-0.021-0.022-0.039-0.048-0.069-0.06C2.617,2.378,2.602,2.403,2.583,2.423
		c-0.479,0.5-0.958,0.999-1.437,1.499C0.917,4.161,0.689,4.4,0.46,4.639C0.326,4.78,0.191,4.92,0.056,5.06
		C0.039,5.078,0.027,5.101,0,5.106C0,4.828,0,4.549,0,4.271z"/>
	<path style="fill:#959ECF;" d="M0,5.161c0.126-0.1,0.234-0.219,0.342-0.338c0.114-0.126,0.235-0.245,0.354-0.366
		c0.058-0.059,0.101-0.133,0.173-0.183c0.343,0,0.689,0,1.04,0c0,0.647,0,1.291,0,1.939c-0.122-0.05-0.23-0.122-0.345-0.181
		c-0.147-0.076-0.29-0.161-0.436-0.241C0.755,5.588,0.382,5.385,0.009,5.183C0.006,5.181,0.003,5.181,0,5.18
		C0,5.174,0,5.168,0,5.161z"/>
	<path style="fill:#090808;" d="M26.959,2.056c0.173,0,0.34,0,0.513,0c0.429,0.545,0.86,1.094,1.29,1.642
		c0.024-0.109,0.02-0.214,0.02-0.319c0.001-0.111,0-0.223,0-0.334c0-0.108,0-0.216,0-0.325c0-0.111,0-0.223,0-0.334
		c0-0.108,0-0.215,0-0.328c0.198,0,0.388,0,0.578,0c0.011,0.084,0.011,2.581,0,2.673c-0.144,0-0.289,0.004-0.433-0.001
		c-0.071-0.002-0.125-0.047-0.168-0.103c-0.26-0.334-0.521-0.668-0.781-1.002c-0.133-0.171-0.266-0.341-0.399-0.512
		c-0.007-0.009-0.012-0.022-0.034-0.021c0,0.542,0,1.085,0,1.634c-0.196,0-0.387,0-0.578,0C26.949,4.66,26.941,2.314,26.959,2.056z"
		/>
	<path style="fill:#0C0B0A;" d="M19.219,3.645c0.281,0.37,0.574,0.716,0.863,1.084c-0.034,0.002-0.056,0.005-0.079,0.005
		c-0.158,0-0.316-0.006-0.474,0.002c-0.129,0.006-0.215-0.044-0.29-0.145c-0.208-0.281-0.422-0.557-0.633-0.834
		c-0.011-0.015-0.022-0.029-0.032-0.041c-0.033-0.014-0.063-0.012-0.1-0.002c0,0.335,0,0.671,0,1.014c-0.197,0-0.388,0-0.579,0
		c-0.019-0.066-0.028-2.364-0.009-2.66c0.017-0.02,0.04-0.013,0.06-0.013c0.282,0,0.564-0.003,0.846,0
		c0.225,0.003,0.441,0.051,0.639,0.164c0.483,0.275,0.507,0.959,0.119,1.269C19.455,3.563,19.346,3.611,19.219,3.645z M18.475,3.23
		c0.126,0,0.246,0.003,0.366-0.002c0.051-0.002,0.104-0.017,0.153-0.034c0.096-0.033,0.162-0.096,0.193-0.196
		c0.065-0.207-0.035-0.394-0.244-0.454c-0.067-0.019-0.134-0.021-0.202-0.021c-0.088,0-0.176,0-0.265,0
		C18.475,2.765,18.475,2.993,18.475,3.23z"/>
	<path style="fill:#090808;" d="M23.892,4.238c-0.04,0.104-0.08,0.207-0.12,0.31c-0.056,0.144-0.117,0.185-0.274,0.185
		c-0.145,0-0.291,0-0.451,0c0.391-0.898,0.779-1.787,1.167-2.677c0.159,0,0.313,0,0.476,0c0.354,0.885,0.709,1.773,1.064,2.659
		c-0.021,0.024-0.043,0.017-0.063,0.017c-0.142,0.001-0.285-0.001-0.427,0.001c-0.12,0.001-0.199-0.055-0.241-0.166
		c-0.041-0.109-0.08-0.219-0.121-0.329C24.566,4.238,24.235,4.238,23.892,4.238z M24.417,2.914c-0.006,0-0.011-0.001-0.017-0.001
		C24.29,3.2,24.179,3.488,24.066,3.782c0.226,0,0.441,0,0.669,0C24.627,3.487,24.522,3.2,24.417,2.914z"/>
	<path style="fill:#090908;" d="M10.893,4.731c-0.16,0-0.312,0.009-0.462-0.003c-0.143-0.011-0.245-0.095-0.299-0.23
		c-0.034-0.085-0.065-0.172-0.097-0.26c-0.336,0-0.67,0-1.009,0C8.996,4.314,8.967,4.388,8.939,4.462
		c-0.073,0.19-0.19,0.271-0.396,0.271c-0.114,0-0.229,0-0.343,0c0.005-0.071,1.056-2.507,1.154-2.677c0.152,0,0.305,0,0.469,0
		C10.178,2.944,10.534,3.834,10.893,4.731z M9.868,3.782C9.76,3.487,9.654,3.197,9.542,2.89C9.425,3.194,9.313,3.485,9.198,3.782
		C9.424,3.782,9.642,3.782,9.868,3.782z"/>
	<path style="fill:#100F0E;" d="M16.52,2.526c-0.406,0-0.813,0-1.223,0c0,0.2,0,0.393,0,0.595c0.359,0,0.714,0,1.072,0
		c0,0.156,0,0.303,0,0.464c-0.118,0.003-0.237,0.001-0.356,0.001c-0.118,0-0.235,0-0.353,0c-0.12,0-0.24,0-0.364,0
		c0,0.23,0,0.451,0,0.679c0.411,0,0.819,0,1.234,0c0,0.156,0,0.305,0,0.461c-0.605,0-1.21,0-1.821,0c0-0.888,0-1.776,0-2.67
		c0.607,0,1.212,0,1.816,0C16.543,2.156,16.541,2.455,16.52,2.526z"/>
	<path style="fill:#959ECF;" d="M5.036,4.904c0.08,0.089,0.16,0.178,0.248,0.276C4.668,5.517,4.056,5.852,3.445,6.187
		C3.428,6.196,3.412,6.204,3.387,6.195c0-0.636,0-1.274,0-1.918c0.34,0,0.679,0,1.034,0c0.024,0.008,0.04,0.051,0.077,0.069
		c0.058,0.066,0.114,0.135,0.175,0.198c0.093,0.098,0.188,0.193,0.285,0.287C4.984,4.855,4.993,4.898,5.036,4.904z"/>
	<path style="fill:#131212;" d="M12.233,2.526c-0.211,0-0.411,0-0.61,0c-0.021-0.066-0.025-0.347-0.008-0.468
		c0.604,0,1.208,0,1.818,0c0,0.154,0,0.306,0,0.465c-0.204,0-0.404,0-0.612,0c0,0.737,0,1.468,0,2.204c-0.198,0-0.388,0-0.589,0
		C12.233,3.997,12.233,3.264,12.233,2.526z"/>
	<path style="fill:#060505;" d="M21.305,2.057c0.191,0,0.379,0,0.571,0c0,0.892,0,1.779,0,2.672c-0.189,0-0.377,0-0.571,0
		C21.305,3.842,21.305,2.954,21.305,2.057z"/>
	<path style="fill:#E6E7F4;" d="M5.036,4.904C4.993,4.898,4.984,4.855,4.958,4.831C4.861,4.738,4.766,4.642,4.673,4.544
		C4.612,4.481,4.556,4.412,4.498,4.346C4.51,4.343,4.516,4.334,4.519,4.322c0.186,0.18,0.367,0.365,0.537,0.56
		C5.045,4.885,5.039,4.893,5.036,4.904z"/>
</g>
</svg>
