<?xml version="1.0" encoding="iso-8859-1"?>
<!-- Generator: Adobe Illustrator 27.0.0, SVG Export Plug-In . SVG Version: 6.00 Build 0)  -->
<svg version="1.1" id="Layer_1" xmlns="http://www.w3.org/2000/svg" xmlns:xlink="http://www.w3.org/1999/xlink" x="0px" y="0px"
	 viewBox="0 0 1587 245" style="enable-background:new 0 0 1587 245;" xml:space="preserve">
<g>
	<path style="fill:#055176;" d="M648,0c0.031,1.331,0.09,2.662,0.09,3.993c0.005,61.795,0.007,123.59-0.002,185.384
		c0,1.301-0.127,2.602-0.204,4.083c-13.556,3.382-27.008,6.115-40.85,6.641c-10.154,0.386-20.25,0.439-30.228-1.99
		c-21.05-5.125-35.308-17.686-42.206-38.328c-6.664-19.943-6.401-39.956,0.56-59.679c4.932-13.975,13.743-25.184,27.595-31.308
		c13.635-6.028,27.888-7.074,42.384-3.091c4.142,1.138,8.216,2.472,12.588,4.62c0-21.946,0-43.337,0-64.865
		c6.679-1.997,13.352-2.15,19.785-3.548C640.343,1.299,643.437,1.795,646,0C646.667,0,647.333,0,648,0z M617.729,98.079
		c-7.233-4.247-14.99-6.847-23.45-7.048c-5.86-0.14-11.684,0.434-16.852,3.518c-6.874,4.103-11.215,10.272-13.464,17.868
		c-3.425,11.569-3.558,23.359-0.827,34.989c3.295,14.035,11.78,23.81,26.193,27.042c6.623,1.485,13.595,0.976,20.349-0.107
		c2.68-0.43,5.711,0.069,8.051-2.075C617.729,147.633,617.729,123.031,617.729,98.079z"/>
	<path style="fill:#0EA14D;" d="M1587,52c-2.14,0.168-4.281,0.364-6.716-0.174c-0.47-8.044-0.942-16.119-1.488-25.475
		c-4.781,7.036-5.808,14.537-9.586,21.138c-1.211,0.944-2.869,0.088-4.535,0.372c-3.375-6.928-5.038-14.39-9.339-21.916
		c-0.945,9.109-1.555,16.974-1.519,24.647c-2.246,1.603-4.223,0.858-6.743,1.04c0.721-12.283,0.926-24.295,2.475-35.928
		c1.353-1.165,2.56-0.628,3.673-0.67c0.97-0.037,1.95,0.181,2.735,0.266c5.075,6.764,6.88,14.861,11.056,22.438
		c4.821-7.234,6.077-15.727,10.919-22.214c1.98-0.712,3.763-0.21,5.775-0.395c1.926,8.56,1.948,17.004,2.328,25.416
		c0.053,1.176-0.74,2.701,0.965,3.457C1587,46.667,1587,49.333,1587,52z"/>
	<path style="fill:#DCDDDD;" d="M0,76c0.276-0.033,0.553-0.039,0.83-0.018c0.053,1.656,0.151,3.313,0.151,4.969
		c0.012,34.365,0.015,68.73,0.01,103.095c0,1.656-0.096,3.313-0.147,4.969c0,0-0.422,0.011-0.422,0.011L0,189
		C0,151.333,0,113.667,0,76z"/>
	<path style="fill:#DCDDDD;" d="M1332,245c-0.009-0.264-0.014-0.528-0.015-0.793c6.011,0.006,12.022,0.012,18.032,0.018
		c0.004,0.258-0.002,0.516-0.017,0.774C1344,245,1338,245,1332,245z"/>
	<path style="fill:#0AA14D;" d="M1350.017,244.226c-6.011-0.006-12.022-0.012-18.032-0.018c-13.468-1.05-27.79-4.297-34.91-7.967
		c1.755-8.012,3.521-16.077,5.26-24.014c1.815-0.888,3.095,0.103,4.446,0.608c11.661,4.359,23.705,6.396,36.155,6.017
		c4.666-0.142,9.281-0.721,13.767-1.983c13.401-3.773,16.741-11.948,18.141-21.756c0.463-3.24,0.073-6.601,0.073-10.096
		c-2.229-0.233-3.949,0.919-5.714,1.577c-12.514,4.668-25.302,5.485-38.24,2.467c-18.124-4.228-30.229-15.394-36.245-32.94
		c-5.828-16.999-6.492-34.232-0.731-51.38c5.519-16.428,15.76-28.59,32.43-34.864c12.059-4.539,24.405-5.857,37.198-5.201
		c13.864,0.71,27.302,3.601,40.732,6.723c1.068,1.133,0.648,2.535,0.648,3.815c0.019,36.478,0.003,72.956,0.012,109.433
		c0.002,7.687-0.891,15.235-2.948,22.663c-5.323,19.219-18.03,30.435-37.283,34.592
		C1359.906,242.954,1355.003,243.87,1350.017,244.226z M1374.788,91.148c-9.782-2.387-19.273-2.974-28.896-1.27
		c-6.716,1.189-12.02,4.741-16.16,9.96c-3,3.782-5.221,8.106-6.62,12.744c-3.411,11.301-2.915,22.69,0.189,33.903
		c2.51,9.066,8.534,15.233,17.496,18.325c4.671,1.611,9.569,1.313,14.338,0.92c7.183-0.591,13.808-3.021,19.654-7.331
		c0-20.893,0-41.508,0-62.123C1374.788,94.789,1374.788,93.301,1374.788,91.148z"/>
	<path style="fill:#0EA14D;" d="M1022.442,197.605c-10.139,0-19.915,0-29.734,0c-0.735-1.994-0.383-3.838-0.391-5.63
		c-0.106-23.165-0.147-46.33-0.276-69.495c-0.027-4.835-0.848-9.612-1.948-14.306c-2.56-10.922-8.487-16.084-19.716-17.291
		c-8.905-0.958-17.54,0.535-26.558,3.021c0,34.273,0,68.516,0,103.001c-10.102,0-19.696,0-29.607,0c0-63.396,0-126.776,0-190.381
		c9.792-1.556,19.445-3.091,29.848-4.744c0.014,5.805,0.034,11.38,0.041,16.956c0.007,5.5,0.002,11,0.002,16.5
		c0,5.667,0,11.333,0,17c0,5.477,0,10.954,0,16.768c3.319-0.927,6.17-1.774,9.049-2.519c14.494-3.751,28.82-2.961,42.444,3.097
		c15.016,6.677,23.235,18.733,25.387,35.056c1.177,8.927,1.997,17.843,1.947,26.862c-0.112,20.332-0.026,40.666-0.052,60.999
		C1022.875,194.123,1023.211,195.8,1022.442,197.605z"/>
	<path style="fill:#0EA14D;" d="M1526.517,168.128c1.262,8.262,2.482,16.243,3.711,24.288c-2.295,2.201-5.167,2.583-7.778,3.455
		c-9.211,3.078-18.775,4.421-28.405,4.644c-14.587,0.338-28.838-1.463-41.972-8.604c-15.805-8.593-25.035-22.096-28.804-39.319
		c-3.51-16.045-2.872-32.071,2.776-47.625c10.581-29.136,34.129-42.772,62.551-40.708c15.983,1.161,29.494,7.578,39.142,20.895
		c5.37,7.412,8.412,15.817,10.022,24.724c1.571,8.689,1.899,17.501,1.891,26.322c-0.001,1.688-0.272,3.298-0.999,5.276
		c-28.273,0-56.675,0-84.905,0c-1.319,2.164-0.483,3.877-0.095,5.615c3.691,16.516,14.591,25.756,31.424,26.977
		C1499.208,175.093,1512.886,173.206,1526.517,168.128z M1508.374,119.721c-0.136-10.637-2.483-19.772-11.278-26.126
		c-5.564-4.019-11.821-4.398-18.479-3.841c-12.935,1.082-24.65,13.929-24.279,29.966
		C1472.219,119.721,1490.096,119.721,1508.374,119.721z"/>
	<path style="fill:#055176;" d="M332.472,194.675c-13.956,2.562-28.1,5.227-42.627,5.595c-9.492,0.24-18.914,0.252-28.287-1.329
		c-4.265-0.719-8.411-1.869-12.41-3.575c-11.757-5.013-19.208-13.76-21.4-26.277c-2.627-15-0.655-28.956,12.144-39.324
		c6.188-5.013,13.38-8.037,21.125-9.621c12.333-2.523,24.717-3.049,37.121-0.336c1.442,0.315,2.945,0.35,4.963,0.576
		c-0.148-7.755,0.707-15.369-4.888-21.845c-4.357-5.043-10.074-7.027-16.309-7.516c-12.214-0.959-24.242,0.323-35.948,4.107
		c-0.605,0.195-1.188,0.457-2.292,0.886c-1.29-8.273-2.528-16.207-3.806-24.405c2.538-0.717,4.716-1.451,6.947-1.941
		c12.947-2.847,25.721-6.721,39.263-5.712c12.02,0.896,23.306,3.726,32.811,11.538c8.042,6.609,11.346,15.72,13.022,25.635
		c0.947,5.6,1.264,11.236,1.267,16.897c0.013,24.156,0.012,48.311-0.012,72.467C333.153,191.787,333.517,193.159,332.472,194.675z
		 M304.095,141.819c-8.513-3.7-26.537-3.313-34.846,0.085c-4.358,1.783-7.723,4.323-9.533,8.814
		c-3.855,9.564-0.196,19.012,9.123,23.157c1.203,0.535,2.487,0.941,3.772,1.232c10.539,2.391,21.008,1.125,31.484-0.256
		C304.095,163.524,304.095,152.618,304.095,141.819z"/>
	<path style="fill:#0EA14D;" d="M1144.636,194.693c-15.258,2.759-30.267,5.369-45.674,5.626c-10.208,0.17-20.293-0.037-30.169-2.49
		c-11.438-2.84-21.057-8.691-25.969-19.909c-8.053-18.393-6.133-46.139,23.808-55.889c13.692-4.459,27.719-5.024,41.886-2.61
		c1.963,0.335,3.927,0.665,5.863,0.993c4.117-11.564-1.893-24.171-13.203-27.9c-8.633-2.846-17.447-1.916-26.215-1.034
		c-6.268,0.63-12.425,1.993-18.559,4.204c-1.833-3.957-1.695-8.013-2.402-11.877c-0.715-3.908-1.256-7.848-1.84-11.561
		c0.964-1.611,2.511-1.402,3.708-1.679c13.718-3.18,27.231-7.561,41.637-6.615c8.549,0.561,16.78,2.153,24.555,5.823
		c13.029,6.149,19.661,16.829,21.887,30.707c0.873,5.442,1.237,10.891,1.225,16.399c-0.053,23.997-0.013,47.994-0.041,71.991
		C1145.133,190.672,1145.488,192.518,1144.636,194.693z M1115.792,141.878c-0.312-0.372-0.397-0.58-0.527-0.612
		c-1.126-0.284-2.251-0.577-3.391-0.793c-10.609-2.005-21.133-2.115-31.448,1.589c-4.659,1.673-7.918,4.844-9.403,9.593
		c-2.605,8.335-1.297,19.227,11.842,23.082c10.919,3.203,21.94,1.514,32.927,0.159
		C1115.792,163.49,1115.792,152.56,1115.792,141.878z"/>
	<path style="fill:#0AA14D;" d="M1197.949,92.361c0,34.883,0,69.623,0,104.574c-10.198,0-19.945,0-29.978,0
		c0-41.765,0-83.346,0-125.228c4.323-1.732,9.043-2.584,13.702-3.494c10.789-2.106,21.715-3.524,32.689-3.73
		c11.967-0.224,23.928,0.119,35.198,5.324c14.312,6.61,22.369,17.87,25.315,33.032c1.589,8.18,2.24,16.465,2.201,24.825
		c-0.101,21.663-0.034,43.327-0.033,64.99c0,1.496,0,2.991,0,4.845c-10.031,0-19.897,0-29.751,0
		c-0.824-1.696-0.444-3.38-0.446-5.003c-0.031-18.497-0.085-36.994,0.009-55.491c0.045-8.848-0.573-17.628-1.878-26.369
		c-0.597-4.003-2.023-7.73-4.157-11.134c-3.724-5.939-9.82-7.737-16.205-8.515c-6.795-0.827-13.632-0.506-20.421,0.476
		C1202.249,91.746,1200.306,92.023,1197.949,92.361z"/>
	<path style="fill:#0EA14D;" d="M789.966,197.012c-11.362,0-21.991,0-32.74,0c-8.916-15.489-19.121-30.011-30.843-44.017
		c-12.317,13.446-22.035,28.629-31.621,43.733c-10.329,0-20.297,0-30.859,0c6.131-12.44,14.207-23.169,21.808-34.185
		c7.552-10.945,15.394-21.682,24.164-31.959c-14.729-21.197-29.307-42.178-44.174-63.574c11.3,0,21.933,0,33.03,0
		c9.456,13.06,19.068,26.335,29.118,40.215c9.44-13.632,18.494-26.705,27.627-39.894c10.145,0,20.265,0,31.217,0
		c-7.166,10.929-14.676,21.002-21.846,31.301c-7.122,10.231-14.351,20.388-21.65,30.742
		C759.51,151.366,777.447,172.026,789.966,197.012z"/>
	<path style="fill:#055176;" d="M341.866,67.378c10.779,0,21.199,0,31.812,0c8.49,31.626,18.399,62.738,30.688,93.059
		c4.469-6.329,20.34-53.419,31.185-92.53c3.389-0.965,25.361-1.196,31.148-0.329c-4.355,23.831-36.66,109.071-49.361,130.164
		c-8.556,0-17.194,0-26.271,0C371.505,155.671,353.983,112.746,341.866,67.378z"/>
	<path style="fill:#0EA14D;" d="M893.743,70.949c-2.182,8.44-4.238,16.394-6.372,24.649c-5.685-1.416-10.784-3.426-16.18-4.167
		c-6.619-0.909-13.223-1.137-19.833,0.225c-11.202,2.307-18.809,8.786-22.662,19.526c-5.308,14.797-5.345,29.655,0.291,44.347
		c4.112,10.719,12.311,16.553,23.484,18.534c12.976,2.3,25.448,0.137,38.338-4.277c2.118,8.016,2.93,16.18,4.485,24.312
		c-3.199,2.28-6.741,3.198-10.261,3.849c-10.138,1.873-20.312,3.627-30.702,2.912c-16.62-1.143-31.457-6.495-43.523-18.43
		c-7.586-7.504-11.708-16.784-14.168-26.982c-4.202-17.417-3.797-34.709,2.462-51.5c7.157-19.198,21.105-31.55,40.727-37.188
		C857.948,61.553,875.638,63.818,893.743,70.949z"/>
	<path style="fill:#1791CF;" d="M0.844,189.015c0.051-1.656,0.147-3.313,0.147-4.969c0.005-34.365,0.002-68.73-0.01-103.095
		c-0.001-1.656-0.099-3.313-0.151-4.969C1.368,64.469,6.006,54.783,14,46.627c1.235-1.26,2.362-2.829,4.427-2.871
		c0.412,0.256,1.113,0.444,1.191,0.778c0.85,3.648,1.684,7.304,2.363,10.988c1.271,6.899,2.436,13.818,3.645,20.729
		c1.125,6.432,2.4,12.842,3.331,19.301c0.956,6.633,2.332,13.188,3.338,19.815c1.54,10.15,3.847,20.182,5.667,30.292
		c1.793,9.96,3.336,19.966,5.117,29.928c0.265,1.482,0.555,3.421,2.865,3.399c-3.468,6.634-8.865,11.943-13.521,19.063
		c6.446,0,12.013,0,17.58,0c0.343,10.842,3.17,21.296,4.997,31.906c-5.82,0.014-11.673,0.416-17.452-0.066
		c-5.793-0.483-11.15-2.952-16.071-5.975C8.507,215.946,1.926,204.076,0.844,189.015z"/>
	<path style="fill:#055176;" d="M511.26,197.7c-10.053,0-19.831,0-29.899,0c0-43.39,0-86.601,0-130.458
		c4.752-0.04,9.669-0.097,14.586-0.117c4.987-0.021,9.975-0.005,14.904-0.005C511.893,70.728,512.258,189.142,511.26,197.7z"/>
	<path style="fill:#128CCA;" d="M45.945,178.987c-2.311,0.022-2.6-1.917-2.865-3.399c-1.781-9.963-3.324-19.968-5.117-29.928
		c-1.82-10.111-4.127-20.142-5.667-30.292c-1.006-6.627-2.382-13.182-3.338-19.815c-0.931-6.46-2.206-12.869-3.331-19.301
		c-1.209-6.911-2.374-13.83-3.645-20.729c-0.679-3.683-1.513-7.339-2.363-10.988c-0.078-0.334-0.779-0.522-1.191-0.778
		c0.859-2.054,2.892-2.749,4.603-3.612c6.112-3.083,12.433-5.479,19.486-5.243c5.158,0.173,10.324,0.106,15.487,0.146
		c0.532,3.381,1.06,6.763,1.596,10.143c1.149,7.251,2.928,14.403,3.408,21.759c-9.573,0-19.146,0-28.874,0
		c0.026,1.737,0.774,2.443,1.321,3.233c9.519,13.754,18.977,27.553,28.598,41.235c3.226,4.588,6.053,9.475,9.861,13.645
		c1.099,2.838,3.764,4.813,4.372,7.922c-5.296,7.646-10.551,15.321-15.901,22.929C56.953,163.64,51.428,171.299,45.945,178.987z"/>
	<path style="fill:#0477AD;" d="M193.143,203.056c-2.851,8.017-7.694,14.474-14.93,19.055c-1.643-0.568-2.028-1.782-2.277-3.439
		c-0.703-4.68-1.741-9.309-2.576-13.97c-1.154-6.437-2.249-12.885-3.358-19.33c-1.164-6.766-2.271-13.543-3.479-20.301
		c-1.466-8.203-3.034-16.388-4.515-24.589c-1.248-6.914-2.461-13.836-3.642-20.762c-1.154-6.771-2.068-13.588-3.432-20.315
		c-0.937-4.625-1.23-9.418-3.165-13.82c-0.05-0.838,0.021-1.637,0.655-2.283c4.605-4.69,7.496-10.545,11.522-16.411
		c-4.398,0-8.174,0-11.95,0c-0.912-4.789-2.182-9.544-2.645-14.376c-0.561-5.863-2.936-11.468-2.351-17.466
		c5.067-0.842,10.007,0.453,14.999,0.887c0.06,1.159-0.008,2.343,0.203,3.474c1.227,6.579,2.836,13.104,3.714,19.728
		c1.162,8.769,2.892,17.446,4.43,26.131c1.45,8.184,3.021,16.392,4.459,24.579c1.526,8.688,2.922,17.443,4.473,26.121
		c1.809,10.116,3.505,20.272,5.574,30.355c2.136,10.406,3.376,20.993,5.301,31.447C190.495,199.62,190.474,202.263,193.143,203.056z
		"/>
	<path style="fill:#1675A9;" d="M193.143,203.056c-2.669-0.792-2.648-3.435-2.989-5.285c-1.925-10.454-3.165-21.041-5.301-31.447
		c-2.07-10.083-3.766-20.239-5.574-30.355c-1.552-8.678-2.947-17.433-4.473-26.121c-1.438-8.186-3.009-16.394-4.459-24.579
		c-1.539-8.685-3.268-17.362-4.43-26.131c-0.878-6.623-2.486-13.148-3.714-19.728c-0.211-1.131-0.142-2.315-0.203-3.474
		c14.605,2.56,24.475,11.223,30.784,24.235c2.937,6.058,3.952,12.643,3.955,19.352c0.016,35.291,0.078,70.583-0.072,105.874
		C196.642,191.42,195.838,197.474,193.143,203.056z"/>
	<path style="fill:#057AB2;" d="M151.77,85.584c1.935,4.402,2.228,9.195,3.165,13.82c1.363,6.727,2.277,13.544,3.432,20.315
		c1.181,6.926,2.393,13.847,3.642,20.762c1.481,8.201,3.049,16.386,4.515,24.589c1.208,6.758,2.316,13.535,3.479,20.301
		c1.108,6.445,2.204,12.893,3.358,19.33c0.835,4.662,1.874,9.29,2.576,13.97c0.249,1.657,0.634,2.87,2.277,3.439
		c-6.224,3.91-12.741,7.051-20.206,7.702c0.173-3.627-0.835-7.112-1.476-10.612c-1.284-7.015-2.659-14.011-3.533-21.093
		c3.488-0.122,6.976-0.243,10.866-0.379c-3.887-5.835-7.434-11.158-10.98-16.481c0.035-1.164,0.267-2.362,0.074-3.487
		c-1.358-7.894-2.761-15.782-4.143-23.67c-1.577-9.005-3.087-18.031-4.868-26.999c-1.589-8.001-2.222-16.204-4.948-23.97
		c3.107-4.3,6.47-8.425,8.98-13.133c0.915-0.35,0.937-1.248,1.22-1.986c1.348,0.064,1.879-0.641,1.802-1.917
		C151.205,85.837,151.461,85.67,151.77,85.584z"/>
	<path style="fill:#0E85C0;" d="M130.003,229.949c-12.667,0.001-25.334,0.002-38,0.003c0.12-5.42-1.265-10.692-2.262-15.906
		c-1.641-8.583-2.906-17.238-4.678-25.798c-0.334-1.612-0.667-2.833-2.33-3.335c5.042-7.925,10.166-15.794,16.034-23.146
		c2.513,3.07,4.169,6.779,7.101,9.537c2.253,4.244,4.995,8.153,8.089,11.822c2.179,4.272,5.297,7.925,7.902,11.918
		c0.794,1.218,1.593,2.555,3.137,3.063C125.384,208.921,128.171,219.36,130.003,229.949z"/>
	<path style="fill:#0E85C0;" d="M63.007,66.951c-0.479-7.356-2.259-14.508-3.408-21.759c-0.536-3.38-1.064-6.762-1.596-10.143
		c13.667,0,27.333,0,41,0c-0.004,7.767,2.425,15.167,3.466,22.78c0.95,6.951,2.109,13.893,3.634,20.736
		c0.714,3.203-0.124,7.039,3.044,9.49c-0.032,0.364-0.063,0.728-0.095,1.093c-3.737,4.664-6.974,9.679-10.293,14.638
		C89.756,91.896,81.91,79.189,73.099,66.951C69.654,66.951,66.33,66.951,63.007,66.951z"/>
	<path style="fill:#128CCA;" d="M82.734,184.912c1.663,0.502,1.996,1.723,2.33,3.335c1.772,8.561,3.037,17.215,4.678,25.798
		c0.997,5.214,2.382,10.486,2.262,15.906c-12.334,0.001-24.668,0.002-37.002,0.003c-1.827-10.61-4.654-21.063-4.997-31.906
		c7.77,0,15.541,0,22.848,0C76.925,193.703,78.817,188.553,82.734,184.912z"/>
	<path style="fill:#0A7EB7;" d="M109.147,88.055c-3.169-2.452-2.33-6.288-3.044-9.49c-1.525-6.844-2.684-13.786-3.634-20.736
		c-1.041-7.613-3.47-15.013-3.466-22.78c10.333,0,20.665-0.001,30.998-0.001c-0.272,5.802,1.824,11.254,2.528,16.917
		c0.622,5.001,1.63,9.953,2.467,14.927c-3.612,0-7.224,0-10.538,0c-2.527,2.66-4.373,5.144-5.643,8.033
		C115.104,78.942,112.958,84.112,109.147,88.055z"/>
	<path style="fill:#055176;" d="M477.976,34.897C477.547,22.673,487.02,16,496.908,16.449c10.478,0.476,18.119,7.016,17.941,18.54
		c-0.172,11.122-8.131,18.346-19.413,18.15C486.302,52.98,476.647,45.262,477.976,34.897z"/>
	<path style="fill:#0A7EB7;" d="M130.003,229.949c-1.833-10.589-4.619-21.027-5.007-31.843c9.334-0.29,18.668-0.291,28.001,0.001
		c0.873,7.083,2.249,14.078,3.533,21.093c0.641,3.501,1.649,6.985,1.476,10.612C148.675,230.373,139.339,230.127,130.003,229.949z"
		/>
	<path style="fill:#057AB2;" d="M134.997,66.892c-0.837-4.974-1.845-9.927-2.467-14.927c-0.705-5.663-2.8-11.115-2.528-16.917
		c5.667-0.259,11.333-0.28,17,0.001c-0.585,5.998,1.79,11.603,2.351,17.466c0.462,4.832,1.733,9.587,2.645,14.376
		C146.33,67.174,140.664,67.184,134.997,66.892z"/>
	<path style="fill:#0EA14D;" d="M1541.773,15.431c0,1.961,0,3.439,0,5.159c-3.607,1.423-7.536-0.214-11.457,1.066
		c0,9.954,0,19.862,0,29.774c-2.158,1.141-4.059,0.612-6.477,0.632c0-10.314,0-20.345,0-30.771c-3.944,0-7.377,0-10.611,0
		c-1.428-2.066-0.647-3.836-0.826-5.861C1522.275,15.431,1531.803,15.431,1541.773,15.431z"/>
	<path style="fill:#DCDDDD;" d="M95.007,108.006c-0.46,2.512-2.214,4.261-3.611,6.237c-4.401,6.226-8.745,12.493-13.112,18.743
		c-0.609-3.109-3.273-5.084-4.372-7.922c6.251-3.948,11.036-9.622,16.735-14.22c1.354-1.092,2.163-3.022,4.346-2.852L95.007,108.006
		z"/>
	<path style="fill:#A2C93F;" d="M134.997,66.892c5.667,0.291,11.333,0.282,17-0.002c3.776,0,7.551,0,11.95,0
		c-4.026,5.866-6.917,11.721-11.522,16.411c-0.634,0.646-0.705,1.445-0.655,2.283c-0.309,0.086-0.565,0.253-0.768,0.5
		c-0.984,0.279-1.697,0.811-1.802,1.917c-0.283,0.738-0.305,1.636-1.22,1.986c-1.585,0.306-2.953-0.364-4.245-1.087
		c-3.452-1.932-6.787-4.08-10.291-5.907c-4.941-2.577-9.368-6.079-14.628-8.068c1.271-2.889,3.116-5.373,5.643-8.033
		C127.773,66.892,131.385,66.892,134.997,66.892z"/>
	<path style="fill:#0A7EB7;" d="M139,103.12c2.725,7.766,3.359,15.97,4.948,23.97c1.781,8.968,3.29,17.994,4.868,26.999
		c1.382,7.888,2.785,15.776,4.143,23.67c0.193,1.125-0.039,2.323-0.074,3.487c-0.982-0.654-1.506-1.67-2.198-2.583
		c-3.958-5.228-7.172-10.994-11.537-15.923c-2.283-4.209-5.042-8.088-8.129-11.74c-3.515-6.534-8.753-11.937-12.328-18.461
		c4.519-6.495,9.024-12.817,13.344-19.262c1.535-2.289,3.729-4.258,4.104-7.224C137.995,105.954,137.57,103.633,139,103.12z"/>
	<path style="fill:#A2C93F;" d="M139.149,162.741c4.366,4.928,7.58,10.694,11.537,15.923c0.692,0.914,1.215,1.929,2.198,2.583
		c3.546,5.323,7.092,10.646,10.98,16.481c-3.89,0.136-7.378,0.257-10.866,0.379c-9.334-0.293-18.668-0.292-28.001-0.001
		c-1.543-0.508-2.342-1.845-3.137-3.063c-2.604-3.993-5.722-7.645-7.902-11.918c-0.01-1.028,0.223-1.963,1.103-2.605
		C123.123,174.638,130.791,168.222,139.149,162.741z"/>
	<path style="fill:#90C642;" d="M139,103.12c-1.43,0.513-1.005,2.834-2.859,2.933c-1.526,0.108-2.946-0.255-4.219-1.077
		c-6.178-3.99-12.599-7.552-19.051-11.073c-1.795-0.98-3.754-2.207-3.817-4.755c0.032-0.364,0.063-0.728,0.095-1.093
		c3.811-3.944,5.957-9.113,9.668-13.13c5.26,1.989,9.687,5.492,14.628,8.068c3.504,1.827,6.84,3.975,10.291,5.907
		c1.292,0.723,2.66,1.392,4.245,1.087C145.469,94.695,142.106,98.82,139,103.12z"/>
	<path style="fill:#0477AD;" d="M149.2,88.001c0.105-1.105,0.818-1.638,1.802-1.917C151.079,87.36,150.548,88.065,149.2,88.001z"/>
	<path style="fill:#7EC145;" d="M109.052,89.148c0.063,2.548,2.022,3.775,3.817,4.755c6.452,3.521,12.873,7.084,19.051,11.073
		c1.273,0.822,2.694,1.185,4.219,1.077c-0.375,2.966-2.57,4.935-4.104,7.224c-4.32,6.446-8.826,12.768-13.344,19.262
		c3.575,6.525,8.813,11.928,12.328,18.461c-0.491,0.061-1.111-0.05-1.453,0.208c-7.333,5.538-14.64,11.112-21.94,16.693
		c-1.105,0.845-1.779,1.954-1.758,3.401c-2.932-2.758-4.588-6.467-7.101-9.537c4.572-7.88,10.252-15.005,15.353-22.524
		c1.477-2.177,2.916-4.379,4.381-6.583c-6.682-9.772-13.212-19.323-19.743-28.874C102.078,98.827,105.315,93.811,109.052,89.148z"/>
	<path style="fill:#90C642;" d="M105.87,171.303c-0.022-1.448,0.653-2.557,1.758-3.401c7.3-5.581,14.606-11.155,21.94-16.693
		c0.342-0.258,0.962-0.147,1.453-0.208c3.086,3.653,5.845,7.532,8.129,11.74c-8.358,5.48-16.026,11.896-24.088,17.779
		c-0.879,0.641-1.112,1.577-1.103,2.605C110.865,179.456,108.123,175.547,105.87,171.303z"/>
	<path style="fill:#DCDDDD;" d="M94.994,107.993c0.141-0.241,0.282-0.481,0.423-0.722c0.64,0.678-0.146,0.561-0.41,0.735
		L94.994,107.993z"/>
</g>
</svg>
