<?xml version="1.0" encoding="iso-8859-1"?>
<!-- Generator: Adobe Illustrator 27.0.0, SVG Export Plug-In . SVG Version: 6.00 Build 0)  -->
<svg version="1.1" id="Layer_1" xmlns="http://www.w3.org/2000/svg" xmlns:xlink="http://www.w3.org/1999/xlink" x="0px" y="0px"
	 viewBox="0 0 206.679 204.923" style="enable-background:new 0 0 206.679 204.923;" xml:space="preserve">
<g>
	<path style="fill:#4CADC7;" d="M0,0c68.893,0,137.786,0,206.679,0c0,27.314,0,54.628,0,81.942c-0.563,0.15-1.129,0.29-1.689,0.45
		c-3.602,1.029-7.206,2.053-10.867,2.859c-2.339,0.515-4.699,0.957-7.083,1.111c-1.894,0.122-3.811,0.149-5.712-0.1
		c-1.068-0.14-2.135-0.291-3.18-0.551c-3.156-0.786-6.006-2.136-8.249-4.57c-1.867-2.026-2.885-4.417-3.02-7.172
		c-0.024-0.491-0.047-0.99,0.17-1.442c0.825-0.658,1.539-1.409,2.26-2.149c1.838-1.884,3.526-3.904,5.3-5.846
		c1.228-1.345,2.49-2.659,3.706-4.015c2.162-2.41,4.243-4.889,6.252-7.428c2.176-2.751,4.314-5.531,6.304-8.42
		c2.584-3.75,4.724-7.75,6.56-11.913c0.67-1.519,1.346-3.038,1.746-4.662c0.35-1.42,0.687-2.846,0.599-4.318
		c-0.106-1.778-0.548-2.619-2.519-3.059c-1.122-0.25-2.282-0.129-3.409,0.148c-2.721,0.668-5.221,1.835-7.434,3.536
		c-2.193,1.685-4.224,3.562-6.155,5.549c-2.344,2.413-4.393,5.06-6.234,7.863c-2.928,4.457-5.514,9.112-7.844,13.909
		c-1.129,2.325-2.059,4.738-3.149,7.08c-1.558,3.347-2.795,6.811-3.717,10.385c-0.538,2.085-0.995,4.189-1.374,6.309
		c-0.081,0.453-0.252,0.835-0.584,1.175c-0.707,0.723-1.371,1.488-2.058,2.23c-2.065,2.228-4.176,4.408-6.59,6.271
		c-2.873,2.217-6.139,3.236-9.744,3.106c-2.103-0.076-3.459-1.189-3.858-3.269c-0.176-0.918-0.12-1.831-0.118-2.807
		c0.08-0.058,0.181-0.115,0.262-0.193c2.089-2.015,4.15-4.06,6.143-6.168c2.456-2.598,4.743-5.345,6.986-8.13
		c4.026-4.999,7.579-10.326,10.983-15.757c2.018-3.22,3.9-6.519,5.662-9.884c1.126-2.15,2.203-4.324,2.995-6.626
		c0.669-1.945,1.04-3.944,0.975-6.003c-0.051-1.634-1.183-3.298-2.945-3.527c-0.039-0.052-0.082-0.093-0.153-0.05
		c-1.22-0.193-2.364,0.14-3.487,0.539c-1.304,0.464-2.449,1.226-3.552,2.045c-2.669,1.981-4.973,4.352-7.175,6.822
		c-2.574,2.888-4.951,5.937-7.307,9.005c-3.969,5.169-7.413,10.663-10.388,16.457c-1.879,3.66-3.633,7.378-5.224,11.171
		c-1.641,3.912-2.792,7.954-3.248,12.185c-0.062,0.577-0.035,1.182-0.51,1.694c-2.098,2.262-4.246,4.467-6.67,6.385
		c-0.953,0.754-1.942,1.459-3.044,1.987c-0.529,0.254-1.079,0.454-1.673,0.475c-0.902,0.031-1.278-0.336-1.314-1.231
		c-0.027-0.68,0.075-1.344,0.218-2.003c0.52-2.399,1.348-4.702,2.21-6.992c2.011-5.343,4.326-10.557,6.707-15.743
		c0.457-0.996,0.913-1.993,1.43-3.122c-2.793,0.359-5.466,0.703-8.146,1.048c-0.815,1.48-1.57,2.959-2.487,4.384
		c-0.075-0.144-0.14-0.261-0.199-0.381c-0.789-1.627-2.12-2.509-3.867-2.823c-2.174-0.391-4.236-0.095-6.212,0.918
		c-2.227,1.142-4.137,2.703-5.925,4.418c-2.015,1.933-3.862,4.026-5.554,6.245c-3.664,4.804-6.859,9.901-9.4,15.391
		c-1.353,2.923-2.524,5.907-2.836,9.153c-0.159,1.66-0.217,3.321,0.068,4.973c0.332,1.923,1.432,3.202,3.293,3.815
		c1.316,0.433,2.658,0.58,4.045,0.482c1.741-0.123,3.347-0.631,4.839-1.514c1.48-0.875,2.758-2.013,4.007-3.18
		c2.327-2.174,4.337-4.62,6.133-7.245c0.128-0.187,0.229-0.402,0.451-0.56c0.105,1.522,0.469,2.919,1.044,4.271
		c0.685,1.61,2.504,2.169,3.773,2.071c1.173-0.091,2.281-0.461,3.345-0.969c2.004-0.956,3.792-2.238,5.49-3.648
		c2.077-1.725,4.03-3.583,5.884-5.551c1.713-1.818,3.375-3.677,4.953-5.612c0.08-0.098,0.141-0.238,0.321-0.194
		c0.34,0.727,0.658,1.471,1.03,2.186c0.967,1.861,2.506,3.03,4.51,3.582c1.734,0.478,3.471,0.344,5.196-0.079
		c2.111-0.518,4.066-1.415,5.967-2.445c2.178-1.18,4.287-2.484,6.232-4.01c3.167-2.486,6.2-5.133,9.02-8.015
		c0.135-0.138,0.243-0.319,0.464-0.379c0.028,0.033,0.062,0.064,0.085,0.102c0.047,0.076,0.092,0.155,0.131,0.235
		c0.913,1.84,2.166,3.402,3.76,4.705c1.422,1.163,2.931,2.157,4.699,2.712c1.458,0.457,2.952,0.77,4.442,1.097
		c0.143,0.031,0.298,0.029,0.375,0.228c-0.194,0.072-0.361,0.136-0.529,0.194c-4.538,1.578-9.13,2.991-13.708,4.444
		c-7.06,2.241-14.137,4.429-21.172,6.75c-3.943,1.301-7.909,2.532-11.754,4.126c-6.536,2.709-13.057,5.452-19.536,8.297
		c-5.883,2.584-11.729,5.249-17.539,7.992c-5.059,2.389-10.084,4.851-15.082,7.367c-4.296,2.163-8.576,4.355-12.851,6.559
		c-5.337,2.751-10.551,5.718-15.71,8.784c-4.851,2.882-9.641,5.863-14.389,8.912c-5.429,3.487-10.805,7.054-16.113,10.722
		c-4.384,3.029-8.73,6.111-12.978,9.328c-0.12,0.091-0.226,0.223-0.447,0.182C0,116.406,0,58.203,0,0z M21.999,84.265
		c-0.796-0.063-1.486-0.032-2.175-0.165c-2.227-0.428-4.185-1.318-5.702-3.066c-1.096-1.262-1.748-2.74-1.944-4.364
		c-0.164-1.358,0.029-2.732,0.319-4.081c0.688-3.198,2.248-5.951,4.307-8.442c2.979-3.604,6.383-6.767,10.082-9.62
		c3.068-2.366,6.31-4.466,9.708-6.324c1.241-0.679,2.465-1.405,3.786-1.918c3.036-1.18,6.145-2.147,9.301-2.949
		c3.021-0.768,6.065-1.41,9.168-1.796c1.872-0.233,3.743-0.403,5.624-0.499c1.458-0.074,2.91,0.061,4.364,0.135
		c0.061,0.003,0.084,0.032,0.048,0.168c-1.016,0.948-1.943,2.076-2.883,3.19c-3.015,3.573-5.873,7.276-8.964,10.788
		c-1.514,1.72-2.827,3.609-4.206,5.44c-3.856,5.118-7.569,10.337-11.112,15.678c-4.089,6.165-7.905,12.499-11.771,18.803
		c-3.537,5.768-7.108,11.514-10.815,17.174c-2.217,3.385-4.44,6.765-6.543,10.222c-2.348,3.86-4.621,7.764-6.838,11.7
		c-1.688,2.996-3.371,5.994-5.051,8.994c-0.112,0.2-0.268,0.394-0.283,0.724c6.742-2.202,13.413-4.381,20.098-6.564
		c2.329-5.505,4.553-11.035,6.976-16.568c0.375,0.421,0.685,0.773,1,1.121c1.344,1.488,2.731,2.934,4.426,4.032
		c3.355,2.174,7.074,3.137,11.039,3.216c0.986,0.02,1.971-0.098,2.952-0.225c2.177-0.284,4.274-0.86,6.235-1.84
		c4.992-2.496,9.121-6.051,12.56-10.422c2.135-2.714,3.902-5.655,5.368-8.783c1.864-3.977,3.076-8.132,3.429-12.516
		c0.105-1.298,0.068-2.608-0.143-3.901c-0.509-3.112-1.876-5.79-4.098-8.029c-1.514-1.525-3.271-2.74-5.054-3.919
		c-0.174-0.115-0.374-0.205-0.545-0.452c0.666-0.131,1.255-0.245,1.843-0.363c4.784-0.96,9.373-2.466,13.651-4.853
		c2.525-1.409,4.841-3.1,6.936-5.097c1.338-1.276,2.532-2.679,3.697-4.109c2.544-3.124,3.897-6.694,3.946-10.726
		c0.017-1.413-0.183-2.82-0.515-4.201c-0.645-2.682-1.83-5.052-3.879-6.959c-1.456-1.355-3.149-2.302-4.959-3.072
		c-1.612-0.686-3.282-1.201-4.963-1.67c0.006-0.147,0.106-0.21,0.193-0.278c1.206-0.939,2.403-1.889,3.622-2.811
		c1.505-1.138,2.991-2.308,4.659-3.212c2.153-1.167,4.698-0.847,6.213,1.332c0.401,0.576,0.658,1.218,0.949,1.907
		c0.783-0.77,1.491-1.549,2.129-2.39c0.509-0.671,0.875-1.408,0.989-2.256c0.261-1.94-0.53-3.97-2.931-4.426
		c-1.224-0.233-2.453-0.263-3.689-0.256c-1.933,0.012-3.783,0.422-5.576,1.128c-1.242,0.489-2.363,1.194-3.491,1.891
		c-2.796,1.728-5.483,3.603-7.976,5.754c-0.801,0.69-1.527,1.457-2.292,2.144c-0.689,0.1-1.331-0.078-1.981-0.087
		c-0.765-0.011-1.53-0.014-2.294-0.054c-2.764-0.146-5.526-0.149-8.29,0c-0.827,0.045-1.653,0.116-2.478,0.156
		c-0.827,0.04-1.649,0.139-2.473,0.201c-1.16,0.087-2.311,0.306-3.463,0.485c-2.752,0.426-5.461,1.056-8.142,1.801
		c-3.137,0.871-6.226,1.893-9.305,2.949c-3.17,1.088-6.269,2.328-9.228,3.92c-4.889,2.631-9.475,5.693-13.619,9.4
		c-3.287,2.941-6.233,6.166-8.397,10.042c-1.996,3.577-3.133,7.38-3.021,11.52c0.059,2.196,0.642,4.194,1.91,6.002
		c1.715,2.444,3.96,4.092,6.93,4.618c2.502,0.443,5.011,0.371,7.496-0.156C18.911,87.046,20.561,85.934,21.999,84.265z"/>
	<path style="fill:#4CADC7;" d="M206.679,88.017c0,38.969,0,77.937,0,116.906c-0.315-0.001-0.63-0.003-0.945-0.003
		c-68.194,0-136.388,0-204.583,0c-0.202,0-0.405,0.008-0.607-0.002c-0.172-0.009-0.363,0.058-0.52-0.115c0-1.648,0-3.308,0-4.973
		c2.424-2.399,4.807-4.819,7.259-7.17c2.727-2.615,5.479-5.203,8.3-7.717c1.98-1.765,3.965-3.526,5.976-5.256
		c3.681-3.167,7.435-6.246,11.2-9.312c4.131-3.363,8.284-6.7,12.495-9.964c3.535-2.741,7.107-5.433,10.739-8.044
		c5.716-4.109,11.586-7.983,17.589-11.659c4.313-2.641,8.683-5.185,13.08-7.682c4.184-2.375,8.447-4.602,12.756-6.737
		c4.832-2.394,9.721-4.665,14.656-6.84c5.077-2.238,10.189-4.39,15.338-6.455c4.293-1.722,8.604-3.401,12.914-5.08
		c3.661-1.425,7.308-2.884,11.039-4.126c6.347-2.112,12.705-4.19,19.11-6.121c5.157-1.555,10.31-3.122,15.485-4.616
		C194.17,91.258,200.411,89.588,206.679,88.017z"/>
	<path style="fill:#B6DCE7;" d="M166.052,25.913c-0.051-0.017-0.102-0.033-0.153-0.05C165.97,25.82,166.012,25.861,166.052,25.913z"
		/>
	<path style="fill:#4DADC7;" d="M136.511,73.961c-0.062-1.231,0.257-2.406,0.57-3.573c0.636-2.366,1.506-4.653,2.449-6.912
		c1.238-2.967,2.581-5.886,4.179-8.676c2.56-4.472,5.363-8.785,8.708-12.72c1.355-1.594,2.791-3.114,4.48-4.37
		c0.524-0.389,1.075-0.732,1.683-0.981c1.19-0.488,1.703,0.303,1.789,1.122c0.071,0.678-0.041,1.342-0.205,2
		c-0.326,1.312-0.839,2.555-1.368,3.795c-1.281,3.009-2.969,5.793-4.678,8.568c-2.594,4.211-5.283,8.357-8.307,12.277
		c-2.118,2.746-4.413,5.333-6.959,7.691c-0.675,0.625-1.395,1.202-2.094,1.801C136.676,73.976,136.593,73.969,136.511,73.961z"/>
	<path style="fill:#4DADC7;" d="M109.215,76.458c0.009,1.183-0.318,2.306-0.663,3.421c-0.939,3.038-2.269,5.911-3.771,8.706
		c-1.204,2.239-2.499,4.426-4.065,6.436c-1.51,1.938-3.31,3.549-5.522,4.656c-0.766,0.383-1.57,0.646-2.453,0.644
		c-0.955-0.003-1.634-0.425-2.094-1.229c-0.545-0.953-0.661-1.987-0.541-3.064c0.293-2.642,1.338-5.021,2.596-7.316
		c1.671-3.051,3.768-5.799,6.045-8.419c1.556-1.791,3.239-3.433,5.204-4.774c0.824-0.562,1.693-1.008,2.687-1.198
		c0.73-0.14,1.383,0.038,2.004,0.385c0.357,0.2,0.539,0.538,0.568,0.943C109.23,75.917,109.215,76.188,109.215,76.458z"/>
	<path style="fill:#4DAEC7;" d="M167.919,65.464c0.072-1.028,0.263-1.902,0.48-2.768c0.871-3.472,2.12-6.81,3.541-10.091
		c2.229-5.147,5.218-9.836,8.531-14.337c1.481-2.013,3.045-3.956,4.825-5.712c0.896-0.884,1.849-1.711,3.009-2.253
		c0.652-0.305,1.307-0.447,2.019-0.182c0.528,0.196,0.798,0.547,0.832,1.102c0.038,0.615-0.08,1.205-0.241,1.793
		c-0.425,1.547-1.107,2.991-1.831,4.411c-2.108,4.131-4.565,8.054-7.193,11.87c-2.411,3.501-4.967,6.891-7.772,10.09
		c-1.202,1.371-2.436,2.708-3.754,3.967C169.619,64.065,168.844,64.746,167.919,65.464z"/>
	<path style="fill:#8BC9DA;" d="M136.511,73.961c0.083,0.007,0.165,0.015,0.248,0.022C136.665,74.103,136.574,74.182,136.511,73.961
		z"/>
	<path style="fill:#4CADC7;" d="M66.033,92.237c0.029,2.102-0.375,4.078-0.938,6.023c-1.741,6.022-4.719,11.394-8.665,16.235
		c-1.595,1.957-3.385,3.73-5.498,5.141c-2.784,1.859-5.838,2.512-9.169,2.185c-2.084-0.204-4.128-0.54-6.126-1.143
		c-1.708-0.515-3.325-1.229-4.71-2.397c-0.452-0.382-0.825-0.824-1.168-1.299c-0.233-0.323-0.239-0.639-0.066-1.008
		c1.784-3.805,3.676-7.554,5.652-11.263c0.95-1.784,1.822-3.61,2.743-5.41c2.61-5.102,5.414-10.097,8.333-15.029
		c0.204-0.344,0.471-0.587,0.819-0.771c1.834-0.97,3.771-1.533,5.86-1.569c0.577-0.01,1.148-0.154,1.734-0.13
		c2.758,0.115,5.349,0.781,7.506,2.572c1.665,1.383,2.96,3.068,3.465,5.247C66.01,90.504,66.046,91.398,66.033,92.237z"/>
	<path style="fill:#4CADC7;" d="M76.313,41.815c0.663,0.101,1.27,0.343,1.877,0.569c2.063,0.768,3.99,1.762,5.491,3.429
		c1.412,1.568,2.003,3.387,1.818,5.512c-0.304,3.503-1.612,6.645-3.303,9.662c-1.626,2.903-3.659,5.501-6.017,7.837
		c-2.329,2.307-4.94,4.247-7.867,5.74c-2.418,1.233-4.955,2.084-7.666,2.406c-1.429,0.17-2.858,0.296-4.293,0.22
		c-1.209-0.064-2.418-0.18-3.567-0.615c-0.402-0.152-0.79-0.32-1.094-0.655c-0.022-0.298,0.185-0.493,0.325-0.714
		c3.256-5.121,6.647-10.153,10.046-15.18c2.607-3.855,5.314-7.638,8.158-11.32c1.675-2.169,3.359-4.337,5.298-6.286
		C75.743,42.197,75.965,41.973,76.313,41.815z"/>
</g>
</svg>
