<?xml version="1.0" encoding="iso-8859-1"?>
<!-- Generator: Adobe Illustrator 27.0.0, SVG Export Plug-In . SVG Version: 6.00 Build 0)  -->
<svg version="1.1" id="Layer_1" xmlns="http://www.w3.org/2000/svg" xmlns:xlink="http://www.w3.org/1999/xlink" x="0px" y="0px"
	 viewBox="0 0 1503 343" style="enable-background:new 0 0 1503 343;" xml:space="preserve">
<g>
	<path style="fill:#E9292B;" d="M186,0c2.535,1.976,5.677,1.261,8.482,1.639c41.051,5.526,75.434,23.982,103.418,54.109
		c21.134,22.752,34.662,49.75,41.04,80.207c3.605,17.213,4.655,34.64,2.842,52.115c-3.591,34.622-16.346,65.53-38.559,92.424
		c-23.622,28.601-53.609,47.334-89.272,57.052c-8.322,2.268-16.819,3.963-25.485,4.472c-0.708,0.042-1.283,0.198-1.466,0.984
		c-10,0-20,0-30,0c-0.488-1.247-1.62-0.898-2.546-0.998c-24.412-2.636-47.374-9.712-68.659-22.113
		c-18.904-11.014-35.244-24.948-48.84-42.099C17.508,253.257,5.902,225.425,1.61,194.445C1.316,192.323,2.028,189.757,0,188
		c0-11.333,0-22.667,0-34c2.025-1.714,1.465-4.244,1.747-6.371c2.338-17.618,7.283-34.535,15.187-50.344
		c26.984-53.971,70.59-85.578,130.074-95.504C149.992,1.283,153.279,1.916,156,0C166,0,176,0,186,0z M113.002,166.315
		c0-1.647,0-2.449,0-3.251c0-13.999-0.132-27.999,0.053-41.996c0.098-7.373-3.861-10.411-10.43-10.114
		c-8.314,0.376-16.591,1.079-24.883,1.751c-11.659,0.946-20.713,10.909-20.634,23.366c0.138,21.831,0.014,43.663,0.049,65.494
		c0.018,11.159,6.764,19.321,17.749,21.427c4.076,0.781,8.198,1.385,12.326,1.829c21.191,2.277,42.475,3.129,63.759,3.734
		c16.134,0.458,32.271,0.284,48.42-0.282c15.636-0.548,31.256-1.209,46.85-2.413c7.96-0.614,15.901-1.484,23.772-2.879
		c9.642-1.709,16.15-8.939,17.149-18.714c0.765-7.487,0.364-14.977,0.407-22.463c0.087-15.165,0.095-30.331,0.005-45.496
		c-0.077-13.104-7.632-21.663-20.394-23.492c-8.253-1.183-16.563-1.425-24.87-1.871c-7.648-0.41-10.593,4.172-10.443,10.058
		c0.349,13.657,0.127,27.328,0.085,40.994c-0.004,1.26,0.506,2.659-1.029,4.301C192.146,164.365,152.9,164.57,113.002,166.315z"/>
	<path style="fill:#0A0909;" d="M1503,201c-1.838,1.068-3.863,0.754-5.834,0.755c-19.981,0.011-39.962,0-59.943,0.018
		c-1.798,0.002-3.634-0.245-5.371,0.301c-0.21,14.267,8.407,23.836,18.406,26.559c6.411,1.746,12.893,0.992,19.296,0.016
		c6.592-1.004,12.787-3.344,19.086-7.006c3.866,6.779,6.936,13.808,10.359,20.772c-10.362,6.924-21.707,10.323-33.762,11.236
		c-10.978,0.831-21.876,0.288-32.44-3.465c-15.574-5.532-26.197-16.119-31.672-31.547c-5.545-15.626-5.91-31.608-0.842-47.45
		c7.66-23.946,30.059-38.323,54.128-37.443c6.178,0.226,12.267,0.852,18.102,2.928c14.875,5.291,23.327,16.334,27.4,31.131
		c1.054,3.83,2.067,7.705,2.113,11.734c0.008,0.701,0.173,1.291,0.973,1.461c0,0.667,0,1.333,0,2
		c-0.986,0.279-1.045,1.054-1.04,1.89c0.021,3.391,0.035,6.783,0.034,10.175c0,0.835,0.053,1.61,1.005,1.935
		C1503,198.333,1503,199.667,1503,201z M1470.972,179.54c0.559-2.554,0.324-4.747-0.121-6.811
		c-1.461-6.768-4.351-12.606-11.597-14.836c-8.802-2.709-20.201-0.452-25.257,11.021c-1.468,3.331-2.358,6.8-2.829,10.626
		C1444.466,179.54,1457.537,179.54,1470.972,179.54z"/>
	<path style="fill:#646161;" d="M1503,197c-0.952-0.325-1.006-1.1-1.005-1.935c0-3.392-0.014-6.783-0.034-10.175
		c-0.005-0.836,0.053-1.611,1.04-1.89C1503,187.667,1503,192.333,1503,197z"/>
	<path style="fill:#060606;" d="M1069.071,244.734c0-54.478,0-108.44,0-162.711c10.521,0,20.909,0,31.7,0c0,20.61,0,41.209,0,61.69
		c1.147,0.304,1.658-0.133,2.158-0.564c21.236-18.299,56.704-9.884,67.212,17.241c7.915,20.432,8.872,41.161-0.009,61.593
		c-7.15,16.448-20.45,25.657-37.481,29.953c-12.027,3.034-24.101,1.881-36.195,0.399
		C1087.003,251.176,1077.991,248.574,1069.071,244.734z M1101.047,225.633c4.68,2.149,9.576,2.346,14.567,2.49
		c13.129,0.377,20.761-8.051,23.714-16.876c3.089-9.233,3.253-18.61,2.256-28.101c-0.469-4.466-1.557-8.822-3.633-12.857
		c-2.713-5.273-6.708-8.949-12.63-10.416c-9.696-2.403-17.523,0.847-24.274,7.311
		C1101.047,186.878,1101.047,206.184,1101.047,225.633z"/>
	<path style="fill:#040404;" d="M942.379,81.933c10.359,0,20.639,0,31.341,0c0,22.104,0,44.344,0,66.854
		c2.092-0.278,2.742-1.743,3.727-2.667c11.955-11.222,26.147-14.839,41.953-11.656c12.864,2.591,19.653,11.497,22.524,23.829
		c1.027,4.41,1.189,8.899,1.192,13.395c0.018,25.329,0.014,50.658-0.007,75.987c-0.001,0.951,0.322,1.996-0.59,3.039
		c-10.263,0-20.667,0-31.126,0c-0.654-1.785-0.359-3.452-0.361-5.074c-0.023-22.163-0.038-44.326,0.01-66.489
		c0.007-3.188-0.252-6.318-1.012-9.401c-1.335-5.407-5.022-8.372-10.639-8.863c-10.616-0.928-17.946,4.62-24.368,12.109
		c-1.378,1.607-1.008,3.432-1.009,5.215c-0.02,22.496-0.013,44.992-0.013,67.488c0,1.623,0,3.246,0,5.038
		c-10.725,0-20.998,0-31.622,0C942.379,194.548,942.379,138.35,942.379,81.933z"/>
	<path style="fill:#090808;" d="M569.845,104.302c-5.119,8.469-10.064,16.652-15.115,25.008c-6.27-3.482-12.258-6.676-19.04-7.853
		c-13.351-2.317-26.201-1.686-37.641,6.682c-8.706,6.367-13.843,15.135-16.314,25.451c-3.945,16.468-3.184,32.651,4.151,48.134
		c6.882,14.526,18.737,21.934,34.591,23.126c12.374,0.931,23.652-2.389,33.99-9.136c1.082-0.706,1.909-1.831,3.792-2.156
		c4.434,7.746,8.942,15.62,13.598,23.753c-4.915,4.906-10.746,8.061-16.878,10.42c-24.171,9.298-48.145,8.536-71.451-2.815
		c-16.796-8.18-27.676-21.964-34.367-39.133c-4.896-12.564-6.746-25.779-5.919-39.138c1.317-21.289,8.837-40.1,24.655-54.972
		c10.567-9.935,23.304-15.929,37.453-18.378c16.05-2.778,32.113-2.503,47.787,2.741C558.965,97.985,564.383,100.763,569.845,104.302
		z"/>
	<path style="fill:#090808;" d="M578.682,189.817c0.499-10.813,3.219-21.012,8.779-30.288c8.02-13.38,19.549-21.91,35.153-24.571
		c12.003-2.047,23.718-1.659,35.283,2.737c15.174,5.766,25.174,16.568,30.5,31.488c8.067,22.6,5.615,44.185-8.537,63.852
		c-8.504,11.818-20.63,17.754-34.876,20.011c-10.453,1.656-20.647,0.722-30.481-2.686c-15.557-5.391-25.804-16.376-31.6-31.708
		C579.377,209.322,578.225,199.697,578.682,189.817z M634.916,157.881c-2.043,0.166-4.022-0.026-6.011,0.473
		c-7.608,1.911-11.689,7.321-13.874,14.303c-3.399,10.859-2.89,21.989-1.514,33.098c0.511,4.124,1.62,8.146,3.614,11.826
		c2.778,5.125,6.5,9.173,12.483,10.624c11.828,2.869,22.028-1.546,26.382-14.116c1.706-4.925,2.335-10.058,2.565-15.178
		c0.44-9.838-0.126-19.606-4.429-28.744C650.299,162.027,644.062,157.628,634.916,157.881z"/>
	<path style="fill:#0B0A0A;" d="M780.111,136.285c10.599,0,20.862,0,31.329,0c1.619,38.191-2.002,76.299,2.64,114.426
		c-10.153,0-20.262,0-30.693,0c-1.576-4.488-1.961-9.256-2.622-14.385c-1.229,1.316-2.248,2.5-3.363,3.586
		c-12.509,12.197-27.26,16.613-44.312,12.414c-11.721-2.886-18.088-11.049-20.999-22.32c-1.044-4.043-1.366-8.194-1.37-12.354
		c-0.023-26.152-0.012-52.303-0.006-78.455c0-0.828,0.082-1.656,0.143-2.805c10.453,0,20.857,0,31.342,0
		c1.088,1.634,0.529,3.517,0.533,5.283c0.044,21.654-0.003,43.309,0.059,64.963c0.011,3.797-0.185,7.61,1.048,11.358
		c1.655,5.032,5.095,7.441,10.188,8.12c6.92,0.922,12.726-1.472,17.988-5.66c1.038-0.826,1.9-1.873,2.93-2.711
		c3.586-2.92,4.951-6.436,4.887-11.256c-0.286-21.484-0.133-42.974-0.109-64.461C779.728,140.224,779.432,138.388,780.111,136.285z"
		/>
	<path style="fill:#080808;" d="M1286.681,250.688c-10.59,0-20.857,0-31.216,0c-1.938-3.195-1.119-7.105-2.624-10.545
		c-1.532,0.337-2.269,1.696-3.282,2.648c-13.2,12.424-33.712,14.717-48.343,5.369c-7.779-4.97-12.057-12.184-13.182-21.227
		c-2.469-19.836,7.518-32.871,24.306-39.968c10.563-4.465,21.667-6.099,33.047-6.245c1.825-0.023,3.651-0.003,6.033-0.003
		c0.638-5.277,0.377-10.293-1.749-15.045c-1.457-3.256-4.468-4.793-7.795-5.683c-6.298-1.684-12.495-0.929-18.7,0.658
		c-6.523,1.668-12.369,4.645-18.129,9.102c-4.575-6.419-9.072-12.728-13.548-19.008c0.477-2.334,2.431-3.227,3.968-4.338
		c9.888-7.15,20.928-11.112,33.086-12.528c8.718-1.015,17.243-0.441,25.762,1.151c15.575,2.91,24.835,12.43,27.807,27.932
		c0.982,5.122,0.973,10.253,1.114,15.384c0.2,7.322,0.085,14.654,0.044,21.982C1283.187,217.102,1282.957,233.884,1286.681,250.688z
		 M1251.613,200.092c-5.521,0.819-10.64,0.351-15.674,1.394c-2.749,0.569-5.462,1.244-8.02,2.455
		c-3.392,1.606-6.145,3.906-7.938,7.24c-4.31,8.012-0.515,17.061,7.836,18.735c8.487,1.701,18.802-2.632,23.796-9.938
		C1251.613,213.599,1251.613,207.305,1251.613,200.092z"/>
	<path style="fill:#0B0A0A;" d="M1382.347,142.803c-3.729,7.46-7.268,14.54-10.761,21.528c-1.697,0.404-2.642-0.764-3.763-1.323
		c-7.432-3.711-15.247-5.513-23.573-5.081c-2.702,0.14-5.288,0.7-7.641,1.981c-5.849,3.185-6.235,9.928-0.803,13.758
		c2.868,2.022,6.175,3.161,9.427,4.404c7.887,3.014,15.892,5.778,23.219,10.068c7.05,4.128,12.897,9.389,15.54,17.453
		c4.941,15.076,1.155,38.11-22.837,45.161c-19.174,5.635-38.074,3.948-56.148-4.889c-1.581-0.773-3.4-1.404-4.616-3.431
		c3.345-7.101,6.767-14.364,10.109-21.456c1.934-0.202,2.804,0.996,3.935,1.607c9.869,5.33,20.214,8.299,31.552,6.468
		c2.483-0.401,4.892-1.067,6.984-2.466c4.849-3.244,4.971-9.091,0.178-12.416c-4.113-2.853-8.883-4.406-13.479-6.286
		c-7.522-3.076-14.964-6.303-21.721-10.916c-11.049-7.543-15.871-18.122-14.635-31.252c1.241-13.184,8.231-22.443,20.403-27.838
		c8.11-3.594,16.631-4.261,25.326-4.174C1360.734,133.82,1371.617,136.812,1382.347,142.803z"/>
	<path style="fill:#090908;" d="M916.198,221.818c3.294,7.454,6.367,14.409,9.598,21.721c-5.389,3.793-11.199,6.356-17.466,7.962
		c-14.906,3.821-29.582,3.333-43.956-2.429c-15.503-6.215-25.654-17.452-30.401-33.352c-4.94-16.546-5.003-33.071,1.885-49.198
		c6.467-15.142,17.834-25.018,33.521-29.64c19.123-5.634,37.675-4.258,55.814,5.736c-3.475,7.446-6.863,14.706-10.345,22.168
		c-5.919-3.495-11.845-5.463-18.145-6.312c-13.405-1.807-24.014,3.623-28.838,15.184c-1.941,4.652-3.036,9.461-3.242,14.471
		c-0.31,7.503-0.172,15.012,2.45,22.146c5.47,14.884,15.443,18.922,29.033,18.287C903.199,228.23,909.665,225.769,916.198,221.818z"
		/>
</g>
</svg>
