<?xml version="1.0" encoding="iso-8859-1"?>
<!-- Generator: Adobe Illustrator 27.0.0, SVG Export Plug-In . SVG Version: 6.00 Build 0)  -->
<svg version="1.1" id="Layer_1" xmlns="http://www.w3.org/2000/svg" xmlns:xlink="http://www.w3.org/1999/xlink" x="0px" y="0px"
	 viewBox="0 0 1563 544" style="enable-background:new 0 0 1563 544;" xml:space="preserve">
<g>
	<path style="fill:#406FB7;" d="M448,0c9.615,4.412,19.597,7.971,29.015,12.858c14.581,7.565,27.946,16.746,39.316,28.668
		c13.713,14.378,22.85,31.298,27.623,50.556c2.644,10.669,3.717,21.536,4.267,32.522c1.21,24.143,0.844,48.298,0.396,72.427
		c-0.557,29.982-0.431,59.958-0.198,89.93c0.143,18.313,0.514,36.633,0.263,54.941c-0.411,29.976-0.292,59.955-0.681,89.928
		c-0.263,20.255-6.686,38.818-17.236,55.936c-14.099,22.878-33.663,39.655-58.012,50.914c-4.183,1.934-8.785,2.87-12.754,5.321
		c-123.333,0-246.667,0-370,0c-8.004-3.995-16.13-7.765-23.986-12.031c-15.858-8.611-29.234-20.094-39.778-34.871
		c-8.954-12.548-15.062-26.526-21.27-40.49C3.381,453.046,2.757,449.016,0,446c0-114.333,0-228.667,0-343
		c0.672-0.311,0.794-0.956,1.054-1.571c5.483-12.96,10.779-26.003,17.84-38.234c6.688-11.585,14.745-22.012,24.858-30.848
		C56.539,21.174,71.488,13.739,86.807,6.861C91.875,4.586,97.263,3.008,102,0C217.333,0,332.667,0,448,0z M275.499,108.851
		c-7.815-0.372-15.31,1.086-22.374,4.194c-8.835,3.887-17.09,8.859-25.023,14.382c-15.037,10.468-28.9,22.416-43.2,33.822
		c-19.627,15.656-39.677,30.779-59.525,46.158c-9.864,7.642-19.513,15.549-28.957,23.706c-7.673,6.628-10.494,16.763-6.379,27.682
		c3.453,9.163,12.956,16.169,22.812,15.326c6.913-0.591,12.664-3.668,18.121-7.558c12.741-9.081,24.702-19.162,36.965-28.856
		c28.313-22.38,56.667-44.707,85.054-66.994c5.222-4.1,10.612-7.943,16.958-10.316c5.273-1.971,10.087-1.34,14.785,1.416
		c1.432,0.84,2.831,1.749,4.17,2.73c19.189,14.055,37.943,28.68,56.509,43.541c25.579,20.475,51.07,41.055,77.525,60.406
		c5.168,3.78,10.716,5.825,17.143,5.601c8.661-0.302,15.215-4.002,19.646-11.529c4.854-8.247,4.809-16.4-0.287-24.457
		c-3.788-5.989-8.97-10.715-14.483-15.04c-21.983-17.242-44.035-34.396-66.044-51.605c-20.046-15.674-39.914-31.582-60.16-46.993
		C306.074,114.812,291.651,109.207,275.499,108.851z M274.369,440.818c3.366,0.045,6.66-0.417,9.971-0.628
		c12.477-0.794,24.678-2.976,36.573-6.789c27.614-8.853,51.47-23.647,71.281-44.939c15.663-16.834,26.878-36.177,33.568-58.151
		c2.35-7.718,1.57-15.112-2.726-22.014c-8.696-13.971-25.13-14.977-35.311-4.819c-5.779,5.766-9.539,12.766-12.684,20.108
		c-8.652,20.193-21.071,37.443-39.87,49.2c-25.292,15.818-52.861,20.684-82.185,15.084c-19.753-3.773-36.807-13.081-51.731-26.295
		c-8.82-7.809-14.952-17.77-20.488-28.058c-4.249-7.896-8.335-15.88-12.493-23.825c-4.239-8.1-11.158-12.299-20.064-12.595
		c-15.552-0.518-28.576,15.406-23.769,31.538c3.368,11.303,7.937,22.176,13.936,32.384c11.881,20.221,27.461,36.973,46.501,50.718
		C211.661,431.07,241.924,439.216,274.369,440.818z"/>
	<path style="fill:#E1E4F3;" d="M1563,474c-0.408-0.041-0.816-0.082-1.224-0.123c0.435-13.604,0.255-27.21,0.099-40.815
		c0.375-0.021,0.749-0.041,1.124-0.062C1563,446.667,1563,460.333,1563,474z"/>
	<path style="fill:#4170B7;" d="M1051.87,328.759c-14.835,0-29.102,0-43.696,0c-0.316-6.139-0.826-12.06-0.884-17.985
		c-0.129-13.331-0.406-26.676,0.045-39.993c1.059-31.315,0.737-62.631,0.621-93.947c-0.065-17.629-0.924-35.237-2.782-52.782
		c-0.364-3.439,0.091-6.96-0.671-9.938c-1.164-1.224-2.21-1.002-3.181-1.04c-29.8-1.151-59.613-1.399-89.433-1.35
		c-45.83,0.075-91.659,0.025-137.489,0.041c-6.165,0.002-12.33,0.07-18.495,0.138c-1.992,0.022-3.935,0.196-5.892,0.823
		c-6.732,2.156-8.605,4.845-9.053,11.883c-3.466,54.421-1.314,108.913-2.252,163.363c-0.212,12.312-0.626,24.63-0.93,36.946
		c-0.032,1.315,0.137,2.689-1.239,4.172c-14.074-0.223-28.516,0.146-42.852-1.168c-1.067-1.264-0.634-2.654-0.634-3.932
		c-0.012-67.495,0.002-134.99,0.011-202.486c0.001-7.489,0.391-14.938,1.834-22.315c2.981-15.241,12.519-24.187,27.852-26.29
		c8.418-1.155,16.876-1.534,25.331-1.583c24.331-0.141,48.672-0.457,72.992,0.07c34.32,0.744,68.639,0.646,102.949,0.249
		c20.986-0.243,41.971-0.057,62.952-0.417c9.835-0.169,19.634,0.435,29.424,0.984c6.936,0.389,13.803,1.722,19.866,5.706
		c9.752,6.408,13.579,15.965,14.696,27.005c1.125,11.119,0.972,22.279,0.966,33.435c-0.033,61.495-0.041,122.991-0.058,184.486
		C1051.869,324.649,1051.87,326.465,1051.87,328.759z"/>
	<path style="fill:#4170B7;" d="M1373.059,125.941c0.617,12.448,0.895,24.02,0.899,36.079c54.409,0.403,108.485-0.871,163.205,0.926
		c0,5.758,0,11.343,0,16.929c0,5.491,0,10.982,0,16.472c-1.955,1.33-4.009,0.737-5.925,0.739
		c-61.663,0.081-123.329-0.201-184.988,0.301c-30.819,0.251-61.641,0.57-92.451,0.205c-27.819-0.33-55.636-0.207-83.453-0.484
		c-0.959-0.01-1.99,0.282-3.13-0.571c0-10.888,0-21.948,0-32.742c0.748-0.867,1.463-0.687,2.1-0.708
		c22.473-0.729,44.947-1.26,67.438-1.112c28.331,0.187,56.663,0.104,84.995,0.137c1.483,0.002,2.966,0,4.833,0
		c0.896-12.033-0.81-23.76-0.292-36.192c-60.828,0-121.366,0-182.121,0c0-11.95,0-23.208,0-34.55
		c0.552-0.181,0.995-0.447,1.443-0.456c41.812-0.834,83.633-0.915,125.446-0.503c16.483,0.162,32.971,0.178,49.455,0.458
		c1.313,0.022,2.627,0.003,4.386,0.003c1.865-10.124,1.612-20.287,3.337-30.228c3.312-0.763,38.818-1.025,44.418-0.268
		c0.557,9.662,1.118,19.394,1.67,28.983c1.332,1.154,2.723,0.723,3.999,0.763c42.475,1.32,84.962,0.601,127.445,0.743
		c14.666,0.049,29.332-0.07,43.997-0.11c2.284-0.006,4.567-0.001,7.139-0.001c0,11.527,0,23.106,0,35.186
		C1495.905,125.941,1434.979,125.941,1373.059,125.941z"/>
	<path style="fill:#4170B7;" d="M1561.876,433.062c0.156,13.606,0.335,27.211-0.099,40.815c-6.832,0.062-13.664,0.112-20.496,0.188
		c-7.32,0.082-14.633,0.222-21.95,0.655c-13.321,0.788-26.626-0.521-39.929-0.983c-5.243-0.182-10.623-0.424-15.812-1.759
		c-13.408-3.45-23.176-15.473-24.617-29.466c-1.093-10.614-1.188-21.27-1.198-31.924c-0.019-19.468,0.131-38.936-0.006-58.403
		c-0.052-7.451-0.7-14.898-1.077-22.364c-4.747-2.309-9.728-3.078-14.588-3.612c-15.54-1.708-31.105-2.704-46.794-1.598
		c-9.62,0.678-19.322,0.281-28.987,0.237c-18.997-0.086-37.997-0.387-56.988,0.199c-8.121,0.251-16.239,0.845-24.084,2.125
		c-0.776,0.811-1.016,1.59-1.077,2.436c-0.392,5.472-0.905,10.939-1.147,16.418c-0.579,13.115-0.889,26.247-3.061,39.235
		c-2.408,14.4-8.034,27.209-17.849,38.249c-18.321,20.608-41.365,33.559-67.066,42.427c-10.026,3.46-20.271,6.007-31.284,8.247
		c-3.325-13.33-6.591-26.422-9.869-39.566c2.201-2.244,5.06-2.696,7.656-3.629c11.709-4.211,23.429-8.407,34.549-14.042
		c12.823-6.498,23.911-14.999,31.382-27.634c4.854-8.21,7.039-17.201,7.427-26.555c0.422-10.149-0.018-20.333,0.323-30.488
		c0.278-8.279,0.914-16.543,3.616-24.533c1.998-5.908,5.791-10.008,11.247-12.662c4.978-2.421,10.317-3.629,15.827-3.973
		c2.991-0.187,5.995-0.211,8.994-0.209c66.158,0.027,132.317,0.085,198.475,0.07c4.744-0.001,9.28,0.772,13.575,2.645
		c10.631,4.634,16.058,12.978,16.919,24.417c1.489,19.79,1.471,39.63,0.665,59.415c-0.53,13.021,0.536,25.941,0.745,38.903
		c0.076,4.688,0.169,9.642,1.952,14.573c3.642,0.309,7.411,0.794,11.19,0.911c6.495,0.201,12.998,0.29,19.495,0.216
		C1532.597,431.876,1547.228,432.791,1561.876,433.062z"/>
	<path style="fill:#4170B7;" d="M684.211,432.707c5.416-2.033,10.297-4.041,15.291-5.706c17.463-5.823,34.854-11.864,51.698-19.295
		c19.679-8.682,38.58-18.763,54.464-33.629c20.886-19.548,33.007-43.879,38.304-71.699c3.39-17.806,4.6-35.858,5.358-53.981
		c1.051-25.147,0.211-50.287,0.639-75.426c0.034-1.992,0.004-3.986,0.004-6.339c14.458,0,28.676,0,42.853,0
		c1.169,0.859,0.97,2.087,0.97,3.229c-0.003,18.66,0.482,37.336-0.158,55.974c-0.784,22.815-0.586,45.619-0.685,68.429
		c-0.011,2.546,0.493,4.841,1.562,7.184c7.851,17.208,18.003,32.901,30.437,47.151c29.569,33.889,66.493,56.754,108.256,72.401
		c10.874,4.074,21.928,7.551,33.26,10.114c1,0.226,1.882,0.595,2.795,1.676c-5.705,13.616-11.447,27.318-17.322,41.339
		c-68.789-21.798-128.86-56.307-175.277-112.452c-2.11,0.759-2.816,2.805-3.849,4.333c-15.795,23.37-36.078,42.12-59.335,57.803
		c-24.65,16.622-51.382,29.041-79.282,39.094c-10.608,3.823-21.425,6.985-32.145,10.454c-1.435,0.464-2.819,0.928-4.749,0.62
		C692.71,460.549,688.351,446.883,684.211,432.707z"/>
	<path style="fill:#4170B7;" d="M1557.78,328.835c-13.759,0-27.011,0-40.495,0c-0.814-3.587-0.831-6.923-0.743-10.429
		c0.368-14.599,1.953-29.272-1.539-43.74c-0.35-1.448-0.764-2.885-1.239-4.297c-0.418-1.243-0.963-2.443-1.471-3.71
		c-6.227-2.349-12.626-2.933-19.129-2.927c-87.973,0.084-175.945,0.153-263.917,0.247c-11.33,0.012-22.659,0.172-33.989,0.205
		c-2.334,0.007-4.599,0.284-7.064,0.83c-4.98,20.869-5.403,42.095-5.412,63.646c-13.518,0-26.717,0-39.615,0
		c-1.202-1.316-0.939-2.531-0.945-3.671c-0.08-15.995-0.123-31.991-0.22-47.986c-0.058-9.498,0.795-18.948,2.192-28.302
		c1.788-11.979,9.775-18.778,20.665-22.672c5.233-1.871,10.643-2.378,16.195-2.125c4.822,0.22,9.661,0.073,14.492,0.072
		c107.8-0.029,215.6-0.055,323.4-0.102c8.948-0.004,17.487,1.459,25.291,6.159c8.056,4.851,11.919,12.046,12.769,21.294
		c2.002,21.788,0.759,43.6,0.775,65.403C1557.782,320.69,1557.78,324.651,1557.78,328.835z"/>
</g>
</svg>
