<?xml version="1.0" encoding="iso-8859-1"?>
<!-- Generator: Adobe Illustrator 27.0.0, SVG Export Plug-In . SVG Version: 6.00 Build 0)  -->
<svg version="1.1" id="Layer_1" xmlns="http://www.w3.org/2000/svg" xmlns:xlink="http://www.w3.org/1999/xlink" x="0px" y="0px"
	 viewBox="0 0 1497.107 339.294" style="enable-background:new 0 0 1497.107 339.294;" xml:space="preserve">
<g>
	<path style="fill:#1659A3;" d="M1497.107,59.294c-9.374,10.355-18.747,20.711-28.123,31.064c-4.134,4.565-8.311,9.092-12.396,13.7
		c-3.095,3.491-3.158,4.226-0.988,8.425c12.129,23.465,24.296,46.911,36.394,70.393c1.568,3.044,3.366,6.024,4.301,9.159
		c-1.45,1.755-3.054,1.231-4.461,1.238c-9.662,0.048-19.328-0.143-28.984,0.1c-4.531,0.114-6.982-1.871-8.844-5.757
		c-8.255-17.223-16.676-34.366-25.046-51.533c-0.354-0.726-0.671-1.511-1.89-2.007c-5.255,5.065-10.624,10.26-16.021,15.424
		c-1.229,1.175-1.255,2.634-1.251,4.148c0.027,10.997-0.019,21.994,0.093,32.989c0.058,5.714-0.716,6.649-6.512,6.659
		c-7.996,0.014-15.992,0.026-23.987-0.005c-4.959-0.019-5.396-0.413-5.411-5.489c-0.045-14.997-0.028-29.995-0.015-44.992
		c0.039-42.824,0.088-85.649,0.13-128.473c0.001-0.989-0.241-1.999,0.299-2.932c3.107-1.331,28.214-1.738,35.063-0.455
		c0.667,4.401,0.209,9.015,0.293,13.588c0.083,4.498,0.018,8.998,0.018,13.497c0,4.666,0,9.332,0,13.998s0,9.332,0,13.998
		s0,9.332,0,13.998c0,4.499-0.079,9,0.022,13.497c0.103,4.575-0.449,9.187,0.502,14.591c3.254-3.552,6.071-6.524,8.773-9.596
		c8.463-9.619,17.072-19.112,24.828-29.333c2.219-2.924,4.832-5.509,7.821-7.678c6.396-4.642,13.677-4.843,21.045-3.863
		c8.159,1.085,16.237,0.031,24.347-0.35C1497.107,57.961,1497.107,58.628,1497.107,59.294z"/>
	<path style="fill:#9A9B9B;" d="M959.107,339.294c-0.062-0.155-0.085-0.409-0.191-0.45c-16.94-6.581-21.902-32.561-14.733-47.832
		c3.156-6.722,6.914-12.822,13.979-16.215c16.337-7.846,37.794,0.444,41.083,19.982c0.5,2.973,0.824,5.891,0.789,8.868
		c-0.053,4.55-1.049,5.614-5.569,5.634c-11.821,0.051-23.643,0.03-35.464,0.006c-2.198-0.005-4.421-0.221-5.61,2.597
		c0.29,1.831,0.44,3.972,0.986,6.007c2.027,7.549,7.384,11.864,14.712,13.133c7.046,1.22,12.692-2.232,16.501-7.987
		c1.935-2.924,4.303-4.295,7.444-5.203c2.339-0.676,4.187-0.367,6.143,1.511c-2.533,7.548-6.557,13.935-13.821,17.922
		c-1.115,0.612-2.577,0.7-3.25,2.027C974.44,339.294,966.774,339.294,959.107,339.294z M954.15,300.023c11.597,0,22.635,0,33.949,0
		c0.23-7.209-2.303-12.654-8.156-16.194c-5.926-3.585-12.144-3.172-17.776,0.54C956.843,287.879,953.297,292.718,954.15,300.023z"/>
	<path style="fill:#9A999A;" d="M1049.107,339.294c-0.148-0.782-0.823-0.911-1.41-1.204c-10.353-5.171-15.071-14.332-16.355-25.117
		c-1.352-11.352,1.143-22.013,8.484-31.296c3.93-4.97,9.042-8.091,14.945-9.003c12.19-1.884,22.764-0.031,30.993,12.758
		c3.692,5.737,4.28,12.404,4.253,19.086c-0.006,1.564-0.979,2.758-1.953,4.715c-14.529,0.18-29.258-0.036-43.745,0.114
		c-2.174,5.782,0.172,12.971,4.694,16.97c8.677,7.673,22.125,5.338,27.285-4.143c2.216-4.071,7.334-5.369,11.831-3.49
		c0.41,4.693-2.195,8.296-4.82,11.876c-2.906,3.963-7.234,6.122-11.202,8.734C1064.44,339.294,1056.774,339.294,1049.107,339.294z
		 M1044.251,300.06c9.936,0.791,30.007,0.497,33.749-0.494c0.752-7.289-2.901-12.573-8.691-15.968
		c-5.795-3.398-12.232-2.674-17.73,1.113C1046.495,288.212,1043.066,292.983,1044.251,300.06z"/>
	<path style="fill:#9A999A;" d="M1245.107,339.294c-9.682-4.793-15.927-12.401-17.454-23.125
		c-1.953-13.719-0.942-26.957,9.669-37.497c6.35-6.308,14.348-8.099,22.923-7.021c2.226,0.28,4.572,0.411,6.82,1.143
		c9.859,3.208,16.009,10.062,18.552,19.793c2.886,11.043,1.872,22-2.939,32.466c-2.664,5.796-6.89,10.094-12.668,12.854
		c-0.703,0.335-1.668,0.383-1.902,1.388C1260.44,339.294,1252.774,339.294,1245.107,339.294z M1275.103,305.11
		c0-2.005,0.004-3.169-0.001-4.333c-0.053-12.608-7.784-20.044-20.271-19.55c-5.077,0.201-9.045,2.611-11.497,6.797
		c-6.243,10.658-7.181,21.762-1.877,33.182c2.462,5.301,5.963,8.806,12.197,9.532c9.306,1.083,15.467-2.373,18.349-9.071
		C1274.394,316.11,1275.647,310.349,1275.103,305.11z"/>
	<path style="fill:#9A999A;" d="M1453.107,339.294c-1.844-1.317-3.796-2.507-5.511-3.975c-4.767-4.083-5.964-6.501-8.387-16.181
		c2.662-3.187,6.264-1.473,9.262-1.768c1.693,1.24,2.068,2.929,2.87,4.356c5.263,9.359,17.072,12.478,26.23,6.829
		c3.68-2.27,5.123-4.94,4.557-9.121c-0.504-3.727-3.29-5.177-6.427-6.082c-8.079-2.329-16.349-4-24.211-7.075
		c-5.728-2.24-9.437-6.315-10.184-12.423c-0.769-6.29,1.208-12.024,6.173-16.029c10.015-8.076,25.393-8.326,35.793-1.374
		c5.26,3.516,8.039,8.614,7.803,15.044c-1.939,1.293-3.811,0.725-5.588,0.843c-2.62,0.174-4.251-1.044-5.576-3.327
		c-4.39-7.565-15.307-10.18-23.012-5.731c-6.143,3.547-4.245,10.179-0.349,12.704c2.525,1.636,5.341,2.749,8.283,3.228
		c5.403,0.88,10.587,2.565,15.784,4.14c6.988,2.118,11.675,6.532,13.077,14.093c0.617,3.324-0.259,6.277-1.415,9.135
		c-2.206,5.452-6.152,9.384-11.62,11.672c-0.616,0.258-1.266,0.342-1.552,1.042C1470.44,339.294,1461.774,339.294,1453.107,339.294z
		"/>
	<path style="fill:#9A999A;" d="M1116.107,339.294c-3.648-2.147-7.639-3.622-10.626-6.957c-5.082-5.674-7.593-12.229-8.453-19.699
		c-0.725-6.302-0.556-12.533,1.171-18.569c4.689-16.393,16.832-23.85,32.914-22.575c12.491,0.99,21.091,10.935,20.761,23.212
		c-2.985,1.137-6.109,0.388-8.967,0.571c-1.947-1.264-2.221-3.131-2.837-4.825c-1.953-5.374-5.991-8.402-11.48-8.989
		c-5.709-0.611-10.909,0.998-14.504,5.865c-3.334,4.514-5.088,9.635-5.033,15.29c0.059,6.105-0.661,12.241,1.987,18.137
		c2.962,6.594,8.06,9.86,15.823,9.533c5.895-0.248,11.547-4.828,13.249-10.992c0.425-1.538,0.961-2.787,2.529-3.832
		c2.724,0,5.692,0,9.262,0c0.506,4.999-1.275,9.259-3.837,13.321c-3.322,5.266-8.63,7.905-13.959,10.51
		C1128.107,339.294,1122.107,339.294,1116.107,339.294z"/>
	<path style="fill:#9A999A;" d="M1399.107,339.294c-3.273-2.149-7.226-2.986-10.245-5.712c-5.454-4.923-8.233-11.112-9.151-18.219
		c-1.221-9.461-1.312-18.786,3.199-27.649c6.329-12.432,18.322-18.111,32.161-15.658c10.468,1.856,16.315,8.018,18.781,17.943
		c0.391,1.573,0.69,3.239-0.375,5.29c-1.778,0-3.737-0.056-5.691,0.015c-2.09,0.076-3.456-1.042-4.511-2.622
		c-0.545-0.816-0.881-1.776-1.281-2.685c-2.367-5.382-6.632-8.301-12.346-8.626c-5.994-0.34-11.04,1.832-14.244,7.242
		c-2.743,4.633-4.458,9.573-4.371,15.051c0.076,4.797-0.261,9.599,1.111,14.318c3.308,11.382,15.377,16.022,24.694,9.495
		c2.878-2.016,4.141-5.05,5.666-7.969c2.188-4.189,6.695-5.7,11.603-3.62c-0.091,8.008-3.463,14.354-9.836,19.374
		c-2.215,1.745-5.265,1.838-7.164,4.032C1411.107,339.294,1405.107,339.294,1399.107,339.294z"/>
	<path style="fill:#9C9B9C;" d="M1170.107,339.294c-5.96-2.779-8.002-7.667-7.98-13.982c0.076-21.635-0.01-43.271-0.013-64.906
		c0-1.62-0.382-3.383,1.466-4.834c2.645-0.647,5.621-0.181,8.728-0.227c3.975,5.446-0.154,11.92,1.713,17.295
		c3.158,1.541,6.138-0.077,8.989,1.216c1.602,2.682,1.659,5.388-0.151,8.11c-2.636,1.019-5.451-0.36-8.054,0.923
		c-1.115,2.623-2.226,5.077-1.082,8.078c0.503,1.321,0.244,2.952,0.246,4.442c0.015,10.645,0.008,21.29,0.008,31.595
		c2.497,3.488,6.189,1.528,9.189,2.806c1.573,3.337,1.426,6.514-1.059,9.484C1178.107,339.294,1174.107,339.294,1170.107,339.294z"
		/>
	<path style="fill:#1458A3;" d="M241.451,191.702c-0.638-1.763-0.33-3.612-0.33-5.422c-0.019-56.152-0.015-112.305-0.015-168.457
		c0-0.666-0.008-1.333,0.001-1.999c0.067-5.007,0.498-5.489,5.382-5.521c6.331-0.041,12.663-0.02,18.995-0.008
		c22.993,0.042,45.986-0.015,68.978,0.191c8.695,0.078,17.153,1.718,25.119,5.51c14.145,6.734,22.265,18.095,25.317,33.169
		c1.421,7.017,1.82,14.134,0.367,21.311c-1.857,9.175-6.583,16.207-14.552,21.071c-1.698,1.037-3.447,1.99-5.351,3.085
		c0.777,1.138,2.021,1.42,3.07,2.002c13.715,7.618,20.866,19.49,22.772,34.866c1.056,8.525,0.759,16.944-1.773,25.148
		c-5.022,16.27-16.671,25.974-32.162,31.624c-8.819,3.216-18.049,4.725-27.368,4.81c-27.823,0.253-55.649,0.171-83.474,0.202
		C244.793,193.287,243.034,193.64,241.451,191.702z M278.368,113.791c0,15.776,0,31.327,0,46.731
		c2.195,2.268,4.855,1.836,7.223,1.527c3.324-0.435,6.627-0.395,9.942-0.403c10.814-0.027,21.634-0.242,32.441,0.05
		c12.679,0.342,28.31-10.412,26.438-28.947c-0.603-5.966-3.186-10.754-8.214-14.129c-4.942-3.317-10.447-5.298-16.336-5.366
		c-16.461-0.19-32.926-0.06-49.389-0.034C279.999,113.22,279.525,113.468,278.368,113.791z M278.366,80.998
		c0.876,0.91,1.631,1.167,2.504,1.155c17.293-0.249,34.615,0.999,51.876-0.905c5.341-0.589,9.885-2.833,13.157-7.225
		c2.588-3.474,3.309-7.463,3.387-11.746c0.224-12.323-6.347-17.156-16.295-18.959c-4.432-0.803-8.905-1.051-13.406-1.035
		c-12.319,0.043-24.638,0.042-36.957,0.051c-1.493,0.001-3.027-0.188-4.267,1.329C278.366,56.094,278.366,68.686,278.366,80.998z"/>
	<path style="fill:#1659A3;" d="M1053.575,75.595c3.001-3.824,5.732-7.166,8.913-10.123c9.944-9.243,21.656-12.458,34.969-10.546
		c4.137,0.594,8.136,1.546,11.996,3.17c16.939,7.126,25.526,20.151,26.581,38.203c0.474,8.105,0.55,16.233,0.35,24.388
		c-0.436,17.818-0.146,35.655-0.124,53.484c0.004,3.153,0.014,6.292,0.394,9.457c0.349,2.904,0.628,5.992-0.994,8.694
		c-3.276,1.123-30.113,1.192-33.674,0.099c-1.438-1.696-0.855-3.785-0.858-5.718c-0.038-24.994-0.036-49.988-0.018-74.982
		c0.005-6.286-1.359-12.197-4.584-17.626c-7.044-11.861-22.806-13.107-31.693-2.558c-3.997,4.745-6.046,10.265-6.745,16.334
		c-0.247,2.145-0.31,4.322-0.306,6.484c0.046,23.991,0.124,47.982,0.182,71.974c0.003,1.163,0.003,2.342-0.17,3.487
		c-0.306,2.028-1.423,3.448-3.6,3.457c-10.305,0.045-20.61,0.02-30.478,0.02c-2.666-2.305-2.28-4.901-2.26-7.353
		c0.15-18.143,0.399-36.286,0.479-54.43c0.039-8.814,0.353-17.637-0.509-26.443c-0.293-2.992-0.601-5.974-1.508-8.831
		c-1.677-5.284-5.046-8.933-10.62-10.163c-4.028-0.889-7.97-1.723-12.258-1.268c-12.172,1.293-16.891,10.522-17.93,18.915
		c-0.204,1.649-0.306,3.32-0.327,4.982c-0.194,15.645-0.744,31.299-0.397,46.933c0.225,10.15,0.222,20.297,0.377,30.444
		c0.033,2.155,0.222,4.354-1.222,6.213c-2.884,1.044-29.117,1.339-33.603,0.383c-0.124-0.111-0.265-0.209-0.367-0.338
		c-0.1-0.126-0.21-0.277-0.231-0.43c-0.138-0.98-0.361-1.964-0.361-2.946c0.009-42.989,0.038-85.977,0.084-128.966
		c0-0.472,0.263-0.944,0.376-1.326c1.127-1.064,2.407-1.247,3.778-1.18c9.566,0.474,19.175-0.261,28.947,0.404
		c1.25,5.946,0.122,11.464,0.86,17.296c2.827-3.043,5.312-5.863,7.949-8.532c14.717-14.898,37.981-15.06,51.79-7.628
		c4.777,2.571,8.814,5.938,12.144,10.173C1050.441,71.15,1051.838,73.204,1053.575,75.595z"/>
	<path style="fill:#1358A3;" d="M0,194.929C0,129.618,0,65.143,0,0c56.415,32.528,112.316,64.76,168.961,97.42
		C112.346,130.093,56.5,162.322,0,194.929z"/>
	<path style="fill:#1759A4;" d="M806.253,192.207c0-60.216,0-120.468,0-180.627c3.441-1.581,19.572-2.052,33.842-1.071
		c2.141,1.49,1.661,3.786,1.664,5.893c0.021,16.997-0.004,33.993,0.039,50.99c0.004,1.58-0.491,3.259,0.431,4.739
		c0.858,0.081,1.255-0.481,1.695-0.965c9.336-10.257,21.401-14.182,34.802-14.855c9.422-0.473,18.606,0.717,27.196,4.886
		c13.751,6.675,21.594,17.702,22.225,32.942c1.295,31.292,0.451,62.615,0.629,93.925c0.01,1.677,0.032,3.339-1.208,4.674
		c-5.74,1.05-31.191,0.637-34.094-0.561c-0.885-1.716-0.49-3.585-0.493-5.388c-0.028-20.996-0.084-41.992,0.02-62.987
		c0.034-6.834-0.359-13.637-0.921-20.428c-0.51-6.163-2.523-11.725-7.921-15.438c-3.571-2.456-7.728-3.036-11.885-3.153
		c-8.742-0.246-16.829,1.491-23.059,8.364c-4.178,4.609-6.418,10.048-7.124,16.134c-0.305,2.636-0.305,5.317-0.308,7.978
		c-0.022,22.829-0.012,45.658-0.014,68.486c0,1.333,0.063,2.672-0.042,3.997c-0.166,2.106-1.322,3.508-3.477,3.515
		c-9.993,0.035-19.986-0.017-29.979-0.099C807.68,193.155,807.092,192.618,806.253,192.207z"/>
	<path style="fill:#1659A3;" d="M1184.296,101.728c-8.549,1.138-29.66,0.653-32.792-0.756c-0.897-2.291-0.005-4.504,0.381-6.781
		c3.218-19.019,14.244-30.933,32.69-36.195c17.749-5.063,35.397-5.305,52.941,0.939c18.044,6.423,28.398,21.409,29.565,39.979
		c1.883,29.955,0.484,59.951,0.875,89.925c0.013,0.976-0.186,1.963-0.364,2.93c-0.054,0.291-0.374,0.533-0.573,0.801
		c-1.297,1.087-2.858,0.705-4.319,0.712c-7.663,0.034-15.326,0.03-22.989,0.011c-5.312-0.013-6.188-0.695-7.472-5.964
		c-0.317-1.299-0.526-2.6-1.544-3.917c-6.631,5.717-14.145,9.682-22.807,11.286c-13.829,2.561-27.412,2.565-40.589-3.288
		c-12.759-5.668-19.696-15.49-20.927-29.236c-0.75-8.379,0.597-16.58,3.7-24.439c4.327-10.958,12.99-16.927,23.735-20.389
		c7.93-2.554,16.193-3.58,24.368-4.98c6.549-1.122,13.137-2.024,19.675-3.206c2.944-0.532,5.763-1.636,8.203-3.462
		c4.409-3.298,5.595-8.534,2.789-13.281c-3.252-5.501-8.432-8.369-14.502-9.68c-12.676-2.737-25.919,3.612-28.37,16.182
		C1185.773,99.922,1185.339,100.807,1184.296,101.728z M1228.692,128.455c-6.386,3.057-13.229,4.85-20.244,6.2
		c-4.872,0.937-9.708,2.205-14.435,3.715c-5.952,1.901-9.832,6.078-11.46,12.141c-1.004,3.739-1.256,7.593-0.121,11.341
		c1.675,5.531,6.969,9.083,13.95,9.4c8.986,0.409,16.909-2.591,24.24-7.627c2.999-2.06,5.237-4.665,6.653-7.891
		c3.817-8.694,3.446-17.747,1.922-26.854C1229.176,128.757,1228.953,128.668,1228.692,128.455z"/>
	<path style="fill:#1659A3;" d="M526.075,135.269c-29.889,0-60.159,0-90.308,0c-3.019,10.022,5.819,25.5,17.121,30.511
		c6.83,3.028,13.826,3.129,20.943,1.096c7.074-2.02,12.667-5.787,15.303-13.155c11.981,0,23.731,0,35.397,0
		c1.172,1.403,0.438,2.614-0.006,3.84c-7.492,20.656-22.117,33.237-43.537,37.538c-14.079,2.827-28.12,1.804-41.885-2.49
		c-17.47-5.45-29.021-16.926-34.857-34.19c-3.969-11.743-6.247-23.836-5.726-36.236c0.656-15.613,3.508-30.753,12.935-43.79
		c9.668-13.371,22.887-20.932,39.201-23.174c11.328-1.557,22.636-1.373,33.683,1.554c16.666,4.416,28.247,14.95,35.135,30.709
		c4.717,10.792,6.792,22.176,7.641,33.841c0.217,2.981-0.054,5.98,0.569,8.954C528.025,131.907,527.833,133.606,526.075,135.269z
		 M490.921,110.566c-0.701-3.325-1.51-6.882-2.983-10.201c-8.476-19.1-31.095-23.752-44.28-7.267
		c-4.339,5.426-6.441,11.727-7.838,19.267c17.821,0.056,35.024,0.115,52.228,0.152C489.053,112.518,490.056,112.332,490.921,110.566
		z"/>
	<path style="fill:#1659A3;" d="M660.709,192.151c-2.98,1.274-30.004,1.5-33.994,0.275c-1.636-1.964-1.26-4.359-1.261-6.657
		c-0.014-24.152,0.02-48.303-0.034-72.455c-0.01-4.48-0.33-8.93-1.034-13.403c-1.252-7.96-5.908-12.367-13.356-14.261
		c-6.062-1.541-12.143-1.568-18.202,0.187c-10.15,2.94-16.433,10.379-17.737,21.126c-0.561,4.62-0.897,9.244-0.877,13.917
		c0.083,19.654,0.097,39.309-0.026,58.963c-0.021,3.302,1.344,6.573,0.164,9.889c-0.271,0.763-0.384,1.583-0.479,1.991
		c-0.957,1.165-1.842,1.486-2.897,1.564c-5.741,0.424-28.899-0.123-31.646-0.867c0-44.452,0-89.005,0-133.673
		c0.513-0.861,1.477-1.153,2.47-1.242c6.139-0.547,28.452,0.137,30.89,0.958c1.102,2.643,0.409,5.5,0.532,8.28
		c0.118,2.642,0.025,5.294,0.025,8.356c3.111-2.053,4.697-5.086,7.133-7.279c10.967-9.872,23.941-13.878,38.478-13.654
		c5.706,0.088,11.239,0.961,16.57,3.002c13.806,5.288,21.284,15.824,24.675,29.762c0.912,3.748,1.15,7.547,1.149,11.384
		c-0.008,29.648,0.001,59.296-0.017,88.945C661.235,188.902,661.546,190.601,660.709,192.151z"/>
	<path style="fill:#1659A3;" d="M795.447,144.842c0.9,2.858-0.108,5.447-0.834,7.867c-6.813,22.697-21.436,37.616-44.71,42.991
		c-12.607,2.912-25.39,2.65-37.946-1.266c-17.335-5.407-28.576-17.037-34.646-33.852c-4.096-11.348-6.155-23.151-5.801-35.208
		c0.479-16.326,3.875-32.008,12.694-46.032c9.002-14.316,22.416-21.796,38.949-24.062c12.345-1.692,24.542-1.284,36.427,2.841
		c19.869,6.897,32.217,20.453,36.246,41.258c0.401,2.07,0.829,4.243,0.081,6.138c-1.142,1.171-2.366,0.874-3.498,0.913
		c-7.478,0.258-14.953-0.182-22.449,0.374c-5.335,0.396-9.681-2.043-12.058-7.196c-0.278-0.602-0.611-1.182-0.853-1.797
		c-6.743-17.148-29.103-17.944-39.883-3.658c-4.394,5.824-6.974,12.473-7.999,19.658c-1.592,11.156-0.672,22.205,2.026,33.107
		c0.922,3.724,2.425,7.264,4.628,10.428c5.873,8.434,14.272,11.282,24.014,9.79c9.159-1.402,15.57-7.029,18.177-15.819
		c2.57-8.661,4.247-7.116,10.621-7.052c7.496,0.075,14.993,0.005,22.489-0.016C792.444,144.245,793.782,143.998,795.447,144.842z"/>
	<path style="fill:#1759A3;" d="M1360.986,55.717c0,11.628,0,23.23,0,34.685c-1.47,1.151-2.721,0.544-4.017,0.343
		c-8.286-1.28-16.324-0.193-23.762,3.587c-9.654,4.905-14.229,13.137-14.227,23.911c0.004,22.319-0.481,44.637-0.011,66.956
		c0.028,1.332,0.019,2.667-0.031,3.998c-0.052,1.385-0.528,2.593-1.657,3.441c-5.761,0.989-30.342,0.719-34.004-0.464
		c0-44.316,0-88.735,0-133.558c5.298-2.027,10.723-0.606,16.092-0.488c5.435,0.119,10.891-1.369,16.724,0.181
		c1.864,4.815-0.3,10.104,1.088,14.891c1.682,0.766,2.264-0.51,2.997-1.305c2.367-2.564,4.505-5.364,7.046-7.736
		c5.936-5.537,13.161-8.229,21.19-8.895c2.979-0.247,5.962-0.46,8.94-0.727C1358.557,54.429,1359.69,54.48,1360.986,55.717z"/>
	<path style="fill:#9B9A9B;" d="M1346.477,337.491c-3.206,1.151-6.591,1.396-9.823-0.522c-0.868-1.657-0.534-3.183-0.538-4.65
		c-0.031-11.325-0.017-22.65-0.018-33.975c0-1.166,0.094-2.343-0.033-3.495c-1.074-9.715-5.795-13.553-14.787-12.476
		c-6.218,0.745-11.264,3.703-14.149,9.662c-0.99,2.044-1.08,4.147-1.08,6.309c-0.003,11.158,0.007,22.315-0.007,33.473
		c-0.008,5.832-3.786,8.368-9.234,6.178c-1.477-0.594-2.453-1.723-2.599-3.373c-0.087-0.992-0.04-1.997-0.04-2.996
		c-0.002-17.153,0-34.306-0.003-51.46c0-2.475-0.574-5.495,2.446-6.413c2.774-0.843,5.965-1.331,8.158,1.705
		c0.769,1.737-0.048,3.638,0.563,5.62c2.179-1.663,4.194-3.34,6.345-4.818c7.445-5.116,15.604-5.228,23.816-2.665
		c7.631,2.381,11.096,8.732,11.354,16.004c0.549,15.467,0.205,30.966,0.208,46.452
		C1347.057,336.354,1346.822,336.657,1346.477,337.491z"/>
	<path style="fill:#9B9B9C;" d="M1012.348,337.847c-2.738-2.556-2.535-5.772-1.991-8.58c1.025-5.299,0.574-10.581,0.644-15.865
		c0.092-6.951-0.652-13.946-0.472-20.823c0.177-6.763,0.367-13.559,0.457-20.337c0.061-4.616,0.289-9.229-0.62-13.867
		c-0.549-2.802-0.761-6.018,1.699-8.357c0.364-0.203,0.645-0.488,0.943-0.508c7.587-0.486,9.246-0.757,9.173,8.351
		c-0.198,24.774-0.06,49.551-0.075,74.327c-0.003,4.956-0.847,5.95-5.081,6.027C1015.551,338.24,1014.038,338.495,1012.348,337.847z
		"/>
	<path style="fill:#9C9B9C;" d="M1204.099,274.707c0,1.335,0,2.481,0,3.627c0,1.155,0,2.309,0,4.367
		c5.592-6.787,11.412-11.761,20.066-10.95c2.093,6.693,2.093,6.693,0.12,11.836c-1.292,1.107-2.86,0.596-4.302,0.559
		c-6.679-0.17-11.027,3.409-13.687,9.012c-1.462,3.079-2.314,6.473-2.239,10.095c0.2,9.658,0.121,19.323,0.112,28.985
		c-0.001,1.635,0.35,3.343-0.685,5.001c-2.274,1.779-5.009,1.059-7.555,0.756c-1.499-0.178-2.56-1.556-2.709-3.214
		c-0.119-1.323-0.054-2.663-0.055-3.995c-0.002-16.659,0.003-33.317-0.003-49.976
		C1193.159,273.206,1196.231,271.321,1204.099,274.707z"/>
	<path style="fill:#9E9E9F;" d="M1358.665,337.115c-0.895-1.306-0.49-2.853-0.492-4.314c-0.029-17.656-0.026-35.313-0.015-52.97
		c0.004-5.892,3.557-8.361,9.158-6.317c1.678,0.612,2.726,1.894,2.732,3.791c0.007,1.998-0.056,3.997-0.055,5.996
		c0.007,16.324,0.016,32.649,0.037,48.973c0.006,5.088-0.875,6.003-6.146,5.948C1362.12,338.204,1360.17,338.808,1358.665,337.115z"
		/>
</g>
</svg>
