<?xml version="1.0" encoding="iso-8859-1"?>
<!-- Generator: Adobe Illustrator 27.0.0, SVG Export Plug-In . SVG Version: 6.00 Build 0)  -->
<svg version="1.1" id="Layer_1" xmlns="http://www.w3.org/2000/svg" xmlns:xlink="http://www.w3.org/1999/xlink" x="0px" y="0px"
	 viewBox="0 0 1553.429 295" style="enable-background:new 0 0 1553.429 295;" xml:space="preserve">
<g>
	<path style="fill:#201F22;" d="M1330.429,295c-3.147-1.904-6.926-1.552-10.253-2.874c-1.672-0.665-3.499-0.941-5.549-1.469
		c-1.651-5.871-1.673-12.049-2.803-18.058c1.457-1.086,2.839-0.346,4.27,0c5.153,1.247,10.202,2.879,15.514,3.525
		c13.467,1.638,23.631-3.703,31.178-14.539c7.054-10.129,12.063-21.373,17.135-32.553c2.043-4.503,0.976-9.134-0.593-13.61
		c-9.097-25.952-18.181-51.908-27.308-77.85c-7.091-20.157-14.277-40.281-21.328-60.452c-1.418-4.057-2.421-8.26-3.731-12.797
		c8.75,0,17.131,0,25.851,0c3.1,9.575,6.276,19.305,9.401,29.052c10.673,33.287,21.34,66.575,31.952,99.881
		c0.524,1.645,0.811,3.231,3.506,3.836c18.648-44.202,37.349-88.528,56.052-132.857c8.464,0,16.593,0,24.728,0
		c0.25,2.118-0.908,3.646-1.638,5.275c-27.744,61.854-55.513,123.697-83.272,185.545c-2.795,6.226-5.998,12.212-9.975,17.778
		c-8.796,12.308-20.656,19.42-35.701,21.164c-0.699,0.081-1.286,0.196-1.435,1.003c-0.333,0-0.667,0-1,0
		c-0.213-0.703-0.706-1.017-1.42-1.018c-3.719-0.006-7.438-0.012-11.156-0.012c-0.713,0-1.202,0.337-1.424,1.03
		C1331.095,295,1330.762,295,1330.429,295z"/>
	<path style="fill:#75281C;" d="M76.338,152.587c-10.256-2.003-20.513-4.006-31.387-6.129C30.146,120.632,15.162,94.493,0,68.043
		c6.292-3.724,12.239-7.293,18.232-10.782c28.405-16.536,56.827-33.043,85.233-49.579c5.474-3.186,11.043-6.087,17.445-6.934
		c0.202-0.027,0.347-0.489,0.519-0.748c5,0,10,0,15,0c2.117,1.769,4.858,1.328,7.276,2.033c5.034,1.467,10.442,1.34,15.294,3.73
		c1.228,0.605,2.9,0.31,4.367,0.428c-0.975,1.423-2.444,0.759-3.675,0.758c-6.386-0.008-12.356,1.484-18.052,4.38
		c-6.187,3.146-12.149,6.676-18.166,10.121c-7.585,4.344-15.236,8.606-22.718,13.093c-8.197,4.916-16.522,9.615-24.728,14.512
		C62.86,56.912,49.48,64.414,36.206,72.094c-1.287,0.745-2.522,1.637-2.836,3.603c1.776,3.265,3.601,6.763,5.555,10.188
		c6.209,10.884,12.454,21.748,18.709,32.606c4.692,8.145,9.529,16.209,14.08,24.432C73.434,146.033,75.798,148.892,76.338,152.587z"
		/>
	<path style="fill:#2B2929;" d="M1553.429,65c-0.968,0.365-0.826,1.291-1.083,2.046c-3.524,10.35-12.536,16.395-23.723,15.945
		c-9.569-0.385-18.262-7.896-20.716-17.899c-2.961-12.069,4.996-24.496,17.645-27.558c11.713-2.835,24.246,5.033,26.939,16.941
		c0.149,0.658,0.161,1.298,0.938,1.524C1553.429,59,1553.429,62,1553.429,65z M1549.732,60.029
		c0.398-10.152-8.234-19.488-19.55-19.415c-9.911,0.064-19.526,7.974-19.332,19.829c0.183,11.227,9.044,19.142,19.482,19.195
		C1541.913,79.697,1550.179,70.084,1549.732,60.029z"/>
	<path style="fill:#605C5E;" d="M1331.429,295c0.222-0.693,0.711-1.03,1.424-1.03c3.719,0,7.438,0.007,11.156,0.012
		c0.714,0.001,1.208,0.315,1.42,1.018C1340.762,295,1336.095,295,1331.429,295z"/>
	<path style="fill:#A23D2D;" d="M262.509,94.957c24.129,1.638,44.291,17.484,50.839,41.341c6.729,24.516-4.594,50.319-24.325,62.911
		c-14.246,9.092-29.111,17.139-43.677,25.69c-29.855,17.526-59.804,34.891-89.753,52.256c-1.918,1.112-3.569,3.086-6.189,2.634
		c-0.285-3.155-2.7-5.237-4.081-7.822c-4.35-8.143-9.026-16.113-13.609-24.131c-4.745-8.301-9.525-16.582-14.296-24.869
		c-4.771-8.287-9.707-16.484-14.265-24.886c-2.866-5.283-6.514-10.202-8.496-16.265c14.044-8.178,27.855-16.217,41.664-24.262
		c7.264-4.232,14.522-8.473,21.784-12.708c12.671-7.389,25.346-14.771,38.013-22.167c7.402-4.322,14.773-8.698,22.191-12.993
		c5.567-3.223,10.999-6.769,16.828-9.432C243.757,96.318,252.97,94.581,262.509,94.957z"/>
	<path style="fill:#A33E2E;" d="M431.726,217.429c2.849-69.682,5.693-139.215,8.522-208.407c0.956-1.333,2.034-1.014,2.989-1.014
		c27.494-0.014,54.988-0.003,82.482-0.016c8.207-0.004,16.249,1.295,24.161,3.288c13.813,3.479,22.913,12.151,27.641,25.572
		c5.908,16.771,5.59,32.957-4.34,48.258c-5.382,8.294-12.832,14.318-21.43,19.036c-2.439,1.338-4.786,2.845-7.411,4.417
		c3.039,2.621,6.312,4.177,9.662,5.611c4.445,1.903,8.69,4.186,12.59,7.047c8.537,6.26,13.989,14.456,15.965,24.987
		c2.58,13.753,1.822,27.098-3.897,40.032c-5.967,13.494-16.416,22.012-30.073,26.622c-12.198,4.118-24.867,6.002-37.757,6.07
		c-23.495,0.123-46.99,0.169-70.484,0.246C437.505,219.187,434.663,219.208,431.726,217.429z M461.962,119.129
		c-1.238,26.929-2.451,53.315-3.66,79.627c2.087,1.376,4.054,1.479,6.05,1.618c11.149,0.779,22.323,0.742,33.46,0.279
		c10.443-0.434,20.904-0.866,31.214-3.292c10.603-2.495,18.224-8.426,23.469-17.745c5.389-9.577,6.503-19.978,4.585-30.484
		c-2.474-13.561-10.329-22.728-24.121-26.243c-6.654-1.696-13.428-2.359-20.235-2.726c-5.985-0.323-12.007-0.081-17.976-0.552
		C484.102,118.772,473.466,119.442,461.962,119.129z M462.379,98.43c2.841,3.078,5.959,1.893,8.851,1.889
		c14.813-0.02,29.627,1.257,44.44-0.236c7.527-0.759,14.831-2.102,21.121-6.637c14.406-10.388,19.689-24.831,17.419-41.938
		c-1.431-10.788-7.628-18.548-18.115-22.531c-6.366-2.418-13.038-2.596-19.656-2.737c-12.994-0.277-25.996-0.132-38.993-0.268
		c-4.007-0.042-7.873,0.535-11.949,1.564C464.447,51.405,463.403,75.15,462.379,98.43z"/>
	<path style="fill:#A33E2E;" d="M913.542,110.948c0.38,23.39-5.209,44.598-17.287,64.061
		c-10.982,17.696-26.161,30.305-45.481,38.033c-12.595,5.038-25.697,7.674-39.145,9.091c-23.156,2.439-45.375-0.972-66.774-10.019
		c-26.887-11.367-44.323-31.064-51.621-59.367c-8.038-31.172-6.155-61.579,8.025-90.834c11.224-23.155,29.387-38.651,53.193-47.762
		c15.153-5.8,30.819-9.42,47.099-9.826c27.151-0.678,52.475,5.367,74.803,21.399c17.358,12.463,27.713,29.739,32.93,50.221
		C912.249,87.591,913.69,99.46,913.542,110.948z M886.617,109.302c0.238-8.385-1.69-19.368-4.59-30.14
		c-3.322-12.341-8.469-23.944-18.029-32.791c-15.573-14.413-34.192-22.067-55.369-23.246c-11.934-0.665-23.546,1.38-34.794,5.312
		c-10.73,3.75-20.937,8.578-29.552,16.18c-20.083,17.721-27.333,41.156-28.754,66.8c-0.692,12.491,1.367,24.919,5.031,36.913
		c6.376,20.87,18.634,36.931,38.953,46.1c10.091,4.553,20.679,6.927,31.693,8.048c17.273,1.758,33.909-0.132,49.572-7.813
		c13.417-6.58,24.543-15.897,32.032-29.082C882.215,149.026,886.59,131.159,886.617,109.302z"/>
	<path style="fill:#A23D2D;" d="M76.338,152.587c-0.54-3.695-2.903-6.554-4.624-9.664c-4.551-8.223-9.387-16.287-14.08-24.432
		c-6.255-10.858-12.499-21.722-18.709-32.606c-1.954-3.425-3.779-6.923-5.555-10.188c0.314-1.966,1.549-2.858,2.836-3.603
		c13.274-7.68,26.653-15.182,39.821-23.039c8.207-4.897,16.531-9.596,24.728-14.512c7.482-4.487,15.133-8.749,22.718-13.093
		c6.016-3.446,11.979-6.976,18.166-10.121c5.695-2.896,11.666-4.388,18.052-4.38c1.23,0.002,2.7,0.665,3.675-0.758
		c21.758,1.539,36.774,16.918,41.45,33.699c5.056,18.145-2.419,38.838-17.752,49.086c-10.886,7.276-22.487,13.378-33.775,19.99
		c-23.714,13.89-47.476,27.699-71.267,41.457C80.301,151.417,78.842,153.503,76.338,152.587z"/>
	<path style="fill:#1F1F21;" d="M1195.102,133.246c-6.45,23.072,1.996,49.627,20.734,62.671c8.075,5.621,17.182,8.387,26.988,9.224
		c14.85,1.268,29.1-1.796,43.297-5.481c3.53-0.916,7.075-1.773,11.407-2.856c-0.742,6.545-2.142,12.567-3.317,18.76
		c-11.738,3.45-23.538,5.797-35.701,6.57c-12.038,0.765-23.953,0.204-35.778-2.02c-22.95-4.316-39.095-17.248-48.465-38.646
		c-6.078-13.878-7.409-28.487-6.973-43.429c0.434-14.896,4.018-28.964,11.331-41.887c11.048-19.522,27.699-31.436,49.966-35.133
		c14.311-2.376,28.601-1.996,42.477,2.25c20.226,6.188,32.792,20.056,38.24,40.39c2.448,9.137,2.728,21.628,0.837,29.587
		C1271.827,133.246,1233.4,133.246,1195.102,133.246z M1285.32,120.544c1.87-5.781,1.386-11.268,0.073-16.599
		c-3.393-13.775-11.509-23.262-25.589-26.999c-10.735-2.849-21.382-2.513-31.846,1.18c-14.635,5.166-24.953,14.819-29.906,29.716
		c-1.338,4.026-2.498,8.215-0.96,12.702C1226.53,120.544,1255.759,120.544,1285.32,120.544z"/>
	<path style="fill:#75281C;" d="M262.509,94.957c-9.539-0.376-18.752,1.361-27.372,5.298c-5.83,2.662-11.261,6.208-16.828,9.432
		c-7.418,4.295-14.789,8.67-22.191,12.993c-12.667,7.397-25.342,14.778-38.013,22.167c-7.262,4.235-14.52,8.476-21.784,12.708
		c-13.809,8.044-27.62,16.084-41.664,24.262c1.982,6.063,5.63,10.982,8.496,16.265c4.558,8.402,9.494,16.599,14.265,24.886
		c4.77,8.287,9.551,16.568,14.296,24.869c4.583,8.018,9.259,15.988,13.609,24.131c1.381,2.585,3.796,4.666,4.081,7.822
		c-10.411-2.032-20.823-4.064-31.694-6.185c-18.589-32.457-37.288-65.105-56.132-98.006c6.001-3.526,11.564-6.818,17.149-10.072
		c38.871-22.649,77.787-45.221,116.592-67.981c9.538-5.594,19.681-8.845,30.644-9.118c4.584-0.114,9.248,0.502,13.8,1.574
		C247.316,91.78,255.061,92.687,262.509,94.957z"/>
	<path style="fill:#A33F2E;" d="M644.448,218.466c-9.451,0-18.386,0-27.31,0c-1.115-4.719,5.412-184.242,7.607-209.163
		c8.684,0,17.401,0,26.596,0C649.043,79.026,646.748,148.651,644.448,218.466z"/>
	<path style="fill:#1F1F21;" d="M1032.63,9.007c8.444,0,16.213,0,24.335,0c-2.532,69.786-5.053,139.284-7.583,209.005
		c-8.286,0-16.176,0-24.47,0C1027.488,148.247,1030.054,78.752,1032.63,9.007z"/>
	<path style="fill:#201F22;" d="M1056.506,132.723c1.987-3.411,4.045-6.014,6.27-8.487c16.04-17.838,32.167-35.598,48.087-53.542
		c4.927-5.553,10.777-8.248,18.077-7.536c4.005,0.391,7.976,0.177,11.964,0.096c1.734-0.035,3.421-0.005,3.756,2.806
		c-20.657,21.67-41.534,43.572-62.503,65.569c23.007,29.412,46.589,58.009,70.923,86.982c-9.846,0-18.874,0-28.302,0
		C1102.197,190.203,1079.432,161.565,1056.506,132.723z"/>
	<path style="fill:#201F22;" d="M1001.618,129.361c0,5.482,0,10.921,0,16.635c-24.528,0-48.94,0-73.631,0c0-5.525,0-10.936,0-16.635
		C952.535,129.361,976.944,129.361,1001.618,129.361z"/>
	<path style="fill:#262424;" d="M1525.342,72.507c-1.664,0.328-2.948,0.544-4.422-0.415c0-8.094,0-16.337,0-24.965
		c4.856-0.823,9.745-0.692,14.564,0.405c2.538,0.578,4.456,2.228,4.873,5.028c0.446,2.992-0.099,5.635-3.005,7.268
		c-0.558,0.314-1.128,0.606-2.045,1.097c2.796,3.626,5.106,7.316,7.216,11.197c-1.662,1.02-3.12,0.598-4.947,0.514
		c-1.592-2.444-3.353-5.019-4.976-7.678c-1.453-2.381-3.342-3.607-6.452-2.869C1525.085,65.342,1526.313,68.889,1525.342,72.507z
		 M1535.044,51.959c-4.037-2.253-4.037-2.253-9.091-1.388c0,2.374,0,4.765,0,7.178c0.651,0.188,1.099,0.41,1.556,0.43
		c0.982,0.042,1.971,0.018,2.952-0.046C1534.832,57.845,1535.487,56.992,1535.044,51.959z"/>
</g>
</svg>
