<?xml version="1.0" encoding="iso-8859-1"?>
<!-- Generator: Adobe Illustrator 27.0.0, SVG Export Plug-In . SVG Version: 6.00 Build 0)  -->
<svg version="1.1" id="Layer_1" xmlns="http://www.w3.org/2000/svg" xmlns:xlink="http://www.w3.org/1999/xlink" x="0px" y="0px"
	 viewBox="0 0 1502.012 406.05" style="enable-background:new 0 0 1502.012 406.05;" xml:space="preserve">
<g>
	<path style="fill:#0C5A37;" d="M307.012,0c3.484,5.811,6.967,11.623,10.315,17.207c-0.565,3.451-2.443,5.856-3.904,8.426
		c-22.26,39.145-44.529,78.284-66.901,117.364c-1.8,3.144-1.947,5.651,0.085,8.719c2.368,3.576,4.233,7.487,6.729,11.999
		c24.969-42.722,48.74-85.383,73.531-128.494c4.557,6.135,7.655,12.266,11.338,18.32c-24.514,43.097-48.979,86.108-73.551,129.305
		c3.223,6.083,6.374,12.029,9.743,18.388c24.511-42.885,48.727-85.253,73.413-128.444c4.518,6.039,7.462,12.082,10.851,17.672
		c-0.237,2.281-1.469,3.885-2.442,5.594c-20.957,36.812-41.924,73.62-62.882,110.432c-1.723,3.026-3.176,6.188-5.233,9.043
		c-2.157,2.993-2.128,6.337-0.083,9.356c2.689,3.97,5.303,7.981,7.959,13.044c25.079-42.965,48.905-85.781,73.918-128.899
		c3.565,6.016,6.677,11.228,9.746,16.465c1.324,2.259,0.055,4.125-1.025,6.022c-6.164,10.824-12.306,21.661-18.462,32.489
		c-16.746,29.456-33.424,58.952-50.336,88.312c-2.044,3.548-2.129,6.175,0.041,9.543c2.504,3.888,4.452,8.133,6.584,12.115
		c0.374,0.044,0.542,0.089,0.705,0.075c0.151-0.013,0.328-0.052,0.438-0.146c0.247-0.212,0.52-0.43,0.677-0.706
		c24.01-41.95,48.01-83.906,72.146-126.097c2.245,1.325,2.861,3.683,4.091,5.498c1.863,2.747,3.272,5.808,5.195,8.506
		c1.928,2.706,1.706,5.005,0.086,7.78c-6.611,11.327-13.051,22.754-19.548,34.148c-16.708,29.3-33.41,58.604-50.131,87.898
		c-0.927,1.625-1.919,3.245-0.938,5.123c2.677,5.123,5.438,10.203,8.565,16.047c25.166-43.55,49.962-86.461,75.223-130.175
		c4.37,6.169,7.082,12.372,10.913,17.87c-1.83,4.927-4.69,9.036-7.134,13.336c-18.394,32.355-37.267,64.438-55.201,97.055
		c-1.918,3.489-4.386,5.031-8.423,4.769c-4.639-0.301-9.313-0.07-13.662-0.07c-2.347,1.616-3.142,3.904-4.322,5.871
		c-5.385,8.978-10.787,17.95-15.926,27.069c-1.808,3.208-4.042,4.361-7.654,4.177c-5.472-0.278-10.969-0.073-17.362-0.073
		c7.121-12.552,13.885-24.475,20.861-36.77c-6.598,0-12.81,0-19.381,0c-6.913,12.123-13.889,24.357-20.834,36.537
		c-7.497,0-14.607,0-22.482,0c6.845-12.287,13.433-24.114,20.312-36.461c-6.618,0-12.639,0-19.039,0
		c-4.802,8.672-9.704,17.514-14.593,26.363c-1.365,2.47-2.671,4.973-4.04,7.442c-0.938,1.692-2.26,2.906-4.327,2.912
		c-6.139,0.018-12.279,0.006-18.321,0.006c-0.979-2.507,0.56-3.893,1.392-5.391c5.403-9.731,10.888-19.418,16.342-29.121
		c0.318-0.566,0.6-1.152,1.291-2.486c-3.675-0.027-6.87-0.06-10.065-0.071c-3.154-0.012-6.308-0.003-9.641-0.003
		c-6.911,12.406-13.759,24.699-20.472,36.749c-7.46,0-14.377,0-22.19,0c6.347-12.736,13.91-24.003,20.258-36.438
		c-6.281,0-12.172,0-18.587,0c-7.378,11.979-14.941,24.26-22.513,36.555c-7.375,0-14.501,0-22.173,0
		c7.055-12.228,13.932-24.147,21.061-36.503c-6.532,0-12.697,0-19.336,0c-3.817,6.83-7.792,13.919-11.742,21.023
		c-2.019,3.63-4.027,7.267-5.973,10.936c-1.819,3.43-4.457,5.038-8.479,4.841c-5.139-0.252-10.3-0.061-15.427-0.061
		c-0.539-2.976,1.164-4.791,2.271-6.734c14.311-25.115,28.708-50.18,43.025-75.292c27.729-48.635,55.414-97.295,83.141-145.93
		c2.286-4.011,4.125-8.291,7.209-12.493c4.964,4.581,6.444,11.315,10.959,15.834c1.855-0.92,2.296-2.655,3.075-4.035
		c22.211-39.35,44.743-78.517,67.358-117.636c1.066-1.844,1.932-3.804,2.891-5.71C306.345,0,306.679,0,307.012,0z"/>
	<path style="fill:#787A7C;" d="M1502.012,314c-9.785,0-19.569,0-29.266,0c-1.037-2.157-0.614-4.012-0.616-5.789
		c-0.031-32.308-0.022-64.616-0.025-96.925c0-2.657,0.153-5.337-1.324-7.753c-1.015-1.66-2.224-3.005-4.398-2.52
		c-2.208,0.492-3.413,1.961-3.537,4.221c-0.082,1.495-0.059,2.996-0.059,4.494c-0.003,32.475,0,64.949-0.007,97.424
		c0,2.146,0.33,4.358-1.297,6.628c-9.631,0-19.544,0-29.312,0c-0.262-0.282-0.38-0.4-0.488-0.527
		c-0.106-0.125-0.25-0.245-0.293-0.392c-0.14-0.473-0.344-0.957-0.344-1.438c-0.02-43.966-0.025-87.931-0.017-131.897
		c0-0.638,0.17-1.276,0.311-2.268c10.168,0,20.23,0,30.366,0c2.107,1.723,0.328,4.438,1.62,6.687
		c1.507-1.373,2.85-2.839,4.425-3.989c6.552-4.784,14.058-6.037,21.808-4.712c4.741,0.811,8.208,4.105,10.643,8.373
		c0.636,1.114,0.419,2.69,1.809,3.382C1502.012,229.333,1502.012,271.667,1502.012,314z"/>
	<path style="fill:#105B38;" d="M0.012,349c2.449-0.898,3.065-3.317,4.17-5.241c22.501-39.19,44.969-78.4,67.408-117.626
		c23.926-41.826,47.821-83.67,71.718-125.512c10.955-19.181,21.87-38.385,32.841-57.557c0.798-1.394,1.246-3.103,3.472-4.252
		c3.494,5.906,6.991,11.817,10.548,17.829c-5.315,9.434-10.49,18.709-15.746,27.938c-32.143,56.435-64.284,112.871-96.467,169.282
		c-16.215,28.422-32.524,56.791-48.775,85.193c-1.237,2.161-2.487,4.332-3.493,6.604c-2.187,4.937-5.892,6.75-11.201,6.403
		c-4.805-0.314-9.648-0.063-14.473-0.06C0.012,351,0.012,350,0.012,349z"/>
	<path style="fill:#343131;" d="M76.012,406c0.125-8.74,0.25-17.48,0.373-26.138c2.068-0.998,3.849-0.656,5.929-0.688
		c2.979,5.768,2.738,12.463,5.726,18.947c2.897-6.438,3.269-12.924,5.415-18.467c2.068-1.044,3.675-0.145,5.088-0.42
		c1.192,1.358,0.862,2.731,0.867,4.02c0.024,6.139-0.022,12.278,0.033,18.417c0.013,1.448-0.456,2.999,0.568,4.329
		c-1.333,0-2.667,0-4,0c0-6.011,0-12.021,0-18.032c-2.235,5.947-4.8,11.692-5,18.032c-2,0-4,0-6,0
		c-0.221-5.479-2.306-10.524-4-15.746c0,5.249,0,10.497,0,15.746C79.345,406,77.679,406,76.012,406z"/>
	<path style="fill:#2F2B2B;" d="M0.012,379c0.481,0.085,0.959,0.22,1.443,0.247c4.523,0.246,4.974,0.52,6.144,4.872
		c1.202,4.466,2.24,8.977,3.364,13.464c0.109,0.433,0.318,0.842,0.683,1.781c1.429-5.436,2.747-10.375,4.024-15.325
		c1.348-5.224,1.548-5.358,7.343-4.238c0,8.707,0,17.453,0,26.2c-1.333,0-2.667,0-4,0c0-5.864,0-11.729,0-17.593
		c-0.193-0.013-0.385-0.026-0.578-0.039c-1.474,5.877-2.948,11.754-4.422,17.632c-2,0-4,0-6,0c0.832-5.801-2.318-10.658-4-15.916
		c0,5.305,0,10.611,0,15.916c-1,0-2,0-3,0c-0.033-3.057-0.066-6.113-0.099-9.17c-0.413-2.597,1.067-5.412-0.901-7.83
		C0.012,385.667,0.012,382.333,0.012,379z"/>
	<path style="fill:#343131;" d="M120.012,406c0-8.724,0-17.447,0-26.253c3.781-0.977,7.101-0.704,10.305-0.439
		c3.63,0.301,5.581,4.384,4.906,8.877c-0.233,1.555-1.33,2.634-1.716,4.028c3.812,6.91,3.63,8.563-1.495,13.787
		C128.012,406,124.012,406,120.012,406z M124.174,395.099c0,2.457,0,5.027,0,7.806c2.505,0.18,4.801,0.701,6.771-1.813
		c0.372-1.789,0.661-3.878-0.306-5.924C128.519,394.528,126.488,393.534,124.174,395.099z M124.149,389.958
		c2.214,1.301,3.756,0.248,5.41-0.446c0.968-1.603,1.867-3.252,0.614-5.01c-1.506-2.111-3.647-1.539-5.907-1.259
		C123.75,385.543,123.869,387.621,124.149,389.958z"/>
	<path style="fill:#2F2B2B;" d="M281.012,406c1.669-6.003,0.955-12.119,0.782-18.196c-0.075-2.635-0.537-5.254,0.854-8.273
		c4.059-0.655,8.25-0.757,12.374,0.625c1.637,0.549,2.678,1.923,3.189,3.591c2.425,7.915,2.615,15.517-3.198,22.252
		C290.345,406,285.679,406,281.012,406z M286.235,383.513c0,6.584,0,12.854,0,19.092c5.792,0.885,8.515-1.069,8.887-6.34
		c0.14-1.984,0.096-3.995-0.041-5.981C294.629,383.724,293.318,382.685,286.235,383.513z"/>
	<path style="fill:#343131;" d="M189.012,406c0-8.745,0-17.49,0-26.36c4.038-0.806,7.537-0.632,10.92-0.384
		c4.191,0.307,6.879,5.167,5.547,9.402c-0.44,1.398-1.3,2.664-1.997,4.049c2.048,4.129,2.309,8.707,2.529,13.293
		c-1.333,0-2.667,0-4,0c-0.155-1.645-0.239-3.301-0.478-4.934c-0.847-5.802-2.374-6.786-8.522-5.381c0,3.398,0,6.856,0,10.314
		C191.679,406,190.345,406,189.012,406z M193.082,383.708c0,2.356,0,4.614,0,6.907c1.566,0.689,3.021,0.698,4.468,0.421
		c2.234-0.428,4.116-2.529,3.871-4.453c-0.292-2.295-1.825-3.45-4.054-3.518C196.096,383.027,194.739,382.621,193.082,383.708z"/>
	<path style="fill:#343131;" d="M347.012,406c-4.509-6.794-3.503-14.196-2.092-21.508c0.978-5.065,6.114-6.628,9.459-5.898
		c4.848,1.058,6.773,3.916,6.257,9.421c-1.08,0.623-2.201,0.493-3.523,0.1c-0.499-1.44-1.03-2.975-1.492-4.311
		c-1.683-1.261-3.25-1.36-5.429-0.528c-2.986,5.374-3.095,11.292-1.016,17.284c0.946,2.725,3.225,2.981,5.619,2.086
		c1.832-1.753,1.257-4.164,2.044-6.134c1.218-0.663,2.408-0.991,3.96-0.081c0.341,3.483-1.545,6.443-2.786,9.569
		C354.345,406,350.679,406,347.012,406z"/>
	<path style="fill:#3B3737;" d="M43.012,406c0-8.609,0-17.217,0-26.151c4.901-1.294,9.33-0.268,13.321-0.679
		c1.411,1.12,1.848,2.068,0.819,3.587c-2.782,0.868-6.027-0.277-8.856,0.574c-1.845,2.054-1.157,4.179-1.097,6.272
		c3.086,1.869,6.458,0.158,9.356,1.383c0.727,0.932,0.472,1.861,0.248,2.749c-2.873,1.641-6.168-0.333-9.004,1.639
		c-1.227,2.165-0.875,4.549-0.374,7.025c2.345,1.26,4.716,0.54,6.971,0.588c2.168,0.047,3.556,0.626,3.616,3.013
		C53.012,406,48.012,406,43.012,406z"/>
	<path style="fill:#343131;" d="M155.012,406c0-8.609,0-17.218,0-26.154c4.812-1.183,9.239-0.731,13.603-0.294
		c1.153,0.115,1.566,1.593,0.479,3.151c-2.746,0.926-5.961-0.189-8.966,0.551c-1.738,1.924-1.227,4.014-0.817,6.087
		c2.783,2.473,6.281,0.324,9.142,1.67c0.728,0.881,0.477,1.818,0.363,2.836c-3.035,1.19-6.101,0.056-9.273,0.895
		c-1.016,2.534-0.351,5.235-0.452,8.311c2.838,0,5.293,0.052,7.745-0.016c2.1-0.059,3.01,1.021,3.177,2.965
		C165.012,406,160.012,406,155.012,406z"/>
	<path style="fill:#2F2B2B;" d="M250.012,406c1.157-2.011,0.557-4.207,0.584-6.311c0.084-6.591,0.031-13.184,0.031-19.976
		c4.432-0.906,8.35-0.332,12.082-0.396c1.284,1.025,1.308,2.045,0.457,3.338c-2.352,1.026-5.154-0.33-7.745,0.928
		c-1.613,1.996-1.128,4.179-0.609,6.364c2.558,1.326,5.181,0.088,7.521,0.986c1.042,0.751,0.559,1.734,0.631,2.76
		c-2.389,1.412-5.16-0.046-7.887,2.009c-1.111,2.919-1.12,6.579-0.065,10.297C253.345,406,251.679,406,250.012,406z"/>
	<path style="fill:#3B3737;" d="M320.012,406c0-8.585,0-17.17,0-25.372c1.031-1.498,2.026-1.776,3.887-0.897
		c0.037,8.547,0.075,17.409,0.113,26.27C322.679,406,321.345,406,320.012,406z"/>
	<path style="fill:#DAD7D7;" d="M91.012,406c0.2-6.34,2.765-12.085,5-18.032c0,6.011,0,12.021,0,18.032
		C94.345,406,92.679,406,91.012,406z"/>
	<path style="fill:#3B3737;" d="M0.913,396.83c0.033,3.057,0.066,6.113,0.099,9.17c-0.308-0.218-1.024,0.505-1.012-0.5
		c0.034-2.833,0.012-5.667,0.012-8.5C0.319,396.982,0.62,396.925,0.913,396.83z"/>
	<path style="fill:#77797B;" d="M0.913,396.83c-0.293,0.095-0.593,0.152-0.901,0.17c0-2.667,0-5.333,0-8
		C1.979,391.418,0.499,394.233,0.913,396.83z"/>
	<path style="fill:#787A7C;" d="M1123.232,197.682c0,38.558,0,77.117,0,116.053c-10.587,0-20.627,0-30.616,0
		c-0.733-4.128-0.895-164.427-0.18-170.366c17.19,0,34.432,0,52.41,0c4.968,36.176,9.175,72.74,14.412,109.139
		c6.443-36.271,10.586-72.798,16.382-109.26c15.854,0,31.29,0,46.843,0c1.192,1.611,0.616,3.505,0.617,5.253
		c0.038,41.985-0.151,83.972,0.153,125.955c0.078,10.794,0.454,21.602,0.55,32.407c0.021,2.358-0.26,4.593-1.339,6.964
		c-9.654,0-19.243,0-28.669,0c-1.587-1.62-1.561-3.442-1.559-5.283c0.013-12.662-0.493-25.349,0.119-37.981
		c1.025-21.138,0.146-42.268,0.562-63.395c0.059-3.001-0.457-5.871-1.572-8.774c-6.29,38.408-12.581,76.816-18.903,115.417
		c-10.197,0-19.787,0-29.806,0C1136.147,274.97,1129.836,236.309,1123.232,197.682z"/>
	<path style="fill:#77797B;" d="M548.883,313.408c-1.249-4.014-1.93-135.036-0.878-166.213c0.045-1.328-0.128-2.696,1.105-3.73
		c0.989-0.698,2.189-0.455,3.334-0.457c12.159-0.014,24.318-0.034,36.477,0.005c6.167,0.02,12.222,0.756,18.098,2.821
		c10.841,3.81,17.962,10.738,20.319,22.394c2.378,11.755,2.027,23.411,0.073,35.125c-1.314,7.878-5.915,13.178-12.956,16.527
		c-2.659,1.264-5.416,2.321-8.498,3.628c2.711,0.641,5.037,0.932,7.166,1.743c5.696,2.172,9.765,6.051,12.07,11.83
		c2.501,6.274,3.273,12.856,3.52,19.467c0.354,9.466,0.52,18.947-0.662,28.4c-1.86,14.868-8.822,24.115-22.583,27.511
		c-5.077,1.253-10.145,1.631-15.292,1.646c-12.492,0.037-24.985,0.019-37.477,0C551.394,314.105,550.019,314.324,548.883,313.408z
		 M583.23,288.474c7.894,1.246,10.526-0.846,10.67-7.984c0.017-0.833,0.002-1.666,0.002-2.499c0-8.163,0-16.325,0-24.488
		c0-3.498,0.085-6.999-0.02-10.494c-0.153-5.069-2.051-6.928-6.986-7.004c-1.13-0.017-2.337-0.321-3.666,0.782
		C583.23,253.764,583.23,270.99,583.23,288.474z M583.167,213.632c7.662,0.71,10.684-1.83,10.723-8.601
		c0.052-9.132,0.007-18.265,0.019-27.398c0.002-1.5-0.108-2.942-0.644-4.389c-1.521-4.106-5.553-5.794-10.097-3.954
		C583.167,183.919,583.167,198.628,583.167,213.632z"/>
	<path style="fill:#797A7D;" d="M827.193,250.585c-0.418,20.931-0.398,41.824-0.411,62.476c-4.05,1.159-26.774,1.262-30.878,0.36
		c-0.992-3.451-1.225-164.296-0.246-169.562c3.313-1.053,24.171-1.321,30.111-0.387c1.489,1.492,1.082,3.376,1.08,5.183
		c-0.024,26.485-0.047,52.971-0.054,79.456c0,1.143-0.186,2.339,0.627,3.554c3.646-18.087,7.263-36.029,10.869-53.922
		c3.475-1.065,25.441-1.339,32.59-0.381c-2.484,9.931-4.947,19.826-7.437,29.715c-2.102,8.347-4.144,16.711-6.397,25.017
		c-0.948,3.498-0.497,6.851,0.145,10.258c2.268,12.033,4.555,24.062,6.813,36.097c1.861,9.923,3.661,19.857,5.563,29.772
		c0.344,1.792,0.683,3.519,0.235,5.55c-10.283,0-20.381,0-31.211,0C834.709,292.807,831.286,271.652,827.193,250.585z"/>
	<path style="fill:#77797C;" d="M787.078,314.017c-9.172,0-18.495,0.007-27.818-0.021c-0.462-0.001-0.923-0.308-1.346-0.459
		c-1.631-1.744-0.989-3.847-0.991-5.769c-0.038-32.145-0.041-64.29-0.001-96.436c0.003-2.524-0.127-5.005-1.064-7.338
		c-0.802-1.998-2.267-3.198-4.632-3.052c-2.226,0.137-3.133,1.616-3.816,3.399c-0.677,1.77-0.388,3.626-0.387,5.442
		c0.021,32.311,0.073,64.622,0.086,96.933c0.001,2.132,0.393,4.327-0.554,6.356c-3,1.111-24.456,1.42-30.369,0.4
		c0-45.312,0-90.674,0-136.291c10.28,0,20.328,0,30.26,0c1.243,2.233-0.033,4.487,1.056,6.845c4.314-4.905,9.72-7.633,15.889-8.698
		c5.118-0.884,10.259-1.193,14.997,1.731c5.167,3.189,7.71,7.883,8.701,13.806c1.274,7.615,0.959,15.267,0.988,22.898
		c0.119,31.978,0.058,63.957,0.026,95.936C788.102,311.114,788.674,312.731,787.078,314.017z"/>
	<path style="fill:#787A7C;" d="M671.776,198.236c-2.982,1.382-4.036,3.594-3.998,6.543c0.067,5.164,0.013,10.33,0.05,15.494
		c0.011,1.489,0.354,3.013-1.117,4.617c-9.75,0-19.824,0-30.101,0c-0.984-4.049-0.476-8.041-0.538-11.966
		c-0.075-4.8-0.186-9.588,0.838-14.398c1.827-8.58,6.633-14.793,14.191-18.802c13.952-7.4,35.379-7.071,48.242,4.506
		c5.075,4.567,8.212,10.221,8.802,17.298c1.566,18.788,0.439,37.598,0.74,56.395c0.168,10.494,0.117,20.994,0.001,31.489
		c-0.081,7.34,0.56,14.59,1.899,21.793c0.124,0.666,0.092,1.332-0.842,2.345c-2.789,1.246-6.301,0.237-9.698,0.415
		c-3.323,0.175-6.662,0.038-9.995,0.038c-3.488,0-6.976,0-10.343,0c-3.27-3.047-0.498-7.64-3.196-11.025
		c-1.743,2.72-3.284,5.241-5.332,7.409c-7.296,7.723-22.161,7.177-28.857,1.185c-4.62-4.134-6.235-9.827-6.343-15.748
		c-0.228-12.49-0.276-24.992-0.001-37.48c0.202-9.194,4.805-16.123,12.739-20.633c4.901-2.786,10.02-5.203,15.111-7.641
		c13.673-6.548,13.787-15.962,12.773-26.857C676.555,200.564,674.982,198.592,671.776,198.236z M672.084,292.764
		c3.92-1.287,5.053-4.118,5.039-7.786c-0.042-10.975-0.006-21.95-0.028-32.925c-0.003-1.209,0.249-2.497-0.458-3.94
		c-0.944,0.69-1.558,1.247-2.264,1.637c-4.863,2.687-7.058,6.685-6.639,12.314c0.308,4.136,0.159,8.308,0.178,12.464
		c0.019,4.155-0.017,8.31-0.009,12.465C667.907,289.735,668.884,291.845,672.084,292.764z"/>
	<path style="fill:#787A7C;" d="M1268.826,198.187c-4.441,1.528-4.849,1.944-4.891,6.158c-0.066,6.645-0.018,13.291-0.018,19.654
		c-0.541,0.496-0.75,0.764-1.022,0.921c-0.431,0.248-0.893,0.456-1.364,0.613c-0.304,0.101-0.659,0.149-0.975,0.104
		c-9.231-1.327-18.56,0.131-28.255-0.817c0.081-9.41-1.165-18.694,0.964-27.842c1.896-8.145,7.193-14.124,14.47-17.533
		c15.104-7.075,30.303-6.805,44.618,2.322c7.593,4.841,11.277,12.125,11.82,21.32c1.624,27.455,0.439,54.922,0.693,82.381
		c0.078,8.491,0.375,16.927,1.918,25.291c0.146,0.792,0.02,1.635,0.02,2.409c-3.57,1.027-24.26,1.285-31.292,0.434
		c-1.815-2.904-1.009-6.423-2.024-9.594c-1.912-0.007-2.192,1.493-2.862,2.507c-6.487,9.816-17.33,11.205-25.967,8.228
		c-8.418-2.901-11.909-8.833-12.312-18.602c-0.501-12.141-0.371-24.318-0.186-36.475c0.158-10.378,5.168-17.988,14.364-22.795
		c5.002-2.615,10.028-5.187,15.071-7.722c11.764-5.912,12.52-16.604,11.237-26.306
		C1272.576,200.868,1271.522,199.937,1268.826,198.187z M1270.317,291.953c2.838-2.443,2.922-5.44,2.922-8.465
		c0-10.482,0.019-20.965-0.025-31.447c-0.005-1.222,0.475-2.587-0.689-3.843c-3.475,1.806-6.098,4.497-8.607,7.473
		c0,10.562-0.065,21.038,0.032,31.512C1263.989,291.254,1265.275,292.111,1270.317,291.953z"/>
	<path style="fill:#797A7D;" d="M990.917,244.914c0,12.83-0.146,25.663,0.035,38.49c0.257,18.154-10.81,28.521-26.452,31.6
		c-12.217,2.404-23.822,1.16-34.345-5.993c-6.394-4.346-9.873-10.53-11.203-18.11c-0.667-3.804-0.713-7.597-0.713-11.416
		c-0.001-23.994,0.063-47.989-0.024-71.983c-0.054-14.944,7.85-27.326,24.022-31.112c11.498-2.692,22.806-2.207,33.405,3.448
		c9.931,5.298,15.034,13.89,15.222,25.086C991.088,218.251,990.917,231.584,990.917,244.914z M952.447,291.92
		c5.294,0.158,6.746-0.948,6.757-5.692c0.063-26.948,0.052-53.895,0.009-80.843c-0.007-4.202-1.761-6.627-4.448-6.698
		c-3.003-0.079-4.81,2.265-4.819,6.834c-0.05,26.615-0.019,53.23-0.037,79.845C949.908,287.792,950.489,289.946,952.447,291.92z"/>
	<path style="fill:#787A7C;" d="M1341.437,313.787c-9.7,0-19.284,0-28.856,0c-1.061-2.172-0.67-4.199-0.67-6.148
		c0.014-38.828,0.069-77.657,0.078-116.485c0.001-3.148,0.416-6.34-0.551-9.433c-0.499-1.598,0.185-2.91,0.958-4.52
		c4.723-2.181,9.68,0.247,14.561-0.217c4.931-0.468,9.94-0.103,14.591-0.103c2.107,2.617,0.67,5.312,1.561,7.936
		c1.882-0.403,2.752-2.086,3.975-3.213c7.616-7.019,19.346-8.876,28.326-4.463c4.556,2.239,6.923,5.877,7.684,10.88
		c0.704,4.631,0.79,9.269,0.806,13.915c0.048,14.498,0.031,28.997-0.002,43.496c-0.004,1.624,0.434,3.346-1.063,5.459
		c-9.443,0.46-19.313,0.248-28.857,0.082c-1.368-1.54-0.945-2.937-0.948-4.217c-0.033-11.999-0.054-23.998,0.006-35.996
		c0.014-2.732-0.322-5.299-1.849-7.621c-1.892-2.876-4.966-3.001-6.827-0.153c-0.805,1.232-1.43,2.628-1.436,4.202
		c-0.008,1.832-0.132,3.663-0.13,5.495c0.035,31.162,0.088,62.325,0.113,93.487C1342.906,308.636,1343.376,311.207,1341.437,313.787
		z"/>
	<path style="fill:#105B38;" d="M64.187,351.728c-7.272,0-14.218,0-22.059,0C94.98,259.252,147.513,167.337,199.946,75.595
		c2.085,0.277,2.65,1.527,3.325,2.662c2.124,3.57,4.083,7.254,6.431,10.67c1.902,2.768,1.571,5.091-0.018,7.822
		c-7.27,12.489-14.455,25.028-21.595,37.593c-36.019,63.384-72.015,126.781-108.016,190.175
		c-4.263,7.508-8.508,15.026-12.755,22.543C66.423,348.644,65.681,350.329,64.187,351.728z"/>
	<path style="fill:#787A7C;" d="M1034.015,200.966c0,12.233,0,24.658,0,37.082c0,12.652,0.009,25.304-0.002,37.956
		c-0.011,12.427,0.05,24.856-0.044,37.689c-10.588,0-20.472,0-30.462,0c-1.713-1.901-1.255-4.303-1.256-6.575
		c-0.017-33.628-0.004-67.256-0.033-100.884c-0.002-1.787,0.47-3.667-0.548-5.293c-1.609-1.797-4.032,0.002-6.207-1.95
		c-0.648-6.816-0.512-14.152-0.069-21.072c2.254-1.745,4.494-0.387,6.568-1.684c0.651-4.714,0.354-9.675,0.911-14.585
		c1.239-10.941,5.927-15.952,16.659-17.767c7.629-1.29,15.21-0.597,22.983-0.927c1.191,4.003,0.453,7.819,0.588,11.567
		c0.131,3.638,0.029,7.285,0.029,10.633c-2.568,2.535-6.791,0.731-8.404,4.35c-0.935,2.097-0.931,4.145-0.529,6.208
		c2.353,2.416,5.74,0.044,8.782,2.658c0.345,6.575,0.082,13.8,0.138,20.868C1040.31,201.027,1037.451,199.139,1034.015,200.966z"/>
	<path style="fill:#78797C;" d="M1421.966,177.262c1.297,4.1,1.949,103.319,0.95,132.502c-0.045,1.324,0.192,2.719-1.522,3.961
		c-9.245,0-18.963,0-29.031,0c0-45.618,0-90.848,0-136.058C1395.968,176.701,1414.248,176.439,1421.966,177.262z"/>
	<path style="fill:#105B38;" d="M433.631,218.891c3.663,6.252,6.843,11.657,9.998,17.075c1.231,2.114-0.037,3.827-1.014,5.546
		c-5.324,9.368-10.672,18.722-16,28.089c-7.464,13.121-15.044,26.179-22.294,39.417c-2.107,3.848-4.452,5.642-9.013,5.105
		c-4.264-0.502-8.636-0.094-12.961-0.045c-1.001,0.012-1.986,0.134-3.269-1.074C397.458,282.275,415.029,250.909,433.631,218.891z"
		/>
	<path style="fill:#105B38;" d="M454.169,255.48c4.539,6.133,7.641,12.28,10.896,18.043c-0.888,3.544-2.856,6.078-4.426,8.774
		c-4.926,8.457-9.977,16.844-14.163,25.7c-2.094,4.43-5.297,6.488-10.25,6.267c-4.969-0.222-9.955-0.049-15.839-0.049
		C431.816,294.345,442.822,275.209,454.169,255.48z"/>
	<path style="fill:#797A7D;" d="M1392.261,169.91c0-9.473,0-17.887,0-26.606c10.12,0,19.987,0,30.335,0
		c0.615,8.78,0.214,17.296,0.324,26.356C1412.408,170.121,1402.564,169.825,1392.261,169.91z"/>
	<path style="fill:#1F5D3B;" d="M349.127,328.235c4.765,7.956,9.019,15.309,13.109,23.38c-8.947,0-17.322,0-26.07,0
		C340.271,343.824,344.128,336.2,349.127,328.235z"/>
	<path style="fill:#105B38;" d="M475.086,290.781c4.628,8.112,8.786,15.4,13.175,23.092c-8.733,0-16.949,0-25.817,0
		C466.202,305.893,470.588,298.925,475.086,290.781z"/>
</g>
</svg>
