<?xml version="1.0" encoding="iso-8859-1"?>
<!-- Generator: Adobe Illustrator 27.0.0, SVG Export Plug-In . SVG Version: 6.00 Build 0)  -->
<svg version="1.1" id="Layer_1" xmlns="http://www.w3.org/2000/svg" xmlns:xlink="http://www.w3.org/1999/xlink" x="0px" y="0px"
	 viewBox="0 0 1578.87 203" style="enable-background:new 0 0 1578.87 203;" xml:space="preserve">
<g>
	<path style="fill:#197F6B;" d="M72.229,0.847c2.827-0.067,4.597,1.973,6.33,3.612c18.006,17.028,35.784,34.293,51.879,53.184
		c5.805,6.813,5.562,12.195-0.673,18.816c-7.18,7.625-14.49,15.129-21.69,22.735c-3.349,3.538-3.236,4.599,0.401,8.056
		c7.107,6.757,14.212,13.515,21.308,20.282c6.74,6.427,7.072,11.405,0.881,18.498c-10.06,11.524-20.565,22.64-31.371,33.469
		c-5.757,5.769-11.533,11.523-17.407,17.173c-2.505,2.409-5.214,4.647-8.787,5.391c-17.215-0.025-34.43-0.051-51.645-0.075
		C20.498,201.986,19.42,201.696,19,203c-4,0-8,0-12,0c-3.247-2.166-5.531-5.043-6.553-8.859C0.425,194.06,0.154,194.045,0,194
		c0-1.333,0-2.667,0-4c1.919-1.159,0.951-3.025,0.952-4.527C1.007,129.482,0.998,73.492,0.999,17.501c0-1,0.005-2,0.012-2.999
		C1.016,13.769,0.714,13.246,0,13c0-0.667,0-1.333,0-2c1.617-0.362,0.987-1.86,1.347-2.814C2.745,4.48,4.703,1.473,9.06,0.949
		C9.568,0.888,9.893,0.521,10,0c1,0,2,0,3,0c1.927,1.998,3.83,4.02,5.784,5.99c8.187,8.255,15.596,17.256,24.139,25.169
		c1.043,1.266,2.085,2.532,3.036,3.687c0.059,0.325,0.114,0.488,0.114,0.651c0.024,43.962,0.024,87.924,0.115,131.886
		c0.005,2.616-1.082,4.332-2.801,6.056c-8.568,8.591-17.066,17.253-25.54,25.84c0.316,0.797,0.723,1.293,1.468,1.588
		c1.86-0.818,2.735-2.723,4.102-4.105c14.045-14.197,28.058-28.426,42.061-42.664c3.502-3.561,7.017-7.113,10.378-10.805
		c2.8-3.077,2.855-4.56,0.485-7.929c-1.14-1.621-2.538-3.075-3.919-4.51c-6.576-6.832-13.247-13.572-19.762-20.461
		c-4.549-4.811-4.58-10.672-0.303-15.706c0.86-1.012,1.848-1.918,2.795-2.854c6.51-6.439,13.04-12.856,19.53-19.315
		c3.26-3.244,3.553-6.442,0.576-9.615c-10.345-11.029-20.796-21.96-31.206-32.928c-8.523-9.886-17.812-19.06-26.619-28.6
		C17.631,0.895,17.816,0.448,18,0c1.333,0,2.667,0,4,0c0.383,0.931,1.168,1.006,2.03,1.003C40.096,0.946,56.162,0.897,72.229,0.847z
		"/>
	<path style="fill:#8EAFA5;" d="M0,13c0.714,0.246,1.016,0.769,1.011,1.501c-0.007,1-0.012,2-0.012,2.999
		C0.998,73.492,1.007,129.482,0.952,185.473C0.951,186.975,1.919,188.841,0,190C0,131,0,72,0,13z"/>
	<path style="fill:#E2E8E6;" d="M42.923,31.159C34.38,23.247,26.971,14.245,18.784,5.99C16.83,4.02,14.927,1.998,13,0
		c1.667,0,3.333,0,5,0c-0.184,0.448-0.369,0.895-0.566,1.375c8.807,9.539,18.096,18.713,26.619,28.6
		C43.417,30.123,43.068,30.543,42.923,31.159z"/>
	<path style="fill:#609687;" d="M19,203c0.42-1.304,1.498-1.014,2.455-1.012c17.215,0.025,34.43,0.05,51.645,0.075
		c-0.171,0.298-0.205,0.61-0.1,0.937C55,203,37,203,19,203z"/>
	<path style="fill:#609687;" d="M72.229,0.847C56.162,0.897,40.096,0.946,24.03,1.003C23.168,1.006,22.383,0.931,22,0
		c16.667,0,33.333,0,50,0C72.044,0.291,72.12,0.573,72.229,0.847z"/>
	<path style="fill:#67686A;" d="M401.733,92.266c0,6.304,0,12.205,0,18.74c-5.207,0-10.319,0-15.431,0
		c-18.993,0-37.987,0.054-56.98-0.049c-3.54-0.019-6.992,0.458-10.388,1.16c-8.619,1.783-13.234,7.644-13.83,17.616
		c31.725,0,63.423,0,95.154,0c1.329,6.02-0.5,11.384-0.054,17.334c-31.904,0-63.46,0-95.013,0c0.037,9.743,5.393,16.233,14.4,17.94
		c3.765,0.714,7.561,1.014,11.403,1.007c21.826-0.04,43.652-0.028,65.477-0.002c1.63,0.002,3.305-0.327,5.159,0.416
		c0,5.851,0,11.765,0,17.652c-1.195,1.07-2.592,0.635-3.87,0.636c-23.159,0.027-46.318,0.119-69.476-0.048
		c-5.942-0.043-11.866-0.743-17.699-2.323c-12.615-3.415-20.395-11.576-23.51-23.977c-3.286-13.083-3.304-26.374-0.034-39.471
		c3.539-14.173,12.856-22.401,27.242-24.977c5.735-1.027,11.496-1.643,17.317-1.648c21.659-0.016,43.318-0.007,64.978-0.007
		C398.211,92.266,399.842,92.266,401.733,92.266z"/>
	<path style="fill:#67686A;" d="M908.847,92.267c0,6.391,0,12.194,0,18.135c-1.556,1.215-3.458,0.564-5.197,0.568
		c-22.824,0.053-45.648,0.043-68.472,0.028c-3.691-0.002-7.245,0.689-10.758,1.764c-5.897,1.805-9.607,5.709-11.245,11.599
		c-0.441,1.584-0.671,3.227-1.108,5.389c31.916,0,63.613,0,95.569,0c0,5.934,0,11.347,0,17.291c-31.8,0-63.519,0-95.275,0
		c0.863,11.058,6.043,16.649,16.076,18.175c3.805,0.578,7.596,0.791,11.427,0.788c21.16-0.018,42.32-0.009,63.479-0.009
		c1.654,0,3.309,0,5.383,0c0,6.188,0,12.218,0,18.23c-1.286,0.868-2.657,0.49-3.948,0.492c-23.159,0.026-46.318,0.073-69.477-0.031
		c-4.135-0.019-8.333-0.348-12.389-1.122c-16.955-3.235-26.359-12.44-29.522-29.444c-2.018-10.85-1.88-21.797,0.419-32.696
		c3.843-18.214,15.783-26.572,33.66-28.468c9.304-0.987,18.612-0.624,27.919-0.668c15.994-0.075,31.989-0.021,47.984-0.021
		C905.017,92.267,906.66,92.267,908.847,92.267z"/>
	<path style="fill:#67696A;" d="M1418.979,145.432c3.279,1.962,6.54,3.58,9.22,6.163c3.011,2.901,4.753,6.435,5.503,10.401
		c0.459,2.425,0.278,4.98,0.296,7.478c0.036,4.947,0.011,9.894,0.011,15.044c-6.856,0-13.116,0-19.729,0
		c-0.548-2.822-0.172-5.624-0.265-8.392c-0.134-3.981,0.363-7.973-0.542-11.943c-1.288-5.654-4.429-8.627-10.152-9.247
		c-1.157-0.125-2.328-0.187-3.492-0.187c-19.327-0.011-38.654-0.01-57.981-0.002c-0.659,0-1.319,0.1-2.67,0.21
		c-0.15,9.725-0.001,19.464-0.058,29.482c-6.56,0-12.792,0-19.41,0c0-30.579,0-60.971,0-91.276c0.934-1.215,2.179-0.891,3.304-0.891
		c25.491-0.014,50.985-0.22,76.473,0.101c9.118,0.115,18.207,1.504,26.048,7.009c11.711,8.222,13.885,26.277,5.415,37.923
		c-1.795,2.468-4.397,4.04-7.02,5.512C1422.343,143.707,1420.712,144.52,1418.979,145.432z M1339.775,136.91
		c0.987,0.049,2.117,0.154,3.247,0.155c18.657,0.017,37.314,0.024,55.971,0.021c1.498,0,3.017,0.058,4.49-0.157
		c4.247-0.619,8.026-2.196,10.481-5.958c3.028-4.639,2.8-9.456,0.355-14.203c-2.455-4.768-6.625-6.767-11.865-6.775
		c-19.99-0.032-39.979-0.068-59.969-0.083c-0.959-0.001-2.003-0.269-3.336,0.959c0,6.837-0.029,14.127,0.024,21.416
		C1339.185,133.734,1338.764,135.269,1339.775,136.91z"/>
	<path style="fill:#67686A;" d="M929.259,92.417c10.174-0.369,20.063-0.375,29.82,2.161c6.168,1.604,11.065,5.14,15.573,9.446
		c7.752,7.405,13.836,16.166,20.131,24.74c7.085,9.649,14.106,19.342,21.523,28.742c3.943,4.996,7.855,7.152,13.721,7.319
		c0.559-3.009,0.787-6.089,0.788-9.202c0.009-19.319,0.014-38.638,0.059-57.957c0.004-1.626-0.38-3.313,0.516-5.116
		c6.148,0,12.374,0,18.928,0c0,30.665,0,61.046,0,91.868c-3.708,0.644-7.34,0.203-10.93,0.303
		c-3.493,0.097-6.964-0.335-10.443-0.536c-8.774-0.509-15.92-4.389-22.242-10.052c-5.469-4.898-10.19-10.518-14.687-16.31
		c-9.077-11.689-18.08-23.436-27.192-35.098c-1.838-2.352-4.001-4.455-6.058-6.632c-2.564-2.713-5.716-3.752-9.97-3.173
		c0,23.751,0,47.473,0,71.5c-6.795,0-13.029,0-19.538,0C929.259,153.783,929.259,123.247,929.259,92.417z"/>
	<path style="fill:#67696A;" d="M523.356,164.993c0-24.35,0-48.233,0-72.419c6.576,0,12.669,0,18.789,0
		c0.973,3.447,1.368,81.691,0.398,91.958c-11.027,0.337-22.092,1.077-32.718-3.278c-5.845-2.395-10.38-6.553-14.557-11.097
		c-8.792-9.565-16.435-20.062-24.358-30.332c-4.978-6.451-9.93-12.927-15.088-19.233c-3.64-4.451-7.922-8.09-14.831-8.29
		c0,11.93,0,23.843,0,35.756c0,11.983,0,23.967,0,36.314c-6.236,0-12.293,0-18.376,0c-0.901-3.315-1.302-83.81-0.384-91.965
		c8.042-0.299,16.095-0.251,24.174,0.944c11.254,1.664,19.503,8.003,26.378,16.487c8.795,10.854,16.837,22.281,25.113,33.53
		c3.938,5.353,8.172,10.497,12.44,15.594C513.456,162.689,517.561,164.71,523.356,164.993z"/>
	<path style="fill:#67686A;" d="M686.032,184.607c-7.317,0-13.951,0-21.013,0c-3.806-7.388-7.661-14.871-11.585-22.487
		c-22.366,0-44.64,0-67.483,0c-3.73,7.217-7.592,14.69-11.541,22.332c-6.72,0-13.322,0-19.912,0c-1.007-1.301,0.128-2.23,0.6-3.158
		c12.639-24.862,25.082-49.827,38.085-74.498c6.842-12.981,16.2-16.524,30.754-15.411c9.302,0.712,16.142,5.518,20.958,13.426
		c4.673,7.673,8.458,15.815,12.606,23.761c8.836,16.925,17.43,33.976,26.114,50.98C684.36,181.011,685.031,182.507,686.032,184.607z
		 M644.076,144.671c-5.135-11.132-10.673-21.651-16.427-32.054c-1.35-2.44-3.724-3.546-6.6-3.847
		c-5.159-0.541-8.59,1.68-10.864,6.116c-3.247,6.335-6.511,12.661-9.748,19c-1.789,3.503-3.537,7.026-5.427,10.785
		C611.505,144.671,627.564,144.671,644.076,144.671z"/>
	<path style="fill:#67686A;" d="M1578.87,184.531c-6.81,0-13.424,0-20.377,0c-3.754-7.392-7.498-14.764-11.349-22.347
		c-22.462,0-44.891,0-67.656,0c-3.774,7.389-7.601,14.885-11.341,22.207c-6.958,0-13.513,0-20.026,0
		c-0.455-2.004,0.713-3.17,1.355-4.44c11.917-23.56,23.869-47.103,35.859-70.626c1.128-2.214,2.437-4.361,3.881-6.383
		c7.173-10.042,17.164-12.658,28.952-11.392c11.231,1.207,17.893,7.993,22.703,17.285c8.779,16.963,17.427,33.993,26.126,50.997
		c3.48,6.803,6.962,13.605,10.414,20.422C1577.997,181.411,1578.895,182.462,1578.87,184.531z M1536.922,144.584
		c0.529-1.752-0.465-2.839-1.042-3.972c-4.367-8.576-8.797-17.12-13.212-25.671c-1.959-3.795-4.689-6.242-9.33-6.267
		c-4.615-0.025-7.422,2.239-9.395,6.105c-4.375,8.57-8.811,17.108-13.193,25.675c-0.657,1.285-1.746,2.447-1.469,4.131
		C1505.203,144.584,1521.092,144.584,1536.922,144.584z"/>
	<path style="fill:#67696A;" d="M153.193,92.51c6.638,0,12.74,0,18.687,0c1.37,1.696,0.823,3.431,0.833,5.032
		c0.096,15.818,0.163,31.637,0.165,47.455c0,3.371,0.458,6.594,1.767,9.714c3.269,7.789,10.039,10.205,17.534,11.219
		c11.917,1.611,23.87,1.458,35.799,0.001c1.962-0.24,3.947-0.67,5.8-1.344c7.5-2.727,11.888-6.163,13.184-17.407
		c0.228-1.976,0.131-3.992,0.132-5.99c0.009-14.488-0.009-28.976,0.023-43.464c0.004-1.63-0.346-3.309,0.452-5.179
		c6.159,0,12.405,0,18.662,0c1.13,1.126,0.645,2.535,0.648,3.798c0.036,15.32,0.004,30.641,0.033,45.962
		c0.011,5.521-0.836,10.942-2.26,16.221c-3.663,13.579-13.167,21.145-26.358,24.406c-13.681,3.383-27.564,3.656-41.57,2.336
		c-6.317-0.595-12.525-1.361-18.565-3.344c-13.603-4.465-21.485-13.87-24.072-27.829c-0.666-3.592-1.115-7.214-1.107-10.893
		c0.036-15.987,0.011-31.973,0.02-47.96C153.001,94.436,153.111,93.627,153.193,92.51z"/>
	<path style="fill:#666869;" d="M1189.349,92.458c6.207,0,12.146,0,18.102,0c0.962,1.701,0.525,3.394,0.528,5.001
		c0.031,13.498,0.061,26.997-0.03,40.494c-0.028,4.187,0.323,8.33,1.087,12.41c1.248,6.659,4.758,11.53,11.497,13.763
		c4.138,1.371,8.391,2.035,12.672,2.462c10.815,1.079,21.619,0.585,32.313-1.213c12.674-2.131,16.505-8.488,17.342-20.658
		c0.445-6.47,0.126-12.993,0.133-19.491c0.01-9.165-0.016-18.331,0.02-27.496c0.007-1.636-0.322-3.313,0.42-5.186
		c5.995,0,12.068,0,18.029,0c1.056,1.112,0.706,2.335,0.707,3.451c0.02,16.164-0.02,32.329,0.018,48.494
		c0.018,7.787-1.456,15.177-5.268,22.041c-3.35,6.033-8.131,10.495-14.477,13.192c-6.597,2.803-13.411,4.772-20.606,5.419
		c-10.47,0.94-20.901,1.099-31.39,0.037c-4.815-0.488-9.601-1.045-14.209-2.375c-9.564-2.759-17.682-7.618-22.482-16.85
		c-2.804-5.394-4.511-11.189-4.609-17.164c-0.3-18.325-0.195-36.658-0.233-54.987C1188.914,93.49,1189.109,93.178,1189.349,92.458z"
		/>
	<path style="fill:#67686A;" d="M772.266,92.44c6.836,0,13.584,0,20.312,0c0.165,1.588-0.621,2.515-1.12,3.526
		c-11.475,23.215-22.957,46.426-34.457,69.629c-0.81,1.634-1.809,3.172-2.648,4.793c-6.668,12.877-20.133,17.946-34.811,14.681
		c-6.481-1.442-11.482-5.046-15.47-10.187c-2.04-2.629-3.739-5.487-5.218-8.478c-11.625-23.515-23.268-47.021-34.886-70.539
		c-0.424-0.858-1.207-1.638-0.715-3.397c6.482-0.445,13.19-0.085,19.734-0.198c1.676,1.367,2.187,3.179,3,4.776
		c10.688,21.017,21.372,42.037,31.982,63.094c1.912,3.795,4.349,6.658,8.894,7.009c4.657,0.359,7.994-1.433,10.09-5.714
		c3.648-7.454,7.42-14.847,11.166-22.253c7.343-14.52,14.688-29.039,22.088-43.53C770.792,94.501,771.097,93.099,772.266,92.44z"/>
	<path style="fill:#68696B;" d="M1128.979,184.52c-6.764,0-13.009,0-19.759,0c0-24.763,0-49.311,0-74.291
		c-15.234,0-29.972,0-44.971,0c0-6.033,0-11.633,0-17.605c36.466,0,72.992,0,110.011,0c0.964,5.494-1.083,11.137,0.403,16.311
		c-0.39,0.481-0.485,0.62-0.603,0.736c-0.113,0.11-0.238,0.241-0.381,0.283c-0.316,0.092-0.646,0.187-0.97,0.187
		c-14.309,0.009-28.619,0.008-43.523,0.008c-0.397,6.212-0.15,12.301-0.194,18.374c-0.047,6.327-0.015,12.655-0.016,18.983
		c0,6.161,0.002,12.322,0.003,18.483C1128.979,172.097,1128.979,178.206,1128.979,184.52z"/>
</g>
</svg>
