<?xml version="1.0" encoding="iso-8859-1"?>
<!-- Generator: Adobe Illustrator 27.0.0, SVG Export Plug-In . SVG Version: 6.00 Build 0)  -->
<svg version="1.1" id="Layer_1" xmlns="http://www.w3.org/2000/svg" xmlns:xlink="http://www.w3.org/1999/xlink" x="0px" y="0px"
	 viewBox="0 0 1604 431" style="enable-background:new 0 0 1604 431;" xml:space="preserve">
<g>
	<path style="fill:#5C6872;" d="M233,0c2.698,1.954,5.994,1.384,8.947,1.748c17.069,2.103,33.525,6.432,49.538,12.601
		c25.927,9.988,48.918,24.606,69.21,43.568c4.675,4.368,8.971,8.738,10.617,15.274c3.182,12.639-2.579,23.976-11.594,29.434
		c-9.754,5.905-22.497,4.601-30.982-3.362c-13.068-12.265-27.332-22.747-43.503-30.601c-15.657-7.604-32.025-12.603-49.317-14.872
		c-12.951-1.699-25.924-2.147-38.814-0.623c-30.485,3.606-58.154,14.409-82.425,33.546c-31.269,24.655-50.977,56.532-59.47,95.286
		c-3.324,15.168-3.798,30.566-2.533,46.14c2.516,30.99,13.023,58.892,31.334,83.804c17.524,23.84,40.077,41.537,67.38,53.104
		c16.033,6.793,32.7,10.806,50.076,12.153c43.119,3.341,81.602-8.667,115.143-35.63c30.413-24.448,49.075-56.415,57.116-94.543
		c1.886-8.941,2.334-18.108,3.316-27.187c1.997-18.471,2.445-37.132,7.037-55.284c8.154-32.234,22.476-61.32,43.79-86.925
		c20.774-24.956,45.729-44.502,75.255-58.039c17.562-8.052,35.823-13.977,55.045-16.704c4.766-0.676,9.495-1.601,14.31-1.897
		C573.188,0.946,573.752,0.73,574,0c11.667,0,23.333,0,35,0c3.643,1.85,7.711,1.28,11.545,1.765
		c16.225,2.054,31.874,6.169,47.197,11.768c17.919,6.548,34.453,15.677,49.95,26.699c9.098,6.47,17.687,13.621,25.514,21.595
		c12.135,12.361,10.052,32.018-4.469,40.875c-8.67,5.288-17.753,4.637-26.613,0.078c-2.82-1.451-5.21-3.543-7.527-5.718
		c-22.841-21.447-49.557-35.64-80.291-41.709c-13.185-2.604-26.581-3.465-40.168-2.751c-30.7,1.615-58.629,11.055-83.753,28.487
		c-33.602,23.314-55.272,55.098-65.396,94.71c-2.43,9.508-3.448,19.216-4.286,29.017c-2.134,24.953-3.766,49.996-11.561,74.129
		c-10.392,32.173-26.877,60.586-50.342,85.011c-31.368,32.651-69.286,53.188-113.563,62.148
		c-17.701,3.582-35.657,4.774-53.618,3.713c-32.458-1.916-62.96-10.874-91.376-26.893c-18.701-10.543-35.575-23.392-50.391-38.883
		c-28.005-29.281-46.385-63.725-54.949-103.371c-1.895-8.772-3.466-17.585-3.967-26.561C0.89,233.282,0.932,232.427,0,232
		c0-12,0-24,0-36c0.999-0.354,0.916-1.219,0.994-2.037c0.895-9.419,2.466-18.726,4.606-27.941
		c7.247-31.207,20.933-59.302,40.698-84.487c18.876-24.052,42.088-42.877,69.038-57.119C137.831,12.53,161.717,4.956,187.015,1.77
		C189.978,1.397,193.278,1.897,196,0C208.333,0,220.667,0,233,0z"/>
	<path style="fill:#9E8EB3;" d="M1604,193l-0.445,0.135l-0.46-0.065c-0.033-36.822-0.06-73.644-0.103-110.466
		c-0.011-9.829-0.068-19.658-0.103-29.487c0.37-0.039,0.74-0.078,1.11-0.117C1604,99.667,1604,146.333,1604,193z"/>
	<path style="fill:#9381AA;" d="M1602.865,363.184c0.378-0.061,0.757-0.123,1.135-0.184c0,7.333,0,14.667,0,22
		c-0.34-0.007-0.681-0.014-1.021-0.021C1602.941,377.714,1602.903,370.449,1602.865,363.184z"/>
	<path style="fill:#D7D8DA;" d="M602.037,430.166C602.013,430.444,602,430.721,602,431c-3.333,0-6.667,0-10,0
		c-0.001-0.278-0.014-0.555-0.038-0.831C595.32,430.168,598.679,430.167,602.037,430.166z"/>
	<path style="fill:#5C6872;" d="M602.037,430.166c-3.358,0.001-6.717,0.002-10.075,0.002c-18.678-0.427-37.068-2.944-55.021-8.129
		c-31.269-9.032-59.23-24.165-83.522-45.929c-0.99-0.887-2.042-1.706-3.048-2.576c-8.542-7.387-11.401-16.7-8.221-27.388
		c3.182-10.694,10.65-16.763,21.886-18.329c8.241-1.149,15.15,1.529,20.965,6.899c20.574,18.997,44.377,31.942,71.533,38.643
		c16.894,4.169,33.98,5.609,51.414,3.995c11.138-1.031,22.074-2.889,32.745-5.944c15.549-4.451,30.14-11.174,43.672-20.165
		c7.927-5.267,15.285-11.202,22.322-17.573c4.033-3.651,8.624-6.083,14.114-6.822c15.048-2.025,26.398,7.704,29.133,19.823
		c2.377,10.535-1.198,19.087-8.987,26.39c-13.319,12.489-28.154,22.813-44.153,31.463c-20.732,11.21-42.7,18.889-66.044,22.61
		C621.219,428.655,611.679,429.818,602.037,430.166z"/>
	<path style="fill:#4B2C75;" d="M1366.318,52.6c11.241,34.378,22.361,68.388,33.481,102.397c0.294-0.024,0.588-0.048,0.882-0.072
		c10.899-33.849,21.798-67.697,32.748-101.705c8.585,0,17.025,0,26.032,0c-16.25,47.298-32.4,94.305-48.518,141.216
		c-7.431,0-14.392,0-21.632,0c-11.216-33.096-22.396-66.085-33.897-100.023c-11.603,33.854-22.927,66.893-34.276,100.008
		c-7.237,0-14.166,0-21.464,0c-16.085-47.001-32.138-93.908-48.319-141.187c9.129,0,17.742,0,26.841,0
		c10.747,33.76,21.542,67.673,32.338,101.586c0.306,0.038,0.611,0.076,0.917,0.115c11.273-34.057,22.547-68.114,33.874-102.335
		C1352.303,52.6,1359.081,52.6,1366.318,52.6z"/>
	<path style="fill:#4A2A75;" d="M1602.89,53.117c0.036,9.829,0.092,19.658,0.103,29.487c0.042,36.822,0.07,73.644,0.103,110.466
		c-6.8,0.794-13.612,0.129-20.799,0.397c-25.167-32.741-50.362-65.52-75.557-98.298c-0.259,0.109-0.518,0.218-0.777,0.327
		c0,32.567,0,65.134,0,97.923c-8.109,0-15.862,0-23.889,0c0-46.773,0-93.336,0-140.16c7.481,0,14.921,0,22.824,0
		c24.265,31.634,48.746,63.551,73.845,96.272c0-32.593,0-64.226,0-96.414C1587.056,53.117,1594.973,53.117,1602.89,53.117z"/>
	<path style="fill:#4C2C76;" d="M1053.567,193.656c-11.361-16.319-22.565-32.413-33.839-48.606c-10.003,0-19.968,0-30.517,0
		c0,16.082,0,32.128,0,48.352c-8.499,0-16.414,0-24.648,0c0-46.79,0-93.327,0-139.787c0.538-0.703,1.243-0.607,1.883-0.606
		c21.155,0.008,42.313-0.172,63.464,0.13c10.569,0.151,20.719,2.502,29.882,8.275c10.4,6.553,16.09,16.087,18.087,27.966
		c1.343,7.984,0.881,15.887-1.747,23.637c-3.865,11.398-11.517,19.225-22.347,24.13c-2.528,1.145-5.093,2.206-8.057,3.484
		c12.308,17.478,24.442,34.708,37.046,52.607c-5.353,0.78-10.085,0.317-14.775,0.401
		C1063.342,193.721,1058.682,193.656,1053.567,193.656z M989.378,122.045c0.873,0.123,1.509,0.29,2.144,0.29
		c11.824,0.016,23.648,0.025,35.472,0.004c3.355-0.006,6.623-0.703,9.809-1.666c15.657-4.73,19.457-19.676,14.331-31.89
		c-1.452-3.46-3.82-6.166-7.066-8.154c-5.41-3.314-11.297-4.743-17.574-4.754c-11.324-0.019-22.649-0.018-33.973,0.013
		c-1.096,0.003-2.359-0.42-3.143,0.657C989.378,91.742,989.378,106.836,989.378,122.045z"/>
	<path style="fill:#4B2B75;" d="M1244.214,123.234c0.328,37.18-27.579,72.417-73.243,72.799
		c-37.957,0.318-72.64-28.356-72.677-72.698c-0.031-37.915,27.56-72.603,73.289-72.824
		C1215.584,50.298,1244.563,84.842,1244.214,123.234z M1218.17,122.455c0.292-6.336-1.217-13.468-4.199-20.249
		c-14.052-31.959-52.674-36.889-74.374-16.292c-13.767,13.067-17.327,29.668-14.188,47.625
		c3.722,21.292,19.876,36.882,41.621,38.874c13.853,1.269,26.065-2.386,36.143-12.049
		C1213.579,150.387,1218.318,137.937,1218.17,122.455z"/>
	<path style="fill:#4A2A75;" d="M1602.865,363.184c0.038,7.265,0.076,14.53,0.115,21.795c-1.875,0.966-3.905,0.653-5.878,0.654
		c-31.331,0.019-62.661,0.021-93.992-0.008c-1.783-0.002-3.678,0.474-5.502-0.844c0-46.821,0-93.741,0-141.227
		c34.84-0.394,69.43-0.095,104.291-0.218c0,7.814,0,15.056,0,22.823c-26.337,0-52.567,0-78.977,0c0,12.424,0,24.326,0,36.578
		c23.377,0,46.483,0,69.917,0c0,7.551,0,14.757,0,22.343c-23.208,0-46.301,0-69.983,0c-0.413,12.722-0.154,25.082-0.16,37.349
		c2.045,0.974,3.902,0.546,5.693,0.548c22.998,0.034,45.996,0.018,68.994,0.031C1599.209,363.008,1601.037,363.122,1602.865,363.184
		z"/>
	<path style="fill:#4C2C76;" d="M1055.283,351.804c-22.33,0-44.11,0-66.387,0c-4.724,11.032-9.475,22.124-14.351,33.511
		c-8.376,0-16.783,0-25.893,0c20.819-47.809,41.508-95.322,62.188-142.813c7.88,0,15.337,0,23.104,0
		c20.521,47.461,41.036,94.908,61.78,142.884c-9.238,0-17.653,0-26.475,0C1064.671,374.379,1060.038,363.239,1055.283,351.804z
		 M1022.517,274.298c-0.344-0.014-0.688-0.029-1.031-0.043c-7.682,18.064-15.363,36.128-23.218,54.598c16.263,0,31.726,0,47.677,0
		C1038.052,310.472,1030.284,292.385,1022.517,274.298z"/>
	<path style="fill:#4B2C75;" d="M1107.544,365.062c5.352-6.408,10.229-12.247,15.208-18.207c3.428,2.551,6.541,5.02,9.804,7.269
		c11.304,7.791,23.788,11.617,37.574,10.94c4.376-0.215,8.582-1.171,12.469-3.179c5.174-2.674,8.692-6.758,9.352-12.708
		c0.75-6.761-1.748-11.98-7.851-15.374c-5.868-3.264-12.198-5.202-18.65-6.821c-8.855-2.223-17.746-4.307-26.225-7.805
		c-3.698-1.525-7.27-3.268-10.615-5.463c-12.026-7.889-15.999-19.615-15.053-33.208c1.623-23.329,19.125-35.739,38.795-38.208
		c21.45-2.693,41.273,2.228,58.589,15.712c0.518,0.404,0.987,0.872,1.881,1.668c-4.37,6.23-8.718,12.428-13.17,18.775
		c-4.884-2.884-9.145-6.063-13.938-8.357c-8.059-3.857-16.457-6.269-25.452-6.061c-4.861,0.112-9.465,1.269-13.807,3.65
		c-10.099,5.538-10.689,20.985-0.164,26.676c6.805,3.68,14.093,5.793,21.493,7.65c10.159,2.549,20.285,5.166,29.604,10.138
		c10.782,5.753,18.059,14.25,19.392,26.697c2.538,23.689-9.29,39.672-30.165,46.017c-14.396,4.376-28.93,3.486-43.292-0.424
		c-12.691-3.455-24.015-9.579-33.907-18.297C1108.928,365.709,1108.266,365.47,1107.544,365.062z"/>
	<path style="fill:#4B2B75;" d="M923.091,346.535c5.503,5.4,10.667,10.532,15.625,16.193c-5.338,6.235-11.469,11.246-18.355,15.389
		c-14.727,8.863-30.656,11.101-47.52,9.147c-15.419-1.787-28.724-7.901-40.031-18.413c-12.421-11.547-19.37-25.943-21.825-42.622
		c-2.21-15.018-0.499-29.525,5.948-43.318c10.919-23.358,29.432-36.781,54.711-40.796c15.453-2.455,30.473-0.428,44.837,5.948
		c7.129,3.165,15.258,9.012,21.497,15.537c-5.187,6.001-10.391,12.021-15.583,18.028c-1.81-0.117-2.597-1.546-3.703-2.445
		c-7.153-5.813-14.724-10.936-23.815-13.136c-23.216-5.62-44.561,5.278-54.301,27.252c-7.849,17.708-5.249,47.277,15.095,62.336
		c6.746,4.994,14.265,7.696,22.541,8.503c14.907,1.452,27.888-2.989,39.124-12.786C919.085,349.829,920.892,348.374,923.091,346.535
		z"/>
	<path style="fill:#4B2C75;" d="M937.125,72.298c-5.647,6.562-10.736,12.476-16.083,18.689c-2.504-2.048-4.884-4.021-7.292-5.959
		c-11.05-8.898-23.671-12.82-37.728-10.979c-15.899,2.082-27.686,10.794-34.311,25.134c-9.508,20.58-7.714,40.57,6.875,58.41
		c9.271,11.336,21.999,15.558,36.43,15.025c13.145-0.485,23.876-6.425,33.503-14.849c1.001-0.876,1.972-1.784,2.729-2.471
		c5.38,5.213,10.683,10.351,16.243,15.738c-4.784,5.283-10.088,9.966-16.099,13.893c-12.1,7.905-25.532,10.812-39.779,11.095
		c-31.806,0.632-63.62-21.152-70.3-58.667c-3.713-20.852,0.194-40.384,12.741-57.798c10.475-14.539,24.553-23.83,42.095-27.272
		c24.881-4.882,47.575-0.161,67.112,16.768C934.393,70.035,935.553,70.981,937.125,72.298z"/>
	<path style="fill:#4D2E77;" d="M1347.169,243.641c0,7.744,0,15.327,0,23.338c-14.672,0-29.255,0-44.264,0
		c0,39.659,0,78.897,0,118.409c-8.528,0-16.627,0-25.341,0c-0.554-13.071-0.166-26.158-0.238-39.233
		c-0.071-12.999-0.015-25.998-0.015-38.997c0-13.163,0-26.327,0-39.972c-14.698,0-29.273,0-44.123,0c0-8.063,0-15.649,0-23.544
		C1271.074,243.641,1308.971,243.641,1347.169,243.641z"/>
	<path style="fill:#4C2D76;" d="M1471.799,385.47c-32.873,0-65.461,0-98.396,0c0-47.279,0-94.453,0-141.878
		c8.161,0,16.23,0,24.661,0c0,39.497,0,78.745,0,118.504c6.397,0.49,12.488,0.176,18.561,0.232
		c6.162,0.057,12.325,0.013,18.487,0.013c5.996,0,11.992,0,17.988,0c6.133,0,12.266,0,18.699,0
		C1471.799,370.112,1471.799,377.528,1471.799,385.47z"/>
</g>
</svg>
