<?xml version="1.0" encoding="iso-8859-1"?>
<!-- Generator: Adobe Illustrator 27.0.0, SVG Export Plug-In . SVG Version: 6.00 Build 0)  -->
<svg version="1.1" id="Layer_1" xmlns="http://www.w3.org/2000/svg" xmlns:xlink="http://www.w3.org/1999/xlink" x="0px" y="0px"
	 viewBox="0 0 1523.635 559.156" style="enable-background:new 0 0 1523.635 559.156;" xml:space="preserve">
<g>
	<path style="fill:#517361;" d="M557,0c-0.079,0.351-0.159,0.702-0.238,1.054c-2.33-0.018-4.66-0.052-6.99-0.053
		C463.89,0.988,378.007,0.978,292.124,0.968l-0.425,0.072C291.799,0.693,291.9,0.347,292,0C380.333,0,468.667,0,557,0z"/>
	<path style="fill:#99A99E;" d="M216.92,0.888C217.051,0.601,217.077,0.305,217,0c10,0,20,0,30,0
		c-0.079,0.396-0.157,0.793-0.236,1.189c-2.482-0.147-4.963-0.415-7.445-0.42C231.853,0.754,224.386,0.841,216.92,0.888z"/>
	<path style="fill:#99A99E;" d="M0,212c0.298,0.005,0.593-0.023,0.885-0.081c0.001,9.054,0.001,18.108,0.002,27.161
		C0.595,239.014,0.299,238.988,0,239C0,230,0,221,0,212z"/>
	<path style="fill:#1E5741;" d="M292.124,0.968c85.883,0.01,171.766,0.02,257.648,0.033c2.33,0,4.66,0.034,6.99,0.053
		c-5.778,16.233-11.545,32.471-17.339,48.698c-4.127,11.559-8.282,23.108-12.453,34.651c-0.556,1.539-0.847,3.219-2.284,4.757
		c-47.543,0-95.314,0-143.003,0c-1.009,3.655-1.987,99.648-1.132,110.08c6.153,0.14,12.405,0.043,18.652,0.061
		c6.164,0.018,12.327,0.004,18.491,0.004c6.33,0,12.66,0,18.99,0c6.164,0,12.327,0,18.491,0c6.33,0,12.66,0,18.99,0
		c6.141,0,12.283,0,19.121,0c-11.068,30.011-21.939,59.489-32.929,89.287c-26.434,0-52.681,0-79.314,0c0,71.828,0,143.224,0,214.756
		c-3.552,2.264-6.887,4.404-10.236,6.523c-22.047,13.951-44.098,27.895-66.144,41.848c-3.228,2.043-6.406,4.164-9.668,6.151
		c-0.932,0.568-1.762,1.652-3.122,1.164c0.018-47.464,0.05-94.928,0.053-142.392c0.007-136.565,0.001-273.129,0.01-409.694
		C291.936,4.954,292.059,2.961,292.124,0.968z"/>
	<path style="fill:#225943;" d="M875.024,323.882c2.771-1.884,6.104-2.379,9.126-3.657c5.512-2.331,10.919-4.845,16.045-7.928
		c1.813-1.09,3.477-2.135,5.418,0.018c1.53,3.559-2.494,7.627,0.729,11.57c2.943-1.425,5.879-2.836,8.806-4.266
		c8.942-4.368,18.236-6.18,28.013-3.466c11.819,3.28,19.577,11.085,23.453,22.519c5.848,17.252,1.5,40.364-14.07,53.226
		c-12.11,10.004-26.208,13.06-41.539,11.572c-1.141-0.111-2.25-0.626-3.578-0.174c-2.006,1.21-2.415,3.287-2.418,5.52
		c-0.011,9.159-0.005,18.318,0.013,27.478c0.002,0.829,0.101,1.661,0.198,2.487c0.872,7.432,1.933,8.456,9.521,9.424
		c1.969,0.251,3.917,0.664,5.918,1.01c1.58,1.968,1.695,3.841-0.33,5.892c-16.805-0.339-33.742-0.451-50.626,0.002
		c-1.7-1.87-1.76-3.671-0.579-5.81c2.179-0.375,4.459-0.732,6.725-1.163c4.224-0.803,5.652-2.248,6.227-6.541
		c0.418-3.125,0.752-6.252,0.746-9.431c-0.051-28.976-0.176-57.954,0.073-86.928c0.063-7.288-1.069-13.47-7.848-17.403
		C875.04,326.515,875.032,325.199,875.024,323.882z M905.003,359.331c0,5.827,0,11.654,0,17.481c0,0.333-0.002,0.666,0.007,0.999
		c0.202,7.565,4.642,13.686,11.799,16.267c8.918,3.216,18.113-0.15,22.834-9.058c7.273-13.723,7.642-28.095,1.948-42.376
		c-3.952-9.912-12.038-14.725-22.578-15.35c-8.218-0.488-13.223,3.934-13.894,12.061c-0.082,0.994-0.105,1.996-0.107,2.994
		C905.002,348.01,905.007,353.67,905.003,359.331z"/>
	<path style="fill:#255A44;" d="M588.011,216.171c2.199-2.023,4.285-2.076,6.181-2.596c4.737-1.297,7.142-4.459,7.867-9.208
		c0.933-6.113,0.971-12.264,1.012-18.417c0.165-24.977,0.47-49.955,0.024-74.933c-0.045-2.496-0.227-4.952-0.862-7.404
		c-1.37-5.292-3.409-7.097-8.975-7.614c-1.615-0.15-3.364,0.321-4.979-1.057c-0.383-2.272-0.605-4.684,0.226-7.012
		c3.593-1.007,93.066-0.718,96.349,0.374c-1.126,11.902-2.259,23.883-3.371,35.636c-2.746,1.456-4.976,1.179-7.264,0.547
		c-1.816-2.486-1.409-5.458-2.044-8.146c-0.533-2.254-0.808-4.577-1.065-6.885c-0.486-4.368-2.935-6.772-7.122-7.868
		c-6.307-1.652-12.697-2.575-19.2-2.551c-4.947,0.019-10.001-0.701-14.512,1.384c-1.757,1.621-1.511,3.585-1.519,5.349
		c-0.061,13.824-0.024,27.649-0.002,41.473c0.001,0.316,0.181,0.632,0.279,0.952c1.154,0.995,2.557,0.629,3.831,0.563
		c6.465-0.334,12.951-0.449,19.339-1.69c6.62-1.287,7.999-2.64,9.15-9.199c0.371-2.115,0.668-4.242,0.985-6.278
		c2.859-1.382,2.859-1.382,6.259-0.516c0.214,0.486,0.72,1.088,0.701,1.673c-0.466,14.266-0.542,28.529,0.07,42.794
		c0.025,0.592-0.465,1.207-0.689,1.749c-2.03,1.005-3.951,0.874-6.096,0.207c-1.283-2.341-1.19-5.037-1.496-7.633
		c-0.668-5.665-2.629-7.828-8.27-8.929c-1.795-0.35-3.603-0.833-5.413-0.866c-5.974-0.109-11.952-0.041-18.068-0.041
		c-1.016,0.762-0.612,2.025-0.606,3.126c0.065,10.99,0.107,21.981,0.315,32.969c0.066,3.479,0.468,6.968,0.965,10.417
		c0.722,5.016,3.126,7.008,8.294,7.58c2.629,0.291,5.323-0.213,8.004,0.575c1.84,2.614,1.368,5.255,0.331,8.121
		c-19.307,0-38.574,0-57.931,0C587.419,220.531,588.246,218.233,588.011,216.171z"/>
	<path style="fill:#235944;" d="M703.772,264.353c1.192,11.291,1.283,22.111,3.124,32.638c-5.199,2.885-6.169,2.594-7.916-2.265
		c-2.097-5.833-4.798-11.278-9.103-15.872c-7.541-8.049-17.183-11.168-27.774-11.681c-12.129-0.586-23.458,2.351-33.423,9.451
		c-10.282,7.325-16.91,17.358-20.01,29.525c-5.492,21.555-4.45,42.685,6.601,62.358c10.442,18.587,27.058,27.66,48.253,27.149
		c16.638-0.401,28.82-9.048,37.157-23.254c1.175-2.002,2.091-4.154,3.194-6.201c1.87-3.47,2.628-3.63,7.195-1.272
		c-0.986,11.322-4.375,22.054-9.925,32.172c-18.403,6.083-36.945,8.583-56.139,6.117c-13.89-1.785-26.909-5.7-38.69-13.413
		c-15.442-10.11-24.817-24.355-28.17-42.368c-2.434-13.077-2.208-26.204,2.258-38.929c7.826-22.297,23.701-36.517,45.631-44.148
		c17.586-6.12,35.715-7.365,54.153-4.692C688.076,260.813,695.838,262.453,703.772,264.353z"/>
	<path style="fill:#235944;" d="M986.652,215.089c1.304,2.575,1.468,4.929,0.25,7.627c-15.669,0-31.391,0-47.221,0
		c-1.148-2.313-0.637-4.586-0.479-6.628c1.002-1.405,2.218-1.837,3.578-2.042c4.549-0.686,7.21-2.394,8.074-9.2
		c0.438-3.453,0.421-6.979,0.418-10.472c-0.009-10.824-0.094-21.647-0.19-32.47c-0.016-1.819-0.122-3.62-0.7-5.415
		c-1.339-4.162-2.298-5.126-6.51-5.569c-1.504-0.158-2.988-0.239-4.332-1.259c-0.913-1.645-0.529-3.462-0.388-5.211
		c2.784-2.902,15.584-9.121,27.562-13.381c2.491-0.886,5.007-1.816,7.957-0.809c1.302,4.486-0.437,9.125,0.216,13.626
		c1.712,0.524,2.539-0.775,3.586-1.44c6.038-3.836,12.169-7.487,18.952-9.886c4.412-1.56,8.927-2.796,13.645-2.119
		c9.859,1.415,16.122,8.094,17.916,18.69c0.781,4.615,1.018,9.248,1.032,13.915c0.037,12.321,0.17,24.642,0.158,36.963
		c-0.003,2.684,0.344,5.307,0.704,7.936c0.535,3.908,2.106,5.471,6.099,6.027c2.293,0.319,4.654,0.203,6.982,1.377
		c1.501,2.4,1.333,4.837-0.263,7.458c-15.608,0-31.21,0-46.849,0c-1.473-2.276-0.615-4.57-0.726-6.274
		c0.742-1.333,1.516-1.762,2.305-1.92c5.934-1.186,7.431-5.542,7.608-10.722c0.187-5.488,0.228-10.983,0.248-16.475
		c0.026-6.828-0.024-13.656-0.068-20.484c-0.007-1.163-0.091-2.333-0.235-3.487c-1.332-10.678-7.659-15.369-18.309-13.77
		c-4.459,0.67-8.778,1.632-12.587,3.826c-1.147,2.001-1.076,4.022-1.068,6.011c0.051,13.655,0.102,27.311,0.221,40.965
		c0.019,2.15,0.364,4.299,0.594,6.445c0.534,4.975,2.03,6.615,6.985,7.56C983.274,214.76,984.766,214.858,986.652,215.089z"/>
	<path style="fill:#225943;" d="M780.2,144.205c4.147-2.398,8.249-4.877,12.452-7.171c4.964-2.71,10.117-4.955,15.733-6.045
		c14.747-2.862,23.64,6.421,25.591,18.538c0.985,6.119,0.978,12.267,1.023,18.422c0.084,11.495,0.103,22.99,0.223,34.484
		c0.021,1.979,0.302,3.973,0.64,5.929c0.642,3.715,2.095,5.085,5.894,5.629c1.97,0.282,4.006,0.116,5.911,0.845
		c0.459,0.176,0.894,0.415,1.407,0.657c0.875,2.419,1.125,4.795-0.393,7.31c-15.587,0-31.211,0-46.957,0
		c-1.513-2.119-0.278-4.488-0.746-6.249c0.723-1.47,1.756-1.868,2.664-2.045c5.267-1.026,6.827-4.898,7.197-9.474
		c0.348-4.309,0.416-8.649,0.423-12.976c0.014-8.494-0.144-16.989-0.133-25.483c0.004-2.546-0.55-4.975-1.232-7.356
		c-1.927-6.735-7.247-10.492-14.248-9.969c-4.477,0.334-8.845,1.364-13.08,2.929c-2.479,0.916-3.646,2.4-3.614,5.214
		c0.173,15.158-0.159,30.33,0.388,45.472c0.31,8.593,0.211,11.261,11.201,12.082c0.314,0.023,0.615,0.207,1.154,0.398
		c1.052,2.377,1.498,4.841-0.201,7.491c-15.535,0-31.151,0-46.881,0c-1.194-2.329-0.312-4.633-0.629-6.495
		c1.385-1.869,3.021-2.063,4.673-2.414c3.579-0.76,5.787-2.924,6.567-6.624c0.414-1.964,0.768-3.894,0.794-5.908
		c0.162-12.99,0.504-25.98,0.043-38.97c-0.053-1.489-0.185-2.996-0.493-4.45c-1.183-5.595-2.112-6.407-7.853-7.105
		c-1.169-0.142-2.31-0.311-3.229-1.137c-0.649-0.88-0.489-1.905-0.483-2.891c0.006-0.983,0.094-1.966,0.172-3.423
		c9.442-4.985,19.369-9.087,29.399-12.961c1.918-0.741,3.883-0.482,6.054-0.274c1.005,4.616-0.146,9.058,0.033,13.475
		c-0.45,0.332-0.557,0.713-0.072,1.074C779.638,144.767,779.99,144.391,780.2,144.205z"/>
	<path style="fill:#255A44;" d="M1523.564,446.346c0,2.838,0,5.431,0,8.346c-194.932,0-389.81,0-584.957,0
		c-0.244-2.828-0.598-5.574,0.346-8.346C1133.824,446.346,1328.577,446.346,1523.564,446.346z"/>
	<path style="fill:#235944;" d="M1465.285,395.503c0.98,1.896,0.934,3.463-0.053,5.609c-15.176-0.211-30.555-0.416-45.744,0.12
		c-1.813-2.038-1.686-3.836-0.521-5.817c2.143-0.431,4.233-0.931,6.351-1.259c3.468-0.537,5.306-2.645,5.684-5.97
		c0.337-2.965,0.843-5.907,0.823-8.928c-0.081-12.324-0.03-24.648-0.039-36.972c-0.001-1.329-0.037-2.661-0.13-3.987
		c-0.275-3.904-1.899-6.874-5.456-8.906c-3.136-1.792-3.018-1.998-1.757-6.362c9.662-2.382,18.518-7.35,27.924-10.954
		c0.239-0.091,0.617,0.182,1.147,0.357c1.663,3.91-0.612,8.392,1.065,12.376c2.302,0.614,3.617-0.946,5.146-1.792
		c3.484-1.93,6.871-4.023,10.561-5.575c6.487-2.729,13.292-3.303,20.076-2.193c8.754,1.433,14.645,6.744,17.545,15.152
		c1.359,3.94,2.024,8.032,2.008,12.238c-0.044,11.658-0.021,23.316-0.01,34.974c0.002,2.33,0.001,4.664,0.116,6.99
		c0.356,7.147,1.914,8.904,8.966,10.191c1.132,0.207,2.29,0.278,3.341,0.4c1.622,1.858,1.791,3.652,0.188,5.958
		c-14.993-0.203-30.272-0.565-45.477,0.145c-2.277-1.78-2.011-3.699-0.582-5.863c1.489-0.363,3.101-0.706,4.684-1.152
		c4.107-1.158,5.558-2.675,5.838-6.965c0.304-4.646,0.281-9.316,0.303-13.976c0.041-8.993,0.037-17.986-0.006-26.979
		c-0.01-2.158,0.014-4.37-0.423-6.464c-1.836-8.784-8.322-12.99-18.295-12.054c-8.676,0.814-14.473,6.846-14.528,15.404
		c-0.086,13.156-0.023,26.313-0.018,39.47c0,0.665,0.002,1.338,0.094,1.994c1.079,7.681,1.812,9.107,9.536,10.317
		C1464.124,395.106,1464.589,395.299,1465.285,395.503z"/>
	<path style="fill:#235944;" d="M937.1,204.514c0.943,2.583,0.451,4.597,0.61,6.562c0.197,2.441-0.869,4.192-2.961,5.322
		c-6.862,3.705-13.716,7.397-21.516,8.881c-7.191,1.368-10.815-0.21-14.405-6.562c-0.318-0.563-0.744-1.064-1.178-1.677
		c-5.813,3.127-11.578,6.051-17.972,7.331c-3.882,0.777-7.762,1.512-11.802,0.918c-8.49-1.25-13.421-5.859-14.706-14.447
		c-0.71-4.749-1.003-9.49-0.307-14.376c0.946-6.639,4.224-10.96,10.357-13.377c9.017-3.553,18.43-5.49,27.952-7.007
		c2.128-0.339,4.255-0.676,6.633-1.054c0.423-6.869,0.435-13.656-0.95-20.357c-0.894-4.325-3.608-6.474-8.103-6.708
		c-2.321-0.121-4.684-0.155-6.979,0.146c-2.094,0.275-4.336,0.69-5.334,3.04c-0.062,0.342-0.221,0.685-0.163,0.986
		c1.317,6.881,0.659,8.022-6.123,9.895c-2.713,0.749-5.477,1.349-8.253,1.813c-1.451,0.242-2.975,0.043-4.483,0.043
		c-2.353-1.553-2.544-3.574-1.746-6.091c0.871-2.747,2.204-5.219,3.936-7.446c7.262-9.335,16.367-16.111,28.027-18.738
		c7.602-1.713,15.188-1.302,22.322,2.432c5.74,3.004,8.867,7.824,10.006,14.073c1.083,5.94,1.045,11.962,0.647,17.918
		c-0.801,11.971-0.776,23.943-0.615,35.917c0.07,5.178,2.326,6.709,7.471,5.783C930.706,207.15,933.644,205.585,937.1,204.514z
		 M896.279,184.423c-3.779-1.303-7.163-0.223-10.442,0.797c-10.233,3.185-12.968,8.526-9.903,18.872
		c1.085,3.662,3.292,5.65,7.113,5.866c5.036,0.284,9.784-0.833,14.082-3.439c0.526-3.851,0.009-7.493,0.508-11.133
		C898.125,191.83,898.27,188.116,896.279,184.423z"/>
	<path style="fill:#225943;" d="M1224.78,216.946c-7.939,4.342-15.792,7.831-24.665,8.176c-1.659,0.065-3.328,0.036-4.985-0.07
		c-6.439-0.41-10.861-3.689-13.273-9.626c-2.86-7.04-2.556-14.328-1.262-21.593c0.956-5.368,4.481-8.755,9.413-10.755
		c7.101-2.88,14.485-4.749,22.025-6.029c4.226-0.717,8.457-1.404,13.071-2.168c-0.183-6.762,0.525-13.372-1.011-19.925
		c-1.138-4.854-3.246-6.697-8.214-7.058c-5.759-0.419-7.736-0.082-11.528,1.978c-1.248,1.844-0.361,3.865-0.325,5.805
		c0.041,2.211-0.576,4.075-2.707,4.861c-5.443,2.007-10.977,3.688-16.597,3.391c-2.299-1.773-2.573-3.59-1.888-5.974
		c0.944-3.285,2.589-6.16,4.707-8.695c8.981-10.75,19.941-17.982,34.417-18.602c5.202-0.223,10.226,0.637,14.905,3.013
		c7.713,3.916,10.481,10.866,10.914,18.879c0.404,7.466-0.023,14.952-0.346,22.433c-0.388,8.973-0.471,17.971-0.3,26.951
		c0.097,5.11,2.529,6.65,7.66,5.62c3.227-0.648,6.28-1.867,9.46-3.573c1.14,3.111,0.589,5.922,0.554,8.657
		c-0.021,1.616-1.244,2.694-2.59,3.445c-7.104,3.965-14.232,7.856-22.459,9.07c-7.003,1.033-10.302-0.535-13.874-6.765
		C1225.642,217.978,1225.301,217.625,1224.78,216.946z M1223.037,184.131c-3.232-0.709-6.301-0.116-9.351,0.821
		c-10.811,3.321-13.306,7.617-10.734,18.529c0.976,4.143,3.384,6.296,7.679,6.489c5.068,0.228,9.771-1.066,14.091-3.723
		c0-6.545,0.039-12.855-0.042-19.163C1224.668,186.141,1224.188,185.156,1223.037,184.131z"/>
	<path style="fill:#225943;" d="M1066.129,359.428c-0.336,16.043-6.095,29.802-20.943,38.32c-10.1,5.795-21.241,7.247-32.789,5.772
		c-7.573-0.968-14.532-3.539-20.624-8.077c-12.426-9.258-16.88-22.213-16.268-37.157c0.337-8.224,2.602-15.987,7.176-22.997
		c7.806-11.963,19.169-18.163,32.975-19.998c9.938-1.321,19.687,0.237,28.524,5.043
		C1059.361,328.59,1066.041,341.935,1066.129,359.428z M1041.099,361.481c0.348-3.876-0.253-8.665-1.172-13.393
		c-1.34-6.899-3.494-13.522-8.326-18.877c-7.29-8.08-18.46-7.347-24.745,1.551c-1.737,2.459-3.019,5.155-3.856,8.037
		c-3.024,10.408-2.967,20.965-1.387,31.575c0.941,6.319,3.011,12.225,6.776,17.453c7.326,10.171,23.169,10.698,28.848-3.011
		C1040.233,377.581,1041.17,370.14,1041.099,361.481z"/>
	<path style="fill:#225943;" d="M1373.99,314.785c17.361,0.452,31.418,6.986,39.603,22.937c8.852,17.249,6.268,46.414-15.254,59.143
		c-9.993,5.91-20.948,7.866-32.595,6.532c-8.143-0.932-15.528-3.538-22.063-8.342c-8.099-5.954-13.11-14.038-15.019-23.893
		c-2.383-12.303-1.094-24.119,5.448-35.063C1341.735,323.341,1356.845,314.391,1373.99,314.785z M1352.721,357.253
		c0.057,4.983,0.109,9.974,1.28,14.859c1.56,6.506,3.612,12.814,8.458,17.728c7.153,7.253,19.933,7.948,25.929-3.527
		c1.157-2.214,2.118-4.487,2.745-6.907c2.931-11.317,2.776-22.665,0.292-34.018c-1.475-6.744-3.954-13.007-9.157-17.859
		c-6.2-5.782-15.596-5.49-21.41,0.686c-2.907,3.089-4.709,6.798-5.907,10.817C1353.182,344.974,1352.619,351.074,1352.721,357.253z"
		/>
	<path style="fill:#235944;" d="M761.216,314.927c13.756,0.467,26.543,5.12,35.507,17.308c7.228,9.828,9.221,21.05,7.675,33.097
		c-1.155,8.999-4.324,17.051-10.243,23.888c-6.086,7.029-13.995,11.014-22.996,13.052c-11.523,2.609-22.703,2.058-33.567-2.961
		c-11.465-5.296-18.832-14.025-21.827-26.21c-4.085-16.619-1.01-31.743,10.915-44.375
		C735.709,319.16,747.246,315.061,761.216,314.927z M779.923,362.4c0.278-4.025-0.419-7.988-0.995-11.912
		c-1.066-7.266-3.246-14.145-7.668-20.241c-5.959-8.216-19.33-8.951-25.204-0.286c-2.381,3.511-4.056,7.224-5.04,11.256
		c-2.315,9.485-2.582,19.088-0.873,28.683c1.259,7.065,3.407,13.79,8.219,19.447c6.617,7.779,21.051,9.147,26.806-3.273
		c0.693-1.496,1.368-3.011,1.91-4.566C779.232,375.321,779.652,368.867,779.923,362.4z"/>
	<path style="fill:#215842;" d="M1266.166,89.259c-0.602-1.686-0.582-3.608,0.269-6.155c11.606-4.228,23.166-9.465,35.566-11.323
		c1.438,1.861,1.523,3.352,1.447,4.839c-1.423,27.795-1.454,55.61-1.301,83.43c0.066,11.996-0.011,23.992,0.089,35.987
		c0.033,3.991,0.327,7.986,0.66,11.966c0.341,4.076,1.777,5.391,5.755,6.261c3.102,0.678,6.291,0.301,9.367,0.745
		c1.23,2.628,1.239,4.981,0.06,7.667c-17.254,0-34.5,0-51.868,0c-1.682-1.999-1.213-4.259-0.831-6.36
		c1.253-1.667,2.995-1.814,4.583-2.125c4.264-0.838,6.61-3.408,7.569-7.576c0.381-1.655,0.468-3.289,0.501-4.946
		c0.598-29.982,1.065-59.966,0.681-89.955c-0.053-4.16-0.335-8.321-0.63-12.473c-0.361-5.093-1.716-6.659-6.63-7.977
		C1269.717,90.799,1267.764,90.967,1266.166,89.259z"/>
	<path style="fill:#255A44;" d="M1136.874,344.697c-2.532-1.811-2.072-4.162-1.07-6.627c1.609-3.956,4.291-7.182,7.482-9.84
		c9.85-8.206,21.088-13.054,34.09-13.233c2.502-0.034,4.938,0.357,7.401,0.881c10.182,2.166,16.224,8.919,17.091,20.398
		c0.552,7.31-0.511,14.607-0.703,21.911c-0.204,7.784-0.993,15.565-0.379,23.363c0.039,0.498,0.094,0.995,0.167,1.489
		c1.186,8.057,6.824,11.295,14.397,8.265c0.763-0.305,1.508-0.654,2.322-1.008c1.529,0.658,2.057,1.961,2.235,3.962
		c-4.692,6.314-11.794,8.547-19.257,9.508c-7.939,1.022-14.674-1.947-19.505-7.954c-3.464-0.183-5.431,1.853-7.683,3.127
		c-5.602,3.169-11.501,5.13-18.005,4.962c-13.638-0.353-22.482-10.937-20.314-24.414c0.694-4.312,3.112-7.629,6.541-10.255
		c3.742-2.866,8.066-4.562,12.435-6.146c6.699-2.429,13.437-4.753,20.123-7.217c5.485-2.021,6.032-2.848,6.032-8.774
		c0-3.648,0.149-7.335-0.305-10.937c-1.054-8.361-6.322-12.348-14.488-11.359c-4.254,0.515-7.094,2.951-8.289,6.899
		c-1.049,3.464-0.991,7.402-4.547,9.576c-4.503,2.753-9.409,4.109-14.73,3.688C1137.59,344.936,1137.275,344.802,1136.874,344.697z
		 M1179.398,363.806c-6.055,0.148-13.34,2.553-16.807,5.126c-4.574,3.395-5.423,8.115-4.747,13.319
		c0.586,4.51,3.183,7.553,7.395,9.172c5.337,2.051,11.411,0.082,12.853-4.857C1180.231,379.244,1179.249,371.641,1179.398,363.806z"
		/>
	<path style="fill:#225943;" d="M1114.564,198.014c0.43,0.472,0.766,0.677,0.847,0.956c0.88,3.012,1.719,6.036,2.661,9.383
		c-7.876,9.158-17.625,14.94-29.648,16.617c-4.614,0.643-9.311,0.612-13.887-0.458c-10.112-2.365-17.119-8.591-21.215-17.977
		c-8.475-19.419-4.425-48.623,12.743-64.027c11.687-10.486,25.249-14.143,40.64-10.449c0.482,0.116,0.961,0.265,1.422,0.448
		c7.331,2.917,10.113,6.422,10.419,11.427c0.319,5.212-5.425,11.783-11.434,13.682c-2.655-0.742-4.364-2.889-6.329-4.631
		c-4.479-3.971-9.674-5.571-15.606-5.301c-4.666,0.212-7.705,2.328-9.54,6.664c-1.188,2.806-1.829,5.7-2.196,8.637
		c-1.383,11.074-0.362,21.864,4.264,32.163c5.009,11.152,14.728,11.865,22.308,10.438c4.161-0.783,7.828-2.652,11.09-5.364
		C1112.091,199.399,1112.853,198.177,1114.564,198.014z"/>
	<path style="fill:#1E5741;" d="M460.538,454.911c-0.352-2.68-0.302-5.104-0.044-7.822c130.404,0,260.583,0,390.968,0
		c0.353,2.68,0.302,5.103,0.044,7.822C721.103,454.911,590.923,454.911,460.538,454.911z"/>
	<path style="fill:#255A44;" d="M875.024,323.882c0.008,1.317,0.015,2.633,0.023,3.95c-1.076,0.193-1.042,1.138-1.259,1.892
		c-1.761,6.124-10.307,10.444-17.162,6.002c-1.813-1.175-3.704-2.196-5.765-2.928c-5.527-1.964-8.109-0.669-9.405,5.078
		c-0.434,1.926-0.524,3.96-0.531,5.946c-0.045,12.83-0.023,25.661-0.023,38.491c0,0.333-0.003,0.667,0.006,1
		c0.238,8.884,1.806,10.555,10.686,11.579c1.8,0.208,3.675-0.167,5.454,0.651c1.443,1.554,1.058,3.313,0.482,5.467
		c-8.495,0-17.03-0.009-25.565,0.003c-8.417,0.011-16.834-0.196-24.897,0.648c-1.554-2.283-1.461-3.989-0.623-5.698
		c1.519-1.451,3.526-0.968,5.25-1.468c4.43-1.285,5.79-2.602,6.303-7.159c0.223-1.981,0.274-3.99,0.277-5.986
		c0.023-13.497-0.106-26.995,0.072-40.49c0.067-5.086-1.127-9.161-5.921-11.624c-2.676-1.375-2.886-3.384-1.233-5.913
		c9.095-3.263,18.217-6.742,26.491-11.489c2.533,0.843,3.149,2.273,2.851,4.393c-0.276,1.969-0.333,3.97-0.455,5.958
		c-0.086,1.404,0.198,2.644,1.962,3.357c2.916-1.252,5.242-3.699,8.001-5.473c3.913-2.517,7.741-5.113,12.729-5.115
		c5.43-0.002,9.3,2.11,11.189,7.343C874.197,322.939,874.394,323.536,875.024,323.882z"/>
	<path style="fill:#225943;" d="M1226.679,327.8c-3.552-1.586-7.166-0.216-10.455-1.027c-1.56-1.362-1.704-2.883-0.737-5.04
		c5.298-2.589,11.162-4.924,16.268-8.71c5.021-3.723,9.312-8.03,12.251-13.4c2.143-1.087,3.983-1.079,5.785,0.572
		c0.749,5.309-0.505,10.845,0.859,16.733c8.291,0,16.378,0,24.167,0c2.964,3.691,1.814,6.656-0.094,9.704
		c-2.595,0.718-5.268,0.304-7.905,0.354c-3.831,0.072-7.666-0.027-11.498,0.03c-4.624,0.069-5.217,0.68-5.314,5.152
		c-0.018,0.833-0.003,1.666-0.003,2.5c0,11.831,0.014,23.663-0.008,35.494c-0.007,3.853,0.698,7.572,1.649,11.294
		c2.618,10.244,12.915,11.922,20.265,8.547c1.336-0.614,2.333-1.929,3.939-1.941c2.76,2.66,2.891,3.558,0.654,6.004
		c-3.461,3.783-7.854,6.158-12.635,7.729c-6.92,2.274-14.002,2.705-21.155,1.111c-8.274-1.844-13.6-8.159-14.595-17.448
		c-0.266-2.478-0.307-4.988-0.312-7.484c-0.028-14.164-0.027-28.329-0.001-42.493C1227.81,332.973,1227.68,330.509,1226.679,327.8z"
		/>
	<path style="fill:#225943;" d="M1118.067,395.17c2.04,2.18,1.694,4.092,0.004,6.387c-16.194-0.666-32.612-0.936-49.136-0.047
		c-2.246-2.268-2.259-2.271-0.899-5.977c1.955-0.432,4.025-0.922,6.11-1.342c3.042-0.612,4.568-2.616,4.911-5.526
		c0.408-3.463,0.858-6.946,0.889-10.423c0.105-11.993,0.016-23.988,0.041-35.981c0.013-6.195-1.135-11.704-7.623-13.684
		c-0.821-1.964-0.558-3.411-0.18-5.147c9.331-3.231,18.528-6.903,26.943-11.492c3.058,0.875,2.761,2.939,2.737,4.973
		c-0.034,2.909-0.85,5.916,0.884,9.05c2.317-0.837,3.923-2.498,5.741-3.801c3.785-2.715,7.548-5.487,12.136-6.733
		c6.131-1.665,12.225,0.912,14.332,5.997c1.731,4.178,0.53,9.702-2.803,12.883c-3.582,3.42-8.923,4.237-13.34,1.851
		c-2.483-1.341-4.85-2.896-7.58-3.722c-4.754-1.438-7.224,0.013-8.323,4.924c-0.546,2.439-0.918,4.901-0.914,7.417
		c0.018,12.161-0.04,24.322,0.048,36.482c0.018,2.476,0.473,4.96,0.858,7.42c0.49,3.133,2.225,4.972,5.518,5.507
		C1111.698,394.719,1114.986,395.082,1118.067,395.17z"/>
	<path style="fill:#255A44;" d="M1174.424,223.259c-16.747-0.458-33.344-0.5-49.777-0.04c-1.934-2.849-1.435-5.421-1.062-7.63
		c1.239-1.82,2.916-1.607,4.321-1.918c4.799-1.065,7.26-4.061,8.315-8.787c1.253-5.614,0.865-11.283,0.988-16.916
		c0.212-9.657,0.106-19.327-0.13-28.984c-0.19-7.761-1.619-9.259-9.248-11.173c-0.474-0.119-0.907-0.398-1.322-0.586
		c-1.553-3.475-1.553-3.475-0.292-8.148c11.476-3.286,22.459-9.407,35.147-10.461c1.302,4.085,0.702,7.591,0.284,10.954
		c-0.804,6.472-0.835,12.962-0.884,19.439c-0.109,14.494,0.074,28.99,0.156,43.485c0.008,1.497,0.058,3.003,0.222,4.49
		c0.503,4.559,1.941,6.059,6.471,6.849c0.653,0.114,1.325,0.115,1.988,0.164C1176.238,214.494,1177.264,216.217,1174.424,223.259z"
		/>
	<path style="fill:#215842;" d="M740.875,215.749c0.023,2.358,0.741,4.696-1.304,7.382c-16.318-0.122-33.052-0.419-49.686,0.108
		c-1.643-2.921-1.158-5.501-0.766-7.863c1.521-1.791,3.57-1.427,5.268-1.933c3.553-1.057,5.716-3.247,6.648-6.725
		c0.429-1.599,0.831-3.236,0.964-4.879c1.096-13.613,0.771-27.257,0.785-40.892c0.001-0.66-0.171-1.32-0.179-1.981
		c-0.082-6.592-2.98-10.69-9.898-11.316c-0.452-0.041-0.868-0.469-1.405-0.777c-0.899-2.193-0.527-4.481-0.182-6.727
		c6.504-4.382,30.569-11.612,35.653-10.736c0.718,0.984,0.893,2.012,0.759,3.271c-2.404,22.559-1.419,45.192-1.377,67.803
		c0.004,2.315,0.3,4.638,0.576,6.943c0.549,4.588,1.981,5.965,6.578,6.549C735.731,214.283,738.36,213.57,740.875,215.749z"/>
	<path style="fill:#225943;" d="M1282.202,323.265c9.565-2.894,18.999-6.834,27.667-11.426c2.291,0.813,2.73,1.994,2.641,3.719
		c-1.167,22.471-0.472,44.958-0.504,67.44c-0.001,0.998-0.06,2.02,0.124,2.989c0.973,5.137,1.191,7.474,7.818,8.655
		c1.139,0.203,2.273,0.428,3.518,0.664c1.396,1.689,1.699,3.472,0.066,5.874c-15.071-0.337-30.462-0.357-45.661,0.016
		c-1.214-2.02-1.003-3.604-0.476-5.218c1.619-1.531,3.802-1.092,5.671-1.662c4.18-1.276,5.521-2.486,5.966-6.837
		c0.388-3.798,0.692-7.621,0.727-11.435c0.096-10.663,0.02-21.328,0.045-31.992c0.005-2.169-0.323-4.307-0.449-6.453
		c-0.218-3.717-1.907-6.298-5.112-7.967C1281.621,328.267,1280.462,326.441,1282.202,323.265z"/>
	<path style="fill:#285B46;" d="M1198.832,543.829c-2.466,2.674-4.854,5.423-7.416,8.001c-3.207,3.227-6.956,5.715-11.401,6.851
		c-6.823,1.742-11.065-1.748-10.966-8.788c0.047-3.39,1.008-6.6,2.254-9.648c4.466-10.93,12.042-19.044,22.881-23.839
		c4.317-1.91,8.877-3.039,13.673,0.642c3-9.09,7.111-17.669,8.498-26.282c-0.965-2.566-3.317-2.557-3.731-5.048
		c5.242-2.714,11.057-2.854,17.178-3.632c-0.259,3.467-1.542,5.97-2.481,8.543c-6.59,18.054-12.807,36.234-18.598,54.561
		c-0.597,1.889-1.071,3.717-1.187,6.096c5.307-0.812,7.88-5.107,11.477-7.426c1.681,1.114,1.171,2.204,0.448,3.156
		c-3.999,5.276-8.894,9.389-15.27,11.524c-0.468,0.157-0.958,0.265-1.447,0.339c-4.773,0.727-6.711-1.176-5.666-5.853
		c0.649-2.904,1.71-5.715,2.587-8.567c0.23-0.373,0.587-0.828,0.117-1.156C1199.316,542.975,1198.998,543.369,1198.832,543.829z
		 M1179.466,553.794c0.836,0.277,1.626,0.136,2.374-0.281c11.183-6.228,18.907-15.401,23.01-27.503
		c0.762-2.248,1.095-4.856-0.871-7.374c-6.757,0.75-9.854,6.224-13.52,10.646C1182.328,539.094,1178.391,548.299,1179.466,553.794z"
		/>
	<path style="fill:#295C47;" d="M952.246,533.422c-0.117-2.164-0.231-4.279-0.364-6.749c-5.502-3.451-11.575-0.985-17.819-1.908
		c-2.681,9.391-6.729,18.09-7.4,27.163c2.355,3.352,6.109,1.1,8.097,3.547c0.145,1.748-0.794,2.402-2.362,2.403
		c-9.3,0.006-18.601,0.003-27.653,0.003c-1.244-1.466-1.059-2.436,0.232-3.12c0.571-0.302,1.265-0.541,1.899-0.53
		c4.716,0.075,6.767-3.009,8.055-6.852c1.897-5.661,3.685-11.36,5.463-17.061c3.258-10.444,6.575-20.871,9.671-31.363
		c1.751-5.932,1.577-5.992-4.355-8.037c-1.034-0.356-1.818-0.828-1.439-2.841c7.991-0.808,16.191,0.134,24.349-0.052
		c8.114-0.185,16.236-0.04,24.778-0.04c-1.435,4.81-2.741,9.222-4.07,13.626c-0.432,1.431-1.238,2.335-2.922,1.815
		c-1.224-1.289-0.496-2.865-0.609-4.299c-0.31-3.929-1.351-5.22-5.177-6.232c-5.084-1.345-10.244-0.835-15.989-0.779
		c-3.785,8.641-5.758,17.96-9.032,27.556c6.14,0.475,11.54,0.675,16.903-0.674c2.722-0.685,3.808-3.053,5.023-5.227
		c0.898-1.607,1.665-3.351,3.974-2.453c0.867,1.134,0.09,1.965-0.201,2.878c-1.761,5.533-3.558,11.056-5.191,16.626
		C955.537,532.771,954.981,534.269,952.246,533.422z"/>
	<path style="fill:#295C47;" d="M1432.54,493.129c-1.701-2.119-3.857-1.663-5.125-2.54c-0.608-0.836-0.543-1.47-0.179-2.439
		c7.425,0,14.981,0,22.415,0c0.647,0.693,0.473,1.338,0.346,1.978c-0.22,0.239-0.419,0.657-0.666,0.687
		c-6.207,0.759-10.635,4.315-14.448,8.961c-6.437,7.842-12.966,15.61-19.418,23.44c-2.124,2.578-3.82,5.437-4.857,8.633
		c-1.738,5.355-3.545,10.693-5.095,16.103c-1.203,4.2-0.281,5.468,3.911,6.109c1.462,0.224,3.029,0.058,4.119,1.481
		c0.273,2.076-0.908,2.403-2.676,2.394c-9.466-0.049-18.932-0.023-28.65-0.023c-0.471-1.467-0.691-2.602,1.042-3.215
		c0.469-0.166,0.964-0.445,1.428-0.412c6.017,0.434,7.975-3.608,9.367-8.36c0.745-2.544,1.555-5.074,2.456-7.567
		c2.036-5.636,2.216-11.27,0.823-17.127c-1.533-6.443-2.522-13.014-3.902-19.497c-1.809-8.5-1.874-8.487-9.134-11.603
		c-0.381-1.506,0.37-2.34,1.758-2.289c8.15,0.302,16.296,0.113,24.443-0.003c0.415-0.006,0.836,0.439,1.454,0.786
		c-1.15,4.01-5.58,1.974-8.168,4.914c0.78,9.409,3.513,19.126,5.441,29.949C1417.292,512.882,1425.792,503.558,1432.54,493.129z"/>
	<path style="fill:#295C47;" d="M1076.672,541.672c-4.658,4.499-8.766,9.57-14.102,13.367c-1.773,1.262-3.582,2.406-5.582,3.252
		c-2.266,0.958-4.515,1.279-6.564-0.454c-2.05-1.734-2.259-4.001-1.425-6.358c1.438-4.059,2.978-8.083,4.517-12.105
		c1.659-4.338,3.354-8.662,5.058-12.982c0.424-1.075,0.9-2.119,0.265-3.74c-4.342,0.487-6.506,4.612-9.923,6.353
		c-0.99-0.479-1.667-1.162-1.073-1.975c4.651-6.37,10.395-11.25,18.547-12.193c4.336-0.501,6.159,1.971,4.575,6.175
		c-3.038,8.065-6.378,16.015-9.478,24.057c-0.681,1.766-2.099,3.47-1.172,5.849c2.202,0.049,3.56-1.447,5.023-2.672
		c7.128-5.971,12.309-13.471,16.766-21.52c2.091-3.776,4.076-7.61,6.189-11.568c2.865-0.745,5.729-0.886,8.516,1.406
		c-4.026,11.483-9.185,22.54-13.078,34.708c5.717-0.441,7.899-5.37,11.759-7.256c1.644,0.754,1.692,1.759,0.806,2.88
		c-4.553,5.766-10.221,9.969-17.375,11.886c-1.705,0.457-3.709,0.759-5.138-0.901c-1.453-1.689-0.605-3.388,0.065-5.126
		c1.313-3.404,2.512-6.851,3.758-10.281c0.304-0.506,0.648-1.061-0.026-1.475C1077.463,540.924,1076.984,541.433,1076.672,541.672z"
		/>
	<path style="fill:#295C47;" d="M1502.402,542.173c-3.553,3.498-7.031,7.077-10.684,10.468c-2.685,2.492-5.652,4.68-9.181,5.875
		c-5.012,1.697-8.301-1.038-7.513-6.285c0.243-1.619,0.794-3.219,1.391-4.754c2.403-6.175,4.934-12.3,7.295-18.49
		c0.693-1.815,1.802-3.565,1.532-6.007c-4.854-0.336-6.634,4.923-10.453,6.068c-1.35-1.185-1.035-2.215-0.184-3.193
		c3.984-4.578,8.531-8.445,14.339-10.473c4.452-1.555,6.479-0.826,9.061,3.007c-3.382,10.735-8.611,21.071-12.302,32.294
		c2.724,0.639,3.93-0.969,5.246-2.002c6.784-5.323,11.665-12.245,15.978-19.579c2.606-4.432,4.923-9.035,7.417-13.648
		c4.488-1.228,5.173-1.12,8.519,1.493c-4.289,11.177-8.597,22.406-13.126,34.21c5.854-0.252,8.054-5.139,11.762-7.163
		c1.397,0.565,1.761,1.349,1.172,2.463c-3.404,6.429-14.359,12.673-21.587,12.299c-1.875-1.31-2.385-2.903-1.465-5.154
		c1.377-3.37,2.497-6.846,3.727-10.277c0.688-0.7,1.134-1.435,0.359-2.348C1502.97,541.071,1502.707,541.644,1502.402,542.173z"/>
	<path style="fill:#2A5C47;" d="M1318.57,530.864c2.813-3.054,5.577-6.156,8.456-9.148c2.317-2.407,4.985-4.366,8.023-5.831
		c1.856-0.895,3.795-1.253,5.791-1.191c4.17,0.129,6.475,2.696,5.938,6.849c-0.381,2.948-1.176,5.831-2.347,8.611
		c-2.879,6.836-5.658,13.713-8.755,21.249c5.115-0.768,7.529-4.643,10.813-6.749c1.669,0.705,1.779,1.665,0.92,2.848
		c-4.263,5.877-9.817,9.939-16.991,11.336c-5.159,1.005-7.36-1.609-5.469-6.492c3.172-8.19,6.667-16.255,9.935-24.409
		c0.969-2.418,2.22-4.905,0.688-7.754c-3.738,0.639-6.095,3.294-8.415,5.83c-6.337,6.925-10.897,15.03-15.106,23.349
		c-1.563,3.089-3.139,6.172-4.6,9.045c-2.749,0.841-4.975,1.037-7.095-0.511c-1.048-1.81-0.289-3.467,0.355-5.205
		c3.107-8.393,6.206-16.789,9.166-25.234c0.562-1.604,1.858-3.223,0.851-5.34c-4.258-0.146-6.373,4.37-10.341,5.026
		c0.623-7.078,12.071-13.729,19.964-11.886c1.838,1.678,1.188,3.616,0.518,5.507c-1.051,2.966-2.175,5.906-3.268,8.857
		c-0.683,0.596-0.773,1.396-0.767,2.229c-0.789,0.527-1.026,1.177-0.358,2.195c0.392-0.589,0.727-1.091,1.061-1.593
		C1317.879,531.922,1318.224,531.393,1318.57,530.864z"/>
	<path style="fill:#285B46;" d="M1292.838,528.939c0.057,12.689-9.493,25.953-20.833,29.322c-2.961,0.88-5.93,0.968-8.879,0.566
		c-5.527-0.754-9.583-5.219-10.108-10.746c-1.159-12.222,7.657-27.175,18.916-31.974c3.923-1.672,8.044-1.899,12.176-1.009
		c4.64,0.999,8.032,5.096,8.706,10.359C1292.963,526.599,1292.838,527.777,1292.838,528.939z M1281.623,519.214
		c-4.052-0.489-5.888,0.152-8.408,3.65c-4.288,5.951-7.389,12.494-9.36,19.593c-0.722,2.601-1.027,5.185-1.004,7.85
		c0.016,1.924,0.502,3.592,2.235,4.587c2.886,0.747,4.967-0.552,6.608-2.568c6.441-7.912,9.95-17.088,11.298-27.12
		C1283.273,523.11,1283.47,520.862,1281.623,519.214z"/>
	<path style="fill:#285B46;" d="M976.599,559.014c-8.856-0.036-14.038-4.909-13.738-13.246c0.444-12.339,6.292-21.78,16.609-28.421
		c3.27-2.105,6.988-2.69,10.912-2.663c7.201,0.05,11.595,4.02,12.412,11.604c1.292,11.986-7.772,27.91-20.25,31.774
		C980.443,558.713,978.361,559.069,976.599,559.014z M974.851,554.86c4.219,1.116,6.411-1.906,8.413-4.681
		c5.119-7.099,8.057-15.186,9.583-23.737c0.441-2.472,0.904-5.338-1.507-7.436c-2.991-0.911-5.313,0.365-7.035,2.52
		c-6.433,8.056-10.7,17.081-11.537,27.494C972.596,551.166,972.604,553.396,974.851,554.86z"/>
	<path style="fill:#285B46;" d="M1466.844,529.048c-1.063,11.952-6.271,21.459-16.861,27.58c-3.691,2.133-7.785,2.738-12.03,2.311
		c-6.059-0.609-10.361-4.895-10.974-10.969c-1.241-12.313,7.974-27.445,19.504-32.025c3.812-1.514,7.753-1.724,11.699-0.828
		c4.665,1.059,7.885,5.036,8.639,10.45C1466.979,526.705,1466.844,527.886,1466.844,529.048z M1455.753,519.204
		c-4.367-0.471-5.867,0.102-8.578,3.698c-4.854,6.438-8.163,13.678-9.889,21.506c-0.749,3.396-1.73,7.242,1.28,10.336
		c3.574,1.12,5.779-0.796,7.695-3.241c5.749-7.337,8.977-15.793,10.63-24.86C1457.325,524.265,1457.661,521.657,1455.753,519.204z"
		/>
	<path style="fill:#2A5C47;" d="M1143.338,539.943c-0.743,3.062-0.797,5.734-0.506,8.374c0.327,2.964,1.686,3.959,4.723,3.887
		c3.341-0.079,5.962-1.814,8.562-3.651c1.293-0.914,2.122-2.683,4.102-2.402c1.196,1.049,0.827,2.047,0.012,3.053
		c-4.715,5.824-10.54,9.449-18.257,9.857c-6.048,0.32-10.183-3.856-10.861-9.961c-0.278-2.507,0.179-4.969,0.828-7.402
		c2.895-10.849,9.328-18.975,19.013-24.521c2.754-1.577,5.839-2.41,9.035-2.566c3.532-0.172,6.675,0.837,8.489,4.057
		c1.855,3.292,0.869,6.437-1.278,9.279c-2.058,2.724-4.91,4.436-7.868,6C1154.32,536.598,1148.863,538.091,1143.338,539.943z
		 M1159.749,519.392c-2.704-1.407-4.447-0.044-6.011,1.414c-4.214,3.928-7.292,8.546-8.983,14.627
		C1154.323,532.51,1159.736,526.605,1159.749,519.392z"/>
	<path style="fill:#255A44;" d="M1163.89,95.099c-0.318,4.725-1.679,9.227-5.596,12.615c-4.683,4.05-10.712,4.102-15.434,0.141
		c-7.465-6.262-7.568-18.761-0.207-25.154c4.581-3.979,11.403-3.915,15.896,0.199C1162.048,86.105,1163.545,90.23,1163.89,95.099z"
		/>
	<path style="fill:#225943;" d="M728.993,95.268c0.284,3.556-0.774,6.853-2.821,9.786c-2.865,4.107-6.815,6.462-11.903,5.762
		c-5.717-0.787-9.286-4.664-10.813-9.86c-1.581-5.378-1.222-10.817,2.324-15.691c5.156-7.086,14.604-7.294,19.879-0.274
		C727.912,87.988,729.24,91.344,728.993,95.268z"/>
	<path style="fill:#2A5C47;" d="M1034.194,519.012c-9.819,2.468-18.303,23.819-13.045,32.766c6.085,1.85,9.662-2.803,13.773-5.685
		c0.49,0.238,0.826,0.326,1.055,0.533c0.237,0.215,0.37,0.545,0.839,1.282c-5.117,6.633-11.516,11.106-20.351,11.039
		c-4.542-0.034-7.736-3.413-8.325-8.401c-0.371-3.147-0.186-6.271,0.747-9.385c2.978-9.942,8.546-17.922,17.311-23.592
		c4.109-2.658,8.605-3.37,13.36-2.61c2.844,0.455,4.803,2.103,5.924,4.779c1.689,4.032-2.513,8.222-6.383,7.899
		c-1.839-0.153-2.895-1.478-3.028-3.405C1035.947,522.44,1036.24,520.508,1034.194,519.012z"/>
	<path style="fill:#285B46;" d="M1100.606,547.026c1.992,0.45,2.832,1.78,3.882,2.807c1.205,1.179,2.527,2.229,4.069,2.82
		c1.907,0.731,3.953,0.962,5.588-0.679c1.507-1.512,1.209-3.405,0.499-5.113c-0.629-1.513-1.584-2.902-2.487-4.285
		c-0.724-1.11-1.603-2.117-2.385-3.191c-6.934-9.527-3.832-19.757,7.247-23.919c4.598-1.727,9.389-0.542,11.63,2.876
		c2.185,3.333,1.404,5.777-2.537,7.823c-1.98-0.294-2.849-2.118-4.241-3.235c-1.168-0.937-2.257-1.948-3.872-2.068
		c-1.51-0.112-2.972-0.266-4.064,1.157c-1.084,1.413-0.689,2.791-0.104,4.225c0.641,1.568,1.72,2.818,2.774,4.106
		c1.892,2.314,3.842,4.624,5.092,7.357c2.168,4.742,1.923,9.371-1.289,13.611c-3.849,5.08-8.941,7.74-15.397,7.717
		c-1.749-0.006-3.281-0.573-4.689-1.43C1095.757,554.828,1095.867,550.232,1100.606,547.026z"/>
	<path style="fill:#255A44;" d="M1314.008,273.757c0.021,7.437-5.741,13.196-13.253,13.246c-7.373,0.049-13.507-5.8-13.654-13.02
		c-0.148-7.28,6.328-13.749,13.676-13.661C1308.047,260.409,1313.988,266.441,1314.008,273.757z"/>
	<path style="fill:#1E5841;" d="M0.887,239.08c-0.001-9.054-0.001-18.108-0.002-27.161c2.414-38.22,13.989-73.439,34.554-105.736
		c19.586-30.76,45.379-55.107,76.719-73.499C136.692,18.287,163.064,8.642,191.19,3.87c8.539-1.449,17.108-2.382,25.73-2.982
		c7.466-0.047,14.933-0.134,22.399-0.118c2.482,0.005,4.964,0.272,7.445,0.42c0.031,28.828,0.063,57.656,0.081,86.483
		c0,0.474-0.172,0.948-0.324,1.737c-7.481-0.673-14.905,0.1-22.315,0.541c-27.36,1.628-53.581,7.643-77.445,21.753
		c-30.037,17.759-48.519,43.849-55.407,78.026c-2.21,10.965-2.616,22.086-1.925,33.3c2.725,44.188,20.891,82.352,45.961,117.726
		c18.882,26.643,41.493,49.914,66.366,71.008c13.341,11.314,27.292,21.832,41.741,31.691c1.089,0.743,2.107,1.588,3.209,2.424
		c0,35.398,0,70.697,0,105.953c-1.628,0.671-2.615-0.495-3.706-1.117c-34.759-19.816-67.822-42.147-98.693-67.606
		c-36.034-29.717-68.23-63.041-93.997-102.228c-19.497-29.651-34.388-61.376-42.752-95.985
		C3.919,269.837,1.451,254.593,0.887,239.08z"/>
	<path style="fill:#235944;" d="M246.158,259.807c-0.154,1.069-0.297,1.716-0.335,2.37c-0.638,10.852-6.005,19.026-15.031,24.5
		c-18.235,11.057-37.77,13.289-57.935,6.37c-26.42-9.065-33.486-39.618-17.357-60.945c4.591-6.071,10.283-10.838,16.684-14.854
		c1.394-0.874,3.066-1.353,4.218-2.886c-2.364-4.124-4.363-8.409-4.619-13.391c-0.444-8.661,2.742-15.673,9.424-20.956
		c9.046-7.153,19.574-9.734,30.912-8.564c6.592,0.681,13.105,2.102,19.071,6.128c-0.214,6.054-1.224,12.103-2.025,18.168
		c-0.315,2.389-1.664,3.544-4.011,2.962c-1.163-0.571-1.695-1.587-1.771-2.488c-0.324-3.824-2.9-5.402-6.065-6.41
		c-9.032-2.877-17.753-2.319-25.796,2.954c-6.131,4.019-7.782,10.442-4.779,17.516c3.884-0.521,7.752-1.523,11.747-1.611
		c3.509-0.077,6.958,0.164,10.222,1.512c4.609,1.903,7.352,6.011,7.111,10.431c-0.252,4.608-3.157,7.795-8.256,9.473
		c-5.475,1.802-10.481,0.402-15.436-1.829c-3.532-1.59-6.479-4.045-9.677-6.57c-3.781,1.751-5.843,5.035-7.631,8.612
		c-6.495,12.991-4.241,33.661,6.477,45.357c12.556,13.702,38.439,14.271,50.861,0.902c3.302-3.554,4.964-7.717,5.033-12.645
		c0.066-4.78-2.179-7.882-6.253-9.877c-3.335-1.633-6.908-2.363-10.62-2.318c-5.047,0.061-8.227,3.052-10.73,7.001
		c-1.509,0.397-2.949,0.46-4.317,0.015c-0.185-0.419-0.417-0.703-0.422-0.99c-0.085-5.302,1.576-10.13,4.087-14.709
		c4.445-8.107,12.705-12.606,23.798-9.342c6.076,1.788,11.822,4.626,16.962,8.276c5.901,4.191,13.181,4.182,19.555-2.356
		c-1.526,7.933-3.38,14.834-8.795,20.135C256.325,263.795,252.889,263.75,246.158,259.807z"/>
</g>
</svg>
