<?xml version="1.0" encoding="iso-8859-1"?>
<!-- Generator: Adobe Illustrator 27.0.0, SVG Export Plug-In . SVG Version: 6.00 Build 0)  -->
<svg version="1.1" id="Layer_1" xmlns="http://www.w3.org/2000/svg" xmlns:xlink="http://www.w3.org/1999/xlink" x="0px" y="0px"
	 viewBox="0 0 399.898 400.057" style="enable-background:new 0 0 399.898 400.057;" xml:space="preserve">
<g>
	<path style="fill:#DE8786;" d="M0,188.111c0.1-0.028,0.203-0.044,0.307-0.048c-0.001,8.065-0.001,16.13-0.002,24.195
		c-0.104-0.001-0.206-0.018-0.305-0.049C0,204.177,0,196.144,0,188.111z"/>
	<path style="fill:#EFCECB;" d="M188.453,0.286c0.004-0.096,0.01-0.191,0.017-0.286c7.673,0,15.346,0,23.019,0
		c0.007,0.095,0.013,0.19,0.017,0.286c-2.561,0.024-5.122,0.071-7.683,0.068C198.701,0.346,193.577,0.31,188.453,0.286z"/>
	<path style="fill:#CA254D;" d="M188.453,0.286c5.124,0.024,10.247,0.059,15.371,0.067c2.561,0.004,5.122-0.043,7.683-0.068
		c4.362,0.782,8.776,1.134,13.178,1.592c6.247,0.65,12.419,1.731,18.554,3.089c14.519,3.215,28.505,7.972,41.963,14.284
		c12.117,5.683,23.551,12.514,34.271,20.529c12.24,9.152,23.283,19.571,33.139,31.258c10.664,12.646,19.619,26.402,26.961,41.216
		c6.66,13.437,11.717,27.442,15.005,42.084c1.021,4.548,2.009,9.103,2.731,13.704c0.537,3.424,0.794,6.892,1.195,10.338
		c0.38,3.267,0.758,6.535,1.204,9.793c0.09,0.657,0.152,1.303,0.152,1.959c0.004,4.976-0.072,9.953,0.026,14.926
		c0.076,3.844-0.233,7.646-0.726,11.447c-0.461,3.558-0.96,7.114-1.276,10.686c-0.517,5.854-1.703,11.583-2.969,17.302
		c-2.355,10.631-5.496,21.018-9.618,31.107c-5.451,13.341-12.323,25.904-20.522,37.747c-7.869,11.367-16.792,21.841-26.778,31.399
		c-12.565,12.027-26.396,22.361-41.667,30.707c-16.394,8.96-33.696,15.591-51.925,19.73c-7.115,1.615-14.312,2.75-21.59,3.416
		c-3.507,0.321-7.025,0.667-10.501,1.295c-0.643,0.116-1.314,0.101-1.971,0.102c-5.215,0.008-10.434-0.117-15.645,0.041
		c-4.456,0.136-8.833-0.497-13.232-0.928c-3.51-0.344-7.005-0.839-10.505-1.278c-6.648-0.832-13.205-2.153-19.71-3.74
		c-16.05-3.914-31.29-9.927-45.833-17.731c-12.225-6.56-23.644-14.305-34.222-23.293C56.076,340.221,43,325.568,32.164,308.938
		c-11.815-18.132-20.344-37.707-25.719-58.67c-1.529-5.965-2.804-11.981-3.81-18.05c-0.518-3.124-0.757-6.294-1.12-9.443
		c-0.404-3.506-0.806-7.012-1.209-10.517c0.001-8.065,0.001-16.13,0.002-24.195c0.763-6.652,1.347-13.331,2.33-19.951
		c1.669-11.245,4.479-22.233,8.236-32.963c5.792-16.542,13.371-32.209,23.182-46.765c9.798-14.535,21.356-27.504,34.59-38.996
		c10.658-9.256,22.166-17.292,34.508-24.126c14.063-7.786,28.855-13.796,44.365-18.037c7.033-1.923,14.149-3.473,21.352-4.586
		c3.424-0.529,6.888-0.804,10.338-1.157C182.301,1.165,185.396,0.873,188.453,0.286z M387.796,200.293
		c0.041-7.071-0.304-14.118-1.094-21.151c-0.627-5.585-1.456-11.13-2.545-16.641c-3.134-15.85-8.338-31.001-15.676-45.379
		c-6.759-13.244-14.382-25.948-24.44-37.04c-3.701-4.082-7.122-8.423-10.908-12.421c-4.947-5.222-10.364-9.964-15.946-14.504
		c-9.363-7.615-19.533-13.987-30.227-19.551c-11.098-5.774-22.619-10.505-34.625-14.023c-9.524-2.791-19.211-4.804-29.076-5.988
		c-5.471-0.656-10.953-1.133-16.453-1.294c-9.768-0.286-19.507,0.149-29.22,1.317c-6.768,0.814-13.487,1.893-20.123,3.419
		c-15.315,3.523-29.956,8.894-43.876,16.221c-12.65,6.659-24.497,14.523-35.406,23.749c-10.743,9.086-20.292,19.324-28.641,30.66
		c-6.534,8.872-12.591,18.055-17.5,27.943c-6.554,13.201-11.527,26.971-14.898,41.335c-2.589,11.03-4.231,22.192-4.772,33.487
		c-0.429,8.972-0.346,17.957,0.509,26.928c0.551,5.778,1.275,11.527,2.33,17.224c1.762,9.518,4.275,18.848,7.502,27.979
		c3.871,10.952,8.695,21.47,14.528,31.514c9.63,16.58,21.454,31.408,35.563,44.413c9.188,8.469,19.105,15.962,29.77,22.46
		c14.258,8.688,29.425,15.328,45.477,19.916c8.617,2.463,17.371,4.286,26.262,5.482c6.531,0.879,13.082,1.448,19.659,1.647
		c5.087,0.154,10.177,0.145,15.27-0.171c4.481-0.278,8.949-0.605,13.408-1.132c6.412-0.757,12.758-1.855,19.052-3.285
		c18.118-4.117,35.239-10.806,51.355-20.032c20.434-11.697,38.111-26.669,52.979-44.939c7.461-9.168,14.01-18.949,19.602-29.364
		c6.805-12.675,12.098-25.952,15.835-39.85c2.987-11.106,4.862-22.399,5.839-33.848
		C387.736,210.358,387.809,205.326,387.796,200.293z"/>
	<path style="fill:#C9254D;" d="M15.787,199.607c0.271-99.134,79.711-183.103,183.935-183.692
		c100.853-0.57,184.92,81.948,184.417,185.311c-0.489,100.452-81.836,183.293-184.603,183.123
		C97.469,384.18,15.711,301.363,15.787,199.607z M255.199,350.821c-0.745-0.316-1.213-0.963-1.758-1.507
		c-6.112-6.094-12.208-12.204-18.32-18.297c-0.801-0.799-1.556-1.668-2.633-2.22c-2.8,0.907-5.705,1.55-8.604,2.645
		c3.835,13.274,7.638,26.44,11.461,39.674c2.567-0.728,5.069-1.192,7.562-2.149c-2.564-8.992-5.092-17.859-7.62-26.726
		c8.193,7.009,15.573,14.707,23.24,22.075c2.873-0.77,5.626-1.509,8.609-2.309c-3.86-13.328-7.685-26.531-11.53-39.807
		c-2.575,0.685-4.981,1.325-7.305,1.943c-0.194,0.5-0.068,0.834,0.03,1.178c1.807,6.307,3.634,12.609,5.401,18.928
		c0.593,2.12,1.397,4.188,1.691,6.388C255.35,350.703,255.276,350.763,255.199,350.821z M317.126,199.27
		c-0.11-64.057-51.438-116.634-115.484-116.924c-63.818-0.288-116.904,50.251-117.483,115.777
		c-0.556,62.918,50.246,116.518,114.794,117.196C263.002,315.992,316.848,265.096,317.126,199.27z M346.291,103.652
		c-1.511,0.474-2.816,1.187-4.106,1.912c-8.076,4.54-16.306,8.792-24.455,13.195c-0.242,0.131-0.477,0.402-0.823,0.088
		c6.89-8.49,13.782-16.982,20.687-25.49c-1.717-2.677-3.768-4.826-5.599-7.175c-9.889,5.162-19.601,10.231-29.312,15.3
		c-0.081-0.102-0.163-0.203-0.244-0.305c6.724-8.532,13.562-16.971,20.794-25.245c-1.606-2.52-3.479-4.854-5.695-7.058
		c-9.879,12.606-19.612,25.027-29.389,37.502c1.885,2.7,3.857,5.146,6.195,7.255c3.308-1.695,6.5-3.327,9.688-4.964
		c3.242-1.665,6.462-3.373,9.727-4.993c3.144-1.56,6.184-3.341,9.465-4.638c-0.276,0.608-0.611,1.103-0.97,1.58
		c-4.65,6.171-9.684,12.034-14.512,18.062c-1.559,1.947-3.227,3.819-4.471,5.932c1.088,2.04,3.832,5.393,5.824,7.154
		c1.63-0.4,40.401-19.666,42.676-21.219C349.948,108.251,348.128,105.962,346.291,103.652z M359.06,183.754
		c3.018-0.765,5.481-2.08,7.486-4.131c4.61-4.715,6.019-10.414,5.066-16.83c-1.401-9.438-8.982-16.403-19.214-16.785
		c-3.124-0.117-6.214,0.106-9.273,0.754c-5.194,1.099-10.102,2.867-14.372,6.131c-2.9,2.217-4.877,5.049-5.792,8.609
		c-0.711,2.763-0.807,5.53-0.354,8.351c0.857,5.342,2.8,10,7.68,12.948c0.521,0.315,1.067,0.672,1.432,1.315
		c-1.362,0.749-2.607,1.433-3.903,2.146c0.238,1.455,0.466,2.85,0.692,4.237c1.177,0.356,2.21-0.049,3.245-0.238
		c6.81-1.242,13.566-2.724,20.225-4.626c0.673-0.192,1.398-0.275,1.899-0.874c-1.201-5.456-2.389-10.857-3.587-16.299
		c-2.728,0.587-5.272,1.135-7.889,1.698c0.375,2.713,1.185,5.197,1.449,7.851c-2.13,0.178-4.056-0.016-5.962-0.614
		c-2.897-0.909-4.935-2.734-5.743-5.659c-1.234-4.469-0.019-8.34,3.615-11.199c2.096-1.648,4.497-2.711,7.023-3.489
		c4.386-1.35,8.815-1.569,13.236-0.21c2.429,0.747,4.349,2.174,5.517,4.536c1.89,3.821,1.559,8.484-2.46,11.133
		c-0.74,0.488-1.397,1.103-2.135,1.695C357.646,177.384,358.341,180.514,359.06,183.754z M49.63,112.129
		c12.625,9.096,25.124,18.101,37.671,27.14c2.088-2.274,3.778-4.623,5.254-7.072c-0.427-0.677-0.919-1.016-1.387-1.387
		c-2.723-2.157-5.669-4-8.466-6.051c-1.227-0.9-2.595-1.673-3.466-3.031c1.74-2.517,3.441-4.977,5.141-7.437
		c0.136-0.197,0.261-0.401,0.402-0.594c2.059-2.801,4.007-3.311,7.156-1.836c1.471,0.689,2.744,1.695,4.045,2.651
		c1.302,0.956,2.585,1.949,4.062,2.622c0.96,0.437,1.928,0.944,3.086,0.815c1.403-2.761,3.631-4.92,5.101-7.583
		c-0.521-0.553-1.153-0.789-1.76-0.978c-2.553-0.797-4.742-2.236-6.891-3.763c-0.731-0.519-1.474-1.024-2.234-1.498
		c-2.083-1.3-4.217-2.447-6.691-2.902c-1.34-0.246-2.585,0.25-3.836,0.268c-0.627-0.996-0.394-2.066-0.69-3.034
		c-1.456-4.754-4.65-7.839-9.175-9.644c-1.904-0.759-3.879-1.148-5.958-0.911c-3.2,0.364-5.587,2.064-7.398,4.582
		C58.95,98.946,54.371,105.452,49.63,112.129z M273.886,41.263c-1.385,1.384-22.891,37.611-23.833,40.05
		c0.461,0.339,0.922,0.718,1.421,1.037c5.89,3.77,11.891,7.345,18.095,10.583c4.101,2.14,8.12,2.024,12.19,0.032
		c3.872-1.895,6.77-4.894,9.251-8.314c4-5.515,7.277-11.374,8.01-18.323c0.54-5.123-0.957-9.506-5.115-12.681
		C287.662,48.88,280.58,45.457,273.886,41.263z M224.113,57.343c-2.42-2.789-5.385-7.625-5.787-9.402
		c0.338-0.442,0.911-0.52,1.384-0.736c1.445-0.659,2.666-1.598,3.691-2.793c4.266-4.975,3.543-12.536-2.117-15.879
		c-3.425-2.023-7.168-2.468-11.056-1.287c-5.363,1.63-7.482,6.708-6.814,11.193c0.302,2.026,0.897,3.95,1.681,5.828
		c0.154,0.37,0.49,0.706,0.201,1.202c-0.721,0.325-1.483,0.658-2.236,1.01c-3.499,1.637-5.809,4.324-6.994,7.983
		c-0.404,1.248-0.699,2.519-0.855,3.834c-0.687,5.818,1.221,10.559,6.138,13.752c5.286,3.432,10.83,3.184,16.326,0.32
		c1.264-0.659,2.344-1.643,3.703-2.16c0.728,0.606,1.078,1.45,1.486,2.236c0.623,1.199,1.593,1.951,2.86,2.269
		c3.076,0.773,6.205,0.941,9.471,0.744c-1.759-4.294-5.103-7.505-6.965-11.744c2.042-2.956,4.472-5.733,5.3-9.406
		c-1.291-1.532-2.88-2.572-4.579-3.767C227.307,52.805,226.309,55.446,224.113,57.343z M325.898,221.645
		c-0.248,2.971-0.724,5.841-0.767,8.796c15.49,1.485,30.763,2.949,46.09,4.419c1.004-3.04,1.044-6.005,1.057-9.117
		c-5.715-0.581-11.335-1.151-17.01-1.728c0.125-6.247,0.747-12.237,1.604-18.334c5.836,0.152,11.513,1.028,17.375,1.218
		c0.263-3.043,0.517-5.978,0.778-8.996c-15.492-1.532-30.818-3.047-46.199-4.568c-0.59,3.163-0.709,6.122-1.138,9.18
		c6.751,0.655,13.325,1.293,19.973,1.938c-0.559,6.302-0.973,12.412-1.656,18.507c-2.312,0.135-4.381-0.236-6.452-0.471
		c-3.683-0.419-7.357-0.918-11.056-1.183C327.665,221.245,326.817,221.189,325.898,221.645z M142.432,64.028
		c5.95-2.052,11.84-4.083,17.786-6.134c2.21,6.324,4.368,12.501,6.563,18.783c3.193-0.411,6.069-1.376,8.688-3.084
		c-0.362-1.16-0.664-2.19-1.003-3.207c-4.197-12.621-8.973-25.036-13.408-37.572c-0.329-0.929-0.675-1.892-1.433-2.775
		c-2.752,0.942-5.489,1.879-8.295,2.841c1.873,5.618,3.924,10.992,5.674,16.535c-5.895,2.088-11.555,4.092-17.37,6.151
		c-2.632-5.214-3.477-10.998-6.216-16.214c-2.852,0.966-5.594,1.895-8.484,2.875c5.188,14.7,10.322,29.246,15.51,43.946
		c2.938-0.981,5.76-1.845,8.639-3.027C146.863,76.766,144.676,70.478,142.432,64.028z M72.942,214.936
		c0.132-1.697,0.293-3.185,0.351-4.677c0.058-1.48,0.164-2.981-0.424-4.409c-6.542-0.718-13.128-0.17-19.671-0.865
		c-0.106-6.201,0.297-12.218,0.438-18.344c6.753-0.002,13.369,0.063,20.051,0.339c0.107-1.682,0.238-3.164,0.286-4.648
		c0.047-1.479,0.01-2.961,0.01-4.552c-15.571-0.471-31.035-0.939-46.687-1.412c0,3.155,0,6.12,0,9.127
		c5.564,0.533,11.188,0.373,17.039,0.567c0.743,6.263-0.306,12.416-0.171,18.701c-5.982-0.111-11.708-0.079-17.57-0.444
		c-0.047,3.211-0.477,6.212-0.175,9.283C41.971,214.047,57.397,214.49,72.942,214.936z M44.931,224.262
		c-5.031,1.195-10.562,5.801-12.474,10.38c-0.717,1.719-1.082,3.526-1.171,5.398c-0.174,3.645,0.495,7.136,1.807,10.519
		c2.695,6.955,7.956,11.604,16.553,11.714c3.314,0.042,6.561-0.338,9.765-1.15c5.012-1.269,9.839-2.974,13.994-6.171
		c4.914-3.781,7.595-8.75,7.384-14.997c-0.157-4.642-1.799-8.858-4.512-12.65c-1.971-2.754-4.453-4.806-7.679-5.932
		c-3.217-1.122-6.527-1.483-9.895-1.156c-0.966,0.094-2.026,0.099-3.014,0.752c0.883,3.114,1.754,6.184,2.633,9.286
		c1.828,0.036,3.491-0.003,5.158,0.214c3.554,0.464,6.002,2.358,7.271,5.609c1.252,3.208,0.596,6.236-1.556,8.915
		c-1.02,1.27-2.235,2.343-3.635,3.179c-5.014,2.994-10.424,4.48-16.272,3.937c-2.689-0.25-5.1-1.332-6.83-3.525
		c-3.637-4.61-1.882-11.467,3.551-14.108c0.573-0.278,1.314-0.261,1.737-0.912C47.113,230.374,46.534,227.155,44.931,224.262z
		 M121.808,63.876c-0.916-1.72-2.264-3.12-4.79-4.865c-5.314-3.671-10.95-4.456-16.982-1.9c-2.568,1.088-4.827,2.631-6.917,4.431
		c-5.489,4.726-7.47,10.617-5.8,17.708c0.933,3.958,2.721,7.515,5.035,10.816c3.08,4.393,6.59,8.383,11.209,11.239
		c4.827,2.984,9.937,3.595,15.277,1.57c5.238-1.987,9.193-5.522,12.005-10.325c1.542-2.634,2.253-5.553,2.142-8.587
		c-0.156-4.285-2.203-7.933-4.099-11.692c-3.036,1.607-5.17,4.142-8.118,5.75c0.782,1.805,1.413,3.608,1.734,5.479
		c0.801,4.682-0.464,8.125-5.546,10.072c-2.599,0.996-5.088,0.598-7.432-0.636c-6.657-3.503-10.668-9.115-12.319-16.348
		c-0.602-2.638-0.405-5.389,1.535-7.657c2.524-2.949,6.817-4.816,11.641-2.234c1.371,0.734,2.507,1.809,3.814,2.605
		C116.849,67.679,118.983,65.426,121.808,63.876z M30.589,159.823c0.881,0.644,1.725,0.956,2.557,1.271
		c8.98,3.405,18.146,6.257,27.292,9.169c2.225,0.709,4.533,0.981,6.887,0.975c4.82-0.012,8.505-2.084,11.204-5.992
		c2.422-3.508,3.72-7.455,4.36-11.634c0.83-5.417-0.751-9.924-5.153-13.313c-2.485-1.913-5.284-3.28-8.219-4.312
		c-7.873-2.766-15.767-5.47-23.674-8.137c-1.271-0.429-2.558-0.974-4.083-0.927c-0.991,2.804-1.896,5.605-2.691,8.473
		c0.348,0.161,0.552,0.285,0.773,0.353c7.072,2.161,13.965,4.849,21.002,7.117c3.117,1.005,6.284,1.915,9.068,3.751
		c3.121,2.058,4.258,4.643,3.467,8.278c-0.745,3.425-2.858,6.268-7.511,6.333c-2.73,0.038-5.337-0.515-7.914-1.316
		c-5.19-1.613-10.145-3.85-15.228-5.747c-3.002-1.12-6.017-2.211-9.336-2.576C32.447,154.361,31.529,157.061,30.589,159.823z
		 M123.639,344.965c-0.19,5.257,1.885,9.442,5.859,12.733c2.67,2.211,5.775,3.604,9.114,4.411c6.14,1.482,11.456-0.027,15.878-4.599
		c1.758-1.818,3.295-3.798,4.509-6.009c3.175-5.783,5.004-11.872,3.923-18.551c-0.508-3.142-1.748-5.96-4.121-8.165
		c-2.81-2.612-6.141-4.328-9.797-5.391c-6.004-1.744-11.399-0.555-15.906,3.801C126.958,329.129,124.131,336.564,123.639,344.965z
		 M112.773,329.624c-0.877,0.57-1.677,1.094-2.481,1.612c-1.164,0.75-2.413,1.303-3.758,1.642c-1.837,0.462-3.564,0.196-5.154-0.826
		c-3.468-2.23-4.759-5.619-3.635-9.621c1.43-5.091,4.544-9.034,8.6-12.278c1.309-1.047,2.853-1.729,4.502-2.133
		c4.048-0.992,7.947,1.11,9.317,5.044c0.677,1.945,0.546,3.877-0.156,5.788c-0.347,0.943-0.833,1.841-0.979,2.939
		c2.044,1.981,4.232,3.769,6.779,5.31c1.158-2.164,2.189-4.165,3.003-6.282c1.313-3.414,1.122-6.78-0.23-10.12
		c-1.125-2.781-2.971-5.033-5.236-6.956c-2.928-2.487-6.217-4.274-10.077-4.721c-3.84-0.445-7.374,0.659-10.54,2.754
		c-6.955,4.602-11.481,11.053-13.906,18.98c-1.264,4.131-0.465,8.028,1.766,11.667c1.396,2.277,3.203,4.177,5.394,5.694
		c7.251,5.018,14.602,4.897,21.376-0.851c0.861-0.731,1.636-1.553,2.199-2.706C117.149,333.147,115.19,331.194,112.773,329.624z
		 M294.596,316.861c-1.369-2.596-3.416-4.321-5.667-5.82c-2.165-1.441-4.471-2.463-7.169-2.505c-4.88-0.075-9.208,1.46-12.944,4.492
		c-4.888,3.966-6.961,9.101-5.967,15.422c0.606,3.855,2.148,7.316,4.145,10.603c2.312,3.804,4.881,7.404,8.575,10.033
		c2.814,2.003,5.943,3.188,9.402,2.917c5.988-0.469,10.817-3.269,14.525-7.939c1.978-2.491,3.088-5.354,3.106-8.609
		c0.019-3.547-1.265-6.736-2.472-10.138c-2.647,1.532-5.155,2.983-7.655,4.431c0.341,1.3,0.675,2.382,0.905,3.486
		c0.568,2.729,0.167,5.235-1.82,7.343c-3.017,3.201-7.22,3.608-11.033,0.839c-5.272-3.828-8.225-9.106-8.866-15.56
		c-0.268-2.702,0.472-5.261,2.835-7.004c3.135-2.313,7.638-2.361,10.555,0.458c0.684,0.661,1.314,1.397,2.304,1.948
		C289.864,320.157,292.24,318.71,294.596,316.861z M360.079,244.093c-1.561,3.82-3.083,7.547-4.561,11.164
		c-0.481,0.17-0.743,0.008-1.023-0.09c-5.751-2.005-11.324-4.463-16.982-6.704c-4.991-1.976-9.918-4.119-15.045-5.742
		c-0.738-0.234-1.458-0.507-2.347-0.248c-0.994,2.509-2,5.048-3.095,7.811c11.476,5.116,23.123,9.491,34.874,13.896
		c-1.429,3.855-2.829,7.632-4.258,11.487c2.911,1.192,5.633,2.306,8.43,3.452c4.15-10.742,8.226-21.293,12.353-31.975
		C365.596,246.109,362.927,245.134,360.079,244.093z M359.562,130.313c-1.316-2.879-2.566-5.614-3.826-8.37
		c-14.174,6.622-28.146,13.15-42.186,19.709c1.177,2.974,2.178,5.816,4.016,8.253C331.648,143.335,345.524,136.862,359.562,130.313z
		 M212.279,332.144c1.381,13.698,2.743,27.21,4.118,40.857c2.806-0.437,5.428-0.325,7.964-0.894
		c0.222-5.575-3.451-39.027-4.557-41.189C217.399,331.631,214.715,330.786,212.279,332.144z M180.571,371.661
		c1.182,0.669,2.486,0.383,3.557,1.05c-0.138,1.319-0.406,2.52-1.078,3.606c-0.736,1.188-2.01,1.617-3.2,2.128
		c-0.175,1.428-0.574,2.748-0.228,4.123c4.036-0.51,6.502-2.912,8.054-6.394c1.152-2.585,1.676-5.341,1.851-8.152
		c0.102-1.649,0.159-3.31-0.004-5.038c-2.735-0.185-5.289-0.75-8.01-0.776C181.192,365.434,180.885,368.513,180.571,371.661z
		 M162.474,368.74c2.683,0.575,5.218,1.118,7.889,1.69c0.741-3.309,1.463-6.533,2.207-9.857c-2.665-0.525-5.207-1.026-7.885-1.553
		C163.921,362.279,163.055,365.4,162.474,368.74z M321.248,326.672c-2.211-2.517-4.322-4.922-6.438-7.332
		c-1.14,0.958-2.177,1.764-3.137,2.652c-0.984,0.911-2.176,1.648-2.793,2.982c2.231,2.248,4.013,4.818,6.391,6.903
		C317.47,330.408,319.348,328.669,321.248,326.672z"/>
	<path style="fill:#0F4D7A;" d="M274.386,206.114c1.058,5.329,0.459,10.676,0.019,16.087c0.78-0.223,0.814-1.069,1.549-1.187
		c-0.055,0.826-0.109,1.636-0.169,2.528c0.843-0.031,0.954-0.897,1.601-1.156c0.465,0.216,0.365,0.939,0.898,1.169
		c0.453-1.423,0.904-2.843,1.359-4.271c0.594,0.261,0.435,0.798,0.408,1.237c-0.032,0.534-0.091,1.091-0.28,1.585
		c-0.668,1.752-0.807,3.473,0.216,5.118c-0.819,1.288-2.095,1.944-2.931,2.955c-0.286,0.943,0.478,1.603,0.54,2.488
		c-1.19,0.851-2.611,1.133-3.992,1.421c-1.687,0.352-3.211,0.978-4.46,2.153c-2.047,1.926-4.495,2.638-7.237,2.559
		c-0.238-0.007-0.477-0.001-0.812-0.001c-1.186,2.149-2.945,3.674-5.21,4.669c-2.419,1.063-4.542,0.142-6.605-0.919
		c-1.097,0.594-1.597,1.579-2.23,2.426c-2.759,3.69-5.169,7.626-8.09,11.207c-4.526,5.547-9.588,10.546-15.023,15.186
		c-6.796,5.803-14.007,11.028-21.59,15.76c-2.482,1.548-4.76,3.421-7.138,5.138c-2.969,2.145-6.053,4.047-9.657,4.989
		c-2.495,0.653-4.961,0.668-7.457,0.096c-1.631-0.374-2.94-1.281-4.148-2.385c-3.599-3.286-6.69-7.026-9.693-10.842
		c-2.889-3.67-5.647-7.437-8.326-11.264c-5.645-8.065-9.641-16.925-12.339-26.337c-3.733-13.024-7.452-26.065-10.316-39.31
		c-1.641-7.589-6.469-12.73-11.791-17.747c-1.474,0.651-2.768,1.253-4.085,1.798c-2.996,1.239-4.972,0.641-6.772-2.089
		c-1.262-1.913-2.155-3.99-2.522-6.273c-0.286-1.781,0.218-3.303,1.457-4.603c0.795-0.834,1.748-1.449,2.72-2.043
		c1.173-0.717,2.366-1.405,3.395-2.334c0.267-0.432,0.219-0.928,0.26-1.398c0.351-4.025,2.077-7.44,4.61-10.508
		c1.449-1.755,2.88-3.523,4.092-5.456c0.525-0.838,1.219-1.445,2.222-1.693c1.808-0.446,3.516-1.041,4.882-2.46
		c0.736-0.765,1.854-1.056,2.884-1.382c1.727-0.547,3.305-1.32,4.633-2.622c1.44-1.411,3.25-1.708,5.17-1.232
		c0.812,0.201,1.534,0.547,1.982,1.39c0.733,1.378,2.016,1.914,3.422,1.225c1.33-0.652,2.579-0.2,3.865-0.179
		c0.528,0.009,0.84,0.41,1.143,0.789c0.33,0.412,0.492,0.958,0.942,1.253c5.27-1.876,37.113-19.263,40.352-22.064
		c-2.11-5.955-4.322-11.966-4.106-18.595c4.492-2.19,8.68-4.952,13.054-7.392c3.445-1.921,6.874-3.879,10.227-5.956
		c1.959-1.214,3.742-1.248,5.701-0.09c2.64,1.561,4.611,3.788,6.458,6.162c1.324,1.701,2.571,3.464,4.059,5.031
		c0.243,0.256,0.434,0.58,0.932,0.709c1.218-0.524,2.52-1.122,4.018-0.518c0.796,0.321,1.535,0.718,2.13,1.294
		c3.282,3.177,4.87,7.131,5.327,11.491c-0.766,1.027-1.847,1.416-2.599,2.308c-0.125,1.722,0.517,3.352,0.965,5.007
		c1.186,4.377,2.718,8.662,3.519,13.14c0.23,1.285,0.594,2.558,0.519,3.939c-3.638,2.636-7.482,4.926-11.48,6.959
		c-4.371,2.222-8.698,4.525-12.833,7.166c-1.168,0.746-2.238,0.773-3.541,0.289c-3.786-1.404-6.281-4.321-8.705-7.283
		c-1.969-2.405-3.717-4.991-5.602-7.55c-1.492-0.376-2.891-0.184-4.276,0.592c-9.963,5.575-19.943,11.12-29.912,16.684
		c-1.357,0.757-2.693,1.551-3.94,2.489c-0.858,0.646-1.263,1.483-0.935,2.508c1.311,4.095,0.109,7.902-1.265,11.696
		c-0.879,2.426-1.924,4.799-3.52,6.824c-1.399,1.775-1.402,3.583-0.823,5.574c0.886,3.048,2.096,5.971,3.435,8.838
		c3.345,7.158,6.952,14.17,11.709,20.524c2.809,3.753,6.056,7.12,9.392,10.388c1.819,1.782,3.407,3.664,4.582,5.928
		c0.709,1.367,1.49,2.728,2.81,3.739c0.96-0.697,1.329-1.711,1.718-2.689c1.065-2.678,1.574-5.504,2.14-8.313
		c0.649-3.218,1.096-6.483,2.207-9.593c1.288-3.606,3.359-6.725,5.978-9.499c0.822-0.871,1.618-1.768,2.393-2.681
		c1.324-1.559,1.685-3.25,0.673-5.137c-0.451-0.841-0.823-1.725-1.228-2.59c-1.174-2.506-0.854-4.865,0.663-7.129
		c1.426-2.128,3.4-3.689,5.359-5.27c1.351-1.09,2.706-2.176,4.057-3.268c1.47-1.188,2.603-2.624,3.299-4.4
		c0.26-0.664,0.631-1.285,0.925-1.937c0.767-1.701,2.242-2.329,4.028-2.634c-2.183,1.996-3.893,4.129-2.697,7.364
		c1.397,0.466,2.843,0.798,4.346,0.815c1.618,0.019,3.238,0.058,4.854,0.004c3.549-0.12,6.71,0.963,9.59,2.969
		c1.816,1.265,3.62,2.543,5.618,3.521c2.191,1.072,4.377,1.589,6.667,0.263c1.339-0.776,2.243,0.153,3.265,0.934
		c-0.533,0.71-1.605,0.571-2.135,1.688c-0.182,2.116-0.167,4.459,2.094,6.132c0.382,0.283,0.723,0.634,1.038,0.993
		c1.482,1.682,3.087,3.185,5.206,3.645c0.516,0.754,0.575,1.385,0.527,1.998c-1.542,1.061-1.94,1.113-4.035,0.572
		c-0.033,1.998,1.535,5.105,3.826,7.502c0.063-1.462-1.103-2.548-1.019-3.956c0.826,0.137,0.808,0.892,1.226,1.346
		c0.253-0.204,0.51-0.412,0.82-0.663c1.063,0.257,2.13,0.626,3.253,0.799c1.185,0.182,2.125,0.791,2.42,2.174
		c-0.424,0.619-1.025,1.062-1.764,1.271c-1.024-0.076-1.541-0.918-2.28-1.388c-1.512,1.557-1.819,3.02-1.138,5.368
		c0.453,0.349,0.721-0.248,1.122-0.215c0.602,0.532,0.476,1.455,1.064,2.033c0.473-0.039,0.27-0.781,0.851-0.771
		c0.338,0.701,0.522,1.526,1.224,2.334c0.919-2.213,2.87-3.609,3.189-6.268c0.318-2.646,0.856-5.441,2.585-7.724
		c0.335-0.443,0.338-1.013,0.421-1.544C274.409,207.242,273.736,206.399,274.386,206.114z M204.292,119.782
		c-0.337-1.056-1.312-1.926-1.036-3.371c0.941,0.707,1.476,1.461,1.829,2.375c0.3,0.777,0.629,1.546,0.989,2.297
		c0.633,1.32,1.681,2.059,3.36,2.299c-0.427-1.807-1.721-3.117-1.795-4.936c2.193,1.82,2.645,4.644,4.44,6.655
		c0.298-0.925-0.667-1.551-0.419-2.458c1.027,1.105,1.762,2.338,2.497,3.567c2.024,3.385,3.814,6.898,5.577,10.422
		c2.729,5.454,5.701,10.765,9.049,15.863c0.233,0.355,0.358,0.845,0.973,0.938c-0.34-2.347-0.654-4.65-1.009-6.946
		c-0.602-3.881-1.782-7.522-4.17-10.733c-2.643-3.552-4.702-7.487-7.13-11.184c-0.534-0.813-1.095-1.689-0.838-2.9
		c2.853,3.344,4.099,7.586,6.988,10.817c0.171-0.409,0.016-0.67-0.085-0.951c-1.487-4.138-3.816-7.817-6.172-11.491
		c-3.093-4.822-7.141-8.83-10.967-13.028c-1.124-1.234-2.497-1.532-4.062-0.771c-1.568,0.762-2.991,1.726-4.35,2.829
		c0.148,0.556,0.336,1.03,0.905,1.358c0.513-0.011,1.124-0.202,1.686,0.189c0.291,0.682,0.572,1.388,0.691,2.149
		c-0.284,0.083-0.555,0.162-0.969,0.283c0.791,2.623,1.915,5.01,3.708,7.06c0.297,0.705,0.76,1.282,1.353,1.776
		C205.31,121.016,204.787,120.405,204.292,119.782z M200.898,221.747c-0.144-0.128-0.14-0.441-0.446-0.377
		c-0.101,0.262-0.073,0.474,0.164,0.628c-0.031,1.067,1.232,1.875,0.704,3.093c-0.715-0.225-0.719-1.012-1.36-1.317
		c-1.027,1.645,0.021,3.205,0.243,4.781c-0.817-0.099-0.933-0.986-1.718-1.203c0.469,1.794,0.506,3.472-0.905,4.858
		c0.582,0.997,0.827,2.103,0.92,3.238c0.181,2.205,0.942,4.166,2.297,5.916c0.869,1.122,1.684,2.285,2.451,3.331
		c-0.131,0.814-0.964,0.303-1.142,0.907c-0.448,0.471,0.13,1.124-0.167,1.643c-0.554,0.003-0.941-0.556-1.513-0.379
		c-0.025,0.585,0.697,0.929,0.477,1.594c-1.434-0.965-2.648-2.04-3.651-3.362c-0.51,0.792-0.35,1.778-1.018,2.215
		c-1.594,0.21-2.226-0.895-3.03-1.97c-0.221,1.488,1.047,2.648,0.504,4.017c-0.661-0.163-0.622-0.963-1.298-1.087
		c0.129,2.408-0.338,4.756-0.427,7.136c-0.109,2.892-0.994,5.628-2.116,8.279c-0.372,0.88-0.893,1.683-1.672,2.468
		c-0.221-0.826,0.111-1.439-0.21-2.033c-0.664,0.735-0.607,1.782-1.155,2.551c-0.699-0.474-0.551-1.151-0.387-1.786
		c0.196-0.759,0.333-1.514,0.254-2.298c0.189-0.05,0.284-0.13,0.091-0.297c-0.054,0.076-0.108,0.152-0.162,0.228
		c-0.66-0.087-0.691,0.868-1.35,0.853c-0.158-1.012,0.677-1.916,0.241-2.928c-0.699,0.297-0.84,1.195-1.678,1.34
		c-0.148-0.827,0.584-1.519,0.246-2.305c-0.633-0.008-0.796,0.845-1.483,0.8c0.004-1.291,0.785-2.438,0.723-3.771
		c-0.591,0.198-1.078,0.362-1.646,0.553c-0.192-1.084,0.819-1.744,0.748-2.734c-0.971,0.296-1.307,1.335-2.15,1.749
		c-0.302-0.839,0.655-1.413,0.133-2.213c-1.045,0.937-2.607,1.124-3.246,2.588c-0.905-0.788-1.704-1.484-2.499-2.177
		c0.389-0.774,0.828-1.32,1.364-1.762c2.813,0.86,4.17,0.251,4.906-2.239c-1.463-1.232-2.051-3.001-2.506-4.796
		c-0.663-2.615-1.892-4.833-3.821-6.754c-1.5-1.494-2.939-3.154-2.321-5.598c-1.326,0.019-1.19,2.014-2.613,1.645
		c-0.087-1.504,1.502-2.116,2.063-3.61c-1.44,0.381-1.991,2.288-3.527,1.442c-0.06-2.128,2.537-3.016,2.212-5.331
		c-1.796-1.248-2.747-3.198-3.299-5.341c-1.672,0.421-2.714,1.56-4.036,2.229c-0.345-0.791,0.712-1.163,0.308-1.833
		c-0.648,0.176-1.107,0.791-1.834,0.847c0.062-1.509,1.589-2.021,2.271-3.471c-1.101,0.6-1.83,0.997-2.694,1.469
		c0.203-1.19,1.127-1.817,1.352-2.971c-1.319,0.565-1.749,1.931-3.055,2.228c-0.047-2.258,2.528-2.434,3.123-3.999
		c-0.097-0.653-0.194-1.172-0.749-1.471c-1.45,0.234-2.155,1.632-3.482,2.194c0.024-1.275,1.056-1.693,1.78-2.32
		c1.667-1.445,1.899-2.288,0.812-4.198c-1.054-1.852-1.942-3.845-3.602-5.001c-0.388-0.775,0.21-1.281,0.152-1.908
		c-0.495,0.081-0.884,0.394-1.32-0.03c0.573-1.143-0.152-2.13-0.438-2.922c-0.174-0.893,0.547-1.304,0.396-1.929
		c-0.293-0.444-0.993-0.149-1.213-0.772c-0.008-0.82,0.3-1.741-0.162-2.574c-0.795-1.437-1.209-2.967-1.166-4.453
		c-0.453-0.718-1.427-0.812-1.325-1.848c1.491,0.004,2.969-0.157,4.431-0.444c0.49-0.898,1.138-1.676,1.444-2.713
		c-1.283-0.169-2.694,0.589-3.694-0.668c0.213-0.446,0.587-0.442,0.941-0.505c0.661-0.118,1.33-0.35,1.712-0.89
		c0.773-1.093,1.867-1.616,3.062-2.042c0.311-0.111,0.703-0.243,0.56-0.734c-0.789-0.359-1.767,0.864-2.547-0.306
		c0.861-0.764,2.073-0.56,2.814-1.237c-0.509-0.819-1.842-0.146-2.224-1.312c0.492-1.395,1.98-1.327,2.983-1.965
		c0.186-0.454-0.506-0.647-0.325-1.098c0.578-0.355,1.376-0.342,1.822-1.095c-0.592-0.125-1.154-0.163-1.522-0.656
		c1.231-1.207,1.744-2.709,1.516-4.392c-0.25-1.846-0.374-3.69-0.357-5.549c0.012-1.357-0.526-2.399-1.675-3.18
		c-1.036-0.704-2.114-1.371-2.967-2.314c-0.117-0.129-0.197-0.292-0.282-0.421c0.106-0.513,0.627-0.952,0.145-1.532
		c-0.362,0.212-0.72,0.421-1.119,0.654c-0.861-0.506-1.752-0.996-2.609-1.538c-1.633-1.033-3.004-2.244-2.65-4.254
		c-0.249-0.542-0.616-0.642-0.92-0.823c-0.196-0.116-0.421-0.183-0.609-0.262c-1.394,1.454-1.736,2.636-1.458,4.406
		c0.517,3.286,2.301,5.62,5.311,6.936c1.684,0.736,2.471,1.945,2.677,3.69c0.141,1.195-0.16,2.238-0.827,3.218
		c-1.044,1.532-2.036,3.097-2.77,4.809c-0.231,0.538-0.512,1.025-0.373,1.684c0.26,1.234-0.368,2.082-1.442,2.593
		c-0.698,0.332-1.45,0.55-2.169,0.839c-1.562,0.628-3.024,1.348-2.761,3.431c-0.85,0.668-1.644,1.293-2.389,1.879
		c-0.177,0.658-0.332,1.232-0.486,1.806c-0.139,0.053-0.329,0.125-0.19,0.292c0.12,0.145,0.268,0.005,0.371-0.113
		c0.418,0.072,0.957-0.38,1.266,0.322c-0.427,0.874-1.522,1.085-1.997,1.881c0.244,0.302,0.755,0.033,0.911,0.522
		c0.036,0.512-0.747,0.586-0.679,1.14c0.298,0.517,1.082,0.06,1.327,0.674c-0.111,0.503-0.857,0.383-0.918,0.92
		c0.272,0.488,1.019,0.423,1.16,1.041c-0.305,0.345-0.799,0.55-0.815,1.21c0.606,0.501,1.122,1.16,1.279,2.018
		c0.102,0.558,0.404,0.986,0.758,1.398c0.829,0.966,1.109,1.966,0.228,3.071c-0.19,0.238-0.18,0.561-0.102,0.861
		c0.26,0.638,0.929,0.916,1.304,1.461c-0.079,0.538-0.701,0.85-0.611,1.433c0.162,1.054-0.273,1.989-0.546,2.958
		c-0.112,0.106-0.223,0.254-0.088,0.37c0.154,0.134,0.242-0.023,0.297-0.162c0.64-0.035,0.778-0.948,1.498-0.852
		c0.151,0.02,0.317-0.218,0.502,0.098c-0.192,0.374-0.405,0.789-0.622,1.211c0.44,0.305,1.153,0.048,1.312,0.812
		c-1.609,1.626-2.533,4.116-5.289,4.422c-0.368-0.337-0.807-0.543-0.956-0.979c0.469-0.883,0.907-1.707,1.331-2.506
		c-0.374-0.407-0.691-0.416-1.064-0.282c-0.321,0.115-0.657,0.326-1.113-0.033c0.732-0.999,0.137-1.881-0.402-2.716
		c-0.737-1.14-1.177-2.306-1.102-3.704c0.061-1.142-0.331-2.228-0.834-3.266c-0.599-1.234-1.153-2.476-1.337-3.875
		c-0.154-1.171-0.791-2.108-1.883-2.621c-0.88,0.204-1.346,1.125-2.536,1.405c0.84-1.486,2-2.273,2.823-3.339
		c-0.558-1.878-1.22-3.646-2.585-4.913c0.086-1.223,0.687-2.128,1.097-3.196c-4.564,1.522-8.531,4.978-8.795,7.593
		c0.611-0.419,1.212-0.831,2.153-1.476c-0.676,1.365-1.727,2.07-1.721,3.404c0.963,0.49,1.305,1.59,2.124,2.387
		c0.902,0.277,1.969,0.405,2.461,1.435c0.427-0.186,0.557-0.823,1.164-0.425c0.059,0.665-0.607,1.212-0.447,2.002
		c0.5-0.229,0.962-0.441,1.393-0.639c0.481,0.429-0.124,0.908,0.13,1.295c0.402,0.075,0.646-0.418,1.037-0.196
		c0.76,0.915-0.05,1.967,0.158,2.738c0.288,0.556,1.006,0.207,1.01,0.99c-0.881,1.258-0.596,2.685-0.197,4.169
		c0.511,1.9,0.912,3.831,1.309,5.76c0.292,1.421,0.676,2.775,1.77,3.639c0.173,0.622-0.435,0.971-0.209,1.513
		c0.397-0.146,0.772-0.283,1.298-0.477c0.359,3.293,1.06,6.503,0.788,9.817c0.536-0.08,0.748-0.585,1.225-0.517
		c0.544,0.921-0.686,1.56-0.468,2.451c0.338-0.039,0.51-0.438,0.837-0.193c0.034,0.936-0.896,1.692-0.555,2.634
		c0.443,0.267,0.855-0.41,1.205,0.11c0.159,0.627-0.453,1.141-0.316,1.779c0.776,0.05,0.769-0.943,1.489-0.969
		c0.696,1.586-1.051,2.663-0.973,4.163c0.599-0.201,0.585-1.121,1.35-0.945c0.369,0.815-0.628,1.537-0.133,2.343
		c0.528-0.257,0.76-0.96,1.489-0.869c0.033,0.92-0.754,1.644-0.605,2.269c0.216,0.637,0.87,0.391,0.788,1.031
		c-0.055,0.721-0.839,1.341-0.702,2.228c0.439,0.062,0.877-0.436,1.162,0.163c0.126,0.71-0.627,1.267-0.379,2.088
		c0.309,0.092,0.727-0.095,0.996,0.282c-0.22,0.575-0.449,1.175-0.721,1.884c0.85,0.295,1.175,0.944,1.133,1.786
		c0.442-0.101,0.764-0.634,1.121-0.18c0.031,0.901-0.708,1.639-0.377,2.587c0.35-0.179,0.591-0.303,0.855-0.438
		c-0.056,1.408-0.698,2.702-0.587,4.19c0.81-0.454,0.689-1.401,1.426-1.713c0.432,1.8-0.748,3.38-0.628,5.335
		c0.585-1.043,1.067-1.902,1.586-2.829c0.473,1.108-0.352,2.048-0.12,3.053c0.846-0.3,0.896-1.313,1.641-1.647
		c0.407,1.021-0.549,1.958-0.211,2.917c0.719,0.47,1.56,0.462,2.152,0.948c0.106,1.115-0.397,2.12-0.408,3.084
		c0.332,0.429,0.743-0.177,0.976,0.231c0.174,0.788-0.483,1.491-0.168,2.277c0.387-0.171,0.465-0.721,1.03-0.756
		c0.123,0.906-0.314,1.833-0.028,2.676c0.511,0.251,0.823-0.271,1.349-0.124c-0.38,1.514,1.081,2.616,0.823,4.106
		c0.38,0.052,0.542-0.138,0.735-0.273c0.169-0.118,0.288-0.385,0.571-0.233c0.213,0.276,0.037,0.733,0.469,0.914
		c0.298,0.125,0.766-0.086,0.877,0.385c-0.057,0.726-0.415,1.41-0.07,2.116c0.543-0.035,0.989-0.589,1.535-0.211
		c0.758,0.617,0.325,1.592,0.654,2.285c0.547,0.081,0.736-0.514,1.198-0.436c0.284,0.727-0.038,1.548,0.288,2.193
		c0.324,0.356,0.587-0.231,1.001,0.216c0.479,1.187,0.054,2.671,0.343,4.126c0.526-0.483,0.432-1.145,0.869-1.69
		c0.231,0.686,0.432,1.283,0.615,1.827c0.494,0.079,0.744-0.562,1.179-0.232c0.254,0.775-0.178,1.558,0.169,2.393
		c0.446-0.337,0.84-0.635,1.266-0.957c0.215,0.796-0.096,1.566,0.427,2.189c0.875,1.043,1.176,2.33,1.499,3.607
		c0.24,0.948,0.744,1.729,1.405,2.459c2.295,2.536,5.252,3.49,8.529,3.46c3.738-0.034,6.926-1.633,9.796-3.924
		c1.301-1.039,2.171-2.355,2.568-3.997c0.176-0.73,0.212-1.57,0.749-1.884c0.789-0.408,1.455-0.016,2.015-0.48
		c-0.073-0.326-0.159-0.669-0.227-1.016c-0.357-1.819-0.248-2.075,1.296-3.115c0.493-0.333,1.098-0.54,1.425-1.067
		c0.568-0.918,1.423-1.401,2.386-1.802c0.485-0.202,0.894-0.59,1.329-0.906c1.666-1.211,2.921-2.818,4.21-4.391
		c0.641-0.782,1.231-1.617,2.43-1.612c0.334,0.001,0.614-0.345,0.727-0.746c-0.003-0.734-0.369-1.491-0.041-2.222
		c0.524-0.289,1.167-0.234,1.496-0.67c-0.074-0.478-0.585-0.461-0.749-1.024c0.767-0.083,0.94-0.828,1.236-1.296
		c0.756-0.197,1.418,0.064,2.133-0.277c-0.728-0.974-0.961-1.952-0.401-2.939c0.912-0.255,1.589,0.532,2.405,0.212
		c-0.119-0.733-0.968-1.031-1.069-1.82c0.338-0.29,0.95-0.227,1.104-0.773c-0.475-0.383-0.953-0.769-1.395-1.126
		c0.279-0.592,0.959-0.477,1.193-1.087c0.332-0.284-0.482-0.654-0.07-1.036c0.617,0.07,1.244,0.403,1.907-0.149
		c-0.533-0.735-1.572-0.944-1.834-1.929c0.558-0.136,1.009-0.246,1.422-0.346c0.181-0.653-0.671-0.85-0.535-1.438
		c0.673-0.082,1.341,0.277,1.997,0.012c-0.156-0.67-0.918-0.704-0.988-1.369c1.211-0.078,2.239,0.797,3.587,0.688
		c-0.765-1.555-2.313-1.662-3.482-2.309c0.917-0.787,1.962-0.014,2.942-0.258c-0.459-0.835-1.323-1.205-1.97-2.051
		c1.614,0.2,2.809,1.504,4.445,0.928c-1.149-1.033-2.68-1.455-3.804-2.725c1.379-0.033,2.414,0.839,3.635,0.603
		c-0.049-0.559-0.451-0.752-0.753-1.03c-0.284-0.261-0.764-0.395-0.658-0.965c0.894-0.333,1.699,0.559,2.599,0.234
		c0.115-0.514-0.618-0.726-0.415-1.249c0.772-0.33,1.513,0.346,2.297,0.078c-0.436-0.928-1.487-1.354-1.898-2.304
		c0.818-0.339,1.538,0.22,2.261,0.193c0.312-0.674-0.598-1.024-0.304-1.654c0.747,0.187,1.464,0.367,2.196,0.55
		c0.196-0.976-0.776-1.388-0.781-2.26c0.872,0.05,1.663,0.604,2.561,0.526c0.12-0.869-0.836-1.21-0.766-1.965
		c0.933-0.521,1.675,0.463,2.617,0.451c-0.295-0.6-0.882-0.82-1.028-1.389c0.342-0.569,1.283-0.375,1.46-1.128
		c-0.199-0.524-0.89-0.819-0.705-1.575c0.688-0.05,1.331-0.097,2.047-0.149c-0.229-0.781-1.103-0.975-1.306-1.653
		c0.408-0.525,0.827-0.393,1.297-0.16c0.442,0.219,0.772,0.715,1.414,0.689c-0.453-1.328-1.797-1.826-2.408-3.142
		c1.231,0.327,2.313,0.615,3.396,0.902c0.159,0.123,0.324,0.326,0.5,0.055c0.027-0.042-0.155-0.219-0.24-0.334
		c-0.819-1.095-2.38-1.539-2.794-3.177c1.416,0.108,2.098,1.931,3.743,1.406c-1.106-1.318-2.484-2.258-3.339-4.026
		c1.841,0.738,2.961,2.072,4.746,2.741c-1.002-1.908-2.946-2.632-4.062-4.527c1.781,0.405,2.622,2.186,4.4,1.903
		c-1.119-2.285-3.813-2.787-5.13-4.949c1.169-0.193,1.952,0.665,2.893,0.532c-0.722-1.841-2.888-2.255-3.795-3.795
		c0.204-0.54,0.85-0.211,1.007-0.755c-1.836-1.207-3.866-2.001-5.851-3.358c1.786-0.453,2.945,0.786,4.559,0.754
		c-1.425-1.153-2.947-1.665-4.508-2.401c0.614-0.567,1.5-0.184,1.845-0.952c-1.565-0.487-3.173-0.878-4.339-2.187
		c-0.237-0.266-0.766-0.334-1.172-0.376c-2.498-0.255-4.986-0.624-7.512-0.546c-1.261,0.039-2.362,0.302-2.954,1.365
		c-0.587,0.285-0.958-0.535-1.433-0.04c0.005,0.357,0.247,0.684,0.088,1.061c-1.323,0.365-1.882,1.776-2.88,2.24
		c-0.919,0.235-1.572-0.483-2.285-0.062c0.311,0.955,0.616,1.894,0.92,2.83c-1.026-0.039-1.263-1.011-1.955-1.443
		c-0.275,1.001,0.644,1.614,0.558,2.4c-0.349,0.343-0.78-0.19-1.081,0.353c0.045,0.395,0.1,0.886,0.153,1.358
		c-0.469,0.108-0.685-0.427-1.12-0.174c-0.212,0.459,0.203,0.893,0.139,1.415c-1.874,1.707-2.264,4.253-3.218,6.444
		C201.614,222.561,201.409,221.934,200.898,221.747z M236.817,204.72c1.713,1.511,3.137,3.078,4.055,5.102
		c0.693,1.526,1.209,1.636,2.885,1.126c0.163-0.05,0.33-0.09,0.556-0.151c0.974,2.188,2.176,4.237,2.96,6.405
		c0.467,0.192,0.583-0.541,1.097-0.153c0.313,1.865,0.962,3.699,2.063,5.372c0.498,0.758,0.649,1.658,0.643,2.577
		c-0.008,1.319-0.001,2.638,0.022,3.956c0.007,0.402-0.044,0.865,0.575,1.059c0.951-3.732,0.116-7.673,1.292-11.283
		c0.312-0.325,0.793-0.15,0.998-0.6c0.207-2.73-0.205-5.731,2.527-7.726c0.596,0.627,0.848,1.28,1.061,1.976
		c0.502,1.642,0.331,3.328,0.39,4.998c0.039,1.117,0.037,2.235,0.612,3.541c0.208-2.666,0.181-5.06-0.023-7.445
		c-0.181-2.123-1.094-3.773-3.312-4.41c-0.219-0.063-0.46-0.145-0.683-0.742c0-1.512,0.013-3.367-0.004-5.221
		c-0.015-1.625-0.05-1.555-1.615-1.991c-2.09-0.582-3.98-1.454-4.157-4.046c-0.006-0.088-0.143-0.166-0.209-0.239
		c-0.442-0.064-0.739,0.48-1.371,0.132c-0.71-1.239-2.008-2.067-3.398-2.802c-0.468-0.248-0.886-0.619-1.269-0.993
		c-1.73-1.687-3.896-2.59-6.161-3.118c-1.655-0.386-2.993-1.101-4.18-2.256c-0.806-0.785-1.474-1.734-2.556-2.335
		c-1.198,0.705-2.54,0.601-3.954,0.561c0.549,0.549,1.352,0.444,1.728,1.103c-0.669,0.597-1.367,0.58-2.164,0.388
		c-0.982-0.236-1.955-0.581-2.995-0.505c-2.506,0.182-5.026,0.396-7.453,1.006c-3.401,0.855-5.63,3.287-7.262,6.252
		c-0.859,1.561-1.327,3.285-1.315,5.024c1.575,1.162,3.202,1.572,5.012,1.367c0.771-0.088,1.556-0.042,2.335-0.064
		c1.574-0.044,2.9,0.49,3.918,1.754c0.564-1.445,2.074-2.076,3.468-1.324c1.759,0.949,3.665,1.474,5.552,1.969
		c1.796,0.471,3.762,1.014,5.292-0.74c1.623,0.933,1.583,2.985,2.938,4.065C235.405,205.786,236.073,205.282,236.817,204.72z
		 M229.097,257.563c0.091-0.085,0.229-0.164,0.219-0.214c-0.096-0.499-0.861-0.586-0.793-1.274c1.04-0.064,1.929,0.563,2.951,0.59
		c-0.362-0.894-1.36-1.214-1.708-2.33c0.799,0.269,1.39,0.468,2,0.673c0.364-0.489,0.681-0.914,0.987-1.325
		c0.445-0.08,0.84-0.152,1.246-0.225c-0.199-0.605-0.821-0.919-0.857-1.595c1.569-0.747,3.253-1.402,3.246-3.346
		c0.552-0.819,1.513-0.505,2.041-1.322c0-0.62,0-1.382,0-2.146c0.721-0.244,1.4,0.081,2.012-0.198
		c-0.058-0.672-0.912-0.428-1.139-0.964c0.566-0.746,1.36-1.2,2.111-1.645c1.137-0.673,1.64-1.653,1.394-2.849
		c-0.331-1.606-0.282-3.166,0.024-4.747c0.031-0.159-0.006-0.338-0.257-0.438c-0.607,0.271-0.88,1.189-1.698,1.127
		c-0.87-0.066-1.275,0.505-1.734,1.062c-1.674,2.038-3.114,4.237-4.483,6.485c-0.439,0.722-0.851,1.453-1.867,1.517
		c-0.136,1.541-0.541,2.877-2.044,3.566c-0.203,0.093-0.364,0.312-0.503,0.503c-1.154,1.592-2.842,2.755-3.683,4.606
		c-0.14,0.309-0.431,0.616-0.731,0.773c-1.455,0.76-2.023,2.122-2.532,3.545c-0.584,1.632-1.228,3.233-2.686,4.205
		c1.653,2.357,3.408,0.848,5.175,0.275c-0.209-0.7-0.973-1.018-1.125-1.749c2.369-0.043,3.109-0.221,4.573-1.085
		c-0.981-0.543-1.947-1.077-3.083-1.705C227.365,256.811,228.226,257.344,229.097,257.563z M117.559,172.946
		c0.734-0.316,1.186-0.468,1.595-0.696c1.218-0.68,2.731-1.056,2.847-2.876c0.025-0.393,0.514-0.647,0.88-0.847
		c0.675-0.368,1.33-0.791,2.123-0.954c1.421,0.647,2.655,1.59,3.925,2.48c1.267,0.887,2.475,1.88,3.997,2.345
		c0.983,0.3,2.037,0.681,2.887-0.085c0.978-0.882,0.447-1.986,0.084-2.999c-0.034-0.094-0.173-0.151-0.198-0.172
		c-0.749-0.244-1.345,0.028-1.974,0.245c-0.633,0.218-1.326,0.681-1.993-0.094c0.134-0.864,0.251-1.746,0.413-2.62
		c0.17-0.92-0.143-1.894-0.848-2.16c-0.744-0.28-1.08-0.868-1.658-1.29c-0.506,0.118-1.002,0.233-1.456,0.339
		c-0.364-0.435-0.156-1.047-0.585-1.27c-0.626-0.239-1.097,0.298-1.638,0.128c-1.028-0.327-1.773-1.17-2.664-1.561
		c-2.471,1.575-3.501,3.814-3.512,6.541c-0.396,0-0.671,0-1.047,0C118.707,169.223,118.282,170.947,117.559,172.946z
		 M136.909,159.436c-2.509-0.248-4.3-2.107-6.467-2.083c-0.464-0.44-0.026-0.854-0.501-1.237c-1.194-0.021-2.441,0.343-3.57,0.501
		c-0.586,0.503-0.496,1.069-0.659,1.482c0.476,0.805,1.175,1.16,1.889,1.465c0.546,0.233,1.127,0.388,1.698,0.559
		c3.161,0.95,5.174,3.077,6.314,6.116c0.441,1.174,0.846,2.356,1.08,3.591c0.115,0.607,0.328,1.115,0.927,1.441
		c1.76,0.959,3.51,0.836,5.235,0.222c0.571-2.385,0.234-3.354-1.342-4.169c-0.734,0.252-0.173,1.17-0.971,1.598
		c-0.766,0.102-1.74,0.232-2.774,0.37c0.143-2.641,2.17-3.282,4.07-4.09c-1.398-2.01-3.347-3.137-5.069-4.176
		C136.518,160.343,136.686,159.956,136.909,159.436z"/>
	<path style="fill:#0F4D7A;" d="M245.235,256.544c0.023-4.086,3.167-6.944,7.541-6.855c3.847,0.078,6.599,3.1,6.577,7.222
		c-0.021,4.127-3.142,7.103-7.425,6.99C247.3,263.778,245.013,259.685,245.235,256.544z M249.626,252.981
		c-0.263,2.605-0.309,5.127-0.255,7.636c0.908,0.151,1.493-0.03,1.894-0.556c0.281-0.731-0.107-1.467,0.233-2.184
		c1.205,0.565,1.325,1.991,2.338,2.746c0.461-0.081,0.99,0.231,1.519-0.214c-0.069-0.973-0.775-1.7-1.1-2.618
		c0.97-1.082,1.442-2.307,1.031-3.798C253.584,252.686,251.649,252.81,249.626,252.981z"/>
	<path style="fill:#3C6A90;" d="M274.386,206.114c-0.65,0.285,0.023,1.128-0.602,1.424c0.067-2.211-0.544-4.354-0.7-6.546
		C273.818,202.632,274.32,204.319,274.386,206.114z"/>
	<path style="fill:#CA254D;" d="M71.688,116.466c-3.212-2.19-6.448-3.989-9.135-6.546c0.254-0.982,0.847-1.672,1.355-2.394
		c1.478-2.102,2.973-4.194,4.511-6.253c2.431-3.255,4.85-3.592,8.1-1.114c1.499,1.143,2.843,2.413,2.661,4.581
		c-0.062,0.737-0.211,1.441-0.591,2.044C76.519,110.068,74.313,113.256,71.688,116.466z"/>
	<path style="fill:#CA254D;" d="M276.772,54.055c0.63-0.166,0.994,0.131,1.335,0.319c2.565,1.413,5.127,2.843,7.466,4.617
		c3.499,2.654,4.646,6.037,3.163,10.144c-1.765,4.887-4.528,9.221-8.145,12.96c-2.353,2.432-5.157,3.037-8.364,1.746
		c-2.348-0.945-4.442-2.323-6.585-3.622c-1.061-0.643-2.204-1.179-3.243-2.195C267.215,69.994,272.024,61.973,276.772,54.055z"/>
	<path style="fill:#CA254D;" d="M209.665,51.199c2.608,4.187,5.157,8.28,7.715,12.389c-0.732,1.241-1.903,1.74-3.059,2.154
		c-3.331,1.191-6.972,0.244-8.599-2.147c-2.083-3.061-1.94-7.008,0.414-9.833C207.013,52.71,207.98,51.726,209.665,51.199z"/>
	<path style="fill:#CA254D;" d="M213.873,42.81c-1.628-1.599-2.551-3.434-2.393-5.744c0.198-2.888,2.943-4.351,5.441-2.88
		c1.392,0.82,1.915,2.718,1.212,4.613C217.384,40.818,215.946,42.131,213.873,42.81z"/>
	<path style="fill:#C9254D;" d="M255.422,350.64c0.244,0.126,0.283,0.32,0.181,0.573c-0.286,0.026-0.282-0.25-0.403-0.392
		C255.276,350.763,255.35,350.703,255.422,350.64z"/>
	<path style="fill:#CA254D;" d="M132.689,344.353c0.361-5.847,2.446-10.907,6.926-14.83c2.242-1.963,4.889-2.706,7.83-2.223
		c2.421,0.398,4.102,1.901,5.271,3.956c1.614,2.836,1.836,5.912,1.151,9.039c-0.804,3.669-2.319,7.033-4.782,9.908
		c-1.67,1.951-3.657,3.39-6.287,3.844c-3.889,0.673-7.986-1.59-9.354-5.29C132.924,347.348,132.618,345.888,132.689,344.353z"/>
	<path style="fill:#F8E0CA;" d="M236.505,228.935c-1.082-0.288-2.165-0.575-3.396-0.902c0.612,1.316,1.956,1.814,2.408,3.142
		c-0.641,0.026-0.971-0.47-1.414-0.689c-0.47-0.232-0.889-0.365-1.297,0.16c0.204,0.678,1.077,0.872,1.306,1.653
		c-0.716,0.052-1.359,0.099-2.047,0.149c-0.185,0.756,0.507,1.052,0.705,1.575c-0.177,0.754-1.118,0.559-1.46,1.128
		c0.147,0.569,0.733,0.789,1.028,1.389c-0.942,0.012-1.684-0.973-2.617-0.451c-0.07,0.755,0.887,1.096,0.766,1.965
		c-0.898,0.078-1.69-0.476-2.561-0.526c0.005,0.872,0.977,1.284,0.781,2.26c-0.732-0.183-1.45-0.363-2.196-0.55
		c-0.294,0.63,0.616,0.98,0.304,1.654c-0.723,0.026-1.443-0.533-2.261-0.193c0.411,0.951,1.463,1.377,1.898,2.304
		c-0.784,0.268-1.525-0.408-2.296-0.077c-0.203,0.523,0.529,0.734,0.415,1.248c-0.9,0.325-1.705-0.568-2.599-0.234
		c-0.106,0.571,0.374,0.704,0.658,0.965c0.302,0.278,0.704,0.472,0.753,1.03c-1.222,0.236-2.256-0.636-3.635-0.603
		c1.124,1.27,2.655,1.692,3.804,2.725c-1.636,0.576-2.831-0.728-4.445-0.928c0.647,0.846,1.511,1.216,1.97,2.051
		c-0.979,0.244-2.025-0.529-2.942,0.258c1.169,0.647,2.718,0.754,3.482,2.309c-1.348,0.108-2.377-0.766-3.587-0.688
		c0.07,0.665,0.832,0.699,0.988,1.369c-0.655,0.266-1.324-0.093-1.997-0.012c-0.136,0.588,0.716,0.785,0.535,1.438
		c-0.413,0.101-0.864,0.211-1.422,0.346c0.261,0.985,1.301,1.194,1.834,1.929c-0.663,0.552-1.289,0.219-1.907,0.149
		c-0.412,0.383,0.402,0.752,0.07,1.036c-0.234,0.61-0.914,0.496-1.193,1.087c0.442,0.357,0.92,0.743,1.395,1.126
		c-0.154,0.546-0.766,0.483-1.104,0.773c0.101,0.788,0.95,1.086,1.069,1.82c-0.816,0.32-1.493-0.467-2.405-0.212
		c-0.56,0.987-0.327,1.965,0.401,2.939c-0.715,0.341-1.377,0.08-2.133,0.277c-0.296,0.468-0.468,1.212-1.236,1.296
		c0.164,0.563,0.675,0.546,0.749,1.024c-0.329,0.436-0.972,0.381-1.496,0.67c-0.327,0.731,0.038,1.488,0.041,2.222
		c-0.113,0.401-0.393,0.747-0.727,0.746c-1.199-0.005-1.789,0.83-2.43,1.612c-1.29,1.573-2.544,3.18-4.21,4.391
		c-0.435,0.316-0.844,0.704-1.329,0.906c-0.962,0.401-1.817,0.884-2.386,1.802c-0.327,0.528-0.931,0.735-1.425,1.067
		c-1.544,1.041-1.653,1.297-1.296,3.115c0.068,0.347,0.154,0.69,0.227,1.016c-0.561,0.464-1.226,0.072-2.015,0.48
		c-0.537,0.314-0.572,1.154-0.749,1.884c-0.397,1.641-1.267,2.958-2.568,3.997c-2.87,2.291-6.058,3.891-9.796,3.924
		c-3.277,0.029-6.234-0.924-8.529-3.46c-0.661-0.73-1.166-1.512-1.405-2.459c-0.323-1.277-0.624-2.564-1.499-3.607
		c-0.523-0.624-0.212-1.394-0.427-2.189c-0.426,0.322-0.82,0.619-1.266,0.957c-0.347-0.834,0.085-1.618-0.169-2.393
		c-0.434-0.33-0.685,0.31-1.179,0.232c-0.183-0.544-0.384-1.141-0.615-1.827c-0.437,0.545-0.343,1.207-0.869,1.69
		c-0.29-1.455,0.135-2.939-0.343-4.126c-0.413-0.447-0.676,0.14-1.001-0.216c-0.327-0.646-0.004-1.466-0.289-2.193
		c-0.461-0.079-0.651,0.516-1.198,0.435c-0.329-0.693,0.104-1.668-0.654-2.285c-0.545-0.378-0.992,0.176-1.535,0.211
		c-0.345-0.706,0.013-1.391,0.07-2.116c-0.111-0.471-0.578-0.26-0.877-0.385c-0.432-0.181-0.256-0.638-0.469-0.914
		c-0.283-0.153-0.402,0.115-0.571,0.233c-0.193,0.135-0.355,0.325-0.735,0.273c0.258-1.49-1.203-2.591-0.823-4.106
		c-0.526-0.147-0.838,0.375-1.349,0.124c-0.286-0.842,0.151-1.769,0.028-2.676c-0.565,0.034-0.643,0.585-1.03,0.756
		c-0.315-0.786,0.341-1.49,0.168-2.277c-0.233-0.408-0.644,0.198-0.976-0.231c0.011-0.963,0.514-1.969,0.408-3.084
		c-0.592-0.487-1.433-0.478-2.152-0.948c-0.338-0.96,0.619-1.896,0.211-2.917c-0.746,0.335-0.795,1.347-1.641,1.647
		c-0.232-1.005,0.593-1.945,0.12-3.053c-0.519,0.926-1.001,1.786-1.586,2.829c-0.121-1.954,1.06-3.535,0.628-5.335
		c-0.737,0.312-0.615,1.259-1.426,1.713c-0.111-1.488,0.532-2.782,0.587-4.19c-0.264,0.135-0.505,0.259-0.855,0.438
		c-0.331-0.948,0.408-1.686,0.377-2.587c-0.356-0.454-0.678,0.079-1.121,0.18c0.043-0.842-0.282-1.491-1.133-1.786
		c0.271-0.709,0.501-1.309,0.721-1.884c-0.269-0.377-0.687-0.189-0.996-0.282c-0.249-0.821,0.504-1.378,0.379-2.088
		c-0.285-0.599-0.723-0.101-1.162-0.163c-0.137-0.887,0.647-1.507,0.702-2.228c0.082-0.64-0.572-0.394-0.788-1.031
		c-0.148-0.625,0.639-1.35,0.605-2.269c-0.729-0.091-0.962,0.612-1.489,0.869c-0.496-0.806,0.501-1.527,0.133-2.343
		c-0.766-0.176-0.751,0.744-1.35,0.945c-0.078-1.5,1.669-2.576,0.973-4.163c-0.72,0.026-0.713,1.019-1.489,0.969
		c-0.137-0.638,0.475-1.152,0.316-1.779c-0.35-0.52-0.762,0.157-1.205-0.11c-0.34-0.943,0.589-1.699,0.555-2.634
		c-0.327-0.245-0.499,0.153-0.837,0.193c-0.218-0.891,1.012-1.53,0.468-2.451c-0.476-0.068-0.689,0.438-1.225,0.517
		c0.272-3.314-0.429-6.524-0.788-9.817c-0.526,0.193-0.902,0.331-1.298,0.477c-0.226-0.541,0.382-0.891,0.209-1.513
		c-1.094-0.864-1.478-2.218-1.77-3.639c-0.396-1.928-0.798-3.859-1.309-5.76c-0.399-1.484-0.684-2.911,0.197-4.169
		c-0.004-0.782-0.721-0.433-1.01-0.99c-0.208-0.771,0.603-1.823-0.158-2.739c-0.391-0.221-0.635,0.271-1.037,0.197
		c-0.254-0.387,0.351-0.866-0.13-1.295c-0.432,0.198-0.893,0.41-1.393,0.639c-0.16-0.791,0.506-1.337,0.447-2.002
		c-0.607-0.399-0.737,0.238-1.164,0.425c-0.492-1.03-1.559-1.158-2.461-1.435c-0.819-0.797-1.161-1.896-2.124-2.387
		c-0.006-1.334,1.045-2.039,1.721-3.404c-0.941,0.645-1.542,1.057-2.153,1.476c0.264-2.614,4.231-6.071,8.795-7.593
		c-0.41,1.068-1.011,1.973-1.097,3.196c1.365,1.266,2.028,3.035,2.585,4.913c-0.824,1.066-1.983,1.852-2.823,3.339
		c1.19-0.28,1.657-1.201,2.536-1.405c1.092,0.513,1.729,1.45,1.883,2.621c0.184,1.399,0.738,2.641,1.337,3.875
		c0.504,1.039,0.895,2.125,0.834,3.266c-0.075,1.397,0.366,2.564,1.102,3.704c0.54,0.835,1.135,1.717,0.402,2.716
		c0.455,0.359,0.791,0.148,1.113,0.033c0.373-0.133,0.69-0.125,1.064,0.282c-0.424,0.799-0.862,1.623-1.331,2.506
		c0.149,0.435,0.588,0.642,0.956,0.979c2.756-0.306,3.679-2.796,5.289-4.422c-0.159-0.765-0.872-0.507-1.312-0.812
		c0.216-0.422,0.43-0.837,0.622-1.211c-0.185-0.316-0.351-0.078-0.502-0.098c-0.719-0.096-0.858,0.817-1.498,0.852
		c-0.067-0.072-0.137-0.141-0.209-0.209c0.274-0.969,0.708-1.904,0.546-2.958c-0.09-0.583,0.532-0.895,0.611-1.433
		c-0.375-0.545-1.044-0.822-1.304-1.46c-0.079-0.301-0.089-0.623,0.101-0.862c0.881-1.104,0.601-2.105-0.228-3.071
		c-0.354-0.412-0.656-0.84-0.758-1.398c-0.157-0.859-0.673-1.518-1.279-2.018c0.016-0.661,0.51-0.866,0.815-1.21
		c-0.14-0.618-0.887-0.553-1.16-1.041c0.06-0.537,0.807-0.417,0.918-0.92c-0.245-0.613-1.029-0.157-1.327-0.674
		c-0.068-0.554,0.715-0.628,0.679-1.14c-0.155-0.489-0.667-0.22-0.911-0.522c0.474-0.796,1.569-1.007,1.997-1.881
		c-0.31-0.702-0.848-0.25-1.266-0.322c-0.057-0.062-0.118-0.122-0.18-0.179c0.155-0.574,0.309-1.149,0.486-1.806
		c0.745-0.586,1.539-1.211,2.389-1.879c-0.263-2.084,1.199-2.803,2.761-3.431c0.72-0.289,1.471-0.507,2.169-0.839
		c1.074-0.511,1.702-1.359,1.442-2.593c-0.139-0.66,0.142-1.146,0.373-1.684c0.734-1.713,1.726-3.277,2.77-4.809
		c0.667-0.98,0.968-2.023,0.827-3.218c-0.206-1.746-0.993-2.954-2.677-3.69c-3.01-1.316-4.794-3.649-5.311-6.936
		c-0.279-1.769,0.064-2.952,1.458-4.406c0.188,0.079,0.413,0.146,0.609,0.262c0.305,0.18,0.672,0.281,0.92,0.823
		c-0.355,2.01,1.016,3.221,2.65,4.254c0.857,0.542,1.748,1.033,2.609,1.538c0.399-0.233,0.756-0.442,1.119-0.654
		c0.482,0.58-0.039,1.019-0.145,1.532c0.085,0.129,0.165,0.292,0.282,0.421c0.853,0.943,1.931,1.61,2.967,2.314
		c1.149,0.78,1.687,1.822,1.675,3.18c-0.017,1.859,0.107,3.703,0.357,5.549c0.228,1.682-0.285,3.184-1.516,4.392
		c0.368,0.493,0.93,0.531,1.522,0.656c-0.446,0.754-1.245,0.74-1.822,1.095c-0.182,0.451,0.511,0.643,0.325,1.098
		c-1.003,0.637-2.491,0.569-2.983,1.965c0.382,1.166,1.715,0.493,2.224,1.312c-0.741,0.677-1.953,0.472-2.814,1.237
		c0.779,1.171,1.758-0.052,2.547,0.306c0.144,0.491-0.249,0.623-0.56,0.734c-1.194,0.426-2.289,0.95-3.062,2.042
		c-0.382,0.54-1.051,0.771-1.712,0.89c-0.354,0.063-0.728,0.059-0.941,0.505c1,1.257,2.411,0.499,3.694,0.668
		c-0.306,1.038-0.954,1.815-1.444,2.713c-1.462,0.287-2.94,0.449-4.431,0.444c-0.102,1.036,0.872,1.13,1.325,1.848
		c-0.043,1.486,0.371,3.016,1.166,4.453c0.461,0.834,0.154,1.754,0.162,2.574c0.22,0.623,0.92,0.328,1.213,0.772
		c0.151,0.625-0.571,1.036-0.396,1.929c0.286,0.792,1.011,1.779,0.438,2.922c0.437,0.424,0.825,0.111,1.32,0.03
		c0.058,0.627-0.54,1.133-0.152,1.908c1.659,1.156,2.547,3.149,3.602,5.001c1.087,1.91,0.855,2.753-0.812,4.198
		c-0.724,0.628-1.756,1.045-1.78,2.32c1.326-0.562,2.031-1.96,3.482-2.194c0.555,0.299,0.652,0.818,0.749,1.471
		c-0.596,1.565-3.17,1.741-3.123,3.999c1.306-0.297,1.736-1.664,3.055-2.228c-0.225,1.154-1.148,1.781-1.352,2.971
		c0.865-0.471,1.594-0.869,2.694-1.469c-0.682,1.449-2.209,1.961-2.271,3.471c0.727-0.055,1.186-0.671,1.834-0.847
		c0.404,0.67-0.653,1.042-0.308,1.833c1.321-0.669,2.363-1.808,4.036-2.229c0.553,2.144,1.504,4.094,3.299,5.341
		c0.325,2.315-2.272,3.203-2.212,5.331c1.536,0.846,2.088-1.061,3.527-1.442c-0.561,1.494-2.15,2.106-2.063,3.61
		c1.423,0.368,1.287-1.626,2.613-1.645c-0.619,2.444,0.821,4.104,2.321,5.598c1.929,1.921,3.158,4.14,3.821,6.754
		c0.455,1.795,1.043,3.564,2.506,4.796c-0.736,2.489-2.093,3.099-4.906,2.239c-0.537,0.442-0.975,0.988-1.364,1.762
		c0.796,0.693,1.595,1.389,2.499,2.177c0.639-1.464,2.201-1.651,3.246-2.588c0.522,0.801-0.435,1.374-0.133,2.213
		c0.843-0.414,1.179-1.453,2.15-1.749c0.07,0.991-0.941,1.65-0.748,2.734c0.569-0.191,1.056-0.354,1.646-0.553
		c0.063,1.333-0.718,2.48-0.723,3.771c0.687,0.045,0.85-0.808,1.483-0.8c0.339,0.785-0.393,1.477-0.246,2.305
		c0.838-0.145,0.978-1.043,1.678-1.34c0.436,1.012-0.399,1.917-0.241,2.928c0.659,0.014,0.69-0.941,1.35-0.853l0.071,0.069
		c0.079,0.784-0.059,1.539-0.254,2.298c-0.164,0.635-0.312,1.312,0.387,1.786c0.548-0.769,0.491-1.816,1.155-2.551
		c0.321,0.595-0.011,1.207,0.21,2.033c0.779-0.785,1.299-1.588,1.672-2.468c1.121-2.651,2.007-5.387,2.116-8.279
		c0.09-2.38,0.556-4.728,0.427-7.136c0.676,0.124,0.637,0.924,1.298,1.087c0.543-1.369-0.725-2.528-0.504-4.017
		c0.804,1.075,1.436,2.18,3.03,1.97c0.668-0.437,0.508-1.423,1.018-2.215c1.003,1.323,2.216,2.397,3.651,3.362
		c0.219-0.665-0.502-1.008-0.477-1.594c0.571-0.177,0.959,0.382,1.513,0.379c0.297-0.519-0.281-1.171,0.167-1.643
		c0.178-0.604,1.011-0.093,1.142-0.907c-0.767-1.046-1.582-2.21-2.451-3.331c-1.355-1.75-2.116-3.712-2.297-5.916
		c-0.093-1.135-0.338-2.241-0.92-3.238c1.411-1.387,1.374-3.064,0.905-4.858c0.785,0.217,0.901,1.104,1.718,1.203
		c-0.222-1.575-1.27-3.135-0.243-4.781c0.641,0.304,0.645,1.091,1.36,1.317c0.528-1.218-0.735-2.027-0.704-3.093
		c0.094-0.083,0.188-0.167,0.282-0.25c0.511,0.187,0.716,0.814,1.489,0.944c0.954-2.19,1.343-4.737,3.218-6.444
		c0.064-0.522-0.351-0.956-0.139-1.415c0.434-0.253,0.651,0.282,1.12,0.174c-0.053-0.472-0.109-0.962-0.153-1.358
		c0.301-0.543,0.732-0.009,1.081-0.353c0.086-0.786-0.832-1.399-0.558-2.4c0.692,0.432,0.929,1.404,1.955,1.443
		c-0.304-0.935-0.61-1.874-0.92-2.83c0.713-0.421,1.366,0.297,2.285,0.062c0.999-0.464,1.557-1.876,2.88-2.24
		c0.159-0.377-0.083-0.704-0.088-1.061c0.475-0.495,0.846,0.325,1.433,0.04c0.592-1.062,1.693-1.326,2.954-1.365
		c2.526-0.078,5.014,0.291,7.512,0.546c0.406,0.041,0.936,0.11,1.172,0.376c1.166,1.309,2.774,1.7,4.339,2.187
		c-0.345,0.768-1.231,0.385-1.845,0.952c1.562,0.736,3.084,1.248,4.508,2.401c-1.613,0.032-2.773-1.207-4.559-0.754
		c1.985,1.357,4.015,2.152,5.851,3.358c-0.157,0.543-0.803,0.215-1.007,0.755c0.907,1.54,3.074,1.953,3.795,3.795
		c-0.941,0.133-1.724-0.725-2.893-0.532c1.317,2.163,4.011,2.664,5.13,4.949c-1.777,0.283-2.618-1.498-4.4-1.903
		c1.116,1.895,3.061,2.618,4.062,4.527c-1.785-0.669-2.906-2.003-4.746-2.741c0.855,1.768,2.233,2.709,3.339,4.026
		c-1.645,0.525-2.327-1.298-3.743-1.406c0.414,1.638,1.975,2.082,2.794,3.177C236.678,228.749,236.592,228.842,236.505,228.935z"/>
	<path style="fill:#F2DDC9;" d="M229.097,257.563c-0.871-0.219-1.733-0.752-2.942-0.229c1.136,0.628,2.102,1.162,3.083,1.705
		c-1.465,0.864-2.205,1.042-4.573,1.085c0.153,0.731,0.916,1.049,1.125,1.749c-1.767,0.573-3.522,2.082-5.175-0.275
		c1.458-0.973,2.101-2.573,2.686-4.205c0.51-1.423,1.078-2.785,2.532-3.545c0.3-0.157,0.591-0.465,0.731-0.773
		c0.841-1.851,2.529-3.014,3.683-4.606c0.139-0.191,0.3-0.41,0.503-0.503c1.503-0.689,1.908-2.025,2.044-3.566
		c1.016-0.064,1.427-0.795,1.867-1.517c1.368-2.248,2.808-4.447,4.483-6.485c0.458-0.558,0.863-1.129,1.734-1.062
		c0.818,0.062,1.091-0.856,1.698-1.127c0.251,0.101,0.287,0.279,0.257,0.438c-0.306,1.582-0.355,3.141-0.024,4.747
		c0.246,1.196-0.257,2.176-1.394,2.849c-0.751,0.444-1.545,0.898-2.111,1.645c0.227,0.536,1.081,0.292,1.139,0.964
		c-0.612,0.279-1.291-0.047-2.012,0.197c0,0.764,0,1.526,0,2.146c-0.528,0.817-1.489,0.503-2.041,1.322
		c0.008,1.944-1.677,2.599-3.246,3.346c0.035,0.675,0.658,0.99,0.857,1.595c-0.406,0.073-0.801,0.145-1.246,0.225
		c-0.306,0.411-0.623,0.836-0.987,1.325c-0.61-0.205-1.202-0.404-2-0.673c0.348,1.116,1.346,1.436,1.708,2.33
		c-1.022-0.026-1.911-0.654-2.951-0.59c-0.068,0.687,0.697,0.775,0.793,1.274C229.326,257.4,229.188,257.478,229.097,257.563z"/>
	<path style="fill:#F2DDC9;" d="M117.559,172.946c0.723-1.999,1.148-3.723,1.179-5.545c0.376,0,0.651,0,1.047,0
		c0.011-2.728,1.041-4.966,3.512-6.541c0.891,0.39,1.635,1.233,2.664,1.561c0.541,0.17,1.012-0.367,1.638-0.128
		c0.429,0.223,0.221,0.835,0.585,1.27c0.454-0.106,0.951-0.221,1.456-0.339c0.577,0.422,0.913,1.01,1.658,1.29
		c0.706,0.266,1.019,1.24,0.848,2.16c-0.161,0.873-0.278,1.755-0.413,2.62c0.667,0.774,1.36,0.312,1.993,0.094
		c0.628-0.217,1.225-0.489,1.974-0.245c0.025,0.021,0.164,0.078,0.198,0.172c0.364,1.013,0.895,2.117-0.084,2.999
		c-0.849,0.766-1.903,0.386-2.887,0.085c-1.522-0.465-2.73-1.457-3.997-2.345c-1.271-0.89-2.504-1.832-3.925-2.48
		c-0.793,0.162-1.448,0.586-2.123,0.954c-0.366,0.2-0.855,0.453-0.88,0.847c-0.116,1.82-1.629,2.196-2.847,2.876
		C118.744,172.478,118.292,172.63,117.559,172.946z"/>
	<path style="fill:#F2DDC9;" d="M136.909,159.436c-0.223,0.521-0.39,0.907-0.141,1.59c1.722,1.039,3.671,2.166,5.069,4.176
		c-1.9,0.809-3.927,1.449-4.07,4.09c1.034-0.138,2.008-0.268,2.774-0.37c0.798-0.428,0.237-1.346,0.971-1.598
		c1.577,0.816,1.913,1.784,1.342,4.169c-1.725,0.614-3.475,0.737-5.235-0.222c-0.599-0.326-0.812-0.834-0.927-1.441
		c-0.234-1.235-0.639-2.417-1.08-3.591c-1.14-3.038-3.153-5.165-6.314-6.116c-0.571-0.172-1.152-0.326-1.698-0.559
		c-0.714-0.305-1.413-0.661-1.889-1.465c0.163-0.413,0.074-0.979,0.659-1.482c1.129-0.158,2.376-0.521,3.57-0.501
		c0.476,0.383,0.038,0.796,0.501,1.237C132.609,157.329,134.399,159.188,136.909,159.436z"/>
	<path style="fill:#E6EAEE;" d="M203.98,120.115c0.191-0.03,0.283-0.152,0.312-0.333c0.495,0.624,1.017,1.234,1.041,2.109
		C204.74,121.397,204.277,120.82,203.98,120.115z"/>
	<path style="fill:#F8E0CA;" d="M200.616,221.997c-0.237-0.154-0.265-0.366-0.164-0.628c0.306-0.064,0.302,0.249,0.446,0.377
		C200.804,221.83,200.71,221.914,200.616,221.997z"/>
	<path style="fill:#F8E0CA;" d="M236.765,228.656c0.085,0.115,0.267,0.292,0.24,0.334c-0.176,0.271-0.341,0.068-0.5-0.055
		C236.592,228.842,236.678,228.749,236.765,228.656z"/>
	<path style="fill:#F8E0CA;" d="M143.667,185.391c-0.103,0.118-0.251,0.258-0.371,0.113c-0.139-0.167,0.052-0.24,0.19-0.292
		C143.549,185.269,143.609,185.328,143.667,185.391z"/>
	<path style="fill:#F8E0CA;" d="M186.628,262.52c0.054-0.076,0.108-0.152,0.162-0.228c0.193,0.167,0.098,0.246-0.091,0.297
		L186.628,262.52z"/>
	<path style="fill:#F8E0CA;" d="M146.44,206.509c-0.056,0.139-0.143,0.296-0.297,0.162c-0.134-0.117-0.024-0.264,0.088-0.37
		C146.303,206.368,146.373,206.437,146.44,206.509z"/>
	<path style="fill:#E6EAEE;" d="M249.626,252.981c2.023-0.171,3.958-0.296,5.661,1.012c0.411,1.491-0.061,2.716-1.031,3.798
		c0.325,0.919,1.031,1.646,1.1,2.618c-0.53,0.445-1.059,0.133-1.519,0.214c-1.013-0.755-1.133-2.181-2.338-2.746
		c-0.34,0.717,0.048,1.453-0.233,2.184c-0.402,0.525-0.986,0.706-1.894,0.556C249.317,258.109,249.363,255.587,249.626,252.981z
		 M251.634,256.005c0.635-0.243,1.486-0.007,1.931-0.888c-0.619-0.576-1.296-0.561-1.984-0.501
		C251.271,255.098,251.294,255.524,251.634,256.005z"/>
	<path style="fill:#0F4D7A;" d="M251.634,256.005c-0.34-0.481-0.363-0.906-0.053-1.389c0.688-0.059,1.365-0.075,1.984,0.501
		C253.12,255.997,252.269,255.762,251.634,256.005z"/>
</g>
</svg>
