<?xml version="1.0" encoding="iso-8859-1"?>
<!-- Generator: Adobe Illustrator 27.0.0, SVG Export Plug-In . SVG Version: 6.00 Build 0)  -->
<svg version="1.1" id="Layer_1" xmlns="http://www.w3.org/2000/svg" xmlns:xlink="http://www.w3.org/1999/xlink" x="0px" y="0px"
	 viewBox="0 0 1910 639" style="enable-background:new 0 0 1910 639;" xml:space="preserve">
<g>
	<path style="fill:#DD4835;" d="M1910,626c-0.337-0.018-0.673-0.036-1.01-0.054c0.003-78.18,0.006-156.36,0.013-234.54
		c0-3.492,0.041-6.985,0.062-10.477c0.311,0.032,0.623,0.055,0.935,0.071C1910,462.667,1910,544.333,1910,626z"/>
	<path style="fill:#E68469;" d="M0.908,436.092l-0.445-0.132L0,436c0-12,0-24,0-36c0.323,0.142,0.632,0.117,0.928-0.074
		C0.921,411.981,0.915,424.036,0.908,436.092z"/>
	<path style="fill:#EDA68E;" d="M210,639c0.06-0.299,0.035-0.591-0.073-0.876c10.044-0.01,20.088-0.02,30.132-0.029
		c-0.146,0.294-0.165,0.595-0.059,0.905C230,639,220,639,210,639z"/>
	<path style="fill:#F3C7B6;" d="M475,0c-0.003,0.281,0.013,0.561,0.049,0.84c-3.367-0.005-6.734-0.01-10.102-0.015
		C464.973,0.55,464.99,0.275,465,0C468.333,0,471.667,0,475,0z"/>
	<path style="fill:#EEAA93;" d="M1909.13,360.928c0.289,0.036,0.579,0.06,0.87,0.072c0,3.333,0,6.667,0,10
		c-0.286-0.034-0.571-0.067-0.857-0.098C1909.138,367.577,1909.134,364.253,1909.13,360.928z"/>
	<path style="fill:#E47459;" d="M1909.143,370.902c0.286,0.031,0.572,0.064,0.857,0.098c0,3.333,0,6.667,0,10
		c-0.312-0.015-0.624-0.039-0.935-0.071C1909.091,377.587,1909.117,374.244,1909.143,370.902z"/>
	<path style="fill:#DA2227;" d="M402.954,215.32c43.85,0,87.13,0,130.428,0c1.335,1.226,0.738,2.821,0.752,4.231
		c0.356,35.493,0.512,70.988,1.044,106.478c0.464,30.987,1.076,61.976,2.151,92.946c0.56,16.121,1.162,32.292,3.678,48.283
		c1.916,12.18,4.573,24.135,10.458,35.172c8.136,15.26,21.046,23.137,37.96,24.696c12.557,1.158,24.916-0.597,37.126-3.479
		c3.864-0.912,7.828-1.491,11.465-3.13c0.531-1.702-0.57-2.943-1.155-4.243c-9.354-20.762-15.168-42.466-18.085-65.046
		c-2.058-15.935-2.466-31.915-1.553-47.87c1.067-18.637,4.724-36.89,10.296-54.758c9.626-30.867,24.63-58.831,45.348-83.609
		c24.354-29.126,53.985-51.089,89.473-65.063c29.336-11.552,59.733-15.656,91.014-13.626c21.035,1.365,41.542,5.459,60.741,14.55
		c36.206,17.144,59.182,44.961,66.946,84.563c6.475,33.023,0.324,64.136-15.535,93.487c-9.699,17.951-22.014,34.111-35.397,49.423
		c-26,29.747-55.766,55.335-87.688,78.49c-4.439,3.22-8.894,6.418-13.386,9.657c1.425,2.115,3.587,3.177,5.555,4.301
		c10.914,6.233,22.486,10.513,35.033,12.328c11.794,1.706,23.587,1.912,35.341,0.621c15.226-1.672,30.098-5.162,44.643-10.088
		c21.033-7.123,40.91-16.636,59.862-28.159c1.66-1.009,3.159-2.448,5.447-2.591c0,27.078,0,54.057,0,81.413
		c-8.799,5.855-17.887,11.641-27.172,17.139c-22.237,13.168-45.515,24.053-70.1,32.038c-15.354,4.987-31.054,8.493-47.084,10.653
		c-17.082,2.301-34.222,2.803-51.356,1.689c-17.113-1.114-33.952-4.236-50.465-9.012c-23.824-6.891-45.988-17.269-66.449-31.283
		c-0.819-0.561-1.644-1.115-2.35-1.594c-2.14-0.19-3.652,0.99-5.294,1.708c-19.48,8.524-39.133,16.598-59.49,22.827
		c-17.666,5.406-35.592,9.815-53.926,12.122c-18.537,2.333-37.123,2.787-55.797,0.68c-17.47-1.971-34.469-5.47-50.542-12.695
		c-18.494-8.313-33.47-20.91-45.012-37.615c-12.134-17.562-18.918-37.22-22.865-57.985c-3.056-16.081-4.099-32.332-4.087-48.693
		c0.059-84.66,0.027-169.321,0.026-253.981C402.954,218.803,402.954,217.311,402.954,215.32z M780.79,463.604
		c1.261-0.749,1.976-1.138,2.656-1.582c16.472-10.743,32.205-22.469,47.131-35.283c15.617-13.407,29.787-28.105,40.951-45.508
		c5.045-7.863,9.311-16.106,11.904-25.136c2.425-8.445,3.452-16.981,1.11-25.599c-3.712-13.659-13.148-21.716-26.306-25.464
		c-14.157-4.033-27.88-1.304-40.643,5.119c-22.29,11.217-38.03,28.856-47.388,51.929c-7.56,18.641-9.054,37.976-5.45,57.801
		C767.551,435.247,773.04,449.53,780.79,463.604z"/>
	<path style="fill:#DA2227;" d="M1909.143,370.902c-0.026,3.343-0.052,6.685-0.078,10.028c-0.022,3.492-0.062,6.985-0.062,10.477
		c-0.007,78.18-0.009,156.36-0.013,234.54c-1.493,0.07-2.986,0.201-4.48,0.201c-43.995,0.011-87.991,0.014-131.986-0.01
		c-1.623-0.001-3.307,0.378-5.216-0.545c0-13.652,0-27.43,0-41.558c-2.326,0.475-3.226,2.127-4.373,3.327
		c-10.67,11.159-22.838,20.359-36.278,27.905c-14.776,8.296-30.663,13.476-47.228,16.721c-16.118,3.158-32.424,3.783-48.753,2.906
		c-25.809-1.386-50.219-8.059-72.376-21.56c-24.434-14.888-40.968-36.323-49.314-63.651c-8.23-26.95-9.266-54.372-2.382-81.782
		c8.53-33.962,29.256-58.379,59.945-74.664c16.149-8.569,33.452-13.741,51.337-17.062c21.057-3.909,42.356-4.972,63.684-3.925
		c27.831,1.367,55.209,5.767,81.807,14.382c1.258,0.407,2.546,0.721,3.888,1.097c1.066-1.125,0.613-2.501,0.597-3.72
		c-0.138-10.869-1.225-21.604-5.3-31.806c-6.319-15.821-18.209-25.914-33.689-32.074c-8.854-3.523-18.157-5.252-27.643-6.174
		c-21.179-2.058-42.217-0.308-63.286,1.773c-24.392,2.409-48.316,7.182-72.01,13.271c-8.204,2.108-16.264,4.707-24.25,7.538
		c-1.703,0.604-3.31,1.602-5.558,1.569c0-34.923,0-69.81,0-104.788c0.958-1.227,2.564-1.238,3.95-1.692
		c22.888-7.504,45.919-14.542,69.4-19.948c22.211-5.113,44.611-9.04,67.389-10.938c19.815-1.65,39.605-1.994,59.395-0.669
		c29.011,1.942,57.413,6.969,84.259,18.753c24.876,10.919,45.973,26.689,61.875,48.936c11.107,15.539,17.536,33.104,21.525,51.621
		c2.948,13.686,4.599,27.556,5.212,41.545C1909.134,364.253,1909.138,367.577,1909.143,370.902z M1769.233,456.594
		c-26.975-11.789-54.352-17.266-83.278-10.244c-9.332,2.265-17.925,6.233-25.213,12.521c-14.859,12.82-18.645,29.513-15.205,47.982
		c3.435,18.446,15.647,29.122,33.226,33.99c9.738,2.697,19.672,2.815,29.678,1.22c20.024-3.191,35.634-13.083,46.572-30.202
		C1765.672,495.179,1769.265,476.663,1769.233,456.594z"/>
	<path style="fill:#DA2127;" d="M1199,625.983c-47.1,0-93.711,0-140.661,0c0-138.136,0-276.325,0-414.748
		c46.74,0,93.467,0,140.582,0c0,20.835,0,41.555,0,63.525c3.82-4.813,6.832-8.725,9.965-12.536
		c14.378-17.487,30.515-33.002,50.34-44.282c16.823-9.572,34.799-15.437,54.166-17.257c23.55-2.213,46.587-0.016,68.851,7.881
		c35.933,12.746,59.939,37.851,73.729,73.053c6.538,16.69,9.844,34.095,11.218,51.945c0.82,10.652,0.881,21.299,0.881,31.96
		c0.003,84.981,0.001,169.962,0.001,254.943c0,1.786,0,3.571,0,5.51c-47.258,0-94.008,0-141.359,0c0-2.07,0-4.006,0-5.941
		c0-72.484,0.066-144.968-0.059-217.452c-0.024-13.665-1.345-27.205-6.458-40.152c-9.251-23.423-28.6-37.016-53.688-37.544
		c-15.439-0.324-29.626,3.219-42.036,12.826c-10.653,8.246-17.33,19.134-21.34,31.784c-3.247,10.242-4.17,20.798-4.161,31.516
		c0.062,73.151,0.032,146.301,0.032,219.452C1199,622.255,1199,624.044,1199,625.983z"/>
	<path style="fill:#DA2227;" d="M240.059,638.095c-10.044,0.01-20.088,0.02-30.132,0.029c-34.453-1.351-67.424-8.95-98.37-24.269
		c-45.124-22.337-77.072-56.979-95.463-103.946c-7.676-19.601-12.2-39.95-14.251-60.888c-0.422-4.308-0.854-8.603-0.935-12.93
		c0.006-12.055,0.013-24.111,0.019-36.166c1.975-30.557,9.347-59.695,23.464-86.936c20.694-39.933,51.797-69.183,92.121-88.806
		c21.347-10.388,43.756-17.348,67.147-21.457c16.122-2.833,32.34-4.122,48.65-4.493c14.174-0.322,28.24,1.274,42.27,3.113
		c18.967,2.487,37.657,6.434,56.244,10.877c4.98,1.19,9.861,2.792,14.983,4.261c0,39.358,0,78.618,0,118.253
		c-8.049-2.127-15.96-4.262-23.894-6.305c-23.958-6.17-48.194-10.282-73.039-8.387c-22.872,1.745-44.452,7.674-63.622,20.93
		c-17.232,11.915-28.709,27.91-34.642,47.935c-5.705,19.257-6.413,38.743-1.313,58.149c5.907,22.48,19.875,39.217,39.142,51.678
		c15.139,9.792,31.841,15.461,49.598,18.423c19.31,3.221,38.465,1.626,57.677-0.793c17.059-2.148,33.573-6.394,50.061-12.179
		c0,37.103,0,74.003,0,111.286c-6.515,3.83-13.979,6.06-21.341,8.464c-16.481,5.381-33.482,8.448-50.592,10.965
		C262.638,636.555,251.366,637.514,240.059,638.095z"/>
	<path style="fill:#DA2227;" d="M464.948,0.825c3.367,0.005,6.734,0.01,10.102,0.015c16.864,1.445,31.957,7.254,44.956,18.231
		c14.693,12.407,23.642,28.169,26.868,47.045c4.017,23.506-1.918,44.502-16.925,62.935c-9.72,11.939-22.102,20.213-36.754,24.635
		c-25.581,7.721-49.507,3.687-70.763-12.506c-19.007-14.48-29.293-34.052-30.559-58.07c-1.44-27.315,9.218-49.211,30.379-66.092
		C434.685,7.101,449.162,2.128,464.948,0.825z"/>
</g>
</svg>
