<?xml version="1.0" encoding="iso-8859-1"?>
<!-- Generator: Adobe Illustrator 27.0.0, SVG Export Plug-In . SVG Version: 6.00 Build 0)  -->
<svg version="1.1" id="Layer_1" xmlns="http://www.w3.org/2000/svg" xmlns:xlink="http://www.w3.org/1999/xlink" x="0px" y="0px"
	 viewBox="0 0 1537 639.462" style="enable-background:new 0 0 1537 639.462;" xml:space="preserve">
<g>
	<path style="fill:#154879;" d="M1537,436c-13.969,0-27.938,0-42.034,0c-20.497-42.856-40.836-85.38-61.428-128.433
		c-55.845-0.807-111.768-0.205-167.881-0.422c-20.425,43.143-40.65,85.863-60.836,128.499c-14.516,0-28.612,0-43.586,0
		c61.548-130.341,122.848-260.159,184.134-389.945c3.355-0.557,6.468-0.458,9.846-0.097c3.253,6.931,6.503,13.818,9.722,20.719
		c25.269,54.177,50.554,108.347,75.79,162.54c31.755,68.192,63.468,136.404,95.188,204.613c0.274,0.59,0.335,1.291,1.086,1.526
		C1537,435.333,1537,435.667,1537,436z M1416.496,269.126c-21.562-45.712-42.859-90.867-64.165-136.017
		c-0.493-1.045-1.083-2.046-1.643-3.058c-0.069-0.125-0.222-0.253-0.357-0.282c-0.651-0.141-0.014,0.608-0.7-0.1
		c-21.949,46.381-43.849,92.659-65.972,139.407C1328.135,270.198,1371.973,269.722,1416.496,269.126z"/>
	<path style="fill:#4DC1BB;" d="M1537,612c-1.458,0.623-0.795,2.02-1.096,3.057c-3.721,12.818-12.774,20.164-25.285,22.712
		c-17.927,3.65-34.94,0.768-50.339-9.684c-2.495-1.694-4.713-3.625-6.693-6.204c1.805-4.638,5.606-7.614,8.626-11.444
		c4.75,3.494,9.035,6.905,13.937,9.346c10.788,5.371,21.981,7.183,33.606,3.153c5.878-2.038,9.897-6.027,10.609-12.539
		c0.532-4.864-0.629-9.147-4.862-12.166c-4.682-3.341-10.112-4.825-15.551-6.265c-9.735-2.577-19.654-4.507-28.706-9.276
		c-7.534-3.969-12.798-9.856-14.033-18.238c-2.424-16.457,5.867-28.679,20.236-34.326c12.578-4.944,25.294-4.124,37.836,0.578
		c6.733,2.524,12.774,6.138,18.098,11.3c-1.91,4.54-5.033,7.886-8.173,11.357c-2.232-0.432-3.709-1.723-5.262-2.954
		c-7.099-5.626-15.311-8.54-24.234-9.28c-6.307-0.523-12.156,1.148-17.203,5.152c-5.105,4.049-6.752,11.956-3.605,17.472
		c1.927,3.378,5.255,4.957,8.61,6.434c5.324,2.344,11.04,3.372,16.608,4.911c7.794,2.155,15.682,4.043,22.798,8.174
		c7.117,4.131,12.087,9.724,13.372,18.112c0.036,0.236,0.462,0.413,0.706,0.618C1537,605.333,1537,608.667,1537,612z"/>
	<path style="fill:#164879;" d="M665,0c0.532,1.5,2.111,1.283,3.181,1.832c7.609,3.902,11.46,11.898,9.713,20.489
		c-1.58,7.769-8.86,13.775-17.168,14.165c-7.831,0.368-15.21-4.846-17.81-12.582c-2.682-7.981,0.22-16.242,7.223-20.968
		C651.718,1.87,653.736,1.559,655,0C658.333,0,661.667,0,665,0z"/>
	<path style="fill:#A6ABC2;" d="M0,226c0.295,0,0.588-0.02,0.88-0.06c-0.005,7.709-0.01,15.417-0.015,23.126
		C0.577,249.047,0.288,249.025,0,249C0,241.333,0,233.667,0,226z"/>
	<path style="fill:#154879;" d="M0.865,249.066c0.005-7.709,0.01-15.417,0.015-23.126c2.278-43.576,16.708-82.492,44.967-115.936
		c28.414-33.627,63.664-56.648,106.578-67.407c25.914-6.497,52.292-8.047,78.835-6.276c28.848,1.924,56.304,9.368,82.071,22.621
		c26.954,13.863,49.539,32.895,67.353,57.488c0.277,0.383,0.414,0.868,0.843,1.796c-9.944,7.652-19.926,15.333-29.983,23.073
		c-2.538-1.714-3.987-4.213-5.771-6.34c-23.19-27.656-52.429-45.696-87.165-55.034c-11.61-3.121-23.453-4.609-35.453-5.261
		c-24.719-1.343-48.857,1.49-72.079,10.212c-38.068,14.298-68.322,38.164-88.532,73.883c-9.749,17.23-15.861,35.729-18.726,55.359
		c-1.74,11.927-2.3,23.882-1.821,35.873c1.504,37.621,13.598,71.232,38.333,99.977c18.721,21.755,41.382,37.962,68.357,47.81
		c13.288,4.851,27.1,7.889,41.206,9.381c12.429,1.314,24.876,1.829,37.367,0.957c18.876-1.317,37.159-5.24,54.665-12.477
		c25.037-10.351,46.259-26.066,64.363-46.116c1.438-1.592,2.939-3.128,4.767-5.069c10.266,7.788,20.389,15.469,30.87,23.42
		c-2.568,3.141-4.654,5.909-6.959,8.48c-29.72,33.156-66.529,54.136-109.914,63.671c-18.266,4.015-36.788,5.915-55.5,5.614
		c-26.774-0.431-53.051-4.111-78.41-12.972c-22.677-7.924-43.245-19.591-61.341-35.521c-27.079-23.837-46.563-52.739-58.106-86.924
		c-5.122-15.167-8.282-30.767-9.839-46.717C1.386,258.694,1.08,253.888,0.865,249.066z"/>
	<path style="fill:#164879;" d="M886.179,45.34c13.998,0,27.651-0.003,41.305,0.008c0.819,0.001,1.637,0.12,2.876,0.218
		c33.011,53.223,66.093,106.56,99.664,160.687c33.012-54.057,65.559-107.351,98.125-160.677c14.958,0,29.689,0,45.042,0
		c-2.799,4.677-5.313,8.928-7.873,13.15c-37.329,61.554-74.646,123.115-112.043,184.628c-2.319,3.814-3.454,7.581-3.443,12.133
		c0.146,58.159,0.107,116.318,0.115,174.477c0,1.659,0,3.318,0,4.914c-4.345,1.278-22.881,1.649-38.021,0.811
		c-1.335-1.55-0.669-3.468-0.671-5.205c-0.046-56.159-0.217-112.319,0.128-168.476c0.056-9.07-2.186-16.53-6.944-24.168
		c-38.861-62.383-77.402-124.965-116.009-187.506C887.587,48.968,886.398,47.719,886.179,45.34z"/>
	<path style="fill:#4DC1BB;" d="M473.72,598.581c8.648,13.407,18.154,25.491,26.973,39.233c-6.141,0-11.25,0.143-16.345-0.063
		c-2.379-0.096-3.591-2.28-4.821-4.024c-5.062-7.18-10.021-14.433-15.065-21.627c-2.848-4.061-5.787-8.057-8.654-12.039
		c-8.227,0-16.185,0-24.701,0c0,12.499,0,24.885,0,37.517c-5.477,0-10.405,0-15.347,0c-0.964-3.481-1.329-99.375-0.403-108.016
		c0.468-0.625,1.164-0.55,1.81-0.55c15.322-0.002,30.647-0.181,45.965,0.073c11.223,0.186,21.162,4.122,28.826,12.509
		c10.566,11.562,12.211,28.225,3.085,41.722c-4.092,6.052-9.672,10.373-16.546,12.988
		C476.961,596.888,475.517,597.716,473.72,598.581z M431.22,584.918c10.178,0,19.972,0.212,29.749-0.105
		c3.89-0.126,7.844-0.938,11.476-2.746c6.439-3.206,11.17-7.6,11.709-15.337c0.596-8.553-2.072-15.274-10.085-19.34
		c-4.216-2.14-8.645-3.296-13.336-3.37c-6.321-0.1-12.644-0.074-18.966-0.093c-3.448-0.01-6.897-0.002-10.546-0.002
		C431.22,557.733,431.22,570.983,431.22,584.918z"/>
	<path style="fill:#4FC2BB;" d="M835.316,529.212c26.402,0,52.649,0,79.439,0c0.169,4.805,0.547,9.495-0.375,14.569
		c-21.114,0-41.878,0-63.007,0c0,10.443,0,20.489,0,30.958c18.884,0,37.801,0,57.09,0c0,4.961,0,9.517,0,14.71
		c-9.36,0.956-18.784,0.349-28.173,0.455c-9.487,0.107-18.976,0.024-28.406,0.024c-1.118,3.998-1.26,26.188-0.179,32.224
		c20.664,0,41.415,0,62.554,0c1.225,5.082,0.426,9.843,0.646,14.091c-1.061,1.63-2.237,1.598-3.415,1.597
		c-24.817-0.006-49.633-0.007-74.45-0.022c-0.473,0-0.947-0.157-1.726-0.295C835.316,601.591,835.316,565.688,835.316,529.212z"/>
	<path style="fill:#4FC2BB;" d="M300.159,543.977c0,10.586,0,20.509,0,30.914c18.951,0,37.68,0,56.662,0c0,5.072,0,9.665,0,14.807
		c-18.79,0-37.514,0-56.563,0c0,10.934,0,21.33,0,32.257c20.685,0,41.403,0,61.962,0c1.848,6.347,2.059,9.674,1.073,15.02
		c-3.485,1.123-66.824,1.588-78.766,0.564c-1.127-1.583-0.577-3.47-0.579-5.22c-0.041-26.316-0.102-52.632,0.037-78.948
		c0.026-4.999-1.073-9.874-0.908-14.881c0.104-3.159,0.69-6.149,1.106-9.326c26.28,0,52.219,0,78.137,0
		c1.777,4.827,2.022,8.665,0.754,14.712C342.358,544.024,321.469,543.84,300.159,543.977z"/>
	<path style="fill:#51C2BC;" d="M228.48,637.138c-4.696,0.979-11.807,0.934-16.187-0.144c0-15.397,0-30.953,0-46.782
		c-19.661,0-38.731,0-57.776,0c-1.139,1.169-0.666,2.572-0.676,3.835c-0.057,7.496-0.099,14.992-0.031,22.488
		c0.063,6.954-1.139,13.828-0.702,21.018c-5.373,0.523-10.267,0.292-15.023,0.15c-1.2-3.998-1.61-98.597-0.562-108.432
		c2.493-0.549,5.136-0.205,7.739-0.265c2.457-0.057,4.916-0.012,7.276-0.012c2.603,15.374,0.085,30.462,1.564,45.658
		c19.268,0,38.338,0,57.871,0c0-15.042,0-29.955,0-45.554c5.662-0.194,10.897-0.072,16.507-0.092
		C228.48,565.124,228.48,600.999,228.48,637.138z"/>
	<path style="fill:#4FC2BB;" d="M653.681,637.826c-3.984,0-6.836,0.318-9.581-0.089c-2.77-0.411-5.563-0.572-8.455-0.855
		c-3.083-7.011-6.127-13.932-9.182-20.88c-19.056,0-37.83,0-56.72,0c-3.035,7.016-6.039,13.959-9.061,20.945
		c-5.895,0.011-11.409,1.693-17.056,0.624c0.545-4.307,41.502-100.704,46.073-108.424c5.565,0,11.194,0,17.462,0
		C622.505,564.991,637.891,600.938,653.681,637.826z M619.761,600.719c-6.846-17.086-13.874-33.46-21.641-50.712
		c-7.517,17.481-14.792,33.76-21.678,50.712C591.172,600.719,605.048,600.719,619.761,600.719z"/>
	<path style="fill:#4DC1BB;" d="M701.442,528.997c10.425,0,20.57-0.003,30.715,0.001c5.83,0.002,11.682-0.305,17.487,0.085
		c13.813,0.928,25.263,6.284,32.723,18.561c8.965,14.755,3.431,34.02-7.672,42.636c-8.571,6.652-18.183,9.273-28.616,9.584
		c-9.463,0.282-18.941,0.06-28.995,0.06c0,12.679,0,25.066,0,37.6c-5.491,0-10.393,0-15.205,0
		C700.828,633.624,700.452,537.727,701.442,528.997z M717.376,544.071c-0.921,9.528-0.589,37.138,0.52,40.933
		c11.173-0.599,22.446,0.732,33.71-0.884c12.001-1.721,18.953-9.573,18.536-21.577c-0.225-6.475-3.229-11.286-8.881-14.547
		c-3.808-2.197-7.934-3.693-12.194-3.821C738.612,543.858,728.141,544.071,717.376,544.071z"/>
	<path style="fill:#4DC1BB;" d="M966.997,529.213c5.425,0,10.363,0,15.425,0c1.121,1.622,0.544,3.508,0.549,5.258
		c0.05,19.155-0.133,38.312,0.1,57.464c0.118,9.74,2.99,18.59,10.593,25.369c14.387,12.826,38.978,9.138,47.29-10.631
		c2.197-5.226,3.145-10.711,3.102-16.47c-0.149-19.82-0.05-39.642-0.038-59.463c0-0.326,0.09-0.652,0.193-1.36
		c4.982,0,10.042,0,15.295,0c0.783,0.599,0.481,1.672,0.482,2.623c0.018,20.986,0.32,41.978-0.071,62.957
		c-0.388,20.824-13.756,38.713-35.07,43.051c-13.662,2.78-26.76,1.346-38.523-6.851c-9.86-6.871-15.579-16.501-18.275-28.069
		c-0.987-4.234-1.068-8.537-1.063-12.858C967.011,570.083,966.997,549.932,966.997,529.213z"/>
	<path style="fill:#4DC1BB;" d="M1400.085,611.885c3.617,3.426,7.102,6.485,10.057,9.977c-5.6,11.086-30.901,20.161-47.871,16.943
		c-25.513-4.837-43.708-23.877-47.018-47.718c-3.767-27.136,11.202-49.09,33.593-59.295c22.21-10.122,47.613-3.247,61.332,12.201
		c-2.835,3.808-6.445,6.907-10.274,10.501c-5.068-3.406-9.324-7.876-15.263-9.91c-5.765-1.974-11.56-3.261-17.534-2.482
		c-6.074,0.791-11.926,2.575-17.088,6.196c-4.968,3.485-9.313,7.606-12.438,12.766c-10.962,18.104-7.962,38.636,7.193,52.97
		C1357.271,625.851,1378.851,630.964,1400.085,611.885z"/>
	<path style="fill:#4DC1BB;" d="M1.137,543.943c-0.462-4.976-0.277-9.958-0.125-14.939c28.775,0,57.549,0,86.608,0
		c0.46,4.957,0.474,9.517-0.043,14.745c-11.76,0.434-23.335-0.048-35.373,0.318c0,30.966,0,61.677,0,92.72
		c-5.511,0.222-10.459,1.671-15.97,0.765c0-30.98,0-61.885,0-93.347C24.292,543.563,12.705,544.16,1.137,543.943z"/>
	<path style="fill:#4DC1BB;" d="M1197.832,529.307c-0.006,4.935,0.503,9.394-0.416,14.394c-11.618,0.729-23.215-0.219-35.255,0.463
		c0,30.895,0,61.618,0,92.729c-5.506-0.095-10.438,1.846-16.069,0.383c0-31.055,0-61.938,0-93.182c-11.819,0-23.09,0-34.904,0
		c-0.535-5.037-0.316-9.755-0.144-14.786C1139.939,529.307,1168.654,529.307,1197.832,529.307z"/>
	<path style="fill:#51C2BC;" d="M1247.812,637.425c-1.042-6.01-0.792-87.415,0.263-108.051c5.021,0,10.084,0,15.484,0
		c0,35.615,0,71.315,0,107.374C1258.432,637.267,1253.324,638.581,1247.812,637.425z"/>
	<path style="fill:#184979;" d="M793.994,78.724c0.05-11.114,8.91-19.856,19.996-19.73c11.117,0.126,19.798,8.992,19.675,20.094
		c-0.121,10.905-9.277,19.729-20.311,19.577C802.677,98.518,793.945,89.524,793.994,78.724z"/>
	<path style="fill:#184979;" d="M741.053,14.995c10.999-0.082,19.837,8.553,19.822,19.366c-0.014,10.339-8.711,19.221-18.9,19.303
		c-10.915,0.088-19.741-8.545-19.851-19.417C722.022,24.036,730.835,15.071,741.053,14.995z"/>
	<path style="fill:#184979;" d="M798.171,53.352c0.077,10.886-8.162,19.402-18.933,19.57c-10.426,0.163-19.059-8.304-19.465-18.593
		c-0.42-10.63,7.811-20.188,19.487-20.085C790.85,34.346,798.444,43.987,798.171,53.352z"/>
	<path style="fill:#184979;" d="M682.826,21.731c-0.77-9.138,7.779-18.69,18.64-18.598c10.54,0.089,18.687,8.613,18.54,19.332
		c-0.137,10.036-8.526,18.578-18.517,18.356C689.597,40.557,682.01,31.023,682.826,21.731z"/>
	<path style="fill:#184979;" d="M618.97,4.128c9.623,0.073,17.697,8.252,17.694,17.927c-0.002,9.523-8.401,17.832-17.893,17.703
		c-9.729-0.132-17.671-8.194-17.647-17.913C601.148,12.256,609.408,4.056,618.97,4.128z"/>
	<path style="fill:#184979;" d="M579.9,50.174c-9.127,0.845-17.188-8.062-17.232-16.869c-0.048-9.75,8.621-17.434,17.009-17.324
		c9.423,0.124,17.185,7.739,17.322,17.109C597.112,40.841,590.522,50.702,579.9,50.174z"/>
	<path style="fill:#184979;" d="M559.261,51.544c-0.781,9.791-8.382,16.85-17.348,16.11c-9.207-0.76-16.541-9.098-15.778-17.937
		c0.773-8.953,9.044-16.261,17.625-15.571C552.952,34.885,559.962,42.753,559.261,51.544z"/>
	<path style="fill:#184979;" d="M498.174,105.388c0.649,8.491-7.926,16.14-16.382,15.693c-8.587-0.455-15.767-7.555-15.665-16.175
		c0.106-8.928,7.346-15.949,16.408-15.912C491.569,89.03,498.277,96.063,498.174,105.388z"/>
	<path style="fill:#184979;" d="M509.907,91.006c-9.011-0.085-15.988-7.311-15.798-16.363c0.187-8.938,7.464-15.813,16.566-15.649
		c8.732,0.157,15.559,7.283,15.486,16.164C526.086,84.297,519.117,91.093,509.907,91.006z"/>
	<path style="fill:#4FC2BB;" d="M537.829,147.82c0.231,8.223-7.278,16.31-15.66,16.002c-9.758-0.359-15.443-6.317-15.953-15.614
		c-0.421-7.671,6.441-15.875,15.309-15.834C530.993,132.418,536.865,138.941,537.829,147.82z"/>
	<path style="fill:#184979;" d="M428.829,176.959c0.099-8.455,6.859-15.081,15.377-15.073c8.872,0.008,15.84,7.087,15.67,15.919
		c-0.162,8.427-7.457,15.315-16.003,15.11C435.235,192.708,428.725,185.803,428.829,176.959z"/>
	<path style="fill:#184979;" d="M443.834,139.889c-0.311-7.202,5.296-15.339,15.297-15.693c8.571-0.303,15.774,7.189,15.743,15.861
		c-0.029,8.251-7.337,15.487-15.643,15.492C450.918,155.555,443.871,148.388,443.834,139.889z"/>
	<path style="fill:#1A4A7A;" d="M450.151,217.599c-0.042,8.437-6.965,15.27-15.273,15.072c-8.078-0.193-14.883-7.113-14.733-15.183
		c0.141-7.591,5.524-14.817,14.844-15.027C443.586,202.267,450.192,209.177,450.151,217.599z"/>
	<path style="fill:#4FC2BB;" d="M544.991,108.919c6.656-0.844,14.869,5.249,14.986,14.498c0.102,8.102-7.331,15.536-15.168,15.293
		c-7.924-0.246-14.796-7.345-14.736-15.224C530.136,115.15,536.505,108.931,544.991,108.919z"/>
	<path style="fill:#4FC2BB;" d="M556.046,104.06c-0.014-8.351,6.435-14.984,14.644-15.061c7.883-0.075,15.276,7.004,15.227,14.667
		c-0.051,7.98-6.431,15.029-14.756,15.186C561.848,119.026,555.54,110.099,556.046,104.06z"/>
	<path style="fill:#184979;" d="M448.006,258.732c0.011,8.282-6.189,14.25-14.497,14.501c-7.387,0.223-14.601-6.474-14.495-14.651
		c0.1-7.684,6.749-14.297,14.39-14.371C441.468,244.132,447.995,250.623,448.006,258.732z"/>
	<path style="fill:#4FC2BB;" d="M599.308,103.075c-7.823-0.022-14.35-6.436-14.29-14.132c0.062-8.056,5.614-14.074,14.489-14.653
		c7.395-0.482,14.751,7.381,14.381,14.877C613.428,98.479,605.483,103.655,599.308,103.075z"/>
	<path style="fill:#1A4A7A;" d="M426.823,298.87c-0.697-6.555,5.533-14.014,13.866-13.857c7.611,0.144,14.033,6.621,13.965,14.123
		c-0.067,7.508-6.684,13.989-14.204,13.856C431.537,312.835,426.077,305.116,426.823,298.87z"/>
	<path style="fill:#184979;" d="M453.197,323.828c8.142-0.049,13.704,5.609,14.058,13.576c0.273,6.149-4.456,14.012-14.195,14.207
		c-7.077,0.142-13.526-6.544-13.718-13.826C439.145,330.303,445.526,323.875,453.197,323.828z"/>
	<path style="fill:#51C2BC;" d="M674.957,78.058c-0.016,7.495-6.512,14.112-14.002,13.822c-7.991-0.31-13.636-5.811-13.831-13.972
		c-0.179-7.497,6.493-13.642,13.99-13.909C667.395,63.774,675.382,70.407,674.957,78.058z"/>
	<path style="fill:#4FC2BB;" d="M629.599,94.97c-7.465-0.163-13.894-6.804-13.486-14.297c0.462-8.498,6.974-13.825,14.252-13.507
		c9.034,0.395,13.621,7.511,13.53,14.259C643.793,88.941,637.129,95.135,629.599,94.97z"/>
	<path style="fill:#1E4B7B;" d="M727.015,165.932c-0.676,0.455-1.35,0.914-2.029,1.365c-3.177,2.11-6.531,2.457-9.891,0.625
		c-3.506-1.912-5.239-4.955-5.083-9.017c0.037-0.966,0.509-1.965-0.167-2.967c-1.612-0.608-2.2,1.001-3.202,1.64
		c-3.739,2.385-8.311,2.058-11.434-0.93c-3.242-3.101-3.968-7.168-1.943-10.887c2.063-3.79,6.502-5.717,10.627-4.613
		c3.996,1.07,6.896,5.15,6.776,9.417c-0.035,1.239-1.307,2.456-0.099,3.726c1.284,0.253,1.632-0.928,2.344-1.528
		c3.74-3.15,7.731-3.626,11.462-1.344c3.877,2.37,5.391,6.529,4.034,11.21c-0.229,0.791-0.67,1.524-0.471,2.394l0.107-0.066
		c-0.905-0.181-1.032,0.428-1.106,1.09L727.015,165.932z"/>
	<path style="fill:#4FC2BB;" d="M721.49,102.071c-7.615,0.513-13.504-6.918-13.31-13.142c0.244-7.849,5.238-13.264,13.512-13.611
		c7.267-0.305,13.24,6.535,13.353,13.86C735.131,94.717,729.754,102.515,721.49,102.071z"/>
	<path style="fill:#4FC2BB;" d="M704.958,80.409c0.533,6.754-6.809,13.687-13.117,13.615c-6.938-0.08-13.828-6.265-13.718-13.058
		c0.13-8.01,6.016-13.742,13.933-13.846C698.615,67.033,704.934,73.733,704.958,80.409z"/>
	<path style="fill:#1A4A7A;" d="M486.669,372.784c0.095,7.104-5.693,13.001-12.853,13.093c-6.896,0.088-12.654-5.535-12.825-12.527
		c-0.177-7.233,5.419-13.215,12.486-13.348C480.538,359.87,486.574,365.718,486.669,372.784z"/>
	<path style="fill:#51C2BC;" d="M750.035,89.998c7.239,0.005,13.006,5.666,12.889,12.954c-0.115,7.196-5.502,12.593-12.499,12.888
		c-6.734,0.283-13.334-6.314-13.35-12.885C737.057,95.78,742.845,89.993,750.035,89.998z"/>
	<path style="fill:#1A4A7A;" d="M487.824,404.543c0.04-6.997,5.463-12.516,12.198-12.414c6.802,0.103,12.185,5.631,12.153,12.481
		c-0.033,7.026-5.317,12.325-12.236,12.269C492.895,416.823,487.783,411.617,487.824,404.543z"/>
	<path style="fill:#184979;" d="M543.173,431.319c-0.041,6.952-5.326,12.386-12.134,12.477c-6.583,0.088-12.203-5.634-12.21-12.43
		c-0.008-6.929,5.37-12.382,12.198-12.369C538.025,419.01,543.215,424.275,543.173,431.319z"/>
	<path style="fill:#FBAE58;" d="M625.007,219.882c0.02,6.961-5.294,12.196-12.309,12.125c-6.628-0.067-12.14-5.353-12.353-11.846
		c-0.212-6.46,6.194-13.272,12.617-12.873C619.98,207.725,625.231,212.825,625.007,219.882z"/>
	<path style="fill:#4FC2BB;" d="M795.664,156.001c-6.703-0.181-11.867-5.911-11.686-12.855c0.208-7.972,6.989-11.815,12.248-11.903
		c6.51-0.108,12.827,6.768,12.485,13.087C808.347,151.052,802.605,156.188,795.664,156.001z"/>
	<path style="fill:#4FC2BB;" d="M774.54,133.08c-5.749,1.038-12.666-5.682-12.501-12.114c0.168-6.528,5.538-11.655,12.067-12.143
		c6.292-0.471,12.665,5.424,12.816,11.925C787.073,127.238,781.23,133.055,774.54,133.08z"/>
	<path style="fill:#1A4A7A;" d="M567.093,463.003c-6.365,0.079-11.873-5.232-11.973-11.546c-0.105-6.599,5.408-12.252,11.901-12.205
		c6.209,0.045,11.749,5.603,11.85,11.889C578.97,457.241,573.324,462.926,567.093,463.003z"/>
	<path style="fill:#FBAE58;" d="M635.216,189.897c6.735,0.025,11.649,4.821,11.698,11.417c0.05,6.76-5.059,11.659-11.919,11.827
		c-5.828,0.143-11.637-4.529-11.727-11.561C623.178,194.582,628.968,189.21,635.216,189.897z"/>
	<path style="fill:#4FC2BB;" d="M825.004,170.347c-0.09,6.611-5.158,11.697-11.662,11.65c-7.156-0.052-11.528-5.279-12.057-11.495
		c-0.524-6.15,5.849-12.404,11.832-12.33C819.571,158.252,825.091,163.905,825.004,170.347z"/>
	<path style="fill:#FBAE58;" d="M661.422,205.103c-6.199,0.719-11.777-5.885-11.489-11.188c0.346-6.383,5.039-11.054,11.67-11.016
		c6.16,0.035,11.147,4.887,11.259,10.953C672.976,200.106,667.888,205.11,661.422,205.103z"/>
	<path style="fill:#1A4A7A;" d="M617.174,464.829c-0.076,6.104-5.03,11.071-11.043,11.072c-6.304,0.001-11.226-5.003-11.312-11.346
		c-0.084-6.253,4.892-11.299,11.331-11.37C612.434,453.117,617.253,458.407,617.174,464.829z"/>
	<path style="fill:#4FC2BB;" d="M813.996,198.702c0.095-7.445,5.224-11.214,11.115-11.469c5.99-0.26,11.813,5.965,11.605,11.855
		c-0.196,5.534-5.888,10.945-11.48,10.912C818.908,209.962,813.95,204.978,813.996,198.702z"/>
	<path style="fill:#51C2BC;" d="M831.523,240.005c-5.81-0.063-10.537-5.056-10.452-11.04c0.08-5.593,5.378-10.996,10.913-10.747
		c5.704,0.256,10.729,5.145,10.838,10.996C842.935,235.331,837.766,240.072,831.523,240.005z"/>
	<path style="fill:#FBAE58;" d="M700.103,199.361c0.005,6.521-4.012,10.463-10.312,10.802c-6.065,0.326-11.097-5.314-10.991-10.848
		c0.107-5.622,4.775-10.736,10.775-10.478C696.039,189.116,700.098,192.927,700.103,199.361z"/>
	<path style="fill:#1A4A7A;" d="M686.768,480.094c-5.89-0.036-10.691-4.912-10.646-10.813c0.045-5.955,4.827-10.58,10.861-10.507
		c5.956,0.072,10.749,4.899,10.686,10.761C697.606,475.401,692.724,480.13,686.768,480.094z"/>
	<path style="fill:#1A4A7A;" d="M737.168,460.99c-0.058,5.926-4.941,10.746-10.817,10.677c-5.763-0.067-10.62-5.142-10.519-10.994
		c0.103-5.987,4.938-10.746,10.831-10.658C732.531,450.103,737.227,455.01,737.168,460.99z"/>
	<path style="fill:#1A4A7A;" d="M645.962,459.829c6.052-0.098,10.851,4.451,11.007,10.433c0.151,5.799-4.722,10.819-10.575,10.893
		c-5.933,0.075-10.921-4.645-11.06-10.464C635.196,464.868,640.032,459.925,645.962,459.829z"/>
	<path style="fill:#4FC2BB;" d="M833.237,271.003c-6.693-0.054-10.916-4.805-11.134-10.366c-0.243-6.197,4.658-10.616,11.027-10.857
		c4.723-0.179,10.838,4.162,10.703,10.83C843.732,265.581,839.288,271.46,833.237,271.003z"/>
	<path style="fill:#204C7B;" d="M764.631,455.679c-5.147,0.091-10.241-4.806-10.434-10.031c-0.205-5.549,4.659-10.613,10.223-10.642
		c5.399-0.028,10.274,4.605,10.459,9.939C775.069,450.396,770.117,455.582,764.631,455.679z"/>
	<path style="fill:#51C2BC;" d="M802.754,337.863c4.82-0.798,10.105,5.258,10.093,10.211c-0.013,5.492-5.18,10.16-10.877,9.978
		c-5.753-0.183-9.902-4.651-9.888-10.286C792.096,341.841,796.539,337.757,802.754,337.863z"/>
	<path style="fill:#4FC2BB;" d="M828.149,301.067c-5.516,0.548-10.215-5.264-10.177-10.002c0.048-6.041,4.231-10.245,10.362-10.177
		c5.758,0.064,10.426,4.703,10.466,10.4C838.835,296.199,833.515,301.082,828.149,301.067z"/>
	<path style="fill:#51C2BC;" d="M807.917,320.729c0.076-5.97,4.022-9.822,10.048-9.81c6.154,0.012,10.162,4.102,10.109,10.316
		c-0.051,5.976-4.379,9.995-10.59,9.835C811.761,330.921,807.841,326.685,807.917,320.729z"/>
	<path style="fill:#1A4A7A;" d="M740.826,187.786c-0.05-5.579,4.049-9.862,9.53-9.959c5.65-0.099,10.322,4.372,10.312,9.868
		c-0.01,5.416-4.914,10.287-10.216,10.148C745.103,197.703,740.876,193.287,740.826,187.786z"/>
	<path style="fill:#FBAE58;" d="M721.007,216.357c-0.077,5.717-4.08,9.714-9.666,9.65c-5.618-0.064-10.24-4.747-9.98-10.111
		c0.241-4.972,5.332-9.775,10.24-9.66C716.925,206.359,721.082,210.833,721.007,216.357z"/>
	<path style="fill:#51C2BC;" d="M793.001,372.178c-0.26,6.217-4.39,9.851-10.211,9.803c-4.804-0.039-9.767-5.155-9.593-9.715
		c0.189-4.939,5.314-10.147,9.937-10.096C788.177,362.225,793.025,367.143,793.001,372.178z"/>
	<path style="fill:#1A4A7A;" d="M727.939,165.024c1.606,0.923,2.363-0.707,3.44-1.224c4.369-2.1,9.227-1.143,12.101,2.533
		c2.455,3.14,2.406,8.401-0.107,11.647c-2.744,3.544-7.641,4.627-11.678,2.582c-3.992-2.022-5.873-6.319-4.917-10.914
		c0.249-1.197,1.458-2.404,0.236-3.716l-0.074,0.115c0.994,0.271,1.366-0.089,1.106-1.09L727.939,165.024z"/>
	<path style="fill:#FBAE58;" d="M734.006,241.662c-0.036,5.077-4.056,9.237-8.997,9.309c-5.06,0.075-9.885-4.481-9.795-9.247
		c0.094-5.002,4.725-9.701,9.49-9.629C729.958,232.173,734.043,236.375,734.006,241.662z"/>
	<path style="fill:#51C2BC;" d="M749.919,391.397c0.039-5.609,3.832-9.447,9.215-9.326c4.961,0.112,8.864,4.225,8.872,9.349
		c0.009,5.146-3.872,9.37-8.857,9.383C754.481,400.814,749.014,396.649,749.919,391.397z"/>
	<path style="fill:#1A4A7A;" d="M789.828,422.665c0.073-5.395,3.835-8.979,9.275-8.837c5.055,0.132,8.858,3.942,8.863,8.879
		c0.006,5.044-4.202,9.307-9.164,9.285C793.659,431.969,789.757,427.914,789.828,422.665z"/>
	<path style="fill:#1A4A7A;" d="M819.825,394.791c0.049-5.273,3.992-9.091,9.249-8.954c5.077,0.132,9.078,4.388,8.895,9.463
		c-0.173,4.799-4.259,8.677-9.178,8.708C823.577,404.041,819.775,400.133,819.825,394.791z"/>
	<path style="fill:#4FC2BB;" d="M732.102,397.921c5.295,0.037,8.936,3.695,8.971,9.013c0.034,5.075-3.92,9.092-8.986,9.128
		c-5.362,0.039-9.269-3.984-9.163-9.436C723.03,401.141,726.467,397.881,732.102,397.921z"/>
	<path style="fill:#1E4B7B;" d="M671.01,142.932c0.082,4.822-3.911,9.011-8.636,9.062c-4.732,0.05-8.998-4.082-9.044-8.76
		c-0.046-4.716,4.154-9.091,8.745-9.108C666.876,134.107,670.927,138.1,671.01,142.932z"/>
	<path style="fill:#204C7B;" d="M690.884,145.245c-0.091,4.757-4.329,8.83-9.074,8.72c-4.802-0.111-8.792-4.276-8.696-9.077
		c0.095-4.763,4.388-8.925,9.041-8.765C686.933,136.286,690.975,140.51,690.884,145.245z"/>
	<path style="fill:#51C2BC;" d="M702.529,425.815c-6.894-1.019-9.291-5.794-8.57-10.578c0.602-3.993,4.126-7.211,8.19-7.234
		c4.476-0.025,8.279,3.082,8.853,7.142C711.64,419.655,710.116,424.316,702.529,425.815z"/>
	<path style="fill:#1E4B7B;" d="M623.681,158.667c-4.587-0.085-8.543-4.098-8.555-8.675c-0.011-4.425,4.191-8.621,8.637-8.625
		c4.383-0.004,8.604,4.282,8.574,8.706C632.307,154.47,627.998,158.747,623.681,158.667z"/>
	<path style="fill:#1E4B7B;" d="M643.082,153.142c-4.804,0.086-8.786-3.574-8.864-8.148c-0.078-4.535,3.89-8.743,8.35-8.854
		c4.504-0.112,8.721,3.873,8.826,8.343C651.505,149.218,647.82,153.057,643.082,153.142z"/>
	<path style="fill:#FBAE58;" d="M733.999,269.405c0.003,4.674-3.962,8.531-8.621,8.387c-4.322-0.134-7.991-4.003-8.176-8.514
		c-0.15-3.65,4.412-8.617,8.328-8.371C730.456,261.216,733.996,264.431,733.999,269.405z"/>
	<path style="fill:#54C3BD;" d="M680.009,421.55c-0.035,4.855-3.747,8.483-8.542,8.349c-4.159-0.116-7.508-3.785-7.55-8.273
		c-0.046-4.854,3.286-8.555,7.703-8.556C676.56,413.068,680.045,416.591,680.009,421.55z"/>
	<path style="fill:#1E4B7B;" d="M605.698,150.826c4.533-0.002,8.196,3.643,8.183,8.142c-0.013,4.43-3.737,8.054-8.267,8.044
		c-4.521-0.01-8.291-3.707-8.277-8.118C597.351,154.495,601.149,150.829,605.698,150.826z"/>
	<path style="fill:#204C7B;" d="M861.664,361.926c-0.059,3.973-4.118,7.913-8.203,7.961c-4.335,0.051-8.215-3.96-8.143-8.417
		c0.068-4.23,3.819-7.886,8.106-7.899C857.862,353.556,861.729,357.478,861.664,361.926z"/>
	<path style="fill:#1E4B7B;" d="M863.791,324.937c0.047-4.383,3.495-7.792,7.909-7.819c4.202-0.026,8.277,4.171,8.156,8.4
		c-0.123,4.264-3.711,7.612-8.21,7.661C866.884,333.231,863.738,329.93,863.791,324.937z"/>
	<path style="fill:#1E4B7B;" d="M576.243,177.022c4.304-0.01,7.841,3.511,7.879,7.843c0.038,4.404-3.385,7.963-7.709,8.015
		c-4.064,0.049-8.043-3.828-8.074-7.865C568.308,180.899,572.133,177.031,576.243,177.022z"/>
	<path style="fill:#1E4B7B;" d="M598.01,170.231c0.115,4.418-3.328,7.931-7.784,7.943c-4.308,0.011-7.726-3.127-7.956-7.304
		c-0.232-4.212,3.417-8.225,7.605-8.361C594.239,162.367,597.896,165.839,598.01,170.231z"/>
	<path style="fill:#54C3BD;" d="M632.918,421.148c-0.052-4.564,3.255-8.107,7.539-8.077c4.093,0.029,7.448,3.456,7.548,7.712
		c0.107,4.518-3.135,7.922-7.682,8.067C636.394,428.975,632.967,425.41,632.918,421.148z"/>
	<path style="fill:#204C7B;" d="M894.989,209.741c0.105,4.018-3.306,7.692-7.337,7.902c-3.949,0.206-7.587-3.331-7.666-7.453
		c-0.08-4.205,3.168-7.723,7.257-7.859C891.28,202.197,894.882,205.643,894.989,209.741z"/>
	<path style="fill:#204C7B;" d="M880,180.633c-4.01,0.12-7.664-3.452-7.673-7.5c-0.009-3.973,3.631-7.743,7.525-7.795
		c3.771-0.05,7.743,3.817,7.814,7.608C887.736,176.76,883.993,180.513,880,180.633z"/>
	<path style="fill:#204C7B;" d="M882.864,292.712c-3.929,0.035-7.559-3.654-7.543-7.667c0.016-3.94,3.735-7.706,7.605-7.703
		c3.826,0.003,7.592,3.81,7.647,7.729C890.625,288.845,886.759,292.677,882.864,292.712z"/>
	<path style="fill:#4FC2BB;" d="M610.014,422.705c-6.141-2.38-8.095-5.205-7.011-10.138c0.674-3.066,4.599-5.815,7.942-5.562
		c3.48,0.264,6.501,3.15,7.008,6.696C618.578,418.081,616.079,420.916,610.014,422.705z"/>
	<path style="fill:#1E4B7B;" d="M565.496,194.118c4.16,0.025,7.603,3.541,7.513,7.671c-0.094,4.316-3.434,7.496-7.743,7.371
		c-4.193-0.121-7.232-3.175-7.272-7.307C557.952,197.667,561.418,194.093,565.496,194.118z"/>
	<path style="fill:#1E4B7B;" d="M897.918,247.306c0.065,4.267-3.211,7.661-7.437,7.704c-4.227,0.043-7.557-3.286-7.553-7.551
		c0.003-4.031,3.167-7.344,7.13-7.468C894.233,239.862,897.856,243.233,897.918,247.306z"/>
	<path style="fill:#FBAE58;" d="M721.07,295.046c-0.019,4.09-3.263,7.602-7.038,7.62c-3.858,0.018-7.752-3.908-7.68-7.744
		c0.075-4.009,3.344-7.066,7.496-7.009C718.293,287.975,721.09,290.737,721.07,295.046z"/>
	<path style="fill:#1A4A7A;" d="M565.042,220.001c-0.079,4.095-3.285,7.132-7.391,7.002c-3.956-0.125-6.706-3.034-6.703-7.09
		c0.004-4.271,2.969-7.359,7.037-7.33C561.911,212.61,565.119,215.983,565.042,220.001z"/>
	<path style="fill:#51C2BC;" d="M580.821,395.227c5.877,2.29,7.992,5.097,7.093,9.215c-0.644,2.95-4.181,5.649-7.286,5.56
		c-3.666-0.105-6.225-2.379-6.706-5.958C573.298,399.394,574.918,397.258,580.821,395.227z"/>
	<path style="fill:#204C7B;" d="M553.835,246.013c-4.035,0.054-6.992-2.797-6.983-6.731c0.008-3.764,3.253-7.006,6.959-6.952
		c3.508,0.051,6.662,3.118,6.822,6.633C560.802,242.696,557.652,245.963,553.835,246.013z"/>
	<path style="fill:#204C7B;" d="M552.83,265.921c-3.736-0.095-6.884-3.47-6.713-7.196c0.164-3.565,3.264-6.583,6.788-6.608
		c3.981-0.029,7.213,3.422,6.973,7.447C559.674,263.004,556.34,266.011,552.83,265.921z"/>
	<path style="fill:#FBAE58;" d="M692.668,320.102c-4.058,0.071-6.638-2.311-6.768-6.25c-0.125-3.766,2.941-7.419,6.374-7.595
		c3.171-0.163,7.334,3.719,7.381,6.881C699.709,316.767,696.429,320.036,692.668,320.102z"/>
	<path style="fill:#54C3BD;" d="M513.9,345.928c-3.184,0.119-6.603-3.267-6.741-6.677c-0.142-3.522,3.393-7.17,6.9-7.121
		c3.25,0.046,6.742,3.492,6.843,6.752C521.009,342.391,517.633,345.789,513.9,345.928z"/>
	<path style="fill:#54C3BD;" d="M532.661,357.081c3.758,0.063,6.382,2.842,6.416,6.794c0.034,3.958-2.681,7.015-6.222,6.96
		c-2.893-0.045-7.27-3.234-6.908-7.121C526.289,360.038,529.117,357.022,532.661,357.081z"/>
	<path style="fill:#204C7B;" d="M857.822,143.042c-0.047-3.918,2.516-6.757,6.246-6.917c3.34-0.144,6.748,3.137,6.816,6.561
		c0.073,3.677-3.291,7.144-6.996,6.861C859.978,149.248,857.492,146.263,857.822,143.042z"/>
	<path style="fill:#204C7B;" d="M562.316,304.012c-3.521-0.051-6.312-2.828-6.318-6.285c-0.007-3.785,2.818-6.723,6.476-6.737
		c3.709-0.014,6.593,2.905,6.54,6.62C568.959,301.431,566.2,304.069,562.316,304.012z"/>
	<path style="fill:#244D7D;" d="M572.632,321.148c-3.821,0.076-6.658-2.67-6.653-6.439c0.005-3.91,2.718-6.681,6.494-6.632
		c3.508,0.045,6.318,2.742,6.508,6.244C579.182,318.041,576.362,321.074,572.632,321.148z"/>
	<path style="fill:#51C2BC;" d="M561.004,385.755c0.048,3.906-2.505,6.341-6.632,6.327c-3.848-0.013-6.374-2.361-6.446-5.992
		c-0.084-4.203,2.658-7.147,6.603-7.089C558.243,379.055,560.957,381.885,561.004,385.755z"/>
	<path style="fill:#1E4B7B;" d="M556.065,271.976c3.534,0.075,6.703,3.312,6.573,6.716c-0.13,3.412-3.534,6.469-7.03,6.315
		c-3.261-0.144-6.278-3.3-6.262-6.548C549.365,274.805,552.378,271.898,556.065,271.976z"/>
	<path style="fill:#FBAE58;" d="M665.463,326.082c-3.716,0.021-6.366-2.407-6.465-5.923c-0.109-3.876,2.457-6.741,6.189-6.908
		c3.283-0.148,6.636,3.256,6.6,6.7C671.75,323.435,669.04,326.062,665.463,326.082z"/>
	<path style="fill:#244D7D;" d="M584.673,336.4c-3.384,0.09-6.4-2.891-6.362-6.286c0.038-3.362,2.541-5.949,5.925-6.125
		c3.521-0.182,6.471,2.451,6.65,5.938C591.059,333.262,588.135,336.308,584.673,336.4z"/>
	<path style="fill:#54C3BD;" d="M506.049,311.438c0.056,3.665-2.579,6.504-6.013,6.477c-3.272-0.026-5.999-2.718-6.044-5.965
		c-0.052-3.77,2.394-6.628,5.805-6.782C503.19,305.014,505.994,307.825,506.049,311.438z"/>
	<path style="fill:#204C7B;" d="M599.926,348.068c-3.219-0.022-5.729-2.401-5.801-5.499c-0.076-3.268,2.584-6.139,5.778-6.234
		c3.052-0.091,6.073,2.855,6.096,5.945C606.022,345.514,603.319,348.091,599.926,348.068z"/>
	<path style="fill:#244D7D;" d="M616.943,358.016c-3.276-0.049-5.967-2.919-5.771-6.151c0.175-2.874,3.074-5.692,5.892-5.725
		c3.071-0.037,6,2.952,5.953,6.074C622.967,355.598,620.381,358.068,616.943,358.016z"/>
	<path style="fill:#FBAE58;" d="M637.701,308.151c4.896,2.823,6.142,4.91,5.047,8.171c-0.865,2.575-3.216,3.978-6.306,3.763
		c-2.679-0.187-5.045-2.405-5.332-5C630.747,311.8,632.543,309.86,637.701,308.151z"/>
	<path style="fill:#54C3BD;" d="M483.205,250.587c1.358-4.699,3.567-6.888,6.515-6.457c2.661,0.389,5.157,3.161,5.203,5.778
		c0.045,2.556-1.93,5.046-4.566,5.756C487.413,256.456,485.042,254.774,483.205,250.587z"/>
	<path style="fill:#54C3BD;" d="M487.088,283.485c-0.2-6.091-0.151-6.168,5.269-8.351c3.195,0.585,5.266,2.337,5.575,5.83
		c0.243,2.754-1.33,4.184-3.593,5.325C490.924,288.01,489.115,285.866,487.088,283.485z"/>
	<path style="fill:#244D7D;" d="M636.07,363.99c-3.147,0.038-5.825-2.515-5.804-5.531c0.021-3.025,2.695-5.556,5.821-5.511
		c2.971,0.043,5.659,2.85,5.551,5.799C641.536,361.571,639.004,363.955,636.07,363.99z"/>
	<path style="fill:#244D7D;" d="M655.204,366.756c-2.801-0.086-5.258-2.797-5.095-5.622c0.171-2.958,2.742-5.241,5.637-5.008
		c2.554,0.206,5.01,2.846,4.938,5.309C660.603,364.237,657.923,366.84,655.204,366.756z"/>
	<path style="fill:#244D7D;" d="M848.012,111.114c2.674-0.093,5.035,2.171,5.144,4.934c0.111,2.804-1.956,5.14-4.733,5.348
		c-2.754,0.207-5.201-1.903-5.398-4.654C842.815,113.793,845.098,111.216,848.012,111.114z"/>
	<path style="fill:#54C3BD;" d="M498.072,216.616c-0.06,2.556-2.535,5.177-4.951,5.241c-2.592,0.069-5.229-2.796-5.124-5.568
		c0.096-2.536,2.646-5.184,5.017-5.208C495.911,211.05,498.145,213.495,498.072,216.616z"/>
	<path style="fill:#244D7D;" d="M680.359,361.196c-0.078,2.738-2.475,4.94-5.208,4.784c-2.502-0.142-4.781-2.414-4.786-4.772
		c-0.006-2.627,2.422-5.089,5.029-5.097C678.032,356.103,680.434,358.563,680.359,361.196z"/>
	<path style="fill:#244D7D;" d="M694.375,352.128c2.391-0.07,4.853,2.179,5.054,4.617c0.225,2.731-2.02,5.181-4.819,5.26
		c-2.664,0.076-4.836-1.895-4.985-4.524C689.464,354.667,691.647,352.208,694.375,352.128z"/>
	<path style="fill:#FBAE58;" d="M610.234,297.476c1.636-4.135,3.202-5.25,6.343-4.516c2.209,0.516,3.595,2.405,3.502,4.773
		c-0.102,2.611-1.593,4.274-4.225,4.713C613.253,302.881,611.833,301.625,610.234,297.476z"/>
	<path style="fill:#54C3BD;" d="M506.45,183.255c0.527,0.548,0.958,0.855,1.196,1.273c0.488,0.854,0.873,1.767,1.218,2.483
		c-0.179,1.978-0.994,3.363-2.072,4.532c-2.058,0.86-4.001,0.704-5.951,0.221c-2.077-1.962-2.7-4.298-1.298-6.744
		C501.056,182.382,503.634,182.623,506.45,183.255z"/>
	<path style="fill:#244D7D;" d="M708.839,349.388c0.1-2.551,1.916-4.377,4.376-4.401c2.631-0.025,4.8,2.159,4.657,4.688
		c-0.149,2.636-2.351,4.557-4.989,4.352C710.276,353.824,708.734,352.056,708.839,349.388z"/>
	<path style="fill:#204C7B;" d="M743.913,320.594c2.2,0.029,4.032,1.848,4.096,4.07c0.074,2.543-1.719,4.379-4.243,4.346
		c-2.38-0.031-4.065-1.649-4.116-3.953C739.597,322.628,741.569,320.564,743.913,320.594z"/>
	<path style="fill:#244D7D;" d="M733.742,340.956c-3.205,2.325-4.692,2.537-6.477,0.925c-1.494-1.349-1.925-3.742-0.835-5.414
		c1.079-1.657,2.615-2.511,4.65-1.938C733.566,335.228,734.229,336.872,733.742,340.956z"/>
	<path style="fill:#244D7D;" d="M759.984,309.102c0.005,2.025-2.053,4.18-4.067,4.261c-2.377,0.095-4.618-2-4.569-4.273
		c0.048-2.195,1.924-4.136,4.089-4.231C757.831,304.755,759.979,306.759,759.984,309.102z"/>
	<path style="fill:#244D7D;" d="M768.72,291.389c-0.592,2.647-2.004,4.424-4.723,4.148c-1.947-0.198-3.114-1.63-3.174-3.765
		c-0.052-1.849,0.557-3.269,2.439-3.755C765.937,287.326,767.695,288.442,768.72,291.389z"/>
	<path style="fill:#244D7D;" d="M775.012,252.535c-0.079,2.153-1.736,3.622-3.892,3.451c-1.941-0.154-3.178-1.599-3.128-3.655
		c0.049-2.025,1.386-3.395,3.355-3.439C773.572,248.843,775.092,250.354,775.012,252.535z"/>
	<path style="fill:#244D7D;" d="M769.285,275.957c-2.273-0.81-3.772-2.159-3.182-4.718c0.404-1.752,1.612-2.794,3.583-2.535
		c1.773,0.233,3.136,0.985,3.311,2.961C773.233,274.335,771.59,275.409,769.285,275.957z"/>
</g>
</svg>
