<?xml version="1.0" encoding="iso-8859-1"?>
<!-- Generator: Adobe Illustrator 27.0.0, SVG Export Plug-In . SVG Version: 6.00 Build 0)  -->
<svg version="1.1" id="Layer_1" xmlns="http://www.w3.org/2000/svg" xmlns:xlink="http://www.w3.org/1999/xlink" x="0px" y="0px"
	 viewBox="0 0 1472.376 806" style="enable-background:new 0 0 1472.376 806;" xml:space="preserve">
<g>
	<path style="fill:#B4CF77;" d="M1154.008,791.953c0.373,2.965-0.331,5.811-0.809,8.705c-0.286,1.73-0.565,3.556-0.081,5.342
		c-0.333,0-0.667,0-1,0c0.406-4.69-0.53-9.404,0.237-14.088C1152.906,791.926,1153.457,791.94,1154.008,791.953z"/>
	<path style="fill:#376398;" d="M1038.117,0c0.011,0.685,0.023,1.37,0.034,2.055c-1.228-0.14-1.201-1.524-2.034-2.055
		C1036.784,0,1037.451,0,1038.117,0z"/>
	<path style="fill:#37639A;" d="M662.921,286.541c6.494,2.907,12.194,5.957,17.253,10.083c10.016,8.17,16.226,18.794,19.74,31.06
		c2.617,9.137,3.754,18.535,4.192,28.015c0.161,3.483,0.387,6.959,0.629,10.437c0.59,8.477-0.254,16.956-0.972,25.393
		c-0.59,6.934-1.748,13.841-3.698,20.558c-4.856,16.732-13.73,30.535-29.104,39.531c-9.841,5.758-20.508,8.189-31.873,8.586
		c-20.305,0.709-40.61,0.255-60.912,0.56c-9.317,0.14-12.01-3.242-12.001-11.673c0.098-99.122,0.063-198.243,0.063-297.365
		c0-6.659-0.08-13.319,0.029-19.977c0.07-4.267,1.548-5.842,5.688-5.849c19.635-0.033,39.254-1.638,58.892-0.737
		c9.458,0.434,18.845,1.635,27.967,4.353c21.271,6.339,33.66,20.989,39.058,42.037c1.776,6.925,2.767,14.012,3.146,21.161
		c0.396,7.468,1.242,14.932,0.774,22.417c-0.528,8.442-0.767,16.911-2.419,25.259c-3.754,18.967-14.526,32.83-30.791,42.762
		C666.886,284.188,665.171,285.195,662.921,286.541z M593.059,361.583c0.021,0,0.042,0,0.062,0c0,15.661,0.049,31.322-0.028,46.982
		c-0.025,5.174,0.473,10.296,1.089,15.406c0.788,6.535,4.134,10.622,9.73,11.864c2.74,0.608,5.602,1.044,8.393,0.968
		c9.294-0.254,18.627-0.308,27.824-1.814c10.064-1.648,18.437-6.364,24.634-14.659c7.201-9.638,10.411-20.694,11.314-32.475
		c0.751-9.805,0.401-19.649,0.275-29.473c-0.119-9.325-1.25-18.517-3.881-27.542c-4.429-15.197-14.107-24.846-29.391-28.931
		c-13.806-3.69-27.935-3.783-42.06-3.722c-4.454,0.019-7.041,2.556-7.787,6.93c-0.222,1.301-0.168,2.656-0.169,3.987
		C593.055,326.597,593.059,344.09,593.059,361.583z M593.037,206.982c0.071,0,0.143,0,0.214,0c0,16.145-0.039,32.29,0.029,48.435
		c0.016,3.817,0.591,7.596,1.707,11.277c1.236,4.074,4.068,6.439,8.103,7.213c2.919,0.56,5.942,1.01,8.894,0.891
		c8.448-0.342,16.941-0.254,25.312-1.697c17.434-3.005,29.309-13.123,33.865-30.252c3.277-12.323,3.582-24.934,3.103-37.594
		c-0.404-10.673-2.053-21.094-5.862-31.128c-4.544-11.974-13.035-19.341-25.52-22.156c-5.368-1.21-10.824-1.679-16.293-1.8
		c-7.985-0.178-15.977-0.085-23.965-0.171c-7.052-0.076-9.575,2.373-9.582,9.546C593.026,175.357,593.037,191.17,593.037,206.982z"
		/>
	<path style="fill:#366399;" d="M522.296,459.633c-7.352,0.652-14.315,0.877-21.24,0.181c-4.114-0.414-6.737-3.356-8.57-6.924
		c-2.365-4.603-3.762-9.573-5.351-14.463c-10.72-32.977-21.418-65.962-32.095-98.954c-1.736-5.365-3.304-10.784-5.004-16.162
		c-0.549-1.738-1.2-3.452-1.926-5.124c-2.193-5.048-6.146-7.888-11.566-8.131c-8.145-0.365-16.313-0.463-24.408,0.89
		c-5.385,0.9-7.925,3.287-9.09,8.505c-0.654,2.931-0.941,5.89-0.945,8.905c-0.058,39.826-0.332,79.652,0.143,119.478
		c0.12,10.072-2.835,13-13.069,13.024c-2.157,0.005-4.354,0.002-6.463-0.381c-5.415-0.985-7.388-3.332-7.68-8.785
		c-0.089-1.662-0.047-3.332-0.046-4.998c0.042-69.66,0.106-139.319,0.121-208.979c0.007-32.829-0.079-65.659-0.123-98.488
		c-0.002-1.167-0.018-2.333,0.003-3.5c0.148-8.043,2.904-10.921,11.022-10.475c13.476,0.74,26.972,1.015,40.425,0.447
		c8.169-0.345,16.263,0.035,24.372,0.383c8.835,0.38,17.458,2.107,25.623,5.719c10.128,4.48,17.565,11.748,22.811,21.458
		c5.69,10.532,8.517,21.959,10.611,33.58c2.065,11.463,3.195,23.084,2.883,34.721c-0.437,16.293-2.198,32.451-7.396,48.051
		c-4.722,14.173-13.066,25.243-26.708,32.025c-5.867,2.916-6.883,5.704-4.692,12.268c6.514,19.516,13.207,38.973,19.735,58.485
		c8.626,25.781,17.174,51.588,25.722,77.395C520.428,452.905,521.259,456.093,522.296,459.633z M425.302,150.006
		c-4.661,0-9.322,0.028-13.983-0.007c-7.017-0.052-9.294,2.115-9.311,9.177c-0.019,7.992,0.111,15.984,0.104,23.975
		c-0.017,19.648-0.239,39.297-0.044,58.942c0.086,8.68-0.557,17.251-1.713,25.823c-0.474,3.517,0.223,6.969,1.254,10.304
		c1.217,3.94,4.086,6.424,7.917,7.678c2.192,0.717,4.464,1.177,6.849,1.13c11.135-0.22,22.21-1.523,33.279-2.418
		c12.94-1.045,22.564-8.243,27.954-20.409c4.559-10.29,6.614-21.212,7.443-32.327c0.855-11.459,0.644-22.954-1.006-34.355
		c-1.235-8.531-2.58-17.068-5.938-25.102c-4.703-11.253-12.937-18.124-25.004-20.587
		C443.883,149.949,434.602,150.135,425.302,150.006z"/>
	<path style="fill:#376398;" d="M182.978,328.364c0-17.83,0.254-35.664-0.097-53.487c-0.206-10.478-0.303-20.956-0.503-31.433
		c-0.226-11.825,0.23-23.64,0.998-35.411c0.95-14.565,2.294-29.129,7.416-43.039c8.142-22.108,22.986-36.632,46.493-41.303
		c15.989-3.177,31.852-2.54,47.03,3.742c20.458,8.468,32.103,24.528,37.654,45.481c1.623,6.124,2.425,12.409,2.812,18.693
		c0.88,14.268,1.917,28.526,2.557,42.813c0.492,10.974,0.416,21.964,1.009,32.917c0.919,16.976,0.639,33.947,0.383,50.91
		c-0.241,15.951-1.053,31.901-1.941,47.833c-0.647,11.607-1.438,23.233-2.863,34.764c-2.056,16.635-7.54,32.031-19.274,44.507
		c-8.676,9.224-19.462,15.049-31.856,17.417c-15.648,2.989-31.16,1.758-46.247-3.336c-16.891-5.703-27.85-17.737-34.304-33.94
		c-6.073-15.247-9.263-31.159-9.267-47.637C182.975,361.357,182.978,344.86,182.978,328.364z M300.414,254.488
		c-0.104-19.468,0.038-38.937-2.211-58.327c-0.901-7.77-2.126-15.449-4.976-22.795c-4.705-12.124-12.488-21.25-25.33-24.892
		c-9.287-2.634-18.744-2.363-28.043,0.421c-8.888,2.66-15.455,8.207-19.936,16.281c-3.013,5.429-4.81,11.281-5.849,17.367
		c-3.391,19.849-4.713,39.907-5.759,59.977c-0.468,8.976-0.387,17.982-0.482,26.975c-0.286,27.307,0.588,54.598,1.125,81.894
		c0.265,13.47,0.117,26.948,2.107,40.32c1.497,10.059,3.791,19.873,8.862,28.845c4.903,8.674,12.021,14.663,21.664,17.195
		c8.5,2.232,17.156,2.083,25.669-0.112c9.813-2.53,17.242-8.312,22.326-17.113c2.425-4.198,4.275-8.623,5.564-13.284
		c3.3-11.925,4.588-24.201,4.825-36.455c0.521-26.933,0.353-53.88,0.438-80.821C300.445,278.138,300.414,266.313,300.414,254.488z"
		/>
	<path style="fill:#366399;" d="M773.994,264.356c0,39.989,0.006,79.978-0.004,119.968c-0.003,10.196,0.964,20.164,4.867,29.783
		c6.275,15.465,20.454,24.936,37.169,25.354c22.823,0.57,37.331-15.755,40.75-32.554c1.366-6.71,1.471-13.54,1.47-20.368
		c-0.008-81.314,0-162.628-0.021-243.942c-0.001-4.227,0.546-8.254,2.786-11.954c5.132-8.476,15.893-7.929,22.011-3.978
		c2.346,1.515,3.077,4.092,2.592,6.589c-0.646,3.332-0.472,6.636-0.474,9.949c-0.029,51.821-0.093,103.642,0.006,155.463
		c0.063,32.822,0.238,65.643-0.153,98.464c-0.394,33.087-21.711,59.718-53.222,66.404c-25.623,5.436-57.683-5.924-72.379-27.757
		c-6.258-9.298-9.45-19.663-10.303-30.83c-1.308-17.119-1.097-34.263-1.101-51.405c-0.015-63.651-0.002-127.303-0.012-190.954
		c-0.001-7.149-0.897-14.275-0.58-21.438c0.095-2.158,0.138-4.293,0.51-6.446c1.078-6.241,2.585-8.018,8.637-9.233
		c3.283-0.659,6.649-0.651,9.92-0.061c4.955,0.894,7.148,3.478,7.562,8.484c0.137,1.656,0.092,3.329,0.092,4.994
		c0.004,41.823,0.003,83.647,0.003,125.47C774.078,264.356,774.036,264.356,773.994,264.356z"/>
	<path style="fill:#376398;" d="M1044.213,374.498c0.303-12.197-0.799-24.062-3.795-35.741
		c-3.476-13.546-11.487-23.461-23.906-29.71c-10.681-5.375-21.903-9.54-32.917-14.167c-7.496-3.149-15.148-5.961-22.288-9.906
		c-16.623-9.183-26.564-23.249-30.141-41.804c-2.728-14.149-2.078-28.493-2.043-42.79c0.029-11.73,1.89-23.188,5.992-34.178
		c9.584-25.677,28.337-39.727,55.321-43.31c11.885-1.578,23.659-1.079,35,2.654c22.182,7.303,35.6,23.027,41.6,45.306
		c2.464,9.148,3.2,18.63,4.864,27.936c0.818,4.579-1.271,7.041-5.924,8.255c-3.279,0.856-6.6,0.948-9.897,0.59
		c-2.479-0.268-4.948-0.528-7.439-0.686c-3.401-0.216-4.109-1.031-4.625-4.615c-0.922-6.404-1.475-12.86-2.836-19.202
		c-1.441-6.714-3.725-13.123-7.363-18.944c-7.253-11.607-18.32-16.373-31.52-17.071c-22.251-1.177-40.007,13.135-44.235,35.536
		c-0.745,3.946-1.122,7.888-1.096,11.901c0.064,9.639-0.295,19.255-0.847,28.89c-0.884,15.428,6.3,27.118,18.548,36.012
		c6.244,4.534,13.178,7.723,20.347,10.41c3.27,1.226,6.515,2.463,9.612,4.077c5.027,2.62,10.409,4.302,15.763,6.093
		c16.607,5.557,30.324,14.92,39.487,30.245c5.641,9.434,8.714,19.751,10.056,30.527c1.52,12.214,2.089,24.546,1.789,36.837
		c-0.361,14.777-1.462,29.558-6.638,43.623c-8.766,23.823-25.946,37.585-50.846,41.742c-14.493,2.419-28.812,1.197-42.893-2.911
		c-19.456-5.676-32.304-18.343-39.343-37.181c-4.37-11.697-5.628-23.861-5.559-36.227c0.007-1.31,0.301-2.635,0.592-3.924
		c0.829-3.676,2.147-4.753,5.823-4.752c1.159,0,2.372,0.014,3.468,0.336c2.971,0.873,5.839,0.646,8.852,0.039
		c6.172-1.244,8.744,0.958,8.806,7.263c0.07,7.143-0.038,14.221,1.926,21.269c4.835,17.347,17.68,29.733,37.423,31.419
		c10.199,0.871,19.937-0.267,28.948-5.083c11.963-6.393,17.449-17.362,19.86-30.128
		C1043.932,393.624,1044.454,383.992,1044.213,374.498z"/>
	<path style="fill:#37639A;" d="M1.165,343.393c0.219-17.966-1.544-40.919-1.09-63.909c0.25-12.658-0.095-25.334,0.428-37.978
		c0.576-13.941,1.538-27.884,2.891-41.771c1.205-12.365,2.275-24.803,6.685-36.636c7.964-21.369,22.932-34.478,45.311-39.176
		c7.013-1.472,14.056-2.531,21.209-2.606c29.874-0.314,50.379,17.998,59.442,41.316c4.194,10.791,5.617,22.184,6.849,33.58
		c0.511,4.726-2.356,7.363-7.02,6.474c-2.714-0.517-5.233-0.51-7.854,0.153c-0.956,0.242-1.984,0.232-2.982,0.27
		c-5.409,0.208-7.679-1.431-8.763-6.716c-0.867-4.224-1.415-8.513-2.147-12.766c-1.396-8.116-3.985-15.729-9.029-22.409
		c-6.408-8.485-15.032-12.96-25.413-14.042c-6.134-0.639-12.311-0.358-18.362,1.094c-10.191,2.445-17.453,8.561-22.224,17.795
		c-5.263,10.187-7.667,21.153-9.029,32.434c-1.14,9.445-0.884,18.939-1.318,28.408c-0.654,14.285-1.937,28.548-1.595,42.863
		c0.191,7.979,0.483,15.99,0.422,23.936c-0.066,8.632-0.102,17.293-0.332,25.938c-0.52,19.483,0.234,38.94,2.022,58.327
		c1.051,11.391,2.51,22.786,5.817,33.824c1.296,4.324,3.128,8.422,5.603,12.183c5.99,9.1,14.76,13.747,25.345,14.925
		c5.937,0.661,11.924,0.585,17.905-0.443c9.889-1.701,17.09-7.147,22.122-15.518c5.103-8.49,8.489-17.613,8.986-27.665
		c0.29-5.851,3.314-8.987,9.074-9.091c4.467-0.081,8.992-0.644,13.424,0.571c3.711,1.018,4.658,1.801,4.535,5.413
		c-0.693,20.371-6.039,39.148-20.47,54.225c-8.995,9.398-20.34,14.768-33.279,16.657c-12.322,1.8-24.585,1.513-36.634-1.623
		c-19.073-4.964-31.814-17.309-39.506-35.122c-4.97-11.511-7.693-23.607-9.212-36.051C1.278,376.342,1.032,362.391,1.165,343.393z"
		/>
	<path style="fill:#376398;" d="M1325.086,349.947c5.111,19.72,10.362,39.406,15.293,59.171c4.496,18.022,7.975,36.238,9.868,54.753
		c1.333,13.041,2.37,26.084,3.1,39.177c1.352,24.26,0.83,48.514,0.634,72.775c-1.516-0.313-1.704-1.755-2.371-2.789
		c-1.115-1.73-1.598-3.844-3.208-5.271c-1.915-28.524-5.301-56.882-10.415-85c-6.575-36.153-16.236-71.461-30.244-105.502
		c-0.12-0.291-0.414-0.509-0.627-0.761c-0.592-7.197-3.478-13.713-6.164-20.263c-0.858-2.092-1.834-4.283-3.809-5.714
		c-9.004-32.449-24.254-62.077-41.176-90.935c-15.055-25.674-30.733-50.957-47.736-75.4c-16.078-23.113-33.455-45.18-52.257-66.155
		c-21.025-23.455-43.145-45.829-65.99-67.482c-14.372-13.622-29.089-26.882-44.166-39.736c-2.969-2.531-6.344-4.875-7.751-8.849
		c2.14-0.613,3.354,1.112,4.787,2.045c21.334,13.896,42.063,28.646,62.03,44.45c21.154,16.744,41.392,34.511,60.73,53.349
		c41.105,40.043,76.494,84.582,105.988,133.775c16.848,28.101,31.492,57.338,43.695,87.77c0.246,0.614,0.614,1.179,0.925,1.766
		C1318.134,333.768,1321.483,341.903,1325.086,349.947z"/>
	<path style="fill:#97C13F;" d="M1297.144,350.523c1.975,1.431,2.951,3.621,3.809,5.714c2.686,6.55,5.572,13.066,6.164,20.263
		c-7.023,8.654-13.064,18.009-19.195,27.282c-18.063,27.319-34.347,55.677-48.802,85.067c-15.39,31.291-28.654,63.468-39.931,96.469
		c-8.743,25.583-16.333,51.507-22.672,77.778c-6.266,25.966-11.48,52.151-15.616,78.555c-2.62,16.728-4.762,33.512-6.893,50.302
		c-0.551-0.014-1.102-0.027-1.653-0.041c-0.528-14.474-0.422-28.956,0.121-43.417c0.798-21.242,2.217-42.427,5.381-63.504
		c2.365-15.754,4.466-31.544,7.142-47.256c4.635-27.217,11.281-53.904,20.23-80.022c10.33-30.149,21.517-59.958,35.066-88.834
		c17.301-36.872,38.953-71.068,63.69-103.356C1288.033,360.237,1292.359,355.173,1297.144,350.523z"/>
	<path style="fill:#3B649A;" d="M375.598,574.813c-1.479,0-2.789,0-4.142,0c-0.305-0.434-0.709-0.789-0.837-1.225
		c-0.987-3.357-1.564-6.767-1.529-10.293c0.066-6.491,0.056-12.984-0.002-19.475c-0.02-2.289,0.249-4.676-1.441-7.003
		c-4.894,8.258-10.165,16.09-14.502,24.481c-0.864,1.671-1.722,3.234-3.455,4.085c-3.155,1.547-6.048,0.494-7.825-2.985
		c-4.235-8.292-9.534-15.96-14.041-24.091c-0.228-0.411-0.644-0.717-1.17-1.286c-1.204,2.856-1.542,5.646-1.534,8.516
		c0.016,5.992-0.029,11.985,0.017,17.977c0.028,3.679-0.365,7.274-1.602,10.742c-4.079,0.551-5.303-0.241-5.391-3.975
		c-0.156-6.655-0.141-13.314-0.153-19.971c-0.021-11.319-0.015-22.638,0-33.957c0.001-0.987,0.152-1.973,0.223-2.831
		c4.092-3.132,6.558-2.814,8.775,1.553c2.551,5.024,4.717,10.247,6.98,15.414c2.193,5.011,4.239,10.087,6.461,15.084
		c1.306,2.938,3.07,5.533,6.657,6.45c4.56-1.079,6.401-4.853,7.896-8.752c3.326-8.68,7.118-17.154,10.966-25.606
		c0.683-1.501,1.402-3.046,2.42-4.318c1.311-1.637,3.121-2.457,5.311-1.714c2.128,0.722,2.465,2.4,2.461,4.381
		c-0.04,19.142-0.043,38.283-0.072,57.425C376.067,573.741,375.868,574.043,375.598,574.813z"/>
	<path style="fill:#40699C;" d="M290.945,572.088c-3.388,4.788-6.081,4.982-9.077,0.848c-2.348-3.239-4.023-6.881-5.615-10.531
		c-1.064-2.44-2.367-4.732-3.605-7.073c-1.854-3.507-4.712-4.996-8.549-4.824c-2.49,0.112-4.981,0.262-7.464,0.477
		c-3.699,0.32-4.828,1.327-4.724,4.955c0.124,4.315-0.551,8.613-0.003,12.942c0.306,2.415-0.308,4.676-3.064,5.582
		c-3.386,1.113-6.454-0.883-6.524-4.598c-0.05-2.626,0.784-5.264,0.783-7.896c-0.002-5.309-0.467-10.618-0.443-15.926
		c0.038-8.47,0.242-16.942,0.519-25.408c0.23-7.045,2.695-9.451,9.851-9.6c6.485-0.135,12.976,0.044,19.462-0.061
		c16.013-0.259,22.356,18.164,16.246,28.344c-1.716,2.859-3.764,5.461-5.883,8.024c-2.867,3.469-3.235,5.768-0.461,9.397
		C285.97,561.42,287.779,566.968,290.945,572.088z M264.181,517.727c-1.332,0-2.665-0.037-3.995,0.007
		c-5.267,0.174-7.063,1.578-8.414,6.708c-1.351,5.131-0.841,10.248,0.615,15.243c0.936,3.211,2.976,4.585,6.365,4.307
		c4.62-0.379,9.296-0.716,13.799-1.733c8.465-1.91,11.905-9.062,8.716-17.139c-1.253-3.175-3.419-5.178-6.715-6.105
		C271.149,518.059,267.67,517.925,264.181,517.727z"/>
	<path style="fill:#3B669B;" d="M165.404,574.614c-1.778-5.531-0.153-10.396,2.047-15.074c2.114-4.496,4.703-8.768,6.837-13.255
		c4.631-9.742,7.3-20.261,11.727-30.092c0.27-0.599,0.346-1.292,0.657-1.863c1.108-2.037,2.7-3.354,5.181-3.189
		c2.304,0.154,3.479,1.583,4.272,3.599c2.243,5.702,4.534,11.385,6.848,17.058c5.318,13.038,10.079,26.301,15.786,39.183
		c0.193,0.436,0.155,0.975,0.219,1.426c-0.484,2.206-2.194,2.779-3.914,3.209c-2.835-0.548-4.243-2.568-5.524-4.764
		c-1.954-3.351-4.52-6.211-7.657-8.443c-7.009-4.987-15.952-4.609-22.662,0.858c-2.853,2.325-5.328,5.023-7.061,8.306
		C170.761,574.224,168.856,575.668,165.404,574.614z M201.537,551.875c-4.109-8.527-4.584-17.843-11.098-24.92
		c-3.587,8.241-7.393,15.912-8.105,24.92C188.741,551.875,194.813,551.875,201.537,551.875z"/>
	<path style="fill:#426A9D;" d="M588.737,569.503c0.589,5.779,0.142,6.23-5.208,6.412c-6.141,0.209-12.276,0.613-18.416,0.869
		c-2.985,0.125-5.931-0.093-8.904-0.659c-4.556-0.867-6.847-3.767-7.993-7.887c-1.034-3.715-1.108-7.551-1.1-11.377
		c0.018-8.654,0.101-17.307,0.097-25.961c-0.002-3.516,0.517-6.976,1.241-10.374c1.715-8.037,5.79-11.26,14.003-11.242
		c6.69,0.015,13.153,1.658,19.616,3.128c2.238,0.509,4.602,0.737,6.918,2.073c-2.609,2.306-5.579,3.412-8.893,3.451
		c-4.488,0.053-8.978-0.107-13.467-0.143c-1.661-0.013-3.337-0.055-4.982,0.131c-2.489,0.282-4.654,1.508-5.216,3.992
		c-0.948,4.194-1.835,8.485-1.059,12.822c0.801,4.483,2.658,6.311,7.177,7.053c2.45,0.402,4.937,0.343,7.425-0.213
		c3.094-0.691,6.276-0.823,9.436-0.578c3.211,0.249,5.361,2.519,5.389,5.443c0.026,2.69-1.918,4.358-5.529,4.412
		c-2.484,0.037-5.043,0.055-7.444-0.48c-4.073-0.906-7.942,0.125-11.861,0.684c-1.931,0.276-3.231,1.649-3.897,3.499
		c-0.739,2.052-1.166,4.16-0.896,6.362c0.66,5.367,2.689,7.28,8.161,7.322c6.652,0.051,13.305-0.063,19.957-0.092
		C585.091,568.144,586.992,567.699,588.737,569.503z"/>
	<path style="fill:#40699C;" d="M916.755,574.179c-4.811,2.108-7.322,1.333-8.148-3.263c-1.296-7.208-5.605-11.334-14.562-11.184
		c-3.827,0.064-7.662-0.006-11.48,0.211c-5.582,0.317-9.349,3.065-10.761,8.66c-0.203,0.804-0.447,1.598-0.704,2.387
		c-1.37,4.198-3.011,4.826-7.553,2.859c-1.04-2.105-0.429-4.12,0.362-6.189c6.688-17.507,13.565-34.939,20.789-52.232
		c0.442-1.058,1.026-2.124,1.784-2.972c2.085-2.332,4.959-2.188,6.745,0.404c0.929,1.348,1.555,2.928,2.183,4.458
		c6.799,16.568,13.6,33.136,20.318,49.737C916.634,569.294,917.984,571.596,916.755,574.179z M880.24,551.931
		c6.873,0,13.146,0,19.883,0c-4.384-8.18-4.209-18.02-11.495-25.116C885.769,535.374,883.071,543.453,880.24,551.931z"/>
	<path style="fill:#456DA0;" d="M41.921,550.747c-2.826,0-5.655-0.076-8.479,0.018c-4.079,0.136-5.927,1.9-6.563,5.984
		c-0.573,3.674-0.117,7.321,0.455,10.924c0.248,1.561,0.229,2.974-0.327,4.373c-0.854,2.149-2.642,2.918-4.809,2.768
		c-1.962-0.136-3.462-1.046-4.123-3.049c-0.534-1.618-0.68-3.288-0.386-4.929c0.684-3.81-0.071-7.641,0.159-11.394
		c0.689-11.26-0.72-22.588,1.264-33.8c1.401-7.918,5.813-13.002,15.509-12.716c6.372,0.188,12.551,1.223,18.568,3.138
		c8.096,2.577,12.655,9.037,12.833,17.605c0.079,3.84-0.131,7.597-1.525,11.267c-2.398,6.313-7.036,9.467-13.594,9.911
		c-2.981,0.202-5.988,0.034-8.983,0.034C41.92,550.836,41.921,550.792,41.921,550.747z M38.611,517.901
		c-1.163-0.053-2.332-0.049-3.488-0.167c-6.757-0.691-9.197,3.777-8.743,9.174c0.321,3.81,0.238,7.622,0.602,11.415
		c0.441,4.598,2.404,6.529,6.962,6.772c5.007,0.268,9.976-0.28,14.863-1.239c2.946-0.578,5.637-1.947,7.393-4.655
		c4.639-7.15,1.234-17.292-6.754-20.15C45.915,517.787,42.263,517.897,38.611,517.901z"/>
	<path style="fill:#3B669B;" d="M455.747,574.321c-5.429,1.988-7.248,1.298-8.338-3.94c-1.842-8.852-7.497-12.248-16.424-11.177
		c-4.138,0.497-8.246,0.799-12.4,0.819c-3.853,0.018-5.428,1.069-6.364,4.86c-0.688,2.788-1.667,5.393-3.174,7.787
		c-2.381,3.781-4.277,3.805-7.734,0.209c-0.315-2.285,1.115-4.094,1.887-6.052c6.683-16.957,13.452-33.88,20.205-50.809
		c0.307-0.769,0.641-1.541,1.07-2.246c2.451-4.03,6.355-4.059,8.404,0.164c2.239,4.614,4.122,9.406,6.037,14.17
		c5.311,13.214,10.594,26.441,15.793,39.699C455.471,569.745,456.79,571.688,455.747,574.321z M428.398,526.855
		c-4.616,8.142-6.842,16.46-9.091,24.969c6.457,0,12.659,0,19.357,0C435.348,543.33,434.278,534.444,428.398,526.855z"/>
	<path style="fill:#426A9D;" d="M1046.386,522.753c-2.076,0.673-3.474-0.701-4.974-1.69c-4.829-3.186-10.23-3.936-15.784-3.327
		c-6.872,0.754-12.395,9.612-10.164,16.104c1.17,3.404,3.814,5.385,7.249,6.228c4.51,1.106,9.056,2.065,13.568,3.162
		c2.257,0.549,4.481,1.24,6.708,1.906c5.087,1.521,9.189,4.223,9.986,9.896c0.88,6.267-0.363,12.003-5.778,16.054
		c-4.788,3.582-10.349,5.248-16.214,5.761c-9.189,0.803-16.931-2.529-23.556-8.722c-1-2.47-0.165-4.237,2.019-5.468
		c1.968-1.109,3.463-0.103,4.941,1.128c7.01,5.835,15.117,5.46,23.222,3.597c5.774-1.327,8.853-7.052,7.6-12.786
		c-0.548-2.507-1.903-3.662-5.116-3.65c-5.201,0.019-10.235-0.999-15.314-1.875c-2.331-0.402-4.493-1.148-6.649-2.018
		c-6.697-2.703-10.972-7.722-10.835-16.268c0.186-11.585,5.802-18.558,17.276-19.976c6.997-0.864,13.519-0.189,19.952,2.558
		C1049.792,515.613,1050.502,519.229,1046.386,522.753z"/>
	<path style="fill:#426A9D;" d="M616.54,511.457c1.79-0.204,3.271-0.465,5.008,0.45c2.087,3.664,2.334,8.009,2.067,12.239
		c-0.63,9.967-0.895,19.917,0.45,29.823c0.713,5.252,2.737,9.978,7.802,12.644c11.698,6.156,24.019-1.121,24.211-14.387
		c0.162-11.153,0.099-22.309,0.151-33.463c0.006-1.326-0.057-2.685,0.206-3.969c0.305-1.493,1.083-2.705,2.749-3.234
		c3.2-1.016,5.879,0.532,5.887,3.89c0.03,12.648,0.419,25.326-0.295,37.939c-1.203,21.269-23.625,29.529-38.704,19.489
		c-5.944-3.957-8.579-9.955-9.732-16.737C615.856,553.295,616.074,515.256,616.54,511.457z"/>
	<path style="fill:#456DA0;" d="M95.97,575.446c-3.641-1.735-4.749-4.575-4.746-7.928c0.012-16.494,0.063-32.989,0.148-49.483
		c0.024-4.584,1.187-6.415,3.828-6.463c2.784-0.051,3.851,1.586,3.813,6.264c-0.035,4.338,0.215,8.629,1.016,12.906
		c1.537,8.213,6.06,12.175,14.33,12.469c4.038,0.143,7.966-0.58,11.839-1.507c3.777-0.904,4.663-2.328,5.023-6.366
		c0.457-5.131-0.392-10.309,0.817-15.427c0.708-2.998,1.903-5.556,4.638-8.079c0,21.21,0,41.873,0,62.773
		c-0.813,1.004-2.098,1.622-3.866,1.913c-0.73-1.918-0.623-3.888-0.588-5.814c0.067-3.684-0.403-7.314-1.081-10.908
		c-1.045-5.537-4.809-9.066-10.426-9.897c-4.142-0.613-8.311-0.598-12.451-0.027c-6.296,0.868-9.091,3.95-9.307,10.248
		c-0.097,2.825,0.082,5.659,0.062,8.488C99,571.17,98.391,573.514,95.97,575.446z"/>
	<path style="fill:#426A9D;" d="M839.836,566.579c-0.175,1.792-1.306,2.904-2.668,3.972c-10.352,8.119-20.988,8.408-32.155,0.763
		c-4.979-3.408-7.339-8.257-7.962-14.258c-1.002-9.647-0.808-19.255,0.105-28.879c0.54-5.694,3.334-10.123,7.959-13.23
		c7.519-5.05,19.773-7.371,29.671-0.848c1.374,0.905,2.671,2.007,3.769,3.229c1.181,1.315,1.528,2.929,0.419,4.558
		c-1.127,1.656-2.688,1.824-4.39,1.143c-3.545-1.419-7.103-2.79-10.868-3.521c-1.137-0.221-2.277-0.475-3.428-0.568
		c-9.768-0.789-13.319,4.103-15.041,11.278c-2.116,8.82-2.098,17.897-0.001,26.722c1.433,6.031,4.104,9.619,11.976,9.593
		c5.758-0.019,11.145-1.582,16.582-3.136C837.281,562.405,837.789,562.768,839.836,566.579z"/>
	<path style="fill:#40699C;" d="M516.887,523.873c-1.95-0.371-3.316-1.335-4.772-2.12c-3.094-1.669-6.364-2.791-9.89-3.141
		c-9.448-0.936-15.485,3.35-17.003,12.739c-1.247,7.714-1.686,15.509-0.202,23.312c2.389,12.56,14.928,17.785,26.219,10.813
		c1.546-0.955,2.998-2.06,4.323-2.977c3.002,0.058,3.982,1.936,4.447,4.141c0.453,2.15-1.071,3.454-2.582,4.472
		c-7.787,5.241-16.099,8.064-25.326,4.204c-9.528-3.986-14.025-11.558-15.039-21.665c-0.717-7.149-0.423-14.227-0.005-21.368
		c0.797-13.62,9.597-20.859,23.027-21.992c6.242-0.526,11.713,1.91,16.9,4.993C521.186,517.78,521.15,520.176,516.887,523.873z"/>
	<path style="fill:#456DA0;" d="M982.735,569.164c0.105,5.428-1.592,8.117-5.961,7.561c-8.801-1.119-17.629-0.264-26.382-1.134
		c-5.729-0.569-7.228-2.46-8.42-8.139c-0.414-1.975-0.598-3.936-0.606-5.94c-0.06-14.982-0.141-29.964-0.202-44.945
		c-0.014-3.572,1.314-5.117,4.474-5.302c2.812-0.165,5.095,1.852,4.91,5.056c-0.625,10.795,0.949,21.572,0.097,32.359
		c-0.235,2.978-0.679,5.968-0.576,8.938c0.333,9.672,4.796,11.096,10.953,10.838c3.818-0.16,7.634-0.44,11.439-0.791
		C975.961,567.341,979.391,567.2,982.735,569.164z"/>
	<path style="fill:#3B669B;" d="M736.936,512.616c0.211,1.647-0.782,2.783-1.789,4.181c-2.351,0-4.817-0.111-7.27,0.021
		c-7.049,0.381-10.993,4.071-11.782,11.072c-0.599,5.309-0.054,10.62,0.213,15.929c0.557,11.042,0.526,22.074-0.471,33.613
		c-4.682-3.001-6.726-6.756-6.762-11.812c-0.06-8.454-0.402-16.906,0.024-25.359c0.202-3.999-0.378-7.95-0.699-11.921
		c-0.367-4.541-2.526-7.845-6.449-9.976c-2.324-1.262-4.78-2.282-7.18-3.405c-1.62-0.758-3.246-1.506-5.245-2.433
		C695.713,511.861,733.114,511.971,736.936,512.616z"/>
	<path style="fill:#376398;" d="M761.444,573.207c-1.273-12.611-0.784-56.774,0.672-60.741c1.371-0.843,2.827-0.721,4.226-0.358
		c2.027,1.158,1.896,3.086,1.898,4.899c0.021,17.325,0.013,34.65,0.01,51.975c0,0.499-0.064,0.998-0.064,1.497
		c-0.001,1.829-0.72,3.231-2.422,4.018C763.922,575.348,762.591,574.497,761.444,573.207z"/>
	<path style="fill:#80C7EA;" d="M1370.19,231.416c-7.922,3.215-16.037,4.301-24.566,2.914c-6.258-1.018-12.243-2.605-17.6-6.03
		c-10.141-6.483-16.218-15.953-18.747-27.494c-3.083-14.066-0.969-27.112,8.82-38.445c7.816-9.049,17.376-14.873,29.061-17.265
		c0.062,1.298-0.376,2.662,0.847,4.307c2.193,1.088,4.909,2.281,7.477,3.736c9.495,5.382,17.604,12.23,22.373,22.32
		c2.187,4.627,2.693,9.661,3.523,14.698c0.947,5.743-0.097,11.015-1.105,16.409c-1.404,7.511-4.634,14.303-8.745,20.713
		C1370.751,228.49,1369.859,229.79,1370.19,231.416z"/>
	<path style="fill:#97C13F;" d="M1325.086,349.947c-3.603-8.044-6.953-16.178-8.863-24.827c5.602-4.74,10.558-10.155,15.558-15.478
		c21.624-23.024,45.291-43.581,71.613-61.115c20.762-13.83,41.455-27.738,63.859-38.848c1.405-0.697,2.664-2.14,5.123-1.198
		C1416.095,248.482,1367.705,296.225,1325.086,349.947z"/>
	<path style="fill:#4FB1E1;" d="M1370.19,231.416c-0.33-1.626,0.561-2.926,1.337-4.137c4.111-6.409,7.341-13.201,8.745-20.713
		c1.008-5.394,2.052-10.666,1.105-16.409c-0.831-5.037-1.336-10.071-3.523-14.698c-4.769-10.09-12.877-16.939-22.373-22.32
		c-2.568-1.455-5.284-2.649-7.477-3.736c-1.224-1.645-0.785-3.009-0.847-4.307c1.294-0.895,2.742-1.097,4.269-0.959
		c10.979,0.991,21.391,3.35,30.304,10.56c5.318,4.302,9.165,9.571,11.855,15.632c3.169,7.141,4.769,14.738,4.462,22.626
		C1397.338,211.178,1386.033,225.896,1370.19,231.416z"/>
	<path style="fill:#A5B8D0;" d="M1348.402,567.763c1.611,1.428,2.094,3.542,3.208,5.271c0.667,1.035,0.855,2.477,2.371,2.789
		c2.082,6.32,0.12,12.312-1.513,18.322c-1.369,5.039-3.027,10.003-4.067,15.183C1348.402,595.472,1348.402,581.617,1348.402,567.763
		z"/>
</g>
</svg>
