<?xml version="1.0" encoding="iso-8859-1"?>
<!-- Generator: Adobe Illustrator 27.0.0, SVG Export Plug-In . SVG Version: 6.00 Build 0)  -->
<svg version="1.1" id="Layer_1" xmlns="http://www.w3.org/2000/svg" xmlns:xlink="http://www.w3.org/1999/xlink" x="0px" y="0px"
	 viewBox="0 0 1580 338" style="enable-background:new 0 0 1580 338;" xml:space="preserve">
<g>
	<path style="fill:#2C52A4;" d="M1050.109,0.894c11.849,1.115,22.422,5.795,32.555,11.686c3.554,2.066,7.041,4.236,10.583,7.325
		c-5.411,0-10.179,0.021-14.947-0.004c-17.078-0.09-33.292,3.786-48.725,10.91c-17.933,8.278-34.64,18.884-53.303,27.645
		c7.211,4.341,13.501,8.351,19.998,11.992c11.954,6.699,24.5,11.692,38.195,13.837c13.218,2.07,26.123,1.231,39.024-1.961
		c13.827-3.421,26.48-9.655,39.124-15.938c8.185-4.068,16.492-7.858,24.987-11.237c23.72-9.436,46.494-7.342,68.38,5.584
		c3.988,2.356,8.008,4.674,11.911,8.101c-2.208,0.741-4.118,0.375-5.946,0.28c-17.347-0.902-34.147,1.689-50.378,7.856
		c-10.282,3.907-19.939,9.095-29.422,14.627c-12.538,7.314-25.652,13.45-39.706,17.089c-21.084,5.458-42.082,6.057-62.366-3.562
		c-11.585-5.494-21.332-13.456-29.997-22.829c-3.849-4.163-7.867-8.143-12.929-10.895c-5.872-3.193-12.254-4.333-18.781-4.145
		c-10.893,0.314-21.345,3.032-31.526,6.798c-13.769,5.093-26.428,12.355-39.147,19.599c-15.102,8.601-31.24,14.804-48.578,17.138
		c-27.465,3.697-51.288-4.254-71.346-23.31c-5.534-5.257-11.031-10.615-14.954-17.298c0.239-0.22,0.456-0.46,0.651-0.721
		c3.742,1.786,7.461,3.624,11.231,5.351c16.423,7.521,33.517,11.738,51.72,10.24c12.869-1.059,25.046-4.729,36.9-9.731
		c10.104-4.264,19.742-9.491,29.737-13.972c3.916-1.756,7.793-3.601,12.136-5.613c-11.573-6.762-21.277-15.113-29.98-24.715
		c-6.848-7.556-15.322-12.222-25.697-12.647c-6.993-0.286-13.914,0.507-20.732,2.208c-16.575,4.136-31.92,11.176-46.588,19.767
		c-15.273,8.945-31.205,16.187-48.625,19.883c-29.176,6.19-55.012-0.258-77.187-20.382c-6.533-5.929-12.561-12.367-17.385-19.826
		l-0.102,0.083c1.901-0.683,3.1,0.797,4.517,1.517c12.326,6.264,25.022,11.439,38.805,13.527c16.091,2.438,31.771,0.707,47.1-4.597
		c11.936-4.13,23.27-9.633,34.624-15.108c10.751-5.184,21.55-10.265,33.252-13.104C800.133,1.627,803.395,1.993,806,0c6,0,12,0,18,0
		c0.398,0.259,0.776,0.706,1.197,0.75c9.065,0.957,17.397,4.203,25.33,8.44c7.464,3.986,14.744,8.319,22.064,12.57
		c12.776,7.42,26.337,12.601,41.107,14.105c16.126,1.642,31.837-0.411,46.984-6.222c12.713-4.877,24.772-11.206,37.087-16.969
		c10.06-4.707,20.219-9.201,31.274-11.243c1.635-0.302,3.756,0.526,4.957-1.431c1,0,2,0,3,0c0.234,0.691,0.73,1.021,1.445,1.014
		C1042.333,0.978,1046.221,0.935,1050.109,0.894z"/>
	<path style="fill:#0C0B0B;" d="M719,338c-2.464-2.124-5.649-1.332-8.442-1.833c-19.501-3.501-34.953-13.226-46.066-29.556
		c-6.744-9.91-10.146-21.103-11.519-33.01c-1.31-11.363-0.93-22.572,1.906-33.662c6.818-26.66,23.579-43.738,50.109-50.705
		c19.159-5.032,38.222-4.058,56.672,3.638c20.795,8.674,33.439,24.457,39.262,45.915c2.356,8.681,3.119,17.604,2.922,27.076
		c-43.913,0-87.635,0-131.584,0c0.764,13.647,4.333,25.797,12.352,36.459c7.44,9.891,17.774,14.79,29.627,16.591
		c9.058,1.376,18.124,1.598,27.257-0.619c14.613-3.548,25.316-11.836,32.674-24.78c1.137-2.001,1.633-4.355,3.295-6.099
		c6.833,0,13.629,0,20.898,0c-1.152,6.352-3.58,11.939-6.777,17.114c-12.083,19.559-29.72,30.291-52.573,32.511
		c-0.786,0.076-1.701-0.113-2.012,0.961c-0.333,0-0.667,0-1,0c-0.381-1.29-1.477-1.152-2.362-0.988
		c-3.521,0.652-7.277-1.268-10.638,0.988C721.667,338,720.333,338,719,338z M673.225,248.789c36.799,0,73.208,0,109.717,0
		c-0.365-2.425-0.645-4.569-1.025-6.695c-0.204-1.139-0.529-2.264-0.885-3.368c-5.593-17.338-16.674-29.078-34.521-34.029
		c-9.803-2.72-19.777-2.673-29.692-1.533c-7.413,0.853-14.574,3.037-20.924,7.365C682.451,219.693,674.592,232.125,673.225,248.789z
		"/>
	<path style="fill:#0E0D0C;" d="M873.93,337.066c-18.894-1.101-34.862-7.963-46.115-23.785c-5.586-7.854-8.304-16.818-9.434-26.693
		c6.2,0,12.268,0,18.356,0c0.823,1.111,0.893,2.46,1.119,3.767c1.408,8.149,5.646,14.33,12.624,18.816
		c7.294,4.688,15.333,6.818,23.809,7.941c11.826,1.567,23.553,0.959,35.244-1.074c6.989-1.215,13.296-4.032,18.975-8.302
		c7.862-5.912,9.269-16.777,6.059-24.296c-1.292-3.026-3.444-5.215-6.252-6.892c-5.388-3.22-11.361-4.57-17.444-5.461
		c-16.587-2.43-33.213-4.604-49.779-7.165c-9.093-1.406-17.614-4.629-25.359-9.727c-7.247-4.77-11.058-11.675-12.719-20.014
		c-4.553-22.861,9.888-37.759,25.601-44.199c7.119-2.918,14.605-4.259,22.244-4.997c9.135-0.882,18.235-0.962,27.372,0.016
		c11.677,1.25,22.796,4.143,32.899,10.343c9.787,6.006,15.434,14.882,17.727,25.958c0.622,3.007,1.762,6.06,0.784,9.434
		c-5.987,0-11.921,0-17.803,0c-1.193-0.886-0.737-2.192-0.991-3.27c-2.643-11.249-9.998-18.037-20.611-21.622
		c-11.066-3.739-22.531-3.771-34.016-3.252c-6.823,0.308-13.521,1.319-19.908,3.943c-7.401,3.041-12.471,8.007-14.003,16.15
		c-1.403,7.457,1.567,13.96,8.288,17.552c7.123,3.806,14.911,5.469,22.779,6.791c16.034,2.694,32.105,5.187,48.104,8.071
		c6.362,1.147,12.386,3.589,18.035,6.85c10.716,6.188,15.969,15.602,16.432,27.808c0.827,21.827-11.007,35.278-29.266,42.034
		c-8.59,3.179-17.52,5.059-26.743,5.222c-0.796,0.014-1.701-0.14-1.937,0.99c-4.667,0-9.333,0-14,0
		C880.792,336.083,877.286,337.38,873.93,337.066z"/>
	<path style="fill:#0D0C0C;" d="M0,247c1.996-1.684,1.407-4.231,1.855-6.323c3.892-18.19,13.042-32.851,28.368-43.561
		c9.464-6.614,20.19-10.096,31.391-11.775c15.004-2.248,29.89-1.247,44.078,4.657c18.796,7.823,32.229,20.739,37.761,40.877
		c0.262,0.955,0.434,1.943,0.56,2.927c0.103,0.801,0.527,1.619-0.238,2.696c-6.014,0-12.284,0-18.748,0
		c-1.211-2.81-2.308-5.748-3.708-8.534c-7.402-14.717-19.839-22.532-35.713-24.812c-9.737-1.399-19.647-1.146-29.165,1.859
		c-20.17,6.369-31.651,20.501-35.379,41.012c-2.137,11.755-1.92,23.583,1.891,35.018c5.992,17.977,17.941,30.023,36.538,34.74
		c11.816,2.997,23.763,3.197,35.407-0.836c16.027-5.551,27.418-15.871,32.081-32.676c0.221-0.796,0.215-1.658,1.289-2.438
		c5.618,0,11.564,0,17.779,0c0.376,4.813-0.994,9.236-2.668,13.465c-8.91,22.505-25.051,36.654-48.894,41.688
		c-16.519,3.487-32.866,2.571-48.486-3.725c-23.585-9.506-37.612-27.501-43.969-51.862C1.3,276.604,1.873,273.5,0,271
		C0,263,0,255,0,247z"/>
	<path style="fill:#0C0B0B;" d="M1578.96,203.78c-7.001-1.301-13.967-2.569-21.186-1.991c-12.908,1.032-23.104,6.641-30.527,17.252
		c-3.649,5.216-5.811,11.133-7.929,17.065c-0.578,1.621-0.343,3.3-0.344,4.953c-0.015,27.982-0.003,55.965-0.029,83.947
		c-0.002,1.796,0.319,3.629-0.36,5.66c-6.233,0-12.499,0-18.81,0c-0.927-3.232-1.294-133.937-0.323-142.153
		c5.887,0,11.813,0,18.211,0c0,6.982,0,14.054,0,21.126c2.962-3.186,4.977-6.703,7.534-9.853c9.933-12.234,23-17.525,38.468-17.528
		c3.182-0.001,6.162,1.18,9.192,2.014c2.362,0.65,4.539,2.068,7.141,1.727c0,0.667,0,1.333,0,2
		c-1.446,0.628-0.956,1.925-0.971,2.991C1578.971,195.253,1578.977,199.517,1578.96,203.78z"/>
	<path style="fill:#403E3D;" d="M1578.96,203.78c0.017-4.263,0.011-8.527,0.069-12.79c0.015-1.065-0.475-2.363,0.971-2.991
		c0,5.333,0,10.667,0,16C1579.653,203.927,1579.307,203.853,1578.96,203.78z"/>
	<path style="fill:#7A84C1;" d="M1050.109,0.894c-3.888,0.041-7.776,0.084-11.664,0.12C1037.73,1.021,1037.234,0.691,1037,0
		c4.333,0,8.667,0,13,0C1049.923,0.312,1049.959,0.61,1050.109,0.894z"/>
	<path style="fill:#535150;" d="M723,338c3.361-2.256,7.117-0.336,10.638-0.988c0.885-0.164,1.982-0.302,2.362,0.988
		C731.667,338,727.333,338,723,338z"/>
	<path style="fill:#787575;" d="M873.93,337.066c3.357,0.315,6.862-0.982,10.07,0.934c-3.333,0-6.667,0-10,0
		C874.186,337.673,874.163,337.361,873.93,337.066z"/>
	<path style="fill:#0C0B0B;" d="M1473.853,265.129c-44.274,0-87.898,0-131.685,0c0.817,10.982,3.345,21.066,8.674,30.526
		c7.357,13.061,18.738,19.945,33.064,22.228c9.044,1.442,18.126,1.609,27.269-0.532c15.246-3.57,26.175-12.35,33.558-25.908
		c0.869-1.596,1.272-3.435,2.611-4.958c6.823,0,13.746,0,21.065,0c-1.251,6.409-3.617,12.039-6.83,17.265
		c-11.985,19.494-29.731,29.597-52.234,32.351c-12.791,1.565-25.318,0.649-37.48-3.125c-26.091-8.095-41.896-26.022-47.67-52.537
		c-3.716-17.066-2.926-34.118,3.42-50.537c8.441-21.84,24.348-35.718,46.897-41.586c19.349-5.035,38.533-4.146,57.185,3.573
		c18.267,7.56,30.404,20.986,37.182,39.34C1472.829,241.931,1473.912,253.122,1473.853,265.129z M1453.098,247.914
		c-0.79-3.824-1.203-7.319-2.245-10.615c-5.207-16.473-15.862-27.967-32.418-33.121c-11.927-3.713-24.27-3.523-36.52-1.157
		c-22.005,4.25-38.644,25.265-38.372,44.893C1379.823,247.914,1416.105,247.914,1453.098,247.914z"/>
	<path style="fill:#0E0D0D;" d="M353.639,237.552c-6.24,0-12.172,0-18.551,0c0.256-8.269,2.128-15.822,5.75-23.014
		c5.077-10.082,13.707-16.011,23.619-20.435c10.161-4.535,21.02-6.227,31.977-6.764c11.457-0.562,22.964-0.225,34.165,2.732
		c7.124,1.881,13.6,5.211,19.332,9.897c7.014,5.733,9.812,13.527,11.026,22.182c0.976,6.958,0.996,13.935,0.987,20.928
		c-0.022,18.496-0.012,36.991-0.004,55.487c0.001,3.326,0.033,6.624,0.878,9.91c1.228,4.776,1.882,5.476,6.641,5.512
		c3.626,0.027,7.251,0.005,11.085,0.005c0,5.369,0,10.31,0,15.395c-1.16,1.167-2.763,1.611-4.388,1.832
		c-5.694,0.773-11.238,2.536-17.189,0.936c-6.478-1.742-10.365-5.555-11.928-11.96c-0.706-2.892-1.065-5.829-1.087-9.423
		c-2.405,2.327-4.392,4.28-6.411,6.199c-11.4,10.838-25.172,16.26-40.63,18.04c-9.139,1.052-18.219,1.204-27.361,0.03
		c-7.481-0.961-14.608-2.919-21.365-6.259c-13.066-6.459-19.097-17.418-20.104-31.536c-0.66-9.255,1.433-17.735,6.944-25.386
		c3.92-5.443,8.907-9.339,15.025-11.887c9.273-3.863,19.104-5.426,28.942-6.935c13.454-2.064,27.086-2.914,40.401-5.942
		c4.873-1.108,9.626-2.534,13.95-5.098c11.001-6.522,11.688-21.468,1.396-29.2c-5.35-4.019-11.593-5.816-18.013-6.65
		c-12.937-1.681-25.85-1.245-38.576,1.911c-3.702,0.918-7.272,2.274-10.664,4.048c-7.674,4.013-12.329,10.39-14.477,18.675
		C354.468,232.867,354.146,235.007,353.639,237.552z M445.111,254.483c-7.854,4.196-15.748,4.604-23.264,6.418
		c-11.939,2.882-24.248,3.713-36.299,6.041c-7.807,1.508-15.578,3.116-23.027,5.976c-5.451,2.093-10.182,5.197-12.267,10.901
		c-2.731,7.474-1.768,18.585,5.829,25.157c5.222,4.517,11.215,6.861,17.839,8.113c7.123,1.346,14.209,0.787,21.36,0.167
		c11.316-0.98,21.739-4.239,31.076-10.79c9.619-6.749,16.385-15.316,18.072-27.358C445.546,271.147,444.682,263.2,445.111,254.483z"
		/>
	<path style="fill:#0B0A0A;" d="M302.19,330.832c-5.834,0-11.646,0-17.575,0c-1.219-1.6-0.581-3.498-0.585-5.237
		c-0.051-23.993-0.047-47.986-0.028-71.98c0.006-7.842-0.529-15.65-2.027-23.338c-2.891-14.838-10.434-24.62-29.593-26.35
		c-12.977-1.172-25.61,0.012-37.328,6.154c-13.839,7.253-23.335,17.978-25.74,33.937c-0.419,2.779-0.374,5.643-0.377,8.468
		c-0.027,24.993-0.008,49.986-0.033,74.979c-0.002,1.631,0.321,3.304-0.394,5.182c-5.991,0-12.041,0-18.3,0
		c0-65.08,0-130.003,0-195.254c5.698,0,11.42,0,17.525,0c0,25.272,0,50.529,0,76.768c1.636-1.89,2.625-3.065,3.647-4.209
		c12.889-14.422,29.048-22.189,48.246-24.071c9.71-0.952,19.286-0.407,28.754,1.68c18.214,4.014,28.512,15.874,32.571,33.635
		c1.299,5.683,1.923,11.48,1.928,17.313c0.028,29.825,0.016,59.65,0.007,89.474C302.888,328.79,303.069,329.645,302.19,330.832z"/>
	<path style="fill:#0F0E0E;" d="M1243.516,312.921c9.408-21.371,18.436-41.804,27.402-62.264c8.9-20.307,17.738-40.64,26.682-61.14
		c6.757,0,13.359,0,19.963,0c-0.322,3.743-47.659,108.951-63.973,142.127c-6.444,0-13.041,0-20.143,0
		c-21.364-47.062-42.838-94.363-64.512-142.109c7.398,0,14.295,0,21.884,0C1208.126,230.06,1225.594,270.958,1243.516,312.921z"/>
	<path style="fill:#111010;" d="M1057.132,331.834c-6.842,0-12.981,0-19.096,0c-1.026-3.49-1.27-136.34-0.242-142.354
		c5.873,0,11.792,0,18.19,0c0,7.063,0,14.063,0,21.062c6.937-10.51,14.814-19.352,26.753-23.948
		c11.774-4.533,23.296-4.3,35.047,1.128c0,5.352,0,11.115,0,17.357c-2.93-1.177-5.849-1.3-8.72-1.736
		c-13.173-2.004-25.711-0.444-36.097,8.608c-9.764,8.51-15.664,19.377-15.769,32.569c-0.215,27.158-0.065,54.319-0.066,81.478
		C1057.132,327.8,1057.132,329.603,1057.132,331.834z"/>
	<path style="fill:#0D0C0C;" d="M524.683,210.383c12.282-21.385,36.087-34.03,61.872-22.718c0,5.641,0,11.374,0,17.305
		c-7.129-1.384-13.93-2.673-20.979-2.24c-15.406,0.946-26.742,8.162-34.076,21.633c-3.679,6.758-5.836,13.802-5.732,21.799
		c0.343,26.49,0.129,52.988,0.129,79.482c0,1.828,0,3.657,0,5.673c-3.289,1.193-6.613,0.452-9.856,0.588
		c-3.139,0.131-6.288,0.028-9.737,0.028c0-47.587,0-94.947,0-142.503c6.119,0,12.045,0,18.378,0
		C524.683,196.53,524.683,203.456,524.683,210.383z"/>
	<path style="fill:#0B0A0A;" d="M622.695,331.704c-6.307,0-12.238,0-18.393,0c0-64.786,0-129.344,0-194.269
		c5.989,0,12.04,0,18.393,0C622.695,202.022,622.695,266.705,622.695,331.704z"/>
	<path style="fill:#171515;" d="M1154.441,189.426c0,47.68,0,94.777,0,142.195c-6.239,0-12.307,0-18.573,0
		c0-47.344,0-94.725,0-142.195C1142.141,189.426,1148.087,189.426,1154.441,189.426z"/>
	<path style="fill:#171515;" d="M1135.911,138.194c6.288,0,12.239,0,18.526,0c0,7.165,0,14.206,0,21.535c-6.064,0-12.139,0-18.526,0
		C1135.911,152.768,1135.911,145.721,1135.911,138.194z"/>
	<path style="fill:#2C52A4;" d="M638.996,20.023c-0.133-0.175-0.266-0.35-0.418-0.55c0.361,0.046,0.452,0.255,0.316,0.633
		C638.894,20.106,638.996,20.023,638.996,20.023z"/>
	<path style="fill:#2C52A4;" d="M762.813,70.182c-0.455-0.195-0.899-0.53-0.509-0.998c0.381-0.457,0.812-0.011,1.16,0.277
		C763.269,69.722,763.052,69.962,762.813,70.182z"/>
</g>
</svg>
