<?xml version="1.0" encoding="iso-8859-1"?>
<!-- Generator: Adobe Illustrator 27.0.0, SVG Export Plug-In . SVG Version: 6.00 Build 0)  -->
<svg version="1.1" id="Layer_1" xmlns="http://www.w3.org/2000/svg" xmlns:xlink="http://www.w3.org/1999/xlink" x="0px" y="0px"
	 viewBox="0 0 1549.523 877.907" style="enable-background:new 0 0 1549.523 877.907;" xml:space="preserve">
<g>
	<path style="fill:#7A838E;" d="M0,519.907c1.986-3.068,1.273-6.695,1.795-10.009c3.732-23.679,12.247-45.344,26.18-64.859
		c19.501-27.311,45.791-44.954,77.93-53.827c16.798-4.638,34.178-5.554,51.435-4.069c23.103,1.988,44.808,8.764,63.957,22.428
		c8.183,5.839,15.271,12.806,21.898,21.121c-9.64,6.853-19.178,13.633-28.537,20.287c-2.061-0.192-2.763-1.7-3.673-2.786
		c-14.194-16.952-32.366-26.457-54.186-29.432c-18.731-2.554-36.728-0.028-53.907,7.671c-29.984,13.439-48.792,36.999-59.723,67.336
		c-3.656,10.146-5.765,20.682-6.378,31.539c-1.451,25.717,2.781,50.245,15.362,72.893c12.1,21.783,29.554,37.716,52.976,46.925
		c11.26,4.427,22.878,6.491,34.889,6.925c11.866,0.429,23.563-0.648,34.934-4.118c13.167-4.017,25.113-10.279,35.411-19.609
		c5.064-4.588,9.596-9.652,14.445-15.068c8.842,6.429,16.783,13.65,25.329,20.387c-4.247,6.77-9.404,12.388-15.063,17.51
		c-8.285,7.497-17.363,13.934-27.473,18.763c-11.417,5.453-23.464,8.815-35.91,11.155c-13.561,2.55-27.202,2.469-40.764,1.555
		c-20.047-1.351-38.967-7.082-56.681-16.853c-13.697-7.555-25.818-16.985-36.279-28.536C27.52,625.7,19.293,612.692,12.999,598.446
		c-4.978-11.269-8.333-23.029-10.525-35.105c-0.796-4.383-1.627-8.816-1.574-13.335c0.012-1.058,0.497-2.393-0.9-3.099
		C0,537.907,0,528.907,0,519.907z"/>
	<path style="fill:#149B84;" d="M1381,877.907c-0.335-1.032-1.252-0.865-2.034-1.007c-7.556-1.364-14.113-4.766-19.82-9.837
		c-0.968-0.86-2.09-1.697-2.41-3.818c4.13-3.916,8.537-8.093,13.264-12.574c1.912,2.334,3.767,4.42,6.057,6.014
		c7.005,4.877,14.552,6.226,22.628,3.176c5.228-1.974,8.885-5.744,9.086-11.412c0.188-5.32-2.551-9.62-7.456-12.053
		c-2.952-1.464-5.956-2.804-9.164-3.799c-6.155-1.91-12.258-3.972-18.04-7.01c-15.674-8.234-15.98-29.497-7.925-40.396
		c5.363-7.257,12.803-11.053,21.221-12.979c10.68-2.444,21.115-1.333,31.074,3.52c3.182,1.551,5.853,3.702,8.736,6.271
		c-4.19,4.679-8.796,8.65-13.459,13.066c-6.079-6.838-13.83-8.23-22.286-7.154c-5.712,0.727-12.327,4.879-11.662,13.598
		c0.247,3.239,1.513,5.693,4.162,7.536c3.31,2.303,6.944,3.846,10.784,5.016c6.35,1.935,12.73,3.865,18.562,7.101
		c7.919,4.393,12.562,11.061,13.682,20.193c2.706,22.051-12.541,33.084-26.929,35.549c-0.796,0.136-1.691,0.018-2.07,0.998
		C1391.667,877.907,1386.333,877.907,1381,877.907z"/>
	<path style="fill:#149B84;" d="M1280,877.907c-1.773-1.795-4.265-1.39-6.393-1.892c-20.658-4.874-36.805-23.023-37.643-47.002
		c-0.311-8.893,0.263-17.651,3.784-25.919c7.123-16.723,19.798-26.701,37.595-30.1c11.724-2.24,23.173-1.516,33.946,4.151
		c5.045,2.654,9.283,6.31,12.93,10.958c-3.907,3.674-8.487,6.025-12.468,8.957c-1.782-0.463-2.699-1.731-3.798-2.714
		c-7.79-6.963-16.82-7.759-26.619-5.787c-19.686,3.962-28.403,25.328-25.805,40.402c1.238,7.183,3.117,13.88,7.589,19.731
		c5.315,6.954,12.33,10.9,20.92,12.272c10.115,1.615,18.681-1.137,25.597-8.792c0.769-0.851,1.357-1.915,3.037-2.584
		c4.491,3.294,9.218,6.76,14.174,10.395c-7.246,9.421-16.165,14.929-27.268,16.935c-0.921,0.166-2.059-0.228-2.579,0.989
		C1291.333,877.907,1285.667,877.907,1280,877.907z"/>
	<path style="fill:#BABCC2;" d="M843.482,684.187c-39.576-0.024-67.586-11.261-90.37-34.017
		c-22.993-22.965-35.085-51.33-34.915-83.861c0.342-65.634,51.866-118.336,117.815-118.314
		c66.015,0.023,117.46,52.564,117.799,118.269c0.167,32.326-11.671,60.584-34.501,83.536
		C896.572,672.658,868.633,683.955,843.482,684.187z"/>
	<path style="fill:#58B650;" d="M729.635,40.963c0-13.151,0-26.301,0-40.057c29.868-0.372,57.26,7.454,82.722,22.153
		c25.6,14.778,45.485,35.427,60.614,61.747c14.891-26.541,34.793-47.368,60.338-62.42C958.846,7.338,986.593-0.047,1016.73,0
		c0,13.822,0,27.267,0,40.713c-6.93,0.36-13.81,1.108-20.694,2.044c-11.409,1.552-22.178,5.072-32.502,9.939
		c-21.531,10.149-38.585,25.425-51.434,45.477c-12.457,19.44-18.179,40.867-19.023,63.727c-0.33,8.952,1.124,17.759,2.79,26.547
		c4.179,22.041,14.261,41.165,29.092,57.704c15.019,16.749,33.514,28.351,55.127,34.895c11.962,3.622,24.164,5.296,36.644,5.058
		c0,13.782,0,27.564,0,41.32c-36.345,2.294-104.699-15.51-143.699-83.153c-10.165,16.795-22.091,31.71-36.851,44.271
		c-14.832,12.622-31.212,22.54-49.493,29.238c-18.203,6.669-36.981,10.213-56.961,10.203c0-14.285,0-28.203,0-42.12
		c5.791,0.032,11.526,0.103,17.339-0.789c14.333-2.2,27.852-6.519,40.638-13.353c15.313-8.186,28.159-19.272,38.822-32.867
		c15.1-19.251,23.314-41.326,25.326-65.578c1.042-12.559,0.111-25.127-2.824-37.491c-5.323-22.423-16.02-41.888-32.108-58.326
		c-10.754-10.989-23.302-19.423-37.336-25.814C763.67,44.396,746.969,41.319,729.635,40.963z"/>
	<path style="fill:#79838E;" d="M1140.746,678.667c-6.367,0-12.331,0-18.682,0c-24.753-57.807-49.513-115.628-74.272-173.45
		c-0.298,0.057-0.596,0.115-0.895,0.172c0,57.655,0,115.31,0,173.196c-10.416,0-20.343,0-30.612,0c0-74.442,0-148.82,0-223.488
		c14.121,0,28.207,0,42.979,0c23.852,55.726,47.822,111.727,72.169,168.61c24.949-56.811,49.517-112.754,74.078-168.682
		c13.895,0,27.496,0,41.378,0c0,74.59,0,148.961,0,223.563c-10.04,0-19.812,0-29.564,0c-1.826-1.671-1.07-3.803-1.073-5.698
		c-0.048-28.997-0.034-57.993-0.034-86.99c0-24.997,0-49.994,0-74.991c0-1.577,0-3.155,0-4.732
		c-0.373-0.077-0.746-0.155-1.119-0.232C1190.306,563.54,1165.513,621.135,1140.746,678.667z"/>
	<path style="fill:#ACD5A0;" d="M1016.73,286.103c-12.48,0.237-24.682-1.437-36.644-5.058
		c-21.613-6.544-40.108-18.146-55.127-34.895c-14.831-16.538-24.914-35.663-29.092-57.704c-1.666-8.787-3.12-17.595-2.79-26.547
		c0.843-22.86,6.565-44.286,19.023-63.727c12.849-20.052,29.903-35.327,51.434-45.477c10.324-4.866,21.093-8.387,32.502-9.939
		c6.884-0.936,13.764-1.684,20.694-2.044c0.578,1.793,0.307,3.64,0.308,5.461c0.015,78.156,0.015,156.312,0,234.468
		C1017.038,282.462,1017.308,284.31,1016.73,286.103z"/>
	<path style="fill:#ACD5A0;" d="M729.635,40.963c17.335,0.357,34.036,3.433,49.95,10.68c14.034,6.39,26.582,14.825,37.336,25.814
		c16.087,16.438,26.784,35.904,32.108,58.326c2.935,12.364,3.866,24.932,2.824,37.491c-2.012,24.252-10.227,46.327-25.326,65.578
		c-10.663,13.595-23.509,24.68-38.822,32.867c-12.785,6.835-26.305,11.154-40.638,13.353c-5.813,0.892-11.548,0.821-17.339,0.789
		c-1.532-1.549-0.676-3.479-0.677-5.189c-0.057-69.319-0.048-138.638-0.048-207.957c0-9.331-0.026-18.663,0.032-27.994
		C729.041,43.471,728.418,42.046,729.635,40.963z"/>
	<path style="fill:#94CBBE;" d="M688.72,40.715c0.101,1.822,0.29,3.644,0.29,5.466c0.015,78.158,0.014,156.317,0,234.475
		c0,1.822,0.258,3.668-0.302,5.463c-2.163-0.059-4.328-0.21-6.488-0.16c-8.5,0.196-16.82-1.471-24.889-3.595
		c-13.637-3.59-26.321-9.523-38.098-17.5c-9.319-6.312-17.52-13.817-24.693-22.293c-7.913-9.351-14.164-19.863-18.942-31.269
		c-5.742-13.708-8.753-27.956-9.552-42.699c-0.467-8.613,0.374-17.157,1.818-25.693c1.66-9.809,4.256-19.302,8.29-28.357
		c7.657-17.186,18.51-31.998,32.868-44.298c14.35-12.293,30.793-20.394,48.871-25.344C667.96,42.154,678.363,41.515,688.72,40.715z"
		/>
	<path style="fill:#7A838E;" d="M1421.786,552.026c-14.308,21.581-28.15,42.477-42.01,63.361
		c-13.771,20.749-27.562,41.484-41.422,62.343c-13.641,0-27.266,0-41.721,0c34.394-49.812,68.475-99.171,102.749-148.808
		c-31.509-44.4-62.918-88.658-94.368-132.974c0.866-0.29-0.064-0.034,0.342-0.562c0.088-0.114,0.274-0.217,0.415-0.217
		c13.817-0.01,27.633-0.009,41.967-0.009c25.166,36.427,50.51,73.111,76.195,110.289c25.234-37.103,50.137-73.717,75.017-110.299
		c13.761,0,27.226,0,41.695,0c-31.759,44.788-63.332,88.846-95.047,133.482c34.497,49.462,69.029,98.972,103.927,149.008
		c-14.98,0-29.229,0-43.891,0C1477.98,636.213,1450.157,594.529,1421.786,552.026z"/>
	<path style="fill:#089A83;" d="M688.72,40.715c-10.358,0.8-20.761,1.439-30.826,4.195c-18.078,4.95-34.521,13.05-48.871,25.344
		c-14.358,12.3-25.211,27.112-32.868,44.298c-4.034,9.055-6.63,18.548-8.29,28.357c-1.445,8.536-2.286,17.08-1.818,25.693
		c0.8,14.743,3.811,28.992,9.552,42.699c4.778,11.406,11.029,21.919,18.942,31.269c7.173,8.477,15.374,15.981,24.693,22.293
		c11.777,7.977,24.461,13.91,38.098,17.5c8.069,2.124,16.389,3.791,24.889,3.595c2.16-0.05,4.325,0.101,6.488,0.16
		c0.087,13.471,0.33,26.945-0.164,40.37c-38.266,2.583-97.236-16.575-133.898-68.763c-37.351-53.168-39.815-123.728-5.562-179.641
		C582.356,23.773,640.817-1.408,688.72,0.393C688.72,13.821,688.72,27.268,688.72,40.715z"/>
	<path style="fill:#7A838E;" d="M395.136,678.637c-10.253,0-19.855,0-29.508,0c-0.977-1.858-0.521-3.719-0.523-5.489
		c-0.035-28.665-0.022-57.33-0.031-85.996c-0.001-2.3-0.055-4.396-1.513-6.597c-15.214-22.987-30.238-46.101-45.345-69.159
		c-11.467-17.503-22.985-34.973-34.459-52.471c-0.706-1.077-1.228-2.274-2.056-3.828c12.896,0,25.31,0,38.286,0
		c19.964,31.682,40.115,63.659,60.491,95.995c20.687-32.261,41.12-64.126,61.612-96.082c12.235,0,24.354,0,37.086,0
		c-3.606,5.475-6.97,10.579-10.33,15.686c-16.612,25.25-33.218,50.504-49.836,75.751c-7.214,10.96-14.426,21.923-21.695,32.847
		c-1.514,2.276-2.256,4.563-2.245,7.391c0.107,28.665,0.065,57.33,0.065,85.995C395.136,674.5,395.136,676.32,395.136,678.637z"/>
	<path style="fill:#7A838E;" d="M617.851,678.694c-10.578,0-20.385,0-30.922,0c-0.069-13.022-0.025-25.934-0.033-38.845
		c-0.008-12.998-0.001-25.995-0.001-38.993s0-25.995,0-38.993c0-12.998-0.001-25.995-0.001-38.993c0-12.979,0-25.957,0-39.496
		c-5.035-0.708-9.821-0.274-14.567-0.349c-4.831-0.077-9.665-0.017-14.497-0.017s-9.665,0-14.497,0s-9.665,0-14.497,0
		c-4.782,0-9.563,0-14.52,0c0-9.6,0-18.671,0-27.971c58.512,0,116.773,0,175.391,0c0,9.065,0,18.138,0,27.936
		c-5.747,0.011-11.666,0.027-17.584,0.033c-5.999,0.006-11.998,0.001-17.997,0.001c-5.832,0-11.664,0-17.497,0
		c-5.984,0-11.969,0-18.681,0c-0.208,16.444-0.065,32.68-0.091,48.913c-0.026,16.33-0.006,32.661-0.006,48.991
		c0,16.164,0,32.327,0,48.491C617.851,645.693,617.851,661.984,617.851,678.694z"/>
	<path style="fill:#169B84;" d="M487.339,773.776c3.44,0,6.577,0,9.713,0c8.826,0,17.652,0.042,26.477-0.015
		c5.193-0.034,10.236,0.694,15.223,2.162c11.083,3.262,18.097,10.229,19.812,21.841c1.752,11.864-1.844,23.647-13.689,30.114
		c-2.613,1.426-5.814,1.381-8.5,3.655c8.623,14.357,17.228,28.684,26.177,43.583c-3.881,0.93-7.311,0.412-10.674,0.499
		c-3.48,0.091-6.965,0.02-10.635,0.02c-7.776-14.254-15.473-28.364-23.211-42.548c-4.248,0-8.361,0-12.878,0
		c0,14.033,0,27.949,0,42.204c-6.111,0-11.828,0-17.817,0C487.339,841.634,487.339,808.073,487.339,773.776z M504.12,789.735
		c0,5.229-0.017,9.701,0.005,14.172c0.023,4.582,0.083,9.164,0.127,13.633c8.997,1.011,17.175-0.535,25.322-1.804
		c6.448-1.005,10.221-6.244,10.151-12.908c-0.069-6.608-3.147-10.525-9.714-12.002C521.645,788.945,513.166,790.134,504.12,789.735z
		"/>
	<path style="fill:#149B84;" d="M264.068,830.211c0,14.896,0,29.375,0,44.22c-5.89,0-11.604,0-17.604,0c0-33.432,0-66.819,0-100.031
		c1.128-0.833,2.155-0.607,3.126-0.612c4.635-0.023,9.27-0.011,14.322-0.011c0,13.263,0,26.194,0,38.982
		c3.852,1.247,36.971,1.633,47.085,0.621c0-12.988,0-26.046,0-39.347c6.132,0,11.73,0,17.665,0c0,33.362,0,66.761,0,100.49
		c-5.559,0.596-11.169,0.12-17.479,0.308c-0.187-5.059-0.07-9.986-0.091-14.904c-0.021-4.833-0.005-9.665-0.005-14.498
		c0-4.974,0-9.949,0-15.216C295.405,830.211,280.006,830.211,264.068,830.211z"/>
	<path style="fill:#1A9B84;" d="M855.902,814.072c15.276,0,30.224,0,45.544,0c0,5.556,0,10.785,0,16.673
		c-15.094,0-30.305,0-45.683,0c0,9.277,0,17.905,0,27.184c4.18,0.529,8.46,0.166,12.703,0.232c4.165,0.065,8.332,0.014,12.498,0.014
		c4.333,0,8.665,0,12.998,0c4.139,0,8.278,0,12.731,0c0,5.557,0,10.79,0,16.328c-22.91,0-45.82,0-69.048,0
		c0-33.393,0-66.785,0-100.454c22.034,0,43.932,0,66.088,0c0,5.187,0,10.249,0,15.731c-15.994,0-31.753,0-47.831,0
		C855.902,797.925,855.902,805.662,855.902,814.072z"/>
	<path style="fill:#1B9B84;" d="M442.342,789.7c-16.019,0-31.923,0-48.127,0c0,8.3,0,16.173,0,24.367c15.158,0,30.088,0,45.18,0
		c1.16,2.77,0.531,5.435,0.632,8.01c0.104,2.656,0.023,5.319,0.023,8.664c-15.227,0.156-30.297-0.014-45.325,0.092
		c-1.004,3.514-1.244,19.547-0.371,27.264c16.809,0,33.692,0,50.515,0c1.425,3.007,0.72,5.695,0.832,8.286
		c0.114,2.625,0.025,5.258,0.025,8.146c-23.327,0-46.219,0-69.421,0c0-33.421,0-66.792,0-100.46c21.93,0,43.824,0,66.037,0
		C442.342,779.14,442.342,784.203,442.342,789.7z"/>
	<path style="fill:#169B84;" d="M607.546,874.614c-6.687,0-12.981,0-20.139,0c14.928-33.934,29.838-67.31,44.714-100.69
		c5.328,0,10.293,0,15.717,0c14.173,33.279,28.382,66.643,42.823,100.55c-7.301,0-13.863,0-20.823,0
		c-2.948-7.356-5.961-14.872-9.012-22.486c-14.631,0-29.087,0-44.025,0C613.779,859.372,610.718,866.857,607.546,874.614z
		 M639.702,796.461c-0.31-0.085-0.62-0.171-0.931-0.256c-4.869,13.153-10.707,25.934-15.257,39.557c10.616,0,20.514,0,30.957,0
		C649.447,822.39,644.575,809.425,639.702,796.461z"/>
	<path style="fill:#169B84;" d="M1008.957,773.897c6.226,0,11.707,0,17.141,0c1.268,1.569,0.711,3.3,0.715,4.898
		c0.041,17.65,0.007,35.3,0.049,52.949c0.005,2.27,0.122,4.452,0.87,6.778c1.18,3.669,0.086,7.624-1.065,11.25
		c-4.112,12.949-12.509,21.606-25.816,25.277c-13.684,3.775-26.614,2.506-38.601-5.454c-8.523-5.66-13.135-13.898-15.119-23.705
		c-0.588-2.907-0.966-5.878-0.957-8.901c0.059-19.981,0.029-39.962,0.028-59.943c0-0.816,0-1.632,0-3.033
		c5.899-0.45,11.601-0.216,17.214-0.13c1.122,1.754,0.632,3.458,0.635,5.06c0.04,18.815,0.032,37.631,0.022,56.446
		c-0.002,4.713,0.747,9.29,2.884,13.506c4.616,9.105,13.322,12.241,23.622,10.752c13.041-1.884,18.189-11.782,18.321-23.534
		c0.213-18.98,0.058-37.963,0.058-56.945C1008.957,777.542,1008.957,775.914,1008.957,773.897z"/>
	<path style="fill:#0E9A83;" d="M743.39,832.91c0,14.245,0,27.839,0,41.651c-5.876,0-11.314,0-16.753,0.001
		c-1.13-3.792-1.624-83.464-0.621-100.028c0.876-1.126,2.131-0.734,3.239-0.737c11.152-0.027,22.303,0.023,33.455-0.029
		c5.724-0.027,11.155,1.212,16.527,3.104c14.002,4.933,18.406,17.741,17.322,30.264c-0.156,1.804-0.587,3.598-1.037,5.359
		c-2.573,10.069-9.585,15.575-19.146,18.306c-5.618,1.605-11.389,2.196-17.238,2.122C754.172,832.86,749.205,832.91,743.39,832.91z
		 M744.319,789.75c0,9.89,0,18.996,0,27.896c0.991,0.974,1.989,0.954,2.996,0.983c6.827,0.198,13.528-1.05,20.191-2.167
		c4.448-0.746,8.565-2.768,10.437-7.525c3.147-7.993-0.65-15.76-8.997-17.904C760.954,788.981,752.796,790.041,744.319,789.75z"/>
	<path style="fill:#149B84;" d="M180.08,874.674c-6.314,0-11.783,0-17.763,0c0-28.157,0-56.199,0-84.747
		c-10.732,0-20.971,0-31.538,0c-0.762-5.55-0.301-10.618-0.404-15.917c26.921,0,53.358,0,80.501,0
		c0.163,4.96,0.025,10.025,0.075,15.606c-10.285,0-20.344,0-30.871,0C180.08,818.178,180.08,846.231,180.08,874.674z"/>
	<path style="fill:#0E9A83;" d="M1142.928,774.065c0,5.248,0,10.184,0,15.676c-10.184,0-20.239,0-30.622,0
		c0,28.468,0,56.385,0,84.677c-5.872,0-11.409,0-17.487,0c0-28.076,0-56.106,0-84.535c-10.442,0-20.363,0-30.568,0
		c-0.718-5.428-0.351-10.48-0.285-15.818C1090.29,774.065,1116.347,774.065,1142.928,774.065z"/>
	<path style="fill:#089A83;" d="M1195.954,874.641c-5.743,0-11.026,0-16.286,0c-1.128-3.952-1.607-83.027-0.608-100.477
		c5.5,0,11.038,0,16.894,0C1195.954,807.506,1195.954,840.85,1195.954,874.641z"/>
</g>
</svg>
