<?xml version="1.0" encoding="iso-8859-1"?>
<!-- Generator: Adobe Illustrator 27.0.0, SVG Export Plug-In . SVG Version: 6.00 Build 0)  -->
<svg version="1.1" id="Layer_1" xmlns="http://www.w3.org/2000/svg" xmlns:xlink="http://www.w3.org/1999/xlink" x="0px" y="0px"
	 viewBox="0 0 1411 1574" style="enable-background:new 0 0 1411 1574;" xml:space="preserve">
<g>
	<path style="fill:#1374B9;" d="M1411,271c-20.1,0-40.199,0-60.267,0c-0.759-2.262-0.439-4.1-0.44-5.891
		c-0.025-33.65-0.018-67.301-0.019-100.951c0-7.827-0.408-15.573-2.62-23.186c-6.763-23.286-33.413-25.872-47.849-13.446
		c-8.383,7.215-12.907,16.038-12.845,27.418c0.203,37.314,0.08,74.63,0.082,111.945c0,1.15,0,2.299,0,3.781
		c-19.93,0-39.649,0-59.516,0c-0.882-1.671-0.409-3.53-0.412-5.296c-0.062-49.143-0.116-98.286-0.097-147.428
		c0.006-14.464-1.021-28.883-1.489-43.635c18.526,0,37.119,0,55.916,0c2.217,8.228,0.708,17.12,2.569,26.237
		c4.677-5.01,8.583-9.731,13.345-13.69c11.144-9.263,23.708-14.974,38.087-17.037c13.702-1.966,26.803-0.427,39.34,5.456
		c12.129,5.691,20.465,15.138,26.099,27.062c6.347,13.434,8.592,27.794,9.224,42.505c0.102,2.38-0.849,4.959,0.889,7.156
		C1411,191.667,1411,231.333,1411,271z"/>
	<path style="fill:#B7D9F2;" d="M1410.042,324.972c0.32-0.023,0.64-0.014,0.958,0.028c0,156.333,0,312.667,0,469
		c-0.382-0.047-0.765-0.094-1.147-0.141c0.049-2.164,0.141-4.328,0.141-6.491c0.007-152.133,0.006-304.265,0.008-456.398
		C1410.002,328.97,1410.028,326.971,1410.042,324.972z"/>
	<path style="fill:#F3AE9F;" d="M1410.245,869.883c0.283-0.163,0.535-0.124,0.755,0.117c0,156,0,312,0,468l-0.449,0.077
		l-0.455-0.022c-0.032-1.498-0.091-2.996-0.091-4.493c-0.004-152.902-0.005-305.804,0.006-458.706
		C1410.01,873.199,1410.163,871.541,1410.245,869.883z"/>
	<path style="fill:#89A6D5;" d="M0,126c0.306,0.017,0.608-0.011,0.905-0.083c0.002,9.054,0.004,18.107,0.007,27.161l-0.452-0.08
		L0,153C0,144,0,135,0,126z"/>
	<path style="fill:#A1B7DE;" d="M133.93,0.883C134.007,0.593,134.03,0.298,134,0c8,0,16,0,24,0
		c-0.039,0.302-0.017,0.599,0.066,0.892C150.021,0.889,141.975,0.886,133.93,0.883z"/>
	<path style="fill:#E21F39;" d="M1410.245,869.883c-0.082,1.658-0.234,3.315-0.235,4.973c-0.011,152.902-0.01,305.804-0.006,458.706
		c0,1.498,0.06,2.996,0.091,4.493c-5.821,2.882-12.18,4.212-18.279,6.284c-34.576,11.746-69.176,23.423-103.796,35.04
		c-93.147,31.257-186.317,62.444-279.46,93.711c-71.751,24.086-143.473,48.259-215.212,72.38
		c-27.529,9.256-55.085,18.433-82.588,27.766c-3.198,1.085-6.02,0.976-9.171-0.086c-65.112-21.945-130.242-43.838-195.382-65.698
		c-71.91-24.132-143.836-48.215-215.751-72.331c-45.16-15.144-90.315-30.301-135.466-45.468
		c-35.554-11.943-71.099-23.914-106.65-35.868c-14.628-4.918-29.259-9.828-43.895-14.721c-0.634-0.212-1.286-0.304-1.608-0.985
		c9.45-4.32,19.592-6.64,29.348-10.086c16.723-5.907,33.589-11.427,50.485-16.826c16.584-5.299,32.945-11.246,49.574-16.435
		c28.238-8.811,56.036-18.978,84.194-28.068c29.569-9.546,58.888-19.859,88.372-29.672c30.397-10.117,60.65-20.668,91.263-30.141
		c16.167-5.002,32.094-10.756,48.162-16.077c65.536-21.702,130.928-43.839,196.456-65.567c19.484-6.461,38.707-13.718,58.46-19.381
		c1.994-0.572,4.19-1.001,5.879-2.455c3.784,0.087,7.079-1.74,10.51-2.875c38.589-12.768,77.14-25.649,115.697-38.51
		c89.864-29.976,179.721-59.974,269.592-89.932c62.489-20.831,124.995-41.61,187.494-62.411
		c37.151-12.365,74.291-24.768,111.478-37.025C1403.192,871.501,1406.41,869.418,1410.245,869.883z"/>
	<path style="fill:#2CACE2;" d="M1410.042,324.972c-0.014,1.999-0.04,3.999-0.04,5.998c-0.002,152.133-0.001,304.265-0.008,456.398
		c0,2.164-0.092,4.328-0.141,6.491c-13.674,4.437-27.485,8.501-40.984,13.418c-13.217,4.814-26.714,8.718-39.998,13.293
		c-14.226,4.899-28.486,9.701-42.759,14.461c-17.089,5.7-34.218,11.278-51.31,16.968c-35.92,11.958-71.825,23.96-107.739,35.935
		c-45.005,15.006-90.013,30.003-135.021,45.003c-18.035,6.011-36.071,12.019-54.106,18.03
		c-23.995,7.996-47.991,15.987-71.983,23.991c-22.895,7.638-45.782,15.298-68.678,22.934c-21.012,7.008-42.029,13.999-63.047,20.991
		c-8.152,2.712-16.356,5.279-24.441,8.18c-2.72,0.976-5.07,0.75-7.666-0.121c-39.489-13.255-78.984-26.494-118.497-39.678
		c-85.153-28.414-170.311-56.816-255.48-85.183c-78.261-26.066-156.542-52.07-234.807-78.12
		c-28.863-9.607-57.705-19.277-86.567-28.886c-1.416-0.471-2.841-0.833-3.983-1.854c3.204-1.739,6.755-2.518,10.174-3.659
		c60.551-20.203,121.102-40.409,181.659-60.593c69.436-23.144,138.882-46.257,208.318-69.402
		c65.538-21.846,131.071-43.709,196.602-65.579c33.786-11.276,67.557-22.595,101.354-33.836c1.297-0.431,2.592-0.57,3.13-2.039
		c1.244,0.207,2.249,1.023,3.777,0.459c20.772-7.679,42.005-13.986,62.986-21.049c29.604-9.965,59.22-19.892,88.844-29.796
		c17.707-5.92,35.438-11.766,53.159-17.644c18.194-6.035,36.403-12.027,54.581-18.111c48.587-16.262,97.108-32.724,145.761-48.784
		c26.205-8.65,52.414-17.288,78.575-26.072c28.984-9.732,58.014-19.326,87.008-29.026c18.647-6.239,37.144-12.959,55.932-18.734
		c18.647-5.732,36.89-12.636,55.529-18.361c5.525-1.697,11.006-3.541,16.475-5.415
		C1407.78,325.193,1408.859,324.89,1410.042,324.972z"/>
	<path style="fill:#981C32;" d="M705.028,1103.374c-1.689,1.453-3.885,1.883-5.879,2.455c-19.753,5.663-38.975,12.92-58.46,19.381
		c-65.528,21.727-130.92,43.864-196.456,65.567c-16.068,5.321-31.994,11.074-48.162,16.077
		c-30.613,9.472-60.866,20.023-91.263,30.141c-29.483,9.813-58.803,20.126-88.372,29.672c-28.158,9.09-55.956,19.257-84.194,28.068
		c-16.629,5.189-32.989,11.136-49.574,16.435c-16.896,5.399-33.762,10.918-50.485,16.826c-9.756,3.447-19.898,5.766-29.348,10.086
		c-1.62-1.51-0.733-3.452-0.736-5.151c-0.064-35.824-0.048-71.649-0.048-107.473c0-116.804,0-233.609,0.001-350.413
		c0-1.819,0-3.637,0-5.965c6.483,2.089,12.575,3.994,18.629,6.01c64.864,21.606,129.721,43.232,194.582,64.848
		c74.003,24.662,148.007,49.322,222.011,73.978c63.141,21.036,126.285,42.062,189.425,63.101
		c24.722,8.237,49.438,16.494,74.152,24.755C702.264,1102.242,703.637,1102.836,705.028,1103.374z"/>
	<path style="fill:#0E73B9;" d="M704.025,558.114c-0.537,1.469-1.833,1.608-3.13,2.039c-33.797,11.241-67.569,22.56-101.354,33.836
		c-65.53,21.87-131.063,43.733-196.602,65.579c-69.436,23.145-138.882,46.259-208.318,69.402
		c-60.557,20.184-121.108,40.39-181.659,60.593c-3.419,1.141-6.97,1.92-10.174,3.659c-1.421-1.767-0.697-3.839-0.697-5.75
		C2.05,654.348,2.054,521.224,2.054,388.099c0-19.327,0-38.654,0-57.981c0-1.64,0-3.28,0-5.261c5.412,0.622,9.96,2.655,14.593,4.197
		c51.592,17.164,103.131,34.489,154.715,51.676c90.428,30.13,180.883,60.178,271.317,90.29
		c83.984,27.965,167.956,55.97,251.933,83.957C697.749,556.023,700.887,557.068,704.025,558.114z"/>
	<path style="fill:#1174B9;" d="M412.686,272.625c-19.527,0-39.113,0-58.635,0c-1.427-1.943-0.813-4.014-0.815-5.946
		c-0.04-33.666-0.029-67.331-0.028-100.997c0-7.66-0.084-15.324-2.263-22.752c-1.792-6.109-4.181-11.926-9.285-16.157
		c-8.429-6.987-17.976-7.698-28.175-5.157c-15.325,3.818-23.506,19.745-23.496,31.759c0.032,37.832,0.012,75.664,0.012,113.496
		c0,1.807,0,3.615,0,5.716c-20.044,0-39.767,0-59.747,0c0-83.226,0-166.333,0-249.99c19.532-7.233,39.341-14.569,59.784-22.139
		c0,32.232,0,63.81,0,95.27c1.986,0.533,2.516-0.719,3.203-1.568c10.048-12.406,23.221-19.606,38.587-23.077
		c13.366-3.019,26.604-3.188,39.723,1.593c12.582,4.586,22.074,12.676,28.783,24.166c6.906,11.827,10.147,24.749,11.803,38.231
		c1.183,9.633,1.035,19.278,1.05,28.927c0.051,34.332,0.028,68.664,0.001,102.997C413.187,268.787,413.583,270.636,412.686,272.625z
		"/>
	<path style="fill:#1174B9;" d="M133.93,0.883c8.046,0.003,16.091,0.006,24.137,0.009c15.152,0.787,30.012,2.881,44.451,9.963
		c-2.847,18.578-5.702,37.204-8.61,56.179c-6.371-2.326-12.285-4.817-18.513-6.367c-20.099-5.002-40.022-5.457-59.717,1.997
		c-19.476,7.37-33.024,20.797-40.44,40.145c-6.241,16.284-7.357,33.218-5.487,50.51c1.303,12.054,4.372,23.46,10.329,34.017
		c10.359,18.358,26.375,28.999,46.633,33.589c10.29,2.331,20.813,2.772,31.257,1.828c11.265-1.018,22.223-3.754,32.578-8.526
		c0.899-0.414,1.835-0.747,3.443-1.397c2.844,18.297,5.652,36.367,8.477,54.541c-6.824,3.755-13.829,5.743-20.861,7.5
		c-9.515,2.378-19.255,3.379-29.024,4.215c-10.481,0.897-20.934,0.787-31.377-0.177c-14.951-1.38-29.424-4.787-43.308-10.611
		c-29.733-12.472-51.185-33.46-64.472-62.772c-7.549-16.653-11.533-34.204-12.513-52.448c-0.002-9.054-0.004-18.107-0.007-27.161
		c2.461-30.815,12.233-58.63,33.321-81.892c13.919-15.353,30.822-26.07,50.147-33.278C100.38,4.777,116.915,1.68,133.93,0.883z"/>
	<path style="fill:#1174B9;" d="M634.191,192.19c-43.669,0-86.605,0-129.914,0c1.084,14.236,7.263,24.868,19.479,31.777
		c7.191,4.067,15.097,5.928,23.2,6.992c17.115,2.247,33.772-0.385,50.157-5.146c4.929-1.432,9.565-3.766,14.107-6.198
		c1.736-0.93,3.448-1.905,5.883-3.253c3.036,16.23,5.973,31.921,8.393,47.861c-10.517,4.717-20.944,8.39-31.834,10.681
		c-15.316,3.221-30.774,5.246-46.461,4.799c-19.086-0.543-37.709-3.586-54.885-12.349c-21.581-11.011-36.074-28.378-44.212-51.133
		c-6.962-19.466-8.432-39.655-6.812-59.992c1.429-17.941,7.012-34.767,17.392-49.718c14.563-20.978,34.752-33.288,59.552-38.476
		c7.334-1.534,14.783-2.735,22.202-2.589c8.419,0.166,16.865,0.486,25.253,2.255c17.509,3.691,32.358,11.804,44.369,25
		c10.395,11.421,16.821,25.021,20.86,39.784c3.523,12.881,4.945,26.072,5.099,39.405
		C636.094,178.551,634.843,185.082,634.191,192.19z M504.129,149.368c24.338,0,48.001,0,71.718,0
		c0.617-6.631-0.928-12.587-3.038-18.333c-9.855-26.829-36.416-27.293-51.459-16.422
		C509.759,122.988,505.805,135.544,504.129,149.368z"/>
	<path style="fill:#1174B9;" d="M998.059,172.586c-0.375-29.248,9.453-54.82,29.396-76.042
		c15.053-16.018,33.621-26.338,55.677-29.645c29.417-4.411,55.615,2.798,78.393,21.968c20.431,17.195,32.343,39.246,36.558,65.495
		c5.455,33.968-2.903,64.382-25.025,90.548c-15.042,17.791-34.385,29.251-57.599,33.014c-31.028,5.03-58.565-2.835-82.074-23.903
		c-19.448-17.428-30.708-39.266-34.478-65.041c-0.264-1.805-0.747-3.598-0.811-5.408
		C997.969,179.915,998.059,176.249,998.059,172.586z M1138.041,173.635c0.288-6.716-0.608-13.303-2.101-19.796
		c-2.889-12.566-8.158-23.86-18.009-32.601c-10.488-9.306-24.321-10.127-35.771-2.113c-6.281,4.396-10.877,10.249-14.244,17.045
		c-9.808,19.799-11.06,40.371-5.202,61.502c2.938,10.599,7.832,20.1,16.108,27.597c11.316,10.251,26.664,10.798,38.159,1.288
		c3.08-2.548,5.825-5.45,8.173-8.727C1134.636,204.596,1137.755,189.525,1138.041,173.635z"/>
	<path style="fill:#1174B9;" d="M778.019,270.871c-24.106,0-47.741,0-71.958,0c-22.096-65.301-44.23-130.715-66.511-196.565
		c22.425,0,44.329,0,66.79,0c11.688,45.35,23.418,90.864,35.149,136.377c5.346-14.695,9.054-29.819,13.287-44.783
		c4.329-15.306,8.263-30.723,12.456-46.068c4.146-15.169,8.4-30.309,12.649-45.615c21.634,0,43.077,0,65.018,0
		C822.551,139.929,800.281,205.413,778.019,270.871z"/>
	<path style="fill:#1074B9;" d="M988.869,70.654c0,19.398,0,38.529,0,58.178c-6.716-2.166-13.405-2.175-20.138-1.956
		c-24.243,0.786-38.69,17.273-44.445,36.514c-0.538,1.799-0.317,3.64-0.318,5.462c-0.015,31.991-0.011,63.982-0.01,95.972
		c0,1.82,0,3.64,0,5.818c-19.904,0-39.627,0-59.571,0c-0.926-1.529-0.401-3.398-0.404-5.151
		c-0.075-47.153,0.02-94.306-0.223-141.458c-0.073-14.296-1.069-28.588-1.614-42.882c-0.082-2.145-0.011-4.296-0.011-6.796
		c18.891,0,37.594,0,56.742,0c0.02,11.998,1.522,23.872,1.196,36.024c1.402-0.802,1.593-2.046,2.061-3.19
		c4.685-11.447,11.284-21.495,21.638-28.634c6.682-4.608,14.028-7.211,22.262-7.765C973.494,70.286,980.9,69.376,988.869,70.654z"/>
</g>
</svg>
