<?xml version="1.0" encoding="iso-8859-1"?>
<!-- Generator: Adobe Illustrator 27.0.0, SVG Export Plug-In . SVG Version: 6.00 Build 0)  -->
<svg version="1.1" id="Layer_1" xmlns="http://www.w3.org/2000/svg" xmlns:xlink="http://www.w3.org/1999/xlink" x="0px" y="0px"
	 viewBox="0 0 1502.038 1009.243" style="enable-background:new 0 0 1502.038 1009.243;" xml:space="preserve">
<g>
	<path style="fill:#17202B;" d="M0,4c1.822,0.088,3.645,0.253,5.467,0.253c73.822,0.013,147.643,0.014,221.465,0
		c3.328-0.001,6.655-0.217,9.983-0.247c38.558-0.34,75.158,8.066,109.569,25.367c36.023,18.11,65.991,43.524,89.362,76.471
		c19.158,27.008,32.153,56.78,39.105,89.167c2.972,13.848,4.593,27.844,5.182,42.012c1.816,43.723-7.983,84.811-28.566,123.194
		c-21.829,40.707-53.031,72.651-93.2,95.581c-24.848,14.183-51.411,23.662-79.708,28.409c-14.512,2.435-29.076,3.488-43.73,3.5
		c-76.488,0.062-152.976,0.027-229.464,0.04c-1.822,0-3.645,0.165-5.467,0.253c0-92.333,0-184.667,0-277
		c67.233,0,134.467,0,202.697,0c-16.381-16.466-32.048-32.215-47.781-48.03c16.566-16.423,32.743-32.459,48.897-48.473
		c5.445,4.778,129.836,128.195,131.723,132.226c-43.811,43.68-87.668,87.407-131.051,130.66
		c-16.455-16.271-32.522-32.159-48.872-48.325c15.865-15.846,31.709-31.671,47.862-47.805c-44.924,0-89.143,0-133.247,0
		c0,46.08,0,91.825,0,137.828c1.088,0,1.894,0,2.7,0c54.66-0.016,109.319-0.026,163.979-0.055
		c11.195-0.006,22.245-1.525,33.108-4.033c36.898-8.521,68.34-26.45,92.885-55.522c35.882-42.501,48.876-91.397,38.773-146.04
		c-5.125-27.717-17.039-52.622-34.795-74.621c-19.004-23.546-42.629-40.894-70.698-52.073c-21.233-8.456-43.344-12.127-66.242-12.07
		c-74.99,0.184-149.981,0.067-224.971,0.08C3.312,74.747,1.656,74.912,0,75C0,51.333,0,27.667,0,4z"/>
	<path style="fill:#16202A;" d="M1271.074,0.901c29.003,1.397,56.875,7.883,83.386,19.598
		c61.757,27.288,105.439,72.323,131.002,134.842c3.633,8.885,6.47,18.06,9.208,27.485c-24.295,0-48.427,0-72.873,0
		c-18.859-46.536-51.052-80.436-97.622-99.758c-36.994-15.349-75.247-17.461-113.81-6.722
		c-78.07,21.741-135.093,95.573-128.367,182.964c5.616,72.971,57.326,142.754,142.953,159.403
		c78.736,15.309,163.223-25.388,197.015-109.652c23.939,0,48.006,0,72.473,0c-1.431,7.347-3.853,14.166-6.367,20.936
		c-20.656,55.614-56.821,98.225-107.849,128.309c-23.368,13.777-48.506,23.045-75.044,28.331c-22.48,4.477-45.208,5.45-68.093,3.601
		c-37.74-3.05-72.853-14.428-105.292-33.671c-23.489-13.934-44.068-31.522-61.722-52.503
		c-19.694-23.404-34.632-49.463-44.562-78.364c-5.729-16.675-9.707-33.764-11.592-51.342c-1.049-9.779-1.727-19.555-1.848-29.386
		c-0.293-23.972,3.432-47.364,10.354-70.243c9.794-32.371,25.644-61.522,47.588-87.267c34.85-40.886,78.487-67.6,130.643-80.395
		c13.425-3.293,27.069-5.212,40.865-6.07c0.913-0.057,2.064,0.354,2.477-0.996c1.667,0,3.333,0,5,0
		c0.173,0.749,0.692,1.041,1.41,1.036C1257.298,0.994,1264.186,0.947,1271.074,0.901z"/>
	<path style="fill:#908F96;" d="M1271.074,0.901c-6.888,0.046-13.776,0.093-20.664,0.136c-0.718,0.004-1.237-0.287-1.41-1.036
		c7.333,0,14.667,0,22,0C1270.863,0.314,1270.887,0.614,1271.074,0.901z"/>
	<path style="fill:#1AC0DD;" d="M979.419,697.682c-24.161,0-47.606,0-71.031,0c-1.419-0.629-1.688-2.085-2.16-3.249
		c-6.781-16.756-16.241-31.958-27.621-45.869c-11.954-14.613-26.036-26.98-42.209-36.878c-12.058-7.379-24.544-13.824-38.113-17.974
		c-12.5-3.823-25.144-6.699-38.236-7.985c-9.502-0.934-18.977-1.112-28.391-0.513c-14.355,0.914-28.447,3.671-42.264,7.961
		c-21.532,6.685-40.846,17.489-58.228,31.549c-15.859,12.828-28.907,28.317-39.435,45.879
		c-9.271,15.466-15.973,31.966-20.146,49.471c-1.76,7.382-2.93,14.878-3.817,22.454c-0.838,7.158-0.846,14.272-0.704,21.398
		c0.432,21.701,4.644,42.649,12.808,62.814c10.019,24.748,24.908,46.098,44.585,64.058c9.573,8.737,20.03,16.297,31.348,22.762
		c15.088,8.618,31.061,14.759,47.905,18.722c8.204,1.93,16.495,3.311,24.955,3.892c5.302,0.364,10.591,0.904,15.898,0.709
		c23.842-0.875,46.892-5.2,68.886-14.923c23.793-10.518,44.352-25.41,61.606-44.724c14.386-16.103,25.168-34.537,32.917-54.714
		c0.413-1.077,0.745-2.191,1.018-3.312c0.112-0.459-0.031-0.981-0.088-2.015c-72.74,0-145.465,0-218.458,0
		c0-23.435,0-46.326,0-69.126c3.747-1.13,287.81-1.554,297.359-0.486c2.123,56.54-11.804,108.68-44.43,155.06
		c-38.658,54.955-91.282,89.888-157.444,102.022c-75.06,13.766-143.46-3.524-202.809-51.563
		c-50.445-40.832-80.288-94.421-88.909-158.845c-9.61-71.817,9.197-136.336,55.407-191.906
		c43.95-52.852,101.302-82.281,169.712-88.052c70.381-5.938,132.462,15.481,185.542,62.059
		C942.011,608.947,966.127,649.735,979.419,697.682z"/>
	<path style="fill:#16202A;" d="M743.974,1.279C881.151,2.503,989.16,111.87,988.984,247.468
		c-0.17,130.823-105.328,246.536-252.906,244.251c-127.437-1.974-237.763-106.7-237.607-245.816
		C498.621,111.79,606.045,2.294,743.974,1.279z M762.964,423.494c63.953,2.875,152.626-66.314,156.594-170.558
		c3.53-92.761-66.7-176.047-166.578-181.722c-92.753-5.27-178.008,63.376-184.78,164.553
		c-3.207,47.908,11.203,90.806,43.149,126.842C645.087,400.667,687.827,420.705,762.964,423.494z"/>
	<path style="fill:#19C0DD;" d="M1257.077,515.849c134.977-0.86,244.543,109.112,244.96,242.374
		c0.435,138.844-110.343,247.298-244.894,247.666c-135.407,0.37-245.118-109.282-245.202-245.531
		C1011.858,626.513,1121.887,514.805,1257.077,515.849z M1080.94,761.265c-0.313,97.125,79.191,176.577,178.732,175.5
		c94.341-1.02,171.966-77.465,173.101-173.021c0.582-49.017-16.591-91.95-51.51-126.833c-34.152-34.117-75.661-51.669-124.111-51.95
		C1160.071,584.4,1080.527,663.145,1080.94,761.265z"/>
	<path style="fill:#2DC2DE;" d="M1469.548,972.51c2.786-0.522,4.887-0.423,7.257-0.176c0,9.845,0,19.427,0,29.095
		c-1.25,1.104-2.725,0.599-4.614,0.402c0-6.728,0-13.485,0-20.243c-0.256-0.034-0.513-0.069-0.769-0.104
		c-2.255,6.65-4.51,13.299-6.787,20.014c-1.495,0.997-3.135,0.553-5.057,0.355c-2.207-6.394-4.444-12.877-6.681-19.36
		c-0.278,0.044-0.557,0.088-0.835,0.131c0,6.317,0,12.633,0,19.073c-1.995,0.548-3.613,0.431-5.23,0.213
		c-0.943-3.408-1.204-21.623-0.408-28.775c1.809-1.692,4.018-0.742,6.517-1.035c4.182,6.627,4.954,14.597,8.801,21.795
		C1464.374,986.682,1466.938,979.659,1469.548,972.51z"/>
	<path style="fill:#21C1DE;" d="M1441.632,973.343c0.445,1.654,0.296,2.92,0.063,4.554c-3.109,0-6.037,0-9.426,0
		c0,8.075,0,15.786,0,23.62c-1.776,0.496-3.153,0.88-5.126,1.431c0-8.304,0-16.318,0-24.441c-3.39-0.939-6.393-0.185-9.337-0.656
		c-1.205-1.248-0.665-2.732-0.528-4.508C1425.305,973.343,1433.329,973.343,1441.632,973.343z"/>
</g>
</svg>
