<?xml version="1.0" encoding="iso-8859-1"?>
<!-- Generator: Adobe Illustrator 27.0.0, SVG Export Plug-In . SVG Version: 6.00 Build 0)  -->
<svg version="1.1" id="Layer_1" xmlns="http://www.w3.org/2000/svg" xmlns:xlink="http://www.w3.org/1999/xlink" x="0px" y="0px"
	 viewBox="0 0 1392.063 662.964" style="enable-background:new 0 0 1392.063 662.964;" xml:space="preserve">
<g>
	<path style="fill:#CACBCC;" d="M0.004,330.97c0.001-92.826-0.019-185.651,0.027-278.477c0.005-10.629,2.935-20.492,8.99-29.299
		C17.586,10.735,29.604,3.389,44.224,0.379c3.842-0.791,7.978-0.072,11.972-0.227C67.333-0.282,78.408,1.103,89.51,1.496
		c6.76,0.239,13.605,0.022,20.322,0.826c7.949,0.952,15.967,0.137,23.813,1.096c7.485,0.915,14.947,0.072,22.338,0.888
		c10.109,1.116,20.289,0.097,30.313,1.121c9.149,0.935,18.289-0.071,27.333,0.91c10.62,1.152,21.292-0.003,31.817,1.083
		c8.982,0.927,17.92,0.191,26.841,0.838c15.599,1.132,31.262,0.16,46.812,1.196c13.14,0.876,26.246,0.079,39.337,0.808
		c21.267,1.184,42.583,0.14,63.816,1.149c28.788,1.368,57.568-0.05,86.328,0.875c62.101,1.996,124.211,0.573,186.315,0.86
		c62.16,0.286,124.332,0.668,186.48-0.255c29.278-0.435,58.582,0.412,87.815-0.938c18.798-0.868,37.604,0.331,56.321-0.968
		c15.635-1.085,31.278,0.25,46.823-0.989c13.136-1.047,26.285,0.182,39.323-1c11.306-1.025,22.622,0.133,33.824-0.988
		c9.805-0.981,19.628,0.067,29.323-0.998c9.305-1.022,18.628,0.043,27.826-0.985c9.467-1.058,18.959,0.01,28.323-1.019
		c7.974-0.877,15.962-0.024,23.825-0.981c7.469-0.909,14.963-0.088,22.323-1.008c6.971-0.871,13.961-0.111,20.826-0.986
		c6.467-0.825,12.977-0.096,19.322-1.002c8.467-1.209,16.903-0.794,25.344-0.788c10.987,0.007,20.41,4.437,29.047,11.009
		c5.501,4.186,9.685,9.339,13.207,15.205c3.273,5.452,4.962,11.347,6.272,17.52c1.16,5.466,0.852,10.895,0.853,16.341
		c0.034,182.318,0.01,364.636,0.09,546.954c0.004,8.063-1.553,15.706-4.231,23.181c-1.344,3.752-3.642,7.108-6.094,10.173
		c-8.843,11.052-19.807,19.427-34.085,21.277c-8.276,1.072-16.906,1.191-25.312-0.498c-0.484-0.097-0.992-0.203-1.476-0.161
		c-7.323,0.629-14.567-0.676-21.81-1.216c-7.548-0.563-15.201-0.089-22.661-1.775c-0.16-0.036-0.334-0.034-0.498-0.019
		c-7.322,0.652-14.519-1.155-21.823-1.071c-7.951,0.092-15.872-0.899-23.812-1.246c-5.256-0.229-10.574-0.3-15.831-0.782
		c-12.695-1.165-25.429-1.468-38.138-2.196c-6.28-0.36-12.608-0.084-18.826-0.852c-7.779-0.962-15.627-0.185-23.312-1.117
		c-5.985-0.726-11.944-0.156-17.84-0.861c-8.604-1.03-17.29-0.178-25.811-1.13c-7.982-0.892-15.947-0.051-23.836-0.9
		c-9.106-0.98-18.276-0.114-27.286-1.114c-7.82-0.867-15.594-0.173-23.344-0.829c-12.765-1.08-25.602-0.186-38.31-1.19
		c-10.311-0.814-20.612,0.098-30.833-0.87c-15.944-1.511-31.943,0.145-47.819-1.086c-15.636-1.212-31.256,0.063-46.833-0.9
		c-23.773-1.47-47.565-0.218-71.325-0.991c-60.601-1.97-121.212-0.324-181.816-0.875c-7.332-0.067-14.701-0.466-21.991,0.09
		c-21.602,1.645-43.261-0.16-64.817,1.119c-16.802,0.997-33.607-0.29-50.323,0.97c-13.302,1.003-26.618-0.192-39.822,0.995
		c-12.471,1.121-24.949-0.147-37.325,0.984c-10.634,0.972-21.289-0.05-31.821,1.022c-8.642,0.88-17.297-0.04-25.825,0.972
		c-7.804,0.926-15.633,0.036-23.323,1.002c-7.306,0.918-14.638,0.038-21.824,0.993c-7.471,0.992-14.974,0.03-22.323,1.015
		c-6.811,0.913-13.588,0.321-20.342,0.886c-12.369,1.036-24.766,1.427-37.14,2.175c-5.609,0.339-11.356-0.143-16.805,0.938
		c-7.052,1.399-14.262-0.304-21.186,1.762c-0.46,0.137-0.997,0.063-1.494,0.027c-8.315-0.61-16.535,0.927-24.816,1.223
		c-9.546,0.341-19.085,1.372-28.646,1.948c-9.217,0.555-18.418,1.429-27.647,1.997c-8.55,0.526-17.204,0.864-25.614,2.144
		c-9.725,1.48-18.357-0.579-26.705-4.685c-10.266-5.05-17.638-13.286-23.147-23.19c-4.427-7.958-6.16-16.617-6.16-25.663
		C0.002,516.288,0.003,423.629,0.004,330.97z M19.013,331.299c0,92.166,0.032,184.333-0.038,276.499
		c-0.009,12.31,4.653,22.228,14.08,29.949c5.636,4.617,12.526,6.714,19.471,6.097c9.723-0.864,19.476-1.475,29.197-2.434
		c9.226-0.91,18.514-1.356,27.774-2.026c9.922-0.717,19.852-1.392,29.78-2.034c10.096-0.652,20.191-1.334,30.288-1.947
		c11.593-0.703,23.191-1.349,34.786-2.031c11.43-0.672,22.862-1.396,34.294-1.946c14.763-0.71,29.543-1.072,44.295-2.099
		c6.955-0.484,13.928-0.156,20.91-0.884c8.245-0.859,16.59-0.218,24.897-1.031c8.421-0.825,16.923-0.217,25.405-0.952
		c10.588-0.917,21.258-0.189,31.903-1.021c12.426-0.971,24.925-0.044,37.406-0.97c13.592-1.009,27.259-0.158,40.905-1.015
		c16.766-1.052,33.593-0.126,50.409-0.953c22.272-1.095,44.61-0.804,66.905-0.952c66.968-0.446,133.946-1.106,200.912,0.531
		c20.634,0.504,41.269-0.059,61.917,0.814c21.44,0.906,42.938,0.207,64.399,1.219c11.292,0.532,22.598,0.056,33.917,0.799
		c12.764,0.838,25.602,0.225,38.399,1.15c9.111,0.659,18.26,0.156,27.413,0.863c10.755,0.83,21.594,0.682,32.394,1.029
		c13.963,0.448,27.907,1.669,41.894,1.372c0.333-0.007,0.673-0.028,0.999,0.025c10.372,1.695,20.879,0.86,31.317,1.556
		c11.255,0.75,22.557,1.739,33.881,1.415c0.333-0.01,0.673-0.024,0.999,0.029c9.872,1.63,19.903,0.359,29.811,1.719
		c4.908,0.674,9.932,0.557,14.895,0.852c12.424,0.739,24.853,1.558,37.285,2.08c8.965,0.377,17.893,1.594,26.887,1.291
		c0.498-0.017,1.012-0.026,1.496,0.073c7.026,1.451,14.209,1.062,21.304,1.603c7.599,0.58,15.241,1.103,22.865,1.523
		c5.458,0.301,10.99,0.146,16.389,0.932c6.969,1.015,13.932,1.012,20.899,0.764c8.948-0.319,16.046-4.691,22.044-11.032
		c6.641-7.021,9.021-15.557,9.019-25.046c-0.03-183.999-0.022-367.998-0.025-551.998c0-2.822-0.403-5.594-0.747-8.398
		c-1.796-14.616-17.658-28.344-32.848-27.745c-13.609,0.537-27.197,1.345-40.795,1.994c-15.595,0.745-31.205,1.196-46.795,2.134
		c-7.292,0.439-14.598,0.173-21.911,0.861c-9.088,0.855-18.258,0.139-27.402,0.998c-9.585,0.9-19.257,0.127-28.903,0.997
		c-10.086,0.91-20.258,0.18-30.403,1.014c-11.258,0.925-22.593,0.113-33.906,0.975c-12.927,0.985-25.924,0.122-38.906,0.987
		c-16.096,1.072-32.26,0.076-48.407,0.997c-18.936,1.079-37.93,0.331-56.91,0.938c-31.95,1.022-63.937,0.656-95.908,1.037
		c-57.325,0.684-114.664,0.486-171.997,0.286c-61.137-0.213-122.276,0.754-183.415-0.74c-33.457-0.818-66.946,0.021-100.409-1.16
		c-14.797-0.522-29.6,0.003-44.417-0.801c-17.268-0.937-34.603-0.004-51.903-1.121c-11.942-0.772-23.928-0.01-35.912-0.903
		c-12.256-0.913-24.599-0.038-36.901-1.083c-9.264-0.787-18.592-0.327-27.908-0.881c-12.434-0.739-24.928-0.824-37.395-1.156
		c-12.97-0.346-25.91-1.591-38.898-1.275c-0.333,0.008-0.673,0.029-0.999-0.026c-9.871-1.663-19.896-0.372-29.816-1.665
		c-6.394-0.833-12.934-0.626-19.392-0.872c-12.79-0.488-25.556-1.834-38.386-1.424c-12.614,0.403-21.52,6.755-27.887,17.137
		c-3.566,5.814-4.545,12.293-4.541,19.083C19.032,147.3,19.012,239.299,19.013,331.299z"/>
	<path style="fill:#FCEB42;" d="M19.012,331.299c0-92,0.02-183.999-0.041-275.999c-0.004-6.79,0.975-13.269,4.541-19.083
		c6.367-10.382,15.273-16.734,27.887-17.137c12.83-0.41,25.596,0.936,38.386,1.424c6.457,0.246,12.997,0.039,19.392,0.872
		c9.921,1.293,19.946,0.002,29.816,1.665c0.325,0.055,0.666,0.034,0.999,0.026c12.988-0.316,25.928,0.929,38.898,1.275
		c12.467,0.332,24.961,0.418,37.395,1.156c9.316,0.553,18.644,0.094,27.908,0.881c12.302,1.045,24.645,0.17,36.901,1.083
		c11.984,0.893,23.97,0.132,35.912,0.903c17.299,1.118,34.634,0.184,51.903,1.121c14.817,0.804,29.62,0.279,44.417,0.801
		c33.463,1.181,66.952,0.343,100.409,1.16c61.139,1.494,122.277,0.527,183.415,0.74c57.332,0.2,114.671,0.398,171.997-0.286
		c31.971-0.381,63.958-0.015,95.908-1.037c18.979-0.607,37.974,0.142,56.91-0.938c16.146-0.921,32.311,0.076,48.407-0.997
		c12.981-0.865,25.979-0.002,38.906-0.987c11.313-0.862,22.649-0.049,33.906-0.975c10.145-0.834,20.317-0.104,30.403-1.014
		c9.646-0.871,19.318-0.097,28.903-0.997c9.145-0.859,18.314-0.143,27.402-0.998c7.313-0.688,14.619-0.422,21.911-0.861
		c15.59-0.938,31.2-1.39,46.795-2.134c13.599-0.649,27.186-1.457,40.795-1.994c15.191-0.599,31.052,13.129,32.848,27.745
		c0.344,2.804,0.747,5.576,0.747,8.398c0.003,183.999-0.005,367.998,0.025,551.998c0.002,9.489-2.378,18.025-9.019,25.046
		c-5.998,6.341-13.096,10.714-22.044,11.032c-6.967,0.248-13.93,0.251-20.899-0.764c-5.399-0.786-10.931-0.631-16.389-0.932
		c-7.624-0.42-15.265-0.943-22.865-1.523c-7.094-0.541-14.278-0.152-21.304-1.603c-0.484-0.1-0.998-0.09-1.496-0.073
		c-8.994,0.303-17.922-0.915-26.887-1.291c-12.432-0.522-24.861-1.341-37.285-2.08c-4.963-0.295-9.987-0.178-14.895-0.852
		c-9.908-1.36-19.94-0.089-29.811-1.719c-0.326-0.054-0.666-0.039-0.999-0.029c-11.324,0.325-22.626-0.665-33.881-1.415
		c-10.438-0.696-20.945,0.139-31.317-1.556c-0.326-0.053-0.666-0.032-0.999-0.025c-13.986,0.298-27.931-0.923-41.894-1.372
		c-10.8-0.347-21.639-0.199-32.394-1.029c-9.153-0.706-18.302-0.204-27.413-0.863c-12.797-0.925-25.635-0.312-38.399-1.15
		c-11.318-0.743-22.624-0.267-33.917-0.799c-21.461-1.012-42.959-0.313-64.399-1.219c-20.648-0.873-41.283-0.31-61.917-0.814
		c-66.966-1.637-133.944-0.977-200.912-0.531c-22.296,0.148-44.633-0.143-66.905,0.952c-16.816,0.827-33.643-0.099-50.409,0.953
		c-13.646,0.857-27.314,0.006-40.905,1.015c-12.481,0.926-24.98-0.001-37.406,0.97c-10.645,0.832-21.315,0.104-31.903,1.021
		c-8.482,0.735-16.984,0.128-25.405,0.952c-8.308,0.813-16.653,0.172-24.897,1.031c-6.982,0.728-13.955,0.399-20.91,0.884
		c-14.752,1.027-29.531,1.389-44.295,2.099c-11.433,0.549-22.865,1.274-34.294,1.946c-11.595,0.682-23.193,1.328-34.786,2.031
		c-10.097,0.612-20.192,1.294-30.288,1.947c-9.928,0.642-19.858,1.316-29.78,2.034c-9.26,0.669-18.548,1.115-27.774,2.026
		c-9.721,0.959-19.474,1.57-29.197,2.434c-6.945,0.617-13.835-1.48-19.471-6.097c-9.427-7.722-14.089-17.639-14.08-29.949
		C19.044,515.631,19.013,423.465,19.012,331.299z M1088.249,306.102c0-19.946-0.001-39.417,0.012-58.887
		c0-0.127,0.18-0.26,0.287-0.38c0.11-0.125,0.234-0.238,0.409-0.414c4.09,0,8.237,0,12.595,0c1.755,2.771,3.559,5.539,5.283,8.356
		c6.764,11.052,13.272,22.272,20.886,32.777c3.827,5.28,8.29,10,13.652,13.771c11.621,8.171,24.713,9.199,38.192,7.275
		c6.016-0.858,12-2.413,17.387-5.702c1.326-10.733,2.331-21.36,3.114-32.479c-1.536,0.741-2.423,1.187-3.325,1.601
		c-9.018,4.149-20.173,3.543-26.623-6.986c-3.469-5.664-7.244-11.142-10.662-16.835c-1.571-2.617-3.777-4.949-4.54-7.857
		c0.377-0.409,0.466-0.573,0.603-0.643c0.88-0.454,1.768-0.893,2.659-1.326c10.046-4.879,17.716-12.197,22.898-22.126
		c7.303-13.994,8.486-28.825,5.968-44.11c-2.752-16.705-11.726-29.073-26.724-36.873c-12.504-6.503-26.19-8.632-40.007-8.877
		c-26.316-0.467-52.644-0.243-78.967-0.284c-0.947-0.001-2.022-0.324-2.872,0.691c0,59.652,0,119.376,0,179.308
		C1055.003,306.102,1071.262,306.102,1088.249,306.102z M895.699,470.74c0.375-0.558,0.499-0.919,0.751-1.082
		c0.692-0.448,1.417-0.858,2.165-1.203c13.12-6.039,21.69-16.178,26.521-29.607c4.14-11.506,4.85-23.319,2.961-35.366
		c-3.033-19.348-13.519-32.843-31.603-40.32c-11.347-4.691-23.351-6.636-35.504-6.801c-26.155-0.356-52.317-0.218-78.476-0.254
		c-1.097-0.002-2.357-0.42-3.12,0.584c0,59.883,0,119.616,0,179.426c16.585,0,32.852,0,49.601,0c0-19.915,0-39.646,0-59.589
		c4.744,0,9.008,0,13.419,0c6.205,10.04,12.402,20.063,18.597,30.089c3.587,5.806,7.326,11.505,11.867,16.63
		c5.962,6.729,12.961,11.877,21.749,14.334c8.324,2.327,16.778,2.522,25.214,1.117c6.325-1.054,12.628-2.48,17.998-5.967
		c1.098-10.874,2.162-21.402,3.264-32.315c-1.446,0.675-2.331,1.13-3.248,1.509c-11.815,4.882-21.005,3.064-27.607-7.684
		c-3.305-5.38-6.748-10.675-10.089-16.033C898.598,475.705,897.13,473.143,895.699,470.74z M207.105,305.6
		c1.1,0.906,1.961,0.696,2.757,0.695c21.661-0.005,43.323,0.041,64.984-0.073c12.346-0.065,24.496-1.87,36.402-5.098
		c17.529-4.752,32.445-13.493,42.909-28.803c8.993-13.159,12.649-28.092,13.681-43.663c0.948-14.308,0.06-28.596-2.803-42.711
		c-5.367-26.456-20.091-44.612-46.258-53.026c-14.243-4.58-28.898-6.368-43.673-6.601c-27.82-0.437-55.651-0.196-83.478-0.22
		c-0.792-0.001-1.675-0.235-2.412,0.569c0,11.31,0,22.69,0,34.534c6.047,0,11.787,0,17.89,0
		C207.105,209.749,207.105,257.828,207.105,305.6z M548.221,215.825c0.316-12.547-1.186-25.384-5.317-37.802
		c-9.365-28.155-27.813-46.751-57.243-53.295c-10.735-2.387-21.613-3.005-32.666-1.665c-12.39,1.502-24.054,4.89-34.682,11.396
		c-16.187,9.908-26.297,24.646-32.193,42.34c-5.64,16.925-7.086,34.34-5.364,52.128c1.063,10.988,3.106,21.669,7.286,31.874
		c9.524,23.253,25.944,38.938,50.453,45.722c14.699,4.069,29.595,4.338,44.436,1.629c25.387-4.633,43.971-18.624,55.229-42
		C545.738,250.415,548.535,233.681,548.221,215.825z M607.882,356.34c-13.548,0-26.646,0-40.189,0c0,32.547,0,64.845,0,97.298
		c-26.794-33.344-54.952-65.002-81.865-97.352c-10.381,0-20.328,0-30.46,0c0,60.06,0,119.922,0,179.662c13.713,0,27.103,0,40.697,0
		c0-32.295,0-64.229,0-95.961c26.204,32.628,53.846,64.078,80.219,96.103c10.808,0,21.084,0,31.598,0
		C607.882,476.137,607.882,416.405,607.882,356.34z M284.273,408.435c-0.589-2.469-0.915-4.085-1.361-5.668
		c-6.986-24.817-22.781-41.039-47.86-47.157c-17.139-4.181-34.56-4.023-51.814,0.353c-26.397,6.695-43.988,23.093-53.189,48.521
		c-5.137,14.196-6.988,28.886-6.439,44.039c0.466,12.858,1.612,25.528,5.43,37.834c6.226,20.065,17.74,35.901,36.966,45.418
		c7.814,3.868,16.163,6.038,24.742,7.117c9.911,1.246,19.821,1.661,29.781-0.339c11.129-2.235,21.977-5.057,31.817-11.234
		c2.057,3.024,4.002,5.884,5.906,8.684c9.88,0,19.62,0,29.356,0c0-30.851,0-61.397,0-91.887c-5.826-0.956-64.516-0.739-68.073,0.219
		c0,9.218,0,18.454,0,27.763c6.546,0.621,12.852-0.286,19.192,0.531c0,8.395,0,16.5,0,24.725c-5.215,2.67-10.768,3.836-16.322,4.394
		c-10.152,1.02-19.864-0.49-28.406-6.723c-7.512-5.481-11.548-13.234-13.883-21.866c-4.502-16.643-4.519-33.555-1.65-50.438
		c1.429-8.409,4.441-16.373,10.004-23.054c6.249-7.506,14.162-10.468,23.932-8.675c8.48,1.556,13.276,7.108,16.431,14.455
		c1.608,3.746,2.636,7.741,3.975,11.77C249.934,414.295,266.859,411.407,284.273,408.435z M1023.173,306.118
		c-21.699-60.32-43.168-120.004-64.685-179.818c-19.78,0-39.381,0-59.434,0c-16.859,60.466-38.319,119.55-57.152,179.689
		c16.529,0,32.591,0,48.593,0c3.299-11.063,6.506-21.818,9.721-32.598c20.207,0,40.142,0,60.187,0
		c3.652,11.072,7.258,22.008,10.794,32.727C988.731,306.118,1005.68,306.118,1023.173,306.118z M1005.602,356.284
		c-16.613,60.942-38.324,119.701-56.929,179.808c16.423,0,32.358,0,48.549,0c3.295-10.984,6.559-21.866,9.768-32.566
		c20.392,0,40.176,0,60.226,0c3.57,10.938,7.103,21.764,10.618,32.533c17.494,0,34.587,0,51.973,0
		c-21.601-60.183-43.089-120.049-64.527-179.775C1045.068,356.284,1025.446,356.284,1005.602,356.284z M437.922,501.254
		c-26.109,0-51.685,0-77.449,0c0-13.187,0-25.921,0-39.169c19.474,0,38.7,0,57.913,0c0-11.766,0-23.013,0-34.753
		c-6.774,0-13.232,0-19.69,0c-6.332,0-12.665,0.039-18.997-0.011c-6.412-0.051-12.841,0.227-19.122-0.186c0-12.3,0-24.027,0-35.921
		c23.76-0.055,47.164,0.039,70.475-0.053c0-12.007,0-23.288,0-34.815c-40.114,0-80.007,0-120.115,0c0,59.987,0,119.716,0,179.69
		c41.599,0,82.986,0,124.62,0C436.34,524.537,437.104,513.292,437.922,501.254z M634.998,356.286c0,60.226,0,119.946,0,179.701
		c41.7,0,83.081,0,124.646,0c0.784-11.65,1.546-22.99,2.341-34.806c-26.184,0-51.751,0-77.438,0c0-13.177,0-25.91,0-39.1
		c19.359,0,38.443,0,57.536,0c0-11.722,0-22.983,0-34.786c-19.299,0-38.356,0-57.54,0c0-12.281,0-24.014,0-36.239
		c23.673,0,47.075,0,70.332,0c0-11.895,0-23.294,0-34.769C714.775,356.286,675.017,356.286,634.998,356.286z M758.884,126.346
		c-16.786,0-33.157,0-49.563,0c0,60.099,0,119.94,0,179.711c41.09,0,81.839,0,122.989,0c0.776-11.607,1.538-22.995,2.331-34.863
		c-25.221,0-50.284,0-75.757,0C758.884,222.683,758.884,174.64,758.884,126.346z M1266.088,536.185
		c0.786-11.756,2.158-23.071,1.989-34.901c-25.236,0-49.982,0-75.299,0c0-48.602,0-96.796,0-144.974c-16.848,0-33.118,0-49.512,0
		c0,60.074,0,119.926,0,179.876C1184.216,536.185,1224.831,536.185,1266.088,536.185z M617.078,271.318c0-48.777,0-96.831,0-144.877
		c-16.705,0-32.932,0-49.028,0c0,60.082,0,119.812,0,179.603c41.072,0,81.81,0,122.783,0c0.797-11.615,1.576-22.982,2.382-34.727
		C667.754,271.318,642.815,271.318,617.078,271.318z M1228.493,357.062c-10.205-0.033-18.37,8.275-18.164,18.479
		c0.21,10.41,8.284,18.787,18.089,18.77c9.875-0.017,17.34-8.036,17.662-18.411C1246.438,364.391,1236.727,356.32,1228.493,357.062z
		"/>
	<path style="fill:#393736;" d="M1088.249,306.102c-16.987,0-33.246,0-49.774,0c0-59.932,0-119.656,0-179.308
		c0.85-1.015,1.925-0.692,2.872-0.691c26.323,0.04,52.651-0.183,78.967,0.284c13.817,0.245,27.503,2.374,40.007,8.877
		c14.998,7.8,23.972,20.168,26.724,36.873c2.518,15.285,1.334,30.116-5.968,44.11c-5.182,9.929-12.852,17.247-22.898,22.126
		c-0.891,0.433-1.779,0.872-2.659,1.326c-0.137,0.071-0.226,0.234-0.603,0.643c0.763,2.908,2.969,5.24,4.54,7.857
		c3.418,5.693,7.192,11.171,10.662,16.835c6.45,10.529,17.604,11.135,26.623,6.986c0.901-0.415,1.788-0.86,3.325-1.601
		c-0.782,11.119-1.787,21.746-3.114,32.479c-5.387,3.29-11.371,4.844-17.387,5.702c-13.479,1.923-26.571,0.895-38.192-7.275
		c-5.363-3.771-9.825-8.491-13.652-13.771c-7.615-10.505-14.122-21.724-20.886-32.777c-1.724-2.817-3.528-5.585-5.283-8.356
		c-4.358,0-8.505,0-12.595,0c-0.176,0.177-0.299,0.29-0.409,0.414c-0.107,0.121-0.287,0.253-0.287,0.38
		C1088.249,266.685,1088.249,286.156,1088.249,306.102z M1088.401,161.067c0,18.453,0,36.195,0,54.27
		c5.93,0,11.57,0.028,17.208-0.011c3.33-0.022,6.701,0.155,9.982-0.284c11.007-1.473,17.565-5.688,20.217-17.427
		c1.32-5.843,1.379-11.802,0.277-17.821c-1.792-9.785-7.274-15.69-17.083-17.614C1108.947,160.206,1098.808,161.39,1088.401,161.067
		z"/>
	<path style="fill:#393736;" d="M895.699,470.74c1.431,2.403,2.899,4.965,4.461,7.468c3.341,5.358,6.784,10.653,10.089,16.033
		c6.602,10.748,15.792,12.566,27.607,7.684c0.917-0.379,1.802-0.835,3.248-1.509c-1.102,10.913-2.166,21.441-3.264,32.315
		c-5.37,3.487-11.673,4.913-17.998,5.967c-8.437,1.405-16.891,1.211-25.214-1.117c-8.788-2.457-15.787-7.605-21.749-14.334
		c-4.541-5.125-8.279-10.823-11.867-16.63c-6.194-10.025-12.391-20.049-18.597-30.089c-4.411,0-8.675,0-13.419,0
		c0,19.943,0,39.675,0,59.589c-16.749,0-33.017,0-49.601,0c0-59.811,0-119.544,0-179.426c0.763-1.004,2.024-0.586,3.12-0.584
		c26.159,0.036,52.321-0.102,78.476,0.254c12.153,0.165,24.158,2.11,35.504,6.801c18.084,7.477,28.57,20.971,31.603,40.32
		c1.889,12.047,1.179,23.859-2.961,35.366c-4.832,13.429-13.402,23.568-26.521,29.607c-0.749,0.345-1.473,0.755-2.165,1.203
		C896.198,469.821,896.074,470.182,895.699,470.74z M829.211,445.2c9.202,0,17.879,0.369,26.511-0.092
		c11.193-0.598,18.364-6.273,20.632-16.769c1.419-6.567,1.611-13.154,0.222-19.696c-1.768-8.328-6.535-14.093-15.125-16.026
		c-10.627-2.392-21.386-1.259-32.24-1.59C829.211,409.372,829.211,427.118,829.211,445.2z"/>
	<path style="fill:#393736;" d="M207.105,305.6c0-47.772,0-95.851,0-144.396c-6.104,0-11.843,0-17.89,0c0-11.843,0-23.224,0-34.534
		c0.737-0.805,1.621-0.57,2.412-0.569c27.827,0.024,55.658-0.217,83.478,0.22c14.775,0.232,29.43,2.021,43.673,6.601
		c26.167,8.414,40.891,26.57,46.258,53.026c2.863,14.115,3.751,28.403,2.803,42.711c-1.031,15.57-4.687,30.504-13.681,43.663
		c-10.464,15.31-25.38,24.051-42.909,28.803c-11.906,3.228-24.057,5.033-36.402,5.098c-21.661,0.114-43.323,0.068-64.984,0.073
		C209.066,306.296,208.205,306.507,207.105,305.6z M257.127,271.352c9.922-0.29,19.383,0.626,28.789-1.153
		c13.743-2.599,22.448-10.514,26.328-23.977c1.996-6.925,2.542-13.983,3.14-21.103c1.038-12.359,0.341-24.582-2.566-36.592
		c-2.917-12.054-9.77-20.977-22.051-24.833c-10.964-3.442-22.225-2.64-33.64-2.523C257.127,197.985,257.127,234.363,257.127,271.352
		z"/>
	<path style="fill:#393736;" d="M548.221,215.825c0.314,17.856-2.483,34.59-10.062,50.327c-11.258,23.377-29.842,37.367-55.229,42
		c-14.84,2.708-29.737,2.439-44.436-1.629c-24.509-6.784-40.929-22.47-50.453-45.722c-4.18-10.205-6.223-20.886-7.286-31.874
		c-1.721-17.788-0.276-35.203,5.364-52.128c5.896-17.693,16.007-32.431,32.193-42.34c10.628-6.506,22.292-9.893,34.682-11.396
		c11.053-1.34,21.931-0.723,32.666,1.665c29.431,6.545,47.878,25.14,57.243,53.295C547.035,190.442,548.537,203.278,548.221,215.825
		z M495.175,217.411c0.05-12.71-0.568-24.117-4.166-35.122c-2.092-6.398-5.158-12.291-10.657-16.497
		c-10.368-7.93-30.599-7.645-39.307,8.185c-5.08,9.234-7.143,19.354-7.77,29.496c-0.65,10.512-0.977,21.189,0.775,31.741
		c1.308,7.879,2.903,15.626,6.782,22.743c2.894,5.309,7.028,9.186,12.476,11.753c4.084,1.925,8.424,1.584,12.735,1.632
		c7.901,0.087,14.046-3.275,18.884-9.383c3.476-4.387,5.59-9.424,6.998-14.74C494.616,237.053,495.297,226.648,495.175,217.411z"/>
	<path style="fill:#383636;" d="M607.882,356.34c0,60.065,0,119.798,0,179.749c-10.514,0-20.791,0-31.598,0
		c-26.373-32.025-54.015-63.475-80.219-96.103c0,31.732,0,63.667,0,95.961c-13.594,0-26.984,0-40.697,0c0-59.74,0-119.602,0-179.662
		c10.132,0,20.079,0,30.46,0c26.913,32.35,55.071,64.009,81.865,97.352c0-32.453,0-64.752,0-97.298
		C581.237,356.34,594.334,356.34,607.882,356.34z"/>
	<path style="fill:#393736;" d="M284.273,408.435c-17.414,2.972-34.339,5.86-51.465,8.782c-1.339-4.029-2.367-8.024-3.975-11.77
		c-3.154-7.347-7.951-12.899-16.431-14.455c-9.77-1.793-17.683,1.169-23.932,8.675c-5.562,6.682-8.575,14.645-10.004,23.054
		c-2.869,16.883-2.852,33.795,1.65,50.438c2.335,8.632,6.371,16.385,13.883,21.866c8.542,6.233,18.255,7.743,28.406,6.723
		c5.555-0.558,11.107-1.724,16.322-4.394c0-8.225,0-16.331,0-24.725c-6.34-0.817-12.646,0.09-19.192-0.531
		c0-9.308,0-18.545,0-27.763c3.557-0.957,62.247-1.174,68.073-0.219c0,30.49,0,61.035,0,91.887c-9.736,0-19.475,0-29.356,0
		c-1.904-2.799-3.849-5.659-5.906-8.684c-9.84,6.177-20.688,8.999-31.817,11.234c-9.959,2-19.87,1.585-29.781,0.339
		c-8.579-1.079-16.927-3.249-24.742-7.117c-19.226-9.517-30.741-25.353-36.966-45.418c-3.818-12.306-4.964-24.976-5.43-37.834
		c-0.549-15.153,1.303-29.844,6.439-44.039c9.201-25.428,26.791-41.826,53.189-48.521c17.254-4.376,34.675-4.534,51.814-0.353
		c25.079,6.118,40.874,22.34,47.86,47.157C283.358,404.35,283.684,405.966,284.273,408.435z"/>
	<path style="fill:#393736;" d="M1023.173,306.118c-17.493,0-34.443,0-51.977,0c-3.535-10.72-7.142-21.655-10.794-32.727
		c-20.045,0-39.98,0-60.187,0c-3.215,10.78-6.422,21.535-9.721,32.598c-16.002,0-32.064,0-48.593,0
		c18.833-60.139,40.294-119.223,57.152-179.689c20.053,0,39.654,0,59.434,0C980.005,186.113,1001.475,245.797,1023.173,306.118z
		 M949.241,239.865c-2.668-8.362-5.176-16.235-7.691-24.106c-1.614-5.05-3.251-10.093-4.855-15.146
		c-1.653-5.211-3.27-10.433-4.916-15.647c-1.536-4.866-2.812-9.789-3.307-14.934c-4.35,23.709-12.687,46.291-18.767,69.833
		C922.985,239.865,935.75,239.865,949.241,239.865z"/>
	<path style="fill:#393736;" d="M1005.602,356.284c19.844,0,39.466,0,59.678,0c21.438,59.726,42.925,119.592,64.527,179.775
		c-17.386,0-34.479,0-51.973,0c-3.515-10.769-7.048-21.595-10.618-32.533c-20.05,0-39.834,0-60.226,0
		c-3.209,10.7-6.473,21.582-9.768,32.566c-16.19,0-32.126,0-48.549,0C967.278,475.985,988.989,417.226,1005.602,356.284z
		 M1055.777,469.916c-6.603-23.334-15.639-45.664-21.151-69.1c-0.443,4.088-1.251,7.984-2.178,11.867
		c-4.199,17.585-9.915,34.743-14.658,52.175c-0.457,1.678-1.167,3.279-0.954,5.058
		C1029.946,469.916,1042.745,469.916,1055.777,469.916z"/>
	<path style="fill:#393736;" d="M437.922,501.254c-0.818,12.038-1.582,23.283-2.363,34.782c-41.635,0-83.021,0-124.62,0
		c0-59.975,0-119.703,0-179.69c40.108,0,80,0,120.115,0c0,11.527,0,22.808,0,34.815c-23.311,0.092-46.715-0.002-70.475,0.053
		c0,11.894,0,23.621,0,35.921c6.281,0.412,12.71,0.135,19.122,0.186c6.332,0.05,12.664,0.011,18.997,0.011c6.458,0,12.915,0,19.69,0
		c0,11.74,0,22.987,0,34.753c-19.214,0-38.439,0-57.913,0c0,13.249,0,25.983,0,39.169
		C386.237,501.254,411.813,501.254,437.922,501.254z"/>
	<path style="fill:#383636;" d="M634.998,356.286c40.019,0,79.777,0,119.877,0c0,11.476,0,22.874,0,34.769
		c-23.257,0-46.659,0-70.332,0c0,12.225,0,23.959,0,36.239c19.184,0,38.241,0,57.54,0c0,11.803,0,23.064,0,34.786
		c-19.093,0-38.178,0-57.536,0c0,13.19,0,25.924,0,39.1c25.687,0,51.254,0,77.438,0c-0.795,11.815-1.557,23.156-2.341,34.806
		c-41.565,0-82.946,0-124.646,0C634.998,476.232,634.998,416.513,634.998,356.286z"/>
	<path style="fill:#383636;" d="M758.884,126.346c0,48.293,0,96.336,0,144.849c25.472,0,50.536,0,75.757,0
		c-0.794,11.868-1.555,23.256-2.331,34.863c-41.15,0-81.899,0-122.989,0c0-59.771,0-119.612,0-179.711
		C725.727,126.346,742.098,126.346,758.884,126.346z"/>
	<path style="fill:#393736;" d="M1266.088,536.185c-41.258,0-81.872,0-122.822,0c0-59.95,0-119.802,0-179.876
		c16.394,0,32.665,0,49.512,0c0,48.178,0,96.373,0,144.974c25.317,0,50.063,0,75.299,0
		C1268.246,513.114,1266.874,524.429,1266.088,536.185z"/>
	<path style="fill:#383635;" d="M617.078,271.318c25.738,0,50.676,0,76.137,0c-0.806,11.745-1.585,23.112-2.382,34.727
		c-40.973,0-81.711,0-122.783,0c0-59.792,0-119.521,0-179.603c16.096,0,32.323,0,49.028,0
		C617.078,174.487,617.078,222.541,617.078,271.318z"/>
	<path style="fill:#424134;" d="M1228.493,357.062c8.234-0.743,17.945,7.329,17.588,18.838
		c-0.322,10.375-7.787,18.395-17.662,18.411c-9.805,0.017-17.879-8.361-18.089-18.77
		C1210.123,365.337,1218.289,357.03,1228.493,357.062z M1243.099,375.655c0.032-8.943-6.145-15.254-14.615-15.648
		c-7.573-0.353-14.646,5.631-15.094,15.255c-0.41,8.799,6.644,15.961,15.018,15.928
		C1236.859,391.156,1243.067,384.592,1243.099,375.655z"/>
	<path style="fill:#FAE941;" d="M1088.401,161.067c10.407,0.323,20.546-0.86,30.601,1.113c9.81,1.925,15.292,7.829,17.083,17.614
		c1.102,6.019,1.043,11.978-0.277,17.821c-2.652,11.74-9.21,15.954-20.217,17.427c-3.282,0.439-6.652,0.262-9.982,0.284
		c-5.639,0.038-11.278,0.011-17.208,0.011C1088.401,197.262,1088.401,179.519,1088.401,161.067z"/>
	<path style="fill:#FCEA42;" d="M829.211,445.2c0-18.082,0-35.828,0-54.173c10.854,0.33,21.613-0.802,32.24,1.59
		c8.59,1.933,13.357,7.698,15.125,16.026c1.389,6.542,1.197,13.129-0.222,19.696c-2.268,10.496-9.439,16.171-20.632,16.769
		C847.089,445.569,838.412,445.2,829.211,445.2z"/>
	<path style="fill:#FCEA42;" d="M257.127,271.352c0-36.989,0-73.367,0-110.181c11.416-0.117,22.676-0.919,33.64,2.523
		c12.281,3.855,19.134,12.779,22.051,24.833c2.907,12.01,3.604,24.233,2.566,36.592c-0.598,7.12-1.144,14.178-3.14,21.103
		c-3.88,13.463-12.586,21.377-26.328,23.977C276.51,271.978,267.049,271.062,257.127,271.352z"/>
	<path style="fill:#FBE941;" d="M495.175,217.411c0.122,9.237-0.559,19.642-3.251,29.807c-1.408,5.317-3.522,10.353-6.998,14.74
		c-4.839,6.108-10.984,9.47-18.884,9.383c-4.311-0.047-8.651,0.293-12.735-1.632c-5.448-2.567-9.582-6.445-12.476-11.753
		c-3.879-7.117-5.474-14.864-6.782-22.743c-1.752-10.552-1.425-21.229-0.775-31.741c0.627-10.141,2.69-20.262,7.77-29.496
		c8.708-15.829,28.939-16.115,39.307-8.185c5.499,4.206,8.565,10.1,10.657,16.497C494.608,193.294,495.225,204.701,495.175,217.411z
		"/>
	<path style="fill:#F8E741;" d="M949.241,239.865c-13.491,0-26.256,0-39.535,0c6.079-23.542,14.416-46.123,18.767-69.833
		c0.495,5.145,1.771,10.069,3.307,14.934c1.646,5.213,3.263,10.436,4.916,15.647c1.603,5.054,3.241,10.096,4.855,15.146
		C944.065,223.63,946.573,231.503,949.241,239.865z"/>
	<path style="fill:#F8E741;" d="M1055.777,469.916c-13.032,0-25.831,0-38.941,0c-0.213-1.779,0.497-3.379,0.954-5.058
		c4.743-17.432,10.459-34.59,14.658-52.175c0.927-3.883,1.736-7.779,2.178-11.867
		C1040.138,424.252,1049.174,446.582,1055.777,469.916z"/>
	<path style="fill:#F2E140;" d="M1243.099,375.655c-0.032,8.938-6.239,15.501-14.691,15.534
		c-8.374,0.033-15.428-7.129-15.018-15.928c0.448-9.623,7.521-15.608,15.094-15.255
		C1236.954,360.401,1243.131,366.712,1243.099,375.655z M1233.121,375.811c2.526-1.949,3.737-4.25,2.542-7.099
		c-1.252-2.984-3.877-3.917-6.926-3.804c-2.422,0.089-4.9-0.364-7.335,0.357c0,7.026,0,13.746,0,20.351
		c1.225,0.542,2.149,0.67,3.301-0.216c0.658-2.431-0.455-5.352,0.708-7.926c2.198-0.141,4.194-0.608,5.862,0.676
		c2.145,2.197,0.841,5.213,1.83,7.418c1.232,0.7,2.114,0.658,2.991-0.325C1235.691,382.156,1237.037,378.56,1233.121,375.811z"/>
	<path style="fill:#424134;" d="M1233.121,375.811c3.917,2.749,2.57,6.345,2.974,9.432c-0.877,0.983-1.76,1.025-2.991,0.325
		c-0.989-2.205,0.315-5.221-1.83-7.418c-1.668-1.284-3.664-0.817-5.862-0.676c-1.163,2.574-0.05,5.495-0.708,7.926
		c-1.152,0.886-2.076,0.758-3.301,0.216c0-6.605,0-13.325,0-20.351c2.435-0.721,4.913-0.268,7.335-0.357
		c3.048-0.112,5.674,0.82,6.926,3.804C1236.858,371.561,1235.647,373.862,1233.121,375.811z M1231.07,368.254
		c-1.868-0.082-3.926-0.543-6.073,0.313c-0.049,1.911-0.398,3.659,0.317,5.623c2.516-0.236,5.103,0.793,6.848-1.811
		C1233.23,370.786,1232.348,369.621,1231.07,368.254z"/>
	<path style="fill:#F2E140;" d="M1231.07,368.254c1.277,1.366,2.16,2.532,1.093,4.125c-1.745,2.605-4.332,1.576-6.848,1.811
		c-0.716-1.964-0.366-3.712-0.317-5.623C1227.144,367.711,1229.202,368.173,1231.07,368.254z"/>
</g>
</svg>
