<?xml version="1.0" encoding="iso-8859-1"?>
<!-- Generator: Adobe Illustrator 27.0.0, SVG Export Plug-In . SVG Version: 6.00 Build 0)  -->
<svg version="1.1" id="Layer_1" xmlns="http://www.w3.org/2000/svg" xmlns:xlink="http://www.w3.org/1999/xlink" x="0px" y="0px"
	 viewBox="0 0 1553.17 519" style="enable-background:new 0 0 1553.17 519;" xml:space="preserve">
<g>
	<path style="fill:#2F4459;" d="M1510.17,0c-0.792,3.114-0.191,6.284-0.37,9.423c-0.103,1.806,0.02,3.635-0.709,5.607
		c-502.798,0-1005.627,0-1508.756,0c0-4.766,0-9.387,0-14.007C2.168,1.015,4.001,1,5.834,1
		c499.107-0.001,998.214-0.001,1497.321-0.001c1.5,0,3-0.006,4.5,0.002c0.737,0.004,1.253-0.3,1.515-1.002
		C1509.503,0,1509.837,0,1510.17,0z"/>
	<path style="fill:#33465B;" d="M19.17,519c-1.17-1.615-3.156-1.384-4.743-2.023c-4.691-1.889-8.232-4.961-10.479-9.478
		c-1.837-3.692-1.34-6.155,1.659-8.92c1.614-1.489,3.511-2.567,5.502-3.384c12.065-4.949,22.145-12.637,31.315-21.808
		c9.526-9.528,19.438-18.67,29.155-28.007c1.897-1.822,3.679-3.764,5.921-6.069c-2.479-0.535-4.338-0.197-6.209,0.123
		c-7.76,1.328-13.672-1.681-18.007-7.97c-1.871-2.716-3.363-5.693-5.23-8.901c12.495,1.36,24.56,0.505,36.625,0.355
		c4.684-0.058,8.442-1.679,11.999-4.942c21.35-19.584,43.103-38.717,65.319-57.316c3.189-2.67,6.568-5.113,9.851-7.672
		c2.973-2.318,6.044-2.423,9.267-0.524c2.736,1.612,5.358,3.369,7.502,5.737c3.16,3.49,4.897,7.297,3.79,12.268
		c-2.058,9.234-3.833,18.534-5.608,27.829c-1.277,6.689-2.363,13.414-3.565,20.3c2.293,0.784,4.581,0.223,6.844,0.225
		c5.497,0.005,10.995,0.027,16.492,0.126c2.79,0.05,5.238,0.733,5.934,4.509c-4.962,2.428-10.275,1.345-15.22,2.284
		c-5.021,0.954-10.195,1.105-15.698,1.647c-1.868,21.909-6.33,43.463-3.13,66.044c13.223-7.143,21.921-17.677,28.058-30.271
		c1.883,0.26,2.526,1.11,2.595,2.423c0.087,1.661,0.097,3.298-0.409,4.94c-4.714,15.294-12.106,29.107-22.704,41.145
		c-2.933,3.331-6.352,5.653-10.94,3.363c-10.92-5.45-18.971-13.536-21.63-25.782c-1.708-7.866-0.734-15.911,0.294-23.811
		c1.558-11.979,3.475-23.911,5.285-36.177c-18.965,2.026-37.587,4.016-56.694,6.058c-4.817,5.919-10.013,11.976-14.847,18.308
		c-13.041,17.084-27.249,33.188-41.222,49.489c-2.922,3.409-6.295,6.429-9.268,9.798c-2.461,2.789-5.813,4.142-8.803,6.084
		C25.17,519,22.17,519,19.17,519z M173.738,363.563c-5.015,2.314-9.495,5.477-13.692,9.002
		c-14.281,11.993-27.564,25.051-40.502,38.459c-2.608,2.703-5.53,5.216-7.597,9.243c16.902-0.941,33.308-1.354,49.356-1.577
		c1.354-1.651,1.636-3.103,1.945-4.571c1.981-9.408,3.945-18.82,6.014-28.209c1.604-7.28,3.353-14.529,5.037-21.792
		c0.447-0.159,0.785-0.502,0.425-0.892C174.357,362.831,174.017,363.281,173.738,363.563z"/>
	<path style="fill:#485568;" d="M1509.17,0c-0.262,0.701-0.778,1.006-1.515,1.002c-1.5-0.008-3-0.002-4.5-0.002
		c-499.107,0-998.214,0-1497.321,0.001C4.001,1,2.168,1.015,0.335,1.023C0.28,0.682,0.225,0.341,0.17,0
		C503.17,0,1006.17,0,1509.17,0z"/>
	<path style="fill:#3A4B5F;" d="M1553.17,90c-0.976,1.875-1.829,3.827-2.951,5.611c-3.769,5.992-11.547,9.031-18.257,6.964
		c-7.101-2.188-12.148-7.496-12.396-16.213c-0.221-7.746,6.129-15.042,13.555-16.316c8.2-1.407,15.873,2.885,18.849,10.525
		c0.327,0.84-0.172,2.104,1.201,2.43C1553.17,85.333,1553.17,87.667,1553.17,90z M1544.233,95.025
		c2.677-1.901,3.342-4.873,3.794-7.781c0.756-4.856-2.171-10.214-6.488-12.483c-4.377-2.3-8.419-1.692-12.686,1.909
		c-5.771,5.936-5.741,13.796,0.521,18.625c0-6.268,0-12.191,0-18.114c3.297,0.067,6.632-0.546,9.88,0.403
		c3.442,1.007,4.707,3.506,3.876,6.857c-0.502,2.022-2.475,2.239-3.833,3.132c1.403,2.723,2.611,5.066,3.819,7.409
		c-1.464,0.11-2.951,0.531-4.247-0.217c-1.973-2.154-1.949-5.695-5.17-6.951c-1.17,2.417,0.052,4.854-0.884,6.957
		c-0.819,0.818-2.343-0.173-2.901,1.194C1534.787,99.845,1539.294,99.534,1544.233,95.025z M1539.488,81.583
		c-2.097-0.86-3.753-1.917-5.926-1.108c-0.518,1.461-0.777,2.847,0.314,4.313C1535.999,84.698,1538.52,85.56,1539.488,81.583z"/>
	<path style="fill:#31455A;" d="M869.253,79.569c-2.898-4.909-8.142-1.295-11.978-3.345c-0.605-2.58-0.328-5.159-0.012-7.53
		c1.715-1.686,3.607-1.381,5.406-1.381c39.999-0.009,79.998,0.015,119.997-0.031c5.756-0.007,10.692,2.059,15.265,5.284
		c6.19,4.365,11.438,9.655,15.586,16.015c0.622,0.954,1.319,1.859,2.497,3.51c0-6.505,0.081-12.195-0.034-17.881
		c-0.058-2.862,0.523-5.271,3.267-6.98c52.651,0,105.466,0,158.376,0c2.687,1.547,3.631,3.934,3.56,7.052
		c-0.132,5.792-0.038,11.589-0.038,17.494c1.549-0.474,1.757-1.753,2.316-2.691c3.68-6.175,8.868-10.634,15.097-14.162
		c11.248-6.37,23.384-9.081,36.151-10.004c9.978-0.722,19.95-1.502,29.925-0.749c12.954,0.978,25.686,2.956,37.597,8.789
		c10.865,5.321,18.617,13.242,22.576,24.7c4.304,12.456,6.902,25.308,8.33,38.386c2.593,23.748,2.046,47.59,1.601,71.402
		c-0.248,13.292-1.209,26.547-4.505,39.577c-6.123,24.211-24.648,38.681-48.729,41.072c-16.481,1.637-32.951,1.197-49.427,0.754
		c-8.14-0.219-16.308-1.269-23.993-4.149c-17.509-6.563-29.225-18.553-33.818-37.025c-2.338-9.4-3.547-18.953-4.094-28.594
		c-1.059-18.647-0.739-37.32-0.656-55.979c0.09-20.375,2.853-40.445,8.241-60.124c0.171-0.625,0.535-1.233,0.147-1.898
		c-0.24-0.655-0.815-0.391-1.263-0.456c-5.066-0.74-5.246-0.924-5.569-5.805c-0.077-1.164-0.161-2.328-0.195-3.493
		c-0.033-1.143-0.007-2.287-0.007-3.362c-5.879-1.423-35.805-0.999-39.595,0.641c0,62.269,0,124.695,0,186.922
		c2.468,4.429,7.447,1.12,10.362,3.599c0.926,1.468,0.878,2.988,0.768,4.474c-0.219,2.962-1.404,4.138-4.339,4.385
		c-0.993,0.084-1.999,0.017-2.999,0.017c-24.333,0-48.666,0-72.998,0c-0.667,0-1.334,0.024-2-0.004
		c-3.888-0.167-4.903-1.189-5.085-5.17c-0.053-1.157-0.145-2.338,0.612-3.701c2.725-2.541,7.772,0.774,10.409-4.001
		c0-61.496,0-123.625,0-185.681c-0.971-1.718-2.45-2.251-4.233-2.25c-11.644,0.007-23.288,0.004-35.37,0.004
		c-0.124,2.804-0.104,5.417-0.385,7.997c-0.507,4.662-1.481,5.43-6.468,5.563c-0.893,1.558-0.374,3.233-0.18,4.821
		c1.11,9.108,1.505,18.269,1.49,27.418c-0.016,9.656-2.245,18.768-8.392,26.611c-3.758,4.795-8.266,8.634-13.588,11.532
		c-2.181,1.188-4.438,2.239-6.684,3.364c0.545,1.638,2.03,1.392,3.245,1.623c7.364,1.4,14.667,2.989,21.18,6.962
		c9.284,5.662,14.09,14.235,14.285,24.816c0.383,20.826,0.114,41.664,0.114,62.496c0,1.66,0,3.319,0,5.107
		c4.294,5.252,10.549,0.894,15.66,3.327c0.901,2.18,0.989,4.57,0.208,6.912c-1.49,1.759-3.298,2.275-5.425,2.272
		c-21.166-0.032-42.332-0.032-63.498,0.004c-1.769,0.003-3.357-0.446-4.623-1.553c-4.623-4.044-8.054-8.563-8.011-15.285
		c0.164-25.332,0.069-50.665,0.064-75.998c-0.002-6.611-1.007-7.989-7.387-9.866c-1.745-0.513-3.567-1.029-5.363-1.061
		c-6.82-0.124-13.643-0.05-21.148-0.05c-0.293,5.28-0.097,10.384-0.131,15.472c-0.035,5.166-0.006,10.333-0.005,15.5
		c0,5.167,0,10.333,0,15.5s0.001,10.333,0.001,15.5c0,5.167-0.2,10.343,0.054,15.497c0.248,5.027-1.265,10.251,1.133,15.147
		c3.676,1.026,7.188,0.108,10.747,0.481c2.593,2.866,2.16,5.969,1.05,9.018c-1.471,0.956-2.84,0.545-4.137,0.547
		c-25.333,0.025-50.665,0.018-75.998,0.018c-1,0-2,0.02-3-0.004c-3.87-0.091-5.45-1.075-5.667-3.507
		c-0.236-2.65,2.524-5.733,5.539-6.05c1.311-0.138,2.65-0.023,3.708-0.023c1.905-1.093,3.042-2.529,4.462-4.034
		C869.253,208.797,869.253,144.169,869.253,79.569z M1231.114,179.168c0,1.665,0.002,3.331,0,4.996
		c-0.044,29.31-0.062,58.62-0.169,87.929c-0.012,3.365,1.315,5.854,4.073,7.456c1.838,1.068,3.911,1.948,5.988,2.348
		c7.081,1.365,14.223,1.337,21.319,0.042c7.262-1.326,10.787-5.131,10.788-11.491c0.005-59.955-0.009-119.91,0.015-179.865
		c0.001-2.685-0.317-5.301-0.834-7.92c-1.1-5.57-4.41-9.144-9.723-10.963c-4.484-1.535-9.128-1.938-13.77-1.363
		c-12.536,1.551-17.967,6.929-17.799,20.398C1231.368,120.209,1231.115,149.69,1231.114,179.168z M931.491,172.09
		c9.078,0,17.712,0.102,26.341-0.049c3.554-0.062,5.756-2.301,6.389-5.837c0.204-1.14,0.274-2.318,0.275-3.479
		c0.017-25.796,0.044-51.593-0.005-77.389c-0.01-5.471-3.267-8.577-8.74-8.577c-6.988,0-13.977,0.066-20.965,0.147
		c-1.099,0.013-2.357-0.408-3.295,0.855C931.491,108.91,931.491,140.157,931.491,172.09z"/>
	<path style="fill:#31455A;" d="M486.717,77.378c-3.843-1.399-7.759-0.321-10.933-2.286c-1.191-5.228,0.672-8.231,5.42-8.247
		c22.161-0.072,44.322-0.015,66.483,0.013c0.483,0.001,0.965,0.207,1.424,0.312c2.078,2.018,1.75,4.587,1.751,7.062
		c0.006,27.827,0.004,55.654,0.004,83.481c0,1.827,0,3.654,0,5.197c0.897,1.64,2.019,2.614,3.423,3.705c10.094,0,20.393,0,30.672,0
		c1.303-0.839,2.37-1.858,3.316-3.389c0-7.44,0-15.098,0-22.756c0-22.162,0.004-44.323-0.006-66.485
		c-0.001-2.326-0.199-4.677,1.518-6.634c1.182-0.821,2.556-0.531,3.86-0.532c20.995-0.018,41.99,0.038,62.985-0.071
		c2.938-0.015,5.255,0.64,6.833,3.131c1.842,2.908,0.579,5.685-2.813,6.267c-1.306,0.224-2.644,0.261-3.955,0.463
		c-1.293,0.2-2.692-0.187-4.536,1.165c-0.82,65.572,0.231,131.644-0.15,197.217c1.277,2.262,2.766,3.12,4.777,3.118
		c1.852-0.001,3.679,0.298,5.365,1.03c2.193,0.952,3.344,2.705,3.187,5.148c-0.154,2.39-1.732,3.483-3.876,3.875
		c-1.463,0.268-2.958,0.508-4.439,0.511c-20.495,0.033-40.99,0.036-61.486,0.013c-5.344-0.006-5.94-0.572-6.668-5.776
		c-0.161-1.149-0.381-2.306-0.382-3.46c-0.022-23.495-0.207-46.992,0.1-70.482c0.091-6.969,0.264-13.934,0.39-20.525
		c-1.09-1.672-2.219-2.613-3.59-3.378c-10.462,0-20.952,0-31.456,0c-1.414,0.62-2.449,1.659-3.569,3.17c0,1.547,0,3.369,0,5.19
		c0,28.66,0,57.32,0,85.98c0,1.166,0.038,2.334-0.01,3.499c-0.183,4.483-1.283,5.752-5.651,5.764
		c-21.328,0.057-42.657,0.031-63.985,0.007c-0.982-0.001-1.97-0.243-2.944-0.428c-1.923-0.366-3.577-1.218-3.881-3.328
		c-0.338-2.344,0.627-4.232,2.704-5.446c1.467-0.857,3.119-1.087,4.777-1.306c5.127-0.676,5.758-1.409,5.789-6.679
		c0.046-7.997,0.106-15.994,0.108-23.991c0.009-53.987,0.007-107.975-0.001-161.962C487.271,82.897,487.444,80.235,486.717,77.378z"
		/>
	<path style="fill:#31455A;" d="M12.045,77.393c-4.484-0.549-9.585,0.091-10.772-6.237c1.115-2.765,3.465-4.034,6.482-4.305
		c1.158-0.104,2.331-0.046,3.497-0.046c36.165-0.002,72.331,0.049,108.496-0.032c10.909-0.025,21.173,2.105,30.297,8.279
		c11.24,7.606,18.03,18.41,21.705,31.292c0.399,1.4,0.277,2.969,0.277,4.46c0.013,43.832-0.128,87.664,0.081,131.495
		c0.081,16.932-7.965,28.357-22.468,35.838c-11.204,5.779-23.235,8.691-35.754,9.945c-5.82,0.583-11.624,0.608-17.444,0.61
		c-27.832,0.009-55.665-0.029-83.497,0.052c-3.029,0.009-5.95-0.596-8.927-0.845c-1.86-0.156-3.585-1.055-3.954-3.211
		c-0.354-2.065,0.846-3.429,2.334-4.644c1.363-1.114,3.064-1.44,4.649-1.667c2.154-0.308,3.733-1.201,5-3.027
		C12.045,209.515,12.045,143.582,12.045,77.393z M74.967,277.746c6.428,0.532,12.15-0.598,17.757-2.014
		c3.998-1.01,7.898-2.636,11.122-5.4c3.945-3.382,6.435-7.454,6.435-12.896c-0.008-57.642,0.033-115.284,0.058-172.926
		c0.003-6.209-1.352-7.586-7.621-7.61c-7.996-0.031-15.993-0.028-23.99,0.014c-1.271,0.007-2.689-0.462-3.761,0.719
		C74.967,144.239,74.967,210.848,74.967,277.746z"/>
	<path style="fill:#34475B;" d="M1160.339,457.174c2.81-0.773,4.87-2.813,7.168-4.397c10.543-7.265,21.523-13.895,31.654-21.762
		c2.509-1.948,4.616-4.18,6.641-6.661c12.86-15.76,26.721-30.576,42.389-43.62c0.51-0.425,1.059-0.806,1.614-1.173
		c4.709-3.11,7.499-2.308,10.288,2.98c-0.297,2.513-2.188,3.994-3.824,5.62c-11.23,11.157-21.942,22.775-31.332,35.549
		c-5.915,8.047-11.237,16.454-15.036,25.747c-0.377,0.921-0.882,1.777-0.757,2.925c1.221,0.941,2.111-0.287,2.97-0.709
		c12.661-6.227,25.3-12.498,37.894-18.857c1.907-0.963,3.596-2.378,5.333-3.656c9.4-6.919,19.198-13.145,30.225-17.182
		c4.247-1.555,8.527-2.432,13.163-1.292c4.587,1.128,8.328,3.191,11.045,7.42c5.09-5.081,10.049-10.19,15.179-15.121
		c11.88-11.417,23.888-22.699,36.414-33.412c1.386-1.185,2.856-2.322,4.437-3.218c2.619-1.485,6.094-0.68,8.092,1.611
		c1.221,1.401,1.643,2.94,0.654,4.568c-0.859,1.412-1.844,2.768-2.921,4.023c-11.605,13.523-23.873,26.39-36.946,38.532
		c-10.315,9.581-18.748,20.681-23.967,33.959c-0.37,0.943-0.77,1.837-0.635,2.872c-0.22,0.196-0.644,0.547-0.63,0.567
		c0.448,0.593,0.771,0.334,1.03-0.196c5.413-1.601,10.251-4.607,15.66-6.273c6.054-1.865,12.331-2.587,18.896-4.144
		c4.501-6.92,10.542-12.807,17.596-17.641c8.973-6.149,18.387-11.242,29.437-12.644c3.572-0.453,7.015-0.003,10.257,1.138
		c9.279,3.266,12.604,11.763,7.876,20.484c-8.207,15.136-23.589,24.35-42.768,18.212c-2.982-0.954-5.952-1.947-8.983-2.94
		c-3.278,2.991-4.589,6.683-5.313,10.603c-0.434,2.351,0.819,4.238,2.54,5.661c2.33,1.927,4.918,3.156,8.096,3.44
		c9.796,0.874,18.921-1.337,27.233-6.247c14.647-8.652,28.19-18.866,40.519-30.611c5.185-4.94,9.872-10.334,13.096-16.85
		c0.727-1.469,1.62-2.916,2.994-3.92c6.131-0.759,11.277,2.464,13.159,8.079c0.841,2.509,0.063,4.541-1.353,6.521
		c-3.289,4.6-6.578,9.199-9.834,13.822c-1.913,2.715-3.756,5.478-4.77,8.692c-0.57,0.662-1.349,1.289-0.267,2.357
		c0.419-0.466,0.813-0.904,1.207-1.342c10.89-10.774,22.637-20.601,34.065-30.779c2.858-2.545,5.778-5.051,9.216-6.781
		c3.89-1.958,7.879-1.83,11.29,0.887c5.642,4.494,6.014,7.892,2.03,12.539c-2.915,3.401-5.496,7.1-8.085,10.766
		c-3.14,4.447-4.616,9.16-0.922,14.856c-6.174-0.945-11.219-2.636-15.431-6.421c-1.927-1.732-2.387-3.821-1.829-6.34
		c0.234-1.054,1.487-1.927,0.512-3.526c-9.8,4.708-18.504,10.781-25.601,19.123c-5.74,6.746-10.582,14.062-14.783,21.846
		c-1.625,3.012-2.833,6.493-6.717,7.784c-4.962-0.453-8.233-3.787-11.338-7.28c-2.317-2.605-1.605-5.562-0.469-8.414
		c2.58-6.475,5.39-12.849,8.609-19.036c1.334-2.564,2.656-5.134,4.082-7.893c-2.163-0.476-2.789,0.918-3.667,1.73
		c-10.133,9.38-20.418,18.58-31.119,27.319c-10.404,8.497-22.348,12.128-35.611,11.812c-6.759-0.161-12.756-2.27-17.196-7.662
		c-4.733-5.749-6.595-12.193-4.427-19.534c0.421-1.427,0.772-2.875,1.155-4.314c0.438-0.331,0.684-0.707,0.105-1.094
		c-0.064-0.043-0.42,0.35-0.641,0.541c-11.429,1.896-20.903,7.205-27.883,16.504c-2.875,3.832-5.217,8.066-7.775,12.133
		c-1.14,1.812-1.994,3.828-3.989,5.367c-3.491,0.871-6.011-1.74-8.876-3.171c-2.247-1.123-4.22-2.681-5.337-5.03
		c-1.052-2.213-0.695-4.499-0.279-6.822c1.144-6.392,3.565-12.379,5.659-18.473c0.51-0.672,1.509-1.273,0.183-2.332
		c-0.374,0.515-0.726,1.001-1.079,1.487c-4.758,4.875-9.45,9.817-14.292,14.608c-6.396,6.328-13.374,11.976-20.872,16.948
		c-6.286,4.169-10.017,4.107-15.812-0.639c-6.133-5.023-10.682-10.99-9.509-19.642c0.472-3.481,2.334-6.413,3.661-9.756
		c-4.188,1.937-7.956,4.403-11.352,7.415c-5.232,4.64-10.276,9.455-14.068,15.426c-1.155,1.819-2.535,3.498-3.851,5.212
		c-4.677,6.09-5.501,6.235-12.262,2.251c-0.715-0.422-1.436-0.837-2.128-1.294c-4.69-3.101-5.9-6.018-4.577-11.457
		c1.927-7.923,4.771-15.511,8.525-22.756c0.592-1.142,1.667-2.136,1.234-3.633c0.222-0.122,0.444-0.244,0.666-0.366
		c-0.133-0.164-0.266-0.328-0.399-0.492c-0.143,0.225-0.285,0.449-0.428,0.674c-5.885,2.897-10.608,7.321-15.379,11.687
		c-7.523,6.886-13.705,14.949-20.112,22.819c-1.677,2.06-3.558,3.954-5.275,5.983c-1.807,2.136-3.989,2.203-6.312,1.202
		c-1.367-0.589-2.648-1.39-3.93-2.159c-6.717-4.031-7.6-6.239-5.991-13.964c1.433-6.884,3.892-13.358,7.305-19.49
		c1.02-1.832,1.962-3.707,3.168-5.996c-1.836-0.199-2.59,0.737-3.443,1.329c-14.118,9.796-25.289,22.509-35.604,36.06
		c-1.633,2.145-3.345,4.141-6.16,5.09c-5.387-0.758-8.999-4.372-12.465-8.255c-1.281-1.436-1.039-3.12-0.939-4.735
		c0.312-5.033,2.198-9.664,3.817-14.366c0.808-2.345,2.213-4.47,2.557-6.981c0.701-0.469,1.082-1.023,0.398-2.028
		c-0.424,0.489-0.791,0.912-1.159,1.336c-6.148,6.536-12.32,13.049-18.436,19.615c-3.868,4.153-8.09,7.926-12.479,11.49
		c-4.911,3.989-8.303,3.975-13.571,0.392c-0.822-0.559-1.598-1.202-2.327-1.879c-7.378-6.859-8.312-10.051-4.664-18.804
		c1.261-3.026,2.537-6.045,3.91-9.312c-4.054-1.878-8.389-1.957-12.522-2.913c-7.802,14.407-20.155,23.784-33.934,31.498
		c-13.388,7.495-27.932,12.178-42.479,16.833c-16.811,5.38-33.918,9.401-51.482,11.198c-10.503,1.074-20.979,1.076-30.521-4.596
		c-9.932-5.904-17.931-13.708-23.35-23.999c-4.339-8.24-1.478-12.929,4.318-17.173c5.984-4.381,12.969-6.636,19.961-8.801
		c2.521-0.781,5.074-1.457,7.328-2.1c10.301-20.974,21.695-40.827,35.939-58.939c1.541-1.959,3.184-3.848,4.895-5.66
		c2.332-2.469,5.076-2.992,8.141-1.361c1.759,0.936,3.574,1.776,5.28,2.799c5.245,3.146,5.75,5.647,1.972,10.387
		c-3.632,4.558-7.182,9.168-10.312,14.088c-0.89,1.399-1.766,2.807-2.781,4.423c2.806,0.963,5.275-0.339,7.735-0.719
		c11.988-1.852,23.802-4.493,35.152-8.881c6.136-2.372,11.639-5.719,15.62-11.14c5.359-7.299,4.62-14.809-2.148-20.89
		c-6.51-5.849-14.47-7.252-22.79-6.596c-16.78,1.323-31.632,8.355-46.084,16.335c-5.952,3.287-11.74,6.871-17.602,10.319
		c-0.65-0.175-1.11-0.548-1.278-1.226c15.281-14.74,33.206-24.727,53.827-29.806c7.609-1.874,15.379-2.838,23.199-2.937
		c11.603-0.147,22.383,2.679,31.817,9.767c2.017,1.515,3.788,3.235,5.195,5.34c4.096,6.131,4.113,11.998,0.076,18.144
		c-3.297,5.019-8.1,8.311-13.048,11.418c-2.079,1.306-4.297,2.392-7.356,4.076c7.17,0.173,13.353,0.621,19.384,2.157
		c7.702,1.962,14.768,5.186,20.343,11.012c5.111,5.342,7.819,11.532,5.717,19.389c4.836,1.487,9.738,2.739,14.588,4.825
		c5.216-8.895,10.325-17.611,15.439-26.324c1.178-2.007,2.241-4.098,3.586-5.988c2.492-3.5,5.9-4.201,9.589-2.068
		c1.725,0.997,3.405,2.112,4.566,3.81c1.824,2.67,2.46,5.388,0.53,8.335c-3.005,4.588-5.893,9.254-8.922,13.826
		c-3.862,5.831-7.505,11.796-10.098,18.296c-1.061,2.661-2.605,5.507-0.855,8.704c3.404-0.021,5.966-1.91,8.441-3.789
		c13.483-10.236,25.372-22.037,34.952-36.06c2.721-3.982,5.295-8.066,8.068-12.011c2.204-3.137,3.643-3.532,7.235-2.148
		c1.535,0.592,3.031,1.38,4.394,2.302c5.274,3.569,5.775,6.317,2.271,11.529c-5.84,8.689-11.846,17.279-16.283,26.82
		c-0.769,1.654-1.477,3.336-2.212,5.005c-0.275,0.39-0.568,0.865-0.134,1.23c0.456,0.384,0.818-0.012,1.086-0.412
		c3.252-0.946,5.944-2.95,8.626-4.856c11.762-8.36,23.429-16.853,35.153-25.267c1.392-0.999,2.36-2.281,3.256-3.7
		c2.301-3.646,4.546-7.337,7.054-10.838c2.483-3.467,5.746-3.736,8.926-0.886c1.091,0.977,1.901,2.284,2.767,3.492
		c2.187,3.055,2.196,5.941-0.151,9.096c-5.349,7.19-10.069,14.791-13.829,22.953c-1.382,3.001-2.925,5.94-3.632,9.208
		c-0.298,0.335-0.616,0.781-0.215,1.115C1159.928,458.046,1160.181,457.587,1160.339,457.174z M909.508,444.329
		c2.443-0.443,4.895-0.849,7.329-1.336c19.253-3.854,38.699-5.898,58.328-6.166c7.948-0.109,15.867-0.918,23.856-0.123
		c5.396,0.537,10.888,0.102,16.353,0.102c2.874-7.276,1.478-11.557-5.256-15.201c-5.329-2.884-11.159-4.174-17.161-4.626
		c-13.831-1.041-27.58,0.092-41.21,2.272c-9.802,1.568-19.649,3.137-29.078,6.488c-1.564,0.556-3.301,0.816-4.233,2.38
		c-3.129,5.251-7.088,10.005-9.419,15.733c-0.422,0.131-0.892,0.379-0.501,0.826C908.869,445.083,909.264,444.715,909.508,444.329z
		 M878.005,466.733c-4.823,1.658-8.407,4.672-11.178,8.66c-3.405,4.901-2.072,9.911,3.344,12.315
		c3.185,1.414,6.598,2.16,10.135,2.366c8.695,0.504,17.238-0.528,25.808-1.897c21.545-3.441,42.585-8.593,62.737-17.132
		c13.214-5.599,25.958-11.941,36.886-21.441c2.172-1.888,4.326-3.793,6.331-6.662c-38.465,0.213-75.596,4.421-111.48,16.669
		c-4.964,9.05-9.801,17.869-14.67,26.745C879.805,481.888,878.891,479.567,878.005,466.733z M1247.353,461.961
		c2.34,0.294,4.222,0.019,6.166-0.628c4.754-1.583,9.197-3.826,13.587-6.169c10.847-5.789,20.281-13.324,27.795-23.123
		c1.364-1.779,2.916-3.604,2.394-6.029c-1.789-1.321-3.362-0.635-4.984-0.283c-9.253,2.004-17.46,6.301-25.199,11.557
		c-6.661,4.523-12.56,9.908-17.133,16.588C1248.431,456.133,1246.457,458.378,1247.353,461.961z M1399.929,424.464
		c-8.613-3.286-27.566,8.02-37.718,20.027C1377.663,452.047,1397.313,443.685,1399.929,424.464z M1430.366,438.641
		c0.115,0.122,0.226,0.239,0.338,0.356c0.113-0.115,0.227-0.23,0.34-0.345c-0.173-0.113-0.345-0.225-0.518-0.338
		C1430.47,438.428,1430.414,438.543,1430.366,438.641z"/>
	<path style="fill:#304559;" d="M415.095,275.538c4.327,5.032,10.247,1.137,15.395,3.111c1.318,2.122,1.372,4.638,0.437,7.176
		c-1.473,1.737-3.301,2.198-5.42,2.195c-21.164-0.033-42.329-0.037-63.493,0.007c-2.13,0.004-3.929-0.577-5.461-1.993
		c-4.386-4.052-7.506-8.455-7.443-15.015c0.243-25.328,0.008-50.661,0.161-75.99c0.039-6.511-1.657-7.777-7.145-9.645
		c-1.716-0.584-3.555-1.087-5.347-1.121c-6.82-0.13-13.644-0.052-20.23-0.052c-1.503,1.467-1.034,3.052-1.035,4.493
		c-0.026,27.497-0.019,54.994-0.018,82.491c0,2.152-0.31,4.411,2.275,6.001c2.976,0,6.277,0,9.659,0
		c2.532,3.003,2.01,6.102,1.027,9.085c-1.31,0.943-2.513,0.597-3.645,0.598c-26.164,0.018-52.328,0.014-78.491,0.011
		c-1.981,0-4.03,0.281-5.684-1.273c-1.547-6.229,0.164-7.923,8.9-8.554c0.703-0.663,1.558-1.441,2.38-2.253
		c0.587-0.58,1.129-1.205,1.479-1.582c0.698-1.767,0.428-3.284,0.428-4.767c0.015-61.327,0.014-122.653,0.014-183.98
		c0-1,0.071-2.007-0.021-2.998c-0.273-2.944-1.767-4.354-4.821-4.584c-2.448-0.185-4.954,0.358-7.51-0.417
		c-0.689-2.608-0.085-5.026,0.045-7.163c1.447-2.451,3.586-1.997,5.538-1.999c13.332-0.018,26.664-0.01,39.996-0.01
		c26.164,0,52.328,0.074,78.491-0.052c6.436-0.031,12.04,1.78,17.208,5.506c6.012,4.335,11.139,9.5,15.239,15.657
		c3.762,5.649,5.68,11.88,6.213,18.687c0.626,7.979,0.816,15.959,1.081,23.949c0.676,20.359-8.714,34.199-26.946,42.498
		c-0.732,0.333-1.474,0.645-2.401,1.05c2.295,2.048,5.121,1.789,7.629,2.322c6.052,1.285,11.935,2.973,17.243,6.226
		c9.26,5.675,13.999,14.255,14.172,24.854c0.339,20.826,0.1,41.66,0.1,62.491C415.095,272.154,415.095,273.812,415.095,275.538z
		 M316.37,76.823c0,31.98,0,63.472,0,95.271c8.887,0,17.505,0.091,26.12-0.046c3.297-0.053,5.715-2.415,6.427-5.92
		c0.327-1.608,0.276-3.307,0.277-4.965c0.016-24.785,0.011-49.571,0.012-74.356c0-0.832,0.055-1.668-0.013-2.494
		c-0.338-4.056-3.274-7.331-7.341-7.428C333.421,76.683,324.982,76.823,316.37,76.823z"/>
	<path style="fill:#304559;" d="M680.199,183.316c0.002-10.327-0.249-20.66,0.057-30.978c0.535-18.032,3.797-35.656,8.946-52.922
		c3.626-12.16,11.43-20.66,22.819-26.263c10.495-5.163,21.583-7.299,33.101-8.235c9.802-0.797,19.606-1.472,29.409-0.75
		c12.442,0.917,24.679,2.746,36.265,7.993c12.577,5.695,21.159,14.689,25.174,27.916c4.356,14.353,7.113,29.006,8.227,43.978
		c1.622,21.794,1.052,43.619,0.724,65.422c-0.212,14.107-1.115,28.241-5.622,41.842c-6.563,19.806-20.403,31.325-40.519,35.671
		c-6.515,1.407-13.161,2.081-19.812,2.134c-11.989,0.097-23.987,0.11-35.97-0.238c-8.142-0.237-16.281-1.246-24.008-4.011
		c-18.223-6.52-30.085-18.96-34.648-37.997c-2.488-10.382-3.774-20.946-4.078-31.583
		C679.959,204.644,680.197,193.977,680.199,183.316z M741.037,179.002c-0.003,0-0.007,0-0.01,0c0,9.498,0.001,18.996,0,28.495
		c-0.003,20.829,0.052,41.659-0.046,62.488c-0.033,6.973,0.813,9.042,7.433,11.056c9.431,2.87,18.978,2.782,28.34-0.7
		c4.451-1.656,6.314-4.875,6.309-9.629c-0.068-59.489-0.07-118.977-0.053-178.466c0.001-3.013-0.221-5.98-0.737-8.939
		c-1.134-6.507-5.176-10.842-11.505-12.249c-1.458-0.324-2.931-0.67-4.414-0.779c-4.669-0.343-9.308-0.095-13.821,1.272
		c-7.701,2.333-11.463,7.285-11.475,15.468C741.01,117.679,741.037,148.341,741.037,179.002z"/>
	<path style="fill:#31455A;" d="M1356.003,276.574c0-66.37,0-132.495,0-198.57c-1.831-1.306-3.638-1.872-5.703-2.005
		c-3.875-0.249-4.728-0.941-5.031-3.486c-0.328-2.759,1.673-5.543,4.582-6.279c0.632-0.16,1.322-0.119,1.985-0.119
		c25.666-0.005,51.333-0.029,76.999,0.017c4.484,0.008,6.591,2.935,5.087,6.837c-0.704,1.826-2.133,2.729-4.088,3.263
		c-2.172,0.593-4.79-0.008-6.83,2.571c17.059,41.566,34.221,83.38,51.382,125.195c1.627-3.937,1.372-7.857,1.39-11.675
		c0.17-36.166,0.182-72.332,0.238-108.498c0.001-0.667,0.032-1.336-0.02-1.999c-0.289-3.684-1.1-4.504-4.825-4.93
		c-3.833-0.439-4.701-1.139-5.129-4.139c-0.646-4.526,1.028-6.589,5.647-6.627c8.499-0.07,17,0.001,25.5-0.039
		c1.536-0.007,2.962,0.18,4.309,0.955c1.892,1.088,2.983,2.557,2.76,4.869c-0.225,2.33-1.634,3.407-3.689,4.167
		c-2.479,0.917-5.356,0.165-8.109,2.113c0,69.871,0,139.944,0,210.258c-16.939,0-33.374,0-50.089,0
		c-22.861-57.531-45.688-114.979-68.516-172.426c-0.833,53.505-1.186,106.792-0.984,159.419c2.715,2.823,5.596,2.257,7.871,2.791
		c1.363,0.755,1.745,1.913,2.034,3.012c1.169,4.448-0.758,7.204-5.325,7.411c-3.659,0.166-7.332,0.036-10.998,0.036
		c-4.5,0.001-9-0.04-13.5,0.02c-1.863,0.025-3.691-0.113-5.357-0.93c-1.878-0.921-3.34-2.316-3.246-4.615
		c0.101-2.479,1.555-3.833,3.898-4.549c1.48-0.452,2.946-0.473,4.436-0.529C1353.898,278.049,1354.95,277.65,1356.003,276.574z"/>
	<path style="fill:#34475B;" d="M489.715,435.328c-13.024,5.129-22.497,14.505-30.589,25.544c-3.743,5.107-6.747,10.654-9.83,16.165
		c-4.082,7.299-6.802,7.78-13.213,2.588c-0.646-0.523-1.268-1.077-1.909-1.608c-3.52-2.915-4.276-6.406-2.501-10.636
		c3.02-7.196,6.053-14.38,9.793-21.242c0.996-1.827,1.927-3.69,2.866-5.495c-1.698-1.016-2.213,0.119-2.852,0.725
		c-9.547,9.046-19.478,17.65-29.451,26.223c-11.723,10.078-25.055,14.306-40.47,13.512c-13.654-0.703-22.913-15.864-19.528-25.475
		c0.568-1.613,1.512-3.342,0.982-5.905c-8.252,1.973-15.418,5.593-21.122,11.878c-5.556,6.121-7.985,14.082-11.845,20.997
		c-10.084,1.039-17.19-6.465-15.298-15.782c1.936-9.53,5.945-18.262,10.292-26.866c0.575-1.138,1.732-2.069,1.305-3.589
		c-1.335-0.803-2.472-0.156-3.745,0.325c-4.914,1.859-9.108,4.835-12.926,8.324c-10.667,9.748-19.609,20.776-25.175,34.299
		c-1.748,4.246-4.223,5.082-8.267,2.988c-2.375-1.23-4.495-2.854-6.247-4.91c-1.927-2.261-2.684-4.691-2.159-7.791
		c1.719-10.142,5.882-19.314,10.618-28.299c0.752-1.426,2.185-2.577,1.901-4.672c-1.876-0.955-3.341,0.291-4.873,1.067
		c-8.176,4.141-14.659,10.306-20.414,17.288c-5.941,7.208-10.859,15.088-15.136,23.391c-1.03,2-1.716,4.445-4.321,5.21
		c-2.921-0.061-5.566-1.06-7.802-2.831c-4.187-3.316-6.523-7.257-4.939-13.023c2.949-10.733,8.4-20.178,14.356-29.398
		c3.617-5.599,7.991-10.634,12.11-15.857c0.72-0.913,1.463-1.814,2.12-2.772c4.019-5.861,3.811-7.704-1.332-12.04
		c0.181-1.628,1.42-1.65,2.561-1.498c5.022,0.668,8.382,4.281,8.662,9.399c0.335,6.119-1.332,11.867-3.869,17.317
		c-2.028,4.355-4.532,8.488-6.781,12.743c-0.694,1.313-1.244,2.702-1.859,4.056c-0.512,0.671-1.5,1.271-0.199,2.326
		c0.378-0.511,0.736-0.996,1.093-1.481c11.819-11.251,24.043-22.042,36.797-32.225c2.597-2.074,5.171-4.209,8.148-5.75
		c4.393-2.273,8.305-1.721,11.912,1.641c3.171,2.956,3.719,5.956,1.441,9.857c-3.353,5.743-6.942,11.349-10.315,17.081
		c-1.631,2.773-3.203,5.63-3.553,9.584c3.461-2.223,5.579-5.003,8.09-7.306c10.8-9.908,21.918-19.44,33.494-28.424
		c7.036-5.461,13.526-3.79,17.337,4.249c0.352,0.743,0.565,1.553,1.029,2.855c-6.066,10.145-13.065,20.197-17.32,32.694
		c5.683-2.635,10.23-5.281,15.275-6.896c5.082-1.627,10.37-2.283,15.556-3.797c9.027-13.905,22.189-22.564,37.179-28.891
		c5.707-2.409,11.734-2.945,17.639-1.969c9.127,1.507,16.384,9.387,11.241,20.76c-4.746,10.495-19.343,21.822-31.667,20.731
		c-5.318-0.471-10.51-1.414-15.526-3.308c-1.528-0.577-2.986-1.496-5.013-1.431c-3.251,2.698-4.601,6.594-5.216,10.704
		c-0.409,2.737,1.421,4.659,3.536,6.177c4.509,3.237,9.723,3.405,14.85,2.774c7.636-0.94,14.859-3.344,21.463-7.47
		c13.728-8.576,26.665-18.222,38.415-29.333c5.164-4.883,9.88-10.302,13.144-16.832c2.634-5.271,5.42-5.906,10.523-3.012
		c1.614,0.915,2.974,2.136,4.053,3.647c2.558,3.583,2.632,6.377,0.121,10.052c-4.034,5.904-8.152,11.751-12.202,17.645
		c-0.988,1.438-2.043,2.898-2.009,4.983c2.382,0.186,3.162-1.526,4.237-2.588c10.67-10.536,22.238-20.064,33.521-29.91
		c1.865-1.628,3.963-3.071,6.148-4.233c4.927-2.62,10.372-1.366,13.826,2.935c2.91,3.624,3.01,6.092,0.216,9.903
		c-1.573,2.146-3.344,4.145-4.971,6.253c-1.016,1.316-1.934,2.709-2.888,4.072c-3.268,4.671-6.164,9.382-0.436,15.357
		c-6.634-0.851-11.573-2.904-15.905-6.442c-2.875-2.348-1.927-5.378-1.38-8.319c0.412-0.278,0.752-0.669,0.405-1.12
		C490.562,434.757,490.101,435.071,489.715,435.328z M374.851,446.136c14.589,7.478,34.766-0.008,37.821-19.648
		c-2.712-2.683-5.703-0.812-8.362-0.074c-8.161,2.267-15.026,6.959-21.386,12.404C380.195,441.154,377.089,443.122,374.851,446.136z
		 M457.314,450.644c0.134,0.134,0.245,0.245,0.356,0.356c0.111-0.222,0.26-0.436,0.313-0.671c0.018-0.082-0.202-0.218-0.313-0.329
		C457.55,450.217,457.43,450.435,457.314,450.644z M283.499,451.178c-0.06,0.113-0.193,0.249-0.165,0.332
		c0.047,0.14,0.248,0.366,0.293,0.347c0.412-0.181,0.481-0.432,0.199-0.656C283.755,451.144,283.61,451.182,283.499,451.178z"/>
	<path style="fill:#34475B;" d="M533.627,458.664c6.817-2.9,12.325-7.823,18.307-11.989c7.507-5.228,15.054-10.376,23.011-14.892
		c4.794-2.721,8.897-6.421,13.55-9.337c7.923-4.965,16.097-9.341,25.509-10.738c3.965-0.589,7.559,0.385,10.595,3.072
		c3.531,3.125,3.565,5.299-0.305,7.929c-4.292,2.917-8.156,6.255-11.817,10.633c-0.827-3.899,2.6-5.91,2.719-8.919
		c-1.12-0.866-2.184-0.35-3.285,0.055c-15.717,5.784-26.857,16.218-32.617,32.106c-1.987,5.481,0.362,9.031,6.311,9.457
		c7.339,0.526,14.129-1.871,20.796-4.412c8.846-3.37,16.234-9.027,22.832-15.726c10.116-10.271,21.401-18.987,34.317-25.432
		c7.716-3.85,15.604-7.374,24.167-9.02c4.574-0.879,8.921-0.354,12.983,2.038c5.761,3.393,7.093,7.514,4.424,13.731
		c4.119,4.77,4.096,4.997,1.181,10.333c-2.38,4.357-5.282,8.442-7.077,13.107c1.289,1.227,2.218,0.073,3.159-0.329
		c8.933-3.823,18.37-5.679,27.899-7.134c2.861-0.437,5.649-0.148,7.637,2.585c-1.044,1.871-2.874,1.955-4.673,2.293
		c-5.375,1.012-10.74,2.006-15.88,4.053c-10.866,4.328-18.039,12.141-22.244,22.883c-0.725,1.852-1.292,3.768-2.049,5.606
		c-1.269,3.078-2.869,4.037-5.81,3.018c-3.792-1.314-7.254-3.315-10.117-6.213c-2.269-2.298-2.207-5.095-1.552-7.935
		c1.161-5.03,3.24-9.747,5.061-14.554c0.695-1.834,1.906-3.533,1.77-5.636c0.484-0.162,0.859-0.587,0.438-0.925
		c-0.495-0.398-0.627,0.206-0.723,0.603c-2.648,1.769-4.519,4.331-6.68,6.591c-8.396,8.779-16.992,17.34-26.818,24.552
		c-6.825,5.01-9.737,4.959-16.576,0.2c-4.888-3.401-8.428-7.814-10.463-13.433c-1.997,0.514-2.901,2.044-4.112,3.097
		c-7.487,6.514-16.1,10.799-25.953,11.591c-13.166,1.058-23.182-3.805-28.222-16.477c-1.634-4.108-1.84-8.44-0.543-12.705
		c0.818-2.688,1.941-5.284,2.926-7.921c0.297-0.45,0.899-0.917,0.126-1.384c-0.136-0.082-0.619,0.409-0.942,0.635
		c-2.765,1.247-4.908,3.351-7.217,5.229c-9.471,7.708-17.471,16.792-24.933,26.403c-2.426,3.125-4.612,6.55-8.821,8.683
		c-4.802-1.042-9.042-3.715-12.618-7.56c-1.246-1.34-1.207-3.041-1.133-4.714c0.27-6.062,2.052-11.805,4.521-17.22
		c6.35-13.929,14.735-26.724,22.94-39.594c2.563-4.02,5.984-4.266,9.684-1.166c1.008,0.845,1.946,1.858,2.65,2.963
		c1.904,2.989,2.484,5.917,0.041,9.127c-5.953,7.819-10.666,16.387-14.566,25.399c-0.919,2.122-1.699,4.304-2.544,6.459
		c-0.445,0.252-0.739,0.659-0.41,1.091C532.84,459.289,533.268,458.922,533.627,458.664z M689.372,427.43
		c-2.252-0.773-4.118-0.245-6.059,0.292c-7.105,1.965-13.598,5.285-19.776,9.158c-9.078,5.693-17.12,12.576-22.924,21.763
		c-1.042,1.649-2.329,3.283-0.981,5.39c2.097,0.491,3.969,0.008,5.896-0.593c4.445-1.387,8.663-3.303,12.79-5.398
		c10.947-5.56,20.453-12.953,27.992-22.713C688.006,433.133,689.966,430.935,689.372,427.43z"/>
	<path style="fill:#35485C;" d="M808.006,425.353c-1.09,2.284-3.039,3.267-5.47,3.754c-5.853,1.172-11.657,2.596-17.523,3.694
		c-7.026,1.314-13.201,4.273-18.835,8.973c0.794,2.489,2.895,2.87,5.003,3.289c5.72,1.138,11.529,1.501,17.321,1.985
		c2.503,0.209,4.965,0.505,7.295,1.456c2.382,0.973,4.411,2.354,5.136,5.134c-0.576,2.874-3.059,3.59-5.352,4.546
		c-14.125,5.894-27.59,13.088-40.794,20.789c-1.148,0.67-2.311,1.341-3.356,2.155c-1.621,1.263-3.26,2.561-5.409,1.551
		c-2.711-1.273-5.536-2.616-6.753-5.592c-0.843-2.062-0.077-3.876,1.82-5.197c2.598-1.809,5.293-3.448,8.161-4.779
		c10.236-4.749,20.43-9.597,31.09-13.361c0.924-0.326,1.795-0.799,2.959-1.326c-2.93-1.56-5.896-1.283-8.76-1.385
		c-4.16-0.149-8.329-0.029-12.49-0.164c-3.343-0.108-6.665-0.63-9.529-2.489c-3.969-2.577-6.387-6.855-1.122-11.38
		c4.461-3.834,9.556-6.599,14.901-8.926c9.321-4.057,19.034-6.845,29.018-8.698c1.465-0.272,2.98-0.366,4.473-0.37
		C804.323,419,806.351,420.592,808.006,425.353z"/>
	<path style="fill:#34475B;" d="M446.232,156.999c9.06,0.083,16.795,7.205,16.56,15.8c-0.241,8.821-6.637,15.687-16.622,15.756
		c-10.984,0.075-16.824-8.23-16.838-16.068C429.316,163.956,437.159,156.915,446.232,156.999z"/>
	<path style="fill:#34475B;" d="M212.004,157c9.128-0.061,17.07,6.973,16.895,15.473c-0.193,9.387-7.048,16.119-16.812,16.076
		c-9.595-0.042-16.228-6.573-16.642-15.745C195.067,164.397,202.947,157.06,212.004,157z"/>
	<path style="fill:#35485C;" d="M723.018,418.812c0.442-1.991,1.974-2.808,3.304-3.75c6.356-4.501,11.21-10.296,15.026-17.044
		c1.305-2.307,2.715-4.586,4.337-6.675c3.283-4.227,7.544-7.005,12.973-7.545c6.257-0.623,9.682,4.043,7.349,9.854
		c-0.632,1.573-1.635,2.87-2.852,4.034c-10.079,9.649-21.789,16.782-34.523,22.309C726.566,420.892,724.189,422.105,723.018,418.812
		z"/>
	<path style="fill:#35485C;" d="M580.49,390.01c-4.625,4.919-9.425,9.216-15.126,12.313c-3.205,1.741-5.622-0.716-7.927-2.601
		c-2.225-1.819-1.883-4.155-0.858-6.343c1.492-3.188,3.755-5.868,6.265-8.32c5.237-5.114,11.736-4.453,15.928,1.634
		C579.328,387.502,579.689,388.446,580.49,390.01z"/>
	<path style="fill:#35485C;" d="M1207.526,387.634c-0.181,0.916-0.622,1.997-1.571,2.759c-3.632,2.917-7.248,5.856-10.941,8.694
		c-2.686,2.064-5.453,2.037-8.296,0.104c-3.51-2.388-4.27-4.75-2.262-8.452c1.595-2.94,3.881-5.368,6.106-7.863
		c5.277-5.917,10.175-4.103,15.32,0.965C1206.803,384.748,1207.535,385.951,1207.526,387.634z"/>
	<path style="fill:#485568;" d="M896.119,392.9c0.168,0.678,0.629,1.051,1.278,1.226c-0.763,1.063-1.769,1.767-3.051,2.063
		c-0.271-0.261-0.541-0.522-0.812-0.783C894.259,394.429,894.914,393.382,896.119,392.9z"/>
	<path style="fill:#485568;" d="M894.346,396.189c-0.547,0.771-1.17,1.331-2.191,0.797l0.02,0.018
		c0.031-0.892,0.801-1.155,1.359-1.598C893.805,395.667,894.075,395.928,894.346,396.189z"/>
	<path style="fill:#485568;" d="M892.155,396.987c0.226,0.364,0.2,0.698-0.138,0.794c-0.159,0.045-0.398-0.194-0.601-0.304
		c0.253-0.158,0.506-0.315,0.759-0.473L892.155,396.987z"/>
</g>
</svg>
