<?xml version="1.0" encoding="iso-8859-1"?>
<!-- Generator: Adobe Illustrator 27.0.0, SVG Export Plug-In . SVG Version: 6.00 Build 0)  -->
<svg version="1.1" id="Layer_1" xmlns="http://www.w3.org/2000/svg" xmlns:xlink="http://www.w3.org/1999/xlink" x="0px" y="0px"
	 viewBox="0 0 236.138 236.371" style="enable-background:new 0 0 236.138 236.371;" xml:space="preserve">
<g>
	<path style="fill:#E2DBDA;" d="M37.085,33.86c-0.042-1.154,0.512-1.726,1.669-1.708c2.136,0.133,3.378-0.721,3.319-3.009
		l-0.006,0.01c0.66-0.013,1.009-0.338,1.011-1.01l-0.009,0.006c3.427-0.486,6.795-3.014,8.004-6.007l-0.003,0.006
		c1.493,0.067,3.187,0.437,3.002-2.006l-0.001,0.004c2.37,0.166,4.424-0.194,5.006-3.006l-0.009,0.011
		c0.821-0.051,1.788,0.163,2.441-0.195c6.68-3.66,13.696-6.521,20.875-9.02c0.76-0.265,0.633-1.074,0.666-1.725
		c1.345-0.013,2.691-0.027,4.036-0.04c2.456-0.354,4.974-0.493,7.09-2.033c0.602,0.011,1.205,0.023,1.807,0.034
		c4.865,0.098,9.521-1.756,14.995-0.898c-1.203-1.361-2.597-0.739-2.882-1.996c1.28-1.72,2.616-1.649,3.997-0.125
		c3.156,1.45,8.847,1.452,12.032,0.004c0.342,0.021,0.685,0.042,1.027,0.063c-0.017,1.131,0.352,1.886,1.66,1.899
		c3.597,0.034,7.208-0.11,10.713,1.003c0.69,0.219,1.247-0.201,1.506-0.91c1.877-0.5,3.56,0.485,5.069,1.15
		c1.729,0.762,3.05,0.2,4.731-0.306c1.236,1.016,2.285,2.71,4.331,2.17c0.063,0.583,0.405,0.88,0.971,0.947l-0.047-0.041
		c3.179,2.711,6.867,4.025,11.035,4.021l-0.018-0.015c3.304,3.407,7.366,5.298,12.017,6.011l-0.006-0.009
		c-0.029,2.823,1.793,3.176,4.008,3.004l-0.009-0.004c0.666,2.005,2.231,2.222,4.008,2.015l-0.012-0.016
		c0.051,2.716,1.741,3.247,4.009,3.008l-0.003-0.005c-0.196,1.533,0.528,2.144,2.005,2.001l-0.037-0.013
		c0.065,0.635,0.436,0.964,1.05,1.049l-0.054-0.048c0.298,1.11,1.158,1.112,2.054,1.041l-0.043-0.042
		c-0.034,2.063,1.068,2.99,3.044,3.04l0-0.016c1.11,3.547,3.454,5.861,6.985,6.99l-0.011-0.007c0.183,2.494,1.463,3.891,4.016,4.016
		l-0.012-0.01c-0.085,0.878-0.218,1.781,1.008,1.996l0.009,0.007c-0.047,2.112,1.262,3.209,2.99,3.992l0.01,0.008
		c0.514,2.318,1.275,4.44,3.992,4.999l-0.001,0.003c-0.08,1.497-0.47,3.202,2.001,2.997l0,0.005
		c0.045,0.815-0.163,1.759,0.174,2.427c4.657,9.224,9.599,18.322,11.838,28.55c0.228,1.042,1.126,1.04,1.963,1.055
		c-0.288,1.772,0.478,3.312,1.393,4.65c0.9,1.315,0.147,2.155-0.349,3.159c-0.643,2.363,0.263,4.756-0.141,7.124
		c-0.84,0.104-1.767,0.246-1.849,1.268c-0.118,1.486,0.01,2.99-0.061,4.482c-0.403,8.571,0.771,17.168-0.929,25.736
		c-1.304,6.57-2.373,13.217-4.656,19.496c-3.883,10.681-8.944,20.742-15.663,30.06c-5.783,8.02-12.671,14.77-20.38,20.734
		c-1.56,1.207-2.754,3.502-5.296,3.301c-1.55,0.285-2.672-1.444-4.424-0.846c-2.684,3.271-6.971,4.337-10.452,6.665
		c-0.569,0.381-1.616,0.046-2.442,0.043c1.874-1.262,3.727-2.556,5.626-3.78c8.073-5.201,15.796-10.889,22.642-17.623
		c8.691-8.549,15.044-18.811,20.684-29.536c0.235-0.18,0.359-0.418,0.372-0.714c0.144-0.38,0.288-0.759,0.432-1.139
		c0.394-0.166,0.787-0.333,1.181-0.499c-0.192-0.189-0.384-0.379-0.575-0.568c-0.041-1.18,0.615-2.085,1.194-3.021
		c0.815-0.395,0.779-1.133,0.754-1.867c0.094-0.354,0.189-0.708,0.283-1.062c2.27-1.282,4.438-2.752,5.268-5.354
		c2.124-6.663,3.828-13.485,4.278-20.442c0.458-7.07,0.079-14.194,0.066-21.294c0.476-1.907-0.847-3.47-0.979-5.3
		c-0.84-11.635-4.599-22.518-9.72-32.81c-6.186-12.43-14.417-23.412-24.693-32.976c-11.44-10.647-24.38-18.51-39.051-23.603
		c-12.364-4.292-25.078-6.655-38.234-6.273c-3.627,0.105-7.209,0.477-10.818,0.852c-11.386,1.183-22.33,3.621-32.459,9.13
		C56.765,23.18,44.212,34.229,33.095,47.191c-1.897,0.642-2.104,2.566-3.006,3.962c-6.017,5.578-9.073,13.091-12.844,20.086
		c-2.15,3.987-3.501,8.42-5.062,12.706c-1.788,4.911-2.976,9.969-3.083,15.234c-1.884,1.362-0.597,3.351-0.989,5.008
		c-0.661,0.294-1.003,0.792-1.002,1.525c0.005,7.44-0.065,14.881,0.063,22.318c0.031,1.798,0.465,3.703,1.906,5.01
		c1.038-0.516,0.962-1.215,1.024-1.856l0.409,0.017l0.409-0.01c2.699,18.59,9.344,35.62,20.165,50.998
		c-0.036,0.34-0.072,0.681-0.108,1.021c-1.659-0.004-3.317-0.008-4.976-0.011c-1.854-1.828-3.588-3.75-4.902-6.021
		c-3.05-5.271-5.924-10.601-8.163-16.306c-4.096-10.439-6.979-21.213-7.651-32.337c-0.464-7.693-0.457-15.458,0.59-23.267
		c1.184-8.83,2.873-17.4,6.016-25.711c0.518-1.37,0.884-2.815,1.159-4.256c0.274-1.437-0.441-2.194-1.935-2.142
		c-0.008-1.01-0.016-2.019-0.024-3.029l-0.036,0.047c2.437-1.3,3.261-3.41,3.04-6.047l-0.038,0.052
		c1.275-0.216,1.136-1.143,1.032-2.052l-0.035,0.036c2.447,0.174,2.045-1.564,2.039-3.037l-0.024,0.014
		c2.575-1.169,3.601-3.369,3.987-5.993l0.016-0.015c2.163-0.964,3.445-2.458,3.002-4.99l-0.007,0.005
		c2.116,0.114,3.045-0.956,2.992-3.003l0.011-0.009c1.229-0.213,1.113-1.102,0.999-1.99l-0.001-0.003
		c3.916-1.417,6.492-4.174,7.997-8.001l0.006,0C36.843,35.059,37.108,34.574,37.085,33.86z"/>
	<path style="fill:#BCBCBB;" d="M184.17,209.191c2.541,0.201,3.735-2.094,5.296-3.301c7.709-5.964,14.597-12.714,20.38-20.734
		c6.719-9.318,11.78-19.379,15.663-30.06c2.283-6.28,3.352-12.926,4.656-19.496c1.7-8.568,0.526-17.165,0.929-25.736
		c0.07-1.492-0.058-2.996,0.061-4.482c0.081-1.021,1.009-1.163,1.849-1.268c1.175,1.57,1.082,3.389,1.093,5.216
		c0.066,10.506,0.508,21.029-2.05,31.424c0.907,0.153,1.381,0.232,1.854,0.312c0.474,1.29-0.465,2.166-0.93,3.182
		c-0.868-0.007-1.592,0.114-1.843,1.175c-2.473,10.429-6.503,20.256-11.502,29.71c-0.838,1.585-1.952,3.113-1.491,5.09l0.025-0.011
		c-0.865-0.092-1.515,0.088-2.067,0.915c-2.267,3.395-4.499,6.824-7.266,9.849c-0.894,0.977-0.795,2.099-0.693,3.253l0.029-0.018
		c-3.513,1.256-12.737,10.48-14.026,14.025l0.014-0.025c-3.486,0.241-4.076,0.713-5.012,4.022l0.009-0.02
		c-2.293-0.261-4.056,0.182-4.011,3.024l0.014-0.026c-1.794-0.444-3.333,0.36-4.651,1.303c-6.498,4.647-13.683,7.986-21.062,10.852
		c-5.331,2.071-10.829,3.76-16.487,4.824c-4.844,0.911-9.725,1.489-14.611,2.121c-7.764,1.004-15.423,1.455-23.133-0.117
		c-0.82-0.167-1.673-0.093-2.043,0.906c-0.383-0.023-0.767-0.046-1.15-0.069c0.14-1.67-0.904-1.928-2.216-1.846
		c-3.346,0.209-6.526-0.765-9.691-1.554c-9.941-2.476-19.401-6.228-28.386-11.172c-1.434-0.789-2.885-1.708-4.676-1.248l0.015,0.026
		c-0.864-3.044-3.023-4.154-6.011-4.024l0.009,0.02c0.205-1.545-0.491-2.189-2.01-2.01l0.009,0.003
		c-3.422-4.313-7.985-7.377-12.057-10.978c-0.182-0.161-0.629-0.023-0.953-0.024l0.004-0.003c-0.024-0.643-0.358-0.976-1.001-1.001
		l0.001,0.001c-0.026-0.642-0.358-0.977-1.001-1.001l0.001,0.001c-0.025-0.643-0.357-0.978-1.001-1.001l0.001,0.001
		c-0.024-0.643-0.358-0.978-1.001-1.007l0.002,0.008c-0.98-2.575-5.096-7.881-7.039-8.992c-0.247-0.141-0.646-0.017-0.974-0.015
		l0.018,0.008c0.269-2.301-0.185-4.056-3.025-4.012l0.029,0.017c0.38-2.161-0.788-3.766-1.853-5.46
		c-1.749-2.782-3.547-5.555-5.017-8.485c-3.983-7.935-6.988-16.253-9.023-24.897c-0.297-1.261-0.376-2.292-1.983-2.157
		c-0.008-0.373-0.015-0.745-0.023-1.118c1.485-0.667,1.024-1.965,0.793-2.992c-1.218-5.42-1.981-10.875-1.879-16.447
		c0.073-3.951,0.024-7.905,0.003-11.857c-0.005-0.931,0.344-2.024-0.88-2.55c-0.934-4.156,1.084-8.07,1-12.156
		c1.605,0.121,1.709-0.883,1.933-2.169c1.32-7.574,3.763-14.805,6.983-21.779c1.494-0.053,2.209,0.705,1.935,2.142
		c-0.275,1.441-0.641,2.885-1.159,4.256c-3.142,8.311-4.832,16.881-6.016,25.711c-1.047,7.809-1.054,15.574-0.59,23.267
		c0.671,11.124,3.554,21.898,7.651,32.337c2.239,5.706,5.113,11.036,8.163,16.306c1.314,2.271,3.048,4.193,4.902,6.021
		c1.691,3.809,4.098,7.193,6.892,10.197C43.308,204.597,55,214.053,68.974,220.701c15.418,7.334,31.627,10.706,48.53,11.436
		c4.305,0.186,8.535-0.426,12.801-0.892c7.203-0.787,14.373-1.944,21.122-4.397c8.448-3.071,16.932-6.303,24.687-10.906
		C179.046,214.202,182.575,212.72,184.17,209.191z"/>
	<path style="fill:#999999;" d="M103.162,235.099c0.371-0.999,1.223-1.073,2.043-0.906c7.709,1.572,15.369,1.121,23.133,0.117
		c4.885-0.632,9.766-1.21,14.611-2.121c5.658-1.064,11.156-2.753,16.487-4.824c7.379-2.866,14.563-6.204,21.062-10.852
		c1.319-0.943,2.857-1.747,4.651-1.303c-2.201,3.422-6.057,4.547-9.29,6.422c-13.033,7.557-27.19,12.094-42.036,14.261
		c-5.231,0.764-10.636,0.367-15.963,0.43c-3.329,0.04-6.66-0.051-9.99-0.081C106.21,236.228,104.524,236.331,103.162,235.099z"/>
	<path style="fill:#999999;" d="M57.043,219.21c1.791-0.46,3.242,0.459,4.676,1.248c8.985,4.944,18.445,8.696,28.386,11.172
		c3.165,0.788,6.345,1.763,9.691,1.554c1.312-0.082,2.356,0.176,2.216,1.846c-5.094,0.961-9.864-0.975-14.567-2.16
		c-10.433-2.629-20.222-7.073-29.523-12.517C57.537,220.128,57.332,219.598,57.043,219.21z"/>
	<path style="fill:#999999;" d="M3.184,144.228c1.606-0.135,1.686,0.896,1.983,2.157c2.035,8.644,5.04,16.962,9.023,24.897
		c1.471,2.93,3.269,5.703,5.017,8.485c1.065,1.694,2.233,3.299,1.853,5.46c-4.503-4.721-7.172-10.576-9.945-16.337
		c-3.139-6.521-5.396-13.379-7.458-20.314C3.211,147.08,3.21,145.69,3.184,144.228z"/>
	<path style="fill:#999999;" d="M233.901,141.066c-0.474-0.08-0.948-0.159-1.854-0.312c2.558-10.395,2.115-20.918,2.05-31.424
		c-0.011-1.827,0.082-3.646-1.093-5.216c0.405-2.368-0.502-4.761,0.141-7.124c2.115,4.305,2.389,9.077,2.694,13.652
		C236.518,120.825,236.113,131.026,233.901,141.066z"/>
	<path style="fill:#999999;" d="M218.134,180.223c-0.461-1.976,0.653-3.504,1.491-5.09c4.999-9.454,9.03-19.281,11.502-29.71
		c0.252-1.061,0.975-1.183,1.843-1.175c-0.587,6.45-3.043,12.407-5.323,18.327c-2.12,5.506-5.147,10.664-7.812,15.956
		C219.476,179.248,219.008,179.969,218.134,180.223z"/>
	<path style="fill:#999999;" d="M1.198,109.264c1.224,0.527,0.875,1.619,0.88,2.55c0.022,3.952,0.07,7.906-0.003,11.857
		c-0.102,5.572,0.661,11.027,1.879,16.447c0.231,1.027,0.692,2.325-0.793,2.992c-1.283-1.25-1.376-3.029-1.651-4.566
		c-1.604-8.959-1.698-18.02-1.337-27.086C0.203,110.714,0.842,109.995,1.198,109.264z"/>
	<path style="fill:#B9ADAD;" d="M232.1,89.182c-0.837-0.015-1.735-0.013-1.963-1.055c-2.239-10.228-7.181-19.326-11.838-28.55
		c-0.337-0.668-0.129-1.612-0.174-2.427c0.499,0.399,1.183,0.695,1.471,1.211c5.199,9.334,9.634,18.998,12.46,29.34
		C232.182,88.164,232.09,88.687,232.1,89.182z"/>
	<path style="fill:#B9ADAD;" d="M83.05,6.212c-0.033,0.652,0.093,1.461-0.666,1.725c-7.179,2.499-14.194,5.36-20.875,9.02
		c-0.653,0.358-1.62,0.143-2.441,0.195c1.151-2.336,3.651-2.714,5.643-3.744C70.567,10.38,76.609,7.773,83.05,6.212z"/>
	<path style="fill:#999999;" d="M11.114,73.159c-3.22,6.974-5.663,14.205-6.983,21.779c-0.224,1.286-0.328,2.29-1.933,2.169
		c1.64-9.429,3.956-18.635,8.892-26.977C11.098,71.14,11.106,72.149,11.114,73.159z"/>
	<path style="fill:#999999;" d="M194.136,208.236c1.288-3.546,10.512-12.77,14.026-14.025c-1.786,4.265-5.629,6.762-8.692,9.899
		C197.928,205.687,196.735,207.942,194.136,208.236z"/>
	<path style="fill:#999999;" d="M36.045,202.224c0.324,0.001,0.77-0.137,0.953,0.024c4.071,3.602,8.635,6.665,12.057,10.978
		c-2.966,0.639-4.398-1.939-6.101-3.358C40.344,207.695,36.867,206.083,36.045,202.224z"/>
	<path style="fill:#999999;" d="M208.133,194.229c-0.102-1.154-0.201-2.276,0.693-3.253c2.767-3.024,4.999-6.454,7.266-9.849
		c0.552-0.827,1.203-1.008,2.067-0.915C215.993,185.725,212.491,190.283,208.133,194.229z"/>
	<path style="fill:#B9ADAD;" d="M108.096,1.279c0.285,1.258,1.679,0.635,2.882,1.996c-5.474-0.858-10.13,0.996-14.995,0.898
		c2.093-3.352,5.843-1.837,8.721-2.903C105.698,0.903,106.958,1.256,108.096,1.279z"/>
	<path style="fill:#B9ADAD;" d="M139.033,3.213c-0.259,0.709-0.816,1.129-1.506,0.91c-3.505-1.113-7.116-0.969-10.713-1.003
		c-1.308-0.012-1.677-0.767-1.66-1.899C129.799,1.751,134.59,1.267,139.033,3.213z"/>
	<path style="fill:#999999;" d="M24.036,189.214c0.328-0.002,0.727-0.126,0.974,0.015c1.942,1.111,6.059,6.417,7.039,8.992
		C27.811,196.613,26.072,192.781,24.036,189.214z"/>
	<path style="fill:#B9ADAD;" d="M177.122,17.15c-4.651-0.713-8.713-2.604-12.017-6.011C169.723,11.92,173.726,13.929,177.122,17.15z
		"/>
	<path style="fill:#B9ADAD;" d="M36.065,35.145c-1.505,3.827-4.081,6.584-7.997,8.001C29.675,39.421,32.226,36.64,36.065,35.145z"/>
	<path style="fill:#BCBCBB;" d="M204.122,39.145c-3.53-1.128-5.875-3.442-6.985-6.99C200.53,33.422,202.937,35.673,204.122,39.145z"
		/>
	<path style="fill:#B9ADAD;" d="M165.124,11.154c-4.168,0.004-7.856-1.31-11.035-4.021C158.244,7.164,161.888,8.598,165.124,11.154z
		"/>
	<path style="fill:#B9ADAD;" d="M51.073,22.142c-1.209,2.994-4.577,5.521-8.004,6.007C45.085,25.278,47.709,23.217,51.073,22.142z"
		/>
	<path style="fill:#B9ADAD;" d="M124.126,1.159c-3.185,1.448-8.876,1.446-12.032-0.004C116.105,1.156,120.115,1.157,124.126,1.159z"
		/>
	<path style="fill:#B9ADAD;" d="M94.176,4.139c-2.116,1.54-4.634,1.679-7.09,2.033c0.044-0.327-0.026-0.847,0.149-0.951
		C89.395,3.945,91.632,2.999,94.176,4.139z"/>
	<path style="fill:#999999;" d="M51.046,215.213c2.989-0.13,5.147,0.98,6.011,4.024C54.512,218.705,52.425,217.488,51.046,215.213z"
		/>
	<path style="fill:#B9ADAD;" d="M21.055,53.15c-0.386,2.625-1.412,4.824-3.987,5.993C17.182,56.338,18.249,54.166,21.055,53.15z"/>
	<path style="fill:#999999;" d="M189.137,212.233c0.937-3.309,1.526-3.781,5.012-4.022
		C192.895,210.07,191.584,211.859,189.137,212.233z"/>
	<path style="fill:#B9ADAD;" d="M216.125,54.146c-2.717-0.559-3.478-2.68-3.992-4.999C215.185,49.439,215.495,51.92,216.125,54.146z
		"/>
	<path style="fill:#999999;" d="M14.094,64.131c0.221,2.636-0.603,4.747-3.04,6.047C11.089,67.67,12.02,65.613,14.094,64.131z"/>
	<path style="fill:#B9ADAD;" d="M208.127,43.154c-2.552-0.125-3.833-1.522-4.016-4.016
		C206.512,39.415,207.743,40.861,208.127,43.154z"/>
	<path style="fill:#B9ADAD;" d="M181.125,20.145c-2.216,0.173-4.037-0.181-4.008-3.004
		C178.891,17.558,180.944,17.603,181.125,20.145z"/>
	<path style="fill:#B9ADAD;" d="M59.077,17.141c-0.582,2.811-2.636,3.172-5.006,3.006C55.141,18.148,56.998,17.459,59.077,17.141z"
		/>
	<path style="fill:#B9ADAD;" d="M24.073,48.146c0.443,2.532-0.839,4.026-3.002,4.99C20.695,50.644,22.153,49.256,24.073,48.146z"/>
	<path style="fill:#B9ADAD;" d="M212.123,49.139c-1.728-0.783-3.037-1.879-2.99-3.992C211.657,45.334,212.352,46.89,212.123,49.139z
		"/>
	<path style="fill:#999999;" d="M21.03,185.21c2.84-0.044,3.294,1.711,3.025,4.012C22.404,188.369,21.254,187.139,21.03,185.21z"/>
	<path style="fill:#999999;" d="M185.135,215.237c-0.045-2.842,1.718-3.284,4.011-3.024
		C188.285,213.852,187.06,215.009,185.135,215.237z"/>
	<path style="fill:#B9ADAD;" d="M189.122,25.148c-2.268,0.239-3.958-0.292-4.009-3.008
		C187.102,22.272,188.252,23.523,189.122,25.148z"/>
	<path style="fill:#999999;" d="M197.138,32.171c-1.977-0.05-3.078-0.977-3.044-3.04C195.901,29.351,196.995,30.285,197.138,32.171z
		"/>
	<path style="fill:#B9ADAD;" d="M27.058,45.148c0.052,2.047-0.876,3.117-2.992,3.003C24.204,46.294,24.988,45.08,27.058,45.148z"/>
	<path style="fill:#B9ADAD;" d="M42.073,29.143c0.059,2.289-1.182,3.142-3.319,3.009C39.239,30.464,40.069,29.156,42.073,29.143z"/>
	<path style="fill:#B9ADAD;" d="M185.124,22.156c-1.778,0.207-3.343-0.009-4.008-2.015
		C182.916,19.889,184.344,20.378,185.124,22.156z"/>
	<path style="fill:#B9ADAD;" d="M54.072,20.142c0.185,2.443-1.51,2.073-3.002,2.006C51.605,20.783,52.6,20.105,54.072,20.142z"/>
	<path style="fill:#999999;" d="M17.092,59.13c0.006,1.472,0.408,3.211-2.039,3.037C15.069,60.709,15.615,59.607,17.092,59.13z"/>
	<path style="fill:#B9ADAD;" d="M218.125,57.145c-2.471,0.206-2.081-1.499-2.001-2.997
		C217.546,54.643,218.206,55.647,218.125,57.145z"/>
	<path style="fill:#999999;" d="M49.045,213.223c1.519-0.179,2.215,0.465,2.01,2.01C49.748,215.2,48.764,214.845,49.045,213.223z"/>
	<path style="fill:#B9ADAD;" d="M191.124,27.144c-1.477,0.143-2.201-0.469-2.005-2.001C190.508,25.088,191.25,25.681,191.124,27.144
		z"/>
	<path style="fill:#999999;" d="M15.088,62.13c0.104,0.91,0.243,1.836-1.032,2.052C14.06,63.328,13.987,62.434,15.088,62.13z"/>
	<path style="fill:#B9ADAD;" d="M209.123,45.141c-1.227-0.216-1.093-1.118-1.008-1.996
		C209.168,43.448,209.292,44.221,209.123,45.141z"/>
	<path style="fill:#B9ADAD;" d="M28.068,43.149c0.114,0.888,0.23,1.777-0.999,1.99C26.886,44.217,26.991,43.439,28.068,43.149z"/>
	<path style="fill:#999999;" d="M194.137,29.173c-0.896,0.07-1.756,0.069-2.054-1.041C193.016,27.99,193.802,28.137,194.137,29.173z
		"/>
	<path style="fill:#B9ADAD;" d="M37.085,33.86c0.023,0.713-0.242,1.199-1.014,1.284C36.049,34.432,36.536,34.122,37.085,33.86z"/>
	<path style="fill:#999999;" d="M32.048,198.214c0.642,0.029,0.977,0.363,1.001,1.007C32.258,199.339,31.974,198.954,32.048,198.214
		z"/>
	<path style="fill:#999999;" d="M33.047,199.22c0.644,0.023,0.977,0.358,1.001,1.001C33.266,200.336,32.933,200.001,33.047,199.22z"
		/>
	<path style="fill:#999999;" d="M34.048,200.22c0.644,0.024,0.976,0.359,1.001,1.001C34.268,201.334,33.936,200.999,34.048,200.22z"
		/>
	<path style="fill:#999999;" d="M35.047,201.22c0.643,0.025,0.977,0.358,1.001,1.001C35.267,202.335,34.935,201.999,35.047,201.22z"
		/>
	<path style="fill:#B9ADAD;" d="M43.078,28.143c-0.002,0.672-0.351,0.996-1.011,1.01C42.124,28.536,42.464,28.203,43.078,28.143z"/>
	<path style="fill:#999999;" d="M192.137,28.18c-0.614-0.085-0.985-0.414-1.05-1.049C191.747,27.171,192.176,27.441,192.137,28.18z"
		/>
	<path style="fill:#B9ADAD;" d="M154.135,7.174c-0.566-0.067-0.908-0.365-0.971-0.947C153.745,6.278,154.02,6.644,154.135,7.174z"/>
	<path style="fill:#9C2021;" d="M219.444,155.243c-0.094,0.354-0.189,0.708-0.283,1.062c-0.867,0.374-0.97,1.056-0.754,1.867
		c-0.578,0.936-1.235,1.84-1.194,3.021c-0.568,0.148-0.843,0.462-0.606,1.067c-0.144,0.38-0.288,0.759-0.432,1.139
		c-0.204,0.131-0.408,0.263-0.612,0.394c0.08,0.106,0.16,0.213,0.24,0.319c-5.64,10.725-11.993,20.988-20.684,29.536
		c-6.846,6.734-14.569,12.422-22.642,17.623c-1.899,1.223-3.752,2.518-5.626,3.78c-1.434,0.08-2.559,0.883-3.723,1.593
		c-0.577-0.211-0.875,0.058-1.019,0.593c-0.822-0.038-1.512,0.229-2.035,0.881c-2.106,0.236-4.12,0.721-5.785,2.147
		c-0.367,0.112-0.734,0.225-1.101,0.337c-2.364,0-4.478,1.055-6.665,1.704c-7.34,2.181-14.957,2.702-22.443,3.993
		c-4.993-0.044-9.987-0.088-14.98-0.132c-1.225-0.972-2.575-0.847-3.956-0.45c-0.368-0.169-0.736-0.338-1.104-0.508
		c-1.111-2.15-3.537-0.179-5.255-1.998c-0.741-2.534-3.593-3.063-6.052-3.602c-6.323-1.385-11.861-4.631-17.733-7.052
		c-6.568-2.708-12.556-6.503-18.163-10.903c-0.855-0.671-2-1.842-3.564-0.874c0.408,1.671,0.752,3.165,2.821,3.553
		c1.362,0.256,0.907,1.52,0.874,2.468c-0.613-0.222-1.227-0.444-1.84-0.666l0,0.001c-0.366-0.967-1.043-1.313-2.04-1.023
		c-1.636-1.316-3.272-2.631-4.907-3.947c0.133-0.759-0.301-1.096-0.949-1.273c-0.316-0.271-0.632-0.543-0.948-0.814
		c-0.125-0.617-0.503-0.942-1.13-0.982l0.012,0.011c-0.066-0.622-0.406-0.969-1.032-1.031c-0.45-0.868-1.122-1.505-2.008-1.918
		c-0.057-0.615-0.382-0.966-1.007-1.02l0.003,0.003c-1.817-2.469-3.631-4.94-6.122-6.802l-0.075-0.103
		c0.026-0.598-0.245-0.954-0.848-1.037c-0.073-0.537-0.336-0.921-0.875-1.081c-0.45-1.163-1.003-2.251-2.119-2.932
		c-10.821-15.379-17.466-32.408-20.165-50.998c-0.007-2.466-0.002-4.932-0.025-7.398c-0.075-7.91-0.247-15.822,1.279-23.649
		c0.91-4.666,2.541-9.184,2.867-13.969l0.037-0.066c1.408-0.621,0.858-1.89,0.972-2.939l0.029-0.047
		c1.394-0.631,0.828-1.911,0.98-2.954l0.022-0.036c0.984-0.344,0.932-1.167,0.912-1.975l0.058-0.101
		c2.5-3.709,4.454-7.692,5.962-11.898l0.065-0.1c0.514-0.063,0.776-0.29,0.546-0.838c0.157-0.359,0.313-0.718,0.47-1.076
		c1.756-1.182,2.633-2.906,3.038-4.921l0.011-0.021c0.589-0.104,0.855-0.457,0.81-1.05c0,0,0.091-0.131,0.091-0.131
		c4.338-5.104,8.678-10.207,13.007-15.319c0.09-0.106,0.051-0.32,0.073-0.484l0.018-0.018c1.695-0.312,2.769-1.229,2.944-3.021
		l0.018-0.018c0.577-0.076,0.903-0.409,0.998-0.978l0.006-0.005c4.119-2.005,7.499-5.006,10.843-8.055l0.126-0.082
		c0.614,0.062,0.964-0.218,1.064-0.822l0.014,0.004c5.587-2.865,11.063-5.975,16.784-8.539c9.702-4.348,19.688-7.824,30.559-7.623
		c0.969,0.018,2.023,0.143,2.718-0.823c4.955-0.395,9.973,0.681,14.888-0.639c0.616,0.04,1.232,0.079,1.849,0.119
		c0.316,1.155,1.109,1.472,2.244,1.444c2.647-0.066,5.297-0.043,7.945-0.056c0,0,0.022,0,0.022,0
		c0.03,0.376,0.061,0.752,0.091,1.127c0,0-0.125,0.09-0.125,0.09c-0.354-0.006-0.707-0.011-1.061-0.017
		c-10.719-0.175-21.477-0.851-32.011,1.884c-5.825,1.512-11.828,2.56-17.035,5.884c-5.311,1.052-9.561,4.18-13.911,7.112
		c-3.668,2.997-7.336,5.994-11.003,8.992c-3.331-0.654-5.317,1.259-6.913,3.741c-1.151,1.791-2.009,3.775-3.208,5.53
		c-4.844,7.089-9.324,14.252-10.269,23.152c-0.201,1.898-0.109,3.996-0.793,5.808c-1.984,5.251-0.049,9.516,2.729,13.524
		c3.969,0.844,7.846-0.707,11.447,1.006c-7.648,0.09-15.296,0.132-22.942,0.313c-1.336,0.032-3.045-0.86-3.988,0.981l-0.093-0.057
		c-1.406,3.465-1.366,7.835,0.1,10.917c0.299,0.111,0.594,0.229,0.887,0.354c1.217,1.334,2.803,0.655,4.206,0.676
		c6.442,0.092,12.889-0.066,19.327,0.122c5.679,0.166,8.319,4.124,6.729,9.607c-0.132,0.456-0.05,0.973-0.068,1.462
		c-0.208,0.513-0.569,0.832-1.132,0.895c-1.087,0.078-2.413-0.549-2.998,1.014c-3.031,0.03-6.063,0.06-9.094,0.09
		c-0.132-2.466-1.112-3.691-3.716-2.539c-0.893-2.647,0.149-5.554-1.023-8.549c-2.172,0-4.291-0.073-6.402,0.022
		c-1.765,0.08-3.658,0.046-4.632,2.018l-0.075,0.079c-1.022,0.266-1.648,0.833-1.5,1.984c-0.476,0.532-0.572,1.166-0.494,1.846
		c-1.116,3.665-1.033,7.32,0.084,10.968c0.019,0.986,0.039,1.971,0.058,2.957c-0.396,0.802-0.33,1.596,0.297,2.889
		c10.658-0.256,21.567,0.39,32.485-0.287c-0.184,1.299-1.116,1.425-2.182,1.479c-1.448,0.073-3.049-0.437-4.43,1.234
		c-1.034,3.424-1.271,7.454-3.743,11.282c1.572,1.653,1.383,3.559,0.493,5.759c-0.575,1.419-0.324,3.333,0.01,4.93
		c1.111,5.322,3.54,10.172,5.951,14.985c0.945,1.887,2.168,3.934,3.83,5.108c5.9,4.171,11.191,9.283,17.978,12.121
		c2.113,0.884,4.475,1.272,6.446,2.379c6.114,3.433,12.641,4.622,19.705,4.127c2.785,2.847,6.602,3.288,10.291,4.062
		c0.799,0.168,1.861-0.002,2.375,0.46c4.91,4.406,11.105,3.248,16.194,2.126c5.443-1.2,10.752-1.361,15.966-1.612
		c3.583-2.095,6.993-4.098,10.414-6.081c0.858-0.497,1.713-0.961,2.792-0.897c7.478,0.44,18.496-6.868,23.184-10.775
		c5.728-4.774,8.871-11.459,12.67-17.591c1.583-2.555,3.168-5.305,4.12-8.32c1.666-5.276,1.823-10.65,2.029-16.107
		c0.143-3.788-0.878-6.508-4.043-8.468c5.216-0.102,10.521,0.893,15.978-0.825c-1.637-1.902-2.117-3.995-4.093-4.835l-0.025-0.032
		c-0.084-1.76-1.214-2.731-2.63-3.485c-0.034-0.227-0.148-0.401-0.342-0.523c0.256-2.042-2.371-2.755-2.198-4.76
		c0.231-1.692,2.37-2.386,2.234-4.268l0.008-0.011c2.969-2.832,5.87-5.711,6.954-9.871c-0.473-1.71-1.926-0.901-2.966-1.153
		c1.788-4.016,1.237-8.458,1.638-12.611c0.33-3.408,1.611-7.386-0.554-10.914c-0.369-0.601,0.324-1.194,0.959-1.508
		c0.345,0.003,0.69,0.007,1.035,0.01c1.106,2.389,2.2,4.784,3.267,7.19c3.955,8.915,5.251,18.441,6.952,27.888
		c-0.275,1.374-0.275,2.735,0.187,4.075c-0.464,3.596-0.479,7.19,0.019,10.784c-0.582,2.375-0.491,4.793-0.458,7.207
		c-0.957,0.791-0.873,1.752-0.451,2.768c-0.558,0.996-0.619,2.066-0.478,3.167c-0.761,0.478-0.934,1.086-0.413,1.85
		c-0.638,0.995-0.717,2.103-0.653,3.24c-0.763,0.425-0.839,1.046-0.506,1.782C221.568,147.793,220.506,151.518,219.444,155.243z"/>
	<path style="fill:#B9ADAD;" d="M124.953,11.719c-0.616-0.04-1.232-0.079-1.849-0.119c-4.1-0.877-8.24-0.242-12.361-0.312
		c-0.924-0.016-2.043-0.306-2.527,0.951c-0.695,0.965-1.749,0.84-2.718,0.823c-10.871-0.201-20.856,3.276-30.559,7.623
		c-5.721,2.564-11.198,5.674-16.784,8.539c-0.147-1.138,0.492-1.62,1.376-2.294c4.076-3.109,8.882-4.841,13.441-7.262
		c0.045-0.874,0.087-1.685,0.129-2.495c10.129-5.509,21.073-7.947,32.459-9.13c3.609-0.375,7.191-0.747,10.818-0.852
		c13.156-0.382,25.87,1.981,38.234,6.273c14.671,5.093,27.611,12.956,39.051,23.603c10.276,9.564,18.507,20.546,24.693,32.976
		c5.122,10.292,8.881,21.175,9.72,32.81c0.132,1.83,1.455,3.393,0.979,5.3c-1.224,0.347-2.448,0.694-3.673,1.041
		c-1.701-9.447-2.996-18.973-6.952-27.888c-1.067-2.405-2.161-4.8-3.267-7.19c-0.01-1.064,0.223-2.223-1.09-2.774
		c-0.047-0.601-0.315-1.067-0.839-1.378c-0.021-0.796-0.154-1.53-1.034-1.845l-0.021-0.042c0.031-0.832-0.058-1.603-0.988-1.948
		l-0.028-0.049c-0.035-1.39-0.663-2.395-1.933-2.985l-0.025-0.047c-0.006-1.437-0.828-2.38-1.911-3.166
		c0.009-0.292-0.103-0.526-0.336-0.703c-0.759-2.055-1.808-3.894-3.766-5.056l-0.032-0.052c-0.286-1.857-1.482-3.004-3.026-3.881
		l-0.053-0.064c-0.012-0.606-0.337-0.918-0.924-0.983l-0.035-0.036c-0.052-0.58-0.364-0.913-0.944-0.989l-0.022-0.039
		c-0.397-2.227-1.98-3.359-3.879-4.199c-0.031-0.293-0.172-0.516-0.422-0.671c-0.078-1.022-0.825-1.139-1.617-1.195l0.016-0.081
		c-0.065-0.557-0.372-0.866-0.934-0.914l-0.076-0.078c-0.058-0.561-0.366-0.869-0.93-0.917l-0.075-0.077
		c-0.059-0.576-0.388-0.869-0.956-0.909l-0.063-0.059c-0.103-0.574-0.465-0.841-1.029-0.869l-0.043-0.035
		c-0.091-0.568-0.412-0.884-0.997-0.912l-0.049-0.047c-0.052-0.594-0.374-0.91-0.97-0.946c-0.389-0.319-0.778-0.637-1.167-0.956
		c-0.195-0.959-0.913-1.143-1.736-1.17l-0.069,0.028c-2.408-3.455-6.246-4.591-9.866-6.081c-0.468-2.274-2.247-2.666-4.144-2.888
		l-0.009-0.005c-0.231-1.138-1.192-1.531-2.076-1.939c-3.31-1.527-6.597-3.115-9.972-4.485c-6.427-2.61-13.098-4.247-20.057-4.569
		c-0.175-0.102-0.357-0.114-0.545-0.037c-0.317-0.495-0.633-0.993-1.33-0.964l-0.022,0C131.87,11.731,128.424,11.634,124.953,11.719
		z"/>
	<path style="fill:#EDE9E9;" d="M104.041,225.21c0.368,0.169,0.736,0.338,1.104,0.508c1.222,1.003,2.618,0.475,3.956,0.45
		c4.993,0.044,9.987,0.088,14.98,0.132c2.503,2.311,4.946-0.144,7.426-0.116c7.309,0.082,14.057-2.695,21.023-4.348
		c0.3-0.071,0.443-0.807,0.659-1.233c0.367-0.112,0.734-0.225,1.101-0.337c2.196,0.005,4.348-0.106,5.785-2.147
		c0.523-0.652,1.213-0.92,2.035-0.881c0.185,0.204,0.371,0.409,0.556,0.613c0.154-0.402,0.308-0.804,0.463-1.206
		c1.164-0.71,2.289-1.513,3.723-1.593c0.826,0.004,1.873,0.338,2.442-0.043c3.482-2.327,7.768-3.394,10.452-6.665
		c1.752-0.598,2.874,1.131,4.424,0.846c-1.595,3.529-5.125,5.012-8.056,6.751c-7.756,4.603-16.24,7.834-24.687,10.906
		c-6.749,2.454-13.919,3.611-21.122,4.397c-4.267,0.466-8.497,1.078-12.801,0.892c-16.903-0.73-33.112-4.102-48.53-11.436
		C55,214.053,43.308,204.597,32.892,193.395c-2.793-3.004-5.201-6.388-6.892-10.197c1.659,0.004,3.317,0.008,4.976,0.011
		c0.132,1.349,0.723,2.163,2.228,1.912c0.539,0.16,0.802,0.544,0.875,1.081c-0.008,0.583,0.292,0.915,0.848,1.037l0.075,0.103
		c1.141,5.239,1.935,6.122,6.122,6.802l-0.003-0.003c0.037,0.635,0.378,0.97,1.007,1.02c0.886,0.412,1.557,1.049,2.008,1.918
		c0.025,0.663,0.36,1.015,1.032,1.031l-0.012-0.011c0.051,0.702,0.432,1.025,1.13,0.982c0.316,0.271,0.632,0.543,0.948,0.814
		c-0.097,0.732,0.255,1.13,0.949,1.273c1.636,1.316,3.272,2.631,4.907,3.947c0.305,1.09,1.138,1.125,2.04,1.023l0-0.001
		c-0.178,2.315,1.466,2.053,2.917,2.063c1.355,0.157,1.349,2.388,3.057,2.007c0.574,1.342,1.836,1.867,3.026,2.376
		c8.189,3.504,16.097,7.726,24.826,9.863C93.926,223.662,98.783,225.538,104.041,225.21z"/>
	<path style="fill:#BCBCBB;" d="M225.383,109.195c1.224-0.347,2.448-0.694,3.673-1.041c0.013,7.1,0.391,14.224-0.066,21.294
		c-0.45,6.957-2.154,13.779-4.278,20.442c-0.829,2.602-2.998,4.072-5.268,5.354c1.062-3.725,2.124-7.45,3.186-11.175
		c0.638-0.461,0.492-1.144,0.506-1.782c-0.064-1.137,0.016-2.244,0.653-3.24c0.214-0.6,1.815-0.89,0.413-1.85
		c-0.141-1.101-0.08-2.172,0.478-3.167c0.779-0.82,0.357-1.836,0.451-2.768c-0.033-2.414-0.124-4.832,0.458-7.207
		c0.844-3.596,0.869-7.191-0.019-10.784C225.108,111.93,225.108,110.569,225.383,109.195z"/>
	<path style="fill:#BCBCBB;" d="M25.095,64.146c-0.157,0.359-0.313,0.718-0.47,1.076c-0.182,0.279-0.364,0.559-0.546,0.838
		c0,0-0.065,0.1-0.065,0.1c-4.016,2.949-5.517,7.159-5.962,11.898l-0.058,0.101c-0.958,0.356-0.914,1.175-0.912,1.975l-0.022,0.036
		c-1.46,0.609-0.842,1.907-0.98,2.954l-0.029,0.047c-1.445,0.609-0.835,1.897-0.972,2.939l-0.037,0.066
		c-2.276,3.286-2.51,7.292-3.783,10.93c-0.426,1.217-0.624,2.21-2.157,2.074c0.106-5.264,1.295-10.323,3.083-15.234
		c1.561-4.287,2.912-8.719,5.062-12.706c3.771-6.994,6.827-14.508,12.844-20.086c0.634,2.439-1.21,4.502-1.043,6.87l-0.091,0.131
		c-0.543,0.139-0.826,0.479-0.81,1.05l-0.011,0.021C25.227,59.696,25.049,61.852,25.095,64.146z"/>
	<path style="fill:#BCBCBB;" d="M73.102,17.174c-0.042,0.81-0.084,1.621-0.129,2.495c-4.558,2.42-9.365,4.153-13.441,7.262
		c-0.883,0.674-1.523,1.156-1.376,2.294l-0.014-0.004c-0.58-0.018-0.927,0.266-1.064,0.822l-0.126,0.082
		c-4.883,0.916-9.247,4.158-10.843,8.055l-0.006,0.005c-0.574,0.079-0.908,0.404-0.998,0.978l-0.018,0.018
		c-2.017-0.002-3.047,0.958-2.944,3.021l-0.018,0.018c-1.551-0.301-2.369,0.806-3.292,1.713c-1.28,1.257-2.526,2.552-3.856,3.754
		c-0.768,0.695-1.463,0.463-1.883-0.495C44.212,34.229,56.765,23.18,73.102,17.174z"/>
	<path style="fill:#E0BCBA;" d="M10.102,131.184c-0.062,0.641,0.014,1.34-1.024,1.856c-1.441-1.307-1.875-3.212-1.906-5.01
		c-0.128-7.438-0.058-14.879-0.063-22.318c0-0.734,0.342-1.232,1.002-1.525c2.399-0.061,1.972,1.687,1.975,3.124
		C10.1,115.268,10.098,123.226,10.102,131.184z"/>
	<path style="fill:#B9ADAD;" d="M10.102,131.184c-0.004-7.958-0.002-15.916-0.016-23.874c-0.002-1.436,0.425-3.185-1.975-3.124
		c0.392-1.657-0.894-3.645,0.989-5.008c1.533,0.137,1.731-0.857,2.157-2.074c1.273-3.639,1.508-7.644,3.783-10.93
		c-0.326,4.785-1.957,9.303-2.867,13.969c-1.527,7.828-1.354,15.739-1.279,23.649c0.023,2.466,0.017,4.932,0.025,7.398l-0.409,0.01
		L10.102,131.184z"/>
	<path style="fill:#B9ADAD;" d="M33.095,47.191c0.42,0.959,1.114,1.19,1.883,0.495c1.33-1.203,2.576-2.497,3.856-3.754
		c0.923-0.907,1.741-2.013,3.292-1.713c-0.021,0.164,0.017,0.378-0.073,0.484c-4.329,5.112-8.668,10.215-13.007,15.319
		c-0.167-2.368,1.678-4.431,1.043-6.87C30.992,49.757,31.198,47.833,33.095,47.191z"/>
	<path style="fill:#E0BCBA;" d="M33.204,185.121c-1.505,0.251-2.096-0.563-2.228-1.912c0.036-0.34,0.072-0.681,0.108-1.021
		C32.2,182.87,32.753,183.959,33.204,185.121z"/>
	<path style="fill:#BCBCBB;" d="M216.607,162.26c-0.237-0.605,0.038-0.919,0.606-1.067c0.192,0.189,0.384,0.379,0.575,0.568
		C217.395,161.927,217.001,162.093,216.607,162.26z"/>
	<path style="fill:#BCBCBB;" d="M218.407,158.172c-0.216-0.811-0.113-1.494,0.754-1.867
		C219.185,157.039,219.222,157.778,218.407,158.172z"/>
	<path style="fill:#BCBCBB;" d="M215.804,164.113c-0.08-0.106-0.16-0.213-0.24-0.319c0.204-0.132,0.408-0.263,0.612-0.394
		C216.163,163.695,216.039,163.933,215.804,164.113z"/>
	<path style="fill:#B12325;" d="M199.166,128.903c3.165,1.96,4.186,4.679,4.043,8.468c-0.206,5.457-0.363,10.831-2.029,16.107
		c-0.952,3.015-2.536,5.764-4.12,8.32c-3.799,6.132-6.942,12.817-12.67,17.591c-4.688,3.907-15.706,11.215-23.184,10.775
		c-1.079-0.063-1.934,0.4-2.792,0.897c-3.422,1.983-6.831,3.986-10.414,6.081c-5.214,0.251-10.523,0.412-15.966,1.612
		c-5.088,1.122-11.283,2.28-16.194-2.126c-0.514-0.461-1.577-0.292-2.375-0.46c-3.689-0.774-7.506-1.216-10.291-4.062
		c-7.065,0.495-13.591-0.694-19.705-4.127c-1.972-1.107-4.333-1.495-6.446-2.379c-6.787-2.838-12.079-7.95-17.978-12.121
		c-1.662-1.175-2.884-3.222-3.83-5.108c-2.412-4.813-4.84-9.663-5.951-14.985c-0.333-1.598-0.584-3.511-0.01-4.93
		c0.891-2.2,1.079-4.106-0.493-5.759c2.472-3.828,2.709-7.858,3.743-11.282c1.381-1.671,2.982-1.161,4.43-1.234
		c1.066-0.054,1.998-0.179,2.182-1.479c0.862-0.282,1.697-0.599,1.979-1.598c0.651-0.185,1.303-0.371,1.954-0.556
		c0.614,0.429,0.826,0.159,0.826-0.476c0.418-0.254,0.837-0.508,1.255-0.762c0.098,0.439,0.275,0.474,0.493,0.084
		c0.016-0.029-0.181-0.178-0.279-0.271c0.533-0.483,1.066-0.965,1.599-1.448c1.131,0.02,1.703-0.498,1.601-1.664
		c0.655-0.596,1.216-1.254,1.406-2.153c1.064-0.184,1.127-0.891,0.91-1.743l0.081-0.222c0.996-0.149,0.87-1.145,1.298-1.722
		c0.57,0.322,1.139,0.643,1.709,0.965c1.327,3.505,2.077,7.399,6.12,9.072c0.347,0.346,0.693,0.692,1.04,1.038
		c0.526,1.373,1.604,1.896,2.99,1.947c1.737,1.954,4.016,0.581,6.006,0.979c0.388,2.335-1.954,4.468-0.887,6.663
		c1.435,2.953,0.634,5.68-0.159,8.389c1.513,1.456,3.088,2.073,5.013,1.983c1.061-0.05,2.366-0.498,3.02,0.932
		c-0.53,0.459-1.659-0.016-1.754,1.124l-0.201,0.172c-0.732,0.031-1.767-0.668-1.909,0.79l-0.056,0.145
		c-0.54,0.077-0.857,0.409-1.031,0.904c-0.865,0.125-1.262,0.683-1.384,1.496l-0.055,0.079c-1.138,0.352-1.668,1.137-1.651,2.313
		c-0.688,0.488-0.892,1.211-0.965,1.997c-1.012,0.465-0.872,1.221-0.512,2.031c-0.439,1.004-0.52,2.012-0.028,3.025
		c-0.313,0.615-0.255,1.222,0.039,1.825c-0.38,0.588-0.154,0.95,0.438,1.175c0.132,0.616,0.264,1.231,0.395,1.847
		c-0.315,1.288,0.358,2.005,1.438,2.488c0.238,0.703,0.557,1.338,1.335,1.587c-0.031,0.679,0.309,0.958,0.966,0.897l0.075,0.061
		c1.342,2.289,3.393,3.101,5.951,2.853c4.285,0.73,8.59,0.38,12.89,0.229c5.68,1.131,11.361,1.147,17.041,0.006
		c4.305,0.152,8.612,0.441,12.905-0.184c4.074-0.261,7.412-1.614,8.758-5.915c0.157-0.283,0.266-0.583,0.326-0.901
		c0.514-0.391,1.028-0.781,1.542-1.172c2.122,0.379,0.937,3.151,2.751,3.78c4.619,1.432,8.566-1.16,12.822-2.109
		c5.003-1.116,7.485-4.369,8.862-8.906c0.283-0.933,0.585-1.86,0.869-2.758c-0.844-2.475-2.342-4.364-4.813-5.427
		c0.962-2.535,1.667-4.946,0.018-7.218c-1.919-2.644-3.698-5.409-7.223-6.363c-1.341-0.363-2.883-0.897-3.86-2.945
		c0-1.277,0-3.091,0-4.905c2.583-0.17,5.215,0.339,7.888-0.414c0.056-0.94,0.104-1.744,0.152-2.549c0,0,0.003-0.012,0.003-0.012
		c1.344-2.536,1.345-3.484,0.005-6.011l-0.013-0.031c-0.012-0.655-0.356-0.968-1.002-0.97l-0.01-0.004
		c-0.248-0.888-0.577-1.061-1.032-0.117c-0.638-0.006-1.275-0.013-1.913-0.019c-0.27-1.094,0.548-1.749,1.024-2.543
		c2.497-0.986,3.923-3.004,5.084-5.278c1.379-2.373,1.619-4.723-0.141-7.034l-0.014-0.031c0.153-0.976-0.126-1.76-1.013-2.273
		c-0.231-0.232-0.463-0.464-0.694-0.696c-0.094-0.331-0.188-0.663-0.282-0.994c1.277-1.186,2.555-2.372,4-3.715
		c0-1.046,0-2.185,0-3.324c1.743,1.243,0.859,3.062,0.876,4.593c0.105,9.127,0.07,18.256,0.104,27.385
		c0.005,1.432-0.401,3.227,2.069,2.984l-0.023-0.006c3.829,2.043,7.756,1.133,11.673,0.367c0.087-0.017,0.124-0.293,0.184-0.448
		l-0.001,0.078c0.671,0.014,1.023-0.311,1.045-0.985l-0.02,0.021c1.382-0.556,1.341-1.219,0.149-1.969
		c0.007-0.659,0.013-1.319,0.02-1.978c1.311-0.987,1.293-1.993,0.043-3.016c0.008-0.652,0.016-1.303,0.025-1.955
		c0.636-0.023,1.273-0.046,1.909-0.068C193.835,122.396,196.5,125.649,199.166,128.903z"/>
	<path style="fill:#CB5254;" d="M136.493,14.07c0.188-0.078,0.369-0.066,0.545,0.037c-0.01,1.365,0.541,1.96,2.028,2.126
		c6.649,0.745,12.851,3.043,19.109,5.329c3.579,1.307,6.679,4.396,10.968,3.538l0.009,0.005c-0.424,1.249,0.593,2.057,0.94,3.07
		c0.483,3.099-2.111,4.989-3.191,7.667c1.573,2.797,4.016,4.812,6.298,6.858c6.13,5.496,8.674,12.438,8.893,20.446
		c-0.827,0.085-1.77,0.095-1.912,1.17c-0.855,6.468-4.994,10.155-10.583,12.668c-2.246,1.01-4.444,2.125-5.743,2.749
		c-8.599-1.361-15.456-4.192-19.618-11.602c0.054-4.437-1.617-8.999-0.262-13.852c1.037-3.714,1.928-7.214,5.133-9.684
		c1.906-1.469,2.802-3.263,1.366-5.498c-5.786-3.355-11.157-2.187-16.379,1.086c-2.038-0.243-3.853,0.353-5.677,1.243
		c-1.44,0.703-3.289,1.805-4.544,1.412c-3.609-1.13-7.204-0.367-10.779-0.676c-5.059-2.065-10.149-4.02-16.082-4.296
		c1.437-2.861,2.712-5.398,4.032-8.025c-4.039-1.275-7.915-2.411-11.724-3.737c-1.955-0.681-4.297-1.169-4.294-4.031
		c5.207-3.323,11.211-4.372,17.035-5.884c10.534-2.734,21.293-2.059,32.011-1.884c0.341,0.823,0.694,0.839,1.061,0.017
		c0,0,0.125-0.09,0.125-0.09C135.668,14.179,136.081,14.125,136.493,14.07z M163.814,77.174c2.019-0.714,3.852-1.511,5.625-2.294
		c7.545-3.331,11.441-11.171,6.459-19.553c-2.873-4.834-7.349-7.442-11.681-10.007c-3.363,0-6.512,0-10.249,0
		c-0.65,0.793-1.505,1.817-2.34,2.857c-2.735,3.407-4.717,7.323-5.384,11.533c-0.976,6.155,4.038,13.338,10.146,15.397
		C158.71,75.889,161.113,76.43,163.814,77.174z"/>
	<path style="fill:#B12325;" d="M213.236,69.966c0.524,0.311,0.792,0.777,0.839,1.378c0.018,0.921,0.037,1.843,0.055,2.764
		c-0.635,0.314-1.328,0.907-0.959,1.508c2.165,3.528,0.883,7.506,0.554,10.914c-0.402,4.152,0.149,8.594-1.638,12.611
		c-1.807,0.009-3.631-0.134-5.417,0.065c-2.201,0.246-4.575-0.936-6.605,0.751c-0.288,0.13-0.589,0.212-0.904,0.244
		c-0.628,0.01-0.983,0.326-1.066,0.948l-0.022,0.025c-0.592,0.091-0.912,0.426-0.927,1.034l-0.013,0.015
		c-0.625,0.049-0.952,0.38-0.959,1.013l-0.003,0.014c-0.602-0.028-0.946,0.309-1.165,0.823c-0.909,0.46-1.024,1.243-0.87,2.136
		l-0.005,0.004c-1.439-0.2-2.017,0.57-2.116,1.879c-0.586,0.226-1.076,0.809-1.889,0.444c0-4.088,0-8.216,0-12.344
		c3.472-0.557,4.838-3.28,5.882-6.075c3.423-9.16,2.602-18.497,0.578-27.763c-0.458-2.098-0.09-4.766-2.48-6.18
		c-0.153-1.431,0.263-2.88-0.753-4.255c-2.508-3.391-4.104-7.318-7.161-10.476c-1.985-2.05-4.08-4.355-6.07-7.098
		c1.432-0.128,2.237-0.2,3.042-0.272l0.069-0.028c0.077,1.134,0.91,1.146,1.736,1.17c0.389,0.319,0.778,0.637,1.167,0.956
		c0.042,0.604,0.362,0.923,0.97,0.946l0.049,0.047c0.039,0.625,0.375,0.925,0.997,0.912l0.043,0.035
		c0.04,0.648,0.367,0.957,1.029,0.869l0.063,0.059c-0.053,0.694,0.257,1.007,0.956,0.909l0.075,0.077
		c-0.083,0.705,0.222,1.015,0.93,0.917l0.076,0.078c-0.085,0.71,0.222,1.019,0.934,0.914l-0.016,0.081
		c0.009,1.116,0.814,1.154,1.617,1.195c0.25,0.155,0.391,0.379,0.422,0.671c-0.139,2.723,1.295,3.992,3.879,4.199l0.022,0.039
		c0.009,0.621,0.328,0.947,0.944,0.989l0.035,0.036c0.026,0.592,0.33,0.924,0.924,0.983l0.053,0.064
		c-0.19,2.228,0.214,3.993,3.026,3.881l0.032,0.052c-0.41,2.926,1.018,4.483,3.766,5.056c0.233,0.176,0.345,0.41,0.336,0.703
		c-0.369,1.663,0.176,2.774,1.911,3.166l0.025,0.047c-0.284,1.596,0.382,2.578,1.933,2.985l0.028,0.049
		c-0.095,0.865-0.223,1.746,0.988,1.948l0.021,0.042c-0.03,0.659-0.061,1.318-0.091,1.977c0.016,0.588-0.113,1.211,0.393,1.68
		c0.703-0.309,0.557-0.934,0.559-1.505L213.236,69.966z"/>
	<path style="fill:#B12325;" d="M53.101,90.938c-3.601-1.713-7.479-0.162-11.447-1.006c-2.778-4.008-4.713-8.272-2.729-13.524
		c0.684-1.812,0.592-3.91,0.793-5.808c0.945-8.901,5.425-16.063,10.269-23.152c1.199-1.754,2.057-3.739,3.208-5.53
		c1.595-2.482,3.581-4.396,6.913-3.741c-0.904,1.899-2.616,3.177-3.666,5.026c-2.198,3.872-1.836,5.149,2.66,6.972
		c0.201,2.393-0.419,4.501-1.912,6.432c-1.505,1.947-3.021,4.105-2.998,6.59c0.024,2.612-0.934,4.768-2.148,7.119
		c0.735,0.918,0.816,2.069,1.111,3.152c1.264,4.645,2.127,9.484,6.891,12.318c2.188,1.302,3.229,3.676,3.041,6.378
		c-1.489,0.282-2.543-1.331-4.06-0.93C57.052,91.135,55.077,91.036,53.101,90.938z"/>
	<path style="fill:#BB4547;" d="M85.023,22.074c-0.003,2.862,2.339,3.35,4.294,4.031c3.809,1.326,7.685,2.462,11.724,3.737
		c-1.32,2.627-2.594,5.164-4.032,8.025c5.933,0.276,11.024,2.231,16.082,4.296c-0.039,0.328,0.039,0.857-0.133,0.956
		c-4.324,2.508-8.966,4.173-13.866,2.416c-3.367-1.207-6.772-2.458-10.123-3.695c-3.426-1.265-6.966-3.003-10.879-2.658
		c-2.496,0.328-4.055-0.955-5.007-3.068c-0.992-2.203-2.088-4.399-1.973-6.927C75.462,26.254,79.712,23.126,85.023,22.074z"/>
	<path style="fill:#BA3538;" d="M71.111,29.186c-0.115,2.528,0.981,4.724,1.973,6.927c0.952,2.114,2.511,3.397,5.007,3.068
		c0.057,1.265-0.118,2.378,1.431,3.272c2.246,1.296,3.992,3.28,4.36,5.844c-2.735,2.802-3.821,6.569-6.789,8.867
		c-4.927,0-9.854,0-14.562,0c-0.881-2.982,0.445-6.318-3.429-6.989c-4.496-1.823-4.857-3.1-2.66-6.972
		c1.049-1.849,2.762-3.128,3.666-5.026C63.776,35.18,67.444,32.183,71.111,29.186z"/>
	<path style="fill:#E2DBDA;" d="M27.065,103.446c-0.293-0.125-0.588-0.243-0.887-0.354c-0.033-3.639-0.066-7.278-0.1-10.917
		c0,0,0.093,0.057,0.093,0.057C37.114,92.241,48.057,92.25,59,92.259c1.07,1.421,2.829,0.165,4.039,1.04
		c0.112,0.585,0.41,0.891,1.042,0.697c1.228,2.201,3.79,2.981,5.238,4.983c3.356,4.64,3.47,9.815,2.696,15.167
		c-0.31-0.002-0.62,0.007-0.93,0.027l-0.054-0.003c0.255-4.041,0.122-8.025-1.63-11.861c-2.738,1.251-5.533,0.827-8.276,0.839
		c-1.71,0.008-3.317,0.021-4.011,1.989c-1.818-0.761-3.46-1.943-5.591-1.901C43.372,103.396,35.214,102.883,27.065,103.446z"/>
	<path style="fill:#BA3538;" d="M104.041,225.21c-5.258,0.328-10.115-1.548-15.087-2.765c-8.728-2.137-16.637-6.358-24.826-9.863
		c-1.19-0.509-2.451-1.034-3.026-2.376c1.624-0.952,0.795-1.815-0.146-2.58c-0.983-0.799-2.165-0.395-3.276-0.375
		c-0.327,0.002-0.564-0.148-0.713-0.448c0.033-0.948,0.488-2.212-0.874-2.468c-2.069-0.389-2.413-1.883-2.821-3.553
		c1.563-0.967,2.709,0.203,3.564,0.874c5.607,4.401,11.595,8.195,18.163,10.903c5.873,2.421,11.41,5.667,17.733,7.052
		c2.459,0.539,5.311,1.068,6.052,3.602C100.504,225.031,102.93,223.06,104.041,225.21z"/>
	<path style="fill:#E0BCBA;" d="M190.732,112.772c1.139,6.229,5.57,10.163,9.737,14.303c3.745,0,7.343,0,11.003,0
		c-0.148-1.352-0.284-2.592-0.421-3.832c1.976,0.84,2.457,2.933,4.093,4.835c-5.457,1.718-10.762,0.723-15.978,0.825
		c-2.666-3.253-5.332-6.507-7.998-9.76c-0.193-0.911-0.963-1.263-1.633-1.708c-0.591,0.526-0.483,1.144-0.276,1.777
		c-0.008,0.652-0.016,1.303-0.025,1.955c-0.327,1.001-0.344,2.006-0.043,3.016c-0.007,0.659-0.013,1.319-0.02,1.978
		c-0.049,0.656-0.099,1.312-0.149,1.969l0.02-0.021c-0.548,0.117-0.901,0.44-1.045,0.985l0.001-0.078
		c-3.952,0.027-7.905,0.054-11.857,0.081l0.023,0.006c-0.105-0.564-0.21-1.127-0.315-1.691c3.779,1.495,7.363,0.363,10.913-0.71
		c2.159-6.723,0.969-13.55,1.343-20.279c0.097-1.751-0.71-3.645,0.637-5.252c0,3.84,0,7.68,0,11.602
		C189.798,112.772,190.265,112.772,190.732,112.772z"/>
	<path style="fill:#E0BCBA;" d="M208.098,110.165c-0.204-1.489,0.251-2.858,1.206-4.242c-3.422-1.953-7.774,1.08-9.744-2.79
		c-1.419,0.496-2.325,0.812-3.231,1.129c-0.053-0.337-0.106-0.675-0.159-1.012l0.003-0.014c0.6-0.073,0.906-0.424,0.959-1.013
		l0.013-0.015c0.593-0.09,0.891-0.445,0.927-1.034l0.022-0.025c0.571-0.074,0.921-0.396,1.066-0.948
		c0.314-0.032,0.616-0.113,0.904-0.244c4.996,0.112,9.991,0.225,14.987,0.337C213.968,104.453,211.067,107.333,208.098,110.165z"/>
	<path style="fill:#E0BCBA;" d="M26.334,126.099c1.996,0.732,3.989,1.184,6.182,1.146c7.406-0.127,14.823-0.238,22.218,0.07
		c2.163,0.09,4.22-1.601,6.36-0.212c-0.282,1-1.117,1.317-1.979,1.598c-10.917,0.677-21.826,0.03-32.485,0.287
		C26.004,127.695,25.938,126.901,26.334,126.099z"/>
	<path style="fill:#E0BCBA;" d="M55.169,117.378c-0.084,1.559-1.094,1.786-2.396,1.776c-4.621-0.034-9.242-0.013-14.029-0.013
		c-1.3-3.789-0.07-7.634-0.904-11.556c-3.264-0.862-6.366,1.241-9.578,0.679c0.975-1.972,2.867-1.939,4.632-2.018
		c2.111-0.095,4.23-0.022,6.402-0.022c1.172,2.995,0.13,5.902,1.023,8.549c-0.321,2.819-0.311,2.826,3.716,2.539
		c3.031-0.03,6.063-0.06,9.094-0.09C53.81,117.274,54.49,117.326,55.169,117.378z"/>
	<path style="fill:#CB5254;" d="M27.065,103.446c8.149-0.562,16.307-0.049,24.459-0.21c2.131-0.042,3.772,1.14,5.591,1.901
		c0.559,0.715,1.117,1.43,1.676,2.145c0.173,0.622,0.347,1.244,0.52,1.866c-0.151,1.642-0.301,3.284-0.452,4.927
		c-0.533,0.413-1.066,0.825-1.599,1.238c0.018-0.489-0.064-1.006,0.068-1.462c1.59-5.483-1.05-9.441-6.729-9.607
		c-6.438-0.188-12.885-0.03-19.327-0.122C29.868,104.101,28.282,104.78,27.065,103.446z"/>
	<path style="fill:#E0BCBA;" d="M153.189,220.603c-0.216,0.426-0.359,1.162-0.659,1.233c-6.966,1.653-13.714,4.431-21.023,4.348
		c-2.48-0.028-4.923,2.427-7.426,0.116c7.486-1.291,15.103-1.812,22.443-3.993C148.712,221.657,150.826,220.603,153.189,220.603z"/>
	<path style="fill:#DE7375;" d="M59,92.259c-10.943-0.009-21.886-0.018-32.829-0.027c0.943-1.841,2.652-0.95,3.988-0.981
		c7.646-0.181,15.294-0.223,22.942-0.313c1.975,0.098,3.951,0.197,5.926,0.295C59.018,91.575,59.009,91.917,59,92.259z"/>
	<path style="fill:#B9ADAD;" d="M46.109,38.18c1.596-3.897,5.96-7.139,10.843-8.055C53.608,33.174,50.228,36.175,46.109,38.18z"/>
	<path style="fill:#E0BCBA;" d="M26.192,112.174c1.503,3.645,1.44,7.301,0.084,10.968C25.159,119.494,25.077,115.839,26.192,112.174
		z"/>
	<path style="fill:#B9ADAD;" d="M18.052,78.058c0.445-4.739,1.946-8.949,5.962-11.898C22.506,70.367,20.552,74.349,18.052,78.058z"
		/>
	<path style="fill:#E0BCBA;" d="M208.054,119.204c-2.41-1.165-2.41-1.165-4.012-4.547c0.938-1.739,0.934-4.408,4.048-4.481
		c0.136,1.882-2.003,2.575-2.234,4.268C205.683,116.449,208.31,117.161,208.054,119.204z"/>
	<path style="fill:#E0BCBA;" d="M41.124,194.145c-4.186-0.68-4.981-1.563-6.122-6.802C37.493,189.205,39.307,191.676,41.124,194.145
		z"/>
	<path style="fill:#BB4547;" d="M215.052,100.293c-4.996-0.112-9.991-0.225-14.987-0.337c2.03-1.687,4.404-0.505,6.605-0.751
		c1.786-0.199,3.61-0.056,5.417-0.065C213.126,99.393,214.579,98.584,215.052,100.293z"/>
	<path style="fill:#BB4547;" d="M108.217,12.24c0.484-1.257,1.603-0.967,2.527-0.951c4.121,0.069,8.261-0.565,12.361,0.312
		C118.19,12.921,113.172,11.844,108.217,12.24z"/>
	<path style="fill:#BB4547;" d="M124.953,11.719c3.471-0.085,6.917,0.012,10.189,1.387c-2.649,0.013-5.298-0.01-7.945,0.056
		C126.062,13.191,125.269,12.874,124.953,11.719z"/>
	<path style="fill:#B9ADAD;" d="M225.57,113.27c0.888,3.593,0.863,7.188,0.019,10.784
		C225.091,120.461,225.106,116.866,225.57,113.27z"/>
	<path style="fill:#CB5254;" d="M26.078,92.175c0.033,3.639,0.066,7.278,0.1,10.917C24.712,100.01,24.673,95.64,26.078,92.175z"/>
	<path style="fill:#BA3538;" d="M44.036,117.311c-4.027,0.287-4.037,0.28-3.716-2.539C42.923,113.621,43.904,114.845,44.036,117.311
		z"/>
	<path style="fill:#B9ADAD;" d="M25.095,64.146c-0.046-2.294,0.132-4.45,3.038-4.921C27.728,61.24,26.851,62.964,25.095,64.146z"/>
	<path style="fill:#E0BCBA;" d="M211.026,123.211c-2.179-0.178-3.158-1.263-2.63-3.485
		C209.812,120.481,210.942,121.451,211.026,123.211z"/>
	<path style="fill:#E0BCBA;" d="M160.075,218.119c-1.437,2.041-3.589,2.152-5.785,2.147
		C155.955,218.84,157.969,218.356,160.075,218.119z"/>
	<path style="fill:#B9ADAD;" d="M42.143,42.202c-0.103-2.064,0.927-3.023,2.944-3.021C44.912,40.973,43.838,41.89,42.143,42.202z"/>
	<path style="fill:#E0BCBA;" d="M56.968,206.802c0.149,0.301,0.386,0.45,0.713,0.448c0.121,0.316,0.243,0.633,0.364,0.949
		c-1.451-0.01-3.095,0.251-2.917-2.063C55.741,206.359,56.354,206.581,56.968,206.802z"/>
	<path style="fill:#E0BCBA;" d="M109.101,226.168c-1.339,0.024-2.735,0.552-3.956-0.45
		C106.526,225.321,107.876,225.196,109.101,226.168z"/>
	<path style="fill:#B9ADAD;" d="M15.078,86.109c0.137-1.041-0.473-2.33,0.972-2.939C15.936,84.219,16.487,85.488,15.078,86.109z"/>
	<path style="fill:#BA3538;" d="M214.13,74.108c-0.018-0.921-0.037-1.843-0.055-2.764c1.314,0.551,1.08,1.71,1.09,2.774
		C214.82,74.114,214.475,74.111,214.13,74.108z"/>
	<path style="fill:#B9ADAD;" d="M16.08,83.123c0.138-1.047-0.48-2.345,0.98-2.954C16.908,81.212,17.474,82.493,16.08,83.123z"/>
	<path style="fill:#BA3538;" d="M55.169,117.378c-0.68-0.052-1.36-0.105-2.039-0.157c0.585-1.563,1.91-0.936,2.998-1.014
		C55.808,116.597,55.489,116.988,55.169,117.378z"/>
	<path style="fill:#E0BCBA;" d="M28.187,108.344c0.026,1.059-0.377,1.794-1.5,1.984C26.539,109.176,27.164,108.61,28.187,108.344z"
		/>
	<path style="fill:#B9ADAD;" d="M225.131,131.261c-0.095,0.932,0.327,1.948-0.451,2.768
		C224.258,133.013,224.174,132.052,225.131,131.261z"/>
	<path style="fill:#B9ADAD;" d="M224.202,137.196c1.402,0.96-0.199,1.25-0.413,1.85
		C223.268,138.283,223.441,137.674,224.202,137.196z"/>
	<path style="fill:#E0BCBA;" d="M55.128,206.138c-0.902,0.103-1.735,0.067-2.04-1.023C54.084,204.825,54.761,205.172,55.128,206.138
		z"/>
	<path style="fill:#E2DBDA;" d="M163.129,216.645c-0.154,0.402-0.308,0.804-0.463,1.206c-0.185-0.204-0.371-0.409-0.556-0.613
		C162.254,216.703,162.552,216.434,163.129,216.645z"/>
	<path style="fill:#B9ADAD;" d="M223.136,142.286c-0.014,0.638,0.132,1.321-0.506,1.782
		C222.297,143.332,222.372,142.711,223.136,142.286z"/>
	<path style="fill:#B9ADAD;" d="M17.082,80.134c-0.001-0.799-0.046-1.619,0.912-1.975C18.014,78.967,18.066,79.79,17.082,80.134z"/>
	<path style="fill:#B9ADAD;" d="M28.145,59.204c-0.017-0.571,0.266-0.911,0.81-1.05C29,58.747,28.734,59.1,28.145,59.204z"/>
	<path style="fill:#E0BCBA;" d="M34.927,187.24c-0.556-0.122-0.856-0.453-0.848-1.037C34.682,186.286,34.953,186.642,34.927,187.24z
		"/>
	<path style="fill:#B9ADAD;" d="M45.105,39.163c0.09-0.573,0.423-0.899,0.998-0.978C46.008,38.753,45.682,39.086,45.105,39.163z"/>
	<path style="fill:#E0BCBA;" d="M42.127,195.163c-0.629-0.051-0.97-0.385-1.007-1.02C41.745,194.197,42.07,194.547,42.127,195.163z"
		/>
	<path style="fill:#E0BCBA;" d="M45.167,198.111c-0.671-0.016-1.007-0.367-1.032-1.031
		C44.761,197.142,45.101,197.489,45.167,198.111z"/>
	<path style="fill:#E0BCBA;" d="M46.284,199.081c-0.698,0.043-1.079-0.28-1.13-0.982C45.781,198.14,46.159,198.465,46.284,199.081z"
		/>
	<path style="fill:#E0BCBA;" d="M48.18,201.169c-0.693-0.144-1.045-0.541-0.949-1.273C47.879,200.073,48.314,200.409,48.18,201.169z
		"/>
	<path style="fill:#B9ADAD;" d="M57.078,30.043c0.137-0.556,0.484-0.84,1.064-0.822C58.042,29.825,57.692,30.105,57.078,30.043z"/>
	<path style="fill:#BB4547;" d="M135.13,14.323c-0.367,0.823-0.72,0.806-1.061-0.017C134.423,14.312,134.776,14.318,135.13,14.323z"
		/>
	<path style="fill:#BB4547;" d="M136.493,14.07c-0.413,0.054-0.826,0.109-1.238,0.163c-0.03-0.376-0.061-0.752-0.091-1.127
		C135.861,13.077,136.176,13.575,136.493,14.07z"/>
	<path style="fill:#B9ADAD;" d="M24.079,66.06c0.182-0.279,0.364-0.559,0.546-0.838C24.855,65.77,24.593,65.997,24.079,66.06z"/>
	<path style="fill:#BA3538;" d="M183.161,34.074c-0.805,0.072-1.61,0.144-3.042,0.272c1.991,2.743,4.085,5.048,6.07,7.098
		c3.058,3.158,4.654,7.085,7.161,10.476c1.017,1.375,0.6,2.824,0.753,4.255c-2.524,2.79-3.652,6.262-4.503,9.864
		c-1.677-0.322-2.983-1.178-4.494-0.868c-0.341,0.001-0.682,0.002-1.023,0.003c0.002-0.343,0.004-0.686,0.005-1.029
		c0.104-3.656-0.971-7.097-1.736-10.62c-0.599-2.758-0.912-5.741-2.624-7.867c-2.757-3.424-3.568-6.553-0.371-10.003
		c-1.044-2.076-2.434-3.478-4.2-4.416c-1.305-0.694-2.149-1.511-2.078-3.051l0.214-0.195
		C176.914,29.483,180.752,30.619,183.161,34.074z"/>
	<path style="fill:#BB4547;" d="M169.142,25.1c-4.289,0.859-7.389-2.23-10.968-3.538c-6.257-2.285-12.46-4.584-19.109-5.329
		c-1.487-0.167-2.038-0.761-2.028-2.126c6.959,0.322,13.63,1.959,20.057,4.569c3.375,1.37,6.662,2.959,9.972,4.485
		C167.95,23.568,168.911,23.962,169.142,25.1z"/>
	<path style="fill:#BA3538;" d="M198.157,48.081c-2.584-0.207-4.018-1.476-3.879-4.199C196.178,44.721,197.76,45.853,198.157,48.081
		z"/>
	<path style="fill:#BA3538;" d="M206.959,59.182c-2.749-0.573-4.177-2.13-3.766-5.056C205.151,55.288,206.2,57.127,206.959,59.182z"
		/>
	<path style="fill:#BA3538;" d="M170.091,28.175c-0.347-1.013-1.364-1.821-0.94-3.07c1.897,0.222,3.676,0.614,4.144,2.888
		c0,0-0.214,0.195-0.214,0.195C172.084,28.184,171.087,28.179,170.091,28.175z"/>
	<path style="fill:#BA3538;" d="M203.161,54.073c-2.812,0.112-3.216-1.653-3.026-3.881C201.678,51.07,202.874,52.217,203.161,54.073
		z"/>
	<path style="fill:#BA3538;" d="M209.207,63.051c-1.735-0.393-2.281-1.504-1.911-3.166C208.379,60.67,209.201,61.614,209.207,63.051
		z"/>
	<path style="fill:#BA3538;" d="M211.164,66.083c-1.551-0.408-2.217-1.389-1.933-2.985
		C210.501,63.688,211.129,64.693,211.164,66.083z"/>
	<path style="fill:#BA3538;" d="M193.856,43.211c-0.803-0.041-1.608-0.079-1.617-1.195
		C193.031,42.072,193.778,42.189,193.856,43.211z"/>
	<path style="fill:#BB4547;" d="M184.965,35.216c-0.826-0.023-1.658-0.036-1.736-1.17C184.053,34.073,184.77,34.257,184.965,35.216z
		"/>
	<path style="fill:#BA3538;" d="M212.11,70.099c0.03-0.659,0.061-1.318,0.091-1.977c0.88,0.315,1.013,1.048,1.034,1.845
		l-0.174,0.307C212.751,70.181,212.434,70.122,212.11,70.099z"/>
	<path style="fill:#BA3538;" d="M212.181,68.08c-1.211-0.202-1.084-1.083-0.988-1.948C212.122,66.477,212.211,67.248,212.181,68.08z
		"/>
	<path style="fill:#BB4547;" d="M192.256,41.934c-0.712,0.105-1.019-0.204-0.934-0.914
		C191.884,41.068,192.191,41.377,192.256,41.934z"/>
	<path style="fill:#BB4547;" d="M191.245,40.942c-0.708,0.098-1.014-0.212-0.93-0.917C190.879,40.073,191.187,40.381,191.245,40.942
		z"/>
	<path style="fill:#BB4547;" d="M190.24,39.949c-0.699,0.097-1.009-0.215-0.956-0.909C189.853,39.08,190.181,39.373,190.24,39.949z"
		/>
	<path style="fill:#BA3538;" d="M200.082,50.129c-0.594-0.059-0.898-0.391-0.924-0.983C199.745,49.211,200.07,49.523,200.082,50.129
		z"/>
	<path style="fill:#BB4547;" d="M188.149,38.076c-0.623,0.014-0.958-0.287-0.997-0.912
		C187.736,37.192,188.058,37.508,188.149,38.076z"/>
	<path style="fill:#BB4547;" d="M187.102,37.117c-0.608-0.023-0.928-0.342-0.97-0.946C186.728,36.207,187.05,36.524,187.102,37.117z
		"/>
	<path style="fill:#BB4547;" d="M189.221,38.98c-0.662,0.089-0.989-0.22-1.029-0.869C188.755,38.139,189.117,38.406,189.221,38.98z"
		/>
	<path style="fill:#BA3538;" d="M199.123,49.11c-0.616-0.042-0.935-0.368-0.944-0.989C198.759,48.196,199.071,48.529,199.123,49.11z
		"/>
	<path style="fill:#9C2021;" d="M58.045,208.2c-0.121-0.316-0.243-0.633-0.364-0.949c1.111-0.02,2.292-0.424,3.276,0.375
		c0.941,0.765,1.771,1.628,0.146,2.58C59.394,210.588,59.4,208.357,58.045,208.2z"/>
	<path style="fill:#C72B2B;" d="M97.092,148.136c-0.654-1.43-1.959-0.981-3.02-0.932c-1.925,0.091-3.501-0.527-5.013-1.983
		c0.792-2.709,1.593-5.436,0.159-8.389c-1.067-2.195,1.276-4.328,0.887-6.663c4.952,0,9.903,0.02,14.855-0.018
		c1.089-0.008,2.356,0.452,3.141-0.815c0.821-0.148,1.994-0.329,1.912-1.221c-0.242-2.642,1.43-5.539-0.946-7.915
		c-0.319-0.09-0.637-0.181-0.956-0.271c0.028-0.864,0.056-1.727,0.084-2.591c0.361-0.326,0.723-0.651,1.084-0.977
		c0.334-0.33,0.668-0.661,1.002-0.991c2.01-0.547,3.468,0.377,4.577,1.552c0.788,2.225-0.662,4.543,1.124,6.355
		c0.644,1.88-1.189,4.305,1.271,5.786l-0.055-0.054c0.156,0.712,0.59,1.132,1.324,1.134c3.414,0.009,6.828,0.013,10.241-0.016
		c0.726-0.006,1.136-0.503,1.313-1.188c1.641-2.82,0.371-5.927,0.872-8.859c2.03-0.589,2.185,2.528,4.137,2.094l0.008,0.012
		c-0.137,1.651,0.584,2.619,2.253,2.832c0.286,0.306,0.572,0.612,0.858,0.919c-0.011,0.639-0.265,1.435,0.389,1.81
		c2.095,1.201,4.089,2.516,6.746,2.439c5.24-0.151,10.488-0.035,15.733-0.029c0,1.814,0,3.628,0,4.905
		c0.977,2.047,2.519,2.582,3.86,2.945c3.526,0.953,5.304,3.718,7.223,6.363c1.649,2.272,0.943,4.683-0.018,7.218
		c2.471,1.063,3.969,2.952,4.813,5.427c-0.284,0.899-0.586,1.826-0.869,2.758c-1.377,4.537-3.859,7.79-8.862,8.906
		c-4.256,0.949-8.203,3.541-12.822,2.109c-1.814-0.629-0.629-3.401-2.751-3.78c0.395-3.331,1.378-6.688-0.453-9.918l-0.008,0.028
		c0.054-1.712-0.507-3.098-2.089-3.943c-1.373-2.215-3.269-3.677-5.893-4.087l-0.039,0.008c-0.46-0.888-1.216-0.858-2.028-0.654
		c-2.006-0.56-4.029-0.451-6.057-0.156c-0.656-0.283-1.312-0.286-1.969-0.005c-5.346-0.365-10.693-0.333-16.038,0.013
		c-4.651-0.405-9.302-0.415-13.953,0.009c-1.706-0.308-3.402-0.363-5.073,0.205C97.729,148.383,97.41,148.259,97.092,148.136z"/>
	<path style="fill:#C72B2B;" d="M72.015,114.146c0.774-5.352,0.661-10.527-2.696-15.167c-1.448-2.001-4.01-2.782-5.238-4.983
		c0.003-0.781,0.008-1.564-0.977-1.813l-0.018-0.021c0.188-2.702-0.853-5.076-3.041-6.378c-4.765-2.835-5.627-7.673-6.891-12.318
		c-0.295-1.082-0.376-2.233-1.111-3.152c1.215-2.351,2.173-4.506,2.148-7.119c-0.023-2.484,1.492-4.643,2.998-6.59
		c1.493-1.931,2.113-4.038,1.912-6.432c3.874,0.671,2.548,4.007,3.429,6.989c4.708,0,9.635,0,14.562,0
		c-0.563,4.651,0.993,9.091,1.232,13.48c2.53,3.275,6.108,2.291,8.95,2.592c2.262,1.397,3.066,3.325,3.842,5.37
		c1.998,5.269,2.889,11.053,7.241,15.252c1.013,0.978,2.401,1.837,2.661,3.488c-0.343,0.565-0.686,1.128-1.028,1.691
		c-3.772,0.039-7.545,0.027-11.314,0.147c-1.216,0.039-2.679-0.589-3.573,0.879c-0.969,0.361-1.597,1.108-2.173,1.914l0.013-0.02
		c-1.674,0.069-3.138,0.523-3.953,2.162c-1.291,0.738-2.341,1.696-2.859,3.138c-0.546,0.101-0.848,0.342-0.538,0.936
		c-0.2,0.601-0.4,1.203-0.6,1.804c-1.883,2.153-0.361,4.806-1.045,7.135c-0.57-0.322-1.139-0.643-1.709-0.965
		C72.164,115.494,72.09,114.82,72.015,114.146z"/>
	<path style="fill:#C72B2B;" d="M185.106,65.171c1.511-0.311,2.817,0.545,4.494,0.868c0.852-3.602,1.98-7.074,4.503-9.864
		c2.39,1.413,2.022,4.082,2.48,6.18c2.025,9.266,2.845,18.603-0.578,27.763c-1.044,2.795-2.41,5.518-5.882,6.075
		c-0.554-2.298,1.073-4.923-1.046-6.987l-0.385,0.106c0.272-0.632-0.129-0.911-0.604-1.151c-0.74-1.318-1.386-1.371-1.915,0.143
		l0.044,0.017c-3.305-0.11-6.407,1.422-9.576,0.963c-1.509,1.604-3.568,2.465-3.527,4.859c0,1.139,0,2.278,0,3.324
		c-1.445,1.342-2.723,2.528-4,3.715c-0.887-0.183-1.644-1.134-2.678-0.454l-0.409-0.235c-0.193-1.301-1.179-1.317-2.162-1.331
		c-3.219-0.047-6.439-0.091-9.658-0.137c-1.016-4.656,3.531-3.242,5.315-4.828c1.154-1.176-0.026-3.071,1.289-4.195
		c1.183-1.05,2.737-1.494,4.041-2.453c2.844-2.091,6.102-3.935,10.063-3.414c2.995,0.394,5.873-0.256,8.893-2.083
		c1.147-4.02,3.42-8.116,1.437-12.925C184.775,67.983,185.131,66.499,185.106,65.171z"/>
	<path style="fill:#E2DBDA;" d="M138.206,125.935c-0.286-0.306-0.572-0.612-0.858-0.919c-0.307-1.298-0.935-2.339-2.253-2.832
		l-0.008-0.012c-1.021-3.263-1.579-6.573-1.013-9.997c0.813,0.052,1.626,0.104,2.252,0.144c1.302,1.069,0.176,2.84,1.755,3.827
		c1.82-0.44,3.837-0.927,5.655-1.366c0.861-3.089,2.165-5.161,5.611-4.449c-0.224,0.241-0.413,0.531-0.676,0.715
		c-2.088,1.463-3.332,3.338-2.455,5.939c0.964,2.858,3.346,3.397,6.02,3.293c4.303-0.168,8.62,0.334,12.915-0.25
		c0.638,0.006,1.275,0.012,1.913,0.019c0.344,0.039,0.688,0.078,1.032,0.117c0,0,0.01,0.004,0.01,0.004
		c0.142,0.522,0.45,0.872,1.002,0.97l0.013,0.031c-0.294,2.003-0.426,4.007-0.005,6.011l-0.003,0.012
		c-1.319,1.234-2.939,1.23-4.607,1.213c-4.106-0.042-8.212,0.003-12.319-0.007c-4.085-0.01-8.207,0.299-12.131-1.266
		c-0.124-0.347-0.285-0.645-0.739-0.551C138.947,126.366,138.576,126.15,138.206,125.935z"/>
	<path style="fill:#EDE9E9;" d="M119.857,167.219c-0.533,0.005-1.065,0.01-1.598,0.015c0.053-0.676,0.106-1.353,0.159-2.029
		c0.687-0.34,0.712-0.693,0.021-1.061c-0.137-3.277-0.274-6.554-0.41-9.831c-2.553-1.899-4.032-1.586-4.827,1.023
		c-0.055,2.942-0.111,5.884-0.166,8.826c-3.288,1.545-6.575,1.553-9.861-0.004c-0.722-3.203,0.299-6.56-0.686-9.704
		c-1.594-0.587-2.987-0.868-4.706,0.857c0,3.326,0,7.099,0,10.873c-3.178-0.36-0.671-3.48-2.458-4.727
		c-2.58-1.291-5.102,0.679-7.778,0.755c-0.492-1.013-0.411-2.021,0.028-3.025c0.441-0.609,2-0.936,0.512-2.031
		c0.073-0.786,0.277-1.508,0.965-1.997c1.098-0.38,2.016-0.889,1.651-2.313l0.055-0.079c0.694,0.36,1.108,0.03,1.413-0.572
		c0.894-0.302,0.957-1.06,1.003-1.828l0.056-0.145c0.732-0.033,1.497,0.017,1.909-0.79l0.201-0.172
		c0.923-0.18,2.031,0.307,2.71-0.753c1.671-0.568,3.367-0.512,5.073-0.205c2.171,2.145,5.167-0.168,7.708,1.557
		c-4.565,0.998-9.193-0.57-14.263,1.206c2.939,1.884,5.548,0.53,7.785,1.351c3.233,3.84,3.452,3.835,8.836-0.273
		c3.043,0.434,6.652-1.171,9.039,2.275c-0.222,0.93-0.444,1.86-0.666,2.791c-1.162,2.22-0.398,4.411,0.129,6.603
		C120.968,164.902,119.781,165.726,119.857,167.219z"/>
	<path style="fill:#BB4547;" d="M165.151,120.029c-4.296,0.584-8.612,0.083-12.915,0.25c-2.673,0.104-5.056-0.435-6.02-3.293
		c-0.877-2.601,0.367-4.476,2.455-5.939c0.263-0.184,0.453-0.474,0.676-0.715l0.395,0.038l0.358-0.172
		c1.327-0.028,2.654-0.056,3.981-0.084c1.003,0.036,2.007,0.073,3.01,0.109c0.251,0.203,0.538,0.311,0.86,0.326
		c-0.117,1.258-0.919,2.063-1.84,2.791c-1.705,0.868-2.187,2.524-3.277,4.384c4.841,0.393,9.091,0.341,13.34-0.237
		C165.699,118.28,164.881,118.936,165.151,120.029z"/>
	<path style="fill:#BB4547;" d="M173.116,94.141c-0.041-2.394,2.018-3.255,3.527-4.859c3.169,0.459,6.272-1.073,9.576-0.963
		c-0.013,0.283-0.075,0.555-0.186,0.816c-1.648,0.081-3.071,0.626-4.103,1.981c-0.314-0.03-0.605,0.038-0.873,0.205
		c-1.092,0.059-2.382-0.653-3.114,0.803c-0.306-0.017-0.592,0.051-0.858,0.205c-0.636,0.004-1.333-0.193-1.731,0.496
		c0,9.804,0,19.572,0,29.339c-0.173,1.747-0.846,3.543,0.495,5.145l0.001,0.102c0.105,0.564,0.21,1.127,0.315,1.691
		c-2.47,0.243-2.064-1.552-2.069-2.984c-0.034-9.128,0.001-18.257-0.104-27.385C173.975,97.203,174.859,95.384,173.116,94.141z"/>
	<path style="fill:#BB4547;" d="M138.206,125.935c0.371,0.215,0.741,0.431,1.112,0.646c0.162,0.287,0.408,0.47,0.739,0.551
		c3.924,1.565,8.046,1.256,12.131,1.266c4.106,0.01,8.213-0.034,12.319,0.007c1.668,0.017,3.289,0.02,4.607-1.213
		c-0.048,0.804-0.096,1.609-0.152,2.549c-2.672,0.752-5.304,0.244-7.888,0.414c-5.245-0.006-10.493-0.122-15.733,0.029
		c-2.657,0.077-4.651-1.238-6.746-2.439C137.941,127.37,138.194,126.574,138.206,125.935z"/>
	<path style="fill:#E2DBDA;" d="M166.175,117.486c-4.249,0.578-8.5,0.63-13.34,0.237c1.09-1.86,1.572-3.516,3.277-4.384
		c0.111,0.93-0.309,2.02,0.806,2.675c2.93,0,5.87,0,8.343,0c4.651-2.636,5.027-6.693,4.947-10.94
		c0.298,0.034,0.597,0.057,0.896,0.069l0.014,0.031c0.047,2.345,0.094,4.689,0.141,7.034
		C170.098,114.482,168.672,116.5,166.175,117.486z"/>
	<path style="fill:#CB5254;" d="M109.067,120.2c2.376,2.375,0.704,5.273,0.946,7.915c0.082,0.893-1.091,1.073-1.912,1.221
		c-8.001-0.049-16.002-0.098-24.002-0.147c-1.386-0.051-2.465-0.574-2.99-1.947c0.351-0.1,0.702-0.2,1.053-0.299
		c2.107,1.077,4.35,1.34,6.695,1.314c5.427-0.06,10.856,0.014,16.284-0.027c1.261-0.009,2.655,0.418,3.757-0.754
		c0.509-1.735,0.268-3.541,0.235-5.336C109.11,121.493,109.088,120.847,109.067,120.2z"/>
	<path style="fill:#E0BCBA;" d="M111.075,175.172c0.29-0.677,0.809-0.99,1.54-0.99c4.655,0.003,9.31,0.003,13.965,0.001
		c0.731,0,1.248,0.318,1.536,0.995C122.436,176.319,116.755,176.303,111.075,175.172z"/>
	<path style="fill:#E0BCBA;" d="M73.948,117.133c0.684-2.329-0.838-4.981,1.045-7.135c0.704,2.013-0.862,4.387,0.986,6.219
		c-0.574,4.157,2.999,6.392,4.454,9.608c-0.122,0.126-0.244,0.252-0.365,0.38C76.025,124.532,75.275,120.638,73.948,117.133z"/>
	<path style="fill:#BA3538;" d="M84.098,129.189c8.001,0.049,16.002,0.098,24.002,0.147c-0.785,1.267-2.052,0.806-3.141,0.815
		c-4.951,0.038-9.903,0.017-14.855,0.018C88.114,129.771,85.835,131.143,84.098,129.189z"/>
	<path style="fill:#E0BCBA;" d="M141.022,174.994c0.065-0.315,0.052-0.858,0.207-0.912c3.188-1.1,5.63-3.461,8.551-5.003
		C148.434,173.38,145.096,174.733,141.022,174.994z"/>
	<path style="fill:#E0BCBA;" d="M150.106,168.178c-0.395-3.053,1.678-5.863,0.878-8.956c0.07-0.711,0.141-1.423,0.211-2.134
		c1.831,3.229,0.847,6.587,0.453,9.918C151.134,167.396,150.62,167.787,150.106,168.178z"/>
	<path style="fill:#BB4547;" d="M176.142,129.096c3.952-0.027,7.905-0.054,11.857-0.081c-0.06,0.155-0.097,0.431-0.184,0.448
		C183.899,130.23,179.972,131.14,176.142,129.096z"/>
	<path style="fill:#E0BCBA;" d="M92.234,172.09c2.268,0.359,4.787,0.193,5.951,2.853C95.626,175.192,93.576,174.38,92.234,172.09z"
		/>
	<path style="fill:#BB4547;" d="M171.259,112.208c-0.047-2.345-0.094-4.689-0.141-7.034
		C172.879,107.485,172.638,109.835,171.259,112.208z"/>
	<path style="fill:#BB4547;" d="M169.116,127.18c-0.421-2.004-0.29-4.007,0.005-6.011
		C170.461,123.696,170.461,124.644,169.116,127.18z"/>
	<path style="fill:#E0BCBA;" d="M72.015,114.146c0.075,0.674,0.149,1.348,0.224,2.022c-0.429,0.577-0.302,1.573-1.298,1.722
		c0.048-1.239,0.096-2.478,0.144-3.718C71.395,114.153,71.705,114.144,72.015,114.146z"/>
	<path style="fill:#E0BCBA;" d="M88.42,167.058c1.585,0.19,1.834,1.152,1.438,2.488C88.778,169.064,88.105,168.347,88.42,167.058z"
		/>
	<path style="fill:#BA3538;" d="M189.259,119.211c-0.207-0.633-0.315-1.251,0.276-1.777c0.67,0.446,1.44,0.798,1.633,1.708
		C190.532,119.165,189.896,119.188,189.259,119.211z"/>
	<path style="fill:#E0BCBA;" d="M88.087,157.155c1.488,1.095-0.071,1.422-0.512,2.031C87.215,158.376,87.075,157.62,88.087,157.155z
		"/>
	<path style="fill:#E2DBDA;" d="M98.048,148.507c-0.678,1.06-1.787,0.573-2.71,0.753c0.094-1.14,1.223-0.665,1.754-1.124
		C97.41,148.259,97.729,148.383,98.048,148.507z"/>
	<path style="fill:#E0BCBA;" d="M90.702,152.845c0.365,1.424-0.552,1.933-1.651,2.313C89.034,153.982,89.564,153.197,90.702,152.845
		z"/>
	<path style="fill:#BA3538;" d="M189.192,124.182c-0.302-1.01-0.285-2.015,0.043-3.016
		C190.485,122.189,190.503,123.195,189.192,124.182z"/>
	<path style="fill:#E0BCBA;" d="M66.942,123.674c0.057-1.013,0.58-1.579,1.601-1.664C68.645,123.176,68.073,123.693,66.942,123.674z
		"/>
	<path style="fill:#BB4547;" d="M166.438,100.726c1.033-0.68,1.79,0.271,2.678,0.454c0.094,0.331,0.188,0.663,0.282,0.994
		c0,0-0.45,0.123-0.45,0.123c-0.579-0.086-1.159-0.172-1.738-0.258c0,0,0.018-0.026,0.018-0.026
		C166.965,101.584,166.701,101.155,166.438,100.726z"/>
	<path style="fill:#E0BCBA;" d="M69.949,119.856c-0.017-0.749,0.06-1.448,0.91-1.743C71.076,118.965,71.014,119.672,69.949,119.856z
		"/>
	<path style="fill:#BB4547;" d="M171.105,105.143c-0.3-0.012-0.598-0.035-0.896-0.069l-0.016,0.015
		c-0.068-0.591-0.136-1.183-0.204-1.774l0.104-0.444C170.979,103.383,171.258,104.167,171.105,105.143z"/>
	<path style="fill:#E0BCBA;" d="M82.161,126.943c-0.351,0.1-0.702,0.2-1.053,0.299c-0.347-0.346-0.693-0.692-1.04-1.038
		c0.121-0.127,0.242-0.254,0.365-0.38C81.051,126.133,81.854,126.154,82.161,126.943z"/>
	<path style="fill:#BA3538;" d="M189.024,128.129c0.05-0.656,0.099-1.312,0.149-1.969
		C190.365,126.911,190.406,127.574,189.024,128.129z"/>
	<path style="fill:#E2DBDA;" d="M95.137,149.432c-0.412,0.806-1.177,0.757-1.909,0.79C93.37,148.764,94.404,149.463,95.137,149.432z
		"/>
	<path style="fill:#E2DBDA;" d="M93.172,150.367c-0.045,0.768-0.109,1.525-1.003,1.828c-0.016-0.308-0.025-0.616-0.029-0.924
		C92.315,150.776,92.632,150.444,93.172,150.367z"/>
	<path style="fill:#E0BCBA;" d="M92.141,151.271c0.003,0.308,0.013,0.616,0.029,0.924c-0.304,0.602-0.719,0.932-1.413,0.572
		C90.879,151.954,91.276,151.396,92.141,151.271z"/>
	<path style="fill:#BB4547;" d="M168.097,120.165c-0.344-0.039-0.688-0.078-1.032-0.117
		C167.519,119.103,167.848,119.276,168.097,120.165z"/>
	<path style="fill:#BB4547;" d="M169.108,121.139c-0.552-0.098-0.86-0.448-1.002-0.97
		C168.752,120.171,169.096,120.484,169.108,121.139z"/>
	<path style="fill:#E0BCBA;" d="M65.129,125.309l0.214-0.187c0.098,0.093,0.296,0.242,0.279,0.271
		C65.404,125.783,65.228,125.748,65.129,125.309z"/>
	<path style="fill:#E0BCBA;" d="M63.048,126.547c0.275-0.159,0.551-0.318,0.826-0.476C63.874,126.706,63.663,126.976,63.048,126.547
		z"/>
	<path style="fill:#BA3538;" d="M187.998,129.094c0.144-0.545,0.498-0.868,1.045-0.985
		C189.022,128.783,188.669,129.107,187.998,129.094z"/>
	<path style="fill:#C72B2B;" d="M169.398,102.174c0.231,0.232,0.463,0.464,0.694,0.696l-0.104,0.444
		c-0.347-0.339-0.693-0.678-1.04-1.018L169.398,102.174z"/>
	<path style="fill:#E0BCBA;" d="M91.193,171.133c0.598,0.002,0.911,0.31,0.966,0.897C91.502,172.091,91.162,171.812,91.193,171.133z
		"/>
	<path style="fill:#E0BCBA;" d="M87.587,164.036c0.255-0.032,0.494,0.014,0.718,0.139c-0.128,0.333-0.087,0.644,0.123,0.933
		l-0.403,0.103C87.433,164.986,87.206,164.624,87.587,164.036z"/>
	<path style="fill:#DB4343;" d="M184.089,64.146c-0.002,0.343-0.004,0.686-0.005,1.029c-0.953,0.371-0.824,1.224-1.033,2.018
		c-1.149,4.379-2.961,8.609-6.795,11.124c-4.299,2.82-9.45,3.975-14.472,4.71c-2.966,0.434-5.188,1.411-7.433,3.285
		c-3.945,3.293-5.575,7.965-8.171,12.022c1.241,1.33,2.663,0.614,3.901,0.867l0,0.493c-2.656,0.92-5.853,0.014-8.078,2.391
		l0.032-0.003c-1.569,0.176-2.99,0.614-3.803,2.137c-0.625,0.105-0.989,0.47-1.09,1.096c-1.681,0.246-1.707,2.198-2.967,2.879
		c-1.788,0.722-0.656,3.665-3.01,3.956c0.012-7.224,0.046-14.449-0.015-21.672c-0.004-0.448,0.961-2.203-1.038-1.421
		c-1.312,0.287-2.734-0.469-3.983,0.419c-2.903,0.353-5.668,1.142-8.219,2.605c-0.309-0.11-0.563-0.034-0.762,0.227
		c-0.298-0.064-0.599-0.089-0.903-0.077c-1.616,0.479-1.028,1.832-1.143,2.9c-0.24,2.23,0.48,4.56-0.475,6.775
		c-1.86-0.069-1.968-1.786-2.971-2.553c-5.825-4.456-11.732-8.952-10.723-17.603c-2.417-6.525,0.97-12.035,3.011-17.778
		c0.573-1.296-1.464-2.306-0.055-4.053c2.117-0.87,3.806-2.941,5.729-4.747c3.459-3.248,7.226-5.555,12.351-5.071
		c3.772,0.356,7.605,0.07,11.429,0.07c1.586-2.326,2.43-4.544,1.124-7.076c-0.49-0.951-0.381-1.929-0.43-2.912
		c5.223-3.273,10.594-4.441,16.379-1.086c1.436,2.236,0.54,4.029-1.366,5.498c-3.205,2.47-4.096,5.97-5.133,9.684
		c-1.355,4.853,0.315,9.415,0.262,13.852c4.162,7.41,11.019,10.24,19.618,11.602c1.299-0.625,3.498-1.739,5.743-2.749
		c5.589-2.514,9.728-6.2,10.583-12.668c0.142-1.075,1.086-1.085,1.912-1.17C182.376,64.239,183.247,64.164,184.089,64.146z"/>
	<path style="fill:#CF3C3D;" d="M134.091,40.183c0.049,0.983-0.06,1.962,0.43,2.912c1.306,2.532,0.462,4.75-1.124,7.076
		c-3.825,0-7.657,0.286-11.429-0.07c-5.126-0.484-8.893,1.823-12.351,5.071c-1.923,1.806-3.612,3.877-5.729,4.747
		c-1.41,1.746,0.628,2.756,0.055,4.053c-2.041,5.743-5.427,11.253-3.011,17.778c-1.009,8.65,4.898,13.147,10.723,17.603
		c1.003,0.767,1.111,2.483,2.971,2.553c0.955-2.215,0.236-4.545,0.475-6.775c0.115-1.068-0.473-2.421,1.143-2.9
		c0.017,10.257,0.034,20.513,0.051,30.77l-0.313,0.276c-1.787-1.812-0.336-4.13-1.124-6.355c-1.109-1.174-2.567-2.099-4.577-1.552
		l-0.153-0.173c0.004-0.297,0.026-0.593,0.067-0.888c2.24-2.218,2.628-4.751,1.292-7.578c-0.102-0.527-0.205-1.054-0.307-1.581
		c0.026-0.867-0.08-1.651-1.154-1.821l-0.087-0.087c-0.205-1.739-2.126-1.672-2.929-2.783c-0.131-0.995-0.792-1.273-1.687-1.288
		c-1.777-0.031-3.554-0.087-5.332-0.133c0.342-0.563,0.685-1.126,1.028-1.691c-0.26-1.651-1.648-2.511-2.661-3.488
		c-4.352-4.199-5.243-9.984-7.241-15.252c-0.775-2.045-1.58-3.973-3.842-5.37c-2.842-0.301-6.419,0.683-8.95-2.592
		c-0.239-4.389-1.795-8.829-1.232-13.48c2.968-2.298,4.054-6.065,6.789-8.867c-0.367-2.563-2.114-4.548-4.36-5.844
		c-1.549-0.894-1.374-2.007-1.431-3.272c3.913-0.344,7.452,1.393,10.879,2.658c3.35,1.237,6.755,2.487,10.123,3.695
		c4.9,1.757,9.542,0.092,13.866-2.416c0.171-0.099,0.094-0.628,0.133-0.956c3.575,0.309,7.17-0.454,10.779,0.676
		c1.255,0.393,3.104-0.71,4.544-1.412C130.238,40.536,132.054,39.94,134.091,40.183z"/>
	<path style="fill:#DE7375;" d="M163.814,77.174c-2.701-0.743-5.104-1.284-7.424-2.067c-6.109-2.06-11.122-9.242-10.146-15.397
		c0.667-4.21,2.649-8.126,5.384-11.533c0.835-1.04,1.69-2.064,2.34-2.857c3.737,0,6.887,0,10.249,0
		c4.332,2.565,8.808,5.173,11.681,10.007c4.982,8.382,1.086,16.223-6.459,19.553C167.666,75.662,165.833,76.46,163.814,77.174z
		 M164.73,52.109c-2.752,0.758-5.982,1.094-9.146,1.189c-1.458,9.948-0.086,12.959,7.29,15.975c2.197-1.898,5.266-0.434,8.016-1.426
		C171.583,61.708,171.858,55.965,164.73,52.109z"/>
	<path style="fill:#BB4547;" d="M184.089,64.146c-0.842,0.019-1.713,0.094-1.999-1c-0.219-8.008-2.763-14.951-8.893-20.446
		c-2.282-2.046-4.724-4.06-6.298-6.858c1.08-2.678,3.674-4.567,3.191-7.667c0.997,0.004,1.993,0.009,2.99,0.013
		c-0.071,1.541,0.774,2.358,2.078,3.051c1.765,0.939,3.156,2.34,4.2,4.416c-3.197,3.45-2.386,6.579,0.371,10.003
		c1.712,2.126,2.025,5.109,2.624,7.867C183.118,57.048,184.193,60.49,184.089,64.146z"/>
	<path style="fill:#BB4547;" d="M189.079,89.204c2.119,2.064,0.492,4.689,1.046,6.987c0,4.128,0,8.255,0,12.344
		c0.813,0.365,1.303-0.218,1.889-0.444c0.13,0.128,0.259,0.256,0.389,0.383c-0.115,0.559-0.231,1.118-0.346,1.677
		c-0.946,0.619-0.946,1.715-1.324,2.621c-0.467,0-0.934,0-1.988,0c0-3.922,0-7.762,0-11.602
		C188.856,97.182,188.967,93.193,189.079,89.204z"/>
	<path style="fill:#BB4547;" d="M194.13,106.212c-0.304,0.735-0.608,1.47-0.913,2.206c-0.281-0.116-0.553-0.097-0.815,0.057
		c-0.13-0.128-0.259-0.255-0.389-0.383C192.113,106.782,192.691,106.012,194.13,106.212z"/>
	<path style="fill:#BB4547;" d="M194.95,106.095l-0.397,0.132l-0.418-0.018c-0.155-0.893-0.039-1.676,0.87-2.136
		c0.123,0.129,0.248,0.256,0.375,0.382C195.237,105.001,195.094,105.548,194.95,106.095z"/>
	<path style="fill:#9C2021;" d="M212.11,70.099c0.324,0.024,0.641,0.082,0.952,0.174c-0.002,0.571,0.144,1.197-0.559,1.505
		C211.997,71.309,212.126,70.687,212.11,70.099z"/>
	<path style="fill:#BB4547;" d="M197.133,102.222c-0.054,0.59-0.36,0.941-0.959,1.013
		C196.181,102.602,196.508,102.271,197.133,102.222z"/>
	<path style="fill:#BB4547;" d="M199.161,100.2c-0.146,0.552-0.495,0.874-1.066,0.948C198.178,100.526,198.534,100.21,199.161,100.2
		z"/>
	<path style="fill:#BB4547;" d="M196.17,103.249c0.053,0.337,0.106,0.675,0.159,1.012l-0.108,0.147
		c-0.288-0.115-0.568-0.1-0.842,0.046c-0.127-0.125-0.252-0.252-0.375-0.382C195.224,103.558,195.568,103.222,196.17,103.249z"/>
	<path style="fill:#BB4547;" d="M198.073,101.173c-0.036,0.589-0.335,0.944-0.927,1.034
		C197.161,101.599,197.481,101.264,198.073,101.173z"/>
	<path style="fill:#C72B2B;" d="M59,92.259c0.009-0.342,0.018-0.684,0.027-1.026c1.516-0.401,2.571,1.212,4.06,0.93
		c0,0,0.018,0.021,0.018,0.021c-0.022,0.372-0.044,0.744-0.065,1.116C61.829,92.424,60.07,93.68,59,92.259z"/>
	<path style="fill:#EDE9E9;" d="M58.859,114.074c0.151-1.642,0.301-3.284,0.452-4.927c1.201-1.005,0.997-1.619-0.52-1.866
		c-0.559-0.715-1.117-1.43-1.676-2.145c0.694-1.968,2.301-1.981,4.011-1.989c2.743-0.012,5.538,0.411,8.276-0.839
		c1.752,3.837,1.885,7.821,1.63,11.861C66.973,114.138,62.916,114.106,58.859,114.074z"/>
	<path style="fill:#B12325;" d="M63.039,93.299c0.022-0.372,0.044-0.744,0.065-1.116c0.985,0.249,0.98,1.031,0.977,1.813
		C63.449,94.19,63.151,93.884,63.039,93.299z"/>
	<path style="fill:#E0BCBA;" d="M195.38,104.454c0.273-0.146,0.554-0.161,0.842-0.046c-0.056,0.839-0.202,1.611-1.271,1.687
		C195.094,105.548,195.237,105.001,195.38,104.454z"/>
	<path style="fill:#E0BCBA;" d="M192.403,108.474c0.262-0.153,0.534-0.172,0.815-0.057c-0.033,0.815-0.173,1.558-1.161,1.733
		C192.172,109.592,192.287,109.033,192.403,108.474z"/>
	<path style="fill:#EDE9E9;" d="M189.079,89.204c-0.112,3.989-0.223,7.977-0.335,11.966c-1.347,1.607-0.54,3.501-0.637,5.252
		c-0.374,6.729,0.816,13.557-1.343,20.279c-3.55,1.072-7.133,2.205-10.913,0.71l-0.001-0.102c0.128-1.743,0.887-3.547-0.495-5.145
		c0-9.768,0-19.535,0-29.339c0.398-0.689,1.095-0.492,1.731-0.496c0.004,1.815,0.129,3.639-0.018,5.442
		c-0.214,2.64,0.73,4.444,3.813,5.621c1.307-2.026,3.968-0.604,6.138-1.822c-0.091-3.482,0.58-6.883-0.505-10.454
		c-1.626,0-3.105,0-4.584,0c1.032-1.356,2.455-1.901,4.103-1.981c0.887,0.058,1.774,0.117,2.661,0.175L189.079,89.204z"/>
	<path style="fill:#E2DBDA;" d="M58.79,107.282c1.517,0.247,1.722,0.861,0.52,1.866C59.137,108.526,58.964,107.904,58.79,107.282z"
		/>
	<path style="fill:#CF3C3D;" d="M150.08,99.201c-1.238-0.252-2.66,0.464-3.901-0.867c2.596-4.056,4.227-8.729,8.171-12.022
		c2.246-1.875,4.467-2.851,7.433-3.285c5.022-0.735,10.172-1.89,14.472-4.71c3.834-2.515,5.646-6.744,6.795-11.124
		c0.208-0.794,0.079-1.648,1.033-2.018c0.341-0.001,0.682-0.002,1.023-0.003c0.025,1.327-0.332,2.812,0.14,3.955
		c1.984,4.808-0.29,8.905-1.437,12.925c-3.02,1.826-5.898,2.476-8.893,2.083c-3.96-0.521-7.219,1.323-10.063,3.414
		c-1.304,0.959-2.858,1.403-4.041,2.453c-1.315,1.124-0.135,3.019-1.289,4.195c-1.784,1.586-6.331,0.172-5.315,4.828
		C152.833,99.082,151.457,99.141,150.08,99.201z"/>
	<path style="fill:#E2DBDA;" d="M151.195,157.088c-0.07,0.711-0.141,1.423-0.211,2.134c-1.298,0.007-2.94-0.488-3.825,0.12
		c-2.189,1.503-4.019-0.064-5.995-0.119c-0.046-0.386-0.092-0.772-0.138-1.158c-0.013-0.562-0.025-1.123-0.038-1.685
		c0.097-0.601-0.118-1.019-0.711-1.217c-1.154-1.236-2.832-1.005-4.244-1.517c-4.007-0.553-8.024-1.392-11.946,0.429
		c-0.62,0.114-1.24,0.228-1.86,0.342c-2.387-3.445-5.996-1.841-9.039-2.275c-5.385,4.108-5.604,4.113-8.836,0.273
		c-2.237-0.821-4.846,0.533-7.785-1.351c5.07-1.776,9.698-0.208,14.263-1.206c-2.541-1.724-5.537,0.588-7.708-1.557
		c4.651-0.424,9.302-0.414,13.953-0.009c-0.167,1.35-2.21,0.269-2.344,1.883c8.534,0,16.997,0.006,25.46-0.007
		c1.118-0.002,2.386,0.318,3.017-1.082c2.624,0.411,4.52,1.872,5.893,4.087c0.143,1.607,0.535,3.083,2.089,3.943
		C151.188,157.116,151.195,157.088,151.195,157.088z"/>
	<path style="fill:#BA3538;" d="M108.195,117.338c-0.028,0.864-0.056,1.727-0.084,2.591c-4.896,0.08-9.798,0.054-14.687,0.285
		c-2.453,0.116-4.426-0.708-6.297-2.091c-0.027-0.342-0.155-0.64-0.384-0.896c0.242-0.571,0.078-0.996-0.463-1.286
		c0.086-0.247,0.087-0.495,0.004-0.744c0.972-0.713,0.769-1.897,1.143-2.85c0.28-0.284,0.56-0.567,0.841-0.851
		c0.815-0.173,1.613-0.377,2.111-1.138l0.372,0.04l0.355-0.12c2.291,0.029,4.581,0.059,6.872,0.088l-0.062-0.017
		c0.152,0.279,0.303,0.558,0.455,0.837c-0.752,1.004-1.504,2.007-2.256,3.011c-2.24,0.004-2.304,1.789-3.178,3.959
		c4.015,0,7.58,0,11.145,0c1.1,0.025,2.301,0.442,3.078-0.791c0.27-0.187,0.568-0.26,0.894-0.22L108.195,117.338z"/>
	<path style="fill:#EDE9E9;" d="M143.206,149.086c-0.631,1.401-1.899,1.081-3.017,1.082c-8.463,0.013-16.926,0.007-25.46,0.007
		c0.135-1.613,2.178-0.533,2.344-1.883c5.346-0.345,10.692-0.377,16.038-0.013c0.654,1.155,1.31,1.148,1.969,0.005
		c2.028-0.296,4.051-0.405,6.057,0.156c0.458,0.893,1.253,0.743,2.028,0.654L143.206,149.086z"/>
	<path style="fill:#E0BCBA;" d="M130.949,120.078c-0.5,2.932,0.77,6.039-0.872,8.859c-4.293,0.024-8.586,0.047-12.878,0.071
		c0,0,0.055,0.054,0.055,0.054c-0.003-0.66-0.006-1.321-0.009-1.981c3.85,0.067,7.712,0.407,11.366-0.178
		c1.358-3.018-0.603-6.147,1.368-8.703c0.292,0.006,0.561,0.088,0.806,0.246C130.839,118.991,130.894,119.535,130.949,120.078z"/>
	<path style="fill:#E0BCBA;" d="M87.127,118.123c1.871,1.382,3.844,2.206,6.297,2.091c4.889-0.231,9.79-0.205,14.687-0.285
		c0.319,0.09,0.637,0.181,0.956,0.271c0.022,0.647,0.043,1.293,0.065,1.94c-7.247-0.577-14.672,1.238-21.873-1.417
		C87.208,119.73,87.168,118.927,87.127,118.123z"/>
	<path style="fill:#CB5254;" d="M130.949,120.078c-0.055-0.544-0.109-1.087-0.164-1.631c0.114-0.766,0.227-1.531,0.341-2.297
		c1.262-0.639,1.288-1.289,0.016-1.949c0.008-0.684,0.016-1.369,0.023-2.053c2.354-0.291,1.222-3.234,3.01-3.956
		c0.045,0.665,0.09,1.331,0.135,1.996c-0.079,0.662-0.158,1.324-0.237,1.986c-0.566,3.424-0.009,6.734,1.013,9.997
		C133.134,122.607,132.979,119.489,130.949,120.078z"/>
	<path style="fill:#CF3C3D;" d="M117.199,129.009c4.293-0.024,8.586-0.047,12.878-0.071c-0.177,0.685-0.587,1.182-1.313,1.188
		c-3.413,0.029-6.827,0.025-10.241,0.016C117.789,130.141,117.354,129.721,117.199,129.009z"/>
	<path style="fill:#CF3C3D;" d="M117.245,127.082c0.003,0.66,0.006,1.321,0.009,1.981c-2.46-1.481-0.627-3.906-1.271-5.786
		l0.313-0.276c0.237,0.159,0.499,0.23,0.784,0.215C117.135,124.505,117.19,125.793,117.245,127.082z"/>
	<path style="fill:#E0BCBA;" d="M151.188,157.116c-1.554-0.86-1.945-2.336-2.089-3.943
		C150.681,154.019,151.242,155.404,151.188,157.116z"/>
	<path style="fill:#CB5254;" d="M135.094,122.184c1.318,0.493,1.947,1.535,2.253,2.832
		C135.678,124.803,134.957,123.835,135.094,122.184z"/>
	<path style="fill:#E2DBDA;" d="M135.082,148.285c-0.659,1.143-1.316,1.15-1.969-0.005
		C133.77,147.999,134.426,148.002,135.082,148.285z"/>
	<path style="fill:#E2DBDA;" d="M143.167,149.095c-0.775,0.089-1.57,0.239-2.028-0.654
		C141.951,148.237,142.707,148.207,143.167,149.095z"/>
	<path style="fill:#CF3C3D;" d="M110.281,115.37c-0.334,0.33-0.668,0.661-1.002,0.991l-0.158-0.156
		c0.335-0.336,0.671-0.672,1.006-1.009L110.281,115.37z"/>
	<path style="fill:#CF3C3D;" d="M109.279,116.361c-0.361,0.326-0.723,0.651-1.084,0.977l-0.141-0.192
		c0.09-0.289,0.155-0.583,0.194-0.883c0.291-0.028,0.582-0.047,0.874-0.058L109.279,116.361z"/>
	<path style="fill:#EDE9E9;" d="M109.121,116.205c-0.292,0.011-0.583,0.03-0.874,0.058c-0.88-0.137-1.745-0.235-2.163,0.832
		c-0.648,0.098-1.296,0.196-1.943,0.294c-0.954-2.015-2.78-1.039-4.215-1.114c-1.688-0.088-3.192-0.175-3.813-2.076
		c0.752-1.004,1.504-2.007,2.256-3.011c0.403-0.087,0.635-0.383,0.417-0.693c-0.118-0.169-0.57-0.103-0.872-0.144l0.062,0.017
		c-2.405-1.599-4.134-1.622-6.872-0.088l-0.355,0.12l-0.372-0.04c-1.014-0.196-2.041-0.418-2.111,1.138
		c-0.28,0.284-0.56,0.567-0.841,0.851c-1.794,0.085-2.257,1.262-2.289,2.792c-3.056,0.337-6.279-0.751-9.16,1.077
		c-1.848-1.832-0.282-4.205-0.986-6.219c0.2-0.601,0.4-1.203,0.6-1.804c0.179-0.312,0.359-0.624,0.538-0.936
		c0.519-1.442,1.569-2.4,2.859-3.138c1.68-0.059,3.241-0.333,3.953-2.162l-0.013,0.02c2.698,0.944,5.044-0.984,7.703-0.889
		c6.499,0.233,13.094-0.626,19.304,2.153l0.087,0.087c0.026,0.835,0.095,1.641,1.154,1.821c0.102,0.527,0.205,1.054,0.307,1.581
		c-0.324,2.544-1.835,4.886-1.292,7.578c-0.041,0.294-0.064,0.59-0.067,0.888C109.792,115.533,109.456,115.869,109.121,116.205z"/>
	<path style="fill:#E0BCBA;" d="M109.938,103.242c-6.21-2.779-12.805-1.919-19.304-2.153c-2.659-0.096-5.005,1.833-7.703,0.889
		c0.576-0.806,1.204-1.554,2.173-1.914c7.3,0.226,14.621-0.691,21.906,0.396C107.811,101.57,109.732,101.504,109.938,103.242z"/>
	<path style="fill:#DB4343;" d="M107.009,100.46c-7.285-1.087-14.606-0.17-21.906-0.396c0.894-1.468,2.357-0.84,3.573-0.879
		c3.769-0.12,7.542-0.108,11.314-0.147c1.777,0.046,3.554,0.102,5.332,0.133C106.217,99.187,106.878,99.465,107.009,100.46z"/>
	<path style="fill:#E0BCBA;" d="M82.943,101.958c-0.712,1.829-2.273,2.103-3.953,2.162
		C79.806,102.481,81.269,102.028,82.943,101.958z"/>
	<path style="fill:#E0BCBA;" d="M76.131,107.258c-0.179,0.312-0.359,0.624-0.538,0.936
		C75.283,107.601,75.584,107.359,76.131,107.258z"/>
	<path style="fill:#E2DBDA;" d="M142.003,102.084c2.225-2.377,5.421-1.471,8.078-2.391c5.288,0.827,10.666-0.14,15.948,0.797
		l0.409,0.235c0.263,0.429,0.526,0.858,0.789,1.287c-3.476,0.866-6.724-0.803-10.137-0.98
		C151.969,100.767,147.083,102.652,142.003,102.084z"/>
	<path style="fill:#BB4547;" d="M166.029,100.491c-5.283-0.937-10.66,0.03-15.948-0.797l0-0.493
		c1.376-0.059,2.752-0.119,4.128-0.178c3.219,0.046,6.439,0.09,9.658,0.137C164.85,99.174,165.836,99.19,166.029,100.491z"/>
	<path style="fill:#E0BCBA;" d="M188.694,89.31c-0.887-0.058-1.774-0.117-2.661-0.175c0.111-0.261,0.173-0.533,0.186-0.816
		l-0.044-0.017c0.638-0.048,1.277-0.095,1.915-0.143C188.565,88.4,188.965,88.679,188.694,89.31z"/>
	<path style="fill:#BB4547;" d="M188.09,88.16c-0.638,0.048-1.277,0.095-1.915,0.143C186.704,86.789,187.35,86.842,188.09,88.16z"/>
	<path style="fill:#BA3538;" d="M136.034,153.647c1.412,0.512,3.09,0.281,4.244,1.517c-0.022,0.557,0.248,0.943,0.711,1.217
		c0.013,0.562,0.025,1.123,0.038,1.685c-1.52,0.917-2.857,1.013-4.605,0.082c-3.285-1.748-6.73-1.596-10.503,0.042
		c2.612,1.984,2.613,1.969,5.246,2.024c3.436,0.072,6.995-0.551,10.059,1.712c0.131,0.366,0.261,0.732,0.392,1.098
		c-0.399,1.75-0.311,3.51-0.119,5.274c-0.224,0.237-0.363,0.516-0.417,0.838c-2.161,0.816-4.365,1.225-6.706,1.167
		c-3.437-0.085-6.879,0.04-10.319,0.076c-0.784-0.691-1.569-1.381-2.353-2.072c0.373-0.893-0.149-2.018,0.78-2.852
		c1.029-0.541,2.365-0.734,3.203,0.037c2.73,2.511,5.964,1.347,9,1.474c1.213,0.051,2.24-0.585,1.953-2.347
		c-4.227-2.621-9.456,0.14-13.335-1.863c-1.991-1.827-1.022-3.9-1.738-5.547c0.222-0.93,0.444-1.86,0.666-2.791
		c0.62-0.114,1.24-0.228,1.86-0.342C128.064,153.778,132.071,154.344,136.034,153.647z"/>
	<path style="fill:#BA3538;" d="M118.418,165.204c-0.053,0.676-0.106,1.353-0.159,2.029l-0.148-0.023
		c-0.648,0.079-0.834,0.435-0.617,1.032c-0.442,0.479-0.884,0.958-1.326,1.438c-0.594-0.285-0.878-0.044-0.951,0.558
		c-1.367,0.15-2.735,0.299-4.102,0.449c-2.346-0.613-4.691-0.629-7.034,0.017c-0.998-0.15-1.995-0.3-2.993-0.449
		c-0.318-0.893-1.071-1.118-1.895-1.232c-0.47-0.946-0.94-1.892-1.41-2.839c0-3.774,0-7.547,0-10.873
		c1.719-1.725,3.112-1.444,4.706-0.857c0.986,3.143-0.036,6.5,0.686,9.704c0.097,0.46,0.066,1.231,0.311,1.333
		c3.066,1.268,6.182,1.264,9.25,0.005c0.242-0.099,0.207-0.873,0.3-1.334c0.055-2.942,0.111-5.884,0.166-8.826
		c1.338-1.62,3.102-1.227,4.827-1.023c0.137,3.277,0.274,6.554,0.41,9.831C118.433,164.497,118.425,164.851,118.418,165.204z"/>
	<path style="fill:#E0BCBA;" d="M121.562,157.208c0.716,1.647-0.254,3.721,1.738,5.547c3.879,2.003,9.109-0.758,13.335,1.863
		c0.288,1.762-0.739,2.398-1.953,2.347c-3.036-0.127-6.27,1.036-9-1.474c-0.838-0.771-2.174-0.578-3.203-0.037
		c-0.929,0.834-0.407,1.959-0.78,2.852c-0.849,0.035-1.494-0.276-1.842-1.088c-0.076-1.492,1.111-2.316,1.834-3.407
		C121.164,161.62,120.4,159.428,121.562,157.208z"/>
	<path style="fill:#E0BCBA;" d="M141.222,161.926c-3.065-2.263-6.623-1.64-10.059-1.712c-2.633-0.055-2.633-0.041-5.246-2.024
		c3.774-1.638,7.219-1.79,10.503-0.042c1.749,0.931,3.085,0.835,4.605-0.082c0.046,0.386,0.092,0.772,0.138,1.158
		C141.184,160.124,141.203,161.025,141.222,161.926z"/>
	<path style="fill:#E0BCBA;" d="M124.052,170.379c3.44-0.036,6.882-0.161,10.319-0.076c2.34,0.058,4.545-0.351,6.706-1.167
		c-0.016,0.647,0.104,1.498-0.628,1.709C134.945,172.425,129.433,173.449,124.052,170.379z"/>
	<path style="fill:#E0BCBA;" d="M141.494,168.298c-0.192-1.763-0.28-3.524,0.119-5.274
		C143.672,165.142,143.643,166.416,141.494,168.298z"/>
	<path style="fill:#E0BCBA;" d="M104.082,170.704c2.343-0.646,4.688-0.63,7.034-0.017
		C108.773,171.583,106.428,171.559,104.082,170.704z"/>
	<path style="fill:#E0BCBA;" d="M99.194,169.023c0.824,0.114,1.577,0.338,1.895,1.232C99.396,171.416,99.396,171.416,99.194,169.023
		z"/>
	<path style="fill:#E0BCBA;" d="M117.494,168.242c-0.217-0.597-0.031-0.952,0.617-1.032
		C118.203,167.733,117.991,168.073,117.494,168.242z"/>
	<path style="fill:#E0BCBA;" d="M115.218,170.238c0.073-0.602,0.357-0.843,0.951-0.558
		C115.991,170.104,115.679,170.298,115.218,170.238z"/>
	<path style="fill:#EDE9E9;" d="M88.427,165.108c-0.21-0.289-0.251-0.599-0.123-0.933c0.162,0.216,0.333,0.426,0.469,0.657
		C88.784,164.85,88.549,165.013,88.427,165.108z"/>
	<path style="fill:#EDE9E9;" d="M142.003,102.084c5.079,0.568,9.966-1.317,15.087-1.051c3.413,0.177,6.661,1.846,10.137,0.98
		l-0.018,0.026c-0.026,0.908-0.354,1.851,0.308,2.692c0.815,0.69,1.77,0.348,2.675,0.357l0.016-0.015
		c0.08,4.247-0.297,8.304-4.947,10.94c-2.473,0-5.412,0-8.343,0c-1.116-0.655-0.696-1.745-0.806-2.675
		c0.921-0.728,1.723-1.533,1.84-2.791c0.028-0.382,0.146-0.843-0.391-0.923c-0.124-0.019-0.311,0.387-0.469,0.597
		c-1.003-0.036-2.007-0.073-3.01-0.109c-1.359-1.488-2.688-1.538-3.981,0.084l-0.358,0.172l-0.395-0.038
		c-3.447-0.712-4.751,1.36-5.611,4.449c-1.818,0.439-3.835,0.926-5.655,1.366c-1.579-0.988-0.453-2.759-1.755-3.827
		c-0.626-0.04-1.439-0.092-2.252-0.144c0.079-0.662,0.158-1.324,0.237-1.986c2.609-0.658,2.005-3.182,2.832-4.875
		c0.102-0.626,0.465-0.991,1.09-1.096c1.45-0.387,3.888,0.983,3.803-2.137L142.003,102.084z"/>
	<path style="fill:#C72B2B;" d="M140.056,127.132c-0.331-0.081-0.577-0.264-0.739-0.551
		C139.771,126.487,139.932,126.785,140.056,127.132z"/>
	<path style="fill:#E0BCBA;" d="M113.036,164.162c-0.093,0.461-0.058,1.235-0.3,1.334c-3.067,1.259-6.184,1.263-9.25-0.005
		c-0.246-0.102-0.214-0.873-0.311-1.333C106.461,165.715,109.748,165.708,113.036,164.162z"/>
	<path style="fill:#E0BCBA;" d="M118.029,154.313c-1.725-0.204-3.489-0.597-4.827,1.023
		C113.998,152.727,115.476,152.414,118.029,154.313z"/>
	<path style="fill:#E0BCBA;" d="M118.418,165.204c0.007-0.354,0.014-0.707,0.021-1.061
		C119.13,164.511,119.105,164.864,118.418,165.204z"/>
	<path style="fill:#E2DBDA;" d="M150.101,110.198c1.293-1.623,2.622-1.573,3.981-0.084
		C152.755,110.142,151.428,110.17,150.101,110.198z"/>
	<path style="fill:#E2DBDA;" d="M157.092,110.222c0.158-0.21,0.345-0.616,0.469-0.597c0.537,0.08,0.419,0.541,0.391,0.923
		C157.629,110.534,157.343,110.425,157.092,110.222z"/>
	<path style="fill:#E2DBDA;" d="M181.93,91.117c1.479,0,2.958,0,4.584,0c1.085,3.571,0.415,6.972,0.505,10.454
		c-2.17,1.218-4.831-0.204-6.138,1.822c-3.083-1.177-4.027-2.981-3.813-5.621c0.146-1.803,0.021-3.627,0.018-5.442
		c0.266-0.154,0.551-0.222,0.858-0.205c1.077-0.116,2.364,0.582,3.114-0.803C181.326,91.155,181.617,91.087,181.93,91.117z"/>
	<path style="fill:#E0BCBA;" d="M175.355,122.164c1.382,1.598,0.622,3.402,0.495,5.145
		C174.509,125.708,175.182,123.912,175.355,122.164z"/>
	<path style="fill:#EDE9E9;" d="M181.058,91.321c-0.75,1.385-2.037,0.687-3.114,0.803C178.676,90.668,179.966,91.381,181.058,91.321
		z"/>
	<path style="fill:#E2DBDA;" d="M170.193,105.089c-0.905-0.009-1.859,0.333-2.675-0.357c-0.662-0.841-0.334-1.784-0.308-2.692
		c0.579,0.086,1.159,0.172,1.738,0.258c0.347,0.339,0.693,0.678,1.04,1.018C170.056,103.906,170.125,104.497,170.193,105.089z"/>
	<path style="fill:#EDE9E9;" d="M117.148,92.308c0.199-0.261,0.453-0.337,0.762-0.227c0.623,0.132,1.335,0.011,1.79,0.63
		c-0.52,0.805-1.043,1.611-1.673,2.583c1.682,1.78,0.746,4.073,1.233,6.085c3.774,2.222,4.223,2.274,8.723,0.979
		c0.408-3.502-0.514-7.145,0.95-10.441c-0.905-1.095-3.095-0.335-2.804-2.441c1.249-0.888,2.671-0.132,3.983-0.419
		c0.075,7.043,0.275,14.087-0.163,21.126c-4.197,0.017-8.395,0.035-12.592,0.052C117.287,104.259,117.217,98.283,117.148,92.308z"/>
	<path style="fill:#E2DBDA;" d="M126.129,89.475c-0.291,2.107,1.899,1.346,2.804,2.441c-1.464,3.296-0.542,6.939-0.95,10.441
		c-4.5,1.294-4.949,1.243-8.723-0.979c-0.487-2.012,0.449-4.305-1.233-6.085c0.63-0.972,1.153-1.778,1.673-2.583
		c-0.455-0.619-1.167-0.498-1.79-0.63C120.461,90.617,123.226,89.828,126.129,89.475z"/>
	<path style="fill:#E0BCBA;" d="M117.148,92.308c0.07,5.976,0.139,11.951,0.209,17.927c-0.16,1.766-0.062,3.468,0.288,5.254
		c0.5,2.546,1.424,5.295-0.565,7.728c-0.285,0.015-0.547-0.057-0.784-0.215c-0.017-10.257-0.034-20.513-0.051-30.77
		C116.549,92.219,116.85,92.244,117.148,92.308z"/>
	<path style="fill:#DE7375;" d="M129.948,110.182c0.438-7.039,0.238-14.083,0.163-21.126c2-0.782,1.035,0.973,1.038,1.421
		c0.061,7.224,0.027,14.448,0.015,21.672c-0.008,0.684-0.016,1.369-0.023,2.053c-0.005,0.65-0.011,1.299-0.016,1.949
		c-0.114,0.766-0.227,1.531-0.341,2.297c-0.245-0.158-0.514-0.24-0.806-0.246C129.969,115.528,129.959,112.855,129.948,110.182z"/>
	<path style="fill:#E2DBDA;" d="M137.142,105.314c-0.827,1.693-0.223,4.217-2.832,4.875c-0.045-0.665-0.09-1.331-0.135-1.996
		C135.435,107.512,135.461,105.56,137.142,105.314z"/>
	<path style="fill:#E2DBDA;" d="M142.035,102.082c0.085,3.12-2.352,1.75-3.803,2.137
		C139.045,102.696,140.466,102.257,142.035,102.082z"/>
	<path style="fill:#E0BCBA;" d="M110.195,114.309c-0.544-2.692,0.967-5.034,1.292-7.578
		C112.823,109.558,112.435,112.091,110.195,114.309z"/>
	<path style="fill:#E0BCBA;" d="M111.179,105.15c-1.059-0.179-1.129-0.986-1.154-1.821
		C111.099,103.499,111.205,104.283,111.179,105.15z"/>
	<path style="fill:#E0BCBA;" d="M164.73,52.109c7.129,3.856,6.853,9.598,6.16,15.739c-2.751,0.992-5.82-0.472-8.016,1.426
		c-7.375-3.016-8.748-6.027-7.29-15.975C158.747,53.203,161.978,52.867,164.73,52.109z M167.958,60.716
		c-4.965-5.334-6.709-6.054-10.703-4.575c1.684,7.134,4.261,9.498,10.524,9.551C168.365,64.129,168.087,62.516,167.958,60.716z"/>
	<path style="fill:#E0BCBA;" d="M136.034,153.647c-3.962,0.697-7.97,0.132-11.946,0.429
		C128.009,152.255,132.026,153.093,136.034,153.647z"/>
	<path style="fill:#E0BCBA;" d="M140.988,156.38c-0.463-0.274-0.733-0.66-0.711-1.217C140.87,155.361,141.085,155.78,140.988,156.38
		z"/>
	<path style="fill:#E0BCBA;" d="M96.114,114.199c0.621,1.901,2.124,1.989,3.813,2.076c1.435,0.075,3.261-0.901,4.215,1.114
		c0.01,0.258-0.01,0.514-0.06,0.768c-3.565,0-7.13,0-11.145,0C93.81,115.988,93.875,114.203,96.114,114.199z"/>
	<path style="fill:#E0BCBA;" d="M91.106,110.279c2.738-1.533,4.466-1.511,6.872,0.088C95.687,110.338,93.396,110.309,91.106,110.279
		z"/>
	<path style="fill:#E0BCBA;" d="M86.285,115.198c-0.382-0.019-0.764-0.039-1.146-0.058c0.032-1.53,0.495-2.707,2.289-2.792
		C87.054,113.301,87.257,114.485,86.285,115.198z"/>
	<path style="fill:#CB5254;" d="M104.082,118.157c0.05-0.254,0.07-0.51,0.06-0.768c0.648-0.098,1.296-0.196,1.943-0.294
		c0.358,0.09,0.716,0.181,1.075,0.271C106.383,118.599,105.182,118.182,104.082,118.157z"/>
	<path style="fill:#E0BCBA;" d="M88.268,111.497c0.069-1.556,1.097-1.334,2.111-1.138C89.881,111.12,89.083,111.325,88.268,111.497z
		"/>
	<path style="fill:#E0BCBA;" d="M107.159,117.366c-0.358-0.09-0.716-0.181-1.075-0.271c0.417-1.067,1.282-0.969,2.163-0.832
		c-0.039,0.3-0.104,0.594-0.194,0.883C107.727,117.106,107.429,117.179,107.159,117.366z"/>
	<path style="fill:#E0BCBA;" d="M97.916,110.351c0.302,0.04,0.754-0.025,0.872,0.144c0.217,0.31-0.015,0.606-0.417,0.693
		C98.219,110.909,98.067,110.63,97.916,110.351z"/>
	<path style="fill:#E0BCBA;" d="M86.744,117.227c-0.571-0.278-0.714-0.711-0.463-1.286
		C86.821,116.231,86.985,116.656,86.744,117.227z"/>
	<path style="fill:#DB4343;" d="M131.126,116.151c0.005-0.65,0.011-1.299,0.016-1.949
		C132.414,114.862,132.388,115.512,131.126,116.151z"/>
	<path style="fill:#EDE9E9;" d="M167.958,60.716c0.13,1.8,0.407,3.413-0.179,4.976c-6.263-0.054-8.84-2.418-10.524-9.551
		C161.248,54.662,162.992,55.382,167.958,60.716z"/>
</g>
</svg>
