<?xml version="1.0" encoding="iso-8859-1"?>
<!-- Generator: Adobe Illustrator 27.0.0, SVG Export Plug-In . SVG Version: 6.00 Build 0)  -->
<svg version="1.1" id="Layer_1" xmlns="http://www.w3.org/2000/svg" xmlns:xlink="http://www.w3.org/1999/xlink" x="0px" y="0px"
	 viewBox="0 0 1552.087 372.995" style="enable-background:new 0 0 1552.087 372.995;" xml:space="preserve">
<g>
	<path style="fill:#2D1C41;" d="M1552.087,318.995c-2.003,0.763-0.883,2.844-1.801,4.212c-2.91,4.335-6.745,7.474-11.681,8.721
		c-12.689,3.206-23.866,0.023-33.855-8.84c1.438-1.819,2.736-3.459,4.236-5.357c4.399,3.587,8.681,6.77,13.992,7.867
		c5.22,1.078,10.474,1.627,15.582-0.685c3.898-1.765,5.8-4.827,5.879-9.032c0.077-4.101-1.909-6.948-5.624-8.55
		c-1.968-0.849-3.971-1.704-6.042-2.213c-7.13-1.751-13.612-5.143-20.385-7.564c-1.182-2.622-2.286-5.034-3.359-7.46
		c-3.132-7.083-0.768-14.331,6.032-18.2c10.24-5.826,20.369-4.543,30.351,0.714c1.591,0.838,3.003,2.017,4.732,3.198
		c-1.236,2.112-2.475,3.975-4.383,5.585c-3.867-2.844-7.829-5.296-12.485-6.07c-4.456-0.741-8.901-0.895-13.153,1.283
		c-3.418,1.751-5.465,4.458-5.553,8.201c-0.088,3.734,1.622,6.708,5.21,8.332c1.358,0.615,2.641,1.525,4.062,1.851
		c6.831,1.569,13.133,4.559,19.632,7.026c2.643,1.003,4.465,2.474,5.437,5.26c0.709,2.03,1.018,4.435,3.176,5.72
		C1552.087,314.995,1552.087,316.995,1552.087,318.995z"/>
	<path style="fill:#392A4B;" d="M1552.087,204.995c-0.343-0.203-0.687-0.406-1.03-0.61c0.003-54.369,0.005-108.737,0.008-163.105
		c0.341-0.095,0.682-0.19,1.022-0.285C1552.087,95.662,1552.087,150.329,1552.087,204.995z"/>
	<path style="fill:#CBDDF0;" d="M106.087,372.995c0-0.301-0.011-0.602-0.035-0.902c18.36,0.012,36.719,0.024,55.079,0.036
		c-0.031,0.288-0.045,0.577-0.044,0.866C142.753,372.995,124.42,372.995,106.087,372.995z"/>
	<path style="fill:#3898D2;" d="M161.131,372.129c-18.36-0.012-36.719-0.024-55.079-0.036c-7.415-6.299-14.83-12.599-22.135-18.804
		c1.219-2.508,3.028-2.092,4.623-2.108c5.998-0.063,11.997-0.086,17.995-0.098c18.497-0.036,36.994,0.009,55.49-0.113
		c13.146-0.087,25.986-2.344,38.677-5.717c22.838-6.07,43.073-17.218,61.279-31.971c14.028-11.367,25.715-24.997,35.131-40.463
		c9.371-15.392,16.417-31.764,20.354-49.404c1.949-8.733,3.628-17.493,3.813-26.494c0.082-3.964,0.892-7.884,0.746-11.894
		c-0.88-24.079-5.301-47.281-15.84-69.196c-8.738-18.17-20.044-34.454-34.488-48.445c-14.302-13.852-30.606-24.776-48.952-32.789
		c-14.234-6.217-28.998-10.232-44.261-12.432c-11.708-1.688-23.565-1.212-35.37-1.244c-21.496-0.06-42.993-0.13-64.489-0.061
		c-3.65,0.012-6.808-0.455-9.581-3.159c-1.989-1.94-4.493-3.352-6.943-5.128C66.697,8.357,71.1,4.319,75.663,0.134
		C76.331,0.094,77.151-0.001,77.971,0c28.496,0.021,56.992-0.042,85.487,0.118c14.649,0.082,28.949,2.762,43.057,6.608
		c20.517,5.593,39.429,14.518,56.804,26.788c15.186,10.724,28.399,23.448,39.946,38.011c13.453,16.969,23.334,35.812,30.122,56.294
		c4.806,14.5,7.708,29.389,8.875,44.664c0.418,5.475,0.854,10.935,0.661,16.398c-0.456,12.925-1.949,25.731-4.809,38.375
		c-3.902,17.249-10.187,33.601-18.779,49c-10.862,19.466-24.769,36.469-41.757,51.043c-19.045,16.338-40.413,28.334-64.246,35.972
		c-12.632,4.048-25.536,6.798-38.81,7.913C170.06,371.559,165.6,371.877,161.131,372.129z"/>
	<path style="fill:#3898D2;" d="M100.937,317.292c1.462-6.143,1.142-12.397,1.268-18.439c1.223-1.423,2.649-0.911,3.904-0.92
		c7.331-0.05,14.667-0.176,21.994,0.008c13.316,0.335,26.632-0.284,39.877-1.14c16.038-1.038,31.125-6.189,45.014-14.43
		c13.897-8.246,25.85-18.745,35.08-32.044c8.965-12.919,15.155-27.04,18.249-42.621c2.233-11.247,2.509-22.514,1.573-33.739
		c-1.178-14.134-5.436-27.569-12.258-40.087c-13.839-25.393-34.177-43.224-61.493-53.063c-9.426-3.395-19.069-5.215-29.033-6
		c-18.959-1.493-37.934-0.319-56.896-0.726c-1.799-0.039-3.599-0.005-5.881-0.005c-0.098-6.649,0.202-12.942-1.625-18.496
		c1.258-1.758,2.521-1.435,3.617-1.382c21.285,1.041,42.606,0.134,63.88,1.001c13.637,0.556,26.732,4.392,39.324,9.649
		c17.09,7.135,32.105,17.396,44.743,30.939c16.764,17.964,27.865,38.882,33.083,63.039c2.771,12.83,3.538,25.726,2.48,38.625
		c-1.236,15.069-5.206,29.601-11.618,43.403c-7.595,16.35-17.988,30.703-31.372,42.692c-14.879,13.328-31.879,23.063-51.257,28.539
		c-10.434,2.949-21.007,4.337-31.792,5.064c-19.633,1.323-39.269,0.245-58.898,0.625
		C102.435,317.791,101.967,317.558,100.937,317.292z"/>
	<path style="fill:#28153D;" d="M442.339,204.75c0-54.494,0-108.609,0-162.759c1.24-1.234,2.826-0.692,4.248-0.695
		c16.998-0.041,33.996-0.143,50.993,0.006c18.229,0.159,35.609,3.729,51.25,13.688c19.074,12.145,30.947,29.237,35.261,51.479
		c2.908,14.991,2.063,29.764-3.041,44.195c-4.226,11.946-10.922,22.21-20.268,30.938c-13.366,12.481-29.239,19.283-47.024,22.073
		c-4.584,0.719-9.277,1.002-13.923,1.03C480.852,204.815,461.869,204.75,442.339,204.75z M514.144,59.881
		c0.996-1.774,2.681-0.888,4.017-0.9c9.442-0.085,18.885-0.025,28.327-0.069c1.304-0.006,2.711,0.383,4.904-0.837
		c-14.056,0-27.113-0.007-40.171,0.036c-0.377,0.001-0.752,0.531-1.127,0.815c-16.253,0-32.507,0-48.968,0
		c0,42.965,0,85.653,0,128.781c16.478,0.038,32.731,0.335,48.98-0.624c1.065,1.648,2.72,0.849,4.084,0.857
		c10.931,0.07,21.863,0.051,32.795,0.022c1.16-0.003,2.422,0.333,4.409-0.95c-2.408,0-3.87,0-5.331,0
		c-9.275,0-18.551,0.037-27.826-0.041c-1.365-0.011-3.012,0.796-4.1-0.818c8.864-1.774,17.19-4.882,24.783-9.868
		c12.776-8.389,21.101-20.058,25.065-34.715c3.268-12.083,3.334-24.324,0.042-36.44c-4.173-15.36-12.823-27.514-26.379-36.087
		C530.392,64.452,522.48,61.647,514.144,59.881z"/>
	<path style="fill:#27143C;" d="M1551.064,41.28c-0.003,54.368-0.005,108.737-0.008,163.105c-4.465,0.796-8.95,0.024-13.875,0.46
		c-34.737-44.262-69.506-88.565-104.276-132.868c-0.272,0.089-0.544,0.179-0.816,0.268c0,43.979,0,87.957,0,132.27
		c-6.205,0.325-11.941,0.292-17.934,0.022c0-54.489,0-108.706,0-163.189c5.522-0.584,10.975-0.116,16.982-0.273
		c33.959,43.352,68.073,86.901,102.865,131.316c0-2.941,0-4.718,0-6.494c0-39.476-0.002-78.952,0.01-118.429
		c0.001-1.824,0.141-3.648,0.216-5.473c0.286-0.248,0.571-0.496,0.857-0.744C1540.412,40.998,1545.739,40.936,1551.064,41.28z"/>
	<path style="fill:#28163E;" d="M1319.715,60.586c-3.713,4.396-7.452,8.823-11.215,13.279c-1.926-0.09-2.924-1.607-4.139-2.594
		c-15.291-12.422-32.985-16.943-52.245-15.16c-16.274,1.507-29.608,9.07-40.068,21.719c-8.175,9.885-13.017,21.342-14.653,33.836
		c-2.41,18.413,0.15,36.207,10.59,52.047c8.364,12.69,20.082,20.924,34.991,24.642c19.511,4.866,37.809,1.484,55.41-7.451
		c0.442-0.224,0.83-0.553,1.243-0.833c2.742-1.858,5.483-3.715,8.301-5.624c0-13.342,0-26.627,0-40.374c-16.508,0-32.905,0-49.527,0
		c0-5.708,0-10.957,0-16.505c22.373,0,44.624,0,67.238,0c0,21.553,0,43.122,0,65.07c-12.768,11.064-27.549,18.741-44.488,22.444
		c-10.69,2.337-21.45,2.943-32.195,1.727c-18.877-2.136-35.625-9.348-48.837-23.365c-17.986-19.081-24.471-42.174-22.506-67.887
		c1.309-17.133,7.093-32.703,17.698-46.318c12.131-15.574,27.933-25.489,47.324-29.072c19.894-3.676,39.287-1.644,57.833,6.885
		C1306.369,49.764,1315.714,56.179,1319.715,60.586z"/>
	<path style="fill:#28163E;" d="M690.086,130.914c0,19.105,0,37.721,0,56.874c33.27,0,66.641,0,100.164,0c0,5.967,0,11.396,0,16.932
		c-39.703,0-79.134,0-118.834,0c0-54.415,0-108.639,0-163.158c39.129,0,78.182,0,117.495,0c0,5.538,0,10.961,0,16.728
		c-32.842,0-65.619,0-98.7,0c0,18.595,0,36.853,0,55.548c29.296,0,58.703,0,88.401,0c0,5.815,0,11.199,0,17.076
		C749.038,130.914,719.65,130.914,690.086,130.914z"/>
	<path style="fill:#28163E;" d="M863.635,180.431c3.668-4.318,7.217-8.496,10.833-12.754c2.258,0.743,3.751,2.339,5.352,3.706
		c7.67,6.548,16.23,11.684,25.737,14.887c10.484,3.533,21.341,4.854,32.435,3.335c7.189-0.985,13.903-3.1,19.546-7.844
		c7.295-6.134,10.129-13.855,8.964-23.416c-1.143-9.38-6.936-14.59-14.713-18.478c-11.419-5.708-24.023-7.464-36.132-10.858
		c-8.311-2.329-16.464-4.944-24.14-9.015c-16.682-8.847-23.149-23.115-21.19-40.885c1.658-15.039,9.974-25.618,23.067-32.77
		c12.6-6.883,26.167-8.202,40.112-6.923c16.946,1.554,32.163,7.637,45.517,18.254c0.508,0.404,0.978,0.853,1.799,1.574
		c-3.507,4.666-6.945,9.24-10.581,14.078c-4.764-3.123-9.013-6.57-13.836-9.158c-14.144-7.587-29.119-10.144-44.83-7.065
		c-6.034,1.183-11.533,4.094-16.107,8.481c-1.045,1.002-1.429,2.216-1.933,3.403c-1.166,2.744-2.063,5.606-3.298,8.316
		c-4.157,9.12,0.521,19.633,8.293,24.665c6.762,4.378,14.287,6.951,21.99,9.032c11.992,3.239,24.303,5.418,35.819,10.237
		c9.434,3.947,18.159,8.99,23.718,18.116c2.976,4.885,4.643,10.089,5.314,15.829c0.81,6.921,0.144,13.512-2.016,20.077
		c-3.999,12.149-12.455,20.244-23.655,25.578c-14.656,6.979-30.201,7.34-45.886,4.932c-18.929-2.906-35.153-11.582-49.47-24.069
		C864.108,181.494,864.016,181.13,863.635,180.431z"/>
	<path style="fill:#3998D2;" d="M11.889,284.023c0.297,6.033,3.32,10.963,7.048,15.067c9.169,10.094,19.359,19.183,29.604,28.187
		c4.076,3.582,8.02,7.315,12.345,11.272c-5.305,4.997-10.567,9.224-16.186,13.343c-8.425-6.882-16.058-14.421-23.122-22.604
		c-5.998-6.947-11.6-14.129-15.264-22.585c-3.414-7.879-7.182-15.782-6.137-24.735c1.165-9.972,4.052-19.451,9.545-27.941
		c5.256-8.123,11.607-15.312,19.06-21.543c2.929-2.449,5.482-5.344,8.255-7.985c6.744-6.421,13.597-12.73,20.26-19.233
		c10.63-10.376,20.051-21.704,26.74-35.097c0.888-1.778,1.395-3.826,2.403-5.427c2.627-4.175,1.262-7.423-1.377-10.824
		c-2.567-3.307-5.665-6.084-8.504-9.117c-2.045-2.185-4.066-4.393-6.437-6.957c3.912-4.743,8.087-9.806,12.423-15.062
		c4.02,2.323,6.998,5.545,8.807,9.359c2.885,6.084,6.578,11.899,7.309,18.88c0.677,6.464,0.652,12.852-0.223,19.317
		c-1.479,10.919-6.825,20.34-11.328,30.054c-2.287,4.935-6.12,9.039-9.438,13.386c-3.945,5.17-8.511,9.774-13.058,14.407
		c-12.588,12.827-25.276,25.563-37.551,38.685C21.976,272.309,16.383,277.354,11.889,284.023z"/>
	<path style="fill:#3998D2;" d="M4.03,211.03c-4.163-8.302-4.933-16.919-3.029-26.005c2.246-10.722,5.843-20.753,13.44-28.884
		c5.002-5.353,10.213-10.521,15.504-15.591c11.054-10.593,22.371-20.901,33.043-31.904c10.789-11.123,19.107-23.753,25.148-38.101
		c-0.333-2.369-2.134-3.945-3.552-5.749c-5.242-6.67-10.969-12.791-17.714-18.064c-7.301-5.708-14.094-12.067-21.479-18.462
		c4.634-4.652,8.726-9.145,13.862-12.646c4.187,1.777,7.387,4.728,10.724,7.396c7.136,5.708,14.32,11.408,19.708,18.943
		c8.354,11.681,11.039,24.568,8.042,38.608c-0.827,3.876-1.782,7.727-2.765,11.567c-3.083,12.047-10.273,21.752-17.789,31.304
		c-13.648,17.345-30.281,31.806-45.669,47.467c-5.935,6.04-11.772,12.191-18.307,17.406c-0.444,7.015,2.014,12.687,5.648,17.935
		c4.154,5.999,10.158,10.443,14.488,16.768c-4.699,4.372-9.293,8.646-14.306,13.311c-6.75-7.125-12.188-14.811-14.809-24.287
		c5.382-0.054,10.764-0.107,16.146-0.161c-0.007-0.284-0.015-0.568-0.022-0.851C14.904,211.03,9.467,211.03,4.03,211.03z"/>
	<path style="fill:#2A183F;" d="M1071.699,41.201c6.192,0,11.987,0,18.089,0c0,54.47,0,108.816,0,163.438
		c-5.905,0-11.821,0-18.089,0C1071.699,150.332,1071.699,95.993,1071.699,41.201z"/>
	<path style="fill:#3998D2;" d="M88.101,305.573c-5.206-8.135-11.378-15.459-18.551-21.962
		c-6.161-5.585-12.319-11.178-18.368-16.884c-3.118-2.941-6.85-5.265-9.671-9.485c4.558-4.685,9.144-9.399,13.959-14.348
		c6.866,5.854,13.618,11.454,20.18,17.266c3.712,3.287,7.472,6.483,10.767,10.305c7.841,9.098,11.137,19.5,11.8,31.363
		c0.91,16.29-4.892,30.353-13.456,43.409c-5.572,8.495-13.267,15.187-21.602,21.188c-5.664,4.078-11.323,6.238-18.392,5.691
		c-7.032-0.544-14.138-0.119-22.429-0.119c5.807-3.881,10.663-6.965,15.35-10.288c12.772-9.056,24.83-18.944,35.687-30.292
		C80.446,324.027,84.666,315.157,88.101,305.573z"/>
	<path style="fill:#3998D2;" d="M39.229,0.153c10.225,0,19.834,0,30.367,0c-19.258,18.876-39.226,35.896-57.548,54.21
		c2.591,11.613,9.431,19.635,17.957,26.643c9.363,7.696,18.564,15.586,28.33,22.778c0.669,0.493,1.31,1.024,2.269,1.777
		c-4.539,5.355-9.43,9.796-14.133,14.61c-4.26-1.995-7.599-5.043-11.126-7.717C22.997,103.09,12.769,91.625,5.902,77.799
		C1.609,69.155-0.826,59.807,0.76,49.472c1.794-11.695,7.539-20.7,15.609-28.541C23.755,13.756,31.599,7.053,39.229,0.153z"/>
	<path style="fill:#301F43;" d="M1048.27,332.519c0-21.169,0-42.083,0-63.226c15.118,0,30.034,0,45.131,0
		c0.698,1.99,0.48,3.906,0.177,6.234c-12.705,0-25.297,0-38.178,0c0,7.311,0,14.225,0,21.576c11.234,0,22.471,0,33.637,0
		c1.305,2.243,0.529,4.21,0.901,6.517c-11.631,0-22.883,0-34.483,0c0,7.447,0,14.506,0,21.974c12.802,0,25.562,0,38.383,0
		c0.381,2.508,0.395,4.607,0.017,6.924C1078.738,332.519,1063.8,332.519,1048.27,332.519z"/>
	<path style="fill:#301F43;" d="M691.833,269.372c0,2.213,0,4.009,0,6.138c-12.786,0-25.397,0-38.366,0c0,7.212,0,14.098,0,21.387
		c11.149,0,22.401,0,33.61,0c1.217,2.399,0.723,4.465,0.564,6.928c-11.524,0-22.776,0-34.278,0c0,7.315,0,14.237,0,21.617
		c12.761,0,25.486,0,38.34,0c0.635,2.51,0.429,4.608,0.228,7.007c-15.145,0-30.213,0-45.573,0c0-20.951,0-41.86,0-63.078
		C661.36,269.372,676.414,269.372,691.833,269.372z"/>
	<path style="fill:#2D1C41;" d="M585.049,296.841c0-9.33,0-18.285,0-27.416c2.222-0.792,4.339-0.327,6.739-0.431
		c0,21.182,0,42.22,0,63.503c-2.013,0-3.956,0-6.516,0c-0.441-4.568-0.135-9.333-0.19-14.072c-0.054-4.633-0.012-9.267-0.012-14.154
		c-12.167,0-24.047,0-36.267,0c0,9.329,0,18.43,0,27.549c-2.578,0.895-4.847,0.606-7.383,0.275c0-20.872,0-41.62,0-62.669
		c2.191-0.815,4.573-0.431,7.389-0.223c0,9.275,0,18.346,0,27.638C560.993,296.841,572.748,296.841,585.049,296.841z"/>
	<path style="fill:#301F43;" d="M1143.362,269.327c2.719-0.35,4.824-0.406,6.784-0.064c1.079,1.379,0.667,2.761,0.672,4.045
		c0.036,9.818-0.044,19.638,0.048,29.455c0.045,4.803,0.306,9.613,2.469,14.072c3.912,8.061,11.336,9.599,18.105,9.514
		c9.461-0.119,16.004-7.349,16.945-16.738c1.052-10.487,0.292-20.931,0.665-31.386c0.101-2.817,0.015-5.642,0.015-8.585
		c2.138-1.046,4.272-0.403,6.237-0.545c1.279,1.209,0.774,2.623,0.78,3.883c0.043,10.484,0.163,20.971-0.026,31.451
		c-0.12,6.657-0.976,13.181-5.109,18.875c-3.362,4.631-7.695,7.4-13.208,8.834c-5.81,1.511-11.571,1.461-17.159-0.283
		c-4.551-1.42-8.515-3.899-11.602-7.963c-4.188-5.514-5.161-11.942-5.455-18.268
		C1142.968,293.692,1143.362,281.716,1143.362,269.327z"/>
	<path style="fill:#2D1C41;" d="M1455.415,317.736c1.969,1.31,3.347,2.711,4.492,4.337c-10.598,13.85-32.271,14.629-44.666,4.436
		c-14.812-12.182-14.964-33.707-4.736-46.532c12.03-15.084,36.092-15.903,49.004-2.153c0.102,1.375-1.225,1.834-1.871,2.728
		c-0.67,0.927-1.483,1.752-2.334,2.737c-2.578-1.815-4.744-3.599-7.141-4.983c-12.523-7.233-29.718-2.879-35.338,12.498
		c-3.744,10.243-2.179,20.392,5.304,28.382c7.615,8.131,20.002,9.449,29.379,4.363
		C1450.431,321.963,1452.922,319.789,1455.415,317.736z"/>
	<path style="fill:#2D1C41;" d="M888.063,316.056c-11.46,0-22.92,0-34.463,0c-2.527,5.534-4.992,10.932-7.447,16.305
		c-2.313,0.706-4.438,0.19-6.573,0.426c0.309-3.909,19.534-47.666,27.956-63.832c2.09-0.566,4.351-0.443,6.895-0.104
		c3.057,6.767,6.158,13.517,9.162,20.31c3.809,8.612,8.141,16.994,11.369,25.861C892.672,315.422,890.104,313.98,888.063,316.056z
		 M884.884,308.873c-4.741-10.617-9.3-20.825-14.117-31.613c-4.846,10.926-9.363,21.112-14.021,31.613
		C866.366,308.873,875.301,308.873,884.884,308.873z"/>
	<path style="fill:#2D1C41;" d="M784.094,303.013c-2.024,2.803-5.883,1.813-8.216,3.975c-2.572,0.523-5.418-1.086-7.79,1
		c-5.797,0-11.594,0-17.967,0c0,8.096,0,16.128,0,24.21c-2.816,0.489-5.051,0.742-7.13,0.023c-0.913-1.217-0.637-2.419-0.638-3.556
		c-0.015-18.76-0.014-37.519,0.002-56.279c0.001-0.819,0.174-1.637,0.268-2.456c0.259-0.137,0.408-0.353,0.449-0.648
		c11.395-0.227,22.813-1.208,34.153,0.706c3.266,0.551,6.362,1.714,8.791,4.158c-2.487,1.755-5.312,0.382-7.931,0.862
		c-1.658,0.304-3.587-0.875-4.978,0.894c-7.595,0-15.19,0-22.763,0c0,8.769,0,16.99,0,25.276c7.813,0,15.293,0,22.773,0
		c1.99,1.764,4.378,0.367,6.531,0.823C781.135,302.319,782.966,301.125,784.094,303.013z"/>
	<path style="fill:#301F43;" d="M991.042,304.885c-5.15,3.869-11.143,4.951-17.365,5.107c-4.651,0.116-9.307,0.023-14.431,0.023
		c0,7.364,0,14.604,0,21.81c-2.708,0.97-4.978,0.392-7.576,0.567c0-21.259,0-42.124,0-63.465
		c10.733,0.335,21.362-0.787,31.901,1.196c3.152,0.593,5.747,2.523,8.431,4.174c-3.037,1.592-6.296,0.24-9.413,0.716
		c-1.499,0.229-3.252-0.825-4.475,0.85c-6.264,0-12.528,0-18.767,0c0,9.475,0,18.359,0,27.292c6.81,0,13.288,0,19.766,0
		c2.135,1.792,4.66,0.394,6.954,0.854C987.72,304.339,989.643,303.142,991.042,304.885z"/>
	<path style="fill:#352547;" d="M442.379,276.062c0-2.504,0-4.441,0-6.743c16.27,0,32.641,0,49.305,0
		c0.678,1.882,0.321,3.957,0.195,6.461c-6.906,0-13.648,0-20.868,0c0,18.949,0,37.478,0,55.988
		c-2.713,0.902-4.955,0.793-7.506,0.246c0-18.538,0-36.955,0-55.951C456.358,276.062,449.476,276.062,442.379,276.062z"/>
	<path style="fill:#28153D;" d="M1294.177,275.803c-7.13,0-13.757,0-20.857,0c0,18.719,0,37.257,0,55.99
		c-2.632,0.739-4.828,0.409-7.391,0.333c0-18.74,0-37.138,0-56.061c-7.226,0-14.112,0-21.026,0
		c-0.828-2.402-0.459-4.366-0.509-7.013c16.624-0.126,33.125-0.029,49.784-0.069
		C1294.177,271.416,1294.177,273.363,1294.177,275.803z"/>
	<path style="fill:#392A4B;" d="M1344.453,269.089c1.08-0.054,1.889-0.117,2.699-0.129c1.319-0.019,2.64-0.005,4.281-0.005
		c0,21.071,0,41.916,0,62.921c-2.151,0.996-4.426,0.437-6.98,0.471C1344.453,311.273,1344.453,290.441,1344.453,269.089z"/>
	<path style="fill:#392A4B;" d="M991.042,304.885c-1.399-1.743-3.322-0.546-4.974-0.877c-2.294-0.46-4.819,0.938-6.954-0.854
		c2.094-0.953,4.288-1.737,6.262-2.894c4.266-2.502,5.984-6.454,5.892-11.297c-0.089-4.705-2.165-8.161-6.186-10.67
		c-2.192-1.368-4.826-1.125-6.967-2.431c1.223-1.675,2.976-0.621,4.475-0.85c3.116-0.475,6.375,0.876,9.413-0.716
		C1001.6,281.977,1000.763,298.017,991.042,304.885z"/>
	<path style="fill:#392A4B;" d="M784.094,303.013c-1.128-1.888-2.959-0.695-4.446-1.01c-2.153-0.456-4.541,0.941-6.531-0.823
		c1.971-0.801,4.028-1.442,5.897-2.434c4.188-2.223,6.259-5.897,6.171-10.572c-0.087-4.644-2.032-8.19-6.519-10.288
		c-1.826-0.854-3.919-0.762-5.56-1.982c1.391-1.769,3.32-0.59,4.978-0.894c2.62-0.48,5.444,0.893,7.931-0.862
		C796.241,280.072,794.451,298.912,784.094,303.013z"/>
	<path style="fill:#352547;" d="M768.089,307.989c2.372-2.086,5.217-0.477,7.79-1c6.309,8.303,12.618,16.606,19.33,25.439
		c-3.29,0-5.949,0-9.074,0C780.202,324.534,773.834,316.495,768.089,307.989z"/>
	<path style="fill:#392A4B;" d="M888.063,316.056c2.041-2.076,4.609-0.634,6.901-1.034c3.117,5.425,5.245,11.301,8.212,17.375
		c-2.719,0.637-5.092,0.304-7.679,0.345C892.714,327.261,890.244,321.726,888.063,316.056z"/>
	<path style="fill:#3998D2;" d="M23.612,9.435c-3.504-3.237-7.246-5.633-10.45-9.323c6.805,0,13.111,0,19.852,0
		C30.238,3.784,26.875,6.348,23.612,9.435z"/>
	<path style="fill:#73ADDC;" d="M4.03,211.03c5.437,0,10.874,0,16.311,0c0.007,0.284,0.015,0.568,0.022,0.851
		c-5.382,0.054-10.764,0.107-16.146,0.161C4.155,211.705,4.092,211.367,4.03,211.03z"/>
	<path style="fill:#352547;" d="M743.071,269.284c-0.041,0.294-0.19,0.51-0.449,0.648c-0.073-0.116-0.145-0.231-0.218-0.347
		C742.627,269.485,742.849,269.385,743.071,269.284z"/>
	<path style="fill:#392A4B;" d="M1535.086,41.252c-0.286,0.248-0.571,0.496-0.857,0.744
		C1534.115,41.288,1534.405,41.046,1535.086,41.252z"/>
	<path style="fill:#62546F;" d="M514.144,59.881c-1.454,0.121-2.928,0.328-4.05-0.955c0.376-0.284,0.751-0.814,1.127-0.815
		c13.058-0.043,26.115-0.036,40.171-0.036c-2.193,1.221-3.6,0.831-4.904,0.837c-9.442,0.044-18.885-0.016-28.327,0.069
		C516.825,58.993,515.14,58.107,514.144,59.881z"/>
	<path style="fill:#4A3C5A;" d="M510.106,187.082c1.165-1.085,2.587-1.055,4.031-0.93c1.088,1.615,2.735,0.807,4.1,0.818
		c9.275,0.078,18.551,0.041,27.826,0.041c1.461,0,2.923,0,5.331,0c-1.987,1.283-3.249,0.947-4.409,0.95
		c-10.932,0.029-21.864,0.048-32.795-0.022C512.826,187.931,511.171,188.73,510.106,187.082z"/>
</g>
</svg>
