<?xml version="1.0" encoding="iso-8859-1"?>
<!-- Generator: Adobe Illustrator 27.0.0, SVG Export Plug-In . SVG Version: 6.00 Build 0)  -->
<svg version="1.1" id="Layer_1" xmlns="http://www.w3.org/2000/svg" xmlns:xlink="http://www.w3.org/1999/xlink" x="0px" y="0px"
	 viewBox="0 0 1574 1574" style="enable-background:new 0 0 1574 1574;" xml:space="preserve">
<g>
	<path style="fill:#F15625;" d="M0,788c0-0.333,0-0.667,0-1c0.252-0.354,0.504-0.708,0.755-1.063
		c1.232-1.112,2.518-2.171,3.69-3.343C263.838,523.216,523.223,263.831,782.601,4.438c1.17-1.17,2.227-2.452,3.336-3.682
		C786.393,0.647,786.849,0.538,787,0c0.333,0,0.667,0,1,0c0.319,2.189,2.246,3.146,3.587,4.487
		c259.283,259.334,518.592,518.641,777.9,777.949c0.943,0.943,1.883,1.887,2.831,2.824c0.463,0.457,0.905,0.985,1.681,0.74
		c0,0.667,0,1.333,0,2c-2.069,0.221-2.891,2.074-4.121,3.3c-23.473,23.395-46.897,46.84-70.332,70.274
		c-56.996,56.996-113.987,113.996-171.012,170.963c-1.342,1.341-2.305,3.267-4.502,3.57c-0.118-1.749,0.835-3.199,1.417-4.724
		c4.915-12.882,9.877-25.746,14.869-38.598c33.419-86.049,66.855-172.092,100.241-258.154c0.696-1.795,1.998-3.524,1.397-5.673
		c0.449,0.053,0.87,0.082,0.469-0.568c-0.134,0.214-0.268,0.428-0.403,0.641c-1.716,0.243-3.005,1.373-4.386,2.237
		c-60.269,37.71-120.518,75.452-180.774,113.184c-29.765,18.639-59.536,37.268-89.313,55.886c-1.02,0.638-1.953,1.688-4.091,1.312
		c36.052-124.27,72.003-248.189,107.953-372.107c-0.36-0.189-0.721-0.377-1.081-0.566
		c-90.909,104.246-181.818,208.491-272.728,312.737c-0.342-0.145-0.683-0.289-1.025-0.434
		c26.839-161.787,53.677-323.574,80.516-485.36c-0.251-0.063-0.502-0.127-0.753-0.19
		c-66.561,127.489-133.122,254.977-199.843,382.771c-37.664-222.237-75.239-443.949-112.814-665.66
		c-2.31,11.101-1.594,22.302-2.53,33.406c-0.881,10.442-0.652,20.976-1.449,31.429c-0.545,7.153-0.57,14.307-0.952,21.454
		c-0.917,17.117-1.875,34.231-2.73,51.351c-0.498,9.977-0.747,19.966-1.257,29.942c-0.816,15.954-1.822,31.898-2.623,47.852
		c-0.534,10.642-0.541,21.319-1.369,31.934c-0.597,7.653-0.6,15.306-1.003,22.953c-0.596,11.299-1.211,22.598-1.763,33.9
		c-0.446,9.145-0.747,18.298-1.227,27.441c-0.854,16.283-1.938,32.554-2.653,48.843c-0.562,12.801-1.24,25.594-1.875,38.391
		c-0.71,14.293-1.349,28.59-2.079,42.884c-0.688,13.459-1.271,26.924-1.968,40.385c-0.731,14.124-1.203,28.261-2.074,42.383
		c-0.656,10.63-0.837,21.289-1.232,31.935c-0.037,0.999-0.088,1.998-0.145,2.996c-0.583,10.13-1.426,20.254-1.681,30.392
		c-0.256,10.156-1.386,20.265-1.317,30.437c0.023,3.333-0.662,6.67-1.023,10.006c-0.171,0.012-0.342,0.024-0.513,0.036
		c-44.832-156.326-89.663-312.653-134.654-469.535c-1.034,1.968-0.709,3.321-0.643,4.623c0.599,11.8,1.348,23.594,1.845,35.399
		c0.841,19.957,1.944,39.898,3.048,59.842c0.69,12.462,1.323,24.93,1.939,37.396c0.952,19.284,1.99,38.562,3.005,57.842
		c0.665,12.631,1.238,25.266,1.988,37.895c1.173,19.773,2.175,39.557,3.037,59.346c0.543,12.475,1.261,24.937,1.95,37.403
		c1.213,21.942,2.139,43.9,3.249,65.848c0.924,18.287,1.966,36.568,2.9,54.855c0.501,9.812,0.555,19.658,1.418,29.436
		c0.732,8.302,0.575,16.628,1.377,24.928c0.799,8.268,0.824,16.611,1.188,24.921c-0.23,0.092-0.461,0.184-0.691,0.277
		C563.354,657.57,505.533,531.478,447.711,405.385c-0.262,0.079-0.523,0.158-0.785,0.237
		c22.642,155.539,45.285,311.078,68.081,467.673c-83.276-98.916-165.834-196.98-248.393-295.045c-0.32,0.157-0.64,0.314-0.96,0.471
		c8.303,26.052,16.598,52.107,24.91,78.156c8.336,26.123,16.692,52.24,25.032,78.362c8.292,25.972,16.584,51.944,24.86,77.921
		c8.329,26.143,16.631,52.295,24.959,78.438c8.298,26.05,16.787,52.041,25.019,78.766c-2.897-0.861-4.347-2.286-5.915-3.455
		c-10.009-7.462-19.962-14.998-29.957-22.478c-57.848-43.291-115.703-86.572-173.554-129.857
		c-21.464-16.06-42.911-32.142-64.424-48.137c-1.354-1.007-2.431-2.894-4.631-2.386c0.119-0.375,0.024-0.572-0.344-0.595
		c0.159,0.196,0.292,0.361,0.426,0.526c0.228,0.785,0.367,1.611,0.698,2.35c18.549,41.458,37.102,82.914,55.681,124.359
		c16.473,36.747,32.981,73.478,49.449,110.226c0.596,1.33,1.568,2.615,1.076,4.243c-2.148-0.439-3.131-2.344-4.493-3.704
		C144.33,931.393,74.249,861.299,4.128,791.245C2.909,790.027,2.116,788.127,0,788z M993.984,277.981
		c-1.404-0.21-2.581,0.453-3.816,0.949c-10.486,4.211-20.966,8.44-31.488,12.562c-1.586,0.621-3.156,1.871-5.459,1.041
		c0-14.63,0-29.245,0-43.86c-0.284-0.106-0.568-0.211-0.852-0.317c-8.83,13.517-17.66,27.034-26.671,40.829
		c-9.239-11.29-18.049-22.055-26.86-32.821c-0.299,0.107-0.598,0.214-0.897,0.32c1.421,18.55,2.843,37.1,4.288,55.962
		c-9.986-1.353-19.272-2.61-29.761-4.031c11.136,12.779,21.46,24.628,31.768,36.457c-7.288,15.22-15.058,29.747-22.053,44.641
		c0.297,0.241,0.594,0.481,0.892,0.722c17.73-11.59,35.46-23.18,53.412-34.915c10.502,12.668,20.654,24.914,30.806,37.16
		c0.281-0.116,0.562-0.232,0.843-0.348c-2.702-17.897-5.403-35.795-8.124-53.822c17.758-5.673,35.113-11.217,53.119-16.969
		c-14.48-4.443-28.298-8.683-42.622-13.078c6.561-8.146,12.665-15.59,18.596-23.171c1.794-2.293,4.343-4.135,4.92-7.271
		c0.153-0.04,0.332-0.045,0.45-0.132c0.075-0.056,0.106-0.328,0.076-0.343C994.247,277.394,994.051,277.553,993.984,277.981z"/>
	<path style="fill:#41BA93;" d="M788,1574c-0.667,0-1.333,0-2,0c-0.645-1.82-2.262-2.825-3.531-4.092
		c-106.865-106.663-213.755-213.3-320.628-319.955c-58.273-58.155-116.518-116.337-174.767-174.516
		c-1.05-1.048-1.985-2.211-2.974-3.32c1.083-0.773,2.153-1.564,3.25-2.317c22.677-15.57,46.511-29.194,70.901-41.85
		c41.545-21.558,84.478-39.889,128.776-55.025c41.847-14.298,84.381-25.96,127.855-34.215c22.342-4.242,44.709-8.15,67.294-10.915
		c15.505-1.898,31.052-3.257,46.598-4.592c12.918-1.11,25.9-1.687,38.865-1.99c24.314-0.568,48.63-0.303,72.93,0.875
		c0.666,0.032,1.332,0.067,1.995,0.136c11.24,1.156,22.555,1.321,33.784,2.694c8.074,0.987,16.233,1.302,24.296,2.362
		c12.826,1.687,25.601,3.764,38.403,5.644c20.038,2.944,39.869,7.015,59.582,11.561c37.401,8.625,74.158,19.497,110.278,32.524
		c34.28,12.363,67.796,26.524,100.619,42.334c24.152,11.633,47.813,24.205,71.027,37.608c5.013,2.894,10.367,5.27,14.807,9.108
		c-1.377,1.447-2.723,2.925-4.135,4.336c-166.562,166.505-333.129,333.004-499.679,499.52
		C790.276,1571.186,788.678,1572.204,788,1574z"/>
	<path style="fill:#FAEE4D;" d="M284.1,1072.117c-14.937-14.858-29.877-29.713-44.81-44.574c-4.704-4.681-9.369-9.402-14.098-14.058
		c-2.018-1.986-3.863-4.078-5.137-6.628c-0.333-0.651,0.08-1.776-1.171-1.844l0.055,0.145c0.492-1.627-0.48-2.913-1.076-4.243
		c-16.469-36.748-32.977-73.479-49.449-110.226c-18.579-41.445-37.132-82.901-55.681-124.359c-0.331-0.739-0.47-1.565-0.698-2.35
		l-0.082,0.069c2.201-0.508,3.277,1.38,4.631,2.386c21.513,15.995,42.96,32.077,64.424,48.137
		c57.852,43.286,115.707,86.567,173.554,129.857c9.995,7.48,19.948,15.017,29.957,22.478c1.568,1.169,3.018,2.594,5.915,3.455
		c-8.232-26.725-16.721-52.716-25.019-78.766c-8.328-26.143-16.63-52.295-24.959-78.438c-8.276-25.977-16.567-51.949-24.86-77.921
		c-8.34-26.122-16.697-52.239-25.032-78.362c-8.312-26.049-16.607-52.104-24.91-78.156c0.32-0.157,0.64-0.314,0.96-0.471
		c82.559,98.064,165.117,196.129,248.393,295.045c-22.796-156.595-45.439-312.134-68.081-467.673
		c0.262-0.079,0.523-0.158,0.785-0.237c57.822,126.092,115.643,252.185,173.465,378.277c0.23-0.092,0.461-0.184,0.691-0.277
		c-0.364-8.31-0.389-16.653-1.188-24.921c-0.802-8.3-0.644-16.626-1.377-24.928c-0.863-9.777-0.917-19.624-1.418-29.436
		c-0.933-18.287-1.976-36.568-2.9-54.855c-1.109-21.948-2.036-43.906-3.249-65.848c-0.689-12.466-1.407-24.928-1.95-37.403
		c-0.862-19.789-1.864-39.573-3.037-59.346c-0.749-12.629-1.323-25.264-1.988-37.895c-1.015-19.28-2.053-38.558-3.005-57.842
		c-0.615-12.466-1.249-24.933-1.939-37.396c-1.104-19.943-2.207-39.885-3.048-59.842c-0.497-11.804-1.246-23.598-1.845-35.399
		c-0.066-1.302-0.392-2.655,0.643-4.623c44.991,156.882,89.823,313.209,134.654,469.535c0.171-0.012,0.342-0.024,0.513-0.036
		c0.361-3.335,1.046-6.673,1.023-10.006c-0.07-10.172,1.061-20.281,1.317-30.437c0.255-10.138,1.098-20.262,1.681-30.392
		c0.057-0.998,0.108-1.997,0.145-2.996c0.395-10.646,0.576-21.305,1.232-31.935c0.871-14.122,1.344-28.258,2.074-42.383
		c0.696-13.461,1.28-26.926,1.968-40.385c0.73-14.294,1.37-28.591,2.079-42.884c0.635-12.796,1.313-25.589,1.875-38.391
		c0.716-16.288,1.799-32.56,2.653-48.843c0.48-9.143,0.78-18.296,1.227-27.441c0.552-11.302,1.167-22.6,1.763-33.9
		c0.403-7.647,0.406-15.3,1.003-22.953c0.828-10.616,0.835-21.293,1.369-31.934c0.801-15.954,1.806-31.898,2.623-47.852
		c0.51-9.976,0.759-19.965,1.257-29.942c0.855-17.12,1.814-34.234,2.73-51.351c0.383-7.147,0.407-14.301,0.952-21.454
		c0.797-10.453,0.568-20.986,1.449-31.429c0.936-11.104,0.22-22.305,2.53-33.406c37.575,221.711,75.15,443.422,112.814,665.66
		c66.72-127.793,133.281-255.282,199.843-382.771c0.251,0.063,0.502,0.127,0.753,0.19c-26.839,161.787-53.677,323.574-80.516,485.36
		c0.342,0.145,0.683,0.289,1.025,0.434c90.909-104.246,181.818-208.491,272.728-312.737c0.36,0.189,0.721,0.377,1.081,0.566
		c-35.95,123.918-71.901,247.837-107.953,372.107c2.139,0.376,3.071-0.674,4.091-1.312c29.778-18.618,59.549-37.247,89.313-55.886
		c60.255-37.732,120.504-75.474,180.774-113.184c1.381-0.864,2.67-1.994,4.386-2.237l-0.067-0.074
		c0.601,2.148-0.701,3.877-1.397,5.673c-33.386,86.062-66.822,172.105-100.241,258.154c-4.992,12.852-9.954,25.716-14.869,38.598
		c-0.582,1.525-1.534,2.976-1.417,4.724l0.073-0.141c-0.707,0.338-0.766,1.037-0.935,1.676c-0.213,1.041-0.956,1.728-1.66,2.428
		c-8.714,8.667-17.434,17.328-26.153,25.991c-4.44-3.838-9.794-6.213-14.807-9.108c-23.214-13.403-46.875-25.975-71.027-37.608
		c-32.823-15.81-66.339-29.97-100.619-42.334c-36.12-13.027-72.877-23.9-110.278-32.524c-19.714-4.546-39.545-8.618-59.582-11.561
		c-12.801-1.881-25.576-3.957-38.403-5.644c-8.063-1.061-16.221-1.375-24.296-2.362c-11.23-1.373-22.544-1.538-33.784-2.694
		c-0.663-0.068-1.329-0.103-1.995-0.136c-24.299-1.178-48.616-1.444-72.93-0.875c-12.966,0.303-25.947,0.88-38.865,1.99
		c-15.546,1.336-31.093,2.695-46.598,4.592c-22.586,2.764-44.952,6.672-67.294,10.915c-43.474,8.255-86.008,19.916-127.855,34.215
		c-44.298,15.136-87.231,33.467-128.776,55.025c-24.39,12.656-48.224,26.28-70.901,41.85
		C286.253,1070.553,285.182,1071.344,284.1,1072.117z"/>
	<path style="fill:#FFCF05;" d="M994.025,278.022c-0.576,3.136-3.126,4.978-4.92,7.271c-5.931,7.58-12.035,15.025-18.596,23.171
		c14.324,4.395,28.141,8.635,42.622,13.078c-18.006,5.752-35.361,11.296-53.119,16.969c2.721,18.027,5.423,35.925,8.124,53.822
		c-0.281,0.116-0.562,0.232-0.843,0.348c-10.152-12.246-20.304-24.492-30.806-37.16c-17.952,11.735-35.682,23.325-53.412,34.915
		c-0.297-0.241-0.594-0.481-0.892-0.722c6.995-14.894,14.765-29.421,22.053-44.641c-10.308-11.83-20.633-23.678-31.768-36.457
		c10.489,1.421,19.775,2.678,29.761,4.031c-1.445-18.862-2.866-37.412-4.288-55.962c0.299-0.107,0.598-0.214,0.897-0.32
		c8.81,10.766,17.62,21.531,26.86,32.821c9.011-13.795,17.841-27.312,26.671-40.829c0.284,0.106,0.568,0.211,0.852,0.317
		c0,14.615,0,29.23,0,43.86c2.303,0.83,3.873-0.42,5.459-1.041c10.522-4.122,21.002-8.35,31.488-12.562
		c1.235-0.496,2.412-1.158,3.816-0.949L994.025,278.022z"/>
	<path style="fill:#FFCF05;" d="M993.984,277.981c0.067-0.429,0.262-0.588,0.567-0.435c0.03,0.015-0.001,0.287-0.076,0.343
		c-0.118,0.088-0.297,0.092-0.45,0.132L993.984,277.981z"/>
	<path style="fill:#FAEE4D;" d="M1442.024,729.031c0.134-0.214,0.268-0.428,0.403-0.641c0.4,0.649-0.02,0.62-0.469,0.568
		L1442.024,729.031z"/>
	<path style="fill:#FAEE4D;" d="M112.034,763.98c-0.134-0.165-0.268-0.33-0.426-0.526c0.368,0.023,0.464,0.221,0.344,0.595
		L112.034,763.98z"/>
	<path style="fill:#F15625;" d="M1323.172,1037.642c0.169-0.638,0.228-1.338,0.935-1.676
		C1324.406,1036.866,1323.822,1037.272,1323.172,1037.642z"/>
	<path style="fill:#F15625;" d="M218.883,1005.013c1.251,0.068,0.838,1.193,1.171,1.844
		C219.418,1006.398,218.647,1006.025,218.883,1005.013z"/>
	<path style="fill:#EE3325;" d="M1184.541,107.48c11.883,16.813,23.593,33.383,35.302,49.952c-0.143,0.244-0.287,0.488-0.43,0.732
		c-17.861-7.541-35.723-15.083-54.127-22.853c-10.513,18.265-21.013,36.507-32.057,55.696c0-19.144,0-37.19,0-55.743
		c-19.599-4.922-39.055-9.807-59.573-14.96c13.684-5.435,26.894-9.663,40.275-14.886c-6.939-17.323-13.843-34.556-20.746-51.79
		c0.182-0.199,0.365-0.399,0.547-0.598c11.559,9.448,23.118,18.897,34.924,28.547c6.905-19.636,12.613-39.292,19.709-59.191
		c2.862,17.207,5.576,33.531,8.442,50.76c13.57-12.102,26.406-23.549,39.243-34.997c0.2,0.146,0.4,0.292,0.6,0.438
		c-4.64,12.587-9.28,25.173-14.199,38.519c13.737-0.647,26.778-2.825,40.4-3.75C1210.023,84.781,1197.469,95.964,1184.541,107.48z"
		/>
	<path style="fill:#EE3225;" d="M1272.765,221.788c0.901,1.755-0.661,2.76-1.334,3.931c-5.138,8.943-10.386,17.823-15.573,26.738
		c-0.825,1.418-1.919,2.711-2.362,4.943c11.343,5.362,22.79,10.773,34.238,16.185c-0.045,0.306-0.09,0.612-0.135,0.918
		c-12.717,2.062-25.434,4.125-38.831,6.297c2.029,20.296,4.043,40.441,6.172,61.733c-13.335-12.996-25.842-25.499-38.45-38.271
		c-14.615,9.041-29.157,18.037-44.696,27.649c3.588-16.891,6.973-32.822,10.393-48.922c-11.935-8.502-23.687-16.873-36.11-25.723
		c11.051-0.813,21.246-1.564,31.927-2.35c-0.669-16.072-1.328-31.917-2.034-48.902c11.037,10.224,21.258,19.692,31.991,29.635
		c9.098-11.086,18.111-22.067,27.715-33.769c-1.396,14.336-2.701,27.733-4.03,41.375c2.413,0.297,3.802-0.984,5.291-1.79
		c11.997-6.491,23.969-13.029,35.949-19.552C1272.885,221.912,1272.765,221.788,1272.765,221.788z"/>
	<path style="fill:#EE3225;" d="M1272.885,221.912c0.166-0.063,0.333-0.126,0.394-0.149c-0.097,0.005-0.305,0.015-0.514,0.026
		C1272.765,221.788,1272.885,221.912,1272.885,221.912z"/>
</g>
</svg>
