<?xml version="1.0" encoding="iso-8859-1"?>
<!-- Generator: Adobe Illustrator 27.0.0, SVG Export Plug-In . SVG Version: 6.00 Build 0)  -->
<svg version="1.1" id="Layer_1" xmlns="http://www.w3.org/2000/svg" xmlns:xlink="http://www.w3.org/1999/xlink" x="0px" y="0px"
	 viewBox="0 0 1575.213 316.011" style="enable-background:new 0 0 1575.213 316.011;" xml:space="preserve">
<g>
	<path style="fill:#233F65;" d="M1575.213,130c-2.976,3.326-4.169,7.778-7.156,11.139c-1.993,2.242-3.902,4.565-6.135,6.557
		c-2.929,2.613-6.369,4.279-10.37,4.291c-12.142,0.035-24.273,0.094-36.417-0.651c-8.276-0.508-16.614-0.669-24.934,0.163
		c-7.781,0.778-15.602,0.608-23.694,0.401c-0.449-2.745,0.983-4.156,2.963-5.166c1.471-0.75,3.019-1.361,4.568-1.941
		c4.787-1.795,6.932-5.434,7.244-10.331c0.148-2.325,0.229-4.658,0.23-6.987c0.014-33.157,0.015-66.314-0.001-99.47
		c-0.001-2.329-0.04-4.669-0.27-6.984c-0.671-6.767-4.024-10.477-10.67-12.024c-1.29-0.3-2.62-0.529-3.833-1.03
		c-1.956-0.807-1.922-0.891-2.473-4.235c0.258-0.18,0.515-0.513,0.783-0.524c8.307-0.317,16.633-1.089,24.92-0.793
		c17.311,0.619,34.618,0.604,51.93,0.566c5.329-0.012,10.659-0.129,15.988-0.174c1.822-0.016,3.657-0.105,5.672,0.514
		c0.757,3.502,0.585,7.161,0.281,10.74c-0.421,4.957-0.356,9.981-1.579,14.855c-0.555,2.211-1.417,4.113-4.321,3.971
		c-2.275-2.597-2.276-5.9-2.398-8.946c-0.221-5.53-3.061-8.494-8.107-9.95c-3.368-0.972-6.788-1.853-10.258-1.914
		c-9.993-0.175-19.99-0.081-29.985-0.084c-0.665,0-1.334,0.04-1.993,0.123c-4.162,0.524-6.027,2.237-6.025,6.498
		c0.008,16.972-0.578,33.95,0.192,51.05c2.774,1.503,5.802,1.224,8.703,1.282c6.829,0.135,13.663,0.105,20.493,0.009
		c2.144-0.03,4.283-0.471,6.421-0.748c6.082-0.788,9.894-4.294,11.88-9.968c0.655-1.869,1.303-3.74,1.879-5.395
		c1.489-0.951,2.711-0.935,4.113-0.235c0,14.732,0,29.473,0,44.13c-1.885,0.73-3.24,0.297-4.585-0.51
		c-0.254-0.412-0.656-0.804-0.749-1.258c-0.593-2.932-1.166-5.857-2.145-8.702c-1.458-4.238-4.562-6.918-8.769-7.112
		c-12.269-0.565-24.558-0.358-37.031-0.055c-0.769,5.473-0.488,10.622-0.537,15.73c-0.116,12.148-0.069,24.301,0.109,36.449
		c0.092,6.262,1.598,7.672,7.689,9.028c4.954,1.103,9.948,0.974,14.915,0.636c10.137-0.69,20.173-2.051,29.708-5.872
		c6.413-2.57,12.106-6.2,16.911-11.203c1.381-1.438,3.025-2.631,4.345-4.117c1.117-1.258,1.679,0.152,2.499,0.251
		C1575.213,124.667,1575.213,127.333,1575.213,130z"/>
	<path style="fill:#D3BA8F;" d="M1.21,314.957c0.001,0.348,0.002,0.695,0.004,1.043c-1.972,0.153-0.946-1.371-0.948-2
		c-0.064-19.333-0.052-38.666-0.052-58c0.366,0.064,0.731,0.129,1.097,0.193C1.276,275.781,1.243,295.369,1.21,314.957z"/>
	<path style="fill:#D3BA8F;" d="M0.213,178c0.333,0.016,0.666,0.016,0.999-0.002c0.007,19.392,0.015,38.785,0.022,58.177
		c-0.111,0.559-0.492,0.783-1.021,0.824C0.213,217.333,0.213,197.667,0.213,178z"/>
	<path style="fill:#D3BA8F;" d="M0.213,99c0.341,0.011,0.681,0.022,1.022,0.034c-0.033,19.354-0.065,38.707-0.098,58.06
		l-0.475,0.084L0.213,157C0.213,137.667,0.213,118.333,0.213,99z"/>
	<path style="fill:#8F92A9;" d="M1400.168,0.945c0.228-0.305,0.243-0.62,0.045-0.945c5.333,0,10.667,0,16,0
		c-0.148,0.319-0.129,0.628,0.058,0.927C1410.903,0.933,1405.536,0.939,1400.168,0.945z"/>
	<path style="fill:#BF9B5D;" d="M1.21,314.957c0.033-19.588,0.067-39.176,0.1-58.764c26.656-15.602,53.328-31.178,79.965-46.813
		c22.772-13.365,45.5-26.804,68.256-40.197c24.329-14.319,48.68-28.602,72.997-42.942c20.455-12.062,40.81-24.297,61.337-36.234
		c12.19-7.088,24.98-12.358,39.607-11.154c12.642,1.04,21.454,7.322,26.482,18.851c1.374,3.151,2.136,6.568,3.207,9.952
		c-2.585,2.69-5.871,3.999-8.826,5.748c-25.439,15.055-50.904,30.064-76.387,45.043c-28.059,16.494-56.155,32.925-84.216,49.416
		c-21.189,12.452-42.344,24.96-63.522,37.43c-27.475,16.178-54.963,32.335-82.436,48.517c-11.446,6.742-22.871,13.52-34.295,20.298
		C2.761,314.535,2.114,315.067,1.21,314.957z"/>
	<path style="fill:#BF9B5D;" d="M1.234,236.176c-0.007-19.392-0.015-38.785-0.022-58.177c9.995-6.538,20.481-12.252,30.756-18.319
		c27.89-16.466,55.804-32.893,83.733-49.294c33.656-19.765,67.336-39.489,101.005-59.23c10.459-6.132,20.842-12.401,31.401-18.355
		c10.27-5.791,21.229-9.366,33.219-8.895c17.088,0.67,29.167,13.046,30.782,29.97c-5.655,3.336-11.484,6.789-17.327,10.217
		c-32.662,19.164-65.326,38.327-97.994,57.481c-27.939,16.381-55.901,32.723-83.823,49.134
		c-22.91,13.466-45.773,27.011-68.66,40.516c-13.446,7.934-26.893,15.866-40.353,23.776C3.108,235.495,2.143,235.788,1.234,236.176z
		"/>
	<path style="fill:#213E64;" d="M1098.546,80.699c-0.25-1.42-0.296-2.392,0.288-3.258c0.312-0.171,0.592-0.457,0.871-0.455
		c2.662,0.02,5.298,0.302,7.946,0.617c8.031,0.955,15.94,0.411,23.568-2.549c10.595-4.111,15.979-12.139,16.845-23.184
		c1.528-19.501-10.209-35.163-29.624-39.825c-7.686-1.846-15.416-1.825-23.07-0.514c-1.774,2.912-1.401,5.858-1.408,8.594
		c-0.092,34.996-0.074,69.993-0.039,104.99c0.003,2.816,0.283,5.604,1.127,8.368c1.987,6.508,6.107,10.439,12.855,11.688
		c2.884,0.533,6.029,0.669,8.045,3.536c-0.537,3.3-3.129,3.473-5.625,3.444c-5.161-0.059-10.37,0.092-15.466-0.566
		c-6.354-0.82-12.611,0.225-18.914,0.151c-8.325-0.097-16.662-0.01-24.981,0.319c-8.594,0.339-15.487-3.097-21.498-8.823
		c-3.151-3.001-5.821-6.422-8.171-10.066c-8.382-12.993-16.72-26.014-25.039-39.048c-2.596-4.067-5.069-8.212-8.674-11.699
		c-7.84-1.098-15.766-1.249-24.054-0.281c-1.371,6.411-1.225,13.017-1.275,19.587c-0.068,8.995,0.067,17.991,0.115,26.986
		c0.004,0.664-0.006,1.33,0.025,1.993c0.351,7.572,2.628,10.855,9.752,13.345c3.73,1.303,7.615,2.162,11.308,3.188
		c0.624,1.489,0.541,2.808,0.516,4.111c-0.295,0.201-0.578,0.562-0.831,0.542c-17.724-1.384-35.472,0.146-52.966,0.139
		c-1.01-2.111-0.173-3.418,0.211-4.765c2.199-1.04,4.258-2.118,6.396-3.007c5.395-2.242,7.655-6.605,8.29-12.067
		c0.172-1.482,0.133-2.993,0.133-4.491c0.007-33.83,0.008-67.66-0.003-101.491c-0.001-1.663,0.017-3.345-0.215-4.984
		c-0.848-5.988-3.737-10.116-10.086-11.41c-2.543-0.519-5.231-0.934-7.387-2.381c-0.899-1.406-0.182-2.671-0.236-3.989
		c0.615-0.185,1.071-0.44,1.528-0.441c8.158-0.022,16.316-0.05,24.474,0c9.491,0.058,18.966-0.293,28.442-0.784
		c7.692-0.399,15.225,0.571,22.7,2.511c30.624,7.95,31.752,42.397,16.536,58.977c-2.254,2.456-4.592,4.836-7.392,6.681
		c-2.768,1.824-5.589,3.568-8.469,5.4c-0.429,1.022,0.332,1.75,0.875,2.572c11.369,17.207,22.719,34.426,34.097,51.627
		c3.616,5.467,7.842,10.37,13.583,13.725c6.15,3.593,11.722,3.175,17.147-1.054c3.925-3.06,4.566-7.56,5.325-11.973
		c0.307-1.787,0.196-3.655,0.196-5.486c0.01-32.497,0.011-64.994,0-97.491c-0.001-2.992-0.169-5.95-0.701-8.936
		c-0.971-5.453-3.882-8.539-9.383-9.454c-2.108-0.351-4.342,0.066-6.619-1.056c-0.464-1.648-0.394-3.401-0.033-5.059
		c1.25-1.152,2.576-0.827,3.907-0.74c13.464,0.878,26.915,0.499,40.395,0.062c14.199-0.46,28.243,0.876,41.165,7.762
		c23.874,12.724,24.132,41.476,9.531,57.965c-7.35,8.301-16.721,12.945-27.589,14.723c-7.602,1.244-15.204,1.799-22.798-0.034
		C1102.26,82.475,1100.354,81.914,1098.546,80.699z M962.617,70.826c1.245,1.966,2.828,2.28,4.539,2.475
		c8.137,0.929,16.308,0.98,24.34-0.449c11.133-1.981,18.677-8.455,21.363-19.66c1.234-5.149,1.521-10.427,0.541-15.816
		c-1.848-10.154-6.829-17.852-16.156-22.507c-7.135-3.56-14.819-4.666-22.687-4.868c-3.832-0.098-7.64-0.061-11.054,1.905
		C962.228,18.843,961.669,56.691,962.617,70.826z"/>
	<path style="fill:#BF9B5E;" d="M1.137,157.094c0.033-19.354,0.065-38.707,0.098-58.06c8.976-5.318,17.941-10.657,26.931-15.952
		c29.902-17.61,59.79-35.244,89.73-52.788c15.328-8.981,30.76-17.784,46.135-26.686c1.434-0.83,2.788-1.798,4.179-2.702
		c1.121,0.049,1.893,0.425,1.855,1.749c-0.043,1.496-0.007,2.994-0.006,4.491c0.007,10.98,0.024,21.96,0.017,32.94
		c-0.004,5.975,0.147,11.96-1.096,18.475c-1.274,1.929-3.866,3.152-6.277,4.56c-15.032,8.777-30.108,17.479-45.132,26.27
		c-22.753,13.314-45.477,26.679-68.211,40.025c-14.727,8.646-29.447,17.304-44.185,25.932
		C3.912,156.087,2.762,157.162,1.137,157.094z"/>
	<path style="fill:#BF9B5E;" d="M169.604,236.132c60.987-35.902,121.772-71.685,183.341-107.929
		c-0.989,8.761-3.164,16.147-5.844,23.364c-5.716,15.392-13.978,29.401-24.268,42.131c-11.17,13.819-24.321,25.451-39.774,34.412
		c-14.656,8.498-29.2,17.188-43.808,25.769c-22.055,12.955-44.122,25.889-66.185,38.83c-0.967,0.567-1.792,1.566-3.461,1.025
		C169.604,274.559,169.604,255.325,169.604,236.132z"/>
	<path style="fill:#213E64;" d="M1295.723,6.584c-0.529-1.199-0.466-2.162,0.001-3.799c16.326,0.289,32.829,0.294,49.544-0.012
		c-0.588,3.691-2.93,4.566-5.253,5.508c-9.68,3.924-10.115,4.585-10.115,15.056c0,36.157-0.002,72.314,0.001,108.471
		c0.001,8.013,1.619,10.226,9.188,12.606c1.899,0.597,3.823,1.123,5.709,1.759c2.484,0.838,4.035,2.325,3.215,5.519
		c-6.006,0.744-12.151,0.442-18.229-0.118c-5.001-0.461-10.023-0.714-14.948-0.259c-9.318,0.861-18.637,0.309-27.939,0.746
		c-8.811,0.414-15.801-3.163-21.906-9.04c-4.349-4.186-7.702-9.158-10.921-14.218c-8.3-13.048-16.563-26.12-24.871-39.164
		c-1.069-1.678-2.231-3.313-3.502-4.841c-1.435-1.726-3.332-2.623-5.627-2.858c-7.116-0.727-14.202-0.817-21.965,0.635
		c0,2.831,0,5.774,0,8.716c0,12.663-0.004,25.326,0.005,37.99c0.001,1.332-0.031,2.677,0.137,3.993
		c0.562,4.409,2.552,7.755,6.823,9.674c4.428,1.99,9.23,2.655,13.883,4.27c0.682,1.293,0.956,2.721,0.969,4.823
		c-17.911-0.612-35.81-0.941-53.428,0.21c-1.38-1.744-0.974-3.189-0.698-4.66c1.985-1.62,4.496-2.12,6.68-3.281
		c4.525-2.405,7.582-5.683,8.096-11.122c0.282-2.98,0.626-5.947,0.627-8.939c0.009-30.992,0.002-61.983,0.011-92.975
		c0.001-3.834-0.336-7.628-0.893-11.423c-0.731-4.975-3.423-8.217-8.203-9.616c-2.848-0.834-5.776-1.398-8.467-2.036
		c-0.946-1.661-0.488-3.195-0.673-4.695c1.74-0.892,3.587-0.763,5.383-0.681c12.823,0.58,25.645,0.115,38.465-0.046
		c3.646-0.046,7.286-0.57,10.932-0.621c10.388-0.147,20.544,0.937,30.093,5.563c11.847,5.739,17.435,15.526,18.215,28.224
		c1.055,17.178-7.529,29.05-21.55,37.719c-1.244,0.769-2.792,1.06-4.03,2.723c2.95,4.59,5.929,9.325,9.008,13.995
		c8.514,12.913,17.054,25.808,25.615,38.69c3.712,5.585,7.944,10.701,13.765,14.246c10.305,6.275,22.267,0.193,23.314-11.853
		c0.144-1.656,0.129-3.329,0.129-4.994c0.007-33.991,0.005-67.982,0.005-101.972c0-0.333,0.002-0.667,0-1
		c-0.078-9.476-2.243-12.352-11.228-15.06C1299.352,7.911,1297.458,7.841,1295.723,6.584z M1198.215,71.685
		c1.401,0.721,2.438,1.16,3.613,1.372c8.458,1.523,16.978,1.234,25.318-0.224c7.879-1.377,14.629-5.091,18.728-12.624
		c5.863-10.776,4.689-27.698-2.887-37.3c-0.92-1.166-1.965-2.272-3.109-3.217c-10.575-8.744-23.154-10.159-36.163-9.495
		c-3.784,0.193-5.454,2.287-5.467,5.867C1198.178,34.519,1198.215,52.976,1198.215,71.685z"/>
	<path style="fill:#223E65;" d="M645.748,120.513c1.188-2.096,0.755-3.762,0.756-5.341c0.029-28.158,0.021-56.315,0.021-84.473
		c0-1,0.03-2.001-0.01-2.999c-0.363-9.003-4.447-14.535-12.908-17.588c-3.249-1.172-6.817-1.438-9.768-3.285
		c-0.596-1.535-0.024-2.669,0.983-4.112c14.578,0.556,29.354,0.193,44.087,0.165c0.644,2.801-0.48,4.098-2.514,5.041
		c-1.646,0.763-3.265,1.657-4.733,2.717c-2.988,2.158-4.701,5.054-4.761,8.865c-0.121,7.65-0.454,15.299-0.465,22.949
		c-0.052,34.322-0.013,68.645-0.042,102.967c-0.002,2.612,0.491,5.375-1.618,7.833c-3.834-0.963-6.502-3.675-9.014-6.482
		c-8.436-9.427-16.785-18.932-25.176-28.399c-19.649-22.168-39.304-44.33-58.952-66.499c-2.427-2.738-4.832-5.496-7.237-8.254
		c-0.887-1.017-1.719-2.115-3.349-1.473c-0.98,0.725-0.617,1.8-0.62,2.735c-0.082,28.653-0.141,57.307-0.21,85.96
		c-0.004,1.67,0.167,3.303,0.456,4.957c0.877,5.007,3.88,7.853,8.649,9.213c2.85,0.813,5.905,0.835,8.536,2.089
		c0.619,1.603,0.254,3.039,0.3,5.122c-15.33-1.077-30.382-1.18-45.322,0.035c-0.918-1.897-0.614-3.346-0.477-4.877
		c0.379-0.263,0.738-0.617,1.17-0.789c0.922-0.367,1.869-0.692,2.829-0.943c9.245-2.416,13.067-9.034,13.836-17.948
		c0.243-2.816,0.314-5.655,0.317-8.483c0.024-24.159,0.044-48.318-0.005-72.477c-0.014-6.984-0.236-13.956-2.159-20.768
		c-2.388-8.459-7.307-14.405-16.027-16.764c-2.376-0.643-4.856-0.993-6.918-2.312c-0.446-1.567-0.198-2.77,1.162-3.961
		c7.219-0.184,14.7,0.519,22.907-0.514C574.644,41.501,610.094,80.894,645.748,120.513z"/>
	<path style="fill:#243F65;" d="M490.7,54.371c1.35-0.28,2.328-0.447,3.506,0.159c1.405,1.896,0.998,4.329,0.937,6.566
		c-0.301,11.162-0.328,22.321,0.016,33.479c0.08,2.601-0.194,4.665-3.392,4.896c-2.637-1.388-2.631-4.182-3.263-6.451
		c-2.935-10.535-4.82-12.119-15.565-12.115c-9.499,0.003-18.998,0.059-28.496,0.124c-0.959,0.007-2.009-0.312-3.536,1.067
		c0,2.669,0,5.958,0,9.247c0,13.166-0.004,26.333,0.006,39.499c0.001,1.331,0.025,2.669,0.151,3.992
		c0.394,4.138,1.87,6.02,5.83,7.039c2.405,0.619,4.829,1.219,7.37,1.23c10.019,0.046,19.953-0.712,29.714-3.076
		c10.731-2.598,20.281-7.331,27.834-15.619c0.896-0.983,1.887-1.883,2.86-2.792c0.231-0.216,0.57-0.315,1.041-0.563
		c1.509,2.354,1.569,4.698,0.822,7.418c-2.305,8.398-7.456,14.795-13.959,20.184c-2.856,2.367-6.399,3.387-10.226,3.38
		c-11.814-0.02-23.614-0.055-35.427-0.707c-8.612-0.476-17.267-0.496-25.931,0.225c-6.943,0.578-13.972,0.117-21.482,0.117
		c-0.756-0.456-1.233-1.601-1.264-3.09c0.335-0.286,0.656-0.698,1.078-0.899c1.796-0.853,3.572-1.792,5.447-2.429
		c5.612-1.909,8.151-5.96,8.427-11.668c0.137-2.827,0.303-5.657,0.305-8.485c0.022-31.333,0.042-62.666-0.02-93.998
		c-0.009-4.305,0.081-8.621-1.029-12.895c-1.209-4.657-3.87-7.582-8.535-8.746c-2.407-0.6-4.784-1.317-7.039-1.944
		c-1.277-1.243-0.861-2.559-0.633-3.822c0.834-0.824,1.882-0.669,2.857-0.694c11.13-0.284,22.241-0.7,33.399-0.305
		c19.144,0.679,38.311,0.367,57.469,0.105c1.631-0.022,3.263-0.003,5.526-0.003c-0.702,10.466,1.815,20.845-3.661,30.434
		c-2.281-0.587-3.227-2.073-3.696-3.938c-0.324-1.288-0.654-2.591-0.785-3.907c-0.818-8.222-2.511-10.33-10.51-12.058
		c-3.234-0.698-6.519-1.326-9.877-1.329c-8.998-0.007-17.997-0.069-26.995-0.092c-0.998-0.003-2.01,0.02-2.991,0.179
		c-4.441,0.722-5.749,1.953-5.891,6.521c-0.223,7.158-0.199,14.327-0.17,21.49c0.041,9.816-0.272,19.638,0.293,29.548
		c2.449,1.48,5.136,1.157,7.716,1.178c8.816,0.072,17.63,0.602,26.444-0.404c7.524-0.858,12.186-4.718,13.963-12.095
		C489.645,57.055,490.187,55.84,490.7,54.371z"/>
	<path style="fill:#223E65;" d="M818.949,151.901c-0.778-1.387-0.699-2.351-0.366-3.701c2.452-1.167,5.129-2.412,7.781-3.71
		c4.455-2.18,6.75-5.74,6.796-10.733c0.031-3.33,0.152-6.66,0.154-9.991c0.012-32.32,0.008-64.639,0.005-96.959
		c0-3.161,0.021-6.305-1.016-9.38c-1.249-3.703-3.42-6.405-7.268-7.559c-2.848-0.854-5.691-1.724-8.443-2.559
		c-0.789-1.376-0.775-2.603,0.134-4.274c32.534-1.213,65.268,0.929,98.676-0.493c-0.177,9.205,0.747,17.931-1.366,26.592
		c-0.625,2.56-2.615,3.151-5.279,4.068c-0.47-3.283-1.099-6.29-1.29-9.325c-0.342-5.404-3.137-8.49-8.265-9.843
		c-4.353-1.149-8.726-2.09-13.242-2.111c-8.661-0.039-17.322-0.026-25.983-0.02c-0.998,0.001-2.005,0.026-2.993,0.157
		c-4.255,0.567-5.789,2.215-5.863,6.523c-0.124,7.159-0.187,14.32-0.212,21.48c-0.034,9.813-0.009,19.627-0.009,29.175
		c1.497,1.506,3.13,1.457,4.47,1.479c10.47,0.175,20.953,0.94,31.403-0.47c6.076-0.82,9.954-4.176,11.865-9.933
		c0.673-2.028,1.372-4.047,2.021-5.958c1.603-0.632,2.751-0.153,4.168,1.07c0.841,14.165-0.591,28.593,0.463,42.84
		c-1.665,0.923-2.975,0.674-4.384,0.589c-0.25-0.336-0.576-0.692-0.811-1.101c-1.523-2.644-1.695-5.712-2.649-8.539
		c-1.842-5.453-4.805-8.125-10.512-8.208c-11.157-0.163-22.32-0.002-33.48,0.051c-0.467,0.002-0.932,0.271-1.287,0.382
		c-1.4,1.273-1.05,2.85-1.051,4.309c-0.018,15.827-0.04,31.653,0.003,47.48c0.017,6.169,1.118,7.365,7.06,9.019
		c4.439,1.235,8.928,0.922,13.401,0.712c9.81-0.461,19.527-1.572,28.876-4.853c7.317-2.568,13.934-6.234,19.336-11.919
		c1.927-2.028,4.08-3.809,6.909-5.405c1.075,5.23-0.374,9.539-2.478,13.661c-2.6,5.096-6.24,9.449-10.499,13.222
		c-3.053,2.704-6.671,4.321-10.878,4.338c-11.975,0.047-23.936-0.012-35.911-0.679c-8.444-0.47-16.939-0.64-25.428,0.218
		C834.069,152.299,826.569,152.132,818.949,151.901z"/>
	<path style="fill:#213E64;" d="M1400.168,0.945c5.367-0.006,10.735-0.012,16.102-0.018c6.5,0.43,12.908,1.388,18.887,4.104
		c3.872,1.759,7.648,3.128,11.836,1.062c0.523-0.258,1.282-0.035,2.395-0.035c1.709,11.404,2.819,22.745,3.699,34.132
		c-1.258,1.337-2.773,0.703-4.151,0.683c-0.268-0.268-0.571-0.45-0.698-0.716c-1.638-3.451-3.248-6.915-4.871-10.372
		c-6.044-12.876-16.692-19.593-30.276-21.689c-9.342-1.442-18.59-0.341-27.261,3.915c-10.063,4.939-15.502,15.374-13.637,26.413
		c0.837,4.956,3.317,8.973,7.219,12.162c5.13,4.193,11.189,6.436,17.348,8.531c10.212,3.473,20.804,5.767,30.798,9.903
		c6.777,2.805,13.269,6.022,18.651,11.251c6.939,6.742,10.177,15.015,10.915,24.436c1.648,21.036-10.141,36.839-28.167,43.482
		c-19.731,7.272-39.604,7.732-59.337-0.291c-1.838-0.747-3.597-1.706-5.348-2.649c-1.827-0.984-3.375-2.449-3.755-4.47
		c-1.932-10.275-4.746-20.408-5.119-30.94c-0.011-0.32,0.121-0.646,0.214-1.108c1.34-1.158,2.925-1.005,4.725-0.594
		c1.422,4.378,2.763,8.798,4.749,13.006c8.302,17.589,27.738,27.555,48.648,24.523c8.899-1.29,17.001-4.576,23.406-11.197
		c6.972-7.207,9.548-15.934,7.969-25.687c-1.206-7.45-6.246-12.311-12.604-15.84c-7.758-4.306-16.304-6.502-24.739-8.977
		c-9.557-2.804-19.122-5.566-27.978-10.301c-16.433-8.786-21.69-23.313-19.032-40.248c2.811-17.902,15.088-26.876,31.546-31.248
		C1394.842,1.493,1397.468,0.835,1400.168,0.945z"/>
	<path style="fill:#213E64;" d="M732.14,15.485c-1.283-0.701-2.438-0.803-3.611-0.796c-11.657,0.072-23.313,0.178-34.97,0.211
		c-5.962,0.017-9.619,3.006-11.446,8.519c-0.886,2.673-1.797,5.338-2.667,8.016c-0.863,2.66-2.664,2.991-5.322,2.269
		c-0.063-10.338,1.36-20.309,3.198-30.326c4.279-1.253,8.709-0.923,12.894-0.803c28.801,0.828,57.6,0.457,86.399,0.411
		c6.648-0.011,13.288-0.065,19.934-0.553c3.423-0.251,6.92,0.499,10.306,0.791c1.67,4.246,2.799,20.386,1.895,26.73
		c-1.577,0.35-3.166,0.475-4.867-0.178c-1.077-1.919-0.712-4.179-1.283-6.245c-1.461-5.283-3.828-7.674-9.127-8.51
		c-1.312-0.207-2.654-0.308-3.982-0.311c-12.491-0.023-24.982-0.014-37.648-0.014c-1.583,3.442-1.619,7.07-1.614,10.684
		c0.048,34.311,0.118,68.621,0.181,102.932c0.002,0.999-0.022,1.999,0.004,2.998c0.21,8.277,2.483,11.303,10.298,13.678
		c2.055,0.624,4.127,1.192,5.755,1.661c1.054,0.987,0.969,1.845,0.927,2.661c-0.04,0.787,0.24,1.649-0.951,2.908
		c-16.204-1.285-32.932-1.274-49.808,0.019c-0.532-1.98-0.061-3.329,0.611-4.85c4.089-2.889,9.314-3.921,13.555-6.813
		c1.892-3.664,2.55-7.514,2.545-11.585c-0.045-34.814-0.009-69.629-0.054-104.443C733.289,21.448,733.752,18.218,732.14,15.485z"/>
	<path style="fill:#284167;" d="M450.062,272.02c-0.306,1.563-1.191,1.899-2.267,1.9c-11.778,0.007-23.556,0.005-35.596,0.005
		c0.486-2.917,2.373-4.096,4.237-5.047c3.724-1.902,4.973-4.762,4.946-8.909c-0.11-16.982,0.081-33.966,0.118-50.949
		c0.022-9.899-0.119-10.037-9.729-13.319c-1.079-0.369-2.135-0.804-3.217-1.214c-0.099-0.583-0.262-1.062-0.241-1.533
		c0.028-0.655,0.193-1.304,0.294-1.916c1.687-0.426,57.815-0.825,62.721-0.423c1.095,6.238,0.889,12.62,0.818,18.972
		c-1.556,0.622-2.803,0.583-4.009,0.065c-0.733-0.863-0.782-1.877-0.896-2.865c-0.616-5.318-3.591-8.436-8.825-9.382
		c-5.948-1.075-11.932-0.862-17.912-0.335c-1.2,0.106-2.149,0.828-3.259,2.097c-0.584,8.553-0.542,17.46,0.058,26.529
		c4.658,0.958,9.121,0.86,13.551,0.342c4.112-0.481,6.161-3.601,7.862-6.94c0.91-1.787,1.575-3.809,4.83-2.838
		c1.08,9.454,1.573,19.141,1.538,28.583c-1.265,1.295-2.387,1.138-3.671,0.809c-1.472-1.422-1.465-3.56-2.128-5.377
		c-1.537-4.214-4.197-6.644-8.867-6.571c-4.303,0.067-8.616-0.2-13.169,0.396c-0.628,2.333-0.291,4.643-0.312,6.903
		c-0.056,5.998,0.024,11.997-0.032,17.994c-0.045,4.76,2.234,7.743,6.565,9.547C445.784,269.506,448.765,269.494,450.062,272.02z"/>
	<path style="fill:#233F65;" d="M1395.229,196.44c1.983-1.252,2.317-3.317,4.219-3.607c2.086,2.914,3.887,16.699,3.469,26.564
		c-0.931,1.007-2.053,0.624-3.451,0.299c-1.852-3.289-3.658-6.832-6.038-10.024c-4.354-5.839-9.49-10.649-16.494-13.191
		c-11.658-4.232-23.7-0.296-29.727,10.469c-8.855,15.819-6.721,31.308,2.593,46.211c8.083,12.933,26.498,17.479,41.107,6.632
		c2.527-1.876,4.794-4.114,7.096-6.275c1.618-1.519,3.201-2.957,5.869-2.523c1.01,2.224-0.458,4.031-1.439,5.802
		c-3.442,6.212-8.873,10.272-15.106,13.324c-12.137,5.942-24.712,6.519-37.278,1.904c-12.659-4.65-19.729-14.714-22.342-27.36
		c-3.603-17.441,0.745-33.203,14.009-45.47c11.522-10.657,25.442-12.07,40.093-7.742
		C1386.399,192.81,1390.809,194.779,1395.229,196.44z"/>
	<path style="fill:#233F65;" d="M946.914,192.052c1.277,7.868,1.458,15.65,2.189,23.267c-1.131,1.224-2.346,1.517-4.045,1.393
		c-1.532-3.115-3.074-6.373-4.724-9.575c-3.148-6.106-8.016-10.019-14.761-11.639c-3.551-0.853-6.993-0.542-10.266,0.787
		c-4.267,1.732-6.421,5.262-6.628,9.74c-0.189,4.095,1.449,7.286,5.326,9.358c4.552,2.432,9.298,4.4,14.012,6.447
		c4.266,1.853,8.517,3.71,12.395,6.304c8.43,5.639,12.265,15.122,10.38,25.105c-3.456,18.309-18.626,23.305-30.74,21.194
		c-6.085-1.06-11.952-2.702-18.016-4.982c-2.432-7.956-4.715-16.047-4.91-24.471c1.111-1.267,2.235-0.587,3.649-0.399
		c1.954,3.996,3.235,8.489,5.71,12.41c4.124,6.533,9.713,10.794,17.594,11.7c7.012,0.806,14.16-3.31,16.412-9.564
		c2.196-6.097,0.338-11.741-5.137-15.116c-5.387-3.321-11.355-5.437-17.103-8.008c-3.176-1.42-6.357-2.86-9.402-4.536
		c-10.218-5.623-11.956-13.803-10.163-23.71c2.946-16.27,19.191-21.129,31.03-17.265c0.158,0.051,0.303,0.138,0.46,0.194
		c2.817,0.997,5.573,2.282,8.471,2.903C941.394,194.176,943.964,192.188,946.914,192.052z"/>
	<path style="fill:#223E65;" d="M1532.6,274.19c-0.26,5.264-0.642,10.543,0.532,15.238c2.178,3.925,7.902,2.145,9.21,7.211
		c-9.511,0-18.715,0-27.947,0c-0.17-0.615,0.092-1.24,0.637-1.644c3.733-2.768,4.451-6.503,4.374-10.974
		c-0.237-13.82-0.078-27.647-0.094-41.472c-0.003-2.649,0.148-5.323-0.652-7.75c-1.807-2.176-5.595-0.752-6.836-4.637
		c6.216-3.586,13.556-4.641,19.957-9.248c0.318,3.283,0.536,5.535,0.754,7.788c1.922,0.31,2.691-1.306,3.853-2.099
		c2.787-1.901,5.673-3.365,9.101-3.719c14.124-1.459,20.632,7.907,21.545,20.386c0.453,6.196-0.931,12.194-3.446,17.934
		c-4.237,9.671-15.245,15.19-25.949,13.312C1536.034,274.233,1534.476,273.577,1532.6,274.19z M1532.402,248.61
		c0,3.164-0.017,6.328,0.011,9.491c0.007,0.826,0.128,1.655,0.243,2.477c0.721,5.151,4.301,8.44,10.098,9.294
		c4.744,0.699,8.77-1.52,11.014-5.935c1.152-2.266,1.814-4.714,2.019-7.15c0.678-8.081-0.915-15.618-6.752-21.651
		c-3.795-3.922-8.736-4.506-13.22-2.027c-2.379,1.315-3.714,3.055-3.475,6.016C1532.594,242.267,1532.397,245.447,1532.402,248.61z"
		/>
	<path style="fill:#223E65;" d="M634.52,233.579c-1.925-0.665-3.789-1.309-5.785-1.999c-0.906-0.888-0.39-2-0.393-3.212
		c6.76-1.776,13.136-4.03,19.32-6.763c1.176,2.386,0.49,4.617,0.864,6.728c1.327,0.067,2.059-0.983,2.966-1.649
		c5.006-3.677,10.655-4.528,16.609-3.653c7.881,1.159,13.57,8.213,14.027,17.626c0.282,5.812,0.135,11.648,0.072,17.472
		c-0.033,3.026,0.224,5.978,1.236,8.882c1.81,2.316,5.056,3.112,7.016,6.318c-4.6,1.036-8.849,0.435-13.032,0.54
		c-4.303,0.108-8.612,0.024-12.815,0.024c-1.013-2.228,0.32-3.245,1.594-4.362c2.409-2.112,3.272-4.705,3.1-7.995
		c-0.27-5.148,0.026-10.324-0.021-15.487c-0.021-2.32-0.148-4.628-0.77-6.923c-1.61-5.937-6.357-9.142-12.375-8.041
		c-3.765,0.689-6.247,2.756-7.116,6.694c-0.729,3.305-0.578,6.618-0.597,9.939c-0.025,4.332,0.116,8.668-0.04,12.994
		c-0.159,4.424,1.58,7.312,5.919,8.572c1.09,0.316,2.088,0.946,2.995,1.37c0.674,1.059,0.831,1.969,0.03,3.125
		c-9.132,0-18.401,0-27.722,0c-0.789-1.469-0.361-2.494,1.043-3.208c3.965-2.018,4.883-5.37,4.741-9.58
		c-0.24-7.15-0.027-14.313-0.1-21.47C635.268,237.715,635.48,235.848,634.52,233.579z"/>
	<path style="fill:#213E64;" d="M518.166,265.984c0.161-10.225,0.343-20.868-0.066-31.376c-1.924-2.432-5.048-1.939-7.36-3.658
		c0.254-1.826,1.451-2.99,3.065-3.361c5.839-1.344,11.296-3.786,16.922-5.905c1.391,2.299,0.138,4.716,0.933,6.845
		c1.196,0.079,1.806-0.828,2.546-1.447c5.135-4.299,11.153-5.058,17.42-3.957c7.507,1.318,12.71,7.933,13.479,17.104
		c0.388,4.634,0.183,9.319,0.221,13.981c0.011,1.331,0.022,2.673-0.121,3.994c-0.636,5.885,0.916,10.538,6.943,12.814
		c0.384,0.145,0.623,0.672,0.882,0.968c-0.225,1.063-0.959,1.729-1.707,1.737c-7.958,0.075-15.917,0.046-23.815,0.046
		c-0.734-1.854,0.073-3.027,1.385-3.95c2.92-2.054,3.498-4.9,3.374-8.298c-0.194-5.317,0-10.648,0.061-15.973
		c0.027-2.362-0.451-4.625-1.127-6.868c-1.779-5.9-7.105-9.037-13.013-7.479c-3.093,0.816-5.326,2.765-6.047,6.006
		c-0.468,2.103-0.794,4.231-0.756,6.426c0.128,7.48-0.279,14.975,0.724,22.688c2.633,2.189,6.424,2.918,9.062,5.514
		c-0.543,1.584-1.738,2.12-3.117,2.126c-8.599,0.039-17.199,0.02-26.098,0.02C512.691,269.859,516.711,269.237,518.166,265.984z"/>
	<path style="fill:#233F65;" d="M803.438,268.614c-3.965,2.041-7.336,4.188-11.171,5.306c-0.637,0.186-1.294,0.305-1.94,0.462
		c-6.931,1.686-12.542-0.382-15.035-5.543c-2.685-5.558-0.77-12.995,4.386-17.02c4.709-3.675,10.279-5.314,15.944-6.714
		c2.067-0.511,4.156-0.934,6.356-1.424c0.28-3.183-0.35-6.134-0.936-9.003c-1.314-6.436-6.164-8.716-13.038-6.31
		c-1.5,2.73-0.247,6.263-2.288,9.088c-3.086,1.555-6.493,1.76-9.948,1.646c-1.085-6.484,0.183-9.566,5.426-12.646
		c7.462-4.383,15.571-4.603,23.677-2.729c5.256,1.215,8.432,5.011,9.505,10.443c0.52,2.63,0.728,5.267,0.73,7.933
		c0.004,5.664-0.021,11.329,0.011,16.993c0.014,2.476-0.049,4.972,0.643,7.505c2.463,1.11,5.054-0.184,7.699,0.767
		c-2.329,4.909-6.565,6.757-11.468,7.485C807.54,275.514,805.382,272.536,803.438,268.614z M802.042,248.388
		c-11.956,1.93-15.853,7.242-12.919,17.161c2.259,1.892,4.974,1.737,7.598,1.36c3.529-0.506,5.241-2.549,5.304-6.048
		C802.098,256.876,802.042,252.889,802.042,248.388z"/>
	<path style="fill:#223E65;" d="M617.105,267.026c3.451,0,5.938,0,9.018,0c-2.599,4.817-6.455,6.938-11.092,7.817
		c-4.784,0.907-7.348-2.154-9.524-6.053c-2.603,1.336-5.018,2.743-7.564,3.844c-4.162,1.801-8.465,3.003-13.076,1.891
		c-5.044-1.216-8.106-4.606-8.503-9.747c-0.444-5.742,1.619-10.41,6.406-13.763c4.592-3.216,9.911-4.556,15.231-5.885
		c1.909-0.477,3.832-0.898,5.842-1.366c0.521-3.757-0.054-7.233-0.992-10.53c-1.59-5.587-6.106-7.077-12.869-4.641
		c-2.488,10.757-2.488,10.757-12.531,10.207c-0.849-4.993,0.579-8.947,5-11.761c7.666-4.879,16.029-5.299,24.491-3.264
		c5.641,1.356,8.831,5.24,9.58,11.357c0.956,7.814,0.252,15.615,0.568,23.414C617.195,261.174,617.105,263.81,617.105,267.026z
		 M603.734,264.818c0-5.751,0-11.111,0-16.638c-3.57,0.784-6.687,1.734-9.405,3.742c-3.389,2.503-4.737,5.853-4.124,9.971
		c0.573,3.855,2.523,5.401,6.443,5.226C599.174,267.005,601.497,266.235,603.734,264.818z"/>
	<path style="fill:#223E65;" d="M1436.96,222.838c15.571-0.492,26.795,9.698,26.76,25.029
		c-0.033,14.667-10.266,26.378-25.602,27.059c-15.781,0.701-27.364-9.458-27.714-24.199
		C1410.045,235.588,1420.947,222.244,1436.96,222.838z M1451.186,255.272c-0.509-8.304-1.629-15.438-5.744-21.903
		c-2.92-4.588-7.771-7.036-12.127-6.177c-4.93,0.972-7.942,4.246-9.071,10.001c-1.445,7.362-0.709,14.558,2.094,21.484
		c1.244,3.073,2.906,5.978,5.453,8.24c6.21,5.516,16.82,3.749,18.676-5.73C1450.854,259.211,1450.942,257.242,1451.186,255.272z"/>
	<path style="fill:#243F65;" d="M832.971,198.15c-2.22-0.708-4.27-1.361-6.351-2.024c-0.802-1.921-0.4-3.438,1.643-3.861
		c6.359-1.318,12.281-3.844,18.363-6.761c0.785,2.139,0.465,3.943,0.466,5.681c0.016,22.979,0.119,45.959-0.11,68.936
		c-0.049,4.929,0.977,8.445,6.017,9.99c1.536,0.471,2.777,1.322,1.93,3.576c-9.32,0-18.816,0-28.429,0
		c0.425-2.421,2.305-3.108,3.796-4.006c2.076-1.25,2.757-2.967,3.095-5.292c1.017-6.983,0.324-13.973,0.294-20.944
		C833.622,228.485,834.595,213.503,832.971,198.15z"/>
	<path style="fill:#243F65;" d="M1004.969,245.024c-11.253,0-21.855,0-32.358,0c-1.93,10.101,3.641,18.801,12.872,21.355
		c3.963,1.096,7.194-0.33,10.482-1.854c2.842-1.317,5.53-2.966,8.559-4.618c0.704,2.268-0.217,3.879-1.24,5.225
		c-9.066,11.932-31.313,14.115-40.447-0.281c-7.009-11.046-3.919-29.644,6.378-37.692c6.961-5.44,14.804-5.996,22.58-2.552
		C1000.035,228.255,1004.339,235.062,1004.969,245.024z M990.956,240.102c0.289-7.945-3.64-12.771-9.802-13.292
		c-5.303-0.448-10.165,5.83-9.242,13.292C978.126,240.102,984.37,240.102,990.956,240.102z"/>
	<path style="fill:#243F65;" d="M1240.695,260.27c-0.082,3.035-1.198,4.929-2.899,6.645c-7.337,7.398-19.421,9.931-29.042,6.173
		c-7.502-2.93-11.896-8.582-13.262-16.184c-1.473-8.192-0.292-16.25,4.069-23.566c4.864-8.158,13.157-11.822,23.029-10.3
		c8.209,1.266,14.993,7.457,17.096,15.46c0.519,1.973,0.402,3.949,0.678,6.592c-10.954,0.185-21.826-0.55-32.819,0.356
		c0.367,8.158,2.047,15.185,9.604,19.265c4.353,2.351,8.736,2.713,13.329,0.462C1233.728,263.58,1236.672,261.322,1240.695,260.27z
		 M1226.923,239.992c-0.051-8.405-4.051-13.255-10.535-13.098c-5.783,0.14-8.872,4.792-8.671,13.098
		C1214.125,239.992,1220.527,239.992,1226.923,239.992z"/>
	<path style="fill:#243F65;" d="M1015.227,234.485c-2.498-2.742-7.177-0.993-7.04-5.836c6.628-2.159,13.266-4.068,19.527-7.121
		c1.23,3.138,1.044,6.181,1.63,9.703c2.185-2.161,4.03-4.128,6.027-5.924c2.204-1.983,4.827-2.875,7.828-2.361
		c8.905,6.723,9.262,10.658,1.422,17.729c-3.83-0.657-6.229-4.903-10.522-4.738c-1.241,0.048-2.129,0.87-3.233,1.404
		c-1.273,1.96-1.783,4.193-1.805,6.556c-0.055,5.816-0.089,11.631-0.137,17.447c-0.034,4.061,1.997,6.515,5.85,7.583
		c2.182,0.605,4.601,0.968,4.792,3.994c-3.405,1.151-21.982,1.52-29.191,0.645c-0.834-1.781,0.071-2.846,1.551-3.591
		c2.753-1.385,3.444-3.689,3.428-6.601c-0.044-7.979,0.118-15.958,0.147-23.938C1015.508,237.627,1015.305,235.818,1015.227,234.485
		z"/>
	<path style="fill:#243F65;" d="M1247.316,271.873c0.236-5.773-0.666-11.237,0.985-16.272c2.345-0.655,2.878,0.692,3.485,1.866
		c1.297,2.504,2.48,5.07,3.851,7.531c1.815,3.258,4.776,5.018,8.332,5.801c2.569,0.566,4.988,0.04,7.102-1.525
		c3.945-2.921,4.059-7.476,0.221-10.505c-2.089-1.649-4.43-2.91-6.871-4.01c-3.628-1.635-7.163-3.473-10.784-5.125
		c-3-1.368-4.636-3.737-5.146-6.86c-1.741-10.647,2.167-18.072,14.12-19.703c5.624-0.767,11.246-0.223,16.442,1.478
		c1.097,1.191,1.043,2.407,1.038,3.547c-0.013,2.962,0.66,5.933-0.014,9.138c-3.034-0.994-4.479-3.533-6.196-5.642
		c-2.628-3.23-5.928-4.738-10.009-4.561c-3.46,0.15-5.88,1.866-6.518,4.437c-0.636,2.564,0.712,5.04,4.093,6.595
		c3.456,1.589,7.12,2.72,10.613,4.236c5.315,2.307,9.944,5.251,11.419,11.539c2.148,9.157-2.78,17.758-11.832,20.007
		C1263.486,275.873,1255.528,274.934,1247.316,271.873z"/>
	<path style="fill:#243F65;" d="M1090.479,227.529c-0.115-1.259-0.436-2.236,0.32-3.262c6.35,0,12.768,0,19.127,0
		c0.424,1.781-0.362,2.869-1.402,3.741c-3.03,2.537-4.702,5.958-6.429,9.388c-5.9,11.714-11.861,23.397-17.816,35.084
		c-0.588,1.154-1.287,2.252-1.83,3.193c-2.596,0.475-3.08-1.283-3.789-2.767c-4.863-10.184-9.759-20.353-14.578-30.558
		c-2.84-6.014-5.632-12.038-10.722-16.388c0.347-1.427,1.253-1.893,2.255-1.898c8.459-0.043,16.919-0.025,25.838-0.025
		c-1.205,4.166-4.853,4.439-7.482,6.55c3.251,9.25,7.442,18.198,11.688,27.733c4.457-8.982,10.071-16.86,11.882-26.035
		C1095.98,228.969,1092.921,229,1090.479,227.529z"/>
	<path style="fill:#213E64;" d="M1498.472,273.631c-9.979,0-19.575,0.009-29.171-0.053c-0.244-0.002-0.483-0.792-0.692-1.157
		c0.123-0.401,0.123-0.882,0.324-0.991c4.385-2.366,5.419-6.212,5.298-10.879c-0.229-8.806,0.231-17.626-0.313-26.462
		c-2.414-1.835-6.152-1.303-7.666-5.007c6.676-2.637,13.699-4.365,20.536-7.612c0.896,3.58,0.083,6.88,0.616,10.274
		c2.16-0.915,3.132-2.962,4.49-4.498c6.802-7.695,12.893-3.824,16.484,2.105c0.256,0.423,0.426,0.898,0.671,1.424
		c-0.615,3.659-2.413,6.76-4.459,9.363c-2.229,1.084-3.466,0.1-4.805-1.05c-2.438-2.094-5.176-4.163-8.528-2.629
		c-3.275,1.499-3.956,4.918-3.944,8.092c0.027,7.284-0.973,14.653,1.227,21.74C1491.114,269.603,1497.382,267.861,1498.472,273.631z
		"/>
	<path style="fill:#243F65;" d="M1177.881,239.287c-1.459-3.184-2.832-6.179-4.163-9.085c-7.411-5.454-15.879-0.594-16.627,8.746
		c-0.543,6.784,0.066,13.281,3.562,19.268c4.886,8.367,11.995,10.377,20.663,6.016c2.653-1.335,5.053-3.228,8.298-3.912
		c0.29,3.202-1.408,5.407-3.517,7.201c-7.879,6.702-16.813,9.26-26.903,6.063c-8.433-2.672-14.314-10.968-14.875-20.551
		c-1.094-18.695,13.848-32.526,32.407-30.001c2.509,0.341,4.842,1.21,6.978,2.524c4.905,3.016,5.105,7.247,0.5,10.816
		C1182.507,237.689,1180.672,238.835,1177.881,239.287z"/>
	<path style="fill:#233F65;" d="M735.636,231.856c-2.492,3.53-5.577,6.122-9.741,7.452c-1.847-1.497-2.008-3.78-2.835-5.71
		c-1.515-3.536-3.979-5.689-7.966-5.67c-4.02,0.019-6.956,1.805-8.767,5.461c-4.273,8.626-1.233,23.747,6.113,29.885
		c4.318,3.608,9.069,4.738,14.297,2.026c3.226-1.674,6.409-3.432,9.843-5.277c1.251,2.712,0.012,4.731-1.55,6.305
		c-8.056,8.116-23.705,12.89-35.224,3.053c-4.119-3.518-6.606-8.03-7.404-13.196c-3.179-20.586,12.511-35.912,31.703-33.101
		C730.26,223.986,734.223,226.51,735.636,231.856z"/>
	<path style="fill:#213E64;" d="M1121.045,233.689c-2.415-0.753-4.444-1.385-6.305-1.964c-0.681-1.121-0.74-2.066-0.304-3.302
		c6.334-1.841,12.735-3.958,19.785-7.133c0,3.181-0.011,5.596,0.002,8.01c0.059,10.655,0.093,21.31,0.201,31.964
		c0.061,6.008,0.333,6.306,5.815,8.259c0.769,0.274,1.517,0.606,2.168,0.868c0.658,1.049,0.548,2.011,0.192,3.3
		c-9.166,0-18.413,0-27.982,0c-0.276-1.021-0.143-2.053,0.601-3.277c1.785-0.729,3.757-1.536,5.829-2.382
		C1121.045,256.634,1121.045,245.34,1121.045,233.689z"/>
	<path style="fill:#213E64;" d="M741.142,229.066c6.982-2.562,13.799-4.438,20.866-7.66c0.149,4.383,0.366,8.131,0.387,11.88
		c0.053,9.305,0.029,18.61,0.009,27.915c-0.005,2.17-0.082,4.332,1.575,6.485c1.787,0.802,3.881,1.742,5.995,2.691
		c0.594,1.069,0.601,2.147-0.102,3.681c-8.755-0.505-17.675,0.342-26.58-0.582c-0.548-0.057-0.984-0.846-1.054-1.788
		c1.72-1.944,4.614-2.221,6.875-4.226c0.332-10.655,0.28-21.578,0.09-32.016C747.183,232.1,742.947,232.736,741.142,229.066z"/>
	<path style="fill:#213E64;" d="M508.278,273.768c-9.759,0-19.194,0-28.572,0c-0.71-1.026-0.25-1.932-0.167-2.578
		c0.868-1.405,2.227-1.198,3.235-1.728c1.016-0.535,2.222-0.733,3.154-2.331c0-10.74,0-21.983,0-33.439
		c-2.058-0.647-4.087-1.284-6.206-1.95c-0.762-0.948-0.631-2.044-0.12-3.433c6.384-1.703,12.727-3.983,19.348-6.909
		c0.475,7.512,0.475,14.561,0.416,21.617c-0.055,6.645,0.065,13.292,0.025,19.937c-0.019,3.098,1.554,4.903,4.257,6.056
		C505.578,269.832,507.773,270.444,508.278,273.768z"/>
	<path style="fill:#243F65;" d="M484.565,203.739c3.128-5.552,4.384-6.951,8.85-9.855c3.072,2.903,6.486,5.571,7.459,10.259
		c-1.332,4.269-4.346,7.241-8.34,9.745C489.169,211.226,486.673,207.837,484.565,203.739z"/>
	<path style="fill:#223E65;" d="M1127.754,213.985c-2.409-2.033-4.406-4.009-6.045-6.296c-2.264-3.159-2.241-4.495-0.043-7.587
		c0.668-0.94,1.422-1.823,2.178-2.695c1.078-1.245,2.195-2.456,3.375-3.772c4.603,2.256,6.654,6.21,9.187,9.776
		C1134.581,207.854,1131.636,211.087,1127.754,213.985z"/>
	<path style="fill:#243F65;" d="M755.615,194.258c4.748,1.497,6.307,5.707,8.651,9.484c-1.84,3.821-4.069,7.392-8.068,9.922
		c-3.773-2.267-7.64-4.996-7.785-9.517C748.27,199.642,751.719,196.493,755.615,194.258z"/>
	<path style="fill:#C7A772;" d="M317.181,226.03c0.773-2.952,3.422-2.722,5.51-2.927c7.047-0.692,12.882,4.525,13.434,11.547
		c0.468,5.96-4.078,12.344-12.107,13.147c-4.411,0.441-9.397-2.848-11.182-6.888c-2.195-4.967-1.279-10.869,2.206-14.231
		c0.618-0.596,1.28-1.048,2.198-0.709c0.532,1.694-0.492,2.69-1.446,3.927c-1.712,2.221-3.009,4.531-1.907,7.731
		c1.987,5.769,7.881,9.088,13.613,7.236c3.858-1.247,7.104-6.545,6.557-10.704c-0.632-4.803-4.197-8.19-8.902-8.293
		C322.498,225.808,319.839,225.968,317.181,226.03z"/>
	<path style="fill:#F7F3EC;" d="M317.181,226.03c2.658-0.062,5.317-0.222,7.972-0.164c4.705,0.103,8.27,3.489,8.902,8.293
		c0.547,4.16-2.698,9.458-6.557,10.704c-5.732,1.852-11.625-1.467-13.613-7.236c-1.102-3.2,0.195-5.51,1.907-7.731
		c0.953-1.237,1.978-2.233,1.446-3.927C317.238,225.969,317.181,226.03,317.181,226.03z M319.247,228.01
		c-0.445,4.555,0.475,9.173-0.771,13.985c1.372,0.059,2.629,0.595,3.64-0.688c0.452-1.678-0.442-3.543,0.536-5.132
		c3.121,0.906,2.757,5.382,6.447,5.739c0.045-2.521-1.847-3.922-1.894-6.479c0.721-1.887,1.762-4.307,0.578-7.048
		c-2.572,1.189-1.712,5.352-5.117,5.537c-0.822-1.641-0.506-3.309-0.516-4.943c0.799-0.174,2.04,0.412,2.022-1.496
		C322.485,226.938,320.826,226.498,319.247,228.01z"/>
	<path style="fill:#BF9B5E;" d="M322.149,228.98c0.011,1.634-0.306,3.303,0.516,4.943c3.405-0.184,2.545-4.348,5.117-5.537
		c1.184,2.741,0.144,5.161-0.578,7.048c0.048,2.556,1.939,3.958,1.894,6.479c-3.69-0.357-3.326-4.834-6.447-5.739
		c-0.977,1.589-0.083,3.455-0.536,5.132c-1.011,1.283-2.268,0.747-3.64,0.688c1.246-4.812,0.326-9.43,0.771-13.985
		C320.391,227.807,321.186,228.643,322.149,228.98z"/>
	<path style="fill:#C7A772;" d="M322.149,228.98c-0.963-0.337-1.758-1.173-2.902-0.97c1.578-1.513,3.238-1.072,4.923-0.526
		C324.189,229.392,322.948,228.807,322.149,228.98z"/>
</g>
</svg>
