<?xml version="1.0" encoding="iso-8859-1"?>
<!-- Generator: Adobe Illustrator 27.0.0, SVG Export Plug-In . SVG Version: 6.00 Build 0)  -->
<svg version="1.1" id="Layer_1" xmlns="http://www.w3.org/2000/svg" xmlns:xlink="http://www.w3.org/1999/xlink" x="0px" y="0px"
	 viewBox="0 0 1548.254 418.022" style="enable-background:new 0 0 1548.254 418.022;" xml:space="preserve">
<g>
	<path style="fill:#DFE4CD;" d="M0.213,356.012c0-118.333,0-236.667,0-355c0.365,0.02,0.731,0.04,1.096,0.059
		C1.268,2.734,1.192,4.397,1.192,6.06C1.186,87.981,1.187,169.903,1.187,251.824c0,32.635-0.009,65.269,0.026,97.904
		c0.002,1.723-0.485,3.579,0.425,5.007c1.907,0.689,3.126-0.996,4.674-0.531c1.505,1.626,3.451,0.756,5.152,0.757
		c112.854,0.052,225.709,0.048,338.563,0.045c1.664,0,3.328-0.037,4.992-0.056c0.09,0.284,0.106,0.572,0.047,0.864
		c-1.828,0.057-3.656,0.164-5.484,0.164c-113.941,0.008-227.883,0.007-341.825,0.01c-2.164,0-4.327,0.041-6.491,0.063
		C0.916,356.038,0.564,356.025,0.213,356.012z"/>
	<path style="fill:#448E7C;" d="M417.037,416.957c0.059,0.352,0.117,0.703,0.176,1.055c-138.667,0-277.333,0-416,0
		c0.052-0.356,0.104-0.712,0.156-1.068c1.498,0.023,2.996,0.066,4.494,0.066c135.559,0.003,271.119,0.003,406.678,0.001
		C414.04,417.009,415.538,416.975,417.037,416.957z"/>
	<path style="fill:#FFF1CF;" d="M1.309,1.071c-0.365-0.02-0.731-0.04-1.096-0.059c0.218-0.308-0.506-1.043,0.5-1.011
		c1.332,0.043,2.666,0.011,4,0.011c117.167,0,234.333,0,351.5,0c0.009,0.346,0.018,0.692,0.027,1.038l0.012-0.008
		c-0.359,0-0.718,0.001-1.077,0.001c-0.999-0.011-1.999-0.031-2.998-0.031C236.386,1.01,120.596,1.01,4.806,1.013
		C3.64,1.013,2.475,1.051,1.309,1.071z"/>
	<path style="fill:#B2CFC9;" d="M1.369,416.943c-0.052,0.356-0.104,0.712-0.156,1.068c-1.972,0.153-0.946-1.371-0.948-2
		c-0.063-20-0.052-40-0.052-60c0.351,0.013,0.702,0.026,1.054,0.039C1.301,376.348,1.335,396.646,1.369,416.943z"/>
	<path style="fill:#7FB3A8;" d="M356.24,1.049c-0.009-0.346-0.018-0.692-0.027-1.038c20.333,0,40.667,0,61,0
		c-0.066,0.382-0.133,0.763-0.199,1.145C396.756,1.121,376.498,1.085,356.24,1.049z"/>
	<path style="fill:#006B54;" d="M356.24,1.049c20.258,0.036,40.516,0.071,60.774,0.107c0.062,1.661,0.179,3.321,0.179,4.982
		c0.009,135.278,0.009,270.555,0.001,405.833c0,1.662-0.102,3.324-0.157,4.986c-1.498,0.018-2.997,0.053-4.495,0.053
		c-135.559,0.002-271.119,0.002-406.678-0.001c-1.498,0-2.996-0.043-4.494-0.066c-0.034-20.297-0.068-40.595-0.102-60.892
		c2.164-0.022,4.327-0.063,6.491-0.063c113.942-0.003,227.883-0.002,341.825-0.01c1.828,0,3.656-0.107,5.484-0.164
		c2.096-1.224,1.07-3.258,1.071-4.867c0.064-64.15,0.046-128.3,0.056-192.45c0.008-52.485,0.038-104.971,0.059-157.456L356.24,1.049
		z"/>
	<path style="fill:#828487;" d="M670.601,229.854c0-62.93,0-125.194,0-187.212c1.404-0.999,2.603-0.706,3.733-0.705
		c21.994,0.021,44.009-0.529,65.976,0.259c26.035,0.934,48.985,10.166,66.93,29.593c12.57,13.608,20.029,29.914,23.051,48.252
		c1.492,9.052,2.468,18.143,1.785,27.283c-1.303,17.437-5.514,33.963-16,48.435c-11.427,15.771-27.05,25.122-45.526,30.193
		c-9.969,2.736-20.182,3.926-30.48,3.993c-22.16,0.144-44.321,0.061-66.482,0.061C672.622,230.007,671.656,229.911,670.601,229.854z
		 M706.273,217.981c12.515-0.379,24.651,0.863,36.685-1.142c6.196-1.032,12.328-2.521,18.094-5.147
		c17.492-7.965,27.339-22.156,32.028-40.212c3.175-12.228,4.07-24.699,3.431-37.402c-0.74-14.728-3.18-28.915-9.184-42.456
		c-3.831-8.639-9.006-16.373-15.986-22.62c-11.025-9.87-24.161-14.868-39.031-15.027c-6.661-0.071-13.322-0.075-19.983-0.059
		c-1.936,0.005-3.92-0.263-6.054,0.377C706.273,108.756,706.273,162.999,706.273,217.981z"/>
	<path style="fill:#828486;" d="M1205.173,36.826c24.658-0.274,44.447,7.856,61.488,23.049
		c17.373,15.489,27.672,34.871,31.666,57.729c5.091,29.137-1.025,55.802-18.343,79.622c-14.592,20.071-34.423,32.487-58.952,36.688
		c-22.549,3.862-43.625-0.765-62.738-13.227c-23.612-15.396-37.545-37.423-43.131-64.918c-1.731-8.522-2.435-17.13-1.838-25.771
		c1.565-22.634,9.028-43.009,23.802-60.487c11.997-14.193,26.808-24.158,44.616-29.487
		C1189.889,37.586,1198.286,36.539,1205.173,36.826z M1151.188,135.926c0.07,5.488,0.343,10.942,0.837,16.418
		c1.214,13.447,3.588,26.578,9.125,38.97c7.486,16.753,18.891,28.534,38.194,31.02c11.661,1.502,22.375-0.246,32.454-6.295
		c10.66-6.398,16.776-16.314,21.363-27.385c6.309-15.227,8.106-31.349,8.906-47.605c0.491-9.97-0.438-19.894-1.763-29.789
		c-1.752-13.079-4.961-25.681-11.537-37.242c-4.942-8.689-11.397-15.799-20.484-20.452c-9.614-4.922-19.873-5.582-30.12-4.235
		c-9.886,1.3-18.726,5.793-25.599,13.243c-6.727,7.291-11.297,15.922-14.426,25.339
		C1152.956,103.514,1151.415,119.622,1151.188,135.926z"/>
	<path style="fill:#828386;" d="M1353.433,80.461c0,49.618,0,99.237,0,149.203c-4.997,0-9.746,0-14.861,0
		c0-62.249,0-124.625,0-187.37c10.447,0,20.859,0,31.96,0c32.304,42.531,64.986,85.56,97.667,128.588
		c0.299-0.145,0.599-0.291,0.898-0.436c0-42.582,0-85.164,0-128.132c5.027,0,9.751,0,14.823,0c0,62.247,0,124.63,0,187.314
		c-4.941,0.827-9.891,0.145-15.415,0.459c-37.901-49.874-75.943-99.933-113.984-149.992
		C1354.158,80.217,1353.795,80.339,1353.433,80.461z"/>
	<path style="fill:#828486;" d="M961.985,205.424c4.249-3.014,8.279-5.873,12.341-8.755c2.661,2.364,4.1,5.217,6.004,7.698
		c11.048,14.396,28.25,19.214,44.459,13.838c16.104-5.342,24.641-20.562,21.696-37.264c-1.934-10.968-7.927-18.675-17.125-24.412
		c-7.378-4.601-15.5-7.492-23.495-10.7c-6.772-2.718-13.586-5.374-19.963-8.94c-9.453-5.287-17.994-11.841-22.192-22.141
		c-7.802-19.146-6.551-37.659,5.932-54.674c9.197-12.535,21.905-19.439,37.067-22.167c18.737-3.37,36.08,0.07,51.487,11.266
		c7.388,5.369,13.844,11.902,17.39,20.938c-3.58,2.925-7.203,5.414-11.175,7.135c-1.978-0.826-2.293-2.623-3.093-4.006
		c-5.045-8.723-11.59-15.777-21.293-19.343c-8.5-3.123-17.208-3.836-25.781-0.769c-10.568,3.781-16.613,11.777-18.989,22.574
		c-0.889,4.038-1.284,8.114-0.607,12.337c1.625,10.133,7.922,16.63,16.347,21.352c8.107,4.544,16.683,8.143,25.309,11.618
		c8.62,3.472,17.011,7.385,24.629,12.866c13.594,9.78,20.47,22.955,21.438,39.625c0.59,10.165-0.809,19.81-5.404,28.868
		c-6.502,12.817-16.782,21.741-29.78,27.488c-12.496,5.525-25.595,6.135-39.038,4.435c-8.159-1.032-15.959-2.9-23.318-6.52
		C975.733,223.294,966.315,214.148,961.985,205.424z"/>
	<path style="fill:#828486;" d="M512.308,229.694c0.16-62.735-0.165-124.983,1.109-187.496c36.826,0,73.551,0,110.537,0
		c0,3.726,0,7.335,0,11.68c-6.144,0.008-12.397,0.019-18.651,0.022c-6.332,0.004-12.664,0.001-18.996,0.001
		c-6.165,0-12.331,0-18.496,0c-6.309,0-12.617,0-19.237,0c0,24.184,0,48.06,0,72.347c12.037,0,23.832-0.006,35.626,0.002
		c11.765,0.007,23.53-0.032,35.403,0.025c0.626,4.47,0.676,8.2-0.03,12.494c-23.692,0-47.246,0-71.053,0c0,26.503,0,52.44,0,79.099
		c6.122,0.123,12.378,0.039,18.63,0.054c6.498,0.015,12.997,0.003,19.495,0.003c6.332,0,12.664,0,18.996,0c6.313,0,12.626,0,19.15,0
		c0.893,3.951,0.342,7.708,0.395,11.769C587.614,229.694,550.235,229.694,512.308,229.694z"/>
	<path style="fill:#838587;" d="M909.9,229.881c-11.843,0-23.303,0-35.127,0c0-62.545,0-125.013,0-187.457
		c4.239-0.65,30.05-0.697,35.127-0.053C909.9,104.686,909.9,167.036,909.9,229.881z"/>
	<path style="fill:#828486;" d="M856.986,358.443c-6.027,0-11.097,0-16.809,0c-7.206-13.506-14.596-27.359-22.206-41.622
		c2.567-1.015,4.906-0.403,7.101-0.731c5.79-0.867,10.848-2.823,14.022-8.232c6.715-11.444-0.868-26.053-14.058-26.816
		c-3.646-0.211-7.314-0.032-11.691-0.032c-0.015,6.483-0.037,12.901-0.044,19.32c-0.008,6.496-0.002,12.993-0.002,19.489
		c0,6.33,0,12.66,0,18.99c0,6.467,0,12.933,0,19.61c-5.126,0.659-9.858,0.277-14.839,0.308c0-27.329,0-54.239,0-81.104
		c0.793-1.013,1.869-0.676,2.811-0.678c10.994-0.025,21.99,0.132,32.981-0.049c15.837-0.26,25.629,15.26,21.345,30.28
		c-1.552,5.443-5.46,8.609-10.392,10.621c-2.882,1.176-5.968,1.849-9.514,2.914C842.712,333.149,849.666,345.472,856.986,358.443z"
		/>
	<path style="fill:#838587;" d="M1240.448,318.255c-0.777,18.103-8.65,31.874-25.566,39.311
		c-14.195,6.241-27.625,3.622-39.533-6.026c-10.109-8.191-15.289-19.311-15.788-32.073c-0.733-18.735,9.576-38.836,32.272-43.965
		c15.36-3.471,28.866,1.541,39.005,14.04C1237.578,297.85,1240.801,307.427,1240.448,318.255z M1176.141,315.882
		c-0.068,11.754,1.964,21.632,8.153,30.074c8.271,11.282,19.995,12.466,29.261,2.88c3.604-3.729,5.972-8.362,7.632-13.286
		c3.303-9.798,3.919-19.806,1.752-29.899c-1.512-7.042-4.253-13.625-9.063-19.114c-5.927-6.763-15.263-9.121-23.222-3.66
		c-4.86,3.335-8.038,7.888-10.293,13.119C1177.443,302.757,1175.917,309.86,1176.141,315.882z"/>
	<path style="fill:#838587;" d="M1322.389,277.304c2.306-0.627,4.232-0.292,6.438-0.299c0,27.198,0,54.095,0,80.918
		c-2.046,1.367-4.049,0.717-6.472,0.804c-16.372-21.447-32.85-43.033-49.329-64.619c-0.256,0.109-0.511,0.218-0.767,0.327
		c0,21.234,0,42.468,0,63.812c-2.212,0.753-4.1,0.712-5.957,0.159c-1.073-3.597-1.455-71.794-0.465-81.111
		c2.141-0.763,4.475-0.264,6.74-0.351c2.315-0.089,4.635-0.02,6.934-0.02c14.093,18.503,28.032,36.806,41.971,55.108
		c0.302-0.129,0.605-0.259,0.907-0.388C1322.389,313.566,1322.389,295.488,1322.389,277.304z"/>
	<path style="fill:#828486;" d="M561.469,277.079c4.485,0,8.622,0,13.551,0c13.601,17.875,27.539,36.194,41.567,54.629
		c0.257-0.881-0.017,0.165,0.528-0.218c0.117-0.082,0.19-0.291,0.201-0.447c0.06-0.825,0.128-1.652,0.13-2.478
		c0.035-16.821,0.061-33.643,0.098-50.464c0-0.144,0.135-0.288,0.389-0.794c1.802-0.739,3.849-0.356,6.134-0.21
		c0,27.221,0,54.13,0,81.225c-2.201,1.033-4.219-0.662-6.571-0.005c-16.151-21.15-32.245-42.227-48.34-63.303
		c-0.344,0.086-0.687,0.172-1.031,0.258c-0.317,5.138-0.102,10.304-0.14,15.455c-0.039,5.33-0.009,10.66-0.009,15.99
		c0,5.163,0,10.327,0,15.49c0,5.283,0,10.566,0,15.626c-2.427,1.441-4.352,0.699-6.507,0.953
		C561.469,331.42,561.469,304.511,561.469,277.079z"/>
	<path style="fill:#828486;" d="M941.229,332.2c0-18.261,0-36.523,0-55.002c2.016-0.379,3.753-0.341,5.741-0.059
		c0,26.948,0,53.679,0,80.704c-2.098,0.655-4.224,0.251-6.737,0.379c-16.263-21.317-32.61-42.744-48.958-64.172
		c-0.317,0.144-0.634,0.289-0.951,0.433c0,21.028,0,42.056,0,63.243c-2.073,0.704-3.818,0.491-5.885,0.261
		c0-26.844,0-53.576,0-80.684c4.274,0,8.676,0,13.55,0c13.88,18.245,28.006,36.815,42.132,55.384
		C940.491,332.525,940.86,332.363,941.229,332.2z"/>
	<path style="fill:#838587;" d="M999.581,274.144c11.653,28.788,23.066,56.228,34.317,84.235c-5.5,0.74-10.127,0.249-15.157,0.404
		c-3.704-6.712-5.621-14.324-9.258-21.404c-9.132,0-18.242,0-27.805,0c-2.687,6.764-5.477,13.789-8.313,20.928
		c-2.299,0.724-4.52,0.638-7.302,0.076C977.161,330.49,988.151,302.871,999.581,274.144z M1007.469,331.719
		c-4.012-10.12-7.795-19.662-11.894-30.001c-4.074,10.388-7.838,19.984-11.766,30.001
		C991.913,331.719,999.329,331.719,1007.469,331.719z"/>
	<path style="fill:#838587;" d="M1363.497,337.258c-2.863,7.145-5.685,14.186-8.499,21.206c-2.321,0.536-4.399,0.308-7.162,0.112
		c11.156-28.099,22.107-55.683,33.518-84.424c11.732,28.764,22.974,56.328,34.343,84.203c-1.403,0.222-2.038,0.406-2.675,0.41
		c-4.146,0.026-8.292,0.013-12.753,0.013c-3.001-7.269-5.944-14.397-8.884-21.52
		C1382.053,337.258,1373.086,337.258,1363.497,337.258z M1365.619,331.678c8.477,0,15.864,0,23.632,0
		c-3.964-9.802-7.424-19.395-12.078-29.643C1373.093,312.504,1369.462,321.818,1365.619,331.678z"/>
	<path style="fill:#828386;" d="M722.425,277.092c15.94,0,31.546,0,47.135,0c1.047,1.439,0.645,2.889,0.364,4.803
		c-10.701,0-21.438,0-32.438,0c0,10.727,0,20.983,0,31.752c10.02,0,20.086,0,29.871,0c1.199,1.867,0.872,3.317,0.561,5.242
		c-10.023,0-20.094,0-30.429,0c0,11.539,0,22.603,0,34.15c10.829,0,21.566,0,32.106,0c1.094,1.832,0.931,3.223,0.33,4.898
		c-15.727,0-31.463,0-47.5,0C722.425,331.086,722.425,304.348,722.425,277.092z"/>
	<path style="fill:#858689;" d="M1451.868,351.965c11.149,0,21.437,0,31.864,0c0.984,2.236,0.709,4.271,0.268,6.573
		c-15.742,0-31.335,0-46.938,0c-0.971-3.431-1.314-72.823-0.357-81.317c4.865,0,9.773,0,15.164,0
		C1451.868,301.952,1451.868,326.674,1451.868,351.965z"/>
	<path style="fill:#828486;" d="M696.873,277.246c0.207,1.733,0.514,3.031-0.364,4.717c-5.059,0-10.315,0-16.011,0
		c0,25.487,0,50.534,0,75.817c-5.164,0.771-9.898,0.396-15.051,0.265c0-25.253,0-50.311,0-75.571
		c-5.428-1.022-10.57-0.052-15.617-0.609c-1.042-1.423-0.637-2.868-0.384-4.62C665.145,277.246,680.85,277.246,696.873,277.246z"/>
	<path style="fill:#828386;" d="M1075.355,357.993c-5.213,0-9.824,0-15.014,0c0-25.142,0-50.321,0-75.958
		c-5.632,0-10.712,0-15.696,0c-0.716-1.859-0.72-3.252-0.074-4.876c15.588,0,31.168,0,46.764,0c1.052,1.362,0.72,2.795,0.303,4.685
		c-5.186,0-10.434,0-16.282,0C1075.355,307.454,1075.355,332.622,1075.355,357.993z"/>
	<path style="fill:#858689;" d="M1118.604,277.106c5.111,0,9.903,0,15.384,0c0.201,27.068,0.02,54.107,0.104,81.528
		c-5.096,0-10.146,0-15.488,0C1118.604,331.736,1118.604,304.697,1118.604,277.106z"/>
	<path style="fill:#828386;" d="M514.464,277.12c4.868,0,9.475,0,14.082,0c0.948,3.467,1.254,73.139,0.319,80.784
		c-4.675,0-9.394,0-14.401,0C514.464,331.108,514.464,304.393,514.464,277.12z"/>
	<path style="fill:#8A8C8E;" d="M1525.988,318.167c-11.124,0.903-22.448-8.399-22.284-22.166
		c0.171-14.302,12.116-21.856,22.352-22.007c11.372-0.168,22.321,10.873,22.198,22.326
		C1548.139,306.94,1538.705,319.162,1525.988,318.167z M1545.398,296.164c0.772-10.291-8.828-19.484-19.515-19.528
		c-10.557-0.043-20.031,9.787-19.758,20.073c0.28,10.535,9.549,19.484,19.99,19.388
		C1534.759,316.017,1546.264,308.04,1545.398,296.164z"/>
	<path style="fill:#FFD047;" d="M1.309,1.071c1.166-0.02,2.331-0.058,3.497-0.058c115.79-0.003,231.58-0.003,347.37-0.001
		c0.999,0,1.999,0.02,2.998,0.031c-0.031,1.298-0.062,2.595-0.093,3.893c-0.22,0.236-0.573,0.44-0.64,0.714
		c-5.087,20.706-10.141,41.42-15.218,62.127c-7.913,32.269-15.844,64.533-23.75,96.803c-0.429,1.752-0.354,3.663-1.924,5.244
		c-17.906-54.931-35.776-109.754-53.763-164.936c-1.053,1.565-0.724,2.75-0.682,3.871c0.265,6.975,0.454,13.952,0.797,20.927
		c0.767,15.606,1.17,31.232,2.182,46.832c0.43,6.631,0.519,13.284,0.833,19.924c0.77,16.273,1.389,32.556,2.229,48.829
		c0.291,5.64-0.113,11.301,0.832,16.929c0.386,2.297,0.064,4.712,0.064,7.404c-3.042-2.878-4.753-6.129-6.874-9.073
		c-17.092-23.717-34.182-47.437-51.252-71.17c-8.341-11.596-16.628-23.23-24.975-34.822c-0.78-1.083-1.461-2.546-3.574-2.407
		c8.665,23.461,17.303,46.509,25.688,69.648c8.4,23.181,17.205,46.221,24.972,69.673c-9.498-7.061-18.535-14.378-27.676-21.563
		c-17.767-13.966-35.609-27.836-53.388-41.787c-26.93-21.131-53.802-42.337-80.788-63.397c-3.498-2.73-6.549-6.134-10.785-7.873
		c-0.141-0.394-0.382-0.937-0.805-0.529c-0.409,0.396,0.085,0.688,0.504,0.824c0.451,2.678,2.786,4.07,4.27,5.996
		c10.032,13.019,20.209,25.927,30.384,38.835c14.493,18.385,29.034,36.732,43.539,55.108c13.168,16.682,26.347,33.356,39.454,50.087
		c5.623,7.178,11.485,14.178,16.592,21.75c-0.135,0.128-0.27,0.256-0.406,0.384c-1.706,0.028-3.23-0.621-4.795-1.198
		c-15.373-5.674-30.747-11.346-46.142-16.96c-27.837-10.149-55.689-20.256-83.533-30.385c-1.909-0.694-1.903-0.709-4.558-0.082
		c40.332,29.597,80.717,59.233,121.662,89.28c-9.166,0.589-17.409-0.728-25.677-1.306c-9.089-0.636-18.142-1.784-27.222-2.583
		c-5.79-0.509-11.659-0.407-17.383-1.291c-4.809-0.743-9.618-0.545-14.406-1.035c-8.905-0.911-17.806-1.88-26.723-2.652
		c-9.755-0.845-19.569-1.157-29.274-2.372c-4.939-0.618-9.91-0.636-14.851-1.411c-5.007-0.785-10.206-0.268-15.354-0.747
		c56.172,19.964,112.344,39.928,168.516,59.892c-0.024,0.348-0.048,0.697-0.072,1.045c-54.932,12.239-109.863,24.478-164.795,36.717
		c-1.548-0.465-2.767,1.22-4.674,0.531c-0.91-1.428-0.423-3.284-0.425-5.007c-0.035-32.635-0.026-65.269-0.026-97.904
		c0-81.921-0.001-163.843,0.005-245.764C1.192,4.397,1.268,2.734,1.309,1.071z"/>
	<path style="fill:#7FB3A8;" d="M355.019,354.95c0.058-1.494,0.166-2.987,0.167-4.481c0.007-113.514,0.006-227.028,0.001-340.543
		c0-1.663-0.069-3.327-0.105-4.99c0.031-1.298,0.062-2.595,0.093-3.893c0.359,0,0.718-0.001,1.077-0.001
		c-0.02,52.485-0.051,104.971-0.059,157.456c-0.01,64.15,0.008,128.3-0.056,192.45c-0.002,1.609,1.024,3.642-1.071,4.867
		C355.125,355.522,355.109,355.234,355.019,354.95z"/>
	<path style="fill:#FFD047;" d="M191.326,228.907c0.357,0.151,0.863,0.366,0.483,0.781c-0.344,0.377-0.692-0.019-0.889-0.397
		C191.055,229.164,191.191,229.036,191.326,228.907z"/>
	<path style="fill:#8A8C8E;" d="M1539.587,308.837c-2.593,0-4.074,0-5.612,0c-3.493-3.279-5.311-7.983-9.266-10.803
		c-0.431-0.307-1.27-0.041-2.227-0.041c0.135,3.821-1.94,7.758,2.094,10.829c-2.997,0-5.804,0-8.648,0
		c0.245-1.099,1.413-0.602,2.347-2.121c0-6.415-0.048-13.698,0.033-20.98c0.021-1.877-1.566-2.328-2.703-3.625
		c3.563,0,6.872,0.078,10.174-0.032c1.72-0.058,3.298,0.392,4.842,0.94c4.609,1.636,6.126,7.146,2.975,10.948
		c-0.927,1.119-2.257,1.905-3.808,3.176C1532.246,301.213,1535.216,305.048,1539.587,308.837z M1522.49,295.785
		c5.883,0.44,8.562-1.355,8.694-5.59c0.137-4.414-2.745-6.448-8.694-5.927C1522.49,287.964,1522.49,291.688,1522.49,295.785z"/>
</g>
</svg>
