<?xml version="1.0" encoding="iso-8859-1"?>
<!-- Generator: Adobe Illustrator 27.0.0, SVG Export Plug-In . SVG Version: 6.00 Build 0)  -->
<svg version="1.1" id="Layer_1" xmlns="http://www.w3.org/2000/svg" xmlns:xlink="http://www.w3.org/1999/xlink" x="0px" y="0px"
	 viewBox="0 0 1679 1007" style="enable-background:new 0 0 1679 1007;" xml:space="preserve">
<g>
	<path style="fill:#223A6F;" d="M1679,795c-17.32,0-34.639,0-52.21,0c-6.619-9.125-13.235-18.279-19.886-27.408
		c-21.366-29.327-42.246-59.022-65.411-86.995c-11.045-13.337-21.85-26.874-33.491-39.714c-2.332-2.572-4.802-3.831-8.233-3.737
		c-4.987,0.137-9.981,0.035-15.386,0.035c-1.555,52.094,1.994,104.215,3.422,156.844c-15.582-1.365-30.807-3.219-46.652,0.065
		c-0.187-13.613,0.969-26.958,1.243-40.311c0.277-13.486,1.148-26.958,1.488-40.444c0.336-13.326,0.346-26.66,0.479-39.991
		c0.135-13.495,0.331-26.99,0.343-40.486c0.012-13.494-0.154-26.989-0.272-40.483c-0.118-13.497-0.162-26.997-0.443-40.491
		c-0.277-13.324-0.607-26.653-1.288-39.96c-0.688-13.454-0.411-26.936-1.761-40.111c1.507-1.357,2.886-0.802,4.117-0.681
		c17.456,1.716,34.904,1.676,52.369,0.076c6.631-0.607,13.305-0.371,19.961-0.823c14.459-0.982,28.947-1.95,43.446-1.325
		c17.175,0.74,34.101,2.95,50.115,9.831c24.013,10.318,38.045,28.032,41.25,54.258c3.092,25.303-5.706,45.91-23.692,63.265
		c-14.084,13.59-31.163,21.895-49.24,28.532c-9.508,3.491-19.286,6.064-28.991,8.226c-0.929,2.088,0.52,3.026,1.419,4.118
		c8.047,9.768,16.123,19.512,24.184,29.268c18.879,22.847,37.49,45.911,55.869,69.163c12.072,15.273,24.273,30.443,35.82,46.126
		c2.56,3.478,5.498,6.687,8.385,9.909c0.817,0.912,1.443,2.307,3.044,2.246C1679,794.333,1679,794.667,1679,795z M1484.327,617.795
		c1.517,0.433,2.919,0.92,4.36,1.229c5.715,1.226,11.536,1.529,17.349,1.783c7.665,0.335,15.31-0.313,22.958-0.705
		c16.896-0.864,32.706-5.215,47.163-14.256c9.885-6.182,18.474-13.596,24.421-23.771c9.266-15.855,11.419-32.717,7.122-50.487
		c-4.879-20.174-17.165-33.702-36.64-40.723c-10.094-3.639-20.63-5.128-31.266-5.696c-12.662-0.677-25.29,0.177-37.834,1.989
		c-5.881,0.849-11.755,1.843-17.634,3.531C1484.327,532.997,1484.327,575.102,1484.327,617.795z"/>
	<path style="fill:#233B6F;" d="M0,369c1.048-0.306,0.958-1.19,1.013-1.998c0.842-12.459,1.852-24.903,2.214-37.395
		c0.467-16.146,1.543-32.278,1.782-48.425c0.525-35.481,0.334-70.966-0.517-106.444c-0.144-5.996-0.203-11.995-0.306-17.992
		c-0.437-25.319-0.843-50.639-1.337-75.957c-0.127-6.493-0.56-12.979-0.788-19.47c-0.051-1.468-0.397-2.973,0.174-4.422
		c55.944,3.112,111.879,3.05,168.038,0.696c0.51,4.403-1.506,8.298-1.381,12.422c0.125,4.12,0.027,8.247,0.027,13.068
		c-41.799-2.113-83.087-5.288-124.588-3.824c-1.989,39.818-2.763,79.513-1.994,118.761c1.547,1.569,2.933,1.323,4.236,1.316
		c17.159-0.086,34.335,0.259,51.472-0.413c18.136-0.712,36.245-2.013,54.413-1.583c1.642,0.039,3.286,0.005,5.234,0.005
		c0,8.195,0,16.088,0,24.3c-6.111,0.455-12.213,0.297-18.317-0.106c-2.657-0.175-5.315-0.498-7.972-0.495
		c-17.506,0.02-34.95-1.402-52.4-2.452c-12.205-0.734-24.248,0.083-36.639,1.529c-0.99,23.408,1.187,46.622,1.491,69.864
		c0.303,23.244,0.451,46.46,2.533,69.98c43.184,1.033,85.562-3.034,128.63-6.926c-1.967,8.883-1.916,17.6-1.794,26.354
		c-0.566,0.225-1.011,0.557-1.454,0.555c-15.825-0.081-31.656,0.468-47.473-0.31c-7.805-0.384-15.608-1.464-23.396-1.323
		c-8.145,0.147-16.309,0.347-24.453,0.739C50.973,380.285,25.485,379.982,0,380C0,376.333,0,372.667,0,369z"/>
	<path style="fill:#223B6F;" d="M0,469c5.859-0.372,11.634,0.711,17.39,1.381c8.216,0.957,16.261-0.276,24.371-0.778
		c1.967-0.122,3.91-0.614,5.871-0.369c1.16,1.005,0.53,2.228,0.459,3.288c-1.282,18.926-2.915,37.835-3.851,56.777
		c-0.995,20.12-1.458,40.267-1.333,60.425c0.211,34.142,0.16,68.285,0.383,102.427c0.134,20.482,0.531,40.963,0.914,61.442
		c0.114,6.136,0.51,12.276,2.671,18.096c2.812,1.791,5.888,1.361,8.83,1.403c10.823,0.152,21.66-0.113,32.467,0.351
		c8.174,0.351,16.32,0.459,24.428-0.406c20.178-2.153,40.587-1.325,60.664-4.764c1.602-0.274,3.293-0.036,5.25-0.036
		c0,8.394,0,16.788,0,25.232c-1.17,0.948-2.555,0.492-3.826,0.511c-14.992,0.23-29.96-0.205-44.887-1.732
		c-1.485-0.152-2.995-0.068-4.493-0.068c-30.146-0.003-60.292-0.167-90.436,0.081C23.243,792.358,11.623,793.393,0,794
		c0-4.667,0-9.333,0-14c1.04-0.318,0.944-1.199,0.996-2.008c0.246-3.819,0.548-7.635,0.73-11.456
		c1.385-29.096,2.526-58.203,3.101-87.325c0.861-43.619,0.287-87.229-1.618-130.82c-0.828-18.955-1.457-37.919-2.232-56.877
		C0.928,490.324,1.666,488.789,0,488C0,481.667,0,475.333,0,469z"/>
	<path style="fill:#233B70;" d="M883,0c0,6.778,0,13.556,0,20.601c-57.509,0-114.354,0-171.848,0
		C711.102,13.814,711.051,6.907,711,0C768.333,0,825.667,0,883,0z"/>
	<path style="fill:#253D71;" d="M1600,1007c-1.349-1.807-3.559-1.378-5.352-1.955c-6.059-1.947-11.697-4.602-16.893-8.776
		c1.193-5.463,2.374-10.87,3.53-16.165c2.208-0.155,2.582,1.364,3.266,2.41c6.695,10.221,16.473,15.48,28.33,16.206
		c16.019,0.981,27.827-12.02,27.358-25.938c-0.078-2.31-0.2-4.627-0.597-6.946c-1.327-7.741-5.087-13.187-12.545-16.56
		c-7.267-3.287-14.792-5.889-22.047-9.166c-5.016-2.266-9.853-4.784-14.035-8.437c-4.936-4.311-7.962-9.596-9.121-16.115
		c-1.188-6.678-1.259-13.281,0.674-19.756c2.854-9.557,8.469-16.844,18.1-20.487c12.997-4.916,26.132-6.055,39.444-1.312
		c3.928,1.4,7.493,3.464,10.988,6.241c-3.058,4.396-5.046,9.023-5.286,14.393c-1.586-1.227-1.857-2.977-2.646-4.395
		c-8.189-14.709-30.944-16.512-40.905-5.417c-6.391,7.118-8.111,21.799-2.387,29.753c1.577,2.191,3.334,4.039,5.687,5.46
		c6.857,4.144,14.146,7.294,21.648,10.031c7.068,2.578,13.74,5.966,19.543,10.787c7.801,6.481,11,14.761,10.565,25.041
		c-0.903,21.352-18.197,37.659-38.865,40.108c-0.701,0.083-1.283,0.201-1.454,0.994C1611.333,1007,1605.667,1007,1600,1007z"/>
	<path style="fill:#223B6F;" d="M861.039,793.548c2.659-30.875,3.104-61.529,3.548-92.16c0.415-28.646,0.386-57.307-0.118-85.962
		c-0.331-18.824-0.008-37.661-0.471-56.48c-0.639-25.973-1.755-51.933-2.634-77.9c-0.106-3.143-0.015-6.293-0.015-9.606
		c1.014-1.033,2.401-0.397,3.61-0.242c8.927,1.142,17.884,1.774,26.881,1.612c16.149-0.291,32.306-0.44,48.443-1.054
		c14.958-0.569,29.888-1.893,44.846-2.475c18.15-0.706,36.324-0.709,54.429,0.97c19.651,1.822,38.787,5.7,56.213,15.646
		c14.18,8.093,26.362,18.595,37.051,30.848c18.604,21.325,30.053,46.13,34.821,73.919c3.085,17.981,3.042,36.074,0.586,54.212
		c-4.176,30.847-15.528,58.769-34.572,83.246c-18.046,23.194-39.961,41.876-67.929,52.353c-14.552,5.451-29.762,8.021-45.188,9.704
		c-19.577,2.136-39.208,2.877-58.849,2.368c-19.494-0.505-38.981-0.176-58.469-0.359c-12.492-0.118-24.976,0.012-37.403,1.571
		C864.389,793.939,862.885,794.228,861.039,793.548z M905.092,492.696c-0.639,25.453-1.949,50.919-1.782,76.375
		c0.396,60.44-1.994,120.911,1.713,181.318c0.467,7.615,0.638,15.272,2.076,22.846c0.797,0.234,1.414,0.525,2.053,0.588
		c9.765,0.965,19.494,2.383,29.341,2.328c8.993-0.05,17.993-0.295,26.977-0.029c13.842,0.41,27.646-0.11,41.427-1.2
		c8.774-0.694,17.484-1.93,25.948-4.577c30.282-9.469,52.081-29.477,68.362-55.87c14.141-22.924,19.095-48.643,20.721-75.125
		c0.798-12.998-0.232-25.94-1.768-38.861c-1.593-13.398-4.045-26.6-8.314-39.411c-7.971-23.921-21.157-43.886-43.294-57.147
		c-12.227-7.325-25.018-12.898-39.225-15.128c-10.54-1.654-21.124-2.493-31.749-3.25c-11.162-0.795-22.315-0.682-33.451-0.244
		c-17.456,0.687-34.851,2.289-52.165,4.7C909.45,490.361,907.117,490.911,905.092,492.696z"/>
	<path style="fill:#223B6F;" d="M193.972,795.764c2.804-8.229,5.922-15.701,9.416-22.971
		c21.005-43.706,40.399-88.154,60.882-132.101c10.165-21.81,19.505-44.004,29.251-66.009
		c15.259-34.453,30.552-68.891,45.811-103.344c1.611-3.637,3.092-7.331,4.732-11.232c4.27,0,8.553,0,13.13,0
		c2.741,6.921,5.646,13.964,8.331,21.09c8.444,22.407,19.126,43.804,29.232,65.47c14.318,30.695,27.493,61.896,40.665,93.097
		c15.697,37.181,32.694,73.778,49.889,110.284c6.929,14.711,13.756,29.469,20.839,44.653c-3.228,0.6-6.165,0.38-8.993-0.067
		c-11.94-1.89-23.895-1.716-35.872-0.617c-2.146,0.197-4.271,0.622-6.568,0.966c-1.465-1.638-1.961-3.766-2.725-5.727
		c-7.405-19.022-15.273-37.866-21.916-57.181c-1.13-3.287-2.464-6.545-4.087-9.613c-7.392-13.975-11.526-29.366-18.951-43.321
		c-2.487-4.675-4.891-9.394-7.34-14.108c-41.064,0-81.868,0-123.178,0c-16.131,43.849-36.912,86.142-48.268,132.67
		C217.002,793.293,205.778,793.037,193.972,795.764z M392.781,643.843c-9.179-21.922-18.105-43.363-27.133-64.761
		c-6.775-16.057-13.898-31.962-21.775-47.514c-1.172-2.314-2.063-4.891-4.102-6.543c-20.649,38.517-36.806,78.962-55.431,118.818
		C320.966,643.843,356.751,643.843,392.781,643.843z"/>
	<path style="fill:#233B6F;" d="M521.449,469.232c15.051,2.97,30.09,1.735,45.817,0.006c-0.236,5.262-0.455,10.508-0.714,15.752
		c-0.107,2.161-0.382,4.315-0.442,6.476c-0.451,16.156-0.67,32.322-1.333,48.469c-1.534,37.319-0.807,74.651-0.669,111.974
		c0.069,18.64,1.22,37.269,4.775,55.657c0.858,4.439,2.21,8.662,4.156,12.738c8.112,16.988,19.252,31.494,34.864,42.251
		c12.831,8.841,26.993,14.173,42.596,15.504c20.482,1.747,40.519-0.51,60.085-6.754c21.985-7.015,38.117-21.155,49.511-41.004
		c8.137-14.174,12.913-29.429,15.104-45.586c1.951-14.381,2.494-28.845,3.184-43.317c1.192-24.987,1.233-49.987,0.472-74.965
		c-0.649-21.301-2.317-42.57-3.461-63.857c-0.536-9.981-0.911-19.97-1.322-29.958c-0.046-1.128-0.384-2.335,0.418-3.375
		c15.907,2.36,19.979,1.865,31.621,0.006c-0.14,3.041-0.275,5.992-0.414,8.943c-0.572,12.145-1.206,24.287-1.701,36.435
		c-0.414,10.154-0.873,20.313-0.951,30.473c-0.187,24.161-0.138,48.325-0.228,72.487c-0.08,21.493-0.152,43.02-2.963,64.353
		c-2.613,19.831-7.303,39.177-17.312,56.829c-3.059,5.394-6.882,10.216-11.09,14.73c-10.811,11.594-21.96,22.785-36.408,29.979
		c-13.639,6.791-27.998,11.225-43.045,13.583c-10.392,1.629-20.871,2.497-31.339,2.444c-11.131-0.056-22.281-0.703-33.326-2.533
		c-15.989-2.648-31.612-6.68-46.019-14.138c-27.228-14.094-44.833-35.922-51.386-66.219c-2.724-12.593-3.735-25.361-3.781-38.191
		c-0.152-42.831,0.046-85.665-0.283-128.495c-0.159-20.648-1.567-41.268-3.562-61.833c-0.45-4.64-0.854-9.286-1.147-13.937
		C521.053,472.555,520.49,470.868,521.449,469.232z"/>
	<path style="fill:#233B70;" d="M1109.77,353.061c-2.036,9.094-2.61,17.781-0.307,26.489c-0.715,0.184-1.192,0.42-1.664,0.412
		c-17.482-0.299-34.977,0.779-52.45-0.821c-14.783-1.354-29.61-0.62-44.397,0.011c-23.32,0.995-46.642,0.825-69.967,0.843
		c-1.462,0.001-2.924-0.128-4.508-0.203c0.64-8.728,1.238-17.155,1.882-25.58c0.812-10.631,1.524-21.269,1.616-31.932
		c0.098-11.332,0.086-22.666,0.04-33.998c-0.092-22.335,0.959-44.638,1.739-66.949c0.157-4.479-0.274-8.977-0.354-13.467
		c-0.501-27.991-0.846-55.986-1.515-83.973c-0.426-17.819-1.282-35.629-2.039-53.439c-0.183-4.309-0.733-8.603-1.17-13.526
		c28.807,1.543,57.352,2.375,85.921,2.214c28.612-0.161,57.236,0.513,86.328-2.083c-2.845,8.778-1.418,17.145-2.084,25.705
		c-21.199,0.132-42.055-2.123-62.965-2.966c-20.964-0.845-41.902-0.642-63.054-0.812c0,40.212,0,79.961,0,119.485
		c0.78,0.992,1.655,0.857,2.46,0.857c18.825-0.003,37.681,0.652,56.464-0.505c17.142-1.056,34.262-1.644,51.422-1.484
		c1.474,0.014,2.948,0.002,5.007,0.002c-0.713,7.9-2.822,15.452,0.111,22.761c-1.77,1.446-3.469,0.738-5.029,0.699
		c-26.645-0.653-53.261-1.89-79.868-3.501c-10.422-0.631-20.9,0.114-31.861,2.044c0.611,46.922,1.954,93.62,3.64,140.656
		C1025.659,360.901,1067.53,356.971,1109.77,353.061z"/>
	<path style="fill:#223B6F;" d="M756.232,79.144c0,40.268,0,80.041,0,119.872c0.668,0.133,1.128,0.304,1.588,0.304
		c20.325-0.012,40.685,0.742,60.959-0.658c15.648-1.08,31.271-1.293,46.923-1.316c1.63-0.002,3.259,0,5.528,0
		c-1.296,8.006-3.345,15.535-0.196,23.163c-6.549,0-12.805,0.05-19.059-0.023c-2.827-0.033-5.65-0.457-8.475-0.456
		c-17.677,0.004-35.282-1.526-52.91-2.497c-12.029-0.663-23.923,0.029-36.199,1.653c-1.002,23.577,1.156,46.96,1.448,70.37
		c0.29,23.316,0.63,46.607,2.412,70.44c20.913,0.436,41.958-0.227,62.994-1.688c20.871-1.449,41.73-3.045,62.878-5.33
		c-0.524,4.994-1.529,9.361-1.384,13.845c0.138,4.287,0.074,8.579,1.38,12.797c-0.721,0.161-1.197,0.363-1.671,0.359
		c-15.328-0.142-30.663,0.452-45.984-0.322c-6.974-0.353-13.931-1.266-20.903-1.363c-7.981-0.111-15.976,0.295-23.956,0.663
		c-24.977,1.152-49.967,1.119-74.959,1.047c-1.652-0.005-3.303-0.001-5.627-0.001c2.418-27.018,4.134-53.852,3.747-80.761
		c-0.386-26.839,1.331-53.641,1.405-80.461c0.074-26.987-0.551-53.983-1.312-80.962c-0.755-26.79-1.009-53.613-3.548-80.769
		c57.476,2.617,114.961,3.18,172.792,0.421c-2.205,8.365-0.92,16.545-1.499,24.91c-4.286,0.967-8.574,0.29-12.81,0.126
		c-18.302-0.707-36.572-2.046-54.874-2.848c-18.83-0.826-37.645-0.409-56.465-0.647C757.815,79.003,757.175,79.085,756.232,79.144z"
		/>
	<path style="fill:#233B70;" d="M1213.407,791.827c2.023-10.537,2.787-20.966,3.614-31.386c1.916-24.125,0.9-48.302,1.275-72.454
		c0.23-14.822,0.887-29.639,1.453-44.454c0.35-9.166,0.295-18.327,0.034-27.49c-0.551-19.319-1.144-38.637-1.69-57.956
		c-0.758-26.811-1.412-53.626-2.765-80.417c-0.167-3.314-0.023-6.643-0.023-10.315c1.703-0.366,3.603-1.239,5.195,1.117
		c0.613,0.906,1.85,0.526,2.82,0.555c14.821,0.449,29.643,0.894,44.465,1.314c37.153,1.053,74.314,0.202,111.471,0.499
		c1.622,0.013,3.313-0.413,5.317,0.62c-1.633,7.814-2.445,15.811-0.97,24.207c-41.741-4.509-83.417-5.461-125.053-4.91
		c-0.978,1.836-0.553,3.531-0.558,5.154c-0.038,13.666-0.068,27.333,0,40.998c0.033,6.667-0.097,13.298-1.198,19.904
		c-1.74,10.439-0.866,20.966-0.402,31.426c0.324,7.293,0.134,14.673,1.837,22.581c18.93,0,38.024-0.315,57.103,0.088
		c19.156,0.405,38.211-1.924,57.479-1.922c-1.775,8.405-0.446,16.464,0.124,25.249c-38.814-3.615-77.044-3.962-115.673-3.459
		c-1.074,46.613,0.136,93.14,3.127,139.48c4.294,2.234,8.511,2.106,12.62,2.041c18.657-0.294,37.287-1.158,55.869-2.963
		c12.094-1.175,24.209-2.136,36.305-3.298c7.087-0.68,14.154-1.566,22.004-2.446c-2.204,9.034-1.448,17.792-1.686,26.108
		c-1.617,1.362-3.008,0.938-4.287,0.939c-40.499,0.024-81,0.301-121.494-0.156c-11.834-0.134-23.621-0.167-35.429,0.452
		C1220.805,791.116,1217.43,792.366,1213.407,791.827z"/>
	<path style="fill:#233B6F;" d="M392.2,72.157c-5.038,11.31-9.364,23.114-12.322,36.27c-5.523-11.566-12.539-20.829-21.837-28.34
		c-16.427-13.269-35-17.79-55.647-13.743c-6.999,1.372-13.938,3.03-20.391,6.306c-20.244,10.277-29.758,26.982-30.466,49.413
		c-0.92,29.141,18.462,51.208,39.688,58.821c6.858,2.46,13.505,5.576,20.075,8.75c11.842,5.722,24.361,9.667,36.563,14.442
		c12.587,4.925,24.476,11.163,34.937,19.904c14.524,12.136,22.443,27.596,24.275,46.42c2.121,21.797-2.494,42.043-13.831,60.63
		c-13.725,22.503-33.858,37.082-58.415,45.995c-14.416,5.232-29.392,7.367-44.562,7.525c-29.247,0.304-55.667-8.279-78.632-26.731
		c-0.508-0.409-0.957-0.891-1.585-1.48c2.373-11.857,4.747-23.722,7.237-36.169c2.734,3.498,5.122,6.736,7.699,9.817
		c10.775,12.888,23.042,24,38.211,31.569c9.651,4.816,19.816,7.364,30.679,7.616c13.158,0.305,25.908-1.051,37.806-7.098
		c20.533-10.435,33.437-26.876,38.395-49.391c2.781-12.63,2.074-25.187-2.262-37.358c-4.351-12.214-12.97-21.118-23.355-28.5
		c-12.743-9.058-27.054-14.8-41.716-19.799c-18.306-6.24-35.937-13.861-51.945-24.907c-15.558-10.735-27.074-24.426-32.192-42.992
		c-10.481-38.022,4.855-76.89,39.606-96.639c15.614-8.873,32.417-13.318,50.269-14.621c15.609-1.139,30.925,0.216,45.969,4.261
		c12.286,3.304,23.684,8.676,33.944,16.301C389.721,69.414,391.119,70.347,392.2,72.157z"/>
	<path style="fill:#223B6F;" d="M523.602,78.75c-34.877,2.762-69.065,0.534-103.472,5.734c0.296-9.409,3.474-18.227,0.069-27.432
		c82.833,1.784,165.02,1.607,247.746-0.624c0.247,9.448-0.549,18.791,2.022,28.593c-11.509-0.68-22.556-2.789-33.741-3.328
		c-11.136-0.537-22.232-1.814-33.411-1.712c-11.321,0.104-22.644,0.023-33.831,0.023c-1.285,1.477-0.822,3.049-0.867,4.483
		c-0.521,16.652-0.976,33.307-1.481,49.96c-0.591,19.482-1.341,38.959-1.783,58.444c-0.37,16.318-1.415,32.643-0.68,48.963
		c1.171,25.984,0.01,51.99,0.983,77.965c0.698,18.638,1.904,37.257,2.832,55.887c0.08,1.603,0.641,3.292-0.482,5.176
		c-14.903-2.583-29.941-2.382-45.489,0.086C526.903,280.279,525.623,179.938,523.602,78.75z"/>
	<path style="fill:#263D71;" d="M520.609,1000.673c-5.908-10.476-9.342-21.408-14.881-31.317
		c-5.667-10.138-10.314-20.881-16.427-30.726c-6.007-9.673-10.336-20.258-16.786-30.863c-2.339,8.715-3.4,16.408-4.547,24.075
		c-2.439,16.305-3.086,32.762-4.156,49.188c-0.506,7.772-0.781,15.591-2.281,23.683c-3.942-1.386-7.917-2.515-12.275,0.192
		c0.771-5.669,1.407-10.965,2.225-16.234c1.401-9.027,3.522-17.993,4.189-27.069c0.523-7.121,1.908-14.098,2.493-21.199
		c0.5-6.074,2.133-12.077,3.228-18.118c2.522-13.915,4.256-27.917,5.676-41.973c0.31-3.073,0.96-6.111,1.651-10.39
		c3.383,6.24,6.299,11.334,8.949,16.563c6.749,13.313,13.012,26.886,20.157,39.979c7.473,13.694,14.082,27.885,22.782,40.898
		c0.826,1.236,1.442,2.627,2.76,3.655c1.378-0.729,1.706-2.258,2.513-3.403c9.611-13.632,17.056-28.505,23.887-43.614
		c3.867-8.553,9.039-16.175,13.728-24.169c5.457-9.305,9.7-19.283,15.182-28.594c0.502-0.853,0.979-1.721,1.412-2.483
		c2.869-1.187,4.282,0.18,4.864,2.621c0.421,1.765,0.66,3.611,0.686,5.425c0.135,9.344,1.485,18.546,3.018,27.736
		c0.299,1.793,0.367,3.648,0.327,5.47c-0.063,2.849,0.191,5.625,0.996,8.37c0.417,1.422,0.982,2.946,0.847,4.363
		c-1.062,11.118,2.316,21.753,3.403,32.631c0.694,6.944,0.548,13.938,1.656,20.865c1.39,8.685,2.407,17.43,3.654,26.664
		c-5.606-1.142-11.308-2.009-17.24,0.353c-2.456-33.154-4.554-66.061-9.582-99.004c-3.851,3.982-6.37,8.62-8.567,13.386
		c-6.258,13.574-12.949,26.893-20.463,39.841c-5.742,9.894-10.467,20.374-15.79,30.517
		C525.773,992.04,523.894,996.265,520.609,1000.673z"/>
	<path style="fill:#253C70;" d="M349.126,937.518c0.27,12.39-2.044,24.205-7.883,35.157c-7.557,14.174-19.203,23.675-34.38,28.642
		c-21.288,6.967-42.638,6.618-63.533-1.373c-21.714-8.305-34.184-24.653-38.218-47.322c-2.482-13.95-1.83-27.871,3.031-41.338
		c6.797-18.832,20.245-30.958,38.973-37.174c17.632-5.852,35.736-6.511,53.659-1.806c24.304,6.381,40.353,21.491,46.336,46.455
		C348.598,924.961,349.216,931.209,349.126,937.518z M223.746,937.62c-0.436,7.553-0.027,15.364,2.293,22.929
		c6.467,21.086,18.94,36.088,41.78,39.977c10.382,1.768,20.457,0.62,30.069-4.277c12.076-6.152,19.689-16.145,24.949-28.152
		c4.351-9.931,5.217-20.501,5.012-31.265c-0.255-13.387-3.192-25.994-9.612-37.778c-2.752-5.052-6.333-9.436-10.922-12.824
		c-15.893-11.732-33.225-13.533-51.443-6.524c-12.852,4.944-22.112,13.698-27.166,26.835
		C224.87,916.508,223.131,926.687,223.746,937.62z"/>
	<path style="fill:#283E72;" d="M1174.994,871.72c4.005,1.102,7.837,2.114,12.093,0.027c-0.373,7.582,0.364,14.694-0.77,21.841
		c-0.778,4.906-0.902,9.932-1.095,14.913c-1.124,28.946-2.058,57.897-1.551,86.874c0.053,3.012,0.517,5.958,1.439,8.641
		c-0.988,1.506-2.209,0.867-3.575,0.893c-3.127-3.875-6.339-7.88-9.577-11.864c-3.78-4.65-7.771-9.106-12.125-13.236
		c-7.743-7.345-14.35-15.736-21.61-23.522c-10.885-11.673-21.935-23.197-33.082-34.621c-5.47-5.606-10.94-11.19-15.773-17.362
		c-1.339-1.71-2.662-3.368-5.501-2.674c0.32,33.426-1.144,67.034,2.431,101.068c-4.846-0.942-8.873-1.789-13.049,0.12
		c-0.719-7.393-0.135-14.627,1.046-21.815c0.354-2.156,0.519-4.283,0.517-6.448c-0.007-9.997-0.018-19.993,0.003-29.99
		c0.011-5.146-0.324-10.299,1.198-15.364c0.51-1.699,0.301-3.635,0.303-5.462c0.018-16.495-0.003-32.989,0.032-49.483
		c0.003-1.579-0.506-3.319,0.598-4.55c1.53-0.542,2.106,0.436,2.81,1.071c7.422,6.702,14.509,13.691,20.598,21.695
		c3.615,4.751,7.75,9.123,12.222,13.134c1.484,1.331,2.935,2.698,4.039,4.4c2.384,3.674,5.423,6.698,9.075,9.138
		c1.089,0.727,2.058,1.686,2.935,2.67c14.269,16.026,28.334,32.241,43.804,47.15c0.353,0.34,0.774,0.61,1.144,0.898
		c1.154-0.465,1.415-1.483,1.431-2.444c0.1-6.159,1.226-12.242,1.144-18.426c-0.207-15.657-0.115-31.318-0.377-46.974
		c-0.145-8.638-1.635-17.218-1.433-25.885C1174.369,874.823,1174.036,873.464,1174.994,871.72z"/>
	<path style="fill:#263D71;" d="M727.109,943.188c-2.158,6.932-1.359,13.599-1.447,20.197c-0.091,6.825,0.322,13.673-0.116,20.471
		c-0.43,6.669,1.605,13.091,1.738,20.3c-6.622-1.864-12.77-1.763-19.152,0.057c0.975-22.434,2.449-44.447,2.743-66.476
		c0.294-21.949-1.662-43.858-2.993-66.138c4.958,0.565,10.102,1.502,15.349,1.471c4.197-0.025,8.273-0.749,12.393-1.22
		c13.182-1.505,26.26-1.282,38.881,3.185c10.571,3.742,16.723,11.324,18.615,22.584c1.571,9.351-0.647,17.823-4.841,25.936
		c-4.331,8.377-11.061,13.89-20.307,16.362c-7.921,2.117-15.903,3.417-24.118,3.288
		C738.223,943.116,732.589,943.188,727.109,943.188z M725.48,935.761c8.188,0.616,15.69,0.403,23.031-1.007
		c16.03-3.078,24.393-10.646,26.059-25.763c1.625-14.748-4.472-25.493-20.051-29.087c-6.74-1.555-13.546-1.347-20.373-1.046
		c-2.673,0.118-5.244,0.549-8.11,1.966C723.505,898.899,725.501,917.15,725.48,935.761z"/>
	<path style="fill:#253C70;" d="M963.63,1005.054c-4.856-18.333-12.366-35.074-19.604-51.888c-16.125,0-31.759,0-47.811,0
		c-7.208,16.873-14.164,34.022-20.673,51.744c-4.107-2.432-8.108-1.251-12.673-0.155c3.71-8.484,7.331-16.438,10.687-24.502
		c9.378-22.536,20.405-44.328,29.984-66.77c2.021-4.734,3.935-9.496,6.663-13.894c1.935-3.12,3.067-6.61,4.148-10.102
		c1.97-6.364,5.752-11.863,8.471-17.862c0.874-1.928,2.118-1.658,3.232-1.718c18.979,44.83,37.899,89.523,57.072,134.811
		C976.414,1002.863,970.109,1002.651,963.63,1005.054z M941.031,943.87c-5.712-7.717-7.745-15.993-11.025-23.739
		c-3.277-7.737-6.132-15.695-10.594-23.595c-6.936,16.011-13.653,31.516-20.505,47.334
		C913.031,943.87,926.477,943.87,941.031,943.87z"/>
	<path style="fill:#253D71;" d="M115.862,876.743c-1.99,4.755-3.024,9.398-3.74,13.851c-1.829,0.834-2.525-0.356-3.333-1.079
		c-15.37-13.758-33.353-15.596-52.322-10.608c-16.345,4.297-26.532,15.718-32.438,31.214c-2.685,7.045-4.209,14.305-4.237,21.896
		c-0.035,9.503-0.058,18.965,3.172,28.104c2.797,7.912,6.555,15.292,12.161,21.562c11.354,12.7,25.757,16.756,42.367,14.969
		c13.531-1.456,25.138-6.958,35.363-15.642c1.584,0.663,2.266,1.549,1.779,3.152c-0.962,3.174-1.912,6.353-2.787,9.552
		c-0.506,1.851-2.042,2.497-3.483,3.314c-10.012,5.673-20.709,8.894-32.269,9.058c-10.171,0.144-20.266-0.285-30.147-3.098
		c-22.649-6.448-36.86-21.319-42.544-43.888c-4.543-18.039-3.262-35.818,4.42-53.13c7.534-16.978,20.272-27.517,37.668-33.052
		c9.134-2.907,18.452-4.109,28.015-3.74c5.806,0.224,11.599-0.208,17.43,0.622C99.377,871.001,107.483,873.112,115.862,876.743z"/>
	<path style="fill:#283E72;" d="M1496.909,991.253c-0.169,4.094,0.328,7.875-0.447,12.24c-2.04-2.038-4.236-1.709-6.497-1.659
		c-15.809,0.35-31.621,0.683-47.433,0.776c-5.108,0.03-10.255-1.159-15.926,1.839c0.8-15.363,1.999-30.015,1.772-44.713
		c-0.226-14.659,0.233-29.331-0.129-43.984c-0.364-14.728,1.948-29.516-1.602-44.961c11.647,3.119,22.777,2.299,33.839,2.109
		c10.926-0.188,21.979,1.562,33.038-1.714c0.99,3.385,0.287,6.805,0.503,10.834c-6.764-0.178-13.347,0.568-19.906-0.562
		c-9.56-1.647-19.154-1.024-29.119-1.037c-0.493,15.701,0.947,31.132-2.297,45.978c3.386,2.923,6.768,3.686,10.304,3.017
		c11.043-2.09,22.189-1.777,33.329-1.743c1.297,0.004,2.677-0.397,4.11,0.672c0.348,3.239,0.441,6.642-0.128,10.455
		c-15.544-3.157-30.981-1.692-46.886-1.909c2.464,4.211,0.776,8.031,0.307,11.71c-0.787,6.18-0.994,12.277,0.146,18.378
		c1.264,6.77,0.963,13.594,1,20.412c0.009,1.646,0.001,3.292,0.001,4.791c3.169,2.34,6.609,2.328,9.821,1.853
		c11.202-1.658,22.522-0.958,33.747-2.002C1491.083,991.787,1493.613,990.658,1496.909,991.253z"/>
	<path style="fill:#233B6F;" d="M1317.709,1004.97c-5.839-1.677-11.531-2.606-17.696-0.063c0.227-11.587-0.479-22.881,0.517-34.157
		c0.644-7.286,1.586-14.531,1.455-21.884c-0.272-15.312,0.647-30.665-0.986-45.927c-0.961-8.976-0.929-17.937-0.935-26.919
		c-0.001-1.312-0.268-2.665,0.436-4.18c5.62,1.508,11.328,1.839,17.219-0.276c0.773,6.916,0.181,13.495-0.967,20.027
		c-0.349,1.983-0.557,3.935-0.556,5.937c0.01,27.151,0.013,54.302,0.001,81.453c-0.002,5.174,0.626,10.293,1.246,15.412
		C1317.861,997.849,1318.262,1001.289,1317.709,1004.97z"/>
</g>
</svg>
