<?xml version="1.0" encoding="iso-8859-1"?>
<!-- Generator: Adobe Illustrator 27.0.0, SVG Export Plug-In . SVG Version: 6.00 Build 0)  -->
<svg version="1.1" id="Layer_1" xmlns="http://www.w3.org/2000/svg" xmlns:xlink="http://www.w3.org/1999/xlink" x="0px" y="0px"
	 viewBox="0 0 1619.011 803.051" style="enable-background:new 0 0 1619.011 803.051;" xml:space="preserve">
<g>
	<path style="fill:#0A69B0;" d="M0,287.051c0-1,0-2,0-3c5.734-1.014,11.467-2.034,17.203-3.042
		c21.963-3.859,43.929-7.702,65.89-11.572c29.008-5.111,58.007-10.268,87.019-15.358c33.109-5.809,66.229-11.553,99.34-17.35
		c27.865-4.879,55.724-9.793,83.586-14.692c23.436-4.121,46.873-8.238,70.308-12.367c29.499-5.197,58.99-10.437,88.495-15.595
		c23.934-4.184,47.89-8.234,71.825-12.414c27.539-4.81,55.062-9.71,82.595-14.547c29.666-5.212,59.338-10.385,89.004-15.597
		c23.601-4.146,47.193-8.342,70.795-12.483c21.8-3.825,43.611-7.587,65.411-11.41c29.502-5.175,58.997-10.396,88.499-15.573
		c25.733-4.515,51.478-8.967,77.207-13.501c19.337-3.408,38.649-6.961,57.991-10.342c29.834-5.215,59.691-10.3,89.525-15.513
		c19.835-3.466,39.641-7.091,59.471-10.585c27.695-4.88,55.401-9.702,83.101-14.554c29.341-5.14,58.679-10.294,88.021-15.426
		c26.062-4.558,52.13-9.087,78.193-13.643c27.539-4.814,55.085-9.585,82.604-14.513c6.333-1.134,12.776-1.825,18.917-3.923
		c1,0,2,0,3,0c0,175.808,0.001,351.615-0.007,527.423c0,1.83-0.109,3.66-0.168,5.49c-7.868,1.365-15.74,2.712-23.604,4.1
		c-21.79,3.846-43.579,7.7-65.365,11.568c-26.865,4.769-53.722,9.58-80.591,14.326c-31.456,5.556-62.924,11.047-94.381,16.596
		c-23.266,4.104-46.523,8.259-69.786,12.382c-29.651,5.256-59.305,10.491-88.953,15.757c-20.968,3.724-41.923,7.524-62.896,11.222
		c-31.949,5.634-63.912,11.189-95.863,16.815c-24.905,4.385-49.796,8.847-74.7,13.24c-29.164,5.145-58.339,10.229-87.501,15.382
		c-36.863,6.514-73.716,13.082-110.578,19.605c-30.963,5.479-61.935,10.911-92.898,16.395c-29.488,5.222-58.963,10.511-88.453,15.72
		c-29,5.122-58.015,10.159-87.017,15.274c-33.424,5.895-66.84,11.834-100.259,17.755c-28.996,5.137-57.993,10.267-86.987,15.416
		c-23.588,4.189-47.169,8.415-70.758,12.601c-21.95,3.895-43.905,7.77-65.86,11.635c-19.825,3.49-39.671,6.861-59.47,10.492
		c-5.993,1.099-12.209,1.265-17.903,3.805c-0.333,0-0.667,0-1,0c-0.335-1.792-0.682-3.583-1.001-5.378
		c-2.447-13.758-4.865-27.521-7.338-41.274c-5.181-28.814-10.418-57.618-15.581-86.435c-5.163-28.821-10.233-57.658-15.398-86.478
		c-5.165-28.822-10.434-57.625-15.591-86.449c-5.83-32.588-11.563-65.193-17.381-97.783c-5.905-33.079-11.811-66.159-17.858-99.213
		C2.057,295.694,2.015,291.142,0,287.051z M99.781,582.971c57.253,0,113.682,0,170.395,0c4.39-20.082,8.742-39.987,13.247-60.594
		c-32.857,0-64.925,0-97.462,0c4.199-19.565,8.26-38.491,12.37-57.644c23.86,0,47.145,0,70.64,0
		c4.117-19.274,8.169-38.243,12.367-57.896c-23.814,0-47.04,0-70.933,0c3.534-16.366,6.916-32.028,10.349-47.925
		c29.193,0,57.8,0,86.593,0c5.998-19.912,11.908-39.532,17.905-59.442c-55.352,0-109.946,0-164.888,0
		C140.18,393.927,120.032,488.208,99.781,582.971z M588.824,582.979c24.032,0,47.293,0,70.201,0c1.007-0.664,0.92-1.394,1.056-2.022
		c8.977-41.445,17.929-82.895,26.948-124.33c0.952-4.373,1.197-9.016,3.296-13.013c6.187-11.785,16.218-17.771,29.409-18.343
		c6.212-0.269,9.979,3.205,10.814,9.365c0.547,4.036-0.244,7.997-1.069,11.886c-8.32,39.205-16.759,78.386-25.067,117.594
		c-1.301,6.138-2.981,12.221-3.702,18.811c23.534,0,46.788,0,70.41,0c1.263-5.663,2.561-11.303,3.777-16.961
		c9.292-43.25,18.589-86.498,27.835-129.757c2.369-11.085,4.492-22.222,3.314-33.655c-0.823-7.987-3.57-15.152-9.174-21.109
		c-6.856-7.287-15.757-10.64-25.191-12.134c-28.733-4.548-55.25,1.121-78.982,18.407c-1.041,0.758-1.853,1.967-3.479,1.929
		c-0.838-7.221-1.487-14.483-3.945-21.824c-20.861,3.92-41.528,7.803-61.971,11.644c-0.528,2.651-0.237,4.645-0.035,6.622
		c1.315,12.836,0.532,25.608-0.958,38.378c-1.218,10.446-4.012,20.554-6.225,30.792c-7.272,33.647-14.419,67.322-21.605,100.988
		C592.611,565.003,590.773,573.765,588.824,582.979z M609.156,380.722c-0.726-0.457-0.979-0.675-1.272-0.789
		c-0.774-0.302-1.561-0.572-2.351-0.831c-27.684-9.075-56.102-12.452-85.155-11.138c-8.998,0.407-17.919,1.189-26.736,3.114
		c-19.913,4.349-37.139,13.703-51.102,28.476c-13.728,14.524-24.012,31.405-31.763,49.83c-8.085,19.22-12.516,39.282-13.489,60.064
		c-0.68,14.526,0.187,28.956,4.69,42.954c4.778,14.855,13.719,26.041,28.264,32.398c9.218,4.029,19.012,5.111,28.826,4.891
		c14.062-0.316,27.096-4.63,39.146-11.991c4.97-3.036,9.282-6.898,14.161-10.772c2.549,10.181,7.3,18.448,16,24.27
		c19.09-15.287,38.028-30.453,56.854-45.529c-0.177-0.677-0.174-1.059-0.356-1.302c-8.225-10.941-9.4-23.106-6.438-36.067
		c1.963-8.591,3.724-17.228,5.573-25.845c4.605-21.459,8.822-43.001,13.907-64.356C600.917,405.482,604.887,393.152,609.156,380.722
		z M1036.704,588.492c3.482-0.153,7.49-0.178,11.469-0.529c22.744-2.004,43.512-9.371,61.642-23.426
		c16.384-12.701,28.265-29.019,37.136-47.617c8.533-17.889,13.483-36.807,15.865-56.426c1.719-14.16,1.543-28.274-1.883-42.196
		c-4.825-19.61-16.192-34.08-34.58-42.632c-11.472-5.335-23.719-7.399-36.349-7.737c-18.888-0.505-37.19,2.179-54.682,9.467
		c-24.285,10.119-42.236,27.366-55.476,49.81c-10.968,18.594-17.328,38.803-20.686,60.011c-2.599,16.417-2.904,32.863,0.862,49.151
		c4.344,18.786,14.53,33.372,31.739,42.656C1005.646,586.515,1020.705,588.525,1036.704,588.492z M341.929,295.971
		c-0.109,1.74-0.213,3.049-0.269,4.359c-0.722,16.823-2.337,33.555-5.785,50.048c-2.415,11.553-5.389,22.989-7.864,34.531
		c-9.939,46.34-19.82,92.692-29.628,139.06c-2.239,10.588-4.165,21.242-3.592,32.17c0.801,15.256,8.29,24.673,22.938,28.982
		c8.239,2.424,16.692,2.835,25.182,3.252c15.268,0.749,30.234-1.197,45.019-4.798c1.676-0.408,3.672-0.443,5.147-2.395
		c-1.05-14.091-0.927-28.51-2.315-42.925c-4.225,0.897-8.042,1.245-11.863,0.724c-4.65-0.634-7.11-3.095-7.913-7.693
		c-0.49-2.804-0.429-5.633-0.252-8.471c0.707-11.343,3.368-22.385,5.691-33.423c10.17-48.333,20.708-96.589,31.221-144.85
		c3.866-17.749,7.412-35.521,7.594-53.778c0.021-2.112,0.003-4.224,0.003-6.961C390.47,287.915,366.288,291.928,341.929,295.971z
		 M986.164,392.957c-0.618-1.817-1.724-2.637-2.674-3.538c-11.023-10.452-24.121-17.017-38.851-20.351
		c-8.691-1.967-17.549-1.477-26.368-1.172c-25.056,0.866-47.665,8.506-67.271,24.403c-15.591,12.641-26.707,28.664-35.062,46.719
		c-9.609,20.764-14.737,42.74-16.714,65.425c-1.058,12.14-0.546,24.3,2.766,36.182c5.323,19.094,16.527,33.066,35.06,40.885
		c10.917,4.606,22.336,6.231,34.046,6.82c23.794,1.197,45.839-4.68,66.447-16.269c6.638-3.733,13.088-7.853,18.985-13.324
		c-6.975-13.746-13.87-27.335-20.697-40.787c-1.299,0.173-1.878,0.79-2.488,1.352c-6.199,5.714-13.288,9.943-21.195,12.857
		c-6.151,2.267-12.551,3.455-19.024,3.788c-10.217,0.525-15.941-4.602-17.132-14.752c-0.408-3.479-0.575-6.978-0.282-10.478
		c1.73-20.633,5.464-40.874,12.112-60.515c2.57-7.592,5.798-14.902,11.045-21.099c6.073-7.174,13.931-10.546,23.128-8.738
		c7.929,1.559,15.031,5.344,20.472,11.667c0.732,0.851,1.172,2.008,2.838,2.588C958.886,420.772,972.602,406.786,986.164,392.957z"
		/>
	<path style="fill:#DDE2F1;" d="M1619,533.051c-0.391-0.029-0.783-0.058-1.174-0.086c0.058-1.83,0.168-3.66,0.168-5.49
		C1618.001,351.666,1618,175.858,1618,0.051c0.308,0.218,1.043-0.506,1.01,0.5c-0.043,1.332-0.01,2.666-0.01,4
		C1619,180.717,1619,356.884,1619,533.051z"/>
	<path style="fill:#3371B5;" d="M1617.923,571.506c0,8.844,0,16.984,0,25.094c-1.038,1.017-2.13,0.76-3.644,0.18
		c0-6.272,0-12.692,0-19.112c-3.781,6.093-4.901,13.029-7.501,19.264c-1.17,0.471-2.121,0.422-3.181-0.092
		c-2.388-6.081-3.497-12.647-7.041-18.6c0,6.168,0,12.335,0,18.072c-1.637,1.271-2.691,1.131-3.93,0.378c0-8.167,0-16.406,0-24.781
		c2.141-0.759,4.092-0.493,6.384-0.266c2.801,5.679,3.618,12.201,6.563,18.391c1.918-6.305,3.703-12.171,5.495-18.064
		C1613.289,571.026,1615.376,571.565,1617.923,571.506z"/>
	<path style="fill:#3572B5;" d="M1575.162,575.175c-3.162,0-5.605,0-7.682,0c-1.283-1.102-1.175-2.036-0.611-3.388
		c6.384,0,12.929,0,19.52,0c0.938,0.745,0.583,1.745,0.469,2.797c-2.295,1.172-4.888-0.011-7.702,0.93c0,6.888,0,13.945,0,20.516
		c-1.369,1.508-2.469,1.359-3.994,0.906C1575.162,589.98,1575.162,582.917,1575.162,575.175z"/>
	<path style="fill:#0F69B0;" d="M526.505,423.468c-1.671,7.942-3.293,15.738-4.954,23.526c-4.51,21.146-9.055,42.284-13.55,63.434
		c-2.945,13.857-12.358,21.533-24.977,26.006c-3.808,1.35-8.575-0.633-11.02-4.038c-1.888-2.629-2.707-5.643-3.088-8.841
		c-1.418-11.893,0.163-23.61,2.098-35.285c2.457-14.824,6.456-29.204,12.875-42.856c2.642-5.619,5.917-10.801,10.102-15.379
		c6.484-7.093,14.69-10.101,24.162-9.778C520.988,420.353,523.726,421.108,526.505,423.468z"/>
	<path style="fill:#0F69B0;" d="M1088.891,437.79c-0.671,9.461-2.124,19.662-4.009,29.799c-2.92,15.705-6.777,31.155-12.935,45.954
		c-2.05,4.928-4.693,9.532-7.582,14.008c-2.013,3.12-4.64,5.632-7.508,7.939c-5.417,4.358-11.417,4.158-17.449,1.918
		c-4.687-1.74-6.442-5.907-7.423-10.496c-1.316-6.151-0.563-12.305,0.199-18.384c2.587-20.65,6.582-41.006,13.85-60.593
		c2.666-7.184,5.835-14.127,10.419-20.341c1.685-2.284,3.484-4.463,5.69-6.262c5.674-4.629,11.958-5.384,18.734-2.866
		c3.207,1.192,5.01,3.687,6.204,6.729C1088.564,428.976,1088.891,432.94,1088.891,437.79z"/>
</g>
</svg>
