<?xml version="1.0" encoding="iso-8859-1"?>
<!-- Generator: Adobe Illustrator 27.0.0, SVG Export Plug-In . SVG Version: 6.00 Build 0)  -->
<svg version="1.1" id="Layer_1" xmlns="http://www.w3.org/2000/svg" xmlns:xlink="http://www.w3.org/1999/xlink" x="0px" y="0px"
	 viewBox="0 0 398.603 150.578" style="enable-background:new 0 0 398.603 150.578;" xml:space="preserve">
<g>
	<path style="fill:#277746;" d="M0,61.578c1.632-1.015,1.31-2.922,1.902-4.386c5.226-12.907,17.945-19.778,30.904-16.554
		c8.99,2.237,15.946,9.965,16.917,18.817c0.088,0.802,0.293,1.646-0.758,2.858c-12.278,0-24.998,0-38.062,0
		c-0.248,9.053,1.319,16.993,7.49,23.371c7.548,7.803,18.209,8.037,26.336,0.831c1.821-1.615,3.279-3.677,5.518-4.972
		c1.211,2.574-0.342,4.011-1.591,5.526c-10.938,13.267-30.162,10.431-39.075,2.62c-3.565-3.124-6.34-6.749-8.023-11.233
		C1.192,77.483,1.466,76.005,0,75.578C0,70.911,0,66.244,0,61.578z M38.976,59.095c0.509-9.529-4.805-15.485-13.524-15.824
		c-8.877-0.345-15.427,8.288-14.112,16.281c8.209,0,16.484,0.008,24.758-0.011C37.07,59.54,38.101,59.779,38.976,59.095z"/>
	<path style="fill:#919092;" d="M319,150.578c0-6.443,0-12.886,0-19.524c2.809-0.912,5.618-0.8,8.299-0.193
		c3.807,0.862,6.389,4.668,6.524,8.958c0.136,4.317-2.525,8.436-6.319,9.69c-0.872,0.288-2.058-0.211-2.503,1.069
		C323,150.578,321,150.578,319,150.578z M321.209,147.526c3.543,0.281,6.837,0.9,8.888-2.778c1.481-2.656,1.386-7.784-0.412-9.909
		c-2.328-2.751-5.317-2.694-8.475-1.958C321.209,137.891,321.209,142.606,321.209,147.526z"/>
	<path style="fill:#939294;" d="M144,150.578c0.009-2.038-1.155-3.689-1.576-5.561c-2.577-1.132-5.049-0.546-7.295-0.589
		c-1.39,0.742-1.029,2.172-1.687,3.107c-0.525,0.747-0.436,2.048-1.837,1.934c-0.779-0.662-0.605-1.476-0.341-2.265
		c1.56-4.679,3.207-9.331,4.676-14.039c0.573-1.838,1.332-3.005,4.037-2.331c2.325,6.256,4.59,12.862,6.023,19.744
		C145.333,150.578,144.667,150.578,144,150.578z M141.201,141.003c-0.845-2.643-1.684-5.264-2.746-8.586
		c-1.225,3.323-2.723,5.728-2.396,8.706C137.709,141.937,139.25,141.937,141.201,141.003z"/>
	<path style="fill:#939294;" d="M30,150.578c-5.776-4.457-7.294-9.321-5.051-15.391c1.184-3.204,3.595-4.901,6.662-5.149
		c2.931-0.238,5.374,1.35,6.928,3.998c0.462,0.787,0.517,1.544-0.236,2.279c-2.382,0.124-2.015-2.827-3.754-3.445
		c-1.771-0.633-3.542-0.653-5.407,0.121c-3.352,3.387-2.568,7.641-1.893,11.659c0.38,2.266,2.628,3.234,4.639,3.705
		c3.122-0.296,4.463-2.704,5.872-4.722c1.689,0.797,1.312,1.762,0.813,2.644c-1.073,1.896-2.988,2.929-4.573,4.3
		C32.667,150.578,31.333,150.578,30,150.578z"/>
	<path style="fill:#9A999B;" d="M98,150.578c-0.29-1.094-0.983-2.006-0.962-3.268c0.093-5.443,0.04-10.889,0.04-16.065
		c1.554-0.932,2.661-0.642,2.626,0.571c-0.185,6.255,1.036,12.569-0.703,18.762C98.667,150.578,98.333,150.578,98,150.578z"/>
	<path style="fill:#919092;" d="M259,150.578c-0.023-6.434-0.368-12.87,0.195-19.296c0.016-0.177,0.466-0.317,1.1-0.72
		c1.314,3.389,0.461,6.805,0.62,10.1c0.159,3.299,0.067,6.61,0.085,9.916C260.333,150.578,259.667,150.578,259,150.578z"/>
	<path style="fill:#8D8D8F;" d="M214,150.578c0.127-6.603-0.072-13.224,0.797-19.821c1.87,3.204,1.092,6.607,1.223,9.902
		c0.131,3.301-0.002,6.612-0.02,9.919C215.333,150.578,214.667,150.578,214,150.578z"/>
	<path style="fill:#DAD9D8;" d="M156,150.578c0.023-0.368,0.046-0.736,0.069-1.104c3.642,0.032,7.284,0.064,10.927,0.096
		c0.001,0.336,0.003,0.672,0.004,1.008C163.333,150.578,159.667,150.578,156,150.578z"/>
	<path style="fill:#DAD9D8;" d="M203.044,149.667c-0.018,0.303-0.033,0.607-0.044,0.91c-3.667,0-7.333,0-11,0
		c0.04-0.387,0.08-0.773,0.121-1.16C195.762,149.501,199.403,149.584,203.044,149.667z"/>
	<path style="fill:#207544;" d="M210.886,92.227c-0.036,0.814-0.058,1.299-0.091,2.033c-9.137,0-18.237,0-27.27,0
		c-0.829-0.481-0.473-1.19-0.587-1.899c0.436-0.235,0.824-0.599,1.25-0.651c6.311-0.776,7.469-1.751,7.584-8.117
		c0.189-10.494,0.187-20.996,0.008-31.49c-0.104-6.105-1.648-7.451-7.75-7.99c-1.483-0.131-1.483-0.131-3.491-2.171
		c7.117-1.76,14.031-1.267,21.048-2.367c0.857,3.677,0.075,7.136,0.571,10.669c11.876-13.586,27.157-14.436,35.787,0.493
		c1.902-1.8,3.739-3.68,5.724-5.39c5.505-4.743,11.733-6.731,18.966-4.819c7.05,1.863,11.419,6.662,12.513,13.876
		c1.005,6.632,0.314,13.306,0.487,19.959c0.095,3.663-0.067,7.336,0.102,10.994c0.202,4.36,1.273,5.431,5.578,6.224
		c2.025,0.373,2.025,0.373,2.865,2.584c-9.329,0-18.532,0-27.699,0c-0.664-1.516-0.264-2.226,1.278-2.525
		c6.607-1.282,7.2-1.883,7.273-8.316c0.1-8.83,0.12-17.663,0.02-26.493c-0.093-8.28-6.583-12.914-14.611-10.722
		c-4.82,1.316-7.898,4.716-10.794,8.434c-0.912,1.171-0.772,2.502-0.774,3.821c-0.008,8.498-0.05,16.996,0.014,25.494
		c0.044,5.909,0.766,6.709,6.738,7.753c1.291,0.226,2.334,0.383,1.982,2.051c-3.276,1.036-21.732,1.284-27.541,0.374
		c-0.273-0.63-0.348-1.254,0.057-1.868c7.826-1.599,8.117-1.861,8.224-10.093c0.104-7.997-0.031-15.997,0.054-23.994
		c0.051-4.849-1.256-8.984-5.853-11.248c-4.609-2.27-9.079-1.333-13.248,1.367c-2.108,1.365-3.896,3.094-5.463,5.075
		c-1.289,1.629-1.924,3.319-1.888,5.478c0.126,7.663,0.043,15.329,0.051,22.994C202.005,90.036,202.579,90.729,210.886,92.227z"/>
	<path style="fill:#8A8A8B;" d="M29.571,116.147c9.998-0.829,20.088-1.304,30.192-1.69c18.793-0.718,37.599-0.437,56.379-1.103
		c39.114-1.386,78.232-0.819,117.338-0.365c14.789,0.172,29.621-0.039,44.387,0.881c10.972,0.684,21.951,0.307,32.894,0.992
		c4.59,0.288,9.211,0.574,13.836,1.249c-5.059,0.364-10.064,1.013-15.089,1.255c-5.652,0.273-11.334-0.029-16.981,0.293
		c-17.784,1.012-35.598,0.503-53.379,1.137c-38.781,1.384-77.566,0.842-116.339,0.368c-15.289-0.187-30.621,0.044-45.886-0.899
		c-10.807-0.668-21.622-0.263-32.396-0.985C39.585,116.949,34.626,116.729,29.571,116.147z"/>
	<path style="fill:#217544;" d="M149.916,39.746c15.928,0.063,27.63,9.93,29.505,24.898c2.196,17.533-10.838,29.15-23.187,31.001
		C144.467,97.41,134.442,94.528,126.88,85c-11.082-13.964-6.286-38.677,15.786-44.283C145.213,40.07,147.853,39.406,149.916,39.746z
		 M132.665,67.569c-0.01,6.527,0.919,12.294,3.991,17.726c5.73,10.133,21.805,10.487,27.338,0.114
		c6.139-11.509,5.981-23.291-0.062-34.825c-1.995-3.809-5.393-6.261-9.734-7.18c-8.471-1.794-15.694,2.14-19.171,10.463
		C133.131,58.405,132.653,63.184,132.665,67.569z"/>
	<path style="fill:#1B7442;" d="M320.019,62.142c0-1.3,0.031-2.614-0.005-3.926c-0.166-5.995-2.76-10.063-7.488-11.785
		c-5.271-1.919-11.127-0.33-14.893,4.112c-1.183,1.395-2.178,2.927-2.779,4.695c-0.476,1.399-1.413,1.712-3.008,0.748
		c0.239-4.285,2.484-7.675,5.451-10.597c6.475-6.376,17.334-7.488,24.909-2.52c4.897,3.212,7.644,7.878,7.792,13.768
		c0.196,7.826,0.17,15.658,0.171,23.487c0,3.009,0.215,5.968,0.991,8.859c5.142,3.713,3.998-4.082,7.163-3.866
		c1.139,4.109-0.801,8.166-4.753,10.063c-4.986,2.393-9.39,0.561-13.673-5.885c-1.646,1.334-3.212,2.76-4.93,3.969
		c-5.91,4.16-14.014,3.761-19.45-0.874c-7.349-6.265-6.379-17.012,1.982-21.815c4.07-2.338,8.57-3.565,13.01-4.933
		C313.655,64.674,316.906,63.986,320.019,62.142z M320.029,66.009c-5.081,1.465-9.696,2.807-13.857,5.256
		c-5.509,3.242-6.916,10.421-3.215,15.567c3.27,4.546,9.245,4.557,14.373-0.005c1.367-1.216,2.712-2.464,2.705-4.537
		C320.016,76.989,320.029,71.689,320.029,66.009z"/>
	<path style="fill:#217544;" d="M340.222,41.72c8.591,0,16.998,0,25.33,0c0.625,1.306,0.163,1.953-0.824,2.58
		c-3.297,2.092-3.646,2.937-2.884,6.388c0.143,0.646,0.301,1.301,0.559,1.907c3.952,9.308,7.921,18.608,11.888,27.913
		c1.595-0.3,1.497-1.606,1.834-2.621c2.663-8.022,5.347-16.037,7.968-24.073c0.46-1.409,0.763-2.89,0.949-4.361
		c0.302-2.387-0.395-4.31-2.981-5.009c-1.185-0.32-2.312-0.61-1.865-2.942c6.028-0.141,12.197-0.028,18.189-0.061
		c0.626,1.854-0.196,2.476-1.229,2.636c-4.948,0.766-7.333,4.347-9.005,8.437c-1.881,4.601-3.443,9.339-5.02,14.058
		c-3.941,11.796-7.919,23.582-11.682,35.435c-3.862,12.165-9.559,16.337-23.026,17.436c-1.947,0.159-3.919,0.022-6.117,0.022
		c0-2.624,0-4.881,0-7.354c2.035-0.778,4.201-0.247,6.301-0.391c2.814-0.192,5.624-0.291,8.442-0.596
		c6.307-0.682,9.891-4.118,11.535-10c0.401-1.436,0.89-2.848,1.121-3.582c0.54-1.96-0.224-2.943-0.675-3.991
		c-5.703-13.255-11.415-26.506-17.142-39.75c-0.658-1.522-1.372-3.024-2.146-4.489c-1.465-2.773-3.435-4.863-6.85-5.101
		C341.808,44.135,340.467,44.105,340.222,41.72z"/>
	<path style="fill:#167341;" d="M53.053,3.832c0.143-0.663,0.091-1.394,0.369-1.554c1.686-0.974,16.396-2.156,20.144-1.713
		c0.759,1.553,0.36,3.237,0.362,4.857c0.03,25.332,0.02,50.664,0.023,75.996c0,1.5-0.06,3.007,0.067,4.497
		c0.319,3.747,1.811,5.171,5.601,5.769c1.449,0.229,3.498-0.72,4.079,1.705c-2.988,1.355-21.385,1.765-29.404,0.681
		c-0.433-1.05-0.432-1.991,0.921-2.23c0.976-0.172,2.002-0.042,2.99-0.169c3.163-0.408,4.302-1.408,4.894-4.653
		c0.386-2.118,0.645-4.292,0.649-6.442c0.046-22.332,0.029-44.664,0.027-66.997c0-0.833,0.03-1.672-0.051-2.498
		c-0.486-4.952-1.908-6.27-6.943-6.571C55.649,4.443,54.444,4.828,53.053,3.832z"/>
	<path style="fill:#107240;" d="M90.184,94.145c0.043-0.813,0.068-1.299,0.09-1.726c0.873-0.858,1.923-0.579,2.892-0.66
		c4.532-0.378,5.747-1.411,6.487-5.96c0.291-1.793,0.276-3.648,0.277-5.475c0.017-22.146,0.012-44.292,0.011-66.438
		c0-0.999,0.038-2.003-0.044-2.996c-0.383-4.596-1.93-6.054-6.591-6.378c-1.293-0.09-2.675,0.364-3.861-0.535
		c-0.531-1.525,0.169-2.162,1.608-2.294c6.102-0.56,12.203-1.125,18.247-1.683c1.29,1.861,0.7,3.746,0.703,5.503
		c0.045,25.143,0.03,50.286,0.033,75.429c0,1.498-0.067,3.005,0.059,4.494c0.369,4.356,1.805,5.732,6.193,6.287
		c1.405,0.178,3.526-0.637,3.562,2.431C110.019,94.145,100.307,94.145,90.184,94.145z"/>
	<path style="fill:#939294;" d="M231.198,135.617c-0.829,4.786,0.436,9.398-0.916,14.121c-1.672-2.816-1.935-7.827-1.159-18.739
		c2.142-1.059,3.163-0.027,3.858,2.018c1.311,3.86,2.569,7.749,4.646,11.882c1.872-4.921,3.57-9.382,5.197-13.659
		c1.24-0.941,2.329-0.828,3.437-0.305c0.155,0.306,0.432,0.596,0.432,0.886c-0.018,5.646-0.052,11.293-0.158,16.938
		c-0.006,0.313-0.67,0.614-1.193,1.063c-2.251-2.104-0.957-4.719-1.185-6.996c-0.226-2.26-0.05-4.56-0.05-7.783
		c-2.915,5.267-3.912,10.296-6.381,15.529C234.511,145.495,233.992,140.251,231.198,135.617z"/>
	<path style="fill:#919092;" d="M62.052,149.848c-2.605-1.022-1.702-4.095-3.666-5.913c-1.866-0.581-4.145-0.093-6.3-0.214
		c-2.403,1.394-0.69,5.453-4.132,6.029c-0.223-3.935,1.856-7.251,2.929-10.836c0.794-2.653,1.668-5.282,2.422-7.656
		c1.103-1.003,2.079-0.551,3.363-0.669C58.626,137.028,61.813,142.995,62.052,149.848z M55.384,132.665
		c-1.908,2.805-2.209,5.733-3.326,8.618c2.15,0.476,3.974,0.79,5.894-0.216C57.101,138.282,56.311,135.697,55.384,132.665z"/>
	<path style="fill:#939294;" d="M75.459,141.695c-1.243,2.729,0.395,5.563-1.443,8.084c-1.352-3.385-1.605-10.894-0.743-18.935
		c2.341-0.632,4.82-0.352,7.244-0.22c2.923,0.16,5.232,2.309,5.497,4.771c0.281,2.616-1.001,4.026-4.114,5.352
		C79.823,141.631,77.654,141.174,75.459,141.695z M83.951,135.373c-2.351-4.019-5.616-2.894-8.795-2.453c0,2.248,0,4.182,0,6.075
		C80.828,139.736,81.861,139.323,83.951,135.373z"/>
	<path style="fill:#8D8D8F;" d="M306.888,131.209c-2.62,2.108-5.715,0.688-8.519,1.682c-0.638,1.645-0.313,3.287-0.269,4.983
		c1.936,1.675,4.812-0.234,6.843,1.426c-0.725,1.757-2.034,1.136-3.064,1.275c-1.122,0.15-2.312-0.276-3.626,0.524
		c0,1.939,0,4.004,0,6.198c3.189,1.071,6.605-0.422,9.92,1.106c-3.168,1.552-4.504,1.646-11.877,0.943c0-6.022,0-12.084,0-18.49
		C299.796,130.207,303.337,130.701,306.888,131.209z"/>
	<path style="fill:#939294;" d="M116.377,149.435c-0.716-5.392,0.061-10.912-0.413-16.143c-1.834-1.486-4.166,0.087-5.796-1.488
		c2.815-1.626,10.311-1.784,14.772-0.232c-1.978,1.782-4.333,0.421-6.767,1.569c0,5.176,0,10.71,0,16.244
		C117.574,149.402,116.976,149.419,116.377,149.435z"/>
	<path style="fill:#919092;" d="M271.295,130.871c5.35,0,9.875,0,14.702,0c-1.953,1.644-1.953,1.644-5.557,1.859
		c-1.445,5.42,0.456,11.242-1.591,16.711c-1.461-2.528-0.808-5.29-0.925-7.931c-0.124-2.794-0.028-5.597-0.028-8.072
		C275.969,131.73,273.581,133.502,271.295,130.871z"/>
	<path style="fill:#8D8D8F;" d="M166.996,149.57c-3.642-0.032-7.284-0.064-10.927-0.096c0-6.233,0-12.466,0-18.699
		c2.819,2.439,1.701,5.403,1.899,8.123c0.202,2.771,0.045,5.569,0.045,8.783c2.765,0,5.053,0.005,7.341-0.002
		C166.64,147.676,167.107,148.367,166.996,149.57z"/>
	<path style="fill:#939294;" d="M203.044,149.667c-3.641-0.083-7.282-0.167-10.923-0.25c0.02-5.977,0.032-11.954,0.087-17.93
		c0.002-0.224,0.416-0.444,1.023-1.051c1.587,2.671,0.672,5.447,0.831,8.012c0.174,2.8,0.04,5.619,0.04,8.553
		c2.337,1.199,4.688,0.462,6.928,0.618C202.426,147.717,203.277,148.09,203.044,149.667z"/>
</g>
</svg>
