<?xml version="1.0" encoding="iso-8859-1"?>
<!-- Generator: Adobe Illustrator 27.0.0, SVG Export Plug-In . SVG Version: 6.00 Build 0)  -->
<svg version="1.1" id="Layer_1" xmlns="http://www.w3.org/2000/svg" xmlns:xlink="http://www.w3.org/1999/xlink" x="0px" y="0px"
	 viewBox="0 0 1891 374" style="enable-background:new 0 0 1891 374;" xml:space="preserve">
<g>
	<path style="fill:#173A62;" d="M1061,0c0.768,1.727,2.317,0.86,3.496,0.959c22.818,1.917,45.05,6.141,65.988,15.929
		c20.569,9.615,38.374,23.054,55.12,38.947c-16.778,19.357-33.409,38.545-49.944,57.621c-3.143-0.7-4.967-2.423-6.837-4.036
		c-9.983-8.612-20.533-16.498-32.307-22.425c-14.954-7.527-30.746-12.29-47.663-13.132c-22.461-1.118-43.256,3.881-62.117,16.176
		c-12.869,8.389-23.466,19.204-31.266,32.432c-7.621,12.925-13.695,26.574-15.945,41.613c-1.904,12.728-2.223,25.47-0.84,38.3
		c1.643,15.246,6.168,29.57,13.363,43.009c15.069,28.146,38.103,46.105,69.415,52.917c11.782,2.563,23.775,2.507,35.769,1.281
		c26.14-2.672,48.036-14.523,67.753-31.137c3.809-3.21,7.583-6.461,11.727-9.995c17.672,16.278,34.014,33.778,51.06,50.892
		c-5.124,5.828-10.499,10.996-15.962,16.075c-17.379,16.157-37.27,28.351-59.339,36.897c-13.366,5.176-27.277,8.373-41.59,9.743
		c-3.972,0.38-7.922,0.969-11.924,0.995c-0.592,0.004-0.798,0.46-0.956,0.938c-2.333,0-4.667,0-7,0
		c-0.293-0.67-0.802-0.996-1.537-0.997c-5.648-0.001-11.296-0.005-16.944-0.011c-0.736-0.001-1.241,0.327-1.519,1.008
		c-2.333,0-4.667,0-7,0c-0.292-1.067-1.176-0.954-1.985-1c-25.656-1.477-49.496-9.151-72.079-21.117
		c-35.208-18.656-60.542-46.672-77.894-82.234c-9.361-19.185-14.635-39.641-16.581-60.712
		c-4.426-47.933,5.047-92.764,33.226-132.521c17.32-24.436,39.754-43.231,66.661-56.602c17.234-8.564,35.302-14.447,54.328-17.326
		c4.432-0.671,8.915-1.008,13.377-1.481C1023.85,0.922,1024.75,1.111,1025,0c0.667,0,1.333,0,2,0c0.405,1.29,1.492,1.049,2.435,1.05
		c9.377,0.011,18.754,0.011,28.131,0c0.943-0.001,2.03,0.241,2.435-1.05C1060.333,0,1060.667,0,1061,0z"/>
	<path style="fill:#6B718F;" d="M1889.823,6.472c0.392-0.157,0.785-0.315,1.177-0.472c0,24.667,0,49.333,0,74
		c-0.395-0.156-0.789-0.312-1.184-0.467c0.049-1.323,0.143-2.647,0.141-3.97C1889.919,52.532,1889.87,29.502,1889.823,6.472z"/>
	<path style="fill:#D8D9D9;" d="M0.846,277.034C0.563,277.042,0.281,277.031,0,277c0-15,0-30,0-45
		c0.282-0.03,0.564-0.042,0.847-0.034C0.847,246.989,0.846,262.012,0.846,277.034z"/>
	<path style="fill:#5D6686;" d="M1060,0c-0.404,1.29-1.492,1.049-2.435,1.05c-9.377,0.011-18.754,0.011-28.131,0
		c-0.943-0.001-2.03,0.241-2.435-1.05C1038,0,1049,0,1060,0z"/>
	<path style="fill:#4C597B;" d="M1031,374c0.278-0.681,0.783-1.009,1.519-1.008c5.648,0.006,11.296,0.01,16.944,0.011
		c0.734,0,1.243,0.327,1.537,0.997C1044.333,374,1037.667,374,1031,374z"/>
	<path style="fill:#183A62;" d="M600.981,227.828c0,47.053,0,93.334,0,139.893c-26.499,0-52.755,0-79.438,0
		c0-120.049,0-239.951,0-359.98c0.927-1.146,2.374-0.673,3.624-0.702c14.492-0.34,28.985-0.872,43.478-0.876
		c74.496-0.023,148.991,0.094,223.487,0.162c1.319,0.001,2.637,0,4.247,0c0,24.063,0,47.962,0,72.356c-64.887,0-129.809,0-195.054,0
		c0,25.891,0,51.292,0,77.111c56.935,0,114.002,0,171.372,0c0,24.149,0,47.883,0,72.037
		C715.71,227.828,658.643,227.828,600.981,227.828z"/>
	<path style="fill:#59676A;" d="M282.015,6.307c0,27.242,0,54.175,0,81.542c27.306,0,54.358,0,81.696,0c0,24.152,0,47.87,0,71.87
		c-51.049,0-102.086,0-153.417,0c0-51.031,0-102.068,0-153.412C233.965,6.307,257.683,6.307,282.015,6.307z"/>
	<path style="fill:#59676A;" d="M0.846,277.034c0-15.023,0.001-30.046,0.001-45.069c0-5.473,0-10.946,0-15.598
		c1.57-1.933,2.826-1.489,3.926-1.543c18.808-0.927,37.633-0.708,56.453-0.737c29.493-0.046,58.986-0.059,88.479-0.086
		c1.623-0.001,3.246,0,5.069,0c0,51.812,0,103.2,0,154.794c-23.499,0-46.774,0-70.501,0c0-27.32,0-54.715,0-82.558
		c-27.838,0-55.233,0-82.801,0C0.563,282.944,1.265,279.938,0.846,277.034z"/>
	<path style="fill:#183A62;" d="M154.722,159.666c-51.188,0-102.089,0-153.192,0c0-23.769,0-47.206,0-71.299
		c27.21,0,54.575,0,82.338,0c0-27.709,0-54.767,0-82.095c23.791,0,47.182,0,70.854,0
		C154.722,57.303,154.722,108.348,154.722,159.666z"/>
	<path style="fill:#173A61;" d="M363.713,285.984c-27.562,0-54.83,0-82.497,0c0,27.271,0,54.327,0,81.879
		c-23.762,0.26-47.132,0.515-70.862,0.774c0-51.393,0-102.575,0-154.267c50.996,0.247,102.034,0.494,153.359,0.743
		C363.713,238.63,363.713,262.019,363.713,285.984z"/>
	<path style="fill:#183A62;" d="M1261.637,5.998c1.817,0,3.309-0.001,4.801,0c42.494,0.038,84.987,0.017,127.481,0.156
		c10.992,0.036,22.017,0.119,32.966,0.972c29.148,2.271,56.056,10.959,79.128,29.552c14.977,12.069,25.48,27.457,32.773,45.187
		c5.124,12.457,7.24,25.439,8.447,38.786c1.647,18.213-0.63,35.919-5.824,53.22c-5.455,18.168-15.278,33.757-29.23,46.88
		c-19.781,18.606-43.349,29.37-69.576,34.806c-6.798,1.409-13.718,2.277-20.749,2.592c-22.318,0.998-44.647,0.612-66.966,1.091
		c-4.152,0.089-8.307,0.013-13.047,0.013c-0.799,36.462-0.65,72.346-0.857,108.485c-26.526,0-52.782,0-79.346,0
		C1261.637,247.385,1261.637,126.995,1261.637,5.998z M1341.763,187.438c0.91,0.991,1.613,0.875,2.251,0.871
		c22.151-0.109,44.302-0.137,66.451-0.407c6.825-0.083,13.494-1.428,19.948-3.88c16.402-6.233,28.495-16.632,33.997-33.847
		c1.288-4.029,1.774-8.132,2.194-12.233c1.328-12.971-0.99-25.216-8.668-35.992c-10.844-15.217-26.408-22.001-44.456-22.893
		c-22.948-1.135-45.943-1.112-68.925-1.092c-1.096,0.001-2.348-0.443-3.457,0.924
		C1341.265,115.042,1341.125,151.445,1341.763,187.438z"/>
	<path style="fill:#173A61;" d="M1889.823,6.472c0.047,23.03,0.096,46.06,0.134,69.09c0.002,1.323-0.092,2.647-0.141,3.97
		c-7.829,0.081-15.658,0.208-23.488,0.235c-26.664,0.095-53.327,0.155-79.991,0.228c-1.629,0.004-3.257,0.001-5.362,0.001
		c0,95.945,0,191.529,0,287.558c-26.737,0-52.993,0-79.662,0c0-95.375,0-191.103,0-287.247c-36.805,0-73.205,0-109.959,0
		c0-24.812,0-49.212,0-73.918c0.654-0.849,1.918-0.369,3.01-0.368c97.656,0.086,195.311,0.196,292.967,0.31
		C1888.162,6.333,1888.992,6.423,1889.823,6.472z"/>
</g>
</svg>
