<?xml version="1.0" encoding="iso-8859-1"?>
<!-- Generator: Adobe Illustrator 27.0.0, SVG Export Plug-In . SVG Version: 6.00 Build 0)  -->
<svg version="1.1" id="Layer_1" xmlns="http://www.w3.org/2000/svg" xmlns:xlink="http://www.w3.org/1999/xlink" x="0px" y="0px"
	 viewBox="0 0 1470 220" style="enable-background:new 0 0 1470 220;" xml:space="preserve">
<g>
	<path style="fill:#DB2B27;" d="M1470,80c-1.959,1.92-1.361,4.585-1.786,6.876c-0.851,4.597-1.95,9.112-3.524,13.484
		c-4.709,13.083-13.592,22.236-26.396,27.653c-1.626,0.688-3.664,0.68-4.811,2.48c1.861,0.781,3.61,1.884,5.5,2.247
		c10.088,1.938,16.074,9.602,22.814,16.172c1.791,1.746,2.338,4.372,3.141,6.719c3.386,9.898,4.093,20.172,3.868,30.512
		c-0.199,9.144-1.003,18.274-0.53,27.433c0.032,0.63-0.281,1.278-0.409,1.817c-2.106,1.722-4.473,1.461-6.773,1.451
		c-16.158-0.071-32.315-0.169-48.473-0.223c-2.994-0.01-5.989,0.165-8.984,0.208c-2.483,0.036-5.033,0.275-7.296-1.908
		c-0.944-2.834-0.401-6-0.412-9.125c-0.032-9.315,0.45-18.638-0.763-27.929c-0.78-5.971-3.676-10.982-6.907-15.825
		c-0.96-1.439-2.13-3.048-4.239-3.154l0.055,0.077c-0.701-1.356-1.752-1.666-3.115-1.039l0.109,0.077
		c-1.573-2.619-4.257-1.915-6.518-1.95c-10.825-0.168-21.654-0.156-32.481-0.205c-17.988-0.081-35.977-0.142-53.965-0.259
		c-2.984-0.019-5.968-0.423-8.951-0.405c-6.644,0.04-8.248,1.672-8.297,8.247c-0.101,13.491-0.166,26.982-0.247,40.472
		c-0.04,6.792-3.155,10.154-9.955,10.213c-10.155,0.089-20.312-0.1-30.468-0.106c-7.662-0.004-15.324,0.136-22.986,0.131
		c-6.029-0.004-7.745-1.473-7.965-7.609c-0.251-6.988-0.078-13.992-0.054-20.989c0.007-1.993,0.199-3.986,0.199-5.979
		c0.011-54.145,0.016-108.29-0.01-162.436c-0.001-2.675,0.188-5.316,0.572-7.955c0.357-2.455,1.778-3.836,4.193-4.274
		c3.785-0.686,7.611-0.75,11.439-0.75c61.476-0.004,122.951,0.009,184.427-0.019c7.314-0.003,14.596-0.266,21.796,1.647
		c9.784,2.6,18.683,7.031,26.726,13.003c10.067,7.474,15.358,18.131,18.424,30.007c0.995,3.856,1.92,7.747,2.057,11.762
		c0.024,0.711,0.199,1.283,0.994,1.448c0,0.333,0,0.667,0,1c-0.729,0.183-1.034,0.684-1.034,1.401
		c-0.002,4.066-0.002,8.132,0,12.199c0,0.717,0.306,1.217,1.035,1.401C1470,78.667,1470,79.333,1470,80z M1326.477,54.851
		c-16.148,0-32.297-0.015-48.445,0.008c-5.808,0.009-7.015,1.198-7.016,7.03c-0.002,8.988,0.111,17.976,0.133,26.964
		c0.009,3.661-0.24,7.327-0.101,10.981c0.138,3.645,1.554,5.051,5.221,5.327c2.473,0.186,4.973-0.009,7.461-0.01
		c28.467-0.003,56.935,0.001,85.402-0.008c1.996-0.001,3.996-0.021,5.987-0.139c12.347-0.735,21.658-9.568,22.864-21.652
		c1.378-13.818-5.558-24.291-18.156-27.668c-2.96-0.794-5.919-0.814-8.9-0.82C1356.11,54.834,1341.293,54.851,1326.477,54.851z"/>
	<path style="fill:#DC2D27;" d="M310,220c-0.086-2.516-2.165-2.067-3.64-2.353c-8.512-1.65-16.754-4.156-24.699-7.63
		c-5.981-2.615-11.46-6.023-16.445-10.256c-1.987-1.687-2.947-3.544-1.885-6.327c1.564-1.746,3.846-2.117,6.188-2.272
		c1.161-0.077,2.332-0.016,3.498-0.016c76.473,0,152.946,0,229.42,0.002c1.499,0,3.026-0.142,4.49,0.095
		c2.278,0.368,4.889,0.632,5.78,3.218c0.937,2.718-0.55,4.859-2.582,6.515c-2.318,1.889-4.673,3.76-7.171,5.398
		c-6.6,4.328-13.916,7.027-21.531,8.909c-6.1,1.508-12,4.032-18.465,3.783c-0.581-0.022-0.805,0.45-0.958,0.933
		C411.333,220,360.667,220,310,220z"/>
	<path style="fill:#F3C5B3;" d="M314.944,0.826C314.964,0.551,314.983,0.276,315,0c47.667,0,95.333,0,143,0
		c0.038,0.26,0.06,0.522,0.064,0.785c-1.823,0.069-3.646,0.197-5.469,0.197c-33.751,0.012-67.501,0.023-101.252,0.001
		C339.21,0.976,327.077,0.882,314.944,0.826z"/>
	<path style="fill:#DE4532;" d="M860.077,212.742c-3.938,1.888-1.52,4.72-1.077,7.258c-2,0-4,0-6,0
		c0.097-1.26,0.22-2.518,0.282-3.78c0.044-0.898-0.306-1.52-1.333-1.508c-0.002-0.262,0.11-0.43,0.338-0.503
		c2.066,0.374,1.375-2.528,2.942-2.544c1.883-0.853,3.268,0.423,4.814,0.774L860.077,212.742z"/>
	<path style="fill:#F3C5B3;" d="M0.844,56.051C0.561,56.061,0.28,56.044,0,56c0-15.333,0-30.667,0-46
		c0.288-0.018,0.576-0.034,0.864-0.046C0.857,25.32,0.851,40.686,0.844,56.051z"/>
	<path style="fill:#F3C5B3;" d="M0,173c0.269-0.073,0.542-0.092,0.818-0.057c0.277,5.991,0.335,11.981-0.032,17.971
		C0.518,190.889,0.256,190.918,0,191C0,185,0,179,0,173z"/>
	<path style="fill:#EA9479;" d="M1470,78c-0.729-0.183-1.034-0.684-1.035-1.401c-0.002-4.066-0.002-8.132,0-12.199
		c0-0.717,0.306-1.217,1.034-1.401C1470,68,1470,73,1470,78z"/>
	<path style="fill:#EA9479;" d="M0,191c0.256-0.082,0.518-0.111,0.786-0.086c0.392,4.001,0.226,8.006,0.1,12.011
		C0.591,202.954,0.296,202.979,0,203C0,199,0,195,0,191z"/>
	<path style="fill:#E46D50;" d="M0,203c0.296-0.021,0.591-0.046,0.886-0.075c0.002,3.408,0.003,6.816,0.005,10.224
		C0.599,213.071,0.302,213.021,0,213C0,209.667,0,206.333,0,203z"/>
	<path style="fill:#DB2927;" d="M852.287,214.209c-0.227,0.073-0.34,0.241-0.338,0.503c-1.535,2.287-3.906,2.148-6.227,2.133
		c-11.496-0.076-22.991-0.235-34.487-0.223c-19.995,0.02-39.991,0.119-59.985,0.256c-2.535,0.017-4.999-0.263-7.389-0.97
		c-2.765-0.819-5.048-2.392-6.845-4.75c-14.724-19.317-28.502-39.321-42.854-58.908c-18.301-24.977-36.588-49.965-54.923-74.918
		c-3.182-4.331-4.065-4.499-8.81-2.538c-0.118,0.522-0.417,1.163-0.381,1.785c0.911,15.608,0.792,31.374,3.1,46.776
		c2.28,15.219,1.921,30.418,2.564,45.615c0.647,15.304,0.209,30.655,0.23,45.985c0,0.311-0.212,0.622-0.327,0.931
		c-1.067,1.411-2.613,1.253-4.106,1.25c-21.998-0.044-43.997-0.09-65.995-0.138c-1.166-0.003-2.346,0.083-3.496-0.06
		c-2.749-0.343-3.852-1.57-3.618-4.337c0.972-11.476,0.391-22.97,0.409-34.452c0.082-54.166,0.04-108.333,0.025-162.499
		c-0.001-2.324,0.18-4.653-0.297-6.976c-0.383-1.865-0.049-3.643,1.363-5.101c1.346-0.957,2.894-0.555,4.351-0.556
		c34-0.023,68,0.014,101.999-0.052c5.13-0.01,8.652,1.618,11.218,6.496c2.53,4.81,6.244,9.008,9.524,13.412
		c28.44,38.18,56.187,76.864,84.143,115.395c1.662,2.291,3.412,4.518,5.146,6.756c1.907,2.461,4.196,3.061,7.394,1.147
		c-0.884-15.702-1.913-31.566-2.635-47.444c-0.726-15.954-0.979-31.929-1.741-47.88c-1.146-23.964-0.766-43.27,1.386-47.847
		c7.007,0,14.156,0,21.304,0c13.829,0,27.657-0.002,41.486,0.002c1.499,0,3.01-0.076,4.496,0.076
		c3.754,0.382,4.924,1.642,5.165,5.375c0.054,0.83,0.019,1.666,0.019,2.499c0.001,65.833,0.006,131.666-0.027,197.499
		C853.127,210.383,853.714,212.462,852.287,214.209z"/>
	<path style="fill:#DB2A27;" d="M860.077,212.742l-0.034-0.302c1.815-1.522,3.154-3.397,4.16-5.532
		c2.671-5.67,6.811-10.644,8.047-17.001c0.087-0.449,0.518-0.847,0.831-1.235c5.774-7.196,9.506-15.601,13.756-23.666
		c27.264-51.728,55.845-102.744,83.34-154.347c2.832-5.316,6.725-7.618,12.787-7.582c28.488,0.17,56.977,0.159,85.465,0.005
		c5.69-0.031,9.165,2.147,11.863,7.175c27.881,51.956,55.935,103.819,83.926,155.716c8.272,15.337,16.499,30.699,24.74,46.053
		c0.461,0.859,0.861,1.751,1.299,2.647c-4.629,1.566-48.321,2.224-77.565,1.202c-2.983-2.228-4.361-5.809-5.724-9.281
		c-3.221-8.204-7.377-15.98-10.785-24.092c-1.041-2.478-2.723-3.662-5.345-3.65c-1,0.005-1.999-0.003-2.999-0.003
		c-41.317,0-82.634,0.066-123.95-0.096c-4.421-0.017-6.976,1.266-8.968,5.284c-3.682,7.428-8.177,14.437-11.646,22
		c-1.071,2.335-2.667,4.441-4.118,6.587c-1.504,2.225-3.767,3.249-6.37,3.364c-2.655,0.118-5.32,0.02-7.981,0.013
		c-18.158-0.05-36.315-0.102-54.473-0.151c-2.977-0.008-5.955-0.001-8.885-0.001C860.391,215.032,860.08,213.953,860.077,212.742z
		 M1070.949,129.724c-0.107-2.047-1.034-3.625-1.859-5.23c-2.047-3.985-4.008-8.019-6.202-11.923
		c-8.71-15.502-16.823-31.267-22.326-48.256c-1.072-3.31-2.506-6.507-4.24-9.552c-1.162-2.041-2.487-3.95-4.301-5.453
		c-2.662-2.206-5.514-2.766-8.789-1.197c-4.077,1.953-7.02,4.99-9.093,8.907c-1.869,3.531-3.312,7.266-4.136,11.17
		c-2.18,10.322-6.102,19.944-11.119,29.187c-4.593,8.46-9.033,17.004-13.464,25.55c-0.971,1.872-2.253,3.696-2.157,5.762
		c1.118,2.56,3.244,2.438,5.215,2.442c5.159,0.011,10.319-0.118,15.478-0.123c20.312-0.017,40.624,0.008,60.936-0.031
		C1066.821,130.971,1068.912,131.542,1070.949,129.724z"/>
	<path style="fill:#DB2A27;" d="M0.891,213.149c-0.002-3.408-0.003-6.816-0.005-10.224c0.127-4.005,0.292-8.01-0.1-12.011
		c0.366-5.99,0.308-11.98,0.032-17.971c0.061-1.161,0.174-2.323,0.174-3.484c0.009-36.807,0.009-73.613,0.001-110.42
		c0-0.996-0.097-1.991-0.149-2.987C0.851,40.686,0.857,25.32,0.864,9.954c1.127-5.83,2.335-6.929,8.332-6.935
		C21.86,3.008,34.524,3.151,47.189,3.144c58.162-0.032,116.323-0.092,174.485-0.146c2.826-0.003,5.736-0.337,8.49,2.99
		c0.043,9.472,0.081,19.75-0.172,30.032c0.038,0.867,0.077,1.734,0.115,2.601c0.097,3.162,0.375,6.331,0.242,9.483
		c-0.149,3.541-1.442,4.708-4.952,5.008c-1.324,0.113-2.663,0.043-3.996,0.043c-41.649,0.001-83.299,0.007-124.948-0.006
		c-5.163-0.002-10.326-0.185-15.487-0.126c-6.328,0.071-8.217,1.999-7.777,8.141c0.572,7.978,0.684,15.94-0.014,23.912
		c-0.101,1.157-0.074,2.334-0.007,3.497c0.238,4.173,1.984,5.934,6.203,6.258c0.994,0.076,1.998,0.014,2.998,0.014
		c42.816,0,85.631-0.019,128.447,0.047c2.648,0.004,5.254-0.672,7.933-0.18c3.776,0.694,4.979,1.713,5.058,5.479
		c0.091,4.324-0.198,8.655-0.182,12.982c0.028,7.493,0.137,14.986,0.264,22.478c0.115,6.761-1.305,8.344-7.981,8.338
		c-22.655-0.02-45.309-0.11-67.964-0.135c-22.82-0.025-45.639-0.014-68.459,0.02c-1.63,0.002-3.324-0.153-4.783,0.532
		c-1.26,1.102-1.079,2.482-1.092,3.798c-0.155,15.315-0.349,30.63-0.427,45.945c-0.024,4.651,0.289,9.302,0.414,13.955
		c0.04,1.492-0.081,2.96-0.364,4.455c-0.474,2.507-1.961,3.782-4.295,4.212c-1.136,0.209-2.321,0.239-3.482,0.219
		c-19.148-0.343-38.295-0.398-57.443,0.005C4.935,217.058,1.893,216.97,0.891,213.149z"/>
	<path style="fill:#DC2E28;" d="M314.944,0.826c12.133,0.055,24.267,0.15,36.4,0.158c33.751,0.022,67.501,0.011,101.252-0.001
		c1.823-0.001,3.646-0.129,5.469-0.197c9.277,0.774,18.458,1.907,27.357,4.956c9.916,3.397,18.553,8.815,26.427,15.591
		c1.78,1.531,3.453,3.157,2.671,6.194c-3.566-0.053-6.708,1.317-9.815,2.846c-0.711,0.35-1.619,0.509-2.414,0.451
		c-13.446-0.99-26.888,0.067-40.331,0.041c-48.934-0.097-97.868-0.186-146.803-0.225c-8.65-0.007-17.3,0.229-25.95,0.373
		c-3.183,0.053-6.402-0.036-9.343-1.247c-6.098-2.511-12.3-2.299-18.603-1.305c-0.456,0.072-0.955-0.127-1.572-0.221
		c-1.721-2.093-0.581-3.433,1.067-4.909c8.143-7.293,17.284-12.872,27.612-16.503C296.997,3.792,305.666,0.972,314.944,0.826z"/>
	<path style="fill:#DC3028;" d="M247.491,39.048c4.361-0.312,8.475-0.697,12.636-0.699c83.459-0.043,166.918-0.13,250.376-0.209
		c3.162-0.003,6.327-0.105,9.484,0.018c3.369,0.131,6.135,1.672,7.944,4.498c3.061,4.781,5.148,10.043,6.945,15.402
		c0.522,1.556,0.596,3.28-0.255,4.941c-1.862,1.55-4.139,1.855-6.503,1.861c-22.322,0.051-44.643,0.079-66.965,0.182
		c-2.233,0.01-3.849-0.702-5.016-2.58c-5.078-8.169-12.979-11.244-22.036-11.436c-26.974-0.572-53.954-0.624-80.934-0.186
		c-3.664,0.06-7.33,0.046-10.995,0.012c-6.508-0.06-12.454,1.707-17.875,5.31c-1.104,0.734-2.207,1.355-2.85,2.638
		c-2.384,4.757-6.519,6.241-11.564,6.228c-18.492-0.051-36.983-0.02-55.475-0.02c-3.498,0-7,0.089-10.495-0.025
		c-4.02-0.131-5.511-1.896-4.535-5.781C241.125,52.264,243.444,45.513,247.491,39.048z"/>
	<path style="fill:#DC3229;" d="M535.101,156.114c-1.191,9.022-2.635,17.967-10.396,24.623c-2.056,0.589-4.394,0.1-6.698,0.101
		c-86.661,0.032-173.323-0.076-259.983,0.223c-6.989,0.024-10.837-2.496-13.708-8.149c-1.654-3.256-3.585-6.372-4.681-9.891
		c-1.527-4.904-0.111-7.29,5.008-7.959c3.123-0.409,6.29-0.651,9.438-0.662c17.999-0.061,35.998,0.048,53.996-0.079
		c5.143-0.036,9.182,1.047,12.414,5.651c4.122,5.871,10.693,7.645,17.563,7.978c4.989,0.242,9.994,0.185,14.992,0.179
		c26.821-0.032,53.643-0.1,80.464-0.135c9.175-0.012,17.089-2.605,22.213-10.837c1.202-1.931,2.944-2.586,5.006-2.759
		c0.993-0.083,1.999-0.027,2.998-0.027c21.499-0.001,42.997-0.009,64.496,0.012C530.349,154.383,532.589,153.954,535.101,156.114z"
		/>
	<path style="fill:#DC2E28;" d="M237.412,141.738c-2.937-2.606-3.285-6.192-2.956-9.006c0.443-3.795-0.397-7.247-0.846-10.82
		c-0.282-2.24-0.34-4.292,1.322-6.338c2.58-1.269,5.564-1.418,8.55-1.421c20.832-0.019,41.664-0.026,62.495,0.001
		c5.273,0.007,6.057,0.921,8.097,5.588c2.745,6.28,1.745,12.781,1.697,19.214c-0.022,3.023-2.635,4.827-6.431,4.946
		c-4.16,0.131-8.325,0.089-12.489,0.094c-9.996,0.012-19.997,0.218-29.985-0.057c-8.472-0.233-16.881-1.787-25.407-1.386
		C240.029,142.623,238.565,141.986,237.412,141.738z"/>
	<path style="fill:#DC3028;" d="M237.469,77.747c3.929-1.096,69.43-1.377,75.329-0.37c1.363,1.123,1.851,2.616,1.604,4.379
		c-0.742,5.29-0.445,10.614-0.557,15.925c-0.095,4.526-1.444,5.971-6.028,5.979c-22.28,0.037-44.56,0.02-66.84-0.064
		c-4.909-0.019-5.981-1.405-5.936-6.386C235.102,90.585,235.23,83.984,237.469,77.747z"/>
	<path style="fill:#DC3028;" d="M463.299,116.267c2.41-0.599,5.026-0.905,7.704-0.902c19.832,0.022,39.663,0.011,59.495,0.015
		c1.165,0,2.344-0.062,3.493,0.089c2.379,0.312,3.923,1.496,4.299,4.08c0.772,5.303,0.879,10.626,0.331,15.927
		c-0.341,3.302-2.388,5.247-5.762,6.017c-3.31,0.755-6.64,0.6-9.942,0.619c-18.66,0.106-37.32,0.08-55.981,0.037
		c-6.018-0.014-7.772-1.795-6.768-7.494c0.731-4.149,0.566-8.285,0.802-12.424C461.097,120.03,461.169,117.882,463.299,116.267z"/>
	<path style="fill:#DC2D27;" d="M499.224,76.864c10.145,0,20.289,0.007,30.434-0.003c6.319-0.006,8.259,1.828,8.461,8.278
		c0.11,3.49,0.112,6.988,0.02,10.478c-0.133,5.08-1.827,6.959-6.773,7.387c-3.798,0.329-7.619,0.592-11.428,0.576
		c-10.964-0.045-21.927,0.198-32.895-0.338c-5.952-0.291-11.944,0.281-17.919,0.425c-6.722,0.162-8.324-1.478-8.189-8.005
		c0.075-3.655-0.093-7.314-0.088-10.97c0.009-6.512,1.032-7.615,7.436-7.678c7.485-0.073,14.971-0.018,22.456-0.018
		c2.828,0,5.656,0,8.484,0C499.224,76.952,499.224,76.908,499.224,76.864z"/>
	<path style="fill:#DF5139;" d="M1384.019,158.891c-0.913,1.112,0.085,1.744,0.636,2.471c1.153,1.521,1.62,3.172,1.064,5.055
		c-3.816-1.416-4.219-1.903-6.268-7.572c0.304-0.733,1.029-0.655,1.617-0.84l-0.109-0.077c0.728,1.276,1.663,1.931,3.115,1.039
		L1384.019,158.891z"/>
	<path style="fill:#DE4532;" d="M230.106,38.621c-0.038-0.867-0.077-1.734-0.115-2.601c1.684,1.268,3.436-1.357,5.142,0.123
		c1.214,1.162,1.871,2.554,1.597,4.276C233.711,42.317,232.056,39.951,230.106,38.621z"/>
</g>
</svg>
