<?xml version="1.0" encoding="iso-8859-1"?>
<!-- Generator: Adobe Illustrator 27.0.0, SVG Export Plug-In . SVG Version: 6.00 Build 0)  -->
<svg version="1.1" id="Layer_1" xmlns="http://www.w3.org/2000/svg" xmlns:xlink="http://www.w3.org/1999/xlink" x="0px" y="0px"
	 viewBox="0 0 1630 527" style="enable-background:new 0 0 1630 527;" xml:space="preserve">
<g>
	<path style="fill:#F06926;" d="M502,0c0.104,1.319,0.299,2.638,0.3,3.957c0.017,37.992,0.018,75.985-0.002,113.977
		c-0.001,1.465,0.329,2.986-0.603,4.806c-54.565,0-109.32,0-164.358,0c-10.509,27.145-20.916,54.025-31.586,81.585
		c65.724,0,130.938,0,196.357,0c0,41.044,0,81.506,0,122.676C334.777,327,167.389,327,0,327c0-41,0-82,0-123
		c1.275,0.573,2.628,0.338,3.946,0.339c55.157,0.012,110.314,0.012,165.471-0.003c1.136,0,2.34,0.304,3.387-0.447
		c0.71-0.749,0.97-1.707,1.33-2.641c24.535-63.642,49.113-127.268,73.578-190.937C248.996,6.967,251.042,3.793,251,0
		C334.667,0,418.333,0,502,0z"/>
	<path style="fill:#343D41;" d="M1628.95,312.86c-1.83,0.048-3.659,0.137-5.489,0.137c-50.985,0.008-101.969,0.002-152.954,0.022
		c-1.808,0.001-3.65-0.304-5.829,0.4c0.383,8.786,2.629,17.139,6.072,25.228c8.265,19.418,22.686,31.452,43.564,34.624
		c20.563,3.124,39.818,0.037,55.571-15.188c5.62-5.432,9.5-11.925,12.077-19.251c0.273-0.776,0.585-1.539,0.897-2.3
		c0.059-0.143,0.206-0.251,0.474-0.562c14.618,0,29.397,0,44.599,0c0.173,3.256-1.024,6.161-1.943,9.043
		c-9.196,28.818-28.496,47.867-56.826,57.751c-15.85,5.53-32.283,7.346-49.109,6.566c-13.904-0.644-27.461-2.718-40.389-7.848
		c-26.338-10.452-44.921-28.98-54.379-55.646c-10.203-28.768-10.854-58.099-0.451-87.013c10.967-30.481,32.384-50.443,63.416-59.958
		c24.542-7.525,49.328-7.584,73.704-0.217c31.629,9.559,51.804,31.269,61.836,62.521c2.795,8.708,4.664,17.663,5.231,26.839
		c0.049,0.798-0.1,1.698,0.978,1.993c0,0.667,0,1.333,0,2c-1.769,0.721-0.989,2.262-1.004,3.447
		C1628.922,301.251,1628.955,307.056,1628.95,312.86z M1582.938,282.069c0.661-3.732-0.218-6.97-0.957-10.157
		c-4.014-17.293-13.129-30.739-29.683-38.281c-11.652-5.309-23.855-6.425-36.536-4.848c-22.509,2.799-37.464,15.006-45.577,35.848
		c-2.133,5.48-3.843,11.193-4.211,17.438C1505.077,282.069,1543.821,282.069,1582.938,282.069z"/>
	<path style="fill:#F06926;" d="M49,527c12.898-33.413,25.8-66.824,38.691-100.239c2.862-7.42,5.684-14.855,8.575-22.414
		c44.218,0,88.282,0,133.004,0C213.426,445.457,197.713,486.229,182,527C137.667,527,93.333,527,49,527z"/>
	<path style="fill:#696B6E;" d="M1628.95,312.86c0.005-5.804-0.028-11.609,0.046-17.413c0.015-1.185-0.766-2.726,1.004-3.447
		c0,7,0,14,0,21C1629.65,312.953,1629.3,312.907,1628.95,312.86z"/>
	<path style="fill:#333D41;" d="M1205.13,419.232c14.827,0,29.586,0,44.471,0c2.16,6.593,5.016,12.721,9.846,17.726
		c6.081,6.302,13.62,10.056,22.016,12.004c14.508,3.366,29.051,3.41,43.416-0.785c18.396-5.372,28.371-18.004,31.307-36.713
		c1.329-8.468,0.726-16.953,0.878-25.433c0.104-5.825,0.02-11.654,0.02-17.573c-1.776,0.14-2.047,1.638-2.746,2.577
		c-13.259,17.827-31.068,27.52-53.026,30.049c-14.357,1.654-28.542,1.483-42.504-2.744c-27.949-8.461-46.939-26.75-56.612-53.936
		c-10.99-30.888-11.441-62.303-0.14-93.318c9.078-24.916,26.01-42.614,51.115-51.902c8.436-3.121,17.248-4.693,26.265-5.397
		c12.59-0.983,24.967,0.012,36.978,3.733c15.709,4.866,28.55,14.017,38.291,27.37c0.475,0.652,0.988,1.276,2.169,2.796
		c0.338-3.899,0.182-6.895,0.206-9.872c0.027-3.333,0.006-6.666,0.006-9.998c0-3.125,0-6.25,0-9.588c15.015,0,29.62,0,44.362,0
		c1.014,0.787,0.533,2.05,0.533,3.142c0.017,66.823,0.071,133.646-0.043,200.469c-0.03,17.525-4.561,33.842-14.797,48.306
		c-9.743,13.768-22.975,22.926-38.639,28.702c-12.892,4.754-26.269,7.044-40.004,7.33c-14.858,0.31-29.622-0.392-44.072-4.217
		c-17.413-4.61-32.885-12.544-44.52-26.753c-8.199-10.013-12.802-21.637-14.855-34.334
		C1204.977,420.417,1205.09,419.932,1205.13,419.232z M1359.214,296.685c0.353-7.692-0.83-16.412-3.297-24.918
		c-4.796-16.533-14.063-29.686-29.84-37.384c-9.746-4.756-20.239-6.153-31.057-5.585c-22.089,1.16-38.056,11.543-47.614,31.497
		c-3.829,7.993-5.774,16.54-6.771,25.364c-1.687,14.927-0.639,29.561,4.365,43.758c5.77,16.37,16.26,28.439,32.925,34.381
		c10.384,3.703,21.09,4.189,31.947,2.421c19.105-3.112,32.936-13.344,41.495-30.668
		C1357.228,323.686,1359.402,311.018,1359.214,296.685z"/>
	<path style="fill:#343E41;" d="M859.482,162.903c-48.51,0-96.896,0-145.461,0c0,22.797,0,45.085,0,67.982
		c43.098,0,86.289,0,129.636,0c0,13.687,0,26.764,0,40.195c-43.153,0-86.08,0-128.534,0c-0.606,0.454-0.757,0.537-0.867,0.659
		c-0.103,0.114-0.179,0.262-0.237,0.407c-0.062,0.153-0.115,0.319-0.125,0.482c-0.031,0.498-0.053,0.997-0.054,1.496
		c-0.023,42.993-0.044,85.986-0.076,128.979c0,0.139-0.157,0.278-0.452,0.767c-15.025,0-30.268,0-45.864,0
		c0-93.569,0-187.28,0-281.288c63.911,0,127.806,0,192.034,0C859.482,135.96,859.482,149.175,859.482,162.903z"/>
	<path style="fill:#343D41;" d="M1061.028,300.316c0.222,20.301-3.071,38.859-11.502,56.193
		c-11.507,23.657-30.259,39.144-55.142,47.392c-9.21,3.053-18.698,4.436-28.329,5.178c-13.526,1.043-26.967,0.331-40.115-2.911
		c-34.863-8.597-58.654-29.652-69.139-64.242c-9.461-31.212-8.87-62.464,4.356-92.601c13.143-29.947,36.83-47.044,68.663-53.374
		c9.669-1.923,19.408-2.937,29.234-2.626c21.09,0.666,41.178,5.104,59.079,16.904c19.321,12.736,31.263,30.868,37.782,52.766
		C1059.638,275.502,1061.297,288.337,1061.028,300.316z M1015.137,301.701c-0.054-4.506-0.258-8.967-0.971-13.436
		c-2.835-17.779-9.78-33.443-23.363-45.648c-14.501-13.03-31.369-17.208-49.996-11.47c-16.309,5.024-27.299,16.595-34.971,31.52
		c-8.931,17.375-11.101,35.856-7.666,54.815c3.421,18.885,11.833,35.218,27.754,46.878c11.268,8.251,23.988,11.604,37.686,9.428
		c14.204-2.256,25.675-9.751,34.519-21.057C1009.839,337.761,1015.005,320.551,1015.137,301.701z"/>
	<path style="fill:#333D41;" d="M1076.794,198.216c14.794,0,29.095,0,43.845,0c0,10.834,0,21.582,0,32.329
		c16.389-28.15,40.953-37.719,72.227-33.68c0,14.517,0,28.597,0,43.155c-6.798-0.752-13.375-1.426-19.992-1.031
		c-10.621,0.634-20.696,3.033-29.547,9.218c-9.902,6.92-15.339,16.9-18.264,28.265c-3.42,13.29-4.49,26.859-3.508,40.568
		c0.059,0.829,0.031,1.665,0.031,2.498c0.001,26.987,0.004,53.974-0.009,80.961c0,1.146,0.245,2.335-0.359,3.424
		c-3.361,0.964-37.629,1.249-44.424,0.323C1076.794,335.746,1076.794,267.2,1076.794,198.216z"/>
</g>
</svg>
