<?xml version="1.0" encoding="iso-8859-1"?>
<!-- Generator: Adobe Illustrator 27.0.0, SVG Export Plug-In . SVG Version: 6.00 Build 0)  -->
<svg version="1.1" id="Layer_1" xmlns="http://www.w3.org/2000/svg" xmlns:xlink="http://www.w3.org/1999/xlink" x="0px" y="0px"
	 viewBox="0 0 1459 230" style="enable-background:new 0 0 1459 230;" xml:space="preserve">
<g>
	<path style="fill:#111213;" d="M543,0c4.116,1.964,5.207,5.384,4.757,9.638c-0.84,7.95-0.757,15.925-0.477,23.899
		c0.111,3.151,0.459,6.299,0.432,9.447c-0.046,5.396-1.752,7.176-7.229,7.246c-6.491,0.082-12.987-0.207-19.48-0.218
		c-21.329-0.037-42.659-0.023-63.988-0.024c-1.165,0-2.351-0.087-3.492,0.094c-3.566,0.565-5.216,2.366-5.496,6.017
		c-0.114,1.488-0.085,3.008,0.076,4.492c0.865,7.964,0.89,15.92-0.021,23.881c-0.113,0.989-0.12,2-0.069,2.995
		c0.215,4.203,1.57,5.633,5.856,5.753c4.662,0.13,9.331,0.045,13.997,0.032c19.826-0.053,39.652-0.115,59.479-0.173
		c1.666-0.005,3.334-0.046,4.999,0.008c6.01,0.195,8.096,2.194,7.883,8.308c-0.312,8.994-0.281,17.985-0.217,26.978
		c0.02,2.828,0.31,5.662,0.18,8.48c-0.173,3.753-1.785,5.366-5.485,5.838c-1.149,0.147-2.33,0.053-3.496,0.054
		c-22.996,0.002-45.992-0.039-68.987,0.052c-2.967,0.012-5.859-0.957-8.912-0.137c-3.641,0.978-4.882,1.847-5.215,5.532
		c-0.238,2.646-0.154,5.329-0.081,7.993c0.573,20.822,0.11,41.647,0.256,62.47c0.007,0.997-0.023,1.997-0.098,2.991
		c-0.199,2.671-1.551,4.036-4.277,4.666c-2.56,0.591-4.968-0.028-7.422-0.097c-12.987-0.365-25.967-0.15-38.952,0.033
		c-9.485,0.133-10.388-0.736-10.244-10.088c0.937-60.973,0.247-121.949,0.428-182.924c0.023-7.65-0.284-15.301-0.453-22.951
		c-0.041-1.843,0.127-3.635,0.635-5.428c0.727-2.565,2.191-4.035,4.967-3.934c4.396,0.013,8.792,0.026,13.189,0.038
		c41.651,0.013,83.301,0.035,124.952-0.006C532.325,0.953,534.034,1.818,535,0C537.667,0,540.333,0,543,0z"/>
	<path style="fill:#121313;" d="M1459,91c-1.761,2.727-4.3,3.938-7.509,3.936c-13.991-0.01-27.983,0.053-41.973-0.036
		c-3.743-0.024-7.276-1.243-10.031-3.834c-4.122-3.876-8.588-6.242-14.411-4.587c-6.861,1.95-12.385,5.535-15.282,12.384
		c-1.763,4.168-2.823,8.481-2.873,13.025c-0.316,28.479-0.231,56.959-0.007,85.438c0.057,7.162,0.061,14.326-0.008,21.488
		c-0.056,5.865-2.025,7.881-7.867,7.622c-14.97-0.664-29.937-0.387-44.906-0.167c-1.332,0.02-2.666,0.014-3.996-0.05
		c-2.518-0.121-4.044-1.371-4.231-3.971c-0.107-1.491-0.172-2.989-0.173-4.484c-0.011-18.989-0.265-37.983,0.049-56.967
		c0.568-34.304-0.469-68.603-0.055-102.904c0.028-2.311-0.222-4.659,0.679-6.71c1.813-1.886,3.958-1.955,6.152-1.937
		c6.649,0.053,13.293,0.188,19.94,0.38c8.636,0.249,17.293-0.218,25.941-0.372c0.999-0.018,2.002-0.052,2.998,0.008
		c4.434,0.267,5.553,1.479,5.471,5.861c-0.037,1.995-0.095,3.989-0.101,5.983c-0.001,0.247,0.264,0.495,0.578,1.042
		c1.36-1.783,2.631-3.458,3.913-5.125c7.702-10.021,18.015-15.246,30.395-17.121c8.177-1.238,16.303-1.1,24.332,0.298
		c12.469,2.171,21.424,9.334,26.898,20.747c2.823,5.884,4.292,12.164,5.056,18.623c0.105,0.89-0.395,2.075,1.022,2.428
		C1459,85,1459,88,1459,91z"/>
	<path style="fill:#E7BFB7;" d="M0,203C0,145.667,0,88.333,0,31c0.301-0.008,0.6,0.008,0.899,0.049
		c0.033,1.831,0.094,3.662,0.094,5.493c0.005,51.973,0.006,103.946,0,155.918c0,3.497-0.061,6.994-0.094,10.49
		C0.6,202.992,0.301,203.008,0,203z"/>
	<path style="fill:#6C6969;" d="M535,0c-0.966,1.818-2.675,0.953-4.009,0.954C489.341,0.995,447.69,0.973,406.04,0.96
		C405.981,0.642,405.968,0.322,406,0C449,0,492,0,535,0z"/>
	<path style="fill:#D78E86;" d="M0.899,31.049C0.6,31.008,0.301,30.992,0,31c0-8,0-16,0-24c0.311,0.058,0.615,0.033,0.913-0.074
		C0.908,14.967,0.903,23.008,0.899,31.049z"/>
	<path style="fill:#D78E86;" d="M0,203c0.301,0.008,0.6-0.008,0.899-0.049c-0.01,6.718-0.02,13.436-0.03,20.154
		c-0.29-0.03-0.58-0.065-0.869-0.104C0,216.333,0,209.667,0,203z"/>
	<path style="fill:#AAA7A8;" d="M1191,230c0.005-0.287-0.02-0.571-0.075-0.853c6.046-0.008,12.093-0.016,18.139-0.025
		c-0.098,0.287-0.119,0.58-0.064,0.878C1203,230,1197,230,1191,230z"/>
	<path style="fill:#424140;" d="M406,0c-0.032,0.322-0.019,0.642,0.04,0.96c-4.396-0.013-8.792-0.026-13.189-0.038
		C392.963,0.625,393.013,0.317,393,0C397.333,0,401.667,0,406,0z"/>
	<path style="fill:#AAA7A8;" d="M652.053,229.098c-0.147,0.293-0.164,0.594-0.053,0.902c-3.667,0-7.333,0-11,0
		c0.055-0.298,0.033-0.591-0.064-0.878C644.642,229.114,648.347,229.106,652.053,229.098z"/>
	<path style="fill:#BA213B;" d="M328.393,113.139c4.495,1.436,8.441,2.594,12.314,3.958c5.344,1.883,10.499,4.133,14.816,7.985
		c6.272,5.597,8.34,13.112,9.3,20.951c1.665,13.598,1.696,27.201-0.827,40.752c-2.632,14.133-8.958,25.628-22.247,32.44
		c-6.154,3.154-12.759,4.658-19.509,5.695c-7.095,1.09-14.249,1.246-21.413,1.244c-39.156-0.011-78.312-0.004-117.467-0.007
		c-8.385-0.001-9.512-1.066-9.508-9.473c0.034-63.147,0.1-126.295,0.144-189.442c0.004-5.83-0.208-11.662-0.076-17.488
		c0.129-5.736,1.64-7.027,7.273-8.084c3.056-0.573,5.956,0.167,8.928,0.168c13.496,0.004,27.008,0.42,40.485-0.093
		c21.814-0.831,43.594,0.34,65.387,0.517c11.107,0.09,22.203,1.4,33.03,4.321c18.145,4.894,28.529,16.774,31.799,35.085
		c2.482,13.901,2.27,27.752-0.567,41.624c-2.893,14.146-11.319,22.898-24.998,26.891c-1.909,0.557-3.823,1.098-5.717,1.699
		C329.268,111.968,329.094,112.351,328.393,113.139z M266.006,131c-7.328,0-14.657-0.066-21.984,0.018
		c-7.519,0.086-9.364,1.746-9.314,9.016c0.047,6.835-0.693,13.61-1.001,20.416c-0.548,12.115,3.818,16.119,15.89,14.194
		c3.141-0.501,6.28-0.768,9.437-0.773c7.991-0.012,15.983,0.057,23.974,0.138c4.755,0.048,9.21-1.248,13.478-3.128
		c4.951-2.18,7.767-6.18,8.495-11.493c0.703-5.132,0.647-10.319-0.029-15.443c-0.879-6.669-4.87-10.654-11.552-12.013
		c-3.107-0.632-6.233-0.971-9.411-0.946C277.995,131.033,272,131,266.006,131z M265.01,51.868c0-0.149,0-0.298-0.001-0.447
		c-7.653,0-15.337,0.426-22.948-0.139c-5.757-0.427-8.275,2.325-7.727,7.807c0.86,8.603,0.8,17.274,0.045,25.901
		c-0.558,6.379,0.876,8.146,7.316,8.137c12.988-0.018,25.975-0.11,38.963-0.109c3.363,0,6.645-0.567,9.859-1.353
		c5.861-1.432,9.454-5.13,10.662-11.194c1.121-5.627,1.223-11.255,0.269-16.855c-1.41-8.277-4.978-11.434-13.469-11.699
		C280.331,51.68,272.668,51.868,265.01,51.868z"/>
	<path style="fill:#121313;" d="M1209.064,229.122c-6.046,0.008-12.093,0.016-18.139,0.025c-12.328-0.413-24.462-2.124-36.493-4.897
		c-23.967-5.524-37.923-20.762-43.251-44.297c-2.683-11.849-3.829-23.92-4.229-36.08c-0.4-12.165-0.142-24.293,1.155-36.385
		c1.008-9.406,2.063-18.848,5.149-27.855c6.909-20.162,21.231-32.064,41.817-36.508c19.304-4.167,38.895-5.154,58.552-3.824
		c10.919,0.739,21.767,2.304,32.332,5.482c20.945,6.3,33.128,20.58,37.955,41.5c3.118,13.512,3.891,27.295,4.094,41.118
		c0.056,3.829,0.305,7.659,0.231,11.484c-0.09,4.659-1.408,5.949-5.971,6.092c-2.829,0.088-5.665-0.048-8.498-0.051
		c-32.665-0.031-65.329-0.057-97.994-0.08c-6.423-0.005-7.429,1.417-7.105,8.181c0.288,5.986,0.392,11.928,2.139,17.751
		c3.696,12.315,11.225,18.098,24.041,18.312c7.052,0.118,13.942-0.964,20.633-3.028c7.067-2.181,10.933-7.165,11.598-14.589
		c0.519-5.788,2.108-7.358,7.783-7.376c15.494-0.049,30.988-0.046,46.482-0.002c5.611,0.016,6.665,1.141,6.648,6.779
		c-0.03,9.612-2.029,18.847-6.115,27.51c-5.643,11.965-15.393,19.318-27.682,23.603c-9.312,3.247-19.019,4.592-28.72,5.893
		C1220.042,228.608,1214.569,229.158,1209.064,229.122z M1226.118,109.553c3.444-10.221-2.148-22.193-12.466-25.362
		c-10.861-3.336-21.926-3.294-32.822,0.343c-3.753,1.253-6.828,3.53-8.739,7.008c-3.042,5.537-4.01,11.463-2.944,17.407
		c2.202,2.166,4.641,2.033,6.89,1.689c2.663-0.407,5.31-0.475,7.953-0.352c11.799,0.55,23.603,0.424,35.407,0.446
		C1221.719,110.738,1224.06,110.855,1226.118,109.553z"/>
	<path style="fill:#121313;" d="M753.138,164.294c19.191,0,38.302,0,57.568,0c1.46,0.827,1.975,2.29,2.286,4.019
		c0.556,3.097,1.163,6.203,2.042,9.22c1.517,5.209,4.98,8.317,10.362,9.62c8.52,2.063,17.115,2.201,25.772,1.672
		c3.484-0.213,6.973-0.434,10.438-0.838c5.533-0.646,10.818-2.48,11.936-11.054c0.505-3.878,0.072-7.68-0.86-11.364
		c-1.154-4.563-4.495-7.313-8.949-8.496c-4.986-1.324-10.095-2.026-15.266-2.061c-8.996-0.06-18.001,0.177-26.986-0.141
		c-14.815-0.525-29.393-2.516-43.403-7.789c-14.802-5.571-23.098-16.097-25.114-31.739c-1.799-13.964-2.024-27.866,2.107-41.476
		c5.414-17.837,17.682-27.701,35.955-30.904c16.422-2.878,32.968-4.093,49.572-4.615c6.958-0.219,13.97,0.301,20.916,0.936
		c10.253,0.939,20.433,2.422,30.531,4.577c24.328,5.192,33.593,23.754,32.848,44.948c-0.143,4.057-2.52,6.206-7.097,5.856
		c-14.97-1.144-29.942-0.238-44.911-0.362c-3.497-0.029-6.461-0.994-7.501-4.517c-1.961-6.644-7.031-8.766-13.082-9.729
		c-10.962-1.745-21.865-1.502-32.704,0.962c-6.055,1.376-7.757,3.228-8.26,9.461c-0.173,2.14-0.135,4.302,0.188,6.471
		c0.685,4.609,3.257,7.531,7.579,8.979c5.87,1.966,11.953,3.011,18.105,3.013c11.488,0.005,22.96,0.507,34.405,1.247
		c11.425,0.739,22.829,2.104,33.77,5.828c15.357,5.228,23.799,16.261,26.482,31.975c1.49,8.724,1.82,17.524,1.143,26.35
		c-2.177,28.366-17.558,42.138-38.678,48.646c-11.192,3.449-22.693,4.689-34.338,5.345c-12.645,0.713-25.292,0.91-37.921,0.332
		c-10.925-0.5-21.915-0.584-32.634-3.489c-20.28-5.495-31.916-19.176-37.426-38.827c-1.506-5.371-1.346-10.85-0.937-16.334
		C751.225,167.995,751.915,166.163,753.138,164.294z"/>
	<path style="fill:#111213;" d="M652.053,229.098c-3.706,0.008-7.412,0.016-11.118,0.024c-14.837-0.212-29.557-1.621-43.988-5.121
		c-22.13-5.368-35.162-19.745-39.878-41.732c-4.283-19.966-4.802-40.23-4.154-60.572c0.398-12.499,1.595-24.895,4.095-37.134
		c4.724-23.126,19.748-37.289,43.224-41.65c21.232-3.945,42.612-5.017,64.089-3.677c11.757,0.734,23.439,2.419,34.853,5.68
		c18.633,5.323,30.039,17.425,34.744,36.1c3.369,13.372,3.601,27,3.276,40.646c-0.178,7.49-0.039,14.935,0.452,22.414
		c0.534,8.139-0.348,16.295-1.095,24.398c-0.593,6.429-1.856,12.788-3.517,19.074c-5.153,19.498-17.517,31.619-37.023,36.316
		C681.588,227.338,666.906,229.024,652.053,229.098z M676.981,133.948c0.493-11.35-0.354-22.762-1.878-34.163
		c-1.684-12.604-8.628-19.364-21.327-19.901c-5.48-0.232-10.989-0.187-16.469,0.067c-11.302,0.523-17.739,6.045-20.387,16.927
		c-1.538,6.321-2.181,12.764-2.593,19.205c-1.033,16.125,0.034,32.241,0.794,48.344c0.154,3.26,1.12,6.55,2.139,9.688
		c2.329,7.175,7.301,11.918,14.605,13.642c9.346,2.205,18.867,2.083,28.207,0.037c6.759-1.48,11.485-5.804,13.54-12.601
		c0.668-2.209,1.215-4.449,1.533-6.776C676.705,157.021,677.433,145.593,676.981,133.948z"/>
	<path style="fill:#121314;" d="M1019.414,2.953c1.094,2.671,1.337,5.15,1.005,7.925c-0.369,3.089,0.28,6.287,0.307,9.439
		c0.054,6.316,0.179,12.638-0.509,18.939c-0.143,1.309-0.207,2.67-0.016,3.964c0.621,4.208,2.187,5.853,6.381,6.383
		c2.294,0.289,4.656,0.232,6.974,0.101c17.804-1.009,35.622-0.182,53.432-0.443c4.639-0.068,7.036,1.828,6.665,7.172
		c-0.717,10.308-0.893,20.567,0.037,30.869c0.446,4.937-1.288,6.657-6.205,6.997c-1.81,0.125-3.639-0.013-5.459-0.021
		c-17.82-0.083-35.64-0.268-53.459-0.177c-5.036,0.026-8.351,0.638-8.32,8.403c0.083,20.823-0.007,41.647,0.058,62.47
		c0.013,4.148,0.295,8.304,0.648,12.44c0.537,6.29,3.547,10.056,8.773,11.302c5.529,1.318,12.996-1.619,15.744-6.244
		c1.547-2.604,2.43-5.451,2.571-8.473c0.087-1.853,0.44-3.635,0.959-5.39c0.838-2.834,2.657-4.37,5.711-4.708
		c2.19-0.243,4.31,0.146,6.466,0.133c10.327-0.064,20.654-0.046,30.982-0.023c5.962,0.014,7.236,1.087,6.774,7.01
		c-0.722,9.249-1.039,18.577-3.955,27.532c-5.141,15.784-16.113,24.673-32.281,27.432c-13.973,2.384-28.048,3.456-42.22,2.927
		c-11.158-0.417-22.184-1.951-32.861-5.236c-16.908-5.203-26.097-17.576-27.379-36.332c-0.136-1.992-0.222-3.995-0.178-5.99
		c0.468-21.111-0.881-42.199-0.787-63.304c0.021-4.818-0.078-9.627,0.377-14.458c0.668-7.084-2.173-9.861-9.247-9.558
		c-2.655,0.114-5.288,0.393-7.951,0.026c-4.056-0.559-4.998-1.425-5.479-5.631c-0.188-1.646-0.193-3.315-0.239-4.974
		c-0.246-8.979,0.388-17.964-0.422-26.946c-0.443-4.918,1.698-7.105,6.624-7.331c3.154-0.145,6.324,0.046,9.476-0.125
		c4.776-0.26,6.333-1.903,6.7-6.804c0.124-1.657,0.136-3.325,0.138-4.988c0.012-9.464-0.051-18.928,0.027-28.391
		c0.049-5.956,1.845-7.747,7.812-7.768c15.487-0.056,30.974-0.005,46.46-0.035C1015.609,1.058,1017.498,1.413,1019.414,2.953z"/>
	<path style="fill:#BA223C;" d="M0.869,223.104c0.01-6.718,0.02-13.436,0.03-20.154c0.033-3.497,0.093-6.994,0.094-10.49
		c0.006-51.973,0.005-103.946,0-155.918c0-1.831-0.061-3.662-0.094-5.493c0.005-8.041,0.01-16.082,0.015-24.123
		c2.029-4.673,4.35-6.132,10.293-5.52c7.479,0.77,14.959,0.536,22.441,0.575c5.814,0.03,11.621-0.202,17.435-0.484
		c7.393-0.358,9.544,1.64,9.729,8.712c0.222,8.49,0.065,16.989,0.052,25.485c-0.066,40.975-0.146,81.95-0.199,122.925
		c-0.004,3.301-0.63,6.588,0.08,9.912c0.8,3.748,2.06,5.076,5.866,5.615c3.161,0.447,6.318,0.007,9.477-0.001
		c22.986-0.059,45.971-0.099,68.957-0.138c0.998-0.002,2.007-0.004,2.993,0.125c3.891,0.511,5.62,2.236,5.784,6.203
		c0.131,3.153-0.168,6.321-0.156,9.482c0.035,9.621,0.129,19.242,0.195,28.863c0.01,1.497-0.044,2.964-0.533,4.431
		c-0.6,1.798-1.722,2.799-3.577,2.957c-0.993,0.085-1.995,0.09-2.993,0.09c-46.475,0.004-92.95,0.008-139.425-0.009
		C4.744,226.147,1.787,226.738,0.869,223.104z"/>
</g>
</svg>
