<?xml version="1.0" encoding="iso-8859-1"?>
<!-- Generator: Adobe Illustrator 27.0.0, SVG Export Plug-In . SVG Version: 6.00 Build 0)  -->
<svg version="1.1" id="Layer_1" xmlns="http://www.w3.org/2000/svg" xmlns:xlink="http://www.w3.org/1999/xlink" x="0px" y="0px"
	 viewBox="0 0 1517 1155" style="enable-background:new 0 0 1517 1155;" xml:space="preserve">
<g>
	<path style="fill:#9E8145;" d="M1132.116,234.881c4.752,5.796,8.276,12.38,11.972,18.842
		c12.505,21.865,22.416,44.798,28.301,69.369c3.772,15.749,5.849,31.732,5.407,47.912c-0.708,25.943-9.143,49.047-26.094,68.975
		c-5.996,7.049-13.029,12.802-20.548,18.632c2.608,6.993,5.269,14.08,7.895,21.179c9.335,25.23,16.727,51.037,22.894,77.206
		c4.647,19.72,8.206,39.655,10.727,59.741c1.883,15.007,3.548,30.069,3.62,45.239c-0.38-0.006-0.76-0.012-1.14-0.019
		c-1.507-21.908-5.089-43.516-9.612-64.971c-9.27-43.969-23.75-86.279-41.022-127.682c-0.748-1.792-1.205-3.794-2.93-5.433
		c-6,2.739-12.255,4.793-18.573,6.697c-11.197,3.374-22.618,5.027-34.293,5.624c-32.237,1.648-62.53-5.915-91.803-18.694
		c-15.418-6.73-30.232-14.637-44.213-23.929c-15.676-10.418-30.352-22.187-43.905-35.305
		c-16.195-15.675-30.901-32.636-43.787-51.121c-5.407-7.756-10.248-15.906-15.566-24.221
		c-40.886,18.262-81.189,37.728-120.587,59.057c-39.323,21.289-77.741,44.091-115.237,68.803c0.989,5.215,3.219,9.843,5.09,14.579
		c17.037,43.12,38.763,83.767,64.561,122.261c0.831,1.24,1.867,2.358,2.183,3.885c-0.2,0.215-0.402,0.427-0.608,0.637
		c-3.954-4.084-6.781-9.001-9.975-13.635c-25.439-36.908-47.21-75.896-65.95-116.598c-0.82-1.781-1.39-3.732-3.047-5.467
		c-1.84,0.522-3.344,1.809-4.951,2.889c-33.851,22.744-66.669,46.908-98.816,71.991c-30.715,23.966-60.85,48.636-90.352,74.088
		c-25.103,21.656-49.746,43.804-73.732,66.696c-16.882,16.111-33.526,32.455-49.695,49.275
		c-30.14,31.353-58.909,63.906-85.033,98.715c-14.181,18.895-27.697,38.258-39.635,58.683c-1.818,3.111-3.033,6.606-5.64,9.239
		l-0.067-0.064c-0.508-1.745,0.362-3.212,0.884-4.782c4.628-13.91,11.387-26.873,17.726-40.021
		c15.106-31.329,32.601-61.31,51.747-90.308c18.425-27.905,38.122-54.907,59.221-80.87c5.137-6.321,10.192-12.709,15.358-19.159
		c-4.086-10.152-8.279-20.229-12.213-30.406c-13.117-33.933-23.529-68.667-30.791-104.337c-3.312-16.266-5.864-32.636-8.05-49.092
		c-4.068-30.628-4.71-61.381-3.572-92.167c0.73-19.748,3.319-39.344,6.428-58.893c3.87-24.338,9.988-48.032,18.343-71.164
		c11.285-31.24,26.289-60.586,45.333-87.836c0.365-0.522,0.519-1.19,0.772-1.79c0.461-0.156,0.903-0.495,0.49-0.914
		c-0.418-0.424-0.728,0.105-0.954,0.472c-7.289,4.065-13.656,9.441-20.208,14.515c-23.984,18.575-46.714,38.596-68.057,60.16
		c-35.384,35.75-66.272,75.011-92.128,118.201c-25.169,42.044-45.496,86.271-60.547,132.926
		c-8.002,24.807-14.545,49.994-19.457,75.567c-3.254,16.941-5.775,34.022-7.51,51.222c-1.688,16.729-2.545,33.474-3.177,50.268
		c-0.582,15.483-0.642,30.962-0.921,46.443c-0.291,16.142-0.139,32.294,0.58,48.408c0.83,18.587,2.291,37.14,4.445,55.65
		c3.093,26.578,7.686,52.848,14.28,78.772c4.952,19.468,11.227,38.507,18.59,57.195c0.582,1.478,1.781,2.856,1.32,4.707
		c-7.708-7.979-36.502-86.531-45.797-124.306C9.465,783.243,2.781,739.513,0.893,695.072c-0.009-6.808-0.021-13.617-0.023-20.425
		c0-0.718-0.246-1.274-0.87-1.647c0-11.667,0-23.333,0-35c1.496-0.912,0.779-2.406,0.845-3.618
		c0.296-5.48,0.566-10.961,0.892-16.439c0.98-16.442,2.984-32.753,5.207-49.055c2.58-18.922,6.187-37.653,10.491-56.243
		c10.741-46.397,26.596-91.013,46.924-134.067c17.155-36.334,37.629-70.691,61.195-103.213
		c19.081-26.333,39.974-51.146,62.754-74.362c12.602-12.843,25.552-25.311,39.169-37.093c16.75-14.492,33.959-28.396,52.064-41.155
		c34.723-24.47,71.137-46.03,109.954-63.414c16.512-7.395,33.196-14.357,50.26-20.392c31.314-11.074,63.163-20.221,95.809-26.455
		c10.103-1.929,20.213-3.92,30.397-5.307c9.704-1.322,19.44-2.487,29.198-3.468c12.579-1.265,25.145-2.475,37.789-2.762
		c15.375-0.024,30.751-0.047,46.126-0.071c3.998-0.008,7.996-0.017,11.994-0.025c15.471,0.474,30.908,1.613,46.275,3.328
		c19.465,2.172,38.799,5.327,58.031,9.085c33.607,6.566,66.394,16.108,98.532,27.786c32.66,11.868,64.216,26.248,94.415,43.533
		c18.041,10.326,35.987,20.814,53.039,32.714c22.126,15.44,43.339,32.067,63.497,50.023c27.541,24.532,52.901,51.11,76.087,79.819
		c29.688,36.758,55.199,76.185,76.493,118.327c17.247,34.134,31.533,69.486,42.544,106.136
		c7.596,25.282,13.656,50.915,18.171,76.933c2.215,12.766,3.771,25.613,5.593,38.428c0.233,1.637,0.121,3.324,0.168,4.987
		c-0.269,0.064-0.537,0.058-0.803-0.016c-5.906-41.336-15.462-81.775-29.625-121.095c-14.688-40.777-33.454-79.567-56.385-116.349
		c-18.528-29.721-39.317-57.735-62.64-83.884c-11.541-12.94-23.047-25.961-35.967-37.492c-31.283-27.92-62.425-56.031-98.05-78.606
		c-25.302-16.034-51.368-30.661-77.975-44.364c-15.053-7.753-31.217-10.443-47.902-9.037c-19.086,1.608-36.473,8.068-51.902,20.71
		c51.764,35.445,97.189,77.572,138.958,124.367c39.037-4.255,78.243-3.994,117.484-0.568c-17.525,1.822-35.101,3.257-52.56,5.575
		c-17.576,2.334-35.108,5.175-52.673,10.211c42.534,51.68,77.604,107.727,104.915,168.807c9.903-4.5,17.565-11.018,23.99-18.957
		c10.705-13.228,16.661-28.539,19.356-45.259c3.089-19.17,1.427-38.115-2.539-56.929c-4.966-23.557-14.183-45.569-24.871-67.023
		c-1.102-2.212-2.647-4.243-2.964-6.801C1131.878,235.123,1131.997,235.002,1132.116,234.881z M566.892,407.523
		c-11.906-36.393-21.453-72.902-26.218-110.593c-1.923-15.211-2.875-30.453-3.359-45.735c-0.342-10.81,0.613-21.599,1.479-32.384
		c0.773-9.619,1.827-19.217,3.518-28.682c3.813-21.346,10.511-41.791,20.642-61.045c9.845-18.709,22.074-35.564,37.929-49.703
		c3.813-3.4,7.902-6.477,12.163-10.222c-1.388-0.073-2.174-0.148-2.959-0.151c-15.818-0.071-31.572,0.802-47.275,2.799
		c-12.525,1.592-25.01,3.506-37.258,6.479c-21.632,5.25-42.738,12.207-63.063,21.374c-24.357,10.986-47.021,24.721-68,41.322
		c-20.195,15.98-38.603,33.779-55.05,53.537c-16.527,19.855-30.756,41.307-43.022,64.08c-14.23,26.419-25.371,54.072-33.301,82.974
		c-5.577,20.327-9.77,40.964-12.444,61.911c-1.728,13.535-3.102,27.095-3.536,40.715c-0.843,26.483,0.169,52.89,3.663,79.2
		c1.771,13.337,3.949,26.588,6.647,39.754c4.633,22.609,10.969,44.754,18.495,66.565c2.481,7.189,5.133,14.304,8.332,21.744
		C366.551,555.996,460.744,475.033,566.892,407.523z M812.177,288.692c0.133-2.794-1.067-4.684-1.77-6.696
		c-7.393-21.159-12.657-42.735-13.567-65.261c-0.484-11.991-0.437-23.966,1.389-35.808c3.018-19.572,9.468-37.94,20.552-54.533
		c0.747-1.119,2.237-2.096,1.757-3.867c-2.274-1.084-4.503-2.177-6.758-3.216c-21.558-9.935-43.325-19.379-65.848-26.93
		c-17.771-5.958-35.819-11.008-54.159-14.897c-4.837-1.026-9.947-1.661-14.791,0.136c-12.379,4.59-23.806,11.038-34.586,18.592
		c-13.719,9.613-25.724,21.116-36.235,34.14c-10.921,13.532-19.796,28.334-26.23,44.495c-7.491,18.816-13.117,38.16-16.253,58.236
		c-1.819,11.646-3.369,23.3-3.645,35.07c-0.405,17.27-0.698,34.536,0.88,51.796c0.678,7.417,1.386,14.869,2.408,22.2
		c1.987,14.259,5,28.384,7.914,42.498c1.086,5.26,2.03,10.642,4.352,15.868C652.048,355.144,729.319,316.304,812.177,288.692z
		 M1108.278,434.6c-13.792-37.03-87.883-150.972-110.33-169.797c-40.517,9.942-80.192,22.791-119.147,38.234
		c0.319,0.826,0.414,1.318,0.67,1.701c10.193,15.255,21.55,29.605,33.971,43.091c13.343,14.488,27.914,27.651,43.54,39.656
		c20.533,15.773,42.443,29.12,66.539,38.809c21.855,8.788,44.262,14.006,67.999,11.749
		C1097.152,437.508,1102.658,436.428,1108.278,434.6z M860.328,273.414c40.196-11.817,80.871-19.293,122.707-25.937
		c-40.46-42.847-84.745-79.556-134.303-109.49c-1.642,0.663-1.823,1.959-2.335,2.949c-10.751,20.758-12.346,42.856-8.992,65.492
		c2.267,15.296,6.718,30.066,12.615,44.374C853.106,258.292,855.982,265.884,860.328,273.414z M749.74,60.368
		c30.502,13.848,60.454,28.433,88.931,46.073c19.182-13.589,40.192-20.825,64.66-20.53C853.309,65.203,802.311,57.882,749.74,60.368
		z"/>
	<path style="fill:#252121;" d="M1517,1150c-24.823-0.027-49.646-0.04-74.47-0.087c-20.164-0.038-40.328-0.112-60.492-0.194
		c-1.135-0.005-2.322,0.288-3.707-0.47c0-9.273,0-18.691,0-28.468c11.45-2.213,23.206-3.026,35.138-4.772
		c0-81.387,0-162.631,0-244.398c-11.616-1.828-23.368-3.677-35.246-5.546c0-10.277,0-20.247,0-30.256
		c0.657-0.997,1.734-0.716,2.694-0.717c44.328-0.011,88.655-0.01,132.983,0c0.658,0,1.317,0.14,1.975,0.214
		c0.054,9.097,0.076,18.194,0.204,27.29c0.016,1.14-0.795,2.663,0.92,3.403c0,0.333,0,0.667,0,1
		c-0.536-0.522-1.138-0.428-1.825-0.329c-9.038,1.306-18.096,2.483-27.114,3.909c-2.589,0.409-5.376-0.132-7.82,1.395
		c0,81.345,0,162.686,0,244.186c7.991,0.983,15.75,1.855,23.483,2.92c4.428,0.61,8.948,0.616,13.276,1.919
		C1517,1130.667,1517,1140.333,1517,1150z"/>
	<path style="fill:#BEA880;" d="M632.949,0.956c0.2-0.309,0.217-0.628,0.051-0.956c15.333,0,30.667,0,46,0
		c-0.009,0.298,0.016,0.593,0.074,0.886C663.699,0.909,648.324,0.933,632.949,0.956z"/>
	<path style="fill:#6D6767;" d="M1517,866c-1.716-0.74-0.904-2.264-0.92-3.403c-0.128-9.096-0.15-18.193-0.204-27.29
		c0.375-0.102,0.75-0.204,1.125-0.307C1517,845.333,1517,855.667,1517,866z"/>
	<path style="fill:#999393;" d="M395,1155c0.206-0.323,0.188-0.632-0.057-0.928c7.697-0.01,15.394-0.021,23.091-0.031
		c-0.012,0.319-0.023,0.639-0.035,0.958C410.333,1155,402.667,1155,395,1155z"/>
	<path style="fill:#CFBFA2;" d="M0,673c0.624,0.373,0.87,0.93,0.87,1.647c0.002,6.808,0.014,13.617,0.023,20.425
		C0.598,695.008,0.301,694.983,0,695C0,687.667,0,680.333,0,673z"/>
	<path style="fill:#D7CAB2;" d="M679.074,0.886C679.016,0.593,678.991,0.298,679,0c4,0,8,0,12,0c-0.022,0.29,0,0.577,0.068,0.861
		C687.07,0.869,683.072,0.877,679.074,0.886z"/>
	<path style="fill:#262222;" d="M650.054,1149.283c0-9.412,0-19.001,0-28.766c10.515-2.215,21.096-3.022,31.872-4.488
		c0-81.366,0-162.621,0-244.353c-10.04-2.204-20.343-3.564-30.708-5.297c0-10.428,0-20.535,0-30.668
		c1.827-1.121,3.701-0.599,5.461-0.602c21.831-0.044,43.665,0.16,65.494-0.097c14.487-0.17,28.97-0.901,43.448-1.518
		c19.501-0.831,39.006-0.849,58.356,1.78c15.134,2.056,30.122,5.082,43.523,13.161c17.101,10.309,26.488,25.628,29.504,45.12
		c3.041,19.653-0.655,37.992-10.873,55.023c-6.752,11.255-16.003,19.9-27.557,26.087c-3.635,1.946-7.319,3.801-11.684,6.062
		c7.524,1.254,14.326,2.279,20.886,4.372c18.073,5.767,32.874,15.823,42.415,32.637c6.299,11.1,8.786,23.204,8.929,35.858
		c0.312,27.758-9.51,51.301-29.578,70.479c-9.699,9.269-21.542,14.812-34.151,18.888c-18.006,5.821-36.541,8.194-55.391,9.147
		c-13.349,0.675-26.686,0.68-39.955-0.272c-35.619-2.556-71.274-1.747-106.921-1.934
		C652.168,1149.898,651.12,1150.24,650.054,1149.283z M751.613,1118.936c11.507,1.845,22.975,2.116,34.472,2.194
		c7.903,0.053,15.562-1.235,23.138-3.251c16.51-4.393,27.648-14.739,33.23-30.807c6.012-17.307,6.402-34.917,1.168-52.456
		c-3.754-12.581-11.977-21.154-24.613-25.436c-11.346-3.845-23.036-5.155-34.879-4.814c-8.991,0.259-17.981,0.532-26.975,0.641
		c-2.958,0.036-5.917,0.006-9.091,0.006c0,37.316,0,73.921,0,110.762C749.121,1116.717,750.231,1117.706,751.613,1118.936z
		 M749.469,863.714c-3.474,36.014-0.846,71.511-1.648,107.331c9.149,0,17.613,0.003,26.077-0.001
		c6.315-0.003,12.597,0.003,18.912-0.829c14.992-1.975,26.202-9.107,32.411-23.09c8.133-18.317,9.119-37.271,3.561-56.421
		c-2.406-8.289-6.997-15.391-14.878-19.813c-7.355-4.126-15.288-6.184-23.634-7.029c-6.152-0.622-12.267-0.49-18.431-0.222
		C764.548,863.956,757.232,863.714,749.469,863.714z"/>
	<path style="fill:#262122;" d="M418.035,1154.042c-7.697,0.01-15.394,0.021-23.091,0.031c-21.469-0.909-42.059-5.302-61.496-14.816
		c-27.187-13.309-47.044-33.793-60.333-60.803c-8.123-16.51-13.494-33.943-15.769-52.176c-1.837-14.725-1.943-29.584-1.334-44.419
		c0.887-21.593,5.05-42.494,13.542-62.441c16.706-39.242,45.909-64.767,86.01-78.339c13.935-4.716,28.264-7.121,42.922-8.192
		c9.16-0.669,18.299-0.854,27.463-0.865c16.19-0.021,32.234,1.774,48.198,4.19c16.083,2.435,32.092,5.34,48.405,9.274
		c-0.878,27.331-3.512,54.603-4.678,82.186c-15.404,0-30.503,0-46.147,0c-4.015-18.482-8.055-37.076-12.154-55.944
		c-7.988-3.886-16.616-6.221-25.443-7.658c-13.29-2.163-26.504-1.321-39.621,1.751c-10.096,2.365-18.948,7.092-26.659,13.864
		c-15.496,13.609-24.79,30.948-29.885,50.727c-6.112,23.728-8.208,47.895-6.823,72.268c1.475,25.952,5.217,51.556,15.74,75.678
		c5.735,13.148,13.434,24.804,25.228,33.421c7.712,5.635,16.529,8.563,25.711,10.108c22.058,3.71,42.506-1.604,61.945-11.974
		c0-28.848,0-57.606,0-86.491c-14.587-1.515-28.924-3.004-43.478-4.516c0-10.875,0-21.465,0-32.349c43.648,0,87.221,0,131.147,0
		c0,10.666,0,21.233,0,32.221c-7.189,1.358-14.475,2.735-22.109,4.178c-0.208,36.862,0.554,73.478-0.41,110.229
		c-6.133,1.14-12.209,1.987-18.141,3.428c-14.179,3.445-28.265,7.27-42.434,10.755
		C449.134,1151.108,433.694,1153.372,418.035,1154.042z"/>
	<path style="fill:#262222;" d="M1261.526,1149.711c-78.158,0-155.96,0-234.468,0c0.034-9.776-0.101-19.339,0.975-29.143
		c10.334-2.305,20.946-2.786,31.596-4.403c0.569-9.271,1.297-18.219,1.296-27.204c-0.009-71.163-0.031-142.326-0.058-213.489
		c0-1.148-0.111-2.296-0.189-3.799c-10.675-1.746-21.28-3.48-32.097-5.249c0-10.496,0-20.713,0-31.136c46.007,0,91.621,0,137.618,0
		c0,10.128,0,20.212,0,30.808c-12.817,1.794-25.771,3.608-39.038,5.465c0,81.078,0,161.971,0,243.276
		c27.662-0.966,55.383-1.933,83.258-2.906c9.572-25.911,17.872-52.102,26.867-78.378c12.709,1.609,25.289,3.645,37.935,4.749
		C1275.643,1041.706,1263.318,1141.793,1261.526,1149.711z"/>
	<path style="fill:#BEA880;" d="M1323.11,591.942c0.266,0.075,0.534,0.08,0.803,0.016c2.054,4.026,1.413,8.545,1.666,12.725
		c0.551,9.102,1.981,18.195,1.299,27.36c-0.305-0.039-0.61-0.052-0.917-0.038c-0.8-0.524-0.854-1.336-0.833-2.172
		c0.216-8.408-1.035-16.744-1.214-25.134C1323.824,600.438,1322.551,596.248,1323.11,591.942z"/>
	<path style="fill:#CCBB9B;" d="M1327.059,649.998c1.479,0.915,0.783,2.382,0.862,3.614c0.577,8.926-1.497,17.725-1.79,26.644
		c0-10.115,0-20.23,0-30.345C1326.438,649.973,1326.747,650.002,1327.059,649.998z"/>
	<path style="fill:#B19868;" d="M1175.149,661.958c0.38,0.006,0.76,0.012,1.14,0.019c1.347,2.459,0.633,5.138,0.707,7.702
		c0.148,5.102-0.004,10.212-0.032,15.318c-0.283,0.006-0.562-0.02-0.839-0.08C1176.303,677.242,1174.61,669.648,1175.149,661.958z"
		/>
	<path style="fill:#CFBFA2;" d="M1176.126,684.917c0.276,0.06,0.556,0.086,0.839,0.08c0.305,0.366,0.871,0.729,0.875,1.098
		c0.056,5.782,0.039,11.565-0.469,17.371C1177.964,697.194,1175.471,691.176,1176.126,684.917z"/>
	<path style="fill:#A98E5A;" d="M1327.059,649.998c-0.312,0.004-0.621-0.025-0.927-0.088c-0.057-5.968-0.113-11.936-0.17-17.904
		c0.307-0.014,0.612-0.001,0.917,0.038C1326.939,638.029,1326.999,644.013,1327.059,649.998z"/>
	<path style="fill:#B19868;" d="M669.79,599.198c-2.024-1.734-3.338-3.993-4.633-6.265c0.543-0.1,0.768-0.481,0.865-0.976
		c2.044,1.797,3.444,4.028,4.411,6.55C670.227,598.745,670.013,598.976,669.79,599.198z"/>
	<path style="fill:#CFBFA2;" d="M1178.521,709.596c-0.592-1.385-0.563-2.612-0.17-4.03
		C1179.391,706.927,1178.859,708.174,1178.521,709.596z"/>
	<path style="fill:#BEA880;" d="M676.725,608.275c-0.866-0.434-1.905-0.758-1.331-2.155c1.364-0.223,1.532,0.791,1.797,1.7
		C677.034,607.97,676.878,608.121,676.725,608.275z"/>
	<path style="fill:#B19868;" d="M670.432,598.506c0.952,0.498,1.603,1.222,1.752,2.325c-0.206,0.189-0.422,0.366-0.648,0.531
		c-0.919-0.45-1.528-1.15-1.747-2.165C670.013,598.976,670.227,598.745,670.432,598.506z"/>
	<path style="fill:#B19868;" d="M672.841,603.162c-0.811-0.327-0.995-1.109-1.305-1.8c0.226-0.165,0.442-0.342,0.648-0.531
		c0.792,0.348,0.975,1.078,1.141,1.819C673.168,602.824,673.007,602.995,672.841,603.162z"/>
	<path style="fill:#9E8145;" d="M138.019,888.018c0.02,0.626,0.031,1.249-0.638,1.653c-0.419-0.787-0.66-1.486,0.571-1.717
		L138.019,888.018z"/>
	<path style="fill:#9E8145;" d="M68.637,957.549c-0.583-0.371-0.753-0.799-0.241-1.375
		C68.991,956.542,69.135,956.975,68.637,957.549z"/>
	<path style="fill:#BEA880;" d="M678.9,611.109c-0.444-0.156-0.839-0.342-0.577-0.937c0.637-0.207,0.689,0.292,0.831,0.68
		L678.9,611.109z"/>
	<path style="fill:#BEA880;" d="M679.154,610.852c0.42,0.142,0.953,0.442,0.53,0.836c-0.446,0.416-0.64-0.201-0.785-0.579
		L679.154,610.852z"/>
	<path style="fill:#BEA880;" d="M677.191,607.82c0.4,0.225,0.777,0.462,0.496,1.021c-0.582,0.258-0.731-0.223-0.961-0.565
		C676.878,608.121,677.034,607.97,677.191,607.82z"/>
	<path style="fill:#BEA880;" d="M674.346,603.836c0.415,0.222,0.809,0.584,0.409,0.987c-0.409,0.411-0.74,0-0.934-0.419
		C673.887,604.113,674.062,603.924,674.346,603.836z"/>
	<path style="fill:#B19868;" d="M673.326,602.65c0.34,0.395,0.68,0.791,1.02,1.186c-0.283,0.088-0.458,0.277-0.525,0.567
		c-0.326-0.414-0.653-0.828-0.979-1.242C673.007,602.995,673.168,602.824,673.326,602.65z"/>
	<path style="fill:#9E8145;" d="M666.022,591.956c-0.097,0.495-0.322,0.876-0.865,0.976c-0.224-0.216-0.327-0.479-0.311-0.789
		c0.205-0.21,0.408-0.422,0.608-0.637C665.653,591.644,665.843,591.793,666.022,591.956z"/>
	<path style="fill:#9E8145;" d="M1131.761,235.246c-0.504-0.201-0.916-0.658-0.448-1.025c0.542-0.426,0.694,0.225,0.804,0.66
		C1131.997,235.002,1131.878,235.123,1131.761,235.246z"/>
	<path style="fill:#9E8145;" d="M66.346,952.223c0.108,0.002,0.253-0.043,0.317,0.01c0.281,0.231,0.221,0.496-0.174,0.71
		c-0.03,0.016-0.248-0.216-0.292-0.36C66.167,952.486,66.291,952.343,66.346,952.223z"/>
	<path style="fill:#9E8145;" d="M1130.793,232.414c-0.053,0.121-0.106,0.242-0.159,0.362c-0.154-0.123-0.309-0.246-0.463-0.369
		c0.105-0.12,0.21-0.24,0.315-0.361C1130.589,232.169,1130.691,232.292,1130.793,232.414z"/>
	<path style="fill:#9E8145;" d="M67.545,954.861c-0.098-0.064-0.288-0.171-0.282-0.185c0.087-0.186,0.202-0.359,0.31-0.535
		c0.096,0.124,0.271,0.251,0.266,0.371C67.836,954.632,67.651,954.745,67.545,954.861z"/>
</g>
</svg>
