<?xml version="1.0" encoding="iso-8859-1"?>
<!-- Generator: Adobe Illustrator 27.0.0, SVG Export Plug-In . SVG Version: 6.00 Build 0)  -->
<svg version="1.1" id="Layer_1" xmlns="http://www.w3.org/2000/svg" xmlns:xlink="http://www.w3.org/1999/xlink" x="0px" y="0px"
	 viewBox="0 0 1520.515 334" style="enable-background:new 0 0 1520.515 334;" xml:space="preserve">
<g>
	<path style="fill:#3F7AA7;" d="M405,0c-0.054,1.995-0.154,3.989-0.154,5.984c-0.008,107.246-0.007,214.492-0.01,321.737
		c0,1.665-0.029,3.33-0.044,4.995c-1.991,0.095-3.982,0.273-5.973,0.273C265.88,333.002,132.94,333,0,333C0,222,0,111,0,0
		C135,0,270,0,405,0z M269.027,58.633c13.193,27.158,24.266,55.07,36.956,83.336c12.677-28.501,23.925-56.325,37.116-83.381
		c0,1.323,0,2.646,0,3.97c0,20.323-0.179,40.649,0.11,60.967c0.086,6.051-1.445,10.715-6.603,14.005
		c-0.165,0.105-0.091,0.586-0.134,0.931c9.028,0,18.047,0,27.028,0c0.095-1.153-0.598-1.393-1.157-1.674
		c-4.425-2.229-5.587-5.8-5.541-10.662c0.222-23.316,0.157-46.636,0.029-69.953c-0.018-3.339,1.034-5.772,3.553-7.771
		c0.825-0.655,2.237-0.819,2.172-2.21c-7.793,0-15.557,0-23.308,0c-9.97,24.059-19.826,47.844-30.157,72.774
		c-10.79-25.022-21.125-48.989-31.429-72.881c-7.683,0-14.936,0-22.36,0c0.711,1.659,2.009,2.479,3.052,3.494
		c2.4,2.337,3.537,5.14,3.535,8.474c-0.011,23.153-0.034,46.307,0.023,69.46c0.01,3.995-1.5,7.055-4.661,9.394
		c-0.715,0.529-1.92,0.668-1.718,1.996c6.949,0,13.875,0,21,0c-0.957-1.427-2.303-1.734-3.473-2.232
		c-1.703-0.725-2.646-1.982-2.948-3.709c-0.427-2.447-1.03-4.914-1.039-7.375C268.993,103.267,269.027,80.95,269.027,58.633z
		 M125.98,52.615c-9.055-2.734-17.579-5.959-26.543-7.605c-16.973-3.117-32.899-0.392-46.688,10.268
		c-18.878,14.594-23.547,41.24-11.382,61.423c9.584,15.899,24.355,23.413,42.655,24.318c5.817,0.288,11.65,0.174,17.373-1.083
		c8.282-1.819,16.191-4.626,23.505-9.051c0-4.864,0.053-9.516-0.013-14.167c-0.09-6.343,1.735-11.737,7.834-15.507
		c-9.363,0-18.18,0-27.852,0c6.516,3.997,8.862,9.269,8.133,16.02c-0.177,1.642-0.058,3.335,0.098,4.989
		c0.421,4.487-1.66,7.215-5.745,8.775c-7.703,2.942-15.562,4.047-23.838,3.256c-13.582-1.299-23.532-7.894-29.404-20.025
		c-6.131-12.666-6.712-25.937-1.662-39.114c4.047-10.56,11.239-18.343,22.234-22.034c7.547-2.533,15.389-3.044,23.166-1.898
		c8.025,1.182,15.277,4.371,20.847,10.675c2.467,2.792,4.303,5.956,6.398,10.345C124.534,65.04,125.835,59.135,125.98,52.615z
		 M235.76,131.09c0.01-5.47,1.678-10.456,1.144-15.621c-0.939,0.02-1.235,0.683-1.538,1.232
		c-4.117,7.482-10.428,12.339-18.286,15.358c-7.124,2.737-14.312,3.433-21.955,2.086c-12.696-2.237-22.806-8.037-29.217-19.396
		c-5.617-9.952-6.647-20.729-4.475-31.789c1.496-7.617,4.563-14.678,10.227-20.139c11.507-11.096,25.241-14.753,40.799-11.152
		c9.237,2.138,16.286,7.266,20.458,15.986c0.263,0.549,0.4,1.34,1.616,0.904c0.797-5.263-0.002-10.751,1.327-15.724
		c-0.555-0.627-0.725-0.99-0.998-1.099c-1.992-0.803-3.982-1.622-6.015-2.312c-13.698-4.651-27.662-7.136-42.101-4.406
		c-13.425,2.538-24.654,8.874-32.511,20.301c-6.222,9.049-8.812,19.187-8.31,30.185c0.839,18.367,10.067,31.218,26.004,39.518
		c12.928,6.732,26.756,7.491,40.767,4.666C220.629,138.089,228.452,135.78,235.76,131.09z"/>
	<path style="fill:#C7D1E1;" d="M0,333c132.94,0,265.88,0.002,398.82-0.011c1.991,0,3.982-0.178,5.973-0.273
		c0.069,0.428,0.139,0.856,0.208,1.284c-133.5,0-267,0-400.5,0C1.54,334,1.54,334,0,333z"/>
	<path style="fill:#437CA8;" d="M615.164,90.517c2.579-1.673,5.255-1.485,7.839-1.139c6.469,0.865,12.897,0.885,19.32-0.317
		c8.638-1.616,13.06-5.784,13.987-14.422c0.991-9.238-3.667-17.609-13.745-18.381c-11.095-0.85-22.28-0.749-33.414,0.171
		c-0.133,0.011-0.252,0.199-0.472,0.383c-0.839,0.885-0.547,2.107-0.548,3.236c-0.016,22.151,0.03,44.302-0.051,66.453
		c-0.014,3.952,1.229,7.091,4.269,9.609c1.123,0.931,2.487,1.691,3.205,3.487c-9.797,0-19.446,0-29.264,0
		c-0.063-2.153,1.887-2.325,2.947-2.922c3.492-1.965,4.662-4.928,4.656-8.698c-0.01-7.661,0.096-15.322,0.091-22.983
		c-0.011-14.49-0.283-28.985,0.008-43.468c0.107-5.312-1.657-8.977-6.06-11.607c-0.71-0.424-1.44-0.838-1.788-1.685
		c0.328-1.441,1.526-0.969,2.398-0.973c17.654-0.073,35.309-0.243,52.962-0.098c7.691,0.063,15.146,1.551,21.824,5.821
		c5.395,3.45,8.577,8.45,9.479,14.568c1.927,13.08-3.417,23.236-16.328,27.719c-4.908,1.704-10,2.225-15.635,3.039
		c13.498,14.022,25.119,29.432,41.166,40.798c-6.81,1.118-13.529,0.58-20.473,0.945C645.947,123.735,629.649,108.047,615.164,90.517
		z"/>
	<path style="fill:#467DA8;" d="M1426.352,47.098c3.114,0,5.382,0,7.651,0c15.163,0,30.326-0.061,45.489,0.029
		c5.826,0.034,11.568,0.904,17.061,2.978c10.193,3.849,15.662,14.101,14.736,24.964c-1.154,13.532-12.126,20.151-22.266,21.893
		c-2.881,0.495-5.782,0.874-9.195,1.384c13.097,14.202,24.968,28.958,40.687,41.284c-7.526,0-14.048,0-21.263,0
		c-14.409-16.109-30.219-31.757-44.862-49.421c3.273-0.085,5.623-0.81,8.366-0.549c6.775,0.645,13.646,0.581,20.362-0.834
		c7.987-1.683,12.646-9.017,11.859-18.242c-0.677-7.932-6.663-14.215-14.5-14.434c-10.309-0.288-20.633-0.071-30.922-0.071
		c-1.677,1.686-1.422,3.717-1.429,5.67c-0.077,21.823-0.127,43.647-0.235,65.47c-0.02,3.969,1.433,7.043,4.689,9.356
		c1.042,0.74,2.281,1.399,2.916,3.039c-9.638,0-19.143,0-28.839,0c0.239-1.586,1.779-2.021,2.886-2.795
		c3.081-2.153,4.62-4.894,4.602-8.826c-0.11-22.994-0.091-45.989-0.002-68.983c0.011-2.755-0.951-4.763-2.823-6.615
		C1429.909,51.002,1428.083,50.031,1426.352,47.098z"/>
	<path style="fill:#437CA8;" d="M1346.515,44.967c12.944,0.118,24.792,3.541,35.362,11.273c9.96,7.285,15.264,17.121,17.22,29.133
		c2.11,12.961-0.725,24.786-8.16,35.376c-5.634,8.024-13.226,13.811-22.427,17.559c-13.097,5.336-26.611,6.368-39.937,2.354
		c-22.172-6.68-38.623-23.981-36.241-49.935c1.768-19.259,12.219-32.916,30.051-40.613C1331,46.395,1338.675,44.95,1346.515,44.967z
		 M1383.285,93.554c0.298-8.703-2.911-17.52-8.618-25.694c-8.447-12.098-31.525-21.757-50.284-8.427
		c-11.37,8.08-15.693,19.87-16.225,33.225c-0.367,9.195,2.535,17.618,7.409,25.423c11.08,17.74,39.018,23.585,55.941,7.014
		C1379.963,116.817,1383.344,106.502,1383.285,93.554z"/>
	<path style="fill:#437CA8;" d="M758.796,44.95c14.306,0.864,28.956,5.492,40.047,18.378c6.069,7.052,9.18,15.34,10.135,24.436
		c1.59,15.15-3.326,28.165-13.686,39.149c-7.812,8.283-17.793,12.688-28.737,14.849c-11.295,2.231-22.51,1.418-33.318-2.701
		c-16.953-6.461-28.352-18.186-30.917-36.447c-2.913-20.74,5.15-39.164,24.446-49.891C736.066,47.553,746.073,44.874,758.796,44.95z
		 M717.775,93.12c0.027,13.89,4.835,25.551,15.965,34.272c15.892,12.453,40.062,9.622,52.422-8.67
		c5.309-7.857,7.254-16.645,6.832-25.986c-0.751-16.615-9.421-30.991-26.363-37.47c-15.802-6.043-32.787,1.125-40.523,11.798
		C720.426,74.902,717.841,83.551,717.775,93.12z"/>
	<path style="fill:#467DA8;" d="M1173.017,54.72c-1.932-2.694-4.658-4.367-7.521-7.16c7.807-0.68,14.688-0.388,21.946-0.472
		c10.749,11.335,21.613,22.784,32.468,34.242c10.684,11.278,21.357,22.565,32.206,34.029c1.191-2.118,0.731-3.794,0.736-5.387
		c0.041-15.822-0.126-31.647,0.108-47.466c0.082-5.513-1.438-9.755-6.257-12.614c-0.423-0.251-0.797-0.612-1.123-0.985
		c-0.198-0.226-0.26-0.572-0.649-1.495c7.739-0.525,15.23-0.339,23.183-0.177c-0.682,2.36-2.342,3.251-3.621,4.37
		c-2.528,2.212-3.734,4.766-3.716,8.268c0.107,19.985,0.015,39.97-0.005,59.956c-0.006,6.329-0.005,12.658,0.001,18.987
		c0.001,1.335,0.048,2.672-1.172,4.1c-26.408-25.445-50.677-52.943-77.475-79.466c0,2.439,0,3.839,0,5.239
		c0,18.987,0.13,37.975-0.083,56.96c-0.06,5.333,1.401,9.426,5.999,12.246c0.416,0.255,0.739,0.667,1.083,1.027
		c0.103,0.107,0.131,0.285,0.336,0.759c-7.621,0-15.113,0-23.006,0c6.227-3.812,7.479-9.819,7.501-16.248
		c0.046-13.656-0.214-27.315-0.018-40.968C1174.07,73.141,1173.072,63.886,1173.017,54.72z"/>
	<path style="fill:#447CA8;" d="M550.853,131.488c-12.988,6.914-26.316,11.147-40.81,10.307
		c-15.905-0.921-30.187-5.866-41.493-17.76c-12.553-13.207-15.798-32.9-8.334-49.473c6.933-15.394,19.445-23.487,35.13-27.522
		c10.97-2.823,22.058-2.211,33.142-0.572c6.893,1.019,13.601,2.844,20.349,4.51c1.303,0.322,2.577,0.577,3.708,1.577
		c-1.099,6.477-0.178,13.175-1.847,19.849c-1.807-2.19-2.758-4.803-4.503-6.943c-6.56-8.041-15.482-11.47-25.288-12.242
		c-11.138-0.877-21.728,1.55-31.272,7.84c-7.578,4.994-12.379,11.927-14.904,20.479c-3.463,11.732-2.162,23.001,4.167,33.498
		c6.794,11.268,17.36,16.636,30.064,17.852c9.76,0.935,19.074-1.305,28.339-5.654c-0.273-9.46,2.059-19.6-9.468-25.951
		c11.058,0,21.212,0,31.669,0c-3.653,2.854-6.911,5.792-8.008,10.463c-0.544,2.317-0.581,4.61-0.621,6.924
		C550.802,122.82,550.853,126.972,550.853,131.488z"/>
	<path style="fill:#497EA9;" d="M1057.287,47.354c27.608-1.043,54.03,1.149,80.79-1.319c0.028,8.155-1.31,15.79-2.188,23.76
		c-2.21-1.205-2.079-3.414-2.654-5.061c-2.303-6.593-6.013-8.937-12.139-8.806c-12.158,0.259-24.327,0.01-36.491,0.006
		c-1.123,0-2.335-0.339-3.59,0.649c0,10.449,0,21.061,0,31.756c0.833,0.983,2.077,0.624,3.196,0.628
		c6.999,0.03,13.999,0.101,20.996-0.027c2.803-0.051,5.617-0.458,8.391-0.916c2.419-0.4,4.148-1.949,5.503-3.97
		c1.078-1.608,2.269-3.14,3.942-5.437c0.001,10.034-0.789,19.011-2.018,28.379c-0.602-0.59-0.77-0.685-0.834-0.826
		c-4.139-9.253-4.138-9.254-14.257-9.254c-8.144,0-16.288,0-24.793,0c0,11.668,0,23.052,0,34.476
		c1.117,0.984,2.512,0.568,3.794,0.572c12.163,0.033,24.333-0.219,36.488,0.111c7.082,0.192,12.129-2.727,16.1-8.18
		c1.26-1.73,2.435-3.522,3.977-5.172c-0.781,7.096-1.975,14.065-3.823,21.03c-26.475,0-52.718,0-79.02,0
		c0.173-0.456,0.198-0.907,0.414-1.035c6.266-3.718,7.254-9.405,7.135-16.223c-0.347-19.988-0.317-39.99,0.001-59.979
		c0.089-5.595-1.56-9.66-6.023-12.768C1059.524,49.287,1058.935,48.722,1057.287,47.354z"/>
	<path style="fill:#457DA8;" d="M903.805,52.268c0,6.803,0,13.024,0,19.335c-1.674-0.611-1.89-2.1-2.378-3.223
		c-4.143-9.53-11.894-13.923-21.698-15.321c-9.165-1.306-18.144-0.635-26.792,2.989c-5.48,2.296-7.979,5.571-8.029,10.786
		c-0.054,5.617,2.723,9.918,7.951,12.049c6.959,2.837,14.295,4.132,21.691,5.196c8.041,1.156,16.042,2.443,23.487,6.029
		c7.849,3.781,13.779,12.947,12.22,24.519c-0.378,2.807-0.841,5.541-1.805,8.219c-3.56,9.888-11.289,15.064-20.828,17.521
		c-19.351,4.985-38.152,3.067-56.149-5.804c-0.285-0.141-0.492-0.44-1.192-1.088c0.016-6.614-0.583-13.651,1.159-20.688
		c3.19,11.263,10.098,18.388,21.81,20.667c10.075,1.961,20.079,2.485,30.016-0.453c5.11-1.511,10.237-3.242,12.888-8.518
		c1.873-3.728,3.109-7.503,2.1-11.88c-0.946-4.104-3.168-6.849-6.878-8.538c-6.09-2.772-12.567-4.097-19.132-5.129
		c-7.681-1.207-15.375-2.198-22.835-4.696c-10.517-3.522-16.451-10.712-16.971-21.534c-0.384-8.006,2.012-15.427,9.414-20.218
		c7.171-4.641,15.194-6.56,23.51-7.291c6.635-0.584,13.296-0.075,19.868,1.046c2.444,0.417,4.746,1.428,7.018,2.483
		C895.845,50.394,899.493,51.968,903.805,52.268z"/>
	<path style="fill:#457CA8;" d="M926.466,47.178c12.097,0.026,23.921-0.423,35.739,0.26c0.443,0.026,0.865,0.416,1.585,0.784
		c-2.391,3.134-7.292,2.893-8.732,6.852c1.229,5.162,27.94,56.319,32.858,62.911c1.895-0.215,2.866-1.688,3.605-3.111
		c10.403-20.042,21.956-39.48,31.766-60.107c-2.265-3.196-6.54-3.724-8.983-6.638c3.891-1.263,22.122-1.541,28.544-0.425
		c-0.035,1.603-1.412,2.171-2.403,2.874c-5.125,3.634-8.848,8.285-11.825,13.872c-13.121,24.62-26.492,49.107-39.835,73.608
		c-0.936,1.718-1.69,3.631-3.273,4.947c-1.582-0.405-1.784-1.905-2.408-2.99c-14.736-25.634-28.135-51.995-42.299-77.94
		c-2.546-4.663-5.893-8.36-10.261-11.298C929.213,49.884,927.435,49.456,926.466,47.178z"/>
</g>
</svg>
