<?xml version="1.0" encoding="iso-8859-1"?>
<!-- Generator: Adobe Illustrator 27.0.0, SVG Export Plug-In . SVG Version: 6.00 Build 0)  -->
<svg version="1.1" id="Layer_1" xmlns="http://www.w3.org/2000/svg" xmlns:xlink="http://www.w3.org/1999/xlink" x="0px" y="0px"
	 viewBox="0 0 1970.708 636.046" style="enable-background:new 0 0 1970.708 636.046;" xml:space="preserve">
<g>
	<path style="fill:#BD2326;" d="M0,159.025c26.805-16.15,54.151-31.366,81.221-47.057c20.595-11.938,41.224-23.82,61.849-35.706
		c2.445-1.409,4.962-2.693,7.505-4.066c1.03,3.75,1.362,7.361,1.334,11.047c-0.109,14.165-0.022,28.333-0.24,42.497
		c-0.112,7.315-0.71,14.623-1.094,22.048c-28.446,20.197-59.286,36.32-89.424,53.74c0,77.587,0,155.064,0,233.037
		c9.059,5.251,18.044,11.155,28.519,15.958c1.438-77.615,0.714-154.651,2.007-231.261c5.837-4.815,53.665-33.176,58.902-34.986
		c0.608,1.754,0.304,3.567,0.348,5.322c1.917,76.485,0.792,152.984,1.028,229.477c0.142,46.165-0.169,92.332-0.276,138.498
		c-0.004,1.657,0,3.315,0,4.985c-1.886,0.374-3.029-0.724-4.3-1.382c-19.521-10.107-38.415-21.332-57.463-32.28
		C59.915,511.653,29.969,494.319,0,477.025C0,371.025,0,265.025,0,159.025z"/>
	<path style="fill:#BD2326;" d="M260.371,120.937c1.029,142.903,0.293,285.05,0.706,427.54c4.753,3.356,9.622,6.793,14.857,10.489
		c5.135-3.392,10.364-6.845,15.807-10.44c0-153.722,0-307.518,0-461.463c-5.075-3.291-10.476-6.197-16.111-9.044
		c-30.938,17.956-61.864,35.904-93.275,54.134c-0.9-5.486-0.929-10.55-0.907-15.572c0.087-19.329,0.343-38.658,0.533-57.987
		c0.011-1.162,0.001-2.324,0.001-3.885c31.098-18.839,62.75-36.841,94.98-54.711c31.186,18.03,62.524,36.147,94.004,54.347
		c0,175.635,0,351.255,0,527.213c-31.513,18.083-63.055,36.182-94.953,54.486c-31.327-18.145-62.793-36.37-94.592-54.789
		c0-138.086,0-276.211,0-415.035C207.125,151.479,233.336,136.445,260.371,120.937z"/>
	<path style="fill:#BD2326;" d="M492.67,433.424c0-39.866,0-79.343,0-118.98c-13.119-8.319-26.806-15.874-40.283-23.784
		c-13.926-8.174-27.771-16.484-41.645-24.746c-1.143-0.681-2.197-1.513-3.354-2.165c-3.762-2.118-5.066-5.443-5.083-9.589
		c-0.035-8.666-0.275-17.331-0.291-25.997c-0.085-46.165-0.133-92.329-0.173-138.494c-0.003-3.999,0.134-7.998,0.238-11.996
		c0.043-1.64-0.191-3.38,1.527-4.829c49.918,28.751,99.92,57.551,150.058,86.429c0,25.392,0,50.799,0,76.867
		c-31.069-16.761-61.089-34.144-91.693-51.989c0.199,11.804,0.029,22.764,0.713,34.106c30.259,17.798,60.621,35.656,91.021,53.537
		c0,68.112,0,136.062,0,204.39c-50.211,29.198-100.196,58.656-151.774,86.929c-0.026-88.657-0.483-176.7,0.588-265.834
		c20.725,10.004,39.391,21.662,59.12,32.489c0.252,40.282,0.505,80.7,0.764,122.032C472.97,445.383,482.605,439.534,492.67,433.424z
		"/>
	<path style="fill:#595A5B;" d="M1878.082,424.396c-0.358-6.931,0.853-13.674,0.86-20.455c0.007-6.832,0.379-13.665,0.301-20.495
		c-0.076-6.694,1.379-13.43-0.37-20.151c-6.057,20.296-11.408,40.722-18.836,60.395c-9.357,0.928-21.123,0.512-24.832-1.042
		c1.85-5.208,3.505-10.542,5.619-15.688c6.221-15.146,10.239-30.897,12.872-46.993c0.772-4.723,1.178-9.553,1.441-14.387
		c1.224-22.476,0.559-44.981,1.268-67.457c0.593-18.825,0.49-37.65,0.805-56.474c0.042-2.501,0.48-4.888,0.914-7.405
		c36.303,0,72.388,0,108.909,0c-0.359,22.221,1.587,44.425-7.382,65.548c-9.364,1.713-18.711,0.791-28.31,1.346
		c0,7.45,0,14.85,0,22.7c12.938,0,26.009,0,39.369,0c0,6.836,0,13.236,0,20.085c-13.063,0-26.134,0-39.451,0
		c0,7.507,0,14.571,0,21.974c10.833,0.463,21.633-0.299,32.626,1.611c0.08,10.162,1.27,20.264,0.652,30.388
		c-0.356,5.829-0.326,11.652-0.527,17.476c-0.167,4.833-0.693,9.596-2.04,14.27c-2.199,7.63-9.716,13.177-17.785,13.485
		c-18.821,0.718-37.645,0.771-56.468,1.069C1884.603,424.244,1881.485,425.148,1878.082,424.396z M1880.152,260.947
		c6.233,0,12.042,0.083,17.847-0.017c12.323-0.211,24.647-0.466,36.967-0.806c6.852-0.189,9.43-2.769,10.129-9.697
		c0.133-1.322,0.451-2.629,0.53-3.951c0.241-4.063,0.408-8.13,0.602-12.179c-22.431,0-44.178,0-66.075,0
		C1880.152,243.184,1880.152,251.797,1880.152,260.947z M1902.649,367.367c-2.486,12.109-1.371,24.286-1.692,36.843
		c14.027-1.391,27.478-0.845,41.028-2.47c0.14-11.994-0.182-23.717,1.373-35.711
		C1929.489,366.282,1916.369,365.536,1902.649,367.367z M1909.704,345.781c0-7.405,0-14.464,0-21.786
		c-10.348,0.333-20.434-0.568-30.466,1.057c-1.06,6.991-1.438,13.717-1.342,20.729
		C1888.554,345.781,1898.967,345.781,1909.704,345.781z M1909.108,279.965c-9.718,1.475-18.744,0.493-27.699,2.519
		c-1.038,6.788-2.257,13.437-2.333,20.087c3.864,1.652,25.525,2.075,30.969,0.707
		C1909.579,295.759,1910.583,288.127,1909.108,279.965z"/>
	<path style="fill:#5A5B5B;" d="M1722.801,364.349c10.849,20.949,23.959,40.171,38.172,59.416
		c-9.824,0.697-18.983,0.053-28.378-1.045c-7.26-10.006-12.865-21.398-21.472-31.728c-6.108,11.306-11.84,21.918-17.823,32.994
		c-12.482,0-25.148-0.388-37.775,0.141c-8.019,0.336-15.041-0.98-21.213-6.326c-1.839-1.593-3.954-3.026-6.562-3.965
		c-8.235,3.499-16.159,8.165-25.421,9.404c-8.976,1.201-17.922,0.557-27.103,0.22c4.944-4.432,10.609-7.671,16.056-11.22
		c5.563-3.626,11.079-7.324,16.887-11.171c-0.969-2.149-2.318-3.776-3.704-5.354c-9.364-10.664-15.717-22.599-15.42-37.638
		c-6.11,0-11.859,0-17.821,0c0-6.835,0-13.233,0-20.262c13.405,2.226,23.532-5.896,35.083-10.573
		c2.996,4.182,5.976,8.34,9.093,12.691c3.956,0.156,7.665-1.484,11.5-2.332c6.478-1.431,12.908-3.082,19.351-4.669
		c6.887-1.697,13.483-1.118,19.77,2.331c4.68,2.567,9.96,2.324,15.496,3.161c0,6.284,0,12.67,0,19.504c-5.215,0-10.63,0-16.407,0
		c-0.145,4.347-0.974,8.196-1.725,12.064c-1.599,8.234-5.363,15.302-10.762,21.627c-2.47,2.894-4.727,5.97-7.49,9.485
		c8.14,5.569,15.563,11.65,25.221,13.868c1.804-1.1,3.07-2.624,4.233-4.254c8.338-11.684,15.577-23.963,20.904-37.355
		c1.752-4.406,1.962-8.568,0.823-13.116c-3.556-14.192-8.634-27.918-12.583-42.389c-7.753,8.38-18.263,7.237-28.271,9.205
		c-6.11-14.256-10.972-28.868-16.508-43.868c7.427-2.128,14.884-0.624,22.428-1.246c3.354,7.697,5.814,15.618,9.861,23.259
		c2.173-2.64,2.772-5.548,3.741-8.244c5.578-15.525,8.92-31.626,11.978-47.78c2.223-11.744,4.128-23.548,6.208-35.319
		c0.201-1.137,0.632-2.232,1.025-3.584c6.436,0,12.866,0,19.71,0c-1.99,14.461-3.964,28.812-5.954,43.272
		c3.349,0.948,6.266,1.312,9.254,1.319c10.833,0.026,21.666,0.085,32.498,0.129c1.629,0.007,3.258,0.001,5.05,0.001
		c0,7.356,0,14.282,0,21.615c-3.777,0.193-7.356,0.376-11.212,0.573C1738.668,306.936,1731.94,336.001,1722.801,364.349z
		 M1711.508,326.267c4.655-16.905,8.625-33.606,10.167-51.371c-6.599,0.104-12.339,2.981-18.609,3.521
		c-1.762,5.681-3.199,11.15-5.178,16.416c-1.417,3.77-0.957,7.092,0.723,10.511c2.933,5.966,5.908,11.909,9.354,17.602
		C1708.719,324.193,1709.332,325.599,1711.508,326.267z M1610.976,357.168c0.984,13.332,8.04,22.551,15.57,31.841
		c6.427-9.446,13.479-18.035,19.543-28.017C1634.535,358.465,1623.149,358.404,1610.976,357.168z"/>
	<path style="fill:#595A5B;" d="M1142.355,236.003c-0.374-7.741-1.705-14.941-1.262-22.624c61.428,0,122.816,0,184.618,0
		c0.909,7.203-0.073,14.546-1.197,22.546c-6.128,0.224-12.389,0.069-18.642,0.096c-6.332,0.028-12.664,0.006-18.995,0.006
		c-6.498,0-12.997,0-19.495,0c-6.332,0-12.664,0-18.995,0s-12.664,0-18.995,0c-6.305,0-12.611,0-19.202,0
		c-2.021,11.238-0.572,22.417-2.407,33.021c1.613,1.434,3.007,0.944,4.272,0.953c17.828,0.126,35.658,0.129,53.485,0.331
		c8.156,0.092,16.307,0.605,24.463,0.823c3.454,0.092,6.418,1.066,9.178,3.255c6.718,5.33,10.943,11.591,10.941,20.701
		c-0.005,23.652,0.871,47.302,0.486,70.96c-0.192,11.823-0.444,23.645-0.653,35.468c-0.118,6.664-2.402,12.265-7.575,16.696
		c-3.162,2.708-6.668,4.348-10.772,4.607c-19.615,1.233-39.258,1.077-59.12,1.33c-2.995-7.102-5.939-14.082-9.074-21.517
		c2.769-0.787,5.185-0.793,7.61-0.777c7.998,0.055,15.996,0.121,23.993,0.136c10.152,0.019,20.205-1.085,30.794-2.588
		c1.663-35.014,0.855-69.917,1.234-105.103c-27.028,0-53.755,0-80.837,0c-2.56,45.358-14.944,88.039-36.029,128.424
		c-10.349,0.506-20.718,2.031-31.082,0.871c-0.719-2.116,0.529-3.218,1.241-4.43c6.735-11.468,13.739-22.786,19.185-34.964
		c7.963-17.809,14.043-36.175,17.56-55.428c2.816-15.416,4.367-30.916,5.222-46.537c0.755-13.797,1.531-27.59,1.816-41.406
		c0.03-1.451,0.375-2.941-0.38-4.851C1170.11,236.003,1156.37,236.003,1142.355,236.003z"/>
	<path style="fill:#5A5A5B;" d="M822.204,424.046c0-70.478,0-140.522,0-210.429c1.023-0.947,2.077-0.579,3.022-0.576
		c25.154,0.084,50.309,0.067,75.459,0.396c6.956,0.091,13.965,0.144,20.885,1.431c5.027,0.935,8.859,3.443,11.934,7.456
		c3.648,4.761,5.379,9.784,5.348,16.036c-0.245,49.975-0.164,99.951-0.079,149.927c0.006,3.427-0.556,6.579-1.959,9.638
		c-2.22,4.839-4.626,9.557-8.104,13.665c-6.824,8.059-15.687,11.123-26.015,11.462c-25.808,0.846-51.623,0.839-77.437,0.993
		C824.295,424.051,823.331,424.046,822.204,424.046z M909.996,240.281c-19.644,0-38.704,0-57.992,0
		c-0.039,52.396-0.459,104.43-0.224,156.601c16.083,0,31.545,0,47.241,0c2.228-3.657,4.609-7.266,6.671-11.049
		c1.584-2.906,3.084-5.943,3.327-9.337c0.345-4.812,0.77-9.633,0.784-14.452c0.114-38.987,0.14-77.974,0.192-116.961
		C909.997,243.604,909.996,242.125,909.996,240.281z"/>
	<path style="fill:#595A5A;" d="M1359.163,423.811c0-70.232,0-140.181,0-210.459c57.422,0,114.819,0,172.35,0
		c0.911,0.831,0.469,2.074,0.468,3.173c-0.044,51.332-0.08,102.664-0.217,153.995c-0.025,9.491-0.219,18.997-0.788,28.468
		c-0.724,12.056-8.956,20.979-17.923,23.403c-1.638,0.443-3.285,0.512-4.948,0.556c-49.15,1.293-98.312,0.919-147.47,1.093
		C1360.315,424.042,1359.994,423.944,1359.163,423.811z M1502.597,403.145c2.237-3.941,5.565-6.586,5.545-11.64
		c-0.208-50.978-0.131-101.958-0.169-152.937c-0.001-1.427,0.516-2.979-0.474-4.243c-42.144,0-84.197,0-126.226,0
		c-1.046,14.451-0.563,165.159,0.509,168.819C1421.932,403.145,1462.072,403.145,1502.597,403.145z"/>
	<path style="fill:#595A5A;" d="M788.812,213.199c0,9.133,0,17.747,0,26.799c-28.583,0-56.981,0-85.588,0
		c0,52.502,0,104.562,0,156.824c18.499,0,36.777,0,55.416,0c0-24.32,0-48.716,0-73.559c-8.194,0-16.6,0-25.321,0
		c0-8.834,0-17.234,0-25.938c18.321,0,36.718,0,55.676,0c0.065,42.04-0.392,84.115,1.607,126.012
		c-1.24,1.32-2.655,0.813-3.917,0.806c-22.164-0.118-44.328-0.213-66.49-0.456c-8.824-0.097-17.643-0.686-26.467-0.783
		c-7.34-0.081-12.527-3.786-16.859-9.176c-2.036-2.533-2.892-5.393-3.003-8.746c-1.681-50.811-0.574-101.632-0.695-152.448
		c-0.016-6.82,0.463-13.643,0.783-20.462c0.355-7.562,4.309-12.773,11.016-15.842c3.004-1.374,6.321-1.999,9.677-2.126
		c30.642-1.163,61.3-0.954,91.954-1.069C787.235,213.032,787.87,213.126,788.812,213.199z"/>
	<path style="fill:#5A5A5B;" d="M1088.937,225.901c0,16.114,0,31.762,0,47.776c-9.813,1.192-19.476-0.586-29.902-0.965
		c-0.078-5.497-0.027-10.918-0.036-16.335c-0.009-5.293-0.002-10.586-0.002-16.11c-19.427,0-38.484,0-58.011,0
		c0.296,15.551-0.638,30.96,0.918,46.253c11.743,6.188,23.047,12.16,34.365,18.106c12.662,6.652,25.369,13.222,37.708,20.465
		c3.15,1.849,6.201,3.886,9.178,6.004c3.008,2.139,4.667,5.047,4.672,8.894c0.018,14.321,1.302,28.612,1.061,42.942
		c-0.131,7.82-0.297,15.624-1.739,23.355c-0.866,4.642-2.832,8.445-6.967,10.971c-1.416,0.865-2.716,1.919-4.091,2.855
		c-3.798,2.587-7.842,3.81-12.597,3.72c-14.822-0.281-29.651-0.082-44.477-0.202c-8.489-0.068-16.984-0.726-25.462-0.521
		c-11.499,0.278-22.116-10.55-22.553-22.334c-0.457-12.316-0.051-24.634,0.096-37.549c9.813-2.235,19.696-0.622,29.764-1.303
		c0,11.817,0,23.096,0,34.735c19.317,0,38.376,0,58.085,0c0.027-15.022-0.097-30.248-0.848-45.939
		c-5.155-2.789-10.524-5.695-15.894-8.599c-18.576-10.044-37.587-19.277-55.839-29.92c-3.436-2.003-6.744-4.273-9.898-6.698
		c-3.353-2.578-4.983-6.334-5.131-10.451c-0.68-18.957-2.339-37.919-0.265-56.883c0.45-4.117,0.987-8.3,2.936-12.033
		c4.145-7.941,10.859-11.745,19.759-12.14c23.64-1.047,47.291-0.561,70.937-0.712c1.908-0.012,3.538,0.565,5.236,1.306
		C1076.694,217.536,1082.63,221.805,1088.937,225.901z"/>
	<path style="fill:#5A5A5B;" d="M1788.307,255.109c6.923,0,13.538,0,20.518,0c0-14.238,0-28.339,0-42.762c8.082,0,15.803,0,23.919,0
		c0,14.085,0,28.147,0,42.675c6.491-0.147,12.592,0.16,19.176,1.591c0.168,5.436,0.142,10.995-0.392,16.934
		c-6.225,2.872-12.85,0.507-19.534,1.854c0.116,11.189-0.268,22.389,0.578,34.366c6.484-3.058,12.125-5.718,18.124-8.548
		c0,7.296,0,14.317,0,21.527c-6.085,3.54-12.241,7.121-18.472,10.746c0,3.882-0.251,7.713,0.045,11.5
		c1.016,12.982,0.819,25.987,0.514,38.965c-0.331,14.093-3.168,27.683-10.67,39.707c-9.904,0-19.525,0-29.38,0
		c-2.405-6.399-4.722-12.563-7.216-19.199c7.946-0.587,15.445-1.141,22.788-1.684c0-19.735,0-39.14,0-59.264
		c-7.689,3.627-14.689,6.929-22.041,10.396c0-8.238,0-16.134,0-24.404c7.097-3.397,15.063-5.232,22.555-8.665
		c0-15.135,0-30.256,0-45.667c-6.82-1.033-13.489,1.077-20.512,0.727C1788.307,269.076,1788.307,262.342,1788.307,255.109z"/>
	<path style="fill:#5A5B5B;" d="M1638.601,277.115c-1.014,16.185-2.019,32.215-3.043,48.563c-6.766,0-13.36,0-20.42,0
		c-1.385-15.867-1.284-31.962-2.363-48.612c-13.677,0.123-27.397-0.329-41.428-1.544c0-6.541,0-13.091,0-20.024
		c13.571,0.836,27.147,0.293,40.863,1.681c3.021-15.851,0.684-31.6,2.741-47.478c6.96-1.117,13.575-0.178,20.717-0.458
		c0.847,15.853,1.686,31.548,2.56,47.905c14.454-1.336,28.858-0.788,43.946-1.696c-1.67,7.865-4.726,14.924-7.059,22.367
		C1662.985,278.516,1651.078,276.492,1638.601,277.115z"/>
	<path style="fill:#5B5B5C;" d="M1611.385,280.873c-3.766,10.909-7.98,20.293-11.858,29.808c-1.504,3.69-3.103,7.343-4.693,10.997
		c-1.092,2.51-3.032,3.975-5.771,4.119c-6.157,0.322-12.32,0.45-18.476-0.05c-0.434-0.035-0.842-0.389-1.584-0.753
		c6.142-14.432,13.294-28.221,21.023-41.626C1597.093,282.543,1603.798,281.759,1611.385,280.873z"/>
	<path style="fill:#5B5B5C;" d="M1588.193,251.188c-6.083-11.767-9.288-24.291-13.846-36.833c7.354,0,14.215,0,21.251,0
		c5.064,10.136,9.7,20.567,14.452,31.383C1603.149,249.053,1595.692,249.469,1588.193,251.188z"/>
	<path style="fill:#5B5B5C;" d="M1652.881,213.957c7.511,0.303,14.615-0.45,22.27,0.769c-3.788,12.31-8.21,23.773-13.154,35.329
		c-7.426-0.645-14.528-1.922-22.199-3.829C1643.782,235.208,1648.416,224.878,1652.881,213.957z"/>
	<path style="fill:#595A5A;" d="M1394.151,322.203c0-6.744,0-12.69,0-19.078c13.209,0,26.278,0,39.594,0c0-11.171,0-21.901,0-33.074
		c-14.853,0-29.588,0-44.518,0c0-7.174,0-13.904,0-20.608c10.681-1.209,102.132-0.441,109.194,0.934
		c0.807,3.168,0.405,6.498,0.495,9.783c0.086,3.127,0.018,6.259,0.018,9.823c-14.357,0-28.425,0-42.883,0
		c-0.177,11.148,0.35,21.895-1.432,32.96c13.658,0,26.751,0,40.11,0c0,6.309,0,12.237,0,18.56
		c-12.154,1.861-24.657,1.552-37.089,3.377c-2.981,13.697-0.739,27.381-2.625,40.931c15.843,0,31.08,0,46.597,0
		c1.796,5.871,1.227,12.148,1.339,18.335c-8.43,1.783-108.681,2.481-118.05,1.345c-0.203-6.293,1.413-12.485,1.004-19.22
		c15.964,0,31.701,0,47.764,0c0-14.828,0-29.225,0-44.067C1420.715,322.203,1407.646,322.203,1394.151,322.203z"/>
	<path style="fill:#5B5B5C;" d="M1458.216,327.073c7.912-1.69,15.324-2.073,23.317-1.995c5.422,12.159,11.364,24.263,15.66,37.596
		c-7.829,0-15.081,0-22.61,0C1469.079,351.032,1462.957,339.678,1458.216,327.073z"/>
</g>
</svg>
