<?xml version="1.0" encoding="iso-8859-1"?>
<!-- Generator: Adobe Illustrator 27.0.0, SVG Export Plug-In . SVG Version: 6.00 Build 0)  -->
<svg version="1.1" id="Layer_1" xmlns="http://www.w3.org/2000/svg" xmlns:xlink="http://www.w3.org/1999/xlink" x="0px" y="0px"
	 viewBox="0 0 1486 514" style="enable-background:new 0 0 1486 514;" xml:space="preserve">
<g>
	<path style="fill:#0A549B;" d="M251.155,0.792c6.899,2.123,14.139,1.955,21.178,3.146c41.762,7.064,80.498,21.407,114.324,47.533
		c7.918,6.115,15.38,12.767,22.323,19.974c1.567,1.627,3.629,3.009,3.969,5.524c-0.724,2.229-2.671,2.98-4.453,3.777
		c-21.391,9.557-42.808,19.054-64.195,28.619c-1.449,0.648-2.825,0.899-4.756,0.496c-5.537-5.492-11.572-10.966-18.174-15.776
		c-17.353-12.643-36.779-20.571-57.686-24.891c-15.848-3.274-31.905-4.913-48.108-4.023c-35.903,1.972-68.34,13.386-96.139,36.533
		c-18.514,15.416-29.531,35.188-32.66,59.272c-2.946,22.67,3.997,42.384,17.745,59.981c19.068,24.406,44.319,39.306,74.051,46.91
		c18.142,4.64,36.657,6.772,55.353,5.91c32.992-1.521,63.325-11.257,90.142-30.906c13.513-9.901,24.127-22.357,31.671-37.355
		c0.801-1.592,1.879-3.129,1.902-5.516c-2.865,0-5.68,0-8.495,0c-65.329,0-130.658,0.001-195.986-0.001
		c-8.425,0-9.142-0.724-9.167-8.996c-0.032-10.827-0.108-21.654-0.126-32.482c-0.003-1.817-0.285-3.668,0.348-5.44
		c1.124-1.454,2.645-1.955,4.4-1.942c1.167,0.009,2.333,0,3.5,0c96.327,0,192.653,0,288.98,0c8.109,0,8.536,0.53,8.966,8.744
		c1.15,21.933-2.035,43.074-10.985,63.261c-7.792,17.574-18.911,32.822-32.303,46.456c-27.704,28.204-61.115,46.654-98.956,57.403
		c-21.489,6.104-43.376,9.7-65.692,11.224c-47.99,3.276-93.635-5.561-137.188-25.646c-24.573-11.332-46.664-26.271-64.926-46.418
		c-15.351-16.937-27.516-35.837-34.348-57.876c-2.071-6.682-3.504-13.495-4.596-20.391C0.948,187.14,1.178,186.168,0,186
		c0-13,0-26,0-39c0.704-0.304,0.838-0.912,0.922-1.597c0.95-7.778,3.06-15.263,5.847-22.559
		c10.715-28.048,28.352-51.096,51.828-69.477c40.877-32.005,87.326-49.703,139.3-52.502c5.139,0.043,10.279,0.136,15.418,0.12
		C225.929,0.947,238.542,0.859,251.155,0.792z"/>
	<path style="fill:#13569C;" d="M946,514c0.13-25.638,0.254-51.276,0.429-76.913c0.004-0.577,0.588-1.149,1.068-2.028
		c4.537-0.424,9.167-0.259,13.794-0.047c1.702,0.078,2.589,1.215,3.281,2.673c0.553,1.165-0.021,2.67,1.191,3.721
		c1.797-0.303,2.675-1.885,3.926-2.875c8.986-7.116,22.179-7.184,30.943,0.058c5.091,4.207,7.723,9.954,9.112,16.238
		c1.773,8.023,0.842,15.856-2.447,23.381c-6.401,14.647-24.188,19.534-37.249,10.258c-1.063-0.755-2.117-1.522-4.049-2.913
		c0,10.035,0,19.241,0,28.447C959.333,514,952.667,514,946,514z M966.669,463.262c-0.158,3.185,0.607,6.193,2.381,8.927
		c4.414,6.8,13.223,6.994,17.92,0.397c3.623-5.09,3.653-13.668,0.065-18.78c-4.333-6.172-12.723-6.335-17.416-0.391
		C967.332,456.313,966.54,459.604,966.669,463.262z"/>
	<path style="fill:#1F599E;" d="M1486,310c-2.019,0.953-2.085,3.179-3.001,4.808c-7.98,14.193-22.139,20.462-37.546,16.133
		c-15.422-4.333-23.971-18.284-23.258-32.664c0.754-15.194,12.118-27.117,26.99-29.446c16.373-2.564,31.102,7.991,35.458,21.784
		c0.277,0.878,0.048,2.08,1.357,2.384C1486,298.667,1486,304.333,1486,310z M1453.839,273.877
		c-13.573-0.558-26.211,11.837-26.087,26.466c0.106,12.519,10.038,26.394,26.405,26.379c17.186-0.015,26.774-13.637,26.809-25.933
		C1481.011,284.741,1466.274,273.112,1453.839,273.877z"/>
	<path style="fill:#8795C3;" d="M683.047,1.044C683.031,0.696,683.016,0.348,683,0c17.667,0,35.333,0,53,0
		c-0.089,0.318-0.07,0.629,0.057,0.934C718.387,0.971,700.717,1.008,683.047,1.044z"/>
	<path style="fill:#8795C3;" d="M197.897,0.865C198.002,0.585,198.037,0.297,198,0c17.667,0,35.333,0,53,0
		c0.074,0.259,0.126,0.523,0.155,0.792c-12.613,0.068-25.226,0.155-37.84,0.193C208.176,1.001,203.037,0.908,197.897,0.865z"/>
	<path style="fill:#E9EAF3;" d="M1183.014,1.119c-0.005-0.373-0.009-0.746-0.014-1.119c8,0,16,0,24,0
		c-0.004,0.367-0.008,0.733-0.012,1.1C1198.997,1.4,1191.005,1.36,1183.014,1.119z"/>
	<path style="fill:#0A549B;" d="M683.047,1.044c17.67-0.037,35.34-0.073,53.01-0.11c6.544,2.215,13.473,1.859,20.179,3.022
		c39.452,6.841,76.515,19.669,109.05,43.698c22.08,16.307,40.832,35.671,53.701,60.204c7.72,14.717,12.357,30.362,14.224,46.924
		c1.584,14.053,0.69,27.885-2.033,41.68c-0.228,1.157-0.34,2.312-1.34,3.157c-0.873,0.524-1.868,0.459-2.874,0.459
		c-83.489-0.033-166.979-0.062-250.468-0.071c-13.83-0.002-27.66,0.09-41.49,0.137c-1,0.003-2,0.018-3-0.003
		c-6.017-0.123-7.038-1.156-7.007-6.99c0.055-10.164,0.105-20.328,0.135-30.492c0.006-2.165-0.172-4.333-0.112-6.495
		c0.107-3.85,1.225-4.937,5.159-5.153c1.329-0.073,2.666-0.016,3.999-0.015c67.323,0.047,134.647,0.094,201.97,0.141
		c3.457,0.002,6.914,0,10.336,0c1.096-2.492,0.273-4.316-0.333-6.191c-6.747-20.881-19.814-37.082-37.207-50.007
		c-21.08-15.665-44.63-25.516-70.652-29.199c-32.296-4.572-64.057-2.738-94.701,9.264c-23.025,9.018-42.933,22.607-58.352,42.188
		c-9.77,12.407-15.512,26.517-17.444,42.279c-3.406,27.797,6.065,50.958,24.931,70.82c20.347,21.421,45.455,34.286,74.059,40.668
		c11.864,2.647,23.894,3.961,36.067,4.454c33.414,1.352,64.582-6.167,93.52-22.9c9.561-5.528,18.228-12.222,25.915-20.184
		c3.1-3.211,3.836-3.308,7.866-1.53c21.568,9.517,43.124,19.061,64.666,28.635c0.86,0.382,1.992,0.467,2.626,1.947
		c-3.561,5.348-8.273,9.978-13.143,14.39c-30.493,27.628-66.164,45.375-106.04,54.789c-17.486,4.128-35.256,6.516-53.228,7.692
		c-14.338,0.938-28.624,0.778-42.876-0.47c-31.197-2.73-61.099-10.591-89.686-23.462c-18.909-8.514-36.679-18.876-52.453-32.383
		c-24.281-20.792-42.556-45.772-51.455-76.825c-10.236-35.718-5.466-69.843,12.777-101.94
		c16.176-28.462,39.535-49.985,67.546-66.517c27.166-16.033,56.511-26.258,87.526-31.809c7.368-1.319,14.748-2.486,22.224-3.002
		C680.119,1.746,681.578,1.321,683.047,1.044z"/>
	<path style="fill:#0A549B;" d="M1183.014,1.119c7.992,0.242,15.983,0.281,23.974-0.019c12.057,1.243,24.167,1.932,36.156,3.884
		c48.352,7.869,91.738,26.511,128.442,59.425c24.825,22.262,40.529,49.981,47.037,82.627c6.49,32.556,0.719,63.195-16.676,91.436
		c-19.235,31.23-45.714,54.714-78.155,71.607c-24.381,12.696-50.361,20.403-77.364,25.071c-21.713,3.753-43.548,5.592-65.553,4.46
		c-46.636-2.4-90.294-14.951-130.238-39.408c-28.55-17.481-51.279-40.651-66.392-70.754c-10.412-20.741-15.31-42.855-13.979-66.062
		c1.595-27.806,11.305-52.783,28.037-74.967c21.97-29.127,50.406-49.943,83.749-64.283c22.376-9.623,45.609-16.356,69.725-19.831
		c8.22-1.184,16.485-2.215,24.817-2.465C1178.74,1.777,1180.875,1.369,1183.014,1.119z M1195.474,290.358
		c8.466,0.071,17.957-0.308,27.358-1.555c19.361-2.567,38.035-7.74,55.848-15.815c23.478-10.644,43.602-25.677,58.502-46.873
		c18.826-26.781,23.662-56.052,12.664-87.131c-8.006-22.624-22.723-40.541-42.309-54.201
		c-36.29-25.311-76.684-36.467-120.878-34.179c-17.345,0.898-34.35,3.632-51.006,8.44c-31.519,9.1-58.345,25.515-78.771,51.543
		c-15.222,19.397-23.122,41.181-21.177,66.183c1.527,19.633,8.245,37.21,20.269,52.691c15.98,20.574,36.701,35.055,60.332,45.461
		C1141.165,285.868,1167.333,290.607,1195.474,290.358z"/>
	<path style="fill:#13569C;" d="M732.363,489.831c-4.281,1.716-9.128,2.094-13.871,2.612c-13.17,1.44-26.268,1.602-38.563-4.556
		c-12.218-6.119-18.52-16.262-19.79-29.654c-0.392-4.135-0.404-8.322,0.316-12.455c2.756-15.815,12.305-25.452,27.546-29.389
		c12.576-3.248,25.343-3.208,38.064-0.521c4.751,1.004,5.469,1.97,5.021,6.843c-0.333,3.625-0.899,7.228-1.407,11.205
		c-4.116-0.716-7.757-2.712-11.775-3.406c-7.39-1.277-14.622-0.924-21.605,1.708c-8.567,3.229-15.569,10.48-14.642,23.507
		c0.713,10.017,7.702,18.673,17.55,21.236c4.583,1.192,9.148,1.575,13.954-1.138c-0.411-4.238,1.044-8.638-0.281-12.556
		c-3.235-2.905-6.666-0.499-10.143-1.868c-2.469-4.027-1.49-8.496-0.535-12.856c3.704-1.965,18.088-2.579,29.768-1.378
		c1.663,1.194,1.953,2.938,1.902,4.845c-0.303,11.153-0.312,22.307-0.01,33.461C733.899,486.814,733.85,488.154,732.363,489.831z"/>
	<path style="fill:#10559C;" d="M451.56,434.185c-7.052-3.241-14.272-4.817-21.902-4.328c-4.192,0.269-8.229,1.155-12.066,2.808
		c-9.746,4.2-14.572,12.682-13.594,23.692c0.861,9.69,8.154,18.231,17.651,20.647c3.584,0.912,7.161,1.264,10.827,0.261
		c2.267-0.62,3.731-1.874,3.251-4.199c-0.426-2.061,0.176-3.948,0.207-5.915c0.063-4.02-1.356-5.521-5.31-5.41
		c-2.116,0.059-4.325,0.903-6.534-1.349c-0.521-3.856,0.007-8.123-0.114-12.228c3.205-1.357,25.388-1.779,30.916-0.741
		c1.328,3.198,1.735,35.529,0.522,41.553c-0.535,0.988-1.534,1.301-2.491,1.497c-12.79,2.609-25.663,4.046-38.614,1.457
		c-10.06-2.011-18.949-6.344-25.123-14.92c-6.017-8.357-7.802-17.883-6.76-27.956c0.442-4.278,1.334-8.517,3.053-12.532
		c4.875-11.385,14.079-17.4,25.587-20.28c12.466-3.12,25.046-2.96,37.594-0.322c4.782,1.005,5.674,2.419,4.713,7.366
		C452.685,426.827,453.244,430.591,451.56,434.185z"/>
	<path style="fill:#10559C;" d="M576.309,494.063c-8.096,0.207-15.486-2.2-22.261-6.312c-5.507-3.343-9.642-8.094-12.289-14.076
		c-6.016-13.598-5.904-27.248,0.915-40.323c9.689-18.576,31.258-25.312,50.55-16.648c13.723,6.163,20.898,16.868,21.237,31.589
		c0.264,11.449-2.421,22.415-9.74,31.775C597.479,489.33,588.006,493.937,576.309,494.063z M593.124,453.37
		c0.254-4.694-0.947-9.319-2.802-13.799c-2.601-6.28-7.079-9.813-14.128-9.721c-7.05,0.092-11.484,3.239-14.441,10.101
		c-1.473,3.419-2.132,7.024-2.427,10.611c-0.611,7.414,0.619,14.528,4.87,20.89c5.667,8.48,20.541,7.899,25.002-1.618
		C591.63,464.644,593.312,459.362,593.124,453.37z"/>
	<path style="fill:#13569C;" d="M223.603,491.984c-3.522,0-7.347,0.127-11.161-0.033c-4.554-0.191-5.746-1.415-6.605-5.838
		c-0.384-1.974-0.51-3.94-0.509-5.941c0.017-21.14,0.004-42.281,0.02-63.421c0.002-2.127-0.402-4.365,1.673-6.625
		c4.32-0.238,9.091-0.767,13.851-0.68c3.806,0.069,5.246,1.867,5.252,5.796c0.009,6.821-0.164,13.642-0.251,20.463
		c-0.021,1.653-0.003,3.307-0.003,5.198c2.18-0.456,3.183-2.138,4.626-3.114c8.004-5.414,16.352-5.879,25.051-1.979
		c6.382,2.862,10.006,8.165,10.275,14.799c0.533,13.127,0.227,26.288,0.239,39.435c0,0.453-0.32,0.906-0.6,1.648
		c-4.536,0.516-9.142,0.592-13.757,0.312c-2.622-0.159-4.24-1.499-4.903-4.142c-0.493-1.964-0.684-3.916-0.677-5.922
		c0.022-5.826,0.035-11.652-0.006-17.478c-0.017-2.488-0.098-4.956-0.802-7.407c-0.935-3.255-2.359-5.718-6.071-6.419
		c-3.748-0.708-6.92,0.02-9.478,2.851c-2.812,3.112-3.865,6.912-3.886,11.017c-0.037,7.158-0.002,14.315-0.019,21.473
		C225.858,487.943,226.244,490.042,223.603,491.984z"/>
	<path style="fill:#13559C;" d="M472.291,416.383c1.215-0.708,2.468-1.115,3.832-1.038c15.44,0.865,30.883,0.407,46.328,0.183
		c0.922-0.013,1.969,0.38,2.943,1.685c1.081,2.746,0.513,6.104,0.339,9.359c-0.136,2.561-1.668,3.513-5.061,3.551
		c-7.323,0.083-14.647,0.021-21.971,0.033c-1.979,0.003-4.03-0.285-6.206,1.66c-0.688,3.898-1.255,8.221,1.099,12.925
		c9.469,1.369,19.125,0.02,28.873,0.859c2.264,3.789,1.713,7.794,1.126,11.638c-0.349,2.286-2.543,2.779-4.712,2.782
		c-6.822,0.007-13.645,0.067-20.467,0.102c-0.996,0.005-2.003-0.103-2.987,0.003c-1.647,0.178-3.032,1.13-3.15,2.735
		c-0.313,4.247-1.109,8.611,1.231,12.458c2.263,1.423,4.558,1.551,6.911,1.54c6.986-0.031,13.973-0.017,20.959-0.003
		c1.485,0.003,3.005-0.167,4.908,0.912c1.336,3.615,0.923,7.705,0.28,11.749c-0.221,1.387-1.602,2.108-2.995,2.29
		c-1.314,0.172-2.655,0.192-3.984,0.193c-14.148,0.012-28.296,0.021-42.444,0.001c-5.339-0.008-5.998-0.661-6.003-6.058
		c-0.019-21.472-0.011-42.943-0.001-64.415C471.14,419.885,470.832,418.169,472.291,416.383z"/>
	<path style="fill:#10559C;" d="M828.089,493.063c-9.426,0.03-18.104-2.124-25.228-8.772c-6.725-6.276-9.131-14.293-8.375-23.071
		c1.367-15.858,10.868-25.199,26.711-27.355c7.396-1.006,14.589-0.609,21.562,2.115c13.454,5.256,20.287,18.324,17.842,32.546
		c-2.948,17.153-16.682,23.754-28.52,24.524C830.756,493.138,829.42,493.063,828.089,493.063z M840.117,463.822
		c0.182-3.275-0.401-6.314-1.833-9.222c-2.294-4.66-6.009-6.923-11.159-6.843c-5.084,0.08-8.433,2.758-10.244,7.326
		c-2.022,5.099-2.106,10.38-0.43,15.567c1.58,4.891,5.873,7.985,10.794,8.207c5.107,0.231,9.116-2.331,11.323-7.351
		C839.645,469.052,840.229,466.464,840.117,463.822z"/>
	<path style="fill:#10559C;" d="M1190.294,491.814c-4.125,0.441-8.438,0.507-12.739,0.208c-3.718-0.259-4.858-1.445-5.642-5.116
		c-0.808-3.781-0.521-7.612-0.572-11.428c-0.073-5.489-0.013-10.984-0.275-16.464c-0.241-5.029-2.405-7.46-6.882-8.409
		c-4.26-0.903-8.352,0.899-10.492,4.781c-2.056,3.729-2.665,7.828-2.681,12.028c-0.022,5.821,0.102,11.644-0.039,17.462
		c-0.126,5.185-1.715,6.739-6.954,7.049c-2.82,0.167-5.658,0.144-8.483,0.06c-3.527-0.105-4.477-0.966-4.629-4.4
		c-0.125-2.819,0.084-5.652,0.082-8.478c-0.01-12.98-0.042-25.96-0.063-38.94c-0.003-1.643-0.275-3.346,0.883-4.637
		c0.957-0.773,1.976-0.696,2.964-0.672c4.141,0.1,8.303-0.308,12.146,0.312c3.044,1.943,1.694,4.987,2.456,7.354
		c1.061,0.101,1.465-0.723,2.01-1.309c7.233-7.784,16.281-9.405,26.048-6.874c7.25,1.879,12.007,6.821,13.651,14.392
		c0.497,2.286,0.783,4.582,0.783,6.918c-0.002,10.484,0.003,20.969-0.006,31.453
		C1191.859,488.578,1192.137,490.136,1190.294,491.814z"/>
	<path style="fill:#10559C;" d="M931.443,491.993c-3.774,0-7.747,0.057-11.717-0.02c-2.615-0.051-4.47-1.164-4.794-4.044
		c-0.147-1.304-0.264-2.637-1.284-3.84c-2.114,1.885-3.817,4.215-6.283,5.612c-7.556,4.279-15.493,4.853-23.488,1.646
		c-7.651-3.069-11.162-9.692-11.55-17.302c-0.627-12.289-0.234-24.631-0.235-36.95c0-0.445,0.381-0.889,0.701-1.589
		c4.234-1.174,8.651-1.547,13.103-0.926c4.313,0.602,5.758,2.157,5.994,6.549c0.241,4.485,0.292,8.987,0.229,13.478
		c-0.061,4.335,0.291,8.631,0.722,12.93c0.474,4.733,2.377,7.481,5.797,8.383c4.423,1.166,8.888-0.501,11.265-4.422
		c2.213-3.649,2.86-7.761,2.929-11.953c0.095-5.826-0.026-11.657,0.156-17.479c0.165-5.286,1.699-6.784,6.886-7.076
		c2.823-0.159,5.66-0.192,8.487-0.118c3.808,0.1,4.533,0.884,4.63,4.827c0.069,2.829,0.014,5.661,0.014,8.492
		c0,12.655,0.017,25.31-0.019,37.965C932.981,487.935,933.504,489.86,931.443,491.993z"/>
	<path style="fill:#10559C;" d="M336.458,468.651c-2.385,0.873-4.566,0.467-6.701,0.479c-8.996,0.051-17.993,0.002-26.99,0.04
		c-1.578,0.007-3.432-0.655-4.575,1.631c1.736,4.823,5.393,7.563,10.531,8.289c6.355,0.898,12.6,0.351,18.621-2.064
		c1.047-0.42,1.994-1.237,3.464-0.95c0.693,3.152,0.974,6.442,0.974,9.73c0,2.465-0.835,4.534-3.688,5.176
		c-9.158,2.063-18.314,3.283-27.645,1.003c-17.532-4.284-24.093-17.068-22.912-33.537c1.242-17.325,19.413-27.616,35.16-25.14
		c18.008,2.831,23.812,17.242,24.943,28.755C337.856,464.246,337.416,466.36,336.458,468.651z M318.667,456.009
		c-0.463-4.236-2.184-7.698-6.805-9.102c-4.156-1.263-7.964-0.699-10.902,2.602c-1.891,2.124-4.183,4.435-1.892,8.241
		c5.802,0,11.716,0.03,17.629-0.034C317.524,457.706,318.159,457.004,318.667,456.009z"/>
	<path style="fill:#13559C;" d="M175.862,492.018c-3.992-0.039-8.116,0.246-12.243,0.567c-5.4,0.42-7.85-1.884-7.415-7.397
		c1.259-15.945,0.267-31.905,0.695-47.85c0.059-2.181,0.224-4.317-1.633-6.239c-3.542,0-7.172-0.038-10.801,0.009
		c-5.102,0.066-6.552-1.236-6.425-6.452c0.068-2.768-0.504-5.666,1.053-8.522c0.633-0.221,1.407-0.741,2.162-0.715
		c7.456,0.262,14.907-0.422,22.381,0.259c5.44,0.496,10.966,0.492,16.429-0.096c3.821-0.412,7.634-0.184,11.449-0.198
		c1.487-0.005,2.979,0.36,4.203,1.858c0.888,2.332,0.421,5.018,0.395,7.636c-0.049,4.876-1.021,5.883-5.804,6.05
		c-3.805,0.133-7.618,0.027-11.047,0.027c-1.991,1.852-1.363,3.798-1.368,5.547c-0.046,16.302-0.024,32.604-0.032,48.907
		C177.862,487.545,178.212,489.778,175.862,492.018z"/>
	<path style="fill:#10559C;" d="M1250.402,449.505c-3.276,1.509-5.855-0.271-8.516-0.901c-7.724-1.828-15.892,2.943-17.737,10.542
		c-2.223,9.157,3.571,17.606,13.005,18.802c2.962,0.376,5.954,0.519,8.83-0.778c1.187-0.536,2.519-0.751,3.686-1.084
		c2.87,2.479,3.149,4.382,2.155,13.934c-1.761,2.223-4.467,1.944-6.842,2.383c-7.991,1.477-15.901,0.992-23.555-1.796
		c-10.053-3.661-16.219-10.821-17.951-21.398c-2.069-12.635,1.159-22.994,11.241-29.891c7.681-5.254,16.496-6.804,25.686-5.822
		c2.613,0.279,5.294,0.459,7.814,1.459c3.307,1.313,4.448,2.694,3.461,6.063C1250.874,443.769,1251.886,446.706,1250.402,449.505z"
		/>
	<path style="fill:#13559C;" d="M1095.53,416.124c4.634-1.254,9.683-1.167,14.79-0.343c3,0.484,4.193,2.555,4.544,5.167
		c0.308,2.294,0.276,4.643,0.278,6.968c0.019,19.284,0.021,38.568-0.005,57.852c-0.003,1.939,0.461,4.028-1.473,5.963
		c-4.631,0.289-9.56,0.854-14.484,0.817c-3.386-0.026-5.023-1.97-5.168-5.492c-0.15-3.644,0.11-7.304,0.113-10.956
		c0.017-17.954-0.002-35.908,0.022-53.862C1094.149,420.286,1093.702,418.214,1095.53,416.124z"/>
	<path style="fill:#10559C;" d="M790.079,434.27c1.283,4.762,0.352,8.863-0.252,12.919c-0.289,1.937-2.018,3.055-3.921,3.412
		c-1.285,0.241-2.654,0.207-3.968,0.094c-6.946-0.597-10.267,3.85-11.841,8.562c-0.953,2.853-1.141,5.85-1.114,8.874
		c0.067,7.474,0.022,14.95,0.022,21.831c-0.949,1.5-1.776,2.016-2.846,2.025c-3.828,0.034-7.665,0.201-11.482,0.001
		c-3.444-0.181-5.107-1.863-5.55-5.256c-0.258-1.973-0.265-3.988-0.268-5.985c-0.021-13.495-0.021-26.99,0.002-40.485
		c0.003-1.625-0.388-3.364,1.247-5.099c3.915-0.22,8.176-0.651,12.435-0.642c3.819,0.008,5.507,2.51,5.533,6.632
		C774.304,434.344,781.28,431.682,790.079,434.27z"/>
	<path style="fill:#13569C;" d="M1017.374,502.755c-0.897-2.336-0.555-4.354-0.12-6.263c1.288-5.656,2.671-11.294,4.186-16.893
		c1.333-4.927,2.322-5.628,7.277-5.739c2.662-0.06,5.327-0.04,7.989,0.023c1.297,0.03,2.718-0.11,3.802,1.698
		c0.655,1.29-0.308,2.864-0.808,4.352c-2.217,6.596-4.619,13.129-6.921,19.697c-1.001,2.854-2.886,4.431-5.981,4.224
		C1023.694,503.647,1020.453,504.603,1017.374,502.755z"/>
	<path style="fill:#13569C;" d="M1281.726,474.615c0.96,6.075,1.983,11.496-0.074,17.109c-5.08,0.668-9.849,0.267-14.604,0.111
		c-1.637-0.054-2.954-1.006-3.025-2.729c-0.184-4.447-0.597-8.914,0.259-13.34c0.084-0.433,0.569-0.789,1.171-1.579
		C1270.534,473.801,1275.88,473.334,1281.726,474.615z"/>
	<path style="fill:#E9EAF3;" d="M318.667,456.009c-0.508,0.995-1.143,1.697-1.971,1.706c-5.913,0.065-11.828,0.034-17.629,0.034
		c-2.29-3.806,0.001-6.117,1.892-8.241c2.938-3.301,6.747-3.865,10.902-2.602C316.483,448.311,318.204,451.772,318.667,456.009z"/>
	<path style="fill:#1F599E;" d="M1460.914,300.728c3.017,5.432,5.805,11.046,8.122,16.875c-3.951,2.014-6.246,1.405-7.907-2.396
		c-1.325-3.03-2.287-6.224-3.949-9.107c-2.277-3.948-4.1-4.499-8.751-2.582c-0.827,4.627,0.23,9.462-0.518,14.154
		c-1.616,1.629-3.23,1.563-5.25,0.14c0-11.683,0-23.543,0-35.887c6.475-0.878,12.573-1.17,18.715,0.85
		c5.083,1.672,7.318,12.22,1.977,15.404C1462.528,298.672,1461.581,299.134,1460.914,300.728z M1448.781,296.953
		c3.192,0.244,5.931,0.316,8.621-0.822c1.935-0.819,2.648-2.3,2.779-4.266c0.138-2.056-0.608-3.763-2.544-4.33
		c-2.939-0.862-6.009-1.722-9.054,0.071C1447.789,290.65,1447.967,293.521,1448.781,296.953z"/>
	<path style="fill:#37B358;" d="M1188.027,111.087c1.306,0.042,2.065-0.976,3.012-1.597c3.254-2.137,6.629-3.764,10.7-3.203
		c0.596,0.082,1.248-0.242,2.015-0.408c1.261-3.324-0.293-6.078-1.16-8.989c-1.984,0.688-1.479,2.208-1.601,3.454
		c-0.125,1.272-0.712,2.173-2.094,2.732c-2.343,0.389-3.987-2.951-7.256-1.009c1.004-6.365,4.793-10.352,7.528-14.814
		c4.303-0.617,8.254-0.555,12.133,0.617c3.406,1.028,3.563,2.063,0.8,5.044c0.461,1.403,1.431,2.05,3.271,1.949
		c1.03-2.704,2.43-5.348,5.907-5.677c2.791-0.264,5.638,0.327,7.906-0.291c2.025-1.171,1.617-3.407,3.235-4.3
		c3.202-1.524,5.147,1.161,7.798,2.557c1.183-1.31,1.102-3.06,1.684-4.502c1.388-3.436,3.93-5.282,7.364-4.457
		c4.873,1.171,9.793,1.655,14.75,2.136c3.964,0.385,7.653,1.931,11.152,3.558c5.526-5.123,5.519-5.113,11.655-0.753
		c1.823,1.296,3.924,1.689,6.125,1.733c9.983,0.197,17.713,4.734,23.979,12.272c2.016,2.425,3.173,4.999,3.099,8.152
		c-0.054,2.316-0.011,4.634-0.011,7.195c-5.536-1.669-5.796-6.942-7.681-11.762c-3.617,4.081-10.36,0.063-12.223,6.173
		c0.682,2.234,2.417,2.006,3.784,2.44c0.047,1.152,0.668,1.971,1.537,2.646c0.732,0.917,0.081,2.52,1.527,3.083l-0.069-0.034
		c0.065,4.107,1.016,8.251-0.783,12.268c-0.756,1.688,0.288,3.18,0.953,4.701c1.049,2.396,0.541,4.162-2.147,4.908
		c-3.257-1.263-0.592-7.829-6.516-6.673c0.385,3.993,2.241,7.534,3.017,11.335c0.463,2.266,1.207,4.477,1.611,6.751
		c1.113,6.276-1.923,9.788-8.296,9.727c-0.661-0.006-1.321-0.066-2.131-0.109c-1.788,2.866-0.6,5.228,1.024,7.684
		c2.363,3.572,2.144,4.528-1.092,7.407c-1.656,0.158-1.556-2.741-3.531-2.028c-0.712-1.613-2.097-0.755-3.215-0.876
		c-1.472-1.783-2.809-3.704-4.448-5.317c-2.629-2.586-4.041-5.887-5.468-9.039c-1.954,0.14-2.674,1.296-2.786,2.658
		c-0.233,2.847-1.891,4.949-3.526,6.997c-2.234,2.797-3.947,5.716-3.624,9.353c-1.832,0.596-2.276-0.714-2.756-1.64
		c-2.898-5.581-6.389-10.859-8.556-16.815c-1.468-4.034-4.153-6.66-8.531-7.457c-3.289-0.599-6.037-2.55-8.994-3.972
		c-0.186-0.246-0.373-0.491-0.559-0.736c-0.461,0.457-0.38,0.838,0.159,1.156c0.788,4.319,0.788,4.319,7.002,5.034
		c1.69,1.728,2.303,4.161,3.533,6.502c-2.391,3.311-5.33,5.982-8.315,8.566c-1.381,1.195-3.183,1.705-5.119,1.615
		c-1.679-0.078-2.994,0.435-2.663,2.677c2.324,1.672,4.334-0.5,6.576-0.638c1.919,0.53,2.642,1.961,2.192,3.791
		c-0.743,3.026-1.37,6.044-4.214,8.162c-5.976,4.448-7.72,10.774-6.389,17.768c1.067,5.604-0.14,9.819-5.165,12.744
		c-0.403,0.235-0.654,0.73-1.138,1.292c1.241,3.621,0.267,7.011-1.65,10.285c-0.748,1.277-1.264,2.686-1.477,4.212
		c-0.511,3.668-2.967,5.866-6.078,7.383c-3.735,1.821-6.369,0.907-8.289-2.722c-0.386-0.73-0.716-1.51-0.938-2.304
		c-1.572-5.618-3.378-11.035-7.452-15.547c-2.002-2.217-1.682-5.501-0.576-8.116c3.45-8.163,1.448-15.987-0.977-23.836
		c-0.886-2.869-2.829-4.486-5.92-4.344c-1.822,0.084-3.666,0.229-5.444,0.609c-4.975,1.063-8.92-0.607-11.79-4.583
		c-3.238-4.487-5.287-9.572-6.477-14.978c-0.697-3.167-0.142-5.964,2.675-7.98c2.783-1.992,4.475-4.895,6.321-7.656
		c8.092-12.108,20.858-13.584,31.388-3.344c3.55-1.481,7.262-0.243,10.9,0.242c1.771-2.08,1.771-2.08,1.905-4.769
		c-0.666-1.836-3.164-1.851-3.856-3.922c0.913-4.679,6.075-4.389,8.767-6.925c-1.168-4.989-1.874-5.446-7.85-5.192
		c-2.677,1.377-2.505,5.034-5.068,6.519c-4.143,1.48-4.898-4.122-8.494-4.11c-1.46,2.397,3.673,4.696,0.07,6.969
		c-1.077-0.233-1.446-1.257-2.14-1.921c-3.982-3.809-7.649-3.821-11.85-0.081c-2.107,1.876-4.249,3.711-7.086,6.185
		c-0.432,0.088-1.435-0.662-2.377-1.9c0.046-2.535-0.209-5.192,0.731-7.024c1.599-1.972,3.611-1.514,5.157-2.889
		c-1.616-3.39-0.871-6.49,1.953-9.086l-0.075,0.07c0.638-0.067,1.064-0.35,1.074-1.056L1188.027,111.087z M1229.285,164.387
		c-0.936-9.011-3.388-15.136-8.242-21.305C1220.744,151.701,1224.811,158.154,1229.285,164.387z"/>
	<path style="fill:#39B359;" d="M1095.72,155.09c3.133-2.317,3.133-2.317,5.682-0.837c0.586,1.954-1.356,3.717-0.452,6.126
		c2.183,1.631,4.542,3.579,6.281,6.27c2.06,3.19,5.712,3.277,8.569,2.139c5.025-2.001,8.675,0.759,12.687,2.493
		c4.234,1.83,7.936,4.359,9.33,9.082c0.753,2.551,2.503,4.028,4.845,4.535c4.217,0.912,6.84,3.918,9.695,6.683
		c1.776,1.721,2.316,3.721,0.867,5.832c-5.092,7.419-6.171,16.794-11.837,23.959c-2.194,2.775-2.277,6.529-3.276,9.34
		c-1.244,1.922-3.249,0.715-4.028,1.699c-2.311,2.023-1.748,4.535-2.121,6.713c-0.734,1.091-1.928,1.337-2.91,1.92
		c-4.101,2.436-5.018,5.187-3.257,9.643c2.076,5.252,1.416,6.902-3.938,9.808c-1.768-0.87-1.789-2.628-2.116-4.226
		c-1.332-6.519-2.315-13.099-2.7-19.735c-0.335-5.777-1.165-11.532-0.256-17.38c0.727-4.679-1.486-8.366-5.209-11.187
		c-3.227-2.446-6.082-5.256-7.396-9.201c-1.916-5.757-0.869-11.108,2.411-16.154c1.241-1.909,3.135-3.496,3.361-5.821
		c-0.988-2.671-3.466-2.514-5.56-3.296c-1.936-4.03-5.479-6.368-9.315-8.534c-6.396-3.612-11.571-8.365-13.472-15.895
		c-0.375-1.487-0.384-2.956-0.551-4.435c-0.112-0.992-0.255-1.966-1.697-2.481c-0.866,3.174,0.302,6.354-0.603,9.34
		c-9.375-9.249-11.543-29.824-4.862-44.551c-3.108-4.659-1.302-8.452,2.423-12.122c4.442-4.376,8.855-8.414,15.499-9.228
		c3.608-0.443,6.987,0.115,10.303,1.027c5.138,1.413,10.073,2.44,14.185-1.725c2.083,0.81,2.822,2.307,3.908,3.687
		c-2.735,5.196-9.059,7.581-10.438,13.353c1.328,1.964,3.187,1.73,3.764,1.941c2.434,1.011,2.349,3,3.849,3.783
		c3.365-2.988,2.255-8.232,5.74-11.421c4.09-0.537,7.292,1.257,9.606,4.591c1.611,2.321,3.134,4.666,5.448,6.34
		c0.283,2.972-1.063,4.374-3.707,5.102c-2.189,0.602-4.234,0.326-6.392-0.012c-2.238-0.351-3.54,0.616-3.015,3.039
		c1.486,2.092,4.592,1.258,6.03,3.789c-1.504,2.509-4.242,3.569-6.67,4.748c-4.073,1.978-7.55,4.166-8.062,9.213
		c-0.134,1.321-0.938,2.579-2.215,3.177c-4.231,1.982-4.937,5.467-4.326,9.605c0.067,0.454-0.159,0.95-0.257,1.468
		c-1.715,1.042-2.972,0.458-3.534-1.194c-1.288-3.791-4.389-4.677-7.782-5.21c-3.436-0.54-4.51,0.063-5.709,3.181
		C1090.976,148.141,1091.979,151.619,1095.72,155.09z"/>
	<path style="fill:#39B359;" d="M1280.729,236.971c-4.254-2.282-4.002-2.275-3.897-6.558c0.212-8.642,4.426-14.325,12.191-17.671
		c2.148-0.926,3.984-2.316,5.812-3.784c2.418-1.943,4.79-4.209,8.284-3.897c2.683,1.464,1.913,4.78,3.605,6.756
		c2.017-0.57,2.274-2.933,4.448-3.715c1.066,5.152,3.458,9.871,4.266,15.076c1.138,7.326-5.91,17.995-13.05,19.741
		c-1.283,0.314-2.625,0.459-3.885-0.176c-0.815-0.679-1.155-1.575-1.44-2.551c-1.522-5.225-5.392-7.246-10.625-5.502
		C1284.561,235.315,1282.755,236.154,1280.729,236.971z"/>
	<path style="fill:#39B359;" d="M1164.943,88.939c-9.601-1.63-13.93,4.822-17.986,13.102c-3.874-7.038-5.596-12.959-1.958-19.205
		c-1.705-3.663-5.138-3.131-7.802-4.124c1.71-5.279,5.62-8.385,11.183-8.309c3.063,0.042,5.927-0.203,8.612-1.712
		c1.544-0.867,3.417-1.221,4.799-0.446c4.67,2.621,9.669,3.065,15.269,2.572c-1.425,4.025-4.108,6.461-6.65,8.966
		c-2.63,2.591-4.851,5.383-5.468,9.156L1164.943,88.939z"/>
	<path style="fill:#4DB865;" d="M1331.076,202.615c-7.951,2.192-11.566-0.629-15.64-11.776
		C1321.859,189.388,1328.422,194.245,1331.076,202.615z"/>
	<path style="fill:#4DB865;" d="M1237.09,202.774c2.034,1.387,2.396,3.316,1.763,4.979c-2.037,5.359-4.382,10.602-6.587,15.837
		c-4.404-1.566-5.131-2.982-3.622-6.163c0.422-0.889,1.321-1.716,1.354-2.596C1230.199,209.453,1234.446,206.66,1237.09,202.774z"/>
	<path style="fill:#4DB865;" d="M1136.949,89.456c-3.13,2.84-6.477,4.162-10.456,1.543c-1.068-1.544,1.206-2.722,0.375-4.151
		c-0.597-1.866-3.248-1.667-3.662-3.704C1129.573,80.404,1134.841,82.78,1136.949,89.456z"/>
	<path style="fill:#4DB865;" d="M1300.337,191.68c-4.045-1.296-5.892-3.757-5.316-8.131c2.736-1.14,4.117-3.899,6.282-5.819
		C1306.242,182.451,1305.221,187.777,1300.337,191.68z"/>
	<path style="fill:#66BE7B;" d="M1300.647,252.22c2.486-3.074,4.933-5.814,7.914-7.851c3.526-2.411,6.413-5.212,7.955-9.121
		c2.096-0.507,2.89,0.629,3.432,2.124c-0.137,0.353-0.167,0.768-0.387,0.943c-2.882,2.298-5.162,5.158-7.556,7.921
		c-1.965,2.268-4.152,4.318-6.724,5.916C1303.999,252.947,1302.744,253.863,1300.647,252.22z"/>
	<path style="fill:#5ABB6E;" d="M1122.272,77.449c3.187-5.294,7.469-6.92,15.15-5.751
		C1135.825,77.463,1131.873,78.963,1122.272,77.449z"/>
	<path style="fill:#5ABB6E;" d="M1291.94,195.031c-1.99,0.195-3.156-1.16-3.903-2.573c-2.07-3.909-4.587-7.648-5.334-12.146
		c0.128-0.135,0.256-0.271,0.383-0.408c2.21,0.159,3.117,2.368,4.938,3.138l-0.065-0.062c2.501,3.658,5.025,7.306,4.756,12.057
		C1292.457,194.951,1292.199,194.949,1291.94,195.031z"/>
	<path style="fill:#66BE7B;" d="M1187.073,112.001c-1.755-0.574-3.618,0.795-5.434-0.352c-1.736-1.976,0.305-3.653,0.669-5.452
		c0.393-1.942-1.307-3.421-0.93-5.255c0.848-1.233,1.828-1.368,3.278-0.317c0.111,2.604,0.743,5.309,3.038,6.728
		c0.659,1.489-0.567,2.659,0.335,3.734l0.044-0.072c-1.045-0.346-1.287,0.123-1.074,1.056L1187.073,112.001z"/>
	<path style="fill:#70C383;" d="M1307.068,162.022c2.52,0.319,3.153,1.611,2.415,3.502c-0.944,2.422-0.236,4.481,0.986,6.531
		c1.122,1.881,2.187,3.792,0.142,5.768C1305.662,171.992,1304.334,166.4,1307.068,162.022z"/>
	<path style="fill:#66BE7B;" d="M1309.681,137.324c3.68-2.819,5.261-5.878,3.945-10.019c4.096,1.395,5.464,4.039,4.347,7.514
		C1317.1,137.535,1314.732,138.417,1309.681,137.324z"/>
	<path style="fill:#70C383;" d="M1291.94,195.031c0.259-0.082,0.517-0.079,0.774,0.006c5.526,0.783,10.97,2.168,17.698,2.188
		c-6.063,2.61-11.156,2.362-16.298,0.837C1292.643,197.625,1292.182,196.388,1291.94,195.031z"/>
	<path style="fill:#66BE7B;" d="M1285.785,170.126c1.118,0.121,2.503-0.738,3.215,0.876c-0.348,1.831-0.097,3.515,0.922,5.141
		c1.14,1.82,1.661,3.859,1.583,5.931c-0.928,1.624-2.59-0.265-3.548,0.906l0.065,0.062
		C1287.453,178.707,1287.009,174.349,1285.785,170.126z"/>
	<path style="fill:#70C383;" d="M1305.433,111.983c-0.869-0.675-1.49-1.494-1.537-2.646c5.778,0.327,7.524,2.078,7.539,7.522
		c-1.979,0.549-2.282-3.019-4.544-1.827l0.069,0.034C1307.675,113.431,1307.294,112.34,1305.433,111.983z"/>
	<path style="fill:#5ABB6E;" d="M1103.12,81.449c2.755-0.685,5.118-0.712,7.57-0.048c0.356,2.513-0.89,3.505-2.994,3.603
		C1105.538,85.105,1103.281,85.164,1103.12,81.449z"/>
	<path style="fill:#66BE7B;" d="M1108.037,150.411c2.925-0.944,5.14-0.315,6.631,2.437
		C1111.524,156.114,1110.548,155.756,1108.037,150.411z"/>
	<path style="fill:#70C383;" d="M1164.941,88.939c1.412,0.957,3.362-0.457,4.656,1.152c0.32,3.495,0.295,3.518-3.894,3.48
		c-1.642-1.321,0.203-3.203-0.761-4.632L1164.941,88.939z"/>
	<path style="fill:#70C383;" d="M1116.223,154.813c1.34-0.631,2.248-0.669,3.159-0.156c0.816,0.806,0.63,1.73,0.343,2.684
		c-0.959,0.897-2.004,0.767-3.03,0.314C1115.764,156.821,1116.064,155.878,1116.223,154.813z"/>
	<path style="fill:#5ABB6E;" d="M1282.703,180.312c-0.464-0.269-0.795-0.576-0.203-1.026c0.024-0.019,0.383,0.402,0.586,0.618
		C1282.958,180.041,1282.831,180.177,1282.703,180.312z"/>
	<path style="fill:#E9EAF3;" d="M1229.285,164.387c-4.474-6.232-8.541-12.686-8.242-21.305
		C1225.897,149.25,1228.348,155.376,1229.285,164.387z"/>
</g>
</svg>
