<?xml version="1.0" encoding="iso-8859-1"?>
<!-- Generator: Adobe Illustrator 27.0.0, SVG Export Plug-In . SVG Version: 6.00 Build 0)  -->
<svg version="1.1" id="Layer_1" xmlns="http://www.w3.org/2000/svg" xmlns:xlink="http://www.w3.org/1999/xlink" x="0px" y="0px"
	 viewBox="0 0 1601 1675" style="enable-background:new 0 0 1601 1675;" xml:space="preserve">
<g>
	<path style="fill:#283561;" d="M1214,1675c-404.667,0-809.333,0-1214,0c0-404.667,0-809.333,0-1214
		c193.159,0,386.318,0,579.476-0.003c2.166,0,4.332-0.042,6.499-0.065c1.717,3.779,3.418,7.566,5.155,11.335
		c13.929,30.229,29.839,59.403,47,87.9c13.131,21.805,26.995,43.162,41.784,63.862c21.085,29.512,43.393,58.094,66.982,85.681
		c17.214,20.131,34.968,39.763,53.353,58.805c20.482,21.214,41.829,41.549,63.78,61.263c18.457,16.576,37.219,32.787,56.638,48.204
		c30.494,24.208,61.917,47.15,94.81,68.036c37.095,23.555,75.31,45.058,115.312,63.311c21.459,9.792,43.356,18.501,65.58,26.394
		c5.912,2.1,12.098,3.43,17.733,6.309c-0.008,1.833-0.023,3.666-0.023,5.5c-0.007,175.325-0.011,350.65-0.022,525.975
		C1214.055,1607.338,1214.02,1641.169,1214,1675z M405.693,1267.673c1.638-7.521,3.317-14.785,4.79-22.091
		c3.095-15.36,5.744-30.746,3.577-46.542c-2.735-19.935-11.744-35.752-29.389-46.191c-12.866-7.611-26.989-11.185-41.634-12.604
		c-23.676-2.294-47.238-1.531-70.34,4.829c-25.067,6.901-45.631,20.416-60.816,41.786c-10.716,15.082-17.811,31.803-22.837,49.49
		c-4.318,15.194-7.027,30.751-10.3,46.179c-8.789,41.428-17.717,82.828-26.205,124.317c-3.419,16.713-4.343,33.673-1.487,50.653
		c2.265,13.468,7.423,25.499,17.616,34.961c11.365,10.55,25.321,14.837,40.33,16.512c10.13,1.13,20.25,1.279,30.403,0.078
		c8.118-0.961,16.094-2.451,23.686-5.517c13.589-5.489,24.462-14.636,33.946-25.598c2.149-2.484,4.298-4.967,7.06-8.159
		c-0.979,11.186-1.872,21.397-2.789,31.874c18.979,0,37.58,0,56.729,0c13.534-63.828,27.085-127.738,40.719-192.039
		c-37.944,0-75.197,0-112.761,0c-4.492,21.078-8.965,42.067-13.497,63.334c10.25,0.206,19.811-0.18,29.72,0.281
		c-2.424,11.138-4.651,21.517-6.948,31.88c-1.69,7.624-3.547,15.208-7.096,22.236c-4.048,8.013-9.76,14.163-18.675,16.867
		c-8.066,2.447-16.126,2.299-24.082-0.088c-7.632-2.29-11.777-7.725-12.597-15.655c-0.431-4.173-0.147-8.321,0.708-12.415
		c4.547-21.786,9.089-43.574,13.702-65.346c7.574-35.744,15.195-71.479,22.81-107.214c1.592-7.472,3.272-14.908,6.698-21.836
		c4.458-9.016,11.27-15.185,21.168-17.461c6.375-1.466,12.823-1.692,19.333-0.352c6.363,1.309,10.376,4.858,12.06,11.121
		c1.415,5.261,1.152,10.62,0.471,15.879c-1.065,8.232-2.665,16.387-4.444,24.511c-0.871,3.975-2.371,7.903-2.231,12.321
		C350.578,1267.673,377.856,1267.673,405.693,1267.673z M863.018,1501.05c-0.114-2.006-0.073-3.501-0.302-4.953
		c-1.073-6.806-0.984-13.569,0.097-20.384c1.693-10.674,4.192-21.182,6.411-31.742c9.665-45.99,19.6-91.923,29.216-137.923
		c2.283-10.921,3.502-22.002,1.627-33.225c-1.61-9.635-5.284-18.069-12.466-24.919c-7.993-7.622-17.857-11.355-28.259-13.898
		c-15.31-3.744-30.932-4.231-46.62-4.2c-15.905,0.032-31.55,1.789-46.796,6.308c-21.09,6.251-39.181,17.169-52.703,34.911
		c-11.15,14.63-16.847,31.453-20.019,49.594c25.075,0,49.972,0,74.609,0c0.862-0.907,0.979-1.73,1.202-2.535
		c1.951-7.031,3.871-14.054,6.965-20.726c6.442-13.894,18.884-18.477,32.385-17.272c7.514,0.671,12.431,5.034,14.663,12.319
		c1.826,5.963,1.143,11.824-0.576,17.667c-3.256,11.075-11.322,17.717-21.1,22.664c-10.587,5.355-22.102,8.08-33.419,11.307
		c-14.84,4.232-29.72,8.284-43.753,14.909c-15.975,7.542-29.262,18.23-39.632,32.598c-9.296,12.88-14.826,27.335-18.701,42.581
		c-3.116,12.258-4.335,24.616-1.75,37.058c2.969,14.286,10.682,25.185,23.926,31.956c7.717,3.945,15.933,5.556,24.446,6.254
		c15.232,1.248,29.857-1.134,43.69-7.615c11.231-5.263,20.998-12.767,30.367-20.81c0.905-0.777,1.54-2.268,3.65-1.564
		c0,7.141,0,14.399,0,21.638C814.575,1501.05,838.527,1501.05,863.018,1501.05z M1022.088,1500.774
		c3.691-17.461,7.375-34.885,11.154-52.761c-7.092,0.012-13.529,0.24-20.001,0.608c-10.455,0.595-13.031-4.344-12.711-12.253
		c0.027-0.664,0.14-1.325,0.207-1.988c0.56-5.472,2.025-10.765,3.16-16.125c8.774-41.423,17.533-82.849,26.312-124.271
		c0.169-0.796,0.4-1.629,2.089-2.509c10.741,0,22.337,0,34.151,0c3.911-18.195,7.739-36.004,11.685-54.362
		c-12.011,0-23.604,0-35.748,0c5.347-25.28,10.573-49.99,15.87-75.036c-25.436,0-50.182,0-75.06,0
		c-5.391,25.151-10.731,50.063-16.121,75.212c-10.217,0-19.82,0-29.587,0c-3.854,18.149-7.637,35.962-11.558,54.426
		c9.994,0,19.553,0,29.412,0c-0.304,2.062-0.441,3.531-0.746,4.965c-1.8,8.445-3.666,16.875-5.462,25.321
		c-8.599,40.44-17.223,80.874-25.743,121.331c-1.994,9.467-3.292,18.993-1.427,28.719c2.309,12.039,8.402,21.232,19.541,26.66
		c8.484,4.134,17.604,6,26.983,6.245C986.348,1505.422,1004.005,1503.123,1022.088,1500.774z M612.794,1501.045
		c25.012-117.82,49.936-235.222,74.929-352.952c-25.189,0-50.073,0-75.125,0c-12.537,59.024-25.031,117.798-37.502,176.576
		c-12.453,58.688-24.883,117.381-37.387,176.376C563.088,1501.045,587.695,1501.045,612.794,1501.045z M481.95,1500.962
		c18.659-87.824,37.307-175.591,55.981-263.485c-25.197,0-49.937,0-75.121,0c-18.672,87.892-37.288,175.524-55.974,263.485
		C431.93,1500.962,456.535,1500.962,481.95,1500.962z M468.588,1211.228c11.046,1.128,71.484,0.67,75.028-0.519
		c4.426-20.768,8.867-41.604,13.355-62.66c-25.277,0-50.006,0-74.906,0C477.151,1169.055,472.817,1189.964,468.588,1211.228z"/>
	<path style="fill:#999591;" d="M1601,822c-1.399,1.163-0.828,2.785-0.895,4.206c-1.2,25.59-6.352,50.341-15.711,74.197
		c-10.335,26.346-26.167,48.894-47.217,67.759c-4.452,3.99-9.111,7.778-14.089,11.133c-1.08,0.728-2.091,1.593-3.381,1.769
		c-0.916-0.942-0.29-1.623,0.137-2.295c12.995-20.482,20.916-42.984,25.765-66.565c2.436-11.848,3.841-23.898,4.589-36.031
		c0.513-8.317,0.928-16.619,0.691-24.929c-0.437-15.281-1.556-30.505-3.681-45.672c-6.397-45.643-19.356-89.453-36.396-132.151
		c-19.42-48.662-44.034-94.64-71.803-138.991c-20.683-33.034-43.45-64.594-67.546-95.196
		c-13.278-16.863-27.115-33.276-41.279-49.407c-1.516-1.726-3.148-3.349-5.109-5.425c-23.75,26.803-47.208,53.276-70.639,79.72
		c-3.762-2.712-56.134-64.418-62.351-73.392c80.746-64.583,161.516-129.186,242.664-194.091
		c15.069,13.983,28.365,29.246,43.117,43.786c-34.118,32.701-67.847,65.03-101.604,97.385c1.608,3.057,3.554,5.101,5.398,7.174
		c15.82,17.787,30.825,36.249,45.568,54.925c21.665,27.445,41.745,56.028,60.562,85.485c14.511,22.718,28.079,45.993,40.454,69.965
		c13.049,25.278,25.404,50.867,35.645,77.424c12.503,32.424,22.878,65.478,29.235,99.718c2.637,14.206,4.836,28.451,6.084,42.858
		c0.431,4.975,0.828,9.937,0.984,14.923c0.022,0.699,0.224,1.293,0.807,1.719C1601,802,1601,812,1601,822z"/>
	<path style="fill:#999591;" d="M617.964,78.028c0.446-2.734,2.227-4.825,3.767-6.891c13.997-18.781,31.108-34.022,51.66-45.411
		c16.106-8.925,33.284-15.013,51.095-19.182c11.758-2.752,23.727-4.739,35.82-5.648C761.274,0.824,762.34,1.012,763,0
		c14.667,0,29.333,0,44,0c0.665,1.006,1.728,0.837,2.699,0.888c26.455,1.393,52.38,6.158,78.04,12.468
		c33.132,8.148,65.14,19.626,96.627,32.689c20.905,8.673,41.36,18.285,61.519,28.533c28.193,14.333,55.471,30.278,82.256,47.083
		c35.964,22.563,70.636,46.973,104.368,72.734c7.669,5.856,15.299,11.763,22.929,17.669c0.912,0.706,1.711,1.56,3.075,2.819
		c-23.247,23.934-47.198,46.963-70.272,71.165c-3.749-1.507-6.365-4.388-9.332-6.674c-31.762-24.475-63.97-48.335-96.972-71.12
		c-29.307-20.234-59.184-39.565-89.925-57.558c-31.606-18.499-63.871-35.752-97.307-50.708
		c-30.052-13.442-60.79-25.107-92.68-33.488c-15.085-3.964-30.349-7.24-45.808-9.297c-9.534-1.268-19.131-2.194-28.792-2.495
		c-5.809-0.181-11.624-0.759-17.439-0.515c-29.164,1.223-57.381,6.415-83.577,20.078C623.692,75.689,621.448,78.298,617.964,78.028z
		"/>
	<path style="fill:#999591;" d="M585.975,460.932c-13.543-30.016-24.869-60.847-33.89-92.518
		c-5.365-18.835-9.702-37.919-12.752-57.257c-1.549-9.822-2.639-19.725-3.516-29.658c-1.351-15.304-1.092-30.601-0.782-45.901
		c0.392-19.35,3.728-38.292,9.135-56.841c5.517-18.923,13.106-36.925,24.534-53.157c8.472-12.034,18.031-23.053,29.385-32.465
		c0.369-0.306,0.596-0.781,0.89-1.177c2.965-1.977,6.216-3.606,8.211-6.761l0.184,0.106c2.483-0.548,4.026-2.898,6.528-3.409
		l0.306,0.314c0.026,1.23-0.597,2.204-1.183,3.225c-10.025,17.477-16.418,36.25-20.044,56.025
		c-1.741,9.494-2.508,19.068-3.266,28.684c-1.052,13.353,0.105,26.562,1.099,39.815c2.273,30.306,9.352,59.615,18.38,88.514
		c7.791,24.938,17.686,49.063,28.46,72.835c13.751,30.339,29.488,59.634,46.587,88.085c1.298,1.206,3.049,0.25,4.324,1.161
		c0.42,1.265-1.177,1.497-1.324,3.02c2.592,4.123,5.399,8.61,8.228,13.084c22.514,35.603,46.554,70.148,72.4,103.408
		c14.088,18.128,28.763,35.791,43.709,53.229c13.544,15.802,27.5,31.222,41.547,46.572c16.2,17.702,32.894,34.923,50.153,51.579
		c16.414,15.841,32.953,31.567,49.856,46.882c26.023,23.58,53.076,45.948,80.829,67.481c23.545,18.268,47.7,35.673,72.555,52.088
		c28.475,18.806,57.802,36.165,88.206,51.734c19.11,9.785,38.344,19.259,58.246,27.293c24.352,9.831,49.225,18.144,74.749,24.418
		c14.192,3.488,28.571,5.904,43.064,7.803c14.538,1.905,29.104,3.081,43.751,2.658c25.072-0.724,49.54-4.895,73.045-13.879
		c7.768-2.969,15.293-6.531,22.528-10.668c1.41-0.806,2.709-1.892,4.809-2.004c0.289,1.694-0.902,2.761-1.631,3.872
		c-7.185,10.955-16.261,20.255-26.047,28.826c-11.567,10.132-24.328,18.569-38.325,25.014c-16.354,7.53-33.324,12.985-51.104,16.263
		c-17.08,3.149-34.248,4.896-51.535,4.53c-13.767-0.292-27.54-0.934-41.29-2.48c-28.981-3.258-57.224-9.649-85.062-18.121
		c-1.882-0.573-3.74-1.501-5.824-1.119c-5.635-2.878-11.821-4.209-17.733-6.309c-22.224-7.894-44.121-16.603-65.58-26.394
		c-40.001-18.253-78.217-39.757-115.312-63.311c-32.893-20.886-64.316-43.828-94.81-68.036
		c-19.42-15.417-38.182-31.628-56.638-48.204c-21.951-19.714-43.298-40.049-63.78-61.263
		c-18.385-19.042-36.139-38.673-53.353-58.805c-23.589-27.587-45.897-56.168-66.982-85.681
		c-14.789-20.7-28.654-42.057-41.784-63.862c-17.16-28.497-33.071-57.671-47-87.9C589.393,468.498,587.692,464.711,585.975,460.932z
		"/>
	<path style="fill:#999591;" d="M616.959,77.988c0.358-0.007,0.716-0.013,1.075-0.02c0.131,0.853-0.333,1.07-1.067,0.997
		l0.059,0.054C617.003,78.676,616.981,78.332,616.959,77.988z"/>
	<path style="fill:#999591;" d="M616.967,78.966c-0.089,0.256-0.179,0.512-0.268,0.767c-0.775-0.643,0.083-0.537,0.327-0.713
		C617.026,79.02,616.967,78.966,616.967,78.966z"/>
	<path style="fill:#999591;" d="M613.903,81.894c0.203-0.218,0.564-0.642,0.585-0.625c0.673,0.519,0.147,0.717-0.279,0.939
		L613.903,81.894z"/>
	<path style="fill:#293762;" d="M809.261,1373.339c-4.064,17.049-6.383,33.315-11.177,49.028
		c-1.898,6.221-4.747,12.001-8.183,17.511c-1.959,3.141-4.453,5.792-7.291,8.126c-8.483,6.979-18.168,7.782-28.175,4.676
		c-8.598-2.669-13.226-11.805-12.128-21.663c2.116-19.003,12.593-31.971,28.953-40.819c7.3-3.948,14.989-7.036,22.616-10.263
		C798.723,1377.884,803.551,1375.789,809.261,1373.339z"/>
</g>
</svg>
