<?xml version="1.0" encoding="iso-8859-1"?>
<!-- Generator: Adobe Illustrator 27.0.0, SVG Export Plug-In . SVG Version: 6.00 Build 0)  -->
<svg version="1.1" id="Layer_1" xmlns="http://www.w3.org/2000/svg" xmlns:xlink="http://www.w3.org/1999/xlink" x="0px" y="0px"
	 viewBox="0 0 1500 1501" style="enable-background:new 0 0 1500 1501;" xml:space="preserve">
<g>
	<path style="fill:#2F3137;" d="M787.052,0.889c20.464,0.941,40.883,2.487,61.174,5.321c40.842,5.704,81.116,14.033,120.598,26.108
		c63.55,19.435,123.488,46.771,179.724,82.121c53.265,33.483,101.559,73.113,144.9,118.745
		c42.042,44.265,78.079,92.98,108.294,146.023c33.474,58.766,58.269,121.019,74.966,186.514
		c5.827,22.858,10.458,45.987,14.012,69.301c2.832,18.576,4.986,37.247,6.391,56.006c0.971,12.961,1.712,25.923,2.017,38.914
		c0,13.706,0,27.412,0,41.117c-0.095,14.504-1.131,28.967-2.35,43.401c-1.147,13.583-2.715,27.129-4.588,40.647
		c-3.078,22.229-7.086,44.269-12.174,66.113c-10.186,43.728-24.146,86.211-41.951,127.445
		c-18.03,41.756-39.666,81.533-64.942,119.329c-21.884,32.724-46.21,63.522-72.931,92.445
		c-43.29,46.86-91.794,87.493-145.423,122.006c-46.81,30.124-96.347,54.777-148.693,73.769
		c-34.056,12.356-68.866,22.07-104.292,29.527c-20.004,4.211-40.223,7.24-60.542,9.604c-19.017,2.212-38.029,4.362-57.196,4.69
		c-5.628-0.014-11.257-0.048-16.885-0.037c-14.082,0.026-28.164,0.072-42.246,0.109c-3.655,0.003-7.311,0.006-10.966,0.01
		c-18.964-0.815-37.815-2.8-56.668-4.981c-44.341-5.13-87.69-14.756-130.298-27.892c-45.805-14.122-89.828-32.57-131.931-55.437
		c-41.153-22.351-80.071-48.131-116.476-77.665c-25.007-20.287-48.656-42.051-70.849-65.349
		c-27.259-28.617-52.088-59.242-74.567-91.781c-36.064-52.206-64.91-108.145-86.808-167.65
		C33.098,973.35,22.805,936.459,15.235,898.83c-3.703-18.408-6.695-36.949-8.91-55.588C4.343,826.556,2.83,809.817,1.9,793.021
		c-0.608-10.987-0.814-21.971-1.027-32.962c0.283-6.372,0.284-12.745,0-19.117c-0.062-17.505,0.89-34.974,2.314-52.404
		c1.326-16.239,3.24-32.42,5.611-48.555c2.924-19.896,6.622-39.631,11.128-59.218c13.34-57.984,33.262-113.602,59.952-166.797
		c28.639-57.08,63.882-109.725,105.883-157.825c37.628-43.092,79.757-81.27,126.044-114.863
		c38.715-28.097,79.875-52.04,123.271-72.14C473.235,51.465,512.568,37,553.182,26.032c26.797-7.237,53.91-12.9,81.344-17.138
		c17.763-2.744,35.564-5.101,53.476-6.538c8.629-0.692,17.288-1.011,25.934-1.498C719.311,0.963,724.698,1.271,730,0
		c13.333,0,26.667,0,40,0C775.631,1.314,781.349,0.949,787.052,0.889z M1474.894,748.825c-0.514-22.114-1.317-45.896-3.659-69.623
		c-1.847-18.712-4.245-37.346-7.497-55.844c-4.54-25.827-10.447-51.371-17.832-76.544c-16.746-57.082-39.884-111.42-69.97-162.784
		c-28.126-48.02-61.29-92.261-99.442-132.742c-30.347-32.2-63.508-61.247-99.233-87.358
		c-41.156-30.081-84.979-55.581-131.523-76.377c-43.691-19.521-88.851-34.676-135.57-45.083
		c-14.731-3.281-29.528-6.258-44.458-8.555c-10.348-1.592-20.695-3.11-31.114-4.212c-9.759-1.032-19.518-2.007-29.289-2.917
		c-7.814-0.728-15.643-0.676-23.456-1.151c-20.146-1.225-40.317-1.022-60.459-0.258c-12.962,0.492-25.934,1.127-38.869,2.482
		c-12.901,1.351-25.811,2.636-38.64,4.499c-15.76,2.289-31.4,5.315-46.987,8.615c-28.242,5.979-56.01,13.678-83.266,23.143
		c-46.008,15.976-90.091,36.182-131.981,61.074c-59.751,35.505-113.503,78.475-160.937,129.333
		c-20.699,22.193-39.924,45.578-57.729,70.139c-33.377,46.041-60.954,95.33-82.679,147.889
		c-19.52,47.226-33.775,96.016-43.093,146.233c-4.827,26.011-8.026,52.269-9.946,78.648c-1.463,20.097-1.94,40.249-1.713,60.413
		c0.306,27.159,2,54.208,5.259,81.186c2.194,18.166,5.014,36.224,8.545,54.152c6.032,30.628,14.072,60.764,24.096,90.332
		c16.139,47.609,36.972,93.078,62.526,136.394c28.115,47.657,61.28,91.51,99.38,131.577c22.056,23.194,45.609,44.829,70.58,64.91
		c31.305,25.173,64.455,47.591,99.414,67.348c39.39,22.261,80.599,40.533,123.439,54.966
		c47.474,15.994,96.168,26.775,145.974,32.524c19.366,2.235,38.786,3.732,58.237,4.501c33.164,1.311,66.292,0.032,99.342-2.95
		c17.391-1.569,34.668-4.158,51.867-7.085c21.098-3.59,41.999-8.192,62.705-13.679c49.886-13.219,97.762-31.695,143.646-55.228
		c62.118-31.859,118.402-72.024,169.032-120.091c29.667-28.166,56.712-58.698,81.148-91.48
		c26.673-35.784,49.928-73.686,69.604-113.799c22.804-46.491,40.409-94.811,52.945-145.053
		c9.885-39.616,16.178-79.783,19.417-120.429C1474.177,787.515,1474.7,769.016,1474.894,748.825z"/>
	<path style="fill:#726F75;" d="M724.913,1500.108c14.082-0.038,28.164-0.084,42.246-0.109c5.628-0.01,11.257,0.024,16.885,0.037
		c-0.071,0.211-0.169,0.419-0.201,0.636c-0.015,0.1,0.1,0.218,0.156,0.328c-19.667,0-39.333,0-59,0
		C725.05,1500.695,725.021,1500.398,724.913,1500.108z"/>
	<path style="fill:#B5B2B5;" d="M1499.127,771.059c0-13.706,0-27.412,0-41.117c0.29,0.038,0.581,0.057,0.873,0.059
		c0,13.667,0,27.333,0,41C1499.708,771.001,1499.417,771.021,1499.127,771.059z"/>
	<path style="fill:#B5B2B5;" d="M0.873,740.941c0.284,6.372,0.283,12.745,0,19.117C0.583,760.021,0.292,760.001,0,760
		c0-6.333,0-12.667,0-19C0.292,740.999,0.583,740.979,0.873,740.941z"/>
	<path style="fill:#B5B2B5;" d="M787.052,0.889C781.349,0.949,775.631,1.314,770,0c5.667,0,11.333,0,17,0
		C786.917,0.302,786.935,0.599,787.052,0.889z"/>
	<path style="fill:#B5B2B5;" d="M730,0c-5.302,1.271-10.689,0.963-16.064,0.858C714.015,0.576,714.036,0.29,714,0
		C719.333,0,724.667,0,730,0z"/>
	<path style="fill:#B5B2B5;" d="M724.913,1500.108c0.108,0.29,0.137,0.587,0.087,0.892c-3.667,0-7.333,0-11,0
		c0.074-0.3,0.056-0.594-0.053-0.882C717.602,1500.114,721.257,1500.111,724.913,1500.108z"/>
	<path style="fill:#B42130;" d="M210.248,750.462c1.082-302.169,244.27-540.918,541.236-540.125
		c303.226,0.81,539.613,246.956,538.997,541.216c-0.63,300.844-245.125,541.118-542.589,539.602
		C451.486,1289.644,210.709,1050.056,210.248,750.462z M1146.21,751.235c0.891-216.365-173.814-396.777-396.165-396.769
		c-221.863,0.008-396.296,179.828-396.229,396.308c0.067,218.282,176.625,395.985,395.787,396.255
		C968.91,1147.299,1146.48,969.655,1146.21,751.235z"/>
	<path style="fill:#B52231;" d="M1351.257,405.215c6.274,10.018,12.036,20.482,17.52,31.093
		c14.657,28.357,26.84,57.741,36.321,88.234c0.246,0.791,0.637,1.542,0.83,2.343c0.498,2.057-0.313,3.656-2.085,4.629
		c-1.718,0.944-3.531,0.978-5.108-0.417c-1.926-1.704-3.067-3.89-3.746-6.346c-1.107-4.003-2.407-7.945-4.127-11.727
		c-1.24-2.726-2.665-5.363-4.83-7.514c-3.365-3.343-6.9-5.131-12.031-3.678c-9.336,2.645-17.949,6.91-26.665,10.952
		c-3.074,1.425-3.278,3.942-0.979,6.45c14.294,15.598,28.616,31.17,42.921,46.758c1.688,1.84,3.307,3.743,5.001,5.578
		c0.9,0.975,1.776,2.043,2.868,2.756c2.02,1.319,3.985,3.645,6.692,2.252c2.792-1.437,3.505-4.329,3.502-7.272
		c-0.003-2.492-0.315-4.963-0.902-7.416c-0.735-3.068-1.258-6.193-0.375-9.412c1.389-1.522,3.068-2.43,4.966-2.417
		c1.906,0.588,2.421,2.008,2.87,3.457c5.314,17.13,9.602,34.52,13.085,52.109c3.197,16.139,5.442,32.432,7.749,48.713
		c0.489,3.454,0.886,6.924,1.204,10.397c0.26,2.836,0.182,5.661-1.423,8.316c-1.817,1.563-3.799,1.53-6.093,0.252
		c-2.082-8.601-3.943-17.353-7.162-25.727c-3.583-9.321-7.599-18.301-13.938-26.249c-7.774-9.747-14.24-20.492-22.173-30.147
		c-4.444-5.41-9.082-10.632-14.629-15.112c-2.018,1.008-3.177,2.673-3.96,4.777c-11.182,30.076-25.501,58.736-39.784,87.394
		c-3.752,7.529-5.47,15.26-5.615,23.494c-0.082,4.644-0.015,9.291-0.015,13.491c-2.391,2.336-4.679,2.109-7.012,1.693
		c-2.072-1.513-2.749-3.702-3.003-6.072c-1.875-17.524-4.475-34.954-7.299-52.339c-2.635-16.221-5.766-32.364-9.271-48.427
		c-0.318-1.459-0.493-2.953-0.864-4.397c-0.442-1.722,0.192-2.903,1.616-3.769c1.505-0.916,3.014-1.31,4.678-0.261
		c1.907,1.201,3.291,2.791,4.023,4.916c0.648,1.881,1.282,3.77,1.837,5.68c0.62,2.133,1.543,4.03,3.458,5.267
		c3.1-0.23,4.419-2.391,5.704-4.821c8.973-16.969,15.283-34.923,19.936-53.496c0.725-2.894,1.343-5.815,2.04-8.853
		c-2.781-8.054-8.536-13.149-16.557-16.079c-5.036,2.911-10.884,3.733-16.34,5.694c-2.969,1.067-5.981,1.975-8.664,3.692
		c-4.509,2.884-6.159,6.958-5.826,12.294c0.275,4.405,1.604,8.426,2.927,12.539c1.775,5.519,0.8,8.305-3.617,11.694
		c-3.021,0.378-4.022-1.929-4.881-4.049c-1.929-4.763-3.627-9.621-5.447-14.429c-9.234-24.402-20.729-47.784-32.169-71.19
		c-1.891-3.868-3.698-7.776-5.457-11.481c1.682-3.395,1.682-3.395,5.352-4.983c2.719,0.491,4.042,2.713,5.439,4.742
		c2.262,3.284,4.139,6.859,6.608,9.97c6.037,7.605,7.538,7.66,16.658,4.118c7.245-2.814,14.042-6.788,21.026-10.27
		c17.087-8.52,34.161-17.066,51.253-25.576c6.52-3.246,8.803-8.517,6.911-15.688c-1.12-4.245-3.417-7.909-5.335-11.766
		c-1.181-2.375-2.562-4.679-3.472-7.155C1343.553,407.405,1345.44,405.088,1351.257,405.215z"/>
	<path style="fill:#B52231;" d="M128.501,703.813c5.766-9.569,11.986-18.596,18.997-27.07c6.191-7.484,13.668-13.635,20.821-20.111
		c4.45-4.028,8.871-8.071,12.95-12.474c4.824-5.207,8.285-11.172,9.99-18.122c0.472-1.924,1.06-3.861,1.911-5.641
		c1.937-4.051,3.932-4.627,8.369-2.669c1.008,1.512,0.555,3.201,0.281,4.799c-3.537,20.621-7.19,41.223-10.604,61.865
		c-0.436,2.636-1.527,4.685-3.008,6.675c-4.383,5.888-9.306,11.319-14.431,16.556c-7.109,7.264-14.379,14.371-21.495,21.628
		c-6.9,7.037-13.008,14.689-17.706,23.411c-4.133,7.673-4.274,15.914-3.666,24.289c0.166,2.292,1.883,3.382,3.428,4.705
		c10.941-0.612,21.896-1.163,32.842-1.864c5.715-0.366,9.354-4.352,9.716-10.675c0.238-4.153,0.003-8.331,0.126-12.493
		c0.088-2.982,0.356-5.979,2.736-8.133c6.043,0.118,7.136,1.208,7.345,6.871c0.754,20.46,2.178,40.863,4.674,61.199
		c1.579,12.869,3.092,25.741,5.107,38.551c0.228,1.447,0.031,2.961,0.031,4.269c-0.631,1.351-1.776,1.75-2.85,2.132
		c-3.647,1.297-5.845,0.345-6.929-3.325c-0.938-3.176-1.569-6.455-2.141-9.722c-0.518-2.956-1.073-5.906-2.258-8.652
		c-2.26-5.235-6.362-7.192-12.045-6.331c-12.648,1.918-25.345,3.529-37.97,5.581c-15.405,2.504-30.765,5.287-46.127,8.05
		c-4.3,0.774-6.199,4.18-7.539,7.886c-1.971,5.453-0.411,10.864,0.432,16.26c0.665,4.257,1.839,8.451,1.514,12.749
		c-4.138,3.444-6.436,2.945-9.191-1.307c-1.827-2.82-2.06-5.979-2.591-9.021c-2.631-15.062-4.69-30.202-6.417-45.405
		c-3.994-35.172-4.6-70.473-3.647-105.763c0.434-16.085,4.067-31.932,11.784-46.456c3.417-6.431,8.162-11.745,13.903-16.144
		c6.469-4.957,16.061-4.918,22.762-0.029c6.874,5.015,10.671,12.132,13.456,19.922c2.241,6.271,3.397,12.821,4.934,19.272
		C126.38,700.686,126.59,702.354,128.501,703.813z M72.427,786.012c8.27-0.446,16.093-0.564,23.839-1.394
		c4.977-0.533,9.965-0.389,14.916-0.956c5.461-0.625,6.438-1.777,6.537-7.292c0.159-8.821-0.337-17.623-0.733-26.428
		c-0.285-6.329-1.508-12.491-3.313-18.55c-2.74-9.202-9.02-13.998-18.475-14.721c-6.941-0.531-12.626,1.387-16.26,7.968
		c-3.012,5.454-4.739,11.248-5.957,17.284c-1.882,9.326-1.843,18.829-2.578,28.253c-0.344,4.411,0.454,8.918,0.841,13.372
		C71.31,784.295,71.921,784.994,72.427,786.012z"/>
	<path style="fill:#B52231;" d="M117.824,924.295c3.365,0.823,4.72,3.086,5.149,5.846c0.513,3.303,1.38,6.51,2.361,9.671
		c1.111,3.583,0.31,6.638-2.112,9.229c-12.826,13.723-16.046,30.46-15.564,48.468c0.381,14.246,5.028,27.351,10.5,40.216
		c6.622,15.57,15.054,30.006,27.593,41.685c7.8,7.266,16.674,12.644,27.209,14.841c12.122,2.528,23.747,1.159,34.749-4.805
		c17.36-9.41,26.662-24.419,30.243-43.385c2.369-12.547,0.914-24.766-3.169-36.818c-6.572-19.401-16.066-37.139-29.184-52.916
		c-4.336-5.215-6.265-5.796-12.387-3.218c-3.202,1.348-6.481,2.546-9.576,4.109c-6.45,3.258-8.142,7.204-6.769,14.245
		c0.931,4.774,3.09,9.094,4.605,13.649c1.046,3.142,2.237,6.26,1.539,9.334c-0.708,1.309-1.681,1.562-2.635,1.87
		c-4.265,1.377-6.24,0.546-7.788-3.592c-10.522-28.119-20.516-56.414-27.282-85.72c-2.088-9.044-3.607-18.22-5.353-27.167
		c2.629-3.154,2.629-3.154,7.339-3.722c2.139,1.732,2.883,4.32,3.673,6.833c0.795,2.529,1.381,5.124,2.079,7.685
		c0.838,3.074,2.153,5.921,4.075,8.479c1.607,2.14,3.632,3.122,6.409,3.106c5.071-0.03,9.84-1.449,14.654-2.697
		c4.813-1.248,9.606-2.576,14.379-3.968c1.801-0.525,3.594-0.617,5.574-0.537c2.762,1.455,4.172,4.064,5.045,6.977
		c3.78,12.612,9.889,24.229,15.429,36.081c9.834,21.041,20.595,41.641,29.818,62.976c8.116,18.774,14.883,37.978,19.093,58.021
		c2.57,12.235,4.458,24.569,3.436,37.127c-0.965,11.859-3.3,23.332-10.25,33.392c-7.206,10.43-17.129,16.351-29.562,18.46
		c-12.718,2.157-24.88,0.07-36.509-4.935c-16.194-6.969-30.518-16.774-42.847-29.485c-28.928-29.827-48.078-65-57.538-105.392
		c-3.07-13.109-5.136-26.445-5.28-39.964c-0.041-3.785-1.456-6.369-4.59-8.195c-3.15-1.836-5.44-4.051-5.738-8.124
		c-0.189-2.573-1.651-5.028-2.316-7.595c-1.372-5.291,0.249-8.22,5.541-9.766C93.791,931.108,105.754,927.743,117.824,924.295z"/>
	<path style="fill:#B52231;" d="M253.885,408.363c2.251-5.345,4.142-10.386,10.055-12.251c10.241,6.63,19.608,14.286,27.889,23.369
		c0.557,2.603-0.343,4.845-1.882,6.929c-32.19,43.573-54.792,91.997-72.33,142.98c-2.533,7.364-4.974,14.759-7.41,22.155
		c-0.365,1.109-0.506,2.286-1.982,3.288c-2.102,0.686-4.414,0.209-6.718-1.531c-1.251-3.114-0.851-6.382-0.067-9.635
		c0.661-2.742,1.564-5.43,2.133-8.188c1.685-8.176-1.146-13.132-9.008-15.821c-11.92-4.078-23.863-8.087-35.789-12.146
		c-14.905-5.072-29.803-10.165-44.758-15.267c-6.683,1.323-10.494,5.82-12.904,11.877c-2.083,5.235-3.278,10.784-5.793,15.876
		c-1.155,2.338-2.798,3.16-5.224,2.687c-2.616-0.511-3.996-2.115-4.044-4.882c-0.02-1.14,0.225-2.311,0.516-3.424
		c0.629-2.406,1.348-4.789,2.061-7.172c14.575-48.706,34.856-94.927,60.387-138.874c8.187-14.093,16.927-27.829,26.051-41.327
		c0.645-0.955,1.367-1.858,1.946-2.641c3.01-1.131,5.492,0.042,7.841,1.218c6.524,3.265,12.967,6.692,19.205,9.932
		c2.628,3.545,1.358,6.547-0.682,9.358c-1.948,2.684-4.094,5.223-6.307,8.02c-3.318,0.354-6.818,0.704-10.249,0.9
		c-10.853,0.62-18.692,5.963-25.052,14.337c-5.763,7.589-10.345,15.844-14.533,24.349c-5.132,10.422-10.212,20.869-15.338,31.294
		c-1.58,3.212-3.042,6.394-0.278,9.865c11.97,5.284,23.381,12.342,37.102,14.489c5.044-8.647,10.757-16.894,12.91-26.751
		c1.284-5.877,1.261-11.914-2-17.456c-1.176-1.998-2.09-4.151-3.263-6.513c2.068-6.154,4.415-12.267,10.767-16.097
		c3.337,1.579,6.687,2.975,9.858,4.701c7.878,4.287,15.689,8.699,23.498,13.113c3.675,2.077,4.768,4.95,2.929,8.77
		c-1.505,3.127-3.511,6.022-5.407,8.947c-0.947,1.462-2.416,2.261-4.219,2.249c-1.499-0.01-3.04,0.151-4.488-0.137
		c-4.932-0.979-8.695,1.047-12.13,4.272c-2.44,2.291-4.654,4.743-6.504,7.542c-4.428,6.699-7.261,14.107-9.976,21.439
		c1.421,3.169,3.618,4.914,6.527,6.164c8.216,3.532,16.358,7.237,24.494,10.951c1.976,0.902,3.986,1.593,6.081,2.145
		c4.504,1.186,7.965,0.224,10.842-3.784c2.521-3.513,5.019-6.958,6.952-10.862c7.582-15.318,15.26-30.59,23.016-45.82
		c2.746-5.393,3.34-11.074,2.953-16.944C260.961,424.964,258.208,416.484,253.885,408.363z"/>
	<path style="fill:#B52231;" d="M1312.7,726.63c4.262-1.703,4.262-1.703,8.13-0.127c1.771,4.597,1.679,9.629,2.076,14.563
		c0.242,3.014,0.593,5.949,1.92,8.697c1.971,4.081,4.995,6.26,9.747,6.466c21.31,0.923,42.634,0.578,63.949,0.962
		c6.321,0.114,12.656,0.222,18.951,0.737c4.45,0.364,7.31-1.536,9.467-5.058c2.14-3.495,2.942-7.352,3.068-11.41
		c0.202-6.482-0.251-13.006,1.274-19.64c1.698-1.702,3.768-2.058,6.19-0.992c2.493,1.098,2.439,3.249,2.542,5.449
		c0.969,20.653,0.846,41.313-0.235,61.946c-0.879,16.776-2.476,33.498-4.537,50.19c-4.059,32.868-10.964,65.136-19.425,97.107
		c-0.168,0.635-0.503,1.227-0.787,1.903c-3.721,2.796-8.04,1.659-12.027,1.311c-5.267-0.46-10.48-1.677-15.678-2.756
		c-3.753-0.779-4.25-1.653-4.415-5.435c-0.104-2.402,0.599-4.62,1.334-6.813c0.894-2.668,2.027-5.255,3.139-8.087
		c2.519-0.993,5.073-2.23,7.759-3.019c11.352-3.337,17.217-11.742,21.015-22.213c2.514-6.93,3.299-14.214,4.593-21.389
		c1.857-10.299,3.971-20.559,4.843-31.019c0.458-5.488,0.451-10.941,0.058-16.082c-2.516-2.079-4.912-2.784-7.691-3.008
		c-7.957-0.643-15.894-1.551-23.83-2.43c-2.657-0.294-5.293-0.442-8.003-0.261c-3.481,4.102-4.011,9.159-4.854,13.989
		c-0.77,4.411-1.004,8.93-1.25,13.414c-0.486,8.861,2.31,16.347,9.666,21.747c1.129,0.829,2.017,1.788,2.182,3.192
		c0.756,6.448,0.183,12.596-4.132,17.992c-12.979-1.503-25.499-4.673-38.006-7.887c-3.843-0.987-4.963-2.461-4.815-6.42
		c0.181-4.866,1.893-9.333,3.63-13.272c0.818-0.496,1.091-0.798,1.387-0.822c11.06-0.898,16.203-8.26,18.848-17.834
		c1.909-6.912,2.262-14.118,2.185-21.293c-0.037-3.458-1.012-4.776-4.717-5.198c-13.679-1.557-27.276-4.608-41.387-2.548
		c-4.93,4.023-6.109,10.005-6.702,15.917c-1.363,13.588-4.172,26.903-6.688,40.287c-1.73,9.201-2.365,18.487,0.421,27.683
		c1.269,4.189,3.12,8.026,5.984,11.371c3.675,4.293,7.288,8.64,11.063,13.123c-0.05,5.116-0.983,10.05-4.714,14.607
		c-12.536-2.334-23.498-8.561-34.466-13.867c-1.812-2.313-1.047-4.48-0.477-6.497c5.191-18.372,9.57-36.933,13.133-55.688
		c2.855-15.027,5.027-30.146,6.618-45.364c2.811-26.888,2.653-53.877,3.105-80.848C1312.175,730.201,1311.809,728.328,1312.7,726.63
		z"/>
	<path style="fill:#B52231;" d="M1329.863,1122.366c1.415,9.335-3.063,16.298-9.267,22.664c-3.419,0.621-6.609-0.063-9.471-1.984
		c-5.518-3.704-11.07-7.37-16.411-11.318c-4.274-3.159-4.607-5.053-2.584-9.852c1.434-3.402,3.474-6.436,5.93-9.175
		c2.275-2.537,4.739-4.054,8.583-3.992c7.705,0.124,14.531-2.926,20.671-7.551c4.557-3.432,8.554-7.404,11.998-11.938
		c9.172-12.074,17.717-24.504,22.121-39.265c1.916-6.421,3.343-12.841,1.538-19.601c-1.698-6.359-6.529-8.512-12.058-4.967
		c-4.768,3.057-9.192,6.584-13.34,10.459c-9.641,9.006-18.123,19.065-26.607,29.126c-10.876,12.898-22.597,24.865-36.655,34.414
		c-7.206,4.895-14.941,7.818-23.613,8.388c-6.532,0.43-11.983-1.883-16.829-6.142c-7.544-6.628-10.065-15.425-10.868-24.914
		c-0.941-11.119,0.981-21.882,4.818-32.295c6.832-18.541,13.998-36.935,25.198-53.422c6.277-9.239,13.489-17.746,20.671-26.476
		c0.55-2.023,0.219-4.116-0.374-6.234c-1.987-7.102,0.582-12.925,5.158-18.411c12.775,1.052,23.649,7.575,35.131,11.426
		c2.571,2.692,2.541,5.537,1.33,8.523c-0.996,2.456-1.95,4.936-3.08,7.331c-1.33,2.816-3.981,4.296-6.772,4.589
		c-15.143,1.592-25.21,11.339-34.659,21.713c-9.375,10.294-15.975,22.43-20.883,35.449c-2.501,6.635-3.351,13.514-2.639,20.585
		c0.923,9.167,8.929,14.986,18.399,10.783c3.225-1.432,6.096-3.359,8.689-5.748c12.771-11.77,24.135-24.805,34.949-38.368
		c8.303-10.414,16.805-20.675,26.802-29.575c4.486-3.994,9.206-7.664,14.26-10.904c10.545-6.759,22.562-4.415,29.726,5.852
		c4.119,5.904,5.916,12.649,6.222,19.706c0.678,15.641-1.979,30.675-7.792,45.313c-10.56,26.592-25.788,50.169-44.654,71.526
		C1332.294,1119.445,1331.139,1120.859,1329.863,1122.366z"/>
	<path style="fill:#B52231;" d="M1046.432,224.084c6.647,1.046,11.736,4.131,15.467,9.191c0.244,2.296-0.211,4.231-1.424,5.894
		c-6.845,9.389-13.731,18.748-20.496,27.972c-3.046,0.155-5.501-0.221-7.918-1.693c-33.901-20.641-69.953-36.486-107.79-48.394
		c-20.441-6.434-41.234-11.424-62.202-15.718c-6.827-1.398-13.763-2.263-20.646-3.387c-2.647-0.432-5.391-0.742-6.297-4.222
		c-0.143-1.703,1.04-3.205,1.241-4.665c5.302-3.207,10.461-1.452,15.492-0.884c2.63,0.297,5.257,0.749,7.899,1.068
		c7.835,0.945,13.517-3.182,15.158-10.888c6.529-30.668,13.099-61.327,19.697-91.98c1.65-7.666-0.836-11.702-8.456-13.373
		c-9.71-2.128-19.42-4.256-28.772-6.306c-1.516-1.195-1.569-2.542-1.528-3.884c0.116-3.804,2.306-5.644,6.127-5.245
		c42.822,4.468,84.291,14.658,124.638,29.551c5.132,1.895,10.147,4.107,15.209,6.193c0.761,0.313,1.476,0.738,2.286,1.149
		c2.1,3.899-0.453,6.12-3.031,8.466c-3.664-0.462-7.151-1.288-10.585-2.655c-4.46-1.775-9.03-3.318-13.642-4.656
		c-7.751-2.25-15.141,1.367-17.867,9.203c-10.684,30.707-19.777,61.899-28.74,93.134c-1.162,4.05-0.35,6.121,3.079,8.639
		c1.482,1.088,3.127,1.897,4.917,2.349c12.953,3.27,24.809,9.305,36.948,14.63c9.565,4.196,19.086,8.459,29.435,10.542
		c14.462,2.911,27.724,0.753,39.508-8.525C1044.788,225.079,1045.522,224.677,1046.432,224.084z"/>
	<path style="fill:#B52231;" d="M1169.624,361.239c4.237,1.092,6.941,4.347,9.953,7.189c2.937,2.77,5.921,5.49,10.903,4.262
		c5.289-9.432,7.048-19.933,7.475-30.759c-6.233-8.05-13.118-15.327-20.755-21.726c-7.663-6.421-15.228-12.932-22.335-19.938
		c-3.561-3.51-7.55-4.174-11.902-2.972c-6.065,1.676-12.014,3.777-17.981,5.789c-1.883,0.635-3.667,1.565-5.058,3.307
		c-0.656,3.445,1.326,5.936,3.501,8.236c2.054,2.172,4.377,4.088,6.482,6.215c1.282,1.295,2.402,2.759,3.085,4.601
		c-0.036,2.272-1.249,3.964-2.789,5.348c-2.848,0.782-4.925-0.14-7.023-1.848c-19.108-15.552-39.124-29.885-59.312-43.984
		c-4.435-3.097-4.477-4.129-0.495-8.631c4.355-0.755,8.001,1.304,11.638,3.309c3.81,2.1,7.686,4.138,12.151,3.997
		c3.976-0.125,7.962-0.526,11.901-1.099c8.898-1.295,17.477-3.965,25.894-6.976c16.476-5.895,33.656-8.817,50.641-12.571
		c12.975-2.868,26.1-4.915,39.265-6.669c5.103-0.68,10.262-0.93,15.387-1.45c3.865-0.392,7.201,0.867,10.22,3.113
		c4.703,3.498,8.791,7.719,12.543,12.137c3.405,4.009,3.441,9.246,2.826,14.277c-5.425,44.405-14.497,88.052-27.615,130.826
		c-1.662,5.42-1.526,10.426,0.688,15.481c1.596,3.643,3.354,7.215,4.963,10.854c0.795,1.798,1.907,3.571,1.177,5.809
		c-1.645,2.912-4.389,3.004-7.731,2.531c-2.105-3.043-4.367-6.297-6.612-9.562c-16.512-24.016-34.357-47.007-53.206-69.227
		C1163.526,366.421,1163.993,364.246,1169.624,361.239z M1208.074,285.421c-1.733-1.554-3.304-2.371-5.272-1.965
		c-10.375,2.137-20.917,3.484-31.087,6.588c-1.905,0.581-3.693,1.313-4.864,3.177c3.472,4.869,6.434,10.007,10.998,13.652
		c6.374,5.091,12.291,10.675,18.399,16.051c1.643,1.447,3.251,2.699,5.969,2.35C1205.319,312.133,1207.722,298.858,1208.074,285.421
		z"/>
	<path style="fill:#B52231;" d="M298.31,404.248c-1.007-2.343-0.81-4.315,0.982-6.062c8.764-8.547,9.783-19.328,8.255-30.545
		c-1.747-12.824-4.995-25.395-6.899-38.213c-2.049-13.799-4.225-27.573-5.833-41.438c-1.804-15.556-2.989-31.13-3.107-46.797
		c-0.025-3.372,0.815-6.092,2.835-8.725c4.749-6.189,10.892-10.673,17.362-14.823c1.434-0.92,2.878-0.715,4.333-0.508
		c16.603,2.366,33.102,5.289,49.412,9.233c30.017,7.258,59.397,16.546,88.077,27.979c5.307,2.116,10.283,2.153,15.492,0.396
		c5.322-1.795,10.288-4.584,15.663-5.772c1.51,0.568,2.34,1.633,3.178,2.652c1.626,1.977,1.403,3.962-0.13,5.893
		c-1.057,1.331-2.443,2.279-3.899,3.069c-27.329,14.835-53.642,31.305-79.107,49.141c-1.626,1.139-3.312,2.193-4.742,3.137
		c-1.838,0.06-2.774-0.937-3.666-1.901c-2.215-2.392-2.405-4.095-0.337-6.597c1.687-2.042,3.717-3.802,5.609-5.674
		c1.3-1.286,2.734-2.455,3.918-3.839c3.491-4.083,3.087-8.119-1.895-10.036c-7.06-2.717-14.156-5.761-21.96-5.966
		c-3.3-0.087-6.152,0.929-8.816,2.856c-8.101,5.86-16.073,11.84-22.667,19.468c-4.599,5.32-9.997,9.881-15.83,13.682
		c-6.983,4.55-7.6,10.909-6.301,17.94c0.961,5.202,2.501,10.308,3.978,15.4c1.158,3.994,3.915,4.947,7.756,2.97
		c1.953-1.005,3.516-2.495,5.09-3.98c1.453-1.371,2.865-2.796,4.398-4.073c4.166-3.468,6.662-3.179,10.453,1.085
		c0.794,3.231-0.949,5.265-3.093,7.339c-12.809,12.39-25.522,24.881-37.288,38.286c-3.403,3.877-6.662,7.878-10.008,11.805
		c-1.602,1.881-2.938,4.026-5.005,5.373C301.822,407.082,300.019,405.647,298.31,404.248z M319.145,266.455
		c-1.493,12.683,1.696,24.589,4.312,36.554c0.345,1.576,1.342,2.639,3.647,2.317c3.502-2.969,7.311-6.162,11.081-9.402
		c6.299-5.413,12.605-10.819,18.836-16.309c1.708-1.505,3.651-3.054,3.039-5.555c-0.472-1.106-1.222-1.618-1.978-1.824
		c-9.732-2.655-19.488-5.251-29.423-7.023C325.602,264.668,322.357,264.508,319.145,266.455z"/>
	<path style="fill:#B52231;" d="M507.266,236.271c2.454-2.123,5.631-3.174,8.582-4.638c2.823-1.401,5.72-2.702,8.379-4.373
		c4.657-2.926,7.751-7.611,4.549-15.047c-11.281-26.201-22.449-52.45-33.674-78.675c-2.395-5.596-4.325-6.893-9.471-5.209
		c-12.56,4.109-24.438,9.602-34.189,18.841c-7.291,6.908-11.929,15.012-11.591,25.48c0.101,3.126-0.593,6.278-0.964,9.813
		c-4.956,3.426-9.47,8.096-16.661,7.457c-6.487-9.17-11.245-19.162-14.882-29.703c-1.103-3.198-0.35-4.58,3.31-6.746
		c16.299-9.646,33.021-18.483,50.194-26.484c43.462-20.248,88.576-35.593,135.351-46.139c10.2-2.3,20.419-4.484,30.665-6.552
		c5.254-1.061,8.427,0.373,9.652,5.265c1.935,7.729,4.904,15.126,6.853,22.84c0.801,3.169,0.954,6.204-0.61,9.301
		c-3.325,0.841-6.579,2.005-10.029,2.623c-3.68,0.659-6.443-0.194-8.703-3.213c-9.993-13.348-23.623-17.427-39.638-15.514
		c-9.115,1.089-17.831,3.703-26.585,6.313c-7.178,2.139-7.916,6.291-6.147,12.236c2.694,9.055,5.622,18.044,8.606,27.01
		c5.861,17.611,11.828,35.186,17.756,52.775c0.529,1.57,0.898,3.234,1.678,4.671c1.771,3.26,4.458,5.262,8.333,5.484
		c3.9,0.224,7.564-0.882,11.262-1.798c2.91-0.721,5.791-1.491,8.835-1.375c2.131,0.081,3.364,1.1,3.908,3.143
		c0.576,2.162,0.264,4.026-1.77,5.198c-1.133,0.653-2.406,1.13-3.674,1.471c-30.977,8.327-60.867,19.717-90.433,32.028
		c-0.765,0.318-1.522,0.659-2.304,0.93c-4.276,1.484-6.714-0.211-6.906-4.792c-0.021-0.498-0.012-1.001,0.035-1.498
		C507.017,237.07,507.141,236.756,507.266,236.271z"/>
	<path style="fill:#B52432;" d="M820.473,1355.398c3.915,21.37,6.676,42.898,9.61,64.59c-3.105,1.475-6.411,0.705-9.96,2.053
		c-3.888-26.671-7.736-53.062-11.639-79.839c5.077-0.784,9.946-1.536,15.128-2.336c10.69,20.872,21.318,41.622,31.947,62.372
		c0.336-0.031,0.673-0.063,1.009-0.094c4.25-23.038,8.499-46.076,12.798-69.385c4.94-0.821,9.779-1.89,15.236-1.919
		c3.825,26.53,7.635,52.959,11.484,79.655c-3.49,1.019-6.941,1.667-10.769,1.481c-3.143-21.74-5.757-43.229-9.904-64.513
		c-3.917,22.334-7.835,44.668-11.756,67.025c-3.288,2.289-7.185,0.897-10.869,2.497c-10.477-20.905-20.782-41.468-31.088-62.032
		C821.29,1355.101,820.881,1355.25,820.473,1355.398z"/>
	<path style="fill:#B52533;" d="M440.865,1250.026c4.109,2.892,8.037,5.656,12.289,8.648c-15.437,22.192-30.785,44.257-46.334,66.61
		c-2.709-2.207-5.115-4.166-7.956-6.48c12.425-18.084,24.761-36.039,37.097-53.994c-0.161-0.152-0.322-0.305-0.482-0.457
		c-18.436,13.742-36.872,27.484-55.534,41.394c-2.883-1.915-5.6-3.719-8.614-5.722c6.732-22.941,13.423-45.74,20.113-68.539
		c-12.882,18.413-26.298,36.16-38.978,54.674c-2.976-1.986-5.715-3.813-8.684-5.795c15.51-22.286,30.874-44.362,46.351-66.6
		c4.509,3.268,8.651,6.27,12.977,9.405c-6.661,22.884-13.269,45.587-20.257,69.593
		C402.677,1278.159,421.556,1264.251,440.865,1250.026z"/>
	<path style="fill:#B52533;" d="M1034.675,1342.548c-4.726-11.145-9.433-22.297-14.183-33.432
		c-3.374-7.909-6.804-15.793-10.274-23.837c2.678-2.269,6.001-2.862,9.13-4.804c10.901,24.84,21.613,49.249,32.445,73.934
		c-3.594,1.751-6.946,3.797-11.016,4.913c-21.044-14.115-42.119-28.251-63.193-42.387c-0.237,0.15-0.475,0.3-0.712,0.449
		c8.676,19.62,17.352,39.24,26.126,59.08c-2.465,2.238-5.731,2.93-9.063,4.81c-10.828-24.657-21.539-49.049-32.317-73.594
		c3.577-2.493,7.368-4.093,11.327-5.984c5.6,3.139,10.62,7.236,15.942,10.865c14.963,10.204,29.858,20.509,44.78,30.774
		c0.27,0.421,0.654,0.797,1.12,0.442C1035.261,1343.417,1034.929,1342.944,1034.675,1342.548z"/>
	<path style="fill:#B52533;" d="M556.068,1351.385c5.234,6.04,4.173,12.691,1.49,19.464c-1.159,2.926-2.255,5.877-3.331,8.835
		c-1.513,4.162-3.399,8.32-0.374,12.993c-4.901-0.611-8.613-3.258-12.817-4.933c0.989-6.367,3.582-11.951,5.374-17.771
		c0.146-0.473,0.325-0.939,0.526-1.392c4.743-10.695-0.245-15.361-7.689-18.653c-7.989-3.533-15.976-7.07-24.361-10.781
		c-4.43,10.965-8.756,21.67-13.103,32.429c-3.604-1.262-6.771-2.555-10.043-4.371c10.337-24.758,20.602-49.343,30.812-73.794
		c1.714-0.589,2.767,0.488,3.917,0.969c9.936,4.161,19.838,8.404,29.756,12.608c2.601,1.103,5.122,2.333,7.535,3.826
		c10.412,6.442,14.347,16.254,7.996,29.161c-2.623,5.332-6.722,8.993-12.769,10.104
		C558.028,1350.253,557.028,1350.371,556.068,1351.385z M518.4,1331.195c8.993,3.629,17.359,7.17,25.865,10.336
		c2.551,0.95,5.337,1.689,8.282,1.098c5.869-1.18,8.467-5.506,10.204-10.5c2.231-6.415,0.354-11.571-5.763-14.657
		c-8.844-4.46-18.132-7.944-27.654-11.687C525.706,1314.217,522.19,1322.388,518.4,1331.195z"/>
	<path style="fill:#B52533;" d="M655.345,1368.583c-0.463,10.764-3.674,20.541-10.359,29.068
		c-9.746,12.431-22.508,16.38-37.667,13.05c-4.515-0.992-8.945-2.396-13.019-4.787c-12.593-7.39-17.801-18.934-18.01-32.901
		c-0.164-11.012,2.785-21.328,9.144-30.53c10.151-14.69,26.527-19.944,43.409-14.217c13.951,4.733,22.637,14.018,25.707,28.423
		C655.381,1360.588,655.605,1364.586,655.345,1368.583z M587.09,1371.438c-0.084,16.325,7.87,26.188,22.321,29.733
		c9.485,2.326,17.364-0.206,24.037-7.032c8.159-8.346,11.155-18.814,11.197-30.051c0.029-7.813-2.545-15.059-8.551-20.591
		c-10.217-9.411-29.354-12.365-41.254,4.641C589.62,1355.598,587.657,1364.073,587.09,1371.438z"/>
	<path style="fill:#B52533;" d="M907.784,1332.084c2.617,7.936,5.096,15.453,7.728,23.432c13.964-3.837,27.335-9.027,41.175-13.327
		c1.692,2.889,2.049,6.043,3.147,9.316c-13.624,4.303-27.151,8.576-41.176,13.006c2.643,8.753,5.203,17.23,7.891,26.132
		c15.286-5.026,30.202-9.93,45.354-14.912c1.787,2.82,2.612,5.797,3.747,9.036c-9.352,3.012-18.634,6.01-27.921,8.991
		c-9.309,2.988-18.623,5.959-28.467,9.108c-8.105-25.383-16.201-50.739-24.5-76.729c18.561-6.025,37.039-12.024,55.733-18.093
		c0.985,3.253,1.84,6.076,2.827,9.336C938.071,1322.305,923.044,1327.156,907.784,1332.084z"/>
	<path style="fill:#B52432;" d="M1149.046,1226.738c-2.551,1.891-4.939,3.662-7.154,5.303c-1.433-0.015-1.954-0.964-2.632-1.651
		c-4.112-4.166-9.243-5.488-14.689-4.194c-6.967,1.656-12.888,5.284-16.867,11.526c-1.965,3.083-2.527,6.403-1.903,10.02
		c1.156,6.7,6.983,11.168,13.945,8.568c8.079-3.018,16.121-6.135,24.188-9.184c2.324-0.879,4.617-1.847,7.123-2.18
		c7.773-1.033,13.957,1.558,18.72,7.815c5.339,7.013,7.369,14.642,3.535,22.847c-6.002,12.842-16.146,21.184-29.97,24.107
		c-11.603,2.454-21.861-3.294-26.408-12.209c2.456-1.79,4.958-3.612,7.396-5.389c0.335,0.232,0.508,0.299,0.604,0.425
		c7.311,9.568,17.621,9.179,26.575,3.555c3.838-2.41,7.462-5.069,10.285-8.611c2.734-3.431,5.071-7.238,3.67-11.873
		c-1.947-6.439-6.823-11.483-15.638-9.179c-6.447,1.684-12.427,4.629-18.615,7.013c-3.397,1.309-6.669,2.92-10.216,3.864
		c-7.649,2.038-14.059,0.394-19.236-5.832c-8.177-9.833-7.896-23.292,0.728-32.727c4.703-5.146,10.388-8.802,16.812-11.313
		C1131.188,1212.792,1141.778,1216.357,1149.046,1226.738z"/>
	<path style="fill:#B52231;" d="M750.387,1351.974c0.292,8.895,0.557,16.97,0.845,25.728c14.476-0.144,28.71-1.052,43.137-0.617
		c0.933,3.071,0.273,6.175,0.484,9.829c-14.631,0-28.995,0-43.547,0c0,9.164,0,17.753,0,26.851c15.816,0,31.528,0,47.464,0
		c0,3.253,0,6.005,0,9.236c-19.393,0.357-38.742,0.713-58.591,1.078c0-27.187,0-53.903,0-80.903c19.046,0,38.26,0,57.703,0
		c0,2.881,0,5.627,0,8.799C782.218,1351.974,766.641,1351.974,750.387,1351.974z"/>
	<path style="fill:#B52533;" d="M462.612,1263.843c11.982,6.294,23.77,12.333,35.042,19.322c0.842,0.522,1.582,1.216,2.345,1.859
		c7.411,6.244,9.78,15.302,6.042,24.254c-3.595,8.61-9.367,14.892-19.162,16.249c-5.301,0.734-10.222-0.718-14.818-3.213
		c-7.147-3.88-14.212-7.908-21.745-12.115c-5.52,9.76-11.033,19.507-16.731,29.582c-3.182-1.71-6.182-3.322-9.346-5.021
		C437.096,1310.995,449.784,1287.549,462.612,1263.843z M454.596,1301.479c6.835,3.917,13.126,7.576,19.479,11.125
		c1.432,0.8,3.044,1.325,4.627,1.796c5.985,1.778,10.297,0.388,14.105-4.456c1.346-1.712,2.307-3.645,3.089-5.66
		c1.835-4.724,0.473-8.788-2.771-12.354c-2.614-2.873-21.39-13.396-25.805-14.536
		C463.173,1285.247,459.006,1293.133,454.596,1301.479z"/>
	<path style="fill:#B52533;" d="M698.794,1423.052c-3.855-0.205-7.483-0.397-11.683-0.621
		c-7.825-27.237-15.672-54.551-23.595-82.129c4.349-0.501,8.108,0.128,12.239,0.426c5.871,22.944,11.74,45.884,17.855,69.785
		c5.427-11.365,9.372-22.526,14.014-33.376c4.689-10.96,9.08-22.046,13.646-33.183c4.199-0.201,8.096,0.308,12.256,1.441
		C721.947,1371.283,710.402,1397.096,698.794,1423.052z"/>
	<path style="fill:#B52533;" d="M1084.635,1241.992c1.75,3.037,3.24,5.623,4.997,8.672c-7.631,4.576-15.243,9.141-23.116,13.862
		c11.758,20.543,23.372,40.835,35.118,61.356c-2.935,2.431-5.922,4.119-9.223,5.897c-11.712-20.401-23.412-40.783-35.3-61.491
		c-7.821,4.581-15.233,8.923-22.793,13.352c-2.556-2.253-3.427-5.495-5.427-8.391
		C1047.572,1264.104,1065.968,1253.129,1084.635,1241.992z"/>
	<path style="fill:#B52533;" d="M330.682,1267.244c-2.985-2.272-5.616-4.274-8.59-6.538c16.604-20.925,33.073-41.679,49.73-62.671
		c3.217,1.53,5.597,4.022,8.764,6.32C363.963,1225.302,347.484,1246.07,330.682,1267.244z"/>
	<path style="fill:#B42131;" d="M456.064,750.754c0.679-163.931,132.299-293.79,293.898-293.853
		c162.503-0.063,294.121,130.974,293.986,294.106c-0.133,160.647-128.523,293.632-293.959,293.561
		C584.969,1044.497,456.74,912.211,456.064,750.754z M984.801,750.44C984.02,619.52,879.963,515.429,750.068,515.505
		c-130.752,0.077-234.539,104.736-234.542,234.964c-0.003,133.192,108.078,235.04,234.567,235.027
		C877.154,985.483,984.193,882.944,984.801,750.44z"/>
	<path style="fill:#B52231;" d="M457.269,845.401c-5.253-1.292-4.749-6.911-8.675-8.167c-1.783-0.565-3.489-0.086-5.287,0.442
		c-13.514,3.974-27.062,7.831-40.587,11.765c-5.382,1.565-6.096,2.631-5.83,8.101c0.089,1.828,0.194,3.657,0.195,5.486
		c0.001,1.517-0.246,2.985-1.72,3.876c-1.792-0.25-1.822-1.867-2.224-2.992c-7.617-21.329-13.153-43.154-14.909-65.796
		c-0.864-11.139-0.921-22.244,3.667-32.86c2.688-6.219,6.114-11.836,11.544-15.959c10.975-8.333,26.103-7.314,36.625,2.184
		c5.72,5.164,9.255,11.626,11.921,18.715c3.237,8.608,4.523,17.639,6.024,26.632c1.857,11.124,3.196,22.337,6.09,33.281
		C455.36,834.863,456.117,839.749,457.269,845.401z M439.372,813.591c-1.013-8.444-1.125-16.583-3.523-24.411
		c-0.871-2.842-2.149-5.532-3.528-8.19c-2.821-5.439-7.514-8.288-13.144-9.788c-4.562-1.216-9.136-0.689-13.745,0.256
		c-9.051,1.855-14.191,7.269-15.762,16.287c-1.266,7.265-0.974,14.548-0.103,21.797c0.506,4.212,0.909,8.526,2.943,12.319
		c0.521,0.05,0.859,0.157,1.167,0.101C408.643,819.222,423.503,815.911,439.372,813.591z"/>
	<path style="fill:#B52432;" d="M926.953,494.885c1.579-2.614,3.267-1.368,4.723-0.929c8.517,2.571,8.57,2.648,13.996-4.243
		c8.233-10.455,16.486-20.903,23.268-32.402c2.97-5.035,2.813-6.101-1.476-10.278c-0.835-0.813-1.709-1.587-2.518-2.424
		c-1.328-1.375-1.445-2.874-0.34-4.586c2.871,0.571,5.188,2.21,7.55,3.686c19.063,11.906,35.777,26.573,50.527,43.474
		c6.279,7.195,11.194,15.228,13.733,24.593c1.964,7.242,2.064,14.509,0.208,21.678c-2.541,9.814-11.339,18.692-24.862,19.66
		c-10.337,0.74-19.32-2.538-27.521-8.439c-6.776-4.876-13.095-10.329-18.636-16.569c-8.802-9.913-18.746-18.396-30.1-25.243
		c-1.848-1.114-3.531-2.498-5.329-3.698C928.593,498.108,927.505,496.74,926.953,494.885z M959.556,511.941
		c3.171,4.857,6.959,8.957,10.974,12.507c7.344,6.493,15.723,11.158,26.261,8.435c12.797-3.306,28.522-16.897,21.171-36.921
		c-2.797-7.617-8.212-13.569-14.041-19.054c-2.636-2.48-5.436-4.847-9.206-6.097C981.811,483.353,971.008,497.651,959.556,511.941z"
		/>
	<path style="fill:#B52432;" d="M1084.705,797.184c-4.72-1.464-9.25-3.068-14.134-3.223c-4.63-0.147-5.683,0.535-7.617,4.791
		c-0.769,1.691-0.864,4.079-3.596,4.09c-1.156-1.55-0.598-3.272-0.657-4.887c-0.395-10.863,1.37-21.569,2.47-32.321
		c0.184-1.804,0.502-3.777,3.101-3.669c1.199,0.674,1.137,1.99,1.483,3.026c1.772,5.299,2.926,6.369,8.475,6.732
		c7.303,0.477,14.615,0.831,21.927,1.151c4.98,0.218,9.959,0.225,14.936,0.753c5.19,0.551,6.471-0.545,7.737-5.501
		c0.205-0.802,0.215-1.669,0.516-2.426c0.542-1.36,1.495-2.193,3.142-1.738c1.066,1.043,0.792,2.428,0.817,3.715
		c0.171,8.678-0.775,17.269-1.899,25.858c-0.69,5.27-0.935,10.597-2.273,15.777c-0.372,1.44-0.515,2.953-2.277,3.919
		c-2.303-0.891-2.663-3.003-2.812-5.147c-0.127-1.825-0.015-3.665-0.069-5.497c-0.079-2.666-1.305-4.414-4.07-4.831
		c-4.24-0.64-8.497-1.514-12.703,0.651c-0.965,4.671-0.136,9.105,1.161,13.377c1.247,4.109,3.025,8.063,4.666,12.045
		c0.991,2.405,2.723,4.135,4.996,4.889c3.609-0.459,2.497-6.677,7.16-5.644c1.755,6.785-7.419,38.167-12.905,44.669
		c-1.842-1.149-1.211-2.94-1.098-4.528c0.877-12.244-2.208-23.723-6.754-34.903c-1.762-4.334-3.912-5.235-7.559-2.356
		c-11.245,8.877-24.476,14.861-35.23,24.43c-1.256,1.118-2.424,2.228-3.316,3.66c-0.885,1.421-2.001,2.61-3.833,2.84
		c-0.553-3.639,5.457-26.803,10.01-38.825c0.655-1.73,0.655-1.73,3.037-3.651c2.242,1.44,1.16,4.989,4.428,6.266
		c2.263-0.692,4.523-2.34,6.781-3.925c4.639-3.257,8.833-7.065,13.142-10.737C1084.586,803.713,1085.778,801.157,1084.705,797.184z"
		/>
	<path style="fill:#B52432;" d="M503.175,564.797c-1.778-4.126,3.607-7.004,1.243-11.806
		c-10.922-10.347-23.273-20.359-36.654-28.895c-4.555,1.024-6.524,5.757-11.041,7.172c-0.745-3.001,0.647-5.072,2.071-6.959
		c2.901-3.845,5.951-7.581,9.025-11.291c7.961-9.612,15.921-19.238,24.786-28.039c9.507-9.439,20.475-16.415,33.961-18.595
		c10.329-1.67,19.574,0.532,26.67,8.701c5.238,6.03,5.485,13.368,4.502,20.793c-1.196,9.035-5.643,16.522-11.419,23.399
		c-12.632,15.04-26.277,29.162-39.387,43.767C506.035,564.043,505.293,565.194,503.175,564.797z M519.477,534.727
		c1.115-0.302,2.228-0.644,3.074-1.51c5.109-5.231,10.264-10.424,14.398-16.504c1.405-2.066,2.6-4.234,3.061-6.737
		c1.724-9.359-1.553-16.91-8.433-23.106c-4.778-4.304-10.332-5.704-16.633-4.26c-13.184,3.021-21.975,11.604-29.023,22.402
		C490.114,510.824,514.531,532.387,519.477,534.727z"/>
	<path style="fill:#B52432;" d="M420.036,704.074c4.244,2.951,8.707,3.561,13.459,3.128c4.165-0.38,7.135-1.978,8.454-6.339
		c0.922-3.047,1.386-2.999,4.786-1.347c-1.201,12.443-2.432,24.974-3.598,37.512c-0.19,2.037-0.117,4.083-3.199,4.134
		c-1.316-1.766-1.428-3.972-1.994-5.981c-1.027-3.642-3.283-5.786-7.095-5.854c-12.634-0.228-25.217-1.971-37.882-1.238
		c-1.839,0.106-3.624,0.399-4.972,0.977c-2.876,2.737-0.943,6.908-3.699,9.315c-0.321,0.28-0.897,0.268-1.29,0.374
		c-1.599-0.858-1.337-2.296-1.307-3.571c0.362-15.466,1.476-30.852,4.666-46.038c1.022-4.868,1.824-9.789,2.538-14.712
		c0.868-5.981,3.492-11.088,7.597-15.379c7.222-7.55,15.582-6.491,20.932,2.486c2.128,3.571,3.528,7.475,5.287,11.814
		c6.065-4.323,11.921-8.608,18.158-12.295c6.077-3.593,12.234-7.061,17.581-12.006c-1.641,7.97-2.196,16.089-6.335,23.238
		c-2.046,3.533-4.883,6.313-8.392,8.362c-3.438,2.007-6.958,3.873-10.42,5.84c-3.484,1.979-6.812,4.182-9.46,7.249
		C421.393,696.588,419.791,699.774,420.036,704.074z M393.016,696.318c-0.096,6.398,1.272,8.091,6.33,8.75
		c1.6,0.208,3.188,0.435,4.879,0.19c5.744-0.834,7.586-2.598,8.97-8.184c0.994-4.011,0.613-7.884-0.333-11.749
		c-0.845-3.452-3.209-5.748-6.458-7.014c-3.83-1.492-8.259-0.257-9.425,2.952C395.07,686.517,393.511,691.911,393.016,696.318z"/>
	<path style="fill:#B52432;" d="M1045.447,549.008c7.533,0.351,16.077,4.731,23.282,11.382
		c13.363,12.334,22.904,27.108,26.024,45.347c1.757,10.271,1.438,20.487-2.483,30.38c-4.116,10.387-10.497,15.69-25.78,14.337
		c-8.794-0.779-15.318-5.98-21.656-11.338c-11.153-9.429-17.465-21.93-21.87-35.558c-2.457-7.603-4.16-15.453-4.724-23.343
		c-0.712-9.967,2.203-19.104,9.953-26.051C1032.32,550.464,1037.303,548.831,1045.447,549.008z M1086.188,600.796
		c-0.893-10.486-6.599-20.739-16.85-28.433c-2.844-2.135-6.345-3.344-9.826-2.941c-7.327,0.846-14.344,2.909-20.057,7.939
		c-7.761,6.833-11.896,15.054-9.391,25.665c1.116,4.728,3.257,8.996,5.666,13.199c6.019,10.502,17.728,14.635,29.155,11.799
		C1077.6,624.869,1086.077,615.178,1086.188,600.796z"/>
	<path style="fill:#B52432;" d="M614.928,446.494c-0.344-2.608,1.434-3.522,2.951-4.396c2.581-1.488,5.215-2.95,7.976-4.051
		c7.078-2.822,14.254-5.391,21.614-7.404c2.066-0.565,4.143-1.103,6.482-0.026c-0.387,2.259-2.152,3.4-3.547,4.646
		c-2.453,2.193-2.902,4.651-1.825,7.628c0.732,2.024,1.261,4.121,1.968,6.155c1.286,3.698,0.174,6.993-2.955,8.707
		c-15.521,8.503-29.991,19.171-47.45,23.771c-10.439,2.751-20.751,2.565-30.575-2.442c-12.406-6.323-17.029-18.126-12.772-31.447
		c3.44-10.764,10.417-18.878,19.044-25.618c10.926-8.537,23.146-14.221,37.255-15.152c5.664-0.374,10.583-2.528,14.436-7.609
		c4.966,5.219,8.598,10.395,8.422,17.292c-0.105,4.107-3.509,6.055-7.402,4.615c-1.227-0.454-2.487-1.038-3.485-1.861
		c-6.898-5.688-14.89-5.244-22.799-3.667c-8.75,1.745-15.949,6.659-21.728,13.32c-6.077,7.005-6.401,15.597-3.156,23.517
		c4.064,9.92,11.534,16.921,22.665,19.064c2.887,0.556,5.627,0.079,8.393-0.503c6.84-1.44,12.758-4.717,17.794-9.469
		c3.824-3.608,4.26-7.673,1.695-11.629c-2.201-3.395-4.294-4.244-8.391-3.321C618.075,446.945,616.642,447.382,614.928,446.494z"/>
	<path style="fill:#B52432;" d="M880.396,461.425c0.91,1.205,0.85,2.127,0.224,3.228c-7.977,3.007-15.182,0.466-22.095-3.579
		c-4.313-2.523-8.144-5.739-12.124-9.072c-4.515,0-9.174,0.194-13.81-0.045c-7.009-0.361-13.841-1.663-20.093-5.103
		c-2.632-1.449-5.082-3.146-7.147-5.364c-7.344-7.891-5.813-18.177,3.518-23.56c3.617-2.087,7.603-3.258,11.334-4.427
		c2.274-2.462,1.025-4.994,0.547-7.306c-1.758-8.513,1.179-13.059,9.761-14.327c9.91-1.465,19.122,0.512,27.501,6.084
		c0.967,0.643,1.865,1.393,2.77,2.126c3.191,2.583,5.27,5.805,4.065,9.988c-1.083,3.762-4.422,5.094-7.938,6.023
		c-3.639,0.962-7.655,1.075-10.68,4.549c2.302,5.988,4.385,12.22,10.513,15.725c3.753-0.693,5.568-3.035,6.13-6.123
		c0.59-3.238-3.169-4.407-4.126-6.861c0.423-1.833,1.497-2.37,2.996-2.029c2.098,0.477,4.238,0.887,6.239,1.647
		c6.938,2.633,13.693,5.66,20.249,9.889c-1.615,1.828-3.353,1.207-4.833,1.063c-5.452-0.533-10.181,0.619-13.985,4.905
		c-1.642,1.85-3.864,3.175-5.598,4.958c-2.601,2.675-2.63,4.452-0.532,7.511C867.334,457.23,872.367,460.222,880.396,461.425z
		 M839.942,441.488c-3.385-5.125-6.759-10.555-9.525-16.352c-0.961-2.014-2.809-3.694-5.305-3.991
		c-7.127,3.031-8.929,8.177-5.188,14.649c3.279,5.674,8.76,7.791,14.755,8.833C836.805,444.997,839.041,444.566,839.942,441.488z
		 M843.606,397.998c-3.983-0.079-6.504,2.175-6.498,5.808c0.006,3.575,3.157,7.08,6.368,7.082c3.787,0.003,7.179-3.206,7.237-6.846
		C850.768,400.579,847.83,398.081,843.606,397.998z"/>
	<path style="fill:#B52432;" d="M460.419,638.928c-1.051-2.192-0.511-4.375-0.518-6.508c-0.008-2.326-0.676-4.149-2.916-5.321
		c-13.074-6.842-26.386-13.105-40.164-17.039c-5.225,0.835-5.382,7.477-10.472,8.24c-1.009-2.683-0.297-4.822,0.379-7.076
		c2.11-7.038,5.681-13.425,8.904-19.937c6.696-13.528,13.626-26.951,22.312-39.363c0.667-0.953,1.257-1.963,1.96-2.888
		c2.432-3.206,4.981-3.828,8.702-2.128c2.285,1.044,4.255,2.565,6.14,4.123c0.583,4.507-0.01,5.619-3.85,6.582
		c-2.085,0.523-4.238,0.796-6.374,1.087c-2.811,0.383-5.065,1.729-6.614,4.03c-3.612,5.365-7.034,10.823-9.138,17.035
		c-0.917,2.71-0.48,4.764,1.268,6.887c2.41,2.926,5.415,4.834,8.981,5.979c2.896,0.93,5.191,0.145,7.049-2.232
		c2.895-3.704,3.799-7.698,1.865-12.117c-1.324-3.027-1.336-5.78,1.298-7.978c1.091-0.601,2.202-0.659,3.047-0.226
		c3.977,2.038,7.93,4.134,11.792,6.38c2.132,1.24,2.571,3.338,2.018,5.67c-0.507,2.137-2.009,2.767-4.032,2.989
		c-6.958,0.765-9.931,3.497-11.81,10.657c0.529,2.124,2.308,3.109,4.004,4.15c3.97,2.434,8.25,4.248,12.426,6.277
		c2.359,1.146,4.172,0.639,5.888-0.95c0.844-0.782,1.686-1.674,2.206-2.682c2.733-5.301,5.58-10.561,7.964-16.02
		c2.076-4.754,1.897-9.69-0.404-14.458c-0.788-1.633-1.744-3.211-1.645-5.158c0.157-3.085,2.346-4.848,5.016-3.498
		c4.012,2.027,7.674,4.665,10.293,8.456c1.249,1.807,1.38,3.695,0.07,5.576c-0.379,0.544-0.653,1.164-1.056,1.688
		c-11.533,14.993-19.4,32.021-27.253,49.057c-1.319,2.86-2.63,5.727-4.058,8.533C463.126,637.866,462.577,639.264,460.419,638.928z"
		/>
	<path style="fill:#B52432;" d="M690.457,408.311c4.691,2.473,9.074,1.882,12.824-1.768c1.304-1.27,2.479-2.708,3.519-4.204
		c1.106-1.59,2.464-2.667,4.451-3.109c1.684,0.186,3.219,0.858,3.651,2.721c1.393,6.013,1.772,12.089,1.128,18.326
		c-3.167,1.229-5.442-0.28-7.7-1.556c-1.732-0.979-3.331-2.19-5.013-3.261c-4.623-2.944-11.494,0.577-10.622,6.37
		c0.516,3.425,0.727,6.938,1.51,10.322c0.955,4.125,6.327,7.309,11.591,6.663c6.089-0.748,12.115-1.977,17.991-3.815
		c3.82-1.195,5.716-4.381,7.657-7.494c1.859-2.982,4.083-5.298,8.01-4.74c0.307,0.044,0.586,0.289,1.429,0.728
		c0.222,4.453,0.566,9.175-0.697,13.902c-0.586,2.191-1.958,3.218-4.119,3.782c-2.949,0.77-5.907,0.426-8.86,0.56
		c-10.997,0.498-21.741,2.714-32.514,4.741c-8.481,1.596-16.973,3.13-25.45,4.746c-1.351,0.258-2.622,0.729-3.375-1.322
		c0.752-1.887,2.881-2.362,4.454-3.422c2.428-1.636,3.377-3.415,2.877-6.628c-2.048-13.152-5.631-25.905-9.364-38.63
		c-1.034-3.525-2.243-4.242-6.257-4.392c-4.821-0.18-4.821-0.18-7.505-1.616c-0.508-2.094,1.142-2.612,2.487-3.066
		c4.545-1.536,9.131-2.851,13.877-3.78c12.213-2.39,24.321-5.339,36.696-6.831c8.578-1.035,17.177-1.961,26.079-1.421
		c3.073,3.889,3.115,8.429,2.825,13.175c-3.488,1.72-6.537,1.125-9.404-1.008c-1.334-0.992-2.653-2.016-3.896-3.118
		c-1.844-1.636-4.003-2.478-6.406-2.298c-6.791,0.508-13.593,0.985-20.349,1.811c-3.873,0.473-5.024,2.246-4.613,6.252
		C687.825,399.397,688.805,403.775,690.457,408.311z"/>
	<path style="fill:#B52533;" d="M1075.894,754.968c-5.899-2.694-9.426-7.097-12.229-12.42c-3.958-7.517-5.482-15.651-6.517-23.885
		c-1.162-9.237-1.824-18.512-0.217-27.816c1.678-9.72,5.052-18.57,12.264-25.597c9.231-8.995,22.019-9.554,32.114-1.5
		c7.204,5.748,12.003,13.24,15.732,21.507c5.295,11.74,7.096,24.176,6.701,36.912c-0.148,4.776-0.618,9.646-2.014,14.275
		c-0.717,2.38-0.527,4.422,0.254,6.737c1.837,5.444,0.59,7.594-4.943,9.149c-4.726,1.328-9.522,1.182-14.345,0.583
		c-2.674-2.901-2.115-5.778-0.168-8.63c1.425-2.087,3.308-3.748,5.409-5.125c3.792-2.485,6.166-5.991,7.544-10.23
		c2.898-8.91,3.463-17.969,0.937-27.007c-5.816-20.811-25.813-24.469-41.619-14.066c-10.783,7.097-12.876,17.836-12.359,29.699
		c0.408,9.362,4.144,17.32,9.794,24.577c1.835,2.357,3.532,4.836,5.115,7.371C1078.64,751.578,1078.658,753.564,1075.894,754.968z"
		/>
	<path style="fill:#B62735;" d="M923.063,1082.429c-8.53-15.656-16.039-31.306-23.916-47.01c7.22-3.522,14.34-7.031,21.494-10.473
		c6.411-3.085,11.184-2.693,15.196,1.14c4.699,4.49,5.527,9.744,2.563,16.383c0.208,0.161,0.434,0.483,0.635,0.468
		c6.793-0.51,11.028,2.9,13.388,8.922c2.438,6.22,0.928,11.697-3.585,16.458c-1.62,1.709-3.627,2.887-5.656,4.026
		c-0.722,0.405-1.473,0.76-2.214,1.13C935.194,1076.363,929.419,1079.25,923.063,1082.429z M926.5,1073.687
		c5.651-2.485,10.781-4.845,15.564-7.818c4.974-3.092,6.06-7.565,3.446-12.415c-2.396-4.444-6.055-5.645-11.476-3.536
		c-3.241,1.261-6.434,2.679-9.534,4.253c-2.132,1.083-4.754,1.36-6.429,3.452C920.844,1062.909,923.54,1068.046,926.5,1073.687z
		 M908.638,1037.551c1.957,5.326,3.67,10.266,7.397,14.466c4.911-2.696,9.831-5.064,14.39-7.994
		c4.548-2.923,4.964-8.057,1.451-11.915c-2.271-2.495-5.943-3.064-10.115-1.367C917.327,1032.544,913.199,1034.959,908.638,1037.551
		z"/>
	<path style="fill:#B62735;" d="M501.703,941.921c6.282,7.674,12.702,14.906,17.584,23.218c5.308,9.036,0.915,18.555-9.201,21.329
		c-2.631,0.721-4.904-0.19-7.65-0.605c-0.786,2.219,0.331,4.986-1.596,6.877c-1.776,1.744-3.546,3.495-5.378,5.179
		c-1.832,1.685-3.685,3.354-5.623,4.913c-1.626,1.308-2.583,2.96-3.082,5.23c-2.255-1.534-3.341-3.759-4.919-5.774
		c0.811-2.673,2.989-4.263,4.912-6.022c1.714-1.568,3.549-3.003,5.296-4.537c3.697-3.247,4.308-6.589,1.559-10.497
		c-3.616-5.14-7.463-10.118-11.402-15.422c-5.98,4.495-11.794,8.867-17.735,13.333c-1.913-1.307-2.649-3.299-3.89-5.449
		C474.233,963.144,487.739,952.709,501.703,941.921z M487.272,962.214c3.702,4.768,7.136,9.226,10.615,13.649
		c0.811,1.032,1.668,2.075,2.684,2.891c3.107,2.495,6.106,2.368,9.424-0.249c4.153-3.275,5.743-6.813,3.656-10.153
		c-3.658-5.856-7.33-11.755-12.026-17.029C496.725,955.041,492.013,958.616,487.272,962.214z"/>
	<path style="fill:#B62735;" d="M607.56,1093.303c-2.35-1.046-4.146-1.844-6.408-2.851c7.23-16.168,14.372-32.138,21.625-48.358
		c8.709,3.225,16.675,7.21,24.538,11.366c5.638,2.979,9.486,7.329,8.661,14.353c-0.786,6.693-4.606,10.748-12.299,12.818
		c2.969,3.943,2.582,7.932,0.621,12.185c-1.307,2.834-1.802,6.033-2.917,8.97c-0.753,1.982-0.392,3.86,0.052,6.157
		c-3.368-0.032-5.646-1.926-8.273-3.123c0.95-4.626,2.773-8.71,4.17-12.925c2.161-6.525,1.005-9.766-4.961-12.619
		c-4.901-2.344-9.916-4.449-15.289-6.842C613.874,1079.463,610.802,1086.198,607.56,1093.303z M619.217,1067.276
		c5.99,2.569,11.315,4.823,16.61,7.143c1.585,0.694,3.218,0.807,4.878,0.717c3.536-0.192,7.018-3.293,8.068-7.097
		c0.947-3.432,0.027-6.759-3.213-8.702c-5.932-3.557-12.225-6.425-19.123-8.698C624.004,1056.246,621.718,1061.513,619.217,1067.276
		z"/>
	<path style="fill:#B62735;" d="M975.534,1044.114c-15.453-0.274-31.926-16.121-28.61-34.375
		c3.087-16.994,22.834-25.912,37.602-17.066c8.993,5.387,14.028,13.289,15.702,23.628
		C1002.682,1031.455,987.317,1044.942,975.534,1044.114z M975.371,1037.163c12.636,0.077,21.224-12.041,17.03-23.745
		c-2.394-6.679-6.869-11.747-12.871-15.275c-6.102-3.587-12.312-3.305-18.213,0.85c-6.098,4.293-9.105,9.866-7.493,17.477
		c1.756,8.291,6.615,14.272,13.695,18.624C969.985,1036.61,972.691,1037.286,975.371,1037.163z"/>
	<path style="fill:#B62735;" d="M1018.409,1012.617c-13.044-11.384-26.064-22.748-39.008-34.045
		c-0.073-1.738,1.211-2.453,2.057-3.395c5.665-6.311,11.142-12.806,17.357-18.595c8.485-7.903,19.092-2.429,22.52,5.484
		c1.049,2.42,0.191,4.932,0.941,7.519c5.055-1.873,8.995,0.022,12.519,3.489c1.536,1.511,3.267,2.823,4.852,4.287
		c1.906,1.761,4.099,2.771,7.431,2.579c-1.928,2.54-3.464,4.563-5.173,6.814c-3.528-1.656-6.321-3.908-9.018-6.299
		c-1.619-1.434-3.212-2.898-5.193-3.838c-2.817-1.337-5.608-1.35-7.812,0.987c-4.543,4.815-8.906,9.801-13.529,14.922
		c5.617,5.183,10.958,10.111,16.285,15.027C1021.694,1009.75,1020.314,1011.338,1018.409,1012.617z M988.267,976.721
		c4.714,4.2,9.112,8.119,13.835,12.327c4.339-5.375,8.614-10.241,12.382-15.471c3.138-4.355,2.054-8.492-2.465-12.133
		c-4.035-3.251-7.455-2.988-11.3,1.184C996.554,967.146,992.572,971.832,988.267,976.721z"/>
	<path style="fill:#B62735;" d="M870.126,1105.705c-5.846-16.775-11.557-33.162-17.416-49.975c4.915-1.744,9.55-3.387,14.183-5.034
		c4.058-1.443,8.057-3.082,12.181-4.297c9.715-2.863,17.313,2.57,18.024,12.705c0.252,3.583,0.033,4.555-2.323,9.94
		c5.573,0.715,6.916,5.173,8.708,9.507c1.737,4.2,2.578,9.062,7.771,11.884c-3.114,1.05-5.617,1.895-8.234,2.778
		c-2.357-2.919-3.118-6.359-4.527-9.478c-0.749-1.657-1.371-3.389-2.28-4.953c-1.784-3.07-4.595-4.504-8.026-3.573
		c-6.209,1.685-12.514,3.187-18.464,6.578c1.42,7.003,4.628,13.423,6.477,20.425
		C874.935,1104.127,872.642,1104.343,870.126,1105.705z M861.48,1058.447c1.908,6.334,3.597,11.988,5.911,17.456
		c6.29-1.788,11.992-4.409,17.768-6.809c4.984-2.071,6.42-5.748,4.669-10.896c-1.64-4.824-5.589-7.173-10.541-5.724
		C873.45,1054.183,867.741,1056.325,861.48,1058.447z"/>
	<path style="fill:#B62735;" d="M575.778,1048.513c-1.071,1.733-1.802,2.838-2.455,3.988c-2.049,3.604-4.069,7.226-6.261,11.127
		c8.845,5.303,17.636,10.573,26.404,15.83c-0.533,2.125-1.302,3.916-2.88,5.677c-10.909-6.635-21.759-13.234-32.957-20.046
		c8.955-15.244,17.748-30.213,26.786-45.597c10.941,6.784,21.604,13.397,32.213,19.975c-0.305,2.24-1.457,3.813-2.644,5.881
		c-8.896-5.505-17.599-10.891-26.635-16.483c-2.637,4.527-5.202,8.93-7.994,13.723c8.202,5.103,16.193,10.075,24.166,15.036
		c-0.301,2.122-1.976,3.183-3.131,5.201C592.261,1058.097,584.166,1053.39,575.778,1048.513z"/>
	<path style="fill:#B62735;" d="M692.976,1088.377c-1.014-2.539-1.982-4.475-2.567-6.52c-1.518-5.302,1.051-10.988,5.924-13.479
		c5.521-2.823,12.293-1.255,16.087,3.724c3.043,3.995,2.501,9.793-1.116,14.214c-2.412,2.949-5.93,4.062-9.315,5.789
		c2.097,4.365,4.081,8.497,6.241,12.994c2.057-2.061,2.276-4.824,3.866-6.825c1.925-0.929,3.373,0.95,5.444,0.674
		c-0.69,5.125-3.519,8.673-6.732,12.163c1.279,4.509,4.208,8.228,5.698,12.631c-2.709,0.905-4.951-0.441-7.302-0.82
		c-1.242-2.353-2.397-4.54-3.639-6.894c-1.563,0.785-2.993,1.572-4.477,2.239c-7.038,3.162-15.549,1.472-20.536-4.045
		c-5.702-6.307-4.395-16.209,2.79-21.393C686.197,1090.769,689.503,1089.685,692.976,1088.377z M695.225,1094.13
		c-2.945,0.87-5.448,1.788-7.66,3.243c-4.832,3.179-5.314,9.743-1.115,13.697c4.638,4.367,11.345,4.129,16.62-0.702
		C700.95,1104.874,698.707,1099.383,695.225,1094.13z M699.417,1086.851c3.782-1.233,6.882-2.683,8.122-6.459
		c0.79-2.407,0.611-4.617-1.3-6.41c-1.416-1.328-5.805-1.59-7.617-0.504c-2.273,1.362-3.068,3.518-2.51,5.985
		C696.692,1082.018,697.464,1084.565,699.417,1086.851z"/>
	<path style="fill:#B52533;" d="M751.908,1071.201c2.447-0.356,4.508-0.656,6.694-0.974c1.901,7.099,0.79,14.362,2.26,21.723
		c8.931-0.72,17.814-1.436,27.013-2.177c0.456-7.212-1.366-14.09-0.843-21.104c0.627-0.986,1.713-0.619,2.667-0.664
		c0.981-0.046,1.966-0.01,3.472-0.01c1.217,17.261,2.416,34.265,3.634,51.526c-1.907,1.142-3.991,1.147-6.4,1.428
		c-0.79-8.364-1.55-16.407-2.33-24.663c-9.062,0.726-17.747,1.422-26.676,2.137c0.431,8.276,0.843,16.174,1.268,24.329
		c-2.309,0-4.415,0-7.137,0C754.333,1105.693,753.128,1088.555,751.908,1071.201z"/>
	<path style="fill:#B52533;" d="M818.55,1062.097c3.045,0.064,5.292-1.394,8.222-0.988c9.941,15.634,19.98,31.422,30.164,47.438
		c-2.768,0.518-5.031,0.941-7.589,1.42c-3.456-4.087-5.697-9.137-9.144-13.666c-6.596,1.401-13.187,2.801-20.026,4.254
		c-0.823,5.339-1.625,10.546-2.461,15.965c-2.042,0.505-3.908,1.652-6.819,1.527C813.116,1099.498,816.145,1081.114,818.55,1062.097
		z M820.789,1093.995c5.527-1.296,10.399-2.439,15.313-3.592c-2.164-5.645-9.682-17.986-12.576-20.501
		C822.609,1077.978,821.72,1085.796,820.789,1093.995z"/>
	<path style="fill:#B62735;" d="M536.574,1040.789c11.991-9.213,23.983-18.426,36.035-27.685c2.381,1.012,3.939,3.06,6.733,4.793
		c-15.377,10.761-30.393,21.269-45.596,31.908c-1.925-1.405-3.752-2.739-5.851-4.271c4.517-17.821,9.025-35.606,13.618-53.725
		c2.776,0.955,4.554,2.841,6.572,4.583c-4.198,14.765-8.348,29.36-12.497,43.955
		C535.915,1040.494,536.244,1040.642,536.574,1040.789z"/>
	<path style="fill:#B62735;" d="M503.158,1025.21c-2.082-1.633-3.633-2.85-5.617-4.406c11.298-13.472,22.453-26.774,33.66-40.137
		c2.638,1.039,3.927,3.23,6.068,4.689C525.722,998.847,514.452,1012.015,503.158,1025.21z"/>
	<path style="fill:#B42131;" d="M750.083,581.597c92.743-0.421,169.167,75.309,169.266,169.059
		c0.098,92.133-74.468,169.477-169.539,169.338c-94.872-0.138-169.139-77.526-168.998-169.375
		C580.955,656.797,657.39,581.187,750.083,581.597z M885.295,734.814c0.807-58.098-60.691-119.804-134.893-119.921
		c-74.675-0.118-135.472,61.388-135.541,135.134c-0.071,75.343,59.998,134.644,131.898,135.952
		c38.154,0.694,71.374-12.095,98.354-38.943C871.617,820.661,885.115,788.272,885.295,734.814z"/>
	<path style="fill:#B52533;" d="M690.561,557.197c1.789-4.626,3.568-9.073,5.224-13.565c0.924-2.508,1.971-4.946,3.592-7.066
		c2.416-3.159,5.449-5.295,9.609-5.553c5.237-0.324,10.391-1.777,16.097-1.4c-0.931,2.366-3.527,3.107-3.92,5.863
		c2.737,9.065,0.518,20.095,8.916,28.33c-8.378,1.465-16.436,2.874-24.644,4.31c0.322-3.152,2.925-4.31,4.157-6.421
		c0.448-6.714-1.792-15.975-5.03-20.454c-3.463,4.237-4.887,9.338-6.468,14.327c-1.252,3.95-2.429,7.918-4.067,11.729
		c-1.006,2.339-2.316,4.428-5.277,5.551c-2.101-1.39-4.435-2.914-6.748-4.468c-4.973-3.341-10.073-6.473-15.592-8.832
		c-1.896-0.81-3.814-2.125-6.27-0.989c-0.771,2.16-0.228,4.186,0.83,6.111c1.999,3.636,4.054,7.241,6.103,10.849
		c0.98,1.727,2.444,2.585,4.476,2.668c1.619,0.066,3.352-0.151,5.087,1.242c-5.096,2.554-10.016,5.018-15.514,7.773
		c1.463-7.515-2.405-12.915-5.916-18.439c-0.981-1.543-2.201-2.971-2.95-4.617c-1.72-3.777-4.375-5.781-8.876-5.357
		c5.175-5.659,11.296-9.51,18.71-11.014c2.641-0.536,5.224,0.693,7.635,1.777c4.082,1.837,8.079,3.86,12.136,5.752
		C684.403,556.493,686.954,557.75,690.561,557.197z"/>
	<path style="fill:#B52533;" d="M598.228,629.111c-9.139,0.6-13.418-4.274-12.462-14.106c0.903-9.278,5.661-16.926,11.317-23.989
		c7.436-9.286,16.525-16.286,28.25-19.45c3.305-0.892,6.633-0.947,9.898-0.443c6.928,1.067,11.057,7.731,9.484,14.967
		c-0.856,3.939-2.563,7.542-4.821,10.859c-7.279,10.691-16.135,19.862-26.766,27.249
		C608.683,627.286,603.753,629.165,598.228,629.111z M597.813,605.514c-0.148,7.118,8.387,13.738,14.546,10.834
		c8.502-4.009,15.085-10.109,17.933-19.488c1.172-3.861,1.402-7.676-1.863-10.594c-3.458-3.09-7.697-4.789-12.335-3.728
		C606.653,584.698,598.015,595.78,597.813,605.514z"/>
	<path style="fill:#B52533;" d="M875.066,569.653c7.762,2.283,12.69,6.871,15.882,13.471c3.007,6.218,4.154,12.921,5.087,19.681
		c0.744,5.385,1.548,10.762,2.32,16.109c4.659,1.061,6.648-2.426,9.372-4.301c3.134-2.157,4.977-4.924,3.166-9.192
		c6.214,4.443,10.771,9.605,13.529,16.855c-2.877-0.067-4.1-1.815-5.864-2.828c-4.997,0.814-8.865,3.998-12.922,6.804
		c-2.734,1.89-5.373,3.927-8.183,5.694c-1.81,1.138-3.796,2.072-5.99,2.168c-5.86-3.088-6.797-4.874-5.821-11.028
		c0.104-0.657,0.312-1.321,0.284-1.973c-0.425-9.951-0.621-19.931-3.382-29.613c-0.086-0.3-0.375-0.542-0.611-0.868
		c-1.335-0.954-2.879-1.065-4.076,0.059c-5.314,4.99-10.676,9.993-11.207,18.458c-3.751-3.313-7.242-6.362-10.684-9.465
		c-0.713-0.643-1.242-1.488-2.207-2.669c4.74,0.464,7.789-1.463,10.359-4.624c1.46-1.795,3.215-3.395,5.02-4.856
		c4.948-4.008,7.247-8.957,5.947-15.357C874.958,571.558,875.066,570.894,875.066,569.653z"/>
	<path style="fill:#B52533;" d="M761.68,548.037c-4.273,5.403-4.18,8.626,0.025,12.929c1.025,1.049,1.994,2.153,3.688,3.99
		c-8.849-1.018-16.807-1.16-25.467-1.049c7.528-5.665,6.175-13.187,5.793-20.436c-0.087-1.651-0.738-3.298-0.665-4.926
		c0.176-3.931-0.604-7.22-5.71-8.891c7.633-1.957,14.329-1.938,21.022-1.454c6.129,0.443,12.234,1.189,18.355,1.748
		c4.386,0.4,8.347,2.065,12.206,4.013c1.019,0.514,1.973,1.252,2.786,2.059c3.752,3.725,2.964,8.72-1.83,10.993
		c-2.546,1.207-5.27,1.972-8.161,2.03c-5.826,0.117-11.641,0.136-17.434-0.655C764.819,548.187,763.326,548.157,761.68,548.037z
		 M761.069,533.228c-1.001,3.532-2.99,6.842-0.534,10.404c3.617,0.403,7.049,0.846,10.493,1.155
		c5.342,0.479,6.561-0.404,8.617-5.999c-0.886-3.403-3.115-5.449-6.627-5.683C769.234,532.852,765.423,532.462,761.069,533.228z"/>
	<path style="fill:#B52533;" d="M842.735,589.645c-6.552-3.353-12.736-7.109-19.289-10.073c0.284-1.527,1.475-1.885,2.43-2.518
		c3.651-2.418,4.106-6.01,0.974-9.041c-3.727-3.606-8.58-5.051-13.478-5.79c-4.313-0.65-7.301,2.511-7.227,6.847
		c0.019,1.136,0.309,2.268,0.522,3.73c-3.088,0.284-5.678-1.42-8.482-1.996c-2.836-0.583-5.608-1.482-9.069-2.422
		c13.26-8.231,23.771-19.538,38.305-25.265c1.898,0.602,3.947,1.221,5.975,1.903c5.024,1.688,7.537,5.282,7.575,10.501
		c0.049,6.816,0.431,13.659-0.395,20.44C839.995,580.727,840.425,585.183,842.735,589.645z M816.303,557.83
		c3.159,2.597,6.418,4.437,10.632,4.486c0.704-4.21-0.275-7.614-3.236-10.598C820.644,553.082,818.195,554.833,816.303,557.83z"/>
	<path style="fill:#B62735;" d="M577.045,635.464c-0.546,2.407-2.07,2.819-3.87,2.643c-3.139-0.307-5.362,1.31-7.461,3.328
		c-6.54,6.291-10.758,13.856-12.389,22.785c-1.968,10.781,4.98,18.762,15.484,17.874c4.618-0.39,8.047-2.926,10.849-6.384
		c3.294-4.067,5.058-8.861,6.605-13.814c1.361-4.357,2.128-8.71,1.471-13.22c-0.276-1.894-0.02-3.576,0.673-5.105
		c1.051-0.858,1.975-0.77,3.125-0.15c1.211,6.239,0.165,12.411-1.697,18.465c-2.451,7.972-6.399,15.305-10.609,22.423
		c-3.255,5.504-8.11,9.695-13.928,12.507c-7.042,3.403-14.35-0.057-16.34-7.676c-3.272-12.528-0.71-24.298,4.755-35.689
		c3.247-6.767,7.342-12.992,11.819-18.984C569.547,629.097,573.344,629.378,577.045,635.464z"/>
	<path style="fill:#B52432;" d="M916.241,684.741c-0.991-5.771-3.236-11.069-5.6-16.873c5.476,0.18,8.917-2.926,12.37-6.078
		c1.511-1.379,2.689-2.881,3.365-4.842c0.702-2.035,1.572-4.016,2.446-5.986c2.471-5.573,3.998-11.257,2.37-17.393
		c-0.165-0.62-0.022-1.322-0.022-2.024c5.083,4.969,12.135,19.339,12.545,25.577c-1.257,0.896-2.506-0.76-2.957-0.461
		c-3.458,1.702-6.519,8.162-6.518,12.941c3.76,2.907,7.348,6.641,12.298,6.42c1.881-0.897,0.559-2.46,2.003-2.841
		c2.8,0.692,6.172,14.231,5.018,20.789c-1.795-0.468-2.45-2.178-3.569-3.304c-2.346-2.36-4.545-4.861-7.204-6.896
		C933.728,676.836,924.56,677.131,916.241,684.741z"/>
	<path style="fill:#2F3137;" d="M885.295,734.814c-0.179,53.458-13.677,85.847-40.182,112.222
		c-26.981,26.849-60.2,39.638-98.354,38.943c-71.9-1.308-131.969-60.609-131.898-135.952
		c0.069-73.746,60.866-135.252,135.541-135.134C824.604,615.01,886.102,676.716,885.295,734.814z M872.994,750.092
		c0.131-65.819-52.625-122.753-122.75-122.847c-69.396-0.093-123.03,55.624-123.078,122.537
		c-0.049,69.02,55.373,123.222,123.026,123.147C818.353,872.854,872.844,817.972,872.994,750.092z"/>
	<path style="fill:#2F3137;" d="M755.903,639.784c59.116,2.48,107.726,53.028,104.669,115.802
		c-3.074,63.123-54.808,107.027-111.859,105.921c-66.916-1.297-110.966-56.695-109.25-113.643
		C641.487,680.718,698.023,635.952,755.903,639.784z M848.169,750.469c0.785-53.145-42.783-98.424-97.728-98.593
		c-54.12-0.167-97.876,43.3-98.501,96.989c-0.638,54.786,43.601,99.051,97.578,99.361
		C804.204,848.541,848.522,803.775,848.169,750.469z"/>
	<path style="fill:#2D2F36;" d="M745.751,834.707c-41.997-0.957-84.135-38.883-80.557-89.856
		c3.319-47.293,42.813-82.429,90.152-79.639c48.015,2.83,82.296,42.299,79.402,90.318
		C832.246,797.036,797.618,836.779,745.751,834.707z"/>
</g>
</svg>
