<?xml version="1.0" encoding="iso-8859-1"?>
<!-- Generator: Adobe Illustrator 27.0.0, SVG Export Plug-In . SVG Version: 6.00 Build 0)  -->
<svg version="1.1" id="Layer_1" xmlns="http://www.w3.org/2000/svg" xmlns:xlink="http://www.w3.org/1999/xlink" x="0px" y="0px"
	 viewBox="0 0 843.452 684.577" style="enable-background:new 0 0 843.452 684.577;" xml:space="preserve">
<g>
	<path style="fill:#FBAF30;" d="M0,333.441c0.895-1.586,0.517-3.395,0.854-5.089c1.755-8.817,4.634-17.2,9.024-25.052
		c8.641-15.458,17.86-30.579,26.84-45.839c10.229-17.384,20.471-34.761,30.702-52.144c2.83-4.808,5.64-9.627,8.467-14.437
		c0.239-0.406,0.537-0.778,0.849-1.225c12.564,0,25.094,0,37.653,0c0.566,0.487,0.325,1.175,0.332,1.773
		c0.027,2.477-0.06,4.956-0.001,7.431c1.167,48.816,0.359,97.64,0.507,146.459c0.148,48.831,0.027,97.663,0.045,146.494
		c0.001,3.319,0.39,4.25-4.093,4.212c-10.47-0.088-20.942-0.065-31.412,0.004c-2.01,0.013-3.287-0.772-4.25-2.446
		c-11.579-20.115-23.165-40.227-34.771-60.326c-8.575-14.85-17.234-29.652-25.759-44.53c-4.801-8.379-9.095-17.012-11.783-26.343
		c-1.342-4.659-2.716-9.321-2.801-14.232c-0.006-0.332-0.09-0.624-0.404-0.8C0,342.715,0,338.078,0,333.441z"/>
	<path style="fill:#FBAE30;" d="M97.983,151.077c-0.412-1.35,0.282-2.284,0.833-3.236c3.637-6.283,7.29-12.558,10.937-18.835
		c6.654-11.45,13.311-22.899,19.963-34.351c6.692-11.521,13.384-23.042,20.069-34.567c4.323-7.453,8.631-14.914,12.954-22.367
		c4.392-7.574,9.611-14.505,16.059-20.463c7.905-7.304,16.931-12.73,27.192-16.031c2.272-0.731,4.605-1.299,7.036-1.204
		c0.718,0.028,1.439,0.003,2.158,0.003c137.116,0,274.233,0.006,411.349-0.025c4.72-0.001,9.154,1.073,13.462,2.809
		c7.827,3.154,15.076,7.322,21.426,12.91c6.21,5.464,11.563,11.651,15.711,18.872c6.437,11.207,13.012,22.334,19.526,33.497
		c7.559,12.954,15.114,25.912,22.674,38.866c6.314,10.818,12.637,21.631,18.949,32.451c1.568,2.688,3.128,5.38,4.65,8.094
		c0.581,1.035,1.19,2.086,1.192,3.337C742.093,151.413,105.493,151.659,97.983,151.077z"/>
	<path style="fill:#FBAE30;" d="M99.155,533.936c215.138,0,429.924,0,644.715,0c0.512,1.193-0.082,2.067-0.595,2.952
		c-3.077,5.316-6.162,10.628-9.236,15.946c-6.269,10.843-12.535,21.687-18.799,32.533c-6.902,11.952-13.82,23.894-20.69,35.865
		c-3.375,5.881-6.616,11.838-9.987,17.72c-5.248,9.158-10.948,17.988-18.784,25.224c-0.819,0.757-1.57,1.596-2.73,1.867
		c-0.296,0.069-0.717,0.223-0.808,0.447c-0.827,2.055-2.855,2.719-4.459,3.819c-4.479,3.069-9.093,5.93-14.146,7.991
		c-6.13,2.5-12.423,4.512-18.948,5.632c-2.893,0.496-5.86,0.648-8.825,0.638c-11.192-0.037-22.385-0.015-33.578-0.015
		c-117.922,0-235.845-0.005-353.767,0.021c-3.76,0.001-7.522-0.08-11.221-0.63c-5.199-0.773-10.236-2.287-15.136-4.214
		c-6.337-2.493-12.343-5.613-17.861-9.616c-8.713-6.323-15.789-14.061-21.055-23.539c-7.167-12.899-14.644-25.626-21.979-38.432
		c-7.176-12.53-14.338-25.067-21.511-37.599c-5.429-9.486-10.884-18.957-16.287-28.458
		C102.018,539.534,100.716,536.895,99.155,533.936z"/>
	<path style="fill:#29397E;" d="M327.457,302.25c-18.61,0-37.138,0-55.697,0c-0.444-0.875-0.222-1.766-0.222-2.615
		c-0.016-20.306-0.009-40.611-0.016-60.917c-0.001-3.123-0.375-6.185-1.26-9.207c-1.333-4.554-4.55-7.107-8.899-8.136
		c-4.545-1.075-9.204-0.966-13.782,0.049c-6.167,1.368-8.826,6.275-9.648,11.201c-0.555,3.329-0.539,6.688-0.539,10.041
		c-0.01,67.072-0.011,134.145,0.003,201.218c0.001,3.592-0.01,7.187,0.519,10.765c0.308,2.08,0.916,4.031,1.843,5.894
		c1.494,3.002,4.06,4.699,7.189,5.504c4.944,1.273,9.962,1.344,14.927,0.168c4.832-1.145,8.434-5.448,9.149-10.58
		c0.353-2.534,0.517-5.072,0.514-7.634c-0.024-21.345-0.014-42.69-0.014-64.035c0-0.783,0-1.565,0-2.538
		c-7.412-0.07-14.661,0.103-22.056-0.287c0-12.332,0-24.522,0-36.73c1.643-0.441,73.329-0.62,77.989-0.172
		c0.444,0.54,0.236,1.205,0.236,1.812c0.012,36.374,0.116,72.749-0.045,109.122c-0.059,13.367-5.593,24.346-15.979,32.863
		c-8.159,6.691-17.707,10.304-27.781,12.791c-11.258,2.779-22.714,3.19-34.247,2.994c-9.628-0.164-19.072-1.469-28.356-3.927
		c-7.378-1.952-14.314-5.005-20.623-9.303c-8.08-5.505-13.925-12.761-17.084-22.156c-1.753-5.212-2.339-10.551-2.668-15.961
		c-0.097-1.594-0.053-3.197-0.052-4.796c0.023-70.19,0.05-140.381,0.074-210.571c0.002-7.077,0.893-13.969,3.67-20.576
		c3.59-8.539,9.468-15.045,17.126-20.089c8.75-5.764,18.509-8.852,28.691-10.72c9.773-1.793,19.664-2.398,29.579-1.898
		c11.735,0.592,23.36,2.012,34.46,6.192c8.627,3.249,16.45,7.795,22.633,14.767c5.421,6.111,8.709,13.277,10.083,21.331
		c0.392,2.294,0.53,4.6,0.53,6.92c0.001,22.464,0.002,44.928-0.007,67.392C327.699,300.969,327.835,301.536,327.457,302.25z"/>
	<path style="fill:#29387E;" d="M671.191,302.288c-18.799,0-37.33,0-55.955,0c-0.561-0.691-0.26-1.605-0.26-2.441
		c-0.003-20.144,0.006-40.288,0.045-60.432c0.007-3.787-0.513-7.458-1.833-11.019c-1.616-4.358-4.952-6.404-9.33-7.208
		c-4.066-0.747-8.124-0.597-12.148,0.091c-4.476,0.765-7.758,3.155-9.357,7.577c-0.768,2.123-1.114,4.332-1.311,6.547
		c-0.253,2.861-0.4,5.74-0.401,8.612c-0.021,66.347-0.032,132.695,0.016,199.042c0.003,4.773-0.023,9.593,1.229,14.274
		c1.26,4.709,4.162,7.787,8.995,8.925c4.504,1.061,9.014,0.932,13.53,0.128c5.356-0.953,8.387-4.337,9.566-9.458
		c0.68-2.953,0.996-5.971,0.995-9.025c-0.005-21.263,0.022-42.526,0.039-63.789c0.001-0.866,0-1.733,0-2.728
		c18.745,0,37.322,0,55.882,0c0.279,0.249,0.294,0.565,0.294,0.886c-0.014,24.7,0.13,49.402-0.115,74.1
		c-0.107,10.803-4.49,20.136-11.927,27.941c-5.542,5.816-12.316,9.8-19.757,12.742c-7.688,3.04-15.687,4.66-23.846,5.802
		c-9.077,1.271-18.175,1.19-27.268,0.777c-11.127-0.505-22.04-2.408-32.364-6.753c-8.69-3.658-16.616-8.478-22.446-16.186
		c-4.17-5.513-6.742-11.709-8.177-18.411c-0.789-3.685-0.958-7.428-0.957-11.195c0.017-71.943,0.007-143.886,0.021-215.829
		c0.002-8.112,1.765-15.835,5.674-22.976c4.303-7.86,10.676-13.679,18.464-17.959c7.968-4.379,16.57-6.99,25.477-8.606
		c10.338-1.876,20.779-2.449,31.253-1.839c10.048,0.586,19.983,1.978,29.604,5.137c8.282,2.719,15.936,6.605,22.439,12.451
		c4.558,4.098,8.061,9.048,10.406,14.754c2.265,5.51,3.544,11.213,3.535,17.209c-0.033,22.383-0.013,44.765-0.013,67.148
		C671.191,301.051,671.191,301.523,671.191,302.288z"/>
	<path style="fill:#29397E;" d="M356.064,189.877c1.41,0,2.607-0.002,3.804,0c21.987,0.048,43.974-0.002,65.96,0.179
		c14.27,0.117,28.287,2.149,41.871,6.688c6.18,2.065,11.884,5.085,17.017,9.091c5.975,4.664,10.276,10.629,13.29,17.576
		c3.196,7.365,4.639,15.124,4.692,23.057c0.164,24.221,0.181,48.445,0.059,72.666c-0.047,9.384-1.673,18.547-5.215,27.329
		c-4.32,10.713-11.548,18.8-21.547,24.49c-6.307,3.589-13.106,5.759-20.199,7.109c-6.848,1.303-13.772,1.764-20.725,1.818
		c-6.796,0.052-13.592,0.012-20.388,0.012c-0.779,0-1.559,0-2.478,0c0,39.362,0,78.511,0,117.981
		c-18.884,0.552-37.625,0.003-56.234,0.068c-0.728-0.621-0.487-1.307-0.48-1.908c0.123-10.23-0.122-20.463,0.283-30.691
		c0.076-1.911-0.124-3.832-0.142-5.749c-0.088-9.67-0.181-19.337,0.08-29.011c0.144-5.34-0.227-10.706-0.024-16.057
		c0.173-4.555,0.371-9.115,0.137-13.662c-0.429-8.311-0.254-16.622-0.242-24.932c0.009-5.751-0.19-11.508-0.041-17.249
		c0.19-7.354-0.298-14.707,0.002-22.042c0.425-10.387-0.436-20.764,0.079-31.143c0.151-3.032,0.077-6.065,0.026-9.1
		c-0.121-7.191-0.164-14.381,0.15-21.575c0.391-8.947-0.439-17.893-0.171-26.85c0.224-7.501-0.107-15.007,0.034-22.518
		c0.097-5.179-0.103-10.373,0.117-15.566c0.165-3.912-0.016-7.828-0.248-11.739C355.37,195.444,355.509,192.748,356.064,189.877z
		 M412.253,226.629c0,38.733,0,77.271,0,115.908c4.728,0,9.347,0.143,13.953-0.043c4.058-0.164,8.111-0.72,11.904-2.305
		c3.992-1.668,7.183-4.183,7.975-8.766c0.352-2.039,0.51-4.103,0.508-6.19c-0.02-19.412-0.054-38.825,0.045-58.237
		c0.031-5.998-0.321-11.974-0.591-17.954c-0.136-3.008-0.496-6.036-1.416-8.942c-1.966-6.213-5.858-10.515-12.326-12.139
		c-3.727-0.936-7.559-1.158-11.38-1.31C418.073,226.538,415.211,226.629,412.253,226.629z"/>
	<path style="fill:#FBAF31;" d="M766.074,496.036c-12.841-0.214-25.447,0.259-37.859-0.279c-0.604-0.975-0.408-1.712-0.407-2.41
		c0.015-48.117-0.151-96.235,0.118-144.351c0.291-52.028,0.03-104.054,0.175-156.081c0.003-1.266-0.198-2.577,1.041-3.853
		c6.05,0,12.349-0.086,18.646,0.024c6.209,0.109,12.451-0.569,18.774,0.623c1.326,2.281,2.665,4.62,4.036,6.94
		c8.156,13.805,16.329,27.601,24.478,41.41c7.743,13.121,15.464,26.256,23.197,39.384c4.413,7.492,8.934,14.923,13.219,22.488
		c4.448,7.851,8.237,16.02,10.158,24.902c1.557,7.203,2.164,14.517,1.591,21.874c-0.44,5.641-1.754,11.106-3.396,16.544
		c-2.956,9.784-7.738,18.673-12.77,27.454c-8.685,15.157-17.454,30.266-26.202,45.386c-9.108,15.742-18.229,31.476-27.352,47.209
		C771.082,487.502,768.617,491.688,766.074,496.036z"/>
</g>
</svg>
