<?xml version="1.0" encoding="iso-8859-1"?>
<!-- Generator: Adobe Illustrator 27.0.0, SVG Export Plug-In . SVG Version: 6.00 Build 0)  -->
<svg version="1.1" id="Layer_1" xmlns="http://www.w3.org/2000/svg" xmlns:xlink="http://www.w3.org/1999/xlink" x="0px" y="0px"
	 viewBox="0 0 1580 444" style="enable-background:new 0 0 1580 444;" xml:space="preserve">
<g>
	<path style="fill:#9D2471;" d="M258,444c-2.517-1.81-5.557-1.491-8.379-2.031c-12.965-2.481-24.972-6.964-34.513-16.547
		c-7.71-7.744-12.4-17.176-15.143-27.648c-2.325-8.875-3.433-17.906-4.174-27.06c-0.782-9.662-0.615-19.301-0.637-28.948
		c-0.077-33.828-0.031-67.656-0.007-101.484c0.001-1.626-0.304-3.299,0.41-5.165c14.267,0,28.534,0,42.99,0
		c1.181,1.462,0.533,3.371,0.535,5.116c0.039,35.494,0.057,70.989-0.007,106.483c-0.019,10.501,0.368,20.963,1.857,31.366
		c0.876,6.116,2.402,12.011,5.665,17.377c3.888,6.393,9.69,9.961,16.812,11.441c9.069,1.884,18.258,1.793,27.274-0.032
		c8.69-1.76,15.018-7.003,18.254-15.403c3.818-9.91,4.856-20.375,4.901-30.854c0.175-39.993,0.096-79.987,0.141-119.98
		c0.002-1.787-0.349-3.628,0.383-5.581c14.333,0,28.602,0,42.83,0c1.169,1.155,0.692,2.567,0.693,3.838
		c0.026,40.16,0.089,80.321-0.016,120.481c-0.037,14.183-1.529,28.255-5.903,41.813c-6.268,19.427-19.207,32.199-38.901,38.075
		c-6.401,1.91-12.84,3.391-19.509,3.806c-0.699,0.043-1.291,0.205-1.556,0.938c-6.333,0-12.667,0-19,0
		c-3.521-1.383-8.835-1.383-12,0C260,444,259,444,258,444z"/>
	<path style="fill:#9D2471;" d="M1.101,235.145c14.125-0.789,28.248-0.129,42.778-0.26c0,27.662,0,55.052,0,83.151
		c24.564,0.264,48.747-0.064,73.328,0.16c-2.281,11.905-5.618,22.986-8.578,34.543c-21.277,0-42.542,0-64.339,0
		c0,29.085,0,57.791,0,87.013C29.177,439.837,14.588,439.919,0,440c0-0.667,0-1.333,0-2c1.885-1.359,0.949-3.352,0.95-5.008
		C1.015,375.976,1.01,318.96,1.009,261.943c0-1.328-0.065-2.657-0.099-3.985C0.973,250.354,1.037,242.749,1.101,235.145z"/>
	<path style="fill:#EB167A;" d="M1580,155c-1.626,0.697-0.986,2.326-1.348,3.498c-2.439,7.886-9.554,14.701-19.455,15.491
		c-10.01,0.799-19.162-4.259-23.006-12.65c-1.469-3.207-2.058-6.705-2.075-10.191c-0.076-15.161-0.188-30.325,0.057-45.483
		c0.249-15.46,12.407-21.848,21.57-22.507c9.661-0.696,21.858,6.081,23.338,18.71c0.095,0.81-0.004,1.687,0.919,2.132
		c0,1.333,0,2.667,0,4c-1.178,0.54-0.949,1.609-0.95,2.575c-0.004,12.283-0.003,24.565,0.004,36.848
		c0,0.966-0.229,2.034,0.946,2.577C1580,151.667,1580,153.333,1580,155z"/>
	<path style="fill:#B46992;" d="M0.91,257.958c0.034,1.328,0.099,2.657,0.099,3.985C1.01,318.96,1.015,375.976,0.95,432.992
		C0.949,434.648,1.885,436.641,0,438c0-60,0-120,0-180C0.304,257.997,0.607,257.983,0.91,257.958z"/>
	<path style="fill:#F07B9F;" d="M1580,150c-1.175-0.543-0.946-1.611-0.946-2.577c-0.006-12.283-0.008-24.565-0.004-36.848
		c0-0.966-0.228-2.035,0.95-2.575C1580,122,1580,136,1580,150z"/>
	<path style="fill:#C084A4;" d="M0.91,257.958C0.607,257.983,0.304,257.997,0,258c0-7.667,0-15.333,0-23
		c0.367,0.048,0.734,0.096,1.101,0.145C1.037,242.749,0.973,250.354,0.91,257.958z"/>
	<path style="fill:#B46992;" d="M1227,0c0.002,0.332,0.004,0.664,0.005,0.996c-4.023-0.013-8.045-0.026-12.068-0.04
		c0.182-0.308,0.203-0.627,0.062-0.957C1219,0,1223,0,1227,0z"/>
	<path style="fill:#B46992;" d="M261,444c3.165-1.383,8.479-1.383,12,0C269,444,265,444,261,444z"/>
	<path style="fill:#EA157A;" d="M922.045,439.661c-14.724,0-28.666,0-42.894,0c0-68.259,0-136.304,0-204.58
		c15.484,0,30.746,0,46.25,0c17.25,37.187,33.298,74.91,51.581,112.898c6.211-13.226,11.595-25.75,17.211-38.165
		c5.612-12.407,11.28-24.789,16.909-37.188c5.686-12.526,11.355-25.059,17.039-37.606c14.949,0,29.57,0,44.514,0
		c0,68.21,0,136.258,0,204.581c-14.027,0-27.946,0-42.407,0c0-43.035,0-86.051,0-129.066c-13.958,26.797-25.397,54.529-38.36,81.457
		c-10.891,1.698-21.137,1.105-31.886-0.018c-12.288-27.114-24.637-54.363-36.985-81.611c-0.324,0.086-0.648,0.173-0.972,0.259
		C922.045,353.52,922.045,396.419,922.045,439.661z"/>
	<path style="fill:#EB167A;" d="M1252.144,439.875c0-68.543,0-136.451,0-204.229c1.054-1.206,2.299-0.756,3.391-0.755
		c25.815,0.019,51.63,0.079,77.446,0.117c12.95,0.019,25.39,2.56,37.317,7.576c20.927,8.803,33.918,24.483,39.592,46.282
		c2.683,10.306,3.929,20.84,4.281,31.51c0.247,7.48,0.784,14.955,0.543,22.441c-0.458,14.28-1.113,28.571-4.87,42.45
		c-5.968,22.046-19.131,37.977-40.494,46.773c-10.068,4.146-20.552,6.336-31.39,7.057c-23.785,1.582-47.598,0.416-71.395,0.769
		C1261.929,439.934,1257.29,439.875,1252.144,439.875z M1296.074,404.101c6.835,0,13.299-0.074,19.761,0.02
		c7.348,0.107,14.619-0.465,21.793-2.069c10.943-2.447,19.448-8.057,24.681-18.344c4.554-8.953,6.406-18.492,6.716-28.348
		c0.314-9.99,0.18-19.996,0.172-29.995c-0.006-7.659-0.438-15.306-2.256-22.77c-2.415-9.916-6.613-18.79-15.444-24.755
		c-6.528-4.409-13.873-6.219-21.578-6.839c-10.622-0.856-21.258-0.319-31.89-0.191c-0.65,0.008-1.34-0.022-1.954,0.902
		C1296.074,315.395,1296.074,359.351,1296.074,404.101z"/>
	<path style="fill:#EB187A;" d="M1232.049,405.109c0,11.887,0,23.015,0,33.993c-1.321,1.175-2.717,0.755-3.999,0.756
		c-33.487,0.024-66.974,0.048-100.46,0.003c-13.087-0.018-23.093-7.446-26.014-19.041c-0.787-3.123-0.558-6.292-0.56-9.44
		c-0.033-44.649-0.027-89.298-0.024-133.947c0-6.164,0.22-12.334,0.025-18.491c-0.439-13.864,13.744-24.365,24.724-24.208
		c35.145,0.503,70.303,0.148,105.456,0.148c1.127,0,2.325-0.345,3.979,0.734c-2.437,10.831-4.922,21.875-7.5,33.331
		c-27.55,0-54.953,0-82.58,0c0,16.529,0,32.594,0,49.161c26.936,0,53.667,0,80.998,0c-2.508,11.88-4.889,23.158-7.36,34.867
		c-24.646,0-49.044,0-73.652,0c0,17.446,0,34.392,0,52.034c5.651,0.03,11.402,0.073,17.152,0.088
		c5.831,0.015,11.662,0.003,17.493,0.003c5.664,0,11.329-0.001,16.993,0c5.831,0.001,11.662,0.005,17.493,0.007
		C1220.013,405.109,1225.812,405.109,1232.049,405.109z"/>
	<path style="fill:#9E2571;" d="M662.279,239.298c-4.554,11.3-8.878,22.033-13.274,32.941c-5.936-1.332-11.266-3.162-16.854-3.786
		c-10.15-1.133-20.212-1.019-30.25,1.235c-14.025,3.149-22.041,12.279-25.783,25.586c-1.981,7.043-3.07,14.274-3.197,21.647
		c-0.266,15.497-0.423,30.995,0.181,46.482c0.305,7.82,1.715,15.508,4.535,22.871c3.463,9.043,10.033,14.921,19.2,17.443
		c11.966,3.294,24.234,4.036,36.602,2.743c8.101-0.847,16.204-1.679,24.311-2.469c0.941-0.092,1.969-0.517,3.446,0.671
		c-3.098,10.798-6.27,21.852-9.474,33.02c-8.959,1.882-17.725,3.692-26.692,4.249c-5.809,0.361-11.591,1.16-17.442,0.878
		c-11.999-0.579-23.869-1.978-35.203-6.169c-21.255-7.859-34.494-23.026-40.151-44.865c-2.634-10.167-3.971-20.537-4.277-31.036
		c-0.203-6.989-0.571-13.978-0.554-20.966c0.034-14.138,0.204-28.306,2.776-42.255c3.165-17.16,9.343-32.925,22.709-44.989
		c11.16-10.073,24.241-16.051,39.019-18.659c10.894-1.923,21.854-2.323,32.831-1.793
		C637.366,232.685,649.774,234.765,662.279,239.298z"/>
	<path style="fill:#9E2571;" d="M469.239,439.747c-14.991,0-29.125,0-43.997,0c-0.086-6.294-0.03-12.551-0.04-18.805
		c-0.009-6.164,0.001-12.328,0.001-18.491c0.001-6.33,0.001-12.661,0.001-18.991c0-6.164,0-12.328,0-18.491
		c0-6.33,0-12.661,0-18.991c0-6.164,0-12.328,0-18.491c0-6.33-0.001-12.661,0-18.991c0.001-6.164,0.004-12.328,0.005-18.491
		c0.001-6.278,0-12.555,0-19.305c-17.281,0-34.027,0-51.082,0c0-12.041,0-23.603,0-35.52c52.099,0,103.968,0,156.275,0
		c-3.305,12.163-7.086,23.775-11.296,35.575c-16.582,0-32.994,0-49.868,0C469.239,327.19,469.239,383.251,469.239,439.747z"/>
	<path style="fill:#9D2571;" d="M680.605,235.036c14.228,0,28.492,0,43.322,0c0,27.578,0,55.113,0,83.125c24.615,0,48.671,0,73.12,0
		c-3.165,11.88-6.183,23.209-9.252,34.727c-21.278,0-42.217,0-63.669,0c0,29.002,0,57.715,0,86.703c-14.769,0-29.028,0-43.318,0
		C679.846,436.282,679.59,241.27,680.605,235.036z"/>
	<path style="fill:#9D2471;" d="M843.68,439.644c-14.604,0-28.861,0-43.371,0c0-68.266,0-136.307,0-204.583
		c14.504,0,28.771,0,43.371,0C843.68,303.126,843.68,371.175,843.68,439.644z"/>
	<path style="fill:#9E2571;" d="M163.938,235.051c0,68.32,0,136.234,0,204.484c-14.465,0-28.839,0-43.745,0
		c0.175-68.155-0.268-136.182,0.231-204.484C135.189,235.051,149.307,235.051,163.938,235.051z"/>
	<path style="fill:#EB167A;" d="M1526.059,147.574c0,21.484,0.041,42.967-0.02,64.45c-0.024,8.52-3.995,14.94-11.151,19.374
		c-14.213,8.805-33.943-0.634-34.673-18.966c-0.026-0.665-0.012-1.332-0.012-1.998c-0.026-41.635-0.055-83.27-0.074-124.906
		c-0.003-7.202,1.401-13.959,7.052-19.006c7.357-6.572,15.852-8.212,24.963-4.48c8.601,3.523,13.362,10.29,13.831,19.587
		c0.368,7.31,0.134,14.651,0.139,21.979c0.011,14.656,0.003,29.311,0.003,43.967
		C1526.098,147.574,1526.078,147.574,1526.059,147.574z"/>
	<path style="fill:#9D2571;" d="M1214.938,0.957c4.023,0.013,8.045,0.026,12.068,0.04c10.647,3.164,16.742,11.213,16.794,22.505
		c0.087,18.975,0.066,37.951,0.075,56.927c0.011,23.137,0.009,46.274,0.007,69.411c0,7.525-2.348,14.084-8.275,18.976
		c-7.206,5.947-15.422,6.964-23.822,3.408c-8.253-3.494-13.058-10.002-13.792-19.168c-0.066-0.829-0.085-1.663-0.085-2.495
		c0.016-42.612-0.003-85.224,0.082-127.835C1198.011,11.893,1204.323,3.997,1214.938,0.957z"/>
	<path style="fill:#D21C7A;" d="M1466.08,117.404c0,11.152-0.404,22.323,0.111,33.452c0.54,11.656-10.613,23.59-22.959,23.271
		c-13.11-0.338-22.862-9.595-22.986-23.049c-0.187-20.306-0.12-40.614-0.136-60.921c-0.003-3.98-0.109-7.941,0.741-11.909
		c1.747-8.152,6.31-13.667,14.219-16.46c8.541-3.016,16.308-1.816,23.246,4.051c5.273,4.458,7.732,10.285,7.77,17.111
		c0.063,11.484,0.017,22.969,0.017,34.454C1466.095,117.404,1466.087,117.404,1466.08,117.404z"/>
	<path style="fill:#9D2471;" d="M1297.943,117.289c0,11.329,0.073,22.658-0.019,33.986c-0.106,12.92-10.005,22.574-22.775,22.817
		c-13.416,0.255-23.07-11.349-23.065-22.611c0.009-22.49-0.091-44.981-0.058-67.471c0.018-12.358,8.315-21.402,18.501-23.354
		c13.779-2.641,26.833,7.1,27.382,21.15c0.234,5.989,0.08,11.993,0.089,17.99c0.009,5.831,0.002,11.662,0.002,17.493
		C1297.981,117.289,1297.962,117.289,1297.943,117.289z"/>
	<path style="fill:#D21C7A;" d="M1357.905,117.988c0,11.331,0.327,22.674-0.075,33.991c-0.639,17.998-19.704,27.804-34.76,18.831
		c-7.14-4.256-10.994-10.985-11.027-19.506c-0.063-16.163-0.04-32.327-0.054-48.49c-0.005-6.498-0.234-13.006,0.033-19.493
		c0.402-9.733,4.596-17.273,13.846-21.273c13.332-5.767,31.582,2.117,32.042,20.95c0.285,11.657,0.053,23.327,0.053,34.992
		C1357.944,117.988,1357.924,117.988,1357.905,117.988z"/>
	<path style="fill:#D21C7A;" d="M1365.946,128.83c0-7.831,0.113-15.665-0.03-23.494c-0.164-9.018,7.203-21.089,21.486-22.162
		c10.683-0.802,22.123,6.896,23.807,18.93c0.464,3.312,0.798,6.593,0.791,9.921c-0.028,12.996,0.09,25.995-0.157,38.988
		c-0.171,8.973-4.113,16.198-12.179,20.365c-17.419,9-33.838-4.94-33.703-19.054c0.075-7.831,0.013-15.663,0.013-23.494
		C1365.965,128.83,1365.955,128.83,1365.946,128.83z"/>
</g>
</svg>
