<?xml version="1.0" encoding="iso-8859-1"?>
<!-- Generator: Adobe Illustrator 27.0.0, SVG Export Plug-In . SVG Version: 6.00 Build 0)  -->
<svg version="1.1" id="Layer_1" xmlns="http://www.w3.org/2000/svg" xmlns:xlink="http://www.w3.org/1999/xlink" x="0px" y="0px"
	 viewBox="0 0 1477.724 1478.235" style="enable-background:new 0 0 1477.724 1478.235;" xml:space="preserve">
<g>
	<path style="fill:#F9CE11;" d="M2.922,677.222c-0.274-13.473,0.687-26.89,1.595-40.32c0.538-7.957,1.246-15.884,2.061-23.815
		c1.459-14.2,3.584-28.289,6.004-42.353c3.77-21.914,8.921-43.497,15.165-64.817c11.269-38.482,26.273-75.475,44.851-111.005
		c19.459-37.215,42.262-72.27,68.09-105.387c14.333-18.378,29.423-36.089,45.19-53.249c15.898-17.301,32.542-33.859,49.609-49.981
		c28.466-26.89,59.009-51.218,91.653-72.87c25.096-16.645,51.173-31.616,78.225-44.831c41.835-20.437,85.28-36.706,130.177-48.995
		c14.061-3.849,28.43-6.446,42.896-8.489c16.613-2.346,33.27-4.024,50.016-5.066c14.268-0.888,28.529-1.732,42.825-1.957
		c3.81-0.06,7.615-0.422,11.422-0.645c0.108,0.797,0.217,1.594,0.338,2.485c37.549,0,74.924,0,112.397,0
		c0.113-1.034,0.201-1.848,0.29-2.663c10.66,0.06,21.337-0.243,31.975,0.264c16.575,0.791,33.089,2.347,49.571,4.48
		c52.129,6.745,102.247,20.887,150.827,40.632c39.174,15.922,76.404,35.653,112.027,58.443
		c27.217,17.413,53.183,36.523,77.938,57.261c22.09,18.504,43.168,38.125,63.014,59.027c32.487,34.215,61.841,70.943,87.596,110.494
		c17.062,26.201,32.525,53.33,45.958,81.576c18.204,38.277,32.995,77.799,43.387,118.952c4.876,19.308,8.919,38.747,11.858,58.438
		c2.403,16.097,4.02,32.252,5.068,48.499c0.902,13.974,0.763,27.931,0.752,41.902c-0.924,0.165-2.037-0.343-2.737,0.786
		c0,37.226,0,74.479,0,111.58c0.87,0.735,1.703,0.671,2.526,0.655c0.248,13.138-0.812,26.218-1.606,39.316
		c-0.996,16.423-2.81,32.743-4.989,49.046c-2.771,20.737-6.593,41.279-11.465,61.599c-10.317,43.031-24.976,84.565-44.099,124.49
		c-16.265,33.957-35.554,66.129-57.416,96.771c-21.105,29.582-44.535,57.231-69.669,83.44
		c-12.676,13.218-25.991,25.788-39.527,38.132c-19.073,17.392-38.896,33.881-59.319,49.64
		c-26.616,20.537-54.371,39.39-83.547,56.149c-35.377,20.321-72.302,37.184-110.897,50.389
		c-22.286,7.625-44.978,13.819-68.006,18.73c-15.732,3.355-31.579,6.22-47.562,8.011c-11.052,1.239-22.179,1.913-33.316,2.341
		c-9.952,0.382-19.91,1.092-29.807,2.182c-3.149,0.347-6.606-0.108-9.537,1.746c-11.333,0-22.667,0-34,0
		c-0.218-1.012-1.148-1.124-1.879-1.368c-9.536-3.188-19.385-4.807-29.372-5.571c-7.946-0.608-15.812,0.573-23.551,2.107
		c-5.19,1.029-10.591,1.795-15.198,4.831c-11.333,0-22.667,0-34,0c-2.743-1.964-6.074-1.215-9.081-1.705
		c-7.198-1.172-14.517-1.66-21.802-2.234c-14.572-1.148-29.174-1.956-43.729-3.292c-22.207-2.04-43.819-6.911-65.155-13.471
		c-32.869-10.105-65.133-21.787-96.56-35.697c-30.873-13.665-60.731-29.325-89.472-47.084
		c-26.065-16.106-51.016-33.786-74.818-53.067c-12.802-10.37-25.177-21.244-37.231-32.49c-9.501-8.865-18.805-17.925-27.75-27.342
		c-13.868-14.599-27.222-29.65-39.944-45.274c-21.139-25.962-40.495-53.182-58.164-81.601
		c-32.13-51.677-58.88-105.869-76.567-164.288c-7.265-23.997-13.016-48.326-16.945-73.103c-2.107-13.288-3.676-26.615-4.972-40.004
		c-1.783-18.428-1.935-36.874-1.767-55.346c0.812-0.045,1.624-0.089,2.663-0.147c0-41.584,0-83.013,0-124.323
		C4.573,677.084,3.751,677.13,2.922,677.222z M737.76,1445.17c22.63,0.588,45.184-0.486,67.72-2.672
		c12.554-1.218,25.089-2.608,37.536-4.489c21.595-3.262,43.02-7.52,64.239-12.769c45.945-11.366,90.306-27.173,133.057-47.457
		c37.277-17.686,72.682-38.573,106.371-62.411c27.886-19.731,54.16-41.406,78.942-64.885c19.228-18.216,37.304-37.531,54.331-57.833
		c13.686-16.318,26.674-33.161,38.841-50.639c25.765-37.011,47.931-76.035,66.244-117.275
		c15.416-34.718,27.978-70.424,37.557-107.147c8.618-33.039,14.793-66.55,18.359-100.552c1.541-14.694,2.834-29.406,3.506-44.138
		c0.935-20.47,0.859-40.992,0.075-61.467c-0.462-12.079-1.218-24.173-2.514-36.23c-0.851-7.913-1.536-15.867-2.529-23.758
		c-1.53-12.146-3.471-24.243-5.666-36.301c-3.351-18.41-7.347-36.667-12.168-54.741c-10.82-40.563-25.052-79.892-42.912-117.894
		c-17.545-37.331-38.157-72.88-61.849-106.655c-19.422-27.687-40.669-53.894-63.813-78.529c-12.313-13.106-25.138-25.72-38.401-37.9
		c-16.685-15.323-34.052-29.812-52.092-43.474c-30.634-23.2-62.983-43.757-96.995-61.659
		c-42.038-22.126-85.839-39.929-131.503-53.054c-38.722-11.129-78.075-19.039-118.186-23.264
		c-14.361-1.513-28.743-2.976-43.134-3.44c-23.448-0.756-46.92-1.021-70.392,0.398c-15.747,0.952-31.425,2.352-47.096,4.111
		c-12.526,1.406-24.992,3.203-37.374,5.426c-19.045,3.419-37.918,7.659-56.658,12.567c-41.432,10.85-81.492,25.419-120.207,43.655
		c-49.003,23.081-94.856,51.303-137.392,84.889c-26.418,20.859-51.413,43.248-74.663,67.623
		c-18.856,19.769-36.589,40.445-53.182,62.143c-22.852,29.884-43.165,61.401-60.868,94.564
		c-23.235,43.525-41.86,88.956-55.333,136.467c-10.451,36.856-17.905,74.273-22.128,112.367
		c-1.573,14.192-3.081,28.409-3.472,42.638c-0.828,30.101-1.252,60.221,1.465,90.296c1.164,12.883,2.495,25.731,4.032,38.574
		c1.636,13.668,3.874,27.234,6.464,40.724c4.677,24.367,10.586,48.455,17.785,72.217c10.969,36.203,24.698,71.334,41.256,105.33
		c15.649,32.13,33.642,62.92,53.95,92.346c12.946,18.759,26.663,36.94,41.41,54.311c15.402,18.143,31.571,35.572,48.672,52.167
		c18.657,18.106,38.162,35.206,58.692,51.11c42.284,32.757,87.617,60.526,136.229,82.962c33.741,15.573,68.464,28.385,104.195,38.5
		c23.723,6.716,47.787,12.005,72.078,16.15c13.224,2.256,26.552,3.905,39.899,5.431c14.852,1.698,29.741,2.784,44.643,3.554
		C715.743,1445.626,726.763,1445.17,737.76,1445.17z"/>
	<path style="fill:#FBE69C;" d="M1477.724,796.235c-0.746,0.007-1.491,0.013-2.237,0.02c-0.823,0.017-1.656,0.081-2.526-0.655
		c0-37.102,0-74.354,0-111.58c0.7-1.129,1.813-0.621,2.737-0.786c0.675,0,1.35,0.001,2.026,0.001
		C1477.724,720.901,1477.724,758.568,1477.724,796.235z"/>
	<path style="fill:#FBE38E;" d="M700.724,1478.235c4.607-3.037,10.008-3.802,15.198-4.831c7.739-1.534,15.605-2.716,23.551-2.107
		c9.987,0.765,19.836,2.384,29.372,5.571c0.731,0.244,1.661,0.356,1.879,1.368C747.39,1478.235,724.057,1478.235,700.724,1478.235z"
		/>
	<path style="fill:#FAE699;" d="M2.922,677.222c0.83-0.092,1.652-0.138,2.508,0.545c0,41.31,0,82.74,0,124.323
		c-1.038,0.057-1.85,0.102-2.663,0.147c-0.823-0.037-1.645-0.073-2.767-0.123c0-41.525,0-82.957,0-124.319
		C0.931,676.942,1.968,677.318,2.922,677.222z"/>
	<path style="fill:#FCE9A8;" d="M795.726,3.266c-0.089,0.814-0.177,1.629-0.29,2.663c-37.474,0-74.848,0-112.397,0
		c-0.121-0.891-0.23-1.688-0.338-2.485c0.073-0.826,0.146-1.653,0.217-2.453c3.65-0.995,101.632-1.393,112.108-0.471
		C795.982,1.231,795.5,2.344,795.726,3.266z"/>
	<path style="fill:#C22228;" d="M1411.677,595.405c1.344,6.667,2.844,13.306,3.998,20.005c2.368,13.75,4.795,27.498,6.732,41.313
		c1.569,11.194,2.625,22.469,2.636,33.806c0.027,27.165,0.156,54.33,0.053,81.494c-0.055,14.314-1.598,28.543-2.997,42.782
		c-1.415,14.403-3.258,28.749-5.612,43.013c-2.865,17.36-6.384,34.596-10.483,51.726c-9.325,38.971-22.085,76.76-38.384,113.346
		c-23.81,53.445-54.509,102.63-91.579,147.887c-25.387,30.994-53.294,59.519-83.225,86.116
		c-32.422,28.81-67.064,54.607-104.263,76.914c-48.905,29.328-100.788,51.849-155.664,67.398
		c-26.046,7.38-52.442,13.169-79.219,17.261c-16.769,2.562-33.586,4.56-50.484,6.052c-22.545,1.991-45.107,3.274-67.747,3.139
		c-19.47-0.116-38.873-1.269-58.256-3.101c-13.082-1.236-26.145-2.641-39.138-4.521c-18.069-2.615-36.041-5.855-53.873-9.817
		c-44.823-9.959-88.269-24.082-130.171-42.914c-49.514-22.252-95.421-50.395-137.938-84.119
		c-19.326-15.329-37.766-31.645-55.363-48.931c-39.925-39.221-75.647-81.883-105.705-129.164
		c-29.182-45.906-51.734-94.903-67.963-146.814c-0.296-0.946-0.391-1.954-0.58-2.934c0.332-0.018,0.663-0.051,0.995-0.051
		c101.496,0.029,202.993-0.005,304.488,0.271c5.442,0.015,10.889,0.201,16.277-0.356c9.946-1.029,18.431-4.89,24.503-13.344
		c4.32-6.015,7.059-12.78,9.762-19.523c9.618-23.987,20.249-47.529,30.784-71.114c5.605-12.548,11.259-25.075,16.854-37.628
		c4.18-9.379,8.255-18.805,12.466-28.17c2.813-6.254,7.719-9.182,14.619-9.174c36.165,0.041,72.331-0.01,108.497,0.006
		c1.251,0.001,2.638-0.498,3.956,0.701c-1.914,4.68-3.908,9.391-5.778,14.151c-16.214,41.262-32.125,82.645-49.626,123.389
		c-2.801,6.521-5.781,12.978-7.214,20.014c-1.381,6.782,1.577,11.96,8.197,13.661c2.719,0.698,5.474,1.199,8.348,1.147
		c6.996-0.125,13.996-0.043,20.994-0.043c74.498,0,148.995-0.005,223.493,0.003c20.832,0.002,41.664,0.124,62.495,0.028
		c12.946-0.059,22.538-5.87,28.357-17.549c2.659-5.336,5.15-10.755,7.734-16.129c12.639-26.29,25.281-52.579,37.927-78.866
		c8.695-18.074,17.406-36.142,26.096-54.218c3.589-7.465,6.925-15.06,10.772-22.389c4.151-7.908,10.142-14,19.142-16.296
		c3.844-0.981,7.772-1.499,11.781-1.604c4.014-0.105,7.905,0.875,11.893,0.877c25.498,0.011,50.997,0.224,76.494,0.043
		c17.596-0.125,35.215,0.512,52.764-1.838c13.015-1.743,23.145-7.415,29.804-18.995c5.164-8.979,8.192-18.769,11.391-28.507
		c1.66-5.054,3.426-10.091,4.498-15.604c-2.134,0-3.791,0-5.448,0c-79.164-0.015-158.329-0.031-237.493-0.044
		c-19.166-0.003-38.332,0.027-57.498-0.016c-5.285-0.012-9.631,1.81-13.319,5.642c-3.451,3.586-5.185,8.079-7.134,12.453
		c-11.456,25.719-22.888,51.449-34.228,77.22c-6.267,14.243-12.31,28.585-18.507,42.859c-7.71,17.76-14.552,35.876-22.068,53.71
		c-3.676,8.724-8.707,16.721-16.479,22.716c-10.828,8.352-23.343,9.749-36.295,9.104c-2.766-0.138-5.594-0.668-8.399-0.644
		c-5.333,0.045-10.549-1.148-15.884-1.246c-3.074-0.057-6.203-1.019-9.172-1.988c-4.536-1.48-6.303-4.539-5.454-9.254
		c0.436-2.422,1.178-4.836,2.123-7.113c9.139-22.031,19.547-43.495,29.274-65.265c7.499-16.782,15.23-33.461,22.858-50.185
		c13.197-28.934,26.368-57.881,39.6-86.799c13.371-29.222,26.781-58.426,40.216-87.618c6.581-14.3,13.333-28.522,19.853-42.849
		c2.666-5.859,5.258-11.753,5.156-18.488c-0.072-4.687-2.29-7.56-6.386-9.062c-4.555-1.671-9.544-2.329-14.177-1.809
		c-8.6,0.965-17.242,1.064-25.815,1.32c-17.611,0.526-35.26,0.942-52.893-0.44c-7.621-0.597-15.323-0.325-22.985-0.22
		c-12.925,0.176-22.64,5.758-28.205,17.659c-2.73,5.838-5.04,11.872-7.579,17.801c-14.415,33.659-30.375,66.617-45.419,99.992
		c-5.172,11.474-10.708,22.824-17.668,33.407c-7.838,11.917-17.861,20.857-31.939,24.628c-7.708,2.065-15.597,3.282-23.516,3.391
		c-18.659,0.256-37.327,0.155-55.987-0.106c-4.407-0.062-8.941-0.358-13.229-1.79c-5.073-1.695-6.564-4.553-5.562-9.85
		c1.348-7.123,4.997-13.269,8.008-19.702c11.865-25.348,23.522-50.789,34.783-76.413c9.327-21.223,18.826-42.369,28.171-63.584
		c1.931-4.384,3.728-8.84,4.842-13.535c1.458-6.146-0.71-9.766-6.855-10.763c-3.587-0.582-7.25-0.927-10.882-0.963
		c-11.967-0.117-23.917-0.14-35.896,0.542c-12.46,0.709-24.988,0.21-37.487,0.215c-1.325,0.001-2.658-0.094-3.974-0.253
		c-7.572-0.914-15.138-2.119-22.791-1.626c-8.175,0.526-15.448,3.262-21.518,9.051c-6.531,6.228-10.654,13.957-14.265,22.011
		c-7.725,17.226-15.279,34.529-22.992,51.76c-11.843,26.454-23.78,52.867-35.643,79.312
		c-15.794,35.206-31.624,70.397-47.306,105.653c-10.832,24.354-21.383,48.834-32.183,73.203
		c-2.834,6.395-6.585,12.249-11.841,17.037c-7.943,7.236-17.639,9.702-27.952,9.829c-17.328,0.213-34.665-0.22-51.993,0.011
		c-31.795,0.424-63.59-0.367-95.392,0.804c-22.803,0.84-45.656,0.325-68.487,0.414c-5.425-20.412-9.41-41.112-12.029-62.058
		c-2.026-16.2-2.611-32.499-2.578-48.824c0.05-25-0.007-49.999,0.021-74.999c0.014-12.835,1.669-25.545,3.008-38.281
		c1.356-12.898,3.24-25.716,5.219-38.532c2.764-17.9,6.304-35.642,10.483-53.248c9.634-40.589,22.751-80.027,39.734-118.153
		c18.793-42.187,41.916-81.848,69.318-119.029c21.987-29.833,46.421-57.518,72.983-83.328c28.108-27.312,58.323-52.096,90.24-74.83
		c34.728-24.737,71.1-46.674,109.806-64.632c38.316-17.777,77.997-31.615,119.115-41.391c18.106-4.305,36.342-7.882,54.729-10.592
		c16.931-2.495,33.946-4.39,51.058-5.41c36.126-2.152,72.271-1.516,108.396-0.618c15.759,0.392,31.463,2.549,47.138,4.552
		c32.164,4.108,63.849,10.494,95.081,19.171c63.15,17.545,122.193,44.244,177.283,79.705c38.885,25.03,74.79,53.822,108.239,85.74
		c41.13,39.248,77.568,82.354,107.913,130.498c24.251,38.476,43.963,79.149,58.712,122.196c1.936,5.65,3.715,11.353,5.567,17.031
		c-49.776,0.524-99.551-0.019-149.334,0.554c-75.625,0.871-151.267,0.312-226.902,0.359c-6.164,0.004-12.33-0.104-18.491,0.025
		c-7.719,0.161-13.803,3.13-17.099,10.557c-0.873,1.967-1.891,3.87-2.759,5.84c-4.002,9.085-7.699,18.297-11.772,27.357
		c-3.234,7.194-7.356,14.058-8.494,22.152c-1.041,7.413,1.161,11.296,8.367,13.116c5.491,1.387,11.138,1.604,16.728,1.761
		c9.289,0.26,18.604-0.551,27.873-0.522c57.274,0.183,114.546-0.603,171.825,0.446c44.633,0.818,89.291,0.22,133.938,0.271
		C1344.707,595.277,1378.192,595.349,1411.677,595.405z"/>
	<path style="fill:#EBC41D;" d="M67.905,888.354c22.831-0.089,45.684,0.426,68.487-0.414c31.802-1.171,63.597-0.38,95.392-0.804
		c17.328-0.231,34.664,0.202,51.993-0.011c10.313-0.127,20.009-2.592,27.952-9.829c5.256-4.788,9.007-10.642,11.841-17.037
		c10.8-24.369,21.351-48.849,32.183-73.203c15.681-35.257,31.512-70.447,47.306-105.653c11.863-26.445,23.8-52.858,35.643-79.312
		c7.714-17.231,15.268-34.534,22.992-51.76c3.612-8.054,7.735-15.783,14.265-22.011c6.07-5.789,13.343-8.525,21.518-9.051
		c7.653-0.492,15.219,0.712,22.791,1.626c1.316,0.159,2.649,0.254,3.974,0.253c12.499-0.005,25.027,0.494,37.487-0.215
		c11.979-0.682,23.93-0.659,35.896-0.542c3.633,0.035,7.295,0.381,10.882,0.963c6.146,0.997,8.314,4.617,6.855,10.763
		c-1.114,4.695-2.911,9.151-4.842,13.535c-9.345,21.215-18.844,42.361-28.171,63.584c-11.261,25.624-22.919,51.065-34.783,76.413
		c-3.011,6.433-6.661,12.578-8.008,19.702c-1.002,5.297,0.489,8.156,5.562,9.85c4.288,1.432,8.822,1.728,13.229,1.79
		c18.66,0.261,37.328,0.362,55.987,0.106c7.919-0.109,15.808-1.326,23.516-3.391c14.078-3.771,24.101-12.711,31.939-24.628
		c6.96-10.582,12.496-21.932,17.668-33.407c15.044-33.374,31.004-66.333,45.419-99.992c2.539-5.929,4.849-11.963,7.579-17.801
		c5.564-11.901,15.28-17.482,28.205-17.659c7.662-0.104,15.363-0.377,22.985,0.22c17.633,1.382,35.282,0.966,52.893,0.44
		c8.573-0.256,17.215-0.355,25.815-1.32c4.632-0.52,9.622,0.138,14.177,1.809c4.096,1.502,6.314,4.375,6.386,9.062
		c0.103,6.735-2.49,12.629-5.156,18.488c-6.52,14.327-13.272,28.549-19.853,42.849c-13.435,29.192-26.845,58.396-40.216,87.618
		c-13.232,28.918-26.402,57.865-39.6,86.799c-7.628,16.724-15.359,33.403-22.858,50.185c-9.727,21.769-20.135,43.233-29.274,65.265
		c-0.944,2.276-1.687,4.69-2.123,7.113c-0.849,4.715,0.918,7.774,5.454,9.254c2.969,0.969,6.098,1.931,9.172,1.988
		c5.334,0.099,10.551,1.291,15.884,1.246c2.806-0.024,5.633,0.506,8.399,0.644c12.953,0.645,25.468-0.752,36.295-9.104
		c7.771-5.995,12.802-13.992,16.479-22.716c7.516-17.834,14.358-35.951,22.068-53.71c6.197-14.274,12.239-28.616,18.507-42.859
		c11.34-25.771,22.772-51.501,34.228-77.22c1.948-4.374,3.683-8.867,7.134-12.453c3.688-3.833,8.034-5.654,13.319-5.642
		c19.166,0.043,38.332,0.013,57.498,0.016c79.164,0.014,158.329,0.029,237.493,0.044c1.657,0,3.314,0,5.448,0
		c-1.072,5.513-2.838,10.55-4.498,15.604c-3.199,9.737-6.227,19.527-11.391,28.507c-6.66,11.58-16.79,17.252-29.804,18.995
		c-17.549,2.35-35.168,1.713-52.764,1.838c-25.497,0.181-50.996-0.032-76.494-0.043c-3.988-0.002-7.879-0.982-11.893-0.877
		c-4.009,0.105-7.937,0.623-11.781,1.604c-9,2.297-14.991,8.388-19.142,16.296c-3.847,7.328-7.183,14.924-10.772,22.389
		c-8.69,18.077-17.401,36.144-26.096,54.218c-12.646,26.287-25.288,52.576-37.927,78.866c-2.583,5.374-5.075,10.793-7.734,16.129
		c-5.819,11.679-15.411,17.49-28.357,17.549c-20.831,0.095-41.663-0.026-62.495-0.028c-74.498-0.007-148.995-0.003-223.493-0.003
		c-6.998,0-13.998-0.083-20.994,0.043c-2.874,0.052-5.629-0.449-8.348-1.147c-6.62-1.701-9.578-6.879-8.197-13.661
		c1.432-7.036,4.413-13.493,7.214-20.014c17.501-40.745,33.412-82.127,49.626-123.389c1.87-4.76,3.864-9.471,5.778-14.151
		c-1.318-1.198-2.704-0.7-3.956-0.701c-36.166-0.016-72.331,0.034-108.497-0.006c-6.9-0.008-11.807,2.92-14.619,9.174
		c-4.212,9.365-8.286,18.791-12.466,28.17c-5.595,12.553-11.249,25.08-16.854,37.628c-10.536,23.586-21.167,47.127-30.784,71.114
		c-2.704,6.743-5.442,13.508-9.762,19.523c-6.073,8.455-14.557,12.316-24.503,13.344c-5.389,0.557-10.836,0.371-16.277,0.356
		c-101.496-0.276-202.992-0.242-304.488-0.271c-0.332,0-0.663,0.033-0.995,0.051c-3.066-7.988-4.792-16.362-7.05-24.581
		C75.523,916.639,71.733,902.491,67.905,888.354z"/>
	<path style="fill:#EBC21E;" d="M1411.677,595.405c-33.485-0.057-66.97-0.128-100.456-0.167
		c-44.647-0.052-89.306,0.546-133.938-0.271c-57.279-1.049-114.551-0.263-171.825-0.446c-9.269-0.03-18.584,0.782-27.873,0.522
		c-5.589-0.157-11.237-0.374-16.728-1.761c-7.206-1.82-9.408-5.704-8.367-13.116c1.137-8.094,5.26-14.958,8.494-22.152
		c4.073-9.06,7.771-18.272,11.772-27.357c0.867-1.97,1.886-3.872,2.759-5.84c3.296-7.427,9.381-10.396,17.099-10.557
		c6.161-0.129,12.327-0.021,18.491-0.025c75.635-0.047,151.276,0.512,226.902-0.359c49.783-0.573,99.558-0.03,149.334-0.554
		c7.451,12.068,12.196,25.301,16.188,38.781c3.76,12.694,5.924,25.769,8.042,38.828
		C1411.808,592.389,1411.651,593.912,1411.677,595.405z"/>
</g>
</svg>
