<?xml version="1.0" encoding="iso-8859-1"?>
<!-- Generator: Adobe Illustrator 27.0.0, SVG Export Plug-In . SVG Version: 6.00 Build 0)  -->
<svg version="1.1" id="Layer_1" xmlns="http://www.w3.org/2000/svg" xmlns:xlink="http://www.w3.org/1999/xlink" x="0px" y="0px"
	 viewBox="0 0 600.24 113.186" style="enable-background:new 0 0 600.24 113.186;" xml:space="preserve">
<g>
	<path style="fill:#0A5589;" d="M0,77.896c5.579-2.899,11.158-5.798,16.736-8.699c1.166-0.606,2.328-1.218,3.592-1.879
		c4.588,6.125,9.172,12.245,13.86,18.502c-6.372,3.519-12.724,6.958-19.14,10.452c-1.161-1.405-2.281-2.747-3.387-4.101
		c-3.66-4.479-7.312-8.963-10.976-13.438C0.496,78.503,0.372,78.169,0,78.136C0,78.056,0,77.976,0,77.896z"/>
	<path style="fill:#919DBD;" d="M600.026,68.537c0.07,0.014,0.142,0.021,0.214,0.019c0,1.118,0,2.235,0,3.353
		c-0.087-0.008-0.174-0.016-0.262-0.023C599.994,70.77,600.01,69.653,600.026,68.537z"/>
	<path style="fill:#12568A;" d="M260.198,90.465c-1.895,0-3.639,0-5.44,0c-0.156-0.449-0.084-0.889-0.085-1.313
		c-0.005-7.623-0.008-15.247-0.001-22.87c0.001-1.521-0.11-3.023-0.518-4.496c-1.496-5.407-6.348-6.548-10.581-4.35
		c-2.443,1.268-4.013,3.36-5.024,5.878c-0.78,1.943-1.147,3.974-1.149,6.066c-0.006,6.626-0.002,13.251-0.002,19.877
		c0,0.356,0,0.713,0,1.052c-0.873,0.248-4.158,0.291-5.538,0.08c0-12.627,0-25.263,0-37.969c1.684,0,3.343,0,5.135,0
		c0,2.164,0,4.299,0,6.51c0.494-0.217,0.583-0.581,0.768-0.859c1.551-2.328,3.373-4.418,6.015-5.492
		c4.455-1.811,8.677-1.338,12.462,1.757c1.224,1.001,2.027,2.347,2.671,3.779c0.194,0.432,0.357,0.878,0.574,1.414
		c0.689-0.974,1.28-1.898,1.959-2.752c1.825-2.299,4.007-4.148,6.947-4.815c3.85-0.873,7.486-0.439,10.577,2.239
		c1.909,1.654,2.862,3.89,3.481,6.284c0.503,1.943,0.64,3.938,0.652,5.922c0.048,7.703,0.02,15.406,0.018,23.11
		c0,0.274,0.054,0.558-0.089,0.812c-0.856,0.23-4.101,0.268-5.463,0.065c-0.195-0.409-0.091-0.852-0.092-1.279
		c-0.007-7.863-0.011-15.726-0.001-23.589c0.002-1.529-0.224-3.013-0.714-4.459c-1.311-3.869-4.81-5.441-8.602-4.327
		c-3.411,1.002-5.469,3.444-6.786,6.598c-0.839,2.009-1.157,4.137-1.165,6.298c-0.024,6.466-0.009,12.932-0.009,19.398
		C260.198,89.469,260.198,89.905,260.198,90.465z"/>
	<path style="fill:#0A5589;" d="M152.618,39.162c0,7.18,0,14.238,0,21.375c8.062,0,16.079,0,24.22,0c0-7.09,0-14.205,0-21.379
		c2.139,0,4.155,0,6.226,0c0,17.092,0,34.153,0,51.282c-2.032,0-4.048,0-6.183,0c0-8.148,0-16.264,0-24.423
		c-8.133,0-16.148,0-24.256,0c0,8.143,0,16.229,0,24.403c-2.106,0-4.121,0-6.2,0c0-17.078,0-34.136,0-51.258
		C148.457,39.162,150.473,39.162,152.618,39.162z"/>
	<path style="fill:#0A5589;" d="M21.592,60.522c-4.809-7.62-9.563-15.151-14.359-22.75c7.859-5.039,15.608-10.009,23.463-15.046
		c4.923,7.8,9.827,15.568,14.784,23.422C37.519,50.938,29.634,55.683,21.592,60.522z"/>
	<path style="fill:#12568A;" d="M197.597,62.618c-1.802-0.272-3.53-0.532-5.227-0.788c-0.248-0.358-0.109-0.667-0.02-0.959
		c1.141-3.729,3.48-6.405,7.104-7.894c3.735-1.534,7.637-1.853,11.627-1.497c1.357,0.121,2.687,0.333,3.981,0.758
		c3.63,1.191,5.858,3.698,6.933,7.31c0.654,2.198,0.851,4.459,0.871,6.726c0.048,5.387,0.03,10.774,0.009,16.162
		c-0.01,2.676,0.115,5.328,1.005,7.991c-1.928,0-3.779,0-5.761,0c-0.676-2.071-0.82-4.275-0.944-6.488
		c-0.428,0.067-0.465,0.445-0.628,0.692c-2.831,4.314-6.788,6.595-11.986,6.725c-3.158,0.079-6.133-0.507-8.744-2.345
		c-3.885-2.735-5.276-6.568-4.635-11.169c0.506-3.634,2.646-6.141,5.784-7.887c2.545-1.415,5.314-2.13,8.162-2.583
		c3.4-0.54,6.829-0.665,10.266-0.647c0.553,0.003,1.106,0.066,1.738,0.106c0.16-2.257,0.213-4.482-0.722-6.578
		c-0.866-1.941-2.435-3.136-4.467-3.676c-2.997-0.796-6.012-0.766-8.981,0.126c-2.542,0.763-4.252,2.435-5.055,4.988
		C197.824,61.951,197.733,62.21,197.597,62.618z M217.082,71.324c-0.119-0.144-0.293-0.117-0.444-0.12
		c-3.073-0.058-6.151-0.191-9.206,0.249c-2.093,0.302-4.142,0.785-6.03,1.807c-2.291,1.24-3.723,3.045-4.016,5.695
		c-0.287,2.593,0.818,5.367,3.332,6.593c3.075,1.499,6.188,1.362,9.228-0.065C215.066,83.08,217.858,77.107,217.082,71.324z"/>
	<path style="fill:#0F568A;" d="M514.712,66.717c0.114-2.026,0.12-4.036-0.581-5.988c-0.775-2.161-2.352-3.49-4.497-4.113
		c-2.775-0.805-5.599-0.785-8.403-0.122c-3.201,0.757-5.249,2.724-6.037,6.076c-1.826-0.153-3.604-0.491-5.495-0.789
		c0.563-2.663,1.766-4.876,3.779-6.635c1.973-1.724,4.306-2.681,6.851-3.203c3.64-0.746,7.294-0.878,10.93-0.082
		c4.748,1.039,7.518,4.079,8.562,8.761c0.401,1.798,0.542,3.621,0.539,5.46c-0.008,4.869,0.006,9.737-0.006,14.606
		c-0.008,3.151,0.023,6.295,0.922,9.356c0.031,0.104-0.01,0.23-0.021,0.405c-1.839,0-3.662,0-5.582,0
		c-0.667-2.098-0.885-4.255-0.908-6.438c-0.417-0.104-0.469,0.256-0.592,0.457c-2.277,3.723-5.571,6.037-9.869,6.689
		c-4.284,0.65-8.379,0.06-11.848-2.834c-2.388-1.993-3.636-4.579-3.832-7.682c-0.197-3.119,0.54-5.931,2.709-8.268
		c1.554-1.674,3.504-2.754,5.616-3.545c2.515-0.942,5.132-1.439,7.799-1.723c2.703-0.288,5.412-0.37,8.128-0.403
		C513.463,66.694,514.047,66.995,514.712,66.717z M514.63,71.36c-0.067-0.038-0.133-0.108-0.202-0.111
		c-4.11-0.174-8.22-0.288-12.25,0.758c-1.903,0.494-3.721,1.214-5.159,2.623c-1.964,1.925-2.54,4.264-1.91,6.902
		c0.595,2.492,2.288,3.962,4.67,4.642c1.99,0.568,4.007,0.536,6.017-0.039C512.034,84.35,515.469,77.52,514.63,71.36z"/>
	<path style="fill:#10568A;" d="M600.026,68.537c-0.016,1.116-0.032,2.232-0.048,3.348c-5.279,0.008-10.558,0.019-15.837,0.024
		c-3.48,0.004-6.959,0.001-10.439,0.001c-0.392,0-0.785,0-1.247,0c-0.156,1.749,0.098,3.394,0.436,5.016
		c0.535,2.573,1.519,4.938,3.45,6.828c1.757,1.719,3.851,2.64,6.298,2.824c3.509,0.264,6.553-0.712,8.988-3.316
		c0.434-0.464,0.803-0.991,1.179-1.506c0.518-0.712,0.892-1.507,1.315-2.429c1.774,0.079,3.525,0.616,5.274,0.839
		c0.229,0.348,0.045,0.586-0.058,0.839c-2.263,5.533-6.219,9.09-12.175,10.185c-4.624,0.851-9.078,0.373-13.111-2.256
		c-3.391-2.211-5.469-5.411-6.668-9.206c-1.193-3.777-1.449-7.645-1.009-11.576c0.396-3.539,1.414-6.853,3.445-9.81
		c2.728-3.973,6.489-6.256,11.293-6.826c4.414-0.524,8.51,0.283,12.129,2.941c3.159,2.32,4.965,5.558,5.99,9.261
		C599.665,65.289,599.962,66.898,600.026,68.537z M593.793,67.608c0.103-1.082-0.072-2.022-0.273-2.951
		c-0.57-2.639-1.678-4.972-3.916-6.631c-1.481-1.099-3.16-1.619-4.993-1.785c-2.462-0.222-4.762,0.202-6.853,1.534
		c-2.493,1.589-3.817,4.004-4.608,6.75c-0.281,0.976-0.62,1.962-0.523,3.083C579.677,67.608,586.687,67.608,593.793,67.608z"/>
	<path style="fill:#0F568A;" d="M350.608,71.633c-0.103-4.127,0.585-7.979,2.473-11.539c2.622-4.946,6.69-7.89,12.318-8.575
		c5.201-0.633,9.831,0.63,13.692,4.231c2.608,2.432,4.165,5.51,4.984,8.95c1.344,5.643,1.198,11.229-1.06,16.623
		c-2.225,5.317-6.145,8.816-11.886,9.884c-8.552,1.591-16.185-2.34-19.26-11.244C350.926,77.232,350.507,74.407,350.608,71.633z
		 M378.558,71.207c-0.023-1.213-0.058-2.685-0.317-4.142c-0.451-2.533-1.243-4.923-2.789-7.032
		c-3.135-4.276-9.257-5.017-13.357-2.169c-2.418,1.68-3.709,4.126-4.468,6.867c-1.048,3.783-1.063,7.638-0.445,11.485
		c0.322,2.006,1.003,3.917,2.062,5.686c2.481,4.142,7.146,5.742,11.467,4.345c3.108-1.005,5.039-3.259,6.295-6.149
		C378.2,77.35,378.569,74.438,378.558,71.207z"/>
	<path style="fill:#14578A;" d="M398.103,58.767c0.546-0.218,0.666-0.682,0.902-1.024c1.214-1.758,2.613-3.33,4.433-4.48
		c2.639-1.668,5.531-2.151,8.604-1.819c1.892,0.205,3.681,0.693,5.291,1.73c2.409,1.552,3.758,3.857,4.551,6.525
		c0.548,1.842,0.797,3.735,0.796,5.661c-0.004,8.062-0.001,16.124-0.004,24.186c0,0.275-0.027,0.551-0.046,0.894
		c-1.809,0-3.586,0-5.377,0c-0.193-0.454-0.1-0.896-0.1-1.323c-0.007-7.663-0.009-15.326-0.002-22.989
		c0.002-1.684-0.181-3.331-0.713-4.942c-1.015-3.071-3.728-5.436-8.027-4.928c-4.984,0.588-7.743,3.735-9.26,8.205
		c-0.565,1.665-0.758,3.414-0.755,5.182c0.013,6.466,0.005,12.931,0.005,19.397c0,0.437,0,0.874,0,1.389c-1.869,0-3.685,0-5.495,0
		c-0.23-0.84-0.308-36.268-0.081-37.965c0.834-0.258,1.712-0.079,2.574-0.113c0.832-0.032,1.666-0.007,2.652-0.007
		C398.126,54.527,398.042,56.62,398.103,58.767z"/>
	<path style="fill:#12568A;" d="M534.497,52.35c0,2.286,0,4.398,0,6.555c0.529-0.075,0.608-0.517,0.809-0.819
		c1.504-2.257,3.296-4.21,5.767-5.44c2.395-1.193,4.93-1.488,7.571-1.193c2.02,0.225,3.905,0.778,5.573,1.968
		c2.553,1.821,3.798,4.436,4.483,7.385c0.39,1.677,0.537,3.381,0.537,5.099c0,7.943,0,15.885-0.001,23.828
		c0,0.197-0.017,0.394-0.029,0.646c-0.908,0.277-1.822,0.088-2.719,0.124c-0.875,0.034-1.752,0.007-2.658,0.007
		c-0.252-0.437-0.147-0.882-0.147-1.301c-0.007-7.903,0.001-15.806-0.01-23.708c-0.003-2.015-0.358-3.961-1.351-5.751
		c-1.103-1.987-2.802-3.103-5.039-3.445c-4.844-0.741-8.908,2.155-10.836,6.184c-1.011,2.113-1.488,4.361-1.487,6.708
		c0.004,6.626,0.001,13.251,0.001,19.877c0,0.434,0,0.868,0,1.368c-1.891,0-3.707,0-5.603,0c0-12.682,0-25.308,0-38.093
		c0.864,0,1.691,0,2.517,0C532.709,52.35,533.542,52.35,534.497,52.35z"/>
	<path style="fill:#0A5589;" d="M70.164,34.413c3.152,6.429,6.246,12.74,9.396,19.164c-5.687,4.411-11.347,8.801-17.14,13.295
		c-3.56-6.523-7.077-12.966-10.675-19.558C57.867,43.026,63.982,38.743,70.164,34.413z"/>
	<path style="fill:#0B5589;" d="M452.918,39.156c2.104,0,4.126,0,6.251,0c0,15.204,0,30.352,0,45.595c7.844,0,15.587,0,23.499,0
		c0.019,1.94,0.009,3.787,0.007,5.696c-9.96,0-19.821,0-29.757,0C452.918,73.357,452.918,56.297,452.918,39.156z"/>
	<path style="fill:#0D558A;" d="M329.519,56.606c-2.303,0-4.418,0-6.61,0c0-1.414,0-2.781,0-4.236c2.19,0,4.334,0,6.585,0
		c0-3.022,0-5.959,0-8.941c1.934-0.335,3.797-0.417,5.764-0.633c0,3.163,0,6.297,0,9.522c3.053,0,5.993,0,8.997,0
		c0.214,0.771,0.087,1.485,0.11,2.183c0.022,0.668,0.005,1.337,0.005,2.093c-3.052,0-5.994,0-8.802,0
		c-0.287,0.197-0.284,0.36-0.284,0.517c0.01,7.302,0.004,14.604,0.052,21.905c0.007,1.145,0.136,2.299,0.399,3.431
		c0.594,2.555,2.02,3.865,4.629,4.054c1.39,0.1,2.793,0.151,4.176-0.165c0.305-0.07,0.628-0.066,0.986-0.101
		c0.213,0.803,0.083,1.599,0.106,2.382c0.023,0.752,0.005,1.505,0.005,2.311c-3.347,0.82-6.641,0.996-9.829-0.183
		c-3.539-1.309-5.637-3.88-6.069-7.722c-0.17-1.511-0.22-3.019-0.22-4.534c-0.002-6.823-0.001-13.647-0.001-20.47
		C329.519,57.591,329.519,57.161,329.519,56.606z"/>
	<path style="fill:#0B5589;" d="M67.393,87.093c-5.954,4.28-11.776,8.466-17.703,12.726c-3.112-4.402-6.187-8.75-9.361-13.24
		c6.988-4.463,13.973-8.81,21.008-13.266C63.357,77.908,65.351,82.445,67.393,87.093z"/>
	<path style="fill:#0B5589;" d="M83.827,18.195c-4.081,3.088-8.087,6.119-12.089,9.148C71.106,26.772,59.568,8.46,58.914,6.964
		C63.574,4.663,68.24,2.36,73.019,0C76.611,6.047,80.182,12.059,83.827,18.195z"/>
	<path style="fill:#0F568A;" d="M315.297,90.461c-1.883,0-3.704,0-5.596,0c0-17.095,0-34.145,0-51.279c1.829,0,3.68,0,5.596,0
		C315.297,56.252,315.297,73.333,315.297,90.461z"/>
	<path style="fill:#0B5589;" d="M85.642,71.978c-5.014,4.336-9.958,8.613-15.051,13.018c-2.014-4.714-3.984-9.327-5.996-14.038
		c5.61-4.499,11.169-8.957,16.879-13.536C82.88,62.332,84.25,67.116,85.642,71.978z"/>
	<path style="fill:#0B5589;" d="M92.713,40.931c-3.247,3.144-6.458,6.253-9.799,9.488c-3.034-6.136-6.016-12.166-9.037-18.276
		c3.973-3.239,7.924-6.459,11.875-9.68C86.289,23.12,92.304,39.079,92.713,40.931z"/>
	<path style="fill:#17578B;" d="M298.413,90.468c-1.899,0-3.725,0-5.628,0c0-12.675,0-25.307,0-38.116
		c0.942-0.002,1.882-0.004,2.823-0.004c0.913-0.001,1.825,0,2.805,0C298.413,65.073,298.413,77.706,298.413,90.468z"/>
	<path style="fill:#0D558A;" d="M97.881,58.072c-3.124,3.655-6.198,7.252-9.406,11.005c-1.465-4.993-2.86-9.746-4.287-14.607
		c3.282-3.321,6.579-6.657,10.007-10.127C95.456,49.04,96.658,53.52,97.881,58.072z"/>
	<path style="fill:#0D558A;" d="M88.691,20.242c2.166-2.298,4.292-4.553,6.557-6.956c2.17,5.562,4.149,11.062,6.275,16.617
		c-1.954,2.586-3.933,5.206-6.047,8.004C93.177,31.922,90.963,26.157,88.691,20.242z"/>
	<path style="fill:#0D558A;" d="M75.004,96.104c-0.926-2.839-1.786-5.475-2.663-8.164c4.727-4.194,9.4-8.34,14.254-12.647
		c0.468,3.326,0.906,6.446,1.351,9.608C83.661,88.61,79.418,92.283,75.004,96.104z"/>
	<path style="fill:#0F568A;" d="M99.681,54.93c-1.049-4.357-2.098-8.714-3.155-13.105c2.006-2.828,4.009-5.654,6.165-8.693
		c1.358,4.118,2.452,8.101,3.704,12.032c-2.173,3.309-4.31,6.563-6.448,9.817C99.857,54.963,99.769,54.947,99.681,54.93z"/>
	<path style="fill:#10568A;" d="M100.316,70.525c-3.247,3.938-6.436,7.805-9.767,11.845c-0.482-3.3-0.77-6.396-1.097-9.479
		c3.072-3.77,6.107-7.496,9.281-11.393C99.284,64.638,99.795,67.55,100.316,70.525z"/>
	<path style="fill:#10568A;" d="M73.365,100.054c0.642,1.714,1.251,3.338,1.902,5.075c-4.085,3.091-8.405,5.737-12.976,8.057
		c-1.162-1.271-2.288-2.502-3.484-3.81C63.46,106.397,68.359,103.259,73.365,100.054z"/>
	<path style="fill:#10568A;" d="M88.436,87.446c0.147,1.827,0.27,3.354,0.393,4.885c-3.488,3.952-7.122,7.683-11.336,11.142
		c-0.497-1.75-0.955-3.364-1.435-5.053C80.102,94.834,84.149,91.246,88.436,87.446z"/>
	<path style="fill:#14578A;" d="M107.473,47.616c0.091,4.331-3.339,18.697-5.154,21.629c-0.431-1.288-0.504-2.598-0.755-3.869
		c-0.347-1.756-0.617-3.528-0.937-5.29c-0.141-0.772-0.058-1.441,0.391-2.146c2.052-3.228,4.042-6.495,6.055-9.747
		C107.153,48.064,107.246,47.942,107.473,47.616z"/>
	<path style="fill:#18578B;" d="M298.406,44.756c-1.849,0-3.667,0-5.566,0c0-1.858,0-3.702,0-5.604c1.839,0,3.664,0,5.566,0
		C298.406,40.997,298.406,42.845,298.406,44.756z"/>
	<path style="fill:#18578B;" d="M106.704,26.316c1.19,5.64,1.16,11.076,0.859,16.565c-1.197-4.047-2.394-8.094-3.611-12.211
		C104.819,29.299,105.704,27.898,106.704,26.316z"/>
	<path style="fill:#1F598C;" d="M100.315,74.063c-0.719,1.943-1.743,3.741-2.743,5.541c-1.917,3.45-4.17,6.689-6.489,10.007
		c-0.404-0.585-0.202-1.193-0.251-1.734c-0.205-2.239-0.171-2.234,1.251-3.972c2.527-3.087,5.038-6.187,7.57-9.271
		c0.18-0.22,0.26-0.614,0.684-0.554L100.315,74.063z"/>
	<path style="fill:#1F598C;" d="M100.335,74.08c0-0.131-0.05-0.278,0.116-0.361c0.11,0.182,0.023,0.277-0.136,0.344L100.335,74.08z"
		/>
</g>
</svg>
