<?xml version="1.0" encoding="iso-8859-1"?>
<!-- Generator: Adobe Illustrator 27.0.0, SVG Export Plug-In . SVG Version: 6.00 Build 0)  -->
<svg version="1.1" id="Layer_1" xmlns="http://www.w3.org/2000/svg" xmlns:xlink="http://www.w3.org/1999/xlink" x="0px" y="0px"
	 viewBox="0 0 1576 593.146" style="enable-background:new 0 0 1576 593.146;" xml:space="preserve">
<g>
	<path style="fill:#A7D0EE;" d="M0,23.582c0.297-0.05,0.596-0.075,0.896-0.075c0.034,1.999,0.098,3.997,0.098,5.996
		C1,133.833,0.999,238.164,1.003,342.494c0,1.999,0.053,3.998,0.081,5.997c-0.361,0.03-0.722,0.061-1.083,0.091
		C0,240.248,0,131.915,0,23.582z"/>
	<path style="fill:#A6BBDF;" d="M1575.092,240.526c0.3,0.055,0.603,0.074,0.908,0.056c0,6,0,12,0,18
		c-0.3-0.004-0.598,0.017-0.895,0.062C1575.101,252.605,1575.097,246.565,1575.092,240.526z"/>
	<path style="fill:#1D77B9;" d="M1575.092,240.526c0.004,6.039,0.008,12.079,0.013,18.118c-1.98,23.099-9.987,43.712-24.362,62.067
		c-15.57,19.88-35.648,32.599-59.692,39.28c-20.505,5.697-41.069,4.972-61.482-0.774c-14.283-4.021-26.772-11.526-38.586-20.269
		c-3.18-2.354-6.274-4.824-9.859-7.59c0,79.812,0,159.034,0,238.37c-10.733,7.957-21.381,15.766-32.536,23.419
		c-0.836-2.606-0.515-4.598-0.515-6.548c0-112.138,0.094-224.276-0.047-336.413c-0.02-15.555,2.769-30.332,8.868-44.554
		c7.144-16.658,17.882-30.697,31.501-42.533c14.586-12.676,31.417-21.061,50.362-24.81c11.241-2.224,22.581-3.168,34.157-1.924
		c26.828,2.882,49.744,13.872,68.833,32.64c17.685,17.386,28.755,38.383,32.398,63.12
		C1574.558,234.923,1574.926,237.707,1575.092,240.526z M1462.409,330.676c46.901-0.567,80.411-39.03,80.173-81.148
		c-0.271-48.118-38.809-80.635-81.694-80.593c-42.827,0.041-79.351,35.322-79.663,80.646
		C1380.901,296.47,1419.337,330.229,1462.409,330.676z"/>
	<path style="fill:#2AAADF;" d="M1.083,348.491c-0.028-1.999-0.081-3.998-0.081-5.997C0.999,238.164,1,133.833,0.995,29.502
		c0-1.999-0.064-3.997-0.098-5.996c7.546-5.125,15.81-9.011,23.63-13.668c4.559-2.715,9.221-5.256,13.866-7.823
		c0.982-0.543,1.906-1.364,3.245-1.19c0.977,1.507,0.487,3.207,0.494,4.809c0.045,10.164,0.048,20.327,0.008,30.491
		c-0.114,28.966,1.096,57.918,0.736,86.889c-0.253,20.299-1.23,40.587-0.871,60.895c0.047,2.66,0.006,5.322,0.006,8.036
		c1.924,0.202,1.942-1.554,2.726-2.398c12.634-13.579,27.389-23.498,46.025-26.696c1.788-0.307,3.652-0.194,5.481-0.238
		c6.82-0.163,13.636,0.304,20.256,1.804c17.245,3.906,29.526,14.504,38.217,29.54c4.457,7.71,6.514,16.12,7.479,24.996
		c0.904,8.315,0.754,16.604,0.777,24.902c0.093,33.823,0.037,67.647,0.036,101.47c0,0.828,0,1.656,0,2.444
		c-3.63,1.027-31.191,1.367-41.433,0.537c-1.046-1.623-0.504-3.502-0.507-5.258c-0.069-32.823,0.004-65.648-0.189-98.47
		c-0.041-6.932-1.372-13.758-3.518-20.446c-4.513-14.061-18.03-22.126-31.475-22.611c-13.305-0.481-24.812,3.639-33.922,13.614
		c-4.748,5.199-7.306,11.437-7.916,18.387c-2.055,23.381-2.633,46.833-1.764,70.263c0.506,13.644,0.435,27.269,0.552,40.904
		c0.01,1.121,0.342,2.328-0.7,3.804C28.634,348.491,14.859,348.491,1.083,348.491z"/>
	<path style="fill:#1D77B9;" d="M1023.276,103.959c-15.375,4.866-29.272,11.081-42.261,19.268
		c-21.816,13.753-37.339,32.693-47.035,56.574c-4.324,10.649-7.899,21.518-9.735,32.829c-4.193,25.821,1.811,48.98,19.918,68.2
		c10.268,10.899,23.311,17.506,37.97,20.677c25.176,5.446,47.437-0.638,66.631-17.599c6.121-5.409,10.623-12.333,15.16-19.12
		c0.982-1.469,1.995-2.917,3.482-5.087c5.087,19.466,13.829,36.271,24.874,52.049c-7.733,7.884-15.873,14.685-24.783,20.582
		c-10.314,6.827-21.295,12.383-33.133,15.866c-15.405,4.533-31.116,6.123-47.271,4.6c-24.354-2.296-46.245-10.756-65.389-25.633
		c-24.062-18.7-39.686-43.016-45.858-73.155c-2.25-10.987-3.318-22.041-2.65-33.195c1.239-20.705,6.927-40.079,17.707-57.944
		c8.992-14.903,20.394-27.428,34.679-37.407c14.786-10.33,31.038-17.188,48.643-20.763c10.428-2.118,21.016-3.294,31.689-2.966
		c4.978,0.153,9.945,0.701,14.912,1.134C1021.428,102.92,1021.996,103.373,1023.276,103.959z"/>
	<path style="fill:#1D77B9;" d="M1179.215,350.148c8.023-3.241,15.851-6.341,23.375-10.201c14.2-7.285,26.871-16.524,37.87-28.101
		c9.414-9.909,16.118-21.494,21.317-34.012c4.583-11.037,8.515-22.29,10.728-34.083c4.301-22.922,1.318-44.42-13.063-63.394
		c-11.602-15.308-27.075-24.964-45.908-28.634c-21.27-4.145-40.955,0.123-58.577,12.906c-10.572,7.669-18.193,17.898-24.52,29.183
		c-0.707,1.261-0.982,2.809-2.881,4.164c-4.009-19.853-12.289-37.509-24.381-53.275c38.651-44.239,102.327-58.518,156.693-28.439
		c57.098,31.59,79.438,99.811,54.407,159.108C1288.864,335.566,1227.169,357.507,1179.215,350.148z"/>
	<path style="fill:#2BAADF;" d="M396.198,253.833c-0.051,25.761-6.744,45.94-20.694,63.315
		c-13.851,17.253-31.971,28.339-53.575,33.161c-9.04,2.018-18.363,2.946-27.7,2.192c-20.035-1.618-38.753-7.382-54.93-19.515
		c-17.914-13.436-29.252-31.533-34.223-53.317c-4.637-20.323-2.325-40.133,5.955-59.279c4.725-10.925,10.972-20.895,19.324-29.32
		c11.02-11.117,23.934-19.239,39.178-23.63c10.43-3.004,20.92-5.031,31.772-4.737c18.39,0.498,35.766,4.959,51.352,14.857
		c21.531,13.674,35.543,32.953,41.317,57.967C395.622,242.669,396.415,249.909,396.198,253.833z M354.204,256.96
		c-0.294-4.358-0.145-8.611-1.098-12.923c-5.217-23.588-29.47-46.646-57.233-44.601c-12.519,0.922-23.673,5.178-32.788,13.716
		c-13.167,12.333-17.929,28.353-17.826,45.845c0.04,6.864,1.549,13.722,3.707,20.407c7.403,22.929,33.088,40.559,57.337,36.314
		c18.53-3.244,32.495-12.585,41.691-28.982C353.199,277.458,353.957,267.225,354.204,256.96z"/>
	<path style="fill:#2AAADF;" d="M556.911,166.742c14.267,0,27.878,0,41.808,0c0,60.525,0,120.907,0,181.565
		c-13.796,0-27.531,0-41.657,0c0-8.491,0-16.868,0-26.236c-4.331,4.279-8.033,7.82-11.599,11.493
		c-3.495,3.601-7.457,6.607-11.531,9.482c-7.508,5.296-16.023,7.431-25.031,8.704c-9.925,1.403-19.537,0.176-28.983-2.284
		c-15.17-3.951-26.666-13.008-34.372-26.728c-5.458-9.717-7.643-20.284-8.763-31.298c-0.88-8.654-0.706-17.272-0.725-25.906
		c-0.069-30.996-0.01-61.993,0-92.99c0.001-1.8,0-3.599,0-5.677c14.289,0,28.206,0,42.098,0c0.608,0.474,0.672,1.124,0.672,1.798
		c-0.001,12.665,0.543,25.361-0.16,37.987c-0.677,12.154-0.724,24.296-0.403,36.413c0.305,11.469,0.218,22.954,0.828,34.404
		c0.494,9.265,3.332,17.95,9.592,25.073c4.505,5.126,10.458,8.321,16.958,9.911c12.161,2.974,23.845,1.182,34.215-5.953
		c8.843-6.084,14.266-14.389,15.312-25.536c3.384-36.061,1.077-72.194,1.736-108.286
		C556.94,170.866,556.911,169.053,556.911,166.742z"/>
	<path style="fill:#2BAADF;" d="M1259.97,254.558c0.043,5.498-2.701,10.172-4.621,15.048c-7.833,19.884-20.367,36.501-36.435,50.37
		c-12.089,10.433-26.189,17.387-41.666,21.361c-4.953,1.271-9.957,0.053-14.749-1.188c-19.849-5.142-36.98-15.146-51.76-29.322
		c-10.526-10.096-19.11-21.582-25.892-34.497c-4.63-8.816-6.511-18.318-7.834-28.012c-1.765-12.932-1.655-26.118-5-38.833
		c-6.926-26.324-23.748-43.326-49.753-50.589c-20.336-5.68-39.827-2.238-57.679,9.041c-8.549,5.401-14.889,13.192-20.548,21.481
		c-2.88,4.219-5.566,8.572-8.466,13.06c-1.383-2.319,0.025-4.093,0.622-5.741c5.796-16.016,13.644-30.959,24.505-44.134
		c11.985-14.539,26.206-26.179,43.856-33.472c6.626-2.738,13.384-4.747,20.314-6.267c5.045-1.106,9.873,0.86,14.617,2.126
		c17.229,4.597,31.652,14.098,44.621,26.093c9.741,9.01,17.948,19.18,23.663,31.174c5.431,11.397,8.852,23.472,11.258,35.857
		c2.144,11.042,3.184,22.244,5.035,33.323c1.81,10.839,6.413,20.51,13.395,28.972c9.786,11.86,22.123,20.1,36.889,24.264
		c11.934,3.366,23.913,3.532,36.196,0.352c18.982-4.915,32.452-16.65,43.384-32.131c1.978-2.801,3.357-6.049,6.108-8.281
		L1259.97,254.558z"/>
	<path style="fill:#1D77B9;" d="M844.713,347.442c-14.208,0-28,0-42.109,0c0-107.851,0-215.573,0-323.859
		C816.27,15.929,830.246,8.102,844.713,0C844.713,116.157,844.713,231.549,844.713,347.442z"/>
	<path style="fill:#2AAADF;" d="M693.032,348.405c-14.196,0-27.803,0-41.76,0c0-60.453,0-120.818,0-181.504
		c13.667,0,27.399,0,41.533,0c0,12.045,0,24.108,0,37.33c14.357-25.81,34.229-41.34,63.941-42.621c0,15.015,0,29.604,0,44.511
		c-5.655,0.991-11.453,2.059-17.208,3.354c-10.43,2.349-19.653,7.047-27.638,14c-4.391,3.824-7.864,8.626-10.187,13.999
		c-4.22,9.761-6.62,20.005-7.822,30.599c-1.941,17.109-0.682,34.243-0.844,51.364C692.958,328.918,693.032,338.4,693.032,348.405z"
		/>
	<path style="fill:#2BAADF;" d="M1260.028,254.611c0-0.571-0.061-1.159,0.482-1.6c0.593,0.796,0.438,1.31-0.541,1.546
		L1260.028,254.611z"/>
</g>
</svg>
