<?xml version="1.0" encoding="iso-8859-1"?>
<!-- Generator: Adobe Illustrator 27.0.0, SVG Export Plug-In . SVG Version: 6.00 Build 0)  -->
<svg version="1.1" id="Layer_1" xmlns="http://www.w3.org/2000/svg" xmlns:xlink="http://www.w3.org/1999/xlink" x="0px" y="0px"
	 viewBox="0 0 1595.205 263.313" style="enable-background:new 0 0 1595.205 263.313;" xml:space="preserve">
<g>
	<path style="fill:#203968;" d="M77.205,263.012c-0.667,0-1.333,0-2,0c-1.38-1.89-3.376-0.907-5.042-0.915
		c-22.951-0.098-45.902-0.092-68.854-0.112c-0.035-0.828-0.1-1.657-0.1-2.485c-0.007-36.687-0.01-73.373-0.002-110.06
		c0-1.157,0.116-2.315,0.178-3.472c0.324,0.064,0.695,0.047,0.965,0.203c24.909,14.41,49.81,28.834,74.711,43.256
		c-0.053,24.214-0.106,48.427-0.145,72.641C76.917,262.383,77.105,262.697,77.205,263.012z"/>
	<path style="fill:#213A69;" d="M1.205,0.012c25.333,0,50.667,0,76,0c-0.08,1.656-0.227,3.311-0.229,4.967
		c-0.018,17.808-0.036,35.615-0.009,53.423c0.021,13.811,0.105,27.621,0.161,41.431c-1.904,0.593-3.097-0.855-4.478-1.636
		C62.561,92.49,52.471,86.781,42.436,80.975C28.678,73.015,14.969,64.968,1.239,56.958C1.228,37.976,1.217,18.994,1.205,0.012z"/>
	<path style="fill:#203968;" d="M204.205,0.012c0.06,17.308,0.119,34.616,0.179,51.924c-11.25,6.713-22.46,13.496-33.761,20.123
		c-14.018,8.219-28.111,16.307-42.172,24.452c-0.071-1.818-0.203-3.636-0.204-5.454c-0.023-30.348-0.031-60.696-0.041-91.044
		C153.539,0.012,178.872,0.012,204.205,0.012z"/>
	<path style="fill:#7FBF4D;" d="M1595.205,55.012c-1.155,0-2.309,0-3.61,0c-0.861-2.848-0.104-5.697-0.557-8.608
		c-3.084,1.564-1.528,6.873-5.81,7.37c-2.464-1.887-2.311-5.225-4.855-7.521c0,3.018,0,5.663,0,8.057
		c-1.438,0.975-2.507,0.86-3.828,0.218c0-5.155,0-10.408,0-15.741c1.252-1.157,2.739-0.586,4.332-0.507
		c2.179,2.484,2.672,5.966,4.851,8.8c2.179-2.55,2.585-5.999,4.619-8.554c1.534-0.834,3.254-0.159,4.858-0.513
		C1595.205,43.679,1595.205,49.345,1595.205,55.012z"/>
	<path style="fill:#6F7193;" d="M0.205,145.012c0.163-0.188,0.344-0.207,0.542-0.057c0.213,0.338,0.426,0.675,0.639,1.013
		c-0.062,1.157-0.178,2.315-0.178,3.472C1.2,186.127,1.203,222.813,1.21,259.5c0,0.828,0.065,1.657,0.1,2.485
		c-0.368,0.009-0.737,0.018-1.105,0.026C0.205,223.012,0.205,184.012,0.205,145.012z"/>
	<path style="fill:#505880;" d="M128.205,263.012c0.067-0.351,0.134-0.702,0.201-1.053c25.243,0.01,50.486,0.021,75.729,0.031
		c0.023,0.341,0.047,0.681,0.07,1.022C178.872,263.012,153.539,263.012,128.205,263.012z"/>
	<path style="fill:#606489;" d="M0.205,262.012c0.368-0.009,0.737-0.018,1.105-0.026c22.951,0.02,45.903,0.014,68.854,0.112
		c1.665,0.007,3.662-0.975,5.042,0.915c-24.167,0-48.333,0.015-72.5-0.07C1.958,262.94,0.285,264.229,0.205,262.012z"/>
	<path style="fill:#6F7193;" d="M1.239,56.958c-0.344,0.018-0.689,0.036-1.033,0.054c0-18.342-0.012-36.684,0.05-55.025
		c0.002-0.627-1-2.135,0.95-1.975C1.217,18.994,1.228,37.976,1.239,56.958z"/>
	<path style="fill:#77BD45;" d="M1.386,145.968c-0.213-0.338-0.426-0.675-0.639-1.013c5.799-4.446,12.358-7.653,18.628-11.318
		c17.888-10.453,35.86-20.764,53.813-31.107c1.279-0.737,2.464-1.724,4.024-1.877c7.373,4.386,14.746,8.771,22.389,13.318
		c6.632-3.912,13.197-7.688,19.657-11.637c3.092-1.89,6.523-3.265,9.194-5.824c14.061-8.145,28.155-16.233,42.172-24.452
		c11.301-6.626,22.511-13.409,33.761-20.123c10.799-5.507,21.033-12.002,31.519-18.054c2.268-1.309,4.539-2.612,7.465-4.295
		c0,30.556,0,60.442,0,90.854c-6.548,3.746-13.456,7.659-20.325,11.64c-6.313,3.659-12.585,7.391-18.874,11.09
		c-15.132,8.592-30.27,17.172-45.392,25.779c-10.222,5.818-20.422,11.674-30.632,17.514c-8.254,3.786-15.854,8.755-23.771,13.151
		c-1.433,0.796-2.835,1.648-4.241,2.468c-7.785-4.27-15.428-8.462-23.071-12.654c-24.902-14.423-49.803-28.846-74.711-43.256
		C2.081,146.015,1.71,146.032,1.386,145.968z"/>
	<path style="fill:#213A69;" d="M812.183,143.645c4.244,4.094,8.756,8.447,13.034,12.574c-7.148,7.107-13.967,13.888-21.145,21.026
		c-5.198-5.188-10.808-10.789-16.477-16.448c-8.796,3.814-17.762,6.316-27.126,6.703c-29.387,1.213-54.057-8.382-69.527-34.349
		c-22.888-38.418-4.803-90.158,43.193-102.038c22.453-5.558,44.069-2.946,63.65,9.772c21.034,13.661,31.004,33.565,30.639,58.63
		c-0.221,15.128-5.044,28.648-14.269,40.626C813.466,141.036,812.469,141.763,812.183,143.645z M789.707,121.071
		c9.648-12.614,10.457-38.789-5.876-54.156c-14.897-14.015-38.45-15.208-54.415-2.506c-16.996,13.523-21.34,36.987-10.089,55.666
		c10.221,16.969,30.649,24.01,46.012,18.624c-5.263-5.355-10.432-10.616-15.095-15.361c7.117-7.116,13.806-13.804,20.856-20.853
		C777.085,108.464,783.384,114.755,789.707,121.071z"/>
	<path style="fill:#213968;" d="M316.232,86.278c20.937,0,41.092,0,61.811,0c0-18.923,0-37.799,0-56.905c10.494,0,20.43,0,30.393,0
		c0.932,3.319,1.204,130.232,0.238,136.634c-9.917,0-19.865,0-30.263,0c0-17.688,0-35.437,0-53.496c-20.833,0-41.221,0-62.097,0
		c0,17.768,0,35.498,0,53.453c-10.542,0-20.598,0-30.63,0c-0.642-4.794-0.627-131.851,0.022-136.604c9.902,0,19.839,0,30.447,0
		c0.182,6.155,0.05,12.41,0.072,18.658c0.023,6.332,0.005,12.663,0.005,18.995C316.232,73.309,316.232,79.606,316.232,86.278z"/>
	<path style="fill:#203968;" d="M128.145,186.462c10.21-5.839,20.41-11.696,30.632-17.514c15.123-8.607,30.261-17.187,45.392-25.779
		c0.06,1.328,0.172,2.656,0.172,3.985c0.006,37.119,0.002,74.239-0.012,111.358c0,1.159-0.126,2.318-0.194,3.477
		c-25.243-0.01-50.486-0.021-75.729-0.031c-0.057-10.925-0.131-21.85-0.167-32.775C128.192,214.943,128.175,200.703,128.145,186.462
		z"/>
	<path style="fill:#79BD47;" d="M1342.469,63.036c7.246,0,14.2,0,21.678,0c16.333,21.406,32.848,43.049,50.066,65.614
		c0-22.369,0-43.667,0-65.166c4.144-1.172,7.949-0.458,11.684-0.585c3.807-0.13,7.623-0.029,11.731-0.029
		c0,34.402,0,68.469,0,103.266c-7.552,0.032-15.123,0.017-23.076,0.004c-16.104-21.173-32.277-42.436-49.186-64.666
		c0,22.174,0,43.157,0,64.406c-7.831,0-15.229,0-22.898,0C1342.469,131.733,1342.469,97.658,1342.469,63.036z"/>
	<path style="fill:#213968;" d="M571.619,165.922c-8.997,0-17.405,0-26.454,0c-5.229-9.304-10.657-18.964-16.193-28.814
		c-7.704,0-15.467,0-23.743,0c0,9.615,0,19.171,0,28.902c-7.945,0-15.38,0-22.797,0c-1.062-3.887-1.263-91.78-0.243-102.681
		c0.405-0.144,0.853-0.444,1.301-0.443c16.48,0.026,32.96,0.05,49.44,0.145c5.378,0.031,10.615,1.253,15.513,3.296
		c12.672,5.286,19.519,14.99,20.643,28.677c0.411,5.007,0.053,9.994-1.139,14.869c-1.88,7.688-5.885,14.051-12.323,18.768
		c-1.732,1.269-3.545,2.427-5.551,3.794C557.201,143.513,564.262,154.487,571.619,165.922z M505.359,117.137
		c7.617,0,14.754,0.006,21.892-0.006c1.163-0.002,2.33-0.04,3.488-0.142c9.904-0.872,16-6.969,16.225-16.814
		c0.21-9.164-4.373-15.769-14.818-17.383c-6.468-1-12.939-0.433-19.407-0.561c-2.422-0.048-4.919-0.459-7.379,0.371
		C505.359,94.067,505.359,105.327,505.359,117.137z"/>
	<path style="fill:#213A69;" d="M1037.733,165.949c-26.828,0-53.395,0-80.183,0c0-34.316,0-68.384,0-102.787
		c26.123,0,52.151,0,78.439,0c0,6.224,0,12.446,0,19.065c-18.301,0-36.375,0-54.718,0c0,7.625,0,14.856,0,22.466
		c16.417,0,32.681,0,49.32,0c0,6.417,0,12.476,0,18.768c0.082-0.099-0.011,0.044-0.135,0.153c-0.116,0.103-0.263,0.243-0.397,0.243
		c-16.129,0.011-32.259,0.01-48.725,0.01c0,7.76,0,15.148,0,22.965c18.6,0,37.344,0,56.398,0
		C1037.733,153.313,1037.733,159.382,1037.733,165.949z"/>
	<path style="fill:#203968;" d="M612.306,123.803c0,8.077,0,15.359,0,23.209c9.551,0,18.986,0,28.421,0c9.306,0,18.612,0,28.197,0
		c0,6.333,0,12.413,0,18.511c-3.545,0.844-72.523,1.09-79.826,0.235c0-34.049,0-68.133,0-102.573c25.941,0,51.976,0,78.206,0
		c0,6.272,0,12.358,0,18.846c-18.26,0-36.347,0-54.779,0c0,7.634,0,14.878,0,22.596c16.247,0,32.653,0,49.346,0
		c0,6.546,0,12.636,0,19.175C645.576,123.803,629.175,123.803,612.306,123.803z"/>
	<path style="fill:#233B69;" d="M936.24,63.047c0.997,1.421,0.614,2.796,0.616,4.087c0.027,17.997,0.114,35.995-0.028,53.991
		c-0.058,7.321-0.916,14.571-3.853,21.433c-4.362,10.191-11.777,17.321-22.033,21.186c-12.708,4.79-25.806,4.923-38.715,1.021
		c-17.354-5.246-28.49-19.943-28.829-38.334c-0.384-20.822-0.127-41.656-0.141-62.484c0-0.148,0.109-0.296,0.301-0.783
		c7.417,0,14.979,0,22.689,0c1.235,1.299,0.591,3.049,0.595,4.62c0.051,18.164,0.034,36.328,0.03,54.492
		c-0.001,2.667,0.006,5.333,0.678,7.939c2.964,11.488,14.476,18.61,26.584,16.452c12.057-2.149,18.997-10.456,19.046-23.081
		c0.072-18.497,0.009-36.994,0.035-55.491c0.002-1.623-0.329-3.298,0.403-5.048C921.221,63.047,928.798,63.047,936.24,63.047z"/>
	<path style="fill:#213A69;" d="M1047.775,150.419c2.995-6.123,5.967-12.199,8.898-18.192c1.783-0.205,2.538,1.12,3.549,1.872
		c8.671,6.449,18.192,10.894,28.928,12.598c4.183,0.664,8.32,0.451,12.349-0.752c3.677-1.098,6.677-3.126,7.394-7.272
		c0.717-4.147-1.409-7.071-4.543-9.303c-3.144-2.239-6.84-3.315-10.498-4.449c-8.072-2.501-16.384-4.297-24.036-8.044
		c-8.042-3.937-13.888-9.814-15.476-18.91c-2.481-14.211,4.5-26.336,17.939-32.077c9.303-3.974,19.028-4.562,28.872-3.706
		c10.291,0.895,22.675,4.382,32.098,11.094c-2.839,6.158-5.718,12.406-8.518,18.479c-1.789,0.662-2.785-0.518-3.886-1.109
		c-7.219-3.877-14.838-6.653-22.866-8.216c-4.273-0.832-8.609-0.926-12.828,0.491c-6.942,2.332-8.288,9.12-2.761,13.956
		c3.076,2.691,6.873,3.977,10.664,5.217c7.25,2.371,14.734,4.045,21.753,7.105c6.675,2.91,12.722,6.724,16.153,13.459
		c6.253,12.274,3.437,29.536-11.272,38.149c-5.985,3.504-12.552,5.437-19.369,5.98c-18.791,1.498-35.855-3.319-50.908-14.834
		C1048.896,151.563,1048.459,151.067,1047.775,150.419z"/>
	<path style="fill:#78BD46;" d="M1553.711,80.07c-4.7,5.391-9.268,10.63-13.985,16.04c-3.21-3.102-6.243-6.095-9.865-8.502
		c-11.213-7.454-31.823-7.267-42.804,6.825c-2.735,3.511-4.569,7.398-5.32,11.662c-2.787,15.826,1.684,30.62,16.964,37.109
		c12.594,5.348,24.387,2.878,34.824-5.831c1.627-1.357,2.746-3.323,4.186-5.115c5.38,5.579,10.063,10.435,14.98,15.534
		c-3.111,4.419-7.423,8.059-12.119,11.096c-9.879,6.388-20.683,9.111-32.589,8.393c-12.211-0.736-23.106-4.339-32.509-12.162
		c-11.329-9.425-17.35-21.578-18.277-36.268c-0.751-11.891,1.098-23.184,7.774-33.339c9.524-14.486,22.834-22.783,40.143-24.616
		C1526.44,58.636,1542.967,67.281,1553.711,80.07z"/>
	<path style="fill:#79BD47;" d="M1312.65,165.924c-10.104,0-20.006,0-30.149,0c0-45.264,0-90.301,0-135.628
		c9.99,0,19.903,0,30.149,0C1312.65,75.267,1312.65,120.295,1312.65,165.924z"/>
	<path style="fill:#233B69;" d="M1171.557,82.825c-10.835,0-20.923,0-31.269,0c-0.276-6.799-0.287-13.202,0.001-19.803
		c28.729,0,57.149,0,85.884,0c0,6.512,0,12.907,0,19.662c-10.145,0-20.251,0-31.092,0c-0.021,27.883-0.014,55.42-0.016,83.235
		c-7.971,0-15.545,0-23.509,0C1171.557,138.41,1171.557,110.984,1171.557,82.825z"/>
	<path style="fill:#253C6A;" d="M458.812,166.019c-7.742,0-15.201,0-22.649,0c-0.966-3.47-1.265-95.243-0.312-102.916
		c7.534,0,15.108,0,22.961,0C458.812,97.268,458.812,131.354,458.812,166.019z"/>
	<path style="fill:#79BD47;" d="M1593.174,154.702c-0.124,7.245-6.408,13.236-13.582,12.948
		c-7.168-0.287-12.601-6.118-12.508-13.424c0.092-7.248,5.874-12.996,12.969-12.895
		C1587.461,141.436,1593.299,147.385,1593.174,154.702z"/>
	<path style="fill:#8AC45B;" d="M1570.099,54.522c-1.925,0.713-3.064,0.526-4.422,0.346c-0.999-4.023,0.035-8.175-0.611-12.201
		c-1.163-1.321-2.895-0.228-4.214-1.054c-0.853-0.969-0.774-2.011,0.01-3.313c4.453,0,9.011,0,13.418,0
		c0.958,1.046,0.715,2,0.454,2.951c-1.15,1.342-2.91,0.219-4.635,1.368C1570.099,46.346,1570.099,50.41,1570.099,54.522z"/>
</g>
</svg>
