<?xml version="1.0" encoding="iso-8859-1"?>
<!-- Generator: Adobe Illustrator 27.0.0, SVG Export Plug-In . SVG Version: 6.00 Build 0)  -->
<svg version="1.1" id="Layer_1" xmlns="http://www.w3.org/2000/svg" xmlns:xlink="http://www.w3.org/1999/xlink" x="0px" y="0px"
	 viewBox="0 0 1581 376" style="enable-background:new 0 0 1581 376;" xml:space="preserve">
<g>
	<path style="fill:#212A45;" d="M1139,376c-83,0-166,0-249,0c-3.343-2.716-4.003-6.246-3.999-10.441
		c0.095-108.798,0.075-217.597,0.075-326.395c0-1.911,0-3.821,0-6.735c-21.832,21.25-42.905,41.761-64.71,62.985
		c-31.292,0-63.536,0-95.638,0c-0.812,2.257-0.486,4.1-0.486,5.904c-0.02,88.305-0.043,176.61,0.053,264.915
		c0.004,4.116-0.758,7.431-4.293,9.767c-40,0-80,0-120,0c-3.475-2.045-5.165-5.001-4.702-9.095c0.093-0.822,0.011-1.665,0.011-2.498
		c0-88.303-0.001-176.606-0.001-264.909c0-1.767,0-3.535,0-5.315c-51.311,0-102.032,0-153.127,0c0,2.075,0,3.875,0,5.674
		c0,87.803,0,175.606-0.001,263.409c0,1.499,0.058,3.003-0.031,4.497c-0.217,3.641-2.005,5.85-5.598,6.618
		c-1.602,0.342-3.304,0.291-4.961,0.292c-35.821,0.014-71.642,0.011-107.463,0.01c-1.166,0-2.34,0.074-3.497-0.027
		c-4.792-0.418-7.15-2.901-7.359-7.733c-0.065-1.497-0.016-2.999-0.016-4.498c0-62.312,0.004-124.624-0.021-186.936
		c-0.001-1.752,0.346-3.566-0.302-5.302c-1.528,0.167-2.034,1.353-2.8,2.153c-18.772,19.616-37.593,39.186-56.197,58.96
		c-2.575,2.737-5.114,3.661-8.694,3.652c-37.154-0.093-74.308-0.057-111.461-0.057c-1.791,0-3.581,0-5.779,0
		c0,2.178,0,3.971,0,5.764c0,41.819-0.057,83.638,0.091,125.456c0.015,4.116-0.913,7.334-4.091,9.881c-40,0-80,0-120,0
		c-1.66-1.304-3.763-2.189-4.306-4.55c0.102-1.988,0.292-3.977,0.292-5.965C1.001,247.141,1,128.797,0.99,10.453
		c0-1.988,0.229-3.999-0.354-5.956C0.763,2.254,3.352,1.854,4,0c40.333,0,80.667,0,121,0c3.179,2.384,4.088,5.517,4.077,9.488
		c-0.122,41.975-0.076,83.951-0.076,125.926c0,1.787,0,3.573,0,5.39c63.008,0,125.538,0,188.325,0c0-2.102,0-3.913,0-5.724
		c0.001-41.476,0.046-82.952-0.067-124.427C317.247,6.497,317.851,2.887,321,0c40.333,0,80.667,0,121,0
		c3.265,2.064,4.339,5.011,4.305,8.854c-0.142,16.156-0.059,32.314-0.059,48.471c0,1.362,0,2.723,0,4.238
		c1.767-0.506,2.445-1.506,3.264-2.301c15.651-15.197,31.276-30.422,46.95-45.595C501.239,9.041,506.15,4.552,511,0
		c166.667,0,333.333,0,500,0c3.168,2.393,4.069,5.525,4.065,9.495c-0.097,88.315-0.074,176.631-0.074,264.947c0,1.96,0,3.92,0,5.966
		c62.977,0,125.502,0,188.321,0c0-2.174,0-3.994,0-5.813c0-87.982,0.023-175.965-0.066-263.947
		C1203.242,6.489,1203.819,2.873,1207,0c124.667,0,249.333,0,374,0c0,1.667,0,3.333,0,5c-1.263,1.499-2.309,3.139-3.741,4.543
		c-29.019,28.438-57.984,56.93-87.437,85.88c-52.121,0-104.683,0-157.107,0c-0.769,2.282-0.463,4.124-0.464,5.931
		c-0.018,88.298-0.039,176.596,0.055,264.893c0.004,4.109-0.735,7.44-4.306,9.753c-40,0-80,0-120,0
		c-3.769-2.112-4.797-5.373-4.752-9.576c0.169-15.959,0.081-31.921,0.046-47.882c-0.003-1.395,0.429-2.899-0.496-4.203
		c-1.22,0.146-1.693,1.131-2.381,1.796c-7.051,6.815-14.092,13.641-21.111,20.49C1165.861,349.741,1152.434,362.874,1139,376z"/>
	<path style="fill:#44465D;" d="M0.635,4.497c0.583,1.957,0.354,3.968,0.354,5.956C1,128.797,1.001,247.141,0.987,365.484
		c0,1.988-0.191,3.977-0.292,5.965C0.342,371.486,0.111,371.336,0,371C0,249,0,127,0,5C0.09,4.678,0.301,4.51,0.635,4.497z"/>
	<path style="fill:#D9D7DC;" d="M0,371c0.111,0.336,0.342,0.486,0.694,0.45C1.237,373.811,3.34,374.696,5,376c-1.667,0-3.333,0-5,0
		C0,374.333,0,372.667,0,371z"/>
	<path style="fill:#DCDADF;" d="M0.635,4.497C0.301,4.51,0.09,4.678,0,5c0-1.667,0-3.333,0-5c1.333,0,2.667,0,4,0
		C3.352,1.854,0.763,2.254,0.635,4.497z"/>
	<path style="fill:#222B46;" d="M1445.286,234.899c-27.484,0-54.967,0-82.451,0c-0.999,0-1.999-0.021-2.998,0.003
		c-2.432,0.061-4.818-0.156-5.81-2.821c-0.956-2.569,0.506-4.495,2.217-6.18c9.495-9.348,19.016-18.669,28.521-28.006
		c18.298-17.974,36.591-35.952,54.888-53.927c0.713-0.7,1.419-1.41,2.172-2.065c3.101-2.699,4.722-2.759,7.714,0.112
		c5.527,5.304,10.953,10.712,16.407,16.09c22.297,21.984,44.59,43.973,66.884,65.96c0.948,0.935,1.858,1.912,2.84,2.81
		c1.516,1.386,2.063,3.029,1.261,4.94c-0.765,1.822-2.203,2.906-4.199,3.052c-1.326,0.097-2.664,0.03-3.996,0.03
		C1500.919,234.9,1473.102,234.899,1445.286,234.899z"/>
</g>
</svg>
