<?xml version="1.0" encoding="iso-8859-1"?>
<!-- Generator: Adobe Illustrator 27.0.0, SVG Export Plug-In . SVG Version: 6.00 Build 0)  -->
<svg version="1.1" id="Layer_1" xmlns="http://www.w3.org/2000/svg" xmlns:xlink="http://www.w3.org/1999/xlink" x="0px" y="0px"
	 viewBox="0 0 1498.913 280.299" style="enable-background:new 0 0 1498.913 280.299;" xml:space="preserve">
<g>
	<path style="fill:#96999A;" d="M0,0.103c28.79,0,57.58,0,86.685,0c0,93.315,0,186.331,0,280c-28.866,0-57.775,0-86.685,0
		C0,186.769,0,93.436,0,0.103z"/>
	<path style="fill:#97999A;" d="M1386.542,279.783c-23.672-28.634-47.336-57.258-71.454-86.431
		c-12.785,14.432-24.303,29.161-36.317,43.464c-12.056,14.353-23.984,28.814-35.915,43.164c-57.095,0-113.913,0-171.146,0
		c-23.579-28.519-47.349-57.269-71.609-86.612c-12.76,14.326-24.248,29.063-36.249,43.359
		c-12.056,14.361-23.993,28.821-35.979,43.233c-136.487,0-272.794,0-409.097,0c-1.032-3.674-1.482-110.602-0.497-123.519
		c27.694,0,55.416,0,83.653,0c0,18.728,0,37.456,0,56.511c72.116,0,143.719,0,216.054,0c0.027,7.563,0.01,14.818,0.013,22.072
		c0.003,7.166,0.001,14.333,0.001,21.499c0,7.327,0,14.655,0,22.488c3.094-2.024,5.184-4.548,7.268-6.953
		c5.116-5.902,10.355-11.687,15.601-17.473c10.04-11.075,19.861-22.35,29.857-33.466c3.779-4.202,7.703-8.268,11.444-12.516
		c7.581-8.609,15.489-16.928,23.18-25.442c6.897-7.634,13.683-15.368,20.436-22.967c49.723,0,99.208,0,149.275,0
		c27.346,30.373,54.908,60.986,82.731,91.889c27.308-30.567,54.638-61.159,82.049-91.842c49.953,0,99.932,0,150.359,0
		c10.795,11.919,21.806,24.111,32.859,36.264c4.14,4.552,8.487,8.902,12.577,13.515c8.825,9.954,18.021,19.58,27.029,29.372
		c11.031,11.991,22.036,24.005,33.018,36.041c1.103,1.208,1.967,2.634,3.229,4.348
		C1461.36,279.783,1424.189,279.783,1386.542,279.783z"/>
	<path style="fill:#97999B;" d="M818.001,0.4c1.325-0.099,2.649-0.285,3.974-0.285c34.491-0.016,68.982-0.012,103.473-0.012
		c0.659,0,1.317,0,2.485,0c23.732,28.702,47.589,57.554,71.819,86.858c24.73-29.335,48.982-58.101,73.115-86.729
		c56.733,0,113.036,0,170.173,0c23.514,28.442,47.383,57.313,71.733,86.765c24.305-29.238,48.234-58.023,72.105-86.739
		c36.445,0,72.568,0,108.606,0c0.692,1.071,0.006,1.674-0.517,2.253c-6.797,7.524-13.647,15-20.41,22.555
		c-13.293,14.852-26.522,29.761-39.818,44.61c-3.325,3.713-6.799,7.284-10.101,11.03c-10.219,11.595-20.713,22.948-31.094,34.399
		c-0.56,0.618-1.073,1.277-1.557,1.856c-51.55,0-102.847,0-154.421,0c-9.355-10.565-18.778-21.276-28.288-31.909
		c-3.656-4.088-7.488-8.01-11.127-12.124c-10.351-11.7-21.005-23.131-31.405-34.789c-2.752-3.085-5.24-6.394-8.82-9.462
		c-2.412,2.451-4.79,4.711-6.987,7.134c-4.797,5.288-9.482,10.677-14.248,15.994c-11.531,12.866-23.092,25.706-34.619,38.576
		c-2.993,3.342-6.203,6.467-9.097,9.924c-4.797,5.73-10.054,11.076-15.169,16.641c-51.683,0-103.312,0-155.384,0
		c-2.915-3.659-6.452-7.161-9.749-10.866c-11.375-12.785-22.72-25.594-34.227-38.263c-8.935-9.838-17.629-19.895-26.622-29.689
		c-10.672-11.622-21.04-23.524-31.553-35.292c-0.646-0.723-1.175-1.644-2.288-1.791C817.994,0.831,818,0.616,818.001,0.4z"/>
	<path style="fill:#97999A;" d="M206.069,160.483c0,15.888,0,31.49,0,47.041c1.857,0.951,3.542,0.558,5.153,0.558
		c46.478,0.022,92.96,0.368,139.431-0.215c12.777-0.16,25.623-2.789,36.647-10.393c7.164-4.942,12.393-11.293,14.97-19.824
		c1.337-4.426,3.266-8.639,2.753-13.426c-0.169-1.576,0.687-2.814,1.638-3.897c27.676,0,55.27,0,83.33,0
		c-0.394,6.619,0.909,13.03-0.796,19.4c-0.21,0.784-0.146,1.644-0.19,2.469c-1.21,22.264-8.177,42.188-23.342,58.993
		c-11.603,12.859-25.844,21.548-41.77,27.853c-10.735,4.25-21.968,6.706-33.225,8.82c-3.941,0.74-8.187,0.918-12.259,1.368
		c-16.425,1.814-32.871,0.759-49.296,0.801c-66.968,0.17-133.936,0.071-200.905,0.071c-1.822,0-3.644,0-5.415,0
		c-1.037-3.905-1.464-106.96-0.544-119.317C125.87,159.926,196.843,159.612,206.069,160.483z"/>
	<path style="fill:#97999A;" d="M489.566,117.922c-27.597,0-55.061,0-82.825,0c-1.054-0.965-1.679-2.343-1.764-4.105
		c-0.23-4.766-1.223-9.312-2.834-13.885c-4.859-13.791-15.072-21.54-28.368-25.64c-6.562-2.023-13.488-2.615-20.371-3.42
		c-8.982-1.051-17.898-0.68-26.83-0.711c-38.498-0.135-76.996-0.058-115.495-0.058c-1.811,0-3.621,0-5.943,0
		c0,15.663,0,31.059,0,46.724c-28.234,0-55.956,0-83.907,0c0-38.798,0-77.401,0-116.064c1.229-1.188,2.81-0.633,4.231-0.633
		c78.663-0.03,157.326-0.026,235.989-0.026c6.909,1.99,14.092,0.447,21.138,1.785c5.437,1.032,11.074,1.385,16.617,2.122
		c2.987,0.397,5.699,1.577,8.579,2.251c14.925,3.494,29.039,9.235,41.494,18.172c10.705,7.682,19.937,17.001,26.726,28.563
		c5.929,10.099,9.531,21.039,11.703,32.373c0.88,4.591,1.584,9.405,1.373,14.261C488.823,105.544,490.979,111.403,489.566,117.922z"
		/>
	<path style="fill:#96999A;" d="M818.001,0.4c-0.001,0.216-0.007,0.431-0.018,0.646c0,21.14,0,42.279,0,63.923
		c-71.99,0-143.708,0-215.936,0c0,17.555,0,34.616,0,51.901c-28.113,0-55.715,0-83.682,0c0-38.687,0-77.407,0-116.233
		c1.04-0.978,2.442-0.512,3.708-0.513c97.322-0.024,194.644-0.023,291.967-0.01C815.359,0.115,816.68,0.301,818.001,0.4z"/>
	<path style="fill:#EF463E;" d="M631.134,163.804c0-16.557,0-32.831,0-49.403c60.827,0,121.535,0,182.554,0
		c0,16.318,0,32.71,0,49.403C753.039,163.804,692.331,163.804,631.134,163.804z"/>
</g>
</svg>
