<?xml version="1.0" encoding="iso-8859-1"?>
<!-- Generator: Adobe Illustrator 27.0.0, SVG Export Plug-In . SVG Version: 6.00 Build 0)  -->
<svg version="1.1" id="Layer_1" xmlns="http://www.w3.org/2000/svg" xmlns:xlink="http://www.w3.org/1999/xlink" x="0px" y="0px"
	 viewBox="0 0 459 145" style="enable-background:new 0 0 459 145;" xml:space="preserve">
<g>
	<path style="fill:#4C57A5;" d="M82,0c0.974,3.774,3.763,6.435,5.835,9.537c8.498,12.725,16.914,25.505,25.492,38.176
		c17.248,25.478,34.583,50.897,52.204,76.815c-5.04,5.212-9.966,10.306-15.336,15.86c-9.203-11.63-18.244-23.056-26.868-33.954
		c-7.031,6.506-13.827,12.794-21.156,19.575c-2.937-2.886-5.984-6.387-9.194-10.178c-4.114,2.883-6.258,7.495-9.69,11.296
		c-4.404-3.513-6.542-9.081-11.412-12.366c-2.88,4.201-5.638,8.223-8.607,12.552c-7.376-6.459-14.564-12.754-22.083-19.338
		C32.787,120.322,24.393,132.661,16,145c-0.333,0-0.667,0-1,0c-4.274-5.726-9.738-10.262-15-15c0-0.333,0-0.667,0-1
		c1.089-0.216,1.501-1.096,2.023-1.938c6.914-11.169,13.868-22.312,20.782-33.48c7.861-12.697,15.675-25.424,23.542-38.117
		c8.393-13.542,16.895-27.018,25.202-40.613C74.516,9.996,78,5.413,80,0C80.667,0,81.333,0,82,0z M65.135,79.417
		c-0.079,2.946-0.079,2.946,1.726,5.068c-0.685,3.892-1.371,7.783-1.955,11.101c-0.857,1.724-2.182,0.554-3.204,1.676
		c-1.079,2.075-2.177,4.568-2.723,7.547c14.909,0,29.524,0,44.494,0c-1.628-3.49-0.951-8.156-6.226-8.568
		c-0.359-4.223-1.7-8.051-1.368-12.234c0.61-0.567,1.305-1.212,2.212-2.053c-0.807-0.918,0.097-2.727-1.94-3.002
		c-1.783-0.241-1.833-1.804-2.016-3.025c-1.104-7.368-2.106-14.751-3.141-22.116c1.646-0.885,2.63-1.999,1.724-3.884
		c-0.692-0.785-2.043-0.323-2.492-1.315c-0.777-4.487-1.534-8.862-2.246-12.979c-1.217-1.137-2.549-0.274-3.607-0.932
		c-1.058-1.637-2.138-3.308-3.653-5.653c-1.02,3.867-2.335,6.64-6.194,5.969c-1.667,4.675-1.149,9.46-2.74,13.874
		c-0.807,0.595-2.426-0.03-2.606,1.598c-0.09,0.81-0.347,1.872,0.5,2.268c2.75,1.286,1.224,3.578,1.074,5.248
		c-0.174,1.942-0.589,3.913-0.866,5.884c-0.667,4.747-1.502,9.471-2.281,14.276C67.147,79.17,65.778,78.633,65.135,79.417z"/>
	<path style="fill:#868880;" d="M459,80c-0.366-0.047-0.731-0.093-1.097-0.14c0.059-6.312,0.118-12.625,0.177-18.937
		c0.307,0.018,0.614,0.043,0.92,0.077C459,67.333,459,73.667,459,80z"/>
	<path style="fill:#282725;" d="M184.259,60.316c2.581,0,4.7,0,7.005,0c1.033,2.028,1.535,4.247,2.025,6.501
		c2.478-1.461,1.308-4.562,3.093-6.482c2.161-0.361,4.454-0.24,7.114-0.022c0,6.428,0,12.785,0,19.181
		c-1.7,0.782-3.29,0.571-4.886,0.245c-1.245-1.683-0.107-3.654-0.947-5.621c-1.491,1.653-1.32,3.894-2.379,5.484
		c-1.155,0.616-2.305,0.374-3.448,0.253c-1.523-1.175-0.953-3.414-2.289-4.768c-1.126,1.384-0.079,3.024-0.946,4.424
		c-1.282,0.922-2.697,0.299-4.343,0.341C184.259,73.32,184.259,67.078,184.259,60.316z"/>
	<path style="fill:#2A2A28;" d="M458.08,60.923c-0.059,6.312-0.118,12.625-0.177,18.937c-1.47,0.106-2.95,0.396-4.371-0.197
		c-1.115-1.383,0.023-3.234-0.907-4.622c-2.576,0.73-0.934,3.445-2.486,4.648c-1.034,0.509-2.181,0.311-3.358,0.149
		c-1.375-1.249-1.163-3.333-2.391-4.725c-1.029,1.278-0.086,2.916-0.934,4.308c-1.252,0.99-2.697,0.573-4.626,0.238
		c-0.927-6.305-0.329-12.651-0.408-18.908c2.894-1.026,5.161-0.404,7.194-0.63c1.766,2.218,1.614,4.725,2.892,6.99
		c0.869-2.32,1.651-4.406,2.513-6.705C453.426,60.291,455.799,59.327,458.08,60.923z"/>
	<path style="fill:#2A2A28;" d="M360.525,73.008c-1.17,2.18,0.043,4.434-0.924,6.543c-1.489,0.81-3.111,0.437-5.426,0.142
		c-0.055-6.322-0.092-12.693,0.049-19.552c3.191,0,5.989-0.144,8.767,0.031c5.422,0.342,8.008,5.224,5.337,9.873
		c-0.402,0.699-1.298,1.082-1.301,2.036c0.647,1.691,1.344,3.362,1.911,5.077c0.244,0.738,0.881,1.437,0.435,2.404
		c-1.69,0.805-3.509,0.364-5.353,0.304C362.142,78.028,363.05,74.693,360.525,73.008z M363.602,66.64
		c-1.043-1.534-2.147-1.652-3.396-0.859c-0.272,0.709-0.474,1.32,0.112,2.079C361.476,68.276,362.667,68.479,363.602,66.64z"/>
	<path style="fill:#2A2A28;" d="M255.43,79.56c-1.834,0.757-3.642,0.399-5.39,0.287c-1.908-1.864-1.013-5.234-3.905-6.845
		c-0.108,2.362-0.203,4.46-0.305,6.705c-1.882,0.428-3.467,0.323-5.376,0.015c0-6.349,0-12.593,0-19.114
		c2.754-1.023,5.766-0.54,8.659-0.401c5.399,0.26,7.871,5.216,5.142,9.911c-0.328,0.565-0.826,1.031-1.348,1.669
		C253.684,74.331,255.445,76.655,255.43,79.56z M245.966,67.848c1.767,0.368,3.069,0.592,3.552-1.199
		C246.89,64.996,246.89,64.996,245.966,67.848z"/>
	<path style="fill:#343532;" d="M420.68,60.425c2.267-0.359,3.722-0.555,5.397,0.176c1.509,4.491-0.243,9.421,1.078,14.135
		c2.409,0.443,2.96-0.832,2.954-2.739c-0.01-3.628-0.003-7.255-0.003-10.376c1.592-1.86,3.03-1.631,5.166-1.133
		c0.609,5.56,0.899,11.195-0.449,16.624c-2.853,3.669-6.602,3.191-10.2,2.713c-2.143-0.285-3.556-2.077-3.925-4.058
		C419.763,70.727,419.71,65.641,420.68,60.425z"/>
	<path style="fill:#343532;" d="M417.594,60.148c0.512,2.15,0.602,3.61,0.067,5.185c-2.235,1.276-4.863-0.016-7.589,0.976
		c1.826,1.475,3.846,0.307,5.518,1.053c1.451,1.265,1.273,2.831,0.747,4.393c-1.689,1.957-4.366-0.08-6.251,1.866
		c2.391,1.629,5.191-0.094,7.583,1.19c0.572,1.499,0.474,3.076-0.027,4.93c-4.266,0-8.513,0-13.325,0
		c0.055-6.412-0.09-12.782,0.123-19.223C409.176,59.756,413.262,60.249,417.594,60.148z"/>
	<path style="fill:#2D2D2A;" d="M237.622,60.294c0.261,2.059,0.49,3.527-0.127,5.103c-2.238,1.153-4.854-0.122-8.299,1.265
		c2.757,0.333,4.502,0.544,6.196,0.749c1.045,1.695,0.461,3.263,0.456,4.596c-1.917,1.429-4.265-0.372-5.88,1.612
		c2.268,1.649,5.039-0.111,7.218,1.292c1.294,1.502,0.472,3.059,0.503,4.841c-4.6,0-8.839,0-13.383,0c0-6.334,0-12.572,0-19.419
		C228.561,59.963,232.927,60.092,237.622,60.294z"/>
	<path style="fill:#2E2E2C;" d="M379.646,80.04c-5.01,0.181-7.3-2.604-8.287-8.604c-0.655-3.982,0.67-7.491,3.94-10.065
		c2.747-2.163,6.394-1.915,8.964,0.547c3.932,3.766,4.412,10.126,1.352,14.877C384.12,79.118,382.247,80.266,379.646,80.04z
		 M379.387,75.375c2.809-3.191,2.133-6.28,1.257-9.293c-1.291-0.557-2.436-0.418-2.632,0.732
		C377.554,69.5,376.838,72.317,379.387,75.375z"/>
	<path style="fill:#282725;" d="M325.081,60.342c3.931-0.33,7.863-0.314,11.795-0.012c0.062,1.587,0.124,3.175,0.186,4.762
		c-2.039,1.872-4.866-0.234-7.022,1.4c1.573,1.359,3.594,0.087,5.35,1.045c1.256,1.355,0.275,3.015,0.525,4.438
		c-1.876,1.364-4.144-0.088-6.047,1.424c2.351,2.126,5.422-0.131,7.591,1.807c0.75,1.316,0.313,2.742,0.17,4.455
		c-4.399,0.637-8.655,0.245-13.403,0.231c0-6.362,0-12.594,0-18.826C324.663,61.005,324.996,60.82,325.081,60.342z"/>
	<path style="fill:#2D2D2A;" d="M277.452,60.362c1.827,6.316,3.639,12.582,5.424,18.753c-1.727,1.405-3.442,0.693-5.018,0.852
		c-2.268-2.869-2.268-2.869-4.851-3.275c-1.481,0.418-1.237,2.222-2.455,3.07c-1.311,0.527-2.726,0.147-4.672,0.051
		c1.407-6.798,3.586-12.946,5.595-19.275C273.378,59.853,275.31,60.09,277.452,60.362z"/>
	<path style="fill:#2A2A28;" d="M313.128,74.036c-0.088,1.791-0.176,3.574-0.272,5.521c-1.884,0.667-3.606,0.45-5.59,0.229
		c0-6.451,0-12.681,0-19.14c3.134-0.888,6.258-0.697,9.31-0.258c3.333,0.479,5.217,2.852,5.389,6.157
		c0.163,3.122-1.668,5.533-4.924,6.454C315.795,73.35,314.538,73.663,313.128,74.036z"/>
	<path style="fill:#2A2A28;" d="M207.341,60.238c3.238,0,5.901-0.199,8.523,0.047c3.741,0.351,5.788,2.553,6.081,6.035
		c0.28,3.338-1.547,5.708-5.177,6.691c-1.111,0.301-2.15,0.882-3.278,0.702c-0.987,1.871-0.136,3.77-0.744,5.682
		c-1.538,1.103-3.328,0.495-5.405,0.425C207.341,73.38,207.341,67.03,207.341,60.238z"/>
	<path style="fill:#343532;" d="M338.969,60.945c0.209-0.237,0.415-0.678,0.626-0.68c3.969-0.041,7.939-0.03,11.896-0.03
		c1.659,1.574,1.387,3.253,0.875,4.411c-1.051,1.749-2.65,0.759-3.494,1.96c-0.759,4.218,0.591,8.749-0.802,12.954
		c-1.686,0.674-3.141,0.489-4.912,0.23c-1.787-4.194-0.266-8.726-0.985-13.127c-0.539-1.448-2.639-0.058-3.203-1.609
		C338.968,63.684,338.969,62.315,338.969,60.945z"/>
	<path style="fill:#343532;" d="M296.765,75.367c0.457,1.323,0.234,2.63,0.059,4.217c-3.833,0.82-7.725,0.379-12.025,0.245
		c-0.919-6.492-0.311-12.821-0.45-18.864c2.224-1.19,3.807-0.963,5.887-0.434c0.984,4.223,0.062,8.7,0.554,12.996
		C292.476,75.147,294.863,73.55,296.765,75.367z"/>
	<path style="fill:#2D2D2A;" d="M401.948,74.558c0.987,2.141,0.933,3.678-0.259,5.222c-3.677,0-7.421,0-11.423,0
		c0-6.425,0-12.641,0-19.006c1.608-1.053,3.336-0.63,5.486-0.394c0,4.562,0,8.964,0,13.719
		C398.012,74.267,399.906,74.407,401.948,74.558z"/>
	<path style="fill:#2E2E2C;" d="M175.123,80.08c0-6.873,0-13.145,0-19.447c1.532-0.808,2.969-0.517,4.281-0.333
		c1.527,1.049,1.846,8.549,0.916,19.303C178.841,80.406,177.184,79.777,175.123,80.08z"/>
	<path style="fill:#343532;" d="M263.713,79.637c-1.8,0.532-3.373,0.575-4.931,0.037c-0.837-6.025-0.64-15.792,0.386-19.182
		c1.408-0.583,2.829-0.569,4.545,0.123C263.713,66.763,263.713,72.992,263.713,79.637z"/>
	<path style="fill:#6A6762;" d="M338.969,60.945c0,1.37,0,2.739-0.001,4.109c-0.635,0.013-1.271,0.026-1.906,0.038
		c-0.062-1.587-0.124-3.175-0.186-4.762C337.574,60.535,338.271,60.74,338.969,60.945z"/>
	<path style="fill:#6A6762;" d="M325.081,60.342c-0.086,0.477-0.418,0.663-0.856,0.725
		C324.173,60.427,324.416,60.135,325.081,60.342z"/>
	<path style="fill:#DDDE26;" d="M65.135,79.417c0.642-0.784,2.011-0.247,2.474-1.251c0.779-4.806,1.613-9.529,2.281-14.276
		c0.277-1.971,0.692-3.942,0.866-5.884c0.15-1.67,1.676-3.962-1.074-5.248c-0.847-0.396-0.59-1.458-0.5-2.268
		c0.18-1.628,1.799-1.003,2.606-1.598c1.591-4.414,1.073-9.199,2.74-13.874c3.859,0.67,5.174-2.103,6.194-5.969
		c1.515,2.345,2.595,4.016,3.653,5.653c1.059,0.658,2.39-0.205,3.607,0.932c0.713,4.117,1.47,8.492,2.246,12.979
		c0.448,0.991,1.799,0.53,2.492,1.315c0.906,1.885-0.078,2.999-1.724,3.884c1.034,7.365,2.037,14.748,3.141,22.116
		c0.183,1.221,0.233,2.785,2.016,3.025c2.037,0.275,1.133,2.084,1.94,3.002c-0.906,0.841-1.601,1.487-2.212,2.053
		c-0.332,4.183,1.009,8.01,1.368,12.234c5.275,0.412,4.599,5.078,6.226,8.568c-14.97,0-29.585,0-44.494,0
		c0.546-2.979,1.644-5.472,2.723-7.547c1.021-1.122,2.347,0.048,3.204-1.676c0.584-3.318,1.27-7.209,1.954-11.102
		C65.056,82.363,65.056,82.363,65.135,79.417z M93.187,84.652c-3.564,1.724-6.647,3.215-9.98,4.827
		c3.87,2.154,7.406,4.285,12.228,5.798C93.89,91.527,94.285,88.314,93.187,84.652z M78.3,89.593
		c-2.986-1.94-5.894-3.291-8.905-4.578c-1.408,2.973-1.756,5.806-1.231,9.044C72.115,93.651,74.942,91.401,78.3,89.593z
		 M90.749,67.78c-2.713,1.616-5.056,3.011-7.67,4.568c3.081,1.708,5.766,3.197,8.623,4.782
		C92.564,73.714,90.882,71.042,90.749,67.78z M79.705,72.057c-3.469-1.171-5.398-3.267-8.72-4.103
		c0.332,3.215-0.495,6.019-0.927,9.491C73.251,75.661,75.924,74.168,79.705,72.057z M82.021,42.411
		c0.371,2.451-0.538,4.707,0.633,6.804c1.993,0.732,3.682,0.891,5.339-0.623c-0.416-2.068-0.827-4.109-1.23-6.112
		C85.349,41.885,84.073,41.993,82.021,42.411z M79.905,42.478c-1.473-0.328-2.942-0.903-4.807,0.317
		c-0.207,1.867-0.199,3.965-0.977,5.877c3.01,1.028,3.01,1.028,5.784-0.008C79.905,46.757,79.905,44.798,79.905,42.478z
		 M79.789,91.116c-3.671,1.912-7.204,3.145-10.356,5.535c3.578,0,6.833,0,10.01,0C80.408,94.86,80.058,93.253,79.789,91.116z
		 M79.694,58.008c-2.699-1.147-3.901-3.148-6.649-3.46c0.365,2.78-0.747,5.362-0.797,8.252
		C74.853,61.632,76.902,60.036,79.694,58.008z M82.508,91.838c-0.527,1.613-0.824,2.985,0.38,4.551
		c2.739,0.579,5.668,0.565,8.675,0.132C88.809,94.417,85.938,92.756,82.508,91.838z M90.102,62.717
		c-0.514-3.025-0.944-5.553-1.416-8.33c-2.003,1.351-4.293,1.933-5.454,4.168C85.552,59.707,87.096,61.828,90.102,62.717z
		 M71.024,83.217c2.735,2.575,5.758,3.38,8.576,4.921c0.669-1.842,0.755-3.356-0.011-4.921
		C76.816,83.217,74.237,83.217,71.024,83.217z M82.439,87.583c3.109-1.04,5.746-2.222,8.202-4.283c-2.923,0-5.518,0-8.238,0
		C82.026,84.781,81.844,86.039,82.439,87.583z M82.534,78.833c2.465,0,4.721,0,6.978,0c-2.204-1.767-4.122-3.971-7.167-4.25
		C81.995,76.047,81.991,77.186,82.534,78.833z M79.724,74.174c-2.687,1.379-5.172,2.378-7.375,4.813
		c2.817-0.101,5.096,0.344,7.249-0.296C80.239,77.221,80.102,75.944,79.724,74.174z M79.456,60.469
		c-1.412,1.106-3.235,1.64-4.367,3.466c1.781,0.239,3.208,0.434,4.585-0.096C80.174,62.689,80.262,61.651,79.456,60.469z
		 M86.936,63.87c-0.966-1.964-2.96-2.338-4.505-3.41c-0.385,1.226-0.599,2.299,0.122,3.368C83.951,64.382,85.355,64.26,86.936,63.87
		z M82.771,70.06c1.734-0.572,3.468-1.285,5.091-3.045c-2.049,0.166-3.837-0.645-5.445,0.556
		C82.064,68.433,81.931,69.206,82.771,70.06z M79.629,67.287c-1.411,0-2.835,0-4.259,0c1.36,1.256,2.526,2.577,4.295,2.658
		C80.128,68.846,80.201,68.087,79.629,67.287z M86.091,53.319c-1.438-0.432-2.553-0.632-3.549,0.112
		c-0.605,0.818-0.586,1.576-0.052,2.363C83.957,55.742,84.764,54.673,86.091,53.319z"/>
	<path style="fill:#C8C6C2;" d="M363.602,66.64c-0.935,1.839-2.126,1.636-3.284,1.219c-0.586-0.759-0.385-1.369-0.112-2.079
		C361.455,64.988,362.559,65.106,363.602,66.64z"/>
	<path style="fill:#C8C6C2;" d="M245.966,67.848c0.924-2.852,0.924-2.852,3.552-1.2C249.035,68.439,247.733,68.216,245.966,67.848z"
		/>
	<path style="fill:#535CA0;" d="M93.187,84.652c1.098,3.661,0.703,6.874,2.247,10.625c-4.822-1.514-8.357-3.644-12.228-5.798
		C86.54,87.867,89.623,86.376,93.187,84.652z"/>
	<path style="fill:#535CA0;" d="M78.3,89.593c-3.358,1.808-6.184,4.058-10.136,4.466c-0.525-3.238-0.177-6.071,1.231-9.044
		C72.406,86.302,75.313,87.653,78.3,89.593z"/>
	<path style="fill:#535CA0;" d="M90.749,67.78c0.133,3.262,1.815,5.934,0.953,9.35c-2.857-1.584-5.542-3.073-8.623-4.782
		C85.693,70.791,88.036,69.396,90.749,67.78z"/>
	<path style="fill:#535CA0;" d="M79.705,72.057c-3.78,2.111-6.454,3.604-9.647,5.388c0.432-3.472,1.259-6.276,0.927-9.491
		C74.307,68.79,76.236,70.886,79.705,72.057z"/>
	<path style="fill:#59639E;" d="M82.021,42.411c2.052-0.418,3.327-0.526,4.743,0.068c0.403,2.003,0.814,4.044,1.23,6.112
		c-1.657,1.514-3.345,1.356-5.339,0.623C81.483,47.118,82.392,44.861,82.021,42.411z"/>
	<path style="fill:#58609F;" d="M79.905,42.478c0,2.32,0,4.279,0,6.186C77.13,49.7,77.13,49.7,74.12,48.673
		c0.778-1.912,0.77-4.01,0.977-5.877C76.962,41.575,78.431,42.151,79.905,42.478z"/>
	<path style="fill:#59639E;" d="M79.789,91.116c0.269,2.137,0.619,3.744-0.345,5.535c-3.177,0-6.432,0-10.01,0
		C72.585,94.26,76.118,93.028,79.789,91.116z"/>
	<path style="fill:#59639E;" d="M79.694,58.008c-2.791,2.028-4.841,3.624-7.447,4.792c0.05-2.889,1.162-5.472,0.797-8.252
		C75.792,54.86,76.994,56.861,79.694,58.008z"/>
	<path style="fill:#60689A;" d="M82.508,91.838c3.43,0.917,6.301,2.579,9.055,4.684c-3.007,0.433-5.936,0.447-8.675-0.132
		C81.684,94.823,81.981,93.452,82.508,91.838z"/>
	<path style="fill:#555F9F;" d="M90.102,62.717c-3.006-0.889-4.551-3.01-6.871-4.162c1.161-2.235,3.452-2.816,5.454-4.168
		C89.158,57.164,89.588,59.692,90.102,62.717z"/>
	<path style="fill:#60689A;" d="M71.024,83.217c3.213,0,5.792,0,8.565,0c0.766,1.566,0.68,3.08,0.011,4.921
		C76.781,86.597,73.759,85.793,71.024,83.217z"/>
	<path style="fill:#60689A;" d="M82.439,87.583c-0.594-1.544-0.413-2.801-0.036-4.283c2.719,0,5.315,0,8.238,0
		C88.185,85.36,85.548,86.542,82.439,87.583z"/>
	<path style="fill:#59639E;" d="M82.534,78.833c-0.543-1.647-0.539-2.786-0.19-4.25c3.045,0.278,4.963,2.483,7.167,4.25
		C87.255,78.833,84.999,78.833,82.534,78.833z"/>
	<path style="fill:#555F9F;" d="M79.724,74.174c0.379,1.77,0.516,3.047-0.126,4.517c-2.153,0.64-4.432,0.195-7.249,0.296
		C74.551,76.551,77.037,75.553,79.724,74.174z"/>
	<path style="fill:#555F9F;" d="M79.456,60.469c0.806,1.182,0.717,2.22,0.217,3.37c-1.376,0.53-2.803,0.336-4.585,0.096
		C76.222,62.109,78.044,61.575,79.456,60.469z"/>
	<path style="fill:#59639E;" d="M86.936,63.87c-1.581,0.389-2.985,0.511-4.383-0.041c-0.721-1.07-0.507-2.142-0.122-3.368
		C83.976,61.532,85.97,61.906,86.936,63.87z"/>
	<path style="fill:#59639E;" d="M82.771,70.06c-0.84-0.855-0.707-1.627-0.354-2.489c1.607-1.2,3.396-0.39,5.445-0.556
		C86.239,68.776,84.505,69.488,82.771,70.06z"/>
	<path style="fill:#555F9F;" d="M79.629,67.287c0.572,0.8,0.499,1.559,0.036,2.658c-1.769-0.081-2.935-1.403-4.295-2.658
		C76.794,67.287,78.218,67.287,79.629,67.287z"/>
	<path style="fill:#60689A;" d="M86.091,53.319c-1.328,1.354-2.134,2.423-3.602,2.474c-0.534-0.787-0.553-1.545,0.052-2.363
		C83.538,52.687,84.654,52.887,86.091,53.319z"/>
</g>
</svg>
