<?xml version="1.0" encoding="iso-8859-1"?>
<!-- Generator: Adobe Illustrator 27.0.0, SVG Export Plug-In . SVG Version: 6.00 Build 0)  -->
<svg version="1.1" id="Layer_1" xmlns="http://www.w3.org/2000/svg" xmlns:xlink="http://www.w3.org/1999/xlink" x="0px" y="0px"
	 viewBox="0 0 748 230" style="enable-background:new 0 0 748 230;" xml:space="preserve">
<g>
	<path style="fill:#090808;" d="M748,203c-1.654,0.095-3.308,0.272-4.962,0.274c-20.166,0.019-40.337-0.273-60.494,0.122
		c-11.657,0.228-23.282-0.393-35.378-0.074c0-49.807,0-99.38,0-149.213c-17.506,0-34.557,0-51.977,0c0,49.575,0,98.994,0,148.68
		c-10.29,0-20.219,0-30.561,0c0-49.334,0-98.74,0-148.022c-4.056-1.211-62.023-1.649-77.253-0.69
		c-23.497,26.765-47.08,53.626-70.752,80.589c-19.041-21.445-37.9-42.685-56.93-64.117c-0.371,1.123-0.12,0.106-0.655,0.504
		c-0.113,0.084-0.188,0.293-0.188,0.444c-0.008,43.63-0.008,87.26-0.008,131.224c-10.365,0-20.274,0-30.515,0
		c0-59.007,0-118.221,0-177.678c9.116,0,18.215,0,27.894,0c19.864,22.41,40.037,45.168,60.362,68.099
		c20.231-22.807,40.328-45.464,60.619-68.34c1.695,0,3.514,0,5.333,0c54.664,0,109.327-0.003,163.991,0.001
		c32.162,0.003,64.324,0.016,96.485,0.035c1.662,0.001,3.325,0.105,4.987,0.16c0,9.667,0,19.333,0,29
		c-0.822-0.088-1.644-0.253-2.466-0.254c-19.486-0.014-38.973-0.011-58.459-0.011c-2.936,0-5.873,0-8.783,0
		c0,39.857,0,79.06,0,118.423c7.124,0,13.939,0.015,20.753-0.003c16.318-0.043,32.636-0.103,48.954-0.155
		C748,182.333,748,192.667,748,203z"/>
	<path style="fill:#090808;" d="M748,128c-19.239,0-38.479,0-57.913,0c0-10.441,0-20.482,0-31c19.442,0,38.677,0,57.913,0
		C748,107.333,748,117.667,748,128z"/>
	<path style="fill:#D1235E;" d="M84.894,4.374c4.839-2.098,10.137-2.099,15.173-3.299C100.84,0.891,101.712,1.007,102,0
		c8.333,0,16.667,0,25,0c0.242,1.217,1.369,0.842,2.105,1.17c0.412,3.685-0.809,7.2-1.169,10.806
		c-0.588,5.887-1.471,11.745-2.262,17.611c-0.878,6.512-1.792,13.02-2.69,19.529c-4.419,0.165-8.822,0.101-13.256,0.642
		c-4.253,0.519-8.248,2.127-12.514,2.381c-0.221-3.155-1.288-6.108-2.099-9.131C91.663,30.142,88.293,17.254,84.894,4.374z"/>
	<path style="fill:#1DB1A8;" d="M4.15,142.877c-1.978-5.762-2.191-11.838-3.166-17.779C0.807,124.019,1.24,122.743,0,122
		c0-5,0-10,0-15c1.745-2.039,1.324-4.727,2.114-7.052c2.832-0.195,5.456,0.982,8.272,1.18c6.366,0.446,12.73,1.193,19.031,2.211
		c7.447,1.202,14.927,2.018,22.425,2.744c-1.635,8.257-0.488,16.45,0.572,24.645c-4.3,1.102-8.595,2.222-12.9,3.303
		C27.728,136.988,15.939,139.93,4.15,142.877z"/>
	<path style="fill:#EBB2B7;" d="M107,230c0.005-0.285-0.019-0.568-0.072-0.848c4.713-0.003,9.427-0.005,14.14-0.008
		c-0.058,0.282-0.081,0.568-0.069,0.856C116.333,230,111.667,230,107,230z"/>
	<path style="fill:#090808;" d="M297.664,202.901c-10.259,0-20.191,0-30.39,0c0-58.618,0-117.127,0-175.893
		c10.104,0,20.137,0,30.39,0C297.664,85.625,297.664,143.999,297.664,202.901z"/>
	<path style="fill:#090808;" d="M493.676,67.421c4.793,0,8.909,0,13.23,0c0,45.173,0,90.107,0,135.339c-9.896,0-19.8,0-29.818,0
		c-0.907-1.136-0.445-2.515-0.446-3.762c-0.033-35.999,0-71.998-0.077-107.996c-0.006-2.84,0.733-5.027,2.655-7.133
		C484.151,78.467,488.891,72.891,493.676,67.421z"/>
	<path style="fill:#F2D715;" d="M203.232,43.839c10.126,12.562,17.14,26.732,21.757,42.137c0.091,0.302-0.003,0.66-0.011,0.992
		c-1.145,0.077-2.34-0.033-3.427,0.261c-13.128,3.548-26.24,7.156-39.356,10.748c-3.036-9.045-7.315-17.426-13.268-24.919
		c-0.189-0.238-0.18-0.634-0.263-0.956c2.811-2.312,5.616-4.631,8.434-6.933C185.807,58.056,194.52,50.949,203.232,43.839z"/>
	<path style="fill:#A23591;" d="M122.984,49.117c0.898-6.51,1.812-13.017,2.69-19.529c0.791-5.866,1.674-11.724,2.262-17.611
		c0.36-3.606,1.581-7.121,1.169-10.806c13.958,1.682,27.076,5.966,39.412,12.691c0.584,0.318,1.213,0.529,1.51,1.191
		c-0.089,0.487-0.049,1.049-0.285,1.449c-7.635,12.971-14.518,26.357-21.774,39.537c-5.859-2.107-11.629-4.436-17.794-5.665
		C127.782,49.894,125.186,50.572,122.984,49.117z"/>
	<path style="fill:#E6B124;" d="M182.196,97.977c13.116-3.592,26.228-7.2,39.356-10.748c1.087-0.294,2.282-0.184,3.427-0.261
		c2.15,5.291,2.299,10.954,2.773,16.501c0.748,8.753-0.238,17.499-0.958,26.227c-0.065,0.786-0.553,1.538-0.845,2.305
		c-3.288,0.166-6.492-0.752-9.67-1.229c-7.059-1.059-14.18-1.682-21.192-2.912c-3.66-0.642-7.482-0.42-11.003-1.849
		C184.278,116.612,184.76,107.192,182.196,97.977z"/>
	<path style="fill:#5B2F87;" d="M147.968,56.036c7.256-13.18,14.139-26.565,21.774-39.537c0.236-0.4,0.196-0.962,0.285-1.449
		c13.395,6.912,24.274,16.728,33.205,28.788c-8.711,7.11-17.425,14.217-26.133,21.331c-2.819,2.302-5.623,4.622-8.434,6.933
		C162.348,65.996,155.591,60.459,147.968,56.036z"/>
	<path style="fill:#D1235E;" d="M121.069,229.144c-4.713,0.003-9.427,0.005-14.14,0.008c-3.323-0.32-6.72-0.037-9.939-1.211
		c0.131-1.645,0.155-3.273,0.454-4.934c1.315-7.289,2.403-14.619,3.552-21.938c0.995-6.341,1.961-12.686,2.939-19.03
		c2.86-0.471,5.461,1.025,8.305,1.016c5.932-0.02,11.864,0.233,17.736-0.895c2.35,9.668,4.748,19.324,7.031,29.008
		c1.159,4.915,3.1,9.674,3.105,14.833C133.978,228.349,127.504,228.631,121.069,229.144z"/>
	<path style="fill:#CE232A;" d="M140.111,226.002c-0.005-5.159-1.946-9.917-3.105-14.833c-2.283-9.684-4.681-19.34-7.031-29.008
		c9.074-1.552,17.28-5.274,25.075-10.025c8.123,10.96,16.24,21.925,24.382,32.871c0.661,0.889,0.54,1.874,0.655,2.844
		c-11.281,8.577-23.97,14.244-37.526,18.095C141.8,226.162,140.93,225.992,140.111,226.002z"/>
	<path style="fill:#F6A621;" d="M184.083,126.012c3.521,1.429,7.343,1.207,11.003,1.849c7.013,1.23,14.134,1.852,21.192,2.912
		c3.177,0.477,6.381,1.395,9.67,1.229c-0.23,6.33-2.129,12.312-4.064,18.241c-2.861,8.77-6.224,17.346-11.775,24.862
		c-0.317-0.358-0.572-0.817-0.961-1.058c-8.178-5.078-16.327-10.205-24.583-15.154c-3.469-2.079-6.694-4.629-10.605-5.928
		c2.706-5.582,5.824-10.964,7.627-16.973C182.577,132.695,182.584,129.168,184.083,126.012z"/>
	<path style="fill:#D97628;" d="M173.961,152.964c3.911,1.3,7.136,3.849,10.605,5.928c8.256,4.949,16.405,10.076,24.583,15.154
		c0.389,0.242,0.644,0.701,0.961,1.058c-2.373,4.997-5.837,9.27-9.398,13.397c-6.18,7.162-12.762,13.954-20.625,19.349
		c-0.115-0.97,0.007-1.955-0.655-2.844c-8.142-10.946-16.259-21.911-24.382-32.871C162.396,166.774,168.491,160.177,173.961,152.964
		z"/>
	<path style="fill:#18A14B;" d="M51.842,106.083c-7.498-0.727-14.978-1.542-22.425-2.744c-6.301-1.017-12.665-1.764-19.031-2.211
		c-2.815-0.197-5.439-1.375-8.272-1.18c0.207-8.089,2.694-15.676,5.381-23.167c2.458-6.852,5.127-13.653,9.28-19.73
		c14.268,8.676,28.612,17.224,43.269,25.232c-0.413,1.075-0.727,2.202-1.255,3.217C55.402,92.004,53.024,98.839,51.842,106.083z"/>
	<path style="fill:#CE232A;" d="M84.894,4.374c3.4,12.88,6.769,25.768,10.221,38.634c0.811,3.023,1.878,5.977,2.099,9.131
		c-7.44,3.266-14.771,6.73-21.26,11.721c-2.171-2.69-4.494-5.272-6.487-8.088c-7.7-10.88-16.45-20.944-24.401-31.625
		C54.45,16.124,65.353,10.844,76.83,6.626C79.448,5.664,82.058,4.592,84.894,4.374z"/>
	<path style="fill:#D97628;" d="M45.066,24.147c7.951,10.682,16.701,20.746,24.401,31.625c1.993,2.816,4.316,5.398,6.487,8.088
		c-1.395,1.351-2.767,2.729-4.191,4.049c-4.578,4.246-7.804,9.59-11.718,14.374c-14.658-8.009-29.001-16.556-43.269-25.232
		c2.357-5.173,5.756-9.683,9.293-14.052C31.705,36.035,37.559,29.247,45.066,24.147z"/>
	<path style="fill:#2C5EA9;" d="M4.15,142.877c11.788-2.948,23.578-5.889,35.364-8.847c4.305-1.08,8.6-2.201,12.9-3.303
		c2.463,8.571,6.2,16.576,10.772,24.208c-11.044,8.506-22.077,17.027-33.142,25.505c-1.929,1.478-3.633,3.386-6.25,3.732
		c-6.964-8.377-11.495-18.119-15.591-28.076C6.449,151.834,4.728,147.52,4.15,142.877z"/>
	<path style="fill:#5B2F87;" d="M23.793,184.174c2.617-0.347,4.321-2.254,6.25-3.732c11.065-8.478,22.098-16.999,33.142-25.505
		c5.557,6.703,11.521,12.98,18.74,17.948c-1.099,0.073-1.643,0.695-2.198,1.66c-7.546,13.128-15.162,26.215-22.76,39.312
		C43.503,206.652,32.611,196.572,23.793,184.174z"/>
	<path style="fill:#A23591;" d="M56.968,213.857c7.599-13.097,15.214-26.185,22.76-39.312c0.555-0.966,1.099-1.587,2.198-1.66
		c6.906,4.086,14.31,6.976,22.009,9.156c-0.979,6.343-1.944,12.689-2.939,19.03c-1.149,7.319-2.237,14.649-3.552,21.938
		c-0.3,1.661-0.323,3.289-0.454,4.934c-11.895-1.245-23.024-5.009-33.661-10.328C61.131,216.516,59.084,215.117,56.968,213.857z"/>
	<path style="fill:#252021;" d="M103.934,182.04c-7.699-2.18-15.103-5.07-22.009-9.156c-7.219-4.967-13.184-11.245-18.74-17.948
		c-4.572-7.633-8.309-15.637-10.772-24.208c-1.06-8.195-2.207-16.388-0.572-24.645c1.182-7.243,3.561-14.079,6.947-20.582
		c0.529-1.015,0.842-2.142,1.255-3.217c3.914-4.784,7.14-10.129,11.718-14.374c1.424-1.321,2.795-2.698,4.191-4.049
		c6.489-4.99,13.82-8.455,21.26-11.721c4.266-0.254,8.261-1.861,12.514-2.381c4.434-0.541,8.837-0.478,13.256-0.642
		c2.202,1.456,4.798,0.778,7.19,1.255c6.165,1.229,11.935,3.558,17.794,5.665c7.623,4.422,14.38,9.96,20.696,16.067
		c0.083,0.322,0.074,0.718,0.263,0.956c5.953,7.493,10.233,15.874,13.268,24.919c2.565,9.215,2.083,18.634,1.887,28.035
		c-1.499,3.156-1.505,6.683-2.495,9.979c-1.803,6.008-4.92,11.391-7.627,16.973c-5.47,7.213-11.565,13.809-18.911,19.172
		c-7.795,4.751-16.001,8.473-25.075,10.025c-5.872,1.128-11.804,0.876-17.736,0.895C109.395,183.065,106.794,181.569,103.934,182.04
		z M103.633,97.938c0-9.755,0-18.976,0-28.154c-7.098-0.827-23.945-0.603-27.3,0.303c0,9.262,0,18.501,0,27.85
		C85.541,97.938,94.464,97.938,103.633,97.938z M111.493,80.962c0,5.841,0,11.234,0,16.897c5.559,0.374,10.905,0.341,16.211,0.048
		c0-5.891,0-11.421,0-16.945C122.253,80.962,117.135,80.962,111.493,80.962z M104.806,119.619c-0.093-4.693,0.38-9.069-0.274-13.546
		c-4.483,0-8.72,0-13.114,0c0,4.606,0,8.975,0,13.546C95.806,119.619,99.91,119.619,104.806,119.619z"/>
</g>
</svg>
