<?xml version="1.0" encoding="iso-8859-1"?>
<!-- Generator: Adobe Illustrator 27.0.0, SVG Export Plug-In . SVG Version: 6.00 Build 0)  -->
<svg version="1.1" id="Layer_1" xmlns="http://www.w3.org/2000/svg" xmlns:xlink="http://www.w3.org/1999/xlink" x="0px" y="0px"
	 viewBox="0 0 1500 268" style="enable-background:new 0 0 1500 268;" xml:space="preserve">
<g>
	<path style="fill:#095488;" d="M210,0c0,16.573,0,33.145,0,49.801c-2.166-0.108-2.822-1.432-3.703-2.331
		c-6.759-6.892-13.544-13.762-20.158-20.792c-3.184-3.384-6.807-4.925-11.482-4.867c-12.986,0.161-25.976,0.046-38.964,0.069
		c-1.635,0.003-3.343-0.29-5.033,0.865c-1.279,1.651-1.616,3.756-1.467,5.946c1.052,15.464,0.255,30.946,0.413,46.419
		c0.035,3.431-1.312,6.929,0.894,10.106c1.46,1.293,3.194,0.895,4.82,0.902c7.824,0.032,15.656-0.176,23.471,0.089
		c4.35,0.147,7.632-1.202,10.613-4.337c4.93-5.187,10.143-10.105,15.257-15.116c0.567-0.555,0.991-1.365,1.946-1.414
		c1.025,5.778,0.753,60.985-0.443,64.758c-3.411-2.274-5.731-5.484-8.415-8.272c-3.23-3.355-6.304-6.86-9.45-10.295
		c-2.269-2.477-5.055-3.585-8.445-3.548c-8.49,0.093-16.982,0.058-25.473,0.054c-1.343-0.001-2.674-0.046-3.967,0.946
		c-2.102,2.837-1.454,6.327-1.16,9.519c0.614,6.657,0.33,13.302,0.388,19.949c0.083,9.493,0.036,18.987,0.013,28.48
		c-0.008,3.152-0.012,6.287-0.422,9.446c-0.654,5.028,0.722,9.332,4.639,13.024c4.957,4.671,9.44,9.846,14.108,14.821
		c0.665,0.709,1.51,1.356,1.438,2.408c-22.479,0-44.947,0-67.416,0C82.002,137.753,82.001,68.876,82,0C124.667,0,167.333,0,210,0z"
		/>
	<path style="fill:#5F9742;" d="M82,0c0.001,68.876,0.002,137.753,0.002,206.629c-3.489,0.079-6.978,0.221-10.467,0.225
		c-19.314,0.022-38.628,0.011-57.959,0.011c-0.322-1.821,1.239-2.298,2.122-3.061c5.919-5.11,11.849-10.213,17.93-15.127
		c3.076-2.486,4.583-5.296,4.569-9.378c-0.147-41.29-0.141-82.581-0.215-123.872c-0.008-4.552-2.689-8.404-3.205-12.523
		c-2.586-1.732-5.063-1.766-7.564-1.76c-7.16,0.018-14.321,0.014-21.481,0.001C3.751,41.142,1.702,41.418,0,40c0-1,0-2,0-3
		c0.984-0.602,1.922-1.301,2.959-1.792c10.335-4.898,20.678-9.778,31.033-14.632C48.655,13.704,63.33,6.857,78,0
		C79.333,0,80.667,0,82,0z"/>
	<path style="fill:#0C5587;" d="M1500,99c-3.034-1.34-4.862-3.994-6.601-6.555c-4.1-6.038-16.519-9.738-24.94-6.11
		c-0.967,1.679-0.568,3.552-0.57,5.349c-0.024,31.311,0.048,62.621-0.095,93.931c-0.019,4.186,1.175,7.313,4.252,10.09
		c3.177,2.869,6.024,6.104,9.63,9.811c-19.571,0-38.241,0-57.023,0c-0.32-1.193,0.955-1.694,1.699-2.399
		c2.295-2.173,4.536-4.439,7.055-6.329c4.212-3.16,5.946-7.059,5.817-12.424c-0.331-13.814-0.222-27.64-0.219-41.462
		c0.003-16.653,0.086-33.306,0.113-49.96c0.003-1.976,0.269-3.999-0.905-6.578c-6.902-2.552-13.806-2-20.387,2.185
		c-2.106,1.339-3.811,3.159-5.357,5.17c-2.623,3.413-5.616,6.463-10.385,8.801c0.232-10.854-0.388-21.018,0.541-31.527
		c4.514,0,8.481-0.005,12.448,0.001c26.48,0.043,52.959,0.09,79.439,0.126c1.83,0.002,3.659-0.079,5.489-0.122
		C1500,80.333,1500,89.667,1500,99z"/>
	<path style="fill:#659A44;" d="M941,268c-0.055-12.307-0.104-24.613-0.172-36.919c-0.007-1.325-0.073-2.653-0.193-3.973
		c-0.341-3.746,0.979-5.192,4.647-5.122c2.686,0.051,4.67,1.534,6.624,3.103c11.143,8.947,22.282,17.899,33.423,26.849
		c1.661,1.334,3.325,2.665,5.726,4.59c0.087-7.814,0.185-14.837,0.232-21.861c0.015-2.158-0.167-4.317-0.155-6.474
		c0.033-5.95,1.71-7.08,8.452-5.114c-0.029,14.84,1.077,29.878-0.583,44.921c-2.667,0-5.333,0-8,0
		c-13.635-9.495-25.982-20.671-39.113-30.637c-2.101,1.742-1.712,3.664-1.721,5.446c-0.032,6.309-0.046,12.618,0.006,18.926
		c0.018,2.185-0.233,4.278-1.172,6.264C946.333,268,943.667,268,941,268z"/>
	<path style="fill:#659A44;" d="M1214,268c-0.719-1.87-2.601-1.619-4.024-2.169c-3.414-1.318-6.83-2.602-9.785-4.853
		c-11.835-9.011-12.7-25.56,1.905-33.802c13.842-7.812,28.104-8.246,42.613-1.774c4.479,1.998,8.59,4.444,11.287,8.702
		c5.9,9.316,2.718,21.664-7.171,27.762c-2.834,1.747-5.899,3.026-9.012,4.221c-1.3,0.499-3.012,0.364-3.813,1.912
		C1228.667,268,1221.333,268,1214,268z M1225.498,263.036c4.743-0.145,9.605-0.909,13.947-3.734
		c5.77-3.755,8.727-9.185,8.428-15.934c-0.307-6.908-4.122-11.779-10.536-14.423c-6.266-2.583-12.738-3.762-19.421-1.843
		c-6.621,1.9-12.406,5.069-14.795,12.061c-2.9,8.488,2.19,18.539,10.878,21.805C1217.59,262.317,1221.357,262.918,1225.498,263.036z
		"/>
	<path style="fill:#659A44;" d="M1329,268c-1.706-9.252-0.824-18.596-0.969-27.902c-0.088-5.633-0.016-11.268-0.016-16.726
		c1.111-0.567,1.695-1.126,2.275-1.121c8.804,0.067,17.65-0.937,26.391,0.887c1.133,0.236,2.261,0.583,3.33,1.028
		c3.948,1.643,6.639,4.27,7.042,8.822c0.421,4.762-1.165,8.465-5.285,11.004c-1.386,0.855-3.125,1.264-4.11,3.625
		c3.616,6.451,10.077,11.184,14.131,17.453c-0.592,2.151-3.263,1.009-3.789,2.929c-2.333,0-4.667,0-7,0
		c-4.141-4.417-7.902-9.149-11.631-13.91c-1.755-2.241-3.765-4.78-6.872-3.793c-3.43,1.09-3.29,4.505-3.349,7.511
		c-0.068,3.431,0.48,6.935-1.148,10.191C1335,268,1332,268,1329,268z M1337.894,242.813c6.255,2.062,11.511,1.001,16.019-2.529
		c4.215-3.3,2.945-9.603-2.057-11.558c-2.95-1.153-6.047-1.797-9.239-1.709c-3.389,0.093-4.572,1.126-4.693,4.411
		C1337.792,235.06,1337.894,238.701,1337.894,242.813z"/>
	<path style="fill:#659A44;" d="M817,268c0.191-2.038,1.069-3.809,2.115-5.522c7.175-11.747,14.343-23.498,21.516-35.246
		c0.519-0.851,1.024-1.712,1.592-2.53c2.34-3.366,8.299-4.119,10.789,0.49c3.624,6.707,7.477,13.291,11.22,19.934
		c3.256,5.779,6.498,11.566,9.74,17.354c0.963,1.72,2.229,3.393,1.028,5.52c-3.667,0-7.333,0-11,0
		c-1.256-2.1-2.585-4.141-3.641-6.375c-1.586-3.353-4.232-5.551-8.125-5.646c-4.14-0.102-8.291-0.19-12.425-0.007
		c-4.491,0.199-8.014,2.315-9.683,6.588c-0.79,2.022-2.224,3.553-3.125,5.441C823.667,268,820.333,268,817,268z M837.388,248.791
		c5.732,0,11.565,0,17.84,0c-2.988-6.063-5.822-11.814-8.98-18.222c-3.147,5.868-5.862,10.941-8.591,16.007
		C837.334,247.175,837.099,247.765,837.388,248.791z"/>
	<path style="fill:#669A45;" d="M1439,268c-1.425-5.564-0.871-11.226-0.857-16.865c0.019-7.657-0.033-15.315-0.013-22.972
		c0.004-1.639-0.325-3.344,0.76-5.087c0.377-0.213,0.944-0.814,1.508-0.81c8.299,0.053,16.628-0.906,24.885,0.685
		c2.788,0.537,5.472,1.357,7.924,2.823c6.316,3.777,7.524,11.946,2.196,16.98c-6.324,5.976-14.264,7.49-22.662,7.063
		c-2.115-0.108-2.784-1.505-2.176-3.322c1.237-1.59,2.854-1.301,4.294-1.393c2.87-0.183,5.595-0.912,8.134-2.178
		c3.048-1.52,4.946-4.068,4.904-7.52c-0.043-3.572-2.25-5.77-5.524-6.917c-3.802-1.332-7.675-2.086-11.885-1.275
		c-2.149,2.377-2.302,5.339-2.319,8.334c-0.062,10.818-0.114,21.636-0.17,32.454C1445,268,1442,268,1439,268z"/>
	<path style="fill:#669A45;" d="M1094,268c-2.229-1.88-5.162-1.885-7.74-2.829c-4.597-1.683-8.819-3.831-12.186-7.472
		c-7.501-8.113-7.031-19.231,1.247-26.573c4.164-3.693,9.126-6.049,14.377-7.739c12.214-3.929,24.187-2.553,35.987,1.522
		c0.011,4.302-1.344,5.62-4.843,4.565c-4.14-1.248-8.225-2.455-12.587-2.863c-7.374-0.69-14.243,0.757-20.518,4.475
		c-7.261,4.303-9.892,12.739-6.435,19.857c1.718,3.537,4.552,6.118,8.006,7.975c8.482,4.559,17.412,5.049,26.62,2.833
		c1.291-0.311,2.597-0.592,3.849-1.022c2.882-0.99,4.788,0.082,6.153,2.61c-1.415,1.769-3.328,2.205-5.272,2.744
		c-1.602,0.444-3.592,0.125-4.659,1.918C1108.667,268,1101.333,268,1094,268z"/>
	<path style="fill:#0D5588;" d="M1132.553,140.747c-0.215,1.434,0.599,2.7,1.321,4.01c7.778,14.115,15.658,28.176,23.265,42.383
		c3.562,6.653,9.518,10.897,14.61,16.408c8.401-5.699,13.3-12.99,13.205-22.962c-0.144-15.142-0.669-30.276-0.695-45.425
		c-0.023-13.484,0.518-26.952,0.628-40.431c0.052-6.407-1.764-11.635-7.099-15.608c-2.566-1.911-5.238-3.958-6.952-6.773
		c1.386-1.937,3.01-1.314,4.388-1.297c7.162,0.083,14.344,0.45,21.476-0.224c8.055-0.76,13.817,2.622,18.166,9.038
		c5.039,7.434,9.972,14.941,15.083,22.326c10.128,14.635,20.342,29.21,30.534,43.8c0.643,0.92,1.401,1.759,2.18,2.727
		c1.06-1.654,0.647-3.178,0.65-4.62c0.031-17.827-0.093-35.656,0.113-53.481c0.043-3.72-1.121-6.31-3.818-8.647
		c-3.262-2.828-6.413-5.81-8.565-9.669c3.108-1.211,31.498-1.638,41.699-0.626c-1.177,3.518-3.751,5.91-6.474,7.935
		c-4.889,3.635-6.403,8.226-6.372,14.261c0.21,40.486,0.114,80.973,0.095,121.46c-0.001,1.772,0.313,3.602-0.745,6.285
		c-13.325-18.791-25.848-37.276-38.579-55.613c-12.758-18.376-25.453-36.796-38.12-55.116c-1.805,0.805-1.404,1.886-1.404,2.838
		c0.006,23.326,0.077,46.651-0.032,69.976c-0.027,5.733,1.587,10.3,6.41,13.78c2.887,2.083,5.453,4.689,7.815,7.811
		c-2.128,1.303-3.984,0.834-5.715,0.837c-19.327,0.039-38.654,0-57.981,0.048c-3.482,0.009-6.963,0.344-10.446,0.481
		c-5.176,0.204-8.504-1.867-10.847-6.853c-7.913-16.835-16.278-33.457-24.486-50.154c-2.533-5.153-5.176-5.916-10.389-3.016
		c-1.038,1.788-0.794,3.8-0.734,5.785c0.287,9.488,0.601,18.987-0.101,28.459c-0.564,7.606,1.611,13.729,8.102,18.108
		c2.287,1.543,4.249,3.49,6.008,5.827c-3.643,1.448-44.112,1.958-55.736,0.872c1.028-2.998,3.264-4.977,5.387-7.027
		c1.437-1.387,3.001-2.647,4.379-4.088c2.144-2.242,3.256-4.88,3.251-8.091c-0.047-31.989-0.049-63.979,0.003-95.968
		c0.005-3.245-1.151-5.796-3.448-7.956c-2.667-2.509-5.34-5.013-7.968-7.563c-0.792-0.769-1.954-1.404-1.572-2.878
		c0.702-1.305,1.979-0.974,3.091-0.975c16.489-0.018,32.984-0.284,49.464,0.083c10.81,0.241,21.561,1.511,31.343,6.897
		c7.639,4.206,13.959,9.641,17.27,17.959c5.02,12.61,1.5,25.894-8.755,35.343c-3.056,2.815-6.338,5.393-10.279,6.966
		C1134.099,138.818,1133.02,139.34,1132.553,140.747z M1095.095,129.885c11.552,2.884,20.68-1.368,25.25-8.307
		c5.865-8.906,5.639-20.869-0.481-28.318c-5.134-6.249-17.024-10.871-24.769-6.879
		C1095.095,100.825,1095.095,115.383,1095.095,129.885z"/>
	<path style="fill:#0D558A;" d="M321.529,145.388c-1.655,1.596-1.365,3.324-1.366,4.969c-0.009,12.163,0.054,24.327-0.048,36.489
		c-0.024,2.892,0.86,5.107,2.969,7.06c3.421,3.168,6.693,6.496,10.035,9.75c0.583,0.568,1.367,0.995,1.27,2.101
		c-18.608,0-37.226,0-55.868,0c0.083-1.92,1.39-3.057,2.518-4.238c2.069-2.166,4.141-4.347,6.389-6.32
		c3.241-2.846,4.485-6.273,4.47-10.59c-0.103-30.824-0.055-61.649-0.055-92.473c0-0.5-0.009-1,0.001-1.5
		c0.069-3.355-1.086-6.124-3.667-8.365c-2.513-2.182-4.93-4.481-7.288-6.83c-1.009-1.006-2.482-1.723-2.673-3.36
		c0.552-1.245,1.633-1.062,2.602-1.079c13.476-0.229,26.954-0.723,40.426-0.573c9.115,0.102,18.26,0.599,27.261,2.472
		c7.799,1.623,14.779,4.966,21.149,9.63c17.491,12.807,14.929,37.687,1.003,49.06c-2.582,2.108-5.343,3.94-8.238,5.601
		c-4.574,2.624-4.96,4.11-2.34,8.82c4.201,7.553,8.505,15.049,12.682,22.615c3.049,5.524,6.002,11.104,8.928,16.695
		c2.992,5.716,7.543,10.008,12.745,14.522c4.555-8.583,8.938-16.841,13.134-24.746c2.739-0.422,3.536,1.264,4.615,2.443
		c4.046,4.419,8.023,8.901,12.095,13.295c5.473,5.905,12.168,7.093,19.589,4.637c7.625-2.523,12.042-7.752,13.349-15.817
		c1.422-8.775-1.613-15.157-9.156-19.741c-10.653-6.474-21.214-13.1-31.775-19.723c-8.932-5.601-15.284-13.313-18.201-23.518
		c-5.72-20.01,4.636-40.242,26.458-45.625c7.716-1.903,15.6-1.631,23.346-0.692c8.891,1.078,17.678,3.011,26.517,4.533
		c1.662,0.286,3.276,0.553,4.311,2.046c-0.957,5.013-10.259,21.472-13.482,23.845c-2.213-0.665-3.344-2.62-4.8-4.176
		c-2.955-3.158-5.741-6.485-8.827-9.507c-7.579-7.42-18.775-6.798-25.544,1.336c-3.615,4.344-4.306,9.256-2.32,14.493
		c2.031,5.356,5.899,9.237,10.633,12.213c9.288,5.839,18.678,11.514,28.01,17.285c5.099,3.153,10.093,6.412,14.021,11.096
		c6.336,7.556,8.532,16.208,7.826,25.933c-0.478,6.581-1.797,12.836-5.03,18.588c-6.155,10.951-16.031,16.508-27.975,18.905
		c-12.001,2.408-23.857,0.481-35.694-1.411c-5.394-0.862-10.757-1.92-15.494-2.774c-2.291,0.387-1.803,2.463-3.91,3.241
		c-10.219,0-21.213-0.098-32.203,0.057c-3.537,0.05-5.584-1.521-7.016-4.487c-2.095-4.337-4.284-8.628-6.396-12.957
		c-6.188-12.683-12.337-25.386-18.545-38.059C329.394,145.3,327.778,144.54,321.529,145.388z M320.416,86.811
		c-0.865,11.137-0.488,39.358,0.548,42.896c15.12,2.595,22.023-2.654,26.245-10.787c5.256-10.125,3.641-21.205-4.121-28.265
		C336.937,85.059,326.236,83.156,320.416,86.811z"/>
	<path style="fill:#135689;" d="M804.324,148.351c0-5.65,0-11.301,0-16.951c0-9.666-0.02-19.332,0.013-28.998
		c0.009-2.655,0.145-5.302,0.345-7.961c0.402-5.329-0.867-10.21-5.339-13.826c-2.944-2.38-5.709-4.982-8.292-7.255
		c0.18-1.66,1.04-1.945,1.829-1.947c13.944-0.036,27.888-0.026,42.818-0.026c-3.18,3.85-6.172,6.656-9.368,9.135
		c-4.062,3.15-5.536,7.023-5.521,12.11c0.121,40.663,0.072,81.327,0.053,121.99c-0.001,1.773,0.314,3.605-0.392,5.433
		c-2.163,0.231-2.603-1.515-3.361-2.607c-14.318-20.643-28.593-41.314-42.87-61.986c-9.357-13.549-18.689-27.115-28.069-40.648
		c-0.991-1.429-1.861-3.034-3.27-4.016c-1.213,0.696-0.965,1.569-0.966,2.342c-0.023,22.829,0.089,45.659-0.133,68.486
		c-0.07,7.198,1.845,12.967,7.932,17.247c2.528,1.778,4.812,4.032,6.744,6.657c-7.334,1.04-41.3,0.682-44.588-0.455
		c-0.337-1.424,0.83-2.051,1.622-2.774c2.46-2.244,4.88-4.562,7.542-6.548c3.253-2.428,4.368-5.458,4.336-9.472
		c-0.145-18.331-0.064-36.663-0.064-54.995c0-13.499-0.103-26.999,0.065-40.496c0.048-3.833-1.053-6.714-4.063-9.094
		c-2.735-2.163-5.244-4.614-7.82-6.974c-0.718-0.658-1.57-1.291-1.499-2.458c0.504-1.479,1.77-1.268,2.907-1.269
		c10.332-0.01,20.665,0.052,30.997-0.046c2.666-0.025,4.228,1.133,5.684,3.246c16.142,23.421,32.359,46.791,48.573,70.162
		c1.026,1.479,2.196,2.858,3.298,4.284C803.753,148.546,804.039,148.448,804.324,148.351z"/>
	<path style="fill:#0D558A;" d="M1392.975,103.766c-3.931-2.746-6.598-6.185-9.432-9.38c-9.089-10.249-7.784-9.214-20.384-9.227
		c-5.167-0.005-10.333-0.006-15.5,0.002c-1.816,0.003-3.693-0.258-5.247,1.091c-1.143,4.571-1.03,36.294,0.169,40.174
		c1.608,1.137,3.496,0.65,5.282,0.681c3.663,0.062,7.346-0.216,10.986,0.077c4.024,0.324,7.072-0.937,9.636-4.032
		c2.334-2.817,4.929-5.42,7.474-8.055c0.653-0.676,1.057-1.769,2.256-1.767c1.336,0.539,1.46,1.648,1.456,2.866
		c-0.049,12.995-0.083,25.99-0.136,38.985c0,0.084-0.207,0.167-0.576,0.445c-3.37-2.807-6.601-5.869-9.468-9.272
		c-3.13-3.716-6.823-5.366-11.786-4.803c-2.919,0.331-5.948-0.456-8.932-0.518c-5.847-0.123-8.121,1.855-7.674,7.713
		c0.611,7.988,0.471,15.967,0.596,23.95c0.065,4.158-0.027,8.319-0.022,12.478c0.002,1.657-0.192,3.339,0.528,5.1
		c0.415,0.841,1.45,1.487,2.316,1.411c6.983-0.61,13.91,0.582,20.88,0.491c7.626-0.1,13.962-2.539,18.746-8.657
		c1.536-1.964,3.259-3.79,4.985-5.595c1.349-1.412,2.607-2.995,4.826-3.816c0.329,10.738,0.338,21.192-0.13,32.089
		c-31.3,0-62.338,0-93.557,0c-0.309-2.472,0.961-3.766,2.44-4.76c8.035-5.399,10.474-13.327,10.421-22.473
		c-0.119-20.661-0.215-41.323-0.273-61.985c-0.021-7.664,0.017-15.329,0.164-22.991c0.12-6.24-1.709-11.364-7.149-15.001
		c-2.439-1.631-4.486-3.849-6.651-5.747c1.158-2.57,3.084-2.202,4.866-2.204c8.166-0.012,16.331-0.034,24.496-0.037
		c19.166-0.006,38.332-0.002,57.498-0.002c1,0,2.001-0.03,3,0.006c4.147,0.15,5.028,0.914,5.053,5.004
		c0.043,6.998-0.069,13.996-0.121,20.994C1393.995,99.076,1394.783,101.26,1392.975,103.766z"/>
	<path style="fill:#0D5588;" d="M948.002,72.71c0.658-1.05,1.076-1.632,1.808-1.632c30.156-0.014,60.311-0.014,90.467-0.001
		c0.878,0,1.556,0.515,2.42,1.552c0,10.06,0,20.505,0,31.5c-3.645-3.503-7.112-6.769-10.499-10.117
		c-1.773-1.753-3.324-3.733-5.119-5.46c-2.375-2.285-5.389-3.554-8.605-3.431c-8.301,0.318-16.593,0.077-24.889,0.075
		c-0.635,0-1.27,0.286-1.664,0.381c-2.01,1.674-1.897,3.749-1.737,5.716c0.811,9.97,0.439,19.932-0.02,29.897
		c-0.085,1.836-0.12,3.682,1.17,5.424c14.349,3.088,26.821,0.172,36.458-12.855c0,14.181,0,27.56,0,40.93
		c-1.8,0.458-2.539-0.805-3.175-1.902c-6.551-11.288-22.346-13.779-33.265-10.504c-1.426,1.45-1.176,3.327-1.195,5.141
		c-0.061,5.82,0.287,11.629,0.431,17.441c0.169,6.806-0.275,13.627-0.422,20.443c-0.039,1.819-0.245,3.69,0.939,5.327
		c0.667,0.502,1.457,0.69,2.313,0.69c9.164-0.001,18.329-0.042,27.493,0.036c2.555,0.022,4.417-0.97,6.081-2.82
		c3.783-4.206,7.644-8.343,11.535-12.45c0.856-0.903,1.448-2.366,3.517-1.993c1.813,3.04,0.565,6.573,0.773,9.904
		c0.228,3.651,0.128,7.33,0.03,10.993c-0.092,3.452,0.696,6.95-0.278,10.296c-3.692,1.043-86.388,1.432-94.682,0.461
		c2.482-3.519,5.298-6.549,8.449-9.166c4.076-3.386,5.613-7.6,5.53-12.744c-0.238-14.812-0.497-29.625-0.497-44.438
		c0-14.814,0.263-29.628,0.492-44.44c0.101-6.536-1.654-12.024-7.278-16.037C952.208,77.233,949.86,75.282,948.002,72.71z"/>
	<path style="fill:#12568A;" d="M632.384,44.587c23.222,0,45.623,0,68.574,0c-3.36,4.248-7.235,7.581-10.828,11.17
		c-1.058,1.057-2.197,2.035-3.31,3.036c-2.111,1.899-3.049,4.223-2.974,7.095c0.113,4.329,0.029,8.663,0.029,12.994
		c0,34.487,0.076,68.975-0.09,103.462c-0.022,4.622,1.406,7.905,4.912,10.78c4.231,3.47,8.16,7.307,12.104,10.881
		c-0.626,2.379-2.265,1.99-3.669,1.994c-6.831,0.02-13.662,0.009-20.493,0.009c-12.829,0-25.657,0-38.486,0
		c-1.653,0-3.307,0-4.951,0c-0.18-1.878,1.166-2.553,2.048-3.454c3.495-3.573,6.991-7.149,10.607-10.597
		c2.326-2.217,3.429-4.841,3.461-7.988c0.012-1.166,0.009-2.332,0.009-3.499c0-36.653-0.122-73.307,0.113-109.959
		c0.042-6.574-1.874-11.505-6.903-15.67C639.104,51.999,636.213,48.503,632.384,44.587z"/>
	<path style="fill:#16578B;" d="M557.184,86.086c-0.768,2.107-0.489,3.787-0.491,5.434c-0.02,23.16-0.074,46.32,0.021,69.479
		c0.031,7.658,0.223,15.308-0.209,22.964c-0.288,5.109,1.531,9.447,5.522,12.796c2.909,2.441,5.636,5.068,8.167,8.078
		c-3.752,1.024-49.278,1.284-55.683,0.392c-0.025-1.362,0.93-2.068,1.888-2.719c8.582-5.824,11.51-14.522,11.339-24.212
		c-0.302-17.147-0.416-34.292-0.418-51.439c-0.001-8.831-0.043-17.662,0.023-26.492c0.023-3.149,0.406-6.296,0.434-9.446
		c0.013-1.473-0.393-2.96-1.178-4.225c-6.153-3.952-19.297-1.499-24.713,6.047c-2.929,4.081-6.658,7.373-10.229,11.016
		c-1.002-3.8-1.2-26.451-0.342-32.137c0.625-0.854,1.529-1.272,2.561-1.273c21.293-0.022,42.589-0.213,63.879,0.071
		c7.476,0.1,14.96,0.428,22.443,0.388c2.651-0.014,5.299-0.447,7.95-0.459c4.451-0.021,5.695,1.202,5.717,5.559
		c0.047,9.155,0.014,18.311,0.014,27.701c-2.208-0.691-3.269-2.476-4.655-3.802c-2.768-2.649-5.473-5.366-8.138-8.119
		c-6.15-6.353-13.926-7.168-22.118-6.535C558.37,85.202,557.811,85.746,557.184,86.086z"/>
	<path style="fill:#065486;" d="M940.444,71.611c1.125,5.871,0.925,27.822-0.146,31.239c-1.26,0.278-1.711-0.792-2.372-1.465
		c-2.917-2.972-6.173-5.698-8.631-9.014c-3.875-5.228-9.284-6.599-15.169-7.256c-9.476-1.058-9.97-0.611-9.97,8.777
		c0,29.664,0.127,59.329-0.11,88.992c-0.046,5.805,1.236,10.291,5.983,13.887c2.993,2.267,5.472,5.218,7.186,8.981
		c-18.586,0-36.803,0-56.099,0c3.754-3.811,6.713-7.141,10.018-10.081c3.371-2.998,4.773-6.484,4.759-10.977
		c-0.094-30.83-0.043-61.661-0.054-92.492c-0.002-5.899-1.125-6.904-6.905-7.228c-8.689-0.487-15.511,2.57-20.591,9.77
		c-2.35,3.331-5.279,6.241-8.735,8.734c-1.63-3.725-1.778-26.131-0.296-32.479c5.468,0,11.078,0,16.688,0c5.666,0,11.332,0,16.999,0
		s11.332,0,16.999,0s11.332,0,16.999,0s11.336-0.122,16.998,0.035C929.537,71.186,935.176,70.318,940.444,71.611z"/>
	<path style="fill:#0D558A;" d="M211.216,71.926c4.09-1.126,50.459-1.313,55.544-0.38c0.285,1.438-0.767,2.119-1.69,2.774
		c-8.723,6.188-11.628,15.025-11.362,25.211c0.682,26.125,0.432,52.25,0.17,78.376c-0.025,2.496-0.02,4.995,0.073,7.489
		c0.186,4.934,2.13,8.911,6.219,11.89c2.671,1.946,5.088,4.242,7.555,6.327c-0.581,2.822-2.673,2.238-4.404,2.243
		c-10.321,0.026-20.642,0.013-30.964,0.013c-6.649,0-13.299,0-20.289,0c0.554-2.841,2.331-4.514,4.041-6.183
		c10.8-10.54,8.941-7.366,8.993-22.054c0.099-28.466-0.056-56.933,0.113-85.399c0.028-4.73-1.242-8.262-4.926-11.291
		C217.126,78.342,213.695,75.895,211.216,71.926z"/>
	<path style="fill:#669A45;" d="M742.637,242.515c2.979,1.273,5.518,2.116,7.82,3.389c6.272,3.467,7.087,10.489,1.885,15.348
		c-3.673,3.431-8.173,5.306-13.064,5.535c-7.141,0.334-14.31,0.089-21.467,0.093c-1.206,0.001-2.301-0.303-3.753-1.6
		c-0.642-13.893,0.19-28.279-0.112-43.238c10.017,0.412,19.614-0.777,29.146,1.053c2.29,0.44,4.578,1.236,6.088,3.145
		c3.023,3.823,3.464,8.817-0.886,12.359C746.641,239.946,744.784,241.042,742.637,242.515z M723.907,246.228
		c-1.771,5.131-0.924,10.06-0.696,15.252c5.898,0.84,11.148,1.342,16.284-0.674c2.932-1.151,5.398-3.068,5.386-6.488
		c-0.012-3.448-2.535-5.287-5.507-6.34C734.628,246.298,729.721,245.682,723.907,246.228z M722.879,240.509
		c5.977,1.561,10.918,0.198,15.549-2.596c1.898-1.145,3.262-2.779,2.746-5.328c-0.511-2.527-2.195-4.25-5.07-4.671
		c-2.766-0.405-5.558-0.73-8.348-0.85c-3.63-0.156-4.797,1.015-4.867,4.587C722.835,234.44,722.879,237.231,722.879,240.509z"/>
</g>
</svg>
