<?xml version="1.0" encoding="iso-8859-1"?>
<!-- Generator: Adobe Illustrator 27.0.0, SVG Export Plug-In . SVG Version: 6.00 Build 0)  -->
<svg version="1.1" id="Layer_1" xmlns="http://www.w3.org/2000/svg" xmlns:xlink="http://www.w3.org/1999/xlink" x="0px" y="0px"
	 viewBox="0 0 1000 303" style="enable-background:new 0 0 1000 303;" xml:space="preserve">
<g>
	<path style="fill:#58B24E;" d="M350.564,20.186c-0.22-1.149,0.399-2.056,0.866-3.006c2.011,0.047,2.252-2.534,4.548-3.166
		c0,2.148,0.004,3.908-0.001,5.668c-0.003,0.988-0.039,1.984,1.144,2.403c-0.362,1.055-0.723,2.109-1.184,3.453
		c3.909,2.842,7.691,5.867,11.897,8.315c0.453,0.806,0.723,1.875,2.317,1.384c-0.458-10.095-1.677-20.124-3.277-29.957
		c-2.282-0.714-4.218,1.63-5.984-0.318C363.236,2.041,367.108,1.919,370,0c0.333,0,0.667,0,1,0c-0.076,1.89,1.171,1.848,2.587,2.049
		c2.141,0.303,4.591-1.211,6.422,1c-2.878,0.541-5.757,1.083-9.048,1.702c1.087,11.302,2.163,22.491,3.212,33.403
		c3.021,3.2,5.748,0.787,8.492,0.175c0.47,0.86-0.174,2.549,2.303,2.305c1.6-11.095,3.044-22.299,3.12-33.654
		c1.294,0.976,2.589,1.952,3.883,2.928c-1.443,7.916-1.754,15.934-2.551,24.42c5.284-2.614,8.888-6.606,13.271-9.482
		c1.132-0.111,0.958,1.623,2.104,1.502c0.528-2.909,0.175-6.058,2.428-8.459c1.228,0.562,2.257,1.792,3.844,1.146
		c-2.405,3.019-0.153,5.463,0.995,8.043c1.346,5.671,2.01,11.498,3.917,17.04c0.127,0.934-0.311,2.022,1.361,3.102
		c6.197-9.729,12.401-19.468,18.605-29.206c1.362-0.227,2.226,0.553,3.009,1.493c-1.606,2.705-3.16,5.444-4.829,8.109
		c-4.924,7.862-9.494,15.952-14.948,23.477c-0.588-0.792-1.176-1.585-1.985-2.674c0.063,1.787-0.496,3.45,1.775,3.592l0.009,0.019
		c-0.258,0.246-0.278,0.51-0.062,0.792c0.143,0.622,0.304,1.226,1.136,1.192c0,0-0.049-0.064-0.049-0.064
		c0.138,1.195,0.276,2.39,0.414,3.584c-0.441,0.309-0.938,0.378-1.349,0.041c-6.1-4.999-10.33-11.17-11.948-19
		c-0.363-1.758-0.896-3.482-1.418-5.483c-16.985,14.498-34.091,14.917-51.44,0.605c-0.939,2.872-1.553,5.478-2.628,7.877
		c-1.885,4.207-3.845,8.457-8.471,10.495c-1.095-0.046-2.19-0.092-3.286-0.137c-0.499-2.264-1.456-4.171-3.855-4.958
		c-0.58-4.176-2.285-7.688-5.931-10.056c-0.12-0.776-0.016-1.68-1.091-1.912c0.057-2.297-0.256-4.375-2.971-5.036
		c0.041-1.696-0.062-3.317-2.068-3.937c-0.038-0.583-0.345-0.937-0.909-1.074c-0.085-0.799,0.016-1.701-1.078-1.94
		c-0.019-0.657-0.037-1.313-0.056-1.97c2.015-0.018,4.03-0.036,6.045-0.055c-0.444,1.509,0.653,2.509,1.287,3.606
		c3.47,6.01,7.013,11.978,10.525,17.963c0.536,0.913,0.858,2.022,2.181,2.521c2.849-5.202,4.096-10.651,5.428-16.07
		c1.805-0.655,3.224,1.638,5.604,0.386c-0.522-1.922,0.501-3.939,0.976-6.391c-0.691-0.527-1.353-1.003-1.981-1.52
		C351.486,21.083,351.034,20.623,350.564,20.186z"/>
	<path style="fill:#767375;" d="M355,303c-0.426-1.2-1.609-1.004-2.493-1.315c-9.781-3.445-14.417-10.781-15.322-20.695
		c-0.899-9.841,2.172-18.298,10.669-23.744c8.769-5.621,18.307-5.86,27.564-1.143c5.091,2.594,9.169,6.508,9.79,12.731
		c-1.578,1.285-3.042,0.826-4.454,0.675c-0.265-0.275-0.565-0.47-0.704-0.747c-4.454-8.86-11.985-12.501-21.803-10.523
		c-9.898,1.994-15.206,8.385-15.356,18.549c-0.044,2.99,0.064,5.932,0.839,8.898c1.63,6.236,5.394,10.175,11.604,11.757
		c5.121,1.305,10.277,1.251,15.229-0.574c6.547-2.412,10.006-7.305,10.751-14.743c-5.672,0-11.097,0-16.33,0
		c-1.101-1.887-0.812-3.227,0.026-4.711c7.007,0,13.94,0,20.965,0c0.257,0.771,0.636,1.384,0.64,2
		c0.041,7.309,0.027,14.619,0.027,21.787c-1.367,1.258-2.623,0.946-3.997,0.511c-0.973-2.336-0.218-4.912-0.941-7.741
		c-2.051,1.857-3.822,3.782-5.91,5.26c-2.1,1.487-4.515,2.529-6.793,3.766C364.333,303,359.667,303,355,303z"/>
	<path style="fill:#767375;" d="M63,303c-1.481-1.71-3.765-1.831-5.624-2.806c-9.654-5.064-13.551-13.307-13.149-23.806
		c0.388-10.129,6.375-18.092,15.816-21.463c9.367-3.344,18.358-2.531,26.611,3.08c7.747,5.267,10.219,13.089,9.68,22.086
		c-0.371,6.181-2.412,11.634-7.014,16.013c-2.968,2.824-6.442,4.643-10.309,5.8c-0.765,0.229-1.688,0.082-2.01,1.094
		C72.333,303,67.667,303,63,303z M69.61,298.219c2.758-0.078,4.917-0.021,7.037-0.574c12.522-3.268,17.087-16.757,12.484-28.43
		c-4.781-12.124-21.783-14.197-31.09-7.858c-7.335,4.997-10.173,15.092-6.935,24.559C53.871,294.003,61.618,298.583,69.61,298.219z"
		/>
	<path style="fill:#767375;" d="M945,303c-1.46-1.519-3.626-1.329-5.374-2.237c-5.562-2.889-8.339-7.403-8.339-14.156
		c1.361-0.867,2.788-0.594,4.111-0.259c0.222,0.216,0.406,0.308,0.44,0.44c1.178,4.457,2.782,8.766,7.684,10.223
		c6.353,1.889,12.804,2.132,18.983-0.797c2.994-1.419,4.356-4.175,4.249-7.344c-0.102-3.056-1.871-5.246-4.783-6.419
		c-3.578-1.441-7.353-2.022-11.136-2.514c-4.305-0.56-8.543-1.391-12.467-3.283c-7.748-3.737-8.98-13.201-2.537-18.977
		c2.028-1.818,4.433-2.916,7.031-3.615c5.592-1.505,11.197-1.357,16.757,0.109c6.913,1.823,10.864,6.716,10.968,13.39
		c-0.492,0.612-1.201,0.486-1.844,0.494c-0.814,0.01-1.629-0.071-2.229-0.102c-0.954-0.944-1.09-1.943-1.396-2.885
		c-1.063-3.273-3.349-5.241-6.643-6.148c-5.276-1.453-10.532-1.603-15.665,0.46c-2.716,1.092-4.925,2.809-5.173,6.114
		c-0.259,3.449,0.689,5.138,3.918,6.77c3.317,1.677,6.99,2.033,10.549,2.798c3.243,0.697,6.533,1.193,9.747,2
		c6.571,1.651,9.871,4.956,10.256,10.001c0.524,6.853-2.346,11.32-8.679,14.181c-1.462,0.66-3.427,0.034-4.428,1.757
		C954.333,303,949.667,303,945,303z"/>
	<path style="fill:#767375;" d="M782,303c-0.301-0.687-0.903-0.843-1.573-1.006c-14.906-3.623-19.244-18.423-16.788-29.622
		c3.156-14.388,16.487-21.807,31.383-18.638c8.045,1.711,14.063,5.793,16.56,14.04c0.244,0.807,0.383,1.61-0.013,2.498
		c-1.33,0.845-2.774,0.565-4.347,0.211c-1.345-2.018-1.618-4.605-3.365-6.523c-5.432-5.964-12.407-6.867-19.676-5.627
		c-9.99,1.704-15.215,8.289-15.347,18.461c-0.03,2.318-0.047,4.706,0.443,6.95c1.941,8.89,8.584,14.2,17.813,14.431
		c2.491,0.062,5.006,0.18,7.457-0.416c7.063-1.716,10.984-6.46,12.569-13.249c1.499-0.933,2.942-0.735,4.228-0.436
		c0.688,0.384,0.746,0.914,0.666,1.382c-1.411,8.188-7.767,14.807-15.921,16.575c-0.786,0.171-1.687,0.006-2.09,0.97
		C790,303,786,303,782,303z"/>
	<path style="fill:#767375;" d="M0,254c8.993,0.013,17.986-0.061,26.977,0.07c5.914,0.087,11.024,3.326,12.383,8.367
		c2.748,10.198-0.802,18.109-12.187,19.402c-4.608,0.523-9.314,0.182-13.976,0.218c-2.481,0.019-4.963,0.003-7.94,0.003
		c0,6.599,0,13.002,0,19.233C3.274,302.52,1.605,301.979,0,302C0,286,0,270,0,254z M5.194,277.122c7.553,0,14.67,0.1,21.783-0.032
		c5.498-0.102,7.833-4.218,7.749-9.098c-0.101-5.903-2.783-9.103-8.225-9.108c-5.984-0.006-11.969-0.034-17.953-0.001
		c-1.1,0.006-2.35-0.399-3.354,0.862C5.194,265.215,5.194,270.825,5.194,277.122z"/>
	<path style="fill:#6FBB50;" d="M380.008,3.048c-1.831-2.211-4.281-0.697-6.422-1C372.171,1.848,370.924,1.89,371,0
		c4.333,0,8.667,0,13,0c0.494,1.221,1.665,0.774,2.55,1.04c9.212,2.766,16.839,7.482,20.672,16.849
		c-2.253,2.401-1.899,5.551-2.428,8.459c-1.146,0.121-0.972-1.613-2.104-1.502c0.285-0.844,0.052-1.542-0.385-2.323
		c-2.7-4.823-5.99-9.147-10.335-12.615c-1.294-0.976-2.589-1.952-3.883-2.928c-0.354-0.848-1.079-0.975-1.874-0.968
		C384.49,4.301,382.239,3.696,380.008,3.048z"/>
	<path style="fill:#C0BDBD;" d="M0.956,222.028l-0.479,0.021L0,222C0,150.333,0,78.667,0,7c0.338,0.003,0.676,0.007,1.013,0.01
		C1.006,14.66,0.994,22.309,0.993,29.959C0.979,93.982,0.968,158.005,0.956,222.028z"/>
	<path style="fill:#767375;" d="M1000,266c-0.724-0.362-1.673-0.247-2.647-1.765c-0.607-1.076,0.567-3.224-0.461-5.262
		c-2.138,1.831-2.317,4.837-4.557,6.748c-2.544-1.832-2.63-5.258-5.029-7.449c-0.933,2.387,0.467,5.098-1.846,7.201
		c0-3.018,0-6.037,0-8.647c-1.712-1.398-2.918-1.162-4.353-0.605c-1.008,2.688,0.456,5.844-1.214,8.903
		c-1.863-2.986-0.215-6.012-1.199-8.666c-0.684-1.546-3.151,0.305-3.58-2.111c4.087-0.736,8.15-0.116,12.24-0.163
		c2.172,2.385,2.654,5.78,5.145,8.142c1.588-2.748,3.069-5.312,4.446-7.697c1.041-0.841,2.08-0.549,3.055-0.63
		C1000,258,1000,262,1000,266z"/>
	<path style="fill:#E0DEDD;" d="M926.873,301.79c0.042,0.403,0.085,0.807,0.127,1.21c-13,0-26,0-39,0
		c0.028-0.382,0.055-0.765,0.083-1.147C901.013,302.093,913.944,302.216,926.873,301.79z"/>
	<path style="fill:#E0DEDD;" d="M653,303c0.014-0.361,0.029-0.722,0.043-1.083c4.808,0.036,9.618,0.152,14.425,0.089
		c8.118-0.108,16.243,0.378,24.354-0.281c0.059,0.425,0.118,0.85,0.178,1.276C679,303,666,303,653,303z"/>
	<path style="fill:#E0DEDD;" d="M176,303c-0.005-0.327-0.007-0.654-0.005-0.981c12.673,0.012,25.346,0.025,38.019,0.037
		c-0.002,0.315-0.007,0.63-0.014,0.945C201.333,303,188.667,303,176,303z"/>
	<path style="fill:#E0DEDD;" d="M440.033,302.165c-0.015,0.278-0.026,0.557-0.033,0.835c-8.667,0-17.333,0-26,0
		c-0.011-0.294-0.02-0.588-0.027-0.882C422.66,302.133,431.346,302.149,440.033,302.165z"/>
	<path style="fill:#E0DEDD;" d="M698,303c-0.01-0.306-0.016-0.612-0.02-0.918c8.685,0.03,17.369,0.06,26.054,0.09
		c-0.015,0.276-0.026,0.552-0.034,0.828C715.333,303,706.667,303,698,303z"/>
	<path style="fill:#716F71;" d="M51.136,7.035c5.926,0,11.543,0,17.511,0c53.403,65.062,106.916,130.256,161.141,196.318
		c0-65.993,0-130.946,0-196.202c4.878,0,9.264,0,13.914,0c0,71.524,0,142.933,0,214.717c-5.732,0-11.46,0-17.825,0
		C172.707,157.101,119.227,91.954,65.747,26.808c-0.297,0.157-0.595,0.313-0.892,0.47c0,64.757,0,129.515,0,194.617
		c-4.687,0-9.06,0-13.719,0C51.136,150.402,51.136,78.991,51.136,7.035z"/>
	<path style="fill:#716F71;" d="M865.255,227.117c-17.148,0.19-33.761-2.512-49.606-9.268
		c-20.596-8.782-36.432-22.991-47.754-42.241c-12.203-20.748-18.249-43.223-16.67-67.231c2.066-31.401,13.755-58.726,37.398-80.155
		c12.826-11.625,28.063-19.094,44.884-22.769c28.439-6.214,56.515-5.15,83.582,6.551c19.388,8.381,34.346,22.01,45.281,39.999
		c13.158,21.647,19.569,45.261,17.398,70.478c-3.138,36.458-18.13,66.788-49.431,87.516c-14.111,9.344-29.906,14.132-46.657,16.15
		C877.537,226.888,871.409,227.039,865.255,227.117z M966.091,114.245c0.133-11.264-1.746-22.237-5.168-32.872
		c-6.168-19.169-16.89-35.28-33.085-47.556c-17.479-13.249-37.51-18.84-59.077-19.689c-9.331-0.367-18.582,0.702-27.713,2.693
		c-29.892,6.518-51.806,23.545-65.268,50.875c-11.267,22.872-13.481,47.058-7.786,71.895c4.345,18.951,13.262,35.525,27.33,48.975
		c17.856,17.071,39.761,24.876,64.1,26.299c12.185,0.712,24.232-0.581,36.043-3.785c17.454-4.734,32.593-13.487,44.672-26.946
		C957.927,164.313,965.787,140.635,966.091,114.245z"/>
	<path style="fill:#716F71;" d="M678.942,7.022c5.177,0,9.965,0,14.763,0c-0.199,3.541-25.483,61.211-46.601,107.634
		c-16.227,35.671-31.868,71.609-47.881,107.68c-5.149,0-10.237,0-15.951,0c-31.74-71.414-63.555-142.997-95.675-215.267
		c5.555-0.396,10.573-0.176,15.875-0.178c29.161,65.672,58.259,131.204,87.759,197.64C620.711,138.15,649.827,72.586,678.942,7.022z
		"/>
	<path style="fill:#716F71;" d="M0.956,222.028C0.968,158.005,0.979,93.982,0.993,29.959C0.994,22.309,1.006,14.66,1.013,7.01
		c4.441,0,8.883,0,13.559,0c0,71.822,0,143.296,0,215.295C9.988,222.72,5.488,223.206,0.956,222.028z"/>
	<path style="fill:#716F71;" d="M710.404,7.078c4.522,0,8.786,0,13.398,0c0,71.725,0,143.385,0,215.325
		c-4.493,0.388-8.878,0.472-13.398-0.055C710.404,150.365,710.404,78.837,710.404,7.078z"/>
	<path style="fill:#767375;" d="M591.851,261.336c0,14.074,0,27.023,0,39.775c-1.685,1.664-3.368,0.65-5.264,1.016
		c0-16.028,0-31.746,0-47.786c2.197-0.69,4.489-0.072,7.108-0.462c7.003,13.594,13.951,27.081,21.447,41.63
		c7.289-14.342,14.095-27.735,20.857-41.043c2.491-0.861,4.787-0.225,7.362-0.504c0,16.067,0,31.796,0,47.594
		c-1.621,0.852-3.179,0.686-5.18,0.033c0-12.994,0-26.038,0-39.082c-0.265-0.061-0.53-0.122-0.795-0.183
		c-6.628,13.144-13.255,26.287-19.729,39.126c-1.788,1.021-3.279,0.482-5.104,0.624
		C605.826,288.835,599.094,275.587,591.851,261.336z"/>
	<path style="fill:#767375;" d="M165.385,254.213c2.011-0.168,3.486-0.463,5.465,0.3c-5.264,15.786-10.522,31.553-15.715,47.125
		c-2.223,0.655-4.01,0.573-6.242,0.114c-4.621-13.058-9.301-26.283-14.264-40.311c-4.848,13.972-9.393,27.07-13.944,40.186
		c-2.072,0.725-4.004,0.541-6.26,0.177c-5.175-15.671-10.36-31.37-15.54-47.057c1.791-1.167,3.447-0.638,5.578-0.599
		c4.232,13.2,8.505,26.526,12.777,39.852c0.276,0.029,0.551,0.059,0.827,0.088c4.521-13.263,9.042-26.526,13.54-39.72
		c2.199-0.527,4.152-0.464,6.443-0.031c4.521,13.122,9.078,26.351,13.635,39.579c0.287-0.03,0.573-0.06,0.86-0.089
		C156.801,280.694,161.059,267.56,165.385,254.213z"/>
	<path style="fill:#767375;" d="M440.033,302.165c-8.687-0.016-17.373-0.032-26.06-0.047c-0.767-0.567-0.783-1.386-0.782-2.231
		c0.009-14.655,0.009-29.31,0.029-43.965c0.001-0.467,0.197-0.934,0.387-1.774c8.954,0,17.89-0.013,26.826,0.022
		c0.809,0.003,1.621,0.299,2.424,0.492c7.078,1.703,11.736,6.06,13.812,13.001c1.947,6.51,2.068,13.14,0.197,19.681
		C454.441,295.816,448.923,300.948,440.033,302.165z M418.942,297.253c6.631,0,12.765,0.098,18.894-0.026
		c6.769-0.137,11.2-3.498,13.294-9.993c1.833-5.686,1.7-11.545,0.4-17.244c-1.713-7.507-6.523-11.006-14.399-11.111
		c-4.994-0.067-9.99-0.033-14.984,0.003c-1.112,0.008-2.373-0.376-3.204,0.796C418.942,271.975,418.942,284.267,418.942,297.253z"/>
	<path style="fill:#767375;" d="M289.953,262.608c0,12.954,0,25.907,0,38.798c-1.552,1.148-3.016,0.449-4.719,0.657
		c0-15.99,0-31.717,0-47.715c1.908-0.537,3.847-0.324,5.932-0.19c10.776,13.215,21.56,26.441,33.068,40.552
		c0-14.134,0-27.169,0-40.135c2.013-0.74,3.573-0.809,5.353-0.08c0,15.62,0,31.212,0,47.05c-1.796,0.995-3.776,0.411-6.021,0.509
		c-10.854-13.221-21.778-26.528-32.702-39.835C290.56,262.348,290.256,262.478,289.953,262.608z"/>
	<path style="fill:#767375;" d="M839.107,261.394c0,14.001,0,26.927,0,39.698c-1.616,1.626-3.211,0.73-4.953,0.95
		c0-16.132,0-31.851,0-47.793c2.002,0,3.785,0,5.995,0c10.586,12.965,21.386,26.191,32.827,40.204c0-13.83,0-26.769,0-39.477
		c1.956-1.392,3.572-0.961,5.486-0.703c0,15.739,0,31.46,0,47.428c-1.728,0.714-3.552,0.27-5.876,0.408
		C861.751,288.932,850.735,275.536,839.107,261.394z"/>
	<path style="fill:#767375;" d="M471.048,261.299c0,14.19,0,27.211,0,40.131c-1.771,0.926-3.18,0.746-4.866,0.3
		c0-15.723,0-31.444,0-47.401c1.826-0.567,3.635-0.196,5.761-0.304c10.802,13.213,21.69,26.533,33.166,40.572
		c0-13.899,0-26.821,0-39.496c1.644-1.789,3.368-0.705,5.29-1.249c0,16.079,0,31.785,0,47.826c-1.728,0.78-3.686,0.326-5.915,0.345
		C493.626,288.798,482.707,275.499,471.048,261.299z"/>
	<path style="fill:#767375;" d="M724.034,302.172c-8.685-0.03-17.369-0.06-26.054-0.09c-0.919-0.748-0.709-1.794-0.71-2.771
		c-0.006-14.154-0.006-28.308,0.003-42.462c0-0.811-0.135-1.669,0.697-2.662c8.886,0,18.026-0.462,27.095,0.138
		c8.099,0.536,13.894,6.324,15.939,14.357c1.545,6.068,1.659,12.186,0.028,18.237C738.685,295.634,733.141,300.922,724.034,302.172z
		 M703.079,297.111c7.305,0,14.258,0.238,21.185-0.083c4.696-0.218,8.045-3.241,9.929-7.35c3.481-7.591,3.407-15.385,0.24-23.116
		c-1.887-4.607-5.607-7.183-10.322-7.462c-6.908-0.408-13.857-0.105-21.032-0.105C703.079,271.727,703.079,284.117,703.079,297.111z
		"/>
	<path style="fill:#767375;" d="M214.014,302.055c-12.673-0.012-25.346-0.025-38.019-0.037c-0.802-0.816-0.599-1.85-0.599-2.831
		c-0.005-13.642-0.004-27.283-0.001-40.925c0-1.324-0.145-2.677,0.805-4.048c12.278,0,24.694,0,36.948,0
		c1.2,1.367,0.559,2.689,0.643,4.476c-10.855,0-21.574,0-32.524,0c-0.753,5.559-0.154,10.638-0.446,16.214
		c10.723,0,21.11,0,31.133,0c1.292,1.708,0.751,3.007,0.757,4.81c-10.512,0-20.893,0-31.537,0
		c-0.479,6.071-0.298,11.611-0.174,17.511c11.221,0,21.98,0,32.537,0C214.947,299.006,215.176,300.487,214.014,302.055z"/>
	<path style="fill:#767375;" d="M226.233,281.128c0,7.218,0,13.805,0,20.222c-1.785,1.047-3.206,0.798-4.914,0.393
		c0-15.697,0-31.413,0-47.109c1.206-1.057,2.597-0.577,3.865-0.586c7.153-0.05,14.306-0.033,21.459-0.017
		c1.496,0.003,3.03-0.104,4.481,0.179c5.151,1.006,9.462,3.126,10.875,8.821c1.495,6.025-0.149,10.726-5.144,14.384
		c-0.528,0.387-1.145,0.653-2.212,1.25c6.773,3.071,6.911,9.094,7.175,15.053c0.117,2.63,0.185,5.261,0.999,7.81
		c-1.691,0.914-3.313,0.596-5.177,0.273c-0.933-3.28-1.349-6.677-1.373-10.141c-0.048-6.812-2.443-9.965-9.858-10.444
		C239.961,280.798,233.466,281.128,226.233,281.128z M226.431,276.112c0.717,0.279,1.167,0.605,1.62,0.608
		c6.314,0.038,12.629,0.091,18.941,0.001c1.978-0.028,3.935-0.517,5.725-1.476c3.288-1.762,4.93-5.61,4.185-9.834
		c-0.661-3.746-3.152-6.139-7.154-6.448c-2.974-0.23-5.977-0.099-8.968-0.106c-4.757-0.011-9.513-0.003-14.35-0.003
		C226.431,265.02,226.431,270.58,226.431,276.112z"/>
	<path style="fill:#767375;" d="M926.873,301.79c-12.93,0.426-25.86,0.303-38.791,0.063c0-15.768,0-31.537,0-47.566
		c12.737,0,25.121,0,37.389,0c1.045,1.371,0.518,2.667,0.427,4.466c-10.791,0-21.518,0-32.5,0c0,5.588,0,10.653,0,16.085
		c10.375,0,20.626,0,30.53,0c1.741,1.607,0.89,3.065,1.033,4.836c-10.55,0-20.812,0-31.45,0c0,5.901,0,11.437,0,17.427
		c10.915,0,21.812,0,32.436,0C927.373,298.816,926.751,300.361,926.873,301.79z"/>
	<path style="fill:#767375;" d="M691.822,301.724c-8.111,0.659-16.236,0.173-24.354,0.281c-4.807,0.064-9.617-0.053-14.425-0.089
		c0-15.791,0-31.583,0-47.635c12.574,0,24.846,0,37.328,0c1.12,1.087,0.65,2.54,0.278,4.513c-10.659,0-21.39,0-32.358,0
		c0,5.607,0,10.675,0,16.107c10.468,0,20.735,0,30.83,0c1.196,1.685,0.993,3.067,0.286,4.852c-10.181,0-20.452,0-31.039,0
		c0,5.93,0,11.481,0,17.433c10.955,0,21.727,0,31.97,0C692.393,298.681,691.684,300.302,691.822,301.724z"/>
	<path style="fill:#4477B4;" d="M457.022,175.975c3.864,13.851-2.031,26.976-12.189,31.017c-0.724,0.172-1.726-0.112-1.814,1.105
		l0.065-0.059c-6.363-0.414-12.733,0.648-19.094-0.102c-0.26-0.602-0.69-0.939-1.372-0.96c-0.843-0.025-1.477-0.287-1.273-1.331
		c2.45,0.07,4.882,0.918,7.854,0.18c-4.642-7.851-9.149-15.473-13.973-23.633c-3.705,5.599-4.652,11.353-6.358,16.814
		c-2.865-0.009-3.527-3.247-5.879-4.01c-0.045-0.761-0.09-1.521-0.136-2.282c0.163-0.977,0.234-1.98,0.502-2.928
		c4.606-16.284,24.244-30.213,40.619-25.485c0,2.483-0.001,4.966-0.001,7.448c-3.022,0.62-5.882-0.817-8.865-0.695
		c-1.547,0.037-3.138-0.33-4.771,0.26c1.539,2.91,3.538,5.052,5.602,7.186c3.083,3.187,6.385,6.13,9.053,9.777
		c1.881,2.572,4.111,5.169,7.156,6.685c3.375-1.279,3.307-4.634,4.202-7.293C457.626,183.886,456.9,179.885,457.022,175.975z
		 M447.849,200.809l-0.061,0.007c2.527,0.438,3.305-1.333,4.201-2.95c-0.912-1.187-1.963-0.779-2.896-0.871
		c-7.817-8.657-15.149-17.756-23.262-26.052c-1.083,0.47-1.83,0.794-2.576,1.117c-2.966-0.76-5.007,0.951-7.144,2.715
		c1.253,4.206,3.315,8.041,5.806,11.683c1.391,2.034,2.983,4.03,3.878,6.284c1.781,4.483,4.641,8.265,7.23,12.228
		c0.634,0.97,1.454,2.215,2.972,1.049c4.891,1.042,8.013-1.826,11.007-4.978c0.205,0.218,0.41,0.436,0.616,0.654
		C447.696,201.4,447.773,201.105,447.849,200.809z"/>
	<path style="fill:#767375;" d="M563.554,301.339c-2.039,1.096-3.677,0.751-5.64,0.574c-2.041-4.533-4.132-9.174-6.279-13.941
		c-8.389,0-16.649,0-25.069,0c-2.088,4.547-4.153,9.045-6.284,13.688c-1.684,0.838-3.405,0.358-5.667,0.227
		c7.306-16.167,14.395-31.854,21.457-47.483c2.165-0.568,4.111-0.473,6.297-0.109C549.423,269.959,556.487,285.646,563.554,301.339z
		 M528.716,282.746c7.251,0,13.678,0,20.716,0c-3.398-7.781-6.627-15.176-10.266-23.51
		C535.452,267.593,532.189,274.934,528.716,282.746z"/>
	<path style="fill:#6FBB50;" d="M350.564,20.186c0.471,0.437,0.922,0.896,1.417,1.304c0.627,0.517,1.289,0.993,1.981,1.52
		c-0.475,2.452-1.498,4.468-0.976,6.391c-2.38,1.252-3.799-1.041-5.604-0.386c0.003-2.156-1.804-2.576-3.232-3.33
		c-5.071-2.676-10.604-3.777-16.189-4.691c-2.015,0.018-4.03,0.036-6.045,0.055c-0.518,0.064-0.791,0.395-0.935,0.864
		c-3.754-0.776-7.042,0.216-9.271,3.278c-1.066,1.465-2.952,1.382-3.817,2.838c-1.187,1.431-3.336,2.258-2.943,4.682
		c-2.065,0.254-2.345,2.034-2.908,3.501c-1.963,5.111-2.25,10.454-2.06,15.852c-3.064-9.808,0.815-22.885,8.741-29.168
		c11.33-8.982,23.639-10.278,36.815-4.559C347.173,19.048,348.571,20.438,350.564,20.186z"/>
	<path style="fill:#6FBB50;" d="M438.953,19.506c-0.784-0.94-1.647-1.72-3.009-1.493c-4.894-2.568-9.995-2.387-15.254-1.407
		c-2.369,0.441-4.592,1.863-7.144,1.226c7.922-4.853,23.908-4.244,31.952,2.444c10.974,9.124,15.052,20.207,11.954,34.047
		c-0.179,0.801-0.245,1.628-0.364,2.443c-0.291,0.198-0.582,0.397-0.873,0.595c-1.899-2.005-4.325-2.447-6.936-2.339
		c0.487-3.242,1.161-6.471,1.401-9.732c0.184-2.495,1.135-5.162-0.697-7.506c-0.008-1.621-0.017-3.242-0.025-4.862
		c0.062-0.989-0.207-1.8-1.197-2.222C447.624,25.099,444.457,21.278,438.953,19.506z"/>
	<path style="fill:#497CAE;" d="M402.99,194.997c2.351,0.762,3.014,4.001,5.879,4.01c0.457,1.61,2.331,1.683,3.149,2.901
		c-0.768,2.125-3.784,3.129-3.005,6.026c-0.824-0.014-1.377-0.965-2.537-0.582c-2.291,5.975-6.354,10.886-11.385,14.984
		c-3.196,2.604-6.61,4.947-11.075,4.648c0.881-2.922,4.672-1.511,5.959-4.188c0-2.583,0.341-5.457-0.065-8.221
		c-1.149-7.829-2.052-15.658-1.895-23.583c1.534,0.627,0.774,2.033,1.048,3.088c0.819,7.601,1.639,15.203,2.55,23.654
		c4.552-5.038,7.087-10.052,8.387-15.734C400.263,199.352,402.082,197.369,402.99,194.997z"/>
	<path style="fill:#4477B4;" d="M273.928,107.092c-5.822-6.018-7.724-13.567-6.579-21.405c1.536-10.514,6.523-19.358,16.326-24.599
		c2.563-1.37,5.333-2.49,8.284-2.928c0,1.738,0,3.475,0,4.73c0.967,1.459,2.664,0.638,3.025,2.072
		c-4.077,1.259-8.511,1.446-12.144,4.04c-1.395-0.078-1.917,0.668-1.856,1.965c-0.775,0.046-1.55,0.092-2.178,0.129
		c-0.851,0.65-0.766,1.469-0.859,2.229c-1.281-0.473-2.238,0.027-3.07,0.987c-3.365,3.887-5.792,8.093-4.686,13.527
		c-2.352,1.42-0.638,2.253,0.518,2.973c0.984,0.612,2.603-0.422,3.298,1.159c-1.159,0.084-2.318,0.168-4.246,0.307
		c1.649,0.872,2.507,1.326,3.365,1.78c-0.371,1.419,0.983,2.293,1.122,3.55C274.144,100.77,274.036,103.931,273.928,107.092z"/>
	<path style="fill:#716F71;" d="M755.818,254.113c0,16.189,0,31.759,0,47.343c-1.472,1.077-2.925,0.394-4.615,0.587
		c0-15.975,0-31.676,0-47.418C752.522,253.559,753.974,254.256,755.818,254.113z"/>
	<path style="fill:#716F71;" d="M824.666,301.67c-1.483,0.6-2.776,0.45-4.399,0.165c0-15.665,0-31.373,0-47.235
		c1.143-1.091,2.646-0.314,4.399-0.542C824.666,269.959,824.666,285.654,824.666,301.67z"/>
	<path style="fill:#716F71;" d="M275.69,301.668c-1.471,0.618-2.767,0.431-4.392,0.182c0-15.671,0-31.378,0-47.268
		c1.144-0.98,2.615-0.493,4.392-0.322C275.69,269.954,275.69,285.65,275.69,301.668z"/>
	<path style="fill:#4477B4;" d="M483.416,123.649c5.506,7.543,7.296,15.636,3.914,24.633c-1.345,3.579-2.681,7.176-5.183,10.072
		c-5.108,5.913-10.96,10.774-19.097,11.887c-0.063-2.181-0.126-4.361-0.189-6.542c1.29-1.11,3.029-1.228,4.447-1.979
		c1.956-1.036,4.58-1.156,5.564-3.678c2.16-0.675,4.79-0.723,5.121-3.839c4.467-0.949,5.466-4.558,6.337-8.264
		c2.896-2.33,3.458-5.697,1.656-9.93c0.74-4.434-1.89-8-3.077-11.937C483.078,123.93,483.247,123.789,483.416,123.649z"/>
	<path style="fill:#4477B4;" d="M467.996,58.913c8.036,2.072,14.301,6.441,18.299,13.879c1.379,2.566,1.749,5.287,1.895,8.099
		c-2.228,1.25-0.758,3.378-1.2,5.051c-1.44,4.625-3.111,9.134-6.003,13.107c-0.801,1.101-1.449,2.189-3.047,1.894
		c0.163-2.258,2.615-3.42,2.721-5.815c-1.273-0.503-2.592-0.165-3.845,0.108c-5.637,1.231-11.284,2.44-16.862,3.906
		c-1.284,0.337-3.103,0.06-3.809,1.808c-1.217,0.238-2.586-0.443-3.653,0.535c0.142,1.691,1.887,2.849,1.318,4.678
		c-2.697-0.467-3.091-2.802-3.896-4.803c0.042-1.129,0.084-2.258,0.126-3.387c0.999,0.007,2.031,0.181,2.993-0.005
		c8.83-1.708,17.669-3.382,26.444-5.342c1.194-0.267,3.731,0.107,3.486-2.586c1.152-0.371,1.042-1.303,0.983-2.212
		c2.319-5.374,1.603-10.552-1.006-15.609c-0.133-1.243-0.934-1.902-2.021-2.312c-0.138-1.109-1.694-0.698-1.879-1.756
		c-2.261-4.619-6.961-5.978-10.997-8.224C468.029,59.589,468.013,59.251,467.996,58.913z"/>
	<path style="fill:#498544;" d="M413.546,17.831c2.552,0.637,4.776-0.784,7.144-1.226c5.259-0.98,10.36-1.16,15.254,1.407
		c-6.204,9.739-12.407,19.478-18.605,29.206c-1.672-1.08-1.234-2.168-1.361-3.102c5.957-7.875,10.596-16.564,16.544-25.542
		c-8.401,0.994-14.492,4.6-20.461,8.502c-1.148-2.58-3.4-5.023-0.995-8.043C411.643,18.119,412.617,18.021,413.546,17.831z"/>
	<path style="fill:#354794;" d="M477.941,100.943c1.597,0.295,2.245-0.793,3.047-1.894c2.892-3.973,4.564-8.482,6.003-13.107
		c0.631-0.308,1.262-0.616,1.893-0.924c1.675,10.872-3.076,19.242-10.338,26.654c-1.026,1.047-2.501,1.722-2.892,3.327
		c-1.807,0.091-3.065,1.434-4.649,2.033c-1.467-2.322-2.012-4.874-1.904-7.591c0.289-0.151,0.577-0.303,0.866-0.454
		c0.572-0.01,0.93-0.293,1.082-0.842l0.108-0.071c0.815,0.01,1.556-0.121,1.915-0.991c0.537-0.276,0.884-0.65,0.679-1.31
		l0.047-0.019c0.761,0.129,1.088-0.187,0.977-0.953l0.185,0.174l-0.154-0.202c0.775,0.103,1.095-0.214,0.916-0.992l0.06-0.059
		c0.823,0.145,1.099-0.179,0.829-0.969l0.081-0.118c1.509,0.254,1.3-0.776,1.257-1.682L477.941,100.943z"/>
	<path style="fill:#498544;" d="M357.12,22.084c-1.184-0.419-1.147-1.415-1.144-2.403c0.005-1.76,0.001-3.52,0.001-5.668
		c-2.296,0.632-2.537,3.213-4.548,3.166c1.717-5.185,4.894-9.239,9.46-12.218c1.765,1.948,3.701-0.396,5.984,0.318
		c1.6,9.833,2.819,19.862,3.277,29.957c-1.594,0.491-1.863-0.578-2.317-1.384c-0.793-7.922-1.585-15.843-2.43-24.278
		C361.116,13.4,359.301,17.86,357.12,22.084z"/>
	<path style="fill:#498544;" d="M299.981,52.065c-0.191-5.398,0.097-10.741,2.06-15.852c0.564-1.468,0.844-3.247,2.908-3.501
		c3.857,1.853,5.581,5.853,8.585,8.573c0.764,0.692,0.477,1.856,0.396,2.838c-2.972-2.078-4.673-5.449-7.755-7.908
		c-1.187,7.417,0.105,14.131,2.599,20.698c-0.599,0.046-1.199,0.093-1.798,0.139c-2.102-0.069-4.204-0.138-6.306-0.206
		C300.332,55.268,299.781,53.721,299.981,52.065z"/>
	<path style="fill:#354794;" d="M375.1,227.142c-0.326,0.686-0.933,1.01-1.614,0.857c-11.61-2.609-20.852-8.323-25.712-19.735
		c0.899-1.817,2.464-1.484,3.803-0.906c1.101,0.476,2.187,0.627,3.322,0.745c0.305,0.355,0.611,0.71,0.916,1.066
		c0.139,0.77,0.231,1.566,1.087,1.932c0.316,0.353,0.631,0.706,0.947,1.06c0.316,0.343,0.632,0.686,0.947,1.028
		c0.169,0.75,0.259,1.547,1.125,1.88c0.316,2.349,1.803,3.534,3.993,4.023c1.044,1.398,1.942,2.998,4.051,2.914
		c1.184,1.869,3.002,2.659,5.089,2.991C373.263,226.163,375.018,225.855,375.1,227.142z"/>
	<path style="fill:#4477B4;" d="M336.906,210.756c-8.99,3.089-17.481,2.53-25.132-3.589c-1.264-1.011-2.972-1.531-3.715-3.16
		c0.217-0.209,0.433-0.417,0.65-0.626c-0.299-0.075-0.598-0.15-0.897-0.225l0,0.031c0.373-1.08-0.324-1.804-0.729-2.713
		c-2.058-4.621-4.255-9.231-4.079-14.49c-0.004-2-0.008-4.001-0.012-6.001c-0.213-2.408,1.487-4.54,1.009-6.986
		c0.403,0.015,0.805,0.03,1.208,0.046c-0.199,5.982-0.911,11.987,0.818,17.881c-0.133,1.434,0.434,2.202,1.96,2.054
		c0.202,0.677-1.548,1.383,0.031,2.039c-0.006,0.775-0.135,1.603,0.849,1.945c-0.345,3.99,2.414,5.954,5.169,7.921
		c0.285,1.279,1.245,1.117,2.176,1.018c0.279-0.052,0.535,0.003,0.767,0.165c0.041,1.027,0.229,1.905,1.558,1.916
		c1.027,0.008,1.36-0.617,1.51-1.47c0.601-0.55,1.203-1.1,1.804-1.65c0.875,1.675-1.012,3.204-0.485,4.799
		c0.982,0.322,1.401-0.057,1.681-0.699c0.666,0.04,1.332,0.079,1.997,0.119c1.172,1.766,2.946,0.665,4.432,0.906
		C331.934,210.388,334.555,209.247,336.906,210.756z"/>
	<path style="fill:#4A87BC;" d="M462.861,163.699c0.063,2.181,0.126,4.361,0.189,6.542c-1.211,1.244-2.938,1.114-4.419,1.459
		c-1.471,0.343-1.687,1.187-1.843,2.32c-0.489-0.624-0.979-1.247-1.55-1.975c-2.071,0-4.201,0-6.331,0
		c-1.645-0.098-3.289-0.196-4.934-0.294c0-2.483,0.001-4.966,0.001-7.448c1.215-0.353,1.119-1.381,1.195-2.321
		c0.291,0.01,0.582,0.016,0.873,0.019c0.01,2.064,1.087,3.008,3.109,2.984c1.657-0.019,3.315-0.016,4.973-0.023
		C457.037,164.541,459.949,164.12,462.861,163.699z"/>
	<path style="fill:#4A87BC;" d="M273.928,107.092c0.108-3.161,0.215-6.322,0.323-9.482c4.115,3.968,7.601,8.634,12.734,11.473
		c-0.028,2.929,3.335,3.585,4.038,6.023c-0.541,1.343-1.553,1.968-2.983,1.953c-2.676-1.319-4.509-4.294-7.975-4.063
		c-2.078-1.182-3.743-2.811-5.127-4.743c-0.014-0.681-0.318-1.117-1.023-1.218L273.928,107.092z"/>
	<path style="fill:#354794;" d="M448.907,172.046c2.13,0,4.26,0,6.331,0c0.571,0.727,1.06,1.351,1.55,1.975
		c0.078,0.651,0.156,1.303,0.234,1.954c-0.122,3.91,0.605,7.912-0.671,11.697c-0.895,2.658-0.827,6.013-4.202,7.293
		c0.019-1.85-0.24-3.629-1.321-5.199C451.556,183.71,450.854,177.811,448.907,172.046z"/>
	<path style="fill:#5095CB;" d="M300.671,56.846c2.102,0.069,4.204,0.138,6.306,0.206c-0.042,2.554-0.149,5.116,0.998,7.511
		c-1.361,0.127-2.723,0.253-4.084,0.38c-2.969,0.006-5.937,0.013-8.906,0.019c-0.361-1.435-2.058-0.613-3.025-2.072
		c0-1.255,0-2.993,0-4.73C294.669,56.436,297.756,57.212,300.671,56.846z"/>
	<path style="fill:#4A87BC;" d="M336.906,210.756c-2.35-1.509-4.971-0.369-7.43-0.769c-1.486-0.242-3.259,0.86-4.432-0.906
		c1.33-0.626,2.18-1.724,2.903-2.948c1.662-0.004,3.198-0.469,4.786-0.973c3.978-1.264,7.294-3.721,10.902-5.646
		c0.797,2.637,1.683,5.236,3.297,7.514c-1.893-0.468-3.007,1.115-4.502,1.698C340.602,209.439,339.028,210.849,336.906,210.756z"/>
	<path style="fill:#4477B4;" d="M287,168.007c-10.537-4.226-17.313-11.499-18.728-23.115c0.6-0.394,0.797-0.966,0.747-1.657
		c-0.338-4.644,1.967-8.324,4.383-11.956c0.469-0.705,1.079-1.204,2.015-0.786c-0.153,0.867-0.305,1.733-0.458,2.6
		c-0.475,1.098-2.465,1.19-1.955,2.943c-0.195,0.56-0.391,1.12-0.475,1.363c0.98,2.08,2.534-1.315,3.535,0.704
		c-0.965,1.795-3.376,1.134-4.739,2.97c-1.067,5.314,0.049,10.399,3.681,14.914c0.108,0.585,0.465,0.924,1.035,1.055
		c0.306,1.011,0.979,1.656,1.974,1.98c0.001,0.317-0.003,0.634-0.01,0.951c2.847,3.263,7.237,4.609,9.963,8.022
		C287.645,167.978,287.322,167.982,287,168.007z"/>
	<path style="fill:#4460A5;" d="M275.417,130.493c-0.936-0.418-1.547,0.082-2.015,0.786c-2.416,3.633-4.72,7.313-4.383,11.956
		c0.05,0.691-0.146,1.263-0.747,1.657c-2.426-8.976-0.198-16.881,5.513-23.986c2.17,0.329,4.145,0.989,5.246,3.117
		c0.12,0.403,0.241,0.806,0.361,1.209l-0.098,0.076c-1.509-0.182-1.228,0.889-1.231,1.76l0.013-0.017
		c-0.657,0.063-0.99,0.41-0.955,1.083l0.029,0.003c-1.704-0.219-2.427,0.383-1.783,2.13L275.417,130.493z"/>
	<path style="fill:#4A87BC;" d="M388.016,190.992c-0.158,7.925,0.745,15.755,1.895,23.583c0.406,2.764,0.065,5.638,0.065,8.221
		c-1.287,2.677-5.078,1.267-5.959,4.188c-1.018-0.021-2.035-0.042-3.053-0.062c-0.217-1.14-1.957-0.831-2.018-2.12
		c2.255-0.741,4.452-1.689,6.853-1.901c0.642-0.009,1.319,0.151,2.1-0.645c0-3.535,0.37-7.379-0.08-11.123
		c-0.846-7.036-2.147-14.017-1.747-21.152C386.888,189.995,387.714,189.99,388.016,190.992z"/>
	<path style="fill:#4A87BC;" d="M287,168.007c0.323-0.025,0.645-0.029,0.969-0.013c1.887-0.218,3.698,0.243,5.572,0.97
		c0.464-2.152,1.672-3.75,1.482-5.746c1.656-0.014,3.312-0.028,4.967-0.042c0.582,1.851-1.471,3.329-0.658,5.397
		c2.083,0.897,4.403,0.213,6.643,0.411c0.013,0.685,0.027,1.369,0.04,2.054c-0.067,0.749-0.027,1.542-0.806,2.005
		c-0.403-0.015-0.805-0.03-1.208-0.046c-1.786-1.289-3.838-1.001-5.844-0.982c-1.526-1.923-3.967-0.886-5.867-1.809
		C290.591,169.382,288.548,169.283,287,168.007z"/>
	<path style="fill:#354794;" d="M423.991,207.936c6.361,0.75,12.731-0.312,19.094,0.102c-5.711,4.134-12.108,5.365-19.002,4.493
		C424.052,210.999,424.021,209.467,423.991,207.936z"/>
	<path style="fill:#466AAA;" d="M346.931,207.028c-1.614-2.279-2.5-4.877-3.297-7.514c0.088-0.51,0.176-1.021,0.264-1.531
		c2.821,0.191,5.051,2.771,8.109,2.006c0.116,0.587,0.482,0.919,1.058,1.038c0.157,0.689-1.333,1.187-0.207,2.003
		c1.553,1.126,1.94,2.932,2.59,4.58c-0.186,0.161-0.369,0.326-0.549,0.494c-1.136-0.118-2.221-0.27-3.322-0.745
		c-1.339-0.578-2.904-0.912-3.803,0.906C347.206,208.048,347.02,207.571,346.931,207.028z"/>
	<path style="fill:#4460A5;" d="M303.004,185.985c-0.176,5.259,2.021,9.869,4.079,14.49c0.405,0.909,1.102,1.633,0.729,2.713
		c-5.001-2.663-6.814-7.644-8.754-12.421c-0.574-1.415-1.333-3.039-0.918-4.756C299.762,186.002,301.383,185.994,303.004,185.985z"
		/>
	<path style="fill:#4460A5;" d="M456.214,57.361c0.291-0.198,0.582-0.397,0.873-0.595c2.646,0.345,5.428-0.183,7.909,1.227
		c0.008,0.32,0.02,0.639,0.035,0.958c-0.461,0.087-0.922,0.173-1.73,0.325c0.813,1.657,0.753,3.354,0.537,5.056
		c-3.086-0.095-6.173-0.19-9.259-0.285C454.891,61.76,456.381,59.763,456.214,57.361z"/>
	<path style="fill:#4460A5;" d="M423.991,207.936c0.031,1.532,0.061,3.064,0.092,4.595c-3.586,0.055-7.026-0.502-10.142-2.421
		c-0.243-3.109,1.447-4.711,4.247-5.448l-0.021,0.099c0.446,1.972,1.852,1.067,2.98,0.994l0.199-0.109
		c-0.204,1.044,0.43,1.305,1.273,1.331C423.301,206.996,423.731,207.334,423.991,207.936z"/>
	<path style="fill:#466AAA;" d="M471.005,117.033c1.584-0.599,2.843-1.943,4.649-2.033c1.451,0.632,2.571,1.63,3.334,3.021
		c-0.009,0.348-0.019,0.697-0.028,1.045c-0.819,0.004-1.614,0.011-1.896,1.041c-0.379,1.384-0.804,2.755-1.209,4.131
		c-2.207-1.376-4.224-2.981-5.951-4.935C470.271,118.546,470.638,117.79,471.005,117.033z"/>
	<path style="fill:#497CAE;" d="M298.157,172.016c2.006-0.019,4.058-0.307,5.844,0.982c0.478,2.446-1.222,4.578-1.009,6.986
		c-1.911-0.028-3.57-1.553-5.588-0.939C296.89,176.621,297.052,174.268,298.157,172.016z"/>
	<path style="fill:#4477B4;" d="M280.065,112.995c3.466-0.23,5.298,2.744,7.975,4.063c-0.005,0.605-0.009,1.21-0.014,1.816
		c-1.573,0.016-2.732,1.165-4.178,1.527c-1.344-0.31-2.279-1.239-3.133-2.21c-0.978-1.112-2.173-1.304-3.522-1.141
		C277.609,115.315,279.901,114.909,280.065,112.995z"/>
	<path style="fill:#4477B4;" d="M418.188,204.662c-2.8,0.737-4.49,2.339-4.247,5.448c-1.934-0.066-3.53-0.897-4.928-2.176
		c-0.779-2.897,2.237-3.901,3.005-6.026C414.214,202.514,416.244,203.492,418.188,204.662z"/>
	<path style="fill:#466AAA;" d="M277.193,117.05c1.349-0.163,2.545,0.029,3.522,1.141c0.854,0.971,1.789,1.899,3.133,2.21
		c-0.532,0.947-0.784,2.11-1.971,2.551c-0.81,0.101-1.803-0.023-1.618,1.309l-0.04,0.068c-0.396-0.102-0.793-0.204-1.189-0.307
		c-1.101-2.128-3.076-2.788-5.246-3.117C274.491,119.24,275.587,117.92,277.193,117.05z"/>
	<path style="fill:#466AAA;" d="M297.404,179.046c2.018-0.615,3.678,0.911,5.588,0.939c0.004,2,0.008,4.001,0.012,6.001
		c-1.621,0.008-3.242,0.017-4.863,0.025C297.422,183.739,296.783,181.459,297.404,179.046z"/>
	<path style="fill:#497CAE;" d="M378.945,224.802c0.061,1.289,1.801,0.98,2.018,2.12c-1.897,1.593-3.861,1.432-5.863,0.22
		c-0.082-1.287-1.837-0.979-2.044-2.145c0.481-0.117,0.963-0.235,1.444-0.352C375.982,224.697,377.464,224.749,378.945,224.802z"/>
	<path style="fill:#466AAA;" d="M488.883,85.019c-0.631,0.308-1.262,0.616-1.893,0.924c0.442-1.674-1.028-3.802,1.2-5.051
		C489.255,82.127,488.995,83.586,488.883,85.019z"/>
	<path style="fill:#354794;" d="M443.019,208.097c0.087-1.217,1.089-0.934,1.814-1.105
		C444.481,207.775,443.807,208.028,443.019,208.097z"/>
	<path style="fill:#4477B4;" d="M482.191,121.817c0.732,0.394,0.957,1.127,1.225,1.832c-0.169,0.141-0.338,0.282-0.507,0.423
		c-0.844-0.353-0.936-1.151-1.122-1.894C481.925,122.061,482.06,121.941,482.191,121.817z"/>
	<path style="fill:#4477B4;" d="M479.965,119.036c0.771,0.289,1.107,0.932,1.345,1.654c-0.135,0.137-0.272,0.272-0.413,0.403
		c-0.788-0.33-0.95-1.093-1.228-1.775L479.965,119.036z"/>
	<path style="fill:#4477B4;" d="M465.03,58.951c-0.015-0.319-0.027-0.639-0.035-0.959c0.827-0.126,1.562,0.042,2.157,0.666
		c-0.054,0.189-0.114,0.375-0.181,0.56C466.325,59.129,465.678,59.04,465.03,58.951z"/>
	<path style="fill:#4460A5;" d="M307.813,203.157c0.299,0.075,0.598,0.15,0.897,0.225c-0.217,0.209-0.433,0.417-0.65,0.626
		C307.714,203.8,307.631,203.517,307.813,203.157z"/>
	<path style="fill:#4477B4;" d="M273.916,107.035c0.704,0.101,1.009,0.537,1.023,1.218
		C274.397,108.015,274.022,107.638,273.916,107.035z"/>
	<path style="fill:#4477B4;" d="M481.31,120.691c0.294,0.376,0.587,0.751,0.881,1.127c-0.132,0.124-0.266,0.244-0.404,0.361
		c-0.297-0.361-0.593-0.723-0.89-1.084C481.038,120.962,481.175,120.828,481.31,120.691z"/>
	<path style="fill:#4460A5;" d="M467.996,58.913c0.016,0.338,0.032,0.677,0.048,1.015c-0.529,0.022-0.872-0.235-1.073-0.709
		c0.066-0.185,0.126-0.371,0.181-0.56C467.459,58.661,467.74,58.746,467.996,58.913z"/>
	<path style="fill:#4477B4;" d="M478.96,119.066c0.009-0.348,0.019-0.697,0.028-1.045c0.56,0.113,0.868,0.469,0.977,1.016
		l-0.296,0.282C479.461,119.154,479.225,119.07,478.96,119.066z"/>
	<path style="fill:#498544;" d="M382.664,38.329c1.301-6.46,1.358-13.06,2.194-19.573c0.544-4.236,0.91-8.495,1.356-12.743
		c0.795-0.007,1.52,0.121,1.874,0.968c-0.077,11.354-1.52,22.559-3.12,33.654C382.491,40.877,383.134,39.189,382.664,38.329z"/>
	<path style="fill:#466AAA;" d="M420,53.948c2.156,0.04,3.944,1.308,5.968,1.787c-0.29,0.674-0.58,1.348-0.84,1.955
		c0.321,0.871,0.95,1.28,1.649,1.615c0.772,1.095,1.986,1.016,3.112,1.169c0.946,2.361,2.99,2.517,5.101,2.537
		c0.45,1.175,1.47,0.962,2.401,1.005c0.906,0.041,1.941-0.297,2.537,0.775c-7.72,0.851-14.148-1.775-19.513-7.257
		C420.276,56.338,420.138,55.143,420,53.948z"/>
	<path style="fill:#6FBB50;" d="M343.16,52.068c0.034,1.422-0.834,2.253-1.926,2.937c-5.055,1.699-10.083,3.505-15.494,3.721
		c-0.258-0.235-0.516-0.469-0.774-0.704c-0.009-0.34-0.019-0.681-0.028-1.021c0.328-0.025,0.656-0.035,0.985-0.031
		c1.781-0.396,4.041,1.122,5.307-1.329c1.417,0.836,2.486-0.221,3.666-0.675c0.611-0.072,0.978-0.403,1.082-1.014l-0.024,0.021
		c1.456,0.002,3.18,0.411,3.045-2.004c0.292-0.019,0.583-0.031,0.876-0.037C340.969,51.976,342.065,52.022,343.16,52.068z"/>
	<path style="fill:#498544;" d="M330.088,36.917c3.646,2.367,5.352,5.879,5.931,10.056l-0.135,0.123
		c-2.383-3.119-4.428-6.435-5.889-10.092L330.088,36.917z"/>
	<path style="fill:#498544;" d="M339.874,51.931c-0.292,0.006-0.584,0.018-0.876,0.037c-0.394-0.026-0.789-0.052-1.183-0.078
		c-0.644-1.598-1.288-3.196-1.932-4.794c0,0,0.135-0.123,0.135-0.123C338.418,47.759,339.375,49.667,339.874,51.931z"/>
	<path style="fill:#498544;" d="M326.026,29.97c2.715,0.661,3.028,2.739,2.971,5.036l-0.127,0.102
		c-1.456-1.403-2.338-3.142-2.955-5.037L326.026,29.97z"/>
	<path style="fill:#767375;" d="M419.176,51.092c0.06,0.336-0.01,0.642-0.21,0.918c-2.27-0.142-1.712-1.805-1.775-3.592
		C418,49.507,418.588,50.3,419.176,51.092z"/>
	<path style="fill:#498544;" d="M323.958,26.033c2.006,0.621,2.109,2.241,2.068,3.937l-0.111,0.1
		c-1.318-0.913-1.785-2.339-2.268-3.756L323.958,26.033z"/>
	<path style="fill:#498544;" d="M328.997,35.005c1.074,0.232,0.971,1.135,1.091,1.912l-0.093,0.087
		c-0.8-0.38-1.064-1.078-1.125-1.897L328.997,35.005z"/>
	<path style="fill:#498544;" d="M321.971,23.019c1.094,0.238,0.993,1.141,1.078,1.94l-0.096,0.081
		c-0.781-0.387-1.024-1.096-1.128-1.888L321.971,23.019z"/>
	<path style="fill:#498544;" d="M320.98,21.913c0.144-0.469,0.417-0.8,0.935-0.864c0.019,0.657,0.037,1.313,0.056,1.97l-0.145,0.132
		C321.269,22.927,321.061,22.463,320.98,21.913z"/>
	<path style="fill:#767375;" d="M418.975,52.029c0.553-0.063,0.697,0.311,0.791,0.739c-0.277,0.136-0.561,0.153-0.853,0.053
		C418.697,52.538,418.717,52.274,418.975,52.029z"/>
	<path style="fill:#498544;" d="M323.049,24.958c0.564,0.137,0.872,0.491,0.909,1.074l-0.312,0.281
		c-0.491-0.283-0.713-0.713-0.693-1.274L323.049,24.958z"/>
	<path style="fill:#466AAA;" d="M418.914,52.821c0.292,0.1,0.576,0.083,0.853-0.053c0.094,0.415,0.189,0.83,0.283,1.245
		C419.217,54.047,419.056,53.443,418.914,52.821z"/>
	<path style="fill:#4460A5;" d="M423.255,172.061c-1.507,1.284-3.013,2.569-4.635,3.951c5.991,10.345,11.684,20.177,17.377,30.008
		c-1.518,1.165-2.339-0.08-2.972-1.049c-2.589-3.963-5.449-7.745-7.23-12.228c-0.895-2.254-2.487-4.25-3.878-6.284
		c-2.491-3.642-4.554-7.476-5.806-11.683C418.248,173.012,420.289,171.301,423.255,172.061z"/>
	<path style="fill:#497CAE;" d="M435.109,171.057c-0.138,0.69,0.025,1.288,0.501,1.816c5.075,5.629,10.146,11.261,15.218,16.892
		c1.081,1.57,1.34,3.35,1.321,5.199c-3.045-1.515-5.274-4.113-7.156-6.685c-2.668-3.647-5.97-6.59-9.053-9.777
		c-2.065-2.134-4.063-4.276-5.602-7.186C431.971,170.726,433.562,171.094,435.109,171.057z"/>
	<path style="fill:#4A87BC;" d="M399.285,191.835c1.237,0.102,2.076,1.818,3.57,0.88c0.045,0.761,0.09,1.521,0.136,2.282
		c-0.908,2.372-2.727,4.355-2.99,7.002c-1.657-1.362-3.314-2.723-4.971-4.085C396.475,195.907,396.469,192.883,399.285,191.835z"/>
	<path style="fill:#4460A5;" d="M447.789,200.816c-0.389-1.555,0.916-2.532,1.305-3.821c0.933,0.092,1.984-0.316,2.896,0.871
		C451.094,199.484,450.316,201.255,447.789,200.816z"/>
	<path style="fill:#4460A5;" d="M447.004,201.042c0.213-0.331,0.494-0.409,0.845-0.233c-0.076,0.296-0.153,0.591-0.229,0.887
		C447.415,201.478,447.21,201.26,447.004,201.042z"/>
	<path style="fill:#58B24E;" d="M307.893,28.029c-0.075,1.351,1.097,1.748,1.806,2.57c7.183,8.342,14.769,16.338,21.532,25.04
		c-1.267,2.451-3.527,0.932-5.307,1.329c-0.34-1.052-0.914-1.827-2.153-1.813l0.099,0.058c-0.598-1.431-0.638-3.395-3-3.143
		l0.082,0.049c-0.033-0.661-0.377-1.029-1.036-1.1l0.065,0.068c-0.057-0.63-0.396-0.998-1.023-1.095l0.05,0.055
		c-0.076-0.592-0.407-0.951-0.989-1.08l0.018,0.02c0.007-2.171-0.249-4.129-3.185-3.889l0.083,0.03
		c-0.002-0.683-0.34-1.052-1.026-1.095l0.023,0.09c0.081-0.982,0.369-2.146-0.396-2.838c-3.004-2.72-4.728-6.72-8.585-8.573
		C304.557,30.287,306.705,29.46,307.893,28.029z"/>
	<path style="fill:#58B24E;" d="M445.83,94.075c-3.125-3.143-3.318-7.27-3.734-11.297c-0.64-6.198,1.418-11.961,3.002-17.795
		c1.362-2.551,2.37-5.241,3.158-8.018c0.341-0.648,0.682-1.295,1.023-1.943c2.612-0.108,5.037,0.334,6.936,2.339
		c0.167,2.403-1.324,4.399-1.636,6.685c-2.779,4.918-4.964,10.085-6.514,15.52c-0.339,0.742-0.734,1.464-1.006,2.229
		C445.636,85.783,446.274,89.984,445.83,94.075z"/>
	<path style="fill:#58B24E;" d="M449.982,37.784c-4.796,5.414-9.59,10.83-14.392,16.239c-0.759,0.855-1.686,1.588-1.898,2.81
		c-1.834,0.622-2.412,2.556-3.803,3.641c-1.126-0.153-2.339-0.074-3.112-1.169c2.562-4.488,6.304-8.077,9.692-11.845
		c4.411-4.907,8.134-10.499,13.488-14.538C449.965,34.542,449.973,36.163,449.982,37.784z"/>
	<path style="fill:#498544;" d="M449.957,32.921c-5.354,4.039-9.077,9.631-13.488,14.538c-3.388,3.768-7.13,7.357-9.692,11.845
		c-0.699-0.335-1.328-0.744-1.649-1.615c0.261-0.606,0.551-1.28,0.84-1.955c6.322-7.053,12.634-14.114,18.974-21.15
		c1.214-1.348,2.542-2.593,3.817-3.886C449.75,31.121,450.019,31.932,449.957,32.921z"/>
	<path style="fill:#5095CB;" d="M395.03,197.914c-2.364-0.694-3.125-3.883-5.966-3.834c-0.274-1.055,0.486-2.461-1.048-3.088
		c-0.302-1.001-1.127-0.997-1.943-1.01c-0.37-0.906-1.195-0.994-2.003-1.113c-0.335-0.69-0.928-0.86-1.631-0.807l-0.329,0.097
		c-0.137-0.602-0.452-1.037-1.094-1.165l-0.01-0.009c-1.235-2.761-4.24-2.034-6.289-3.191c8-1.991,14.85,0.973,21.382,5.08
		c1.199,0.754,2.746,1.315,3.187,2.961C396.469,192.883,396.475,195.907,395.03,197.914z"/>
	<path style="fill:#497CAE;" d="M282.84,69.002c8.23,4.097,16.727,7.575,25.282,10.919c0.618,0.347,1.237,0.693,1.856,1.04
		c1.11,1.164,2.757,2.162,1.264,4.124c-0.783-0.218-1.594-0.366-2.343-0.666c-9.609-3.851-18.621-8.943-27.913-13.452
		C280.923,69.67,281.445,68.925,282.84,69.002z"/>
	<path style="fill:#4A87BC;" d="M280.984,70.968c9.293,4.509,18.305,9.601,27.913,13.452c0.75,0.3,1.561,0.448,2.343,0.666
		c-0.35,1.452-1.558,1.848-2.764,2.248c-5.039-3.215-10.788-4.878-16.142-7.403c-4.773-2.251-9.864-3.811-14.387-6.605
		c0.092-0.76,0.008-1.579,0.859-2.229C279.435,71.06,280.21,71.014,280.984,70.968z"/>
	<path style="fill:#4460A5;" d="M270.193,87.84c10.872,1.88,21.581,4.519,32.336,6.945c0.804,0.182,1.615,0.335,2.423,0.501
		c0.047,0.765,0.01,1.49-0.871,1.808c-0.851-0.075-1.732-0.221-2.089,0.879c-0.639-0.021-1.278-0.041-1.918-0.062
		c-0.041-1.388-0.69-2.059-2.126-1.8c-0.65-0.01-1.301-0.019-1.951-0.029c-0.602-1.615-1.941-0.931-3.046-0.977
		c-0.647-0.014-1.294-0.029-1.941-0.043c-5.271-1.354-10.423-3.339-16.01-3.027c-0.33-0.02-0.66-0.041-0.99-0.063
		c-0.696-1.581-2.314-0.547-3.298-1.159C269.555,90.093,267.841,89.26,270.193,87.84z"/>
	<path style="fill:#4A87BC;" d="M291.01,95.061c0.647,0.014,1.294,0.029,1.941,0.043c0.418,2.188,1.386,2.663,3.046,0.977
		c0.65,0.01,1.301,0.019,1.951,0.029c0.005,1.432,0.713,2.032,2.126,1.8c0.639,0.021,1.278,0.041,1.918,0.062
		c0.003,0.679,0.007,1.357,0.01,2.036l0.007-0.007c-0.765,0.025-1.53,0.05-2.296,0.075c-8.861-2.006-17.723-4.011-26.584-6.017
		c-0.858-0.454-1.716-0.908-3.365-1.78c1.928-0.14,3.087-0.223,4.246-0.307c0.33,0.022,0.66,0.043,0.99,0.063
		c3.369,2.277,7.329,2.444,11.147,2.877C287.713,95.09,289.357,97.451,291.01,95.061z"/>
	<path style="fill:#497CAE;" d="M472.872,158.042c-6.188-2.647-12.372-5.301-18.566-7.935c-1.659-0.705-3.345-1.348-5.019-2.019
		c-0.758-0.363-1.516-0.726-2.274-1.089c-0.763-1.523-1.713-3.033-0.337-4.821c0.893-0.101,1.815-0.206,2.737-0.311
		c9.667,3.785,19.175,7.939,28.579,12.335C477.663,157.318,475.033,157.367,472.872,158.042z"/>
	<path style="fill:#354794;" d="M478.96,119.066c0.265,0.004,0.501,0.088,0.709,0.253c0.279,0.682,0.441,1.445,1.228,1.775
		c0.297,0.361,0.593,0.723,0.89,1.084c0.186,0.743,0.278,1.541,1.122,1.894c1.187,3.938,3.817,7.503,3.077,11.937l0.028-0.021
		c-1.91-0.956-3.908-1.641-6.022-1.97c0.354-0.452,0.709-0.903,1.063-1.355c-0.046-3.85-3.695-5.476-5.201-8.425
		c0.405-1.376,0.831-2.747,1.209-4.131C477.346,119.077,478.141,119.07,478.96,119.066z"/>
	<path style="fill:#354794;" d="M484.33,145.939c-0.078-2.313-0.156-4.626-0.233-6.939c2.353,0.087,1.944-1.584,1.918-3.011
		l-0.028,0.021C487.788,140.241,487.226,143.608,484.33,145.939z"/>
	<path style="fill:#4460A5;" d="M482.941,72.22c-1.858-0.225-3.395,0.613-5.025,1.348c-9.686,4.369-19.411,8.653-29.403,13.09
		c-0.735,1.076,0.123,2.656-0.383,4.041c-0.285,2.373-0.282,4.661,1.881,6.304c-0.018,0.324-0.008,0.647,0.031,0.97
		c-0.042,1.129-0.084,2.258-0.126,3.387c-2.071-2.031-3.888-4.204-4.087-7.285c0.444-4.091-0.194-8.292,1.228-12.28
		c0.273-0.765,0.668-1.487,1.006-2.229c0.32,0.144,0.64,0.288,0.961,0.432c-0.022,0.66-0.044,1.319-0.066,1.979
		c-0.131,0.084-0.298,0.143-0.383,0.261c-0.071,0.098-0.092,0.371-0.057,0.386c1.99,0.865,3.53,0.422,4.51-1.591l-0.006,0.004
		c3.708-0.408,7.097-1.609,9.994-4.028l-0.013,0.01c6.426-1.225,11.973-4.668,17.917-7.11
		C482.007,70.318,482.808,70.977,482.941,72.22z"/>
	<path style="fill:#466AAA;" d="M450.011,97.003c-2.163-1.643-2.166-3.93-1.881-6.304c2.117,0.069,1.932,2.512,4.035,3.621
		c10.36-1.312,20.909-4.756,31.782-6.492c0.059,0.909,0.169,1.841-0.983,2.212c-1.68-0.11-3.149,0.772-4.755,1.077
		C468.778,92.908,459.405,95.008,450.011,97.003z"/>
	<path style="fill:#354794;" d="M466.972,59.218c0.2,0.474,0.544,0.732,1.073,0.709c4.036,2.246,8.735,3.605,10.997,8.224
		c-0.68,0.031-1.36,0.063-2.04,0.094c-0.351-0.056-0.703-0.113-1.054-0.169c-3.703-2.326-8.061-2.535-12.11-3.745
		c0.216-1.702,0.275-3.399-0.537-5.056c0.808-0.152,1.269-0.238,1.73-0.325C465.678,59.04,466.325,59.129,466.972,59.218z"/>
	<path style="fill:#4A87BC;" d="M450.011,97.003c9.393-1.996,18.767-4.095,28.199-5.886c1.606-0.305,3.074-1.187,4.755-1.077
		c0.244,2.693-2.293,2.319-3.486,2.586c-8.775,1.96-17.614,3.634-26.444,5.342c-0.962,0.186-1.994,0.012-2.993,0.005
		C450.003,97.651,449.993,97.328,450.011,97.003z"/>
	<path style="fill:#5095CB;" d="M456.147,100.95c1.069,0.597,2.311,0.978,2.823,2.267c0.006,2.255,0.013,4.511,0.019,6.766
		c-0.678,0.012-1.357,0.024-2.035,0.036l0.035,0.028c-0.075-0.621-0.423-0.965-1.046-1.03l0.04,0.04
		c-0.066-0.628-0.408-0.979-1.042-1.037l0.028,0.036c0.045-0.876,0.186-1.803-1.052-2.009l-0.106,0.116
		c0.569-1.829-1.176-2.987-1.318-4.678C453.56,100.508,454.929,101.189,456.147,100.95z"/>
	<path style="fill:#4A87BC;" d="M477.001,68.246c0.68-0.031,1.36-0.063,2.04-0.094c0.185,1.058,1.742,0.648,1.879,1.756
		c-5.943,2.443-11.49,5.885-17.917,7.11c0.397-1.186,1.352-1.558,2.426-2.079c3.229-1.567,7.07-1.986,9.578-4.942
		c0-0.296-0.002-0.592-0.008-0.888c0.192-0.18,0.418-0.244,0.676-0.194C476.259,68.971,476.728,68.803,477.001,68.246z"/>
	<path style="fill:#4460A5;" d="M467.012,109.186c0.696,0.085,1.392,0.171,2.088,0.256c-0.108,2.717,0.438,5.269,1.904,7.591
		c-0.367,0.756-0.734,1.513-1.101,2.269c-1.124-0.436-1.913,0.498-2.879,0.706c-0.502,0.018-0.854,0.241-1.007,0.736
		c-0.313,0.166-0.626,0.332-0.939,0.498c-0.659-2.707,1.092-5.724-1.062-8.238C464.779,111.547,467.326,111.489,467.012,109.186z"/>
	<path style="fill:#4460A5;" d="M471.156,108.075c0.067-0.578,0.452-0.856,0.96-1.019l0.478-0.006l0.477,0.033
		C472.712,107.954,471.97,108.085,471.156,108.075z"/>
	<path style="fill:#4477B4;" d="M473.071,107.084l-0.477-0.033l-0.478,0.006c0.248-0.806,0.815-1.205,1.635-1.283
		C473.955,106.434,473.608,106.808,473.071,107.084z"/>
	<path style="fill:#4477B4;" d="M476.691,102.636c0.081-0.813,0.322-1.507,1.257-1.682
		C477.991,101.86,478.2,102.889,476.691,102.636z"/>
	<path style="fill:#4477B4;" d="M473.797,105.755c0.08-0.569,0.397-0.896,0.977-0.953
		C474.885,105.568,474.557,105.883,473.797,105.755z"/>
	<path style="fill:#4477B4;" d="M474.805,104.774c0.053-0.563,0.338-0.913,0.916-0.992C475.9,104.56,475.58,104.877,474.805,104.774
		z"/>
	<path style="fill:#4477B4;" d="M475.781,103.723c0.019-0.544,0.293-0.869,0.829-0.969
		C476.88,103.545,476.604,103.868,475.781,103.723z"/>
	<path style="fill:#4460A5;" d="M469.966,108.989c0.128-0.579,0.473-0.88,1.082-0.842
		C470.896,108.696,470.538,108.979,469.966,108.989z"/>
	<path style="fill:#497CAE;" d="M308.774,56.913c2.066,0.119,4.131,0.237,6.197,0.356c3.257,1.249,6.651,0.668,9.995,0.752
		c0.258,0.235,0.516,0.469,0.774,0.704c-2.541,0.681-5.139,0.096-7.7,0.348c-1.051-0.029-1.983,0.127-2.006,1.473
		c-0.025,1.464-0.014,2.929-0.019,4.393c-1.357,0.092-2.713,0.184-4.07,0.277c-0.664-0.046-1.328-0.092-1.993-0.138
		c-0.66-0.171-1.32-0.342-1.979-0.514c-1.146-2.396-1.04-4.958-0.998-7.511C307.575,57.006,308.175,56.959,308.774,56.913z"/>
	<path style="fill:#4A87BC;" d="M374.5,224.645c-0.481,0.117-0.963,0.235-1.444,0.352c-2.087-0.332-3.905-1.122-5.089-2.991
		c-0.002-1.006-0.003-2.013-0.005-3.019c0.075-2.124-0.009-4.268,0.256-6.369c0.868-6.877,1.863-13.737,2.809-20.604
		c0.557-0.148,0.881-0.486,0.882-1.085c0.011-1.29,0.021-2.58,0.032-3.87c1.391-1.752,3.217-1.273,4.788-0.612
		c1.444,0.607,2.84,0.488,4.278,0.538l0.01,0.009c-0.017,0.315-0.019,0.631-0.005,0.946c-2.252,0.258-4.668-0.196-6.729,1.621
		c-1.043,10.841-2.099,21.802-3.159,32.814C372.335,223.189,373.418,223.917,374.5,224.645z"/>
	<path style="fill:#466AAA;" d="M367.962,218.987c0.002,1.006,0.003,2.013,0.005,3.019c-2.109,0.083-3.008-1.516-4.051-2.914
		c0.174-0.209,0.345-0.42,0.513-0.634c0.48-0.22,0.96-0.44,1.44-0.66C366.157,218.914,367.011,219.036,367.962,218.987z"/>
	<path style="fill:#466AAA;" d="M363.916,219.092c-2.19-0.488-3.677-1.674-3.993-4.023c0.198-0.193,0.393-0.389,0.587-0.586
		c1.545,1.089,2.917,2.349,3.919,3.974C364.26,218.671,364.089,218.883,363.916,219.092z"/>
	<path style="fill:#466AAA;" d="M356.903,211.101c-0.855-0.367-0.948-1.162-1.087-1.932c0.123-0.113,0.246-0.226,0.369-0.339
		c0.418,0.594,0.836,1.187,1.254,1.781C357.258,210.771,357.079,210.934,356.903,211.101z"/>
	<path style="fill:#466AAA;" d="M359.922,215.069c-0.867-0.332-0.956-1.13-1.125-1.88l0.336-0.31
		c0.459,0.534,0.917,1.069,1.376,1.603C360.316,214.68,360.12,214.876,359.922,215.069z"/>
	<path style="fill:#466AAA;" d="M357.85,212.161c-0.316-0.353-0.631-0.707-0.947-1.06c0.176-0.167,0.355-0.33,0.537-0.491
		c0.268,0.384,0.536,0.769,0.804,1.153C358.11,211.894,357.979,212.026,357.85,212.161z"/>
	<path style="fill:#466AAA;" d="M358.797,213.189c-0.316-0.343-0.632-0.686-0.947-1.028c0.129-0.135,0.26-0.267,0.394-0.397
		c0.296,0.372,0.593,0.744,0.889,1.116L358.797,213.189z"/>
	<path style="fill:#466AAA;" d="M355.816,209.169c-0.305-0.355-0.611-0.71-0.916-1.066c0.18-0.168,0.363-0.333,0.549-0.494
		c0.246,0.407,0.491,0.813,0.737,1.22C356.062,208.943,355.939,209.056,355.816,209.169z"/>
	<path style="fill:#4460A5;" d="M306.026,190.925c4.54-3.835,8.056-8.621,11.989-13.015c1.834-2.049,4.072-3.824,5.295-6.523
		c-4.063-1.999-8.279-0.796-12.319-1.266c0.129-1.937-0.286-3.935,0.368-5.754c4.457-1.198,8.513,0.103,12.358,1.221
		c1.743,0.507,4.94,0.184,5.283,3.41c-1.004,1.337-2.008,2.674-3.012,4.012l0.021-0.021c-1.085,0.297-1.078,1.143-1.013,2.018
		l0.009-0.01c-1.109-0.175-1.917,0.357-2.591,1.143c-4.813,5.61-9.619,11.226-14.428,16.841
		C306.46,193.127,305.893,192.359,306.026,190.925z"/>
	<path style="fill:#4A87BC;" d="M323.046,208.963c-0.28,0.642-0.7,1.02-1.681,0.699c-0.527-1.594,1.36-3.124,0.485-4.799
		l0.056,0.061c3.007-0.454,3.197-2.613,3.023-4.993l-0.016,0.012c0.656-0.031,0.988-0.378,1.009-1.031l-0.033,0.011
		c2.241-0.532,2.236-2.212,2.037-3.99l-0.017,0.016c1.268-0.197,1.074-1.143,1.031-2.012l-0.022,0.003
		c2.98-0.481,3.195-2.626,3.017-5.009l-0.025,0.004c2.99-0.471,3.193-2.623,3.019-5.003l-0.015,0.012
		c0.667-0.029,0.997-0.386,1.013-1.046l-0.02,0.054c1.182-0.258,1.094-1.145,1.004-2.032l-0.051-0.049
		c0.376,0.047,0.751,0.093,1.127,0.14c1.556,0.566,0.849,1.891,0.984,2.933c-1.659,1.629-2.692,3.685-3.829,5.664
		C331.211,195.452,327.427,202.385,323.046,208.963z"/>
	<path style="fill:#4460A5;" d="M323.046,208.963c4.381-6.578,8.165-13.511,12.098-20.355c1.137-1.979,2.17-4.036,3.829-5.664
		c0.344,0.687,0.688,1.373,1.032,2.06c-0.036,0.306-0.033,0.612,0.009,0.917c-4.521,6.44-8.381,13.274-12.067,20.213
		c-0.723,1.224-1.573,2.322-2.903,2.948C324.378,209.042,323.712,209.002,323.046,208.963z"/>
	<path style="fill:#4A87BC;" d="M307.986,192.979c4.808-5.614,9.614-11.23,14.428-16.841c0.675-0.786,1.482-1.318,2.591-1.143
		c-0.303,3.164-3.248,4.32-4.95,6.409c-1.153,1.415-2.572,2.569-1.998,4.664l0.02-0.012c-3.914,1.293-6.692,3.582-7.024,8.015
		l0.026-0.035c-0.686,0.004-1.028,0.354-1.036,1.036l0.036-0.013c-0.687-0.014-1.374-0.028-2.061-0.042
		C306.438,194.362,308.188,193.656,307.986,192.979z"/>
	<path style="fill:#4A87BC;" d="M316.978,206.067c1.058-0.091,2.092-0.024,3.068,0.446c-0.15,0.853-0.483,1.478-1.51,1.47
		C317.207,207.972,317.018,207.094,316.978,206.067z"/>
	<path style="fill:#4460A5;" d="M308.017,195.018c0.687,0.014,1.374,0.028,2.061,0.042c0.077,0.941-0.495,1.469-1.213,1.904
		C307.882,196.621,308.01,195.793,308.017,195.018z"/>
	<path style="fill:#4A87BC;" d="M314.035,204.884c0.846,0.082,1.702,0.141,2.176,1.018
		C315.28,206.002,314.32,206.164,314.035,204.884z"/>
	<path style="fill:#4477B4;" d="M486.015,135.988c0.026,1.427,0.435,3.099-1.918,3.011c-10.469-2.215-20.937-4.431-31.822-6.734
		c-2.874,2.402-3.147,5.906-2.86,9.602c-0.922,0.105-1.844,0.209-2.737,0.311c-1.377,1.788-0.426,3.298,0.337,4.821
		c-0.006,4.145-0.007,8.289-0.023,12.434c-0.004,0.962,0.237,2.033-0.948,2.568c-0.291-0.002-0.582-0.009-0.873-0.019
		c-4.999-11.668-2.666-22.85,2.297-33.834c0.243-0.538,0.983-0.852,1.492-1.271c0.599,1.072,0.806,2.43,2.21,3.049
		c1.273-0.995,2.528-1.977,3.783-2.958c1.062-0.268,1.923-1.295,3.177-0.838c0.069,0.549,0.138,1.098,0.207,1.647
		c-0.624,0.139-1.248,0.277-2.794,0.62c2.022,0.674,2.956,1.401,4.294,1.655c4.647,0.882,9.256,1.961,13.871,3.006
		c2.076,0.47,4.013,1.797,6.286,0.96C482.107,134.348,484.105,135.033,486.015,135.988z"/>
	<path style="fill:#4460A5;" d="M446.043,162.001c1.184-0.535,0.944-1.606,0.948-2.568c0.016-4.144,0.017-8.289,0.023-12.434
		c0.758,0.363,1.516,0.726,2.274,1.089c0.264,6.011,2.909,11.34,4.837,16.874c-1.658,0.007-3.315,0.004-4.973,0.023
		C447.13,165.008,446.053,164.065,446.043,162.001z"/>
	<path style="fill:#5095CB;" d="M304.081,97.094c0.881-0.318,0.918-1.043,0.871-1.808c0.91-0.253,1.939-0.325,2.26-1.479
		c3.8-2.73,5.649-6.747,6.628-11.062c0.604-2.661,0.286-5.532,0.382-8.309c2.921,14.209-2.429,25.289-13.013,34.384
		c-2.107,1.811-4.726,2.994-6.459,5.264c-1.242,0.34-2.485,0.68-3.727,1.02c-0.703-2.438-4.066-3.095-4.038-6.023
		c4.228-2.715,8.457-5.429,12.685-8.144c0.929,0.062,1.914,0.263,2.338-0.937l-0.007,0.007
		C303.384,99.529,304.039,98.53,304.081,97.094z"/>
	<path style="fill:#466AAA;" d="M291.023,115.105c1.242-0.34,2.485-0.68,3.727-1.02c0.219,0.204,0.322,0.455,0.31,0.754
		c-0.021,1.754-0.058,3.508-0.058,5.262c0,1.082-0.401,1.834-1.517,2.086c-2.122-0.607-3.727-2.065-5.459-3.314
		c0.005-0.605,0.009-1.21,0.014-1.816C289.471,117.073,290.482,116.448,291.023,115.105z"/>
	<path style="fill:#498544;" d="M307.974,64.564c0.66,0.171,1.32,0.342,1.979,0.514c0.008,5.295,0.016,10.589,0.024,15.884
		c-0.618-0.347-1.237-0.693-1.855-1.04c-0.26-5.318-2.678-10.025-4.232-14.978C305.251,64.817,306.612,64.69,307.974,64.564z"/>
	<path style="fill:#4460A5;" d="M274.959,133.093c7.898-1.741,15.797-3.481,24.083-5.308c-1.381-2.666-4.126-3.517-5.558-5.596
		c1.116-0.252,1.517-1.004,1.517-2.086c0-1.754,0.037-3.508,0.058-5.262c0.318,0.124,0.635,0.248,0.953,0.373
		c0.147,0.519,0.502,0.759,1.028,0.771c1.429,0.094,1.446,2.131,2.939,2.137c0.196,0.55,0.564,0.831,1.166,0.743l-0.023-0.019
		c0.004,0.717,0.339,1.059,1.076,0.95c-0.075,0.763,0.245,1.102,1.02,0.956l-0.213,0.196l0.236-0.167
		c-0.123,0.776,0.193,1.111,0.979,0.974l0.058,0.009c-0.407,1.011-0.067,1.802,0.601,2.609c1.117,1.348,2.076,2.805,2.108,4.66
		c-1.16-0.001-2.37-0.22-3.472,0.033c-5.567,1.276-11.085,2.771-16.662,4.001c-4.61,1.016-9.053,2.829-13.849,2.972
		C272.494,134.283,274.484,134.191,274.959,133.093z"/>
	<path style="fill:#466AAA;" d="M275.007,155.987c10.833-5.057,21.816-9.773,32.866-14.333c0.464,1.33-0.481,2.291-0.888,3.392
		c-6.9,2.769-13.815,5.5-20.684,8.343c-1.285,0.532-2.896,0.878-3.306,2.616l0.011-0.009c-2.453-0.528-4.565,1.213-6.964,1.046
		C275.472,156.911,275.114,156.571,275.007,155.987z"/>
	<path style="fill:#5095CB;" d="M295.022,163.219c0.19,1.996-1.017,3.594-1.482,5.746c-1.874-0.727-3.685-1.188-5.572-0.97
		c-2.726-3.413-7.116-4.759-9.963-8.022c1.24,0.006,2.48,0.013,3.721,0.019C285.975,161.819,290.518,162.438,295.022,163.219z"/>
	<path style="fill:#4A87BC;" d="M273.004,136.036c4.797-0.143,9.239-1.956,13.849-2.972c5.577-1.23,11.095-2.725,16.662-4.001
		c1.102-0.253,2.312-0.034,3.472-0.033c-0.005,0.284-0.019,0.568-0.041,0.851c-0.95,0.459-1.744,1.31-2.934,1.161
		c-1.417,0.321-2.835,0.634-4.25,0.966c-5.674,1.33-11.335,2.722-17.03,3.954c-1.212,0.262-1.737,0.707-1.702,1.884
		c-1.656,0.086-3.312,0.171-4.968,0.257c-1.002-2.019-2.555,1.376-3.535-0.704C272.614,137.155,272.809,136.595,273.004,136.036z"/>
	<path style="fill:#466AAA;" d="M281.726,159.992c-1.24-0.006-2.48-0.013-3.721-0.019c0.008-0.317,0.011-0.634,0.01-0.951
		c1.199-1.775,4.017-0.88,4.99-3.026l-0.011,0.009c3.379-0.02,6.027-2.237,9.136-3.042c4.041-1.046,7.324-4.355,11.844-3.939
		c-0.006,0.173-0.005,0.347,0.004,0.52c-2.552,1.155-5.146,2.227-7.647,3.484C291.511,155.451,286.095,156.626,281.726,159.992z"/>
	<path style="fill:#4A87BC;" d="M283.006,155.996c-0.973,2.146-3.791,1.251-4.99,3.026c-0.995-0.324-1.668-0.969-1.974-1.98
		C278.44,157.209,280.553,155.468,283.006,155.996z"/>
	<path style="fill:#4477B4;" d="M277.15,128.138c-0.136,1.093-0.6,1.912-1.783,2.13C274.723,128.521,275.447,127.919,277.15,128.138
		z"/>
	<path style="fill:#4477B4;" d="M279.294,125.308c-0.051,0.838-0.377,1.484-1.231,1.76
		C278.066,126.197,277.785,125.127,279.294,125.308z"/>
	<path style="fill:#4477B4;" d="M280.22,124.329c-0.035,0.522-0.309,0.825-0.828,0.903c-0.12-0.403-0.241-0.806-0.361-1.209
		C279.427,124.125,279.824,124.227,280.22,124.329z"/>
	<path style="fill:#4477B4;" d="M278.076,127.052c-0.063,0.586-0.346,0.978-0.955,1.083
		C277.086,127.462,277.419,127.115,278.076,127.052z"/>
	<path style="fill:#4460A5;" d="M385.799,222.901c0.398-5.302-0.881-10.477-1.217-15.726c-0.39-6.075-1.097-12.129-1.667-18.192
		c0.385-0.038,0.77-0.077,1.155-0.115c0.808,0.119,1.632,0.207,2.003,1.113c-0.4,7.135,0.901,14.115,1.747,21.152
		c0.45,3.745,0.08,7.588,0.08,11.123C387.118,223.052,386.441,222.892,385.799,222.901z"/>
	<path style="fill:#5095CB;" d="M311.391,135.537c3.215,6.021,2.96,12.197,1.049,18.546c-0.845,2.806-2.441,5.39-2.554,8.416
		c-1.916,1.793-2.643,4.303-3.913,6.487c-2.24-0.199-4.56,0.486-6.643-0.411c-0.813-2.068,1.24-3.547,0.658-5.397
		c2.334-3.474,2.226-8.001,4.885-11.335c0.071,0.148,0.116,0.319,0.221,0.436c0.099,0.11,0.332,0.262,0.384,0.224
		c0.221-0.157,0.42-0.361,0.584-0.579C309.708,147.069,310.893,141.414,311.391,135.537z"/>
	<path style="fill:#466AAA;" d="M305.974,168.985c1.269-2.183,1.996-4.694,3.913-6.487c9.223-1.179,17.824,0.083,25.132,6.411
		c0.109,0.678,0.498,1.023,1.194,1.002c0.727,0.207,1.377,0.513,1.651,1.296c0.02,1.177,0.306,2.24,0.875,3.313
		c1.732,3.265,2.597,6.76,2.314,10.488c-0.349-0.002-0.699-0.004-1.048-0.006c-0.344-0.687-0.688-1.373-1.032-2.06
		c-0.135-1.042,0.572-2.367-0.984-2.933c-0.018-0.701,0.155-1.46-0.587-1.942c0.01-2.052-1.283-3.461-2.438-4.938
		c-0.748-2.435-2.991-3.092-4.912-4.133c-0.351,0-0.701-0.001-1.052-0.001c-0.343-3.225-3.54-2.903-5.283-3.41
		c-3.845-1.118-7.9-2.419-12.358-1.221c-0.654,1.819-0.239,3.817-0.368,5.754c-1.55,0.899-3.326,0.572-4.977,0.918
		C306.001,170.355,305.987,169.67,305.974,168.985z"/>
	<path style="fill:#4A87BC;" d="M367.901,191.151c-5.643,2.244-10.019,6.39-14.836,9.875c-0.576-0.119-0.941-0.451-1.058-1.038
		c0.262-2.346-1.524-4.378-1.033-6.759c2.414-1.616,4.116-4.22,7.063-5.096c0.202,0.189,0.404,0.378,0.606,0.567
		c0.093-0.279,0.186-0.558,0.279-0.837l-0.027,0.055c2.656,0.037,5.083-0.936,7.581-1.642c1.194-0.337,2.602-0.905,3.496,0.681
		C367.965,187.705,367.986,189.454,367.901,191.151z"/>
	<path style="fill:#497CAE;" d="M350.975,193.229c-0.491,2.381,1.295,4.413,1.033,6.759c-3.058,0.765-5.288-1.815-8.109-2.006
		c-0.824-1.071-1.116-2.298-1.064-3.626c0.294-1.07-0.205-2.366,0.839-3.143c2.305-0.89,4.129,1.265,6.308,0.787
		C350.313,192.41,350.644,192.82,350.975,193.229z"/>
	<path style="fill:#4477B4;" d="M418.167,204.761c1.087,0.051,2.249-0.123,2.98,0.994
		C420.019,205.828,418.613,206.733,418.167,204.761z"/>
	<path style="fill:#4477B4;" d="M281.877,122.952c-0.225,0.825-0.787,1.232-1.618,1.309
		C280.074,122.929,281.067,123.053,281.877,122.952z"/>
	<path style="fill:#58B24E;" d="M309.977,80.961c-0.008-5.295-0.016-10.589-0.024-15.884c0.664,0.046,1.328,0.092,1.993,0.138
		c0.759,3.074,1.518,6.148,2.277,9.222c-0.096,2.777,0.222,5.647-0.382,8.309c-0.98,4.315-2.828,8.331-6.628,11.062
		c0.422-2.158,0.844-4.316,1.266-6.474c1.205-0.4,2.414-0.796,2.764-2.248C312.734,83.124,311.087,82.125,309.977,80.961z"/>
	<path style="fill:#5095CB;" d="M341.053,185.009c0.283-3.728-0.582-7.223-2.314-10.488c-0.57-1.074-0.855-2.137-0.875-3.313
		c6.147,3.987,9.997,9.49,11.097,16.808C346.094,187.621,343.156,187.412,341.053,185.009z"/>
	<path style="fill:#466AAA;" d="M318.04,59.073c2.56-0.251,5.159,0.333,7.7-0.348c5.411-0.216,10.439-2.022,15.494-3.721
		c-0.488,2.363-2.533,3.253-4.233,4.464c-3.904,2.781-8.232,4.402-13.026,4.739c-0.134-1.27,0.383-2.629-0.378-3.682
		C321.84,59.194,319.453,61.097,318.04,59.073z"/>
	<path style="fill:#4477B4;" d="M304.874,151.842c0.129-0.933,0.341-1.898-0.896-2.298c-0.009-0.173-0.01-0.347-0.004-0.52
		l0.052-0.049c0.536-0.066,1.189,0.193,1.5-0.468c0.038-0.08-0.365-0.367-0.564-0.559c0.421-1.143,2.493-1.136,2.021-2.901
		c0.407-1.102,1.352-2.063,0.888-3.392c0.459-1.55,0.409-3.135,0.324-4.722c1.499-2.689-0.086-4.832-1.249-7.05
		c0.022-0.283,0.035-0.567,0.041-0.851c-0.033-1.855-0.991-3.313-2.108-4.66c-0.669-0.807-1.009-1.598-0.601-2.609
		c4.777,3.35,6.12,8.473,7.112,13.776c-0.499,5.877-1.683,11.532-5.328,16.385c-0.164,0.219-0.363,0.422-0.584,0.579
		c-0.052,0.037-0.285-0.114-0.384-0.224C304.99,152.16,304.945,151.989,304.874,151.842z"/>
	<path style="fill:#497CAE;" d="M439.027,57.287c3.076-0.107,6.152-0.215,9.228-0.322c-0.788,2.777-1.796,5.467-3.158,8.018
		c-1.723-0.064-3.447-0.129-5.17-0.193c-0.596-1.072-1.631-0.734-2.537-0.775c-0.931-0.042-1.951,0.17-2.401-1.005
		c1.213-0.175,2.539,0.353,3.683-0.562C439.312,60.758,438.843,58.997,439.027,57.287z"/>
	<path style="fill:#497CAE;" d="M467.012,109.186c0.314,2.302-2.233,2.36-2.995,3.818c-1.098-0.209-1.869,0.495-2.723,0.971
		c-0.224-0.217-0.34-0.481-0.348-0.793c-0.048-0.686-0.386-1.071-1.103-1.062l0.036,0.043c0.003-0.709-0.336-1.058-1.057-1.008
		l-0.049,0.063c0.072-0.412,0.144-0.824,0.216-1.235c-0.006-2.255-0.013-4.511-0.019-6.766
		C461.621,105.247,464.661,106.753,467.012,109.186z"/>
	<path style="fill:#466AAA;" d="M461.294,113.976c0.853-0.476,1.625-1.18,2.723-0.971c2.153,2.514,0.403,5.531,1.062,8.238
		c-1.241,1.671-3.172,2.366-4.846,3.425c-0.103-2.952-0.206-5.905-0.308-8.857C460.381,115.2,460.838,114.588,461.294,113.976z"/>
	<path style="fill:#497CAE;" d="M459.924,115.812c0.103,2.952,0.206,5.905,0.308,8.857c-0.241,0.579-0.551,1.079-1.272,1.105
		c-0.724-0.989-0.81-0.328-0.892,0.345l0.06,0.012c-1.253-0.457-2.115,0.57-3.177,0.838c-0.394-1.785,1.212-4.177-1.587-5.232
		C455.057,119.214,457.025,116.997,459.924,115.812z"/>
	<path style="fill:#4477B4;" d="M369.973,186.957c-0.894-1.586-2.301-1.018-3.496-0.681c-2.498,0.705-4.926,1.679-7.581,1.642
		c4.529-4.231,10.161-4.231,15.821-4.124c2.049,1.156,5.053,0.43,6.289,3.191c-1.438-0.05-2.834,0.069-4.278-0.538
		c-1.571-0.66-3.397-1.139-4.788,0.612C371.284,187.025,370.629,186.991,369.973,186.957z"/>
	<path style="fill:#4A87BC;" d="M341.053,185.009c2.103,2.404,5.041,2.612,7.908,3.007c1.402,1.056,0.854,2.612,1.021,3.985
		c-2.18,0.478-4.003-1.677-6.308-0.787c-1.045,0.777-0.545,2.074-0.839,3.143c-1.926-2.482-1.314-5.814-2.821-8.436
		c-0.042-0.305-0.045-0.611-0.009-0.917C340.354,185.005,340.704,185.007,341.053,185.009z"/>
	<path style="fill:#4477B4;" d="M318.04,59.073c1.413,2.024,3.8,0.121,5.558,1.452c0.76,1.054,0.243,2.413,0.378,3.682
		c-2.568,1.177-5.273,0.856-7.96,0.731c0.005-1.464-0.006-2.929,0.019-4.393C316.057,59.2,316.989,59.044,318.04,59.073z"/>
	<path style="fill:#5095CB;" d="M453.365,121.736c2.8,1.055,1.193,3.447,1.587,5.232c-1.255,0.981-2.51,1.962-3.783,2.958
		c-1.404-0.619-1.611-1.978-2.21-3.049C449.577,124.435,451.314,122.951,453.365,121.736z"/>
	<path style="fill:#4477B4;" d="M453.918,106.048c1.237,0.205,1.096,1.132,1.052,2.009
		C454.12,107.648,453.549,107.094,453.918,106.048z"/>
	<path style="fill:#4477B4;" d="M458.989,109.984c-0.072,0.412-0.144,0.824-0.216,1.235c-0.87,0-1.468-0.413-1.819-1.199
		C457.632,110.008,458.31,109.996,458.989,109.984z"/>
	<path style="fill:#5095CB;" d="M336.212,169.911c-0.696,0.021-1.085-0.323-1.194-1.002
		C335.626,168.993,336.021,169.331,336.212,169.911z"/>
	<path style="fill:#4477B4;" d="M358.923,187.863c-0.093,0.279-0.186,0.558-0.279,0.837c-0.202-0.189-0.404-0.378-0.606-0.567
		C358.29,187.902,358.585,187.812,358.923,187.863z"/>
	<path style="fill:#4477B4;" d="M304.221,121.752c-0.785,0.137-1.102-0.197-0.979-0.974
		C303.831,120.839,304.156,121.164,304.221,121.752z"/>
	<path style="fill:#4477B4;" d="M303.219,120.75c-0.774,0.146-1.094-0.193-1.018-0.955
		C302.782,119.856,303.145,120.149,303.219,120.75z"/>
	<path style="fill:#4477B4;" d="M302.198,119.792c-0.735,0.111-1.07-0.231-1.074-0.948
		C301.708,118.903,302.107,119.173,302.198,119.792z"/>
	<path style="fill:#4477B4;" d="M301.147,118.863c-0.602,0.088-0.97-0.193-1.166-0.743
		C300.639,117.945,300.994,118.244,301.147,118.863z"/>
	<path style="fill:#466AAA;" d="M297.041,115.983c-0.527-0.012-0.882-0.252-1.028-0.771
		C296.619,115.118,296.914,115.438,297.041,115.983z"/>
	<path style="fill:#4477B4;" d="M459.843,112.121c0.717-0.009,1.055,0.376,1.103,1.062
		C460.386,113.029,459.898,112.8,459.843,112.121z"/>
	<path style="fill:#4477B4;" d="M458.822,111.157c0.721-0.051,1.06,0.299,1.057,1.008
		C459.247,112.121,458.836,111.847,458.822,111.157z"/>
	<path style="fill:#4477B4;" d="M454.941,108.021c0.634,0.058,0.976,0.409,1.042,1.037
		C455.437,108.912,455.09,108.566,454.941,108.021z"/>
	<path style="fill:#4477B4;" d="M455.943,109.018c0.623,0.065,0.971,0.409,1.046,1.03
		C456.444,109.904,456.098,109.558,455.943,109.018z"/>
	<path style="fill:#4A87BC;" d="M439.027,57.287c-0.184,1.71,0.285,3.472-0.355,5.161c-1.144,0.916-2.469,0.388-3.683,0.562
		c-2.111-0.02-4.155-0.176-5.101-2.537c1.391-1.085,1.969-3.019,3.803-3.641C435.47,56.984,437.249,57.135,439.027,57.287z"/>
	<path style="fill:#58B24E;" d="M324.966,58.021c-3.344-0.084-6.738,0.497-9.995-0.752c3.203-0.127,6.422,0.398,9.612-0.24
		l0.355-0.03C324.947,57.34,324.956,57.681,324.966,58.021z"/>
	<path style="fill:#58B24E;" d="M335.954,53.972c0.39-0.9,1.019-1.587,1.862-2.082c0.394,0.026,0.789,0.052,1.183,0.078
		C339.134,54.383,337.41,53.974,335.954,53.972z"/>
	<path style="fill:#498544;" d="M324.937,57l-0.355,0.03c-0.271-0.625-0.542-1.249-0.812-1.874c1.238-0.014,1.812,0.761,2.153,1.813
		C325.594,56.965,325.265,56.975,324.937,57z"/>
	<path style="fill:#58B24E;" d="M334.896,54.965c0.169-0.543,0.527-0.884,1.082-1.014C335.873,54.562,335.506,54.894,334.896,54.965
		z"/>
	<path style="fill:#498544;" d="M318.035,48.987c-1.403-1.017-2.668-2.147-3.185-3.889
		C317.787,44.858,318.042,46.815,318.035,48.987z"/>
	<path style="fill:#498544;" d="M323.869,55.213c-1.658-0.42-2.491-1.627-3-3.143C323.231,51.817,323.271,53.781,323.869,55.213z"/>
	<path style="fill:#498544;" d="M314.933,45.127c-0.682-0.046-0.98-0.453-1.026-1.095C314.593,44.076,314.931,44.444,314.933,45.127
		z"/>
	<path style="fill:#498544;" d="M320.951,52.118c-0.637-0.093-0.945-0.495-1.036-1.1C320.574,51.089,320.918,51.457,320.951,52.118z
		"/>
	<path style="fill:#498544;" d="M319.007,50.046c-0.554-0.154-0.872-0.525-0.989-1.08C318.599,49.096,318.931,49.454,319.007,50.046
		z"/>
	<path style="fill:#498544;" d="M319.98,51.086c-0.59-0.133-0.908-0.519-1.023-1.095C319.584,50.088,319.923,50.456,319.98,51.086z"
		/>
	<path style="fill:#4477B4;" d="M384.07,188.868c-0.385,0.038-0.77,0.077-1.155,0.115c-0.159-0.307-0.317-0.615-0.476-0.922
		C383.142,188.009,383.735,188.178,384.07,188.868z"/>
	<path style="fill:#4477B4;" d="M382.11,188.158c-0.366-0.073-0.733-0.146-1.099-0.219c-0.014-0.315-0.012-0.631,0.005-0.946
		C381.658,187.121,381.973,187.557,382.11,188.158z"/>
	<path style="fill:#4477B4;" d="M302.009,100.001c-0.424,1.2-1.409,0.999-2.338,0.937c0.115-0.282,0.13-0.57,0.042-0.862
		C300.478,100.051,301.243,100.026,302.009,100.001z"/>
	<path style="fill:#4477B4;" d="M291.01,95.061c-1.653,2.389-3.297,0.029-4.863-0.149c-3.817-0.433-7.778-0.601-11.147-2.877
		C280.586,91.722,285.738,93.707,291.01,95.061z"/>
	<path style="fill:#4477B4;" d="M295.997,96.082c-1.661,1.686-2.628,1.21-3.046-0.977C294.055,95.151,295.395,94.466,295.997,96.082
		z"/>
	<path style="fill:#4477B4;" d="M304.081,97.094c-0.042,1.436-0.697,2.435-2.079,2.915c-0.003-0.679-0.007-1.357-0.01-2.036
		C302.349,96.873,303.23,97.019,304.081,97.094z"/>
	<path style="fill:#4477B4;" d="M300.074,97.91c-1.413,0.233-2.122-0.368-2.126-1.8C299.384,95.851,300.033,96.522,300.074,97.91z"
		/>
	<path style="fill:#466AAA;" d="M458.335,127.777c7.735,0.878,15.202,3.001,22.72,4.886c-0.354,0.452-0.709,0.903-1.063,1.355
		c-2.274,0.837-4.21-0.49-6.286-0.96c-4.615-1.045-9.224-2.124-13.871-3.006c-1.338-0.254-2.273-0.981-4.294-1.655
		C457.087,128.055,457.711,127.916,458.335,127.777z"/>
	<path style="fill:#497CAE;" d="M449.025,79.997c6.676-2.834,13.35-5.671,20.029-8.498c1.509-0.639,2.887-1.662,4.636-1.613
		c0.439,0.037,0.879,0.074,1.318,0.111c-2.508,2.956-6.349,3.375-9.578,4.942c-1.074,0.521-2.029,0.893-2.426,2.079l0.013-0.01
		c-3.963-0.223-7.08,1.651-9.994,4.028l0.006-0.004c-1.494-0.278-2.798,0.264-4.07,0.945
		C448.981,81.317,449.003,80.657,449.025,79.997z"/>
	<path style="fill:#4A87BC;" d="M453.022,81.036c2.915-2.377,6.032-4.252,9.994-4.028C460.119,79.427,456.731,80.628,453.022,81.036
		z"/>
	<path style="fill:#4A87BC;" d="M448.959,81.977c1.272-0.681,2.576-1.222,4.07-0.945c-0.98,2.013-2.52,2.456-4.51,1.591
		c-0.035-0.015-0.014-0.288,0.057-0.386C448.661,82.12,448.827,82.061,448.959,81.977z"/>
	<path style="fill:#4477B4;" d="M475.676,68.915c0.157-0.258,0.248-0.538,0.271-0.839c0.351,0.056,0.703,0.113,1.054,0.169
		C476.728,68.803,476.259,68.971,475.676,68.915z"/>
	<path style="fill:#4477B4;" d="M475.008,69.997c-0.439-0.037-0.879-0.074-1.318-0.111c0.302-0.487,0.722-0.773,1.311-0.777
		C475.005,69.405,475.008,69.701,475.008,69.997z"/>
	<path style="fill:#466AAA;" d="M467.025,120.008c-0.161,0.485-0.44,0.808-1.007,0.736
		C466.171,120.249,466.523,120.027,467.025,120.008z"/>
	<path style="fill:#4460A5;" d="M369.973,186.957c0.655,0.034,1.311,0.068,1.966,0.102c-0.011,1.29-0.021,2.58-0.032,3.87
		c-0.525,0.174-0.827,0.53-0.882,1.085c-0.946,6.867-1.941,13.728-2.809,20.604c-0.265,2.1-0.18,4.244-0.256,6.369
		c-0.951,0.049-1.805-0.073-2.094-1.189c0.09-6.949,1.048-13.819,1.825-20.707c0.221-1.963,0.147-3.958,0.208-5.939
		C367.986,189.454,367.965,187.705,369.973,186.957z"/>
	<path style="fill:#4477B4;" d="M371.026,192.014c0.055-0.556,0.357-0.911,0.882-1.085
		C371.907,191.529,371.583,191.866,371.026,192.014z"/>
	<path style="fill:#4460A5;" d="M330.052,168.999c1.92,1.041,4.164,1.698,4.912,4.133c-1.289-0.196-2.578-0.392-3.929-0.597
		c-4.766,4.154-7.933,9.758-12.979,13.534c-0.574-2.095,0.845-3.249,1.998-4.664c1.702-2.089,4.647-3.245,4.95-6.409l-0.009,0.01
		c1.145-0.267,1.071-1.147,1.013-2.018l-0.021,0.021C328.513,172.858,329.726,171.377,330.052,168.999z"/>
	<path style="fill:#4460A5;" d="M311.052,194.072c0.332-4.433,3.11-6.722,7.024-8.015
		C316.507,189.405,313.816,191.771,311.052,194.072z"/>
	<path style="fill:#4477B4;" d="M334.931,182.932c0.174,2.38-0.029,4.532-3.019,5.003
		C332.414,185.963,333.229,184.18,334.931,182.932z"/>
	<path style="fill:#4477B4;" d="M324.929,199.93c0.175,2.38-0.016,4.539-3.023,4.993
		C322.412,202.955,323.212,201.165,324.929,199.93z"/>
	<path style="fill:#4477B4;" d="M331.936,187.931c0.178,2.383-0.038,4.528-3.017,5.009C329.477,191,330.227,189.176,331.936,187.931
		z"/>
	<path style="fill:#4477B4;" d="M327.926,194.933c0.199,1.778,0.204,3.457-2.037,3.99
		C325.658,197.128,326.414,195.837,327.926,194.933z"/>
	<path style="fill:#4477B4;" d="M328.941,192.937c0.043,0.869,0.236,1.815-1.031,2.012
		C327.863,194.078,328.069,193.337,328.941,192.937z"/>
	<path style="fill:#4477B4;" d="M337.402,178.069c0.742,0.482,0.569,1.241,0.587,1.942c-0.376-0.047-0.751-0.093-1.127-0.14
		C337.042,179.27,337.222,178.669,337.402,178.069z"/>
	<path style="fill:#4477B4;" d="M336.913,179.92c0.09,0.887,0.178,1.774-1.004,2.032C335.864,181.087,335.75,180.188,336.913,179.92
		z"/>
	<path style="fill:#4460A5;" d="M310.042,195.073c0.008-0.682,0.35-1.032,1.036-1.036
		C311.044,194.693,310.74,195.08,310.042,195.073z"/>
	<path style="fill:#4477B4;" d="M325.922,198.912c-0.02,0.653-0.353,1-1.009,1.031C324.958,199.313,325.103,198.783,325.922,198.912
		z"/>
	<path style="fill:#4477B4;" d="M335.928,181.897c-0.016,0.66-0.345,1.017-1.013,1.046
		C334.957,182.308,335.124,181.794,335.928,181.897z"/>
	<path style="fill:#4A87BC;" d="M330.052,168.999c-0.326,2.379-1.539,3.859-4.064,4.01c1.004-1.337,2.008-2.674,3.012-4.012
		C329.351,168.998,329.701,168.998,330.052,168.999z"/>
	<path style="fill:#4A87BC;" d="M326.009,172.988c0.058,0.871,0.132,1.751-1.013,2.018
		C324.931,174.131,324.924,173.285,326.009,172.988z"/>
	<path style="fill:#466AAA;" d="M281.032,137.845c-0.035-1.177,0.489-1.622,1.702-1.884c5.695-1.232,11.356-2.624,17.03-3.954
		c1.414-0.331,2.833-0.644,4.25-0.966c0,0.524,0.001,1.048,0.001,1.572C296.354,134.358,288.693,136.101,281.032,137.845z"/>
	<path style="fill:#4460A5;" d="M304.015,132.614c-0.001-0.524-0.001-1.048-0.001-1.572c1.19,0.149,1.984-0.702,2.934-1.161
		c1.163,2.218,2.748,4.361,1.249,7.05C306.824,135.472,305.925,133.553,304.015,132.614z"/>
	<path style="fill:#4A87BC;" d="M306.984,145.046c0.471,1.765-1.601,1.758-2.021,2.901c-0.531,0.143-0.905,0.429-0.936,1.027
		l-0.052,0.049c-4.52-0.416-7.803,2.893-11.844,3.939c-3.109,0.805-5.757,3.023-9.136,3.042c0.409-1.737,2.02-2.084,3.306-2.616
		C293.169,150.546,300.085,147.815,306.984,145.046z"/>
	<path style="fill:#4477B4;" d="M458.069,126.118c0.082-0.673,0.168-1.334,0.892-0.345
		C458.722,126.039,458.425,126.154,458.069,126.118z"/>
	<path style="fill:#466AAA;" d="M304.027,148.974c0.032-0.598,0.405-0.884,0.936-1.027c0.199,0.191,0.602,0.479,0.564,0.559
		C305.216,149.167,304.563,148.908,304.027,148.974z"/>
</g>
</svg>
