<?xml version="1.0" encoding="iso-8859-1"?>
<!-- Generator: Adobe Illustrator 27.0.0, SVG Export Plug-In . SVG Version: 6.00 Build 0)  -->
<svg version="1.1" id="Layer_1" xmlns="http://www.w3.org/2000/svg" xmlns:xlink="http://www.w3.org/1999/xlink" x="0px" y="0px"
	 viewBox="0 0 1594 467" style="enable-background:new 0 0 1594 467;" xml:space="preserve">
<g>
	<path style="fill:#6268B0;" d="M0,208c1.79-2.043,1.076-4.72,1.707-7.07c7.538-28.066,25.366-45.186,53.844-51.057
		c8.724-1.798,17.482-0.85,26.287-0.134c13.739,1.117,26.715,4.911,39.285,10.186c18.712,7.852,34.521,19.788,47.882,35.033
		c15.687,17.898,25.51,38.688,30.338,61.868c1.755,8.426,2.426,17.023,2.687,25.374c-1.332,1.504-2.754,0.98-3.999,0.981
		c-43.462,0.028-86.924-0.16-130.384,0.083c-28.846,0.161-59.178-20.41-66.367-53.616C0.873,227.767,1.608,225.604,0,224
		C0,218.667,0,213.333,0,208z"/>
	<path style="fill:#131433;" d="M1226,0c1.156,1.646,3.154,1.391,4.741,1.984c11.668,4.36,19.992,14.793,19.83,28.398
		c-0.179,15.033-9.972,24.966-22.619,28.177c-12.42,3.153-23.9,0.846-32.868-9.015c-7.745-8.517-9.241-18.752-5.881-29.371
		c3.309-10.458,10.995-16.737,21.697-19.241c0.76-0.178,1.704,0.068,2.1-0.93C1217.333,0,1221.667,0,1226,0z"/>
	<path style="fill:#656AB1;" d="M854,467c0.021-22.296,0.04-44.593,0.081-66.889c0.001-0.28,0.283-0.56,0.539-1.034
		c3.487,0,7.079,0,10.666,0c1.278,2.093,0.096,4.38,0.98,6.716c2.207-2.279,4.254-4.544,7.166-5.833
		c13.984-6.189,29.287,1.82,31.399,18.469c0.991,7.811,0.272,15.517-4.134,22.558c-6.29,10.053-23.337,14.067-32.75,3.552
		c-0.42-0.469-0.728-1.144-1.948-1.149c0,7.867,0,15.738,0,23.61C862,467,858,467,854,467z M892.998,424.142
		c0.229-3.032-0.126-6.171-1.478-9.088c-2.351-5.072-6.069-8.136-11.988-8.123c-5.972,0.013-10.245,2.535-12.526,8.063
		c-1.405,3.405-2.004,7.084-1.672,10.715c0.329,3.599,0.923,7.264,3.165,10.34c3.624,4.972,8.839,5.705,14.301,4.822
		c5.06-0.818,8.087-4.124,9.326-9.18C892.726,429.239,893.096,426.816,892.998,424.142z"/>
	<path style="fill:#656AB1;" d="M700,467c0-22.445,0-44.891,0-67.565c3.721-1.217,7.499-0.162,11.202-0.62
		c1.247,2.266,0.323,4.517,0.964,6.897c3.115-2.16,5.438-5.105,9.079-6.466c9.012-3.369,19.481-0.165,25.103,7.718
		c7.236,10.144,5.794,29.352-2.12,37.187c-7.561,7.484-21.882,9.789-30.286,0.381c-0.419-0.469-0.726-1.147-1.942-1.138
		c0,7.863,0,15.734,0,23.606C708,467,704,467,700,467z M738.962,424.223c0.251-3.473-0.284-6.705-1.766-9.772
		c-2.647-5.477-6.917-7.877-13.349-7.462c-5.388,0.348-10.167,4.093-11.709,9.308c-1.544,5.221-1.537,10.496-0.01,15.709
		c1.731,5.907,6.183,9.006,12.748,9.083c6.906,0.082,10.853-2.508,12.93-8.638C738.715,429.77,739.281,426.999,738.962,424.223z"/>
	<path style="fill:#B6B6DB;" d="M1593.082,415.949c0.303,0.063,0.609,0.08,0.918,0.051c0,11.333,0,22.667,0,34
		c-0.438-0.129-0.876-0.258-1.314-0.388c0.093-1.808,0.254-3.616,0.266-5.424C1593.016,434.775,1593.042,425.362,1593.082,415.949z"
		/>
	<path style="fill:#111232;" d="M200.228,142.907c-1.748-2.37-2.44-5.309-3.349-8.137c-1.54-4.787-4.528-7.775-9.483-9.293
		c-13.339-4.085-26.633-8.289-40.548-10.002c-15.977-1.967-31.792-2.3-47.304,3.306c-14.302,5.169-25.778,13.398-32.324,27.897
		c0.399-56.341,37.765-109.362,95.44-126.901c61.426-18.68,132.452,8.27,163.008,75.215c4.189,0,8.508-0.21,12.802,0.035
		c23.981,1.365,44.201,11.007,61.158,27.88c12.609,12.546,21.152,27.471,24.717,44.784c7.055,34.269-1.532,64.226-26.531,89.052
		c-16.519,16.405-36.664,24.836-59.788,26.326c-9.302,0.599-18.262-1.252-26.743-4.89c-9.109-3.908-15.966-10.388-18.609-20.202
		c-1.845-6.85-0.97-13.841,0.801-20.697c2.455-9.502,6.024-18.643,8.947-27.992c0.643-2.056,1.407-4.071,1.627-6.248
		c1.14-11.263-2.508-18.32-12.648-23.697c-7.639-4.051-15.682-7.268-23.722-10.405c-7.224-2.818-11.107-7.511-10.887-15.429
		c0.055-1.976-0.375-3.976-0.679-5.951c-0.528-3.424-1.588-4.6-4.974-5.254c-1.452-0.281-2.98-0.283-4.468-0.237
		c-14.32,0.445-28.653,0.561-42.952,1.557C202.705,143.696,201.721,143.69,200.228,142.907z"/>
	<path style="fill:#111232;" d="M971.286,86.235c18.286,0,36.224,0,54.517,0c0,9.899,0,19.661,0,30.286
		c3.199-3.367,5.089-6.664,7.55-9.494c12.223-14.056,27.645-22.612,45.941-24.699c27.197-3.102,51.518,3.849,70.773,24.296
		c11.894,12.63,18.976,27.87,22.876,44.722c3.49,15.084,3.877,30.372,2.871,45.658c-1.26,19.138-5.985,37.393-16.783,53.6
		c-13.337,20.018-31.679,32.202-55.755,35.526c-13.727,1.895-27.164,1.218-40.357-3.131c-14.564-4.801-26.248-13.367-34.459-26.449
		c-0.605-0.964-1.139-1.975-2.208-2.691c0,31.83,0,63.598,0,95.341c-3.684,1.067-41.14,1.443-54.965,0.554
		C971.286,262.067,971.286,174.361,971.286,86.235z M1120.021,184.237c0.246-6.607-0.49-13.88-1.968-21.08
		c-2.078-10.123-6.013-19.384-13.278-26.907c-9.855-10.205-22.239-13.301-35.994-12.461c-18.582,1.135-31.505,10.281-38.94,27.267
		c-3.095,7.071-4.451,14.538-5.239,22.194c-1.275,12.385-0.786,24.652,2.45,36.656c4.289,15.911,13.407,27.75,29.832,32.59
		c7.229,2.13,14.635,2.605,22.225,1.801c17.659-1.871,29.471-11.159,35.889-27.482
		C1119.013,206.606,1120.149,195.882,1120.021,184.237z"/>
	<path style="fill:#121333;" d="M1449.706,196.753c1.388,18.94,6.431,35.081,23.042,45.202c6.166,3.757,13.05,5.757,20.313,6.093
		c8.837,0.408,17.584,0.186,26.105-2.814c10.526-3.706,17.277-10.765,20.224-21.508c0.216-0.789,0.575-1.539,0.93-2.47
		c17.254,0,34.544,0,52.13,0c-3.784,23.878-15.682,41.935-36.909,53.623c-11.374,6.262-23.678,9.381-36.448,11.143
		c-10.936,1.509-21.858,1.891-32.862,0.997c-25.914-2.106-48.871-10.957-67.231-29.854c-10.376-10.68-17.402-23.475-21.197-37.881
		c-6.42-24.372-6.212-48.664,1.838-72.675c7.162-21.36,20.788-37.579,39.746-49.566c12.465-7.881,26.095-12.155,40.6-14.103
		c17.227-2.313,34.211-1.271,50.764,4.046c27.071,8.695,45.701,26.34,55.257,53.279c4.371,12.324,6.396,25.092,6.793,38.119
		c0.182,5.975,0.031,11.96,0.031,18.369C1545.357,196.753,1497.974,196.753,1449.706,196.753z M1538.946,163.045
		c-0.585-5.961-1.343-11.377-3.047-16.59c-3.462-10.59-9.698-19.058-20.262-23.256c-12.5-4.968-25.382-5.258-37.935-0.203
		c-13.13,5.287-20.519,15.882-24.707,28.95c-1.127,3.518-2.527,7.069-2.115,11.1
		C1480.243,163.045,1509.325,163.045,1538.946,163.045z"/>
	<path style="fill:#131433;" d="M766.449,283.553c-18.228,0-36.35,0-54.696,0c-1.101-1.468-0.45-3.362-0.452-5.097
		c-0.048-36.663-0.059-73.327-0.02-109.99c0.009-8.195-0.633-16.236-3.535-24.016c-2.866-7.683-8.054-13.096-15.775-15.49
		c-11.083-3.436-22.416-3.543-33.235,0.849c-13.93,5.655-21.019,16.761-22.76,31.428c-0.707,5.956-0.75,11.959-0.741,17.964
		c0.048,32.83,0.023,65.661,0.023,98.491c0,1.823,0,3.647,0,5.756c-18.344,0-36.435,0-54.852,0c0-65.521,0-131.098,0-197.021
		c17.98,0,36.186,0,54.638,0c0,9.972,0,19.882,0,30.078c2.499-2.077,3.456-4.81,5.114-7.039
		c10.42-14.012,24.267-22.328,41.333-25.731c16.205-3.231,32.108-2.755,47.487,3.546c14.224,5.829,24.05,16.28,30.106,30.344
		c4.049,9.401,6.447,19.225,6.85,29.433c1.774,44.974,0.362,89.969,0.786,134.953C766.724,282.473,766.562,282.935,766.449,283.553z
		"/>
	<path style="fill:#131433;" d="M782.487,221.411c17.042,0,33.998,0,51.069,0c1.375,3.465,1.759,7.107,3.067,10.513
		c2.968,7.73,8.331,12.959,16.133,15.056c11.264,3.027,22.616,3.261,33.859-0.747c10.915-3.892,14.234-12.812,12.346-23.035
		c-0.624-3.379-2.704-5.978-5.486-8.062c-5.036-3.771-10.884-5.566-16.806-7.263c-8.655-2.48-17.621-3.258-26.434-4.861
		c-11.8-2.147-23.411-4.807-34.361-9.863c-17.046-7.871-27.044-20.659-29.09-39.736c-1.56-14.55,0.099-28.195,8.035-40.713
		c5.763-9.09,13.827-15.673,23.265-20.606c11.962-6.253,24.821-9.27,38.221-10.247c15.059-1.098,29.889,0.028,44.442,4.257
		c9.88,2.872,18.993,7.273,26.603,14.218c8.953,8.172,14.523,18.495,17.487,30.197c0.969,3.825,2.112,7.66,2.014,11.954
		c-16.73,0-33.338,0-50.219,0c-1.028-1.104-0.848-2.892-1.284-4.416c-3.022-10.557-9.968-16.432-20.738-18.23
		c-8.569-1.43-16.921-1.1-25.002,2.216c-8.659,3.554-12.876,10.845-11.871,19.718c0.605,5.338,3.695,8.726,8.072,11.221
		c4.374,2.493,9.163,4.003,14.052,4.926c9.952,1.88,19.995,3.283,29.944,5.177c12.745,2.426,25.319,5.458,36.9,11.671
		c14.567,7.814,22.686,20.01,25.15,36.209c1.599,10.514,1.16,20.885-1.695,31.158c-3.579,12.876-11.026,22.938-21.923,30.545
		c-11.044,7.71-23.621,11.183-36.695,13.28c-18.986,3.045-37.936,2.248-56.502-2.267c-19.038-4.63-35.115-14.142-44.874-32.11
		c-4.102-7.553-6.372-15.64-7.152-24.172C782.838,225.454,782.672,223.506,782.487,221.411z"/>
	<path style="fill:#101132;" d="M557.107,283.729c-20.172,0-40.799,0-61.752,0c0-89.826,0-179.529,0-269.497
		c20.374,0,40.775,0,61.752,0C557.107,104.054,557.107,193.861,557.107,283.729z"/>
	<path style="fill:#111232;" d="M1325.993,86.279c0,12.008,0,23.73,0,35.452c13.323-25.944,34.546-38.395,63.66-38.367
		c0,16.755,0,33.657,0,50.705c-3.865,0.903-7.869,0.664-11.836,0.796c-10.099,0.336-19.745,2.522-28.844,6.962
		c-13.242,6.464-19.917,17.48-22.07,31.707c-0.978,6.462-0.903,12.947-0.903,19.44c-0.002,28.329-0.001,56.658-0.001,84.988
		c0,1.79,0,3.58,0,5.559c-18.404,0-36.34,0-54.639,0c0-65.683,0-131.365,0-197.243C1289.399,86.279,1307.34,86.279,1325.993,86.279z
		"/>
	<path style="fill:#131433;" d="M1246.397,282.966c-18.122,0-36.062,0-54.335,0c0-65.459,0-130.842,0-196.575
		c17.863,0,35.937,0,54.335,0C1246.397,151.745,1246.397,217.266,1246.397,282.966z"/>
	<path style="fill:#656AB1;" d="M803.921,380.113c6.15,0,11.625,0,17.33,0c7.607,22.939,15.2,45.837,22.94,69.179
		c-4.529,0.939-8.746,0.204-13.053,0.501c-2.548-5.466-3.678-11.159-5.892-16.719c-8.856,0-17.628,0-26.731,0
		c-2.864,4.901-2.954,11.168-5.954,16.504c-3.627,0-7.249,0-11.52,0C788.703,426.315,796.281,403.309,803.921,380.113z
		 M821.895,422.81c-3.31-10.402-6.535-20.535-9.76-30.669c-3.921,10.211-7.767,20.078-10.482,30.669
		C808.69,422.81,815.11,422.81,821.895,422.81z"/>
	<path style="fill:#656AB1;" d="M494.212,428.115c4.399,0,8.206,0,12.116,0c1.109,1.043,1.374,2.472,1.601,3.939
		c0.374,2.413,1.637,4.351,3.483,5.872c5.048,4.16,15.445,3.938,20.59-0.106c5.266-4.139,5.159-13.483-2.25-16.117
		c-3.782-1.345-7.672-2.055-11.588-2.686c-4.446-0.717-8.661-2.002-12.809-3.811c-7.246-3.159-9.248-10.849-8.78-16.93
		c0.762-9.908,6.739-16.182,18.402-18.414c6.25-1.196,12.224-0.739,18.116,1.314c7.688,2.679,12.513,9.332,12.759,17.494
		c-3.539,0.94-7.168,0.234-10.818,0.419c-0.302-0.423-0.673-0.768-0.835-1.194c-3.151-8.263-13.247-11.664-20.877-7.103
		c-3.047,1.822-4.515,4.47-4.173,7.865c0.333,3.299,1.828,6.027,5.328,7.117c4.433,1.381,8.926,2.487,13.512,3.254
		c3.923,0.656,7.857,1.439,11.407,3.316c8.343,4.411,10.569,13.227,8.118,22.339c-2.511,9.333-9.881,13.628-18.648,15.076
		c-5.649,0.933-11.561,0.812-17.329-0.678c-9.128-2.358-14.666-7.982-16.587-17.193C494.714,430.763,494.507,429.63,494.212,428.115
		z"/>
	<path style="fill:#666BB1;" d="M1060.719,419.26c0.909-7.943-0.558-11.198-5.159-12.222c-6.567-1.461-10.677,0.867-13.121,7.631
		c-3.645,0.365-7.379,0.408-11.098-0.037c-0.398-7.566,5.667-14.322,14.369-16.175c4.563-0.972,9.299-1.058,13.865-0.024
		c11.075,2.509,13.245,6.84,13.986,16.05c0.927,11.529,0.223,23.188,0.223,35.034c-3.864,0-7.448,0-11.111,0
		c-1.177-1.418-0.137-3.239-0.844-4.833c-1.361-0.267-1.828,1.034-2.633,1.661c-7.022,5.463-14.684,5.738-22.526,2.411
		c-5.259-2.231-7.469-6.816-7.723-12.37c-0.268-5.855,2.191-10.424,7.243-13.215c3.308-1.828,6.971-3.081,10.883-3.175
		C1051.542,419.888,1055.945,418.859,1060.719,419.26z M1061.274,426.977c-5.392-0.044-10.534-0.504-15.528,1.086
		c-3.449,1.098-5.171,4.165-4.755,8.236c0.343,3.351,2.063,5.057,5.878,5.556C1054.508,442.854,1062.982,440.15,1061.274,426.977z"
		/>
	<path style="fill:#676CB2;" d="M1399.438,419.236c0.26-8.141-1.465-11.412-6.167-12.262c-6.657-1.203-10.34,0.985-12.948,7.756
		c-3.582,0-7.196,0-10.817,0c0.565-9.137,5.829-14.917,15.625-16.454c5.403-0.848,10.944-0.894,16.265,1.082
		c5.507,2.045,8.73,6.072,9.521,11.75c1.772,12.711,0.455,25.488,0.909,38.448c-4.039,0-7.626,0-11.194,0
		c-1.209-1.559-0.262-3.352-0.868-4.998c-1.47-0.041-2.094,1.272-3.028,2.021c-6.609,5.295-16.388,5.77-23.855,1.191
		c-5.047-3.095-6.373-8.282-5.789-13.939c0.563-5.452,3.653-9.211,8.527-11.383c5.867-2.615,12.243-2.706,18.512-3.193
		C1395.784,419.127,1397.452,419.236,1399.438,419.236z M1398.696,427.138c-4.806-0.345-9.724-0.683-14.524,0.858
		c-4.281,1.375-5.757,3.817-5.291,8.274c0.374,3.584,2.458,5.328,6.876,5.656c1.318,0.098,2.662,0.143,3.972,0.005
		c5.686-0.598,9.32-4.492,9.47-10.156C1399.237,430.33,1399.56,428.824,1398.696,427.138z"/>
	<path style="fill:#656AB1;" d="M689.428,427.006c-12.516,0-24.646,0-36.732,0c-1.189,6.522,2.016,12.052,7.997,14.105
		c7.466,2.562,13.732,0.22,17.223-6.661c3.417-0.726,7.009-0.233,10.996-0.308c-1.005,7.978-5.538,12.525-12.386,14.926
		c-7.977,2.797-15.998,2.866-23.648-1.136c-7.961-4.165-12.558-10.725-12.907-19.859c-0.152-3.964-0.107-7.889,0.754-11.883
		c2.247-10.414,12.782-18.38,22.685-18.324c4.354,0.025,8.585,0.232,12.659,2.068c8.108,3.652,12.04,10.189,12.856,18.694
		C689.173,421.196,690.179,423.782,689.428,427.006z M676.914,418.736c0.171-7.603-3.541-11.914-10.635-12.504
		c-5.775-0.481-13.833,4.227-13.658,12.504C660.722,418.736,668.823,418.736,676.914,418.736z"/>
	<path style="fill:#656AB1;" d="M632.849,427.047c-12.932,0-25.185,0-37.411,0c-0.367,7.561,2.826,12.394,9.168,14.29
		c6.97,2.083,12.526-0.19,16.477-6.968c3.397-0.501,6.983-0.31,10.56-0.087c0.431,7.617-7.327,13.681-12.99,15.25
		c-6.549,1.815-13.018,1.941-19.564-0.325c-8.921-3.088-15.425-11.432-16.096-20.828c-0.602-8.43,0.646-16.262,6.607-22.727
		c8.734-9.472,25.302-10.444,34.949-2.503c3.041,2.504,4.923,5.867,6.212,9.496C632.322,417.041,632.423,421.685,632.849,427.047z
		 M620.701,418.792c-1.676-9.057-5.346-12.736-12.276-12.622c-6.896,0.113-11.48,4.527-12.941,12.622
		C603.762,418.792,612.005,418.792,620.701,418.792z"/>
	<path style="fill:#656AB1;" d="M1021.927,426.973c-12.92,0-25.183,0-37.407,0c-0.531,7.331,3.065,12.598,9.622,14.544
		c6.389,1.896,12.153-0.612,15.833-6.951c1.654-0.911,3.52-0.354,5.311-0.447c1.794-0.092,3.596-0.02,5.552-0.02
		c0.18,4.627-1.85,7.763-4.674,10.436c-5.568,5.27-12.504,6.858-19.824,6.315c-9.69-0.719-17.693-4.667-21.955-14.001
		c-3.867-8.469-3.736-23.09,4.784-31.706c10.199-10.314,29.525-9.143,36.71,0.39c2.361,3.133,3.983,6.585,4.806,10.305
		C1021.43,419.208,1021.485,422.73,1021.927,426.973z M984.875,418.673c8.477,0,16.662,0,24.863,0
		c-0.575-8.342-4.725-12.131-12.248-12.441C990.617,405.948,985.583,410.992,984.875,418.673z"/>
	<path style="fill:#656AB1;" d="M1484.11,423.729c-0.071-16.374,13.659-26.108,25.882-25.966
		c15.159,0.176,26.891,9.942,26.807,26.485c-0.081,16.022-10.388,26.428-26.32,26.46
		C1494.883,450.738,1484.237,440.317,1484.11,423.729z M1524.283,424.307c-0.082-1.583-0.05-3.422-0.292-5.223
		c-0.85-6.301-5.512-11.073-11.539-11.942c-5.869-0.846-11.75,2.109-14.283,7.71c-2.779,6.145-2.706,12.523-0.25,18.806
		c2.091,5.351,6.137,8.185,13.43,8.178c5.609-0.005,9.714-3.465,11.844-8.965C1524.254,430.132,1524.051,427.34,1524.283,424.307z"
		/>
	<path style="fill:#656AB1;" d="M1282.133,397.89c12.268-0.45,26.721,8.211,26.371,26.359
		c-0.341,17.664-11.616,26.315-26.353,26.426c-14.662,0.111-26.949-10.102-26.234-27.924
		C1256.569,406.488,1269.848,397.12,1282.133,397.89z M1295.957,423.884c0-0.687,0.105-2.027-0.017-3.347
		c-0.706-7.602-5.861-13.02-12.969-13.422c-5.382-0.304-11.909,2.187-14.168,10.768c-1.261,4.791-1.126,9.513,0.194,14.233
		c1.612,5.765,6.328,9.453,12.411,9.767c5.916,0.306,11.229-3.067,13.332-8.557C1295.821,430.506,1296.25,427.556,1295.957,423.884z
		"/>
	<path style="fill:#666BB1;" d="M1211.124,448.981c-3.509,0-6.984,0-10.45,0c-0.989-3.443-1.265-42.66-0.324-49.838
		c3.549,0,7.141,0,10.758,0c1.395,1.645,0.038,3.867,1.029,5.567c1.089-0.104,1.548-0.862,2.098-1.45
		c6.229-6.656,13.853-6.479,21.667-4.061c4.818,1.491,7.283,5.609,8.815,10.161c0.626,1.861,0.989,3.901,1.005,5.863
		c0.092,11.298,0.045,22.596,0.045,34.127c-3.875,0.738-7.602,0.369-11.165,0.323c-1.159-1.877-0.689-3.576-0.7-5.185
		c-0.054-7.991-0.024-15.982-0.025-23.974c0-0.999,0.11-2.015-0.032-2.994c-0.555-3.834-1.116-8.017-5.516-9.188
		c-4.344-1.157-8.962-1.505-12.77,1.867c-2.783,2.464-3.835,5.685-3.811,9.376c0.056,8.49,0.03,16.981,0.001,25.472
		C1211.744,446.182,1212.038,447.371,1211.124,448.981z"/>
	<path style="fill:#656AB1;" d="M916.28,399.077c3.883,0,7.477,0,11.035,0c1.223,2.162,0.055,4.441,1.011,6.811
		c2.227-2.854,4.49-5.584,7.874-6.687c10.739-3.5,23.87-1.262,25.342,14.358c1.115,11.831,0.221,23.852,0.221,35.992
		c-3.937,0-7.527,0-11.056,0c-1.158-1.229-0.685-2.63-0.692-3.896c-0.046-8.157-0.082-16.316,0.011-24.473
		c0.029-2.531-0.496-4.937-0.912-7.388c-0.469-2.766-2.233-4.804-4.61-5.443c-7.653-2.059-16.341-0.129-16.559,10.57
		c-0.2,9.803-0.042,19.612-0.042,29.51c-1.997,1.159-4.02,0.566-5.935,0.669c-1.796,0.096-3.6,0.021-5.687,0.021
		C916.28,432.393,916.28,415.99,916.28,399.077z"/>
	<path style="fill:#656AB1;" d="M1593.082,415.949c-0.039,9.413-0.066,18.826-0.13,28.239c-0.012,1.809-0.173,3.616-0.266,5.424
		c-3.636,0-7.272,0-11.442,0c0-2.887,0.005-5.664-0.001-8.441c-0.017-7.663,0.105-15.33-0.098-22.989
		c-0.2-7.55-2.777-10.031-9.098-10.492c-8.284-0.604-12.675,4.969-12.983,10.695c-0.206,3.821-0.054,7.661-0.056,11.493
		c-0.003,6.283-0.001,12.565-0.001,19.038c-4.105,0-7.702,0-11.602,0c0-16.528,0-32.935,0-49.787
		c3.687-0.46,7.399-0.22,11.083-0.183c1.029,2.375,0.102,4.601,0.803,6.965c2.652-2.082,4.46-5.032,7.637-6.288
		C1578.233,395.153,1592.397,398.323,1593.082,415.949z"/>
	<path style="fill:#656AB1;" d="M1152.009,448.874c-4.256,0-7.852,0-11.675,0c0-16.651,0-33.056,0-49.727c3.785,0,7.38,0,11.138,0
		c1.318,1.922-0.113,4.391,0.879,6.477c1.233-0.123,1.577-1.215,2.212-1.916c5.288-5.834,12.008-6.835,19.184-5.239
		c7.042,1.566,11.864,7.448,12.086,15.205c0.337,11.803,0.088,23.623,0.088,35.642c-3.881,0.81-7.611,0.339-11.281,0.405
		c-0.872-1.934-0.512-3.611-0.522-5.23c-0.057-8.995,0.017-17.991-0.103-26.984c-0.076-5.721-2.423-8.916-6.706-9.645
		c-6.589-1.123-12.241,1.392-14.282,6.401c-0.891,2.188-1.057,4.486-1.042,6.845
		C1152.044,430.241,1152.009,439.375,1152.009,448.874z"/>
	<path style="fill:#656AB1;" d="M1351.237,399.056c3.861,0,7.161,0,10.45,0c0.153,4.318-6.552,23.855-17.328,50.648
		c-4.384,0-8.853,0-13.831,0c-6.074-16.449-12.364-33.109-18.131-50.206c4.203-1.197,7.997-0.27,12.093-0.724
		c4.371,12.528,8.692,24.911,13.012,37.294c0.325-0.008,0.65-0.015,0.975-0.023C1342.71,423.774,1346.943,411.503,1351.237,399.056z
		"/>
	<path style="fill:#666BB1;" d="M1426.878,408.07c-2.513-0.119-4.459-0.211-6.328-0.3c-0.904-1.646-0.528-3.17-0.528-4.621
		c0-1.286-0.401-2.657,0.445-3.904c1.866-0.854,3.928,0.057,6.1-0.701c0.838-3.425-0.147-7.113,0.586-10.865
		c3.704-0.971,7.462-0.156,11.662-0.507c0,3.985,0,7.571,0,11.615c3.85,0,7.271,0,10.907,0c0.449,3.198,0.374,5.927,0.087,8.968
		c-3.547,0-6.83,0-9.683,0c-1.61,1.156-1.198,2.422-1.203,3.527c-0.035,7.332,0.249,14.676-0.103,21.991
		c-0.279,5.814,2.329,8.62,9.113,7.297c0.806-0.157,1.546-0.572,2.611-0.056c0.401,2.646,0.283,5.427,0.035,8.456
		c-5.28,1.978-10.478,2.829-15.843,0.355c-5.053-2.33-7.637-6.327-7.751-11.775c-0.163-7.828-0.085-15.662-0.107-23.493
		C1426.873,412.246,1426.878,410.434,1426.878,408.07z"/>
	<path style="fill:#666BB1;" d="M1111.59,380.53c4.407-0.73,8.498-0.367,12.926-0.27c0,23.022,0,45.887,0,68.835
		c-4.103,0-8.425,0-12.926,0C1111.59,426.059,1111.59,403.386,1111.59,380.53z"/>
	<path style="fill:#656AB1;" d="M560.271,375.365c4.024,0,7.485,0,11.31,0c0,24.462,0,48.795,0,73.479c-3.64,0-7.339,0-11.31,0
		C560.271,424.437,560.271,400.086,560.271,375.365z"/>
	<path style="fill:#676CB2;" d="M1461.444,399.138c3.836,0,7.422,0,11.344,0c0,16.734,0,33.401,0,50.304
		c-3.723,0.674-7.448,0.273-11.344,0.326C1461.444,432.714,1461.444,416.038,1461.444,399.138z"/>
	<path style="fill:#676CB2;" d="M1460.053,383.661c-0.116-3.762,3.474-7.547,7.114-7.5c3.827,0.049,6.807,3.085,6.957,6.979
		c0.165,4.285-2.384,6.935-6.979,7.426C1463.561,390.948,1460.167,387.356,1460.053,383.661z"/>
</g>
</svg>
