<?xml version="1.0" encoding="iso-8859-1"?>
<!-- Generator: Adobe Illustrator 27.0.0, SVG Export Plug-In . SVG Version: 6.00 Build 0)  -->
<svg version="1.1" id="Layer_1" xmlns="http://www.w3.org/2000/svg" xmlns:xlink="http://www.w3.org/1999/xlink" x="0px" y="0px"
	 viewBox="0 0 1468 785" style="enable-background:new 0 0 1468 785;" xml:space="preserve">
<g>
	<path style="fill:#1357A3;" d="M248,785c-3.269-1.969-7.042-1.303-10.54-1.76c-24.176-3.157-47.51-9.408-70.264-18.066
		c-27.419-10.434-52.59-24.67-75.148-43.503c-21.437-17.897-39.013-39.017-53.068-63.087
		c-16.565-28.369-27.412-58.894-34.074-90.991c-1.894-9.125-3.321-18.296-3.908-27.595C0.947,539.184,1.049,538.309,0,538
		c0-11.333,0-22.667,0-34c2.146-3.182,1.459-6.95,1.856-10.404c6.299-54.724,25.323-104.048,61.641-146.062
		c20.108-23.262,43.91-42.071,70.27-57.761c4.28-2.548,8.71-4.83,12.805-7.722c3.732-2.636,7.169-0.857,7.015,3.659
		c-0.209,6.17-1.932,11.174-8.202,14.675c-46.165,25.771-81.749,61.831-104.89,109.673c-10.695,22.111-17.787,45.344-21.751,69.609
		c-3.187,19.505-4.067,39.114-2.526,58.716c4.041,51.418,21.441,97.821,54.331,137.85c37.05,45.091,84.271,74.167,141.069,87.526
		c13.441,3.161,27.131,4.941,40.962,5.593c63.127,2.975,119.253-15.742,168.845-54.534c14.869-11.63,28.32-24.805,39.685-39.917
		c4.462-5.932,10.384-7.963,17.185-8.65c2.354-0.238,4.652,0.144,6.339,2.676c-3.864,5.892-8.058,11.627-12.509,17.166
		c-15.659,19.49-34.414,35.668-54.537,50.295c-23.837,17.326-49.733,30.669-78.053,39.077c-14.841,4.406-29.927,7.627-45.418,8.675
		c-0.811,0.055-1.685-0.101-2.118,0.861C277.333,785,262.667,785,248,785z"/>
	<path style="fill:#747278;" d="M1468,369c-3.868,4.125-9.175,3.206-13.941,3.678c-9.907,0.98-19.865,1.443-29.8,2.143
		c-1.302,0.092-2.71-0.043-3.697,1.15c-2.071,9.216,5.038,22.16,14.247,25.981c10.876,4.513,20.331,0.57,29.134-5.27
		c3.943,3.538,4.044,4.168,1.419,7.603c-6.133,8.026-13.633,14.258-23.788,16.14c-23.331,4.324-41.386-9.974-44.653-31.09
		c-3.653-23.61,10.342-43.274,27.007-50.722c17.779-7.946,35.693-1.041,42.989,16.977c0.243,0.601,0.244,1.303,1.083,1.411
		C1468,361,1468,365,1468,369z M1420.364,363.359c0.936,1.322,1.714,1.557,2.534,1.763c6.216,1.564,12.528,0.738,18.789,0.604
		c2.574-0.055,4.086-2.425,4.317-5.239c0.384-4.685-1.233-8.827-3.699-12.62c-4.9-7.539-11.735-5.618-15.718-0.992
		c-2.642,3.068-4.084,6.778-5.525,10.466C1420.29,359.317,1419.471,361.382,1420.364,363.359z"/>
	<path style="fill:#768CC3;" d="M287.221,163.372c-3.248,0.855-6.465,0.964-9.452-0.129c-1.269-1.755-0.824-3.478-0.82-5.096
		c0.039-13.49-0.428-27.012,0.361-40.46c0.888-15.128-0.001-30.273,0.977-45.351c0.949-14.629,0.15-29.266,1.005-43.856
		c0.457-7.799,0.74-15.581,0.628-23.372C279.883,2.487,281.229,1.249,283,0c1.333,0,2.667,0,4,0
		c-0.12,0.316-0.095,0.621,0.075,0.913c-1.821,0.922-1.116,2.624-1.096,3.992c0.623,43.522-1.142,87.027-0.914,130.546
		c0.033,6.318,0.132,12.641-0.048,18.954C284.924,157.669,285.504,160.624,287.221,163.372z"/>
	<path style="fill:#6F86BF;" d="M153.614,669.813c-1.377-1.382-1.547-3.139-1.546-5.013c0.019-30.48,0.027-60.96-0.001-91.44
		c-0.004-4.68,1.927-7.538,6.435-9.448c13.875-5.879,27.578-12.163,41.34-18.308c21.471-9.588,42.942-19.174,64.394-28.803
		c3.617-1.624,7.056-3.656,10.913-4.639c2.581,0.895,2.887,2.903,2.873,5.224c-0.054,8.328-0.021,16.656-0.021,24.984
		c0,22.152-0.129,44.306,0.102,66.456c0.05,4.782-1.828,7.357-5.938,9.178c-11.661,5.167-23.236,10.528-34.871,15.752
		c-11.63,5.222-23.313,10.328-34.938,15.562c-14.5,6.528-28.971,13.123-43.439,19.721
		C157.214,669.814,155.55,670.439,153.614,669.813z"/>
	<path style="fill:#0957A3;" d="M377.874,660.965c-2.972-0.762-5.447-2.773-8.109-4.307c-21.87-12.606-43.649-25.37-65.528-37.959
		c-4.04-2.325-5.935-5.403-5.924-10.067c0.071-30.133,0.045-60.266,0.016-90.399c-0.002-2.026,0.389-3.913,0.924-5.711
		c2.108-0.931,3.445,0.404,4.774,1.173c23.296,13.466,46.546,27.01,69.838,40.482c3.538,2.046,5.053,4.895,5.035,8.986
		c-0.141,31.628-0.175,63.256-0.265,94.884C378.632,658.978,379.007,660.047,377.874,660.965z"/>
	<path style="fill:#757479;" d="M814.522,421.354c-0.989,1.201-0.734,2.58-0.739,3.88c-0.026,6.498-0.058,12.997,0.002,19.495
		c0.06,6.416,2.075,8.628,8.333,9.427c1.316,0.168,2.634,0.364,3.929,0.646c1.883,0.41,2.905,1.58,2.708,3.568
		c-0.209,2.114-1.395,3.314-3.548,3.447c-0.662,0.041-1.331-0.044-1.997-0.044c-13.163-0.003-26.327,0.007-39.49-0.016
		c-1.477-0.003-2.989,0.275-4.419-0.453c-1.484-0.755-2.315-1.863-2.186-3.568c0.117-1.541,1.037-2.365,2.485-2.703
		c0.808-0.189,1.608-0.409,2.413-0.612c5.649-1.428,7.18-3.157,7.191-9.026c0.055-29.159-0.007-58.318,0.053-87.477
		c0.01-4.941-1.663-8.353-6.821-9.503c-1.877-0.418-3.424-1.375-3.388-3.682c0.033-2.056,1.471-3.004,3.103-3.426
		c9.464-2.45,18.955-4.796,28.445-7.143c0.447-0.111,0.974,0.102,1.409,0.157c3.492,2.809,0.318,7.624,3.295,10.685
		c2.359-0.24,3.856-1.898,5.454-3.237c11.624-9.736,26.193-7.75,36.428,0.962c10.465,8.907,13.461,20.739,12.401,33.729
		c-1.894,23.231-24.881,41.359-41.298,44.056c-2.986,0.491-5.973,0.359-8.966,0.367
		C817.693,420.885,816.007,420.364,814.522,421.354z M813.771,379.73c0,5.998,0,11.995,0,17.993c0,0.333-0.004,0.667,0.005,1
		c0.085,3.042,0.482,6.013,2.738,8.306c6.296,6.399,17.665,5.407,22.557-2.001c1.087-1.646,2.059-3.431,2.723-5.282
		c3.619-10.086,4.452-20.435,2.057-30.886c-1.854-8.091-5.531-15.05-14.003-18.078c-10.365-3.705-16.24,2.247-16.098,10.455
		C813.858,367.4,813.772,373.566,813.771,379.73z"/>
	<path style="fill:#727276;" d="M699.491,408.192c1.839,3.882,1.237,5.965-2.06,6.651c-9.89,2.059-19.814,3.949-29.732,5.87
		c-1.189,0.23-2.326-0.035-3.218-1.189c-0.995-1.877,0.21-4.19-0.801-6.257c-2.098-1.226-3.342,0.601-4.831,1.411
		c-7.484,4.072-15.242,6.197-23.889,4.477c-12.68-2.523-21.323-9.943-25.847-21.733c-9.158-23.87,4.543-53.102,32.445-60.259
		c5.225-1.34,10.636-2.542,16.185-1.381c1.864,0.39,3.532-0.639,5.027-1.155c1.483-1.301,1.321-2.849,1.324-4.336
		c0.011-5.996,0.064-11.992-0.013-17.986c-0.077-6.03-1.965-8.198-7.963-9.481c-0.645-0.138-1.321-0.219-1.917-0.478
		c-1.517-0.662-2.329-1.799-2.182-3.538c0.129-1.532,1.001-2.28,2.391-2.813c3.006-1.154,6.219-1.044,9.314-1.593
		c5.71-1.013,11.422-1.979,17.089-3.232c1.76-0.389,3.624-0.57,5.424-0.023c2.174,1.285,1.753,3.421,1.756,5.369
		c0.022,11.661,0.011,23.322,0.011,34.983c0,21.323,0,42.646,0,63.969c0,1.166-0.044,2.334,0.01,3.498
		c0.229,4.947,2.477,7.662,7.277,8.705C696.579,407.952,697.915,408.004,699.491,408.192z M664.098,378.503
		c0-7.325,0.116-14.653-0.031-21.976c-0.166-8.262-6.929-13.899-15.055-12.579c-4.742,0.771-8.164,3.631-10.359,7.812
		c-4.546,8.657-7.072,17.715-5.913,27.679c0.847,7.279,3.255,13.87,7.361,19.833c3.982,5.783,11.657,8.778,17.899,7.274
		c4.833-1.165,6.054-2.62,6.087-7.566C664.134,392.155,664.1,385.329,664.098,378.503z"/>
	<path style="fill:#727276;" d="M1108.572,334.651c1.673-2.294,1.452-4.583,0.995-6.919c-0.548-2.8-0.545-5.626-0.034-8.421
		c0.548-2.996,0.272-5.902-0.247-8.887c-0.751-4.318-3.021-6.808-7.351-7.609c-3.119-0.576-3.097-0.697-4.554-3.649
		c0.618-3.528,3.715-3.489,6.163-3.983c6.01-1.212,12.086-2.094,18.125-3.166c2.606-0.463,5.195-1.034,7.777-1.619
		c1.247-0.282,2.295-0.06,3.257,0.903c0.776,1.851,0.412,3.876,0.413,5.851c0.024,32.163,0.017,64.326,0.017,96.489
		c0,1-0.017,2,0.003,3c0.155,7.846,2.339,10.29,10.1,11.358c0.638,0.088,1.255,0.329,1.793,0.475
		c1.478,4.418,0.995,5.615-3.09,6.467c-9.408,1.961-18.844,3.791-28.284,5.591c-2.734,0.521-4.006-0.525-4.399-3.291
		c-0.203-1.433,0.367-3.004-0.756-4.249c-1.554-0.412-2.526,0.667-3.644,1.33c-5.683,3.37-11.88,5.449-18.42,5.45
		c-13.693,0.003-24.004-6.364-30.231-18.458c-8.794-17.08-4.905-41.127,12.374-54.96c9.903-7.928,21.374-11.074,33.856-11.083
		C1104.428,335.27,1106.417,335.531,1108.572,334.651z M1109.892,371.223c-0.086-5.906,0.182-11.38-0.801-16.83
		c-1.17-6.479-5.88-10.6-12.422-10.645c-4.915-0.034-8.605,2.32-11.47,6.005c-3.105,3.994-4.671,8.776-5.874,13.596
		c-3.121,12.504-1.55,24.387,5.566,35.267c3.619,5.534,9.094,8.208,15.606,8.322c7.029,0.123,10.228-3.395,9.276-10.316
		c-0.504-3.66-0.881-7.342-0.405-10.909C1110.033,380.723,1109.659,375.76,1109.892,371.223z"/>
	<path style="fill:#747276;" d="M539.666,568.625c-0.674,3.762-3.327,4.105-6.078,4.254c-8.299,0.45-15.687-2.288-22.574-6.612
		c-3.854-2.42-6.98-5.538-9.209-9.618c-3.424-6.266-7.077-12.407-10.666-18.581c-1.168-2.008-2.341-4.027-3.688-5.914
		c-2.289-3.206-5.446-5.398-9.917-3.789c-0.916,0.742-1.446,1.774-1.399,2.993c0.312,7.971-0.631,15.967,0.615,23.923
		c0.93,5.936,2.419,7.783,8.068,9.281c1.268,0.336,2.567,0.555,3.673,0.789c1.667,1.78,1.68,3.39,0.01,5.343
		c-14.695,0-29.624,0-44.555,0.002c-1.545-2.515-1.545-2.515-0.436-5.106c0.818-0.727,1.873-0.597,2.84-0.763
		c7.884-1.35,9.213-5.578,9.459-11.849c0.261-6.654,0.048-13.326,0.061-19.99c0.028-14.66,0.069-29.32,0.103-43.98
		c0.004-1.667-0.321-3.294-0.536-4.939c-0.642-4.911-3.659-7.211-8.178-8.077c-0.651-0.125-1.35-0.053-1.978-0.237
		c-1.396-0.408-2.289-1.265-2.273-2.86c0.015-1.513,0.667-2.479,2.114-3.008c1.437-0.526,2.892-0.663,4.407-0.659
		c10.159,0.025,20.345-0.436,30.469,0.158c7.772,0.456,15.605,0.183,23.34,1.583c11.084,2.007,19.923,10.068,21.506,20.125
		c1.847,11.732-2.191,20.881-12.237,27.307c-0.84,0.537-1.75,0.968-2.57,1.532c-2.503,1.723-3.288,3.4-1.801,5.891
		c7.305,12.239,13.187,25.426,23.604,35.624C534.318,563.876,537.765,565.235,539.666,568.625z M485.137,476.745
		c-7.001-0.132-8.882,1.679-9.011,8.68c-0.006,0.333-0.001,0.665-0.001,0.998c0,9.147-0.009,18.295,0.01,27.442
		c0.003,1.322-0.042,2.689,0.262,3.956c0.407,1.696,1.447,2.823,3.38,3.176c7.489,1.368,16.392-2.591,19.94-9.375
		c4.338-8.294,4.462-16.831,0.443-25.313C497.178,480.016,492.12,476.825,485.137,476.745z"/>
	<path style="fill:#737277;" d="M803.467,506.913c-0.754-1.428-0.769-2.68,0.166-4.05c0.472-0.198,1.075-0.666,1.681-0.672
		c7.163-0.07,14.326-0.073,21.489-0.086c1.861-0.003,3.183,0.805,3.826,2.689c-0.14,1.642-1.155,2.696-2.691,3.149
		c-5.154,1.519-7.727,5.502-9.672,10.052c-5.478,12.816-10.987,25.62-16.341,38.487c-6.307,15.155-12.349,30.413-17.451,46.031
		c-1.805,5.528-3.24,6.553-7.485,6.39c-4.092-0.157-8.897-3.588-9.866-7.256c-0.835-3.162-0.149-5.962,2.685-7.937
		c2.587-1.803,5.291-3.45,7.792-5.364c7.159-5.48,10.414-12.555,7.46-21.418c-3.195-9.586-6.818-19.031-10.36-28.498
		c-2.846-7.606-5.637-15.244-8.852-22.696c-2.703-6.267-5.969-8.406-12.547-6.119c-2.265,0.788-4.607,0.457-6.933,0.42
		c-4.405-0.07-5.432,0.815-5.444,5.093c-0.033,11.662,0.06,23.323,0.053,34.985c-0.004,7.203,2.95,11.386,12.044,10.499
		c4.085-0.398,4.653,0.067,4.823,4.938c-6.598,2.888-12.647,7.555-20.583,7.476c-8.313-0.083-15.297-5.727-16.133-14.006
		c-1.304-12.922-1.196-25.925-0.677-38.883c0.13-3.239,0.045-6.187-0.852-9.002c-2.446-2.228-5.414-0.351-7.817-1.514
		c-1.325-4.943-1.325-4.943,7.451-8.197c1.057-1.753,1.882-3.642,1.276-5.949c-0.551-2.097,0.039-4.315,1.58-5.47
		c5.153-3.86,10.115-8.063,15.83-10.77c2.667,0.853,3.009,2.721,2.992,4.849c-0.032,4.165-0.051,8.331,0.002,12.495
		c0.059,4.65,0.901,5.515,5.625,5.524c13.995,0.025,27.989-0.018,41.984-0.025c3.863-0.002,3.943,0.091,4.234,4.165
		c-1.277,2.078-4.184,2.004-6.02,4.861c2.188,10.703,6.865,21.317,10.194,32.326c0.341,1.126,0.525,2.305,2.584,2.471
		c1.575-4.658,3.183-9.443,4.809-14.222c1.601-4.705,3.256-9.393,4.823-14.109c1.954-5.879,1.494-6.878-4.143-9.663
		C804.421,507.617,803.901,507.197,803.467,506.913z"/>
	<path style="fill:#737377;" d="M560.627,418.783c-0.945-1.974-0.916-3.415-0.302-5.121c0.68-0.423,1.453-1.152,2.364-1.429
		c4.284-1.305,5.401-4.546,5.403-8.51c0.007-12.987,0.004-25.974-0.01-38.96c-0.001-0.996-0.026-2.008-0.195-2.987
		c-1.845-10.733-10.252-14.825-19.983-9.812c-3.404,1.754-5.241,4.16-5.198,8.244c0.149,14.32,0.076,28.643,0.047,42.965
		c-0.008,4.296,0.88,7.744,5.67,9.334c2.935,0.974,2.967,2.211,1.284,6.235c-13.822,0-27.758,0-41.737,0
		c-1.069-1.08-1.965-2.119-1.323-3.893c0.53-1.465,1.603-2.2,2.903-2.417c2.854-0.476,5.709-1.013,7.271-3.712
		c1.881-3.251,2.285-6.924,1.995-10.608c-1.006-12.78-0.846-25.56-0.105-38.34c0.352-6.063-1.182-8.823-7.006-11.526
		c-1.693-0.786-2.828-1.732-2.657-3.706c0.173-2.002,1.616-2.96,3.311-3.219c8.2-1.256,16.265-3.081,24.307-5.109
		c4.302-1.085,6.179,0.761,6.229,5.231c0.02,1.761-0.445,3.572,0.663,5.588c3.12-2.076,6.097-4.147,9.162-6.075
		c3.798-2.389,7.742-4.268,12.281-5.152c12.031-2.344,20.408,5.021,23.815,12.173c1.937,4.067,3.075,8.412,3.09,12.972
		c0.044,12.822,0.063,25.644,0.106,38.466c0.007,1.992,0.061,3.966,0.416,5.957c0.655,3.67,2.495,5.888,6.255,6.795
		c4.52,1.09,4.89,2.417,2.343,6.614C587.638,418.783,574.2,418.783,560.627,418.783z"/>
	<path style="fill:#737277;" d="M985.817,336.055c3.64,3.149,0.687,7.01,2.455,9.881c2.466,1.025,3.757-0.757,5.295-1.935
		c4.636-3.552,9.568-6.381,15.238-8.203c8.38-2.691,21.015,2.637,25.387,12.147c1.527,3.321,2.492,6.787,2.874,10.489
		c0.805,7.799,0.67,15.607,0.689,23.418c0.017,6.999-0.039,13.997,0.017,20.995c0.047,5.895,1.173,7.362,6.838,9.357
		c3.547,1.249,3.983,2.543,2.017,6.565c-13.322,0-26.761,0-40.104,0c-1.941-3.656-1.948-5.244,0.896-6.143
		c5.269-1.665,6.315-5.836,6.328-10.151c0.042-13.801,0.864-27.635-0.723-41.4c-0.994-8.618-7.943-12.916-16.206-10.372
		c-1.609,0.495-3.069,1.237-4.555,1.977c-3.373,1.681-4.593,4.355-4.556,8.105c0.134,13.329,0.01,26.661,0.068,39.991
		c0.037,8.389,0.336,8.773,7.691,12.797c0.455,2.365,0.455,2.365-0.183,4.626c-3.961,1.144-38.614,1.138-42.597-0.019
		c-1.062-1.299-0.717-2.774-0.468-4.225c0.913-1.151,2.181-1.604,3.512-1.719c5.295-0.46,7.052-2.635,8.2-8.934
		c0.177-0.97,0.059-1.995,0.06-2.994c0.003-13.495,0.013-26.99-0.003-40.484c-0.009-7.757-1.174-9.453-8.3-12.299
		c-1.892-3.832-1.495-5.429,2.118-6.144c8.456-1.674,16.955-3.118,25.308-5.293C984.04,335.846,985.082,336.055,985.817,336.055z"/>
	<path style="fill:#747276;" d="M1317.686,418.75c-13.319,0-26.759,0-40.137,0c-2.098-3.531-2.002-5.312,1.159-6.294
		c5.061-1.572,6.107-5.434,6.085-9.668c-0.071-13.637,0.716-27.291-0.635-40.91c-0.579-5.839-3.708-10.4-8.643-11.589
		c-5.609-1.351-10.514,0.517-14.65,4.345c-1.364,1.263-1.878,3.054-1.875,4.993c0.027,14.828-0.008,29.657,0.031,44.485
		c0.01,3.765,1.197,6.846,5.269,8.073c0.911,0.274,1.682,1.015,2.379,1.454c0.614,1.886,0.73,3.471-0.834,5.04
		c-13.89,0-27.956,0-41.8,0c-1.487-1.77-1.328-3.333-0.65-4.956c1.189-1.051,2.598-1.522,4.115-1.608
		c4.887-0.275,7.201-4.557,7.456-8.531c0.149-2.323,0.036-4.663,0.036-6.996c0.001-12.329,0.004-24.658-0.001-36.988
		c-0.003-8.085-0.889-9.35-8.359-11.996c-1.945-4.069-1.453-5.518,2.512-6.38c8.254-1.796,16.532-3.486,24.819-5.122
		c1.41-0.278,2.967-0.623,4.609,0.541c1.136,3.142-0.117,6.715,0.737,10.337c3.095-0.999,5.412-3.163,8.019-4.793
		c3.097-1.935,6.121-3.934,9.563-5.287c12.591-4.949,24.729,1.754,29.263,13.201c2.067,5.216,2.415,10.683,2.531,16.117
		c0.238,11.158,0.066,22.324,0.078,33.487c0.002,1.665-0.011,3.339,0.153,4.992c0.379,3.822,2.161,6.413,6.138,7.462
		C1319.266,413.268,1319.667,414.476,1317.686,418.75z"/>
	<path style="fill:#6F86BF;" d="M182.009,535.1c-2.551-2.31-2.929-4.833-2.615-7.817c0.87-8.255,1-16.541-0.066-24.793
		c-0.656-5.074,0.803-8.252,5.56-10.413c13.714-6.231,27.484-12.34,41.224-18.517c13.282-5.971,26.552-11.968,39.831-17.947
		c2.263-1.019,4.559-1.967,6.81-3.013c1.436-0.667,2.826-0.909,4.175-0.132c1.473,1.424,1.002,3.17,1.069,4.794
		c0.266,6.445-0.3,12.875,0.9,19.344c1.741,9.379-2.596,16.026-10.791,20.374c-8.498,4.509-17.665,7.488-26.382,11.511
		c-13.671,6.308-27.4,12.493-41.169,18.582C194.519,529.742,188.753,533.062,182.009,535.1z"/>
	<path style="fill:#0F58A4;" d="M290.967,325.27c15.212-0.007,28.192,5.346,39.002,16.074c5.992,5.947,9.026,13.151,8.974,21.485
		c-0.051,8.139-0.397,16.284-0.644,24.422c-0.313,10.29-0.643,20.619,0.278,30.927c0.34,3.801,0.035,7.656,0.09,11.486
		c0.103,7.157-0.303,14.32,0.27,21.471c0.11,1.375,0.081,2.692-1.386,3.428c-7.353-0.681-9.409-2.811-9.412-9.847
		c-0.01-21.984-0.043-43.968,0.026-65.951c0.016-5.052-0.619-9.956-2.414-14.661c-0.818-2.144-1.677-4.432-4.454-5.023
		c-2.267,0.434-3.18,1.961-3.418,4.201c-0.405,3.798-0.921,7.567-0.907,11.416c0.073,20.318,0.048,40.637,0.014,60.955
		c-0.003,2.085,0.619,4.411-1.534,5.964c-9.009-1.302-13.839-7.394-12.882-16.179c0.162-1.482,0.273-2.979,0.275-4.469
		c0.018-19.153,0.017-38.305,0.004-57.458c-0.001-1.656-0.097-3.293-0.334-4.958c-0.829-5.837-3.775-9.746-9.442-11.675
		c-5.545-1.887-10.083-0.166-14.21,3.485c-0.619,0.548-1.252,1.08-1.879,1.619c-1.67-1.975-1.997-4.342-1.987-6.807
		c0.023-5.12,0.054-10.241,0.068-15.361c0.003-1.166-0.057-2.333,1.339-3.427c3.006-0.899,6.488-0.114,9.896-0.421
		C287.858,325.824,289.603,326.747,290.967,325.27z"/>
	<path style="fill:#7187C0;" d="M290.967,325.27c-1.363,1.477-3.108,0.554-4.668,0.695c-3.408,0.307-6.889-0.478-9.896,0.421
		c-1.396,1.094-1.336,2.262-1.339,3.427c-0.014,5.121-0.046,10.241-0.068,15.361c-0.011,2.465,0.316,4.832,1.987,6.807
		c-1.206,5-2.023,10.036-2.001,15.214c0.08,18.325,0.082,36.651,0.098,54.976c0.009,10.426-3.377,14.802-13.77,17.742
		c-2.242-0.581-3.306-2.424-2.876-4.453c0.879-4.149,0.412-8.285,0.446-12.415c0.105-12.995,0.061-25.991,0.023-38.986
		c-0.009-3.139,0.271-6.282-0.622-9.409c-0.391-1.369-0.324-2.971,0.195-4.433c0.696-1.964,0.354-3.836-0.117-5.844
		c-0.583-2.486-1.574-4.439-4.098-5.099c-2.724-0.713-4.948,0.566-6.606,2.571c-3.599,4.35-5.502,9.462-5.621,15.079
		c-0.176,8.327-0.1,16.659-0.107,24.989c-0.011,13.662-0.008,27.324-0.001,40.986c0.004,7.222-3.819,10.588-11.337,9.867
		c-0.782-1.014-1.576-2.114-1.137-3.532c0.912-2.941,0.525-5.949,0.526-8.924c0.009-26.657,0.048-53.314-0.106-79.97
		c-0.049-8.474,3.325-15.108,9.717-20.319c14.241-11.612,30.617-16.767,48.935-15.858
		C289.477,324.211,290.586,323.945,290.967,325.27z"/>
	<path style="fill:#737277;" d="M447.218,304.902c-0.427-1.919-0.622-3.383,0.225-4.704c0.681-0.628,1.378-1.072,2.259-1.071
		c16.658,0.027,33.315,0.05,49.973,0.129c0.578,0.003,1.153,0.576,1.645,0.838c0.983,4.768,0.606,5.743-3.315,6.787
		c-10.148,2.702-11.171,4.488-11.134,14.999c0.088,24.99,0.028,49.981,0.028,74.972c0,0.833-0.015,1.666,0.003,2.499
		c0.165,7.795,3.004,11.14,10.676,12.585c4.76,0.897,5.348,2.139,3.064,6.787c-17.512,0-35.1,0-52.407,0
		c-1.723-1.623-1.449-3.262-1.12-4.875c0.806-1.304,2.021-1.638,3.406-1.818c6.858-0.892,10.5-3.067,11.319-12.564
		c0.328-3.8,0.028-7.653,0.028-11.482c-0.003-22.158-0.001-44.317-0.001-66.475c0-1,0.115-2.015-0.019-2.996
		c-1.002-7.321-0.775-7.67-7.84-10.481c-1.688-0.672-3.443-1.178-5.125-1.863C448.295,305.927,447.831,305.38,447.218,304.902z"/>
	<path style="fill:#737377;" d="M1216.036,397.145c1.916,0.657,3.141,1.685,3.562,3.52c0.172,1.012-0.283,1.971-0.867,2.722
		c-10.296,13.242-23.669,19.836-40.503,17.352c-12.488-1.843-21.17-9.514-25.985-20.945c-8.996-21.356-0.199-51.11,24.519-61.542
		c12.637-5.333,24.478-3.776,34.772,5.381c6.04,5.372,9.404,12.405,9.45,20.695c0.026,4.734-2.085,7.192-6.752,7.586
		c-9.255,0.78-18.479,1.946-27.786,2.15c-4.12,0.09-8.229,0.685-11.788,1.002c-3.22,2.399-2.232,5.085-1.759,7.656
		c1.495,8.124,5.493,14.493,12.965,18.424c9.031,4.751,17.66,2.981,26.052-1.687C1213.207,398.743,1214.341,397.73,1216.036,397.145
		z M1172.67,363.352c1.514,0.742,2.369,1.475,3.284,1.559c6.143,0.561,12.31,0.501,18.457,0.131c2.575-0.155,3.602-2.12,3.661-4.555
		c0.135-5.585-1.762-10.44-5.553-14.488c-3.156-3.37-5.867-3.879-9.769-1.455C1175.949,348.77,1173.682,355.526,1172.67,363.352z"/>
	<path style="fill:#747276;" d="M946.196,397.251c1.378,0.704,1.935,2.086,2.596,3.989c-3.687,5.916-8.687,10.955-14.855,14.687
		c-21.513,13.018-52.464,1.474-55.91-27.557c-2.29-19.286,4.681-34.834,20.438-46.206c5.895-4.254,12.822-6.394,20.011-6.87
		c14.28-0.947,27.516,9.859,30.41,23.038c0.457,2.079,1.105,4.168,0.891,6.392c-0.424,4.414-2.85,6.975-7.296,7.303
		c-9.769,0.721-19.543,1.362-29.313,2.067c-2.811,0.203-5.626,0.43-8.418,0.801c-2.762,0.367-4.1,1.767-3.683,4.32
		c1.751,10.722,7.269,21.489,19.749,24.265c7.255,1.614,13.729-0.781,20.001-4.145C942.369,398.504,943.462,396.611,946.196,397.251
		z M901.784,362.779c1.273,1.801,2.303,2.273,3.521,2.284c5.797,0.05,11.598,0.211,17.39,0.05c2.897-0.08,4.222-1.783,4.349-4.96
		c0.217-5.404-1.791-10.028-5.348-13.99c-3.136-3.494-7.305-4.504-11.815-0.544C904.693,350.173,902.331,356.242,901.784,362.779z"
		/>
	<path style="fill:#747276;" d="M770.309,397.043c4.255,2.622,4.932,4.37,2.574,7.164c-6.315,7.483-13.488,13.796-23.44,16.001
		c-20.013,4.435-38.346-5.59-43.701-24.266c-7.566-26.388,6.127-51.559,30.174-59.18c17.044-5.402,36.852,4.638,39.796,25.842
		c0.81,5.831-1.945,8.788-8.051,9.461c-11.884,1.31-23.831,1.711-35.736,2.704c-3.944,0.329-5.372,1.66-4.875,5.28
		c0.972,7.071,3.538,13.398,9.157,18.222c8.589,7.373,19.955,7.119,29.745,1.574C767.386,399.034,768.731,398.064,770.309,397.043z
		 M750.753,364.67c1.276-1.068,1.72-2.185,1.998-3.29c1.23-4.895-3.373-14.944-7.827-17.37c-2.43-1.323-4.808-1.113-7.146,0.111
		c-5.543,2.902-10.48,13.059-9.524,19.501C731.699,365.511,742.788,366.035,750.753,364.67z"/>
	<path style="fill:#747278;" d="M927.995,565.217c2.116,1.946,1.779,3.663,0.27,5.495c-16.127,0-32.218,0-48.078,0
		c-1.594-1.702-1.526-3.221-0.669-4.73c1.497-1.599,3.533-1.107,5.248-1.579c5.016-1.38,7.449-3.755,8.138-8.747
		c0.158-1.147,0.086-2.329,0.086-3.495c0.004-22.665,0.01-45.331-0.002-67.996c-0.003-6.111-1.073-7.132-7.298-7.159
		c-12.098-0.053-15.629,2.43-19.906,13.993c-0.458,1.24-0.842,2.517-1.419,3.7c-0.718,1.471-1.937,2.404-3.636,1.904
		c-1.533-0.452-2.582-1.52-2.59-3.273c-0.004-0.832-0.024-1.678,0.109-2.494c0.969-5.943,0.65-11.946,0.874-17.923
		c0.087-2.329,0.26-4.64,1.617-6.518c1.975-0.986,3.383,0.146,4.728,1.04c2.192,1.457,4.559,1.826,7.122,1.822
		c20.665-0.034,41.331-0.03,61.996-0.007c2.887,0.003,5.628-0.294,8-2.179c1.063-0.845,2.281-1.416,3.908-0.755
		c0.182,0.195,0.581,0.516,0.836,0.926c0.255,0.411,0.505,0.908,0.518,1.374c0.236,8.803,1.638,17.557,1.141,26.38
		c-3.609,2.198-4.426,2.069-6.011-1.254c-1.284-2.693-2.368-5.481-3.597-8.2c-2.694-5.958-7.388-8.741-13.87-8.636
		c-2.332,0.038-4.679-0.081-6.993,0.138c-2.972,0.281-4.042,1.478-4.355,4.461c-0.104,0.989-0.027,1.998-0.027,2.998
		c-0.001,21.999,0,43.997,0,65.996c0,0.167-0.001,0.333,0,0.5c0.053,9.849,2.161,12.358,11.707,13.916
		C926.646,565.044,927.457,565.142,927.995,565.217z"/>
	<path style="fill:#747276;" d="M1042.762,504.383c6.04-1.836,12.135-1.098,17.997-2.242c1.939-0.379,3.963-0.089,5.924-0.699
		c1.881-0.585,3.633-0.166,4.922,1.626c0.701,1.339,0.382,2.866,0.385,4.34c0.025,13.491,0.015,26.982,0.015,40.473
		c0,0.999-0.004,1.999,0,2.998c0.038,8.182,0.926,9.365,8.627,11.501c1.294,3.09,0.973,4.922-1.517,5.379
		c-8.136,1.491-16.104,3.96-24.433,4.344c-0.473,0.022-0.958-0.19-1.266-0.256c-2.451-1.779-0.394-5.111-2.992-7.05
		c-2.416,1.43-4.913,2.978-7.476,4.408c-4.102,2.289-8.396,3.687-13.215,3.879c-7.528,0.3-16.968-4.794-18.729-16.529
		c-1.365-9.094-0.935-18.25-0.978-27.39c-0.019-3.996-0.031-7.993,0.01-11.989c0.038-3.725-1.43-6.442-5.049-7.73
		c-2.368-0.843-3.825-2.046-2.251-4.952c2.388-0.999,4.991-1.232,7.638-1.426c5.13-0.377,10.258-0.821,15.37-1.382
		c4.049-0.445,5.132,0.434,5.143,4.918c0.034,13.658,0.021,27.315,0.005,40.973c-0.003,2.516,0.164,4.974,1.31,7.285
		c2.279,4.593,6.896,6.453,12.781,5.107c4.843-1.108,6.975-3.889,6.997-9.4c0.042-10.659,0.059-21.32-0.006-31.979
		c-0.037-6.051-1.215-7.57-6.79-9.438C1042.126,508.126,1042.126,508.126,1042.762,504.383z"/>
	<path style="fill:#737377;" d="M1394.07,401.965c-7.571,10.885-17.363,18.163-31.287,19.16
		c-21.652,1.551-39.304-16.647-40.094-37.496c-0.76-20.053,15.078-38.473,31.82-44.558c5.491-1.996,11.17-3.11,16.933-3.815
		c5.288-0.647,10.291,0.658,14.872,3.171c6.018,3.302,7.281,9.181,3.479,14.773c-2.603,3.83-5.991,4.575-9.807,1.969
		c-2.193-1.498-4.221-3.241-6.303-4.898c-12.54-9.98-24.318-2.006-26.328,9.631c-1.573,9.106-2.113,18.035,1.552,26.9
		c4.508,10.905,13.803,17.749,24.385,17.154c5.041-0.283,9.735-1.909,14.023-4.651
		C1390.957,396.976,1391.603,397.225,1394.07,401.965z"/>
	<path style="fill:#737377;" d="M670.279,565.066c-3.733,1.782-7.402,3.667-10.905,5.889c-3.881,2.462-7.738,2.648-11.463-0.497
		c-2.272-1.918-4.659-3.699-6.755-5.353c-2.035-0.288-3.276,0.641-4.298,1.707c-1.912,1.992-4.358,3.046-6.781,4.107
		c-9.915,4.344-22.221-1.546-24.844-12.135c-2.646-10.685,0.467-17.07,10.011-20.773c0.927-0.36,1.868-0.685,2.801-1.03
		c5.44-2.013,10.896-3.986,16.316-6.054c5.488-2.094,5.925-2.802,5.868-8.851c-0.016-1.664,0.02-3.348-0.218-4.987
		c-0.391-2.688-1.453-5.044-3.723-6.784c-4.255-3.262-7.513-2.717-10.341,1.827c-1.686,2.708-2.561,5.75-3.592,8.721
		c-1.17,3.372-2.903,5.988-6.936,6.055c-3.679,0.061-7.738-2.471-9.238-5.807c-1.318-2.933-0.894-4.954,1.828-7.528
		c3.792-3.587,8.396-6.016,13.018-8.242c4.611-2.22,9.513-3.702,14.627-4.674c12.334-2.344,23.304,6.629,24.355,18.921
		c0.508,5.939,0.247,11.89,0.085,17.827c-0.155,5.669,0.078,11.286,0.856,16.901c0.592,4.271,2.129,5.543,6.634,5.053
		c0.846-0.092,1.649-0.151,2.827,0.575c1.164,1.507,2.004,3.308-0.214,5.224L670.279,565.066z M639.308,534.991
		c-3.73,2.375-8.09,3.775-11.201,7.21c-4.507,4.974-3.407,13.479,2.077,17.008c4.296,2.765,10.203,2.042,10.674-5.013
		c0.345-5.159,0.346-10.324-0.004-15.483C640.765,537.409,640.532,536.092,639.308,534.991z"/>
	<path style="fill:#0F58A4;" d="M299.571,452.185c2.297-0.528,3.776,0.692,5.333,1.599c15.07,8.78,30.035,17.746,45.244,26.278
		c5.626,3.156,7.889,6.812,7.219,13.562c-0.884,8.906-0.221,17.965-0.223,26.958c0,1.649,0,3.298,0,4.898
		c-1.405,0.243-2.162-0.472-2.981-0.949c-16.796-9.787-33.531-19.683-50.415-29.316c-3.977-2.269-5.596-5.089-5.478-9.618
		c0.239-9.153,0.065-18.318,0.076-27.477C298.349,456.15,298.068,454.113,299.571,452.185z"/>
	<path style="fill:#757479;" d="M670.279,565.066l-0.083,0.09c2.24,0.518,4.284-0.233,6.21-1.175
		c2.211-1.081,3.668-2.838,3.762-5.456c0.006-0.166,0.037-0.332,0.037-0.498c0.003-26.319,0.005-52.638,0.005-78.958
		c0-3.253-1.624-5.264-4.706-6.207c-1.093-0.335-2.141-0.817-3.022-1.16c-0.798-1.513-0.78-2.773-0.012-4.378
		c3.501-1.404,7.443-1.773,11.352-2.389c3.925-0.619,7.793-1.591,11.693-2.376c3.463-0.696,5.055,0.446,5.363,3.875
		c0.104,1.157,0.027,2.331,0.027,3.497c0.001,27.652,0,55.304,0.001,82.956c0,1.166-0.02,2.333,0.004,3.498
		c0.117,5.605,1.346,7.142,6.891,8.655c3.331,0.909,3.57,1.49,2.052,5.679c-12.599,0-25.337,0-37.974,0
		C669.929,569.141,670.906,566.889,670.279,565.066z"/>
	<path style="fill:#737377;" d="M595.896,552.076c3.514,3.326,3.855,4.302,1.855,6.509c-4.599,5.076-9.626,9.694-16.115,12.271
		c-16.135,6.407-34.512-1.677-40.343-18.03c-6.904-19.363,1.915-41.337,20.873-49.7c9.978-4.401,19.754-3.832,28.609,2.947
		c5.992,4.587,9.263,10.756,9.115,18.469c-0.077,4.016-1.832,6.145-5.703,7.005c-0.96,0.213-1.975,0.196-2.967,0.249
		c-8.455,0.45-16.909,0.937-25.367,1.3c-1.867,0.08-3.601,0.457-5.332,1.117c-1.19,1.078-1.764,2.419-1.42,4.008
		c1.097,5.074,2.695,9.942,6.386,13.81c4.138,4.336,9.229,6.272,15.221,6.033C586.395,557.836,591.156,555.231,595.896,552.076z
		 M579.779,524.181c1.522-5.058,0.614-10.013-2.65-13.854c-1.905-2.243-4.245-3.831-7.337-3.113
		c-5.234,1.216-10.682,9.869-9.761,15.265c0.4,2.347,1.804,3.805,4.018,3.375c2.296-0.446,4.639,0.129,6.767-0.389
		C573.692,524.766,576.806,526.913,579.779,524.181z"/>
	<path style="fill:#747278;" d="M1131.959,519.612c-0.798,1.486-1.931,1.475-2.561,2.047c-2.696-0.483-3.561-2.521-4.567-4.429
		c-2.053-3.898-4.682-7.248-8.745-9.258c-3.982-1.97-7.785-1.324-10.351,1.803c-2.744,3.345-2.615,7.291,0.466,10.839
		c0.861,0.991,1.943,1.799,2.969,2.635c2.479,2.02,5.404,3.283,8.321,4.437c3.285,1.299,6.156,3.21,9.094,5.091
		c14.395,9.213,11.493,28.205-1.716,35.791c-8.741,5.02-17.969,5.518-27.447,2.995c-9.853-2.622-12.91-10.428-12.064-19.611
		c0.135-1.468,0.624-2.903,0.947-4.343c3.256-1.773,4.005-1.652,5.721,1.502c1.745,3.207,3.438,6.421,5.534,9.435
		c2.286,3.287,5.334,5.418,8.963,6.842c4.469,1.754,8.409,0.805,10.667-2.506c2.781-4.077,2.31-7.79-1.376-11.636
		c-2.112-2.203-4.746-3.617-7.357-5.056c-4.069-2.243-8.268-4.237-12.031-7.028c-7.345-5.447-10.566-13.848-8.399-22.253
		c2.036-7.898,9.775-14.532,18.075-15.904c5.812-0.96,11.55-0.597,17.32,0.081c3.088,0.363,5.464,1.933,6.328,4.876
		C1131.097,510.55,1132.191,515.234,1131.959,519.612z"/>
	<path style="fill:#737277;" d="M1145.953,510.414c-2.092-0.899-4.334-0.004-6.401-0.624c-2.529-4.296-0.968-6.277,6.451-8.172
		c1.345-1.32,2.069-3.009,1.945-4.893c-0.144-2.175,0.768-3.819,2-5.454c3.348-4.447,7.459-8.012,12.262-10.792
		c1.801-1.042,3.636-1.706,5.764,0.586c0,4.538,0.022,9.507-0.006,14.477c-0.031,5.618,1.135,6.821,6.675,6.677
		c1.496-0.039,2.988-0.267,4.483-0.297c4.061-0.082,5.491,1.626,4.573,5.519c-0.181,0.766-0.766,1.437-1.218,2.247
		c-2.998,0.883-5.992,0.126-8.947,0.223c-3.972,0.13-5.464,1.411-5.492,5.419c-0.081,11.653-0.032,23.307,0.05,34.961
		c0.01,1.462,0.417,2.951,0.827,4.374c1.138,3.941,2.664,5.212,6.679,5.506c1.988,0.146,3.994,0.091,5.991,0.061
		c2.347-0.035,3.773,0.993,4.148,3.293c-0.143,1.586-1.144,2.529-2.38,3.044c-4.281,1.781-8.281,4.177-12.751,5.558
		c-11.621,3.589-22.363-3.532-22.568-16.397c-0.207-12.98-0.157-25.965-0.125-38.947
		C1147.917,514.383,1147.919,512.125,1145.953,510.414z"/>
	<path style="fill:#757479;" d="M972.309,513.463c2.151-2.358,4.041-4.185,5.633-6.243c1.662-2.149,3.629-3.899,5.877-5.34
		c4.314-2.767,8.496-2.392,12.328,1.004c3.681,3.262,4.611,7.74,2.338,12.126c-0.832,1.606-1.834,3.223-3.109,4.478
		c-2.283,2.247-4.996,3.272-8.154,1.569c-1.313-0.708-2.636-1.429-4.023-1.965c-5.642-2.177-10.372,0.618-11.212,6.631
		c-0.206,1.478-0.201,2.993-0.205,4.491c-0.018,8.665-0.062,17.33,0.006,25.995c0.05,6.359,1.771,8.14,8.197,8.864
		c4.205,0.474,4.582,1.152,2.905,5.672c-13.342,0-26.786,0-40.244,0c-1.804-3.069-1.469-4.446,1.382-5.602
		c6.67-2.706,7.058-3.25,7.062-10.118c0.007-11.662-0.052-23.324,0.031-34.985c0.029-4.046-1.003-7.069-5.293-8.483
		c-2.492-0.821-2.39-1.132-2.589-4.682c2.555-2.674,6.234-1.825,9.349-2.497c4.207-0.908,8.427-1.759,12.599-2.844
		c4.975-1.293,6.767,0.146,6.677,5.386C971.829,508.863,971.659,510.8,972.309,513.463z"/>
	<path style="fill:#0957A3;" d="M283.166,270.341c12.922-1.705,24.046,2.577,33.458,11.015
		c12.646,11.335,17.369,25.974,16.154,42.703c-0.018,0.251-0.323,0.48-0.53,0.77c-1.503-0.03-2.178-1.369-3.156-2.162
		c-9.628-7.798-20.762-11.555-32.965-12.801c-7.969-0.814-15.918-0.673-23.886-0.409c-0.169-4.621-0.178-9.165,0.539-13.826
		c1.261-8.188,3.835-15.621,8.949-22.166C282.416,272.586,282.697,271.39,283.166,270.341z"/>
	<path style="fill:#6F86BF;" d="M283.166,270.341c-0.469,1.049-0.75,2.245-1.436,3.124c-5.114,6.545-7.689,13.978-8.949,22.166
		c-0.718,4.661-0.709,9.205-0.539,13.826c-5.231,1.499-10.492,2.905-15.686,4.524c-5.396,1.683-10.545,3.921-14.979,7.563
		c-0.737,0.606-1.667,0.976-2.759,1.599c-3.289-8.822-1.367-16.992,2.471-24.512c7.747-15.18,20.29-24.602,36.949-28.393
		C279.826,269.876,281.536,269.74,283.166,270.341z"/>
	<path style="fill:#1E5DA6;" d="M287.221,163.372c-1.718-2.748-2.298-5.703-2.205-8.967c0.18-6.313,0.081-12.636,0.048-18.954
		c-0.228-43.519,1.537-87.024,0.914-130.546c-0.02-1.368-0.724-3.069,1.096-3.992c2.047,0.377,1.934,1.954,1.941,3.476
		c0.013,3.163-0.039,6.329,0.066,9.489c0.636,19.12,0.619,38.256,1.178,57.372c0.53,18.127,0.304,36.266,1.019,54.375
		c0.459,11.637,0.251,23.279,0.837,34.905c0.033,0.645-0.096,1.299-0.165,2.139C290.404,163.376,288.94,164.017,287.221,163.372z"/>
	<path style="fill:#0F58A4;" d="M292.369,205.451c4.23,1.411,4.736,1.965,4.742,5.738c0.022,13.613,0.01,27.226-0.002,40.84
		c0,0.321-0.151,0.641-0.253,1.049c-1.424,1.349-3.006,0.746-4.582,0.224c-0.382-0.797-0.936-1.388-1.892-1.3
		c-2.221,0.204-4.169-0.619-5.861-1.363c-1.858-1.954-1.622-4.156-1.621-6.293c0.005-8.44,0.028-16.879,0.039-25.319
		c0.004-2.813-0.106-5.63,0.014-8.438c0.134-3.129,1.47-4.368,4.559-4.605C289.137,205.859,290.834,206.39,292.369,205.451z"/>
	<path style="fill:#768CC3;" d="M292.369,205.451c-1.535,0.939-3.233,0.408-4.857,0.532c-3.089,0.237-4.425,1.476-4.559,4.605
		c-0.12,2.808-0.01,5.625-0.014,8.438c-0.011,8.44-0.034,16.879-0.039,25.319c-0.001,2.137-0.237,4.339,1.621,6.293
		c1.691,0.745,3.64,1.567,5.861,1.363c0.956-0.088,1.511,0.503,1.892,1.3c-1.846,1.191-3.878,0.497-5.824,0.529
		c-4.137,0.069-8.277,0.021-12.569,0.021c-1.621-1.304-1.75-3.227-1.746-5.258c0.027-12.102-0.021-24.203,0.03-36.305
		c0.02-4.773,0.948-5.901,5.724-7.275c4.109-1.183,8.256-2.046,12.564-0.965C291.343,204.271,291.925,204.718,292.369,205.451z"/>
	<path style="fill:#1E5DA6;" d="M280.097,177.166c6.36-1.927,12.459-0.383,18.449,1.601c2.5,0.828,4.031,2.897,4.303,5.614
		c0.278,2.778,0.318,5.563-0.411,8.427c-5.771-0.593-10.72-3.917-16.439-3.834c-0.212-0.735-0.882-0.829-1.455-1.132
		C279.398,185.121,278.387,182.653,280.097,177.166z"/>
	<path style="fill:#768CC3;" d="M280.097,177.166c-1.711,5.487-0.7,7.955,4.447,10.677c0.572,0.303,1.243,0.397,1.455,1.132
		c-0.375,0.282-0.758,0.821-1.122,0.809c-6.696-0.226-13.103,0.926-19.415,4.407c-0.674-3.762-0.669-7.058-0.314-10.293
		c0.324-2.951,2.651-4.472,5.202-5.48C273.476,177.183,276.753,176.843,280.097,177.166z"/>
</g>
</svg>
