<?xml version="1.0" encoding="iso-8859-1"?>
<!-- Generator: Adobe Illustrator 27.0.0, SVG Export Plug-In . SVG Version: 6.00 Build 0)  -->
<svg version="1.1" id="Layer_1" xmlns="http://www.w3.org/2000/svg" xmlns:xlink="http://www.w3.org/1999/xlink" x="0px" y="0px"
	 viewBox="0 0 1560.087 540.008" style="enable-background:new 0 0 1560.087 540.008;" xml:space="preserve">
<g>
	<path style="fill:#788FB1;" d="M0,322.008c2-3.347,3.22-7.109,6.23-9.914c4.353-4.056,9.259-6.198,15.248-6.187
		c30.329,0.053,60.659,0.14,90.986-0.04c11.103-0.066,22.148-1.23,32.737-4.958c14.373-5.061,25.123-14.46,33.035-27.397
		c5.498-8.989,9.12-18.715,12.267-28.687c4.774-15.126,9.646-30.222,14.483-45.329c7.306-22.818,14.497-45.673,21.972-68.435
		c4.61-14.038,11.694-26.824,22.15-37.342c9.961-10.02,21.846-16.953,35.593-20.951c12.084-3.514,24.27-4.99,36.781-4.933
		c23.496,0.106,46.998,0.303,70.488-0.099c14.181-0.243,21.227,8.73,21.91,21.536c0.035,0.665,0.006,1.333,0.006,1.999
		c0,96.486,0.005,192.972-0.012,289.458c-0.001,5.914-1.105,11.481-5.096,16.226c-4.199,4.993-9.517,7.549-15.923,8.019
		c-1.492,0.11-2.998,0.032-4.498,0.032c-121.982,0.001-243.965-0.071-365.947,0.136c-9.765,0.017-19.065-4.685-21.989-14.888
		c-0.033-0.113-0.278-0.166-0.423-0.247C0,367.341,0,344.674,0,322.008z"/>
	<path style="fill:#788FB1;" d="M0,18.008c2.252-3.956,3.47-8.475,7.104-11.672C11.648,2.338,16.709-0.001,22.822,0
		c58.48,0.013,116.961,0.011,175.441,0c3.507-0.001,6.848,0.396,10.198,1.734c10.816,4.319,15.309,15.21,13.246,25.631
		c-4.776,24.119-9.608,48.233-14.923,72.237c-3.138,14.169-5.244,28.584-9.711,42.453c-4.515,14.017-11.733,26.33-22.809,36.185
		c-7.252,6.453-15.425,11.376-24.554,14.804c-14,5.258-28.459,7.244-43.352,7.169c-27.99-0.141-55.981-0.031-83.971-0.044
		c-11.492-0.005-18.414-5.309-21.688-16.514c-0.076-0.261-0.459-0.433-0.698-0.646C0,128.008,0,73.008,0,18.008z"/>
	<path style="fill:#474647;" d="M521,540.008c-0.654-13.303-0.11-26.607-0.296-39.518c1.131-1.563,2.386-1.16,3.49-1.175
		c6.498-0.088,12.997-0.097,19.494-0.199c5.53-0.087,10.862-1.244,16.129-2.92c12.698-4.041,19.734-12.887,22.193-25.717
		c0.849-4.428,1.144-8.9,1.129-13.409c-0.15-44.656-0.262-89.312-0.412-133.968c-0.167-49.822-0.368-99.643-0.521-149.465
		c-0.005-1.783-0.446-3.64,0.512-5.594c14.196,0,28.44,0,42.636,0c0.973,1.73,0.524,3.426,0.527,5.041
		c0.149,91.318,0.165,182.636,0.54,273.953c0.042,10.186-0.028,20.233-2.119,30.195c-6.829,32.534-26.87,52.082-58.938,59.695
		c-4.195,0.996-8.409,1.997-12.748,2.215c-0.684,0.034-1.308,0.148-1.616,0.867C541,540.008,531,540.008,521,540.008z"/>
	<path style="fill:#474647;" d="M1045.142,421.473c-14.339,0-28.092,0-42.088,0c0-83.836,0-167.43,0-251.346
		c14.132,0,28.221,0,42.782,0c0,9.359,0,18.935,0,28.403c1.526,0.314,1.895-0.406,2.295-1.173
		c7.242-13.898,18.978-22.37,33.375-27.629c14.488-5.292,29.529-6.85,44.731-5.439c22.894,2.126,41.512,12.32,54.983,31.269
		c2.501,3.519,4.879,7.125,7.522,10.997c2.349-3.604,4.422-7.162,6.856-10.453c10.606-14.341,24.935-23.182,41.937-27.949
		c16.268-4.562,32.846-5.439,49.471-3.024c22.404,3.254,42.086,12.09,56.843,30.003c10.175,12.351,16.099,26.654,19.061,42.26
		c1.839,9.685,2.343,19.489,2.343,29.328c-0.003,49.666,0.003,99.332-0.019,148.999c-0.001,1.808,0.339,3.658-0.442,5.712
		c-14.008,0-28.095,0-42.204,0c-1.048-0.937-0.627-2.184-0.628-3.285c-0.023-49-0.023-97.999-0.007-146.999
		c0.001-1.891-0.695-4.094,1.834-4.818c-0.581-8.777-1.167-17.26-3.893-25.378c-5.783-17.22-16.727-29.722-34.712-34.035
		c-23.686-5.679-45.392-1.391-62.983,16.552c-9.151,9.333-13.419,21.195-15.234,34.004c-0.845,5.965-0.806,11.957-0.805,17.955
		c0.007,46.833,0.006,93.666-0.009,140.499c-0.001,1.789,0.252,3.619-0.375,5.566c-14.224,0-28.308,0-42.345,0
		c-0.993-1.927-0.541-3.783-0.542-5.563c-0.029-48.5,0.054-96.999-0.08-145.499c-0.032-11.493-1.012-22.941-5.562-33.749
		c-8.568-20.351-24.127-30.581-45.934-31.838c-10.109-0.583-19.968,0.647-29.359,4.468c-19.024,7.74-30.352,22.026-34.881,41.874
		c-1.524,6.678-1.952,13.479-1.948,20.327c0.029,47.999,0.016,95.998,0.016,143.997
		C1045.142,417.33,1045.142,419.153,1045.142,421.473z"/>
	<path style="fill:#474747;" d="M869.561,277.752c0-8.696,0.201-17.281-0.102-25.848c-0.116-3.275-0.396-6.601-1.08-9.9
		c-2.749-13.247-10.207-22.888-21.879-29.398c-9.847-5.493-20.506-8.309-31.654-9.761c-7.801-1.016-15.584-1.136-23.411-1.036
		c-20.644,0.262-39.981,5.812-58.59,14.347c-1.799,0.825-3.464,1.953-6.133,2.541c-6.235-11.585-12.555-23.328-18.953-35.216
		c2.517-1.67,5.021-2.541,7.474-3.495c20.849-8.111,42.273-13.601,64.688-15.295c23.29-1.76,46.249-0.436,68.625,6.438
		c16.88,5.185,32.276,13.186,44.532,26.366c10.64,11.442,16.868,24.892,18.997,40.357c0.89,6.469,0.995,12.94,0.995,19.436
		c-0.004,52.819,0.002,105.639-0.019,158.458c-0.001,1.805,0.321,3.647-0.388,5.695c-13.171,0-26.399,0-40.085,0
		c0-8.477,0-16.744,0-25.23c-1.994-0.082-2.632,1.206-3.481,2.01c-13.922,13.189-29.878,22.635-48.829,26.557
		c-14.823,3.068-29.726,2.837-44.719,1.369c-16.449-1.611-31.973-6.266-46.335-14.233c-24.803-13.76-39.975-34.622-43.987-62.951
		c-5.611-39.624,15.677-70.013,44.595-85.112c18.22-9.513,37.677-13.532,58.055-14.073c14.764-0.392,29.145,1.401,43.205,6.092
		c12.792,4.268,24.154,10.948,34.632,19.297C866.841,276.064,867.646,277.456,869.561,277.752z M801.006,388.231
		c6.813-0.145,13.643,0.04,20.418-1.148c11.395-1.998,22.234-5.258,31.807-12.127c22.972-16.485,23.88-50.66,4.748-68.702
		c-8.921-8.413-19.67-12.837-31.347-15.359c-13.454-2.906-27.081-3.26-40.733-1.733c-9.953,1.113-19.606,3.446-28.674,7.883
		c-27.684,13.546-32.793,45.196-18.946,66.446c7.686,11.795,19.422,17.837,32.568,21.446
		C780.697,387.641,790.79,388.592,801.006,388.231z"/>
	<path style="fill:#484747;" d="M1559.776,48.123c0.076,11.472,0.151,22.944,0.231,34.416c0.02,2.827,0.054,5.653,0.081,8.48
		c-2.297,1.505-4.844,0.566-7.262,0.654c-5.166,0.19-10.267,0.346-15.087,2.653c-10.445,4.999-15.854,13.769-18.665,24.523
		c-0.503,1.923-1.014,3.918-1.027,5.883c-0.088,13.815-0.047,27.63-0.047,41.833c13.193,0,26.291,0,39.746,0
		c0,13.11,0,25.84,0,38.979c-13.045,0-26.139,0-39.743,0c0,71.451,0,142.499,0,213.861c-14.749,0-28.989,0-43.754,0
		c0-71.387,0-142.756,0-214.65c-12.731,0-24.955,0-37.469,0c0-13.109,0-25.697,0-38.789c12.253,0,24.48,0,36.467,0
		c1.271-1.807,0.827-3.35,0.836-4.783c0.077-12.829-0.114-25.664,0.206-38.487c0.263-10.541,2.507-20.758,6.842-30.434
		c6.584-14.695,17.309-25.438,31.535-32.788c11.978-6.189,24.76-9.468,38.166-10.489
		C1553.818,48.756,1556.795,48.413,1559.776,48.123z"/>
	<path style="fill:#484747;" d="M572.821,87.552c-0.644-15.197,13.762-30.194,30.354-29.855
		c13.743,0.281,29.798,11.991,29.433,30.93c-0.336,17.406-13.94,30.48-30.772,30.042
		C583.275,118.187,571.943,102.042,572.821,87.552z"/>
</g>
</svg>
