<?xml version="1.0" encoding="iso-8859-1"?>
<!-- Generator: Adobe Illustrator 27.0.0, SVG Export Plug-In . SVG Version: 6.00 Build 0)  -->
<svg version="1.1" id="Layer_1" xmlns="http://www.w3.org/2000/svg" xmlns:xlink="http://www.w3.org/1999/xlink" x="0px" y="0px"
	 viewBox="0 0 1457.705 282.085" style="enable-background:new 0 0 1457.705 282.085;" xml:space="preserve">
<g>
	<path style="fill:#D42A28;" d="M1457.705,274.901c-0.771,0.055-1.406,0.14-2.04,0.141c-9.824,0.008-19.649,0.006-30.208,0.006
		c-0.014-45.728,0-91.269-0.52-136.993c-12.865,21.871-24.957,44.075-37.198,66.196c-12.296,22.219-24.708,44.374-37.429,67.203
		c-24.996-45.018-49.716-89.538-74.436-134.058c-0.27,0.071-0.539,0.142-0.809,0.214c0,45.537,0,91.074,0,136.951
		c-10.807,0-21.195,0-31.878,0c0-68.396,0-136.779,0-205.469c11.126-1.294,22.236-0.359,33.717-0.709
		c24.42,45.877,48.825,91.727,73.524,138.127c24.583-46.148,48.852-91.706,73.424-137.834c10.997-0.533,22.253-0.093,33.853-0.262
		C1457.705,137.253,1457.705,205.809,1457.705,274.901z"/>
	<path style="fill:#D42A28;" d="M1215.085,171.573c-0.513,54.782-43.331,105.556-105.938,106.927
		c-58.7,1.285-110.653-45.349-109.733-110.604c0.815-57.844,48.466-105.658,107.291-105.51
		C1169.312,62.544,1214.445,111.93,1215.085,171.573z M1182.422,171.237c0.879-42.969-35.831-77.25-76.215-76.406
		c-43.145,0.902-74.667,36.822-74.28,75.327c0.451,44.79,36.203,76.715,76.798,75.786
		C1149.186,245.018,1182.371,212.637,1182.422,171.237z"/>
	<path style="fill:#D42A28;" d="M553.832,277.687c0-71.117,0-142.213,0-213.061c1.555-1.153,2.967-1.12,4.199-1.118
		c10.494,0.016,20.988-0.293,31.484,0.157c7.49,0.321,14.991,0.395,22.488,0.508c18.179,0.273,35.753,3.778,52.314,11.169
		c24.891,11.108,41.67,29.773,49.714,55.987c3.589,11.694,4.889,23.724,5.309,35.921c0.579,16.816-1.447,33.202-7.275,49.022
		c-8.545,23.197-24.142,39.723-46.768,49.855c-17.595,7.879-35.981,11.769-55.146,12.009c-17.829,0.224-35.663,0.065-53.495,0.058
		C555.693,278.195,554.652,278.449,553.832,277.687z M587.585,246.98c18.203,0.71,35.993,0.559,53.181-5.144
		c18.887-6.266,32.696-18.121,39.381-37.306c6.886-19.763,6.648-39.859,2.101-60.008c-2.855-12.651-8.989-23.509-19.036-31.961
		c-8.991-7.564-19.506-11.842-30.817-14.509c-14.238-3.357-28.692-3.343-43.176-2.98c-0.438,0.011-0.868,0.375-1.634,0.727
		C587.585,145.994,587.585,196.253,587.585,246.98z"/>
	<path style="fill:#D42A28;" d="M999.332,93.618c-7.104,8.116-15.198,14.797-22.506,22.867
		c-18.49-16.488-39.617-24.061-64.073-20.147c-18.238,2.919-33.569,11.518-45.615,25.539c-24.047,27.988-24.118,69.563-0.034,97.573
		c14.033,16.32,32.192,24.94,53.591,26.359c21.458,1.422,39.64-6.665,55.571-20.616c7.519,7.806,14.77,15.335,22.16,23.008
		c-3.362,5.454-20.716,17.365-33.678,22.459c-22.219,8.732-45.145,10.461-68.061,4.177c-46.314-12.699-75.31-51.263-79.437-93.74
		c-4.888-50.313,25.35-95.117,69.418-111.558C928.476,53.939,972.889,66.844,999.332,93.618z"/>
	<path style="fill:#D42A28;" d="M431.449,247.395c6.107-0.456,12.049-0.819,17.975-1.36c7.987-0.73,15.722-2.439,23.002-5.999
		c10.598-5.183,16.368-13.572,17.716-25.288c0.936-8.134,1.058-16.273,1.057-24.43c-0.005-40.146-0.025-80.292-0.039-120.437
		c-0.001-1.801,0-3.601,0-5.691c11.793,0,23.179,0,34.621,0c0.837,1.44,0.455,2.962,0.456,4.402
		c0.046,42.311,0.065,84.623,0.085,126.934c0.005,11.165-0.249,22.306-3.304,33.165c-3.556,12.641-9.745,23.668-20.159,31.933
		c-8.338,6.618-18.034,10.554-28.231,13.226c-11.632,3.048-23.534,4.341-35.532,4.697c-2.46,0.073-4.935-0.343-7.647-0.552
		C431.449,267.79,431.449,257.722,431.449,247.395z"/>
	<path style="fill:#E2E1E1;" d="M285.04,172.038c-4.209,1.676-8.395,3.413-12.634,5.011c-4.847,1.827-9.88,3.015-14.958,3.999
		c-0.729,0.141-1.177,0.462-1.453,1.105c-9.202,2.301-18.545,3.293-28.019,2.863c-4.953-0.225-9.898-0.622-14.846-0.941
		c-3.765-1.72-7.92-1.886-11.871-2.804c-14.558-3.381-28.599-8.145-42.459-13.726c-15.207-6.124-29.299-14.131-42.947-23.071
		c-12.653-8.289-24.068-18.082-34.053-29.368c-6.246-7.06-10.636-15.392-11.75-25.057c2.863,0.465,4.943,3.02,7.99,2.995
		c1.472,0.077,2.889,0.005,4.369,0.628c3.164,1.333,6.487,2.285,9.716,3.469c10.307,3.781,20.62,7.55,30.897,11.412
		c15.344,5.765,30.647,11.638,45.991,17.404c11.351,4.265,22.744,8.418,34.108,12.646c15.667,5.83,31.329,11.673,46.986,17.531
		c10.591,3.963,21.17,7.958,31.749,11.952C283.67,168.773,285.01,169.891,285.04,172.038z"/>
	<path style="fill:#EBEBEA;" d="M75.048,66.051c2.701-2.87,5.5-5.654,8.076-8.632c2.96-3.422,6.873-5.722,10.06-8.867
		c0.398-0.393,1.228-0.348,1.858-0.506c2.138,0.032,4.205,0.04,6.305,0.905c4.08,1.681,8.331,2.942,12.469,4.49
		c16.103,6.022,32.193,12.079,48.281,18.14c9.654,3.637,19.293,7.312,28.944,10.956c3.83,1.446,7.645,2.938,11.526,4.232
		c1.55,0.517,3.439,0.897,3.509-1.816c5.243,4.577,10.401,9.249,16.259,13.073c18.375,11.993,38.466,18.842,60.299,21.208
		c16.564,1.795,32.776,0.669,48.965-2.989c6.971-1.575,13.481-4.433,20.317-6.328c-0.162,2.571-1.477,4.659-2.921,6.646
		c-8.985,12.358-19.783,23.073-30.666,33.709c-2.122,2.074-4.237,4.126-7.282,4.778c-1.353-1.113-2.507-2.349-4.288-3.037
		c-15.771-6.093-31.703-11.753-47.508-17.756c-18.561-7.05-37.181-13.958-55.77-20.942c-22.429-8.427-44.972-16.545-67.342-25.134
		c-18.836-7.233-37.835-14.04-56.953-21.106c-1.294,0-1.808,1.692-3.147,1.974C74.525,68.441,75.201,67.109,75.048,66.051z"/>
	<path style="fill:#E7E7E7;" d="M76.04,69.048c1.339-0.282,1.853-1.974,3.147-1.974c19.118,7.066,38.117,13.873,56.953,21.106
		c22.371,8.59,44.914,16.708,67.342,25.134c18.589,6.984,37.208,13.892,55.77,20.942c15.805,6.003,31.738,11.663,47.508,17.756
		c1.781,0.688,2.934,1.923,4.288,3.037c-3.227,4.821-8.581,6.898-13.135,9.942c-4.051,2.707-8.564,4.725-12.873,7.047
		c-0.03-2.148-1.37-3.265-3.185-3.951c-10.579-3.995-21.158-7.989-31.749-11.952c-15.656-5.859-31.319-11.702-46.986-17.531
		c-11.364-4.229-22.757-8.381-34.108-12.646c-15.344-5.766-30.647-11.638-45.991-17.404c-10.277-3.862-20.59-7.63-30.897-11.412
		c-3.229-1.185-6.552-2.136-9.716-3.469c-1.479-0.623-2.897-0.551-4.369-0.628c1.098-2.19,2.542-4.28,1.924-6.95
		C78.651,80.414,77.348,74.73,76.04,69.048z"/>
	<path style="fill:#D7D7D6;" d="M192.043,254.048c-4.129,3.22-7.144,7.788-12.085,10.019c-1.167,0.527-1.559,1.604-2.217,2.554
		c-3.664,5.289-7.237,10.661-12.015,15.219c-2.098,0.31-4.207,0.374-7.073-0.213c7.527-12.909,14.854-25.475,22.243-38.148
		c-12.896-2.584-20.653-13.258-16.308-21.997c1.037,2.772,2.404,5.324,3.957,7.855c1.987,3.24,4.9,4.45,8.224,4.635
		c6.281,0.35,11.484-1.195,14.391-7.823c2.031-4.63,5.219-8.752,7.89-13.101c4.371,0.806,8.481,2.411,12.611,3.997
		c10.105,3.88,20.171,7.884,30.406,11.391c4.625,1.585,8.906,4.302,13.953,4.615c0,16.113,0,32.226,0,48.574
		c-3.652,0.78-7.045,0.322-10.581,0.361c-0.862-2.802,0.266-5.651-1.311-7.982c1.905-0.123,3.893,0.502,5.966-0.653
		c-1.247-3.126-0.787-6.398-1.142-9.584c-0.29-2.601-0.28-5.397-1.899-7.72c-0.418-6.077-2.541-11.659-6.087-16.44
		c-4.937-6.655-10.927-6.253-15.577,0.542c-0.837,1.223-1.937,2.325-2.513,3.657c-1.745,4.035-4.384,7.732-4.815,12.282l0.027-0.036
		c-1.254,0.609-1.395,1.259-0.072,1.963c-3.1,7.728-4.921,15.867-7.194,23.825c-3.356,0-6.29,0-9.826,0
		c1.626-11.4,0.924-22.614,1.049-33.818c0.238-4.258-0.067-8.382-3.125-12.427c-3.709,2.291-5.24,5.925-6.91,9.447
		c-2.595,1.348-2.734,4.141-3.963,6.198C189.206,252.758,190.094,254.179,192.043,254.048z"/>
	<path style="fill:#101010;" d="M206.077,84.953c-1.293-1.496-2.454-3.137-3.908-4.455c-2.699-2.447-3.67-5.302-2.719-8.977
		c2.728-1.538,5.256-1.073,7.561,1c1.111,0.999,2.142,2.09,3.174,3.172c16.712,17.519,37.544,27.256,60.867,32.362
		c12.081,2.645,24.304,3.365,36.613,2.942c3.136-0.108,6.254-0.733,9.38-1.12c10.428-1.422,20.639-3.631,30.17-8.311
		c3.959-1.549,7.585-3.716,11.201-5.919c1.329-0.81,2.35-2.378,4.25-2.011c-2.193,3.996-4.388,7.992-6.58,11.989
		c-0.778,1.418-1.302,3.046-3.049,3.656c-0.578-0.125-0.959,0.092-1.138,0.658l0.017-0.022c-6.836,1.896-13.347,4.753-20.317,6.328
		c-16.189,3.658-32.401,4.785-48.965,2.989c-21.833-2.367-41.924-9.215-60.299-21.208C216.477,94.202,211.319,89.53,206.077,84.953z
		"/>
	<path style="fill:#DBDADA;" d="M256.02,233.051c-5.048-0.312-9.328-3.03-13.953-4.615c-10.235-3.507-20.301-7.511-30.406-11.391
		c-4.13-1.586-8.24-3.19-12.611-3.997c2.596-5.429,6.086-10.34,9.035-15.563c1.194-2.115,2.278-4.293,3.412-6.442
		c0.415,0.259,0.811,0.705,1.249,0.75c7.091,0.733,14.176,1.784,21.286,2.009c7.636,0.242,15.275-0.397,21.999-4.777
		C256.026,203.701,256.023,218.376,256.02,233.051z"/>
	<path style="fill:#D42A28;" d="M747.885,250.571c-0.819-9.293,7.541-20.683,20.333-20.692c11.713-0.008,20.944,9.043,20.969,20.701
		c0.024,11.656-9.179,20.486-20.982,20.689C757.559,271.452,747.195,261.737,747.885,250.571z"/>
	<path style="fill:#E7E7E7;" d="M14.052,159.039c-9.893-1.332-15.189-10.142-13.846-18.866c1.722-11.181,7.164-21.045,12.3-30.953
		c0.268-0.518,1.012-0.789,1.534-1.176c3.329-0.384,5.907,1.334,8.52,3.004c2.174,1.39,4.277,2.983,7.045,3
		c0.96,0.006,2.012-0.183,2.461,1.041c-0.005,0.984-0.01,1.968-0.016,2.952c-2.003,5.668-4.007,11.336-6.01,17.004
		C22.044,143.045,18.048,151.042,14.052,159.039z"/>
	<path style="fill:#101010;" d="M358.137,14.22c-0.514,3.18-3.059,4.391-5.476,5.83c-5.046,3.006-10.708,4.214-16.333,4.738
		c-10.052,0.937-20.169,0.781-29.831-2.795c-4.493-1.663-8.932-3.656-10.381-9.247c0.936-4.07,3.632-6.611,7.745-7.799
		c2.009,0.7,3.971,1.772,6.036,2.034c7.636,0.968,15.276,1.908,22.908,2.892c2.913,0.376,5.781,1.332,8.776,1.19
		c3.809-0.181,7.461,1.138,11.285,1.279C354.357,12.397,356.958,12.082,358.137,14.22z"/>
	<path style="fill:#C5C4C4;" d="M32.05,118.043c0.005-0.984,0.01-1.968,0.016-2.952c1.298-1.521,1.581-3.402,2.004-5.275
		c1.053-4.661,1.993-9.364,3.948-13.77c7.275,2.661,14.022,6.397,20.736,10.198c2.571,1.456,5.005,3.266,8.225,2.787
		c-0.057,8.166-1.289,16.028-5.961,22.998c-1.072,0.175-1.917-0.379-2.733-0.919c-5.197-3.438-10.93-5.863-16.47-8.639
		C38.626,120.874,35.634,118.785,32.05,118.043z"/>
	<path style="fill:#BAB9BA;" d="M66.978,109.031c-3.219,0.479-5.654-1.332-8.225-2.787c-6.713-3.801-13.461-7.537-20.736-10.198
		c0.138-1.298,0.105-2.585,0.379-3.904c0.626-3.011,1.825-5.938,1.61-9.099c1.166-1.585,1.073-3.425,1.033-5.242
		c-0.058-2.683,0.621-5.131,2.312-7.895c7.375,5.823,14.541,11.482,21.707,17.14c1.145,4.945,0.597,10.082,1.816,15.051
		C67.411,104.284,66.973,106.712,66.978,109.031z"/>
	<path style="fill:#D7D7D6;" d="M32.05,118.043c3.584,0.742,6.576,2.831,9.764,4.429c5.54,2.776,11.273,5.201,16.47,8.639
		c0.816,0.54,1.661,1.094,2.733,0.919c-3.139,6.188-7.237,11.423-13.96,14.051c-6.646-4.363-14.007-7.365-21.018-11.033
		C28.043,129.379,30.046,123.711,32.05,118.043z"/>
	<path style="fill:#DBDADA;" d="M26.039,135.047c7.011,3.668,14.372,6.67,21.018,11.033c-0.511,1.299-1.51,2.211-2.676,2.812
		c-7.418,3.823-14.821,7.746-22.947,9.856c-2.329,0.605-4.915,0.222-7.383,0.291C18.048,151.042,22.044,143.045,26.039,135.047z"/>
	<path style="fill:#972C24;" d="M256.029,189.025c-6.723,4.38-14.363,5.019-21.999,4.777c-7.11-0.225-14.195-1.276-21.286-2.009
		c-0.437-0.045-0.833-0.491-1.249-0.75c0.545-2.322,1.09-4.645,1.635-6.967c4.948,0.319,9.893,0.716,14.846,0.941
		c9.474,0.43,18.817-0.562,28.019-2.863C256.007,184.444,256.018,186.735,256.029,189.025z"/>
	<path style="fill:#BAB9BA;" d="M218.06,256.089c0.43-4.55,3.069-8.247,4.815-12.282c0.576-1.332,1.676-2.434,2.513-3.657
		c4.65-6.795,10.64-7.197,15.577-0.542c3.546,4.781,5.67,10.363,6.087,16.44c-2.321-0.004-4.643-0.009-6.964-0.013
		c-0.677-1.667-1.344-3.338-2.034-5c-1.395-3.36-3.586-5.89-7.194-6.897c-4.865,0.853-7.713,4.044-9.928,8.113
		C220.177,253.638,219.916,255.491,218.06,256.089z"/>
	<path style="fill:#2F2F2F;" d="M358.137,14.22c-1.179-2.138-3.78-1.823-5.271-1.878c-3.824-0.141-7.476-1.46-11.285-1.279
		c-2.995,0.143-5.862-0.814-8.776-1.19c-7.633-0.984-15.272-1.924-22.908-2.892c-2.065-0.262-4.026-1.334-6.036-2.034
		c2.853-1.634,5.867-2.751,9.193-2.865c1.843,1.449,3.969,1.918,6.274,1.976c6.353,0.161,12.547,1.692,18.876,2.251
		c5.968,0.527,11.865,1.94,17.925,1.7C356.889,10.051,360.39,11.205,358.137,14.22z"/>
	<path style="fill:#434343;" d="M356.13,8.01c-6.06,0.24-11.957-1.173-17.925-1.7c-6.329-0.559-12.523-2.09-18.876-2.251
		c-2.304-0.058-4.431-0.528-6.274-1.976c5.74-1.854,11.68-2.384,17.618-1.929c6.418,0.492,12.829,1.35,18.887,3.819
		C351.984,4.961,354.565,5.644,356.13,8.01z"/>
	<path style="fill:#C5C4C4;" d="M240.089,256.035c2.321,0.004,4.643,0.009,6.964,0.013c1.619,2.323,1.61,5.119,1.899,7.72
		c0.355,3.186-0.105,6.457,1.142,9.584c-2.073,1.155-4.061,0.53-5.966,0.653C243.938,267.755,241.844,261.933,240.089,256.035z"/>
	<path style="fill:#BAB9BA;" d="M192.008,245.042c1.671-3.522,3.201-7.156,6.91-9.447c3.058,4.046,3.363,8.17,3.125,12.427
		c-1.293,0.377-2.586,0.754-3.878,1.131C196.113,247.783,194.061,246.413,192.008,245.042z"/>
	<path style="fill:#C5C4C4;" d="M192.008,245.042c2.052,1.37,4.105,2.741,6.157,4.111c-1.661,2.106-4.136,3.194-6.122,4.894
		c-1.949,0.131-2.838-1.29-3.998-2.807C189.274,249.183,189.413,246.39,192.008,245.042z"/>
	<path style="fill:#BAB9BA;" d="M218.015,258.015c-1.323-0.704-1.181-1.354,0.072-1.963
		C218.063,256.707,218.039,257.361,218.015,258.015z"/>
	<path style="fill:#EBEBEA;" d="M351.9,109.938c0.179-0.566,0.56-0.783,1.138-0.658C352.849,109.828,352.476,110.059,351.9,109.938z
		"/>
	<path style="fill:#101010;" d="M211.047,47.284c-4.973,0.702-9.104-1.066-12.723-4.337c-0.862-3.429-1.747-6.838,0.207-10.235
		c1.006-1.75,2.196-3.053,4.186-3.871c5.125-2.109,14.124-0.51,15.77,6.104c0.947,3.806-0.128,8.06-3.495,10.359
		C213.788,46.127,212.369,46.634,211.047,47.284z"/>
</g>
</svg>
