<?xml version="1.0" encoding="iso-8859-1"?>
<!-- Generator: Adobe Illustrator 27.0.0, SVG Export Plug-In . SVG Version: 6.00 Build 0)  -->
<svg version="1.1" id="Layer_1" xmlns="http://www.w3.org/2000/svg" xmlns:xlink="http://www.w3.org/1999/xlink" x="0px" y="0px"
	 viewBox="0 0 1592.596 763" style="enable-background:new 0 0 1592.596 763;" xml:space="preserve">
<g>
	<path style="fill:#19AD4C;" d="M1134,0c-0.055,11.328-0.157,22.657-0.157,33.985c-0.01,180.639-0.007,361.277-0.007,541.916
		c0,1.988,0,3.976,0,5.879c-3.742,1.034-102.471,1.351-109.74,0.393c0-184.842,0-369.722,0-554.822
		c11.117-2.78,22.186-5.56,33.261-8.316c24.165-6.012,48.332-12.014,72.501-18.007c0.8-0.198,1.664-0.189,2.142-1.028
		C1132.667,0,1133.333,0,1134,0z"/>
	<path style="fill:#17AD4C;" d="M954,0c0,193.972,0,387.945,0,582.274c-36.784,0-73.206,0-109.979,0c0-184.931,0-369.678,0-554.744
		c3.143-1.196,6.701-1.82,10.21-2.684c32.237-7.936,64.453-15.956,96.668-23.979C951.313,0.765,951.635,0.297,952,0
		C952.667,0,953.333,0,954,0z"/>
	<path style="fill:#16AD4B;" d="M0,26c15.998,0.039,31.996,0.096,47.994,0.113c19.167,0.02,38.333,0.005,57.5,0.005
		c1.644,0,3.289,0,5.286,0c0,184.975,0,369.688,0,554.432c-0.443,0.582-1.133,0.516-1.782,0.516
		C72.664,581.047,36.332,581.023,0,581C0,396,0,211,0,26z"/>
	<path style="fill:#6CBC71;" d="M1254,763c-0.048-0.851-0.211-1.738,0.713-2.285c0.838,1.86,2.527,1.266,3.922,1.267
		c34.403,0.009,68.806-0.015,103.209-0.033c0.052,0.351,0.104,0.701,0.155,1.052C1326,763,1290,763,1254,763z"/>
	<path style="fill:#19AD4C;" d="M1361.845,761.948c-34.403,0.018-68.806,0.042-103.209,0.033c-1.395,0-3.084,0.594-3.922-1.267
		c5.609-12.946,11.178-25.911,16.835-38.836c20.635-47.151,41.299-94.29,61.949-141.434c0.198-0.452,0.358-0.921,0.622-1.608
		c-51.11-121.809-102.274-243.747-153.651-366.193c37.847,0,74.925,0,112.453,0c31.003,79.794,62.066,159.745,93.459,240.545
		c31.616-80.707,62.918-160.611,94.249-240.59c37.479,0,74.592,0,111.965,0c0.056,2.228-1.155,4.054-1.948,5.942
		c-31.893,75.911-63.822,151.808-95.744,227.707c-18.664,44.376-37.562,88.655-55.928,133.154
		c-25.012,60.605-51.095,120.756-76.413,181.23C1362.37,761.091,1362.086,761.51,1361.845,761.948z"/>
	<path style="fill:#19AD4C;" d="M731.601,463.901c17.838,21.65,35.614,43.224,53.616,65.073
		c-6.003,6.755-12.528,12.824-19.633,18.308c-22.214,17.146-47.326,27.996-74.409,34.777c-20.134,5.041-40.589,7.456-61.263,7.446
		c-35.78-0.017-70.068-6.815-101.632-24.481c-31.031-17.368-54.004-42.294-69.272-74.39c-9.368-19.692-15.094-40.466-17.697-62.019
		c-2.479-20.524-3.117-41.121-0.601-61.772c2.385-19.574,6.725-38.599,14.233-56.843c15.087-36.661,39.371-65.412,74.277-84.549
		c19.546-10.716,40.581-17.217,62.843-19.712c11.448-1.283,22.89-2.122,34.386-1.596c35.631,1.632,68.312,11.889,96.665,34.072
		c20.581,16.102,35.793,36.526,46.71,60.168c8.417,18.228,13.642,37.391,16.281,57.289c2.481,18.704,3.163,37.46,2.257,56.302
		c-0.303,6.307-0.048,12.641-0.048,19.496c-83.329,0-166.217,0-248.643,0c-1.508,1.564-0.844,2.756-0.579,3.753
		c5.805,21.845,17.162,39.923,36.248,52.58c10.106,6.702,21.32,11.031,33.224,12.894c35.54,5.563,69.194,0.251,100.304-18.531
		c7.038-4.249,13.051-9.756,19.08-15.257C729.051,465.904,730.253,465.006,731.601,463.901z M688.088,349.769
		c-1.167-6.685-3.582-12.691-6.238-18.581c-7.388-16.388-18.717-28.969-35.555-36.054c-9.829-4.136-20.122-5.589-30.739-5.231
		c-29.056,0.98-51.347,13.382-65.81,38.952c-3.71,6.56-6.797,13.407-8.593,20.914C590.367,349.769,639.147,349.769,688.088,349.769z
		"/>
	<path style="fill:#19AD4C;" d="M311.869,26.287c45.781,0,91.211,0,137.437,0c-69.843,92.638-139.329,184.802-209.048,277.276
		C314.58,395.904,388.77,488.08,463.389,580.789c-49.136,0-97.63,0-146.644,0c-66.491-92.077-133.211-184.47-200.163-277.185
		C181.741,211.074,246.838,118.633,311.869,26.287z"/>
	<path style="fill:#2DAF4F;" d="M1491.732,550.684c-0.09-20.16,15.071-33.195,33.417-33.485
		c17.733-0.28,32.392,14.059,32.976,30.669c0.699,19.854-14.709,35.242-33.338,35.193
		C1505,583.008,1491.43,568.319,1491.732,550.684z M1525.174,524.088c-3.237,0.195-7.02,0.737-10.526,2.405
		c-9,4.283-13.839,11.391-15.064,21.33c-1.939,15.733,7.394,29.981,25.33,29.84c18.051-0.143,27.269-13.857,26.814-29.617
		C1551.331,534.298,1539.389,524.067,1525.174,524.088z"/>
	<path style="fill:#28AE4E;" d="M1518.436,554.11c-0.954,4.941,0.047,9.795-0.782,14.65c-1.905,0.664-3.63,0.299-5.576,0.285
		c0-12.106,0-23.841,0-35.893c5.95,0,11.788-0.516,17.499,0.119c8.913,0.991,11.117,6.802,9.453,13.645
		c-1.012,4.161-4.447,5.493-8.69,6.737c2.79,5.539,6.633,10.268,9.778,15.82c-2.259,0.62-4.179,0.329-6.467,0.313
		c-3.156-5.074-6.388-10.268-9.616-15.458C1522.16,553.727,1520.392,554.061,1518.436,554.11z M1518.368,549.009
		c3.496,0,6.771,0.101,10.037-0.027c3.546-0.14,5.569-1.967,5.74-4.883c0.185-3.143-1.787-5.552-5.376-5.857
		c-3.402-0.289-6.848-0.062-10.401-0.062C1518.368,541.934,1518.368,545.165,1518.368,549.009z"/>
</g>
</svg>
