<?xml version="1.0" encoding="iso-8859-1"?>
<!-- Generator: Adobe Illustrator 27.0.0, SVG Export Plug-In . SVG Version: 6.00 Build 0)  -->
<svg version="1.1" id="Layer_1" xmlns="http://www.w3.org/2000/svg" xmlns:xlink="http://www.w3.org/1999/xlink" x="0px" y="0px"
	 viewBox="0 0 1560.067 305.282" style="enable-background:new 0 0 1560.067 305.282;" xml:space="preserve">
<g>
	<path style="fill:#2B4B9F;" d="M1326.023,79.205c2.408-3.071,4.193-5.424,6.056-7.713c16.361-20.099,37.569-31.841,62.928-36.342
		c15.925-2.826,31.954-4.868,48.159-3.826c17.767,1.143,35.575,2.811,52.263,9.496c33.414,13.386,54.772,37.655,62.37,72.967
		c9.88,45.922-13.204,91.446-55.843,111.515c-8.608,4.051-17.727,6.433-27.091,8.171c-12.96,2.405-26.001,4.226-39.148,4.013
		c-15.459-0.251-30.796-1.838-46.021-5.135c-15.457-3.347-29.297-9.585-41.623-19.312c-6.818-5.38-12.951-11.479-18.152-18.483
		c-1.051-1.415-1.819-3.138-3.938-4.562c0,15.122,0,29.665,0,44.054c-1.966,0.963-3.656,0.567-5.283,0.568
		c-33.328,0.027-66.656,0.046-99.984,0.011c-19.828-0.021-38.673-4.126-55.668-14.67c-21.275-13.198-36.161-31.605-43.84-55.6
		c-0.452-1.413-0.597-2.932-1.824-4.337c-1.796,5.414-3.411,10.73-5.824,15.723c-14.27,29.525-37.31,48.257-69.169,56.134
		c-8.629,2.133-17.442,2.551-26.245,2.704c-12.661,0.22-25.328,0.044-37.993,0.072c-1.622,0.004-3.29-0.294-5.248,0.471
		c0,23.048,0,46.141,0,69.121c-3.88,1.096-53.275,1.425-61.712,0.491c0-41.366,0-82.76,0-124.6c1.994,0,3.787,0,5.579,0
		c32.662,0,65.323-0.051,97.985,0.02c16.409,0.036,29.365-6.71,38.675-19.987c10.257-14.629,11.179-30.503,3.277-46.274
		c-7.71-15.388-20.577-24.027-38.066-25.101c-2.326-0.143-4.663-0.148-6.995-0.149c-31.662-0.009-63.323-0.006-94.985-0.006
		c-1.651,0-3.301,0-4.883,0c-1.026-3.833-1.387-43.534-0.546-53.911c1.114-1.056,2.517-0.567,3.783-0.568
		c34.828-0.029,69.658-0.26,104.483,0.048c32.349,0.286,59.021,13.041,79.474,38.222c7.608,9.367,13.119,19.981,16.858,31.482
		c0.511,1.571,0.986,3.154,1.663,5.325c2.255-6.977,4.334-13.402,7.448-19.445c13.896-26.971,35.661-44.252,64.73-52.326
		c8.161-2.267,16.603-3.357,25.156-3.345c35.161,0.052,70.322,0.017,105.484,0.024c1.127,0,2.254,0.118,3.713,0.2
		C1326.023,49.173,1326.023,63.724,1326.023,79.205z M1320.899,88.702c-0.885-0.167-1.356-0.333-1.827-0.334
		c-31.823-0.013-63.647-0.094-95.469,0.042c-8.178,0.035-16.318,1.065-23.585,5.306c-17.222,10.051-25.731,24.776-24.304,45.022
		c1.667,23.657,22.931,41.745,45.055,41.492c31.319-0.357,62.646-0.082,93.969-0.111c1.793-0.002,3.648,0.405,5.756-0.595
		C1306.238,149.289,1306.326,118.967,1320.899,88.702z M1434.843,182.338c10.693,0.248,21.276-0.69,31.635-3.377
		c20.353-5.278,33.278-22.847,34.482-41.105c1.472-22.314-12.751-40.812-30.906-46.788c-7.14-2.35-14.535-3.626-21.984-3.985
		c-13.287-0.64-26.518-0.448-39.764,1.824c-20.341,3.488-36.806,19.407-39.135,39.732c-2.812,24.545,12.886,45.306,35.015,50.467
		C1414.278,181.461,1424.485,182.594,1434.843,182.338z"/>
	<path style="fill:#2B4C9F;" d="M705.622,189.134c0,14.942,0,29.874,0,44.41c-1.517,1.489-2.923,1.078-4.208,1.079
		c-25.496,0.022-50.994,0.16-76.489-0.027c-23.078-0.17-44.279-6.42-62.866-20.522c-7.206-5.467-13.664-11.677-19.061-18.961
		c-0.768-1.037-1.31-2.304-3.107-3.114c0,14.127,0,27.978,0,41.683c-3.856,1.148-55.853,1.407-61.774,0.411
		c0-66.412,0-132.857,0-199.631c20.403,0,40.773,0,61.537,0c0,14.123,0,28.065,0,42.807c3.224-3.783,5.82-6.972,8.565-10.027
		c15.973-17.775,36.051-28.017,59.438-31.929c5.065-0.847,10.278-1.105,15.424-1.127c26.162-0.11,52.326-0.055,78.488-0.045
		c1.143,0,2.325-0.206,3.988,0.654c0,14.767,0,29.806,0,46.012c3.106-4.001,5.346-7.054,7.757-9.965
		c15.445-18.651,35.098-30.217,58.861-34.825c6.221-1.206,12.502-1.865,18.836-1.869c35.328-0.024,70.656-0.014,105.985-0.015
		c0.806,0,1.612,0,2.751,0c0,18.189,0,36.079,0,54.002c-1.75,0.957-3.617,0.477-5.4,0.479c-32.162,0.034-64.324,0.089-96.486-0.021
		c-7.78-0.027-15.219,1.031-22.301,4.371c-6.601,3.113-11.921,7.702-16.872,14.004c47.344,0,94.02,0,141.044,0
		c0,18.33,0,36.222,0,54.563c-46.748,0-93.503,0-140.703,0c0.953,2.619,2.633,3.941,4.084,5.408
		c9.023,9.123,19.995,13.291,32.788,13.256c33.995-0.093,67.99-0.048,101.984-0.049c0.483,0,0.966,0.104,1.425,0.157
		c0.959,3.583,1.313,44.758,0.476,53.761c-1.324,1.026-2.883,0.552-4.33,0.553c-33.995,0.029-67.991,0.034-101.986,0.018
		c-29.201-0.014-54.28-10.101-74.932-30.856c-3.88-3.899-7.249-8.252-10.415-12.753
		C707.571,190.238,707.268,189.181,705.622,189.134z M701.372,180.139c-14.622-30.752-14.526-60.87-0.416-90.705
		c-0.824-0.838-1.499-0.795-2.158-0.795c-24.155,0.012-48.31,0.018-72.466,0.044c-5.37,0.006-10.585,0.94-15.623,2.817
		c-18.664,6.951-32.443,27.731-28.953,49.837c3.509,22.228,22.39,38.737,43.933,38.89c23.818,0.169,47.639-0.043,71.458-0.088
		C698.292,180.137,699.436,180.139,701.372,180.139z"/>
	<path style="fill:#E92228;" d="M204.946,22.797C139.016,73.761,73.532,124.381,7.958,175.07
		C-9.305,130.939,0.635,70.087,46.462,31.101C91.63-7.325,157.482-9.836,204.946,22.797z"/>
	<path style="fill:#E92228;" d="M208.168,239.615c65.58-50.676,131.079-101.29,196.675-151.979
		c17.646,43.877,7.518,109.285-44.475,148.619C312.534,272.443,248.348,269.084,208.168,239.615z"/>
	<path style="fill:#EA272B;" d="M63.509,243.782c-4.871-2.784-9.275-6.01-14.093-9.83c3.846-2.588,7.352-4.972,10.883-7.319
		c19.937-13.253,39.884-26.49,59.82-39.745c26.852-17.853,53.703-35.706,80.539-53.581c10.119-6.74,19.413-14.581,29.029-21.987
		c20.698-15.941,41.285-32.026,61.932-48.033c18.411-14.274,36.842-28.522,55.267-42.779c0.653-0.506,1.328-0.984,2.25-1.666
		c4.885,2.733,9.39,6.046,13.744,9.535c-0.425,1.325-1.564,1.793-2.5,2.414c-27.146,18.019-54.312,36.008-81.461,54.021
		c-23.686,15.716-47.484,31.269-70.971,47.277c-9.326,6.357-17.956,13.736-26.888,20.669
		c-20.502,15.913-40.991,31.844-61.493,47.758c-17.481,13.57-34.97,27.129-52.463,40.683
		C65.928,242.109,64.69,242.936,63.509,243.782z"/>
	<path style="fill:#EA262B;" d="M45.096,230.147c-4.194-4.014-7.918-7.578-12.036-11.519c6.678-4.524,13.028-8.876,19.427-13.152
		c31.52-21.063,63.066-42.087,94.576-63.164c18.93-12.663,37.909-25.257,56.677-38.156c11.38-7.822,21.975-16.72,32.836-25.247
		C265.891,55.891,295.191,32.855,324.5,9.83c0.773-0.607,1.584-1.166,2.329-1.712c5.651,1.995,10.968,4.269,16.22,7.363
		c-0.823,1.825-2.592,2.469-3.992,3.391c-28.74,18.933-57.513,37.813-86.267,56.724c-15,9.865-30.171,19.487-44.896,29.749
		c-10.911,7.604-21.247,16.037-31.804,24.146c-32.466,24.935-64.921,49.885-97.367,74.845
		c-10.023,7.711-20.004,15.477-30.013,23.206C47.541,228.443,46.315,229.271,45.096,230.147z"/>
	<path style="fill:#EA272B;" d="M85.095,254.342c-5.24-2.003-10.598-4.17-15.956-7.57c7.621-5.029,14.889-9.844,22.175-14.631
		c36.967-24.29,73.984-48.506,110.869-72.92c6.783-4.49,13.068-9.739,19.532-14.704c30.09-23.116,60.162-46.257,90.241-69.387
		c18.474-14.205,36.951-28.407,55.539-42.697c4.504,3.263,8.108,7.294,12.03,11.568c-4.856,3.309-9.326,6.411-13.852,9.429
		c-31.547,21.037-63.125,42.03-94.655,63.093c-20.739,13.854-41.556,27.6-62.058,41.799c-9.008,6.238-17.307,13.498-25.947,20.269
		c-31.576,24.746-63.159,49.484-94.748,74.213C87.487,253.412,86.787,254.191,85.095,254.342z"/>
	<path style="fill:#EA262B;" d="M383.023,48.472c3.96,4.078,6.783,8.528,9.739,13.298c-6.674,4.449-13.313,8.84-19.916,13.284
		c-28.819,19.398-57.618,38.827-86.443,58.215c-26.33,17.71-52.848,35.149-78.95,53.188c-10.378,7.173-19.878,15.62-29.748,23.523
		c-19.613,15.704-39.206,31.432-58.805,47.153c-1.682,1.349-3.345,2.722-5.136,4.182c-6.721-0.507-13.279-1.933-20.477-4.418
		c5.685-3.74,10.724-7.101,15.809-10.391c19.672-12.725,39.376-25.401,59.033-38.149c11.425-7.409,22.928-14.71,34.133-22.441
		c13.963-9.635,27.197-20.273,40.691-30.55c18.659-14.21,37.279-28.472,55.914-42.715c25.242-19.293,50.48-38.592,75.727-57.88
		C377.343,52.671,380.135,50.628,383.023,48.472z"/>
	<path style="fill:#EA272B;" d="M299.213,1.298c6.733,0.818,13.062,2.098,19.48,4.156c-0.478,1.829-2.136,2.402-3.397,3.22
		c-14.639,9.503-29.321,18.941-43.976,28.418c-21.216,13.72-42.607,27.182-63.555,41.301c-10.883,7.335-20.968,15.852-31.424,23.821
		c-25.804,19.668-51.632,39.306-77.417,58.998c-21.161,16.16-42.272,32.386-63.417,48.568c-1.846,1.413-3.777,2.715-5.9,4.235
		c-3.799-3.755-6.457-8.293-9.587-13.063c4.134-2.84,8.179-5.668,12.273-8.422c33.25-22.369,66.506-44.731,99.768-67.083
		c23.46-15.765,47.02-31.383,70.362-47.321c11.273-7.697,21.479-16.826,32.157-25.32c20.84-16.577,41.584-33.274,62.373-49.914
		C297.6,2.375,298.308,1.934,299.213,1.298z"/>
	<path style="fill:#EA272B;" d="M395.485,66.314c2.958,5.087,5.312,9.812,7.379,14.974c-8.364,5.673-16.593,11.278-24.846,16.847
		c-43.43,29.305-86.87,58.595-130.298,87.902c-12.96,8.746-25.877,17.556-38.85,26.281c-4.314,2.901-7.931,6.602-11.772,10.03
		c-13.545,12.092-26.969,24.32-40.397,36.542c-1.288,1.172-2.584,1.921-4.349,2.136c-9.095,1.108-18.192,2.099-27.496,1.726
		c-0.173-1.821,1.434-2.068,2.371-2.659c17.012-10.733,33.929-21.626,51.135-32.042c21.383-12.945,41.494-27.637,61.206-42.949
		c18.66-14.494,37.522-28.728,56.323-43.039c30.46-23.186,60.943-46.341,91.415-69.511C389.951,70.542,392.59,68.523,395.485,66.314
		z"/>
	<path style="fill:#EA262B;" d="M257.698,2.151c9.974-1.803,19.878-2.473,30.44-2.008c-2.19,2.496-4.745,3.691-7.05,5.146
		c-20.932,13.208-41.77,26.571-62.896,39.461c-15.958,9.736-30.246,21.683-45.089,32.889c-33.314,25.152-66.43,50.567-99.63,75.87
		c-17.198,13.107-34.402,26.207-51.61,39.301c-1.437,1.093-2.925,2.119-4.535,3.282c-3.236-4.452-5.161-9.389-7.226-14.231
		c0.431-1.493,1.812-1.906,2.875-2.623c48.088-32.442,96.197-64.852,144.277-97.307c16.392-11.065,32.844-22.048,48.999-33.451
		c6.362-4.491,11.705-10.335,17.453-15.631C234.843,22.587,246.175,12.535,257.698,2.151z"/>
</g>
</svg>
