<?xml version="1.0" encoding="iso-8859-1"?>
<!-- Generator: Adobe Illustrator 27.0.0, SVG Export Plug-In . SVG Version: 6.00 Build 0)  -->
<svg version="1.1" id="Layer_1" xmlns="http://www.w3.org/2000/svg" xmlns:xlink="http://www.w3.org/1999/xlink" x="0px" y="0px"
	 viewBox="0 0 1500 423" style="enable-background:new 0 0 1500 423;" xml:space="preserve">
<g>
	<path style="fill:#21285A;" d="M1422,423c-0.634-1.47-1.981-0.9-3.041-1.001c-12.611-1.202-24.982-3.424-36.925-7.849
		c-29.327-10.864-52.563-29.471-70.481-54.953c-16.59-23.593-24.698-49.941-24.766-78.626c-0.191-81.48-0.107-162.96-0.13-244.44
		c-0.003-9.998-0.014-19.995,0.03-29.993c0.006-1.451-0.428-2.992,0.651-4.579c20.634,0,41.4,0,62.855,0
		c0.242,5.935,0.07,11.855,0.101,17.763c0.032,6.165,0.007,12.33,0.007,18.495c0,5.999,0,11.997,0,17.996
		c0,6.165-0.001,12.33,0,18.496c0.001,5.999,0.006,11.997,0.008,17.996c0.002,6.165,0.003,12.33,0.004,18.496
		c0.001,5.968,0,11.937,0,18.362c27.301,0,54.203,0,81.448,0c0,19.362,0,38.267,0,57.692c-26.841,0-53.895,0-80.598,0
		c-1.242,1.706-0.825,3.083-0.826,4.366c-0.031,27.993-0.088,55.987-0.007,83.98c0.039,13.443,2.07,26.53,8.544,38.545
		c13.181,24.465,32.924,39.979,60.794,44.45c3.934,0.631,7.916,0.601,11.608,1.07c1.24,1.427,0.818,2.819,0.82,4.091
		c0.027,18.162,0.02,36.325,0.001,54.487c-0.002,1.783,0.396,3.68-1.098,5.157C1428,423,1425,423,1422,423z"/>
	<path style="fill:#20285A;" d="M0,2c1.617,0.605,3.3,0.309,4.95,0.312c17.491,0.024,34.982,0.015,52.474,0.015
		c1.642,0,3.284,0,5.267,0c0,139.773,0,279.269,0,418.839c-1.271,0.975-2.826,0.48-4.267,0.483
		c-17.824,0.038-35.649,0.016-53.473,0.04C3.3,421.69,1.617,421.395,0,422C0,282,0,142,0,2z"/>
	<path style="fill:#292F5E;" d="M1500,40c-1.722,0.939-1.435,2.832-1.958,4.302c-5.178,14.53-17.919,22.804-32.694,22.186
		c-16.302-0.682-28.186-11.247-31.486-26.377c-3.778-17.317,7.297-35.942,25.103-39.213c0.534-0.098,0.867-0.393,1.035-0.897
		c4,0,8,0,12,0c0.368,0.279,0.7,0.725,1.109,0.813c14.134,3.037,22.739,11.634,25.903,25.705c0.151,0.672,0.201,1.289,0.989,1.482
		C1500,32,1500,36,1500,40z M1466.307,5.913c-14.734-0.069-27.393,12.511-27.275,27.306c0.11,13.767,10.494,27.517,27.709,27.363
		c17.159-0.154,27.318-14.023,27.207-27.341C1493.819,17.794,1481.803,5.864,1466.307,5.913z"/>
	<path style="fill:#21295A;" d="M1165.813,333.972c0.089,1.202,0.178,1.846,0.178,2.49c0.003,23.985,0.201,47.968,0.928,71.994
		c-2.381,1.944-5.128,2.675-7.723,3.641c-31.28,11.645-63.038,12.583-95.009,3.478c-19.788-5.635-37.144-15.901-52.66-29.432
		c-14.482-12.629-26.228-27.322-35.011-44.407c-8.468-16.473-13.073-33.967-14.631-52.412c-1.631-19.32,0.141-38.318,5.647-56.782
		c7.244-24.289,21.032-44.678,39.487-61.956c21.852-20.458,47.413-33.279,77.14-37.663c30.812-4.544,60.698-1.106,88.312,13.291
		c40.951,21.351,67.723,54.411,77.635,100.179c1.875,8.657,2.767,17.432,2.78,26.264c0.07,48.658,0.05,97.315,0.053,145.973
		c0,0.816-0.093,1.632-0.16,2.743c-21.02,0-41.917,0-62.784,0c-1.206-1.81-0.66-3.696-0.661-5.464
		c-0.034-46.492-0.092-92.983,0.009-139.475c0.034-15.554-3.563-30.059-12.22-42.983c-17.031-25.425-40.513-38.985-71.656-38.765
		c-36.322,0.257-66.076,25.083-75.916,54.196c-9.456,27.976-5.7,54.517,13.037,78.07c11.297,14.201,25.633,24.212,43.387,28.521
		c27.05,6.564,51.752,1.311,73.756-15.906C1161.786,337.961,1163.59,336.032,1165.813,333.972z"/>
	<path style="fill:#21285A;" d="M520.954,334.862c0.648,24.713,1.035,49.181,0.9,73.791c-2.338,1.712-5.055,2.488-7.652,3.487
		c-15.033,5.783-30.633,8.381-46.704,9.264c-15.495,0.852-30.596-0.954-45.393-5.086c-28.728-8.024-52.301-24.193-71.616-46.733
		c-15.9-18.555-26.458-39.807-31.053-63.809c-3.469-18.117-3.734-36.354-0.754-54.645c3.999-24.543,13.925-46.422,29.668-65.506
		c20.333-24.649,45.548-42.195,76.883-49.943c16.731-4.137,33.742-5.369,51.01-3.879c19.659,1.697,38.278,6.788,55.526,16.253
		c27.955,15.34,49.054,37.436,62.966,66.176c8.438,17.432,12.964,35.92,13.296,55.313c0.704,41.156,0.178,82.317,0.286,123.476
		c0.025,9.315,0.004,18.629,0.004,28.297c-21.194,0-42.061,0-62.935,0c-0.727-1.88-0.368-3.721-0.369-5.516
		c-0.024-44.493-0.032-88.985-0.008-133.478c0.005-9.854-0.558-19.627-3.354-29.152c-4.85-16.52-14.533-29.792-27.745-40.527
		c-18.763-15.244-40.233-19.794-64.079-17.072c-32.02,3.655-60.826,32.253-67.252,60.417c-6.681,29.277-0.007,55.046,20.618,76.958
		c13.123,13.942,29.274,22.429,48.328,24.63c24.725,2.857,46.789-3.629,65.701-20.102
		C518.209,336.622,518.963,335.459,520.954,334.862z"/>
	<path style="fill:#21295A;" d="M86.59,251.023c0-25.422,0-50.365,0-75.462c9.094-4.435,18.59-7.327,28.311-9.466
		c21.634-4.759,43.244-4.265,64.854,0.398c27.759,5.989,50.633,20.413,70.228,40.469c15.203,15.561,26.72,33.438,33.464,54.266
		c4.651,14.364,6.892,29.085,6.904,44.146c0.031,37.489-0.005,74.979-0.032,112.468c-0.001,1.129,0.314,2.337-0.699,3.594
		c-20.565,0-41.318,0-62.622,0c0-1.874,0-3.653,0-5.432c-0.01-35.99-0.012-71.98-0.033-107.97
		c-0.023-39.351-28.113-73.813-66.88-80.669c-26.45-4.678-50.13,2.077-69.912,20.847C89.225,249.112,88.497,250.281,86.59,251.023z"
		/>
	<path style="fill:#21295B;" d="M710.884,130.305c0,97.087,0,193.881,0,291.023c-20.984,0-41.873,0-63.118,0
		c0-96.925,0-193.82,0-291.023C668.627,130.305,689.524,130.305,710.884,130.305z"/>
	<path style="fill:#21295A;" d="M734.297,220.055c0-26.178,0-51.11,0-76.723c48.493-19.018,95.863-17.258,139.909,12.492
		c42.218,28.516,64.178,68.971,64.901,120.818c-21.418,0-42.468,0-63.621,0c-1.745-35.572-18.408-61.852-51.162-75.489
		C791.41,187.45,761.121,194.148,734.297,220.055z"/>
	<path style="fill:#22295B;" d="M168.318,2.575c21.427,0,42.334,0,63.231,0c4.669,76.098-65.784,149.067-144.711,145.113
		c-0.649-4.558-0.605-58.553,0.13-63.237c22.623,0.63,41.624-8.249,57.378-24.05C160.016,44.685,168.64,25.707,168.318,2.575z"/>
	<path style="fill:#2E3361;" d="M1453.689,14.839c6.693,0.208,12.71-0.958,18.856,0.059c5.769,0.955,8.833,3.102,9.538,7.751
		c0.946,6.237-1.099,9.883-6.835,12.13c-0.606,0.238-1.266,0.338-2.295,0.605c2.977,5.505,5.86,10.837,8.893,16.445
		c-2.297,0.118-4.249,0.218-6.495,0.334c-3.173-5.611-6.34-11.211-9.547-16.883c-1.941-0.383-3.865-0.405-6.059,0.075
		c0,5.43,0,10.696,0,16.163c-2.109,0.781-4.02,0.502-6.25,0.295C1452.677,39.641,1454.32,27.591,1453.689,14.839z M1475.821,27.747
		c0.568-5.703-0.01-6.586-4.833-6.875c-3.577-0.214-7.177-0.042-11.02-0.042c-0.376,2.857-0.36,5.372-0.027,8.229
		C1465.399,28.658,1470.655,30.183,1475.821,27.747z"/>
</g>
</svg>
