<?xml version="1.0" encoding="iso-8859-1"?>
<!-- Generator: Adobe Illustrator 27.0.0, SVG Export Plug-In . SVG Version: 6.00 Build 0)  -->
<svg version="1.1" id="Layer_1" xmlns="http://www.w3.org/2000/svg" xmlns:xlink="http://www.w3.org/1999/xlink" x="0px" y="0px"
	 viewBox="0 0 1592.793 387" style="enable-background:new 0 0 1592.793 387;" xml:space="preserve">
<g>
	<path style="fill:#1C164E;" d="M1285.793,387c-3.404-1.954-7.301-1.32-10.943-1.948c-15.392-2.652-29.945-7.493-43.215-15.794
		c-25.208-15.769-40.634-38.287-45.931-67.583c-4.456-24.649-1.705-48.391,9.98-70.735c10.985-21.007,27.867-35.718,49.455-45.249
		c17.191-7.59,35.257-10.913,53.912-10.303c26.262,0.859,50.471,8.328,71.159,25.031c17.814,14.383,29.392,32.994,34.165,55.382
		c5.387,25.268,3.468,49.984-8.197,73.417c-10.735,21.565-27.592,36.853-49.409,46.681c-13.594,6.123-27.872,9.756-42.864,10.189
		c-4.729-0.041-9.457-0.079-14.186-0.125c-0.843-0.008-1.629,0.052-1.926,1.038C1287.126,387,1286.459,387,1285.793,387z
		 M1344.911,279.898c0.164-3.534-0.257-7.673-1.101-11.763c-3.481-16.878-12.795-29.009-29.17-35.096
		c-9.899-3.68-20.158-3.988-30.487-2.104c-15.472,2.822-26.847,11.175-33.371,25.568c-5.24,11.56-6.216,23.782-3.858,36.146
		c3.448,18.077,13.416,30.898,31.368,36.533c9.86,3.095,19.947,3.207,30.071,1.024c13.248-2.857,23.442-9.923,30.068-21.813
		C1343.241,299.761,1345.067,290.368,1344.911,279.898z"/>
	<path style="fill:#1D174E;" d="M708.793,387c-3.175-2.136-6.946-1.339-10.406-1.939c-16.927-2.935-32.764-8.574-46.962-18.312
		c-20.26-13.896-33.945-32.675-40.002-56.539c-6.58-25.928-5.451-51.413,6.294-75.895c10.747-22.4,27.937-38.154,50.42-48.29
		c17.258-7.78,35.492-11.215,54.325-10.641c21.495,0.655,41.213,6.819,57.852,21.065c13.543,11.596,22.114,26.392,27.408,43.214
		c4.331,13.761,5.839,27.957,6.056,42.315c0.092,6.112,0.015,12.226,0.015,18.673c-48.101,0-95.696,0-143.318,0
		c1.217,14.987,13.912,31.137,28.875,35.784c25.442,7.902,45.588-0.463,61.282-21.506c14.497,10.661,28.8,21.178,43.333,31.865
		c-4.639,6.766-10.576,12.006-16.816,16.952c-15.372,12.185-33.146,18.678-52.25,21.958c-2.282,0.392-4.651,0.275-6.98,0.394
		c-4.729-0.041-9.457-0.079-14.186-0.126c-0.843-0.008-1.628,0.053-1.942,1.027C710.793,387,709.793,387,708.793,387z
		 M669.973,257.85c15.36,0.973,77.644,0.543,81.389-0.533c0.087-14.24-8.25-27.814-22.138-33.738
		c-7.208-3.075-14.676-3.447-22.42-2.805C690.819,222.098,671.756,234.763,669.973,257.85z"/>
	<path style="fill:#1D164E;" d="M1485.793,387c-3.413-1.931-7.304-1.244-10.947-1.947c-17.833-3.441-34.733-8.93-48.807-21.044
		c-1.512-1.302-3.081-2.539-4.599-4.705c12.309-13.718,24.692-27.518,37.337-41.612c2.945,2.865,5.345,5.807,8.189,8.307
		c11.897,10.456,25.6,14.922,41.399,13.303c4.334-0.444,8.626-0.939,12.635-2.565c4.94-2.004,9.475-4.909,9.658-10.904
		c0.179-5.849-3.115-9.968-8.186-12.714c-6.951-3.765-14.573-5.464-22.182-7.144c-11.017-2.432-22.101-4.577-32.822-8.189
		c-9.871-3.326-18.925-8.078-26.589-15.249c-7.58-7.093-11.878-16.005-13.652-26.049c-1.897-10.734-1.94-21.443,1.254-32.101
		c5.076-16.941,15.912-29.064,31.172-37.185c19.016-10.12,39.566-12.966,60.894-11.437c14.721,1.056,28.882,4.197,42.342,10.336
		c8.031,3.663,17.267,10.508,21.927,16.422c-12.435,12.229-24.89,24.477-37.441,36.819c-2.144-0.495-3.023-2.475-4.404-3.785
		c-11.776-11.171-25.636-14.829-41.375-11.407c-4.462,0.97-8.355,3.112-11.016,7.137c-4.286,6.483-2.805,14.006,3.739,18.179
		c4.4,2.806,9.321,4.299,14.323,5.55c13.354,3.341,26.972,5.621,40.071,9.987c7.9,2.633,15.535,5.82,22.385,10.663
		c12.084,8.543,19.057,20.121,20.718,34.855c0.078,0.691,0.185,1.292,0.976,1.479c0,6.333,0,12.667,0,19
		c-0.752,0.225-0.888,0.816-1.009,1.505c-3.422,19.505-14.85,32.956-32.034,41.881c-13.437,6.978-27.911,10.341-42.925,11.63
		c-1.046,0.09-2.404-0.497-3.033,0.985c-0.667,0-1.333,0-2,0c-3.147-1.38-5.64-1.38-9,0C1497.126,387,1491.459,387,1485.793,387z"/>
	<path style="fill:#1D164E;" d="M80.912,74.047c1.034-5.906,3.634-11.297,5.622-16.883c6.505-18.278,13.127-36.514,19.688-54.772
		c0.275-0.767,0.385-1.593,0.571-2.391c1,0,2,0,3,0c2.371,1.699,5.249,1.623,7.922,2.263c36.79,8.818,73.572,17.668,110.374,26.436
		c27.923,6.652,55.877,13.177,83.808,19.797c25.35,6.008,50.684,12.087,76.033,18.1c21.956,5.208,43.924,10.368,65.886,15.549
		c-0.849,1.619-2.333,0.878-3.556,0.888c-6.819,0.052-13.638,0.038-20.457,0.046c-15.984-0.264-31.942-1.591-47.943-1.122
		c-0.532-0.798-1.338-0.829-2.186-0.829c-8.622-0.008-17.244-0.03-25.866-0.048c-3.659-0.037-7.318-0.074-10.977-0.111
		c-0.527-0.801-1.331-0.84-2.181-0.84c-9.945-0.009-19.891-0.03-29.836-0.048c-3.663-0.037-7.327-0.074-10.99-0.11
		c-0.653-1.036-1.711-0.835-2.674-0.839c-7.113-0.028-14.226-0.037-21.34-0.052c-3.991-0.038-7.982-0.076-11.973-0.113
		c-0.528-0.802-1.333-0.837-2.182-0.838c-9.95-0.01-19.9-0.031-29.85-0.05c-3.99-0.037-7.98-0.074-11.97-0.111
		c-0.523-0.802-1.326-0.846-2.174-0.847c-6.619-0.006-13.238-0.025-19.856-0.039c-18.987,0.102-37.937-1.696-56.934-1.127
		c-0.657-1.025-1.711-0.855-2.682-0.857c-8.129-0.015-16.257-0.014-24.386-0.017C102.815,75.49,91.9,73.608,80.912,74.047z"/>
	<path style="fill:#635C81;" d="M711.793,387c0.314-0.974,1.099-1.035,1.942-1.027c4.729,0.047,9.457,0.085,14.186,0.126
		c-0.139,0.286-0.181,0.587-0.128,0.9C722.46,387,717.126,387,711.793,387z"/>
	<path style="fill:#B2ADC1;" d="M1044.853,386.153c-0.053,0.28-0.073,0.562-0.06,0.847c-5.333,0-10.667,0-16,0
		c0.03-0.289,0.011-0.574-0.057-0.856C1034.108,386.147,1039.481,386.15,1044.853,386.153z"/>
	<path style="fill:#635C81;" d="M1287.793,387c0.298-0.986,1.083-1.047,1.926-1.038c4.729,0.047,9.457,0.085,14.186,0.125
		c-0.154,0.29-0.191,0.594-0.113,0.913C1298.459,387,1293.126,387,1287.793,387z"/>
	<path style="fill:#4C456F;" d="M1502.793,387c3.36-1.38,5.853-1.38,9,0C1508.793,387,1505.793,387,1502.793,387z"/>
	<path style="fill:#1D164E;" d="M1044.853,386.153c-5.372-0.003-10.745-0.006-16.117-0.009
		c-22.237-1.825-42.052-9.472-58.506-24.817c-13.889-12.952-22.749-29.019-27.153-47.334c-6.631-27.574-5.322-54.774,5.788-81.137
		c6.702-15.905,16.398-29.671,30.22-40.236c12.261-9.371,25.995-15.203,41.453-16.826c17.707-1.859,34.863,0.071,51.211,7.364
		c8.314,3.709,15.519,8.987,21.12,16.29c0.581,0.758,0.972,1.784,2.515,2.069c0-35.894,0-71.71,0-107.899
		c20.769-4.74,41.226-9.408,62.036-14.157c0,100.852,0,201.251,0,301.946c-18.818,0-37.546,0-56.619,0c0-8.731,0-17.313,0-27.02
		C1085.96,373.057,1067.516,383.433,1044.853,386.153z M1001.573,280.819c0.027,4.495,0.199,8.964,1.147,13.395
		c3.348,15.653,11.747,27.384,26.727,33.628c11.354,4.733,23.16,5.359,35.174,2.499c15.519-3.695,26.405-12.744,32.142-27.679
		c3.961-10.311,4.794-21.035,3.022-31.884c-2.818-17.26-11.436-30.286-28.167-36.942c-9.792-3.895-19.936-4.563-30.346-2.948
		c-12.784,1.982-23.156,7.817-30.71,18.394C1003.828,258.711,1001.467,269.423,1001.573,280.819z"/>
	<path style="fill:#8C2B8A;" d="M219.833,77.966c3.99,0.037,7.98,0.074,11.97,0.111c0.726,1.365,2.023,0.887,3.109,0.89
		c9.641,0.024,19.282,0.004,28.923-0.002c3.991,0.038,7.982,0.076,11.973,0.113c0.725,1.364,2.02,0.882,3.104,0.887
		c6.97,0.031,13.94,0.009,20.909,0.004c3.663,0.037,7.327,0.074,10.99,0.11c0.897,1.519,2.384,0.868,3.607,0.875
		c9.47,0.049,18.94,0.019,28.41,0.014c3.659,0.037,7.318,0.074,10.977,0.111c0.727,1.367,2.025,0.885,3.111,0.888
		c8.314,0.024,16.628-0.001,24.942-0.01c16.001-0.469,31.959,0.858,47.943,1.122c0.88,1.508,2.349,0.869,3.563,0.88
		c7.232,0.066,14.465,0.014,21.696,0.091c1.211,0.013,2.661-0.674,3.617,0.745l0.152,0.297c-0.861-0.108-1.678-0.111-2.097,0.859
		l0.024-0.018c-1.33,0.014-2.602,0.189-3.909,0.584c-13.305,4.016-26.638,7.938-39.956,11.914
		c-35.208,10.51-70.398,21.077-105.621,31.538c-29.509,8.763-59.06,17.384-88.578,26.116c-15.076,4.459-30.122,9.02-45.179,13.541
		c-9.943,2.985-20.039,5.478-29.749,9.214c-0.632-0.029-1.264-0.058-1.897-0.087c-3.566-3.465-7.841-6-11.807-8.935
		c-22.027-16.3-44.104-32.532-66.164-48.787c1.4-5.973,4.021-11.526,5.973-17.31c3.376-10.001,7.697-19.667,10.605-29.836
		c0.201-0.093,0.346-0.038,0.435,0.164c10.988-0.439,21.903,1.443,32.89,1.032c0.727,1.366,2.023,0.888,3.112,0.891
		c7.985,0.021,15.971-0.005,23.956-0.017c18.997-0.568,37.946,1.23,56.934,1.127c0.726,1.363,2.02,0.883,3.105,0.888
		C207.216,77.998,213.525,77.972,219.833,77.966z"/>
	<path style="fill:#1C164E;" d="M576.698,381.729c-20.63,0-40.898,0-61.469,0c0-96.016,0-191.862,0-288.11
		c20.343-4.669,40.686-9.337,61.015-14.003C577.276,83.199,577.681,372.352,576.698,381.729z"/>
	<path style="fill:#1D174E;" d="M908.734,381.496c-20.566,0-40.835,0-61.472,0c0-66.917,0-133.768,0-200.91
		c20.398,0,40.795,0,61.472,0C908.734,247.461,908.734,314.198,908.734,381.496z"/>
	<path style="fill:#D3D2D2;" d="M143.766,178.838c9.71-3.736,19.806-6.228,29.749-9.214c15.058-4.521,30.103-9.082,45.179-13.541
		c29.518-8.732,59.069-17.352,88.578-26.116c35.222-10.46,70.413-21.028,105.621-31.538c13.317-3.975,26.65-7.898,39.956-11.914
		c1.307-0.394,2.579-0.569,3.909-0.584c-1.259,2.896-4.386,3.437-6.664,4.798c-12.172,7.27-24.648,14.029-36.891,21.184
		c-15.939,9.314-32.108,18.223-47.908,27.785c-11.421,6.912-23.16,13.3-34.735,19.96c-15.146,8.716-30.257,17.493-45.408,26.201
		c-14.009,8.051-28.07,16.011-42.071,24.074c-10.857,6.252-21.657,12.6-32.631,18.993c-9.247-6.816-18.369-13.547-27.5-20.266
		c-10.742-7.903-21.532-15.741-32.208-23.731C148.283,183.089,145.547,181.486,143.766,178.838z"/>
	<path style="fill:#1D174E;" d="M63.899,121.029c22.06,16.255,44.137,32.487,66.164,48.787c3.966,2.935,8.24,5.47,11.807,8.935
		c-8.085,3.045-16.457,5.169-24.715,7.651c-18.906,5.682-37.844,11.258-56.769,16.875c-9.659,2.867-19.32,5.728-29.284,8.681
		c0.289-2.894,1.445-5.227,2.309-7.629c9.542-26.537,19.108-53.064,28.656-79.599c0.391-1.086,0.658-2.217,0.982-3.327
		C63.363,121.349,63.646,121.224,63.899,121.029z"/>
	<path style="fill:#211A50;" d="M909.306,94.236c0,17.131,0,34.016,0,51.19c-20.595,0-40.98,0-61.37,0
		c-1.037-3.321-1.357-43.843-0.372-51.19C868.059,94.236,888.582,94.236,909.306,94.236z"/>
	<path style="fill:#D3D2D2;" d="M63.899,121.029c-0.252,0.195-0.536,0.32-0.851,0.373c-0.852-2.1-2.532-3.672-4.29-4.738
		c-6.217-3.77-11.585-8.662-17.494-12.837c-7.106-5.021-14.167-10.133-20.928-15.653c-5.335-4.356-11.103-8.183-16.706-12.208
		C2.285,74.999,1.006,74.017,0,72.092c3.032,0.038,5.703-0.529,8.411,0.625c1.001,0.426,2.283,0.244,3.437,0.254
		c3.49,0.03,6.984,0.116,10.471,0.008c17.578-0.543,35.1,1.686,52.678,1.036c1.826-0.067,3.653-0.089,5.479-0.132
		c-2.908,10.169-7.229,19.835-10.605,29.836C67.92,109.503,65.299,115.056,63.899,121.029z"/>
	<path style="fill:#81508C;" d="M458.678,84.795c-0.956-1.419-2.406-0.732-3.617-0.745c-7.232-0.077-14.464-0.025-21.696-0.091
		c-1.214-0.011-2.682,0.627-3.563-0.88c6.819-0.008,13.639,0.006,20.457-0.046c1.223-0.009,2.707,0.731,3.556-0.888
		c2.305-0.076,4.334,1.001,6.516,1.312C460.361,84.954,459.467,84.796,458.678,84.795z"/>
	<path style="fill:#D3D2D2;" d="M456.733,85.95c0.419-0.97,1.236-0.967,2.097-0.859C458.427,86.101,457.592,86.056,456.733,85.95z"
		/>
	<path style="fill:#81508C;" d="M263.836,78.965c-9.641,0.007-19.282,0.026-28.923,0.002c-1.086-0.003-2.383,0.475-3.109-0.89
		c9.95,0.019,19.9,0.04,29.85,0.05C262.502,78.128,263.308,78.163,263.836,78.965z"/>
	<path style="fill:#81508C;" d="M342.829,80.968c-9.47,0.005-18.94,0.035-28.41-0.014c-1.223-0.006-2.71,0.645-3.607-0.875
		c9.945,0.018,19.891,0.039,29.836,0.048C341.498,80.128,342.302,80.167,342.829,80.968z"/>
	<path style="fill:#81508C;" d="M381.859,81.957c-8.314,0.009-16.628,0.034-24.942,0.01c-1.086-0.003-2.384,0.479-3.111-0.888
		c8.622,0.018,17.244,0.04,25.866,0.048C380.521,81.128,381.327,81.158,381.859,81.957z"/>
	<path style="fill:#81508C;" d="M140.869,75.952c-7.985,0.011-15.971,0.037-23.956,0.017c-1.088-0.003-2.385,0.475-3.112-0.891
		c8.129,0.003,16.257,0.002,24.386,0.017C139.158,75.097,140.213,74.928,140.869,75.952z"/>
	<path style="fill:#81508C;" d="M299.822,79.969c-6.97,0.005-13.94,0.027-20.909-0.004c-1.084-0.005-2.379,0.477-3.104-0.887
		c7.113,0.015,14.226,0.024,21.34,0.052C298.111,79.134,299.169,78.933,299.822,79.969z"/>
	<path style="fill:#81508C;" d="M219.833,77.966c-6.308,0.007-12.617,0.032-18.925,0.002c-1.085-0.005-2.38,0.475-3.105-0.888
		c6.619,0.015,13.238,0.034,19.856,0.039C218.507,77.12,219.311,77.163,219.833,77.966z"/>
</g>
</svg>
