<?xml version="1.0" encoding="iso-8859-1"?>
<!-- Generator: Adobe Illustrator 27.0.0, SVG Export Plug-In . SVG Version: 6.00 Build 0)  -->
<svg version="1.1" id="Layer_1" xmlns="http://www.w3.org/2000/svg" xmlns:xlink="http://www.w3.org/1999/xlink" x="0px" y="0px"
	 viewBox="0 0 1587 653" style="enable-background:new 0 0 1587 653;" xml:space="preserve">
<g>
	<path style="fill:#4264AA;" d="M124,0c0.352,0.993,1.278,0.84,2.044,1.063c12.128,3.536,16.754,17.502,9.104,27.576
		c-1.201,1.581-2.607,3.022-4.022,4.423c-16.562,16.4-33.212,32.712-49.692,49.193c-8.239,8.239-16.817,16.149-24.434,25.007
		c-10.206,11.869-16.769,25.386-19.124,40.92C34.261,172.023,40.26,193.359,55,212.18c5.745,7.335,12.903,13.457,19.505,20.046
		c5.525,5.515,11.066,11.014,16.238,16.16c-8.377,8.706-16.52,17.169-24.596,25.562c-1.808-0.53-2.6-1.889-3.629-2.91
		c-10.287-10.208-20.746-20.254-30.75-30.735c-14.931-15.643-24.196-34.369-28.696-55.462c-1.177-5.519-2.1-11.1-2.225-16.773
		c0.002-5.378,0.004-10.756,0.005-16.134c0.994-14.386,4.787-28.03,10.817-41.097c6.932-15.02,17.291-27.481,28.965-38.967
		c20.747-20.413,41.556-40.764,62.204-61.277C107.327,6.137,111.727,1.792,118,0C120,0,122,0,124,0z"/>
	<path style="fill:#9292A0;" d="M1586.053,367.95c0.307,0.179,0.623,0.195,0.947,0.05c0,7.333,0,14.667,0,22l-0.463-0.029
		l-0.452,0.105C1586.074,382.701,1586.063,375.325,1586.053,367.95z"/>
	<path style="fill:#B7BDDD;" d="M0,152c0.285-0.017,0.57-0.039,0.854-0.066c-0.002,5.378-0.004,10.756-0.005,16.134
		C0.566,168.049,0.283,168.026,0,168C0,162.667,0,157.333,0,152z"/>
	<path style="fill:#CFCED4;" d="M676,653c0.006-0.279-0.008-0.558-0.042-0.836c3.36-0.004,6.72-0.008,10.08-0.013
		c-0.04,0.281-0.053,0.564-0.039,0.848C682.667,653,679.333,653,676,653z"/>
	<path style="fill:#E54C75;" d="M147.769,355.237c7.783-8.616,16.718-16.064,24.792-24.572c0.833,0.642,1.395,0.986,1.85,1.438
		c10.523,10.449,21.414,20.56,31.46,31.451c15.063,16.331,24.619,35.69,29.188,57.472c1.812,8.64,2.95,17.386,2.799,26.192
		c-0.44,25.687-8.274,48.908-24.031,69.311c-14.64,18.956-33.434,32.191-56.046,39.916c-9.275,3.169-18.897,4.866-28.696,5.725
		c-26.061,2.285-50.221-3.724-72.278-17.359c-27.377-16.923-45.304-41.097-52.752-72.642c-2.533-10.726-3.659-21.672-2.872-32.663
		c1.861-26.003,10.57-49.455,26.812-70.016c9.225-11.678,20.331-21.522,30.808-31.976c23.948-23.894,47.817-47.872,72.015-71.511
		c32.063-31.323,63.639-63.135,95.551-94.609c8.292-8.178,16.666-16.274,24.973-24.438c4.741-4.658,10.28-6.411,16.816-4.937
		c7.041,1.588,11.254,6.136,13.177,12.849c1.849,6.454,0.245,12.117-4.549,16.879c-17.616,17.5-35.036,35.201-52.859,52.487
		c-29.068,28.191-57.501,57.018-86.315,85.464c-24.179,23.87-48.371,47.727-72.5,71.646c-13.675,13.556-23.111,29.543-26.546,48.643
		c-4.595,25.551,1.359,48.515,18.216,68.308c12.994,15.257,29.759,24.668,49.498,27.373c33.207,4.551,60.585-6.57,80.776-33.555
		c8.043-10.75,12.658-23.135,14.153-36.724c2.607-23.698-3.889-44.674-18.055-63.456c-2.978-3.949-6.526-7.489-10.184-10.929
		c-8.362-7.863-16.332-16.143-24.441-24.273C148.205,356.407,148.085,355.877,147.769,355.237z"/>
	<path style="fill:#3E495F;" d="M1339.539,485.885c-16.489,0-32.63,0-49.264,0c-31.918-41.757-64.013-83.747-96.844-126.698
		c0,42.849,0,84.476,0,126.458c-17.599,0-34.81,0-52.278,0c0-70.711,0-141.418,0-212.386c16.334,0,32.597,0,49.24,0
		c32.001,42.089,64.182,84.413,96.362,126.738c0.272-0.094,0.544-0.187,0.816-0.281c0-33.178,0-66.357,0-98.771
		c9.594-9.72,18.588-18.834,27.442-27.805c8.286,0,16.255,0,24.526,0C1339.539,343.986,1339.539,414.692,1339.539,485.885z"/>
	<path style="fill:#3E495F;" d="M1586.053,367.95c0.011,7.375,0.022,14.75,0.032,22.126c-2.83,32.666-17.396,58.519-44.818,76.796
		c-12.025,8.015-25.304,13.082-39.426,16.064c-10.461,2.209-20.995,3.172-31.697,3.115c-28.319-0.151-56.639-0.051-84.959-0.051
		c-1.631,0-3.261,0-5.093,0c0-61.662,0-122.907,0-184.339c9.418-9.358,18.967-18.846,28.847-28.663c8.866,0,18.187,0,27.508,0
		c13.494,0,26.994-0.281,40.479,0.061c24.603,0.624,47.61,6.757,67.94,21.178c20.738,14.711,33.465,34.754,39.052,59.437
		C1584.982,358.372,1585.897,363.109,1586.053,367.95z M1436.138,441c9.629,0,18.932,0.054,28.234-0.019
		c6.315-0.049,12.62,0.209,18.933-0.772c16.764-2.606,29.414-11.312,37.554-25.965c9.599-17.277,10.612-35.782,5.579-54.64
		c-6.048-22.664-25.029-38.675-48.232-40.794c-13.796-1.26-27.617-0.47-41.428-0.491c-0.13,0-0.259,0.196-0.641,0.503
		C1436.138,359.203,1436.138,399.787,1436.138,441z"/>
	<path style="fill:#3F4A5F;" d="M897.172,296.725c-12.009,12.14-23.696,23.955-35.282,35.668c-1.915,0.121-2.864-1.185-4.039-2.022
		c-11.815-8.421-24.909-13.064-39.464-13.443c-8.006-0.208-15.956-0.036-23.68,2.512c-17.985,5.932-30.132,18.113-36.489,35.632
		c-7.3,20.118-5.971,40.06,5.071,58.56c10.41,17.442,26.335,26.741,46.632,28.402c14.907,1.22,28.523-3.174,41.93-9.504
		c0-10.353,0-20.601,0-31.206c-19.767,0-39.37,0-60.342,0c15.425-15.234,29.981-29.61,44.611-44.059c21.313,0,42.617,0,63.913,0
		c1.118,3.921,1.588,85.81,0.587,104.544c-6.555,4.775-13.829,8.712-21.336,12.223c-13.913,6.506-28.509,11.077-43.598,13.626
		c-29.009,4.901-57.112,2.032-83.17-12.512c-28.383-15.841-46.53-39.657-53.527-71.581c-5.206-23.753-3.496-46.906,6.793-69.17
		c11.305-24.462,29.624-41.858,53.929-53.066c21.015-9.69,43.271-13.019,66.156-11.107
		C851.893,272.396,875.616,281.352,897.172,296.725z"/>
	<path style="fill:#3F4A5F;" d="M505.233,485.773c0-71.037,0-141.633,0-212.502c57.415,0,114.665,0,171.958,0
		c0.108,1.309-1.078,1.868-1.82,2.609c-12.969,12.945-26.028,25.802-38.923,38.82c-2.187,2.208-4.377,3.076-7.448,3.06
		c-20.828-0.114-41.656-0.06-62.485-0.06c-1.626,0-3.252,0-5.11,0c0,13.235,0,25.993,0,39.252c33.945,0,67.835,0,102.029,0
		c0,14.891,0,29.285,0,44.175c-34.023,0-67.918,0-102.044,0c0,13.717,0,26.94,0,40.682c38.835,0,77.397,0,116.186,0
		c0,14.925,0,29.33,0,43.964C620.114,485.773,562.87,485.773,505.233,485.773z"/>
	<path style="fill:#3E495F;" d="M936.091,485.765c0-70.966,0-141.579,0-212.479c57.227,0,114.321,0,172.262,0
		c-14.781,15.118-29.596,29.512-44.28,44.296c-23.805,0-47.616,0-71.762,0c0,13.155,0,26.059,0,39.398c33.714,0,67.452,0,101.531,0
		c0,14.814,0,29.201,0,44.027c-33.721,0-67.462,0-101.545,0c0,13.67,0,26.912,0,40.734c38.424,0,76.97,0,115.739,0
		c0,14.981,0,29.385,0,44.024C1050.769,485.765,993.67,485.765,936.091,485.765z"/>
	<path style="fill:#3E495F;" d="M281.136,485.7c0-74.78,0-149.241,0-224.293c13.652-13.457,27.622-27.228,41.465-40.875
		c7.451,0,14.568,0,22.137,0c0,70.447,0,140.668,0,211.388c40.007,0,79.565,0,119.354,0c0,18.1,0,35.703,0,53.335
		C460.534,486.269,294.564,486.732,281.136,485.7z"/>
	<path style="fill:#424C62;" d="M281.095,649.9c0-30.004,0-59.446,0-88.811c0.936-1.223,2.196-0.782,3.297-0.785
		c13.824-0.029,27.65-0.14,41.471,0.04c5.63,0.073,11.212,0.731,16.698,2.452c11.531,3.616,14.627,10.861,14.787,20.407
		c0.163,9.701-4.695,15.662-14.694,18.793c-0.445,0.139-0.89,0.281-1.397,0.441c1.417,1.832,3.647,1.702,5.442,2.355
		c8.414,3.059,12.999,9.158,13.942,17.776c0.939,8.584-2.347,15.59-9.406,20.736c-4.131,3.011-8.883,4.605-13.788,5.425
		c-4.568,0.763-9.204,1.261-13.899,1.218C309.579,649.817,295.608,649.9,281.095,649.9z M294.191,639.01
		c12.724,0,25.154,0.099,37.58-0.069c3.138-0.042,6.121-1.387,8.936-2.849c2.462-1.28,4.207-3.278,5.157-5.84
		c2.712-7.314,0.776-16.006-7.804-19.46c-2.319-0.933-4.611-1.692-7.138-1.974c-10.947-1.22-21.922-0.386-32.88-0.609
		c-1.27-0.026-2.661-0.445-3.852,0.558C294.191,618.825,294.191,628.889,294.191,639.01z M294.136,597.938
		c12.158,0,23.918,0.052,35.678-0.051c1.952-0.017,3.95-0.54,5.838-1.12c5.417-1.665,8.281-5.65,8.484-11.513
		c0.238-6.881-1.691-10.109-7.537-12.495c-3.421-1.396-7.003-1.884-10.688-1.871c-9.468,0.034-18.936-0.006-28.403,0.035
		c-1.088,0.005-2.329-0.461-3.371,0.717C294.136,580.129,294.136,588.728,294.136,597.938z"/>
	<path style="fill:#414B61;" d="M686.039,652.152c-3.36,0.004-6.72,0.008-10.08,0.013c-6.648-0.546-13.155-1.723-19.308-4.418
		c-13.046-5.715-21.326-15.519-24.788-29.301c-4.051-16.122-1.542-31.011,9.117-44.057c7.423-9.085,17.54-13.343,28.867-15.168
		c10.53-1.697,20.995-1.136,31.057,2.21c17.438,5.799,27.073,18.453,29.991,36.343c1.387,8.504,0.452,16.878-2.503,25.003
		c-5.753,15.816-17.494,24.517-33.488,28.082C691.997,651.506,688.996,651.731,686.039,652.152z M643.974,605.987
		c-0.833,19.023,14.811,35.883,34.739,36.094c24.903,0.264,39.376-18.487,39.269-36.514c-0.133-22.513-18.498-36.877-36.732-36.919
		C660.971,568.602,643.412,585.101,643.974,605.987z"/>
	<path style="fill:#444E63;" d="M1071.147,608.866c0,10.463,0,20.218,0,30.386c18.479,0,36.725,0,55.263,0
		c0.52,3.632,0.321,6.865,0.2,10.378c-23.052,0-45.78,0-68.727,0c0-29.737,0-59.314,0-89.12c22.373,0,44.458,0,66.837,0
		c0,3.354,0,6.592,0,10.269c-17.76,0-35.497,0-53.521,0c0,9.334,0,18.239,0,27.787c16.743,0,33.438,0,50.321,0
		c0,3.734,0,6.828,0,10.299C1104.737,608.866,1088.15,608.866,1071.147,608.866z"/>
	<path style="fill:#414B61;" d="M1557.691,560.544c0,29.734,0,59.168,0,88.869c-4.006,1.056-8.102,0.13-12.681,0.629
		c0-13.961,0-27.52,0-40.926c-4.368-1.225-38.336-1.604-57.886-0.75c-0.038,4.511-0.092,9.09-0.112,13.67
		c-0.02,4.497-0.004,8.995-0.004,13.492c0,4.628,0,9.256,0,14.122c-4.314,0-8.245,0-12.541,0c0-29.533,0-59.09,0-88.983
		c3.891-0.785,7.961-0.222,12.419-0.363c0,12.636,0,24.884,0,37.407c19.432,0,38.468,0,57.953,0c0-12.439,0-24.685,0-37.167
		C1549.219,560.544,1553.16,560.544,1557.691,560.544z"/>
	<path style="fill:#424C62;" d="M1331.239,624.953c4.813,0,9.108,0,13.723,0c0.444,1.717,0.015,3.221-0.49,4.77
		c-2.699,8.271-8.317,13.814-16.095,17.369c-5.492,2.51-11.309,3.78-17.269,4.427c-14.486,1.571-28.205-0.09-40.078-9.564
		c-5.053-4.032-8.813-9.036-11.334-14.936c-5.881-13.765-6.519-27.679-0.654-41.616c5.215-12.392,14.352-20.614,27.236-24.399
		c13.406-3.938,26.821-4.338,40.008,1.08c6.291,2.584,11.635,6.379,15.161,12.382c1.624,2.764,2.843,5.641,2.677,9.239
		c-4.555,0-9.14,0-13.789,0c-0.146-0.189-0.446-0.415-0.519-0.698c-2.078-8.086-7.968-12.218-15.542-13.663
		c-7.866-1.502-15.862-1.385-23.651,1.236c-11.076,3.727-17.61,11.57-20.359,22.636c-2.123,8.547-1.78,17.161,0.69,25.629
		c3.307,11.336,10.811,18.248,22.184,21.382c6.777,1.867,13.562,1.94,20.228,0.464
		C1321.91,638.798,1328.671,634.285,1331.239,624.953z"/>
	<path style="fill:#464F64;" d="M884.898,571.803c-12.752,0-25.017,0-37.594,0c-0.8-3.855-0.453-7.414-0.231-11.254
		c29.556,0,58.949,0,88.633,0c0,3.644,0,7.19,0,11.031c-12.491,0-24.774,0-37.662,0c0,26.143,0,52.006,0,78.098
		c-4.531,0-8.464,0-13.136,0C884.891,623.853,884.908,597.998,884.898,571.803z"/>
	<path style="fill:#414B61;" d="M489.387,560.504c4.118,0,8.046,0,12.321,0c0,29.609,0,59.139,0,89.075
		c-3.833,0.676-7.912,0.218-12.321,0.24C489.387,620.006,489.387,590.363,489.387,560.504z"/>
</g>
</svg>
