<?xml version="1.0" encoding="iso-8859-1"?>
<!-- Generator: Adobe Illustrator 27.0.0, SVG Export Plug-In . SVG Version: 6.00 Build 0)  -->
<svg version="1.1" id="Layer_1" xmlns="http://www.w3.org/2000/svg" xmlns:xlink="http://www.w3.org/1999/xlink" x="0px" y="0px"
	 viewBox="0 0 1604 204" style="enable-background:new 0 0 1604 204;" xml:space="preserve">
<g>
	<path style="fill:#1B234D;" d="M0,0c67.102,0,134.204,0,201.505,0c0,67.433,0,134.364,0,201.649c-13.605,0-27.179,0-41.278,0
		c0-52.969,0-106.178,0-158.82c-1.303-1.452-2.358-1.111-3.29-1.111c-51.159-0.02-102.319-0.02-153.478-0.005
		C2.306,41.713,1.153,41.9,0,42C0,28,0,14,0,0z"/>
	<path style="fill:#19214D;" d="M0,74c1.325-0.074,2.651-0.214,3.976-0.214c39.653-0.012,79.307-0.01,118.96-0.01
		c1.473,0,2.945,0,4.681,0c0,42.765,0,85.173,0,127.903c-13.661,0-27.36,0-41.445,0c0-28.75,0-57.336,0-85.822
		c-2.083-1.073-3.945-0.605-5.723-0.607c-24.992-0.038-49.983-0.021-74.975-0.036C3.65,115.213,1.825,115.075,0,115
		C0,101.333,0,87.667,0,74z"/>
	<path style="fill:#1D254F;" d="M1462,204c-0.719-1.797-2.595-1.213-3.866-1.682c-10.05-3.711-15.011-11.197-15.992-21.463
		c-1.086-11.364,3.222-20.414,12.469-27.171c8.364-6.111,17.993-9.175,27.855-11.542c7.092-1.702,14.321-2.829,21.484-4.239
		c0.967-0.19,1.902-0.538,3.346-0.955c-0.307-10.81-1.252-21.463-6.681-31.158c-3.258-5.818-8.495-8.776-15.126-9.017
		c-3.97-0.144-7.944-0.305-11.849,1.061c-3.27,1.144-5.886,2.905-7.922,6.002c1.614,2.296,3.552,4.355,4.45,7.089
		c1.516,4.612,1.263,8.888-2.112,12.58c-3.411,3.731-7.895,4.29-12.427,3.107c-4.636-1.21-7.073-4.74-7.687-9.444
		c-0.947-7.264,1.266-13.437,6.583-18.487c5.728-5.44,12.729-8.256,20.297-10.008c9.607-2.224,19.085-2.216,28.474,1.079
		c8.618,3.025,14.769,8.776,18.653,16.945c4.502,9.47,5.771,19.611,6.348,29.975c0.835,14.973-0.055,29.954,0.608,44.92
		c0.037,0.832,0.012,1.671,0.114,2.494c0.709,5.706,2.627,7.479,8.394,7.673c2.316,0.078,4.638,0.013,7.06,0.013
		c0.9,2.02,0.435,3.98,0.457,6.088c-4.806,2.397-9.846,3.902-14.995,5.088c-0.765,0.176-1.705-0.072-1.936,1.05
		c-3.333,0-6.667,0-10,0c-5.293-2.903-6.532-7.936-6.861-13.35c-0.182-2.987-0.033-5.995-0.033-9.228
		c-0.874,0.332-1.065,0.348-1.162,0.452c-0.336,0.359-0.667,0.729-0.951,1.13c-7.556,10.672-17.274,18.077-30.483,20.248
		c-0.205,0.034-0.342,0.489-0.51,0.747C1472.667,204,1467.333,204,1462,204z M1507.445,144.332c-2.77-0.814-4.619,0.271-6.511,0.679
		c-8.762,1.888-17.505,3.903-25.488,8.214c-5.488,2.964-9.753,7.164-11.153,13.363c-1.102,4.879-0.99,9.931,0.508,14.812
		c2.25,7.33,7.844,11.318,15.455,10.469c12.479-1.392,21.428-7.813,25.669-19.816
		C1509.105,163.053,1508.373,153.719,1507.445,144.332z"/>
	<path style="fill:#1D254F;" d="M1057,204c-0.441-0.888-1.318-0.838-2.114-1.03c-11.278-2.72-17.992-10.783-18.732-23.382
		c-0.631-10.746,3.622-19.358,12.374-25.777c8.362-6.134,17.996-9.205,27.852-11.608c7.089-1.729,14.321-2.87,21.497-4.232
		c1.149-0.218,2.311-0.3,3.502-1.445c-0.101-9.217-1.209-18.544-4.84-27.359c-3.353-8.142-9.47-12.599-18.557-12.471
		c-3.663,0.052-7.329-0.063-10.829,1.301c-3.001,1.17-5.624,2.794-7.322,6c2.887,3.414,5.125,7.033,5.294,11.864
		c0.171,4.873-4.029,10.811-10.524,11.156c-6.91,0.367-11.813-3.436-12.585-9.952c-1.15-9.712,3.236-16.704,10.984-21.897
		c5.02-3.365,10.67-5.313,16.541-6.673c7.747-1.795,15.533-1.972,23.259-0.199c12.495,2.867,20.729,10.653,25.14,22.596
		c3.501,9.481,4.49,19.406,4.711,29.383c0.292,13.15,0.188,26.309,0.255,39.465c0.003,0.5-0.007,1.001,0.027,1.499
		c0.641,9.462,2.724,10.584,10.789,10.538c1.637-0.009,3.273-0.001,5.126-0.001c0.562,2.182,0.449,4.093,0.146,6.225
		c-5.043,2.177-10.131,4.094-15.548,5.027c-0.667,0.115-1.304,0.14-1.447,0.974c-3.333,0-6.667,0-10,0
		c-3.699-2.359-5.538-5.676-6.309-10.067c-0.713-4.059-0.153-8.171-1.022-12.674c-1.197,1.479-2.138,2.591-3.024,3.745
		c-7.457,9.71-16.823,16.348-29.179,18.22c-0.19,0.029-0.312,0.507-0.466,0.776C1067,204,1062,204,1057,204z M1101.728,144.142
		c-1.098-0.06-1.765-0.236-2.367-0.109c-7.449,1.575-14.886,3.214-22.066,5.8c-2.019,0.727-3.988,1.607-5.933,2.517
		c-12.35,5.778-15.814,15.607-12.434,28.953c1.811,7.151,7.473,11.212,14.816,10.585c11.806-1.009,20.675-6.676,25.509-17.772
		C1103.464,164.452,1102.16,154.34,1101.728,144.142z"/>
	<path style="fill:#1C244E;" d="M1318,204c-0.241-1.083-1.161-0.951-1.942-1.111c-20.395-4.168-32.118-17.122-36.411-36.935
		c-3.359-15.504-3.367-31.117,2.404-46.164c7.11-18.538,20.831-28.947,40.453-31.9c8.899-1.339,17.545-0.849,26.052,2.022
		c10.627,3.586,18.037,10.388,20.895,21.483c1.255,4.87,1.472,9.87,0.41,14.826c-1.294,6.038-5.661,9.429-12.206,9.67
		c-5.94,0.219-10.937-3.042-12.368-8.071c-1.747-6.137,0.442-12.543,5.654-16.413c1.056-0.784,2.214-1.43,3.682-2.367
		c-2.747-5.303-7.166-8.54-12.812-9.822c-6.865-1.559-13.747-1.677-20.695,0.378c-6.254,1.849-10.883,5.435-14.382,10.767
		c-4.127,6.288-5.89,13.438-6.52,20.699c-0.979,11.274-1.163,22.615,1.702,33.736c0.618,2.401,1.307,4.816,2.286,7.085
		c6.44,14.926,19.247,19.543,33.307,17.639c11.159-1.511,20.415-6.692,27.779-15.484c2.453,1.388,4.316,3.15,6.337,5.209
		c-8.588,12.831-19.453,21.836-35.141,23.79c-0.693,0.086-1.29,0.175-1.483,0.963C1329.333,204,1323.667,204,1318,204z"/>
	<path style="fill:#19214C;" d="M1604,202c-17.289,0-34.577,0-52.043,0c0-3.059,0-5.665,0-8.451
		c5.028-2.116,10.682-2.172,15.718-4.559c0-45.571,0-91.041,0-136.837c-4.878-2.272-10.478-2.416-15.698-4.683
		c-0.333-2.538-0.276-5.148-0.005-8.067c11.826,0,23.581,0,35.79,0c0,49.807,0,99.713,0,149.822
		c5.609,1.539,10.805,3.13,16.24,3.775C1604,196,1604,199,1604,202z"/>
	<path style="fill:#19214C;" d="M0,148c17.758,0,35.517,0,53.564,0c0,17.969,0,35.659,0,54c-17.818,0-35.691,0-53.564,0
		C0,184,0,166,0,148z"/>
	<path style="fill:#1A224D;" d="M467.803,201.791c-19.826,0-38.944,0-58.291,0c0-2.978,0-5.752,0-8.747
		c5.398-2.069,11.173-2.851,16.699-4.397c0.957-3.587,1.317-114.601,0.396-123.452c-5.654-1.46-11.377-2.937-17.157-4.429
		c0-2.999,0-5.619,0-8.033c0.515-0.887,1.187-0.942,1.851-0.941c23.332,0.028,46.668-0.204,69.994,0.168
		c25.313,0.403,42.182,18.014,43.833,41.578c1.175,16.762-4.6,30.725-18.213,40.915c-7.373,5.519-15.968,8.183-25.141,8.438
		c-9.493,0.264-18.997,0.093-28.497,0.112c-1.631,0.003-3.263,0-5.125,0c0,15.276,0,30.199,0,45.37
		c6.256,1.991,12.933,2.484,19.306,4.714C468.088,195.91,467.568,198.674,467.803,201.791z M448.102,130.779
		c9.582,0,18.589,0.402,27.546-0.094c13.375-0.741,21.218-6.903,24.904-19.218c2.678-8.947,2.694-18.155,0.002-27.085
		c-3.354-11.13-10.717-18.261-22.568-19.807c-9.904-1.292-19.856-0.311-29.884-0.615
		C448.102,86.437,448.102,108.362,448.102,130.779z"/>
	<path style="fill:#1C234E;" d="M799.99,99.262c0,18.623,0,36.724,0,55.017c-3.462,0.761-6.855,0.506-10.481,0.106
		c-1.219-7.029-2.405-13.861-3.628-20.909c-11.394,0-22.658,0-34.288,0c0,17.97,0,35.873,0,54.142
		c7.57,2.013,15.706,2.477,23.789,4.301c0.611,3.239,0.223,6.332,0.311,9.752c-21.632,0-43.012,0-64.658,0c0-2.73,0-5.473,0-8.731
		c6.209-1.667,12.551-3.37,19.046-5.113c0-40.906,0-81.64,0-122.586c-6.388-1.481-12.645-2.932-19.078-4.423c0-2.939,0-5.698,0-8.75
		c38.846,0,77.595,0,116.674,0c0,14.56,0,29.304,0,44.307c-3.336,0.671-6.783,0.218-10.827,0.291
		c-2.267-10.829-4.525-21.616-6.802-32.495c-19.592,0-38.885,0-58.498,0c0,18.624,0,37.204,0,55.815
		c3.324,0.995,26.492,1.291,34.063,0.403c1.466-3.206,1.308-6.773,2.101-10.143c0.794-3.372,1.123-6.854,1.672-10.386
		C792.94,98.761,796.351,99.572,799.99,99.262z"/>
	<path style="fill:#1E254F;" d="M1010.908,189.285c5.589,1.429,10.552,2.699,15.66,4.005c0.637,2.654,0.221,5.305,0.315,7.913
		c-3.481,1.015-41.218,1.333-49.877,0.41c0-2.558,0-5.158,0-8.083c3.894-2.077,8.652-2.351,12.533-4.039
		c0.788-1.03,0.751-1.867,0.748-2.696c-0.072-19.819-0.132-39.637-0.229-59.456c-0.018-3.673-0.767-7.246-1.688-10.795
		c-2.601-10.029-8.522-15.192-21.288-14.304c-16.696,1.161-27.855,13.158-28.089,29.859c-0.259,18.485-0.072,36.977-0.066,55.466
		c0,0.487,0.151,0.974,0.284,1.779c4.442,1.321,8.986,2.672,13.509,4.018c0,2.953,0,5.559,0,8.405c-16.759,0-33.333,0-50.16,0
		c-0.475-2.68-0.255-5.289-0.181-8.139c4.951-1.945,10.194-2.697,15.552-4.149c0-29.01,0-57.914,0-87.235
		c-4.536-2.479-10.272-2.266-15.363-4.556c-0.641-2.563-0.068-5.194-0.324-7.733c3.698-1.049,21.481-1.335,30.323-0.517
		c1.503,6.622,3.035,13.375,4.626,20.389c1.894-0.441,2.264-2.212,3.153-3.389c9.789-12.956,22.711-19.616,39.018-19.286
		c3.136,0.064,6.321,0.534,9.375,1.269c8.592,2.068,14.175,7.577,17.305,15.752c2.277,5.949,3.283,12.15,3.969,18.44
		c1.283,11.782,0.836,23.603,0.885,35.413C1010.942,168.336,1010.908,178.649,1010.908,189.285z"/>
	<path style="fill:#1E254F;" d="M1184.38,189.415c4.371,1.3,8.782,2.612,13.33,3.964c0,2.761,0,5.374,0,8.31
		c-16.602,0-33.178,0-50.004,0c-0.845-2.573-0.331-5.327-0.297-8.308c5.257-1.359,10.344-2.674,15.624-4.039
		c0-29.08,0-57.998,0-87.212c-4.909-2.196-10.566-2.228-15.538-4.484c0-2.766,0-5.376,0-8.268c9.959,0,19.72,0,29.849,0
		c2.192,6.519,2.887,13.644,5.051,20.853c1.672-2.124,3.12-4.079,4.685-5.934c12.144-14.4,27.56-19.675,45.938-16.049
		c8.018,1.582,13.686,6.42,17.128,13.897c2.822,6.13,4.01,12.652,4.728,19.261c0.935,8.606,1.132,17.253,1.06,25.914
		c-0.103,12.324-0.037,24.65-0.014,36.975c0.003,1.628-0.267,3.302,0.417,5.065c5.108,1.328,10.199,2.652,15.393,4.002
		c0,2.845,0,5.453,0,8.354c-16.505,0-32.907,0-49.711,0c-0.494-2.635-0.223-5.367-0.153-8.205c4.179-1.953,8.667-2.499,12.431-3.842
		c0.986-0.989,0.992-1.823,0.989-2.656c-0.065-19.651-0.132-39.302-0.198-58.952c-0.013-3.847-0.685-7.601-1.65-11.304
		c-2.96-11.353-9.55-14.955-20.15-14.597c-17.441,0.589-28.781,12.856-29.201,28.723c-0.502,18.974-0.15,37.97-0.147,56.957
		C1183.941,188.306,1184.193,188.77,1184.38,189.415z"/>
	<path style="fill:#1C244E;" d="M594.078,52.008c0,2.841,0,5.458,0,8.656c-6.587,2.293-14.001,2.344-21.027,4.729
		c0,41.09,0,82.184,0,123.59c18.511,0,36.916,0,55.843,0c3.042-11.568,4.578-23.724,7.492-35.689c3.823,0,7.421,0,11.282,0
		c0,16.127,0,32.059,0,48.351c-38.26,0-76.64,0-115.285,0c0-2.729,0-5.493,0-8.592c6.051-2.241,12.704-2.756,19.224-4.614
		c0-41.083,0-82.007,0-123.212c-6.416-1.467-12.82-2.931-19.338-4.42c-0.188-3.102-0.327-5.864,0.102-8.8
		C553.032,52.008,573.441,52.008,594.078,52.008z"/>
	<path style="fill:#1B234E;" d="M339.736,60.788c-7.388,1.499-14.355,2.912-21.53,4.367c0,41.315,0,82.544,0,123.958
		c18.664,0,37.093,0,56.108,0c2.373-11.805,4.747-23.612,7.179-35.71c3.637-0.623,7.245-0.183,11.189-0.294
		c0,16.231,0,32.283,0,48.616c-38.266,0-76.627,0-115.178,0c0-2.86,0-5.479,0-8.544c5.997-2.436,12.702-2.741,19.225-4.754
		c0-40.945,0-81.862,0-123.011c-6.033-2.206-12.732-2.568-19.08-4.72c-0.591-2.816-0.355-5.581-0.186-8.636
		c20.686,0,41.107,0,61.773,0C340.294,54.679,339.538,57.46,339.736,60.788z"/>
	<path style="fill:#1A224D;" d="M873.863,89.382c0,33.379,0,66.481,0,99.718c5.213,2.143,10.736,2.514,15.93,4.427
		c0,2.701,0,5.311,0,8.199c-17.332,0-34.55,0-51.967,0c0-2.75,0-5.354,0-8.159c4.969-2.144,10.658-2.128,15.666-4.672
		c0-28.854,0-57.626,0-86.579c-4.995-2.237-10.669-2.269-15.693-4.685c0-2.75,0-5.358,0-8.249
		C849.719,89.382,861.476,89.382,873.863,89.382z"/>
	<path style="fill:#19214C;" d="M1381.04,201.736c0-2.869,0-5.482,0-8.392c5.164-1.304,10.267-2.592,15.597-3.937
		c0-29.086,0-58.006,0-87.337c-5.055-1.333-10.278-2.71-15.583-4.109c0-2.884,0-5.525,0-8.513c11.743,0,23.487,0,35.464,0
		c-0.107-0.095,0.028,0.007,0.139,0.129c0.106,0.116,0.27,0.253,0.27,0.381c0.012,32.984,0.011,65.968,0.011,99.054
		c5.178,2.132,10.523,2.615,15.772,4.352c0.821,2.573,0.123,5.354,0.451,8.372C1415.732,201.736,1398.645,201.736,1381.04,201.736z"
		/>
	<path style="fill:#1D254F;" d="M1406.937,42.774c8.58-0.54,13.256,6.21,13.112,12.933c-0.168,7.89-5.222,13.142-13.078,13.169
		c-7.96,0.027-12.987-5.059-12.977-13.131C1394.003,47.492,1398.738,42.747,1406.937,42.774z"/>
	<path style="fill:#1E254F;" d="M850.768,55.618c-0.201-8.141,5.569-13.071,13.054-12.972c6.479,0.085,12.997,4.028,13.062,13.189
		c0.055,7.752-5.437,13.226-13.265,13.007C855.199,68.607,850.631,63.711,850.768,55.618z"/>
</g>
</svg>
