<?xml version="1.0" encoding="iso-8859-1"?>
<!-- Generator: Adobe Illustrator 27.0.0, SVG Export Plug-In . SVG Version: 6.00 Build 0)  -->
<svg version="1.1" id="Layer_1" xmlns="http://www.w3.org/2000/svg" xmlns:xlink="http://www.w3.org/1999/xlink" x="0px" y="0px"
	 viewBox="0 0 1704 392" style="enable-background:new 0 0 1704 392;" xml:space="preserve">
<g>
	<path style="fill:#181A1A;" d="M1139,0c0.469,1.319,1.623,0.86,2.527,0.923c11.177,0.772,22.043,2.968,32.337,7.465
		c24.139,10.544,39.274,28.232,43.308,54.752c2.5,16.438,1.532,32.459-5.128,47.884c-5.079,11.763-13.018,21.214-23.616,28.339
		c-11.188,7.522-23.442,12.126-36.938,13.776c-15.072,1.843-30.131,2.751-45.311,2.243c-7.944-0.266-15.931-0.575-24.326,0.537
		c0,38.533,0,76.936,0,115.679c-13.041,0.318-25.607,0.424-38.152-0.021c-0.882-2.073-0.495-3.921-0.495-5.705
		c-0.011-86.973,0.006-173.945,0.009-260.918c0-1.651-0.14-3.303-0.215-4.954c0.667,0,1.333,0,2,0
		c0.689,1.418,1.998,0.922,3.078,0.923c27.286,0.025,54.572,0.028,81.858,0.013c1.083-0.001,2.389,0.5,3.063-0.936
		C1135,0,1137,0,1139,0z M1081.923,35.748c-0.022,28.25-0.082,56.123-0.025,83.456c1.747,1.328,2.949,1.043,4.08,1.041
		c15.146-0.029,30.293-0.054,45.439-0.143c7.703-0.045,15.166-1.653,22.446-4.02c11.641-3.785,18.942-11.732,22.138-23.55
		c1.769-6.54,1.577-13.19,1.229-19.82c-1.131-21.535-12.642-30.857-29.482-34.776c-8.944-2.081-17.995-2.91-27.179-2.7
		C1107.931,35.525,1095.277,34.831,1081.923,35.748z"/>
	<path style="fill:#1C1D1E;" d="M1556,0c-0.156,0.291-0.45,0.582-0.449,0.872c0.088,36.323,0.197,72.646,0.314,108.969
		c0.003,0.957,0.104,1.913,0.179,3.231c4.191-3.285,8.014-6.434,11.992-9.375c19.476-14.401,41.403-17.045,64.04-11.087
		c21.785,5.734,34.899,20.883,39.83,42.931c1.422,6.356,2,12.789,1.987,19.319c-0.074,37.16-0.04,74.319-0.074,111.479
		c-0.001,1.62,0.408,3.309-0.604,5.286c-11.596,0.253-23.356,0.418-35.006-0.014c-1.44-1.569-0.879-3.321-0.88-4.919
		c-0.021-31.994,0.03-63.988-0.006-95.982c-0.009-7.812,0.342-15.653-1.285-23.389c-2.1-9.981-6.293-18.482-15.808-23.509
		c-3.926-2.074-8.08-2.991-12.431-3.193c-9.979-0.462-19.942-0.953-29.425,3.321c-8.202,3.697-15.076,8.988-20.751,15.961
		c-1.634,2.008-1.812,4.145-1.812,6.509c-0.005,39.659-0.031,79.317-0.08,118.976c-0.002,1.806,0.37,3.656-0.446,5.736
		c-11.653,1.528-23.457,0.329-35.179,0.651c-1.535-1.945-0.867-4.022-0.867-5.926c-0.025-85.151,0-170.301-0.013-255.452
		c0-3.463,0.352-6.942-0.225-10.396c0.667,0,1.333,0,2,0c0.304,1.002,1.11,1.025,1.95,1.024c9.699-0.005,19.398-0.005,29.096,0
		c0.841,0,1.646-0.025,1.953-1.024C1554.667,0,1555.333,0,1556,0z"/>
	<path style="fill:#1C1D1E;" d="M754,0c-0.761,1.929-0.25,3.927-0.25,5.882c0.005,33.992,0.055,67.984,0.124,101.977
		c0.003,1.619-0.324,3.283,0.442,5.201c2.006-1.631,3.921-3.166,5.812-4.73c9.334-7.717,19.645-13.508,31.504-16.431
		c9.865-2.432,19.767-2.152,29.74-1.023c10.816,1.225,20.523,4.982,29.069,11.843c10.282,8.255,16.473,18.963,19.429,31.637
		c1.475,6.324,1.998,12.754,1.983,19.285c-0.086,37.491-0.016,74.983,0.001,112.475c0.001,1.647,0,3.293,0,5.406
		c-12.03,0.499-23.778,0.386-35.331,0.168c-1.364-1.252-0.966-2.659-0.966-3.939c-0.001-31.993,0.035-63.986,0.026-95.978
		c-0.002-8.317,0.224-16.652-1.503-24.873c-1.174-5.591-3.199-10.783-6.57-15.453c-4.123-5.713-9.88-9.188-16.534-10.297
		c-9.375-1.562-18.954-1.7-28.242,0.851c-10.364,2.847-18.963,8.633-25.932,16.846c-2.121,2.5-3.077,5.164-3.069,8.567
		c0.093,38.491,0.027,76.983,0.004,115.474c-0.002,2.789,0,5.578,0,8.662c-12.392,0.42-24.127,0.474-36.473-0.016
		c0-2.799-0.001-5.259,0-7.72c0.036-87.479,0.073-174.958,0.093-262.437c0-0.459-0.233-0.918-0.357-1.377c0.333,0,0.667,0,1,0
		c0.235,1.081,1.086,1.027,1.902,1.027c10.047-0.001,20.095-0.005,30.142-0.003c0.842,0,1.65-0.021,1.956-1.024
		C752.667,0,753.333,0,754,0z"/>
	<path style="fill:#1A1B1C;" d="M301,0c-0.084,2.132-0.24,4.263-0.24,6.395c-0.03,74.816-0.049,149.632-0.04,224.448
		c0,1.791-0.447,3.653,0.776,6.041c10.278,0.412,20.891,0.127,31.493,0.178c10.831,0.052,21.662,0.012,32.492,0.012
		c10.664,0,21.328,0,31.993,0c10.614,0,21.227,0,32.112,0c0,11.62,0,22.732,0,33.867c-3.363,1.034-160.467,1.385-167.509,0.351
		c-0.922-1.537-0.474-3.245-0.475-4.872c-0.03-84.814-0.036-169.628-0.037-254.442c0-3.656-0.012-7.317,0.567-10.944
		c10.967-0.008,21.934,0.018,32.9-0.07C296.355,0.952,298.069,1.878,299,0C299.667,0,300.333,0,301,0z"/>
	<path style="fill:#E5A750;" d="M1419.931,391.098c-6.193-0.343-12.148-1.636-17.679-4.531c-1.17-0.612-2.334-1.307-3.332-2.161
		c-5.504-4.706-4.961-11.576,1.234-15.414c3.426-2.123,7.231-3.323,11.195-3.905c1.823-0.268,3.562-0.687,5.47-1.424
		c-2.2-1.433-4.258-2.773-6.302-4.104c-0.704-2.475-0.119-4.344,2.258-5.402c1.958-0.872,3.959-1.648,5.942-2.467
		c-0.544-1.525-1.758-1.486-2.864-1.748c-2.608-0.618-5.103-1.674-7.257-3.194c-9.61-6.778-8.394-16.943,0.207-22.518
		c4.362-2.828,9.348-4.235,14.43-5.176c7.2-1.334,14.517-1.523,21.798-1.76c8.656-0.282,17.328-0.09,25.992-0.045
		c1.632,0.008,3.331-0.406,5.08,0.527c1.492,1.931,0.878,4.284,0.952,6.685c-3.733,1.988-7.823,0.999-11.681,1.445
		c0.041,1.694,1.254,2.513,1.943,3.585c3.462,5.382,3.242,9.306-1.042,13.942c-3.876,4.195-8.895,6.413-14.338,7.458
		c-5.198,0.998-10.513,1.371-15.758,2.142c-3.213,0.472-6.705,0.334-9.381,3.673c4.478,3.073,9.519,3.697,14.515,4.298
		c7.237,0.871,14.536,1.302,21.641,3.054c4.388,1.082,8.563,2.626,11.787,6.056c4.196,4.466,3.689,10.384-1.222,14.197
		c-5.899,4.581-12.929,5.701-20.017,6.679c-0.921,0.127-2.063-0.311-2.499,1.01c-6.333,0-12.667,0-19,0
		C1428.09,390.194,1423.958,391.352,1419.931,391.098z M1412.256,374.405c-0.097,4.873,1.607,6.669,7.171,7.62
		c10.987,1.877,21.977,1.788,32.981,0.056c1.852-0.291,3.449-1.043,5.101-1.807c2.613-1.208,3.312-3.034,2.165-5.578
		C1450.904,368.18,1421.972,367.923,1412.256,374.405z M1436.399,344.218c5.349-0.059,10.579-1.066,13.047-2.504
		c5.399-3.145,5.742-8.253,0.827-11.967c-6.849-5.175-20.71-5.191-27.427-0.63c-2.461,1.671-4.169,3.871-3.812,7.045
		c0.327,2.907,2.114,4.7,4.737,5.878C1427.81,343.854,1432.053,344.29,1436.399,344.218z"/>
	<path style="fill:#5A5758;" d="M1133,0c-0.674,1.435-1.98,0.935-3.063,0.936c-27.286,0.016-54.572,0.013-81.858-0.013
		c-1.08-0.001-2.39,0.494-3.078-0.923C1074.333,0,1103.667,0,1133,0z"/>
	<path style="fill:#5A5758;" d="M1704,105c-1.699,0.337-1.567,2.445-2.968,3.071c-0.11-0.563-0.415-0.943-0.999-1.059
		c3.499-5.289,3.082-12.031-1.051-17.005c0.559-0.1,0.904-0.419,1.009-0.984c1.946,0.711,2.097,3.232,4.009,3.978
		C1704,97,1704,101,1704,105z"/>
	<path style="fill:#4B4949;" d="M299,0c-0.931,1.878-2.645,0.952-3.968,0.963c-10.966,0.088-21.933,0.062-32.9,0.07
		C262.088,0.689,262.044,0.344,262,0C274.333,0,286.667,0,299,0z"/>
	<path style="fill:#4B4949;" d="M752,0c-0.306,1.004-1.114,1.024-1.956,1.024c-10.047-0.003-20.095,0.001-30.142,0.003
		c-0.817,0-1.667,0.054-1.902-1.027C729.333,0,740.667,0,752,0z"/>
	<path style="fill:#4B4949;" d="M1554,0c-0.307,0.998-1.112,1.024-1.953,1.024c-9.699-0.005-19.398-0.005-29.096,0
		c-0.841,0-1.647-0.022-1.95-1.024C1532,0,1543,0,1554,0z"/>
	<path style="fill:#F2D3A8;" d="M0.919,148.058l-0.458-0.06L0,148c0-6.333,0-12.667,0-19c0.296-0.018,0.59-0.044,0.884-0.078
		C0.896,135.301,0.908,141.679,0.919,148.058z"/>
	<path style="fill:#F2D3A8;" d="M1419.931,391.098c4.026,0.254,8.158-0.904,12.069,0.902c-4,0-8,0-12,0
		C1420.039,391.695,1420.017,391.394,1419.931,391.098z"/>
	<path style="fill:#1A1B1B;" d="M564.064,259.801c-0.504-1.624-2.164-1.853-3.358-2.564c-3.017-1.795-5.813-3.825-8.366-6.254
		c-8.507-8.093-6.846-19.954,1.694-27.055c3.735-3.106,8.029-5.289,12.33-7.469c0.858-0.435,1.975-0.55,2.534-1.909
		c-2.499-1.864-5.571-2.855-8.439-4.165c-15.033-6.864-24.753-18.272-28.738-34.242c-3.496-14.01-3.077-28.105,1.594-41.798
		c4.554-13.347,13.727-22.945,25.984-29.706c10.92-6.022,22.738-8.966,35.01-10.64c13.26-1.81,26.566-1.779,39.891-1.756
		c16.831,0.029,33.663,0.007,50.494,0.007c1.655,0,3.309,0,5.646,0c0.283,9.781,0.067,19.329,0.155,29.145
		c-10,1.155-19.629-0.294-29.264,0.662c0.46,1.831,1.769,2.94,2.709,4.261c6.418,9.023,10.082,18.785,10.144,30.116
		c0.06,10.882-1.531,21.139-6.906,30.677c-8.214,14.574-20.737,23.429-36.69,27.844c-8.507,2.354-17.28,3.239-25.895,4.984
		c-5.381,1.09-10.625,2.564-15.606,4.894c-1.048,0.49-2.109,1.004-3.047,1.672c-6.068,4.321-5.984,10.51,0.863,14.163
		c8.707,4.646,18.121,7.164,27.668,9.434c11.777,2.8,23.815,4.392,35.439,7.885c8.339,2.506,16.054,6.149,23.103,11.324
		c12.489,9.17,18.411,21.695,18.462,36.872c0.047,13.872-4.627,26.1-15.087,35.642c-6.589,6.011-14.284,10.232-22.715,13.085
		c-13.95,4.721-28.235,7.369-43.031,7.037c-10.983-0.247-21.998,0.516-32.939-1.009c-17.092-2.383-33.699-6.111-47.337-17.71
		c-9.789-8.326-14.79-18.996-15.249-31.801c-0.233-6.507-0.002-12.949,2.393-19.161c3.827-9.924,10.735-17.034,19.822-22.241
		c7.546-4.324,15.669-7.098,24.109-9.022C562.388,260.788,563.475,260.929,564.064,259.801z M602.461,331.683
		c9.145,0.456,18.391-0.552,27.488-2.706c8.173-1.935,15.916-4.868,21.413-11.714c5.124-6.383,5.063-14.184-0.026-20.595
		c-1.881-2.37-4.153-4.253-6.805-5.752c-9.495-5.367-19.966-7.152-30.581-7.897c-10.943-0.767-21.918-1.21-32.913-0.24
		c-7.947,0.701-15.29,2.862-21.855,7.403c-12.05,8.336-12.592,22.128-1.325,31.376c3.932,3.227,8.45,5.208,13.301,6.493
		C581.34,330.75,591.687,332.11,602.461,331.683z M602.196,190.054c3.448,0.606,7.777-0.176,11.955-1.129
		c9.753-2.225,18.353-6.793,22.645-16.285c7.886-17.441,3.077-38.656-18.886-46.898c-8.044-3.018-16.289-3.002-24.596-1.836
		c-14.471,2.03-26.982,14.584-27.715,27.906c-0.23,4.182-0.334,8.292,0.242,12.44c1.22,8.784,5.583,15.505,13.06,20.215
		C585.738,188.775,593.29,190.282,602.196,190.054z"/>
	<path style="fill:#1A1B1C;" d="M1322.085,159.955c0.757-6.372,0.804-12.245-0.294-17.93c-1.884-9.75-8.087-15.617-17.73-18.1
		c-12.482-3.214-24.698-1.81-36.885,1.521c-12.166,3.325-23.044,9.241-33.395,16.283c-2.283,1.553-4.382,3.517-7.474,4.236
		c0-11.533,0-22.813,0-34.291c11.382-9.2,24.269-15.391,38.432-19.042c18.704-4.822,37.486-5.278,56.246-0.553
		c8.28,2.085,15.881,5.705,22.263,11.646c8.554,7.963,12.65,18.116,14.69,29.279c1.439,7.872,1.872,15.831,1.847,23.847
		c-0.076,24.163,0.024,48.326,0.049,72.489c0.004,4.001,0.103,7.987,1.23,11.873c1.233,4.251,3.214,5.51,7.736,5.105
		c3.107-0.278,5.643-1.734,8.164-3.388c2.714-1.781,5.118-4.098,8.622-5.492c0,7.247,0,14.007,0,21.238
		c-10.656,9.652-23.19,15.756-38.154,16.193c-3.639,0.106-7.251,0.189-10.901-0.771c-6.469-1.702-10.341-5.63-11.836-12.059
		c-0.299-1.286-0.632-2.563-1.004-4.066c-2.019,0.398-3.439,1.842-5.044,2.849c-10.643,6.681-21.877,12.009-34.466,13.484
		c-15.044,1.762-29.961,1.372-43.562-6.518c-11.142-6.464-17.999-16.067-19.6-29.037c-2.538-20.557,6.473-35.7,22.616-47.298
		c12.681-9.11,27.097-14.573,41.806-19.374C1297.56,168.122,1309.647,164.074,1322.085,159.955z M1322.095,183.852
		c-1.126,0.111-1.816,0.069-2.438,0.255c-12.23,3.671-24.289,7.847-35.854,13.275c-7.395,3.471-14.406,7.657-19.623,14.189
		c-10.82,13.546-3.527,33.629,13.333,36.356c16.729,2.706,31.422-2.218,44.582-12.469
		C1322.095,218.277,1322.095,201.327,1322.095,183.852z"/>
	<path style="fill:#1C1D1E;" d="M1402.973,123.779c-9.472,0-19.219,0-28.954,0c-1.146-3.147,0.566-4.801,2.094-6.497
		c11.698-12.995,23.391-25.994,35.11-38.97c8.143-9.017,16.323-18,24.304-26.798c1.775-0.548,3.222-0.656,5.136,0.067
		c0,13.264,0,26.679,0,40.611c18.837,0,37.219,0,55.887,0c0,10.609,0,20.702,0,31.472c-5.999,0.189-12.097,0.062-18.188,0.084
		c-6.163,0.022-12.326,0.005-18.489,0.005c-6.141,0-12.281,0-18.165,0c-1.283,1.182-0.865,2.423-0.866,3.528
		c-0.028,28.316-0.015,56.632-0.036,84.948c-0.004,5.519,0.558,10.947,2.192,16.237c1.685,5.455,5.025,9.091,10.713,10.722
		c12.557,3.599,24.61,1.931,36.483-2.835c2.429-0.975,4.608-2.577,7.485-3.117c0,10.977,0,21.777,0,32.904
		c-6.25,4.276-13.596,6.405-21.063,7.675c-11.704,1.99-23.599,2.032-35.289,0.132c-13-2.113-23.928-7.909-29.898-20.573
		c-2.562-5.434-4.255-11.153-5.315-17.037c-1.358-7.537-1.979-15.142-1.966-22.821c0.047-27.649-0.014-55.299-0.074-82.949
		C1404.071,128.456,1404.559,126.236,1402.973,123.779z"/>
	<path style="fill:#1C1C1D;" d="M1015.32,232.618c0,11.471,0,22.244,0,33.353c-5.926,3.694-12.661,5.836-19.618,7.473
		c-13.359,3.142-26.678,2.977-40.034-0.069c-16.579-3.78-26.522-14.061-30.655-30.426c-2.504-9.913-3.457-20.016-3.576-30.134
		c-0.327-27.829-0.234-55.664-0.307-83.496c-0.004-1.643-0.001-3.286-0.001-5.385c-9.998,0-19.733,0-29.446,0
		c-1.513-3.256,0.274-5.053,1.941-6.891c6.491-7.16,12.973-14.328,19.47-21.482c12.547-13.814,25.125-27.6,37.627-41.454
		c1.878-2.081,3.668-3.86,7.282-2.623c0,13.266,0,26.685,0,40.589c18.764,0,37.007,0,55.599,0c0,10.708,0,20.922,0,31.647
		c-18.313,0-36.565,0-54.451,0c-1.648,2.099-1.209,4.005-1.211,5.782c-0.027,25.166-0.088,50.332,0.047,75.498
		c0.038,7.142,0.365,14.307,1.854,21.349c1.71,8.086,6.599,12.489,14.811,13.912c11.9,2.063,23.128,0.202,34.028-4.587
		C1010.644,234.809,1012.58,233.881,1015.32,232.618z"/>
	<path style="fill:#E5A64F;" d="M0.919,148.058c-0.012-6.379-0.023-12.758-0.035-19.137c0.671-22.31,7.965-42.583,19.452-61.408
		c14.139-23.171,33.731-40.477,58.181-52.195c12.325-5.907,25.35-9.495,38.925-11.415c10.764-1.522,21.524-1.61,32.242-0.687
		c13.258,1.142,26.08,4.513,38.334,9.829c0.25,0.108,0.401,0.442,0.91,1.033c-4.888-0.796-9.445-1.406-13.947-2.295
		c-11.844-2.338-23.676-2.376-35.673-1.026c-15.21,1.711-29.43,6.235-42.986,13.15C81.595,31.42,69.189,41.882,58.355,54.225
		c-11.67,13.297-19.727,28.628-24.768,45.569c-3.618,12.156-5.703,24.568-5.408,37.25c0.609,26.216,8.007,50.37,23.401,71.717
		c18.734,25.977,44.06,42.379,75.075,49.982c9.205,2.256,18.651,3.277,28.139,3.092c20.01-0.39,39.112-4.609,56.876-14.134
		c1.596-0.856,3.093-2,5.04-1.974c0.131,0.122,0.261,0.244,0.391,0.368c-8.597,7.167-18.28,12.504-28.516,16.905
		c-15.263,6.562-31.235,9.608-47.813,10.21c-20.216,0.734-39.499-3.044-58.056-10.888c-16.421-6.94-30.969-16.703-43.341-29.532
		C20.241,212.946,7.583,189.691,2.849,162.33C2.028,157.588,1.199,152.865,0.919,148.058z"/>
	<path style="fill:#1C1C1D;" d="M456.537,92.508c11.882,0,23.445,0,35.324,0c0,59.765,0,119.295,0,178.791
		c-6.293,0.794-29.753,0.767-35.324-0.056C456.537,211.904,456.537,152.516,456.537,92.508z"/>
	<path style="fill:#E5A750;" d="M216.115,219.108c-6.343,5.553-14.018,8.701-21.659,11.86c-8.961,3.705-18.356,5.463-28.02,6.205
		c-26.974,2.07-50.728-5.78-71.587-22.799C76.187,199.147,64.6,179.423,60.37,155.98c-5.313-29.441,1.287-56.47,20.184-80.002
		c15.566-19.384,35.604-31.5,60.156-36.08c17.893-3.338,35.327-1.718,52.422,4.287c0.882,0.31,1.939,0.53,2.575,1.653
		c-3.762,0.733-7.257-0.666-10.733-1.225c-7.991-1.285-15.984-1.11-23.896-0.297c-9.237,0.95-18.165,3.496-26.709,7.351
		c-13.438,6.063-24.743,14.887-34.211,26.072c-9.401,11.105-15.383,23.963-18.55,38.118c-2.708,12.104-3.012,24.251-0.838,36.531
		c3.508,19.813,12.588,36.647,26.902,50.563c13.813,13.428,30.293,22.263,49.479,24.795c18.694,2.468,37.093,0.881,54.399-7.592
		c1.325-0.649,2.61-1.525,4.209-1.39L216.115,219.108z"/>
	<path style="fill:#E5A853;" d="M984.246,366.783c-0.996-13.753-1.343-61.312,0.033-74.254c5.024-0.825,10.108-0.385,15.527-0.254
		c2.156,9.863,0.189,19.703,1.233,29.351c1.681,1.062,2.974-0.026,4.23-0.606c10.878-5.019,22.227-4.717,33.679-2.991
		c3.301,0.498,6.332,1.888,9.177,3.666c5.211,3.259,7.868,7.843,7.811,14.079c-0.093,10.144-0.025,20.289-0.025,30.946
		c-5.876,0.707-11.44,0.344-16.76,0.252c-1.344-1.364-0.911-2.77-0.917-4.049c-0.038-8.328,0.024-16.657-0.033-24.985
		c-0.052-7.553-2.947-10.777-10.424-12.033c-9.527-1.6-18.396-0.051-26.716,5.148c-0.983,11.868,0.74,23.703-1.17,35.728
		C994.781,366.783,989.69,366.783,984.246,366.783z"/>
	<path style="fill:#E5A853;" d="M831.284,292.919c0.818,3.997,0.818,4.165-0.102,8.648c-14.929,0.874-30.039-0.414-45.053,0.56
		c-0.77,3.213-0.996,6.152-0.992,9.142c0.022,16.82-0.002,33.64-0.044,50.46c-0.004,1.615,0.299,3.286-0.444,5.119
		c-5.624,0.352-11.222,0.306-17.348-0.015c0-21.498,0-42.89,0-64.811c-15.572,0-30.633,0-45.554,0
		c-1.66-3.247-1.81-6.092-1.214-8.955C725.082,291.758,826.444,291.694,831.284,292.919z"/>
	<path style="fill:#E5A750;" d="M1602.597,343.844c-20.324,0-40.739,0-61.427,0c0.46,4.23,2.063,7.085,5.029,9.267
		c4.136,3.044,8.788,4.521,13.851,5.001c12.366,1.172,24.403-0.33,36.165-4.254c1.094-0.365,2.227-0.636,3.36-0.849
		c0.622-0.117,1.284-0.021,2.084-0.021c0.849,2.53,0.35,4.99,0.361,7.326c-1.409,2.345-3.645,3.046-5.885,3.665
		c-12.43,3.43-25.091,5-37.949,3.857c-9.675-0.86-18.819-3.326-26.785-9.505c-10.723-8.318-11.308-24.143-0.227-32.536
		c6.474-4.904,13.65-7.68,21.464-8.483c10.048-1.033,20.161-1.173,30.062,1.662c5.026,1.439,9.578,3.783,13.578,7.094
		C1601.656,330.518,1603.705,336.283,1602.597,343.844z M1585.091,336.725c-2.186-6.07-6.327-9.03-11.378-10.487
		c-6.804-1.963-13.879-1.924-20.64,0.021c-5.214,1.5-9.889,4.321-11.842,10.477C1555.89,337.001,1570.15,337.023,1585.091,336.725z"
		/>
	<path style="fill:#E5A750;" d="M884.604,353.184c0.191,2.82,0.44,5.426-0.226,8.161c-5.791,3.172-12.206,4.195-18.49,5.456
		c-7.694,1.543-15.555,1.751-23.353,1.133c-9.485-0.752-18.727-2.826-26.809-8.163c-8.725-5.762-12.128-16.073-8.712-25.32
		c1.823-4.935,5.47-8.287,9.844-10.861c7.14-4.203,14.926-6.213,23.197-6.64c9.629-0.496,19.165-0.348,28.352,3.051
		c8.186,3.028,14.496,7.943,16.973,16.81c0.601,2.151,0.665,4.236,0.478,6.399c-1.303,1.193-2.877,0.667-4.305,0.67
		c-16.988,0.04-33.976,0.007-50.964,0.05c-2.105,0.005-4.349-0.509-6.194,0.927c-0.802,1.245-0.321,2.24,0.285,3.299
		c3.526,6.16,9.165,9.154,15.901,9.753c12.267,1.091,24.444,0.723,36.225-3.661C879.051,353.413,881.45,352.31,884.604,353.184z
		 M824.023,336.456c9.984,1.199,39.725,0.698,43.193-0.716c-1.059-3.111-3.01-5.459-5.884-7.013
		c-9.939-5.373-20.091-4.872-30.153-0.597C827.808,329.562,825.314,332.338,824.023,336.456z"/>
	<path style="fill:#E5A750;" d="M1209.109,368.072c-9.386,0.116-17.476-1.53-25.413-4.107c-5.798-1.882-10.863-4.993-15.195-9.237
		c-6.466-6.334-6.964-16.2-1.185-23.542c2.063-2.621,4.54-4.826,7.483-6.524c8.504-4.907,17.526-7.71,27.438-7.865
		c8.297-0.13,16.535-0.304,24.583,2.189c7.211,2.234,13.924,5.281,19.52,10.561c8.378,7.904,7.474,18.746-0.794,26.233
		c-5.386,4.877-11.755,8.155-18.74,9.951C1220.71,367.298,1214.509,368.647,1209.109,368.072z M1234.274,342.186
		c-0.039-5.042-3.429-9.667-8.755-12.235c-7.223-3.482-14.846-4.711-22.742-3.864c-6.354,0.682-12.282,2.768-17.232,7.008
		c-5.944,5.091-6.212,11.747-0.82,17.35c1.746,1.815,3.654,3.409,5.946,4.456c6.906,3.156,14.035,4.336,21.694,3.449
		c5.931-0.687,11.395-2.166,16.149-5.732C1231.932,350.056,1234.544,346.87,1234.274,342.186z"/>
	<path style="fill:#E5A750;" d="M1348.186,367.946c-14.398,0.022-26.718-2.55-37.586-10.211c-5.291-3.73-8.699-8.52-8.731-15.353
		c-0.029-5.974,2.618-10.555,6.968-14.238c6.872-5.818,14.809-9.029,23.793-10.397c13.211-2.011,26.032-1.203,38.611,3.248
		c5.569,1.97,10.444,5.164,14.452,9.453c6.827,7.305,6.433,16.035,0.174,23.28c-5.786,6.698-13.488,10.041-21.8,12.192
		C1358.431,367.379,1352.7,368.287,1348.186,367.946z M1346.785,325.799c-2.322,0.138-4.71-0.016-6.95,0.486
		c-2.886,0.647-5.77,1.364-8.582,2.414c-3.552,1.326-6.501,3.39-8.829,6.245c-4.264,5.232-3.892,10.712,0.303,15.213
		c2.421,2.597,5.307,4.497,8.587,5.808c6.934,2.773,14.118,2.868,21.427,2.148c6.189-0.61,11.336-3.221,16.058-7.145
		c6.399-5.318,4.497-14.519-1.052-18.486C1361.439,327.974,1354.505,325.776,1346.785,325.799z"/>
	<path style="fill:#E5A853;" d="M1147.308,366.842c-4.997,0-10.244,0-15.385,0c-1.12-1.294-0.679-2.685-0.686-3.962
		c-0.042-7.987,0.003-15.974-0.028-23.962c-0.033-8.431-2.755-11.481-11.04-13.188c-6.374-1.313-12.526-0.366-18.622,1.277
		c-3.216,0.867-6.185,2.405-8.662,5.628c0,10.987,0,22.417,0,34.24c-5.608,0.353-10.845,0.389-16.379-0.073
		c0-16.36,0-32.565,0-49.435c5.25-0.304,10.295-0.104,14.578-0.107c2.349,1.427,1.295,3.729,3.171,4.924
		c4.583-1.147,8.867-4.06,13.837-4.526c9.254-0.867,18.603-1.779,27.552,1.562c5.347,1.996,10.224,4.984,11.832,11.132
		c0.373,1.426,0.536,2.944,0.545,4.421c0.056,9.816,0.055,19.633,0.034,29.449C1148.051,365.01,1148.243,365.9,1147.308,366.842z"/>
	<path style="fill:#E5A750;" d="M1654.331,353.512c-2.562-3.397-6.248-4.19-9.622-5.4c-6.077-2.179-12.41-3.617-18.349-6.205
		c-2.278-0.993-4.733-1.809-6.692-3.265c-6.981-5.185-7.266-11.861-0.161-17.205c3.559-2.677,7.811-3.689,12.087-4.267
		c12.491-1.687,24.756-0.398,36.971,3.203c0.832,2.781,0.563,5.525,0.406,8.396c-4.026,0.892-7.455-0.51-10.933-1.362
		c-6.468-1.583-12.988-2.359-19.636-1.501c-2.32,0.299-4.551,0.825-6.273,2.513c0.172,2.671,1.993,3.7,3.989,4.707
		c5.218,2.634,10.868,4.033,16.36,5.884c4.081,1.375,8.269,2.471,12.123,4.447c1.621,0.831,3.274,1.688,4.692,2.811
		c5.069,4.014,5.142,10.289,0.211,14.599c-2.933,2.564-6.5,3.962-10.167,5.068c-7.935,2.394-16.123,2.453-24.23,1.77
		c-6.89-0.58-13.895-1.151-20.44-4.201c-1.957-3.83-1.983-4.405-0.272-9.428c2.502-0.44,4.687,0.948,7.012,1.621
		c8.993,2.605,18.065,4.293,27.449,2.354C1651.353,357.537,1653.739,356.89,1654.331,353.512z"/>
	<path style="fill:#E5A750;" d="M965.206,319.511c1.149,3.131,0.856,6.197,0.241,9.417c-2.149,0.359-3.996-0.081-5.949-0.578
		c-11.296-2.875-22.581-3.376-33.796,0.545c-2.552,0.892-4.845,2.229-6.939,3.844c-6.328,4.88-6.494,13.229-0.426,18.515
		c5.26,4.582,11.715,6.176,18.39,6.704c9.979,0.789,19.912,0.292,29.78-2.852c0.774,3.555,0.738,6.762,0.016,10.108
		c-4.853,1.72-9.825,2.225-14.722,2.571c-10.816,0.765-21.597,0.337-32.094-2.836c-6.578-1.989-12.64-4.868-17.83-9.549
		c-7.086-6.392-7.652-18.507-0.647-25.387c6.324-6.212,13.906-9.744,22.169-11.689c6.74-1.586,13.769-2.445,20.743-2.022
		C951.207,316.732,958.354,317.04,965.206,319.511z"/>
	<path style="fill:#E5A853;" d="M206.898,184.448c-17.143,11.707-45.602,12.211-65.645-7.136
		c-18.978-18.319-22.624-46.105-8.135-68.756c15.73-24.59,45.099-29.7,63.829-21.673c-5.149,0-9.728,0.022-14.307-0.004
		c-10.108-0.057-18.894,3.909-26.59,9.87c-9.84,7.621-16.688,17.5-19.193,29.998c-3.053,15.233,0.254,28.996,9.668,41.267
		c7.476,9.745,17.544,15.634,29.342,18.422c9.556,2.259,19.071,1.518,28.298-2.007C204.96,184.125,205.699,183.792,206.898,184.448z
		"/>
	<path style="fill:#E5A853;" d="M1285.558,292.441c0,25.189,0,49.585,0,74.303c-5.437,0.675-10.663,0.239-16.099,0.386
		c-0.473-3.041-1.281-5.5-1.274-8.19c0.053-20.797,0.025-41.595,0.039-62.392c0.001-1.144-0.25-2.338,0.812-4.069
		C1274.098,291.729,1279.594,291.999,1285.558,292.441z"/>
	<path style="fill:#1C1D1E;" d="M473.958,59.922c-12.128-0.369-20.199-9.198-19.922-21.416c0.226-9.994,9.431-19.714,20.866-19.161
		c11.679,0.565,20.087,9.926,19.839,20.858C494.509,50.487,485.634,60.638,473.958,59.922z"/>
	<path style="fill:#E5A853;" d="M1490.43,317.524c5.527,0,10.577,0,16,0c0,16.494,0,32.685,0,49.318
		c-5.196,0.548-10.433,0.18-16,0.206C1490.43,350.539,1490.43,334.339,1490.43,317.524z"/>
	<path style="fill:#E5A853;" d="M1507.772,302.989c-1.949,4.201-5.157,6.245-9.783,5.611c-2.379-0.326-4.938-0.53-6.975-2.247
		c-2.591-2.184-2.669-5.065-0.09-7.159C1496.075,295.012,1504.806,296.978,1507.772,302.989z"/>
	<path style="fill:#4B4949;" d="M1700.033,107.012c0.584,0.116,0.889,0.496,0.999,1.059c-6.277,6.152-12.196,6.621-18.801,1.49
		c0.305-0.242,0.611-0.484,0.916-0.726C1689.217,112.312,1694.882,112.042,1700.033,107.012z"/>
	<path style="fill:#4B4949;" d="M1699.991,89.022c-0.105,0.565-0.45,0.884-1.009,0.984c-1.41-0.794-2.737-1.85-4.247-2.33
		c-3.415-1.084-6.895-1.706-9.787,1.365c0,0,0.097-0.095,0.097-0.095c-0.635,0.072-1.269,0.144-1.904,0.215
		c-0.251-0.251-0.501-0.502-0.752-0.752C1689.369,83.65,1693.66,83.799,1699.991,89.022z"/>
	<path style="fill:#4B4949;" d="M1677.794,95.571c-0.074-2.49,1.161-4.283,3.049-5.729c0.307,0.292,0.614,0.584,0.921,0.875
		c-1.367,1.912-2.536,3.919-3.011,6.26C1678.433,96.508,1678.114,96.04,1677.794,95.571z"/>
	<path style="fill:#5A5758;" d="M1677.794,95.571c0.32,0.469,0.64,0.938,0.96,1.407c0.023,1.68,0.046,3.361,0.068,5.041
		c-0.427,0.035-0.853,0.07-1.28,0.105C1676.854,99.91,1676.571,97.711,1677.794,95.571z"/>
	<path style="fill:#4B4949;" d="M1677.542,102.124c0.427-0.035,0.853-0.07,1.28-0.105c0.484,1.248,0.967,2.497,1.451,3.745
		c-0.289,0.311-0.577,0.622-0.866,0.933C1678.149,105.432,1677.728,103.826,1677.542,102.124z"/>
	<path style="fill:#4B4949;" d="M1682.232,109.561c-0.547-0.387-1.227-0.643-1.385-1.412c0.267-0.265,0.534-0.531,0.801-0.796
		c0.5,0.494,1,0.988,1.5,1.482C1682.842,109.077,1682.537,109.319,1682.232,109.561z"/>
	<path style="fill:#4B4949;" d="M1680.843,89.842c0.516-0.477,1.031-0.955,1.547-1.432c0.251,0.251,0.501,0.502,0.752,0.752
		c-0.459,0.518-0.918,1.037-1.377,1.555C1681.457,90.425,1681.15,90.134,1680.843,89.842z"/>
	<path style="fill:#4B4949;" d="M1680.847,108.15c-0.796-0.171-1.042-0.887-1.439-1.452c0.289-0.311,0.577-0.622,0.866-0.933
		c0.458,0.53,0.916,1.06,1.375,1.589C1681.38,107.619,1681.114,107.884,1680.847,108.15z"/>
	<path style="fill:#E5A750;" d="M215.758,218.762c0.192-0.466,0.62-0.87,0.97-0.44c0.411,0.504-0.24,0.637-0.613,0.785
		L215.758,218.762z"/>
	<path style="fill:#E5A64F;" d="M216.71,245.726c0.185-0.418,0.563-0.773,0.899-0.391c0.388,0.442-0.134,0.63-0.507,0.759
		C216.972,245.97,216.841,245.848,216.71,245.726z"/>
	<polygon style="fill:#E5A750;" points="218.629,217.531 218.301,217.597 218.342,217.361 	"/>
	<path style="fill:#3D3B3B;" d="M1684.948,89.042c1.799,1.124,3.863,0.411,5.799,0.83c5.191,1.122,6.204,2.713,4.198,7.552
		c-0.312,0.754-0.754,1.455-1.136,2.182c0.762,2.43,2.541,4.337,2.919,7.169c-4.704,0.008-3.646-5.996-7.196-6.954
		c-1.884,2.041-0.436,4.644-1.492,6.703c-0.74,0.546-1.52,0.534-2.583-0.037c-0.747-5.704,0.117-11.649-0.411-17.541
		L1684.948,89.042z M1689.136,97.233c1.933-0.189,4.043-0.035,3.838-2.676c-0.207-2.674-2.172-2.756-4.301-2.329
		C1688.158,93.868,1688.13,95.278,1689.136,97.233z"/>
</g>
</svg>
