<?xml version="1.0" encoding="iso-8859-1"?>
<!-- Generator: Adobe Illustrator 27.0.0, SVG Export Plug-In . SVG Version: 6.00 Build 0)  -->
<svg version="1.1" id="Layer_1" xmlns="http://www.w3.org/2000/svg" xmlns:xlink="http://www.w3.org/1999/xlink" x="0px" y="0px"
	 viewBox="0 0 1608 1015" style="enable-background:new 0 0 1608 1015;" xml:space="preserve">
<g>
	<path style="fill:#0E7AB4;" d="M1111,0c-0.055,1.996-0.159,3.991-0.159,5.987c-0.007,198.795-0.007,397.59-0.007,596.385
		c0,1.978,0,3.956,0,6.281c-202.946,0-405.628,0-608.89,0c0-1.889,0-3.829,0-5.769c0.002-186.797,0.003-373.595,0.009-560.392
		c0-14.164,0.031-28.327,0.047-42.491C705,0,908,0,1111,0z M899.275,257.97c-2.124,8.099-4.19,15.606-8.077,22.469
		c-7.651,13.508-16.667,26.05-26.978,37.623c-9.973,11.193-20.553,21.791-31.521,32.041c-14.007,13.089-28.714,25.324-43.952,36.887
		c-23.328,17.702-47.579,34.036-73.849,47.186c-11.894,5.954-23.987,11.36-36.997,14.382c-4.375,1.016-8.737,2.392-14.06,2.233
		c16.387-15.45,32.32-30.313,48.071-45.367c15.657-14.963,31.742-29.489,47.927-45.55c-11.195,1.223-21.087,2.262-30.967,3.394
		c-13.544,1.552-27.086,3.026-40.756,2.84c-4.671-0.064-9.314-0.303-13.884-1.238c-2.108-0.431-4.503-0.394-6.294-2.425
		c8.125-5.777,16.49-10.536,25.01-15.029c19.841-10.463,39.699-20.881,58.534-33.138c11.314-7.363,22.414-14.958,31.977-24.562
		c2.917-2.929,5.64-6.059,8.271-9.916c-12.064-27.873-24.155-55.806-36.441-84.192c-1.759,1.531-3.175,2.641-4.447,3.896
		c-2.725,2.687-5.467,5.347-7.809,8.412c-7.508,9.827-13.019,20.832-18.926,31.61c-8.865,16.172-17.609,32.421-28.15,47.598
		c-11.683,16.823-25.515,31.443-42.721,42.857c-33.385,22.145-66.58,44.577-99.845,66.903c-6.876,4.615-13.715,9.284-20.116,13.62
		c0,56.171,0,111.733,0,167.27c18.246,1.109,542.476,0.562,546.441-0.548c1.047-20.345,0.516-163.959-0.689-168.247
		c-25.732,13.825-51.418,27.625-77.83,41.816c1.975-25.497,3.877-50.046,5.806-74.954c-4.393,0-8.194-0.02-11.995,0.006
		c-3.244,0.022-6.143,1.138-8.924,2.755c-14.094,8.196-27.702,17.133-41.005,26.554c-5.396,3.822-10.987,7.369-16.544,11.077
		c-1.073-1.81-0.306-3.135,0.174-4.522c2.654-7.683,5.629-15.238,8.772-22.734c4.36-10.397,8.957-20.7,12.731-31.337
		c1.53-4.312,2.499-8.58,0.533-13.059c-2.4-5.468-4.464-11.091-7.024-16.48c-7.993-16.826-17.289-32.95-27.222-48.686
		C911.716,271.837,906.283,264.661,899.275,257.97z M533.157,31.211c0,90.411,0,180.446,0,271.657
		c31.548-33.823,62.394-66.894,93.14-99.858c18.242,7.24,36.088,14.323,54.055,21.454c24.443-27.123,48.609-53.939,72.636-80.601
		c0.847,0,1.348-0.067,1.823,0.016c0.65,0.114,1.297,0.296,1.915,0.53c8.274,3.133,15.017,8.468,21.049,14.781
		c10.372,10.856,19.214,22.964,28.286,34.873c10.304,13.526,20.897,26.794,33.628,38.161c9.424,8.414,20.199,14.459,32.722,18.02
		c12.156-15.778,23.633-32.002,36.109-47.567c6.393,4.578,12.015,9.22,17.012,14.616c8.488,9.166,16.26,18.937,24.287,28.493
		c6.97,8.299,14.314,16.225,22.82,23.004c9.359,7.458,20.077,12.288,31.283,16.123c20.485,7.011,36.937,19.402,49.63,36.868
		c5.864,8.069,11.607,16.228,17.556,24.234c2.383,3.206,4.927,6.37,8.523,8.683c0-108.068,0-215.673,0-323.488
		C897.447,31.211,715.517,31.211,533.157,31.211z M533.124,377.233c35.646-34.187,70.773-67.876,106.509-102.149
		c-24.12,3.227-89.663,40.796-106.509,60.509C533.124,349.33,533.124,362.9,533.124,377.233z"/>
	<path style="fill:#0D1E32;" d="M1608,870c-34.321-0.027-68.641-0.046-102.962-0.1c-1.786-0.003-3.628,0.357-5.606-0.409
		c0-48.281,0-96.524,0-145.089c35.65,0,71.215,0,107.116,0c0,7.324,0,14.708,0,22.556c-27.083,0-54.142,0-81.395,0
		c0,13.049,0,25.64,0,38.69c24.03,0,47.948,0,72.135,0c0,7.701,0,14.945,0,22.494c-24.002,0.441-47.809-0.407-71.958,0.644
		c0,12.566,0,25.114,0,38.213c27.481,0,55.076,0,82.671,0C1608,854.667,1608,862.333,1608,870z"/>
	<path style="fill:#112134;" d="M1099,1015c-1.288-1.821-3.376-0.965-5.056-1.421c-17.628-4.782-28.577-16.084-33.28-33.617
		c-4.899-18.263,1.312-39.831,17.522-51.577c9.834-7.126,20.963-9.682,32.97-8.741c8.951,0.701,17.14,3.634,24.661,8.51
		c1.957,1.269,3.808,2.638,5.498,4.784c-3.215,3.738-6.446,7.494-9.761,11.349c-2.178-0.862-3.663-2.453-5.376-3.695
		c-7.724-5.604-16.278-8.35-25.784-6.606c-8.689,1.594-15.241,6.693-19.374,14.364c-7.404,13.742-6.891,27.487,1.702,40.542
		c9.158,13.914,25.957,15.366,38.378,8.46c3.745-2.082,7.117-4.834,10.332-7.054c3.32,3.326,6.587,6.597,10.236,10.253
		c-4.629,5.095-10.941,8.746-17.943,11.483c-3.182,1.244-6.737,1.164-9.725,2.967C1109,1015,1104,1015,1099,1015z"/>
	<path style="fill:#4D505F;" d="M0,724c0.361,0.103,0.723,0.206,1.084,0.309C1.083,772.769,1.082,821.23,1.081,869.69
		C0.721,869.794,0.36,869.897,0,870C0,821.333,0,772.667,0,724z"/>
	<path style="fill:#0B1E31;" d="M769.048,824.399c0-33.951,0-66.756,0-99.509c3.61-0.997,19.212-1.174,24.97-0.295
		c0,48.217,0,96.468,0,145.021c-6.972,0-13.901,0-21.296,0c-26.135-33.908-52.5-68.114-79.561-103.223c0,35.131,0,69.024,0,103.22
		c-8.331,0-16.404,0-24.799,0c0-48.322,0-96.682,0-145.287c7.692,0,15.299,0,23.547,0
		C717.17,757.096,742.73,790.256,769.048,824.399z"/>
	<path style="fill:#0B1E31;" d="M973.122,820.144c-10.665,0-21.101,0-32.008,0c0,16.607,0,32.997,0,49.576
		c-8.578,0-16.686,0-25.164,0c0-48.389,0-96.746,0-145.109c1.205-0.93,2.577-0.506,3.848-0.508c19.486-0.03,38.972,0,58.458-0.03
		c8.54-0.013,16.851,1.182,25.034,3.738c22.112,6.907,33.279,27.668,30.276,49.46c-2.54,18.431-12.817,30.909-30.572,36.992
		c-0.933,0.32-1.824,0.765-3.208,1.354c12.798,17.853,25.525,35.608,38.312,53.446c-0.936,0.259,0.062,0.055-0.36,0.57
		c-0.087,0.106-0.291,0.163-0.442,0.163c-9.481,0.008-18.961,0.007-28.88,0.007C996.714,853.338,984.892,836.705,973.122,820.144z
		 M941.473,746.823c0,17.268,0,33.662,0,50.187c14.518-0.133,28.675,0.314,42.825-0.797c4.098-0.322,7.891-1.183,11.363-3.245
		c7.872-4.674,12.323-11.47,12.332-20.817c0.009-9.593-3.819-16.98-12.434-21.703c-4.275-2.344-8.943-2.146-13.538-2.741
		C968.571,745.968,955.108,748.178,941.473,746.823z"/>
	<path style="fill:#0E1F33;" d="M1154.286,869.921c0-48.681,0-96.914,0-145.271c0.375-0.161,0.808-0.511,1.241-0.511
		c17.484,0,34.971-0.122,52.452,0.119c9.475,0.131,18.825,1.284,27.897,4.511c27.309,9.712,43.769,28.448,48.217,57.29
		c2.972,19.274-1.109,37.114-12.286,52.999c-11.352,16.133-27.458,25.122-46.629,28.922c-7.545,1.496-15.171,1.785-22.837,1.78
		c-14.322-0.009-28.644,0.101-42.966,0.16C1157.748,869.927,1156.121,869.921,1154.286,869.921z M1180.101,746.893
		c-0.769,12.632-0.452,95.73,0.391,100.124c12.228-0.3,24.541,0.852,36.777-1.027c17.413-2.674,30.064-11.644,36.875-28.211
		c4.164-10.128,4.973-20.561,2.931-31.279c-3.958-20.78-19.488-36.157-41.79-38.726
		C1203.631,746.432,1192.043,748.085,1180.101,746.893z"/>
	<path style="fill:#0D1E32;" d="M125.757,796.337c0.445-23.996,9.943-44.493,30.08-59.644c9.44-7.103,20.119-11.555,31.761-13.512
		c19.037-3.201,37.12-0.401,53.782,9.553c17.064,10.195,28.324,25.022,33.047,44.347c6.185,25.304,1.635,48.56-15.192,68.775
		c-11.726,14.087-27.034,22.229-45.127,25.121c-17.079,2.73-33.556,0.74-48.898-7.359c-21.36-11.276-34.036-29.054-38.305-52.887
		C126.104,806.259,126.038,801.798,125.757,796.337z M250.197,797.349c-0.455-17.048-6.183-31.553-19.753-42.39
		c-16.117-12.872-40.432-13.51-57.083-1.163c-26.961,19.991-27.142,60.952-4.821,82.215c19.627,18.696,50.352,16.482,67.037-1.098
		C245.583,824.37,249.755,811.571,250.197,797.349z"/>
	<path style="fill:#0E1F33;" d="M1450.362,741.762c-5.203,6.107-10.376,12.178-15.63,18.344c-4.034-2.646-7.764-5.374-11.75-7.653
		c-11.018-6.302-22.993-9.031-35.492-6.974c-17.488,2.878-29.446,13.357-35.938,29.62c-7.208,18.057-6.134,35.821,4.274,52.497
		c7.465,11.96,18.503,18.613,32.474,20.751c15.61,2.389,29.513-1.76,42.538-9.87c0-9.283,0-18.214,0-27.558
		c-12.139,0-24.074,0-36.693,0c-0.177-6.955-0.06-13.526-0.079-20.053c3.64-0.976,53.148-1.292,61.574-0.404
		c0,19.725,0,39.485,0,59.645c-9.729,8.318-21.083,14.364-33.634,18.085c-20.813,6.17-41.364,5.625-61.228-3.622
		c-19.605-9.126-31.992-24.72-37.506-45.329c-6.647-24.843-2.754-48.189,12.888-68.974c10.284-13.665,24.17-22.271,40.771-25.971
		c26.065-5.81,50.122-1.163,71.596,15.17C1449.181,739.964,1449.931,740.386,1450.362,741.762z"/>
	<path style="fill:#0E1F33;" d="M444.512,741.407c-5.48,6.454-10.644,12.535-15.881,18.703c-4.036-2.641-7.75-5.422-11.774-7.641
		c-12.672-6.989-26.168-9.793-40.343-5.948c-14.951,4.055-25.239,13.869-30.913,28.118c-7.795,19.577-6.319,38.573,6.121,55.842
		c8.652,12.009,21.015,17.974,35.877,18.552c13.562,0.528,25.92-3.031,37.211-10.807c0-8.999,0-17.928,0-27.41
		c-12.242,0-24.308,0-36.587,0c0-7.129,0-13.706,0-20.51c20.461,0,40.715,0,61.299,0c0,19.825,0,39.578,0,59.674
		c-4.007,3.787-8.838,7.013-13.915,9.846c-10.822,6.041-22.309,10.51-34.664,11.724c-25.503,2.506-48.7-2.8-67.057-22.088
		c-10.883-11.435-16.785-25.263-18.935-40.879c-1.643-11.933-0.708-23.582,2.999-34.956c8.508-26.106,26.211-42.916,52.812-49.253
		c26.156-6.231,50.443-1.215,71.977,15.399C443.249,740.167,443.692,740.647,444.512,741.407z"/>
	<path style="fill:#0E1F33;" d="M631.813,869.722c-9.219,0-17.99,0-27.018,0c-4.829-11.243-9.654-22.477-14.509-33.781
		c-22.885,0-45.505,0-68.549,0c-4.864,11.129-9.76,22.333-14.739,33.727c-8.614,0-17.174,0-26.177,0
		c21.257-48.608,42.368-96.883,63.564-145.351c7.805,0,15.596,0,23.828,0C589.315,772.562,610.491,820.975,631.813,869.722z
		 M556.447,756.561c-0.361-0.014-0.723-0.028-1.084-0.042c-7.979,18.672-15.958,37.344-24.052,56.283c16.861,0,32.97,0,49.424,0
		C572.555,793.859,564.501,775.21,556.447,756.561z"/>
	<path style="fill:#091C30;" d="M1.081,869.69c0.001-48.461,0.002-96.921,0.003-145.382c7.957-0.417,15.915-0.266,23.874-0.084
		c0.284,0.272,0.568,0.544,0.853,0.817c0.051,1.829,0.145,3.658,0.146,5.487c0.005,36.82,0,73.64-0.003,110.459
		c0,1.811,0,3.621,0,5.826c25.281,0,50.351,0,75.877,0c0,7.64,0,14.896,0,22.152c-0.291,0.274-0.583,0.548-0.874,0.821
		c-14.817,0.043-29.634,0.105-44.451,0.124c-16.818,0.022-33.636,0.011-50.453-0.005C4.395,869.904,2.738,869.766,1.081,869.69z"/>
	<path style="fill:#102033;" d="M586.278,1012.58c0-30.3,0-60.224,0-90.367c4.978,0,9.76,0,14.965,0
		c15.538,20.086,31.28,40.436,47.023,60.787c0.301-0.075,0.602-0.149,0.903-0.224c0-20.118,0-40.235,0-60.562
		c5.678-0.35,10.76-0.297,15.927-0.074c0,30.325,0,60.408,0,90.636c-4.422,0-8.568,0-13.269,0
		c-16.247-20.95-32.719-42.191-49.748-64.151c0,21.823,0,42.718,0,63.955C596.752,1012.58,591.701,1012.58,586.278,1012.58z"/>
	<path style="fill:#102033;" d="M967.212,922.189c5.658,0,10.611,0,15.782,0c0,30.13,0,60.065,0,90.362
		c-4.149,0.834-8.435,0.085-12.993,0.481c-16.467-21.233-32.943-42.478-50.069-64.56c0,22.04,0,42.975,0,64.178
		c-5.227,0-10.161,0-15.134,0c-1.026-3.643-1.464-74.973-0.5-90.349c4.868-0.643,9.792-0.211,14.786-0.242
		c15.799,20.417,31.539,40.759,47.279,61.101c0.283-0.118,0.565-0.237,0.848-0.355C967.212,962.733,967.212,942.661,967.212,922.189
		z"/>
	<path style="fill:#112134;" d="M1103.755,724.076c0,48.736,0,96.96,0,145.516c-8.276,0-16.521,0-24.815,0
		c-0.989-3.353-1.436-134.037-0.417-145.202c4.006-0.666,8.13-0.212,12.219-0.295
		C1094.894,724.011,1099.049,724.076,1103.755,724.076z"/>
	<path style="fill:#142335;" d="M1215.477,1012.664c0-30.179,0-60.093,0-90.342c22.253,0,44.472,0,66.965,0
		c0.629,4.18,0.265,8.439,0.178,13.321c-17.019,0-33.895,0-51.001,0c0,8.388,0,16.155,0,24.454c14.886,0,29.792,0,45,0
		c0,4.933,0,9.35,0,14.086c-14.848,0.799-29.777-0.731-44.962-0.008c0,8.232,0,16.294,0,24.754c17.129,0,34.233,0,51.514,0
		c0.298,4.828,0.366,9.259-0.027,13.735C1260.517,1012.664,1238.109,1012.664,1215.477,1012.664z"/>
	<path style="fill:#112134;" d="M832.031,1012.785c-5.904,0-11.209,0-16.878,0c-3.103-7.521-6.235-15.114-9.354-22.675
		c-14.296,0-28.266,0-42.566,0c-3.15,7.535-6.318,15.115-9.467,22.647c-5.426,0-10.558,0-16.365,0
		c13.335-30.385,26.501-60.382,39.743-90.553c4.959,0,9.906,0,15.138,0C805.428,952.164,818.601,982.183,832.031,1012.785z
		 M799.855,976.078c-5.214-12.106-10.16-23.591-15.37-35.69c-5.092,12.167-10.448,23.532-15.054,35.69
		C779.727,976.078,789.299,976.078,799.855,976.078z"/>
	<path style="fill:#122134;" d="M347.878,1012.54c0-29.977,0-59.923,0-90.21c22.354,0,44.722,0,67.265,0c0,4.262,0,8.537,0,13.162
		c-16.956,0-33.71,0-51.196,0c-0.015,4.727-0.034,9.141-0.041,13.555c-0.007,4.31-0.001,8.62-0.001,13.408
		c15.211,0,30.097,0,45.25,0c0.919,4.832,0.24,9.237,0.504,14.042c-15.279,0-30.189,0-45.528,0c0,12.155,0,23.908,0,36.043
		C358.654,1012.54,353.582,1012.54,347.878,1012.54z"/>
	<path style="fill:#1E293A;" d="M489.598,922.146c5.351,0,10.464,0,15.844,0c0,30.201,0,60.233,0,90.531c-5.293,0-10.386,0-15.844,0
		C489.598,982.69,489.598,952.663,489.598,922.146z"/>
	<path style="fill:#4D505F;" d="M25.811,725.041c-0.284-0.272-0.568-0.544-0.853-0.817
		C25.703,724.015,25.962,724.314,25.811,725.041z"/>
	<path style="fill:#4D505F;" d="M100.956,869.787c0.291-0.274,0.583-0.548,0.874-0.821
		C101.968,869.695,101.708,870.003,100.956,869.787z"/>
</g>
</svg>
