<?xml version="1.0" encoding="iso-8859-1"?>
<!-- Generator: Adobe Illustrator 27.0.0, SVG Export Plug-In . SVG Version: 6.00 Build 0)  -->
<svg version="1.1" id="Layer_1" xmlns="http://www.w3.org/2000/svg" xmlns:xlink="http://www.w3.org/1999/xlink" x="0px" y="0px"
	 viewBox="0 0 1532.044 456.774" style="enable-background:new 0 0 1532.044 456.774;" xml:space="preserve">
<g>
	<path style="fill:#727376;" d="M342.044,456.774c0-31.468,0-62.935,0-94.592c-3.216-2.817-6.453-5.653-9.885-8.659
		c1.798-2.61,4.393-3.987,6.739-5.726c2.67,1.239,4.509,3.475,7.126,5.126c3.189-3.198,6.813-5.426,11.411-6.416
		c9.658-2.08,23.054,4.054,23.248,17.657c0.235,16.486,0.307,32.982-0.035,49.464c-0.222,10.682-7.909,17.709-18.681,18.022
		c-3.135,0.091-6.275,0.014-9.923,0.014c0,8.593,0,16.852,0,25.111C348.711,456.774,345.377,456.774,342.044,456.774z
		 M352.753,422.624c2.648,0,5.314,0.175,7.948-0.035c6.463-0.516,10.545-3.914,10.309-10.826c-0.232-6.82-0.051-13.653-0.051-20.481
		c0-8.826-0.056-17.652,0.028-26.477c0.033-3.393-0.857-6.258-3.723-8.237c-3.286-2.269-6.812-2.595-10.359-0.725
		c-3.331,1.756-5.053,4.374-5.021,8.426c0.145,18.483,0.067,36.968,0.079,55.453C351.963,420.53,351.831,421.379,352.753,422.624z"
		/>
	<path style="fill:#727376;" d="M1532.044,419.774c-1.553,0.447-1.454,2.038-2.032,3.103c-6.418,11.817-26.243,12.552-33.902,1.271
		c-2.43-3.579-2.78-7.645-2.713-12.181c3.146-0.319,6.041-0.292,8.651-0.047c0.968,0.995,0.704,1.87,0.756,2.671
		c0.371,5.676,4.485,9.399,10.155,9.177c5.436-0.214,9.087-4.043,9.162-9.695c0.051-3.825,0.01-7.651,0.01-11.838
		c-9.56-8.507-19.226-17.107-28.88-25.697c0.331-5.413-0.059-10.507,0.474-15.679c0.861-8.364,7.984-13.991,15.629-15.024
		c10.189-1.377,17.565,2.908,21.934,12.407c0.112,0.242,0.497,0.359,0.755,0.534c0,2.667,0,5.333,0,8
		c-3.216-0.517-6.571,0.594-9.916-0.689c0-1.293,0.075-2.453-0.013-3.6c-0.348-4.509-4.898-8.685-9.354-8.639
		c-5.126,0.054-9.686,3.913-9.907,8.625c-0.17,3.622-0.034,7.258-0.034,10.669c9.978,8.41,19.602,16.522,29.225,24.634
		C1532.044,405.108,1532.044,412.441,1532.044,419.774z"/>
	<path style="fill:#6F7074;" d="M1240.507,275.871c-16.022,0.483-30.215-2.755-43.663-9.713
		c-16.404-8.487-28.412-21.197-36.791-37.444c-6.545-12.69-9.906-26.257-11.276-40.492c-1.673-17.377,0.098-34.227,6.706-50.337
		c10.741-26.186,29.869-43.506,56.876-52.017c12.527-3.948,25.268-4.898,38.375-3.29c26.399,3.238,47.413,15.575,63.129,36.785
		c9.267,12.507,14.182,26.882,16.3,42.299c0.981,7.142,1.133,14.281,0.81,21.419c-1.048,23.169-7.592,44.453-22.632,62.543
		c-12.105,14.561-27.686,23.66-46.015,28.045C1254.871,275.452,1247.271,276.344,1240.507,275.871z M1184.809,175.543
		c0.065,8.479,0.162,15.119,1.214,21.717c1.626,10.202,4.01,20.176,9.056,29.291c6.347,11.466,15.227,20.06,28.135,23.768
		c9.576,2.751,19.258,3.125,29.007,0.871c6.523-1.508,12.625-3.872,18.049-7.952c9.967-7.497,15.901-17.671,19.747-29.245
		c4.782-14.392,5.753-29.26,5.076-44.275c-0.543-12.041-3.105-23.669-8.371-34.558c-5.375-11.114-13.335-19.881-24.76-24.954
		c-10.437-4.634-21.362-5.494-32.634-3.596c-17.617,2.966-29.145,13.369-36.456,29.123
		C1186.739,148.941,1184.577,162.925,1184.809,175.543z"/>
	<path style="fill:#6F7074;" d="M659.744,237.745c3.008,5.601,6.056,11.276,9.22,17.167c-7.22,5.864-15.318,10.057-23.701,13.561
		c-14.569,6.09-29.771,9.265-45.663,8.134c-19.731-1.405-38.241-6.438-54.208-18.737c-13.887-10.696-22.897-24.756-28.357-41.267
		c-5.402-16.338-6.974-33.206-5.785-50.194c1.59-22.728,9.431-43.058,26.137-59.218c13.148-12.718,28.888-20.438,46.957-23.36
		c12.275-1.985,24.517-2.038,36.53,1.491c19.623,5.764,32.95,18.701,41.154,37.13c6.3,14.152,9.134,29.068,9.107,44.542
		c-0.008,4.786-0.001,9.573-0.001,14.648c-41.787,0-83.046,0-124.465,0c-1.528,4.886-0.173,9.511,0.565,13.924
		c2.821,16.881,10.203,31.499,23.161,42.977c10.046,8.899,21.813,13.811,35.247,14.326c18.445,0.708,35.45-4.115,51.103-13.831
		c0.565-0.351,1.136-0.696,1.731-0.991C658.758,237.905,659.105,237.89,659.744,237.745z M641.029,159.406
		c-0.029-12.35-2.103-23.916-8.257-34.517c-2.518-4.338-5.685-8.132-9.771-11.184c-10.964-8.191-23.221-9.321-36.017-6.372
		c-17.977,4.144-28.917,16.079-34.827,33.018c-2.112,6.053-3.737,12.298-2.979,19.055
		C579.833,159.406,610.207,159.406,641.029,159.406z"/>
	<path style="fill:#6F7074;" d="M1401.143,271.776c-10.499,0-20.311,0.003-30.122-0.005c-0.805-0.001-1.609-0.067-2.683-0.116
		c0-61.782,0-123.356,0-185.28c10.654,0,21.38,0,32.517,0c0,7.215,0,14.471,0,22.496c3.471-2.914,6.284-5.369,9.195-7.703
		c12.753-10.224,27.427-15.905,43.463-18.465c12.202-1.948,24.21-1.095,35.953,2.514c20.447,6.283,32.385,20.564,37.424,40.961
		c2.076,8.405,3.057,17.006,3.074,25.658c0.075,38.986,0.039,77.973,0.044,116.959c0,0.802,0,1.603,0,2.692
		c-11.052,0-21.783,0-33.088,0c0-1.808,0-3.582,0-5.356c0-34.655,0.054-69.31-0.041-103.964c-0.023-8.303-0.654-16.594-2.729-24.695
		c-4.051-15.815-13.326-26.514-29.738-30.046c-21.424-4.611-44.128,2.559-55.668,22.366c-5.034,8.64-7.492,18.106-7.528,28.044
		c-0.129,35.987-0.065,71.975-0.073,107.962C1401.142,267.602,1401.143,269.404,1401.143,271.776z"/>
	<path style="fill:#6F7074;" d="M341.216,272.157c0-90.825,0-181.381,0-272.157c10.952,0,21.682,0,32.795,0
		c0,79.613,0,158.999,0,238.957c43.235,0,86.091,0,128.79,0c1.074,4.008,1.276,27.253,0.433,32.744
		C499.723,272.767,352.56,273.223,341.216,272.157z"/>
	<path style="fill:#6F7074;" d="M775.461,194.649c-19.262,27.283-38.317,54.273-57.5,81.445
		c-8.964-5.145-17.554-10.075-26.765-15.361c23.012-29.116,45.739-57.872,68.794-87.043c-19.211-25.246-38.297-50.327-57.885-76.068
		c10.982-4.986,21.427-9.728,32.039-14.547c15.735,22.804,31.114,45.092,46.896,67.964c16.365-22.622,32.567-45.018,49.038-67.785
		c8.918,3.25,17.335,7.304,26.31,11.312c-19.836,25.737-39.402,51.125-59.328,76.979c23.682,29.503,47.283,58.905,71.305,88.833
		c-9.667,5.666-19.179,11.241-29.229,17.131C817.911,249.889,796.792,222.408,775.461,194.649z"/>
	<path style="fill:#6F7074;" d="M1125.21,238.653c3.481,5.93,5.818,12.114,8.735,17.881c-0.508,1.858-2.151,2.234-3.325,3.026
		c-12.707,8.576-26.587,14.192-41.827,16.266c-20.066,2.731-39.472,0.078-57.942-8.075c-18.882-8.335-32.264-22.407-40.969-41.089
		c-7.728-16.584-11.171-34.114-10.608-52.227c0.713-22.937,8.404-43.475,23.523-61.036c14.176-16.466,32.542-25.26,53.427-29.577
		c9.845-2.035,19.825-2.552,29.783-1.884c15.635,1.049,30.313,5.278,43.508,15.08c-3.338,6.527-7.38,12.531-11.182,18.78
		c-2.657-0.158-4.827-1.463-7.079-2.4c-9.286-3.864-18.939-6.336-28.971-6.511c-32.321-0.564-58.343,18.269-65.254,50.713
		c-2.128,9.988-2.363,20.022-1.251,30.217c1.277,11.702,4.132,22.803,9.782,33.159c9.322,17.086,23.686,26.871,42.844,29.887
		c18.969,2.987,36.644-0.56,53.175-10.191C1122.706,240.018,1123.859,239.404,1125.21,238.653z"/>
	<path style="fill:#AFD175;" d="M116.066,408.593c-4.571-0.639-9.161-1.168-13.709-1.944c-6.371-1.087-12.794-1.667-19.216-2.284
		c-0.029-1.998-0.083-3.997-0.083-5.995c-0.005-51.98-0.009-103.96-0.002-155.94c0.006-44.149,0.028-88.299,0.043-132.448
		c10.506,1.406,20.854,3.659,31.216,5.838c0.942,0.198,1.827,0.671,2.738,1.017c-0.003,94.821-0.011,189.643,0.021,284.464
		C117.074,403.808,116.918,406.234,116.066,408.593z"/>
	<path style="fill:#BED98F;" d="M83.099,109.983c-0.015,44.149-0.036,88.299-0.043,132.448c-0.007,51.98-0.003,103.96,0.002,155.94
		c0,1.998,0.054,3.997,0.083,5.995c-6.67-0.963-13.438-0.218-20.131-1.353c-3.882-0.658-7.938-0.289-11.916-0.382
		c-0.013-0.5-0.037-0.999-0.037-1.499c-0.002-96.297,0.005-192.594-0.054-288.891c-0.001-2.22,0.542-4.222,1.098-6.281
		C62.432,107.312,72.915,107.492,83.099,109.983z"/>
	<path style="fill:#D5E5B6;" d="M35.05,402.751c-7.494,0.628-14.987,1.256-22.341,1.873c-0.298-0.647-0.556-0.941-0.545-1.224
		c0.419-10.793-1.187-21.504-1.227-32.296c-0.035-9.594-0.487-19.23-1.149-28.785c-0.517-7.458-0.02-14.934-0.852-22.315
		c-0.933-8.277-0.159-16.611-1.091-24.796c-0.832-7.308-0.11-14.6-0.897-21.82c-0.919-8.439-0.181-16.942-1.117-25.292
		c-0.783-6.978-0.077-13.937-0.874-20.821c-1.016-8.77-0.204-17.601-1.123-26.292c-0.685-6.474-0.155-12.928-0.855-19.323
		c-0.959-8.764-0.19-17.605-1.132-26.288c-0.883-8.14,0.138-16.303-0.969-24.302c-1.081-7.807-0.458-15.56-0.812-23.328
		c-0.051-1.123-0.298-2.316,0.703-3.97c11.21,0.494,22.769-1.019,34.283,1.03C35.05,204.118,35.05,303.434,35.05,402.751z"/>
	<path style="fill:#ADD8EC;" d="M259.059,282.783c-4.474,2.702-9.744,3.327-14.416,5.604c-4.375,2.132-9.168,3.385-13.252,6.193
		c-0.472,0.324-1.281,0.157-1.934,0.218c-0.08-1.821-0.229-3.643-0.23-5.464c-0.014-36.419-0.01-72.838-0.01-109.256
		c0-1.818,0-3.636,0-5.268c-1.261-1.486-2.327-2.742-3.392-3.997c0.823-0.06,1.677-0.055,2.23-1.251c0-0.543,0-1.368,0-2.194
		c0-46.731,0-93.462,0-140.193c0-0.998,0.055-2-0.024-2.992c-0.103-1.297-0.961-2.052-2.089-2.548
		c3.069-3.041,7.045-4.741,10.772-6.603c5.959-2.976,12.007-5.894,18.447-7.793c0.927-0.273,1.916-0.337,2.877-0.498
		c1.952,1.559,0.956,3.717,0.957,5.557C259.059,102.459,259.055,192.621,259.059,282.783z"/>
	<path style="fill:#9DC958;" d="M163.033,419.825c-6.83-1.815-13.681-3.556-20.48-5.48c-2.844-0.805-5.856-1.033-8.533-2.422
		c0.008-2.331,0.023-4.663,0.023-6.994c0.008-94.419,0.015-188.839,0.022-283.258c5.147,0.968,10.065,2.71,14.976,4.466
		c4.286,1.532,8.561,3.094,12.841,4.643c0.116,0.32,0.232,0.64,0.348,0.961c-0.107,0.357-0.213,0.714-0.32,1.071
		c-1.7,1.472-0.812,3.434-0.814,5.129c-0.058,53.935-0.048,107.869-0.048,161.804c0,16.147-0.027,32.294,0.044,48.441
		c0.007,1.524-0.904,3.362,0.904,4.579c1.938,1.125,0.997,2.988,1.001,4.486C163.061,378.109,163.036,398.967,163.033,419.825z"/>
	<path style="fill:#82BB42;" d="M163.033,419.825c0.004-20.858,0.028-41.716-0.033-62.573c-0.004-1.498,0.936-3.361-1.001-4.486
		c0.036-0.333,0.073-0.666,0.109-0.999c3.193-2.215,4.842-5.717,7.089-8.694c4.169-5.524,9.555-9.913,13.857-15.294
		c3.135-2.128,5.865-4.808,8.579-7.359c8.531-8.019,18.139-14.529,28.183-20.295c2.788-1.6,5.253-4.545,8.992-4.443
		c0.789,1.401,0.46,2.934,0.46,4.407c0.018,48.125,0.018,96.25,0,144.375c-0.001,1.473,0.327,3.004-0.435,4.396
		c-0.88,0.167-1.646-0.084-2.379-0.529c-19.403-11.76-40.106-20.619-61.636-27.636C164.193,420.492,163.626,420.119,163.033,419.825
		z"/>
	<path style="fill:#108944;" d="M228.807,295.682c-3.738-0.103-6.204,2.842-8.992,4.443c-10.044,5.766-19.652,12.276-28.183,20.295
		c-2.714,2.551-5.444,5.231-8.579,7.359c-3.04-1.241-1.964-3.927-1.966-6.072c-0.048-58.124-0.038-116.248-0.037-174.371
		c0-1.332,0.007-2.664,0.026-3.996c0.02-1.375,1.028-1.503,2.054-1.598c0.609,0.177,1.244,0.29,1.822,0.539
		c5.991,2.583,11.185,6.596,17.004,9.491c0.219,0.472,0.499,0.857,1.106,0.775c0.23,0.242,0.513,0.366,0.847,0.372
		c7.371,5.885,15.125,11.3,21.917,17.894c1.065,1.255,2.131,2.511,3.392,3.997c0,1.631,0,3.45,0,5.268
		c0,36.419-0.004,72.838,0.01,109.256c0.001,1.821,0.15,3.643,0.23,5.464C229.24,295.093,229.024,295.387,228.807,295.682z"/>
	<path style="fill:#6F7074;" d="M902.473,86.323c11.234,0,22.134,0,33.312,0c0,60.316,0,120.515,0,181.084
		c-10.901,0-21.947,0-33.312,0C902.473,207.317,902.473,147.14,902.473,86.323z"/>
	<path style="fill:#E2F0F6;" d="M259.059,282.783c-0.004-90.162-0.001-180.323-0.063-270.485c-0.001-1.839,0.994-3.998-0.957-5.557
		c5.014-2.948,10.729-3.681,16.259-4.822c1.653-0.341,3.31-1.76,5.435-0.695c0,92.124,0,184.341,0,277.057
		C272.72,279.808,265.89,281.295,259.059,282.783z"/>
	<path style="fill:#A5CC66;" d="M134.065,121.671c-0.007,94.419-0.014,188.839-0.022,283.258c0,2.331-0.015,4.663-0.023,6.994
		c-6.091-0.534-11.977-2.176-17.954-3.33c0.852-2.36,1.008-4.786,1.007-7.291c-0.032-94.821-0.023-189.643-0.021-284.464
		C122.855,117.984,128.632,119.223,134.065,121.671z"/>
	<path style="fill:#CDE0A9;" d="M35.05,402.751c0-99.316,0.001-198.633,0.001-297.949c5.744-0.511,11.357,0.915,17.051,1.158
		c-0.556,2.059-1.1,4.061-1.098,6.281c0.059,96.297,0.052,192.594,0.054,288.891c0,0.5,0.024,0.999,0.037,1.499
		C45.746,402.67,40.398,402.71,35.05,402.751z"/>
	<path style="fill:#2E9ED3;" d="M203.909,152.918c-0.334-0.006-0.617-0.13-0.847-0.372c-0.189-0.515-0.57-0.755-1.106-0.775
		c-5.819-2.895-11.013-6.907-17.004-9.491c-0.577-0.249-1.213-0.363-1.822-0.539c-6.547-4.211-13.524-7.52-20.899-9.999
		c-0.116-0.32-0.232-0.64-0.348-0.961c0.022-11.304,0.098-22.609,0.027-33.913c-0.017-2.74,0.613-5.14,1.808-7.602
		c6.472-13.338,14.907-25.302,24.589-36.489c4.472-5.166,9.237-9.942,14.625-14.116c2.002,1.309,1.051,3.337,1.056,5.008
		c0.067,25.942,0.058,51.883,0.041,77.825C204.022,131.969,203.951,142.444,203.909,152.918z"/>
	<path style="fill:#6EBCE0;" d="M203.909,152.918c0.042-10.475,0.113-20.949,0.121-31.424c0.018-25.942,0.026-51.884-0.041-77.825
		c-0.004-1.671,0.947-3.699-1.056-5.008c6.732-6.943,14.388-12.638,23.01-17.027c1.128,0.496,1.986,1.251,2.089,2.548
		c0.079,0.992,0.024,1.994,0.024,2.992c0,46.731,0,93.462,0,140.193c0,0.826,0,1.652,0,2.194c-0.554,1.196-1.407,1.191-2.23,1.251
		C219.034,164.218,211.279,158.803,203.909,152.918z"/>
	<path style="fill:#727376;" d="M684.189,430.739c-3.546,0-6.489,0-9.849,0c0-22.888,0-45.645,0-67.531
		c-3.408-3.724-6.202-6.777-9.213-10.068c0.039-1.394,1.658-1.884,2.727-2.83c1.115-0.987,2.232-1.972,3.335-2.946
		c2.864,0.72,4.296,3.242,6.875,4.655c9.486-7.73,19.478-9.142,29.982-1.067c5.195-3.93,10.991-5.868,17.62-5.207
		c8.669,0.865,16.163,8.129,16.225,16.733c0.159,22.327,0.031,44.656,0,66.984c0,0.295-0.225,0.59-0.505,1.277
		c-2.74,0.353-5.666,0.219-8.61,0.025c-1.163-1.774-0.609-3.658-0.613-5.422c-0.047-20.329-0.014-40.658-0.041-60.988
		c-0.008-5.551-1.858-8.163-6.682-9.768c-5.677-1.889-11.758,1.999-12.356,7.939c-0.116,1.155-0.026,2.331-0.026,3.497
		c-0.001,19.829,0,39.659,0,59.488c0,1.635,0,3.27,0,5.147c-3.312,0-6.23,0-9.188,0c-1.092-1.734-0.558-3.616-0.562-5.387
		c-0.045-20.329-0.08-40.659,0.015-60.987c0.019-4.08-1.328-7.054-4.979-9.001c-5.612-2.994-12.015-0.129-13.592,6.057
		c-0.504,1.976-0.565,3.937-0.564,5.935c0.005,19.329,0.003,38.659,0.003,57.988C684.189,426.91,684.189,428.56,684.189,430.739z"/>
	<path style="fill:#6F7074;" d="M456.297,355.72c-3.55,0.728-6.173,1.688-8.624,3.109c-6.831,3.958-10.75,9.463-10.636,17.78
		c0.223,16.328,0.077,32.661,0.048,48.993c-0.003,1.62,0.335,3.298-0.5,5.224c-2.873,0.061-5.786,0.301-8.972-0.222
		c0-38.695,0-77.264,0-115.622c1.514-1.44,3.094-0.895,4.532-0.922c1.46-0.027,2.975-0.325,4.772,0.45c0,13.183,0,26.451,0,40.322
		c9.004-6.046,18.171-9.275,28.8-7.718c0,27.816,0,55.548,0,83.092c-0.875,0.868-1.744,0.679-2.544,0.691
		c-2.142,0.033-4.285,0.011-6.875,0.011C456.297,405.842,456.297,381.094,456.297,355.72z"/>
	<path style="fill:#727376;" d="M1078.583,417.081c3.346,2.975,6.418,5.707,9.609,8.545c-1.893,2.654-4.561,3.728-6.306,5.484
		c-3.427-0.636-4.701-3.778-7.418-4.643c-1.393,0.396-2.15,1.589-3.213,2.368c-8.98,6.582-21.2,5.066-28.176-3.508
		c-1.836-2.256-3.013-4.809-3.011-7.739c0.018-23.139,0.077-46.279,0.132-69.418c0-0.145,0.129-0.289,0.312-0.675
		c2.798-0.417,5.708-0.466,8.53,0.059c1.322,1.854,0.733,3.742,0.737,5.499c0.047,20.648-0.016,41.297,0.055,61.946
		c0.026,7.553,7.626,11.684,14.161,7.848c3.196-1.876,4.342-4.663,4.326-8.342c-0.09-20.482-0.051-40.964-0.028-61.446
		c0.002-1.645-0.296-3.324,0.353-5.133c2.919-1.45,6.05-0.302,8.727-0.726c0.496,0.487,0.626,0.594,0.73,0.723
		c0.102,0.125,0.213,0.261,0.258,0.411c0.095,0.314,0.212,0.64,0.212,0.961C1078.584,371.77,1078.583,394.245,1078.583,417.081z"/>
	<path style="fill:#727376;" d="M993.151,397.698c-9.062,0-18.322,0-28.122,0c0,6.799-0.245,13.236,0.094,19.641
		c0.196,3.703,5.127,7.234,9.061,7.226c4.612-0.01,9.137-3.944,9.704-8.452c0.162-1.287-0.29-2.638,0.498-4.11
		c2.842,0,5.784,0,8.728,0c1.728,7.363-1.801,14.985-8.966,18.524c-7.419,3.664-14.868,3.247-21.766-1.33
		c-4.678-3.104-7.27-7.627-7.261-13.452c0.027-17.491,0.017-34.981,0.006-52.472c-0.004-6.187,2.715-10.809,7.92-14.052
		c8.329-5.189,20.303-3.597,26.497,3.309c3.304,3.684,4.048,8.037,4.166,12.44c0.28,10.486,0.064,20.985,0.026,31.478
		C993.736,396.735,993.477,397.021,993.151,397.698z M964.956,389.309c6.581,0,12.485,0,18.322,0
		c0.469-2.519,0.923-25.107,0.599-27.135c-0.73-4.575-5.014-7.697-10.265-7.482c-5.081,0.208-8.562,3.451-8.625,8.398
		C964.877,371.725,964.956,380.363,964.956,389.309z"/>
	<path style="fill:#727376;" d="M797.339,355.795c0-3.04,0-5.321,0-8.067c4.787-0.077,9.436-0.686,13.937,0.497
		c8.618,2.265,13.485,9.069,13.519,18.57c0.054,14.984,0.014,29.968,0.014,44.952c0,1.662,0,3.324,0,4.989
		c2.72,3.453,6.854,5.342,9.515,9.22c-1.992,1.98-3.827,4.041-6.448,5.119c-2.622-0.812-3.755-3.412-6.394-4.645
		c-1.706,1.113-3.56,2.426-5.509,3.578c-9.504,5.617-22.03,2.65-27.592-6.443c-1.431-2.339-2.197-4.844-2.224-7.543
		c-0.057-5.826-0.141-11.657,0.009-17.48c0.219-8.465,6.037-14.999,14.345-16.8c4.61-0.999,9.263-0.468,14.454-0.915
		c0-5.616,0.302-11.242-0.096-16.818c-0.315-4.415-4.694-7.943-9.321-8.19C802.924,355.68,800.286,355.795,797.339,355.795z
		 M814.987,389.686c-2.188,0-3.979-0.008-5.769,0.002c-1.665,0.01-3.345-0.095-4.992,0.085c-4.112,0.451-7.932,3.734-8.106,7.576
		c-0.286,6.315-0.321,12.662-0.018,18.974c0.199,4.155,5.231,8.25,9.355,8.288c4.179,0.038,9.294-3.946,9.439-8.157
		C815.198,407.684,814.987,398.897,814.987,389.686z"/>
	<path style="fill:#727376;" d="M1377.056,416.249c3.619,3.054,6.967,5.77,9.989,9.08c-2.147,2.015-4.192,3.934-6.053,5.681
		c-3.397-0.28-4.422-3.421-6.966-4.409c-1.687-0.111-2.484,1.404-3.662,2.232c-8.757,6.148-20.296,5.101-27.216-2.453
		c-2.695-2.942-4.241-6.302-4.24-10.328c0.001-5.83,0.286-11.678-0.074-17.486c-0.589-9.502,8.761-17.749,17.248-17.805
		c3.476-0.023,6.953-0.004,11.008-0.004c0.308-6.294,0.572-12.228-0.125-18.1c-0.453-3.811-4.709-6.625-9.331-6.845
		c-2.622-0.124-5.254-0.022-8.085-0.022c-0.367-2.859-0.414-5.261,0.041-7.995c5.449-0.114,10.7-0.74,15.879,1.001
		c7.367,2.477,11.79,10.063,11.677,16.285c-0.277,15.32-0.09,30.648-0.089,45.973
		C1377.056,412.712,1377.056,414.371,1377.056,416.249z M1367.275,389.709c-3.732,0-6.864-0.125-9.982,0.029
		c-4.701,0.232-8.701,3.703-8.982,8.387c-0.348,5.791-0.378,11.639,0.016,17.423c0.331,4.866,5.527,9.279,9.76,9.04
		c5.296-0.299,9.075-4.21,9.157-9.844C1367.363,406.625,1367.275,398.501,1367.275,389.709z"/>
	<path style="fill:#6F7074;" d="M522.654,355.78c-1.027-1.485-0.685-2.669-0.733-3.79c-0.055-1.291-0.013-2.586-0.013-4.309
		c5.535,0.113,10.621-0.649,15.62,1.085c6.342,2.199,11.89,8.232,11.737,16.124c-0.296,15.301-0.086,30.612-0.086,45.918
		c0,1.65,0,3.3,0,5.066c3.389,3.085,6.682,6.083,10.11,9.204c-2.222,2.297-4.196,4.481-6.688,6.036
		c-2.536-1.04-3.719-3.607-6.615-4.499c-1.102,0.107-2.121,1.308-3.389,2.049c-7.568,4.422-15.347,4.886-23.135,0.786
		c-5.409-2.848-8.284-7.535-8.388-13.706c-0.099-5.822,0.297-11.669-0.11-17.464c-0.576-8.202,7.151-16.87,16.426-17.444
		c3.938-0.243,7.903-0.041,12.332-0.041c0.262-6.082,0.594-11.536-0.117-16.923c-0.616-4.668-4.612-7.843-9.385-8.071
		C527.602,355.678,524.973,355.78,522.654,355.78z M539.892,388.835c-3.72,0-6.714-0.124-9.695,0.029
		c-4.661,0.239-9.902,3.877-9.483,10.025c0.361,5.297,0.111,10.637,0.069,15.958c-0.025,3.227,1.144,5.822,3.775,7.711
		c6.295,4.52,14.821,0.574,15.234-7.446C540.234,406.527,539.892,397.902,539.892,388.835z"/>
	<path style="fill:#6F7074;" d="M919.388,5.642c11.711-0.752,21.252,7.965,21.223,19.532c-0.032,12.894-5.667,22.204-20.971,22.351
		c-13.8,0.133-20.839-7.827-21.226-21.612C898.076,13.907,908.039,4.772,919.388,5.642z"/>
	<path style="fill:#727376;" d="M912.617,347.693c0,5.861,0,11.134,0,16.75c-2.966,0.69-5.919,0.227-8.814,0.293
		c-1.294-1.322-0.636-2.898-0.749-4.322c-0.105-1.31-0.022-2.636-0.022-4.194c-3.734-0.844-7.403-0.697-10.939-0.244
		c-4.583,0.587-8.071,4.771-8.096,9.429c-0.091,16.663-0.08,33.328-0.009,49.991c0.018,4.346,4.696,8.941,8.975,9.167
		c4.477,0.236,9.262-3.628,9.974-8.182c0.202-1.291,0.031-2.64,0.031-4.151c3.271-0.783,6.324-0.474,9.681-0.286
		c0.457,7.585-1.543,13.603-8.004,17.75c-9.297,5.967-22.42,3.236-28.16-5.904c-1.648-2.625-2.367-5.428-2.362-8.506
		c0.027-16.497,0.204-32.997-0.055-49.49c-0.172-10.93,9.977-18.173,17.582-18.112C898.468,347.735,905.288,347.693,912.617,347.693
		z"/>
	<path style="fill:#6F7074;" d="M1290.329,411.996c2.878,0,5.638,0,8.329,0c3.397,11.826-9.212,23.558-23.289,20.305
		c-9.697-2.241-14.56-9.805-14.41-18.292c0.286-16.145,0.402-32.307-0.046-48.444c-0.24-8.635,7.026-17.465,17.046-17.829
		c1.497-0.054,2.995-0.087,4.492-0.09c5.318-0.011,10.637-0.004,16.34-0.004c0,5.364,0,10.557,0,16.013c-2.797,0-5.54,0-8.486,0
		c-0.873-2.402,0.024-4.958-0.794-7.825c-3.371,0-6.84-0.291-10.241,0.066c-5.635,0.591-9.214,4.816-9.219,10.393
		c-0.015,15.817,0.081,31.634-0.059,47.45c-0.041,4.581,1.915,7.641,5.801,9.582c5.263,2.628,11.434,0.053,13.296-5.534
		C1289.701,415.95,1289.916,413.983,1290.329,411.996z"/>
	<path style="fill:#6F7074;" d="M1453.905,423.203c0,2.986,0,5.446,0,8.172c-7.605,0.97-14.304-0.385-19.717-5.969
		c-2.627-2.71-4.185-5.939-4.184-9.822c0.006-33.32-0.002-66.64,0.006-99.96c0-0.318,0.164-0.636,0.316-1.189
		c2.815-0.741,5.716-0.468,8.494-0.141c1.48,1.808,0.876,3.721,0.878,5.485c0.039,30.155,0.028,60.31,0.027,90.465
		c0,1.333-0.035,2.667,0.012,3.998c0.172,4.9,2.983,8.036,7.847,8.625C1449.538,423.102,1451.521,423.084,1453.905,423.203z"/>
	<path style="fill:#727376;" d="M1134.07,347.267c0-6.758,0-13.361,0-20.267c3.375-0.588,6.406-0.43,9.8-0.155
		c0,6.915,0,13.524,0,20.147c2.992,1.311,5.897,0.135,8.807,0.919c1.273,2.238,0.086,4.761,0.7,7.147
		c-3.02,1.543-6.144,0.071-9.386,1.196c0,24.665,0,49.387,0,74.407c-3.354,0.43-6.282,0.288-9.649,0.084c0-24.823,0-49.557,0-74.321
		c-3.33-1.389-6.607,0.065-9.739-1.12c0-2.322,0-4.595,0-7.146C1127.43,346.987,1130.482,348.099,1134.07,347.267z"/>
	<path style="fill:#6F7074;" d="M612.179,430.674c-3.297,0-6.041,0-9.181,0c0-22.995,0-45.761,0-68.183
		c-3.584-3.244-6.781-6.138-10.127-9.167c1.927-2.605,4.302-4.31,6.683-6.011c3.486,1.363,5.396,4.572,8.69,6.6
		c3.332-2.037,6.588-4.755,10.635-5.709c4.062-0.957,8.221-0.689,12.515-0.333c0.658,2.563,0.382,4.973,0.281,7.242
		c-1.666,1.063-3.199,0.615-4.648,0.643c-9.285,0.179-14.824,5.682-14.839,14.933c-0.03,17.998-0.009,35.996-0.009,53.994
		C612.179,426.506,612.179,428.327,612.179,430.674z"/>
	<path style="fill:#727376;" d="M1202.023,356.01c-2.189-0.179-3.649-0.299-5.264-0.431c-0.583-2.551-0.415-4.961-0.14-7.629
		c4.756-0.539,9.295-0.435,14.064-0.07c0,27.651,0,55.01,0,82.694c-2.801,0.629-5.521,0.332-8.66,0.204
		C1202.023,405.813,1202.023,381.122,1202.023,356.01z"/>
	<path style="fill:#727376;" d="M1202.101,323.306c2.89-0.496,5.631-0.355,8.577-0.123c0.424,2.875,0.367,5.438,0.065,8.252
		c-3.002,0-5.766,0-8.775,0C1201.163,328.786,1201.216,326.112,1202.101,323.306z"/>
	<path style="fill:#037A44;" d="M162.231,131.741c7.375,2.479,14.353,5.789,20.899,9.999c-1.026,0.095-2.034,0.223-2.054,1.598
		c-0.019,1.332-0.026,2.664-0.026,3.996c-0.001,58.124-0.011,116.248,0.037,174.371c0.002,2.146-1.074,4.831,1.966,6.072
		c-4.302,5.382-9.688,9.77-13.857,15.294c-2.247,2.977-3.896,6.478-7.089,8.694c-0.025-1.666-0.072-3.331-0.072-4.997
		c-0.003-57.157,0.007-114.314-0.006-171.471c-0.003-14.162-0.077-28.324-0.118-42.487
		C162.018,132.455,162.124,132.098,162.231,131.741z"/>
	<path style="fill:#A5CC66;" d="M161.911,132.812c0.041,14.162,0.115,28.324,0.118,42.487c0.013,57.157,0.003,114.314,0.006,171.471
		c0,1.666,0.047,3.331,0.072,4.997c-0.036,0.333-0.073,0.666-0.109,0.999c-1.808-1.218-0.897-3.056-0.904-4.579
		c-0.071-16.147-0.044-32.294-0.044-48.441c0-53.935-0.01-107.869,0.048-161.804C161.099,136.246,160.211,134.285,161.911,132.812z"
		/>
	<path style="fill:#6EBCE0;" d="M201.956,151.771c0.536,0.02,0.917,0.26,1.106,0.775
		C202.455,152.628,202.175,152.243,201.956,151.771z"/>
</g>
</svg>
