<?xml version="1.0" encoding="iso-8859-1"?>
<!-- Generator: Adobe Illustrator 27.0.0, SVG Export Plug-In . SVG Version: 6.00 Build 0)  -->
<svg version="1.1" id="Layer_1" xmlns="http://www.w3.org/2000/svg" xmlns:xlink="http://www.w3.org/1999/xlink" x="0px" y="0px"
	 viewBox="0 0 1500 927" style="enable-background:new 0 0 1500 927;" xml:space="preserve">
<g>
	<path style="fill:#E92025;" d="M435,0c1,0,2,0,3,0c0.572,1.498,1.885,1.056,2.954,1.049c5.111-0.032,10.222-0.128,15.334-0.202
		c0.987-0.014,2,0.05,2.712-0.847c2.667,0,5.333,0,8,0c0.476,0.491,1.035,0.794,1.739,0.799c6.769,0.052,13.537,0.107,20.306,0.161
		c21.482,0.886,42.694,3.787,63.814,7.81c34.776,6.624,68.08,17.786,100.32,32.131c28.617,12.733,55.548,28.531,80.899,46.951
		c4.809,3.494,9.9,6.672,14.019,11.058c-1.388,2.331-3.365,4.157-5.5,5.709c-6.724,4.891-12.872,10.502-18.776,16.256
		c-14.285,13.922-28.731,27.707-41.461,43.161c-8.424,10.227-16.559,20.656-24.303,31.398
		c-10.969,15.214-20.85,31.113-29.595,47.699c-4.487,8.51-8.784,17.129-12.905,25.822c-5.465,11.529-10.483,23.26-14.715,35.309
		c-7.944,22.621-14.932,45.49-19.192,69.154c-2.22,12.331-4.494,24.624-5.797,37.103c-0.378,3.621-0.252,7.349-1.035,10.836
		c-1.506,6.709-1.354,13.583-1.525,20.247c-0.397,15.425-0.789,30.883,0.485,46.365c0.962,11.691,1.837,23.375,3.081,35.05
		c1.226,11.505,3.307,22.864,5.486,34.166c2.84,14.727,6.756,29.257,11.125,43.626c7.296,23.993,16.87,47.11,27.844,69.621
		c5.084,10.429,10.915,20.512,16.759,30.547c6.168,10.593,12.871,20.854,20.066,30.806c6.503,8.994,13.122,17.86,20.249,26.386
		c5.313,6.355,10.521,12.819,16.219,18.805c9.305,9.775,18.93,19.252,28.608,28.661c5.817,5.655,12.227,10.663,18.453,15.868
		c2.285,1.91,5.988,2.679,6.398,6.503c-0.48,0.444-0.929,0.926-1.444,1.325c-22.676,17.569-46.788,32.866-72.272,46.048
		c-24.713,12.783-50.337,23.314-76.954,31.356c-36.634,11.068-74.132,17.303-112.331,19.387c-13.708-0.005-27.415-0.01-41.123-0.015
		c-19.335-0.563-38.492-2.79-57.565-5.946c-28.442-4.707-56.185-11.992-83.273-21.866c-47.941-17.475-91.483-42.649-131.186-74.594
		C126.104,786.841,88.961,742.6,59.9,691.559c-24.702-43.386-41.723-89.646-51.232-138.67C4.766,532.771,2,512.518,0.956,492.042
		C1.008,485.344,1.441,478.627,0,472c0-14.667,0-29.333,0-44c1.281-0.463,0.915-1.603,1-2.525
		c1.179-12.763,2.764-25.467,4.796-38.131c5.263-32.799,14.131-64.608,26.492-95.389C59.8,223.45,101.259,164.717,156.594,115.791
		c37.975-33.576,80.412-60.066,127.027-79.819c47.588-20.166,97.342-31.379,148.85-35.015C433.383,0.893,434.53,1.294,435,0z"/>
	<path style="fill:#F49E21;" d="M1032,0c3.333,0,6.667,0,10,0c0.587,0.692,1.371,0.83,2.226,0.834
		c7.273,0.032,14.546,0.076,21.82,0.116c3.675-0.038,7.293,0.585,10.938,0.899c19.911,1.717,39.599,4.752,59.114,9.094
		c46.273,10.297,90.053,27.039,131.017,50.878c50.027,29.113,93.355,66.112,129.641,111.298
		c36.34,45.252,63.27,95.524,80.887,150.808c8.758,27.485,14.648,55.596,18.165,84.199c1.951,15.868,2.815,31.833,3.303,47.814
		c0.005,8.376,0.009,16.751,0.014,25.127c-0.166,4.992-0.526,9.971-0.848,14.955c-1.409,21.79-4.616,43.308-9.155,64.65
		c-9.435,44.37-25.115,86.423-47.112,126.074c-24.753,44.619-55.886,84.247-93.632,118.647
		c-31.437,28.65-66.108,52.626-104.055,71.791c-37.142,18.758-76.13,32.182-117.022,40.16c-24.221,4.726-48.567,8.022-73.241,8.775
		c-13.372-0.002-26.744-0.004-40.116-0.006c-15.753-1.295-31.505-2.458-47.163-4.849c-22.898-3.497-45.422-8.561-67.528-15.382
		c-38.35-11.832-74.408-28.728-108.409-50.022c-13.836-8.666-27.275-17.903-39.916-28.262c3.437-4.116,7.766-7.315,11.877-10.613
		c9.612-7.711,18.353-16.342,27.315-24.734c8.006-7.497,15.047-15.937,22.373-24.098c7.876-8.774,15.19-17.972,22.328-27.342
		c15.738-20.656,29.203-42.722,41.123-65.751c7.483-14.457,14.084-29.314,19.867-44.541c5.825-15.338,11.01-30.868,15.244-46.728
		c3.923-14.692,6.984-29.564,9.666-44.513c1.369-7.633,2.572-15.338,3.123-23.062c0.389-5.45,0.916-10.915,1.394-16.34
		c0.875-9.915,1.048-19.848,1.649-29.764c0.371-6.115-0.492-12.268-0.658-18.375c-0.403-14.765-1.494-29.433-3.085-44.109
		c-0.892-8.224-2.171-16.392-3.448-24.532c-1.66-10.581-4.264-21.027-6.751-31.462c-4.92-20.642-11.534-40.758-19.353-60.478
		c-6.122-15.442-13.361-30.361-20.977-45.117c-5.719-11.083-11.991-21.838-18.788-32.264c-8.239-12.638-16.734-25.098-26.205-36.899
		c-10.608-13.216-21.478-26.167-33.423-38.196c-3.758-3.784-7.553-7.53-11.319-11.306c-5.752-5.767-11.918-11.066-18.161-16.289
		c-4.687-3.921-9.187-8.065-13.77-12.109c6.066-5.435,12.751-10.061,19.384-14.749c24.63-17.408,50.719-32.306,78.321-44.422
		c32.004-14.048,65.059-24.896,99.484-31.385c20.77-3.915,41.659-6.665,62.788-7.489c6.291-0.018,12.582-0.039,18.873-0.051
		C1030.658,0.878,1031.44,0.728,1032,0z"/>
	<path style="fill:#F7B198;" d="M485.066,926.126c-0.1,0.285-0.122,0.577-0.066,0.874c-13.667,0-27.333,0-41,0
		c0.094-0.304,0.075-0.6-0.057-0.889C457.65,926.116,471.358,926.121,485.066,926.126z"/>
	<path style="fill:#FCD8AA;" d="M1014,927c0.049-0.3,0.03-0.597-0.056-0.889c13.372,0.002,26.744,0.004,40.116,0.006
		c-0.084,0.29-0.104,0.584-0.06,0.882C1040.667,927,1027.333,927,1014,927z"/>
	<path style="fill:#FCD7A7;" d="M1499.112,455.94c0.294,0.049,0.59,0.069,0.888,0.06c0,8.333,0,16.667,0,25
		c-0.293,0.008-0.584,0.03-0.875,0.067C1499.121,472.691,1499.116,464.315,1499.112,455.94z"/>
	<path style="fill:#FAC784;" d="M1066,0c-0.169,0.325-0.154,0.642,0.046,0.949c-7.273-0.04-14.546-0.084-21.82-0.116
		C1043.371,0.83,1042.587,0.692,1042,0C1050,0,1058,0,1066,0z"/>
	<path style="fill:#F17D60;" d="M489,0c0.015,0.32,0.03,0.64,0.045,0.961c-6.769-0.054-13.537-0.11-20.306-0.161
		C468.035,0.794,467.476,0.491,467,0C474.333,0,481.667,0,489,0z"/>
	<path style="fill:#F07A5C;" d="M459,0c-0.712,0.897-1.725,0.833-2.712,0.847c-5.111,0.074-10.222,0.17-15.334,0.202
		C439.885,1.056,438.572,1.498,438,0C445,0,452,0,459,0z"/>
	<path style="fill:#FAC178;" d="M1010.926,0.931c0.188-0.297,0.213-0.608,0.074-0.931c7,0,14,0,21,0
		c-0.56,0.728-1.342,0.878-2.2,0.88C1023.509,0.892,1017.217,0.913,1010.926,0.931z"/>
	<path style="fill:#F38D70;" d="M0.956,492.042C0.637,492.028,0.319,492.014,0,492c0-6.667,0-13.333,0-20
		C1.441,478.627,1.008,485.344,0.956,492.042z"/>
	<path style="fill:#F26122;" d="M748.097,98.911c0.951,0.021,1.902,0.042,2.853,0.064c4.583,4.045,9.083,8.188,13.77,12.109
		c6.244,5.223,12.409,10.522,18.161,16.289c3.766,3.776,7.562,7.522,11.319,11.306c11.945,12.029,22.815,24.979,33.423,38.196
		c9.471,11.801,17.966,24.261,26.205,36.899c6.797,10.426,13.068,21.181,18.788,32.264c7.615,14.757,14.854,29.675,20.977,45.117
		c7.819,19.72,14.433,39.836,19.353,60.478c2.487,10.435,5.091,20.881,6.751,31.462c1.277,8.14,2.556,16.308,3.448,24.532
		c1.591,14.676,2.682,29.344,3.085,44.109c0.167,6.107,1.029,12.26,0.658,18.375c-0.602,9.916-0.775,19.85-1.649,29.764
		c-0.479,5.425-1.006,10.89-1.394,16.34c-0.551,7.724-1.753,15.429-3.123,23.062c-2.682,14.949-5.743,29.82-9.666,44.513
		c-4.235,15.86-9.419,31.391-15.244,46.728c-5.783,15.227-12.384,30.084-19.867,44.541c-11.92,23.029-25.385,45.094-41.123,65.751
		c-7.139,9.37-14.452,18.567-22.328,27.342c-7.326,8.161-14.367,16.601-22.373,24.098c-8.961,8.392-17.702,17.024-27.315,24.734
		c-4.111,3.298-8.44,6.497-11.877,10.613c-1.01-0.247-1.926,0.152-2.862,0.414c-0.41-3.824-4.113-4.593-6.398-6.503
		c-6.227-5.205-12.636-10.213-18.453-15.868c-9.678-9.409-19.304-18.886-28.608-28.661c-5.698-5.986-10.906-12.45-16.219-18.805
		c-7.127-8.525-13.746-17.392-20.249-26.386c-7.195-9.951-13.898-20.213-20.066-30.806c-5.844-10.035-11.675-20.118-16.759-30.547
		c-10.973-22.51-20.548-45.627-27.844-69.621c-4.369-14.369-8.285-28.899-11.125-43.626c-2.18-11.303-4.26-22.661-5.486-34.166
		c-1.244-11.675-2.119-23.359-3.081-35.05c-1.274-15.482-0.882-30.94-0.485-46.365c0.172-6.664,0.019-13.539,1.525-20.247
		c0.783-3.487,0.657-7.216,1.035-10.836c1.303-12.479,3.578-24.772,5.797-37.103c4.26-23.664,11.247-46.534,19.192-69.154
		c4.232-12.049,9.25-23.78,14.715-35.309c4.121-8.694,8.418-17.312,12.905-25.822c8.746-16.586,18.626-32.485,29.595-47.699
		c7.744-10.741,15.878-21.17,24.303-31.398c12.73-15.454,27.175-29.239,41.461-43.161c5.904-5.754,12.053-11.366,18.776-16.256
		C744.732,103.068,746.708,101.242,748.097,98.911z"/>
</g>
</svg>
