<?xml version="1.0" encoding="iso-8859-1"?>
<!-- Generator: Adobe Illustrator 27.0.0, SVG Export Plug-In . SVG Version: 6.00 Build 0)  -->
<svg version="1.1" id="Layer_1" xmlns="http://www.w3.org/2000/svg" xmlns:xlink="http://www.w3.org/1999/xlink" x="0px" y="0px"
	 viewBox="0 0 1540 251.009" style="enable-background:new 0 0 1540 251.009;" xml:space="preserve">
<g>
	<path style="fill:#F4875D;" d="M1540,199.009c-0.355-0.049-0.711-0.099-1.067-0.148c0-37.901,0-75.802,0-113.703
		c0.355-0.05,0.711-0.099,1.066-0.149C1540,123.009,1540,161.009,1540,199.009z"/>
	<path style="fill:#F17B4E;" d="M1159,251.009c0.031-0.344,0.061-0.688,0.092-1.033c7.61,0.001,15.22,0.003,22.83,0.004
		c0.026,0.343,0.052,0.685,0.078,1.028C1174.333,251.009,1166.667,251.009,1159,251.009z"/>
	<path style="fill:#FDD9C5;" d="M0,118.009c0.273-0.044,0.548-0.058,0.824-0.041c0.005,4.36,0.009,8.72,0.014,13.08
		c-0.28,0.007-0.56-0.006-0.838-0.039C0,126.676,0,122.342,0,118.009z"/>
	<path style="fill:#EE5026;" d="M0.838,131.048c-0.005-4.36-0.009-8.72-0.014-13.08c1.353-17.819,5.65-34.772,15.343-49.992
		c9.817-15.414,23.318-25.9,41.575-29.318c9.901-1.854,19.854-1.287,29.718,0.778c16.022,3.355,30.333,10.665,44.114,19.144
		c15.377,9.462,29.172,20.981,42.469,33.123c0.479,0.438,0.868,0.976,1.513,1.711c-4.055,8.697-8.624,17.09-13.917,25.303
		c-5.511-3.722-9.86-8.361-14.703-12.402c-12.415-10.356-25.161-20.243-39.243-28.262C97.516,72.259,86.879,67.622,75.06,66.456
		c-14.12-1.393-30.3,5.19-37.034,19.988c-6.574,14.446-8.638,29.533-7.519,45.23c0.75,10.514,2.572,20.788,6.441,30.614
		c3.114,7.908,6.817,15.486,12.426,22.043c10.169,11.889,23.064,15.733,38.115,13.132c17.092-2.955,31.14-11.96,44.309-22.674
		c14.54-11.829,25.262-26.843,35.628-42.195c15.312-22.676,28.105-46.68,38.267-72.078c1.155-2.887,2.71-5.367,5.272-7.07
		c5.08-3.376,12.012-2.823,17.229,1.235c4.897,3.809,6.589,9.457,4.211,15.604c-2.635,6.81-5.461,13.558-8.487,20.204
		c-12.38,27.192-27.443,52.807-45.865,76.357c-12.888,16.475-27.348,31.376-45.007,42.889
		c-13.999,9.127-29.166,15.246-45.822,17.039c-12.748,1.373-24.756-1.92-36.194-7.364c-18.099-8.615-30.36-22.904-38.866-40.672
		C4.956,163.682,1.574,147.667,0.838,131.048z"/>
	<path style="fill:#EE5227;" d="M388.434,116.717c7.266-10.871,14.192-21.228,21.113-31.59c6.832-10.229,13.659-20.461,20.55-30.784
		c9.059,0,18.021,0,26.995,0c1.049,3.59,1.505,131.928,0.475,144.362c-7.546,0-15.127,0-23.169,0c0-36.989,0-74.06,0-111.431
		c-1.99,0.769-2.502,2.233-3.258,3.368c-13.082,19.659-26.107,39.355-39.176,59.022c-1.048,1.577-1.677,3.82-5.005,3.358
		c-14.22-21.659-28.691-43.699-43.795-66.704c0,38.094,0,75.063,0,112.365c-7.955,0-15.533,0-23.147,0
		c-0.852-3.341-1.133-136.913-0.236-144.252c8.883,0,17.811,0,27.385,0C360.659,74.798,374.404,95.542,388.434,116.717z"/>
	<path style="fill:#EE4F26;" d="M1181.922,249.981c-7.61-0.001-15.22-0.003-22.83-0.004c-0.061-1.327-0.175-2.655-0.175-3.982
		c-0.009-51.97-0.008-103.94-0.008-155.91c0-1.322,0-2.644,0-4.335c7.755,0,15.281,0,23.047,0c0,5.941,0,11.741,0,17.523
		c1.54,0.27,1.762-0.895,2.286-1.6c20.745-27.945,64.09-24.23,81.846,6.697c12.977,22.603,11.013,55.87-5.922,75.46
		c-8.668,10.026-19.52,16.014-32.662,17.234c-17.818,1.654-32.671-4.197-43.734-18.66c-0.284-0.372-0.701-0.642-1.657-1.498
		c0,1.908,0,3.269,0,4.63c0,19.822,0.004,39.644-0.009,59.466C1182.101,246.66,1181.985,248.32,1181.922,249.981z M1181.686,141.998
		c-0.05,11.521,4.42,21.075,13.101,28.466c18.79,15.996,46.583,9.107,54.179-15.323c2.271-7.305,2.512-14.681,0.997-22.165
		c-3.508-17.326-17.341-29.747-35.737-27.687C1194.571,107.49,1181.282,123.877,1181.686,141.998z"/>
	<path style="fill:#EE4F26;" d="M736.765,198.881c-7.593,0-14.885,0-22.575,0c0-5.775,0-11.518,0-17.276
		c-2.089-0.167-2.427,1.393-3.191,2.298c-12.423,14.711-28.395,19.962-46.941,16.471c-22.704-4.274-35.263-19.578-40.731-40.987
		c-3.965-15.524-2.744-30.999,3.71-45.896c9.189-21.212,31.39-33.862,54.241-30.41c11.19,1.69,20.819,6.696,28.2,15.541
		c1.359,1.628,2.736,3.241,4.509,5.338c0-21.74,0-42.857,0-64.275c7.649,0,15.058,0,22.779,0
		C736.765,92.626,736.765,145.519,736.765,198.881z M644.932,142.785c-0.193,3.024,0.229,6.663,1.173,10.204
		c3.314,12.435,10.56,21.523,23.296,24.863c13.397,3.513,25.227,0.176,35.062-9.851c12.744-12.992,12.837-39.28-0.71-52.708
		c-16.761-16.615-46.259-12.906-55.676,9.845C645.829,130.566,644.713,136.233,644.932,142.785z"/>
	<path style="fill:#EE5026;" d="M1088.141,198.815c-7.992,0-15.944,0-24.118,0c-4.937-12.843-9.87-25.678-14.842-38.611
		c-20.992,0-41.782,0-63.153,0c-4.796,12.605-9.673,25.425-14.655,38.52c-8.018,0-16.114,0-24.216,0
		c0.534-3.701,51.979-136.191,56.065-144.334c9.652,0,19.429,0,29.237,0C1034.598,57.824,1087.126,193.957,1088.141,198.815z
		 M1018.248,78.323c-0.31,0.089-0.619,0.178-0.929,0.267c-7.419,19.607-14.837,39.215-22.34,59.044c15.444,0,30.217,0,45.722,0
		C1033.103,117.563,1025.675,97.943,1018.248,78.323z"/>
	<path style="fill:#EE5127;" d="M903.353,198.441c0-5.376,0-10.822,0-16.507c-2.327,0.702-3.052,2.533-4.227,3.823
		c-10.418,11.441-23.237,16.54-38.75,15.588c-24.414-1.498-41.788-19.275-47.233-41.914c-3.588-14.918-2.967-29.742,3.021-44.017
		c6.941-16.546,18.923-27.681,36.67-31.47c19.638-4.192,36.092,1.465,48.616,17.524c0.389,0.498,0.643,1.186,1.885,1.18
		c0-5.727,0-11.474,0-17.409c8.006,0,15.574,0,23.352,0c0,37.825,0,75.414,0,113.023
		C923.29,199.214,909.059,199.373,903.353,198.441z M903.352,142.081c0.629-11.52-3.616-21.533-12.971-29.304
		c-16.006-13.297-44.083-10.151-53.202,13.777c-2.726,7.153-3.183,14.628-2.149,22.108c3.444,24.933,25.383,35.035,44.778,28.564
		C891.409,173.354,903.803,161.608,903.352,142.081z"/>
	<path style="fill:#EE4F26;" d="M1538.934,85.158c0,37.901,0,75.802,0,113.703c-7.45,0-14.901,0-22.667,0c0-5.896,0-11.512,0-17.607
		c-1.941,0.98-2.593,2.507-3.569,3.642c-9.461,11-21.482,16.824-35.92,16.642c-19.507-0.247-34.925-8.773-44.237-25.957
		c-12.307-22.71-12.279-46.116,0.806-68.485c8.85-15.129,22.802-23.211,40.671-24.216c16.388-0.921,29.436,5.16,39.681,17.749
		c0.602,0.74,0.89,1.817,2.485,2.129c0-5.799,0-11.507,0-17.601C1524.061,85.158,1531.497,85.158,1538.934,85.158z
		 M1481.664,179.124c7.204,0.021,14.459-2.28,20.078-6.363c11.779-8.558,15.789-20.462,14.743-34.479
		c-0.914-12.246-6.426-21.843-16.959-28.304c-18.38-11.275-42.094-2.974-49.121,17.246c-3.498,10.065-3.442,20.227,0.29,30.269
		C1455.727,171.028,1467.299,179.082,1481.664,179.124z"/>
	<path style="fill:#EE5026;" d="M600.567,148.645c-30.474,0-60.886,0-91.247,0c-1.3,11.841,8.115,25.588,20.758,30.038
		c14.118,4.969,32.953,3.785,44.104-14.452c7.82,0,15.739,0,24.034,0c-5.545,15.327-15.334,26.423-29.971,32.682
		c-34.293,14.664-76.879-5.104-83.427-45.731c-4.839-30.022,14.951-62.877,50.49-67.805c19.447-2.696,37.052,2.309,50.757,17.333
		c9.321,10.218,13.723,22.593,14.852,36.202C601.228,140.669,601.506,144.491,600.567,148.645z M575.845,128.934
		c-4.41-17.595-17.286-26.826-35.507-26.052c-14.724,0.626-28.39,12.986-30.065,26.052
		C532.025,128.934,553.75,128.934,575.845,128.934z"/>
	<path style="fill:#EE5227;" d="M1322.649,198.825c-8.186,0-15.635,0-23.33,0c0-53.081,0-105.97,0-159.158
		c7.614,0,15.168,0,23.209,0c0,20.824,0,41.404,0,61.984c3.171-2.879,5.708-5.9,8.665-8.507c8.634-7.615,18.65-11.11,30.203-10.325
		c3.991,0.271,7.986,0.383,11.848,1.482c14.697,4.181,23.17,14.2,26.735,28.743c1.193,4.868,1.696,9.863,1.721,14.837
		c0.113,22.985,0.05,45.971,0.042,68.957c0,0.483-0.101,0.965-0.196,1.811c-7.57,0-15.14,0-22.943,0
		c-1.019-1.248-0.437-2.979-0.441-4.566c-0.043-19.821-0.033-39.642-0.025-59.463c0.002-4.333-0.08-8.658-1.149-12.89
		c-2.143-8.486-7.186-13.965-15.987-15.834c-6.342-1.346-12.585-1.235-18.705,0.76c-12.519,4.08-17.646,13.811-19.318,25.987
		c-0.338,2.462-0.315,4.985-0.318,7.48c-0.024,17.822-0.012,35.644-0.011,53.467
		C1322.649,195.222,1322.649,196.855,1322.649,198.825z"/>
	<path style="fill:#EE5227;" d="M1130.771,198.834c-7.862,0-15.33,0-23.127,0c0-53.002,0-105.885,0-159.115
		c7.686,0,15.255,0,23.127,0C1130.771,92.624,1130.771,145.511,1130.771,198.834z"/>
	<path style="fill:#EE5328;" d="M787.603,85.076c0,37.999,0,75.595,0,113.896c-7.658,0.093-15.349,0.038-23.258,0.034
		c0-38.062,0-75.659,0-113.944C771.995,84.955,779.688,84.964,787.603,85.076z"/>
	<path style="fill:#EE5026;" d="M199.355,159.931c5.963-7.701,11.235-15.505,16.603-23.646c4.43,4.558,7.88,9.216,11.472,13.746
		c13.76,17.352,26.775,35.245,38.985,53.723c2.564,3.88,4.051,7.885,2.793,12.673c-1.473,5.608-5.12,8.744-10.535,10.115
		c-5.142,1.303-9.54-0.249-13.275-3.785c-1.19-1.126-2.118-2.561-3.031-3.943c-12.939-19.597-26.739-38.561-41.582-56.762
		C200.372,161.545,200.048,160.965,199.355,159.931z"/>
	<path style="fill:#EE5227;" d="M254.142,15.027c-0.02,8.447-6.807,15.094-15.279,14.963c-7.976-0.124-14.801-7.132-14.728-15.121
		c0.077-8.45,6.829-14.985,15.359-14.867C247.69,0.115,254.161,6.754,254.142,15.027z"/>
	<path style="fill:#EE5227;" d="M775.8,33.864c7.73-0.278,14.987,5.186,15.291,15.549c0.227,7.739-6.894,14.466-14.816,14.46
		c-8.028-0.006-14.905-6.768-15.137-14.884C760.908,40.901,767.644,33.951,775.8,33.864z"/>
</g>
</svg>
