<?xml version="1.0" encoding="iso-8859-1"?>
<!-- Generator: Adobe Illustrator 27.0.0, SVG Export Plug-In . SVG Version: 6.00 Build 0)  -->
<svg version="1.1" id="Layer_1" xmlns="http://www.w3.org/2000/svg" xmlns:xlink="http://www.w3.org/1999/xlink" x="0px" y="0px"
	 viewBox="0 0 1545.084 288.64" style="enable-background:new 0 0 1545.084 288.64;" xml:space="preserve">
<g>
	<path style="fill:#111010;" d="M1398,0c4.779,2.509,9.485,4.858,15.286,3.889c2.498-0.417,5.234,0.123,7.867,0.857
		c8.246,2.3,12.242,8.094,13.693,16.035c0.412,2.253,0.263,4.609,0.396,7.443c-2.611-1.04-4.754-2.024-6.979-2.753
		c-4.967-1.629-7.945-0.614-10.526,3.873c-5.377,9.348-5.328,18.541,2.468,26.456c1.498,1.521,3.066,2.973,4.675,4.528
		c1.614-0.719,2.281-2.333,3.365-3.539c12.945-14.402,28.682-22.036,48.465-20.998c11.644,0.611,22.697,2.765,32.898,8.529
		c13.649,7.711,22.378,19.617,28.213,33.802c7.126,17.326,8.307,35.422,6.523,53.881c-1.203,12.45-3.774,24.605-7.696,36.444
		c-5.212,15.734-13.444,29.928-23.016,43.371c-14.393,20.212-31.491,37.869-50.732,53.489c-0.386,0.313-0.744,0.66-1.578,1.402
		c3.799,6.202,7.646,12.484,11.694,19.092c-61.145,0-121.889,0-183.043,0c3.781-6.315,7.432-12.412,11.062-18.475
		c-0.346-1.648-1.88-1.884-2.88-2.626c-10.363-7.685-19.373-16.819-27.931-26.383c-9.551-10.673-18.646-21.752-26.78-33.551
		c-11.524-16.717-19.24-35.105-23.423-54.987c-2.656-12.621-3.522-25.378-2.942-38.225c0.816-18.061,4.915-35.125,15.861-50.004
		c9.835-13.368,23.244-20.958,39.225-24.487c10.568-2.333,21.152-2.626,31.588,0.341c14.593,4.148,26.397,12.318,34.719,25.582
		c8.391-7.564,15.674-15.58,16.818-27.677c-9.721,2.234-15.706-0.573-19.243-8.926c12.46,1.502,21.714-4.015,29.65-12.877
		c5.388-6.016,11.761-10.762,19.841-12.723c0.205-0.05,0.309-0.512,0.46-0.782C1390,0,1394,0,1398,0z M1365.966,209.195
		c0.34,0.591,0.681,1.182,1.021,1.773c-5.75,3.508-7.589,8.858-7.291,15.362c2.431,2.219,5.211,4.071,6.96,6.899
		c7.051,0,13.879,0.119,20.7-0.04c4.919-0.114,6.808-2.436,6.389-7.345c-0.552-6.462-1.498-12.86-3.703-18.993
		c-3.908-10.87-10.009-19.79-21.377-24.101c-6.987-2.65-14.261-3.666-21.529-2.576c-11.432,1.715-16.191,7.123-17.985,16.505
		c-0.96,5.021-0.743,10.274,0.385,15.378c0.799,3.618,1.57,7.241,2.375,10.961c-16.219-0.702-23.64,6.147-22.538,19.263
		c3.101-3.864,6.361-6.98,11.564-6.982c-4.048,11.77-0.26,21.558,9.08,23.939c0.398-3.824-0.662-7.611-0.104-11.447
		c0.968-6.653,6.171-10.069,12.587-8.016c6.298,2.016,10.152,5.945,9.537,13.498c4.135-3.34,6.407-7.211,6.559-11.815
		c0.206-6.217-4.465-9.622-8.754-12.844C1351.243,218.225,1356.95,211.43,1365.966,209.195z M1479.224,140.764
		c12.765,10.096,21.464,22.911,25.747,38.649c1.502,5.518,1.719,11.237,2.186,17.873c0.893-1.951,1.427-2.955,1.825-4.011
		c3.981-10.581,7.062-21.375,8.393-32.66c1.338-11.345,1.307-22.59-1.81-33.64c-5.079-18.006-16.628-30.541-33.184-38.85
		c10.785,1.555,20.035,6.549,28.253,13.388c11.519,9.587,17.307,22.283,18.731,38.096c1.131-2.963,1.559-5.013,1.657-7.173
		c0.159-3.494,0.548-6.983,0.594-10.477c0.181-13.89-1.167-27.568-6.632-40.516c-5.754-13.633-15.241-23.497-29.265-28.917
		c-11.252-4.349-22.769-5.056-34.28-2.289c-12.52,3.01-21.876,10.656-28.234,21.864c0.813,1.586,1.495,2.905,2.167,4.229
		c7.918,15.605,10.432,32.036,7.763,49.332c-1.644,10.656-5.685,20.356-11.03,29.616c-2.377,4.117-4.874,8.202-6.4,13.164
		c1.766,0.156,3.203,0.256,4.634,0.413c10.983,1.204,18.27,7.544,20.942,18.317c1.469,5.92,0.982,11.911,0.211,17.855
		c-0.298,2.297-0.841,4.542-0.61,6.728c10.571,10.065,13.086,25.285,2.307,39.405c0.722,1.1,0.724,2.785,2.705,3.262
		c15.067-14.183,27.219-30.394,33.732-50.311c4.059-12.412,4.743-25.086,1.276-37.812c-2.479-9.1-7.137-17.109-12.572-24.715
		C1478.628,141.31,1478.926,141.037,1479.224,140.764z M1303.093,251.19c0.333-2.602-0.961-4.678-1.443-6.861
		c-3.238-14.683,0.955-24.717,15.88-28.683c0.778-0.207,1.608-0.481,1.951-1.469c-5.168-20.175-2.358-37.042,19.875-45.391
		c-3.76-6.638-7.407-12.771-10.762-19.06c-8.093-15.171-10.426-31.297-7.841-48.255c1.42-9.319,4.844-17.868,9.281-25.981
		c-5.212-12.302-17.525-22.879-30.624-25.724c-8.14-1.768-16.147-1.204-24.243,0.168c-18.142,3.074-30.785,13.058-38.379,29.751
		c-4.706,10.343-6.025,21.323-6.668,32.462c-0.494,8.545,0.201,17.032,1.64,25.616c2.539-11.125,6.385-21.613,13.892-30.334
		c7.486-8.696,16.607-14.837,28.265-17.907c-0.55,2.101-1.83,2.365-2.74,3.005c-18.311,12.873-27.493,30.623-28.143,52.866
		c-0.328,11.226,1.535,22.188,4.633,32.941c1.819,6.314,3.652,12.643,7.183,19.21c-0.9-11.736,1.885-21.856,6.92-31.434
		c5.608-10.667,15.155-21.919,20.046-23.692c0.349,1.56-0.924,2.393-1.588,3.435c-12.212,19.149-14.602,39.5-7.566,61.029
		c5.622,17.204,16.386,31.002,28.92,43.621C1301.883,250.806,1302.408,250.888,1303.093,251.19z M1362.208,118.263
		c7.093,7.269,16.048,10.373,25.852,11.528c9.866,1.163,19.17-0.369,27.727-5.763c9.877-6.227,14.97-15.034,13.936-26.712
		c-0.97-10.949-6.014-20.191-13.366-28.284c-2.477-2.728-5.137-3.238-8.513-2.18c-3.791,1.188-6.146,3.817-7.829,7.18
		c-1.178,2.353-1.833,4.906-2.324,7.509c-1.659-0.643-1.926-2.305-2.769-3.486c-1.852-2.597-3.816-5.06-6.564-6.762
		c-3.454-2.139-6.95-2.046-10.306,0.149c-2.399,1.569-4.135,3.828-5.778,6.155c-0.839,1.188-1.177,2.794-2.717,3.44
		c-4.959-10.94-8.969-13.771-18.156-12.701c-0.901,1.031-1.93,2.113-2.851,3.279c-17.531,22.184-20.527,46.111-8.582,71.821
		c2.305,4.96,4.665,9.896,6.873,14.899c1.251,2.835,2.245,5.783,3.332,8.622c2.191,0.104,4.015,0.162,5.835,0.283
		c11.041,0.734,21.232,3.654,29.55,11.446c5.963,5.585,9.828,12.44,12.541,20.07c0.547,1.54,0.364,3.645,2.376,4.613
		c4.59-18.619,11.334-35.692,20.86-52.656c2.603-4.635,5.067-9.33,7.121-14.235c0.49-1.169,1.252-2.344-0.061-3.437
		c-0.432,0.098-0.804,0.085-1.056,0.252c-15.462,10.24-31.783,10.433-48.444,3.698
		C1370.52,133.605,1364.805,127.334,1362.208,118.263z M1311.822,274.714c46.428,0,92.615,0,139.146,0
		c-2.661-5.529-5.147-10.695-7.766-16.137c-6.031,3.832-11.994,6.743-19.352,6.258c0.757-2.66,1.53-4.69,1.9-6.792
		c1.545-8.785-3.23-12.544-9.894-12.39c-15.322,0.356-30.658,0.109-45.989,0.121c-0.975,0.001-2.011-0.231-2.87,0.494
		c-6.165,9.865-12.571,13.667-21.159,12.56c-0.804-7.884-1.859-8.752-9.501-7.499c-3.331,4.554-0.965,9.612-0.39,14.706
		c-7.131,0.919-13.088-1.004-18.642-5.332C1315.052,265.303,1313.33,269.892,1311.822,274.714z M1391.252,15.251
		c-2.575-0.692-4.657,0.419-6.54,1.065c-8.776,3.014-15.38,8.038-17.111,18.106c-1.117,6.495-3.418,12.781-5.695,19.007
		c-0.447,1.222-1.355,2.341-0.807,4.054c3.947,2.045,7.166,5.21,9.489,9.642c3.717-4.219,7.251-8.418,12.774-8.7
		c5.798-0.296,9.448,3.994,12.86,8.338c3.156-6.429,3.945-7.23,10.488-10.731c-8.139-15.64-5.714-29.072,9.97-39.682
		c-10.987-3.037-18.953,3.235-28.203,6.892C1389.54,20.182,1390.365,17.806,1391.252,15.251z M1420.217,179.161
		c-1.844,3.681-3.737,7.181-5.37,10.799c-1.631,3.615-3.174,7.29-4.436,11.045c-1.317,3.921-2.524,7.92-3.276,11.978
		c-0.673,3.63-2.372,7.231-1.442,12.27c8.873-13.707,19.692-21.147,36.059-16.874c-0.085-7.132-0.69-13.885-3.896-20.038
		C1434.301,181.516,1428.67,178.06,1420.217,179.161z M1408.251,237.341c4.5-1.468,7.981-1.473,11.427-1.223
		c8.139,0.588,15.004,6.796,12.468,17.308c-0.193,0.799-0.329,1.621,0.253,2.347c6.371-1.255,9.874-9.744,9.257-22.653
		c3.908,1.72,4.139,5.729,5.838,8.732c6.105-8.482,4.099-18.936-4.718-23.224c-5.692-2.768-11.596-2.454-17.23,0.446
		C1418.046,222.936,1413.034,229.227,1408.251,237.341z"/>
	<path style="fill:#1756A4;" d="M0,222c1.738-1.203,1.389-3.265,1.734-4.891c5.076-23.905,23.921-38.526,45.305-42.082
		c10.271-1.708,20.517-1.61,30.679,0.983c2.747,0.701,5.398,1.577,8.23,3.031c-0.79,5.35-2.491,10.443-4.076,16.031
		c-8.9-4.232-17.919-4.682-27.118-4.187c-14.318,0.771-27.015,10.939-31.017,24.817c-3.535,12.255-3.327,24.257,2.084,35.915
		c3.984,8.584,10.653,14.269,19.663,17.207c10.838,3.535,21.631,2.76,32.41-0.269c1.117-0.314,2.239-0.608,3.879-1.052
		c1.721,5.222,2.531,10.511,3.373,16.059c-16.656,5.56-33.188,6.759-49.73,1.652c-18.023-5.564-28.957-18.068-33.469-36.318
		C1.452,246.896,1.688,244.618,0,243C0,236,0,229,0,222z"/>
	<path style="fill:#1555A4;" d="M377.478,35.194c8.985,0,17.445,0,26.302,0c2.084,36.839,4.158,73.503,6.25,110.495
		c-6.633,0-13.019,0-19.832,0c-1.065-30.419-3.33-60.719-3.497-91.149c-8.932,30.435-19.791,60.159-29.746,90.149
		c-5.403,0-10.358,0-15.322,0c-9.388-28.471-17.752-57.074-25.443-85.877c-0.053-0.199-0.568-0.274-1.032-0.48
		c-1.419,29.109-2.356,58.174-4.243,87.423c-6.296,0-12.366,0-18.923,0c2.479-36.779,4.948-73.402,7.438-110.329
		c4.452-0.927,8.915-0.284,13.329-0.404c4.315-0.118,8.635-0.026,13.183-0.026c4.551,13.889,9.113,27.558,13.504,41.281
		c4.336,13.548,7.864,27.324,11.361,41.275c4.402-13.764,7.705-27.778,12.354-41.378C367.825,62.532,372.664,48.949,377.478,35.194z
		"/>
	<path style="fill:#1455A3;" d="M843.262,177.303c12.631-2.144,24.916-2.911,37.252-2.193c9.59,0.558,18.599,2.776,26.442,9.001
		c8.891,7.057,11.531,21.237,4.843,31.464c-3.391,5.186-8.101,8.651-13.676,11.003c0.299,1.575,1.549,1.237,2.404,1.529
		c12.015,4.105,19.229,15.767,18.874,28.13c-0.361,12.609-9.872,25.737-26.801,29.388c-16.281,3.512-32.681,2.858-49.338,0.967
		C843.262,250.093,843.262,213.85,843.262,177.303z M863.116,271.906c5.86,0.648,11.315,0.546,16.767,0.088
		c3.344-0.281,6.523-1.269,9.505-2.774c6.154-3.104,8.74-8.45,8.823-15.05c0.083-6.681-2.706-11.884-8.843-14.956
		c-8.365-4.188-17.249-3.504-26.252-3.14C863.116,248.157,863.116,259.765,863.116,271.906z M863.116,220.846
		c5.29,0,10.255,0.221,15.189-0.083c2.942-0.182,5.83-1.117,8.544-2.502c6.03-3.076,8.886-8.4,8.188-15.62
		c-0.518-5.355-4.914-10.08-10.86-11.617c-6.558-1.695-13.18-1.382-19.806-0.519c-0.423,0.055-0.797,0.491-1.255,0.79
		C863.116,200.978,863.116,210.618,863.116,220.846z"/>
	<path style="fill:#1856A4;" d="M300.911,286.412c-6.468,0-12.562,0-18.576,0c-0.825-1.829-0.459-3.511-0.464-5.142
		c-0.035-12.163-0.011-24.326-0.024-36.49c-0.005-4.339-0.399-8.638-1.599-12.829c-1.958-6.834-5.524-10.173-11.519-10.828
		c-5.106-0.558-11.656,3.182-14.435,8.181c-1.663,2.991-2.321,6.167-2.309,9.581c0.052,14.163,0.022,28.325,0.022,42.488
		c0,1.64,0,3.28,0,5.206c-6.563,0-12.816,0-19.139,0c-0.976-1.091-0.502-2.488-0.505-3.76c-0.038-13.163,0.001-26.326-0.041-39.489
		c-0.01-3.162-0.046-6.347-0.408-9.481c-0.775-6.703-4.942-11.296-11.067-12.55c-4.824-0.988-12.329,2.965-14.979,7.962
		c-1.989,3.75-2.755,7.775-2.74,12.023c0.054,14.994,0.021,29.988,0.021,45.352c-6.485,0-12.873,0-19.272,0
		c-0.497-2.766-1.115-73.994-0.666-80.018c5.397,0,10.822,0,16.359,0c1.323,3.477,1.189,7.157,1.68,11.753
		c6.297-8.684,13.954-13.45,24.381-13.621c10.85-0.178,17.887,5.025,22.763,14.173c3.198-3.938,6.506-7.627,10.818-10.282
		c11.891-7.323,32.345-6.295,39.422,13.206c1.123,3.095,2.14,6.441,2.177,9.683C301.019,249.677,300.911,267.828,300.911,286.412z"
		/>
	<path style="fill:#1856A4;" d="M387.661,286.744c-6.717,0-12.844,0-18.924,0c-1.259-1.363-0.711-2.936-0.716-4.358
		c-0.049-14.159-0.018-28.318-0.051-42.477c-0.013-5.258-0.972-10.25-4.455-14.465c-2.901-3.512-6.479-4.661-11.022-3.981
		c-8.875,1.329-13.996,10.32-13.89,17.6c0.208,14.156,0.059,28.317,0.058,42.476c0,1.635,0,3.27,0,5.182c-6.613,0-12.861,0-19.69,0
		c-0.444-26.597,0.527-53.284-1.073-80.163c6.008,0,11.436,0,16.894,0c1.575,3.609,0.784,7.378,1.616,11.847
		c6.006-9.018,13.899-13.534,24.385-13.63c10.717-0.098,17.945,4.829,22.731,14.086c2.769-3.723,5.928-7.084,9.864-9.714
		c12.186-8.142,33.281-7.089,40.571,13.764c1.201,3.435,2.018,7.021,2.027,10.729c0.04,16.99,0.101,33.98,0.142,50.97
		c0.001,0.489-0.141,0.979-0.261,1.756c-6.081,0-12.173,0-18.368,0c-1.12-1.025-0.617-2.445-0.621-3.692
		c-0.042-12.16-0.089-24.321,0.01-36.48c0.033-4.02-0.257-8.021-0.934-11.931c-0.902-5.21-3.014-9.868-8.39-12.153
		c-7.816-3.323-18.114,2.615-19.584,12.247c-0.324,2.126-0.302,4.317-0.306,6.479c-0.025,13.493-0.013,26.985-0.013,40.478
		C387.661,282.957,387.661,284.599,387.661,286.744z"/>
	<path style="fill:#1756A4;" d="M722.126,136.71c0,14.449,0,28.061,0,41.982c-6.592,0-12.994,0-19.893,0
		c-0.394-37.665,0.354-75.352-0.505-113.187c5.574,0,11.191,0,16.98,0c1.774,3.794,0.794,7.893,1.554,11.799
		c1.192,0.186,1.456-0.96,1.986-1.652c13.178-17.2,42.989-16.338,54.018,6.343c7.937,16.321,7.435,32.885-1.3,48.752
		c-5.273,9.577-14.055,14.674-24.885,16.424c-7.929,1.281-15.23,0.197-21.715-4.699C726.402,140.989,724.722,139.129,722.126,136.71
		z M722.122,105.504c0.065,4.525,0.039,7.823,0.509,11.142c0.853,6.011,5.247,12.978,14.597,15.208
		c7.122,1.698,14.605-1.642,19.019-8.014c2.537-3.662,3.829-7.753,4.363-12.041c1.024-8.226,0.508-16.293-4.159-23.517
		c-3.985-6.167-9.969-8.949-17.057-8.082c-7.159,0.876-12.683,4.7-15.353,11.797C722.254,96.746,721.94,101.7,722.122,105.504z"/>
	<path style="fill:#1555A4;" d="M1121.881,241.28c8.426-12.048,17.738-23.087,26.31-34.776c8.052,0,15.995,0,24.278,0
		c-9.875,10.911-19.665,21.727-29.631,32.738c11.281,15.926,22.296,31.476,33.622,47.467c-8.724,0-16.672,0-24.7,0
		c-7.637-11.737-15.227-23.402-22.83-35.086c-0.529,0.389-0.672,0.475-0.793,0.586c-4.672,4.276-6.904,9.288-6.26,15.887
		c0.593,6.072,0.126,12.248,0.126,18.641c-6.705,0-13.1,0-19.752,0c0-38.969,0-77.868,0-117.079c6.373,0,12.773,0,19.63,0
		C1121.881,193.563,1121.881,217.421,1121.881,241.28z"/>
	<path style="fill:#1555A4;" d="M788.879,106.187c-0.103-7.306,1.301-14.29,4.584-20.774c6.77-13.371,18.139-19.922,32.72-21.308
		c5.487-0.521,10.998-0.234,16.336,1.344c11.977,3.54,20.298,11.112,24.578,22.881c4.008,11.023,4.122,22.25,0.297,33.27
		c-4.596,13.242-13.87,21.464-27.695,24.734c-11.956,2.827-23.202,1.632-33.51-5.074
		C793.572,133.052,789.011,120.652,788.879,106.187z M849.132,104.701c0.318-4.731-0.906-10.247-3.471-15.366
		c-3.092-6.17-7.833-10.304-15.143-10.529c-7.435-0.23-12.653,3.404-16.307,9.594c-2.229,3.776-3.405,7.966-3.925,12.256
		c-1.025,8.449-0.132,16.645,4.567,24.014c7.133,11.187,21.602,11.411,29.144,0.513
		C848.049,119.326,849.295,112.723,849.132,104.701z"/>
	<path style="fill:#1555A4;" d="M89.936,246.83c-0.213-12.943,3.781-24.16,13.767-32.861c5.433-4.734,11.838-7.528,18.831-8.53
		c15.743-2.256,30.002,0.537,40.174,14.089c7.036,9.373,8.828,20.29,7.801,31.715c-0.416,4.621-1.435,9.147-3.277,13.502
		c-4.72,11.155-12.824,18.529-24.42,21.756c-12.146,3.381-24.035,2.844-35.065-3.992c-11.181-6.93-16.535-17.384-17.785-30.188
		C89.783,250.507,89.936,248.661,89.936,246.83z M110.791,248.591c-0.116,5.445,1.351,12.491,6.075,18.529
		c5.135,6.563,13.099,8.526,20.502,5.244c4.513-2,7.517-5.529,9.408-9.875c4.919-11.306,4.76-22.756-0.987-33.599
		c-6.28-11.849-20.498-12.117-27.935-3.567C112.531,231.442,110.924,238.725,110.791,248.591z"/>
	<path style="fill:#1756A4;" d="M649.774,147.809c-13.487-0.383-24.363-4.395-32.591-14.329c-4.258-5.141-6.605-11.206-7.864-17.56
		c-1.976-9.978-1.134-19.782,3.247-29.178c5.183-11.116,13.536-18.216,25.493-21.172c10.741-2.655,21.105-1.942,31.037,3.046
		c8.756,4.398,14.602,11.474,17.66,20.664c3.729,11.21,3.668,22.442-0.546,33.633c-5.268,13.993-15.867,21.226-29.962,24.141
		C653.818,147.557,651.3,147.639,649.774,147.809z M668.953,106.692c-0.335-6.037-1.073-11.926-3.817-17.389
		c-2.07-4.122-4.85-7.552-9.282-9.262c-8.577-3.31-17.448,0.064-22.083,8.312c-2.569,4.57-3.683,9.49-4.154,14.699
		c-0.695,7.689,0.54,14.906,4.6,21.459c7.055,11.387,21.844,11.604,29.429,0.554C667.458,119.511,668.44,113.158,668.953,106.692z"
		/>
	<path style="fill:#1B57A4;" d="M1163.871,145.829c-7.102,0-13.554,0-19.919,0c-1.043-1.532-0.589-3.075-0.594-4.523
		c-0.04-12.828,0.015-25.657-0.047-38.485c-0.02-4.145,0.097-8.318-1.254-12.353c-3.495-10.439-17.146-13.427-24.727-5.349
		c-3.547,3.779-5.502,8.216-5.479,13.516c0.061,13.994,0.021,27.989,0.02,41.984c0,1.628,0,3.256,0,5.132
		c-6.958,0-13.519,0-20.471,0c0-26.608,0-53.013,0-79.661c5.583,0,11.169,0,16.807,0c1.58,3.2-0.183,7.019,1.979,10.314
		c2.79-2.36,5.124-4.897,7.863-7.024c9.404-7.307,29.088-8.796,39.623,5.813c3.009,4.173,4.305,8.99,5.17,13.893
		c0.662,3.75,0.955,7.607,0.985,11.42c0.111,13.994,0.044,27.989,0.044,41.984C1163.871,143.459,1163.871,144.429,1163.871,145.829z
		"/>
	<path style="fill:#1756A4;" d="M1028.849,206.693c1.533,3.626,0.637,7.39,1.458,10.941c1.684-0.004,2.189-1.445,2.972-2.41
		c9.513-11.719,29.935-14.833,42.254-2.96c5.446,5.249,7.424,12.01,8.529,19.199c1.017,6.618,0.788,13.273,0.799,19.923
		c0.019,11.635,0.005,23.271,0.005,35.262c-6.899,0-13.593,0-20.385,0c-0.632-1.675-0.328-3.342-0.331-4.962
		c-0.029-13.151,0.004-26.303-0.031-39.454c-0.01-3.82-0.147-7.591-1.488-11.303c-3.928-10.875-15.705-12.539-24.039-5.699
		c-4.853,3.983-6.437,9.489-6.442,15.556c-0.011,13.484-0.004,26.969-0.004,40.453c0,1.657,0,3.314,0,5.298
		c-6.613,0-13.023,0-19.982,0c-0.68-26.408,0.692-52.977-1.13-79.844C1017.028,206.693,1022.759,206.693,1028.849,206.693z"/>
	<path style="fill:#1B57A4;" d="M494.645,111.681c-18.025,0-35.496,0-52.932,0c-1.158,6.032,2.129,12.781,7.962,16.407
		c4.036,2.509,8.504,3.647,13.221,3.967c8.229,0.558,16.247-0.519,24.39-3.342c1.878,4.501,2.35,9.024,3.007,13.689
		c-13.959,5.68-28.101,7.368-42.507,3.098c-15.015-4.45-24.223-16.441-25.835-32.077c-0.996-9.659,0.32-18.833,4.185-27.729
		c8.959-20.62,36.705-28.377,54.882-15.254c6.542,4.723,9.844,11.649,12.082,19.033C495.237,96.524,495.434,103.841,494.645,111.681
		z M475.807,97.004c0.291-5.011-1.228-9.559-4.27-13.592c-1.605-2.127-3.712-3.696-6.397-4.555
		c-11.921-3.814-23.194,4.62-23.797,18.147C452.628,97.004,463.907,97.004,475.807,97.004z"/>
	<path style="fill:#1756A4;" d="M995.921,286.866c-1.571,0-2.549,0-3.526,0c-4.654,0-9.308,0-14.067,0
		c-1.997-2.58-0.655-6.048-2.669-8.749c-2.908,2.441-5.368,5.421-8.886,6.965c-10.716,4.703-21.34,5.492-30.958-2.245
		c-6.434-5.176-9.508-12.149-8.365-20.728c0.557-4.186,1.58-8.129,3.8-11.698c3.973-6.388,10.103-9.967,16.952-12.366
		c7.433-2.603,15.244-3.224,23.041-3.784c0.811-0.058,1.621-0.14,2.363-0.205c2.465-9.108-4.768-14.149-12.296-14.939
		c-6.948-0.729-13.53,0.904-19.929,3.499c-1.358,0.551-2.565,1.572-4.527,1.465c-1.974-3.665-2.103-8.07-3.999-12.169
		c5.892-3.61,12.203-5.496,18.672-6.666c6.575-1.189,13.293-1.084,19.848,0.152c12.821,2.416,20.54,11.191,22.599,25.144
		c0.608,4.12,0.938,8.25,0.922,12.429c-0.043,11.323,0.121,22.648,0.069,33.971C994.951,280.109,995.673,283.179,995.921,286.866z
		 M975.032,248.051c-9.411-0.575-15.206,0.359-20.802,3.227c-6.17,3.161-8.82,10.115-6.142,16.445
		c1.454,3.435,4.119,5.619,7.828,6.193c6.804,1.052,14.185-2.815,17.513-8.943C976.418,259.467,974.374,253.682,975.032,248.051z"/>
	<path style="fill:#1756A4;" d="M694.981,211.623c13.116-6.642,26.473-8.914,40.459-5.7c9.422,2.165,15.905,7.957,18.961,17.303
		c1.456,4.451,2.379,8.998,2.415,13.694c0.078,10.16,0.173,20.321,0.171,30.482c-0.002,6.309,0.161,12.604,1.262,19.174
		c-6.216,0-11.965,0-17.861,0c-1.325-2.496-1.162-5.394-1.814-8.269c-2.001,0.009-2.766,1.707-3.854,2.778
		c-9.274,9.134-27.865,9.625-36.798,1.957c-5.788-4.969-10.916-15.175-7.245-26.683c3.234-10.141,10.921-15.048,20.116-18.364
		c7.26-2.619,14.92-3.164,22.55-3.725c0.978-0.072,1.956-0.146,2.909-0.217c0.449-9.043-4.085-14.256-12.782-14.97
		c-7.138-0.586-13.86,1.018-20.405,3.696c-1.187,0.485-2.202,1.53-3.918,1.223C697.063,220.34,696.678,215.971,694.981,211.623z
		 M737.095,248.008c-3.646,0-6.647-0.196-9.613,0.047c-4.176,0.343-8.111,1.683-11.834,3.635c-4.65,2.439-7.89,9.055-5.534,15.521
		c1.977,5.425,6.824,7.739,13.497,6.414c0.816-0.162,1.656-0.284,2.427-0.575c5.82-2.201,10.134-5.978,10.958-12.375
		C737.521,256.61,737.095,252.422,737.095,248.008z"/>
	<path style="fill:#1555A4;" d="M1053.624,93.417c0.594-8.617-3.053-13.357-11.27-14.55c-9.028-1.311-17.441,0.798-25.894,4.889
		c-1.646-4.024-2.808-8.165-3.673-12.573c6.876-4.361,14.338-6.377,22.144-7.034c5.79-0.488,11.625-0.635,17.361,0.902
		c11.409,3.056,18.155,10.426,20.658,21.89c0.893,4.09,1.195,8.211,1.193,12.375c-0.002,6.326-0.02,12.652,0.007,18.978
		c0.03,6.984-0.252,13.972,0.682,20.937c0.28,2.086,0.043,4.241,0.043,6.669c-5.741,0.456-11.485,0.253-17.46,0.12
		c-0.535-2.891-1.041-5.629-1.635-8.841c-1.533,1.389-2.783,2.621-4.133,3.731c-8.969,7.375-19.148,9.286-29.89,5.248
		c-15.593-5.861-18.761-23.952-10.951-36.177c4.21-6.59,10.538-10.553,17.876-12.762c7.013-2.111,14.224-3.303,21.596-3.284
		C1051.398,93.936,1052.618,94.226,1053.624,93.417z M1054.715,107.53c-6.341-0.803-11.764-0.248-17.047,1.544
		c-3.032,1.028-5.793,2.492-8.001,4.836c-4.718,5.009-3.722,14.212,1.85,18.043c3.365,2.314,6.962,1.647,10.545,0.985
		c6.29-1.162,11.953-6.871,12.577-13.165C1055.042,115.703,1054.715,111.561,1054.715,107.53z"/>
	<path style="fill:#1555A4;" d="M468.223,252.24c0.509,13.831,10.585,19.623,21.824,20.663c7.211,0.667,14.266-0.408,21.194-2.387
		c1.119-0.32,2.184-0.746,3.721-0.26c1.188,4.089,2.26,8.355,2.299,12.794c-10.391,4.998-21.293,5.384-32.326,4.946
		c-7.503-0.298-14.281-2.727-20.523-6.819c-8.942-5.863-13.592-14.52-15.159-24.727c-1.452-9.456-0.601-18.808,3.057-27.876
		c8.248-20.447,29.565-27.823,48.678-21.271c6.175,2.117,10.89,6.43,14.323,11.93c6.352,10.174,7.62,21.354,6.301,33.006
		c-9.055,0-17.835,0-26.614,0C486.191,252.24,477.386,252.24,468.223,252.24z M502.814,237.896
		c0.391-11.317-5.672-18.746-15.297-19.184c-10.395-0.473-18.377,7.588-18.86,19.184
		C479.924,237.896,491.184,237.896,502.814,237.896z"/>
	<path style="fill:#1856A4;" d="M510.132,80.768c-4.032,0-7.467,0-11.076,0c0-5.011,0-9.618,0-14.495
		c3.467-1.05,7.176,0.118,11.035-0.782c0-4.881,0-9.651,0-14.671c6.646-1.927,13-3.769,19.938-5.781c0,6.996,0,13.717,0,20.73
		c6.647,0,12.763,0,19.252,0c0,5.008,0,9.727,0,14.934c-6.09,0-12.327,0-18.176,0c-1.368,1.636-0.929,3.026-0.935,4.306
		c-0.041,8.83,0.073,17.661-0.065,26.488c-0.06,3.863,0.574,7.635,1.029,11.417c0.602,4.997,3.607,7.472,8.717,7.948
		c2.824,0.263,5.604-0.03,8.596-0.767c0,5.087,0,9.874,0,15.165c-10.436,2.925-20.581,4.287-30.162-3.043
		c-4.999-3.824-6.155-9.28-7.195-14.838c-0.765-4.087-1.01-8.247-0.983-12.43C510.18,103.81,510.132,92.669,510.132,80.768z"/>
	<path style="fill:#1856A4;" d="M951.051,65.78c3.805,0,7.234,0,11.043,0c0-5.161,0-9.927,0-14.774
		c6.516-2.432,12.896-4.088,19.624-5.948c0,6.843,0,13.444,0,20.472c6.381,0,12.457,0,18.91,0c0,5.143,0,9.881,0,15.063
		c-5.844,0-11.925,0-17.289,0c-1.329,0.851-1.464,1.466-1.462,2.16c0.039,11.986,0.065,23.972,0.115,35.957
		c0.008,1.825,0.144,3.616,0.768,5.394c1.578,4.495,4.009,6.464,8.75,6.743c1.326,0.078,2.669,0.145,3.987,0.026
		c1.31-0.119,2.598-0.479,4.016-0.757c1.014,2.479,0.591,5.005,0.586,7.441c-0.005,2.471,0.796,4.924,0.222,7.629
		c-7.888,2.643-15.837,3.57-23.84,0.742c-5.763-2.036-9.928-5.821-11.897-11.856c-1.352-4.142-2.344-8.315-2.365-12.673
		c-0.055-11.653-0.062-23.307-0.087-34.96c-0.003-1.641,0-3.283,0-5.105c-3.714-1.069-7.416,0.058-11.08-0.786
		C951.051,75.752,951.051,71.147,951.051,65.78z"/>
	<path style="fill:#1756A4;" d="M646.217,208.291c-1.242,5.212-1.951,10.097-3.669,15.012c-5.266-1.535-10.367-2.558-15.739-2.736
		c-9.933-0.329-21.488,7.579-23.331,19.303c-1.322,8.406-0.942,16.614,4.736,23.653c4.181,5.182,9.708,7.953,16.302,8.502
		c5.176,0.431,10.295,0.087,15.252-1.688c1.066-0.382,2.194-0.766,3.669-0.253c0.826,4.444,1.667,8.969,2.555,13.744
		c-3.474,1.867-7.125,2.977-10.822,3.511c-11.167,1.613-22.235,1.509-32.611-3.763c-11.424-5.805-17.332-15.622-19.537-27.876
		c-1.279-7.103-1.089-14.249,1.029-21.197c4.326-14.19,13.06-23.953,27.881-27.719C623.357,203.881,634.56,204.038,646.217,208.291z
		"/>
	<path style="fill:#1756A4;" d="M774.188,286.554c0-39.108,0-77.871,0-116.905c6.719,0,13.306,0,20.15,0
		c0,38.848,0,77.727,0,116.905C787.743,286.554,781.182,286.554,774.188,286.554z"/>
	<path style="fill:#1756A4;" d="M882.677,29.092c6.976,0,13.267,0,19.88,0c0,38.745,0,77.569,0,116.653c-6.497,0-13.066,0-19.88,0
		C882.677,106.985,882.677,68.286,882.677,29.092z"/>
	<path style="fill:#1B57A4;" d="M534.307,206.552c5.601,0,11.023,0,16.532,0c1.452,4.662,0.625,9.387,1.379,14.797
		c5.412-11.77,13.617-17.95,26.716-16.151c0,6.246,0,12.179,0,18.203c-1.509,0.979-3.174,0.284-4.773,0.263
		c-11.055-0.144-18.847,6.72-19.214,17.835c-0.435,13.128-0.218,26.278-0.281,39.419c-0.009,1.801-0.001,3.601-0.001,5.674
		c-6.561,0-12.804,0-19.175,0c-1.231-1.336-0.604-3.079-0.609-4.648c-0.052-16.305-0.015-32.609-0.04-48.914
		c-0.011-6.812,0.253-13.631-0.578-20.427C534.027,210.679,533.815,208.69,534.307,206.552z"/>
	<path style="fill:#1455A3;" d="M605.416,64.588c0,6.391,0,12.353,0,18.196c-1.363,0.646-2.542,0.307-3.661,0.193
		c-12.252-1.247-20.743,7.514-20.75,19.984c-0.007,12.487-0.002,24.974-0.002,37.461c0,1.647,0,3.294,0,5.26
		c-6.733,0-13.261,0-19.993,0c-0.696-26.565,0.744-52.962-0.956-79.579c5.748,0,11.158,0,16.911,0
		c1.267,4.686,0.722,9.535,1.35,15.308c2.32-6.391,5.778-10.905,10.841-14.009C594.265,64.271,599.706,63.056,605.416,64.588z"/>
	<path style="fill:#1455A3;" d="M657.533,206.523c6.229,0,12.496,0,18.757,0c1.085,3.855,1.532,63.132,0.587,79.954
		c-6.35,0-12.74,0-19.187,0C656.793,283.178,656.578,212.315,657.533,206.523z"/>
	<path style="fill:#1054A3;" d="M921.163,66.031c6.533,0,12.818,0,19.461,0c0,26.433,0,52.944,0,79.712c-6.359,0-12.76,0-19.461,0
		C921.163,119.322,921.163,92.949,921.163,66.031z"/>
	<path style="fill:#1856A4;" d="M930.536,54.106c-6.709-0.161-11.008-4.813-10.767-11.65c0.234-6.61,5.099-11.449,11.469-11.312
		c5.693,0.122,11.296,4.412,11.272,12.156C942.49,49.583,937.067,54.262,930.536,54.106z"/>
	<path style="fill:#1856A4;" d="M678.25,184.043c-0.106,6.17-5.084,11.015-11.206,10.906c-5.676-0.101-10.281-5.234-10.145-11.305
		c0.137-6.072,4.736-10.564,10.862-10.608C673.609,172.993,678.355,177.974,678.25,184.043z"/>
	<path style="fill:#2E5DA8;" d="M1191.618,287.033c-5.196-0.074-9.635-4.491-9.522-9.477c0.128-5.621,4.881-10.307,10.224-10.081
		c5.121,0.217,9.54,4.703,9.514,9.658C1201.805,282.883,1197.437,287.116,1191.618,287.033z M1187.916,282.088
		c3.248,2.773,5.377,2.737,8.036-0.134c2.796-1.468,3.669-3.441,2.962-6.693c-0.678-3.117-2.983-5.059-6.271-5.283
		c-3.584-0.244-6.032,1.348-7.222,4.697C1184.348,277.693,1185.136,280.035,1187.916,282.088z"/>
	<path style="fill:#504D4D;" d="M1365.966,209.195c1.964-0.525,3.919-0.252,6.67,0.159c-2.343,0.67-3.996,1.142-5.649,1.614
		C1366.646,210.377,1366.306,209.786,1365.966,209.195z"/>
	<path style="fill:#111010;" d="M1478.33,141.582c-0.4-0.405-1.134-0.551-1.035-1.36c0.821-0.471,1.478-0.344,1.928,0.542
		C1478.926,141.037,1478.628,141.31,1478.33,141.582z"/>
	<path style="fill:#4668AF;" d="M1196.027,282.04c-2.384,0.32-2.631-2.006-3.657-3.197c-2.141,0.204-0.85,2.322-2.089,3.004
		c-0.685,0.05-1.49,0.108-2.295,0.167c0-2.809,0-5.618,0-8.641c2.815-1.478,5.336-1.799,8.143,0.545
		C1194.984,276.54,1196.156,279.272,1196.027,282.04z"/>
</g>
</svg>
