<?xml version="1.0" encoding="iso-8859-1"?>
<!-- Generator: Adobe Illustrator 27.0.0, SVG Export Plug-In . SVG Version: 6.00 Build 0)  -->
<svg version="1.1" id="Layer_1" xmlns="http://www.w3.org/2000/svg" xmlns:xlink="http://www.w3.org/1999/xlink" x="0px" y="0px"
	 viewBox="0 0 1503.667 304" style="enable-background:new 0 0 1503.667 304;" xml:space="preserve">
<g>
	<path style="fill:#EB3929;" d="M172.366,0c0.437,1.338,1.584,0.904,2.494,0.959c19.566,1.189,35.945,17.022,36.089,38.104
		c0.135,19.85-14.711,35.356-33.249,38.253c-17.455,2.727-36.531-8.03-42.435-25.624c-7.886-23.498,7.884-48.053,32.624-50.693
		c0.904-0.096,2.066,0.354,2.478-0.999C171.033,0,171.7,0,172.366,0z"/>
	<path style="fill:#ABACB0;" d="M932.366,304c0.064-0.317,0.042-0.629-0.068-0.934c6.716,0.005,13.433,0.01,20.149,0.016
		c-0.1,0.299-0.127,0.605-0.081,0.918C945.7,304,939.033,304,932.366,304z"/>
	<path style="fill:#797E84;" d="M687.288,90.06c28.733,0,57.019,0,85.568,0c25.15,69.85,50.276,139.635,75.528,209.769
		c-27.249,0-54.183,0-81.69,0c-2.237-8.269-4.553-16.826-6.923-25.589c-19.181,0-38.303,0-58.133,0
		c-2.817,7.994-3.733,16.919-6.617,25.59c-45.657,0-91.405,0-137.827,0c-3.666-38.146-6.772-76.372-10.75-114.607
		c-10.59,38.743-24.851,76.213-36.572,114.655c-15.025,0-29.815,0-44.966,0c-2.01-2.583-2.456-6.117-3.472-9.36
		c-5.59-17.855-11.111-35.732-16.499-53.649c-3.431-11.408-7.39-22.663-9.931-34.337c-1.231-5.655-2.236-11.336-2.799-17.112
		c-1.845-0.71-2.717-0.196-2.728,1.589c-0.028,4.494-0.641,8.946-0.935,13.416c-0.884,13.419-2.538,26.753-3.997,40.111
		c-0.865,7.918-1.422,15.87-2.259,23.792c-1.202,11.377-2.528,22.742-3.82,34.109c-0.052,0.46,0.051,1.057-1.084,1.409
		c-23.897,0-48.307,0-73.41,0c11.486-70.069,22.912-139.772,34.373-209.687c26.574,0,52.846,0,79.592,0
		c1.792,6.816,3.625,13.817,5.476,20.814c7.615,28.799,15.239,57.594,22.837,86.397c0.331,1.254,0.136,2.815,2.481,2.57
		c1.539-3.015,1.494-6.516,2.014-9.849c2.41-15.43,7.233-30.233,11.57-45.163c4.802-16.531,9.621-33.058,14.498-49.567
		c0.508-1.718,0.694-3.603,2.119-5.264c25.761,0,51.711,0,78.189,0c9.507,57.735,19.022,115.522,28.735,174.513
		C646.523,205.881,666.839,148.16,687.288,90.06z M745.836,223.733c-4.559-21.51-10.716-42.335-13.668-63.76
		c-3.305-0.195-3.385,1.685-3.786,3.522c-3.097,14.2-6.264,28.385-9.408,42.575c-1.278,5.769-2.55,11.538-3.904,17.663
		C725.45,223.733,735.341,223.733,745.836,223.733z"/>
	<path style="fill:#797E84;" d="M1134.023,189.962c-0.886,1.052-0.626,2.068-0.448,3.026c2.067,11.097,3.471,22.244,4.036,33.551
		c1.181,23.642,0.2,47.284,0.566,70.923c0.01,0.644-0.096,1.29-0.144,1.882c-3.74,0.945-66.886,1.179-73.51,0.276
		c0-69.695,0-139.426,0-209.442c24.556,0,48.977,0,73.859,0c3.934,6.589,8.026,13.398,12.074,20.232
		c18.283,30.868,36.548,61.746,54.849,92.603c0.771,1.301,0.961,3.403,3.626,3.006c1.222-3.437-0.611-6.675-1.068-9.962
		c-1.186-8.53-2.745-17.002-3.565-25.592c-1.904-19.95-0.541-39.941-0.934-59.908c-0.131-6.646-0.021-13.297-0.021-20.304
		c24.611,0,48.984,0,73.769,0c0,61.457,0,122.88,0,184.79c1.639-1.433,1.908-2.854,2.386-4.218
		c9.917-28.293,19.881-56.57,29.811-84.859c10.753-30.633,21.478-61.276,32.23-91.91c0.435-1.239,1.023-2.423,1.64-3.865
		c28.315,0,56.576,0,85.455,0c24.91,69.593,49.896,139.395,75.032,209.62c-27.239,0-53.98,0-81.225,0
		c-2.268-8.425-4.573-16.992-6.9-25.638c-19.426,0-38.553,0-58.003,0c-2.745,8.296-4.103,16.956-6.516,25.634
		c-49.252,0-98.511,0-148.214,0c-5.234-8.47-10.665-17.191-16.031-25.952c-16.398-26.769-32.772-53.553-49.154-80.332
		C1136.705,192.025,1136.14,190.144,1134.023,189.962z M1388.089,160.273c-3.016-0.862-3.317,0.905-3.749,2.846
		c-3.585,16.116-7.372,32.189-10.765,48.344c-0.831,3.957-2.613,7.829-2.161,12.268c10.047,0,19.929,0,30.396,0
		C1397.034,202.304,1390.901,181.564,1388.089,160.273z"/>
	<path style="fill:#797E84;" d="M952.448,303.082c-6.716-0.005-13.433-0.01-20.149-0.016c-30.418-1.799-57.442-11.796-79.06-33.859
		c-14.193-14.485-22.635-32.071-26.044-52.152c-1.682-9.907-2.399-19.852-1.693-29.791c1.809-25.449,10.417-48.063,28.528-66.688
		c16.955-17.435,37.693-27.195,61.297-31.684c7.68-1.461,15.408-2.581,23.176-2.715c20.651-0.355,40.491,3.72,59.583,11.661
		c13.196,5.488,25.084,12.933,35.301,22.905c5.009,4.888,9.099,10.56,12.322,16.817c0.463,0.899,0.98,1.738,0.687,3.332
		c-23.493,8.508-47.242,17.108-70.985,25.705c-3.057-3.995-5.859-7.433-9.59-10.069c-5.043-3.563-10.528-5.428-16.674-5.679
		c-7.907-0.323-15.561,0.318-22.659,4.331c-12.085,6.833-18.971,17.496-21.872,30.66c-2.699,12.247-2.102,24.437,3.54,35.985
		c6.751,13.815,17.374,21.848,33.154,22.375c9.103,0.304,17.434-1.803,24.892-7.107c3.623-2.576,6.271-5.834,7.521-11.047
		c-11.521-0.108-22.704,0.001-34.143-0.067c0-16.609,0-32.869,0-49.156c3.661-1.004,103.876-1.453,118.735-0.459
		c0.075,6.018,0.438,12.16-0.278,18.179c-0.746,6.273-0.757,12.571-1.505,18.85c-2.929,24.56-13.518,44.94-32.3,60.968
		c-15.321,13.074-33.121,21.322-52.624,25.944C965.328,301.795,958.95,302.956,952.448,303.082z"/>
	<path style="fill:#120E0F;" d="M77.278,90.154c19.743,0,38.889,0,58.728,0c25.589,69.779,51.258,139.778,77.113,210.282
		c-27.082,0-53.461,0-80.282,0c-22.062-60.167-44.165-120.446-66.34-180.92C70.031,109.892,73.616,100.127,77.278,90.154z"/>
	<path style="fill:#120E0F;" d="M306.512,300.567c-27.068,0-53.517,0-80.24,0c-2.953-7.972-5.903-15.867-8.805-23.779
		c-18.656-50.853-37.277-101.718-56.01-152.542c-1.226-3.327-1.282-6.241,0.014-9.527c3.16-8.013,6.047-16.132,9.121-24.414
		c19.44,0,38.888,0,58.818,0C254.99,160.065,280.633,229.994,306.512,300.567z"/>
	<path style="fill:#141011;" d="M119.641,300.574c-40.062,0-79.478,0-119.641,0c19.883-54.207,39.627-108.036,59.74-162.872
		C79.851,192.383,99.614,246.12,119.641,300.574z"/>
</g>
</svg>
