<?xml version="1.0" encoding="iso-8859-1"?>
<!-- Generator: Adobe Illustrator 27.0.0, SVG Export Plug-In . SVG Version: 6.00 Build 0)  -->
<svg version="1.1" id="Layer_1" xmlns="http://www.w3.org/2000/svg" xmlns:xlink="http://www.w3.org/1999/xlink" x="0px" y="0px"
	 viewBox="0 0 1563 664" style="enable-background:new 0 0 1563 664;" xml:space="preserve">
<g>
	<path style="fill:#262222;" d="M1563,490c-37.655-0.027-75.311-0.048-112.966-0.098c-1.792-0.002-3.631,0.324-5.641-0.369
		c0-2.454,0-4.882,0-7.453c2.817-1.253,5.844-0.964,8.795-0.969c5.03-0.009,9.961-0.623,14.777-2.038
		c3.575-1.05,4.762-2.831,3.924-6.251c-0.955-3.899-2.474-7.649-5.29-10.593c-10.144-10.604-19.059-22.253-28.563-33.4
		c-12.53-14.697-24.885-29.543-37.329-44.314c-0.189-0.224-0.563-0.291-1.079-0.543c-2.845,2.618-5.758,5.298-8.759,8.059
		c0,3.896,0,7.72,0,11.544c0,16.832-0.002,33.664,0.003,50.496c0.001,2.166-0.014,4.334,0.066,6.499
		c0.351,9.471,4.376,14.68,13.397,17.553c5.405,1.722,11.075,2.065,16.658,3.217c0.952,2.659,0.641,5.238,0.239,8.109
		c-39.414,0-78.636,0-118.049,0c-0.35-2.603-0.375-5.034,0.021-7.556c3.929-1.223,8.081-0.371,11.889-1.753
		c0.459-0.167,0.994-0.112,1.478-0.226c11.774-2.761,16.11-7.96,16.757-20.127c0.097-1.829,0.117-3.664,0.117-5.496
		c0.006-51.996,0.012-103.991-0.008-155.987c-0.002-4.319-0.049-8.63-1.201-12.875c-1.832-6.753-6.177-10.793-12.846-12.509
		c-0.322-0.083-0.662-0.094-0.981-0.184c-5.53-1.563-10.871-2.321-16.274,0.941c-6.095,3.68-10.821,8.48-12.993,15.206
		c-7.894,24.451-16.757,48.563-25.177,72.829c-15.216,43.846-30.61,87.631-45.922,131.444c-0.216,0.619-0.254,1.31-1.174,1.909
		c-2.649,0-5.602,0-8.992,0c-19.807-52.63-39.63-105.303-59.498-158.094c-2.757,0.411-2.638,2.716-3.239,4.178
		c-8.566,20.85-17.022,41.745-25.506,62.629c-12.291,30.256-24.582,60.512-36.966,90.998c-3.265,1.003-6.721,0.286-10.328,0.448
		c-2.233-4.03-3.396-8.355-4.921-12.507c-23.198-63.163-46.332-126.349-69.507-189.52c-1.256-3.423-2.652-6.801-4.137-10.131
		c-3.002-6.733-8.299-10.637-15.458-12.043c-1.627-0.32-3.295-0.387-4.831-1.537c0-2.204,0-4.497,0-7.14
		c34.311,0,68.544,0,103.084,0c0.838,2.158,0.163,4.611,0.374,7.267c-4.248,1.235-8.613,1.005-12.727,2.267
		c-7.062,2.167-9.546,5.234-9.495,12.579c0.02,2.839,0.322,5.618,1.265,8.34c11.672,33.666,23.311,67.343,34.959,101.017
		c2.485,7.183,4.971,14.365,7.499,21.669c2.459-2.581,27.806-63.037,42.376-100.827c-4.127-10.144-8.55-20.332-12.411-30.729
		c-3.046-8.202-8.973-11.963-17.199-12.983c-2.627-0.326-5.257-0.631-8.037-0.963c-0.648-2.557-0.254-5-0.28-7.401
		c3.875-0.717,103.05-0.906,109.674-0.21c0.454,2.357,0.216,4.763,0.155,7.393c-4.972,0.853-9.819,0.773-14.485,1.941
		c-1.291,0.323-2.558,0.602-3.791,1.157c-5.172,2.327-6.895,4.867-6.705,10.435c0.189,5.534,1.672,10.851,3.42,16.026
		c12.516,37.056,25.158,74.069,37.745,111.101c0.417,1.226,0.661,2.512,1.879,3.77c2.73-8.02,5.434-15.827,8.046-23.664
		c9.795-29.383,19.515-58.792,29.379-88.152c1.742-5.185,4.064-10.113,3.886-15.821c-0.303-9.751-4.106-14.217-13.87-15.554
		c-3.269-0.448-6.554-0.777-10.038-1.184c0-2.533,0-4.943,0-7.59c57.51,0,114.912,0,172.55,0c0,2.517,0,4.927,0,7.645
		c-2.639,0.366-5.227,0.793-7.83,1.076c-14.401,1.562-20.557,7.685-22.124,21.037c-0.448,3.82-0.617,7.622-0.614,11.455
		c0.02,21.165,0.01,42.33,0.011,63.495c0,1.609,0,3.219,0,5.443c3.019-1.733,4.849-3.916,6.835-5.81
		c22.903-21.853,45.752-43.763,68.589-65.685c3.363-3.229,6.658-6.531,9.512-10.248c0.923-1.202,1.879-2.388,2.293-3.828
		c2.288-7.96,0.486-12.602-6.779-14.166c-6.528-1.405-13.18-1.576-19.745-2.543c-0.483-0.071-0.966-0.136-1.706-0.239
		c-0.766-2.365-0.219-4.823-0.338-7.555c34.191,0,68.26,0,102.34,0c0.938,1.199,0.407,2.577,0.503,3.861
		c0.084,1.133,0.018,2.278,0.018,3.343c-3.692,1.227-7.187,1.367-10.612,1.852c-16.473,2.334-30.47,10.042-43.274,20.147
		c-16.633,13.126-31.846,27.843-46.924,42.69c-4.143,4.08-8.695,7.771-12.349,12.604c1.259,3.342,4.053,5.601,6.249,8.209
		c26.387,31.342,52.881,62.593,79.334,93.879c6.452,7.631,12.994,15.191,19.24,22.989c5.103,6.371,11.393,10.025,19.627,10.121
		C1563,484.667,1563,487.333,1563,490z"/>
	<path style="fill:#272323;" d="M0,481c7.926,0.44,15.504-1.251,22.653-4.434c5.529-2.462,7.772-7.558,8.316-13.306
		c0.392-4.139,0.458-8.32,0.46-12.482c0.028-50.657,0.024-101.315-0.001-151.972c-0.002-3.329-0.148-6.665-0.394-9.985
		c-0.547-7.371-4.137-12.426-11.345-14.759c-5.903-1.911-12.037-2.355-18.354-3.166c-0.825-2.833-0.228-5.747-0.389-8.902
		c29.61,0,58.861,0,88.563,0c22.925,52.274,45.926,104.72,69.335,158.098c23.783-53.237,47.209-105.675,70.66-158.168
		c29.524,0,58.791,0,88.312,0c0,2.903,0,5.67,0,9.008c-2.739,0.298-5.644,0.794-8.56,0.879c-2.87,0.084-5.65,0.671-8.353,1.378
		c-5.869,1.534-9.742,5.456-11.901,11.102c-1.936,5.064-2.312,10.352-2.313,15.701c-0.002,20.496-0.016,40.992-0.018,61.489
		c-0.003,29.161-0.027,58.323,0.026,87.484c0.01,5.313-0.06,10.625,1.168,15.895c1.577,6.769,5.468,11.157,12.058,13.318
		c5.703,1.871,11.643,2.487,17.79,3.412c0.62,2.677,0.356,5.248,0.217,8.076c-38.613,0-77.025,0-115.786,0
		c-0.612-2.524-0.399-5.095-0.121-7.835c3.714-1.307,7.673-0.527,11.316-1.741c1.882-0.627,3.904-0.83,5.795-1.436
		c8.059-2.585,12.23-7.905,12.881-16.417c0.19-2.489,0.228-4.995,0.229-7.493c0.013-54.323,0.012-108.647,0.013-162.97
		c0-1.153,0-2.305,0-3.458c-10.932,21.861-20.34,44.287-30.073,66.568c-9.754,22.329-19.434,44.69-29.115,67.051
		c-9.748,22.517-19.458,45.05-29.222,67.662c-3.005,0.669-5.97,0.123-9.255,0.392c-29.002-65.931-57.946-131.729-87.102-198.012
		c-0.849,1.593-0.606,2.835-0.606,4.002c-0.01,50.991-0.014,101.981,0.018,152.972c0.002,3.486,0.012,6.963,0.576,10.455
		c2.312,14.315,9.542,18.055,20.364,20.583c4.499,1.051,9.165,1.388,13.893,2.07c0.577,2.507,0.213,4.953,0.264,7.939
		c-27.47,0-54.734,0-81.998,0C0,487,0,484,0,481z"/>
	<path style="fill:#E3233A;" d="M873,0c1.277,1.704,3.352,1.013,5.014,1.585c14.386,4.954,23.546,17.517,23.603,32.996
		c0.07,19.165,0.017,38.329,0.017,57.494c0,0.664,0,1.328,0,1.981c-1.641-0.786-1.503-2.609-2.066-4.023
		c-5.489-13.794-18.104-22.088-32.184-21.811c-8.401,0.165-15.946,3.204-22.147,9.005c-4.133,3.866-8.037,7.977-12.037,11.985
		c-36.145,36.206-72.241,72.462-108.462,108.591c-10.245,10.219-22.579,12.999-36.275,8.337
		c-13.495-4.593-22.428-17.412-22.456-31.657c-0.037-18.998-0.009-37.996-0.009-56.994c0-1.494,0-2.988,0-4.481
		c1.534,4.443,3.234,8.695,5.855,12.529c11.83,17.301,35.232,20.173,50.962,5.943c7.53-6.812,14.52-14.223,21.702-21.415
		c21.665-21.698,43.299-43.427,64.956-65.133c11.182-11.207,22.452-22.328,33.554-33.614c5.3-5.388,11.443-9.015,18.856-10.506
		C862.294,0.729,862.63,0.279,863,0C866.333,0,869.667,0,873,0z"/>
	<path style="fill:#E3233A;" d="M710,0c0.14,0.523,0.493,0.807,1.009,0.929c15.397,3.655,26.361,15.818,26.733,31.335
		c0.511,21.305,0.128,42.632,0.128,65.046c-0.796-2.414-1.312-3.804-1.713-5.226c-3.166-11.244-13.975-23.055-31.213-23.793
		c-7.272-0.311-14.09,1.996-20.107,6.294c-4.228,3.02-7.736,6.825-11.387,10.467c-39.155,39.053-78.295,78.121-117.442,117.182
		c-1.631,1.628-3.296,3.222-5.068,4.953c-1.143-4.023-1.56-53.847-0.61-67.478c8.145-8.04,16.719-16.413,25.193-24.887
		c34.041-34.038,68.075-68.084,102.048-102.19c5.886-5.909,12.338-10.602,20.786-11.96c0.244-0.039,0.43-0.44,0.644-0.672
		C702.667,0,706.333,0,710,0z"/>
	<path style="fill:#322D2D;" d="M952,664c0.959-1.276-0.84-1.987-0.584-3.404c1.456-2.567,4.157-4.773,4.785-8.503
		c-2.308-1.255-5.146-2.082-5.257-5.562c-0.117-3.673,1.213-5.717,4.337-5.94c3.6-0.257,5.756,1.866,5.865,5.692
		c0.16,5.606-2.226,10.186-5.595,14.432c-0.859,1.083-2.35,1.693-2.551,3.284C952.667,664,952.333,664,952,664z"/>
	<path style="fill:#262222;" d="M867.645,481.917c0.084,0.947,0.182,1.602,0.191,2.257c0.024,1.657,0.008,3.315,0.008,4.919
		c-3.618,1.017-179.762,1.297-186.479,0.313c0-2.393,0-4.827,0-7.359c3.821-1.538,8.013-0.421,11.805-1.832
		c1.233-0.458,2.573-0.62,3.849-0.97c10.853-2.976,14.82-7.697,15.845-18.887c0.121-1.325,0.127-2.664,0.127-3.996
		c0.002-24.495-0.004-48.989-0.009-73.483c0-0.8,0-1.6,0-2.634c-28.048,0-55.789,0-83.57,0c-0.979,1.166-0.499,2.551-0.5,3.806
		c-0.036,23.996-0.04,47.992-0.01,71.988c0.004,3.147,0.081,6.255,0.827,9.406c1.537,6.498,5.609,10.397,11.641,12.505
		c5.983,2.092,12.257,2.805,18.59,3.393c0.871,2.732,0.661,5.311,0.178,8.143c-39.272,0-78.355,0-117.757,0
		c-0.602-2.44-0.302-4.873-0.207-7.415c2.943-1.53,6.258-0.935,9.226-1.925c0.928-0.309,1.988-0.197,2.955-0.42
		c12.553-2.899,17.356-8.677,17.549-21.671c0.176-11.829,0.051-23.662,0.051-35.493c0.002-41.493-0.006-82.986,0.013-124.48
		c0.001-3.341-0.304-6.629-0.796-9.938c-1.184-7.964-5.857-12.681-13.252-15.227c-5.044-1.737-10.44-1.634-15.667-3.191
		c0-2.472,0-4.89,0-7.518c39.31,0,78.416,0,117.786,0c0.903,2.288,0.272,4.731,0.496,7.668c-2.912,0.351-5.65,0.863-8.402,0.966
		c-3.198,0.12-6.227,0.852-9.29,1.659c-8.653,2.279-13.779,8.775-13.862,18.379c-0.208,24.152-0.069,48.308-0.069,72.79
		c27.981,0,55.864,0,83.766,0c0.799-1.041,0.436-2.238,0.438-3.345c0.024-21.33,0.03-42.66,0.005-63.99
		c-0.004-3.322-0.145-6.606-0.846-9.918c-1.725-8.158-6.959-12.565-14.674-14.451c-5.002-1.223-10.127-1.759-15.603-2.132
		c-0.644-2.397-0.22-4.837-0.255-7.543c39.854,0,79.624,0,119.657,0c1.003,2.169,0.217,4.631,0.472,7.25
		c-4.905,1.602-9.999,1.054-14.767,2.386c-3.362,0.94-6.691,1.838-9.55,4.024c-5.192,3.969-6.969,9.521-7.511,15.676
		c-0.116,1.324-0.041,2.665-0.041,3.998c-0.001,52.991-0.005,105.983,0.008,158.974c0.001,2.823,0.167,5.62,0.548,8.448
		c1.163,8.644,6.145,15.427,17.962,16.958c3.972,0.515,7.999,0.477,11.973-0.016c3.732-0.463,6.863-2.321,9.673-4.785
		c6.791-5.954,11.253-13.585,14.877-21.627c6.537-14.504,12.7-29.179,18.91-43.828c21.091-49.749,42.133-99.518,63.202-149.277
		c0.387-0.915,0.87-1.79,1.357-2.783c2.914-0.862,5.899-0.227,8.689-0.435c1.787,1.316,2.131,3.198,2.858,4.828
		c21.278,47.694,42.553,95.39,63.786,143.104c8.157,18.33,16.411,36.615,25.119,54.691c1.509,3.131,3.315,6.126,5.09,9.121
		c4.595,7.753,10.568,13.327,20.69,12.176c0.689,3.087,0.333,5.822,0.329,8.818c-38.172,0-76.046,0-114.356,0
		c0-1.834-0.02-3.457,0.008-5.079c0.017-0.981-0.211-2.012,0.746-3.258c4.619-0.479,9.558-1.099,14.515-1.462
		c2.526-0.185,4.946-0.769,7.284-1.544c3.63-1.204,5.647-3.79,5.933-7.777c0.292-4.075-0.515-7.934-1.678-11.766
		c-3.675-12.111-8.963-23.543-14.66-34.989c-26.309,0-52.593,0-79.115,0c-4.333,8.947-7.602,18.313-10.67,27.745
		c-1.383,4.251-2.434,8.614-3.525,12.954c-1.476,5.872,0.139,9.602,5.433,12.447c4.769,2.563,10.046,3.223,15.327,3.828
		C862.611,481.355,864.984,480.944,867.645,481.917z M859.469,410.487c23.173,0,45.654,0,68.225,0
		c-3.526-10.493-33.891-78.031-36.269-80.603C880.807,356.669,870.215,383.383,859.469,410.487z"/>
	<path style="fill:#262222;" d="M425.595,257.847c24.781-0.272,47.141,5.036,67.818,16.889c27.854,15.967,45.775,39.623,53.4,70.714
		c6.156,25.098,5.337,50.119-3.475,74.613c-11.277,31.346-32.71,53.033-63.226,65.949c-18.373,7.777-37.609,10.457-57.471,10.06
		c-16.65-0.333-32.737-3.194-48.088-9.561c-38.088-15.798-61.191-44.232-69.165-84.495c-4.662-23.536-3.546-47.044,5.18-69.713
		c11.666-30.307,32.983-51.367,62.649-64.11C390.242,260.88,408.108,257.576,425.595,257.847z M364.745,379.042
		c-0.266,14.892,0.929,30.975,4.268,46.838c2.68,12.736,6.654,25.019,14.013,35.954c5.796,8.612,13.172,15.344,22.812,19.503
		c7.679,3.313,15.701,3.983,23.926,3.768c14.455-0.379,26.331-6.15,35.895-16.862c6.756-7.567,11.081-16.51,14.405-25.974
		c6.182-17.601,8.139-35.927,8.859-54.406c0.656-16.839-0.062-33.648-2.935-50.283c-2.583-14.952-6.58-29.469-14.492-42.638
		c-9.32-15.513-22.288-25.153-40.936-26.302c-18.387-1.133-33.135,5.46-44.351,19.97c-6.905,8.933-11.145,19.181-14.294,29.932
		C366.251,337.876,364.484,357.688,364.745,379.042z"/>
	<path style="fill:#E3233A;" d="M1015.68,2.95c0,23.033,0,45.344,0,68.564c-4.273,4.087-9.044,8.486-13.633,13.067
		c-37.848,37.773-75.674,75.568-113.48,113.384c-9.441,9.443-20.84,12.507-33.42,9c-12.652-3.526-20.549-12.346-23.723-25.22
		c-0.526-2.131-0.584-4.292-0.589-6.448c-0.039-19.324-0.041-38.648-0.037-57.972c0-0.941-0.157-1.936,0.678-3.086
		c1.992,7.418,5.639,13.525,11.443,18.391c12.938,10.849,33.11,10.099,45.03-1.884c12.686-12.753,25.307-25.571,38.021-38.296
		c28.728-28.754,57.495-57.468,86.25-86.195C1013.149,5.328,1014.117,4.441,1015.68,2.95z"/>
	<path style="fill:#2C2728;" d="M463.806,651.378c0-21.617,0-42.704,0-64.116c2.43-0.57,4.897-0.234,7.321-0.256
		c5.992-0.055,11.989,0.124,17.977-0.047c13.241-0.378,27.316,8.561,30.095,25.064c1.321,7.842,0.625,15.289-2.676,22.355
		c-5.243,11.223-14.75,16.356-26.724,16.922C481.336,651.701,472.839,651.378,463.806,651.378z M472.796,643.856
		c6.143,0,11.979,0.482,17.704-0.105c10.41-1.068,16.926-7.282,19.296-17.333c0.929-3.938,0.628-7.9,0.176-11.813
		c-1.45-12.564-9.448-20.67-22.466-20.597c-3.829,0.021-7.658-0.027-11.487,0.023c-1.09,0.014-2.349-0.439-3.223,0.818
		C472.796,610.935,472.796,627.081,472.796,643.856z"/>
	<path style="fill:#2E2929;" d="M1058.141,651.762c-3.055,0-5.323,0-7.874,0c0-21.488,0-42.863,0-64.488c2.194,0,4.302,0,6.758,0
		c11.956,15.515,24.09,31.263,36.059,46.795c0.725-0.137,0.905-0.122,1.014-0.203c0.125-0.093,0.221-0.259,0.269-0.413
		c0.096-0.309,0.214-0.63,0.214-0.946c0.01-14.967,0.009-29.935,0.009-45.189c2.633-0.599,5.067-0.284,7.829-0.221
		c0,21.285,0,42.492,0,63.766c-2.08,0.973-4.204,0.528-6.825,0.164c-12.141-15.77-24.478-31.795-37.451-48.646
		C1058.141,619.31,1058.141,635.273,1058.141,651.762z"/>
	<path style="fill:#2F2A2A;" d="M393.272,587.276c12.363,16.073,24.701,32.113,37.671,48.974c0-16.928,0-32.905,0-49.071
		c2.723,0,5.007,0,7.642,0c0,21.15,0,42.37,0,63.788c-4.054,1.051-7.107,0.504-10.056-3.491
		c-10.568-14.315-21.612-28.278-32.476-42.374c-0.484-0.628-0.96-1.261-2.176-2.858c0,17.12,0,33.104,0,49.256
		c-2.702,0.715-4.955,0.4-7.51,0.308c0-21.551,0-42.919,0-64.532C388.79,587.276,391.057,587.276,393.272,587.276z"/>
	<path style="fill:#2B2627;" d="M736.312,587.05c8.418,0,16.532-0.04,24.644,0.025c2.332,0.019,4.562,0.778,6.743,1.572
		c6.849,2.493,10.36,7.56,10.763,14.683c0.396,7-2.397,12.616-8.332,16.443c-1.898,1.224-4.093,1.986-6.441,3.097
		c6.765,9.295,13.456,18.488,20.259,27.834c-0.775,0.151-1.099,0.26-1.426,0.272c-8.43,0.296-8.434,0.297-13.466-6.543
		c-3.739-5.083-7.643-10.059-11.131-15.309c-2.01-3.025-4.403-4.294-7.921-3.886c-1.449,0.168-2.933,0.028-4.859,0.028
		c0,8.687,0,17.079,0,25.732c-3.168,0-5.879,0-8.833,0C736.312,629.775,736.312,608.713,736.312,587.05z M745.287,593.953
		c0,8.365,0,16.084,0,24.066c5.374-0.24,10.523,0.66,15.517-1.042c4.134-1.409,8.655-5.168,8.312-12.143
		c-0.268-5.452-2.466-8.326-8.386-10.132C755.7,593.168,750.59,594.238,745.287,593.953z"/>
	<path style="fill:#2F2A2A;" d="M583.487,586.362c2.738,0,5.207,0,7.5,0c1.2,0.807,0.939,1.878,0.94,2.836
		c0.014,12.487,0.277,24.982-0.077,37.459c-0.281,9.901-4.103,18.213-13.677,22.551c-9.81,4.445-19.454,3.796-28.279-2.572
		c-6.519-4.704-9.367-11.695-9.558-19.438c-0.324-13.143-0.065-26.301-0.031-39.453c0.001-0.298,0.23-0.596,0.491-1.229
		c2.573-0.592,5.316-0.124,7.825-0.275c1.194,1.953,0.739,3.661,0.744,5.288c0.039,11.155,0.034,22.31,0.011,33.465
		c-0.006,2.839,0.203,5.64,1.186,8.32c2.543,6.935,8.812,11.019,16.294,10.664c8.007-0.38,13.404-4.837,15.318-12.493
		c0.571-2.285,0.836-4.553,0.827-6.902c-0.04-10.988-0.035-21.977,0.001-32.966C583.008,589.992,582.654,588.316,583.487,586.362z"
		/>
	<path style="fill:#2B2627;" d="M835.897,586.765c13.275,0,26.067,0,39.061,0c0.772,2.355,0.407,4.604,0.242,7.226
		c-10.11,0-20.036,0-30.203,0c0,7.094,0,13.821,0,21.043c8.113,0,16.182,0,24.495,0c0,2.579,0,4.671,0,7.155
		c-8.025,0-15.975,0-23.998,0c-1.376,3.689-0.581,7.18-0.715,10.587c-0.138,3.491-0.03,6.991-0.03,11.012c10.129,0,20.18,0,30.144,0
		c0.831,2.625,0.331,4.73,0.475,7.028c-13.3,0-26.242,0-39.47,0C835.897,629.573,835.897,608.359,835.897,586.765z"/>
	<path style="fill:#2F2A2A;" d="M1177.074,594.345c-1.121,1.849-2.051,3.414-3.405,4.568c-2.196,0.711-3.53-0.799-5.018-1.756
		c-5.825-3.744-12.275-4.288-18.724-2.852c-8.384,1.866-13.429,7.677-15.698,15.765c-1.836,6.545-1.679,13.114,0.674,19.617
		c3.19,8.817,10.054,13.784,19.476,14.45c7.006,0.496,13.237-0.682,18.285-6.203c2.163,0.795,3.36,2.524,4.702,4.419
		c-4.187,5.58-9.934,8.53-16.456,9.394c-21.756,2.882-34.428-9.551-36.71-28.065c-1.151-9.334,0.748-18.183,6.515-25.963
		c5.08-6.854,12.129-10.386,20.274-11.448C1160.609,585.018,1169.482,587.139,1177.074,594.345z"/>
	<path style="fill:#2F2A2A;" d="M610.856,644.065c1.244-1.959,2.132-3.356,2.917-4.593c2.646-1.318,4.226,0.304,5.977,1.579
		c5.302,3.859,11.108,5.168,17.376,2.827c3.585-1.339,6.162-3.788,7.037-7.754c1.122-5.085-0.186-8.28-4.676-10.893
		c-2.455-1.428-5.196-2.149-7.847-3.09c-2.649-0.94-5.373-1.714-7.93-2.859c-7.008-3.138-10.138-8.225-9.901-15.697
		c0.238-7.499,4.095-13.067,11.115-15.531c9.805-3.442,18.822-2.146,26.987,4.71c-1.099,2.235-1.887,4.222-3.466,5.685
		c-2.161,0.192-3.417-1.333-4.927-2.263c-4.32-2.659-8.928-3.463-13.86-2.27c-4.239,1.025-7.116,4.153-7.61,8.199
		c-0.447,3.662,1.234,6.68,5.305,8.745c2.497,1.267,5.209,2.113,7.835,3.119c2.784,1.067,5.671,1.91,8.354,3.184
		c6.24,2.964,9.717,7.694,9.517,14.949c-0.26,9.403-5.604,16.589-14.696,18.905C628.087,653.637,619.109,650.961,610.856,644.065z"
		/>
	<path style="fill:#2F2A2A;" d="M931.856,592.705c-0.953,2.262-1.642,4.447-3.55,5.885c-2.23-0.243-3.629-1.826-5.325-2.808
		c-4.103-2.374-8.417-2.93-12.983-1.905c-4.198,0.942-6.934,3.725-7.543,7.626c-0.64,4.107,0.935,7.239,5.043,9.343
		c2.345,1.201,4.869,2.064,7.34,3.005c2.478,0.943,5.042,1.673,7.48,2.704c11.794,4.987,14.726,19.273,5.94,28.709
		c-5.922,6.36-13.534,7.56-21.534,6.381c-5.739-0.846-11.155-3.015-15.217-7.703c0.763-1.828,1.635-3.375,2.739-4.609
		c2.912-1.297,4.508,0.884,6.346,2.115c5.148,3.448,10.59,4.657,16.542,2.485c5.515-2.013,7.632-6.342,7.819-11.574
		c0.096-2.698-1.186-4.768-3.511-6.186c-3.144-1.917-6.618-3.039-10.104-4.075c-2.872-0.853-5.715-1.765-8.372-3.132
		c-6.25-3.215-9.207-8.412-8.898-15.418c0.304-6.885,3.299-12.3,9.732-14.991C913.794,584.375,923.214,585.599,931.856,592.705z"/>
	<path style="fill:#2B2627;" d="M696.932,650.996c-3.082,0.399-5.683,0.355-8.765,0.044c0-18.807,0-37.54,0-56.761
		c-7.197,0-13.933,0-20.874,0c0-2.575,0-4.661,0-7.021c16.798,0,33.512,0,50.43,0c0,2.248,0,4.331,0,6.922
		c-6.856,0-13.589,0-20.792,0C696.932,613.403,696.932,632.127,696.932,650.996z"/>
	<path style="fill:#363131;" d="M1561.409,333.738c0.003,15.509-11.968,27.552-27.362,27.691
		c-16.507,0.15-28.869-13.091-28.803-28.165c0.066-14.82,11.624-28.183,28.349-28.106
		C1549.273,305.231,1561.651,317.94,1561.409,333.738z M1556.978,333.476c-0.364-12.168-8.308-24.02-23.945-24.278
		c-14.201-0.234-24.594,10.06-24.788,23.996c-0.191,13.739,9.765,24.407,24.132,24.623
		C1544.921,358.006,1556.102,349.014,1556.978,333.476z"/>
	<path style="fill:#322D2D;" d="M801.48,587.197c2.945-0.36,5.708-0.29,8.689-0.037c0,21.23,0,42.352,0,63.75
		c-2.817,0.821-5.678,0.647-8.689,0.043C801.48,629.68,801.48,608.583,801.48,587.197z"/>
	<path style="fill:#332E2E;" d="M1015.897,587.097c2.9,0,5.544,0,8.487,0c0,21.336,0,42.553,0,63.945
		c-2.761,0.639-5.393,0.303-7.982,0.291C1015.342,647.643,1014.961,599.765,1015.897,587.097z"/>
	<path style="fill:#2B2627;" d="M360.626,651.169c-2.952,0-5.437,0-8.275,0c0-21.183,0-42.359,0-63.878
		c2.5-0.637,5.248-0.204,8.275-0.219C360.626,608.414,360.626,629.578,360.626,651.169z"/>
	<path style="fill:#322D2D;" d="M1204.723,646.301c-1.711,4.422-3.834,6.138-6.904,5.582c-2.623-0.475-4.804-3.075-4.708-5.612
		c0.099-2.631,2.248-5.059,4.865-5.499C1201.441,640.19,1203.075,641.529,1204.723,646.301z"/>
	<path style="fill:#363131;" d="M1524.819,320.743c-1.172-1.167-2.755-0.246-3.279-1.61c-0.091-0.468,0.083-0.73,0.513-0.738
		c4.64-0.092,9.281-0.173,13.922-0.256c3.888-0.069,6.671,1.662,8.249,5.207c1.31,2.942,0.411,6.266-2.4,8.945
		c-0.83,0.791-1.823,1.41-2.848,2.189c2.995,4.591,6.208,8.94,10.321,13.223c-2.421,0.465-4.306,0.374-6.191,0.133
		c-3.917-3.42-5.248-8.483-8.479-12.522c-0.882-0.459-2.014-0.351-3.422-0.074c-0.626,3.36-0.054,6.797-0.268,9.865
		c0.959,1.559,2.928,0.733,3.53,2.659c-4.429,0.462-8.758,0.307-13.18,0.087c0.6-1.8,2.56-0.639,3.531-2.311
		C1524.819,337.604,1524.819,329.194,1524.819,320.743z M1530.919,320.128c0.184,4.583-0.341,8.804,0.34,12.979
		c6.013,0.014,8.336-1.784,8.457-6.267C1539.847,321.997,1537.524,320.079,1530.919,320.128z"/>
</g>
</svg>
