<?xml version="1.0" encoding="iso-8859-1"?>
<!-- Generator: Adobe Illustrator 27.0.0, SVG Export Plug-In . SVG Version: 6.00 Build 0)  -->
<svg version="1.1" id="Layer_1" xmlns="http://www.w3.org/2000/svg" xmlns:xlink="http://www.w3.org/1999/xlink" x="0px" y="0px"
	 viewBox="0 0 1518 1644" style="enable-background:new 0 0 1518 1644;" xml:space="preserve">
<g>
	<path style="fill:#151B23;" d="M1518,177c-1.035,0.188-1.227,1.21-1.355,1.864c-0.998,5.093-4.282,8.853-7.267,12.782
		c-57.817,76.104-115.647,152.199-173.469,228.299c-57.123,75.179-114.239,150.363-171.359,225.545
		c-38.869,51.16-77.739,102.32-116.612,153.477c-5.724,7.532-11.466,15.05-17.097,22.44c0.001,1.91,1.304,2.893,2.166,4.044
		c42.327,56.497,84.731,112.937,127.019,169.463c14.131,18.889,28.098,37.907,42.329,56.714
		c25.808,34.106,51.349,68.41,77.047,102.597c37.018,49.246,73.871,98.617,110.93,147.833c5.325,7.073,6.177,14.536,3.484,22.504
		c-1.747,5.17-6.044,8.309-10.997,10.152c-2.395,0.891-5.036,1.333-7.74,1.33c-47.831-0.059-95.661-0.07-143.492-0.015
		c-7.009,0.008-12.447-2.784-16.593-8.292c-6.106-8.111-12.18-16.246-18.269-24.371c-55.313-73.814-110.628-147.628-165.94-221.442
		c-19.262-25.705-38.519-51.413-57.779-77.119c-44.608-59.539-89.216-119.078-133.828-178.614c-0.991-1.322-2.038-2.603-3.189-4.069
		c9.88-12.934,19.849-25.988,29.823-39.038c31.852-41.678,63.711-83.351,95.558-125.033c30.716-40.202,61.417-80.415,92.129-120.619
		c54.873-71.832,109.75-143.661,164.624-215.493c40.026-52.396,80.097-104.759,120.021-157.233
		c5.5-7.229,12.254-10.548,21.338-10.515c44.997,0.162,89.995,0.071,134.992,0.077c6.445,0.001,12.707,0.674,17.294,5.97
		c1.932,2.231,3.976,4.406,4.335,7.653c0.119,1.077,0.538,2.523,1.896,3.111C1518,173,1518,175,1518,177z"/>
	<path style="fill:#151B23;" d="M0,1467c2.832-8.702,9.048-15.252,14.4-22.303c62.716-82.617,125.515-165.171,188.266-247.761
		c53.181-69.994,106.314-140.025,159.495-210.019c40.597-53.432,81.24-106.829,121.834-160.263c1.291-1.699,2.85-3.25,3.798-5.796
		C366.285,659.02,244.639,496.999,122.926,334.891c0-3.098-0.129-6.086,0.025-9.06c0.411-7.929,6.318-14.981,14.028-16.762
		c2.911-0.673,5.86-1.029,8.893-1.025c45.665,0.054,91.33,0.057,136.995-0.002c3.505-0.005,6.875,0.78,10.243,1.374
		c3.468,0.612,6.312,2.756,8.512,5.693c8.882,11.859,17.86,23.646,26.758,35.492c50.801,67.634,101.589,135.277,152.382,202.917
		c44.799,59.656,89.597,119.313,134.399,178.967c21.566,28.715,43.142,57.423,64.703,86.141c0.786,1.047,1.833,1.946,2.187,3.774
		c-4.745,6.242-9.649,12.725-14.585,19.183c-49.644,64.959-99.294,129.914-148.942,194.87
		c-16.278,21.297-32.552,42.598-48.835,63.892c-52.88,69.151-105.759,138.303-158.646,207.449
		c-44,57.527-88.042,115.021-131.971,172.602c-5.044,6.611-11.386,9.574-19.59,9.558c-46.831-0.092-93.663-0.072-140.494-0.093
		c-6.301-0.003-11.056-3.043-14.613-7.94C2.615,1479.5,1.44,1476.654,0,1474C0,1471.667,0,1469.333,0,1467z"/>
	<path style="fill:#151B23;" d="M407,0c0.245,0.981,1.266,1.224,1.898,1.371c5.281,1.228,8.318,5.152,11.342,9.131
		c37.67,49.553,75.355,99.096,113.01,148.66c44.684,58.816,89.337,117.655,134.016,176.474
		c30.693,40.407,61.406,80.798,92.317,121.468c4.614-4.595,8.407-9.803,12.47-14.753c33.915-41.32,67.755-82.702,101.647-124.041
		c1.891-2.307,3.713-4.721,6.214-6.457c4.253-2.951,9.087-3.763,14.121-3.766c18.497-0.011,36.993-0.005,55.49-0.005
		c27.162,0,54.324-0.034,81.485,0.034c4.434,0.011,8.887,0.445,13.004,2.35c8.224,3.804,11.875,12.151,10.185,21.197
		c-0.715,3.825-2.35,6.892-4.543,9.76c-38.22,49.992-76.494,99.942-114.752,149.905c-41.898,54.716-83.796,109.433-125.684,164.157
		c-15.576,20.349-31.117,40.724-46.703,61.065c-0.88,1.148-1.567,2.541-3.097,3.176c-24.564-32.724-49.115-65.448-73.683-98.159
		c-40.864-54.407-81.745-108.801-122.606-163.21c-30.363-40.43-60.712-80.872-91.058-121.315
		c-38.74-51.631-77.462-103.275-116.208-154.901c-37.27-49.659-74.546-99.313-111.858-148.941
		c-4.288-5.703-6.456-11.615-4.358-18.89c2.035-7.057,6.617-11.137,13.299-13.333c0.73-0.24,1.712,0.078,2.051-0.976
		C305.667,0,356.333,0,407,0z"/>
	<path style="fill:#414147;" d="M1263.102,1643.053c-0.034,0.316-0.068,0.631-0.102,0.947c-50.333,0-100.667,0-151,0
		c-0.042-0.311-0.084-0.622-0.126-0.933c4.323-0.022,8.646-0.063,12.969-0.062
		C1170.929,1643.017,1217.016,1643.036,1263.102,1643.053z"/>
	<path style="fill:#151B23;" d="M1263.102,1643.053c-46.086-0.017-92.173-0.036-138.259-0.048c-4.323-0.001-8.646,0.04-12.969,0.062
		c-4.843-0.73-8.57-3.153-11.536-7.072c-17.779-23.498-35.625-46.945-53.453-70.406c-59.626-78.466-119.254-156.931-178.882-235.396
		c-35.24-46.372-70.482-92.744-105.725-139.114c-1.099-1.445-2.02-3.048-3.787-4.319c-5.388,6.545-10.763,13.063-16.126,19.59
		c-31.609,38.464-63.216,76.929-94.823,115.395c-1.586,1.93-3.312,3.763-4.727,5.812c-4.211,6.095-10.359,7.975-17.297,8.161
		c-3.663,0.099-7.332,0.018-10.998,0.018c-42.493,0-84.986,0.007-127.48-0.008c-6.459-0.002-12.626-1.082-17.493-5.817
		c-6.868-6.683-8.473-14.035-4.057-22.739c1.522-3,3.62-5.581,5.639-8.216c43.224-56.407,86.486-112.785,129.706-169.196
		c52.013-67.887,103.994-135.799,155.991-203.697c0.505-0.66,1.055-1.286,1.656-2.015c1.728,0.874,2.523,2.575,3.575,3.976
		c107.528,143.203,215.031,286.425,322.54,429.642c63.155,84.132,126.278,168.289,189.56,252.326
		c4.372,5.806,5.561,11.931,4.802,18.696C1278.286,1634.716,1270.893,1642.737,1263.102,1643.053z"/>
</g>
</svg>
