<?xml version="1.0" encoding="iso-8859-1"?>
<!-- Generator: Adobe Illustrator 27.0.0, SVG Export Plug-In . SVG Version: 6.00 Build 0)  -->
<svg version="1.1" id="Layer_1" xmlns="http://www.w3.org/2000/svg" xmlns:xlink="http://www.w3.org/1999/xlink" x="0px" y="0px"
	 viewBox="0 0 1261 1564" style="enable-background:new 0 0 1261 1564;" xml:space="preserve">
<g>
	<path style="fill:#E52027;" d="M1261,188c0,0.667,0,1.333,0,2c-1.894,1.787-0.937,4.082-0.937,6.115
		c-0.046,433.601-0.043,867.202-0.046,1300.802c0,21.996-0.029,43.993-0.044,65.989c-2.166,0.031-4.331,0.089-6.496,0.089
		C835.651,1563,417.825,1563,0,1563c0-458.333,0-916.667,0-1375c13.325,0.053,26.65,0.151,39.976,0.153
		c109.464,0.012,218.928,0.01,328.392-0.021c1.925-0.001,3.972,0.567,6.017-0.738c0-38.248,0-76.548,0-114.731
		c15.351-14.923,30.535-29.647,45.676-44.415C429.71,18.835,439.704,9.775,449,0c122.333,0,244.667,0,367,0
		c1.075,1.246,2.077,2.566,3.237,3.728c15.067,15.093,30.125,30.194,45.251,45.227c8.02,7.97,16.168,15.812,23.898,23.358
		c0,20.051-0.018,39.206,0.005,58.361c0.023,19.063-0.111,38.129,0.103,57.486c2.672,0,4.65,0,6.629,0
		c119.8,0,239.6,0.001,359.4-0.007C1256.682,188.153,1258.841,188.053,1261,188z M204.547,829.412c0-60.933,0-121.383,0-181.833
		c0.282-0.049,0.563-0.099,0.845-0.148c30.653,61.401,61.306,122.803,91.86,184.006c14.572,0,28.527,0,42.647,0
		c33.509-60.833,66.971-121.58,100.434-182.326c0.295,0.094,0.59,0.187,0.885,0.281c0,59.923,0,119.846,0,179.932
		c24.441,0,48.503,0,72.569,0c0-109.249,0-218.181,0-327.292c-18.327,0-36.419,0-54.65,0
		c-41.824,79.364-83.587,158.615-125.655,238.444c-41.865-79.936-83.38-159.203-124.828-238.343c-19.737,0-39.141,0-58.564,0
		c0,109.23,0,218.141,0,327.28C168.12,829.412,185.883,829.412,204.547,829.412z M708.533,500.014c0,110.801,0,221.003,0,331.36
		c18.276,0,36.194,0,54.463,0c0-67.154,0-134.042,0-201.978c58.311,67.945,115.955,135.112,173.569,202.245
		c3.975,0,7.634,0,11.293,0c3.499,0,7.003,0.115,10.496-0.032c3.571-0.151,7.225,0.663,10.732-0.524c0-110.473,0-220.684,0-330.956
		c-18.199,0-36.086,0-54.251,0c0,65.9,0,131.482,0,198.403C859.66,631.67,805.255,565.739,751.021,500.014
		C736.653,500.014,722.696,500.014,708.533,500.014z M696.247,1132.095c0.176-8.668-1.21-25.737-4.303-42.656
		c-3.759-20.564-10.204-40.158-20.812-58.315c-8.677-14.852-20.045-27.364-32.885-38.596c-13.794-12.068-30.256-18.617-48.134-21.26
		c-19.665-2.907-39.441-3.444-59.21-0.266c-12.734,2.047-24.952,5.58-36.312,11.733c-24.129,13.07-41.082,33.043-53.36,57.071
		c-13.712,26.835-18.941,55.867-20.19,85.699c-1.056,25.2,0.579,50.266,5.057,75.1c3.76,20.853,9.764,40.989,19.779,59.801
		c12.626,23.716,30.734,41.565,55.559,52.291c12.628,5.456,25.879,8.324,39.541,9.56c18.361,1.662,36.581,1.134,54.545-3.36
		c25.048-6.266,45.635-19.502,61.836-39.633c11.187-13.901,18.981-29.584,24.709-46.365
		C692.275,1202.99,696.18,1172.106,696.247,1132.095z M370.355,983.331c-1.812-0.58-3.038-1.053-4.303-1.364
		c-14.856-3.655-29.854-6.424-45.075-8.179c-11.602-1.337-23.217-2.089-34.864-2.384c-13.173-0.334-26.274,0.787-39.337,2.529
		c-18.288,2.44-35.77,7.371-51.893,16.496c-12.876,7.287-23.112,17.4-30.528,30.19c-12.317,21.24-16.319,44.116-12.244,68.264
		c2.543,15.069,8.82,28.513,19.459,39.708c8.544,8.99,18.373,16.358,28.944,22.773c14.241,8.642,29.448,15.292,44.803,21.624
		c11.812,4.871,23.712,9.562,35.186,15.181c10.188,4.99,19.946,10.759,27.198,19.827c8.401,10.505,10.597,22.073,4.982,34.509
		c-4.995,11.064-14.139,17.861-25.025,22.435c-9.3,3.908-19.136,5.478-29.177,5.853c-13.516,0.504-26.97-0.477-40.376-2.001
		c-9.908-1.126-19.823-2.426-29.494-4.955c-9.59-2.508-19.133-5.213-28.782-9.568c-3.443,17.762-6.807,35.114-10.159,52.404
		c1.087,0.568,1.638,0.958,2.251,1.161c5.198,1.723,10.358,3.588,15.622,5.082c28.038,7.953,56.629,11.765,85.783,10.942
		c12.484-0.352,24.913-1.474,37.193-3.863c15.88-3.089,31.18-7.772,45.492-15.584c39.818-21.734,54.772-59.853,48.752-100.668
		c-2.937-19.91-13.379-35.455-28.291-48.448c-17.097-14.896-36.503-26.006-57.09-35.179c-15.303-6.819-31.014-12.724-45.939-20.39
		c-9.964-5.118-19.323-11.081-26.908-19.522c-13.36-14.867-9.408-34.77,2.252-44.636c5.957-5.04,12.85-8.192,20.149-10.575
		c11.521-3.762,23.523-4.35,35.482-4.93c7.48-0.363,14.962,0.131,22.449,0.778c13.447,1.163,26.776,2.953,39.874,6.212
		c4.433,1.103,8.743,2.697,13.524,4.197C363.635,1015.241,366.945,999.524,370.355,983.331z M815.432,73.082
		c-122.256,0-244.007,0-365.878,0c0,38.447,0,76.645,0,114.841c122.118,0,243.876,0,365.878,0
		C815.432,149.601,815.432,111.518,815.432,73.082z M736.835,1123.03c-0.525,15.915,0.377,31.201,3.426,46.267
		c7.042,34.8,22.078,65.779,46.014,92.057c26.336,28.913,58.495,48.28,96.821,57.123c21.502,4.962,43.212,6.085,64.997,3.249
		c29.642-3.86,56.81-14.462,81.418-31.575c29.693-20.649,51.786-47.55,66.733-80.411c9.674-21.268,14.964-43.64,16.522-66.889
		c0.44-6.572,0.067-13.199,0.067-19.717c-16.958,0-33.526,0-50.478,0c0,2.121-0.011,3.925,0.002,5.73
		c0.079,11.185-0.878,22.26-3.353,33.193c-6.96,30.74-22.337,56.609-46.541,76.612c-33.704,27.854-72.778,37.63-115.451,28.935
		c-42.391-8.638-73.696-33.268-94.001-71.506c-11.059-20.826-15.664-43.304-15.826-66.781c-0.014-2.093,0.443-4.268-0.467-6.286
		C770.085,1123.03,753.653,1123.03,736.835,1123.03z M1106.778,831.442c0-110.763,0-220.99,0-331.376c-26.938,0-53.649,0-80.425,0
		c0,110.58,0,220.906,0,331.376C1053.275,831.442,1079.868,831.442,1106.778,831.442z M649.514,831.405
		c0-111.395,0-222.296,0-333.268c-25.673,0-51.061,0-76.463,0c0,111.228,0,222.129,0,333.268
		C598.571,831.405,623.829,831.405,649.514,831.405z M935.259,1025.558c57.399,0,114.455,0,171.54,0c0-18.263,0-36.198,0-54.344
		c-57.269,0-114.331,0-171.369,0C934.919,975.617,934.783,1018.99,935.259,1025.558z M746.87,1005.169
		c-0.764,23.227,19.869,42.797,42.21,42.915c22.399,0.118,42.398-16.677,42.766-42.036c0.341-23.524-19.064-43.01-42.575-43.047
		C765.035,962.963,746.946,980.952,746.87,1005.169z"/>
	<path style="fill:#E95B44;" d="M1259.973,1562.907c0.015-21.996,0.044-43.993,0.044-65.989c0.003-433.601,0-867.202,0.046-1300.802
		c0-2.034-0.957-4.328,0.937-6.115c0,456.5,0,913,0,1369.5c0,2.96,0,2.96-1,4.5
		C1259.991,1563.636,1259.982,1563.271,1259.973,1562.907z"/>
	<path style="fill:#EA654C;" d="M1259.973,1562.907c0.009,0.364,0.018,0.729,0.027,1.093c-418.5,0-837,0-1255.5,0
		c-2.96,0-2.96,0-4.5-1c417.825,0,835.651,0,1253.476-0.004C1255.642,1562.996,1257.807,1562.938,1259.973,1562.907z"/>
	<path style="fill:#E52028;" d="M621.35,1139.549c0.129,15.51-0.754,33.971-3.426,52.292c-2.377,16.302-5.803,32.366-12.75,47.47
		c-2.795,6.077-6.251,11.722-10.414,16.957c-19.277,24.238-51.599,22.237-70.187,5.982c-8.993-7.865-15.014-17.712-19.54-28.564
		c-6.124-14.686-9.146-30.13-11.143-45.853c-2.34-18.419-2.294-36.908-1.809-55.386c0.577-21.972,2.157-43.884,7.955-65.235
		c2.663-9.808,6.378-19.167,11.845-27.843c13.538-21.484,38.486-27.252,58.911-21.756c18.966,5.104,30.591,17.875,38.217,35.098
		c5.498,12.418,8.16,25.604,9.977,38.973C621.009,1106.567,621.372,1121.551,621.35,1139.549z"/>
</g>
</svg>
