<?xml version="1.0" encoding="iso-8859-1"?>
<!-- Generator: Adobe Illustrator 27.0.0, SVG Export Plug-In . SVG Version: 6.00 Build 0)  -->
<svg version="1.1" id="Layer_1" xmlns="http://www.w3.org/2000/svg" xmlns:xlink="http://www.w3.org/1999/xlink" x="0px" y="0px"
	 viewBox="0 0 1484 543" style="enable-background:new 0 0 1484 543;" xml:space="preserve">
<g>
	<path style="fill:#1493CD;" d="M152.816,429.976c1.662,12.6,3.439,25.186,4.949,37.803c1.256,10.501,2.126,21.048,3.297,31.56
		c1.152,10.331,2.668,20.626,3.615,30.974c0.383,4.183,1.911,8.425,0.323,12.687c-3,0-6,0-9,0c-0.295-0.666-0.8-1-1.534-1
		c-5.975,0.003-11.95,0.004-17.924,0.002c-0.735,0-1.238,0.34-1.541,0.998c-2.667,0-5.333,0-8,0c-0.919-1.7-1.913-3.23-2.237-5.336
		c-0.457-2.964-0.572-5.937-0.938-8.893c-1.259-10.174-2.438-20.36-3.886-30.508c-0.714-5.004-0.66-10.161-2.662-15.858
		c-11.383,14.95-22.361,29.368-33.447,43.929c-2.911-0.877-4.212-3.095-5.67-5.013c-7.728-10.167-15.279-20.471-23.153-30.522
		c-2.02-2.578-3.46-5.881-6.57-7.559c-1.658,3.261-1.252,6.486-1.643,9.596c-1.606,12.8-3.046,25.626-5,38.374
		C41.191,535.151,42.18,539.623,39,543c-13,0-26,0-39,0c0-1.667,0-3.333,0-5c2.426-4.085,2.057-8.583,1.926-13.046
		c0.658-8.251,1.736-16.45,2.82-24.654c0.932-7.053,1.492-14.155,2.281-21.229c0.88-7.89,1.862-15.768,2.744-23.657
		c0.791-7.074,1.599-14.149,2.222-21.239c0.49-5.576,0.886-6.072,6.688-6.08c8.485-0.012,16.974,0.153,25.453-0.077
		c3.575-0.097,5.817,1.164,7.885,4.022c9.143,12.632,18.502,25.108,27.736,37.674c1.011,1.376,1.82,2.819,4.487,2.382
		c4.096-5.462,8.385-11.322,12.823-17.067c6.675-8.642,12.738-17.753,19.907-26.017c1.028,1.691,2.693,0.914,4.058,0.923
		C131.625,430.003,142.22,429.975,152.816,429.976z"/>
	<path style="fill:#1293CD;" d="M1355,543c-1.046-1.419-1.111-3.043-1.11-4.729c0.019-35.283,0.013-70.567,0.024-105.85
		c0-0.978,0.134-1.957,0.179-2.57c1.229-1.818,2.747-1.759,4.254-1.758c8.486,0.004,16.973,0.056,25.458-0.028
		c3.05-0.03,5.612,1.064,7.581,3.175c13.734,14.723,28.281,28.642,42.332,43.051c3.453,3.541,6.846,7.139,10.238,10.681
		c1.514-0.383,1.07-1.535,1.061-2.432c-0.13-13.12-1.198-26.209-1.242-39.339c-0.011-3.253-0.598-6.583-0.641-9.89
		c-0.052-3.956,0.983-5.131,4.941-5.166c8.652-0.076,17.306,0.056,25.959,0.055c3.322,0,6.644-0.129,9.967-0.199
		c0,38.333,0,76.667,0,115c-10.667,0-21.333,0-32,0c-3.613-1.715-6.704-4.102-9.39-7.068c-2.896-3.198-5.818-6.38-8.85-9.448
		c-12.158-12.305-24.351-24.576-36.574-36.816c-0.862-0.863-1.362-2.36-3.065-2.237c0,16.652-0.014,33.278,0.018,49.905
		c0.004,1.99,0.345,3.997-1.14,5.665c-3.333,0-6.667,0-10,0c-0.348-0.317-0.693-0.906-1.045-0.91c-5.303-0.059-10.607-0.059-15.91,0
		c-0.352,0.004-0.697,0.593-1.045,0.91C1361.667,543,1358.333,543,1355,543z"/>
	<path style="fill:#1493CD;" d="M1192,543c-2.239-1.836-5.148-1.878-7.723-2.779c-20.761-7.261-32.457-21.989-36.343-43.368
		c-2.097-11.535-1.05-22.834,2.807-33.789c5.329-15.138,15.818-25.91,30.686-31.37c20.949-7.693,42.154-7.545,62.085,3.32
		c15.91,8.673,25.223,22.455,27.624,40.785c1.641,12.525-0.224,24.406-5.028,35.921c-5.464,13.096-15.169,21.868-28.116,27.353
		c-3.601,1.526-7.573,1.942-10.992,3.928C1215.333,543,1203.667,543,1192,543z M1187.724,485.651
		c0.081,1.825-0.022,3.681,0.276,5.47c1.247,7.488,5.255,16.187,16.102,18.558c11.386,2.488,22.147-3.304,25.615-14.278
		c1.999-6.327,1.737-12.773,0.15-19.12c-3.664-14.652-22.242-20.632-33.876-10.976
		C1189.603,470.607,1187.378,477.599,1187.724,485.651z"/>
	<path style="fill:#1793CD;" d="M821,543c-1.48-1.894-1.969-3.975-1.963-6.433c0.08-33.978,0.048-67.957,0.06-101.935
		c0.002-5.831,0.733-6.543,6.654-6.535c21.321,0.026,42.643-0.083,63.961,0.184c9.216,0.115,17.931,2.445,25.925,7.463
		c7.956,4.994,12.009,12.26,13.158,21.195c1.052,8.175-0.497,15.858-6.048,22.407c-1.98,2.336-4.405,4.01-6.902,5.658
		c-1.215,0.802-2.766,1.137-3.744,2.764c8.99,5.165,12.483,14.359,16.647,23.001c4.031,8.365,7.802,16.857,11.527,25.364
		c0.926,2.114,2.914,4.334,0.726,6.868c-2.667,0-5.333,0-8,0c-0.085-0.143-0.153-0.396-0.257-0.412
		c-6.163-0.954-12.329-0.949-18.492-0.003c-0.102,0.016-0.168,0.271-0.251,0.415c-3.333,0-6.667,0-10,0
		c-1.721-2.424-2.961-5.068-4.136-7.811c-4.823-11.257-9.104-22.784-16.485-32.784c-4.807-6.512-15.404-9.497-23.472-6
		c0,1.457,0,3.098,0,4.739c0,11.817-0.055,23.635,0.045,35.451c0.021,2.426-0.304,4.572-1.952,6.405c-3,0-6,0-9,0
		c-0.083-0.144-0.149-0.4-0.251-0.415c-6.496-0.961-12.996-0.967-19.492,0.003c-0.104,0.015-0.172,0.269-0.257,0.412
		C826.333,543,823.667,543,821,543z M860.164,477.042c6.392-0.315,12.141,0.417,17.931-0.889c8.337-1.88,11.982-6.454,12.19-14.931
		c0.198-8.057-6-12.224-11.209-13.138c-5.057-0.887-10.198-1.283-15.363-1.009c-1.377,0.073-2.66,0.158-3.55,1.638
		C860.164,457.829,860.164,467.087,860.164,477.042z"/>
	<path style="fill:#1693CD;" d="M237,543c-1.459-1.679-0.84-3.344-0.044-5.072c2.358-5.116,4.644-10.266,6.993-15.386
		c9.95-21.698,19.922-43.386,29.867-65.087c3.729-8.137,7.543-16.238,11.038-24.475c1.527-3.599,3.78-5.002,7.632-4.943
		c10.486,0.161,20.979,0.174,31.465-0.005c4.06-0.069,6.371,1.51,8.029,5.196c13.8,30.682,27.73,61.305,41.626,91.944
		c1.986,4.378,4.004,8.742,6.006,13.113c0.689,1.505,1.547,2.961,1.389,4.715c-3,0-6,0-9,0c-0.348-0.317-0.692-0.905-1.043-0.909
		c-4.97-0.06-9.94-0.06-14.91,0c-0.352,0.004-0.698,0.592-1.046,0.909c-4.333,0-8.667,0-13,0c-2.113-3.165-3.65-6.644-4.825-10.211
		c-2.396-7.272-4.259-9.07-11.616-8.639c-8.432,0.494-16.856,0.725-25.293,0.624c-4.29-0.052-8.531-0.973-12.854-0.705
		c-3.097,0.193-5.33,1.313-6.442,4.426c-1.219,3.414-2.809,6.699-3.953,10.135c-0.609,1.829-1.821,3.048-3.017,4.369
		c-2.667,0-5.333,0-8,0c-0.303-0.658-0.806-0.998-1.542-0.998c-5.975,0.002-11.949,0.001-17.924-0.002
		c-0.735,0-1.24,0.334-1.535,0.999C242.333,543,239.667,543,237,543z M308.279,459.222c-5.716,15.183-11.541,28.938-16.433,42.954
		c0.828,0.457,1.112,0.75,1.399,0.752c9.145,0.053,18.291,0.08,27.437,0.105c1.417,0.004,2.636-0.355,3.437-2.628
		C319.128,487.43,313.917,473.881,308.279,459.222z"/>
	<path style="fill:#1493CD;" d="M715.18,429.931c1.307,6.397,0.422,12.874,0.654,19.311c0.084,2.321-1.599,3.566-3.907,3.645
		c-2.33,0.079-4.664,0.021-6.996,0.022c-10.991,0-21.981,0-32.628,0c-1.465,0.793-2.143,1.852-2.187,2.995
		c-0.159,4.158-0.284,8.328-0.13,12.483c0.099,2.669,1.721,4.237,4.419,4.564c1.803,0.219,3.693,0.259,5.48-0.028
		c9.109-1.462,18.27-0.35,27.397-0.723c1.564-0.064,2.945,0.331,4.499,1.48c0,7.189,0,14.601,0,21.759
		c-1.965,2.189-4.266,1.529-6.351,1.535c-9.661,0.03-19.323-0.057-28.984-0.058c-5.861-0.001-6.957,0.954-6.245,6.68
		c0.395,3.173-0.081,6.211-0.124,9.31c-0.055,3.977,0.926,5.056,4.898,5.073c11.828,0.051,23.656,0.009,35.484,0.023
		c5.928,0.007,6.445,0.605,6.355,6.686c-0.062,4.164-0.213,8.343,0.066,12.489c0.14,2.091-0.83,3.854-0.877,5.823
		c-7.333,0-14.667,0-22,0c-1.169-1.897-3.029-0.947-4.54-0.955c-19.489-0.099-38.978-0.108-58.467-0.139
		c0.003-35.122,0.007-70.244,0.011-105.366c0-1.332-0.022-2.664,0.011-3.995c0.033-1.321,0.804-2.121,1.974-2.597
		C660.386,429.942,687.783,429.936,715.18,429.931z"/>
	<path style="fill:#1893CD;" d="M471,543c-1.35-2.089-1.098-4.44-1.098-6.747c-0.002-23.665-0.014-47.331,0.02-70.996
		c0.003-2.356-0.057-4.645-1.316-6.794c-1.447-1.049-3.168-0.647-4.793-0.652c-7.999-0.025-15.998,0.011-23.998,0.026
		c-4.806,0.009-5.792-0.946-5.812-5.827c-0.029-7.324-0.008-14.647-0.008-21.672c1.859-2.544,4.266-2.253,6.586-2.249
		c21.995,0.04,43.991,0.097,65.986,0.11c10.998,0.006,21.996-0.098,32.994-0.097c5.394,0,6.339,1.058,6.296,6.448
		c-0.048,5.999-0.021,11.998-0.048,17.997c-0.02,4.306-0.877,5.205-5.28,5.232c-7.999,0.049-15.999-0.003-23.999,0.028
		c-1.643,0.007-3.329-0.291-4.896,0.389c-2.002,1.858-1.628,4.264-1.626,6.562c0.023,23.831,0.057,47.663,0.092,71.494
		c0.003,2.312,0.133,4.64-1.101,6.747c-3,0-6,0-9,0c-0.295-0.666-0.8-0.999-1.535-0.999c-5.644,0.003-11.287,0.003-16.931,0
		c-0.735,0-1.241,0.331-1.534,0.999C477,543,474,543,471,543z"/>
	<path style="fill:#1A93CD;" d="M1024,543c-0.85-1.832-1.032-3.751-1.03-5.765c0.034-34.486,0.021-68.972,0.038-103.458
		c0.001-1.472-0.311-3.005,0.401-4.219c1.306-1.8,3.07-1.456,4.698-1.459c9.994-0.02,19.988-0.038,29.982,0.002
		c4.808,0.019,5.695,0.95,5.697,5.951c0.016,34.319-0.01,68.639,0.049,102.958c0.004,2.272-0.482,4.22-1.836,5.99c-3,0-6,0-9,0
		c-0.084-0.143-0.151-0.398-0.254-0.414c-6.164-0.95-12.331-0.948-18.495-0.001c-0.103,0.016-0.168,0.271-0.251,0.415
		C1030.667,543,1027.333,543,1024,543z"/>
	<path style="fill:#E2E1E2;" d="M946,0c-0.006,0.343-0.011,0.686-0.017,1.029c-0.833-0.01-1.666-0.029-2.499-0.029
		C809.672,0.999,675.861,0.999,542.049,1.003c-1.332,0-2.664,0.051-3.996,0.079C538.035,0.721,538.018,0.361,538,0
		C674,0,810,0,946,0z"/>
	<path style="fill:#428194;" d="M632.988,429.948c-1.171,0.476-1.942,1.276-1.974,2.597c-0.033,1.331-0.011,2.663-0.011,3.995
		c-0.004,35.122-0.007,70.244-0.011,105.366c0.003,0.365,0.005,0.729,0.008,1.094c-0.333,0-0.667,0-1,0
		c-0.898-2.723-0.555-5.532-0.56-8.314c-0.066-33.311-0.134-66.623-0.158-99.934c-0.002-2.244-0.276-4.751,2.476-5.91
		C632.335,429.024,632.831,429.298,632.988,429.948z"/>
	<path style="fill:#62A6D7;" d="M631,543c-0.003-0.365-0.005-0.729-0.008-1.094c19.489,0.031,38.978,0.04,58.467,0.139
		c1.512,0.008,3.371-0.942,4.54,0.955C673,543,652,543,631,543z"/>
	<path style="fill:#A9DCE8;" d="M1.926,524.954C2.057,529.417,2.426,533.915,0,538c0-4,0-8,0-12
		C0.642,525.651,1.284,525.303,1.926,524.954z"/>
	<path style="fill:#62A6D7;" d="M135,543c0.303-0.658,0.806-0.998,1.541-0.998c5.975,0.002,11.95,0.001,17.924-0.002
		c0.735,0,1.24,0.334,1.534,1C149,543,142,543,135,543z"/>
	<path style="fill:#62A6D7;" d="M245,543c0.295-0.666,0.8-1,1.535-0.999c5.975,0.003,11.949,0.003,17.924,0.002
		c0.735,0,1.238,0.34,1.542,0.998C259,543,252,543,245,543z"/>
	<path style="fill:#62A6D7;" d="M480,543c0.293-0.668,0.799-0.999,1.534-0.999c5.644,0.003,11.287,0.003,16.931,0
		c0.735,0,1.24,0.333,1.535,0.999C493.333,543,486.667,543,480,543z"/>
	<path style="fill:#62A6D7;" d="M829,543c0.085-0.143,0.153-0.396,0.257-0.412c6.496-0.97,12.995-0.964,19.492-0.003
		c0.102,0.015,0.168,0.271,0.251,0.415C842.333,543,835.667,543,829,543z"/>
	<path style="fill:#62A6D7;" d="M914,543c0.083-0.144,0.149-0.399,0.251-0.415c6.163-0.946,12.329-0.951,18.492,0.003
		c0.104,0.016,0.172,0.269,0.257,0.412C926.667,543,920.333,543,914,543z"/>
	<path style="fill:#62A6D7;" d="M1034,543c0.083-0.144,0.149-0.399,0.251-0.415c6.164-0.946,12.331-0.948,18.495,0.001
		c0.103,0.016,0.17,0.271,0.254,0.414C1046.667,543,1040.333,543,1034,543z"/>
	<path style="fill:#62A6D7;" d="M1365,543c0.348-0.317,0.693-0.906,1.045-0.91c5.303-0.059,10.607-0.059,15.91,0
		c0.352,0.004,0.697,0.593,1.045,0.91C1377,543,1371,543,1365,543z"/>
	<path style="fill:#62A6D7;" d="M355,543c0.349-0.317,0.694-0.905,1.046-0.909c4.97-0.06,9.94-0.06,14.91,0
		c0.351,0.004,0.696,0.592,1.043,0.909C366.333,543,360.667,543,355,543z"/>
	<path style="fill:#9FA0A4;" d="M538.053,1.082c1.332-0.027,2.664-0.079,3.996-0.079c133.811-0.004,267.623-0.003,401.434-0.002
		c0.833,0,1.666,0.019,2.499,0.029c0.006,8.997,0.021,17.993,0.016,26.99c-0.038,70.815,0.06,141.63-0.29,212.444
		c-0.046,9.249-0.418,18.562-0.759,28.041c-1.676-1.06-2.033-2.744-2.723-4.119c-15.927-31.721-31.573-63.587-47.736-95.187
		c-23.864-46.658-47.014-93.673-70.693-140.423c-3.966-7.831-8.048-15.612-12.024-23.444c-0.424-0.836-0.986-1.602-1.854-2.992
		c-22.684,44.924-45.062,89.241-67.883,134.437C719.3,91.719,696.934,47.403,674.591,3.129c-1.997,0.14-2.043,1.772-2.579,2.833
		c-6.727,13.324-13.249,26.753-20.103,40.011c-23.154,44.787-45.089,90.189-68.083,135.053
		c-14.373,28.045-28.225,56.348-42.622,84.377c-0.634,1.235-0.85,2.834-2.348,3.46c-1.332-1.027-0.832-2.281-0.832-3.349
		C538.015,177.37,538.035,89.226,538.053,1.082z"/>
	<path style="fill:#1293CD;" d="M673.729,282.723c22.742-45.127,45.279-89.846,67.859-134.651
		c2.556,2.825,65.125,126.314,68.268,134.651C764.585,282.723,719.418,282.723,673.729,282.723z"/>
	<path style="fill:#548DA4;" d="M632.988,429.948c-0.158-0.65-0.653-0.924-1.231-1.105c1.037-1.232,2.461-0.78,3.733-0.781
		c25.282-0.025,50.563-0.027,75.845-0.004c1.528,0.001,3.535-0.733,3.846,1.873C687.783,429.936,660.386,429.942,632.988,429.948z"
		/>
	<path style="fill:#548DA4;" d="M152.816,429.976c-10.595-0.001-21.191,0.028-31.786-0.04c-1.365-0.009-3.03,0.768-4.058-0.923
		c0.538-1.148,1.596-0.962,2.553-0.963c10.037-0.009,20.074-0.02,30.11,0.011C151.01,428.065,152.826,427.57,152.816,429.976z"/>
</g>
</svg>
