<?xml version="1.0" encoding="iso-8859-1"?>
<!-- Generator: Adobe Illustrator 27.0.0, SVG Export Plug-In . SVG Version: 6.00 Build 0)  -->
<svg version="1.1" id="Layer_1" xmlns="http://www.w3.org/2000/svg" xmlns:xlink="http://www.w3.org/1999/xlink" x="0px" y="0px"
	 viewBox="0 0 1524 328" style="enable-background:new 0 0 1524 328;" xml:space="preserve">
<g>
	<path style="fill:#A09168;" d="M0,299c2.128-4.187,2.066-8.875,2.917-13.335c2.728-14.307,5.203-28.662,7.725-43.007
		c2.837-16.141,5.599-32.295,8.433-48.437c1.741-9.916,3.558-19.818,5.361-29.84c18.634,0,37.052,0,55.807,0
		c2.179,27.135,4.339,54.019,6.498,80.902c0.243,0.022,0.487,0.044,0.73,0.066c11.61-26.947,23.219-53.894,34.894-80.991
		c18.462,0,36.868,0,55.286,0c-0.27,5.925-22.32,132.391-24.197,136.581c-11.2,0-22.475,0-34.309,0
		c5.777-32.577,11.508-64.898,17.24-97.218c-0.366-0.122-0.733-0.245-1.099-0.367c-14.053,32.479-28.107,64.959-42.196,97.522
		c-10.651,0-21.071,0-31.702,0c-2.891-31.717-4.49-63.33-7.943-94.782c-0.025-0.232-0.488-0.415-1.239-1.014
		C46.54,237.16,40.927,268.943,35.266,301c-12.008,0-23.637,0-35.266,0C0,300.333,0,299.667,0,299z M70.368,291.693
		c-3.737-1.87-3.737-1.87-4.973,0.97C66.967,292.997,68.07,291.685,70.368,291.693z"/>
	<path style="fill:#151414;" d="M1039.113,0.902c7.789-0.127,15.222,1.439,22.005,5.282c9.209,5.219,12.098,13.046,8.995,23.26
		c-2.297,7.563-6.36,14.185-10.785,20.631c-3.204,4.668-6.675,9.128-10.294,13.48c-0.825,0.992-1.971,1.838-2.039,3.854
		c3.758-0.189,7.48-0.288,11.187-0.583c5.805-0.462,11.591-1.194,17.401-1.573c27.084-1.767,54.174-3.568,81.321-3.907
		c16.15-0.201,32.259,0.603,48.342,2.47c11.74,1.363,23.406,2.906,34.731,6.278c10.508,3.129,20.735,6.989,29.562,13.81
		c4.049,3.129,7.125,6.814,8.612,11.863c1.086,3.686,0.375,6.898-1.468,10.002c-2.078,3.5-4.961,6.196-8.492,8.253
		c-7.588,4.421-15.95,6.511-24.471,7.901c-18.402,3.003-36.986,4.452-55.565,5.746c-25.097,1.748-50.238,2.664-75.396,2
		c-17.977-0.475-35.768-2.863-53.449-6.136c-19.424-3.596-38.309-9.198-57.135-15.043c-0.787-0.244-1.59-0.438-2.67-0.732
		c-15.231,11.911-29.954,24.624-45.538,36.244c-1.751-2.517-3.503-5.034-5.254-7.551c13.229-10.599,26.763-20.823,39.537-31.715
		c-0.485-1.882-1.87-1.629-2.905-1.986c-7.846-2.706-15.899-4.648-23.995-6.416c-2.444-0.534-4.824-0.427-7.341,0.336
		c-9.381,2.844-18.129,7.249-27.238,10.755c-18.419,7.089-37.068,13.347-56.529,16.93c-7.082,1.304-14.19,1.677-21.335,0.592
		c-9.254-1.405-14.506-10.813-11.459-20.614c1.651-5.309,4.66-9.873,8.081-14.19c1.226-1.546,2.447-3.097,4.314-5.462
		c-15.462-1.135-30.139-0.39-44.779-0.77c1.156-3.046,1.062-6.185,0.689-9.344c1.148,0.159,2.296,0.453,3.445,0.455
		c16.646,0.03,33.292,0.02,49.524,0.02c31.632-25.137,66.547-43.988,103.15-59.901c16.971-7.378,34.699-12.067,53.145-13.998
		c2.321-0.243,4.956,0.989,6.98-1.146c1.333,0,2.667,0,4,0c0.262,1.013,1.058,1.067,1.892,1.055
		C1031.632,1.004,1035.372,0.953,1039.113,0.902z M1008.961,100.562c0.387,0.158,0.795,0.353,1.22,0.495
		c15.57,5.192,31.422,9.368,47.489,12.656c17.938,3.672,36.067,5.821,54.397,6.398c15.321,0.483,30.627,0.566,45.942-0.062
		c19.124-0.784,38.227-1.788,57.28-3.739c11.906-1.219,23.75-2.704,35.46-5.197c4.919-1.047,9.518-2.945,13.734-5.591
		c6.137-3.85,6.403-8.397,0.984-13.295c-1.226-1.109-2.591-2.103-4.011-2.952c-5.703-3.412-11.694-6.234-18.012-8.308
		c-11.068-3.633-22.425-5.796-33.987-7.289c-15.71-2.029-31.46-3.323-47.273-3.224c-23.312,0.147-46.616,0.968-69.87,2.706
		c-5.479,0.41-10.973,0.585-16.439,1.098c-12.416,1.165-24.814,2.532-37.238,3.604c-2.493,0.215-4.383,1.035-6.233,2.583
		c-7.404,6.193-14.875,12.306-22.333,18.434C1009.545,99.312,1009.039,99.709,1008.961,100.562z M873.878,74.913
		c9.874,1.245,19.157,1.752,28.38,2.962c15.641,2.053,31.249,4.264,46.813,6.842c3.968,0.657,7.854,1.761,12.221,0.436
		c20.631-6.259,41.569-11.287,62.939-14.403c3.677-0.536,7.356-0.984,10.268-4.195c4.819-5.314,9.233-10.933,13.604-16.59
		c4.981-6.448,9.588-13.19,12.582-20.822c3.309-8.433,1.176-13.022-7.249-16.465c-0.76-0.311-1.544-0.571-2.331-0.806
		c-5.307-1.581-10.751-2.112-16.266-2.101c-7.329,0.014-14.64,0.241-21.922,1.205c-10.533,1.395-20.973,3.049-31.098,6.521
		c-23.787,8.156-46.022,19.581-67.871,31.828C900.35,56.949,886.911,64.849,873.878,74.913z M846.262,113.129
		c2.704,3.177,6.578,3.809,10.367,3.466c7.091-0.641,14.163-1.5,21.144-3.158c19.554-4.645,38.341-11.497,56.865-19.161
		c1.178-0.487,2.622-0.554,3.206-2.088c-24.802-3.953-49.562-7.882-74.754-7.684c-5.634,5.351-10.834,10.926-14.739,17.591
		C846.369,105.478,845.163,109.025,846.262,113.129z M997.998,97.035c5.859-4.85,11.514-9.532,17.169-14.214
		c-0.208-0.401-0.416-0.802-0.624-1.204c-12.563,2.199-25.027,4.849-37.782,8.687C984.154,92.648,990.904,94.787,997.998,97.035z"/>
	<path style="fill:#A09168;" d="M1524,233c-9.888,1.81-19.776,3.619-29.09,5.324c-0.779-0.697-0.957-0.782-1.015-0.918
		c-1.58-3.682-3.058-7.492-7.263-8.999c-5.545-1.988-11.053-1.779-16.496,0.525c-8.199,3.471-12.349,10.314-14.988,18.264
		c-1.725,5.196-2.291,10.673-3.047,16.087c-0.518,3.711,0.23,7.339,1.147,10.846c1.47,5.62,6.927,9.49,12.988,9.978
		c8.759,0.705,16.777-1.344,24.295-6.117c0.962-2.605,0.158-5.559,2.211-8.818c-7.18,0-13.397,0-20.054,0
		c0.868-7.354,1.969-13.979,3.556-20.721c15.1,0,30.039,0,45.203,0c1.183,2.149-0.221,4.21-0.543,6.172
		c-1.792,10.939-3.943,21.819-5.753,32.756c-0.405,2.449-1.618,3.692-3.565,4.949c-16.812,10.852-35.186,15.372-55.055,13.519
		c-8.886-0.829-17.313-3.185-23.973-9.723c-6.767-6.644-9.851-15.047-10.34-24.175c-0.897-16.769,3.19-32.299,13.693-45.716
		c9.505-12.141,22.109-18.58,37.42-20.325c9.172-1.046,18.151-0.508,27.239,0.741c11.974,1.645,20.035,10.099,22.424,22.737
		c0.176,0.932-0.142,2.055,1.004,2.615C1524,232.333,1524,232.667,1524,233z"/>
	<path style="fill:#EFD7A7;" d="M844.031,327.118c-0.061,0.292-0.071,0.586-0.031,0.882c-5,0-10,0-15,0
		c0.074-0.308,0.072-0.616-0.007-0.923C834.006,327.09,839.018,327.104,844.031,327.118z"/>
	<path style="fill:#696969;" d="M1039.113,0.902c-3.74,0.051-7.481,0.101-11.221,0.153c-0.834,0.011-1.63-0.042-1.892-1.055
		c4.333,0,8.667,0,13,0C1038.908,0.317,1038.945,0.618,1039.113,0.902z"/>
	<path style="fill:#A09168;" d="M292.279,164.436c37.673,0,74.921,0,112.765,0c-0.303,9.725-3.172,19.048-4.418,29.185
		c-11.737,0.598-23.321,0.193-34.891,0.266c-11.653,0.074-23.306,0.016-35.397,0.016c-2.478,6.655-2.553,13.786-4.281,21.041
		c21.728,0,43.153,0,65.17,0c-1.005,9.779-3.038,18.903-4.55,28.516c-21.713,1.261-43.286-0.893-64.812-0.276
		c-1.849,3.976-4.909,21.359-4.594,26.592c23.698,0,47.431,0,71.88,0c-1.872,10.571-3.645,20.58-5.411,30.547
		c-3.731,1.011-103.349,1.426-114.496,0.477c-1.226-3.771,0.404-7.455,1.002-11.055c2.658-15.996,5.76-31.917,8.564-47.889
		c3.177-18.096,6.186-36.22,9.31-54.325C289.413,180.038,290.812,172.563,292.279,164.436z"/>
	<path style="fill:#A09168;" d="M499.072,300.971c-9.814,0-19.115,0-29.147,0c-2.483-19.127-3.942-38.393-6.26-58.592
		c-9.549,19.79-17.933,39.179-26.724,58.521c-9.764,0-19.389,0-28.917,0c-0.662-0.511-0.822-1.127-0.851-1.817
		c-0.373-8.806-0.873-17.609-1.105-26.418c-0.476-18.122-2.049-36.195-2.296-54.333c-0.058-4.25-0.815-8.508-0.566-13.063
		c9.353,0,18.433,0,27.513,0c0.976,2.436,1.041,4.889,1.052,7.371c0.056,12.829,0.152,25.659,0.231,38.488
		c0.011,1.787,0.002,3.575,0.679,5.533c7.762-17.157,15.524-34.314,23.287-51.474c9.396,0,18.512,0,28,0
		c2.349,17.121,3.582,34.223,6.031,51.496c6.228-17.038,12.456-34.076,18.771-51.353c9.391,0,18.637,0,28.4,0
		C524.43,237.313,511.815,268.983,499.072,300.971z"/>
	<path style="fill:#A09168;" d="M684.002,300.767c-8.532-16.479-16.406-33.31-26.302-49.602
		c-2.946,16.486-5.892,32.972-8.876,49.671c-9.213,0-18.149,0-27.755,0c0.825-10.626,3.49-21,5.113-31.51
		c1.667-10.794,3.858-21.508,5.798-32.26c1.904-10.555,3.779-21.114,5.695-31.827c9.375,0,18.339,0,27.796,0
		c8.507,16.922,17.139,34.091,26.268,52.248c3.186-17.941,6.198-34.908,9.262-52.162c9.228,0,18.312,0,28.064,0
		c-5.324,31.789-11.018,63.44-16.594,95.443C703.145,300.767,693.883,300.767,684.002,300.767z"/>
	<path style="fill:#A09168;" d="M527.433,300.833c5.663-32.089,11.256-63.781,16.877-95.628c26.527,0,52.782,0,79.501,0
		c-1.249,6.946-2.461,13.685-3.74,20.796c-16.539,0-32.805,0-49.119,0c-1.555,4.958-1.744,9.741-2.801,14.983
		c15.384,0,30.451,0,45.825,0c-1.257,6.885-2.404,13.172-3.617,19.813c-15.437,0-30.527,0-45.944,0
		c-0.435,6.231-2.883,11.792-2.383,18.247c16.682,0,33.095,0,50.128,0c-1.316,7.59-2.25,14.698-3.994,21.788
		C581.33,300.833,554.764,300.833,527.433,300.833z"/>
	<path style="fill:#A09168;" d="M269.95,233.706c-9.21,2.004-17.971,4.352-26.602,5.428c-1.018-0.747-1.173-1.371-1.266-2.046
		c-1.129-8.194-8.409-11.561-15.366-10.878c-8.779,0.862-15.223,5.62-18.583,13.845c-2.574,6.3-4.35,12.847-4.425,19.794
		c-0.034,3.108-0.26,6.191,0.064,9.311c0.64,6.171,4.68,10.315,10.974,10.828c9.78,0.796,16.18-1.137,22.831-13.179
		c0.792-1.434,1.361-2.992,2.244-4.96c8.283,2.124,16.28,4.97,24.424,7.849c-0.702,4.833-3.389,8.336-5.767,11.803
		c-7.985,11.645-18.746,18.928-33.102,20.688c-8.836,1.083-17.475,0.83-26.187-0.95c-14.153-2.893-22.461-12.328-24.764-25.525
		c-3.855-22.099,1.592-42.311,18.068-58.343c8.852-8.613,20.067-12.845,32.454-13.315c7.612-0.289,15.182-0.511,22.763,1.594
		c10.025,2.783,16.383,9.082,20.075,18.413C268.929,226.955,269.877,230,269.95,233.706z"/>
	<path style="fill:#A09168;" d="M844.031,327.118c-5.013-0.014-10.025-0.028-15.038-0.042c-18.099-1.106-34.223-7.714-48.596-18.389
		c-19.735-14.658-32.338-34.308-36.92-58.404c-5.41-28.449,0.312-54.701,18.418-77.778c11.775-15.008,26.524-26.012,44.65-32.139
		c11.546-3.903,23.477-5.993,35.715-5.137c23.285,1.629,43.891,9.67,60.872,26.087c-0.034,2.85-0.068,5.699-0.102,8.549
		c-0.955,0.471-1.757,1.339-2.97,1.134c-0.983-0.895-1.998-1.758-2.945-2.689c-10.557-10.369-23.205-16.994-37.338-21.042
		c-9.261-2.653-18.71-2.611-28.201-2.379c-8.384,0.205-16.458,2.095-24.215,5.02c-13.927,5.251-25.952,13.457-35.612,24.853
		c-5.269,6.216-9.714,12.995-13.098,20.489c-3.652,8.085-6.004,16.452-7.079,25.246c-0.932,7.632-0.986,15.223-0.01,22.85
		c1.146,8.958,3.979,17.4,7.507,25.65c-0.324,1.292-2.026,1.753-1.984,3.251c0.321,0.599,0.63,1.176,0.94,1.754
		c0.864,2.034,1.844,3.979,3.904,5.097c0.983,2.895,3.338,4.856,5.213,7.042c3.486,4.064,6.23,8.854,10.872,11.866
		c0.345,1.008,0.991,1.696,2.057,1.937c0.634,0.368,1.267,0.735,1.901,1.103c1.462,3.244,4.283,3.128,7.152,2.892
		c4.261,2.202,8.477,4.498,12.793,6.587c14.794,7.163,30.614,9.217,46.619,7.175c24.164-3.084,43.775-14.828,58.524-34.314
		c9.624-12.716,15.42-27.13,16.823-42.984c1.68-18.984-1.808-37.027-11.892-53.499c-0.052-0.284-0.033-0.564,0.057-0.838
		c1.571-0.965,2.859-2.204,3.73-3.847c1.614-0.025,3.228-0.05,4.842-0.074c1.631,3.619,3.309,7.218,4.885,10.86
		c4.238,9.795,6.829,19.963,7.634,30.661c2.224,29.581-7.422,54.721-28.029,75.767c-13.617,13.906-30.178,22.546-49.239,26.27
		C851.994,326.46,848.045,327.223,844.031,327.118z"/>
	<path style="fill:#151414;" d="M758.686,84.287c-4.82,0.154-9.638,0.41-14.459,0.446c-22.633,0.167-45.243,1.177-67.828,2.417
		c-14.575,0.8-29.087,2.79-43.496,5.298c-1.299,0.226-2.627,0.283-3.942,0.418c-0.101-2.966,0.501-6.006-0.925-8.833
		c8.094-1.854,16.315-3.003,24.55-3.864c33.088-3.462,66.311-4.434,99.548-5.067c1.658-0.032,3.319,0.076,4.978,0.119
		C756.54,78.433,757.403,81.396,758.686,84.287z"/>
	<path style="fill:#151414;" d="M472.628,126.11c14.341-5.906,29.062-10.732,43.838-15.4c20.928-6.611,42.117-12.269,63.435-17.463
		c0.631-0.154,1.316-0.082,1.977-0.115c-0.995,3.186,0.488,5.941,1.525,8.774c-12.339,3.191-24.734,6.181-37.004,9.616
		c-22.784,6.379-45.37,13.404-67.487,21.863c-0.917,0.351-1.896,0.538-2.845,0.802C476.131,130.98,473.891,128.753,472.628,126.11z"
		/>
	<path style="fill:#F4E960;" d="M948.714,136.453c1.751,2.517,3.503,5.034,5.254,7.551c-0.239,2.728,1.237,5.148,0.561,8.168
		c-1.448,6.469-8.814,9.265-14.375,7.221c-1.222-0.449-2.416-0.974-3.624-1.464c-1.894-2.308-3.787-4.616-5.681-6.924
		c0.004-0.294,0.009-0.588,0.016-0.882c1.623-2.408,3.451-0.203,4.623,0.279c2.768,1.139,4.857,0.313,6.769-1.257
		c2.931-2.407,4.843-5.299,3.142-9.397c-0.544-1.31-1.096-2.858,0.7-3.852C946.971,136.082,947.842,136.267,948.714,136.453z"/>
	<path style="fill:#F6EF91;" d="M946.099,135.896c-1.796,0.994-1.244,2.541-0.7,3.852c1.701,4.098-0.211,6.99-3.142,9.397
		c-1.912,1.571-4.001,2.396-6.769,1.257c-1.172-0.482-2.999-2.687-4.623-0.279c-1.253-2.139-2.206-4.398-1.778-6.923
		C930.575,134.419,938.167,131.181,946.099,135.896z M935.234,140.235c-0.365,2.694-0.257,4.679,2.639,4.566
		c1.245-0.049,2.188-1.065,2.024-2.346C939.539,139.644,937.524,139.953,935.234,140.235z"/>
	<path style="fill:#F3E975;" d="M903.03,169.866c0.034-2.85,0.068-5.699,0.102-8.549c1.192-0.058,1.897-1.002,2.822-1.547
		c0.641,2.332-1.835,4.333-0.581,6.993c1.372,1.738,3.1,3.456,5.645,4.093c2.506-0.695,4.316-2.304,5.739-4.349
		c1.149-3.596-0.812-5.656-3.728-7.544c-1.921,0-4.07,0-6.219,0c2.672-3.077,5.919-3.571,9.621-2.196
		c1.507,0.56,3.057,1.006,4.588,1.503c0.1,0.23,0.126,0.469,0.078,0.715c-1.713,0.764-1.408,2.434-0.844,3.38
		c1.98,3.322-0.248,5.762-1.614,8.193c-1.585,2.823-4.449,3.563-7.657,3.523c-1.646-0.02-3.651-0.998-4.988,0.941
		c-0.624-0.682-1.248-1.363-1.872-2.044C903.902,171.89,904.456,170.53,903.03,169.866z"/>
	<path style="fill:#F3E975;" d="M472.628,126.11c1.263,2.643,3.503,4.869,3.439,8.077c-0.062,0.325-0.084,0.663-0.192,0.972
		c-1.632,4.659-5.399,5.999-8.916,4.587c-3.882-1.559-6.162-6.952-4.694-10.828c0.814-2.151,3.973-4.007,6.509-3.689
		C470.074,125.392,471.344,125.809,472.628,126.11z M464.49,129.18c-0.848,1.753-0.91,3.313,0.949,4.593
		c1.231-0.829,2.343-1.548,2.468-3.018C467.326,129.55,466.528,128.826,464.49,129.18z"/>
	<path style="fill:#F3E975;" d="M805.755,74.569c0.373,3.159,0.467,6.297-0.689,9.343c-5.028,3.584-6.077,3.581-11.055-0.03
		c-1.143-2.816-1.053-5.759-0.904-8.709c2.217-3.215,5.088-4.887,10.152-3.594C803.69,72.096,804.723,73.332,805.755,74.569z
		 M794.883,76.014c2.911,2.527,2.911,2.527,4.967-0.277C797.483,73.691,797.483,73.691,794.883,76.014z"/>
	<path style="fill:#F3E975;" d="M758.686,84.287c-1.283-2.89-2.147-5.854-1.574-9.066c2.205-3.305,5.128-4.948,9.311-3.929
		c1.554,0.824,2.599,2.3,3.611,3.808c0.304,3.09,0.253,6.136-1.127,9.015C765.545,86.814,762.139,86.917,758.686,84.287z
		 M760.247,74.349c-0.682,1.998,0.161,2.971,1.653,3.598c1.317-0.389,2.064-1.083,1.924-2.43
		C763.033,74.23,762.03,73.595,760.247,74.349z"/>
	<path style="fill:#F3E975;" d="M628.036,84.034c1.426,2.827,0.824,5.867,0.925,8.833c-3.15,3.712-6.901,3.957-11.048,1.914
		c-1.064-2.782-2.389-5.501-2.058-8.616c0.156-2.448,2.22-3.395,3.629-4.765c1.858-0.618,3.639-0.208,5.114-0.24
		C626.531,81.475,626.691,83.407,628.036,84.034z M619.978,84.079c-1.3,0.355-2.132,1.272-2.622,2.58
		c1.271,1.694,2.649,1.977,4.121,0.338c0.292-0.325,0.337-0.873,0.469-1.241C621.452,84.92,621,84.229,619.978,84.079z"/>
	<path style="fill:#ECE273;" d="M598.528,89.92c0.227-0.719,0.716-1.044,1.467-0.971c-0.113,1.735,0.657,2.931,2.393,3.058
		c1.486,0.109,2.381-0.815,2.51-2.323c-1.375-2.512-3.136-1.777-4.944-0.676c1.52-3.815,3.799-5.016,7.3-3.686
		c1.027,0.391,1.906,1.173,2.853,1.775c1.6,2.711,1.733,5.736,1.865,8.759c-4.047,4.798-5.729,5.169-12.01,2.653
		C599.87,95.582,597.088,93.103,598.528,89.92z"/>
	<path style="fill:#F3E975;" d="M787.058,83.907c-4.45,3.069-5.764,3.067-10.154-0.016c-1.036-2.83-2.978-5.56-0.958-8.725
		c1.439-3.796,4.423-4.535,8.212-4.002c1.623,0.872,3.001,2.248,4.009,4.005C788.766,78.205,788.249,81.099,787.058,83.907z
		 M779.983,78.03c1.786-0.832,2.498-1.873,1.631-3.621c-1.23-0.598-2.41-0.791-3.453,0.262
		C777.682,76.294,778.391,77.247,779.983,78.03z"/>
	<path style="fill:#F4E960;" d="M583.403,101.906c-1.037-2.833-2.52-5.588-1.525-8.774c0.375-0.379,0.749-0.758,1.124-1.137
		c0.028,0.66-0.058,1.35,0.108,1.973c0.32,1.205,1.065,2.09,2.436,2.036c1.574-0.062,2.394-0.985,2.471-2.532
		c0.04-0.809,0.116-1.667-0.74-2.245c-1.4,0.253-2.84,0.513-4.281,0.773c0.557-0.952,1.113-1.905,1.729-2.958
		c2.956,0.011,5.872-0.854,8.369,1.339c1.216,2.822,2.323,5.666,1.833,8.842c-0.297,0.383-0.565,0.794-0.896,1.145
		C590.144,104.484,588.898,104.661,583.403,101.906z"/>
	<path style="fill:#151414;" d="M921.098,158.985c0.048-0.246,0.022-0.485-0.078-0.715c3.276-2.422,6.553-4.843,9.829-7.265
		c1.894,2.308,3.787,4.616,5.681,6.924c-3.13,2.49-6.063,5.239-9.555,7.253C925.143,162.995,923.613,160.523,921.098,158.985z"/>
	<path style="fill:#F6EF91;" d="M906.81,158.963c2.149,0,4.298,0,6.219,0c2.916,1.888,4.877,3.948,3.728,7.544
		c-1.423,2.044-3.234,3.654-5.739,4.349c-2.545-0.637-4.273-2.355-5.645-4.093c-1.254-2.661,1.222-4.662,0.581-6.993
		C906.031,159.279,906.336,159.032,906.81,158.963z M913.761,166.64c0.461-2.051,0.429-3.696-1.452-4.485
		c-1.05-0.441-2.318-0.478-3.255,0.352c-1.43,1.266-1.393,2.761-0.535,4.302C910.313,167.092,911.901,167.23,913.761,166.64z"/>
	<path style="fill:#151414;" d="M775.946,75.166c-2.02,3.165-0.078,5.895,0.958,8.725c-2.666,0.075-5.331,0.149-7.997,0.224
		c1.379-2.88,1.431-5.925,1.127-9.015C772.005,75.122,773.976,75.144,775.946,75.166z"/>
	<path style="fill:#151414;" d="M611.972,95.857c-0.133-3.024-0.265-6.048-1.865-8.759c1.916-0.311,3.833-0.622,5.749-0.933
		c-0.332,3.115,0.994,5.834,2.058,8.616C615.978,95.386,613.765,94.461,611.972,95.857z"/>
	<path style="fill:#151414;" d="M787.058,83.907c1.191-2.808,1.708-5.702,1.109-8.737c1.646,0.001,3.293,0.002,4.939,0.003
		c-0.149,2.95-0.239,5.894,0.904,8.709C791.693,83.89,789.376,83.899,787.058,83.907z"/>
	<path style="fill:#151414;" d="M594.926,99.224c0.49-3.175-0.617-6.02-1.833-8.842c1.805-0.232,3.573-0.898,5.434-0.462
		c-1.44,3.184,1.342,5.663,1.434,8.59C598.283,98.748,596.605,98.986,594.926,99.224z"/>
	<path style="fill:#A09168;" d="M1081.165,205.143c-14.175,32.947-28.35,65.895-42.492,98.766c-10.656,0-20.928,0-31.76,0
		c-2.575-33.844-5.138-67.536-7.701-101.229c-0.186,0.019-0.372,0.039-0.557,0.058c-5.912,33.577-11.825,67.153-17.79,101.033
		c-11.534,0-22.925,0-34.954,0c8.12-46.012,16.215-91.889,24.296-137.681c4.041-1.232,47.23-1.545,55.849-0.384
		c2.101,26.944,4.212,54.006,6.336,81.238c0.693-0.644,0.028-0.001,0.689-0.081c0.142-0.017,0.352-0.097,0.398-0.204
		c11.648-27.076,23.285-54.158,34.967-81.345c18.411,0,36.678,0,55.694,0c-3.844,23.425-8.211,46.421-12.189,69.481
		c-3.964,22.975-8.097,45.921-12.186,69.051c-11.622,0-23.016,0-34.961,0c5.839-33.022,11.617-65.699,17.395-98.375
		C1081.855,205.362,1081.51,205.252,1081.165,205.143z"/>
	<path style="fill:#A09168;" d="M1231.962,260.079c3.265-18.274,6.314-35.343,9.422-52.743c9.194,0,18.403,0,28.154,0
		c-5.667,32.238-11.276,64.15-16.949,96.421c-9.293,0-18.697,0-28.613,0c-8.301-16.629-16.734-33.522-25.166-50.416
		c-0.272-0.013-0.545-0.026-0.817-0.039c-3.001,16.756-6.002,33.511-9.048,50.516c-9.251,0-18.326,0-28.134,0
		c5.7-32.291,11.371-64.42,17.059-96.644c9.406,0,18.368,0,27.8,0C1214.179,224.295,1222.782,241.605,1231.962,260.079z"/>
	<path style="fill:#A09168;" d="M1329.917,207.082c9.645,0,18.455,0,27.711,0c8.552,17.206,17.161,34.527,25.77,51.848
		c0.293-0.002,0.586-0.005,0.879-0.007c3.02-17.178,6.04-34.357,9.09-51.706c9.469,0,18.726,0,28.279,0
		c-5.687,32.213-11.339,64.228-17.048,96.568c-9.343,0-18.748,0-28.414,0c-9.004-16.462-16.291-33.945-26.047-51.557
		c-3.156,17.797-6.13,34.568-9.147,51.587c-9.282,0-18.355,0-28.134,0C1318.548,271.542,1324.214,239.418,1329.917,207.082z"/>
	<path style="fill:#A09168;" d="M1284.362,207.245c10.141,0,19.748,0,30.01,0c-5.673,32.378-11.285,64.405-16.927,96.607
		c-10.023,0-19.6,0-29.855,0c2.316-16.453,5.611-32.434,8.407-48.495C1278.774,239.4,1281.546,223.443,1284.362,207.245z"/>
	<path style="fill:#A09168;" d="M1145.419,303.924c-10.118,0-19.556,0-29.737,0c2.377-16.404,5.47-32.395,8.278-48.43
		c2.794-15.959,5.541-31.926,8.359-48.18c9.803,0,19.527,0,29.981,0C1156.674,239.516,1151.082,271.517,1145.419,303.924z"/>
	<path style="fill:#F4E960;" d="M921.098,158.985c2.515,1.538,4.046,4.01,5.878,6.197c0.746,3.274,2.763,6.306,1.127,9.972
		c-1.55,3.474-3.316,6.442-7.482,6.99c-1.614,0.025-3.228,0.05-4.842,0.074c-2.346-0.45-4.152-2.416-6.671-2.379
		c-0.172-2.165-2.58-2.885-3.112-4.817c1.337-1.94,3.343-0.962,4.988-0.941c3.209,0.039,6.072-0.7,7.657-3.523
		c1.365-2.431,3.593-4.871,1.614-8.193C919.69,161.419,919.384,159.749,921.098,158.985z"/>
	<path style="fill:#B5783A;" d="M70.368,291.693c-2.299-0.008-3.402,1.304-4.973,0.97C66.631,289.823,66.631,289.823,70.368,291.693
		z"/>
	<path style="fill:#E0BB7C;" d="M778.014,298.007c-4.642-3.011-7.386-7.802-10.872-11.866c-1.875-2.186-4.231-4.147-5.213-7.042
		c3.765-2.293,7.458-4.521,10.077-8.371c1.609-2.365,4.07-4.202,6.424-6.058c4.344-3.426,9.664-5.764,12.705-10.737
		c2.485-0.057,4.344,1.16,6.112,2.777c3.477,3.178,5.811,7.104,7.765,11.308c-1.749,0.747-3,2.15-3.838,3.705
		c-0.982,1.822-2.339,3.352-3.922,4.37c-6.382,4.104-10.39,10.48-15.389,15.874C780.358,293.59,778.006,295.2,778.014,298.007z"/>
	<path style="fill:#3B3A38;" d="M911.054,187.188c-2.985,3.594-6.267,6.892-9.874,9.863c-0.893-0.023-1.858-0.195-2.141,1.038
		l0.041-0.04c-0.618,0.07-0.961,0.414-1.031,1.031l0.031-0.031c-0.617,0.07-0.961,0.414-1.031,1.031l0.031-0.031
		c-0.618,0.07-0.961,0.414-1.031,1.032l0.031-0.032c-0.617,0.07-0.961,0.414-1.031,1.032l0.039-0.041
		c-1.218,0.275-1.089,1.217-1.049,2.116c-0.016,0.297-0.035,0.593-0.055,0.89c-3.439,2.094-7.205,3.327-11.176,3.661
		c-5.958,0.502-13.715-1.413-14.01-9.705c3.164-1.825,6.627-3.208,9.031-6.158c0.527-0.646,1.233-1.043,2.126-0.943
		c0.254,1.338-0.626,2.111-1.385,3.018c-1.853,2.214-3.608,4.509-5.385,6.748c1.764,1.96,3.49,3.126,5.553,3.317
		c2.19-0.639,2.92-2.889,4.852-3.521c0.669,0.768,0.798,1.932,2.082,2.272c7.569-6.865,13.841-15.094,21.098-22.384
		c0.737-0.741,1.272-1.431,2.336-1.511c2.52-0.037,4.325,1.929,6.671,2.379c-0.871,1.643-2.159,2.882-3.73,3.847
		c-0.212-0.195-0.559-0.592-0.616-0.554C910.802,185.931,911.078,186.599,911.054,187.188z"/>
	<path style="fill:#EFD7A7;" d="M863,184.845c0.474-0.903,1.357-1.021,2.133-0.784c6.507,1.985,13.169,0.402,19.744,1.126
		c5.954-3.886,10.725-8.866,15.183-14.187c1.213,0.205,2.015-0.663,2.97-1.134c1.426,0.664,0.872,2.024,1.093,3.112
		c-6.995,6.016-13.989,12.033-20.876,17.956c-1.083-0.253-1.477-1.283-2.42-1.054c-4.388-2.171-9.164-0.232-13.589-1.522
		c-2.475,2.95-0.741,5.812-0.358,8.629c-3.744-0.689-7.145-3.09-11.369-1.821c0.358-1.976,0.313-3.607,1.597-4.807
		c1.113-1.04,0.929-2.378,0.845-3.692c0.274-0.231,0.548-0.462,0.822-0.694C860.209,185.69,862.045,186.919,863,184.845z"/>
	<path style="fill:#EFD7A7;" d="M791.134,253.933c-3.041,4.973-8.36,7.311-12.705,10.737c-2.354,1.856-4.816,3.694-6.424,6.058
		c-2.619,3.85-6.312,6.078-10.077,8.371c-2.061-1.117-3.04-3.063-3.904-5.097c0.623-0.167,1.383-0.16,1.847-0.527
		c5.262-4.161,10.654-8.185,15.625-12.674c2.153-1.944,5.271-2.881,6.475-5.86l-0.03,0.017c2.987,0.118,3.718-3.132,6.022-4.033
		C789.151,251.791,791.107,251.845,791.134,253.933z"/>
	<path style="fill:#C59551;" d="M778.014,298.007c-0.008-2.807,2.344-4.417,3.849-6.041c4.998-5.394,9.007-11.77,15.389-15.874
		c1.582-1.017,2.94-2.548,3.922-4.37c0.838-1.555,2.089-2.958,3.838-3.705c1.341,1.988,2.681,3.975,4.022,5.963
		c-2.5,0.184-4.216,1.706-5.879,3.373c-3.412,3.418-6.599,7.132-10.364,10.109c-4.715,3.729-8.833,7.961-12.719,12.482
		C779.005,299.703,778.359,299.015,778.014,298.007z"/>
	<path style="fill:#C59551;" d="M812.969,277.832c-7.628,8.151-15.26,16.296-22.87,24.464c-0.424,0.455-0.654,1.092-0.975,1.644
		c-2.869,0.236-5.69,0.352-7.152-2.892c1.522,0.126,2.343-0.966,3.32-1.848c2.937-2.653,5.273-5.833,7.858-8.797
		c5.082-5.827,10.938-10.736,17.814-14.357C811.911,276.328,812.578,276.925,812.969,277.832z"/>
	<path style="fill:#B5783A;" d="M810.964,276.045c-6.877,3.621-12.732,8.53-17.814,14.357c-2.585,2.964-4.92,6.143-7.858,8.797
		c-0.977,0.882-1.798,1.974-3.32,1.848c-0.634-0.368-1.267-0.735-1.901-1.103c3.886-4.52,8.004-8.752,12.719-12.482
		c3.765-2.978,6.952-6.691,10.364-10.109c1.663-1.666,3.379-3.189,5.879-3.373C809.677,274.669,810.32,275.357,810.964,276.045z"/>
	<path style="fill:#E0BB7C;" d="M781.972,254.941c-1.204,2.98-4.322,3.917-6.475,5.86c-4.971,4.488-10.363,8.512-15.625,12.674
		c-0.464,0.367-1.224,0.36-1.847,0.527c-0.309-0.577-0.619-1.154-0.94-1.754c-0.042-1.497,1.659-1.959,1.984-3.251
		c3.743-0.279,5.782-3.429,8.616-5.216c3.712-2.341,7.182-5.068,10.721-7.678C779.49,255.304,780.536,254.577,781.972,254.941z"/>
	<path style="fill:#151414;" d="M911.054,187.188c0.024-0.589-0.252-1.256,0.378-1.676c0.057-0.038,0.404,0.359,0.616,0.554
		c-0.089,0.275-0.108,0.554-0.057,0.838C911.67,186.971,911.358,187.066,911.054,187.188z"/>
	<path style="fill:#696969;" d="M880.827,189.879c0.943-0.229,1.337,0.801,2.42,1.054c6.886-5.923,13.881-11.939,20.876-17.956
		c0.624,0.681,1.248,1.363,1.872,2.044c0.532,1.932,2.94,2.652,3.112,4.817c-1.063,0.08-1.598,0.77-2.336,1.511
		c-7.257,7.291-13.529,15.519-21.098,22.384c-1.284-0.341-1.413-1.504-2.082-2.272c-1.932,0.632-2.662,2.882-4.852,3.521
		c-2.064-0.191-3.789-1.357-5.553-3.317c1.776-2.239,3.532-4.535,5.385-6.748c0.759-0.907,1.639-1.679,1.385-3.018l-0.009,0.078
		c0.73-0.087,0.94-0.603,1.015-1.23C880.911,190.459,880.866,190.17,880.827,189.879z"/>
	<path style="fill:#FAF5C6;" d="M464.49,129.18c2.038-0.354,2.835,0.37,3.417,1.575c-0.125,1.47-1.236,2.189-2.468,3.018
		C463.581,132.493,463.643,130.933,464.49,129.18z"/>
	<path style="fill:#FAF5C6;" d="M794.883,76.014c2.599-2.323,2.599-2.323,4.967-0.277C797.795,78.541,797.795,78.541,794.883,76.014
		z"/>
	<path style="fill:#FAF5C6;" d="M760.247,74.349c1.783-0.754,2.785-0.119,3.577,1.167c0.14,1.347-0.607,2.041-1.924,2.43
		C760.408,77.32,759.566,76.347,760.247,74.349z"/>
	<path style="fill:#FAF5C6;" d="M619.978,84.079c1.021,0.15,1.474,0.841,1.968,1.676c-0.132,0.369-0.176,0.916-0.469,1.241
		c-1.472,1.64-2.85,1.356-4.121-0.338C617.846,85.352,618.679,84.434,619.978,84.079z"/>
	<path style="fill:#FAF5C6;" d="M599.954,89.008c1.808-1.101,3.569-1.836,4.944,0.676c-0.13,1.508-1.024,2.433-2.51,2.323
		c-1.736-0.128-2.505-1.324-2.393-3.058L599.954,89.008z"/>
	<path style="fill:#FAF5C6;" d="M779.983,78.03c-1.592-0.784-2.301-1.736-1.822-3.359c1.044-1.053,2.223-0.86,3.453-0.262
		C782.481,76.157,781.769,77.198,779.983,78.03z"/>
	<path style="fill:#FAF5C6;" d="M582.995,92.001c1.44-0.26,2.881-0.52,4.281-0.773c0.856,0.578,0.78,1.436,0.74,2.245
		c-0.077,1.548-0.897,2.47-2.471,2.532c-1.371,0.054-2.115-0.831-2.436-2.036c-0.166-0.623-0.08-1.313-0.108-1.973
		C583.001,91.995,582.995,92.001,582.995,92.001z"/>
	<path style="fill:#FAF5C6;" d="M913.761,166.64c-1.86,0.591-3.447,0.452-5.242,0.169c-0.858-1.541-0.895-3.035,0.535-4.302
		c0.937-0.83,2.205-0.792,3.255-0.352C914.19,162.944,914.222,164.589,913.761,166.64z"/>
	<path style="fill:#E0BB7C;" d="M857.954,186.666c0.083,1.314,0.268,2.652-0.845,3.692c-1.284,1.199-1.239,2.831-1.597,4.807
		c4.224-1.27,7.625,1.132,11.369,1.821c1.259,0.082,0.919,1.686,1.917,2.016c0.295,8.292,8.052,10.206,14.01,9.705
		c3.971-0.334,7.737-1.567,11.176-3.661c0.023,0.652,0.047,1.303,0.07,1.955l9.908,9.98c-0.005,1.856-0.703,3.582-1.693,5.002
		c-4.42,6.34-9.717,11.84-16.263,16.05c-0.434-2.201,0.716-3.664,2.412-4.708c1.028-0.633,1.81-1.226,1.587-2.549
		c0.25-0.263,0.5-0.526,0.751-0.789c1.032,0.167,1.911-0.127,2.624-0.891c2.523-2.701,5.478-4.993,7.613-8.06
		c-0.929-4.917-3.803-8.197-8.646-10.086c-4.378,1.785-8.088,4.546-10.331,9.034c-1.998,0.837-3.991,2.041-6.024,0.077
		c2.083-1.839,1.699-4.728,2.946-6.923c0.65-0.079,1.307-0.195,2.129,0.761c0.518,0.367-1.187,1.065-0.155,2.01
		c1.957-1.028,3.438-2.582,4.73-4.431c-1.663-1.12-2.887,0.863-4.383,0.222c-3.206-1.373-6.83-0.119-10.088-1.575
		c-0.813-0.363-2.309-0.707-2.993,0.753c-1.81,1.095-2.019,3.097-2.831,4.766c1.035,1.679,3.844,1.639,3.771,4.167
		c-2.062,0.435-3.705,0.046-5.434-1.466c-2.409-2.106-5.274-3.691-8.497-5.873c-3.628,6.558-6.998,12.739-12.822,17.748
		c2.719,1.026,4.602,0.928,6.497,0.353c5.102-1.546,10.101-1.992,15.504-0.807c3.926,0.861,8.363,1.022,12.324-0.23
		c3.085-0.975,4.994,0.101,7.163,1.865c-2.839,3.684-6.255,5.798-10.708,6.854c-2.065,0.489-4.192,0.574-6.253,1.189
		c-4.79,1.43-8.079-0.008-11.067-4.086c-0.763-1.042-0.919-2.564-2.82-3.273c-2.348-0.691-4.659,0.588-6.948,1.959
		c-0.457-1.218-1.718-1.428-2.358-0.854c-2.588,2.321-5.84,4.133-6.785,7.882c-1.271,2.51-4.846,2.282-5.94,5.001
		c-3.87-1.202-5.854-4.833-8.991-6.98c1.154-3.496,4.17-5.489,6.471-8.066c1.116-1.25,2.804-2.124,3.188-3.733
		c-1.222-1.619-2.235-0.594-2.849-0.147c-3.069,2.232-6.204,4.401-8.756,7.275c-0.708,0.797-1.1,1.634-1.171,2.663
		c-1.853-0.155-3.254-1.362-4.862-2.09c5.856-2.698,10.491-6.983,15-11.453c1.359-1.347,2.504-2.656,1.805-4.732
		c3.898-6.945,8.04-13.731,13.074-19.931c0.898,0.216,1.499,1.334,2.618,0.859c1.712-0.709,1.417-3.376,3.574-3.651
		c0.208,0.826-0.596,1.884,0.664,2.58c1.702-1.414,3.021-2.972,2.85-5.763c-1.609,0.556-1.907,2.37-3.402,2.244
		c0.279-1.357,1.102-2.599,0.859-4.066C853.351,189.608,855.652,188.137,857.954,186.666z M846.916,218.908
		c-0.831,0.016-1.626,0.101-1.958,1.049c-0.345,0.065-0.69,0.13-1.036,0.195c-0.292,0.002-0.582-0.024-0.869-0.078
		c0.624-1.262,1.153-2.547,0.955-4.006c-2.762-1.336-6.377-0.646-7.967,1.535c-0.08,0.11-0.029,0.317-0.039,0.478
		c-0.427,1.751,1.546,1.726,2.058,2.782c-1.369,0.281-2.656,0.717-4.127,2.395c3.75-1.068,7.119-0.561,10.086-2.251
		c0.566-0.078,0.94-0.362,1.03-0.954c0.841,0.011,1.665-0.014,2.021-0.993c0.527-0.147,0.859-0.478,0.964-1.023
		c0.753-0.387,1.252-0.844,0.489-1.676c-0.625,0.396-0.544,1.014-0.571,1.594C847.378,218.025,847.048,218.358,846.916,218.908z"/>
	<path style="fill:#E5D86F;" d="M810.964,276.045c-0.644-0.688-1.287-1.377-1.931-2.065c-1.341-1.988-2.681-3.975-4.022-5.963
		c-1.954-4.204-4.288-8.129-7.765-11.308c-1.768-1.616-3.627-2.834-6.112-2.777c-0.027-2.088-1.984-2.142-3.17-3.008
		c-0.36-0.666-0.721-1.333-1.081-1.999c0.481-2.329,2.283-3.942,3.271-6.009c0.937-1.961,2.884-2.628,4.907-2.805
		c1.631-0.143,3.284-0.029,4.55-0.029c2.672-1.075,3.748-3.816,6.405-4.23c1.627,0.213,3.21,0.3,4.822,0.966
		c10.522,4.347,17.776,12.358,24.292,21.246c-0.071,2.959-0.143,5.917-0.214,8.876c-1.326,0.607-1.912,1.704-2.049,3.098
		c-2.116,1.207-3.71,2.947-5.049,4.947c-0.887,0.673-2.154,0.794-2.748,1.892c-3.938,1.527-8.026,1.145-12.1,0.953
		C812.578,276.925,811.911,276.328,810.964,276.045z M805.998,249.026c-1.717,1.029-1.035,2.154-0.04,3.16
		c1.142,1.155,3.014,1.239,4.043,2.554c-0.527,3.39-3.57,3.255-6.226,3.971c2.021,2.983,3.757,5.544,5.401,7.97
		c3.97-4.488,7.67-9.017,12.893-11.722c1.534,1.164,2.872,1.931,2.829,3.595c0.306,2.842-2.5,3.082-3.781,4.377
		c0.809,2.597,3.286,1.458,4.656,2.531c0.527,1.187,0.221,2.719,1.557,3.519c5.198-3.158,6.595-8.479,2.704-13.208
		c-5.475-6.655-11.669-12.644-19.968-15.853c-0.73-1.169-1.652-1.228-2.753-0.489c0.631,0.924,1.652,0.578,2.464,0.847
		c0.363,1.127-0.056,2.662,1.94,2.832c1.558,0.132,2.517,1.348,3.33,2.825c-0.476,1.253-0.983,2.587-1.445,3.803
		c-2.768,0.688-5.429,2.141-7.627-0.734c1.62,0.029,3.325,0.231,3.912-1.931c-0.35-1.16-0.952-1.995-2.241-1.849
		C805.881,246.052,805.956,247.546,805.998,249.026z M826.955,270.371c-1.625-1.161-2.905-1.159-4.267-0.232
		c-3.143,2.141-6.537,2.685-10.596,0.735C815.181,275.673,819.82,275.356,826.955,270.371z M792.296,245.826
		c1.394,0.066,2.618,0.384,2.654-1.41c0.014-0.681-0.333-1.278-1.153-1.325C792.115,242.995,791.897,243.972,792.296,245.826z"/>
	<path style="fill:#A09168;" d="M835.129,258.065c-6.515-8.887-13.769-16.899-24.292-21.246c-1.612-0.666-3.195-0.753-4.822-0.966
		c0.144-0.806,0.415-1.721,1.314-1.716c1.894,0.011,3.166-1.216,4.663-2.006c-0.095,1.493,0.521,2.486,2.014,2.86
		c1.607,0.728,3.008,1.935,4.862,2.09c0.755,1.111,2.08,1.336,3.117,2.008c3.137,2.146,5.12,5.778,8.991,6.98
		c0.271,2.527,2.173,3.719,4.04,4.941c0.098,0.551,0.425,0.875,0.972,0.983c0.491,1.37,1.433,2.093,2.92,2.032
		c0.013,0.282,0.013,0.564-0.001,0.846c-0.325,1.37,0.706,2.12,1.394,3.018c5.547,7.249,10.658,14.787,15.016,22.814
		c1.823,3.358,3.368,6.839,3.574,10.749c0.269,5.093-2.738,7.601-7.823,7.153c-4.16-0.367-8.076-1.877-11.021-5.126
		c-5.005-5.523-9.986-11.067-14.977-16.602c0.594-1.098,1.861-1.22,2.748-1.892c4.081,4.756,6.813,10.755,12.401,14.23
		c0.911-1.16,0.72-1.962,0.541-2.777c-1.343-6.088-4.528-11.287-7.892-16.401c0.137-1.394,0.723-2.491,2.049-3.098
		c5.423,7.317,8.862,15.398,9.369,24.479c3.212,3.237,4.424,3.85,7.289,3.734c3.174-0.128,4.932-2.186,4.164-5.287
		c-0.511-2.065-1.406-4.064-2.345-5.987c-2.995-6.127-7.024-11.61-11.036-17.082C840.125,263.755,838.299,260.343,835.129,258.065z"
		/>
	<path style="fill:#EFD7A7;" d="M814.007,234.992c-1.494-0.374-2.109-1.367-2.014-2.86c4.501-3.691,9.004-7.38,13.503-11.073
		c1.552-1.274,3.28-2.124,5.316-2.252c0.699,2.077-0.446,3.385-1.805,4.732C824.497,228.009,819.863,232.295,814.007,234.992z"/>
	<path style="fill:#EFD7A7;" d="M850.079,196.083c-2.157,0.275-1.862,2.942-3.574,3.651c-1.119,0.476-1.72-0.643-2.618-0.859
		c1.255-5.585,2.773-7.238,7.162-7.798c0.244,1.467-0.58,2.709-0.859,4.066C850.125,195.454,850.088,195.767,850.079,196.083z"/>
	<path style="fill:#E0BB7C;" d="M786.883,248.926c0.36,0.666,0.721,1.333,1.081,1.999c-2.304,0.901-3.035,4.152-6.022,4.033
		C782.408,251.98,785.12,250.842,786.883,248.926z"/>
	<path style="fill:#E0BB7C;" d="M863,184.845c-0.955,2.074-2.791,0.845-4.224,1.127C859.886,184.479,861.549,185.061,863,184.845z"
		/>
	<path style="fill:#C59551;" d="M835.016,251.011c-1.867-1.222-3.769-2.414-4.04-4.941c1.094-2.719,4.669-2.491,5.94-5.001
		c3.68-1.519,6.791-3.78,9.143-7.027c2.289-1.371,4.6-2.65,6.948-1.959c1.901,0.709,2.057,2.232,2.82,3.273
		c2.988,4.078,6.277,5.515,11.067,4.086c2.061-0.615,4.188-0.699,6.253-1.189c4.453-1.055,7.87-3.17,10.708-6.854
		c-2.169-1.763-4.077-2.84-7.163-1.865c-3.961,1.252-8.399,1.091-12.324,0.23c-5.403-1.185-10.402-0.739-15.504,0.807
		c-1.896,0.574-3.778,0.672-6.497-0.353c5.823-5.009,9.193-11.19,12.822-17.748c3.223,2.183,6.088,3.767,8.497,5.873
		c1.729,1.512,3.372,1.901,5.434,1.466c2.291,0.083,4.583,0.166,6.874,0.249c2.033,1.964,4.027,0.76,6.024-0.077
		c0.36,1.394,0.496,2.901,1.126,4.159c1.49,2.976,2.931,6.133,6.864,6.633c0.223,1.324-0.56,1.917-1.587,2.549
		c-1.696,1.044-2.846,2.507-2.412,4.708c-0.409,0.961-1.095,1.613-2.115,1.892c-1.435,0.046-3.064-0.173-2.878,2.097l0.005-0.008
		c-0.605,0.024-0.946,0.346-1.055,0.932l-0.017,0.011c-1.425,0.038-3.11-0.301-2.959,2.032l0,0.001
		c-1.455-0.005-3.162-0.384-2.983,2.021l0.003-0.003c-1.464-0.032-3.158-0.413-3.013,1.99l0.001-0.001
		c-1.45-0.033-3.093-0.367-3.039,1.947l-0.009,0.013c-8.133,2.403-16.487,2.166-24.825,2.014c-1.548-0.028-2.901,0.349-4.217,1.057
		c-1.487,0.061-2.429-0.662-2.92-2.032c5.982-4.081,13.578-3.416,19.774-6.37c0.811-3.974-1.743-5.274-4.082-6.745
		c-0.669,0.259-1.276,0.305-1.555,0.631c-3.467,4.061-7.613,7.166-12.445,9.465C836.772,249.407,835.443,249.75,835.016,251.011z
		 M851.001,227.001c3.249-0.364,6.584-1.977,9.724-0.849c5.642,2.027,11.179,1.302,17.062,0.455
		c-2.341-2.755-5.35-1.561-7.911-1.512c-4.093,0.079-7.458-1.231-10.265-4.031c-1.282-1.279-2.273-2.851-3.637-4.599
		c-2.504,3.894-2.488,7.81-4.975,10.534c-0.23,0.187-1.073,0.018-0.419,0.719C850.721,227.479,850.861,227.24,851.001,227.001z
		 M860.092,247.583c5.475,0.258,6.395-0.196,13.365-6.376C865.513,240.777,861.438,242.629,860.092,247.583z"/>
	<path style="fill:#B5783A;" d="M903.962,216.98l-9.908-9.98c-0.023-0.652-0.047-1.303-0.07-1.955
		c0.02-0.296,0.039-0.593,0.055-0.89c0.864-0.45,1.271-1.127,1.049-2.116l-0.039,0.041c0.729,0.041,1.073-0.303,1.031-1.032
		l-0.031,0.032c0.729,0.042,1.073-0.302,1.031-1.032l-0.031,0.031c0.73,0.042,1.073-0.302,1.031-1.031l-0.031,0.031
		c0.73,0.042,1.073-0.302,1.031-1.031l-0.041,0.04c0.593-0.047,1.187-0.093,1.78-0.14c0.149,4.989,0.301,9.941,3.446,14.252
		C905.345,213.683,904.557,215.411,903.962,216.98z M899.322,206.889c0.94-1.276,1.01-2.503-0.114-3.964
		c-1.816,0.914-2.977,2.121-3.912,3.696C896.71,207.289,897.985,206.974,899.322,206.889z"/>
	<path style="fill:#E0BB7C;" d="M838.907,254.027c1.316-0.709,2.669-1.086,4.217-1.057c8.338,0.152,16.691,0.389,24.825-2.014
		c-2.883,3.661-7.249,3.554-11.153,3.843c-5.932,0.44-11.924,0.089-17.89,0.074C838.92,254.591,838.92,254.309,838.907,254.027z"/>
	<path style="fill:#E0BB7C;" d="M881.014,242.02c-0.186-2.27,1.443-2.05,2.878-2.097
		C883.517,241.424,882.482,242.019,881.014,242.02z"/>
	<path style="fill:#E0BB7C;" d="M876.989,244.987c-0.151-2.333,1.533-1.994,2.959-2.032
		C879.496,244.411,878.458,245.014,876.989,244.987z"/>
	<path style="fill:#E0BB7C;" d="M874.006,247.01c-0.179-2.406,1.529-2.027,2.983-2.021
		C876.506,246.417,875.49,247.058,874.006,247.01z"/>
	<path style="fill:#E0BB7C;" d="M870.996,248.997c-0.145-2.403,1.549-2.023,3.013-1.99
		C873.496,248.413,872.485,249.068,870.996,248.997z"/>
	<path style="fill:#E0BB7C;" d="M867.959,250.943c-0.054-2.314,1.589-1.98,3.039-1.947
		C870.486,250.427,869.484,251.094,867.959,250.943z"/>
	<path style="fill:#151414;" d="M900.818,197.949c-0.593,0.047-1.187,0.093-1.78,0.14c0.284-1.233,1.249-1.061,2.141-1.038
		C901.063,197.352,900.943,197.651,900.818,197.949z"/>
	<path style="fill:#E0BB7C;" d="M879.964,242.944c0.109-0.586,0.45-0.908,1.055-0.932
		C880.976,242.672,880.608,242.964,879.964,242.944z"/>
	<path style="fill:#C59551;" d="M868.798,199.001c-0.998-0.33-0.658-1.934-1.917-2.016c-0.383-2.816-2.116-5.679,0.358-8.629
		c4.424,1.291,9.201-0.649,13.589,1.522c0.039,0.291,0.083,0.58,0.134,0.869c-0.539,0.244-1.089,0.48-1.015,1.23l0.009-0.078
		c-0.892-0.1-1.599,0.297-2.126,0.943C875.425,195.793,871.962,197.176,868.798,199.001z"/>
	<path style="fill:#151414;" d="M895.087,202.039c0.223,0.989-0.184,1.666-1.049,2.116
		C893.998,203.257,893.869,202.314,895.087,202.039z"/>
	<path style="fill:#151414;" d="M898.08,199.049c0.042,0.73-0.301,1.073-1.031,1.031
		C897.118,199.462,897.462,199.119,898.08,199.049z"/>
	<path style="fill:#151414;" d="M899.079,198.049c0.042,0.73-0.301,1.073-1.031,1.031
		C898.118,198.463,898.462,198.119,899.079,198.049z"/>
	<path style="fill:#151414;" d="M896.08,201.049c0.042,0.729-0.302,1.073-1.031,1.032
		C895.119,201.463,895.462,201.119,896.08,201.049z"/>
	<path style="fill:#151414;" d="M897.08,200.049c0.042,0.729-0.301,1.073-1.031,1.032
		C896.118,200.463,896.462,200.119,897.08,200.049z"/>
	<path style="fill:#3B3A38;" d="M879.947,191.978c-0.074-0.75,0.476-0.986,1.015-1.23
		C880.887,191.376,880.677,191.892,879.947,191.978z"/>
	<path style="fill:#EFD7A7;" d="M890.006,230.774c-3.933-0.5-5.373-3.656-6.864-6.633c-0.63-1.259-0.766-2.765-1.126-4.159
		c2.243-4.488,5.953-7.248,10.331-9.034c4.843,1.889,7.717,5.169,8.646,10.086c-4.948,1.227-8.224,4.366-10.237,8.951
		C890.507,230.249,890.257,230.512,890.006,230.774z"/>
	<path style="fill:#EFD7A7;" d="M875.992,220.059c-2.291-0.083-4.583-0.166-6.874-0.249c0.074-2.528-2.736-2.488-3.771-4.167
		c0.812-1.67,1.021-3.672,2.831-4.766c3.473,1.296,6.978,2.436,10.76,2.26C877.691,215.331,878.075,218.22,875.992,220.059z"/>
	<path style="fill:#EFD7A7;" d="M821.985,239.091c-1.037-0.672-2.362-0.898-3.117-2.008c0.071-1.029,0.463-1.865,1.171-2.663
		c2.552-2.874,5.687-5.043,8.756-7.275c0.614-0.446,1.627-1.472,2.849,0.147c-0.385,1.609-2.072,2.484-3.188,3.733
		C826.155,233.601,823.139,235.594,821.985,239.091z"/>
	<path style="fill:#B5783A;" d="M878.939,213.136c-3.782,0.177-7.287-0.963-10.76-2.26c0.685-1.461,2.18-1.117,2.993-0.753
		c3.258,1.457,6.881,0.202,10.088,1.575c1.496,0.641,2.721-1.342,4.383-0.222c-1.293,1.849-2.774,3.402-4.73,4.431
		c-1.032-0.945,0.673-1.643,0.155-2.01C880.246,212.941,879.588,213.057,878.939,213.136z"/>
	<path style="fill:#EFD7A7;" d="M846.059,234.042c-2.353,3.247-5.463,5.508-9.143,7.027c0.945-3.748,4.197-5.56,6.785-7.882
		C844.341,232.614,845.602,232.824,846.059,234.042z"/>
	<path style="fill:#C59551;" d="M890.757,229.986c2.012-4.585,5.289-7.723,10.237-8.951c-2.135,3.067-5.09,5.359-7.613,8.06
		C892.668,229.858,891.79,230.153,890.757,229.986z"/>
	<path style="fill:#EFD7A7;" d="M838.06,220.864c-0.512-1.056-2.485-1.032-2.058-2.782c2.773-0.256,5.414-1.037,8.006-2.013
		c0.198,1.458-0.33,2.743-0.955,4.006C841.5,221.04,839.801,221.082,838.06,220.864z"/>
	<path style="fill:#C59551;" d="M844.008,216.069c-2.592,0.976-5.233,1.757-8.006,2.013c0.01-0.162-0.041-0.368,0.039-0.478
		C837.631,215.423,841.246,214.733,844.008,216.069z"/>
	<path style="fill:#B5783A;" d="M838.06,220.864c1.74,0.218,3.44,0.176,4.993-0.79c0.287,0.054,0.577,0.08,0.869,0.078
		c0.04,0.284,0.073,0.57,0.097,0.856c-2.966,1.69-6.336,1.183-10.086,2.251C835.404,221.582,836.691,221.146,838.06,220.864z"/>
	<path style="fill:#C59551;" d="M850.079,196.083c0.01-0.316,0.047-0.629,0.112-0.939c1.495,0.125,1.794-1.688,3.402-2.244
		c0.171,2.791-1.148,4.349-2.85,5.763C849.482,197.967,850.287,196.909,850.079,196.083z"/>
	<path style="fill:#C59551;" d="M847.952,217.956c0.027-0.58-0.054-1.198,0.571-1.594c0.763,0.832,0.264,1.289-0.489,1.676
		L847.952,217.956z"/>
	<path style="fill:#C59551;" d="M844.958,219.957c0.332-0.948,1.127-1.033,1.958-1.049l0.154,0.153
		c-0.355,0.979-1.179,1.004-2.021,0.993L844.958,219.957z"/>
	<path style="fill:#C59551;" d="M848.034,218.038c-0.105,0.545-0.437,0.876-0.964,1.023l-0.154-0.153
		c0.132-0.55,0.462-0.883,1.036-0.952L848.034,218.038z"/>
	<path style="fill:#C59551;" d="M844.019,221.008c-0.024-0.286-0.057-0.571-0.097-0.856c0.345-0.065,0.69-0.13,1.036-0.195
		l0.092,0.097C844.96,220.646,844.585,220.931,844.019,221.008z"/>
	<path style="fill:#986434;" d="M810.065,239.919c8.299,3.21,14.493,9.198,19.968,15.853c3.891,4.729,2.494,10.05-2.704,13.208
		c-1.335-0.799-1.03-2.332-1.557-3.519c-1.37-1.073-3.847,0.067-4.656-2.531c1.281-1.295,4.087-1.535,3.781-4.377
		c0.043-1.664-1.296-2.431-2.829-3.595c-5.223,2.705-8.922,7.235-12.893,11.722c-1.644-2.426-3.38-4.987-5.401-7.97
		c2.656-0.715,5.699-0.581,6.226-3.971c-1.029-1.315-2.901-1.399-4.043-2.554c-0.995-1.006-1.677-2.131,0.04-3.16l-0.024-0.025
		c2.198,2.875,4.859,1.422,7.627,0.734c0.462-1.216,0.969-2.55,1.445-3.803c-0.813-1.478-1.772-2.693-3.33-2.825
		c-1.996-0.169-1.577-1.704-1.94-2.832L810.065,239.919z"/>
	<path style="fill:#986434;" d="M826.955,270.371c-7.134,4.985-11.774,5.302-14.862,0.504c4.059,1.95,7.452,1.406,10.596-0.735
		C824.05,269.212,825.329,269.21,826.955,270.371z"/>
	<path style="fill:#FAF5C6;" d="M805.998,249.026c-0.041-1.48-0.117-2.974,1.647-3.806c1.289-0.146,1.891,0.69,2.241,1.849
		c-0.587,2.162-2.292,1.961-3.912,1.931L805.998,249.026z"/>
	<path style="fill:#FAF5C6;" d="M792.296,245.826c-0.398-1.854-0.181-2.831,1.501-2.735c0.82,0.047,1.167,0.644,1.153,1.325
		C794.913,246.21,793.689,245.892,792.296,245.826z"/>
	<path style="fill:#986434;" d="M809.776,240.276c-0.812-0.268-1.833,0.077-2.464-0.847c1.101-0.739,2.023-0.68,2.753,0.489
		L809.776,240.276z"/>
	<path style="fill:#B5783A;" d="M835.016,251.011c0.427-1.261,1.757-1.604,2.664-2.036c4.832-2.299,8.978-5.404,12.445-9.465
		c0.278-0.326,0.885-0.372,1.555-0.631c2.339,1.47,4.893,2.771,4.082,6.745c-6.197,2.954-13.792,2.289-19.774,6.37
		C835.441,251.886,835.113,251.562,835.016,251.011z"/>
	<path style="fill:#B5783A;" d="M850.999,226.999c2.487-2.724,2.471-6.64,4.975-10.534c1.364,1.748,2.354,3.32,3.637,4.599
		c2.807,2.8,6.172,4.11,10.265,4.031c2.562-0.049,5.57-1.243,7.911,1.512c-5.882,0.847-11.419,1.572-17.062-0.455
		c-3.139-1.128-6.475,0.486-9.724,0.849L850.999,226.999z"/>
	<path style="fill:#B5783A;" d="M860.092,247.583c1.346-4.954,5.421-6.806,13.365-6.376
		C866.487,247.387,865.567,247.841,860.092,247.583z"/>
	<path style="fill:#B5783A;" d="M851.001,227.001c-0.14,0.239-0.281,0.479-0.421,0.718c-0.654-0.702,0.188-0.532,0.419-0.719
		L851.001,227.001z"/>
	<path style="fill:#986434;" d="M899.322,206.889c-1.337,0.084-2.612,0.399-4.026-0.268c0.935-1.576,2.096-2.783,3.912-3.696
		C900.332,204.387,900.262,205.613,899.322,206.889z"/>
</g>
</svg>
