<?xml version="1.0" encoding="iso-8859-1"?>
<!-- Generator: Adobe Illustrator 27.0.0, SVG Export Plug-In . SVG Version: 6.00 Build 0)  -->
<svg version="1.1" id="Layer_1" xmlns="http://www.w3.org/2000/svg" xmlns:xlink="http://www.w3.org/1999/xlink" x="0px" y="0px"
	 viewBox="0 0 1888.952 389.102" style="enable-background:new 0 0 1888.952 389.102;" xml:space="preserve">
<g>
	<path style="fill:#554983;" d="M0,2.047C0.336,2.048,0.671,2.05,1.007,2.051C1.019,78.993,1.03,155.934,1.041,232.876
		c-0.347,0.057-0.694,0.114-1.041,0.171C0,156.047,0,79.047,0,2.047z"/>
	<path style="fill:#28235F;" d="M1.041,232.876C1.03,155.934,1.019,78.993,1.007,2.051c3.448,0.066,5.708,2.676,8.321,4.256
		c31.64,19.14,63.14,38.513,94.701,57.784c31.827,19.434,63.692,38.804,95.52,58.236c18.287,11.165,36.534,22.397,54.803,33.592
		c0.414,0.254,0.883,0.419,1.694,0.797c0-51.821,0-103.411,0-155.335c17.389,0,34.446,0,51.787,0c0,77.027,0,154.101,0,231.661
		C222.7,182.596,137.735,132.25,52.926,81.996c-0.44,0.235-0.602,0.28-0.699,0.385c-0.109,0.117-0.196,0.281-0.23,0.438
		c-0.069,0.32-0.136,0.649-0.136,0.974c-0.006,49.487-0.006,98.975-0.006,149.119C34.84,233.109,17.943,233.186,1.041,232.876z"/>
	<path style="fill:#28235F;" d="M1721.003,0c56.221,77.957,111.943,155.224,167.948,232.881c-19.46,0-38.485,0-57.673,0
		c-13.451-19.144-26.942-38.343-40.517-57.663c-45.751,0-91.556,0-137.978,0c-13.146,19.139-26.426,38.471-39.698,57.793
		c-19.368,0-38.5,0-57.889,0C1610.377,155.466,1665.408,78.13,1721.003,0z M1722.604,75.124
		c-4.353,4.339-47.408,66.584-48.189,69.539c31.797,0,63.63,0,96.073,0C1754.356,121.236,1738.585,98.333,1722.604,75.124z"/>
	<path style="fill:#28235F;" d="M1297.05,114.52c1.123,3.092,0.792,6.354,0.792,9.598c0.007,34.492,0.005,68.983,0.005,103.475
		c0,1.64,0,3.279,0,5.241c-13.664,0-27.036,0-40.63,0c0-60.494,0-120.924,0-181.894c33.682,20.563,67.111,41.05,100.619,61.407
		c33.46,20.328,66.807,40.848,100.803,61.384c-1.324-13.316-0.799-118.861,0.582-122.496c13.034,0,26.141,0,39.513,0
		c0,60.504,0,120.917,0,181.464c-66.841-39.542-133.666-79.075-200.505-118.582C1298.061,114.018,1297.665,114.301,1297.05,114.52z"
		/>
	<path style="fill:#28235F;" d="M377.283,51.213c14.34,0,28.292,0,42.307,0c0.737,1.713,0.393,3.383,0.394,4.994
		c0.023,34.33-0.133,68.661,0.117,102.988c0.068,9.332,1.871,18.404,7.596,26.379c4.178,5.82,9.58,10.08,15.765,13.122
		c8.968,4.41,18.612,6.514,28.652,7.509c7.804,0.774,15.584,1.139,23.333,0.728c12.39-0.657,24.761-2.255,35.971-8.072
		c10.819-5.614,19.394-13.548,22.872-25.775c0.886-3.114,1.678-6.241,1.673-9.6c-0.058-35.662,0.006-71.324,0.036-106.986
		c0.001-1.638,0-3.277,0-5.184c14.497,0,28.726,0,42.761,0c1.533,1.579,1.072,3.328,1.073,4.948
		c0.02,34.83,0.125,69.66-0.057,104.489c-0.05,9.512-1.332,19.105-5.225,27.802c-4.986,11.139-12.788,20.174-23.531,26.473
		c-12.683,7.436-26.315,11.823-40.804,14.168c-5.948,0.963-12.007,1.285-17.868,2.803c-0.472,0.122-0.995,0.052-1.495,0.057
		c-10.446,0.091-20.894,1.713-31.314,0.732c-9.14-0.861-18.323-0.933-27.447-2.562c-10.259-1.831-20.486-3.474-30.293-7.149
		c-8.357-3.132-16.008-7.409-23.153-12.792c-11.808-8.896-17.674-21.22-20.476-35.165c-0.925-4.602-1.39-9.401-1.369-14.241
		c0.156-34.662,0.077-69.326,0.101-103.989C376.904,55.1,376.589,53.264,377.283,51.213z"/>
	<path style="fill:#28235F;" d="M886.722,68.378c-0.776,8.639-1.526,17.125-2.337,25.605c-0.039,0.404-0.609,0.757-1.049,1.271
		c-8.601-3.825-17.221-7.664-26.168-10.748c-9.878-3.405-19.987-5.853-30.271-7.373c-12.177-1.8-24.494-1.175-36.757-0.988
		c-19.084,0.292-37.132,4.753-53.964,13.891c-10.284,5.583-19.023,12.959-26.016,22.352c-4.85,6.515-8.196,13.936-8.96,21.869
		c-1.462,15.196,1.642,29.246,12.452,41.049c7.381,8.059,15.835,14.525,25.529,19.3c9.198,4.53,19.004,7.283,29.042,9.607
		c14.715,3.407,29.593,3.213,44.358,2.596c15.967-0.667,31.504-4.617,46.397-10.74c8.288-3.407,16.564-6.823,24.802-11.35
		c0,10.618,0,20.724,0,31.198c-5.633,2.835-11.741,4.998-17.846,6.976c-10.527,3.411-21.278,5.954-32.332,7.253
		c-6.682,0.785-13.355,1.461-20.049,2.088c-6.307,0.591-12.574,0.696-18.852,0.599c-7.226-0.112-14.415-0.883-21.619-1.655
		c-13.672-1.465-27.035-4.171-40.166-8.129c-17.41-5.248-33.457-13.333-47.769-24.49c-12.288-9.579-21.729-21.515-26.464-36.67
		c-1.507-4.824-2.212-9.78-2.831-14.829c-1.596-13.01,1.457-25.061,7.323-36.277c4.786-9.15,11.076-17.346,19.346-24.032
		c5.272-4.262,10.434-8.631,16.107-12.339c10.606-6.933,22.299-11.462,34.273-15.39c7.879-2.584,15.977-4.328,24.1-5.674
		c3.659-0.606,7.609-0.767,11.196-1.517c6.724-1.406,13.485-0.744,20.193-1.345c8.011-0.719,16.245-1.179,24.327,0.441
		c1.124,0.225,2.322,0.128,3.485,0.113c7.586-0.097,14.958,1.075,22.396,2.659c7.631,1.626,15.263,3.163,22.762,5.335
		c8.278,2.397,16.313,5.489,24.386,8.471C886.172,67.66,886.474,68.148,886.722,68.378z"/>
	<path style="fill:#28235F;" d="M1196.656,232.944c-14.85,0-29.671,0-44.876,0c-10.176-15.035-20.466-30.238-31.022-45.834
		c-40.035,0-80.291,0-120.725,0c2.149-5.099,11.84-19.243,15.768-23.106c29.494,0,59.14,0,89.426,0
		c-13.51-20.192-26.754-39.986-40.298-60.229c5.966-9.135,15.265-14.979,23.172-22.277
		C1092.776,87.381,1195.735,229.814,1196.656,232.944z"/>
	<path style="fill:#28235F;" d="M1009.968,149.96c-50.715,71.989-78.786,152.765-92.4,239.142c-0.627-0.226-1.152-0.32-1.156-0.43
		c-0.143-4.594-0.912-9.168-1.609-13.645c-1.254-8.054,0.037-16.192-1.556-24.187c-0.481-2.413-0.245-4.981-0.239-7.478
		c0.027-10.164-0.542-20.385,0.366-30.472c0.604-6.714,0.193-13.463,1.317-20.211c0.708-4.25,1.277-8.745,1.363-13.216
		c0.1-5.208,1.135-10.451,2.178-15.534c0.976-4.754,1.752-9.574,2.6-14.329c2.572-14.42,6.256-28.549,10.411-42.545
		c6.395-21.54,14.896-42.284,25.883-61.892c3.872-6.91,7.927-13.808,12.761-20.159c2.576-0.27,3.543,2.213,5.393,3.227
		c9.976,5.462,19.868,11.085,29.649,16.888C1006.862,146.264,1009.855,146.747,1009.968,149.96z"/>
	<path style="fill:#4C407D;" d="M1037.272,114.144c-0.703,3.274-3.618,5.048-5.439,7.51c-2.35,3.178-4.664,6.582-7.926,9.044
		c0.448-2.267-0.91-3.182-2.711-4.095c-3.818-1.936-7.603-3.968-11.249-6.209c-8.278-5.087-16.712-9.893-25.257-14.509
		c3.698-4.114,7.398-8.225,11.092-12.342c0.804-0.896,1.895-1.247,2.977-1.624C1011.596,99.327,1024.434,106.736,1037.272,114.144z"
		/>
	<path style="fill:#D1CEDD;" d="M1170.045,17.058c-3.791,2.832-8.185,4.614-12.408,6.565c-7.429,3.432-14.261,7.934-21.637,11.426
		c0.105-1.534-0.748-2.321-2.016-3.053c-5.376-3.103-10.665-6.357-16.041-9.461c-1.587-0.916-3.197-1.7-3.948-3.51
		c4.456-1.977,9.195-3.054,13.841-4.442c8.783-2.623,17.73-4.538,26.671-6.489c0.796-0.174,1.66-0.038,2.492-0.046
		c1.597,1.312,3.025,2.963,4.828,3.858C1164.76,13.359,1167.243,15.448,1170.045,17.058z"/>
	<path style="fill:#61568B;" d="M1005.037,83.06c4.245-3.727,7.799-8.248,12.784-11.126c1.617,1.337,3.058,3.019,4.882,3.952
		c9.069,4.637,17.503,10.37,26.482,15.136c2.721,1.444,5.082,3.676,8.28,4.189c-3.189,4.086-6.89,7.668-10.841,11.004
		c-12.385-7.066-24.781-14.115-37.143-21.221C1008.056,84.175,1006.784,83.101,1005.037,83.06z"/>
	<path style="fill:#A39DBC;" d="M1120.268,44.136c-0.231,1.043-0.949,1.579-1.818,2.172c-3.942,2.689-7.773,5.54-11.703,8.247
		c-0.626,0.431-1.553,0.427-2.34,0.624c-3.098-1.452-5.785-3.592-8.706-5.339c-7.665-4.584-15.781-8.447-22.892-13.941
		c6.086-3.62,12.426-6.688,19.201-8.807c0.508,1.297,1.526,2.159,2.66,2.825c7.737,4.548,15.49,9.069,23.265,13.553
		C1118.614,43.863,1119.485,43.922,1120.268,44.136z"/>
	<path style="fill:#302968;" d="M1009.968,149.96c-0.113-3.213-3.106-3.696-5.038-4.842c-9.781-5.803-19.673-11.426-29.649-16.888
		c-1.85-1.013-2.817-3.497-5.393-3.227c2.37-3.506,4.797-6.97,7.623-10.133c0.647,0.136,1.381,0.119,1.926,0.432
		c6.141,3.533,12.257,7.108,18.371,10.688c5.684,3.327,11.301,6.774,17.067,9.951c1.813,0.999,2.258,2.236,2.096,4.026
		C1015.152,143.659,1012.362,146.67,1009.968,149.96z"/>
	<path style="fill:#B5AFC9;" d="M1120.268,44.136c-0.782-0.214-1.654-0.273-2.334-0.665c-7.775-4.484-15.527-9.005-23.265-13.553
		c-1.135-0.667-2.152-1.528-2.66-2.825c5.595-3.117,11.836-4.575,17.745-6.888c1.36-0.532,2.825-0.794,4.242-1.181
		c0.751,1.81,2.36,2.594,3.948,3.51c5.375,3.104,10.665,6.358,16.041,9.461c1.268,0.732,2.121,1.519,2.016,3.053
		c-4.325,2.795-8.665,5.567-12.962,8.405C1122.154,44.037,1121.24,44.11,1120.268,44.136z"/>
	<path style="fill:#6D6395;" d="M1057.466,95.211c-3.198-0.513-5.559-2.745-8.28-4.189c-8.979-4.766-17.413-10.499-26.482-15.136
		c-1.824-0.933-3.265-2.615-4.882-3.952c2.844-3.234,6.113-5.949,9.864-8.074c12.796,7.882,25.675,15.618,39.05,22.496
		C1063.704,89.37,1061.19,92.924,1057.466,95.211z"/>
	<path style="fill:#968EB2;" d="M1072.808,35.899c7.111,5.494,15.227,9.357,22.892,13.941c2.922,1.747,5.608,3.887,8.706,5.339
		c-3.47,3.671-7.136,7.081-11.926,9.004c-4.549-2.58-9.11-5.139-13.645-7.744c-6.097-3.503-12.173-7.043-18.26-10.562
		c-1.104-0.638-1.676-1.555-1.58-2.85C1063.32,40.11,1067.848,37.585,1072.808,35.899z"/>
	<path style="fill:#3C3070;" d="M1016.971,139.967c0.162-1.79-0.283-3.027-2.096-4.026c-5.766-3.177-11.384-6.624-17.067-9.951
		c-6.114-3.579-12.23-7.155-18.371-10.688c-0.545-0.313-1.28-0.296-1.926-0.432c2.268-3.095,4.156-6.494,7.179-8.985
		c8.546,4.616,16.98,9.422,25.257,14.509c3.646,2.241,7.431,4.272,11.249,6.209c1.8,0.913,3.159,1.829,2.711,4.095
		C1022.178,134.224,1019.698,137.188,1016.971,139.967z"/>
	<path style="fill:#554983;" d="M1005.037,83.06c1.747,0.041,3.019,1.114,4.444,1.934c12.363,7.106,24.758,14.155,37.143,21.221
		c-1.019,1.256-1.333,3.267-3.987,2.348c-1.08-0.374-2.222,1.57-3.054,2.695c-0.736,0.996-0.905,2.423-2.312,2.887
		c-12.838-7.408-25.675-14.817-38.513-22.225c1.559-1.699,3.119-3.397,4.785-5.212C1003.115,85.237,1002.999,83.71,1005.037,83.06z"
		/>
	<path style="fill:#8A81A9;" d="M1058.995,43.027c-0.096,1.295,0.477,2.212,1.58,2.85c6.088,3.519,12.163,7.059,18.26,10.562
		c4.535,2.605,9.096,5.164,13.645,7.744c-3.032,3.021-5.563,6.665-9.953,7.994c-8.333-4.967-16.571-10.105-25.043-14.823
		c-3.849-2.143-7.306-5.04-11.605-6.365C1049.805,47.601,1054.346,45.225,1058.995,43.027z"/>
	<path style="fill:#776D9C;" d="M1066.734,86.357c-13.374-6.878-26.254-14.614-39.05-22.496c2.612-2.895,5.852-4.95,9.193-6.871
		c2.694-0.151,3.808,2.394,5.807,3.481c9.385,5.105,18.644,10.448,27.828,15.908c1.358,0.807,3.587,1.314,3.503,3.703
		C1072.002,82.653,1069.294,84.419,1066.734,86.357z"/>
	<path style="fill:#8077A3;" d="M1074.016,80.082c0.084-2.39-2.145-2.896-3.503-3.703c-9.184-5.46-18.443-10.804-27.828-15.908
		c-1.999-1.087-3.113-3.633-5.807-3.481c2.741-2.389,5.577-4.635,9.001-5.999c4.299,1.324,7.756,4.221,11.605,6.365
		c8.472,4.717,16.709,9.856,25.043,14.823C1080.163,75.321,1077.12,77.736,1074.016,80.082z"/>
	<path style="fill:#E2E0E9;" d="M1170.045,17.058c-2.802-1.61-5.285-3.699-8.216-5.153c-1.803-0.894-3.232-2.546-4.828-3.858
		c1.939-1.802,4.588-1.441,6.838-1.86c8.81-1.641,17.708-2.817,26.588-4.059c1.79-0.25,3.644-0.036,5.597-0.036
		c1.193,1.11,2.094,2.385,1.829,4.353c-8.547,3.163-17.024,6.592-25.366,10.351C1171.777,17.115,1170.863,16.981,1170.045,17.058z"
		/>
</g>
</svg>
