<?xml version="1.0" encoding="iso-8859-1"?>
<!-- Generator: Adobe Illustrator 27.0.0, SVG Export Plug-In . SVG Version: 6.00 Build 0)  -->
<svg version="1.1" id="Layer_1" xmlns="http://www.w3.org/2000/svg" xmlns:xlink="http://www.w3.org/1999/xlink" x="0px" y="0px"
	 viewBox="0 0 1579.208 1331" style="enable-background:new 0 0 1579.208 1331;" xml:space="preserve">
<g>
	<path style="fill:#1F4666;" d="M1330.649,1301.022c0.325,9.644,0.407,19.287-0.029,28.93c-2.332,0.022-4.664,0.064-6.996,0.064
		c-439.042,0.003-878.084,0.003-1317.126,0.002c-2.166,0-4.332-0.012-6.498-0.018C0,886.667,0,443.333,0,0c12.333,0,24.667,0,37,0
		c-0.306,7.935,0.826,15.931-0.998,23.802c0.618,23.263-1.02,46.541,0.878,69.81c0.779,9.551,0.455,19.195,0.902,28.803
		c0.392,8.425,1.893,16.818,1.229,25.293c-0.026,0.329-0.061,0.7,0.055,0.992c2.064,5.204,0.905,10.774,1.645,16.155
		c0.752,5.474,1.314,11.127,1.513,16.755c0.119,3.377,0.272,6.935,0.934,10.292c1.367,6.932,1.854,13.972,2.686,20.948
		c0.758,6.352,1.425,12.789,2.469,19.044c1.613,9.673,2.504,19.462,4.603,29.071c1.465,6.705,2.004,13.608,3.299,20.356
		c1.754,9.143,4.055,18.182,5.723,27.338c2.404,13.196,5.622,26.208,8.609,39.268c2.368,10.355,4.918,20.679,8.218,30.812
		c1.297,3.982,2.338,8.052,2.327,12.514c-0.176,67.828-0.12,135.657-0.12,203.486c0.001,97.327-0.004,194.654,0.036,291.981
		c0.001,1.758-0.692,3.666,0.612,5.299c1.342,4.17,4.723,4.668,8.39,4.667c29.297-0.003,58.595-0.001,87.892-0.007
		c0.829,0,1.671,0.009,2.484-0.127c3.897-0.654,5.431-2.396,5.606-6.34c0.052-1.163,0.009-2.33,0.009-3.495
		c0.002-74.742,0.003-149.484,0.013-224.225c0-1.828,0.096-3.655,0.147-5.483c1.574-0.054,2.226,0.944,2.953,2.196
		c6.614,11.396,13.32,22.738,19.983,34.106c9.66,16.481,19.721,32.716,30.323,48.605c7.762,11.634,15.558,23.255,23.709,34.616
		c7.575,10.559,15.203,21.084,23.086,31.432c7.48,9.818,14.941,19.661,22.692,29.255c6.942,8.592,13.964,17.137,21.134,25.558
		c7.489,8.795,14.944,17.638,22.656,26.221c7.637,8.499,15.225,17.085,23.211,25.244c19.673,20.1,39.511,40.049,60.083,59.245
		c0.244,0.227,0.47,0.473,0.721,0.693c8.073,7.085,16.144,14.174,24.225,21.25c5.346,4.681,10.623,9.448,16.086,13.989
		c6.585,5.475,13.335,10.751,20.013,16.114c7.197,5.779,14.197,11.827,21.635,17.276c13.134,9.621,26.021,19.571,39.37,28.915
		c17.938,12.556,36.05,24.819,54.519,36.581c18.487,11.773,37.396,22.813,56.381,33.752c15.457,8.906,31.373,16.931,47.073,25.366
		c7.264,3.903,14.786,7.339,22.281,10.818c9.724,4.513,19.422,9.09,29.153,13.599c14.49,6.715,29.235,12.821,43.994,18.895
		c18.675,7.685,37.641,14.616,56.677,21.349c22.105,7.819,44.47,14.836,66.965,21.439c8.791,2.58,17.582,5.188,26.465,7.418
		c21.401,5.371,42.81,10.725,64.455,15.056c7.692,1.539,15.379,3.1,23.091,4.534c10.127,1.883,20.242,3.873,30.425,5.394
		c7.451,1.113,14.944,2.11,22.362,3.326c8.731,1.432,17.528,2.269,26.262,3.625c8.904,1.382,17.929,2.104,26.905,2.983
		c7.031,0.689,14.068,1.578,21.102,1.995c9.549,0.567,19.078,1.195,28.604,2.082c5.909,0.551,11.859,0.361,17.815,0.848
		c10.046,0.822,20.21,0.941,30.286,1c21.092,0.123,42.219,1.346,63.305-0.714C1320.944,1300.6,1325.816,1301.014,1330.649,1301.022z
		"/>
	<path style="fill:#348294;" d="M646.992,339.931c-6.327,0.053-12.67,0.408-18.976,0.07c-5.903-0.316-8.212,2.177-8.2,8.232
		c0.147,76.631,0.095,153.263,0.103,229.895c0.011,103.286,0.03,206.572,0.039,309.858c0,1.663-0.09,3.325-0.138,4.988
		c-1.613-1.311-0.772-3.102-0.782-4.645c-0.083-12.773-0.061-25.546-0.071-38.319c0-23.666,0-47.331-0.001-70.997
		c0-45.557,0-91.114,0-136.828c-2.639-1.186-4.649-2.95-6.237-5.049c-5.363-7.088-11.316-13.69-16.894-20.6
		c-7.23-8.957-14.263-18.049-21.298-27.151c-1.778-2.3-2.578-5.998-6.409-6.372c-0.06-1.828-0.173-3.656-0.173-5.484
		c-0.004-76.138-0.04-152.276,0.076-228.414c0.01-6.84-1.096-9.181-9.3-9.112c-28.487,0.239-56.978,0.096-85.467,0.099
		c-9.062,0.001-9.977,0.924-10.002,9.923c-0.039,13.991-0.1,27.982-0.151,41.973c-3.232,0.116-3.566-2.704-4.337-4.679
		c-4.716-12.072-9.382-24.166-13.82-36.343c-5.781-15.864-10.771-31.997-15.518-48.195c-3.034-10.353-5.825-20.785-8.409-31.26
		c-3.129-12.684-6.263-25.385-8.74-38.206c-1.518-7.857-3.341-15.668-4.398-23.636c-0.88-6.643-1.997-13.286-3.186-19.871
		c-1.455-8.06-2.548-16.169-3.552-24.262c-0.928-7.485-1.76-15.015-2.329-22.568c-0.605-8.032-1.884-16.019-1.827-24.112
		c0.004-0.499,0.061-1.02-0.055-1.495c-1.938-7.932-1.597-16.144-1.691-24.107C394.884,62.182,394.265,31.074,396,0
		c64.333,0,128.667,0,193,0c-0.234,5.767-0.256,11.515-0.78,17.304c-0.877,9.694-0.405,19.492-1.054,29.263
		c-0.69,10.383,0.288,20.843,0.608,31.265c0.314,10.259,1.339,20.492,1.233,30.763c-0.005,0.498-0.037,1.021,0.093,1.491
		c1.594,5.764,1.119,11.748,1.753,17.612c0.44,4.073,0.854,8.228,1.435,12.24c0.888,6.133,1.54,12.317,2.598,18.442
		c1.334,7.721,2.309,15.505,3.886,23.195c1.182,5.761,1.997,11.6,3.271,17.339c2.266,10.203,4.638,20.385,7.182,30.521
		c3.025,12.051,6.715,23.917,10.39,35.784c4.027,13.002,8.747,25.765,13.474,38.518c3.022,8.153,6.807,16.025,9.78,24.194
		C644.311,331.892,647.419,335.328,646.992,339.931z"/>
	<path style="fill:#46AEB6;" d="M1330.663,341.021c0.081,1.321,0.233,2.641,0.233,3.962c0.019,40.029,0.025,80.058,0.018,120.087
		c0,1.319-0.171,2.637-0.262,3.956c-4.277,0.025-8.558,0.588-12.773,0.733c-7.425,0.255-14.763,1.506-22.231,1.323
		c-12.455-0.305-24.923-0.066-37.385-0.102c-1.957-0.006-3.928-0.414-5.836-0.587c-5.193-0.471-10.532-1.442-15.651,0.702
		c-6.098-6.34-11.272-13.451-16.846-20.228c-4.847-5.894-9.682-11.798-14.428-17.773c-2.25-2.832-4.961-3.972-8.625-3.957
		c-26.795,0.112-53.59,0.066-80.385,0.062c-1.829,0-3.658-0.066-5.487-0.101c0.115-1.794-0.898-2.651-2.456-3.279
		c-8.129-3.271-15.752-7.54-23.442-11.714c-8.842-4.799-17.418-10.011-25.91-15.38c-19.12-12.088-36.927-25.979-53.729-41.024
		c-12.242-10.962-23.994-22.622-34.405-35.376c-7.79-9.543-15.547-19.143-22.713-29.229c-11.574-16.291-21.967-33.251-31.247-50.911
		c-3.068-5.838-5.796-11.854-8.52-17.873c-4.614-10.194-8.78-20.554-12.593-31.058c-6.152-16.945-10.897-34.315-14.74-51.907
		c-2.127-9.737-3.863-19.59-5.125-29.474c-0.893-6.993-1.491-14.085-2.412-21.048c-0.933-7.056-0.877-14.141-1.432-21.16
		c-1.163-14.703-0.381-29.54,0.915-44.25c0.345-3.913,0.308-7.908,1.038-11.783C875.085,9.116,875.612,4.571,876,0c40,0,80,0,120,0
		c-0.522,7.528-2.484,14.835-3.18,22.372c-0.803,8.697-1.938,17.345-1.835,26.105c0.078,6.661,0.013,13.324,0.017,19.985
		c0.001,2.331-0.357,4.738,0.095,6.98c1.528,7.575,1.497,15.312,2.752,22.933c1.329,8.07,2.627,16.199,4.605,24.066
		c3.106,12.356,6.64,24.634,11.373,36.561c7.201,18.145,15.824,35.515,26.199,52.022c8.514,13.547,17.962,26.482,28.865,38.147
		c11.302,12.092,23.125,23.68,36.367,33.832c12.579,9.644,25.522,18.656,39.41,26.196c20.863,11.327,42.594,20.598,65.821,26.083
		c8.903,2.103,17.663,4.709,26.805,5.832c5.198,0.638,10.419,1.288,15.58,2.105c6.198,0.981,12.458,1.469,18.625,1.597
		c11.244,0.234,22.517,0.783,33.796-0.661c5.836-0.748,11.735-1.104,17.598-1.924
		C1322.772,341.688,1326.644,340.399,1330.663,341.021z"/>
	<path style="fill:#3F9DA9;" d="M876,0c-0.388,4.571-0.915,9.116-1.767,13.634c-0.731,3.874-0.694,7.869-1.038,11.783
		c-1.296,14.71-2.078,29.546-0.915,44.25c0.555,7.019,0.5,14.104,1.432,21.16c0.92,6.962,1.519,14.055,2.412,21.048
		c1.262,9.884,2.998,19.737,5.125,29.474c3.843,17.593,8.588,34.962,14.74,51.907c3.813,10.503,7.979,20.863,12.593,31.058
		c2.724,6.019,5.452,12.036,8.52,17.873c9.28,17.66,19.673,34.62,31.247,50.911c7.166,10.086,14.923,19.686,22.713,29.229
		c10.411,12.754,22.163,24.414,34.405,35.376c16.802,15.044,34.609,28.935,53.729,41.024c8.493,5.369,17.068,10.581,25.91,15.38
		c7.69,4.174,15.313,8.442,23.442,11.714c1.559,0.627,2.571,1.484,2.456,3.279c-7.319,0.028-14.639,0.157-21.955,0.038
		c-3.146-0.051-5.518,0.806-6.99,3.886c0.301,4.097,3.702,6.436,5.952,9.365c6.74,8.777,14.148,17.025,20.387,26.212
		c2.748,4.046,6.088,7.695,9.218,11.477c7.024,8.488,14.168,16.878,21.112,25.43c10.454,12.876,20.779,25.856,31.158,38.792
		c10.381,12.94,20.77,25.873,31.132,38.828c2.065,2.582,4.476,4.9,6.074,7.844c-4.666,0.707-9.304-0.329-13.734-1.184
		c-11.197-2.16-22.448-4.088-33.562-6.731c-14.774-3.513-29.445-7.345-43.904-11.992c-18.267-5.871-36.182-12.643-53.749-20.376
		c-3.541-1.559-7.02-3.664-11.121-3.682c-0.105-3.991,1.402-7.705,2.008-11.578c1.321-8.447,2.065-16.934,2.248-25.476
		c1.064-0.974,1.061-1.944-0.009-2.912c-0.449-7.103-0.615-14.237-1.417-21.3c-1.037-9.133-2.622-18.228-5.181-27.057
		c-4.987-17.204-12.111-33.447-22.538-48.158c-12.304-17.36-27.833-31.085-46.032-41.986c-16.744-10.03-34.753-16.826-53.686-21.148
		c-11.245-2.567-22.615-4.453-34.156-5.576c-18.58-1.808-37.171-1.707-55.78-1.73c-0.829-0.001-1.658-0.098-2.487-0.151
		c0.313-1.59-0.364-2.972-1.115-4.234c-2.273-3.819-4.644-7.58-7.01-11.343c-6.681-10.625-12.406-21.798-17.946-33.016
		c-3.488-7.064-6.902-14.216-10.097-21.456c-4.516-10.233-9.002-20.507-12.629-31.039c-7.404-21.503-14.721-43.039-19.605-65.352
		c-3.359-15.345-5.94-30.801-8.491-46.268c-1.493-9.05-2.668-18.232-2.915-27.384c-0.206-7.617-1.384-15.141-1.263-22.786
		c0.259-16.319,0.079-32.644,0.08-48.967c0-1.166-0.123-2.351,0.044-3.494C754.24,16.439,755.053,8.255,755,0
		C795.333,0,835.667,0,876,0z"/>
	<path style="fill:#56C1C6;" d="M1331,0c-0.027,1.995-0.077,3.991-0.077,5.986c0.002,79.025,0.01,158.049,0.004,237.074
		c0,1.988-0.157,3.976-0.241,5.964c-6.187-0.311-11.856,2.337-17.831,3.317c-8.462,1.387-16.96,1.996-25.437,2.498
		c-7.716,0.457-15.493,0.178-23.293-0.617c-7.842-0.799-15.628-1.631-23.367-3.139c-16.676-3.251-32.547-8.733-47.891-16.044
		c-16.191-7.716-31.029-17.458-44.4-29.269c-8.818-7.79-17.136-16.243-24.519-25.447c-8.143-10.152-15.089-21.15-21.077-32.724
		c-7.5-14.498-12.913-29.775-16.775-45.606c-3.361-13.775-5.334-27.745-5.063-41.952c0.151-7.93-0.156-15.833,0.768-23.803
		c0.984-8.478,2.365-16.826,4.018-25.177C1086.548,7.377,1088.294,3.88,1088,0C1169,0,1250,0,1331,0z"/>
	<path style="fill:#30788C;" d="M396,0c-1.735,31.074-1.116,62.182-0.748,93.265c0.094,7.963-0.247,16.175,1.691,24.107
		c0.116,0.475,0.058,0.995,0.055,1.495c-0.057,8.093,1.222,16.079,1.827,24.112c0.569,7.553,1.401,15.082,2.329,22.568
		c1.003,8.093,2.096,16.202,3.552,24.262c1.189,6.584,2.305,13.228,3.186,19.871c1.056,7.968,2.879,15.779,4.398,23.636
		c2.477,12.82,5.611,25.521,8.74,38.206c2.584,10.475,5.375,20.907,8.409,31.26c4.747,16.198,9.737,32.331,15.518,48.195
		c4.437,12.176,9.104,24.271,13.82,36.343c0.771,1.975,1.105,4.795,4.337,4.679c0.044,0.995,0.126,1.99,0.127,2.985
		c0.016,64.513,0.026,129.025,0.029,193.538c0,1.16-0.105,2.32-0.16,3.479c-2.186,0.08-3.138-1.442-4.139-3.042
		c-6.548-10.461-12.939-21.017-19.371-31.549c-8.684-14.219-16.892-28.699-24.536-43.474c-14.781-28.572-28.847-57.486-40.918-87.35
		c-5.292-13.094-10.466-26.229-15.145-39.539c-10.376-29.512-19.895-59.289-27.414-89.694c-3.255-13.163-6.598-26.319-9.361-39.574
		c-2.398-11.505-4.776-23.043-6.444-34.723c-1.478-10.347-3.539-20.617-4.902-31.002c-0.407-3.099-0.425-6.27-1.086-9.284
		c-1.409-6.422-1.896-12.97-2.621-19.448c-0.711-6.355-1.638-12.72-2.034-19.086c-0.552-8.88-1.313-17.731-2.07-26.591
		c-0.463-5.415-0.492-10.865-0.871-16.303c-0.782-11.223-0.389-22.507-0.974-33.783c-0.555-10.705-0.432-21.489,0.552-32.295
		C302.835,23.585,301.659,11.733,303,0C334,0,365,0,396,0z"/>
	<path style="fill:#4BB6BD;" d="M1088,0c0.294,3.88-1.452,7.377-2.181,11.059c-1.654,8.352-3.035,16.699-4.018,25.177
		c-0.925,7.97-0.617,15.873-0.768,23.803c-0.271,14.207,1.703,28.177,5.063,41.952c3.863,15.831,9.275,31.109,16.775,45.606
		c5.988,11.574,12.933,22.572,21.077,32.724c7.383,9.204,15.701,17.658,24.519,25.447c13.371,11.812,28.209,21.553,44.4,29.269
		c15.344,7.312,31.215,12.794,47.891,16.044c7.739,1.509,15.525,2.34,23.367,3.139c7.8,0.795,15.577,1.074,23.293,0.617
		c8.477-0.502,16.975-1.111,25.437-2.498c5.975-0.98,11.644-3.628,17.831-3.317c0.074,1.154,0.213,2.308,0.213,3.462
		c0.016,28.36,0.021,56.719,0.011,85.079c0,1.152-0.161,2.304-0.247,3.456c-4.019-0.622-7.891,0.668-11.77,1.21
		c-5.862,0.82-11.761,1.176-17.598,1.924c-11.279,1.445-22.552,0.895-33.796,0.661c-6.167-0.128-12.427-0.616-18.625-1.597
		c-5.161-0.817-10.382-1.466-15.58-2.105c-9.142-1.123-17.902-3.729-26.805-5.832c-23.227-5.485-44.958-14.756-65.821-26.083
		c-13.888-7.54-26.831-16.552-39.41-26.196c-13.242-10.152-25.066-21.74-36.367-33.832c-10.903-11.665-20.35-24.601-28.865-38.147
		c-10.375-16.507-18.998-33.877-26.199-52.022c-4.733-11.928-8.267-24.205-11.373-36.561c-1.978-7.867-3.276-15.996-4.605-24.066
		c-1.255-7.621-1.225-15.358-2.752-22.933c-0.452-2.242-0.094-4.649-0.095-6.98c-0.004-6.662,0.062-13.325-0.017-19.985
		c-0.103-8.76,1.032-17.408,1.835-26.105C993.516,14.835,995.478,7.528,996,0C1026.667,0,1057.333,0,1088,0z"/>
	<path style="fill:#2C6B82;" d="M202,0c22.333,0,44.667,0,67,0c0.287,2.842-0.835,5.559-0.911,8.304
		c-0.297,10.769-0.423,21.532-0.899,32.309c-0.681,15.406-0.487,30.876,0.775,46.296c0.552,6.75,0.005,13.509,0.797,20.327
		c0.852,7.338,0.631,14.847,1.134,22.283c0.378,5.595,1.083,11.171,1.378,16.782c0.187,3.552-0.045,7.361,0.941,10.778
		c1.351,4.684,0.674,9.465,1.631,14.178c1.302,6.41,1.356,13.062,2.261,19.566c1.127,8.096,2.591,16.145,3.881,24.22
		c1.394,8.729,2.381,17.542,4.21,26.178c3.791,17.9,7.316,35.858,11.737,53.629c4.859,19.533,9.99,38.983,16.023,58.184
		c4.03,12.826,7.758,25.749,12.661,38.299c3.761,9.626,6.856,19.513,10.624,29.136c4.613,11.783,9.454,23.477,14.425,35.123
		c5.045,11.82,10.188,23.599,15.8,35.138c6.797,13.974,13.689,27.909,21.08,41.602c5.8,10.745,11.552,21.533,17.734,32.04
		c12.017,20.423,24.398,40.644,37.929,60.125c5.916,8.517,11.897,16.988,17.758,25.542c0.832,1.214,1.604,2.071,3.131,1.964
		c0,18.13,0,36.26,0,54.724c-0.625-0.552-1.023-0.819-1.315-1.173c-5.057-6.12-10.039-12.302-15.162-18.365
		c-6.839-8.092-13.476-16.356-20.19-24.545c-8.063-9.835-16.07-19.729-24.051-29.638c-9.689-12.03-19.508-23.955-29.278-35.92
		c-15.576-19.076-31.173-38.135-46.729-57.227c-10.505-12.892-21.317-25.535-31.401-38.767c0.428-2.718-0.369-5.259-1.314-7.717
		c-1.121-2.916-2.401-5.778-3.739-8.604c-5.141-10.853-9.439-22.058-13.885-33.199c-4.377-10.969-8.333-22.099-12.43-33.175
		c-6.033-16.314-11.346-32.859-16.433-49.468c-3.54-11.558-6.679-23.255-9.788-34.952c-3.653-13.745-7.238-27.514-10.229-41.401
		c-2.992-13.89-6.049-27.774-8.477-41.801c-1.837-10.612-3.719-21.241-5.538-31.861c-1.379-8.054-2.264-16.234-3.353-24.347
		c-1.285-9.569-2.433-19.169-3.619-28.745c-0.865-6.989-1.493-14.052-2.048-21.086c-0.725-9.191-1.147-18.403-2.048-27.591
		c-0.611-6.233-0.397-12.519-0.864-18.802c-1.058-14.21,0.766-28.547-1.238-42.761c-0.342-2.427,1.094-4.425,1.087-6.805
		C201.008,32.513,200.65,16.238,202,0z"/>
	<path style="fill:#28617B;" d="M202,0c-1.35,16.238-0.992,32.513-0.943,48.777c0.007,2.379-1.43,4.378-1.087,6.805
		c2.005,14.214,0.18,28.551,1.238,42.761c0.468,6.284,0.254,12.569,0.864,18.802c0.9,9.188,1.323,18.401,2.048,27.591
		c0.555,7.034,1.182,14.096,2.048,21.086c1.186,9.576,2.334,19.176,3.619,28.745c1.089,8.113,1.974,16.292,3.353,24.347
		c1.819,10.619,3.701,21.248,5.538,31.861c2.428,14.028,5.485,27.912,8.477,41.801c2.991,13.887,6.576,27.656,10.229,41.401
		c3.109,11.697,6.248,23.393,9.788,34.952c5.087,16.609,10.4,33.154,16.433,49.468c4.096,11.076,8.052,22.206,12.43,33.175
		c4.446,11.141,8.744,22.346,13.885,33.199c1.338,2.825,2.618,5.687,3.739,8.604c0.945,2.458,1.742,4.998,1.314,7.717
		c-2.204-2.43-4.521-4.768-6.592-7.307c-6.669-8.176-13.203-16.463-19.873-24.639c-8.038-9.854-16.201-19.607-24.239-29.461
		c-14.382-17.63-28.696-35.314-43.067-52.952c-7.414-9.1-14.904-18.138-22.328-27.229c-4.072-4.986-8.123-9.99-12.095-15.056
		c-2.407-3.069-5.137-4.838-9.337-4.425c-3.777,0.372-7.63-0.037-11.45-0.102c-2.499-10.978-5.098-21.935-7.471-32.941
		c-2.614-12.126-5.081-24.285-7.497-36.452c-1.624-8.177-2.774-16.448-4.273-24.637c-1.412-7.72-2.436-15.495-3.597-23.236
		c-0.872-5.815-1.518-11.725-2.408-17.53c-1.066-6.96-1.734-13.969-2.566-20.937c-0.561-4.701-1.024-9.494-1.377-14.251
		c-0.57-7.693-1.806-15.343-1.804-23.094c0-0.499,0.092-1.039-0.062-1.49c-2.175-6.383-0.383-13.084-1.736-19.633
		c-1.151-5.571-0.56-11.483-0.984-17.258c-0.809-11.042-0.717-22.17-0.988-33.253c-0.393-16.057-0.927-32.157,0.62-48.254
		C112.704,18.045,112.001,8.989,112,0C142,0,172,0,202,0z"/>
	<path style="fill:#3A93A1;" d="M755,0c0.053,8.255-0.76,16.439-1.954,24.596c-0.167,1.142-0.044,2.328-0.044,3.494
		c-0.002,16.323,0.179,32.648-0.08,48.967c-0.121,7.644,1.057,15.169,1.263,22.786c0.247,9.152,1.423,18.333,2.915,27.384
		c2.551,15.467,5.132,30.923,8.491,46.268c4.884,22.313,12.201,43.849,19.605,65.352c3.626,10.532,8.113,20.806,12.629,31.039
		c3.195,7.24,6.608,14.392,10.097,21.456c5.54,11.218,11.265,22.392,17.946,33.016c2.366,3.763,4.737,7.524,7.01,11.343
		c0.751,1.262,1.428,2.644,1.115,4.234c-18.57,0.051-37.141,0.134-55.711,0.142c-13.097,0.005-26.193-0.093-39.29-0.145
		c0.01-1.768-1.118-3.071-1.855-4.531c-6.917-13.695-13.835-27.411-19.647-41.604c-8.009-19.559-15.683-39.265-21.548-59.613
		c-4.48-15.541-8.47-31.195-12.135-46.956c-2.961-12.736-5.226-25.59-7.615-38.415c-1.976-10.607-3.075-21.4-4.105-32.154
		c-0.736-7.683-1.278-15.389-1.964-23.082c-0.63-7.055-0.738-14.204-0.888-21.272c-0.275-12.896-0.706-25.815,0.525-38.773
		c0.808-8.501,0.839-17.161,1.204-25.751c0.112-2.644,0.06-5.27,1.039-7.781C699.667,0,727.333,0,755,0z"/>
	<path style="fill:#368A9A;" d="M672,0c-0.978,2.511-0.926,5.137-1.039,7.781c-0.365,8.59-0.396,17.25-1.204,25.751
		c-1.232,12.959-0.8,25.878-0.525,38.773c0.151,7.068,0.258,14.217,0.888,21.272c0.687,7.693,1.228,15.399,1.964,23.082
		c1.03,10.754,2.129,21.547,4.105,32.154c2.389,12.825,4.654,25.679,7.615,38.415c3.664,15.761,7.655,31.415,12.135,46.956
		c5.865,20.349,13.539,40.054,21.548,59.613c5.812,14.193,12.73,27.909,19.647,41.604c0.737,1.46,1.866,2.764,1.855,4.531
		c-17.075,0.053-34.149,0.141-51.224,0.146c-13.592,0.004-27.183-0.095-40.775-0.147c0.427-4.603-2.682-8.039-4.123-11.999
		c-2.973-8.169-6.758-16.041-9.78-24.194c-4.727-12.753-9.447-25.516-13.474-38.518c-3.675-11.867-7.365-23.733-10.39-35.784
		c-2.544-10.136-4.917-20.319-7.182-30.521c-1.274-5.739-2.089-11.578-3.271-17.339c-1.577-7.689-2.552-15.474-3.886-23.195
		c-1.058-6.125-1.709-12.309-2.598-18.442c-0.581-4.012-0.995-8.167-1.435-12.24c-0.633-5.864-0.159-11.848-1.753-17.612
		c-0.13-0.47-0.098-0.993-0.093-1.491c0.106-10.271-0.919-20.504-1.233-30.763c-0.319-10.422-1.297-20.882-0.608-31.265
		c0.649-9.771,0.177-19.569,1.054-29.263C588.744,11.515,588.766,5.767,589,0C616.667,0,644.333,0,672,0z"/>
	<path style="fill:#2E7187;" d="M463.098,652.002c-1.527,0.107-2.299-0.75-3.131-1.964c-5.861-8.554-11.842-17.025-17.758-25.542
		c-13.531-19.48-25.912-39.701-37.929-60.125c-6.182-10.507-11.935-21.295-17.734-32.04c-7.391-13.693-14.283-27.629-21.08-41.602
		c-5.613-11.538-10.756-23.317-15.8-35.138c-4.97-11.646-9.811-23.34-14.425-35.123c-3.768-9.624-6.863-19.51-10.624-29.136
		c-4.903-12.55-8.631-25.473-12.661-38.299c-6.033-19.2-11.164-38.651-16.023-58.184c-4.421-17.771-7.946-35.728-11.737-53.629
		c-1.829-8.636-2.815-17.449-4.21-26.178c-1.29-8.074-2.754-16.123-3.881-24.22c-0.905-6.504-0.958-13.157-2.261-19.566
		c-0.958-4.713-0.28-9.495-1.631-14.178c-0.986-3.417-0.754-7.226-0.941-10.778c-0.295-5.611-1-11.188-1.378-16.782
		c-0.503-7.436-0.282-14.945-1.134-22.283c-0.791-6.818-0.245-13.577-0.797-20.327c-1.261-15.42-1.456-30.89-0.775-46.296
		c0.476-10.776,0.602-21.539,0.899-32.309C268.165,5.559,269.287,2.842,269,0c11.333,0,22.667,0,34,0
		c-1.341,11.733-0.165,23.585-1.228,35.263c-0.983,10.806-1.107,21.59-0.552,32.295c0.585,11.276,0.192,22.56,0.974,33.783
		c0.379,5.438,0.408,10.888,0.871,16.303c0.758,8.86,1.518,17.711,2.07,26.591c0.396,6.366,1.322,12.731,2.034,19.086
		c0.725,6.477,1.212,13.025,2.621,19.448c0.661,3.014,0.679,6.185,1.086,9.284c1.363,10.385,3.425,20.655,4.902,31.002
		c1.668,11.68,4.046,23.218,6.444,34.723c2.762,13.256,6.106,26.412,9.361,39.574c7.519,30.405,17.038,60.183,27.414,89.694
		c4.68,13.31,9.853,26.446,15.145,39.539c12.071,29.863,26.137,58.778,40.918,87.35c7.644,14.775,15.852,29.255,24.536,43.474
		c6.432,10.531,12.823,21.088,19.371,31.549c1.001,1.599,1.954,3.121,4.139,3.042c0.052,5.784,0.154,11.569,0.145,17.353
		C463.228,623.569,463.153,637.785,463.098,652.002z"/>
	<path style="fill:#22516E;" d="M81.62,892.019c-1.304-1.633-0.612-3.541-0.612-5.299c-0.04-97.327-0.035-194.654-0.036-291.981
		c0-67.829-0.056-135.658,0.12-203.486c0.012-4.462-1.03-8.532-2.327-12.514c-3.301-10.133-5.85-20.457-8.218-30.812
		c-2.987-13.06-6.205-26.071-8.609-39.268c-1.668-9.156-3.97-18.196-5.723-27.338c-1.295-6.749-1.834-13.651-3.299-20.356
		c-2.1-9.608-2.99-19.398-4.603-29.071c-1.043-6.255-1.711-12.692-2.469-19.044c-0.832-6.977-1.32-14.016-2.686-20.948
		c-0.662-3.357-0.815-6.915-0.934-10.292c-0.198-5.629-0.76-11.282-1.513-16.755c-0.74-5.381,0.419-10.951-1.645-16.155
		c-0.116-0.293-0.081-0.663-0.055-0.992c0.664-8.475-0.837-16.868-1.229-25.293c-0.447-9.608-0.123-19.251-0.902-28.803
		c-1.898-23.269-0.26-46.547-0.878-69.81C37.826,15.931,36.694,7.935,37,0c16.667,0,33.333,0,50,0
		c0.135,1.693-1.073,3.022-1.063,4.787c0.08,13.258-0.297,26.505-0.748,39.76c-0.41,12.051-0.659,24.149,0.63,36.271
		c1.169,10.998-0.432,22.17,1.085,33.256c0.779,5.692,0.375,11.504,0.868,17.288c0.795,9.337,1.319,18.709,2.099,28.064
		c0.601,7.205,1.27,14.389,2.023,21.581c0.938,8.969,1.843,17.933,2.951,26.885c0.342,2.761,1.153,5.457,1.177,8.274
		c0.052,6.094,1.411,12.07,2.31,18.042c0.822,5.465,1.494,10.994,2.613,16.439c1.38,6.716,2.299,13.526,3.536,20.273
		c1.089,5.94,2.309,11.856,3.528,17.771c1.812,8.792,3.643,17.58,5.526,26.356c1.78,8.296,3.636,16.575,5.459,24.862
		c-2.16,0.063-4.32,0.174-6.481,0.181c-8.329,0.026-16.659-0.04-24.987,0.046c-4.342,0.045-5.632,1.398-5.794,5.667
		c-0.069,1.83-0.021,3.664-0.021,5.497c0.005,178.409,0.012,356.818,0.013,535.227C81.726,888.359,81.657,890.189,81.62,892.019z"/>
	<path style="fill:#245672;" d="M118.996,339.911c-1.823-8.287-3.68-16.566-5.459-24.862c-1.883-8.777-3.714-17.565-5.526-26.356
		c-1.219-5.915-2.439-11.831-3.528-17.771c-1.237-6.747-2.156-13.557-3.536-20.273c-1.119-5.445-1.791-10.974-2.613-16.439
		c-0.899-5.972-2.258-11.948-2.31-18.042c-0.024-2.817-0.835-5.513-1.177-8.274c-1.108-8.952-2.013-17.916-2.951-26.885
		c-0.752-7.191-1.422-14.375-2.023-21.581c-0.78-9.356-1.304-18.727-2.099-28.064c-0.493-5.785-0.089-11.597-0.868-17.288
		c-1.517-11.087,0.085-22.259-1.085-33.256c-1.289-12.122-1.039-24.22-0.63-36.271c0.451-13.256,0.827-26.502,0.748-39.76
		C85.927,3.022,87.135,1.693,87,0c8.333,0,16.667,0,25,0c0.001,8.989,0.704,18.045-0.151,26.952
		c-1.547,16.097-1.013,32.197-0.62,48.254c0.271,11.083,0.179,22.211,0.988,33.253c0.423,5.774-0.167,11.687,0.984,17.258
		c1.353,6.549-0.439,13.25,1.736,19.633c0.154,0.452,0.063,0.991,0.062,1.49c-0.003,7.751,1.233,15.401,1.804,23.094
		c0.353,4.757,0.815,9.55,1.377,14.251c0.832,6.969,1.5,13.977,2.566,20.937c0.889,5.805,1.536,11.715,2.408,17.53
		c1.161,7.741,2.185,15.516,3.597,23.236c1.498,8.189,2.649,16.46,4.273,24.637c2.416,12.167,4.883,24.326,7.497,36.452
		c2.373,11.006,4.972,21.963,7.471,32.941C136.993,340.189,127.994,340.25,118.996,339.911z"/>
	<path style="fill:#3A93A1;" d="M0,1330c2.166,0.006,4.332,0.018,6.498,0.018c439.042,0.001,878.084,0.001,1317.126-0.002
		c2.332,0,4.664-0.042,6.996-0.064c0.127,0.349,0.253,0.699,0.38,1.048c-442.167,0-884.333,0-1326.5,0C1.54,1331,1.54,1331,0,1330z"
		/>
	<path style="fill:#22516E;" d="M1330.649,1301.022c-4.833-0.008-9.705-0.422-14.492,0.046c-21.086,2.06-42.213,0.837-63.305,0.714
		c-10.076-0.059-20.239-0.179-30.286-1c-5.956-0.487-11.905-0.298-17.815-0.848c-9.526-0.887-19.055-1.515-28.604-2.082
		c-7.034-0.417-14.07-1.306-21.102-1.995c-8.976-0.88-18.001-1.601-26.905-2.983c-8.734-1.356-17.532-2.193-26.262-3.625
		c-7.418-1.217-14.911-2.213-22.362-3.326c-10.183-1.521-20.298-3.511-30.425-5.394c-7.711-1.434-15.399-2.995-23.091-4.534
		c-21.645-4.331-43.054-9.684-64.455-15.056c-8.883-2.229-17.674-4.838-26.465-7.418c-22.495-6.602-44.86-13.62-66.965-21.439
		c-19.036-6.733-38.002-13.664-56.677-21.349c-14.758-6.074-29.503-12.18-43.994-18.895c-9.731-4.509-19.429-9.086-29.153-13.599
		c-7.495-3.479-15.017-6.915-22.281-10.818c-15.7-8.435-31.616-16.46-47.073-25.366c-18.985-10.939-37.894-21.978-56.381-33.752
		c-18.468-11.761-36.581-24.025-54.519-36.581c-13.35-9.344-26.236-19.293-39.37-28.915c-7.439-5.449-14.438-11.498-21.635-17.276
		c-6.678-5.362-13.428-10.639-20.013-16.114c-5.463-4.542-10.74-9.308-16.086-13.989c-8.081-7.076-16.152-14.165-24.225-21.25
		c-0.25-0.22-0.477-0.466-0.721-0.693c-20.572-19.196-40.409-39.145-60.083-59.245c-7.986-8.159-15.574-16.745-23.211-25.244
		c-7.712-8.583-15.167-17.426-22.656-26.221c-7.17-8.42-14.192-16.965-21.134-25.558c-7.75-9.593-15.212-19.436-22.692-29.255
		c-7.883-10.347-15.511-20.872-23.086-31.432c-8.151-11.361-15.947-22.982-23.709-34.616c-10.602-15.89-20.663-32.124-30.323-48.605
		c-6.663-11.368-13.369-22.71-19.983-34.106c-0.726-1.251-1.379-2.249-2.953-2.196c-0.058-0.993-0.167-1.986-0.167-2.979
		c-0.001-40.24,0.007-80.481,0.014-120.721c0-0.949,0-1.898,0-3.628c1.964,1.844,3.24,3.264,4.096,5.06
		c-0.089,1.649-0.095,3.177,0.682,4.82c6.771,14.315,13.284,28.753,20.125,43.034c6.352,13.261,13.453,26.142,20.377,39.112
		c7.225,13.534,14.887,26.813,22.602,40.07c12.261,21.066,25.444,41.535,39.073,61.733c8.563,12.69,17.321,25.232,26.471,37.504
		c6.297,8.445,12.57,16.901,19.038,25.223c5.962,7.671,12.018,15.262,18.1,22.835c5.375,6.693,11.018,13.164,16.51,19.751
		c5.07,6.081,10.28,12.055,15.46,18.027c6.284,7.245,12.819,14.295,19.294,21.382c6.605,7.229,13.645,14.053,20.342,21.214
		c7.586,8.113,15.607,15.845,23.854,23.361c10.535,9.601,20.539,19.786,31.306,29.172c5.729,4.995,11.36,10.106,17.105,15.095
		c8.226,7.143,16.611,14.078,24.998,21.027c9.774,8.097,19.778,15.882,29.775,23.691c15.182,11.858,30.756,23.198,46.647,34.054
		c17.931,12.25,36.085,24.178,54.64,35.51c21.109,12.892,42.42,25.433,64.32,36.882c22.549,11.788,45.288,23.243,68.569,33.587
		c14.589,6.481,29.202,12.896,43.998,18.878c16.131,6.521,32.408,12.673,48.839,18.402c23.066,8.043,46.248,15.736,69.764,22.374
		c10.388,2.932,20.805,5.766,31.243,8.514c14.703,3.871,29.567,7.062,44.389,10.437c10.2,2.323,20.44,4.551,30.713,6.334
		c10.792,1.873,21.521,4.179,32.446,5.467c8.421,0.993,16.779,2.741,25.211,3.915c3.102,0.432,6.317,0.292,9.275,1.115
		c4.017,1.118,8.135,0.948,12.177,1.587c4.025,0.635,8.143,1.093,12.265,1.372c5.87,0.397,11.735,1.272,17.604,1.923
		c4.78,0.53,9.704,0.06,14.273,1.096c5.885,1.335,11.818,0.152,17.695,1.587c4.394,1.073,9.157,0.499,13.781,0.964
		c8.203,0.824,16.536,0.87,24.784,1.026c26.654,0.502,53.324,0.176,79.988,0.199c4.296,0.004,8.59,0.152,12.791-0.997
		c0.084,12.557,0.203,25.115,0.237,37.672C1330.879,1289.465,1330.726,1295.244,1330.649,1301.022z"/>
	<path style="fill:#28617B;" d="M1330.608,1127.029c0.08,1.152,0.228,2.304,0.229,3.457c0.025,26.026,0.037,52.053,0.034,78.08
		c0,1.151-0.162,2.301-0.248,3.452c-6.155-0.71-12.178,1.035-18.299,0.985c-27.761-0.228-55.526,0.481-83.286-0.87
		c-8.256-0.402-16.483-1.833-24.791-1.142c-0.329,0.027-0.687,0.043-0.994-0.056c-6.233-2.003-12.759-0.751-19.144-1.694
		c-5.305-0.783-10.811-1.196-16.248-1.512c-3.363-0.196-6.94-0.136-10.271-0.998c-4.334-1.122-8.793-1.086-13.168-1.565
		c-4.074-0.446-8.195-0.939-12.262-1.392c-10.39-1.157-20.69-3.123-31.027-4.764c-10.665-1.693-21.383-3.109-31.983-5.141
		c-14.115-2.706-28.119-5.989-42.208-8.835c-9.137-1.846-18.184-4.14-27.199-6.405c-8.062-2.026-16.123-4.298-24.169-6.456
		c-14.549-3.902-29.02-8.074-43.344-12.665c-20.617-6.608-41.129-13.546-61.345-21.366c-19.002-7.351-37.919-14.884-56.572-23.069
		c-11.013-4.833-21.978-9.789-32.844-14.942c-18.082-8.575-35.894-17.708-53.493-27.221c-14.057-7.599-27.847-15.706-41.603-23.845
		c-11.328-6.703-22.517-13.65-33.612-20.733c-12.342-7.879-24.497-16.046-36.483-24.469c-11.309-7.948-22.401-16.182-33.423-24.515
		c-8.134-6.15-16.305-12.257-24.307-18.576c-6.471-5.11-12.713-10.509-19.057-15.779c-5.21-4.328-10.267-8.838-15.409-13.24
		c-8.669-7.42-17.31-14.858-25.572-22.731c-1.67-1.592-3.523-3.028-5.196-4.557c-2.418-2.21-6.154-3.695-6.156-7.881
		c7.645,0.041,15.29,0.108,22.935,0.119c16.954,0.024,33.909,0.009,50.863,0.039c2.712,0.005,5.403,0.113,7.186-3.493
		c0-10.98,0-22.609,0-34.237c1.108-0.105,1.818,0.547,2.606,1.212c8.315,7.03,16.782,13.885,24.966,21.064
		c10.422,9.141,21.427,17.561,32.35,26.051c15.583,12.112,31.698,23.546,48.029,34.638c12.935,8.785,25.961,17.468,39.29,25.636
		c20.375,12.486,41.069,24.472,62.244,35.549c15.672,8.198,31.5,16.112,47.562,23.564c16.587,7.695,33.318,15.023,50.19,22.064
		c15.77,6.581,31.732,12.637,47.844,18.302c17.325,6.091,34.774,11.793,52.395,16.995c13.186,3.893,26.449,7.481,39.76,10.882
		c14.887,3.804,29.87,7.195,44.927,10.319c15.047,3.122,30.164,5.828,45.265,8.622c10.938,2.024,21.966,3.652,33.01,4.988
		c8.467,1.025,16.943,1.969,25.41,3.022c6.677,0.83,13.409,1.406,20.11,1.927c8.537,0.663,17.077,1.212,25.604,2.081
		c5.571,0.568,11.194,0.407,16.813,0.866c9.883,0.807,19.877,0.886,29.789,0.985c18.922,0.189,37.883,1.287,56.811-0.682
		C1318.888,1126.497,1324.775,1127.02,1330.608,1127.029z"/>
	<path style="fill:#317B8E;" d="M737.063,847.01c-0.062-1.161-0.179-2.321-0.179-3.482c0.001-54.951,0.013-109.901,0.023-164.852
		c0-0.993,0-1.985,0-2.934c3.998-1.139,49.286-1.531,77.619-0.703c4.079,3.62,7.089,8.451,10.557,12.855
		c16.037,20.368,31.863,40.9,47.853,61.306c23.166,29.565,46.422,59.059,69.612,88.606c14.263,18.172,28.463,36.394,42.727,54.565
		c1.121,1.428,2.53,2.629,3.805,3.936c1.39,1.457,3.157,0.671,4.721,0.674c25.97,0.055,51.94,0.032,77.91,0.048
		c3.779,0.002,7.514-0.333,11.142,1.699c1.332,0.746,3.414,0.964,5.184,1.307c8.975,1.737,17.932,3.571,26.881,5.437
		c8.478,1.767,17,3.263,25.564,4.555c5.185,0.782,10.382,1.492,15.562,2.232c6.962,0.996,13.989,1.601,20.89,2.87
		c4.121,0.758,8.274,0.306,12.285,1.086c5.181,1.008,10.419,1.193,15.627,1.699c3.105,0.302,6.261,0.071,9.28,1.093
		c2.364,0.8,4.592,1.307,7.144,0.161c1.352-0.607,3.183-0.062,4.851,0.279c2.863,0.586,5.837,2.389,8.638,1.379
		c5.693-2.052,11.142-0.284,16.593,0.457c6.77,0.921,13.412,0.944,20.169,0.032c5.592-0.755,11.311-0.776,16.887-0.007
		c6.437,0.888,12.741,0.964,19.172-0.016c4.533-0.69,9.157-2.204,13.716-1.154c3.134,0.722,6.198,0.78,9.321,0.884
		c0.084,1.152,0.241,2.304,0.242,3.456c0.02,28.029,0.027,56.057,0.019,84.086c0,1.15-0.171,2.301-0.263,3.451
		c-4.133-0.116-8.106,1.163-12.294,1.058c-29.242-0.738-58.498,0.835-87.756-0.874c-8.895-0.52-17.842-1.043-26.765-1.424
		c-4.225-0.18-8.677,0.019-12.766-0.999c-5.196-1.294-10.462-0.638-15.675-1.565c-4.131-0.734-8.468-1.154-12.739-1.476
		c-2.888-0.217-5.965-0.163-8.793-0.905c-5.734-1.504-11.646-1.674-17.434-2.761c-7.233-1.358-14.588-2.055-21.836-3.339
		c-7.875-1.394-15.663-3.279-23.537-4.687c-10.458-1.87-20.806-4.245-31.137-6.669c-9.383-2.201-18.689-4.754-28.018-7.179
		c-16.804-4.367-33.354-9.54-49.877-14.791c-12.496-3.971-24.835-8.464-37.127-13.04c-11.845-4.409-23.595-9.063-35.266-13.946
		c-14.279-5.974-28.466-12.145-42.377-18.892c-14.569-7.066-29.18-14.08-43.299-22.052c-9.472-5.349-19.215-10.239-28.529-15.846
		c-18.041-10.86-35.988-21.888-53.272-33.947C740.629,847.642,739.033,846.704,737.063,847.01z"/>
	<path style="fill:#245672;" d="M487.159,896.585c0.002,4.186,3.738,5.671,6.156,7.881c1.673,1.529,3.526,2.965,5.196,4.557
		c8.262,7.873,16.903,15.311,25.572,22.731c5.143,4.402,10.199,8.912,15.409,13.24c6.344,5.27,12.587,10.669,19.057,15.779
		c8.002,6.319,16.173,12.425,24.307,18.576c11.021,8.334,22.113,16.567,33.423,24.515c11.986,8.424,24.141,16.59,36.483,24.469
		c11.095,7.083,22.285,14.03,33.612,20.733c13.756,8.139,27.546,16.246,41.603,23.845c17.599,9.513,35.411,18.646,53.493,27.221
		c10.867,5.153,21.831,10.109,32.844,14.942c18.653,8.185,37.57,15.718,56.572,23.069c20.216,7.821,40.728,14.758,61.345,21.366
		c14.325,4.591,28.796,8.763,43.344,12.665c8.046,2.158,16.107,4.43,24.169,6.456c9.014,2.265,18.061,4.559,27.199,6.405
		c14.09,2.846,28.093,6.129,42.208,8.835c10.6,2.032,21.318,3.449,31.983,5.141c10.336,1.64,20.637,3.607,31.027,4.764
		c4.066,0.453,8.188,0.946,12.262,1.392c4.375,0.479,8.834,0.443,13.168,1.565c3.331,0.862,6.908,0.802,10.271,0.998
		c5.438,0.317,10.944,0.729,16.248,1.512c6.385,0.943,12.911-0.31,19.144,1.694c0.306,0.099,0.665,0.083,0.994,0.056
		c8.308-0.691,16.535,0.74,24.791,1.142c27.76,1.351,55.525,0.642,83.286,0.87c6.121,0.05,12.143-1.695,18.299-0.985
		c0.36,11.333,0.42,22.665,0.004,33.998c-4.2,1.149-8.495,1-12.791,0.997c-26.664-0.023-53.333,0.303-79.988-0.199
		c-8.248-0.155-16.581-0.201-24.784-1.026c-4.624-0.465-9.387,0.109-13.781-0.964c-5.877-1.435-11.81-0.252-17.695-1.587
		c-4.569-1.036-9.493-0.566-14.273-1.096c-5.869-0.651-11.734-1.526-17.604-1.923c-4.121-0.279-8.24-0.737-12.265-1.372
		c-4.042-0.638-8.159-0.469-12.177-1.587c-2.958-0.823-6.173-0.683-9.275-1.115c-8.432-1.174-16.79-2.921-25.211-3.915
		c-10.925-1.288-21.654-3.594-32.446-5.467c-10.273-1.783-20.512-4.011-30.713-6.334c-14.823-3.375-29.686-6.566-44.389-10.437
		c-10.438-2.748-20.855-5.582-31.243-8.514c-23.516-6.638-46.698-14.331-69.764-22.374c-16.431-5.729-32.708-11.881-48.839-18.402
		c-14.796-5.981-29.409-12.396-43.998-18.878c-23.281-10.344-46.019-21.799-68.569-33.587c-21.9-11.448-43.211-23.989-64.32-36.882
		c-18.555-11.332-36.708-23.26-54.64-35.51c-15.891-10.855-31.464-22.195-46.647-34.054c-9.997-7.808-20.001-15.593-29.775-23.691
		c-8.387-6.948-16.771-13.884-24.998-21.027c-5.745-4.988-11.376-10.1-17.105-15.095c-10.768-9.387-20.771-19.571-31.306-29.172
		c-8.247-7.516-16.268-15.247-23.854-23.361c-6.697-7.162-13.737-13.985-20.342-21.214c-6.475-7.087-13.01-14.137-19.294-21.382
		c-5.18-5.972-10.39-11.946-15.46-18.027c-5.492-6.587-11.135-13.059-16.51-19.751c-6.082-7.573-12.138-15.164-18.1-22.835
		c-6.468-8.322-12.741-16.777-19.038-25.223c-9.151-12.273-17.909-24.814-26.471-37.504c-13.629-20.198-26.812-40.667-39.073-61.733
		c-7.716-13.257-15.378-26.536-22.602-40.07c-6.924-12.97-14.025-25.852-20.377-39.112c-6.841-14.281-13.354-28.719-20.125-43.034
		c-0.777-1.643-0.771-3.17-0.682-4.82c1.58,0.662,1.429,2.627,2.442,3.508c5.308,4.616,9.175,10.456,13.587,15.807
		c20.534,24.907,40.97,49.897,61.272,74.994c13.247,16.374,27.289,32.111,39.577,49.259c1.605,2.239,4.218,3.713,5.081,6.546
		c-0.109,1.342,0.172,2.455,0.909,3.719c6.32,10.825,13.74,20.894,20.885,31.164c9.494,13.645,19.244,27.078,29.42,40.231
		c8.77,11.337,17.685,22.54,26.707,33.675c8.626,10.647,17.662,20.936,26.628,31.275c6.173,7.117,12.553,14.088,18.951,21.016
		c7.548,8.171,15.684,15.785,23.111,24.099c3.82,4.276,9.15,7.101,12.214,12.222c0.684,1.144,2.11,0.701,3.255,0.687
		c3.16,2.071,4.629,5.561,6.958,8.329C482.862,893.362,484.492,895.548,487.159,896.585z"/>
	<path style="fill:#2E7187;" d="M737.063,847.01c1.97-0.306,3.565,0.633,5.056,1.673c17.284,12.059,35.231,23.087,53.272,33.947
		c9.314,5.606,19.056,10.497,28.529,15.846c14.119,7.972,28.73,14.986,43.299,22.052c13.911,6.747,28.098,12.918,42.377,18.892
		c11.671,4.883,23.421,9.537,35.266,13.946c12.292,4.575,24.631,9.069,37.127,13.04c16.523,5.251,33.073,10.424,49.877,14.791
		c9.329,2.424,18.636,4.977,28.018,7.179c10.331,2.424,20.679,4.799,31.137,6.669c7.873,1.408,15.661,3.293,23.537,4.687
		c7.249,1.283,14.604,1.98,21.836,3.339c5.788,1.087,11.7,1.258,17.434,2.761c2.829,0.742,5.905,0.687,8.793,0.905
		c4.271,0.321,8.608,0.742,12.739,1.476c5.213,0.927,10.479,0.271,15.675,1.565c4.089,1.018,8.541,0.819,12.766,0.999
		c8.923,0.381,17.87,0.904,26.765,1.424c29.258,1.71,58.514,0.137,87.756,0.874c4.188,0.106,8.161-1.173,12.294-1.058
		c0.082,2.31,0.232,4.62,0.235,6.93c0.025,18.876,0.031,37.752,0.018,56.629c-0.001,1.811-0.166,3.623-0.254,5.434
		c-4.788-0.01-9.602,0.851-14.292,0.81c-26.416-0.229-52.852,1.363-79.252-0.773c-6.578-0.532-13.182-0.276-19.805-0.82
		c-9.181-0.755-18.388-1.254-27.581-2.095c-6.871-0.628-13.728-1.339-20.593-2.01c-8.33-0.814-16.603-1.927-24.89-3.047
		c-9.244-1.25-18.473-2.555-27.695-3.967c-11.315-1.732-22.52-4.011-33.78-6.009c-16.26-2.884-32.295-6.791-48.361-10.516
		c-13.686-3.172-27.323-6.706-40.733-10.88c-18.923-5.89-37.891-11.636-56.531-18.473c-17.262-6.331-34.417-12.864-51.453-19.782
		c-16.633-6.754-32.964-14.161-49.175-21.803c-16.876-7.955-33.431-16.592-49.766-25.652c-13.26-7.354-26.336-14.991-39.344-22.777
		c-17.513-10.482-34.585-21.614-51.391-33.179c-1.209-0.832-2.079-1.593-1.975-3.12c11.149-0.06,22.298-0.12,33.448-0.178
		c1.165-0.006,2.334,0.05,3.496-0.014c3.872-0.215,6.104-2.237,6.021-6.275c-0.216-10.484-0.083-20.975-0.058-31.463
		C736.914,854.993,737.008,851.001,737.063,847.01z"/>
	<path style="fill:#2C6B82;" d="M693.999,896.915c-0.103,1.528,0.766,2.288,1.975,3.12c16.805,11.564,33.877,22.697,51.391,33.179
		c13.008,7.786,26.084,15.423,39.344,22.777c16.335,9.06,32.891,17.697,49.766,25.652c16.211,7.642,32.542,15.049,49.175,21.803
		c17.036,6.918,34.191,13.451,51.453,19.782c18.639,6.836,37.608,12.583,56.531,18.473c13.41,4.174,27.047,7.708,40.733,10.88
		c16.067,3.724,32.101,7.631,48.361,10.516c11.26,1.998,22.465,4.277,33.78,6.009c9.222,1.412,18.451,2.717,27.695,3.967
		c8.287,1.12,16.56,2.233,24.89,3.047c6.864,0.671,13.721,1.382,20.593,2.01c9.193,0.84,18.401,1.34,27.581,2.095
		c6.622,0.544,13.227,0.288,19.805,0.82c26.4,2.136,52.837,0.544,79.252,0.773c4.69,0.041,9.504-0.82,14.292-0.81
		c0.087,14.029,0.182,28.058,0.249,42.088c0.006,1.311-0.166,2.622-0.255,3.933c-5.833-0.009-11.72-0.532-17.49,0.068
		c-18.927,1.968-37.888,0.871-56.811,0.682c-9.912-0.099-19.906-0.178-29.789-0.985c-5.619-0.459-11.243-0.298-16.813-0.866
		c-8.527-0.869-17.067-1.418-25.604-2.081c-6.701-0.521-13.433-1.097-20.11-1.927c-8.466-1.052-16.943-1.997-25.41-3.022
		c-11.044-1.336-22.072-2.964-33.01-4.988c-15.101-2.794-30.218-5.501-45.265-8.622c-15.057-3.124-30.04-6.516-44.927-10.319
		c-13.311-3.401-26.574-6.989-39.76-10.882c-17.621-5.202-35.07-10.904-52.395-16.995c-16.112-5.665-32.074-11.721-47.844-18.302
		c-16.872-7.041-33.603-14.369-50.19-22.064c-16.062-7.452-31.89-15.365-47.562-23.564c-21.175-11.077-41.869-23.063-62.244-35.549
		c-13.329-8.168-26.355-16.851-39.29-25.636c-16.331-11.092-32.446-22.526-48.029-34.638c-10.923-8.49-21.928-16.91-32.35-26.051
		c-8.184-7.178-16.651-14.033-24.966-21.064c-0.787-0.666-1.497-1.318-2.606-1.212c-0.322-17.335-0.272-34.669-0.013-52.004
		c0.863-0.029,1.637,0.181,2.222,0.862c3.89,4.524,9.14,7.569,13.084,12.042c1.092,1.239,2.286,2.403,3.532,3.488
		c7.299,6.357,14.56,12.759,21.976,18.977c3.212,2.693,5.947,6.062,10.023,7.635c0.01,12.773-0.012,25.546,0.071,38.319
		c0.01,1.543-0.831,3.334,0.782,4.645c0.462,1.763,1.526,2.748,3.352,3.26c1.819,0.51,3.612,0.485,5.431,0.486
		c19.972,0.015,39.943,0.014,59.915,0.032C690.345,896.754,692.172,896.859,693.999,896.915z"/>
	<path style="fill:#348294;" d="M1239.202,698.061c-1.089,2.866-3.87,4.318-5.63,6.719c-6.358,8.673-13.351,16.883-20.15,25.23
		c-13.023,15.988-26.052,31.973-39.126,47.919c-14.342,17.493-28.752,34.931-43.107,52.413
		c-9.711,11.827-19.377,23.69-29.068,35.533c-1.152,1.408-2.335,2.792-3.976,4.752c-55.18-68.823-110.138-137.37-165.351-206.235
		c23.421-6.498,44.427-16.759,63.254-31.365c5.568,2.442,11.141,4.875,16.704,7.328c8.734,3.851,17.333,8.044,26.221,11.5
		c15.579,6.058,31.263,11.851,47.245,16.816c12.036,3.739,24.133,7.241,36.344,10.343c10.771,2.736,21.627,5.062,32.542,7.203
		c11.235,2.203,22.474,4.24,33.798,5.921c3.251,0.482,6.524,0.651,9.761,1.179c3.874,0.632,7.765,1.535,11.658,1.587
		c5.302,0.072,10.576,0.81,15.76,1.404C1230.412,696.803,1235.051,696.03,1239.202,698.061z"/>
	<path style="fill:#3A93A1;" d="M1239.202,698.061c-4.151-2.03-8.791-1.257-13.121-1.754c-5.184-0.595-10.458-1.332-15.76-1.404
		c-3.893-0.053-7.784-0.955-11.658-1.587c-3.237-0.528-6.51-0.696-9.761-1.179c-11.324-1.68-22.563-3.717-33.798-5.921
		c-10.915-2.141-21.771-4.467-32.542-7.203c-12.211-3.102-24.308-6.604-36.344-10.343c-15.982-4.965-31.666-10.758-47.245-16.816
		c-8.887-3.456-17.487-7.65-26.221-11.5c-5.564-2.453-11.136-4.886-16.704-7.328c2.311-2.11,4.592-4.254,6.936-6.325
		c20.877-18.445,35.452-41.007,44.105-67.443c1.334-4.077,2.624-8.168,3.934-12.253c4.101,0.018,7.579,2.123,11.121,3.682
		c17.567,7.733,35.482,14.505,53.749,20.376c14.459,4.647,29.13,8.479,43.904,11.992c11.114,2.643,22.364,4.57,33.562,6.731
		c4.429,0.855,9.068,1.891,13.734,1.184c6.38,6.997,11.901,14.692,17.872,22.022c10.601,13.013,21.111,26.101,31.637,39.174
		c3.226,4.007,6.383,8.069,9.662,12.221c-1.082,3.54-4.016,5.672-6.14,8.35c-6.198,7.813-12.494,15.548-18.78,23.291
		C1240.728,696.785,1239.921,697.386,1239.202,698.061z"/>
	<path style="fill:#348294;" d="M1449.895,733.036c10.67,12.944,21.361,25.87,32.003,38.836
		c11.391,13.879,22.745,27.789,34.099,41.699c12.3,15.069,24.583,30.152,36.872,45.23c8.086,9.922,16.125,19.882,24.295,29.734
		c1.37,1.652,2.483,3.16,1.732,5.327c-0.797,2.3-3.014,2.432-4.913,2.82c-1.281,0.261-2.654,0.074-3.987,0.074
		c-36.636-0.001-73.273-0.067-109.908,0.071c-4.584,0.017-7.876-1.352-10.724-4.944c-15.493-19.536-31.099-38.982-46.706-58.428
		c-14.151-17.633-28.371-35.211-42.526-52.841c-7.377-9.188-14.679-18.437-22.015-27.658c1.694-2.31,3.952-3.207,6.809-2.991
		c1.983,0.15,4.141,0.454,5.956-0.13c4.306-1.385,8.789-1.176,13.143-1.654c6.034-0.662,12.042-1.629,18.032-2.458
		c6.919-0.957,13.846-2.233,20.737-3.567c9.932-1.922,19.852-3.898,29.769-5.9C1438.319,735.095,1443.893,732.883,1449.895,733.036z
		"/>
	<path style="fill:#368A9A;" d="M932.99,547.972c-2.564,7.861-7.39,14.312-12.785,20.391c-8.164,9.199-18.789,14.518-30.008,18.862
		c-8.441,3.268-17.133,5.559-26.157,6.499c0.256-0.747,1.118-1.292,0.47-2.941c-0.841-0.773-2.073-2.173-3.553-3.226
		c-8.6-6.118-16.626-12.982-24.563-19.877c-9.118-7.92-18.327-15.8-26.714-24.53c-9.091-9.462-18.763-18.332-27.461-28.213
		c-7.203-8.183-14.475-16.297-21.529-24.619c-6.501-7.669-12.73-15.53-18.782-23.547c-1.264-1.674-2.324-3.748-4.904-3.765
		c0-13.764,0-27.529,0-41.394c0.408-0.179,0.844-0.537,1.281-0.537c22.235,0.011,44.469,0.053,66.704,0.091
		c-0.091,1.375,0.134,2.578,1.246,3.602c1.948,1.794,3.432,4.046,4.979,6.135c7.866,10.621,16.504,20.648,25.635,30.09
		c8.383,8.668,15.987,18.075,25.292,25.963c8.559,7.255,16.164,15.648,24.965,22.721c5.399,4.339,10.334,9.258,15.756,13.567
		c8.235,6.545,16.65,12.87,25.138,19.086c1.747,1.279,3.45,3.296,6.139,2.711c-0.175,0.669-0.351,1.337-0.526,2.006
		C933.404,547.355,933.197,547.663,932.99,547.972z"/>
	<path style="fill:#3F9DA9;" d="M1346.014,568.005c5.499-7.923,12.011-15.038,18.057-22.522
		c12.74-15.77,25.581-31.459,38.422-47.147c9.895-12.089,19.868-24.115,29.778-36.192c8.327-10.148,16.614-20.328,24.914-30.498
		c0.421-0.516,0.799-1.068,1.137-1.524c5.27-0.314,10.224-0.854,15.18-0.866c32.329-0.08,64.659-0.046,96.989-0.048
		c1.825,0,3.627-0.056,5.414,0.603c3.303,1.219,4.291,3.704,2.223,6.545c-2.148,2.951-4.526,5.737-6.82,8.581
		c-16.794,20.829-33.514,41.719-50.449,62.433c-3.776,4.619-7.14,9.607-11.501,13.743c-1.958,0.004-3.866-0.393-5.827,0.617
		c-3.21,1.654-6.668,2.821-9.905,4.427c-12.227,6.069-24.914,11.081-37.72,15.69c-18.766,6.755-37.851,12.614-57.311,17.059
		c-13.994,3.196-28.106,5.921-42.318,7.972C1352.9,567.367,1349.54,568.674,1346.014,568.005z"/>
	<path style="fill:#348294;" d="M1330.619,921.022c-3.123-0.104-6.187-0.162-9.321-0.884c-4.559-1.05-9.183,0.464-13.716,1.154
		c-6.431,0.979-12.735,0.904-19.172,0.016c-5.576-0.77-11.295-0.748-16.887,0.007c-6.757,0.912-13.399,0.889-20.169-0.032
		c-5.45-0.742-10.9-2.509-16.593-0.457c-2.802,1.01-5.776-0.793-8.638-1.379c-1.668-0.341-3.499-0.886-4.851-0.279
		c-2.552,1.146-4.78,0.639-7.144-0.161c-3.019-1.022-6.175-0.791-9.28-1.093c-5.207-0.506-10.446-0.691-15.627-1.699
		c-4.01-0.78-8.163-0.329-12.285-1.086c-6.901-1.269-13.928-1.874-20.89-2.87c-5.18-0.741-10.377-1.451-15.562-2.232
		c-8.564-1.291-17.086-2.787-25.564-4.555c-8.949-1.866-17.906-3.699-26.881-5.437c-1.771-0.343-3.852-0.561-5.184-1.307
		c-3.629-2.032-7.363-1.697-11.142-1.699c-25.97-0.016-51.94,0.007-77.91-0.048c-1.564-0.003-3.331,0.783-4.721-0.674
		c72.967,0,145.935,0,218.889,0c40.661-50.42,81.116-100.584,121.496-150.655c1.769,0.941,1.387,2.041,1.387,2.94
		c0.026,56.654,0.031,113.309,0.025,169.963C1330.878,919.376,1330.709,920.199,1330.619,921.022z"/>
	<path style="fill:#3A93A1;" d="M1346.014,568.005c3.526,0.669,6.886-0.638,10.264-1.126c14.211-2.052,28.323-4.776,42.318-7.972
		c19.459-4.445,38.544-10.304,57.311-17.059c12.806-4.61,25.493-9.622,37.72-15.69c3.237-1.607,6.695-2.774,9.905-4.427
		c1.961-1.01,3.869-0.613,5.827-0.617c-2.042,4.256-5.98,6.959-8.738,10.67c-5.065,6.816-10.55,13.341-15.952,19.891
		c-9.335,11.318-17.965,23.181-27.347,34.455c-7.762,9.326-15.293,18.844-22.921,28.283c-10.76,13.315-21.517,26.633-32.27,39.955
		c-2.503,3.101-4.986,6.219-7.608,9.492c-3.729-2.708-6.055-6.597-8.852-9.997c-14.565-17.703-29.064-35.462-43.401-53.35
		c-3.825-4.772-8.182-9.154-11.273-14.502c0.025-0.274,0.012-0.545-0.038-0.815c5.003-4.479,8.525-10.234,13.027-15.148
		C1344.637,569.335,1345.039,568.393,1346.014,568.005z"/>
	<path style="fill:#3A93A1;" d="M934.136,545.041c-2.688,0.585-4.392-1.432-6.139-2.711c-8.487-6.216-16.902-12.541-25.138-19.086
		c-5.422-4.309-10.357-9.228-15.756-13.567c-8.801-7.073-16.406-15.465-24.965-22.721c-9.305-7.888-16.909-17.295-25.292-25.963
		c-9.131-9.441-17.769-19.468-25.635-30.09c-1.547-2.089-3.031-4.342-4.979-6.135c-1.111-1.023-1.337-2.227-1.246-3.602
		c15.49-0.023,31-0.546,46.464,0.076c14.417,0.58,28.633,3.029,42.104,8.73c19.347,8.189,33.041,21.798,40.48,41.566
		c4.87,12.943,6.109,26.401,6.149,40.096c0.032,11.064-1.767,21.775-5.225,32.242C934.818,544.309,934.417,544.655,934.136,545.041z
		"/>
	<path style="fill:#348294;" d="M737.003,463.006c2.58,0.018,3.64,2.091,4.904,3.765c6.051,8.017,12.281,15.877,18.782,23.547
		c7.054,8.322,14.326,16.435,21.529,24.619c8.698,9.882,18.37,18.751,27.461,28.213c8.387,8.73,17.596,16.61,26.714,24.53
		c7.937,6.895,15.962,13.759,24.563,19.877c1.48,1.053,2.713,2.452,3.553,3.226c0.647,1.649-0.214,2.194-0.47,2.941
		c-7.41,1.2-14.884,1.354-22.367,1.356c-33.468,0.008-66.936,0.016-100.404-0.001c-1.293-0.001-2.647,0.329-3.833-0.327
		c-0.921-0.868-0.58-1.932-0.581-2.877c-0.014-42.127-0.007-84.253,0.006-126.38C736.862,464.665,736.954,463.836,737.003,463.006z"
		/>
	<path style="fill:#3F9DA9;" d="M1330.959,585.194c0.05,0.27,0.062,0.542,0.038,0.815c-1.534-0.479-2.409-1.763-3.34-2.899
		c-10.839-13.236-21.633-26.51-32.456-39.759c-9.979-12.217-20.082-24.334-29.94-36.648c-9.5-11.866-19.573-23.274-28.485-35.609
		c5.119-2.144,10.458-1.172,15.651-0.702c1.908,0.173,3.879,0.581,5.836,0.587c12.462,0.036,24.93-0.203,37.385,0.102
		c7.467,0.183,14.806-1.067,22.231-1.323c4.215-0.145,8.495-0.708,12.773-0.733c0.079,1.821,0.226,3.642,0.228,5.462
		C1330.916,511.39,1330.936,548.292,1330.959,585.194z"/>
	<path style="fill:#368A9A;" d="M1449.895,733.036c-6.002-0.153-11.575,2.059-17.332,3.221c-9.917,2.002-19.837,3.978-29.769,5.9
		c-6.892,1.334-13.819,2.61-20.737,3.567c-5.99,0.829-11.998,1.796-18.032,2.458c-4.353,0.478-8.837,0.268-13.143,1.654
		c-1.816,0.584-3.973,0.28-5.956,0.13c-2.858-0.216-5.116,0.681-6.809,2.991c-2.677-2.695-4.912-5.743-7.358-8.998
		c21.208-26.237,42.381-52.432,63.809-78.942c4.002,4.797,7.945,9.44,11.798,14.158c12.932,15.836,25.84,31.692,38.735,47.558
		C1446.765,728.78,1448.3,730.933,1449.895,733.036z"/>
	<path style="fill:#46AEB6;" d="M1055.269,507.04c1.07,0.967,1.073,1.938,0.009,2.912
		C1054.987,508.982,1054.997,508.012,1055.269,507.04z"/>
	<path style="fill:#3A93A1;" d="M932.99,547.972c0.207-0.308,0.414-0.617,0.621-0.925
		C933.783,547.609,933.418,547.812,932.99,547.972z"/>
	<path style="fill:#30788C;" d="M568.128,733.007c-0.059-1.158-0.169-2.317-0.169-3.475c-0.001-47.68,0.006-95.361,0.021-143.041
		c0-1.159,0.097-2.319,0.148-3.478c3.831,0.374,4.632,4.072,6.409,6.372c7.036,9.102,14.068,18.194,21.298,27.151
		c5.578,6.91,11.531,13.513,16.894,20.6c1.588,2.099,3.598,3.862,6.237,5.049c0,45.714,0,91.271,0,136.828
		c-1.817,0.264-3.096-0.561-4.328-1.838c-9.283-9.629-19.694-18.087-28.86-27.847c-4.416-4.702-9.079-9.174-13.681-13.698
		C570.965,734.516,570.121,732.86,568.128,733.007z"/>
	<path style="fill:#2E7187;" d="M568.128,733.007c1.993-0.147,2.837,1.51,3.97,2.623c4.602,4.524,9.265,8.996,13.681,13.698
		c9.166,9.76,19.577,18.218,28.86,27.847c1.232,1.278,2.511,2.103,4.328,1.838c0,23.666,0,47.331,0.001,70.997
		c-4.077-1.573-6.811-4.942-10.023-7.635c-7.416-6.218-14.677-12.62-21.976-18.977c-1.246-1.085-2.44-2.249-3.532-3.488
		c-3.944-4.473-9.194-7.518-13.084-12.042c-0.585-0.68-1.359-0.891-2.222-0.862c-0.059-9.435-0.171-18.87-0.163-28.305
		C567.979,763.471,568.07,748.239,568.128,733.007z"/>
	<path style="fill:#28617B;" d="M312.062,684.853c3.631,3.96,7.46,7.757,10.861,11.905c28.271,34.471,56.462,69.007,84.679,103.521
		c19.373,23.696,38.778,47.367,58.098,71.106c3.007,3.695,5.637,7.696,8.442,11.555c-1.145,0.014-2.571,0.457-3.255-0.687
		c-3.064-5.121-8.394-7.946-12.214-12.222c-7.427-8.314-15.563-15.928-23.111-24.099c-6.398-6.927-12.779-13.898-18.951-21.016
		c-8.966-10.338-18.002-20.628-26.628-31.275c-9.022-11.135-17.937-22.339-26.707-33.675c-10.175-13.153-19.925-26.586-29.42-40.231
		c-7.146-10.269-14.565-20.339-20.885-31.164C312.233,687.308,311.953,686.194,312.062,684.853z"/>
</g>
</svg>
