<?xml version="1.0" encoding="iso-8859-1"?>
<!-- Generator: Adobe Illustrator 27.0.0, SVG Export Plug-In . SVG Version: 6.00 Build 0)  -->
<svg version="1.1" id="Layer_1" xmlns="http://www.w3.org/2000/svg" xmlns:xlink="http://www.w3.org/1999/xlink" x="0px" y="0px"
	 viewBox="0 0 1637.012 185.051" style="enable-background:new 0 0 1637.012 185.051;" xml:space="preserve">
<g>
	<path style="fill:#0B6536;" d="M1058.012,185c-0.336-1.038-1.224-0.935-2.029-0.955c-10.656-0.267-21.272-1.185-31.877-2.156
		c-19.528-1.788-39.047-3.698-58.049-8.929c-0.785-0.216-1.549-0.507-2.55-0.838c0-49.505,0-98.915,0-148.746
		c2.278-1.861,5.525-2.232,8.481-2.918c10.526-2.44,21.204-4.08,31.927-5.451c18.337-2.345,36.747-3.783,55.206-4.599
		c17.979-0.795,35.972-0.715,53.961-0.547c20.657,0.193,41.276,1.429,61.826,3.364c18.362,1.729,36.666,4.161,54.822,9.062
		c0,50.016,0,100.085,0,150.382c-8.044,2.521-16.373,3.822-24.673,5.209c-13.788,2.304-27.726,3.418-41.623,4.762
		c-8.436,0.816-16.921,1.442-25.427,1.426c-1.316-0.002-3.019-0.827-3.996,0.934c-19.333,0-38.667,0-58,0
		c-4.218-1.553-8.5-1.342-12.801-0.44c-0.093,0.02-0.134,0.288-0.199,0.44C1061.345,185,1059.678,185,1058.012,185z
		 M1016.473,60.078c-0.907,7.166-0.755,72.263,0.211,75.767c53.062,5.433,106.145,5.927,159.312-0.119
		c0.328-25.42,0.649-50.366,0.97-75.217C1150.582,54.1,1033.938,53.859,1016.473,60.078z"/>
	<path style="fill:#0A6536;" d="M1484.012,185c0.255-6.802,0.51-13.604,0.758-20.211c-27.043-19.008-117.246-38.245-162.195-34.616
		c0,17.046,0,34.134,0,51.523c-16.625,0-32.855,0-49.326,0c0-52.776,0-105.517,0-158.59c6.327-2.512,13.134-3.757,19.947-4.962
		c14.907-2.638,29.911-4.634,44.99-5.849c13.105-1.056,26.253-1.759,39.395-2.134c18.482-0.528,36.983-0.534,55.464,0
		c17.632,0.51,35.231,1.654,52.784,3.605c13.397,1.489,26.677,3.587,39.881,6.21c3.716,0.738,7.339,1.948,11.069,2.959
		c0,28.571,0,56.859,0,85.535c-14.913,4.515-30.464,5.693-45.79,8.633c16.753,7.721,33.454,15.225,48.67,25.978
		c0,4.354,0.064,8.662-0.013,12.966c-0.174,9.652-0.418,19.302-0.634,28.953C1520.678,185,1502.345,185,1484.012,185z
		 M1486.919,60.301c-14.253-2.716-152.853-2.83-161.687-0.185c-0.874,6.685-0.59,31.774,0.494,35.414
		c53.605,0.387,107.308,1.265,161.193-0.495C1486.919,83.186,1486.919,71.916,1486.919,60.301z"/>
	<path style="fill:#0C6536;" d="M730.012,185c-0.2-0.771-0.775-0.961-1.482-0.985c-14.149-0.472-28.235-1.851-42.32-3.144
		c-10.425-0.957-20.795-2.479-31.104-4.341c-6.18-1.116-12.389-2.135-18.439-4.146c0-49.932,0-99.69,0-149.553
		c6.453-2.238,12.751-3.55,19.079-4.687c23.955-4.303,48.155-6.154,72.433-7.411c24.98-1.293,49.966-1.334,74.936-0.408
		c22.948,0.85,45.886,2.314,68.616,5.832c10.311,1.596,20.659,3.152,30.993,6.54c0,17.024,0,34.093,0,51.36
		c-3.746-0.17-7.213-1.356-10.679-2.27c-10.959-2.89-22.171-4.237-33.347-5.777c-17.485-2.409-35.078-3.734-52.695-4.645
		c-16.976-0.878-33.974-0.754-50.967-0.653c-17.663,0.105-35.28,1.254-52.898,2.345c-3.629,0.225-7.236,0.799-11.166,1.247
		c0,22.025,0,43.931,0,66.246c4.091,0.469,8.314,1.111,12.561,1.417c31.095,2.235,62.243,2.693,93.384,1.755
		c25.286-0.762,50.503-2.865,75.508-6.876c8.516-1.366,17.005-3.012,25.333-5.344c1.566-0.438,3.141-0.956,4.998-0.555
		c0,17.135,0,34.252,0,51.645c-8.052,2.634-16.392,3.879-24.684,5.27c-13.787,2.313-27.705,3.634-41.622,4.798
		c-8.286,0.693-16.592,1.405-24.933,1.405c-1.478,0-3.346-0.951-4.504,0.934C781.345,185,755.678,185,730.012,185z"/>
	<path style="fill:#096536;" d="M0.012,11c5.096,0.904,10.261,0.377,15.394,0.682c19.813,1.177,39.287,4.574,58.67,8.499
		c30.77,6.231,61.109,14.124,90.714,24.684c12.676,4.521,25.009,9.832,37.087,15.758c1.153,0.566,2.217,1.532,4.125,1.281
		c0-16.845,0-33.74,0-50.865c19.848,0,39.242,0,58.91,0c0,57.001,0,113.857,0,170.936c-19.584,0-38.979,0-58.708,0
		c0-17.948,0-35.717,0-53.412c-14.186-11.07-29.311-19.98-45.276-27.523c-24.996-11.809-51.038-20.648-77.806-27.42
		c-9.489-2.4-19.003-4.702-28.622-6.378c-0.899,0.817-0.67,1.866-0.67,2.836c-0.009,37.646-0.009,75.293,0.001,112.939
		c0,0.661,0.119,1.321,0.183,1.982c-17.667,0-35.333,0-53,0c-0.002-31.159-0.005-62.318-0.007-93.477
		C1.004,67.029,1.029,42.535,0.953,18.042C0.948,16.374,1.93,14.368,0.012,13C0.012,12.333,0.012,11.667,0.012,11z"/>
	<path style="fill:#246A3D;" d="M1637.012,29c-1.55,1.017-1.395,2.862-2.06,4.304c-4.988,10.809-16.588,16.365-28.494,13.589
		c-10.76-2.509-18.943-13.094-18.3-24.156c0.559-9.61,5.761-16.273,14.095-20.748c1.248-0.67,3.026-0.364,3.76-1.989c4,0,8,0,12,0
		c2.996,1.896,6.578,2.518,9.445,4.847c4.952,4.023,7.729,9.247,9.555,15.153C1637.012,23,1637.012,26,1637.012,29z
		 M1612.247,42.305c9.649,0.651,19.188-6.62,19.706-18.235c0.452-10.13-8.56-18.964-19.067-19.058
		c-10.751-0.097-19.414,8.041-19.677,18.413C1592.96,33.307,1601.505,42.67,1612.247,42.305z"/>
	<path style="fill:#477951;" d="M0.012,13c1.918,1.368,0.936,3.374,0.941,5.042c0.076,24.494,0.051,48.988,0.052,73.482
		C1.006,122.682,1.009,153.841,1.012,185c-0.308-0.218-1.043,0.506-1.011-0.5c0.043-1.332,0.011-2.666,0.011-4
		C0.012,124.667,0.012,68.833,0.012,13z"/>
	<path style="fill:#7A987A;" d="M1063.012,185c0.065-0.152,0.106-0.421,0.199-0.44c4.301-0.902,8.583-1.112,12.801,0.44
		C1071.678,185,1067.345,185,1063.012,185z"/>
	<path style="fill:#0C6536;" d="M315.413,3.985c17.969,0,35.566,0,53.569,0c0,20.08,0,40.016,0,59.951c0,19.809,0,39.619,0,59.935
		c53.016,5.539,105.921,5.173,159.3,0.642c0-40.363,0-80.281,0-120.454c18.032,0,35.612,0,53.462,0c0,53.938,0,107.855,0,162.15
		c-6.335,2.052-12.956,3.575-19.64,4.64c-18.234,2.905-36.554,5.031-54.99,6.348c-29.285,2.092-58.598,2.131-87.906,1.581
		c-20.132-0.377-40.221-1.963-60.218-4.57c-11.372-1.482-22.792-2.606-33.954-5.351c-3.196-0.786-6.463-1.439-9.622-2.921
		C315.413,112.103,315.413,58.337,315.413,3.985z"/>
	<path style="fill:#2C6D40;" d="M1623.398,33.612c-1.832,0.858-3.144,0.615-4.403,0.442c-3.453-2.245-3.404-8.367-9.232-8.174
		c-1.179,2.571,0.012,5.328-0.811,7.76c-1.12,0.884-2.209,0.643-3.58,0.139c0-6.512,0-13.119,0-20.092
		c3.974-0.745,8.038-0.54,12.117,0.105c2.408,0.381,4.014,1.742,4.44,4.094c0.431,2.379,0.153,4.689-2.223,6.143
		c-0.708,0.434-1.415,0.871-2.213,1.362C1619.957,27.671,1621.586,30.475,1623.398,33.612z M1609.089,17.502
		c0.468,1.596-0.494,3.122,0.806,4.447c2.257,0.216,4.541,0.395,6.756-0.182C1619.448,17.668,1615.528,15.966,1609.089,17.502z"/>
	<path style="fill:#EAECE8;" d="M1609.089,17.502c6.439-1.536,10.359,0.166,7.563,4.265c-2.216,0.577-4.499,0.398-6.756,0.182
		C1608.595,20.624,1609.558,19.098,1609.089,17.502z"/>
</g>
</svg>
