<?xml version="1.0" encoding="iso-8859-1"?>
<!-- Generator: Adobe Illustrator 27.0.0, SVG Export Plug-In . SVG Version: 6.00 Build 0)  -->
<svg version="1.1" id="Layer_1" xmlns="http://www.w3.org/2000/svg" xmlns:xlink="http://www.w3.org/1999/xlink" x="0px" y="0px"
	 viewBox="0 0 1488 986.3" style="enable-background:new 0 0 1488 986.3;" xml:space="preserve">
<g>
	<path style="fill:#0A6397;" d="M82,986c-26.507,0-53.014,0.013-79.521-0.069C1.739,985.928,0.068,987.214,0,985
		c1.379-0.378,1.007-1.5,1.009-2.436C1.016,977.901,1,973.237,1,968.574C0.999,648.373,0.999,328.171,0.999,7.97
		c0-1.166-0.065-2.337,0.019-3.497c0.079-1.1-0.453-2.352,0.947-3.474c1.542,0,3.359,0.003,5.177,0
		c25.321-0.04,50.642-0.081,75.963-0.122c2.646,2.475,4.449,5.657,4.784,9.08C89.1,22.32,94.599,33.963,93.92,46.62
		c-0.044,0.819,0.122,1.665,0.287,2.478c7.642,37.563,15.227,75.138,22.965,112.681c6.566,31.856,13.196,63.699,20.001,95.504
		c9.545,44.612,18.99,89.245,28.202,133.927c7.437,36.073,15.117,72.096,22.799,108.118c1.055,4.948,1.593,10.107,5,14.36
		c1.299,1.621,1.761,3.911,1.93,6.111c0.855,11.131,4.454,21.616,7.761,33.26c0-4.381,0-7.706,0-11.03
		c0-175.78-0.001-351.56,0.006-527.34c0-2.164-0.041-4.342,0.178-6.489c0.29-2.832,1.003-5.548,3.675-7.533c0.876,0,1.865,0,2.854,0
		c25.326,0,50.651-0.003,75.977,0.01c1.157,0.001,2.315,0.155,3.472,0.238c0.092,1.302-0.56,2.808,0.454,3.86
		c2.003,2.079,1.666,4.575,1.604,7.057c-0.067,2.664-0.208,5.327-0.207,7.991c0.032,82.995,0.109,165.99,0.116,248.985
		c0.017,230.823,0.005,461.646,0.01,692.469c0,6.495-0.484,12.999,0.132,19.482c0.184,1.934-0.699,3.51-1.136,5.241
		c-28.333,0-56.667,0-85,0c-0.078-2.043-1.751-3.398-2.129-5.431c-1.872-10.082-3.965-20.124-6.062-30.163
		c-3.081-14.748-6.214-29.486-9.359-44.221c-2.097-9.824-4.612-19.573-6.304-29.465c-2.825-16.517-6.378-32.884-9.667-49.304
		c-2.635-13.152-5.344-26.294-8.203-39.404c-2.103-9.643-3.904-19.388-5.956-29.057c-3.956-18.643-7.999-37.271-12.054-55.891
		c-3.084-14.163-6.273-28.337-8.745-42.643c-1.912-11.065-4.763-21.938-6.771-32.994c-2.395-13.189-5.309-26.283-8.01-39.416
		c-4.667-22.693-9.336-45.385-14.018-68.074c-3.978-19.278-7.905-38.566-11.986-57.822c-3.287-15.51-6.77-30.979-10.226-46.738
		c-1.425,2.162-1.534,4.3-1.51,6.465c0.039,3.497,0.129,6.994,0.129,10.491c0.007,173.427,0.003,346.853,0.014,520.28
		c0.001,8.159,0.098,16.319,0.201,24.477C84.384,980.295,83.879,983.318,82,986z"/>
	<path style="fill:#0C6397;" d="M705,986c-2.544-2.662-3.246-6.064-3.705-9.518c-1.816-13.665-3.492-27.35-5.388-41.004
		c-2.101-15.13-4.419-30.23-6.58-45.353c-1.833-12.826-3.537-25.669-5.369-38.495c-2.159-15.123-4.424-30.231-6.585-45.354
		c-1.503-10.522-2.881-21.061-4.363-31.586c-1.851-13.151-3.772-26.292-5.625-39.443c-1.483-10.527-2.879-21.066-4.369-31.592
		c-1.862-13.152-3.808-26.291-5.667-39.443c-1.813-12.823-3.537-25.659-5.348-38.482c-1.858-13.155-3.796-26.299-5.658-39.453
		c-1.793-12.661-3.537-25.33-5.298-37.995c-1.807-12.995-3.59-25.994-5.417-38.986c-1.849-13.153-3.736-26.301-5.613-39.45
		c-1.877-13.152-3.781-26.301-5.638-39.456c-1.485-10.524-2.912-21.057-4.375-31.585c-1.783-12.831-3.571-25.661-5.367-38.49
		c-1.887-13.485-3.78-26.969-5.679-40.452c-1.436-10.197-2.877-20.394-4.332-30.588c-1.525-10.684-3.058-21.368-4.608-32.049
		c-1.812-12.49-3.639-24.978-5.472-37.465c-1.833-12.486-3.691-24.969-5.519-37.456c-1.9-12.979-3.817-25.955-5.651-38.943
		c-1.509-10.688-2.91-21.392-4.352-32.09c-0.377-2.798-0.72-5.601-1.091-8.4c-0.065-0.491-0.016-1.143-0.306-1.437
		c-4.164-4.228-3.764-9.848-4.304-15.018c-2.416-23.142-6.49-46.032-9.979-69.013c-0.831-5.474-1.775-11.266,1.586-16.477
		c10.486,0.024,20.973,0.045,31.459,0.072c17.144,0.043,34.287,0.09,51.431,0.136c3.659,10.957,4.962,22.343,6.136,33.75
		c0.714,6.94,1.495,13.864,2.734,20.742c0.999,5.543,2.945,11.064,2.081,16.751c-0.693,4.563,0.219,8.871,0.808,13.276
		c1.475,11.03,2.913,22.064,4.376,33.095c1.463,11.032,2.889,22.069,4.423,33.091c1.808,12.988,3.715,25.963,5.579,38.943
		c1.818,12.656,3.614,25.315,5.458,37.967c2.155,14.787,4.377,29.564,6.522,44.352c1.812,12.491,3.538,24.995,5.332,37.489
		c1.887,13.145,3.829,26.282,5.712,39.427c1.79,12.494,3.53,24.995,5.301,37.492c1.91,13.479,3.837,26.956,5.741,40.437
		c1.789,12.664,3.541,25.334,5.341,37.997c1.846,12.982,3.739,25.958,5.595,38.939c1.48,10.353,2.922,20.712,4.402,31.065
		c1.856,12.981,3.743,25.957,5.598,38.938c1.48,10.353,2.907,20.714,4.406,31.065c1.833,12.652,3.739,25.292,5.572,37.944
		c1.786,12.327,3.475,24.669,5.335,36.984c0.207,1.371,0.112,3.247,1.885,4.104c0.809-1.112,0.702-2.133,0.838-3.106
		c1.773-12.668,3.558-25.335,5.342-38.002c1.575-11.178,3.172-22.352,4.725-33.533c1.462-10.529,2.846-21.068,4.323-31.595
		c1.846-13.154,3.739-26.302,5.634-39.449c1.516-10.52,3.075-21.035,4.599-31.554c1.809-12.491,3.589-24.986,5.403-37.476
		c1.79-12.324,3.613-24.642,5.409-36.965c1.869-12.818,3.765-25.633,5.572-38.459c1.831-12.994,3.54-26.004,5.353-39
		c1.514-10.853,3.103-21.696,4.659-32.543c1.556-10.847,3.115-21.693,4.67-32.54c2.121-14.796,4.225-29.594,6.361-44.387
		c1.519-10.516,3.111-21.021,4.611-31.539c1.828-12.82,3.587-25.651,5.387-38.475c1.524-10.854,3.087-21.703,4.589-32.56
		c1.479-10.693,2.897-21.394,4.353-32.09c1.367-10.036,2.576-20.089,4.517-30.047c1.269-6.513,2.325-13.079,0.841-19.795
		c-0.641-2.902-0.272-5.945,0.27-8.93c1.957-10.772,4.041-21.506,4.625-32.505c0.361-6.798,1.994-13.473,5.882-19.328
		c27.608-0.02,55.216-0.04,82.824-0.06c0.259,6.709-1.471,13.199-2.306,19.778c-1.63,12.844-3.735,25.627-5.616,38.44
		c-2.293,15.612-4.604,31.222-6.822,46.845c-2.499,17.594-4.872,35.206-7.358,52.802c-2.509,17.76-5.144,35.502-7.621,53.267
		c-1.858,13.324-3.489,26.68-5.341,40.005c-2.148,15.459-4.441,30.898-6.645,46.35c-1.782,12.496-3.497,25.001-5.295,37.494
		c-1.822,12.658-3.724,25.304-5.562,37.96c-1.814,12.492-3.585,24.99-5.385,37.483c-1.871,12.986-3.781,25.967-5.623,38.958
		c-1.493,10.525-2.902,21.062-4.363,31.592c-1.552,11.185-3.139,22.364-4.676,33.551c-1.471,10.701-2.867,21.412-4.352,32.11
		c-1.53,11.02-3.142,22.029-4.69,33.047c-1.456,10.359-2.839,20.729-4.319,31.085c-1.832,12.823-3.736,25.637-5.6,38.455
		c-1.792,12.325-3.568,24.653-5.362,36.978c-1.889,12.983-3.809,25.961-5.683,38.946c-1.47,10.189-2.901,20.384-4.329,30.579
		c-1.913,13.65-3.838,27.299-5.7,40.957c-1.481,10.863-2.825,21.745-4.32,32.606c-1.834,13.327-3.757,26.641-5.648,39.96
		c-1.774,12.498-3.564,24.994-5.333,37.492c-1.769,12.494-3.508,24.992-5.283,37.485c-1.612,11.343-3.939,22.588-4.812,34.031
		c-0.202,2.651-1.475,4.67-2.905,6.703C759,986,732,986,705,986z"/>
	<path style="fill:#0D6397;" d="M1322,986c-3.67-2.032-7.889-1.805-11.814-2.838c-55.518-14.622-90.67-49.829-106.011-104.925
		c-3.034-10.898-3.865-22.184-4.431-33.52c-0.855-17.145,0.446-34.248,0.231-51.377c-0.173-13.81-0.761-27.614-0.663-41.428
		c0.006-0.833-0.011-1.667,0.003-2.5c0.119-7.555,2.019-9.431,9.518-9.414c19.495,0.045,38.99,0.093,58.486,0.124
		c2.665,0.004,5.331-0.151,7.995-0.109c5.718,0.089,7.527,1.812,7.662,7.429c0.084,3.495-0.102,6.996-0.098,10.494
		c0.032,28.16-0.251,56.326,0.212,84.48c0.522,31.753,19.778,52.337,47.712,59.156c18.677,4.559,36.024-0.229,51.114-12.083
		c15.702-12.335,23.01-29.012,23.032-48.719c0.111-101.648,0.044-203.296,0.057-304.945c0.002-19.662,0.072-39.324,0.126-58.985
		c0.071-25.741-20.092-58.189-55.694-62.694c-6.128-0.775-12.329-0.313-18.478-0.088c-23.639,0.867-47.293,1.009-70.924,0.48
		c-16.983-0.38-33.956-0.129-50.931-0.4c-6.934-0.111-9.265-2.278-9.775-9.14c-0.086-1.16-0.016-2.332-0.016-3.498
		c0-48.491-0.395-96.987,0.155-145.472c0.306-26.98,0.683-53.966,0.267-80.932c-0.818-53.141-0.096-106.278-0.413-159.415
		c-0.062-10.397,2.149-12.562,12.553-12.551c53.821,0.057,107.642,0.158,161.463,0.17c34.824,0.008,69.649-0.078,104.473-0.219
		c3.77-0.015,7.147,0.699,10.188,2.918c0,26,0,52,0,78c-2.894,2.122-6.11,3.007-9.716,2.902c-5.993-0.174-11.991-0.206-17.987-0.208
		c-48.663-0.015-97.325-0.006-145.988-0.016c-1.989,0-3.985-0.258-5.953-0.332c-6.134-0.233-12.306-0.766-18.419,0.325
		c-5.434,0.97-6.63,2.391-7.084,7.854c-0.415,4.999,0.021,9.99,0.021,14.984c-0.005,67.661-0.003,135.322-0.003,202.983
		c0,3.16-0.025,6.319-0.01,9.478c0.035,7.107,3.384,8.142,8.439,8.857c0.981,0.139,1.997,0.047,2.997,0.03
		c7.981-0.135,15.96-0.183,23.944-0.416c15.126-0.441,30.265-0.227,45.361,1.43c16.395,1.8,31.786,6.602,46.281,14.41
		c14.827,7.986,27.391,18.825,39.031,30.842c18.609,19.213,31.279,41.561,36.402,68.032c0.764,3.951,0.687,8.154,2.684,11.844
		c0,134.333,0,268.667,0,403c-1.261,0.495-0.802,1.65-0.95,2.55c-0.563,3.429-0.939,6.895-1.647,10.292
		c-5.464,26.216-18.243,48.507-36.434,67.924c-19.896,21.237-43.476,36.164-72.063,42.757c-3.632,0.838-7.495,0.683-10.906,2.477
		C1351.333,986,1336.667,986,1322,986z"/>
	<path style="fill:#10100F;" d="M418,986c-0.428-1.572-1.206-3.058-0.873-4.796c0.885-4.62,0.481-9.299,0.482-13.951
		c0.022-94.667,0.274-189.334-0.035-284c-0.728-223.489-0.089-446.979-0.338-670.468c-0.004-4.005,0.115-7.984,2.002-11.662
		c4.53-0.01,9.059-0.021,13.589-0.031c3.044,3.662,4.259,7.767,3.216,12.509c-0.245,1.113-0.037,2.325-0.037,3.491
		c0,318.75,0,637.5,0.008,956.25c0,2.158-0.057,4.309,0.301,6.474c0.359,2.165,0.024,4.315-1.315,6.184
		C429.333,986,423.667,986,418,986z"/>
	<path style="fill:#191817;" d="M1058,986c-1.583-2.799-2.093-5.784-2.054-9.008c0.131-10.829,0.11-21.66,0.11-32.491
		c0.004-310.437,0.003-620.874,0.003-931.311c0-1,0.025-2-0.005-2.999c-0.082-2.717-0.273-5.711,2.94-6.7
		c3.394-1.045,6.981-1.009,10.046,1.166c1.591,1.129,1.776,3.066,1.75,4.972c-0.053,3.812-0.016,7.625-0.016,11.437
		c0,264.779,0.136,529.559-0.117,794.338c-0.049,51.478-0.043,102.958-0.264,154.437c-0.014,3.158-0.104,6.309,0.479,9.458
		c0.419,2.265,0.36,4.591-0.872,6.701C1066,986,1062,986,1058,986z"/>
	<path style="fill:#899DBF;" d="M83,0c0.04,0.292,0.075,0.584,0.105,0.877C57.784,0.918,32.463,0.959,7.142,0.999
		c-1.818,0.003-3.635,0-5.177,0C0.565,2.121,1.097,3.373,1.018,4.473C0.934,5.633,0.999,6.804,0.999,7.97
		c0,320.201,0,640.402,0.001,960.604c0,4.664,0.016,9.327,0.009,13.991C1.007,983.5,1.379,984.622,0,985C0,656.667,0,328.333,0,0
		C27.667,0,55.333,0,83,0z"/>
	<path style="fill:#899DBF;" d="M648,0c-0.059,0.378-0.119,0.756-0.178,1.134c-17.144-0.045-34.287-0.092-51.431-0.136
		c-10.486-0.027-20.973-0.048-31.459-0.072C564.929,0.616,564.952,0.307,565,0C592.667,0,620.333,0,648,0z"/>
	<path style="fill:#899DBF;" d="M844.126,1.103C844.084,0.735,844.042,0.368,844,0c27.667,0,55.333,0,83,0
		c-0.017,0.348-0.033,0.695-0.05,1.043C899.342,1.063,871.734,1.083,844.126,1.103z"/>
	<path style="fill:#716E6E;" d="M432.827,1.093c-4.53,0.01-9.059,0.021-13.589,0.031C419.159,0.749,419.08,0.374,419,0
		c4.667,0,9.333,0,14,0C432.943,0.364,432.885,0.728,432.827,1.093z"/>
</g>
</svg>
