<?xml version="1.0" encoding="iso-8859-1"?>
<!-- Generator: Adobe Illustrator 27.0.0, SVG Export Plug-In . SVG Version: 6.00 Build 0)  -->
<svg version="1.1" id="Layer_1" xmlns="http://www.w3.org/2000/svg" xmlns:xlink="http://www.w3.org/1999/xlink" x="0px" y="0px"
	 viewBox="0 0 1519 298" style="enable-background:new 0 0 1519 298;" xml:space="preserve">
<g>
	<path style="fill:#078853;" d="M288,0c1.828,1.033,3.782,1.893,5.459,3.13c5.272,3.889,7.983,9.222,8.363,15.745
		c0.058,0.996,0.024,1.998,0.024,2.997c0.001,84.761,0.002,169.523-0.005,254.284c0,2.156-0.199,4.274-0.541,6.431
		c-1.207,7.621-5.783,12.047-12.804,14.38c-0.621,0.206-1.308,0.235-1.497,1.033c-91,0-182,0-273,0
		c-0.622-1.599-2.331-1.564-3.527-2.254c-4.837-2.79-8.651-6.331-9.818-12.08C0.602,283.41,0.226,283.22,0,283
		c0-9.333,0-18.667,0-28c0.319-0.345,0.888-0.669,0.919-1.039c0.522-6.204,2.032-12.24,3.051-18.359
		c0.644-3.868,1.345-7.727,2.021-11.589c1.055-1.894,1.681-3.918,1.828-6.085c1.259-4.295,2.448-8.613,3.79-12.882
		c9.351-29.749,23.636-56.987,41.976-82.14c4.095-5.616,8.141-11.285,13.662-16.952c0,43.813,0,86.847,0,129.91
		c16.44,0,32.359,0,48.84,0c0-31.37,0-62.478,0-94.737c25.483,32.322,50.186,63.655,74.648,94.683c14.782,0,29.04,0,43.286,0
		c0-58.059,0-115.797,0-173.581c-16.149,0-32.018,0-48.22,0c0,30.56,0,60.762,0,91.848c-24.649-31.263-48.736-61.813-72.959-92.535
		c0.581-0.46,0.967-0.779,1.367-1.08c18.927-14.237,38.966-26.615,60.584-36.379c17.451-7.882,35.575-13.733,54.179-18.164
		c3.981-0.697,7.963-1.395,11.944-2.092c2.88-1.334,6.331,0.171,9.077-1.826c2.691,0.09,5.372,0.092,7.917-0.986
		C261.27,0.643,264.798,1.942,268,0C274.667,0,281.333,0,288,0z"/>
	<path style="fill:#7DC145;" d="M5.991,224.013c-0.676,3.863-1.376,7.721-2.021,11.589c-1.019,6.118-2.529,12.155-3.051,18.359
		C0.888,254.331,0.319,254.655,0,255C0,175,0,95,0,15c1.628-2.786,2.483-5.941,4.702-8.478C7.778,3.005,11.915,1.613,16,0
		c80.667,0,161.333,0,242,0c-0.03,0.339-0.06,0.678-0.09,1.016c-2.546,1.079-5.226,1.077-7.917,0.986
		c-3.053,0.213-6.261-0.84-9.103,1.106c-4.097-0.32-8.039,0.411-11.891,1.752c-5.796,0.459-11.404,1.925-17.068,3.118
		c-22.886,4.823-45.061,11.878-66.438,21.346c-19.354,8.572-37.388,19.415-54.434,32.719c-7.652,0-15.586,0-23.927,0
		c0,6.823-0.074,13.285,0.039,19.744c0.041,2.323-0.645,4.09-2.214,5.815c-4.48,4.925-8.326,10.354-12.176,15.78
		c-15.371,21.663-26.405,45.459-34.875,70.53c-4.867,14.406-8.54,29.127-11.659,43.995c-0.362,1.385-0.733,2.768-1.083,4.155
		C4.95,222.91,5.04,223.65,5.991,224.013z"/>
	<path style="fill:#19191D;" d="M1519,235c-1.551-0.681-2.825,0.265-4.223,0.656c-11.003,3.082-22.098,3.18-32.991-0.132
		c-14.641-4.453-21.323-15.528-22.76-29.049c-0.723-6.805-0.562-13.641-0.559-20.469c0.006-15.994,0.004-31.988,0.005-47.981
		c0-1.649,0-3.298,0-5.46c-5.484,0-10.706,0-16.197,0c0-8.403,0-16.295,0-24.61c5.389,0,10.646,0,16.196,0
		c0-7.552,0.01-14.685-0.005-21.818c-0.007-3.17,0.071-6.364,1.005-9.388c2.357-7.625,9.609-14.226,18.24-14.771
		c4.155-0.262,8.297-0.366,12.961-0.034c0,15.471,0,30.874,0,46.611c9.448,0.153,18.388,0.298,27.328,0.443
		c-0.037,7.963-0.074,15.927-0.111,23.89c-8.931,0-17.863,0-27.093,0c0,1.566,0,2.528,0,3.49c0,19.96-0.003,39.919,0.007,59.879
		c0.001,1.662-0.005,3.335,0.168,4.985c0.627,5.982,3.691,9.332,9.592,10.403c4.996,0.906,9.917,0.431,14.757-1.094
		c1.181-0.372,2.332-1.192,3.679-0.552C1519,218.333,1519,226.667,1519,235z"/>
	<path style="fill:#9D9A9C;" d="M1519,133c-0.37-0.037-0.74-0.074-1.11-0.111c0.037-7.963,0.074-15.927,0.111-23.89
		c0.333,0,0.666,0.001,0.999,0.001C1519,117,1519,125,1519,133z"/>
	<path style="fill:#85BC81;" d="M257.91,1.016C257.94,0.678,257.97,0.339,258,0c3.333,0,6.667,0,10,0
		C264.798,1.942,261.27,0.643,257.91,1.016z"/>
	<path style="fill:#17171B;" d="M482.994,182.465c0-40.869,0-80.598,0-120.527c11.009,0,21.763,0,32.78,0
		c0,57.985,0,115.886,0,174.057c-12.473,0-24.876,0-37.644,0c-24.982-42.087-50.028-84.281-75.073-126.476
		c-0.234,0.106-0.468,0.211-0.702,0.317c0,41.885,0,83.77,0,125.606c-3.565,1.019-26.198,1.226-32.473,0.309
		c0-57.725,0-115.484,0-173.269c3.306-0.941,33.188-1.28,42.352-0.429C435.582,101.785,459.009,141.65,482.994,182.465z"/>
	<path style="fill:#19191D;" d="M1089.893,156.285c-8.208,26.388-16.416,52.777-24.688,79.37c-10.552,0-20.971,0-31.792,0
		c-13.127-42.308-26.272-84.676-39.52-127.378c11.349,0,22.431,0,34.154,0c7.773,28.048,15.621,56.366,23.469,84.684
		c0.327,0.037,0.654,0.073,0.98,0.11c8.393-28.267,16.786-56.533,25.207-84.893c8.889,0,17.521,0,26.636,0
		c7.639,28.426,15.311,56.979,23.248,86.517c9.18-29.313,18.081-57.736,27.058-86.401c10.341,0,20.596,0,31.2,0
		c-13.64,42.553-27.256,85.029-40.871,127.504c-10.701,0-21.008,0-31.941,0c-7.436-26.464-14.904-53.041-22.372-79.617
		C1090.406,156.215,1090.149,156.25,1089.893,156.285z"/>
	<path style="fill:#18181C;" d="M901.001,236.073c-10.952,0-21.239,0-31.457,0c-0.913-1.575-0.502-3.105-0.503-4.558
		c-0.026-48.998,0.013-97.995-0.065-146.993c-0.009-5.925,1.388-11.139,5.434-15.559c3.875-4.234,8.552-6.821,14.367-6.977
		c3.825-0.102,7.655-0.019,12.219-0.019c0.013,20.39-0.001,40.931,0.008,61.44c0.825,0.081,1.11-0.334,1.393-0.734
		c5.118-7.261,12.418-11.5,20.602-14.148c10.342-3.346,21.027-3.689,31.529-1.066c16.549,4.132,25.865,15.412,29.366,31.742
		c1.432,6.678,1.958,13.492,1.953,20.338c-0.016,23.999-0.006,47.998-0.006,71.997c0,1.638,0,3.276,0,5.182
		c-10.725,0-21.136,0-31.954,0c-0.068-1.541-0.199-3.133-0.2-4.724c-0.013-22.999,0.033-45.998-0.041-68.997
		c-0.016-4.979-0.254-9.96-1.445-14.862c-1.933-7.951-6.918-12.525-14.827-14.302c-7.952-1.786-15.567-0.968-22.773,2.731
		c-9.859,5.061-13.496,13.854-13.558,24.324c-0.137,23.331-0.043,46.664-0.043,69.997
		C901.001,232.521,901.001,234.158,901.001,236.073z"/>
	<path style="fill:#19191D;" d="M1312.321,180.945c-30.949,0-61.536,0-92.102,0c-0.935,17.958,10.765,33.568,29.765,34.274
		c4.986,0.185,9.969,0.032,14.864-1.244c8.002-2.086,13.565-6.68,15.733-14.899c0.244-0.927,0.534-1.842,0.811-2.788
		c10.26,0,20.364,0,30.727,0c0.052,6.017-2.102,11.186-4.662,16.157c-5.781,11.228-15.131,18.471-26.898,22.37
		c-17.335,5.743-34.991,6.339-52.383,0.522c-22.26-7.444-35.554-23.379-39.957-46.177c-2.93-15.174-2.505-30.449,3.599-45.087
		c7.425-17.809,20.261-29.757,38.815-35.145c16.657-4.838,33.187-4.392,49.111,3.011c16.353,7.603,25.891,20.803,30.163,38.04
		C1312.366,159.916,1312.412,170.068,1312.321,180.945z M1220.227,157.764c20.142,0,39.874,0,59.966,0
		c-0.81-10.478-3.824-19.4-13.372-24.778c-7.968-4.488-24.895-5.403-34.872,3.042
		C1225.257,141.692,1222.022,149.11,1220.227,157.764z"/>
	<path style="fill:#19191D;" d="M602.125,238.967c-14.203,0.346-26.571-2.895-37.831-9.982
		c-13.372-8.416-22.209-20.325-26.275-35.588c-4.17-15.651-3.863-31.255,1.694-46.554c6.792-18.698,19.852-31.141,38.696-37.253
		c16.819-5.455,33.743-5.157,50.285,1.141c17.6,6.7,29.828,19.113,35.888,36.949c6.386,18.798,6.057,37.625-2.494,55.795
		c-8.385,17.819-22.655,28.66-41.621,33.396C614.175,238.442,607.769,239.487,602.125,238.967z M635.927,172.264
		c0-1.5,0.101-3.008-0.024-4.497c-0.181-2.154-0.511-4.296-0.805-6.44c-1.975-14.388-10.49-27.998-28.419-29.906
		c-16.581-1.765-30.274,5.325-35.636,21.394c-4.056,12.155-3.986,24.554-0.669,36.863c2.243,8.321,6.87,15.149,14.5,19.489
		c6.092,3.466,12.803,4.309,19.748,3.985c13.544-0.632,24.042-8.43,28.393-21.262C635.174,185.524,635.971,178.953,635.927,172.264z
		"/>
	<path style="fill:#1A1A1E;" d="M1325.612,194.933c9.989,0,19.785,0,29.812,0c1.023,0.728,0.857,2.233,1.183,3.433
		c2.817,10.376,7.623,14.872,18.22,16.137c5.797,0.692,11.646,0.178,17.288-1.379c6.278-1.732,8.928-5.261,9.448-11.842
		c0.429-5.423-2.115-9.604-7.779-12.03c-6.755-2.892-13.968-4.107-21.175-5.326c-9.174-1.551-18.174-3.741-26.592-7.893
		c-11.967-5.904-17.398-15.829-17.897-28.842c-0.633-16.516,7.175-28.109,21.604-35.039c18.198-8.74,37.015-8.374,55.605-1.211
		c12.627,4.865,19.587,14.907,22.469,27.846c0.49,2.198,1.501,4.428,0.922,7.147c-9.686,0-19.415,0-29.255,0
		c-0.998-1.046-1.114-2.578-1.641-3.951c-2.434-6.336-6.705-10.782-13.648-11.702c-6.441-0.854-12.909-1.276-18.875,2.439
		c-2.214,1.378-4.012,3.061-5.122,5.296c-2.331,4.692-2.003,10.917,3.903,14.223c6.229,3.487,13.141,4.501,19.981,5.735
		c10.116,1.826,20.277,3.433,29.672,7.927c11.531,5.515,17.676,14.581,18.311,27.431c0.289,5.854,0.255,11.638-1.494,17.282
		c-3.834,12.371-12.313,20.179-24.299,24.427c-7.243,2.566-14.67,4.01-22.425,4.017c-9.168,0.008-18.236-0.175-27.113-2.969
		c-17.914-5.638-28.674-17.244-30.891-36.209c-0.154-1.318-0.344-2.633-0.499-3.951
		C1325.305,195.787,1325.404,195.63,1325.612,194.933z"/>
	<path style="fill:#17171C;" d="M821.165,61.911c0,15.568,0,30.828,0,46.501c9.253,0,18.174,0,27.464,0c0,8.276,0,16.15,0,24.544
		c-8.898,0-17.949,0-26.726,0c-1.036,1.734-0.647,3.093-0.649,4.379c-0.031,19.149-0.004,38.299-0.042,57.448
		c-0.005,2.682,0.2,5.331,0.742,7.939c1.009,4.852,3.781,7.919,8.856,8.856c5.65,1.043,11.09,0.487,19.313-2.467
		c0,8.33,0,16.552,0,25c-8.362,3.474-17.033,4.411-25.889,3.452c-4.925-0.533-9.808-1.334-14.496-3.318
		c-10.383-4.394-16.107-12.371-18.65-23.011c-0.934-3.907-1.11-7.883-1.104-11.89c0.035-20.815,0.016-41.629,0.016-62.444
		c0-1.326,0-2.653,0-4.513c-5.721,0-11.286,0-17.1,0c0-8.285,0-16.043,0-24.221c5.112,0,10.376,0,15.423,0
		c1.223-1.722,0.759-3.251,0.771-4.674c0.056-6.66,0.076-13.322,0.016-19.982c-0.108-12.078,9.815-21.552,20.391-21.595
		C813.275,61.898,817.049,61.911,821.165,61.911z"/>
	<path style="fill:#18181C;" d="M717.972,236.129c-10.898,0-21.18,0-31.727,0c0-42.658,0-85.18,0-127.916
		c10.515,0,20.906,0,31.642,0c0,6.237,0,12.314,0,19.545c10.381-15.373,24.221-21.8,41.661-21.752c0,10.078,0,19.667,0,29.525
		c-4.675,0.475-9.251,0.899-13.817,1.413c-5.503,0.62-10.71,2.285-15.411,5.19c-9.162,5.661-12.178,14.654-12.279,24.712
		c-0.215,21.307-0.068,42.618-0.07,63.927C717.972,232.413,717.972,234.053,717.972,236.129z"/>
	<path style="fill:#BFDBC0;" d="M228.972,5.921c0.009-0.353,0.018-0.707,0.027-1.06c3.852-1.34,7.794-2.072,11.891-1.752
		c0.067,0.238,0.076,0.478,0.027,0.72C236.935,4.526,232.954,5.223,228.972,5.921z"/>
	<path style="fill:#85BC81;" d="M240.916,3.829c0.05-0.242,0.041-0.482-0.027-0.72c2.843-1.947,6.05-0.893,9.103-1.106
		C247.247,4,243.796,2.495,240.916,3.829z"/>
	<path style="fill:#BFDBC0;" d="M6.247,217.907c0.524,0.007,1.048,0.014,1.573,0.021c-0.148,2.167-0.774,4.19-1.828,6.085
		c-0.951-0.363-1.041-1.103-0.827-1.951C5.514,220.675,5.884,219.292,6.247,217.907z"/>
</g>
</svg>
