<?xml version="1.0" encoding="iso-8859-1"?>
<!-- Generator: Adobe Illustrator 27.0.0, SVG Export Plug-In . SVG Version: 6.00 Build 0)  -->
<svg version="1.1" id="Layer_1" xmlns="http://www.w3.org/2000/svg" xmlns:xlink="http://www.w3.org/1999/xlink" x="0px" y="0px"
	 viewBox="0 0 1615.13 194" style="enable-background:new 0 0 1615.13 194;" xml:space="preserve">
<g>
	<path style="fill:#20201E;" d="M99,0c0.594,1.576,1.972,0.887,2.998,0.942c25.623,1.359,47.108,11.693,64.715,30.133
		c13.441,14.076,21.979,30.887,24.92,50.068c4.831,31.507-3.671,59.185-25.588,82.557c-14.127,15.064-31.674,23.875-51.69,27.995
		c-4.039,0.831-8.187,1.459-12.383,1.367c-1.004-0.022-2.405-0.671-2.972,0.939c-2,0-4,0-6,0c-0.416-1.337-1.56-0.932-2.474-1.003
		c-22.784-1.778-42.722-10.182-59.319-25.963C12.619,149.36,2.326,127.723,1,101.978c-0.042-0.806,0.066-1.69-1-1.978
		c0-2.333,0-4.667,0-7c1.086-0.272,1-1.163,0.994-1.965C0.954,85.852,1.93,80.799,3.079,75.79
		C7.346,57.2,16.126,41.031,29.962,27.892c17.08-16.219,37.45-25.335,61.07-26.883C91.833,0.957,92.726,1.081,93,0C95,0,97,0,99,0z
		 M133.252,97.239c0.336-18.986-14.903-36.695-36.067-36.925c-18.793-0.205-36.775,14.455-36.887,36.661
		c-0.095,18.994,14.121,36.558,36.848,36.531C118.08,133.482,133.33,116.485,133.252,97.239z"/>
	<path style="fill:#20201E;" d="M891.869,186.836c-22.681,0-44.958,0-67.247,0c-1.105-1.352-0.558-2.909-0.561-4.331
		c-0.046-23.666-0.033-47.331-0.049-70.997c-0.005-7.024-0.959-13.941-3.019-20.643c-4.746-15.445-15.035-24.529-31.135-27.114
		c-6.778-1.088-13.508-1.008-20.753-0.914c0,20.952,0,41.574,0,62.195c0,20.463,0,40.926,0,61.678c-22.768,0-45.168,0-67.789,0
		c0-60.383,0-120.647,0-180.928c1.077-1.172,2.497-0.675,3.759-0.677c19.666-0.032,39.342-0.422,58.995,0.083
		c23.016,0.591,45.77,3.498,67.413,11.951c19.269,7.526,36.115,18.35,47.507,36.317c8.033,12.67,12.494,26.594,12.732,41.405
		C892.211,125.337,891.869,155.829,891.869,186.836z"/>
	<path style="fill:#259DD9;" d="M569.256,0.929c52.138,0.005,96.468,42.712,95.762,97.62c-0.656,51.007-42.394,95.051-97.867,94.548
		c-52.216-0.474-94.974-44.462-94.158-97.574C473.798,43.047,516.969,0.568,569.256,0.929z M569.33,133.913
		c19.163-0.792,36.165-14.533,36.314-36.627c0.136-20.162-14.242-36.686-36.949-36.95c-19.239-0.224-36.204,14.496-36.354,36.473
		C532.198,117.985,548.775,133.477,569.33,133.913z"/>
	<path style="fill:#20201E;" d="M344.635,5.138c0,19.319,0,38.226,0,57.124c-1.39,1.118-2.932,0.518-4.365,0.521
		c-7.318,0.016-14.604-0.1-21.915,0.958c-15.162,2.194-24.992,10.687-30.331,24.708c-3.055,8.023-3.877,16.476-3.896,24.988
		c-0.05,22.648,0,45.297,0.01,67.946c0.001,1.657,0,3.314,0,5.295c-22.522,0-44.919,0-67.442,0
		c-0.992-1.004-0.482-2.412-0.483-3.675c-0.024-27.478-0.126-54.957,0.041-82.434c0.11-18.125,4.151-35.244,14.693-50.347
		c9.866-14.134,23.034-24.293,38.731-31.196c14.829-6.521,30.333-10.486,46.471-12.138c8.118-0.831,16.237-1.44,24.385-1.742
		C341.827,5.097,343.123,5.138,344.635,5.138z"/>
	<path style="fill:#21211F;" d="M438.456,8.021c0,59.625,0,119.025,0,178.704c-22.501,0-44.885,0-67.509,0
		c0-59.643,0-119.032,0-178.704C393.461,8.021,415.84,8.021,438.456,8.021z"/>
	<path style="fill:#2F9FD9;" d="M1383.656,172.762c-4.666,0-8.955,0-13.588,0c-7.446-13.177-15.058-26.339-22.024-40.147
		c0,13.245,0,26.489,0,40.019c-4.223,0-7.941,0-11.898,0c0-19.449,0-38.681,0-58.177c4.97-0.514,9.733-0.276,14.772-0.153
		c7.297,12.585,14.623,25.112,21.132,38.236c0-12.588,0-25.177,0-38.008c3.959-0.465,7.662-0.763,11.606,0.275
		C1383.656,134.072,1383.656,153.159,1383.656,172.762z"/>
	<path style="fill:#2A9ED9;" d="M1048.979,22.066c5.44,0,10.241,0,15.475,0c7.625,12.636,14.94,25.711,21.342,39.387
		c-1.386-12.963-0.631-25.899-0.783-39.096c3.917-0.914,7.662-0.188,11.687-0.469c0,19.402,0,38.456,0,57.772
		c-4.377,0-8.644,0-13.373,0c-7.544-13.053-14.975-26.491-22.343-40.197c0,13.331,0,26.661,0,40.22c-4.001,0-7.609,0-11.839,0
		C1048.823,60.686,1049.086,41.636,1048.979,22.066z"/>
	<path style="fill:#2D9FD9;" d="M1249.893,38.659c0,13.594,0,27.187,0,41.019c-3.889,0-7.49,0-11.455,0c0-19.038,0-38.077,0-57.443
		c4.892,0,9.812,0,15.294,0c7.332,12.454,14.654,25.382,21.02,39.006c-1.205-12.919-0.604-25.831-0.778-39.036
		c4.102,0,7.825,0,11.834,0c0,19.157,0,38.196,0,57.476c-4.482,0-8.752,0-13.473,0C1264.914,66.301,1257.032,52.905,1249.893,38.659
		z"/>
	<path style="fill:#2A9ED9;" d="M1564.216,80.101c0-19.638,0-38.536,0-57.599c9.844-1.516,19.602-2.49,29.213-0.289
		c12.215,2.797,21.035,10.087,21.653,25.321c0.253,6.225-0.451,12.299-3.41,17.854c-4.111,7.717-10.998,11.712-19.27,13.599
		c-5.651,1.289-11.383,1.463-17.163,1.149C1571.767,79.947,1568.276,80.101,1564.216,80.101z M1577.18,69.994
		c2.674,0,4.838,0.171,6.964-0.036c4.165-0.405,7.876-1.699,11.268-4.52c6.099-5.071,7.192-18.679,3.691-25.477
		c-1.7-3.3-4.181-5.534-7.465-6.899c-4.732-1.967-9.604-1.268-14.458-0.986C1577.18,44.946,1577.18,57.193,1577.18,69.994z"/>
	<path style="fill:#2A9ED9;" d="M1191.239,115.385c7.228-1.169,14.007-1.565,20.822-1.298c4.345,0.17,8.448,1.179,12.443,3.006
		c9.041,4.132,10.694,16.718,1.334,22.523c-0.823,0.51-1.931,0.666-2.325,1.838c1.604,1.021,3.518,1.464,5.05,2.701
		c8.993,7.258,6.777,20.914-4.23,26.126c-2.733,1.294-5.666,2.103-8.554,2.426c-4.612,0.516-9.306,0.359-13.966,0.36
		c-3.453,0-6.906-0.202-10.574-0.322C1191.239,153.435,1191.239,134.535,1191.239,115.385z M1204.228,163.62
		c4.422,0.503,8.14,0.007,11.636-1.596c2.967-1.36,4.413-3.68,4.263-7.107c-0.149-3.42-1.786-5.606-4.84-6.744
		c-3.582-1.335-7.274-1.608-11.059-0.819C1204.228,152.854,1204.228,158.075,1204.228,163.62z M1204.146,137.358
		c3.697,1.165,6.775,0.165,9.776-0.569c2.919-0.714,5.172-4.09,5.03-6.698c-0.161-2.958-2.046-5.469-5.14-5.893
		c-3.205-0.439-6.531-0.835-9.666,0.339C1204.146,128.911,1204.146,133.046,1204.146,137.358z"/>
	<path style="fill:#2C9ED9;" d="M1255.951,144.028c-0.266-5.786,1.119-11.53,4.083-16.848c4.432-7.95,11.212-12.167,20.297-13.362
		c5.293-0.696,10.144,0.01,14.973,1.88c8.903,3.447,13.37,10.594,15.49,19.352c1.704,7.04,1.292,14.145-1.315,20.972
		c-4.98,13.041-15.135,18.261-27.105,17.681c-16.531-0.802-25.816-11.844-26.422-27.852
		C1255.935,145.352,1255.951,144.852,1255.951,144.028z M1298.029,143.984c-0.321-3.987-0.782-7.648-2.215-10.978
		c-2.066-4.802-5.519-8.411-11.049-8.868c-5.277-0.437-9.481,1.952-11.841,6.608c-4.388,8.66-4.408,17.535,0.136,26.175
		c3.459,6.578,13.865,8.626,19.519,2.331C1296.709,154.653,1296.957,149.116,1298.029,143.984z"/>
	<path style="fill:#34A0DA;" d="M1155.028,172.788c-2.064-4.231-2.766-8.322-3.945-12.257c-0.189-0.629-0.156-1.324-0.333-1.958
		c-2.047-7.372-5.012-9.463-12.88-8.281c0,7.224,0,14.594,0,22.049c-4.739,1.052-8.802,0.393-12.715,0.556
		c-1.195-3.889-1.414-51.912-0.326-57.408c2.745-0.428,5.626-1.18,8.527-1.267c6.456-0.193,12.927-0.617,19.349,0.783
		c12.469,2.717,15.433,13.152,12.204,21.788c-1.529,4.089-4.956,6.479-8.719,8.678c3.66,1.942,5.604,5.039,6.708,8.575
		c1.862,5.966,3.44,12.02,5.233,18.378C1163.677,173.396,1159.46,172.831,1155.028,172.788z M1137.539,139.814
		c3.116,0.465,5.958,0.467,8.737,0.082c4.128-0.572,6.728-3.828,6.722-7.96c-0.006-4.169-2.61-7.387-6.825-7.8
		c-2.734-0.268-5.591-0.616-8.634,0.51C1137.539,129.602,1137.539,134.5,1137.539,139.814z"/>
	<path style="fill:#2F9FD9;" d="M1172.551,46.493c0,10.446,0,20.363,0,30.355c-3.242,2.051-7.002,2.351-10.477,2.821
		c-6.664,0.903-13.408,1.121-20.117-0.515c-12.921-3.151-19.578-12.466-20.741-24.793c-0.952-10.09,2.123-19.108,10.034-25.856
		c4.894-4.174,10.879-6.287,17.219-7.108c7.293-0.944,14.486-0.468,21.451,2.227c0.408,3.841-1.306,6.919-2.101,10.503
		c-2.902-0.638-5.413-1.356-7.975-1.721c-7.117-1.013-13.85-0.429-19.558,4.724c-7.004,6.323-8.358,24.596,4.473,30.705
		c4.697,2.237,9.745,2.964,14.964,0.595c0-3.573,0-7.179,0-10.993c-2.661-1.202-5.598,0.09-8.627-0.967
		c-0.302-3.168-0.298-6.409,0.045-9.978C1158.145,46.493,1165.035,46.493,1172.551,46.493z"/>
	<path style="fill:#2A9ED9;" d="M1467.641,52.464c4.868,3.252,6.633,7.855,7.916,12.744c1.208,4.604,2.435,9.202,3.73,14.092
		c-4.32,1.251-8.418,0.218-12.467,0.725c-2.445-3.166-2.522-6.957-3.739-10.315c-0.503-1.388-0.669-2.896-1.111-4.31
		c-2.296-7.345-4.432-8.74-12.651-8.121c-0.698,3.685-0.206,7.482-0.297,11.241c-0.088,3.623-0.019,7.25-0.019,11.131
		c-4.328,0-8.26,0-12.871,0c-0.293-18.886-0.057-37.896-0.145-57.159c9.504-1.297,18.684-2.407,27.866-0.351
		c6.308,1.412,11.462,4.483,13.114,11.375c1.623,6.77-0.328,12.356-5.779,16.683C1470.293,50.91,1469.256,51.442,1467.641,52.464z
		 M1448.952,31.138c0.219,5.964-0.334,11.207,0.395,16.665c1.624,0,2.941,0.124,4.224-0.031c1.626-0.196,3.261-0.498,4.828-0.966
		c3.663-1.093,6.464-4.751,6.307-8.042c-0.161-3.368-2.563-5.939-6.447-7.219C1455.318,30.574,1452.443,31.193,1448.952,31.138z"/>
	<path style="fill:#2D9FD9;" d="M1101.292,172.491c-4.753,0.817-9.047,0.255-13.6,0.446c-2.585-4.576-2.855-10.041-5.312-14.841
		c-5.125,0-10.26,0-15.762,0c-2.774,4.259-2.457,9.918-5.099,14.768c-4.092-0.01-8.192,0.341-12.934-0.321
		c5.565-19.734,11.753-38.961,17.572-58.075c6.015,0,11.449,0,17.151,0C1089.311,133.84,1095.259,153.029,1101.292,172.491z
		 M1080.34,147.96c-1.237-8.066-4.279-14.991-6.326-22.379c-1.951,7.294-3.902,14.588-5.907,22.083
		C1072.046,148.281,1075.816,147.94,1080.34,147.96z"/>
	<path style="fill:#37A0DA;" d="M1024.61,79.767c-12.432,0-24.544,0-36.65,0c-1.021-3.548-1.401-46.51-0.512-57.089
		c3.534-0.976,25.675-1.303,35.876-0.508c0.942,3.164,0.509,6.405,0.26,9.937c-3.736,1.404-7.567,0.537-11.291,0.693
		c-3.611,0.152-7.233,0.033-11.098,0.033c0,3.871,0,7.281,0,11.207c6.814,0,13.537,0,20.575,0c0,3.745,0,6.999,0,10.913
		c-6.677,0-13.545,0-20.611,0c0,4.907,0,9.161,0,13.965c7.775,0,15.498,0,23.45,0C1024.61,72.717,1024.61,75.978,1024.61,79.767z"/>
	<path style="fill:#37A0DA;" d="M1409.828,32.774c-7.313,0-14.257,0-21.369,0c-0.889,3.847-0.512,7.39-0.347,11.283
		c6.94,0,13.539,0,20.315,0c1.082,3.676,0.412,7.078,0.549,10.965c-7.051,0-13.782,0-20.77,0c0,4.75,0,9.008,0,13.824
		c7.639,0,15.365,0,23.35,0c0,3.802,0,7.062,0,10.89c-6,0.418-12.095,0.135-18.173,0.185c-6.152,0.051-12.306,0.011-18.402,0.011
		c-1.02-3.709-1.365-48.113-0.464-57.662c11.652,0,23.345,0,35.309,0C1409.828,25.595,1409.828,28.86,1409.828,32.774z"/>
	<path style="fill:#37A0DA;" d="M1516.001,44.065c7.056,0,13.656,0,20.483,0c0.999,3.676,0.301,7.078,0.544,10.963
		c-7.108,0-13.839,0-20.824,0c0,4.749,0,9.006,0,13.824c7.648,0,15.374,0,23.356,0c0,3.802,0,7.062,0,10.334
		c-3.594,0.971-25.042,1.292-36.639,0.54c-0.955-3.507-1.292-48.128-0.397-57.459c11.652,0,23.344,0,35.306,0
		c0,3.337,0,6.6,0,10.354c-7.056,0-14.134,0-21.318,0C1515.453,36.629,1516.109,40.177,1516.001,44.065z"/>
	<path style="fill:#2C9ED9;" d="M1312.98,22.11c12.198,0,23.784,0,35.668,0c0.404,3.421,0.494,6.649-0.136,10.356
		c-7.274,0.863-14.568-0.037-21.961,0.521c-0.879,3.539-0.338,6.975-0.394,10.827c7,0.936,13.951-0.149,20.867,0.619
		c1.516,3.368,0.385,6.667,0.909,10.187c-7.198,1.146-14.167-0.147-21.208,0.795c-1.328,4.311-0.237,8.604-0.775,13.37
		c8.037,0,15.757,0,23.759,0c0,3.913,0,7.292,0,10.906c-12.112,0-24.034,0-36.568,0C1312.824,60.688,1313.083,41.651,1312.98,22.11z
		"/>
	<path style="fill:#2F9FD9;" d="M1409.003,170.463c-0.396-4.101,1.045-7.221,2.046-10.714c4.639,0.797,8.644,2.354,12.897,2.854
		c5.463,0.642,8.91-1.053,10.931-6.003c-0.46-4.133-3.567-5.802-6.872-7.084c-4.026-1.562-7.985-3.199-11.635-5.551
		c-10.234-6.596-9.659-20.722,1.135-27.097c3.196-1.888,6.633-2.928,10.39-2.968c5.975-0.063,11.967-0.361,17.911,2.793
		c-0.85,3.237-1.74,6.63-2.672,10.178c-6.89-1.704-13.425-4.047-19.643,0.063c-1.06,5.633-0.752,6.47,3.722,8.651
		c3.868,1.886,7.884,3.469,11.746,5.366c6.267,3.078,9.325,8.087,9.171,15.194c-0.151,6.957-3.693,11.701-9.57,14.559
		c-7.564,3.679-15.578,4.114-23.68,1.664C1412.997,171.8,1411.136,171.157,1409.003,170.463z"/>
	<path style="fill:#2F9FD9;" d="M1030.828,116.667c-0.764,2.982-1.533,5.988-2.288,8.935c-1.609,0.818-2.998,0.273-4.438-0.11
		c-3.928-1.044-8.012-1.107-11.883-0.31c-5.041,1.037-9.184,3.779-11.308,8.833c-3.082,7.334-3.06,14.545,1.241,21.385
		c2.642,4.202,6.754,6.365,11.656,6.661c4.298,0.259,8.647,0.537,12.851-0.933c0.429-0.15,0.974,0.033,1.75,0.078
		c0.42,3.186,1.637,6.248,1.462,9.971c-6.026,2.142-12.146,3.347-18.449,2.323c-2.416-0.392-4.878-0.527-7.309-1.322
		c-11.367-3.715-17.483-11.682-18.968-23.214c-0.834-6.473-0.079-12.89,2.814-18.959c4.482-9.403,12.39-14.102,22.137-15.862
		c5.825-1.052,11.808-0.834,17.601,0.906C1028.807,115.382,1029.888,115.771,1030.828,116.667z"/>
	<path style="fill:#2A9ED9;" d="M1211.104,79.713c-4.659,0-8.594,0-12.799,0c0-19.258,0-38.309,0-57.58c4.178,0,8.117,0,12.795,0
		C1211.108,41.199,1211.101,60.248,1211.104,79.713z"/>
</g>
</svg>
