<?xml version="1.0" encoding="iso-8859-1"?>
<!-- Generator: Adobe Illustrator 27.0.0, SVG Export Plug-In . SVG Version: 6.00 Build 0)  -->
<svg version="1.1" id="Layer_1" xmlns="http://www.w3.org/2000/svg" xmlns:xlink="http://www.w3.org/1999/xlink" x="0px" y="0px"
	 viewBox="0 0 1485 569" style="enable-background:new 0 0 1485 569;" xml:space="preserve">
<g>
	<path style="fill:#CAD732;" d="M832,0c0.489,1.258,1.615,0.908,2.546,0.979c29.064,2.211,56.911,9.283,83.657,20.822
		c32.423,13.989,60.946,33.774,86.876,57.613c28.277,25.997,50.985,56.036,67.254,90.851c10.524,22.521,17.902,46.037,21.758,70.641
		c1.52,9.698,2.556,19.415,3.135,29.221c0.393,6.654,0.684,13.301,0.445,19.937c-0.525,14.602-1.824,29.119-4.404,43.549
		c-3.639,20.353-9.471,40.016-17.451,59.038c-10.089,24.051-23.37,46.226-39.611,66.657c-19.867,24.992-43.314,45.973-70.203,63.122
		c-31.698,20.216-66.016,34.002-102.823,41.617c-9.111,1.885-18.227,3.744-27.567,4.073c-0.706,0.025-1.292,0.19-1.613,0.88
		c-16.333,0-32.667,0-49,0c-0.481-1.299-1.642-0.865-2.539-0.922c-16.119-1.023-31.993-3.7-47.685-7.394
		c-26.473-6.232-51.708-15.796-75.624-28.773c-17.888-9.706-34.566-21.167-50.111-34.326
		c-19.176-16.233-35.846-34.716-49.994-55.431c-17.19-25.168-29.846-52.484-37.943-81.897c-4.282-15.555-7.302-31.366-8.797-47.403
		c-1.482-15.897-1.773-31.827-0.539-47.822c1.41-18.281,4.42-36.206,9.148-53.899c4.298-16.085,10.135-31.576,17.273-46.591
		c15.169-31.906,35.549-60.046,61.387-84.142c28.58-26.653,61.399-46.34,98.226-59.469c18.487-6.591,37.31-11.881,56.564-15.539
		c11.244-2.136,22.576-3.933,34.056-4.424C789.357,0.926,790.477,1.212,791,0C804.667,0,818.333,0,832,0z M813.366,530.038
		c6.151-0.086,12.281-0.275,18.427-0.674c11.623-0.755,23.137-2.129,34.585-4.227c31.335-5.742,60.67-16.815,88.1-32.971
		c28.623-16.86,53.768-37.932,75.866-62.697c13.348-14.959,24.777-31.236,34.156-48.97c14.34-27.116,22.461-55.99,24.32-86.57
		c0.85-13.979-0.361-27.886-2.588-41.724c-3.865-24.009-11.843-46.608-23.581-67.81c-20.429-36.898-48.447-66.961-83.195-90.781
		c-26.242-17.989-54.784-31.037-85.304-39.975c-23.693-6.939-47.861-11.128-72.442-12.463c-27.477-1.492-54.803,0.246-81.876,5.653
		C713,52.187,687.25,60.668,662.708,72.713c-23.404,11.487-44.92,25.842-64.505,43.103c-25.023,22.054-45.429,47.607-59.337,78.054
		c-13.494,29.542-20.964,60.337-19.23,93.105c0.606,11.462,1.411,22.859,3.209,34.196c3.089,19.485,8.807,38.152,17.68,55.763
		c8.401,16.673,18.625,32.202,30.327,46.776c22.075,27.492,48.739,49.435,79.707,66.17c25.858,13.974,53.354,23.553,81.931,30.213
		C759.102,526.297,786.028,529.819,813.366,530.038z"/>
	<path style="fill:#24A5DD;" d="M0,281c2.288-1.818,1.152-4.616,1.73-6.881c6.61-25.867,23.339-41.795,48.098-50.176
		c10.542-3.568,21.451-4.916,32.375-3.711c26.663,2.943,45.672,16.685,55.497,41.956c2.307,5.933,3.599,12.302,3.551,18.893
		c-0.078,10.638-0.05,21.21-3.569,31.471c-7.292,21.266-21.838,34.807-43.16,41.521c-9.166,2.886-18.5,3.141-27.944,3.03
		c-13.744-0.162-26.162-4.473-37.185-12.428c-13.654-9.854-23.093-22.8-27.371-39.332C1.304,302.57,1.819,299.491,0,297
		C0,291.667,0,286.333,0,281z M23.967,285.537c-0.722,9.891,2.106,19.587,7.151,28.37c7.576,13.187,18.48,22.571,33.629,26.534
		c10.195,2.667,19.974,1.822,29.465-2.455c8.507-3.834,14.562-10.287,18.758-18.548c5.458-10.743,8.198-22.094,6.654-34.126
		c-1.472-11.468-6.615-21.381-13.833-30.358c-10.902-13.558-24.543-20.912-42.277-19.006c-12.955,1.393-23.059,7.901-30.585,18.353
		C26.349,263.442,23.427,273.77,23.967,285.537z"/>
	<path style="fill:#24A6DE;" d="M1485,330c-0.534,0.123-0.796,0.494-0.965,0.989c-4.882,14.257-15.286,22.153-29.645,24.987
		c-10.501,2.073-21.155,1.748-31.693,0.009c-4.7-0.775-6.508-3.33-6.7-7.85c-0.311-7.297,0.579-14.507,1.353-22.189
		c2.872,1.484,4.614,3.726,6.636,5.601c4.692,4.352,9.774,7.7,16.334,8.885c5.178,0.935,9.586-0.298,13.601-3.071
		c3.919-2.708,6.487-6.748,7.957-11.222c1.806-5.493,0.044-10.364-3.643-14.632c-3.419-3.959-7.811-6.685-12.078-9.572
		c-6.321-4.276-12.865-8.223-18.938-12.867c-3.984-3.047-7.449-6.553-10.489-10.57c-9.429-12.454-6.89-30.759,1.757-42.341
		c7.82-10.474,18.591-15.69,31.374-16.922c4.292-0.414,8.568,0.695,12.818,1.293c3.744,0.526,7.53,1.008,11.027,2.76
		c3.48,1.743,5.394,4.331,5.288,8.262c-0.128,4.773,0.625,9.646-1.621,14.507c-4.047-2.014-8.002-4.085-12.043-5.97
		c-7.554-3.523-15.317-3.192-22.665,0.149c-8.233,3.743-14.793,16.717-4.701,27.235c4.881,5.087,11.141,8.336,16.98,12.125
		c4.312,2.798,8.782,5.356,13.061,8.203c7.614,5.066,12.979,12.081,16.996,20.203C1485,315.333,1485,322.667,1485,330z"/>
	<path style="fill:#25A7DE;" d="M266.17,297.91c0.574,2.786,1.881,5.204,3.421,7.621c8.491,13.33,18.608,25.435,28.275,37.879
		c3.037,3.91,6.12,7.784,9.544,12.134c-6.519,2.218-12.44,2.082-18.312-0.203c-3.592-1.398-6.69-3.606-9.52-6.242
		c-8.183-7.62-15.266-16.229-22.304-24.862c-6.815-8.361-13.387-16.92-20.086-25.377c-0.173-0.218-0.573-0.255-0.929-0.402
		c-1.614,9.357-1.12,18.787-1.277,28.193c-0.158,9.445,2.465,18.607,3.238,28.517c-9.169,2.785-17.818,2.427-26.098,0.552
		c-1.476-2.213-1.219-3.833-0.555-5.398c1.333-3.144,1.276-6.45,1.47-9.775c1.752-29.935,1.393-59.899,0.731-89.841
		c-0.189-8.558-0.01-17.252-1.564-25.781c-0.14-0.769,0.048-1.597,0.098-2.736c12.079-0.426,23.857-1.985,35.83-0.439
		c9.437,1.218,18.096,3.993,25.85,9.391c13.201,9.189,18.917,28.335,12.684,43.067c-2.838,6.708-7.686,11.926-13.887,15.896
		C268.902,292.586,267.784,294.165,266.17,297.91z M236.681,235.19c-1.967,1.767-1.679,4.149-1.679,6.458
		c0.002,14.481-0.01,28.962,0.019,43.443c0.003,1.454-0.345,2.974,0.519,4.636c1.694,0.333,3.463,0.416,5.247-0.097
		c6.267-1.801,12.131-4.505,17.312-8.453c3.604-2.746,6.382-6.265,7.908-10.642C272.185,252.812,255.856,233.097,236.681,235.19z"/>
	<path style="fill:#25A6DE;" d="M492.634,356.97c-8.67,0-17.147-0.021-25.623,0.011c-3.288,0.012-5.336-1.632-6.267-4.643
		c-1.315-4.257-2.379-8.592-3.741-12.833c-2.12-6.604-4.056-13.241-8.415-18.94c-3.02-3.948-6.872-6.381-11.438-7.368
		c-5.307-1.147-10.691-1.626-16.254-0.587c-3.853,0.72-7.879,1.013-11.838,1.295c-5.279,0.376-8.777,2.495-11.059,7.618
		c-4.05,9.091-7.671,18.278-10.156,27.923c-0.607,2.354-1.033,4.867-2.615,6.786c-3.762,0.869-24.7,1.007-30.189,0.165
		c25.445-44.438,46.531-90.983,70.323-136.09c1.948,0.189,2.017,1.803,2.557,2.861c7.989,15.654,15.237,31.657,22.525,47.646
		c9.35,20.51,18.46,41.145,29.037,61.069c3.886,7.32,7.718,14.681,12.153,21.702C492.133,354.372,492.855,355.19,492.634,356.97z
		 M425.302,264.82c-4.751,9.093-9.29,17.544-12.514,26.612c-1.599,4.498-0.398,6.433,4.141,6.567
		c5.155,0.152,10.319,0.02,15.479-0.03c2.074-0.02,3.905-0.666,5.194-2.319C437.663,292.147,432.057,278.064,425.302,264.82z"/>
	<path style="fill:#25A7DE;" d="M1343.804,327.801c-0.06,5.883,0.41,10.777-0.505,15.772c-0.808,4.41-3.473,6.794-7.164,8.139
		c-6.528,2.379-13.319,3.965-20.162,5.112c-6.384,1.07-12.853,1.453-19.353,1.13c-17.747-0.883-33.445-6.661-45.75-19.839
		c-9.78-10.474-15.115-23.058-16.971-37.336c-1.859-14.307,0.527-27.768,7.121-40.387c10.961-20.973,28.137-33.822,51.477-38.492
		c8.876-1.776,17.777-2.29,26.731-1.768c4.932,0.288,9.87,1.126,14.71,2.159c5.283,1.127,7.052,3.657,7.039,9.288
		c-0.011,4.772,0.486,9.622-1.46,14.371c-7.149-2.336-14.051-5.079-21.351-6.576c-8.893-1.823-17.697-2.163-26.562,0.217
		c-10.788,2.897-18.786,9.688-25.52,18.148c-14.335,18.011-13.172,43.709-1.824,61.654c6.363,10.062,15.57,16.752,27.307,19.338
		c10.105,2.227,20.034,0.434,29.807-2.371C1328.833,334.222,1336.082,331.498,1343.804,327.801z"/>
	<path style="fill:#27A7DE;" d="M1133.241,357.005c0.331-4.295,0.472-8.064,0.938-11.792c1.193-9.545,1.397-19.154,2.11-28.725
		c1.251-16.787,1.033-33.577,0.455-50.333c-0.409-11.875-0.652-23.821-2.471-35.638c-0.443-2.881-0.066-5.888-0.066-9.381
		c7.282,0.875,14.163-2.266,21.33-0.23c5.307,1.507,7.229,4.021,6.331,9.343c-0.163,0.969-0.489,1.929-0.864,2.842
		c-1.928,4.699-2.019,9.611-2.268,14.615c-0.801,16.108-0.772,32.219-0.826,48.333c-0.028,8.154-0.307,16.335,0.235,24.457
		c0.637,9.55,1.426,19.122,3.301,28.546c1.122,5.641-0.562,7.896-6.181,7.947C1147.992,357.054,1140.716,357.005,1133.241,357.005z"
		/>
	<path style="fill:#21A5DD;" d="M946.348,270.582c-0.595,28.561-4.11,56.687,3.094,83.689c-1.231,2.425-2.632,2.666-4.219,2.662
		c-4.332-0.013-8.666,0.147-12.995,0.034c-5.307-0.139-7.987-2.722-8.136-8.012c-0.173-6.136,0.175-12.251,0.692-18.391
		c0.628-7.451,0.375-14.982,0.377-22.479c0.007-20.994-0.112-41.989-0.033-62.983c0.017-4.473-1.437-8.121-4.558-11.161
		c-2.142-2.087-4.333-4.137-6.644-6.03c-1.333-1.092-2.269-2.32-2.841-3.896c13.979-6.493,26.486-3.594,35.307,8.255
		c17.349,23.302,35.574,45.924,53.345,68.898c3.826,4.946,7.791,9.783,12.057,15.128c0.586-5.272,1.089-9.837,1.301-14.462
		c0.682-14.92,2.252-29.833,1.68-44.764c-0.359-9.382-0.238-18.882-2.587-28.132c-0.432-1.7-0.062-3.603-0.062-5.807
		c8.078-3.794,16.102-3.781,24.164-0.358c1.067,1.982,0.716,3.669,0.098,5.465c-1.087,3.159-1.414,6.445-1.41,9.798
		c0.011,8.663,0.444,17.373-0.29,25.979c-0.965,11.315-0.646,22.611-0.507,33.899c0.176,14.292,0.927,28.579,0.834,42.88
		c-0.02,3.097,1.369,5.779,2.141,8.638c1.212,4.491,0.644,5.616-3.802,6.648c-2.573,0.598-5.134,1.309-7.741,1.693
		c-6.663,0.981-11.987-0.953-15.746-6.957c-5.817-9.289-12.112-18.272-18.903-26.874c-7.818-9.904-15.859-19.633-23.819-29.425
		c-5.445-6.698-10.905-13.384-16.389-20.051C949.645,273.112,948.665,271.551,946.348,270.582z"/>
	<path style="fill:#26A7DE;" d="M672.736,246.989c-6.799-2.265-12.848-5.353-19.273-7.485c-6.793-2.254-13.741-4.223-20.803-4.265
		c-12.403-0.073-23.874,3.467-33.382,11.897c-13.463,11.937-18.55,27.386-17.052,44.777c1.197,13.9,6.51,26.344,17.629,35.63
		c6.763,5.648,14.664,8.907,23.086,11.071c9.099,2.338,18.218,2.929,27.425,0.468c7.286-1.948,9.674-4.764,9.602-12.287
		c-0.123-12.841-1.642-25.42-7.945-37.173c5.895-1.64,11.667-1.97,17.358-2.355c7.984-0.541,11.39,2.776,11.517,10.74
		c0.141,8.825-0.083,17.655-0.032,26.483c0.027,4.633-0.091,9.235,0.873,13.88c1.551,7.471-1.054,11.817-8.288,14.238
		c-4.212,1.41-8.595,2.535-12.99,3.124c-9.688,1.298-19.397,2.846-29.228,2.099c-9.562-0.727-19.155-1.581-28.31-4.609
		c-22.006-7.28-35.796-22.561-40.718-44.965c-6.128-27.895,1.247-52.262,22.219-71.933c9.558-8.965,21.207-13.747,34.314-15.485
		c5.764-0.764,11.556-0.932,17.306-1.449c6.033-0.542,12.227,0.484,18.33,1.045c3.446,0.317,6.859,1.038,10.275,1.647
		c6.633,1.181,9.026,4.106,9.201,10.829C673.972,237.563,672.736,242.053,672.736,246.989z"/>
	<path style="fill:#25A6DE;" d="M832.169,281.339c-1.128,4.571-2.656,8.417-4.551,12.05c-2.722,5.219-6.642,6.636-13.071,5.259
		c-4.683-1.002-9.355-2.057-14.05-2.996c-5.903-1.18-10.142,2.158-9.24,8.122c1.234,8.155,0.278,16.274,0.659,24.396
		c0.094,1.996,0.069,3.998,0.118,5.997c0.075,3.077,1.132,5.804,2.57,7.973c4.675,3.072,9.243,1.279,13.466,0.611
		c10.098-1.597,20.093-3.852,29.999-6.474c1.985-0.525,4.014-1.716,6.679-0.927c-0.698,5.474-1.498,10.979-4.079,15.951
		c-2.368,4.562-7.064,5.184-11.563,5.565c-3.476,0.294-6.993,0.132-10.492,0.134c-15.331,0.009-30.663,0.004-45.994,0.004
		c-1.64,0-3.28,0-5.107,0c0.779-12.242,2.029-24.043,2.809-35.882c1.316-19.974,0.705-39.926,0.494-59.883
		c-0.094-8.929-1.06-17.863-1.962-26.762c-0.4-3.948-1.029-7.852-0.835-12.157c23.188,0,46.254,0,69.328,0
		c0.913,1.014,0.792,2.298,0.445,3.306c-1.619,4.707-4.759,8.683-6.539,13.349c-0.618,1.62-2.411,2.056-4.222,2.125
		c-2.732,0.104-5.223-0.719-7.75-1.538c-5.186-1.68-10.244-3.731-15.613-4.878c-6.588-1.408-9.686,0.649-10.72,7.218
		c-1.039,6.603-0.996,13.241-1.018,19.883c-0.012,3.499-0.093,7.005,0.086,10.495c0.234,4.557,2.267,6.681,6.742,7.944
		c1.955,0.552,3.877,0.785,5.884,0.785c8.332-0.003,16.663,0.037,24.995,0.076C830.279,281.09,830.921,281.211,832.169,281.339z"/>
</g>
</svg>
