<?xml version="1.0" encoding="iso-8859-1"?>
<!-- Generator: Adobe Illustrator 27.0.0, SVG Export Plug-In . SVG Version: 6.00 Build 0)  -->
<svg version="1.1" id="Layer_1" xmlns="http://www.w3.org/2000/svg" xmlns:xlink="http://www.w3.org/1999/xlink" x="0px" y="0px"
	 viewBox="0 0 1541 1115" style="enable-background:new 0 0 1541 1115;" xml:space="preserve">
<g>
	<path style="fill:#020202;" d="M586,0c1,0,2,0,3,0c0.438,1.349,1.602,0.927,2.497,0.934c9.51,0.066,18.938,1.337,28.34,2.419
		c14.51,1.669,28.973,3.787,43.348,6.541c29.703,5.69,58.724,13.783,87.045,24.297c48.668,18.069,93.997,42.452,135.821,73.217
		c41.838,30.775,78.684,66.728,110.548,107.759c39.354,50.674,68.939,106.576,89.225,167.401
		c8.72,26.145,15.144,52.891,19.992,80.017c1.071,5.993,2.093,11.995,3.237,18.557c-46.885,0-93.428,0-139.787,0
		c0,51.101,0,101.676,0,152.698c46.683,0,93.07,0,139.6,0c0,1.09,0.087,1.744-0.013,2.368c-2.913,18.187-6.273,36.275-10.685,54.179
		c-17.973,72.949-49.482,139.488-94.228,199.786c-28.84,38.863-62.302,73.263-100.074,103.514
		c-28.632,22.931-59.317,42.699-91.856,59.545c-38.113,19.731-77.987,34.887-119.715,45.127
		c-19.195,4.71-38.538,8.702-58.098,11.359c-15.807,2.147-31.678,4.133-47.685,4.357c-0.897,0.013-2.059-0.41-2.513,0.925
		c-2,0-4,0-6,0c-0.319-0.981-1.109-1.055-1.966-1.05c-13.061,0.066-26.123,0.126-39.184,0.188c-3.631-0.03-7.262-0.059-10.893-0.089
		c-4.673-0.006-9.302-0.652-13.951-0.95c-17.448-1.118-34.761-3.387-51.945-6.44c-22.861-4.061-45.45-9.384-67.652-16.266
		c-48.749-15.111-94.569-36.513-137.438-64.181c-50.793-32.783-95.108-72.811-132.855-120.017
		C80.769,854.487,49.559,797.221,28.66,734.35C17.694,701.36,9.918,667.638,5.226,633.22c-2.157-15.825-3.782-31.728-4.248-47.719
		C0.951,584.589,1.318,583.442,0,583c0-1.667,0-3.333,0-5c1.054-0.238,1.107-1.055,1.099-1.905
		c-0.075-7.812-0.154-15.625-0.221-23.437C0.872,551.935,0.597,551.391,0,551c0-9,0-18,0-27c1.049-0.309,0.999-1.192,0.992-2.001
		c-0.036-4.175,0.556-8.299,0.889-12.447c1.557-19.404,4.348-38.616,7.981-57.741c7.328-38.572,18.763-75.88,34.081-111.993
		c22.55-53.163,52.73-101.653,90.356-145.43c40.265-46.848,87.046-85.982,140.262-117.435
		c29.062-17.177,59.431-31.543,91.087-43.198c29.147-10.731,59.033-18.854,89.568-24.5c10.939-2.023,21.95-3.796,33-5.041
		c12.395-1.397,24.806-2.856,37.299-3.232C526.219,0.961,526.797,0.771,527,0c1.667,0,3.333,0,5,0c2.954,1.366,10.012,1.366,14,0
		c7,0,14,0,21,0c0.372,0.296,0.741,0.845,1.117,0.85c5.632,0.086,11.266,0.117,16.899,0.09C585.346,0.939,585.672,0.328,586,0z
		 M740.835,557.236c-0.37-101.926-81.447-183.755-183.427-183.854c-102.785-0.1-183.015,82.939-183.562,182.647
		c-0.553,100.824,81.198,183.992,182.816,184.332C656.462,740.697,740.166,660.589,740.835,557.236z"/>
	<path style="fill:#020202;" d="M1541,32c0,344.667,0,689.333,0,1034c-12.999-0.025-25.997-0.069-38.995-0.07
		c-108.826-0.006-217.652,0-326.479-0.032c-1.904-0.001-3.943,0.576-5.557-0.492c0-143.975,0-287.702,0-431.274
		c0.499-0.217,0.644-0.336,0.789-0.336c50.162-0.034,100.325-0.06,150.488-0.091c0.327,0,0.659-0.045,0.977-0.116
		c0.151-0.034,0.285-0.169,0.411-0.277c0.119-0.102,0.218-0.229,0.263-0.278c0-50.638,0-101.207,0-152.169c-51.223,0-102.15,0-153,0
		c0-149.645,0-298.897,0-448.175c2.188-0.779,4.197-0.425,6.156-0.425c119.659-0.02,239.318-0.017,358.976-0.028
		C1537.019,32.237,1539.01,32.083,1541,32z"/>
	<path style="fill:#3F3D3C;" d="M536.85,1114.137c13.061-0.061,26.123-0.121,39.184-0.188c0.858-0.004,1.647,0.069,1.966,1.05
		c-13.667,0-27.333,0-41,0C536.987,1114.706,536.937,1114.418,536.85,1114.137z"/>
	<path style="fill:#5F5C5C;" d="M0,551c0.597,0.391,0.872,0.935,0.878,1.658c0.067,7.812,0.146,15.625,0.221,23.437
		C1.107,576.945,1.054,577.762,0,578C0,569,0,560,0,551z"/>
	<path style="fill:#514E4E;" d="M586,0c-0.328,0.328-0.654,0.939-0.984,0.94c-5.633,0.027-11.267-0.004-16.899-0.09
		C567.741,0.845,567.372,0.296,567,0C573.333,0,579.667,0,586,0z"/>
	<path style="fill:#625F5E;" d="M546,0c-3.988,1.366-11.046,1.366-14,0C536.667,0,541.333,0,546,0z"/>
	<path style="fill:#838080;" d="M536.85,1114.137c0.087,0.281,0.137,0.569,0.15,0.863c-3.667,0-7.333,0-11,0
		c-0.014-0.317-0.029-0.634-0.043-0.951C529.588,1114.078,533.219,1114.108,536.85,1114.137z"/>
</g>
</svg>
