<?xml version="1.0" encoding="iso-8859-1"?>
<!-- Generator: Adobe Illustrator 27.0.0, SVG Export Plug-In . SVG Version: 6.00 Build 0)  -->
<svg version="1.1" id="Layer_1" xmlns="http://www.w3.org/2000/svg" xmlns:xlink="http://www.w3.org/1999/xlink" x="0px" y="0px"
	 viewBox="0 0 1570 335" style="enable-background:new 0 0 1570 335;" xml:space="preserve">
<g>
	<path style="fill:#4CB3AA;" d="M183,0c2.68,1.978,6.004,1.399,8.933,1.782c12.729,1.663,24.934,5.111,36.851,9.683
		c16.396,6.29,31.45,15.067,44.966,26.195c16.964,13.966,30.801,30.665,41.234,50.098c4.554,8.483,8.452,17.242,11.563,26.353
		c0.216,0.632,0.529,1.223,0.091,2.271c-1.414,0.884-3.274,0.402-5.002,0.403c-69.309,0.03-138.618,0.024-207.926,0.029
		c-2.332,0-4.672-0.056-6.995,0.111c-8.137,0.584-16.606,9.23-15.783,17.528c0.744,7.491,7.819,14.832,15.747,15.535
		c2.483,0.22,4.993,0.193,7.49,0.194c71.308,0.009,142.616,0.003,213.924,0.032c1.954,0.001,3.986-0.479,5.845,0.446
		c1.356,4.013,1.645,26.012,0.448,33.244c-1.66,1.605-3.774,0.872-5.681,0.874c-47.15,0.043-94.3,0.065-141.45-0.013
		c-4.831-0.008-9.193,0.713-12.958,4.003c-5.494,4.799-7.529,10.871-5.627,16.798c2.247,7.001,7.841,11.99,14.524,12.471
		c2.157,0.155,4.328,0.146,6.493,0.147c43.818,0.008,87.636,0,131.453,0.026c1.799,0.001,3.647-0.371,5.69,0.435
		c-0.51,4.789-2.702,9.044-4.471,13.393c-7.074,17.398-17.209,32.868-29.657,46.895c-15.546,17.518-34.018,31.153-55.166,41.014
		c-14.448,6.737-29.677,11.12-45.566,13.273c-3.286,0.445-6.928-0.258-9.972,1.781c-9.667,0-19.333,0-29,0
		c-0.492-1.233-1.597-0.909-2.543-1.013c-3.455-0.381-6.942-0.586-10.356-1.196c-19.033-3.4-37.075-9.614-53.939-19.164
		c-20.653-11.696-38.154-26.963-52.348-45.994C13.541,240.452,2.778,209.842,0.86,176.052c0.004-6.367,0.007-12.734,0.011-19.101
		c0.015-6.66,1.117-13.234,2.373-19.703c3.811-19.626,10.548-38.233,20.877-55.432c10.092-16.805,22.581-31.615,37.796-43.983
		c14.24-11.575,29.975-20.723,47.158-27.225c13.506-5.111,27.489-8.319,41.887-9.638c3.49,0.002,6.98,0.011,10.47,0.001
		C162.399,0.968,163.473,1.19,164,0C170.333,0,176.667,0,183,0z"/>
	<path style="fill:#CDE4E2;" d="M0,157c0.291-0.008,0.581-0.024,0.871-0.049c-0.004,6.367-0.007,12.734-0.011,19.101
		C0.574,176.033,0.287,176.015,0,176C0,169.667,0,163.333,0,157z"/>
	<path style="fill:#90C9C4;" d="M150.962,0.97C151.076,0.651,151.088,0.327,151,0c4.333,0,8.667,0,13,0
		c-0.527,1.19-1.601,0.968-2.567,0.971C157.943,0.981,154.453,0.972,150.962,0.97z"/>
	<path style="fill:#C3C4C9;" d="M1569.136,161.952c0.288,0.009,0.576,0.025,0.864,0.048c0,4,0,8,0,12
		c-0.296-0.004-0.591,0.01-0.886,0.042C1569.121,170.012,1569.129,165.982,1569.136,161.952z"/>
	<path style="fill:#404E5D;" d="M636.161,254.508c-10.295,0-19.903,0-29.494,0c-0.977-3.496-1.333-166.157-0.365-173.94
		c9.067,0,18.174,0,27.861,0c30.536,39.526,61.318,79.371,92.1,119.216c0.255-0.104,0.509-0.207,0.764-0.311
		c0-39.567,0-79.135,0-118.938c10.108,0,19.851,0,29.839,0c0,57.995,0,115.764,0,173.851c-8.274,0-16.531,0-25.27,0
		c-31.412-40.642-63.016-81.534-94.621-122.427c-0.271,0.121-0.542,0.242-0.813,0.363
		C636.161,172.872,636.161,213.422,636.161,254.508z"/>
	<path style="fill:#404E5E;" d="M568.963,171.373c-1.44,31.084-16.162,58.603-48.23,75.876c-11.987,6.456-24.738,9.189-38.183,9.976
		c-15.405,0.902-30.033-1.644-44.09-8.02c-22.609-10.256-37.984-27.293-45.958-50.521c-10.679-31.107-6.292-60.492,13.617-86.745
		c12.411-16.366,29.239-26.958,49.379-31.729c25.58-6.06,49.966-2.706,72.385,11.065c16.651,10.228,28.305,24.996,35.055,43.432
		C566.986,145.765,568.805,156.072,568.963,171.373z M477.943,105.743c-3.986-0.062-8.441,0.191-12.852,1.283
		c-17.244,4.267-30.385,13.816-38.502,29.814c-6.34,12.496-8.688,25.671-6.707,39.623c1.925,13.559,6.972,25.681,16.699,35.421
		c11.697,11.711,25.843,17.678,42.63,17.269c20.128-0.49,35.854-8.842,46.939-25.635c10.152-15.38,12.595-32.251,8.916-50.112
		C529.237,125.104,505.615,105.484,477.943,105.743z"/>
	<path style="fill:#414F5E;" d="M1132.9,168.134c-1.714,32.877-14.861,60.028-44.447,77.707
		c-12.036,7.192-25.285,10.537-39.347,11.382c-18.322,1.101-35.387-2.585-51.059-12.047c-21.315-12.87-34.474-31.752-40.137-55.917
		c-5.169-22.056-2.713-43.299,7.419-63.521c12.771-25.487,33.588-40.866,61.269-46.53c22.675-4.64,44.415-1.119,64.287,11.015
		c20.77,12.682,33.444,31.364,39.124,54.95C1131.775,152.5,1132.338,159.942,1132.9,168.134z M976.114,167.359
		c0,2.664-0.24,5.356,0.058,7.986c0.41,3.62,1.053,7.235,1.898,10.781c7.924,33.232,37.387,54.374,68.328,52.927
		c25.07-1.173,44.143-12.467,56.348-34.477c8.402-15.151,10.972-31.51,8.473-48.711c-2.676-18.422-10.849-33.813-25.419-45.383
		c-15.195-12.068-32.598-16.364-51.94-13.866c-14.469,1.869-26.714,7.919-36.921,17.99
		C982.299,129.049,976.226,147.105,976.114,167.359z"/>
	<path style="fill:#414F5E;" d="M1569.136,161.952c-0.007,4.03-0.015,8.06-0.022,12.09c-3.002,30.901-16.702,55.356-43.633,71.601
		c-12.167,7.339-25.508,10.834-39.762,11.592c-14.039,0.747-27.597-0.921-40.413-6.598c-27.624-12.236-44.585-33.48-51.106-62.842
		c-4.497-20.247-2.339-40.026,6.323-58.935c11.606-25.336,31.177-41.532,57.948-48.57c21.847-5.743,43.335-3.642,63.454,6.826
		c24.304,12.645,39.128,32.835,45.128,59.549C1568.187,151.709,1568.952,156.787,1569.136,161.952z M1412.632,169.898
		c0.136,20.336,8.042,39.878,26.292,54.556c16.904,13.596,36.414,17.832,57.253,13.175c20.184-4.511,35.321-16.507,44.604-35.293
		c9.106-18.425,10.661-37.65,4.733-57.208c-5.304-17.5-15.599-31.396-31.852-40.523c-13.719-7.705-28.278-10.111-43.777-7.878
		c-13.239,1.907-24.851,7.195-34.531,16.397C1419.923,127.79,1412.808,146.036,1412.632,169.898z"/>
	<path style="fill:#435060;" d="M824.148,160.686c31.126,0,62.064,0,93.365,0c0,6.057,0,11.787,0,18.026
		c-30.956,0-62.007,0-93.469,0c0,25.409,0,50.323,0,75.311c-3.578,1.25-6.907,0.535-10.16,0.666
		c-3.124,0.125-6.257,0.027-9.623,0.027c0-58.192,0-115.945,0-174.065c41.324,0,82.693,0,124.425,0
		c0.546,5.86,0.219,11.761,0.192,18.117c-34.978,0-69.705,0-104.729,0C824.148,119.594,824.148,139.968,824.148,160.686z"/>
	<path style="fill:#445060;" d="M1193.661,236.04c32.903,0,65.028,0,97.74,0c0.401,6.118,0.111,12.003,0.207,17.769
		c-3.925,1.131-107.756,1.512-117.32,0.517c0-57.846,0-115.722,0-173.616c1.77-0.742,3.447-0.392,5.073-0.41
		c4.632-0.052,9.265-0.018,14.299-0.018C1193.661,132.281,1193.661,183.86,1193.661,236.04z"/>
	<path style="fill:#435060;" d="M1329.46,80.5c6.552,0,12.803,0,19.286,0c0,58.079,0,115.942,0,173.991c-6.512,0-12.762,0-19.286,0
		C1329.46,196.526,1329.46,138.786,1329.46,80.5z"/>
</g>
</svg>
