<?xml version="1.0" encoding="iso-8859-1"?>
<!-- Generator: Adobe Illustrator 27.0.0, SVG Export Plug-In . SVG Version: 6.00 Build 0)  -->
<svg version="1.1" id="Layer_1" xmlns="http://www.w3.org/2000/svg" xmlns:xlink="http://www.w3.org/1999/xlink" x="0px" y="0px"
	 viewBox="0 0 1445 299" style="enable-background:new 0 0 1445 299;" xml:space="preserve">
<g>
	<path style="fill:#28255B;" d="M961.846,23.955c-0.069-1.476-0.198-2.951-0.198-4.427c-0.005-9.179,4.199-15.164,12.831-18.3
		C975.366,0.906,976.494,1.099,977,0c2.333,0,4.667,0,7,0c5.648,1.875,10.076,5.196,13.345,10.29
		c2.835,4.416,2.787,9.03,2.005,13.844c-0.226,1.392-1.325,2.715-0.254,4.398c1.875-0.677,1.62-2.269,1.776-3.603
		c1.739-14.831,17.883-22.406,30.339-14.237c4.316,2.831,6.589,7.008,7.418,11.902c0.635,3.749,0.862,7.597-0.253,11.359
		c-1.262,1.705-2.563,3.383-3.773,5.124c-0.75,1.08-0.809,2.124,0.984,2.956c1.448-2.69,2.895-5.376,4.341-8.061
		c4.506-3.961,9.436-6.568,15.756-6.228c14.957,0.805,23.402,16.632,15.582,29.478c-0.774,1.271-1.627,2.493-2.443,3.739
		c-0.604-0.017-0.901,0.304-0.968,0.88c-5,2.067-5,2.067-4.25,5.211c2.268-0.972,3.627-2.734,4.675-4.812
		c0.78-0.135,1.517-0.342,1.926-1.117c3.621-1.128,7.177-2.408,11.086-2.367c7.604,0.081,12.912,3.809,16.388,10.254
		c3.433,6.365,3.077,12.714-0.826,18.855c-1.813,2.853-4.409,4.927-6.847,7.166c-2.955,1.185-6.414,0.991-9.085,3.053
		c0.848,2.091,2.069,2.153,3.619,1.236c1.817-1.074,3.662-2.101,5.495-3.148c5.965-0.288,11.636,0.517,16.363,4.592
		c6.037,5.204,8.433,13.554,6.01,20.804c-2.729,8.167-8.673,12.271-16.975,13.309c-2.283,0.285-4.591,0.209-6.657-0.222
		c-0.767,0.717-1.016,1.258-0.562,1.882c0.532,0.784,1.234,0.437,1.829,0.327c9.477-1.749,18.453,2.926,21.726,11.756
		c2.685,7.243,1.608,14.139-3.5,20.077c-5.052,5.873-11.646,7.289-19.017,5.904c-1.303-0.245-2.571-0.676-3.854-1.022
		c-2.737-1.619-2.737-1.619-4.19-0.001c1.082,0.356,2.12,0.698,3.158,1.039c2.599,1.11,5.091,2.398,7.375,4.091
		c7.217,5.35,9.707,13.444,6.014,22.577c-3.29,8.137-11.345,12.384-20.19,10.954c-2.448-0.396-4.86-1.014-7.289-1.53
		c-0.65-0.673-1.311-1.065-2.147-0.088c0.378,0.358,0.69,0.653,1.002,0.949c2.054,4.136,4.216,8.161,4.132,13.06
		c-0.17,9.894-7.821,17.858-17.666,18.64c-6.671,0.53-11.854-2.102-16.602-6.268c-0.466-0.84-0.932-1.681-1.397-2.521
		c-1.223-2.048-0.74-5.477-4.779-5.869c0.241,3.196,2.219,4.833,3.946,6.617c0.159,0.704,0.148,1.501,1.004,1.82
		c0.301,3.611,1.337,7.104,0.401,10.869c-1.959,7.877-6.732,12.926-14.46,14.892c-8.086,2.058-15.966-1.126-20.607-7.833
		c-1.117-1.614-2.151-3.285-3.224-4.929c-0.081-2.742,1.245-5.751-1.844-8.562c-0.448,3.367,1.091,5.883,1.279,8.559
		c-0.794,4.442-2.041,8.719-4.663,12.474c-4.82,6.904-12.586,9.342-21.159,6.659c-7.695-2.409-13.062-9.562-13.202-17.411
		c-0.048-2.697,0.299-5.299,1.118-7.843c0.252-0.784,0.784-1.506-0.419-2.276c-1.956,0.584-1.643,2.464-1.843,3.945
		c-1.958,14.562-16.85,21.938-29.44,14.55c-6.752-3.962-10.075-11.905-8.413-20.252c0.323-1.623,0.861-3.203,1.3-4.803
		c0.755-1.676,2.084-2.917,3.191-4.332c0.677-0.866,1.144-2.133-1.038-2.864c-1.945,1.874-2.154,4.859-3.576,7.142
		c-2.765,2.359-5.409,4.845-8.833,6.331c-6.975,3.026-13.343,1.67-19.059-2.822c-5.809-4.565-8.185-10.699-6.758-18.05
		c0.694-3.573,1.672-7.095,4.065-10.008c0.396-0.483,0.862-1.051,0.084-1.487c-0.392-0.22-0.803,0.227-1.013,0.658
		c-3.273,1.254-6.587,2.252-10.154,2.249c-8.374-0.005-16.106-5.639-18.423-13.502c-2.441-8.289,0.964-18.161,8.146-22.267
		c2.946-1.684,6.451-2.39,9.657-3.525c-0.114-1.514-0.863-1.972-2.032-1.555c-1.245,0.443-2.482,0.958-3.636,1.597
		c-8.195,4.534-21.677-1.9-25.281-10.871c-3.65-9.085,0.94-20.471,10.19-24.754c1.794-0.831,3.923-0.856,5.571-2.41
		c-1.49-1.62-3.682-1.788-5.491-2.633c-11.789-5.511-13.477-17.631-8.814-26.969c2.543-5.094,7.082-7.818,12.536-8.965
		c2.871-0.604,5.809-0.889,9.035-1.365c-2.188-2.313-4.384-4.315-6.205-6.613c-9.105-11.49-1.088-27.395,9.878-29.592
		c3.321-0.665,6.604-0.654,9.891,0.089c2.069,0.468,4.125,0.993,6.685,1.613c-0.169-2.387-1.629-3.841-2.38-5.503
		c-4.355-9.637-1.109-20.257,8.034-25.424c5.984-3.382,12.133-3.16,18.085,0.06c2.452,1.327,4.602,3.212,6.889,4.844
		c0.239,0.427,0.478,0.854,0.717,1.28c0.794,2.368,1.348,4.866,3.072,6.558c1.188-0.133,1.449-0.721,1.808-1.597
		c-1.548-1.64-2.202-4.105-4.273-5.56c-0.2-0.443-0.4-0.887-0.599-1.33c-0.243-1.643-0.595-3.278-0.712-4.93
		c-0.772-10.96,6.512-20.489,16.353-21.554c9.871-1.068,20.791,5.163,21.988,16.914c-0.058,1.592-0.508,3.217,0.319,4.666
		c0.84,0.557,1.57,0.597,2.381-0.135C963.138,26.895,961.982,25.528,961.846,23.955z M979.998,207.106
		c38.767-0.158,71.923-30.525,71.829-72.101c-0.089-39.47-30.433-71.539-71.713-71.568c-42.002-0.03-72.012,33.122-71.781,71.967
		C908.581,177.044,941.901,207.083,979.998,207.106z M1090.116,193.553c0.045-5.865-4.509-10.579-10.223-10.58
		c-5.514-0.001-10.621,4.984-10.682,10.426c-0.06,5.383,5.036,10.519,10.519,10.599
		C1085.462,204.083,1090.07,199.448,1090.116,193.553z M980.404,30.115c5.634,0.061,10.572-4.688,10.669-10.259
		c0.097-5.557-4.709-10.618-10.254-10.798c-5.47-0.178-10.398,4.653-10.612,10.403C969.999,25.051,974.788,30.055,980.404,30.115z
		 M866.446,104.203c-5.702-0.04-10.538,4.691-10.559,10.331c-0.021,5.537,4.851,10.503,10.378,10.58
		c5.624,0.079,10.485-4.711,10.528-10.372C876.837,109.009,872.158,104.244,866.446,104.203z M979.452,261.115
		c5.89,0.022,10.528-4.504,10.541-10.285c0.012-5.615-4.849-10.569-10.411-10.606c-5.445-0.037-10.548,5.022-10.578,10.485
		C968.974,256.398,973.689,261.094,979.452,261.115z M895.733,46.139c-0.082,5.494,4.774,10.626,10.248,10.829
		c5.324,0.197,10.616-4.855,10.807-10.318c0.194-5.547-4.632-10.522-10.329-10.649C900.682,35.873,895.818,40.471,895.733,46.139z
		 M915.987,223.376c-0.068-5.504-5.079-10.471-10.583-10.488c-5.642-0.018-10.376,4.749-10.402,10.474
		c-0.026,5.777,4.649,10.461,10.416,10.436C911.072,233.772,916.055,228.86,915.987,223.376z M950.319,243.59
		c-0.018-5.796-4.779-10.642-10.352-10.536c-5.647,0.107-10.356,4.976-10.289,10.639c0.069,5.762,4.721,10.418,10.411,10.42
		C945.858,254.115,950.337,249.507,950.319,243.59z M951.418,26.161c-0.116-5.77-4.865-10.299-10.646-10.155
		c-5.875,0.147-10.033,4.674-9.887,10.766c0.14,5.863,4.815,10.412,10.508,10.227C946.991,36.817,951.534,31.906,951.418,26.161z
		 M1020.225,37.114c5.666-0.059,10.612-4.97,10.499-10.425c-0.111-5.359-5.354-10.461-10.701-10.414
		c-5.663,0.05-10.167,4.775-10.139,10.635C1009.914,32.964,1014.183,37.177,1020.225,37.114z M1080.215,88.315
		c5.634,0.075,10.58-4.594,10.779-10.175c0.2-5.623-4.468-10.349-10.332-10.46c-5.993-0.114-10.57,4.197-10.659,10.04
		C1069.914,83.494,1074.488,88.239,1080.215,88.315z M1104.282,115.927c0.074-5.621-4.623-10.696-10.1-10.913
		c-5.462-0.217-10.401,4.677-10.504,10.409c-0.107,5.949,4.23,10.575,10.021,10.689
		C1099.46,126.225,1104.207,121.657,1104.282,115.927z M890.097,192.624c0.061-5.677-4.707-10.537-10.344-10.543
		c-5.455-0.006-10.717,5.093-10.731,10.399c-0.014,5.316,5.143,10.438,10.607,10.535
		C885.237,203.115,890.035,198.351,890.097,192.624z M880.114,66.679c-5.93,0.068-10.27,4.535-10.187,10.483
		c0.082,5.858,4.677,10.253,10.581,10.12c5.674-0.128,10.611-5.104,10.436-10.518C890.763,71.185,885.854,66.613,880.114,66.679z
		 M1053.664,213.885c-5.811,0.088-10.739,4.923-10.288,10.512c0.504,6.244,5.109,10.137,10.799,10.286
		c5.514,0.145,10.255-5.199,10.145-10.808C1064.206,217.977,1059.743,213.794,1053.664,213.885z M1065.067,47.814
		c0.373-5.907-3.842-10.66-9.529-11.166c-6.537-0.581-11.188,5.396-11.337,10.059c-0.172,5.407,4.193,10.157,9.734,10.545
		C1059.951,57.672,1064.699,53.647,1065.067,47.814z M865.976,165.09c5.912,0.119,10.512-4.381,10.535-10.306
		c0.023-5.802-4.675-10.588-10.381-10.576c-5.464,0.012-10.079,4.608-10.243,10.201C855.71,160.401,860.026,164.97,865.976,165.09z
		 M1093.55,166.115c5.99,0.078,10.523-4.272,10.565-10.137c0.043-5.992-4.276-10.354-10.298-10.4
		c-5.734-0.044-10.18,4.205-10.346,9.888C1083.295,161.449,1087.639,166.038,1093.55,166.115z M1029.311,243.711
		c-0.101-5.924-4.677-10.214-10.676-10.01c-5.646,0.192-9.971,4.692-9.937,10.34c0.035,5.85,4.606,10.312,10.526,10.273
		C1025.149,254.277,1029.415,249.793,1029.311,243.711z M895.291,95.881c-4.8-0.071-8.247,3.236-8.283,7.947
		c-0.035,4.567,3.618,8.198,8.221,8.171c4.581-0.027,7.704-3.156,7.843-7.857C903.223,99.036,900.321,95.956,895.291,95.881z
		 M963.921,232.119c5.18,0.014,8.182-2.885,8.071-7.873c-0.111-5.038-3.031-7.641-8.285-7.963c-4.435-0.272-7.707,3.317-7.766,7.891
		C955.877,229.229,958.766,232.105,963.921,232.119z M911.239,68.854c-5.226-0.068-8.198,2.694-8.241,7.659
		c-0.041,4.751,3.224,8.142,7.969,8.277c4.285,0.122,7.901-3.356,8.03-7.722C919.144,72.09,916.147,68.917,911.239,68.854z
		 M1057.114,194.008c0.072-4.75-3.305-8.249-8.032-8.325c-4.386-0.07-7.745,3.306-7.882,7.921c-0.144,4.838,3.069,8.138,8.015,8.233
		C1053.746,201.924,1057.044,198.656,1057.114,194.008z M956.884,45.631c-0.088,5.145,2.799,8.285,7.693,8.369
		c4.748,0.081,8.309-3.336,8.323-7.986c0.013-4.713-3.443-8.136-8.204-8.125C959.955,37.898,956.966,40.862,956.884,45.631z
		 M943.297,56.769c0.072-4.299-3.87-8.483-8.052-8.548c-4.041-0.063-8.251,4.22-8.245,8.388c0.005,4.062,3.78,8.007,7.828,8.183
		C939.072,64.976,943.226,61.041,943.297,56.769z M1017.881,57.056c0.008,5.048,2.953,7.968,8.009,7.945
		c4.396-0.021,7.876-3.424,7.973-7.795c0.102-4.621-3.357-8.128-8.096-8.205C1020.885,48.92,1017.872,51.998,1017.881,57.056z
		 M996.291,37.89c-4.033-0.049-8.147,3.78-8.284,7.711c-0.165,4.73,3.154,8.36,7.781,8.511c4.949,0.162,8.394-2.995,8.396-7.693
		C1004.186,41.84,1000.579,37.942,996.291,37.89z M1078.828,135.847c0.034-4.63-3.405-8.082-8.143-8.173
		c-4.818-0.093-8.058,3.174-7.989,8.055c0.068,4.793,3.397,8.091,8.145,8.069C1074.922,143.779,1078.799,139.92,1078.828,135.847z
		 M886.884,165.592c-0.112,4.763,3.303,8.441,7.805,8.404c4.386-0.036,8.194-3.524,8.295-7.598c0.11-4.439-3.625-8.611-7.794-8.709
		C890.433,157.577,886.995,160.849,886.884,165.592z M1024.864,221.986c4.326-0.406,8.152-2.494,8.172-8.125
		c0.016-4.663-2.996-7.78-7.678-7.941c-4.916-0.169-8.363,2.939-8.453,7.716C1016.796,219.357,1020.63,221.462,1024.864,221.986z
		 M1057.987,76.934c-0.101-3.837-4.321-7.875-8.239-7.883c-4.303-0.008-8.141,3.975-8.068,8.374
		c0.077,4.644,3.672,8.057,8.318,7.894C1054.599,85.159,1058.106,81.477,1057.987,76.934z M1073.282,104.657
		c-0.034-5.046-3.022-8.001-8.063-7.907c-5.685,0.106-7.921,3.482-7.957,8.094c-0.034,4.423,3.645,7.93,7.882,7.917
		C1069.913,112.747,1073.313,109.36,1073.282,104.657z M918.595,193.484c0.106-4.601-3.509-8.479-7.9-8.478
		c-4.303,0.001-8.553,3.96-8.618,8.027c-0.065,4.081,4.159,8.244,8.373,8.252C914.615,201.292,918.501,197.57,918.595,193.484z
		 M934.49,205.213c-4.607-0.067-8.039,3.452-8.022,8.227c0.016,4.525,3.66,8.235,8.145,8.293c4.12,0.053,7.647-3.671,7.71-8.14
		C942.393,208.639,939.255,205.282,934.49,205.213z M897.325,134.786c0.009-5.143-2.9-7.981-8.093-7.898
		c-4.942,0.08-7.546,2.794-7.559,7.879c-0.012,4.774,3.481,8.314,8.073,8.182C894.213,142.821,897.316,139.479,897.325,134.786z
		 M1065.248,174.325c4.627-0.077,7.747-3.203,7.794-7.811c0.048-4.702-3.46-8-8.32-7.822c-4.756,0.174-7.74,3.233-7.718,7.912
		C1057.027,171.687,1059.938,174.413,1065.248,174.325z M995.308,232.321c4.961,0.072,7.784-2.58,7.965-7.481
		c0.183-4.961-2.96-8.333-7.807-8.374c-4.736-0.04-8.078,3.364-8.049,8.201C987.445,229.426,990.357,232.249,995.308,232.321z
		 M872.459,95.586c1.847,1.829,3.313,2.668,4.852,3.288c0.814-0.487,1.57-0.84,1.465-2.158
		C877.276,95.363,875.443,94.842,872.459,95.586z M1062.134,203.9c-0.343,3.517,1.95,3.912,3.673,5.188
		C1066.724,205.809,1064.646,205.075,1062.134,203.9z M893.092,207.99c1.511-1.013,4.202-0.939,3.85-4.589
		C894.897,204.646,893.135,205.364,893.092,207.99z"/>
	<path style="fill:#252259;" d="M0.927,123.937C3.44,94.52,15.087,70.071,40.305,53.488c17.481-11.495,36.934-15.134,57.664-12.796
		c9.123,1.029,18.045,2.733,26.669,5.879c23.962,8.74,38.656,26.051,46.375,49.938c5.263,16.287,5.793,33.006,4.968,49.859
		c-0.915,18.704-6.689,35.851-17.413,51.193c-10.731,15.354-25.387,25.198-43.627,29.432c-17.576,4.08-35.239,4.505-52.876,0.188
		c-22.526-5.515-38.709-19.095-49.66-39.244C5.634,175.478,2.25,162.035,1.012,147.983C0.921,146.948,1.58,145.565,0,145
		c0-1,0-2,0-3c0.681-0.271,0.955-0.801,0.954-1.505C0.945,134.976,0.936,129.456,0.927,123.937z M131.315,134.774
		c0.156-12.137-1.111-23.395-5.09-34.399c-8.883-24.572-36.014-29.312-53.607-21.762c-11.824,5.074-18.751,14.512-22.695,26.379
		c-7.015,21.105-6.433,42.281,0.348,63.246c7.411,22.915,33.4,33.585,55.203,23.068c11.044-5.327,17.485-14.5,21.537-25.664
		C130.702,155.473,131.558,144.899,131.315,134.774z"/>
	<path style="fill:#252259;" d="M1445,145c-1.878,3.406-1.329,7.267-1.947,10.899c-3.405,20.005-11.109,37.835-25.765,52.255
		c-10.106,9.944-22.246,16.203-36.012,19.21c-19.168,4.187-38.228,4.339-57.061-2.079c-23.577-8.034-39.451-23.907-48.223-47.053
		c-4.691-12.377-7.031-25.144-7.324-38.449c-0.284-12.885,0.61-25.492,4.171-37.91c9.643-33.624,36.567-56.601,71.366-60.998
		c17.535-2.216,34.59-0.345,50.845,6.427c23.567,9.819,37.755,28.076,44.797,52.199c2.377,8.142,3.85,16.493,4.18,25.009
		c0.035,0.905-0.367,2.062,0.973,2.49C1445,133,1445,139,1445,145z M1399.306,135.086c0.421-15.862-2.072-26.022-5.097-34.638
		c-8.787-25.026-36.856-29.361-53.923-21.726c-11.581,5.181-18.385,14.479-22.32,26.073c-7.377,21.733-6.482,43.452,0.893,64.997
		c2.945,8.603,8.058,15.704,16.252,20.02c18.067,9.516,45.421,8.066,57.787-19.146
		C1398.156,159.094,1399.806,146.82,1399.306,135.086z"/>
	<path style="fill:#867E9D;" d="M0.927,123.937c0.009,5.519,0.018,11.039,0.027,16.558C0.955,141.199,0.681,141.729,0,142
		c0-6,0-12,0-18C0.318,124.111,0.627,124.09,0.927,123.937z"/>
	<path style="fill:#A59EB6;" d="M390,299c-0.008-0.28-0.035-0.559-0.08-0.836c5.716-0.011,11.432-0.022,17.148-0.033
		c-0.078,0.285-0.1,0.575-0.068,0.869C401.333,299,395.667,299,390,299z"/>
	<path style="fill:#252259;" d="M407.068,298.131c-5.716,0.011-11.432,0.022-17.148,0.033c-22.587-1.238-43.223-8.413-62.22-20.521
		c-4.898-3.122-5.208-5.209-1.454-9.524c6.557-7.537,12.796-15.328,18.846-23.274c1.208-1.586,2.335-3.276,4.539-3.699
		c1.986,0.476,3.5,1.758,5.057,3.022c21.06,17.099,44.743,19.729,70.096,12.439c4.285-1.232,8.385-3.191,11.741-6.36
		c7.734-7.302,5.619-19.236-4.335-23.213c-7.065-2.822-14.567-3.279-22.086-2.648c-11.923,1-23.813,2.52-35.752,3.167
		c-8.97,0.487-17.856-0.77-26.543-3.486c-18.987-5.934-25.69-28.531-13.579-44.652c4.483-5.968,10.361-10.259,17.302-14.132
		c-2.378-1.978-4.521-3.719-6.621-5.512c-17.753-15.156-25.604-34.644-23.558-57.62c2.72-30.543,24.461-51.202,49.504-59.011
		c7.009-2.185,14.233-3.236,21.615-3.158c14.99,0.159,29.981,0.304,44.971,0.325c14.492,0.02,28.983-0.124,43.475-0.189
		c1.332-0.006,2.684-0.093,3.992,0.097c3.429,0.499,5.026,2.16,5.06,5.654c0.09,9.153,0.03,18.307,0.01,27.461
		c-0.003,1.191-0.229,2.336-1.988,3.506c-6.728,0-14.17,0-22.089,0c1.655,4.278,3.325,7.987,4.54,11.841
		c6.102,19.347,4.693,38.344-5.061,55.991c-12.93,23.396-33.561,34.106-60.202,33.498c-5.495-0.126-10.881-1.398-16.413-1.21
		c-6.12,0.208-11.327,2.468-15.826,6.424c-3.782,3.324-2.659,8.097,2.154,9.61c5.957,1.872,11.906,0.947,17.759-0.399
		c12.222-2.812,24.541-4.398,37.096-3.583c10.181,0.661,20.105,2.516,29.392,6.933c11.128,5.292,18.578,13.715,21.742,25.781
		c2.434,9.283,3.385,18.628,1.509,28.12c-2.635,13.329-10.449,23.097-21.248,30.827c-12.574,9-26.712,13.951-41.87,16.221
		C415.369,297.506,411.205,297.729,407.068,298.131z M429.324,109.106c0.376-8.299-1.727-16.162-7.386-22.821
		c-8.719-10.259-20.125-12.252-32.581-9.828c-8.342,1.624-14.875,6.285-19.285,13.727c-6.985,11.789-5.741,31.234,2.747,41.967
		c0.515,0.651,1.09,1.255,1.651,1.867c5.71,6.235,13.018,9.045,21.25,9.501c11.705,0.648,21.622-2.89,28.225-13.191
		C428.013,123.985,429.442,116.886,429.324,109.106z"/>
	<path style="fill:#252259;" d="M599.18,107.312c0.509-9.724-2.657-17.492-10.098-23.333c-6.1-4.789-13.342-6.412-20.927-7.078
		c-17.12-1.502-34.274-0.847-51.416-1.024c-2.136-0.022-4.364,0.383-6.685-1.469c-1.964-5.104,0.121-10.75-0.193-16.304
		c-0.307-5.451-0.067-10.934-0.067-15.647c1.101-1.486,1.91-1.623,2.756-1.645c18.135-0.464,36.274-1.339,54.412-0.629
		c11.466,0.449,22.776,2.138,33.801,5.658c19.511,6.23,31.722,19.294,37.177,38.856c3.919,14.052,4.863,28.481,5.035,42.97
		c0.184,15.488,0.009,30.982,0.291,46.468c0.154,8.466,0.828,16.921,3.305,25.132c1.611,5.342,3.802,10.274,8.024,14.104
		c1.108,1.006,2.157,2.1,2.338,4.438c-4.666,7.426-11.763,11.609-20.942,12.345c-15.461,1.239-24.887-7.121-31.402-20.185
		c-7.878,7.898-16.796,13.793-27.359,17.074c-13.702,4.256-27.517,3.812-41.436,1.328c-9.486-1.693-18.267-4.998-25.848-11.028
		c-11.403-9.07-17.494-21.053-19.069-35.453c-1.503-13.741,0.706-26.866,7.017-39.13c7.282-14.15,19.246-23.061,33.794-28.752
		c14.708-5.753,30.015-8.599,45.789-8.61c5.295-0.004,10.627,0.333,15.882,1.291C595.119,107.009,596.925,107.079,599.18,107.312z
		 M600.173,142.492c-2.991-2.377-3.007-2.301-4.817-2.642c-8.096-1.528-16.27-1.317-24.376-0.571
		c-6.757,0.622-13.45,1.937-19.729,4.862c-13.051,6.077-19.054,17.85-17.111,32.27c1.214,9.012,6.332,15.175,15.36,17.642
		c8.693,2.375,17.449,2.114,26.117,0.097c13.192-3.069,20.844-11.583,23.485-24.768C600.888,160.47,599.525,151.476,600.173,142.492
		z"/>
	<path style="fill:#252259;" d="M674.576,44.408c0.736-0.273,1.372-0.746,1.958-0.691c5.837,0.551,11.599-0.741,17.42-0.623
		c10.065,0.203,15.342,4.62,17.122,14.515c0.138,0.767-0.06,1.674,1.058,2.43c1.79-1.484,3.641-3.059,5.535-4.582
		c16.076-12.936,34.478-17.218,54.724-14.776c8.44,1.018,16.798,2.363,24.582,5.958c19.044,8.796,30.104,24.004,34.908,44.071
		c1.987,8.299,2.278,16.801,2.308,25.293c0.053,15.327-0.045,30.655,0.03,45.982c0.091,18.477,0.297,36.953,0.449,55.43
		c0.011,1.333,0.084,2.674-0.036,3.996c-0.39,4.292-1.736,5.541-6.009,5.551c-10.652,0.025-21.304,0.038-31.956,0.005
		c-4.297-0.013-5.609-1.282-5.642-5.73c-0.057-7.661,0.089-15.324,0.083-22.986c-0.022-27.655-0.055-55.31-0.123-82.965
		c-0.016-6.384-1.335-12.525-3.802-18.422c-6.276-15.007-19.277-22.726-35.431-20.723c-9.022,1.118-17.342,4.335-24.991,9.309
		c-7.774,5.056-10.88,12.601-10.424,21.354c0.598,11.483,0.56,22.961,0.613,34.437c0.12,25.988-0.028,51.977-0.067,77.966
		c0,0.333,0.005,0.666-0.001,1c-0.09,5.503-1.378,6.783-6.773,6.765c-9.496-0.033-18.991-0.059-28.487-0.087
		c-1-0.003-2.001,0.033-2.999-0.007c-3.871-0.153-4.636-0.896-4.823-4.703c-0.049-0.997-0.008-1.999-0.008-2.998
		c0-55.979-0.004-111.957,0.015-167.936C673.811,49.101,673.44,46.905,674.576,44.408z"/>
	<path style="fill:#252259;" d="M1100.837,44.011c15.863,0,30.979,0,46.763,0c14.589,36.314,28.528,72.95,43.512,110.358
		c2.64-6.213,4.828-11.337,6.995-16.47c12.585-29.804,25.225-59.584,37.666-89.448c1.446-3.472,3.232-4.815,7.012-4.741
		c11.491,0.226,22.989,0.063,34.483,0.109c1.611,0.007,3.327-0.495,4.836,0.548c0.681,1.813-0.31,3.226-0.987,4.721
		c-26.096,57.574-52.186,115.152-78.28,172.727c-0.617,1.36-1.225,2.73-1.941,4.039c-1.285,2.351-3.314,3.749-5.971,3.984
		c-2.65,0.234-5.321,0.34-7.982,0.332c-3.352-0.01-4.897-2.316-6.104-5.049c-3.55-8.038-7.163-16.048-10.728-24.08
		c-22-49.579-43.998-99.159-65.976-148.748C1103.001,49.733,1102.058,47.09,1100.837,44.011z"/>
	<path style="fill:#252259;" d="M196.57,44.139c13.367,0,26.939,0,40.774,0c1.736,4.937-0.089,9.822,0.896,14.572
		c1.448,0.101,2.185-1.104,3.068-1.95c11.774-11.271,26.105-16.145,42.094-16.603c8.485-0.243,16.982-0.07,25.474-0.034
		c4.665,0.02,5.073,0.454,5.12,5.177c0.088,8.824,0.144,17.648,0.205,26.473c0.009,1.327,0.069,2.669-0.563,3.863
		c-1.324,1.419-3.034,1.343-4.681,1.23c-7.97-0.549-15.956-0.218-23.939-0.539c-17.743-0.714-32.327,5.284-41.152,21.701
		c-4.688,8.722-5.823,18.301-5.831,27.997c-0.024,30.475,0.108,60.951,0.166,91.426c0.018,9.329-0.28,9.538-9.51,9.453
		c-9.319-0.086-18.639,0.005-27.958-0.032c-4.642-0.018-5.58-0.897-5.601-5.504c-0.054-11.991-0.018-23.983-0.018-35.974
		c0-44.968-0.006-89.936,0.019-134.904C195.136,48.394,194.558,46.12,196.57,44.139z"/>
	<path style="fill:#DAD7E0;" d="M1090.035,96.171c-1.833,1.047-3.678,2.074-5.495,3.148c-1.55,0.917-2.771,0.854-3.619-1.236
		c2.672-2.061,6.131-1.868,9.085-3.053C1090.016,95.41,1090.025,95.791,1090.035,96.171z"/>
	<path style="fill:#C3BECE;" d="M1039.927,33.971c-1.446,2.686-2.892,5.371-4.341,8.061c-1.792-0.832-1.734-1.876-0.984-2.956
		c1.21-1.741,2.511-3.419,3.773-5.124C1038.892,33.958,1039.41,33.965,1039.927,33.971z"/>
	<path style="fill:#DAD7E0;" d="M921.172,235.034c1.423-2.283,1.631-5.269,3.576-7.142c2.182,0.732,1.715,1.998,1.038,2.864
		c-1.107,1.416-2.436,2.656-3.191,4.332C922.121,235.07,921.646,235.052,921.172,235.034z"/>
	<path style="fill:#C3BECE;" d="M961.846,23.955c0.136,1.573,1.292,2.94,1.045,4.52c-0.81,0.732-1.541,0.691-2.381,0.135
		c-0.827-1.449-0.377-3.075-0.319-4.666C960.743,23.947,961.294,23.951,961.846,23.955z"/>
	<path style="fill:#DAD7E0;" d="M999.314,250.044c-0.188-2.676-1.727-5.193-1.279-8.559c3.089,2.812,1.763,5.82,1.844,8.562
		l-0.282,0.034L999.314,250.044z"/>
	<path style="fill:#DAD7E0;" d="M1037.598,234.481c0.466,0.84,0.932,1.681,1.397,2.521c-0.409,0.016-0.818,0.031-1.226,0.047
		c-0.856-0.319-0.845-1.117-1.004-1.82C1037.042,234.98,1037.32,234.73,1037.598,234.481z"/>
	<path style="fill:#CFCBD8;" d="M1070.205,61.122c-0.408,0.775-1.146,0.983-1.926,1.117c-0.152-0.122-0.294-0.255-0.425-0.399
		c0.066-0.575,0.364-0.896,0.968-0.88C1069.283,61.013,1069.744,61.068,1070.205,61.122z"/>
	<path style="fill:#DAD7E0;" d="M1036.765,235.229c-1.727-1.784-3.705-3.421-3.946-6.617c4.039,0.392,3.556,3.821,4.779,5.869
		C1037.32,234.73,1037.042,234.98,1036.765,235.229z"/>
	<path style="fill:#C3BECE;" d="M872.459,95.586c2.984-0.744,4.817-0.223,6.316,1.131c0.106,1.318-0.651,1.671-1.465,2.158
		C875.772,98.254,874.305,97.414,872.459,95.586z"/>
	<path style="fill:#CFCBD8;" d="M1068.279,62.239c-1.048,2.078-2.407,3.84-4.675,4.812c-0.75-3.144-0.75-3.144,4.25-5.211
		C1067.985,61.984,1068.127,62.117,1068.279,62.239z"/>
	<path style="fill:#CFCBD8;" d="M1062.134,203.9c2.512,1.176,4.59,1.909,3.673,5.188
		C1064.084,207.811,1061.79,207.416,1062.134,203.9z"/>
	<path style="fill:#83C043;" d="M980.125,104.864c14.746-0.987,30.59,12.229,30.613,30.273
		c0.022,17.099-12.938,30.533-30.963,30.401c-16.778-0.122-30.19-12.443-30.314-30.006
		C949.319,115.472,966.836,103.717,980.125,104.864z"/>
</g>
</svg>
