<?xml version="1.0" encoding="iso-8859-1"?>
<!-- Generator: Adobe Illustrator 27.0.0, SVG Export Plug-In . SVG Version: 6.00 Build 0)  -->
<svg version="1.1" id="Layer_1" xmlns="http://www.w3.org/2000/svg" xmlns:xlink="http://www.w3.org/1999/xlink" x="0px" y="0px"
	 viewBox="0 0 1560 566" style="enable-background:new 0 0 1560 566;" xml:space="preserve">
<g>
	<path style="fill:#020202;" d="M1560,561c-0.988,0.094-1.976,0.268-2.964,0.269c-28.497,0.015-56.994,0.012-85.491,0.012
		c-0.826,0-1.651,0-2.906,0c-14.211-62.259-28.397-124.428-42.591-186.594c-14.127-61.872-28.263-123.742-42.843-185.568
		c0.093,123.938-0.7,247.833,0.633,371.945c-25.456,0-50.384,0-75.575,0c0-185.26,0-370.499,0-556.04c32.708,0,65.413,0,98.399,0
		c25.884,114.11,51.767,228.22,77.651,342.329c0.229-0.011,0.458-0.022,0.687-0.033c0-37.929,0.01-75.858-0.003-113.787
		c-0.012-37.996-0.057-75.992-0.069-113.987c-0.012-38.126-0.003-76.251-0.003-114.576c0.626-0.48,1.652-0.237,2.615-0.238
		c23.331-0.014,46.661-0.014,69.992,0.001c0.822,0.001,1.643,0.175,2.465,0.268C1560,190.333,1560,375.667,1560,561z"/>
	<path style="fill:#030303;" d="M959,566c-3.168-2.103-6.919-1.252-10.367-1.937c-13.815-2.742-26.973-6.983-38.65-15.104
		c-12.344-8.585-21.29-19.855-26.949-33.804c-5.885-14.504-8.495-29.627-8.931-45.19c-0.094-3.331-0.096-6.665-0.097-9.997
		c-0.005-117.981,0.001-235.962-0.011-353.943c-0.001-11.999,0.453-23.959,3.031-35.727c4.301-19.632,12.418-37.162,28.512-50.04
		c7.978-6.385,16.944-11.09,26.726-14.126c8.25-2.56,16.576-4.818,25.288-5.136C958.255,0.971,958.835,0.796,959,0
		c25.333,0,50.667,0,76,0c0.816,1.643,2.358,0.838,3.542,0.935c17.691,1.462,34.202,6.326,48.867,16.656
		c11.762,8.285,20.179,19.206,25.559,32.49c6.058,14.957,8.93,30.566,8.98,46.663c0.095,30.66,0.043,61.32,0.051,91.981
		c0,0.978,0,1.956,0,3.244c-27.632,0-55.012,0-82.502,0c-0.871-1.656-0.392-3.521-0.396-5.302
		c-0.054-27.994,0.072-55.989-0.153-83.982c-0.074-9.172-3.19-17.299-11.191-22.742c-4.801-3.266-10.303-4.697-15.996-4.862
		c-8.49-0.246-16.997-0.214-25.489-0.006c-5.539,0.136-10.871,1.599-15.627,4.521c-7.565,4.648-10.774,11.959-11.698,20.418
		c-0.579,5.293-0.697,10.622-0.695,15.961c0.037,112.81,0.023,225.62,0.045,338.429c0.001,5.485,0.27,10.961,1.558,16.343
		c2.235,9.342,7.798,15.587,17.029,18.416c3.663,1.122,7.393,1.893,11.269,1.871c7.664-0.045,15.33-0.043,22.994,0.019
		c3.189,0.026,6.308-0.402,9.387-1.126c12.877-3.027,19.073-11.602,20.508-23.866c0.619-5.286,0.713-10.621,0.705-15.96
		c-0.057-37.825-0.03-75.651-0.03-113.476c0-1.651,0-3.302,0-5.679c-7.425-0.044-14.669-0.016-21.911-0.021
		c-7.144-0.005-14.288-0.001-21.759-0.001c0-24.487,0-48.716,0-73.312c41.724,0,83.577,0,125.532,0
		c0.651,1.601,0.327,3.273,0.328,4.892c0.019,65.82,0.023,131.639,0.011,197.459c-0.003,15.705-1.537,31.251-6.085,46.328
		c-7.409,24.558-22.719,42.123-46.841,51.547c-10.412,4.068-21.149,6.801-32.389,7.256c-0.909,0.037-2.052-0.286-2.605,0.906
		C1010.333,566,984.667,566,959,566z"/>
	<path style="fill:#020202;" d="M140,0c0.086,0.823,0.248,1.646,0.248,2.469c0.014,23.161,0.014,46.322,0.006,69.483
		c0,0.81-0.102,1.621-0.147,2.304c-1.332,1.091-2.719,0.635-3.999,0.644c-7.331,0.048-14.664,0.085-21.994-0.002
		c-3.54-0.042-6.993,0.523-10.338,1.461c-10.996,3.082-17.029,10.229-18.835,22.506c-0.608,4.13-0.643,8.289-0.643,12.456
		c0.014,114.639,0.012,229.278,0.007,343.918c0,5.671,0.168,11.34,1.691,16.831c2.792,10.072,9.339,16.101,19.685,18.082
		c3.796,0.727,7.577,0.96,11.415,0.938c7.477-0.043,14.954-0.013,22.095-0.013c1.368,0.941,1.036,2.027,1.037,2.966
		c0.018,23.328,0.014,46.655,0,69.983c0,0.658-0.148,1.316-0.226,1.974c-19,0-38,0-57,0c-0.292-1.057-1.185-0.926-1.983-1.028
		c-6.902-0.88-13.759-2.077-20.416-4.086c-19.591-5.912-35.523-16.796-46.178-34.648C7.804,515.15,4.117,503.052,1.958,490.386
		C1.423,487.252,1.89,483.863,0,481C0,348.333,0,215.667,0,83c1.095-0.251,0.941-1.154,1.035-1.947
		C1.836,74.305,3.15,67.654,5.108,61.15c6.373-21.179,18.169-38.169,38.156-48.646c12.591-6.6,26.004-10.481,40.215-11.5
		C84.415,0.937,85.526,1.252,86,0C104,0,122,0,140,0z"/>
	<path style="fill:#020202;" d="M259,566c0-24.8,0-49.599,0-74.923c5.739,0,11.182,0.095,16.621-0.026
		c5.809-0.129,11.595,0.256,17.427-0.772c13.215-2.33,19.048-11.179,20.947-21.59c0.777-4.26,1.028-8.576,1.027-12.927
		c-0.033-114.981-0.035-229.963,0.006-344.944c0.002-5.026-0.24-10.056-1.354-14.894c-2.907-12.62-10.359-20.173-27.057-20.925
		c-8.964-0.404-17.962-0.072-27.617-0.072c0-25.092,0-50.009,0-74.926c17.667,0,35.333,0,53,0c0.762,1.734,2.32,0.856,3.492,0.959
		c19.078,1.679,36.739,7.263,51.994,19.178c13.616,10.635,21.593,25.008,26.387,41.305c4.262,14.488,5.385,29.41,5.391,44.411
		c0.046,118.478,0.022,236.957,0.025,355.435c0,16.536-1.512,32.822-7.045,48.582c-9.85,28.058-29.688,44.888-58.14,52.063
		c-6.102,1.539-12.273,2.943-18.625,3.112c-0.704,0.019-1.293,0.16-1.479,0.954C295.667,566,277.333,566,259,566z"/>
	<path style="fill:#060505;" d="M1172.739,4.942c27.898,0,55.825,0,83.996,0c0,185.295,0,370.507,0,556.012
		c-27.914,0-55.818,0-83.754,0C1172.068,557.713,1171.77,11.372,1172.739,4.942z"/>
	<path style="fill:#030303;" d="M448.948,5.112c1.789-0.671,3.455-0.377,5.073-0.378c43.326-0.019,86.653-0.034,129.979-0.004
		c14.835,0.01,29.515,1.173,43.912,5.213c28.56,8.014,47.07,26.153,56.007,54.373c4.579,14.457,5.87,29.33,5.946,44.319
		c0.177,34.827,0.089,69.655,0.039,104.483c-0.02,13.686-1.379,27.202-5.461,40.365c-6.219,20.056-18.969,34.362-37.797,43.41
		c-1.033,0.496-2.026,1.074-2.994,1.59c0.297,1.476,1.425,1.331,2.344,1.615c22.715,7.021,37.193,21.564,42.091,45.294
		c1.97,9.545,2.508,19.19,2.545,28.784c0.236,61.156,0.12,122.313,0.12,183.47c0,0.979,0,1.958,0,3.285c-28.172,0-56.072,0-84.225,0
		c-1.011-1.399-0.421-3.285-0.422-5.031c-0.037-59.657-0.029-119.314-0.035-178.971c-0.001-4.99-0.022-9.959-1.002-14.912
		c-2.492-12.604-10.003-20.381-22.541-22.802c-3.26-0.629-6.599-1.144-9.907-1.178c-12.987-0.134-25.976-0.055-39.436-0.055
		c0,74.281,0,148.499,0,223.008c-28.325,0-56.18,0-84.237,0C448.948,375.588,448.948,190.384,448.948,5.112z M533.214,263.899
		c13.353,0,26.327,0.066,39.3-0.038c4.159-0.034,8.289-0.714,12.305-1.868c6.417-1.844,12.051-5.005,15.45-10.935
		c2.82-4.92,4.711-10.345,4.729-16.076c0.131-41.316,0.141-82.633,0.187-123.949c0.004-3.665-0.215-7.31-1.242-10.853
		c-2.229-7.687-6.348-13.714-14.099-16.908c-6.001-2.473-12.275-2.847-18.569-2.941c-11.327-0.169-22.658-0.063-33.987-0.026
		c-1.285,0.004-2.651-0.401-4.074,0.521C533.214,141.635,533.214,202.542,533.214,263.899z"/>
	<path style="fill:#060505;" d="M824.38,561.063c-28.037,0-55.84,0-84.006,0c0-185.244,0-370.586,0-556.107
		c27.967,0,55.88,0,84.006,0C824.38,190.4,824.38,375.64,824.38,561.063z"/>
	<path style="fill:#131211;" d="M105.668,243.083c-7.137-0.241-11.937-5.663-11.693-13.206c0.215-6.65,6.153-12.114,12.822-11.797
		c6.498,0.308,12.374,6.517,11.927,12.917C118.15,239.219,111.572,243.727,105.668,243.083z"/>
	<path style="fill:#100F0F;" d="M93.958,258.309c-0.612-5.875,4.265-12.707,12.302-12.741c6.654-0.028,12.313,5.58,12.497,12.293
		c0.182,6.636-5.999,12.973-12.571,12.886C99.454,270.658,94.008,265.119,93.958,258.309z"/>
	<path style="fill:#131211;" d="M133.114,296.957c-6.622,0.05-12.026-5.233-12.115-11.844c-0.091-6.775,4.987-12.146,11.627-12.299
		c6.934-0.159,12.375,5.149,12.362,12.06C144.976,291.536,139.697,296.907,133.114,296.957z"/>
	<path style="fill:#131211;" d="M118.098,284.781c0.007,6.876-4.997,12.099-11.68,12.191c-6.681,0.093-12.453-5.648-12.345-12.278
		c0.107-6.548,5.597-11.917,12.178-11.911C112.957,272.79,118.091,277.989,118.098,284.781z"/>
	<path style="fill:#131211;" d="M132.977,218.882c6.487-0.009,11.983,5.204,11.921,11.576c-0.061,6.325-4.348,11.919-11.882,12.249
		c-6.425,0.282-12.047-5.687-11.948-12.202C121.166,224.096,126.499,218.891,132.977,218.882z"/>
	<path style="fill:#151313;" d="M132.783,269.996c-6.458-0.096-11.933-5.837-11.715-12.284c0.212-6.292,5.663-11.628,11.898-11.646
		c6.428-0.018,11.972,5.578,11.965,12.079C144.925,264.599,139.293,270.093,132.783,269.996z"/>
	<path style="fill:#151313;" d="M159.876,269.996c-6.478-0.054-11.967-5.722-11.808-12.191c0.154-6.276,5.578-11.669,11.805-11.738
		c6.418-0.072,12.003,5.48,12.058,11.986C171.985,264.495,166.378,270.05,159.876,269.996z"/>
	<path style="fill:#151414;" d="M171.824,311.912c-0.107,6.256-5.56,11.762-11.731,11.844c-6.187,0.083-12.306-5.921-11.954-12.148
		c0.457-8.084,6.954-11.996,12.266-11.672C166.731,300.322,171.933,305.551,171.824,311.912z"/>
	<path style="fill:#131211;" d="M224.934,95.357c0.021,6.551-5.122,11.682-11.675,11.647c-6.571-0.035-11.536-5.16-11.448-11.819
		c0.084-6.363,5.062-11.377,11.375-11.458C219.706,83.643,224.913,88.798,224.934,95.357z"/>
	<path style="fill:#131211;" d="M133.211,323.276c-6.46,0.17-11.537-4.661-11.832-11.602c-0.259-6.097,5.312-11.473,11.381-11.606
		c6.314-0.139,12.028,5.29,11.796,11.647C144.291,318.991,138.912,323.246,133.211,323.276z"/>
	<path style="fill:#131211;" d="M213.273,351.25c-6.552-0.038-11.402-5.125-11.278-11.829c0.116-6.255,5.307-11.416,11.408-11.342
		c6.15,0.074,11.71,5.864,11.508,11.982C224.705,346.259,219.476,351.286,213.273,351.25z"/>
	<path style="fill:#151313;" d="M171.291,284.827c0.025,6.557-4.729,11.422-11.205,11.464c-6.459,0.042-11.313-4.726-11.467-11.264
		c-0.152-6.472,5.195-11.976,11.506-11.845C166.444,273.314,171.266,278.344,171.291,284.827z"/>
	<path style="fill:#151313;" d="M106.054,323.006c-6.373-0.062-11.206-5.129-11.057-11.589c0.141-6.066,5.216-11.153,11.153-11.18
		c6.076-0.027,11.453,5.378,11.456,11.515C117.609,317.984,112.391,323.068,106.054,323.006z"/>
	<path style="fill:#131211;" d="M186.97,269.289c-6.421,0.077-11.753-4.84-11.537-11.141c0.25-7.28,5.388-11.392,11.36-11.407
		c6.134-0.016,11.063,4.831,11.209,10.959C198.155,264.131,193.318,269.213,186.97,269.289z"/>
	<path style="fill:#151414;" d="M240.812,106.765c-5.96,0.162-11.568-5.344-11.577-11.367c-0.009-5.883,5.171-11.197,11.047-11.332
		c6.166-0.142,11.522,5.105,11.529,11.294C251.818,101.272,246.674,106.606,240.812,106.765z"/>
	<path style="fill:#151313;" d="M121.995,204.107c0.12-6.064,5.257-11.124,11.172-11.003c5.982,0.122,10.877,5.246,10.837,11.344
		c-0.04,6.151-4.96,11.236-10.933,11.301C126.954,215.816,121.869,210.471,121.995,204.107z"/>
	<path style="fill:#131211;" d="M187.417,300.688c6.121,0.357,10.874,5.59,10.514,11.578c-0.377,6.288-5.809,11.102-12.033,10.666
		c-5.925-0.415-10.498-5.805-10.133-11.942C176.136,304.747,181.141,300.322,187.417,300.688z"/>
	<path style="fill:#131211;" d="M213.412,322.934c-5.965,0.037-11.161-4.995-11.306-10.949c-0.15-6.167,5.074-11.394,11.339-11.346
		c6.272,0.048,10.829,4.723,10.845,11.126C224.304,317.934,219.472,322.896,213.412,322.934z"/>
	<path style="fill:#151313;" d="M122.065,339.364c0.175-6.105,5.184-10.684,11.458-10.475c5.842,0.195,10.523,5.164,10.412,11.052
		c-0.114,6.017-5.394,11.168-11.23,10.957C126.747,350.683,121.891,345.418,122.065,339.364z"/>
	<path style="fill:#151414;" d="M170.936,230.557c0.069,6.033-5.075,11.265-11.023,11.21c-5.755-0.053-10.749-5.046-10.849-10.847
		c-0.106-6.135,4.845-11.139,10.989-11.109C165.949,219.841,170.869,224.698,170.936,230.557z"/>
	<path style="fill:#151313;" d="M186.676,273.993c6.226-0.039,11.087,4.726,11.09,10.87c0.003,5.948-5.211,11.146-11.105,11.072
		c-5.81-0.073-10.583-4.914-10.667-10.818C175.903,278.737,180.421,274.032,186.676,273.993z"/>
	<path style="fill:#151313;" d="M149.064,339.864c-0.069-6.146,4.77-10.994,10.963-10.983c5.973,0.01,10.761,4.643,10.908,10.554
		c0.15,6.022-4.797,11.311-10.725,11.464C154.34,351.05,149.132,345.894,149.064,339.864z"/>
	<path style="fill:#131211;" d="M175.995,339.847c-0.025-6.362,4.585-11.032,10.841-10.984c6.162,0.048,11.064,5.017,10.927,11.076
		c-0.129,5.699-5.178,10.831-10.779,10.955C181.048,351.026,176.019,345.97,175.995,339.847z"/>
	<path style="fill:#131211;" d="M213.658,273.995c6.292,0.12,10.643,4.847,10.426,11.327c-0.198,5.902-5.091,10.676-10.874,10.61
		c-5.753-0.065-11.172-5.658-10.962-11.312C202.476,278.511,207.452,273.877,213.658,273.995z"/>
	<path style="fill:#131211;" d="M251.289,339.907c0.298,5.712-4.56,10.678-10.641,10.944c-5.894,0.258-10.979-5.126-10.928-11.21
		c0.051-6.084,4.662-10.707,10.714-10.742C246.808,328.862,251.336,333.454,251.289,339.907z"/>
	<path style="fill:#131211;" d="M160.154,193.717c5.77-0.314,10.803,4.925,10.641,10.871c-0.17,6.22-5.131,10.76-10.973,10.559
		c-5.887-0.202-10.955-5.106-10.68-10.903C149.434,198.106,154.461,193.227,160.154,193.717z"/>
	<path style="fill:#131211;" d="M277.934,95.333c0.025,5.963-4.748,10.76-10.713,10.766c-5.944,0.006-11.223-4.856-10.885-10.654
		c0.393-6.731,4.942-10.781,10.793-10.791C273.149,84.643,277.909,89.314,277.934,95.333z"/>
	<path style="fill:#100F0F;" d="M186.705,106.1c-5.953-0.022-10.732-4.852-10.687-10.802c0.045-5.961,4.931-10.811,10.842-10.685
		c5.883,0.126,10.422,4.017,10.689,10.866C197.782,101.451,192.751,106.122,186.705,106.1z"/>
	<path style="fill:#131211;" d="M106.227,215.005c-6.16,0.006-10.673-4.567-10.58-10.72c0.093-6.132,4.759-10.678,10.843-10.566
		c5.711,0.105,10.386,4.838,10.443,10.572C116.992,210.26,112.257,214.999,106.227,215.005z"/>
	<path style="fill:#131211;" d="M213.439,355.995c5.945,0.051,10.69,4.953,10.493,10.839c-0.19,5.692-4.909,10.186-10.679,10.171
		c-6.071-0.016-10.358-4.554-10.257-10.858C203.09,360.192,207.46,355.943,213.439,355.995z"/>
	<path style="fill:#100F0F;" d="M240.445,377.003c-5.76-0.027-10.371-4.611-10.433-10.371c-0.064-5.986,4.635-10.678,10.65-10.636
		c5.905,0.042,10.275,4.416,10.34,10.349C251.069,372.49,246.57,377.032,240.445,377.003z"/>
	<path style="fill:#151414;" d="M106.308,350.156c-5.971,0.028-10.296-4.307-10.316-10.341c-0.019-5.865,4.506-10.596,10.18-10.642
		c5.45-0.045,10.655,4.989,10.555,10.492C116.631,345.051,112.373,350.303,106.308,350.156z"/>
	<path style="fill:#151313;" d="M197.006,366.423c0.03,5.853-4.431,10.46-10.182,10.513c-5.58,0.051-10.499-4.768-10.571-10.356
		c-0.071-5.526,4.843-10.487,10.413-10.513C192.439,356.04,196.976,360.584,197.006,366.423z"/>
	<path style="fill:#151313;" d="M240.506,322.007c-5.715-0.038-10.555-4.914-10.396-10.472c0.161-5.614,5.245-10.497,10.717-10.294
		c5.397,0.2,10.047,4.97,10.107,10.368C250.996,317.265,246.203,322.045,240.506,322.007z"/>
	<path style="fill:#151313;" d="M240.489,133.007c-5.571-0.011-10.143-4.478-10.254-10.02c-0.111-5.518,4.942-10.732,10.363-10.693
		c5.476,0.039,10.603,5.293,10.282,10.793C250.535,128.99,245.417,133.615,240.489,133.007z"/>
	<path style="fill:#151414;" d="M176.708,204.47c-0.035-5.726,4.209-10.255,9.747-10.404c5.616-0.152,10.482,4.593,10.532,10.27
		c0.048,5.452-4.494,10.245-9.882,10.43C181.393,214.962,176.744,210.358,176.708,204.47z"/>
	<path style="fill:#151414;" d="M170.007,95.18c0.073,5.602-4.276,10.345-9.703,10.581c-5.526,0.24-10.317-4.618-10.312-10.455
		c0.006-5.691,4.377-10.197,9.933-10.238C165.493,85.026,169.932,89.479,170.007,95.18z"/>
	<path style="fill:#151414;" d="M143.007,95.184c0.073,5.637-4.234,10.334-9.697,10.577c-5.332,0.237-9.965-4.443-10.374-9.948
		c-0.402-5.422,4.269-10.691,9.994-10.743C138.496,85.019,142.934,89.483,143.007,95.184z"/>
	<path style="fill:#151313;" d="M213.308,132.998c-5.391-0.003-10.173-4.714-10.236-10.083c-0.065-5.504,4.455-10.104,10.017-10.197
		c5.963-0.099,10.439,4.351,10.302,10.242C223.257,128.705,218.942,133.001,213.308,132.998z"/>
	<path style="fill:#100F0F;" d="M186.713,133c-5.627-0.021-9.931-4.37-9.995-10.098c-0.063-5.68,4.255-10.122,9.898-10.181
		c5.873-0.062,10.435,4.492,10.314,10.296C196.816,128.552,192.242,133.021,186.713,133z"/>
	<path style="fill:#131211;" d="M176.76,230.873c-0.101-5.611,4.377-10.277,9.89-10.306c5.564-0.029,10.198,4.48,10.282,10.004
		c0.082,5.408-4.61,10.266-10.007,10.361C181.405,241.029,176.861,236.533,176.76,230.873z"/>
	<path style="fill:#100F0F;" d="M223.286,257.85c0.075,5.796-4.144,10.245-9.764,10.299c-5.552,0.053-10.199-4.372-10.379-9.884
		c-0.174-5.32,4.546-10.181,9.971-10.268C218.902,247.904,223.212,252.078,223.286,257.85z"/>
	<path style="fill:#151414;" d="M106.166,166.96c5.589-0.026,9.748,3.999,9.84,9.525c0.095,5.671-4.351,10.58-9.755,10.344
		c-6.064-0.265-9.992-4.839-9.992-10.255C96.259,171.214,100.72,166.985,106.166,166.96z"/>
	<path style="fill:#151414;" d="M116.007,95.601c-0.078,5.59-4.246,9.699-9.828,9.688c-5.626-0.011-10.233-4.693-10.026-10.189
		c0.199-5.296,4.778-9.796,10.035-9.864C111.69,85.167,116.088,89.809,116.007,95.601z"/>
	<path style="fill:#181616;" d="M267.111,329.991c5.547-0.006,9.808,4.122,9.886,9.574c0.075,5.248-4.42,10.072-9.509,10.205
		c-5.342,0.14-10.277-4.699-10.256-10.059C257.254,334.422,261.752,329.996,267.111,329.991z"/>
	<path style="fill:#100F0F;" d="M250.341,284.871c-0.023,5.67-4.588,10.307-10.055,10.034c-4.222-0.211-9.579-3.336-9.565-10.039
		c0.012-5.766,4.271-9.951,10.065-9.869C246.281,275.074,250.363,279.293,250.341,284.871z"/>
	<path style="fill:#151313;" d="M106.508,113c5.439,0.16,9.611,4.631,9.436,10.111c-0.169,5.294-4.966,9.904-10.043,9.652
		c-5.166-0.256-9.814-5.193-9.642-10.24C96.435,117.36,101.293,112.846,106.508,113z"/>
	<path style="fill:#181616;" d="M159.754,113.002c5.33-0.121,9.958,4.266,10.106,9.581c0.143,5.116-4.508,10.031-9.637,10.185
		c-5.067,0.152-9.942-4.532-10.106-9.711C149.952,117.825,154.459,113.122,159.754,113.002z"/>
	<path style="fill:#151414;" d="M115.951,150.125c-0.026,5.438-4.426,9.848-9.79,9.811c-5.182-0.036-9.902-4.762-9.893-9.905
		c0.009-5.072,4.943-9.972,9.986-9.917C111.546,140.17,115.976,144.744,115.951,150.125z"/>
	<path style="fill:#181616;" d="M169.768,366.277c0.145,5.333-4.206,9.877-9.57,9.996c-5.347,0.118-9.893-4.21-10.04-9.559
		c-0.145-5.286,4.259-9.864,9.603-9.983C165.132,356.611,169.622,360.895,169.768,366.277z"/>
	<path style="fill:#1B1919;" d="M250.012,394.123c-0.061,5.463-4.563,9.879-9.837,9.648c-5.074-0.222-9.237-4.711-9.177-9.897
		c0.059-5.186,4.376-9.67,9.43-9.627C245.456,384.29,250.53,388.629,250.012,394.123z"/>
	<path style="fill:#151313;" d="M257.709,122.94c-0.029-5.616,4.075-9.873,9.52-9.873c5.204,0,9.779,4.66,9.702,9.882
		c-0.076,5.136-4.944,9.889-9.98,9.746C261.842,132.548,257.737,128.215,257.709,122.94z"/>
	<path style="fill:#181616;" d="M203.894,393.727c0.085-5.267,4.33-9.524,9.468-9.494c5.224,0.03,9.732,4.747,9.577,10.023
		c-0.148,5.062-4.676,9.543-9.613,9.513C207.939,403.736,203.803,399.333,203.894,393.727z"/>
	<path style="fill:#151313;" d="M132.855,159.821c-5.137-0.09-9.861-5.064-9.605-10.114c0.244-4.812,5.186-9.549,9.865-9.455
		c4.974,0.1,9.867,5.313,9.586,10.212C142.411,155.494,137.768,159.907,132.855,159.821z"/>
	<path style="fill:#151313;" d="M159.851,159.821c-5.138-0.093-9.864-5.076-9.602-10.123c0.251-4.82,5.198-9.55,9.878-9.446
		c4.762,0.106,9.541,4.943,9.603,9.72C169.798,155.065,164.935,159.913,159.851,159.821z"/>
	<path style="fill:#151414;" d="M267.027,321.28c-5.316-0.094-9.353-4.268-9.31-9.625c0.042-5.269,4.266-9.564,9.431-9.588
		c5.3-0.025,9.878,4.687,9.667,9.95C276.605,317.255,272.254,321.372,267.027,321.28z"/>
	<path style="fill:#151313;" d="M132.824,132.291c-5.219-0.08-9.502-4.291-9.567-9.407c-0.063-5.042,4.862-9.919,9.908-9.811
		c4.903,0.105,9.516,4.761,9.562,9.653C142.776,128.031,138.28,132.374,132.824,132.291z"/>
	<path style="fill:#151414;" d="M257.911,285.003c-0.073-5.366,3.874-9.588,9.129-9.765c4.944-0.167,9.549,4.283,9.725,9.397
		c0.175,5.106-4.158,9.584-9.344,9.655C262.006,294.365,257.984,290.438,257.911,285.003z"/>
	<path style="fill:#151313;" d="M142.291,176.556c0.096,5.461-3.765,9.539-9.119,9.631c-5.388,0.093-9.392-3.817-9.46-9.238
		c-0.065-5.261,4.026-9.679,9.086-9.81C137.814,167.01,142.2,171.361,142.291,176.556z"/>
	<path style="fill:#151313;" d="M150.712,176.947c-0.065-5.316,3.969-9.673,9.082-9.807c5.018-0.132,9.405,4.218,9.496,9.415
		c0.095,5.464-3.764,9.54-9.119,9.633C154.783,186.281,150.778,182.369,150.712,176.947z"/>
	<path style="fill:#181616;" d="M213.288,240.009c-5.287-0.02-9.37-4.196-9.29-9.501c0.078-5.166,4.541-9.478,9.644-9.317
		c4.739,0.15,9.081,4.641,9.128,9.44C222.821,235.849,218.594,240.029,213.288,240.009z"/>
	<path style="fill:#181616;" d="M222.748,204.44c-0.056,4.955-4.839,9.56-9.718,9.357c-4.898-0.204-8.99-4.52-8.969-9.459
		c0.022-5.158,4.441-9.441,9.57-9.274C218.45,195.22,222.802,199.696,222.748,204.44z"/>
	<path style="fill:#131211;" d="M196,150.318c-0.087,5.138-4.022,8.963-9.228,8.969c-5.328,0.006-9.517-4.235-9.346-9.464
		c0.162-4.962,4.357-9.031,9.326-9.043C191.985,140.766,196.091,145.001,196,150.318z"/>
	<path style="fill:#151414;" d="M240.355,248.993c5.385-0.066,9.561,4.025,9.449,9.257c-0.105,4.917-4.41,9.067-9.348,9.014
		c-4.978-0.054-9.18-4.233-9.216-9.167C231.203,253.094,235.246,249.056,240.355,248.993z"/>
	<path style="fill:#131211;" d="M186.843,403.16c-5.238,0.022-9.044-3.719-9.131-8.977c-0.091-5.454,3.882-9.505,9.23-9.411
		c5.042,0.089,9.032,4.188,9.015,9.264C195.94,399.097,191.902,403.139,186.843,403.16z"/>
	<path style="fill:#151414;" d="M141.936,366.46c0.02,4.964-4.369,9.376-9.153,9.202c-4.707-0.171-8.702-4.353-8.719-9.128
		c-0.018-4.982,4.338-9.358,9.148-9.191C137.927,357.508,141.917,361.677,141.936,366.46z"/>
	<path style="fill:#181616;" d="M276.009,366.66c-0.054,4.872-4.039,8.979-8.763,9.033c-4.725,0.054-9.285-4.621-9.154-9.385
		c0.127-4.628,4.42-8.926,9.015-9.025C272.006,357.178,276.067,361.456,276.009,366.66z"/>
	<path style="fill:#181616;" d="M294.068,402.938c-4.803-0.015-8.896-4.044-8.97-8.83c-0.076-4.946,4.255-9.18,9.253-9.045
		c4.827,0.13,8.682,4.196,8.61,9.08C302.89,399.008,298.901,402.954,294.068,402.938z"/>
	<path style="fill:#181616;" d="M302.958,95.571c-0.079,4.863-4.083,8.757-8.949,8.704c-4.71-0.052-8.912-4.248-8.92-8.908
		c-0.008-4.462,4.466-9.058,8.877-9.119C298.848,86.18,303.04,90.526,302.958,95.571z"/>
	<path style="fill:#151414;" d="M302.97,366.627c-0.061,4.981-3.853,8.63-8.877,8.677c-4.731,0.044-8.716-3.242-8.925-8.69
		c-0.159-4.13,2.935-9.085,9.176-8.907C299.335,357.848,303.031,361.628,302.97,366.627z"/>
	<path style="fill:#181616;" d="M267.113,402.938c-4.843-0.067-8.836-4.053-8.881-8.867c-0.047-5.015,4.171-9.129,9.237-9.009
		c4.842,0.115,8.629,4.155,8.538,9.107C275.916,399.071,271.926,403.005,267.113,402.938z"/>
	<path style="fill:#181616;" d="M294.343,302.991c4.986,0.082,8.718,3.993,8.595,9.007c-0.119,4.823-4.31,8.881-9.053,8.767
		c-4.63-0.112-8.851-4.571-8.742-9.233C285.256,306.712,289.354,302.908,294.343,302.991z"/>
	<path style="fill:#181616;" d="M275.993,258.109c-0.031,4.826-4.002,8.834-8.763,8.846c-4.813,0.012-8.865-3.914-8.994-8.715
		c-0.129-4.788,4.331-9.267,9.135-9.174C272.098,249.156,276.025,253.275,275.993,258.109z"/>
	<path style="fill:#181616;" d="M293.9,330.991c4.991-0.705,9.165,4.724,9.086,8.583c-0.1,4.881-3.851,9.047-8.656,9.194
		c-4.649,0.142-8.947-3.981-9.148-8.777C284.983,335.263,289.039,331.075,293.9,330.991z"/>
	<path style="fill:#181616;" d="M222.009,149.979c0.627,4.641-4.104,9.069-8.572,9.036c-4.838-0.036-8.928-3.972-8.985-8.81
		c-0.056-4.735,4.082-9.05,8.762-9.135C217.952,140.982,221.954,145.036,222.009,149.979z"/>
	<path style="fill:#151414;" d="M249.007,230.698c0.021,5.097-3.239,8.505-8.217,8.59c-5.144,0.088-8.806-3.487-8.797-8.589
		c0.008-4.782,3.649-8.595,8.3-8.692C245.33,221.902,248.986,225.548,249.007,230.698z"/>
	<path style="fill:#181616;" d="M249.009,204.157c0.083,4.961-3.322,8.677-8.1,8.839c-4.951,0.168-8.935-3.686-8.911-8.619
		c0.023-4.799,3.696-8.548,8.436-8.612C245.207,195.699,248.928,199.341,249.009,204.157z"/>
	<path style="fill:#1B1919;" d="M159.864,385.234c4.389-0.088,8.676,4.02,8.877,8.506c0.188,4.189-4.081,8.784-8.389,9.03
		c-4.531,0.258-9.114-4.156-9.11-8.774C151.245,389.563,155.417,385.323,159.864,385.234z"/>
	<path style="fill:#181616;" d="M302.767,284.947c-0.049,4.465-4.191,8.851-8.602,8.632c-5.003-0.248-8.63-3.722-8.525-9.098
		c0.09-4.623,4.234-8.579,8.731-8.404C298.901,276.254,302.817,280.39,302.767,284.947z"/>
	<path style="fill:#181616;" d="M302.766,122.828c-0.024,4.666-3.827,8.434-8.543,8.464c-4.93,0.032-8.453-3.411-8.515-8.324
		c-0.063-4.998,3.845-9.036,8.611-8.899C298.8,114.199,302.789,118.335,302.766,122.828z"/>
	<path style="fill:#151414;" d="M302.764,204.245c0.108,4.557-3.854,8.66-8.451,8.75c-4.812,0.094-8.507-3.517-8.602-8.407
		c-0.098-4.975,3.354-8.441,8.26-8.718C298.781,195.598,302.589,200.062,302.764,204.245z"/>
	<path style="fill:#151414;" d="M294.087,222.068c4.5-0.006,8.724,4.019,8.63,8.553c-0.09,4.359-3.606,8.579-8.538,8.554
		c-4.831-0.024-8.473-3.619-8.468-8.469C285.717,225.906,289.432,222.074,294.087,222.068z"/>
	<path style="fill:#151414;" d="M267.403,239.242c-4.748,0.08-8.553-3.607-8.643-8.376c-0.089-4.729,3.629-8.697,8.242-8.796
		c4.496-0.096,8.617,3.864,8.761,8.419C275.904,234.965,271.891,239.166,267.403,239.242z"/>
	<path style="fill:#1B1919;" d="M293.984,266.767c-4.588-0.069-8.316-4.053-8.276-8.846c0.038-4.568,4.196-8.713,8.591-8.565
		c4.384,0.148,8.6,4.564,8.466,8.867C302.626,262.657,298.335,266.832,293.984,266.767z"/>
	<path style="fill:#181616;" d="M240.434,412.747c4.793-0.043,8.504,3.65,8.505,8.466c0.001,4.62-4.014,8.64-8.545,8.556
		c-4.334-0.081-8.189-3.939-8.33-8.337C231.914,416.771,235.752,412.789,240.434,412.747z"/>
	<path style="fill:#151313;" d="M258.993,421.26c-0.008-4.995,3.462-8.552,8.298-8.506c4.609,0.043,8.637,4.158,8.467,8.647
		c-0.161,4.25-4.127,8.222-8.349,8.362C262.827,429.915,259.002,426.05,258.993,421.26z"/>
	<path style="fill:#181616;" d="M258.939,150.226c-0.073-4.981,3.363-8.506,8.297-8.511c4.51-0.005,8.289,3.553,8.526,8.027
		c0.227,4.289-3.938,8.815-8.293,9.013C263.048,158.956,259.007,154.915,258.939,150.226z"/>
	<path style="fill:#181616;" d="M221.758,421.127c-0.012,4.273-3.951,8.33-8.229,8.475c-4.487,0.152-8.557-3.985-8.466-8.606
		c0.089-4.551,3.727-8.045,8.335-8.006C217.894,413.029,221.77,416.802,221.758,421.127z"/>
	<path style="fill:#151313;" d="M285.912,149.994c0.032-4.657,3.451-8.176,8.029-8.263c4.789-0.092,8.373,3.54,8.347,8.459
		c-0.024,4.642-3.493,8.26-8.013,8.359C289.676,158.65,285.879,154.766,285.912,149.994z"/>
	<path style="fill:#181616;" d="M114.293,366.618c-0.06,4.622-3.684,8.342-8.091,8.305c-4.56-0.038-8.354-4.116-8.191-8.804
		c0.152-4.365,4.163-8.189,8.444-8.05C110.917,358.212,114.354,361.961,114.293,366.618z"/>
	<path style="fill:#181616;" d="M275.284,204.282c0.052,4.475-3.602,8.351-7.997,8.481c-4.228,0.126-8.164-3.825-8.226-8.256
		c-0.062-4.453,3.633-8.338,8.025-8.438C271.464,195.969,275.231,199.744,275.284,204.282z"/>
	<path style="fill:#151313;" d="M294.019,184.989c-4.572-0.056-8.068-3.669-8.024-8.292c0.044-4.557,3.775-8.303,8.199-8.231
		c4.463,0.072,8.073,3.851,8.016,8.391C302.151,181.515,298.596,185.045,294.019,184.989z"/>
	<path style="fill:#181616;" d="M194.938,176.669c0.071,4.496-3.66,8.291-8.158,8.298c-4.561,0.008-8.103-3.639-8.066-8.304
		c0.036-4.577,3.253-7.854,7.806-7.952C191.19,168.61,194.866,172.085,194.938,176.669z"/>
	<path style="fill:#1B1919;" d="M302.012,421.619c-0.161,4.502-3.51,7.711-7.998,7.664c-4.532-0.047-8.09-3.758-7.966-8.309
		c0.124-4.582,3.846-8.113,8.362-7.934C298.978,413.222,302.182,416.838,302.012,421.619z"/>
	<path style="fill:#151313;" d="M240.472,158.007c-4.505-0.026-7.831-3.288-7.944-7.791c-0.113-4.512,3.616-8.271,8.144-8.21
		c4.185,0.057,7.988,3.782,8.079,7.913C248.85,154.36,245.089,158.033,240.472,158.007z"/>
	<path style="fill:#181616;" d="M275.009,176.796c-0.02,4.487-3.371,8.02-7.702,8.119c-4.176,0.096-8.332-4.145-8.2-8.366
		c0.135-4.294,3.764-7.688,8.187-7.657C271.779,168.924,275.029,172.254,275.009,176.796z"/>
	<path style="fill:#1B1919;" d="M125.172,394.001c0-3.927,3.684-7.801,7.545-7.932c4.118-0.14,8.038,3.711,8.052,7.909
		c0.014,4.189-3.953,8.109-8.02,7.926C128.809,401.727,125.173,397.934,125.172,394.001z"/>
	<path style="fill:#181616;" d="M213.502,169.028c4.364,0.116,7.673,3.721,7.486,8.155c-0.173,4.105-3.738,7.532-7.774,7.473
		c-4.209-0.061-7.676-3.892-7.489-8.275C205.903,172.204,209.378,168.919,213.502,169.028z"/>
	<path style="fill:#1B1919;" d="M240.28,169.231c4.126-0.154,7.622,3.262,7.662,7.486c0.038,4.053-3.068,7.243-7.134,7.329
		c-4.174,0.088-7.455-2.794-7.743-6.803C232.776,173.254,236.264,169.381,240.28,169.231z"/>
	<path style="fill:#1B1919;" d="M186.641,428.772c-3.963-0.092-7.611-3.998-7.407-7.93c0.202-3.892,3.704-7.159,7.632-7.119
		c4.272,0.044,7.32,3.383,7.147,7.832C193.851,425.695,190.613,428.865,186.641,428.772z"/>
	<path style="fill:#1E1C1C;" d="M106.238,400.981c-3.628,0.046-6.981-3.204-7.067-6.848c-0.087-3.694,3.039-6.994,6.755-7.129
		c4.082-0.149,7.117,2.878,7.09,7.071C112.989,398.043,110.155,400.932,106.238,400.981z"/>
	<path style="fill:#1E1C1C;" d="M159.828,428.006c-3.67-0.079-6.953-3.547-6.728-7.106c0.218-3.448,3.44-6.607,6.802-6.668
		c3.542-0.065,7.018,3.411,6.983,6.982C166.848,424.897,163.536,428.086,159.828,428.006z"/>
	<path style="fill:#181616;" d="M247.286,447.592c0.019,4.442-3.161,6.817-6.75,7.096c-3.478,0.27-6.826-3.48-6.776-7.118
		c0.051-3.758,2.768-6.492,6.539-6.578C244.395,440.897,247.233,443.577,247.286,447.592z"/>
	<path style="fill:#1B1919;" d="M267.204,441.064c3.439-0.016,6.619,3.233,6.566,6.707c-0.051,3.357-2.951,6.305-6.301,6.405
		c-3.726,0.111-6.657-2.676-6.726-6.399C260.675,444.15,263.628,441.081,267.204,441.064z"/>
	<path style="fill:#1E1C1C;" d="M213.177,453.942c-3.331-0.089-6.251-3.203-6.108-6.516c0.128-2.972,3.207-6.017,6.16-6.092
		c3.169-0.08,6.376,3.141,6.331,6.359C219.513,451.071,216.49,454.03,213.177,453.942z"/>
	<path style="fill:#181616;" d="M139.008,421.412c-0.082,3.458-2.551,5.87-6.008,5.87c-3.716-0.001-6.103-2.52-6.008-6.34
		c0.085-3.389,2.637-5.924,5.978-5.938C136.513,414.988,139.095,417.729,139.008,421.412z"/>
	<path style="fill:#1E1C1C;" d="M213.528,480.999c-3.197,0.108-6.076-2.518-6.3-5.746c-0.225-3.254,2.319-6.088,5.627-6.267
		c3.75-0.203,6.46,2.219,6.525,5.833C219.439,478.024,216.724,480.891,213.528,480.999z"/>
	<path style="fill:#1B1919;" d="M240.5,481.004c-3.142-0.012-5.996-2.87-6.034-6.043c-0.039-3.296,2.585-5.933,5.943-5.972
		c3.623-0.042,6.474,2.713,6.351,6.138C246.65,478.211,243.662,481.016,240.5,481.004z"/>
	<path style="fill:#1E1C1C;" d="M267.13,469.022c3.268-0.016,5.91,2.679,5.882,6.001c-0.026,3.104-2.506,5.767-5.507,5.914
		c-3.01,0.148-6.144-2.768-6.266-5.828C261.116,472.036,264.018,469.038,267.13,469.022z"/>
	<path style="fill:#1E1C1C;" d="M300,447.743c-0.024,3.306-2.834,6.108-6.045,6.026c-2.897-0.074-5.755-2.891-5.878-5.795
		c-0.136-3.187,2.679-6.131,5.905-6.175C297.338,441.753,300.023,444.405,300,447.743z"/>
	<path style="fill:#21201F;" d="M299.858,474.94c-0.003,2.873-2.813,5.775-5.652,5.836c-2.786,0.059-5.75-2.802-5.862-5.66
		c-0.12-3.048,2.931-6.167,5.925-6.057C297.111,469.163,299.861,472.057,299.858,474.94z"/>
	<path style="fill:#1B1919;" d="M186.868,453.244c-3.042,0-5.841-2.791-5.75-5.733c0.084-2.728,2.731-5.33,5.543-5.448
		c3.04-0.127,5.617,2.543,5.539,5.738C192.124,450.897,189.824,453.245,186.868,453.244z"/>
	<path style="fill:#21201F;" d="M191.725,474.969c-0.09,2.594-2.794,5.15-5.246,4.96c-2.475-0.192-4.496-2.472-4.483-5.057
		c0.014-2.827,2.316-5.015,5.088-4.836C189.532,470.195,191.806,472.613,191.725,474.969z"/>
	<path style="fill:#21201F;" d="M159.882,452.86c-4.11-2.028-5.298-3.664-4.651-6.195c0.627-2.451,2.541-3.833,5.101-3.683
		c2.321,0.136,4.033,1.608,4.482,3.853C165.299,449.256,163.844,451.096,159.882,452.86z"/>
	<path style="fill:#21201F;" d="M105.969,416.246c2.277-0.128,4.793,2.185,4.974,4.572c0.189,2.488-1.807,4.907-4.251,5.151
		c-2.614,0.262-5.268-2.091-5.28-4.68C101.401,418.879,103.663,416.376,105.969,416.246z"/>
	<path style="fill:#1E1C1C;" d="M110.536,474.921c-0.019,2.47-2.026,4.333-4.536,4.21c-2.353-0.116-4.002-1.831-4.001-4.163
		c0-2.483,2.001-4.385,4.471-4.249C108.754,470.844,110.554,472.704,110.536,474.921z"/>
	<path style="fill:#21201F;" d="M132.971,451.94c-2.183-0.017-3.956-1.852-4.025-4.165c-0.07-2.357,1.584-4.249,3.812-4.358
		c2.426-0.118,4.342,1.867,4.258,4.413C136.94,450.152,135.164,451.957,132.971,451.94z"/>
	<path style="fill:#21201F;" d="M105.95,451.24c-2.124-0.106-3.654-1.852-3.33-3.954c0.311-2.018,1.496-3.216,3.624-3.251
		c1.92-0.031,3.74,1.858,3.683,3.772C109.868,449.757,108.031,451.344,105.95,451.24z"/>
	<path style="fill:#181616;" d="M132.933,478.015c-1.955-0.043-2.956-1.05-3.017-3.018c-0.062-1.995,0.949-3.035,2.888-3.168
		c2.12-0.145,3.373,1.139,3.276,3.264C135.989,477.091,134.902,478.007,132.933,478.015z"/>
	<path style="fill:#181616;" d="M162.592,472.818c0.735,1.981,0.942,3.72-1.022,4.856c-1.023,0.591-2.24,0.588-3.252-0.059
		c-1.919-1.225-1.623-2.949-0.941-4.676C158.997,471.485,160.61,471.451,162.592,472.818z"/>
</g>
</svg>
