<?xml version="1.0" encoding="iso-8859-1"?>
<!-- Generator: Adobe Illustrator 27.0.0, SVG Export Plug-In . SVG Version: 6.00 Build 0)  -->
<svg version="1.1" id="Layer_1" xmlns="http://www.w3.org/2000/svg" xmlns:xlink="http://www.w3.org/1999/xlink" x="0px" y="0px"
	 viewBox="0 0 1600 711" style="enable-background:new 0 0 1600 711;" xml:space="preserve">
<g>
	<path style="fill:#4C4E52;" d="M0.934,219.916c0.977-19.233,5.257-37.787,11.774-55.834c14.604-40.443,39.11-73.827,72.372-100.906
		c29.356-23.899,62.534-40.071,99.333-48.77c24.126-5.703,48.65-7.861,73.359-6.207c48.816,3.269,93.145,19.242,132.376,48.631
		c32.025,23.991,56.839,53.99,73.428,90.532c8.977,19.774,14.923,40.441,17.519,62.058c1.293,10.764,2.092,21.535,1.7,32.371
		c-1.358,37.578-11.286,72.693-30.485,105.088c-25.282,42.66-60.815,74.014-105.517,95.114
		c-22.068,10.417-45.318,17.187-69.417,20.7c-18.154,2.647-36.448,2.9-54.798,1.606c-36.942-2.605-71.3-13.585-103.537-31.451
		c-14.885-8.249-28.522-18.339-41.355-29.545c-18.602-16.243-34.179-35-46.763-56.192c-13.082-22.029-22.245-45.611-26.919-70.868
		c-1.391-7.521-2.681-15.054-3.037-22.712C0.936,252.828,0.734,252.251,0,252c0-1,0-2,0-3c0.944-0.311,1.057-1.068,1.034-1.908
		c-0.092-3.371-0.18-6.743-0.269-10.115C0.821,231.29,0.878,225.603,0.934,219.916z M378.312,230.771
		c0.189-5.278-1.074-15.164-3.32-24.915c-7.525-32.673-24.503-59.575-51.001-79.93c-28.034-21.535-59.873-30.851-95.386-27.186
		c-12.537,1.294-24.581,4.237-36.173,8.795c-22.39,8.804-41.567,22.366-56.723,41.154c-26.309,32.615-36.603,69.812-29.3,111.104
		c5.947,33.624,22.621,61.588,49.05,83.328c35.116,28.886,75.234,37.8,119.246,27.419c29.113-6.867,52.792-23.141,71.592-46.302
		C367.238,298.436,378.139,268.903,378.312,230.771z"/>
	<path style="fill:#B02329;" d="M1600,218c-3.018,3.376-4.04,7.774-5.757,11.761c-12.867,29.883-25.543,59.848-38.283,89.786
		c-0.19,0.446-0.442,0.865-0.711,1.385c-1.993,0.514-3.97,0.09-5.897-0.209c-14.148-2.194-28.381-3.58-42.632-4.906
		c-33.234-3.092-66.54-3.298-99.86-2.715c-19.981,0.349-39.903,1.937-59.827,3.521c-17.099,1.359-34.124,3.313-51.111,5.551
		c-18.786,2.475-37.513,5.434-56.13,8.999c-23.987,4.593-47.872,9.671-71.535,15.738c-96.73,24.801-188.74,61.332-275.722,110.514
		c-54.026,30.548-104.903,65.633-152.912,104.893c-36.032,29.466-69.713,61.487-101.606,95.373
		c-12.328,13.098-24.311,26.525-35.776,40.399c-0.621,0.752-1.394,1.379-2.097,2.064c-0.232-0.251-0.464-0.502-0.696-0.753
		c8.411-13.199,17.612-25.841,26.942-38.398c25.071-33.743,52.507-65.456,81.551-95.829c36.68-38.36,75.951-73.84,117.435-106.913
		c57.791-46.074,119.363-86.404,184.681-120.935c57.521-30.41,117.179-55.869,179.188-75.738
		c39.274-12.584,79.146-22.765,119.61-30.718c23.999-4.717,48.142-8.512,72.391-11.564c15.185-1.911,30.431-3.385,45.715-4.493
		c32.095-2.328,64.215-3.376,96.382-2.643c22.313,0.508,44.613,1.404,66.832,3.666c3.279,0.334,6.691-0.385,9.826,1.166
		C1600,217.333,1600,217.667,1600,218z"/>
	<path style="fill:#4C4E52;" d="M1357,0c33.362,67.169,66.724,134.337,100.496,202.33c-29.763,1.453-58.819,4.074-87.997,8.017
		c-4.595-10.646-9.046-20.959-13.861-32.114c-5.63,12.833-10.91,24.865-16.302,37.155c-17.583,2.702-35.03,5.977-52.375,9.725
		c-17.18,3.712-34.259,7.895-51.526,12.708c-0.339-2.261,1.077-3.802,1.893-5.421c19.357-38.407,38.783-76.779,58.159-115.176
		c18.327-36.319,36.604-72.665,54.93-108.985c1.415-2.803,3.05-5.495,4.583-8.239C1355.667,0,1356.333,0,1357,0z"/>
	<path style="fill:#4D4F53;" d="M1428,711c-3.241-4.465-7.85-7.487-11.899-11.072c-23.573-20.869-47.274-41.592-70.941-62.355
		c-3.117-2.735-6.287-5.409-9.994-8.595c0,25.891,0,51.198,0,76.856c-11.174,0-21.885,0-32.867,0c0-48.918,0-97.851,0-146.959
		c2.247,0.039,3.481,1.735,4.905,2.983c21.3,18.66,42.58,37.342,63.855,56.031c6.383,5.607,12.728,11.258,19.109,16.867
		c2.095,1.842,4.249,3.618,7.181,6.108c0-26.9,0-52.784,0-78.854c11.136,0,21.734,0,32.189,0c1.081,1.175,0.683,2.4,0.683,3.507
		c0.023,46.999,0.021,93.998,0.008,140.998c0,1.495-0.149,2.99-0.229,4.485C1429.333,711,1428.667,711,1428,711z"/>
	<path style="fill:#817F82;" d="M0.934,219.916c-0.056,5.687-0.113,11.374-0.169,17.062C0.51,236.984,0.255,236.992,0,237
		c0-5.667,0-11.333,0-17C0.327,220.144,0.638,220.116,0.934,219.916z"/>
	<path style="fill:#7C7A7D;" d="M0,237c0.255-0.008,0.51-0.016,0.765-0.022c0.089,3.372,0.176,6.743,0.269,10.115
		c0.023,0.84-0.09,1.597-1.034,1.908C0,245,0,241,0,237z"/>
	<path style="fill:#4B4E52;" d="M854.048,425.866c-5.018,3.818-9.658,7.291-14.237,10.843c-8.811,6.836-17.6,13.701-26.365,20.596
		c-1.334,1.049-2.573,1.919-4.423,1.912c-15.323-0.058-30.646-0.033-46.244-0.033c-41.293-57.361-82.588-114.723-123.923-172.141
		c-11.06,0-22.028,0-33.39,0c0,57.205,0,114.289,0,171.261c-3.964,1.117-90.953,1.532-102.375,0.566c0-150.146,0-300.321,0-450.46
		c0.859-0.891,1.918-0.58,2.87-0.579c54.487,0.057,108.976-0.194,163.458,0.346c27.176,0.269,53.48,6.128,78.252,17.484
		c25.741,11.801,46.763,29.186,60.594,54.394c7.265,13.24,11.801,27.385,13.825,42.353c1.049,7.757,1.975,15.525,1.867,23.362
		c-0.375,27.132-9.188,51.455-24.793,73.435c-14.632,20.611-33.469,36.411-55.739,48.221c-1.757,0.931-3.467,1.95-5.596,3.152
		C776.49,322.237,815.048,373.756,854.048,425.866z M605.406,194.867c1.217,0.105,2.023,0.236,2.829,0.235
		c17.833-0.011,35.666,0.023,53.499-0.082c12.209-0.071,23.696-3.232,34.37-9.06c12.942-7.066,21.423-17.533,24.188-32.365
		c3.631-19.478-4.673-36.777-21.58-45.673c-10.948-5.761-22.606-8.812-34.917-8.976c-18.663-0.249-37.33-0.182-55.996-0.236
		c-0.804-0.002-1.689-0.117-2.393,0.971C605.406,131.072,605.406,162.693,605.406,194.867z"/>
	<path style="fill:#4C4E52;" d="M869.223,410.911c0-134.62,0-268.67,0-402.908c34.161,0,68.075,0,102.273,0
		c0,112.74,0,225.29,0,338.436C936.391,365.723,902.389,387.365,869.223,410.911z"/>
	<path style="fill:#4C4F53;" d="M1417.225,325.195c34.402-0.44,67.927,0.698,101.607,4.036
		c21.512,43.199,43.025,86.398,64.819,130.165c-36.51,0-72.23,0-108.376,0C1456.043,414.934,1436.765,370.368,1417.225,325.195z"/>
	<path style="fill:#4C4E52;" d="M1234.731,458.969c-36.143,0-71.899,0-108.331,0c17.215-34.188,34.206-67.93,51.196-101.67
		c36.684-8.728,73.368-16.156,111.274-21.252C1270.625,377.473,1252.663,418.256,1234.731,458.969z"/>
	<path style="fill:#4D4F53;" d="M825.038,630.179c0,25.079,0,50.159,0,75.529c-10.999,0-21.554,0-32.739,0
		c0-48.299-0.002-96.406,0.018-144.513c0-0.843,0.38-1.613,1.8-2.216c21.589,19.018,43.398,38.229,65.643,57.825
		c21.974-19.314,43.771-38.473,65.481-57.555c2.475,1.759,1.614,3.768,1.617,5.453c0.058,26.992,0.041,53.985,0.041,80.978
		c0,18.328,0,36.657,0,54.985c0,1.628,0,3.256,0,5.192c-11.054,0-21.612,0-32.798,0c0-25.373,0-50.563,0-75.753
		c-0.37-0.179-0.74-0.359-1.11-0.538c-11.431,9.721-21.747,20.703-33.45,30.866c-11.131-10.383-22.125-20.639-33.12-30.894
		C825.96,629.751,825.499,629.965,825.038,630.179z"/>
	<path style="fill:#4D4F53;" d="M1083.062,628.818c0,26.089,0,51.389,0,77.03c-10.879,0-21.575,0-32.514,0
		c0-48.928,0-97.688,0-147.227c7.188,4.863,12.872,10.784,19.047,16.096c6.312,5.429,12.633,10.848,18.918,16.308
		c6.411,5.57,12.764,11.207,19.176,16.776c6.284,5.459,12.627,10.85,18.914,16.307c6.236,5.414,12.434,10.872,19.516,17.07
		c0-27.085,0-52.962,0-79.1c11.073,0,21.667,0,32.591,0c0,49.137,0,98.349,0,147.531c-2.396,1.032-3.481-0.873-4.756-1.979
		c-12.456-10.801-24.851-21.672-37.285-32.497c-16.704-14.543-33.425-29.066-50.146-43.588
		C1085.656,630.792,1084.721,630.121,1083.062,628.818z"/>
	<path style="fill:#4D4F53;" d="M1591.111,577.493c-5.295,7.928-10.526,15.758-15.849,23.727c-4.039-2.106-7.73-4.311-11.64-6.017
		c-12.161-5.308-24.704-7.445-37.887-4.289c-16.026,3.836-29.956,18.508-32.743,34.741c-3.845,22.395,8.639,43.422,30.309,50.456
		c10.934,3.549,21.978,2.864,32.846-0.745c1.873-0.622,3.692-1.408,5.661-2.166c0-5.091,0-10.023,0-15.426
		c-8.56,0-16.962,0-25.638,0c0-9.889,0-19.315,0-28.757c3.381-0.912,48.359-1.25,56.621-0.413
		c1.024,3.493,1.434,48.867,0.497,59.653c-7.119,5.307-14.975,9.843-23.522,13.182c-13.859,5.414-28.304,7.89-43.03,6.278
		c-22.089-2.418-39.924-12.759-52.97-31.006c-10.411-14.561-14.484-31.053-13.387-48.552c2.135-34.056,26.836-58.114,52.509-65.274
		c23.412-6.529,45.647-3.073,67.038,7.698c3.26,1.642,6.351,3.621,9.499,5.48C1589.978,576.392,1590.423,576.902,1591.111,577.493z"
		/>
	<path style="fill:#4C4E52;" d="M912.278,458.285c9.129-4.678,18.196-9.48,27.398-14.009c23.543-11.586,47.563-22.114,71.612-32.608
		c37.328-16.289,75.813-29.224,114.738-40.98c1.107-0.334,2.245-0.771,3.375-0.793c5.164-0.099,10.331-0.088,15.497-0.066
		c1.311,0.006,2.664-0.275,4.603,0.632c-14.266,29.496-28.554,58.954-42.964,88.508c-64.757,0-129.379,0-194,0
		C912.45,458.741,912.364,458.513,912.278,458.285z"/>
	<path style="fill:#4E5054;" d="M1004.932,705.994c-10.878,0-21.469,0-32.336,0c0-47.934,0-95.67,0-143.403
		c3.516-0.974,25.197-1.216,32.336-0.329C1004.932,609.966,1004.932,657.704,1004.932,705.994z"/>
	<path style="fill:#4D4F53;" d="M1256.801,705.988c-10.849,0-21.438,0-32.302,0c0-47.936,0-95.67,0-143.405
		c3.504-0.967,24.888-1.217,32.301-0.348C1256.801,610.079,1256.801,657.951,1256.801,705.988z"/>
	<path style="fill:#B02329;" d="M600.143,700.153c-0.431,0.898-1.062,1.075-1.897,0.551c0.066-0.769,0.755-0.923,1.201-1.304
		C599.679,699.651,599.911,699.902,600.143,700.153z"/>
</g>
</svg>
