<?xml version="1.0" encoding="iso-8859-1"?>
<!-- Generator: Adobe Illustrator 27.0.0, SVG Export Plug-In . SVG Version: 6.00 Build 0)  -->
<svg version="1.1" id="Layer_1" xmlns="http://www.w3.org/2000/svg" xmlns:xlink="http://www.w3.org/1999/xlink" x="0px" y="0px"
	 viewBox="0 0 1491.07 347" style="enable-background:new 0 0 1491.07 347;" xml:space="preserve">
<g>
	<path style="fill:#164980;" d="M625.07,0c2.461,2.005,5.575,1.348,8.362,1.952c38.497,8.333,67.401,29.104,84.155,65.281
		c8.098,17.486,9.906,36.016,7.691,55.112c-2.245,19.352-8.189,37.297-19.362,53.305c-15.627,22.391-37.063,36.593-63.464,42.851
		c-28.788,6.824-57.243,5.416-84.395-7.09c-32.89-15.149-53.02-40.99-60.848-76.189c-5.821-26.172-3.46-51.577,9.471-75.48
		c13.309-24.602,33.497-41.43,59.343-51.615c9.77-3.85,19.898-6.479,30.429-7.276c0.689-0.052,1.304-0.137,1.62-0.85
		C607.07,0,616.07,0,625.07,0z M610.099,169.137c30.082,0.85,58.628-23.481,58.726-60.142c0.08-30.065-25.895-55.57-58.327-55.671
		c-35.361-0.11-58.867,29.14-58.76,55.748C551.866,140.711,576.535,169.706,610.099,169.137z"/>
	<path style="fill:#164980;" d="M1148.07,0c2.292,1.953,5.241,1.361,7.863,1.883c35.987,7.164,63.762,25.804,81.259,58.473
		c9.83,18.354,13.069,38.082,11.162,58.844c-1.352,14.726-4.55,28.878-11.018,42.163c-14.502,29.784-38.123,48.634-70.077,56.699
		c-29.762,7.512-59.13,5.997-87.2-7.103c-30.339-14.159-49.301-38.065-58.009-70.272c-3.374-12.478-4.635-25.208-3.911-38.054
		c1.335-23.685,9.754-44.686,25.355-62.581c19.628-22.513,44.525-35.282,74.087-39.076c0.694-0.089,1.287-0.2,1.488-0.978
		C1128.737,0,1138.404,0,1148.07,0z M1133.488,169.137c15.334,0.582,30.267-6.087,39.768-15.632
		c16.102-16.177,22.536-35.611,16.937-57.937c-6.736-26.86-36.266-47.225-67.476-41.261c-31.33,5.986-51.81,34.651-46.948,64.337
		C1080.507,147.572,1104.727,169.811,1133.488,169.137z"/>
	<path style="fill:#A0A6C2;" d="M1490.169,309.944c0.297,0.073,0.598,0.091,0.901,0.056c0,4.333,0,8.667,0,13
		c-0.296,0-0.59,0.022-0.884,0.065C1490.181,318.691,1490.175,314.317,1490.169,309.944z"/>
	<path style="fill:#A0A6C2;" d="M1163.07,347c0.079-0.307,0.06-0.608-0.056-0.902c3.704,0,7.408,0,11.112,0
		c-0.116,0.295-0.135,0.596-0.056,0.902C1170.404,347,1166.737,347,1163.07,347z"/>
	<path style="fill:#164980;" d="M1331.599,92.477c-2.749,1.768-2.702,4.286-2.698,6.795c0.058,34.986,0.114,69.972,0.166,104.959
		c0.002,1.499,0.073,3.01-0.085,4.495c-0.515,4.852-2.927,7.186-7.825,7.235c-4.992,0.05-9.987-0.307-14.98-0.293
		c-7.326,0.02-14.651,0.212-21.977,0.33c-8.488,0.138-10.848-2.144-10.712-10.414c0.97-59.137,0.172-118.278,0.386-177.417
		c0.017-4.801-0.854-9.586,0.073-14.407c0.808-4.2,2.92-6.708,6.947-6.252c8.012,0.908,15.957-0.832,23.918-0.121
		c4.789,0.428,9.609,0.388,14.365,1.42c5.684,1.234,10.604,3.723,14.919,7.585c6.87,6.15,12.334,13.511,17.967,20.721
		c23.978,30.696,47.92,61.421,71.883,92.129c0.402,0.515,0.896,0.958,1.346,1.434c1.909,0.055,2.874-0.692,2.784-2.613
		c-0.047-0.998-0.007-1.999-0.007-2.999c0-30.326,0.007-60.652-0.007-90.977c-0.002-4.829-0.105-9.659-0.147-14.488
		c-0.01-1.165-0.014-2.335,0.067-3.496c0.401-5.766,2.706-8.987,8.209-8.537c10.729,0.878,21.195-1.676,31.824-1.418
		c1.16,0.028,2.335,0.085,3.471,0.302c8.09,1.544,11.986,6.084,12.6,14.346c0.561,7.538-0.826,14.935-1.488,22.38
		c-0.177,1.99-0.364,3.968-0.365,5.961c-0.007,43.656-0.09,87.312,0.079,130.967c0.028,7.14,0.397,14.293,0.397,21.444
		c-0.001,10.757-2.118,13.508-12.378,14.82c-17.395,2.224-33.861,0.36-48.411-10.451c-7.021-5.217-12.957-11.543-17.698-18.832
		c-18.83-28.951-41.028-55.318-62.63-82.146C1338.261,100.803,1334.945,96.651,1331.599,92.477z"/>
	<path style="fill:#174980;" d="M924.457,215.862c-10.589,0-20.409-0.018-30.23,0.005c-9.995,0.023-19.996-0.123-29.981,0.216
		c-5.511,0.187-9.034-2.033-11.845-6.582c-10.839-17.545-22.129-34.801-34.28-51.474c-3.891-5.34-7.661-10.793-12.892-16.498
		c0,2.138,0.005,3.344-0.001,4.549c-0.052,10.66-0.072,21.321-0.171,31.981c-0.054,5.85,0.89,11.602,1.531,17.384
		c0.425,3.831,0.511,7.611-0.395,11.407c-1.52,6.367-5.235,9.66-11.847,10.132c-3.825,0.273-7.677,0.231-11.461-0.361
		c-6.14-0.961-12.282-1.097-18.402-0.204c-2.418,0.353-4.706-0.008-6.894-0.591c-3.704-0.986-5.643-3.831-6.52-7.491
		c-1.182-4.928-0.958-9.938-0.835-14.919c0.932-37.964,0.699-75.935,0.654-113.904c-0.023-18.979-0.299-37.958-0.46-56.938
		c-0.006-0.666-0.002-1.333,0-1.999c0.023-10.672,2.716-13.58,13.265-13.171c23.642,0.916,47.286,0.195,70.928,0.42
		c9.17,0.087,18.298,0.363,27.12,3.248c24.182,7.91,39.221,24.226,42.892,49.453c2.84,19.517-2.029,37.665-14.473,53.355
		c-4.539,5.723-10.389,9.743-17.32,12.156c-1.72,0.599-3.445,1.226-5.078,2.024c-5.387,2.631-6.018,4.789-2.758,9.716
		c1.465,2.214,3.143,4.294,4.798,6.376c18.122,22.803,35.721,46.008,53.186,69.315C923.365,213.974,923.655,214.55,924.457,215.862z
		 M805.029,82.502c0,3.487-0.09,6.977,0.021,10.461c0.18,5.659,3.464,8.725,9.033,7.886c6.211-0.935,12.477-1.941,18.412-4.058
		c18.474-6.592,19.357-28.294,8.78-38.623c-8.123-7.933-18.234-10.607-29.391-8.609c-6.255,1.12-7.571,3.333-7.029,9.752
		c0.237,2.809,1.705,5.558,1.008,8.348C804.628,72.598,805.515,77.562,805.029,82.502z"/>
	<path style="fill:#09A9A9;" d="M224.084,342.957c-24.237,2.112-48.528,1.05-72.797,1.209c-15.645,0.102-31.292-0.178-46.935,0.024
		c-4.427,0.057-7.203-1.637-9.335-5.243c-17.309-29.276-34.634-58.542-51.996-87.787c-11.686-19.684-23.444-39.326-35.158-58.994
		c-2.292-3.848-4.414-7.801-6.834-11.565c-1.211-1.884-1.131-3.737-0.869-5.728c40.216,0.043,80.432,0.088,120.648,0.121
		c1.327,0.001,2.654-0.125,3.98-0.192c3.035,1.705,4.705,4.607,6.382,7.453c6.223,10.558,12.329,21.185,18.581,31.725
		c16.229,27.361,32.463,54.72,48.795,82.019c7.979,13.338,15.842,26.751,24.364,39.758
		C222.966,338.212,223.311,340.62,224.084,342.957z"/>
	<path style="fill:#164980;" d="M224.084,342.957c-0.773-2.338-1.118-4.745-1.173-7.2c1.033-3.204,3.036-5.88,4.729-8.729
		c28.558-48.064,57.095-96.141,85.669-144.196c1.943-3.268,3.855-6.611,7.004-8.959c1.827,1.675,4.083,1.107,6.19,1.107
		c37.622-0.002,75.243-0.032,112.865-0.071c1.658-0.002,3.316-0.15,4.974-0.229c1.612,2.268,0.88,4.424-0.427,6.46
		c-12.656,19.721-24.169,40.128-36.161,60.247c-18.119,30.4-36.061,60.907-54.089,91.361c-0.761,1.286-1.625,2.511-2.461,3.752
		c-3.417,5.073-8.179,7.673-14.306,7.629c-12.818-0.092-25.636-0.223-38.454-0.347c-1.33-0.013-2.658-0.124-3.988-0.134
		c-22.631-0.169-45.262-0.326-67.893-0.498C225.738,343.144,224.911,343.024,224.084,342.957z"/>
	<path style="fill:#164980;" d="M124.789,174.802c-1.327,0.067-2.654,0.193-3.98,0.192c-40.216-0.033-80.432-0.078-120.648-0.121
		c0.417-3.235,2.47-5.741,3.911-8.491c12.039-22.965,25.755-44.959,39.048-67.199C59.48,71.809,75.728,44.367,92.032,16.96
		c0.849-1.427,1.707-2.855,2.661-4.212c2.484-3.533,5.912-5.128,10.242-5.098c36.617,0.258,73.234,0.472,109.851,0.718
		c1.325,0.009,2.649,0.221,3.974,0.338c-0.539,1.498-1.564,3.231,1.454,3.014c1.745,3.248,0.339,6.137-1.168,8.915
		c-1.345,2.479-2.987,4.796-4.431,7.224c-27.196,45.721-54.397,91.438-81.54,137.19
		C130.847,168.804,128.397,172.268,124.789,174.802z"/>
	<path style="fill:#09A9A9;" d="M220.214,11.72c-3.018,0.218-1.993-1.515-1.454-3.014c10.992,0.023,22,0.443,32.972-0.009
		c29.115-1.199,58.241-0.245,87.352-0.88c5.701-0.124,9.186,1.93,12.011,6.882c18.013,31.579,37.282,62.413,55.854,93.662
		c12.294,20.685,24.437,41.459,35.749,62.705c0.621,1.166,1.099,2.407,1.643,3.613c-1.658,0.08-3.316,0.228-4.974,0.229
		c-37.622,0.039-75.243,0.069-112.865,0.071c-2.107,0-4.363,0.568-6.19-1.107c-0.617-2.818-2.304-5.129-3.73-7.531
		c-7.448-12.546-15.154-24.942-22.463-37.568c-22.084-38.149-46.104-75.156-67.144-113.92C225.36,11.877,223.6,11.163,220.214,11.72
		z"/>
	<path style="fill:#1A4A81;" d="M938.417,112.001c0-27.98-0.014-55.96,0.015-83.94c0.004-4.158-0.591-8.316-0.053-12.472
		c0.778-6.004,3.381-8.578,9.163-8.072c8.018,0.702,15.896-0.669,23.835-1.033c4.867-0.223,9.645-0.017,14.287,1.383
		c6.435,1.94,9.158,5.686,9.562,12.386c0.514,8.529-0.826,16.945-1.65,25.374c-0.394,4.031,0.112,7.946,0.119,11.913
		c0.05,26.314,0.338,52.634-0.109,78.941c-0.215,12.646-0.49,25.297-0.238,37.929c0.202,10.145,0.302,20.289,0.371,30.434
		c0.008,1.165,0.076,2.341-0.043,3.495c-0.573,5.538-2.812,7.758-8.393,7.624c-12.815-0.309-25.622-0.311-38.436,0
		c-5.69,0.138-7.693-1.85-8.438-7.556c-0.564-4.32,0.02-8.644,0.018-12.966C938.408,167.628,938.417,139.814,938.417,112.001z"/>
	<path style="fill:#1C4D83;" d="M1318.195,311.771c0-1.557,0-3.135,0-4.713c0-13.333-0.009-26.666,0.013-39.999
		c0.002-1.49-0.004-3.019,0.313-4.46c0.756-3.431,2.718-5.148,6.186-5.523c1.484-0.161,3.003-0.162,4.494-0.06
		c3.735,0.256,5.179,1.637,6.131,5.353c0.381,1.487,0.401,2.96,0.401,4.456c0.002,20,0.023,39.999-0.017,59.999
		c-0.008,3.964-0.409,7.887,0.188,11.891c0.578,3.875-1.384,5.735-5.372,6.238c-5.141,0.647-9.017-1.339-12.057-5.45
		c-7.028-9.505-14.123-18.961-21.232-28.407c-4.704-6.251-9.451-12.471-14.243-18.655c-1.045-1.349-1.99-3.403-4.406-1.748
		c-0.933,1.3-0.489,2.851-0.493,4.303c-0.036,13.5,0.001,26.999-0.03,40.499c-0.018,7.711-6.51,11.424-13.428,7.776
		c-1.438-0.759-2.242-1.837-2.668-3.386c-0.495-1.796-0.579-3.598-0.578-5.437c0.014-20.333-0.008-40.666,0.023-60.999
		c0.006-3.797,0.319-7.561-0.18-11.39c-0.523-4.016,1.265-5.659,5.361-6.181c5.21-0.665,8.932,1.554,11.958,5.625
		c8.044,10.823,16.16,21.595,24.306,32.342c4.222,5.569,8.215,11.321,12.947,16.49
		C1316.344,310.912,1316.682,311.796,1318.195,311.771z"/>
	<path style="fill:#184B82;" d="M1089.301,300.464c-0.345,17.11-6.499,31.267-22.016,39.742
		c-24.117,13.17-57.891,1.744-62.296-32.19c-1.503-11.578,0.054-22.547,6.088-32.634c6.974-11.658,17.51-17.987,30.887-19.323
		C1072.058,253.051,1090.047,277.197,1089.301,300.464z M1071.526,300.036c0.032-3.272-0.359-6.407-1.556-9.375
		c-3.633-9.011-9.658-15.642-19.477-17.588c-10.381-2.057-20.721,4.07-25.443,14.294c-6.843,14.816,0.363,30.878,10.983,37.921
		c5.812,3.854,12.074,5.033,18.367,1.575C1064.93,321.078,1070.633,312.02,1071.526,300.036z"/>
	<path style="fill:#184B82;" d="M693.211,255.835c19.847-0.483,37.323,13.791,41.703,33.966c3.031,13.961,0.754,27.136-7.83,38.818
		c-7.398,10.068-17.44,15.556-29.941,16.549c-12.142,0.965-23.004-2.054-32.194-10.242c-5.597-4.986-9.324-11.26-11.492-18.36
		c-3.286-10.761-3.336-21.607,0.157-32.354C659.34,266.596,674.331,255.896,693.211,255.835z M668.741,298.109
		c-0.099,8.936,2.754,15.864,7.894,21.878c9.539,11.163,21.523,11.632,31.906,1.323c13.111-13.017,12.847-31.626-0.61-42.99
		c-8.281-6.993-18.707-7.569-27.551-1.334C672.801,282.33,669.209,289.885,668.741,298.109z"/>
	<path style="fill:#184B82;" d="M1422.303,275.667c-1.589,2.136-3.774,3.689-6.095,4.93c-3.479,1.86-6.991,1.761-10.375-0.521
		c-1.952-1.317-3.573-2.973-5.263-4.577c-6.34-6.016-13.416-6.822-20.922-2.33c-7.276,4.354-11.47,10.97-13.354,19.067
		c-1.735,7.461-1.232,14.82,1.514,22.041c1.637,4.307,4.241,7.823,7.552,10.967c8.456,8.031,21.811,5.39,27.809-1.549
		c2.595-3.002,3.969-6.397,3.979-10.476c-3.474-1.454-6.956-1.14-10.396-1.223c-5.163-0.124-6.687-1.945-6.55-7.704
		c0.122-5.119,1.955-7.144,6.948-6.895c6.444,0.321,12.882-0.162,19.345,0.492c10.591,1.072,13.686,5.081,10.586,15.112
		c-2.014,6.516-4.545,12.826-8.627,18.402c-5.942,8.119-13.942,12.532-23.896,13.703c-7.555,0.889-14.986,0.478-21.995-2.496
		c-13.098-5.558-20.562-15.987-23.839-29.466c-4.491-18.473-0.012-34.699,13.744-47.857
		C1377.624,250.793,1407.81,249.112,1422.303,275.667z"/>
	<path style="fill:#184B82;" d="M554.731,313.845c-1.261-1.533-2.97-1.919-4.896-1.853c-1.83,0.063-3.665,0.042-5.496,0.007
		c-4.881-0.093-6.881-2.184-6.815-7.082c0.073-5.367,2.166-7.755,7.034-7.541c7.277,0.321,14.581-0.603,21.839,0.517
		c1.634,0.252,3.29,0.173,4.893,0.817c3.53,1.417,5.134,3.021,4.563,6.741c-2.03,13.221-5.728,25.721-17.615,33.842
		c-7.282,4.975-15.429,6.29-24.128,5.971c-7.73-0.283-14.765-2.238-21.035-6.715c-9.138-6.524-14.185-15.656-16.35-26.486
		c-2.857-14.294-1.023-27.801,7.403-39.979c12.851-18.573,37.744-20.855,54.178-10.582c3.834,2.397,6.871,5.767,10.177,8.785
		c2.365,2.159,2.25,4.2,0.177,6.528c-1.559,1.75-3.385,3.24-5.458,4.318c-3.217,1.674-6.416,1.617-9.33-0.749
		c-1.935-1.57-3.71-3.343-5.684-4.859c-9.737-7.473-21.325-5.882-28.309,4.141c-7.805,11.202-11.182,28.971,1.237,43.423
		c9.439,10.984,26.87,8.963,32.883-3.967C554.772,317.461,555.56,315.778,554.731,313.845z"/>
	<path style="fill:#184B82;" d="M1174.126,346.098c-3.704,0-7.408,0-11.112,0c-0.497-0.055-1.001-0.072-1.489-0.17
		c-9.801-1.966-10.61-2.862-10.605-12.624c0.008-17.657,0.105-35.314,0.137-52.971c0.007-3.82-0.249-7.626-0.506-11.443
		c-0.524-7.793,1.829-11.566,10.299-11.886c9.89-0.374,19.603,0.613,28.96,4.037c17.896,6.549,26.392,20.979,26.55,37.661
		c0.12,12.687-3.389,23.67-12.417,32.545C1195.678,339.37,1185.765,344.56,1174.126,346.098z M1198.202,300.617
		c0-1.495,0.056-2.992-0.009-4.484c-0.622-14.309-9.774-20.136-19.343-22.944c-5.072-1.488-8.504,0.726-9.713,5.819
		c-0.571,2.407-0.909,4.872-0.952,7.403c-0.191,11.286,0.647,22.575-0.106,33.858c-0.044,0.663-0.048,1.337,0.016,1.997
		c0.392,4.019,2.444,5.85,6.539,5.868c10.507,0.044,19.953-7.407,22.67-17.626C1198.177,307.222,1198.032,303.916,1198.202,300.617z
		"/>
	<path style="fill:#184B82;" d="M644.93,342.418c-11.726,4.156-19.835,1.504-26.306-8.66c-2.674-4.2-4.964-8.642-7.556-12.896
		c-1.53-2.511-3.112-5.045-6.26-7.164c0,7.347,0.005,14.098-0.005,20.85c-0.002,1.322,0.114,2.679-0.134,3.959
		c-0.7,3.606-2.345,5.022-6.072,5.492c-0.66,0.083-1.327,0.122-1.992,0.146c-7.558,0.276-9.53-1.593-9.534-9.156
		c-0.013-23.31-0.01-46.62-0.001-69.931c0.002-5.712,1.457-7.626,7.003-9.189c4.591-1.294,9.168-0.91,13.811-0.054
		c8.142,1.5,15.627,4.482,22.269,9.407c4.398,3.261,7.452,7.345,8.301,13.082c0.543,3.666,0.804,7.298,0.511,10.921
		c-0.406,5.029-2.665,9.045-7.048,11.984c-8.415,5.644-8.809,8.595-2.87,17.019C634.599,326.102,639.837,334.179,644.93,342.418z
		 M604.412,287.807c0,1.408,0.022,2.073-0.003,2.736c-0.194,5.088,1.914,6.987,6.88,6.187c8.171-1.316,12.638-8.714,10.094-16.717
		c-1.742-5.48-7.201-8.835-12.786-7.858c-3.026,0.53-4.812,2.18-4.25,5.051C605.097,281.045,604.199,284.78,604.412,287.807z"/>
	<path style="fill:#174C82;" d="M992.233,300.506c0,11.992,0.023,23.983-0.01,35.975c-0.016,5.887-1.499,7.364-7.314,7.52
		c-0.499,0.013-0.999,0.002-1.499,0.003c-6.65,0.009-8.204-1.491-8.194-8.179c0.012-7.325,0.123-14.649,0.2-21.974
		c0.036-3.428-0.961-6.396-4.418-7.626c-1.995-0.71-4.283-1.181-6.357-0.966c-4.645,0.481-9.3,0.349-13.94,0.677
		c-4.864,0.344-6.732,1.717-6.352,6.355c0.654,7.973-0.675,15.909,0.137,23.866c0.577,5.651-1.713,7.912-7.474,7.919
		c-1.331,0.001-2.684,0.027-3.987-0.193c-3.282-0.554-4.858-2.377-5.101-5.769c-0.083-1.16-0.018-2.331-0.018-3.497
		c0-22.484,0-44.969,0-67.453c0-0.333-0.001-0.666,0-0.999c0.037-7.756,4.566-11.101,12.028-8.885
		c3.464,1.029,4.94,3.806,4.607,8.322c-0.442,5.989-0.179,11.968,1.404,17.77c1.793,6.572,5.514,9.298,12.293,9.459
		c4.188,0.099,8.281-0.591,12.287-1.742c3.733-1.072,4.597-2.134,4.652-5.994c0.088-6.161,0.022-12.324,0.025-18.487
		c0-1.166-0.128-2.356,0.063-3.491c0.218-1.292,0.408-2.785,1.167-3.755c3.053-3.901,7.313-2.346,11.109-1.85
		c3.354,0.438,4.57,2.334,4.665,6.019c0.098,3.828,0.023,7.661,0.024,11.491C992.233,283.518,992.233,292.012,992.233,300.506z"/>
	<path style="fill:#1C4D83;" d="M794.195,288.514c0-7.825-0.032-15.65,0.011-23.474c0.031-5.705,1.745-7.762,6.524-8.045
		c7.179-0.426,10.227,1.548,10.936,7.182c0.165,1.313,0.067,2.66,0.067,3.992c0.004,11.654,0.191,23.312-0.075,34.96
		c-0.14,6.115-0.303,12.259-1.52,18.333c-2.685,13.404-11.58,22.601-26.217,23.793c-5.388,0.439-10.59,0.153-15.764-1.163
		c-9.339-2.376-15.139-8.462-18.193-17.458c-1.786-5.261-2.441-10.702-2.513-16.175c-0.198-15.145-0.197-30.293-0.232-45.441
		c-0.014-6.04,2.338-8.153,8.729-8.026c6.183,0.123,9.127,2.895,8.694,8.914c-0.837,11.637-0.258,23.274-0.348,34.909
		c-0.041,5.304,0.223,10.648,0.861,15.912c1.355,11.184,7.487,14.302,17.712,13.05c4.38-0.536,7.599-3.278,9.153-7.561
		c1.429-3.938,1.956-8.056,2.035-12.23c0.069-3.661,0.112-7.322,0.135-10.984C794.212,295.507,794.195,292.011,794.195,288.514z"/>
	<path style="fill:#174C82;" d="M843.936,257.135c6.869-0.391,13.586,0.308,20.107,2.679c7.623,2.772,12.409,8.001,14.432,15.845
		c2.06,7.988,1.782,15.875-1.664,23.366c-3.402,7.395-9.386,11.421-17.64,11.848c-2.481,0.128-4.97-0.028-7.424,0.68
		c-5.335,1.54-7.581,4.043-7.73,9.564c-0.135,4.986,0.065,9.981,0.154,14.972c0.104,5.894-1.694,7.801-7.542,7.913
		c-0.666,0.013-1.332,0.008-1.998,0.001c-6.861-0.076-8.052-1.858-7.868-8.79c0.278-10.468,0.227-20.949-0.089-31.433
		c-0.244-8.097-1.584-16.242,0.315-24.341c0.534-2.279,0.258-4.637-0.274-6.934c-0.262-1.13-0.417-2.289-0.735-3.403
		c-1.811-6.338-0.12-11.052,8.975-11.923C837.923,256.896,840.941,257.135,843.936,257.135z M843.963,274.483
		c-0.363,6.098,0.468,12.55-0.134,18.97c-0.175,1.861,1.253,2.966,3.013,3.477c5.296,1.535,11.835-1.34,13.916-6.119
		c2.72-6.247,1.167-13.637-3.932-16.42C852.903,272.249,848.599,270.403,843.963,274.483z"/>
	<path style="fill:#184B82;" d="M1490.169,309.944c0.006,4.374,0.012,8.748,0.018,13.121c-1.396,10.946-7.641,17.818-18.034,20.882
		c-12.192,3.594-22.996,1.434-31.741-8.377c-4.72-5.296-2.393-12.927,4.523-14.815c1.672-0.457,2.986,0.068,4.09,1.119
		c1.074,1.023,1.919,2.284,2.893,3.415c2.492,2.893,5.496,4.789,9.453,4.841c4.971,0.065,9.437-2.628,10.501-6.856
		c1.098-4.362,1.384-9.98-3.758-13.443c-2.791-1.88-5.905-3.036-8.879-4.501c-2.529-1.246-5.179-2.256-7.664-3.581
		c-10.554-5.628-13.856-14.605-11.984-26.077c2.377-14.564,17.766-23.355,32.806-19.279c4.187,1.135,8.212,2.753,11.768,5.279
		c3.278,2.33,3.521,4.159,1.344,7.591c-0.178,0.28-0.379,0.546-0.565,0.822c-4.128,6.118-4.153,6.16-10.36,2.472
		c-3.365-1.999-6.964-2.2-10.615-1.472c-3.334,0.665-5.617,3.541-6.144,7.076c-0.527,3.532,0.73,6.165,3.828,7.953
		c4.757,2.745,9.803,4.891,14.757,7.232C1483.556,296.725,1488.578,301.926,1490.169,309.944z"/>
	<path style="fill:#164D84;" d="M1118.728,292.64c0,8.816-0.052,17.633,0.016,26.449c0.057,7.466,3.609,10.486,11.065,9.626
		c1.974-0.228,3.971-0.604,5.936-0.501c4.109,0.215,6.014,2.129,6.364,6.203c0.141,1.643,0.124,3.347-0.15,4.967
		c-0.47,2.792-2.291,4.581-5.073,4.567c-8.151-0.04-16.312,0.631-24.45-0.052c-6.661-0.559-9.152-3.158-10.566-9.848
		c-0.767-3.631-0.767-7.275-0.778-10.918c-0.059-19.136-0.029-38.273-0.025-57.409c0-0.998-0.108-2.028,0.1-2.985
		c0.242-1.115,0.534-2.363,1.223-3.213c2.877-3.545,6.955-2.63,10.674-2.364c2.903,0.207,4.679,2.186,5.465,5.066
		c0.45,1.65,0.4,3.293,0.403,4.948c0.015,8.488,0.007,16.976,0.007,25.464C1118.869,292.64,1118.798,292.64,1118.728,292.64z"/>
	<path style="fill:#125186;" d="M1245.225,300.823c0,11.662-0.036,23.324,0.024,34.985c0.016,3.123,0.013,6.504-3.361,7.622
		c-3.953,1.309-8.21,1.553-11.967-1.061c-1.117-0.777-1.666-2.002-1.928-3.385c-0.437-2.3-0.705-4.603-0.572-6.941
		c1.106-19.468,0.278-38.952,0.426-58.427c0.028-3.631-0.664-7.241,0.097-10.904c0.571-2.746,1.996-4.532,4.64-5.279
		c2.774-0.783,5.66-0.726,8.412-0.157c2.24,0.463,3.731,2.19,4.045,4.573c0.194,1.479,0.177,2.991,0.178,4.488
		C1245.231,277.833,1245.225,289.328,1245.225,300.823z"/>
</g>
</svg>
