<?xml version="1.0" encoding="iso-8859-1"?>
<!-- Generator: Adobe Illustrator 27.0.0, SVG Export Plug-In . SVG Version: 6.00 Build 0)  -->
<svg version="1.1" id="Layer_1" xmlns="http://www.w3.org/2000/svg" xmlns:xlink="http://www.w3.org/1999/xlink" x="0px" y="0px"
	 viewBox="0 0 1584.299 252.011" style="enable-background:new 0 0 1584.299 252.011;" xml:space="preserve">
<g>
	<path style="fill:#060606;" d="M418.299,0c0,21.636,0,43.272,0,65.186c-9.896,2.291-19.563,4.58-29.254,6.761
		c-15.058,3.389-30.249,6.111-45.466,8.643c-10.646,1.771-21.39,2.941-32.082,4.441c-11.369,1.594-22.793,2.686-34.23,3.59
		c-10.621,0.839-21.252,1.774-31.895,2.043c-15.98,0.403-31.946,1.4-47.962,0.754c-12.813-0.517-25.651-0.646-38.437-1.59
		c-13.765-1.016-27.535-1.969-41.268-3.54c-13.709-1.568-27.385-3.367-41.003-5.496c-14.912-2.331-29.772-5.058-44.51-8.375
		C22.489,70.232,12.793,68.02,3.1,65.791c-0.628-0.144-1.197-0.545-1.793-0.826c0-21.336,0.001-42.673,0.001-64.009
		C2.604,0.804,3.491,1.73,4.467,2.276c58.971,33.002,122.292,50.677,189.729,53.636c22.832,1.002,45.624-0.343,68.28-3.168
		c18.94-2.362,37.669-6.142,56.082-11.178c30.622-8.375,59.965-20.104,88.047-34.92c3.695-1.949,7.715-3.497,10.695-6.647
		C417.632,0,417.966,0,418.299,0z"/>
	<path style="fill:#060606;" d="M1.305,187.027c8.974-2.922,18.196-4.883,27.38-6.967c15.038-3.413,30.201-6.242,45.418-8.684
		c13.109-2.103,26.276-3.873,39.469-5.458c12.718-1.528,25.482-2.409,38.226-3.556c6.625-0.596,13.286-0.854,19.937-1.089
		c27.124-0.96,54.236-1.103,81.361,0.408c12.127,0.675,24.248,1.437,36.338,2.485c11.906,1.031,23.764,2.681,35.614,4.276
		c13.483,1.815,26.897,4.091,40.274,6.578c17.426,3.24,34.718,7.079,51.849,11.631c0.307,0.082,0.572,0.321,1.126,0.643
		c0,21.465,0,43.086,0,64.706c-0.333,0-0.667,0-1,0c0.101-0.58-0.25-0.836-0.7-1.096c-23.173-13.409-47.5-24.308-72.823-32.918
		c-23.268-7.911-47.054-13.721-71.409-17.369c-16.331-2.446-32.723-3.982-49.172-4.509c-23.654-0.757-47.246,0.409-70.742,3.675
		c-19.761,2.746-39.241,6.675-58.384,12.232c-28.096,8.155-55.139,18.938-80.935,32.803c-3.921,2.107-7.526,4.833-11.825,6.225
		C1.308,229.704,1.306,208.366,1.305,187.027z"/>
	<path style="fill:#070606;" d="M0.299,95c16.842,1.96,33.665,4.113,50.532,5.82c13.573,1.373,27.207,2.128,40.802,3.294
		c24.243,2.079,48.556,2.759,72.855,3.486c31.145,0.932,62.305,1.04,93.455-0.194c12.318-0.488,24.639-0.897,36.958-1.36
		c13.978-0.525,27.93-1.418,41.861-2.705c9.61-0.888,19.253-1.429,28.859-2.355c10.757-1.037,21.49-2.325,32.231-3.521
		c6.607-0.736,13.211-1.506,20.165-2.3c0,20.424,0,40.821,0,61.6c-6.035-0.709-12.054-1.438-18.078-2.118
		c-8.097-0.913-16.191-1.851-24.299-2.66c-9.767-0.974-19.541-1.88-29.32-2.71c-9.785-0.83-19.572-1.698-29.375-2.252
		c-18.122-1.024-36.247-2.11-54.387-2.649c-17.984-0.535-35.987-0.519-53.983-0.572c-14.33-0.043-28.667-0.074-42.988,0.338
		c-18.974,0.546-37.953,1.089-56.893,2.563c-12.116,0.943-24.272,1.376-36.385,2.347c-12.601,1.01-25.156,2.606-37.76,3.547
		c-11.113,0.83-22.081,2.994-33.235,3.339c-0.007-18.136,0.012-36.271-0.067-54.407C1.24,100.024,2.202,98.165,0.299,97
		C0.299,96.333,0.299,95.667,0.299,95z"/>
	<path style="fill:#181616;" d="M1584.299,60c-1.428-0.138-2.855-0.275-4.544-0.438c-0.834-3.506-0.165-7.068-0.447-10.565
		c0.687-0.251,0.995-0.732,0.68-1.411c-0.091-0.197-0.544-0.38-0.781-0.33c-1.05,0.222-0.893,1.075-0.858,1.843
		c-0.553,3.799-2.483,7.15-3.379,10.725c-1.036,0.565-1.983,0.764-3.364,0.356c-1.906-2.548-1.827-6.32-4.145-9.43
		c-1.59,2.916-0.03,6.024-1.2,8.626c-1.358,0.558-2.623,0.617-4.122-0.138c0-5.5,0-11.099,0-16.957
		c2.082-0.55,4.188-0.251,6.592-0.22c1.293,3.132,2.597,6.289,4.03,9.761c2.537-2.777,2.629-6.616,4.737-9.586
		c1.831-0.456,3.803-0.273,5.775-0.1c0.017,4.281,0.01,8.563,0.067,12.844c0.014,1.072-0.473,2.37,0.959,3.018
		C1584.299,58.667,1584.299,59.333,1584.299,60z"/>
	<path style="fill:#3F3D3D;" d="M1.299,0c-0.134,0.32-0.131,0.639,0.01,0.956c0,21.336-0.001,42.673-0.001,64.009
		C0.971,64.977,0.635,64.988,0.299,65c0-20.842-0.017-41.684,0.07-62.526C0.372,1.735-0.914,0.065,1.299,0z"/>
	<path style="fill:#3F3D3D;" d="M1.309,251.043c-0.141,0.317-0.144,0.636-0.01,0.957c-1.972,0.153-0.946-1.372-0.948-2
		c-0.063-21-0.052-42-0.052-63c0.335,0.009,0.671,0.018,1.006,0.027C1.306,208.366,1.308,229.704,1.309,251.043z"/>
	<path style="fill:#413F3E;" d="M0.299,97c1.903,1.165,0.941,3.024,0.948,4.529c0.079,18.135,0.06,36.271,0.067,54.407
		c-0.338,0.021-0.676,0.043-1.015,0.064C0.299,136.333,0.299,116.667,0.299,97z"/>
	<path style="fill:#434140;" d="M1584.299,58c-1.433-0.648-0.945-1.946-0.959-3.018c-0.057-4.281-0.05-8.563-0.067-12.844
		c0.342-0.046,0.684-0.092,1.026-0.138C1584.299,47.333,1584.299,52.667,1584.299,58z"/>
	<path style="fill:#060606;" d="M1502.601,209.554c-12.348-21.349-24.638-42.598-37.024-64.012c-11.499,0-22.937,0-34.947,0
		c0,21.283,0,42.502,0,63.964c-13.643,0-26.716,0-40.04,0c0-55.773,0-111.353-0.003-166.933c0.61-0.793,1.495-0.565,2.287-0.565
		c29.33,0.001,58.659-0.013,87.989,0.043c8.722,0.017,17.182,1.661,25.278,4.913c18.226,7.322,27.266,21.243,29.215,40.437
		c0.922,9.081,0.392,17.928-2.65,26.534c-4.545,12.856-13.407,21.542-26.367,26.428c13.071,23.016,26.056,45.881,39.294,69.19
		C1531.021,209.554,1517.091,209.554,1502.601,209.554z M1430.75,111.73c3.926,0,7.559,0.063,11.19-0.012
		c12.151-0.251,24.313,0.543,36.46-0.538c10.719-0.954,19.024-9.408,15.088-23.241c-1.446-5.082-4.947-8.173-9.756-9.82
		c-2.504-0.858-5.14-1.271-7.847-1.27c-14.327,0.009-28.655-0.061-42.982-0.088c-0.638-0.001-1.276,0.159-2.152,0.275
		C1430.75,88.426,1430.75,99.699,1430.75,111.73z"/>
	<path style="fill:#070606;" d="M612.496,38.697c17.318-0.08,33.6,3.857,48.464,12.85c20.237,12.243,32.98,30.097,38.154,53.09
		c3.988,17.719,3.262,35.408-3.252,52.491c-9.667,25.35-27.642,42.494-53.466,50.478c-26.67,8.245-52.905,6.497-77.494-7.577
		c-21.559-12.34-34.431-31.238-39.51-55.434c-3.561-16.967-2.521-33.764,3.342-50.077c8.531-23.736,25.03-39.891,48.214-49.416
		C588.335,40.424,600.296,38.872,612.496,38.697z M607.35,176.313c22.513-0.165,36.09-6.992,45.215-21.922
		c4.972-8.135,7.083-17.162,7.403-26.536c0.487-14.262-3.147-27.386-12.852-38.182c-10.104-11.241-23.024-15.754-38.032-14.816
		c-17.324,1.083-30.378,9.058-38.504,24.339c-5.844,10.989-7.286,22.842-5.552,35.259
		C568.304,157.918,585.968,176.688,607.35,176.313z"/>
	<path style="fill:#070606;" d="M1231.581,42.181c43.599,0,86.858,0,130.359,0c0,10.908,0,21.635,0,32.799
		c-29.878,0-59.605,0-89.522,0c0,10.507,0,20.577,0,30.966c20.114,0,40.047,0,60.698,0c0.009,5.879,0.021,11.471,0.026,17.063
		c0.004,5.48,0.001,10.961,0.001,17.07c-5.068,0.415-9.994,0.148-14.897,0.195c-5.164,0.049-10.329,0.011-15.494,0.011
		c-4.998,0-9.996,0-14.995,0c-4.971,0-9.942,0-15.22,0c0,11.525,0,22.739,0,34.296c31.702,0,63.305,0,94.811,0
		c1.049,3.749,1.356,25.358,0.55,34.831c-45.337,0-90.705,0-136.317,0C1231.581,153.729,1231.581,98.159,1231.581,42.181z"/>
	<path style="fill:#070707;" d="M1039.532,84.013c-13.453,0-26.896,0-40.385,0c-11.579-12.591-29.062-16.835-45.365-10.976
		c-8.568,3.079-12.478,10.709-9.63,18.454c1.383,3.76,4.229,5.936,7.614,7.404c3.64,1.579,7.465,2.646,11.452,3.206
		c14.123,1.984,28.425,2.871,42.215,6.928c6.394,1.881,12.539,4.295,18.233,7.783c15.348,9.404,20.759,23.799,20.83,41.024
		c0.103,24.798-14.748,41.802-35.856,49.128c-15.515,5.385-31.488,6.137-47.744,4.249c-12.904-1.499-25.033-5.092-35.971-12.093
		c-14.166-9.067-23.356-21.809-27.44-38.599c14.407,0,28.492,0,42.838,0c3.532,7.27,9.389,12.369,16.93,15.197
		c10.345,3.88,21.046,4.674,31.828,1.854c3.386-0.886,6.477-2.527,9.096-4.977c6.462-6.046,6.472-20.394-3.842-25.589
		c-6.161-3.103-12.868-4.212-19.609-5.059c-14.319-1.798-28.661-3.412-42.183-8.986c-7.637-3.148-14.494-7.39-19.978-13.64
		c-8.393-9.567-10.917-21.04-10.599-33.369c0.46-17.817,9.234-30.428,24.603-38.78c10.406-5.656,21.744-8.119,33.418-8.852
		c14.723-0.925,29.234,0.47,43.156,5.76c17.081,6.49,29.304,17.89,35.452,35.376C1039.092,80.865,1039.675,82.211,1039.532,84.013z"
		/>
	<path style="fill:#050505;" d="M726.351,42.218c13.636,0,26.731,0,40.198,0c0,1.992,0,3.783,0,5.575
		c-0.001,29.664-0.01,59.329,0.004,88.993c0.003,5.335,0.361,10.641,1.713,15.835c3.672,14.11,14.547,22.852,29.171,23.467
		c5.504,0.232,10.931,0.049,16.265-1.656c11.645-3.723,17.682-12.239,20.614-23.555c1.101-4.249,1.082-8.568,1.082-12.897
		c0.001-30.164,0.001-60.329,0.001-90.493c0-1.638,0-3.277,0-5.199c13.504,0,26.733,0,39.952,0c0.652,1.556,0.354,3.054,0.354,4.509
		c0.02,30.998,0.023,61.995,0.007,92.993c-0.005,10.698-1.139,21.201-5.139,31.269c-7.176,18.062-20.105,30.093-38.097,37.046
		c-9.773,3.777-19.895,5.052-30.279,5.16c-13.445,0.14-26.537-1.5-38.818-7.339c-19.21-9.134-30.552-24.442-35.051-45.047
		c-1.533-7.021-2.014-14.127-2.001-21.307c0.056-30.831,0.024-61.662,0.024-92.493C726.351,45.597,726.351,44.115,726.351,42.218z"
		/>
	<path style="fill:#0A0909;" d="M1110.843,76.761c-10.159,0-19.607,0-29.055,0c-9.299,0-18.597,0-28.202,0
		c0-11.549,0-22.802,0-34.41c51.307,0,102.821,0,154.595,0c0,11.497,0,23.035,0,34.944c-18.985,0-37.734,0-56.88,0
		c0,44.257,0,88.147,0,132.372c-13.63,0-26.866,0-40.458,0C1110.843,165.704,1110.843,121.627,1110.843,76.761z"/>
	<path style="fill:#2D2B2B;" d="M1552.564,59.568c-1.681,0.266-3.136,0.562-4.891-0.38c0-4.079,0-8.322,0-12.207
		c-1.662-1.749-3.58-0.373-5.047-1.439c-0.586-0.981-0.504-2.052-0.004-3.358c5.326,0,10.699,0,15.926,0
		c0.796,1.111,0.57,2.067,0.364,3.069c-1.487,1.459-3.494,0.242-5.456,1.059C1552.323,50.536,1554.027,55.237,1552.564,59.568z"/>
	<path style="fill:#434140;" d="M1578.349,49.099c-0.035-0.768-0.192-1.621,0.858-1.843c0.236-0.05,0.689,0.133,0.781,0.33
		c0.315,0.679,0.007,1.16-0.68,1.411C1578.988,49.031,1578.669,49.065,1578.349,49.099z"/>
</g>
</svg>
