<?xml version="1.0" encoding="iso-8859-1"?>
<!-- Generator: Adobe Illustrator 27.0.0, SVG Export Plug-In . SVG Version: 6.00 Build 0)  -->
<svg version="1.1" id="Layer_1" xmlns="http://www.w3.org/2000/svg" xmlns:xlink="http://www.w3.org/1999/xlink" x="0px" y="0px"
	 viewBox="0 0 1447 467" style="enable-background:new 0 0 1447 467;" xml:space="preserve">
<g>
	<path style="fill:#2B3F83;" d="M0,461c4.269-5.925,6.926-12.738,10.47-19.064c4.378-7.814,8.46-15.794,12.804-23.628
		c2.666-4.809,4.214-5.391,9.776-4.642c2.453,0.33,4.929,0.493,7.947,0.786c1.381,5.37,0.791,11.019,1.653,16.476
		c0.853,5.396,1.041,10.903,1.399,16.37c0.357,5.444,1.854,10.866,1.042,16.384c-2.893,0.303-5.185,0.617-7.487,0.766
		c-2.944,0.191-4.299-0.994-4.592-3.888c-0.083-0.824,0.049-1.67-0.04-2.493c-0.304-2.802-1.424-4.044-4.129-3.813
		c-2.171,0.185-4.256-0.012-6.383-0.22c-3.469-0.339-6.37,0.925-7.97,3.987c-1.439,2.755-2.867,5.131-6.173,5.909
		C5.514,464.588,2.778,464.669,0,464C0,463,0,462,0,461z M21.729,444.496c3.789,0.924,6.983,0.865,10.108,0.19
		c1.525-4.477,0.666-15.711-1.716-19.007C27.212,432.037,23.14,437.504,21.729,444.496z"/>
	<path style="fill:#2C4084;" d="M1447,427c-2.096,2.451-1.519,5.569-1.884,8.377c-0.942,7.244-1.525,14.536-2.201,21.813
		c-0.16,1.72-0.518,3.281-2.175,4.519c-1.765,0.466-3.674,0.584-5.793-0.663c0.246-8.031,2.314-15.903,2.311-24.217
		c-2.096,1.089-2.369,2.872-3.092,4.282c-2.955,5.761-5.783,11.587-8.653,17.391c-0.294,0.595-0.495,1.246-0.854,1.796
		c-0.913,1.399-2.236,2.063-3.855,1.503c-1.827-0.633-2.136-2.039-2.177-3.94c-0.149-6.892-0.642-13.772-1.952-21.211
		c-2.027,3.39-2.622,6.662-3.656,9.752c-1.263,3.777-2.364,7.607-3.596,11.394c-1.496,4.594-2.299,4.939-7.228,3.303
		c-0.554-0.974-0.238-1.911,0.071-2.876c3.599-11.211,7.171-22.431,10.778-33.639c1.721-5.349,4.058-6.328,9.614-3.884
		c0.931,8.232,0.846,16.724,2.675,25.927c3.575-7.136,6.811-13.594,10.043-20.053c0.445-0.889,0.842-1.802,1.306-2.68
		c2.487-4.707,6.153-5.376,10.32-1.895C1447,423.667,1447,425.333,1447,427z"/>
	<path style="fill:#92C16D;" d="M854,0c-0.044,0.317,0.003,0.621,0.138,0.91c-3.162,0.03-6.324,0.086-9.487,0.086
		C609.425,1,374.199,1,138.973,0.998c-1.666,0-3.331-0.02-4.997-0.031C134.014,0.646,134.022,0.323,134,0C374,0,614,0,854,0z"/>
	<path style="fill:#ADCE8F;" d="M134,0c0.022,0.323,0.014,0.646-0.024,0.967c-8.688-0.019-17.377-0.039-26.065-0.058
		c0.091-0.297,0.121-0.6,0.089-0.909C116.667,0,125.333,0,134,0z"/>
	<path style="fill:#D9E6C9;" d="M1054.05,466.161c-0.033,0.279-0.05,0.558-0.05,0.839c-5.667,0-11.333,0-17,0
		c0.03-0.294,0.016-0.587-0.04-0.878C1042.656,466.135,1048.353,466.148,1054.05,466.161z"/>
	<path style="fill:#D9E6C9;" d="M1335,467c0-0.281-0.016-0.561-0.05-0.839c5.363-0.013,10.727-0.025,16.09-0.038
		c-0.056,0.291-0.07,0.583-0.04,0.878C1345.667,467,1340.333,467,1335,467z"/>
	<path style="fill:#273C81;" d="M29.286,372.788c-1.107-2.322-0.513-4.497-0.073-6.564c5.77-27.128,11.652-54.232,17.418-81.361
		c6.87-32.326,13.622-64.676,20.488-97.003c5.9-27.779,11.859-55.545,17.854-83.303c1.911-8.846,3.028-9.705,12.065-9.708
		c51.316-0.018,102.632-0.012,153.948-0.007c15.105,0.002,29.87,1.959,43.757,8.277c22.854,10.396,35.096,28.118,36.319,53.288
		c1.212,24.94-4.054,48.277-17.764,69.353c-14.843,22.819-35.945,37.491-61.465,46.103c-17.981,6.068-36.592,8.249-55.491,8.285
		c-9.495,0.018-18.99-0.128-28.485-0.137c-7.337-0.007-9.465,1.763-10.964,8.797c-5.609,26.316-11.226,52.63-16.849,78.943
		c-1.125,5.264-2.309,6.244-7.825,6.238c-11.494-0.012-22.988-0.13-34.481-0.123c-20.825,0.013-41.65,0.095-62.474,0.119
		C33.303,373.987,31.228,374.423,29.286,372.788z M174.265,215.611c1.47,1.432,2.995,1.269,4.487,1.407
		c3.867,0.358,7.62-0.578,11.371-1.103c7.758-1.086,15.1-3.414,21.288-8.613c9.38-7.882,12.562-18.187,12.662-30.05
		c0.077-9.114-4.691-15.106-13.095-17.377c-7.502-2.027-15.12-1.806-22.74-1.809c-2.965-0.001-4.39,2.256-5.154,4.682
		c-0.788,2.503-1.076,5.163-1.618,7.746c-2.442,11.632-5.054,23.231-7.248,34.909C173.58,208.802,171.821,212.508,174.265,215.611z"
		/>
	<path style="fill:#273C81;" d="M774.808,354.627c-1.721,3.297-2.246,7.809-3.695,12.008c-0.215,0.623-0.218,1.315-0.393,1.955
		c-1.264,4.614-2.188,5.367-6.939,5.4c-5.832,0.041-11.665,0.01-17.497,0.01c-19.493,0-38.986,0.011-58.479-0.017
		c-1.946-0.003-4.036,0.501-5.677-1.031c-1.543-2.149-0.368-4.319,0.034-6.316c2.292-11.399,4.801-22.755,7.206-34.132
		c7.592-35.916,15.132-71.843,22.764-107.751c7.805-36.718,15.697-73.418,23.547-110.127c1.077-5.035,2.178-10.065,3.177-15.116
		c0.335-1.694,0.764-3.241,2.521-4.357c30.385,0,60.982,0,92.276,0c-7.016,33.346-13.939,66.257-20.896,99.325
		c2.117,0.235,3.091-0.918,4.215-1.776c20.19-15.395,42.891-21.195,68.021-17.932c7.131,0.926,14.093,2.351,20.644,5.4
		c15.493,7.211,24.13,19.926,28.29,35.963c2.946,11.357,3.252,22.928,2.318,34.653c-1.695,21.271-6.888,41.608-15.456,61.064
		c-7.095,16.111-16.295,30.909-29.393,42.932c-13.817,12.682-29.922,20.956-48.518,23.848c-13.493,2.098-26.893,0.97-39.966-2.958
		c-6.832-2.053-12.331-6.393-17.416-11.308C782.024,361.01,778.364,357.854,774.808,354.627z M843.035,247.046
		c-0.051-1.166-0.101-1.831-0.107-2.496c-0.084-10.753-6.559-17.153-19.119-15.589c-9.576,1.193-16.317,6.751-20.192,15.628
		c-2.78,6.37-4.505,13.096-6.367,19.759c-4.069,14.561-6.499,29.444-6.979,44.531c-0.31,9.747,3.825,14.999,12.721,15.913
		c8.783,0.903,16.293-2.262,21.801-9.432c3.882-5.053,6.063-10.981,8.156-16.881c3.931-11.08,6.266-22.58,7.943-34.183
		C841.743,258.409,842.97,252.54,843.035,247.046z"/>
	<path style="fill:#273C81;" d="M437.385,372.83c-1.033-1.881-0.575-3.903-0.167-5.82c5.746-26.965,11.559-53.916,17.333-80.875
		c2.4-11.208,4.79-22.418,7.091-33.646c0.737-3.595,0.978-7.26,0.412-10.928c-0.824-5.343-4.503-9.073-9.883-9.711
		c-8.527-1.012-15.304,2.038-20.263,9.087c-2.542,3.613-3.868,7.731-4.775,11.962c-7.451,34.756-14.84,69.525-22.248,104.29
		c-0.727,3.41-1.373,6.841-2.201,10.226c-1.291,5.277-2.941,6.579-8.351,6.574c-13.495-0.013-26.989-0.121-40.483-0.121
		c-13.161,0-26.323,0.095-39.484,0.123c-2.121,0.004-4.409,0.446-6.014-1.794c-1.115-2.96,0.31-5.841,0.911-8.678
		c11.08-52.315,22.327-104.595,33.422-156.908c7.237-34.124,14.285-68.288,21.426-102.432c0.204-0.974,0.478-1.935,0.756-2.891
		c1.53-5.265,2.971-6.419,8.515-6.434c14.329-0.04,28.658-0.013,42.988-0.013c12.163,0,24.326-0.011,36.49,0.012
		c1.817,0.003,3.664-0.255,5.55,0.38c1.627,1.417,1.109,3.184,0.721,4.988c-2.266,10.555-4.503,21.117-6.737,31.679
		c-4.745,22.438-9.496,44.875-14.189,67.324c-0.294,1.407-0.769,2.907-0.057,4.536c1.875,0.497,2.521-1.108,3.364-2.141
		c11.396-13.956,26.183-22.512,43.569-26.283c15.385-3.336,30.685-1.732,45.798,2.561c10.117,2.874,17.989,8.43,23.119,17.644
		c3.877,6.963,5.48,14.572,5.85,22.463c0.55,11.747-1.752,23.162-4.158,34.557c-7.928,37.547-15.868,75.092-23.804,112.637
		c-0.069,0.326-0.132,0.653-0.203,0.978c-1.601,7.257-2.288,7.823-9.59,7.824c-26.155,0.003-52.311,0.012-78.466-0.02
		C441.519,373.977,439.253,374.544,437.385,372.83z"/>
	<path style="fill:#6EB345;" d="M107.911,0.909c8.688,0.019,17.377,0.039,26.065,0.058c1.666,0.011,3.331,0.031,4.997,0.031
		C374.199,1,609.425,1,844.652,0.996c3.162,0,6.324-0.056,9.487-0.086c2.3,0.741,1.753,2.446,1.393,4.095
		c-1.942,8.92-3.918,17.834-5.806,26.766c-1.029,4.868-1.943,9.76-2.84,14.655c-1.114,6.083-2.773,7.515-8.994,7.572
		c-0.667,0.006-1.333,0.001-2,0.001c-243.475,0-486.95,0.003-730.425-0.035c-3.064,0-6.315,0.75-9.168-1.158
		c-1.184-3.7,0.395-7.046,1.054-10.383c2.412-12.215,5.118-24.371,7.707-36.551C105.477,3.907,105.846,1.923,107.911,0.909z"/>
	<path style="fill:#273C81;" d="M1262.977,173.988c17.738-0.14,35.161,1.761,51.938,7.928c13.186,4.846,24.815,11.936,33.69,23.087
		c7.677,9.646,12.035,20.736,13.201,32.851c2.134,22.191-0.849,43.789-9.463,64.426c-11.359,27.214-30.873,46.965-56.666,60.727
		c-16.181,8.633-33.596,13.157-51.772,15.136c-14.255,1.552-28.517,1.975-42.789,0.694c-16.866-1.514-33.146-5.309-47.831-14.149
		c-20.576-12.386-32.237-30.664-33.302-54.653c-1.551-34.913,8.137-66.443,31.758-92.771c16.613-18.517,37.362-30.721,61.414-37.176
		C1229.467,175.709,1246.1,173.822,1262.977,173.988z M1266.91,247.862c-0.002-4.264-0.043-8.064-0.787-11.849
		c-0.896-4.559-3.693-7.607-7.891-8.723c-7.602-2.021-14.807-1-20.888,4.576c-4.375,4.012-7.185,9.031-9.43,14.434
		c-3.683,8.866-6.502,18.023-8.486,27.389c-2.507,11.831-4.944,23.705-4.433,35.93c0.155,3.714,1.038,7.214,2.924,10.391
		c2.193,3.693,5.188,6.322,9.65,7.103c8.327,1.457,17.235-2.872,21.636-10.777C1261.129,294.914,1266.417,271.779,1266.91,247.862z"
		/>
	<path style="fill:#273C81;" d="M1108.463,252.467c-1.858,0.848-3.397,0.037-4.99-0.371c-9.545-2.444-19.279-3.529-29.095-4.039
		c-4.202-0.218-8.319,0.334-12.32,1.505c-10.663,3.118-16.61,10.756-19.021,21.147c-3.866,16.663-7.398,33.405-10.952,50.139
		c-3.175,14.948-6.173,29.934-9.284,44.895c-1.389,6.682-3.365,8.253-10.248,8.255c-26.157,0.009-52.313,0.01-78.47-0.01
		c-1.958-0.001-4.038,0.428-5.789-1.176c-0.893-2.031-0.516-4.209-0.07-6.298c6.006-28.103,12.107-56.185,18.098-84.291
		c5.991-28.103,11.879-56.227,17.829-84.338c0.86-4.063,1.709-8.133,2.753-12.15c1.205-4.637,2.896-6.029,7.681-6.321
		c2.988-0.183,6.003-0.165,8.994-0.009c18.645,0.975,37.302,0.305,55.951,0.331c4.467,0.006,8.971-0.441,13.457-0.333
		c5.976,0.143,6.908,1.44,6.182,7.249c-0.493,3.943-1.443,7.863-1.015,12.39c4.212-3.413,8.139-6.644,12.118-9.81
		c7.968-6.341,16.868-10.552,27.085-11.707c7.759-0.878,15.237,0.476,22.503,3.054c3.433,1.218,4.19,2.817,3.402,6.65
		c-2.073,10.087-4.282,20.145-6.405,30.221c-2.055,9.753-4.003,19.529-6.16,29.26
		C1110.25,248.726,1110.316,251.102,1108.463,252.467z"/>
	<path style="fill:#273C82;" d="M690.438,180.384c1.919,2.466,0.82,4.827,0.371,6.99c-2.361,11.382-4.962,22.714-7.392,34.082
		c-6.528,30.527-13.002,61.065-19.517,91.594c-3.951,18.513-7.931,37.02-11.919,55.525c-0.97,4.502-1.945,5.41-6.297,5.408
		c-28.651-0.014-57.302-0.079-85.953-0.128c-0.828-0.001-1.672,0.045-2.581-0.916c2.063-9.817,4.154-19.867,6.288-29.909
		c5.867-27.613,11.764-55.221,17.627-82.835c5.139-24.201,10.247-48.408,15.375-72.611c0.138-0.649,0.334-1.286,0.504-1.928
		c1.266-4.772,2.655-6.03,7.626-6.242c3.991-0.17,8.021-0.312,11.984,0.058c3.497,0.326,6.974,0.347,10.461,0.354
		c13.826,0.029,27.653,0.053,41.48-0.009c5.153-0.023,10.305-0.275,15.456-0.451C686.13,179.292,688.259,179.47,690.438,180.384z"/>
	<path style="fill:#71B345;" d="M1351.04,466.122c-5.363,0.013-10.727,0.026-16.09,0.038c-1.496-0.053-2.992-0.151-4.488-0.151
		c-90.642-0.007-181.284-0.007-271.926,0c-1.496,0-2.992,0.099-4.488,0.151c-5.697-0.013-11.393-0.026-17.09-0.038
		c-1.329-0.184-2.665-0.355-3.549-1.861c-1.056-2.867,0.304-5.735,1.002-8.556c2.91-11.758,5.416-23.598,7.713-35.486
		c1.317-6.814,2.526-7.869,9.697-7.881c9.974-0.017,19.958,0.501,29.914,0.415c92.221-0.793,184.443-0.26,276.664-0.411
		c1.82-0.003,3.649-0.207,5.463,0.276c3.105,0.826,3.879,1.772,3.407,4.903c-0.371,2.457-0.881,4.905-1.514,7.308
		c-2.877,10.914-5.241,21.93-6.925,33.095C1358.031,463.241,1356.342,464.913,1351.04,466.122z"/>
	<path style="fill:#273C82;" d="M708.489,95.114c1.093,2.537,0.591,4.499,0.194,6.433c-3.237,15.767-6.504,31.527-9.751,47.292
		c-1.033,5.013-2.175,6.006-7.42,6.009c-27.308,0.018-54.616,0.021-81.924-0.002c-5.206-0.004-5.859-0.854-4.824-5.849
		c3.37-16.259,6.767-32.513,10.088-48.782c0.375-1.837,0.691-3.593,2.615-5.101C647.512,95.114,677.918,95.114,708.489,95.114z"/>
	<path style="fill:#2B3F83;" d="M142.874,456.874c-1.462-4.77-0.849-9.664-3.253-13.823c-1.518,0.28-1.402,1.595-1.712,2.631
		c-1.238,4.133-2.443,8.277-3.72,12.398c-1.727,5.572-6.263,7.553-11.952,5.273c-0.285-4.059,11.48-45.387,14.029-49.049
		c3.151-0.746,6.441-0.126,10.306-0.193c2.488,9.657,2.875,19.628,4.799,29.386c1.24,0.36,1.532-0.816,2.005-1.571
		c4.41-7.044,9.04-13.951,13.07-21.232c3.936-7.112,6.669-8.127,15.655-5.761c-2.736,16.233-4.972,32.595-8.401,48.525
		c-3.788,1.225-6.869,0.426-10.498,0.313c-0.311-7.51,2.523-14.425,2.924-22.096c-3.049,1.841-4.261,4.603-5.905,6.951
		c-1.043,1.49-1.864,3.145-2.704,4.768c-1.648,3.185-4.276,4.537-7.782,4.238C147.601,457.451,145.474,457.166,142.874,456.874z"/>
	<path style="fill:#2B3E82;" d="M50.519,462.413c3.176-14.197,6.37-28.269,9.456-42.365c1.215-5.549,1.637-6.025,7.11-6.009
		c8.346,0.025,8.314,0.033,10.37,8.137c1.913,7.542,3.734,15.117,7.065,23.26c1.949-8.265,3.697-15.666,5.437-23.069
		c0.076-0.322,0.06-0.667,0.138-0.988c1.626-6.709,2.733-7.558,9.568-7.249c0.967,0.044,2.003-0.286,3.386,0.739
		c-1.828,8.105-3.519,16.496-5.645,24.775c-2.074,8.077-2.518,16.639-6.324,24.291c-4.355,0-8.149,0-11.754,0
		c-2.419-1.52-2.666-3.934-3.259-6.158c-1.792-6.733-3.531-13.481-5.371-20.201c-0.333-1.217-0.536-2.682-2.363-3.211
		c-1.782,7.892-3.523,15.763-5.346,23.616c-1.02,4.393-5.235,7.24-9.647,6.595C52.178,464.405,51.039,464.059,50.519,462.413z"/>
	<path style="fill:#2B3F83;" d="M988.681,434.579c-1.916,8.256-3.812,15.794-5.372,23.4c-0.844,4.112-3.487,5.816-7.16,6.562
		c-1.692,0.344-3.29-0.047-4.69-1.064c-0.911-1.272-0.484-2.622-0.2-3.879c2.994-13.278,6.007-26.553,9.079-39.813
		c1.259-5.433,1.794-5.79,7.383-5.954c7.531-0.221,8.269,0.316,10.156,7.829c1.739,6.921,3.413,13.859,5.089,20.796
		c0.272,1.125,0.404,2.284,1.55,3.473c0.826-1.465,1.173-2.918,1.507-4.414c1.518-6.801,3.004-13.61,4.655-20.378
		c1.689-6.922,2.435-7.39,9.648-7.014c0.812,0.042,1.671-0.149,2.473,0.486c0.867,2.151-0.37,4.145-0.816,6.172
		c-2.569,11.665-5.238,23.307-7.925,34.946c-0.37,1.604-0.829,3.246-1.59,4.689c-2.364,4.483-9.568,6.063-13.534,3.069
		c-1.128-0.852-1.499-2.127-1.845-3.438c-1.692-6.414-3.365-12.834-5.181-19.213C991.341,438.834,991.072,436.614,988.681,434.579z"
		/>
	<path style="fill:#2B3E82;" d="M783.393,414.077c7.809,0,14.955-0.01,22.1,0.006c2.361,0.005,4.607,0.595,6.734,1.592
		c2.952,1.382,4.666,3.707,4.879,6.975c0.395,6.083-0.902,11.881-3.235,17.462c-1.347,3.224-4.215,4.997-7.28,6.969
		c1.319,5.605,5.091,10.069,6.684,15.419c-6.131,3.587-11.653,2.193-14.81-3.783c-1.622-3.07-3.164-6.183-4.66-9.116
		c-2.485-1.089-4.694-1.36-7.085-0.094c-1.157,2.327-1.35,5.003-2.001,7.551c-1.947,7.617-4.683,8.997-12.7,6.129
		c-0.128-5.557,2.017-10.833,3.098-16.267c1.099-5.528,2.488-11,3.846-16.473C780.3,425.055,780.663,419.372,783.393,414.077z
		 M804.264,424.118c-13.19-0.813-16.998,3.005-14.799,14.558c2.321,1.52,4.841,0.376,7.217,0.313
		C804.804,438.773,808.497,431.592,804.264,424.118z"/>
	<path style="fill:#2B3E82;" d="M668.887,447.623c1.544,5.391,5.538,9.739,6.496,15.158c-4.982,2.918-11.671,1.41-14.263-2.983
		c-1.261-2.137-2.256-4.432-3.331-6.676c-2.169-4.53-3.242-5.005-8.803-3.728c-1.526,2.379-1.578,5.271-2.297,7.961
		c-1.87,7.004-5.301,8.671-12.877,5.645c3.634-16.101,7.293-32.316,10.831-47.991c2.853-1.507,5.057-0.966,7.177-0.991
		c5.325-0.062,10.66-0.162,15.975,0.086c6.757,0.316,11.794,3.669,11.629,8.661c-0.286,8.702-0.136,17.939-9.181,23.366
		C669.712,446.45,669.368,447.081,668.887,447.623z M667.281,424.479c-3.95-1.647-7.719-0.514-11.4-0.26
		c-1.609,0.111-2.965,1.655-3.517,3.241c-1.245,3.578-2.023,7.254-0.903,10.968c3.358,0.715,7.958,0.829,9.982,0.419
		c3.701-0.75,5.836-3.085,6.363-6.683C668.158,429.763,668.393,427.25,667.281,424.479z"/>
	<path style="fill:#2B3F83;" d="M321.23,414.294c3.127-0.72,6.216-0.353,9.86,0.419c-3.578,16.418-6.916,32.72-11.217,48.518
		c-3.981,2.617-7.375,0.561-10.996,0.142c-0.015-5.963,2.625-11.203,2.878-16.766c-0.691-1.878-2.068-2.588-3.906-2.592
		c-0.499-0.001-0.999-0.001-1.498-0.005c-8.811-0.059-8.955-0.275-10.459,8.155c-0.465,2.609-1.169,5.18-1.838,7.748
		c-0.91,3.491-1.538,4.03-5.113,4.211c-1.976,0.1-3.989,0.277-5.88-0.51c-1.422-1.473-0.808-3.042-0.433-4.684
		c2.809-12.292,5.557-24.599,8.329-36.9c1.804-8.009,2.552-8.558,10.802-7.893c0.637,0.051,1.263,0.234,2.11,0.396
		c0.077,6.387-3.414,12.15-2.984,18.554c3.726,1.203,7.2,1.037,10.63,0.697c2.364-0.234,3.867-1.797,4.451-4.127
		c0.725-2.895,1.342-5.82,2.141-8.695C318.76,418.603,319.026,416.02,321.23,414.294z"/>
	<path style="fill:#2B3F83;" d="M507.992,414.373c0.652,3.413-0.478,6.252-1.045,9.158c-0.536,2.746-1.554,5.413-1.431,8.317
		c1.595,2.343,4.019,1.92,6.295,1.983c7.967,0.218,8.164,0.048,9.645-7.746c0.34-1.791,0.774-3.568,1.256-5.327
		c1.992-7.26,4.621-8.584,12.118-6.093c0.917,1.762,0.181,3.562-0.201,5.277c-2.848,12.79-5.779,25.561-8.702,38.334
		c-0.296,1.294-0.595,2.607-1.097,3.828c-0.608,1.478-1.845,2.632-3.44,2.45c-2.718-0.31-5.583-0.088-8.365-1.523
		c1.321-5.907,2.612-11.682,3.986-17.829c-4.398-1.924-8.82-1.437-13.177-0.677c-1.816,0.317-2.379,2.171-2.746,3.838
		c-0.75,3.403-1.499,6.806-2.178,10.223c-0.325,1.635-0.581,3.267-1.955,4.817c-2.963,1.069-6.165,1.008-9.395,0.363
		c-1.105-2.183-0.594-4.158-0.16-6.057c2.806-12.291,5.669-24.568,8.522-36.848C497.311,414.879,501.404,412.617,507.992,414.373z"
		/>
	<path style="fill:#2B3F83;" d="M606.468,464.645c-2.356,0.318-4.988-0.26-7.563-0.81c-5.382-1.149-8.539-5.035-8.852-10.564
		c-0.132-2.323,0.014-4.629,0.565-6.923c1.47-6.118,3.069-12.218,4.206-18.4c1.329-7.222,5.854-11.38,12.371-13.589
		c5.621-1.906,11.43-1.937,17.161-0.227c6.983,2.083,10.717,7.69,9.358,14.844c-1.39,7.315-2.867,14.671-5.109,21.754
		c-3.219,10.169-8.162,12.966-18.813,13.903C608.803,464.72,607.799,464.645,606.468,464.645z M621.911,425.383
		c-5.8-4.464-14.233-2.628-16.164,3.716c-1.964,6.452-3.235,13.126-4.587,19.749c-0.547,2.677,0.759,4.616,3.058,5.636
		c5.392,2.394,12.344-0.777,13.843-6.484c1.173-4.465,1.874-9.058,3.128-13.497C622.025,431.547,622.208,428.656,621.911,425.383z"
		/>
	<path style="fill:#2B3E82;" d="M744.735,464.635c-3.51,0.091-6.805-0.245-9.939-1.513c-4.289-1.736-6.57-4.976-6.771-9.568
		c-0.115-2.65-0.014-5.277,0.655-7.923c1.301-5.149,2.345-10.365,3.401-15.573c2.862-14.114,18.752-20.285,30.527-15.958
		c7.157,2.63,9.915,7.765,8.499,15.254c-1.357,7.181-3.06,14.279-4.798,21.381c-2.023,8.267-7.151,12.339-15.279,13.425
		C748.876,464.448,746.746,464.716,744.735,464.635z M759.821,425.456c-6.611-4.597-14.108-2.686-16.316,4.396
		c-1.91,6.126-3.052,12.498-4.418,18.786c-0.452,2.078,0.121,3.956,2.062,5.205c5.243,3.372,12.991,0.681,14.623-5.312
		c1.343-4.931,2.114-10.017,3.391-14.969C759.837,430.948,760.358,428.411,759.821,425.456z"/>
	<path style="fill:#2B3E82;" d="M943.646,464.645c-2.305,0.311-4.937-0.245-7.525-0.77c-5.646-1.144-8.924-5.108-9.099-10.857
		c-0.06-1.984-0.026-4.024,0.363-5.958c1.142-5.688,2.41-11.353,3.763-16.995c2.362-9.85,9.89-16.184,20.082-17.096
		c3.689-0.33,7.316-0.157,10.799,1.185c6.846,2.638,9.954,8.279,8.398,15.482c-1.364,6.318-2.999,12.577-4.359,18.896
		c-2.348,10.905-7.368,15.094-19.542,16.105C945.7,464.705,944.863,464.645,943.646,464.645z M945.062,454.989
		c6.078-0.012,8.753-1.951,10.246-7.904c1.444-5.757,2.749-11.556,3.87-17.384c0.772-4.014-0.721-5.93-4.589-6.657
		c-6.013-1.13-11.01,2.132-12.559,8.452c-1.256,5.124-1.872,10.431-3.448,15.443C936.991,452.003,939.668,455.563,945.062,454.989z"
		/>
	<path style="fill:#2B3F83;" d="M214.296,463.885c-3.485-2.253-1.298-5.825-2.491-8.367c-1.486-1.709-3.4-1.382-5.186-1.306
		c-1.481,0.064-2.921,0.292-4.433,0.014c-4.123-0.757-7.236,0.751-8.909,4.647c-1.577,3.673-4.703,5.062-8.228,5.675
		c-2.082,0.362-4.378,0.407-6.008-2.285c2.903-5.516,5.956-11.187,8.89-16.919c4.692-9.169,9.561-18.24,14.746-27.138
		c2.771-4.755,4.424-5.651,9.763-4.614c2.575,0.5,5.33-0.041,8.212,1.418c1.377,15.958,2.764,32.035,4.162,48.241
		C220.845,464.356,217.438,464.326,214.296,463.885z M200.161,444.381c3.965,0.933,7.063,0.827,10.454,0.516
		c2.575-5.805,0.695-11.801,1.077-17.61c0.056-0.849-1.009-1.186-2.417-1.12C206.406,431.9,203.427,437.853,200.161,444.381z"/>
	<path style="fill:#2B3E82;" d="M862.038,463.699c-3.323,0.258-6.719,0.982-9.886-0.034c-1.537-1.589-1.183-3.32-1.344-4.954
		c-0.31-3.147-1.161-4.107-4.243-4.519c-2.813-0.376-5.651-0.285-8.467,0.129c-4.783,0.703-6.975,4.066-8.265,8.305
		c-3.988,1.686-7.899,2.248-11.819,0.848c-0.668-1.845,0.311-2.904,0.919-4.042c6.97-13.037,13.914-26.089,20.951-39.09
		c3.892-7.191,4.509-7.47,12.579-6.405c2.082,0.275,4.379-0.444,6.207,1.117C860.861,428.431,863.118,460.235,862.038,463.699z
		 M838.794,443.414c3.89,3.243,7.469,1.706,10.988,1.096c0.869-9.66,0.409-15.673-1.722-18.43
		C844.306,431.53,842.165,437.583,838.794,443.414z"/>
	<path style="fill:#2B3F83;" d="M407.679,414.995c0.629,16.115,3.396,32.11,3.825,48.519c-3.895,0.615-7.263,0.916-10.41,0.339
		c-2.6-2.277-1.088-5.359-2.251-7.701c-6.83-4.487-15.899-2.48-19.465,4.643c-1.558,3.114-3.758,3.944-6.793,3.699
		c-2.137-0.172-4.262-0.491-6.384-0.743c-0.475-0.885,0.018-1.558,0.393-2.263c7.47-14.053,14.923-28.116,22.41-42.16
		c3.028-5.68,4.436-6.446,10.675-5.457C402.254,414.279,405.008,413.455,407.679,414.995z M398.375,426.424
		c-1.331-0.63-2.237-0.507-2.748,0.627c-2.584,5.728-6.578,10.867-7.955,17.407c4.239,1.406,7.755,1.693,11.462-0.144
		C398.9,438.074,399.189,432.16,398.375,426.424z"/>
	<path style="fill:#293E82;" d="M681.943,462.753c0.078-3.862,1.614-7.398,2.394-11.051c2.214-10.365,4.846-20.638,6.81-31.064
		c1.046-5.555,3.01-6.897,8.537-6.754c4.812,0.124,9.63,0,14.442,0.125c11.807,0.307,15.5,6.859,13.303,17.47
		c-1.841,8.891-10.068,17.843-21.297,17.551c-1.473-0.038-2.963,0.252-4.432,0.478c-3.073,0.473-5.119,2.102-5.907,5.23
		c-0.484,1.922-1.106,3.815-1.753,5.69c-1.23,3.567-2.592,4.473-6.308,3.862C685.972,464.001,684.031,464.368,681.943,462.753z
		 M704.342,439.176c8.837-0.575,11.464-3.117,11.435-10.477c-0.008-2.147-0.62-3.982-2.975-4.612
		c-8.165-2.185-15.228,4.389-13.657,12.671c0.372,1.963,1.512,2.885,3.464,2.751C703.423,439.453,704.223,439.2,704.342,439.176z"/>
	<path style="fill:#293E82;" d="M361.938,454.401c0.114,3.319,0.67,6.477-1.736,8.998c-1.477,0.949-2.981,0.688-4.47,0.691
		c-6.315,0.012-12.615-0.348-18.934,0.617c-6.025,0.921-8.6-2.01-6.847-7.934c3.679-12.435,6.024-25.172,9.029-37.757
		c0.984-4.12,1.997-4.986,6.1-5.008c8.615-0.047,17.231-0.014,25.878-0.014c0.88,2.629,0.164,4.926-0.023,7.17
		c-0.184,2.197-1.943,3.04-3.96,2.946c-3.808-0.177-7.545,0.706-11.421,0.158c-6.085-0.86-8.121,1.928-6.615,8.674
		c5.192,0,10.46,0,15.804,0c1.585,3.811,0.866,6.928-1.539,9.853c-4.21,0.875-8.375,0.013-12.512,0.318
		c-5.204,0.383-5.401,0.347-6.85,5.336c-0.319,1.099-0.938,2.169-0.233,4.166C348.921,455.819,355.455,452.757,361.938,454.401z"/>
	<path style="fill:#2B3F83;" d="M590.953,414.851c0.266,4.041,0.114,7.26-2.451,9.842c-3.822,1.099-7.267-1.343-10.918-0.723
		c-1.127,0.191-2.326-0.081-3.477,0.024c-2.91,0.265-5.148,1.754-5.992,4.527c-2.077,6.824-3.584,13.804-4.815,20.826
		c-0.477,2.723,1.045,4.4,3.916,4.645c3.473,0.297,6.97,0.185,10.39-0.606c1.151-0.266,2.244-0.586,3.521,0.045
		c1.376,1.986,1.034,4.34,0.896,6.617c-0.13,2.125-1.618,3.552-3.512,3.618c-4.809,0.167-9.498,1.803-14.359,1.107
		c-0.984-0.141-1.975-0.258-2.946-0.465c-8.197-1.744-11.531-6.627-9.866-14.798c1.256-6.166,2.777-12.278,4.179-18.414
		c0.221-0.97,0.453-1.938,0.649-2.913c1.758-8.725,7.145-13.504,15.874-14.803C578.394,412.436,584.525,413.496,590.953,414.851z"/>
	<path style="fill:#293E82;" d="M908.985,414.002c0,1.795,0.057,2.946-0.01,4.09c-0.287,4.874-1.728,6.664-6.433,6.048
		c-7.444-0.975-8.847-0.225-10.629,9.236c-1.721,9.137-3.947,18.18-6.004,27.252c-0.426,1.877-1.443,3.557-3.509,3.777
		c-3.114,0.332-6.187,0.021-8.843-1.816c2.906-12.792,5.758-25.35,8.65-38.083c-4.184-0.79-7.963-0.07-11.829-0.196
		c-0.878-2.092-0.624-4.089-0.397-6.018c0.344-2.928,1.59-4.226,4.528-4.251C885.803,413.945,897.098,414.002,908.985,414.002z"/>
	<path style="fill:#2B3F83;" d="M491.1,414.131c1.15,1.358,0.79,2.742,0.708,4.019c-0.319,4.929-1.575,6.056-6.482,6.021
		c-8.608-0.061-8.891,0.364-10.549,8.748c-1.704,8.618-3.718,17.179-5.782,25.72c-1.359,5.624-7.567,7.567-12.641,3.845
		c2.803-12.428,5.638-24.997,8.609-38.164c-4.281,0-8.304,0-12.058,0c-0.374-0.84-0.632-1.134-0.601-1.393
		c1.035-8.706,1.296-8.916,10.147-8.939c8.98-0.023,17.959-0.085,26.939-0.108C490.018,413.876,490.648,414.061,491.1,414.131z"/>
	<path style="fill:#293E82;" d="M429.044,413.994c2.442,0,4.923-0.013,7.403,0.007c0.812,0.007,1.666-0.158,2.518,0.478
		c0.328,1.384-0.145,2.772-0.472,4.19c-2.268,9.849-4.534,19.699-6.754,29.56c-1.122,4.983-0.323,5.843,4.837,5.75
		c3.946-0.071,7.895-0.014,11.526-0.014c1.449,1.399,1.069,2.796,1.014,4.072c-0.216,4.966-1.509,6.161-6.343,6.115
		c-6.645-0.064-13.29-0.081-19.935-0.157c-1.626-0.019-3.31,0.311-4.597-0.327c-1.351-1.323-1.225-2.656-0.924-3.969
		c3.213-14.047,6.453-28.088,9.66-42.136C427.246,416.388,427.736,415.387,429.044,413.994z"/>
	<path style="fill:#293E82;" d="M251.413,414.639c0.923,1.235,0.398,2.48,0.087,3.78c-2.31,9.675-4.55,19.367-6.873,29.038
		c-0.467,1.945-1.196,3.827,0.532,6.185c5.159,0.904,10.793-0.227,16.523,0.441c1.428,2.521,0.509,5.105-0.127,7.555
		c-0.453,1.743-2.008,2.534-3.883,2.513c-7.148-0.082-14.296-0.124-21.443-0.228c-1.878-0.027-3.624-0.508-4.898-2.315
		c-0.663-2.324-0.349-4.763,0.21-7.214c2.507-10.989,4.996-21.982,7.486-32.975C240.561,414.643,244.509,412.474,251.413,414.639z"
		/>
	<path style="fill:#2C4084;" d="M926.03,414.818c0.335,3.863-1.259,7.427-2.062,11.098c-2.372,10.845-4.883,21.661-7.439,32.465
		c-1.539,6.506-1.924,6.69-8.399,5.668c-0.98-0.155-1.966-0.284-2.935-0.494c-0.296-0.064-0.543-0.357-0.787-0.528
		c-0.484-0.789-0.433-1.605-0.241-2.43c2.954-12.751,5.951-25.493,8.85-38.257C915.023,413.502,916.623,412.51,926.03,414.818z"/>
	<path style="fill:#2C4084;" d="M101.626,462.567c3.192-14.268,6.328-28.357,9.511-42.435c0.475-2.099,0.989-4.243,3.183-5.837
		c2.987-0.523,6.221-0.554,9.794,0.52c-1.507,6.77-2.955,13.392-4.459,20c-1.88,8.257-3.803,16.504-5.714,24.754
		c-1.037,4.475-2.522,5.475-7.039,4.731c-1.469-0.242-2.936-0.508-4.389-0.832C102.246,463.409,102.054,463.018,101.626,462.567z"/>
	<path style="fill:#2C4084;" d="M1383.948,459.954c2.385-11.146,4.793-22.399,7.116-33.257c-1.841-2.439-4.238-0.844-5.915-1.967
		c-0.597-3.483-0.12-5,2.487-5.111c6.578-0.281,13.177-0.093,19.451-0.093c1.484,2.461,0.7,4.004-0.507,5.426
		c-0.368,0.182-0.658,0.441-0.961,0.456c-5.854,0.29-6.217,0.556-7.436,6.308c-1.751,8.262-3.409,16.544-5.182,24.802
		C1391.793,462.145,1389.277,463.139,1383.948,459.954z"/>
</g>
</svg>
