<?xml version="1.0" encoding="iso-8859-1"?>
<!-- Generator: Adobe Illustrator 27.0.0, SVG Export Plug-In . SVG Version: 6.00 Build 0)  -->
<svg version="1.1" id="Layer_1" xmlns="http://www.w3.org/2000/svg" xmlns:xlink="http://www.w3.org/1999/xlink" x="0px" y="0px"
	 viewBox="0 0 1585 346" style="enable-background:new 0 0 1585 346;" xml:space="preserve">
<g>
	<path style="fill:#030303;" d="M330,0c-0.008,0.577,0.342,0.791,0.845,0.97c10.516,3.733,15.316,11.556,15.94,22.347
		c0.048,0.83,0.008,1.666,0.008,2.499c0,97.8-0.016,195.6,0.028,293.4c0.003,7.51-1.902,14.121-7.611,19.28
		c-3.956,3.575-8.596,5.578-13.964,5.781c-0.499,0.019-1,0.006-1.499,0.006c-52.649,0-105.297,0.016-157.946-0.011
		c-11.155-0.006-19.486-6.508-22.286-17.069c-0.482-1.817-0.496-3.62-0.498-5.443c-0.016-15.161-0.045-30.323,0-45.484
		c0.036-12.14,9.991-22.136,22.235-22.181c22.159-0.081,44.322-0.28,66.475,0.087c10.845,0.179,23.191-8.054,23.219-22.844
		c0.075-38.653,0.083-77.307-0.009-115.96c-0.027-11.522-6.628-19.984-17.134-22.898c-1.822-0.505-3.607-0.543-5.427-0.543
		c-39.653-0.01-79.308,0.173-118.959-0.121c-11.451-0.085-22.911,9.902-22.821,22.625c0.336,47.148,0.133,94.3,0.132,141.451
		c0,21.493-0.179,42.987,0.07,64.477c0.131,11.327-4.692,21.382-17.479,25.258c-0.133,0.04-0.216,0.245-0.322,0.373
		c-18.333,0-36.667,0-55,0c-0.553-0.314-1.072-0.729-1.664-0.926c-9.135-3.041-14.273-9.374-15.613-18.859
		c0.092-1.487,0.264-2.974,0.264-4.46C1.001,222.11,1,122.466,0.992,22.822c0-1.326-0.119-2.652-0.182-3.978
		C1.518,13.177,4.455,8.815,8.637,5.094C11.385,2.649,14.893,1.718,18,0C122,0,226,0,330,0z"/>
	<path style="fill:#1C1B1B;" d="M1585,175c-1.801,0.919-1.293,2.897-1.82,4.334c-3.302,9.014-12.81,16.926-25.152,15.596
		c-8.61-0.928-18.194-6.839-20.699-18.801c-3.019-14.418,7.418-26.693,19.777-28.583c13.174-2.015,25.232,7.744,26.944,19.412
		c0.114,0.779-0.101,1.702,0.95,2.041C1585,171,1585,173,1585,175z M1550.043,185.086l-0.131-0.131
		c4.776,6.354,16.596,6.394,21.52,0.179c7.224-6.992,7.969-18.781,1.667-26.369c-5.21-6.272-14.415-7.757-20.904-3.366
		c-0.952,0.644-2.037,1.213-1.756,2.674l0.143-0.117c-0.67-0.376-1.248-0.194-1.737,0.327
		C1541.541,166.049,1542.659,179.898,1550.043,185.086z"/>
	<path style="fill:#817E7E;" d="M0.81,18.843c0.063,1.326,0.182,2.652,0.182,3.978C1,122.466,1.001,222.11,0.988,321.755
		c0,1.487-0.172,2.974-0.264,4.46C0.426,326.332,0.185,326.26,0,326C0,223.667,0,121.333,0,19l0.382-0.199L0.81,18.843z"/>
	<path style="fill:#090808;" d="M1518.303,283.105c-10.189,0-19.989,0-29.915,0c-1.283-1.525-0.594-3.439-0.598-5.177
		c-0.055-24.161,0.045-48.322-0.089-72.482c-0.04-7.13-0.381-14.266-2.556-21.206c-3.745-11.947-12.443-18.805-24.86-19.357
		c-9.294-0.413-18.265,0.696-26.327,5.749c-10.476,6.567-16.192,16.421-18.921,28.193c-1.317,5.681-1.907,11.46-1.894,17.313
		c0.046,20.662,0.031,41.323-0.008,61.985c-0.003,1.607,0.474,3.306-0.494,4.919c-9.927,0-19.843,0-29.69,0
		c-0.921-1.982-0.499-3.839-0.502-5.634c-0.033-24.161,0.008-48.322-0.042-72.483c-0.014-6.985-0.244-13.947-2.36-20.731
		c-3.709-11.889-12.519-18.738-24.937-19.321c-12.628-0.593-24.084,2.073-33.347,11.349c-7.482,7.493-10.967,16.865-12.747,27.012
		c-0.893,5.09-1.062,10.244-1.042,15.424c0.079,19.826,0.03,39.653,0.029,59.48c0,1.626,0,3.251,0,4.94c-10.906,0-21.32,0-31.962,0
		c0-45.265,0-90.321,0-135.608c9.517,0,18.786,0,28.542,0c0,6.251,0,12.499,0,19.622c2.964-2.898,5.161-5.225,7.543-7.345
		c9.892-8.806,21.627-13.131,34.667-14.836c8.7-1.138,17.308-1.218,25.799,0.581c13.938,2.954,25.228,9.989,32.287,22.837
		c0.399,0.726,0.876,1.408,1.531,2.452c5.823-8.171,13.164-14.392,22.005-18.712c13.275-6.486,27.136-9.447,42.01-7.308
		c6.269,0.902,12.395,2.019,18.358,4.155c16.044,5.749,24.913,17.402,28.215,33.798c1.126,5.59,1.37,11.253,1.398,16.886
		c0.138,26.993,0.062,53.987,0.056,80.98C1518.453,281.234,1518.378,281.885,1518.303,283.105z"/>
	<path style="fill:#090909;" d="M456.815,266.459c0,23.976,0.001,47.951-0.012,71.927c0,0.134-0.187,0.267-0.473,0.652
		c-9.742,0-19.676,0-29.94,0c0-63.669,0-127.388,0-191.453c9.303,0,18.694,0,28.536,0c0,5.688,0,11.4,0,17.703
		c3.509-2.817,6.369-5.299,9.416-7.525c9.74-7.116,20.89-10.728,32.654-12.505c14.483-2.188,28.866-1.636,42.916,2.82
		c19.348,6.135,33.365,18.365,40.537,37.476c8.56,22.811,7.121,45.378-4.13,66.971c-8.524,16.359-22.404,26.473-40.107,31.165
		c-17.946,4.756-35.904,3.957-53.637-1.245c-8.74-2.564-16.409-7.138-22.594-13.958c-0.76-0.838-1.319-1.859-1.971-2.796
		C457.612,265.946,457.213,266.202,456.815,266.459z M506.164,164.772c-9-0.025-18.022,1.856-24.114,5.021
		c-15.293,7.945-23.791,20.623-26.263,37.551c-2.316,15.864,1.784,30.092,11.772,42.344c9.648,11.836,22.708,16.714,37.876,16.379
		c17.283-0.382,30.056-8.245,38.641-23.072c7.588-13.104,8.918-27.357,6.675-41.951c-1.63-10.604-6.377-19.798-14.891-26.777
		C527.194,167.164,517.058,164.821,506.164,164.772z"/>
	<path style="fill:#090808;" d="M1159.005,144.019c22.007,0.422,42.256,6.255,59.774,20.002
		c14.133,11.09,23.653,25.277,26.007,43.302c2.535,19.413-3.43,36.413-16.647,50.849c-13.269,14.494-29.966,22.883-48.977,26.664
		c-16.191,3.22-32.415,2.743-48.36-1.846c-20.124-5.791-37.039-16.398-48.578-34.237c-16.429-25.399-12.241-55.256,7.713-76.536
		c15.03-16.028,34.011-24.388,55.622-27.287C1150.036,144.331,1154.486,144.003,1159.005,144.019z M1158.988,164.776
		c-14.549-0.118-26.828,4.918-37.215,14.699c-21.027,19.8-20.951,53.679,1.257,73.039c17.461,15.222,37.419,17.554,58.569,8.506
		c22.135-9.47,34.174-35.049,28.01-58.274C1203.557,179.947,1181.537,164.235,1158.988,164.776z"/>
	<path style="fill:#0C0B0A;" d="M627.856,178.092c-1.14-7.023-2.569-13.474-3.118-20.348c8.538-4.178,17.404-7.242,26.503-9.679
		c15.8-4.232,31.853-5.047,47.998-2.908c9.206,1.219,18.267,3.305,26.502,7.993c11.933,6.794,18.577,17.24,21.187,30.475
		c1.292,6.549,1.699,13.203,1.725,19.859c0.072,18.666-0.017,37.333,0.048,56c0.027,7.772-0.363,15.571,1.197,23.548
		c-9.598,0-18.985,0-28.794,0c0-5.124,0-10.027,0-15.006c-0.726,0.164-1.128,0.131-1.32,0.316
		c-11.944,11.467-26.537,16.454-42.729,17.909c-16.339,1.469-32.255-0.115-47.382-6.549c-12.344-5.25-20.633-14.307-23.098-27.923
		c-2.451-13.54,1.128-24.974,11.923-33.888c8.793-7.261,19.168-11.067,30.026-13.762c12.493-3.1,25.189-4.398,38.072-4.171
		c9.997,0.176,19.999,0.038,29.999,0.027c0.81-0.001,1.673,0.177,2.522-0.581c0.307-4.52-0.206-9.104-1.463-13.575
		c-2.469-8.779-8.094-14.714-16.658-17.799c-7.127-2.567-14.538-3.182-22.068-3.233c-15.332-0.104-30.066,2.49-43.93,9.243
		C632.762,175.131,630.661,176.491,627.856,178.092z M717.822,218.929c-4.083,0-7.872,0.036-11.661-0.006
		c-13.983-0.155-27.953-0.096-41.684,3.072c-7.494,1.729-14.674,4.164-20.538,9.49c-6.552,5.951-7.894,17.291-0.563,24.473
		c3.867,3.788,8.334,6.596,13.535,8.078c14.171,4.038,28.005,2.567,41.277-3.414c9.386-4.23,15.884-11.409,18.542-21.552
		C718.428,232.589,718.042,225.947,717.822,218.929z"/>
	<path style="fill:#0B0A0A;" d="M776.964,340.748c0.645-6.844,1.248-13.236,1.884-19.987c3.845,0.413,7.209,1.187,10.66,1.346
		c17.708,0.816,29.681-7.648,37.707-22.757c0.545-1.026,1.007-2.1,1.603-3.095c3.726-6.219,2.842-12.249-1.383-17.652
		c-3.752-4.798-5.936-10.308-8.385-15.719c-16.736-36.976-33.424-73.974-50.126-110.965c-0.604-1.338-1.445-2.592-1.524-4.41
		c11.137,0,22.216,0,33.688,0c15.058,36.919,30.176,73.988,45.479,111.507c15.954-37.406,31.737-74.412,47.579-111.555
		c10.588,0,21.034,0,31.499,0c1.05,1.668-0.35,2.882-0.898,4.094c-17.121,37.885-34.299,75.744-51.499,113.594
		c-5.959,13.114-11.397,26.467-18.011,39.284c-3.209,6.218-6.786,12.174-11.21,17.616c-9.849,12.116-22.518,18.603-38.091,20.089
		C796.375,343.052,787.085,341.24,776.964,340.748z"/>
	<path style="fill:#0B0A0A;" d="M1055.523,258.415c0.511,6.888,1.036,13.952,1.572,21.169c-4.702,2.377-9.58,3.196-14.468,3.869
		c-17.105,2.354-34.207,2.648-51.073-1.525c-17.488-4.326-32.749-12.635-44.659-26.506c-21.99-25.609-20.282-65.147,3.839-88.777
		c12.012-11.768,26.608-18.288,42.876-21.736c17.559-3.721,35.038-3.112,52.566,0.027c2.955,0.529,5.718,1.581,8.839,2.434
		c0.47,7.293-1.092,14.439-1.27,22.001c-5.13-1.047-9.802-2.125-14.519-2.939c-12.739-2.2-25.572-2.94-38.078,0.831
		c-21.199,6.393-35.049,24.831-35.424,46.135c-0.273,15.491,4.691,28.718,16.246,39.194c7.569,6.863,16.56,10.907,26.634,12.523
		c15.032,2.411,29.428,0.19,43.274-5.999c0.898-0.401,1.847-0.691,2.783-1.003C1054.785,258.073,1054.969,258.214,1055.523,258.415z
		"/>
	<path style="fill:#292827;" d="M1550.582,157.955l-0.143,0.117c4.296-0.723,8.612-0.332,12.923-0.232
		c5.27,0.122,8.139,3.382,7.574,9.4c-0.349,3.719-2.912,5.324-6.359,6.206c1.136,2.037,2.278,3.868,3.202,5.803
		c0.894,1.872,2.83,3.349,2.327,5.785c-1.579-0.317-3.31,0.409-4.77-0.672c-1.796-3.153-3.624-6.26-5.344-9.426
		c-0.913-1.68-2.031-2.421-4.314-1.35c0,3.599,0,7.312,0,10.817c-2.171,1.008-4.006,0.235-5.765,0.552l0.131,0.131
		c0.051-2.466,0.081-4.933,0.158-7.398C1550.407,171.111,1549.741,164.518,1550.582,157.955z M1564.296,169.062
		c1.495-1.547,1.972-3.436,0.369-4.82c-2.632-2.272-5.781-1.347-9.009-0.789c0.487,1.973-0.42,3.828,0.752,5.61
		C1559.032,169.062,1561.648,169.062,1564.296,169.062z"/>
</g>
</svg>
