<?xml version="1.0" encoding="iso-8859-1"?>
<!-- Generator: Adobe Illustrator 27.0.0, SVG Export Plug-In . SVG Version: 6.00 Build 0)  -->
<svg version="1.1" id="Layer_1" xmlns="http://www.w3.org/2000/svg" xmlns:xlink="http://www.w3.org/1999/xlink" x="0px" y="0px"
	 viewBox="0 0 1464.161 943" style="enable-background:new 0 0 1464.161 943;" xml:space="preserve">
<g>
	<path style="fill:#E0DFE0;" d="M629,943c0.036-1.731,0.071-3.462,0.107-5.193c1.323,0.092,2.646,0.254,3.971,0.264
		c8.983,0.071,17.994-0.316,26.943,0.263c11.961,0.774,23.902,0.394,35.853,0.442c0.042,1.408,0.085,2.816,0.127,4.224
		C673.667,943,651.333,943,629,943z"/>
	<path style="fill:#72AD69;" d="M554.753,2.821C554.964,1.892,555.375,0.98,555,0c29.667,0,59.333,0,89,0
		c0.152,0.871,0.305,1.742,0.457,2.613c-1.782,0.596-3.626,0.36-5.444,0.361c-20.278,0.016-40.556,0.025-60.833,0.003
		C570.371,2.968,562.562,2.875,554.753,2.821z"/>
	<path style="fill:#9D9A9C;" d="M1.017,804.979C0.678,804.986,0.339,804.993,0,805c0-51.667,0-103.333,0-155
		c0.276-0.207,0.573-0.242,0.89-0.106c0.036,1.993,0.103,3.987,0.103,5.98C1.005,705.576,1.011,755.277,1.017,804.979z"/>
	<path style="fill:#AFAEAF;" d="M1195,943c0.012-1.014,0.025-2.029,0.038-3.043c12.684,0.061,25.368,0.122,38.052,0.183
		c-0.03,0.953-0.06,1.907-0.089,2.86C1220.333,943,1207.667,943,1195,943z"/>
	<path style="fill:#469A46;" d="M533.751,217.351c22.996,0,46.005-0.448,68.984,0.188c11.572,0.321,18.621-3.939,23.474-14.393
		c7.021-15.122,17.419-27.885,30.453-38.416c15.768-12.74,33.895-20.083,53.684-23.72c14.315-2.631,28.801-2.668,43.263-2.833
		c21.495-0.246,42.997,0.007,64.488-0.375c55.817-0.993,111.636-0.439,167.451-0.298c21.48,0.054,42.969,0.093,64.452,0.361
		c12.24,0.152,20.999-4.98,26.18-16.264c12.345-26.889,26.795-52.714,40.156-79.091c1.577-3.113,3.137-6.236,4.788-9.31
		c2.655-4.941,6.468-7.536,12.447-7.44c15.993,0.256,31.992,0.062,47.989,0.108c3.298,0.01,6.569-0.748,9.903-0.01
		c4.063,0.9,5.426,2.828,4.002,6.776c-1.011,2.803-2.374,5.492-3.727,8.157c-17.526,34.52-35.075,69.028-52.625,103.536
		c-19.357,38.062-38.745,76.108-58.075,114.184c-14.365,28.298-28.66,56.632-42.982,84.951c-0.45,0.89-0.848,1.806-1.298,2.696
		c-4.943,9.76-12.667,14.404-23.807,13.797c-13.627-0.742-27.285-1.177-40.937-0.778c-34.148,0.998-68.302,0.198-102.453,0.477
		c-1.165,0.009-2.329,0.142-3.493,0.144c-5.278,0.011-8.746,2.69-10.851,7.351c-3.638,8.054-7.936,15.729-13.126,22.887
		c-15.22,20.992-35.643,34.546-60.297,41.968c-14.239,4.286-28.834,6.342-43.674,7.214c-14.481,0.85-28.964,0.677-43.441,0.729
		c-52.497,0.19-104.994,0.204-157.491,0.188c-36.997-0.011-73.993-0.177-110.99-0.273c-1.5-0.004-3-0.009-4.5,0.007
		c-7.488,0.079-13.109,3.36-16.654,9.959c-1.963,3.655-3.72,7.423-5.523,11.163c-13.281,27.545-28.438,54.126-41.964,81.543
		c-3.467,7.026-9.175,9.607-16.7,9.336c-9.475-0.341-18.957-0.638-28.437-0.669c-6.812-0.022-13.625,0.426-20.437,0.655
		c-0.832,0.028-1.667,0.028-2.5,0c-6.923-0.235-9.162-3.356-6.31-9.695c3.063-6.809,6.704-13.359,10.105-20.016
		c20.715-40.544,41.48-81.062,62.138-121.635c22.013-43.236,43.927-86.522,65.88-129.789c6.841-13.482,13.668-26.971,20.498-40.458
		c0.525-1.038,1.03-2.086,1.542-3.13c3.451-7.035,9.14-10.098,16.916-10.035c15.666,0.128,31.333,0.038,46.999,0.038
		c8.833,0,17.667,0,26.5,0C533.751,217.209,533.751,217.28,533.751,217.351z M591.832,263.031c-2.551-2.156-5.246-2.151-7.901-2.003
		c-6.809,0.379-13.63,0.267-20.443,0.491c-13.312,0.438-26.653,0.286-39.975,0.034c-4.14-0.078-8.294-0.413-12.448-0.393
		c-5.77,0.028-10.298,2.342-13.228,7.427c-1.327,2.303-2.615,4.631-3.828,6.995c-10.994,21.423-21.956,42.863-32.952,64.286
		c-8.189,15.956-16.425,31.887-24.609,47.845c-1.045,2.037-2.332,4.071-1.619,6.539c2.051,2.074,4.629,1.736,7.089,1.736
		c92.287,0.012,184.573,0.038,276.86-0.028c11.159-0.008,22.207-1.13,32.877-4.854c11.895-4.152,21.2-11.596,28.458-21.746
		c1.717-2.401,2.806-5.014,0.984-7.861c-1.853-2.896-4.737-2.859-7.587-2.214c-2.313,0.524-4.613,0.599-6.942,0.573
		c-5.328-0.058-10.656-0.195-15.983-0.2c-24.988-0.022-49.976-0.011-74.964-0.009c-8.662,0.001-17.334-0.239-25.985,0.076
		c-12.524,0.456-24.937-0.099-37.205-2.749c-9.115-1.969-18.118-4.297-25.952-9.704c-10.654-7.352-16.22-17.272-15.582-30.454
		c0.337-6.956,2.391-13.389,5.458-19.523c4.233-8.467,8.67-16.833,12.955-25.275C590.709,269.263,592.702,266.621,591.832,263.031z
		 M886.185,312.86c2.711,3.153,6.288,2.625,9.467,2.705c5.644,0.141,11.301-0.399,16.953-0.4c17.49-0.002,34.981-0.01,52.468,0.243
		c7.904,0.114,13.343-3.271,16.872-10.137c0.531-1.034,1.061-2.068,1.592-3.102c12.606-24.522,25.186-49.058,37.83-73.561
		c6.474-12.546,13.2-24.964,19.548-37.573c3.684-7.317,1.917-10.095-6.27-10.322c-5.988-0.166-11.988,0.135-17.982,0.141
		c-22.655,0.022-45.31,0.092-67.965-0.009c-45.972-0.205-91.943,0.556-137.916-0.138c-23.294-0.352-46.575,0.14-69.829,2.114
		c-18.775,1.594-33.015,10.209-43.398,25.679c-1.486,2.214-2.392,4.473-0.676,6.909c1.636,2.323,4.081,2.811,6.668,2.229
		c2.481-0.558,4.963-0.498,7.456-0.494c42.146,0.064,84.291,0.146,126.437,0.201c8.325,0.011,16.629,0.375,24.844,1.754
		c11.974,2.011,23.121,6.108,32.624,13.907c8.346,6.85,12.672,15.602,12.259,26.572c-0.275,7.311-2.565,14.012-5.7,20.499
		c-3.906,8.082-8.268,15.917-12.738,23.697C887.172,306.48,885.363,309.185,886.185,312.86z M835.1,263.716
		c-1.877-2.339-4.283-2.067-6.608-2.067c-50.659-0.001-101.319,0.043-151.978-0.075c-4.566-0.011-7.313,1.448-9.436,5.606
		c-7.025,13.759-14.44,27.318-21.626,40.995c-1.122,2.136-2.617,4.146-3.208,6.962c1.743,0,3.225,0,4.707,0
		c50.992,0,101.985-0.083,152.977,0.11c6.053,0.023,9.713-2.351,12.247-7.457c2.215-4.464,4.583-8.852,6.885-13.273
		C824.424,284.217,829.789,273.916,835.1,263.716z"/>
	<path style="fill:#469A46;" d="M584.981,511.083c5.545,1.492,11.269,2.98,16.964,4.573c28.477,7.965,57.167,15.046,86.31,20.121
		c20.469,3.565,41.041,6.391,61.729,8.492c28.884,2.934,57.818,3.52,86.781,2.498c18.772-0.662,37.453-2.643,56.047-5.48
		c25.505-3.892,50.607-9.465,75.135-17.461c35.402-11.542,68.232-28.006,97.101-51.795c16.914-13.938,32.459-29.181,43.663-48.29
		c11.895-20.288,18.615-42.117,19.674-65.7c1.216-27.099-4.935-52.366-18.15-75.983c-1.217-2.175-2.359-4.391-3.584-6.561
		c-2.518-4.46-2.383-8.994,0.058-13.322c6.209-11.009,11.379-22.537,17.126-33.776c0.454-0.888,0.825-1.836,1.395-2.644
		c2.155-3.057,4.565-3.685,7.715-1.643c2.217,1.437,4.199,3.268,6.158,5.063c20.212,18.526,38.663,38.562,52.755,62.262
		c12.641,21.26,20.875,44.12,23.931,68.695c5.331,42.868-7.121,80.257-35.739,112.274c-25.235,28.232-56.079,48.816-90.277,64.597
		c-26.217,12.098-53.668,20.327-81.921,26.11c-22.016,4.506-44.255,7.412-66.583,9.629c-11.576,1.15-23.203,1.851-34.839,2.412
		c-18.144,0.874-36.284,1.054-54.422,0.444c-16.614-0.559-33.193-1.702-49.749-3.37c-19.533-1.968-38.93-4.782-58.212-8.366
		c-29.589-5.501-58.715-12.92-87.391-22.057c-22.793-7.262-45.209-15.561-67.245-24.877c-1.371-0.579-2.759-1.194-3.981-2.024
		C584.249,514.1,583.66,512.919,584.981,511.083z"/>
	<path style="fill:#469A46;" d="M554.753,2.821c7.809,0.054,15.618,0.147,23.427,0.156c20.278,0.022,40.556,0.013,60.833-0.003
		c1.818-0.001,3.661,0.235,5.444-0.361c10.105,0.682,20.21,1.328,30.301,2.247c12.246,1.115,24.449,2.565,36.596,4.387
		c20.676,3.101,41.168,7.188,61.485,12.16c34.531,8.45,68.15,19.672,101.088,32.982c3.49,1.41,7.313,2.117,10.347,4.572
		c-2.154,0.221-3.986,1.035-5.264,2.867c-13.323-3.46-26.613-7.056-39.978-10.349c-22.423-5.525-45.038-10.11-67.875-13.623
		c-24.181-3.72-48.484-5.988-72.911-7.259c-20.47-1.065-40.95-1.261-61.398-0.362C580.747,32.703,526.465,43.5,475.079,66.932
		c-21.545,9.825-42.185,21.18-60.858,35.863c-31.512,24.778-52.801,56.278-62.412,95.379c-8.2,33.363-2.577,64.588,14.818,93.926
		c2.99,5.042,5.671,10.1,5.587,16.254c-0.051,3.775-0.722,7.338-2.562,10.543c-4.882,8.505-9.701,17.056-15.221,25.177
		c-0.746,1.097-1.557,2.168-2.46,3.138c-3.478,3.735-6.759,4.256-11.054,1.5c-2.227-1.429-4.333-3.12-6.245-4.953
		c-20.635-19.778-39.61-40.917-53.32-66.257c-10.628-19.643-17.305-40.484-19.564-62.815c-4.165-41.176,7.595-77.164,34.398-108.428
		c18.098-21.11,40.189-37.295,63.992-51.265c31.495-18.484,65.43-30.725,100.9-38.994c21.23-4.949,42.722-8.298,64.359-10.733
		C535.177,4.17,544.979,3.619,554.753,2.821z"/>
	<path style="fill:#5B5D5F;" d="M1.017,804.979c-0.007-49.702-0.012-99.403-0.024-149.105c0-1.993-0.067-3.987-0.103-5.98
		c5.92-1.115,11.927-0.612,17.886-0.976c20.605-1.259,41.236-1.433,61.843-0.711c18.91,0.663,37.779,2.403,56.018,7.906
		c9.482,2.861,17.993,7.561,25.003,14.841c14.078,14.623,14.161,36.551,0.086,51.175c-7.95,8.261-17.947,13.034-28.52,16.7
		c-10.88,3.773-22.213,5.281-33.669,6.244c-10.457,0.879-20.926,0.701-31.386,1.112c-2.813,0.111-5.637,0.375-8.414,0.831
		c-3.729,0.612-6.285,2.505-7.164,6.549c-0.541,2.49-0.601,4.952-0.645,7.425c-0.106,5.992-0.114,11.988-0.014,17.98
		c0.078,4.674-0.445,9.296-1.059,13.898c-0.944,7.077-5.061,11.209-12.541,11.965C25.906,806.089,13.455,806.362,1.017,804.979z
		 M51.889,696.973c0,5.329-0.048,10.659,0.013,15.988c0.066,5.737,2.185,8.119,7.875,8.934c1.312,0.188,2.657,0.173,3.988,0.212
		c11.069,0.322,21.806-1.716,32.432-4.562c4.826-1.293,9.497-2.976,13.842-5.457c10.038-5.734,12.051-17.196,4.483-25.868
		c-1.629-1.867-3.512-3.571-5.497-5.059c-6.321-4.739-13.658-6.714-21.403-7.183c-5.311-0.322-10.666-0.004-15.962-0.451
		c-4.832-0.408-9.598-0.577-14.385,0.225c-4.349,0.729-5.287,1.703-5.361,6.235C51.821,685.647,51.892,691.31,51.889,696.973z"/>
	<path style="fill:#5B5D5F;" d="M1155.151,810.066c-19.032-1.443-38.077-2.818-56.115-9.945c-8.238-3.255-15.95-7.427-22.834-13.032
		c-14.737-11.999-20.785-27.414-18.402-46.289c2.24-17.74,12.164-29.824,27.623-37.686c14.856-7.555,30.512-13.021,46.973-15.817
		c25.266-4.292,49.908-1.859,73.835,7.488c7.441,2.907,14.602,6.375,21.541,10.299c11.92,6.741,20.709,16.239,24.13,29.732
		c4.954,19.544-1.112,36.083-15.216,49.806c-9.235,8.985-20.798,14.19-32.905,18.088c-11.428,3.679-23.246,5.409-35.201,6.335
		C1164.11,809.393,1159.67,810.127,1155.151,810.066z M1202.275,746.427c0.281-4.437-0.522-9.262-2.817-13.854
		c-5.701-11.406-15.405-17.561-27.315-20.549c-8.262-2.073-16.715-1.869-25.202-1.305c-8.872,0.589-16.973,3.152-24.111,8.344
		c-7.934,5.771-13.701,13.235-14.81,23.275c-2.028,18.37,8.143,34.191,25.731,39.509c14.12,4.27,28.554,4.171,42.718,0.098
		C1193.469,777.056,1202.525,762.761,1202.275,746.427z"/>
	<path style="fill:#5B5D5F;" d="M486.686,775.28c2.801,0.76,3.4,2.338,3.739,3.997c0.795,3.894,1.856,7.734,1.774,11.787
		c-0.125,6.184-1.966,9.14-7.962,11.097c-4.561,1.488-9.241,2.677-13.936,3.675c-17.336,3.685-34.892,4.867-52.562,3.842
		c-15.421-0.895-30.786-2.304-45.5-7.598c-9.768-3.514-18.9-8.092-26.786-14.978c-9.318-8.137-14.712-18.432-16.173-30.573
		c-0.993-8.252-0.782-16.564,1.44-24.745c3.83-14.104,12.258-24.567,24.886-31.607c10.965-6.113,22.905-9.606,35.148-12.121
		c12.16-2.497,24.474-2.812,36.77-1.912c15.833,1.159,31.13,4.905,45.688,11.329c11.489,5.069,19.482,13.721,24.517,25.091
		c3.723,8.406,6.086,17.217,6.412,26.458c0.219,6.224-1.607,8.096-7.864,8.127c-13.325,0.065-26.651,0.02-39.976,0.02
		c-24.484,0.001-48.968,0.003-73.452,0.004c-0.5,0-1.001-0.026-1.499,0c-5.08,0.262-7.16,4.033-4.346,8.196
		c5.348,7.912,12.153,14,21.483,16.987c6.047,1.936,12.261,2.784,18.499,3.716c18.875,2.819,36.98-1.471,55.157-5.539
		C477.374,779.362,482.054,776.863,486.686,775.28z M376.224,734.665c2.199,2.18,5.017,2.173,7.86,2.177
		c22.12,0.032,44.24,0.079,66.361,0.129c5.561,0.013,7.592-2.842,5.518-8.032c-3.148-7.877-9.071-12.954-16.815-15.994
		c-14.947-5.868-29.901-5.246-44.659,0.569c-7.252,2.858-13.356,7.365-17.183,14.464
		C376.166,730.094,375.341,732.186,376.224,734.665z"/>
	<path style="fill:#5C5D5F;" d="M1338.275,703.99c2.284-1.328,4.402-2.595,6.554-3.804c18.18-10.215,37.767-14.267,58.492-13.342
		c9.973,0.445,19.916,1.187,29.533,4.09c18.981,5.729,31.01,21.786,31.133,41.615c0.13,20.989,0.131,41.979,0.175,62.968
		c0.003,1.33-0.076,2.664-0.185,3.99c-0.231,2.816-1.867,4.528-4.441,5.435c-0.783,0.276-1.597,0.637-2.402,0.648
		c-10.112,0.134-20.208,2.275-30.334,0.322c-5.232-1.009-8.559-4.005-9.819-9.318c-1.472-6.207-1.427-12.552-1.61-18.83
		c-0.365-12.484-0.02-24.989-0.358-37.475c-0.197-7.283-2.714-14.033-7.093-19.896c-7.597-10.169-18.219-12.938-30.156-11.246
		c-8.484,1.203-16.311,4.529-23.182,9.768c-10.01,7.633-14.277,18.204-14.503,30.397c-0.277,14.986-0.214,29.986,0.065,44.972
		c0.138,7.411-0.507,11.458-11.335,11.598c-5.83,0.076-11.66,0.09-17.49,0.112c-1.498,0.006-3.001-0.002-4.494-0.113
		c-9.125-0.679-12.605-3.985-13.959-13.116c-1.498-10.107-0.796-20.276-0.814-30.415c-0.034-19.656,0.255-39.312-0.197-58.967
		c-0.05-2.159-0.055-4.352,0.251-6.481c0.714-4.968,3.677-7.828,8.694-7.903c9.985-0.149,19.976-0.109,29.961,0.077
		c4.474,0.083,6.779,2.745,7.297,7.258C1338.338,698.787,1337.502,701.252,1338.275,703.99z"/>
	<path style="fill:#5C5D5F;" d="M849.428,809.993c-8.253,0.401-17.597-1.044-26.961-2.612c-4.733-0.793-9.518-1.599-14.383-1.403
		c-1.656,0.067-3.361,0.034-4.979-0.283c-4.151-0.811-6.551-3.326-6.758-7.507c-0.197-3.982,0.281-7.991,1.648-11.765
		c1.479-4.085,3.649-5.397,7.969-5.403c2.7-0.003,5.237,0.82,7.804,1.476c11.144,2.849,22.376,5.016,33.965,4.499
		c8.206-0.366,16.143-2.089,23.748-5.132c5.112-2.045,7.035-5.383,6.608-10.462c-0.389-4.631-3.404-7.034-7.392-8.449
		c-6.263-2.221-12.707-3.784-19.232-5.048c-10.578-2.048-21.292-3.464-31.581-6.861c-3.954-1.305-7.704-3.026-11.418-4.894
		c-18.563-9.339-19.907-35.095-1.083-46.297c9.108-5.42,18.896-8.846,29.251-10.812c8.525-1.619,17.175-1.707,25.792-2.349
		c13.055-0.973,25.861,0.655,38.736,2.055c2.97,0.323,5.99,0.207,8.987,0.248c6.082,0.082,9.731,3.13,9.328,10.669
		c-0.097,1.822-0.314,3.649-0.644,5.443c-0.893,4.852-3.284,7.048-8.222,6.836c-6.797-0.293-13.569-1.237-20.366-1.47
		c-11.297-0.386-22.628-1.079-33.888,0.479c-4.478,0.62-8.177,2.73-9.774,7.4c-1.509,4.412-0.231,7.81,3.891,10.056
		c3.855,2.1,8.193,2.624,12.375,3.599c12.92,3.011,25.989,5.396,38.755,9.055c7.254,2.08,13.941,5.187,19.6,10.442
		c10.835,10.062,10.911,32.05-2.737,41.92c-8.137,5.885-17.362,8.948-26.827,11.509
		C878.252,808.559,864.582,810.165,849.428,809.993z"/>
	<path style="fill:#5C5D5F;" d="M625.212,809.956c-18.473-0.361-35.292-1.988-51.391-8.032
		c-10.511-3.946-20.341-9.017-28.346-17.163c-21.616-21.997-19.857-57.219,3.882-76.951c13.702-11.389,29.658-17.382,47.125-19.819
		c8.243-1.15,16.52-1.817,24.839-1.687c9.972,0.156,19.935,0.717,29.812,2.112c3.14,0.444,6.167-0.653,9.358,0.228
		c5.093,1.406,7.145,3.318,7.185,8.571c0.032,4.171-0.884,8.229-2.412,12.129c-0.962,2.456-2.773,3.71-5.388,3.625
		c-1.821-0.06-3.651-0.23-5.451-0.518c-8.374-1.339-16.758-2.703-25.269-2.418c-12.586,0.421-24.15,3.981-34.438,11.471
		c-10.384,7.56-13.611,17.947-12.371,30.213c1.537,15.206,10.509,24.319,24.342,29.148c11.469,4.003,23.379,4.474,35.409,3.697
		c5.673-0.367,11.125-1.758,16.651-2.871c5.997-1.208,9.675,0.876,11.566,6.596c0.988,2.987,1.685,6.089,1.569,9.286
		c-0.182,5.024-2.534,7.935-7.372,9.417c-4.846,1.485-9.899,1.16-14.841,1.64C641.073,809.464,632.407,809.599,625.212,809.956z"/>
	<path style="fill:#5C5D5F;" d="M246.837,708.515c3.004-2.674,5.292-4.811,7.685-6.823c10.116-8.505,22.061-12.7,34.927-14.654
		c3.942-0.599,7.881-1.284,11.908-1.044c5.649,0.337,8.769,3.225,9.648,8.851c0.645,4.129,0.863,8.272,0.703,12.434
		c-0.259,6.729-2.794,9.301-9.539,9.458c-5.311,0.123-10.578-1.092-15.921-0.588c-4.469,0.422-8.917,0.924-13.223,2.252
		c-10.619,3.275-16.953,10.662-20.025,21.087c-2.273,7.714-2.916,15.656-2.991,23.655c-0.067,7.164-0.039,14.33-0.134,21.494
		c-0.049,3.667-0.744,7.262-1.591,10.822c-2.073,8.711-7.124,11.784-15.287,12.384c-8.521,0.626-16.913-0.958-25.288-2.234
		c-3.337-0.508-5.526-2.278-6.002-6.218c-0.646-5.336-0.683-10.677-0.297-15.942c0.477-6.495,0.355-12.968,0.396-19.449
		c0.081-12.831,0.217-25.668-0.046-38.494c-0.167-8.147-0.567-16.29-0.481-24.444c0.011-1-0.083-2.009,0.019-2.998
		c0.754-7.291,2.845-9.682,10.09-8.987c6.828,0.655,13.644-0.426,20.47-0.232c1.993,0.057,4.048,0.014,5.96,0.485
		c5.344,1.317,8.437,5.453,8.989,11.832C246.993,703.297,246.837,705.461,246.837,708.515z"/>
	<path style="fill:#5C5D5F;" d="M754.17,747.747c0,13.649,0.073,27.298-0.051,40.946c-0.032,3.46,1.034,6.816,0.202,10.392
		c-0.835,3.589-2.644,5.573-6.161,6.182c-0.979,0.169-1.949,0.468-2.932,0.52c-6.466,0.339-12.933,0.763-19.404,0.874
		c-3.133,0.054-6.321-0.272-9.405-0.848c-5.011-0.935-8.235-3.94-9.451-9.042c-1.358-5.701-1.579-11.528-1.618-17.304
		c-0.161-24.3-0.067-48.602-0.07-72.904c0-2.826-0.236-5.67,0.01-8.473c0.528-6.005,3.278-8.747,9.222-8.985
		c8.311-0.333,16.635-0.54,24.951-0.102c9.331,0.49,13.514,4.466,14.36,13.819c0.344,3.802,0.319,7.645,0.332,11.469
		C754.195,725.443,754.17,736.595,754.17,747.747z"/>
	<path style="fill:#5F5F61;" d="M1016.899,752.919c0,13.322,0.003,26.644-0.005,39.966c-0.001,1.498,0.069,3.013-0.122,4.49
		c-0.633,4.891-2.608,6.989-7.422,8.097c-0.323,0.074-0.645,0.217-0.968,0.22c-9.138,0.086-18.309,1.006-27.392-0.616
		c-7.16-1.278-10.098-4.348-10.818-11.611c-0.441-4.452-0.942-8.911-0.939-13.421c0.02-26.315-0.077-52.63-0.129-78.945
		c-0.002-1.165-0.037-2.339,0.084-3.494c0.529-5.024,3.249-8.148,8.25-8.404c8.807-0.45,17.66-0.845,26.449,0.048
		c7.943,0.807,11.32,4.943,12.138,13.262c1.308,13.292,0.436,26.61,0.693,39.914c0.067,3.497,0.01,6.996,0.01,10.493
		C1016.786,752.919,1016.842,752.919,1016.899,752.919z"/>
	<path style="fill:#605F62;" d="M1008.935,886.424c0,14.419-0.294,27.735,0.096,41.03c0.297,10.121-3.712,12.462-12.431,12.395
		c-7.351-0.057-10.25-3.046-10.307-10.432c-0.089-11.656-0.312-23.323,0.1-34.964c0.2-5.656,0.117-11.209-0.423-16.835
		c-0.652-6.792,1.09-8.664,7.731-9.538c3.782-0.498,7.528-1.123,11.387-1.153c6.845-0.053,12.262,2.433,16.266,7.98
		c10.522,14.575,22.511,27.992,33.396,42.28c0.293,0.385,0.722,0.665,1.074,0.981c1.721,0.259,2.773-0.882,4.276-1.797
		c0-10.557,0-21.192,0-31.828c0-2.664-0.051-5.33,0.011-7.993c0.13-5.583,1.965-7.67,7.383-8.832
		c1.488-0.319,2.934-0.553,4.436-0.355c6.363,0.836,8.723,3.332,8.771,9.859c0.096,13.154,0.313,26.319-0.12,39.46
		c-0.16,4.849,0.374,9.571,0.564,14.352c0.213,5.378-1.395,7.207-6.672,7.887c-4.445,0.572-8.861,1.341-13.382,1.23
		c-5.89-0.144-10.502-2.519-14.059-7.227C1035.208,917.274,1022.252,902.553,1008.935,886.424z"/>
	<path style="fill:#5F5F61;" d="M214.834,900.242c0-8.166-0.051-16.333,0.017-24.498c0.05-6.037,1.762-7.875,7.669-7.878
		c12.992-0.006,26-0.217,38.97,0.358c11.493,0.51,22.593,3.175,33.16,8.089c18.334,8.527,20.104,30.195,13.491,43.066
		c-3.391,6.601-9.099,10.505-15.547,13.428c-8.566,3.883-17.688,5.704-27.047,6.09c-12.155,0.501-24.321,0.363-36.483,0.121
		c-2.013-0.04-3.947-0.364-5.888-0.924c-3.882-1.12-6.119-3.628-7.244-7.468c-1.148-3.918-0.985-7.913-1.065-11.886
		C214.742,912.576,214.834,906.408,214.834,900.242z M248.816,928.993c0.742,0,1.579,0.054,2.408-0.008
		c9.912-0.746,19.398-2.846,27.627-8.844c11.881-8.66,12.399-22.796,1.064-32.176c-10.243-8.476-22.113-10.061-34.735-7.474
		c-5.849,1.199-10.161,5.106-8.601,13.833c0.614,3.433,1.188,6.874,1.876,10.292c0.733,3.643,0.896,7.221-0.305,10.825
		c-0.52,1.56-0.834,3.233-0.952,4.876c-0.434,6.027,2.553,9.106,8.537,8.928C246.733,929.214,247.728,929.084,248.816,928.993z"/>
	<path style="fill:#606061;" d="M1233.089,940.14c-12.684-0.061-25.368-0.122-38.052-0.183c-7.383-1.105-14.811-2.032-21.738-5.072
		c-9.846-4.321-17.452-10.904-21.005-21.373c-4.017-11.836,0.073-25.133,10.281-33.052c10.246-7.948,22.076-11.864,34.851-13.502
		c14.665-1.88,29.188-0.037,43.753,1.074c2.584,0.197,4.585,1.281,5.347,3.754c0.857,2.782,0.714,5.606-1.178,8.05
		c-0.774,1-1.922,1.206-3.144,1.178c-1.832-0.042-3.612-0.302-5.424-0.646c-14.2-2.69-28.33-2.844-42.272,1.589
		c-3.818,1.214-7.376,2.922-10.633,5.303c-9.885,7.226-13.717,25.188,1.28,34.451c11.471,7.085,23.929,9.628,37.229,8.217
		c5.126-0.544,7.294-3.041,7.701-8.145c0.066-0.829,0.151-1.659,0.16-2.489c0.071-6.222-1.985-8.293-8.348-8.394
		c-3.662-0.058-7.347,0.156-10.981-0.183c-4.356-0.406-6.081-2.528-5.916-6.461c0.137-3.281,1.501-5.105,4.831-5.144
		c10.153-0.118,20.327-0.283,30.459,0.239c6.727,0.346,8.714,2.992,9.849,9.714c1.115,6.61,1.055,13.262,0.833,19.897
		c-0.209,6.269-3.176,9.189-9.492,10.083C1238.689,939.441,1235.887,939.777,1233.089,940.14z"/>
	<path style="fill:#5F5F61;" d="M443.024,904.291c3.937,5.369,7.921,10.639,11.724,16.036c3.726,5.287,7.036,10.83,9.449,16.862
		c-12.941,6.103-25.821,1.703-31.274-9.391c-2.429-4.941-4.963-9.76-9.106-13.56c-3.972-3.643-11.969-4.797-16.796-2.37
		c-2.455,1.234-3.036,3.304-3.023,5.781c0.023,4.659,0.044,9.318-0.004,13.976c-0.053,5.156-2.264,7.64-7.358,8.175
		c-2.993,0.314-5.976,0.101-8.888-0.773c-3.971-1.191-5.52-2.882-5.747-7.081c-0.198-3.647-0.007-7.315-0.005-10.974
		c0.004-14.313,0.001-28.626,0.003-42.939c0-1.165-0.066-2.337,0.036-3.494c0.4-4.525,2.457-6.559,7.039-6.673
		c4.654-0.116,9.313-0.008,13.97-0.006c7.657,0.004,15.313-0.015,22.97,0.008c7.362,0.023,14.56,1.395,21.574,3.392
		c11.06,3.148,15.459,17.107,8.329,25.691c-2.076,2.499-4.869,3.896-7.807,5.153C446.482,902.801,444.459,902.62,443.024,904.291z
		 M403.978,888.912c-0.075,7.672,3.222,10.815,10.582,9.982c4.595-0.52,9.182-1.148,13.743-1.909c4.47-0.746,6.87-3.905,6.695-8.435
		c-0.165-4.257-2.549-7.327-7.323-8.079c-5.546-0.874-11.193-1.299-16.81-1.474c-3.999-0.124-6.358,2.388-6.864,6.434
		C403.856,886.574,403.978,887.751,403.978,888.912z"/>
	<path style="fill:#4E9C47;" d="M971.642,118.509c-14.628,0.951-29.228,1.69-43.786-0.479c-7.936-1.183-15.619-3.209-22.872-6.672
		c-34.603-16.517-70.649-28.935-107.894-37.911c-8.55-2.06-17.179-3.816-25.814-5.488c-6.046-1.17-11.746-3.279-18.18-5.728
		c7.033-0.459,13.301-0.421,19.536,0.215c28.491,2.907,56.461,8.684,84.196,15.646c30.288,7.603,60.239,16.315,89.285,27.908
		C954.883,109.501,963.462,113.398,971.642,118.509z"/>
	<path style="fill:#4E9C47;" d="M726.787,515.761c-78.057-5.26-151.327-26.537-222.192-57.236c17.881-1.76,35.689-2.942,53.331,1.52
		c7.128,1.803,13.729,4.907,20.356,7.995c32.907,15.336,67.255,26.599,102.28,35.891c13.156,3.49,26.396,6.667,39.629,9.855
		C722.239,514.28,724.169,515.039,726.787,515.761z"/>
	<path style="fill:#666668;" d="M794.714,939.156c-8.985,0.003-17.971,0.04-26.956-0.012c-5.174-0.03-6.448-1.125-6.889-6.31
		c-1.014-11.93-0.835-23.865-0.129-35.816c0.273-4.613,0.387-9.272-0.296-13.927c-0.477-3.254-0.682-6.599,0.392-9.88
		c1.58-4.828,4.571-6.359,12.607-6.218c5.83,0.102,8.429,1.895,9.818,6.497c0.445,1.472,0.601,2.944,0.601,4.418
		c-0.002,11.143-0.093,22.286-0.111,33.429c-0.005,3.129-1.016,6.165-0.266,9.394c1.384,5.957,3.737,8.249,9.901,8.327
		c7.814,0.099,15.63-0.041,23.445-0.06c1.83-0.005,3.666-0.028,5.487,0.111c3.802,0.29,5.486,1.928,5.415,5.102
		c-0.072,3.205-1.781,4.876-5.563,4.914C813.018,939.216,803.866,939.154,794.714,939.156z"/>
	<path style="fill:#616264;" d="M695.873,938.776c-11.951-0.048-23.892,0.332-35.853-0.442c-8.949-0.579-17.96-0.193-26.943-0.263
		c-1.324-0.01-2.647-0.172-3.971-0.264c-0.038-19.967-0.061-39.934-0.134-59.9c-0.009-2.541,0.1-5.001,1.703-7.113
		c3.527-4.645,16.928-4.771,20.508-0.18c1.498,1.921,1.85,4.187,1.833,6.574c-0.097,13.476-0.159,26.952-0.236,40.428
		c-0.003,0.499-0.045,0.998-0.039,1.496c0.092,7.508,2.801,10.256,10.405,9.937c8.321-0.349,16.632,0.012,24.947-0.039
		c6.807-0.042,8.036,1.311,7.884,8.274C695.967,937.781,695.909,938.278,695.873,938.776z"/>
	<path style="fill:#605F62;" d="M913.172,885.987c0,7.625-0.316,15.267,0.094,22.871c0.366,6.795,0.526,13.586,0.604,20.38
		c0.079,6.931-1.998,9.303-8.706,10.3c-2.466,0.367-4.93,0.284-7.415-0.24c-5.628-1.187-7.78-4.098-7.463-9.79
		c0.915-16.413,0.797-32.828,0.04-49.252c-0.43-9.331,2.332-12.935,11.903-12.992c1.334-0.008,2.622,0.146,3.934,0.457
		c5.561,1.319,7.504,3.541,7.716,9.299c0.11,2.985,0.019,5.978,0.019,8.967C913.656,885.988,913.414,885.987,913.172,885.987z"/>
	<path style="fill:#616264;" d="M554.006,903.12c0,8.651-0.15,17.306,0.047,25.953c0.16,7.006-2.611,10.588-10.986,10.826
		c-2.012,0.057-3.947-0.262-5.902-0.773c-2.73-0.714-4.38-2.519-4.996-5.041c-0.665-2.722-1.153-5.532-0.894-8.389
		c1.248-13.776,0.258-27.582,0.529-41.372c0.035-1.803-0.463-3.612-0.512-5.424c-0.235-8.635,3.031-11.867,11.601-11.585
		c9.141,0.301,11.239,2.619,11.116,11.846c-0.107,7.985-0.022,15.972-0.022,23.958C553.992,903.12,553.999,903.12,554.006,903.12z"
		/>
	<path style="fill:#616264;" d="M730.315,638.844c4.317,0,8.634-0.009,12.951,0.002c6.983,0.018,9.427,1.989,11.075,8.837
		c1.068,4.435,1.029,8.953,0.288,13.356c-0.946,5.624-4.829,8.453-10.402,7.57c-8.622-1.366-17.181-0.784-25.761,0.085
		c-8.5,0.861-13.225-3.274-13.452-11.923c-0.065-2.491-0.111-4.995,0.06-7.477c0.475-6.912,3.924-10.239,10.793-10.42
		c2.487-0.066,4.981,0.173,7.473,0.217c2.325,0.041,4.65,0.009,6.976,0.009C730.315,639.015,730.315,638.93,730.315,638.844z"/>
	<path style="fill:#5F5F61;" d="M993.252,638.833c4.149,0,8.297-0.021,12.446,0.005c6.915,0.042,10.22,2.771,11.106,9.505
		c0.52,3.951,0.608,7.965,0.094,11.935c-0.774,5.984-4.751,8.988-10.793,8.166c-7.947-1.081-15.875-0.811-23.792,0.199
		c-7.931,1.011-12.787-2.907-13.263-10.966c-0.176-2.976-0.206-5.986,0.025-8.956c0.496-6.385,3.842-9.592,10.238-9.807
		c4.642-0.156,9.294-0.031,13.941-0.031C993.253,638.867,993.252,638.85,993.252,638.833z"/>
	<path style="fill:#8EBC82;" d="M879.012,61.828c1.278-1.831,3.109-2.645,5.264-2.867c6.988,1.096,13.795,2.58,19.318,8.903
		C894.103,68.686,886.294,66.342,879.012,61.828z"/>
</g>
</svg>
