<?xml version="1.0" encoding="iso-8859-1"?>
<!-- Generator: Adobe Illustrator 27.0.0, SVG Export Plug-In . SVG Version: 6.00 Build 0)  -->
<svg version="1.1" id="Layer_1" xmlns="http://www.w3.org/2000/svg" xmlns:xlink="http://www.w3.org/1999/xlink" x="0px" y="0px"
	 viewBox="0 0 1581.309 588.117" style="enable-background:new 0 0 1581.309 588.117;" xml:space="preserve">
<g>
	<path style="fill:#7997CE;" d="M1.024,448.96C0.683,448.974,0.341,448.987,0,449c0-17,0-34,0-51
		c0.358,0.048,0.716,0.095,1.074,0.143C1.058,415.082,1.041,432.021,1.024,448.96z"/>
	<path style="fill:#7997CE;" d="M769.925,0.938C770.077,0.636,770.102,0.323,770,0c10.667,0,21.333,0,32,0
		c-0.016,0.31,0.003,0.618,0.056,0.923C791.346,0.928,780.635,0.933,769.925,0.938z"/>
	<path style="fill:#B1C0E3;" d="M802.056,0.923C802.003,0.618,801.984,0.31,802,0c3.333,0,6.667,0,10,0
		c-0.015,0.291,0.007,0.58,0.065,0.866C808.729,0.885,805.393,0.904,802.056,0.923z"/>
	<path style="fill:#2D71B9;" d="M1003.472,448.811c0-58.814,0-117.412,0-176.024c3.363-0.981,367.197-1.298,374.334-0.258
		c0,20.869,0,41.798,0,63.198c31.446,0,62.516,0,94.026,0c0,20.875,0,41.285,0,62.139c35.838,0,71.238,0,106.931,0
		c0,17.176,0,33.906,0,50.945C1387.055,448.811,1195.381,448.811,1003.472,448.811z"/>
	<path style="fill:#2D71B8;" d="M1.024,448.96c0.017-16.939,0.034-33.878,0.05-50.817c10.663-0.047,21.325-0.126,31.988-0.136
		c22.998-0.021,45.996,0.004,68.993-0.026c1.785-0.002,3.627,0.356,5.839-0.509c0-20.349,0-40.751,0-61.493
		c31.42,0,62.355,0,93.841,0c0-21.385,0-42.433,0-63.726c124.958,0,249.363,0,374.062,0c0,58.804,0,117.53,0,176.512
		c-1.908,0.627-3.9,0.339-5.839,0.339c-130.154,0.015-260.309,0.014-390.463,0.014c-57.661,0-115.322,0.001-172.984-0.007
		C4.683,449.111,2.854,449.013,1.024,448.96z"/>
	<path style="fill:#2F72B9;" d="M653.964,170.195c2.603-0.43,4.738-1.568,6.991-0.654c1.195,1.607,0.77,3.34,0.813,4.964
		c0.493,18.48,0.744,36.968,1.459,55.439c0.811,20.96,1.277,41.93,2.079,62.886c0.401,10.484,0.406,20.974,0.896,31.448
		c0.972,20.787,1.591,41.584,2.01,62.389c0.066,3.293,0.541,6.579,0.852,10.149c81.856,0,163.6,0,245.625,0
		c0.401-3.044,0.927-6.121,1.195-9.221c1.132-13.08,2.148-26.169,3.281-39.249c1.29-14.896,2.657-29.786,3.992-44.678
		c1.335-14.892,2.672-29.784,4.008-44.676c0.995-11.086,1.962-22.175,2.991-33.258c1.703-18.351,3.445-36.698,5.196-55.323
		c2.603-1.092,5.338-0.296,8.23-0.511c0.437,5.002,0.937,9.595,1.218,14.202c0.506,8.304,0.787,16.622,1.331,24.923
		c0.804,12.271,1.788,24.531,2.629,36.8c0.386,5.64,0.542,11.289,0.979,16.935c1.039,13.43,1.51,26.904,2.393,40.348
		c1.068,16.261,2.183,32.517,3.112,48.787c0.549,9.623,1.304,19.238,1.854,28.865c0.958,16.768,1.864,33.543,3.198,50.283
		c0.45,5.646,0.56,11.263,0.921,16.819c-3.678,1.051-336.215,1.309-342.258,0.278C630.622,355.514,642.291,262.868,653.964,170.195z
		"/>
	<path style="fill:#2F72B9;" d="M802.056,0.923c3.336-0.019,6.672-0.038,10.008-0.058c15.271,0.869,30.375,3.048,45.41,5.769
		c26.052,4.713,51.237,12.489,75.579,22.718c26.609,11.181,51.297,25.845,74.315,43.334c14.086,10.703,27.445,22.203,39.582,35.05
		c19.49,20.631,36.748,42.945,50.362,67.965c10.265,18.864,18.79,38.441,24.974,59.023c0.381,1.27,1.042,2.46,0.457,3.902
		c-1.732-0.475-1.871-2.177-2.443-3.373c-10.673-22.326-24.244-42.732-40.052-61.751c-21.798-26.226-47.44-48.021-75.91-66.577
		c-28.548-18.606-59.24-32.688-91.725-42.945c-20.12-6.353-40.609-10.958-61.462-14.164c-12.991-1.997-26.039-3.051-39.122-4.091
		c-12.157-0.966-24.302-0.904-36.433-0.499c-22.094,0.738-44.004,3.166-65.744,7.458c-31.391,6.197-61.661,15.646-90.684,29.141
		c-28.943,13.457-55.794,30.188-80.327,50.635c-28.653,23.881-52.712,51.662-71.453,83.958c-3.332,5.743-6.317,11.687-9.462,17.538
		c-0.512,0.028-1.024,0.055-1.536,0.083c6.472-21.541,15.456-41.997,26.581-61.526c9.566-16.792,20.489-32.643,32.958-47.418
		c11.076-13.124,23.161-25.239,35.906-36.753c11.641-10.517,24.195-19.825,37.21-28.457c15.781-10.466,32.327-19.658,49.673-27.376
		c21.72-9.663,44.126-17.278,67.218-22.841c10.471-2.523,21.111-4.221,31.783-5.741c10.695-1.523,21.38-2.958,32.205-2.99
		C780.635,0.933,791.346,0.928,802.056,0.923z"/>
	<path style="fill:#3072B9;" d="M1266.131,545.436c-5.399,4.995-8.872,9.887-12.938,14.236c-1.362,1.457-2.541,3.085-3.919,4.524
		c-2.661,2.779-3.896,2.732-6.488-0.239c-5.106-5.851-10.169-11.74-15.833-18.287c0,14.171,0,27.429,0,41.305
		c-5.663,0.32-11.05,0.049-16.756,0.161c0-22.393,0-44.459,0-66.891c4.624,0,9.366,0,14.656,0
		c6.79,7.72,13.899,15.802,21.344,24.267c7.318-8.346,14.406-16.43,21.475-24.491c4.961,0,9.762,0,14.89,0
		c0,22.202,0,44.268,0,67.046c-5.279,0.089-10.658,0.119-16.431-0.071C1266.131,573.394,1266.131,559.974,1266.131,545.436z"/>
	<path style="fill:#3172B9;" d="M1502.702,520.201c0,22.423,0,44.368,0,66.617c-4.767,0-9.358,0-14.417,0
		c-11.935-13.695-24.128-27.685-36.32-41.675c-0.283,0.124-0.565,0.248-0.848,0.372c0,13.696,0,27.393,0,41.494
		c-5.808,0.136-11.192,0.285-16.766-0.122c0-22.381,0-44.453,0-66.766c5.342,0,10.45,0,15.761,0
		c11.557,13.102,23.204,26.308,35.601,40.362c0-14.041,0-27.004,0-40.282C1491.57,520.201,1496.958,520.201,1502.702,520.201z"/>
	<path style="fill:#3072B9;" d="M843.376,586.914c-6.055,0-11.326,0-16.931,0c0-22.112,0-44.168,0-66.629c5.08,0,10.305,0,15.967,0
		c11.442,12.989,23.15,26.28,35.586,40.397c0-14.176,0-27.222,0-40.53c5.76,0,11.141,0,16.765,0c0,22.222,0,44.286,0,66.66
		c-4.641,0-9.223,0-14.307,0c-11.918-13.651-24.126-27.634-37.081-42.472C843.376,559.089,843.376,572.722,843.376,586.914z"/>
	<path style="fill:#3172B9;" d="M773.565,519.004c9.643-0.401,18.5,2.141,26.123,7.979c15.894,12.171,17.742,34.256,4.121,49.097
		c-14.701,16.018-45.963,16.138-60.243-0.963c-14.942-17.894-8.532-40.545,9.064-50.837
		C759.33,520.362,762.853,519.008,773.565,519.004z M752.885,553.379c-0.113,11.229,7.167,20.485,21.38,20.485
		c12.469,0,21.122-7.316,21.282-20.142c0.157-12.618-8.136-20.606-21.16-20.705C761.507,532.918,752.891,541.144,752.885,553.379z"
		/>
	<path style="fill:#3072B9;" d="M1156.912,588.086c-13.286-0.42-24.764-4.713-32.475-16.172
		c-10.285-15.283-6.187-35.176,8.852-45.781c15.909-11.218,41.742-8.667,53.78,4.326c15.902,17.163,10.459,42.105-8.155,52.174
		C1172.047,586.347,1164.76,588.201,1156.912,588.086z M1157.719,533.093c-0.999,0-2.008-0.09-2.996,0.014
		c-14.254,1.5-20.255,13.587-18.011,24.742c1.779,8.845,8.688,15.229,19.041,15.984c7.456,0.543,14.337-1.403,19.045-7.657
		c5.279-7.012,5.61-14.828,1.864-22.58C1172.901,535.811,1165.801,533.378,1157.719,533.093z"/>
	<path style="fill:#3072B9;" d="M562.334,587.004c0-22.524,0-44.583,0-66.454c1.096-0.924,2.134-0.655,3.093-0.657
		c9.823-0.022,19.651-0.208,29.467,0.041c10.499,0.265,19.981,3.404,27.083,11.635c14.55,16.861,8.578,47.962-15.975,53.648
		c-4.74,1.098-9.391,1.869-14.247,1.818C582.106,586.932,572.455,587.004,562.334,587.004z M579.323,574.482
		c4.804,0.54,9.43,0.738,14.031,0.094c5.707-0.799,11.109-2.442,14.594-7.538c5.478-8.011,5.658-16.417,1.492-25.008
		c-1.494-3.08-3.93-5.321-6.958-6.928c-7.428-3.944-15.308-3.075-23.159-2.752C579.323,546.675,579.323,560.458,579.323,574.482z"/>
	<path style="fill:#3172B9;" d="M950.547,550.982c-0.991-1.905-1.846-3.67-2.806-5.376c-7.174-12.757,0.632-24.585,14.375-26.45
		c6.874-0.933,13.635-0.132,19.009,5.2c5.736,5.692,6.137,13.814,0.906,20.219c-2.42,2.963-5.52,5.205-8.606,7.916
		c2.851,3.266,5.559,6.367,8.544,9.786c3.716-2.606,5.329-6.779,8.145-10.056c4.582,0,9.185,0,14.227,0
		c-2.849,7.791-7.516,13.963-13.02,20.17c4.183,4.701,8.312,9.34,12.854,14.444c-7.169,0-13.726,0-20.52,0
		c-1.385-1.307-2.943-2.776-4.64-4.377c-4.738,1.527-9.055,4.078-14.003,4.959c-6.397,1.138-12.616,0.896-18.53-1.798
		c-10.409-4.742-14.566-17.883-5.481-27.275C943.792,555.458,947.365,553.655,950.547,550.982z M959.047,560.347
		c-2.106,0.824-3.117,1.945-4.14,3.015c-3.055,3.194-3.588,5.817-1.888,8.897c1.908,3.457,5.766,5.223,9.66,4.272
		c2.683-0.655,5.327-1.488,7.633-3.541C967.126,568.139,962.905,564.479,959.047,560.347z M965.659,544.119
		c2.491-1.461,4.182-3.07,5.528-4.966c1.598-2.251,1.191-5.528-0.693-7.269c-2.415-2.232-6.104-2.372-8.687-0.33
		c-2.086,1.65-2.388,3.789-1.009,6.699C961.895,540.567,963.719,542.239,965.659,544.119z"/>
	<path style="fill:#3072B9;" d="M66.291,520.036c5.567,0,10.843,0,16.622,0c0,8.866,0,17.609,0,26.591c11.424,0,22.35,0,33.812,0
		c0-8.723,0-17.454,0-26.457c5.917-0.463,11.303-0.389,16.927-0.07c0,22.352,0,44.427,0,66.761c-5.479,0-10.748,0-16.652,0
		c0-8.789,0-17.667,0-26.749c-11.557,0-22.484,0-33.836,0c0,8.821,0,17.579,0,26.668c-5.799,0-11.187,0-16.873,0
		C66.291,564.735,66.291,542.651,66.291,520.036z"/>
	<path style="fill:#3172B9;" d="M1375.354,519.969c6.903,0,13.218,0,19.98,0c9.88,22.1,19.802,44.291,29.902,66.884
		c-6.216,0-11.97,0-18.023,0c-2.5-3.719-3.432-8.361-5.928-12.68c-9.634,0-19.567,0-30.004,0c-1.576,3.984-3.262,8.244-5.022,12.694
		c-5.773,0-11.522,0-17.999,0C1357.388,564.327,1366.326,542.259,1375.354,519.969z M1385.643,536.214
		c-3.509,9.119-6.877,17.111-9.602,25.581c6.901,0,13.343,0,20.285,0C1392.815,553.388,1389.453,545.337,1385.643,536.214z"/>
	<path style="fill:#3172B9;" d="M498.275,586.823c0-22.416,0-44.349,0-66.612c16.398,0,32.634,0,49.238,0
		c0.727,3.715,0.379,7.584,0.159,11.994c-10.845,0-21.411,0-32.15,0c-0.727,4.765-0.294,9.018-0.382,13.813
		c10.367,0,20.419,0,30.72,0c0,4.452,0,8.365,0,12.812c-10.136,0-20.198,0-30.491,0c0,5.444,0,10.358,0,15.973
		c5.572,0.157,11.007,0.054,16.433,0.073c5.462,0.019,10.925,0.004,16.562,0.004c0.632,4.152,0.315,7.897,0.316,11.944
		C531.768,586.823,515.217,586.823,498.275,586.823z"/>
	<path style="fill:#3172B9;" d="M1106.926,566.713c0,5.25,0,9.867,0,14.438c-14.322,8.998-38.727,9.594-52.858-1.047
		c-15.083-11.359-17.5-34.122-4.731-48.077c6.434-7.032,14.41-11.092,23.771-12.428c10.901-1.556,21.517-0.746,31.557,4.256
		c0.755,0.376,1.494,0.712,1.957,1.452c-0.002,4.461-0.002,8.922-0.002,13.189c-1.25,0.958-2.09,0.35-2.981-0.092
		c-5.08-2.518-10.422-4.25-16.03-5.08c-6.784-1.004-13.266,0.024-19.201,3.521c-6.751,3.978-9.985,9.885-9.562,17.843
		c0.405,7.604,4.375,12.876,10.816,16.135c7.405,3.747,15.247,4.021,23.229,1.506
		C1097.476,570.884,1101.857,568.964,1106.926,566.713z"/>
	<path style="fill:#3172B9;" d="M722.392,523.659c0.8,4.613,0.589,8.838,0.22,13.439c-3.407-1.271-6.46-2.495-9.571-3.55
		c-5.066-1.718-10.227-2.602-15.607-1.638c-4.826,0.865-5.701,1.904-5.372,7.178c3.681,3.668,8.72,5.02,13.47,6.866
		c4.187,1.627,8.351,3.227,12.05,5.864c6.248,4.453,9.192,10.521,8.198,18.064c-0.984,7.464-5.059,12.749-12.343,15.492
		c-12.086,4.551-25.44,3.314-38.079-3.908c-0.549-4.463-0.111-9.099-0.255-14.005c2.371,0.401,3.995,1.803,5.78,2.838
		c6.497,3.769,13.381,5.812,20.972,4.789c1.148-0.155,2.282-0.184,3.345-0.833c3.656-2.229,4.034-6.45,0.621-9.026
		c-3.361-2.538-7.393-3.741-11.282-5.166c-3.905-1.431-7.799-2.87-11.337-5.081c-9.095-5.684-12.032-16.597-6.958-25.632
		c2.32-4.131,5.966-6.673,10.276-8.259c8.569-3.153,17.288-2.7,25.976-0.577C715.703,521.295,718.805,522.503,722.392,523.659z"/>
	<path style="fill:#3172B9;" d="M453.823,524.221c0,4.226,0,8.348,0,12.61c-2.521-0.304-4.526-1.485-6.66-2.273
		c-6.099-2.251-12.253-3.987-18.882-2.69c-1.551,0.304-2.842,0.882-3.942,1.938c-1.879,1.803-2.009,3.705-0.377,5.72
		c1.404,1.734,3.318,2.703,5.364,3.488c4.33,1.66,8.689,3.257,12.944,5.093c3.041,1.312,5.986,2.859,8.488,5.133
		c10.036,9.122,8.242,24.613-3.655,31.111c-7.336,4.007-15.291,4.307-23.269,3.228c-5.899-0.798-11.586-2.651-16.761-5.933
		c0-4.559,0-9.007,0-13.767c3.617,1.036,6.43,3.11,9.488,4.608c5.606,2.745,11.458,3.3,17.489,2.462
		c4.134-0.575,5.61-2.639,5.198-6.432c-0.202-1.859-1.197-2.94-2.769-3.822c-3.345-1.876-6.86-3.33-10.46-4.608
		c-4.536-1.609-9.038-3.26-12.983-6.147c-11.939-8.738-10.186-26.026,3.287-32.032c9.079-4.047,18.394-3.677,27.754-1.26
		C447.412,521.51,450.801,522.346,453.823,524.221z"/>
	<path style="fill:#3172B9;" d="M1.449,520.029c11.919,0,23.547-0.34,35.145,0.115c8.237,0.324,15.836,7.766,17.27,15.665
		c1.645,9.06-2.576,17.675-10.591,21.615c-3.474,1.708-7.098,2.686-11.019,2.602c-4.473-0.095-8.949-0.022-13.891-0.022
		c0,8.983,0,17.716,0,26.779c-5.844,0-11.23,0-16.914,0C1.449,564.708,1.449,542.667,1.449,520.029z M18.331,547.704
		c4.504,0.363,8.762,0.461,12.968-0.699c3.215-0.887,5.475-3.708,5.59-6.871c0.113-3.099-2.02-6.06-5.207-7.081
		c-4.349-1.392-8.767-1.068-13.351-0.727C18.331,537.581,18.331,542.494,18.331,547.704z"/>
	<path style="fill:#3172B9;" d="M1316.062,560.005c0,9.365,0,17.976,0,26.879c-5.702,0.364-11.088,0.385-16.669-0.01
		c0-22.366,0-44.438,0-66.669c0.854-0.13,1.483-0.308,2.112-0.308c10.332-0.004,20.674-0.282,30.991,0.118
		c8.696,0.337,15.092,4.723,18.432,12.976c3.496,8.638-0.622,19.695-8.878,24.04c-3.731,1.963-7.658,3.108-11.944,3
		C1325.64,559.918,1321.17,560.005,1316.062,560.005z M1316.331,547.76c4.646,0.25,8.776,0.389,12.84-0.736
		c3.224-0.892,5.527-3.622,5.684-6.763c0.155-3.093-1.958-6.115-5.092-7.182c-4.345-1.481-8.775-0.979-13.433-0.843
		C1316.331,537.504,1316.331,542.412,1316.331,547.76z"/>
	<path style="fill:#2F72B9;" d="M359.879,560.001c0,9.34,0,17.953,0,26.839c-5.645,0-11.027,0-16.662,0c0-22.194,0-44.251,0-66.276
		c0.301-0.219,0.555-0.567,0.81-0.567c10.815-0.034,21.642-0.341,32.443,0.049c9.441,0.341,17.135,7.433,18.914,16.211
		c2.054,10.133-5.58,20.624-14.152,22.73c-2.743,0.674-5.506,1.124-8.368,1.044C368.742,559.915,364.615,560.001,359.879,560.001z
		 M359.94,532.163c0.204,5.596-0.265,10.528,0.354,15.655c4.434,0.078,8.543,0.42,12.599-0.789c3.698-1.102,5.303-3.316,5.229-7.375
		c-0.068-3.753-1.653-5.629-5.354-6.711C368.704,531.756,364.62,532.145,359.94,532.163z"/>
	<path style="fill:#3072B9;" d="M1581.309,520.091c-2.785,5.19-6.505,9.212-9.676,13.604c-4.669,6.466-9.429,12.871-14.29,19.194
		c-1.617,2.104-2.316,4.236-2.267,6.887c0.135,7.325,0.067,14.655,0.031,21.982c-0.008,1.623,0.295,3.292-0.402,5.111
		c-5.292,0-10.562,0-15.908,0c-1.182-0.991-0.65-2.424-0.662-3.683c-0.074-7.66-0.224-15.324-0.03-22.979
		c0.081-3.211-0.925-5.748-2.773-8.211c-6.98-9.306-13.9-18.658-20.841-27.995c-0.873-1.174-2.042-2.186-2.143-3.965
		c6.512,0,12.985,0,19.839,0c4.633,6.569,9.391,13.315,14.484,20.534c5.05-7.102,9.839-13.836,14.564-20.479
		C1567.958,520.091,1574.404,520.091,1581.309,520.091z"/>
	<path style="fill:#2D71B9;" d="M297.714,574.817c0,4.288,0,8.033,0,12.04c-17.135,0-34.065,0-51.342,0c0-22.139,0-44.344,0-66.762
		c5.419,0,10.694,0,16.473,0c0,18.05,0,36.117,0,54.723C274.719,574.817,286.108,574.817,297.714,574.817z"/>
	<path style="fill:#2F72B9;" d="M235.588,574.805c0,4.302,0,8.041,0,12.049c-17.123,0-34.04,0-51.31,0c0-22.141,0-44.329,0-66.745
		c5.399,0,10.674,0,16.446,0c0,18.011,0,36.074,0,54.697C212.585,574.805,223.971,574.805,235.588,574.805z"/>
	<path style="fill:#3373B9;" d="M643.586,587.065c0-22.556,0-44.599,0-66.916c5.648,0,11.072,0,16.512,0
		c0.931,3.37,1.2,59.612,0.263,66.739C655.001,587.37,649.578,587.063,643.586,587.065z"/>
	<path style="fill:#3373B9;" d="M150.458,520.088c5.808,0,11.241,0,16.943,0c0,22.252,0,44.292,0,66.719
		c-5.591,0.638-11.133,0.185-16.943,0.331C150.458,564.657,150.458,542.621,150.458,520.088z"/>
	<path style="fill:#3072B9;" d="M309.205,520.047c5.58,0,10.852,0,16.425,0c0,22.229,0,44.3,0,66.723c-5.352,0-10.736,0-16.425,0
		C309.205,564.713,309.205,542.644,309.205,520.047z"/>
	<path style="fill:#7997CE;" d="M456.39,234.04c0.512-0.028,1.024-0.055,1.536-0.083c0.136,0.881-0.275,1.599-0.681,2.322
		c-0.476,0.845-0.944,1.693-1.669,2.995C454.47,236.903,455.876,235.546,456.39,234.04z"/>
	<path style="fill:#7997CE;" d="M454.509,241.442c-0.374-0.355-0.384-0.712-0.007-1.072
		C454.872,240.725,454.894,241.082,454.509,241.442z"/>
</g>
</svg>
