<?xml version="1.0" encoding="iso-8859-1"?>
<!-- Generator: Adobe Illustrator 27.0.0, SVG Export Plug-In . SVG Version: 6.00 Build 0)  -->
<svg version="1.1" id="Layer_1" xmlns="http://www.w3.org/2000/svg" xmlns:xlink="http://www.w3.org/1999/xlink" x="0px" y="0px"
	 viewBox="0 0 1607 500.066" style="enable-background:new 0 0 1607 500.066;" xml:space="preserve">
<g>
	<path style="fill:#040303;" d="M0,0.066c73.491,0,146.984-0.197,220.474,0.09c32.29,0.126,63.754,5.728,93.834,17.793
		c21.239,8.519,40.038,20.88,55.712,37.674c14.305,15.326,24,33.305,29.904,53.375c4.427,15.049,6.784,30.38,7.454,46.086
		c1.04,24.38-2.306,48.029-10.589,70.927c-10.452,28.895-28.667,51.772-54.028,69.135c-19.164,13.12-40.222,21.566-62.721,26.814
		c-16.136,3.764-32.316,7.282-49.267,10.12c-7.834-24.436-15.643-48.797-23.56-73.493c7.215-1.181,14.225-2.173,21.17-3.505
		c8.632-1.656,17.375-3.031,25.78-5.511c26.706-7.88,45.083-24.827,53.467-51.66c6.478-20.732,7.233-41.76,1.743-62.917
		c-7.373-28.414-25.905-46.051-53.317-54.791c-13.511-4.308-27.486-6.313-41.737-6.232c-17.831,0.101-35.662,0.024-53.494,0.024
		c-1.662,0-3.323,0-5.533,0c0,116.883,0,233.588,0,350.719c18.942,0.991,37.999,1.987,57.248,2.994c0,21.944,0,43.385,0,64.816
		c-3.432,1.02-187.127,1.451-195.936,0.437c0-21.547,0-43.129,0-65.271c15.661-0.962,31.238-1.92,47.491-2.919
		c0.903-116.693,0.875-233.407,0.984-350.561c-13.692,0-27.274,0-41.185,0c-2.027-6.239-3.958-12.184-5.89-18.129
		C12.376,38.757,6.746,21.435,1.126,4.109C0.88,3.348,0.96,2.426,0,2.066C0,1.399,0,0.733,0,0.066z"/>
	<path style="fill:#050504;" d="M1607,494.066c-1.112-0.577-2.297-0.225-3.44-0.226c-41.166-0.02-82.332-0.017-123.498-0.017
		c-1.627,0-3.253,0-5.108,0c0-18.412,0-36.335,0-54.416c9.217-1.196,18.525-1.143,27.535-1.856c1.157-2.168,0.676-4.036,0.678-5.823
		c0.036-31-0.042-61.999,0.074-92.999c0.03-8.009,0.177-15.972-2.24-23.725c-2.248-7.21-5.018-14.082-11.359-18.852
		c-4.757-3.579-9.95-5.702-15.967-6.211c-17.282-1.461-30.955,5.785-42.855,17.383c-6.096,5.941-11.392,12.575-16.142,19.644
		c-1.039,1.546-1.694,3.085-1.691,5.053c0.057,34.499,0.043,68.999,0.057,103.498c0,0.485,0.163,0.969,0.305,1.763
		c9.311,1.306,18.822,0.67,28.36,2.217c0,17.881,0,35.8,0,54.021c-43.867,0-87.601,0-131.626,0c0-18.014,0-35.934,0-54.206
		c8.966-1.887,18.371-0.69,27.831-2.415c0-46.683,0-93.428,0-140.529c-8.888-1.349-18.162-1.294-27.756-1.638
		c0-18.085,0-35.997,0-54.493c31.968-1.075,64.154-1.881,96.659-2.395c0,12.342,0,24.462,0,37.032
		c2.173-0.774,3.053-2.377,4.191-3.573c11.111-11.687,23.528-21.574,38.423-28.068c18.246-7.955,37.322-10.365,57.047-8.571
		c9.318,0.847,18.318,2.882,26.996,6.418c15.311,6.239,26.595,17.021,34.074,31.484c4.495,8.692,6.51,18.413,8.357,28.037
		c2.112,11.001,2.311,22.111,2.236,33.295c-0.227,33.998-0.112,67.998-0.118,101.997c0,0.318,0.158,0.636,0.399,1.55
		c9.044,0.57,18.286,1.153,27.528,1.736c0.039,16.105,0.052,32.21,0.163,48.315c0.01,1.518-0.913,3.348,0.884,4.568
		C1607,492.733,1607,493.399,1607,494.066z"/>
	<path style="fill:#050404;" d="M507,500.066c-0.761-1.72-2.306-0.891-3.49-0.982c-19.812-1.525-39.156-5.114-57.465-13.148
		c-34.16-14.989-55.399-40.742-64.049-76.992c-4.167-17.462-5.4-35.231-4.695-53.047c1.326-33.493,12.71-63.274,34.948-88.565
		c13.213-15.027,30.11-24.43,49.071-30.086c12.919-3.853,26.169-6.141,39.746-6.214c9.314-0.05,18.582-0.952,27.949-0.101
		c19.317,1.756,37.241,7.375,54.141,16.916c27.524,15.539,41.911,40.244,49.784,69.708c2.593,9.705,3.12,19.701,3.787,29.629
		c0.905,13.461,1.493,26.955,1.219,40.462c-0.016,0.807,0.21,1.681-0.882,2.668c-59.552,0-119.494,0-179.851,0
		c0.563,9.146,2.414,17.597,6.336,25.515c6.936,14.002,18.422,22.279,33.31,26.298c13.226,3.571,26.565,3.608,40.096,2.24
		c18.387-1.859,35.743-7.038,52.271-15.119c5.326-2.604,10.422-5.678,16.037-8.765c8.491,17.704,16.927,35.293,25.656,53.492
		c-28.764,14.465-58.698,23.721-90.854,25.164c-8.389-0.044-16.779-0.089-25.168-0.132c-0.829-0.004-1.659-0.001-1.898,1.058
		C511,500.066,509,500.066,507,500.066z M561.321,340.197c0.67-11.501-4.272-28.143-10.566-37.069
		c-5.833-8.272-13.574-13.922-23.206-17.155c-6.802-2.283-13.76-2.057-20.726-1.957c-13.066,0.188-24.252,4.973-33.353,14.34
		c-8.866,9.125-13.356,20.428-15.488,32.751c-0.516,2.981-1.955,6.03-0.518,9.089C492.108,340.197,526.556,340.197,561.321,340.197z
		"/>
	<path style="fill:#040404;" d="M1156,500.066c-1.03-1.622-2.68-0.912-4.054-0.985c-18.084-0.958-35.513-4.743-52.033-12.245
		c-22.568-10.249-38.672-27.146-49.945-48.968c-8.391-16.242-14.317-33.397-15.542-51.59c-1.677-24.91-2.196-49.918,6.66-73.975
		c7.692-20.893,18.733-39.633,35.643-54.441c10.647-9.323,23.181-15.38,36.572-19.676c17.752-5.695,36.031-7.527,54.604-7.427
		c14.871,0.08,29.56,1.461,43.938,5.305c22.8,6.095,42.306,17.633,56.949,36.353c13.28,16.978,21.9,36.268,26.175,57.43
		c4.163,20.608,4.327,41.46,1.669,62.137c-3.704,28.815-16.076,53.927-36.083,75.044c-11.437,12.071-25.701,19.808-41.386,24.951
		c-13.641,4.473-27.642,7.044-42.038,7.205c-4.73-0.045-9.461-0.089-14.191-0.138c-0.834-0.009-1.636,0.025-1.937,1.02
		C1159.333,500.066,1157.667,500.066,1156,500.066z M1112,365.37c0.085,5.15-0.149,10.289,0.526,15.451
		c0.668,5.107,1.31,10.208,2.497,15.215c1.993,8.411,4.568,16.685,8.806,24.224c9.319,16.579,23.734,24.031,42.725,24.174
		c20.168,0.152,37.841-12.822,44.642-30.737c6.356-16.745,8.733-33.962,8.567-51.733c-0.167-17.849-3.622-34.879-11.412-51.007
		c-3.641-7.538-8.937-13.502-15.893-18.094c-8.682-5.732-18.269-7.035-28.495-6.984c-20.688,0.102-37.215,14.006-43.162,29.828
		C1114.76,331.776,1111.502,348.206,1112,365.37z"/>
	<path style="fill:#5D5A5A;" d="M1607,492.066c-1.797-1.22-0.874-3.05-0.884-4.568c-0.111-16.105-0.123-32.21-0.163-48.315
		c0.349-0.039,0.698-0.078,1.047-0.117C1607,456.733,1607,474.399,1607,492.066z"/>
	<path style="fill:#838080;" d="M513,500.066c0.239-1.059,1.068-1.062,1.898-1.058c8.389,0.043,16.779,0.088,25.168,0.132
		c-0.022,0.309-0.044,0.618-0.066,0.926C531,500.066,522,500.066,513,500.066z"/>
	<path style="fill:#726F6F;" d="M1161,500.066c0.301-0.995,1.103-1.028,1.937-1.02c4.73,0.048,9.461,0.092,14.191,0.138
		c-0.112,0.284-0.154,0.578-0.128,0.882C1171.667,500.066,1166.333,500.066,1161,500.066z"/>
	<path style="fill:#040303;" d="M773.575,436.413c11.276,0.971,22.258,0.721,33.436,2.046c0,18.069,0,36.134,0,54.546
		c-45.779,0-91.642,0-137.747,0c0-18.093,0-36.182,0-54.47c9.428-1.59,19.075-0.96,28.641-2.237c0-47.721,0-95.009,0-142.89
		c-9.397-0.572-18.76-1.445-28.528-1.467c0-18.34,0-36.56,0-55.313c33.349-0.808,66.717-1.617,100.489-2.436
		c0,16.577,0,32.839,0,49.101c3.393-6.974,6.726-13.758,10.967-20.082c8.183-12.201,18.585-21.601,32.678-26.532
		c9.594-3.357,19.417-4.278,29.458-3.073c5.726,0.687,11.417,1.601,17.011,3.77c-1.229,21.644-2.443,43.026-3.669,64.626
		c-4.439,0.176-8.255-1.158-12.176-1.511c-9.461-0.852-18.918-1.423-28.25,1.123c-14.853,4.052-25.129,13.742-32.696,26.686
		c-4.551,7.786-7.856,16.077-9.392,25.01c-0.224,1.303-0.417,2.632-0.418,3.95c-0.024,25.49-0.019,50.98-0.012,76.47
		C773.367,434.384,773.464,435.037,773.575,436.413z"/>
	<path style="fill:#050505;" d="M1022.826,438.418c0,18.639,0,36.759,0,55.142c-44.555,0-88.937,0-133.536,0
		c0-18.488,0-36.724,0-55.095c9.565-1.286,19.042-1.13,28.603-1.99c0-47.68,0-94.948,0-142.854
		c-9.456-0.62-18.843-1.235-28.527-1.869c0-18.117,0-36.186,0-54.868c34.607-0.803,69.279-1.607,104.433-2.423
		c0,67.352,0,134.572,0,202.205C1003.63,437.26,1013.022,437.826,1022.826,438.418z"/>
	<path style="fill:#D474AF;" d="M945.139,113.912c23.348-1.418,43.593,18.073,43.44,42.725
		c-0.169,27.199-18.923,45.674-44.373,45.898c-24.812,0.219-44.364-17.82-44.719-44.44
		C899.143,132.326,920.702,112.495,945.139,113.912z"/>
</g>
</svg>
