<?xml version="1.0" encoding="iso-8859-1"?>
<!-- Generator: Adobe Illustrator 27.0.0, SVG Export Plug-In . SVG Version: 6.00 Build 0)  -->
<svg version="1.1" id="Layer_1" xmlns="http://www.w3.org/2000/svg" xmlns:xlink="http://www.w3.org/1999/xlink" x="0px" y="0px"
	 viewBox="0 0 1720 1720" style="enable-background:new 0 0 1720 1720;" xml:space="preserve">
<g>
	<path style="fill:#2160AD;" d="M859,0c1.333,0,2.667,0,4,0c0.375,0.919,1.142,1.037,2.007,1.016
		c3.451-0.084,6.903-0.153,10.354-0.227c8.207,0.023,16.414,0.046,24.62,0.069c5.206,0.723,10.412,1.137,15.692,1.119
		c8.133-0.028,16.2,1.249,24.3,1.841c10.596,0.774,21.131,2.075,31.64,3.453c18.22,2.389,36.396,5.167,54.422,8.792
		c14.1,2.835,28.251,5.463,42.09,9.467c-0.07,1.152-0.194,2.258,0.31,3.414c1.575,3.612,2.949,7.312,4.532,10.92
		c5.215,11.884,9.776,24.025,14.093,36.252c4.582,12.982,9.094,25.994,12.904,39.231c2.398,8.329,4.776,16.665,7.028,25.034
		c3.142,11.678,6.072,23.408,8.364,35.293c1.577,8.179,3.501,16.284,4.732,24.54c0.65,4.363,1.398,8.738,2.207,13.063
		c1.444,7.722,2.636,15.493,3.548,23.26c0.842,7.165,1.885,14.323,2.342,21.566c0.485,7.695,1.862,15.347,1.817,23.107
		c-0.003,0.499-0.065,1.024,0.062,1.493c2.101,7.75-0.18,15.856,1.934,23.601c-0.437,23.087,0.699,46.181-0.821,69.277
		c-0.487,7.4-1.745,14.809-1.191,22.28c0.024,0.329,0.035,0.687-0.064,0.993c-1.707,5.243-0.93,10.762-1.766,16.13
		c-0.652,4.182-0.743,8.6-1.43,12.734c-1.34,8.065-2.346,16.194-3.514,24.266c-1.313,9.076-2.886,18.121-4.474,27.128
		c-2.322,13.172-5.543,26.202-8.801,39.187c-5.896,23.497-12.374,46.817-20.751,69.602c-5.098,13.865-10.194,27.708-15.714,41.418
		c-6.283,15.602-13.603,30.71-20.645,45.948c-4.085,8.838-8.895,17.345-13.49,25.942c-2.172,4.064-4.878,7.858-6.85,12.008
		c-2.399,5.05-6.29,9.343-7.551,14.954c-0.735-0.368-1.501-0.686-2.2-1.112c-20.08-12.24-41.896-15.379-64.767-11.747
		c-12.665,2.012-24.721,6.284-36.153,12.2c-9.048,4.682-17.56,10.141-24.916,17.244c-12.535,12.103-21.402,26.641-27.884,42.688
		c-9.513,23.55-13.37,48.205-13.924,73.458c-0.13,5.937-0.114,11.885,0.446,17.865c-1.902,0.788-3.546,1.593-5.266,2.164
		c-15.575,5.169-31.056,10.57-46.123,17.125c-20.121,8.753-38.707,19.814-54.848,34.857c-23.558,21.954-35.41,48.917-35.383,81.112
		c0.002,2.996-0.042,5.992-0.064,8.988c-1.179-0.066-2.221,0.207-3.331,0.727c-8.957,4.196-18.034,8.143-26.932,12.458
		c-10.229,4.961-20.748,9.28-31.267,13.5c-17.337,6.954-34.859,13.492-52.725,19.036c-10.788,3.347-21.6,6.601-32.56,9.347
		c-11.727,2.939-23.416,6.037-35.182,8.806c-8.269,1.946-16.64,3.457-24.966,5.163c-4.856-8.056-4.04-16.554-1.454-24.94
		c8.565-27.768,17.303-55.483,26.056-83.193c6.767-21.422,13.658-42.805,20.486-64.208c0.446-1.397,0.687-2.888,2.023-3.885
		c2.83,0.139,5.667,0.153,8.477,0.44c11.596,1.184,23.242,1.971,34.864,1.372c10.295-0.53,20.613-0.42,30.901-1.464
		c7.436-0.755,14.903-1.349,22.272-2.523c15.356-2.445,30.627-5.266,45.642-9.527c14.545-4.128,28.713-9.121,42.383-15.535
		c9.103-4.271,17.808-9.247,26.387-14.519c19.189-11.793,35.795-26.461,49.937-43.91c15.306-18.884,26.549-40.011,34.56-62.962
		c8.061-23.095,13.305-46.578,11.577-71.229c-0.115-1.641-0.322-3.279-0.531-4.911c-0.778-6.059-2.43-11.927-3.534-17.909
		c1.543-2.119,1.312-4.313,0.076-6.327c22.245-32.652,40.621-67.089,55.672-103.266c15.012-36.082,26.548-73.285,34.223-111.628
		c7.669-38.313,11.949-77.038,11.991-116.105c0.042-39.071-4.199-77.78-11.859-116.12c-7.665-38.365-19.176-75.529-34.022-111.7
		c-14.876-36.243-33.355-70.556-55.026-103.149C858.123,3.143,859.43,1.742,859,0z"/>
	<path style="fill:#293271;" d="M1719.07,897.796c0.127,6.177-0.281,12.357-1.141,18.436c-0.58,4.104-0.096,8.339-0.958,12.192
		c-1.23,5.498,0.505,11.241-1.933,16.497c1.315,4.317-1.071,8.352-0.947,12.664c0.129,4.491-1.051,9.019-1.652,13.532
		c-0.361,2.711-0.931,5.461-1.208,8.101c-4.022,38.303-12.618,75.671-22.791,112.702c-10.968,39.928-25.036,78.777-41.81,116.637
		c-25.693,57.99-57.507,112.416-95.228,163.402c-32.197,43.519-68.23,83.594-108.03,120.272
		c-55.114,50.79-115.635,93.943-182.052,128.778c-33.723,17.688-68.332,33.401-104.088,46.473
		c-37.94,13.87-76.637,25.219-116.216,33.479c-22.793,4.757-45.734,8.627-68.796,11.757c-10.383,1.409-20.871,2.047-31.258,3.436
		c-10.351,1.384-20.802,1.413-31.151,2.763c-3.279,0.428-6.657,0.101-9.989,0.12c-8.541,0.027-17.082,0.055-25.623,0.082
		c-2.427-0.04-4.859-0.181-7.28-0.081c-1.329,0.055-2.975-0.786-3.921,0.96c-2.667,0-5.333,0-8,0
		c-0.484-1.195-1.535-1.004-2.492-0.999c-5.235,0.031-10.47,0.073-15.704,0.112c-3.918-0.066-7.836-0.132-11.753-0.199
		c-0.7-1.134-2.143-1.095-3.037-1.922c-0.138-3.52,3.049-3.237,4.926-3.82c19.445-6.047,38.511-13.204,57.474-20.531
		c26.215-10.13,52.3-20.652,77.874-32.351c16.056-7.345,32.07-14.788,47.985-22.432c8.637-4.148,17.05-8.77,25.526-13.249
		c10.367-5.479,20.797-10.851,31.014-16.6c15.078-8.485,30.123-17.031,44.989-25.894c14.994-8.938,29.762-18.223,44.41-27.709
		c13.264-8.59,26.426-17.332,39.323-26.463c10.742-7.606,21.439-15.277,32.053-23.059c9.422-6.908,18.871-13.796,27.998-21.083
		c9.144-7.3,18.304-14.591,27.377-21.984c8.943-7.287,17.768-14.722,26.656-22.072c7.888-6.523,15.53-13.367,23.167-20.186
		c7.904-7.057,15.867-14.093,23.434-21.491c8.916-8.717,18.271-16.965,27.045-25.823c12.056-12.171,24.18-24.266,35.933-36.742
		c7.057-7.492,13.927-15.172,21.109-22.56c3.44-3.538,7.006-7.083,10.068-10.973c5.421-6.886,11.572-13.123,17.115-19.897
		c4.499-5.497,9.434-10.637,13.949-16.121c6.699-8.137,13.2-16.438,19.783-24.671c6.792-8.494,13.86-16.783,20.314-25.526
		c14.267-19.326,28.548-38.656,42.222-58.401c15.368-22.192,30.006-44.895,44.011-67.975c10.083-16.617,19.733-33.507,29.194-50.488
		c8.599-15.434,16.827-31.081,24.94-46.779c5.005-9.684,9.462-19.649,14.218-29.463c2.23-4.603,4.49-9.183,6.607-13.847
		c5.854-12.903,11.874-25.73,17.279-38.832c4.325-10.484,8.599-20.988,13.023-31.43c1.488-3.511,2.165-7.467,4.911-10.494
		c1.712,1.338,0.69,3.065,1.322,4.358C1719.2,880.867,1719.135,889.332,1719.07,897.796z"/>
	<path style="fill:#28377B;" d="M1719.265,872.402c-0.632-1.293,0.39-3.02-1.323-4.358c-2.747,3.027-3.424,6.983-4.911,10.494
		c-4.424,10.442-8.699,20.946-13.023,31.43c-5.405,13.103-11.425,25.929-17.279,38.832c-2.116,4.664-4.376,9.244-6.607,13.847
		c-4.755,9.814-9.213,19.78-14.218,29.463c-8.113,15.697-16.341,31.344-24.94,46.779c-9.461,16.981-19.111,33.871-29.194,50.488
		c-14.005,23.08-28.642,45.783-44.011,67.975c-13.674,19.745-27.955,39.075-42.222,58.401c-6.454,8.743-13.523,17.032-20.314,25.526
		c-6.583,8.233-13.084,16.534-19.783,24.671c-4.515,5.484-9.45,10.624-13.949,16.121c-5.543,6.773-11.694,13.011-17.115,19.897
		c-3.063,3.89-6.629,7.435-10.068,10.973c-7.182,7.387-14.052,15.068-21.109,22.56c-11.753,12.477-23.878,24.572-35.933,36.742
		c-8.775,8.858-18.129,17.106-27.045,25.823c-7.567,7.398-15.53,14.434-23.434,21.491c-7.637,6.819-15.278,13.663-23.167,20.186
		c-8.888,7.35-17.713,14.785-26.656,22.072c-9.073,7.393-18.233,14.683-27.377,21.984c-9.126,7.286-18.576,14.175-27.998,21.083
		c-10.614,7.782-21.312,15.454-32.053,23.059c-12.897,9.131-26.06,17.873-39.323,26.463c-14.647,9.487-29.416,18.771-44.41,27.709
		c-14.866,8.862-29.911,17.408-44.989,25.894c-10.217,5.749-20.647,11.121-31.014,16.6c-8.476,4.48-16.888,9.101-25.526,13.249
		c-15.915,7.644-31.929,15.087-47.985,22.432c-25.574,11.699-51.659,22.222-77.874,32.351
		c-18.963,7.327-38.028,14.484-57.474,20.531c-1.876,0.583-5.063,0.3-4.926,3.82c-0.493-0.047-1.026,0.011-1.474-0.157
		c-17.247-6.493-34.275-13.525-51.093-21.057c-7.822-3.503-15.585-7.143-23.31-10.856c-11.581-5.567-23.195-11.079-34.172-17.809
		c-0.075-2.929,2.319-3.425,4.285-4.042c4.681-1.47,9.4-2.853,14.165-4.019c19.1-4.675,37.789-10.756,56.533-16.619
		c11.267-3.524,22.432-7.407,33.576-11.339c14.085-4.969,28.149-10.013,42.029-15.488c20.335-8.022,40.496-16.511,60.528-25.265
		c15.719-6.87,31.198-14.305,46.657-21.751c9.976-4.805,19.796-9.936,29.57-15.162c9.609-5.138,19.271-10.17,28.826-15.419
		c15.751-8.652,31.279-17.668,46.717-26.87c15.988-9.529,31.594-19.636,47.262-29.661c10.679-6.833,20.979-14.212,31.361-21.474
		c7.954-5.563,16.032-10.968,23.747-16.846c15.323-11.675,30.706-23.267,45.715-35.364c12.707-10.241,25.212-20.72,37.782-31.12
		c8.657-7.162,17.134-14.576,25.285-22.307c9.386-8.903,19.216-17.348,28.375-26.451c15.929-15.831,32.275-31.251,47.355-47.948
		c6.33-7.009,12.83-13.918,19.492-20.64c4.091-4.128,7.708-8.676,11.619-12.955c2.781-3.044,5.701-6,8.365-9.158
		c6.485-7.688,12.665-15.64,19.334-23.162c6.904-7.787,13.284-15.997,19.774-24.1c7.71-9.626,15.259-19.397,22.653-29.286
		c10.742-14.367,21.3-28.855,31.527-43.59c7.884-11.36,15.801-22.694,23.182-34.394c5.358-8.493,11.02-16.8,16.181-25.409
		c10.162-16.952,20.307-33.924,30.011-51.139c8.349-14.812,16.26-29.881,24.016-45.015c5.424-10.584,10.739-21.23,15.701-32.059
		c4.672-10.196,9.564-20.296,14.216-30.508c6.551-14.379,12.627-28.956,18.729-43.528c9.138-21.82,17.434-43.965,25.306-66.251
		c6.33-17.922,12.158-36.03,17.521-54.291c5.488-18.686,10.932-37.372,15.772-56.238c0.548-2.135,0.944-5.094,4.236-5.392
		c3.678,14.128,6.199,28.495,8.555,42.881c2.065,12.611,3.863,25.271,5.516,37.944c1.31,10.041,2.439,20.117,3.258,30.209
		c1.035,12.753,2.106,25.513,2.372,38.317c0.063,8.022,0.13,16.045,0.182,24.067c0.005,0.703,0.245,1.262,0.749,1.727c0,8,0,16,0,24
		C1719.782,872.184,1719.537,872.318,1719.265,872.402z"/>
	<path style="fill:#57C2EC;" d="M2.039,917.003c-1.627-4.582-0.796-9.351-1.112-14.034C0.748,900.308,1.75,897.482,0,895
		c0-25.333,0-50.667,0-76c0.643-0.36,0.909-0.926,0.867-1.642c-0.493-8.482,0.758-16.894,1.276-25.321
		c0.33-5.376,0.519-10.822,1.602-16.188c0.777-3.851,0.613-7.863,1.095-11.814c1.755-14.396,3.738-28.745,5.934-43.083
		c2.543-16.601,5.838-33.046,9.405-49.425c3.038-13.953,6.531-27.825,10.392-41.594c5.24-18.692,11.104-37.187,17.512-55.502
		c6.308-18.031,13.135-35.871,20.906-53.336c2.076-4.665,4.089-9.359,6.132-14.039c9.573,3.879,18.831,8.507,28.616,11.892
		c12.38,4.282,24.702,8.749,37.392,12.046c15.026,3.905,30.195,6.994,45.588,9.268c10.219,1.509,20.487,2.853,30.717,3.467
		c9.381,0.563,18.797,1.348,28.246,1.386c12.773,0.051,25.472-1.78,38.248-1.151c-1.654,4.64-3.351,9.264-4.953,13.922
		c-4.274,12.424-8.521,24.855-12.147,37.491c-3.876,13.51-7.989,26.929-11.147,40.665c-3.45,15.007-7.296,29.928-10.221,45.054
		c-1.4,7.242-3.375,14.404-3.555,21.849c-1.205,3.262-1.484,6.702-2.111,10.088c-1.614,8.721-2.783,17.49-3.894,26.281
		c-0.433,3.422-0.83,6.85-1.237,10.276c-0.891,7.502-1.995,14.988-2.59,22.513c-0.429,5.424-0.951,10.849-1.307,16.283
		c-0.647,9.871-2.058,19.692-1.719,29.624c-0.411,9.091-1.053,18.162-1.13,27.281c-0.114,13.438,0.804,26.832,1.042,40.25
		c0.129,7.269,0.326,14.542,0.67,21.812c0.469,9.908,1.671,19.798,1.423,29.761c-0.09,3.642,0.516,7.393,1.836,10.912
		c0.004,1.647,0.008,3.295,0.013,4.942c-1.025,0.057-1.924,0.261-1.877,1.588c0.048,1.344,1.004,1.421,2.003,1.441
		c0.051,0.66,0.102,1.319,0.153,1.979c-2.367-0.414-2.821,1.91-4.267,3.087c-6.444-1.846-13.092-0.823-19.682-1.064
		c-1.828-0.067-3.702,0.236-5.482-0.062c-8.635-1.445-17.403-1.024-26.062-1.989c-4.09-0.456-8.265-0.488-12.258-1.157
		c-7.277-1.219-14.623-1.756-21.917-2.641c-8.128-0.986-16.209-2.296-24.326-3.333c-9.213-1.177-18.345-3.054-27.464-4.875
		c-10.393-2.075-20.759-4.306-31.089-6.677c-18.61-4.271-37.073-9.113-55.304-14.797C6.704,918.392,6.413,917.74,2.039,917.003z"/>
	<path style="fill:#1F72B9;" d="M859,0c0.43,1.742-0.877,3.143-1.008,4.851c21.671,32.593,40.15,66.906,55.026,103.149
		c14.847,36.171,26.357,73.335,34.022,111.7c7.66,38.34,11.9,77.049,11.859,116.12c-0.042,39.067-4.321,77.792-11.991,116.105
		c-7.675,38.343-19.212,75.546-34.223,111.628c-15.051,36.177-33.427,70.614-55.672,103.266c1.236,2.014,1.467,4.208-0.076,6.327
		c-1.048-0.562-0.91-1.7-1.241-2.601c-4.663-12.662-11.679-23.835-21.248-33.358c-13.475-13.411-29.778-22.121-47.602-28.152
		c-6.555-2.218-13.287-3.909-19.939-5.84c2.285-3.809,4.422-7.717,6.882-11.41c7.778-11.678,14.579-23.939,20.959-36.391
		c8.63-16.844,16.179-34.189,22.652-52.017c5.15-14.184,9.848-28.478,13.656-43.074c3.177-12.178,6.126-24.386,8.322-36.804
		c1.796-10.157,3.309-20.332,4.725-30.541c0.547-3.944,0.349-7.955,1.085-11.785c1.251-6.514,1.57-13.154,1.608-19.623
		c0.126-21.25,1.029-42.522-0.671-63.774c-0.407-5.083-1.116-10.157-1.393-15.271c-0.165-3.045-0.2-6.275-0.857-9.295
		c-1.565-7.194-2.486-14.498-3.699-21.739c-1.623-9.685-3.674-19.258-5.882-28.804c-4.098-17.718-9.211-35.145-15.534-52.208
		c-5.084-13.72-10.324-27.387-16.827-40.502c-4.99-10.063-9.753-20.242-15.381-29.994c-4.856-8.415-9.757-16.792-14.988-24.981
		c-6.827-10.686-14.103-21.036-21.923-31.025c-1.952-2.493-4.386-5.142-3.625-8.898c1.016-0.546,2.016-1.124,3.05-1.633
		c22.326-11.002,45.406-20.247,68.489-29.498c4.989-1.999,9.931-3.503,15.344-3.028C833.732,0.973,834.56,0.909,835,0
		C843,0,851,0,859,0z"/>
	<path style="fill:#57C2EC;" d="M835,0c-0.44,0.909-1.268,0.973-2.103,0.9c-5.413-0.475-10.355,1.029-15.344,3.028
		c-23.083,9.251-46.163,18.496-68.489,29.498c-1.034,0.509-2.034,1.087-3.05,1.633c-9.74,4.874-19.579,9.562-29.197,14.667
		c-12.373,6.567-24.568,13.468-36.84,20.225c-0.019-2.778-0.395-5.494-0.777-8.256c-1.65-11.926-4.461-23.585-7.049-35.311
		c-0.61-2.765-2.042-4.061-4.085-5.298c5.579-0.437,10.866-2.32,16.337-3.334c8.536-1.582,17.028-3.391,25.605-4.776
		c9.387-1.516,18.699-3.625,28.134-4.675c6.381-0.71,12.749-1.618,19.104-2.442c7.999-1.038,16.048-1.531,24.043-2.605
		c4.223-0.568,8.538-1.129,12.819-1.17C802.732,2,811.281,0.33,819.931,0.945C820.768,1.004,821.602,0.953,822,0
		C826.333,0,830.667,0,835,0z"/>
	<path style="fill:#1C8ECE;" d="M1720,848c-0.504-0.465-0.744-1.024-0.749-1.727c-0.052-8.022-0.119-16.045-0.182-24.067
		c0.349,0.104,0.659,0.035,0.931-0.206C1720,830.667,1720,839.333,1720,848z"/>
	<path style="fill:#1C8ECE;" d="M1719.264,872.402c0.273-0.084,0.518-0.218,0.736-0.402c0,8.667,0,17.333,0,26l-0.438-0.225
		l-0.492,0.021C1719.135,889.332,1719.2,880.867,1719.264,872.402z"/>
	<path style="fill:#1F72B9;" d="M874.2,1719.12c8.541-0.027,17.082-0.055,25.623-0.082c0.059,0.32,0.118,0.641,0.177,0.961
		c-8.667,0-17.333,0-26,0C874.062,1719.706,874.128,1719.412,874.2,1719.12z"/>
	<path style="fill:#8ED4F1;" d="M900,0c-0.035,0.285-0.042,0.571-0.019,0.858c-8.207-0.023-16.414-0.046-24.62-0.069
		C875.285,0.506,875.165,0.243,875,0C883.333,0,891.667,0,900,0z"/>
	<path style="fill:#1C8ECE;" d="M825.051,1718.915c3.918,0.066,7.836,0.132,11.753,0.199c0.094,0.289,0.159,0.585,0.196,0.887
		c-6,0-12,0-18,0c0.012-0.32,0.024-0.64,0.036-0.96C821.041,1718.998,823.046,1718.957,825.051,1718.915z"/>
	<path style="fill:#28377B;" d="M837,1720c-0.037-0.302-0.102-0.598-0.196-0.887c5.235-0.039,10.47-0.081,15.704-0.112
		c0.957-0.006,2.008-0.197,2.492,0.999C849,1720,843,1720,837,1720z"/>
	<path style="fill:#1F72B9;" d="M875,0c0.165,0.243,0.285,0.506,0.361,0.789c-3.451,0.074-6.903,0.143-10.354,0.227
		C864.142,1.037,863.375,0.919,863,0C867,0,871,0,875,0z"/>
	<path style="fill:#28377B;" d="M874.2,1719.12c-0.072,0.292-0.139,0.585-0.2,0.88c-3.667,0-7.333,0-11,0
		c0.946-1.746,2.591-0.905,3.921-0.96C869.342,1718.939,871.773,1719.08,874.2,1719.12z"/>
	<path style="fill:#1E56A7;" d="M1068.126,25.529c15.416,3.954,30.891,7.67,46.091,12.44c20.864,6.546,41.519,13.676,61.849,21.734
		c0.75,0.297,1.639,0.379,2.089,1.206c-0.907,0.349-1.32,1.032-1.077,1.952c0.625,2.371,1.19,4.77,2.007,7.076
		c5.637,15.907,10.22,32.132,14.575,48.421c2.237,8.366,4.391,16.762,6.279,25.212c2.457,10.994,4.741,22.031,6.859,33.096
		c1.599,8.351,2.609,16.817,4.281,25.152c1.128,5.62,1.594,11.32,2.671,16.949c1.23,6.429,1.443,13.047,2.286,19.558
		c0.529,4.092,0.433,8.298,1.164,12.272c1.673,9.097,1.336,18.336,2.695,27.445c0.749,5.023,0.501,10.188,0.894,15.297
		c0.775,10.051,0.555,20.179,1.005,30.282c0.478,10.719,0.141,21.501-0.526,32.296c-0.886,14.336-1.051,28.724-2.088,43.084
		c-0.427,5.909-1.764,11.798-1.198,17.783c0.046,0.486,0.023,1.026-0.141,1.477c-1.542,4.247-1.083,8.779-1.643,13.148
		c-0.518,4.044-0.802,8.255-1.451,12.237c-1.315,8.067-2.099,16.212-3.667,24.248c-1.69,8.666-2.558,17.492-4.226,26.163
		c-2.437,12.669-4.957,25.338-7.997,37.873c-5.321,21.939-11.493,43.655-18.416,65.148c-5.03,15.615-10.613,31.035-16.403,46.387
		c-5.921,15.699-12.409,31.151-19.461,46.368c-3.818,8.239-7.827,16.389-11.714,24.596c-1.126,2.377-2.394,4.762-1.452,7.553
		c-0.2,0.457-0.321,0.974-0.612,1.363c-18.27,24.388-31.746,51.324-42.412,79.753c-1.859,4.956-3.641,9.94-5.459,14.912
		c-1.784-0.151-2.923,0.396-4.042,2.079c-5.177,7.793-10.5,15.494-15.978,23.079c-5.289,7.322-10.583,14.665-16.328,21.624
		c-6.39,7.741-12.461,15.734-18.987,23.375c-4.908,5.748-9.722,11.616-14.726,17.273c-4.926,5.568-9.589,11.422-15.178,16.399
		c-1.628,1.45-2.834,3.204-2.501,5.572c1.633,1.009,3.337,0.536,4.951,0.542c13.137,0.044,26.274-0.011,39.411,0.078
		c1.47,0.01,3.388-1.044,4.412,1.078c-0.66-0.076-1.321-0.218-1.981-0.219c-19.998-0.017-39.995-0.025-59.993,0.001
		c-0.494,0.001-1.366-0.356-1.53,1.185c0.304,0.213,0.886,0.542,1.377,0.974c6.67,5.868,9.68,13.189,9.367,22.122
		c-0.361,10.304-3.066,19.968-7.1,29.333c-2.418,5.613-5.24,11-9.601,15.719c-23.009-32.685-40.561-67.306-46.195-107.013
		c1.107-1.34,2.61-1.677,3.929-2.329c15.62-7.725,31.67-14.573,46.929-23.037c16.793-9.315,32.789-19.706,46.257-33.597
		c10.184-10.504,18.628-22.118,23.063-36.258c5.896-18.794,3.531-36.378-7.894-52.589c-4.268-6.056-10.034-10.568-15.657-15.229
		c1.261-5.611,5.152-9.904,7.551-14.954c1.972-4.15,4.678-7.945,6.85-12.008c4.595-8.597,9.405-17.103,13.49-25.942
		c7.043-15.238,14.363-30.346,20.645-45.948c5.521-13.71,10.617-27.553,15.714-41.418c8.378-22.786,14.856-46.105,20.751-69.602
		c3.258-12.985,6.479-26.016,8.801-39.187c1.588-9.007,3.16-18.052,4.474-27.128c1.168-8.073,2.174-16.201,3.514-24.266
		c0.687-4.134,0.778-8.552,1.43-12.734c0.836-5.367,0.059-10.887,1.766-16.13c0.1-0.306,0.089-0.664,0.064-0.993
		c-0.554-7.472,0.704-14.88,1.191-22.28c1.519-23.097,0.383-46.19,0.821-69.277c-2.114-7.745,0.166-15.851-1.934-23.601
		c-0.127-0.469-0.065-0.994-0.062-1.493c0.045-7.76-1.332-15.411-1.817-23.107c-0.457-7.243-1.5-14.401-2.342-21.566
		c-0.913-7.767-2.104-15.538-3.548-23.26c-0.809-4.326-1.556-8.7-2.207-13.063c-1.231-8.256-3.155-16.361-4.732-24.54
		c-2.292-11.885-5.222-23.614-8.364-35.293c-2.252-8.369-4.63-16.705-7.028-25.034c-3.81-13.237-8.322-26.249-12.904-39.231
		c-4.316-12.228-8.877-24.368-14.093-36.252c-1.583-3.608-2.958-7.308-4.532-10.92C1067.932,27.787,1068.057,26.681,1068.126,25.529
		z"/>
	<path style="fill:#1E56A7;" d="M713.854,1023.012c1.185,11.443,3.348,22.645,8.19,33.186c8.374,18.231,21.211,32.437,38.453,42.679
		c1.553,0.922,3.067,1.911,4.599,2.869c0.05,2.47-2.089,2.668-3.625,3.46c-20.687,10.669-41.667,20.704-63.136,29.721
		c-13.48,5.662-27.088,11.018-40.9,15.751c-15.659,5.367-31.313,10.798-47.237,15.378c-14.927,4.293-29.876,8.488-45.024,11.96
		c-10.993,2.521-21.956,5.151-33.077,7.086c-6.269,1.09-12.466,2.589-18.733,3.694c-8.54,1.505-17.074,3.251-25.688,4.054
		c-6.385,0.595-12.732,1.572-19.057,2.394c-7.635,0.992-15.318,1.653-22.955,2.579c-7.979,0.967-16.074,1.824-24.084,1.961
		c-9.455,0.162-18.826,1.49-28.293,1.273c-10.824-0.249-21.659-0.05-32.489-0.059c-16.936-0.015-33.877,0.258-50.789-0.996
		c-0.664-0.049-1.388,0.107-1.987-0.106c-4.727-1.682-9.414-1.09-14.104,0.127c-0.238-0.216-0.595-0.385-0.698-0.653
		c-8.02-20.744-15.773-41.577-22.294-62.861c-5.829-19.026-11.746-38.016-15.885-57.504c4.583,0.281,9.063,1.338,13.594,1.885
		c9.109,1.1,18.244,2.028,27.369,2.996c8.656,0.918,17.392,1.76,26.06,1.915c12.094,0.217,24.132,1.937,36.245,1.209
		c0.827-0.05,1.667-0.025,2.492,0.056c0.727,0.072,1.123,0.612,1.369,1.263c-4.672,4.217-8.532,9.267-13.752,12.948
		c-2.829,1.995-6.115,3.172-9.453,5.505c61.272,0,121.876,0,183.147,0c-5.94-3.469-11.36-6.699-14.123-12.752
		c-0.007-0.517-0.239-0.87-0.745-1.025c-0.118-0.32-0.237-0.639-0.355-0.959c8.326-1.705,16.697-3.217,24.966-5.163
		c11.767-2.769,23.455-5.867,35.182-8.806c10.96-2.747,21.772-6,32.56-9.347c17.866-5.544,35.388-12.081,52.725-19.036
		c10.519-4.219,21.038-8.539,31.267-13.5c8.898-4.315,17.975-8.262,26.932-12.458
		C711.633,1023.219,712.675,1022.945,713.854,1023.012z"/>
	<path style="fill:#BFE4F4;" d="M115.947,428.776c2.021-6.56,6.206-11.982,9.688-17.717c7.946-13.089,16.362-25.892,25.073-38.497
		c9.356-13.538,18.967-26.887,29.094-39.854c7.917-10.136,15.992-20.153,24.185-30.067c2.779-3.363,6.154-6.231,9.21-9.371
		c1.125-1.157,2.69-1.995,2.857-3.92c0.052-0.597,0.463-1.245,0.883-1.713c2.769-3.083,6.654-5.14,8.09-9.643
		c1.066,3.332,3.585,3.857,5.821,3.923c6.94,0.205,13.795,1.456,20.789,1.171c7.256-0.296,14.426-1.285,21.565-2.301
		c9.236-1.315,18.163-4.118,26.933-7.348c14.321-5.274,27.636-12.38,39.679-21.779c5.47-4.269,10.984-8.542,15.656-13.69
		c9.43-10.389,18.058-21.335,24.608-33.895c5.723-10.975,10.47-22.289,13.404-34.264c1.706-6.962,3.394-13.97,3.678-21.271
		c0.139-3.562,1.091-7.12,0.726-10.676c-1.141-1.363-2.551-0.653-3.807-0.77l-0.17-0.19c3.702-3.859,8.565-6.039,12.985-8.832
		c9.744-6.156,19.843-11.723,29.799-17.526c10.55-6.148,21.274-12.036,32.228-17.301c14.526-6.982,28.651-14.855,43.742-20.674
		c5.818-2.243,11.325-5.307,17.175-7.447c4.671-1.709,9.082-4.152,14.011-5.152c1.341,0.013,1.826,0.582,2.218,2.007
		c3.44,12.489,5.291,25.289,6.733,38.085c0.845,7.496,1.91,15.109,1.217,22.75c-0.12,1.318-0.362,2.82,0.118,3.957
		c1.087,2.579,1.218,5.276,0.776,7.812c-1.09,6.249-0.53,12.546-1.101,18.774c-0.181,1.972-0.127,3.757,0.172,5.627
		c-2.472,2.572-5.665,4.265-8.099,6.946c-2.673,2.946-5.653,5.655-8.735,8.18c-10.273,8.417-19.773,17.691-29.402,26.794
		c-11.239,10.625-21.974,21.785-32.453,33.186c-6.518,7.092-13.043,14.169-19.41,21.402c-10.301,11.701-20.229,23.696-29.919,35.909
		c-12.973,16.35-25.467,33.038-37.281,50.243c-8.247,12.01-16.051,24.302-23.816,36.625c-8.476,13.452-16.337,27.253-24.089,41.128
		c-5.818,10.414-11.351,20.974-16.84,31.561c-6.162-0.335-11.977,1.774-17.977,2.582c-5.019,0.676-9.975,1.928-15.008,2.358
		c-4.423,0.378-8.989,0.589-13.235,1.369c-6.723,1.235-13.451,0.597-20.169,1.487c-11.674,1.546-23.473-0.776-35.24-0.769
		c-0.332,0-0.678,0.026-0.995-0.052c-6.868-1.675-13.986-1.479-20.906-2.885c-6.565-1.334-13.318-1.804-19.824-3.347
		c-18.641-4.419-37.145-9.435-54.796-16.983C122.386,433.262,117.742,433.154,115.947,428.776z"/>
	<path style="fill:#8ED4F1;" d="M115.947,428.776c1.794,4.378,6.439,4.486,9.841,5.941c17.651,7.549,36.155,12.565,54.796,16.983
		c6.506,1.542,13.26,2.013,19.824,3.347c6.92,1.406,14.039,1.21,20.906,2.885c0.317,0.077,0.663,0.052,0.995,0.052
		c11.767-0.007,23.567,2.316,35.24,0.769c6.718-0.89,13.446-0.252,20.169-1.487c4.247-0.78,8.812-0.991,13.235-1.369
		c5.033-0.43,9.989-1.681,15.008-2.358c6.001-0.809,11.815-2.917,17.977-2.582c-5.436,11.634-10.946,23.234-16.28,34.915
		c-3.071,6.724-5.666,13.669-8.825,20.348c-3.498,7.397-5.935,15.214-9.57,22.577c-2.342,4.743-4.228,9.876-5.339,15.167
		c-12.776-0.629-25.475,1.201-38.248,1.151c-9.448-0.038-18.865-0.823-28.246-1.386c-10.23-0.614-20.498-1.958-30.717-3.467
		c-15.393-2.273-30.562-5.363-45.588-9.268c-12.69-3.298-25.012-7.764-37.392-12.046c-9.785-3.384-19.043-8.012-28.616-11.892
		c3.45-9.468,8.302-18.311,12.744-27.297c8.174-16.536,16.522-33.012,26.108-48.809
		C114.503,430.077,115.076,429.309,115.947,428.776z"/>
	<path style="fill:#8ED4F1;" d="M553.983,158.985c-0.299-1.871-0.353-3.655-0.172-5.627c0.57-6.228,0.011-12.525,1.101-18.774
		c0.442-2.537,0.311-5.233-0.776-7.812c-0.479-1.137-0.237-2.639-0.118-3.957c0.693-7.641-0.372-15.254-1.217-22.75
		c-1.443-12.796-3.294-25.596-6.733-38.085c-0.393-1.425-0.877-1.995-2.218-2.007c2.219-2.196,5.312-2.382,8.015-3.452
		c21.068-8.342,42.562-15.381,64.303-21.785c15.56-4.584,31.285-8.459,46.968-12.532c1.022,1.169,1.976,1.215,2.845-0.17
		c0.695-0.315,1.39-0.631,2.085-0.946c2.044,1.237,3.475,2.533,4.085,5.298c2.589,11.725,5.399,23.384,7.049,35.311
		c0.382,2.763,0.758,5.479,0.777,8.256c-1.389,0.891-2.77,1.796-4.169,2.671c-8.257,5.158-16.518,10.309-24.778,15.462
		c-3.347,2.107-6.704,4.196-10.038,6.324c-11.429,7.296-22.308,15.381-33.397,23.17c-10.246,7.197-20.19,14.782-30.057,22.466
		C569.591,146.233,562.115,153.018,553.983,158.985z"/>
	<path style="fill:#57C2EC;" d="M665.98,22.032c-0.869,1.385-1.823,1.339-2.845,0.17C664.083,22.146,665.031,22.089,665.98,22.032z"
		/>
	<path style="fill:#BFE4F4;" d="M382.96,143.959c0.332-0.978,1.165-0.986,1.982-1.024l0.123,0.123
		c-0.341,1.018-1.198,0.976-2.029,0.986L382.96,143.959z"/>
	<path style="fill:#BFE4F4;" d="M383.036,144.044c-0.322,1.006-0.948,0.942-1.834,0.742c0.519-0.92,1.173-0.776,1.758-0.827
		L383.036,144.044z"/>
	<path style="fill:#BFE4F4;" d="M385.963,141.968c0.364-0.91,0.955-0.977,1.842-0.68c-0.535,0.844-1.179,0.712-1.767,0.754
		L385.963,141.968z"/>
	<path style="fill:#BFE4F4;" d="M394.08,137.094c-0.354,0.993-1.204,0.95-2.024,0.968l-0.108-0.107
		c0.339-0.938,1.158-0.979,1.961-1.051L394.08,137.094z"/>
	<path style="fill:#BFE4F4;" d="M277.981,226.984c0.15-0.243,0.299-0.486,0.449-0.73c0.661,0.688-0.128,0.59-0.414,0.764
		L277.981,226.984z"/>
	<path style="fill:#BFE4F4;" d="M227.968,276.972c0.155-0.244,0.31-0.488,0.465-0.732c0.678,0.681-0.1,0.615-0.406,0.791
		L227.968,276.972z"/>
	<path style="fill:#BFE4F4;" d="M386.038,142.042c-0.08,0.572-0.428,0.889-0.973,1.016l-0.123-0.123
		c0.13-0.545,0.47-0.867,1.021-0.967L386.038,142.042z"/>
	<path style="fill:#BFE4F4;" d="M230.015,274.013c-0.142,0.246-0.284,0.492-0.426,0.738c-0.668-0.675,0.127-0.582,0.4-0.763
		C229.989,273.987,230.015,274.013,230.015,274.013z"/>
	<path style="fill:#BFE4F4;" d="M229.989,273.987c0.106-0.559,0.438-0.893,0.995-1.007l0.038,0.038
		c-0.095,0.575-0.424,0.913-1.007,0.994L229.989,273.987z"/>
	<path style="fill:#BFE4F4;" d="M392.055,138.062c-0.167,0.242-0.334,0.484-0.501,0.726c-0.707-0.674,0.068-0.647,0.394-0.833
		L392.055,138.062z"/>
	<path style="fill:#BFE4F4;" d="M230.983,272.981c0.104-0.558,0.436-0.893,0.99-1.011l0.059,0.059
		c-0.103,0.57-0.434,0.905-1.012,0.99L230.983,272.981z"/>
	<path style="fill:#BFE4F4;" d="M233.039,271.034c-0.104,0.566-0.434,0.903-1.006,0.995l-0.059-0.059
		c0.109-0.556,0.441-0.891,0.995-1.006L233.039,271.034z"/>
	<path style="fill:#BFE4F4;" d="M273.016,231.014c-0.146,0.246-0.292,0.491-0.438,0.737c-0.669-0.686,0.126-0.589,0.41-0.765
		L273.016,231.014z"/>
	<path style="fill:#BFE4F4;" d="M232.969,270.964c0.162-0.24,0.324-0.48,0.486-0.721c0.667,0.687-0.098,0.622-0.416,0.791
		C233.039,271.034,232.969,270.964,232.969,270.964z"/>
	<path style="fill:#BFE4F4;" d="M272.987,230.985c0.154-0.24,0.307-0.48,0.461-0.72c0.637,0.7-0.142,0.583-0.432,0.749
		L272.987,230.985z"/>
	<path style="fill:#BFE4F4;" d="M228.027,277.031c-0.157,0.239-0.314,0.479-0.47,0.718c-0.662-0.681,0.106-0.607,0.411-0.777
		L228.027,277.031z"/>
	<path style="fill:#BFE4F4;" d="M276.005,229.005c-0.149,0.241-0.298,0.483-0.447,0.724c-0.634-0.709,0.157-0.57,0.437-0.735
		L276.005,229.005z"/>
	<path style="fill:#BFE4F4;" d="M275.995,228.994c0.086-0.578,0.423-0.908,0.995-1.005l0.02,0.02
		c-0.108,0.561-0.442,0.894-1.005,0.996L275.995,228.994z"/>
	<path style="fill:#BFE4F4;" d="M278.016,227.018c-0.105,0.564-0.438,0.896-1.005,0.991l-0.02-0.02
		c0.083-0.578,0.419-0.909,0.991-1.005L278.016,227.018z"/>
	<path style="fill:#273C86;" d="M1699.368,672.855c-3.292,0.298-3.688,3.257-4.236,5.392c-4.84,18.866-10.284,37.552-15.772,56.238
		c-5.363,18.261-11.191,36.369-17.521,54.291c-7.872,22.286-16.169,44.432-25.306,66.251c-6.102,14.571-12.178,29.149-18.729,43.528
		c-4.652,10.212-9.544,20.312-14.216,30.508c-4.962,10.829-10.276,21.474-15.701,32.059c-7.756,15.134-15.667,30.203-24.016,45.015
		c-9.704,17.216-19.849,34.187-30.011,51.139c-5.161,8.609-10.823,16.916-16.181,25.409c-7.381,11.7-15.298,23.034-23.182,34.394
		c-10.227,14.735-20.785,29.223-31.527,43.59c-7.394,9.889-14.944,19.66-22.653,29.286c-6.49,8.103-12.87,16.313-19.774,24.1
		c-6.669,7.522-12.849,15.474-19.334,23.162c-2.664,3.159-5.584,6.115-8.365,9.158c-3.91,4.28-7.527,8.827-11.619,12.955
		c-6.661,6.721-13.161,13.631-19.492,20.64c-15.08,16.697-31.427,32.118-47.355,47.948c-9.159,9.103-18.99,17.548-28.375,26.451
		c-8.15,7.731-16.627,15.145-25.285,22.307c-12.571,10.399-25.075,20.878-37.782,31.12c-15.01,12.097-30.392,23.689-45.715,35.364
		c-7.715,5.879-15.794,11.283-23.747,16.846c-10.382,7.262-20.682,14.641-31.361,21.474c-15.668,10.025-31.274,20.132-47.262,29.661
		c-15.438,9.201-30.966,18.217-46.717,26.87c-9.555,5.249-19.217,10.281-28.826,15.419c-9.774,5.226-19.594,10.357-29.57,15.162
		c-15.459,7.446-30.938,14.881-46.657,21.751c-20.032,8.754-40.193,17.243-60.528,25.265c-13.88,5.475-27.944,10.519-42.029,15.488
		c-11.145,3.932-22.309,7.815-33.576,11.339c-18.744,5.863-37.433,11.944-56.533,16.619c-4.765,1.166-9.484,2.549-14.165,4.019
		c-1.965,0.617-4.36,1.113-4.285,4.042c-0.628-0.187-1.315-0.268-1.875-0.578c-5.494-3.049-10.958-6.152-16.448-9.208
		c-12.536-6.98-24.892-14.266-36.982-21.989c-24.481-15.638-48.347-32.176-71.428-49.814c-6.914-5.283-13.942-10.479-20.219-16.563
		c-0.129-0.553-0.477-0.872-1.034-0.967c-0.144-0.244-0.246-0.504-0.306-0.781c1.394-0.982,2.396-2.129,4.517-2.384
		c5.994-0.72,11.922-2.032,17.897-3.021c9.498-1.571,18.854-3.984,28.328-5.729c12.221-2.25,24.287-5.158,36.382-7.964
		c11.95-2.771,23.793-5.96,35.678-8.983c20.322-5.167,40.319-11.392,60.325-17.592c11.591-3.592,23.056-7.61,34.484-11.697
		c12.977-4.641,25.933-9.361,38.745-14.435c15.131-5.994,30.086-12.427,45.044-18.851c15.61-6.704,30.865-14.149,46.264-21.292
		c14.555-6.753,28.551-14.617,42.844-21.893c4.706-2.395,9.407-4.815,13.98-7.451c11.989-6.909,23.883-13.982,35.858-20.915
		c12.97-7.508,25.66-15.464,38.222-23.628c11.176-7.263,22.324-14.566,33.185-22.3c10.182-7.251,20.632-14.147,30.559-21.731
		c16.093-12.295,32.438-24.276,47.79-37.529c6.856-5.918,14.122-11.359,21.051-17.196c7.704-6.491,15.428-12.98,22.787-19.853
		c7.506-7.011,15.168-13.839,22.767-20.742c8.359-7.592,15.643-16.311,24.465-23.45c3.083-2.495,5.333-5.876,8.007-8.796
		c7.738-8.451,16.252-16.145,23.844-24.781c6.113-6.954,12.405-13.768,18.612-20.65c8.524-9.45,16.789-19.098,24.838-28.949
		c6.888-8.43,14.067-16.622,20.904-25.092c1.7-2.106,3.728-4.266,3.952-7.277c0.921-0.355,1.818-0.792,2.765-1.053
		c21.9-6.031,43.222-13.604,64.007-22.832c6.875-3.052,11.964-6.556,12.36-14.598c0.008-0.154,0.152-0.296,0.202-0.453
		c7.759-24.477,15.528-48.95,23.268-73.433c10.557-33.394,21.31-66.729,31.55-100.221c5.855-19.15,17.689-32.711,35.532-41.32
		c2.613-1.261,5.28-2.41,7.922-3.611c-0.05-0.226-0.101-0.453-0.151-0.679c-3.152,0-6.305,0-9.457,0
		c0.03-0.987,0.079-1.918,0.495-2.894c5.411-12.691,10.817-25.383,16.102-38.127c8.168-19.696,15.363-39.762,22.486-59.853
		c6.239-17.597,11.517-35.497,16.932-53.356c3.605-11.892,6.859-23.877,9.973-35.9c4.422-17.072,8.67-34.184,12.44-51.419
		c2.338-10.687,4.473-21.409,6.557-32.144c1.214-6.253,2.251-12.541,3.347-18.817c1.235-7.078,2.527-14.148,3.64-21.246
		c0.811-5.172,1.803-10.309,2.339-15.537c0.581-5.676,2.162-11.261,2.583-16.94c0.499-6.724,1.601-13.367,2.293-20.058
		c0.877-8.465,2.085-16.908,2.763-25.402c0.1-1.25,0.768-2.158,1.095-3.25c3.109,4.511,5.351,9.507,7.863,14.34
		c6.106,11.746,12.009,23.595,17.237,35.771c4.434,10.328,9.264,20.495,13.429,30.928c4.05,10.144,7.765,20.454,11.869,30.554
		c8.998,22.148,15.722,44.986,22.372,67.863c3.656,12.578,6.803,25.309,9.582,38.12
		C1698.783,669.252,1699.047,671.06,1699.368,672.855z"/>
	<path style="fill:#1A4CA0;" d="M1131.415,721.982c-0.942-2.79,0.326-5.175,1.452-7.553c3.887-8.207,7.896-16.358,11.714-24.596
		c7.052-15.217,13.54-30.669,19.461-46.368c5.79-15.351,11.373-30.771,16.403-46.387c6.923-21.493,13.095-43.209,18.416-65.148
		c3.04-12.534,5.561-25.203,7.997-37.873c1.668-8.671,2.536-17.497,4.226-26.163c1.567-8.037,2.352-16.181,3.667-24.248
		c0.649-3.982,0.933-8.193,1.451-12.237c0.559-4.369,0.1-8.9,1.643-13.148c0.164-0.452,0.187-0.991,0.141-1.477
		c-0.565-5.985,0.772-11.874,1.198-17.783c1.037-14.359,1.202-28.748,2.088-43.084c0.667-10.794,1.004-21.577,0.526-32.296
		c-0.451-10.104-0.231-20.231-1.005-30.282c-0.394-5.109-0.145-10.274-0.894-15.297c-1.358-9.108-1.022-18.348-2.695-27.445
		c-0.731-3.974-0.634-8.18-1.164-12.272c-0.842-6.511-1.056-13.129-2.286-19.558c-1.077-5.629-1.543-11.329-2.671-16.949
		c-1.673-8.335-2.683-16.801-4.281-25.152c-2.118-11.065-4.402-22.102-6.859-33.096c-1.889-8.45-4.042-16.846-6.279-25.212
		c-4.355-16.289-8.938-32.514-14.575-48.421c-0.817-2.307-1.382-4.705-2.007-7.076c-0.243-0.921,0.17-1.604,1.077-1.952
		c6.615,2.169,12.978,4.939,19.256,7.935c4.844,2.312,9.669,4.721,14.681,6.611c4.81,1.814,9.266,4.297,13.883,6.468
		c7.978,3.751,16.075,7.296,23.812,11.499c15.244,8.282,30.722,16.124,45.601,25.103c10.855,6.551,22.106,12.452,32.652,19.529
		c1.36,0.913,2.626,1.968,3.935,2.957c-1.892,1.585-1.187,3.828-0.841,5.539c1.522,7.541,2.93,15.089,4.05,22.706
		c1.022,6.945,2.958,13.774,3.695,20.739c0.898,8.489,2.287,16.913,3.358,25.368c0.925,7.303,1.636,14.654,2.603,21.959
		c0.903,6.821,1.521,13.729,2.013,20.597c0.73,10.195,1.258,20.406,2.066,30.604c0.652,8.24,0.626,16.557,0.808,24.803
		c0.362,16.409,1.124,32.866-0.599,49.31c-0.911,8.697,0.315,17.542-1.05,26.302c-0.707,4.537-0.439,9.197-0.831,13.812
		c-0.753,8.855-1.549,17.723-2.137,26.594c-0.49,7.399-1.352,14.77-2.322,22.074c-1.184,8.913-1.991,17.892-3.708,26.752
		c-1.401,7.229-1.717,14.677-3.262,21.867c-2.368,11.022-4.385,22.113-6.637,33.154c-3.792,18.591-7.88,37.084-12.826,55.409
		c-1.267,4.693-3.41,9.275-3.35,14.31c-0.605,0.276-1.184,0.668-1.819,0.811c-16.038,3.615-31.537,8.903-46.635,15.338
		c-17.502,7.459-34.858,15.29-50.629,26.068c-12.226,8.356-24.373,16.814-35.388,26.848c-5.41,4.928-10.824,9.819-16.058,14.948
		c-10.593,10.38-20.088,21.707-29.577,33.055c-0.572,0.174-0.86,0.569-0.906,1.156
		C1131.801,721.415,1131.608,721.699,1131.415,721.982z"/>
	<path style="fill:#253E8E;" d="M1616.045,449.893c-0.327,1.091-0.995,2-1.095,3.25c-0.679,8.493-1.887,16.937-2.763,25.402
		c-0.693,6.69-1.795,13.334-2.293,20.058c-0.421,5.678-2.002,11.264-2.583,16.94c-0.535,5.228-1.528,10.365-2.339,15.537
		c-1.112,7.098-2.405,14.167-3.64,21.246c-1.095,6.276-2.133,12.564-3.347,18.817c-2.083,10.735-4.218,21.457-6.557,32.144
		c-3.771,17.235-8.019,34.347-12.44,51.419c-3.114,12.023-6.367,24.008-9.973,35.9c-5.415,17.859-10.693,35.759-16.932,53.356
		c-7.123,20.091-14.318,40.156-22.486,59.853c-5.285,12.743-10.691,25.436-16.102,38.127c-0.416,0.976-0.465,1.907-0.495,2.894
		c-1.158,0.056-2.317,0.161-3.475,0.161c-44.681,0.006-89.362,0.003-134.043-0.008c-1.159,0-2.318-0.101-3.476-0.155
		c0.025-0.988-0.002-1.937,0.501-2.894c2.071-3.942,3.674-8.119,5.632-12.096c5.176-10.512,10.029-21.164,14.93-31.804
		c5.44-11.812,10.308-23.85,15.347-35.825c8.279-19.675,15.568-39.726,22.535-59.884c5.565-16.102,10.613-32.387,15.615-48.676
		c0.998-3.25,2.437-6.471,2.535-9.983c4.457,0.773,8.458,2.985,12.476,4.743c11.96,5.232,23.69,11.009,34.309,18.809
		c6.951,5.106,13.891,10.213,20.844,16.199c7.221-22.734,14.311-45.056,21.464-67.577c-25.511-8.164-51.13-14.027-77.184-18.045
		c-0.336-0.985-1.947-0.731-1.965-2.026c1.838-7.621,3.341-15.336,5.198-22.936c3.535-14.467,5.841-29.152,8.667-43.741
		c1.336-6.897,2.127-13.936,3.335-20.846c1.805-10.321,3.22-20.7,4.555-31.062c0.899-6.978,1.581-14.057,2.421-21.048
		c0.997-8.301,1.736-16.65,2.553-24.95c0.934-9.487,1.352-19.055,2.162-28.581c0.489-5.747,0.477-11.533,0.859-17.306
		c0.763-11.559,0.645-23.186,0.995-34.784c0.42-13.899,0.931-27.855-0.672-41.795c-1.076-9.355,0.855-18.894-1.07-28.288
		c-0.468-2.282,0.017-4.437,3.121-4.503c1.079,1.846,2.672,3.251,4.097,4.804c6.106,6.655,12.485,13.088,18.19,20.072
		c4.951,6.061,10.129,11.921,15.087,17.965c19.252,23.467,37.046,48.015,53.459,73.546c5.708,8.879,10.738,18.198,16.507,27.034
		c5.898,9.033,10.992,18.508,16.343,27.846C1615.34,448.047,1616.092,448.801,1616.045,449.893z"/>
	<path style="fill:#1F4498;" d="M1491.172,275.934c-3.104,0.066-3.589,2.221-3.121,4.503c1.925,9.394-0.006,18.933,1.07,28.288
		c1.603,13.94,1.093,27.896,0.672,41.795c-0.351,11.598-0.232,23.225-0.995,34.784c-0.381,5.773-0.37,11.558-0.859,17.306
		c-0.81,9.526-1.228,19.094-2.162,28.581c-0.817,8.3-1.556,16.649-2.553,24.95c-0.84,6.991-1.522,14.07-2.421,21.048
		c-1.335,10.362-2.75,20.741-4.555,31.062c-1.208,6.91-1.999,13.95-3.335,20.846c-2.826,14.589-5.132,29.273-8.667,43.741
		c-1.857,7.6-3.36,15.315-5.198,22.936c0.018,1.295,1.629,1.041,1.965,2.026c-0.33,0.028-0.672,0.127-0.99,0.075
		c-17.916-2.935-35.991-3.99-54.104-4.695c-12.003-0.467-23.964,0.311-35.91,1.119c-12.089,0.818-24.139,2.167-36.043,4.587
		c-6.971,1.418-13.973,2.686-20.96,4.022c-0.06-5.035,2.083-9.617,3.35-14.31c4.946-18.325,9.034-36.818,12.826-55.409
		c2.252-11.041,4.269-22.132,6.637-33.154c1.545-7.19,1.861-14.638,3.262-21.867c1.717-8.86,2.524-17.839,3.708-26.752
		c0.97-7.304,1.832-14.675,2.322-22.074c0.587-8.871,1.384-17.739,2.137-26.594c0.392-4.615,0.124-9.275,0.831-13.812
		c1.366-8.76,0.139-17.605,1.05-26.302c1.723-16.443,0.962-32.9,0.599-49.31c-0.182-8.245-0.156-16.563-0.808-24.803
		c-0.808-10.198-1.336-20.408-2.066-30.604c-0.492-6.868-1.11-13.776-2.013-20.597c-0.967-7.305-1.678-14.656-2.603-21.959
		c-1.071-8.455-2.46-16.879-3.358-25.368c-0.737-6.964-2.673-13.793-3.695-20.739c-1.12-7.617-2.528-15.165-4.05-22.706
		c-0.345-1.71-1.051-3.953,0.841-5.539c12.542,7.573,24.348,16.221,36.165,24.847c40.739,29.741,78.449,62.948,113.366,99.333
		C1484.841,268.665,1487.956,272.348,1491.172,275.934z"/>
	<path style="fill:#29ACE0;" d="M255.041,1079.006c4.138,19.488,10.056,38.478,15.885,57.504
		c6.521,21.284,14.274,42.116,22.294,62.861c0.104,0.268,0.46,0.438,0.698,0.653c2.244,7.813,5.827,15.103,9.015,22.53
		c9.024,21.022,18.833,41.688,29.455,61.949c2.595,4.949,4.751,10.207,8.358,14.599c1.355,4.141,4.03,7.584,6.052,11.372
		c6.661,12.48,14.156,24.474,21.544,36.529c4.265,6.958,8.471,13.953,12.704,20.931c-1.273,3.273-4.694,2.678-6.857,2.849
		c-7.216,0.568-14.386,1.584-21.588,2.104c-8.703,0.628-17.404,1.157-26.094,2.025c-6.064,0.606-12.174,0.201-18.306,0.906
		c-8.185,0.941-16.556,0.89-24.771,0.921c-25.414,0.094-50.833,0.962-76.274-0.498c-12.042-0.691-24.16-1.453-36.27-1.236
		c-14.338-18.46-27.32-37.856-39.814-57.591c-18.089-28.573-34.113-58.288-48.777-88.736c-8.421-17.485-16.094-35.323-23.164-53.392
		c-7.054-18.029-13.512-36.283-19.331-54.765c-6.621-21.033-12.557-42.256-17.583-63.71c-3.786-16.16-7.06-32.461-9.891-48.815
		c-1.289-7.446-2.627-14.929-3.4-22.488c-0.602-5.886-2.027-11.686-2.668-17.57c-0.412-3.778-0.9-7.562-1.18-11.347
		c-0.635-8.58-1.768-17.11-2.335-25.705c-0.305-4.624-0.609-9.246-0.704-13.883c4.374,0.737,4.665,1.39,3.288,7.467
		c18.231,5.684,36.694,10.525,55.304,14.797c10.33,2.371,20.695,4.602,31.089,6.677c9.118,1.82,18.251,3.698,27.464,4.875
		c8.117,1.037,16.199,2.347,24.326,3.333c7.294,0.884,14.64,1.422,21.917,2.641c3.993,0.669,8.167,0.702,12.258,1.157
		c8.659,0.965,17.427,0.544,26.062,1.989c1.781,0.298,3.655-0.004,5.482,0.062c6.59,0.241,13.238-0.782,19.682,1.064
		c1.446-1.177,1.9-3.501,4.267-3.087c1.388,0.968,0.796,2.435,0.826,3.676c0.1,4.131,0.784,8.224,1.239,12.295
		c1.185,10.604,3.079,21.13,4.761,31.676c1.374,8.614,2.688,17.243,4.319,25.809c2.091,10.983,4.298,21.95,6.809,32.843
		C252.27,1069.213,253.036,1074.286,255.041,1079.006z"/>
	<path style="fill:#1C8ECE;" d="M170.886,1375.004c12.11-0.217,24.227,0.545,36.27,1.236c25.441,1.46,50.86,0.592,76.274,0.498
		c8.215-0.03,16.586,0.02,24.771-0.921c6.132-0.705,12.243-0.3,18.306-0.906c8.69-0.869,17.391-1.397,26.094-2.025
		c7.202-0.52,14.372-1.536,21.588-2.104c2.163-0.17,5.584,0.425,6.857-2.849c1.402,0.679,2.189,1.884,3.033,3.152
		c3.194,4.797,6.45,9.555,9.813,14.234c10.113,14.073,20.24,28.134,31.091,41.659c7.053,8.791,14.142,17.549,21.523,26.069
		c5.318,6.138,10.459,12.432,15.869,18.488c4.406,4.933,9.092,9.615,13.654,14.408c0.632,1.623,2.078,2.56,3.232,3.719
		c16.172,16.245,31.999,32.842,49.083,48.155c4.435,3.975,9.018,7.785,13.475,11.735c3.458,3.065,6.827,6.232,10.235,9.354
		c-0.492,2.526-2.568,3.363-4.608,3.811c-5.586,1.225-11.227,2.192-16.842,3.286c-8.016,1.561-16.013,3.22-24.044,4.694
		c-6.595,1.21-13.22,2.264-19.846,3.287c-5.017,0.775-10.071,1.459-15.043,2.351c-7.731,1.388-15.514,2.399-23.268,3.556
		c-6.315,0.943-12.698,1.62-19.065,2.295c-7.974,0.845-15.873,2.484-23.918,2.779c-2.268,0.083-3.403,1.001-3.533,3.225
		c-9.017-4.644-17.115-10.734-25.483-16.377c-15.826-10.673-31.147-22.056-46.22-33.769c-8.888-6.907-17.491-14.162-26.151-21.349
		c-22.427-18.611-43.258-38.908-63.605-59.726c-14.423-14.757-28.174-30.112-41.276-46.06
		c-8.841-10.761-18.052-21.219-25.744-32.883C172.708,1376.966,171.456,1376.247,170.886,1375.004z"/>
	<path style="fill:#1F7DC1;" d="M401.886,1588.191c0.13-2.224,1.265-3.142,3.533-3.225c8.044-0.295,15.943-1.933,23.918-2.779
		c6.367-0.675,12.75-1.352,19.065-2.295c7.753-1.157,15.537-2.168,23.268-3.556c4.972-0.893,10.027-1.576,15.043-2.351
		c6.627-1.024,13.252-2.077,19.846-3.287c8.031-1.474,16.029-3.133,24.044-4.694c5.615-1.094,11.257-2.06,16.842-3.286
		c2.041-0.448,4.117-1.284,4.608-3.811c2.354,0.992,4.125,2.749,5.891,4.508c1.657,1.651,3.364,3.216,5.727,3.797
		c0.06,0.277,0.162,0.537,0.306,0.781c0.127,0.555,0.46,0.891,1.034,0.967c6.276,6.085,13.305,11.28,20.219,16.563
		c23.081,17.638,46.947,34.176,71.428,49.814c12.09,7.723,24.446,15.009,36.982,21.989c5.49,3.057,10.954,6.16,16.448,9.208
		c0.56,0.311,1.247,0.391,1.875,0.578c10.977,6.73,22.591,12.242,34.172,17.809c7.725,3.713,15.488,7.353,23.31,10.856
		c16.818,7.531,33.845,14.564,51.093,21.057c0.448,0.169,0.981,0.11,1.474,0.157c0.894,0.827,2.337,0.788,3.037,1.922
		c-2.005,0.042-4.01,0.084-6.015,0.126c-9.987,0.22-19.874-1.083-29.805-1.785c-5.128-0.362-10.245-0.889-15.365-1.308
		c-7.411-0.607-14.777-1.746-22.17-2.59c-5.585-0.637-11.135-1.585-16.706-2.221c-7.397-0.845-14.719-2.157-22.023-3.424
		c-11.189-1.94-22.342-4.159-33.466-6.518c-16.272-3.451-32.411-7.369-48.473-11.655c-27.019-7.21-53.467-16.143-79.556-26.188
		c-37.661-14.502-74.073-31.628-109.406-51.134c-13.123-7.245-25.907-15.037-38.844-22.58
		C402.68,1589.32,402.327,1588.68,401.886,1588.191z"/>
	<path style="fill:#1C8ECE;" d="M553.983,158.985c8.132-5.967,15.609-12.753,23.556-18.942c9.867-7.684,19.811-15.269,30.057-22.466
		c11.088-7.788,21.967-15.874,33.397-23.17c3.333-2.128,6.691-4.217,10.038-6.324c0.003,1.634-0.156,3.15,1.119,4.65
		c5.968,7.025,11.386,14.484,16.972,21.814c10.214,13.401,18.955,27.722,26.825,42.563c4.714,8.89,9.267,17.878,13.231,27.168
		c3.419,8.012,6.883,16.007,9.765,24.215c5.913,16.842,11.108,33.878,14.234,51.527c1.768,9.984,3.896,19.88,4.994,29.993
		c0.355,3.266,0.376,6.585,0.948,9.803c1.153,6.499,1.75,13.078,1.766,19.61c0.034,14.259,0.643,28.525-0.718,42.796
		c-0.483,5.059-0.965,10.183-1.379,15.264c-0.674,8.285-2.324,16.507-3.844,24.703c-1.579,8.511-3.099,17.066-5.358,25.408
		c-2.95,10.891-6.14,21.725-10.003,32.36c-6.186,17.028-13.357,33.579-21.76,49.643c-7.88,15.065-16.529,29.631-26.443,43.426
		c-8.278,11.52-16.912,22.767-26.838,32.961c-2.765,2.84-4.933,6.211-7.845,8.957c-1.016,0.958-1.747,2.416-1.679,4.018
		c-1.827,0.054-3.654,0.156-5.481,0.156c-42.606,0.004-85.211-0.003-127.817-0.008c-1.661,0-3.323,0-5.027,0
		c-0.072,1.44,0.939,2.168,1.835,2.66c8.419,4.623,14.407,18.254,11.953,29.492c-1.981,9.075-5.172,17.76-7.858,26.605
		c-4.511,14.858-9.239,29.649-13.896,44.462c-0.087,0.276-0.435,0.47-0.661,0.702c-1.642,0.08-3.263-0.202-4.924,0.353
		c-11.017,3.683-22.18,6.878-33.544,9.293c-12.318,2.619-24.677,4.979-37.211,6.461c-3.44,0.407-6.964,0.277-10.289,1.023
		c-6.164,1.382-12.488,1.542-18.623,1.608c-14.413,0.153-28.837,0.838-43.293-0.586c-9.641-0.95-19.26-2.016-28.89-3.021
		c-7.202-0.752-14.324-2.038-21.328-3.459c-12.954-2.629-25.844-5.791-38.439-9.938c-3.137-1.033-6.273-1.948-9.619-1.819
		c0.18-7.445,2.155-14.608,3.555-21.849c2.925-15.125,6.771-30.047,10.221-45.054c3.158-13.736,7.271-27.155,11.147-40.665
		c3.625-12.636,7.873-25.067,12.147-37.491c1.602-4.657,3.299-9.282,4.953-13.922c1.112-5.291,2.998-10.423,5.339-15.167
		c3.635-7.363,6.072-15.181,9.57-22.577c3.159-6.68,5.754-13.624,8.825-20.348c5.335-11.68,10.844-23.281,16.28-34.915
		c5.488-10.587,11.021-21.147,16.84-31.561c7.752-13.875,15.612-27.676,24.089-41.128c7.765-12.323,15.569-24.615,23.816-36.625
		c11.814-17.205,24.308-33.892,37.281-50.243c9.69-12.213,19.618-24.207,29.919-35.909c6.367-7.232,12.891-14.309,19.41-21.402
		c10.478-11.401,21.214-22.561,32.453-33.186c9.629-9.103,19.129-18.377,29.402-26.794c3.082-2.525,6.061-5.235,8.735-8.18
		C548.317,163.25,551.51,161.558,553.983,158.985z"/>
	<path style="fill:#1F7DC1;" d="M241.904,702.946c3.346-0.129,6.482,0.786,9.619,1.819c12.595,4.147,25.485,7.309,38.439,9.938
		c7.005,1.422,14.126,2.708,21.328,3.459c9.63,1.005,19.249,2.071,28.89,3.021c14.456,1.424,28.879,0.739,43.293,0.586
		c6.136-0.065,12.46-0.226,18.623-1.608c3.326-0.746,6.85-0.616,10.289-1.023c12.533-1.483,24.892-3.843,37.211-6.461
		c11.364-2.416,22.527-5.61,33.544-9.293c1.66-0.555,3.282-0.273,4.924-0.353c-1.831,8.075-4.667,15.851-7.133,23.734
		c-10.918,34.89-21.919,69.754-32.871,104.633c-0.199,0.635-0.261,1.296-0.874,1.699c-1.698-0.319-1.911-2.183-3.537-3.341
		c-6.354,1.578-13.235,1.873-20.027,2.906c-8.128,1.237-16.368,1.307-24.541,2.213c-7.036,0.78-14.165,0.353-21.286,0.946
		c-15.729,1.309-31.481-1.026-47.246-0.828c-0.498,0.006-1.048,0.085-1.488-0.088c-5.207-2.04-10.758-0.654-16.155-1.625
		c-4.253-0.765-8.884-0.851-13.211-1.495c-7.908-1.178-15.872-2.085-23.731-3.712c-10.393-2.151-20.777-4.324-31.149-6.577
		c-5.26-1.142-10.192-3.813-15.769-3.486c-0.338-9.932,1.073-19.753,1.719-29.624c0.356-5.434,0.879-10.859,1.307-16.283
		c0.595-7.526,1.699-15.011,2.59-22.513c0.407-3.426,0.804-6.854,1.237-10.276c1.111-8.791,2.28-17.56,3.894-26.281
		C240.42,709.648,240.699,706.208,241.904,702.946z"/>
	<path style="fill:#1F72B9;" d="M229.045,818.011c5.577-0.327,10.509,2.344,15.769,3.486c10.372,2.252,20.756,4.425,31.149,6.577
		c7.859,1.627,15.824,2.534,23.731,3.712c4.327,0.644,8.958,0.73,13.211,1.495c5.396,0.971,10.948-0.415,16.155,1.625
		c0.44,0.173,0.99,0.094,1.488,0.088c15.765-0.198,31.517,2.137,47.246,0.828c7.121-0.593,14.25-0.166,21.286-0.946
		c8.173-0.905,16.413-0.976,24.541-2.213c6.792-1.033,13.673-1.328,20.027-2.906c1.626,1.158,1.839,3.023,3.537,3.341
		c-3.477,11.5-6.876,23.024-10.448,34.495c-9.582,30.768-19.237,61.514-28.885,92.262c-0.136,0.435-0.568,0.777-0.862,1.162
		c-8.763-0.09-17.502,0.559-26.245,0.828c-16.883,0.519-33.791,0.26-50.681-0.758c-6.082-0.367-12.111-1.786-18.255-1.101
		c-0.323,0.036-0.677,0.003-0.989-0.091c-4.92-1.482-10.064-1.219-15.092-1.77c-3.907-0.428-7.797-1.086-11.748-1.353
		c-5.829-0.395-11.559-2.118-17.388-2.671c-5.403-0.512-10.592-1.952-15.909-2.799c-5.955-0.949-11.867-2.17-17.797-3.273
		c-1.319-3.519-1.926-7.27-1.836-10.912c0.247-9.963-0.955-19.853-1.423-29.761c-0.344-7.27-0.541-14.542-0.67-21.812
		c-0.237-13.419-1.156-26.812-1.042-40.25C227.992,836.173,228.634,827.102,229.045,818.011z"/>
	<path style="fill:#2160AD;" d="M232.886,948.027c5.93,1.103,11.842,2.324,17.797,3.273c5.316,0.847,10.505,2.287,15.909,2.799
		c5.829,0.552,11.559,2.276,17.388,2.671c3.951,0.268,7.841,0.925,11.748,1.353c5.028,0.551,10.172,0.288,15.092,1.77
		c0.312,0.094,0.666,0.127,0.989,0.091c6.145-0.685,12.173,0.735,18.255,1.101c16.89,1.018,33.798,1.276,50.681,0.758
		c8.743-0.268,17.483-0.918,26.245-0.828c-0.66,4.267-2.364,8.226-3.842,12.223c-2.543,6.877-4.613,13.931-6.596,20.939
		c-6.796,24.014-14.954,47.595-22.042,71.506c-1.622,5.471-3.482,10.646-6.49,15.44c-1.656,2.64-4.421,4.381-5.85,7.207
		c-0.246-0.651-0.643-1.191-1.369-1.263c-0.825-0.082-1.665-0.106-2.492-0.056c-12.113,0.728-24.152-0.991-36.245-1.209
		c-8.668-0.156-17.405-0.997-26.06-1.915c-9.125-0.968-18.26-1.897-27.369-2.996c-4.531-0.547-9.011-1.604-13.594-1.885
		c-2.005-4.72-2.771-9.793-3.909-14.729c-2.511-10.893-4.718-21.86-6.809-32.843c-1.631-8.567-2.946-17.195-4.319-25.809
		c-1.682-10.546-3.576-21.072-4.761-31.676c-0.455-4.071-1.139-8.164-1.239-12.295c-0.03-1.241,0.562-2.708-0.826-3.676
		c-0.051-0.66-0.102-1.319-0.153-1.979c-0.042-1.01-0.084-2.019-0.126-3.029C232.894,951.322,232.89,949.675,232.886,948.027z"/>
	<path style="fill:#29ACE0;" d="M232.899,952.97c0.042,1.01,0.084,2.019,0.126,3.029c-0.999-0.02-1.955-0.097-2.003-1.441
		C230.974,953.231,231.873,953.027,232.899,952.97z"/>
	<path style="fill:#1F7DC1;" d="M635.015,598.961c-0.068-1.602,0.663-3.059,1.679-4.018c2.912-2.746,5.08-6.117,7.845-8.957
		c9.926-10.194,18.56-21.441,26.838-32.961c9.914-13.796,18.563-28.362,26.443-43.426c8.403-16.063,15.574-32.615,21.76-49.643
		c3.863-10.635,7.053-21.469,10.003-32.36c2.26-8.342,3.78-16.897,5.358-25.408c1.521-8.196,3.17-16.418,3.844-24.703
		c0.413-5.08,0.896-10.205,1.379-15.264c1.361-14.271,0.752-28.537,0.718-42.796c-0.016-6.533-0.613-13.112-1.766-19.61
		c-0.571-3.218-0.593-6.537-0.948-9.803c-1.098-10.112-3.226-20.009-4.994-29.993c-3.126-17.649-8.321-34.685-14.234-51.527
		c-2.882-8.208-6.346-16.203-9.765-24.215c-3.964-9.29-8.517-18.278-13.231-27.168c-7.87-14.84-16.611-29.162-26.825-42.563
		c-5.586-7.329-11.005-14.789-16.972-21.814c-1.275-1.501-1.115-3.016-1.119-4.65c8.26-5.153,16.521-10.304,24.778-15.462
		c1.4-0.874,2.78-1.78,4.169-2.671c12.272-6.757,24.468-13.658,36.84-20.225c9.618-5.105,19.456-9.793,29.197-14.667
		c-0.76,3.757,1.673,6.405,3.625,8.898c7.82,9.989,15.096,20.339,21.923,31.025c5.232,8.189,10.132,16.566,14.988,24.981
		c5.628,9.752,10.391,19.931,15.381,29.994c6.503,13.115,11.743,26.782,16.827,40.502c6.322,17.063,11.436,34.49,15.534,52.208
		c2.208,9.546,4.259,19.119,5.882,28.804c1.213,7.24,2.134,14.545,3.699,21.739c0.657,3.02,0.692,6.25,0.857,9.295
		c0.277,5.114,0.986,10.188,1.393,15.271c1.7,21.252,0.797,42.523,0.671,63.774c-0.038,6.469-0.356,13.109-1.608,19.623
		c-0.736,3.83-0.538,7.841-1.085,11.785c-1.415,10.209-2.929,20.384-4.725,30.541c-2.196,12.417-5.145,24.626-8.322,36.804
		c-3.808,14.596-8.506,28.89-13.656,43.074c-6.473,17.828-14.022,35.173-22.652,52.017c-6.38,12.452-13.18,24.713-20.959,36.391
		c-2.46,3.693-4.597,7.6-6.882,11.41c-5.95-0.477-11.759-1.901-17.71-2.489c-6.597-0.652-13.178-1.557-19.808-1.572
		c-29.629-0.07-59.258-0.038-88.887-0.051C638.672,599.081,636.844,599.003,635.015,598.961z"/>
	<path style="fill:#1F72B9;" d="M721.8,670.029c2.507,4.79,3.3,10.073,4.088,15.294c1.959,12.966,0.604,25.804-1.612,38.647
		c-3.45,19.994-9.008,39.396-16.32,58.263c-9.402,24.263-22.33,46.445-41.383,64.492c-16.783,15.897-36.602,26.282-59.5,30.243
		c-12.542,2.17-25.167,1.864-37.757,0.054c-1.342-0.193-2.589-0.531-3.864-1.527c3.177-10.005,6.396-20.06,9.561-30.131
		c8.438-26.854,16.851-53.716,25.288-80.57c0.198-0.629,0.565-1.205,0.854-1.805c14.977-7.954,29.143-17.229,43.084-26.831
		c10.418-7.175,20.509-14.803,30.193-22.984c7.813-6.601,15.863-12.914,23.083-20.189c1.64-1.653,3.141-3.49,4.97-4.899
		c5.797-4.467,10.968-9.51,15.385-15.358C718.811,671.485,719.795,669.903,721.8,670.029z"/>
	<path style="fill:#1F7DC1;" d="M721.8,670.029c-2.005-0.126-2.989,1.456-3.928,2.699c-4.418,5.849-9.589,10.891-15.385,15.358
		c-1.829,1.41-3.33,3.247-4.97,4.899c-7.219,7.275-15.27,13.588-23.083,20.189c-9.683,8.181-19.774,15.808-30.193,22.984
		c-13.941,9.602-28.107,18.878-43.084,26.831c2.195-8.642,5.166-17.046,7.845-25.539c9.991-31.671,19.999-63.336,30.011-95
		c0.345-1.092,0.799-2.15,1.148-3.081c1.362-0.969,2.737-0.604,4.025-0.598c10.475,0.05,20.962-0.122,31.422,0.314
		c9.344,0.39,18.34,2.701,26.507,7.447C711.475,651.972,718.152,659.757,721.8,670.029z"/>
	<path style="fill:#2160AD;" d="M507.246,1093.008c0.505,0.155,0.738,0.508,0.745,1.025
		C507.49,1093.874,507.121,1093.62,507.246,1093.008z"/>
	<path style="fill:#1A4CA0;" d="M1082.122,820.299c-2.643,10.051-5.192,20.129-7.97,30.143c-1.248,4.499-1.675,9.161-2.944,13.623
		c-1.557,5.474-1.829,11.171-2.799,16.717c-0.704,4.023-0.911,8.442-1.488,12.556c-0.876,6.242-0.345,12.476-1.086,18.666
		c-0.823,0.509-0.818,1.314-0.817,2.151c0.008,7.23,0.004,14.46-0.009,21.69c-0.001,0.837,0.004,1.642,0.816,2.159
		c0.488,15.847,2.623,31.492,5.766,47.014c-2.439-0.462-3.543,1.457-4.909,2.82c-15.889,15.86-31.758,31.741-47.636,47.613
		c-1.058,1.057-1.976,2.456-3.258,3.041c-2.225,1.016-3.058,2.878-3.934,4.836c-5.565-3.751-9.846-8.863-14.759-13.75
		c1.168-2.638,3.308-4.468,5.163-6.492c14.37-15.689,26.137-33,33.261-53.217c4.654-13.207,7.138-26.862,8.448-40.761
		c-1.024-2.121-2.942-1.068-4.412-1.078c-13.136-0.089-26.274-0.034-39.411-0.078c-1.615-0.005-3.318,0.467-4.951-0.542
		c-0.333-2.368,0.873-4.122,2.501-5.572c5.589-4.977,10.253-10.831,15.178-16.399c5.004-5.657,9.818-11.525,14.726-17.273
		c6.525-7.642,12.597-15.635,18.987-23.375c5.745-6.96,11.04-14.302,16.328-21.624c5.478-7.584,10.801-15.286,15.978-23.079
		c1.118-1.683,2.257-2.23,4.042-2.079c-0.056,0.335-0.113,0.67-0.169,1.006C1082.191,819.265,1082.013,819.71,1082.122,820.299z"/>
	<path style="fill:#1F4498;" d="M1011.854,1043.329c0.877-1.958,1.709-3.821,3.934-4.836c1.282-0.585,2.201-1.984,3.258-3.041
		c15.878-15.872,31.746-31.753,47.636-47.613c1.366-1.363,2.47-3.283,4.909-2.82c4.292,17.965,10.246,35.295,19.468,51.398
		c6.908,12.062,15.389,22.881,25.474,32.434c7.622,7.22,15.806,13.761,25.274,18.375c12.786,6.231,25.892,11.649,39.522,15.918
		c12.19,3.818,24.612,6.107,37.169,7.992c0.624,0.094,1.205,0.471,1.806,0.717c-0.96,0.184-1.703,0.401-2.418,1.375
		c-7.391,10.065-16.899,18.211-25.278,27.39c-9.733,10.661-20.219,20.656-30.94,30.395c-8.826,8.019-17.431,16.285-26.303,24.27
		c-7.988,7.189-16.098,14.222-24.3,21.157c-6.678,5.647-13.154,11.554-20.059,16.908c-11.049,8.568-22.067,17.178-33.272,25.554
		c-21.359,15.966-43.15,31.264-65.599,45.674c-15.94,10.232-32.104,20.046-48.437,29.628c-13.09,7.679-26.299,15.144-39.719,22.19
		c-19.174,10.067-38.63,19.603-58.292,28.698c-6.277,2.904-12.552,5.827-18.929,8.499c-10.603,4.443-21.309,8.638-31.932,13.033
		c-15.172,6.278-30.518,12.082-46.017,17.504c-22.129,7.741-44.461,14.84-66.96,21.407c-11.458,3.345-22.99,6.449-34.553,9.416
		c-9.809,2.517-19.688,4.779-29.577,6.968c-8.296,1.836-16.672,3.308-24.973,5.12c-7.677,1.676-15.468,2.72-23.15,4.28
		c-9.308,1.889-18.69,3.201-28.052,4.692c-5.183,0.825-10.455,1.255-15.566,2.244c-6.127,1.186-12.318,1.832-18.461,2.581
		c-7.489,0.913-14.968,2.258-22.581,2.257c-2.234,0-4.429,1.115-6.804,0.982c-0.977-0.055-1.764,0.832-2.104,1.871
		c-4.562-4.793-9.248-9.476-13.654-14.408c-5.409-6.056-10.551-12.349-15.869-18.488c-7.381-8.52-14.47-17.278-21.523-26.069
		c-10.851-13.525-20.978-27.587-31.091-41.659c-3.363-4.679-6.619-9.438-9.813-14.234c-0.844-1.268-1.631-2.474-3.033-3.152
		c-4.233-6.978-8.439-13.972-12.704-20.931c-7.388-12.055-14.884-24.048-21.544-36.529c-2.022-3.788-4.697-7.231-6.052-11.372
		c1.9-1.397,4.106-1.046,6.245-1.105c19.753-0.55,39.509,0.71,59.284-0.819c11.332-0.876,22.726-1.163,34.089-1.973
		c5.909-0.421,11.8-1.714,17.78-1.217c0.658,0.055,1.399,0.126,1.983-0.107c4.227-1.693,8.784-1.155,13.14-1.675
		c6.836-0.816,13.675-1.803,20.555-2.412c7.788-0.689,15.472-2.517,23.214-3.776c8.72-1.418,17.535-2.375,26.163-4.212
		c14.851-3.161,29.738-6.164,44.505-9.743c20.664-5.007,41.251-10.301,61.506-16.748c27.048-8.61,53.869-17.859,80.083-28.851
		c13.646-5.723,27.458-11.124,40.737-17.602c27.756-13.539,55.552-27.04,82.12-42.882c12.866-7.671,25.63-15.495,38.192-23.655
		c10.901-7.081,21.504-14.588,32.179-22.001c15.256-10.595,29.817-22.078,44.512-33.399c3.639,2.622,6.799,5.81,10.221,8.67
		c4.768,3.985,9.49,8.126,15.35,10.656c1.315,0.567,2.493,0.737,3.777,0.737c39.973,0.01,79.946,0,119.919-0.014
		c0.326,0,0.653-0.099,1.52-0.239c-3.114-1.257-5.8-2.334-8.48-3.424c-31.424-12.785-60.104-30.277-86.964-50.855
		C1018.697,1049.638,1014.917,1046.881,1011.854,1043.329z"/>
	<path style="fill:#1A4CA0;" d="M967.032,1086.925c-14.696,11.32-29.256,22.804-44.512,33.399
		c-10.675,7.413-21.278,14.92-32.179,22.001c-12.561,8.16-25.326,15.984-38.192,23.655c-26.568,15.842-54.364,29.343-82.12,42.882
		c-13.279,6.478-27.091,11.879-40.737,17.602c-26.214,10.993-53.035,20.241-80.083,28.851
		c-20.255,6.447-40.842,11.741-61.506,16.748c-14.767,3.578-29.653,6.582-44.505,9.743c-8.629,1.837-17.443,2.793-26.163,4.212
		c-7.741,1.259-15.426,3.087-23.214,3.776c-6.88,0.609-13.719,1.596-20.555,2.412c-4.356,0.52-8.912-0.018-13.14,1.675
		c-0.583,0.234-1.325,0.162-1.983,0.107c-5.981-0.497-11.871,0.795-17.78,1.217c-11.363,0.81-22.757,1.097-34.089,1.973
		c-19.775,1.529-39.531,0.269-59.284,0.819c-2.14,0.06-4.345-0.292-6.245,1.105c-3.606-4.393-5.763-9.65-8.358-14.599
		c-10.622-20.261-20.432-40.927-29.455-61.949c-3.188-7.427-6.771-14.717-9.015-22.53c4.69-1.217,9.377-1.809,14.104-0.127
		c0.599,0.213,1.323,0.057,1.987,0.106c16.912,1.253,33.853,0.981,50.789,0.996c10.83,0.009,21.664-0.189,32.489,0.059
		c9.467,0.217,18.839-1.111,28.293-1.273c8.01-0.137,16.104-0.994,24.084-1.961c7.637-0.926,15.32-1.587,22.955-2.579
		c6.325-0.822,12.673-1.799,19.057-2.394c8.615-0.802,17.149-2.549,25.688-4.054c6.267-1.104,12.464-2.604,18.733-3.694
		c11.121-1.934,22.084-4.565,33.077-7.086c15.147-3.473,30.097-7.667,45.024-11.96c15.924-4.58,31.578-10.011,47.237-15.378
		c13.812-4.734,27.421-10.09,40.9-15.751c21.469-9.017,42.45-19.053,63.136-29.721c1.536-0.792,3.676-0.99,3.625-3.46
		c0.653,0.308,1.307,0.617,1.96,0.926c0.029,0.772-0.257,1.653,0.935,2.194c0.576-0.248,1.295-0.557,2.014-0.867
		c8.278,2.859,16.491,5.888,25.17,7.444c15.13,2.712,30.299,3.553,45.612,1.841c31.953-3.571,60.569-16.169,87.942-32.219
		c6.426-3.768,12.665-7.822,19.023-12.178C954.212,1074.932,960.622,1080.928,967.032,1086.925z"/>
	<path style="fill:#1E56A7;" d="M862.446,919.221c12.01,44.172,31.166,84.546,57.992,121.469c-0.902,1.772-2.917,2.359-4.617,3.219
		c-15.597,7.887-31.739,14.351-48.979,17.607c-17.223,3.252-34.035,2.5-49.921-5.983c-14.923-7.969-22.905-20.785-25.786-37.014
		c-2.029-11.433-1.723-22.822,2.241-33.923c3.917-10.968,10.135-20.575,17.913-29.096c13.964-15.299,30.666-26.922,49.418-35.643
		C861.151,919.651,861.63,919.517,862.446,919.221z"/>
	<path style="fill:#2160AD;" d="M922.237,855.218c-1.565-10.568-1.328-20.641-0.486-30.799c1.077-12.998,3.57-25.622,8.254-37.78
		c4.951-12.853,11.576-24.668,21.89-34.097c5.766-5.27,12.3-9.043,20.123-10.253c9.431-1.459,20.962,2.707,22.368,15.682
		c0.705,6.502-0.25,12.547-2.114,18.603c-4.284,13.919-12.213,25.777-21.4,36.814c-12.096,14.53-25.867,27.285-41.633,37.807
		c-1.244,0.83-2.492,1.66-3.778,2.422C924.616,854.118,923.699,854.5,922.237,855.218z"/>
	<path style="fill:#1E56A7;" d="M770.005,1103.999c-0.719,0.309-1.438,0.619-2.014,0.867c-1.192-0.541-0.906-1.422-0.935-2.194
		C768.135,1102.901,769.324,1102.886,770.005,1103.999z"/>
	<path style="fill:#253E8E;" d="M476.029,1485.944c0.34-1.04,1.127-1.926,2.104-1.871c2.375,0.133,4.57-0.982,6.804-0.982
		c7.613,0.001,15.092-1.344,22.581-2.257c6.142-0.749,12.333-1.395,18.461-2.581c5.11-0.989,10.383-1.419,15.566-2.244
		c9.362-1.491,18.744-2.803,28.052-4.692c7.682-1.559,15.473-2.604,23.15-4.28c8.301-1.812,16.678-3.284,24.973-5.12
		c9.889-2.189,19.767-4.451,29.577-6.968c11.562-2.966,23.095-6.071,34.553-9.416c22.499-6.568,44.831-13.666,66.96-21.407
		c15.499-5.422,30.845-11.226,46.017-17.504c10.623-4.396,21.329-8.59,31.932-13.033c6.377-2.672,12.651-5.595,18.929-8.499
		c19.662-9.095,39.118-18.632,58.292-28.698c13.42-7.046,26.629-14.511,39.719-22.19c16.333-9.582,32.497-19.396,48.437-29.628
		c22.449-14.411,44.24-29.708,65.599-45.674c11.204-8.375,22.222-16.986,33.272-25.554c6.905-5.354,13.381-11.261,20.059-16.908
		c8.202-6.935,16.312-13.968,24.3-21.157c8.873-7.985,17.477-16.251,26.303-24.27c10.72-9.739,21.207-19.734,30.94-30.395
		c8.379-9.179,17.887-17.324,25.278-27.39c0.715-0.973,1.458-1.19,2.418-1.375c6.769,0.562,13.533,1.176,20.307,1.674
		c12.44,0.915,24.912,0.917,37.333,0.081c10.234-0.689,20.441-1.887,30.617-3.388c11.313-1.669,22.373-4.401,33.505-6.863
		c0.956-0.211,1.957-0.22,2.937-0.323c-0.224,3.011-2.252,5.171-3.952,7.277c-6.837,8.469-14.016,16.662-20.904,25.092
		c-8.049,9.851-16.314,19.498-24.838,28.949c-6.207,6.882-12.5,13.696-18.612,20.65c-7.591,8.636-16.105,16.33-23.844,24.781
		c-2.674,2.92-4.924,6.302-8.007,8.796c-8.822,7.138-16.107,15.858-24.465,23.45c-7.6,6.903-15.261,13.731-22.767,20.742
		c-7.359,6.873-15.083,13.362-22.787,19.853c-6.928,5.838-14.195,11.278-21.051,17.196c-15.352,13.252-31.698,25.234-47.79,37.529
		c-9.926,7.584-20.377,14.48-30.559,21.731c-10.861,7.734-22.009,15.037-33.185,22.3c-12.562,8.165-25.253,16.12-38.222,23.628
		c-11.975,6.932-23.869,14.006-35.858,20.915c-4.573,2.635-9.275,5.055-13.98,7.451c-14.293,7.276-28.289,15.141-42.844,21.893
		c-15.399,7.144-30.653,14.588-46.264,21.292c-14.958,6.424-29.913,12.857-45.044,18.851c-12.811,5.075-25.768,9.794-38.745,14.435
		c-11.428,4.088-22.894,8.105-34.484,11.697c-20.006,6.2-40.003,12.424-60.325,17.592c-11.885,3.022-23.728,6.211-35.678,8.983
		c-12.094,2.805-24.161,5.713-36.382,7.964c-9.474,1.745-18.829,4.158-28.328,5.729c-5.975,0.988-11.903,2.301-17.897,3.021
		c-2.121,0.255-3.123,1.402-4.517,2.384c-2.363-0.581-4.071-2.146-5.727-3.797c-1.765-1.759-3.537-3.516-5.891-4.508
		c-3.408-3.122-6.777-6.288-10.235-9.354c-4.457-3.951-9.04-7.76-13.475-11.735c-17.084-15.313-32.911-31.91-49.083-48.155
		C478.107,1488.504,476.661,1487.568,476.029,1485.944z"/>
	<path style="fill:#253E8E;" d="M565.012,1568.96c-0.574-0.077-0.907-0.412-1.034-0.967
		C564.535,1568.089,564.883,1568.408,565.012,1568.96z"/>
	<path style="fill:#1E56A7;" d="M1132.899,719.975c0.016,0.634-0.34,0.977-0.906,1.156
		C1132.039,720.544,1132.328,720.149,1132.899,719.975z"/>
	<path style="fill:#1F4498;" d="M1372.006,844.833c-13.661,0.057-27.322,0.114-40.983,0.169c-1.783,0.007-3.565,0.001-5.44,0.289
		c4.659,2.618,9.308,5.051,13.219,8.714c10.869,10.178,13.675,22.447,9.382,36.387c-7.363,23.913-14.959,47.755-22.458,71.627
		c-11.322,36.042-22.643,72.084-33.977,108.123c-0.147,0.469-0.45,0.89-0.84,1.642c-18.178,3.865-36.48,3.924-54.317-2.249
		c-22.138-7.662-35.933-23.782-43.536-45.52c-4.473-12.791-6.619-26.044-7.105-39.568c-0.329-9.163-0.469-18.337,0.084-27.488
		c0.853-14.114,2.82-28.104,5.323-42.017c5.383-29.929,13.529-59.164,22.905-88.031c7.338-22.594,17.255-44.157,28.518-65.089
		c12.97-24.104,27.924-46.856,46.307-67.197c20.099-22.24,43.152-40.416,71.587-51.071c18.414-6.9,37.442-9.136,56.871-7.331
		c9.35,0.869,18.787,2.247,27.452,6.349c1.378,0.652,3.094-0.495,4.102,1.1c-0.098,3.512-1.537,6.733-2.535,9.983
		c-5.002,16.289-10.049,32.574-15.615,48.676c-6.967,20.158-14.256,40.209-22.535,59.884c-5.039,11.975-9.907,24.014-15.347,35.825
		c-4.9,10.64-9.754,21.292-14.93,31.804c-1.958,3.978-3.561,8.155-5.632,12.096C1372.005,842.896,1372.031,843.845,1372.006,844.833
		z"/>
	<path style="fill:#1F72B9;" d="M1065.824,938.004c-0.812-0.516-0.817-1.322-0.816-2.159c0.013-7.23,0.017-14.46,0.009-21.69
		c-0.001-0.837-0.006-1.642,0.817-2.151C1065.831,920.671,1065.828,929.338,1065.824,938.004z"/>
	<path style="fill:#1E56A7;" d="M1082.122,820.299c-0.109-0.589,0.069-1.035,0.641-1.284
		C1082.89,819.614,1082.662,820.035,1082.122,820.299z"/>
</g>
</svg>
