<?xml version="1.0" encoding="iso-8859-1"?>
<!-- Generator: Adobe Illustrator 27.0.0, SVG Export Plug-In . SVG Version: 6.00 Build 0)  -->
<svg version="1.1" id="Layer_1" xmlns="http://www.w3.org/2000/svg" xmlns:xlink="http://www.w3.org/1999/xlink" x="0px" y="0px"
	 viewBox="0 0 1494 417.224" style="enable-background:new 0 0 1494 417.224;" xml:space="preserve">
<g>
	<path style="fill:#8DB9DC;" d="M0.879,264.399c0,0-0.446,0.009-0.446,0.009L0,264.301c0-87.667,0-175.333,0-263
		c1.063,0.042,2.126,0.084,3.19,0.126C1.511,2.981,0.956,4.82,0.958,7.173c0.075,83.748,0.077,167.496,0.08,251.244
		C1.039,260.411,0.934,262.405,0.879,264.399z"/>
	<path style="fill:#7893AB;" d="M0,324.301c0.44,0.216,0.881,0.431,1.321,0.647c-0.076,1.818-0.218,3.636-0.219,5.455
		c-0.016,23.021-0.18,46.043,0.768,69.054c0.211,5.126-0.402,10.273,0.365,15.386c-0.745,0.153-1.49,0.306-2.235,0.458
		C0,384.967,0,354.634,0,324.301z"/>
	<path style="fill:#A8C4E2;" d="M3.19,1.427C2.126,1.385,1.063,1.343,0,1.301c0.08-2.217,1.753-0.928,2.5-0.93
		c26.333-0.083,52.666-0.07,79-0.07c8.167,0,16.333,0,24.5,0c0.022,0.323,0.03,0.646,0.023,0.97
		c-2.162,0.027-4.325,0.076-6.487,0.078C67.42,1.378,35.305,1.402,3.19,1.427z"/>
	<path style="fill:#A8C4E2;" d="M1492.945,236.348c0.352-0.016,0.703-0.032,1.055-0.048c0,9.667,0,19.333,0,29
		c-0.278,0.067-0.559,0.095-0.844,0.083C1493.086,255.705,1493.016,246.027,1492.945,236.348z"/>
	<path style="fill:#A8C4E2;" d="M737.108,1.441c-0.036-0.38-0.072-0.76-0.108-1.141c9.333,0,18.667,0,28,0
		c-0.1,0.432-0.2,0.863-0.3,1.295C755.503,1.544,746.306,1.493,737.108,1.441z"/>
	<path style="fill:#A8C4E2;" d="M222.972,1.262c-0.002-0.321,0.007-0.641,0.028-0.961c8.667,0,17.333,0,26,0
		c0,0.337-0.001,0.674-0.001,1.011C240.323,1.295,231.648,1.279,222.972,1.262z"/>
	<path style="fill:#2676B9;" d="M1262.542,87.201c2.254-0.532,4.155-1.534,6.006-2.667c12.201-7.474,25.4-12.556,39.6-13.855
		c22.059-2.018,43.217,1.286,61.668,14.638c12.911,9.342,20.777,22.163,24.205,37.755c2.347,10.674,1.828,21.504,2.083,32.294
		c0.263,11.14,0.896,22.298,0.533,33.42c-0.783,23.975-0.347,47.948-0.523,71.921c-0.011,1.486,0.155,3.005-0.486,4.105
		c-1.411,1.812-3.187,1.561-4.807,1.567c-5.998,0.025-11.998,0.026-17.994-0.104c-4.617-0.1-6.149-1.502-7.195-5.972
		c-0.615-2.627-0.511-5.29-0.512-7.946c-0.012-30.998-0.001-61.997-0.013-92.995c-0.003-6.665-0.02-13.332-0.126-19.996
		c-0.093-5.869-1.291-11.566-3.549-16.959c-5.574-13.308-16.194-20.44-29.911-22.894c-16.349-2.925-32.067-0.473-46.822,7.375
		c-3.651,1.942-3.922,2.242-5.612,5.495c2.415,6.722,4.396,13.709,5.386,20.975c0.385,2.826,0.512,5.631,0.514,8.45
		c0.024,39.331,0.016,78.663,0.015,117.994c0,1-0.004,2-0.024,2.999c-0.044,2.191-1.111,3.455-3.356,3.471
		c-7.663,0.055-15.326,0.075-22.989,0.101c-2.152,0.007-3.248-1.254-3.997-3.139c-0.712-1.791-0.512-3.613-0.509-5.426
		c0.029-18.164,0.145-36.328,0.125-54.493c-0.023-20.83-0.101-41.66-0.286-62.489c-0.052-5.827-1.155-11.551-3.013-17.091
		c-4.986-14.86-15.821-22.252-30.902-24.559c-13.609-2.081-26.792,0.052-39.925,3.254c-1.285,0.313-2.594,0.68-3.767,1.269
		c-2.048,1.029-3.427,2.614-3.358,5.105c0.032,1.166,0.003,2.333,0.003,3.5c0,48.164,0.001,96.328-0.001,144.492
		c0,9.452-0.125,9.58-9.351,9.615c-5.164,0.02-10.328,0.024-15.492,0c-4.661-0.021-5.979-1.286-6.155-5.826
		c-0.032-0.832-0.005-1.666-0.005-2.5c0-53.997,0-107.994,0-161.992c0-0.667,0.008-1.333-0.001-2
		c-0.073-5.223,2.253-8.825,7.089-10.922c8.546-3.706,17.382-6.55,26.412-8.736c12.81-3.101,25.823-4.743,39.021-3.987
		c15.329,0.878,29.876,4.331,42.41,13.872C1258.51,85.523,1260.135,86.713,1262.542,87.201z"/>
	<path style="fill:#2676B9;" d="M3.19,1.427C35.305,1.402,67.42,1.378,99.536,1.349c2.162-0.002,4.325-0.051,6.487-0.078
		c4.261,1.732,8.852,1.077,13.273,1.764c32.835,5.104,56.768,27.253,64.5,60.302c1.359,5.808,2.041,11.739,2.335,17.737
		c0.504,10.297,0.318,20.505-1.996,30.603c-7.367,32.138-26.708,52.659-58.917,60.609c-11.203,2.766-22.662,3.134-34.138,3.133
		c-16.319-0.001-32.637,0.022-48.956-0.021c-2.851-0.008-5.635,0.196-8.513,1.217c-1.279,2.183-0.853,4.723-0.856,7.16
		c-0.033,24.977-0.025,49.955-0.013,74.932c0.001,2.33,0.128,4.664-1.2,6.538c-1.229,1.172-2.589,1.051-3.917,1.057
		c-7.323,0.033-14.647,0.049-21.97,0.105c-1.904,0.015-3.672-0.175-4.775-2.007c0.056-1.994,0.16-3.989,0.16-5.983
		C1.036,174.668,1.034,90.92,0.958,7.173C0.956,4.82,1.511,2.981,3.19,1.427z M34.127,30.796c-2.355,2.005-2.054,4.562-2.054,7.045
		c0.004,33.648,0.002,67.295,0.004,100.943c0,1.166-0.11,2.35,0.052,3.494c0.315,2.22,1.677,3.582,3.899,3.894
		c1.145,0.161,2.328,0.052,3.494,0.052c16.987,0.002,33.973,0.033,50.96-0.011c9.639-0.025,19.153-1.095,28.424-3.872
		c15.847-4.747,26.894-14.558,32.119-30.493c4.441-13.543,4.89-27.319,1.806-41.139c-3.718-16.666-13.328-28.654-29.365-35.069
		c-8.852-3.54-18.135-5.177-27.643-5.235c-19.155-0.116-38.311-0.079-57.466-0.09C37.037,30.313,35.688,30.128,34.127,30.796z"/>
	<path style="fill:#2877B9;" d="M222.972,1.262c8.676,0.017,17.352,0.033,26.028,0.05c1.628,1.604,2.216,3.483,2.163,5.822
		c-0.402,17.81,1,35.602,0.596,53.417c-0.131,5.8-0.021,11.606-0.021,18.038c6.268-1.702,11.773-3.303,17.332-4.686
		c21.448-5.336,42.731-5.308,63.705,2.314c24.282,8.824,38.705,25.963,43.276,51.422c1.177,6.556,1.614,13.159,2.103,19.787
		c0.932,12.641,0.593,25.285,0.501,37.922c-0.047,6.467-1.063,12.97-0.447,19.412c0.858,8.985,0.37,17.957,0.499,26.932
		c0.071,4.978,0.076,9.948-0.472,14.941c-0.393,3.58-0.287,7.26,0.372,10.928c0.812,4.523-0.975,8.556-3.869,8.616
		c-8.305,0.172-16.631,0.622-24.93-0.233c-0.428-0.044-0.807-0.55-1.273-0.887c-1.012-2.178-0.635-4.543-0.637-6.84
		c-0.025-33.665,0.153-67.331-0.119-100.993c-0.083-10.254-0.755-20.599-3.814-30.527c-4.174-13.547-13.538-21.718-27.038-25.397
		c-20.69-5.639-40.777-2.948-60.547,4.356c-3.586,1.325-5.407,3.695-5.256,7.521c0.249,6.305-0.579,12.64,0.581,18.925
		c0.208,1.128,0.034,2.328,0.034,3.494c0,30.828,0.247,61.66-0.132,92.483c-0.135,10.972-0.353,21.952-0.514,32.929
		c-0.06,4.086-1.359,5.336-5.474,5.388c-6.496,0.083-12.995,0.085-19.49-0.001c-4.107-0.054-5.673-1.626-5.992-5.708
		c-0.091-1.16-0.025-2.332-0.025-3.499c-0.001-80.158-0.001-160.316-0.001-240.473c0-3.163,0.059-6.328-0.018-9.489
		C220.03,4.705,220.79,2.661,222.972,1.262z"/>
	<path style="fill:#2676B9;" d="M737.108,1.441c9.197,0.051,18.395,0.103,27.592,0.154c1.381,2.035,1.44,4.325,1.437,6.684
		c-0.033,21.493-0.027,42.985-0.006,64.478c0.002,1.798-0.292,3.642,0.323,5.354c2.456,0.686,4.404-0.6,6.387-1.248
		c15.645-5.111,31.672-7.544,48.089-6.388c20.305,1.43,38.621,7.926,53.314,22.667c9.354,9.385,14.499,20.94,16.711,33.847
		c1.858,10.841,1.71,21.834,2.212,32.784c1.075,23.462,0.413,46.928,0.54,70.392c0.027,4.975,0.15,9.942-0.475,14.935
		c-0.404,3.234-0.401,6.608,0.311,9.931c0.52,2.427,0.236,4.922-0.4,7.395c-0.689,2.68-2.267,3.971-4.947,3.977
		c-6.995,0.014-13.992,0.064-20.985-0.046c-3.166-0.05-4.547-1.361-5.016-4.42c-0.2-1.304-0.081-2.66-0.082-3.992
		c-0.041-36.487-0.086-72.973-0.111-109.46c-0.005-7.535-1.206-14.902-3.461-22.046c-4.131-13.085-13.191-21.338-26.206-25.066
		c-10.793-3.091-21.811-3.758-33.046-2.395c-8.954,1.086-17.63,2.982-26.07,6.089c-6.016,2.215-7.215,3.851-7.211,10.28
		c0.026,47.15,0.071,94.299,0.104,141.449c0.001,1.832,0.056,3.675-0.125,5.493c-0.275,2.763-1.329,3.914-4.123,3.967
		c-7.492,0.142-14.989,0.178-22.48,0.057c-2.807-0.045-4.064-1.537-4.243-4.489c-0.161-2.657-0.138-5.328-0.139-7.993
		c-0.007-38.654-0.02-77.307-0.001-115.961c0.02-40.819,0.074-81.637,0.105-122.456c0.002-2.165,0.027-4.337-0.127-6.493
		C734.783,6.142,735.419,3.656,737.108,1.441z"/>
	<path style="fill:#2776B9;" d="M536.606,153.412c1.919-2.602,1.469-5.075,1.193-7.279c-0.741-5.924-0.463-11.907-1.657-17.822
		c-3.461-17.142-14.103-27.625-32.791-29.292c-16.523-1.474-32.424,0.353-47.892,6.235c-4.196,1.596-8.188,3.61-12.144,5.734
		c-5.004,2.687-7.162,1.975-10.375-2.831c-2.401-3.592-4.935-7.095-7.351-10.678c-3.008-4.461-2.582-7.155,1.967-9.959
		c11.126-6.857,23.203-11.398,35.951-14.158c11.922-2.581,24.02-3.491,36.173-2.897c15.799,0.773,30.929,3.93,43.993,13.709
		c13.043,9.763,20.466,22.832,23.321,38.715c1.037,5.767,0.845,11.592,1.195,17.394c0.591,9.811,0.362,19.622,0.599,29.429
		c0.138,5.672-0.934,11.284-0.637,16.923c1.104,20.967,0.337,41.947,0.595,62.919c0.082,6.621-1.478,8.86-7.916,10.779
		c-18.011,5.368-36.258,9.207-55.139,10.203c-19.133,1.009-37.854-0.612-55.812-7.301c-20.783-7.741-33.181-23.291-36.497-44.909
		c-3.352-21.859,4.699-39.802,22.633-53.057c9.717-7.182,20.912-10.677,32.576-12.898c10.171-1.937,20.474-2.522,30.79-1.902
		c8.778,0.528,17.535,1.471,26.283,2.4C529.3,153.256,532.903,153.536,536.606,153.412z M537.464,236.389
		c0.805-2.127,0.512-3.81,0.515-5.457c0.026-13.663,0.015-27.326,0.015-40.989c0-1.666,0.065-3.336-0.015-4.998
		c-0.148-3.049-0.973-3.89-3.963-4.758c-2.583-0.749-5.251-0.739-7.867-1.142c-9.68-1.492-19.386-2.627-29.193-2.74
		c-5.656-0.065-11.275,0.358-16.912,0.857c-6.867,0.607-13.478,2.055-19.516,5.277c-10.447,5.573-16.442,14.137-16.598,26.337
		c-0.161,12.657,5.279,21.908,16.491,27.809c8.067,4.246,16.797,6.082,25.742,6.648c12.977,0.821,25.913-0.041,38.59-3.042
		C529.01,239.183,533.692,239.264,537.464,236.389z"/>
	<path style="fill:#2676B9;" d="M1098.117,170.935c0,9.661,0.19,19.326-0.043,28.981c-0.39,16.167-4.713,31.07-14.835,44.018
		c-7.62,9.747-17.626,16.094-29.025,20.32c-14.165,5.252-28.908,7.802-43.971,6.835c-22.949-1.473-43.51-8.931-59.406-26.419
		c-8.903-9.795-13.613-21.579-14.798-34.652c-2.108-23.254-1.47-46.581-0.681-69.855c0.647-19.069,7.339-35.959,21.545-49.363
		c10.597-10,23.293-15.684,37.431-18.453c10.171-1.992,20.477-2.719,30.771-1.862c20.352,1.695,39.095,7.656,53.897,22.607
		c10.144,10.246,15.785,22.802,18.03,36.971c1.994,12.584,0.745,25.249,1.036,37.876c0.023,0.998,0.003,1.998,0.003,2.996
		C1098.086,170.935,1098.102,170.935,1098.117,170.935z M1068.902,172.211c0.268-13.546-0.828-26.454-1.998-39.345
		c-0.795-8.762-4.575-16.389-11.181-22.084c-11.723-10.108-25.71-14.075-41.036-13.247c-5.942,0.321-11.859,1.309-17.6,2.924
		c-10.175,2.863-19.115,7.719-24.668,17.174c-4.099,6.979-5.859,14.76-6.318,22.747c-0.378,6.579-0.365,13.2-0.159,19.79
		c0.358,11.439-1.023,22.864-0.074,34.306c0.397,4.785,0.137,9.58,0.947,14.386c2.548,15.134,11.056,25.187,25.241,30.589
		c15.679,5.971,31.593,5.198,47.39,0.833c8.658-2.392,15.832-7.418,21.156-14.896c4.682-6.576,6.825-14.064,7.117-21.878
		C1068.112,192.886,1069.409,182.291,1068.902,172.211z"/>
	<path style="fill:#2A77B9;" d="M616.595,28.572c0.72-0.315,1.473-0.923,2.236-0.936c6.822-0.111,13.649-0.264,20.467-0.083
		c2.699,0.072,4.24,2.05,4.535,5.1c0.447,4.626,0.787,9.265,1.027,13.907c0.42,8.132,0.711,16.27,1.093,24.404
		c0.214,4.563,1.078,5.423,5.791,5.428c12.162,0.013,24.324-0.052,36.485-0.086c1.333-0.004,2.667-0.048,3.998-0.002
		c5.185,0.178,6.667,1.813,6.609,7.116c-0.047,4.33-0.076,8.661-0.029,12.991c0.063,5.822-1.821,7.785-7.714,7.77
		c-12.494-0.031-24.989-0.11-37.483-0.12c-1.953-0.002-4.018-0.446-5.783,0.876c-1.404,1.549-1.075,3.452-1.074,5.247
		c0.033,33.154-0.093,66.311,0.212,99.463c0.164,17.891,11.8,30.813,30.883,31.71c6.644,0.312,13.318-0.016,19.978-0.048
		c4.979-0.024,6.232,1.144,6.28,6.115c0.056,5.831,0.079,11.664-0.025,17.494c-0.062,3.451-1.027,4.941-4.228,5.039
		c-16.086,0.497-32.286,2.006-47.872-3.818c-18.245-6.818-29.423-19.874-33.947-38.707c-2.42-10.073-3.033-20.351-3.03-30.666
		c0.014-53.815,0.065-107.63,0.101-161.445C615.107,33.154,614.956,30.965,616.595,28.572z"/>
	<path style="fill:#1F4A73;" d="M472.435,339.411c-3.481,7.917-6.898,15.615-10.254,23.34c-7.011,16.141-13.99,32.297-20.981,48.447
		c-0.263,0.609-0.44,1.267-0.781,1.828c-1.704,2.801-4.09,2.875-5.781,0.144c-0.606-0.978-0.994-2.094-1.46-3.156
		c-10.07-22.966-20.136-45.934-30.202-68.902c-0.262-0.597-0.405-1.277-1.14-1.498c-0.199,0.601,0.091-0.426-0.481-0.084
		c-0.105,0.062-0.187,0.23-0.204,0.359c-0.063,0.492-0.132,0.989-0.132,1.484c-0.021,23.664-0.035,47.329-0.054,70.993
		c0,0.163-0.061,0.327-0.104,0.487c-0.043,0.159-0.101,0.313-0.215,0.663c-2.35,2.566-5.089,2.149-7.906,0.783
		c-1.285-2.094-1.097-4.284-1.099-6.428c-0.01-15.999-0.211-32.001,0.077-47.995c0.156-8.658,0.052-17.317,0.337-25.967
		c0.092-2.792-1.402-5.529-0.314-8.441c3.191-1.455,6.545-1.344,9.801-1.397c3.083-0.05,4.598,2.175,5.71,4.8
		c3.883,9.174,7.802,18.334,11.772,27.471c6.018,13.852,12.089,27.681,18.355,42.016c0.701-1.217,1.296-2.056,1.699-2.979
		c9.304-21.299,18.618-42.594,27.857-63.921c3.299-7.614,5.879-8.928,14.283-6.77c1.481,1.768,1.469,3.945,1.469,6.112
		c0.003,26.164,0.011,52.329-0.008,78.493c-0.003,4.108-0.726,5.323-3.213,5.882c-4.13,0.929-6.343-0.912-6.342-5.197
		c0.004-22.326-0.003-44.651-0.034-66.977C473.089,341.924,473.452,340.758,472.435,339.411z"/>
	<path style="fill:#234C75;" d="M147.268,372.763c-5.367-0.938-43.887-0.749-47.798,0.271c-1.165,4.252-0.423,8.743-0.546,13.167
		c-0.126,4.496-0.028,8.998-0.028,13.497c0,4.49,0,8.981,0,13.281c-2.598,3.09-5.396,2.508-8.268,1.389
		c-1.062-1.716-1.214-3.503-1.208-5.353c0.078-24.826,0.154-49.651,0.189-74.477c0.004-3.114-0.988-6.307,0.937-9.166
		c1.057-1.138,2.41-1.103,3.747-1.086c3.542,0.046,4.451,0.865,4.585,4.35c0.09,2.33,0.018,4.665,0.018,6.998
		c0,7.332-0.017,14.665,0.013,21.997c0.007,1.646-0.278,3.332,0.372,4.865c1.37,2.127,3.476,1.798,5.445,1.776
		c8.492-0.096,16.983-0.282,25.474-0.321c4.158-0.019,8.317,0.229,12.476,0.322c1.664,0.037,3.376,0.183,5.138-1.569
		c0.722-0.994,0.261-2.717,0.268-4.339c0.043-9.665-0.018-19.331,0.039-28.996c0.025-4.285,1.708-5.583,5.932-5.079
		c1.949,0.232,3.097,1.251,3.453,3.041c0.256,1.288,0.185,2.649,0.185,3.977c0.009,25.497,0.007,50.993,0.005,76.49
		c0,1.166,0.113,2.352-0.058,3.494c-0.439,2.938-1.667,3.887-4.767,3.904c-3.402,0.019-4.506-0.963-4.754-4.318
		c-0.074-0.995-0.014-1.999-0.014-2.999c0-9.999,0.012-19.997-0.013-29.996C148.087,376.255,148.42,374.551,147.268,372.763z"/>
	<path style="fill:#1F4A73;" d="M360.351,413.979c-5.565,2.034-8.932,1.27-11.9-2.572c-1.11-1.437-2.059-3.022-2.913-4.63
		c-5.145-9.684-11.025-18.933-16.699-28.302c-3.53-5.829-11.184-8.202-18.121-5.473c-1.175,6.682-0.342,13.652-0.496,20.569
		c-0.151,6.791-0.033,13.588-0.033,19.749c-1.96,2.227-3.843,2.012-5.648,1.837c-2.11-0.205-3.288-1.478-3.406-3.607
		c-0.073-1.328-0.026-2.662-0.027-3.994c-0.025-25.631-0.052-51.262-0.068-76.893c-0.001-1.979-0.256-4.039,1.4-5.614
		c0.287-0.162,0.576-0.462,0.865-0.463c11.118-0.019,22.27-1.153,33.33,0.779c2.596,0.454,5.211,1.151,7.636,2.17
		c8.319,3.496,12.762,9.767,12.91,18.904c0.019,1.165,0.031,2.331,0.002,3.495c-0.246,9.693-4.588,15.777-13.632,19.389
		c-2.442,0.976-5.204,1.081-7.955,3.069c3.508,7.237,8.196,13.826,12.253,20.759C351.872,400.026,356.04,406.812,360.351,413.979z
		 M310.889,364.171c6.412,0.284,13.13,0.904,19.926,0.266c3.885-0.365,7.435-1.498,10.867-3.195
		c3.513-1.737,5.421-4.678,6.423-8.398c2.494-9.257-2.354-17.459-11.667-19.687c-6.271-1.5-12.576-0.752-18.857-0.737
		c-5.435,0.012-7.433,2.213-7.544,7.669c-0.145,7.15-0.088,14.304-0.11,21.456C309.926,362.367,309.875,363.219,310.889,364.171z"/>
	<path style="fill:#234C75;" d="M741.638,333.32c-1.733,1.92-1.662,3.724-1.532,5.589c0.438,6.315,0.441,12.632-0.01,18.949
		c-0.356,4.984,0.829,6.404,5.828,6.395c8.323-0.014,16.646-0.315,24.968-0.28c4.077,0.017,8.227-0.38,12.054,0.595
		c1.227,3.036,1.168,3.04,0.605,6.081c-1.354,2.084-3.507,1.527-5.439,1.533c-10.498,0.034-20.996,0.003-31.494,0.03
		c-1.644,0.004-3.333-0.296-4.907,0.418c-1.832,1.468-1.765,3.461-1.64,5.488c0.474,7.648,0.516,15.295-0.017,22.945
		c-0.116,1.667-0.201,3.375,1.564,4.988c1.269,0.765,3.148,0.33,4.944,0.335c12.664,0.038,25.328-0.009,37.993,0.038
		c3.762,0.014,4.691,1.121,4.461,4.822c-0.183,2.945-1.12,3.881-4.533,3.927c-6.498,0.087-12.997,0.026-19.496,0.026
		c-9.165,0-18.33,0.017-27.495-0.006c-5.403-0.014-6.381-0.938-6.374-6.405c0.03-22.658,0.127-45.316,0.173-67.974
		c0.007-3.663-0.225-7.328-0.161-10.989c0.08-4.556,1.064-5.52,5.689-5.524c12.497-0.01,24.993,0.071,37.49,0.1
		c2.831,0.007,5.668-0.17,8.493-0.05c3.067,0.13,3.927,1.059,4.089,3.852c0.175,3.006-0.9,4.438-3.797,4.757
		c-1.482,0.163-2.996,0.041-4.496,0.041c-11.498,0.003-22.996-0.002-34.493,0.019C743.291,333.019,742.476,333.212,741.638,333.32z"
		/>
	<path style="fill:#1F4A73;" d="M271.621,414.405c-6.436,1.899-9.905,0.343-12.051-5.681c-1.054-2.961-1.655-6.079-2.579-9.09
		c-2.248-7.322-6.097-9.935-13.804-9.136c-10.128,1.049-20.268,0.764-30.407,0.511c-6.553-0.164-7.363,0.333-9.848,6.641
		c-1.579,4.008-3.334,7.946-4.922,11.951c-2.138,5.392-5.008,6.63-11.16,4.59c-0.403-1.883,0.781-3.398,1.464-4.97
		c11.112-25.546,22.277-51.069,33.426-76.599c0.531-1.216,1.016-2.452,1.522-3.679c1.239-3.007,3.023-4.817,6.74-4.706
		c3.561,0.106,5.466,1.611,6.757,4.716c11.458,27.555,22.969,55.088,34.472,82.624C271.615,412.496,272.16,413.369,271.621,414.405z
		 M230.068,334.518c-7.601,15.836-14.702,31.45-21.066,47.686c13.965,0,27.227,0,40.799,0
		C243.151,366.135,236.61,350.326,230.068,334.518z"/>
	<path style="fill:#214C74;" d="M828.859,324.898c1.559,1.255,1.131,3.02,1.148,4.64c0.136,13.148-0.023,26.306,0.466,39.44
		c0.277,7.441-0.655,14.998,1.458,22.335c2.24,7.781,6.34,14.054,14.536,16.341c15.345,4.282,28.516-3.282,30.791-19.236
		c1.11-7.783,1.029-15.599,1.028-23.415c-0.002-11.655-0.132-23.31-0.165-34.965c-0.005-1.777-0.505-3.72,1.399-5.327
		c2.005-0.851,4.314-0.147,6.41-0.218c1.321,0.817,1.669,1.967,1.615,3.125c-0.621,13.316,0.596,26.615,0.334,39.923
		c-0.163,8.312-0.544,16.614-1.81,24.855c-2.466,16.046-14.254,23.319-27.804,24.539c-4.432,0.399-8.942,0.327-13.379-0.787
		c-12.487-3.134-20.772-12.095-22.855-24.825c-0.729-4.454-0.912-8.934-0.919-13.427c-0.021-15.655-0.014-31.31-0.005-46.965
		C821.11,324.419,822.242,323.55,828.859,324.898z"/>
	<path style="fill:#1F4A73;" d="M1245.084,413.944c-6.104,2.417-9.505,1.307-11.951-3.796c-0.995-2.075-1.539-4.368-2.269-6.568
		c-0.521-1.571-0.942-3.178-1.525-4.725c-2.657-7.053-5.821-9.076-13.288-8.321c-10.126,1.024-20.265,0.654-30.406,0.502
		c-5.125-0.077-7.46-0.962-9.888,6.501c-1.277,3.926-3.185,7.649-4.84,11.449c-2.685,6.166-3.614,6.639-10.702,5.577
		c-1.099-1.03-0.584-2.141-0.118-3.207c11.959-27.35,23.954-54.686,35.861-82.059c1.41-3.242,3.334-5.1,7.092-5.069
		c3.392,0.028,5.176,1.787,6.362,4.615C1221.266,357.122,1233.12,385.402,1245.084,413.944z M1202.971,334.541
		c-0.351-0.023-0.701-0.045-1.052-0.068c-6.749,15.888-13.499,31.776-20.287,47.755c5.009,1.129,36.788,1.018,40.963-0.165
		C1216.039,366.185,1209.505,350.363,1202.971,334.541z"/>
	<path style="fill:#1F4A73;" d="M530.196,391.493c-2.92,5.026-4.886,10.474-7.124,15.791c-0.32,0.761-0.526,1.572-0.852,2.33
		c-2.339,5.433-5.135,6.624-11.084,4.727c-0.682-1.457,0.413-2.545,0.909-3.692c11.723-27.118,23.486-54.217,35.246-81.319
		c1.809-4.169,3.46-5.161,7.563-5.052c3.135,0.083,4.804,1.759,5.918,4.468c3.787,9.209,7.612,18.402,11.477,27.579
		c7.343,17.437,14.739,34.85,22.062,52.295c0.743,1.77,2.08,3.453,1.527,5.567c-6.109,2.098-9.489,0.849-11.62-4.669
		c-1.371-3.551-2.063-7.358-3.333-10.954c-2.188-6.195-5.478-8.715-12.081-8.159c-11.479,0.966-22.944,0.843-34.427,0.611
		C533.071,390.992,531.759,391.306,530.196,391.493z M532.803,382.906c14.19,0,27.559,0,41.543,0
		c-6.825-16.52-13.452-32.562-20.494-49.608C546.568,350.466,539.774,366.477,532.803,382.906z"/>
	<path style="fill:#1F4A73;" d="M697.172,337.246c-2.267,1.459-3.592,3.701-5.95,4.634c-2.141-0.481-3.499-2.021-5.072-3.211
		c-4.562-3.45-9.573-5.966-15.121-7.4c-14.162-3.659-29.391,4.602-36.304,16.062c-8.86,14.688-7.929,34.784,2.647,48.307
		c5.711,7.303,13.395,11.301,22.445,12.683c3.788,0.578,7.655,0.542,11.463,0.036c6.269-0.833,11.747-3.342,16.311-7.842
		c1.739-1.715,2.967-4.106,5.711-4.782c2.83,0.723,4.635,2.823,6.761,4.883c-5.019,7.008-11.163,12.142-19.052,14.311
		c-18.721,5.148-35.709,1.883-49.445-12.534c-9.874-10.364-13.31-23.127-11.908-37.258c1.065-10.724,4.912-20.293,12.072-28.42
		c16.905-19.186,46.539-19.178,61.998-4.766C695.203,333.322,696.721,334.567,697.172,337.246z"/>
	<path style="fill:#1F4A73;" d="M1130.699,341.985c-1.866-0.521-2.68-1.361-3.48-2.214c-8.651-9.221-19.233-11.236-31.073-8.163
		c-16.19,4.201-25.367,14.924-27.448,31.596c-1.16,9.296-0.266,18.232,4.141,26.606c5.71,10.849,15.101,16.552,26.894,18.484
		c11.649,1.909,21.735-1.15,29.616-10.29c1.026-1.19,2.191-2.022,4.043-2.072c1.967,1.112,4.319,2.018,5.75,4.842
		c-3.302,5.241-7.892,9.231-13.453,11.947c-23.994,11.72-59.767,0.446-65.708-32.467c-2.963-16.414,0.042-31.519,11.598-44.103
		c14.456-15.741,39.661-19.064,57.018-7.806c3.604,2.338,5.864,4.631,8.03,8.226
		C1135.046,338.819,1132.935,340.563,1130.699,341.985z"/>
	<path style="fill:#1F4A73;" d="M1404.444,333.542c-2.198,1.868-3.658,4.116-6.105,5.269c-1.691-0.022-2.686-1.085-3.77-2.16
		c-8.175-8.112-17.977-7.975-27.517-2.839c-8.275,4.454-9.763,16.929-3.292,23.801c2.703,2.87,6.113,4.552,9.74,5.82
		c3.91,1.367,7.894,2.52,11.812,3.868c2.343,0.806,4.635,1.769,6.924,2.724c14.501,6.049,15.97,19.929,12.031,31.255
		c-2.16,6.209-6.771,10.181-12.55,12.82c-12.207,5.574-31.258,4-42.086-8.596c-0.458-0.533-0.714-1.095-0.768-2.053
		c1.149-2.076,3.481-3.195,5.371-4.716c1.317-1.06,2.882-0.443,4.029,0.75c1.149,1.196,2.117,2.585,3.351,3.68
		c7.99,7.095,17.454,7.291,26.473,3.022c6.101-2.888,8.867-8.429,8.837-15.076c-0.029-6.586-3.772-10.827-9.689-13.169
		c-5.083-2.012-10.26-3.79-15.402-5.652c-2.964-1.073-5.893-2.189-8.679-3.71c-10.046-5.485-13.588-14.123-12.179-25.089
		c1.253-9.747,7.16-15.885,16.03-19.194c8.536-3.184,17.256-3.136,25.833,0.058C1397.44,326.069,1400.732,328.784,1404.444,333.542z
		"/>
	<path style="fill:#1F4A73;" d="M2.235,414.842c-0.768-5.114-0.154-10.26-0.365-15.386c-0.948-23.01-0.783-46.033-0.768-69.054
		c0.001-1.818,0.143-3.636,0.219-5.455c11.463-0.759,22.963-1.36,34.361,0.334c17.388,2.583,23.368,17.591,18.888,31.479
		c-2.629,8.149-8.736,12.687-16.967,14.508c-6.252,1.384-12.603,0.771-18.917,0.942c-2.623,0.071-5.311-0.489-7.734,0.466
		c-1.623,1.692-1.023,3.623-1.033,5.384c-0.055,9.831-0.018,19.663-0.033,29.495c-0.003,2.148,0.243,4.352-1.097,6.419
		C6.841,415.486,4.57,415.38,2.235,414.842z M10.313,332.285c-1.445,4.083-1.691,26.151-0.6,31.292
		c0.631,0.944,1.761,1.308,2.628,1.168c6.246-1.007,12.508,0.751,18.781-0.355c5.372-0.947,10.547-2.181,13.762-6.94
		c5.597-8.285,2.48-21.206-9.177-24.132C27.359,331.221,18.875,332.661,10.313,332.285z"/>
	<path style="fill:#1F4A73;" d="M985.046,331.776c-1.478,1.466-3.363,1.21-5.179,1.212c-6.332,0.007-12.664-0.013-18.996,0.014
		c-1.637,0.007-3.351-0.408-5.571,1.176c-0.651,6.008-0.185,12.628-0.267,19.215c-0.083,6.664-0.018,13.33-0.018,19.996
		c0,6.665,0,13.331,0,19.996c0,6.656,0,13.313,0,19.568c-1.608,2.797-3.933,2.303-6.032,2.159c-1.66-0.114-2.736-1.21-2.899-2.921
		c-0.126-1.323-0.096-2.663-0.094-3.995c0.036-22.16,0.079-44.321,0.119-66.481c0.002-1.166,0.037-2.334-0.009-3.499
		c-0.172-4.314-1.541-5.555-5.849-5.486c-6.825,0.11-13.65,0.268-20.474,0.225c-3.795-0.024-5.149-1.762-4.73-5.319
		c0.227-1.927,1.169-3.063,3.13-3.241c0.828-0.075,1.664-0.091,2.496-0.091c19.661-0.009,39.321-0.007,58.982-0.019
		C985.916,324.281,986.897,325.628,985.046,331.776z"/>
	<path style="fill:#1F4A73;" d="M1282.608,325.586c0.895,1.917,0.563,3.943,0.56,5.915c-0.035,22.63-0.106,45.26-0.153,67.89
		c-0.005,2.304-0.385,4.744,2.372,6.749c1.009,0.618,2.712,0.258,4.345,0.263c9.818,0.031,19.637-0.003,29.455,0.032
		c1.777,0.006,3.713-0.509,5.287,1.251c0.575,0.693,0.563,1.709,0.52,2.701c-0.165,3.767-1.042,4.667-4.783,4.782
		c-2.328,0.072-4.659,0.013-6.989,0.013c-11.15,0-22.299,0-33.449,0c-1.983,0-4.057,0.279-5.458-1.789
		c-0.591-1.532-0.308-3.212-0.309-4.855c-0.019-25.794-0.014-51.588-0.013-77.382c0-0.998-0.06-2.001,0.014-2.995
		c0.219-2.958,1.013-3.745,4.013-3.846C1279.488,324.266,1281.049,324.034,1282.608,325.586z"/>
	<path style="fill:#2C537A;" d="M1017.08,324.593c2.141-0.419,4.102-0.563,5.964,0.112c1.741,1.315,1.884,3.084,1.882,4.976
		c-0.02,26.632-0.018,53.263-0.003,79.895c0.001,1.863-0.016,3.676-1.641,5.08c-1.123,0.813-2.502,0.606-3.8,0.528
		c-2.827-0.169-3.858-1.164-4.179-3.917c-0.115-0.986-0.025-1.995-0.025-2.994c0-25.799-0.003-51.599,0.006-77.398
		C1015.283,328.749,1014.889,326.499,1017.08,324.593z"/>
	<path style="fill:#3B7FBD;" d="M1492.945,236.348c0.07,9.678,0.14,19.357,0.21,29.035c-1.195,1.595-2.618,0.782-4.627,0.54
		c0-6.846,0-13.574,0-21.079c-2.378,1.932-2.83,3.884-3.539,5.63c-1.745,4.293-3.433,8.611-5.033,12.96
		c-0.56,1.523-1.176,2.79-3.023,2.75c-1.852-0.04-2.367-1.38-2.917-2.881c-1.941-5.288-4.01-10.529-6.023-15.79
		c-0.406-1.06-0.627-2.224-2.195-3.203c0,7.346,0,14.378,0,21.051c-1.647,1.324-2.872,1.224-4.475,0.373c0-9.57,0-19.309,0-29.079
		c4.385-2.279,6.749-1.525,8.426,2.803c1.793,4.628,3.466,9.304,5.336,13.901c0.53,1.302,0.632,2.982,2.555,3.864
		c2.294-5.854,4.53-11.663,6.845-17.44C1486.324,235.192,1488.01,234.543,1492.945,236.348z"/>
	<path style="fill:#3B7FBD;" d="M1455.628,238.809c-2.453,1.374-5.094-0.346-7.556,0.936c-1.872,1.566-1.974,3.841-1.958,6.214
		c0.045,6.603,0.016,13.206,0.016,19.37c-1.4,1.466-2.491,0.96-3.324,0.863c-0.945-0.831-1.001-1.683-0.917-2.496
		c0.664-6.417-1.325-12.816-0.069-19.253c0.37-1.895-0.573-3.535-2.01-4.748c-2.337-0.881-4.706,0.061-6.916-0.44
		c-1.232-0.899-0.981-2.009-0.656-3.129c1.487-1.254,3.219-0.689,4.817-0.711c5.142-0.073,10.285-0.011,15.427-0.033
		C1454.853,235.372,1456.368,236.031,1455.628,238.809z"/>
</g>
</svg>
