<?xml version="1.0" encoding="iso-8859-1"?>
<!-- Generator: Adobe Illustrator 27.0.0, SVG Export Plug-In . SVG Version: 6.00 Build 0)  -->
<svg version="1.1" id="Layer_1" xmlns="http://www.w3.org/2000/svg" xmlns:xlink="http://www.w3.org/1999/xlink" x="0px" y="0px"
	 viewBox="0 0 1601.75 244" style="enable-background:new 0 0 1601.75 244;" xml:space="preserve">
<g>
	<path style="fill:#6D6A69;" d="M0,48c0.336,0.008,0.671,0.015,1.007,0.023c0.011,49.272,0.021,98.543,0.032,147.815
		C0.692,195.892,0.346,195.946,0,196C0,146.667,0,97.333,0,48z"/>
	<path style="fill:#62A3BE;" d="M629.27,1.042C629.18,0.695,629.09,0.347,629,0c7.333,0,14.667,0,22,0
		c-0.056,0.343-0.112,0.687-0.167,1.03C643.645,1.034,636.458,1.038,629.27,1.042z"/>
	<path style="fill:#BAD0DE;" d="M629,244c0.029-0.363,0.059-0.726,0.088-1.089l0.463,0.055l0.463-0.059c6.97,0,13.94,0,20.91,0.001
		c0.025,0.364,0.051,0.728,0.076,1.092C643.667,244,636.333,244,629,244z"/>
	<path style="fill:#505150;" d="M969.534,46.43c5.121,0,9.92,0,14.635,0c25.38,38.844,50.718,77.626,76.179,116.595
		c0.264-0.969,0.025,0.113,0.575-0.263c0.107-0.074,0.139-0.296,0.156-0.455c0.054-0.493,0.118-0.989,0.118-1.484
		c0.013-37.651,0.02-75.301,0.032-112.952c0-0.162,0.058-0.329,0.11-0.486c0.05-0.151,0.126-0.294,0.339-0.773
		c5.736,0,11.629,0,17.82,0c0,49.981,0,99.878,0,150.48c-5.315,0.229-10.718,0.066-16.343,0.089
		c-25.434-38.916-50.863-77.824-76.291-116.731c-0.258,0.089-0.517,0.177-0.775,0.266c0,38.67,0,77.34,0,116.247
		c-5.634,0-10.906,0-16.185,0C968.939,193.557,968.546,55.588,969.534,46.43z"/>
	<path style="fill:#50504F;" d="M1514.711,196.93c-6.169,0-11.594,0-17.225,0c0-50.175,0-100.082,0-149.759
		c1.21-1.185,2.436-0.877,3.566-0.878c17.331-0.017,34.663-0.098,51.993,0.027c8.017,0.058,15.905,1.113,23.263,4.676
		c10.289,4.983,17.288,12.879,20.531,23.824c3.158,10.658,3.188,21.333-1.253,31.73c-4.721,11.052-13.116,18.19-24.246,22.284
		c-1.241,0.456-2.607,0.561-3.888,1.922c11.293,21.77,22.656,43.673,34.299,66.116c-6.926,0-13.164,0-20.204,0
		c-10.794-21.652-21.801-43.731-32.795-65.783c-11.344,0-22.462,0-34.04,0C1514.711,152.999,1514.711,174.73,1514.711,196.93z
		 M1514.633,62.886c0,17.187,0,34.538,0,52c13.781,0,27.247,0.041,40.711-0.04c2.309-0.014,4.653-0.371,6.915-0.871
		c9.9-2.189,16.184-7.165,18.4-17.818c1.012-4.862,0.851-9.886-0.266-14.84c-2.152-9.548-8.051-15.41-17.385-17.827
		c-3.192-0.827-6.489-1.32-9.835-1.311c-11.478,0.03-22.955-0.002-34.433,0.029C1517.455,62.212,1516.083,61.834,1514.633,62.886z"
		/>
	<path style="fill:#4E4F4E;" d="M1119.884,196.369c0-49.726,0-99.521,0-149.161c1.187-1.394,2.612-0.895,3.87-0.898
		c15.162-0.034,30.326-0.127,45.487,0.019c8.855,0.085,17.558,1.226,25.7,5.139c14.758,7.092,23.265,18.789,26.032,34.841
		c1.331,7.726,2.081,15.485,2.026,23.329c-0.07,9.996-0.016,19.994-0.103,29.99c-0.067,7.679-1.14,15.263-3.057,22.677
		c-3.894,15.063-13.177,25.418-27.762,30.974c-6.102,2.324-12.315,3.883-18.927,3.858c-16.995-0.066-33.99,0.028-50.984,0.043
		C1121.528,197.178,1120.824,197.331,1119.884,196.369z M1136.266,181.036c13.228,0,26.211,0.435,39.146-0.163
		c7.758-0.359,14.851-3.493,19.986-9.889c3.063-3.814,5.15-8.121,6.547-12.778c1.93-6.435,2.219-13.093,2.541-19.732
		c0.791-16.316,1.061-32.661-1.58-48.822c-2.59-15.853-13.134-26.007-29.784-26.975c-10.997-0.639-21.977-0.286-32.963-0.457
		c-1.271-0.02-2.659-0.455-3.894,0.552C1136.266,102.157,1136.266,141.569,1136.266,181.036z"/>
	<path style="fill:#4F504F;" d="M1466.761,181.188c0,5.694,0,10.494,0,15.651c-30.834,0-61.531,0-92.499,0
		c0-49.995,0-100.038,0-150.318c30.751,0,61.333,0,92.277,0c0,5.08,0,10.117,0,15.526c-24.987,0-49.903,0-75.183,0
		c0,17.258,0,34.158,0,51.679c21.169,0,42.532,0,64.111,0c0,5.22,0,9.825,0,15.172c-7.109,0.001-14.19,0.003-21.271,0.003
		c-6.996,0.001-13.993,0-20.989,0c-7.162,0-14.323,0-21.851,0c0,17.308,0,34.524,0,52.287
		C1416.311,181.188,1441.341,181.188,1466.761,181.188z"/>
	<path style="fill:#4F504F;" d="M879.081,46.283c3.771,0,7.09-0.013,10.41,0.007c1.155,0.007,2.309,0.097,4.057,0.176
		c18.017,49.919,36.069,99.934,54.292,150.424c-6.047,0-11.47,0-17.138,0c-4.213-11.027-8.466-22.158-12.782-33.453
		c-21.051,0-41.969,0-63.213,0c-3.777,11.173-7.534,22.284-11.332,33.52c-5.931,0-11.694,0-18.221,0
		C843.228,146.458,861.139,96.414,879.081,46.283z M913.305,147.045c-8.662-24.779-17.182-49.153-26.049-74.517
		c-9.107,25.368-17.909,49.726-26.638,74.517C878.522,147.045,895.608,147.045,913.305,147.045z"/>
	<path style="fill:#4F504F;" d="M711.437,178.296c3.445-4.418,7.074-8.283,10.919-12.265c2.424,2.102,4.73,4.184,7.123,6.161
		c7.269,6.004,15.656,9.01,25.028,10.009c8.744,0.933,17.295,0.605,25.561-2.328c18.412-6.533,20.058-26.162,13.456-37.817
		c-3.229-5.701-8.275-8.983-14.696-10.107c-9.649-1.69-19.315-3.282-28.963-4.982c-8.699-1.534-16.449-5.185-23.19-10.88
		c-5.254-4.44-8.672-10.06-9.974-16.84c-1.779-9.264-1.741-18.514,1.588-27.432c3.72-9.965,10.485-17.606,20.317-21.571
		c20.149-8.127,39.889-7.059,58.735,4.345c3.716,2.249,6.824,5.281,9.786,7.587c-3.585,3.574-7.29,7.267-11.182,11.148
		c-1.66-0.377-2.777-2.194-4.316-3.409c-12.551-9.91-26.56-12.568-41.773-7.976c-14.552,4.392-21.203,19.308-17.56,32.996
		c1.556,5.846,5.079,10.3,10.892,12.851c6.633,2.911,13.696,3.887,20.692,5.233c7.17,1.38,14.369,2.62,21.509,4.142
		c13.492,2.877,21.856,11.412,25.722,24.375c4.05,13.582,3.108,26.695-5.364,38.52c-6.503,9.077-15.821,14.273-26.499,16.511
		c-16.052,3.364-31.999,2.817-47.409-3.543C724.746,190.095,716.608,184.23,711.437,178.296z"/>
	<path style="fill:#4298B6;" d="M650.924,242.908c-6.97,0-13.94,0-20.909-0.001c-0.275-0.304-0.55-0.608-0.825-0.912
		c-0.047-1.664-0.136-3.328-0.136-4.991c-0.007-76.994-0.007-153.989,0.003-230.983c0-1.659,0.139-3.319,0.213-4.978
		c7.188-0.004,14.375-0.008,21.562-0.012c0.061,1.328,0.175,2.656,0.175,3.984c0.008,78.299,0.008,156.599,0.004,234.898
		C651.012,240.911,650.954,241.91,650.924,242.908z"/>
	<path style="fill:#515150;" d="M1349.419,196.938c-30.812,0-61.242,0-91.893,0c0-50.171,0-100.076,0-150.323
		c5.635,0,11.026,0,16.872,0c0,44.709,0,89.293,0,134.543c6.501,0.221,12.598,0.088,18.687,0.111
		c6.332,0.024,12.664,0.005,18.996,0.005c6.165,0,12.33,0,18.496,0c6.152,0,12.304,0,18.843,0
		C1349.419,186.542,1349.419,191.582,1349.419,196.938z"/>
	<path style="fill:#4E4F4E;" d="M487.837,195.894c-9.553,0-18.363,0-27.51,0c0-49.26,0-98.461,0-147.766
		c0.545-0.115,1.002-0.298,1.459-0.297c19.83,0.042,39.668-0.233,59.486,0.275c13.183,0.338,24.565,5.632,33.238,15.821
		c12.226,14.364,13.744,37.967,2.63,53.421c-3.796,5.278-8.656,9.15-14.289,12.2c-1.588,0.86-3.161,1.748-4.9,2.712
		c10.844,21.086,21.601,42.004,32.616,63.422c-11.304,0-22.008,0-33.243,0c-9.435-19.571-19.006-39.423-28.567-59.255
		c-6.951,0-13.724,0-20.92,0C487.837,156.236,487.837,175.82,487.837,195.894z M488.033,73.711c0,13.319,0,26.159,0,39.286
		c9.123,0,17.925,0.022,26.726-0.005c11.231-0.035,17.923-5.319,19.906-16.221c2.498-13.729-6.395-23.015-17.619-22.929
		c-4.826,0.037-9.652-0.101-14.479-0.126C497.783,73.692,493,73.711,488.033,73.711z"/>
	<path style="fill:#4E4F4E;" d="M329.911,195.731c0-49.467,0-98.405,0-147.634c31.935,0,63.689,0,96.175,0
		c0.005,4.056,0.013,8.315,0.016,12.575c0.003,4.148,0.001,8.297,0.001,13.003c-22.511,0-44.725,0-67.168,0
		c0,11.64,0,22.72,0,34.293c18.971,0,37.869,0,56.941,0c0,9.073,0,17.654,0,26.633c-18.958,0-37.713,0-56.821,0
		c0,11.927,0,23.46,0,35.365c22.142,0,44.233,0,66.685,0c0,8.733,0,17.111,0,25.765C393.92,195.731,362.036,195.731,329.911,195.731
		z"/>
	<path style="fill:#4E4F4E;" d="M227.623,140.003c0,18.933,0,37.216,0,55.747c-9.861,0-19.443,0-29.31,0
		c0-49.107,0-98.173,0-147.391c0.343-0.148,0.768-0.491,1.194-0.491c20.326,0.024,40.68-0.562,60.97,0.322
		c17.447,0.76,31.347,8.903,39,25.197c9.22,19.632,4.837,45.232-14.523,58.337c-7.888,5.339-16.706,8.125-26.252,8.253
		c-8.996,0.12-17.995,0.026-26.993,0.026C230.567,140.003,229.425,140.003,227.623,140.003z M227.975,113.836
		c10.2-0.266,20.131,0.499,30.063-0.595c8.943-0.985,14.657-5.99,16.595-14.676c2.675-11.99-3.752-22.923-15.132-24.354
		c-10.361-1.303-20.854-0.382-31.526-0.513C227.975,87.251,227.975,100.3,227.975,113.836z"/>
	<path style="fill:#4D4E4D;" d="M1.038,195.838C1.028,146.566,1.017,97.295,1.007,48.023c3.157-0.071,6.315-0.207,9.472-0.203
		c16.819,0.023,33.652-0.34,50.453,0.233c21.904,0.747,38.181,14.911,42.59,34.703c4.45,19.972-3.09,41.255-21.013,51.14
		c-7.23,3.987-14.976,6.226-23.342,6.126c-8.492-0.101-16.986-0.043-25.479-0.004c-1.632,0.007-3.308-0.33-5.358,0.497
		c0,18.236,0,36.626,0,55.322C18.929,195.838,9.984,195.838,1.038,195.838z M28.435,113.817c8.347,0,16.448-0.067,24.547,0.036
		c2.857,0.036,5.649-0.322,8.402-0.883c10.462-2.13,16.198-9.874,15.659-20.941c-0.481-9.872-7.571-17.053-17.845-18.079
		c-9.616-0.96-19.258-0.317-28.888-0.452c-0.619-0.009-1.244,0.341-1.876,0.528C28.435,87.225,28.435,100.289,28.435,113.817z"/>
	<path style="fill:#4C4D4C;" d="M132.078,48.024c8.967,0,17.724,0,26.802,0c0,49.151,0,98.214,0,147.626c-8.685,0-17.582,0-26.802,0
		C132.078,146.669,132.078,97.625,132.078,48.024z"/>
	<path style="fill:#62A3BE;" d="M629.189,241.995c0.275,0.304,0.55,0.608,0.825,0.912l-0.463,0.059l-0.463-0.055
		C628.997,242.592,629.03,242.287,629.189,241.995z"/>
</g>
</svg>
