<?xml version="1.0" encoding="iso-8859-1"?>
<!-- Generator: Adobe Illustrator 27.0.0, SVG Export Plug-In . SVG Version: 6.00 Build 0)  -->
<svg version="1.1" id="Layer_1" xmlns="http://www.w3.org/2000/svg" xmlns:xlink="http://www.w3.org/1999/xlink" x="0px" y="0px"
	 viewBox="0 0 1498 301" style="enable-background:new 0 0 1498 301;" xml:space="preserve">
<g>
	<path style="fill:#B28830;" d="M1498,190c-6.463-0.105-12.911,0.475-19.385-0.628c-12.123-2.064-21.541-8.267-29.077-17.758
		c-11.937-15.035-25.54-28.524-39.2-41.953c-0.207-0.204-0.57-0.249-1.243-0.526c-0.075,1.33-0.202,2.555-0.204,3.78
		c-0.015,12.664-0.013,25.327-0.004,37.991c0.001,1.332-0.031,2.677,0.137,3.992c0.564,4.416,3.017,6.816,7.471,7.322
		c1.482,0.168,3.013,0.002,4.409,0.671c0.585,0.28,1.122,0.659,1.522,0.898c1.062,1.946,0.748,3.717,0.303,5.915
		c-16.283,0-32.509,0-48.762,0c-1.918-5.029-1.18-6.53,3.795-7.604c3.775-0.815,4.962-2.233,5.552-5.934
		c0.947-5.94,1.012-11.907,1.004-17.898c-0.039-28.493-0.016-56.987-0.022-85.48c0-1.665-0.059-3.329-0.1-4.994
		c-0.11-4.528-2.29-7.397-6.633-8.874c-5.071-1.725-5.458-2.773-3.662-8.436c5.307-1.058,10.708,0.298,16.114,0.401
		c5.496,0.104,11.008-0.069,16.486,0.297c5.393,0.361,10.751-1.519,15.981-0.582c1.01,2.451,0.624,4.379,0.37,6.196
		c-2.541,1.936-5.383,2.361-8.02,3.292c-3.622,1.278-5.936,3.547-5.929,7.675c0.023,12.663,0.003,25.327,0.025,37.99
		c0.001,0.446,0.277,0.891,0.677,2.099c8.168-7.562,15.024-15.799,22.265-23.636c7.2-7.793,14.64-15.392,21.381-23.669
		c-2.161-3.633-5.658-1.896-8.287-2.818c-2.477-3.7-2.477-3.7,0.041-7.274c1.738-0.654,3.588-0.314,5.397-0.319
		c11.831-0.034,23.661-0.04,35.492-0.004c3.604,0.011,4.659,0.82,4.997,3.473c0.353,2.774-0.568,3.988-3.447,4.255
		c-2.315,0.214-4.612,0.371-6.92,0.807c-6.123,1.156-11.22,3.97-15.379,8.573c-12.611,13.958-25.215,27.923-38.239,41.501
		c-1.14,1.188-2.052,2.595-2.914,3.7c-0.383,2.594,1.11,4.003,2.494,5.435c15.389,15.931,30.789,31.851,46.184,47.776
		c3.818,3.949,7.635,7.898,11.441,11.858c2.884,3,6.172,5.092,10.551,4.632c1.255-0.132,2.225,0.573,3.335,0.857
		C1498,185.333,1498,187.667,1498,190z"/>
	<path style="fill:#22726A;" d="M1236,301c-1.333-1.773-3.573-1.168-5.306-2.024c-5.466-2.699-9.769-8.503-3.996-15.374
		c3.002-3.573,5.649-7.339,6.819-12.026c0.762-3.051,0.877-5.872-0.706-8.663c-2.892-5.095-1.54-9.686,2.044-13.72
		c3.561-4.008,8.027-6.293,13.598-6.243c6.096,0.055,11.692,1.454,16.693,4.788c-0.159,3.034-3.197,3.326-4.046,6.289
		c0.582,4.982-1.575,9.581-6.743,12.503c-2.766,1.564-5.812,2.394-9.032,2.574c-1.772,0.099-3.735-0.261-5.056,1.41
		c-0.697,1.745,0.444,2.532,1.687,3.084c2.728,1.211,5.534,2.245,8.262,3.455c4.385,1.944,7.723,4.855,7.453,10.107
		c-0.272,5.28-2.957,9.004-8.012,10.958c-2.652,1.026-5.29,1.931-8.18,1.917c-0.91-0.004-2.059-0.387-2.479,0.965
		C1238,301,1237,301,1236,301z M1239.5,297.276c3.679,0.012,6.82-0.858,8.88-2.337c3.209-2.306,3.71-5.496,1.153-8.475
		c-2.295-2.673-5.17-4.565-8.538-5.708c-4.589-1.559-9.766,1.004-10.995,5.502c-1.492,5.462,1.072,9.747,6.469,10.73
		C1237.603,297.194,1238.772,297.21,1239.5,297.276z M1239.713,259.584c-0.057,3.748,0.515,5.248,2.337,6.136
		c2.099,1.023,4.738,0.242,7.132-2.173c3.196-3.223,4.754-7.135,4.811-11.664c0.031-2.514-0.697-4.674-3.205-5.635
		c-2.427-0.93-4.559-0.113-6.37,1.661C1241.144,251.115,1239.709,255.059,1239.713,259.584z"/>
	<path style="fill:#DFCFAF;" d="M1.842,247.082C1.228,247.055,0.614,247.027,0,247C0,165.333,0,83.667,0,2
		c0.704,0.024,1.408,0.047,2.112,0.071c-0.06,1.825-0.173,3.65-0.173,5.475C1.93,62.275,1.94,117.003,1.927,171.732
		C1.921,196.849,1.872,221.965,1.842,247.082z"/>
	<path style="fill:#F2EBDB;" d="M2.112,2.071C1.408,2.047,0.704,2.024,0,2c0-0.5,0-1,0-2c79.666,0,159.333,0,239,0
		c-0.011,1.687-0.023,3.374-0.034,5.062c-1.239-2.566-3.329-3.449-6.079-3.181c-1.155,0.113-2.329,0.018-3.495,0.019
		C156.296,1.943,83.2,1.986,10.104,2.031C7.44,2.033,4.776,2.057,2.112,2.071z"/>
	<path style="fill:#B1882F;" d="M2.112,2.071c2.664-0.014,5.328-0.038,7.991-0.04C83.2,1.986,156.296,1.943,229.392,1.899
		c1.166-0.001,2.34,0.094,3.495-0.019c2.75-0.268,4.84,0.615,6.079,3.181c-0.068,30.327,0.12,60.657-0.279,90.979
		c-0.369,27.964-0.608,55.931-1.127,83.889c-0.374,20.145-0.395,40.285-0.562,60.428c-0.018,2.135,0.388,4.39-1.786,6.414
		c-2.328,0.715-5.117,0.93-7.945,0.926c-8.665-0.01-17.333,0.132-25.996-0.025c-65.808-1.192-131.62-0.186-197.43-0.526
		c-0.666-0.003-1.332-0.042-1.998-0.064c0.03-25.117,0.079-50.234,0.085-75.35C1.94,117.003,1.93,62.275,1.939,7.547
		C1.939,5.721,2.052,3.896,2.112,2.071z M222.938,231.538c0.686-9.793,0.487-19.946,0.798-30.071
		c0.811-26.456,0.521-52.934,1.002-79.405c0.594-32.647,0.306-65.31,0.387-97.966c0.021-8.343-0.618-8.953-9.142-8.953
		c-63.987-0.001-127.974-0.001-191.961-0.001c-1,0-2.003-0.052-2.999,0.01c-4.558,0.287-5.992,1.59-6.089,6.085
		c-0.115,5.328,0.059,10.661,0.059,15.991c0.007,61.487,0.005,122.975,0.001,184.462c0,2.331-0.13,4.665-0.061,6.993
		c0.117,3.941,1.14,5.063,5.031,5.245c2.823,0.132,5.661-0.067,8.492-0.067c62.154-0.006,124.308-0.004,186.462-0.005
		c1.166,0,2.335-0.044,3.499,0.008C220.22,233.947,221.679,233.361,222.938,231.538z"/>
	<path style="fill:#B1882F;" d="M572.85,60.008c-4.489-3.954-10.598-2.073-15.496-4.158c-1.693-1.991-1.057-3.712,0.168-5.365
		c2.664-0.942,5.06,0.256,7.512,0.364c13.635,0.599,27.257,0.553,40.887-0.406c7.105-0.5,14.209-0.761,21.275,1.264
		c15.288,4.383,30.723,25.94,20.384,48.025c-3.803,8.123-9.601,14.718-15.413,21.345c-1.086,1.238-2.414,2.302-3.02,4.242
		c1.14,3.697,3.849,6.718,6.065,9.974c8.426,12.382,17.078,24.605,27.95,35.036c2.518,2.416,5.134,4.746,7.844,6.943
		c3.952,3.204,8.455,5.157,13.586,5.692c4.663,0.486,5.321,1.968,3.173,6.71c-14.545,1.549-28.509,0.106-40.802-8.826
		c-6.665-4.843-12.079-10.91-16.426-17.926c-4.29-6.924-8.628-13.823-13.729-20.192c-3.936-4.915-8.662-8.707-15.026-10.032
		c-3.506-0.73-4.814,0.003-6.02,3.273c-0.59,1.601-0.761,3.219-0.76,4.893c0.007,10.659-0.042,21.318,0.02,31.977
		c0.041,7.005,1.881,8.81,8.744,9.359c2.766,0.221,5.708-0.516,8.253,1.206c0.755,3.229,0.755,3.229-0.357,6.35
		c-17.852,0-35.795,0-53.739,0.001c-3.125-4.736-2.131-7.06,3.186-7.543c2.633-0.239,5.286-0.002,7.89-0.928
		c2.256-0.802,3.612-2.048,4.27-4.383c0.646-2.294,0.726-4.59,0.723-6.916c-0.04-29.477-0.031-58.954-0.184-88.431
		C573.77,74.43,573.188,67.305,572.85,60.008z M595.74,115.462c4.873,1.292,10.966,0.552,16.119-1.25
		c10.704-3.744,19.082-18.773,14.514-32.753c-2.292-7.014-5.786-12.714-13.316-14.851c-3.683-1.045-7.542-1.563-11.314-1.367
		c-6.248,0.325-6.846,2.957-6.797,7.05c0.154,12.979,0.05,25.96,0.067,38.941C595.014,112.541,594.751,113.904,595.74,115.462z"/>
	<path style="fill:#B1882F;" d="M746.915,114.026c2.834,3.915,6.292,7.262,9.603,10.74c15.039,15.802,30.037,31.642,45.115,47.406
		c5.166,5.401,9.97,11.59,18.453,10.257c2.079,2.478,2.012,4.615,0.674,7.29c-14.876,1.352-29.101,0.041-41.054-10.396
		c-2.624-2.291-5.041-4.867-7.285-7.538c-11.356-13.518-23.389-26.422-35.394-39.353c-1.456-1.568-2.855-3.188-4.803-5.37
		c-0.095,1.805-0.211,3.001-0.212,4.197c-0.013,12.832-0.008,25.664-0.008,38.497c0,0.833-0.013,1.667,0.008,2.5
		c0.184,7.062,3.637,10.291,9.547,10.159c4.688-0.104,5.916,2.811,3.598,7.349c-16.079,0-32.188,0-48.219,0
		c-0.933-2.947-0.933-2.947-0.251-5.867c1.051-1.178,2.532-1.462,4.013-1.673c4.055-0.579,6.038-2.965,6.603-6.956
		c0.281-1.982,0.557-3.934,0.556-5.94c-0.014-32.664-0.009-65.327-0.01-97.991c0-1.828-0.147-3.62-0.462-5.444
		c-0.679-3.941-2.804-6.231-6.696-7.017c-1.462-0.295-2.895-0.756-4.245-2.05c-0.859-2.027-0.915-4.194,0.831-6.838
		c15.932,0.676,32.085,2.322,47.825,0.075c1.57,2.735,1.101,4.676,0.721,6.622c-1.891,2.246-4.731,2.403-7.169,3.286
		c-4.641,1.682-6.905,4.598-6.833,9.713c0.177,12.652,0.058,25.308,0.058,38.106c6.36-3.807,41.073-42.06,43.437-47.744
		c-1.864-1.53-1.864-1.53-7.684-2.483c-2.164-2.288-1.877-4.651-0.081-7.087c2.135-0.971,4.32-0.305,6.441-0.32
		c10.665-0.072,21.331-0.033,31.997-0.033c0.833,0,1.667-0.02,2.5,0.003c5.304,0.152,6.49,2.22,4.262,7.416
		c-0.903,0.586-1.922,0.502-2.91,0.44c-8.181-0.511-14.905,2.699-20.722,8.15c-5.233,4.904-9.801,10.43-14.584,15.755
		c-8.343,9.289-16.695,18.569-25.044,27.852C748.498,110.845,747.318,111.825,746.915,114.026z"/>
	<path style="fill:#B1882F;" d="M1260.662,189.796c-15.838,0-31.276,0-46.434,0c-1.767-1.902-1.207-3.728-1.024-5.449
		c1.147-1.821,2.962-2.015,4.765-2.433c9.943-2.305,10.636-3.477,11.182-13.846c1.716-32.616,0.628-65.25,0.838-97.874
		c0.036-5.653,0.005-11.307,0.005-16.841c3.41-2.472,4.379-2.623,7.027-0.404c1.903,1.595,3.546,3.507,5.256,5.323
		c21.34,22.66,42.687,45.314,63.994,68.006c5.924,6.309,11.702,12.756,17.595,19.095c1.2,1.291,2.219,2.857,3.951,3.676
		c0.805-1.67,0.468-3.188,0.469-4.655c0.023-24.823,0.017-49.645,0.017-74.468c0-0.666-0.031-1.334,0.004-1.999
		c0.306-5.758-3.192-9.323-9.492-9.906c-1.477-0.137-3.009,0.299-4.427-0.41c-0.293-0.146-0.547-0.373-0.901-0.62
		c-1.002-1.827-0.758-3.749-0.004-6.11c14.618,0,29.323,0,43.901,0c2.345,4.632,1.634,6.386-2.758,7.202
		c-2.449,0.455-4.932,0.736-7.374,1.22c-3.057,0.606-4.987,2.313-5.576,5.569c-0.328,1.816-0.531,3.601-0.533,5.434
		c-0.04,36.983-0.078,73.966-0.167,110.948c-0.006,2.639,0.588,5.305-0.151,7.983c-2.195,2.083-4.261,1.275-6.143-0.382
		c-2.123-1.869-4.1-3.903-6.158-5.847c-22.646-21.388-43.814-44.211-65.088-66.934c-6.597-7.046-13.303-13.989-19.966-20.973
		c-0.447-0.469-0.881-1.01-2.049-0.86c-0.511,1.007-0.258,2.317-0.259,3.544c-0.019,22.324-0.045,44.648,0.024,66.971
		c0.009,2.975,0.349,5.98,0.866,8.913c0.551,3.125,2.365,5.408,5.49,6.525c2.991,1.07,6.053,1.652,9.209,2.045
		C1261.867,182.875,1262.757,184.745,1260.662,189.796z"/>
	<path style="fill:#B28830;" d="M380.078,189.756c-20.986,0-42.08,0-63.316,0c-1.5-1.628-0.838-3.624-0.695-5.459
		c1.233-1.966,3.272-2.392,5.086-3.148c2.297-0.958,4.666-1.748,6.943-2.749c3.864-1.698,5.999-4.621,5.981-8.952
		c-0.005-1.166,0.04-2.333,0.04-3.499c0.002-30.5,0.009-60.999-0.011-91.499c-0.002-2.651,0.017-5.283-0.715-7.919
		c-1.325-4.773-3.989-8.286-8.442-10.529c-3.869-1.949-4.014-2.561-2.427-7.051c2.228-1.035,4.534-0.001,6.806-0.036
		c9.997-0.154,19.999,0.001,29.998-0.1c3.98-0.04,7.968-0.341,11.933-0.717c9.447-0.897,17.696,2.001,25.142,7.636
		c7.731,5.851,14.074,12.907,16.951,22.284c5.913,19.278-0.623,37.397-20.474,46.792c-6.844,3.24-14.217,4.498-21.713,5.078
		c-1.644,0.127-3.364,0.404-4.741-1.174c-0.825-1.445-0.641-3.086-0.375-4.616c0.968-2.038,3.048-2.066,4.632-2.861
		c8.415-4.223,14.309-10.639,17.454-19.561c1.2-3.404,1.445-6.951,0.755-10.359c-2.87-14.174-10.433-24.603-24.46-29.674
		c-1.621-0.586-3.147-1.006-4.774-0.423c-1.027,0.925-0.951,2.125-0.949,3.282c0.053,34.33,0.08,68.661,0.204,102.991
		c0.024,6.671,1.785,8.721,8.226,10.642c2.862,0.854,5.741,1.649,8.595,2.53C381.178,182.344,381.847,183.687,380.078,189.756z"/>
	<path style="fill:#B28830;" d="M957.168,57.52c-0.056-0.937-0.189-1.92-0.161-2.898c0.116-4.167,0.897-4.589,5.201-3.99
		c6.109,0.851,12.281,0.622,18.437,0.644c10.817,0.04,21.575-1.321,32.399-1.183c14.603,0.186,23.584,6.746,28.147,20.704
		c4.731,14.472,2.688,27.476-8.056,38.726c-2.063,2.16-3.926,4.513-6.212,7.16c2.909,1.767,5.663,3.496,8.47,5.132
		c5.661,3.298,10.8,7.159,14.534,12.679c10.549,15.596,6.561,36.097-9.16,46.469c-9.42,6.215-19.9,8.997-31.125,9.033
		c-14.324,0.046-28.648,0.044-42.972-0.019c-2.64-0.012-5.302,0.534-7.885-0.087c-2.393-4.56-2.116-5.681,2.701-7.988
		c6.11-2.926,10.15-7.466,11.421-14.145c0.65-3.414,1.084-6.887,1.1-10.4c0.136-28.639,0.76-57.279-0.14-85.917
		c-0.052-1.671-0.212-3.301-0.522-4.944c-0.88-4.67-2.443-6.066-7.21-6.645C963.256,59.503,960.049,60.484,957.168,57.52z
		 M994.819,123.388c-1.714,2.232-1.825,4.525-1.827,6.889c-0.01,10.45,0.41,20.902-0.108,31.351
		c-0.033,0.665-0.019,1.333,0.001,1.999c0.232,7.662,4.469,13.618,11.623,16.442c6.315,2.493,12.655,2.251,19.011,0.247
		c5.649-1.781,9.347-5.533,11.098-11.2c1.527-4.943,2.589-9.949,2.51-15.17C1036.78,131.117,1017.88,119.355,994.819,123.388z
		 M993.202,112.22c3.736,2.16,7.294,1.864,10.899,0.853c10.15-2.846,17.692-8.381,19.583-19.469
		c0.842-4.939,1.052-9.982,0.246-14.926c-1.045-6.41-4.46-11.382-10.25-14.54c-5.043-2.751-10.494-4.076-16.2-4.398
		c-1.491-0.084-3.037-0.163-4.277,1.578C993.202,77.983,993.202,94.94,993.202,112.22z"/>
	<path style="fill:#B1882F;" d="M839.271,189.729c-2.086-2.359-1.149-4.293,1.005-5.426c3.122-1.643,3.748-4.204,4.085-7.378
		c0.811-7.629,0.583-15.284,0.939-22.921c1.25-26.794,0.289-53.605,0.561-80.406c0.027-2.668-0.318-5.291-0.547-7.936
		c-0.307-3.553-2.314-5.384-5.448-6.276c-2.539-0.722-5.128-1.268-7.426-1.827c-1.885-2.143-1.385-4.242-0.939-6.539
		c3.685-1.835,7.596-0.89,11.26-0.605c10.644,0.83,21.284,0.553,31.93,0.642c10.159,0.085,20.282-0.579,30.419-0.991
		c6.154-0.251,7.548,1.488,7.152,7.637c-0.299,4.648-0.236,9.322-0.239,13.984c-0.002,3.019-0.318,5.953-1.488,8.753
		c-1.557,1.205-3.161,0.595-4.606,0.462c-1.508-1.643-1.554-3.504-1.919-5.285c-1.373-6.701-3.986-8.974-10.612-9.936
		c-4.645-0.674-9.291-0.601-13.936-0.496c-6.752,0.153-9.257,2.592-9.428,9.49c-0.256,10.322-0.294,20.652-0.305,30.978
		c-0.004,3.982,1.388,5.34,5.5,5.437c8.153,0.192,16.286-0.303,24.414-0.95c2.325-0.185,3.389-1.582,4.555-3.325
		c2.547-3.807,4.966-3.841,8.544-0.107c-3.1,9.554,0.194,19.515-0.771,29.333c-5.275,2.017-6.532,1.272-7.124-4.094
		c-0.652-5.913-3.385-8.745-9.256-8.992c-6.818-0.287-13.649-0.348-20.474-0.334c-3.802,0.007-5.274,1.372-5.187,5.142
		c0.3,12.971-0.537,25.975,1.085,38.908c0.739,5.894,3.038,8.485,8.998,9.656c12.948,2.545,25.382-1.676,31.901-13.754
		c0.471-0.873,0.993-1.73,1.591-2.519c0.953-1.255,2.331-1.357,3.595-0.754c1.112,0.53,1.659,1.696,1.389,2.946
		c-1.77,8.205-1.659,16.527-1.624,24.846c0.004,0.874-0.382,1.601-1.396,2.635C890.469,189.729,865.052,189.729,839.271,189.729z"/>
	<path style="fill:#B1882F;" d="M547.661,184.672c0.263,3.378,0.263,3.378-1.741,5.8c-13.482-1.232-27.049,0.534-40.645,0.346
		c-3.645-0.05-5.579-1.749-5.101-5.5c0.214-1.675,1.508-2.419,2.791-3.265c4.007-2.642,4.636-4.008,3.04-8.246
		c-3.041-8.071-6.317-16.055-9.521-24.065c-1.055-2.637-3.13-3.741-5.897-3.738c-9.659,0.008-19.318,0.013-28.976,0.002
		c-2.82-0.003-4.808,1.22-5.716,3.911c-2.437,7.227-5.631,14.197-7.41,21.645c-1.129,4.729-0.013,7.404,4.095,10.221
		c3.89,2.668,3.929,2.798,2.23,8.06c-12.649,0-25.4,0-38.202,0c-1.683-1.943-1.379-3.901,0.029-6.142
		c1.316-0.524,2.887-1.051,4.372-1.76c3.388-1.618,6.044-4.039,7.924-7.336c2.481-4.352,4.202-9.031,6.006-13.671
		c13.167-33.86,26.309-67.73,39.456-101.598c0.718-1.85,1.509-3.66,1.837-5.66c0.32-1.957,1.438-3.427,3.607-3.515
		c2.302-0.094,3.532,1.167,4.317,3.34c4.113,11.391,8.313,22.751,12.546,34.098c9.978,26.741,20.34,53.332,30.892,79.853
		c3.118,7.836,7.641,13.499,16.296,15.089C545.154,182.775,546.536,183.07,547.661,184.672z M489.867,131.882
		c-4.941-12.75-9.674-24.963-14.645-37.791c-3.115,6.141-12.468,34.604-12.749,38.62
		C471.395,132.294,480.324,133.377,489.867,131.882z"/>
	<path style="fill:#B1882F;" d="M1196.508,190.143c-15.445-0.591-30.641,1.373-45.629,0.238c-1.295-2.409-1.208-4.333-0.581-6.43
		c0.743-0.548,1.509-1.183,2.342-1.715c3.768-2.408,4.655-4.185,3.083-8.241c-2.225-5.739-3.808-11.675-5.816-17.474
		c-3.171-9.158-8.29-12.538-17.879-11.269c-5.486,0.726-10.932,0.787-16.424,0.661c-6.486-0.149-9.68,2.005-11.331,8.212
		c-1.244,4.676-2.93,9.157-4.705,13.629c-0.55,1.386-1.118,2.797-1.397,4.251c-0.757,3.955,0.27,7.282,3.893,9.454
		c1.283,0.77,2.687,1.35,3.669,2.941c0.399,1.52,0.514,3.286-0.298,5.39c-12.713,0-25.453,0-38.185,0
		c-1.951-4.277-1.658-5.694,2.311-7.355c5.771-2.414,9.432-6.726,11.666-12.313c5.114-12.785,10.103-25.62,15.091-38.455
		c9.257-23.82,18.483-47.653,27.704-71.487c0.837-2.164,1.519-4.388,2.319-6.567c0.653-1.779,1.513-3.404,3.755-3.45
		c2.415-0.049,3.402,1.459,4.161,3.54c5.12,14.029,10.368,28.012,15.498,42.037c8.721,23.845,18.098,47.435,27.569,70.988
		c1.05,2.61,2.28,5.19,3.764,7.575c2.553,4.105,6.132,6.897,11.049,7.843C1197.144,183.108,1197.508,183.811,1196.508,190.143z
		 M1138.932,131.948c-0.187-4.197-11.94-34.514-14.658-38.122c-4.08,12.606-8.157,25.204-12.337,38.122
		C1121.167,131.948,1130.043,131.948,1138.932,131.948z"/>
	<path style="fill:#1C7068;" d="M782.791,251.441c1.057,0.843,1.563,1.254,2.077,1.655c8.487,6.604,7.891,19.097-1.188,24.906
		c-1.973,1.262-4.072,2.367-6.34,2.827c-6.498,1.317-12.997,2.313-19.728,1.576c-4.545-0.498-9.189-0.095-14.791-0.095
		c4.573-3.88,6.271-8.033,7.452-12.638c2.88-11.228,5.749-22.462,9.3-33.51c1.792-5.574,1.229-7.217-3.188-11.064
		c9.358,0,18.44-0.265,27.498,0.095c5.878,0.234,9.658,3.96,10.825,9.362c1.221,5.651-0.824,10.743-5.701,13.761
		C787.197,249.436,785.194,250.247,782.791,251.441z M764.721,254.693c-2.864,5.505-3.489,12.225-5.605,18.447
		c-0.467,1.374-0.481,2.987,1.086,4.571c3.739,1.105,7.809,0.693,11.748-0.731c7.13-2.577,9.255-10.081,7.783-16.467
		c-1.143-4.962-6.824-7.521-13.504-6.484C765.913,254.077,765.623,254.288,764.721,254.693z M765.871,249.235
		c3.467,1.406,6.359,0.17,9.236-0.303c8.765-1.442,10.371-8.188,9.943-13.67c-0.325-4.153-3.447-6.816-8.149-7.22
		c-3.785-0.325-5.707,1.131-6.935,5.553C768.555,238.674,767.289,243.793,765.871,249.235z"/>
	<path style="fill:#1C7068;" d="M1016.982,251.491c1.057,0.852,1.721,1.342,2.335,1.888c8.685,7.715,7.025,20.299-3.377,25.682
		c-5.949,3.079-12.48,3.205-18.924,3.623c-6.145,0.399-12.271-0.309-18.382-0.68c8.878-15.301,10.961-32.747,15.988-49.228
		c1.118-3.666,0.174-5.02-4.271-7.853c9.637-0.146,18.794-0.501,27.905,0.335c5.753,0.528,9.395,4.088,10.56,9.158
		c1.289,5.609-0.404,10.016-5.358,13.403C1021.552,249.123,1019.432,250.116,1016.982,251.491z M994.246,277.775
		c4.988,0.991,10.131,0.745,14.782-2.483c4.384-3.043,6.508-9.313,4.972-14.728c-1.269-4.473-4.978-5.974-9.08-6.645
		c-4.83-0.79-6.772,0.514-7.941,5.268c-1.069,4.35-1.975,8.735-3.565,12.946C992.753,273.883,992.574,275.701,994.246,277.775z
		 M1000.159,248.345c0.393,0.508,0.542,0.912,0.806,1.011c5.235,1.953,9.828,0.428,13.776-3.036
		c3.775-3.312,5.158-7.708,4.132-12.643c-0.638-3.069-4.645-5.562-8.539-5.669c-3.167-0.087-5.026,1.19-6.068,4.764
		C1002.747,237.985,1001.484,243.273,1000.159,248.345z"/>
	<path style="fill:#1C7068;" d="M432.1,253.453c-0.536,5.851,5.615,20.596,11.61,28.052c-0.465,0.174-0.891,0.388-1.341,0.494
		c-7.892,1.858-12.139-0.475-14.047-8.329c-1.384-5.698-3.909-10.897-6.046-16.275c-1.03-2.591-2.522-4.3-5.968-3.282
		c-2.227,6.398-3.961,13.102-5.457,19.865c-0.601,2.714-0.058,5.28,2.811,7.676c-6.298,0.685-11.802,0.197-18.109,0.423
		c5.051-6.339,7.623-13.075,9.028-20.214c1.765-8.964,4.496-17.653,7.043-26.396c1.206-4.14,1.366-7.816-3.93-10.392
		c9.45,0,17.934-0.204,26.404,0.055c9.289,0.283,13.573,5.304,12.893,14.478c-0.389,5.257-3.419,8.458-8.107,10.326
		C436.59,250.848,434.066,251.287,432.1,253.453z M417.865,248.422c6.461,2.963,16.558-0.37,18.519-6.386
		c2.587-7.938,0.146-13.204-8.602-13.839c-3.054-0.222-4.804,0.91-5.61,3.759C420.651,237.328,419.334,242.756,417.865,248.422z"/>
	<path style="fill:#22726A;" d="M357.416,222.438c2.29,4.29,2.719,8.596,3.466,12.755c1.288,7.18,2.119,14.442,3.351,21.633
		c1.426,8.323,3.214,16.574,6.492,24.797c-5.332,0-10.361,0-15.582,0c2.113-6.074,3.267-11.989,1.253-18.16
		c-5.621-1.713-11.068-0.759-16.468-0.279c-1.903,0.169-3.074,1.836-4.136,3.36c-3.273,4.697-3.706,9.744-1.559,15.234
		c-4.552,0.366-8.787,0.354-13.711-0.005C335.096,263.16,344.349,241.864,357.416,222.438z M341.257,257.669
		c4.584,1.449,8.642,2.151,12.433-0.465c1.286-7.253,0.459-13.877-2.264-17.494C348.043,245.685,344.73,251.537,341.257,257.669z"/>
	<path style="fill:#22726A;" d="M1132.997,265.036c-2.534-0.356-3.169,1.597-3.726,3.262c-1.05,3.141-1.864,6.351-2.501,9.623
		c-0.962,4.936-3.869,5.893-8.485,2.695c1.467-5.403,2.948-10.955,4.482-16.493c2.745-9.909,5.404-19.845,8.346-29.695
		c1.094-3.662,1.303-6.821-2.639-9.731c3.93-1.133,7.145-1.949,10.43-1.417c1.986,1.414,1.832,3.06,1.297,4.987
		c-2.617,9.428-5.129,18.885-7.69,28.328c-0.256,0.944-0.813,1.838-0.225,3.217c4.755-3.278,9.068-6.882,12.643-10.528
		c0.249-2.668-2.381-2.84-2.543-4.77c4.484,0,8.855,0,14.106,0c-6.001,5.032-11.382,9.544-16.792,14.081
		c1.832,6.922,3.98,13.27,8.181,18.52c2.777,0.107,3.343-3.168,6.282-2.907c-0.704,3.596-2.431,6.385-5.53,8.113
		c-3.242,1.808-6.847,0.557-8.784-3.13c-1.845-3.512-3.881-6.967-4.886-10.873C1134.634,267.042,1134.242,265.77,1132.997,265.036z"
		/>
	<path style="fill:#22726A;" d="M1210.769,249.673c-2.546-1.589-3.971-0.088-5.458,1.29c-5.977,5.541-10.177,12.249-12.987,19.85
		c-0.863,2.334-1.619,4.714-2.286,7.112c-1.369,4.92-2.791,5.594-7.9,3.604c-0.963-1.308-0.317-2.603,0.034-3.849
		c2.113-7.504,4.243-15.002,6.425-22.486c1.018-3.493,1.42-6.781-2.89-9.377c4.388-0.971,8.05-1.782,11.933-2.642
		c2.856,4.069-1.377,7.581-0.697,11.643c1.65-0.401,2.131-1.895,3.009-2.883c2.767-3.111,5.437-6.277,9.393-8.05
		c2.841-1.273,5.502-1.338,7.99,0.555c2.451,1.864,2.454,4.346,1.827,7.189c-1.395,6.328-3.253,12.517-5.007,18.744
		c-0.52,1.845-1.761,3.692-0.871,5.655c1.221,1.832,3.262,0.341,4.78,1.471c-1.051,2.178-2.717,3.717-4.84,4.776
		c-2.429,1.212-4.82,1.134-7.036-0.524c-2.108-1.578-1.814-3.655-1.208-5.859c1.846-6.722,3.581-13.475,5.453-20.19
		C1210.974,253.761,1211.651,251.896,1210.769,249.673z"/>
	<path style="fill:#22736C;" d="M1083.261,250.2c-1.96-1.543-3.37-2.653-4.903-3.86c4.351-1.636,8.85-1.935,13.349-3.226
		c3.07,4.096-2.844,7.719-0.569,11.736c1.859-0.884,2.42-2.783,3.608-4.101c2.475-2.743,5.149-5.213,8.419-6.946
		c2.74-1.452,5.54-1.206,8.013,0.545c2.291,1.622,2.507,4.024,1.996,6.683c-1.285,6.689-3.278,13.182-5.118,19.722
		c-0.529,1.88-1.599,3.695-1.069,5.745c1.069,1.658,2.922-0.411,4.202,1.077c-0.999,3.296-3.473,5.058-6.76,5.499
		c-4.169,0.559-6.683-2.205-5.713-6.355c1.81-7.743,3.827-15.438,5.854-23.128c0.498-1.889,0.974-3.571-1.163-4.58
		c-5.936,0.105-6.704,7.336-12.059,8.329c-2.499,6.919-4.924,13.962-7.594,20.911c-1.962,5.107-2.821,5.333-8.501,3.129
		C1077.566,271.004,1081.145,260.879,1083.261,250.2z"/>
	<path style="fill:#22726A;" d="M1052.063,276.434c-4.064,6.037-8.837,8.126-13.944,6.347c-4.721-1.644-7.152-5.488-6.895-10.898
		c0.542-11.406,10.42-24.658,21.291-28.522c2.579-0.917,5.377-1.334,7.722,0.114c2.554,1.578,5.058,2.284,7.978,1.827
		c0.854-0.134,1.637,0.182,2.534,1.612c-2.169,9.231-4.599,18.942-7.643,28.626c0.758,2.016,3.654,0.058,4.56,2.482
		c-0.668,2.465-2.761,3.74-5.16,4.542c-3.422,1.143-5.166,0.189-6.481-3.289c-0.292-0.773-0.558-1.557-0.881-2.316
		c-1.664-3.905-1.111-7.249,1.808-10.535c3.697-4.162,4.928-9.337,4.61-14.841c-0.306-5.298-3.482-7.021-8.119-4.443
		c-1.448,0.805-2.751,1.82-3.858,3.104c-4.411,5.115-7.519,10.903-9.132,17.466c-0.274,1.114-0.414,2.291-0.414,3.438
		c0.003,5.24,1.989,6.954,7.075,6.168C1048.678,277.074,1050.232,276.762,1052.063,276.434z"/>
	<path style="fill:#22726A;" d="M606.182,254.187c2.838-2.782,5.672-5.567,8.514-8.346c1.329-1.299,2.87-2.312,4.677-2.727
		c5.503-1.263,9.416,2.574,8.35,8.338c-1.024,5.541-2.723,10.922-4.258,16.342c-0.833,2.941-2.163,5.903-1.356,9.038
		c1.886,0.577,2.653-1.602,4.259-1.304c0.612,0.466,0.839,1.23,0.519,1.767c-1.298,2.176-3.125,3.896-5.346,5.088
		c-2.18,1.17-5.642,0.769-7.017-0.786c-1.16-1.311-1.346-2.806-0.853-4.617c1.959-7.188,3.731-14.428,5.58-21.646
		c0.082-0.319,0.258-0.613,0.361-0.928c0.59-1.811,1.005-3.665-0.949-4.902c-2.132-1.349-3.776-0.211-5.231,1.346
		c-6.792,7.268-11.902,15.496-14.403,25.217c-0.247,0.961-0.468,1.939-0.829,2.859c-1.81,4.605-4.343,5.004-8.076,1.242
		c2.375-8.562,4.789-17.154,7.133-25.765c1.231-4.522,1.104-4.742-2.971-8.191c4.065-1.735,8.28-2.065,12.413-3.095
		c1.332,3.924-0.881,7.067-1.281,10.438c-0.304,0.383-0.572,0.898-0.135,1.216C605.799,255.144,606.002,254.579,606.182,254.187z"/>
	<path style="fill:#22726A;" d="M679.983,269.411c0.072-11.454,11.027-24.41,22.26-26.309c11.001-1.86,18.004,4.906,16.903,15.568
		c-1.179,11.411-13.708,23.902-24.909,24.472C684.912,283.616,679.924,278.811,679.983,269.411z M710.978,254.652
		c0.086-3.777-0.347-6.834-3.538-8.255c-3.241-1.444-6.208-0.291-8.623,2.094c-6.661,6.577-10.033,14.691-10.782,23.926
		c-0.282,3.484,1.29,6.014,4.478,7.613c3.31,1.66,5.705,0.179,8.008-1.999C707.421,271.503,710.18,263.181,710.978,254.652z"/>
	<path style="fill:#22726A;" d="M912.53,275.569c-4.159,6.316-13.061,9.547-19.703,7.15c-6.019-2.172-8.076-9.196-7.41-14.456
		c1.346-10.644,12.22-22.599,22.631-24.96c1.911-0.433,4.007-0.462,5.96-0.216c4.164,0.526,6.691,4.917,5.365,8.949
		c-1.319,4.013-4.199,6.738-7.62,8.92c-3.548,2.263-7.467,3.492-11.653,4.145c-4.274,0.667-6.296,2.947-5.987,6.018
		c0.444,4.428,3.195,6.942,7.535,6.99c2.057,0.023,3.939-0.439,5.721-1.465C908.938,275.742,910.542,274.825,912.53,275.569z
		 M909.906,246.044c-6.595,2.303-12.421,9.866-12.456,16.13c8.098-0.897,13.506-5.482,15.399-13.085
		C912.241,247.721,911.51,246.447,909.906,246.044z"/>
	<path style="fill:#22726A;" d="M825.985,275.318c-4.667,6.431-12.32,9.495-19.246,7.504c-4.387-1.261-6.957-4.492-7.684-8.93
		c-0.796-4.857-0.313-9.668,2.159-14.019c3.605-6.343,8.538-11.413,15.096-14.775c2.692-1.38,5.526-2.154,8.583-2.269
		c3.384-0.127,5.75,1.32,7.293,4.217c1.516,2.846,0.747,5.516-0.974,7.934c-3.978,5.59-9.727,8.363-16.21,9.882
		c-0.967,0.227-1.985,0.262-2.929,0.551c-3.353,1.029-4.842,2.76-4.845,5.491c-0.004,3.287,2.201,6.266,5.382,6.962
		c2.481,0.543,4.905,0.28,7.281-0.845C821.763,276.135,823.581,274.746,825.985,275.318z M822.849,246.037
		c-6.886,2.966-12.295,10.096-12.306,16.189c8.278-1.237,13.662-5.891,15.251-13.32
		C825.129,247.721,824.513,246.356,822.849,246.037z"/>
	<path style="fill:#22726A;" d="M476.904,275.175c-3.84,8.647-16.475,10.014-21.754,5.454c-4.936-4.264-5.136-9.754-3.635-15.085
		c3.088-10.966,10.572-18.174,21.23-22.101c1.6-0.589,3.302-0.274,4.936-0.488c5.195-0.681,9.657,5.356,6.234,11.246
		c-2.412,4.151-6.243,6.849-10.589,8.739c-2.427,1.055-4.992,1.671-7.633,2.123c-4.826,0.826-6.424,2.896-5.863,6.954
		c0.574,4.149,3.145,6.061,7.639,6.121C470.893,278.184,473.576,276.009,476.904,275.175z M461.525,262.92
		c7.216-1.534,12.609-4.234,15.692-10.363c1.708-3.396,1.351-4.295-2.615-6.639C467.853,249.268,464.342,255.233,461.525,262.92z"/>
	<path style="fill:#22736C;" d="M927.238,245.94c2.587-1.501,5.214-2.459,7.967-2.872c4.278-0.643,6.914,1.459,4.77,5.652
		c-0.29,0.567-0.489,1.18-0.737,1.788c1.324,1.047,2.14,0.055,2.947-0.755c1.764-1.768,3.369-3.716,5.265-5.324
		c2.529-2.145,5.559-1.878,7.562,0.412c1.507,1.723,1.573,3.647,0.39,5.511c-1.084,1.706-2.677,2.331-4.746,1.805
		c-1.471-0.374-2.461-1.794-4.57-1.661c-2.942,2.465-4.844,6.189-6.825,9.77c-3.065,5.542-4.995,11.583-6.978,17.574
		c-1.811,5.47-2.71,5.911-8.389,3.297c1.255-4.877,2.495-9.827,3.81-14.757c1.07-4.01,2.242-7.993,3.347-11.994
		C932.554,248.943,932.394,248.588,927.238,245.94z"/>
	<path style="fill:#22736C;" d="M565.063,249.924c-1.501-2.375-3.629-2.33-5.569-3.942c4.114-1.992,7.916-3.476,11.986-2.97
		c2.556,2.587,0.592,5.504,1.548,7.999c2.004-0.086,2.618-1.893,3.749-2.992c1.546-1.501,2.844-3.285,4.759-4.358
		c2.115-1.185,4.162-0.929,5.99,0.656c1.725,1.496,2.046,3.356,1.148,5.409c-0.989,2.26-2.912,3.137-5.293,2.31
		c-1.229-0.427-2.359-1.139-3.293-1.604c-1.636,0.156-2.272,1.158-2.952,2.096c-5.627,7.762-9.213,16.436-11.687,25.652
		c-1.294,4.82-3.369,5.543-8.443,3.006C559.686,270.785,562.397,260.269,565.063,249.924z"/>
	<path style="fill:#22736C;" d="M674.534,234c2.82,3.227-1.034,6.256,0.285,9.313c1.088,1.577,3.169,0.137,4.566,1.318
		c0.752,1.001,0.704,2.04-0.183,3.141c-2.043,0.919-4.709-0.21-7.099,2.403c-2.245,8.291-4.698,17.351-7.284,26.901
		c3.758-0.456,4.926-3.872,7.572-4.91c1.321,0.873,0.494,1.769,0.052,2.541c-1.51,2.635-3.654,4.74-5.944,6.681
		c-1.145,0.97-2.465,1.643-4.047,1.75c-4.222,0.284-6.56-2.347-5.462-6.465c2.008-7.532,4.129-15.035,6.264-22.532
		c0.456-1.601,1.174-3.126,0.416-4.797c-0.771-1.826-3.052-1.2-4.317-2.801C665.071,243.2,669.952,238.862,674.534,234z"/>
	<path style="fill:#22736C;" d="M499.381,277.385c1.493-0.194,2.26-1.992,4.245-1.786c0.263,3.503-2.615,4.715-4.676,6.352
		c-1.822,1.447-4.049,1.454-6.166,0.639c-2.433-0.936-3.309-2.975-2.436-6.279c1.82-6.886,3.787-13.734,5.772-20.576
		c0.555-1.913,1.456-3.736,0.85-5.853c-1.445-2.407-4.032-1.731-6.744-2.267c6.56-3.931,12.899-7.538,17.123-13.73
		c3.274,3.31-0.111,6.331,0.419,9.383c1.412,1.845,4.453-0.306,5.7,2.419c0.054,2.025-1.3,2.613-3.19,2.433
		c-2.981-0.284-4.65,1.044-5.429,3.898c-2.224,8.151-4.642,16.25-6.339,24.537c-0.336,0.375-0.618,0.863-0.211,1.243
		C498.758,278.228,499.092,277.732,499.381,277.385z"/>
	<path style="fill:#22736C;" d="M870.175,276.293c1.016,2.384,2.879,1.195,4.488,1.941c-1.171,1.888-2.793,3.124-4.601,4.113
		c-2.219,1.213-4.469,1.151-6.563-0.32c-1.987-1.396-1.799-3.539-1.343-5.449c1.266-5.309,2.732-10.571,4.176-15.837
		c0.656-2.393,1.402-4.765,2.193-7.117c0.432-1.286,0.756-2.535,0.324-3.835c-1.489-2.158-3.881-1.549-6.48-2.099
		c6.524-4.094,12.752-7.914,17.232-14.108c3.048,3.615-1.086,6.838,0.572,9.955c1.18,1.141,2.912,0.065,4.308,1.018
		c0.908,0.853,0.897,1.884,0.261,2.899c-0.747,0.792-1.604,0.624-2.416,0.589c-2.844-0.123-4.781,0.99-5.554,3.871
		C874.552,260.183,872.302,268.442,870.175,276.293z"/>
	<path style="fill:#22736C;" d="M838.229,281.089c-0.375-2.247-0.162-4.142,0.406-6.123c2.054-7.167,3.903-14.392,5.88-21.581
		c0.439-1.596,1.132-3.13,0.366-4.821c-1.594-1.337-3.501-0.643-5.834-0.897c5.981-4.183,11.737-8.045,16.138-13.63
		c3.397,3.183-0.553,6.42,0.505,9.281c1.337,1.289,3.043,0.37,4.428,1.12c0.974,0.891,1.049,1.917,0.343,2.981
		c-1.007,1.055-2.246,0.542-3.357,0.711c-2.123,0.323-3.687,1.306-4.313,3.546c-2.267,8.107-4.588,16.2-6.792,23.96
		c0.951,2.202,2.871,1.122,4.052,1.885C848.094,283.131,843.54,284.578,838.229,281.089z"/>
	<path style="fill:#22736C;" d="M1159.583,247.01c4.115-2.286,7.507-3.833,11.366-3.994c4.453-0.186,5.8,1.552,4.271,5.811
		c-2.683,7.476-4.463,15.21-6.764,22.794c-0.522,1.721-0.896,3.476-0.372,5.189c1.883,0.639,2.839-1.215,4.354-1.094
		c0.398,3.478-2.797,7.081-6.498,7.296c-3.999,0.233-6.876-2.403-6.185-6.469c0.855-5.03,2.406-9.945,3.715-14.894
		c0.675-2.553,1.523-5.06,2.205-7.61c0.468-1.752,0.948-3.541,0.176-5.286C1164.428,246.993,1162.193,247.689,1159.583,247.01z"/>
	<path style="fill:#22736C;" d="M543.962,276.784c2.101,0.653,2.999-1.326,4.587-1.06c1.19,1.594,0.138,2.822-0.921,3.842
		c-1.804,1.737-3.794,3.322-6.461,3.405c-2.95,0.091-5.327-2.604-4.981-6.173c1.064-10.982,3.62-21.583,8.879-31.395
		c0.228-0.426,0.661-0.741,1.087-1.203c2.216-0.64,4.385-0.675,6.489,0.9C549.214,255.73,546.821,266.29,543.962,276.784z"/>
	<path style="fill:#387D76;" d="M1288.788,255.037c-9.538-0.032-16.592-7.005-16.148-16.39c0.506-10.689,7.736-16.387,16.552-16.276
		c8.528,0.107,16.129,6.21,16.258,16.692C1305.565,248.409,1298.442,255.069,1288.788,255.037z M1289.01,225.747
		c-7.05-0.02-13.013,5.861-13.099,12.922c-0.089,7.31,5.927,13.544,13.057,13.529c7.042-0.015,13.303-6.417,13.219-13.516
		C1302.105,231.753,1296.006,225.767,1289.01,225.747z"/>
	<path style="fill:#22736C;" d="M1176.808,233.708c-1.792,0.402-3.253,0.49-4.791-0.156c-1.985-1.87-2.583-4.12-1.246-6.653
		c1.251-2.369,3.388-2.306,5.583-1.782C1179.817,229.032,1179.831,229.243,1176.808,233.708z"/>
	<path style="fill:#176F67;" d="M30.609,217.517c-1.635-2.112-1.509-4.298-1.496-6.466c0.066-11.494,0.17-22.987,0.177-34.481
		c0.023-35.646,0.022-71.293,0-106.939c-0.006-10.16-0.155-20.32-0.159-30.479c-0.002-5.622,1.519-7.021,7.168-7.015
		c55.312,0.056,110.624,0.106,165.936,0.166c2.466,0.003,5.043-0.401,7.054,1.526c1.145,3.981,1.288,178.445,0.15,183.233
		c-1.551,1.398-3.488,1.646-5.525,1.645c-17.328-0.009-34.671,0.452-51.979-0.127c-19.151-0.642-38.302-0.667-57.427-0.248
		c-18.983,0.415-37.956,0.077-56.931,0.378C35.236,218.746,32.917,218.746,30.609,217.517z M123.541,115.83
		c2.063,3.969,3.787,7.355,5.578,10.705c1.153,2.157,3.002,2.827,5.429,2.651c11.148-0.807,22.188-2.274,32.664-6.337
		c8.719-3.382,16.229-8.455,20.691-17.089c7.045-13.634,2.192-33.663-10.554-43.707c-7.806-6.151-16.814-8.368-26.572-8.357
		c-28.996,0.033-57.992,0.012-86.989,0.012c-3.166,0-6.336-0.087-9.498,0.026c-4.226,0.151-5.273,1.099-5.434,5.416
		c-0.167,4.488,0.03,8.99,0.031,13.485c0.006,36.495,0.009,72.99-0.004,109.486c-0.001,3.989,0.163,7.978-0.629,11.947
		c-0.319,1.602-0.234,3.342-0.026,4.98c0.524,4.115,2.447,5.778,6.631,5.93c1.161,0.042,2.348,0.052,3.489-0.136
		c3.295-0.541,6.523-0.774,9.898-0.223c3.448,0.563,5.56-1.52,5.957-5.118c0.109-0.99,0.085-1.997,0.085-2.996
		c0.003-40.328,0.009-80.656-0.007-120.984c-0.002-5.609,0.71-6.489,6.202-6.391c8.494,0.152,16.983,0.213,25.479,0.004
		c11.322-0.279,22.637,0.072,33.922,1.037c2.295,0.196,4.59,0.763,6.807,1.421c8.162,2.425,12.996,7.935,14.002,16.36
		c1.016,8.514-1.401,15.843-8.826,20.875c-4.196,2.844-8.981,4.127-13.893,5.21C133.442,115.037,128.748,114.599,123.541,115.83z
		 M123.909,146.993c2.508,0,4.657,0.039,6.803-0.008c4.341-0.097,8.645,0.175,12.904,1.069c6.229,1.307,12.231,3.151,17.234,7.319
		c6.394,5.327,8.616,12.327,6.7,20.16c-1.806,7.385-7.621,11.221-14.766,12.446c-12.378,2.122-24.909,0.759-37.374,0.904
		c-1.971,0.023-3.194-1.376-3.719-3.441c-0.381-1.496-0.393-2.959-0.391-4.448c0.013-8.815,0.233-17.626,0.409-26.437
		c0.233-11.632,0.299-23.278-0.31-34.93c-0.52-9.955-0.072-19.942,0.798-29.913c0.573-6.572-1.844-8.77-8.379-8.803
		c-3.827-0.019-7.655,0.193-11.483,0.259c-5.571,0.095-6.352,0.841-6.443,6.332c-0.019,1.166-0.003,2.332-0.003,3.498
		c0,32.48,0,64.961,0,97.441c0,3.165-0.041,6.331,0.009,9.495c0.087,5.48,0.915,6.3,6.508,6.341
		c2.996,0.022,5.992-0.157,8.988-0.159c20.156-0.016,40.312,0.034,60.468-0.022c14.752-0.042,25.158-7.121,30.678-20.565
		c6.337-15.436,2.711-29.624-11.553-39.383c-4.834-3.307-10.175-5.565-15.801-7.2c-7.706-2.239-15.654-3.014-23.572-3.823
		c-10.868-1.111-14.273,1.322-17.514,11.746C123.957,145.335,124.005,145.857,123.909,146.993z"/>
	<path style="fill:#22736C;" d="M1282.421,247.921c-0.452-4.647-1.879-9.027-0.524-13.65c1.035-3.531,1.958-4.389,5.552-4.255
		c2.497,0.093,4.799,0.801,7.437,2.504c-3.015,1.235-5.586,0.089-8.025,0.403c-1.915,1.282-2.235,2.78-0.87,4.514
		c2.538,1.81,4.807-0.923,7.75-0.126c-0.733,1.54-1.395,3.159-0.485,4.84c0.757,1.399,2.138,2.572,1.816,4.506
		c-2.344,1.233-3.138-0.468-4.127-2.068c-1.169-1.892-2.131-4.33-5.221-3.193C1284.256,243.342,1285.768,246.624,1282.421,247.921z"
		/>
</g>
</svg>
