<?xml version="1.0" encoding="iso-8859-1"?>
<!-- Generator: Adobe Illustrator 27.0.0, SVG Export Plug-In . SVG Version: 6.00 Build 0)  -->
<svg version="1.1" id="Layer_1" xmlns="http://www.w3.org/2000/svg" xmlns:xlink="http://www.w3.org/1999/xlink" x="0px" y="0px"
	 viewBox="0 0 1587 411.149" style="enable-background:new 0 0 1587 411.149;" xml:space="preserve">
<g>
	<path style="fill:#06598B;" d="M1586.107,162.201c-2.085,30.391-12.587,57.554-31.236,81.611
		c-15.306,19.744-34.489,34.604-57.199,44.806c-13.223,5.94-27.079,9.86-41.553,11.686c-11.465,1.446-22.946,1.648-34.354,0.58
		c-19.363-1.811-37.729-7.351-54.983-16.501c-26.148-13.868-46.479-33.695-61.082-59.377c-9.468-16.651-15.25-34.554-17.829-53.551
		c-1.599-11.781-1.816-23.603-0.629-35.346c2.552-25.242,10.871-48.54,25.377-69.457c23.814-34.339,56.29-55.783,97.376-63.151
		c37.451-6.717,72.963-0.255,105.364,19.996c36.538,22.836,59.166,55.748,68.312,97.841c1.195,5.501,2.113,11.106,2.346,16.775
		c0.033,0.808-0.079,1.694,0.983,1.999c0,0.667,0,1.333,0,2c-0.99,0.306-1.031,1.104-1.024,1.943
		C1586.023,150.103,1586.064,156.152,1586.107,162.201z M1436.605,53.807c-52.946-0.434-97.577,42.689-97.711,97.573
		c-0.126,51.711,41.32,97.748,97.624,97.775c56.245,0.027,97.944-45.92,97.681-98.191
		C1533.927,96.856,1489.786,53.414,1436.605,53.807z"/>
	<path style="fill:#CACFDE;" d="M0,142.111c0.266-0.062,0.534-0.077,0.805-0.044c0.058,1.659,0.167,3.318,0.168,4.977
		c0.015,72.208,0.02,144.417,0.019,216.626c0,1.16-0.102,2.32-0.157,3.481c0,0-0.418,0-0.418,0L0,367.111
		C0,292.111,0,217.111,0,142.111z"/>
	<path style="fill:#8495B6;" d="M1586.107,162.201c-0.043-6.049-0.084-12.098-0.131-18.147c-0.007-0.839,0.034-1.637,1.024-1.943
		c0,6.667,0,13.333,0,20C1586.696,162.081,1586.399,162.111,1586.107,162.201z"/>
	<path style="fill:#05598B;" d="M0.835,367.15c0.054-1.16,0.157-2.32,0.157-3.481c0.001-72.208-0.004-144.417-0.019-216.626
		c0-1.659-0.109-3.318-0.168-4.977c2.434-34.158,14.831-64.237,37.535-89.844c22.225-25.066,49.884-41.424,82.783-47.692
		c38.178-7.274,74.491-1.43,107.781,19.299c33.995,21.168,56.125,51.359,66.642,89.959c2.844,10.438,4.066,21.173,4.628,32.014
		c1.202,23.209-3.247,45.309-12.702,66.395c-12.979,28.946-33.241,51.538-60.453,67.849c-19.109,11.453-39.778,18.118-61.968,20.269
		c-41.149,3.99-77.503-7.69-109.71-33.179c-0.772-0.611-1.442-1.397-3.013-1.596c-0.567,45.05,0.654,90.041,0.347,135.071
		c-4.62,3.506-9.117,6.917-13.846,10.505c-9.198,0.445-16.524-3.871-22.462-10.546C7.891,391.044,2.747,379.809,0.835,367.15z
		 M52.864,151.043c-0.504,51.947,41.028,97.882,97.208,98.112c56.16,0.23,98.175-45.605,98.04-97.843
		c-0.141-54.648-44.662-97.661-97.788-97.599C97.104,53.775,52.795,97.035,52.864,151.043z"/>
	<path style="fill:#075A8B;" d="M797.198,175.78c-21.832,0-43.666,0.184-65.495-0.063c-15.242-0.173-30.118-2.826-44.14-9.055
		c-19.247-8.549-30.826-23.014-33.743-44.178c-1.998-14.492,0.374-28.17,7.068-41.072c18.928-36.484,48.281-60.906,86.978-74.112
		c20.271-6.918,41.191-8.558,62.519-6.433c26.475,2.638,50.206,12.225,71.698,27.571c19.881,14.195,34.966,32.597,46.395,54.095
		c2.07,3.894,2.236,8.02,1.365,12.146c-1.286,6.089-5.65,9.519-11.886,10.378c-9.046,1.246-17.881,0.514-26.653-1.891
		c-7.757-2.126-14.311-5.969-19.455-12.29c-9.783-12.022-21.294-21.986-35.377-28.734c-10.732-5.143-21.929-8.382-33.898-9.262
		c-30.804-2.265-56.822,7.876-78.526,29.568c-6.164,6.16-11.047,13.286-15.309,20.871c-2.178,3.877-2.307,8.045-1.575,12.136
		c0.84,4.695,4.305,7.305,8.714,8.68c3.877,1.208,7.886,1.103,11.88,1.103c42.164,0.002,84.329-0.207,126.491,0.1
		c17.914,0.131,35.401,3.154,51.509,11.732c14.818,7.891,24.382,19.958,27.957,36.343c2.942,13.481,1.472,26.814-3.239,39.749
		c-5.745,15.773-15.646,28.859-26.951,40.979c-18.105,19.409-39.951,32.932-65.268,40.741c-12.588,3.883-25.545,5.746-38.735,6.469
		c-16.148,0.886-31.916-1.176-47.277-5.722c-18.154-5.372-34.839-13.883-49.742-25.729c-17.591-13.983-31.562-30.921-42.025-50.795
		c-2.288-4.346-3.059-8.761-1.402-13.453c1.53-4.335,4.17-7.584,8.938-8.496c12.934-2.476,25.485-1.375,37.488,4.267
		c5.242,2.464,9.252,6.438,12.837,10.898c17.115,21.295,39.403,33.812,66.417,36.395c28.304,2.706,53.581-5.721,74.922-24.884
		c7.856-7.054,14.42-15.188,19.661-24.399c2.656-4.667,2.91-9.583,1.457-14.442c-1.512-5.057-5.596-7.744-10.634-8.75
		c-2.262-0.452-4.64-0.438-6.966-0.441C841.195,175.768,819.197,175.78,797.198,175.78z"/>
	<path style="fill:#06598B;" d="M629.092,151.349c0.275,82.177-65.979,150.351-149.866,150.233
		c-85.167-0.12-150.056-68.446-150.191-149.993C328.899,68.441,395.723,1.342,478.745,1.122
		C563.283,0.898,629.518,69.783,629.092,151.349z M478.995,53.802c-51.672-0.291-97.374,40.858-97.545,97.246
		c-0.167,55.175,43.488,98.166,97.767,98.096c55.245-0.071,97.894-44.393,97.559-98.304
		C576.431,95.337,531.296,53.359,478.995,53.802z"/>
	<path style="fill:#06598B;" d="M1012.833,151.048c-0.039,27.289,9.476,50.779,28.72,70.055
		c15.146,15.172,33.568,24.372,54.906,27.059c32.819,4.132,61.027-5.71,84.533-28.93c4.99-4.929,8.95-10.729,12.806-16.57
		c3.594-5.443,7.656-10.452,12.664-14.698c8.367-7.095,17.909-11.42,28.855-12.337c3.463-0.29,7.008,0.134,10.363,1.083
		c7.582,2.144,11.021,9.197,8.609,17.485c-5.41,18.588-14.29,35.396-26.355,50.499c-19.115,23.929-43.32,40.585-72.443,49.991
		c-11.42,3.689-23.175,5.809-35.186,6.562c-25.363,1.591-49.674-2.556-72.761-13.253c-28.629-13.263-50.998-33.529-66.927-60.769
		c-10.095-17.264-16.295-35.859-18.874-55.748c-5.281-40.727,4.134-77.685,28.701-110.46c22.311-29.766,52.032-48.664,88.374-56.64
		c19.358-4.248,38.919-4.412,58.502-0.741c31.029,5.818,57.576,19.997,79.719,42.385c17.891,18.088,30.202,39.531,37.448,63.893
		c2.578,8.669-3.248,16.479-12.848,17.247c-14.719,1.178-27.029-4.134-37.539-14.125c-4.733-4.499-8.484-9.783-12.079-15.219
		c-12.464-18.847-29.424-32.326-50.923-38.934c-39.574-12.164-74.32-3.133-103.011,26.775
		c-13.435,14.004-21.217,31.185-24.288,50.458C1013.004,141.093,1012.799,146.041,1012.833,151.048z"/>
</g>
</svg>
