<?xml version="1.0" encoding="iso-8859-1"?>
<!-- Generator: Adobe Illustrator 27.0.0, SVG Export Plug-In . SVG Version: 6.00 Build 0)  -->
<svg version="1.1" id="Layer_1" xmlns="http://www.w3.org/2000/svg" xmlns:xlink="http://www.w3.org/1999/xlink" x="0px" y="0px"
	 viewBox="0 0 648 159.179" style="enable-background:new 0 0 648 159.179;" xml:space="preserve">
<g>
	<path style="fill:#0E456B;" d="M0,57.811c4.919,0.006,9.839,0.012,14.758,0.017c4.159,0.004,8.321,0.086,12.457,0.505
		c4.901,0.496,9.435,2.107,13.295,5.231c3.835,3.104,5.861,7.181,6.021,12.14c0.058,1.797,0.07,3.595-0.238,5.373
		c-0.373,2.146-1.207,4.125-2.347,5.972c-1.987,3.218-4.782,5.542-8.162,7.177c-3.458,1.672-7.117,2.519-10.963,2.682
		c-2.557,0.108-5.114,0.178-7.672,0.249c-0.592,0.016-1.19,0.005-1.836,0.225c-0.203,7.05-0.133,14.105-0.204,21.3
		c-5.065,0-10.087,0-15.109,0C0,98.39,0,78.101,0,57.811z M15.007,68.031c-0.449,1.852-0.575,14.095-0.203,18.94
		c1.912-0.155,3.829-0.156,5.741-0.118c2.376,0.047,4.586-0.536,6.692-1.549c4.983-2.396,6.093-8.406,3.924-12.339
		c-1.323-2.399-3.478-3.706-6.033-4.341c-2.755-0.685-5.597-0.81-8.424-0.979C16.093,67.609,15.516,67.697,15.007,68.031z"/>
	<path style="fill:#4B8343;" d="M643.451,66.932c0.697-0.246,1.249,0.061,1.734,0.498c1.064,0.959,2.072,1.968,2.579,3.356
		c0.043,0.118,0.1,0.203,0.236,0.206c0,1.198,0,2.396,0,3.595c-0.553,0.801-0.99,1.673-1.64,2.417
		c-3.083,3.53-8.239,2.863-10.477-1.34c-1.752-3.29-0.015-7.184,2.602-8.603c0.324-0.176,0.662-0.495,1.104-0.263
		c0.032,0.223-0.071,0.502,0.25,0.608c-0.103,0.353-0.448,0.427-0.709,0.573c-2.26,1.263-3.471,4.419-2.155,7.181
		c1.206,2.532,4.409,3.868,6.846,2.583c2.214-1.168,3.383-3.482,2.816-6.163c-0.398-1.883-1.623-3.145-3.266-4.048
		C643.397,67.331,643.424,67.132,643.451,66.932z"/>
	<path style="fill:#759968;" d="M259.209,158.944c-0.003,0.078-0.006,0.156-0.009,0.234c-2.8,0-5.6,0-8.4,0
		c-0.004-0.069-0.014-0.137-0.03-0.205C253.583,158.964,256.396,158.954,259.209,158.944z"/>
	<path style="fill:#B0C0A4;" d="M250.77,158.974c0.016,0.067,0.026,0.136,0.03,0.205c-1.12,0-2.24,0-3.36,0
		c0.029-0.075,0.025-0.148-0.012-0.219C248.542,158.964,249.656,158.969,250.77,158.974z"/>
	<path style="fill:#10466B;" d="M152.438,126.928c0.111-2.166,0.182-4.306,0.345-6.439c0.099-1.297-0.013-2.505-0.54-3.725
		c-3.367-7.777-6.688-15.575-10.029-23.363c-2.76-6.435-5.524-12.869-8.297-19.299c-0.212-0.492-0.351-1.049-0.985-1.528
		c-0.354,15.426-0.143,30.691-0.227,46.029c-4.684,0-9.34,0-14.002,0c-0.293-1.383-0.14-58.509,0.168-60.509
		c1.243-0.38,18.822-0.386,20.373,0.01c0.92,1.483,1.595,3.144,2.291,4.783c4.85,11.428,9.667,22.87,14.506,34.303
		c0.145,0.342,0.189,0.796,0.685,0.935c0.476-0.253,0.518-0.78,0.657-1.204c3.001-9.202,7.277-17.761,13.154-25.462
		c6.214-8.143,13.698-14.908,22.54-20.156c6.735-3.997,13.854-7.007,21.524-8.669c3.84-0.832,7.735-1.138,11.656-1.162
		c3.197-0.02,6.401-0.074,9.578,0.336c5.714,0.738,11.286,2.035,16.601,4.332c5.384,2.327,10.164,5.489,14.128,9.849
		c3.854,4.239,6.598,9.072,8.017,14.63c0.465,1.82,0.675,3.679,0.746,5.556c0.171,4.547-0.721,8.854-2.868,12.884
		c-0.184,0.346-0.318,0.732-0.704,1.008c-0.173-0.334-0.026-0.599,0.089-0.876c1.239-2.976,1.396-6.099,1.352-9.272
		c-0.082-5.891-2.437-10.906-5.979-15.418c-4.073-5.189-9.436-8.638-15.558-10.967c-4.156-1.581-8.458-2.645-12.872-3.064
		c-3.538-0.336-7.112-0.218-10.67-0.14c-1.714,0.037-3.43,0.006-5.143,0.204c-5.441,0.629-10.771,1.715-15.985,3.426
		c-9.365,3.074-17.624,8.03-24.875,14.628c-9.043,8.229-15.805,18.118-20.823,29.23c-2.792,6.182-5.024,12.552-6.607,19.149
		c-0.735,3.061-1.269,6.158-1.805,9.256C152.834,126.487,152.893,126.807,152.438,126.928z"/>
	<path style="fill:#0F466B;" d="M67.182,118.631c-4.639,0-9.152,0-13.823,0c-0.014-4.06-0.03-8.075-0.041-12.089
		c-0.012-4.033-0.021-8.067-0.028-12.1c-0.006-4.073-0.008-8.147-0.01-12.22c-0.002-4.033-0.026-8.067,0.007-12.1
		c0.033-4.015-0.163-8.037,0.175-12.142c5.648-0.283,11.158-0.037,16.753-0.105c7.289,14.634,14.575,29.262,21.957,44.083
		c0.312-0.61,0.226-1.045,0.239-1.453c0.384-12.416,0.153-24.836,0.266-37.254c0.016-1.748,0.161-3.496,0.251-5.334
		c4.437-0.111,8.819-0.07,13.161-0.025c0.323,0.3,0.216,0.642,0.223,0.943c0.081,3.233,0.204,6.466,0.21,9.699
		c0.03,16.294,0.029,32.587,0.038,48.881c0,0.389,0,0.778,0,1.204c-5.963,0-11.829,0-17.801,0
		c-3.509-6.844-6.98-13.701-10.532-20.516c-3.527-6.768-6.899-13.618-10.689-20.281C67.108,91.423,67.288,104.983,67.182,118.631z"
		/>
	<path style="fill:#3F7F3D;" d="M240.712,74.577c0.125,0.391-0.245,0.453-0.432,0.612c-3.296,2.803-5.458,6.316-6.594,10.472
		c-0.147,0.536-0.316,1.08-0.355,1.628c-0.158,2.193-0.19,4.4,0.008,6.582c0.212,2.324,1.114,4.472,2.279,6.496
		c2.018,3.504,4.964,5.993,8.548,7.786c2.553,1.277,5.248,2.139,8.062,2.557c1.695,0.252,3.423,0.371,5.141,0.248
		c1.948-0.139,3.914-0.113,5.835-0.544c4.026-0.902,7.692-2.605,11.093-4.919c4.712-3.206,8.338-7.398,11.233-12.259
		c2.948-4.951,4.851-10.296,5.954-15.933c0.544-2.781,0.906-5.588,1.038-8.421c0.116-2.483-0.156-4.948-0.493-7.397
		c-0.667-4.837-1.994-9.504-3.851-14.02c-2.136-5.194-4.963-9.993-8.312-14.494c-1.794-2.411-3.907-4.537-5.968-6.71
		c-3.646-3.844-7.72-7.187-12.165-10.052c-4.534-2.922-9.266-5.501-14.29-7.503c-2.223-0.886-4.471-1.712-6.709-2.561
		c-0.448-0.17-0.918-0.293-1.245-0.679c0.01-0.142,0.019-0.284,0.029-0.426c0.248-0.27,0.499-0.098,0.766-0.023
		c6.663,1.872,13.123,4.273,19.359,7.28c6.288,3.032,12.18,6.688,17.578,11.111c5.917,4.848,11.061,10.419,14.948,17.021
		c3.661,6.219,6.323,12.844,7.613,20.006c0.875,4.858,1.274,9.723,1.148,14.644c-0.181,7.064-1.653,13.83-4.725,20.217
		c-3.058,6.358-7.294,11.779-12.846,16.179c-3.985,3.158-8.369,5.604-13.14,7.279c-3.803,1.335-7.722,2.158-11.832,2.177
		c-4.505,0.021-8.835-0.629-13-2.286c-4.859-1.933-9.173-4.644-12.418-8.871c-2.387-3.108-3.872-6.572-4.507-10.424
		c-0.26-1.578-0.443-3.16-0.43-4.76c0.045-5.311,1.792-9.982,5.242-14.033c1.826-2.144,3.855-4.044,6.261-5.522
		c0.365-0.224,0.696-0.562,1.192-0.443L240.712,74.577z"/>
	<path style="fill:#3F7F3D;" d="M308.074,59.611c-0.481-0.512-0.349-1.071-0.337-1.593c0.423-0.347,0.88-0.246,1.305-0.245
		c6.679,0.016,13.359,0.018,20.037,0.079c2.353,0.022,4.707,0.125,7.022,0.669c4.902,1.15,8.426,3.877,10.117,8.718
		c1.92,5.494,1.163,10.697-1.937,15.544c-1.35,2.111-3.329,3.644-5.453,4.965c-0.742,0.461-1.543,0.831-2.2,1.386
		c-0.074,0.379,0.117,0.643,0.251,0.926c3.256,6.862,7.02,13.429,11.468,19.595c1.263,1.751,2.667,3.386,4.147,4.957
		c0.883,0.937,1.887,1.719,3.031,2.32c0.457,0.24,0.942,0.438,1.352,0.819c0.135,0.557,0.043,1.073-0.382,1.582
		c-1.866,0.127-3.727-0.154-5.575-0.419c-3.494-0.501-6.425-2.097-8.699-4.815c-1.593-1.903-2.91-3.999-4.136-6.151
		c-2.092-3.675-3.978-7.46-5.953-11.197c-0.577-1.093-1.186-2.171-1.826-3.228c-0.724-1.197-1.757-1.92-3.214-1.973
		c-1.629-0.059-3.256-0.226-4.883-0.155c-0.221,0.368-0.125,0.733-0.125,1.078c0.001,4.752,0.035,9.505,0.011,14.257
		c-0.01,1.88,0.166,3.747,0.257,5.62c0.086,1.784,1.449,3.31,3.205,3.719c0.582,0.136,1.168,0.258,1.753,0.38
		c0.584,0.122,1.188,0.16,1.74,0.416c0.419,0.463,0.411,1.018,0.362,1.658c-7.331,0-14.665,0-22.086,0
		c-0.058-0.506-0.161-1.037,0.217-1.632c0.994-0.2,2.05-0.384,3.091-0.629c1.255-0.296,2.443-0.713,3.23-1.864
		c0.494-0.722,0.723-1.51,0.767-2.355c0.088-1.674,0.194-3.35,0.196-5.025c0.017-12.1,0.019-24.201,0-36.301
		c-0.004-2.275-0.103-4.55-0.194-6.823c-0.069-1.72-1.59-3.282-3.558-3.698C310.067,59.98,309.048,59.799,308.074,59.611z
		 M322.253,88.473c1.957,0,3.785,0.035,5.612-0.014c0.992-0.027,2.01-0.082,2.965-0.325c3.403-0.867,5.699-3.12,7.158-6.199
		c1.541-3.251,1.861-6.731,1.344-10.261c-0.385-2.628-1.264-5.08-3.073-7.127c-1.659-1.877-3.664-3.239-6.103-3.753
		c-2.229-0.469-4.519-0.474-6.792-0.132c-0.418,0.063-0.743,0.256-1.028,0.612C322.015,70.288,322.107,79.333,322.253,88.473z"/>
	<path style="fill:#3F7F3D;" d="M250.77,158.974c-1.114-0.005-2.229-0.01-3.343-0.015c-3.364-0.15-6.645-0.864-9.931-1.512
		c-5.551-1.094-10.844-2.956-15.901-5.493c-7.549-3.788-13.728-9.157-18.475-16.126c-3.253-4.776-5.197-10.09-6.343-15.746
		c-0.947-4.674-0.95-9.387-0.588-14.068c0.449-5.808,2.257-11.3,4.895-16.515c3.707-7.328,9.125-13.125,15.771-17.861
		c3.437-2.449,7.184-4.289,11.12-5.77c3.562-1.341,7.251-2.177,11.009-2.723c0.944-0.137,1.901-0.183,2.876-0.274
		c0.082,0.27,0.149,0.489,0.226,0.742c-1.889,0.545-3.739,1.02-5.55,1.613c-4.828,1.581-9.206,4.004-13.208,7.128
		c-3.326,2.597-6.282,5.555-8.799,8.936c-3.748,5.035-6.695,10.489-8.267,16.598c-0.704,2.738-1.142,5.529-1.37,8.363
		c-0.191,2.363-0.185,4.716,0.099,7.046c0.507,4.155,1.328,8.246,2.883,12.174c2.743,6.928,6.964,12.817,12.507,17.742
		c5.453,4.845,11.784,8.174,18.78,10.21c3.947,1.148,7.97,1.948,12.058,2.46c3.945,0.494,7.897,0.54,11.849,0.367
		c3.674-0.161,7.29-0.806,10.85-1.75c1.31-0.347,2.594-0.819,3.949-0.959c0.497-0.051,0.72-0.461,1.123-0.627
		c2.772-1.14,5.402-2.564,7.982-4.081c0.142,0.045,0.262,0.115,0.3,0.274c-2.575,1.977-5.466,3.399-8.411,4.709
		c-4.747,2.112-9.712,3.52-14.833,4.369c-1.605,0.266-3.181,0.733-4.825,0.758C256.396,158.954,253.583,158.964,250.77,158.974z"/>
	<path style="fill:#3F7F3D;" d="M465.49,79.778c-0.132-0.49-0.207-0.953-0.007-1.544c3.862-0.143,7.595-1.415,11.482-1.746
		c0.209,0.523,0.113,0.965,0.112,1.391c-0.027,7.547-0.228,15.093-0.152,22.64c0.017,1.636,0.058,3.273,0.114,4.908
		c0.067,1.97,0.49,3.854,1.278,5.675c0.945,2.185,3.234,3.582,5.661,3.462c2.679-0.133,5.059-1.044,7.146-2.72
		c0.841-0.675,1.666-1.37,2.488-2.047c0.176-0.401,0.09-0.805,0.086-1.198c-0.072-7.866-0.15-15.732-0.229-23.598
		c-0.005-0.479-0.015-0.959-0.045-1.437c-0.092-1.488-0.774-2.341-2.216-2.754c-0.536-0.154-1.08-0.291-1.629-0.385
		c-0.654-0.112-1.253-0.266-1.381-0.986c-0.488-0.068-0.442,0.36-0.672,0.516c-0.527-0.487-0.225-1.104-0.349-1.755
		c4.254-0.469,8.414-1.1,12.634-1.7c0.191,0.645,0.252,1.233,0.268,1.824c0.03,1.078,0.049,2.156,0.053,3.234
		c0.025,6.15,0.024,12.3,0.074,18.45c0.031,3.753,0.131,7.505,0.215,11.257c0.041,1.857,0.86,2.72,2.735,2.923
		c0.949,0.103,1.898,0.192,2.922,0.295c0.141,0.622,0.084,1.24,0.037,1.973c-4.058,0.707-7.912,2.13-11.941,3.192
		c-0.825-2.063-0.237-4.233-0.743-6.39c-1.052,0.774-2.009,1.476-2.964,2.181c-1.381,1.02-2.78,2.01-4.295,2.833
		c-1.566,0.851-3.225,1.434-4.99,1.549c-3.861,0.251-7.339-1.499-9.154-5.098c-0.853-1.692-1.319-3.487-1.397-5.395
		c-0.132-3.232-0.169-6.466-0.216-9.7c-0.076-5.27-0.162-10.54-0.263-15.81c-0.036-1.86-0.506-2.421-2.27-3.049
		C467.07,80.482,466.162,80.391,465.49,79.778z"/>
	<path style="fill:#3F7F3D;" d="M461.763,97.499c0.119,3.997-0.436,7.879-2.157,11.517c-2.216,4.686-5.546,8.22-10.576,9.965
		c-3.758,1.304-7.448,1.149-11.081-0.396c-3.792-1.613-6.472-4.455-8.467-7.965c-1.611-2.833-2.484-5.889-2.822-9.16
		c-0.405-3.918-0.054-7.743,1.057-11.466c1.725-5.785,5.048-10.327,10.736-12.883c3.163-1.422,6.405-1.458,9.716-0.748
		c2.979,0.639,5.457,2.183,7.583,4.31c3.431,3.433,5.23,7.633,5.812,12.41C461.741,94.555,461.751,96.026,461.763,97.499z
		 M454.331,98.697c0.063-2.06-0.087-4.525-0.485-6.972c-0.462-2.842-1.131-5.622-2.643-8.119c-1.391-2.298-3.23-4.087-5.968-4.608
		c-3.364-0.64-5.769-0.075-7.984,3.138c-1.912,2.774-2.542,5.987-2.829,9.256c-0.213,2.42-0.274,4.85-0.076,7.29
		c0.207,2.541,0.365,5.081,1.017,7.557c0.682,2.594,1.6,5.081,3.303,7.213c1.47,1.841,3.239,3.193,5.657,3.458
		c2.617,0.286,4.934-0.382,6.656-2.454c1.453-1.75,2.196-3.849,2.638-6.063C454.23,105.328,454.36,102.228,454.331,98.697z"/>
	<path style="fill:#10466B;" d="M183.782,118.868c-5.333,0-10.627,0-15.954,0c-0.22-0.923,0.107-1.771,0.218-2.618
		c1.159-8.84,3.637-17.27,7.672-25.257c4.28-8.472,10.193-15.614,17.381-21.733c4.094-3.485,8.671-6.244,13.615-8.378
		c0.389-0.168,0.755-0.445,1.46-0.371c-0.624,0.425-1.09,0.743-1.556,1.059c-3.319,2.246-6.388,4.78-9.095,7.746
		c-3.066,3.359-5.449,7.17-7.494,11.204c-2.54,5.009-4.211,10.32-5.348,15.8c-0.895,4.309-1.243,8.677-1.152,13.078
		c0.054,2.593-0.032,5.189,0.245,7.776C183.832,117.715,183.782,118.269,183.782,118.868z"/>
	<path style="fill:#407F3E;" d="M579.86,94.524c-0.3,0.391-0.234,0.764-0.237,1.116c-0.03,3.967,0.59,7.854,2.494,11.334
		c1.721,3.144,4.254,5.653,7.915,6.514c3.485,0.819,6.833,0.489,9.76-1.862c0.803-0.645,1.653-1.232,2.457-1.828
		c0.685,0.319,0.926,0.845,1.089,1.474c-0.901,1.68-2.284,2.96-3.684,4.196c-1.865,1.646-3.929,2.98-6.327,3.781
		c-3.168,1.058-6.264,0.671-9.235-0.551c-3.916-1.611-6.782-4.469-8.642-8.246c-1.348-2.737-2.185-5.632-2.153-8.747
		c0.018-1.752-0.106-3.5-0.017-5.26c0.114-2.231,0.813-4.299,1.462-6.39c1.165-3.754,3.323-6.922,6.182-9.539
		c2.782-2.546,6.028-4.364,9.916-4.6c2.546-0.154,4.908,0.531,7.018,1.985c2.95,2.034,4.841,4.864,5.812,8.251
		c0.459,1.599,0.398,3.318,0.286,4.998c-0.048,0.714-0.418,1.17-1.069,1.447c-0.444,0.189-0.893,0.35-1.373,0.392
		c-3.543,0.312-7.088,0.588-10.64,0.764c-3.234,0.16-6.466,0.346-9.698,0.534C580.744,94.312,580.299,94.329,579.86,94.524z
		 M580.335,90.756c0.217,0.055,0.328,0.105,0.44,0.109c4.879,0.135,9.753-0.007,14.626-0.24c1.133-0.054,1.326-0.298,1.604-1.41
		c0.099-0.394,0.124-0.788,0.11-1.187c-0.059-1.693-0.388-3.334-1.195-4.828c-0.952-1.764-2.222-3.22-4.294-3.714
		c-2.854-0.679-5.346-0.125-7.444,2.047c-1.333,1.38-2.276,2.969-2.917,4.745C580.755,87.694,580.221,89.119,580.335,90.756z"/>
	<path style="fill:#407F3E;" d="M362.907,94.739c-0.251,1.784,0.036,3.564,0.247,5.341c0.333,2.803,1.155,5.446,2.694,7.846
		c1.697,2.647,3.936,4.677,7.004,5.473c3.432,0.89,6.809,0.774,9.794-1.528c0.885-0.683,1.79-1.34,2.709-2.027
		c0.585,0.215,0.914,0.71,1.247,1.126c0.038,0.374-0.118,0.62-0.291,0.83c-2.196,2.668-4.585,5.122-7.8,6.575
		c-1.858,0.84-3.75,1.618-5.86,1.47c-4.809-0.336-8.834-2.166-11.886-6.024c-2.167-2.739-3.376-5.878-4.026-9.224
		c-0.51-2.628-0.484-5.334-0.239-7.998c0.366-3.975,1.508-7.746,3.617-11.159c2.803-4.535,6.556-7.924,11.887-9.194
		c4.348-1.036,8.016,0.285,11.103,3.428c2.446,2.49,3.706,5.529,4.178,8.93c0.121,0.869,0.075,1.735-0.104,2.614
		c-0.18,0.883-0.709,1.332-1.49,1.507c-0.971,0.218-1.959,0.416-2.949,0.484c-4.424,0.303-8.846,0.629-13.278,0.813
		c-1.796,0.075-3.591,0.194-5.389,0.23C363.674,94.263,363.268,94.25,362.907,94.739z M363.508,90.774
		c0.561,0.261,1.148,0.314,1.744,0.299c2.075-0.054,4.15-0.132,6.225-0.169c2.316-0.041,4.631-0.072,6.942-0.237
		c0.523-0.037,1.039-0.049,1.458-0.477c0.356-1.435,0.289-2.892,0.105-4.367c-0.434-3.477-3.172-6.31-6.642-6.621
		c-1.866-0.168-3.617,0.273-5.102,1.581c-2.532,2.232-3.921,5.075-4.604,8.306C363.524,89.612,363.387,90.17,363.508,90.774z"/>
	<path style="fill:#407F3E;" d="M393.187,105.461c0.545-0.482,1.09-0.453,1.686-0.386c0.422,0.646,0.595,1.391,0.882,2.084
		c1.032,2.488,2.345,4.798,4.243,6.743c1.642,1.682,3.587,2.758,5.949,3.037c3.303,0.39,6.562-2.453,6.621-5.487
		c0.013-0.678,0.025-1.356,0.029-2.034c0.016-2.684-1.307-4.693-3.235-6.401c-1.33-1.179-2.904-1.972-4.453-2.794
		c-2.122-1.125-4.186-2.335-6.065-3.833c-1.752-1.397-3.189-3.092-3.728-5.29c-0.964-3.928-0.184-7.543,2.533-10.6
		c2.842-3.198,6.475-4.697,10.753-4.587c1.597,0.041,3.19,0.144,4.748,0.578c0.542,0.151,1.056,0.358,1.577,0.554
		c0.721,0.271,1.165,0.793,1.394,1.53c0.58,1.871,0.905,3.795,1.222,5.72c0.09,0.55,0.159,1.105,0.215,1.66
		c0.142,1.417,0.04,1.559-1.418,2.018c-0.43-0.293-0.658-0.762-0.898-1.215c-0.392-0.739-0.797-1.475-1.139-2.237
		c-0.934-2.077-2.433-3.662-4.352-4.816c-3.569-2.145-8.439-0.6-8.936,4.419c-0.333,3.365,1.114,5.858,3.898,7.656
		c1.813,1.172,3.723,2.173,5.628,3.182c1.95,1.033,3.775,2.231,5.377,3.765c1.14,1.092,2.032,2.35,2.744,3.746
		c0.385,0.755,0.638,1.555,0.67,2.401c0.093,2.43,0.284,4.883-0.892,7.15c-1.588,3.062-3.977,5.269-7.209,6.513
		c-5.561,2.141-10.87,1.534-15.93-1.542c-0.525-0.319-0.888-0.768-1.025-1.405C393.361,112.266,392.935,108.917,393.187,105.461z"/>
	<path style="fill:#407F3E;" d="M608.389,105.375c0.503-0.21,0.956-0.325,1.384-0.339c0.61,0.313,0.755,0.884,0.971,1.387
		c0.771,1.795,1.484,3.618,2.686,5.189c1.291,1.687,2.637,3.33,4.575,4.318c2.412,1.23,4.885,1.602,7.246-0.052
		c1.553-1.089,2.612-2.565,2.614-4.589c0-0.359,0.027-0.718,0.046-1.077c0.19-3.759-1.688-6.384-4.712-8.281
		c-2.195-1.377-4.491-2.596-6.75-3.872c-1.837-1.038-3.358-2.457-4.667-4.071c-1.847-2.277-2.059-5-1.557-7.732
		c1.015-5.525,4.585-8.642,9.892-9.976c3.114-0.783,6.175-0.397,9.21,0.468c1.081,0.308,1.796,0.947,2.128,2.05
		c0.749,2.49,1.209,5.033,1.413,7.619c0.08,1.011-0.059,1.109-1.434,1.56c-0.44-0.279-0.666-0.751-0.905-1.203
		c-0.429-0.81-0.854-1.623-1.243-2.452c-0.93-1.983-2.414-3.467-4.236-4.61c-1.164-0.73-2.456-1.118-3.87-0.983
		c-1.963,0.188-3.322,1.28-4.291,2.893c-1.634,2.72-0.974,6.995,1.68,9.114c1.38,1.102,2.875,2.001,4.421,2.842
		c2.136,1.162,4.385,2.138,6.311,3.656c1.481,1.167,2.822,2.49,3.802,4.11c1.667,2.757,1.783,5.728,1.032,8.778
		c-0.823,3.341-2.907,5.727-5.843,7.379c-2.639,1.486-5.462,2.463-8.545,2.336c-3.238-0.133-6.3-0.923-9.093-2.639
		c-0.689-0.423-1.09-0.965-1.313-1.746c-0.365-1.276-0.525-2.584-0.611-3.887C608.594,109.538,608.354,107.513,608.389,105.375z"/>
	<path style="fill:#407F3E;" d="M529.899,116.87c0.299,0.692,0.011,1.189,0.012,1.755c-6.357,0-12.702,0-19.112,0
		c-0.16-0.527-0.06-1.073-0.051-1.642c0.616-0.537,1.42-0.467,2.133-0.666c0.847-0.236,1.693-0.428,2.312-1.15
		c0.68-0.792,1.045-1.667,1.048-2.721c0.013-4.393,0.07-8.786,0.07-13.178c0-4.513-0.046-9.025-0.073-13.538
		c-0.002-0.319-0.008-0.639-0.03-0.958c-0.102-1.456-0.736-2.497-2.242-2.859c-0.503-0.121-1.001-0.267-1.503-0.39
		c-0.386-0.094-0.787-0.146-1.11-0.482c-0.23-0.473-0.059-0.982-0.092-1.557c3.92-0.944,7.741-2.043,11.463-3.726
		c0.246,0.648,0.192,1.241,0.212,1.821c0.072,2.074-0.064,4.153,0.171,6.222c0.022,0.194,0.061,0.386,0.098,0.616
		c0.531-0.028,0.641-0.471,0.856-0.758c0.98-1.308,1.799-2.731,2.94-3.923c1.056-1.103,2.166-2.138,3.487-2.905
		c2.651-1.539,5.748-1.164,7.491,1.918c0.61,1.078,0.483,2.248,0.108,3.368c-0.481,1.439-2.276,2.777-3.581,2.783
		c-0.459,0.002-0.857-0.078-1.216-0.391c-0.36-0.315-0.756-0.589-1.144-0.871c-1.511-1.101-2.866-1.17-4.444-0.159
		c-0.844,0.541-1.601,1.205-2.126,2.077c-0.741,1.23-1.444,2.482-2.184,3.712c-0.217,0.361-0.281,0.729-0.279,1.138
		c0.027,6.709,0.039,13.419,0.077,20.128c0.005,0.915,0.098,1.834,0.211,2.744c0.152,1.221,0.903,2.006,2.001,2.479
		c0.961,0.414,2.015,0.479,3.014,0.753C528.913,116.643,529.415,116.752,529.899,116.87z"/>
	<path style="fill:#3F7F3D;" d="M566.229,85.398c-1.4-0.876-2.502-1.987-3.726-2.942c-2.345-1.829-5.025-2.482-7.891-2.053
		c-3.128,0.469-5.244,2.42-6.529,5.246c-1.721,3.783-2.285,7.78-2,11.905c0.135,1.95,0.402,3.879,0.842,5.791
		c0.73,3.179,2.323,5.848,4.699,8.031c1.725,1.585,3.815,2.331,6.185,2.54c3.531,0.311,6.399-0.943,8.946-3.239
		c0.588-0.53,1.079-1.187,1.879-1.544c0.547,0.318,0.826,0.922,1.317,1.293c-0.107,0.462-0.366,0.763-0.623,1.062
		c-1.799,2.098-3.714,4.092-5.98,5.681c-2.429,1.702-5.116,2.872-8.158,2.656c-5.072-0.36-9.133-2.582-12.064-6.803
		c-2.564-3.691-3.753-7.785-3.82-12.246c-0.029-1.92,0.045-3.843,0.369-5.725c0.684-3.975,2.449-7.475,5.015-10.578
		c2.296-2.777,5.036-5.014,8.283-6.586c2.688-1.301,5.498-2.125,8.546-1.913c2.202,0.153,4.229,0.798,6.085,1.97
		c1.258,0.794,1.792,2.181,1.433,3.603C568.626,83.171,567.672,84.403,566.229,85.398z"/>
	<path style="fill:#538648;" d="M233.985,4.012c-1.019,0.14-1.973-0.229-2.93-0.44c-5.183-1.14-10.412-1.986-15.688-2.514
		c-2.579-0.258-5.173-0.369-7.762-0.523c-1.115-0.066-2.233-0.078-3.318-0.357c-0.029-0.021-0.054-0.04-0.079-0.058
		c0.039,0.008,0.079,0.025,0.117,0.023c3.111-0.173,6.23-0.229,9.328,0.062c3.729,0.35,7.453,0.799,11.158,1.347
		c2.794,0.414,5.58,0.921,8.33,1.592c0.353,0.086,0.715,0.116,0.884,0.504C234.012,3.769,233.998,3.891,233.985,4.012z"/>
	<path style="fill:#538648;" d="M235.456,3.916c0.969-0.053,1.871,0.135,2.658,0.738c-0.01,0.154-0.02,0.309-0.03,0.463
		c-0.986,0.132-1.857-0.162-2.658-0.717C235.435,4.239,235.446,4.077,235.456,3.916z"/>
	<path style="fill:#608D53;" d="M287.277,149.108c-0.038-0.159-0.158-0.229-0.3-0.274c1.041-0.849,2.187-1.548,3.297-2.296
		c0.089-0.06,0.199-0.136,0.427,0.089C289.694,147.645,288.548,148.456,287.277,149.108z"/>
	<path style="fill:#608D53;" d="M639.838,67.405c-0.32-0.105-0.217-0.384-0.25-0.608c0.64-0.057,1.28-0.044,1.839-0.493
		c0.334-0.268,0.662-0.034,0.892,0.281c0.153,0.158,0.168,0.358,0.173,0.561C641.591,67.072,640.699,67.075,639.838,67.405z"/>
	<path style="fill:#608D53;" d="M242.223,63.155c1.172-0.488,2.151-0.357,3.231-0.173C244.377,63.641,243.424,63.713,242.223,63.155
		z"/>
	<path style="fill:#415C7B;" d="M238.083,5.117c0.01-0.154,0.02-0.309,0.03-0.463c0.536-0.119,0.98,0.097,1.404,0.386
		c-0.01,0.142-0.019,0.284-0.029,0.426C238.937,5.68,238.52,5.36,238.083,5.117z"/>
	<path style="fill:#415C7B;" d="M235.456,3.916c-0.01,0.161-0.02,0.323-0.03,0.484c-0.516,0.001-0.986-0.164-1.44-0.388
		c0.013-0.121,0.027-0.243,0.04-0.364C234.557,3.443,235.008,3.671,235.456,3.916z"/>
	<path style="fill:#415C7B;" d="M642.492,67.146c-0.005-0.203-0.02-0.403-0.173-0.561c0.457-0.143,0.91-0.274,1.133,0.347
		c-0.027,0.2-0.055,0.4-0.082,0.599C643.077,67.403,642.784,67.274,642.492,67.146z"/>
	<path style="fill:#3F7F3D;" d="M240.726,74.592c-0.029-0.095,0.004-0.155,0.099-0.162c0.017-0.001,0.06,0.061,0.055,0.088
		c-0.018,0.103-0.08,0.122-0.169,0.06L240.726,74.592z"/>
	<path style="fill:#4B8343;" d="M644.112,76.362c-0.266,0.208-0.491,0.128-0.752,0.047c-0.378-0.504-0.426-1.158-0.651-1.743
		c-0.388-1.01-0.918-1.29-2.065-1.099c-0.327,0.468-0.242,1.04-0.321,1.581c-0.068,0.464,0.207,1.055-0.42,1.351
		c-0.412-0.099-0.513-0.396-0.519-0.724c-0.037-2.107-0.159-4.216,0.009-6.351c0.68-0.549,1.466-0.373,2.185-0.297
		c0.698,0.074,1.426,0.199,1.981,0.733c0.64,0.617,0.767,1.405,0.304,2.163c-0.185,0.302-0.421,0.574-0.678,0.918
		C643.754,74.01,644.308,75.11,644.112,76.362z M640.451,70.265c-0.236,0.476-0.158,0.998-0.12,1.5
		c0.047,0.614,0.34,0.834,0.931,0.784c0.826-0.07,1.422-0.434,1.622-1.27C642.41,70.057,641.835,69.819,640.451,70.265z"/>
</g>
</svg>
