<?xml version="1.0" encoding="iso-8859-1"?>
<!-- Generator: Adobe Illustrator 27.0.0, SVG Export Plug-In . SVG Version: 6.00 Build 0)  -->
<svg version="1.1" id="Layer_1" xmlns="http://www.w3.org/2000/svg" xmlns:xlink="http://www.w3.org/1999/xlink" x="0px" y="0px"
	 viewBox="0 0 1608 394.124" style="enable-background:new 0 0 1608 394.124;" xml:space="preserve">
<g>
	<path style="fill:#55585C;" d="M0,2.124C21.828,2.16,43.656,2.204,65.484,2.23c12.165,0.015,24.337,0.254,36.492-0.094
		c6.962-0.2,13.639,0.939,20.018,3.222c20.042,7.173,35.567,19.833,45.443,38.951c5.821,11.268,8.927,23.43,9,35.951
		c0.079,13.633-4.042,26.475-10.788,38.44c-11.703,20.758-29.427,32.886-52.652,37.385c-3.943,0.764-7.874,1.076-11.881,1.064
		c-18.83-0.056-37.661-0.025-56.491-0.025c-1.649,0-3.299,0-5.395,0c0,21.94,0,43.672,0,65.999c-13.369,0-26.3,0-39.23,0
		C0,149.457,0,75.791,0,2.124z M40.054,120.177c22.481,0,44.447,0.15,66.408-0.055c13.85-0.129,27.509-12.682,29.677-26.389
		c1.287-8.141,0.616-16.224,0.187-24.356c-1-18.949-16.25-30.595-32.853-30.976c-19.807-0.454-39.632-0.116-59.45-0.086
		c-1.276,0.002-2.67-0.446-3.969,0.688C40.054,65.811,40.054,92.733,40.054,120.177z"/>
	<path style="fill:#5B5C60;" d="M1608,29.124c-1.035,0.293-0.894,1.215-1.113,1.985c-2.587,9.11-8.949,14.716-17.547,17.605
		c-12.971,4.358-27.081-4.178-30.18-17.82c-3.631-15.982,8.812-31.179,25.208-30.786c9.828,0.235,20.41,9.389,22.588,19.541
		c0.191,0.892-0.316,2.076,1.044,2.474C1608,24.457,1608,26.791,1608,29.124z M1595.016,38.113c2.005,0.012,2.762-1.593,3.604-2.938
		c2.49-3.974,2.985-8.38,2.432-12.93c-1.105-9.079-11.158-17.499-19.896-16.758c-10.638,0.901-19.807,10.824-18.353,21.861
		c1.322,10.029,11.596,18.224,22.218,16.673c3.883-0.567,8.285-1.187,9.975-5.893L1595.016,38.113z"/>
	<path style="fill:#B1AEB0;" d="M1344,394.124c0.017-0.289-0.013-0.572-0.091-0.85c3.721-0.013,7.442-0.026,11.163-0.039
		c-0.109,0.29-0.133,0.586-0.072,0.89C1351.333,394.124,1347.667,394.124,1344,394.124z"/>
	<path style="fill:#B1AEB0;" d="M1425,394.124c0.114-0.316,0.097-0.625-0.051-0.926c3.713,0.022,7.426,0.045,11.138,0.067
		c-0.08,0.281-0.109,0.567-0.087,0.859C1432.333,394.124,1428.667,394.124,1425,394.124z"/>
	<path style="fill:#B1AEB0;" d="M729.066,393.223c-0.115,0.293-0.137,0.594-0.066,0.901c-3.333,0-6.667,0-10,0
		c0.083-0.31,0.063-0.613-0.061-0.909C722.314,393.218,725.69,393.22,729.066,393.223z"/>
	<path style="fill:#B1AEB0;" d="M929,394.124c0.039-0.297,0.012-0.588-0.081-0.872c3.376-0.019,6.753-0.038,10.129-0.057
		c-0.14,0.303-0.156,0.613-0.049,0.93C935.667,394.124,932.333,394.124,929,394.124z"/>
	<path style="fill:#B1AEB0;" d="M1133.078,393.246c-0.096,0.286-0.122,0.579-0.078,0.878c-3.333,0-6.667,0-10,0
		c0.1-0.314,0.082-0.621-0.054-0.921C1126.323,393.217,1129.701,393.232,1133.078,393.246z"/>
	<path style="fill:#55585C;" d="M355.683,147.15c17.226,25.172,34.381,50.24,51.854,75.773c-15.467,0-30.231,0-45.237,0
		c-15.56-21.83-31.18-43.745-46.797-65.655c-19.133,0-38.087,0-57.529,0c0,21.847,0,43.561,0,65.564c-13.219,0-25.955,0-38.995,0
		c0-73.397,0-146.747,0-220.067c1.896-0.952,3.755-0.507,5.542-0.508c33.323-0.032,66.646,0.071,99.967-0.108
		c6.153-0.033,11.989,1.373,17.481,3.404c16.599,6.139,30.625,16.025,40.415,31.095c9.74,14.992,14.453,31.567,12.338,49.335
		c-2.956,24.833-13.967,45.187-35.935,58.593C357.806,145.173,356.67,145.587,355.683,147.15z M256.383,38.721
		c0,27.102,0,54.15,0,81.361c1.262,0.06,2.238,0.147,3.214,0.147c22.326,0.007,44.652,0.061,66.978-0.015
		c14.67-0.05,28.548-12.551,30.328-27.284c0.818-6.774,1.361-13.579,1.225-20.423c-0.201-10.14-3.395-18.913-11.548-25.409
		c-6.778-5.401-14.148-8.969-23.186-8.874c-20.657,0.217-41.319,0.059-61.979,0.086C259.795,38.312,258.117,37.971,256.383,38.721z"
		/>
	<path style="fill:#55585C;" d="M1064.083,87.068c0,13.472,0,26.087,0,39.099c-29.303,0-58.388,0-87.829,0
		c0,19.632,0,38.868,0,58.545c40.597,0,81.338,0,122.406,0c0,12.655,0,24.877,0,37.342c-53.139,0-106.185,0-159.459,0
		c0-73.453,0-146.713,0-220.307c53.055,0,106.107,0,159.473,0c0,12.04,0,24.084,0,36.587c-40.882,0-81.61,0-122.556,0
		c0,16.379,0,32.303,0,48.735C1005.411,87.068,1034.639,87.068,1064.083,87.068z"/>
	<path style="fill:#56595D;" d="M1190.948,222.915c-13.601,0-26.378,0-39.396,0c0-73.455,0-146.696,0-219.962
		c1.253-1.272,2.841-0.695,4.256-0.696c34.155-0.035,68.31-0.035,102.464-0.02c5.567,0.002,10.789,1.815,15.905,3.651
		c16.47,5.909,29.714,16.18,39.551,30.642c5.754,8.459,9.572,17.798,11.201,27.967c0.472,2.95,0.705,5.998,1.646,8.8
		c2.278,6.779,1.346,13.474,0.014,20.181c-3.014,15.177-9.724,28.638-20.045,40.064c-8.25,9.134-18.399,15.767-30.258,19.496
		c-9.248,2.908-18.642,4.389-28.435,4.191c-17.487-0.353-34.986-0.099-52.48-0.099c-1.31,0-2.62,0-4.423,0
		C1190.948,179.107,1190.948,200.817,1190.948,222.915z M1190.837,119.388c0.894,0.94,1.592,0.828,2.237,0.828
		c21.303-0.004,42.609,0.142,63.91-0.086c14.835-0.159,28.402-13.352,30.207-28.116c0.898-7.35,0.028-14.575-0.128-21.848
		c-0.422-19.746-16.163-31.274-32.489-31.734c-20.123-0.567-40.274-0.141-60.413-0.12c-1.102,0.001-2.355-0.384-3.324,0.947
		C1190.837,65.874,1190.837,92.657,1190.837,119.388z"/>
	<path style="fill:#55585C;" d="M865.411,139.202c11.66,5.163,23.135,10.245,34.45,15.255c0.645,2.328-0.719,3.784-1.47,5.37
		c-5.628,11.89-13.772,21.917-23.094,31.076c-10.584,10.398-22.842,18.289-36.561,23.765c-12.604,5.031-25.836,7.235-39.41,7.612
		c-24.652,0.684-47.035-6.426-66.935-20.569c-22.737-16.16-37.163-38.379-43.106-65.583c-6.59-30.163-2.367-58.878,14.458-85.152
		c12.67-19.785,30.334-33.737,51.922-42.822c15.786-6.643,32.327-9.18,49.273-7.784c33.761,2.781,61.427,17.044,81.488,44.893
		c2.817,3.91,5.538,7.884,8.112,12.724c-9.41,7.723-19.492,14.576-29.668,21.626c-2.829-3.801-5.287-7.33-7.975-10.674
		c-11.712-14.569-26.163-25.238-44.766-28.789c-25.987-4.961-48.667,1.986-67.54,20.718c-11.369,11.284-18.183,25.092-20.329,40.764
		c-2.626,19.183,1.593,37.005,13.479,52.696c11.131,14.694,25.295,24.801,43.371,29.155c8.851,2.132,17.662,2.271,26.678,0.774
		c17.014-2.824,31.472-10.288,43.324-22.743c5.068-5.326,9.198-11.363,12.317-18.053
		C864.055,142.118,864.679,140.775,865.411,139.202z"/>
	<path style="fill:#56595D;" d="M1534.45,37.682c-26.49,0-52.618,0-79.236,0c0,61.526,0,122.753,0,184.297
		c-12.53,0-24.573,0-37.131,0c0-61.139,0-122.194,0-183.536c-25.128,0-49.746,0-74.712,0c0-12.347,0-24.41,0-36.757
		c63.576,0,127.144,0,191.078,0C1534.45,13.59,1534.45,25.321,1534.45,37.682z"/>
	<path style="fill:#55585C;" d="M487.702,209.821c-6.952-0.615-25.162-14.316-36.361-28.184
		c-19.205-23.781-27.081-51.296-24.145-81.501c5.916-60.87,58.47-99.998,108.698-99.683c0.335,2.047-0.774,3.807-1.363,5.588
		c-5.06,15.274-13.368,28.867-22.084,42.239c-9.798,15.033-20.317,29.601-29.336,45.134c-8.194,14.112-15.099,28.749-18.416,44.91
		c-5.507,26.829,0.422,50.063,20.976,68.912C486.469,207.967,487.698,208.429,487.702,209.821z"/>
	<path style="fill:#55585C;" d="M587.991,211.681c3.973-4.227,8.276-8.111,11.904-12.681c12.058-15.189,16.043-32.334,13.58-51.447
		c-2.645-20.531-10.797-38.856-21.151-56.428c-9.286-15.76-19.964-30.62-29.752-46.054c-7.745-12.213-15.179-24.579-19.876-38.366
		c-0.581-1.706-1.101-3.433-1.664-5.199c39.143-2.092,92.178,26.652,105.65,84.276C660.239,143.774,628.088,193.246,587.991,211.681
		z"/>
	<path style="fill:#595B5E;" d="M544.663,299.291c15.307,0,30.297-0.433,45.245,0.168c8.471,0.341,16.07,3.697,21.124,11.341
		c6.401,9.682,3.511,24.252-6.251,30.421c-1.348,0.852-2.636,1.798-4.37,2.988c3.69,1.797,6.904,3.371,9.899,5.409
		c12.599,8.572,11.306,28.975-2.487,36.983c-5.409,3.141-11.264,5.228-17.446,5.341c-15.132,0.278-30.273,0.091-45.714,0.091
		C544.663,361.169,544.663,330.457,544.663,299.291z M553.857,382.098c12.156,0,23.795,0.087,35.431-0.06
		c2.974-0.037,5.914-1.015,8.674-2.158c6.482-2.683,9.733-8.003,9.373-14.959c-0.325-6.281-3.994-10.745-10.754-12.784
		c-4.143-1.25-8.387-2.03-12.756-2.012c-8.666,0.036-17.333-0.008-25.999,0.031c-1.286,0.006-2.675-0.409-3.969,0.648
		C553.857,361.001,553.857,371.29,553.857,382.098z M553.878,340.918c10.478,0,20.597,0.204,30.7-0.106
		c3.747-0.115,7.495-1.279,10.757-3.489c5.554-3.763,7.637-9.07,6.674-15.522c-0.852-5.712-4.688-8.938-9.936-10.701
		c-1.893-0.636-3.816-1.151-5.844-1.149c-10.477,0.012-20.954,0.008-31.431,0.041c-0.257,0.001-0.513,0.363-0.92,0.67
		C553.878,320.507,553.878,330.461,553.878,340.918z"/>
	<path style="fill:#5B5C60;" d="M794.281,300.964c1.077-0.881,2.12-0.56,3.08-0.562c11.659-0.026,23.319-0.099,34.978,0.022
		c4.979,0.052,10.01,0.323,14.797,1.832c10.567,3.331,18.038,9.692,20.043,21.197c1.818,10.427-2.036,18.508-10.16,24.848
		c-4.125,3.22-8.934,4.98-14.731,6.405c9.446,12.521,18.593,24.647,28.081,37.225c-4.604,0-8.539,0-12.963,0
		c-8.738-11.683-17.683-23.642-26.642-35.62c-8.526,0-16.98,0-25.935,0c0,11.87,0,23.586,0,35.561c-3.74,0-6.991,0-10.548,0
		C794.281,361.529,794.281,331.173,794.281,300.964z M804.862,346.055c11.167,0,21.941,0.208,32.698-0.11
		c3.919-0.116,7.794-1.443,11.26-3.619c5.746-3.605,8.345-8.862,8.132-15.497c-0.21-6.558-3.507-11.324-9.276-14.273
		c-3.895-1.991-8.136-2.725-12.523-2.706c-8.978,0.04-17.957-0.002-26.935,0.03c-1.105,0.004-2.357-0.387-3.357,0.894
		C804.862,322.237,804.862,333.855,804.862,346.055z"/>
	<path style="fill:#5B5C60;" d="M1048.909,350.586c1.485,1.382,3.343,1.684,4.911,2.549c6.677,3.683,11.126,8.781,11.27,16.884
		c0.149,8.357-3.677,14.3-10.795,18.249c-4.256,2.362-8.866,3.801-13.774,3.828c-12.653,0.068-25.307,0.036-37.961,0.035
		c-0.646,0-1.332,0.059-2.046-0.738c0-25.673,0-51.581,0-77.388c1.016-1.189,2.264-0.768,3.366-0.771
		c10.489-0.032,20.979-0.004,31.468-0.026c4.378-0.009,8.631,0.805,12.667,2.357c6.995,2.69,11.841,7.477,12.664,15.242
		c0.767,7.232-2.215,12.936-8.073,17.168C1051.403,348.843,1050.181,349.688,1048.909,350.586z M1010.49,356.059
		c0,9.582,0,18.473,0,27.879c3.736,0,7.188,0.039,10.638-0.008c6.966-0.095,13.945,0.373,20.89-0.668
		c3.872-0.58,7.386-1.809,10.235-4.588c6.026-5.877,4.769-15.35-2.603-19.374c-2.038-1.113-4.212-1.904-6.531-2.303
		C1032.386,355.153,1021.594,356.66,1010.49,356.059z M1010.43,348.127c9.467,0,18.596,0.146,27.716-0.088
		c2.769-0.071,5.395-1.394,7.803-3.004c4.597-3.075,5.687-7.514,5.262-12.617c-0.374-4.494-3.169-7.099-6.993-8.927
		c-2.776-1.327-5.711-1.64-8.728-1.633c-6.823,0.014-13.646-0.021-20.469,0.024c-1.453,0.009-2.979-0.384-4.592,0.59
		C1010.43,330.778,1010.43,339.198,1010.43,348.127z"/>
	<path style="fill:#BAC8E7;" d="M485.932,128.088c0.447-5.61,3.556-10.257,5.893-15.077c7.428-15.317,17.242-29.236,26.295-43.603
		c7.307-11.596,13.826-23.625,18.568-36.557c1.227-3.345,0.915-7.1,3.018-10.408c0.913,7.799,3.719,14.806,6.827,21.69
		c3.812,8.443,8.433,16.462,13.378,24.283c0.765,1.21,1.182,2.317,1.152,3.673c-1.55-0.086-2.764,0.392-4.048,1.43
		c-5.368,4.34-10.899,8.477-16.35,12.714c-6.499,5.051-12.993,10.108-19.461,15.199c-9.96,7.841-19.815,15.82-29.927,23.461
		C489.708,126.079,488.546,128.476,485.932,128.088z"/>
	<path style="fill:#595B5E;" d="M729.066,393.223c-3.376-0.003-6.751-0.005-10.127-0.008c-19.124-2.383-35.036-18.062-35.448-39.918
		c-0.274-14.536,6.019-26.514,18.23-34.654c23.21-15.472,53.869-3.486,61.526,23.094
		C769.705,364.159,754.851,390.178,729.066,393.223z M693.566,354.028c-0.179,4.908,1.523,10.743,4.735,16.161
		c7.702,12.991,24.332,18.534,37.733,12.654c19.064-8.364,24.2-30.94,15.075-46.733c-6.303-10.909-16.003-16.586-28.518-15.756
		C703.536,321.618,693.193,338.255,693.566,354.028z"/>
	<path style="fill:#595B5E;" d="M939.049,393.194c-3.376,0.019-6.753,0.038-10.129,0.057c-22.339-2.627-37.18-22.439-35.803-43.152
		c1.498-22.528,20.489-37.417,38.494-38.237c20.537-0.934,38.511,13.817,41.976,33.161c4.062,22.675-9.672,40.696-26.818,46.271
		C944.236,392.119,941.715,392.937,939.049,393.194z M964.266,351.579c0.232-3.457-0.693-7.679-2.38-11.685
		c-7.666-18.206-27.927-24.891-44.229-15.212c-11.271,6.692-18.649,22.343-13.954,37.752c5.002,16.418,21.43,26.199,37.764,21.624
		C954.617,380.374,964.617,367.658,964.266,351.579z"/>
	<path style="fill:#595B5E;" d="M1133.078,393.246c-3.377-0.014-6.755-0.028-10.132-0.043
		c-17.622-3.035-29.146-13.063-33.942-30.302c-4.805-17.275,3.078-36.002,18.404-45.269c24.189-14.627,55.573-0.218,60.839,27.975
		C1172.011,365.762,1158.309,390.272,1133.078,393.246z M1096.877,353.14c-0.185,2.55,0.315,5.667,1.171,8.717
		c5.361,19.095,26.949,30.227,45.57,18.815c15.141-9.28,19.871-29.313,10.863-44.654c-6.365-10.841-16.03-16.497-28.526-15.666
		C1109.062,321.474,1096.867,335.412,1096.877,353.14z"/>
	<path style="fill:#595B5E;" d="M1436.087,393.265c-3.713-0.022-7.426-0.045-11.138-0.067c-10.59-1.262-19.335-6.325-27.665-13.02
		c1.668-2.521,3.018-4.747,5.223-6.549c2.019,1.512,3.949,3.069,5.989,4.466c9.026,6.18,18.901,8.016,29.401,4.964
		c6.42-1.866,9.578-6.8,9.378-13.082c-0.136-4.274-2.219-7.171-5.917-9.094c-4.604-2.395-9.57-3.691-14.585-4.81
		c-5.196-1.159-10.226-2.692-15.08-4.969c-14.239-6.68-13.681-25.5-2.954-33.595c4.201-3.17,8.923-5.068,14.214-5.451
		c13.465-0.975,22.679,1.718,31.888,9.51c-1.357,2.325-3.081,4.413-5.202,6.554c-4.952-3.888-10.344-6.627-16.529-7.609
		c-4.504-0.715-8.964-0.638-13.307,0.783c-6.077,1.988-9.186,6.649-8.914,12.829c0.191,4.32,2.677,7.051,6.111,9.075
		c4.486,2.643,9.495,3.863,14.516,5.039c6.313,1.478,12.435,3.366,18.053,6.84c10.51,6.498,11.636,22.942,1.417,31.883
		C1446.755,390.664,1441.698,392.687,1436.087,393.265z"/>
	<path style="fill:#595B5E;" d="M1355.072,393.234c-3.721,0.013-7.442,0.026-11.163,0.039c-13.666-1.48-23.707-8.582-29.762-20.64
		c-6.606-13.155-7.169-26.822-0.56-40.3c7.888-16.088,24.955-24.378,42.697-21.477c9.253,1.513,16.719,5.838,23.479,12.222
		c-1.669,2.572-3.713,4.449-6.08,6.687c-8.911-8.173-19.234-11.762-31.166-9.495c-7.548,1.435-13.36,5.706-17.917,11.761
		c-9.747,12.952-7.748,33.054,4.209,44.687c9.542,9.284,29.753,12.283,45.686-2.99c2.279,1.533,4.313,3.334,5.911,5.971
		C1373.409,387.111,1365.47,392.431,1355.072,393.234z"/>
	<path style="fill:#5B5C60;" d="M1219.916,320.931c0,24.083,0,47.366,0,70.928c-3.313,0-6.37,0-9.866,0c0-23.544,0-46.95,0-70.796
		c-8.832,0-17.245,0-25.895,0c-0.397-3.008-0.427-5.579,0.013-8.419c20.55,0,40.962,0,61.626,0c0.559,2.695,0.392,5.269,0.108,8.286
		C1237.344,320.931,1228.928,320.931,1219.916,320.931z"/>
	<path style="fill:#3177BC;" d="M524.029,177.35c6.104,0.957,12.268,1.012,18.397,0.717c13.497-0.65,26.658-2.88,39.078-8.655
		c6.146-2.858,11.335-6.809,16.079-12.305c1.023,5.984-0.307,11.201-1.783,16.302c-0.756,2.61-3.362,4.073-5.539,5.571
		c-6.912,4.759-14.571,7.909-22.674,9.945c-14.84,3.73-29.854,4.276-45.019,2.408c-3.289-0.405-6.584-0.51-9.617-2.02
		c-0.069-2.112,1.502-2.999,2.878-4.184C518.682,182.672,522.868,181.587,524.029,177.35z"/>
	<path style="fill:#7C9CD1;" d="M575.062,92.984c1.885,3.106,5.132,5.499,5.05,9.636c-0.038,0.162-0.019,0.395-0.122,0.476
		c-12.614,10.003-25.2,20.042-37.87,29.973c-11.128,8.723-22.356,17.319-33.524,25.993c-0.921,0.715-1.752,1.576-1.568,2.929
		c-2.934-0.971-5.89-1.88-8.794-2.935c-1.674-0.609-3.443-1.165-4.511-2.797c2.79-2.041,5.461-4.231,8.165-6.382
		c11.845-9.423,23.851-18.643,35.809-27.922c7.278-5.647,14.582-11.261,21.863-16.903C564.738,101.04,569.896,97.007,575.062,92.984
		z"/>
	<path style="fill:#4D81C2;" d="M586.858,115.15c3.308,4.104,5.101,8.876,6.162,13.971c-1.574-0.164-2.783,0.351-4.035,1.431
		c-3.367,2.903-7.001,5.483-10.482,8.257c-9.516,7.585-19.327,14.799-28.895,22.32c-1.698,1.335-4.035,2.66-3.569,5.561
		c-7.766,0.746-15.43-0.002-23.036-1.578c-0.207-1.79,1.051-2.863,2.236-3.633c2.376-1.544,4.313-3.583,6.536-5.286
		c6.652-5.098,13.347-10.142,19.942-15.314c9.839-7.717,19.549-15.6,29.464-23.217C582.738,116.466,584.341,114.538,586.858,115.15z
		"/>
	<path style="fill:#668EC9;" d="M586.858,115.15c-2.517-0.612-4.12,1.316-5.679,2.513c-9.915,7.617-19.625,15.5-29.464,23.217
		c-6.594,5.172-13.289,10.215-19.942,15.314c-2.223,1.704-4.16,3.742-6.536,5.286c-1.185,0.77-2.443,1.843-2.236,3.633
		c-5.561,0.169-10.719-1.722-15.974-3.122c-0.183-1.353,0.648-2.214,1.568-2.929c11.167-8.674,22.395-17.27,33.524-25.993
		c12.67-9.931,25.256-19.97,37.87-29.973c0.102-0.081,0.084-0.314,0.122-0.476c2.663,3.082,4.351,6.803,6.618,10.146
		C587.208,113.47,587.043,114.341,586.858,115.15z"/>
	<path style="fill:#9AB0DB;" d="M565.08,77.941c2.813,2.118,4.355,5.149,5.878,8.193c-0.49,0.069-1.108-0.031-1.45,0.231
		c-4.839,3.706-9.653,7.444-14.447,11.207c-6.995,5.492-13.947,11.04-20.959,16.51c-6.617,5.163-13.318,10.219-19.928,15.39
		c-7.007,5.482-13.883,11.133-20.959,16.523c-2.401,1.829-4.611,3.728-6.281,6.235c-1.08-0.675-2.265-1.228-3.221-2.048
		c-2.676-2.296-3.062-4.338-1.732-8.065c4.224-0.935,6.891-4.29,10.126-6.696c7.106-5.285,13.986-10.874,20.973-16.32
		c6.6-5.143,13.226-10.253,19.828-15.394c7.117-5.542,14.34-10.958,21.277-16.717C557.816,83.979,561.997,81.613,565.08,77.941z"/>
	<path style="fill:#8AA5D6;" d="M486.934,152.231c1.67-2.508,3.879-4.406,6.281-6.235c7.076-5.39,13.952-11.041,20.959-16.523
		c6.61-5.172,13.311-10.228,19.928-15.39c7.012-5.471,13.964-11.018,20.959-16.51c4.794-3.764,9.608-7.502,14.447-11.207
		c0.342-0.262,0.96-0.162,1.45-0.231c1.376,2.279,3.453,4.137,4.104,6.85c-5.166,4.023-10.324,8.056-15.5,12.067
		c-7.282,5.642-14.585,11.256-21.863,16.903c-11.959,9.279-23.965,18.499-35.809,27.922c-2.704,2.151-5.375,4.341-8.165,6.382
		C490.829,155.98,488.829,154.195,486.934,152.231z"/>
	<path style="fill:#AABCE1;" d="M565.08,77.941c-3.082,3.671-7.264,6.037-10.895,9.052c-6.937,5.759-14.16,11.175-21.277,16.717
		c-6.602,5.141-13.228,10.25-19.828,15.394c-6.987,5.445-13.867,11.035-20.973,16.32c-3.235,2.406-5.901,5.761-10.126,6.696
		c-0.161-5.093,1.864-9.571,3.951-14.031c2.614,0.388,3.776-2.009,5.347-3.195c10.111-7.641,19.966-15.62,29.927-23.461
		c6.467-5.091,12.962-10.148,19.461-15.199c5.451-4.237,10.982-8.375,16.35-12.714c1.284-1.038,2.498-1.516,4.048-1.43
		C563.408,73.349,564.525,75.452,565.08,77.941z"/>
	<path style="fill:#3177BC;" d="M546.039,166.691c-0.466-2.901,1.871-4.227,3.569-5.561c9.568-7.521,19.379-14.735,28.895-22.32
		c3.48-2.774,7.115-5.355,10.482-8.257c1.252-1.08,2.461-1.595,4.035-1.431c2.927,5.325,3.49,11.317,4.942,17.229
		c-3.023,4.225-6.966,7.407-11.466,10.021c-7.993,4.643-16.68,7.234-25.72,8.672C555.9,165.817,551.025,166.812,546.039,166.691z"/>
	<path style="fill:#626367;" d="M1272.512,313.322c3.243-0.137,6.024-0.323,9.011,0.12c0,26.174,0,52.084,0,78.341
		c-2.871,0.748-5.791,0.317-9.011,0.23C1272.512,365.832,1272.512,339.794,1272.512,313.322z"/>
	<path style="fill:#626367;" d="M656.42,391.984c-3.076,0.253-5.864,0.309-8.92-0.04c0-26.194,0-52.233,0-78.519
		c2.987-0.405,5.768-0.265,8.92-0.086C656.42,339.445,656.42,365.483,656.42,391.984z"/>
	<path style="fill:#3177BC;" d="M498.404,196.514c8.689,2.754,17.411,5.433,26.546,6.21c9.607,0.816,19.216,0.997,28.834-0.158
		c9.604-1.153,18.858-3.49,27.736-7.33c0.428-0.185,0.98-0.085,1.474-0.118l0.015,0.015c0.228,2.073-1.57,2.801-2.716,3.847
		c-9.848,8.985-21.489,14.4-34.671,15.772c-13.722,1.428-26.705-1.484-38.491-8.94c-3.628-2.295-7.379-4.463-9.76-8.242
		C497.715,197.218,498.06,196.866,498.404,196.514z"/>
	<path style="fill:#4D81C2;" d="M524.029,177.35c-1.16,4.237-5.347,5.323-8.199,7.779c-1.376,1.185-2.947,2.072-2.878,4.184
		c-5.207-0.638-10.335-1.548-14.922-4.324c0.375-2.937,2.787-4.254,4.809-5.763c1.827-1.364,3.854-2.424,4.179-4.992
		C512.674,175.348,518.275,176.767,524.029,177.35z"/>
	<path style="fill:#668EC9;" d="M507.016,174.234c-0.325,2.567-2.352,3.628-4.179,4.992c-2.022,1.509-4.434,2.826-4.809,5.763
		c-4.94-1.679-9.614-3.808-13.184-7.802c1.414-1.297,2.536-2.821,4.271-3.888c1.603-0.986,3.213-2.388,3.938-4.37
		C497.708,170.697,502.362,172.466,507.016,174.234z"/>
	<path style="fill:#7C9CD1;" d="M493.054,168.928c-0.725,1.981-2.335,3.383-3.938,4.37c-1.735,1.068-2.857,2.591-4.271,3.888
		c-2.225-0.217-3.122-2.012-3.573-3.682c-1.39-5.148-2.563-10.369-1.98-16.72C483.499,162.059,488.362,165.39,493.054,168.928z"/>
	<path style="fill:#4D81C2;" d="M497.371,197.57c-0.957-0.357-1.583-1.059-2.287-2.104c1.6-0.658,2.496,0.069,3.319,1.048
		C498.06,196.866,497.715,197.218,497.371,197.57z"/>
	<path style="fill:#55585C;" d="M585.089,212.719c0.609-0.491,1.106-0.807,1.739-0.21
		C586.346,213.645,585.753,212.857,585.089,212.719z"/>
	<path style="fill:#3177BC;" d="M582.995,195.118c0.14-0.221,0.28-0.442,0.421-0.662c0.118,0.151,0.236,0.301,0.355,0.452
		c-0.253,0.075-0.507,0.151-0.76,0.226L582.995,195.118z"/>
	<path style="fill:#5B5C60;" d="M1594.996,38.128c-2.316,0-4.632,0-6.925,0c-3.045-2.11-2.926-7.387-8.162-8.169
		c0,2.945,0,5.372,0,7.987c-2.629,0.595-4.898,0.359-7.493,0.187c0-8.972,0-17.876,0-27.406c5.93-0.54,12.01-1.081,17.86,0.947
		c5.109,1.772,6.907,10.129,3.394,14.477c-0.814,1.007-1.887,1.803-2.768,2.628c0.422,3.654,4.506,5.494,4.114,9.334
		L1594.996,38.128z M1579.564,16.944c-0.887,2.05-0.73,4.049-0.108,6.247c2.526-0.254,5.02,0.798,7.177-0.982
		c0.575-1.642,0.812-3.195-0.186-4.815C1584.229,16.494,1581.939,16.945,1579.564,16.944z"/>
</g>
</svg>
