<?xml version="1.0" encoding="iso-8859-1"?>
<!-- Generator: Adobe Illustrator 27.0.0, SVG Export Plug-In . SVG Version: 6.00 Build 0)  -->
<svg version="1.1" id="Layer_1" xmlns="http://www.w3.org/2000/svg" xmlns:xlink="http://www.w3.org/1999/xlink" x="0px" y="0px"
	 viewBox="0 0 1744 363" style="enable-background:new 0 0 1744 363;" xml:space="preserve">
<g>
	<path style="fill:#3A3737;" d="M146,0c0.223,0.771,0.815,0.906,1.516,0.934c12.244,0.483,24.042,3.232,35.438,7.546
		c4.162,1.576,7.791,1.562,11.948,0.064c13.732-4.949,28.08-7.074,42.579-7.294c15.205-0.231,30.089,2.34,44.584,7.201
		c29.007,9.728,51.771,27.713,69.064,52.603c11.72,16.869,19.08,35.66,21.937,56.125c1.153,8.258,2.14,16.532,1.713,24.862
		c-1.866,36.405-15.144,67.782-41.515,93.305c-2.633,2.548-5.312,5.048-8.158,7.75c-1.643,7.23-2.765,14.773-4.921,22.115
		c-4.993,17.002-13.152,32.317-24.162,46.093c-14.728,18.427-32.964,32.337-54.879,41.207c-10.186,4.123-20.706,7.152-31.663,8.552
		c-3.134,0.4-6.234,1.046-9.412,1.044c-7.046,0.002-14.092,0.005-21.138,0.007c-3.176-0.01-6.282-0.575-9.414-1.039
		c-14.765-2.188-28.801-6.678-42.047-13.487c-16.946-8.711-31.495-20.462-43.501-35.302c-8.738-10.801-15.73-22.617-20.877-35.54
		c-4.012-10.071-6.619-20.508-8.303-30.908c-14.311-11.405-26.559-24.215-35.66-39.815C8.675,188.105,1.998,168.983,0.913,148.111
		c0.038-5.389,0.072-10.777,0.116-16.166C1.036,131.099,0.975,130.314,0,130c0-1.667,0-3.333,0-5
		c1.845-2.715,1.435-5.977,1.84-8.943c2.992-21.908,11.525-41.529,24.256-59.38C37.865,40.176,52.7,26.956,70.526,17.265
		C84.784,9.514,99.83,4.007,116.047,1.824C119.347,1.38,122.935,1.909,126,0c1.333,0,2.667,0,4,0c0.306,0.958,1.073,1.032,1.91,1.03
		c3.062-0.01,6.124-0.008,9.185,0.004C141.933,1.037,142.7,0.963,143,0C144,0,145,0,146,0z M66.942,167.712
		c-16.213-37.878-1.363-77.921,31.913-97.576c31.715-18.733,72.402-10.647,98.221,20.196c16.379,1.313,32.684,4.947,48.595,11.774
		C228.448,50.468,181.24,19.094,129.616,22.25c-48.555,2.968-89.02,35.163-103.082,82.391
		c-13.442,45.148,5.373,90.698,27.364,109.95C55.711,198.33,59.854,182.767,66.942,167.712z M215.261,25.058
		c5.24,4.429,10.136,8.378,14.817,12.567c7.107,6.36,12.846,13.936,18.354,21.658c1.579,2.213,3.364,3.227,5.985,3.801
		c7.952,1.74,15.518,4.547,22.518,8.855c9.599,5.908,18.047,12.983,24.299,22.488c9.673,14.706,14.23,30.665,13.031,48.401
		c-0.684,10.117-2.976,19.757-7.558,28.579c-11.357,21.866-29.14,35.712-53.498,40.701c-2.845,0.583-5.126,1.824-6.913,4.33
		c-7.375,10.34-15.896,19.592-26.136,27.232c-2.128,1.588-4.609,3.025-6.673,6.007c49.353,7.768,89.993-6.303,118.383-46.836
		c27.846-39.757,29.164-82.85,3.891-124.293C308.547,33.923,266.835,18.088,215.261,25.058z M117.958,200.465
		c-8.218-15.062-12.305-31.388-15.248-48.436c-33.208,39.764-36.233,92.675-9.723,135.168
		c25.916,41.542,76.332,62.366,125.21,49.917c45.053-11.475,73.886-49.452,80.24-77.308c-15.721,7.077-31.944,11.983-48.871,13.359
		c-22.919,29.388-63.454,37.631-96.006,20.181C120.286,275.509,105.582,236.155,117.958,200.465z M285.935,164.404
		c-24.371-38.296-67.98-54.002-96.065-51.879c-5.75,11.897-7.494,24.301-4.579,37.352c31.255-0.111,54.833,13.061,70.998,39.226
		C269.252,184.214,279.119,176.279,285.935,164.404z M137.404,191.395c6.555-1.677,13.169-1.955,19.302-4.399
		c6.024-2.401,11.608-5.601,16.142-10.305c-14.438-26.797-14.146-53.255,0.777-79.461c-8.052-8.75-23.623-15.766-35.521-14.861
		C119.635,118.303,119.246,154.421,137.404,191.395z M140.927,251.027c40.746-3.086,71.706-21.465,93.576-55.478
		c-7.856-11.567-18.354-18.457-31.296-22.184c-1.262,1.9-2.413,3.709-3.637,5.467c-14.015,20.139-33.094,31.488-57.709,33.215
		c-1.988,0.14-3.978,0.28-5.382,1.795C133.258,226.742,135.362,238.844,140.927,251.027z M82.45,141.407
		c5.724-5.728,10.749-11.966,16.934-16.986c2.928-2.377,4.183-5.289,4.733-8.88c0.576-3.758,1.558-7.458,2.441-11.165
		c1.135-4.769,2.348-9.519,3.61-14.61C93.259,97.125,79.798,121.172,82.45,141.407z M159.841,271.429
		c17.727,12.717,44.406,10.952,56.154,1.676c-0.252-0.204-0.473-0.513-0.76-0.595c-9.067-2.607-18.21-4.962-27.067-8.256
		c-1.839-0.684-3.529-0.28-5.31,0.354c-5.776,2.057-11.721,3.55-17.66,5.056C163.469,270.103,161.505,269.832,159.841,271.429z
		 M292.64,136.831c1.087-18.839-13.772-41.2-27.466-45.654c-0.315,0.859,0.102,1.6,0.312,2.392
		c1.824,6.889,3.754,13.755,5.336,20.699c0.479,2.1,1.25,3.634,2.892,4.96c4.791,3.867,9.255,8.1,13.621,12.441
		C289.062,133.386,290.249,135.687,292.64,136.831z"/>
	<path style="fill:#444140;" d="M1744,125c-1.637,0.702-1.43,2.472-2.072,3.725c-4.066,7.931-11.886,12.061-21.572,11.235
		c-8.171-0.697-15.355-6.622-17.774-14.659c-3.677-12.218,5.372-25.314,18.136-26.248c11.202-0.819,18.806,4.409,22.516,15.446
		c0.076,0.227,0.503,0.336,0.766,0.5C1744,118.333,1744,121.667,1744,125z M1707.265,119.485
		c0.408,10.114,7.323,15.855,15.536,16.156c8.704,0.319,15.883-7.286,15.714-16.36c-0.167-8.953-7.17-16.151-15.716-15.946
		C1714.15,103.543,1707.659,110.011,1707.265,119.485z"/>
	<path style="fill:#A7A2A2;" d="M179,363c0.092-0.305,0.068-0.601-0.071-0.887c7.046-0.002,14.092-0.005,21.138-0.007
		c-0.148,0.289-0.171,0.587-0.067,0.894C193,363,186,363,179,363z"/>
	<path style="fill:#777272;" d="M0.913,148.111l-0.443-0.164L0,148c0-6,0-12,0-18c0.975,0.314,1.036,1.099,1.029,1.945
		C0.984,137.334,0.95,142.722,0.913,148.111z"/>
	<path style="fill:#777272;" d="M143,0c-0.3,0.963-1.067,1.037-1.904,1.034c-3.062-0.012-6.124-0.014-9.185-0.004
		C131.073,1.032,130.306,0.958,130,0C134.333,0,138.667,0,143,0z"/>
	<path style="fill:#3A3838;" d="M1314.686,260.035c-12.056,0-23.344,0-34.899,0c-13.176-22.22-26.378-44.486-39.667-66.896
		c-9.51,0-18.966,0-28.925,0c0,22.082,0,44.301,0,66.803c-10.07,0-19.645,0-29.568,0c0-52.662,0-105.379,0-158.373
		c0.664-0.892,1.926-0.456,3.022-0.457c25.321-0.022,50.643-0.113,75.964,0.04c9.51,0.057,18.876,1.422,27.695,5.335
		c12.603,5.591,20.473,15.223,23.334,28.589c2.266,10.587,1.686,21.158-2.362,31.388c-4.385,11.08-12.563,18.209-23.469,22.325
		c-4.012,1.514-8.293,2.314-12.961,3.578C1286.75,214.846,1300.57,237.201,1314.686,260.035z M1211.123,164.618
		c0.638,0.205,0.786,0.294,0.933,0.294c15.469,0.009,30.938-0.024,46.407,0.041c3.509,0.015,6.957-0.282,10.406-0.873
		c8.74-1.499,14.294-8.1,14.276-17.05c-0.018-8.865-5.73-15.715-14.343-17.039c-3.442-0.529-6.9-0.869-10.414-0.848
		c-14.471,0.086-28.942,0.018-43.413,0.068c-1.251,0.004-2.625-0.562-3.854,0.445
		C1211.123,141.239,1211.123,152.834,1211.123,164.618z"/>
	<path style="fill:#393736;" d="M955.936,164.494c-13.25,21.474-26.5,42.948-40.172,65.107
		c-13.857-22.741-27.421-45.003-40.985-67.265c-0.244,0.117-0.488,0.233-0.732,0.35c0,32.282,0,64.563,0,97.08
		c-9.753,0-19.326,0-28.974,0c0-52.984,0-105.738,0-158.741c6.71,0,13.138,0,20.157,0c16.573,26.804,33.341,53.925,50.272,81.308
		c17.625-27.293,35.113-54.372,52.549-81.371c6.254,0,12.208,0,18.615,0c-0.251,52.95-0.501,105.712-0.753,158.757
		c-9.705,0-19.253,0-28.982,0c0-31.822,0-63.439,0-95.055C956.599,164.606,956.268,164.55,955.936,164.494z"/>
	<path style="fill:#393736;" d="M747.23,260.094c-12.083,0-23.227,0-34.885,0c-13.145-22.159-26.433-44.559-39.727-66.969
		c-9.733,0-19.334,0-29.319,0c0,22.308,0,44.4,0,66.794c-9.802,0-19.227,0-28.977,0c0-52.583,0-105.342,0-158.327
		c0.866-0.979,2.286-0.472,3.543-0.473c24.664-0.031,49.329-0.112,73.993,0.022c10.186,0.055,20.182,1.381,29.626,5.702
		c11.713,5.359,18.997,14.307,22.03,26.693c2.716,11.091,2.312,22.052-1.856,32.827c-4.393,11.355-12.747,18.459-23.869,22.559
		c-3.87,1.426-7.962,2.248-12.441,3.48C719.277,214.916,733.071,237.21,747.23,260.094z M643.564,164.933c1.844,0,3.472,0,5.1,0
		c14.133,0,28.265-0.038,42.398,0.027c3.507,0.016,6.954-0.265,10.397-0.888c6.942-1.258,14.058-6.272,14.2-16.683
		c0.126-9.206-4.831-15.009-13.583-17.249c-3.003-0.769-6.196-1.027-9.389-1.008c-15.13,0.087-30.26,0.025-45.39,0.063
		c-1.255,0.003-2.659-0.505-3.733,0.557C643.564,141.39,643.564,152.962,643.564,164.933z"/>
	<path style="fill:#3A3737;" d="M1056.43,129.101c0,12.086,0,23.676,0,35.682c21.328,0,42.576,0,64.148,0c0,9.466,0,18.526,0,27.965
		c-21.199,0-42.46,0-64.034,0c0,13.271,0,26.169,0,39.47c30.369,0,60.62,0,91.26,0c0,9.44,0,18.487,0,27.774
		c-40.136,0-80.229,0-120.677,0c0-52.721,0-105.46,0-158.548c40.031,0,80.251,0,120.773,0c0,9.031,0,18.095,0,27.657
		C1117.369,129.101,1086.998,129.101,1056.43,129.101z"/>
	<path style="fill:#3B3838;" d="M483.892,192.908c0,22.607,0,44.69,0,67.046c-9.918,0-19.491,0-29.339,0
		c0-52.751,0-105.475,0-158.277c0.871-0.998,2.117-0.564,3.216-0.565c24.98-0.025,49.961-0.084,74.941,0.016
		c9.173,0.037,18.217,1.225,26.821,4.675c13.324,5.343,21.622,14.979,24.756,29.038c2.894,12.981,1.804,25.472-4.91,37.114
		c-6.232,10.805-16.363,16.168-28.047,18.987c-6.655,1.606-13.471,1.99-20.313,1.975
		C515.542,192.885,500.068,192.908,483.892,192.908z M484.227,129.648c0,11.7,0,23.395,0,35.276c16.092,0,31.881-0.048,47.67,0.037
		c3.521,0.019,6.974-0.345,10.404-0.97c8.207-1.497,13.811-8.508,13.757-17.066c-0.053-8.481-5.808-15.578-14.006-16.878
		c-3.262-0.517-6.557-0.939-9.917-0.914c-14.313,0.106-28.628,0.028-42.942,0.07C487.581,129.208,485.892,128.768,484.227,129.648z"
		/>
	<path style="fill:#3A3838;" d="M1554.816,130.88c-8.097,6.079-16.055,12.054-24.229,18.191
		c-10.968-14.816-25.381-23.199-44.065-23.011c-15.073,0.152-28.07,6.014-38.288,16.773c-21.873,23.032-20.559,57.426,2.592,78.584
		c23.603,21.572,60.158,18.462,80.294-7.698c7.873,5.654,15.767,11.323,23.929,17.185c-9.449,11.233-20.09,20.352-33.448,25.795
		c-28.479,11.605-56.146,9.353-82.148-6.783c-19.909-12.355-32.118-30.694-36.307-53.832c-4.48-24.745,1.021-47.356,16.824-66.988
		c12.43-15.44,28.742-24.961,48.179-29.048c22.442-4.718,43.693-1.513,63.452,10.113
		C1540.515,115.407,1548.25,122.214,1554.816,130.88z"/>
	<path style="fill:#3B3838;" d="M1605.657,231.048c-4.049,10.051-7.991,19.836-11.897,29.531c-10.701,0-20.987,0-31.626,0
		c23.183-53.117,46.258-105.988,69.471-159.173c5.785,0,11.723,0,18.275,0c22.264,52.707,44.68,105.773,67.233,159.164
		c-10.85,0-21.15,0-31.878,0c-3.899-9.679-7.841-19.465-11.892-29.521C1650.902,231.048,1628.488,231.048,1605.657,231.048z
		 M1639.719,147.39c-7.94,19.461-15.428,37.814-23.024,56.432c15.503,0,30.422,0,45.888,0
		C1654.974,185.041,1647.524,166.652,1639.719,147.39z"/>
	<path style="fill:#3C3A39;" d="M1343.528,101.339c9.947,0,19.396,0,29.124,0c0,53.053,0,105.913,0,159.051
		c-9.66,0-19.229,0-29.124,0C1343.528,207.349,1343.528,154.511,1343.528,101.339z"/>
	<path style="fill:#393736;" d="M804.949,260.73c-9.822,0-19.241,0-28.876,0c0-53.125,0-106.028,0-159.254
		c9.564,0,19.106,0,28.876,0C804.949,154.541,804.949,207.443,804.949,260.73z"/>
	<path style="fill:#4998CE;" d="M66.942,167.712c-7.089,15.055-11.231,30.618-13.044,46.88
		c-21.99-19.253-40.805-64.803-27.364-109.95C40.595,57.413,81.06,25.219,129.616,22.25c51.624-3.156,98.833,28.218,116.056,79.855
		c-15.911-6.827-32.216-10.461-48.595-11.774c-25.819-30.843-66.507-38.929-98.221-20.196
		C65.579,89.79,50.729,129.834,66.942,167.712z"/>
	<path style="fill:#ED4227;" d="M215.261,25.058c51.575-6.97,93.286,8.865,120.499,53.489
		c25.273,41.442,23.955,84.536-3.891,124.293c-28.39,40.534-69.03,54.604-118.383,46.836c2.064-2.981,4.545-4.419,6.673-6.007
		c10.24-7.64,18.761-16.892,26.136-27.232c1.787-2.506,4.068-3.747,6.913-4.33c24.358-4.989,42.141-18.836,53.498-40.701
		c4.582-8.822,6.874-18.462,7.558-28.579c1.199-17.737-3.359-33.696-13.031-48.401c-6.252-9.505-14.7-16.579-24.299-22.488
		c-7-4.309-14.566-7.115-22.518-8.855c-2.622-0.574-4.407-1.588-5.985-3.801c-5.508-7.722-11.246-15.297-18.354-21.658
		C225.397,33.436,220.501,29.487,215.261,25.058z"/>
	<path style="fill:#ED4227;" d="M137.404,191.395c-18.158-36.974-17.769-73.092,0.7-109.026c11.898-0.906,27.469,6.11,35.521,14.861
		c-14.924,26.206-15.215,52.664-0.777,79.461c-4.534,4.704-10.118,7.903-16.142,10.305
		C150.573,189.44,143.959,189.718,137.404,191.395z"/>
	<path style="fill:#4998CE;" d="M140.927,251.027c-5.565-12.183-7.669-24.285-4.447-37.184c1.405-1.515,3.394-1.655,5.382-1.795
		c24.614-1.728,43.694-13.076,57.709-33.215c1.224-1.758,2.375-3.567,3.637-5.467c12.941,3.727,23.44,10.617,31.296,22.184
		C212.633,229.562,181.673,247.941,140.927,251.027z"/>
	<path style="fill:#444140;" d="M1729.022,120.453c2.173,2.397,2.978,5.741,3.609,9.197c-1.611,0.572-3.228,0.488-5.086,0.054
		c-1.728-2.947-0.731-8.707-7.19-7.455c-1.076,2.149,0.031,4.714-0.649,7.162c-1.25,1.077-2.728,0.52-4.438,0.447
		c0-6.606,0-13.183,0-20.018c3.766-1.416,7.787-1.187,11.622-0.474c5.166,0.96,6.385,5.677,2.789,9.562
		C1729.358,119.275,1728.788,119.453,1729.022,120.453z M1720.135,113.266c-0.142,1.833-0.472,3.433,0.233,4.982
		c1.551,0.71,2.954,0.194,4.365-0.164c1.285-0.327,2.014-1.241,1.998-2.469c-0.019-1.448-0.872-2.45-2.387-2.663
		C1723.06,112.773,1721.76,112.594,1720.135,113.266z"/>
</g>
</svg>
