<?xml version="1.0" encoding="iso-8859-1"?>
<!-- Generator: Adobe Illustrator 27.0.0, SVG Export Plug-In . SVG Version: 6.00 Build 0)  -->
<svg version="1.1" id="Layer_1" xmlns="http://www.w3.org/2000/svg" xmlns:xlink="http://www.w3.org/1999/xlink" x="0px" y="0px"
	 viewBox="0 0 1844.108 410.264" style="enable-background:new 0 0 1844.108 410.264;" xml:space="preserve">
<g>
	<path style="fill:#393C46;" d="M1130,410.264c-0.386-1.388-1.557-0.894-2.455-1.002c-5.972-0.718-11.568-2.477-17.023-5.86
		c1.42-2.853,2.729-5.486,3.941-7.921c1.773-0.763,2.805,0.347,3.939,0.91c5.978,2.968,12.242,4.146,18.864,3.117
		c7.396-1.149,11.343-5.522,11.891-13.087c0.12-1.654,0.326-3.309-0.285-5.372c-3.793,2.77-7.42,5.725-12.179,6.107
		c-4.843,0.388-9.618,0.217-14.177-1.882c-4.361-2.008-7.887-4.985-10.544-8.904c-7.59-11.191-5.489-28.568,4.029-37.061
		c7.714-6.883,23.74-10.261,33.866,0.703c0.831-1.751,0.068-3.641,0.696-5.585c3.304-1.118,6.743-0.337,9.951-0.452
		c1.268,1.091,0.847,2.334,0.848,3.449c0.021,14.662,0.056,29.324-0.016,43.985c-0.019,3.809-0.248,7.609-1.228,11.357
		c-2.203,8.43-7.973,14.935-20.16,16.507c-1.329,0.172-3.031-0.855-3.959,0.991C1134,410.264,1132,410.264,1130,410.264z
		 M1118.982,360.084c0,1.162-0.095,2.334,0.015,3.485c0.75,7.861,6.215,13.637,14.048,14.378c6.768,0.64,13.555-2.294,16.323-10.266
		c1.864-5.369,1.747-10.772-0.413-16.008c-2.841-6.886-10.271-10.582-17.518-8.926
		C1123.394,344.585,1118.932,350.755,1118.982,360.084z"/>
	<path style="fill:#E7EEF6;" d="M1.09,310.227c-0.363,0.012-0.727,0.024-1.09,0.036c0-70.333,0-140.667,0-211
		c0.361,0.011,0.723,0.022,1.084,0.034c-0.028,0.999-0.08,1.998-0.08,2.996C1,170.606,1,238.919,1.004,307.231
		C1.004,308.23,1.06,309.228,1.09,310.227z"/>
	<path style="fill:#429DCA;" d="M1.09,310.227c-0.03-0.999-0.086-1.997-0.086-2.996C1,238.919,1,170.606,1.003,102.294
		c0-0.999,0.052-1.998,0.08-2.996c14.278-7.778,28.563-15.543,42.831-23.339c10.919-5.966,21.818-11.968,32.722-17.963
		c20.355-11.191,40.695-22.41,61.065-33.576c12.223-6.7,24.491-13.316,36.735-19.978c2.612-1.421,5.205-2.875,8.039-4.442
		c60.456,33.223,120.905,66.441,181.376,99.672c0,70.013,0,139.801,0,210.395c-60.037,32.959-120.484,66.143-181.202,99.476
		c-6.857-3.638-13.758-7.201-20.567-10.931c-14.259-7.812-28.465-15.719-42.701-23.573c-15.835-8.736-31.68-17.453-47.519-26.182
		c-10.026-5.525-20.027-11.097-30.077-16.577C28.239,324.894,14.656,317.575,1.09,310.227z M323.826,123.39
		c-18.486-10.166-36.648-20.164-54.82-30.145c-11.343-6.23-22.702-12.429-34.049-18.651c-16.583-9.093-33.173-18.174-49.728-27.318
		c-2.111-1.166-3.736-1.117-5.949,0.129c-14.163,7.975-28.434,15.758-42.697,23.555c-25.913,14.164-51.857,28.273-77.761,42.454
		c-5.944,3.254-11.778,6.708-17.64,10.057c0,54.352,0,108.469,0,162.488c0.533,0.435,0.881,0.819,1.31,1.055
		c17.6,9.663,35.208,19.312,52.813,28.965c11.784,6.461,23.578,12.906,35.346,19.395c16.27,8.972,32.527,17.968,48.772,26.986
		c1.88,1.044,3.579,1.36,5.61,0.241c10.756-5.921,21.701-11.51,32.322-17.661c17.091-9.898,34.607-19.015,51.822-28.683
		c14.467-8.125,29.137-15.886,43.601-24.014c3.713-2.087,7.791-3.633,11.046-6.364C323.826,231.687,323.826,177.728,323.826,123.39z
		"/>
	<path style="fill:#439DCA;" d="M1645.352,151.39c2.711,1.422,4.818,2.401,6.8,3.589c9.464,5.67,15.068,14.129,17.927,24.661
		c3.291,12.123,3.429,24.174-0.924,36.01c-6.21,16.885-18.705,26.923-35.762,31.547c-4.939,1.339-10.056,1.987-15.216,1.987
		c-22.984-0.003-45.969-0.011-68.953,0.016c-2.547,0.003-5.006-0.059-7.113-2.45c0-60.462,0-121.204,0-182.133
		c2.286-0.98,4.692-1.196,7.181-1.192c18.154,0.03,36.321-0.375,54.458,0.18c9.208,0.282,18.53,0.061,27.649,2.527
		c19.262,5.209,31.415,16.702,34.826,36.915c2.077,12.307,0.387,23.743-5.936,34.469c-2.573,4.365-6.262,7.726-10.305,10.705
		C1648.673,149.187,1647.296,150.064,1645.352,151.39z M1577.772,139.344c11.149,0,21.46-0.019,31.771,0.012
		c2.843,0.009,5.624-0.167,8.342-1.129c8.719-3.087,14.459-9.141,15.874-18.176c1.353-8.644-0.044-16.964-7.47-23.056
		c-4.826-3.959-10.417-5.745-16.571-5.783c-10.83-0.067-21.66-0.043-32.49-0.006c-1.271,0.004-2.655-0.425-3.863,0.526
		c0,43.242,0,86.458,0,129.766c0.917,0.239,1.544,0.548,2.169,0.543c14.134-0.122,28.311,0.828,42.386-0.908
		c10.046-1.239,18.45-6.759,20.78-18.4c0.869-4.341,1.166-8.701,0.483-13.265c-1.325-8.844-5.268-15.584-13.224-19.81
		c-4.009-2.13-8.255-3.376-12.847-3.357c-8.151,0.034-16.302,0.009-24.682,0.009
		C1584.455,157.644,1581.342,148.806,1577.772,139.344z"/>
	<path style="fill:#439DCA;" d="M1036.018,155.953c-0.328-16.921,1.56-33.132,6.92-48.838c4.686-13.731,12.449-25.348,24.459-33.657
		c9.998-6.917,21.294-10.147,33.441-11.439c8.042-0.855,15.922-0.402,23.805,0.342c14.514,1.371,27.887,6.15,38.778,16.134
		c9.542,8.748,15.237,19.98,18.505,32.405c2.619,9.955,3.909,20.097,4.312,30.419c0.22,5.632,0.877,11.277,0.562,16.905
		c-0.841,15.028-1.335,30.093-5.725,44.703c-5.449,18.133-15.28,32.713-32.732,41.161c-9.649,4.67-19.949,7.029-30.695,7.224
		c-11.293,0.205-22.557,0.301-33.57-2.989c-14.913-4.454-26.754-12.812-34.785-26.334c-6.638-11.176-9.777-23.39-11.4-36.162
		C1036.614,175.765,1035.805,165.698,1036.018,155.953z M1154.166,157.182c-0.366-7.623-0.036-15.249-0.931-22.898
		c-0.932-7.96-2.29-15.777-5.45-23.077c-4.186-9.672-10.97-16.841-21.471-20.036c-5.995-1.824-12.069-2.217-18.214-1.921
		c-16.455,0.793-26.626,7.533-33.136,23.933c-4.077,10.27-5.443,21.161-5.822,32.079c-0.368,10.619-0.474,21.259,0.681,31.898
		c0.808,7.445,1.882,14.793,4.308,21.845c4.152,12.066,11.947,20.456,24.736,23.676c8.07,2.032,16.117,1.914,24.111,0.057
		c6.731-1.564,12.879-4.591,17.553-9.812c5.286-5.906,8.607-12.92,10.459-20.635
		C1153.761,180.741,1154.486,169.013,1154.166,157.182z"/>
	<path style="fill:#439DCA;" d="M879.027,157.013c0.187,14.983-1.247,29.783-5.049,44.307c-3.032,11.582-8.268,22.1-16.538,30.768
		c-8.698,9.117-19.672,14.37-31.91,17.23c-10.992,2.569-22.149,2.589-33.22,1.786c-16.841-1.222-32.016-6.797-43.742-19.722
		c-8.013-8.833-12.645-19.407-15.486-30.774c-2.655-10.62-4.134-21.445-4.176-32.438c-0.021-5.476-0.389-10.947-0.641-16.415
		c-0.357-7.769,0.659-15.557,1.795-23.26c1.624-11.011,4.54-21.648,9.633-31.644c9.109-17.876,23.609-28.993,42.997-33.166
		c9.475-2.039,19.197-2.923,29.128-1.76c8.603,1.007,17.028,2.158,25.164,5.186c15.482,5.762,26.33,16.445,32.899,31.411
		c5.309,12.096,7.471,24.927,8.326,38.091C878.652,143.418,878.925,150.207,879.027,157.013z M846.979,155.484
		c0.453-6.418-0.185-14.043-1.067-21.627c-0.879-7.553-2.323-15.037-5.239-22.116c-3.915-9.504-10.417-16.575-20.216-20.122
		c-6.476-2.344-13.272-2.634-20.124-2.419c-15.681,0.49-26.969,8.687-32.511,23.273c-2.721,7.16-4.172,14.554-5.198,22.131
		c-1.073,7.926-0.847,15.9-1.207,23.826c-0.22,4.855,0.272,9.924,0.578,14.889c0.562,9.115,1.892,18.103,5.088,26.694
		c3.485,9.369,9.181,16.821,18.783,20.737c4.023,1.641,8.209,2.673,12.474,3.087c9.93,0.966,19.533-0.228,28.209-5.631
		c8.984-5.595,13.677-14.215,16.43-24.062C846.402,181.908,847.221,169.367,846.979,155.484z"/>
	<path style="fill:#429DCA;" d="M618.465,148.084c8.036,0,15.181,0.261,22.297-0.078c6.244-0.298,12.575-0.503,18.442-3.275
		c7.479-3.534,11.673-9.619,13.61-17.398c1.424-5.719,1.195-11.566-0.112-17.233c-2.312-10.025-9.388-15.674-18.963-17.549
		c-13.121-2.569-26.474-0.797-39.382-1.211c-1.85,2.202-1.191,4.292-1.192,6.214c-0.039,47.483-0.025,94.966-0.047,142.449
		c-0.001,2.307,0.352,4.661-0.457,6.842c-1.673,2.157-3.917,2.542-6.325,2.327c-7.935-0.708-16.15,1.631-24.081-1.583
		c0-61.342,0-122.091,0-182.76c0.636-0.91,1.525-0.733,2.318-0.732c23.658,0.027,47.322-0.263,70.971,0.232
		c14.621,0.306,27.513,5.766,37.61,16.679c6.582,7.114,10.241,15.709,11.931,25.257c1.053,5.952,1.411,11.936,0.836,17.869
		c-1.559,16.078-7.939,29.703-21.534,39.206c-3.23,2.258-6.65,4.294-10.234,5.551c-0.733,2.11,0.447,3.488,1.153,4.929
		c11.034,22.496,22.094,44.978,33.175,67.451c0.963,1.953,2.094,3.818,1.266,6.219c-1.068,1.343-2.588,1.719-4.351,1.71
		c-7.664-0.04-15.328,0.045-22.991-0.045c-3.764-0.044-6.558-1.647-8.227-5.299c-5.995-13.117-12.134-26.168-18.215-39.246
		c-4.674-10.051-9.342-20.104-14.07-30.279c-4.505,0-8.812,0-13.433,0C625.066,165.848,621.443,157.58,618.465,148.084z"/>
	<path style="fill:#439DCA;" d="M1362.103,247.732c-0.504-2.38-0.048-4.881,0.804-7.471c8.217-24.981,16.355-49.987,24.51-74.988
		c9.383-28.77,18.787-57.534,28.114-86.323c1.572-4.853,2.873-9.791,4.953-14.756c10.589,0,21.063,0.004,31.537-0.003
		c2.425-0.002,4.06,1.111,5.114,3.291c0.87,1.799,1.554,3.646,2.174,5.545c6.677,20.436,13.39,40.86,20.118,61.279
		c9.832,29.842,19.712,59.668,29.508,89.522c2.165,6.599,4.092,13.271,6.57,19.771c1.488,3.903,0.236,5.61-3.976,5.648
		c-7.499,0.067-14.999,0.037-22.498,0.009c-3.485-0.013-5.818-1.424-7.188-4.934c-3.195-8.188-5.113-16.748-7.636-25.124
		c-5.004-16.612-9.557-33.36-14.348-50.037c-6.295-21.916-12.614-43.826-19.007-65.713c-0.592-2.026-0.857-4.25-2.339-5.96
		c-2.128,3.199-16.122,50.141-23.363,78.402c3.345,1.129,6.8,0.408,10.172,0.525c3.662,0.127,7.332,0.029,10.998,0.029
		c3.484,0,6.969,0,10.832,0c5.597,8.628,11.166,17.213,16.77,25.852c-0.85,0.257,0.108,0.037-0.33,0.539
		c-0.099,0.114-0.298,0.198-0.45,0.198c-18.477,0.009-36.954,0.008-55.657,0.008c-2.746,6.265-4.408,12.651-6.428,18.9
		c-2.236,6.919-4.148,13.944-6.415,20.853c-1.747,5.325-3.494,6.426-9.221,6.463c-6.166,0.04-12.333,0.022-18.499,0
		C1365.289,249.25,1363.54,249.572,1362.103,247.732z"/>
	<path style="fill:#439DCA;" d="M1701.267,219.6c2.12-0.791,4.311-0.471,6.432-0.261c8.561,0.846,17.089,2.197,25.668,2.654
		c8.622,0.46,17.246,2.001,25.879,1.101c6.866-0.716,13.784-1.279,20.228-4.475c8.088-4.013,13.101-12.47,11.727-22.55
		c-0.336-2.466,0.033-4.98-0.567-7.448c-1.959-8.061-7.398-12.708-14.911-15.327c-7.049-2.457-14.405-3.575-21.685-5.09
		c-14.246-2.964-28.531-5.91-40.726-14.743c-10.252-7.426-15.191-17.484-16.494-29.891c-0.754-7.182-0.639-14.156,1.046-21.167
		c4.233-17.612,15.171-29.067,31.995-35.21c6.259-2.285,12.754-3.271,19.352-4.082c5.646-0.694,11.289-1.092,16.898-0.689
		c13.519,0.972,27.098,1.751,40.166,5.881c1.103,0.348,2.201,0.731,3.259,1.194c7.235,3.166,8.105,4.867,5.958,12.598
		c-1.094,3.941-1.138,8.263-4.128,11.887c-2.898,0.652-6.087,0.625-9.169,0.113c-16.455-2.731-33.019-3.6-49.645-2.743
		c-5.983,0.308-11.777,1.899-16.451,6.136c-3.293,2.984-5.396,6.498-6.408,10.946c-0.987,4.337-1.07,8.681-0.398,12.869
		c1.326,8.266,6.887,12.832,14.754,15.018c9.089,2.525,18.432,3.832,27.599,5.962c11.302,2.626,22.538,5.419,32.407,11.979
		c8.808,5.855,14.548,13.713,17.194,24.066c3.109,12.162,3.19,24.214-0.265,36.227c-3.417,11.88-10.746,20.751-21.456,26.919
		c-8.74,5.034-18.096,7.75-28.118,8.988c-9.318,1.151-18.632,1.218-27.89,0.664c-13.198-0.79-26.389-2.243-38.956-6.865
		c-1.858-0.683-3.745-1.417-5.416-2.455c-2.827-1.756-3.288-3.264-2.536-6.73c0.77-3.551,1.644-7.081,2.318-10.649
		C1699.278,222.567,1699.887,220.932,1701.267,219.6z"/>
	<path style="fill:#449ECA;" d="M435.033,64.413c1.279-0.114,1.926-0.223,2.573-0.222c22.822,0.025,45.66-0.46,68.459,0.284
		c14.381,0.469,27.46,5.517,37.977,16.097c7.815,7.862,11.995,17.417,13.777,28.091c1.825,10.932,1.063,21.823-2.365,32.367
		c-6.065,18.654-19.064,29.801-38.036,34.176c-6.817,1.572-13.736,2.129-20.729,1.998c-4.816-0.091-9.634-0.017-14.813-0.017
		c-3.671-8.71-7.185-17.327-10.288-26.027c2.179-1.218,3.878-0.785,5.505-0.797c7.662-0.054,15.331,0.15,22.987-0.073
		c14.789-0.431,25.564-10.497,26.013-25.806c0.169-5.785,0.475-11.566-1.968-17.158c-3.729-8.536-10.426-12.976-19.147-15.065
		c-4.089-0.979-8.211-1.031-12.368-1.006c-6.996,0.041-13.993-0.017-20.989,0.034c-1.449,0.011-2.987-0.427-4.482,0.552
		c-0.556,1.703-0.257,3.535-0.257,5.325c-0.02,47.476-0.016,94.952-0.017,142.428c0,1.499,0.145,3.023-0.071,4.492
		c-0.498,3.39-2.295,5.039-5.644,5.077c-6.829,0.078-13.661,0.108-20.489-0.011c-3.897-0.068-5.353-1.635-5.612-5.472
		c-0.056-0.829-0.014-1.665-0.014-2.498c0-57.304,0-114.609-0.001-171.913C435.033,67.796,435.033,66.322,435.033,64.413z"/>
	<path style="fill:#429DCA;" d="M942.883,91.474c-18.754,0-36.657,0-55.151,0c3.351-9.341,6.462-18.01,9.68-26.98
		c43.659,0,87.392,0,131.829,0c-3.087,9.185-6.439,17.987-10.204,26.949c-7.705,0-15.178-0.001-22.651,0
		c-7.268,0.001-14.535-0.006-22.199,0.007c0,52.213,0,103.633,0,154.465c-1.668,2.685-3.602,3.295-5.917,3.281
		c-6.497-0.039-12.995-0.048-19.492,0.006c-2.116,0.018-3.907-0.577-5.895-2.549C942.883,195.536,942.883,143.952,942.883,91.474z"
		/>
	<path style="fill:#449ECA;" d="M1222.497,64.478c9.742,0,19.478,0,29.083,0c2.307,2.717,2.306,5.684,2.305,8.681
		c-0.013,39.467-0.008,78.935-0.008,118.402c0,8.16-0.02,16.32,0.017,24.48c0.007,1.623-0.324,3.3,0.578,5.398
		c1.644,0,3.428,0,5.211,0c23.647,0,47.294,0.006,70.941-0.008c2.513-0.001,5.017-0.086,7.464,2.55c0,6.724,0.05,14.02-0.028,21.315
		c-0.026,2.385-1.718,3.479-3.864,3.843c-0.972,0.165-1.993,0.046-2.992,0.046c-33.805,0.001-67.611,0.001-101.416,0.001
		c-0.999,0-2.009,0.087-2.995-0.03c-2.983-0.353-4.43-1.819-4.742-4.788c-0.104-0.989-0.023-1.997-0.023-2.996
		c0-57.453-0.004-114.905,0.016-172.358C1222.042,67.561,1221.7,66.042,1222.497,64.478z"/>
	<path style="fill:#393C46;" d="M446.702,390.014c-4.232,0-7.692,0-11.429,0c0-27.418,0-54.68,0-82.3c4.912,0,9.979,0,15.489,0
		c9.433,21.737,18.966,43.703,28.899,66.594c9.963-22.77,19.521-44.616,29.168-66.664c5.02,0,9.95,0,15.22,0
		c0,27.384,0,54.783,0,82.357c-3.618,0-7.06,0-10.921,0c0-20.874,0-41.602,0-62.33c-0.258-0.052-0.516-0.104-0.773-0.156
		c-9.11,20.767-18.22,41.535-27.389,62.438c-3.412,0-6.702,0-10.687,0c-8.745-20.039-17.647-40.439-26.55-60.839
		c-0.342,0.089-0.684,0.179-1.026,0.268C446.702,349.468,446.702,369.554,446.702,390.014z"/>
	<path style="fill:#393C46;" d="M1250.681,307.518c4.424,0,8.554,0,13.352,0c10.723,27.108,21.539,54.448,32.554,82.295
		c-4.247,0-7.955,0-12.19,0c-3.47-6.822-5.494-14.702-9.036-22.322c-11.923,0-24,0-36.474,0c-2.875,7.37-5.81,14.897-8.776,22.501
		c-4.011,0-7.794,0-12.367,0C1228.693,362.252,1239.701,334.913,1250.681,307.518z M1271.179,356.141
		c-4.826-12.044-8.938-23.77-14.276-36.257c-4.858,12.781-9.269,24.386-13.782,36.257
		C1252.65,356.141,1261.601,356.141,1271.179,356.141z"/>
	<path style="fill:#3B3E47;" d="M1817.158,389.982c-3.552,0-6.673,0-9.802,0c-1.07-2.142-0.04-4.359-0.777-6.494
		c-0.468,0.246-0.963,0.38-1.285,0.693c-11.462,11.124-28.337,9.404-37.309-3.89c-7.154-10.6-7.549-29.495,3.221-40.263
		c7.288-7.287,15.997-9.139,25.73-6.533c3.397,0.909,6.129,3.178,9.2,6.775c0.51-12.081-0.05-23.079,0.346-34.056
		c1.811-1.182,3.686-0.538,5.448-0.655c1.632-0.108,3.277-0.023,5.228-0.023C1817.158,333.841,1817.158,361.752,1817.158,389.982z
		 M1806.433,360.941c-0.1-1.189-0.07-3.046-0.441-4.821c-1.338-6.409-4.423-11.413-11.228-13.221
		c-6.433-1.709-11.799,0.073-16.123,5.03c-6.37,7.303-5.751,22.556,0.955,29.516c5.174,5.37,16.086,5.343,20.859,0.447
		C1804.982,373.249,1806.368,367.7,1806.433,360.941z"/>
	<path style="fill:#3A3D47;" d="M1557.839,365.122c-14.063,0-27.667,0-41.225,0c-1.077,6.782,3.196,13.339,10.073,15.807
		c8.686,3.117,15.707,0.024,21.819-9.636c0.46,0,0.981-0.122,1.416,0.02c2.503,0.819,4.986,1.701,7.757,2.658
		c-2.033,7.088-6.388,12.1-12.764,15.099c-16.604,7.809-34.889-1.274-39.12-17.282c-3.425-12.956-1.223-24.464,9.097-33.551
		c12.628-11.12,37.359-7.392,42.153,13.938C1557.97,356.293,1558.118,360.359,1557.839,365.122z M1516.424,355.854
		c4.8,0.628,25.94,0.55,29.728-0.109c-0.358-8.005-5.146-13.008-12.953-13.534C1523.798,341.576,1518.02,346.275,1516.424,355.854z"
		/>
	<path style="fill:#3A3D47;" d="M1755.655,365.318c-14.185,0-27.809,0-41.418,0c-0.279,7.357,4.144,13.812,10.628,15.81
		c9.099,2.803,15.868-0.298,21.456-10.006c3.07,0.262,5.855,1.674,9.105,2.876c-1.89,7.246-6.402,12.123-12.783,15.121
		c-16.474,7.74-36.097-1.251-39.676-19.917c-2.874-14.992,3.246-28.839,15.418-34.604c11.479-5.437,30.844-2.391,36.06,15.922
		C1755.774,355.181,1756.362,359.879,1755.655,365.318z M1744.197,356.065c-0.76-9.245-5.935-13.625-14.789-13.989
		c-6.813-0.28-15.468,6.007-14.825,13.989C1724.349,356.065,1734.123,356.065,1744.197,356.065z"/>
	<path style="fill:#3A3D47;" d="M1469.423,365.277c-13.99,0-27.617,0-41.223,0c-0.397,7.423,3.926,13.811,10.486,15.816
		c9.227,2.82,15.936-0.245,21.411-9.944c3.078,0.232,5.8,1.87,9.147,2.698c-1.202,5.941-4.632,10.093-9.211,13.228
		c-14.802,10.133-36.308,3.753-42.12-13.94c-4.26-12.969-1.04-26.385,8.403-34.689c12.716-11.182,37.579-7.896,42.529,13.927
		C1469.757,356.393,1470.49,360.486,1469.423,365.277z M1428.207,356.055c9.896,0,19.766,0,29.632,0
		c0.146-7.875-4.7-13.155-12.496-13.821C1435.796,341.418,1429.439,346.478,1428.207,356.055z"/>
	<path style="fill:#3A3D47;" d="M1618.936,350.321c-3.402-0.886-6.565-1.71-9.997-2.604c2.74-9.044,9.091-13.546,17.613-15.129
		c5.083-0.944,10.265-0.52,15.222,1.358c7.838,2.969,12.188,8.784,12.424,16.974c0.365,12.634,0.081,25.288,0.053,37.933
		c-0.001,0.309-0.226,0.617-0.415,1.1c-3.197,0.366-6.458,0.34-9.594,0.027c-1.143-1.818-0.183-3.815-0.96-5.461
		c-1.588-0.169-2.045,1.115-2.841,1.823c-6.632,5.904-16.855,7.244-24.61,3.027c-5.884-3.2-8.997-8.096-8.866-14.974
		c0.128-6.71,3.381-11.24,9.234-14.178c5.641-2.831,11.906-2.723,17.901-3.886c1.79-0.347,3.622-0.505,5.393-0.927
		c3.08-0.733,3.768-1.76,3.581-4.915c-0.238-4.013-3.229-7.328-7.441-8.244C1627.745,340.529,1623.214,342.627,1618.936,350.321z
		 M1642.603,363.981c-6.076,0.165-12.039,1.431-17.996,2.505c-4.077,0.736-6.813,4.625-6.537,8.26
		c0.318,4.177,3.822,7.309,8.406,7.615C1637.205,383.076,1644.713,375.67,1642.603,363.981z"/>
	<path style="fill:#3B3E47;" d="M769.272,350.221c-3.111-0.777-6.288-1.57-9.438-2.357c0.72-7.521,8.452-13.994,17.524-15.367
		c4.616-0.699,9.323-0.467,13.839,1.014c7.887,2.588,13.03,8.053,13.392,16.265c0.585,13.265,0.157,26.574,0.157,40.131
		c-3.482,0-6.736,0-10.064,0c-1.382-1.845,0.064-4.174-1.086-6.349c-4.184,5.057-9.474,7.845-15.941,8.186
		c-6.285,0.332-11.936-1.382-16.208-6.123c-7.975-8.852-4.292-22.111,7.22-26.302c5.033-1.832,10.39-2.155,15.638-2.927
		c2.634-0.388,5.243-0.789,7.693-1.498c3.149-5.72,0.314-11.395-6.189-12.686C778.04,340.666,774.148,342.522,769.272,350.221z
		 M793.244,364.034c-6.261,0.08-12.41,1.301-18.502,2.572c-4.212,0.878-6.329,4.419-5.952,8.542
		c0.355,3.891,3.397,6.761,7.616,7.186C787.654,383.467,794.892,375.716,793.244,364.034z"/>
	<path style="fill:#3A3D47;" d="M549.696,350.331c-3.392-0.886-6.407-1.673-9.896-2.584c1.514-6.493,5.563-10.74,11.143-13.198
		c7.976-3.512,16.188-3.33,24.097,0.558c6.02,2.959,9.558,8.115,9.759,14.622c0.41,13.278,0.123,26.577,0.123,40.156
		c-3.433,0-6.684,0-10.006,0c-1.508-1.54,0.143-3.839-1.334-5.772c-4.254,4.577-9.417,7.303-15.667,7.641
		c-13.475,0.729-22.343-9.324-19.901-20.492c1.671-7.642,7.119-11.342,14.221-12.878c5.178-1.12,10.48-1.661,15.713-2.541
		c2.394-0.403,5.345-0.283,5.912-3.5c0.558-3.171-0.707-5.892-3.143-7.975c-5.023-4.297-14.928-3.139-18.804,2.196
		C551.145,347.62,550.575,348.822,549.696,350.331z M573.524,363.888c-6.101,0.367-12.129,1.426-18.116,2.563
		c-4.511,0.856-6.864,4.388-6.474,8.705c0.368,4.077,3.588,6.91,8.185,7.202C568.339,383.068,574.985,375.686,573.524,363.888z"/>
	<path style="fill:#40424C;" d="M610.264,389.934c-3.419,0-6.857,0-10.655,0c0-18.384,0-36.798,0-55.515
		c3.19-1.204,6.646-0.308,9.89-0.495c1.794,1.535,0.136,3.767,1.449,5.237c1.28,0.424,1.744-0.7,2.393-1.329
		c5.082-4.92,11.286-6.344,17.994-5.269c8.008,1.283,13.079,6.217,15.229,13.978c0.703,2.539,1.102,5.241,1.131,7.873
		c0.122,10.998,0.054,21.998,0.045,32.998c-0.001,0.812,0.143,1.677-0.75,2.561c-3.217,0-6.654,0-10.024,0
		c-1.124-1.22-0.689-2.619-0.694-3.899c-0.036-9.833-0.009-19.666-0.029-29.498c-0.004-2.155,0.028-4.315-0.724-6.406
		c-2.279-6.343-6.921-7.752-12.556-7.638c-6.249,0.126-10.826,4.474-11.87,10.799c-0.35,2.121-0.324,4.317-0.333,6.479
		c-0.034,8.333,0.009,16.666-0.032,24.999C610.721,386.434,611.085,388.118,610.264,389.934z"/>
	<path style="fill:#3D3F49;" d="M1059.386,389.943c-4.083,0-7.357,0-10.871,0c0-18.653,0-37.067,0-55.626
		c3.384-0.84,6.669-0.271,9.92-0.449c1.204,2.396,0.083,4.784,0.962,7.362c3.021-4.145,6.675-6.974,11.567-8.235
		c12.438-3.206,23.304,3.953,25.059,16.648c0.413,2.989,0.359,5.975,0.361,8.968c0.007,10.31,0.003,20.62,0.003,31.248
		c-3.741,0-7.128,0-10.531,0c-1.036-1.358-0.553-2.911-0.568-4.356c-0.102-10.159,0.058-20.324-0.258-30.475
		c-0.307-9.846-7.377-14.736-16.682-11.895c-5.255,1.604-7.614,5.609-8.426,10.69c-0.871,5.447-0.501,10.956-0.527,16.441
		C1059.363,376.738,1059.386,383.213,1059.386,389.943z"/>
	<path style="fill:#393C46;" d="M964.685,389.974c-3.432,0-6.55,0-9.655,0c-1.515-1.26-0.09-3.268-1.408-4.838
		c-3.366,3.301-7.226,5.546-12.025,6.353c-12.639,2.125-23.31-5.652-24.239-17.706c-1.006-13.041-0.228-26.22-0.228-39.537
		c3.582,0,6.866,0,10.272,0c1.099,0.96,0.576,2.385,0.582,3.644c0.045,9.497,0.024,18.995,0.024,28.492c0,1-0.044,2.002,0.009,2.999
		c0.404,7.512,4.9,12.194,12.122,12.649c6.799,0.429,11.791-3.69,13.291-10.813c0.35-1.664,0.336-3.306,0.339-4.964
		c0.014-10.486,0.007-20.972,0.007-31.658c3.524-1.054,6.972-0.39,10.356-0.465C965.169,337.929,965.545,375.391,964.685,389.974z"
		/>
	<path style="fill:#393C46;" d="M697.992,334.22c3.961,0,7.249,0,10.774,0c0,18.578,0,36.981,0,55.669c-3.292,0-6.54,0-9.831,0
		c-1.297-1.146-0.172-2.892-0.952-4.19c-0.803-0.457-1.159,0.239-1.56,0.655c-6.391,6.628-18.73,7.43-26.643,1.728
		c-5.679-4.092-8.375-10.023-8.577-16.702c-0.363-11.974-0.084-23.968-0.053-35.953c0.001-0.292,0.243-0.583,0.486-1.129
		c3.28,0,6.676,0,10.128,0c0.799,1.699,0.434,3.375,0.441,4.986c0.04,8.989,0.006,17.979,0.032,26.968
		c0.004,1.489,0.103,2.987,0.279,4.466c1.156,9.694,9.106,13.033,17.629,10.397c4.821-1.491,7.769-6.354,7.825-12.709
		c0.086-9.655,0.023-19.311,0.023-28.966C697.992,337.804,697.992,336.168,697.992,334.22z"/>
	<path style="fill:#3A3D47;" d="M858.246,371.255c3.18,1.432,6.031,2.717,9.22,4.154c-3.188,8.291-9.021,13.298-17.088,15.532
		c-16.725,4.63-32.962-6.361-35.438-23.641c-1.31-9.145,0.308-17.539,6.089-24.869c8.658-10.977,24.096-12.883,35.186-6.863
		c5.268,2.86,8.836,7.316,10.776,13.335c-3.165,1.411-6.176,2.754-9.124,4.069c-0.962-0.356-1.258-1.177-1.585-1.898
		c-2.631-5.803-7.24-8.427-13.473-8.426c-6.594,0-11.706,2.878-14.57,8.743c-3.379,6.921-3.434,14.176,0.056,21.13
		c2.929,5.837,7.855,8.792,14.477,8.844c6.582,0.052,11.582-2.448,14.432-8.615C857.403,372.318,857.751,371.956,858.246,371.255z"
		/>
	<path style="fill:#3A3D47;" d="M1400.542,353.15c-4.146-8.944-9.735-11.452-17.825-10.171c-7.041,1.115-11.839,6.108-13.383,14.212
		c-1.083,5.688-0.386,11.245,2.543,16.371c6.202,10.85,22.999,10.082,27.828,0.424c0.437-0.874,0.709-1.889,1.977-2.532
		c2.733,1.349,5.912,2.194,8.583,4.082c-4.086,12.517-17.548,17.748-27.884,16.179c-16.309-2.476-26.33-16.048-24.648-33.034
		c1.327-13.401,9.222-22.936,21.92-25.748c13.3-2.946,26.519,3.4,30.297,15.778C1407.145,350.644,1403.781,351.525,1400.542,353.15z
		"/>
	<path style="fill:#3B3E47;" d="M1351.62,348.843c-3.214,1.579-6.135,3.044-9.312,3.928c-0.449-0.502-0.921-0.809-1.07-1.23
		c-2.243-6.313-8.322-9.54-15.719-8.824c-6.978,0.675-12.107,5.163-13.995,12.321c-1.338,5.069-1.301,10.239,0.457,15.237
		c2.242,6.376,6.788,10.243,13.514,11.003c7.278,0.822,13.08-1.66,16.46-8.568c0.209-0.427,0.501-0.813,0.881-1.42
		c3.05,1.338,6.047,2.653,9.386,4.118c-3.542,8.524-9.483,13.793-18.132,15.738c-20.8,4.676-37.429-12.552-34.704-33.322
		c1.783-13.59,9.64-22.291,22.275-24.955C1334.19,330.225,1347.282,335.761,1351.62,348.843z"/>
	<path style="fill:#3D3F49;" d="M728.127,390.107c0-15.45,0-30.388,0-45.513c-3.305-0.868-6.475-0.057-9.883-0.639
		c-0.442-3.234-0.351-6.461-0.037-9.98c3.122,0,6.09,0,8.994,0c1.385-1.839,0.799-3.714,0.854-5.453
		c0.1-3.158,0.085-6.29,0.847-9.414c2.645-10.843,13.49-16.522,24.209-12.392c0.482,3.013,0.363,6.106,0.051,9.318
		c-2.173,0-4.158-0.117-6.125,0.025c-3.653,0.265-6.418,2.506-6.938,6.046c-0.55,3.748-0.727,7.568,0.071,11.728
		c4.223,0,8.326,0,12.631,0c0,3.501,0,6.606,0,10.268c-4.215,0-8.442,0-13.067,0c0,7.996,0,15.446,0,22.896
		c0,7.479,0,14.958,0,22.685C735.958,390.65,732.362,390.037,728.127,390.107z"/>
	<path style="fill:#393C46;" d="M1672.091,344.107c-3.79,0-7.054,0-10.609,0c-0.27-3.458-0.378-6.528,0.121-10.025
		c3.76,0,7.356,0,11.297,0c0-6.008,0-11.61,0-17.374c3.251-1.716,6.382-2.964,10.327-3.717c0,7.021,0,13.77,0,20.89
		c4.098,0,7.699,0,11.458,0c0.973,3.414,0.43,6.527,0.425,9.776c-3.74,1.234-7.621-0.065-11.564,0.847
		c-0.63,2.535-0.281,5.186-0.305,7.797c-0.057,6.329-0.035,12.658-0.014,18.988c0.024,7.401,1.713,9.079,9.064,9.086
		c0.804,0.001,1.607,0,2.815,0c0.158,3.167,0.266,6.073-0.168,9.281c-4.089,1.164-8.229,1.252-12.266,0.273
		c-6.221-1.51-10.079-6.774-10.481-14.148c-0.245-4.484-0.09-8.991-0.098-13.487
		C1672.083,356.479,1672.091,350.664,1672.091,344.107z"/>
	<path style="fill:#393C46;" d="M905.026,334.312c0,3.213,0,6.165,0,9.342c-3.624,1.257-7.499-0.062-11.192,0.772
		c-1.058,1.131-0.58,2.532-0.588,3.806c-0.047,7.493-0.034,14.987-0.013,22.48c0.004,1.326,0.012,2.673,0.236,3.973
		c0.693,4.023,2.263,5.425,6.288,5.662c1.631,0.096,3.273,0.016,5.185,0.016c0,3.152,0,6.058,0,9.252
		c-4.206,1.217-8.478,1.371-12.654,0.142c-6.302-1.855-9.815-6.817-10.072-14.429c-0.252-7.485-0.102-14.983-0.124-22.475
		c-0.008-2.654-0.001-5.309-0.001-8.151c-3.406-1.219-6.956,0.012-10.528-0.831c-0.587-3.169-0.155-6.241-0.273-9.744
		c4.031,0,7.623,0,11.801,0c0-3.342,0-6.28,0-9.217c0-2.814,0-5.627,0-8.381c3.286-1.517,6.306-2.811,10.107-3.532
		c0,6.957,0,13.715,0,20.594C897.229,334.554,900.908,333.625,905.026,334.312z"/>
	<path style="fill:#3A3D47;" d="M1482.052,389.921c0-28.086,0-55.971,0-83.735c1.37-1.032,2.747-0.583,4.036-0.627
		c2.121-0.073,4.247-0.02,6.588-0.02c0,28.376,0,56.252,0,84.383C1489.08,389.921,1485.683,389.921,1482.052,389.921z"/>
	<path style="fill:#3B3E47;" d="M1579.942,334.152c1.036,2.505-0.295,4.955,1.223,7.417c4.858-6.498,11.049-9.55,19.311-8.045
		c0.969,3.649,0.159,7.382,0.436,11.031c-1.931,0.977-3.599,0.365-5.198,0.409c-9.33,0.26-14.443,5.098-14.756,14.542
		c-0.27,8.137-0.17,16.286-0.228,24.43c-0.013,1.815-0.002,3.63-0.002,5.669c-3.546,1.095-6.975,0.388-10.744,0.531
		c0-18.699,0-37.2,0-55.983C1573.24,334.152,1576.486,334.152,1579.942,334.152z"/>
	<path style="fill:#393C46;" d="M981.262,334.187c3.497,0,6.639,0,9.812,0c1.403,2.407,0.05,5.039,1.118,7.906
		c4.795-7.023,11.15-10.092,19.62-8.577c0,3.825,0,7.43,0,10.99c-1.027,1.129-2.264,0.502-3.339,0.446
		c-9.137-0.472-16.07,3.434-16.439,16.056c-0.229,7.827-0.096,15.664-0.123,23.496c-0.006,1.653-0.001,3.306-0.001,5.154
		c-3.573,0.989-6.985,0.311-10.647,0.537C981.262,371.432,981.262,353.022,981.262,334.187z"/>
	<path style="fill:#3B3E47;" d="M1031.938,390.176c-1.71,0-2.859,0-4.008,0c-1.994,0-3.989,0-5.933,0
		c-1.04-3.486-1.389-48.223-0.463-55.935c3.401-0.618,6.828-0.481,10.404-0.081C1031.938,352.771,1031.938,371.208,1031.938,390.176
		z"/>
	<path style="fill:#3D3F49;" d="M1168.094,382.973c0.407-3.688,3.53-6.181,7.304-5.829c3.746,0.35,6.105,3.373,5.682,7.284
		c-0.375,3.462-3.426,6.001-6.877,5.722C1170.611,389.86,1167.71,386.452,1168.094,382.973z"/>
	<path style="fill:#3D3F49;" d="M1830.864,377.073c3.683,0.056,6.638,3.121,6.479,6.721c-0.159,3.605-3.381,6.561-6.944,6.37
		c-3.224-0.173-6.279-3.383-6.286-6.606C1824.104,379.955,1827.163,377.016,1830.864,377.073z"/>
	<path style="fill:#3D3F49;" d="M1026.656,310.269c3.549-0.017,6.323,2.727,6.356,6.288c0.032,3.493-2.753,6.359-6.253,6.436
		c-3.257,0.071-6.419-3.021-6.484-6.34C1020.21,313.363,1023.287,310.285,1026.656,310.269z"/>
	<path style="fill:#5DA5CF;" d="M1844.108,86.486c0.019,5.944-3.983,9.655-9.979,9.903c-5.602,0.231-10.086-5.191-9.973-9.678
		c0.139-5.506,3.909-9.887,10.045-10.316C1839.746,76.007,1844.089,80.59,1844.108,86.486z M1830.016,80.276
		c-4.409,3.742-4.471,8.781-0.15,12.125c2.381,2.962,5.224,2.235,8.049,0.908c3.245-1.525,4.489-4.139,4.168-7.721
		c-0.428-4.77-3.901-6.107-7.678-7.327C1832.974,79.074,1831.083,78.724,1830.016,80.276z"/>
	<path style="fill:#515159;" d="M1840.57,312.305c-0.495,0.63-0.988,1.262-1.397,1.785c-1.749,0.502-1.725-1.409-2.78-1.714
		c-0.587,0.63-0.386,2.115-2.152,1.687c-0.431-2.784-0.578-5.623,0.162-8.555c3.336,0.009,2.365,3.378,4.137,4.56
		c1.991-0.791,1.061-4.531,4.455-4.563c0.839,2.859,0.523,5.681,0.268,8.382C1841.185,314.801,1841.424,312.794,1840.57,312.305z"/>
	<path style="fill:#515159;" d="M1828.84,314.894c-1.466-2.625-0.552-4.817-1.061-7.06c-0.267-0.967-2.149-0.123-2.526-1.762
		c2.512-0.981,4.829-0.711,7.145-0.274c0.436,2.178-1.731,1.003-2.136,1.972C1829.361,309.806,1830.757,312.262,1828.84,314.894z"/>
	<path style="fill:#E7EEF6;" d="M1830.016,80.276c1.067-1.551,2.958-1.202,4.388-2.014c3.777,1.22,7.25,2.556,7.678,7.327
		c0.321,3.581-0.922,6.196-4.168,7.721c-2.825,1.327-5.668,2.054-8.049-0.908l0.28-0.278c0.793,0.028,1.616,0.371,2.345-0.231
		c1.087-0.895-0.476-3.112,1.601-3.508c1.594,0.903,1.181,3.549,4.014,3.811c-0.93-3.033-0.891-5.779,0.694-7.958
		c-0.951-2.896-2.822-3.867-5.387-3.84c-1.146,0.012-2.294-0.102-3.44-0.159L1830.016,80.276z"/>
	<path style="fill:#E7EEF6;" d="M1829.866,92.401c-4.321-3.344-4.259-8.383,0.15-12.125l-0.042-0.038
		c0.058,3.962,0.115,7.923,0.173,11.885L1829.866,92.401z"/>
	<path style="fill:#439DCA;" d="M84.226,281.294c0-15.449,0-30.366,0-45.482c65.385-35.839,130.799-71.694,196.577-107.749
		c0,15.426,0,30.221,0,44.807c-0.973,1.317-2.142,1.904-3.325,2.547c-11.516,6.253-23.009,12.548-34.501,18.846
		c-28.517,15.628-57.032,31.261-85.544,46.898c-19.927,10.929-39.845,21.872-59.77,32.803
		C93.317,276.349,88.96,278.713,84.226,281.294z"/>
	<path style="fill:#373B45;" d="M182.476,310.021c0-15.671,0-30.428,0-45.616c32.458-17.811,65.136-35.743,98.284-53.932
		c0,15.526,0,30.305,0,45.682C248.39,273.896,215.722,291.8,182.476,310.021z"/>
	<path style="fill:#86BD43;" d="M84.294,153.542c32.583-17.855,65.013-35.626,97.978-53.691c0,15.336,0,30.046,0,45.244
		c-32.356,17.767-64.908,35.641-97.978,53.8C84.294,183.424,84.294,168.685,84.294,153.542z"/>
	<path style="fill:#5DA5CF;" d="M1830.146,92.123c-0.058-3.962-0.115-7.923-0.173-11.885c1.147,0.057,2.294,0.171,3.44,0.159
		c2.565-0.027,4.436,0.944,5.387,3.84c-1.586,2.179-1.624,4.925-0.694,7.958c-2.833-0.263-2.42-2.908-4.014-3.811
		c-2.077,0.397-0.515,2.614-1.601,3.508C1831.763,92.494,1830.939,92.151,1830.146,92.123z M1836.01,84.015
		c-0.578-1.051-1.26-1.689-2.479-1.433c-0.771,1.193-0.94,2.347,0.39,3.626C1834.763,85.806,1835.74,85.625,1836.01,84.015z"/>
	<path style="fill:#E7EEF6;" d="M1836.01,84.015c-0.27,1.61-1.247,1.791-2.089,2.193c-1.329-1.278-1.161-2.433-0.39-3.626
		C1834.75,82.326,1835.432,82.964,1836.01,84.015z"/>
</g>
</svg>
