<?xml version="1.0" encoding="iso-8859-1"?>
<!-- Generator: Adobe Illustrator 27.0.0, SVG Export Plug-In . SVG Version: 6.00 Build 0)  -->
<svg version="1.1" id="Layer_1" xmlns="http://www.w3.org/2000/svg" xmlns:xlink="http://www.w3.org/1999/xlink" x="0px" y="0px"
	 viewBox="0 0 1094 184.257" style="enable-background:new 0 0 1094 184.257;" xml:space="preserve">
<g>
	<path style="fill:#AB91C1;" d="M946.996,10.014c6.967,2.714,13.411,6.324,19.338,10.911c5.899,4.565,11.539,9.385,16.411,15.56
		c10.159-2.185,20.286-4.771,30.946-2.551c4.853-5.141,10.149-9.903,16.021-13.992c11.815-8.228,24.772-13.803,38.851-16.815
		c6.661-1.425,13.361-2.253,20.187-2.075c1.849,0.048,3.62,0.135,5.247,1.09c0,0.333,0,0.667,0,1
		c-1.773,1.234-3.598,1.919-5.897,1.961c-20.307,0.378-38.001,7.571-53.43,20.679c-2.278,1.936-4.595,3.807-6.697,5.938
		c-1.284,1.303-2.373,2.705-3.132,4.733c7.461,2.762,14.352,6.153,20.46,11.623c-0.755,4.332-4.193,6.837-6.765,10.233
		c-3.373-2.113-6.252-4.557-9.597-6.325c-5.894-3.114-11.976-5.111-18.652-6.048c-10.269-1.442-19.632,0.715-28.62,5.33
		c-3.245,1.666-6.16,3.884-8.793,6.438c-1.905,1.849-3.816,3.692-5.724,5.538c-1.858-0.52-2.495-2.232-2.869-3.69
		c-0.7-2.728-2.275-4.993-3.333-7.516c3.101-4.768,8.326-7.237,12.547-10.933c-1.625-2.999-3.444-5.268-5.422-7.482
		c-5.967-6.678-13.027-12.055-20.19-17.325C948.52,14.072,946.492,12.222,946.996,10.014z"/>
	<path style="fill:#3EA8DC;" d="M0,141.142c1.417-0.518,1.041-1.976,1.428-2.966c3.633-9.303,18.123-9.278,22.46-2.582
		c1.18,1.822,2.459,3.583,1.952,6.08c-1.824,0.971-3.822,0.368-5.68,0.459c-0.35-0.25-0.763-0.383-0.857-0.635
		c-1.203-3.205-3.383-4.868-6.892-4.371c-3.468,0.491-4.411,3.209-4.948,6.046c-0.873,4.617-0.679,9.252,0.599,13.776
		c0.588,2.081,2.057,3.368,4.387,3.366c1.49-0.001,3,0.174,4.522-0.606c1.074-1.333,2.238-2.734,1.991-4.785
		c-1.481-1.578-3.566-0.163-5.401-1.257c-0.709-1.509-0.366-3.248-0.205-5.275c4.467,0,8.692,0,13.281,0
		c-0.079,3.771-0.166,7.397-1.388,10.759c-1.817,5-5.712,7.676-10.999,7.839c-5.489,0.168-10.066-1.634-12.723-6.942
		C1.044,159.08,1.459,157.59,0,157.142C0,151.808,0,146.475,0,141.142z"/>
	<path style="fill:#1E4166;" d="M230.965,107.042c-5.074,0-9.723,0-14.959,0c-5.054-10.058-10.201-20.299-15.426-30.696
		c-4.306,0-8.735,0-13.587,0c0,10.266,0,20.34,0,30.598c-4.033,0-7.651,0-11.631,0c0-24.966,0-50.031,0-75.395
		c0.818-0.939,2.247-0.371,3.497-0.378c8.998-0.053,17.999,0.108,26.994-0.066c9.216-0.178,19.505,6.26,21.484,15.806
		c1.627,7.848,1.278,15.368-4.368,21.659c-2.271,2.531-5.553,3.87-8.79,5.583C219.207,85.429,225.242,96.005,230.965,107.042z
		 M187.134,65.142c4.779,0,9.074,0,13.368,0c0.995,0,1.991,0.018,2.986-0.004c2.486-0.055,4.779-0.986,6.849-2.148
		c4.888-2.743,6.681-8.097,4.642-13.377c-1.32-3.419-4.038-5.412-7.445-6.459c-6.75-2.074-13.579-0.551-20.4-1.072
		C187.134,50.07,187.134,57.329,187.134,65.142z"/>
	<path style="fill:#1E4166;" d="M598.823,63.023c10.374,0,19.981,0,30.002,0c0-10.502,0-20.9,0-31.587c4.132,0,7.864,0,11.889,0
		c0,25.004,0,50.05,0,75.4c-3.654,0-7.385,0-11.537,0c0-10.65,0-21.381,0-32.401c-10.133,0-19.859,0-30.001,0
		c0,10.659,0,21.39,0,32.41c-4.13,0-7.863,0-11.889,0c0-25.003,0-50.049,0-75.399c3.653,0,7.384,0,11.536,0
		C598.823,41.762,598.823,52.16,598.823,63.023z"/>
	<path style="fill:#1E4166;" d="M262.279,31.263c16.242,0,32.177,0,48.416,0c0,3.484,0,6.883,0,10.701c-11.983,0-24.045,0-36.399,0
		c0,7.131,0,13.86,0,21.007c10.329,0,20.727,0,31.411,0c0,3.797,0,7.197,0,11.018c-10.352,0-20.75,0-31.425,0
		c0,7.468,0,14.53,0,22.006c12.036,0,24.098,0,36.436,0c0,3.799,0,7.197,0,10.874c-16.052,0-32.105,0-48.439,0
		C262.279,81.828,262.279,56.783,262.279,31.263z"/>
	<path style="fill:#1E4166;" d="M433.378,63.307c10.653,0,20.928,0,31.41,0c0,3.636,0,7.033,0,10.843c-10.598,0-20.997,0-31.573,0
		c0,7.475,0,14.535,0,22.007c12.269,0,24.331,0,36.563,0c0,3.81,0,7.207,0,10.769c-16.275,0-32.328,0-48.579,0
		c0-25.26,0-50.305,0-75.567c16.249,0,32.302,0,48.578,0c0,3.56,0,6.957,0,10.767c-12.229,0-24.292,0-36.399,0
		C433.378,49.389,433.378,56.234,433.378,63.307z"/>
	<path style="fill:#1E4166;" d="M84.001,31.301c4.597,0,8.545,0,12.485,0c0.885,1.513,0.49,3.033,0.493,4.473
		c0.033,15.658,0.178,31.319-0.059,46.973c-0.092,6.062,4.165,11.749,10.666,13.399c6.431,1.632,11.76,0.039,16.055-5.104
		c2.684-3.213,3.295-7.047,3.321-10.956c0.098-14.491,0.039-28.984,0.039-43.476c0-1.638,0-3.277,0-5.19c3.992,0,7.726,0,11.535,0
		c0.853,1.358,0.439,2.883,0.442,4.32c0.034,15.658-0.078,31.317,0.054,46.974c0.101,11.99-7.456,21.182-19.14,24.383
		c-5.805,1.59-11.715,1.669-17.416-0.232c-9.471-3.158-15.769-9.213-17.658-19.535c-0.511-2.793-0.789-5.506-0.797-8.278
		c-0.041-14.159-0.019-28.318-0.019-42.477C84.001,34.942,84.001,33.307,84.001,31.301z"/>
	<path style="fill:#1E4166;" d="M12.99,106.926c-4.367,0-7.986,0-11.791,0c0-25.162,0-50.111,0-75.188
		c0.952-1.123,2.384-0.559,3.633-0.567c8.833-0.053,17.667-0.084,26.499-0.011c7.007,0.058,12.985,2.559,17.909,7.665
		c2.491,2.582,4.059,5.846,4.433,9.033c0.586,4.991,0.944,10.115-0.558,15.208c-2.517,8.536-11.109,12.868-17.527,14.121
		c-7.343,1.434-14.776,0.65-22.589,1.099c0,5.001,0.001,9.785,0,14.57C12.997,97.606,13.008,102.357,12.99,106.926z M13.138,66.142
		c6.446,0,12.412,0.209,18.354-0.083c3.273-0.161,6.41-1.503,8.314-4.43c5.411-8.322,0.313-16.953-6.743-18.622
		c-6.71-1.587-13.279-0.36-19.925-0.925C13.138,50.41,13.138,58.003,13.138,66.142z"/>
	<path style="fill:#1E4166;" d="M555.02,53.906c-4.271,0-8.375,0-12.571,0c-1.655-2.89-2.885-6.048-5.53-8.441
		c-4.375-3.957-11.986-4.941-16.893-1.86c-4.602,2.89-6.467,7.015-7.19,12.424c-0.882,6.608-0.687,13.171-0.837,19.759
		c-0.098,4.285,0.905,8.443,2.122,12.446c1.874,6.165,10.333,9.551,16.758,8.082c6.707-1.534,9.446-6.191,11.385-11.987
		c4.228,0,8.34,0,12.78,0c-1.689,6.576-3.701,12.71-8.874,17.089c-7.147,6.05-15.353,7.905-24.596,6.023
		c-5.614-1.143-10.347-3.291-14.417-7.5c-4.721-4.882-6.874-10.667-7.081-17.138c-0.292-9.147-0.447-18.329,0.017-27.461
		c0.628-12.353,8.831-22.156,21.181-24.402c7.018-1.277,13.139,0.094,19.389,2.479c6.465,2.468,9.722,7.874,12.277,13.809
		C553.82,49.274,554.285,51.5,555.02,53.906z"/>
	<path style="fill:#52B6E2;" d="M809.999,145.108c-4.662,0-9.323,0-14.215,0c-18.879,22.857-43.589,34.799-72.794,37.84
		c-3.559,0.37-7.541,1.372-10.99-0.952c0.337-2.986,2.279-2.826,4.099-2.802c7.008,0.089,13.828-1.21,20.526-3.054
		c12.967-3.57,24.617-9.709,34.62-18.748c1.947-1.76,4.512-2.852,5.818-5.353c1.205-2.309,3.979-3.471,5.036-6.677
		c-4.083,0-7.812,0-10.917,0c-1.383-1.077-1.251-1.951-1.25-2.757c0.025-25.822,0.061-51.643,0.095-77.465
		c1.822-0.255,2.149,1.295,2.676,2.389c2.697,5.601,5.649,11.117,7.803,16.925c1.175,3.168,3.703,5.897,3.487,9.567
		c-1.608,0.806-1.027,2.307-1.031,3.541c-0.035,10.993-0.02,21.987-0.003,32.98c0.001,0.799-0.166,1.68,1.234,2.723
		c7.195,0,14.996,0,22.797,0c-0.265,2.173,0.407,4.103,1.535,5.915C809.655,140.997,810.271,142.941,809.999,145.108z"/>
	<path style="fill:#AB91C1;" d="M998.031,133.318c8.357,1.54,16.34-0.181,24.2-2.829c4.09-1.378,7.845-3.449,11.814-6.164
		c0-10.814,0-21.919,0-33.42c4.021-1.002,7.656-0.991,11.61-0.019c0,13.483,0,26.752,0,40.373
		c-2.865,3.522-7.415,5.372-11.555,7.636c-3.994,2.184-8.473,3.481-13.132,5.323c2.796,4.806,6.121,8.832,10.055,12.299
		c7.1,6.256,14.631,11.909,23.369,15.778c10.349,4.582,21,7.868,32.444,7.929c2.328,0.012,4.771-0.294,5.87,2.507
		c-0.876,1.699-2.449,1.421-3.94,1.478c-9.182,0.349-18.114-1.207-26.879-3.722c-18.532-5.318-34.658-14.696-47.856-28.88
		c-1.571-1.688-3.043-3.468-4.873-5.562c-2.167,0-4.647,0-7.128,0c0.26-2.203-0.605-4.073-1.534-6.008
		C999.466,137.894,997.709,135.97,998.031,133.318z"/>
	<path style="fill:#1E4166;" d="M358.001,107.248c0-11.26,0-21.883,0-32.506c0-10.642,0-21.284,0-32.343c-6.865,0-13.602,0-20.532,0
		c-0.859-3.773-0.317-7.203-0.452-10.932c17.877,0,35.597,0,53.684,0c0.746,3.191,0.035,6.63,0.388,10.448
		c-6.985,0-13.722,0-20.853,0c0,21.795,0,43.18,0,64.769C366.148,107.593,362.38,106.872,358.001,107.248z"/>
	<path style="fill:#6EB0DD;" d="M783.992,94.021c0.216-3.67-2.312-6.399-3.487-9.567c-2.154-5.808-5.107-11.324-7.803-16.925
		c-0.527-1.094-0.854-2.645-2.676-2.389c0-10.422,0-20.845,0-31.363c2.922-1.114,5.811,0.002,8.999-0.923
		c-7.787-8.855-17.091-15.233-27.034-20.8c0.023-1.692,0.047-3.384,0.07-5.077c4.662,1.133,8.985,2.976,12.998,5.665
		c2.691,1.803,5.768,3.033,8.446,4.852c5.318,3.611,10.587,7.327,14.528,12.553c-0.185,2.526,1.139,4.631,1.869,6.913
		c0.973,3.042,3.049,5.71,3.08,9.066c-3.235,0.39-6.556-0.308-9.675,0.411c0,12.028,0,23.701,0,35.74c9.468,0,18.572,0,27.677,0
		c0.008,1.142,0.155,2.195,0.651,3.303c1.247,2.789,2.245,5.689,3.343,8.544C804.65,94.023,794.321,94.022,783.992,94.021z"/>
	<path style="fill:#AB91C1;" d="M816.015,33.526c2.763-0.857,5.373,1.697,8.47,0.02c2.634-3.624,6.732-6.324,10.472-9.419
		c3.093,1.304,3.821,3.971,4.005,6.951c-0.659,2.005-3.097,2.751-3.63,5.047c2.834,2.12,6.722,2.637,8.737,5.856
		c-0.007,0.655-0.226,1.4,0.01,1.95c2.427,5.652,4.914,11.279,7.454,16.881c0.122,0.27,0.899,0.242,1.372,0.353
		c0.345,3.158,0.113,6.299-0.96,9.267c-2.301,6.37-5.817,11.714-12.769,13.837c-1.635-0.776-1.656-2.605-2.529-3.878
		c-0.784-1.145-0.945-2.791-2.603-3.232c2.812-3.038,5.033-6.324,5.784-10.571c1.017-5.761-1.746-12.384-6.515-15.948
		c-4.311-3.221-9.385-3.554-14.309-4.585c0.29-2.212-0.402-4.175-1.565-6.001C816.162,38.047,815.764,35.861,816.015,33.526z"/>
	<path style="fill:#A17FB3;" d="M552.747,165.866c-2.091,0.568-3.896,0.389-5.925,0.193c-4.077-6.436-8.215-12.967-12.864-20.306
		c0,7.162,0,13.396,0,19.666c-2.599,1.465-4.971,0.51-7.428,0.744c0-11.763,0-22.992,0-33.81c1.069-1.331,2.116-1.13,3.091-1.154
		c0.978-0.024,1.957-0.005,2.972-0.005c4.342,6.928,8.548,13.639,13.363,21.32c0-7.582,0-14.18,0-20.951
		c2.426-0.535,4.372-0.382,6.298-0.256C553.258,134.885,553.567,156.065,552.747,165.866z"/>
	<path style="fill:#6E91C7;" d="M110.201,131.458c2.085-0.311,3.718-0.459,5.614,0.107c4.182,6.649,8.461,13.453,13.327,21.19
		c0-7.735,0-14.351,0-21.089c2.157-0.845,4.147-0.219,6.678-0.656c0.457,6.021,0.163,11.776,0.216,17.512
		c0.052,5.643,0.011,11.287,0.011,16.929c-1.815,1.286-3.641,0.622-5.731,0.721c-4.888-6.068-8.374-13.225-13.396-20.266
		c0,6.981,0,13.23,0,19.504c-2.229,1.361-4.33,0.712-6.719,0.685C110.201,154.523,110.201,143.15,110.201,131.458z"/>
	<path style="fill:#6E91C7;" d="M171.928,141.997c-2.342,0-4.282,0-6.26,0c-0.546-0.928-1.031-1.779-1.541-2.614
		c-1.315-2.151-3.401-2.508-5.64-2.257c-2.408,0.27-3.98,1.753-4.479,4.049c-0.986,4.539-1.534,9.088-0.3,13.734
		c1.31,4.931,2.096,5.662,7.138,5.359c0.649-0.039,1.288-0.244,1.886-0.364c1.334-1.438,2.343-2.895,2.256-4.97
		c-1.452-1.621-3.551-0.142-5.448-1.371c-0.747-1.334-0.296-3.088-0.198-5.277c4.43-0.284,8.654-0.284,13.2,0.035
		c0.398,4.153-0.108,8.058-1.653,11.659c-2.115,4.93-6.968,7.446-12.534,7.051c-5.794-0.411-9.839-3.279-11.345-8.771
		c-1.779-6.492-1.842-13.167,0.304-19.57c2.043-6.096,7.834-8.671,15.533-7.54C167.625,131.854,171.243,135.993,171.928,141.997z"/>
	<path style="fill:#6EB0DD;" d="M809.999,145.108c0.273-2.166-0.344-4.111-1.475-5.928c-1.127-1.812-1.8-3.742-1.535-5.915
		c8.388-0.039,16.78-0.034,24.987-2.161c1.784,3.819,4.248,7.409,4.006,11.909c-1.34,0.195-2.511,0.773-3.597,1.556
		c3.068,5.219,7.879,8.895,11.645,13.473c-0.146,1.807-0.073,3.577,0.98,5.151c0.855,1.277,1.149,2.667,0.913,4.177
		c-5.06-1.51-8.642-5.311-12.482-8.526c-4.775-3.999-9.147-8.517-13.429-13.737C816.884,145.108,813.441,145.108,809.999,145.108z"
		/>
	<path style="fill:#D0A463;" d="M278.428,131.314c7.243,0,14.046,0,20.929,0c1.257,1.673,0.62,3.483,0.59,5.465
		c-4.523,1.271-9.222-0.21-13.876,0.851c-0.617,2.345-0.173,4.625-0.325,7.028c4.262,1.174,8.453,0.004,12.671,0.774
		c0.702,1.776,0.43,3.506,0.225,5.759c-4.285,0-8.361,0-12.651,0c0,3.112,0,5.714,0,8.542c4.442,1.282,9.149-0.226,13.664,0.819
		c0.72,1.708,0.434,3.337,0.213,5.652c-7.009,0.133-14.063,0.03-21.44-0.01C278.428,154.542,278.428,143.163,278.428,131.314z"/>
	<path style="fill:#A17FB3;" d="M598.173,165.899c0-11.608,0-22.752,0-34.603c7.081-0.228,14.136-0.038,21.309-0.109
		c0.872,1.963,0.581,3.706,0.365,5.937c-4.54,0-8.958,0-13.515,0c-0.817,2.681-0.386,4.977-0.397,7.466
		c4.029,1.385,8.242-0.045,12.42,0.87c1.126,1.606,0.306,3.387,0.532,5.342c-4.337,0.886-8.503,0.011-12.786,0.618
		c-0.42,2.821-0.289,5.428-0.109,8.297c4.408,1.064,8.909,0.076,13.394,0.626c1.148,1.688,0.621,3.469,0.469,5.557
		C612.727,165.899,605.674,165.899,598.173,165.899z"/>
	<path style="fill:#B58E8A;" d="M407.829,161.274c1.374-2.109,3.495-2.539,5.136-4.24c3.014,4.091,7.16,3.447,11.082,3.055
		c1.286-1.062,1.9-2.177,1.959-3.677c-0.162-0.391-0.262-0.91-0.55-1.283c-1.51-1.955-3.647-2.614-5.985-3.153
		c-3.396-0.783-6.622-2.025-8.984-4.889c-4.233-5.134-2.253-12.769,3.966-15.016c7.494-2.707,13.642-1.206,17.694,4.403
		c-0.57,1.92-2.689,2.211-4.01,3.771c-2.348-1.439-4.381-3.545-7.492-3.216c-2.767,0.292-4.435,1.35-4.705,3.49
		c-0.324,2.573,1.489,3.558,3.383,4.261c2.153,0.799,4.477,1.149,6.611,1.988c5.996,2.358,7.613,5.087,7.096,11.487
		c-0.358,4.422-3.47,7.787-8.89,8.573C418.028,167.712,412.204,166.898,407.829,161.274z"/>
	<path style="fill:#A17FB3;" d="M503.328,137.011c-0.508,2.973-0.354,5.237-0.196,7.817c4.132,0.814,8.28-0.031,12.461,0.535
		c0.901,1.812,0.359,3.554,0.396,5.776c-4.354,0-8.427,0-12.737,0c0,3.077,0,5.676,0,8.621c4.531,1.088,9.35-0.072,14.22,0.671
		c0.729,1.756,0.444,3.485,0.253,5.509c-7.254,0-14.288,0-21.56,0c0-11.466,0-22.715,0-34.651c6.97-0.207,14.015-0.035,21.133-0.092
		c0.966,1.939,0.589,3.682,0.436,5.814C512.98,137.011,508.39,137.011,503.328,137.011z"/>
	<path style="fill:#3EA8DC;" d="M64.102,166.218c-4.035-11.52-7.999-22.839-12.071-34.466c2.559-0.95,4.957-0.411,7.539-0.518
		c3.346,7.32,4.777,15.171,7.935,22.593c3.088-7.372,4.587-15.165,7.803-22.449c2.451,0,4.73,0,7.671,0
		c-4.036,11.701-7.968,23.101-11.862,34.391C68.659,166.546,66.549,166.096,64.102,166.218z"/>
	<path style="fill:#A17FB3;" d="M468.019,141.765c-2.501,0.639-4.461,0.407-6.154,0.335c-1.647-0.706-1.713-2.275-2.599-3.241
		c-2.718-2.963-7.273-2.5-9.276,1.005c-0.747,1.307-1.151,2.734-1.126,4.281c0.051,3.159-0.016,6.321,0.07,9.479
		c0.093,3.417,1.766,5.951,4.202,6.598c3.026,0.803,5.043-0.207,7.25-3.597c0.266-0.408,0.641-0.746,1.09-1.259
		c2.011-0.106,4.117-0.476,6.458,0.394c-1.229,5.008-3.248,9.026-8.561,10.62c-5.406,1.623-10.245,0.526-14.31-3.131
		c-2.685-2.415-3.454-6.111-3.749-9.505c-0.369-4.245-0.594-8.556,0.616-12.842c1.716-6.082,5.276-9.535,10.837-9.821
		c8.389-0.432,11.976,1.672,14.369,8.418C467.352,140.108,467.604,140.703,468.019,141.765z"/>
	<path style="fill:#A17FB3;" d="M588.989,155.62c-0.295,4.814-2.167,8.427-6.603,10.244c-8.302,3.4-19.186-0.256-19.362-12.66
		c-0.049-3.489-0.153-6.992,0.081-10.468c0.417-6.194,4.767-10.98,10.268-11.621c7.854-0.916,13.22,1.811,15.368,7.879
		c0.266,0.751,0.197,1.62,0.296,2.561c-2.11,1.148-4.212,0.529-6.373,0.547c-1.664-3.186-3.679-5.787-7.723-4.901
		c-2.82,0.618-4.741,3.761-4.824,8.381c-0.06,3.285-0.406,6.584,0.652,9.869c1.184,3.678,1.777,4.546,4.663,4.839
		c3.798,0.386,4.77-0.158,6.618-3.712c0.15-0.288,0.283-0.585,0.534-1.106C584.557,155.094,586.63,155.028,588.989,155.62z"/>
	<path style="fill:#DFB377;" d="M958.692,91.211c0.59,9.228,3.742,17.517,9.164,24.972c-1.582,1.11-0.644,2.239-0.084,3.432
		c2.029,4.321,3.937,8.701,6.042,12.984c0.911,1.854,1.38,3.695,1.157,5.728c-3.685-1.008-6.273-3.622-8.948-6.109
		c0.127-2.222-0.764-4.217-1.611-6.149c-5.258-12.002-10.606-23.965-15.935-35.936c-0.471-1.059-0.921-2.203-2.448-1.991
		c-0.17-4.464-0.172-8.905,1.814-13.07c0.628,0.134,1.475-0.07,1.8,0.603c1.56,3.222,3.676,6.166,4.405,9.804
		C954.571,88.082,955.603,90.555,958.692,91.211z"/>
	<path style="fill:#F0C03E;" d="M348.77,131.461c1.192,1.929,0.995,3.807,0.345,5.833c-2.851,1-5.731,0.056-9.058,0.79
		c-0.568,9.183,0.096,18.577-0.353,27.906c-2.505,1.097-4.716,0.966-7.419,0.149c0-9.25,0-18.476,0-27.777
		c-3.221-1.254-6.297-0.053-9.243-0.973c-0.982-1.917-0.865-3.777,0.054-5.927C331.651,131.461,340.219,131.461,348.77,131.461z"/>
	<path style="fill:#B58E8A;" d="M255.252,137.179c-0.429,3.129-0.365,5.714-0.077,8.783c4.177,0,8.25,0,12.439,0
		c0.642,2.176,0.509,3.9,0.171,6.115c-4.191,0-8.263,0-12.795,0c0,4.857,0,9.261,0,13.895c-2.404,0-4.343,0-6.978,0
		c-0.22-5.614-0.069-11.358-0.096-17.092c-0.027-5.642-0.006-11.284-0.006-17.584c7.222-0.206,14.268-0.058,21.387-0.109
		c0.931,1.961,0.581,3.7,0.409,5.992C264.829,137.179,260.107,137.179,255.252,137.179z"/>
	<path style="fill:#D0A463;" d="M361.745,133.028c8.285-5.698,18.914-0.563,20.289,7.454c1.073,6.253,1.691,12.448-0.623,18.515
		c-2.477,6.495-8.61,9.266-15.601,7.257c2.216-1.272,0.757-3.393,1.174-5.081c1.55-1.67,3.924-0.137,5.604-1.43
		c1.836-1.636,2.551-3.737,2.532-6.17c-0.022-2.813,0.078-5.628,0.011-8.44c-0.163-6.82-2.381-8.594-9.375-7.6
		c-1.329-0.348-1.786-1.297-1.753-2.568C364.044,133.385,362.942,133.155,361.745,133.028z"/>
	<path style="fill:#8AA6D3;" d="M816.015,33.526c-0.251,2.335,0.147,4.521,1.426,6.529c1.163,1.826,1.855,3.79,1.565,6.001
		c-8.674-0.01-17.348-0.02-26.022-0.03c-0.032-3.356-2.108-6.024-3.08-9.066c-0.729-2.281-2.054-4.387-1.869-6.913
		c1.268,1.02,2.536,2.041,4.322,3.479C799.923,33.526,807.969,33.526,816.015,33.526z"/>
	<path style="fill:#A17FB3;" d="M220.738,160.485c0.239,2.064,0.465,3.682-0.228,5.497c-6.95,0-13.863,0-21.484,0
		c-0.02-5.637-0.049-11.369-0.059-17.1c-0.01-5.637-0.002-11.273-0.002-16.956c2.125-1.288,4.261-0.587,6.842-0.646
		c0,9.47,0,18.834,0,28.39C210.924,160.784,215.73,159.71,220.738,160.485z"/>
	<path style="fill:#F0C03E;" d="M973.078,156.299c0.221,2.742-2.483,3.475-3.86,4.592c-10.318,8.374-21.885,14.553-34.72,18.214
		c-0.467,0.133-0.984,0.095-1.477,0.137c-0.654-1.29-1.306-2.58-1.032-4.103c5.843-2.95,11.913-5.431,17.504-8.902
		c7.628-4.736,13.939-10.976,20.274-17.211C971.943,150.963,973.445,153.206,973.078,156.299z"/>
	<path style="fill:#D3AB90;" d="M974.971,138.328c0.223-2.033-0.246-3.874-1.157-5.728c-2.105-4.283-4.013-8.663-6.042-12.984
		c-0.56-1.193-1.499-2.323,0.084-3.432c4.647,6.465,11.525,10.039,18.121,13.977c0.594,3.245,2.037,6.156,3.541,9.046
		c0.828,1.591,1.801,3.152,1.443,5.084c-1.61-0.08-3.219-0.161-4.863-0.243c-2.04,2.1-3.572,4.614-5.988,6.262
		c-1.151-3.113-2.603-6.035-5.198-8.236C975.747,140.837,976.326,139.598,974.971,138.328z"/>
	<path style="fill:#A17FB3;" d="M484.411,166.074c-2.396,0-4.529,0-7.002,0c0-11.511,0-22.901,0-34.588
		c2.1-0.483,4.191-0.347,6.217-0.125C485.081,134.637,485.549,155.409,484.411,166.074z"/>
	<path style="fill:#6E91C7;" d="M97.761,165.944c-2.207,0.413-4.144,0.376-6.413,0.029c0-11.373,0-22.719,0-34.309
		c1.909-0.887,3.998-0.393,6.413-0.345C97.761,142.84,97.761,154.176,97.761,165.944z"/>
	<path style="fill:#3EA8DC;" d="M43.617,165.971c-2.24,0.354-4.184,0.391-6.424-0.039c0-11.464,0-22.849,0-34.484
		c2.122,0,4.069,0,6.034,0C44.159,134.844,44.447,156.99,43.617,165.971z"/>
	<path style="fill:#C4A1AE;" d="M235.779,165.952c-2.218,0.441-4.162,0.397-6.09,0.096c-0.877-3.664-1.142-25.721-0.41-34.411
		c1.969-0.928,4.064-0.443,6.5-0.36C235.779,142.8,235.779,154.163,235.779,165.952z"/>
	<path style="fill:#F0C03E;" d="M366.983,161.172c-0.416,1.688,1.042,3.809-1.174,5.081c-4.952-0.449-7.707-3.603-9.088-7.95
		c-2.046-6.441-1.91-12.96,0.032-19.466c0.456-1.53,1.482-2.529,2.373-3.692c0.514-0.103,0.804-0.424,0.904-0.928l0.044-0.044
		c0.488-0.091,0.811-0.362,0.93-0.854c0.211-0.187,0.457-0.284,0.739-0.29c1.197,0.127,2.299,0.357,2.257,1.936
		c-0.033,1.272,0.423,2.221,1.753,2.568c-0.258,0.153-0.483,0.345-0.675,0.576c-0.566,0.081-0.947,0.376-1.09,0.946
		c-1.634,3.906-0.835,8.027-1.066,12.058C362.695,155.111,363.839,158.541,366.983,161.172z"/>
	<path style="fill:#F0C03E;" d="M857.051,10.241c7.383-4.112,15.453-6.226,23.622-7.987c4.633-0.999,9.318-1.876,14.103-1.117
		c2.49,0.395,4.667-1.701,7.199-0.851c0.329,1.177,0.658,2.353,0.987,3.53c-8.83,0.798-17.648,1.502-26.209,4.184
		c-6.144,1.925-11.786,4.95-17.734,7.284C859.089,13.32,857.657,11.942,857.051,10.241z"/>
	<path style="fill:#8AA6D3;" d="M845.925,167.371c0.237-1.511-0.058-2.9-0.913-4.177c-1.053-1.574-1.127-3.344-0.98-5.151
		c1.484,0.053,2.31,1.16,3.298,2.03c4.586,4.04,9.636,7.341,15.154,10.014c4.75,2.301,9.619,4.276,14.527,6.183
		c-0.02,1.349-0.041,2.699-0.061,4.048c-7.535-0.623-14.267-3.784-20.984-6.855C852.414,171.839,848.473,170.706,845.925,167.371z"
		/>
	<path style="fill:#D3AB90;" d="M958.692,91.211c-3.089-0.656-4.122-3.13-4.643-5.731c-0.73-3.638-2.846-6.582-4.405-9.804
		c-0.326-0.673-1.172-0.469-1.8-0.603c0.653-4.749,3.008-8.805,5.259-12.903c2.453-0.18,3.09,1.856,3.544,3.442
		c0.916,3.207,2.604,5.932,4.409,8.638C959.809,79.84,958.739,85.455,958.692,91.211z"/>
	<path style="fill:#52B6E2;" d="M752.062,6.977c-0.023,1.692-0.047,3.384-0.07,5.077c-7.817-2.966-15.595-6.075-23.937-7.297
		c-4.054-0.594-8.125-1.094-12.201-1.505c-1.518-0.153-3.029-0.022-3.646-1.838C717.425-2.079,741.816,1.324,752.062,6.977z"/>
	<path style="fill:#C4A1AE;" d="M961.054,74.25c-1.805-2.706-3.493-5.431-4.409-8.638c-0.453-1.586-1.09-3.622-3.544-3.442
		c1.993-3.862,4.331-7.456,7.851-10.133c1.058,2.524,2.633,4.789,3.333,7.516c0.374,1.459,1.011,3.17,2.869,3.69
		C965.121,66.913,963.088,70.581,961.054,74.25z"/>
	<path style="fill:#C4A1AE;" d="M990.961,144.29c0.358-1.932-0.615-3.493-1.443-5.084c-1.504-2.89-2.948-5.801-3.541-9.046
		c4.018,1.053,8.036,2.106,12.054,3.159c-0.321,2.652,1.436,4.575,2.465,6.719c0.929,1.934,1.794,3.805,1.534,6.008
		C998.206,146.308,994.458,146.091,990.961,144.29z"/>
	<path style="fill:#C4A1AE;" d="M946.996,10.014c-0.505,2.208,1.524,4.057,0.891,6.284c-7.765-3.79-15.764-7.022-23.877-9.981
		c-0.005-1.343-0.01-2.686-0.015-4.029c7.111,1.222,13.894,3.553,20.571,6.202C945.416,8.828,946.53,8.971,946.996,10.014z"/>
	<path style="fill:#AB91C1;" d="M876.949,180.318c0.02-1.349,0.041-2.699,0.061-4.048c9.172,2.404,18.473,3.884,27.979,3.891
		c-0.006,1.239-0.012,2.477-0.017,3.716C895.474,183.922,886.009,183.715,876.949,180.318z"/>
	<path style="fill:#D3AB90;" d="M839.998,20.096c2.83-2.214,5.648-4.447,9.025-5.814c-0.421,2.381,1.36,4.028,2.014,6.051
		c-2.203,2.803-5.41,4.415-8.014,6.742C842.713,24.446,840.914,22.462,839.998,20.096z"/>
	<path style="fill:#C4A1AE;" d="M904.972,183.876c0.006-1.239,0.012-2.477,0.017-3.716c3.992-0.243,7.898-1.479,11.95-1.039
		c0.039,1.101,0.079,2.201,0.118,3.302C913.073,183.279,909.141,184.559,904.972,183.876z"/>
	<path style="fill:#C4A1AE;" d="M839.998,20.096c0.917,2.366,2.715,4.35,3.024,6.979c-1.001,1.691-2.301,3.079-4.059,4.003
		c-0.184-2.98-0.912-5.647-4.005-6.951C836.017,22.008,838.078,21.14,839.998,20.096z"/>
	<path style="fill:#DFB377;" d="M974.912,142.073c2.594,2.202,4.047,5.124,5.198,8.236c-0.714,1.283-1.73,2.272-2.969,3.042
		c-1.64-2.657-3.226-5.34-4.172-8.344C973.558,143.992,973.789,142.737,974.912,142.073z"/>
	<path style="fill:#E6B865;" d="M972.968,145.008c0.946,3.004,2.532,5.687,4.172,8.344c-0.61,2.008-1.925,3.044-4.062,2.948
		c0.367-3.093-1.136-5.336-3.311-7.272C970.251,147.222,971.523,146.046,972.968,145.008z"/>
	<path style="fill:#D3AB90;" d="M923.995,2.288c0.005,1.343,0.01,2.686,0.015,4.029c-2.736-0.123-5.46-0.311-8.04-1.359
		c0.001-1.238,0.003-2.476,0.004-3.715C918.776,0.605,921.305,2.063,923.995,2.288z"/>
	<path style="fill:#DFB377;" d="M915.974,1.244c-0.001,1.238-0.003,2.476-0.004,3.715c-2.378,0.094-4.769,0.293-6.978-0.911
		c-0.009-1.191-0.018-2.382-0.026-3.573C911.409-0.243,913.664,0.758,915.974,1.244z"/>
	<path style="fill:#E6B865;" d="M857.051,10.241c0.606,1.7,2.038,3.078,1.968,5.043c-1.523,1.229-2.984,2.561-4.99,2.981
		c0.38-2.134-0.749-4.014-1.019-6.038C854.346,11.542,855.303,10.086,857.051,10.241z"/>
	<path style="fill:#DFB377;" d="M853.01,12.226c0.27,2.025,1.398,3.904,1.019,6.038c-0.998,0.689-1.996,1.379-2.993,2.068
		c-0.653-2.023-2.435-3.671-2.014-6.051C850.352,13.597,851.681,12.912,853.01,12.226z"/>
	<path style="fill:#E6B865;" d="M931.989,175.14c-0.275,1.523,0.378,2.813,1.032,4.103c-1.788,1.305-3.926,1.357-5.99,1.677
		c-0.037-1.319-0.075-2.638-0.112-3.957C928.43,175.856,930.016,174.961,931.989,175.14z"/>
	<path style="fill:#E6B865;" d="M908.967,0.474c0.009,1.191,0.018,2.382,0.026,3.573c-2.016,0.061-4.041,0.369-6.031-0.232
		c-0.329-1.177-0.658-2.353-0.987-3.53C904.315,0.002,906.643,0.145,908.967,0.474z"/>
	<path style="fill:#A17FB3;" d="M634.281,130.819c5.329,2.126,6.054,5.635,1.973,9.554c-0.156-0.14-0.308-0.283-0.456-0.431
		c1.796-3.428,0.832-6.215-1.989-8.572C633.965,131.185,634.122,131.001,634.281,130.819z"/>
	<path style="fill:#DFB377;" d="M926.919,176.963c0.037,1.319,0.075,2.638,0.112,3.957c-1.662,0.347-3.324,0.695-4.986,1.042
		c-0.013-1.261-0.025-2.523-0.038-3.784C923.426,176.892,925.24,177.199,926.919,176.963z"/>
	<path style="fill:#D3AB90;" d="M922.007,178.179c0.013,1.261,0.025,2.523,0.038,3.784c-1.663,0.153-3.325,0.307-4.988,0.46
		c-0.039-1.101-0.079-2.201-0.118-3.302C918.395,177.553,920.288,178.331,922.007,178.179z"/>
	<path style="fill:#A17FB3;" d="M636.254,140.373c-3.125,3.358-4.39,3.537-7.512,1.066c0.137-0.164,0.28-0.322,0.431-0.474
		c2.345,0.544,4.512-0.068,6.625-1.023C635.946,140.089,636.098,140.233,636.254,140.373z"/>
	<path style="fill:#A17FB3;" d="M626.643,139.442c-2.437-3.263-2.27-4.422,1.082-7.546c0.158,0.137,0.31,0.279,0.457,0.428
		c-0.896,2.126-1.561,4.286-0.988,6.63C627.018,139.125,626.834,139.288,626.643,139.442z"/>
	<path style="fill:#A17FB3;" d="M627.725,131.897c1.788-2.194,2.325-2.282,6.556-1.078c-0.159,0.183-0.316,0.366-0.471,0.552
		c-2.046-0.687-3.794,0.383-5.627,0.954C628.035,132.176,627.883,132.033,627.725,131.897z"/>
	<path style="fill:#A17FB3;" d="M628.742,141.439c-1.198-0.142-1.846-0.862-2.099-1.997c0.191-0.154,0.375-0.317,0.552-0.488
		c0.611,0.073,1.222,0.145,1.833,0.218c0,0-0.058-0.06-0.058-0.06c0.068,0.618,0.136,1.236,0.204,1.854
		C629.022,141.117,628.879,141.275,628.742,141.439z"/>
	<path style="fill:#D0A463;" d="M360.031,134.217c-0.101,0.505-0.391,0.826-0.904,0.928
		C359.158,134.573,359.486,134.289,360.031,134.217z"/>
	<path style="fill:#D0A463;" d="M361.006,133.318c-0.119,0.493-0.443,0.763-0.93,0.854
		C360.154,133.635,360.416,133.298,361.006,133.318z"/>
	<path style="fill:#8AA6D3;" d="M810.985,82.177c4.436,0.37,8.727-0.947,13.131-1.144c3.613-0.162,6.725-2.29,9.929-3.874
		c1.658,0.441,1.818,2.087,2.603,3.232c0.873,1.273,0.893,3.102,2.529,3.878c-0.899,1.377-2.915,1.118-3.799,2.552
		c1.86,0.875,4.07,0.817,5.607,2.359c0.124,1.293-0.142,2.586,0.443,3.878c4.377,9.657,8.68,19.348,13.055,29.005
		c0.38,0.838,0.552,1.972,1.756,2.21c-0.421,5.602-3.986,9.359-7.953,12.604c-3.572,2.922-7.797,4.902-12.304,6.135
		c0.242-4.5-2.222-8.09-4.006-11.909c0.78-1.201,2.173-1.408,3.317-1.991c6.398-3.256,9.488-8.715,9.623-15.619
		c0.139-7.077-3.409-12.144-9.764-15.402c-6.379-3.271-13.225-3.83-20.173-4.067c-1.098-2.855-2.096-5.755-3.343-8.544
		C811.141,84.372,810.993,83.319,810.985,82.177z"/>
	<path style="fill:#C4A1AE;" d="M844.069,41.981c6.501,4.757,9.316,11.212,8.836,19.184c-0.472-0.111-1.249-0.084-1.372-0.353
		c-2.54-5.602-5.027-11.229-7.454-16.881C843.843,43.381,844.062,42.636,844.069,41.981z"/>
	<path style="fill:#E6B865;" d="M966.023,132.219c-13.995-11.367-20.766-26.01-19.993-44.076c1.527-0.212,1.977,0.932,2.448,1.991
		c5.328,11.971,10.676,23.934,15.935,35.936C965.258,128.002,966.149,129.997,966.023,132.219z"/>
	<path style="fill:#D0A463;" d="M365.08,138.108c-0.16,0.549-0.405,1-1.09,0.946C364.133,138.484,364.514,138.189,365.08,138.108z"
		/>
	<path style="fill:#F0C03E;" d="M909.821,51.18c0.299,16.639,0.264,33.279,0.001,49.918c-1.878,0.223-2.087-1.456-2.592-2.516
		c-2.472-5.194-4.925-10.404-7.108-15.722c-0.639-1.558-1.158-2.677-2.939-2.76c0-14.425,0-28.85,0-43.379
		c1.533-1.013,3.184-0.454,4.779-0.406c1.069,4.959,3.854,9.166,5.958,13.673C908.339,50.881,908.983,51.11,909.821,51.18z"/>
	<path style="fill:#D3AB90;" d="M909.891,132.131c0,5.106,0,10.212,0,15.566c-4.214,0.756-8.257,0.275-12.775,0.32
		c0-12.509,0-24.7,0-36.89c2.113-0.099,2.707,1.538,3.359,3.024c1.884,4.296,3.584,8.678,5.631,12.893
		C907.015,128.914,906.924,131.727,909.891,132.131z"/>
	<path style="fill:#AB91C1;" d="M856.24,124.274c-1.204-0.238-1.376-1.372-1.756-2.21c-4.376-9.658-8.679-19.348-13.055-29.005
		c-0.585-1.291-0.319-2.585-0.443-3.878c13.323,4.47,19.401,18.781,16.207,30.413C856.766,121.147,857.797,122.977,856.24,124.274z"
		/>
	<path style="fill:#E6B865;" d="M897.184,80.1c1.781,0.082,2.299,1.202,2.939,2.76c2.182,5.318,4.636,10.529,7.108,15.722
		c0.505,1.06,0.714,2.74,2.592,2.516c0.012,5.341,0.023,10.682,0.035,16.023c-1.559,0.222-1.92-1.032-2.372-2.037
		c-2.205-4.91-4.258-9.892-6.58-14.746c-0.915-1.912-0.878-4.666-3.758-5.214C896.958,90.116,896.836,85.107,897.184,80.1z"/>
	<path style="fill:#DFB377;" d="M897.148,95.124c2.88,0.548,2.843,3.302,3.758,5.214c2.322,4.854,4.374,9.835,6.58,14.746
		c0.451,1.005,0.812,2.258,2.372,2.037c0.011,5.003,0.023,10.007,0.034,15.01c-2.967-0.404-2.877-3.217-3.785-5.087
		c-2.047-4.215-3.747-8.597-5.631-12.893c-0.652-1.486-1.245-3.123-3.359-3.024C897.127,105.793,897.138,100.458,897.148,95.124z"/>
	<path style="fill:#E6B865;" d="M909.821,51.18c-0.838-0.069-1.483-0.299-1.9-1.192c-2.105-4.507-4.889-8.714-5.958-13.673
		c2.468,0,4.935,0,7.712,0C910.211,41.328,910.078,46.252,909.821,51.18z"/>
	<path style="fill:#A17FB3;" d="M629.027,139.172c0.298-1.766-0.386-3.667,0.742-5.39c1.291-1.048,2.628-0.996,4.127-0.056
		c0.537,1.764,0.032,3.462-0.135,5.1c-1.373,0.38-1.542-0.739-2.196-1.178c-0.7,0.731-1.184,1.931-2.596,1.463L629.027,139.172z"/>
</g>
</svg>
