<?xml version="1.0" encoding="iso-8859-1"?>
<!-- Generator: Adobe Illustrator 27.0.0, SVG Export Plug-In . SVG Version: 6.00 Build 0)  -->
<svg version="1.1" id="Layer_1" xmlns="http://www.w3.org/2000/svg" xmlns:xlink="http://www.w3.org/1999/xlink" x="0px" y="0px"
	 viewBox="0 0 1619 395" style="enable-background:new 0 0 1619 395;" xml:space="preserve">
<g>
	<path style="fill:#283D80;" d="M211,0c3.421,1.946,7.308,1.292,10.959,1.812c15.377,2.189,30.373,5.531,44.114,13.122
		c19.295,10.659,31.411,26.716,35.91,48.343c2.294,11.029,2.068,22.133,0.325,33.227c-0.233,1.482-0.454,2.964-0.156,4.464
		c-0.307,0.038-0.6,0.127-0.877,0.266c-0.435-0.938-1.068-1.784-2.043-2.086c-5.476-1.693-10.604-4.287-16.202-5.741
		c-10.501-2.727-21.153-5.124-31.916-5.243c-36.784-0.406-73.576-0.168-110.364-0.159c-7.245,0.002-13.327,4.868-14.548,12.249
		c-0.799,4.828-1.632,9.688-2.309,14.555c-0.947,6.805-1.893,13.634-3.129,20.383c-1.414,7.724-2.467,15.495-3.781,23.228
		c-1.18,6.943-2.254,13.896-3.203,20.876c-1.012,7.443-2.475,14.826-3.787,22.228c-1.369,7.723-2.034,15.558-3.805,23.221
		c-0.303,1.313-0.907,2.957,0.573,4.154c-0.551,1.375-1.367,2.705-1.609,4.132c-1.456,8.611-2.791,17.243-4.147,25.87
		c-1.152,7.326-2.254,14.66-3.421,21.983c-1.166,7.321-2.432,14.627-3.567,21.953c-1.161,7.494-2.1,15.023-3.346,22.502
		c-1.434,8.604-3.099,17.169-4.663,25.751c-24.726,0.022-49.453,0.043-74.179,0.065c-0.332,0-0.664-0.012-0.996-0.003
		c-4.422,0.113-7.632-1.839-9.69-5.717C0.847,344.872,0.811,344.138,0,344c0-3.333,0-6.667,0-10c0.265-0.59,0.675-1.156,0.773-1.772
		c2.82-17.879,5.56-35.77,8.413-53.643c4.501-28.2,9.126-56.381,13.605-84.585c4.531-28.535,8.901-57.095,13.43-85.631
		c4.892-30.829,9.869-61.645,14.849-92.46c1.18-7.3,5.099-12.474,12.192-15.037C63.866,0.653,64.421,0.294,65,0
		C113.667,0,162.333,0,211,0z"/>
	<path style="fill:#229BD4;" d="M301.276,101.233c0.277-0.139,0.569-0.228,0.877-0.266c8.273,3.313,14.55,9.168,19.8,16.112
		c7.268,9.612,10.777,20.616,12.242,32.579c2.098,17.14-0.802,33.631-5.026,50.054c-3.703,14.398-9.536,27.809-17.997,40.118
		c-7.954,11.572-17.944,20.866-29.932,28.033c-13.528,8.088-28.32,12.51-43.778,15.253c-12.71,2.255-25.473,1.846-38.248,1.985
		c-6.656,0.072-11.782,2.897-15.106,8.761c-1.341,2.366-1.534,5.095-1.958,7.653c-2.864,17.282-5.476,34.606-8.229,51.906
		c-1.505,9.457-3.201,18.885-4.667,28.348c-0.962,6.212-4.457,10.146-10.207,12.318c-0.406,0.153-0.7,0.602-1.047,0.913
		c-23.333,0-46.667,0-70,0c-4.81-2.204-7.582-5.766-6.902-11.233c0.609-4.893,1.647-9.731,2.33-14.617
		c0.842-6.023,2.593-11.918,2.581-18.062c1.564-8.582,3.229-17.147,4.663-25.751c1.246-7.479,2.185-15.008,3.346-22.502
		c1.135-7.326,2.401-14.631,3.567-21.953c1.167-7.324,2.269-14.657,3.421-21.983c1.356-8.628,2.691-17.259,4.147-25.87
		c0.241-1.427,1.058-2.757,1.609-4.132c3.711-6.269,9.085-9.098,16.488-9.096c14.64,0.005,29.282,0.51,43.928-0.603
		c7.937-0.603,15.876-0.899,23.776-2.087c15.146-2.277,29.72-6.306,43.458-13.166c13.712-6.847,25.653-16.056,35.589-27.676
		c9.45-11.051,16.608-23.596,21.774-37.168C296.426,126.882,300.017,114.334,301.276,101.233z"/>
	<path style="fill:#283E80;" d="M908,395c-0.132-0.27-0.193-0.632-0.407-0.796c-4.669-3.57-5.554-6.688-2.57-11.445
		c2.999-4.782,6.401-9.315,9.683-13.916c10.721-15.03,21.47-30.04,32.2-45.064c0.769-1.077,1.474-2.201,2.317-3.465
		c-4.586-13.486-9.177-26.983-13.766-40.48c-10.682-31.419-21.368-62.837-32.031-94.263c-0.638-1.88-1.312-3.792-1.586-5.743
		c-0.641-4.575,1.784-7.772,6.332-8.532c1.301-0.217,2.656-0.15,3.987-0.152c12.159-0.01,24.319-0.022,36.478,0
		c9.023,0.017,12.916,2.986,15.494,11.682c7.642,25.771,15.29,51.539,22.948,77.305c0.281,0.946,0.69,1.855,1.089,2.915
		c1.735-0.797,2.35-2.372,3.236-3.668c18.395-26.906,36.808-53.8,55.125-80.759c3.473-5.111,7.888-7.652,14.193-7.546
		c12.822,0.216,25.65,0.07,38.476,0.063c3.641-0.002,6.949,0.5,8.796,4.306c1.612,3.323,0.6,6.013-1.36,8.79
		c-6.71,9.509-13.319,19.089-19.954,28.651c-23.418,33.748-46.816,67.51-70.25,101.247c-16.793,24.176-33.697,48.276-50.372,72.533
		c-2.275,3.309-4.783,6.123-8.057,8.336C941.333,395,924.667,395,908,395z"/>
	<path style="fill:#239BD4;" d="M1619,97c-1.811,2.376-1.352,5.341-1.838,7.997c-2.2,12.032-4.087,24.123-5.987,36.208
		c-2.133,13.561-4.093,27.149-6.253,40.705c-1.821,11.425-3.899,22.81-5.719,34.235c-2.159,13.556-4.109,27.146-6.256,40.704
		c-1.474,9.305-3.203,18.57-4.685,27.874c-1.846,11.597-3.543,23.217-5.331,34.823c-0.403,2.614-0.841,5.203-1.063,7.86
		c-0.409,4.899-5.636,9.411-11.232,9.506c-12.493,0.212-24.994,0.22-37.486,0.01c-5.312-0.089-8.745-4.912-7.85-10.417
		c2.81-17.294,5.777-34.564,8.525-51.868c2.542-16.008,4.669-32.084,7.361-48.066c3.488-20.709,6.703-41.458,9.932-62.207
		c2.619-16.828,5.306-33.645,7.979-50.465c0.986-6.206,1.955-12.415,3.05-18.602c0.782-4.422,3.676-7.108,8.263-7.156
		c13.328-0.139,26.658-0.04,39.988-0.056c4.749-0.005,6.83,3.249,8.603,6.916C1619,95.667,1619,96.333,1619,97z"/>
	<path style="fill:#283D80;" d="M573.925,254.002c-8.751,0-14.748-0.042-20.744,0.01c-8.441,0.072-12.872,4.006-14.171,12.308
		c-3.109,19.865-6.238,39.727-9.424,59.58c-1.11,6.916-5.693,11.008-12.636,11.066c-13.824,0.116-27.65,0.099-41.474,0.004
		c-5.683-0.039-8.318-2.945-8.464-8.777c-0.152-6.046,1.508-11.858,2.4-17.759c2.755-18.234,5.758-36.431,8.689-54.638
		c2.483-15.419,5.017-30.829,7.499-46.248c2.481-15.42,4.926-30.846,7.385-46.27c2.511-15.75,5.018-31.501,7.53-47.25
		c0.838-5.251,1.677-10.502,2.533-15.75c1.305-7.996,5.827-12.092,13.892-12.108c31.481-0.061,62.964-0.215,94.442,0.092
		c11.992,0.117,23.828,2.224,35.098,6.617c22.958,8.947,35.288,25.81,36.58,50.383c1.196,22.743-3.581,44.334-14.529,64.317
		c-11.677,21.314-29.993,34.208-53.303,40.304C600.771,253.663,586.026,254.442,573.925,254.002z M548.692,203.962
		c10.383,0,20.02,0.077,29.655-0.046c2.978-0.038,5.986-0.431,8.917-0.991c13.576-2.591,22.868-10.082,26.734-23.689
		c1.559-5.488,2.209-11.067,2.115-16.765c-0.202-12.23-6.47-19.867-18.426-22.568c-9.854-2.226-19.85-1.874-29.83-1.896
		c-6.669-0.015-8.856,1.962-9.917,8.5c-2.182,13.448-4.461,26.88-6.654,40.327C550.383,192.381,549.599,197.948,548.692,203.962z"/>
	<path style="fill:#239BD4;" d="M1212.74,254.002c-9.101,0-15.266-0.052-21.43,0.013c-7.554,0.079-12.226,4.525-13.375,12.025
		c-1.777,11.599-3.872,23.149-5.733,34.736c-1.495,9.309-2.911,18.631-4.229,27.966c-0.697,4.932-3.921,8.205-8.946,8.23
		c-15.328,0.077-30.656,0.066-45.984,0.001c-3.919-0.017-6.587-2.888-7.072-6.881c-0.593-4.89,0.703-9.6,1.373-14.33
		c1.67-11.78,3.757-23.501,5.698-35.242c1.887-11.415,3.861-22.816,5.682-34.242c1.535-9.637,2.835-19.312,4.366-28.95
		c1.789-11.264,3.746-22.502,5.573-33.76c1.484-9.141,2.854-18.299,4.33-27.441c1.87-11.586,3.813-23.161,5.689-34.746
		c1.137-7.021,2.29-14.04,3.284-21.082c1.072-7.6,5.651-11.917,13.245-12.206c0.998-0.038,1.999-0.008,2.999-0.008
		c29.49,0,58.98-0.078,88.47,0.035c13.338,0.051,26.414,2.053,38.918,6.882c15.27,5.897,26.71,15.867,32.529,31.535
		c2.316,6.235,3.651,12.672,3.914,19.365c0.667,16.964-2.237,33.329-8.004,49.222c-6.345,17.484-16.598,32.097-32.202,42.535
		c-11.457,7.664-24.25,11.948-37.774,14.362C1232.7,254.05,1221.266,254.098,1212.74,254.002z M1188.327,204.089
		c7.095,0,14.21,0,21.325,0c5.481,0,10.951,0.002,16.37-1.098c12.994-2.637,22.437-9.273,26.415-22.552
		c0.907-3.027,1.768-6.081,2.168-9.147c0.774-5.926,1.191-12.021-0.991-17.734c-3.712-9.721-11.956-13.083-21.437-14.554
		c-8.761-1.36-17.574-0.956-26.374-0.984c-5.417-0.017-7.943,2.186-8.794,7.424c-0.795,4.897-1.562,9.799-2.296,14.705
		c-1.635,10.942-3.928,21.787-5.474,32.739C1188.745,196.389,1187.204,199.913,1188.327,204.089z"/>
	<path style="fill:#283E80;" d="M799.787,317.886c-2.861,2.332-5.434,4.68-8.251,6.685c-18.698,13.309-39.399,18.576-62.245,15.658
		c-9.171-1.171-17.999-3.247-26.025-7.894c-14.818-8.58-24.41-21.464-29.242-37.678c-8.088-27.142-3.705-52.949,9.723-77.427
		c8.76-15.969,21.169-28.55,36.984-37.621c11.223-6.438,23.334-10.155,36.224-11.734c13.452-1.647,26.557-0.229,39.498,3.279
		c9.272,2.513,17.003,7.455,22.494,15.545c0.453,0.668,0.793,1.473,1.822,1.799c0.632-3.583,1.127-7.16,1.917-10.67
		c1.011-4.493,3.509-6.629,8.004-6.658c13.66-0.086,27.322-0.111,40.981,0.005c6.355,0.054,9.18,3.203,8.341,9.598
		c-1.254,9.552-2.9,19.054-4.42,28.571c-2.516,15.753-5.081,31.497-7.593,47.251c-2.487,15.59-4.924,31.187-7.403,46.779
		c-1.174,7.383-2.54,14.738-3.548,22.143c-0.922,6.773-5.32,11.245-12.183,11.429c-6.825,0.183-13.659,0.052-20.49,0.055
		c-5.498,0.003-10.996,0.051-16.492-0.013c-6.856-0.08-9.511-3.193-8.889-10.114C799.256,323.982,800.648,321.182,799.787,317.886z
		 M764.887,295.316c8.609-0.014,15.083-1.488,22.597-5.14c17.206-8.362,28.416-29.245,25.773-48.345
		c-1.407-10.165-5.808-18.402-14.711-23.644c-13.015-7.665-26.826-7.426-40.271-1.794c-20.969,8.784-32.41,29.568-29.139,52.054
		c1.556,10.698,7.28,18.711,17.308,23.392C752.316,294.58,758.517,295.336,764.887,295.316z"/>
	<path style="fill:#239BD4;" d="M1459.794,188.497c0.427-2.919,0.841-5.834,1.281-8.746c0.929-6.136,3.813-8.649,10.05-8.66
		c12.666-0.022,25.333-0.009,37.999-0.004c1.491,0.001,2.932,0.062,4.414,0.561c3.936,1.325,5.35,3.159,5.578,7.167
		c0.183,3.222-0.788,6.263-1.263,9.354c-2.409,15.689-5.172,31.323-7.68,46.998c-2.169,13.559-4.099,27.156-6.251,40.717
		c-1.788,11.267-3.776,22.502-5.614,33.761c-0.853,5.225-1.738,10.455-2.291,15.716c-0.662,6.308-5.232,11.425-11.532,11.539
		c-12.995,0.235-25.999,0.187-38.997,0.04c-5.024-0.057-7.696-3.29-7.571-8.457c0.04-1.656,0.087-3.359,0.492-4.948
		c0.417-1.636,0.736-3.218,0.467-5.297c-1.763,0.651-3.034,1.797-4.313,2.887c-12.589,10.731-27.081,16.879-43.507,19.086
		c-12.414,1.668-24.578,0.8-36.43-2.626c-19.152-5.536-31.781-18.594-39.492-36.628c-5.392-12.61-7.074-25.952-5.945-39.475
		c2.286-27.383,13.232-50.827,33.542-69.563c13.238-12.212,28.83-19.85,46.612-22.997c6.547-1.158,13.102-2.16,19.762-1.814
		c10.281,0.534,20.502,1.797,30.219,5.286c7.65,2.747,13.953,7.621,18.567,14.453C1458.36,187.54,1458.675,188.317,1459.794,188.497
		z M1403.294,295.113c11.868,0.516,22.231-2.72,30.925-9.971c13.32-11.11,19.677-25.427,17.872-42.971
		c-1.281-12.457-7.72-21.115-19.089-26.372c-6.596-3.05-13.486-3.178-20.46-2.888c-14.911,0.619-26.647,7.452-35.473,19.158
		c-8.257,10.951-11.073,23.556-8.948,37.023c1.491,9.451,6.348,16.92,15.025,21.642
		C1389.614,294.253,1396.476,295.593,1403.294,295.113z"/>
	<path style="fill:#262F65;" d="M301.276,101.233c-1.259,13.101-4.85,25.648-9.502,37.868
		c-5.167,13.572-12.324,26.117-21.774,37.168c-9.937,11.619-21.877,20.828-35.589,27.676c-13.738,6.86-28.312,10.888-43.458,13.166
		c-7.9,1.188-15.838,1.483-23.776,2.087c-14.646,1.113-29.288,0.608-43.928,0.603c-7.402-0.002-12.776,2.827-16.488,9.096
		c-1.479-1.197-0.876-2.841-0.573-4.154c1.771-7.663,2.436-15.498,3.805-23.221c1.312-7.401,2.775-14.784,3.787-22.228
		c0.949-6.98,2.024-13.933,3.203-20.876c1.314-7.733,2.367-15.503,3.781-23.228c1.236-6.749,2.182-13.577,3.129-20.383
		c0.677-4.866,1.511-9.727,2.309-14.555c1.221-7.38,7.302-12.247,14.548-12.249c36.789-0.009,73.58-0.247,110.364,0.159
		c10.763,0.119,21.415,2.516,31.916,5.243c5.598,1.454,10.725,4.048,16.202,5.741C300.208,99.449,300.841,100.295,301.276,101.233z"
		/>
</g>
</svg>
