<?xml version="1.0" encoding="iso-8859-1"?>
<!-- Generator: Adobe Illustrator 27.0.0, SVG Export Plug-In . SVG Version: 6.00 Build 0)  -->
<svg version="1.1" id="Layer_1" xmlns="http://www.w3.org/2000/svg" xmlns:xlink="http://www.w3.org/1999/xlink" x="0px" y="0px"
	 viewBox="0 0 1583.007 291" style="enable-background:new 0 0 1583.007 291;" xml:space="preserve">
<g>
	<path style="fill:#485DAA;" d="M139,0c2.492,2.047,5.657,1.33,8.448,1.766c22.574,3.525,42.531,12.681,60.034,27.247
		c23.164,19.277,36.873,44.043,42.641,73.474c1.607,8.202,2.511,16.53,2.422,24.756c-0.318,29.25-8.837,55.873-27.173,79.054
		c-8.014,10.131-17.28,18.867-27.97,26.107c-0.955,0.647-1.991,1.239-2.724,2.777c2.754,7.284,5.615,14.876,8.496,22.461
		c3.003,7.907,6.114,15.775,9.001,23.724c1.608,4.428,1.033,5.62-3.122,8.667c-9.685-0.01-19.371-0.02-29.056-0.03
		c-4.092-0.83-5.26-4.328-6.558-7.508c-2.634-6.449-4.914-13.043-7.576-19.48c-1.826-4.417-2.953-9.141-5.506-13.305
		c-1.123,0.123-2.136,0.123-3.093,0.355c-14.668,3.546-29.457,4.509-44.524,3.12c-17.158-1.582-33.391-6.34-48.207-14.773
		C29.833,218.66,8.809,188.942,1.811,149.437C1.375,146.978,1.972,144.128,0,142c0-10.667,0-21.333,0-32
		c1.803-1.969,1.448-4.599,1.868-6.9c4.157-22.734,13.575-42.958,28.864-60.283C50.705,20.182,75.649,6.467,105.544,1.725
		C108.001,1.335,110.86,1.985,113,0C121.667,0,130.333,0,139,0z M181.453,200.266c6.875-5.472,15.414-15.585,19.483-23.129
		c9.611-17.82,14.005-36.702,12.339-57.052c-0.93-11.365-2.967-22.391-7.422-32.849c-9.649-22.652-25.652-38.984-48.921-47.644
		c-15.437-5.745-31.301-6.829-47.531-3.779c-20.1,3.778-36.7,13.502-49.681,29.155c-11.99,14.458-18.781,31.394-20.479,49.976
		c-1.906,20.868,0.937,41.153,11.074,59.921c9.244,17.113,22.657,29.962,40.443,37.795c15.717,6.922,32.323,8.581,49.279,6.042
		c2.533-0.379,5.381-0.231,7.742-2.214c-4.337-11.406-8.686-22.85-13.041-34.292c-2.418-6.354-4.978-12.658-7.232-19.07
		c-2.19-6.23-0.416-9.554,5.822-10.321c8.266-1.016,16.596-0.888,24.869,0.2c2.583,0.34,4.64,1.796,5.867,4.178
		c0.835,1.621,1.657,3.262,2.312,4.96c3.936,10.212,7.772,20.463,11.761,30.654C179.09,195.233,179.649,197.881,181.453,200.266z"/>
	<path style="fill:#727BBB;" d="M180,291c-0.002-0.332-0.003-0.665-0.005-0.997c9.685,0.01,19.371,0.02,29.056,0.03
		c-0.172,0.314-0.189,0.636-0.052,0.967C199.333,291,189.667,291,180,291z"/>
	<path style="fill:#485EAA;" d="M1191.9,198.909c1.983-3.023,2.894-6.564,4.162-9.928c12.287-32.593,24.528-65.204,36.807-97.801
		c2.375-6.306,4.908-8.035,11.538-8.054c6.832-0.019,13.664-0.025,20.496,0.002c6.505,0.025,8.956,1.656,11.217,7.754
		c9.285,25.04,18.52,50.099,27.77,75.153c4.124,11.17,8.24,22.342,12.584,34.122c6.625-17.73,13.025-34.81,19.391-51.903
		c7.062-18.963,14.19-37.903,21.08-56.929c2.05-5.66,5.809-8.491,12.015-8.259c6.656,0.249,13.329,0.048,19.994,0.058
		c6.874,0.011,9.573,1.875,11.957,8.271c4.346,11.656,8.667,23.322,13.021,34.975c8.36,22.377,16.732,44.749,25.111,67.119
		c0.695,1.854,1.48,3.674,2.37,5.874c2.534-4.589,3.838-9.219,5.494-13.686c11.702-31.572,23.31-63.179,34.977-94.764
		c2.175-5.889,4.942-7.762,11.242-7.785c6.998-0.026,13.997-0.027,20.996,0.001c6.434,0.026,9.022,1.67,11.316,7.687
		c10.165,26.661,20.257,53.35,30.365,80.032c8.815,23.269,17.591,46.553,26.441,69.809c1.94,5.098,0.186,8.282-5.236,8.406
		c-7.994,0.183-15.996,0.08-23.994,0.039c-3.557-0.018-5.827-2.014-7.382-5.061c-2.727-5.344-4.452-11.082-6.53-16.673
		c-11.786-31.72-23.455-63.484-35.161-95.234c-0.172-0.467-0.352-0.909-1.423-1.117c-2.444,6.304-4.971,12.689-7.401,19.11
		c-11.741,31.023-23.451,62.059-35.186,93.084c-1.531,4.046-4.208,5.858-8.846,5.9c-6.665,0.06-13.336-0.15-19.994,0.075
		c-4.417,0.149-7.246-1.741-9.192-5.495c-2.839-5.474-4.627-11.364-6.799-17.096c-11.993-31.643-23.901-63.317-35.842-94.98
		c-0.174-0.462-0.399-0.905-0.614-1.389c-1.558,0.547-1.452,2.01-1.884,3.163c-13.384,35.725-26.772,71.449-40.169,107.169
		c-0.408,1.087-0.84,2.176-1.392,3.194c-1.87,3.45-4.45,5.551-8.73,5.429c-7.159-0.203-14.33-0.137-21.494-0.024
		c-3.755,0.059-6.274-1.592-8.157-4.703c-2.609-4.311-3.943-9.142-5.66-13.795c-12.177-32.987-24.226-66.021-36.332-99.034
		c-0.162-0.441-0.532-0.805-1.194-1.774c-2.595,6.568-5.084,12.702-7.452,18.883c-11.869,30.979-23.699,61.974-35.561,92.956
		c-2.291,5.983-4.417,7.416-10.822,7.433c-5.999,0.016-12.022-0.335-17.989,0.103c-5.454,0.401-8.599-2.274-10.531-6.679
		c-2.329-5.31-4.236-10.808-6.255-16.251c-11.824-31.876-23.627-63.759-35.446-95.636c-0.047-0.128-0.229-0.206-0.36-0.318
		c-1.413,0.108-1.169,1.397-1.475,2.214c-13.626,36.342-27.242,72.688-40.806,109.054c-1.803,4.835-4.717,7.948-10.787,7.596
		c-6.145-0.357-12.326-0.063-18.492-0.082c-8.374-0.027-10.323-2.704-7.398-10.37c6.089-15.964,12.26-31.896,18.382-47.847
		c12.483-32.522,24.956-65.048,37.44-97.57c0.535-1.394,1.167-2.75,1.712-4.141c1.588-4.056,4.815-5.931,8.901-6.02
		c8.161-0.178,16.329-0.11,24.494-0.032c5.008,0.048,7.859,3.089,9.508,7.466c3.451,9.157,6.823,18.343,10.262,27.504
		c9.911,26.399,19.837,52.793,29.773,79.183C1190.936,197.844,1190.905,198.581,1191.9,198.909z"/>
	<path style="fill:#485DAA;" d="M596.917,103.646c0-3.85-0.042-7.615,0.01-11.379c0.074-5.389,2.196-8.251,7.521-8.682
		c7.112-0.575,14.296-0.779,21.407,0.199c4.329,0.595,6.721,3.34,7.108,7.618c0.104,1.157,0.037,2.33,0.037,3.496
		c0.001,47.807,0.002,95.614-0.003,143.422c0,1.498,0.12,3.024-0.115,4.489c-0.596,3.713-3.406,6.226-7.229,6.284
		c-6.995,0.106-13.993,0.113-20.988,0c-4.488-0.072-7.413-2.95-7.611-7.528c-0.187-4.318-0.04-8.651-0.04-12.941
		c-1.213-0.318-1.579,0.564-2.03,1.145c-10.104,13.007-23.794,20.154-39.609,22.975c-21.601,3.853-41.719-0.926-59.767-13.201
		c-16.53-11.243-27.547-26.819-32.86-46.143c-6.826-24.824-5.719-49.056,7.024-71.932c12.819-23.011,32.289-36.953,58.356-41.569
		c16.35-2.895,32.047-1.201,46.974,6.261c7.245,3.621,13.233,8.859,18.583,14.885C594.525,101.992,595.051,103.379,596.917,103.646z
		 M597.108,165.877c0.166-4.05-0.277-8.007-1.135-11.927c-2.596-11.856-7.849-22.249-17.325-30.067
		c-11.639-9.604-24.992-13.252-40.003-11.01c-14.459,2.16-25.907,9.072-33.928,21.274c-7.162,10.896-9.822,22.983-9.036,36.005
		c0.542,8.975,2.577,17.487,7.239,25.1c11.167,18.236,27.385,26.805,48.963,24.901c8.893-0.785,16.82-3.86,23.816-9.191
		C590.553,199.642,596.752,184.104,597.108,165.877z"/>
	<path style="fill:#485EAA;" d="M877.807,165.777c-0.932-36.055,22.29-71.846,61.308-83.258
		c27.567-8.063,53.833-4.042,77.253,12.932c18.513,13.418,29.754,31.831,33.786,54.516c4.302,24.201-0.096,46.549-14.026,66.877
		c-12.945,18.891-31.008,30.373-53.194,34.96c-26.659,5.512-51.194,0.062-72.727-16.821c-17.337-13.593-27.544-31.576-31.279-53.306
		C878.019,176.387,877.928,171.094,877.807,165.777z M964.813,112.634c-21.702,0.433-37.295,10.346-46.175,30.284
		c-4.786,10.744-5.599,22.002-3.869,33.641c3.752,25.25,25.015,45.465,53.131,43.637c16.096-1.047,29.042-7.912,38.085-21.355
		c9.29-13.809,11.416-29.008,8.201-45.235C1009.384,129.38,989.165,112.104,964.813,112.634z"/>
	<path style="fill:#485EAA;" d="M399.112,228.571c-13.546,17.996-31.33,24.657-51.899,25.375
		c-11.084,0.387-21.899-1.108-32.184-5.404c-17.248-7.205-28.711-19.891-35.089-37.365c-3.53-9.67-4.603-19.75-4.665-29.893
		c-0.18-29.162-0.073-58.326-0.06-87.489c0.003-7.722,2.866-10.619,10.491-10.667c5.166-0.033,10.345,0.225,15.495-0.064
		c6.524-0.366,10.112,3.278,10.067,9.926c-0.186,27.329-0.176,54.66-0.019,81.989c0.05,8.646,0.877,17.257,4.618,25.302
		c6.063,13.039,16.43,19.824,30.486,21.898c8.08,1.192,15.942,0.869,23.641-1.571c15.521-4.92,24.457-15.825,27.997-31.504
		c1.038-4.598,1.12-9.236,1.12-13.897c0.003-26.663,0.002-53.327,0.002-79.99c0-1.167-0.047-2.336,0.012-3.499
		c0.248-4.892,3.243-8.327,8.028-8.514c6.323-0.247,12.688-0.423,18.988,0.022c7.042,0.498,9.043,4.553,9.029,10.113
		c-0.125,48.827-0.065,97.654-0.079,146.482c-0.002,7.149-2.75,9.832-10.012,9.874c-5.499,0.032-10.999,0.047-16.498-0.005
		c-6.441-0.061-9.385-3.047-9.46-9.536C399.079,236.663,399.112,233.171,399.112,228.571z"/>
	<path style="fill:#485EAA;" d="M764.784,166.215c-0.402,14.082,3.481,26.389,11.858,37.149
		c8.438,10.839,19.81,16.317,33.351,17.658c12.467,1.234,23.589-2.704,34.223-8.666c8.484-4.757,9.805-4.503,15.777,2.956
		c2.704,3.377,5.39,6.77,8.04,10.189c3.768,4.862,3.328,8.702-1.641,12.251c-7.482,5.344-15.567,9.597-24.43,12.134
		c-24.838,7.108-49.097,5.785-72.03-6.567c-20.237-10.9-32.609-28.297-38.947-50.232c-2.754-9.532-3.751-19.349-3.562-29.096
		c0.462-23.817,8.154-45.048,25.437-62.003c14.438-14.165,32.089-21.467,52.213-23.069c19.203-1.529,37.378,1.714,54.224,11.3
		c2.734,1.556,5.338,3.402,7.788,5.379c3.468,2.798,4.234,5.904,2.102,9.713c-3.25,5.807-7.314,11.11-11.509,16.254
		c-2.444,2.997-5.428,3.166-9.482,0.89c-5.075-2.85-10.113-5.728-15.643-7.63c-13.466-4.632-26.785-4.569-39.743,1.652
		c-11.298,5.424-19.031,14.315-23.73,25.841C765.909,150.101,764.269,158.205,764.784,166.215z"/>
	<path style="fill:#495EAB;" d="M704.169,127.538c0,36.803,0.001,73.606-0.005,110.41c0,1.664,0.082,3.348-0.136,4.988
		c-0.488,3.673-2.951,6.068-6.675,6.143c-7.158,0.143-14.322,0.122-21.481,0.017c-3.783-0.056-5.955-2.034-7.203-5.709
		c-0.615-1.811-0.472-3.617-0.472-5.432c-0.014-73.94-0.012-147.879-0.01-221.819c0-1.332-0.118-2.686,0.074-3.992
		c0.617-4.199,3.448-7.047,7.667-7.176c7.154-0.219,14.32-0.225,21.477-0.091c3.649,0.068,6.105,2.563,6.605,6.265
		c0.221,1.64,0.154,3.323,0.154,4.987C704.171,53.266,704.169,90.402,704.169,127.538z"/>
</g>
</svg>
