<?xml version="1.0" encoding="iso-8859-1"?>
<!-- Generator: Adobe Illustrator 27.0.0, SVG Export Plug-In . SVG Version: 6.00 Build 0)  -->
<svg version="1.1" id="Layer_1" xmlns="http://www.w3.org/2000/svg" xmlns:xlink="http://www.w3.org/1999/xlink" x="0px" y="0px"
	 viewBox="0 0 1552 187" style="enable-background:new 0 0 1552 187;" xml:space="preserve">
<g>
	<path style="fill:#6C5EA9;" d="M441,187c-0.726-1.528-2.33-1.087-3.51-1.436c-12.958-3.837-19.718-12.48-20.243-26.838
		c-0.089-2.45-0.013-4.905-0.013-7.21c-2.031-0.969-3.715-0.603-5.336-0.607c-13.16-0.034-26.319,0.012-39.479-0.033
		c-7.031-0.024-13.903-1.108-20.393-3.91c-11.532-4.979-17.823-14.003-17.991-26.367c-0.371-27.313-0.37-54.638-0.023-81.952
		c0.181-14.224,8.656-23.397,20.685-27.539c6.186-2.13,12.647-2.757,19.112-2.799c19.489-0.126,38.981-0.192,58.468,0.025
		c8.115,0.09,16.204,0.756,23.706,4.648c9.468,4.912,14.668,12.541,16.166,23.027c0.498,3.483,0.694,6.933,0.694,10.424
		c-0.004,23.488,0.012,46.975-0.015,70.463c-0.007,6.408-1.282,12.578-4.588,18.111c-5.096,8.529-12.96,13.077-22.536,14.948
		c-2.088,0.408-4.177,0.807-6.472,1.249c-0.168,2.794-0.394,5.397,0.258,8.024c1.396,5.63,4.011,7.813,9.823,7.866
		c6.984,0.064,13.968,0.015,21.169,0.015c1.093,3.341,0.438,6.656,0.544,9.899c0.109,3.327-0.008,6.661-0.026,9.992
		C461,187,451,187,441,187z M355.732,79.232c0,10.828-0.009,21.656,0.009,32.484c0.003,1.83,0.021,3.671,0.21,5.488
		c0.659,6.351,4.837,11.35,10.958,12.625c2.894,0.603,5.839,1.115,8.879,1.099c18.157-0.093,36.315-0.094,54.472-0.001
		c3.206,0.016,6.345-0.463,9.375-1.153c5.446-1.239,9.048-4.843,10.289-10.369c0.613-2.73,1.015-5.513,1.003-8.381
		c-0.082-20.989-0.044-41.979-0.044-62.968c0-1,0.082-2.007-0.015-2.997c-0.972-9.914-4.811-15.971-16.746-16.313
		c-0.666-0.019-1.333-0.01-1.999-0.011c-19.157,0-38.314-0.008-57.471,0.011c-1.996,0.002-4.013,0.011-5.984,0.282
		c-4.906,0.673-8.611,3.125-11.061,7.548c-1.699,3.068-1.854,6.344-1.863,9.672C355.714,57.243,355.732,68.238,355.732,79.232z"/>
	<path style="fill:#A398CA;" d="M0.837,126.132C0.551,126.134,0.272,126.09,0,126c0-29,0-58,0-87
		c0.311,0.028,0.618,0.003,0.921-0.074C0.946,60.19,0.987,81.455,0.987,102.72C0.987,110.524,0.89,118.328,0.837,126.132z"/>
	<path style="fill:#A99FCE;" d="M227,0c-0.019,0.299,0.012,0.593,0.092,0.882c-28.392,0.004-56.784,0.008-85.177,0.011
		C142.006,0.601,142.034,0.304,142,0C170.333,0,198.667,0,227,0z"/>
	<path style="fill:#A99FCE;" d="M152.061,186.073c-0.102,0.304-0.123,0.613-0.061,0.927c-10,0-20,0-30,0
		c-0.003-0.29-0.022-0.578-0.056-0.866C131.983,186.113,142.022,186.093,152.061,186.073z"/>
	<path style="fill:#A99FCE;" d="M1552,61c-0.388-0.081-0.776-0.162-1.164-0.243c0.05-7.247,0.1-14.494,0.15-21.741
		c0.338-0.005,0.676-0.01,1.014-0.015C1552,46.333,1552,53.667,1552,61z"/>
	<path style="fill:#CBC6E3;" d="M121.944,186.134c0.034,0.288,0.053,0.576,0.056,0.866c-5,0-10,0-15,0
		c0.013-0.303,0.001-0.606-0.035-0.908C111.958,186.106,116.951,186.12,121.944,186.134z"/>
	<path style="fill:#6B5DA8;" d="M121.944,186.134c-4.993-0.014-9.986-0.028-14.979-0.041c-3.901-1.683-5.075-4.736-5.001-8.833
		c0.168-9.322,0.061-18.649,0.034-27.974c-0.024-8.512-4.678-13.148-13.327-13.159c-24.478-0.031-48.957-0.003-73.435-0.026
		c-2.145-0.002-4.328,0.279-6.414-0.564c-4.309-1.743-7.121-4.744-7.985-9.405c0.053-7.804,0.151-15.608,0.15-23.412
		c0-21.265-0.042-42.529-0.067-63.794c0.985-5.703,7.252-9.924,13.339-9.923c26.816,0,53.632-0.042,80.447,0.038
		c6.196,0.019,11.021,4.253,12.466,10.211c0.557,2.299,0.645,4.591,0.644,6.922c-0.013,22.818-0.013,45.637-0.016,68.455
		c0,1.499-0.03,3,0.027,4.497c0.254,6.699,4.32,10.878,10.989,10.957c9.826,0.115,19.653,0.018,29.48,0.039
		c7.251,0.015,9.684,2.376,9.697,9.454c0.024,12.658-0.078,25.318,0.052,37.975c0.046,4.453-1.693,7.293-5.984,8.523
		C142.022,186.093,131.983,186.113,121.944,186.134z"/>
	<path style="fill:#6B5DA8;" d="M141.915,0.893c28.392-0.004,56.784-0.008,85.177-0.011c8.054,3.08,10.833,6.934,10.84,15.278
		c0.021,25.3-0.182,50.602,0.105,75.899c0.108,9.535-7.31,16.023-15.852,15.927c-25.297-0.284-50.599-0.111-75.899-0.092
		c-3.75,0.003-7.278-0.665-10.253-3.095c-3.719-3.037-5.259-6.888-5.231-11.797c0.146-25.466,0.067-50.933,0.067-76.399
		c0-0.832-0.011-1.665,0.006-2.497C131.017,7,134.82,2.453,141.915,0.893z"/>
	<path style="fill:#6C5FA9;" d="M1099.057,79.938c0,12.499-0.207,25.002,0.05,37.495c0.366,17.821-12.289,30.828-29.689,32.681
		c-5.489,0.585-10.939,0.761-16.421,0.768c-18.331,0.023-36.663,0.032-54.994-0.006c-5.84-0.012-11.568-0.812-17.092-2.849
		c-13.187-4.862-20.446-14.78-20.675-28.805c-0.427-26.157-0.381-52.329-0.028-78.488c0.252-18.72,12.498-29.816,31.122-31.825
		c8.812-0.95,17.623-0.553,26.436-0.627c14.497-0.121,28.994-0.093,43.491-0.181c7.093-0.043,13.948,1.33,20.278,4.351
		c11.229,5.357,17.059,14.683,17.393,26.994c0.365,13.488,0.083,26.994,0.083,40.493
		C1099.024,79.938,1099.041,79.938,1099.057,79.938z M1077.109,79.496c0-3.663,0.001-7.327,0-10.99
		c-0.002-8.159,0.127-16.321-0.042-24.477c-0.177-8.525-5.47-14.787-13.59-14.994c-22.633-0.578-45.282-0.614-67.916,0.03
		c-6.591,0.188-11.009,4.446-12.665,10.818c-0.631,2.427-0.92,4.865-0.914,7.385c0.046,18.15,0.024,36.3,0.025,54.45
		c0,4.163-0.127,8.331,0.031,12.487c0.304,7.984,3.986,13.482,10.413,15.371c2.521,0.741,5.215,1.231,7.834,1.245
		c19.481,0.102,38.971,0.37,58.443-0.058c12.226-0.269,18.849-5.292,18.443-19.299
		C1076.862,100.816,1077.109,90.153,1077.109,79.496z"/>
	<path style="fill:#6B5EA9;" d="M739.079,52.586c0-14.756,0-29.233,0-44.013c6.942,0,13.676,0,20.708,0c0,47.333,0,94.562,0,142.313
		c-3.064,0-6.018,0-8.972,0c-2.794,0-5.589,0-8.662,0c0-6.047,0-11.664,0-17.211c-1.413-0.436-1.639,0.569-1.944,1.156
		c-5.654,10.918-15.28,15.309-26.899,15.954c-7.145,0.397-14.347,0.414-21.491,0.017c-9.787-0.543-18.559-3.608-24.564-12.088
		c-3.373-4.763-5.131-10.176-5.194-15.866c-0.208-18.663-0.482-37.341,0.047-55.991c0.407-14.346,8.988-24.765,23.236-26.948
		c11.253-1.724,22.541-1.644,33.778-0.027c7.784,1.121,13.911,5.174,18.308,11.751c0.184,0.275,0.401,0.537,0.645,0.76
		C738.178,52.488,738.388,52.463,739.079,52.586z M683.002,95.023c0,7.496,0.049,14.993-0.014,22.489
		c-0.057,6.775,3.442,12.8,11.489,13.776c9.295,1.128,18.665,1.145,27.88,0.285c11.84-1.105,16.603-7.338,16.635-19.475
		c0.03-11.494,0.025-22.989-0.01-34.483c-0.006-2.146-0.201-4.257-0.616-6.412c-1.51-7.838-6.789-12.649-15.867-13.125
		c-8.307-0.435-16.655-0.295-24.98-0.138c-9.758,0.184-14.466,5.199-14.511,15.093C682.975,80.363,683.002,87.693,683.002,95.023z"
		/>
	<path style="fill:#6B5EA9;" d="M881.859,102.946c-25.588,0-50.997,0-76.755,0c0,6.164-0.457,11.972,0.12,17.675
		c0.665,6.577,4.495,10.381,12.236,10.886c11.082,0.723,22.277,1.261,33.349-0.419c6.514-0.989,9.656-4.857,10.333-11.51
		c0.164-1.617-0.305-3.357,0.924-5.155c6.376,0,12.936,0,19.48,0c3.003,17.437-7.945,33.427-25.739,35.513
		c-15.058,1.766-30.251,1.948-45.279-0.046c-15.77-2.093-25.791-13.179-26.311-29.548c-0.539-16.972-0.493-33.984-0.02-50.96
		c0.493-17.66,12.604-29.217,29.661-30.188c12.783-0.728,25.685-0.864,38.451-0.016c16.574,1.101,28.944,10.952,29.665,30.028
		c0.396,10.48,0.117,20.985,0.127,31.479C882.103,101.311,881.971,101.938,881.859,102.946z M804.961,85.729
		c19.191,0,37.775,0,56.769,0c0-3.888,0.09-7.522-0.034-11.148c-0.073-2.147-0.351-4.31-0.771-6.418
		c-1.083-5.433-5.325-9.671-11-9.993c-10.977-0.623-21.999-0.657-32.971-0.019c-7.377,0.429-11.665,5.398-11.958,12.856
		C804.808,75.802,804.961,80.612,804.961,85.729z"/>
	<path style="fill:#6C5FA9;" d="M1293.833,150.72c-6.643,0-13.28,0-19.911,0c-0.951-3.424-1.305-134.275-0.366-141.811
		c3.293-1.342,6.812-0.463,10.236-0.617c3.307-0.149,6.627-0.032,10.586-0.032c0.578,5.004,0.228,9.779,0.287,14.521
		c0.06,4.83,0.006,9.662,0.004,14.492c-0.002,4.808,0,9.615,0,15.098c2.877-2.485,4.619-5.088,7.104-6.995
		c5.215-4.001,11.067-6.137,17.496-6.35c7.652-0.253,15.364-0.52,22.973,0.129c14.815,1.263,25.249,10.443,26.787,26.477
		c1.355,14.126,0.492,28.281,0.66,42.422c0.148,12.492,0.049,24.987,0.01,37.48c-0.005,1.619,0.471,3.348-0.854,5.091
		c-6.566,0-13.316,0-20.145,0c-0.968-1.776-0.495-3.639-0.498-5.409c-0.039-22.655-0.022-45.31-0.031-67.965
		c-0.001-2.165,0.018-4.336-0.133-6.493c-0.533-7.584-4.608-12.227-12.165-12.629c-8.469-0.451-17.024-0.636-25.464,0.036
		c-10.091,0.803-15.524,7.132-15.628,16.658c-0.119,10.826-0.087,21.654-0.098,32.482c-0.014,12.66,0.013,25.32-0.022,37.98
		C1294.657,146.917,1295.063,148.622,1293.833,150.72z"/>
	<path style="fill:#6B5EA9;" d="M1491.171,94.498c0,8.165-0.002,16.331,0.001,24.496c0.001,3.843-0.446,7.583-1.674,11.28
		c-3.878,11.676-12.362,17.582-24.028,19.783c-5.12,0.966-10.267,0.817-15.419,0.827c-7.499,0.013-15,0.13-22.495-0.034
		c-7.221-0.158-14.202-1.577-20.461-5.411c-9.331-5.716-13.64-14.547-13.88-25.063c-0.391-17.155-0.662-34.348,0.052-51.482
		c0.722-17.304,12.127-28.599,29.631-29.738c13.108-0.853,26.359-0.84,39.468,0.008c17.349,1.123,27.889,12.765,28.62,28.844
		c0.401,8.813,0.072,17.659,0.072,26.49C1491.095,94.498,1491.133,94.498,1491.171,94.498z M1470.103,94.808
		c-0.034,0-0.069,0-0.103,0c0-7.664,0.062-15.328-0.017-22.991c-0.085-8.267-4.51-13.43-12.647-13.721
		c-10.312-0.37-20.661-0.321-30.971,0.096c-5.726,0.232-10.653,4.071-11.575,11.016c-0.462,3.481-0.678,6.93-0.676,10.418
		c0.005,10.163-0.003,20.325,0.004,30.488c0.002,3.485,0.051,6.939,0.701,10.416c1.151,6.162,4.011,9.587,10.181,10.564
		c10.741,1.701,21.614,1.176,32.354,0.453c8.98-0.605,12.512-5.54,12.725-14.75c0.011-0.499,0.023-0.999,0.023-1.498
		C1470.103,108.467,1470.103,101.637,1470.103,94.808z"/>
	<path style="fill:#6E60AA;" d="M497.542,39.14c6.902,0,13.798,0,20.651,0c0.985,1.925,0.528,3.784,0.531,5.567
		c0.036,23.652,0.228,47.306-0.066,70.955c-0.137,11.046,4.714,15.963,16.042,16.129c7.954,0.117,15.96,0.811,23.888-0.69
		c7.632-1.445,12.671-6.856,13.381-14.595c0.167-1.819,0.128-3.661,0.129-5.492c0.008-22.153,0.005-44.306,0.005-66.458
		c0-1.645,0-3.29,0-5.306c7.147,0,14.044,0,21.296,0c0,36.939,0,73.978,0,111.333c-6.563,0-13.124,0-19.981,0
		c-0.771-4.257,0.025-8.578-0.448-12.855c-0.281-0.021-0.709-0.152-0.782-0.044c-5.888,8.724-14.582,12.522-24.611,13.017
		c-8.439,0.417-16.921,0.669-25.396-0.59c-13.444-1.997-22.67-11.055-24.361-24.464c-0.418-3.314-0.719-6.593-0.719-9.918
		c0.004-23.818-0.005-47.637,0.018-71.455C497.12,42.647,496.803,40.972,497.542,39.14z"/>
	<path style="fill:#6C5FA9;" d="M1205.851,8.369c6.972,0,13.219,0,19.924,0c0,10.16,0,20.075,0,30.372c9.054,0,17.657,0,26.624,0
		c0,6.43,0,12.478,0,18.943c-8.57,0-17.156,0-25.18,0c-1.533,1.139-1.256,2.21-1.257,3.167c-0.009,18.485,0.011,36.971-0.001,55.456
		c-0.004,5.259,1.356,9.947,5.9,13.039c3.271,2.225,7.194,2.335,11.007,2.591c3.118,0.209,6.275-0.431,9.63,0.294
		c0,6.053,0,11.979,0,17.914c-5.482,1.475-19.629,0.873-26.465-1.059c-3.867-1.093-7.526-2.533-10.703-5.094
		c-6.956-5.608-10.161-13.125-10.275-21.772c-0.257-19.481-0.122-38.967-0.182-58.451c-0.006-1.789,0.329-3.627-0.449-5.844
		c-4.205,0-8.455,0-12.943,0c0-6.4,0-12.323,0-18.402c1.576-1.181,3.463-0.549,5.21-0.62c5.203-0.211,7.488-2.175,8.574-7.139
		c0.976-4.463,0.438-8.952,0.568-13.427C1205.925,15.19,1205.851,12.04,1205.851,8.369z"/>
	<path style="fill:#6C5EA9;" d="M906.043,8.476c7.145,0,13.744,0,20.562,0c0.948,1.692,0.544,3.549,0.545,5.302
		c0.027,35.303,0.019,70.606,0.021,105.909c0,9.817,2.534,12.303,12.451,12.246c1.287-0.007,2.574-0.001,4.061-0.001
		c0,6.389,0,12.322,0,18.735c-8.273,0.421-16.529,0.958-24.327-2.585c-8.578-3.898-12.369-11.126-13.209-20.177
		c-0.123-1.323-0.095-2.662-0.095-3.994c-0.006-37.301-0.007-74.603-0.009-111.904C906.043,11.016,906.043,10.024,906.043,8.476z"/>
	<path style="fill:#6C5FA9;" d="M1143.899,150.721c-6.68,0-13.315,0-19.947,0c-1.046-3.707-1.487-98.298-0.493-111.435
		c3.129-0.836,6.433-0.285,9.676-0.386c3.123-0.097,6.252-0.021,9.738-0.021c0,5.444,0,10.52,0,16.028
		c11.929-14.059,18.882-17.129,35.065-15.755c0.962,3.629,1.038,13.625,0.073,18.407c-4.152,0.708-8.447,0.217-12.709,0.316
		c-3.329,0.077-6.637,0.08-9.832,1.271c-6.405,2.388-9.962,6.95-10.563,13.741c-0.205,2.316-0.193,4.655-0.194,6.984
		c-0.013,21.64,0.004,43.28-0.029,64.919C1144.682,146.584,1145.119,148.452,1143.899,150.721z"/>
	<path style="fill:#6C5EA9;" d="M637.927,39.135c0,37.21,0,74.144,0,111.416c-6.775,0-13.504,0-20.541,0
		c0-37.069,0-74.116,0-111.416C624.144,39.135,630.747,39.135,637.927,39.135z"/>
	<path style="fill:#6C5EA9;" d="M638.515,27.793c-7.297,0-14.218,0-21.384,0c0-6.434,0-12.662,0-19.208c7.086,0,14.107,0,21.384,0
		C638.515,15.206,638.515,21.523,638.515,27.793z"/>
	<path style="fill:#7062AB;" d="M1550.986,39.015c-0.05,7.247-0.1,14.494-0.15,21.741c-1.131,0.107-2.286,0.443-3.651-0.555
		c0-4.061,0-8.346,0-13.298c-2.625,2.85-3.188,6.075-5.084,8.548c-0.977,0.842-2.135,0.553-3.598,0.372
		c-1.578-3.01-3.24-6.179-5.473-10.439c0,5.781,0,10.342,0,14.641c-1.3,1.189-2.385,0.939-3.766,0.487c0-7.005,0-14.067,0-21.215
		c1.481-0.642,2.897-0.545,4.459-0.088c2.582,3.544,3.778,7.987,6.717,11.755c2.135-4.032,4.131-7.802,6.069-11.462
		C1548.023,38.497,1549.521,38.916,1550.986,39.015z"/>
	<path style="fill:#7568AF;" d="M1518.947,43.333c0,5.752,0,11.361,0,16.855c-1.698,1.153-3.08,0.599-4.812,0.514
		c0-5.911,0-11.521,0-16.945c-2.22-1.604-4.584-0.154-6.546-1.223c-0.734-1.055-0.699-2.113,0.058-3.436c5.814,0,11.729,0,17.518,0
		c1.046,1.161,0.521,2.256,0.583,3.334C1523.612,43.403,1521.544,42.565,1518.947,43.333z"/>
</g>
</svg>
