<?xml version="1.0" encoding="iso-8859-1"?>
<!-- Generator: Adobe Illustrator 27.0.0, SVG Export Plug-In . SVG Version: 6.00 Build 0)  -->
<svg version="1.1" id="Layer_1" xmlns="http://www.w3.org/2000/svg" xmlns:xlink="http://www.w3.org/1999/xlink" x="0px" y="0px"
	 viewBox="0 0 296.089 211.68" style="enable-background:new 0 0 296.089 211.68;" xml:space="preserve">
<g>
	<path style="fill:#252021;" d="M135.73,0c0.089,0.338,0.369,0.217,0.584,0.238c3.86,0.379,7.493,1.434,10.765,3.584
		c3.617,2.377,5.871,5.781,7.343,9.762c1.068,2.889,1.642,5.887,1.954,8.951c0.227,2.23,0.278,4.459,0.278,6.694
		c0,18.738,0,37.476-0.004,56.214c0,0.433,0.081,0.876-0.122,1.431c-2.802,0.249-5.638,0.127-8.567-0.089c0-0.517,0-0.948,0-1.379
		c0-18.978,0.012-37.956-0.012-56.934c-0.004-3.269-0.22-6.531-0.929-9.741c-0.301-1.363-0.694-2.697-1.26-3.969
		c-1.519-3.412-4.237-5.407-7.762-6.364c-3.278-0.89-6.616-0.921-9.977-0.583c-1.156,0.116-2.289,0.33-3.403,0.627
		c-3.382,0.904-5.705,3.046-7.122,6.212c-1.05,2.345-1.611,4.816-1.938,7.355c-0.373,2.898-0.393,5.806-0.393,8.72
		c0.004,45.507,0.003,91.014,0.002,136.521c0,1.236-0.013,2.471-0.312,3.684c-0.531,2.159-1.984,3.351-4.074,3.324
		c-1.998-0.026-3.558-1.343-4.071-3.378c-0.296-1.177-0.29-2.373-0.29-3.565c-0.008-38.116-0.006-76.231-0.006-114.347
		c0-7.311,0-14.623,0-21.934c0-2.913-0.018-5.827,0.321-8.727c0.475-4.062,1.417-7.999,3.413-11.605
		c3.003-5.425,7.688-8.596,13.664-9.96c1.085-0.247,2.174-0.508,3.299-0.519c0.141-0.001,0.192-0.109,0.226-0.226
		C130.135,0,132.932,0,135.73,0z"/>
	<path style="fill:#D32330;" d="M0,81.508c2.673-0.095,5.326,0.267,7.992,0.355c1.671,0.055,3.337,0.227,5.007,0.325
		c3.142,0.184,6.285,0.353,9.427,0.532c0.115,0.007,0.228,0.056,0.336,0.085c0.27,1.118,0.223,18.952-0.063,22.166
		c-0.682,0.063-1.383,0.149-2.086,0.189c-3.459,0.195-6.92,0.374-10.379,0.565c-3.022,0.167-6.045,0.337-9.066,0.519
		c-0.392,0.024-0.778,0.129-1.168,0.197C0,98.129,0,89.818,0,81.508z"/>
	<path style="fill:#312C2C;" d="M166.905,211.68c0.055-0.318-0.139-0.521-0.331-0.727c-3.449-3.707-6.898-7.415-10.341-11.117
		c-0.192-0.002-0.165,0.149-0.165,0.241c-0.001,2.676-0.027,5.353,0.02,8.028c0.035,1.996,0.16,2.094,2.081,2.507
		c0.115,0.142,0.073,0.294,0.012,0.513c-1.761,0-3.543,0-5.309,0c-0.15-0.149-0.07-0.307-0.075-0.451
		c0.069-0.055,0.124-0.136,0.191-0.147c1.637-0.269,1.939-0.609,1.939-2.264c0-2.916-0.011-5.832-0.018-8.748
		c-0.003-1.483-0.403-1.948-1.898-2.218c-0.109-0.02-0.212-0.075-0.294-0.105c-0.075-0.204-0.022-0.343,0.171-0.562
		c1.38,0.085,2.841,0.081,4.314-0.011c3.091,3.367,6.16,6.71,9.229,10.053c0.076-0.021,0.152-0.041,0.228-0.062
		c0-1.043,0.018-2.087-0.004-3.129c-0.033-1.513-0.047-3.03-0.157-4.538c-0.107-1.465-0.298-1.593-1.746-1.663
		c-0.115-0.005-0.228-0.039-0.321-0.056c-0.194-0.181-0.17-0.36-0.048-0.608c1.67,0,3.364,0,5.038,0
		c0.065,0.228,0.073,0.38-0.094,0.546c-0.372,0.197-0.926-0.028-1.288,0.389c-0.399,0.459-0.437,0.998-0.425,1.569
		c0.088,4.187,0.167,8.374,0.25,12.561C167.544,211.68,167.225,211.68,166.905,211.68z"/>
	<path style="fill:#282424;" d="M34.993,9.84c0,0.574,0,1.046,0,1.519c0,52.058-0.001,104.117,0.004,156.175
		c0,1.202-0.068,2.389-0.41,3.548c-0.643,2.181-2.086,3.283-4.169,3.18c-2.017-0.1-3.635-1.542-3.987-3.649
		c-0.144-0.86-0.239-1.731-0.239-2.617c0.011-54.815,0.01-109.63,0.01-164.445c0-0.43,0-0.861,0-1.24
		c0.436-0.243,0.801-0.15,1.149-0.15c8.553-0.006,17.105-0.039,25.658,0.01c4.228,0.024,8.315,0.825,12.118,2.772
		c4.624,2.367,7.459,6.242,9.182,11.018c1.141,3.165,1.676,6.454,1.973,9.802c0.236,2.673,0.193,5.343,0.195,8.015
		c0.01,13.624,0.009,27.248,0,40.872c-0.001,2.355-0.246,4.696-0.526,7.032c-0.028,0.234-0.121,0.461-0.209,0.784
		c-2.847-0.052-5.687-0.339-8.517-0.534c-0.182-0.647,0.124-1.165,0.19-1.708c0.267-2.187,0.271-4.381,0.272-6.576
		c0.005-13.904,0.002-27.807,0.003-41.711c0-2.794,0.007-5.589-0.302-8.372c-0.229-2.061-0.563-4.106-1.253-6.067
		c-1.217-3.455-3.739-5.568-7.145-6.675c-2.055-0.668-4.186-1.002-6.351-1.008C46.962,9.8,41.287,9.81,35.612,9.812
		C35.456,9.812,35.3,9.826,34.993,9.84z"/>
	<path style="fill:#D32531;" d="M190.733,100.222c-0.519-1.691-1.739-10.765-1.729-12.84c0.321-0.203,0.707-0.264,1.083-0.369
		c1.273-0.356,2.468-0.874,3.569-1.628c5.93-4.059,12.506-6.458,19.603-7.406c4.159-0.555,8.342-0.687,12.54-0.365
		c2.703,0.208,5.418,0.252,8.127,0.388c4.301,0.216,8.602,0.437,12.902,0.676c4.061,0.226,8.122,0.462,12.181,0.725
		c4.616,0.299,9.232,0.597,13.842,0.965c4.332,0.346,8.661,0.746,12.984,1.194c1.898,0.197,3.799,0.433,5.613,0.849
		c0.305,0.328,0.149,0.628,0.166,0.966c-0.507,0-0.942,0.032-1.37-0.005c-3.065-0.268-6.141-0.165-9.21-0.287
		c-3.872-0.154-7.745-0.118-11.617-0.091c-3.95,0.027-7.902,0.086-11.849,0.246c-4.022,0.163-8.049,0.31-12.058,0.696
		c-2.063,0.199-4.132,0.393-6.141,0.94c-0.686,0.186-1.449,0.347-1.418,1.348c0.194,0.538,0.646,0.726,1.181,0.848
		c1.451,0.332,2.932,0.323,4.4,0.373c2.953,0.1,5.91,0.055,8.863,0.155c4.782,0.161,9.561,0.383,14.341,0.594
		c5.18,0.228,10.355,0.539,15.525,0.94c2.744,0.213,5.491,0.371,8.237,0.559c0.352,0.024,0.718-0.009,1.053,0.168
		c0.178,0.428,0.042,0.868,0.099,1.352c-0.874,0.249-1.75,0.133-2.607,0.149c-5.628,0.101-11.258,0.111-16.884,0.274
		c-3.232,0.093-6.465,0.119-9.695,0.223c-4.146,0.134-8.293,0.258-12.434,0.49c-3.46,0.194-6.931,0.307-10.362,0.869
		c-0.437,0.072-0.855,0.187-1.265,0.347c-0.435,0.543-0.243,0.964,0.266,1.297c0.438,0.287,0.942,0.422,1.446,0.545
		c1.594,0.386,3.223,0.559,4.849,0.691c3.498,0.283,7.003,0.473,10.512,0.608c5.622,0.215,11.246,0.337,16.869,0.496
		c4.111,0.116,8.224,0.071,12.332,0.236c2.269,0.091,4.54,0.044,6.875,0.166c0.148,0.503,0.103,0.996,0.028,1.559
		c-0.888,0.091-1.75,0.206-2.615,0.265c-4.098,0.279-8.198,0.523-12.295,0.818c-5.211,0.375-10.429,0.618-15.647,0.838
		c-4.345,0.183-8.692,0.341-13.042,0.37c-2.393,0.016-4.786,0.126-7.177,0.22c-0.555,0.022-1.113,0.115-1.657,0.233
		c-0.51,0.111-1.005,0.298-1.201,0.877c-0.027,0.734,0.463,1.043,1.067,1.239c1.142,0.371,2.324,0.57,3.509,0.713
		c3.645,0.439,7.307,0.662,10.973,0.84c10.456,0.507,20.916,0.472,31.378,0.336c2.19-0.028,4.379-0.19,6.601-0.292
		c0.33,0.32,0.096,0.717,0.147,1.154c-0.921,0.122-1.782,0.261-2.648,0.346c-5.159,0.507-10.32,0.97-15.496,1.286
		c-4.378,0.268-8.756,0.521-13.138,0.723c-3.985,0.183-7.97,0.331-11.956,0.479c-5.822,0.216-11.646,0.338-17.469,0.489
		c-4.71,0.123-9.423,0.308-14.128,0.118c-5.774-0.233-11.131-1.805-15.788-5.43c-2.805-2.183-6.065-3.476-9.496-4.344
		C191.235,100.374,190.973,100.291,190.733,100.222z"/>
	<path style="fill:#272223;" d="M194.643,153.995c2.144-14.858,4.288-29.715,6.45-44.701c2.534,1.334,5.049,2.573,7.771,3.394
		c-0.289,1.955-0.558,3.802-0.836,5.647c-0.439,2.913-0.885,5.824-1.326,8.736c-0.531,3.504-1.064,7.008-1.591,10.512
		c-0.432,2.874-0.854,5.75-1.286,8.625c-0.521,3.465-1.055,6.927-1.568,10.393c-0.53,3.584-1.036,7.173-1.562,10.758
		c-0.232,1.583-0.629,3.107-1.482,4.498c-1.493,2.436-5.754,3.565-8.129,0.397c-1.412-1.883-2.314-3.953-2.603-6.32
		c-0.361-2.964-0.85-5.913-1.289-8.867c-0.439-2.954-0.887-5.907-1.326-8.861c-0.451-3.032-0.896-6.065-1.344-9.097
		c-0.43-2.916-0.858-5.833-1.291-8.749c-0.456-3.072-0.92-6.142-1.372-9.214c-0.51-3.467-1.007-6.936-1.519-10.403
		c-0.442-2.994-0.901-5.985-1.344-8.978c-0.437-2.954-0.86-5.91-1.295-8.864c-0.435-2.955-0.878-5.909-1.316-8.864
		c-0.438-2.953-0.874-5.906-1.309-8.86c-0.441-2.995-0.876-5.99-1.319-8.985c-0.437-2.954-0.885-5.907-1.322-8.861
		c-0.443-2.994-0.877-5.989-1.318-8.983c-0.436-2.956-0.876-5.911-1.316-8.866c-0.458-3.071-0.925-6.141-1.376-9.213
		c-0.515-3.507-1.011-7.017-1.524-10.524c-0.426-2.915-0.91-5.823-1.283-8.745c-0.247-1.939-0.32-3.898,0.04-5.84
		c0.275-1.481,1-2.664,2.568-2.952c1.734-0.319,3.247,0.157,4.283,1.709c0.832,1.247,1.325,2.64,1.547,4.097
		c0.535,3.504,0.984,7.02,1.482,10.53c0.447,3.154,0.92,6.305,1.368,9.459c0.347,2.446,0.668,4.895,1.009,7.342
		c0.452,3.234,0.919,6.466,1.367,9.701c0.437,3.156,0.85,6.316,1.291,9.471c0.441,3.155,0.915,6.305,1.357,9.46
		c0.437,3.117,0.848,6.237,1.277,9.355c0.424,3.078,0.853,6.156,1.285,9.233c0.448,3.194,0.899,6.388,1.353,9.582
		c0.448,3.154,0.907,6.307,1.348,9.462c0.436,3.116,0.849,6.235,1.283,9.351c0.439,3.156,0.894,6.309,1.336,9.465
		c0.359,2.565,0.708,5.131,1.064,7.696c0.427,3.077,0.855,6.154,1.286,9.231c0.365,2.603,0.735,5.205,1.101,7.807
		c0.416,2.954,0.831,5.909,1.247,8.863C194.556,154.011,194.6,154.003,194.643,153.995z"/>
	<path style="fill:#D32330;" d="M103.074,87.691c0,4.05,0,7.988,0,11.997c-1.771,0.166-3.508,0.322-5.243,0.492
		c-3.887,0.38-7.774,0.772-11.661,1.148c-1.111,0.107-2.225,0.194-3.339,0.256c-3.583,0.201-7.166,0.379-10.749,0.578
		c-5.652,0.314-11.304,0.636-16.956,0.96c-4.099,0.235-8.198,0.459-12.295,0.727c-1.462,0.096-2.919,0.223-4.441,0.202
		c0-6.803,0-13.531,0-20.399C59.982,84.994,81.533,86.055,103.074,87.691z"/>
	<path style="fill:#252021;" d="M244.395,9.928c0,21.927,0,43.803,0,65.76c-2.899-0.178-5.706-0.351-8.497-0.522
		c-0.276-0.299-0.163-0.635-0.163-0.937c-0.006-22.132-0.004-44.263-0.009-66.395c0-1.212,0.178-2.38,0.691-3.483
		c0.669-1.44,1.777-2.197,3.392-2.196c12.828,0.004,25.655,0.002,38.483,0.003c1.005,0,1.981,0.169,2.94,0.469
		c0.39,0.122,0.742,0.296,1.032,0.578c1.486,1.448,1.081,4.599-0.72,5.65c-1.101,0.643-2.333,0.768-3.56,0.904
		c-0.475,0.053-0.957,0.047-1.436,0.048c-10.23,0.002-20.46,0.001-30.691,0.006C245.424,9.813,244.983,9.741,244.395,9.928z"/>
	<path style="fill:#262122;" d="M244.389,166.379c0.596,0.26,1.039,0.166,1.469,0.167c11.187,0.006,22.374,0.004,33.561,0.007
		c0.555,0,1.106-0.029,1.649,0.195c1.339,0.552,1.944,1.618,2.062,2.974c0.117,1.333-0.2,2.53-1.391,3.352
		c-0.774,0.535-1.65,0.827-2.556,0.933c-0.986,0.115-1.975,0.225-2.978,0.223c-11.786-0.015-23.572-0.011-35.359-0.006
		c-0.843,0-1.671-0.049-2.458-0.39c-1.854-0.801-2.429-2.401-2.631-4.226c-0.039-0.356-0.029-0.718-0.029-1.077
		c-0.001-18.013-0.001-36.026-0.001-54.039c0-0.236,0-0.472,0-0.871c2.879,0,5.721,0,8.66,0
		C244.389,131.162,244.389,148.76,244.389,166.379z"/>
	<path style="fill:#282324;" d="M74.099,105.345c0.693,1.596,1.105,3.296,1.414,5.015c0.722,4.014,0.975,8.067,0.97,12.142
		c-0.009,8.389-0.024,16.779,0.033,25.168c0.019,2.749,0.395,5.47,1.076,8.152c1.181,4.65,4.159,7.681,8.411,9.629
		c1.089,0.499,2.231,0.836,3.375,1.172c0.995,0.293,1.948,0.685,2.858,1.185c0.672,0.37,1.269,0.836,1.739,1.442
		c1.311,1.688,0.697,3.844-1.313,4.543c-1.536,0.534-3.127,0.554-4.729,0.376c-5.753-0.639-10.079-3.722-13.625-8.054
		c-3.576-4.369-5.505-9.447-6.22-15.02c-0.295-2.299-0.409-4.603-0.406-6.919c0.01-7.391,0.007-14.781,0.002-22.172
		c-0.002-3.156-0.234-6.287-0.958-9.375c-0.532-2.269-1.332-4.407-2.71-6.306c-0.09-0.124-0.221-0.239-0.154-0.423
		C65.247,105.584,72.586,105.181,74.099,105.345z"/>
	<path style="fill:#272223;" d="M214.545,74.926c-2.956,0.4-5.766,0.905-8.684,1.489c0.247-1.807,0.474-3.532,0.721-5.254
		c0.441-3.073,0.898-6.143,1.342-9.215c0.439-3.035,0.869-6.071,1.306-9.107c0.358-2.483,0.725-4.965,1.083-7.448
		c0.437-3.033,0.868-6.067,1.305-9.101c0.448-3.114,0.898-6.228,1.349-9.341c0.445-3.075,0.928-6.145,1.331-9.225
		c0.434-3.314,1.096-6.597,1.325-9.94c0.082-1.196,0.399-2.354,0.958-3.428c0.925-1.776,2.809-2.648,4.736-2.152
		c1.092,0.281,1.776,1.06,2.129,2.093c0.309,0.904,0.468,1.851,0.469,2.815c0.002,1.718,0.012,3.435-0.003,5.153
		c-0.012,1.36-0.335,2.685-0.52,4.024c-0.415,2.997-0.892,5.985-1.349,8.976c-0.529,3.463-1.071,6.924-1.596,10.387
		c-0.513,3.386-1.007,6.775-1.515,10.162c-0.449,2.991-0.91,5.981-1.358,8.972c-0.513,3.426-1.012,6.854-1.527,10.28
		C215.556,68.329,215.054,71.59,214.545,74.926z"/>
	<path style="fill:#252021;" d="M148.135,101.002c2.758-0.086,5.572-0.137,8.369,0.141c0.26,0.352,0.145,0.724,0.145,1.069
		c0.006,21.923,0.006,43.847,0.006,65.77c0,1.038-0.058,2.07-0.319,3.082c-0.517,2.004-1.956,3.174-3.939,3.199
		c-1.91,0.024-3.551-1.181-4.094-3.05c-0.233-0.803-0.349-1.628-0.348-2.476c0.008-22.283,0.006-44.565,0.01-66.848
		C147.964,101.62,147.88,101.331,148.135,101.002z"/>
	<path style="fill:#D32631;" d="M118.538,98.575c0-3.357,0-6.569,0-9.914c18.418,1.289,36.764,2.31,55.22,0.715
		c0.545,3.081,1.025,6.081,1.33,9.26C156.181,97.351,137.389,97.477,118.538,98.575z"/>
	<path style="fill:#2E292A;" d="M123.668,204.015c-0.441,0-0.837,0-1.398,0c0.142,1.932-0.369,3.882,0.13,5.819
		c0.453,0.292,0.888,0.109,1.258,0.224c0.153,0.159,0.21,0.332,0.071,0.65c-2.007-0.085-4.058-0.172-6.158-0.261
		c0.059-0.227,0.097-0.374,0.14-0.537c0.368-0.225,0.798,0.024,1.16-0.163c0.492-0.264,0.552-0.722,0.571-1.22
		c0.132-3.463,0.27-6.926,0.42-10.388c0.018-0.416-0.091-0.784-0.232-1.145c-0.373-0.398-0.914-0.224-1.332-0.406
		c-0.089-0.209-0.126-0.395,0.077-0.62c2.02,0.251,4.088,0.109,6.154,0.123c1.012,0.007,1.977,0.208,2.885,0.655
		c2.515,1.236,2.769,4.418,0.475,6.044c-0.417,0.295-0.883,0.521-1.437,0.843c1.205,1.859,2.366,3.699,3.584,5.501
		c0.409,0.606,1.06,0.966,1.793,1.099c0.326,0.06,0.531,0.156,0.446,0.624c-1.307,0-2.635,0-4.116,0
		C126.295,208.937,125.309,206.312,123.668,204.015z M122.571,197.074c-0.09,2.046-0.174,3.969-0.262,5.95
		c1.506,0.087,2.936,0.199,3.84-1.175c0.768-1.166,0.661-2.428-0.007-3.61C125.345,196.825,123.977,197.024,122.571,197.074z"/>
	<path style="fill:#2E292A;" d="M23.945,194.569c0.902,1.845,1.802,3.7,2.716,5.547c0.468,0.945,1.31,1.45,2.305,1.778
		c-0.08,0.212-0.133,0.353-0.202,0.538c-1.145-0.148-2.275-0.312-3.409-0.435c-0.707-0.076-1.035-0.589-1.297-1.114
		c-0.62-1.243-1.17-2.52-1.761-3.778c-0.403-0.859-0.706-1.768-1.22-2.529c-0.425-0.194-0.825-0.167-1.325-0.156
		c-0.264,1.657-0.558,3.327-0.781,5.005c-0.068,0.514,0.228,0.922,0.806,0.998c0.353,0.046,0.732,0.031,0.767,0.665
		c-1.053,0.184-2.028-0.256-3.024-0.328c-1.022-0.075-2.034-0.294-3.003-0.442c-0.149-0.187-0.122-0.343-0.096-0.522
		c0.394-0.249,0.851,0.013,1.338-0.141c0.368-0.187,0.508-0.561,0.581-1.025c0.533-3.419,1.092-6.834,1.625-10.252
		c0.06-0.387,0.008-0.791,0.008-1.122c-0.291-0.591-0.834-0.492-1.222-0.578c-0.226-0.2-0.236-0.378-0.12-0.604
		c0.674-0.231,1.31,0.125,1.956,0.228c1.729,0.275,3.497,0.235,5.205,0.672c0.586,0.15,1.128,0.379,1.652,0.664
		c1.262,0.686,1.96,1.702,1.901,3.185c-0.058,1.467-0.813,2.449-2.07,3.116C24.856,194.16,24.349,194.186,23.945,194.569z
		 M19.876,193.4c1.556,0.314,3.011,0.562,4.036-0.809c0.823-1.1,0.863-2.388,0.267-3.606c-0.665-1.36-1.991-1.351-3.378-1.438
		C20.492,189.501,20.192,191.404,19.876,193.4z"/>
	<path style="fill:#2D2828;" d="M230.159,200.613c1.379,1.667,2.732,3.336,4.124,4.97c0.621,0.729,1.53,0.935,2.371,1.037
		c0.162,0.232,0.118,0.381,0.014,0.619c-1.242,0.163-2.555,0.116-3.773,0.407c-1.311-0.735-1.975-1.955-2.818-3
		c-0.851-1.054-1.658-2.143-2.466-3.193c-0.467-0.179-0.9-0.061-1.328-0.055c-0.308,1.419,0.142,5.052,0.726,5.874
		c0.392,0.243,0.868-0.052,1.276,0.183c0.182,0.566-0.218,0.598-0.577,0.587c-1.243-0.038-2.458,0.25-3.694,0.285
		c-0.436,0.012-0.869,0.106-1.304,0.164c-0.347,0.046-0.498-0.151-0.606-0.448c0.407-0.431,1.044-0.184,1.521-0.657
		c0.351-0.777,0.117-1.696,0.053-2.59c-0.196-2.741-0.445-5.478-0.652-8.218c-0.048-0.641-0.113-1.262-0.434-1.777
		c-0.457-0.272-0.915-0.084-1.311-0.176c-0.244-0.155-0.173-0.353-0.134-0.544c0.068-0.039,0.137-0.11,0.205-0.11
		c2.043,0.009,4.044-0.403,6.064-0.613c1.169-0.121,2.303,0.004,3.371,0.524c2.109,1.028,2.605,3.687,1.024,5.431
		C231.351,199.818,230.764,200.155,230.159,200.613z M225.574,194.556c0.059,2.078,0.239,3.979,0.452,5.906
		c1.572-0.011,2.97-0.138,3.678-1.635c0.623-1.317,0.308-2.584-0.585-3.662C228.177,194.027,226.919,194.385,225.574,194.556z"/>
	<path style="fill:#2E292A;" d="M239.803,198.362c0.004-3.338,2.8-6.471,6.681-7.049c1.977-0.295,3.89-0.141,5.688,0.777
		c4.311,2.201,5.274,7.997,1.941,11.597c-2.942,3.178-8.217,3.624-11.639,0.977C240.567,203.188,239.747,201.207,239.803,198.362z
		 M242.656,197.967c0.07,2.382,0.687,4.558,2.506,6.228c2.345,2.152,5.946,1.438,7.341-1.418c1.548-3.171,0.284-7.58-1.87-9.455
		c-2.157-1.876-5.408-1.488-6.973,0.897C242.916,195.353,242.601,196.61,242.656,197.967z"/>
	<path style="fill:#302B2B;" d="M215.759,194.917c0.347,1.202,0.378,2.355,0.566,3.427c-0.174,0.188-0.313,0.251-0.478,0.256
		c-0.068-0.034-0.181-0.053-0.199-0.105c-0.896-2.551-3.364-3.303-5.352-3.106c-2.302,0.228-4.306,1.929-4.917,4.284
		c-0.669,2.579-0.191,4.959,1.5,7.07c1.412,1.763,4.456,2.762,7.033,1.289c-0.071-1.294-0.002-2.659-0.495-3.863
		c-0.564-0.279-1.017-0.104-1.435-0.195c-0.216-0.131-0.192-0.33-0.148-0.61c1.908-0.136,3.838-0.273,5.71-0.406
		c0.212,0.162,0.188,0.321,0.174,0.493c-0.238,0.383-0.77,0.147-1.163,0.62c-0.013,1.324-0.344,2.817,0.515,4.207
		c-0.024,0.256-0.239,0.279-0.424,0.337c-2.291,0.722-4.62,1.233-7.04,1.087c-2.554-0.154-4.743-1.091-6.218-3.264
		c-2.261-3.332-1.645-8.012,2.422-10.585c2-1.266,4.183-1.659,6.526-1.288C213.433,194.738,214.531,194.954,215.759,194.917z"/>
	<path style="fill:#312C2C;" d="M38.441,190.295c-0.224,1.769-0.442,3.49-0.668,5.273c0.948,0.118,1.814,0.24,2.682,0.332
		c1.231,0.13,1.322,0.091,1.744-1.066c0.127-0.349,0.279-0.44,0.727-0.347c-0.191,1.546-0.383,3.103-0.572,4.634
		c-0.435,0.108-0.615-0.06-0.62-0.405c-0.017-1.185-0.664-1.709-1.794-1.791c-0.714-0.052-1.424-0.164-2.26-0.264
		c-0.358,1.829-0.66,3.643-0.62,5.364c0.355,0.404,0.642,0.517,0.966,0.563c1.106,0.155,2.211,0.312,3.316,0.468
		c1.123,0.159,1.935-0.287,2.486-1.26c0.132-0.234,0.208-0.526,0.516-0.616c0.429,0.566,0.365,0.844-0.752,3.247
		c-3.683-0.483-7.386-0.968-11.092-1.453c-0.203-0.136-0.205-0.314-0.084-0.551c0.41-0.242,0.928,0.072,1.425-0.212
		c0.691-0.721,0.509-1.758,0.656-2.667c0.456-2.83,0.792-5.679,1.173-8.521c0.026-0.197,0.044-0.396,0.055-0.595
		c0.034-0.601-0.179-1.01-0.839-1.074c-0.417-0.041-0.796-0.123-0.611-0.784c3.455,0.455,6.873,0.906,10.428,1.374
		c-0.176,1.055,0.032,2.124-0.279,3.166c-0.017,0.056-0.208,0.06-0.324,0.09c-0.363-0.304-0.243-0.753-0.35-1.115
		c-0.216-0.728-0.615-1.203-1.362-1.333C41.101,190.529,39.813,190.301,38.441,190.295z"/>
	<path style="fill:#312C2C;" d="M84.608,203.228c-0.453,1.033-0.866,1.933-1.244,2.847c-0.476,1.153-0.311,1.453,0.917,1.756
		c0.15,0.037,0.321-0.004,0.482,0.184c0,0.062,0.016,0.176-0.006,0.283c-0.014,0.071-0.081,0.131-0.178,0.275
		c-1.451-0.179-2.951-0.349-4.383-0.306c-0.275-0.175-0.315-0.347-0.225-0.59c0.083-0.045,0.181-0.142,0.283-0.146
		c0.984-0.031,1.465-0.646,1.83-1.468c0.919-2.068,1.873-4.121,2.807-6.183c0.786-1.735,1.565-3.474,2.347-5.21
		c0.728-0.266,1.427-0.521,2.163-0.789c0.392,0.374,0.382,0.885,0.503,1.321c1.078,3.861,2.129,7.73,3.195,11.595
		c0.241,0.873,0.571,1.676,1.641,1.81c0.115,0.014,0.19,0.131,0.192,0.264c0.002,0.079,0,0.159,0,0.392
		c-2.05-0.132-4.085-0.262-6.087-0.391c-0.127-0.255-0.136-0.441,0.007-0.629c0.404-0.271,0.962,0.089,1.445-0.398
		c-0.072-1.348-0.664-2.659-0.952-4.093C87.807,203.363,86.232,203.631,84.608,203.228z M88.993,202.534
		c-0.502-1.866-0.983-3.656-1.528-5.682c-0.875,1.967-1.63,3.665-2.432,5.47C86.424,202.263,87.665,202.63,88.993,202.534z"/>
	<path style="fill:#302B2B;" d="M134.877,210.968c-0.134-0.227-0.104-0.377-0.022-0.607c1.248,0.04,1.681-0.877,2.059-1.887
		c1.278-3.419,2.573-6.831,3.864-10.245c0.154-0.407,0.323-0.808,0.493-1.233c0.724-0.228,1.425-0.476,1.964-0.911
		c0.482,0.272,0.455,0.688,0.564,1.004c1.329,3.823,2.635,7.654,3.93,11.488c0.346,1.026,0.779,1.931,1.977,1.996
		c0.12,0.222,0.132,0.369-0.009,0.602c-1.967,0.058-3.987-0.131-5.896,0.032c-0.238-0.242-0.205-0.396-0.161-0.61
		c0.404-0.239,1.005-0.057,1.47-0.578c-0.232-1.359-0.836-2.683-1.289-4.094c-1.551,0-3.061,0-4.717,0
		c-0.429,1.287-1.262,2.515-1.21,3.929c0.485,0.569,1.09,0.35,1.554,0.599c0.227,0.198,0.076,0.405,0.054,0.685
		C137.903,210.971,136.366,210.943,134.877,210.968z M139.502,204.799c1.388,0,2.626,0,3.941,0c-0.62-1.876-1.209-3.662-1.848-5.596
		C140.887,201.097,140.234,202.842,139.502,204.799z"/>
	<path style="fill:#312C2C;" d="M100.687,196.255c-0.475-0.644-1.092-0.414-1.527-0.655c-0.117-0.216-0.066-0.39,0.115-0.614
		c1.959,0.294,3.989,0.071,6.005,0.495c-0.208,0.982-1.098,0.277-1.485,0.714c-0.348,0.411-0.412,0.913-0.439,1.439
		c-0.119,2.308-0.257,4.615-0.379,6.923c-0.021,0.398-0.035,0.802,0.005,1.198c0.303,3.019,3.422,4.552,6.039,2.978
		c0.926-0.557,1.402-1.421,1.518-2.451c0.326-2.894,0.343-5.808,0.495-8.713c0.052-0.99-0.049-1.053-1.149-1.245
		c-0.314-0.055-0.543-0.13-0.484-0.644c1.502-0.174,3.007,0.15,4.442,0.093c0.203,0.309,0.162,0.487,0.023,0.656
		c-0.072,0.025-0.144,0.073-0.216,0.073c-1.189-0.006-1.374,0.164-1.426,1.345c-0.097,2.191-0.182,4.383-0.292,6.574
		c-0.034,0.676-0.077,1.36-0.216,2.019c-0.305,1.447-1.097,2.529-2.494,3.142c-2.363,1.035-4.666,0.803-6.907-0.329
		c-1.417-0.716-2.098-1.958-2.045-3.518c0.081-2.389,0.246-4.775,0.393-7.161C100.712,197.74,100.782,196.913,100.687,196.255z"/>
	<path style="fill:#302B2B;" d="M284.967,200.214c0.767,0.415,1.375,0.085,1.937,0.203c0.221,0.171,0.158,0.356,0.06,0.584
		c-2.083,0.305-4.187,0.613-6.208,0.908c-0.208-0.282-0.175-0.43-0.105-0.584c0.343-0.298,0.886-0.036,1.209-0.422
		c0.333-1.083-1.098-11.373-1.757-12.615c-0.43-0.307-0.943,0.023-1.344-0.148c-0.192-0.156-0.147-0.313-0.114-0.537
		c1.608-0.284,3.248-0.529,4.865-0.876c0.872-0.187,1.738-0.244,2.615-0.219c1.902,0.053,3.329,1.171,3.757,2.916
		c0.442,1.805-0.303,3.562-1.91,4.501c-0.87,0.508-1.823,0.76-2.745,0.929c-0.306-0.111-0.295-0.316-0.298-0.591
		c0.894-0.461,2.08-0.69,2.345-1.918c0.231-1.07,0.122-2.135-0.355-3.143c-0.712-1.506-1.904-1.92-3.843-1.227
		C283.673,192.085,284.197,196.237,284.967,200.214z"/>
	<path style="fill:#312C2C;" d="M261.349,191.116c-0.559-0.604-1.112-0.271-1.611-0.347c-0.058-0.171-0.108-0.319-0.206-0.611
		c2.033-0.27,4.02-0.535,5.921-0.788c0.313,0.21,0.249,0.4,0.179,0.63c-0.386,0.206-0.967-0.019-1.361,0.632
		c-0.203,0.486-0.054,1.171,0.025,1.83c0.277,2.291,0.581,4.58,0.923,6.863c0.215,1.434,0.766,2.683,2.253,3.26
		c2.883,1.12,5.719-0.998,5.402-4.082c-0.199-1.939-0.506-3.867-0.773-5.798c-0.103-0.748-0.239-1.491-0.342-2.239
		c-0.056-0.409-0.156-0.782-0.624-1.082c-0.331,0-0.76,0-1.162,0c-0.237-0.356-0.202-0.6,0.181-0.653
		c1.377-0.189,2.757-0.353,4.114-0.524c0.193,0.166,0.227,0.344,0.154,0.556c-0.18,0.21-0.447,0.103-0.668,0.172
		c-0.676,0.211-0.926,0.543-0.831,1.244c0.326,2.404,0.636,4.812,1.027,7.206c0.533,3.262-0.707,5.284-3.897,6.216
		c-1.408,0.411-2.828,0.438-4.245,0.094c-1.806-0.439-2.915-1.568-3.194-3.428c-0.195-1.298-0.309-2.609-0.511-3.906
		C261.828,194.594,261.77,192.795,261.349,191.116z"/>
	<path style="fill:#302B2B;" d="M78.273,192.864c0.057,1.277-0.218,2.454-0.524,3.623c-0.037,0.14-0.27,0.126-0.322,0.107
		c-0.298-0.102-0.286-0.272-0.313-0.425c-0.27-1.51-0.372-1.627-1.846-1.872c-0.509-0.085-1.031-0.088-1.546-0.137
		c-0.476-0.045-0.95-0.102-1.496-0.162c-0.379,2.07-0.461,4.177-0.642,6.268c-0.18,2.078-0.598,4.151-0.41,6.139
		c0.59,0.503,1.198,0.369,1.675,0.551c0.139,0.18,0.073,0.33,0,0.607c-2.175-0.2-4.373-0.402-6.539-0.601
		c-0.128-0.239-0.152-0.424-0.001-0.623c0.454-0.21,0.915,0.183,1.423,0.012c0.4-0.188,0.587-0.537,0.632-1.021
		c0.136-1.466,0.314-2.928,0.455-4.394c0.228-2.378,0.438-4.758,0.66-7.178c-0.964-0.1-1.949-0.204-2.934-0.304
		c-1.135-0.115-2.043,0.216-2.579,1.301c-0.151,0.305-0.363,0.539-0.8,0.253c0.296-1.149,0.457-2.35,1.005-3.621
		c0.795,1.234,2.024,0.954,3.067,1.073c3.046,0.347,6.11,0.533,9.161,0.839C77.073,193.366,77.645,193.324,78.273,192.864z"/>
	<path style="fill:#2E292A;" d="M173.519,195.723c0.621,0.699,1.359,0.633,2.106,0.642c3.39,0.042,6.77-0.291,10.159-0.269
		c0.698,0.004,1.323-0.156,1.77-0.777c0.53,0.465,0.173,0.958,0.207,1.393c0.038,0.475,0.032,0.96-0.022,1.433
		c-0.046,0.399,0.186,0.994-0.476,1.083c-0.277-0.16-0.329-0.373-0.36-0.552c-0.221-1.306-0.843-1.501-2.04-1.515
		c-0.987-0.012-1.976,0.089-3.031,0.143c-0.195,1.366,0.022,2.705,0.045,4.04c0.039,2.269,0.147,4.537,0.229,6.805
		c0.009,0.238,0.021,0.476,0.054,0.712c0.142,1.011,0.245,1.1,1.289,1.137c0.195,0.007,0.391,0.001,0.518,0.001
		c0.286,0.192,0.19,0.391,0.146,0.679c-2.156,0.056-4.334,0.013-6.434,0.216c-0.277-0.195-0.23-0.389-0.165-0.668
		c0.524-0.225,1.263,0.128,1.834-0.57c0.206-3.999-0.322-8.119-0.195-12.341c-1.222,0.068-2.355,0.129-3.489,0.194
		c-0.881,0.051-1.478,0.489-1.835,1.299c-0.141,0.321-0.156,0.865-0.852,0.614C173.131,198.246,173.124,197.031,173.519,195.723z"/>
	<path style="fill:#2E292A;" d="M49.053,204.49c0.11-1.076-0.177-2.131,0.193-3.142c0.676,0.117,0.561,0.56,0.648,0.874
		c0.382,1.38,1.244,2.291,2.63,2.664c0.9,0.242,1.742,0.076,2.466-0.53c1.098-0.918,1.172-2.293,0.193-3.369
		c-0.515-0.567-1.17-0.958-1.784-1.4c-0.582-0.42-1.165-0.831-1.688-1.33c-1.4-1.336-1.738-2.93-1.054-4.692
		c0.693-1.785,2.132-2.604,3.998-2.721c1.35-0.085,2.58,0.34,3.806,0.91c0.081,0.977,0.108,1.917-0.016,2.845
		c-0.204,0.045-0.359,0.069-0.556-0.06c-0.101-0.326-0.208-0.702-0.334-1.072c-0.398-1.164-1.078-1.653-2.318-1.682
		c-1.078-0.025-2.07,0.553-2.43,1.416c-0.433,1.039-0.17,2.075,0.806,2.88c0.644,0.531,1.344,0.994,2.027,1.477
		c0.686,0.486,1.332,1.005,1.829,1.699c0.908,1.267,1.134,2.656,0.506,4.061c-0.679,1.522-1.932,2.438-3.614,2.577
		C52.488,206.049,50.727,205.635,49.053,204.49z"/>
	<path style="fill:#383333;" d="M291.563,172.918c-0.364,0.245-0.667,0.133-1.038,0.106c0-1.885,0-3.736,0-5.583
		c0.362-0.202,0.719-0.097,1.132-0.095c0.526,0.788,1.071,1.602,1.677,2.51c0.577-0.882,1.089-1.664,1.579-2.411
		c0.385-0.203,0.746-0.096,1.176-0.109c0,1.857,0,3.71,0,5.622c-0.259,0.256-0.607,0.062-1.044,0.098c0-1.205,0-2.345,0-3.486
		c-0.064-0.021-0.128-0.042-0.192-0.063c-0.485,0.706-0.971,1.412-1.495,2.175c-0.676-0.63-0.993-1.468-1.701-2.262
		C291.515,170.686,291.665,171.836,291.563,172.918z"/>
	<path style="fill:#383333;" d="M284.908,167.356c1.566,0,3.034,0,4.496,0c0.204,0.257,0.165,0.523,0.078,0.833
		c-0.498,0.271-1.079-0.02-1.709,0.207c0,1.494,0,3.028,0,4.511c-0.406,0.233-0.708,0.18-1.13,0.059c0-1.501,0-3.035,0-4.532
		c-0.601-0.261-1.134-0.03-1.633-0.19C284.78,168.009,284.909,167.729,284.908,167.356z"/>
</g>
</svg>
