<?xml version="1.0" encoding="iso-8859-1"?>
<!-- Generator: Adobe Illustrator 27.0.0, SVG Export Plug-In . SVG Version: 6.00 Build 0)  -->
<svg version="1.1" id="Layer_1" xmlns="http://www.w3.org/2000/svg" xmlns:xlink="http://www.w3.org/1999/xlink" x="0px" y="0px"
	 viewBox="0 0 1573 248" style="enable-background:new 0 0 1573 248;" xml:space="preserve">
<g>
	<path style="fill:#2D2B2B;" d="M1550,248c-0.636-1.575-2.279-1.079-3.41-1.531c-8.832-3.531-14.227-12.43-12.424-21.451
		c2.162-10.82,10.416-15.814,18.277-15.982c9.881-0.211,17.451,5.773,19.568,15.509c0.146,0.673,0.191,1.284,0.989,1.454
		c0,1.667,0,3.333,0,5c-0.263,0.162-0.714,0.281-0.761,0.491c-2.035,9.032-7.369,14.524-16.746,15.751
		c-0.194,0.025-0.329,0.495-0.492,0.757C1553.333,248,1551.667,248,1550,248z M1569.048,228.467
		c0.008-8.977-7.201-16.698-15.968-16.347c-9.64,0.386-16.1,7.48-15.889,16.47c0.23,9.784,8.241,15.877,16.036,15.684
		C1561.965,244.058,1569.041,237.234,1569.048,228.467z"/>
	<path style="fill:#D9CADE;" d="M0,126c0.276-0.038,0.553-0.051,0.831-0.04c0.055,1.494,0.159,2.987,0.159,4.481
		c0.013,36.472,0.011,72.944,0.028,109.416c0.001,1.993,0.149,3.986,0.229,5.979C0.831,245.89,0.416,245.945,0,246
		C0,206,0,166,0,126z"/>
	<path style="fill:#F6AB93;" d="M839,0c-0.087,0.414-0.174,0.828-0.261,1.243c-12.412-0.198-24.825-0.449-37.234,0.135
		C801.337,0.918,801.168,0.459,801,0C813.667,0,826.333,0,839,0z"/>
	<path style="fill:#F29075;" d="M1072.036,1.032c-0.012-0.344-0.024-0.688-0.036-1.032c12,0,24,0,36,0
		c-0.039,0.364-0.078,0.727-0.117,1.091C1095.934,1.071,1083.985,1.051,1072.036,1.032z"/>
	<path style="fill:#B999BF;" d="M515,0c-0.085,0.31-0.066,0.614,0.059,0.91c-1.645,0.053-3.289,0.137-4.934,0.153
		c-9.564,0.094-19.128,0.172-28.692,0.255C481.288,0.879,481.144,0.44,481,0C492.333,0,503.667,0,515,0z"/>
	<path style="fill:#7C2E84;" d="M481.432,1.319c9.564-0.083,19.128-0.161,28.692-0.255c1.645-0.016,3.29-0.1,4.934-0.153
		c0.986,0.056,1.972,0.111,2.712,0.153c1.189,0.943,0.855,2.013,0.855,2.959c0.015,60.802,0.057,121.604-0.023,182.405
		c-0.017,12.451-2.196,24.464-8.94,35.274c-8.477,13.589-20.934,20.962-36.528,23.396c-9.929,1.55-19.947,0.678-29.921,0.847
		c-13.489,0.228-26.992-0.221-40.477,0.114c-29.34,0.727-46.779-18.31-52.686-41.847c-1.42-5.658-2.064-11.42-2.04-17.283
		c0.08-19.323-0.003-38.647,0.062-57.97c0.058-17.199,6.32-31.806,19.025-43.405c7.319-6.682,16.269-10.193,26.047-11.484
		c4.614-0.609,9.265-0.787,13.937-0.772c22.655,0.071,45.31,0.032,67.965,0.032c1.813,0,3.625,0,6.01,0
		C481.183,49.151,481.308,25.235,481.432,1.319z M480.608,115.275c-0.84-0.053-1.489-0.131-2.138-0.131
		c-25.493-0.006-50.985,0.006-76.478-0.028c-2.027-0.003-3.956,0.449-5.926,0.751c-5.428,0.831-8.516,4.237-9.948,9.254
		c-0.632,2.215-0.996,4.514-0.987,6.89c0.064,18.161,0.064,36.323,0.009,54.484c-0.008,2.703,0.377,5.351,1.076,7.885
		c1.22,4.428,4.034,7.475,8.618,8.873c2.951,0.901,5.917,0.863,8.9,0.867c19.328,0.028,38.655,0.02,57.983,0.007
		c2.165-0.001,4.333-0.044,6.493-0.177c5.942-0.366,9.893-3.303,11.897-9.006c1.083-3.083,1.081-6.216,1.085-9.365
		c0.025-21.994,0.01-43.987-0.015-65.981C481.175,118.295,481.456,116.945,480.608,115.275z"/>
	<path style="fill:#7D2E85;" d="M192.171,187.812c-0.175,11.676,6.097,18.153,17.125,18.168c32.823,0.046,65.646,0.017,98.469,0.017
		c1.816,0,3.631,0,5.766,0c0,13.303,0,26.345,0,39.312c-1.384,0.921-2.752,0.539-4.038,0.542
		c-32.823,0.068-65.646,0.189-98.468,0.116c-15.807-0.035-29.812-4.841-40.517-17.052c-8.015-9.142-12.702-19.839-13.537-32.016
		c-1.517-22.129-0.611-44.295-0.617-66.442c-0.003-11.604,2.999-22.734,8.813-32.875c6.971-12.159,17.511-19.886,31.043-23.243
		c3.976-0.986,8.264-0.952,12.411-0.97c20.66-0.09,41.32-0.053,61.98-0.036c13.38,0.011,25.557,3.403,35.941,12.333
		c9.077,7.806,14.635,17.736,17.024,29.185c3.583,17.172,1.505,33.765-7.497,49.117c-6.605,11.263-16.198,18.784-28.851,22.244
		c-3.862,1.056-7.825,1.458-11.831,1.464c-25.99,0.04-51.981,0.09-77.971,0.136C195.777,187.815,194.139,187.812,192.171,187.812z
		 M192.102,147.995c28.321,0,56.099,0.036,83.878-0.046c3.409-0.01,6.445-1.48,8.798-4.056c4.889-5.352,6.422-15.484,3.198-21.989
		c-3.03-6.113-8.1-8.928-14.905-8.915c-21.473,0.04-42.95,0.265-64.416-0.105c-8.965-0.155-15.843,6.191-16.465,15.15
		C191.742,134.466,192.102,140.955,192.102,147.995z"/>
	<path style="fill:#E92728;" d="M1195.845,187.855c0.044,7.681,2.332,13.45,9.101,16.478c3.362,1.504,7.06,1.683,10.75,1.68
		c31.991-0.027,63.982-0.022,95.972,0.002c1.803,0.001,3.644-0.326,5.715,0.39c0,12.866,0,25.797,0,38.8
		c-1.016,1.161-2.447,0.663-3.701,0.666c-32.157,0.065-64.314,0.132-96.472,0.101c-9.192-0.009-18.289-0.882-26.747-4.947
		c-15.479-7.439-24.464-19.99-28.41-36.419c-1.288-5.363-1.658-10.867-1.679-16.358c-0.072-18.828-0.116-37.656,0.015-56.483
		c0.091-13.04,2.883-25.451,10.256-36.427c8.539-12.712,20.165-20.467,35.81-21.554c3.494-0.243,6.976-0.396,10.472-0.396
		c19.328-0.001,38.656-0.015,57.983,0.006c9.802,0.011,19.195,1.809,27.756,6.829c13.405,7.861,21.597,19.696,24.806,34.664
		c3.724,17.371,1.696,34.248-7.76,49.543c-9.312,15.061-23.049,23.267-40.983,23.382c-25.825,0.166-51.652,0.043-77.478,0.043
		C1199.617,187.855,1197.981,187.855,1195.845,187.855z M1195.986,147.997c9.073,0,17.552,0,26.031,0
		c18.655,0,37.309,0.023,55.964-0.012c7.409-0.014,11.683-3.105,14.232-10.151c0.449-1.241,0.791-2.532,1.057-3.826
		c2.475-12.041-4.585-20.958-16.776-20.986c-21.985-0.052-43.97,0.034-65.954,0.012c-2.984-0.003-5.495,1.073-7.849,2.732
		c-4.267,3.007-6.141,7.326-6.572,12.342C1195.565,134.562,1195.807,141.024,1195.986,147.997z"/>
	<path style="fill:#E92628;" d="M870.798,159.198c0-10.158,0.109-20.318-0.026-30.475c-0.196-14.806,4.591-27.769,14.368-38.782
		c8.537-9.616,19.461-15.119,32.235-15.924c23.776-1.497,47.602-0.352,71.406-0.617c14.756-0.164,27.363,4.856,37.236,16.008
		c7.824,8.838,12.062,19.365,13.966,30.91c0.87,5.272,1.007,10.586,0.989,15.921c-0.063,18.318,0.099,36.639-0.133,54.954
		c-0.151,11.878-3.359,23.02-10.263,32.796c-9.748,13.804-23.384,21.341-40.125,21.779c-22.632,0.593-45.296,0.465-67.935,0.031
		c-12.368-0.237-23.918-3.782-33.316-12.545c-10.933-10.193-17.549-22.597-18.173-37.595c-0.505-12.134-0.102-24.307-0.102-36.462
		C870.882,159.198,870.84,159.198,870.798,159.198z M956.261,203.999c11.158,0,22.316,0.05,33.474-0.018
		c7.181-0.043,11.367-3.196,13.1-9.875c0.707-2.725,1.163-5.517,1.103-8.387c-0.109-5.161-0.065-10.325-0.072-15.487
		c-0.017-12.823,0.113-25.649-0.081-38.469c-0.178-11.792-5.184-16.527-16.977-16.613c-0.167-0.001-0.333,0-0.5,0
		c-20.318,0-40.635,0.006-60.952-0.008c-2.172-0.002-4.303,0.328-6.452,0.521c-4.302,0.387-6.925,2.938-8.992,6.325
		c-1.603,2.625-2.081,5.541-2.078,8.603c0.019,18.819-0.09,37.638,0.002,56.456c0.06,12.348,4.737,16.917,16.95,16.948
		C935.277,204.021,945.769,204,956.261,203.999z"/>
	<path style="fill:#E92728;" d="M1430.888,73.951c22.726,0,44.523,0,66.624,0c0,12.819,0,25.396,0,38.558c-22.063,0-43.979,0-65.4,0
		c-1.519,1.723-1.067,3.121-1.069,4.394c-0.051,24.995-0.07,49.99-0.067,74.985c0,1.992-0.013,4.03,0.37,5.969
		c1.254,6.357,5.797,10.09,12.322,10.122c12.164,0.06,24.329,0.01,36.493,0.02c9.831,0.008,19.663,0.016,29.494,0.079
		c1.619,0.01,3.302-0.292,5.099,0.501c0,12.598,0,25.181,0,37.708c-1.278,1.018-2.668,0.615-3.941,0.618
		c-21.496,0.056-42.991,0.065-64.487,0.089c-11.637,0.013-22.334-3.27-32.022-9.593c-13.973-9.12-20.688-22.557-22.208-38.828
		c-0.371-3.97-0.25-7.991-0.253-11.989c-0.018-23.162-0.007-46.324-0.005-69.487c0-1.151,0-2.301,0-4.183
		c-16.538-0.665-32.928-0.051-49.561-0.396c0-12.849,0-25.421,0-38.249c16.314-2.206,32.779,0.381,49.482-1.106
		c0-18.551,0-36.832,0-55.444c13.107,0,25.836,0,39.129,0C1430.888,36.271,1430.888,54.824,1430.888,73.951z"/>
	<path style="fill:#E92829;" d="M604.945,73.619c12.117,0,24.041,0,36.545,0c0,43.11,0,85.989,0,129.291
		c7.646,0.014,14.344-1.645,20.786-4.289c10.618-4.359,19.568-11.23,27.805-19.093c16.092-15.363,27.915-33.78,38.042-53.387
		c8.097-15.677,14.705-31.951,19.228-49.037c0.293-1.107,0.769-2.165,1.24-3.466c12.947,0,25.882,0,39.072,0
		c-1.462,6.649-3.704,12.877-5.774,19.144c-8.938,27.061-20.21,53.051-35.76,77.043c-12.857,19.838-27.648,37.936-47.22,51.621
		c-18.416,12.876-38.493,21.488-61.081,23.753c-4.314,0.433-8.616,0.69-12.934,0.942c-12.297,0.715-20.282-9.155-20.662-19.672
		c-0.024-0.665-0.007-1.333-0.006-1.999c0.053-48.308,0.1-96.616,0.178-144.925C604.405,77.74,604.075,75.891,604.945,73.619z"/>
	<path style="fill:#E92728;" d="M1072.036,1.032c11.949,0.02,23.898,0.039,35.847,0.059c0.212,8.308,0.592,16.616,0.609,24.924
		c0.108,52.627,0.134,105.254,0.193,157.88c0.002,1.998-0.022,4.001,0.112,5.992c0.55,8.143,5.911,13.648,14.028,14.036
		c5.468,0.262,10.959,0.05,16.808,0.05c0,13.961,0,27.666,0,41.636c-2.186,0.594-4.502,0.342-6.784,0.387
		c-6.67,0.13-13.401-0.23-19.859-1.54c-18.587-3.77-30.932-15.231-37.833-32.718c-2.846-7.212-3.852-14.811-3.857-22.486
		c-0.038-61.121,0.013-122.241,0.051-183.362C1071.354,4.25,1071.116,2.552,1072.036,1.032z"/>
	<path style="fill:#7C2E84;" d="M1.247,245.836c-0.08-1.993-0.228-3.986-0.229-5.979C1.001,203.385,1.003,166.913,0.99,130.44
		c-0.001-1.494-0.104-2.987-0.159-4.481c1.075-15.513,6.22-29.156,18.225-39.644c8.683-7.586,18.804-11.578,30.28-12.556
		c6.492-0.553,12.97-0.39,19.454-0.411c16.655-0.055,33.31-0.073,49.964,0.013c5.615,0.029,11.227,0.417,17.079,0.65
		c0,13.649,0,27.062,0,40.688c-1.683,0.861-3.538,0.414-5.292,0.416c-24.982,0.037-49.964,0.021-74.946,0.027
		c-12.711,0.003-17.61,4.753-17.626,17.409c-0.047,35.808-0.003,71.615-0.025,107.423c-0.001,1.791,0.364,3.632-0.461,5.721
		C25.459,246.192,13.351,245.863,1.247,245.836z"/>
	<path style="fill:#E92D2A;" d="M801.474,245.706c0-57.409,0-114.456,0-171.461c3.547-1.085,31.296-1.299,37.025-0.267
		c0,57.102,0,114.263,0,171.728C826.235,245.706,814.14,245.706,801.474,245.706z"/>
	<path style="fill:#E92728;" d="M801.505,1.377c12.409-0.584,24.822-0.333,37.234-0.135c0,12.119,0,24.239,0,36.843
		c-12.489,0.351-24.699,1.032-37.234,0.036C801.505,25.63,801.505,13.504,801.505,1.377z"/>
	<path style="fill:#2D2B2B;" d="M1545.392,238.858c0-7.403,0-14.182,0-21.187c4.43-1.106,8.689-0.433,12.843,0.511
		c2.988,0.679,4.516,4.186,3.459,7.25c-0.422,1.221-1.27,2.295-2.08,3.707c1.435,2.744,2.889,5.733,2.129,9.156
		c-1.053,0.971-2.126,0.789-3.549,0.157c-0.456-2.317,0.169-5.262-2.439-7.157c-1.801-0.546-3.749-0.641-5.888-0.037
		c-1.148,2.257,0.195,4.88-0.824,7.174C1548.015,239.436,1546.87,238.72,1545.392,238.858z M1556.503,226.822
		c1.39-1.46,2.124-2.937,0.787-4.509c-2.201-2.588-5.001-1.422-7.965-1.313c0.025,2.39-0.547,4.459,0.48,6.469
		C1552.297,228.202,1554.442,227.234,1556.503,226.822z"/>
	<path style="fill:#E3E2E1;" d="M1556.503,226.822c-2.062,0.411-4.206,1.38-6.699,0.647c-1.026-2.01-0.455-4.078-0.48-6.469
		c2.964-0.109,5.764-1.275,7.965,1.313C1558.627,223.885,1557.893,225.362,1556.503,226.822z"/>
</g>
</svg>
