<?xml version="1.0" encoding="iso-8859-1"?>
<!-- Generator: Adobe Illustrator 27.0.0, SVG Export Plug-In . SVG Version: 6.00 Build 0)  -->
<svg version="1.1" id="Layer_1" xmlns="http://www.w3.org/2000/svg" xmlns:xlink="http://www.w3.org/1999/xlink" x="0px" y="0px"
	 viewBox="0 0 1185.259 1842.551" style="enable-background:new 0 0 1185.259 1842.551;" xml:space="preserve">
<g>
	<path style="fill:#9BC0CC;" d="M1185.259,1840.551c-28.782,0-57.563,0-86.632,0c0-41.759,0-83.13,0-124.769
		c27.767,0,55.35,0,83.205,0c0.951,3.33,0.208,6.75,0.496,10.669c-23.753,0-47.138,0-70.786,0c0,14.91,0,29.296,0,44.056
		c21.149,0,42.072,0,63.191,0c0.965,4.045,0.498,7.763,0.431,11.833c-21.246,0-42.178,0-63.006,0
		c-1.109,3.875-1.471,35.874-0.568,47.211c24.514,0,49.091,0,73.667,0C1185.259,1833.218,1185.259,1836.884,1185.259,1840.551z"/>
	<path style="fill:#9CC0CD;" d="M673.259,1842.551c-1.937-2.246-4.659-0.828-6.986-1.4c-10.151-2.493-18.856-7.728-27.333-13.494
		c-2.039-1.387-4.262-2.601-5.632-5.12c1.546-3.081,3.016-6.356,5.617-9.009c2.309,0.77,3.398,2.824,5.174,4.016
		c8.74,5.87,17.987,9.954,28.667,11.3c7.892,0.995,15.513,0.957,22.975-1.357c7.892-2.447,13.514-7.507,15.124-16.083
		c1.071-5.705-0.13-10.684-4.166-15.106c-5.913-6.478-13.634-9.747-21.547-12.657c-8.647-3.179-17.412-6.04-26.117-9.064
		c-9.255-3.215-16.156-8.88-19.027-18.606c-2.53-8.568-2.537-17.139,2.547-24.691c4.226-6.278,10.503-10.701,17.522-13.486
		c7.539-2.991,15.566-4.66,23.697-4.072c9.005,0.651,17.982,2.085,26.559,5.045c3.709,1.28,7.223,3.289,10.014,6.49
		c-0.758,3.805-3.072,6.851-4.629,10.237c-3.167,0.172-5.63-1.23-8.174-2.335c-9.785-4.248-19.921-7-30.674-6.563
		c-7.075,0.288-13.552,2.516-19.196,6.966c-10.561,8.328-6.662,22.266,1.106,27.822c3.286,2.35,6.972,3.814,10.69,5.071
		c11.524,3.895,22.981,8.004,34.717,11.26c2.539,0.704,4.848,2.116,6.932,3.797c6.489,5.235,10.565,11.532,12.37,20.075
		c4.17,19.739-13.339,37.059-29.338,39.133c-2.914,0.378-6.22-0.098-8.894,1.83C681.259,1842.551,677.259,1842.551,673.259,1842.551
		z"/>
	<path style="fill:#9AC0CC;" d="M762.28,333.53c1.802,1.942,2.935,4.326,4.163,6.613c6.416,11.959,12.659,24.012,19.11,35.952
		c9.828,18.193,19.82,36.298,29.658,54.485c5.826,10.77,11.458,21.645,17.235,32.442c10.228,19.114,20.502,38.203,30.754,57.304
		c7.042,13.119,14.038,26.263,21.128,39.356c10.241,18.911,20.575,37.772,30.81,56.686c2.756,5.093,4.976,10.472,8.154,15.343
		c0.852,1.305,1.018,2.737,1.014,4.274c-0.018,7.948-0.753,15.826-1.885,23.689c-0.539,3.748-0.559,7.557-0.982,11.342
		c-1.079,9.655-2.667,19.223-3.955,28.836c-1.902,14.193-4.627,28.227-7.416,42.237c-1.855,9.319-4.182,18.573-6.362,27.839
		c-6.824,29.011-15.456,57.465-25.372,85.544c-6.369,18.034-13.35,35.827-21.091,53.326c-5.55,12.546-11.038,25.131-17.347,37.304
		c-10.349,19.967-21.12,39.696-33.134,58.753c-12.26,19.446-25.184,38.417-39.205,56.604c-6.353,8.24-12.645,16.588-19.796,24.212
		c-1.531,1.633-3.172,3.375-3.615,5.772c-0.562,0.134-0.878,0.482-0.927,1.063c-0.62,0.07-0.937,0.42-0.964,1.04
		c-0.357,0.12-1.091,0.003-0.468,0.742c0.157-0.246,0.315-0.491,0.473-0.737c0.576-0.077,0.927-0.394,1.032-0.972
		c0.55-0.089,0.9-0.402,1.049-0.939c3.155-0.595,5.025-3.25,7.142-5.121c7.456-6.589,15.366-12.67,22.292-19.876
		c7.47-7.771,15.285-15.211,22.816-22.925c10.079-10.325,19.181-21.483,28.128-32.804c11.086-14.029,21.486-28.52,31.204-43.511
		c7.377-11.38,14.285-23.044,20.905-34.881c5.333-9.537,10.672-19.078,15.367-28.943c10.287-21.615,20.011-43.46,28.263-65.971
		c5.501-15.008,10.747-30.095,15.337-45.383c5.525-18.403,10.449-36.987,14.484-55.794c2.792-13.011,5.349-26.06,7.33-39.221
		c0.019-0.124,0.207-0.222,0.694-0.712c2.015,2.59,3.494,5.418,4.996,8.238c8.636,16.219,17.267,32.442,25.935,48.645
		c6.714,12.548,13.474,25.072,20.224,37.601c9.578,17.778,19.171,35.548,28.748,53.325c6.829,12.675,13.645,25.358,20.464,38.038
		c9.8,18.222,19.593,36.449,29.4,54.667c4.387,8.148,8.803,16.28,13.286,24.569c-72.56,94.654-145.047,189.213-217.684,283.968
		c-1.773,0-3.59,0-5.407,0c-67.325,0-134.651-0.086-201.976,0.147c-6.048,0.021-11.075-1.713-15.867-4.699
		c-10.942-6.817-21.651-14.031-31.824-21.935c-12.407-9.639-24.794-19.315-36.862-29.394c-9.026-7.538-17.958-15.176-26.846-22.873
		c-9.278-8.035-18.433-16.196-27.531-24.433c-10.102-9.146-19.872-18.638-29.901-27.846c-13.995-12.85-27.379-26.306-40.462-40.032
		c-9.257-9.712-18.476-19.495-27.261-29.686c-10.06-11.671-19.978-23.424-29.187-35.774c-0.083-0.111-0.046-0.311-0.108-0.814
		c6.599-4.039,13.2-8.362,19.537-13.635c9.316,1.71,18.949,1.065,28.54,0.866c8.555-0.178,17.045-1.469,25.543-2.625
		c8.488-1.154,16.88-2.724,25.304-4.2c13.14-2.303,25.945-5.916,38.756-9.504c11.784-3.301,23.207-7.63,33.948-13.527
		c12.482-6.853,24.344-14.647,35.439-23.635c4.904-3.973,9.691-8.117,14.11-12.528c14.653-14.623,26.489-31.333,34.775-50.392
		c3.744-8.612,6.794-17.49,8.855-26.673c0.23-1.025,0.371-1.954,1.602-2.377c2.868,11.13,5.075,22.338,6.6,33.746
		c1.301,9.729,1.49,19.446,1.986,29.194c0.429,8.433-0.463,16.803-0.212,25.209c0.208,6.953-1.217,13.797-1.757,20.694
		c-0.516,6.592-1.405,13.122-2.279,19.654c-0.893,6.674-2.117,13.309-3.386,19.925c-2.105,10.965-4.437,21.888-6.484,32.863
		c-0.351,1.881-1.832,3.67-0.758,5.876c15.051-18.089,28.37-37.314,40.688-57.292c10.624-17.23,19.758-35.228,28.536-53.416
		c6.743-13.97,12.412-28.416,18.019-42.881c4.884-12.6,9.026-25.455,13.027-38.34c4.92-15.845,8.942-31.944,12.585-48.148
		c2.342-10.415,4.334-20.898,6.589-31.328c1.561-7.22,2.19-14.639,3.284-21.962c0.922-6.176,2.297-12.315,2.745-18.523
		c0.31-4.294,0.737-8.601,1.39-12.803c0.813-5.231,0.115-10.597,1.684-15.717c0.096-0.312,0.122-0.664,0.096-0.991
		c-0.49-6.164,0.755-12.236,1.194-18.334c0.776-10.787,0.137-21.627,1.104-32.339c1.112-12.315,0.988-24.615,0.467-36.855
		c-0.41-9.623-0.165-19.262-0.835-28.854c-0.727-10.396-1.216-20.815-2.101-31.182c-0.755-8.845-1.498-17.725-2.56-26.565
		c-0.864-7.189-1.462-14.454-2.366-21.642c-1.066-8.469-2.368-16.933-3.565-25.388c-1.315-9.289-2.979-18.516-4.362-27.79
		c-1.429-9.585-3.291-19.11-5.152-28.624c-2.175-11.119-4.372-22.24-6.894-33.283c-2.925-12.806-6.279-25.513-9.308-38.296
		c-1.019-4.301-2.949-8.44-2.59-13.02L762.28,333.53z"/>
	<path style="fill:#9BC0CC;" d="M84.983,960.974c9.725-17.691,19.015-34.488,28.201-51.341c5.466-10.028,10.73-20.165,16.151-30.218
		c8.64-16.022,17.329-32.017,26.019-48.011c0.542-0.998,1.103-2.068,2.485-2.4c14.064,109.012,64.396,198.922,143.898,273.466
		c1.138,1.067,2.089,2.727,4.36,1.746c0.084-2.033-1.527-3.282-2.488-4.581c-12.905-17.439-24.374-35.786-35.202-54.568
		c-8.116-14.078-15.369-28.591-22.387-43.224c-6.567-13.693-12.242-27.784-17.557-41.999c-5.535-14.801-10.476-29.818-14.549-45.098
		c-3.257-12.219-6.433-24.46-8.674-36.921c-1.57-8.727-3.635-17.388-4.718-26.172c-0.785-6.374-1.637-12.765-2.451-19.129
		c-1.216-9.502-1.155-19.1-2.678-28.56c-0.341-2.115-0.109-4.325-0.111-6.491c-0.011-11.832,0.033-23.664-0.055-35.495
		c-0.019-2.599,0.678-4.763,2.01-7c2.961-4.971,5.617-10.125,8.368-15.219c7.472-13.836,14.919-27.686,22.395-41.52
		c8.654-16.015,17.327-32.02,25.996-48.027c4.334-8.003,8.667-16.008,13.029-23.996c0.778-1.425,1.7-2.772,3.166-5.141
		c0.055,4.06,0.467,7.109-0.35,10.018c-0.514,1.832-0.548,3.604-0.551,5.41c-0.025,15.331-0.345,30.674,0.158,45.989
		c0.21,6.375,0.458,12.838,1.592,19.216c0.688,3.868,0.638,7.88,1.075,11.831c0.779,7.041,2.154,13.995,2.903,21.01
		c1.279,11.981,4.068,23.662,6.405,35.418c2.239,11.262,5.329,22.366,8.325,33.463c3.777,13.986,8.311,27.747,13.186,41.388
		c4.773,13.354,9.945,26.549,15.603,39.564c6.134,14.112,12.448,28.132,19.61,41.752c9.547,18.155,19.57,36.034,30.444,53.447
		c13.672,21.895,28.597,42.907,44.051,63.548c5.946,7.942,12.466,15.457,18.783,23.118c8.963,10.87,18.088,21.592,27.685,31.926
		c3.154,3.396,6.348,6.781,9.441,10.245c10.095,11.305,20.841,21.979,31.716,32.513c10.26,9.938,20.596,19.821,31.309,29.263
		c12.166,10.723,24.444,21.322,37.096,31.497c12.243,9.845,24.536,19.611,37.004,29.172c6.436,4.935,13.084,9.552,19.612,14.345
		c0.65,0.477,1.344,1,1.426,2.116c-107.962,0-215.874,0-324.125,0C230.111,1151.95,157.535,1056.446,84.983,960.974z
		 M308.256,1107.553c0.175,0.29,0.089,1.098,0.768,0.387c-0.254-0.13-0.508-0.261-0.762-0.391c0.052-0.627,0.106-1.254-0.57-1.684
		C306.883,1106.766,307.439,1107.201,308.256,1107.553z"/>
	<path style="fill:#9BC0CC;" d="M452.28,978.568c3.03-3.538,7.032-5.918,10.605-8.799c5.669-4.57,11.544-8.886,16.723-14.036
		c4.005-3.982,8.497-7.415,12.471-11.456c13.751-13.982,26.35-28.875,36.536-45.675c8.605-14.192,15.259-29.275,19.264-45.418
		c3.293-13.272,4.397-26.853,3.198-40.418c-1.146-12.975-4.251-25.594-9.833-37.536c-4.933-10.553-10.985-20.213-18.651-29.087
		c-17.434-20.18-39.482-32.192-65.051-38.33c-3.5-0.84-7.197-0.847-10.799-1.277c-1.088-0.13-2.342,0.427-3.413-0.922
		c2.335-4.069,6.307-6.549,9.866-9.362c7.858-6.211,16.599-10.96,26.264-13.566c9.564-2.579,19.225-3.984,29.325-2.366
		c8.356,1.338,16.393,3.402,24.3,6.265c2.97,1.076,5.401,3.133,8.39,4.203c1.836,0.657,3.306,0.79,5.206,0.138
		c5.595-1.917,11.173-3.896,17.109-4.699c7.674-1.038,15.186-2.088,23.083-0.932c7.728,1.131,15.263,2.732,22.485,5.445
		c11.987,4.503,22.879,11.157,33.162,18.722c8.939,6.577,17.264,13.918,25.577,21.281c10.531,9.327,20.856,18.904,32.148,27.359
		c9.348,7,18.484,11.151,30.026,12.881c-1.879,3.747-4.923,6.169-7.982,8.553c-4.421,3.446-9.675,4.875-15.029,5.986
		c-10.983,2.279-21.642,0.089-32.186-2.667c-6.19-1.618-12.256-3.734-18.119-6.286c-1.186,1.628-0.422,2.933-0.022,4.374
		c1.949,7.004,3.325,14.125,3.312,21.424c-0.006,3.332,1.152,6.474,1.006,9.85c-0.815,18.91-3.956,37.32-11.236,54.893
		c-7.317,17.662-17.925,33.044-31.316,46.712c-12.419,12.677-26.475,22.964-41.911,31.579c-20.904,11.665-43.31,19.31-66.438,24.924
		c-10.365,2.516-20.884,4.68-31.459,5.967c-8.824,1.074-17.659,2.87-26.653,2.235L452.28,978.568z"/>
	<path style="fill:#9BC0CC;" d="M616.197,191.619c-0.148,3.936,0.629,7.358-0.734,10.718c-0.295,0.728-0.116,1.645-0.171,2.475
		c-1.204,18.096-1.092,36.219-1.071,54.34c0.006,4.999-0.087,10.002,0.064,14.997c0.264,8.754,1.117,17.472,1.765,26.202
		c0.514,6.928,1.364,13.802,2.29,20.655c1.693,12.536,4.344,24.891,7.651,37.127c3.974,14.703,9.428,28.84,15.979,42.515
		c6.363,13.283,13.961,25.927,22.733,37.786c8.078,10.92,16.819,21.292,25.992,31.339c5.164,5.656,10.326,11.32,15.955,16.459
		c10.397,9.494,20.802,18.98,31.523,28.134c9.703,8.285,20.036,15.759,29.637,24.146c1.979,1.729,4.208,3.17,6.25,4.692
		c0.757,12.223,1.681,24.264,2.477,36.307c0.77,11.642,0.42,23.244,0.744,34.859c0.102,3.645,1.406,7.164,0.913,10.852
		c-1.616,12.079-0.33,24.25-1.082,36.341c-0.616,9.898-1.087,19.827-2.049,29.682c-1.038,10.635-2.212,21.28-3.546,31.898
		c-1.334,10.619-2.773,21.244-4.519,31.774c-1.768,10.664-3.495,21.397-6.309,31.885c-0.719,2.678-1.118,5.442-1.799,8.844
		c-2.026-6.367-2.454-12.359-3.541-18.201c-2.558-13.744-5.885-27.259-9.854-40.675c-5.678-19.193-13.119-37.647-21.41-55.815
		c-7.979-17.483-17.131-34.329-26.543-51.076c-13.208-23.501-27.582-46.291-41.421-69.406
		c-10.532-17.591-21.174-35.098-31.025-53.095c-14.161-25.87-26.434-52.529-35.167-80.72c-3.79-12.234-6.965-24.649-8.763-37.388
		c-1.151-8.156-2.26-16.295-3.109-24.5c-1.359-13.138-1.232-26.288-0.521-39.342c0.721-13.254,2.655-26.473,5.436-39.556
		c3.633-17.092,8.304-33.844,14.212-50.268c3.965-11.025,8.373-21.876,13.305-32.5C612.201,199.41,613.235,195.354,616.197,191.619z
		"/>
	<path style="fill:#9BC0CC;" d="M339.916,870.929c-5.539-11.517-10.275-22.412-14.499-33.501
		c-3.69-9.688-6.963-19.546-10.109-29.427c-5.485-17.224-10.237-34.658-14.021-52.341c-2.371-11.083-4.549-22.195-6.159-33.433
		c-1.565-10.926-2.849-21.866-4.073-32.833c-1.605-14.389-1.898-28.767-1.82-43.193c0.002-0.315,0.147-0.628,0.256-1.066
		c2.453-1.983,5.66-2.564,8.591-3.331c9.757-2.553,19.066-6.315,28.406-9.975c12.625-4.946,25.03-10.447,36.94-16.945
		c15.547-8.482,30.366-18.083,44.266-29.12c9.503-7.545,18.668-15.432,27.009-24.235c11.866-12.523,22.518-26.011,31.478-40.778
		c8.592-14.16,15.836-28.951,21.402-44.602c3.092-8.697,5.768-17.484,8.039-26.405c2.068-8.122,3.432-16.387,4.688-24.675
		c1.215-8.022,1.665-16.081,2.207-24.162c0.344-5.122,0.691-10.235,0.642-15.358c-0.033-3.438-1.559-6.798-0.57-10.704
		c3.714,7.964,6.142,16.07,8.525,24.139c3.021,10.23,5.743,20.561,7.453,31.128c1.051,6.495,1.945,13.004,2.836,19.52
		c1.384,10.126,0.701,20.237,0.847,30.351c0.201,13.937-2.201,27.583-5.277,41.106c-5.387,23.685-14.974,45.757-26.623,66.927
		c-10.763,19.56-23.014,38.204-36.192,56.24c-8.284,11.337-16.253,22.904-24.489,34.277c-9.305,12.851-18.208,25.978-27.045,39.148
		c-13.855,20.649-25.902,42.347-36.307,64.914c-8.077,17.52-14.496,35.656-19.225,54.415c-2.13,8.449-3.811,16.974-5.705,25.462
		C340.83,864.973,341.815,867.753,339.916,870.929z"/>
	<path style="fill:#9BC0CC;" d="M580.418,471.505c-2.805-2.175-4.03-5.539-5.766-8.405c-10.719-17.699-20.959-35.676-29.754-54.427
		c-10.873-23.182-19.661-47.145-25.381-72.109c-2.272-9.915-3.392-20.096-4.465-30.27c-1.106-10.481-0.597-20.912-0.738-31.361
		c-0.102-7.603,1.635-15.03,2.741-22.527c1.741-11.798,4.966-23.15,8.997-34.297c5.568-15.394,12.295-30.25,20.109-44.677
		c8.196-15.132,17.013-29.905,25.262-45.004c8.341-15.265,16.067-30.743,21.136-47.446c2.298-7.573,3.714-15.287,4.885-23.115
		c0.845-5.65,0.889-11.246,0.761-16.86c-0.3-13.107-3.055-25.79-7.322-38.155c-0.271-0.786-0.681-1.508-0.584-2.367
		c0.017-0.154,0.147-0.296,0.248-0.486c1.479,0.155,2.172,1.414,2.885,2.387c8.934,12.194,16.671,25.041,21.009,39.668
		c1.871,6.309,3.103,12.72,4.025,19.273c1.03,7.324,0.926,14.598,0.654,21.86c-0.383,10.215-2.725,20.185-5.223,30.081
		c-4.08,16.162-10.028,31.694-16.116,47.169c-4.646,11.812-9.432,23.569-14.194,35.335c-10.204,25.211-19.027,50.885-25.026,77.432
		c-1.952,8.636-3.473,17.399-4.455,26.254c-0.838,7.556-1.42,15.117-2.12,22.671c-0.554,5.979-1.02,11.957-0.547,17.855
		c0.673,8.397,0.717,16.818,1.576,25.22c0.873,8.534,1.937,17.035,3.365,25.466c1.616,9.543,3.989,18.95,6.561,28.301
		c4.2,15.271,9.792,30.051,15.46,44.809c0.652,1.697,1.572,3.292,2.378,4.929C581.231,469.627,581.61,470.529,580.418,471.505z"/>
	<path style="fill:#9BC0CC;" d="M658.116,1580.086c0,25.691,0,50.299,0,75.168c-10.22,0-20.147,0-30.081,0
		c-0.894-3.429-1.148-118.798-0.269-124.58c3.146-1.284,19.715-1.694,29.091-0.721c18.805,24.833,37.61,49.667,56.415,74.5
		c0.296-0.141,0.592-0.282,0.888-0.424c0-24.562,0-49.125,0-74.047c10.208,0,20.09,0,29.796,0c1.458,1.074,1.198,2.467,1.226,3.781
		c0.853,39.299,0.255,117.773-1.026,121.463c-9.33,0-18.769,0-29.045,0C696.627,1630.859,677.781,1606.012,658.116,1580.086z"/>
	<path style="fill:#9BC0CC;" d="M235.006,1655.248c-11.15,0-22.236,0-33.818,0c-3.395-6.713-5.453-14.177-8.53-21.517
		c-17.951,0-36.032,0-54.292,0c-3.366,6.991-5.472,14.441-8.484,21.606c-11.48,0-22.75,0-33.864,0
		c-0.274-0.246-0.425-0.333-0.501-0.464c-0.081-0.138-0.151-0.331-0.12-0.477c0.134-0.631,0.223-1.291,0.477-1.875
		c17.881-40.953,35.775-81.9,53.639-122.778c11.264,0,22.061,0,32.83,0C184.635,1533.358,233.771,1650.378,235.006,1655.248z
		 M182.111,1608.22c-0.34-4.508-13.433-39.566-16.415-43.948c-5.977,14.693-11.827,29.074-17.877,43.948
		C159.636,1608.22,170.694,1608.22,182.111,1608.22z"/>
	<path style="fill:#9BC0CC;" d="M507.616,1633.643c-2.711,7.13-5.391,14.18-8.179,21.514c-10.97,0-21.859,0-33.509,0
		c8.69-21.307,18.166-41.901,27.039-62.745c8.851-20.791,18.053-41.433,27.233-62.443c10.882,0,21.795,0,33.511,0
		c17.432,41.418,34.995,83.146,52.732,125.286c-12.118,0-23.716,0-35.668,0c-4.067-6.52-5.139-14.62-8.985-21.613
		C543.875,1633.643,526.075,1633.643,507.616,1633.643z M552.471,1608.236c-5.674-15.201-11.082-29.692-16.609-44.499
		c-1.655,2.979-17.174,40.374-17.565,42.373c-0.117,0.598,0.094,1.26,0.178,2.126
		C529.695,1608.236,540.754,1608.236,552.471,1608.236z"/>
	<path style="fill:#9BC0CC;" d="M1080.345,1545.718c-6.59,7.169-12.379,14.861-19.421,21.696c-4.334,0.322-7.795-1.935-11.345-4.007
		c-7.231-4.223-14.855-7.277-23.418-6.834c-15.932,0.825-27.157,9.713-30.782,25.202c-2.585,11.048-1.137,21.574,5.494,31.2
		c5.398,7.836,13.139,11.433,22.112,12.535c13.377,1.643,24.537-3.728,34.606-11.954c0.366-0.299,0.499-0.867,0.832-1.225
		c0.32-0.343,0.759-0.574,1.043-0.78c1.713-0.003,2.606,1.154,3.328,2.176c4.436,6.282,10.847,10.749,15.378,16.92
		c0.315,0.429,0.041,1.289,0.041,1.83c-7.253,7.34-15.738,12.687-24.9,17.077c-10.082,4.831-20.766,6.839-31.786,5.844
		c-18.06-1.63-33.434-9.189-44.983-23.302c-7.188-8.784-11.683-18.972-13.447-30.425c-0.948-6.156-1.224-12.291-0.677-18.335
		c1.26-13.917,5.696-26.705,15.587-37.113c5.742-6.042,11.712-11.808,19.461-15.228c8.656-3.819,17.67-6.18,27.21-6.477
		c9.83-0.305,19.492,0.262,28.75,3.982c7.866,3.161,15.387,6.933,21.809,12.568
		C1076.842,1542.476,1079.111,1543.103,1080.345,1545.718z"/>
	<path style="fill:#9CC1CD;" d="M804.312,1557.484c-12.695,0-24.633,0-36.825,0c0-9.278,0-18.207,0-27.502
		c35.871,0,71.747,0,108.211,0c1.055,8.586,0.198,17.168,0.56,26.369c-4.272,0.058-8.355,0.135-12.438,0.162
		c-4.165,0.028-8.33,0.006-12.496,0.006c-4.142,0-8.284,0-12.958,0c0,33.019,0,65.733,0,98.721c-11.458,0-22.383,0-34.047,0
		c-0.002-8.019-0.005-16.106-0.006-24.193c-0.001-8.164,0-16.328,0-24.492c0-7.997,0-15.995,0-23.992
		C804.312,1574.434,804.312,1566.303,804.312,1557.484z"/>
	<path style="fill:#9CC1CD;" d="M233.351,1557.722c0-9.687,0-18.496,0-27.283c3.793-1.112,103.925-1.169,108.057-0.084
		c0.98,3.434,1.194,19.361,0.293,26.018c-12.2,0-24.464,0-37.259,0c0,33.095,0,65.811,0,98.835c-11.453,0-22.379,0-33.462,0
		c0.031,0.032-0.087-0.084-0.198-0.207c-0.11-0.121-0.289-0.239-0.305-0.374c-0.076-0.66-0.148-1.325-0.149-1.988
		c-0.051-31.32-0.094-62.639-0.147-93.959c0-0.145-0.121-0.29-0.419-0.958C257.945,1557.722,245.88,1557.722,233.351,1557.722z"/>
	<path style="fill:#9CC0CD;" d="M399.221,1627.634c17.96,0,35.219,0,52.734,0c0,9.282,0,18.207,0,27.144
		c-3.477,0.929-77.989,1.266-86.356,0.346c0-41.65,0-83.334,0-125.147c11.065,0,21.943,0,33.371,0
		c0.517,11.083,0.174,21.843,0.237,32.591c0.062,10.658,0.014,21.316,0.014,31.974
		C399.221,1605.339,399.221,1616.135,399.221,1627.634z"/>
	<path style="fill:#9CC0CD;" d="M972.188,1472.623c-11.993,0.495-24.312-3.468-35.768-10.141
		c-6.809-3.966-12.039-9.839-16.709-16.142c-6.007-8.106-9.68-17.292-11.276-27.151c-2.186-13.501-0.131-26.566,5.625-38.988
		c4.223-9.115,11.248-15.996,18.75-22.314c6.761-5.694,14.562-9.531,23.319-11.457c9.476-2.085,18.874-2.34,28.514-1.049
		c9.759,1.307,18.539,4.773,26.529,10.212c14.653,9.974,23.916,23.946,26.817,41.276c4.07,24.305-3.443,45.102-22.121,61.39
		c-8.228,7.175-18.206,11.052-28.857,13.338C982.571,1472.549,978.133,1472.495,972.188,1472.623z M1026.257,1409.057
		c-1.042-31.997-23.256-53.386-54.663-53.208c-29.152,0.165-50.833,23.178-51.041,51.984c-0.227,31.478,22.59,53.438,52.698,53.417
		C1004.497,1461.228,1024.655,1438.859,1026.257,1409.057z"/>
	<path style="fill:#9CC0CD;" d="M69.207,1798.177c9.708,13.8,19.439,27.634,29.5,41.937c-5.581,0.893-10.52,0.243-16.026,0.548
		c-9.397-12.624-17.409-26.496-26.584-39.881c-14.022,0-28.119,0-42.76,0c0,13.095,0,26.154,0,39.505c-4.456,0-8.386,0-12.348,0
		c-0.973-3.54-1.41-112.387-0.465-124.106c1.246-1.179,2.823-0.636,4.246-0.639c15.997-0.031,31.995-0.108,47.99,0.046
		c10.128,0.097,19.526,2.855,27.938,8.682c9.973,6.907,14.888,16.578,15.533,28.513c0.45,8.322-0.613,16.318-3.559,24.314
		c-3.458,9.384-9.952,14.921-18.789,18.398C72.347,1796.098,70.756,1796.501,69.207,1798.177z M13.397,1789.515
		c10.914,0,21.37,0.153,31.819-0.062c5.579-0.115,11.248-0.45,16.625-2.002c8.811-2.544,16.596-6.715,20.423-15.803
		c3.956-9.396,4.005-18.86,0.348-28.364c-1.167-3.032-3.151-5.429-5.674-7.41c-8.242-6.47-17.737-9.231-28.082-9.301
		c-10.48-0.07-20.961-0.034-31.442,0.002c-1.278,0.004-2.66-0.413-4.017,0.672C13.397,1747.693,13.397,1768.263,13.397,1789.515z"/>
	<path style="fill:#9BC0CC;" d="M933.892,1654.35c-10.913,0-21.513,0-32.401,0c0-41.557,0-82.911,0-124.505
		c10.83,0,21.426,0,32.024,0C934.458,1533.404,934.834,1644.81,933.892,1654.35z"/>
	<path style="fill:#9CC0CD;" d="M298.319,1414.52c1.201,3.595,0.836,7.58,0.841,11.538c0.013,12.829,0.022,25.657-0.016,38.486
		c-0.005,1.631,0.413,3.333-0.776,5.477c-3.474,1.027-7.424,0.267-11.28,0.393c-1.093-3.629-1.544-114.782-0.51-125.588
		c3.517-0.588,7.142-0.143,10.714-0.252c2.147,1.748,1.873,4.127,1.873,6.428c-0.001,14.995,0,29.989,0,44.984
		c0,1.642,0,3.283,0,5.26c25.705,0,51.097,0,77.03,0c0-18.706,0-37.426,0-56.417c4.458,0,8.388,0,12.338,0
		c0.906,3.421,1.249,117.174,0.324,125.363c-3.845,0.459-7.728,0.539-12.153-0.155c-0.857-9.514-0.255-18.946-0.366-28.349
		c-0.111-9.474-0.025-18.951-0.025-29.058c-25.55,0-50.803-0.008-76.057,0.034C299.426,1412.665,298.808,1413.416,298.319,1414.52z"
		/>
	<path style="fill:#9CC1CD;" d="M603.959,1829.397c0,4.18,0,7.449,0,10.95c-28.843,0-57.432,0-86.348,0c0-41.466,0-82.853,0-124.537
		c27.661,0,55.254,0,83.124,0c1.062,3.215,0.335,6.649,0.433,10.591c-23.58,0-46.969,0-70.645,0c0,14.923,0,29.31,0,44.071
		c21.107,0,42.038,0,63.153,0c0.997,4.047,0.489,7.773,0.464,11.857c-21.234,0-42.169,0-62.994,0
		c-1.147,3.858-1.524,35.609-0.613,47.068C554.867,1829.397,579.255,1829.397,603.959,1829.397z"/>
	<path style="fill:#9CC0CD;" d="M956.267,1840.5c-4.988-10.923-9.975-21.845-14.976-32.795c-23.273,0-46.237,0-69.554,0
		c-5.584,10.47-9.944,21.728-15.423,32.621c-4.581,0-9.012,0-13.405,0c-1.055-1.125,0.045-1.93,0.399-2.702
		c7.976-17.439,16.012-34.85,24.022-52.274c5.316-11.564,10.625-23.131,15.907-34.709c4.664-10.222,9.281-20.465,13.934-30.691
		c0.613-1.346,1.32-2.65,2.017-4.041c4.224-0.881,8.352-0.089,12.94-0.506c18.858,41.525,37.667,82.944,56.638,124.717
		C964.261,1840.89,960.486,1840.537,956.267,1840.5z M877.334,1797.281c19.923,0,39.321,0,59.539,0
		c-10.111-22.534-19.985-44.54-30.293-67.513C896.005,1752.587,887.213,1775.048,877.334,1797.281z"/>
	<path style="fill:#9CC0CD;" d="M373.621,1840.4c-4.472,0-8.097,0-12.222,0c-5.86-10.288-9.656-21.816-15.58-32.629
		c-22.94,0-46.043,0-69.55,0c-5.056,10.779-10.164,21.669-15.35,32.725c-4.578,0.052-8.986,0.362-13.988-0.29
		c19.061-41.687,37.939-82.973,56.911-124.464c4.077,0,8.208,0,13.152,0C335.629,1756.766,354.462,1798.224,373.621,1840.4z
		 M341.579,1797.282c-10.136-22.567-20.031-44.597-30.448-67.791c-9.917,23.141-19.398,45.266-29.051,67.791
		C301.934,1797.282,321.317,1797.282,341.579,1797.282z"/>
	<path style="fill:#9CC0CD;" d="M674.758,1344.631c4.415,0,8.405,0,12.918,0c18.862,41.531,37.812,83.256,56.823,125.116
		c-2.321,1.158-4.331,0.625-6.259,0.717c-1.814,0.087-3.635,0.019-6.042,0.019c-5.124-11.195-10.256-22.408-15.447-33.749
		c-23.011,0-45.969,0-69.425,0c-5.625,10.777-9.958,22.406-15.977,33.418c-4.296,0.529-8.535,0.477-12.825,0.047
		c-0.077-0.714-0.325-1.285-0.152-1.665C637.103,1427.322,655.865,1386.124,674.758,1344.631z M681.937,1357.147
		c-9.867,23.033-19.415,45.322-29.022,67.748c6.216,1.059,55.747,0.812,59.369-0.267
		C702.271,1402.362,692.275,1380.134,681.937,1357.147z"/>
	<path style="fill:#9BC0CC;" d="M218.198,1771.324c-0.136,3.943,0.339,7.074-0.332,9.965c-0.302,0.323-0.409,0.452-0.532,0.564
		c-0.121,0.11-0.243,0.25-0.39,0.294c-0.469,0.141-0.95,0.347-1.426,0.347c-20.483,0.017-40.966,0.015-61.387,0.015
		c-1.02,3.715-1.349,37.42-0.461,46.918c24.319,0,48.7,0,73.348,0c0,3.802,0,7.072,0,10.38c-3.569,1.065-71.249,1.527-85.038,0.551
		c-0.977-3.644-1.397-113.066-0.447-124.487c27.671,0,55.374,0,83.097,0c1.005,1.586,0.434,3.287,0.529,4.899
		c0.097,1.652,0.022,3.314,0.022,5.691c-6.058,0.198-11.981,0.062-17.895,0.087c-5.997,0.025-11.995,0.006-17.992,0.006
		c-5.831,0-11.662,0-17.493,0c-5.967,0-11.934,0-18.193,0c0,14.757,0,29.141,0,44.068c4.436,0,8.718,0,12.999,0
		c4.332,0,8.663,0,12.995,0c4.165,0,8.33,0,12.495,0c4.332,0,8.666-0.096,12.994,0.027
		C209.318,1770.768,213.629,1770.059,218.198,1771.324z"/>
	<path style="fill:#9CC1CD;" d="M874.002,1359.842c-1.802,3.095-3.845,5.812-6.82,7.909c-3.207-1.28-5.531-3.721-8.286-5.458
		c-8.274-5.217-17.123-8.143-26.931-8.898c-13.107-1.01-24.592,2.918-35.333,9.962c-4.254,2.79-7.303,6.705-10.327,10.645
		c-5.751,7.491-8.636,16.055-10.21,25.343c-2.268,13.388,1.831,25.265,8.376,36.297c4.875,8.217,12.783,13.697,21.236,18.148
		c9.619,5.066,19.743,5.649,30.341,4.049c6.91-1.043,13.657-2.288,19.857-5.594c2.605-1.389,5.296-2.742,7.415-5.347
		c0-12.497,0-25.12,0-38.041c3.327-0.499,6.378-0.338,9.671-0.159c0,15.287,0,30.228,0,45.475
		c-5.41,6.539-12.815,10.614-20.906,13.165c-8.801,2.775-17.868,4.732-27.241,4.178c-14.363-0.848-27.302-5.172-38.683-14.411
		c-9.743-7.91-16.059-17.896-20.208-29.44c-1.958-5.446-2.51-11.158-2.873-16.99c-0.724-11.634,1.408-22.534,6.604-32.848
		c4.475-8.883,11.179-15.864,18.963-22.011c8.265-6.527,17.635-10.444,27.848-11.973c4.755-0.712,9.759-0.537,14.679-0.479
		c7.041,0.083,13.815,1.161,20.44,3.268C860.043,1349.311,867.934,1353.02,874.002,1359.842z"/>
	<path style="fill:#9CC1CD;" d="M248.555,1361.555c-2.924,2.486-4.286,5.835-7.174,7.994c-4.606-2.846-8.609-6.322-13.344-8.731
		c-9.838-5.006-20.295-7.555-31.165-6.104c-11.037,1.473-21.421,5.122-29.741,13.26c-4.908,4.801-9.125,10.073-12.554,15.969
		c-2.514,4.323-4.092,9.059-4.272,14.07c-0.09,2.514-1.152,4.777-1.074,7.337c0.246,8.007,1.963,15.638,4.924,23.055
		c7.115,17.82,21.27,27.293,39.126,30.816c13.355,2.635,26.575,0.085,38.334-7.554c3.037-1.973,5.966-4.111,9.074-6.264
		c3.693,1.43,5.087,5.024,7.651,7.934c-4.466,4.275-9.608,7.427-14.815,10.52c-11.912,7.076-24.872,9.812-38.514,8.569
		c-11.718-1.068-22.416-5.415-31.805-12.58c-10.835-8.268-18.267-19.006-22.232-32.056c-3.742-12.315-3.629-24.665-0.309-37.096
		c3.851-14.423,12.601-25.167,24.242-34.082c6.847-5.243,14.413-8.731,22.675-10.556c8.422-1.86,16.951-2.116,25.604-0.729
		c6.723,1.078,13.302,2.442,19.453,5.287C238.326,1353.248,243.862,1356.252,248.555,1361.555z"/>
	<path style="fill:#9CC1CD;" d="M600.166,1359.998c0.659,4.884-4.396,5.973-5.607,9.796c-3.054-2.106-5.729-4.001-8.454-5.82
		c-11.152-7.445-23.598-10.92-36.751-9.217c-15.027,1.947-28.014,8.284-37.058,21.369c-4.983,7.209-8.783,14.813-9.836,23.459
		c-0.76,6.236-0.74,12.663,0.94,18.792c1.788,6.52,3.914,13.014,7.828,18.649c7.679,11.054,18.186,18.301,31.2,21.403
		c16.804,4.005,32.25,0.414,46.215-9.7c1.595-1.155,3.25-2.229,4.939-3.382c3.617,1.51,4.898,4.848,6.941,7.636
		c-2.143,4.303-6.4,5.882-9.849,8.276c-8.531,5.923-18.173,9.528-28.341,11.009c-7.348,1.07-15.014,1.035-22.266-0.979
		c-11.606-3.224-22.312-8.346-30.772-17.283c-8.834-9.331-14.912-20.078-17.094-32.909c-2.545-14.974-1.009-29.31,6.168-42.854
		c4.929-9.302,12.346-16.343,20.636-22.576c7.695-5.786,16.349-8.914,25.9-10.261c17.727-2.501,34.141,0.676,49.304,10.177
		C596.163,1356.805,597.929,1358.327,600.166,1359.998z"/>
	<path style="fill:#9CC1CD;" d="M799.425,1840.329c-4.812,0-8.741,0-13.019,0c0-37.858,0-75.46,0-113.618
		c-14.066,0-27.792,0-41.797,0c0-3.809,0-7.078,0-10.387c3.265-1.022,87.153-1.441,96.069-0.434
		c1.038,1.651,0.396,3.521,0.512,5.293c0.106,1.621,0.023,3.255,0.023,5.24c-14.055,0-27.656,0-41.788,0
		C799.425,1764.515,799.425,1802.234,799.425,1840.329z"/>
	<path style="fill:#9CC1CD;" d="M1012.442,1726.428c-14.482,0-28.083,0-41.91,0c0-3.639,0-6.907,0-10.546
		c32.063,0,64.098,0,96.193,0c0.837,1.64,0.376,3.326,0.45,4.945c0.076,1.65,0.017,3.305,0.017,5.524c-13.926,0-27.647,0-41.9,0
		c0,38.279,0,75.998,0,113.974c-4.461,0-8.389,0-12.849,0C1012.442,1802.601,1012.442,1764.877,1012.442,1726.428z"/>
	<path style="fill:#9AC0CC;" d="M406.559,1715.7c3.914,0,7.517,0,11.622,0c0,37.877,0,75.576,0,113.808c18.869,0,37.247,0,55.846,0
		c0,3.798,0,7.068,0,10.708c-22.377,0-44.748,0-67.468,0C406.559,1798.927,406.559,1757.565,406.559,1715.7z"/>
	<path style="fill:#9EC1CD;" d="M451.893,1470.266c-4.282,0-8.21,0-12.375,0c0-41.794,0-83.352,0-125.466
		c3.924-0.504,7.984-0.25,12.375-0.108C451.893,1386.536,451.893,1428.214,451.893,1470.266z"/>
	<path style="fill:#9AC0CC;" d="M762.235,333.57c-0.869-0.335-1.207-0.827-0.509-1.649c0.616,0.41,0.524,1.03,0.553,1.609
		L762.235,333.57z"/>
	<path style="fill:#9BC0CC;" d="M452.24,978.529c-0.125,0.235-0.25,0.47-0.375,0.705c-0.632-0.701,0.221-0.479,0.415-0.667
		C452.28,978.568,452.24,978.529,452.24,978.529z"/>
	<polygon style="fill:#9BC0CC;" points="583.008,475.046 582.668,475.195 582.7,474.84 	"/>
	<path style="fill:#9BC0CC;" d="M581.736,473.335c-0.082-0.107-0.233-0.219-0.225-0.319c0.008-0.101,0.175-0.188,0.272-0.281
		c0.082,0.107,0.235,0.22,0.227,0.32S581.834,473.242,581.736,473.335z"/>
</g>
</svg>
