<?xml version="1.0" encoding="iso-8859-1"?>
<!-- Generator: Adobe Illustrator 27.0.0, SVG Export Plug-In . SVG Version: 6.00 Build 0)  -->
<svg version="1.1" id="Layer_1" xmlns="http://www.w3.org/2000/svg" xmlns:xlink="http://www.w3.org/1999/xlink" x="0px" y="0px"
	 viewBox="0 0 1183 270" style="enable-background:new 0 0 1183 270;" xml:space="preserve">
<g>
	<path style="fill:#07ABC8;" d="M50.976,38.035c6.624,2.022,12.953,4.919,19.775,6.376c8.037,1.717,16.047,2.292,24.169,0.672
		c1.855-0.37,3.433-1.21,5.028-2.072c8.354-4.514,17.189-7.71,26.585-9.904c1.49,2.901-0.065,5.545-0.552,8.167
		c-2.019,10.872-4.193,21.714-6.297,32.501c-4.705,3.482-9.716,6.085-14.078,9.727c-13.11,10.947-20.473,24.775-22.808,41.672
		c-1.485,10.749-0.857,21.199,2.55,31.384c4.574,13.67,13.288,24.286,24.955,32.701c13.649,9.845,28.812,14.158,45.466,12.628
		c12.995-1.193,24.687-6.137,35.014-14.157c14.189-11.019,22.642-25.648,24.965-43.25c3.304-25.04-4.392-46.174-24.638-62.134
		c-3.002-2.367-5.872-4.847-9.358-6.543c-2.546-1.238-3.852-3.527-4.389-6.31c-2.311-11.968-4.663-23.929-7.034-36.066
		c2.726-1.021,5.013,0.447,7.274,1.068c6.229,1.71,12.27,4.02,18.081,6.865c3.642,1.783,7.454,2.67,11.5,2.712
		c8.128,0.083,16.262,0.573,24.208-1.948c3.483-1.105,6.938-2.183,10.088-4.067c0.961-0.575,1.822-1.519,3.425-0.555
		c-2.154,5.054-4.246,10.205-5.518,15.625c-2.577,10.978-3.793,21.908,1.546,32.493c3.6,7.138,7.867,13.888,13.189,19.851
		c8.482,9.503,18.27,17.398,29.823,22.955c4.645,2.234,9.567,3.65,14.818,5.004c-3.202,2.207-6.802,3.034-10.095,4.497
		c-13.508,6-25.699,13.901-35.738,24.832c-6.578,7.163-9.992,15.954-11.938,25.328c-2.801,13.494-0.505,26.339,5.29,38.69
		c0.595,1.267,1.763,2.384,1.358,4.332c-2.26-0.063-4.114-1.159-6.038-1.933c-10.102-4.066-20.577-6.156-31.478-6.097
		c-3.719,0.02-7.219,0.825-10.487,2.612c-6.559,3.588-13.552,6.123-20.509,8.813c-15.23,5.889-24.692,17.34-29.944,32.523
		c-0.313,0.904-0.134,1.978-0.184,2.972c-0.667,0-1.333,0-2,0c0.406-1.717-0.221-3.223-0.818-4.799
		c-2.733-7.206-6.848-13.531-11.654-19.527c-4.717-5.885-10.393-10.172-17.687-12.148c-2.569-0.696-5.068-1.533-7.427-2.728
		c-13.68-6.931-27.925-7.137-42.539-3.821c-4.571,1.037-8.383,3.847-12.853,5.046l-0.056-0.057
		c-0.432-2.137,0.767-3.894,1.529-5.666c4.546-10.569,6.403-21.557,5.639-33.026c-0.134-2.016-0.438-3.894-1.371-5.735
		c-7.622-15.034-17.51-28.239-31.144-38.354C20.024,142.809,10.694,137.89,0,136c0-0.333,0-0.667,0-1
		c10.865-4.096,21.368-8.892,30.726-15.898c8.812-6.597,17.125-13.692,22.18-23.765c3.22-6.418,4.948-13.227,5.245-20.466
		c0.446-10.874-0.332-21.469-5.086-31.499c-0.811-1.712-2.708-3.108-2.026-5.405L50.976,38.035z"/>
	<path style="fill:#81BD43;" d="M150,0c-1.128,3.723,0.582,7.173,1.282,10.636c7.069,34.966,14.327,69.894,21.524,104.834
		c1.606,7.798,3.195,15.6,4.761,23.407c0.187,0.931,0.694,1.91-0.009,2.856c-26.719-6.771-34.57-5.286-56.349,0.229
		c-1.042-3.388,0.49-6.547,1.095-9.658c6.516-33.56,13.196-67.087,19.856-100.619c1.874-9.437,3.85-18.853,5.71-28.292
		C148.084,2.305,148.606,1.151,148,0C148.667,0,149.333,0,150,0z"/>
	<path style="fill:#8299A6;" d="M1183,91c-2.059,2.06-2.905,5.044-5.491,6.756c-7.735,5.119-18.33,1.453-20.347-5.792
		c0.616,0.012,1.231,0.024,1.847,0.035c1.19,0.475,1.282,1.822,2.119,2.628c5.146,4.95,14.251,4.737,18.174-2.345
		c2.3-4.153,1.985-8.172-0.245-12.173c-2.149-3.857-5.531-5.228-9.863-5.315c-3.868-0.078-6.46,2.002-9.12,4.219
		c-0.653,0.01-1.306,0.019-1.958,0.029c5.859-8.029,15.655-8.558,22.151-1.294c0.948,1.061,1.209,2.696,2.732,3.253
		C1183,84.333,1183,87.667,1183,91z"/>
	<path style="fill:#698895;" d="M850.914,196.325c-6.561,0.258-12.823-1.08-18.646,0.438c-2.675-0.965-2.17-2.99-2.172-4.761
		c-0.018-11.999,0.017-23.997-0.019-35.996c-0.023-7.644,0.397-15.312-1.006-22.898c-0.21-1.136-0.32-2.299-0.62-3.41
		c-2.501-9.286-7.689-12.354-17.362-11.056c-4.306,0.578-8.472,1.553-12.619,2.679c-1.547,0.42-3.161,1.029-4.833,2.592
		c1.775,23.684,1.125,47.751,1.296,71.713c-3.528,2.074-6.921,0.931-10.148,1.127c-3.306,0.201-6.634,0.045-9.739,0.045
		c-1.642-1.623-1.013-3.387-1.022-4.965c-0.084-13.997-0.114-27.995-0.121-41.992c-0.003-6.654-0.645-13.241-1.852-19.777
		c-1.252-6.781-4.858-11.246-13.336-11.291c-7.316-0.039-14.104,1.538-20.362,4.544c-1.69,2.168-1.564,4.478-1.119,6.506
		c0.691,3.155,0.541,6.285,0.553,9.429c0.067,17.164,0.102,34.327,0.112,51.491c0.001,1.789,0.383,3.654-0.485,5.283
		c-3.386,1.039-14.122,1.297-19.823,0.516c-0.985-1.107-0.641-2.495-0.686-3.787c-0.975-27.961-0.666-55.934-0.701-83.903
		c-0.002-1.333,0.014-2.666-0.001-3.999c-0.01-0.878,0.274-1.624,1.202-2.549c6.099,0,12.515,0,18.857,0
		c1.367,1.27,0.219,3.048,1.231,4.428c0.371-0.02,0.889,0.09,1.271-0.09c2.253-1.063,4.416-2.331,6.714-3.276
		c10.905-4.487,21.861-5.088,32.843-0.202c2.632,1.171,4.541,3.314,6.544,4.882c2.129,0.527,3.502-0.645,4.925-1.384
		c11.742-6.102,24.331-8.063,37.25-6.462c12.075,1.496,17.371,7.957,20.822,18.712c1.831,5.706,2.161,11.697,2.908,17.599
		c0.229,1.808,0.14,3.661,0.141,5.493C850.917,159.821,850.914,177.638,850.914,196.325z"/>
	<path style="fill:#688795;" d="M342.649,68.997c2.807,0,5.947,0,9.088,0c14.827,0,29.656-0.14,44.48,0.051
		c9.303,0.12,17.969,2.567,25.598,8.242c6.658,4.953,9.998,11.923,11.816,19.607c2.33,9.847,2.094,19.781-0.909,29.52
		c-2.652,8.601-7.683,15.364-15.783,19.613c-0.746,0.391-1.447,0.808-2.296,2.313c6.326,16.187,13.994,32.421,20.906,49.759
		c-3.452,0-6.084-0.068-8.71,0.018c-2.973,0.097-5.922-0.132-8.925,0.513c-4.345,0.934-5.913-0.062-7.68-4.341
		c-4.807-11.637-9.492-23.325-14.245-34.984c-0.809-1.984-1.712-3.928-2.719-6.226c-9.962-0.676-19.839-0.015-30.16-0.125
		c0,15.445,0,30.366,0,45.615c-7.022,0-13.611,0-20.385,0c-1.348-1.409-0.693-3.341-0.697-5.082
		c-0.076-28.987,0.124-57.977-0.246-86.96c-0.136-10.628-0.623-21.261-0.551-31.899C341.24,73.021,340.726,71.281,342.649,68.997z
		 M363.227,133.81c1.125,1.255,2.507,1.038,3.821,1.045c2.832,0.014,5.665,0.036,8.497-0.002c6.968-0.094,13.943,0.329,20.894-0.71
		c5.928-0.887,10.714-3.302,13.603-8.796c3.341-6.353,4.119-12.89,3.244-20.129c-1.396-11.547-8.606-18.041-20.25-18.191
		c-9.326-0.12-18.655-0.021-27.982-0.015c-0.838,0.001-1.669,0.046-2.891,1.563C362.31,103.175,361.487,118.562,363.227,133.81z"/>
	<path style="fill:#688795;" d="M539.364,102.996c1.727,0,3.04,0,4.354,0c4.982,0,9.964,0,14.51,0
		c2.091,1.33,1.156,3.382,2.07,4.866c5.081-2.27,9.787-5.064,15.277-6.097c10.314-1.94,20.203-1.281,29.298,4.324
		c5.899,3.636,9.554,9.102,11.441,15.757c5.039,17.773,5.286,35.617,0.959,53.572c-2.959,12.28-11.026,19.421-22.851,22.409
		c-8.379,2.117-16.947,2.965-25.619,1.355c-2.579-0.479-5.275-0.327-8.545-0.496c-0.053,4.536-0.122,8.792-0.147,13.049
		c-0.025,4.329,0.225,8.674-0.071,12.983c-0.292,4.251,2.027,8.485-0.061,13.046c-6.68,0-13.411,0-20.614,0
		C539.364,193.014,539.364,148.331,539.364,102.996z M560.456,180.652c5.981,1.6,12.111,1.574,18.234,1.406
		c11.244-0.309,17.309-5.736,19.46-16.71c1.391-7.1,0.744-14.221,0.979-21.335c0.151-4.561-0.797-8.936-2.314-13.136
		c-2.634-7.291-7.975-12.333-16.934-11.883c-1.162,0.058-2.339-0.08-3.493,0.038c-6.133,0.625-11.856,2.423-16.726,5.52
		c-0.286,0.87-0.481,1.184-0.481,1.499c-0.023,16.808-0.022,33.616-0.048,50.423C559.13,178.017,559.382,179.43,560.456,180.652z"/>
	<path style="fill:#698795;" d="M521.769,180.857c0.417,4.623,0.312,9.543,0.183,14.632c-5.826,1.953-11.779,2.399-17.606,3.358
		c-7.888,1.298-15.879,1.304-23.865,1.171c-21.733-0.362-30.92-11.837-34.353-28.601c-1.668-8.147-2.592-16.417-1.994-24.739
		c0.644-8.944,1.922-17.813,5.938-25.99c5.4-10.994,14.432-16.838,26.413-18.76c7.672-1.231,15.13-0.822,22.66,0.933
		c13.051,3.043,20.442,11.564,23.926,24.03c2.92,10.446,2.492,20.95,0.661,31.742c-3.602,0.465-6.956,1.174-10.433,1.175
		c-14.156,0.006-28.313,0.053-42.469,0.119c-1.466,0.007-2.979-0.312-4.391,0.317c-1.783,13.52,6.454,20.243,14.94,20.994
		c6.148,0.544,12.159,0.719,18.317,0.101c6.258-0.629,12.613-0.199,18.875-1.208C519.494,179.983,520.569,179.823,521.769,180.857z
		 M465.312,143.559c8.506,1.055,36.317,0.599,39.365-0.614c0.703-1.757,0.536-3.652,0.252-5.402
		c-0.733-4.526-0.917-9.281-3.943-13.11c-5.065-6.409-12.139-6.92-19.406-6.135c-7.547,0.815-13.026,4.779-15.196,12.249
		C465.196,134.634,464.293,138.904,465.312,143.559z"/>
	<path style="fill:#698795;" d="M1138.676,155.706c-20.081,1.94-39.187,0.612-58.182,1.251
		c-1.535,11.845,4.649,19.724,15.756,21.233c11.324,1.538,22.486-0.126,33.707-0.919c1.799-0.127,3.615-0.505,5.88,0.139
		c0.61,4.729-0.203,9.665,0.971,13.918c-1.607,2.096-3.482,2.084-4.989,2.351c-13.094,2.321-26.259,4.006-39.611,3.252
		c-6.041-0.341-11.739-1.849-17.044-4.861c-5.942-3.374-9.678-8.573-12.077-14.731c-2.599-6.673-3.547-13.7-4.323-20.834
		c-1.206-11.084,0.007-21.779,3.085-32.388c4.65-16.026,16.8-24.695,33.346-25.92c6.327-0.468,12.587,0.078,18.75,1.71
		c11.553,3.059,18.975,10.422,22.786,21.62C1140.54,132.722,1138.914,144.117,1138.676,155.706z M1079.084,139.877
		c3.593,1.306,34.527,1.56,39.848,0.39c0-3.071,0.301-6.223-0.057-9.299c-1.065-9.15-5.532-14.241-14.5-15.63
		c-8.144-1.261-16.112-0.382-21.318,7.163C1079.583,127.535,1078.779,133.456,1079.084,139.877z"/>
	<path style="fill:#688795;" d="M925.971,101.239c7.034,0,13.313,0,19.556,0c2.046,1.523,1.353,3.68,1.359,5.58
		c0.07,22.996,0.089,45.991,0.118,68.987c0.008,6.312,0.001,12.624,0.001,19.419c-6.799,1.388-13.356,0.299-19.122,0.787
		c-2.169-1.535-1.237-3.389-2.373-4.943c-2.574,1.166-5.195,2.39-7.844,3.547c-9.836,4.296-19.986,4.484-30.226,1.942
		c-8.99-2.232-13.92-8.609-16.295-17.165c-2.002-7.213-3.056-14.587-3.063-22.097c-0.017-17.663-0.065-35.326-0.092-52.99
		c-0.001-0.651,0.097-1.303,0.191-2.487c6.7-1.188,13.355-0.445,19.528-0.53c1.71,2.076,1.169,3.813,1.176,5.415
		c0.073,15.33,0.101,30.66,0.112,45.99c0.004,5.829,0.591,11.599,1.93,17.26c1.528,6.462,4.584,8.81,11.208,9.142
		c8.263,0.414,16.186-0.688,23.836-4.986C925.971,150.023,925.971,125.922,925.971,101.239z"/>
	<path style="fill:#698795;" d="M966.396,101.309c6.45,0,13.019,0,19.073,0c2.134,1.447,0.295,3.1,0.968,4.696
		c3.689-1.578,7.078-3.199,10.587-4.496c8.968-3.315,18.17-3.536,27.427-1.486c8.3,1.839,13.666,7.062,16.603,14.944
		c2.573,6.907,3.693,14.088,3.916,21.404c0.182,5.989,0.283,11.992,0.096,17.978c-0.364,11.644,0.821,23.246,0.71,34.877
		c-0.017,1.784,0.504,3.689-0.799,5.294c-1.007,0.841-2.215,0.533-3.354,0.58c-4.134,0.17-8.293-0.393-12.405,0.638
		c-1.245,0.312-2.677,0.245-3.744-0.78c-0.618-0.703-0.565-1.545-0.578-2.374c-0.27-17.782-0.578-35.564-0.784-53.348
		c-0.052-4.529-0.711-8.95-2.21-13.169c-1.67-4.702-4.889-7.664-10.184-8.266c-9.068-1.03-17.181,1.032-24.704,4.746
		c0,23.927,0,48.013,0,72.639c-7.064,1.071-13.841,0.74-20.924,0.195c-0.375-30.922,0.177-61.349-0.85-91.756
		C965.213,102.752,965.685,102.053,966.396,101.309z"/>
	<path style="fill:#698795;" d="M657.005,196.857c-7.263,0-13.851,0-20.368,0c-1.062-1.791-0.618-3.492-0.621-5.105
		c-0.063-26.82-0.178-53.64-0.084-80.46c0.05-14.138-1.184-28.246-0.779-42.387c0.047-1.636-0.297-3.3,0.5-5.336
		c6.525,0,13.088,0,19.872,0c0.756,0.557,0.545,1.612,0.575,2.585c1.314,42.273,0.776,84.56,0.904,126.841
		C657.008,194.134,657.005,195.273,657.005,196.857z"/>
	<path style="fill:#6A8896;" d="M697.428,196.827c-6.736,0-13.186,0-19.602,0c-1.402-1.475-0.799-3.228-0.805-4.811
		c-0.075-22.292-0.193-44.585-0.063-66.877c0.035-5.986-1.02-11.896-0.747-17.87c0.066-1.453-0.424-3.015,1.08-4.739
		c6.168,0,12.722,0,19.359,0c1.037,0.696,1.135,1.814,1.136,3.024c0.028,29.779,0.073,59.558,0.097,89.337
		C697.884,195.36,697.67,195.83,697.428,196.827z"/>
	<path style="fill:#6B8A97;" d="M676.697,65.203c6.448-0.933,13.078,0.456,19.972-1.079c1.081,7.429-0.163,14.658,0.915,22.398
		c-7.032,0.589-13.724,0.351-20.273,0.383C675.978,83.277,675.709,72.179,676.697,65.203z"/>
	<path style="fill:#6B8A97;" d="M1158.117,79.04c0.653-0.01,1.306-0.019,1.958-0.029c-2.084,4.187-2.796,8.487-1.066,12.987
		c-0.616-0.012-1.231-0.024-1.847-0.035C1155.477,87.508,1154.944,83.137,1158.117,79.04z"/>
	<path style="fill:#07ABC8;" d="M51.039,37.967c-0.418,0.023-0.603-0.122-0.549-0.487c0.177,0.202,0.331,0.378,0.485,0.554
		L51.039,37.967z"/>
	<path style="fill:#07ABC8;" d="M54.021,232.024c-0.162,0.242-0.323,0.484-0.485,0.725c-0.564-0.648-0.104-0.736,0.429-0.782
		C53.965,231.967,54.021,232.024,54.021,232.024z"/>
	<path style="fill:#8097A4;" d="M1173.026,85.98c-0.321,0.643-0.642,1.286-0.964,1.928c-0.194,0.692-0.674,1.081-1.344,1.269
		c-0.918-0.586-1.592-1.809-3.251-0.996c-1.376,1.403,0.196,3.672-0.922,5.281c-0.594,0.598-1.228,0.412-2.176,0.167
		c0-4.594,0-9.282,0-14.404c3.681,0.145,7.594-1.98,10.759,1.796c-0.477,0.801-1.121,1.312-1.923,0.507
		c-1.906-1.912-4.021-1.774-6.346-0.97c-1.026,1.829-1.167,3.457,0.331,5.02C1169.088,86.391,1171.099,85.612,1173.026,85.98z"/>
	<path style="fill:#EAECEE;" d="M1173.026,85.98c-1.927-0.369-3.937,0.411-5.835-0.401c-1.498-1.562-1.357-3.191-0.331-5.02
		c2.326-0.805,4.441-0.942,6.346,0.97c0.802,0.805,1.446,0.293,1.923-0.507c1.457,1.307,1.363,2.64,0.067,3.994
		c-0.307-0.534-0.635-1.131-1.375-0.856c-0.856,0.318-0.927,1.084-0.84,1.876L1173.026,85.98z"/>
	<path style="fill:#8DA1AC;" d="M1170.719,89.178c0.67-0.188,1.15-0.578,1.344-1.269c1.623,1.62,1.959,4.041,4.101,5.803
		C1171.876,94.441,1172.016,91.015,1170.719,89.178z"/>
	<path style="fill:#8097A4;" d="M1172.981,86.035c-0.087-0.792-0.016-1.558,0.84-1.876c0.74-0.275,1.068,0.322,1.375,0.856
		C1174.74,85.97,1173.838,85.952,1172.981,86.035z"/>
</g>
</svg>
