<?xml version="1.0" encoding="iso-8859-1"?>
<!-- Generator: Adobe Illustrator 27.0.0, SVG Export Plug-In . SVG Version: 6.00 Build 0)  -->
<svg version="1.1" id="Layer_1" xmlns="http://www.w3.org/2000/svg" xmlns:xlink="http://www.w3.org/1999/xlink" x="0px" y="0px"
	 viewBox="0 0 1520 583" style="enable-background:new 0 0 1520 583;" xml:space="preserve">
<g>
	<path style="fill:#C82330;" d="M0,9c1.941,0.733,3.96,0.353,5.938,0.353c80.15,0.023,160.301-0.013,240.451,0.043
		c20.014,0.014,39.895,1.611,59.379,6.5c18.197,4.566,35.252,11.813,51.095,21.945c11.738,7.507,22.153,16.519,31.368,26.903
		c7.655,8.626,14.092,18.18,19.382,28.402c8.151,15.753,13.686,32.483,16.753,49.943c1.379,7.849,2.313,15.805,2.564,23.806
		c0.255,8.148,0.584,16.287,0.156,24.447c-1.343,25.617-7.578,49.853-19.887,72.465c-9.93,18.243-22.816,33.984-39.427,46.491
		c-9.866,7.428-20.287,13.991-32.469,17.126c-0.431,0.111-0.783,0.529-1.11,0.761c-0.158,1.688,1.212,1.993,2.122,2.527
		c12.185,7.156,20.546,17.555,26.784,30.122c17.156,34.561,34.63,68.964,51.932,103.453c3.75,7.475,8.51,13.904,16.477,17.325
		c6.081,2.611,12.54,3.171,19.035,3.358c4.967,0.143,9.942,0.028,15.183,0.028c0,29.34,0,58.403,0,87.467
		c-0.816,0.893-1.882,0.516-2.823,0.516c-20.996-0.011-41.992,0.039-62.986-0.14c-7.149-0.061-14.288-0.882-21.315-2.247
		c-18.197-3.536-31.322-14.043-40.217-30.014c-12.473-22.396-23.588-45.499-35.266-68.308
		c-13.801-26.957-27.474-53.981-41.234-80.959c-2.117-4.15-4.49-8.153-7.261-11.923c-6.823-9.282-16.127-14.07-27.397-15.487
		c-5.133-0.645-10.269-0.996-15.441-0.989c-18.657,0.022-37.314,0.009-56.351,0.009c0,69.881,0,139.631,0,209.73
		c-34.767,0-69.156,0-103.917,0c0-158.07,0-316.142,0-473.574c-0.904-1.476-1.758-1.438-2.587-1.438
		c-15.663-0.006-31.327-0.012-46.99,0.006C1.293,97.647,0.647,97.877,0,98C0,68.333,0,38.667,0,9z M155.557,273.823
		c1.945,0,3.584,0,5.223,0c24.166,0,48.332-0.041,72.498,0.023c8.182,0.021,16.322-0.424,24.364-1.886
		c22.7-4.128,40.522-15.468,51.988-35.858c6.289-11.183,9.451-23.34,10.708-36.068c1.702-17.235,1.036-34.255-4.346-50.855
		c-7.092-21.873-20.975-37.561-42.629-45.861c-11.002-4.217-22.525-5.629-34.283-5.597c-26.499,0.072-52.998,0.014-79.498,0.038
		c-1.279,0.001-2.651-0.391-4.024,0.627C155.557,156.556,155.557,214.845,155.557,273.823z"/>
	<path style="fill:#C82230;" d="M759,583c-0.766-1.703-2.314-0.908-3.5-0.994c-13.111-0.953-26.183-2.153-39.107-4.701
		c-46.905-9.246-88.528-29.307-124.493-60.873c-20.162-17.696-37.28-37.947-51.159-60.98c-18.661-30.971-31.218-64.158-37.9-99.694
		c-5.413-28.788-7.521-57.784-5.705-86.958c3.505-56.283,21.002-107.847,54.226-153.626c28.563-39.356,65.162-69.09,109.498-89.232
		c23.456-10.655,47.934-17.848,73.331-21.997c8.537-1.395,17.101-2.585,25.753-3.014C760.746,0.892,761.639,1.023,762,0
		c9.333,0,18.667,0,28,0c0.406,0.256,0.809,0.729,1.219,0.736c5.949,0.096,11.899,0.129,17.849,0.177
		c26.863,1.597,53.122,6.603,78.779,14.579c33.027,10.267,63.661,25.269,90.647,47.198c2.324,1.888,4.531,3.923,6.738,5.949
		c0.847,0.777,1.541,1.721,2.674,3.009c-19.419,24.743-38.816,49.458-58.381,74.387c-9.039-6.412-18.001-12.68-27.466-18.207
		c-13.713-8.008-28.186-14.259-43.215-19.254c-11.37-3.779-22.963-6.816-34.762-8.879c-7.523-1.316-15.101-2.503-22.762-2.763
		c-6.324-0.215-12.608-1.088-18.958-0.909c-49.042,1.381-91.009,19.18-125.444,54.237c-21.442,21.83-35.977,47.813-44.334,77.114
		c-6.799,23.837-9.343,48.223-7.922,73.076c1.418,24.795,6.151,48.784,15.33,71.869c12.148,30.553,31.096,56.094,57.021,76.3
		c18.477,14.401,39.35,24.077,61.885,30.397c16.313,4.576,32.967,6.775,49.793,6.685c26.688-0.141,52.608-5.086,77.27-15.485
		c24.618-10.381,46.871-24.472,65.821-43.891c0-14.086,0.247-28.414-0.085-42.729c-0.231-9.971-4.532-14.211-14.417-15.893
		c-2.32-0.395-4.616-0.551-6.949-0.548c-9.827,0.011-19.653,0.005-29.832,0.005c0-29.248,0-58.315,0-87.598
		c0.92-0.912,2.327-0.389,3.584-0.391c28.661-0.033,57.323-0.052,85.984-0.008c8,0.012,15.932,0.709,23.749,2.631
		c18.051,4.438,26.73,16.071,30.111,33.313c1.187,6.053,1.269,12.225,1.265,18.404c-0.048,77.819-0.032,155.638-0.032,233.457
		c0,1.813,0,3.626,0,5.735c-31.111,0-61.998,0-93.141,0c0-15.4,0-30.678,0-46.032c-1.761-0.249-2.528,0.978-3.453,1.712
		c-29.984,23.794-63.759,39.499-101.125,47.652c-14.823,3.234-29.763,5.437-44.931,6.018c-0.705,0.027-1.291,0.178-1.51,0.948
		c-1.333,0-2.667,0-4,0c-0.181-0.736-0.696-1.014-1.405-1.015c-3.731-0.005-7.463-0.01-11.194-0.01
		c-0.709,0-1.221,0.292-1.401,1.025C761.667,583,760.333,583,759,583z"/>
	<path style="fill:#E7AF9F;" d="M1519.135,182.934c0.288,0.022,0.577,0.044,0.865,0.066c0,6.667,0,13.333,0,20
		c-0.292,0.006-0.584,0.027-0.874,0.063C1519.129,196.353,1519.132,189.643,1519.135,182.934z"/>
	<path style="fill:#DF9281;" d="M809.069,0.913c-5.95-0.048-11.9-0.082-17.849-0.177C790.809,0.729,790.406,0.256,790,0
		c6.333,0,12.667,0,19,0C808.873,0.316,808.896,0.62,809.069,0.913z"/>
	<path style="fill:#E5A595;" d="M763,583c0.18-0.733,0.692-1.025,1.401-1.025c3.731,0,7.463,0.005,11.194,0.01
		c0.709,0.001,1.224,0.28,1.405,1.015C772.333,583,767.667,583,763,583z"/>
	<path style="fill:#C82330;" d="M1519.135,182.934c-0.003,6.71-0.006,13.419-0.009,20.129c-0.635,28.213-7.659,54.931-19.489,80.377
		c-5.267,11.33-12.204,21.797-19.995,31.592c-13.975,17.569-31.115,31.503-50.793,42.124c-14.38,7.761-29.683,13.416-45.75,16.745
		c-10.597,2.196-21.291,3.681-32.125,4.09c-35.475,1.339-70.964,0.311-106.444,0.634c-1.986,0.018-3.973,0.002-6.418,0.002
		c0,64.774,0,129.336,0,194.135c-34.725,0-68.989,0-103.827,0c0-158.102,0-316.289,0-474.847c-17.463,0-34.363,0-51.587,0
		c0-29.59,0-58.811,0-88.179c1.248-0.753,2.771-0.344,4.208-0.344c83.145-0.023,166.291-0.096,249.436,0.035
		c19.68,0.031,39.216,2.031,58.253,7.339c19.218,5.358,37.06,13.657,53.409,25.222c16.818,11.896,30.636,26.593,41.945,43.705
		c6.72,10.168,11.998,21.104,16.279,32.501c4.45,11.848,8.064,23.959,10.088,36.467
		C1517.829,164.016,1519.243,173.406,1519.135,182.934z M1238.213,289.13c1.126,0.897,2.167,0.58,3.128,0.581
		c26.988,0.018,53.977,0.115,80.965-0.052c8.142-0.05,16.285-0.803,24.261-2.69c29.036-6.869,49.458-23.831,59.566-52.097
		c9.676-27.059,9.798-54.567,0.705-81.759c-8.063-24.111-24.253-40.953-48.354-49.718c-11.371-4.135-23.189-5.705-35.277-5.673
		c-27.155,0.07-54.31,0.015-81.465,0.031c-1.117,0.001-2.3-0.292-3.529,0.525C1238.213,161.89,1238.213,225.599,1238.213,289.13z"/>
</g>
</svg>
