<?xml version="1.0" encoding="iso-8859-1"?>
<!-- Generator: Adobe Illustrator 27.0.0, SVG Export Plug-In . SVG Version: 6.00 Build 0)  -->
<svg version="1.1" id="Layer_1" xmlns="http://www.w3.org/2000/svg" xmlns:xlink="http://www.w3.org/1999/xlink" x="0px" y="0px"
	 viewBox="0 0 1609.072 221.079" style="enable-background:new 0 0 1609.072 221.079;" xml:space="preserve">
<g>
	<path style="fill:#3E3833;" d="M1544,0c1.705,2.131,4.499,0.166,6.79,2.256c0.574,5.365-0.292,11.222-0.953,17.429
		c-4.867-1.124-9.61-1.07-14.355-0.746c-9.352,0.639-13.934,5.71-15.823,12.103c-1.621,5.487-2.189,11.686-1.302,20.181
		c10.329,0,20.725,0,31.359,0c0,6.258,0,12.032,0,18.275c-10.349,0-20.762,0-31.583,0c0,34.549,0,68.637,0,103.073
		c-7.647,0-14.895,0-22.611,0c0-33.934,0-68.011,0-102.624c-5.828,0-11.232,0-16.971,0c0-6.404,0-12.277,0-18.514
		c5.402,0,10.679,0,15.721,0c1.545-1.767,0.895-3.499,0.95-5.086c0.244-6.993,0.913-13.902,2.626-20.729
		c3.616-14.407,14.289-24.035,30.967-24.737c4.245,0.042,8.489,0.084,12.734,0.128c0.724,0.007,1.223-0.303,1.45-1.007
		C1543.333,0,1543.667,0,1544,0z"/>
	<path style="fill:#47403B;" d="M1588,0c0.185,0.789,0.773,0.894,1.47,0.973c12.838,1.461,20.511,11.417,19.515,25.297
		c-0.775,10.79-11.748,19.983-23.276,19.499c-12.093-0.507-21.61-10.292-21.675-22.285c-0.062-11.479,7.177-20.299,18.501-22.494
		c0.68-0.132,1.285-0.199,1.465-0.99C1585.333,0,1586.667,0,1588,0z M1605.25,23.104c0.751-9.138-7.198-19.114-18.677-19.157
		c-11.061-0.042-19.101,9.798-18.739,19.212c0.422,10.971,8.014,18.953,18.783,19.083
		C1597.907,42.377,1606.074,32.272,1605.25,23.104z"/>
	<path style="fill:#C25866;" d="M1.066,220.835C0.711,220.89,0.355,220.945,0,221C0,148.333,0,75.667,0,3
		c46.187-0.013,92.375-0.033,138.562,0.001c1.116,0.001,2.705-0.826,3.301,1.058C95.588,4.032,49.314,4.005,3.039,3.981
		c-0.666,0-1.326,0.05-2.021,1.112c0,1.38,0,3.193,0,5.006C1.034,80.344,1.05,150.589,1.066,220.835z"/>
	<path style="fill:#6D6560;" d="M1543,0c-0.227,0.704-0.725,1.014-1.45,1.007c-4.245-0.044-8.489-0.085-12.734-0.128
		c0.106-0.284,0.168-0.577,0.184-0.879C1533.667,0,1538.333,0,1543,0z"/>
	<path style="fill:#A81F28;" d="M1.066,220.835C1.05,150.589,1.034,80.344,1.018,10.099c0-1.813,0-3.626,0-5.006
		C1.713,4.031,2.373,3.98,3.039,3.981c46.274,0.024,92.549,0.052,138.823,0.079c0.045,23.322,0.113,46.644,0.13,69.967
		c0.023,31.156,0.006,62.311,0.006,93.467c0,1.635,0,3.27,0,5.142c13.099,0,25.831,0,38.647,0c0.845-1.644,0.448-3.329,0.451-4.937
		c0.031-19.493,0.032-38.986,0.012-58.479c-0.005-4.717,0.868-9.212,2.781-13.545c5.804-13.141,21.73-14.343,30.146-9.46
		c5.761,3.343,8.048,9.098,8.922,15.404c0.364,2.625,0.293,5.32,0.296,7.983c0.022,19.16-0.003,38.32,0.037,57.48
		c0.004,1.782-0.49,3.658,0.656,5.574c12.681,0,25.445,0,38.177,0c1.146-1.162,0.684-2.569,0.686-3.839
		c0.029-21.159,0.185-42.32-0.053-63.477c-0.114-10.132-0.993-20.232-4.716-29.872c-5.933-15.366-17.135-23.887-33.261-26.53
		c-10.976-1.799-21.495-1.087-31.525,4.069c-4.319,2.22-8.03,5.232-11.853,9.123c0-19.906,0-39.192,0-58.725
		c43.102,0,86.017,0,128.937,0c0.915,3.765,1.303,206.051,0.409,217.09c-0.975,0.913-2.2,0.485-3.304,0.485
		C206.313,221.001,105.182,221,4.051,220.993C3.056,220.993,2.061,220.89,1.066,220.835z M88.002,172.741c0-2.055,0-3.695,0-5.335
		c0-18.319,0.021-36.638-0.014-54.956c-0.01-5.054,0.847-9.912,2.854-14.549c2.84-6.563,7.712-10.492,14.778-12.061
		c5.385-1.196,10.766-0.702,16.207-0.634c0-12.341,0-24.434,0-36.979c-13.691-0.859-24.808,4.224-34.795,14.146
		c0-4.248,0-7.382,0-10.731c-12.783,0-25.33,0-37.834,0c0,40.524,0,80.737,0,121.099C62.126,172.741,74.733,172.741,88.002,172.741z
		"/>
	<path style="fill:#3B342F;" d="M456.852,88.581c8.329,2.925,12.513,9.73,15.984,16.996c10.224,21.408,20.273,42.899,30.396,64.354
		c0.353,0.748,0.847,1.445,0.616,2.659c-8.808,0-17.69,0-27.048,0c-2.834-6.395-5.793-13.039-8.726-19.695
		c-5.618-12.752-11.216-25.514-16.835-38.265c-0.601-1.364-1.305-2.682-1.942-4.03c-4.195-8.869-11.31-13.195-21.006-13.342
		c-6.485-0.098-12.973-0.019-20.18-0.019c-0.117,8.397-0.041,16.644-0.054,24.887c-0.013,8.499-0.003,16.997-0.003,25.496
		c0,8.287,0,16.573,0,25.07c-8.189,0-15.936,0-23.968,0c0-56.408,0-112.661,0-169.021c0.994-1.071,2.416-0.553,3.681-0.556
		c14.331-0.038,28.662-0.095,42.992,0.001c10.18,0.068,20.298,1.085,30.093,3.928c14.323,4.157,24.861,12.483,28.49,27.694
		c2.028,8.5,2.794,17.088,0.099,25.604c-4.212,13.312-13.783,21.148-26.579,25.574c-1.85,0.64-3.747,1.142-5.622,1.708
		C457.109,87.944,456.98,88.262,456.852,88.581z M408.238,75.93c7.669,0,14.831,0.131,21.985-0.039
		c6.505-0.154,12.911-1.141,18.988-3.629c14.034-5.744,18.654-18.377,14.718-30.815c-2.933-9.266-10.569-13.201-19.312-15.455
		c-6.373-1.643-12.897-1.261-19.386-1.275c-5.606-0.013-11.212-0.003-16.995-0.003C408.238,41.997,408.238,58.753,408.238,75.93z"/>
	<path style="fill:#3C3531;" d="M1276.743,172.769c-7.997,0-15.615,0-23.695,0c0-25.524,0-50.913,0-76.178
		c-4.182-1.085-69.581-1.472-80.98-0.56c0,25.369,0,50.779,0,76.533c-8.315,0-16.222,0-24.492,0c0-56.243,0-112.595,0-169.477
		c4.031,0,7.979,0,11.927,0c3.961,0,7.922,0,12.179,0c0,23.68,0,46.944,0,70.557c27.036,0,53.767,0,80.99,0
		c0-23.208,0-46.596,0-70.268c8.229,0,15.975,0,24.071,0C1276.743,59.671,1276.743,116.025,1276.743,172.769z"/>
	<path style="fill:#3B3530;" d="M676.079,172.809c-7.426,0-14.066,0-20.672,0c-1.153-3.424-1.597-161.315-0.467-169.411
		c7.162,0,14.373,0,21.892,0c0,21.367,0,42.639,0,63.962c0.573-0.093,0.984-0.04,1.086-0.193
		c8.422-12.559,20.777-17.531,35.298-18.323c12.101-0.66,23.48,1.386,33.578,8.641c10.337,7.427,16.614,17.669,19.861,29.65
		c5.628,20.767,4.429,41.269-4.962,60.774c-8.541,17.739-23.08,27.361-42.814,27.634c-16.502,0.228-31.051-5.08-41.608-18.685
		c-0.172-0.222-0.509-0.317-1.193-0.723C676.079,161.712,676.079,167.062,676.079,172.809z M746.059,112.545
		c-0.262-12.2-3.223-23.559-10.939-33.42c-12.663-16.183-34.491-16.294-47.113-0.156c-5.987,7.654-9.259,16.356-10.437,26.015
		c-1.818,14.92,1.348,28.463,10.663,40.316c11.747,14.947,31.151,16.014,44.408,2.355
		C742.043,137.969,745.588,125.843,746.059,112.545z"/>
	<path style="fill:#3C3531;" d="M1382.887,172.673c0-5.16,0-10.056,0-16.156c-3.119,4.259-6.09,7.102-9.417,9.58
		c-9.744,7.258-20.573,10.342-32.743,9.323c-7.016-0.587-13.866-1.49-20.35-4.368c-11.266-5.001-17.562-13.655-19.46-25.796
		c-0.917-5.867-0.883-11.606,0.694-17.311c2.479-8.969,8.132-15.536,15.939-20.279c11.379-6.913,23.926-9.7,37.109-9.88
		c8.302-0.114,16.607-0.021,25.268-0.021c0.547-7.412-0.522-14.522-4.627-20.818c-4.584-7.032-11.836-9.316-19.757-9.867
		c-13.554-0.943-26.068,2.123-37.285,9.98c-0.804,0.563-1.66,1.053-2.963,1.874c-0.459-6.416-0.888-12.42-1.325-18.524
		c3.61-2.702,7.543-4.471,11.498-6.075c15.755-6.391,32-7.523,48.37-3.132c15.075,4.044,23.876,14.391,27.082,29.535
		c1.416,6.691,2.012,13.484,2.003,20.335c-0.026,17.833-0.032,35.665,0.02,53.498c0.018,5.956-0.274,11.925,0.883,18.103
		C1396.819,172.673,1390.209,172.673,1382.887,172.673z M1380.151,115.04c-8.72-0.036-17.157-0.841-25.603,0.177
		c-6.952,0.838-13.776,2.162-19.963,5.718c-6.369,3.66-10.394,8.928-10.37,16.447c0.024,7.639,3.887,13.075,10.5,16.888
		c5.378,3.101,11.07,3.337,16.925,2.74c12.311-1.255,23.037-7.755,27.153-20.808C1380.932,129.422,1380.105,122.424,1380.151,115.04
		z"/>
	<path style="fill:#3C3531;" d="M899.047,117.005c-14.465,0-28.743,0-43.021,0c-14.146,0-28.292,0-42.731,0
		c-0.92,5.411,0.57,10.301,2.343,15.054c5.981,16.032,21.14,25.421,37.678,25.141c11.568-0.196,22.142-3.923,32.259-9.225
		c1.3-0.682,2.415-1.762,4.2-1.948c0,7.151,0,14.242,0,21.708c-6.986,3.047-14.346,5.396-22.026,6.716
		c-12.986,2.233-25.892,1.663-38.565-1.835c-17.816-4.917-29.851-16.32-35.763-33.78c-5.402-15.955-6.323-32.338-1.957-48.655
		c6.851-25.598,27.562-41.778,54.721-41.413c6.521,0.088,12.912,0.69,19.155,2.785c13.553,4.547,22.389,13.861,27.598,26.903
		C897.817,90.676,899.225,103.449,899.047,117.005z M874.921,100.085c0.347-7.474-1.186-13.843-4.933-19.849
		c-2.765-4.432-6.298-8.156-11.191-10.305c-23.046-10.121-44.194,5.631-45.369,30.154
		C833.824,100.085,854.211,100.085,874.921,100.085z"/>
	<path style="fill:#3B3530;" d="M569.402,48.78c29.264-0.522,55.431,21.686,60.567,51.269c4.054,23.351-2.506,43.465-19.923,59.684
		c-9.795,9.12-21.574,14.082-34.948,15.322c-35.499,3.289-61.968-23.55-66.178-51.963c-3.818-25.768,4.361-46.995,25.155-62.722
		C544.793,52.262,554.988,48.76,569.402,48.78z M607.203,112.504c0.203-12.106-3.384-22.947-10.929-32.382
		c-13.705-17.139-38.541-17.613-52.609-1.089c-15.95,18.734-15.913,47.414,0.086,66.034c12.412,14.446,32.678,16.317,47.243,4.028
		C602.244,139.601,606.982,126.993,607.203,112.504z"/>
	<path style="fill:#3E3833;" d="M1019.221,69.815c-6.169,0-11.784,0-18.09,0c-0.195-6.145-0.061-12.032-0.1-18.361
		c6.015,0,11.77,0,18.018,0c0-9.489,0-18.56,0-27.859c7.608-2.398,14.828-4.673,22.748-7.169c0,11.806,0,23.134,0,34.764
		c10.869,0,21.135,0,31.666,0c0.941,3.138,0.373,6.118,0.47,9.031c0.099,2.971,0.022,5.948,0.022,9.387c-10.714,0-21.116,0-31.189,0
		c-1.231,1.652-0.816,3.03-0.818,4.311c-0.029,20.318,0,40.636-0.039,60.955c-0.007,3.524,0.289,6.994,1.554,10.278
		c3.852,9.998,12.433,13.859,24.044,11.414c2.708-0.57,5.272-1.827,8.18-2.866c0,6.209,0,12.141,0,18.305
		c-5.653,2.384-11.689,3.522-17.796,3.575c-6.471,0.056-12.913-0.708-19.099-3.015c-10.893-4.063-16.632-12.211-18.687-23.273
		c-0.759-4.087-0.92-8.249-0.909-12.425c0.055-20.485,0.025-40.969,0.025-61.454C1019.221,73.761,1019.221,72.111,1019.221,69.815z"
		/>
	<path style="fill:#3E3833;" d="M1458.495,172.772c-7.518,0-14.641,0-22.098,0c0-56.481,0-112.847,0-169.451
		c7.355,0,14.594,0,22.098,0C1458.495,59.761,1458.495,116.004,1458.495,172.772z"/>
	<path style="fill:#3D3732;" d="M988.541,69.886c-4.971-1.05-9.281-1.866-13.872-1.292c-9.642,1.206-16.747,5.985-21.703,14.149
		c-5.018,8.265-7.734,17.37-7.918,26.937c-0.366,18.981-0.186,37.972-0.231,56.959c-0.004,1.823-0.001,3.646-0.001,5.411
		c-3.601,1.072-16.165,1.265-22.479,0.361c0-40.18,0-80.395,0-120.877c6.797,0,13.392,0,20.391,0
		c0.912,2.748,0.29,5.732,0.395,8.636c0.109,2.994,0.024,5.994,0.024,10.217c10.585-18.214,25.481-24.847,45.394-20.257
		C988.541,56.588,988.541,62.994,988.541,69.886z"/>
	<path style="fill:#4E4641;" d="M1587.17,25.143c-1.846-0.484-3.295-0.507-5.207,0.043c0,3.486,0,7.078,0,10.372
		c-1.389,0.865-2.31,0.815-3.487,0.123c0-8.255,0-16.655,0-25.624c3.928,0,7.705-0.118,11.47,0.034
		c3.514,0.142,6.024,2.071,6.836,4.866c0.975,3.357-0.224,6.552-3.285,8.661c-0.401,0.276-0.916,0.384-1.331,0.645
		c-0.254,0.16-0.418,0.462-0.823,0.934c1.547,3.718,4.55,6.723,6.393,10.466c-2.287,1.347-3.671,0.412-4.866-1.554
		C1590.983,31.003,1588.976,27.971,1587.17,25.143z M1582.125,21.882c3.748,0.124,7.134,0.146,10.191-1.461
		c1.836-5.093,0.619-7.164-4.218-7.372c-1.937-0.083-3.88-0.014-5.973-0.014C1582.125,16.09,1582.125,18.689,1582.125,21.882z"/>
</g>
</svg>
