<?xml version="1.0" encoding="iso-8859-1"?>
<!-- Generator: Adobe Illustrator 27.0.0, SVG Export Plug-In . SVG Version: 6.00 Build 0)  -->
<svg version="1.1" id="Layer_1" xmlns="http://www.w3.org/2000/svg" xmlns:xlink="http://www.w3.org/1999/xlink" x="0px" y="0px"
	 viewBox="0 0 1478 1293" style="enable-background:new 0 0 1478 1293;" xml:space="preserve">
<g>
	<path style="fill:#333333;" d="M1478,4c0,429.667,0,859.333,0,1289c-491.667,0-983.333,0-1475,0
		c-0.403-2.09-2.347-3.625-2.139-5.935c-0.036-3.159-0.114-6.318-0.101-9.477c0.07-16.988,0.235-33.976,0.236-50.964
		C1.011,829.931,1.008,433.237,1.003,36.544c0-1.831-0.068-3.662-0.104-5.493C0.886,23.66,0.873,16.27,0.86,8.879
		C1.87,3.169,3.44,1.653,8.98,1.024c0.646-0.073,1.287-0.183,1.93-0.276c1.82,0.084,3.639,0.239,5.459,0.241
		c22.103,0.017,44.207,0.025,66.31,0.005c12.794-0.011,25.587-0.078,38.381-0.12c1.664,0.042,3.328,0.121,4.992,0.121
		C550.844,1,975.637,1,1400.43,0.992c1.829,0,3.657-0.116,5.486-0.178c21.046,0.022,42.091,0.044,63.137,0.067
		C1472.468,0.679,1475.351,2.004,1478,4z M354.657,777.395c-1.642,2.289-1.698,3.949-1.669,5.633
		c0.078,4.531,1.533,5.916,6.072,5.871c3.156-0.031,6.314,0.012,9.47,0.012c83.157,0.001,166.313,0.001,249.47,0.001
		c166.313,0,332.626,0.001,498.939-0.003c9.067,0,9.672-0.628,9.015-9.151c-0.023-0.298-0.287-0.578-0.335-0.669
		c-0.872-1.22-2.009-1.667-3.167-1.667C866.521,777.395,610.589,777.395,354.657,777.395z M665.856,580.311
		c-0.812,2.071-0.457,3.923-0.467,5.733c-0.172,31.488,0.282,62.977-0.262,94.465c-0.107,6.163-0.191,12.331-0.054,18.491
		c0.146,6.573,3.001,8.983,9.465,8.455c1.985-0.162,4.012-0.452,5.968-0.227c7.443,0.86,10.388-0.742,10.124-9.833
		c-0.015-0.5,0.016-1.002-0.021-1.499c-1.379-18.422-0.149-36.855-0.461-55.538c0.704,0.404,1.258,0.541,1.512,0.894
		c8.965,12.469,19.89,23.29,29.561,35.166c6.62,8.13,10.3,8.119,16.805-0.191c8.838-11.29,18.68-21.696,28.141-32.438
		c0.516-0.585,0.996-1.318,1.928-1.199c0.829,0.372,0.712,1.111,0.704,1.73c-0.216,15.652,0.542,31.312-0.4,46.959
		c-0.16,2.653-0.336,5.337-0.118,7.975c0.565,6.847,3.391,9.139,10.203,8.242c2.343-0.309,4.57-0.346,6.921-0.023
		c6.019,0.828,8.698-1.52,8.741-7.749c0.093-13.664,0.092-27.329,0.006-40.993c-0.153-24.324-0.389-48.648,0.139-72.969
		c0.068-3.112-0.745-5.441-3.802-6.637c-2.865,3.469-5.491,6.902-8.378,10.099c-15.059,16.68-30.179,33.304-44.888,50.297
		c-5.979,6.907-8.652,6.867-14.648-0.113c-16.38-19.068-33.855-37.147-50.519-55.959
		C670.499,581.693,668.799,580.109,665.856,580.311z M737.001,1019.994c3.68,0.096,7.793-0.177,11.924-0.906
		c17.177-3.032,31.106-11.326,41.235-25.552c10.55-14.815,13.594-31.413,11.061-49.266c-2.083-14.686-8.238-27.336-19.094-37.372
		c-16.705-15.445-36.727-19.952-58.702-16.003c-39.292,7.06-60.98,45.583-50.681,82.25
		C680.695,1001.447,707.396,1020.63,737.001,1019.994z M739.54,508.882c125.804,0,251.609,0,377.413-0.001
		c1.666,0,3.339,0.064,4.996-0.058c1.543-0.114,2.939-0.723,3.724-2.164c2.513-4.608-0.442-9.573-5.675-9.13
		c-5.664,0.48-11.314,0.275-16.966,0.275c-240.945,0.027-481.889,0.028-722.834-0.002c-7.153-0.001-14.312,0.373-21.467-0.296
		c-2.16-0.202-4.411,0.222-5.432,2.638c-1.986,4.699,0.666,8.649,5.827,8.736c1,0.017,2,0.003,2.999,0.003
		C487.931,508.882,613.735,508.882,739.54,508.882z M554.164,664.949c3.853-2.189,7.587-1.195,11.158-1.247
		c3.835-0.056,6.759,1.929,8.304,5.392c3.38,7.578,8.301,14.293,11.542,22.005c3.881,9.235,11.006,15.405,21.372,16.719
		c6.179,0.783,12.264-0.059,18.465-2.324c-8.899-14.876-17.727-29.633-26.234-43.854c1.161-3.52,3.444-4.645,5.526-6.012
		c9.33-6.129,15.698-14.396,17.326-25.616c1.158-7.981,0.399-15.925-2.182-23.65c-3.176-9.508-9.311-16.324-18.302-20.689
		c-7.787-3.781-16.156-5.232-24.63-5.463c-13.985-0.383-27.986-0.211-41.98-0.192c-4.596,0.006-6.351,1.536-7.162,5.944
		c-0.239,1.299-0.254,2.653-0.24,3.981c0.052,4.993,0.228,9.985,0.232,14.978c0.023,29.664,0.025,59.328-0.011,88.992
		c-0.003,2.682,0.268,5.316,0.678,7.949c0.438,2.813,2.205,4.692,4.885,4.953c4.945,0.482,9.909,1.296,14.913,0.531
		c5.121-0.783,6.158-1.907,6.169-7.155c0.015-6.831-0.112-13.663-0.091-20.494C553.917,674.741,554.073,669.787,554.164,664.949z
		 M467.023,947.995c-7.329,0-14.658-0.041-21.986,0.018c-3.524,0.028-4.758,0.991-5.802,4.269c-0.402,1.263-0.729,2.565-0.932,3.874
		c-1.098,7.094,1.684,13.769,10.624,15.04c1.99,0.283,3.957,0.403,5.952,0.441c3.327,0.063,6.661,0.075,9.977,0.315
		c3.784,0.274,4.816,1.397,5.303,5.237c0.422,3.324,0.134,6.643-0.024,9.97c-0.176,3.72-2.283,5.916-5.611,6.737
		c-10.262,2.532-20.657,3.836-31.066,1.065c-13.418-3.572-23.073-11.514-27.327-25.087c-2.734-8.723-3.033-17.617-1.249-26.616
		c3.902-19.686,25.192-34.664,46.716-28.587c5.062,1.429,9.461,3.89,13.777,6.741c4.264,2.816,6.733,2.471,9.961-1.335
		c2.487-2.933,5.191-5.582,8.141-8.053c3.797-3.18,3.738-5.639,0.057-9.102c-3.552-3.342-7.711-5.816-12.17-7.689
		c-12.207-5.127-24.923-6.88-38.077-5.291c-20.943,2.53-37.421,12.335-48.174,30.647c-7.819,13.316-10.327,27.937-8.202,43.238
		c3.275,23.581,15.453,40.941,37.487,50.216c24.819,10.447,49.383,7.287,73.346-3.66c4.204-1.92,5.988-5.318,6.415-9.881
		c1.43-15.285-0.503-30.582,0.378-45.874c0.301-5.215-1.576-6.595-7.029-6.624C480.681,947.967,473.852,947.995,467.023,947.995z
		 M637.916,1016.756c-7.728-12.911-15.15-25.51-22.777-37.984c-5.04-8.244-4.041-8.22,2.726-12.87
		c20.372-13.998,20.828-37.183,12.003-54.06c-6.804-13.013-18.794-18.742-33.086-19.948c-10.302-0.869-20.634-0.436-30.954-0.53
		c-6.16-0.056-12.322-0.29-18.479-0.209c-4.867,0.064-6.864,2.172-7.221,7.04c-0.061,0.829-0.013,1.666-0.013,2.499
		c0,34.659-0.001,69.318,0.001,103.977c0,2.667,0.315,5.298,0.652,7.946c0.455,3.563,2.408,5.174,5.776,5.799
		c4.15,0.771,8.316,0.534,12.46,0.409c6.214-0.187,7.861-2.057,7.877-8.312c0.025-9.655,0.001-19.311,0.005-28.966
		c0.001-1.816-0.292-3.67,0.59-5.362c6.422-4.146,15.734-2.4,19.028,4.221c3.398,6.829,8.054,12.94,10.737,20.192
		c1.781,4.815,4.832,9.1,8.841,12.51C615.795,1021.374,626.546,1020.113,637.916,1016.756z M869.217,664.482
		c3.628-1.33,6.984-0.785,10.276-0.829c4.28-0.057,7.217,2.111,9.077,5.875c3.74,7.571,8.419,14.607,11.772,22.444
		c3.645,8.518,10.403,14.229,19.881,15.721c6.485,1.021,12.879,0.109,19.21-2.173c-0.429-0.9-0.724-1.676-1.145-2.376
		c-7.196-11.958-14.408-23.905-21.614-35.857c-0.687-1.139-1.443-2.247-2.011-3.443c-1.31-2.758-1.031-4.126,1.344-6.12
		c1.268-1.064,2.727-1.897,4.079-2.864c4.655-3.328,8.691-7.268,11.632-12.212c5.876-9.881,6.298-20.446,3.768-31.35
		c-1.806-7.783-5.06-14.802-11.166-20.173c-7-6.158-15.516-8.862-24.535-10.06c-17.088-2.269-34.277-0.453-51.413-1.002
		c-3.823-0.122-5.791,1.977-6.287,5.732c-0.173,1.312-0.087,2.662-0.085,3.994c0.036,19.664,0.103,39.328,0.109,58.992
		c0.004,14.497-0.109,28.995-0.082,43.492c0.006,3.145-0.098,6.293,0.622,9.439c0.745,3.258,2.707,4.899,5.81,5.235
		c3.302,0.358,6.63,0.61,9.949,0.649c8.945,0.104,11.024-2.073,10.151-10.998c-0.668-6.826-0.523-13.661-0.241-20.46
		C868.471,672.386,868.069,668.497,869.217,664.482z M779.893,270.018c-6.414-1.135-13.07-1.148-19.691-0.721
		c-3.604,0.232-5.013,2.28-5.193,6.132c-0.086,1.829-0.011,3.666-0.006,5.499c0.035,11.663,0.11,23.325,0.091,34.988
		c-0.009,5.856-1.512,7.286-7.425,7.448c-0.666,0.018-1.334,0.022-2,0c-12.155-0.401-24.31-0.406-36.466-0.011
		c-1.16,0.038-2.338-0.008-3.485-0.174c-3.352-0.485-4.516-1.785-4.794-5.252c-0.067-0.829-0.033-1.666-0.033-2.499
		c-0.002-11.498-0.005-22.996,0.002-34.494c0.001-2.003-0.129-3.968-0.569-5.947c-0.651-2.936-2.224-4.573-5.244-5.206
		c-5.136-1.075-10.303-0.796-15.434-0.514c-3.865,0.212-5.49,2.282-5.615,6.308c-0.113,3.66,0.073,7.329,0.074,10.994
		c0.008,32.333,0.006,64.666,0.002,96.999c0,2.5,0.136,4.957,0.646,7.44c0.621,3.025,2.222,4.59,5.225,5.151
		c4.797,0.896,9.623,1.001,14.429,0.542c5.021-0.479,6.503-2.362,6.592-7.539c0.029-1.665-0.054-3.332-0.058-4.998
		c-0.022-10.333-0.088-20.666-0.029-30.998c0.03-5.2,1.328-6.379,6.61-6.526c0.999-0.028,2.001-0.035,3,0
		c12.156,0.43,24.31,0.218,36.466-0.012c6.963-0.132,8.14,1.057,8.121,8.063c-0.001,0.5-0.008,1-0.009,1.5
		c-0.01,11.329-0.027,22.659-0.023,33.988c0.001,1.99-0.186,4.069,2.209,5.726c5.289,0.868,11.103,1.147,16.909,0.918
		c4.615-0.182,6.515-2.139,7.337-6.654c0.633-3.477,0.127-6.969,0.13-10.457c0.033-34.495,0.129-68.991,0.222-103.486
		C781.891,274.205,781.923,272.209,779.893,270.018z M828.998,332.439c-0.003,0-0.005,0-0.008,0c0,18.484-0.022,36.967,0.012,55.451
		c0.012,6.59,2.031,8.724,8.549,8.965c2.986,0.111,5.985-0.204,8.979-0.207c19.318-0.022,38.636-0.026,57.954,0.008
		c2.342,0.004,4.641-0.24,6.952-0.549c2.878-0.385,4.386-1.963,4.838-4.826c0.736-4.661,0.342-9.281-0.252-13.902
		c-0.326-2.537-2.179-3.659-4.394-4.139c-1.277-0.277-2.651-0.126-3.982-0.127c-12.823-0.006-25.646,0.022-38.469-0.025
		c-2.643-0.01-5.283,0.062-7.909-0.737c-3.075-0.936-4.891-2.808-5.236-5.934c-0.659-5.97-0.668-11.967,0.011-17.93
		c0.344-3.017,1.848-4.227,4.991-4.531c1.321-0.128,2.662-0.065,3.994-0.061c11.656,0.035,23.313,0.108,34.969,0.103
		c5.513-0.002,7.04-1.672,6.971-7.205c-0.038-2.988-0.018-5.977,0.023-8.965c0.072-5.244-1.453-6.817-6.795-6.804
		c-1.826,0.004-3.652,0.265-5.477,0.252c-10.318-0.072-20.641-0.019-30.951-0.357c-6.313-0.207-8.496-2.767-8.744-9.141
		c-0.169-4.334,0.561-8.627,0.725-12.938c0.219-5.717,3.322-6.718,7.445-6.494c10.979,0.598,21.955,0.074,32.928,0.293
		c3.996,0.079,7.984-0.017,11.952-0.546c3.745-0.499,5.415-1.976,5.736-5.672c0.259-2.974,0.12-5.987,0.073-8.981
		c-0.106-6.74-1.637-8.331-8.218-8.314c-8.989,0.024-17.977,0.232-26.966,0.221c-13.818-0.016-27.636-0.195-41.454-0.217
		c-6.508-0.01-8.25,1.863-8.248,8.357C829.002,295.803,828.998,314.121,828.998,332.439z M870.176,937.048c-0.057,0-0.114,0-0.171,0
		c0-11.491,0.008-22.983-0.009-34.474c-0.002-1.663,0.027-3.348-0.222-4.983c-0.498-3.259-2.181-5.402-5.701-5.971
		c-5.142-0.831-10.299-0.747-15.415-0.219c-3.791,0.391-5.103,2.033-5.225,6.045c-0.106,3.475,0.347,6.963,0.372,10.447
		c0.079,10.948,0.073,21.896,0.1,32.844c0.031,12.987,0.02,25.974,0.113,38.961c0.038,5.379,1.395,10.484,3.628,15.384
		c4.472,9.815,12.567,15.742,21.922,20.128c18.537,8.691,36.831,6.446,54.791-1.911c9.735-4.53,16.038-12.269,19.255-22.399
		c2.954-9.299,3.228-18.923,2.803-28.606c-0.503-11.478-0.466-22.971-0.043-34.445c0.368-9.984,0.414-19.945-0.382-29.899
		c-0.299-3.743-1.814-5.184-5.487-6.029c-4.1-0.944-8.263-0.839-12.42-0.796c-6.576,0.067-8.632,2.06-8.689,8.678
		c-0.053,6.151,0.248,12.305,0.332,18.449c0.252,18.638,0.23,37.284-0.366,55.921c-0.048,1.493-0.183,2.987-0.359,4.472
		c-1.059,8.926-5.94,14.416-14.727,16.675c-4.913,1.263-9.888,1.138-14.868,0.709c-10.172-0.875-16.753-6.991-18.545-17.083
		c-0.408-2.299-0.718-4.581-0.708-6.931C870.202,960.359,870.176,948.703,870.176,937.048z M993.824,955.646
		c0.009,0,0.017,0,0.026,0c0,18.986,0.003,37.972-0.003,56.957c-0.001,3.957,0.745,5.233,4.46,6.02
		c3.235,0.685,6.487,1.379,9.869,1.295c6.845-0.171,10.476-3.102,11.668-9.816c0.232-1.305,0.149-2.662,0.329-3.979
		c0.859-6.29,0.096-12.635,0.671-18.93c0.581-6.363,2.587-8.555,8.856-9.288c6.434-0.752,12.92-1.089,19.337-1.95
		c11.975-1.607,22.412-6.253,29.583-16.473c9.617-13.706,9.787-36.686,0.369-50.546c-7.343-10.806-18.023-15.85-30.734-16.968
		c-15.609-1.373-31.271-0.197-46.904-0.795c-5.578-0.213-7.341,1.844-7.52,7.515c-0.047,1.497-0.008,2.998-0.008,4.497
		C993.824,920.673,993.824,938.16,993.824,955.646z M575.336,343.169c-0.075,0-0.149,0-0.224,0c0,13.491,0.018,26.981-0.015,40.472
		c-0.007,2.679,0.26,5.302,0.814,7.921c0.504,2.382,1.914,3.894,4.204,4.383c5.58,1.192,11.237,1.442,16.859,0.457
		c3.474-0.609,4.746-2.297,5.003-5.808c0.097-1.326,0.029-2.664,0.029-3.996c0.001-25.646,0.006-51.293-0.008-76.939
		c-0.002-2.837,0.128-5.641,0.747-8.431c1.163-5.245,3.298-7.445,8.649-8.125c2.961-0.377,5.975-0.401,8.967-0.453
		c4.163-0.073,8.334,0.124,12.489-0.067c4.018-0.185,5.422-1.647,5.334-5.621c-0.085-3.828-0.11-7.643-0.033-11.472
		c0.076-3.815-1.855-5.811-5.621-6.309c-1.147-0.152-2.329-0.095-3.493-0.061c-12.305,0.351-24.615,0.238-36.924,0.555
		c-10.966,0.283-21.953-0.308-32.932-0.481c-4.493-0.07-8.995-0.218-13.479-0.028c-4.075,0.173-6.306,1.98-6.538,5.493
		c-0.285,4.307-0.26,8.663,0.032,12.971c0.213,3.147,2.003,4.717,5.174,5.136c1.458,0.193,3.004,0.095,4.461-0.154
		c6.772-1.159,13.558,0.492,20.368-0.254c3.646-0.399,5.354,1.692,5.863,5.373c0.159,1.151,0.261,2.321,0.262,3.482
		C575.343,315.198,575.336,329.184,575.336,343.169z"/>
	<path style="fill:#B4B1B1;" d="M0.899,31.051c0.036,1.831,0.104,3.662,0.104,5.493c0.005,396.693,0.008,793.387-0.006,1190.08
		c-0.001,16.988-0.166,33.976-0.236,50.964c-0.013,3.159,0.065,6.318,0.101,9.477c-0.29,0.01-0.577-0.012-0.861-0.065
		C0,868.333,0,449.667,0,31C0.301,30.985,0.601,31.002,0.899,31.051z"/>
	<path style="fill:#B7B3B3;" d="M121,0c-0.042,0.295-0.022,0.586,0.06,0.873c-12.794,0.042-25.587,0.108-38.381,0.12
		c-22.103,0.02-44.207,0.011-66.31-0.005c-1.82-0.001-3.639-0.157-5.459-0.241C10.868,0.49,10.898,0.24,11,0
		C47.667,0,84.333,0,121,0z"/>
	<path style="fill:#B7B3B3;" d="M1405.916,0.814c0.005-0.274,0.033-0.545,0.084-0.814c21,0,42,0,63,0
		c-0.05,0.298-0.033,0.591,0.053,0.881C1448.008,0.858,1426.962,0.836,1405.916,0.814z"/>
	<path style="fill:#EDEBEB;" d="M11,0c-0.102,0.24-0.132,0.49-0.09,0.747C10.267,0.84,9.625,0.951,8.98,1.024
		C3.44,1.653,1.87,3.169,0.86,8.879C0.571,8.898,0.284,8.939,0,9c0-3,0-6,0-9C3.667,0,7.333,0,11,0z"/>
	<path style="fill:#8A8686;" d="M0,9c0.284-0.061,0.571-0.102,0.86-0.121C0.873,16.27,0.886,23.66,0.899,31.051
		C0.601,31.002,0.301,30.985,0,31C0,23.667,0,16.333,0,9z"/>
	<path style="fill:#ECEAEA;" d="M354.657,777.395c255.932,0,511.864-0.001,767.796,0.027c1.158,0,2.295,0.448,3.167,1.667
		c0.048,0.091,0.312,0.37,0.335,0.669c0.657,8.523,0.053,9.151-9.015,9.151c-166.313,0.004-332.626,0.003-498.939,0.003
		c-83.157,0-166.313,0-249.47-0.001c-3.157,0-6.314-0.043-9.47-0.012c-4.539,0.045-5.995-1.339-6.072-5.871
		C352.959,781.344,353.015,779.684,354.657,777.395z"/>
	<path style="fill:#EDEBEB;" d="M739.54,508.882c-125.804,0-251.609,0-377.413,0c-1,0-2,0.014-2.999-0.003
		c-5.161-0.087-7.813-4.037-5.827-8.736c1.021-2.417,3.272-2.841,5.432-2.638c7.155,0.669,14.314,0.296,21.467,0.296
		c240.945,0.031,481.889,0.029,722.834,0.002c5.652-0.001,11.302,0.205,16.966-0.275c5.233-0.444,8.188,4.522,5.675,9.13
		c-0.786,1.441-2.181,2.05-3.724,2.164c-1.658,0.122-3.33,0.058-4.996,0.058C991.149,508.882,865.344,508.882,739.54,508.882z"/>
	<path style="fill:#343434;" d="M775.408,955.083c-0.334,13.613-4.726,25.4-15.775,34.001c-17.396,13.542-42.826,9.524-54.642-9.12
		c-9.901-15.621-10.099-32.222-1.224-48.3c7.791-14.113,20.839-19.796,36.527-18.401c16.116,1.433,26.852,10.577,32.536,25.626
		C774.789,944.077,775.406,949.536,775.408,955.083z"/>
	<path style="fill:#363535;" d="M553.984,622.214c0-3.825-0.164-7.66,0.04-11.474c0.272-5.082,2.004-6.697,7.036-7.097
		c7.135-0.567,14.258-0.44,21.239,1.212c8.365,1.98,11.793,6.057,12.492,14.5c0.289,3.491,0.046,6.99-0.837,10.395
		c-1.278,4.928-4.609,7.788-9.336,9.447c-5.778,2.028-11.774,1.826-17.723,2.141c-2.147,0.113-4.32-0.024-6.468-0.201
		c-4.734-0.392-6.134-1.682-6.387-6.451c-0.22-4.146-0.046-8.314-0.046-12.472C553.991,622.214,553.987,622.214,553.984,622.214z"/>
	<path style="fill:#343434;" d="M582.201,951.974c-3.161,0-6.337,0.191-9.48-0.048c-4.091-0.311-5.436-1.836-5.919-5.963
		c-0.019-0.165-0.069-0.33-0.068-0.494c0.049-7.817-0.489-15.613-0.799-23.418c-0.194-4.88,0.617-5.882,5.202-7.082
		c9.45-2.473,18.733-1.793,27.79,1.905c6.714,2.741,8.552,8.547,8.829,14.91c0.524,12.016-5.569,19.887-18.566,20.22
		c-2.328,0.06-4.659,0.008-6.988,0.008C582.201,952,582.201,951.987,582.201,951.974z"/>
	<path style="fill:#373737;" d="M868.177,621.584c0.246-3.569-0.351-7.879,0.588-12.192c0.691-3.177,2.203-5.064,5.423-5.56
		c8.135-1.253,16.234-1.075,24.17,1.126c6.877,1.908,10.361,6.797,10.928,13.811c0.147,1.819,0.159,3.663,0.055,5.486
		c-0.547,9.57-5.251,15.058-14.781,16.442c-5.565,0.808-11.258,1.158-16.879,1.039c-7.153-0.151-8.47-2.191-9.205-7.966
		c-0.084-0.658-0.279-1.312-0.285-1.969C868.161,628.64,868.177,625.479,868.177,621.584z"/>
	<path style="fill:#373737;" d="M1022.005,953.63c-1.328-1.763-1.914-2.965-1.864-4.335c0.336-9.118-0.526-18.253,0.652-27.366
		c0.85-6.573,3.991-8.982,10.922-8.508c3.615,0.247,7.243,0.686,10.85,1.37c12.388,2.35,18.569,11.382,16.151,23.895
		c-1.443,7.469-5.955,12.073-13.117,14.054C1037.778,954.905,1029.827,953.727,1022.005,953.63z"/>
</g>
</svg>
