<?xml version="1.0" encoding="iso-8859-1"?>
<!-- Generator: Adobe Illustrator 27.0.0, SVG Export Plug-In . SVG Version: 6.00 Build 0)  -->
<svg version="1.1" id="Layer_1" xmlns="http://www.w3.org/2000/svg" xmlns:xlink="http://www.w3.org/1999/xlink" x="0px" y="0px"
	 viewBox="0 0 1570.177 893" style="enable-background:new 0 0 1570.177 893;" xml:space="preserve">
<g>
	<path style="fill:#F3CD49;" d="M790.177,893c-5,0-10,0-15,0c-3.333-1.569-6.988-1.494-10.519-1.965
		c-8.886-1.186-17.795-2.195-26.693-3.295c-10.048-1.242-20.089-2.535-30.14-3.754c-9.231-1.12-18.475-2.141-27.706-3.262
		c-10.05-1.22-20.089-2.522-30.137-3.758c-9.063-1.114-18.134-2.17-27.198-3.283c-9.885-1.214-19.761-2.491-29.648-3.688
		c-9.396-1.138-18.804-2.175-28.2-3.315c-9.886-1.199-19.762-2.475-29.644-3.701c-9.227-1.144-18.458-2.251-27.683-3.404
		c-9.388-1.174-18.768-2.41-28.157-3.573c-9.227-1.143-18.464-2.202-27.69-3.346c-9.552-1.185-19.094-2.46-28.647-3.636
		c-9.394-1.156-18.801-2.209-28.195-3.359c-9.719-1.19-19.427-2.471-29.146-3.658c-9.231-1.128-18.473-2.157-27.704-3.281
		c-10.049-1.224-20.09-2.52-30.137-3.76c-9.063-1.118-18.13-2.2-27.195-3.302c-10.051-1.221-20.099-2.465-30.153-3.664
		c-9.564-1.14-19.139-2.188-28.699-3.362c-9.389-1.154-18.761-2.442-28.146-3.622c-7.904-0.994-15.82-1.896-23.725-2.879
		c-5.272-0.655-10.517-1.702-15.807-2.005c-9.799-0.561-19.364-2.775-29.102-3.74c-3.13-0.31-6.28-0.449-9.419-0.943
		c-6.718-1.059-13.506-2.148-20.281-2.259c-12.641-0.207-24.719-2.778-36.478-7.137c-19.448-7.209-35.321-19.057-46.678-36.58
		c-6.803-10.497-10.629-22.093-12.188-34.468C0.04,727.171,0,723.341,0,719.511C0,542.2,0.003,364.889,0.009,187.578
		c0-2.999,0.005-5.999,0.065-8.998c0.35-17.475,6.614-32.869,17.472-46.227c16.372-20.142,38.011-31.458,63.496-35.152
		c12.471-1.808,25.135-2.18,37.619-4.163c10.324-1.641,20.705-2.923,31.058-4.378c11.008-1.548,22.013-3.116,33.021-4.668
		c10.353-1.46,20.708-2.904,31.06-4.367c10.843-1.532,21.684-3.079,32.526-4.62c10.678-1.518,21.355-3.04,32.034-4.556
		c10.35-1.47,20.695-2.979,31.054-4.393c11.019-1.504,22.055-2.878,33.074-4.378c11.165-1.52,22.319-3.125,33.478-4.69
		c10.177-1.428,20.357-2.831,30.531-4.285c10.824-1.547,21.642-3.143,32.463-4.715c8.035-1.167,16.068-2.346,24.105-3.493
		c8.204-1.171,16.411-2.319,24.62-3.459c8.365-1.161,16.735-2.289,25.1-3.451c8.535-1.186,17.066-2.402,25.6-3.596
		c8.198-1.147,16.401-2.267,24.597-3.425c8.203-1.159,16.396-2.384,24.601-3.522c8.365-1.16,16.745-2.216,25.11-3.377
		c10.992-1.526,21.977-3.102,32.963-4.672c8.194-1.171,16.383-2.381,24.578-3.544c10.481-1.487,20.934-3.276,31.462-4.293
		c6.429-0.621,12.809-1.55,19.19-2.397c15.431-2.047,30.837-4.337,46.181-6.95c4.032-0.687,8.255-0.078,12.111-1.809
		c3.667,0,7.333,0,11,0c0.209,0.242,0.392,0.665,0.63,0.698c10.517,1.464,21.042,2.868,31.558,4.335
		c10.681,1.49,21.354,3.045,32.031,4.56c10.351,1.469,20.701,2.946,31.057,4.378c10.686,1.478,21.383,2.881,32.068,4.363
		c11.011,1.527,22.011,3.13,33.021,4.66c10.685,1.485,21.38,2.902,32.066,4.382c11.011,1.525,22.016,3.103,33.026,4.636
		c8.383,1.168,16.774,2.277,25.155,3.458c10.515,1.481,21.023,3.012,31.535,4.515c10.677,1.527,21.354,3.046,32.032,4.567
		c10.35,1.474,20.696,2.973,31.05,4.413c10.685,1.486,21.38,2.895,32.066,4.375c11.176,1.548,22.343,3.157,33.518,4.707
		c10.521,1.459,21.05,2.859,31.572,4.316c11.011,1.525,22.018,3.084,33.026,4.635c8.708,1.227,17.403,2.551,26.125,3.669
		c6.915,0.887,13.758,2.444,20.655,3.111c13.73,1.329,27.268,3.906,40.945,5.539c12.844,1.533,25.599,3.793,38.414,5.587
		c13.314,1.864,26.676,3.395,39.975,5.355c17.239,2.541,34.474,5.044,51.833,6.657c15.599,1.45,30.389,5.823,43.634,14.227
		c25.19,15.983,41.15,37.86,42.17,68.777c-0.049,3.826-0.142,7.652-0.142,11.478c-0.012,177.064-0.016,354.129-0.014,531.193
		c0,1.495,0.101,2.989,0.155,4.484c-0.952,19.984-8.867,37.059-22.479,51.367c-16.585,17.434-37.524,26.297-61.097,29.692
		c-5.467,0.787-10.952,0.525-16.395,1.232c-9.709,1.261-19.428,2.445-29.145,3.641c-9.224,1.135-18.453,2.232-27.677,3.368
		c-9.717,1.197-19.429,2.429-29.146,3.629c-9.881,1.221-19.763,2.429-29.646,3.628c-9.227,1.119-18.454,2.242-27.685,3.322
		c-9.728,1.139-19.465,2.197-29.191,3.352c-10.051,1.194-20.09,2.484-30.139,3.691c-9.23,1.109-18.471,2.122-27.699,3.252
		c-9.88,1.21-19.748,2.526-29.626,3.761c-8.893,1.112-17.794,2.167-26.689,3.269c-9.88,1.224-19.753,2.5-29.635,3.702
		c-9.393,1.142-18.798,2.183-28.19,3.331c-9.717,1.188-19.422,2.471-29.136,3.675c-6.753,0.837-13.517,1.586-20.271,2.415
		c-9.553,1.174-19.097,2.413-28.651,3.574c-9.391,1.142-18.793,2.197-28.185,3.335c-9.883,1.198-19.757,2.471-29.641,3.668
		c-9.393,1.138-18.795,2.197-28.188,3.333c-10.048,1.215-20.091,2.483-30.136,3.723c-6.424,0.793-12.849,1.572-19.273,2.365
		c-9.717,1.2-19.432,2.413-29.15,3.609c-9.224,1.135-18.452,2.239-27.674,3.386c-9.55,1.187-19.095,2.414-28.643,3.615
		c-8.727,1.098-17.506,1.903-26.158,3.424C796.596,891.999,793.12,891.013,790.177,893z M19.829,452.299
		c0,59.165,0,118.33,0,177.495c0,30.499,0.001,60.998,0,91.497c0,7.343,0.478,14.582,3.093,21.587
		c7.436,19.919,22.337,32.083,41.247,40.205c11.526,4.95,23.778,5.983,36.064,6.788c13.12,0.859,26.048,3.286,39.114,4.595
		c9.586,0.96,19.127,2.365,28.692,3.539c9.403,1.154,18.812,2.258,28.217,3.397c9.897,1.198,19.79,2.424,29.687,3.614
		c9.407,1.131,18.82,2.208,28.225,3.349c9.733,1.181,19.46,2.399,29.188,3.621c9.561,1.2,19.118,2.442,28.68,3.634
		c9.233,1.151,18.47,2.266,27.707,3.387c9.24,1.121,18.484,2.218,27.723,3.347c9.896,1.209,19.788,2.454,29.684,3.665
		c9.404,1.151,18.812,2.263,28.215,3.418c9.565,1.175,19.124,2.402,28.69,3.567c9.405,1.145,18.82,2.208,28.224,3.367
		c9.398,1.158,18.782,2.432,28.182,3.578c9.57,1.167,19.154,2.21,28.726,3.361c10.063,1.21,20.119,2.477,30.177,3.732
		c9.564,1.193,19.125,2.418,28.69,3.599c9.237,1.141,18.478,2.242,27.717,3.363c9.239,1.121,18.48,2.221,27.715,3.373
		c9.397,1.172,18.781,2.442,28.181,3.586c9.735,1.184,19.486,2.239,29.224,3.405c9.734,1.166,19.462,2.393,29.191,3.605
		c9.892,1.232,19.768,2.615,29.679,3.666c5.613,0.595,11.212,1.908,16.898,1.266c8.912-1.006,17.802-2.201,26.705-3.292
		c9.897-1.213,19.796-2.416,29.698-3.591c9.573-1.136,19.154-2.205,28.726-3.348c10.064-1.203,20.122-2.462,30.183-3.69
		c9.074-1.108,18.149-2.2,27.222-3.315c9.895-1.216,19.787-2.456,29.681-3.677c9.73-1.202,19.461-2.395,29.191-3.591
		c9.237-1.135,18.473-2.284,27.713-3.399c9.24-1.115,18.488-2.168,27.726-3.296c9.896-1.209,19.782-2.496,29.678-3.709
		c9.238-1.132,18.484-2.195,27.723-3.32c9.896-1.205,19.786-2.464,29.682-3.67c9.403-1.146,18.812-2.245,28.217-3.382
		c9.898-1.196,19.792-2.429,29.692-3.615c9.406-1.127,18.82-2.189,28.225-3.326c9.896-1.197,19.785-2.456,29.678-3.674
		c9.234-1.136,18.473-2.242,27.707-3.382c9.731-1.201,19.457-2.437,29.188-3.636c9.236-1.138,18.477-2.23,27.712-3.374
		c9.565-1.185,19.121-2.437,28.688-3.606c9.239-1.128,18.488-2.169,27.729-3.282c10.228-1.232,20.452-2.498,30.676-3.757
		c9.566-1.178,19.126-2.406,28.697-3.538c9.906-1.172,19.798-2.593,29.74-3.283c9.88-0.686,19.448-2.41,28.581-6.204
		c12.81-5.321,24.019-12.939,32.506-24.065c8.24-10.802,11.996-23.049,11.933-36.714c-0.177-38.831-0.062-77.664-0.061-116.497
		c0.004-139.996,0.01-279.992,0.006-419.988c0-4.827,0.124-9.677-0.771-14.445c-3.62-19.279-15.108-32.948-31.295-43.016
		c-12.066-7.505-25.44-11.132-39.562-12.278c-7.624-0.619-15.241-1.403-22.828-2.38c-10.87-1.399-21.71-3.036-32.561-4.583
		c-10.688-1.524-21.373-3.071-32.061-4.59c-10.362-1.472-20.725-2.93-31.091-4.374c-10.529-1.467-21.062-2.899-31.59-4.367
		c-11.021-1.536-22.04-3.098-33.059-4.647c-10.856-1.526-21.71-3.06-32.568-4.57c-10.695-1.487-21.395-2.937-32.09-4.426
		c-10.858-1.512-21.716-3.031-32.568-4.584c-10.029-1.435-20.043-2.975-30.078-4.366c-11.026-1.528-22.072-2.909-33.102-4.409
		c-11.191-1.522-22.372-3.108-33.557-4.671c-10.858-1.517-21.713-3.053-32.572-4.56c-10.695-1.484-21.395-2.939-32.092-4.414
		c-10.697-1.475-21.396-2.938-32.088-4.445c-10.525-1.483-21.04-3.032-31.565-4.52c-12.83-1.814-25.667-3.583-38.498-5.39
		c-10.855-1.528-21.702-3.112-32.561-4.617c-10.697-1.482-21.409-2.856-32.104-4.35c-13.159-1.838-26.305-3.767-39.461-5.629
		c-11.347-1.606-22.686-3.28-34.056-4.705c-4.93-0.618-9.834-1.902-14.877-1.247c-8.237,1.07-16.477,2.121-24.707,3.249
		c-11.025,1.512-22.041,3.088-33.061,4.638c-10.856,1.527-21.711,3.057-32.567,4.581c-10.529,1.478-21.06,2.939-31.587,4.428
		c-10.691,1.513-21.377,3.061-32.067,4.577c-10.525,1.493-21.053,2.96-31.579,4.446c-10.361,1.463-20.72,2.938-31.081,4.4
		c-10.855,1.532-21.708,3.075-32.567,4.575c-10.696,1.477-21.401,2.891-32.098,4.361c-11.19,1.538-22.373,3.12-33.561,4.667
		c-10.532,1.457-21.071,2.862-31.599,4.351c-10.524,1.488-21.033,3.083-31.557,4.573c-12.83,1.817-25.671,3.556-38.502,5.359
		c-11.02,1.548-22.032,3.149-33.05,4.708c-10.361,1.466-20.729,2.887-31.089,4.364c-10.525,1.5-21.039,3.08-31.566,4.561
		c-10.691,1.504-21.397,2.899-32.089,4.399c-13.159,1.846-26.305,3.788-39.466,5.619c-10.695,1.488-21.412,2.821-32.106,4.316
		c-13.159,1.84-26.289,3.896-39.46,5.642c-13.507,1.791-27.054,3.279-40.574,4.974c-20.826,2.612-38.282,11.668-51.889,27.724
		c-7.727,9.117-12.139,19.684-12.996,31.717c-0.415,5.833-0.199,11.65-0.199,17.475C19.83,279.971,19.829,366.135,19.829,452.299z"
		/>
	<path style="fill:#FCEBBF;" d="M1570.177,727c-0.279,0.03-0.558,0.056-0.838,0.078c-0.054-1.495-0.155-2.989-0.155-4.484
		c-0.002-177.064,0.002-354.129,0.014-531.193c0-3.826,0.093-7.652,0.142-11.478c0.28,0.018,0.559,0.044,0.838,0.078
		C1570.177,362.333,1570.177,544.667,1570.177,727z"/>
	<path style="fill:#272425;" d="M19.829,452.299c0-86.164,0-172.329,0-258.493c0-5.825-0.216-11.642,0.199-17.475
		c0.857-12.032,5.27-22.6,12.996-31.717c13.608-16.056,31.063-25.112,51.889-27.724c13.52-1.696,27.067-3.183,40.574-4.974
		c13.171-1.746,26.301-3.802,39.46-5.642c10.694-1.496,21.411-2.829,32.106-4.316c13.161-1.831,26.307-3.773,39.466-5.619
		c10.692-1.5,21.398-2.895,32.089-4.399c10.528-1.481,21.041-3.06,31.566-4.561c10.36-1.477,20.727-2.898,31.089-4.364
		c11.018-1.559,22.03-3.16,33.05-4.708c12.832-1.803,25.672-3.543,38.502-5.359c10.524-1.49,21.033-3.085,31.557-4.573
		c10.527-1.489,21.067-2.894,31.599-4.351c11.188-1.548,22.372-3.129,33.561-4.667c10.697-1.471,21.402-2.884,32.098-4.361
		c10.859-1.5,21.712-3.043,32.567-4.575c10.361-1.462,20.72-2.938,31.081-4.4c10.526-1.486,21.054-2.954,31.579-4.446
		c10.69-1.516,21.376-3.064,32.067-4.577c10.527-1.49,21.058-2.95,31.587-4.428c10.856-1.524,21.711-3.055,32.567-4.581
		c11.02-1.55,22.036-3.127,33.061-4.638c8.229-1.128,16.469-2.179,24.707-3.249c5.043-0.655,9.947,0.629,14.877,1.247
		c11.37,1.425,22.709,3.099,34.056,4.705c13.156,1.862,26.302,3.791,39.461,5.629c10.695,1.494,21.407,2.868,32.104,4.35
		c10.858,1.505,21.706,3.088,32.561,4.617c12.831,1.807,25.668,3.576,38.498,5.39c10.524,1.488,21.04,3.037,31.565,4.52
		c10.693,1.507,21.391,2.97,32.088,4.445c10.697,1.475,21.396,2.93,32.092,4.414c10.859,1.507,21.714,3.042,32.572,4.56
		c11.185,1.563,22.367,3.149,33.557,4.671c11.03,1.5,22.076,2.881,33.102,4.409c10.035,1.391,20.049,2.931,30.078,4.366
		c10.853,1.553,21.71,3.072,32.568,4.584c10.695,1.489,21.395,2.939,32.09,4.426c10.858,1.51,21.712,3.044,32.568,4.57
		c11.02,1.549,22.038,3.11,33.059,4.647c10.528,1.468,21.062,2.9,31.59,4.367c10.365,1.444,20.729,2.902,31.091,4.374
		c10.689,1.518,21.373,3.066,32.061,4.59c10.851,1.547,21.691,3.184,32.561,4.583c7.586,0.977,15.204,1.761,22.828,2.38
		c14.123,1.146,27.496,4.773,39.562,12.278c16.187,10.068,27.675,23.738,31.295,43.016c0.896,4.769,0.771,9.618,0.771,14.445
		c0.003,139.996-0.003,279.992-0.006,419.988c-0.001,38.832-0.116,77.665,0.061,116.497c0.062,13.665-3.694,25.912-11.933,36.714
		c-8.487,11.126-19.696,18.743-32.506,24.065c-9.132,3.794-18.7,5.518-28.581,6.204c-9.942,0.69-19.834,2.111-29.74,3.283
		c-9.571,1.133-19.131,2.36-28.697,3.538c-10.225,1.259-20.448,2.525-30.676,3.757c-9.241,1.113-18.49,2.154-27.729,3.282
		c-9.567,1.169-19.123,2.421-28.688,3.606c-9.235,1.144-18.476,2.236-27.712,3.374c-9.731,1.199-19.458,2.435-29.188,3.636
		c-9.234,1.139-18.472,2.245-27.707,3.382c-9.894,1.217-19.782,2.477-29.678,3.674c-9.405,1.137-18.819,2.199-28.225,3.326
		c-9.9,1.186-19.794,2.419-29.692,3.615c-9.405,1.137-18.814,2.236-28.217,3.382c-9.896,1.206-19.786,2.465-29.682,3.67
		c-9.239,1.125-18.485,2.188-27.723,3.32c-9.896,1.213-19.782,2.5-29.678,3.709c-9.238,1.129-18.486,2.182-27.726,3.296
		c-9.24,1.115-18.475,2.264-27.713,3.399c-9.73,1.196-19.461,2.389-29.191,3.591c-9.894,1.222-19.786,2.461-29.681,3.677
		c-9.073,1.115-18.148,2.207-27.222,3.315c-10.061,1.229-20.119,2.488-30.183,3.69c-9.572,1.144-19.153,2.213-28.726,3.348
		c-9.902,1.175-19.801,2.378-29.698,3.591c-8.903,1.091-17.793,2.286-26.705,3.292c-5.686,0.642-11.285-0.67-16.898-1.266
		c-9.911-1.051-19.787-2.434-29.679-3.666c-9.729-1.212-19.456-2.439-29.191-3.605c-9.738-1.166-19.489-2.221-29.224-3.405
		c-9.4-1.144-18.784-2.413-28.181-3.586c-9.235-1.152-18.476-2.253-27.715-3.373c-9.239-1.121-18.48-2.222-27.717-3.363
		c-9.566-1.181-19.126-2.406-28.69-3.599c-10.058-1.255-20.114-2.522-30.177-3.732c-9.571-1.151-19.156-2.194-28.726-3.361
		c-9.4-1.146-18.784-2.42-28.182-3.578c-9.403-1.159-18.819-2.222-28.224-3.367c-9.566-1.165-19.125-2.392-28.69-3.567
		c-9.403-1.155-18.811-2.268-28.215-3.418c-9.896-1.211-19.788-2.455-29.684-3.665c-9.239-1.129-18.483-2.226-27.723-3.347
		c-9.237-1.121-18.474-2.236-27.707-3.387c-9.563-1.192-19.119-2.434-28.68-3.634c-9.728-1.221-19.456-2.44-29.188-3.621
		c-9.405-1.141-18.819-2.218-28.225-3.349c-9.898-1.19-19.791-2.415-29.687-3.614c-9.405-1.139-18.814-2.243-28.217-3.397
		c-9.565-1.174-19.106-2.579-28.692-3.539c-13.066-1.309-25.995-3.735-39.114-4.595c-12.286-0.805-24.538-1.838-36.064-6.788
		c-18.91-8.122-33.811-20.286-41.247-40.205c-2.615-7.005-3.093-14.243-3.093-21.587c0.001-30.499,0-60.998,0-91.497
		C19.829,570.629,19.829,511.464,19.829,452.299z M306.191,340.026c-1.023-1.72-3.473-1.828-4.282-3.79
		c1.943-0.437,3.935-0.726,5.822-1.336c10.238-3.309,18.701-8.707,22.251-19.6c2.325-7.137,3.766-14.5,4.068-21.968
		c0.351-8.652,0.392-17.341,0.02-25.99c-0.435-10.142-1.902-20.192-5.868-29.654c-6.556-15.642-18.137-25.183-35.021-27.66
		c-13.581-1.993-27.285-1.175-40.921-0.677c-12.966,0.474-25.905,1.676-38.856,2.559c-10.954,0.747-21.91,1.471-32.86,2.273
		c-1.758,0.129-3.489,0.619-5.003,0.899c0,91.821,0,183.213,0,274.647c23.829-2.006,47.335-3.432,70.837-5.628
		c0.762-41.635,0.304-82.57,0.585-123.795c3.378-0.324,6.352-0.409,9.291,0.009c5.444,0.774,9.181,3.479,10.228,9.269
		c0.979,5.414,1.618,10.84,1.619,16.346c0.003,30.499,0.014,60.997,0.068,91.495c0.003,1.772-0.505,3.646,0.437,5.246
		c21.825-1.37,43.517-2.731,65.172-4.089c0.688-1.793,0.464-3.298,0.465-4.765c0.007-27.499,0.037-54.997-0.035-82.496
		c-0.018-6.984,0.12-13.959-0.89-20.943c-1.864-12.89-8.383-22.145-20.239-27.569C310.829,341.779,308.489,340.948,306.191,340.026z
		 M607.597,193.31c1.315,11.484-0.539,22.59,0.271,33.767c0.732,10.107-0.068,20.281,0.004,30.433
		c0.328,46.657,0.167,93.318,0.155,139.977c-0.002,6.657-0.186,13.314-0.219,19.971c-0.066,13.157,0.686,26.317-0.27,39.473
		c-0.249,3.422-0.439,6.917,1.042,10.319c19.609-0.146,39.021-0.255,58.418-1.165c0.733-2.093,0.424-3.933,0.425-5.726
		c0.01-34.995-0.019-69.989-0.003-104.984c0.002-3.277-0.445-6.643,1.135-9.979c12.031,40.354,23.989,80.461,35.858,120.272
		c21.189,0,41.785,0,62.466,0c0-91.716,0-183.1,0-274.49c-19.883,0-39.465,0-59.256,0c-0.667,2.835-0.501,5.494-0.504,8.122
		c-0.02,17.831,0.019,35.661-0.007,53.492c-0.025,17.663-0.083,35.327-0.197,52.99c-0.008,1.293,0.537,2.894-0.946,4.175
		c-12.814-39.529-25.523-78.733-38.282-118.092C647.649,192.355,628.016,191.212,607.597,193.31z M1361.94,343.702
		c1.662-1.515,3.788-1.48,5.904-1.682c10.172-0.97,20.094-6.787,23.435-17.873c2.378-7.889,3.196-15.967,3.648-24.067
		c0.677-12.145,0.273-24.295-1.757-36.333c-1.443-8.556-3.552-16.939-8.238-24.357c-7.037-11.138-16.248-19.597-29.253-23.457
		c-13.796-4.095-28.05-5.173-42.208-6.919c-9.411-1.161-18.875-1.719-28.342-2.249c-14.784-0.828-29.558-1.841-44.34-2.718
		c-1.43-0.085-2.956-0.466-4.505,0.434c0,91.211,0,182.439,0,274.064c23.632,1.531,47.083,3.05,71.087,4.605
		c0-41.708,0-82.759,0-124.167c3.964,0.805,7.407,1.343,10.76,2.222c4.976,1.305,7.991,4.676,8.83,9.719
		c0.597,3.595,1.302,7.175,1.3,10.878c-0.016,26.656,0.016,53.312,0.14,79.968c0.035,7.607,0.425,15.212,0.653,22.828
		c21.894,1.67,43.369,3.309,65.047,4.963c1.061-3.703,1.04-7.367,1.001-10.992c-0.335-30.977,0.754-61.959-0.719-92.935
		c-0.58-12.205-5.36-22.078-14.125-30.289c-4.208-3.942-9.517-5.972-14.516-8.563
		C1364.375,346.075,1362.386,346.005,1361.94,343.702z M994.009,295.141c0.125-1.241,0.245-1.871,0.243-2.501
		c-0.026-12.818,0.46-25.661-1.165-38.421c-1.111-8.722-2.501-17.387-5.817-25.645c-5.28-13.15-15.177-22.08-26.816-29.269
		c-12.051-7.444-25.257-11.498-39.442-12.667c-15.887-1.309-31.596-1.181-46.758,4.409c-13.915,5.131-25.336,13.729-34.183,25.683
		c-6.693,9.044-8.713,19.67-9.74,30.442c-1.406,14.743-2.099,29.537-2.033,44.372c0.127,28.49-0.094,56.981,0.032,85.471
		c0.06,13.468,0.353,26.973,2.911,40.249c2.336,12.118,7.32,23.096,15.886,32.167c15.742,16.67,35.36,23.845,57.977,22.374
		c12.883-0.838,24.097-5.971,32.406-16.372c1.72-2.153,3.515-4.246,5.687-6.864c2.238,6.628,4.283,12.686,6.439,19.072
		c14.923,0,29.647,0,44.346,0c0-48.952,0-97.686,0-146.915c-27.836-0.611-55.383-1.216-83.04-1.824
		c-0.279,14.332-0.726,27.933-0.158,41.556c4.936,1.038,9.671-0.18,14.446,1.289c0,5.911-0.006,11.722,0.001,17.533
		c0.014,10.657,0.147,21.314-1.017,31.94c-0.387,3.53-1.155,6.926-3.087,9.885c-2.405,3.683-6.174,5.189-10.357,4.642
		c-4.136-0.541-7.387-2.606-8.656-7.122c-1.506-5.358-1.881-10.784-1.879-16.295c0.014-49.483,0.022-98.967-0.032-148.45
		c-0.004-4.028,0.615-7.966,1.154-11.911c0.485-3.545,1.97-6.692,5.229-8.699c9.495-1.164,14.513-0.442,15.507,12.489
		c0.983,12.791,1.248,25.611,1.027,38.439c-0.048,2.804-0.007,5.61-0.007,8.747C946.924,294.387,970.416,293.585,994.009,295.141z
		 M560.861,468.86c-6.49-46.063-13.669-91.459-20.294-136.935c-6.62-45.443-13.371-90.866-20.614-136.373
		c-34.557,0.805-68.471,2.21-103.079,3.694c-12.16,92.212-24.302,184.295-36.498,276.78c24.917-1.141,49.309-2.257,74.128-3.393
		c1.384-16.358,2.753-32.552,4.118-48.689c4.808-1.428,20.063-2.196,25.365-1.279c1.715,16.044,2.171,32.261,4.2,48.532
		C512.473,470.416,536.079,469.657,560.861,468.86z M1056.769,470.064c41.319,1.764,82.465,3.521,123.778,5.285
		c0-18.609,0-36.515,0-54.828c-17.478-0.866-34.677-1.718-51.929-2.573c0-20.209,0-39.931,0-59.906
		c14.9-0.242,29.422,1.942,44.271,1.729c0-17.471,0-34.557,0-52.198c-14.798-1.058-29.57-0.956-44.244-2.372
		c0-17.381,0-34.295,0-51.359c15.914-0.571,31.448,1.878,47.197,1.177c0-18.251,0-36.164,0-54.673
		c-39.739-1.629-79.245-3.249-119.073-4.882C1056.769,287.201,1056.769,378.422,1056.769,470.064z M784.865,660.619
		c-8.121,14.453-14.048,28.713-21.19,42.27c-15.26,2.244-30.296,4.456-46.438,6.83c11.52,11.384,22.343,22.08,33.265,32.873
		c-1.465,15.601-5.634,30.606-7.219,46.548c12.072-6.393,23.603-12.293,34.913-18.59c4.582-2.551,8.471-2.486,13.011,0.052
		c10.145,5.672,20.498,10.974,30.803,16.356c1.203,0.628,2.291,1.791,4.154,1.469c-0.833-5.143-1.616-10.209-2.479-15.26
		c-1.454-8.507-2.934-17.009-4.455-25.504c-0.633-3.534,0.185-6.15,3.032-8.793c9.279-8.615,18.199-17.616,27.239-26.486
		c0.768-0.753,2.058-1.359,1.23-2.875c-15.075-2.216-30.166-4.434-45.181-6.641C798.735,688.948,792.036,675.266,784.865,660.619z
		 M296.378,607.85c1.993-12.626-1.368-24.982,1.141-37.476c6.286,13.052,13.39,25.137,20.138,37.568
		c4.533-0.112,8.956,0.471,13.315-0.331c0-18.776,0-37.213,0-55.865c-3.976-0.162-7.742-0.458-11.548,0.23
		c0,11.426,0,22.688,0,33.949c-6.337-11.402-12.495-22.786-19.642-33.808c-4.84-0.69-9.743-0.738-14.614-0.274
		c-0.919,7.821-0.589,52.44,0.394,56.007C289.014,607.85,292.488,607.85,296.378,607.85z M579.347,597.022
		c-2.014,0.95-3.867,0.52-5.657,0.539c-7.416,0.08-12.49-3.347-15.577-10.131c-1.476-3.245-0.903-6.503-1.005-9.774
		c-0.172-5.475,2.4-9.508,6.82-12.489c3.875-2.614,8.154-3.502,12.768-2.87c3.73,0.511,7.46,1.018,11.145,1.521
		c1.682-3.859,2.251-7.103,1.859-10.69c-7.239-1.764-14.547-2.172-22.04-1.234c-9.01,1.129-15.822,5.412-20.605,13.021
		c-3.492,5.555-4.093,11.708-3.948,18.135c0.18,7.966,5.59,19.409,16.089,23.044c11.136,3.856,22.008,2.451,32.835-0.513
		c0.691-10.359,0.738-20.271,0.432-30.093c-7.307,0-14.046,0-20.913,0c-0.391,3.455-0.324,6.54-0.1,9.635
		c2.795,0.927,5.565-0.428,8.239,0.949C580.455,589.767,580.489,593.457,579.347,597.022z M942.549,552.265
		c0,18.763,0,36.997,0,55.442c4.295,0,8.335,0,12.775,0c0-7.346,0-14.418,0-21.498c0.873-0.094,1.349-0.186,1.827-0.191
		c6.299-0.075,8.099,1.218,9.956,7.328c1.378,4.531,1.998,9.285,3.908,13.958c4.39,1.322,8.82,0.46,13.79,0.648
		c-3.247-9.297-3.193-19.315-10.649-26.617c1.646-1.459,3.374-2.773,4.842-4.332c4.171-4.429,4.825-9.77,2.829-15.204
		c-2.025-5.51-6.335-9.054-12.191-9.692C960.734,551.137,951.782,551.4,942.549,552.265z M460.508,552.171
		c0,18.809,0,37.192,0,55.541c4.261,0,8.181,0,12.625,0c0-7.331,0-14.405,0-21.612c3.179-0.205,5.765-0.019,8.247,0.889
		c4.673,5.897,4.394,13.462,7.155,20.009c4.473,1.816,9.009,0.687,13.884,1.01c-1.212-4.357-2.328-7.975-3.213-11.648
		c-1.352-5.61-2.857-11.104-7.84-14.925c1.348-1.017,2.427-1.776,3.447-2.609c4.969-4.059,6.814-9.553,4.603-16.535
		c-2.058-6.498-6.931-9.802-13.711-10.326C477.399,551.323,469.123,551.618,460.508,552.171z M1298.901,562.723
		c0-3.736,0-7.167,0-10.593c-4.296-0.776-30.333-0.746-34.283,0.034c-0.914,8.862-0.53,52.252,0.505,55.676
		c10.81,0,21.631,0.015,32.452-0.03c0.786-0.003,1.571-0.435,2.323-0.658c0-3.401,0-6.649,0-10.308c-7.683,0-15.089,0-22.419,0
		c0-4.497,0-8.566,0-12.924c6.742,0,13.193,0,19.543,0c1.514-5.038,1.472-5.669-0.669-10.436c-6.172,0-12.462,0-18.906,0
		c-0.289-3.662-0.606-7.067,0.192-10.759C1284.761,562.723,1291.705,562.723,1298.901,562.723z M1022.995,551.828
		c5.959,18.662,11.796,36.942,17.681,55.373c4.971,1.461,10.097,0.574,15.397,0.73c6.266-18.641,12.468-37.091,18.781-55.875
		c-4.972-0.755-9.367-0.587-13.978-0.197c-3.944,13.507-7.838,26.843-11.732,40.179c-3.549-13.517-8.061-26.41-11.496-39.765
		C1032.909,551.299,1028.197,551.466,1022.995,551.828z M894.847,573.549c-7.139,0-13.737,0-20.511,0
		c-0.079-3.809-0.579-7.217,0.394-10.974c7.057,0,13.979,0,21.069,0c0.252-3.804,0.651-7.205-0.207-10.682
		c-11.442,0-22.691,0-34.096,0c0,18.76,0,37.282,0,55.761c12.019,0,23.73,0,35.612,0c-0.072-3.734,0.45-7.155-0.431-10.919
		c-7.582,0-14.982,0-22.491,0c0.182-4.481-0.426-8.58,0.45-12.902c6.823,0,13.424,0,20.212,0
		C894.847,580.457,894.847,577.381,894.847,573.549z M379.078,607.751c11.985,0,23.716,0,35.857,0
		c0.034-3.638,0.659-7.049-0.772-10.817c-7.189,0-14.441,0-21.756,0c0-4.487,0-8.552,0-13.009c6.642,0,13.051,0,19.798,0
		c-0.183-3.642,0.366-6.895-0.54-10.528c-6.489,0-12.903,0-19.247,0c0-3.692,0-6.96,0-10.591c7.002,0,13.757,0,20.419,0
		c0.971-4.71,0.94-7.195-0.024-10.805c-11.257,0-22.481,0-33.735,0C379.078,570.744,379.078,589.144,379.078,607.751z
		 M238.423,551.893c-11.629,0-22.857,0-34.256,0c0,18.749,0,37.267,0,55.794c11.919,0,23.492,0,35.218,0
		c-0.005-3.7,0.726-7.134-0.495-10.617c-7.427-0.28-14.698,0.239-22.03-0.332c-0.482-4.599-0.511-8.505-0.01-12.804
		c6.788,0,13.378,0,20.343,0c-0.22-3.626,0.415-6.871-0.509-10.117c-6.739-0.502-13.367,0.285-20.013-0.463
		c-0.035-3.784-0.588-7.049,0.446-10.629c7.06,0,13.998,0,21.042,0C238.791,558.93,238.517,555.529,238.423,551.893z
		 M1343.271,605.417c9.358,3.816,18.654,4.87,28.08,1.174c8.353-3.276,12.581-12.29,9.74-20.757
		c-1.627-4.847-5.438-7.809-9.951-9.865c-3.147-1.434-6.379-2.682-9.544-4.078c-2.571-1.135-4.524-2.786-4.375-6.367
		c5.712-7.024,12.683-2.883,19.57-1.525c0.737-3.595,2.678-6.775,2.396-10.391c-4.222-2.453-8.712-2.901-13.119-2.924
		c-6.717-0.034-12.91,1.228-18.084,6.518c-5.4,5.522-5.92,16.179,1.341,21.968c2.622,2.09,5.558,3.569,8.644,4.797
		c3.526,1.403,7.079,2.752,9.934,5.229c0.421,6.49-2.063,9.105-8.245,8.781c-0.99-0.052-1.986-0.205-2.955-0.424
		c-3.66-0.825-7.309-1.696-10.994-2.557C1344.154,598.408,1343.932,601.843,1343.271,605.417z M801.756,589.114
		c0.975,5.892-0.614,8.155-6.218,8.839c-1.49,0.182-2.976-0.223-4.456-0.322c-3.807-0.254-7.191-2.29-11.308-2.677
		c-0.892,3.611-1.736,7.031-2.6,10.528c10.034,3.621,19.617,5.065,29.328,0.584c7.408-3.418,11.009-11.625,8.833-19.463
		c-1.699-6.121-6.211-9.156-11.534-11.459c-3.914-1.694-8.076-2.877-11.409-5.555c-0.444-1.738-1.183-3.295-0.462-4.998
		c1.037-1.415,2.568-2.293,4.159-2.507c4.969-0.669,9.838,0.072,14.628,2.039c1.431-3.646,2.529-7.033,2.696-10.605
		c-2.283-1.423-4.789-1.774-7.15-2.317c-2.556-0.589-5.282-0.59-7.933-0.585c-4.014,0.007-7.78,1.024-11.373,2.937
		c-10.833,5.766-12.486,20.493-0.844,27.405c2.676,1.589,5.601,2.79,8.493,3.971C797.229,586.001,799.736,587.188,801.756,589.114z
		 M1216.831,563.494c2.688-5.581,2.738-5.895,1.685-11.008c-5.323-1.656-10.836-1.86-16.503-1.559
		c-9.916,0.528-21.845,7.606-25.3,19.803c-2.008,7.087-1.909,14.074,0.513,20.984c2.233,6.371,6.349,11.223,12.591,13.965
		c9.655,4.241,19.445,4.071,29.752,0.604c-1.42-3.395-0.817-7.006-2.435-10.046c-3.091,0.52-5.829,1.273-8.594,1.392
		c-9.292,0.401-16.921-2.939-19.109-13.922c-2.54-12.753,5.83-22.437,18.761-21.817
		C1211.177,562.035,1213.904,563.248,1216.831,563.494z M634.217,552.218c4.535,8.4,8.807,16.6,13.361,24.642
		c2.93,5.174,4.662,10.459,4.243,16.508c-0.33,4.76-0.066,9.562-0.066,14.443c4.525,0.213,8.468,0.363,12.845-0.11
		c0-6.273,0.136-12.414-0.056-18.545c-0.099-3.143,0.808-5.751,2.364-8.415c5.478-9.375,10.78-18.853,16.239-28.452
		c-5.21-1.084-10.104-0.908-14.974,0.025c-3.073,7.41-6.069,14.632-9.323,22.48c-3.384-8.073-6.433-15.344-9.505-22.673
		C644.298,551.262,639.534,551.43,634.217,552.218z M1130.787,607.477c0-18.802,0-37.051,0-55.249
		c-5.453-0.966-8.215-0.885-13.33,0.318c0,18.249,0,36.482,0,54.905C1121.966,608.263,1126.188,608.244,1130.787,607.477z"/>
	<path style="fill:#F6CF47;" d="M607.597,193.31c20.418-2.098,40.052-0.955,60.09-1.444c12.759,39.358,25.468,78.562,38.282,118.092
		c1.483-1.281,0.937-2.882,0.946-4.175c0.114-17.663,0.172-35.326,0.197-52.99c0.025-17.831-0.014-35.661,0.007-53.492
		c0.003-2.628-0.163-5.287,0.504-8.122c19.791,0,39.373,0,59.256,0c0,91.389,0,182.774,0,274.49c-20.681,0-41.277,0-62.466,0
		c-11.87-39.812-23.827-79.918-35.858-120.272c-1.58,3.336-1.134,6.701-1.135,9.979c-0.017,34.995,0.013,69.989,0.003,104.984
		c0,1.793,0.308,3.633-0.425,5.726c-19.397,0.909-38.809,1.018-58.418,1.165c-1.48-3.402-1.291-6.897-1.042-10.319
		c0.956-13.156,0.204-26.316,0.27-39.473c0.033-6.657,0.217-13.314,0.219-19.971c0.012-46.659,0.173-93.32-0.155-139.977
		c-0.071-10.153,0.729-20.326-0.004-30.433C607.059,215.9,608.912,204.794,607.597,193.31z"/>
	<path style="fill:#F5CE48;" d="M306.191,340.026c2.298,0.923,4.639,1.754,6.888,2.783c11.856,5.424,18.375,14.679,20.239,27.569
		c1.01,6.984,0.872,13.959,0.89,20.943c0.072,27.498,0.042,54.997,0.035,82.496c0,1.467,0.223,2.972-0.465,4.765
		c-21.655,1.359-43.347,2.72-65.172,4.089c-0.942-1.599-0.434-3.474-0.437-5.246c-0.053-30.498-0.064-60.997-0.068-91.495
		c-0.001-5.506-0.64-10.932-1.619-16.346c-1.047-5.789-4.783-8.495-10.228-9.269c-2.939-0.418-5.913-0.334-9.291-0.009
		c-0.281,41.225,0.176,82.161-0.585,123.795c-23.503,2.196-47.008,3.622-70.837,5.628c0-91.434,0-182.826,0-274.647
		c1.514-0.28,3.245-0.771,5.003-0.899c10.95-0.803,21.906-1.526,32.86-2.273c12.951-0.884,25.89-2.085,38.856-2.559
		c13.635-0.499,27.34-1.316,40.921,0.677c16.884,2.478,28.465,12.018,35.021,27.66c3.966,9.462,5.432,19.512,5.868,29.654
		c0.371,8.649,0.33,17.339-0.02,25.99c-0.303,7.469-1.743,14.832-4.068,21.968c-3.549,10.893-12.012,16.292-22.251,19.6
		c-1.888,0.61-3.879,0.899-5.822,1.336c-0.96,0.97-2.901,0.16-3.806,2.118C300.95,339.143,303.433,340.145,306.191,340.026z
		 M247.053,317.057c4.714,0.24,8.563-0.648,12.355-1.972c3.385-1.182,5.632-3.447,6.681-6.841c1.13-3.653,2-7.37,2.011-11.225
		c0.023-7.821,0.026-15.642,0.022-23.463c-0.002-3.534-0.808-6.911-2.139-10.163c-1.204-2.943-3.365-5.091-6.386-5.866
		c-3.955-1.014-8.001-1.991-12.61-1.053C246.934,276.65,246.426,296.683,247.053,317.057z"/>
	<path style="fill:#F5CE48;" d="M1361.94,343.702c0.446,2.303,2.436,2.373,3.801,3.081c4.999,2.59,10.308,4.621,14.516,8.563
		c8.765,8.211,13.545,18.084,14.125,30.289c1.472,30.976,0.384,61.959,0.719,92.935c0.039,3.624,0.06,7.289-1.001,10.992
		c-21.678-1.654-43.153-3.292-65.047-4.963c-0.228-7.616-0.617-15.221-0.653-22.828c-0.124-26.656-0.156-53.312-0.14-79.968
		c0.002-3.702-0.703-7.283-1.3-10.878c-0.839-5.043-3.854-8.414-8.83-9.719c-3.353-0.88-6.796-1.418-10.76-2.222
		c0,41.408,0,82.459,0,124.167c-24.003-1.555-47.454-3.074-71.087-4.605c0-91.625,0-182.853,0-274.064
		c1.548-0.9,3.075-0.519,4.505-0.434c14.782,0.877,29.556,1.89,44.34,2.718c9.467,0.53,18.931,1.089,28.342,2.249
		c14.157,1.746,28.412,2.824,42.208,6.919c13.005,3.86,22.216,12.319,29.253,23.457c4.686,7.418,6.796,15.8,8.238,24.357
		c2.03,12.038,2.434,24.188,1.757,36.333c-0.451,8.1-1.27,16.178-3.648,24.067c-3.341,11.086-13.262,16.903-23.435,17.873
		C1365.728,342.222,1363.602,342.187,1361.94,343.702z M1307.397,316.127c2.886,0,5.214,0.018,7.543-0.003
		c8.335-0.076,10.819-2.077,12.709-10.225c0.187-0.806,0.421-1.623,0.453-2.441c0.423-10.817,0.538-21.643-0.014-32.45
		c-0.223-4.369-1.621-8.564-5.575-11.194c-4.526-3.011-9.514-4.262-15.115-3.774
		C1307.397,276.174,1307.397,295.909,1307.397,316.127z"/>
	<path style="fill:#F5CE48;" d="M994.009,295.141c-23.593-1.556-47.084-0.755-70.895-2.194c0-3.137-0.041-5.943,0.007-8.747
		c0.221-12.829-0.043-25.649-1.027-38.439c-0.994-12.931-6.012-13.653-15.507-12.489c-3.258,2.006-4.744,5.154-5.229,8.699
		c-0.539,3.946-1.159,7.883-1.154,11.911c0.054,49.483,0.045,98.967,0.032,148.45c-0.002,5.511,0.373,10.937,1.879,16.295
		c1.27,4.516,4.52,6.581,8.656,7.122c4.183,0.548,7.952-0.959,10.357-4.642c1.932-2.959,2.7-6.354,3.087-9.885
		c1.165-10.625,1.031-21.282,1.017-31.94c-0.008-5.811-0.001-11.622-0.001-17.533c-4.775-1.469-9.51-0.251-14.446-1.289
		c-0.568-13.623-0.122-27.223,0.158-41.556c27.657,0.607,55.203,1.212,83.04,1.824c0,49.229,0,97.963,0,146.915
		c-14.699,0-29.423,0-44.346,0c-2.156-6.386-4.202-12.445-6.439-19.072c-2.172,2.617-3.967,4.711-5.687,6.864
		c-8.309,10.4-19.523,15.534-32.406,16.372c-22.617,1.471-42.236-5.705-57.977-22.374c-8.566-9.071-13.551-20.05-15.886-32.167
		c-2.559-13.276-2.852-26.781-2.911-40.249c-0.126-28.49,0.095-56.981-0.032-85.471c-0.066-14.835,0.627-29.63,2.033-44.372
		c1.027-10.773,3.047-21.399,9.74-30.442c8.847-11.954,20.268-20.552,34.183-25.683c15.161-5.59,30.871-5.718,46.758-4.409
		c14.185,1.169,27.39,5.222,39.442,12.667c11.639,7.189,21.536,16.119,26.816,29.269c3.316,8.258,4.706,16.923,5.817,25.645
		c1.625,12.76,1.139,25.602,1.165,38.421C994.253,293.27,994.134,293.9,994.009,295.141z"/>
	<path style="fill:#F5CE48;" d="M560.861,468.86c-24.782,0.797-48.388,1.556-72.674,2.337c-2.029-16.272-2.485-32.488-4.2-48.532
		c-5.301-0.917-20.556-0.149-25.365,1.279c-1.365,16.137-2.735,32.331-4.118,48.689c-24.819,1.136-49.211,2.253-74.128,3.393
		c12.195-92.484,24.338-184.567,36.498-276.78c34.608-1.484,68.523-2.889,103.079-3.694c7.243,45.507,13.994,90.93,20.614,136.373
		C547.192,377.401,554.372,422.797,560.861,468.86z M482.135,373.06c-1.363-12.423-2.755-24.261-3.937-36.121
		c-1.17-11.748-1.91-23.542-3.239-35.271c-1.328-11.722-1.584-23.573-3.988-35.223c-5.263,35.491-10.098,70.955-12.922,106.615
		C466.34,373.06,474.07,373.06,482.135,373.06z"/>
	<path style="fill:#F4CD48;" d="M1056.769,470.064c0-91.643,0-182.864,0-274.6c39.828,1.633,79.334,3.253,119.073,4.882
		c0,18.509,0,36.422,0,54.673c-15.748,0.701-31.283-1.748-47.197-1.177c0,17.065,0,33.979,0,51.359
		c14.674,1.416,29.446,1.314,44.244,2.372c0,17.641,0,34.727,0,52.198c-14.85,0.213-29.371-1.971-44.271-1.729
		c0,19.975,0,39.696,0,59.906c17.251,0.855,34.45,1.707,51.929,2.573c0,18.313,0,36.219,0,54.828
		C1139.234,473.586,1098.088,471.829,1056.769,470.064z"/>
	<path style="fill:#F4CD48;" d="M784.865,660.619c7.171,14.647,13.869,28.329,20.684,42.248c15.015,2.207,30.106,4.425,45.181,6.641
		c0.828,1.516-0.462,2.122-1.23,2.875c-9.04,8.871-17.961,17.872-27.239,26.486c-2.846,2.643-3.665,5.258-3.032,8.793
		c1.521,8.495,3.001,16.998,4.455,25.504c0.863,5.051,1.646,10.117,2.479,15.26c-1.863,0.322-2.95-0.84-4.154-1.469
		c-10.305-5.382-20.658-10.684-30.803-16.356c-4.54-2.538-8.429-2.603-13.011-0.052c-11.31,6.296-22.841,12.197-34.913,18.59
		c1.586-15.942,5.755-30.947,7.219-46.548c-10.922-10.793-21.745-21.489-33.265-32.873c16.142-2.374,31.178-4.586,46.438-6.83
		C770.818,689.332,776.744,675.072,784.865,660.619z"/>
	<path style="fill:#FCEBBF;" d="M306.191,340.026c-2.758,0.119-5.241-0.883-8.088-1.672c0.905-1.958,2.846-1.148,3.806-2.118
		C302.718,338.198,305.167,338.306,306.191,340.026z"/>
	<path style="fill:#292626;" d="M247.053,317.057c-0.626-20.374-0.119-40.407-0.065-60.584c4.608-0.938,8.654,0.039,12.61,1.053
		c3.02,0.775,5.182,2.923,6.386,5.866c1.33,3.252,2.137,6.629,2.139,10.163c0.004,7.821,0.001,15.642-0.022,23.463
		c-0.011,3.855-0.881,7.572-2.011,11.225c-1.05,3.394-3.296,5.659-6.681,6.841C255.616,316.408,251.767,317.296,247.053,317.057z"/>
	<path style="fill:#272425;" d="M1307.397,316.127c0-20.219,0-39.953,0-60.088c5.602-0.488,10.589,0.763,15.115,3.774
		c3.953,2.63,5.351,6.826,5.575,11.194c0.552,10.807,0.437,21.633,0.014,32.45c-0.032,0.819-0.266,1.635-0.453,2.441
		c-1.89,8.148-4.374,10.149-12.709,10.225C1312.611,316.146,1310.283,316.127,1307.397,316.127z"/>
	<path style="fill:#2B2828;" d="M482.135,373.06c-8.065,0-15.795,0-24.087,0c2.824-35.66,7.659-71.124,12.922-106.615
		c2.404,11.65,2.66,23.501,3.988,35.223c1.329,11.729,2.069,23.523,3.239,35.271C479.38,348.799,480.772,360.637,482.135,373.06z"/>
	<path style="fill:#2B2828;" d="M955.356,576.029c0-4.972,0-9.543,0-14.096c8.963-1.68,15.699-0.509,13.605,10.632
		C965.425,576.418,960.651,576.249,955.356,576.029z"/>
	<path style="fill:#312E2F;" d="M486.579,564.936c1.634,8.501-1.615,10.952-9.623,11.193c-1.136,0.034-2.274,0.005-3.661,0.005
		c0-4.898,0-9.491,0-14.392C478.044,561.03,482.736,560.39,486.579,564.936z"/>
</g>
</svg>
