<?xml version="1.0" encoding="iso-8859-1"?>
<!-- Generator: Adobe Illustrator 27.0.0, SVG Export Plug-In . SVG Version: 6.00 Build 0)  -->
<svg version="1.1" id="Layer_1" xmlns="http://www.w3.org/2000/svg" xmlns:xlink="http://www.w3.org/1999/xlink" x="0px" y="0px"
	 viewBox="0 0 1558.9 195.585" style="enable-background:new 0 0 1558.9 195.585;" xml:space="preserve">
<g>
	<path style="fill:#335674;" d="M88.286,195.585c-0.575-1.561-1.945-0.943-2.988-1.011c-21.596-1.407-40.071-9.544-55.63-24.759
		c-12.784-12.502-22.591-26.756-26.599-44.249C-4.709,91.625,1.953,61.382,27.002,35.98C40.889,21.898,57.505,13.145,76.64,9.066
		C87.287,6.797,98.09,7,108.918,8.275c7.664,0.903,15.204,2.466,22.111,5.675c14.66,6.813,27.045,16.815,38.083,29.203
		c-6.074,6.523-12.599,12.357-19.332,18.594c-3.205-3.254-6.194-6.567-9.473-9.564c-8.851-8.092-18.974-14.297-30.674-16.91
		c-29.214-6.525-55.61,2.163-72.239,29.33c-13.401,21.893-14.578,45.105-3.086,68.002c10.359,20.64,27.974,31.866,50.724,36.279
		c27.893,5.41,54.184-16.032,60.639-39.062c0.54-1.927,0.932-3.816,0.853-6.173c-14.661,0-29.274,0-44.207,0
		c0-8.722,0-17.084,0-25.698c24.411,0,48.663,0,72.823,0c1.12,1.225,0.86,2.619,0.804,3.914c-0.515,11.97-1.412,23.902-4.473,35.544
		c-2.662,10.123-7.522,19.092-14.405,26.996c-10.143,11.647-22.23,20.44-36.905,25.522c-7.737,2.679-15.689,4.212-23.86,4.683
		c-1.046,0.06-2.406-0.554-3.013,0.975C91.62,195.585,89.953,195.585,88.286,195.585z"/>
	<path style="fill:#345675;" d="M372.62,193.145c0-60.396,0-120.963,0-181.569c0.87-1.033,2.114-0.667,3.23-0.668
		c12.485-0.011,24.982-0.308,37.435,0.805c7.771,0.694,15.502,1.66,22.758,4.94c7.989,3.611,14.213,9.057,18.637,16.654
		c4.675,8.03,7.692,16.616,8.256,25.869c0.764,12.552-3.506,23.48-11.699,32.936c-0.748,0.863-1.848,1.46-2.101,2.76
		c0.634,1.08,1.878,1.16,2.862,1.617c16.999,7.879,25.539,21.57,27.286,39.846c1.006,10.528-0.796,20.593-6.097,29.815
		c-8.798,15.309-22.235,23.728-39.574,26.387c-6.124,0.939-12.256,1.123-18.405,1.164c-13.157,0.088-26.315,0.048-39.472,0.038
		C374.773,193.738,373.745,193.985,372.62,193.145z M398.778,110.801c-0.973,7.285-0.681,51.607,0.331,55.055
		c6.965,0,13.959,0.02,20.952-0.007c4.694-0.018,9.25-0.935,13.704-2.352c20.036-6.373,22.238-30.601,12.154-41.403
		c-4.537-4.861-10.008-8.11-16.548-9.554C419.363,110.33,409.224,110.733,398.778,110.801z M399.598,37.111
		c0,17.481,0,34.365,0,51.495c6.439-0.156,12.555,0.29,18.666-0.922c7.998-1.587,13.492-6.029,16.691-13.482
		c1.133-2.64,1.593-5.431,2.006-8.209c2.173-14.597-6.071-25.789-20.493-28.659C410.906,36.226,405.545,37.977,399.598,37.111z"/>
	<path style="fill:#355775;" d="M584.168,117.734c-1.745-0.34-3.045-0.396-4.704,0.115c0,24.182,0,48.457,0,73.081
		c-9.069,0-17.772,0-26.761,0c0-59.956,0-119.676,0-179.283c1.705-1.2,3.427-0.734,5.046-0.734
		c13.823-0.002,27.659-0.361,41.457,0.736c10,0.795,19.966,2.571,28.721,7.497c16.356,9.202,25.693,23.221,26.287,42.4
		c0.365,11.77-2.421,22.67-8.782,32.699c-4.076,6.427-10.047,10.522-16.302,14.342c-4.839,2.955-10.186,4.749-16.439,6.079
		c18.783,25.652,37.182,50.781,55.958,76.424c-11.431,0-22.034,0-33.305,0C618.461,166.891,601.352,142.366,584.168,117.734z
		 M577.722,93.846c8.206-0.074,16.115,0.471,24.018-1.163c14.357-2.969,24.379-12.182,23.685-29.493
		c-0.443-11.047-5.896-18.708-16.201-22.787c-10.218-4.045-20.778-3.036-31.502-3.025C577.722,56.385,577.722,74.931,577.722,93.846
		z"/>
	<path style="fill:#345675;" d="M1503.28,115.083c18.516,25.29,36.85,50.33,55.62,75.966c-11.53,0-22.12,0-33.301,0
		c-16.956-24.305-34.067-48.835-51.061-73.195c-1.743-0.47-3.183-0.67-5.023,0.3c0,24.076,0,48.339,0,72.861
		c-9.194,0-17.956,0-26.702,0c-0.959-3.629-1.193-174.212-0.264-179.634c0.863-0.72,1.901-0.479,2.874-0.479
		c14.659,0.003,29.338-0.435,43.959,0.807c9.804,0.833,19.595,2.659,28.183,7.609c15.887,9.158,25.306,22.691,25.858,41.581
		c0.25,8.567-0.757,16.867-4.032,24.899c-5.912,14.496-16.946,23.027-31.455,27.638C1506.523,113.885,1505,113.983,1503.28,115.083z
		 M1468.236,93.718c10.493,0.313,20.714,0.806,30.564-3.076c8.465-3.336,14.063-9.156,16.129-18.152
		c0.714-3.11,0.731-6.271,0.646-9.425c-0.297-11.115-5.777-18.612-16.23-22.712c-10.055-3.944-20.463-2.995-31.109-2.982
		C1468.236,56.318,1468.236,74.842,1468.236,93.718z"/>
	<path style="fill:#345675;" d="M882.122,192.036c-10.074,0-19.687,0-29.461,0c-6.502-14.863-12.942-29.585-19.385-44.316
		c-25.902,0-51.535,0-77.528,0c-6.818,14.42-13.674,28.923-20.502,43.365c-9.443,0-18.566,0-27.715,0
		c0.522-3.805,85.021-184.173,89.193-190.233C825.259,64.736,853.636,128.263,882.122,192.036z M796.034,63.241
		c-0.394-0.004-0.788-0.009-1.183-0.013c-8.913,19.635-17.826,39.269-26.861,59.173c18.284,0,35.835,0,54.019,0
		C813.208,102.356,804.621,82.799,796.034,63.241z"/>
	<path style="fill:#345675;" d="M1390.034,192.105c-10.356,0-19.651,0-29.398,0c-6.425-14.686-12.862-29.398-19.373-44.28
		c-25.828,0-51.586,0-77.634,0c-6.751,14.289-13.543,28.666-20.397,43.174c-9.361,0-18.582,0-28.703,0
		C1244.133,127.351,1273.47,64.277,1303.367,0C1332.5,64.577,1361.101,127.972,1390.034,192.105z M1329.519,122.467
		c-2.585-8.642-24.185-56.707-26.7-59.28c-8.958,19.704-17.86,39.287-26.949,59.28
		C1294.015,122.467,1311.598,122.467,1329.519,122.467z"/>
	<path style="fill:#355775;" d="M1116.001,37.337c-14.573,0-28.327,0-42.364,0c0-8.869,0-17.296,0-26.087
		c36.634,0,73.347,0,110.358,0c0,8.538,0,17.079,0,26.048c-13.641,0-27.064,0-40.958,0c0,51.658,0,102.892,0,153.968
		c-3.74,1.205-20.033,1.483-27.036,0.54C1116.001,140.617,1116.001,89.363,1116.001,37.337z"/>
	<path style="fill:#365776;" d="M977.329,165.836c18.056,0,35.627,0,53.496,0c0,8.848,0,17.267,0,25.717
		c-3.379,0.929-74.442,1.134-80.158,0.165c0-60.019,0-120.077,0-180.485c8.737,0,17.451,0,26.662,0
		C977.329,62.677,977.329,114.04,977.329,165.836z"/>
	<path style="fill:#365775;" d="M256.45,11.129c8.774,0,17.349,0,26.277,0c0,60.25,0,120.258,0,180.29
		c-3.244,1.068-19.073,1.346-26.277,0.4C256.45,131.693,256.45,71.531,256.45,11.129z"/>
</g>
</svg>
