<?xml version="1.0" encoding="iso-8859-1"?>
<!-- Generator: Adobe Illustrator 27.0.0, SVG Export Plug-In . SVG Version: 6.00 Build 0)  -->
<svg version="1.1" id="Layer_1" xmlns="http://www.w3.org/2000/svg" xmlns:xlink="http://www.w3.org/1999/xlink" x="0px" y="0px"
	 viewBox="0 0 1587 541" style="enable-background:new 0 0 1587 541;" xml:space="preserve">
<g>
	<path style="fill:#D33554;" d="M291,0c3.219,2.079,6.991,1.128,10.475,1.816c6.05,1.195,12.03,2.516,17.692,4.952
		c7.743,3.331,13.749,8.7,17.684,16.191c9.077,17.277,16.25,35.26,19.68,54.573c0.346,1.947,0.431,3.998,0.259,5.967
		c-0.536,6.135-3.118,12.487-13.18,12.403c-14.33-0.119-28.661-0.03-42.991-0.03c-1.656,0-3.312,0-6.097,0
		c6.356,3.244,8.705,8.282,10.667,13.598c7.182,19.463,12.989,39.385,19.723,58.998c1.885,5.491,3.589,11.043,5.424,16.552
		c0.42,1.262,0.91,2.482,0.707,3.829c-3.424,1.027-53.439,1.394-61.781,0.389c-9.397-28.488-18.88-57.24-28.636-86.82
		c-9.829,29.356-19.348,57.786-28.906,86.331c-20.566,0-41.005,0-61.351,0c-0.962-1.788-0.004-3.072,0.453-4.443
		c13.854-41.545,27.682-83.098,41.554-124.637c2.836-8.491,5.204-17.121,8.38-25.52c6.043-15.982,18.136-24.888,33.641-30.131
		c4.731-1.6,9.566-2.742,14.563-3.119c0.547-0.041,0.853-0.415,1.041-0.9C263.667,0,277.333,0,291,0z M243.847,92.869
		c3.635,0,6.773,0,9.91,0c9.151,0,18.302,0.053,27.452-0.014c10.275-0.076,14.845-5.698,13.059-15.724
		c-0.439-2.465-1.085-4.838-1.883-7.194c-6.432-18.981-12.855-37.965-19.275-56.95c-0.344-1.017-0.247-2.317-1.785-2.576
		C262.217,37.745,253.115,65.058,243.847,92.869z"/>
	<path style="fill:#D33554;" d="M0,231c1.48-0.6,0.86-1.981,1.108-3.028c4.695-19.764,10.902-38.984,20.823-56.821
		c4.019-7.226,9.331-13.32,16.52-17.657c5.56-3.355,11.783-4.508,18.019-5.293c12.888-1.623,25.853-2.389,38.85-2.028
		c5.148,0.143,10.28,0.871,15.245,2.275c10.436,2.953,13.446,8.417,10.133,18.71c-3.963,12.314-8.203,24.538-12.242,36.828
		c-0.646,1.966-1.848,3.896-1.306,6.587c7.214-4.588,15.06-4.496,22.812-4.541c23.491-0.136,46.982-0.135,70.473-0.143
		c1.786-0.001,3.648-0.457,5.749,0.618c-6.348,19.319-12.701,38.652-18.968,57.725c-1.231,1.116-2.448,0.748-3.565,0.754
		c-13.328,0.069-26.656,0.053-39.984,0.164c-14.48,0.121-28.959,0.348-43.439,0.55c-0.946,0.013-1.889,0.202-3.861,0.425
		c24.622,18.192,48.512,35.843,72.591,53.634c-6.462,19.567-12.888,39.024-19.283,58.39c-2.516-0.03-3.741-1.588-5.155-2.63
		c-32.938-24.284-65.898-48.541-98.71-72.995c-8.67-6.461-17.725-12.365-26.243-19.052c-10.796-8.476-17.055-19.272-18.694-32.829
		C0.793,249.967,0.685,249.339,0,249C0,243,0,237,0,231z M86.524,259.179c0.645-0.325,0.877-0.364,0.915-0.471
		c4.359-12.333,8.69-24.684,12.167-37.294c1.917-6.952-2.257-12.975-9.474-14.266c-2.754-0.493-5.563-0.825-8.411-0.889
		c-5.002-0.112-9.955,0.563-14.936,0.596c-11.643,0.078-23.287,0.104-34.931,0.14c-4.735,0.015-9.47,0.002-14.206,0.002
		c-0.109,0.317-0.219,0.634-0.328,0.951C40.456,225.076,63.592,242.203,86.524,259.179z M106.77,211.373
		c-0.082-0.107-0.163-0.214-0.245-0.321c-0.087,0.103-0.266,0.264-0.245,0.298c0.085,0.133,0.232,0.226,0.356,0.333
		C106.681,211.58,106.725,211.476,106.77,211.373z"/>
	<path style="fill:#EAABA8;" d="M166,541c0.07-0.308,0.051-0.611-0.056-0.909c4.375,0.007,8.749,0.015,13.124,0.022
		c-0.086,0.291-0.109,0.586-0.068,0.887C174.667,541,170.333,541,166,541z"/>
	<path style="fill:#8594B3;" d="M1586.032,225.969c0.323,0.01,0.645,0.02,0.968,0.031c0,4,0,8,0,12
		c-0.367-0.044-0.734-0.088-1.101-0.132C1585.943,233.902,1585.988,229.936,1586.032,225.969z"/>
	<path style="fill:#D33554;" d="M463.378,239.379c-0.46,5.087-3.078,8.649-6.653,11.812c-10.619,9.395-22.494,17.122-33.774,25.634
		c-11.149,8.413-22.548,16.495-33.842,24.717c-0.796,0.579-1.626,1.11-3.038,2.068c-6.41-19.862-12.707-39.371-19.163-59.375
		c24.239-17.824,48.55-35.701,72.861-53.578c-0.098-0.305-0.196-0.61-0.294-0.914c-29.917,0-59.834,0-90.062,0
		c-6.344-19.932-12.567-39.483-18.789-59.031c2.025-1.193,3.89-0.689,5.652-0.685c24.158,0.063,48.327-0.253,72.469,0.402
		c27.815,0.755,55.624,0.171,83.432,0.59c11.963,0.18,22.315,4.455,31.153,12.581c9.158,8.42,15.441,18.7,19.628,30.258
		c4.805,13.263,8.89,26.762,11.633,40.624c1.494,7.546,2.054,15.172,1.029,22.832c-1.429,10.677-7.595,18.65-15.228,25.6
		c-10.096,9.192-20.589,17.914-32.221,25.152c-4.241,2.638-8.608,5.031-13.469,6.353c-7.855,2.135-13.02-0.363-15.646-8.124
		c-4.784-14.139-9.304-28.367-13.877-42.577C464.72,242.291,464.249,240.903,463.378,239.379z M451.012,190.161
		c0.254,1.16,0.338,1.807,0.537,2.417c3.441,10.548,6.892,21.094,10.352,31.636c0.724,2.205,1.45,4.417,2.82,6.334
		c2.603,3.644,5.792,5.597,10.595,4.739c3.749-0.67,6.947-2.261,9.882-4.425c16.839-12.413,33.623-24.899,50.404-37.391
		c0.795-0.592,2.092-0.955,1.853-2.501C508.683,190.717,479.989,189.962,451.012,190.161z"/>
	<path style="fill:#D33554;" d="M378.039,444.807c-5.728,0.208-10.262-2.119-14.627-4.941
		c-10.759-6.955-20.959-14.701-31.354-22.171c-10.938-7.859-21.864-15.734-32.785-23.617c-1.475-1.064-2.888-2.214-4.783-3.673
		c16.95-12.259,33.598-24.299,50.354-36.418c24.285,17.489,48.403,34.858,72.71,52.362c1.087-1.971,0.117-3.403-0.353-4.896
		c-8.226-26.097-16.441-52.197-24.654-78.298c-0.247-0.784-0.44-1.584-0.826-2.986c16.587-11.963,33.269-23.995,49.808-35.924
		c1.831,0.482,1.511,1.943,1.822,2.924c12.331,38.886,24.582,77.798,36.926,116.68c3.161,9.956,6.539,19.844,9.919,29.729
		c6.835,19.989,2.162,37.605-10.964,53.46c-4.364,5.271-9.264,10.021-14.818,14.063c-10.756,7.827-21.504,15.672-33.24,22.012
		c-7.027,3.796-14.224,7.01-22.29,8.206c-6.482,0.961-12.559,0.169-18.489-2.288c-10.654-4.413-20.412-10.435-29.771-17.095
		c-6.626-4.715-13.729-8.827-19.287-14.953c-2.363-2.605-4.614-5.277-6.149-8.435c-2.163-4.45-1.797-8.66,1.571-12.495
		c1.782-2.029,3.933-3.582,6.094-5.135c11.072-7.96,22.153-15.909,33.23-23.863C376.745,446.581,377.546,446.248,378.039,444.807z
		 M448.505,500.218c-8.827-28.017-17.406-55.25-25.906-82.229c-0.744-0.121-0.958-0.228-1.056-0.162
		c-11.028,7.426-21.854,15.148-32.103,23.612c-4.795,3.959-5.021,10.265-1.205,15.224c1.42,1.845,2.999,3.554,4.931,4.92
		c14.791,10.453,29.539,20.966,44.367,31.367C440.853,495.279,443.908,498.053,448.505,500.218z"/>
	<path style="fill:#D33554;" d="M179.068,540.113c-4.375-0.007-8.749-0.015-13.124-0.022c-11.531-1.094-21.884-5.543-31.389-11.806
		c-13.487-8.886-26.516-18.421-37.974-29.919c-7.157-7.182-12.941-15.121-15.003-25.352c-1.249-6.198-0.502-12.301,0.658-18.324
		c2.732-14.193,6.619-28.089,11.941-41.543c1.896-4.794,4.217-9.394,7.957-13.134c5.005-5.004,9.602-5.653,15.605-1.681
		c4.713,3.119,9.257,6.496,13.82,9.835c7.916,5.79,15.784,11.644,23.691,17.447c0.374,0.274,0.921,0.312,1.588,0.523
		c0.739-3.337-0.98-6.406-0.262-9.811c2.094-9.929,5.164-19.538,8.269-29.159c5.706-17.677,11.373-35.365,17.065-53.046
		c0.404-1.254,0.885-2.482,1.442-4.036c16.728,12.171,33.237,24.183,49.614,36.099c0.636,2.175-0.293,3.81-0.841,5.526
		c-8.181,25.59-16.34,51.187-24.536,76.772c-0.358,1.117-0.775,2.192-0.735,3.382c-0.424,0.171-0.761,0.523-0.395,0.881
		c0.386,0.377,0.66-0.104,0.881-0.418c5.106-2.189,9.178-5.955,13.631-9.109c19.14-13.559,38.159-27.288,57.226-40.951
		c0.531-0.381,1.1-0.71,1.9-1.223c16.597,12.147,33.2,24.297,50.271,36.791c-6.163,4.399-11.938,8.521-17.713,12.643
		c-28.839,20.586-57.702,41.139-86.5,61.782c-6.757,4.844-13.249,10.056-19.945,14.987c-6.16,4.536-12.422,8.919-19.874,11.205
		C183.945,539.186,181.578,539.938,179.068,540.113z M126.979,509.974c1.227-0.124,2.095-0.944,3.026-1.608
		c17.038-12.143,34.075-24.286,51.093-36.457c5.346-3.823,10.633-7.729,16.314-11.865c-5.9-4.394-11.315-8.473-16.781-12.482
		c-4.686-3.437-9.378-6.872-14.162-10.17c-6.946-4.788-13.289-3.396-17.801,3.759c-1.699,2.694-2.68,5.697-3.625,8.695
		c-5.875,18.634-11.703,37.284-17.547,55.928c-0.438,1.397-1.164,2.764-0.45,4.282c-0.757-0.349-0.822-0.008-0.617,0.626
		C126.62,510.437,126.799,510.206,126.979,509.974z"/>
	<path style="fill:#065784;" d="M1249.667,248.427c12.708,5.818,17.208,15.096,14.55,28.458
		c-3.791,19.06-16.312,28.842-34.312,33.068c-7.497,1.76-15.09,2.267-22.772,2.233c-18.985-0.084-37.97-0.017-56.955-0.046
		c-1.618-0.002-3.297,0.358-5.308-0.558c7.187-39.583,14.378-79.189,21.509-118.462c1.41-1.407,2.818-0.973,4.094-0.974
		c19.485-0.026,38.97-0.095,58.454,0.019c8.668,0.051,17.254,1.032,25.505,3.928c11.598,4.071,16.913,12.494,15.472,24.667
		c-0.512,4.326-2.091,8.324-4.238,12.134C1261.96,239.472,1256.221,243.94,1249.667,248.427z M1194.343,262.096
		c-1.173,7.525-3.202,14.443-3.597,21.885c8.15,0,15.774,0.146,23.388-0.068c3.328-0.093,6.582-1.178,9.14-3.489
		c3.46-3.124,4.924-7.113,3.847-11.675c-0.996-4.221-4.508-5.278-8.298-5.914C1210.739,261.477,1202.652,262.492,1194.343,262.096z
		 M1198.326,240.165c7.396-0.157,14.525,0.582,21.563-0.465c4.989-0.742,8.872-3.49,10.473-8.749
		c1.709-5.614-0.101-8.979-5.957-10.124c-7.382-1.445-14.822-0.348-22.244-0.751
		C1200.385,226.831,1199.615,233.216,1198.326,240.165z"/>
	<path style="fill:#095785;" d="M724.335,255.435c0.787,1.171,1.962,1.439,3.005,1.926c9.748,4.556,12.512,9.601,11.931,20.545
		c-0.354,6.682-1.675,13.181-2.856,19.716c-0.566,3.135-0.821,6.247-0.622,8.745c0.561,1.91,2.048,2.008,2.661,3.074
		c0.152,1.175-0.2,2.202-1.062,3.009c-13.326,0-26.599,0-40.081,0c-1.019-6.531,0.388-12.708,1.169-18.912
		c0.394-3.128,1.061-6.227,1.359-9.362c0.775-8.14-3.009-12.559-11.175-13.223c-1.659-0.135-3.324-0.252-4.987-0.264
		c-4.655-0.036-9.31-0.012-14.544-0.012c-3.452,13.757-4.895,27.938-8.189,41.763c-13.398,0-26.492,0-40.232,0
		c7.285-40.108,14.508-79.879,21.666-119.287c1.427-1.45,2.838-1.006,4.111-1.008c17.985-0.027,35.971-0.083,53.956,0.011
		c9.481,0.05,18.958,0.47,28.22,2.785c2.568,0.642,5.111,1.463,7.573,2.436c8.008,3.165,12.82,9.185,13.395,17.657
		c0.843,12.427-2.355,23.737-11.664,32.691C734.105,251.442,729.422,253.773,724.335,255.435z M673.608,244.064
		c9.218-0.387,17.963,0.797,26.635-1.121c2.285-0.505,4.459-1.426,6.213-2.97c3.632-3.195,5.166-7.275,4.064-12.03
		c-1.035-4.466-4.49-6.26-8.659-7.045c-7.881-1.484-15.786-0.4-23.863-0.828C676.509,228.206,675.118,235.813,673.608,244.064z"/>
	<path style="fill:#075784;" d="M1024.287,192.268c13.146,0,26.105,0,39.392,0c0.786,2.907-0.506,5.594-0.974,8.224
		c-3.701,20.764-7.696,41.475-11.37,62.243c-0.776,4.388-1.188,8.918-0.523,13.436c0.679,4.61,3.24,7.52,7.687,8.798
		c4.225,1.214,8.534,1.503,12.85,0.741c8.002-1.412,12.87-6.469,15.59-13.857c2.374-6.446,2.787-13.305,4.041-19.98
		c3.555-18.935,6.882-37.914,10.323-56.871c0.147-0.808,0.533-1.573,0.895-2.61c13.04,0,26.13,0,39.475,0
		c1.054,2.806-0.394,5.489-0.859,8.117c-3.843,21.75-7.605,43.522-11.963,65.172c-2.769,13.755-8.44,26.209-19.532,35.605
		c-7.57,6.413-16.334,10.039-25.917,12.047c-15.697,3.289-31.394,3.435-46.952-0.531c-12.638-3.222-21.699-10.636-25.064-23.761
		c-1.758-6.856-2.089-13.937-0.938-20.845c3.521-21.133,7.414-42.205,11.201-63.294
		C1022.402,200.699,1022.652,196.374,1024.287,192.268z"/>
	<path style="fill:#0A5785;" d="M878.398,192.426c-1.676,9.25-3.294,18.184-4.991,27.548c-19.89,0-39.641,0-59.606,0
		c-1.542,5.76-2.538,11.195-3.308,17.317c17.047,0,33.617,0,50.638,0c-1.8,9.729-3.486,18.843-5.222,28.229
		c-16.831,0-33.453,0-50.3,0c-1.782,6.084-2.384,12.129-3.728,18.532c20.792,0,41.211,0,62.357,0
		c-1.745,9.591-3.392,18.641-5.071,27.871c-34.377,0-68.464,0-102.923,0c7.287-39.941,14.52-79.587,21.802-119.497
		C811.417,192.426,844.633,192.426,878.398,192.426z"/>
	<path style="fill:#065784;" d="M916.888,311.94c-13.512,0-26.612,0-40.436,0c7.267-39.964,14.473-79.59,21.647-119.039
		c1.33-1.16,2.724-0.755,4.012-0.756c18.164-0.026,36.329-0.072,54.493,0.009c7.83,0.035,15.641,0.548,23.191,2.885
		c5.758,1.783,11.169,4.195,15.578,8.528c5.837,5.737,8.369,12.963,8.18,20.781c-0.283,11.69-3.565,22.602-11.17,31.866
		c-7.501,9.138-17.315,14.259-28.711,16.734c-7.531,1.635-15.138,2.179-22.824,2.069c-5.634-0.081-11.27-0.016-17.132-0.016
		C921.395,287.553,919.143,299.74,916.888,311.94z M933.584,220.169c-1.661,9.164-3.216,17.738-4.865,26.835
		c5.515,0,10.475,0.023,15.435-0.012c1.83-0.013,3.7,0.053,5.48-0.29c4.299-0.83,8.305-2.247,11.207-5.903
		c7.042-8.872,3.669-17.914-7.357-19.867C947.022,219.787,940.568,220.273,933.584,220.169z"/>
	<path style="fill:#065784;" d="M1586.032,225.969c-0.044,3.966-0.089,7.933-0.133,11.899c-12.455,0-24.911,0-37.282,0
		c-0.878-1.47-0.471-2.837-0.581-4.118c-0.723-8.408-5.796-13.807-14.164-14.833c-10.174-1.248-18.213,2.311-24.136,10.746
		c-4.59,6.537-7.019,13.93-8.602,21.608c-1.277,6.199-1.898,12.503-1.347,18.868c0.82,9.464,6.08,14.848,15.498,15.797
		c12.089,1.218,21.487-4.413,26.589-15.959c0.532-1.203,0.944-2.458,1.489-3.892c12.79,0,25.548,0,38.722,0
		c-3.984,13.166-10.852,24.087-20.998,32.901c-11.464,9.959-25.002,14.824-39.998,16.124c-11.262,0.976-22.245-0.134-32.873-4.055
		c-16.542-6.103-26.268-18.069-28.123-35.444c-3.146-29.467,6.572-54.08,30.25-72.387c11.724-9.065,25.37-13.638,40.255-14.173
		c9.889-0.355,19.646,0.604,29.017,3.913C1575.211,198.47,1584.107,209.462,1586.032,225.969z"/>
	<path style="fill:#075784;" d="M1323.857,284.036c18.448,0,36.539,0,55.187,0c-0.968,9.658-3.444,18.557-4.737,27.859
		c-31.932,0-63.517,0-95.864,0c7.093-39.995,14.472-79.696,21.788-119.539c13.405,0,26.496,0,40.284,0
		C1334.949,222.988,1329.445,253.281,1323.857,284.036z"/>
	<path style="fill:#075784;" d="M1432.987,311.945c-13.783,0-26.718,0-40.4,0c7.228-40.057,14.394-79.777,21.578-119.591
		c13.466,0,26.541,0,40.382,0C1447.321,232.43,1440.16,272.154,1432.987,311.945z"/>
	<path style="fill:#125886;" d="M994.506,345.754c2.906-0.713,5.241-0.406,7.547-0.415c10.155-0.04,20.311-0.007,30.467-0.026
		c2.167-0.004,4.29,0.246,6.44,0.535c10.309,1.389,16.459,9.521,13.464,21.712c-1.615,6.576-5.427,11.677-11.426,15.018
		c-1.007,0.561-1.998,1.149-3.281,1.888c6.334,2.814,6.798,7.984,5.926,13.56c-0.589,3.764-1.646,7.454-2.284,11.212
		c-0.573,3.375-1.49,6.88,1.991,9.993c-3.487,1.349-6.466,0.622-9.343,0.751c-2.818,0.126-5.645,0.027-8.79,0.027
		c-1.39-3.974-0.132-7.814,0.304-11.614c0.34-2.956,1.24-5.85,1.552-8.807c0.66-6.254-1.038-8.356-7.196-8.567
		c-6.312-0.216-12.637-0.048-19.37-0.048c-2.1,9.507-4.198,19.006-6.339,28.696c-5.051,0.759-9.968,0.076-15.668,0.453
		C983.622,394.96,989.273,370.512,994.506,345.754z M1003.312,377.926c7.996,0,15.309,0.299,22.585-0.095
		c5.732-0.311,8.973-3.803,10.365-9.79c1.219-5.247-0.662-8.263-5.946-9.349c-5.604-1.152-11.284-0.353-16.927-0.49
		c-1.921-0.047-3.992-0.634-6.023,0.81C1006.081,365.006,1004.764,371.152,1003.312,377.926z"/>
	<path style="fill:#175986;" d="M1252.864,374.118c12.602,0,24.545,0,36.897,0c-0.212,4.772-1.887,8.874-2.566,13.465
		c-12.444,0-24.543,0-36.951,0c-1.868,6.22-3.01,12.313-4.291,18.939c14.177,0,27.906,0,42.089,0
		c-0.974,4.699-1.838,8.867-2.742,13.228c-19.421,0-38.639,0-58.115,0c5.418-24.904,10.769-49.502,16.149-74.231
		c18.754,0,37.187,0,55.899,0c-0.112,4.384-1.562,8.411-2.555,13.038c-13.365,0-26.757,0-40.339,0
		C1255.161,363.829,1254.084,368.654,1252.864,374.118z"/>
	<path style="fill:#175986;" d="M979.859,345.821c-0.82,3.928-1.548,7.492-2.322,11.046c-0.102,0.468-0.437,0.885-0.881,1.747
		c-13.065,0-26.32,0-39.758,0c-1.688,5.041-2.492,9.894-3.49,15.382c12.304,0,24.331,0,36.505,0
		c0.108,4.986-1.874,8.936-2.208,13.573c-12.563,0-24.816,0-37.217,0c-1.616,6.26-2.985,12.169-4.038,18.892
		c7.133,0.299,13.889,0.118,20.634,0.149c6.81,0.032,13.62,0.007,20.827,0.007c0.136,4.615-1.559,8.607-2.27,13.07
		c-19.109,0-38.172,0-57.241,0c-0.37-3.996,11.072-58.828,15.373-73.604C927.167,345.131,972.919,344.86,979.859,345.821z"/>
	<path style="fill:#105885;" d="M837.934,397.167c4.741,0,9.535,0,14.371,0c0.168,0.202,0.535,0.436,0.55,0.69
		c0.401,7.06,2.007,9.106,8.747,10.614c5.508,1.233,10.899,0.524,16.149-1.432c2.441-0.91,4.253-2.62,5.583-4.788
		c2.596-4.23,1.588-7.744-3.009-9.672c-2.733-1.146-5.678-1.814-8.562-2.568c-4.335-1.134-8.728-2.05-13.045-3.245
		c-13.015-3.605-17.097-12.195-11.903-24.807c2.646-6.425,7.049-11.297,13.251-14.33c10.29-5.032,21.091-5.839,31.983-2.494
		c9.749,2.994,14.627,12.284,11.996,22.22c-4.656,0.681-9.435,0.186-14.07,0.296c-0.334-0.387-0.689-0.606-0.722-0.866
		c-0.97-7.742-4.627-10.765-13.32-10.556c-2.787,0.067-5.588,0.572-8.273,1.597c-2.276,0.869-4.067,2.28-5.464,4.177
		c-3.203,4.349-1.763,8.967,3.442,10.472c5.893,1.704,11.88,3.081,17.825,4.607c2.735,0.702,5.427,1.514,8.024,2.66
		c7.874,3.473,10.851,9.429,8.909,17.714c-2.286,9.749-7.955,16.683-17.121,20.666c-10.969,4.767-22.241,5.192-33.6,1.679
		C841.433,417.25,834.437,409.199,837.934,397.167z"/>
	<path style="fill:#105885;" d="M1365.428,367.48c-4.558,0-9.173,0-13.848,0c-1.144-0.696-1.096-2.027-1.175-3.071
		c-0.317-4.163-2.932-6.244-6.527-7.217c-5.086-1.376-10.186-1.199-15.125,0.821c-2.71,1.109-4.825,2.865-5.979,5.661
		c-1.755,4.249-0.642,7.154,3.794,8.555c4.738,1.497,9.609,2.566,14.41,3.868c3.357,0.911,6.751,1.736,10.028,2.885
		c10.254,3.595,13.114,9.419,10.351,20.309c-2.786,10.978-10.677,17.283-21.123,20.609c-8.596,2.737-17.357,2.808-26.106,0.812
		c-12.63-2.883-18.062-13.484-14.685-23.504c4.694,0,9.465,0,14.254,0c0.869,1.012,0.347,2.219,0.545,3.298
		c0.698,3.812,2.897,6.334,6.551,7.419c6.095,1.81,12.153,1.406,18.105-0.759c1.741-0.633,3.283-1.59,4.548-2.965
		c4.43-4.818,3.419-10.041-2.723-12.03c-6.302-2.041-12.797-3.488-19.221-5.146c-2.579-0.666-5.091-1.466-7.46-2.711
		c-5.962-3.135-8.639-8.178-7.649-14.819c1.786-11.988,8.518-20.017,19.932-23.864c8.848-2.982,17.917-3.414,26.935-0.6
		C1361.956,347.743,1368.452,355.747,1365.428,367.48z"/>
	<path style="fill:#0F5885;" d="M1225.798,369.684c-5.228,0-10.172,0-15.178,0c-1.146-0.931-0.908-2.417-1.248-3.627
		c-1.572-5.584-5.2-8.649-11.063-9.038c-7.504-0.498-13.805,2.188-18.583,7.848c-7.222,8.555-9.736,18.743-9.102,29.734
		c0.626,10.84,7.92,15.576,19.322,13.104c5.48-1.188,9.545-4.493,12.521-9.218c0.788-1.25,1.156-2.779,2.656-3.948
		c4.698,0,9.647,0,14.511,0c0.845,1.416-0.08,2.37-0.578,3.361c-6.345,12.652-16.093,21.113-30.252,23.586
		c-7.461,1.303-14.979,0.954-21.954-2.565c-7.571-3.819-11.938-10.14-12.734-18.475c-1.486-15.559,2.271-29.831,12.429-41.887
		c10.818-12.84,25.019-17.313,41.25-14.101C1221.626,347.195,1227.374,358.291,1225.798,369.684z"/>
	<path style="fill:#125886;" d="M1084.88,419.782c-5.385,0-10.325,0-15.577,0c-3.102-24.69-6.181-49.195-9.31-74.098
		c5.68,0,11.069,0,17.145,0c1.658,18.14,2.588,36.496,4.061,54.77c0.466-0.381-0.361,0.085,0.299,0.179
		c0.154,0.022,0.372,0.008,0.472-0.085c0.241-0.224,0.483-0.476,0.631-0.765c9.213-18.021,18.417-36.047,27.7-54.226
		c5.36,0,10.639,0,16.716,0C1112.885,370.451,1098.932,395.029,1084.88,419.782z"/>
	<path style="fill:#125886;" d="M1135.669,419.783c-5.599,0-10.554,0-16.098,0c5.42-24.913,10.766-49.486,16.134-74.164
		c5.475-0.587,10.563-0.189,16.154-0.276C1146.402,370.433,1141.054,395.023,1135.669,419.783z"/>
</g>
</svg>
