<?xml version="1.0" encoding="iso-8859-1"?>
<!-- Generator: Adobe Illustrator 27.0.0, SVG Export Plug-In . SVG Version: 6.00 Build 0)  -->
<svg version="1.1" id="Layer_1" xmlns="http://www.w3.org/2000/svg" xmlns:xlink="http://www.w3.org/1999/xlink" x="0px" y="0px"
	 viewBox="0 0 1585 928.277" style="enable-background:new 0 0 1585 928.277;" xml:space="preserve">
<g>
	<path style="fill:#080706;" d="M1585,57c-2.509,3.374-2.819,7.543-3.894,11.383c-14.246,50.879-28.339,101.801-42.521,152.697
		c-15.162,54.409-30.378,108.803-45.572,163.204c-0.44,1.575-0.911,3.142-1.479,5.095c-54.183-0.578-108.276-0.298-162.64-0.399
		c11.013-40.156,21.905-79.871,32.904-119.979c-20.606,0-40.542,0-60.855,0c-1.586,5.157-3.236,10.331-4.769,15.54
		c-5.189,17.635-10.381,35.27-15.481,52.931c-2.297,7.954-4.281,15.999-7.841,23.533c-3.43,7.258-7.506,14.088-13.299,19.727
		c-5.704,5.552-12.328,8.373-20.584,8.363c-129.487-0.155-258.974-0.125-388.46-0.169c-72.324-0.025-144.647-0.102-216.971-0.189
		c-2.876-0.003-5.377,0.602-8.048,1.9c-12.959,6.298-26.649,10.127-41.118,10.631c-29.03,1.012-56.755-4.304-82.822-17.431
		c-0.716-0.361-1.334-0.978-2.663-0.532c0.729,5.634,1.284,11.394,2.246,17.086c3.009,17.802,8.497,34.762,17.946,50.261
		c7.602,12.468,16.926,23.46,28.573,32.379c0.525,0.402,1.076,0.777,1.641,1.12c0.278,0.169,0.618,0.236,1.344,0.499
		c6.473-5.057,13.14-10.244,19.784-15.462c11.388-8.944,22.777-17.887,34.123-26.885c1.78-1.412,3.586-2.15,5.913-2.081
		c4.963,0.146,9.934,0.045,16.079,0.045c-130.991,119.012-261.27,237.377-391.49,355.688c-26.66,0-53.151,0-80.837,0
		c124.475-97.731,248.182-194.86,371.999-292.076c-1.701-1.665-2.793-0.445-3.822,0.061c-10.956,5.391-22.714,8.339-34.569,10.612
		c-10.936,2.097-22.088,2.649-33.274,2.579c-12.346-0.078-24.62-0.708-36.758-2.986c-3.446-0.647-6.028,0.514-8.751,2.379
		c-51.989,35.605-104.014,71.157-156.038,106.71C170.077,679.9,87.154,736.562,4.216,793.202C2.96,794.06,1.974,795.75,0,795
		c0-118.667,0-237.333,0-356c1.821-0.095,3.642-0.272,5.463-0.272c83.162-0.014,166.325-0.012,249.487-0.012c1.76,0,3.521,0,5.707,0
		c-0.707-2.423-2.195-3.559-3.307-4.914c-22.297-27.158-36.459-57.619-38.469-93.204c-0.322-5.695-0.506-11.549-2.368-17.558
		c-5.695,21.874-11.275,43.308-16.818,64.596c-66.388,0-132.309,0-198.401,0c0.344-1.596,0.554-2.895,0.906-4.155
		c12.926-46.268,25.901-92.522,38.794-138.798c16.807-60.325,33.551-120.668,50.32-181.003C97.214,42.454,103.105,21.227,109,0
		c63.333,0,126.667,0,190,0c1.172,1.89,3.031,0.943,4.544,0.952c12.827,0.08,25.654,0.046,38.481,0.046
		c35.65,0,71.3,0.017,106.949-0.053c1.659-0.003,3.67,1,5.025-0.945c0.333,0,0.667,0,1,0c0.174,0.491,0.471,0.828,1.029,0.881
		c9.316,0.886,17.574,4.575,25.211,9.746c14.27,9.662,23.518,23.192,29.772,39.001c0.657,1.661,0.786,3.6,2.586,5.085
		c1.056,0,2.378,0,3.7,0c42.971,0,85.942-0.059,128.913,0.055c7.604,0.02,15.239-0.124,22.715,2.201
		c13.605,4.232,21.493,12.972,23.328,27.28c0.463,3.611-0.197,7.258,0.796,10.794c-1.477,0.6-1.137,1.581-0.544,2.631
		c0.659-0.829,0.59-1.764,0.455-2.711c0.876-0.038,0.885-0.741,1.105-1.349c3.994-11.057,7.963-22.123,12.059-33.142
		c0.726-1.952,0.916-4.248,2.871-5.758c1.77,0,3.6-0.005,5.431,0.001c39.816,0.124,79.633,0.108,119.449,0.206
		c103.626,0.254,207.252,0.125,310.879,0.151c1.666,0,3.334-0.028,4.997,0.05c13.946,0.655,25.03,6.069,31.629,18.996
		c0.311,0.61,0.374,1.593,1.743,1.817c2.365-6.924,4.747-13.899,6.975-20.42c57.312,0,114.003,0,171.073,0
		c-10.027,34.668-19.906,68.824-29.875,103.287c21.425,0,42.37,0,63.473,0c9.569-34.461,19.121-68.862,28.563-102.865
		c1.584-0.93,2.777-0.685,3.921-0.685c50.98-0.012,101.96-0.011,152.941-0.007c1.638,0,3.316-0.206,4.807,0.756
		C1585,56.333,1585,56.667,1585,57z M1333.104,74.167c-42.931,0-85.202,0-127.619,0c-27.093,96.987-54.135,193.795-81.306,291.062
		c2.289,0,3.932,0,5.575,0c26.331,0,52.662,0.013,78.993-0.007c9.331-0.007,18.664,0.003,27.994-0.171
		c7.171-0.134,12.75-3.189,16.29-9.627c1.765-3.209,3.164-6.537,4.177-10.068c6.577-22.932,13.208-45.849,19.836-68.766
		c2.755-9.525,5.544-19.04,8.276-28.414c34.83,0,69.247,0,104.146,0c-10.72,39.36-21.328,78.307-32.043,117.647
		c40.607,0,80.553,0,120.854,0c26.526-97.121,53.045-194.22,79.64-291.594c-39.917,0-79.198,0-118.616,0
		c-9.454,35.675-18.861,71.177-28.276,106.703c-36.022-0.03-71.394-0.064-107.184-0.164
		C1313.704,144.835,1323.35,109.696,1333.104,74.167z M540.366,79.581c-2.492,10.253-4.94,20.387-7.42,30.513
		c-9.878,40.336-19.769,80.668-29.648,121.004c-5.667,23.137-11.354,46.269-16.967,69.418c-2.062,8.503-2.394,17.204-0.68,25.711
		c3.348,16.624,13.895,27.911,28.35,35.891c16.309,9.003,34.105,12.617,52.452,13.787c10.125,0.646,20.228,0.064,30.264-1.892
		c17.417-3.395,33.724-9.639,49.203-18.216c6.065-3.361,11.724-7.35,18.116-11.635c-2.236,7.251-4.261,13.817-6.492,21.05
		c40.456-0.118,80.338,1.022,120.38,0.538c26.446-95.318,52.815-190.358,79.343-285.971c-43.406-0.065-86.144,0.245-128.612-0.833
		c-0.406,0.901-0.578,1.183-0.664,1.49c-5.894,20.895-11.82,41.782-17.66,62.692c-10.157,36.37-20.263,72.754-30.386,109.133
		c-2.985,10.727-6.285,21.341-12.539,30.713c-4.091,6.129-8.859,11.646-15.444,15.297c-9.506,5.271-19.372,6.506-29.729,2.788
		c-7.809-2.804-12.815-12.307-10.602-20.14c2.562-9.071,4.896-18.207,7.29-27.325c11.847-45.124,23.673-90.254,35.527-135.377
		c2.273-8.651,4.641-17.276,6.958-25.915c1.763-6.576-1.212-11.265-7.717-12.365c-3.126-0.529-6.241-0.831-9.42-0.831
		c-32.657-0.002-65.315-0.066-97.972-0.083C544.493,79.021,542.644,78.666,540.366,79.581z M844.644,233.226
		c-0.235,0.325-0.492,0.537-0.562,0.799c-5.876,21.918-11.812,43.82-17.568,65.77c-3.101,11.825-7.217,23.446-7.89,35.804
		c-0.339,6.221,0.335,12.146,4.515,17.298c4.242,5.228,10.044,7.517,16.196,9.028c9.561,2.348,19.348,3.058,29.173,3.064
		c67.654,0.041,135.308,0.058,202.962,0.076c1.832,0,3.683,0.081,5.494-0.135c7.916-0.941,14.346-4.047,17.249-12.157
		c0.837-2.339,1.965-4.586,2.664-6.962c3.271-11.123,6.429-22.279,9.644-33.418c7.435-25.763,14.789-51.549,22.371-77.268
		c2.499-8.479,0.652-15.534-5.03-22.131c-4.409-5.119-9.707-9.037-15.062-12.997c-29.43-21.763-58.819-43.58-88.213-65.392
		c-4.028-2.989-8.003-6.05-12.701-9.606c1.652,0,2.314,0,2.975,0c23.662,0.001,47.324,0.001,70.986,0.002
		c8.227,0,16.119,1.871,23.813,4.552c15.442,5.38,27.993,15.067,39.228,26.678c1.18,1.219,2.102,2.801,3.955,3.63
		c4.458-15.911,8.826-31.535,13.215-47.152c1.478-5.259,3.459-10.428,2.981-16.04c-0.48-5.642-2.797-10.199-8.056-12.821
		c-2.674-1.333-5.462-2.354-8.445-2.898c-7.72-1.407-15.515-1.789-23.327-1.792c-72.819-0.026-145.638-0.007-218.458-0.022
		c-4.689-0.001-9.297,0.768-13.725,2.047c-5.192,1.5-9.023,4.644-10.21,10.472c-0.889,4.367-2.477,8.589-3.659,12.901
		c-6.218,22.687-12.887,45.251-18.675,68.057c-1.241,4.889-0.626,9.175,3.222,12.79c2.304,2.165,4.387,4.566,6.949,6.451
		c6.297,4.634,12.608,9.249,18.899,13.89c30.928,22.813,61.857,45.623,92.766,68.461c3.569,2.637,7.016,5.44,10.581,8.214
		c-1.149,1.081-2.169,0.712-3.085,0.711c-25.328-0.028-50.657-0.077-75.985-0.145c-2.821-0.008-5.592-0.421-8.398-0.831
		c-24.471-3.577-53.255-27.22-59.728-47.96C845.585,233.805,845.022,233.557,844.644,233.226z M30.436,363.92
		c50.303,0,99.886,0,149.895,0c32.187-113.503,64.374-227.009,96.612-340.694c-50.898,0-101.466,0-152.234,0
		C93.287,136.78,61.926,250.116,30.436,363.92z M32.373,470.93c0,88.437,0,176.241,0,264.654
		c113.43-77.238,226.324-154.11,339.61-231.25c-4.29-1.523-7.985-2.989-11.773-4.154c-20.093-6.177-38.881-15.172-56.616-26.365
		c-3.092-1.952-6.038-2.948-9.705-2.945c-85.483,0.078-170.965,0.06-256.448,0.06C35.803,470.93,34.166,470.93,32.373,470.93z
		 M517.397,483.047c-2.545-2.862-4.789-5.472-7.124-7.998c-11.931-12.901-20.092-27.932-25.261-44.652
		c-5.148-16.653-7.666-33.878-11.007-50.922c-4.579-23.36-11.451-45.938-23.116-66.815c-10.213-18.278-23.475-33.862-41.616-44.767
		c-12.845-7.721-26.506-12.374-41.871-12.232c-36.817,0.342-73.64,0.104-110.461,0.131c-1.792,0.001-3.641-0.388-5.425,0.391
		c-1.542,4.569-2.23,9.306-3.17,13.979c-3.115,15.484-4.567,31.168-5.156,46.922c-0.329,8.796,0.683,17.551,1.696,26.297
		c1.458,12.588,4.652,24.708,9.43,36.403c9.572,23.429,25.19,42.505,43.692,59.312c20.316,18.454,44.033,31.175,69.936,39.942
		c18.873,6.388,38.217,10.689,58.001,13.108c14.998,1.834,29.941,3.537,45.129,2.048c9.593-0.94,19.03-2.358,28.338-4.823
		C505.451,487.771,511.424,486.05,517.397,483.047z M256.307,231.776c2.001,0.728,3.676,0.427,5.31,0.426
		c43.484-0.03,86.969-0.12,130.453-0.098c7.507,0.004,15.002-0.473,22.371-1.539c8.938-1.293,17-5.294,24.694-10.071
		c20.115-12.488,34.314-29.691,41.95-52.148c5.835-17.159,9.391-34.793,11.187-52.847c1.478-14.866,0.537-29.511-2.298-44.105
		c-2.417-12.439-7.337-23.761-15.374-33.6c-8.037-9.84-18.419-14.827-31.23-14.811c-41.318,0.051-82.637,0.013-123.955,0.044
		c-1.605,0.001-3.334-0.516-5.032,0.77C295.061,92.992,275.691,162.359,256.307,231.776z"/>
	<path style="fill:#0C0B0B;" d="M138,928c0.08-1.823,0.228-3.645,0.229-5.468c0.015-25.309,0.01-50.618,0.01-75.927
		c0-1.643,0-3.287,0-5.269c19.961,0,39.69,0,60.051,0c12.344,21.623,24.939,43.686,37.535,65.749
		c0.423-0.108,0.846-0.215,1.269-0.323c-0.656-21.764-1.227-43.529-2.065-65.531c11.831,0,23.241,0,34.499,0
		c1.025,0.694,0.746,1.601,0.746,2.372c0.018,26.974,0.019,53.948,0.004,80.922c-0.001,1.158-0.181,2.316-0.277,3.474
		c-20,0-40,0-60,0c-0.023-0.318,0.057-0.694-0.085-0.945c-11.922-21.185-23.859-42.362-35.807-63.533
		c-0.438-0.777-0.618-1.913-2.296-1.694c0.729,22.05,1.458,44.111,2.187,66.172C162,928,150,928,138,928z"/>
	<path style="fill:#0C0B0B;" d="M574,928c0.08-1.822,0.228-3.643,0.229-5.465c0.015-25.295,0.01-50.591,0.01-75.886
		c0-1.646,0-3.292,0-4.748c1.264-1.394,2.683-0.879,3.935-0.881c21.801-0.032,43.601-0.024,65.402-0.02
		c8.157,0.001,16.311,0.432,24.273,2.182c7.424,1.632,14.338,4.382,17.862,12.049c0.916,1.993,1.698,4.064,1.896,6.159
		c0.561,5.95,0.812,11.911-0.544,17.847c-0.956,4.183-3.323,7.204-6.901,9.287c-3.742,2.179-7.71,3.899-12.072,4.394
		c-1.243,0.141-2.309,0.3-2.816,1.891c4.337,0.089,8.437,1.145,12.418,2.7c5.893,2.301,9.031,6.657,9.194,12.934
		c0.143,5.484-0.046,10.977-0.088,16.465c-11.821-0.013-23.642-0.026-35.463-0.038c-0.032-3.653-0.283-7.321-0.048-10.957
		c0.435-6.717-3.827-10.555-9.739-10.802c-10.389-0.434-20.81-0.121-31.547-0.121c0,7.813,0,15.411,0,23.009
		C598,928,586,928,574,928z M610.079,884.243c4.768,0,9.071,0.026,13.375-0.006c6.477-0.049,12.96,0.024,19.427-0.259
		c6.043-0.265,7.859-2.206,8.431-8.153c0.143-1.486,0.372-2.983,0.322-4.467c-0.228-6.855-2.415-9.103-9.271-9.682
		c-9.453-0.799-18.925-0.237-28.387-0.367c-1.271-0.017-2.667-0.463-3.898,0.633C610.079,869.141,610.079,876.407,610.079,884.243z"
		/>
	<path style="fill:#080707;" d="M870,928c0-28.788,0-57.575,0-86.241c1.238-1.283,2.65-0.732,3.901-0.734
		c21.313-0.038,42.625-0.018,63.938-0.031c8.496-0.006,16.978,0.418,25.288,2.183c6.742,1.431,13.119,3.824,16.945,10.263
		c0.764,1.286,1.553,2.524,1.921,4.014c1.785,7.229,1.658,14.519,0.477,21.781c-0.648,3.985-3.226,6.867-6.562,9.023
		c-3.816,2.466-8.016,3.968-12.492,4.677c-1.139,0.18-2.388,0.003-3.082,1.797c4.256,0.176,8.25,1.199,12.169,2.554
		c6.322,2.186,9.932,8.049,9.565,13.669c-0.346,5.306-0.15,10.647-0.192,15.973c-11.666,0.055-23.332,0.109-34.998,0.164
		c-0.055-3.821-0.098-7.643-0.169-11.464c-0.116-6.267-3.296-10.296-9.547-10.526c-10.574-0.389-21.172-0.107-32.162-0.107
		c0,7.785,0,15.395,0,23.006C893.333,928,881.667,928,870,928z M905.535,861.261c-0.904,6.115-0.729,19.547,0.223,22.885
		c9.642,0,19.278-0.02,28.915,0.005c11.427,0.03,12.453-3.184,12.219-14.24c-0.007-0.33-0.069-0.661-0.129-0.987
		c-0.856-4.678-2.772-6.705-7.539-7.134C927.984,860.776,916.723,861.46,905.535,861.261z"/>
	<path style="fill:#0C0B0B;" d="M1123,928c-0.557-1.578-1.941-0.923-2.976-1.027c-5.01-0.503-9.873-1.691-14.284-4.057
		c-9.304-4.99-12.319-13.294-11.772-23.6c11.21,0,22.29,0,33.348,0c1.43,7.06,3.405,9.186,11.096,9.509
		c8.786,0.369,17.608,0.758,26.406-0.645c6.871-1.095,7.11-5.549,6.025-10.693c-0.592-2.806-3.488-3.324-6.032-3.479
		c-6.481-0.396-12.967-0.789-19.456-0.975c-9.652-0.276-19.307-0.681-28.836-2.196c-5.681-0.903-11.455-2.026-16.054-6.111
		c-2.699-2.397-4.503-5.21-5.516-8.689c-1.578-5.418-1.667-10.942-0.538-16.308c1.674-7.962,6.937-13.074,14.596-15.622
		c4.896-1.629,9.995-2.532,15.111-2.975c17.296-1.497,34.611-1.186,51.896,0.162c5.109,0.399,10.163,1.445,14.925,3.635
		c8.127,3.738,12.122,10.003,12.064,18.91c-0.008,1.305-0.001,2.61-0.001,4.181c-11.359,0-22.408,0-33.44,0
		c-1.588-6.499-3.193-7.717-9.879-8.211c-7.333-0.542-14.644-0.097-21.966,0.132c-1.718,0.054-3.293,0.56-4.815,1.193
		c-3.135,1.304-4.195,3.135-3.829,6.194c0.416,3.472,1.803,5.146,5.189,5.723c8.719,1.486,17.564,1.451,26.361,1.946
		c10.96,0.617,21.898,1.125,32.578,4.096c8.213,2.284,12.701,7.473,13.405,15.899c0.387,4.638,0.479,9.241-0.296,13.921
		c-1.074,6.481-5.034,10.381-10.529,12.917c-7.782,3.591-16.078,5.182-24.652,5.273c-4.378,0.274-8.861-0.98-13.13,0.897
		C1146.333,928,1134.667,928,1123,928z"/>
	<path style="fill:#0C0B0B;" d="M1409,928c-0.703-1.346-2.028-1-3.098-0.975c-2.884,0.066-5.625-0.681-8.323-1.445
		c-12.548-3.553-19.392-11.394-18.981-26.26c11.096,0,22.203,0,33.359,0c0.148,0.206,0.5,0.468,0.507,0.74
		c0.133,5.023,2.955,7.479,7.683,8.189c0.985,0.148,1.95,0.622,2.924,0.623c8.977,0.009,17.977,0.889,26.911-0.758
		c5.401-0.996,8.116-5.779,5.887-10.808c-1.155-2.607-3.663-3.164-6.24-3.321c-4.655-0.284-9.311-0.565-13.969-0.795
		c-8.817-0.434-17.643-0.713-26.451-1.285c-5.805-0.377-11.572-1.378-17.056-3.339c-6.291-2.25-10.699-6.397-12.38-13.216
		c-1.307-5.303-1.485-10.643-0.31-15.829c1.792-7.902,6.97-13.018,14.734-15.473c9.474-2.996,19.302-3.411,29.095-3.755
		c12.159-0.427,24.324-0.008,36.459,0.88c5.651,0.413,11.159,1.566,16.386,3.921c7.792,3.511,11.671,9.527,11.847,18.007
		c0.028,1.332,0.016,2.667-0.036,3.998c-0.011,0.295-0.266,0.58-0.485,1.027c-10.873,0-21.816,0-33.04,0
		c-0.613-2.274-0.665-4.912-2.902-6.496c-2.304-1.631-4.959-1.662-7.624-1.868c-7.002-0.542-13.985-0.022-20.976,0.176
		c-1.532,0.043-2.956,0.412-4.36,0.96c-3.673,1.434-4.811,3.004-4.505,6.23c0.349,3.674,1.763,5.326,5.509,5.946
		c8.727,1.444,17.572,1.427,26.372,1.948c11.448,0.678,22.917,1.01,33.959,4.742c6.071,2.052,9.786,5.998,11.136,12.201
		c1.404,6.447,1.506,12.978-0.236,19.303c-1.449,5.259-5.458,8.556-10.398,10.743c-7.716,3.416-15.842,4.836-24.212,5.143
		c-4.408,0.088-8.885-0.883-13.188,0.844C1431.667,928,1420.333,928,1409,928z"/>
	<path style="fill:#0C0B0B;" d="M725,928c0-28.795,0-57.59,0-85.929c0.764-1.105,1.458-0.996,2.102-0.996
		c23.826,0.024,47.653-0.019,71.479,0.121c7.862,0.046,15.534,1.646,22.831,4.575c8.847,3.55,13.402,10.419,14.647,19.753
		c0.89,6.676,0.478,13.269-0.724,19.846c-1.85,10.122-8.558,15.323-18.035,17.614c-9.134,2.208-18.462,2.264-27.781,2.299
		c-8.664,0.032-17.328-0.008-25.992,0.028c-0.951,0.004-1.987-0.361-3.526,0.829c0,6.964,0,14.412,0,21.86
		C748.333,928,736.667,928,725,928z M760.734,884.951c10.328,0,20.261,0.038,30.193-0.042c1.458-0.012,2.934-0.511,4.362-0.922
		c2.024-0.583,3.282-1.848,4.015-3.962c1.076-3.106,0.786-6.238,0.719-9.364c-0.124-5.754-2.15-7.818-7.921-8.814
		c-7.431-1.282-14.912-0.543-22.368-0.688c-2.948-0.058-5.939-0.376-8.998,0.339C760.734,869.226,760.734,876.841,760.734,884.951z"
		/>
	<path style="fill:#050505;" d="M0,841c31.62,0,63.24,0,95.072,0c0,6.451,0,12.51,0,19.017c-19.895,0-39.636,0-59.578,0
		c0,5.369,0,10.295,0,15.64c18.631,0,37.207,0,56.02,0c0,5.507,0,10.601,0,16.169c-18.607,0-37.173,0-55.98,0
		c0,5.559,0,10.651,0,16.162c20.108,0,40.179,0,60.465,0c0.725,4.806,0.154,9.265,0.393,13.687c0.114,2.112-0.579,4.315,0.609,6.325
		c-0.667,0-1.333,0-2,0c-1.363-1.913-3.362-0.898-5.005-0.903C59.997,927.004,29.998,927.013,0,927C0,898.333,0,869.667,0,841z"/>
	<path style="fill:#050505;" d="M335,928c-0.095-1.826-0.27-3.651-0.272-5.477c-0.02-18.662-0.012-37.324-0.012-55.985
		c0-1.627,0-3.253,0-5.16c-11.292,0-22.228,0-33.439,0c0-6.849,0-13.413,0-20.179c34.706,0,69.297,0,104.184,0
		c0,6.616,0,13.175,0,20.113c-11.786,0-23.386,0-35.461,0c0,22.478,0,44.583,0,66.689C358.333,928,346.667,928,335,928z"/>
	<path style="fill:#131111;" d="M1021,928c0-28.758,0-57.516,0-86.626c11.798,0,23.481,0,35.213,0
		c0.845,1.568,0.402,3.258,0.404,4.871c0.034,25.612,0.015,51.225,0.044,76.838c0.002,1.636-0.391,3.323,0.339,4.917
		C1045,928,1033,928,1021,928z"/>
	<path style="fill:#373534;" d="M454,0c-1.355,1.945-3.366,0.942-5.025,0.945c-35.65,0.07-71.299,0.053-106.949,0.053
		c-12.827,0-25.655,0.034-38.481-0.046C302.031,0.943,300.172,1.89,299,0C350.667,0,402.333,0,454,0z"/>
	<path style="fill:#888585;" d="M1244,928c0.073-0.387,0.147-0.773,0.22-1.16c23.647,0.025,47.293,0.066,70.94,0.069
		c8.491,0.001,16.982-0.088,25.473-0.136c0.122,0.409,0.245,0.818,0.367,1.227C1308.667,928,1276.333,928,1244,928z"/>
	<path style="fill:#888585;" d="M532.91,926.927c0.03,0.358,0.06,0.715,0.09,1.073c-32,0-64,0-96,0
		c-0.296-0.223-0.346-0.492-0.151-0.806c30.2-0.026,60.4-0.049,90.6-0.086C529.269,927.105,531.09,926.99,532.91,926.927z"/>
	<path style="fill:#747171;" d="M0,927c29.998,0.013,59.997,0.004,89.995,0.097c1.644,0.005,3.643-1.009,5.005,0.903
		c-30.674,0-61.347,0.013-92.021-0.061C2.037,927.936,0.384,929.148,0,927z"/>
	<path style="fill:#676464;" d="M651,928c0.111-0.376,0.223-0.753,0.334-1.129c11.821,0.013,23.642,0.026,35.463,0.038
		c0.068,0.364,0.135,0.727,0.203,1.091C675,928,663,928,651,928z"/>
	<path style="fill:#747171;" d="M947,928c-0.076-0.195-0.175-0.386-0.219-0.588c-0.021-0.095,0.062-0.213,0.097-0.32
		c11.666-0.055,23.332-0.11,34.998-0.164c0.042,0.358,0.083,0.715,0.124,1.073C970.333,928,958.667,928,947,928z"/>
	<path style="fill:#676464;" d="M1158,928c4.269-1.876,8.752-0.623,13.13-0.897c-0.117,0.288-0.161,0.587-0.13,0.897
		C1166.667,928,1162.333,928,1158,928z"/>
	<path style="fill:#676464;" d="M1443,928c4.303-1.727,8.78-0.756,13.188-0.844c-0.049,0.284-0.112,0.566-0.188,0.844
		C1451.667,928,1447.333,928,1443,928z"/>
	<path style="fill:#080707;" d="M970.698,440.02c174.869,0,348.746,0,522.873,0c0,118.583,0,237.008,0,356.148
		C1319.36,677.507,1145.416,559.027,970.698,440.02z M1461.004,472.226c-128.332,0-256.494,0-385.58,0
		c127.717,86.974,254.74,173.476,381.767,259.973c0.951,0.648,1.947,1.23,2.936,1.82c0.119,0.071,0.344,0.035,0.49-0.025
		c0.617-0.253-0.335-0.442,0.388-0.261C1461.004,646.628,1461.004,559.543,1461.004,472.226z"/>
	<path style="fill:#090808;" d="M882.281,440.347c6.832,0,12.991,0,19.289,0c150.719,118.324,301.485,236.683,452.816,355.487
		c-27.344,0-53.92,0-80.83,0C1143.484,677.66,1013.171,559.265,882.281,440.347z"/>
	<path style="fill:#090808;" d="M315.271,795.831c121.847-118.849,243.121-237.137,364.417-355.448c5.227,0,10.383,0,16.089,0
		c-102.176,118.665-204.171,237.12-306.057,355.448C365.052,795.831,340.629,795.831,315.271,795.831z"/>
	<path style="fill:#090808;" d="M1193.541,795.918c-25.4,0-49.881,0-74.453,0C1017.17,677.557,915.265,559.211,812.973,440.417
		c5.618,0,10.514,0,16.105,0C950.082,558.445,1071.462,676.841,1193.541,795.918z"/>
	<path style="fill:#050505;" d="M1340.633,926.773c-8.491,0.048-16.982,0.137-25.473,0.136c-23.647-0.003-47.293-0.043-70.94-0.069
		c-0.049-19.478-0.105-38.956-0.144-58.434c-0.018-8.959-0.003-17.917-0.003-27.14c31.872,0,63.441,0,95.347,0
		c0,5.956,0,12.017,0,18.541c-19.632,0-39.348,0-59.362,0c0,5.346,0,10.25,0,15.876c9.113,0.066,18.347,0.023,27.579,0.031
		c9.282,0.007,18.564,0.002,28.067,0.002c0,5.473,0,10.568,0,16.183c-18.541,0-37.077,0-55.776,0c0,5.602,0,10.689,0,16.183
		c20.205,0,40.262,0,60.706,0C1340.633,914.578,1340.633,920.676,1340.633,926.773z"/>
	<path style="fill:#050505;" d="M532.91,926.927c-1.82,0.063-3.64,0.178-5.461,0.18c-30.2,0.037-60.4,0.06-90.6,0.086
		c-0.045-23.474-0.091-46.948-0.132-70.422c-0.009-5.116-0.001-10.232-0.001-15.556c31.787,0,63.204,0,94.953,0
		c0,5.962,0,12.033,0,18.661c-19.617,0-39.464,0-59.486,0c0,5.474,0,10.397,0,15.68c18.561,0,36.975,0,55.744,0
		c0,5.543,0,10.738,0,16.245c-18.472,0-36.898,0-55.624,0c0,5.52,0,10.743,0,16.395c20.098,0,40.145,0,60.607,0
		C532.91,914.716,532.91,920.822,532.91,926.927z"/>
	<path style="fill:#E9AF22;" d="M1333.104,74.167c-9.754,35.53-19.4,70.668-29.264,106.6c35.789,0.099,71.161,0.133,107.184,0.164
		c9.414-35.526,18.822-71.028,28.276-106.703c39.419,0,78.699,0,118.616,0c-26.595,97.374-53.114,194.473-79.64,291.594
		c-40.302,0-80.247,0-120.854,0c10.715-39.339,21.323-78.287,32.043-117.647c-34.898,0-69.316,0-104.146,0
		c-2.731,9.374-5.521,18.889-8.276,28.414c-6.628,22.917-13.259,45.834-19.836,68.766c-1.013,3.531-2.413,6.859-4.177,10.068
		c-3.54,6.438-9.119,9.494-16.29,9.627c-9.329,0.174-18.662,0.164-27.994,0.171c-26.331,0.019-52.662,0.007-78.993,0.007
		c-1.643,0-3.286,0-5.575,0c27.171-97.266,54.213-194.075,81.306-291.062C1247.901,74.167,1290.172,74.167,1333.104,74.167z"/>
	<path style="fill:#E8AF22;" d="M540.366,79.581c2.278-0.915,4.127-0.56,5.93-0.559c32.657,0.017,65.315,0.081,97.972,0.083
		c3.179,0,6.294,0.302,9.42,0.831c6.505,1.1,9.48,5.789,7.717,12.365c-2.316,8.639-4.685,17.265-6.958,25.915
		c-11.854,45.122-23.68,90.252-35.527,135.377c-2.394,9.118-4.728,18.254-7.29,27.325c-2.212,7.834,2.793,17.336,10.602,20.14
		c10.357,3.718,20.224,2.483,29.729-2.788c6.585-3.651,11.353-9.168,15.444-15.297c6.255-9.372,9.555-19.985,12.539-30.713
		c10.122-36.379,20.228-72.763,30.386-109.133c5.84-20.91,11.766-41.797,17.66-62.692c0.086-0.306,0.259-0.589,0.664-1.49
		c42.467,1.077,85.205,0.768,128.612,0.833c-26.528,95.614-52.897,190.653-79.343,285.971c-40.042,0.484-79.924-0.656-120.38-0.538
		c2.231-7.233,4.256-13.799,6.492-21.05c-6.392,4.285-12.051,8.274-18.116,11.635c-15.479,8.578-31.785,14.821-49.203,18.216
		c-10.036,1.956-20.139,2.538-30.264,1.892c-18.347-1.17-36.143-4.784-52.452-13.787c-14.455-7.98-25.002-19.268-28.35-35.891
		c-1.714-8.507-1.382-17.208,0.68-25.711c5.613-23.15,11.3-46.282,16.967-69.418c9.88-40.335,19.771-80.668,29.648-121.004
		C535.426,99.968,537.874,89.834,540.366,79.581z"/>
	<path style="fill:#E8AF22;" d="M844.644,233.226c0.378,0.331,0.941,0.579,1.062,0.966c6.473,20.74,35.257,44.383,59.728,47.96
		c2.806,0.41,5.577,0.823,8.398,0.831c25.328,0.068,50.657,0.117,75.985,0.145c0.916,0.001,1.937,0.37,3.085-0.711
		c-3.565-2.774-7.012-5.576-10.581-8.214c-30.909-22.838-61.839-45.648-92.766-68.461c-6.292-4.641-12.603-9.256-18.899-13.89
		c-2.562-1.886-4.645-4.287-6.949-6.451c-3.848-3.615-4.463-7.901-3.222-12.79c5.788-22.806,12.456-45.37,18.675-68.057
		c1.182-4.312,2.769-8.534,3.659-12.901c1.187-5.828,5.018-8.973,10.21-10.472c4.429-1.279,9.036-2.048,13.725-2.047
		c72.819,0.015,145.638-0.004,218.458,0.022c7.812,0.003,15.607,0.385,23.327,1.792c2.983,0.544,5.771,1.565,8.445,2.898
		c5.258,2.622,7.575,7.179,8.056,12.821c0.478,5.612-1.503,10.78-2.981,16.04c-4.389,15.617-8.757,31.241-13.215,47.152
		c-1.853-0.829-2.775-2.411-3.955-3.63c-11.234-11.61-23.785-21.298-39.228-26.678c-7.695-2.681-15.586-4.552-23.813-4.552
		c-23.662-0.001-47.324-0.002-70.986-0.002c-0.661,0-1.323,0-2.975,0c4.698,3.556,8.673,6.617,12.701,9.606
		c29.394,21.812,58.783,43.629,88.213,65.392c5.355,3.96,10.653,7.879,15.062,12.997c5.682,6.598,7.53,13.652,5.03,22.131
		c-7.582,25.719-14.936,51.506-22.371,77.268c-3.215,11.139-6.373,22.295-9.644,33.418c-0.699,2.376-1.827,4.623-2.664,6.962
		c-2.902,8.11-9.332,11.216-17.249,12.157c-1.811,0.215-3.662,0.135-5.494,0.135c-67.654-0.018-135.308-0.034-202.962-0.076
		c-9.825-0.006-19.612-0.716-29.173-3.064c-6.151-1.51-11.953-3.8-16.196-9.028c-4.18-5.152-4.854-11.077-4.515-17.298
		c0.672-12.358,4.788-23.979,7.89-35.804c5.756-21.949,11.693-43.852,17.568-65.77C844.152,233.763,844.409,233.551,844.644,233.226
		z"/>
	<path style="fill:#E9AF22;" d="M30.436,363.92c31.49-113.804,62.851-227.14,94.272-340.694c50.768,0,101.337,0,152.234,0
		c-32.238,113.685-64.426,227.191-96.612,340.694C130.322,363.92,80.739,363.92,30.436,363.92z"/>
	<path style="fill:#E9AF22;" d="M517.397,483.047c-5.974,3.003-11.947,4.725-17.985,6.324c-9.307,2.465-18.744,3.883-28.338,4.823
		c-15.188,1.489-30.132-0.214-45.129-2.048c-19.784-2.419-39.128-6.72-58.001-13.108c-25.903-8.767-49.619-21.488-69.936-39.942
		c-18.502-16.806-34.12-35.883-43.692-59.312c-4.778-11.695-7.973-23.815-9.43-36.403c-1.013-8.746-2.025-17.5-1.696-26.297
		c0.589-15.754,2.04-31.438,5.156-46.922c0.94-4.672,1.628-9.41,3.17-13.979c1.784-0.779,3.633-0.39,5.425-0.391
		c36.821-0.027,73.643,0.211,110.461-0.131c15.365-0.143,29.026,4.51,41.871,12.232c18.142,10.905,31.404,26.489,41.616,44.767
		c11.665,20.878,18.537,43.455,23.116,66.815c3.341,17.044,5.858,34.269,11.007,50.922c5.169,16.72,13.33,31.75,25.261,44.652
		C512.609,477.575,514.852,480.185,517.397,483.047z"/>
	<path style="fill:#E9AF22;" d="M256.307,231.776c19.384-69.417,38.754-138.784,58.076-207.978c1.698-1.286,3.426-0.769,5.032-0.77
		c41.318-0.031,82.637,0.008,123.955-0.044c12.812-0.016,23.193,4.971,31.23,14.811c8.037,9.84,12.957,21.161,15.374,33.6
		c2.835,14.594,3.776,29.239,2.298,44.105c-1.795,18.054-5.352,35.688-11.187,52.847c-7.637,22.457-21.835,39.66-41.95,52.148
		c-7.694,4.777-15.756,8.778-24.694,10.071c-7.368,1.066-14.864,1.543-22.371,1.539c-43.484-0.022-86.968,0.067-130.453,0.098
		C259.983,232.203,258.308,232.504,256.307,231.776z"/>
</g>
</svg>
