<?xml version="1.0" encoding="iso-8859-1"?>
<!-- Generator: Adobe Illustrator 27.0.0, SVG Export Plug-In . SVG Version: 6.00 Build 0)  -->
<svg version="1.1" id="Layer_1" xmlns="http://www.w3.org/2000/svg" xmlns:xlink="http://www.w3.org/1999/xlink" x="0px" y="0px"
	 viewBox="0 0 1523 534" style="enable-background:new 0 0 1523 534;" xml:space="preserve">
<g>
	<path style="fill:#030303;" d="M0,526c0-95,0-190,0-285c1.82-0.095,3.64-0.272,5.46-0.273
		c77.287-0.014,154.575-0.016,231.862-0.002c4.666,0.001,9.32-0.049,13.965-0.577c13.927-1.583,25.457-7.637,33.62-19.075
		c11.101-15.555,13.085-32.746,7.209-50.727c-4.939-15.114-15.037-25.507-30.139-30.922c-6.549-2.348-13.303-2.686-20.149-2.684
		c-78.953,0.019-157.906,0.011-236.859,0.022c-1.656,0-3.313,0.155-4.969,0.237C0,94,0,51,0,8c1.832,0.024,3.663,0.069,5.495,0.069
		c75.831,0.004,151.662-0.01,227.493,0.02c9.49,0.004,18.964,0.087,28.461,0.757c20.022,1.414,39.441,5.341,58.249,12.297
		c23.981,8.87,45.532,21.791,63.995,39.517c34.088,32.728,51.585,73.06,54.146,120.048c0.957,17.564-0.759,34.939-5.221,51.919
		c-10.555,40.165-32.383,72.832-65.959,97.476c-4.269,3.133-8.631,6.141-13.108,9.319c35.756,61.93,71.349,123.579,107.32,185.882
		c62.163-87.776,124.121-175.262,186.227-262.958C587.4,177.804,527.672,93.219,467.625,8.182c55.629,0,110.439,0,165.483,0
		c16.088,22.769,32.2,45.578,48.317,68.383c16.059,22.723,31.937,45.576,48.522,68.655c32.764-46.24,65.031-91.78,97-136.898
		c55.108,0,109.513,0,164.692,0C931.482,93.15,871.701,177.445,811.896,261.774c62.334,88.004,124.482,175.744,187.005,264.014
		c-55.752,0-110.549,0-165.386,0c-34.395-49.003-68.739-97.931-103.445-147.376c-35.11,49.508-69.81,98.437-104.521,147.382
		c-106.406,0-212.71,0-319.313,0c-30.162-52.265-60.341-104.56-90.431-156.701c-10.324-0.957-73.884-0.562-77.906,0.584
		c0,51.925,0,103.984,0,156.25c-2.278,0-4.092-0.001-5.906,0C87.995,525.952,43.998,525.976,0,526z"/>
	<path style="fill:#030302;" d="M1231,534c-0.47-1.275-1.603-0.924-2.527-0.988c-47.594-3.314-91.838-17.126-131.931-43.124
		c-34.916-22.641-62.965-51.979-83.684-88.247c-14.955-26.18-24.965-54.117-30.54-83.664c-4.311-22.849-5.535-45.977-4.028-69.125
		c3.068-47.122,17.046-90.773,43.24-130.268c18.53-27.939,41.726-51.372,69.284-70.408c26.326-18.185,55.161-31.002,86.105-39.049
		C1193.024,4.938,1209.358,2.005,1226,1c0.809-0.049,1.691,0.05,2-1c14.333,0,28.667,0,43,0c0.622,1.535,2.011,0.922,3.022,0.913
		c5.35-0.046,10.642,0.757,15.885,1.485c16.276,2.26,32.315,5.7,48.004,10.704c29.002,9.251,55.89,22.627,80.239,40.957
		c38.058,28.651,66.277,65.01,84.417,109.025c11.334,27.5,17.757,56.218,19.436,85.959c0.057,1.017-0.621,2.414,0.996,2.956
		c0,1.333,0,2.667,0,4c-0.739,0.176-1.047,0.688-1.046,1.401c0.003,5.39,0.013,10.78,0.024,16.17
		c0.001,0.714,0.294,1.23,1.022,1.429c0,2.333,0,4.667,0,7c-1.622,0.539-0.942,1.93-1.001,2.953
		c-0.969,16.794-3.498,33.369-7.584,49.664c-7.315,29.171-19.109,56.423-35.727,81.55c-19.84,30-45.012,54.667-75.171,74.097
		c-40.462,26.068-84.996,39.9-132.977,42.833c-0.905,0.055-2.053-0.399-2.541,0.903c-7.667,0-15.333,0-23,0
		c-3.538-1.957-7.376-0.593-11.057-0.975c-0.542-0.056-0.77,0.508-0.943,0.975C1232.333,534,1231.667,534,1231,534z
		 M1121.302,270.325c0.568,8.504,1.116,16.122,2.554,23.672c6.494,34.098,22.977,62.114,51.018,82.796
		c18.995,14.009,40.525,21.434,64.117,23.495c15.476,1.352,30.68,0.19,45.508-3.749c30.228-8.03,54.353-25.108,71.914-51.123
		c13.782-20.416,21.016-43.044,22.837-67.577c1.768-23.822-1.631-46.728-11.195-68.635c-11.268-25.808-28.927-46.005-53.543-59.858
		c-15.66-8.813-32.393-14.129-50.426-15.699c-15.925-1.386-31.601-0.605-47.035,3.376c-24.812,6.399-46.022,19.104-62.794,38.45
		C1130.517,202.859,1120.652,235.272,1121.302,270.325z"/>
	<path style="fill:#7F7C7C;" d="M1523,275c-0.728-0.199-1.021-0.715-1.022-1.429c-0.011-5.39-0.021-10.78-0.024-16.17
		c0-0.713,0.307-1.226,1.046-1.401C1523,262.333,1523,268.667,1523,275z"/>
	<path style="fill:#5D5A5A;" d="M1233,534c0.173-0.467,0.401-1.031,0.943-0.975c3.681,0.382,7.518-0.982,11.057,0.975
		C1241,534,1237,534,1233,534z"/>
</g>
</svg>
