<?xml version="1.0" encoding="iso-8859-1"?>
<!-- Generator: Adobe Illustrator 27.0.0, SVG Export Plug-In . SVG Version: 6.00 Build 0)  -->
<svg version="1.1" id="Layer_1" xmlns="http://www.w3.org/2000/svg" xmlns:xlink="http://www.w3.org/1999/xlink" x="0px" y="0px"
	 viewBox="0 0 1269.387 1680.605" style="enable-background:new 0 0 1269.387 1680.605;" xml:space="preserve">
<g>
	<path style="fill:#1C5CAB;" d="M0.001,0c423.369,0,846.107,0,1268.876,0c0.782,1.754,0.433,3.432,0.433,5.049
		c0.018,493.977,0.012,987.954,0.043,1481.931c0.001,12.699-1.049,25.241-4.302,37.537c-6.035,22.816-20.245,38.852-41.159,49.227
		c-11.621,5.765-23.974,9.71-36.121,14.135c-45.209,16.466-91.227,30.304-137.89,42.012c-23.647,5.933-47.441,11.205-71.324,16.106
		c-25.527,5.239-51.222,9.526-76.937,13.661c-18.03,2.899-36.137,5.341-54.287,7.472c-15.185,1.783-30.378,3.429-45.587,4.99
		c-15.886,1.63-31.799,2.81-47.718,4.008c-11.121,0.837-22.255,1.328-33.382,1.994c-22.953,1.375-45.939,1.434-68.902,2.227
		c-23.679,0.817-47.296-0.557-70.941-0.751c-14.472-0.119-28.948-1.015-43.402-1.899c-18.262-1.116-36.542-2.192-54.744-3.989
		c-20.168-1.99-40.336-4.024-60.459-6.529c-27.193-3.385-54.25-7.558-81.286-11.986c-38.164-6.251-75.977-14.15-113.54-23.275
		c-32.711-7.947-65.088-17.108-97.153-27.36c-27.01-8.636-53.837-17.812-80.069-28.602c-12.302-5.06-23.124-12.489-31.664-22.847
		c-8.765-10.632-13.494-23.099-16.208-36.476c-2.1-10.351-2.279-20.812-2.279-31.3c0.001-120.661,0.001-241.322,0.001-361.983
		c0-372.146,0-744.293,0-1116.439C0.001,4.761,0.001,2.611,0.001,0z M674.661,169.843c0.775,0.716,0.676,1.408,0.676,2.055
		c-0.018,20.655,0.108,41.312-0.166,61.964c-0.079,5.931-0.808,11.907-2.688,17.669c-3.504,10.734-10.511,15.07-20.879,16.417
		c-12.586,1.635-25.277,0.973-37.913,1.629c-18.797,0.975-37.642,0.061-56.457,1.041c-15.174,0.79-30.072,2.674-44.327,8.31
		c-26.185,10.352-39.935,29.699-41.611,57.636c-0.467,7.793-0.222,15.603,0.865,23.41c1.601,11.5,5.001,22.352,11.115,32.167
		c16.719,26.837,42.329,39.159,72.536,43.699c8.942,1.344,17.873,0.942,26.885,0.169c15.643-1.341,30.16-5.917,43.841-13.438
		c5.911-6.061,13.336-6.483,21.169-5.991c5.411,0.34,10.86,0.065,16.384,0.065c0,15.634,0,30.717,0,46.072
		c-16.966-6.204-34.331-7.255-51.866-6.75c-15.651,0.451-31.15,2.528-46.542,5.224c-21.555,3.777-42.806,9.17-64.473,12.367
		c-8.38,1.237-16.773,2.49-25.203,3.268c-10.598,0.977-21.212,1.816-31.839,2.53c-17.234,1.158-34.306,0.572-50.97-3.968
		c-35.762-9.744-62.822-30.852-80.666-63.455c-9.444-17.255-14.44-35.899-16.513-55.669c-9.685-5.773-19.443-11.59-29.484-17.576
		c-0.155,1.202-0.256,1.852-0.32,2.505c-1.058,10.813-0.721,21.605-0.016,32.438c0.802,12.31,2.679,24.387,5.79,36.311
		c8.503,32.596,27.162,58.439,52.893,79.54c16.13,13.228,33.933,23.847,52.495,33.288c26.766,13.613,53.088,28.031,78.327,44.347
		c23.382,15.115,45.761,31.526,65.58,51.205c25.71,25.528,45.472,54.932,57.981,89.062c1.403,3.828,2.404,7.832,4.434,11.507
		c3.352-0.336,6.489,0.475,9.948-0.657c0-22.775,0-45.473,0-68.15c1.557-0.091,2.219,0.782,3.029,1.295
		c15.308,9.694,30.23,19.963,44.831,30.684c27.301,20.044,53.373,41.482,75.719,67.141c17.718,20.345,32.137,42.642,41.266,68.17
		c8.516,23.814,14.708,48.16,16.989,73.418c0.279,3.086,0.814,6.149,1.232,9.241c3.492,0.033,6.629,0.406,9.596-0.177
		c0.313-0.484,0.597-0.739,0.653-1.036c3.327-17.543,4.85-35.276,4.773-53.1c-0.071-16.471-1.266-32.861-4.285-49.134
		c-3.346-18.036-8.374-35.41-17.253-51.55c-0.631-1.148-1.467-2.237-1.449-3.86c27.366,1.29,54.717,2.58,82.279,3.88
		c-1.671,34.405-0.751,68.437,2.868,102.585c-9.828,0.83-19.568,1.312-29.416,1.558c-0.12,3.656-0.528,6.738,0.263,9.77
		c10.295,1.365,20.498,0.674,30.776,2.313c2.128,13.882,4.06,27.801,7.363,41.754c3.187-0.429,6.143,0.316,9.327-0.581
		c-0.632-13.595-0.153-26.989,0.234-40.481c1.966,0,3.474-0.173,4.931,0.028c8.927,1.232,17.937,1.177,26.904,1.764
		c13.623,0.891,27.266,1.479,40.899,2.229c17.284,0.951,34.567,1.913,51.847,2.917c5.757,0.335,11.506,0.813,17.44,1.239
		c-0.677,30.54-3.92,60.368-9.447,90.13c-10.418,1.314-20.594,2.597-30.846,3.89c-0.565,2.263-1.016,4.315,0.393,6.36
		c9.292,0.615,18.536,1.02,28.077,2.415c-2.674,11.334-5.241,22.216-7.902,33.495c3.379,0.279,6.287,0.4,9.153-0.105
		c6.445-10.458,11.46-21.459,16.799-32.606c37.458,2.942,74.81,5.875,112.688,8.85c-5.775,8.389-11.41,15.789-17.472,22.864
		c-13.178,15.381-27.915,28.995-45.044,39.933c-2.182,1.393-4.403,2.349-6.943,2.421c-3.004,0.085-5.944,0.635-8.914,0.944
		c-14.711,1.531-29.196,4.55-43.85,6.477c-13.98,1.838-27.851,4.482-41.794,6.619c-16.572,2.54-33.176,4.869-49.753,7.381
		c-14.113,2.138-28.205,4.411-42.307,6.616c-16.884,2.64-33.764,5.3-50.659,7.87c-2.234,0.34-4.543,0.759-6.965,0.243
		c-5.01-19.066-11.366-37.389-20.304-54.907c-14.136-27.706-30.888-53.471-52.123-76.271
		c-19.708-21.161-41.723-39.744-64.514-57.396c-30.367-23.52-61.84-45.536-93.492-67.285
		c-47.652-32.742-95.81-64.738-143.802-96.977c-39.859-26.775-80.093-52.994-119.136-80.975
		c-46.281-33.169-91.845-67.228-133.733-105.933c-19.351-17.881-38.019-36.432-54.443-57.095
		c-13.174-16.574-24.624-34.2-32.217-54.127c-6.295-16.52-10.205-33.535-11.86-51.155c-1.442-15.347-1.446-30.62,1.495-45.737
		c3.872-19.903,11.258-38.43,23.196-54.984c0.767-1.063,1.706-1.996,1.7-3.495c-0.037-8.792-0.018-17.585-0.018-26.825
		c-1.362,0.721-2.24,1.15-3.084,1.638c-11.722,6.78-21.124,16.122-29.277,26.783c-21.965,28.719-31.933,61.505-32.71,97.343
		c-0.18,8.328,0.294,16.64,0.812,24.963c0.705,11.31,1.988,22.541,4.486,33.548c5.536,24.387,14.846,47.353,27.323,69.025
		c15.391,26.732,35.332,49.923,56.469,72.148c19.65,20.662,40.828,39.737,61.908,58.906c28.003,25.465,55.133,51.777,79.626,80.718
		c23.195,27.408,42.962,56.965,57.501,89.888c2.522,5.71,5.006,11.437,7.489,17.114c3.578-0.089,6.861,0.386,10.307-0.368
		c0-24.562,0-48.849,0-73.574c1.873,1.24,3.414,2.191,4.882,3.243c15.403,11.035,30.739,22.165,46.204,33.113
		c22.298,15.785,43.64,32.755,63.996,50.973c19.275,17.251,37.283,35.735,54.076,55.403c16.341,19.138,30.963,39.483,42.916,61.674
		c3.446,6.398,6.75,12.872,10.109,19.292c3.248,0,6.358,0,9.978,0c0-22.848,0-45.492,0-68.504c1.15,0.579,1.778,0.815,2.32,1.179
		c33.298,22.369,65.821,45.757,95.998,72.282c22.337,19.634,42.801,40.961,60.668,64.8c34.158,45.575,54.114,96.928,62.929,152.901
		c0.819,5.201,1.723,10.389,2.599,15.653c3.619,0.23,6.872,0.478,10.128-0.147c2.878-18.3,2.722-36.44,2.164-54.58
		c-0.555-18.037-3.332-35.86-6.26-53.571c2.458-0.797,4.299-0.482,6.104-0.483c62.999-0.02,125.999,0,188.998-0.028
		c17.664-0.008,35.266,0.812,52.704,3.788c15.782,2.693,30.9,7.362,44.784,15.56c19.458,11.49,31.29,28.167,35.021,50.615
		c0.863,5.193,0.347,10.58,2.193,15.641c3.882,0,7.67,0,11.723,0c7.987-27.032,15.949-53.976,23.859-80.746
		c-17.818-26.106-41.621-43.752-71.928-53.702c58.825-48.822,92.952-110.396,98.847-186.428
		c5.907-76.178-18.391-142.395-68.611-199.428c1.242-2.151,2.284-4.037,3.401-5.877c13.871-22.833,27.676-45.705,41.665-68.466
		c6.577-10.702,9.427-22.227,8.644-34.68c-0.986-15.672-8.299-27.381-22.256-34.748c-7.611-4.017-15.328-7.835-22.955-11.823
		c-31.743-16.597-63.482-33.2-95.179-49.882c-2.74-1.442-5.434-2.098-8.524-2.093c-41.833,0.065-83.666,0.044-125.499,0.044
		c-37.166,0-74.333-0.002-111.499,0.006c-2.303,0-4.506-0.07-6.707,1.257c-26.43,15.931-52.918,31.765-79.403,47.602
		c-1.522,0.91-2.905,2.22-5.393,2.165c0-50.285,0-100.525,0-151.129c-9.376,0-18.247,0-27.796,0
		c6.752-5.985,12.907-11.52,17.182-18.811c-1.411-2.021-1.576-4.497-3.403-6.346c-3.213,2.264-6.298,4.47-9.416,6.63
		c-13.167,9.121-27.848,12.44-43.541,10.276c-15.446-2.13-30.453-6.384-45.266-11.227c-9.476-3.098-19.013-5.969-29.053-6.251
		c-16.116-0.454-31.252,3.349-45.389,11.11c-5.075,2.786-9.931,5.923-14.691,9.522c-2.115-18.961,6.967-30.057,21.974-35.541
		c10.119-3.698,20.869-4.286,31.497-3.842c7.634,0.319,15.299,0.874,22.934,1.257c20.132,1.01,40.291,1.806,60.461,1.244
		c9.988-0.278,19.818-1.638,29.605-3.826c21.867-4.89,39.783-24.717,43.082-48.852c2.324-17.005,2.949-34.173,3.017-51.328
		c0.132-33.332,0.053-66.666,0.031-99.999c-0.001-1.277,0.448-2.668-0.947-4.325c-127.835,0-256.071,0-384.75,0
		c0-22.405,0-44.313,0-65.914c-1.337-0.971-2.373-0.662-3.337-0.662c-32.5-0.014-64.999,0.015-97.499-0.01
		c-12.229-0.009-24.137,1.938-35.74,5.718c-22.709,7.399-41.833,20.037-56.416,39.133c-12.517,16.39-19.498,34.989-20.964,55.505
		c-0.761,10.65,0.336,21.299,2.828,31.697c7.049,29.408,23.755,51.514,50.447,65.932c13.517,7.301,28.111,10.75,43.309,11.859
		c4.093,0.299,8.227,0.045,12.444,0.045c0-13.137,0-25.889,0-38.958c-6.276,0.387-12.302-0.081-18.082-1.496
		c-14.015-3.429-23.838-12.135-29.121-25.527c-4.712-11.943-5.78-24.338-4.406-37.185c3.002-28.076,28.403-46.094,50.966-46.728
		c16.32-0.459,32.661-0.189,48.993-0.234c0.646-0.002,1.338-0.038,2.191,1.09c0,6.783,0,14.082,0,21.381c0,7.5-0.009,15,0.002,22.5
		c0.011,7.251-0.05,14.505,0.042,22.074c45.978,0,91.249,0,136.767,0c0,10.577,0,20.81,0,31.571c-12.316,0-24.385,0-36.432,0
		c0,6.831,0,13.131,0,19.546c25.535,9.732,50.932,19.411,76.725,29.242c0.168-27.207-0.107-53.77,0.155-80.225
		C540.31,169.843,607.594,169.843,674.661,169.843z M715.63,1362.434c13.516-2.877,25.685-8.775,36.392-17.489
		c13.403-10.907,21.659-24.843,24.403-42.097c1.226-7.71,0.709-15.282-0.244-22.855c-1.571-12.489-6.139-23.677-15.041-32.927
		c-8.542-8.876-19.118-14.181-30.513-18.219c-20.971-7.433-42.874-9.332-64.785-9.506c-58.317-0.464-116.641-0.162-174.961-0.14
		c-1.63,0.001-3.338-0.411-4.794,0.446c-0.792,0.754-0.697,1.559-0.472,2.352c0.498,0.833,1.389,0.889,2.145,1.184
		c16.331,6.382,25.92,18.395,29.882,35.313c2.372,10.127,2.987,20.379,2.988,30.707c0.01,77.983,0.005,155.967,0.005,233.95
		c0,6.332-0.004,12.664,0.006,18.996c0.002,1.144-0.205,2.369,1.188,3.329c0.579,0.036,1.4,0.137,2.22,0.13
		c50.143-0.375,100.292,0.773,150.432-0.603c10.988-0.301,21.907-1.075,32.749-3.003c18.103-3.219,35.469-8.457,51.394-17.909
		c16.545-9.82,28.98-23.267,36.081-41.271c6.157-15.61,7.754-31.758,5.757-48.458c-3.387-28.326-18.185-48.143-43.529-60.642
		C743.924,1367.306,730.063,1364.35,715.63,1362.434z M331.374,1392.265c4.763-1.543,9.191-2.923,13.583-4.409
		c16.675-5.64,32.144-13.441,45.32-25.35c14.576-13.175,23.005-29.571,24.741-49.076c1.126-12.648-0.055-25.252-3.668-37.529
		c-4.747-16.131-14.109-28.778-28.357-37.794c-14.469-9.155-30.599-13.584-47.266-16.003c-18.302-2.656-36.773-3.108-55.272-2.969
		c-25.827,0.194-51.656,0.049-77.485,0.049c-28.328,0-56.656-0.014-84.984,0.035c-1.724,0.003-3.686-0.742-5.121,0.85
		c-0.506,1.185-0.177,2.081,0.803,2.624c1.304,0.723,2.669,1.346,4.035,1.95c15.773,6.974,24.202,19.554,27.624,36.016
		c2.279,10.964,2.931,22.064,2.933,33.219c0.011,81.818,0.006,163.635,0.006,245.453c0,1.954,0,3.909,0,6.023
		c25.243,0,49.981,0,75.165,0c0-48.163,0-96.069,0-144.213c9.531,0,18.618,0,27.663,0c35.427,48.229,70.763,96.333,105.871,144.128
		c10.596,0.977,89.565,0.558,93.402-0.521c-19.753-25.422-39.394-50.784-59.129-76.073
		C371.388,1443.237,351.442,1417.872,331.374,1392.265z M593.428,1187.677c-1.164-5.761-2.154-11.26-3.395-16.703
		c-9.322-40.861-27.909-77.108-54.582-109.31c-21.665-26.156-46.387-49.201-72.784-70.418
		c-39.816-32.002-82.08-60.563-125.335-87.678c-46.999-29.462-94.089-58.779-138.932-91.523
		c-24.64-17.992-48.528-36.842-69.603-59.012c-12.315-12.954-23.101-27.029-30.916-43.218
		c-10.751-22.272-14.772-45.67-11.471-70.207c1.61-11.964,3.847-23.825,7.877-35.585c-5.7-3.805-11.298-7.541-17.034-11.371
		c-3.43,5.195-6.051,10.336-8.527,15.551c-7.326,15.429-11.572,31.74-13.28,48.671c-1.189,11.784-0.658,23.574,0.741,35.366
		c1.728,14.571,5.168,28.682,10.492,42.307c11.355,29.063,29.257,53.899,50.407,76.491c18.262,19.508,38.987,36.27,60.01,52.673
		c18.749,14.629,38.189,28.358,56.104,44.079c19.072,16.736,37.074,34.484,53.449,53.859c25.446,30.109,46.426,63.057,62.574,99.048
		c0.599,1.335,0.832,2.897,2.112,3.669c3.261,0,6.367,0,10.026,0c0-24.578,0-48.88,0-73.586c1.474,0.789,2.355,1.233,3.211,1.722
		c20.744,11.843,41.488,23.682,61.721,36.397c28.043,17.624,55.281,36.311,80.174,58.298c30.509,26.947,55.875,57.815,73.749,94.576
		c0.999,2.055,1.724,4.297,3.288,5.904C586.798,1187.677,589.915,1187.677,593.428,1187.677z M1151.599,1235.783
		c-9.935-6.077-20.262-10.068-31.031-12.877c-14.483-3.778-29.189-6.12-44.156-7.26c-21.174-1.614-42.277-1.157-63.271,1.546
		c-16.969,2.185-33.504,6.525-49.482,12.804c-24.468,9.615-45.583,24.04-62.182,44.491c-21.803,26.864-31.73,58.359-34.035,92.415
		c-0.955,14.109-0.672,28.286,0.737,42.42c1.471,14.762,4.323,29.208,9.242,43.196c10.03,28.522,27.316,51.623,52.649,68.238
		c25.669,16.835,54.387,24.98,84.685,28.114c14.248,1.474,28.506,1.928,42.835,1.121c8.305-0.468,16.571-1.107,24.842-1.987
		c16.249-1.73,32.053-5.247,47.397-10.861c7.965-2.914,15.632-6.384,22.378-11.387c0-12.665,0-25.051,0-37.472
		c-1.371,0.111-1.997,0.99-2.779,1.562c-8.379,6.128-17.63,10.54-27.344,14.082c-14.634,5.336-29.844,7.803-45.29,8.772
		c-20.092,1.261-39.793-0.671-58.86-7.75c-28.903-10.73-49.047-30.296-60.835-58.767c-7.944-19.187-10.679-39.307-11.637-59.794
		c-0.772-16.505,0.144-32.948,2.909-49.236c2.624-15.458,7.037-30.372,14.935-44.067c9.554-16.566,22.992-28.551,40.99-35.482
		c11.155-4.296,22.649-6.384,34.491-6.847c18.223-0.713,36.284,0.258,53.471,7.107c15.918,6.343,29.85,15.342,38.615,30.755
		c0.793,1.395,1.464,3.101,4.188,2.546C1140.485,1273.001,1145.972,1254.628,1151.599,1235.783z"/>
	<path style="fill:#FCDE01;" d="M674.661,169.843c-67.067,0-134.351,0-202.283,0c-0.262,26.454,0.014,53.018-0.155,80.225
		c-25.793-9.83-51.19-19.51-76.725-29.242c0-6.415,0-12.715,0-19.546c12.047,0,24.115,0,36.432,0c0-10.761,0-20.994,0-31.571
		c-45.518,0-90.789,0-136.767,0c-0.092-7.569-0.031-14.823-0.042-22.074c-0.011-7.5-0.002-15-0.002-22.5c0-7.299,0-14.598,0-21.381
		c-0.853-1.128-1.545-1.092-2.191-1.09c-16.332,0.045-32.673-0.225-48.993,0.234c-22.563,0.634-47.963,18.652-50.966,46.728
		c-1.374,12.847-0.306,25.242,4.406,37.185c5.283,13.392,15.106,22.097,29.121,25.527c5.78,1.414,11.806,1.883,18.082,1.496
		c0,13.07,0,25.821,0,38.958c-4.217,0-8.35,0.253-12.444-0.045c-15.198-1.109-29.792-4.558-43.309-11.859
		c-26.692-14.418-43.398-36.524-50.447-65.932c-2.492-10.397-3.59-21.047-2.828-31.697c1.467-20.516,8.447-39.115,20.964-55.505
		c14.583-19.096,33.707-31.734,56.416-39.133c11.603-3.781,23.511-5.728,35.74-5.718c32.5,0.025,64.999-0.004,97.499,0.01
		c0.964,0,2-0.308,3.337,0.662c0,21.601,0,43.509,0,65.914c128.679,0,256.915,0,384.75,0c1.396,1.657,0.946,3.048,0.947,4.325
		c0.022,33.333,0.101,66.666-0.031,99.999c-0.068,17.155-0.693,34.323-3.017,51.328c-3.299,24.136-21.215,43.963-43.082,48.852
		c-9.787,2.188-19.617,3.548-29.605,3.826c-20.171,0.562-40.33-0.234-60.461-1.244c-7.635-0.383-15.3-0.939-22.934-1.257
		c-10.628-0.444-21.378,0.144-31.497,3.842c-15.007,5.484-24.089,16.581-21.974,35.541c4.761-3.599,9.617-6.736,14.691-9.522
		c14.136-7.761,29.272-11.564,45.389-11.11c10.04,0.283,19.577,3.153,29.053,6.251c14.813,4.842,29.82,9.097,45.266,11.227
		c15.693,2.164,30.375-1.155,43.541-10.276c3.118-2.16,6.204-4.366,9.416-6.63c1.827,1.849,1.992,4.325,3.403,6.346
		c-4.274,7.291-10.43,12.825-17.182,18.811c9.55,0,18.42,0,27.796,0c0,50.604,0,100.844,0,151.129
		c2.488,0.055,3.871-1.255,5.393-2.165c26.486-15.837,52.974-31.671,79.403-47.602c2.201-1.327,4.404-1.257,6.707-1.257
		c37.166-0.008,74.333-0.006,111.499-0.006c41.833,0,83.666,0.021,125.499-0.044c3.089-0.005,5.784,0.651,8.524,2.093
		c31.698,16.682,63.437,33.285,95.179,49.882c7.627,3.988,15.344,7.806,22.955,11.823c13.957,7.366,21.27,19.076,22.256,34.748
		c0.783,12.453-2.067,23.979-8.644,34.68c-13.988,22.76-27.794,45.633-41.665,68.466c-1.118,1.84-2.159,3.725-3.401,5.877
		c50.22,57.033,74.518,123.249,68.611,199.428c-5.896,76.032-40.022,137.606-98.847,186.428
		c30.306,9.95,54.109,27.596,71.928,53.702c-7.91,26.77-15.871,53.714-23.859,80.746c-4.053,0-7.841,0-11.723,0
		c-1.846-5.061-1.33-10.449-2.193-15.641c-3.73-22.448-15.563-39.125-35.021-50.615c-13.883-8.198-29.002-12.867-44.784-15.56
		c-17.439-2.976-35.04-3.796-52.704-3.788c-62.999,0.028-125.999,0.007-188.998,0.028c-1.805,0.001-3.646-0.315-6.104,0.483
		c2.929,17.711,5.706,35.534,6.26,53.571c0.558,18.14,0.714,36.279-2.164,54.58c-3.256,0.626-6.509,0.377-10.128,0.147
		c-0.876-5.264-1.78-10.452-2.599-15.653c-8.815-55.973-28.771-107.325-62.929-152.901c-17.867-23.839-38.331-45.166-60.668-64.8
		c-30.177-26.525-62.7-49.913-95.998-72.282c-0.542-0.364-1.17-0.6-2.32-1.179c0,23.012,0,45.656,0,68.504c-3.62,0-6.73,0-9.978,0
		c-3.359-6.42-6.663-12.894-10.109-19.292c-11.953-22.191-26.574-42.536-42.916-61.674c-16.794-19.668-34.802-38.153-54.076-55.403
		c-20.356-18.219-41.698-35.188-63.996-50.973c-15.465-10.948-30.8-22.078-46.204-33.113c-1.468-1.052-3.009-2.003-4.882-3.243
		c0,24.725,0,49.012,0,73.574c-3.446,0.754-6.73,0.279-10.307,0.368c-2.483-5.677-4.967-11.404-7.489-17.114
		c-14.539-32.923-34.306-62.481-57.501-89.888c-24.493-28.941-51.623-55.254-79.626-80.718
		c-21.08-19.169-42.257-38.244-61.908-58.906c-21.136-22.224-41.078-45.416-56.469-72.148
		c-12.477-21.671-21.787-44.638-27.323-69.025c-2.499-11.007-3.782-22.239-4.486-33.548c-0.519-8.323-0.993-16.635-0.812-24.963
		c0.776-35.839,10.745-68.624,32.71-97.343c8.154-10.661,17.555-20.003,29.277-26.783c0.844-0.488,1.721-0.917,3.084-1.638
		c0,9.24-0.019,18.033,0.018,26.825c0.006,1.499-0.933,2.432-1.7,3.495c-11.938,16.554-19.324,35.081-23.196,54.984
		c-2.941,15.117-2.937,30.39-1.495,45.737c1.656,17.62,5.566,34.635,11.86,51.155c7.593,19.927,19.043,37.553,32.217,54.127
		c16.424,20.663,35.092,39.214,54.443,57.095c41.887,38.705,87.452,72.765,133.733,105.933
		c39.043,27.982,79.277,54.2,119.136,80.975c47.992,32.239,96.15,64.234,143.802,96.977c31.652,21.748,63.125,43.765,93.492,67.285
		c22.792,17.652,44.806,36.235,64.514,57.396c21.235,22.8,37.987,48.565,52.123,76.271c8.938,17.518,15.295,35.84,20.304,54.907
		c2.422,0.516,4.731,0.097,6.965-0.243c16.895-2.569,33.775-5.23,50.659-7.87c14.103-2.205,28.195-4.478,42.307-6.616
		c16.576-2.512,33.181-4.841,49.753-7.381c13.943-2.137,27.814-4.781,41.794-6.619c14.654-1.927,29.139-4.946,43.85-6.477
		c2.97-0.309,5.91-0.859,8.914-0.944c2.54-0.072,4.762-1.028,6.943-2.421c17.13-10.938,31.866-24.552,45.044-39.933
		c6.061-7.074,11.697-14.474,17.472-22.864c-37.878-2.975-75.229-5.908-112.688-8.85c-5.34,11.147-10.355,22.149-16.799,32.606
		c-2.866,0.505-5.774,0.384-9.153,0.105c2.661-11.279,5.228-22.162,7.902-33.495c-9.541-1.395-18.784-1.8-28.077-2.415
		c-1.409-2.044-0.958-4.097-0.393-6.36c10.253-1.293,20.428-2.576,30.846-3.89c5.527-29.762,8.769-59.59,9.447-90.13
		c-5.933-0.426-11.682-0.905-17.44-1.239c-17.281-1.004-34.563-1.966-51.847-2.917c-13.633-0.75-27.276-1.338-40.899-2.229
		c-8.967-0.587-17.977-0.531-26.904-1.764c-1.457-0.201-2.966-0.028-4.931-0.028c-0.387,13.492-0.866,26.885-0.234,40.481
		c-3.184,0.897-6.14,0.152-9.327,0.581c-3.303-13.953-5.235-27.872-7.363-41.754c-10.278-1.639-20.481-0.948-30.776-2.313
		c-0.791-3.032-0.383-6.114-0.263-9.77c9.848-0.246,19.588-0.728,29.416-1.558c-3.619-34.148-4.539-68.179-2.868-102.585
		c-27.562-1.3-54.913-2.59-82.279-3.88c-0.018,1.622,0.818,2.712,1.449,3.86c8.879,16.139,13.907,33.513,17.253,51.55
		c3.019,16.273,4.214,32.663,4.285,49.134c0.077,17.824-1.447,35.557-4.773,53.1c-0.056,0.297-0.34,0.552-0.653,1.036
		c-2.967,0.583-6.104,0.21-9.596,0.177c-0.419-3.092-0.953-6.155-1.232-9.241c-2.281-25.258-8.473-49.603-16.989-73.418
		c-9.129-25.528-23.548-47.826-41.266-68.17c-22.346-25.659-48.417-47.097-75.719-67.141c-14.601-10.72-29.523-20.989-44.831-30.684
		c-0.81-0.513-1.472-1.386-3.029-1.295c0,22.677,0,45.375,0,68.15c-3.46,1.132-6.596,0.321-9.948,0.657
		c-2.03-3.675-3.031-7.679-4.434-11.507c-12.509-34.129-32.271-63.534-57.981-89.062c-19.819-19.678-42.198-36.089-65.58-51.205
		c-25.239-16.316-51.561-30.733-78.327-44.347c-18.563-9.441-36.365-20.06-52.495-33.288c-25.731-21.101-44.39-46.944-52.893-79.54
		c-3.111-11.924-4.988-24.001-5.79-36.311c-0.706-10.833-1.042-21.625,0.016-32.438c0.064-0.653,0.165-1.303,0.32-2.505
		c10.04,5.985,19.799,11.802,29.484,17.576c2.072,19.77,7.069,38.414,16.513,55.669c17.844,32.603,44.904,53.711,80.666,63.455
		c16.664,4.54,33.737,5.126,50.97,3.968c10.627-0.714,21.241-1.553,31.839-2.53c8.43-0.777,16.822-2.031,25.203-3.268
		c21.667-3.197,42.918-8.59,64.473-12.367c15.392-2.697,30.891-4.774,46.542-5.224c17.535-0.505,34.9,0.547,51.866,6.75
		c0-15.355,0-30.438,0-46.072c-5.524,0-10.974,0.275-16.384-0.065c-7.833-0.492-15.258-0.07-21.169,5.991
		c-13.681,7.522-28.197,12.097-43.841,13.438c-9.012,0.773-17.942,1.175-26.885-0.169c-30.207-4.54-55.818-16.862-72.536-43.699
		c-6.115-9.816-9.514-20.668-11.115-32.167c-1.087-7.807-1.332-15.617-0.865-23.41c1.675-27.937,15.426-47.284,41.611-57.636
		c14.255-5.636,29.153-7.52,44.327-8.31c18.815-0.98,37.66-0.065,56.457-1.041c12.636-0.656,25.327,0.006,37.913-1.629
		c10.368-1.347,17.375-5.683,20.879-16.417c1.881-5.761,2.61-11.737,2.688-17.669c0.274-20.652,0.147-41.309,0.166-61.964
		C675.337,171.251,675.436,170.559,674.661,169.843z M1141.371,567.142c-1.854-1.036-3.413-1.958-5.017-2.794
		c-6.03-3.14-12.09-6.221-18.109-9.38c-23.471-12.314-46.949-24.617-70.375-37.018c-2.885-1.527-5.734-2.181-8.999-2.177
		c-65.818,0.069-131.635,0.048-197.453,0.058c-4.995,0.001-10.246-0.856-14.912,0.406c-4.47,1.209-8.34,4.652-12.464,7.128
		c-49.072,29.47-98.144,58.941-147.211,88.419c-5.198,3.123-10.365,6.298-15.873,9.647c30.695,21.769,60.193,44.237,84.624,72.579
		c33.567-46.937,77.495-79.598,131.698-98.35c54.544-18.869,109.475-17.556,164.962-2.423c4.295-5.987,8.722-12.156,13.135-18.308
		c-7.012-9.469-13.814-18.652-20.497-27.677c0.633-2.72,2.129-4.432,3.361-6.397c19.639,10.631,38.982,21.101,58.538,31.687
		c-4.284,13.002-8.46,25.677-12.67,38.454c10.325,5.46,19.901,11.379,29.423,17.991
		C1116.21,608.268,1128.658,587.922,1141.371,567.142z M1003.364,751.917c-37.978-1.708-76.11-3.423-114.376-5.144
		c-7.498,33.301-12.901,66.271-15.51,99.964c47.033-2.482,93.791-4.949,140.496-7.414
		C1014.481,821.598,1008.904,772.318,1003.364,751.917z M1051.372,871.954c-1.238,6.438-2.349,12.609-3.619,18.747
		c-4.501,21.749-10.861,42.953-18.818,63.682c-0.334,0.871-1.161,1.707,0.499,2.905c41.363-5.203,83.15-10.459,125.131-15.74
		c8.418-20.082,13.439-40.786,14.772-62.803C1129.88,876.474,1090.92,874.231,1051.372,871.954z M1053.13,754.253
		c3.534,27.808,3.968,55.282,2.324,82.481c4.707,0,8.873,0.184,13.019-0.033c15.776-0.827,31.541-1.846,47.317-2.673
		c15.95-0.836,31.908-1.516,47.861-2.3c1.762-0.086,3.71,0.286,5.115-1.44c-2.967-25.008-9.803-48.865-21.213-71.679
		C1116.304,757.168,1085.106,755.728,1053.13,754.253z M512.966,532.408c28.634,19.104,56.894,36.72,85.165,54.966
		c32.127-19.193,64.254-38.386,96.833-57.849c-18.335-9.428-37.239-14.372-57.102-15.681c-15.525-1.023-30.938,0.725-46.188,3.251
		c-16.006,2.651-31.853,6.259-47.788,9.352C533.966,528.372,524.156,530.87,512.966,532.408z M895.201,722.303
		c33.452-1.857,66.35-3.684,99.603-5.531c-8.204-29.252-19.187-56.637-33.417-82.747c-12.805-0.736-25.362-0.429-37.627,1.456
		C917.256,648.083,901.045,697.353,895.201,722.303z M771.843,729.053c27.503-1.458,53.985-2.862,80.447-4.264
		c2.038-24.304,5.246-47.902,10.368-71.788C824.783,669.659,795.266,694.996,771.843,729.053z M1114.575,709.65
		c-14.789-21.158-71.247-60.241-87.401-60.344c7.778,21.13,13.999,42.656,19.036,64.355
		C1054.106,714.2,1111.414,710.785,1114.575,709.65z M545.115,383.475c21.077,13.913,61.898,5.123,72.154-15.393
		c-13.12-2.489-26.163-4.611-39.533-2.242C564.897,368.115,554.445,374.549,545.115,383.475z"/>
	<path style="fill:#FCDE02;" d="M593.428,1187.677c-3.513,0-6.629,0-9.925,0c-1.564-1.608-2.289-3.85-3.288-5.904
		c-17.873-36.762-43.24-67.629-73.749-94.576c-24.893-21.987-52.131-40.674-80.174-58.298
		c-20.232-12.715-40.976-24.555-61.721-36.397c-0.856-0.489-1.737-0.933-3.211-1.722c0,24.706,0,49.008,0,73.586
		c-3.659,0-6.765,0-10.026,0c-1.28-0.771-1.513-2.334-2.112-3.669c-16.149-35.992-37.128-68.939-62.574-99.048
		c-16.375-19.375-34.376-37.123-53.449-53.859c-17.915-15.721-37.355-29.45-56.104-44.079
		c-21.023-16.403-41.748-33.165-60.01-52.673c-21.149-22.592-39.052-47.427-50.407-76.491c-5.323-13.625-8.763-27.736-10.492-42.307
		c-1.399-11.792-1.93-23.582-0.741-35.366c1.708-16.931,5.955-33.242,13.28-48.671c2.476-5.215,5.097-10.356,8.527-15.551
		c5.736,3.829,11.334,7.566,17.034,11.371c-4.03,11.76-6.267,23.621-7.877,35.585c-3.302,24.537,0.72,47.935,11.471,70.207
		c7.814,16.189,18.601,30.264,30.916,43.218c21.075,22.17,44.963,41.02,69.603,59.012c44.843,32.744,91.933,62.061,138.932,91.523
		c43.255,27.115,85.519,55.676,125.335,87.678c26.397,21.217,51.12,44.263,72.784,70.418c26.673,32.202,45.26,68.449,54.582,109.31
		C591.274,1176.417,592.264,1181.917,593.428,1187.677z"/>
	<path style="fill:#1C5CAA;" d="M1141.371,567.142c-12.714,20.78-25.161,41.126-37.839,61.847
		c-9.522-6.611-19.097-12.531-29.423-17.991c4.21-12.777,8.386-25.452,12.67-38.454c-19.556-10.586-38.899-21.056-58.538-31.687
		c-1.232,1.965-2.729,3.677-3.361,6.397c6.684,9.025,13.485,18.208,20.497,27.677c-4.413,6.151-8.84,12.321-13.135,18.308
		c-55.487-15.133-110.417-16.447-164.962,2.423c-54.203,18.751-98.131,51.413-131.698,98.35
		c-24.432-28.342-53.929-50.81-84.624-72.579c5.508-3.349,10.675-6.524,15.873-9.647c49.067-29.479,98.139-58.949,147.211-88.419
		c4.124-2.477,7.993-5.919,12.464-7.128c4.667-1.262,9.917-0.405,14.912-0.406c65.818-0.009,131.635,0.011,197.453-0.058
		c3.264-0.003,6.113,0.65,8.999,2.177c23.426,12.401,46.903,24.704,70.375,37.018c6.02,3.158,12.08,6.239,18.109,9.38
		C1137.958,565.184,1139.517,566.106,1141.371,567.142z"/>
	<path style="fill:#1C5CAA;" d="M1003.364,751.917c5.54,20.401,11.117,69.681,10.61,87.406
		c-46.705,2.465-93.463,4.932-140.496,7.414c2.609-33.693,8.012-66.663,15.51-99.964
		C927.253,748.494,965.385,750.209,1003.364,751.917z"/>
	<path style="fill:#1C5DAA;" d="M1051.372,871.954c39.548,2.277,78.508,4.52,117.964,6.791
		c-1.333,22.017-6.354,42.721-14.772,62.803c-41.981,5.281-83.768,10.537-125.131,15.74c-1.659-1.198-0.833-2.034-0.499-2.905
		c7.957-20.729,14.317-41.934,18.818-63.682C1049.023,884.563,1050.134,878.392,1051.372,871.954z"/>
	<path style="fill:#1C5CAA;" d="M1053.13,754.253c31.976,1.475,63.174,2.915,94.422,4.356c11.41,22.814,18.246,46.671,21.213,71.679
		c-1.406,1.726-3.353,1.354-5.115,1.44c-15.953,0.784-31.911,1.464-47.861,2.3c-15.776,0.826-31.541,1.846-47.317,2.673
		c-4.145,0.217-8.312,0.033-13.019,0.033C1057.098,809.535,1056.664,782.061,1053.13,754.253z"/>
	<path style="fill:#1C5DAA;" d="M512.966,532.408c11.191-1.537,21-4.036,30.92-5.961c15.935-3.093,31.782-6.701,47.788-9.352
		c15.251-2.526,30.664-4.273,46.188-3.251c19.863,1.308,38.767,6.253,57.102,15.681c-32.578,19.463-64.706,38.656-96.833,57.849
		C569.86,569.128,541.6,551.511,512.966,532.408z"/>
	<path style="fill:#1C5DAA;" d="M895.201,722.303c5.845-24.95,22.056-74.219,28.559-86.822c12.266-1.884,24.823-2.192,37.627-1.456
		c14.23,26.109,25.213,53.495,33.417,82.747C961.551,718.619,928.653,720.445,895.201,722.303z"/>
	<path style="fill:#1D5DA9;" d="M771.843,729.053c23.424-34.056,52.941-59.394,90.815-76.052
		c-5.122,23.886-8.33,47.484-10.368,71.788C825.828,726.191,799.346,727.595,771.843,729.053z"/>
	<path style="fill:#1D5DA9;" d="M1114.575,709.65c-3.161,1.134-60.469,4.55-68.365,4.012c-5.037-21.7-11.257-43.226-19.036-64.355
		C1043.327,649.409,1099.786,688.492,1114.575,709.65z"/>
	<path style="fill:#1D5DA9;" d="M545.115,383.475c9.33-8.926,19.781-15.36,32.621-17.636c13.37-2.369,26.414-0.246,39.533,2.242
		C607.013,388.598,566.193,397.388,545.115,383.475z"/>
	<path style="fill:#1C5DAB;" d="M596.259,1381.925c1.187-0.055,1.994-0.126,2.801-0.125c16.997,0.024,33.994,0.008,50.99,0.104
		c12.023,0.067,23.882,1.675,35.409,5.038c12.986,3.789,23.986,10.547,30.984,22.658c3.804,6.583,5.761,13.807,6.711,21.228
		c0.886,6.92,1.606,13.907,1.074,20.922c-1.086,14.322-4.419,27.838-13.925,39.187c-7.393,8.826-16.939,14.32-27.682,17.878
		c-9.338,3.093-18.965,4.645-28.802,5.28c-18.315,1.183-36.639,0.389-54.956,0.648c-0.812,0.011-1.674,0.143-2.604-0.729
		C596.259,1470.318,596.259,1426.389,596.259,1381.925z"/>
	<path style="fill:#1C5DAB;" d="M596.284,1350.67c0-33.034,0-66.094,0-99.253c0.996-1.061,2.413-0.598,3.686-0.601
		c14.814-0.032,29.63-0.142,44.443,0.026c9.304,0.106,18.534,0.969,27.531,3.727c16.378,5.021,25.23,16.043,27.516,32.927
		c1.269,9.373,1.097,18.536-1.547,27.604c-3.864,13.253-12.286,22.541-24.855,28.111c-11.049,4.896-22.619,7.565-34.711,7.724
		c-12.482,0.164-24.966,0.185-37.449,0.231C599.445,1351.17,597.929,1351.488,596.284,1350.67z"/>
	<path style="fill:#1C5DAB;" d="M223.746,1250.995c1.139-0.083,1.952-0.195,2.764-0.193c19.652,0.045,39.306-0.047,58.955,0.226
		c8.319,0.115,16.453,1.919,24.325,4.681c13.613,4.776,22.007,14.361,25.679,28.189c3.6,13.552,4.16,27.206,0.922,40.902
		c-4.702,19.886-17.362,32.789-35.954,40.233c-10.907,4.367-22.307,6.291-34.082,6.179c-12.49-0.119-24.982-0.01-37.473-0.047
		c-1.625-0.005-3.315,0.391-5.137-0.556C223.746,1330.979,223.746,1291.246,223.746,1250.995z"/>
</g>
</svg>
