<?xml version="1.0" encoding="iso-8859-1"?>
<!-- Generator: Adobe Illustrator 27.0.0, SVG Export Plug-In . SVG Version: 6.00 Build 0)  -->
<svg version="1.1" id="Layer_1" xmlns="http://www.w3.org/2000/svg" xmlns:xlink="http://www.w3.org/1999/xlink" x="0px" y="0px"
	 viewBox="0 0 1487 266" style="enable-background:new 0 0 1487 266;" xml:space="preserve">
<g>
	<path style="fill:#116D70;" d="M1487,221c-6.963-0.723-13.949-0.033-21.535-0.235c-8.983-14.404-18.098-29.019-27.321-43.807
		c-4.381,0.366-8.468,0.708-12.312,1.029c-1.201,0.988-1.869,2.042-1.736,3.217c0.822,7.288,0.401,14.562,0.284,21.863
		c-0.066,4.098,0.169,8.29,0.317,12.438c0.059,1.658,0.218,3.371-1.196,4.742c-3.917,0.853-15.255,0.637-18.231-0.466
		c0-47.624,0-95.351,0-143.502c6.125,0,12.018,0,17.96,0c1.529,1.361,1.483,3.194,1.482,5.034
		c-0.008,20.824,0.007,41.648-0.018,62.472c-0.004,3.149-0.779,6.255-0.557,9.435c0.116,1.668,0.089,3.318,1.152,4.698
		c6.533,1.999,12.364,0.05,16.494-5.845c6.488-9.26,12.994-18.518,19.108-28.024c2.494-3.877,5.338-5.377,9.87-5.025
		c4.956,0.385,9.964,0.088,15.175,0.088c-0.251,2.745-1.908,4.467-3.136,6.327c-8.063,12.208-16.168,24.389-24.343,36.522
		c-1.83,2.715-2.502,5.089-0.616,8.223c9.34,15.519,18.489,31.154,27.721,46.739c0.309,0.522,0.584,1.224,1.438,1.079
		C1487,219,1487,220,1487,221z"/>
	<path style="fill:#16A1B1;" d="M214,0c3.768,6.985,8.345,13.488,12.036,20.529c5.706,10.885,10.26,22.216,13.836,33.954
		c0.182,0.597,0.023,1.297,0.023,1.925c-1.848,2.378-4.708,1.778-6.967,2.228c-29.783,5.939-58.507,15.249-86.588,26.674
		c-1.098,0.447-2.131,0.92-3.342,0.689l0.003,0.003c0.646-1.678,2.245-2.291,3.557-3.255c11.804-8.671,23.316-17.682,33.464-28.321
		c14.404-15.1,25.729-32.072,32.097-52.111C212.37,1.529,212.705,0.771,213,0C213.333,0,213.667,0,214,0z"/>
	<path style="fill:#19A2B1;" d="M144,266c1.936-3.907,5.469-6.568,7.854-10.158c5.472-8.235,8.745-17.048,8.27-27.076
		c-0.069-1.452-0.468-2.968,0.17-4.386c1.017-0.709,1.896-0.221,2.806,0.164c11.017,4.662,20.405,11.686,28.864,20.019
		c2.947,2.904,2.791,4.307-0.295,6.912c-7.926,6.69-17.241,10.276-27.237,12.538c-3.137,0.71-6.538,0.179-9.431,1.986
		C151.333,266,147.667,266,144,266z"/>
	<path style="fill:#76B8C5;" d="M0,218c0.242,0.167,0.485,0.334,0.727,0.502C0.485,218.669,0.242,218.834,0,219
		C0,218.667,0,218.333,0,218z"/>
	<path style="fill:#10A1B1;" d="M4.998,213.997c3.787-3.975,7.493-8.03,11.375-11.909c12.494-12.483,24.808-25.161,37.646-37.282
		c17.884-16.885,35.992-33.564,55.869-48.144c13.064-9.583,27.526-16.631,42.514-22.631c24.499-9.807,49.982-16.4,75.455-23.018
		c4.939-1.283,9.875-2.575,14.667-3.826c3.349,2.035,2.726,5.53,3.198,8.23c2.203,12.601,3.445,25.341,2.973,38.147
		c-0.177,4.796-0.678,9.598-0.858,14.41c-0.051,1.358-0.511,2.584-1.206,3.706c-3.485,2.168-7.519,1.543-11.204,2.001
		c-25.338,3.15-50.33,8.002-75.053,14.311c-27.478,7.011-54.342,15.832-80.446,26.974c-25.888,11.049-50.43,24.528-73.831,40.13
		C5.523,214.938,5.12,214.608,4.998,213.997z"/>
	<path style="fill:#11A1B1;" d="M32.676,212.601c33.021-19.512,67.532-33.875,103.224-45.288
		c41.019-13.117,98.463-23.29,109.141-21.848c-3.335,18.298-8.701,35.955-16.331,52.83c-7.094,15.69-14.933,31.044-26.789,44.001
		c-2.406-1.221-3.413-3.227-4.804-4.783c-11.04-12.351-25.203-19.227-40.865-23.505c-20.553-5.614-41.552-6.584-62.717-6.269
		c-12.151,0.181-24.213,1.371-36.29,2.414c-6.092,0.526-12.124,1.74-18.193,2.571C37.262,212.969,35.439,213.254,32.676,212.601z"/>
	<path style="fill:#0C6D6F;" d="M1087.309,80.71c0.79-0.883,1.735-1.294,2.73-1.245c17.137,0.852,34.284,0.169,51.425,0.353
		c6.692,0.072,13.235,0.7,19.577,3.087c12.342,4.644,18.811,13.562,20.067,26.576c0.578,5.986,0.247,11.889-0.751,17.785
		c-1.374,8.116-5.272,14.613-12.267,19.132c-0.681,0.44-1.285,0.999-1.636,1.276c-0.553,1.131,0.162,1.187,0.533,1.336
		c10.369,4.186,15.883,12.11,17.746,22.894c1.558,9.022,0.914,17.831-2.21,26.474c-4.187,11.58-12.813,17.861-24.422,20.479
		c-5.835,1.316-11.77,1.9-17.79,1.881c-15.656-0.049-31.312,0.102-46.968,0.126c-1.944,0.003-4.04,0.539-6.035-1.325
		C1087.309,173.431,1087.309,127.03,1087.309,80.71z M1107.372,202.051c13.513-0.276,26.316,0.61,39.073-0.479
		c8.72-0.744,14.856-5.373,17.191-14.179c0.465-1.755,0.689-3.589,0.877-5.402c1.23-11.889-4.662-20.087-15.225-22.069
		c-13.653-2.562-27.444-1.065-41.183-0.951c-0.251,0.002-0.5,0.385-0.732,0.577C1107.372,173.453,1107.372,187.34,1107.372,202.051z
		 M1107.302,139.955c12.912,0,25.202,0.363,37.457-0.144c6.705-0.278,11.847-4.026,14.263-10.689
		c1.544-4.258,2.188-8.676,1.939-13.192c-0.579-10.503-6.408-16.353-16.982-17.048c-11.101-0.73-22.219-0.834-33.34-0.726
		c-1.181,0.011-2.338,0.014-3.337,1.234C1107.302,112.573,1107.302,125.958,1107.302,139.955z"/>
	<path style="fill:#116D70;" d="M314.034,221.124c0.045-6.062-0.049-11.822,0.649-17.262c2.021-1.542,3.92-0.999,5.692-1.003
		c16.658-0.042,33.316,0.046,49.973-0.067c5.132-0.035,10.299-0.253,15.295-1.707c7.825-2.276,11.702-6.933,12.356-14.984
		c0.188-2.314,0.243-4.656,0.122-6.973c-0.624-11.944-6.798-18.313-18.709-19.065c-5.142-0.325-10.315-0.261-15.473-0.215
		c-8.816,0.079-17.629,0.287-26.295-1.802c-11.94-2.879-19.897-10.025-23.882-21.729c-4.092-12.022-4.612-24.053-0.612-36.149
		c4.588-13.877,15.871-22.155,30.547-23.172c9.478-0.657,18.961-1.016,28.423-0.611c10.472,0.448,20.946,0.608,31.418,0.938
		c0.643,0.02,1.278,0.296,2.575,0.615c0.275,5.89-0.211,11.84-0.295,17.326c-2.014,1.927-3.936,1.418-5.719,1.429
		c-15.656,0.091-31.311,0.135-46.967,0.205c-4.039,0.018-7.887,0.899-11.58,2.551c-4.425,1.981-7.136,5.45-8.295,10.006
		c-1.369,5.384-1.37,10.871-0.038,16.285c1.907,7.753,7.978,12.808,16.684,13.208c6.27,0.288,12.497,1.058,18.871,0.504
		c7.925-0.688,15.966-0.061,23.782,1.66c10.508,2.314,18.611,8.027,22.88,18.167c5.987,14.223,6.745,28.681,0.768,43.127
		c-5.02,12.133-14.792,17.778-27.331,19.6c-7.953,1.155-15.935,0.871-23.913,0.87c-9.321,0-18.644-0.019-27.963-0.198
		c-6.812-0.131-13.619-0.523-20.426-0.838C315.941,221.811,315.323,221.498,314.034,221.124z"/>
	<path style="fill:#0F6D70;" d="M1210.236,132.861c-1.155-5.255-0.834-10.298-1.303-15.528c4.572-0.916,8.874-0.273,13.118-0.371
		c8.641-0.201,17.299-0.488,25.919,0.651c14.282,1.887,22.819,10.577,27.694,23.471c1.468,3.882,2.238,7.985,2.243,12.193
		c0.017,13.156,0.064,26.313,0.099,39.469c0.003,1.166-0.022,2.332,0.007,3.497c0.103,4.242,1.748,7.392,6.127,8.595
		c1.115,0.306,2.305,0.439,3.727,1.852c-0.063,4.84,0.264,10.224-0.885,16.151c-9.289-0.326-18.148-0.711-25.539-7.139
		c-4.243,1.299-8.323,2.631-12.451,3.793c-7.872,2.216-15.892,3.719-24.091,3.348c-17.738-0.802-26.198-12.165-27.113-26.194
		c-0.25-3.824-0.299-7.571,0.049-11.391c1.164-12.802,9.182-21.185,22.053-23.279c10.604-1.725,21.256-0.87,31.887-1.164
		c1.951-0.054,4.02,0.537,6.211-1.113c0.334-6.336,0.691-12.911-3.298-18.826c-2.475-3.67-5.899-5.632-10.333-6.116
		c-7.289-0.795-14.607-0.757-21.913-1.073C1218.637,133.524,1214.839,133.179,1210.236,132.861z M1257.866,177.706
		c-0.384-0.431-0.488-0.655-0.606-0.664c-9.602-0.673-19.132,0.77-28.699,1.124c-4.65,0.172-8.514,2.738-9.993,7.712
		c-1.214,4.081-1.265,8.254-0.239,12.306c0.911,3.599,3.427,5.84,7.138,6.941c4.179,1.24,8.253,0.309,12.339-0.089
		c6.905-0.673,13.628-2.255,20.06-4.386C1257.866,192.552,1257.866,184.96,1257.866,177.706z"/>
	<path style="fill:#0F6D70;" d="M542.097,132.37c-0.202-5.011-1.338-9.869-0.818-15.47c4.282,0,8.378-0.026,12.473,0.005
		c9.142,0.071,18.277-0.397,27.411,0.861c10.99,1.513,18.568,7.567,23.911,16.852c3.11,5.405,4.756,11.257,5.078,17.544
		c0.739,14.431,0.463,28.869,0.559,43.305c0.043,6.45,1,7.717,7.06,9.69c0.621,0.202,1.197,0.544,2.023,0.927
		c0,5.223,0,10.467,0,16.336c-9.612,0.562-18.356-0.504-25.749-6.442c-2.355-0.214-4.116,0.901-5.966,1.538
		c-7.413,2.552-15.025,4.224-22.789,5.129c-5.654,0.66-11.268,0.215-16.794-1.352c-7.975-2.26-13.277-7.397-16.159-15.009
		c-2.898-7.655-3.254-15.678-1.829-23.609c2.108-11.727,9.361-18.384,21.381-20.624c5.097-0.95,10.231-1.219,15.395-1.218
		c6.331,0.002,12.663,0.065,18.993-0.025c3.661-0.052,5.01-1.444,4.445-4.914c-0.404-2.482-0.283-4.979-0.694-7.434
		c-1.284-7.665-6.561-13.23-14.071-13.832c-9.783-0.784-19.604-0.469-29.366-1.447C545.283,133.051,543.934,133.262,542.097,132.37z
		 M590.025,200.711c1.15-4.576,0.96-20.233-0.174-23.357c-1.405-0.76-2.935-0.495-4.407-0.441
		c-7.136,0.262-14.269,0.602-21.404,0.894c-10.55,0.432-16.129,6.96-13.769,18.746c1.003,5.011,3.885,8.091,9.307,8.972
		c3.759,0.61,7.291-0.203,10.875-0.55C577.194,204.323,583.811,202.866,590.025,200.711z"/>
	<path style="fill:#0D6D70;" d="M453.046,179.963c0.486,2.796,0.808,5.771,1.537,8.643c2.486,9.79,8.739,14.962,18.827,15.417
		c6.316,0.285,12.651,0.333,18.973,0.232c5.821-0.093,11.575,0.654,17.73,0.745c1.153,5.159,0.731,10.247,0.985,15.232
		c-1.799,1.339-3.75,1.301-5.438,1.371c-12.123,0.504-24.234,1.944-36.377,1.22c-10.027-0.598-19.39-3.216-26.211-11.356
		c-4.952-5.909-7.316-13.036-8.614-20.436c-2.456-13.997-2.704-28.034,0.618-41.972c1.04-4.362,2.417-8.626,4.501-12.624
		c6.347-12.176,16.886-18.018,30.105-19.231c6.091-0.559,12.25-0.523,18.396,0.643c15.423,2.925,24.752,12.187,28.479,27.118
		c2.57,10.297,1.692,20.822,0.914,31.281c-0.034,0.464-0.396,0.904-0.594,1.333c-1.4,0.898-2.939,0.567-4.411,0.568
		c-17.985,0.02-35.97,0.001-53.954,0.032C456.772,178.185,454.79,177.44,453.046,179.963z M452.885,161.825
		c3.611,1.19,31.655,1.771,43.116,1.025c1.049-0.068,1.961-0.306,2.936-1.715c-0.134-4.996-0.654-10.384-2.673-15.556
		c-2.085-5.344-5.943-8.745-11.446-10.212c-5.567-1.484-11.248-1.489-16.766-0.061c-4.592,1.188-8.531,3.703-11.011,8.026
		C453.719,149.124,452.666,155.365,452.885,161.825z"/>
	<path style="fill:#0D6D70;" d="M828.345,132.863c-1.771-5.303-0.965-10.386-1.262-15.999c4.298,0,8.238-0.049,12.176,0.01
		c9.468,0.141,18.945-0.485,28.393,0.949c10.523,1.597,17.967,7.421,23.182,16.317c3.313,5.651,5.232,11.782,5.211,18.472
		c-0.041,13.148,0.07,26.297,0.119,39.445c0.005,1.332-0.078,2.671,0.035,3.994c0.409,4.785,2.525,8.179,7.592,9.14
		c0.626,0.119,1.194,0.549,1.74,0.811c0.811,4.798,0.54,12.874-0.73,16.801c-8.64-0.268-17.303-0.648-24.368-6.627
		c-1.585-0.414-2.783,0.047-4.066,0.51c-8.295,2.996-16.842,4.989-25.605,5.971c-5.324,0.596-10.67,0.45-15.834-1.039
		c-9.446-2.724-15.171-9.231-17.731-18.539c-1.743-6.338-1.864-12.943-0.897-19.327c1.873-12.364,8.497-18.923,21.456-21.656
		c5.062-1.068,10.21-1.284,15.372-1.267c6.493,0.022,12.986-0.023,19.478,0.02c2.27,0.015,4.201-0.6,4.161-3.16
		c-0.09-5.81-0.267-11.658-3.698-16.755c-2.47-3.669-5.846-5.662-10.306-6.15c-7.452-0.817-14.933-0.749-22.4-1.097
		C836.562,133.511,832.77,133.172,828.345,132.863z M875.825,176.998c-9.842-0.206-19.813-0.12-29.675,1.258
		c-6.463,0.903-9.94,5.577-10.215,12.231c-0.048,1.162-0.022,2.332,0.055,3.492c0.662,9.911,6.157,12.041,13.423,11.727
		c7.098-0.306,14.208-1.283,21.081-3.401c2.025-0.624,4.31-0.539,5.854-2.231C877.306,194.083,877.055,180.686,875.825,176.998z"/>
	<path style="fill:#0F6D70;" d="M803.915,168.309c-0.001,10.937-0.774,20.16-3.675,29.134c-4.752,14.7-14.9,22.576-30.07,24.66
		c-9.192,1.263-18.235,1.008-27.232-1.122c-12.356-2.924-20.703-10.368-24.387-22.549c-5.623-18.594-5.857-37.358-0.415-56.015
		c4.144-14.206,14.086-22.048,28.541-24.454c8.27-1.376,16.498-1.452,24.803-0.091c16.298,2.671,26.974,13.711,30.428,30.221
		C803.409,155.265,804.297,162.536,803.915,168.309z M734.721,169.691c-0.15,5.654,0.23,11.445,1.266,17.188
		c1.411,7.828,4.728,14.2,13.013,16.588c5.479,1.579,10.985,1.912,16.712,0.954c9.411-1.574,14.573-6.988,16.522-16.121
		c2.463-11.538,2.177-23.125,0.451-34.641c-1.383-9.224-6.348-15.975-15.921-18.307c-3.569-0.869-7.252-0.575-10.913-0.538
		c-12.367,0.125-18.338,8.614-19.907,17.847C734.992,158.259,734.618,163.861,734.721,169.691z"/>
	<path style="fill:#0F6D70;" d="M1384.202,220.686c-5.799,0-11.575,0-17.214,0c-2.052-1.82-1.771-4.072-1.671-6.187
		c0.727-15.296,0.683-30.604,0.426-45.901c-0.108-6.444-0.214-12.935-1.456-19.345c-2.132-11.001-7.927-14.298-18.381-13.992
		c-8.004,0.234-15.676,2.572-23.098,5.58c-0.435,0.176-0.774,0.592-1.039,0.803c-0.891,1.352-0.589,2.722-0.59,4.028
		c-0.018,18.816-0.045,37.633,0.012,56.449c0.013,4.313,0.351,8.624,0.508,12.937c0.067,1.832,0.127,3.687-1.713,5.469
		c-5.538,0-11.43,0-17.659,0c0-34.091,0-67.964,0-102.258c5.948-1.656,12.056-2.668,18.331-3.483
		c1.108,3.152-0.09,6.234,1.031,9.482c3.983-1.427,7.807-2.873,11.681-4.172c10.136-3.397,20.364-4.425,30.841-1.423
		c9.09,2.605,14.771,8.524,17.744,17.31c1.77,5.231,2.604,10.67,2.922,16.127c1.24,21.275,0.766,42.58,0.835,63.875
		C1385.718,217.511,1385.639,218.986,1384.202,220.686z"/>
	<path style="fill:#146E71;" d="M920.297,221.166c0-5.102,0-9.857,0-14.061c1.141-1.525,2.21-1.262,3.168-1.262
		c15.137,0.008,30.262-0.936,45.404-0.567c2.995,0.073,5.974-0.024,8.778-1.397c2.869-1.404,4.562-3.578,5.539-6.643
		c1.34-4.204,0.704-8.317-0.396-12.292c-1.041-3.761-4.379-5.365-7.993-5.868c-9.092-1.265-18.246-1.049-27.391-0.764
		c-6.485,0.202-12.943-0.053-19.017-2.539c-5.632-2.305-9.733-6.374-11.787-12.178c-3.435-9.709-3.554-19.593-0.507-29.368
		c3.044-9.766,10.306-14.836,20.148-16.164c11.239-1.517,22.529-1.132,33.821-0.304c5.139,0.377,10.315,0.237,15.474,0.356
		c1.138,0.026,2.347-0.267,3.914,1.025c0.862,4.419-0.844,9.253-0.38,13.807c-1.917,1.764-3.839,1.186-5.6,1.195
		c-10.158,0.054-20.317,0.109-30.473-0.017c-3.685-0.046-7.3,0.432-10.917,0.869c-5.386,0.65-8.24,3.417-9.426,8.763
		c-0.322,1.452-0.59,2.946-0.621,4.427c-0.18,8.654,3.496,12.664,12.136,12.888c8.653,0.224,17.314,0.078,25.969,0.251
		c4.638,0.093,9.284,0.389,13.81,1.595c8.426,2.245,13.903,7.529,16.212,15.942c2.382,8.677,2.539,17.405-0.111,26.052
		c-3.072,10.022-11.125,16.193-21.611,17.13c-15.621,1.396-31.221,0.488-46.83-0.119
		C927.836,221.775,924.017,222.131,920.297,221.166z"/>
	<path style="fill:#126E70;" d="M1070.012,203.973c1.27,5.143,0.819,10.696,1.072,16.454c-10.303,1.553-19.994,3.463-30.091,1.764
		c-11.628-1.957-17.002-8.833-18.879-20.096c-0.931-5.588-1.154-11.242-1.137-16.912c0.046-15.164,0.016-30.328,0.016-45.491
		c0-1.653,0-3.306,0-5.107c-4.75-1.99-9.734,0.067-14.646-1.438c0-5.263,0-10.477,0-15.963c4.701-1.061,9.604,0.496,14.618-1.079
		c0-8.533,0-16.975,0-25.672c6.257-2.22,12.527-2.647,19.277-4.176c1.186,9.98,0.174,19.711,0.581,29.95
		c9.705,1.401,19.167,0.07,29.097,0.885c0.309,5.151-0.087,10.197-0.242,14.859c-1.656,2.126-3.581,1.743-5.371,1.75
		c-5.999,0.024-11.998-0.022-17.996,0.03c-1.624,0.014-3.32-0.4-4.846,0.45c-1.185,1.323-0.739,2.894-0.736,4.337
		c0.029,17.494,0.1,34.988,0.166,52.482c0.003,0.832,0.025,1.667,0.098,2.495c0.644,7.319,3.885,10.476,11.164,10.582
		c4.652,0.068,9.324,0.227,13.943-0.67C1067.227,203.188,1068.415,203.08,1070.012,203.973z"/>
	<path style="fill:#0F6D70;" d="M702.538,205.791c0.776,4.81,0.294,9.76,0.744,14.965c-1.935,0.361-3.512,0.841-5.109,0.922
		c-9.468,0.481-18.908,1.708-28.415,1.203c-4.821-0.256-9.615-0.851-14.212-2.358c-11.205-3.673-18.129-11.478-20.941-22.787
		c-4.698-18.894-4.953-37.81,0.359-56.676c3.733-13.258,12.636-20.681,25.963-23.069c9.746-1.746,19.549-1.367,29.323-0.292
		c4.116,0.453,8.352-0.093,12.426,1.377c0,5.101,0,10.159,0,14.859c-2.054,1.711-3.959,1.154-5.732,1.214
		c-7.811,0.266-15.625-0.303-23.445,0.528c-13.899,1.477-19.541,6.576-21.326,20.414c-1.345,10.421-1.398,20.847,0.725,31.24
		c2.174,10.644,8.371,16.215,19.235,16.655c8.972,0.364,17.951,0.571,26.926,0.849C700.053,204.866,701.075,204.735,702.538,205.791
		z"/>
	<path style="fill:#76B8C5;" d="M4.998,213.997c0.123,0.611,0.526,0.94,1.1,1.098c-0.63,1.194-1.649,1.832-2.953,2.063
		c-0.134-0.143-0.271-0.284-0.411-0.42C2.967,215.393,3.715,214.474,4.998,213.997z"/>
	<path style="fill:#16A1B1;" d="M142.999,85.999c-0.26,1-0.798,1.133-1.6,0.534c0.425-0.578,1.001-0.595,1.602-0.531L142.999,85.999
		z"/>
	<path style="fill:#76B8C5;" d="M3.145,217.158c-0.202,0.335-0.484,0.823-0.86,0.445c-0.373-0.375,0.142-0.645,0.448-0.865
		C2.874,216.874,3.011,217.014,3.145,217.158z"/>
</g>
</svg>
