<?xml version="1.0" encoding="iso-8859-1"?>
<!-- Generator: Adobe Illustrator 27.0.0, SVG Export Plug-In . SVG Version: 6.00 Build 0)  -->
<svg version="1.1" id="Layer_1" xmlns="http://www.w3.org/2000/svg" xmlns:xlink="http://www.w3.org/1999/xlink" x="0px" y="0px"
	 viewBox="0 0 1468 321.157" style="enable-background:new 0 0 1468 321.157;" xml:space="preserve">
<g>
	<path style="fill:#7FAED3;" d="M1468,188c-18.809,0-37.617,0-56.487,0c-20.731-27.627-41.36-55.118-62.562-83.373
		c0,2.935,0,4.891,0,6.847c0,16.158-0.022,32.317,0.025,48.475c0.007,2.308-0.135,4.616,0.449,6.934
		c2.449,9.732,6.583,11.175,17.45,13.056c1.438,0.249,2.957,0.034,4.542,0.034c0.964,2.282,0.537,4.372,0.438,6.765
		c-30.229,0-60.269,0-90.564,0c-0.524-2.338-0.267-4.621-0.154-7.054c3.436-1.536,7.166-0.719,10.71-1.383
		c11.49-2.153,13.54-7.82,15.109-18.445c0.193-1.306,0.071-2.661,0.07-3.994c-0.008-41.312-0.023-82.623-0.02-123.935
		c0-3.872-1.069-7.444-2.453-11.028c-1.461-3.786-4.276-5.74-7.882-6.888c-4.243-1.35-8.618-2.045-13.266-2.216
		c-0.565-2.107-0.343-4.066-0.255-5.956c1.071-1.354,2.509-0.866,3.769-0.867c31.983-0.01,63.973-0.369,95.947,0.199
		c15.081,0.268,29.866,3.404,43.111,11.356c11.728,7.041,18.35,17.254,19.114,31.151c0.438,7.975-0.05,15.697-3.469,23.073
		c-3.932,8.485-10.439,14.549-18.36,19.028c-6.873,3.886-13.885,7.692-22.343,8.613c2.418,4.934,5.917,8.696,8.914,12.755
		c15.431,20.902,31.122,41.611,46.449,62.589c3.092,4.232,6.882,6.343,11.717,7.265C1468,183.333,1468,185.667,1468,188z
		 M1350.536,92.787c7.26,0.718,14.208,0.131,21.069-0.97c4.851-0.778,9.671-1.962,14.17-4.161
		c5.178-2.531,8.608-6.375,10.406-11.936c4.495-13.906,4.53-28.03,0.47-41.771c-2.869-9.709-9.469-16.825-20.27-19.142
		c-4.832-1.037-9.578-0.819-14.347-0.715c-7.998,0.174-11.978,4.538-11.982,12.586c-0.012,20.47-0.011,40.939,0.011,61.409
		C1350.066,89.546,1349.758,91.055,1350.536,92.787z"/>
	<path style="fill:#7FAFD3;" d="M121,0c0,19.459,0,38.918,0,58.516c-2.517,0.862-4.827,0.318-7.092,0.471
		c-1.861-1.732-2.08-4.149-2.803-6.274c-4.171-12.257-10.383-23.216-19.924-32.131c-8.044-7.517-17.23-12.03-28.571-11.701
		c-5.843,0.169-11.676,0.083-16.853,3.182c-7.825,4.685-13.278,10.957-12.869,20.807c0.083,1.996,0.018,3.997,0.06,5.995
		c0.094,4.492,1.678,8.276,4.811,11.61c4.635,4.934,10.266,8.405,16.157,11.447c11.339,5.856,22.876,11.329,34.191,17.228
		c8.517,4.44,16.87,9.207,23.713,16.163c8.5,8.64,13.575,18.777,15.356,30.923c2.215,15.113-2.702,27.948-11,39.944
		c-9.169,13.255-22.487,19.35-37.96,21.91c-9.118,1.508-18.251,1.184-27.333,0.707c-7.526-0.395-14.979-2.011-22.11-4.834
		c-4.325-1.712-8.963-2.125-13.616-1.948c-1.919,0.073-3.368,0.908-4.546,2.546c-1.364,1.898-2.33,3.951-3.173,6.438
		c-2.493,0-4.965,0-7.438,0c0-22.333,0-44.667,0-67c2.797,0,5.594,0,8.48,0c0.909,3.706,1.571,7.085,2.572,10.361
		c3.998,13.09,9.435,25.29,20.182,34.532c12.283,10.562,26.297,14.078,41.975,10.852c3.45-0.71,6.968-1.839,9.923-4.273
		c6.246-5.144,10.702-11.493,11.657-19.481c1.228-10.268-1.324-19.254-10.592-25.595c-6.864-4.697-14.181-8.513-21.462-12.415
		c-12.826-6.874-26.309-12.57-37.945-21.545c-7.839-6.047-14.678-12.9-18.739-22.157c-3.686-8.403-4.898-17.239-3.81-26.211
		c1.359-11.212,6-21.228,13.274-29.863C23.986,8.148,34.901,2.456,47.993,0.995c7.03-0.02,14.06-0.04,21.09-0.06
		c6.144,0.003,11.959,1.74,17.766,3.451c4.547,1.34,8.99,3.075,13.59,4.172c2.93,0.699,6.419,1.68,8.685-1.397
		C110.637,5.108,112.267,2.872,112,0C115,0,118,0,121,0z"/>
	<path style="fill:#A5C4DE;" d="M69,0c-0.004,0.315,0.024,0.626,0.083,0.935c-7.03,0.02-14.06,0.04-21.09,0.06
		C48.056,0.664,48.058,0.332,48,0C55,0,62,0,69,0z"/>
	<path style="fill:#7FAFD3;" d="M454.098,117.324c1.253-1.71,0.936-2.914,0.936-4.046c0.002-26.163-0.043-52.327-0.004-78.49
		c0.006-3.702-0.778-7.171-1.844-10.68c-1.361-4.481-4.21-7.369-8.378-9.238c-4.411-1.977-9.135-2.625-13.699-3.258
		c-1.56-1.982-0.942-3.972-0.825-5.895c3.85-1.023,43.894-1.41,57.99-0.564c1.04,1.976,0.848,3.993,0.029,6.238
		c-3.939,1.195-8.012,1.804-11.851,3.298c-6.429,2.502-9.22,6.145-9.454,12.998c-0.062,1.831-0.045,3.666-0.045,5.499
		c-0.002,51.16,0.004,102.321-0.026,153.481c-0.001,1.784,0.489,3.66-0.61,5.512c-2.055,1.332-4.402,0.472-6.965,0.771
		C420,144.588,380.644,96.222,341.313,47.887c-1.779,1.077-1.29,2.352-1.291,3.408c-0.025,35.162-0.101,70.325,0.037,105.487
		c0.035,8.794,2.878,16.347,12.021,19.748c3.55,1.321,7.181,2.476,11.05,2.524c0.634,0.008,1.265,0.254,1.943,0.399
		c1.221,2.286,1.034,4.471,0.326,6.618c-3.72,1.021-55.328,1.21-60.512,0.25c-1.411-2.045-0.577-4.375-0.736-6.823
		c3.454-1.013,6.954-0.588,10.344-1.275c7.431-1.507,11.898-8.181,12.626-15.257c1.657-16.109,0.653-32.242,0.773-48.359
		c0.207-27.828,0.058-55.659,0.058-84.084c-5.267-4.945-9.962-10.984-15.346-16.385c-2.135-2.142-5.073-2.978-8.03-3.494
		c-0.883-1.642-0.272-3.289-0.421-4.784c0.272-0.251,0.389-0.372,0.519-0.475c0.125-0.099,0.263-0.259,0.396-0.259
		c18.657-0.012,37.315-0.011,56.935-0.011C392.316,42.047,423.066,79.514,454.098,117.324z"/>
	<path style="fill:#7FAFD3;" d="M687.791,145.499c2.847,2.826,5.986,4.202,8.117,7.164c-15.084,18.328-32.932,32.512-56.59,38.098
		c-6.85,1.617-13.848,1.161-20.81,1.329c-12.073,0.29-23.735-1.817-34.922-6.132c-23.389-9.021-41.3-24.247-51.66-47.444
		c-3.842-8.604-5.895-17.74-7.105-27.155c-0.833-6.486-0.986-12.936-0.689-19.363c0.954-20.636,6.813-39.801,19.766-56.103
		c13.606-17.125,31.331-28.079,52.823-32.938c9.849-2.227,19.783-2.467,29.676-1.749c8.349,0.605,16.52,2.816,24.453,5.719
		c5.257,1.924,10.389,4.179,15.865,5.549c2.67,0.668,5.291,0.777,7.894,0.507c3.883-0.402,5.67-3.584,7.616-6.484
		c0.844-1.258,0.488-3.019,2.368-4.329c1.871-0.706,4.318,0.055,7.053-0.28c0,21.132,0,41.853,0,62.861
		c-2.355,0.439-4.621,0.245-7.081,0.146c-4.103-8.199-8.14-16.362-13.504-23.752c-7.05-9.714-14.762-18.682-25.597-24.515
		c-9.735-5.241-19.726-7.536-30.909-5.903c-9.838,1.437-17.975,5.22-24.499,12.658c-4.117,4.695-6.822,10.219-8.956,15.951
		c-3.863,10.379-5.984,21.162-7.26,32.197c-1.633,14.123-1.38,28.28-0.613,42.341c0.868,15.903,4.455,31.381,13.677,44.918
		c8.623,12.657,20.512,18.972,35.95,19.421c12.925,0.375,25.009-1.944,36.303-8.23c5.666-3.154,10.997-6.813,15.664-11.326
		C679.124,154.495,683.236,150.136,687.791,145.499z"/>
	<path style="fill:#7FAFD3;" d="M1114.703,180.206c0,2.5,0,4.439,0,6.604c-29.161,0-58.074,0-87.246,0
		c-0.436-2.199-0.823-4.24,0.485-6.391c3.806-1.078,7.803-0.437,11.726-1.179c9.904-1.873,10.212-6.38,8.962-13.764
		c-1.248-7.376-5.229-13.863-7.796-20.823c-1.304-3.538-2.968-6.944-4.511-10.507c-20.196,0-40.33,0-61.104,0
		c-4.54,12.219-10.154,24.312-11.469,37.48c5.084,8.351,13.254,6.981,20.847,7.611c0.725,2.375,0.328,4.661,0.269,7.297
		c-18.142,0-36.192,0-54.519,0c-0.672-2.201-0.287-4.477-0.227-6.999c3.058-0.742,6.166-1.091,8.981-2.502
		c3.226-1.617,5.673-3.91,7.472-7.052c6.344-11.081,11.35-22.788,16.194-34.562c6.343-15.417,12.499-30.911,18.766-46.36
		c7.261-17.9,14.526-35.798,21.844-53.674c4.629-11.307,9.359-22.572,14.149-34.108c2.455-0.524,5.072-0.248,7.911-0.185
		c2.174,5.026,4.364,9.989,6.473,14.985c5.138,12.172,10.212,24.371,15.36,36.538c5.858,13.845,11.787,27.659,17.648,41.503
		c5.151,12.168,10.188,24.384,15.393,36.529c4.557,10.632,9.149,21.254,13.989,31.758c1.931,4.191,4.365,8.194,6.95,12.026
		c2.484,3.683,6.717,4.583,10.761,5.545C1112.791,180.161,1113.621,180.12,1114.703,180.206z M1029.807,122.837
		c0.329-1.743,0.068-2.805-0.404-3.925c-7.875-18.68-15.702-37.381-23.566-56.067c-0.383-0.91-0.97-1.777-3.021-1.557
		c-7.782,20.212-15.697,40.768-23.698,61.549C996.437,122.837,1013.018,122.837,1029.807,122.837z"/>
	<path style="fill:#7FAED3;" d="M895.63,126.093c2.838,0.038,5.467-0.346,8.209,0.352c-3.744,20.187-7.457,40.206-11.201,60.391
		c-51.802,0-103.386,0-154.955,0c-1.251-1.076-0.705-2.499-0.758-3.762c-0.048-1.134-0.256-2.323,0.482-3.646
		c3.303-1.098,6.993-0.03,10.549-1.233c9.003-3.044,13.058-7.982,13.066-17.386c0.036-43.644-0.083-87.288,0.073-130.931
		c0.043-12.048-7.121-17.019-17.511-17.861c-1.961-0.159-3.946-0.023-5.542-0.023c-1.361-1.334-0.946-2.566-0.963-3.678
		c-0.015-0.956-0.309-2.003,0.629-3.113c30.73,0,61.65,0,92.786,0c1.034,1.931,0.492,4.033,0.394,6.248
		c-2.176,0.893-4.37,0.586-6.454,0.455c-4.097-0.257-7.877,0.926-11.613,2.23c-3.291,1.148-5.676,3.485-6.733,6.867
		c-1.18,3.779-2.077,7.596-2.072,11.641c0.056,43.477,0.031,86.955,0.05,130.432c0.001,1.804,0.044,3.559,0.566,5.396
		c1.833,6.443,4.401,8.559,10.903,9.579c12.685,1.99,25.076,0.458,37.155-3.218c11.724-3.568,21.318-10.426,28.297-20.74
		c5.401-7.982,10.017-16.338,13.231-25.444C894.487,127.883,895.007,127.203,895.63,126.093z"/>
	<path style="fill:#7EAED3;" d="M1152.188,11.814c0-2.374,0-4.311,0-6.556c31.204,0,62.253,0,93.557,0c0,2.066,0,4.01,0,6.071
		c-1.371,1.163-3.126,0.668-4.697,0.579c-4.099-0.233-7.937,0.859-11.563,2.418c-6.587,2.832-8.583,8.747-9.363,15.267
		c-0.118,0.986-0.017,1.998-0.017,2.998c0,42.327,0.027,84.655-0.059,126.982c-0.006,2.875,0.355,5.667,1.133,8.316
		c1.309,4.458,3.871,7.783,8.769,9.311c4.801,1.498,9.659,1.861,14.792,1.978c0.458,2.221,0.34,4.17,0.177,6.107
		c-3.535,1.035-83.723,1.445-93.432,0.472c-0.69-1.842-0.549-3.751-0.112-5.654c2.101-1.852,4.552-0.82,6.786-1.068
		c4.676-0.519,8.998-1.613,12.566-5.07c3.45-3.342,4.684-7.473,5.21-11.977c0.153-1.317,0.064-2.663,0.064-3.996
		c0.002-41.994,0.017-83.988-0.031-125.982c-0.003-2.79,0.105-5.556-0.617-8.395c-1.495-5.877-5.493-8.799-10.826-10.558
		C1160.683,11.788,1156.679,12.051,1152.188,11.814z"/>
	<path style="fill:#7EAED3;" d="M265.996,5.748c0,1.803,0,3.624,0,5.362c-1.343,1.358-2.944,0.855-4.36,0.801
		c-3.207-0.122-6.252,0.619-9.276,1.449c-7.655,2.1-10.454,8.266-11.324,14.149C240.867,28.652,241,29.84,241,31.006
		c-0.001,43.329-0.002,86.657,0.004,129.986c0,1.665-0.22,3.4,0.16,4.983c1.34,5.591,3.988,9.679,10.218,11.474
		c4.548,1.311,9.104,1.292,13.445,1.806c1.878,2.209,0.774,4.318,1.148,6.603c-31.461,0-62.389,0-93.508,0
		c-0.906-2.038-0.51-4.124-0.32-6.377c2.202-0.776,4.376-0.408,6.483-0.45c9.045-0.183,16.797-6.089,17.583-16.017
		c0.34-4.295,0.662-8.573,0.665-12.87c0.026-38.662,0.012-77.325,0.02-115.987c0.001-4.323-0.762-8.531-1.896-12.672
		c-1.047-3.822-3.653-6.171-7.352-7.471c-4.562-1.603-9.263-2.288-14.265-2.156c-0.79-2.252-0.515-4.309-0.31-6.328
		C178.96,4.533,262.458,4.753,265.996,5.748z"/>
	<path style="fill:#80AFD3;" d="M61.451,318.995c0-16.709,0-32.908,0-48.743c1.416-1.513,2.824-1.132,4.111-1.136
		c9.817-0.026,19.635,0.064,29.45-0.068c2.557-0.034,4.974,0.561,7.278,1.264c6.814,2.079,9.622,12.785,4.877,18.065
		c-0.991,1.103-2.281,1.937-3.01,2.543c-0.078,2.148,1.223,2.138,1.993,2.592c4.986,2.934,7.811,8.648,6.581,13.795
		c-1.702,7.123-6.575,11.571-12.423,11.641C87.504,319.101,74.698,318.995,61.451,318.995z M74.188,309.948
		c6.833,0,13.444,0.185,20.038-0.069c3.966-0.153,5.878-2.631,5.854-6.531c-0.023-3.807-1.997-6.012-6.146-6.222
		c-4.477-0.227-8.975-0.128-13.462-0.054c-2.093,0.035-4.276-0.506-6.283,0.516C74.188,301.673,74.188,305.597,74.188,309.948z
		 M96.934,285.276c0.188-6.551-0.43-7.242-6.458-7.314c-2.491-0.03-4.983-0.063-7.473,0.004c-3.248,0.088-6.537-0.332-10.052,0.372
		c0.326,3.696-0.47,7.119,0.539,10.485c6.862,0,13.474,0,19.839,0C94.838,287.824,95.932,286.829,96.934,285.276z"/>
	<path style="fill:#81AFD3;" d="M994.856,281.991c-1.077-0.729-2.208-1.42-3.257-2.217c-7.17-5.443-14.664-5.072-22.451-1.457
		c-2.943,1.366-4.882,3.784-5.886,6.488c-2.724,7.338-2.655,17.824,7.162,22.813c7.828,3.978,17.866,3.097,24.815-3.578
		c0.904-0.868,1.74-2.014,1.402-3.973c-4.69,0-9.44,0-14.432,0c0-3.067,0-5.673,0-8.652c8.341,0,16.737,0,25.491,0
		c0,8.621,0,17.318,0,26.252c-3.282,0-6.378,0-9.069,0c-1.699-0.757-1.272-2.222-1.946-3.263c-0.418,0.213-0.829,0.398-1.216,0.624
		c-12.403,7.21-24.953,6.923-37.182-0.041c-7.006-3.99-9.926-10.886-10.257-18.796c-0.166-3.961-0.253-7.923,1.243-11.78
		c2.896-7.466,8.234-12.642,15.573-15.132c11.021-3.739,22.097-3.151,32.86,1.6c4.431,1.956,7.351,5.47,10.518,9.431
		C1003.663,282.072,999.293,282.115,994.856,281.991z"/>
	<path style="fill:#82B0D4;" d="M1091.05,298.267c4.862,6.594,9.432,12.79,14.317,19.415c-5.246,0.654-9.843,0.312-14.584,0.291
		c-4.072-6.242-8.127-12.459-12.273-18.815c-4.284,0-8.566,0-13.388,0c0,6.082,0,12.145,0,18.448
		c-4.412,0.787-8.351,0.353-12.244,0.374c-1.065-3.599-1.441-37.669-0.561-48.232c0.926-1.015,2.165-0.63,3.275-0.633
		c10.156-0.03,20.312-0.03,30.468-0.012c4.403,0.008,8.492,1.171,12.139,3.662c6.031,4.12,5.56,10.426,4.531,16.257
		C1101.742,294.618,1097.37,297.523,1091.05,298.267z M1065.067,290.095c5.767,0,11.041,0.006,16.315-0.004
		c1.491-0.003,2.992,0.056,4.47-0.096c3.056-0.314,4.208-1.881,4.23-5.519c0.022-3.601-1.152-5.32-4.209-5.463
		c-4.134-0.192-8.283-0.16-12.423-0.084c-2.747,0.05-5.554-0.433-8.384,0.433C1065.067,282.86,1065.067,286.125,1065.067,290.095z"
		/>
	<path style="fill:#81AFD3;" d="M277.456,319.94c-6.81,0.202-12.915-0.948-18.566-3.995c-7.638-4.119-11.434-10.71-11.912-19.25
		c-0.326-5.822-0.168-11.565,3.038-16.813c3.554-5.819,8.821-8.997,15.169-11.086c10.819-3.561,20.959-1.462,30.471,3.705
		c10.017,5.442,12.683,16.371,10.949,26.081c-2.027,11.354-9.32,17.746-20.258,20.401
		C283.28,319.726,280.204,320.283,277.456,319.94z M276.748,311.047c8.689,1.282,17.605-6.245,17.156-16.754
		c-0.435-10.175-5.394-16.867-16.985-17.209c-10.151-0.3-16.649,6.9-17.06,17.092C259.472,303.763,267.062,312.171,276.748,311.047z
		"/>
	<path style="fill:#81AFD3;" d="M1202.077,293.836c0.383,7.452-1.973,14.06-7.778,19.312c-3.159,2.858-6.988,4.572-10.98,5.533
		c-9.021,2.171-18.065,2.079-26.721-1.699c-8.447-3.687-13.191-10.555-14.384-19.428c-1.23-9.153,0.996-17.627,8.554-23.671
		c7.017-5.612,15.196-7.798,24.158-6.364c3.399,0.544,6.753,1.226,10.084,2.293C1195.167,273.065,1203.014,281.256,1202.077,293.836
		z M1171.977,311.047c9.989,1.05,17.314-6.92,17.253-16.523c-0.061-9.551-6.177-17.595-16.724-17.446
		c-12.018,0.17-17.104,7.011-17.312,16.784C1154.973,304.328,1162.589,312.123,1171.977,311.047z"/>
	<path style="fill:#81B0D3;" d="M440.368,269.098c10.574,0,20.74-0.489,30.842,0.109c17.364,1.028,24.808,15.342,22.015,29.252
		c-0.356,1.773-0.739,3.551-1.281,5.273c-3.09,9.814-12.194,14.382-19.885,14.331c-10.147-0.068-20.295-0.037-30.442-0.063
		c-0.309-0.001-0.618-0.172-1.249-0.359C440.368,301.702,440.368,285.673,440.368,269.098z M452.157,309.996
		c3.707,0,6.852,0.006,9.997-0.002c1.828-0.005,3.661,0.054,5.482-0.063c6.067-0.389,10.668-3.902,12.075-9.278
		c1.094-4.178,1.07-8.521,0.098-12.609c-0.978-4.113-4.258-8.124-9.951-8.133c-4.819-0.008-9.639-0.029-14.457,0.011
		c-1.103,0.009-2.358-0.388-3.245,0.798C452.157,290.271,452.157,299.857,452.157,309.996z"/>
	<path style="fill:#80AFD3;" d="M169.227,317.868c-4.453,0-8.057,0-11.969,0c0-16.22,0-32.259,0-48.767c1.992,0,3.787,0,5.582,0
		c8.83,0,17.661,0.039,26.491-0.021c3.191-0.021,6.218,0.606,9.194,1.667c6.56,2.339,8.735,5.298,9.394,12.45
		c0.545,5.922-2.368,12.034-8.167,13.921c-1.227,0.399-2.408,0.937-3.916,1.532c4.665,6.377,9.223,12.607,14.033,19.182
		c-4.998,0-9.574,0-14.608,0c-4.011-6.116-8.165-12.448-12.282-18.725c-4.643,0-8.944,0-13.751,0
		C169.227,305.213,169.227,311.29,169.227,317.868z M170.111,290.843c8.272,0.062,16.019,0.588,23.618-1.328
		c3.177-4.842,3.165-5.621-0.12-10.113c-7.781-1.777-15.61-1.42-23.498-1.158C170.111,282.666,170.111,286.461,170.111,290.843z"/>
	<path style="fill:#81AFD3;" d="M717.723,307.489c4.124-1.271,7.252-3.707,11.16-3.608c9.058,7.594,19.6,8.667,27.664,2.889
		c0.814-5.182,0.411-5.554-4.274-6.911c-5.579-1.616-11.403-1.514-17.021-2.808c-2.436-0.561-4.725-1.397-6.987-2.404
		c-6.689-2.98-9.897-12.451-3.808-19.738c3.288-3.935,7.607-6.267,12.394-6.583c7.367-0.486,14.817-1.297,22.134,1.462
		c5.05,1.904,8.852,4.939,12.183,9.41c-3.548,3.173-8.181,2.207-11.884,4.192c-6.093-6.486-13.407-6.321-20.858-4.549
		c-4.386,1.043-4.614,1.856-4.028,7.029c3.178,1.987,6.94,2.368,10.6,3.209c4.356,1.001,8.852,0.728,13.184,1.883
		c8.195,2.183,10.686,5.567,11.641,12.794c0.739,5.595-2.598,11.274-8.502,14.547c-7.098,3.934-28.054,3.975-34.67-0.951
		C723.15,314.743,719.925,312.084,717.723,307.489z"/>
	<path style="fill:#81AFD3;" d="M579.64,302.036c4.033,0.113,7.992-0.363,12.13,0.196c-1.064,5.722-4.951,9.296-9.049,12.203
		c-10.109,7.17-29.253,7.686-39.609,0.652c-8.209-5.576-11.739-15.734-10.576-25.545c1.734-14.633,14.633-21.967,27.759-22.505
		c8.337-0.342,16.082,1.51,23.053,6.168c3.306,2.21,5.298,5.125,6.573,9.241c-4.128,0.852-8.013,2.699-12.431,2.534
		c-3.235-3.428-6.482-6.538-11.388-7.544c-8.752-1.796-20.691,3.353-20.276,15.7c0.312,9.297,3.681,14.924,11.933,17.207
		c7.474,2.067,16.235,0.763,20.79-7.247C578.705,302.82,579.017,302.632,579.64,302.036z"/>
	<path style="fill:#7FAFD3;" d="M640.97,309.2c-1.533,2.938-2.977,5.706-4.522,8.669c-4.397,0.25-8.794,0.393-13.78-0.168
		c8.286-16.43,15.345-32.95,24.083-48.419c4.744,0,8.867,0,13.245,0c8.268,15.861,15.954,31.958,23.772,48.444
		c-4.587,0-8.927,0-13.451,0c-2.206-2.356-2.728-5.866-4.997-8.526C657.46,309.2,649.507,309.2,640.97,309.2z M644.774,299.594
		c5.866,0,10.92,0,16.644,0c-2.808-6.392-5.39-12.27-8.188-18.641C649.815,287.089,646.882,292.885,644.774,299.594z"/>
	<path style="fill:#7FAFD3;" d="M354.367,317.843c-4.432,0-8.709,0-12.849,0c-0.654-1.094-0.035-1.75,0.315-2.468
		c6.819-13.979,13.705-27.925,20.397-41.964c1.582-3.319,3.688-4.766,7.374-4.364c2.617,0.286,5.29,0.055,8.273,0.055
		c8.394,16.011,16.144,32.235,23.929,48.764c-4.555,0-8.834,0-13.356,0c-2.269-2.322-2.839-5.801-5.023-8.613
		c-7.925,0-16.029,0-24.184,0C357.047,311.841,356.246,315.178,354.367,317.843z M362.744,299.604c5.884,0,10.94,0,16.673,0
		c-2.805-6.391-5.388-12.275-8.176-18.628C367.781,287.053,364.939,292.891,362.744,299.604z"/>
	<path style="fill:#80AFD3;" d="M1283.835,303.968c2.167-11.36,0.545-22.864,1.284-34.531c3.753-0.926,7.501-0.372,11.045-0.378
		c1.193,1.139,0.816,2.374,0.818,3.486c0.023,9.162-0.156,18.327,0.037,27.485c0.174,8.254-4.112,13.736-11.058,16.732
		c-10.995,4.741-22.17,4.7-32.957-1.226c-5.58-3.065-8.579-8.06-8.833-14.099c-0.426-10.142-0.09-20.317-0.051-30.478
		c0.001-0.299,0.269-0.596,0.413-0.894c3.38-1.229,7.065-1.327,11.533-0.308c1.191,1.047,0.812,2.46,0.816,3.749
		c0.026,8.662-0.015,17.325,0.024,25.987c0.028,6.218,2.128,8.211,8.259,9.709c4.053,0.99,7.855,0.704,11.705-0.277
		C1279.613,308.226,1282.305,307.247,1283.835,303.968z"/>
	<path style="fill:#81AFD3;" d="M1355.904,300.022c0,6.548,0,12.482,0,18.716c-4.298,0-8.217,0-12.5,0c0-16.147,0-32.365,0-48.489
		c1.02-1.355,2.406-1.147,3.724-1.148c9.494-0.004,18.989-0.115,28.48,0.025c12.944,0.191,20.663,12.836,14.825,24.014
		c-2.632,5.039-7.104,6.737-12.333,6.845C1370.959,300.132,1363.813,300.022,1355.904,300.022z M1355.129,278.057
		c0.086,4.521-0.321,8.576,0.285,12.945c5.579,0,10.875-0.157,16.156,0.057c3.38,0.137,5.795-0.939,7.338-4.022
		c0-1.755,0-3.567,0-5.249c-1.092-1.723-2.35-2.994-4.085-3.73C1368.491,278.057,1362.184,278.057,1355.129,278.057z"/>
	<path style="fill:#7EAED3;" d="M822.907,317.769c0-13.061,0-25.935,0-39.162c-6.031-1.085-11.676-0.092-17.384-0.661
		c-1.01-2.413-0.464-4.861-0.466-7.243c3.752-1.041,35.319-1.408,47.412-0.57c0.976,2.319,0.412,4.772,0.44,7.739
		c-5.816,0-11.533,0-17.91,0c0,7.107,0,13.69,0,20.274c0,6.45,0,12.9,0,19.623C830.887,317.769,827.173,317.769,822.907,317.769z"/>
</g>
</svg>
