<?xml version="1.0" encoding="iso-8859-1"?>
<!-- Generator: Adobe Illustrator 27.0.0, SVG Export Plug-In . SVG Version: 6.00 Build 0)  -->
<svg version="1.1" id="Layer_1" xmlns="http://www.w3.org/2000/svg" xmlns:xlink="http://www.w3.org/1999/xlink" x="0px" y="0px"
	 viewBox="0 0 1527.107 171" style="enable-background:new 0 0 1527.107 171;" xml:space="preserve">
<g>
	<path style="fill:#1A5293;" d="M287,0c0.36,1.014,1.273,0.832,2.057,0.981c13.849,2.635,24.15,11.526,26.252,26.796
		c1.579,11.474,0.202,22.238-6.286,31.998c-4.134,6.218-9.741,10.954-16.374,14.308c-9.696,4.902-20.034,7.954-30.708,9.887
		c-0.792,0.143-1.608,0.156-2.322,0.221c-1.938-4.046-3.421-10.325-3.475-14.728c7.659-1.198,15.183-3.111,22.278-6.421
		c8.971-4.185,16.009-10.098,18.08-20.422c1.037-5.17,0.901-10.306-0.8-15.27c-1.939-5.661-5.774-9.624-11.56-11.533
		c-3.176-1.048-6.425-1.781-9.774-1.791c-11.831-0.038-23.662-0.015-35.493-0.001c-0.47,0.001-0.94,0.143-1.809,0.285
		c0,40.276,0,80.519,0,121.055c-5.987,0-11.564,0-17.328,0c-0.903-1.789-0.525-3.643-0.526-5.405
		c-0.025-41.492-0.017-82.983-0.027-124.475c0-1.827-0.12-3.655-0.184-5.482C241.667,0,264.333,0,287,0z"/>
	<path style="fill:#1B5293;" d="M345,0c0.028,14.986,0.055,29.972,0.088,44.958c0,0.163,0.068,0.325,0.105,0.486
		c0.473,0.279,0.869,0.122,1.272-0.182c8.351-6.308,17.786-9.688,28.223-9.777c7.492-0.064,15.017,0.53,21.856,4.023
		c10.857,5.546,15.435,15.18,16.376,26.758c0.538,6.624,0.485,13.305,0.516,19.961c0.068,14.654,0.037,29.309-0.001,43.963
		c-0.004,1.624,0.429,3.325-0.618,5.19c-2.583,0.595-5.398,0.243-8.171,0.251c-2.788,0.008-5.609,0.311-8.274-0.233
		c-0.876-1.817-0.492-3.503-0.495-5.131c-0.032-17.485-0.046-34.971,0.001-52.456c0.01-3.674-0.227-7.31-0.717-10.946
		c-1.218-9.045-6.697-14.661-15.801-15.997c-13.594-1.995-24.657,3.051-34.409,12.326c0,24.024,0,47.973,0,72.193
		c-5.83,0-11.395,0-16.873,0c-1.262-1.889-0.718-3.775-0.72-5.543c-0.035-41.465-0.022-82.931-0.043-124.396
		C327.314,3.632,327.631,1.784,327,0C333,0,339,0,345,0z"/>
	<path style="fill:#787A7E;" d="M0,54c4.594-5.731,9.718-10.709,16.961-13.08c3.477-1.138,6.975-2.21,10.557-2.766
		c13.057-2.029,26.15-1.58,39.266-0.391c5.623,0.51,11.145,1.427,16.998,2.6c0.271,4.597-1.963,7.792-5.475,10.756
		c-7.032-1.601-14.293-2.106-21.539-2.702c-9.653-0.794-19.235-0.397-28.529,2.63c-4.066,1.324-7.521,3.582-9.187,7.807
		c-2.077,5.268-0.668,9.328,4.241,12.327c3.864,2.361,8.137,3.687,12.475,4.807c10.572,2.73,21.424,4.327,31.771,7.984
		c4.408,1.558,8.588,3.477,12.48,6.09c13.032,8.749,10.991,27.236,0.681,35.149c-6.715,5.154-14.444,7.257-22.475,8.679
		c-9.895,1.753-19.919,1.447-29.863,0.859C18.783,134.184,9.283,132.604,0,130c0-2.667,0-5.333,0-8
		c1.655-0.338,1.65-2.453,3.624-3.092c5.435,0.827,11.287,1.909,17.185,2.573c10.534,1.186,21.109,2.247,31.673,0.362
		c3.573-0.638,7.06-1.664,10.238-3.607c8.144-4.978,8.355-14.686,0.401-19.891c-3.384-2.214-7.152-3.441-11.016-4.376
		c-8.508-2.06-17.062-3.93-25.558-6.035C16.345,85.406,6.599,81.975,0,73C0,66.667,0,60.333,0,54z"/>
	<path style="fill:#E1E1E0;" d="M49,171c0.06-2.411-1.705-1.977-3.144-1.992c-7.759-0.079-15.37-1.289-22.909-3.015
		c-5.804-1.329-7.315-2.336-10.028-6.542c1.172-2.899,3.545-4.42,6.466-5.464c4.514-1.613,9.242-2.302,13.917-2.896
		c9.649-1.226,19.39-1.633,29.082-2.368c9.639-0.731,19.224-0.399,28.827-0.69c5.993-0.181,12.007,0.194,17.993-0.085
		c9.811-0.457,19.55,0.813,29.295,1.307c9.256,0.469,18.667,1.226,27.728,3.764c2.834,0.794,5.762,1.366,7.991,3.63
		c1.398,1.42,2.29,2.824,1.397,5.159c-3.436,2.89-7.923,4.238-12.378,5.069c-6.118,1.142-12.271,2.515-18.589,2.128
		c-1.452-0.089-2.732,0.044-2.646,1.993C111,171,80,171,49,171z"/>
	<path style="fill:#135092;" d="M1431,0c0.544,1.28,0.32,2.63,0.321,3.949c0.007,42.471,0.001,84.942-0.004,127.413
		c0,1.149,0,2.299,0,3.615c-2.895,1.239-5.729,0.51-8.463,0.638c-2.794,0.131-5.598,0.029-7.915,0.029
		c-1.031-0.908-0.993-1.589-0.993-2.238C1413.961,88.938,1413.981,44.469,1414,0C1419.667,0,1425.333,0,1431,0z"/>
	<path style="fill:#185292;" d="M1207,0c0,5.146,0,10.291,0,15.795c-5.886,0-11.589,0-17.56,0c-0.778-5.227,0.045-10.54-0.44-15.795
		C1195,0,1201,0,1207,0z"/>
	<path style="fill:#1D5393;" d="M659.871,49.191c7.508-6.094,15.093-10.831,24.154-12.545c7.605-1.439,15.212-1.408,22.661,1.027
		c11.357,3.713,16.948,12.224,19.23,23.392c0.868,4.248,1.13,8.556,1.117,12.903c-0.053,18.661-0.022,37.322-0.022,55.983
		c0,1.659,0,3.319,0,5.345c-5.743,0-11.297,0-16.922,0c-1.366-1.552-0.719-3.474-0.724-5.226c-0.05-18.494-0.02-36.989-0.04-55.483
		c-0.004-3.823-0.042-7.636-1.098-11.384c-2.481-8.805-9.754-13.854-18.736-12.959c-9.906,0.986-17.934,5.529-24.892,12.948
		c0,23.79,0,47.745,0,72.18c-5.865,0.576-11.44,0.213-17.21,0.226c-0.885-1.854-0.526-3.699-0.529-5.455
		c-0.03-18.994-0.043-37.989,0.005-56.983c0.009-3.36-0.338-6.69-1.231-9.869c-2.725-9.699-8.85-13.207-19.158-12.741
		c-10.126,0.458-17.931,5.389-24.739,13.139c0,23.657,0,47.589,0,71.743c-5.949,0-11.53,0-17.361,0c0-33.315,0-66.396,0-99.714
		c3.799-0.821,7.576-0.129,11.616-0.448c1.086,4.267,2.101,8.252,3.184,12.507c2.175-1.547,4.132-2.984,6.135-4.355
		c11.422-7.821,23.98-9.209,37.216-6.413C649.855,38.555,655.515,42.68,659.871,49.191z"/>
	<path style="fill:#195292;" d="M824.518,135.528c-3.23,0-6.197,0-9.42,0c-2.015-3.15-4.049-6.329-6.188-9.671
		c-6.775,4.262-13.72,7.227-21.288,8.7c-9.134,1.778-18.21,1.518-27.114-1.021c-11.548-3.293-18.137-11.378-19.337-23.339
		c-0.365-3.638-0.415-7.325,0.225-10.955c2.1-11.919,9.343-18.968,20.791-22.279c8.976-2.596,18.119-2.017,27.253-2.087
		c5.675-0.044,11.247,1.103,17.169,1.334c1.215-4.737,1.045-9.524-0.091-14.127c-1.09-4.42-4.28-7.401-8.531-9.144
		c-4.668-1.914-9.556-2.759-14.568-2.924c-9.873-0.325-19.56,1.073-29.13,3.356c-1.609,0.384-3.167,0.88-5.061,0.746
		c-0.451-4.453-0.206-8.905-0.148-13.526c6.013-2.253,12.195-3.425,18.411-4.041c12.445-1.234,24.899-1.655,37.045,2.348
		c8.253,2.72,14.868,7.369,18.251,15.694c1.252,3.082,2.09,6.316,2.095,9.694c0.036,23.308,0.067,46.616,0.085,69.924
		C824.968,134.515,824.767,134.821,824.518,135.528z M807.267,91.103c-8.336-1.362-16.24-2.052-24.204-2.1
		c-3.49-0.021-6.939,0.113-10.402,0.8c-10.249,2.033-14.468,7.381-13.786,17.835c0.412,6.32,3.668,10.469,9.65,12.473
		c4.549,1.524,9.223,1.196,13.834,0.828c9.086-0.725,17.44-3.571,24.609-9.244C807.458,104.821,807.408,98.202,807.267,91.103z"/>
	<path style="fill:#185292;" d="M493.554,76.055c0.654-4.86,0.546-9.515-0.667-14.002c-1.197-4.429-4.438-7.331-8.595-9.144
		c-4.803-2.094-9.9-2.749-15.085-2.903c-9.542-0.284-18.9,1.075-28.152,3.257c-1.613,0.38-3.165,0.97-5.22,0.747
		c-1.069-4.314-0.25-8.731-0.464-13.383c5.967-2.324,12.153-3.448,18.357-4.083c11.45-1.171,22.924-1.502,34.23,1.429
		c3.886,1.007,7.533,2.56,10.971,4.643c7.397,4.482,11.136,11.201,12.04,19.632c0.212,1.98,0.176,3.992,0.177,5.989
		c0.011,20.662,0.017,41.324-0.012,61.985c-0.002,1.633,0.363,3.319-0.458,5.13c-2.842,0.638-5.813,0.17-9.094,0.301
		c-2.032-3.119-4.1-6.292-6.314-9.69c-6.469,3.825-13.187,6.99-20.582,8.474c-9.112,1.829-18.243,1.849-27.163-0.688
		c-14.117-4.015-20.553-13.392-20.289-29.312c0.258-15.538,9.202-25.431,24.961-28.367c11.061-2.061,22.217-1.464,33.343-0.522
		C488.153,75.771,490.736,76.236,493.554,76.055z M493.687,91.312c-5.123-1.787-10.019-1.535-14.779-1.975
		c-6.919-0.64-13.946-0.982-20.823,0.654c-4.432,1.054-8.559,2.758-11.048,6.955c-6.335,10.684,0.165,23.227,12.495,24.088
		c5.491,0.383,10.98,0.182,16.319-1.18c6.595-1.683,12.902-4.074,17.837-8.614C493.687,104.354,493.687,97.902,493.687,91.312z"/>
	<path style="fill:#185292;" d="M1376.579,75.809c0.623-4.609,0.467-9.24-0.732-13.748c-1.141-4.291-4.229-7.077-8.154-8.918
		c-4.907-2.301-10.175-2.934-15.516-3.134c-9.719-0.364-19.226,1.145-28.643,3.344c-1.62,0.378-3.173,0.981-5.139,0.638
		c0-4.403,0-8.834,0-13.484c5.792-2.013,11.783-3.236,17.855-3.897c11.627-1.266,23.251-1.523,34.723,1.388
		c4.216,1.07,8.168,2.76,11.804,5.18c7.021,4.674,10.413,11.422,11.207,19.626c0.192,1.984,0.162,3.994,0.163,5.992
		c0.01,20.495,0.017,40.99-0.014,61.484c-0.003,1.625,0.396,3.314-0.519,5.128c-2.835,0.524-5.801,0.144-8.901,0.233
		c-2.596-2.846-4.017-6.475-6.505-9.664c-3.644,1.964-7.172,4.132-11.054,5.569c-13.554,5.019-27.211,5.911-40.875,0.631
		c-8.602-3.324-13.482-9.877-15.317-18.851c-1.154-5.643-1.159-11.256,0.257-16.819c2.313-9.084,8.133-15.118,16.796-18.353
		c4.99-1.863,10.172-3.087,15.565-3.168c9.152-0.137,18.304-0.487,27.416,0.875C1372.739,76.121,1374.579,76.56,1376.579,75.809z
		 M1376.667,91.057c-10.638-1.652-21.169-2.607-31.786-1.788c-2.607,0.201-5.256,0.921-7.708,1.864
		c-6.587,2.533-9.542,7.691-9.187,15.441c0.337,7.358,3.749,11.766,10.689,13.787c4.24,1.235,8.588,0.947,12.871,0.588
		c9.262-0.778,17.764-3.69,25.121-9.579C1376.667,104.578,1376.667,97.973,1376.667,91.057z"/>
	<path style="fill:#1A5293;" d="M1013.599,90.903c-23.211,0-46.152,0-69.05,0c-1.437,11.648,5.064,22.795,15.595,27.02
		c5.459,2.191,11.16,3.148,17.04,3.222c10.017,0.125,19.947-0.49,29.69-3.04c0.782-0.205,1.639-0.125,2.734-0.195
		c0,4.567,0,9.003,0,13.598c-4.122,1.744-8.543,2.372-12.957,2.897c-12.758,1.515-25.482,2.208-38.137-1.098
		c-15.546-4.062-25.54-13.678-29.687-29.2c-3.642-13.635-3.594-27.381,0.395-40.863c4.889-16.525,16.865-25.016,33.523-27.005
		c7.578-0.905,15.248-0.805,22.867,0.657c15.653,3.004,26.266,14.255,28.382,30.064
		C1015.041,74.774,1015.087,82.513,1013.599,90.903z M997.951,75.707c-0.448-3.085-0.623-5.907-1.294-8.606
		c-2.246-9.033-7.744-14.765-17.111-16.602c-4.311-0.845-8.626-0.843-12.902-0.378c-12.411,1.351-22.35,9.567-22.131,25.586
		C962.229,75.707,979.944,75.707,997.951,75.707z"/>
	<path style="fill:#1E5394;" d="M1028.562,35.591c6.013,0,11.589,0,17.076,0c0.888,1.828,0.502,3.516,0.505,5.145
		c0.031,18.997,0.055,37.995-0.016,56.992c-0.011,3.035,0.376,6.003,1.051,8.899c2.101,9.018,9,13.971,19.705,14.233
		c9.791,0.239,22.041-4.194,30.021-13.358c0-23.6,0-47.574,0-71.857c5.888,0,11.458,0,17.399,0c0,33.185,0,66.238,0,99.546
		c-3.777,0.995-7.571,0.268-11.573,0.448c-1.861-3.727-1.958-7.953-3.281-11.709c-1.953-0.463-2.92,0.957-4.132,1.69
		c-10.442,6.313-21.567,10.263-33.939,10.054c-4.526-0.077-8.896-0.951-13.178-2.375c-10.36-3.447-15.722-11.132-18.206-21.315
		c-1.271-5.212-1.526-10.561-1.583-15.843c-0.204-19.162-0.082-38.327-0.072-57.491C1028.34,37.829,1028.455,37.009,1028.562,35.591
		z"/>
	<path style="fill:#1A5293;" d="M1523,40.488c0,4.904,0,9.524,0,14.597c-4.16,0.008-7.802-1.734-11.579-2.497
		c-8.847-1.788-17.727-2.82-26.742-2.563c-4.668,0.133-9.274,0.786-13.59,2.708c-7.344,3.271-10.166,10.565-6.778,17.797
		c2.037,4.349,5.866,6.326,10.454,6.547c5.817,0.28,11.654,0.126,17.479,0.288c4.814,0.134,9.622,0.449,14.326,1.637
		c13.13,3.317,18.996,11.719,20.307,24.021c0.625,5.861,0.073,11.639-2.727,16.99c-3.739,7.146-10.107,10.795-17.516,12.988
		c-7.901,2.339-16.036,2.895-24.195,2.607c-9.974-0.352-19.86-1.628-29.569-4.041c-0.797-0.198-1.554-0.559-2.532-0.918
		c0-4.712,0-9.483,0-14.195c1.277-0.827,2.317-0.23,3.409,0.086c12.069,3.489,24.36,5.144,36.938,4.469
		c3.516-0.189,6.94-0.839,10.205-2.093c6.11-2.347,8.766-6.675,8.322-13.213c-0.407-5.998-3.382-9.37-9.594-11.164
		c-2.462-0.711-4.939-0.597-7.425-0.662c-7.145-0.186-14.285,0.244-21.433-0.747c-18.437-2.557-23.679-13.596-24.377-26.547
		c-0.869-16.113,7.757-26.385,24.857-29.465c12.729-2.293,25.519-1.684,38.249,0.322C1513.901,38.136,1518.296,38.958,1523,40.488z"
		/>
	<path style="fill:#787A7E;" d="M191.594,41.509c-0.324,3.982-2.144,6.961-5.527,9.41c-3.604,0.486-7.213-1.093-10.954-1.525
		c-9.911-1.145-19.788-1.868-29.626,0.57c-10.69,2.65-17.89,8.983-20.983,19.708c-3.11,10.78-3.191,21.612-0.098,32.364
		c3.267,11.355,11.238,17.727,22.603,19.925c8.707,1.684,17.471,1.39,26.272,0.375c4.618-0.533,9.188-1.201,13.875-2.238
		c3.572,2.378,6.199,5.329,5.971,10.249c-4.769,2.026-9.837,2.78-14.863,3.531c-9.241,1.38-18.572,1.497-27.871,0.972
		c-8.469-0.478-16.736-2.13-24.493-5.849c-15.282-7.326-22.72-19.854-23.861-36.34c-0.457-6.601-0.547-13.238,0.803-19.854
		c3.455-16.934,13.683-27.567,29.874-32.769c5.857-1.882,11.886-2.969,18.071-3.07c10.968-0.179,21.933-0.448,32.742,2.031
		C186.271,39.628,188.963,40.339,191.594,41.509z"/>
	<path style="fill:#1B5393;" d="M1302.471,119.143c0,4.5,0,8.784,0,13.027c-3.153,2.002-6.743,1.894-10.106,2.351
		c-12.087,1.642-24.167,1.814-36.129-1.209c-17.331-4.38-27.904-15.352-31.755-32.723c-2.369-10.688-2.581-21.537-0.116-32.185
		c3.764-16.252,14.253-26.218,30.312-30.363c12.111-3.126,24.411-2.558,36.695-1.497c3.596,0.311,7.143,1.194,11.013,1.868
		c0.471,4.807,0.348,9.388,0.055,14.258c-5.315-0.734-10.344-1.641-15.438-2.115c-7.323-0.681-14.575-0.881-21.865,0.293
		c-13.998,2.254-23.039,11.703-24.217,25.746c-0.57,6.797-0.651,13.598,0.894,20.341c3.4,14.833,13.227,23.263,28.399,24.048
		c9.161,0.474,18.283,0.093,27.315-1.717C1298.962,118.98,1300.445,118.57,1302.471,119.143z"/>
	<path style="fill:#1B5393;" d="M918.472,119.144c0,4.518,0,8.801,0,13.175c-2.912,1.478-6.077,1.709-9.136,2.114
		c-12.594,1.667-25.166,2.057-37.614-1.248c-18.448-4.898-28.644-17.173-31.679-35.668c-1.626-9.907-1.759-19.844,0.634-29.709
		c3.874-15.971,14.197-25.638,29.766-29.635c14.233-3.654,28.685-2.989,43.088-0.698c1.464,0.233,2.904,0.616,4.753,1.016
		c0.87,4.522,0.067,9.122,0.494,14.059c-5.817-0.742-11.16-1.495-16.521-2.088c-7.641-0.845-15.318-0.984-22.846,0.691
		c-11.16,2.484-18.768,9.064-21.419,20.442c-2.265,9.721-1.985,19.488,0.964,29.063c3.725,12.097,13.344,19.447,26.746,20.293
		c9.149,0.577,18.284,0.224,27.323-1.561C914.633,119.071,916.267,118.622,918.472,119.144z"/>
	<path style="fill:#1C5393;" d="M1174.744,121.109c0,4.926,0,9.368,0,14.524c-6.034-0.005-12.1,0.213-18.181-0.18
		c-1.159-0.075-2.309-0.292-3.466-0.409c-10.019-1.013-16.696-6.704-18.865-16.375c-0.687-3.063-1.182-6.186-1.177-9.384
		c0.039-29.128,0.016-58.257,0.02-87.385c0-0.651,0.111-1.301,0.188-2.149c3.481-0.846,6.928-0.176,10.461-0.465
		c2.491,5.343,2.358,11.202,4.642,16.301c8.763-0.274,17.381-0.639,26.208,0.331c0.882,4.468,0.085,8.918,0.536,13.924
		c-8.087,0-15.957,0-23.667,0c-0.883,1.979-0.567,3.482-0.57,4.929c-0.03,16.978-0.028,33.955-0.026,50.933
		c0,1.497-0.003,2.999,0.108,4.491c0.498,6.724,4.445,10.623,11.228,10.884C1166.294,121.238,1170.416,121.109,1174.744,121.109z"/>
	<path style="fill:#1C5393;" d="M576.273,35.55c0,4.768,0,9.345,0,14.454c-11.015,0.604-20.952,4.071-28.623,13.217
		c0,23.704,0,47.665,0,72.138c-5.84,0.597-11.413,0.209-17.326,0.242c0-33.28,0-66.335,0-99.402
		c3.723-1.097,6.47-1.169,11.253-0.267c1.906,3.659,1.651,8.064,3.698,11.955C553.948,39.682,564.135,35.669,576.273,35.55z"/>
	<path style="fill:#1E5394;" d="M1206.704,135.43c-5.844,0-11.424,0-17.253,0c0-33.138,0-66.038-0.002-98.939
		c3.269-1.405,9.197-1.671,17.256-0.729C1206.704,68.791,1206.704,101.854,1206.704,135.43z"/>
</g>
</svg>
