<?xml version="1.0" encoding="iso-8859-1"?>
<!-- Generator: Adobe Illustrator 27.0.0, SVG Export Plug-In . SVG Version: 6.00 Build 0)  -->
<svg version="1.1" id="Layer_1" xmlns="http://www.w3.org/2000/svg" xmlns:xlink="http://www.w3.org/1999/xlink" x="0px" y="0px"
	 viewBox="0 0 1548.703 816" style="enable-background:new 0 0 1548.703 816;" xml:space="preserve">
<g>
	<path style="fill:#0E0D0D;" d="M527,816c-6.19-7.393-13.14-14.075-19.815-21.007c-23.224-24.117-46.568-48.119-69.894-72.139
		c-0.996-1.026-1.727-2.473-3.845-2.796c0,30.185,0,60.272,0,90.616c-8.526,0-16.602,0-24.669,0
		c-0.873-3.989-1.11-141.197-0.259-151.377c3.062,0.362,4.953,2.469,6.894,4.482c16.071,16.667,32.134,33.342,48.206,50.008
		c12.835,13.309,25.676,26.612,38.527,39.906c0.674,0.697,1.207,1.604,2.783,1.95c0-30.419,0-60.716,0-91.209
		c8.618,0,16.73,0,24.917,0c1.511,1.726,0.789,3.822,0.79,5.721c0.045,46.977,0.029,93.953,0.056,140.93
		c0.001,1.634-0.41,3.317,0.31,4.913C529.667,816,528.333,816,527,816z"/>
	<path style="fill:#060505;" d="M1356,816c-17.575-18.204-35.153-36.406-52.724-54.614c-12.492-12.945-24.974-25.901-37.464-38.849
		c-1.023-1.061-2.068-2.101-3.746-3.804c0,31.15,0,61.461,0,91.982c-8.542,0-16.619,0-24.672,0
		c-0.761-4.347-1.042-139.642-0.316-150.599c1.359-0.645,2.684-0.582,3.905,0.563c0.727,0.683,1.404,1.42,2.097,2.139
		c28.89,29.992,57.776,59.988,86.682,89.965c0.88,0.912,1.492,2.275,3.621,2.279c0-30.063,0-60.113,0-90.489
		c8.74,0,16.941,0,25.618,0c0,50.574,0,101,0,151.427C1358,816,1357,816,1356,816z"/>
	<path style="fill:#0E0D0D;" d="M239,816c-2.144-1.963-5.001-1.285-7.473-1.787c-22.753-4.617-36.394-18.589-42.43-40.581
		c-1.994-7.265-2.721-14.735-2.751-22.212c-0.115-28.165-0.03-56.332-0.011-84.498c0-0.65,0.106-1.299,0.187-2.218
		c4.288-0.965,8.589-0.335,12.839-0.446c4.304-0.112,8.613-0.025,13.03-0.025c0.865,2.013,0.515,3.857,0.517,5.623
		c0.03,26.499,0.035,52.999,0.02,79.498c-0.004,7.188,0.832,14.221,2.959,21.131c3.859,12.535,14.644,20.973,28.612,21.569
		c5.155,0.22,10.282,0.245,15.306-1.362c12.006-3.84,18.312-12.645,21.165-24.335c1.421-5.82,2.051-11.786,2.048-17.805
		c-0.013-26.166-0.012-52.332,0.018-78.498c0.002-1.786-0.355-3.627,0.396-5.59c7.479,0,14.921,0,22.336,0
		c1.141,1.113,0.793,2.512,0.793,3.805c-0.016,27.499,0.027,54.999-0.115,82.498c-0.07,13.455-2.452,26.407-9.333,38.263
		c-8.687,14.97-21.724,23.356-38.682,25.965c-0.866,0.133-2.069-0.404-2.43,1.003C250.333,816,244.667,816,239,816z"/>
	<path style="fill:#0B0A0A;" d="M0,779c2.134-1.062,3.364,0.836,4.81,1.636c7.991,4.421,16.004,8.692,25.004,10.838
		c7.445,1.775,14.777,2.123,22.085-0.458c18.73-6.615,17.008-25.076,7.211-34.148c-3.054-2.828-6.356-5.376-9.873-7.611
		c-8.129-5.164-16.363-10.167-24.409-15.456c-4.027-2.647-7.513-6.01-11.028-9.348c-17.726-16.83-14.715-52.846,16.357-62.359
		c16.418-5.026,32.511-3.049,48.183,3.418c2.117,0.873,4.412,1.435,6.395,3.083c0.243,7.697-0.751,15.445-0.873,23.577
		c-5.278-2.43-10.146-4.875-15.171-6.937c-7.268-2.982-14.759-5.153-22.767-4.361c-5.068,0.501-9.731,2.001-13.391,5.806
		c-5.194,5.399-5.664,13.614-1.102,19.596c2.452,3.215,5.585,5.643,8.836,8.003c8.084,5.868,17.062,10.287,25.343,15.83
		c6.39,4.277,12.209,9.154,17.32,14.953c15.808,17.935,14.047,52.195-15.072,65.856c-5.161,2.421-10.608,3.767-16.293,4.19
		c-0.906,0.067-2.055-0.387-2.565,0.89c-6.333,0-12.667,0-19,0c-2.107-1.842-4.87-1.353-7.309-1.99
		c-6.989-1.825-14.097-3.251-20.588-7.117c0.268-5.725-1.049-11.257-1.113-16.896C0.978,788.957,1.501,787.604,0,787
		C0,784.333,0,781.667,0,779z"/>
	<path style="fill:#0B0A0A;" d="M657.053,814.971c-10.164-0.17-19.376-3.853-28.755-7.521c-0.911-9.768-1.978-19.323-2.373-29.457
		c2.996,1.708,5.532,3.213,8.121,4.618c8.483,4.601,17.185,8.66,26.883,9.942c7.78,1.028,15.276,0.124,22.086-4.081
		c9.563-5.905,11.26-16.275,6.587-25.68c-1.569-3.158-3.947-5.689-6.741-7.904c-6.535-5.184-13.671-9.436-20.775-13.742
		c-8.835-5.355-17.407-10.971-24.37-18.819c-14.293-16.111-10.737-43.384,7.313-55.258c5.964-3.923,12.54-5.988,19.515-6.959
		c16.174-2.251,31.311,1.291,46.32,8.403c-0.496,7.677-1.073,15.405-0.942,23.652c-4.458-2.069-8.327-3.916-12.238-5.67
		c-8.107-3.636-16.433-6.23-25.503-5.708c-3.754,0.216-7.149,1.311-10.389,3.084c-6.084,3.329-9.997,10.946-6.403,19.326
		c1.546,3.605,4.05,6.443,7.284,8.666c7.258,4.988,14.769,9.567,22.322,14.09c7.858,4.706,15.197,10.036,21.729,16.595
		c20.17,20.254,14.946,59.992-18.429,70.386c-3.167,0.986-6.391,1.736-9.703,2.098c-0.913,0.1-2.056-0.219-2.594,0.965c-1,0-2,0-3,0
		c-0.338-0.993-1.144-1-1.999-1C666.351,815.003,661.702,814.983,657.053,814.971z"/>
	<path style="fill:#0A0909;" d="M661,0c4.102,1.102,6.246,4.31,8.492,7.57c12.442,18.057,24.798,36.177,37.581,53.991
		c4.539,6.325,6.621,13.19,7.887,20.626c2.755,16.183,5.77,32.321,8.542,48.501c0.608,3.548,1.548,7.1,1.491,10.656
		c-5.529,2.029-6.056,2.119-9.12-2.015c-6.131-8.274-12.028-16.723-17.964-25.14c-7.468-10.59-14.728-21.33-22.377-31.787
		c-3.721-5.086-6.141-10.459-7.214-16.674c-3.246-18.79-6.791-37.528-10.081-56.311C657.669,6.184,656.828,2.648,660,0
		C660.333,0,660.667,0,661,0z"/>
	<path style="fill:#747171;" d="M1079.01,815.008c-0.003,0.331-0.006,0.661-0.01,0.992c-5.667,0-11.333,0-17,0
		c-0.017-0.318-0.035-0.637-0.052-0.955C1067.635,815.032,1073.322,815.02,1079.01,815.008z"/>
	<path style="fill:#52504F;" d="M657.053,814.971c4.649,0.012,9.299,0.032,13.948,0.029c0.855,0,1.661,0.007,1.999,1
		c-5.333,0-10.667,0-16,0c0.072-0.226,0.171-0.447,0.205-0.678C657.22,815.214,657.107,815.089,657.053,814.971z"/>
	<path style="fill:#090808;" d="M1079.01,815.008c-5.687,0.012-11.374,0.025-17.061,0.037c-15.428-1.55-28.651-7.976-39.88-18.474
		c-14.415-13.478-22.362-30.118-24.311-49.82c-2.477-25.046,3.996-47.16,21.486-65.39c14.119-14.718,31.723-21.786,52.283-21.578
		c34.109,0.344,59.778,25.245,67.63,52.419c7.732,26.759,4.792,52.013-12.13,74.651c-11.364,15.203-26.711,24.6-45.526,28.02
		C1080.689,815.019,1079.841,814.967,1079.01,815.008z M1116.18,737.796c-0.007-4.337-0.303-8.624-1.091-12.907
		c-3.313-18-18.742-37.325-38.392-39.569c-13.331-1.523-25.085,1.602-35.064,10.495c-10.251,9.134-15.395,20.864-16.975,34.452
		c-1.785,15.352,1.229,29.472,10.29,41.977c16.302,22.498,47.15,23.745,65.401,5.585
		C1111.478,766.756,1116.262,753.256,1116.18,737.796z"/>
	<path style="fill:#070706;" d="M1539.805,722.887c0,7.97,0,15.114,0,22.228c-0.182,0.165-0.303,0.281-0.43,0.388
		c-0.123,0.103-0.253,0.283-0.38,0.283c-16.804,0.013-33.608,0.012-50.7,0.012c0,14.082,0,27.828,0,41.964
		c19.944,0,40.015,0,60.409,0c0,7.773,0,15.169,0,22.869c-28.321,0-56.725,0-85.163,0c-0.922-3.32-1.193-139.638-0.222-146.152
		c28.038,0,56.113,0,84.464,0c0,7.525,0,14.926,0,22.761c-19.823,0-39.552,0-59.527,0c0,12.013,0,23.598,0,35.646
		C1505.276,722.887,1522.336,722.887,1539.805,722.887z"/>
	<path style="fill:#090808;" d="M846.041,687.275c-17.026,0-33.294,0-49.698,0c0-7.746,0-15.037,0-22.682
		c41.507,0,82.858,0,124.469,0c0,7.465,0,14.889,0,22.673c-16.121,0-32.224,0-48.693,0c0,41.267,0,82.179,0,123.378
		c-8.764,0-17.167,0-26.078,0C846.041,769.856,846.041,728.995,846.041,687.275z"/>
	<path style="fill:#0A0909;" d="M545.167,277.003c-3.918,0.432-7.529-0.654-11.209-1.842c-26.001-8.394-52.03-16.7-78.077-24.947
		c-2.465-0.781-4.698-1.677-6.13-3.9c-1.725-2.677-0.865-5.308,2.11-6.287c1.403-0.462,2.899-0.739,4.373-0.872
		c18.395-1.662,36.788-3.345,55.193-4.882c7.125-0.595,14.249-1.124,21.349-1.998c3.867-0.476,7.599,0.541,11.243,1.756
		c24.963,8.324,49.917,16.675,74.889,24.974c1.789,0.595,3.434,1.384,4.642,2.778c2.8,3.23,1.367,7.057-2.476,7.31
		c-4.806,0.317-9.574,1.166-14.371,1.661c-14.062,1.454-28.138,2.776-42.193,4.295C558.061,275.747,551.649,276.767,545.167,277.003
		z"/>
	<path style="fill:#0A0909;" d="M476.319,338.998c4.684-2.942,9.643-4.84,14.433-7.071c17.708-8.248,35.437-16.45,53.135-24.719
		c3.213-1.501,6.438-2.413,10.062-2.252c15.299,0.677,30.605,1.197,45.908,1.789c10.314,0.399,20.628,0.791,30.939,1.25
		c5.349,0.238,7.017,2.037,7.029,7.39c-1.329,1.981-3.556,2.779-5.62,3.788c-18.901,9.239-37.802,18.48-56.722,27.681
		c-4.074,1.981-8.338,2.986-12.966,2.857c-25.298-0.702-50.599-1.265-75.899-1.875c-1.332-0.032-2.673,0.037-3.994-0.097
		C477.4,347.209,475.623,344.841,476.319,338.998z"/>
	<path style="fill:#0A0909;" d="M625.528,222.785c-26.902-4.878-53.89-10.186-80.835-15.72c-3.462-0.711-6.617-2.008-9.585-3.918
		c-24.019-15.452-48.06-30.869-72.093-46.301c-1.109-0.712-2.343-1.24-3.124-2.414c-1.06-1.593-1.822-3.261-0.859-5.103
		c0.949-1.816,2.661-2.546,4.629-2.218c3.758,0.626,7.501,1.355,11.229,2.141c23.51,4.957,47.01,9.965,70.525,14.898
		c5.3,1.112,9.962,3.531,14.428,6.449c20.993,13.718,41.992,27.428,62.971,41.166c1.522,0.996,3.108,2.015,4.32,3.338
		C629.831,218.046,629.37,220.075,625.528,222.785z"/>
	<path style="fill:#080808;" d="M666.885,358.241c-0.374,2.345-1.55,3.904-2.901,5.416c-13.647,15.278-27.289,30.56-40.882,45.886
		c-2.615,2.948-5.679,4.766-9.51,5.936c-22.796,6.958-45.521,14.146-68.262,21.282c-3.185,0.999-6.179,1.185-8.725-1.435
		c-2.014-2.072-2.177-3.719-0.528-6.202c0.733-1.103,1.6-2.13,2.5-3.105c14.34-15.553,28.712-31.076,43.033-46.647
		c2.79-3.033,6.145-5.013,10.052-6.168c21.433-6.339,42.86-12.698,64.299-19.014C661.865,352.453,663.781,353.188,666.885,358.241z"
		/>
	<path style="fill:#0A0909;" d="M647.647,182.643c-3.163,1.079-5.829,0.269-8.407-1.004c-23.619-11.662-47.228-23.344-70.849-35.001
		c-3.642-1.797-6.621-4.394-9.356-7.34c-17.327-18.668-34.673-37.319-51.994-55.992c-1.355-1.461-2.615-3.015-3.842-4.587
		c-1.331-1.706-1.823-3.624-0.511-5.525c1.252-1.814,3.217-1.461,5.018-1.164c2.322,0.383,4.311,1.64,6.369,2.692
		c21.985,11.242,43.927,22.569,65.978,33.68c6.611,3.331,12.324,7.445,17.319,13.041c15.963,17.879,32.304,35.42,48.514,53.078
		C648.01,176.834,649.836,179.158,647.647,182.643z"/>
	<path style="fill:#080808;" d="M624.163,507.98c-4.44,0.095-7.141-3.386-5.854-7.73c1.078-3.64,2.521-7.173,3.812-10.75
		c6.12-16.951,12.3-33.881,18.318-50.869c1.162-3.279,2.986-5.845,5.699-7.915c16.515-12.603,33.015-25.224,49.525-37.833
		c0.658-0.502,1.373-0.929,2.034-1.429c2.273-1.72,4.579-1.775,6.888-0.119c2.339,1.678,2.901,3.67,1.748,7.063
		c-4.896,14.404-9.843,28.791-14.79,43.177c-1.773,5.157-3.614,10.292-5.395,15.446c-1.224,3.542-3.255,6.376-6.273,8.726
		c-16.919,13.171-33.743,26.464-50.595,39.721C627.715,506.7,626.273,508.165,624.163,507.98z"/>
	<path style="fill:#0A0909;" d="M681.593,154.684c-2.524,2.253-5.137,1.58-7.514-0.341c-4.399-3.555-8.688-7.246-12.99-10.92
		c-15.44-13.187-30.837-26.423-46.318-39.561c-3.474-2.948-6.423-6.234-8.518-10.284c-10.734-20.746-21.496-41.479-32.193-62.244
		c-1.334-2.589-3.26-5.165-1.638-8.494c2.802-1.705,5.425-0.801,7.776,0.956c3.059,2.286,6.02,4.719,8.899,7.23
		c17.183,14.99,34.323,30.029,51.496,45.03c3.544,3.095,6.456,6.604,8.614,10.847c10.36,20.376,20.831,40.695,31.286,61.023
		C681.57,150.021,682.665,152.062,681.593,154.684z"/>
	<path style="fill:#0A0909;" d="M720.25,551.9c-5.784-0.04-7.211-1.209-7.368-6.39c-0.653-21.475-1.183-42.954-1.89-64.427
		c-0.148-4.504,0.994-8.483,3.246-12.298c8.857-15,17.659-30.032,26.502-45.04c1.348-2.287,2.76-4.539,4.226-6.752
		c1.125-1.697,2.832-2.38,4.782-1.905c2.003,0.489,3.747,1.562,4.252,3.74c0.373,1.61,0.572,3.288,0.616,4.941
		c0.533,20.313,0.999,40.628,1.543,60.942c0.11,4.104-0.902,7.746-2.965,11.342c-9.491,16.544-18.802,33.192-28.177,49.803
		C723.795,548.018,722.743,550.309,720.25,551.9z"/>
	<path style="fill:#0B0A0A;" d="M827.036,498.988c-0.827,5.756-1.633,11.515-2.487,17.267c-1.854,12.486-3.739,24.968-5.598,37.454
		c-0.416,2.794-0.704,5.609-1.178,8.393c-0.536,3.146-1.805,4.518-4.21,4.846c-2.72,0.371-4.365-0.486-5.625-3.804
		c-3.704-9.75-7.233-19.568-10.784-29.376c-3.946-10.899-7.75-21.851-11.805-32.709c-1.514-4.055-1.741-8.139-1.118-12.265
		c2.879-19.05,5.86-38.084,8.855-57.115c0.434-2.757,0.652-5.849,4.263-6.525c2.531-0.474,5.007,1.531,6.353,5.263
		c7.413,20.56,14.791,41.133,22.12,61.723C826.596,494.314,827.309,496.576,827.036,498.988z"/>
	<path style="fill:#0B0A0A;" d="M771.407,143.077c-4.975,1.23-7.267,0.076-9.056-4.669c-2.51-6.656-4.857-13.374-7.227-20.082
		c-4.462-12.63-8.585-25.391-13.46-37.858c-2.412-6.168-2.839-11.999-1.611-18.405c2.903-15.141,5.397-30.359,8.069-45.544
		c0.287-1.631,0.628-3.254,0.992-4.87c0.79-3.508,3.098-4.443,6.266-2.65c1.865,1.055,2.883,2.698,3.564,4.62
		c7.347,20.733,14.631,41.489,22.067,62.19c1.932,5.377,0.402,10.542-0.418,15.721c-2.412,15.234-5.09,30.426-7.589,45.647
		C772.677,139.159,772.145,141.031,771.407,143.077z"/>
	<path style="fill:#0B0A0A;" d="M901.757,552.749c-4.225,1.992-5.264,1.947-7.859-1.301c-2.903-3.634-5.517-7.499-8.25-11.269
		c-9.371-12.925-18.594-25.96-28.177-38.724c-3.911-5.209-6.255-10.777-7.364-17.142c-3.16-18.142-6.564-36.242-9.848-54.363
		c-0.296-1.635-0.612-3.304-0.581-4.951c0.06-3.182,2.584-4.739,5.54-3.545c1.941,0.784,3.161,2.395,4.332,4.023
		c12.421,17.282,24.776,34.612,37.293,51.823c3.06,4.208,4.179,8.938,5.072,13.852c3.234,17.792,6.518,35.575,9.719,53.373
		C902.102,547.118,902.637,549.766,901.757,552.749z"/>
	<path style="fill:#0A0909;" d="M839.945,40.039c5.289,1.653,5.929,2.307,6.144,7.24c0.679,15.625,1.28,31.252,1.906,46.879
		c0.06,1.496-0.147,3.044,0.163,4.483c1.469,6.839-0.831,12.622-4.415,18.297c-7.969,12.618-15.702,25.385-23.543,38.083
		c-1.31,2.122-2.483,4.538-5.72,3.606c-2.77-0.797-4.342-3.015-4.464-6.428c-0.686-19.289-1.292-38.581-2.064-57.866
		c-0.161-4.018,0.949-7.422,3.07-10.761c8.092-12.74,16.062-25.557,24.072-38.349C836.326,43.254,837.422,41.169,839.945,40.039z"/>
	<path style="fill:#0B0A0A;" d="M967.299,517.763c-3.446-1.167-5.718-3.428-8.15-5.408c-14.96-12.178-29.864-24.425-44.823-36.604
		c-2.631-2.142-4.701-4.665-6.221-7.678c-9.546-18.919-19.117-37.825-28.639-56.756c-2.391-4.753-2.148-5.503,1.973-7.987
		c2.576,0.345,4.508,1.925,6.427,3.517c16,13.272,31.997,26.549,47.993,39.827c2.59,2.15,4.612,4.72,6.131,7.751
		c8.829,17.616,17.717,35.203,26.568,52.808c0.668,1.328,1.272,2.696,1.79,4.089C971.709,514.98,971.355,515.704,967.299,517.763z"
		/>
	<path style="fill:#0B0A0A;" d="M1017.609,461.838c-2.598,0.671-4.597-0.152-6.566-1.057c-17.308-7.955-34.604-15.937-51.924-23.865
		c-3.536-1.619-6.541-3.819-9.131-6.748c-13.13-14.847-26.339-29.624-39.509-44.435c-1.105-1.243-2.187-2.513-3.185-3.842
		c-1.394-1.857-1.847-3.861-0.543-6.202c2.361-1.338,4.685-0.651,6.993,0.44c5.393,2.549,10.781,5.111,16.177,7.653
		c11.987,5.645,23.956,11.329,35.979,16.897c4.604,2.132,8.622,4.956,11.955,8.778c12.917,14.809,25.86,29.596,38.756,44.423
		C1019.729,457.465,1019.702,457.802,1017.609,461.838z"/>
	<path style="fill:#0A0909;" d="M922.983,98.034c-0.191,0.612-0.482,1.556-0.782,2.497c-4.981,15.612-10.011,31.209-14.904,46.848
		c-0.994,3.175-2.695,5.587-5.377,7.51c-13.244,9.496-26.429,19.074-39.667,28.578c-3.324,2.386-5.881,2.338-8.002,0.048
		c-2.016-2.176-1.355-4.534-0.538-6.997c3.335-10.057,6.589-20.141,9.869-30.217c1.843-5.662,3.828-11.284,5.468-17.005
		c1.117-3.898,3.317-6.902,6.526-9.127c12.974-8.998,26.016-17.897,39.025-26.845c1.741-1.197,3.483-1.967,5.484-0.579
		C921.811,93.943,923.035,95.422,922.983,98.034z"/>
	<path style="fill:#0C0B0B;" d="M923.201,338.072c5.827-0.403,11.134,1.284,16.507,2.163c14.569,2.384,29.073,5.165,43.619,7.701
		c2.841,0.495,5.496,1.397,7.827,2.999c16.706,11.489,33.392,23.008,50.028,34.598c3.742,2.607,3.93,3.751,2.277,8
		c-3.464,1.256-6.879-0.227-10.236-0.72c-16.094-2.362-32.136-5.078-48.216-7.535c-3.055-0.467-5.756-1.528-8.248-3.225
		c-17.444-11.874-34.885-23.753-52.302-35.668C920.68,343.803,920.416,341.979,923.201,338.072z"/>
	<path style="fill:#0A0909;" d="M980.964,158.204c2.187,1.529,3.147,3.537,3.305,6.318c-5.479,6.63-11.092,13.404-16.684,20.196
		c-4.438,5.39-8.91,10.755-13.252,16.222c-2.581,3.249-5.741,5.217-9.782,6.37c-17.022,4.859-34.214,9.059-51.637,13.638
		c-0.668-0.289-1.664-0.542-2.455-1.091c-3.302-2.293-3.78-4.795-1.23-7.956c4.176-5.176,8.532-10.209,12.838-15.28
		c5.49-6.466,11.105-12.828,16.473-19.393c3.283-4.016,7.186-6.661,12.278-7.869c15.135-3.59,30.226-7.366,45.335-11.065
		C977.792,157.893,979.436,157.898,980.964,158.204z"/>
	<path style="fill:#0C0B0B;" d="M923.326,297.813c1.231-1.517,2.687-1.661,4.208-1.851c10.216-1.278,20.427-2.594,30.633-3.952
		c5.76-0.767,11.515-1.579,17.255-2.479c5.683-0.891,11.124-0.565,16.613,1.535c15.903,6.085,31.916,11.885,47.88,17.811
		c1.392,0.517,2.834,0.992,4.096,1.75c2.727,1.637,3.05,2.846,2.111,6.973c-5.947,1.598-12.188,2.323-18.37,3.297
		c-10.161,1.6-20.362,2.948-30.524,4.547c-5.332,0.839-10.381,0.772-15.626-1.153c-16.455-6.04-33.06-11.67-49.599-17.481
		c-1.716-0.603-3.441-1.231-5.055-2.056C924.235,303.368,922.316,301.428,923.326,297.813z"/>
	<path style="fill:#0B0A0A;" d="M911.288,254.319c16.284-8.468,32.293-16.808,48.32-25.115c4.097-2.124,8.478-1.169,12.742-0.869
		c11.777,0.829,23.545,1.801,35.315,2.731c4.31,0.341,8.625,0.646,12.923,1.107c4.147,0.444,5.157,1.924,5.327,7.597
		c-3.044,1.683-6.21,3.448-9.39,5.187c-10.471,5.725-20.995,11.356-31.398,17.201c-4.206,2.363-8.472,3.356-13.316,3.023
		c-17.758-1.223-35.533-2.21-53.301-3.291C913.44,261.58,912.753,260.89,911.288,254.319z"/>
</g>
</svg>
