<?xml version="1.0" encoding="iso-8859-1"?>
<!-- Generator: Adobe Illustrator 27.0.0, SVG Export Plug-In . SVG Version: 6.00 Build 0)  -->
<svg version="1.1" id="Layer_1" xmlns="http://www.w3.org/2000/svg" xmlns:xlink="http://www.w3.org/1999/xlink" x="0px" y="0px"
	 viewBox="0 0 1572.096 240" style="enable-background:new 0 0 1572.096 240;" xml:space="preserve">
<g>
	<path style="fill:#080707;" d="M64.089,0.818C75.968,1.472,86.93,4.685,96.462,12.123c9.184,7.167,13.909,16.823,15.396,28.075
		c1.399,10.589,0.884,21.285,0.856,31.942c-0.001,0.459-0.262,0.918-0.46,1.569c-12.449,0-24.863,0-37.192,0
		c-0.983-1.742-0.568-3.443-0.595-5.079c-0.111-6.661,0.06-13.335-0.286-19.983c-0.445-8.55-6.253-14.46-14.74-15.496
		c-4.419-0.54-8.657,0.294-12.577,2.267c-4.132,2.081-6.641,5.573-6.934,10.242c-0.406,6.485-0.433,12.999,0.076,19.477
		c0.383,4.866,3.007,8.752,6.495,12.007c6.818,6.364,13.706,12.653,20.569,18.97c9.19,8.459,18.531,16.762,27.536,25.413
		c9.047,8.692,15.58,18.979,17.912,31.543c0.484,2.609,0.833,5.278,0.884,7.926c0.288,14.786,1.941,29.696-1.392,44.28
		c-3.943,17.25-15.145,27.913-32.129,32.544c-2.874,0.784-5.81,1.409-8.84,1.29c-0.79-0.031-1.695-0.166-2.042,0.89
		c-0.667,0-1.333,0-2,0c-4.201-1.767-8.485-1.181-12.77-0.428c-0.099,0.017-0.154,0.28-0.23,0.428c-1,0-2,0-3,0
		c-0.168-0.788-0.744-0.98-1.446-0.995c-6.377-0.132-12.405-1.977-18.214-4.298c-15.751-6.293-26.373-17.124-29.788-34.305
		C1.133,198.298,2.133,195.712,0,194c0-0.333,0-0.667,0-1c1.815-0.71,0.956-2.263,0.969-3.429c0.109-10.12,0.134-20.24,0.183-30.36
		c12.404,0,24.808,0,37.021,0c0.818,2.174,0.499,3.851,0.522,5.493c0.115,8.491,0.012,16.99,0.319,25.474
		c0.328,9.072,5.185,15.285,12.924,16.613c3.419,0.586,6.983,0.567,10.433-0.132c9.253-1.875,11.875-4.98,12.815-14.372
		c0.649-6.487,0.41-12.977,0.401-19.464c-0.015-10.481-3.719-19.467-11.44-26.654c-6.459-6.011-13.027-11.906-19.484-17.918
		c-8.771-8.167-17.726-16.157-26.154-24.667C9.545,94.53,3.476,83.716,2.119,70.807c-1.011-9.617-0.708-19.302-0.456-28.953
		c0.411-15.729,9.961-30.938,27.841-36.831C37.123,2.511,44.89,1.001,52.91,0.814C56.637,1.091,60.363,1.091,64.089,0.818z"/>
	<path style="fill:#878484;" d="M0,159c0.384,0.07,0.768,0.14,1.152,0.21c-0.05,10.12-0.074,20.241-0.183,30.36
		C0.956,190.737,1.815,192.29,0,193C0,181.667,0,170.333,0,159z"/>
	<path style="fill:#464343;" d="M54,240c0.076-0.148,0.131-0.411,0.23-0.428c4.285-0.753,8.569-1.339,12.77,0.428
		C62.667,240,58.333,240,54,240z"/>
	<path style="fill:#AAA7A7;" d="M52.91,0.814C52.93,0.541,52.96,0.27,53,0c3.667,0,7.333,0,11,0
		c0.032,0.272,0.062,0.545,0.089,0.818C60.363,1.091,56.637,1.091,52.91,0.814z"/>
	<path style="fill:#0B0A09;" d="M821.025,236.6c-12.136,0-23.758,0-36.088,0c-8.998-58.132-17.998-116.274-26.999-174.415
		c-0.334,0.002-0.669,0.005-1.003,0.007c0,1.961-0.033,3.922,0.009,5.881c0.046,2.165,0.068,4.337,0.263,6.491
		c1.005,11.116,1.504,22.244,1.485,33.412c-0.069,40.994-0.023,81.989-0.042,122.984c-0.001,1.788,0.326,3.639-0.502,5.567
		c-12.377,0-24.656,0-36.966,0c-0.098-0.106-0.214-0.221-0.318-0.346c-0.105-0.126-0.285-0.263-0.285-0.395
		c-0.086-76.314-0.161-152.628-0.225-228.942c-0.001-0.803-0.22-1.671,0.595-2.613c19.576,0,39.345,0,59.508,0
		c7.269,49.775,14.547,99.606,21.824,149.437c0.341,0.023,0.682,0.045,1.023,0.068c7.8-49.761,14.841-99.641,22.594-149.551
		c20.055,0,39.819,0,59.816,0c0,77.424,0,154.673,0,232.249c-12.429,0-24.822,0-37.311,0c-0.846-1.574-0.429-3.264-0.43-4.873
		c-0.037-46.494-0.125-92.987,0.017-139.481c0.027-8.641,0.999-17.279,1.539-25.918c0.087-1.396,0.724-2.825-0.548-4.223
		c-3.872,19.257-6.563,38.693-9.753,58.041c-3.188,19.334-6.122,38.71-9.138,58.072C827.055,197.54,824.053,217.033,821.025,236.6z"
		/>
	<path style="fill:#0A0909;" d="M1571.881,4.051c0.042,4.497,0.12,8.994,0.121,13.491c0.007,71.157,0.004,142.314,0.008,213.47
		c0,1.665,0.057,3.33,0.087,4.995c-0.402,0.634-1.022,0.75-1.711,0.75c-12.817-0.004-25.634-0.003-39.086-0.003
		c-13.072-45.576-26.138-91.129-39.46-137.577c-1.139,2.146-0.886,3.419-0.798,4.594c3.217,43.085,0.987,86.238,1.629,129.355
		c0.017,1.125,0.339,2.339-0.652,3.581c-12.255,0-24.668,0-37.366,0c0-77.559,0-154.937,0-232.513c13.95,0,27.723,0,41.872,0
		c12.823,43.516,25.661,87.087,38.5,130.658c0.319-0.059,0.639-0.117,0.958-0.176c-0.439-5.857-0.873-11.714-1.319-17.571
		c-0.189-2.487-0.579-4.972-0.582-7.458c-0.038-34.485-0.025-68.969-0.021-103.454c0-0.492,0.052-0.984,0.118-2.143
		C1546.731,4.051,1559.306,4.051,1571.881,4.051z"/>
	<path style="fill:#050505;" d="M1057.276,236.235c0-77.189,0-154.399,0-231.632c0.568-0.793,1.45-0.593,2.247-0.593
		c24.316-0.007,48.635-0.277,72.945,0.088c18.155,0.272,32.699,11.013,37.876,27.745c1.734,5.605,2.462,11.391,2.474,17.2
		c0.091,45.633,0.14,91.266,0.023,136.899c-0.021,8.314-1.283,16.534-4.65,24.296c-6.319,14.568-17.252,23.181-32.95,25.672
		c-3.948,0.626-7.919,0.889-11.932,0.876c-20.318-0.064-40.637-0.019-60.955-0.05
		C1060.734,236.733,1059.045,237.138,1057.276,236.235z M1095.465,205.004c6.14,0,12.088-0.103,18.03,0.037
		c3.759,0.089,7.296-0.837,10.61-2.284c4.602-2.01,7.859-5.44,9.01-10.57c1.132-5.044,1.824-10.136,1.824-15.305
		c0-39.454-0.03-78.908-0.002-118.362c0.002-3.027-0.433-5.995-1.024-8.908c-1.531-7.542-7.287-12.415-15.107-12.705
		c-6.65-0.246-13.313-0.141-19.971-0.138c-1.1,0.001-2.345-0.411-3.37,0.759C1095.465,93.133,1095.465,148.83,1095.465,205.004z"/>
	<path style="fill:#070606;" d="M1195.234,236.489c0-77.589,0-154.848,0-232.007c1.273-0.764,2.454-0.468,3.578-0.468
		c23.5-0.019,47-0.098,70.499,0.026c10.11,0.053,19.241,3.142,27.045,9.823c8.442,7.227,12.532,16.61,13.558,27.415
		c0.788,8.295,0.858,16.633,0.847,24.972c-0.047,36.333-0.024,72.666-0.018,108.999c0.002,9.83-0.028,19.688-2.814,29.209
		c-4.287,14.65-13.233,25.109-28.098,29.863c-4.767,1.524-9.715,2.375-14.704,2.395c-22.666,0.089-45.333,0.039-67.999,0.028
		C1196.65,236.743,1196.17,236.619,1195.234,236.489z M1233.277,36.796c0,56.282,0,112.13,0,168.205
		c5.919,0,11.559-0.093,17.194,0.034c3.558,0.08,6.903-0.646,10.199-1.853c5.58-2.043,9.019-5.931,10.382-11.73
		c1.307-5.557,1.457-11.22,1.467-16.863c0.067-36.636,0.049-73.272,0.016-109.908c-0.004-3.992-0.202-7.989-0.458-11.974
		c-0.653-10.15-8.332-16.097-16.442-15.94C1248.312,36.908,1240.984,36.796,1233.277,36.796z"/>
	<path style="fill:#080707;" d="M948.026,4.161c15.699,0,30.991,0,46.806,0c14.085,77.225,28.182,154.515,42.356,232.23
		c-13.078,0-25.774,0-38.911,0c-2.171-14.026-4.344-28.062-6.542-42.264c-13.432,0-26.7,0-40.318,0
		c-2.231,14.08-4.455,28.114-6.714,42.366c-13.172,0-26.104,0-39.64,0C919.399,158.967,933.705,81.606,948.026,4.161z
		 M956.062,160.823c10.316,0,20.549,0,31.263,0c-5.133-30.673-10.217-61.044-15.3-91.416c-0.232,0.021-0.464,0.042-0.697,0.063
		C966.255,99.834,961.18,130.198,956.062,160.823z"/>
	<path style="fill:#080707;" d="M461.535,236.496c-15.423,0-30.202,0-45.197,0c-12.643-77.484-25.249-154.748-37.902-232.295
		c13.638,0,26.743,0,40.16,0c6.719,52.075,13.428,104.067,20.136,156.06c0.296-0.016,0.591-0.032,0.887-0.048
		c6.811-51.89,13.622-103.78,20.468-155.934c13.183,0,26.275,0,40.103,0C487.315,81.63,474.448,158.928,461.535,236.496z"/>
	<path style="fill:#0E0D0D;" d="M1370.978,203.646c21.235,0,42.178,0,63.471,0c0,10.886,0,21.432,0,32.313
		c-33.877,0-67.739,0-101.838,0c0-77.222,0-154.281,0-231.652c32.265,0,64.474,0,96.954,0c0,10.587,0,21.166,0,32.234
		c-19.415,0-38.811,0-58.534,0c0,18.677,0,36.87,0,55.425c14.977,0,29.916,0,45.185,0c0,11.088,0,21.82,0,32.923
		c-15.111,0-30.038,0-45.238,0C1370.978,151.151,1370.978,177.047,1370.978,203.646z"/>
	<path style="fill:#0A0909;" d="M265.49,4.178c32.49,0,64.607,0,96.977,0c0,10.757,0,21.334,0,32.442c-19.576,0-38.973,0-58.659,0
		c0,18.614,0,36.701,0,55.346c14.891,0,29.948,0,45.22,0c0,11.156,0,21.758,0,32.913c-15.088,0-30.157,0-45.273,0
		c0,26.48,0,52.407,0,78.852c21.311,0,42.388,0,63.687,0c0,10.948,0,21.38,0,31.788c-3.608,0.936-95.841,1.188-101.952,0.265
		C265.49,158.748,265.49,81.672,265.49,4.178z"/>
	<path style="fill:#060505;" d="M519.951,4.213c32.448,0,64.518,0,96.789,0c0,10.795,0,21.378,0,32.415c-19.548,0-38.947,0-58.603,0
		c0,18.545,0,36.641,0,55.232c14.888,0,29.948,0,45.334,0c0,11.199,0,21.906,0,32.946c-15.104,0-30.034,0-45.278,0
		c0,26.362,0,52.394,0,78.901c21.157,0,42.221,0,63.482,0c0,11.041,0,21.608,0,32.375c-33.86,0-67.47,0-101.112,0
		C519.393,232.119,518.825,32.995,519.951,4.213z"/>
	<path style="fill:#080707;" d="M167.574,236.012c0-66.459,0-132.417,0-198.92c-13.558,0-26.937,0-40.582,0
		c0-11.137,0-21.738,0-32.393c3.242-0.902,109.735-1.261,118.631-0.321c0,10.55,0,21.129,0,32.216c-13.162,0-26.233,0-39.838,0
		c0,33.601,0,66.697,0,99.793c0,33.118,0,66.235,0,99.624C192.936,236.012,180.539,236.012,167.574,236.012z"/>
</g>
</svg>
