<?xml version="1.0" encoding="iso-8859-1"?>
<!-- Generator: Adobe Illustrator 27.0.0, SVG Export Plug-In . SVG Version: 6.00 Build 0)  -->
<svg version="1.1" id="Layer_1" xmlns="http://www.w3.org/2000/svg" xmlns:xlink="http://www.w3.org/1999/xlink" x="0px" y="0px"
	 viewBox="0 0 1499 432.207" style="enable-background:new 0 0 1499 432.207;" xml:space="preserve">
<g>
	<path style="fill:#2C327E;" d="M0,314.207c4.395,1.059,8.873-0.181,13.423,0.263c1.954,3.291,2.381,6.984,3.491,10.408
		c5.126,15.811,12.399,30.437,23.152,43.225c13.571,16.137,30.889,25.413,51.702,28.286c26.087,3.601,48.222-4.685,66.87-22.747
		c10.672-10.336,16.221-23.42,18.22-37.957c1.739-12.647,1.088-25.225-2.91-37.463c-4.635-14.187-13.342-25.545-24.745-34.942
		c-11.751-9.684-25.051-16.909-38.467-23.922c-17.087-8.932-34.32-17.597-50.134-28.754c-10.957-7.73-20.838-16.58-28.938-27.323
		c-10.559-14.004-16.476-29.817-18.749-47.155c-2.094-15.974-1.848-31.815,1.638-47.572C22.468,52.773,44.29,29.22,78.121,16.2
		c15.55-5.984,31.739-8.503,48.302-8.834c24.26-0.485,48.062,3.331,71.769,7.937c0.852,0.165,1.545,0.582,2.557,1.668
		c2.785,23.028,5.63,46.564,8.497,70.273c-4.524,1.154-8.437-0.052-12.049,0.567c-1.621-1.883-1.808-3.682-2.204-5.462
		c-3.267-14.699-9.078-28.071-20.059-38.827c-8.606-8.429-19.117-12.945-30.601-15.776c-14.381-3.545-28.689-3.435-42.88,0.704
		c-16.993,4.957-28.862,15.906-36.364,31.814c-5.997,12.715-9.174,26.022-8.192,40.112c1.418,20.348,8.481,38.013,24.209,51.855
		c12.869,11.325,27.427,19.908,42.44,27.862c17.028,9.022,34.539,17.148,50.92,27.365c13.79,8.601,26.46,18.515,36.212,31.734
		c10.826,14.676,16.818,31.126,18.508,49.287c1.662,17.851-0.329,35.241-6.403,52.037c-9.013,24.922-26.242,42.812-49.018,55.732
		c-20.297,11.513-42.089,17.718-65.392,19.184c-32.414,2.04-63.062-4.839-92.744-17.263c-2.98-1.247-4.205-3.165-4.624-6.334
		c-2.464-18.623-5.126-37.22-7.71-55.827c-0.709-5.104-1.362-10.216-2.084-15.318c-0.131-0.926,0.007-2.059-1.214-2.485
		C0,316.874,0,315.54,0,314.207z"/>
	<path style="fill:#2C317E;" d="M1499,29.207c-1.107,0.253-0.944,1.15-1.005,1.95c-0.703,9.119-1.423,18.237-2.116,27.357
		c-0.163,2.149-0.369,4.282-1.237,6.536c-4.055,0.559-8.139,0.458-12.122,0.041c-1.39-1.935-1.277-3.97-1.375-5.935
		c-0.232-4.668-0.961-9.252-2.085-13.785c-3.121-12.583-9.131-16.584-21.153-17.086c-7.81-0.326-15.662-0.226-23.471,0.166
		c-7.647,0.384-15.277,0.67-22.929,0.407c-1.305-0.045-2.656-0.252-4.037,0.386c-0.957,1.633-0.441,3.506-0.442,5.277
		c-0.034,52.987-0.023,105.975-0.034,158.962c-0.001,6.497-0.1,12.994-0.126,19.491c-0.007,1.831,0.027,3.665,0.141,5.492
		c0.559,8.944,4.531,13.889,13.093,16.793c6.411,2.174,13.104,2.028,19.69,2.789c1.629,0.188,3.348-0.15,5.32,1.06
		c1.462,3.292,1.03,7.001,0.487,10.502c-0.842,0.849-1.634,1.154-2.468,1.174c-2.331,0.055-4.667,0.108-6.995,0.021
		c-36.538-1.372-73.086-0.779-109.88-0.004c0-4.378,0-8.14,0-12.085c4.165-1.93,8.562-0.998,12.782-1.307
		c4.327-0.317,8.594-0.719,12.778-1.941c7.265-2.123,11.703-6.54,12.512-14.361c0.308-2.981,0.676-5.939,0.675-8.94
		c-0.005-59.319-0.004-118.639-0.004-177.958c0-1.479,0-2.958,0-4.023c-0.807-1.184-1.606-1.386-2.458-1.327
		c-11.325,0.794-22.605-0.623-33.914-0.678c-5.677-0.028-11.324,0.382-16.923,1.119c-9,1.185-15.769,5.727-19.873,14.045
		c-2.591,5.252-4.131,10.845-5.786,16.41c-0.517,1.737-0.781,3.556-1.986,5.255c-3.835,0.731-7.739,0.251-12.33,0.276
		c2.184-21.613,4.317-42.723,6.449-63.833c1.826-0.083,3.652-0.237,5.479-0.238c71.781-0.011,143.562-0.008,215.344-0.007
		C1499,10.54,1499,19.874,1499,29.207z"/>
	<path style="fill:#2F357F;" d="M328,432.207c0.613-2.542-0.655-4.884-0.827-7.271c0.871-1.265,2.158-0.792,3.257-0.967
		c6.598-1.048,8.406-2.868,9.764-9.404c0.616-2.963,0.803-5.924,0.801-8.928c-0.011-19.32-0.006-38.64-0.006-57.96
		c0-1.818,0-3.636,0-5.465c3.152-1.55,5.965-0.89,8.364-0.337c1.418,1.552,1.282,2.91,1.299,4.236
		c0.174,13.982,0.093,27.974,0.633,41.942c0.289,7.487-0.176,14.936-0.053,22.396c0.15,9.024-2.452,16.558-10.232,21.758
		C336.667,432.207,332.333,432.207,328,432.207z"/>
	<path style="fill:#B7B4D0;" d="M1499,1.207c-71.781-0.001-143.562-0.004-215.344,0.007c-1.826,0-3.652,0.155-5.479,0.238
		c-0.059-0.415-0.119-0.83-0.178-1.245c72.333,0,144.667-0.007,217,0.053C1496.311,0.261,1498.072-0.749,1499,1.207z"/>
	<path style="fill:#2D337E;" d="M739.827,24.733c0-2.531-0.025-5.014,0.01-7.495c0.019-1.319-0.226-2.669,0.332-3.947
		c1.106-1.086,2.521-0.794,3.792-0.688c15.465,1.294,30.953,0.606,46.431,0.549c2.813-0.01,5.639-0.45,8.432-0.871
		c5.326-0.804,9.287,1.203,12.631,5.304c6.944,8.517,14.027,16.922,21.142,25.297c23.819,28.039,47.646,56.073,71.533,84.054
		c15.565,18.233,31.235,36.378,46.885,54.538c0.826,0.958,1.376,2.308,2.904,2.57c0.857-1.579,0.418-3.261,0.419-4.869
		c0.029-40.655,0.027-81.311,0.017-121.966c-0.001-4.161-0.288-8.279-1.035-12.408c-2.403-13.278-10.217-17.38-20.739-18.582
		c-5.403-0.617-10.857-0.799-16.744-1.21c0.065-4.05-0.272-7.958,0.342-12.367c30.439,0.999,60.777,1.073,91.21-0.124
		c0.761,4.477,0.47,8.241,0.349,11.887c-1.735,1.624-3.66,0.889-5.405,0.944c-4.832,0.154-9.629,0.527-14.314,1.78
		c-8.303,2.22-12.366,7.004-13.11,15.487c-0.465,5.301-0.771,10.604-0.767,15.939c0.047,63.816,0.034,127.631,0.013,191.447
		c-0.001,1.976,0.335,3.99-0.316,5.912c-7.382,2.531-11.818,1.674-16.404-4.159c-20.285-25.804-42.534-49.928-63.79-74.901
		c-23.521-27.634-47.305-55.045-70.976-82.551c-7.686-8.932-15.377-17.859-23.286-27.042c-1.001,1.48-0.734,2.791-0.735,4.009
		c-0.014,43.655-0.039,87.309,0.024,130.964c0.008,5.311,0.175,10.635,1.232,15.896c1.806,8.988,6.819,14.821,15.818,17.332
		c6.981,1.947,14.155,1.754,21.235,2.583c0.643,0.075,1.281,0.187,2.151,0.316c0.95,4.154,0.63,8.171,0.102,12.533
		c-33.479-1.161-66.519-1.229-99.798,0.014c-1.053-4.278-0.581-8.313-0.334-12.594c5.698-0.525,11.159-0.804,16.466-2.133
		c13.213-3.308,19.615-10.616,21.627-24.15c1.203-8.093,1.536-16.241,1.578-24.362c0.18-34.489,0.045-68.98,0.095-103.471
		c0.016-10.823,0.54-21.645,0.134-32.47c-0.075-1.988-0.29-3.975-0.534-5.951c-0.922-7.476-5.255-12.393-11.876-15.466
		c-6.742-3.13-13.934-4.256-21.304-4.454C743.608,25.808,741.916,26.028,739.827,24.733z"/>
	<path style="fill:#2D327E;" d="M604.61,160.505c0.539-3.653-0.588-7.667,0.64-12.041c34.577,1.26,68.795,1.844,103.532,0.028
		c1.101,4.272,0.332,8.374,0.485,12.528c-4.332,0.365-8.128,0.647-11.913,1.024c-1.48,0.147-2.961,0.421-4.402,0.791
		c-7.916,2.035-11.479,5.804-11.662,13.997c-0.226,10.142-0.542,20.309,0.249,30.46c0.245,3.148,0.191,6.333,0.073,9.494
		c-0.216,5.792,1.604,10.451,6.888,13.383c0.423,0.235,0.746,0.65,0.966,0.846c0.198,0.517,0.403,0.82,0.421,1.135
		c0.439,7.899,0.3,8.048-7.506,10.09c-17.361,4.543-34.793,8.815-52.536,11.552c-18.618,2.872-37.342,4.519-56.184,2.355
		c-32.39-3.719-61.265-15.322-84.167-39.164c-17.791-18.521-28.484-40.763-31.626-66.372c-2.994-24.397-0.776-48.25,9.594-70.762
		c13.73-29.807,36.374-50.427,66.805-62.473c15.578-6.167,31.804-9.372,48.555-10.408c18.246-1.128,36.212,0.841,54.115,3.849
		c13.766,2.313,27.476,4.954,41.222,7.386c1.816,0.321,3.528,0.802,5.656,1.701c1.245,18.759,2.494,37.584,3.734,56.279
		c-7.323,2.97-11.495,1.448-14.145-5.379c-3.281-8.456-7.925-16.09-13.27-23.331c-8.447-11.444-19.801-18.749-33.509-21.98
		c-20.53-4.84-40.96-4.065-60.949,2.958c-26.952,9.469-44.651,28.09-53.635,55.08c-5.239,15.739-8.143,31.932-7.807,48.529
		c0.478,23.552,6.428,45.7,18.789,65.871c13.557,22.123,33.672,34.982,58.791,40.22c17.356,3.619,34.684,3.777,51.747-1.895
		c1.259-0.419,2.524-0.824,3.77-1.28c2.415-0.885,3.778-2.449,3.806-5.206c0.154-14.81,1.551-29.595,0.852-44.422
		c-0.055-1.163-0.089-2.337-0.275-3.483c-2.404-14.77-9.058-17.889-22.328-19.612c-2.961-0.384-5.983-0.325-8.979-0.392
		C608.572,161.819,606.74,161.886,604.61,160.505z"/>
	<path style="fill:#2E337F;" d="M1251.954,196.56c0.38,3.462-6.384,29.824-12.792,50.748c-0.463,1.512-1.024,2.786-2.456,3.692
		c-65.617-1.411-131.325-1.229-197.207-0.152c-0.645-4.483-0.398-8.38-0.164-12.428c4.641-0.908,9.121-0.78,13.553-1.154
		c4.835-0.408,9.511-1.41,13.883-3.658c5.033-2.588,7.595-6.805,8.283-12.261c0.249-1.976,0.289-3.988,0.29-5.984
		c0.015-53.667,0.026-107.333-0.015-161c-0.003-4.479-0.125-8.953-1.007-13.409c-1.554-7.856-6.494-12.068-13.981-13.731
		c-4.893-1.087-9.871-1.408-14.879-1.384c-1.974,0.01-4.029,0.364-6.009-1.105c-0.613-3.59-0.288-7.37-0.236-10.864
		c1.272-1.75,2.771-1.469,4.285-1.407c25.797,1.054,51.611,1.041,77.42,1.058c26.493,0.018,52.988-0.174,79.478-0.587
		c6.477-0.101,12.971-0.185,19.452-0.476c1.482-0.066,2.998-0.456,4.906,1.245c0.956,16.252,1.946,33.085,2.918,49.607
		c-2.253,1.742-4.378,1.045-6.277,1.369c-3.607,0.615-4.881-0.47-5.258-4.164c-0.374-3.673-1.44-7.172-2.437-10.663
		c-3.27-11.457-11.212-17.646-22.761-19.619c-4.441-0.759-8.909-1.181-13.4-1.351c-18.314-0.694-36.636-0.463-54.957-0.498
		c-1.5-0.003-3.006-0.057-4.609,1.232c0,29.495,0,59.264,0,88.996c0.314,0.238,0.568,0.6,0.833,0.607
		c7.8,0.211,15.566,1.253,23.411,0.497c4.294-0.414,8.706-0.537,12.977-0.04c6.368,0.741,12.637,0.201,18.91-0.482
		c8.479-0.923,14.085-5.355,16.216-13.88c1.096-4.387,1.717-8.804,1.808-13.313c0.037-1.812-0.319-3.694,1.025-5.577
		c3.709-0.888,7.651-0.156,12.244-0.408c-1.354,26.573-0.544,52.772-0.258,79.38c-4.342,0-8.223,0-12.012,0
		c-1.156-2.163-0.807-4.202-0.999-6.155c-0.211-2.149-0.238-4.329-0.624-6.445c-2.027-11.115-6.594-15.241-17.875-16.633
		c-9.297-1.147-18.589-0.885-27.897-0.316c-8.487,0.519-16.985,0.404-25.482,0.314c-0.644-0.007-1.321-0.184-2.01,0.424
		c-0.623,1.262-0.563,2.775-0.58,4.226c-0.243,21.317-0.444,42.634-0.662,63.951c-0.036,3.524,0.527,7.004,1.337,10.382
		c1.961,8.174,7.55,13.149,15.256,15.744c5.514,1.857,11.218,3.076,17.081,3.331c12.961,0.564,25.92,0.948,38.883,0.003
		c5.316-0.387,10.639-0.863,15.791-2.203c10.625-2.763,18.787-9.01,24.635-18.273c2.93-4.641,5.883-9.272,8.62-14.026
		c1.312-2.28,2.828-3.455,5.572-3.209C1246.774,196.742,1249.404,196.56,1251.954,196.56z"/>
	<path style="fill:#2E347F;" d="M404.143,238.288c0.73,4.22,0.59,8.219,0.108,12.598c-37.944-1.139-75.486-1.244-113.464,0.053
		c-0.739-4.204-0.459-8.254-0.298-12.467c4.463-0.892,8.768-0.851,13.04-1.176c4.326-0.329,8.542-1.157,12.597-2.813
		c5.987-2.445,9.122-6.978,9.934-13.232c0.256-1.973,0.282-3.986,0.283-5.981c0.014-51.478,0.02-102.956-0.003-154.434
		c-0.002-5.16-0.105-10.324-0.327-15.478c-0.458-10.624-5.179-15.995-15.647-18.196c-5.56-1.169-11.213-1.3-16.838-1.769
		c-0.978-0.082-1.995,0.078-3.073-0.81c0-3.446,0-7.047,0-10.795c1.122-1.924,3.063-1.317,4.837-1.226
		c21.461,1.108,42.94,0.703,64.413,0.77c13.48,0.042,26.958-0.076,40.424-0.783c1.312-0.069,2.665-0.438,4.092,0.921
		c0.887,3.423,0.267,7.207,0.347,11.03c-2.729,2.133-5.85,1.013-8.656,1.248c-4.982,0.417-9.932,0.734-14.708,2.351
		c-8.511,2.88-12.174,7.614-12.296,16.639c-0.199,14.822-0.243,29.647-0.254,44.47c-0.031,40.483-0.018,80.965,0.006,121.448
		c0.002,3.327,0.176,6.656,0.343,9.98c0.313,6.223,3.372,10.697,8.942,13.358c4.08,1.949,8.442,2.994,12.966,3.319
		C395.2,237.619,399.487,237.943,404.143,238.288z"/>
	<path style="fill:#323781;" d="M1448.824,294.095c-12.86,1.035-1122.002,0.547-1126.008-0.479
		c-1.398-1.361-1.109-2.969-0.587-4.702c1.819-1.093,3.864-0.562,5.802-0.563c72.323-0.031,144.645-0.026,216.968-0.026
		c298.788,0,597.577,0,896.365,0c1.333,0,2.67-0.06,3.999,0.012C1449.201,288.547,1449.872,289.626,1448.824,294.095z"/>
	<path style="fill:#303580;" d="M707.963,342.633c-9.512,22.684-18.088,45.455-27.289,67.488c-2.616,0.443-3.058-0.924-3.669-2.089
		c-2.784-5.307-4.702-10.978-6.905-16.527c-4.287-10.797-8.49-21.627-12.742-32.437c-0.288-0.732-0.299-1.633-1.471-2.275
		c-1.403,1.533-2.056,3.551-2.826,5.457c-6.027,14.926-12.033,29.859-17.994,44.811c-0.772,1.936-1.29,3.93-4.527,2.907
		c-8.935-22.474-17.973-45.209-27.106-68.182c3.616-0.757,6.579-0.391,10.046-0.353c6.009,14.924,12.048,29.923,18.273,45.384
		c2.388-2.641,3.073-5.538,4.15-8.165c4.466-10.894,8.811-21.839,13.141-32.788c1.025-2.591,1.984-4.759,5.518-4.616
		c3.522,0.142,6.44,0.324,7.998,4.313c5.009,12.82,10.262,25.545,15.428,38.303c0.433,1.069,0.92,2.116,1.637,3.759
		c6.29-15.703,12.378-30.902,18.374-45.87C704.577,340.951,704.577,340.951,707.963,342.633z"/>
	<path style="fill:#2E347F;" d="M1265.578,380.349c-1.516,9.944,0.029,19.582-0.825,29.328c-3.267,0.697-6.311,0.769-9.438,0.153
		c-0.328-0.702-0.868-1.304-0.842-1.88c0.98-21.922-0.235-43.877,0.649-65.567c2.092-1.673,4.18-0.962,6.105-1.048
		c5.987-0.268,11.963-0.265,17.903,0.849c8.121,1.523,14.318,7.23,15.753,14.714c1.548,8.071-1.74,15.323-9.046,19.969
		c-0.276,0.176-0.507,0.424-1,0.843c4.59,4.74,8.748,9.826,12.233,15.422c3.396,5.454,6.748,10.936,10.377,16.825
		c-3.939,0-7.234,0-10.835,0c-3.245-2.625-5.168-6.545-7.417-10.185c-2.797-4.527-5.42-9.157-8.882-13.237
		C1276.634,382.202,1271.997,380.16,1265.578,380.349z M1265.461,371.082c4.392,0.461,8.479,0.454,12.465-0.909
		c4.261-1.458,6.927-4.859,6.994-9.297c0.063-4.206-2.068-7.234-5.812-9.071c-4.321-2.12-8.827-2.164-13.807-1.206
		C1264.872,357.522,1264.556,364.216,1265.461,371.082z"/>
	<path style="fill:#363A82;" d="M463.756,409.925c-1.042-5.377-0.719-63.993,0.313-67.88c3.47-0.899,32.056-1.114,37.702-0.278
		c1.731,2.717,0.848,5.368-0.193,8.404c-9.008,1.639-18.173,0.039-27.535,1.018c0,6.265,0,12.351,0,19.119
		c8.66,0.618,17.596-0.163,26.416,0.417c1.571,3.021,0.797,5.751,0.594,8.898c-4.64,0.901-9.105,0.366-13.521,0.458
		c-4.304,0.09-8.611,0.02-12.785,0.02c-1.271,3.699-1.528,12.919-0.608,20.495c9.244,1.365,18.712,0.056,28.282,0.776
		c1.985,2.689,1.41,5.513,0.596,8.552C489.819,409.925,476.756,409.925,463.756,409.925z"/>
	<path style="fill:#343881;" d="M1144.913,380.136c-9.197,0-17.954,0-27.061,0c-1.202,6.896,0.12,13.482-0.964,20.413
		c10.047,1.423,19.701,0.008,29.213,0.926c2.428,2.642,1.119,5.412,0.881,8.431c-13.236,0-26.271,0-39.418,0
		c0-22.849,0-45.374,0-68.24c12.844,0,25.243,0,37.872,0c1.188,2.524,0.307,5.112,0.554,7.692c-4.695,2.604-9.439,1.263-13.98,1.472
		c-4.622,0.213-9.262,0.047-14.247,0.047c-1.307,6.613-0.807,12.829-0.115,19.66c6.216,0,12.336-0.058,18.454,0.026
		c2.783,0.038,5.682-0.621,8.463,1.061C1145.422,374.111,1144.942,376.755,1144.913,380.136z"/>
	<path style="fill:#2F357F;" d="M851.579,350.026c-9.653,1.046-18.97-0.498-28.315,0.979c0,6.53,0,12.465,0,18.86
		c4.504,1.411,9.163,0.486,13.717,0.655c4.453,0.165,8.916,0.036,13.373,0.036c0.996,2.983,0.628,5.418,0.512,7.563
		c-1.291,2.276-3.221,1.957-5.032,1.959c-5.663,0.006-11.326-0.029-16.988,0.022c-1.633,0.014-3.332-0.388-4.878,0.473
		c-0.972,3.482-1.142,14.386-0.206,20.387c9.247,0.597,18.69-0.048,28.14,0.362c1.474,2.857,1.333,5.475-0.178,8.488
		c-12.672,0-25.387,0-38.467,0c0-22.572,0-44.953,0-67.232c3.317-1.474,31.813-1.893,38.409-0.616
		C852.674,344.467,852.024,347.01,851.579,350.026z"/>
	<path style="fill:#313680;" d="M1409.956,405.286c0-3.93,0-7.401,0-11.202c2.564,0.506,3.948,2.446,5.756,3.658
		c4.848,3.25,9.93,5.376,15.922,3.659c7.339-2.103,9.368-8.84,4.421-14.709c-2.635-3.127-6.143-5.047-9.652-6.941
		c-4.118-2.222-8.031-4.713-11.239-8.166c-2.393-2.577-4.304-5.429-5.359-8.864c-2.4-7.814,0.29-15.373,7.551-19.084
		c9.422-4.816,18.81-4.309,27.98,1.197c0.466,3.8,0.502,7.361-0.045,11.536c-1.744-1.132-3.069-2.015-4.417-2.862
		c-4.359-2.739-9.091-3.93-14.248-3.554c-3.288,0.24-5.755,1.723-7.128,4.666c-1.41,3.021-0.588,5.806,1.42,8.355
		c1.79,2.272,4.109,3.833,6.566,5.265c4.014,2.34,8.261,4.281,12.029,7.042c7.963,5.836,10.909,15.697,7.282,24.847
		c-2.089,5.269-5.83,8.789-11.483,10.099C1426.223,412.336,1417.891,410.71,1409.956,405.286z"/>
	<path style="fill:#363A82;" d="M971.332,400.704c9.545,1.151,19.344,0.025,29.266,0.619c1.825,2.694,1.05,5.332,0.009,8.444
		c-13.06,0-26.125,0-39.296,0c-1.319-0.972-1.201-2.487-1.185-3.996c0.181-16.647,0.371-33.294,0.503-49.941
		c0.024-2.99-0.225-5.98-0.3-8.972c-0.046-1.818-0.152-3.676,1.47-5.399c2.409-0.071,5.029-0.671,7.567,0.605
		c1.756,1.781,1.299,4.034,1.303,6.149c0.024,15.495,0.003,30.991,0.026,46.486C970.697,396.501,970.402,398.35,971.332,400.704z"/>
</g>
</svg>
