<?xml version="1.0" encoding="iso-8859-1"?>
<!-- Generator: Adobe Illustrator 27.0.0, SVG Export Plug-In . SVG Version: 6.00 Build 0)  -->
<svg version="1.1" id="Layer_1" xmlns="http://www.w3.org/2000/svg" xmlns:xlink="http://www.w3.org/1999/xlink" x="0px" y="0px"
	 viewBox="0 0 1503.959 384" style="enable-background:new 0 0 1503.959 384;" xml:space="preserve">
<g>
	<path style="fill:#636566;" d="M877.959,0c2.702,2.046,6.027,1.195,9.008,1.695c18.16,3.044,33.621,11.215,46.69,23.95
		c12.019,11.712,19.339,26.015,22.282,42.542c1.957,10.988,2.945,22.066,2.973,33.225c0.039,15.656,0.103,31.313,0.021,46.97
		c-0.072,13.654-1.275,27.181-4.706,40.472c-4.322,16.744-13.815,30.001-26.915,40.95c-12.163,10.167-26.139,16.475-41.748,18.641
		c-26.396,3.662-51.318,0.148-73.348-16.345c-19.021-14.24-29.533-33.091-32.415-56.653c-2.417-19.754-1.67-39.547-1.898-59.334
		c-0.136-11.816-0.088-23.639,1.114-35.419c1.603-15.707,5.12-30.811,14.557-43.884c12.657-17.534,29.444-28.994,50.62-33.836
		c3.883-0.888,7.756-1.816,11.755-2.041c0.548-0.031,0.834-0.446,1.01-0.932c1,0,2,0,3,0c0.268,0.689,0.772,1.019,1.51,1.018
		c4.659-0.003,9.318-0.004,13.977-0.002c0.738,0,1.243-0.329,1.513-1.016C877.292,0,877.626,0,877.959,0z M817.95,123.347
		c-0.124,16.766,0.136,32.215,1.977,47.616c1.885,15.771,8.865,28.025,23.441,35.247c14.426,7.148,29.329,7.995,44.468,2.683
		c10.026-3.518,18.19-9.692,23.635-18.94c4.212-7.153,5.398-15.275,6.452-23.354c1.683-12.898,1.316-25.907,1.659-38.861
		c0.312-11.794-0.251-23.627-0.844-35.422c-0.349-6.944-1.193-13.884-2.772-20.704c-3.601-15.553-13.137-25.822-28.007-31.096
		c-12.804-4.541-25.828-4.473-38.6,0.012c-13.243,4.65-22.967,13.219-27.09,27.089c-1.896,6.378-2.742,12.989-3.275,19.612
		C817.994,99.677,817.758,112.154,817.95,123.347z"/>
	<path style="fill:#EF6324;" d="M1503.959,126c-5.768,5.54-10.635,11.89-15.89,17.882c-21.523,24.539-42.855,49.244-64.249,73.896
		c-6.33,7.293-12.629,14.613-18.948,21.916c-2.747,3.174-5.711,5.998-9.875,7.338c-7.791,2.507-16.658-0.096-21.522-6.474
		c-5.029-6.594-5.424-15.502-0.948-22.403c0.812-1.253,1.713-2.465,2.694-3.589c23.995-27.468,48.011-54.917,72.004-82.387
		c1.855-2.124,3.562-4.378,5.47-6.736c-6.067-7.031-12.023-13.975-18.023-20.88c-18.899-21.748-37.814-43.483-56.724-65.221
		c-1.744-2.005-3.666-3.842-5.141-6.093c-5.533-8.444-4.084-19.395,3.472-25.687c7.967-6.634,18.908-6.355,26.152,1.222
		c6.438,6.733,12.379,13.945,18.489,20.988c16.806,19.374,33.579,38.776,50.378,58.155c10.035,11.576,20.089,23.134,30.155,34.682
		c0.755,0.866,1.667,1.596,2.507,2.389C1503.959,125.333,1503.959,125.667,1503.959,126z"/>
	<path style="fill:#868586;" d="M876.959,0c-0.27,0.687-0.775,1.016-1.513,1.016c-4.659-0.002-9.318-0.001-13.977,0.002
		c-0.738,0.001-1.242-0.329-1.51-1.018C865.626,0,871.292,0,876.959,0z"/>
	<path style="fill:#868586;" d="M1080.959,384c-0.004-0.331-0.007-0.663-0.011-0.994c4.331-0.005,8.662-0.01,12.993-0.016
		c0.006,0.337,0.012,0.673,0.018,1.01C1089.626,384,1085.292,384,1080.959,384z"/>
	<path style="fill:#626466;" d="M591.216,5c1.115,0,1.92,0,2.724,0c31.82,0.018,63.644-0.252,95.459,0.159
		c19.645,0.254,37.158,7.117,51.486,20.721c11.188,10.623,17.539,24.031,19.978,39.274c1.924,12.026,1.234,23.812-2.793,35.393
		c-6.425,18.48-19.322,30.624-36.956,38.218c-1.504,0.648-3.134,1.022-5.021,2.532c17.477,34.663,35.766,69.005,53.603,104.273
		c-16.785,0-32.82,0-49.298,0c-15.787-32.383-31.635-64.891-47.576-97.59c-12.975,0-25.913,0-39.35,0c0,32.459,0,64.859,0,97.584
		c-14.245,0-28,0-41.801,0C590.654,241.819,590.159,21.563,591.216,5z M633.618,42.145c0,23.941,0,47.291,0,70.736
		c17.344,0,34.325,0.018,51.306-0.032c1.474-0.004,2.941-0.498,4.42-0.697c17.938-2.416,29.031-17.213,29.931-31.736
		c1.195-19.278-11.442-35.11-30.691-37.543c-6.655-0.841-13.285-0.67-19.931-0.709C657.174,42.096,645.692,42.145,633.618,42.145z"
		/>
	<path style="fill:#636566;" d="M1190.126,245.894c0-80.184,0-159.65,0-239.016c1.222-1.231,2.633-0.747,3.898-0.749
		c26.998-0.029,53.997-0.135,80.994,0.027c14.037,0.084,28.032,1.461,40.78,7.824c25.047,12.502,40.192,32.446,44.301,60.505
		c2.524,17.235,1.85,34.559,2.086,51.857c0.155,11.328,0.095,22.674-0.374,33.991c-0.572,13.82-1.975,27.67-8.312,40.213
		c-12.054,23.858-30.849,39.143-57.719,43.585c-6.572,1.086-13.16,1.778-19.828,1.773c-26.665-0.023-53.33-0.01-79.995-0.01
		C1194.156,245.894,1192.356,245.894,1190.126,245.894z M1232.257,207.748c15.468,0,30.444,0.118,45.416-0.079
		c3.944-0.052,7.939-0.648,11.803-1.713c15.01-4.14,24.894-13.378,28.692-28.732c1.804-7.295,2.605-14.708,2.786-22.197
		c0.438-18.154,0.227-36.309,0.054-54.464c-0.068-7.164-0.836-14.247-1.867-21.332c-2.457-16.896-11.983-27.61-28.089-32.736
		c-3.503-1.115-7.117-1.647-10.764-1.881c-15.929-1.026-31.862-0.18-48.03-0.51C1232.257,98.839,1232.257,153.059,1232.257,207.748z
		"/>
	<path style="fill:#EF6224;" d="M393.077,5.208c14.136,0,27.888,0,41.858,0c0,39.869,0,79.489,0,119.36
		c2.053-0.386,2.855-1.9,3.867-3.065c27.198-31.307,54.382-62.626,81.559-93.952c4.799-5.532,9.547-11.109,14.334-16.652
		c6.409-7.423,14.554-9.836,22.776-6.648c11.58,4.491,17.658,19.437,6.969,31.749c-18.234,21.002-36.602,41.889-54.88,62.854
		c-7.651,8.775-15.218,17.625-22.907,26.538c4.252,5.802,9.069,10.864,13.637,16.129c19.65,22.643,39.351,45.241,58.983,67.899
		c2.501,2.887,5.418,5.403,7.486,8.686c5.31,8.43,3.813,19.042-3.655,25.274c-7.732,6.453-18.806,6.363-25.858-0.819
		c-5.937-6.046-11.281-12.676-16.853-19.078c-19.025-21.862-38.043-43.732-57.047-65.613c-7.536-8.677-15.023-17.396-22.545-26.086
		c-1.613-1.864-3.28-3.682-5.575-6.253c0,40.543,0,80.06,0,119.946c-14.197,0-28.059,0-42.148,0
		C393.077,165.435,393.077,85.509,393.077,5.208z"/>
	<path style="fill:#EF6324;" d="M0,218.552c9.148-9.282,17.889-18.151,26.585-26.974c1.157,0.132,1.898,0.817,2.661,1.462
		c12.829,10.835,28.01,15.557,44.423,16.933c7.455,0.625,14.919,1.01,22.418,0.216c7.702-0.815,15.055-2.675,21.811-6.495
		c11.85-6.702,15.762-18.281,14.759-29.933c-0.198-2.305-0.638-4.624-1.27-6.85c-2.765-9.733-9.076-16.083-18.769-18.91
		c-7.356-2.145-14.996-2.851-22.536-4.053c-14.577-2.325-29.424-3.545-43.301-9.019c-22.363-8.822-35.434-24.909-37.992-49.23
		c-1.11-10.549-0.89-20.887,1.908-31.148c5.105-18.719,16.451-32.392,33.556-41.293c13.205-6.871,27.39-9.88,42.225-10.361
		c17.111-0.555,33.908,0.927,50.046,7.035c11.129,4.212,21.159,10.221,29.409,18.396c-8.604,8.845-17.041,17.518-25.339,26.048
		c-2.125-0.321-3.193-1.718-4.505-2.7c-9.307-6.962-19.924-10.414-31.324-11.836c-8.634-1.076-17.272-1.413-25.872,0.123
		c-6.971,1.245-13.407,3.858-18.886,8.461c-10.479,8.803-13.702,23.698-8.581,36.369c2.465,6.1,7.244,10.251,13.074,13.192
		c7.091,3.576,14.818,4.739,22.532,5.984c13.767,2.222,27.727,3.405,41.221,7.115c16.156,4.442,29.436,12.962,37.884,27.923
		c4.32,7.651,6.404,16.02,7.322,24.658c1.313,12.337,1.018,24.578-3.274,36.44c-5.312,14.678-14.972,25.771-28.19,33.799
		c-12.865,7.814-27.015,11.771-41.911,13.243c-20.575,2.033-40.894,0.654-60.747-5.266C24.279,237.392,11.117,229.525,0,218.552z"/>
	<path style="fill:#636566;" d="M1177.425,245.707c-14.669,0-29.458,0-44.46,0c-23.66-61.313-47.294-122.558-71.327-184.837
		c-24.165,62.292-47.906,123.491-71.693,184.811c-14.965,0-29.737,0-44.418,0c-0.902-1.124-0.179-1.967,0.17-2.857
		c23.917-61.023,47.842-122.042,71.737-183.073c4.354-11.12,8.57-22.294,12.885-33.43c4.09-10.556,10.855-18.464,22.47-20.541
		c12.367-2.211,24.268-1.511,33.788,8.35c2.969,3.075,4.647,6.898,6.154,10.756c8.754,22.409,17.429,44.849,26.093,67.293
		c12.608,32.66,25.191,65.33,37.771,98.001c6.857,17.808,13.687,35.626,20.524,53.441
		C1177.352,244.229,1177.772,244.804,1177.425,245.707z"/>
	<path style="fill:#EF6425;" d="M374.995,208.357c0,12.655,0,24.77,0,37.198c-37.499,0-74.899,0-112.649,0
		c0-79.95,0-159.965,0-240.27c13.852,0,27.764,0,42.234,0c0,67.491,0,135.012,0,203.073
		C328.352,208.357,351.577,208.357,374.995,208.357z"/>
	<path style="fill:#EF6223;" d="M234.65,245.072c-13.936,0-27.678,0-41.733,0c0-79.913,0-159.637,0-239.407
		c3.317-0.903,32.645-1.21,41.733-0.364C234.65,85.135,234.65,164.995,234.65,245.072z"/>
	<path style="fill:#696A6B;" d="M669.44,382.819c-2.506,0.26-4.628,0.366-7.119-0.109c0-24.536,0-48.966,0-73.396
		c-0.341-0.097-0.682-0.193-1.023-0.29c-9.331,19.99-17.82,40.368-27.122,60.64c-2.215,0.495-4.505,0.21-7.268,0.166
		c-9.043-19.943-18.115-39.949-27.186-59.954c-0.38,0.085-0.761,0.169-1.142,0.254c0,24.171,0,48.341,0,72.493
		c-2.685,0.613-4.818,0.378-7.295,0.298c0-31.099,0-62.133,0-93.133c1.09-0.898,2.302-0.464,3.424-0.521
		c0.983-0.05,1.974,0.078,3.438,0.151c10.62,23.459,21.281,47.008,32.372,71.509c5.987-12.237,10.801-24.092,16.045-35.741
		c5.312-11.802,10.44-23.688,15.652-35.547c2.426-0.618,4.685-0.493,7.222-0.14C669.44,320.584,669.44,351.487,669.44,382.819z"/>
	<path style="fill:#6A6B6D;" d="M855.484,289.235c2.311,0,4.44-0.052,6.565,0.009c10.141,0.29,20.307-0.68,30.43,0.666
		c15.2,2.021,22.969,11.117,25.502,24.032c0.84,4.286,1.091,8.578,1.043,12.903c-0.116,10.304,0.743,20.644-1.116,30.886
		c-0.746,4.109-1.894,8.078-4.013,11.712c-5.056,8.672-13.158,12.828-22.649,13.367c-11.775,0.668-23.617,0.16-35.761,0.16
		C855.484,351.872,855.484,320.968,855.484,289.235z M862.974,376.486c2.195,0,3.856,0.002,5.517,0
		c6.332-0.007,12.669,0.121,18.994-0.096c2.285-0.078,4.627-0.185,6.907-0.851c9.865-2.882,15.29-9.536,16.581-20.716
		c1.436-12.444,1.531-24.9,0.085-37.355c-1.536-13.227-10.437-21.346-23.744-21.531c-6.831-0.095-13.664-0.043-20.496,0.003
		c-1.276,0.009-2.676-0.44-3.843,0.646C862.974,323,862.974,349.434,862.974,376.486z"/>
	<path style="fill:#666769;" d="M1203.149,289.622c2.278-0.552,4.085-0.396,6.476-0.167c11.308,30.889,22.689,61.978,34.116,93.193
		c-2.502,0.687-4.804,0.175-7.281,0.429c-3.582-7.421-5.084-15.496-8.635-22.769c-14.381,0-28.513,0-43.042,0
		c-2.711,7.422-5.425,14.854-8.188,22.42c-2.496,0.438-4.928,0.378-7.891,0.001C1180.281,351.435,1191.753,320.424,1203.149,289.622
		z M1225.893,353.856c-6.504-18.272-12.829-36.042-19.447-54.634c-6.634,18.657-12.982,36.511-19.426,54.634
		C1200.109,353.856,1212.728,353.856,1225.893,353.856z"/>
	<path style="fill:#666769;" d="M793.737,289.559c0.594,2.085,0.455,3.89,0.114,6.103c-16.051,0-32.138,0-48.111,0
		c-1.075,3.866-1.387,27.751-0.543,37.001c13.686,0,27.427,0,41.055,0c1.136,2.129,0.611,3.931,0.61,6.128
		c-13.813,0-27.552,0-41.641,0c0,12.788,0,25.153,0,37.949c16.123,0,32.201,0,48.342,0c0.879,2.107,0.489,3.889,0.446,5.962
		c-18.658,0-37.207,0-55.987,0c0-31.037,0-61.94,0-93.143C756.555,289.559,774.963,289.559,793.737,289.559z"/>
	<path style="fill:#696A6B;" d="M1093.941,382.99c-4.331,0.005-8.662,0.01-12.993,0.016c-14.527-2.731-23.673-12.515-25.089-26.921
		c-1.37-13.949-1.323-27.91,0.166-41.838c0.97-9.076,6.044-15.667,13.573-20.459c17.208-10.952,44.73-4.611,49.205,21.527
		c-0.854,1.16-2.108,0.603-3.193,0.685c-1.154,0.087-2.319,0.02-3.67,0.02c-0.928-2.349-1.743-4.651-2.732-6.876
		c-7.438-16.732-29.874-18.469-41.095-5.14c-3.493,4.15-4.794,9.095-5.133,14.292c-0.769,11.779-0.771,23.582-0.029,35.356
		c0.831,13.188,7.435,20.914,19.496,23.112c13.153,2.397,22.953-3.611,27.809-15.076c0.709-1.673,0.586-3.685,2.464-5.271
		c1.672-0.302,3.768-0.338,5.867,0.102C1117.746,369.167,1106.551,381.481,1093.941,382.99z"/>
	<path style="fill:#646667;" d="M1306.853,376.933c16.948,0,33.053,0,49.167,0c0.861,1.992,0.535,3.751,0.435,5.792
		c-18.94,0-37.628,0-56.467,0c0-31.13,0-62.013,0-93.02c2.261-0.716,4.33-0.457,6.865-0.237
		C1306.853,318.601,1306.853,347.469,1306.853,376.933z"/>
	<path style="fill:#666769;" d="M984.072,289.434c2.254-0.099,4.188-0.406,6.454,0.379c0,30.891,0,61.785,0,92.774
		c-1.927-1.004-4.119-0.185-6.454-0.864C984.072,351.188,984.072,320.616,984.072,289.434z"/>
	<path style="fill:#707072;" d="M1388.084,325.941c-10.091,0.065-18.831-8.48-19.025-18.602
		c-0.196-10.232,8.737-19.214,19.03-19.132c10.112,0.08,18.823,8.837,18.788,18.887
		C1406.841,317.204,1398.194,325.876,1388.084,325.941z M1387.943,322.969c8.339-0.46,15.692-5.806,15.595-16.077
		c-0.093-9.816-7.246-15.526-15.514-15.596c-8.145-0.069-15.038,5.774-15.716,15.541
		C1371.724,315.252,1379.479,322.959,1387.943,322.969z"/>
	<path style="fill:#6A6B6D;" d="M1384.907,309.37c0,2.438,0,4.729,0,6.575c-0.817,1.352-1.62,1.198-2.699,0.908
		c0-6.501,0-13.068,0-19.969c2.376,0,4.506,0.013,6.635-0.003c2.808-0.021,4.928,1.281,5.884,3.813
		c0.929,2.46,0.624,4.935-1.651,6.779c-0.498,0.403-0.955,0.856-1.409,1.267c0.333,3.041,2.873,4.993,3.337,7.828
		c-1.714,1.182-2.827,0.413-3.663-1.079c-0.891-1.591-1.71-3.223-2.565-4.836C1388.069,309.316,1387.035,308.684,1384.907,309.37z
		 M1385.067,299.422c-0.25,2.357-0.444,4.424,0.2,6.671c2.236,0.136,4.337,0.593,6.127-0.864c0.904-1.495,0.956-2.889,0.109-4.368
		C1389.806,299.413,1387.824,298.89,1385.067,299.422z"/>
</g>
</svg>
