<?xml version="1.0" encoding="iso-8859-1"?>
<!-- Generator: Adobe Illustrator 27.0.0, SVG Export Plug-In . SVG Version: 6.00 Build 0)  -->
<svg version="1.1" id="Layer_1" xmlns="http://www.w3.org/2000/svg" xmlns:xlink="http://www.w3.org/1999/xlink" x="0px" y="0px"
	 viewBox="0 0 1620 780.329" style="enable-background:new 0 0 1620 780.329;" xml:space="preserve">
<g>
	<path style="fill:#AC3D66;" d="M732,0c3.71,2.507,8.103,3.413,12.148,5.133c17.997,7.65,34.061,18.153,47.009,32.859
		c12.074,13.715,19.845,29.616,22.98,47.836c3.645,21.189,0.44,41.625-5.506,61.88c-1.915,6.523-4.282,12.894-6.829,19.193
		c-0.607,1.502-0.907,3.242-2.633,4.401c-7.122-2.822-14.053-6.329-20.869-10.108c-13.624-7.554-26.059-16.684-36.573-28.201
		c-14.126-15.474-23.135-33.447-25.869-54.425c-2.583-19.817-0.092-39.074,5.957-57.962C724.032,13.681,726.595,6.865,729,0
		C730,0,731,0,732,0z"/>
	<path style="fill:#1F1D1D;" d="M0,675c1.36-0.433,2.603-1.067,4.148-1.061c20.475,0.08,40.95,0.077,61.426,0.111
		c0.309,0.001,0.618,0.2,1.146,0.383c2.108,2.091,1.427,4.886,0.92,7.36c-0.434,2.119-2.592,2.187-4.515,2.173
		c-5.993-0.044-11.986-0.016-17.979-0.016c-1.634,0-3.268,0-5.361,0c0,1.79,0,3.235,0,4.681c0,27.302,0,54.604,0,81.905
		c0,1.165,0.017,2.331-0.007,3.496c-0.051,2.45-1.433,3.612-3.768,3.733c-1.328,0.069-2.665,0.061-3.994,0.002
		c-2.407-0.107-3.583-1.532-3.777-3.817c-0.098-1.157-0.023-2.329-0.023-3.495c0-26.802,0-53.605,0-80.407c0-1.82,0-3.641,0-5.446
		c-1.801-1.2-3.681-0.591-5.442-0.618c-5.825-0.091-11.656-0.148-17.478,0.025C3.123,684.074,1.518,683.319,0,682
		C0,679.667,0,677.333,0,675z"/>
	<path style="fill:#262424;" d="M1601.982,780.319c-12.717-1.609-18.171-16.053-10.512-25.561c4.16-5.165,9.789-6.908,16.022-5.418
		c6.031,1.442,10.15,5.381,11.5,11.713c0.163,0.765-0.11,1.698,1.008,1.948c0,1.667,0,3.333,0,5c-0.541,0.054-0.88,0.37-1.049,0.861
		C1616.172,776.943,1610.369,780.544,1601.982,780.319z M1616.064,764.462c-0.065-6.758-5.668-12.666-12.282-12.381
		c-7.895,0.34-12.474,5.867-12.573,12.752c-0.099,6.831,5.64,12.064,12.43,12.27
		C1611.265,777.334,1616.829,770.043,1616.064,764.462z"/>
	<path style="fill:#E52028;" d="M762.961,458.009c0.359,12.589-1.03,24.884-5.777,36.689c-4.895,12.171-13.599,19.947-26.386,22.791
		c-6.886,1.531-13.957,1.125-20.882,0.07c-13.914-2.12-27.102-6.843-39.55-13.173c-35.646-18.126-69.838-38.64-101.003-63.879
		c-13.89-11.249-26.923-23.396-37.33-38.049c-7.374-10.383-13.125-21.523-15.197-34.327c-2.062-12.74,0.104-24.858,5.084-36.533
		c5.601-13.131,13.598-24.795,23.219-35.267c23.537-25.619,51.914-43.998,84.731-55.403c13.365-4.645,27.015-8.283,41.394-8.033
		c15.71,0.274,29.014,6.313,40.673,16.527c7.195,6.304,13.281,13.51,18.141,21.75c0.06,0.566,0.119,1.133,0.179,1.699
		c-1.371,0.362-1.649,1.696-1.967,2.689c-1.354,4.236-3.243,8.267-4.887,12.372c-5.502,13.738-10.077,27.797-14.174,41.97
		c-4.725,16.343-8.961,32.838-12.536,49.5c-2.437,11.361-5.324,22.588-6.888,34.157c-1.283,9.495-1.253,18.776,1.292,27.918
		c2.816,10.116,8.894,17.381,19.288,20.826c3.72,1.233,7.607,0.881,11.091,1.94c6.109,1.857,11.898,0.064,17.661-0.555
		C747.226,462.821,755.138,460.415,762.961,458.009z"/>
	<path style="fill:#D6DD29;" d="M730.257,272.871c-0.06-0.566-0.119-1.133-0.178-1.699c3.394-6.237,6.63-12.566,10.213-18.693
		c8.495-14.527,19.424-26.942,33.359-36.449c15.043-10.263,31.712-15.604,50.05-15.294c1.49,0.025,2.982-0.072,4.474-0.112
		c0.275,0.189,0.577,0.316,0.905,0.38c-0.023,0.332-0.131,0.684-0.058,0.993c3.465,14.663,10.007,27.961,18.085,40.567
		c0.422,0.659,0.94,1.405,2.012,1.295c6.598-5.546,14.03-9.88,21.719-13.78c5.607-2.843,11.305-5.506,16.962-8.25
		c0.285,0.104,0.579,0.175,0.88,0.212c4.041,3.123,8.114,6.207,12.115,9.379c5.979,4.741,11.443,10.018,16.261,15.948
		c-0.01,0.214-0.016,0.428-0.019,0.642c-3.648,1.489-7.373,2.815-10.929,4.497c-10.47,4.951-20.402,10.83-29.785,17.636
		c-9.91,7.188-19.422,14.856-28.257,23.338c-12.93,12.413-24.538,26.001-35.244,40.347c-2.616,3.506-5.674,6.774-7.787,11.132
		c0.876,0.71,1.652,1.336,2.425,1.965c10.267,8.342,21.114,15.814,32.746,22.151c18.672,10.172,38.306,17.431,59.529,19.975
		c0.727,0.087,1.184,0.513,1.493,1.139c-7.975,7.099-17.079,12.528-26.291,17.802c-25.379,14.53-52.375,25.586-79.213,36.998
		c-8.077,3.434-16.141,6.884-24.379,9.908c-2.639,0.969-5.352,1.737-8.031,2.597c-0.838-12.601-1.313-25.221-2.107-37.826
		c-0.794-12.605-2.026-25.163-3.452-37.687c-1.667-14.636-3.916-29.211-6.717-43.696c-3.59-18.563-8.146-36.841-15.236-54.401
		C734.271,280.089,733.083,276.046,730.257,272.871z"/>
	<path style="fill:#8DC141;" d="M917.037,248.01c0.003-0.214,0.009-0.428,0.019-0.642c7.618-2.853,15.419-5.111,23.303-7.078
		c8.873-2.214,17.874-3.606,27-4.34c5.642-0.453,11.265-0.927,16.934-0.832c18.333,0.309,36.457,2.537,54.353,6.376
		c29.091,6.24,57.17,15.86,85.06,26.065c6.354,2.325,12.731,4.59,18.975,6.838c0.157,1.565-0.884,2.041-1.567,2.688
		c-24.557,23.28-50.546,44.82-78.604,63.762c-27.403,18.499-56.544,33.514-88.537,42.474c-18.337,5.135-37.057,7.618-56.112,7.567
		c-4.672-0.013-9.272-0.651-13.881-1.269c1.216-3.475,4.262-5.439,6.751-7.75c9.918-9.209,16.212-20.476,20.512-33.212
		c4.512-13.365,7.123-26.895,6.82-41.037c-0.162-7.598-1.183-14.992-2.9-22.378C931.951,271.42,925.959,259.019,917.037,248.01z"/>
	<path style="fill:#07A79E;" d="M829.079,201.004c-0.328-0.064-0.63-0.191-0.905-0.38c0.118-4.182-0.923-8.254-1.494-12.337
		c-1.459-10.44-0.152-20.499,2.831-30.447c4.331-14.44,12.4-26.755,22.254-37.916c12.915-14.628,27.804-27.141,42.874-39.475
		c12.472-10.208,25.109-20.226,36.946-31.213c5.467-5.074,10.744-10.351,16.337-15.744c2.211,2.692,3.179,5.68,4.347,8.496
		c6.859,16.53,12.94,33.319,17.073,50.782c3.733,15.772,5.759,31.722,4.503,47.888c-1.412,18.184-7.444,34.679-20.337,48.035
		c-9.628,9.974-21.419,16.634-34.38,21.396c-9.636,3.54-19.439,6.65-28.797,10.922c-0.585,0.267-1.103,0.683-1.652,1.029
		c-0.302-0.037-0.595-0.108-0.88-0.212c-6.094-4.9-13.113-8.239-20.151-11.412C855.411,204.901,842.741,200.835,829.079,201.004z"/>
	<path style="fill:#72BA46;" d="M917.037,248.01c8.922,11.009,14.914,23.41,18.127,37.232c1.717,7.387,2.738,14.78,2.9,22.378
		c0.302,14.142-2.308,27.673-6.82,41.037c-4.3,12.736-10.594,24.003-20.512,33.212c-2.489,2.311-5.535,4.275-6.751,7.75
		c-0.917,0.19-1.835,0.38-2.752,0.571c-0.31-0.626-0.767-1.052-1.493-1.139c-21.224-2.544-40.857-9.803-59.529-19.975
		c-11.631-6.336-22.479-13.808-32.746-22.151c-0.773-0.629-1.549-1.255-2.425-1.965c2.113-4.358,5.171-7.626,7.787-11.132
		c10.706-14.346,22.314-27.934,35.244-40.347c8.835-8.482,18.347-16.15,28.257-23.338c9.383-6.806,19.315-12.685,29.785-17.636
		C909.664,250.826,913.389,249.499,917.037,248.01z"/>
	<path style="fill:#B72D2F;" d="M730.257,272.871c2.826,3.175,4.013,7.218,5.546,11.013c7.091,17.56,11.647,35.838,15.236,54.401
		c2.801,14.485,5.05,29.059,6.717,43.696c1.426,12.524,2.659,25.082,3.452,37.687c0.794,12.605,1.269,25.226,2.107,37.826
		c-0.054,0.215-0.172,0.386-0.354,0.513c-7.824,2.407-15.735,4.812-23.824,5.68c-5.763,0.618-11.553,2.412-17.661,0.555
		c-3.484-1.059-7.371-0.707-11.091-1.94c-10.394-3.445-16.472-10.71-19.288-20.826c-2.545-9.142-2.575-18.423-1.292-27.918
		c1.563-11.569,4.451-22.796,6.888-34.157c3.575-16.663,7.811-33.157,12.536-49.5c4.098-14.173,8.673-28.232,14.174-41.97
		c1.644-4.105,3.533-8.136,4.887-12.372C728.608,274.567,728.886,273.234,730.257,272.871z"/>
	<path style="fill:#0D0D0D;" d="M726.366,720.13c-1.385,8.622-2.819,17.237-4.139,25.869c-1.148,7.507-2.16,15.036-3.249,22.552
		c-0.307,2.118-0.561,4.254-1.044,6.334c-0.465,2.005-1.853,3.057-3.98,3.049c-3.833-0.014-7.666-0.04-11.498,0.011
		c-2.125,0.028-3.441-0.959-4.241-3.17c6.051-34.273,12.146-68.791,18.205-103.112c2.656-1.026,4.776-0.645,7.302-0.495
		c10.983,23.61,21.998,47.289,33.459,71.927c11.425-24.554,22.422-48.189,33.367-71.71c2.508-0.636,4.591-0.339,6.789-0.267
		c2.092,5.927,2.533,11.866,3.603,17.654c2.276,12.313,4.34,24.666,6.484,37.004c1.864,10.725,3.698,21.455,5.586,32.176
		c0.826,4.692,1.714,9.374,2.647,14.045c0.886,4.436-0.157,5.847-4.673,5.923c-3.499,0.059-6.999-0.002-10.498,0.015
		c-2.541,0.012-4.072-1.189-4.467-3.707c-1.022-6.518-1.992-13.045-3.022-19.562c-1.184-7.487-2.438-14.964-3.607-22.453
		c-0.626-4.009-1.137-8.036-2.526-12.33c-8.798,19.711-17.597,39.423-26.341,59.013c-2.358,0-4.175,0-6.673,0
		C744.582,759.628,736.282,739.62,726.366,720.13z"/>
	<path style="fill:#0D0D0D;" d="M467.417,743.128c11.35-24.424,22.379-48.157,33.296-71.65c2.386-0.756,4.363-0.481,6.337-0.339
		c1.055,0.951,1.581,2.184,1.808,3.473c1.401,7.948,2.708,15.912,4.101,23.862c1.904,10.861,3.897,21.707,5.779,32.572
		c1.8,10.393,3.497,20.804,5.262,31.204c0.468,2.757,0.895,5.53,1.566,8.24c0.493,1.991,0.389,3.914,0.346,5.586
		c-1.091,1.477-2.266,1.882-3.692,1.869c-3.831-0.034-7.666,0.075-11.494-0.039c-2.991-0.089-4.239-1.249-4.661-4.101
		c-1.715-11.581-3.34-23.175-5.104-34.749c-0.993-6.519-2.192-13.007-3.423-20.241c-9.025,20.263-17.838,40.05-26.636,59.805
		c-2.298,0.627-4.424,0.432-7.066,0.158c-8.704-19.331-17.47-38.801-26.691-59.281c-1.53,4.19-1.59,7.575-2.134,10.829
		c-1.305,7.804-2.505,15.625-3.698,23.447c-0.82,5.376-1.552,10.766-2.338,16.148c-0.167,1.146-0.333,2.298-0.611,3.419
		c-1.071,4.318-1.323,4.529-5.629,4.586c-2.998,0.04-5.997,0-8.996,0.011c-1.51,0.006-3.035,0.11-4.589-1.641
		c-1.327-4.063,0.63-8.512,1.315-12.972c1.649-10.738,3.663-21.42,5.585-32.115c1.864-10.372,3.835-20.724,5.688-31.098
		c1.479-8.277,2.893-16.567,4.233-24.868c0.244-1.511,0.427-2.926,1.746-4.049c1.879-0.317,3.846-0.325,6.29,0.104
		C445.02,694.972,456.124,718.848,467.417,743.128z"/>
	<path style="fill:#131212;" d="M1351.626,776.317c-0.287,0.242-0.624,0.765-1.046,0.846c-5.921,1.147-11.895,0.686-17.838,0.314
		c-1.857-0.116-2.312-2.155-3.053-3.635c-5.489-10.966-10.998-21.921-16.511-32.875c-0.665-1.322-1.066-2.802-2.32-3.963
		c-5.158,0-10.413,0-16.091,0c0,4.011,0,7.8,0,11.588c0,7.83,0.032,15.659-0.012,23.489c-0.027,4.701-0.913,5.599-5.446,5.676
		c-3.164,0.054-6.331-0.02-9.495,0.022c-1.736,0.023-3.315-0.236-4.634-1.909c0-33.761,0-67.713,0-101.611
		c1.132-1.908,2.896-2.043,4.806-2.039c13.827,0.03,27.663-0.302,41.478,0.1c15.749,0.458,27.479,10.88,30.886,24.463
		c3.373,13.448-1.799,26.667-14.399,34.759c-2.069,1.329-4.248,2.486-6.504,3.796c6.422,11.954,12.696,23.624,18.961,35.299
		C1351.336,772.368,1352.653,774.025,1351.626,776.317z M1295.114,720.064c8.525,0,16.52,0.124,24.51-0.036
		c7.607-0.152,13.924-6.959,13.998-14.754c0.073-7.691-5.817-14.088-13.598-14.429c-5.323-0.233-10.664-0.07-15.997-0.079
		c-2.934-0.005-5.868-0.001-8.913-0.001C1295.114,700.748,1295.114,710.175,1295.114,720.064z"/>
	<path style="fill:#131212;" d="M1091.008,728.526c0,14.76,0.008,28.589-0.004,42.418c-0.005,6.078-0.752,6.916-6.936,6.779
		c-4.099-0.091-8.317,0.866-12.127-0.814c-1.523-1.853-1.722-3.786-1.721-5.827c0.019-30.665-0.002-61.33,0.027-91.994
		c0.005-5.664,1.175-6.797,6.639-6.847c3-0.027,6,0.038,8.999-0.02c1.958-0.038,3.614,0.441,5.005,2.543c0,13.09,0,26.57,0,39.998
		c2.071,0.57,2.456-1.16,3.216-2.012c10.744-12.053,21.483-24.114,32.051-36.322c2.603-3.007,5.316-4.691,9.422-4.258
		c3.132,0.331,6.327,0.111,9.492,0.051c2.44-0.046,4.223,0.737,5.046,4.085c-12.718,15.148-26.538,29.96-39.657,45.208
		c0.247,1.838,1.487,2.787,2.42,3.909c11.925,14.338,23.867,28.661,35.801,42.991c0.852,1.023,1.726,2.035,2.495,3.119
		c2.234,3.153,1.037,5.988-2.847,6.171c-4.989,0.234-9.998,0-14.996,0.083c-2.574,0.043-3.865-1.712-5.214-3.381
		c-10.676-13.205-21.321-26.434-31.982-39.65C1094.688,732.961,1093.205,731.193,1091.008,728.526z"/>
	<path style="fill:#131212;" d="M840.013,673.813c6.405-3.47,13.002-1.172,18.974-1.457c1.8,2.754,1.622,4.932,1.622,7.081
		c-0.004,18.162-0.033,36.324,0.013,54.486c0.012,4.63,0.103,9.212,2.236,13.595c3.447,7.082,9.069,10.812,16.718,11.5
		c8.865,0.797,15.886-2.498,20.588-10.192c1.824-2.984,2.983-6.215,2.984-9.815c0.003-8.663,0.118-17.325,0.139-25.988
		c0.026-11.33-0.007-22.661,0.008-33.992c0.009-6.303,0.65-6.949,6.721-6.968c2.999-0.009,6.001,0.079,8.997-0.03
		c2.029-0.074,3.556,0.606,4.966,2.75c0,1.018,0,2.503,0,3.988c-0.001,19.162-0.057,38.324,0.013,57.486
		c0.071,19.517-11.01,34.548-27.446,40.423c-24.791,8.862-50.894-5.658-55.645-30.919c-0.591-3.145-0.881-6.233-0.883-9.387
		c-0.008-19.162-0.005-38.324-0.005-57.486C840.013,677.399,840.013,675.908,840.013,673.813z"/>
	<path style="fill:#131212;" d="M1198.579,733.382c0,8.93,0,17.054,0,25.168c1.325,1.11,2.89,0.661,4.34,0.665
		c12.158,0.036,24.316,0.008,36.474,0.026c5.581,0.008,6.32,0.756,6.369,6.292c0.022,2.498,0.092,5-0.017,7.494
		c-0.16,3.663-1.153,4.662-4.9,4.716c-5.994,0.087-11.991,0.023-17.987,0.023c-12.658,0-25.315,0.011-37.973-0.013
		c-1.792-0.003-3.72,0.46-5.756-1.771c-0.673-0.89-0.513-2.743-0.513-4.564c0-30.978,0.002-61.955-0.007-92.933
		c0-1.669-0.02-3.326,0.727-4.823c1.229-1.575,2.926-1.432,4.597-1.431c18.82,0.007,37.64-0.015,56.459,0.019
		c4.318,0.008,5.247,0.966,5.36,5.253c0.07,2.663,0.076,5.331-0.001,7.993c-0.122,4.178-1.138,5.215-5.436,5.25
		c-8.327,0.068-16.655,0.02-24.982,0.02c-5.463,0-10.926,0-16.666,0c0,8.187,0,15.939,0,24.227c12.674,0,25.43,0,37.929,0
		c1.631,3.577,1.928,10.145,0.984,17.087c-1.546,1.723-3.639,1.286-5.591,1.291c-9.327,0.026-18.653,0.011-27.98,0.01
		C1202.377,733.382,1200.745,733.382,1198.579,733.382z"/>
	<path style="fill:#0D0D0D;" d="M1029.319,700.246c-8.678-7.493-18.076-11.593-29.213-10.094c-7.109,0.957-13.343,3.854-18.45,9.017
		c-12.553,12.695-13.823,30.985-4.566,45.319c5.749,8.902,14.113,13.714,24.799,14.619c10.59,0.897,19.291-3.58,27.464-9.583
		c4.371,3.114,7.461,6.823,10.662,10.368c1.85,2.049,1.54,3.45-0.647,5.553c-7.684,7.389-16.986,11.808-27.399,13.126
		c-18.392,2.328-34.762-2.496-47.594-16.35c-26.778-28.911-15.552-77.33,24.464-89.062c18.258-5.353,35.203-1.988,49.937,10.555
		c3.014,2.566,3.14,3.739,0.515,6.479C1036.194,693.429,1032.989,696.558,1029.319,700.246z"/>
	<path style="fill:#0D0D0D;" d="M606.586,765.623c1.748-5.459,4.374-10.375,8.278-14.208c2.962,0.147,4.567,1.712,6.384,2.802
		c5.543,3.323,11.107,6.593,17.784,7.002c2.807,0.172,5.589,0.102,8.22-1.186c7.311-3.578,8.975-11.633,3.642-17.785
		c-3.806-4.39-8.84-6.927-14.047-9.119c-5.494-2.312-10.928-4.695-15.82-8.158c-5.961-4.22-10.767-9.417-12.92-16.527
		c-4.442-14.669,2.923-29.741,17.326-35.137c14.125-5.291,33.969-2.231,46.24,8.482c0.773,2.32,0.364,4.405-1.215,6.434
		c-1.628,2.092-2.881,4.478-4.519,6.561c-2.079,2.643-3.469,2.856-6.406,1.129c-5.708-3.355-11.435-6.683-18.184-7.396
		c-4.215-0.445-8.168,0.481-11.309,3.505c-4.217,4.062-4.073,9.966,0.248,14.599c2.176,2.333,4.805,4.077,7.668,5.434
		c5.642,2.674,11.353,5.204,16.971,7.927c4.19,2.031,7.96,4.683,11.421,7.856c15.049,13.793,12.007,37.063-6.655,47.131
		C644.731,783.037,618.555,778.993,606.586,765.623z"/>
	<path style="fill:#161515;" d="M156.86,674.093c2.593,0,5.242,0,7.864,0c2.482,1.561,2.038,4.019,2.04,6.302
		c0.013,16.324,0.007,32.647,0.007,48.971c0,13.659,0.024,27.317-0.022,40.976c-0.008,2.409,0.918,5.523-1.853,6.756
		c-3.025,1.346-6.396,1.278-9.769-0.948c0-15.106,0-30.201,0-45.525c-19.877,0-39.277,0-59.077,0c0,15.202,0,30.314,0,45.435
		c-3.629,2.515-7.052,2.062-10.457,0.906c-1.057-3.518-1.847-90.474-0.996-99.496c0.113-1.199,0.391-2.289,1.601-3.293
		c2.715-0.302,5.658-0.326,8.355,0.023c2.025,1.567,1.432,3.534,1.438,5.292c0.041,11.826,0.002,23.653,0.044,35.479
		c0.006,1.622-0.396,3.305,0.428,5.067c19.362,0,38.752,0,58.159,0c0.761-1.749,0.415-3.424,0.42-5.044
		c0.033-11.826,0.005-23.653,0.032-35.479C155.077,677.737,154.574,675.783,156.86,674.093z"/>
	<path style="fill:#131212;" d="M1489.175,755.91c2.535,1.979,5.156,3.487,6.546,6.151c-0.159,2.459-1.927,3.568-3.431,4.824
		c-7.99,6.669-17.281,10.55-27.508,11.803c-18.984,2.326-36.008-2.365-49.974-15.797c-22.658-21.791-21.136-57.72,3.218-77.912
		c21.248-17.617,52.767-18.333,74.179-1.371c1.425,1.129,3.071,2.064,3.339,4.147c-1.735,3.237-3.314,4.81-7.351,7.229
		c-4.305-2.882-8.525-6.026-13.376-8.309c-24.521-11.539-57.359,1.163-62.491,32.435c-2.056,12.53,1.55,23.989,9.974,33.774
		c13.983,16.242,38.917,20.15,57.487,8.289C1482.679,759.325,1485.247,756.792,1489.175,755.91z"/>
	<path style="fill:#131212;" d="M206.615,684.456c0,11.759,0,23.515,0,35.18c1.778,0.993,3.476,0.572,5.099,0.578
		c10.989,0.042,21.979,0.021,32.968,0.022c2.153,0,4.4-0.295,5.891,1.836c0.594,5.063,0.594,5.063-1.327,8.326
		c-13.867,0-27.973,0-42.74,0c-0.249,12.418-0.065,24.45-0.132,36.203c2.079,1.553,3.971,0.99,5.73,0.997
		c13.32,0.052,26.641,0.017,39.961,0.039c1.791,0.003,3.696-0.428,5.475,1.215c1.059,2.138,0.157,4.639,0.46,6.75
		c-1.398,2.097-3.184,2.181-5.074,2.178c-17.65-0.023-35.299-0.018-52.949-0.007c-1.681,0.001-3.356,0.083-4.765-1.704
		c0-33.467,0-67.206,0-100.63c0.869-1.21,1.78-1.452,2.838-1.451c19.148,0.016,38.296,0.018,57.444,0.044
		c0.476,0.001,0.951,0.23,1.441,0.356c1.909,2.41,0.82,5.114,0.977,7.449c-1.341,2.429-3.442,2.099-5.422,2.099
		c-13.654,0.002-27.307-0.015-40.96,0.022C209.9,683.963,208.194,683.533,206.615,684.456z"/>
	<path style="fill:#0D0D0D;" d="M312.521,754.887c2.309,0.579,3.234,2.066,4.5,3.106c7.702,6.328,17.049,2.327,18.993-6.721
		c0.699-3.251,0.971-6.548,0.96-9.901c-0.07-20.313-0.035-40.626-0.035-60.939c0-2.16,0-4.321,0-6.922
		c4.612-2.681,9.682-0.967,14.461-1.42c2.03-0.192,4.1-0.177,5.447,2.755c0.021,0.41,0.132,1.562,0.133,2.715
		c0.007,23.31,0.238,46.624-0.096,69.929c-0.184,12.799-5.516,23.061-17.558,28.889c-10.057,4.868-25.751,3.807-34.928-5.9
		c-3.25-3.438-3.403-4.887,0.059-8.292C307.03,759.655,309.177,756.61,312.521,754.887z"/>
	<path style="fill:#161515;" d="M1578.013,720.724c-0.093,15.041-10.258,27.125-25.46,30.751
		c-14.979,3.573-31.652-4.674-37.523-18.462c-8.12-19.073,4.076-39.157,23.48-42.896c17.528-3.378,32.745,6.416,37.732,20.397
		C1577.49,714.011,1578.211,717.515,1578.013,720.724z M1545.317,742.234c12.38-0.002,22.714-9.601,22.284-21.342
		c-0.473-12.884-9.695-21.424-22.323-21.415c-14.404,0.01-22.256,10.943-22.242,21.429
		C1523.053,733.305,1533.72,742.644,1545.317,742.234z"/>
	<path style="fill:#1F1D1D;" d="M1576.122,770.441c0.417,2.38,0.491,4.684-0.03,6.964c-3.26,1.191-52.114,1.648-59.849,0.548
		c-1.502-2.358-1.316-4.885-0.497-7.287c1.395-1.677,3.119-1.447,4.771-1.447c16.993-0.004,33.986-0.004,50.979,0.001
		C1572.979,769.22,1574.516,769.017,1576.122,770.441z"/>
	<path style="fill:#0D0D0D;" d="M378.577,779.004c-6.94-0.039-12.736-5.882-12.5-12.603c0.24-6.851,6.075-12.452,12.911-12.394
		c6.871,0.059,12.383,5.818,12.256,12.807C391.112,774.104,385.977,779.046,378.577,779.004z"/>
	<path style="fill:#0D0D0D;" d="M550.301,779.005c-6.889-0.038-12.257-5.369-12.295-12.21c-0.039-7.019,5.541-12.755,12.435-12.783
		c6.922-0.028,12.282,5.689,12.639,12.678C563.383,772.59,556.788,780.079,550.301,779.005z"/>
	<path style="fill:#11984A;" d="M829.079,201.004c13.662-0.17,26.332,3.897,38.569,9.413c7.038,3.173,14.057,6.511,20.151,11.412
		c-5.657,2.743-11.355,5.407-16.962,8.25c-7.69,3.899-15.121,8.233-21.719,13.78c-1.072,0.11-1.59-0.635-2.012-1.295
		c-8.078-12.606-14.619-25.904-18.085-40.567C828.948,201.688,829.056,201.336,829.079,201.004z"/>
	<path style="fill:#262424;" d="M1598.352,756.719c2.468,0,4.624,0.016,6.779-0.004c2.326-0.022,4.224,0.644,5.288,2.932
		c1.069,2.3,0.365,4.186-1.245,5.882c-0.444,0.468-1.085,0.767-1.162,1.696c0.294,1.567,1.847,2.983,1.476,4.812
		c-0.802,0.77-1.601,0.773-2.442,0.543c-2.276-1.195-1.481-4.748-4.28-5.743c-2.335,1.23,0.929,6.516-4.414,5.617
		C1598.352,767.24,1598.352,762.071,1598.352,756.719z M1601.694,760.127c-0.519,1.464-0.701,2.538,0.068,3.55
		c4.778,0.336,4.778,0.336,4.885-3.164C1605.151,759.542,1603.528,759.97,1601.694,760.127z"/>
</g>
</svg>
