<?xml version="1.0" encoding="iso-8859-1"?>
<!-- Generator: Adobe Illustrator 27.0.0, SVG Export Plug-In . SVG Version: 6.00 Build 0)  -->
<svg version="1.1" id="Layer_1" xmlns="http://www.w3.org/2000/svg" xmlns:xlink="http://www.w3.org/1999/xlink" x="0px" y="0px"
	 viewBox="0 0 1603 456" style="enable-background:new 0 0 1603 456;" xml:space="preserve">
<g>
	<path style="fill:#5BCAE8;" d="M335.014,0.972c0.015,16.663,0.034,33.326,0.042,49.99c0.003,6.64-2.847,12.273-6.851,17.207
		c-7.141,8.8-16.73,12.71-27.958,12.712c-63.158,0.013-126.316,0.005-189.474,0.013c-2.498,0-5.048-0.204-7.485,0.209
		c-6.124,1.037-10.152,4.868-12.041,10.628c-2.252,6.869-1.651,13.779,1.364,20.301c2.702,5.845,8.008,8.093,14.029,8.913
		c1.473,0.201,2.996,0.052,4.495,0.052c47.16,0.024,94.325-0.32,141.478,0.241c20.522,0.244,40.306,5.106,58.203,15.755
		c14.572,8.67,24.812,21.138,31.275,36.812c3.873,9.394,5.79,19.162,7.095,29.204c1.167,8.981,1.299,17.971,0.622,26.864
		c-1.462,19.185-7.544,37.032-19.658,52.126c-12.37,15.412-28.601,25.525-47.655,30.929c-11.814,3.35-23.854,4.702-36.156,5.358
		c-15.812,0.843-31.593,0.506-47.381,0.542c-62.658,0.142-125.316,0.059-187.974,0.059c-1.805,0-3.61,0-5.097,0
		c-1.391-1.481-0.944-2.883-0.947-4.154c-0.032-14.998,0.401-30.012-0.164-44.988c-0.375-9.946,8.497-24.711,20.882-28.851
		c5.56-1.858,11.229-2.756,17.024-2.759c66.491-0.038,132.982-0.048,199.473,0.016c5.786,0.006,11.11-1.034,16.037-4.197
		c6.602-4.238,9.929-14.905,8.315-20.998c-0.378-1.429-0.38-2.956-0.741-4.391c-2.058-8.181-9.428-14.158-17.995-14.563
		c-2.994-0.142-5.998-0.111-8.997-0.111c-42.494-0.006-84.991,0.247-127.481-0.129c-16.832-0.149-33.621-1.573-49.681-7.693
		c-16.8-6.402-31.115-15.979-42.398-30.145C10.02,144.38,4.812,131.272,1.797,116.977c-0.7-3.32,0.277-6.943-1.797-9.977
		c0-7,0-14,0-21c0.655-0.333,0.883-0.881,0.937-1.599c0.631-8.444,2.792-16.485,5.91-24.361
		c7.884-19.921,21.469-34.675,40.062-45.015C63.404,5.851,81.309,1.961,99.966,0.899c0.664,0.033,1.328,0.096,1.992,0.096
		C179.643,0.991,257.329,0.981,335.014,0.972z"/>
	<path style="fill:#4767B0;" d="M1347,456c-2.376-1.574-3.888-3.736-5.055-6.363c-7.012-15.775-14.15-31.494-21.26-47.225
		c-0.613-1.357-1.323-2.67-1.922-3.873c-1.336-0.959-2.617-0.924-4.533-0.28c-6.426,18.534-12.977,37.428-19.514,56.28
		c-2.713,0-4.998,0-7.584,0c0.651-4.836,2.637-9.03,4.096-13.339c6.17-18.221,12.531-36.377,18.821-54.557
		c0.109-0.314,0.177-0.643,0.298-0.951c0.981-2.488,1.817-5.372,5.123-5.329c3.133,0.041,4.301,2.687,5.43,5.163
		c7.855,17.219,15.725,34.432,23.604,51.641c0.547,1.193,1.207,2.335,1.755,3.385c3.089,1.338,4.44-0.261,5.518-2.652
		c4.365-9.686,8.79-19.344,13.175-29.021c3.7-8.162,7.37-16.339,11.068-24.502c0.678-1.497,1.22-3.059,3.048-3.706
		c2.474-0.875,4.547,0.046,5.741,3.181c1.654,4.342,3.017,8.793,4.552,13.181c6.35,18.158,12.714,36.311,19.092,54.46
		c0.278,0.79,0.595,1.539,0.365,2.744c-2.24,0.959-4.682,0.302-7.629,0.539c-6.506-18.794-12.999-37.549-19.454-56.198
		c-1.278-1.038-2.56-0.941-4.531-0.331c-2.936,6.338-6.081,13.078-9.186,19.836c-5.059,11.014-10.094,22.039-15.132,33.062
		c-0.891,1.948-1.986,3.721-3.887,4.855C1348.333,456,1347.667,456,1347,456z"/>
	<path style="fill:#4B69B1;" d="M1576.835,243.81c3.883-8.428,7.767-16.85,10.908-25.6c3.879-10.806,6.532-21.914,8.213-33.239
		c1.712-11.529,2.588-23.153,1.932-34.807c-1.218-21.657-5.236-42.743-13.603-62.871c-1.526-3.672-3.016-7.358-4.523-11.038
		c0.202-0.555,0.46-1.057,1.117-1.184c8.025,13.053,13.404,27.19,17.071,42.006c2.064,8.338,3.912,16.726,4.123,25.372
		c0.017,0.701,0.21,1.279,0.928,1.552c0,1,0,2,0,3c-0.685,0.275-1.01,0.784-1.01,1.52c0.001,6.321,0,12.643-0.003,18.964
		c0,0.736,0.327,1.244,1.013,1.516c0,1,0,2,0,3c-1.896,3.603-1.353,7.653-1.991,11.476c-3.679,22.023-10.882,42.674-23.121,61.454
		C1577.262,244.815,1577.002,244.356,1576.835,243.81z"/>
	<path style="fill:#D7EFF7;" d="M99.966,0.899C99.992,0.6,100.004,0.3,100,0c78.333,0,156.667,0,235,0
		c0.004,0.324,0.009,0.648,0.014,0.972c-77.686,0.009-155.371,0.018-233.057,0.023C101.294,0.995,100.63,0.933,99.966,0.899z"/>
	<path style="fill:#C9D2EB;" d="M906,0c0.006,0.278,0.023,0.555,0.051,0.832c-1.821,0.056-3.642,0.159-5.463,0.16
		c-31.859,0.016-63.719,0.019-95.578,0.025C805.006,0.678,805.003,0.339,805,0C838.667,0,872.333,0,906,0z"/>
	<path style="fill:#C9D2EB;" d="M1131.955,0.859c0.036-0.285,0.051-0.572,0.045-0.859c32.333,0,64.667,0,97,0
		c-0.013,0.355-0.027,0.709-0.04,1.064c-22.222-0.022-44.444-0.032-66.667-0.07C1152.18,0.976,1142.068,0.906,1131.955,0.859z"/>
	<path style="fill:#C5CAE6;" d="M1595,0c0.049,0.293,0.066,0.588,0.053,0.885c-18.252,0.038-36.504,0.101-54.756,0.104
		c-10.782,0.002-21.564-0.09-32.345-0.139c0.039-0.282,0.055-0.565,0.048-0.85C1537,0,1566,0,1595,0z"/>
	<path style="fill:#C5CAE6;" d="M1332,0c0.001,0.28,0.018,0.558,0.052,0.836c-1.66,0.054-3.32,0.155-4.98,0.156
		c-25.135,0.01-50.271,0.002-75.406,0.017c-1.826,0.001-3.651,0.145-5.477,0.223c-0.063-0.41-0.126-0.821-0.189-1.231
		C1274.667,0,1303.333,0,1332,0z"/>
	<path style="fill:#D7EFF7;" d="M400.09,1.141C400.06,0.761,400.03,0.38,400,0c18.667,0,37.333,0,56,0
		c0.003,0.287,0.014,0.573,0.034,0.859c-2.995,0.043-5.99,0.112-8.986,0.124C431.395,1.043,415.743,1.09,400.09,1.141z"/>
	<path style="fill:#7685C2;" d="M1603,169c-0.687-0.272-1.014-0.78-1.013-1.516c0.003-6.321,0.004-12.643,0.003-18.964
		c0-0.736,0.326-1.244,1.01-1.52C1603,154.333,1603,161.667,1603,169z"/>
	<path style="fill:#4479BD;" d="M1131.955,0.859c10.113,0.047,20.225,0.117,30.338,0.135c22.222,0.038,44.444,0.048,66.667,0.07
		c-4.107,6.268-9.333,11.639-14.066,17.4c-11.398,13.874-22.949,27.623-34.458,41.405c-12.471,14.934-24.985,29.832-37.443,44.777
		c-10.858,13.026-21.629,26.126-32.503,39.139c-11.088,13.27-22.27,26.462-33.382,39.712c-5.554,6.622-11.043,13.299-16.981,20.457
		c0,37.55,0,75.639,0,113.497c-1.547,1.157-2.927,0.77-4.206,0.772c-16.493,0.031-32.987-0.03-49.48,0.044
		c-6.292,0.028-12.107-1.286-17.569-4.55c-10.355-6.187-14.989-15.63-15.758-27.233c-0.341-5.143-0.13-10.324-0.132-15.488
		c-0.009-21.99-0.004-43.981-0.004-66.337c-6.274-7.626-12.69-15.463-19.147-23.265c-8.905-10.76-17.847-21.49-26.763-32.242
		c-10.507-12.669-21.004-25.346-31.502-38.023c-11.773-14.215-23.537-28.437-35.314-42.649
		c-9.229-11.138-18.493-22.248-27.701-33.404c-8.889-10.77-17.728-21.581-26.574-32.387c-0.403-0.492-0.648-1.113-0.967-1.674
		c31.859-0.006,63.719-0.009,95.578-0.025c1.821-0.001,3.642-0.104,5.463-0.16c10.423,0.592,18.639,5.343,25.102,13.36
		c13.144,16.303,26.3,32.597,39.401,48.935c12.579,15.686,25.084,31.432,37.649,47.129c3.423,4.277,6.947,8.473,10.41,12.688
		c1.721,0.068,2.281-1.378,3.047-2.329c11.244-13.983,22.396-28.041,33.641-42.023c10.52-13.08,21.144-26.076,31.682-39.142
		c6.154-7.63,12.23-15.323,18.335-22.993c5.497-6.904,11.892-12.473,20.751-14.703C1128.037,1.258,1129.991,1.135,1131.955,0.859z"
		/>
	<path style="fill:#40ADE3;" d="M794.274,1.233c-64.204,52.071-127.689,103.558-191.475,155.29
		c65.602,53.938,130.89,107.618,196.447,161.519c-2.154,1.231-3.831,0.783-5.418,0.785c-35.489,0.029-70.979-0.124-106.467,0.096
		c-13.804,0.086-25.356-4.406-35.679-13.577c-14.639-13.004-29.825-25.391-44.743-38.081c-7.588-6.454-15.073-13.031-22.66-19.486
		c-10.365-8.819-20.816-17.537-31.168-26.371c-8.086-6.9-16.07-13.92-24.115-20.867c-5.655-4.883-11.673-9.369-16.809-14.822
		c-7.061-7.497-11.036-16.178-11.357-26.763c-0.492-16.226,6.012-28.603,18.263-38.894c11.309-9.5,22.59-19.039,33.931-28.502
		c12.611-10.522,25.392-20.84,38.032-31.328c10.986-9.115,21.862-18.362,32.815-27.516c9.933-8.301,19.842-16.631,29.884-24.798
		c5.565-4.526,12.181-6.838,19.288-6.859C712.697,0.939,752.351,1,792.006,1.007C792.499,1.007,792.993,1.101,794.274,1.233z"/>
	<path style="fill:#40ADE3;" d="M400.09,1.141c15.653-0.051,31.305-0.097,46.958-0.158c2.995-0.012,5.99-0.081,8.986-0.124
		c18.425,0.967,31.864,15.757,31.871,34.158c0.039,92.831,0.024,185.663,0.014,278.494c0,1.475,0.274,2.996-0.31,4.285
		c-1.483,1.541-3.245,1.031-4.854,1.034c-15.166,0.033-30.335,0.168-45.498-0.031c-10.739-0.141-20.555-2.82-28.283-11.113
		c-5.605-6.015-8.219-13.079-8.896-21.054c-0.126-1.49-0.03-2.998-0.03-4.498c0-91.998,0.001-183.996,0.003-275.994
		C400.052,4.474,400.077,2.807,400.09,1.141z"/>
	<path style="fill:#4163AE;" d="M1422.68,84.992c35.66,0.552,67.407,24.988,74.057,62.143c5.636,31.493-10.243,61.675-34.869,76.435
		c-10.293,6.169-21.423,9.544-33.379,10.559c-23.275,1.976-43.34-5.319-59.873-21.482c-13.165-12.871-20.167-28.878-21.798-47.392
		c-2.204-25.017,7.026-45.227,25.344-61.507c10.368-9.214,22.764-14.802,36.598-16.869
		C1413.661,86.146,1418.426,84.319,1422.68,84.992z"/>
	<path style="fill:#4163AE;" d="M1246.189,1.231c1.826-0.078,3.651-0.222,5.477-0.223c25.135-0.015,50.271-0.007,75.406-0.017
		c1.66-0.001,3.32-0.102,4.98-0.156c9.923,0.714,18.341,4.517,24.728,12.287c6.022,7.326,11.945,14.735,17.891,22.123
		c11.999,14.909,23.987,29.827,35.97,44.749c0.61,0.76,1.456,1.421,1.32,2.751c-28.989,4.589-49.824,20.254-62.618,47.044
		c-4.771-5.922-9.462-11.739-14.148-17.561c-22.853-28.394-45.72-56.778-68.549-85.193
		C1259.771,18.479,1253.005,9.835,1246.189,1.231z"/>
	<path style="fill:#4163AE;" d="M1507.952,0.85c10.782,0.05,21.564,0.142,32.345,0.139c18.252-0.003,36.504-0.066,54.756-0.104
		c-0.402,3.231-3.076,5.014-4.872,7.27c-22.992,28.871-46.107,57.645-69.164,86.465c-8.823,11.029-17.58,22.111-26.741,33.641
		c-12.406-25.389-32.302-40.56-59.908-45.69c1.393-3.223,3.783-5.828,5.787-8.636c13.994-19.611,28.084-39.153,42.213-58.666
		C1488.66,6.578,1497.216,1.738,1507.952,0.85z"/>
	<path style="fill:#4264AE;" d="M1584.704,318.709c-1.65,0-3.301,0-4.951,0c-21.316,0-42.632-0.005-63.948,0.004
		c-5.669,0.002-11.217-0.593-16.703-2.218c-8.269-2.449-14.175-8.052-19.193-14.505c-16.023-20.604-31.767-41.426-47.617-62.165
		c-0.495-0.648-0.964-1.317-1.378-1.884c0.523-1.631,1.783-1.615,2.877-1.754c20.052-2.551,36.326-12.094,49.581-27.034
		c3.418-3.852,5.888-8.435,8.305-12.993c0.597-1.126,0.794-2.525,2.528-3.43c30.397,41.613,60.816,83.257,91.235,124.9
		C1585.195,317.989,1584.949,318.349,1584.704,318.709z"/>
	<path style="fill:#4264AE;" d="M1350.112,190.534c12.076,25.853,31.857,40.432,59.381,45.406
		c-2.907,4.906-6.248,8.735-9.317,12.759c-13.516,17.717-27.286,35.249-40.42,53.246c-8.163,11.185-18.958,16.521-32.326,16.684
		c-22.988,0.281-45.982,0.075-68.974,0.06c-0.318,0-0.635-0.165-1.677-0.452c10.125-14.384,20.564-28.228,30.771-42.235
		c10.382-14.247,20.884-28.406,31.299-42.629C1329.144,219.313,1339.396,205.222,1350.112,190.534z"/>
	<path style="fill:#4767B0;" d="M1592.531,381.408c0.59,2.195,0.307,4.143,0.314,5.982c-1.65,1.698-3.58,1.084-5.319,1.088
		c-18.486,0.041-36.972,0.011-55.457,0.045c-2.155,0.004-4.35,0.065-6.456,0.469c-5.681,1.089-9.439,5.415-9.83,11.015
		c-0.446,6.377,2.27,10.705,8.105,12.752c2.517,0.883,5.105,1.275,7.819,1.266c13.988-0.046,27.977,0.064,41.965,0.048
		c2.688-0.003,5.287,0.389,7.888,0.967c9.235,2.053,14.595,8.151,15.166,17.288c0.594,9.51-4.272,17.27-12.841,20.357
		c-3.951,1.423-8.12,1.97-12.257,1.991c-20.65,0.104-41.3,0.032-61.95,0.008c-0.306,0-0.613-0.187-1.261-0.398
		c-0.558-1.919-0.403-3.997-0.088-6.007c1.806-1.216,3.692-0.755,5.481-0.758c18.819-0.032,37.638-0.003,56.457-0.04
		c2.49-0.005,5.023-0.049,7.461-0.489c6.804-1.227,11.334-6.742,11.17-13.282c-0.184-7.276-4.537-11.902-12.107-12.738
		c-1.979-0.219-3.988-0.226-5.983-0.229c-12.99-0.019-25.98-0.031-38.97,0.004c-3.695,0.01-7.241-0.68-10.78-1.675
		c-7.295-2.05-14.683-8.798-14.117-19.306c0.458-8.511,5.947-15.17,15.201-17.367c2.886-0.685,5.858-1.156,8.888-1.149
		c19.485,0.042,38.97,0.02,58.455,0.027C1590.457,381.276,1591.429,381.358,1592.531,381.408z"/>
	<path style="fill:#4767B0;" d="M1104.598,389.037c-0.892,7.375-0.342,14.506-0.437,21.6c-0.097,7.328-0.022,14.658-0.022,21.987
		c0,7.151,0,14.302,0,21.521c-2.652,0.944-5.063,0.554-7.324,0.438c-1.102-1.434-0.688-2.817-0.69-4.092
		c-0.031-20.988-0.028-41.976-0.018-62.964c0.003-5.686,0.555-6.245,6.292-6.25c17.99-0.016,35.98-0.007,53.97-0.005
		c4.515,0.001,8.996,0.612,13.233,2.032c8.067,2.703,13.887,7.926,15.687,16.543c2.034,9.736,1.237,18.9-6.793,26.105
		c-1.5,1.346-3.175,2.366-4.99,3.237c-1.306,0.627-2.87,1.029-3.511,2.746c-0.329,2.406,1.798,3.314,3.22,4.545
		c5.281,4.574,10.674,9.017,16.004,13.535c1.361,1.154,2.644,2.4,4.617,4.201c-6.055,0.882-10.722,1.042-14.998-3.094
		c-6.451-6.238-13.338-12.025-20.268-18.207c-13.952,0-28.064,0-42.44,0c0-2.002,0-3.734,0-5.433
		c1.246-1.031,2.633-0.591,3.906-0.595c10.494-0.04,20.99,0.118,31.481-0.066c8.641-0.151,16.317-2.88,22.132-9.668
		c4.342-5.069,5.662-10.783,3.504-17.166c-2.291-6.777-7.568-9.78-14.184-10.974c-1.302-0.235-2.653-0.265-3.982-0.266
		c-16.99-0.017-33.981-0.014-50.971-0.001C1107.203,388.743,1106.389,388.878,1104.598,389.037z"/>
	<path style="fill:#4767B0;" d="M943.715,454.716c-9.498,0.212-18.869-0.114-27.913-3.726c-19.93-7.961-28.897-31.815-18.473-50.507
		c6.279-11.26,16.544-16.941,29.136-18.413c11.59-1.356,23.212-1.166,34.828-0.05c14.975,1.439,27.915,11.465,31.717,24.931
		c5.762,20.41-5.591,40.192-27.033,45.973c-1.437,0.387-2.891,0.729-4.354,1.001C955.693,455.032,949.692,454.668,943.715,454.716z
		 M943.865,447.866c1.331,0,2.663-0.005,3.994,0.001c5.985,0.027,12.057,0.098,17.725-1.94c15.886-5.71,21.146-16.371,21.051-28.819
		c-0.127-16.612-12.369-26.253-25.829-28.198c-8.597-1.242-17.263-0.897-25.893-0.699c-6.293,0.145-12.639,0.862-18.289,4.023
		c-11.797,6.599-17.287,18.076-14.503,32.009c2.459,12.305,13.733,21.808,26.323,23.011
		C933.593,447.747,938.719,447.817,943.865,447.866z"/>
	<path style="fill:#4666B0;" d="M15.037,433.135c0,7.409,0,14.22,0,21.144c-2.536,1.081-4.976,0.464-7.716,0.554
		c0-24.114,0-48.021,0-72.031c1.251-1.537,3.076-1.532,4.928-1.531c18.164,0.011,36.328-0.06,54.491,0.059
		c3.966,0.026,7.963,0.57,11.774,1.823c11.401,3.749,18.092,12.977,17.41,25.97c-0.574,10.926-8.045,19.98-19.048,22.837
		c-4.083,1.06-8.216,1.175-12.379,1.175c-14.664,0-29.329,0-43.993,0C18.869,433.135,17.232,433.135,15.037,433.135z
		 M15.318,426.862c14.731,0,29.185,0.198,43.626-0.126c4.11-0.092,8.283-0.241,12.403-0.695c14.359-1.58,21.88-18.054,13.452-29.667
		c-4.285-5.904-10.569-7.658-17.54-7.653c-15.806,0.011-31.612-0.004-47.418,0.014c-1.46,0.002-3.032-0.327-4.522,1.267
		C15.318,401.931,15.318,414.171,15.318,426.862z"/>
	<path style="fill:#4767B0;" d="M468.834,454.896c-1.668,0-3.322-0.086-4.965,0.018c-3.211,0.205-4.711-2.029-6.255-4.225
		c-7.167-10.191-14.298-20.406-21.497-30.574c-5.76-8.136-11.577-16.232-17.41-24.316c-3.046-4.221-4.333-4.269-7.322-0.103
		c-12.108,16.871-24.16,33.782-36.232,50.68c-0.772,1.08-1.711,2.082-2.274,3.263c-2.425,5.088-6.469,6.209-11.571,4.954
		c-0.752-1.091,0.049-1.847,0.601-2.624c15.594-21.929,31.195-43.854,46.799-65.776c0.482-0.677,1.006-1.324,1.515-1.981
		c3.631-4.687,6.796-4.708,10.247,0.122c7.436,10.407,14.795,20.869,22.168,31.322c8.52,12.079,17.02,24.172,25.53,36.259
		C468.644,452.589,469.192,453.236,468.834,454.896z"/>
	<path style="fill:#4B69B1;" d="M626.454,388.926c-11.617,0-22.724,0-34.401,0c0,22.053,0,43.752,0,65.674
		c-2.984,0.436-5.404,0.407-8.55-0.011c0-21.727,0-43.425,0-65.721c-11.911,0-23.133,0-34.145,0
		c-1.384-2.642-0.673-4.717-0.853-7.087c26.207,0,51.906,0,77.719,0C627.075,384.08,626.787,386.147,626.454,388.926z"/>
	<path style="fill:#4E6AB2;" d="M796.017,381.977c0.757,1.342,0.466,2.531,0.513,3.679c0.034,0.829,0.042,1.67-0.688,2.601
		c-1.253,1.051-2.992,0.466-4.582,0.47c-16.83,0.047-33.66,0.033-50.491,0.026c-2.503-0.001-5.095-0.295-6.847,2.896
		c0,20.495,0,41.472,0,62.551c-2.722,1.259-5.359,0.556-7.772,0.625c-1.186-0.798-0.952-1.866-0.952-2.832
		c-0.01-21.329-0.023-42.659,0.005-63.988c0.006-4.608,1.648-6.486,6.205-6.502c21.162-0.077,42.324-0.021,63.486,0.007
		C795.195,381.51,795.496,381.753,796.017,381.977z"/>
	<path style="fill:#4666B0;" d="M196.245,381.494c2.495,0,4.759,0,7.547,0c0,21.787,0,43.491,0,64.552
		c1.897,2.411,3.862,1.791,5.607,1.795c17.139,0.039,34.278,0.023,51.418,0.023c1.622,0,3.244,0,5.064,0c0,2.415,0,4.359,0,7.026
		c-5.708,0-11.461,0-17.214,0c-5.824,0-11.648,0-17.472,0s-11.648,0.033-17.472-0.009c-5.744-0.042-11.511,0.208-17.478-0.217
		C196.245,429.775,196.245,405.744,196.245,381.494z"/>
	<path style="fill:#4E6AB2;" d="M1266.025,73.02c-0.454,3.899-2.752,7.08-4.261,10.543c-7.081,16.256-11.453,33.262-13.577,50.768
		c-1.885,15.541-1.697,31.142,0.381,46.747c2.854,21.437,9.202,41.714,18.789,61.038c0.44,0.888,0.759,1.835,1.135,2.755
		c-0.397,0.017-0.611,0.223-0.642,0.619c-6.401-8.587-10.856-18.215-14.763-28.095c-9.259-23.412-12.602-47.792-10.819-72.804
		c1.747-24.511,8.857-47.504,21.141-68.836c0.618-1.074,0.991-2.513,2.541-2.8L1266.025,73.02z"/>
	<path style="fill:#4B69B1;" d="M1553.915,223.889c1.572-4.177,3.17-8.343,4.709-12.532c4.717-12.83,7.254-26.106,8.655-39.69
		c1.117-10.82,0.849-21.583-0.331-32.316c-1.396-12.699-4.145-25.137-8.699-37.126c-0.647-1.703-1.162-3.456-1.738-5.186
		c0.491-0.01,0.982-0.02,1.473-0.031c6.653,11.27,10.276,23.632,12.821,36.33c2.163,10.789,2.651,21.742,2.025,32.712
		c-0.866,15.177-4.232,29.795-10.316,43.763c-2.382,5.47-4.87,10.875-8.37,15.746
		C1554.068,225.003,1553.992,224.446,1553.915,223.889z"/>
	<path style="fill:#4E6AB2;" d="M1287.857,96.085c-2.362,8.174-5.308,16.178-7.127,24.512c-1.845,8.456-3.317,16.956-3.736,25.594
		c-0.412,8.488-0.583,17.012,0.301,25.468c0.897,8.575,2.302,17.075,4.296,25.505c1.965,8.306,5.493,16.126,7.389,24.429
		C1265.999,185.884,1266.163,129.714,1287.857,96.085z"/>
	<path style="fill:#4E6AB2;" d="M1532.325,115.773c14.637,14.23,14.051,71.889-1.184,87.884
		C1540.348,174.067,1540.604,145.175,1532.325,115.773z"/>
	<path style="fill:#4E6AB2;" d="M1311.275,201.418c-12.997-27.018-13.539-53.775-1.914-80.872c0.972,1.783,0.528,3.539,0.065,5.371
		c-0.446,1.762-0.538,3.61-0.856,5.408c-2.71,15.336-3.091,30.696-0.986,46.158c0.965,7.085,2.098,14.096,4.161,20.946
		C1311.976,199.196,1312.17,200.018,1311.275,201.418z"/>
	<path style="fill:#4163AE;" d="M792.665,416.122c0,1.945,0,3.676,0,5.644c-15.901,0-31.607,0-47.54,0c0-1.933,0-3.664,0-5.644
		C761.026,416.122,776.725,416.122,792.665,416.122z"/>
	<path style="fill:#7685C2;" d="M1580.878,75.071c-0.656,0.127-0.915,0.629-1.117,1.184c-1.989-2.209-2.979-4.887-3.551-7.82
		C1578.71,69.989,1579.8,72.526,1580.878,75.071z"/>
	<path style="fill:#7685C2;" d="M1576.835,243.81c0.167,0.546,0.427,1.005,1.053,1.121c-0.82,2.043-1.924,3.888-3.693,5.266
		c-0.175-0.175-0.346-0.354-0.512-0.537C1574.177,247.41,1575.119,245.401,1576.835,243.81z"/>
	<path style="fill:#7685C2;" d="M1557.984,97.009c-0.491,0.01-0.982,0.02-1.473,0.031c-0.96-1.118-1.808-2.271-1.157-4.221
		C1557.173,93.776,1557.744,95.277,1557.984,97.009z"/>
	<path style="fill:#7685C2;" d="M1553.915,223.889c0.077,0.557,0.153,1.114,0.229,1.671c-0.064,1.15-0.293,2.182-1.983,2.458
		C1552.19,226.327,1552.697,224.98,1553.915,223.889z"/>
	<path style="fill:#7685C2;" d="M1270.965,250.039c-1.36-0.538-1.802-1.559-1.973-3.272c1.981,0.687,2.185,1.837,2.073,3.17
		L1270.965,250.039z"/>
	<path style="fill:#7685C2;" d="M1573.171,251.186c-0.072,0.607-0.066,1.254-0.792,1.563c-0.712-0.866-0.234-1.395,0.522-1.848
		L1573.171,251.186z"/>
	<path style="fill:#4E6AB2;" d="M1312.477,203.293c-0.02-0.299-0.039-0.587-0.058-0.887
		C1312.854,202.679,1312.721,202.976,1312.477,203.293z"/>
	<path style="fill:#4E6AB2;" d="M1265.95,72.956c-0.123-0.659-0.022-1.251,0.528-1.736c0.681,0.818,0.538,1.412-0.454,1.801
		L1265.95,72.956z"/>
	<path style="fill:#7685C2;" d="M1271.065,249.937c0.242,0.131,0.485,0.261,0.727,0.392c-0.14,0.158-0.279,0.316-0.419,0.474
		c-0.136-0.254-0.272-0.509-0.409-0.763L1271.065,249.937z"/>
	<path style="fill:#7685C2;" d="M1574.195,250.197c-0.166,0.511-0.412,0.939-1.023,0.989l-0.27-0.286
		c0.034-0.556,0.274-0.982,0.781-1.24C1573.849,249.843,1574.02,250.022,1574.195,250.197z"/>
	<path style="fill:#7685C2;" d="M1268.492,244.871c0.392,0.258,0.652,0.648,0.267,1.001c-0.401,0.369-0.728,0.049-0.909-0.382
		C1267.881,245.095,1268.095,244.888,1268.492,244.871z"/>
	<path style="fill:#7685C2;" d="M1551.552,229.77c-0.082-0.055-0.242-0.145-0.235-0.161c0.072-0.161,0.171-0.31,0.262-0.462
		c0.08,0.108,0.227,0.218,0.222,0.322C1551.797,229.572,1551.641,229.67,1551.552,229.77z"/>
	<path style="fill:#7685C2;" d="M1554.811,91.508c-0.055,0.105-0.11,0.209-0.165,0.314c-0.14-0.116-0.281-0.233-0.421-0.349
		c0.104-0.102,0.208-0.203,0.313-0.305C1554.629,91.281,1554.72,91.395,1554.811,91.508z"/>
	<path style="fill:#4E6AB2;" d="M1288.752,94.514c-0.052,0.102-0.104,0.204-0.155,0.306c-0.132-0.113-0.263-0.225-0.395-0.338
		c0.098-0.099,0.195-0.199,0.293-0.298C1288.581,94.295,1288.666,94.404,1288.752,94.514z"/>
</g>
</svg>
