<?xml version="1.0" encoding="iso-8859-1"?>
<!-- Generator: Adobe Illustrator 27.0.0, SVG Export Plug-In . SVG Version: 6.00 Build 0)  -->
<svg version="1.1" id="Layer_1" xmlns="http://www.w3.org/2000/svg" xmlns:xlink="http://www.w3.org/1999/xlink" x="0px" y="0px"
	 viewBox="0 0 1550 930" style="enable-background:new 0 0 1550 930;" xml:space="preserve">
<g>
	<path style="fill:#384CA0;" d="M0,171c8.822-0.657,17.653-0.259,26.438,0.341c9.285,0.634,18.577,1.296,27.833,2.475
		c20.137,2.566,40.066,6.177,59.593,11.693c43.964,12.418,84.96,31.364,123.369,56.12c27.637,17.813,53.532,37.855,78.351,59.338
		c27.737,24.01,54,49.586,79.492,75.941c32.09,33.175,63.157,67.31,94.395,101.283c17.028,18.519,34.166,36.938,51.338,55.324
		c27.873,29.844,56.358,59.098,85.87,87.322c33.113,31.669,66.99,62.495,103.125,90.741c0.246,0.192,0.411,0.487,1.179,1.421
		C486.942,713,243.471,713,0,713C0,532.333,0,351.667,0,171z"/>
	<path style="fill:#384CA0;" d="M1488.947,929.106c-15.661-0.186-31.283-1.36-46.891-2.421c-16.586-1.127-33.151-2.715-49.708-4.353
		c-15.728-1.556-31.421-3.373-47.065-5.514c-15.795-2.162-31.522-4.845-47.246-7.531c-24.242-4.142-48.256-9.325-72.19-14.905
		c-32.025-7.466-63.626-16.447-94.878-26.685c-44.067-14.435-87.224-31.152-129.28-50.721
		c-51.639-24.029-101.307-51.57-148.88-82.89c-34.784-22.901-68.303-47.525-100.652-73.748c-0.24-0.195-0.393-0.499-0.864-1.115
		c263.547,0,526.816,0,790.306,0c0.638,1.843,0.323,3.843,0.324,5.79c0.018,86.33,0.015,172.66,0.018,258.99
		c0,1.999,0.038,3.998,0.059,5.997c-4,0-8,0-12,0c-0.407-0.894-1.18-0.979-2.037-0.975c-8.698,0.039-17.396,0.063-26.094,0.092
		C1497.562,929.113,1493.254,929.109,1488.947,929.106z"/>
	<path style="fill:#394CA0;" d="M1550,375c-2.053,3.228-1.389,6.996-1.808,10.474c-2.869,23.828-9.583,46.478-20.545,67.793
		c-13.502,26.254-32.587,47.707-56.886,64.467c-20.229,13.953-42.569,23.006-66.526,28.204c-16.32,3.541-32.847,5.219-49.528,4.784
		c-22.677-0.592-45.029-3.262-66.682-10.629c-30.395-10.342-56.007-27.371-75.713-52.928c-0.192-0.248-0.488-0.416-1.281-1.073
		c-2.62,18.957-5.189,37.553-7.779,56.292c-20.184,0-39.927,0-59.706,0c-0.858-2.148-0.485-4.154-0.485-6.099
		c-0.02-176.762-0.018-353.524-0.02-530.285c0-1.999-0.028-3.998-0.042-5.997c24.333,0,48.667,0,73,0
		c0.071,1.993,0.204,3.987,0.204,5.98c0.011,71.662,0.009,143.323,0.009,214.985c0,1.757,0,3.515,0,6.236
		c2.809-3.134,4.962-5.612,7.195-8.016c20.892-22.494,46.662-37.391,75.475-46.907c30.458-10.06,61.867-12.548,93.634-8.056
		c21.512,3.042,42.05,9.466,61.342,19.73c33.963,18.069,58.767,44.849,75.47,79.237c11.982,24.667,18.116,50.911,19.739,78.244
		c0.055,0.925-0.315,2.054,0.931,2.568c0,2,0,4,0,6c-0.692,0.268-1.016,0.776-1.017,1.514c-0.005,6-0.013,11.999-0.021,17.999
		c-0.001,0.739,0.331,1.243,1.038,1.487C1550,372.333,1550,373.667,1550,375z M1341.259,230.759
		c-18.961-0.481-38.54,2.779-57.275,10.361c-24.329,9.845-42.951,26.172-55.346,49.478c-8.49,15.962-13.033,33.079-14.395,50.942
		c-1.564,20.514-0.479,40.925,5.802,60.733c10.53,33.212,31.532,56.98,64.153,69.813c21.978,8.646,44.878,11.661,68.46,10.144
		c16.547-1.064,32.63-4.077,48.016-10.284c22.455-9.058,40.219-23.733,52.756-44.599c10.767-17.921,15.933-37.553,17.337-58.174
		c1.225-18,0.176-35.906-4.726-53.429c-9.956-35.584-31.439-60.997-65.986-74.889C1381.587,233.43,1362.317,230.47,1341.259,230.759
		z"/>
	<path style="fill:#394CA0;" d="M1089,0c-0.016,2-0.046,3.999-0.046,5.999c-0.002,176.663-0.002,353.326-0.002,529.99
		c0,1.988,0,3.975,0,6.311c-24.377,0-48.456,0-72.753,0c-0.752-1.89-0.4-3.894-0.4-5.831
		c-0.019-136.164-0.017-272.328-0.017-408.492c0-40.833-0.003-81.665,0.009-122.498c0.001-1.826,0.136-3.652,0.209-5.479
		C1040.333,0,1064.667,0,1089,0z"/>
	<path style="fill:#6068B0;" d="M1501.869,929.116c8.698-0.028,17.396-0.053,26.094-0.092c0.857-0.004,1.63,0.081,2.037,0.975
		c-9.333,0-18.667,0-28,0C1502.005,929.698,1501.961,929.404,1501.869,929.116z"/>
	<path style="fill:#696FB4;" d="M1550,371c-0.707-0.244-1.039-0.748-1.038-1.487c0.008-6,0.016-11.999,0.021-17.999
		c0.001-0.738,0.325-1.246,1.017-1.514C1550,357,1550,364,1550,371z"/>
	<path style="fill:#AAABD6;" d="M1501.869,929.116c0.092,0.287,0.136,0.582,0.131,0.884c-4.333,0-8.667,0-13,0
		c0.064-0.303,0.046-0.601-0.053-0.894C1493.254,929.109,1497.562,929.113,1501.869,929.116z"/>
	<path style="fill:#394DA0;" d="M619.72,470.729c16.532-15.693,32.681-31.024,48.536-46.074c1.782,0.21,2.28,1.174,2.899,1.905
		c14.099,16.645,31.46,29.037,50.657,39.086c17.806,9.321,36.673,15.554,56.393,19.088c17.133,3.07,34.395,3.257,51.737,1.531
		c10.477-1.043,20.727-2.934,30.666-6.302c10.66-3.613,20.414-8.846,28.327-17.101c6.746-7.038,10.738-15.531,10.695-25.106
		c-0.052-11.546-3.952-21.813-13.881-28.987c-8.394-6.065-17.896-9.358-27.826-11.692c-14.439-3.394-29.127-5.046-43.882-6.193
		c-17.579-1.366-35.184-2.449-52.739-4.066c-26.659-2.456-53.211-5.669-78.644-14.742c-14.117-5.036-26.983-12.233-37.596-22.912
		c-10.469-10.534-17.082-23.34-19.873-37.885c-4.874-25.393-2.411-50.025,9.06-73.415c8.626-17.588,21.637-31.468,37.524-42.685
		c19.575-13.821,41.513-22.15,64.801-27.152c22.077-4.742,44.46-6.483,66.972-5.68c36.197,1.29,71.254,8.023,104.249,23.599
		c17.418,8.222,33.532,18.393,47.125,32.226c0.921,0.937,2.073,1.703,2.65,3.508c-16.1,15.311-32.342,30.757-48.79,46.399
		c-5.236-4.655-10.262-9.197-15.741-13.17c-15.128-10.969-31.938-18.331-50.012-22.782c-20.158-4.964-40.626-6.548-61.374-5.551
		c-11.834,0.568-23.527,1.849-35.082,4.372c-12.6,2.751-24.559,7.071-35.075,14.803c-10.545,7.753-16.75,18.015-17.085,31.194
		c-0.282,11.081,3.782,20.416,12.875,27.291c6.753,5.106,14.421,8.198,22.451,10.437c12.353,3.445,25.009,5.146,37.747,6.555
		c18.362,2.031,36.81,2.868,55.2,4.488c13.588,1.197,27.18,2.282,40.667,4.31c23.757,3.572,47.094,8.76,68.066,21.148
		c21.399,12.64,34.414,31.278,38.68,55.925c3.346,19.33,2.872,38.429-3.186,57.19c-5.964,18.471-16.396,34.015-31.005,46.824
		c-18.573,16.285-40.494,25.782-64.103,31.852c-16.638,4.278-33.582,6.369-50.748,7.207c-15.679,0.766-31.294,0.238-46.864-1.31
		c-41.977-4.173-80.688-17.516-115.095-42.268C644.747,496.269,631.678,484.436,619.72,470.729z"/>
</g>
</svg>
