<?xml version="1.0" encoding="iso-8859-1"?>
<!-- Generator: Adobe Illustrator 27.0.0, SVG Export Plug-In . SVG Version: 6.00 Build 0)  -->
<svg version="1.1" id="Layer_1" xmlns="http://www.w3.org/2000/svg" xmlns:xlink="http://www.w3.org/1999/xlink" x="0px" y="0px"
	 viewBox="0 0 1571.011 449.42" style="enable-background:new 0 0 1571.011 449.42;" xml:space="preserve">
<g>
	<path style="fill:#285083;" d="M1571.011,334.213c-3.165,0.009-6.329,0.026-9.494,0.026
		c-454.793,0.001-909.586,0.001-1364.378,0.001c-2.143,0-4.287,0-6.564,0c-0.821-2.521-0.24-4.801-0.465-6.791
		c1.415-1.339,2.815-0.814,4.1-0.924c0.662-0.056,1.332-0.01,1.999-0.01c456.793,0,913.585,0,1370.378-0.022
		c1.47,0,2.991,0.411,4.425-0.281C1571.011,328.88,1571.011,331.546,1571.011,334.213z"/>
	<path style="fill:#435D8D;" d="M0.011,448.213c0-149,0-298,0-447c0.353,0.016,0.706,0.032,1.06,0.048
		C1.05,2.759,1.012,4.258,1.012,5.757C1.009,151.689,1.009,297.622,1.011,443.554c0,1.499,0.029,2.998,0.045,4.497
		C0.708,448.105,0.359,448.159,0.011,448.213z"/>
	<path style="fill:#B8BBCF;" d="M0.011,448.213c0.348-0.054,0.697-0.108,1.045-0.162c1.828,0.056,3.657,0.159,5.485,0.159
		c34.65,0.01,69.3,0.016,103.949,0.003c18.49-0.007,36.98-0.051,55.47-0.079c0.017,0.359,0.033,0.719,0.05,1.078
		c-54,0-108,0.009-162-0.053C2.699,449.159,0.938,450.169,0.011,448.213z"/>
	<path style="fill:#526593;" d="M1.07,1.261c-0.353-0.016-0.706-0.032-1.06-0.048c-0.153-1.972,1.371-0.946,2-0.948
		c18.666-0.064,37.333-0.052,56-0.052c24,0,48,0,72,0c-0.071,0.353-0.142,0.707-0.213,1.06C86.888,1.269,43.979,1.265,1.07,1.261z"
		/>
	<path style="fill:#17497F;" d="M1.07,1.261c42.909,0.004,85.818,0.008,128.727,0.013c0.058,1.329,0.167,2.657,0.167,3.986
		c0.009,43.661,0.007,87.322,0.007,130.983c0,1.325,0,2.649,0,4.298c-8.286,0-16.352,0-24.833,0c0-38.309,0-76.549,0-115.056
		c-26.808,0-53.205,0-79.854,0c0,132.467,0,264.862,0,397.559c38.572,0,77.103,0,115.828,0c0-76.17,0-152.106,0-228.353
		c-16.512,0-32.927,0-49.85,0c0,46.037,0,92.09,0,138.414c-8.55,0-16.595,0-24.823,0c0-54.485,0-108.718,0-163.247
		c33.175,0,66.094,0,99.008,0c1.027,0.981,0.619,2.218,0.62,3.321c0.021,90.988,0.019,181.976,0.014,272.964
		c0,0.664-0.078,1.327-0.12,1.991c-18.49,0.028-36.98,0.072-55.47,0.079c-34.65,0.013-69.3,0.006-103.949-0.003
		c-1.828,0-3.657-0.104-5.485-0.159c-0.016-1.499-0.045-2.998-0.045-4.497C1.009,297.622,1.009,151.689,1.012,5.757
		C1.012,4.258,1.05,2.759,1.07,1.261z"/>
	<path style="fill:#1A4A7F;" d="M937.16,225.418c20.585,23.669,40.551,46.626,60.971,70.106c-10.485,0-20.326,0-30.814,0
		c-18.377-21.834-37.111-44.093-55.757-66.248c-26.87,0-53.469,0-80.421,0c0,22.116,0,44.049,0,66.288c-8.076,0-15.802,0-23.777,0
		c0-55.231,0-110.303,0-165.357c1.171-1.057,2.569-0.634,3.85-0.635c35.817-0.023,71.635-0.178,107.449,0.095
		c9.096,0.069,18.255,0.185,27.281,2.342c20.581,4.919,34.403,20.844,35.935,41.92c0.588,8.088-0.248,16.005-3.349,23.502
		c-6.419,15.517-18.653,23.659-34.728,26.719C941.854,224.521,939.906,224.893,937.16,225.418z M831.079,209.342
		c1.649,0,2.797,0,3.944,0c27.828,0,55.656,0.003,83.483-0.008c1.832-0.001,3.673-0.001,5.493-0.177
		c6.983-0.674,13.898-1.783,20.025-5.463c12.499-7.506,16.954-24.291,10.367-38.277c-3.709-7.873-9.495-13.079-18.189-14.812
		c-4.587-0.914-9.202-1.393-13.878-1.391c-29.161,0.012-58.322-0.001-87.483,0.03c-1.262,0.001-2.679-0.513-3.763,0.622
		C831.079,169.514,831.079,189.136,831.079,209.342z"/>
	<path style="fill:#184A7F;" d="M771.678,169.076c-7.759,2.51-14.989,4.85-22.424,7.255c-1.795-2.322-3.382-4.638-5.23-6.723
		c-10.808-12.19-24.671-19.147-40.395-22.056c-18.847-3.487-37.364-1.911-55.289,5.502c-25.866,10.698-41.489,36.688-37.659,65.353
		c2.247,16.814,8.731,31.281,21.489,42.634c9.567,8.513,21.039,13.146,33.425,15.769c19.862,4.207,39.024,2.261,57.251-6.856
		c9.683-4.843,17.842-11.525,23.626-20.9c4.026-6.526,5.719-13.663,6.672-21.675c-12.518,0-24.638,0-36.759,0
		c-11.959,0-23.918,0-36.126,0c0-6.749,0-13.154,0-19.799c30.758,0,61.357,0,91.99,0c0.971,3.3,1.354,78.247,0.382,87.236
		c-6.547,0-13.125,0-20.225,0c0-7.111,0-14.187,0-21.39c-0.825,0.231-1.233,0.219-1.427,0.417
		c-11.993,12.213-27.104,18.345-43.397,21.975c-22.57,5.028-45.104,4.848-66.72-3.797c-29.117-11.645-48.408-32.555-54.471-63.862
		c-4.825-24.916,0.425-48.039,16.084-68.255c8.179-10.559,19.018-18.041,31.045-23.767c22.028-10.487,45.263-12.845,69.157-9.756
		c14.461,1.87,28.109,6.603,40.785,13.839c10.991,6.273,20.47,14.248,26.724,25.532
		C770.663,166.613,770.999,167.552,771.678,169.076z"/>
	<path style="fill:#1C4B80;" d="M1164.194,199.269c0,6.733,0,13.008,0,19.877c-41.996,0-84.016,0-126.161,0
		c0,18.849,0,37.106,0,55.877c45.254,0,90.311,0,135.596,0c0,7.099,0,13.686,0,20.564c-53.047,0-105.95,0-159.176,0
		c0-55.136,0-110.208,0-165.313c3.279-0.897,145.397-1.234,152.845-0.29c0.943,3.121,0.326,6.441,0.435,9.692
		c0.11,3.303,0.024,6.612,0.024,10.425c-43.353,0-86.401,0-129.685,0c0,16.576,0,32.638,0,49.167
		C1080.109,199.269,1122.012,199.269,1164.194,199.269z"/>
	<path style="fill:#1B4B80;" d="M1220.079,150.072c0,16.662,0,32.615,0,49.07c41.952,0,83.845,0,126.054,0
		c0,6.909,0,13.323,0,19.995c-41.913,0-83.701,0-125.841,0c0,18.623,0,36.996,0,55.749c44.947,0,89.878,0,135.182,0
		c0,7.066,0,13.766,0,20.731c-52.981,0-105.887,0-159.072,0c0-55.245,0-110.327,0-165.738c50.878,0,101.768,0,153,0
		c0,6.705,0,13.26,0,20.193C1306.423,150.072,1263.504,150.072,1220.079,150.072z"/>
	<path style="fill:#194A7F;" d="M1553.56,295.861c-7.26,0-14.226-0.002-21.193,0.001c-1.87,0.001-3.03-1.219-4.18-2.433
		c-11.686-12.332-23.378-24.658-35.044-37.008c-14.869-15.741-29.758-31.465-44.561-47.268
		c-13.777-14.707-28.017-28.981-41.291-44.158c-2.178-2.49-3.889-5.397-6.585-7.516c0.808,46.025,0.12,91.956,0.412,138.139
		c-7.546,0-14.651,0-21.749,0c-0.13-0.119-0.259-0.221-0.369-0.34c-0.111-0.121-0.273-0.25-0.29-0.391
		c-0.103-0.82-0.24-1.644-0.24-2.467c0.026-53.812,0.064-107.625,0.121-161.437c0-0.288,0.284-0.576,0.583-1.145
		c7.616,0,15.388,0,23.802,0c42.549,45.583,86.361,90.7,129.298,137.519c-0.126-2.862-0.052-5.189-0.36-7.464
		c-1.079-7.962-0.792-15.962-0.799-23.951c-0.027-33.49-0.019-66.979,0.008-100.469c0.001-1.793-0.373-3.637,0.442-5.65
		c7.194,0,14.443,0,21.995,0C1553.56,185.014,1553.56,240.088,1553.56,295.861z"/>
	<path style="fill:#194A7F;" d="M193.132,262.045c7.503-3.084,14.516-5.967,21.511-8.842c12.773,14.136,29.118,20.761,47.189,24.03
		c11.699,2.117,23.503,2.435,35.325,2.055c9.529-0.306,18.832-2.079,27.606-5.968c9.721-4.308,17.038-10.798,19.499-21.729
		c2.463-10.939-1.81-20.279-11.804-25.365c-5.409-2.752-11.286-3.956-17.166-4.968c-12.958-2.23-26.076-3.049-39.163-4.196
		c-13.884-1.217-27.879-1.912-41.383-5.851c-9.003-2.626-16.751-7.179-22.396-14.923c-5.889-8.078-7.767-17.136-6.749-26.905
		c1.879-18.015,12.61-29.139,28.557-35.863c10.328-4.355,21.28-6.285,32.422-7.392c11.977-1.19,23.92-1.177,35.862,0.126
		c17.221,1.878,33.592,6.307,48.076,16.313c6.232,4.306,11.468,9.544,15.957,16.279c-7.301,2.844-14.351,5.59-21.573,8.404
		c-3.748-3.316-7.36-6.713-11.534-9.455c-8.901-5.848-18.667-9.421-29.083-11.163c-18.113-3.029-36.107-2.409-53.862,2.524
		c-5.184,1.44-9.908,3.867-13.976,7.42c-12.584,10.99-9.056,29.874,6.289,34.832c6.883,2.224,13.98,2.993,21.071,3.69
		c17.868,1.755,35.802,2.882,53.601,5.277c11.058,1.488,22.019,3.646,31.603,9.87c12.148,7.889,18.615,19.029,19.031,33.66
		c0.619,21.789-9.868,36.661-28.715,46.234c-9.275,4.711-19.276,7.07-29.625,8.106c-8.442,0.845-16.884,1.866-25.369,1.583
		c-18.999-0.632-37.805-2.619-55.669-9.733c-13.699-5.455-25.636-13.328-34.133-25.722
		C194.155,263.827,193.845,263.238,193.132,262.045z"/>
	<path style="fill:#184A7F;" d="M404.703,275.269c37.144,0,73.546,0,110.17,0c0,6.751,0,13.156,0,19.837
		c-44.505,0-88.877,0-133.539,0c0-55.054,0-110.094,0-165.449c7.567,0,15.151,0,22.818,0c0.02,0.018,0.154,0.121,0.266,0.244
		c0.107,0.119,0.274,0.258,0.274,0.389C404.703,178.395,404.703,226.501,404.703,275.269z"/>
	<path style="fill:#224D82;" d="M255.763,413.754c-12.739,0-25.031,0-37.672,0c0,10.292,0,20.418,0,30.693
		c-3.848,1.254-7.468,0.439-11.402,0.595c0-26.196,0-52.235,0-78.181c1.215-0.831,2.412-0.518,3.54-0.519
		c17.664-0.021,35.327-0.046,52.991,0.004c5.199,0.014,10.241,0.826,14.866,3.486c9.144,5.259,11.733,13.569,10.78,23.383
		c-0.845,8.701-6.494,14.835-15.586,17.391c-1.422,0.4-2.875,0.688-5.097,1.213c9.152,11.326,19.004,21.56,28.341,33.055
		c-5.168,0-9.587,0-14.475,0C273.383,434.614,264.487,424.083,255.763,413.754z M218.097,403.812
		c0.634,0.152,1.095,0.359,1.556,0.36c12.989,0.011,25.978,0.029,38.967-0.027c2.997-0.013,5.98-0.485,8.85-1.342
		c7.208-2.151,10.623-7.61,9.69-15.274c-0.877-7.21-5.047-11.018-12.673-11.552c-0.995-0.07-1.996-0.079-2.995-0.079
		c-13.322-0.005-26.645-0.014-39.967,0.016c-1.099,0.002-2.324-0.402-3.428,0.719C218.097,385.582,218.097,394.662,218.097,403.812z
		"/>
	<path style="fill:#1E4C80;" d="M1403.414,444.762c-5.462,0-9.777,0-14.436,0c-4.334-5.069-8.762-10.239-13.182-15.417
		c-4.429-5.188-8.85-10.383-13.402-15.725c-12.421,0-24.878,0-38.072,0c-0.301,5.016-0.088,10.11-0.127,15.187
		c-0.039,5.149-0.009,10.299-0.009,15.57c-3.681,0.932-7.092,0.366-10.778,0.456c0-26.262,0-52.151,0-77.992
		c0.492-0.687,1.186-0.629,1.834-0.628c18.985,0.036,37.975-0.15,56.954,0.226c8.468,0.168,16.031,3.223,20.537,11.1
		c6.529,11.41,3.101,29.478-13.178,32.893c-1.443,0.303-2.855,0.749-4.809,1.269C1384.23,422.639,1393.542,433.378,1403.414,444.762
		z M1324.435,404.204c12.103,0,23.878,0.009,35.653-0.007c2.491-0.003,4.988-0.009,7.47-0.185c1.813-0.128,3.629-0.437,5.404-0.838
		c7.444-1.684,11.707-7.444,11.058-14.839c-0.649-7.401-5.232-12.071-13.096-12.223c-15.112-0.293-30.232-0.138-45.349-0.149
		c-0.295,0-0.591,0.237-1.141,0.473C1324.435,385.398,1324.435,394.469,1324.435,404.204z"/>
	<path style="fill:#1E4C80;" d="M1210.256,364.342c9.576,0.289,18.767,2.149,27.271,6.781c22.771,12.403,27.344,45.188,8.704,63.239
		c-6.384,6.182-14.399,9.188-22.969,11.244c-8.959,2.149-32.033-0.295-39.59-4.141c-15.582-7.931-22.384-24.508-21.003-39.246
		c1.845-19.695,15.345-32.961,36.675-36.887C1202.946,364.668,1206.57,364.184,1210.256,364.342z M1210.724,436.618
		c2.157-0.095,4.317-0.15,6.472-0.29c16.72-1.084,27.5-10.856,29.432-27.484c1.495-12.871-3.663-24.647-16.407-30.722
		c-8.712-4.153-17.872-4.777-27.243-3.544c-2.778,0.366-5.537,1.121-8.21,1.991c-16.043,5.222-22.685,18.44-20.401,34.772
		c1.649,11.789,8.85,18.932,19.673,22.826C1199.414,436.102,1205.045,436.561,1210.724,436.618z"/>
	<path style="fill:#1C4B80;" d="M420.814,366.483c0,3.261,0,6.197,0,9.557c-20.27,0-40.34,0-60.665,0c0,7.831,0,15.234,0,23.003
		c19.477,0,38.9,0,58.56,0c0.842,3.184,0.394,6.046,0.373,9.314c-19.793,0-39.207,0-58.905,0c0,8.974,0,17.547,0,26.63
		c21.107,0,42.169,0,63.468,0c0,3.254,0,6.006,0,9.08c-24.983,0-49.871,0-75.029,0c0-25.819,0-51.562,0-77.585
		C372.622,366.483,396.526,366.483,420.814,366.483z"/>
	<path style="fill:#224D82;" d="M1466.753,413.854c0,10.013,0,20.135,0,30.414c-3.746,1.253-7.351,0.276-11.271,0.717
		c0-26.261,0-52.142,0-78.328c0.336-0.534,1.198-0.457,2.017-0.455c16.151,0.038,32.304,0.011,48.454,0.163
		c5.843,0.055,11.562,0.983,16.844,3.808c8.443,4.515,12.34,12.791,11.637,22.012c-0.76,9.962-7.06,17.391-16.233,19.917
		c-3.061,0.843-6.183,1.164-9.371,1.15c-12.323-0.052-24.646-0.041-36.968,0.002C1470.243,413.26,1468.542,412.81,1466.753,413.854z
		 M1466.44,403.181c0.824,0.14,1.451,0.337,2.078,0.338c12.642,0.02,25.285,0.045,37.927-0.005c2.314-0.009,4.62-0.256,6.859-1.059
		c5.564-1.996,8.671-6.126,8.824-11.948c0.179-6.759-2.477-10.986-8.32-13.283c-3.164-1.244-6.491-1.311-9.808-1.321
		c-11.145-0.034-22.29-0.024-33.436,0.002c-1.295,0.003-2.652-0.317-4.125,0.582C1466.44,385.245,1466.44,394.14,1466.44,403.181z"
		/>
	<path style="fill:#1E4C80;" d="M1112.258,386.486c-4.134,0.97-7.784,1.826-11.338,2.66c-0.399-0.288-0.764-0.42-0.91-0.676
		c-4.986-8.711-13.15-12.513-22.505-13.947c-8.788-1.347-17.57-1.027-26.071,2.173c-11.57,4.355-18.26,13.971-18.586,26.317
		c-0.224,8.493,1.614,16.194,7.382,22.628c5.478,6.111,12.702,9.2,20.563,10.243c7.57,1.004,15.254,1.012,22.788-1.116
		c8.067-2.278,14.261-6.941,18.586-14.254c3.899,0.763,7.574,1.483,11.528,2.256c-5.33,11.286-14.252,17.724-25.594,20.913
		c-12.408,3.488-24.991,3.691-37.485,0.345c-18.278-4.895-29.144-19.655-29.724-38.39c-0.707-22.824,14.99-38.339,36.978-41.343
		c11.053-1.51,21.914-0.799,32.422,3.059C1099.821,370.853,1107.068,377.087,1112.258,386.486z"/>
	<path style="fill:#1B4B80;" d="M537.58,425.535c-16.117,0-31.914,0-48.252,0c-3.134,6.031-6.396,12.309-9.701,18.67
		c-4.086,0-8.04,0-12.807,0c13.696-26.143,27.18-51.883,40.739-77.765c4.046,0,7.991,0,12.244,0
		c13.185,25.676,26.423,51.454,39.819,77.541c-4.422,0.742-8.221,0.241-12.412,0.443C544.057,438.24,540.91,432.068,537.58,425.535z
		 M513.364,377.222c-5.659,13.369-13.13,25.53-19.007,38.833c12.886,0,25.259,0,38.136,0
		C526.259,402.93,519.341,390.666,513.364,377.222z"/>
	<path style="fill:#1C4B80;" d="M809.106,366.304c4.659,0,8.97,0,13.695,0c9.973,12.554,20.077,25.274,30.292,38.134
		c10.324-12.728,20.64-25.445,30.891-38.083c4.697,0,9.145,0,14.265,0c-13.318,16.162-26.292,31.907-39.419,47.838
		c0,10.021,0,20.141,0,30.567c-3.644,0.61-7.074,0.274-10.335,0.243c-1.384-1.166-1.028-2.572-1.032-3.851
		c-0.027-7.656-0.09-15.313,0.03-22.968c0.041-2.633-0.618-4.695-2.343-6.786c-11.321-13.723-22.505-27.56-33.709-41.38
		C810.625,369.012,809.579,368.129,809.106,366.304z"/>
	<path style="fill:#184A7F;" d="M690.109,366.341c25.01,0,49.629,0,74.533,0c0.587,2.839,0.235,5.598,0.264,8.853
		c-10.576,0-20.969,0-31.875,0c0,23.215,0,45.937,0,68.919c-3.92,0-7.323,0-11.315,0c0-22.834,0-45.55,0-68.683
		c-10.83,0-21.088,0-31.607,0C690.109,372.267,690.109,369.521,690.109,366.341z"/>
	<path style="fill:#15497E;" d="M607.153,444.124c0-26.002,0-51.602,0-77.47c3.348-0.902,6.787-0.256,10.674-0.436
		c0,22.849,0,45.549,0,68.652c17.539,0,34.603,0,51.815,0c0.983,3.237,0.422,6.125,0.487,9.255
		C649.054,444.124,628.329,444.124,607.153,444.124z"/>
	<path style="fill:#285083;" d="M1551.255,444.607c-4.175,0.501-7.915,0.312-11.9,0.197c0-4.144,0-7.916,0-12.031
		c3.755-0.892,7.642-0.416,11.646-0.247C1551.715,436.641,1551.346,440.55,1551.255,444.607z"/>
</g>
</svg>
