<?xml version="1.0" encoding="iso-8859-1"?>
<!-- Generator: Adobe Illustrator 27.0.0, SVG Export Plug-In . SVG Version: 6.00 Build 0)  -->
<svg version="1.1" id="Layer_1" xmlns="http://www.w3.org/2000/svg" xmlns:xlink="http://www.w3.org/1999/xlink" x="0px" y="0px"
	 viewBox="0 0 1577.407 493" style="enable-background:new 0 0 1577.407 493;" xml:space="preserve">
<g>
	<path style="fill:#242021;" d="M224,0c5.667,0,11.333,0,17,0c2.69,1.843,5.94,1.402,8.885,1.885
		c17.752,2.917,34.474,8.638,49.499,18.522c25.505,16.779,36.746,40.593,32.493,70.901c-2.252,16.046-11.181,28.251-25.454,36.192
		c-6.787,3.776-14.297,5.056-21.961,5.934c-7.232,0.829-13.888-0.993-20.36-3.598c-4.372-1.76-5.112-5.509-2.376-9.382
		c1.341-1.898,3.027-3.554,4.356-5.459c9.621-13.789,13.024-29.026,9.783-45.502c-2.047-10.405-7.136-19.256-15.525-26.014
		c-11.917-9.601-25.511-12.417-40.327-9.668c-21.636,4.014-36.057,16.661-41.967,37.762c-4.916,17.552-2.1,34.96,4.423,51.747
		c4.757,12.242,12.368,22.725,20.913,32.579c11.273,13,24.079,24.442,36.629,36.148c15.607,14.557,30.845,29.448,43.342,46.893
		c10.144,14.16,17.955,29.452,23.04,46.129c3.551,11.647,5.834,23.521,6.686,35.673c0.101,1.438,0.008,2.996,1.09,4.059
		c9.092,0,18.021,0,27.193,0c1.724-10.72,4.574-20.935,7.68-31.08c7.967-26.023,18.829-50.695,34.411-73.132
		c11.112-16.001,24.161-30.22,40.323-41.191c26.732-18.146,56.381-25.583,88.509-22.158c10.623,1.132,20.777,4.414,29.555,10.963
		c17.832,13.304,23.684,31.938,22.798,53.1c-0.521,12.461-3.32,24.63-7.51,36.472c-11.007,31.107-30.496,55.505-58.274,73.059
		c-21.615,13.659-45.483,20.607-71.083,21.448c-0.465,0.015-0.925,0.221-1.578,0.386c-0.281,2.98-0.638,5.929-0.826,8.889
		c-0.762,11.997-1.123,24.031,2.708,35.615c5.401,16.331,16.28,26.924,33.681,29.444c10.291,1.491,20.574,0.171,30.709-2.115
		c23.751-5.357,43.394-18.067,60.848-34.43c16.726-15.681,30.566-33.801,43.289-52.812c1.165-1.74,1.698-3.571,2.122-5.494
		c1.108-5.026,2.153-10.066,3.188-15.108c8.444-41.143,16.829-82.298,25.333-123.428c9.51-46.001,19.128-91.981,28.693-137.971
		c1.592-7.655,3.608-9.757,11.413-10.926c10.351-1.549,20.738-2.854,31.105-4.297c12.672-1.765,25.351-3.491,38.005-5.38
		c6.741-1.006,10.112,2.353,8.735,9.097c-3.056,14.965-6.148,29.923-9.217,44.886c-5.504,26.834-10.997,53.671-16.502,80.505
		c-4.838,23.58-9.685,47.159-14.531,70.738c-5.481,26.668-11.076,53.314-16.412,80.011c-4.648,23.257-10.226,46.326-13.325,69.899
		c-2.536,19.285,14.991,36.308,34.721,29.562c11.893-4.067,21.336-11.38,29.866-20.15c11.058-11.37,20.607-23.975,29.696-36.948
		c1.207-1.722,1.812-3.547,2.233-5.464c1.174-5.352,2.205-10.735,3.288-16.106c4.825-23.925,9.641-47.852,14.474-71.775
		c4.537-22.457,9.08-44.912,13.642-67.364c2.281-11.225,4.578-22.447,6.931-33.656c1.108-5.28,3.501-7.249,8.946-7.607
		c0.83-0.055,1.666-0.011,2.499-0.011c21.165,0,42.331-0.001,63.496,0.003c1.826,0,3.64-0.071,5.429,0.568
		c4.098,1.464,6.185,4.45,5.889,8.739c-0.08,1.16-0.245,2.323-0.473,3.464c-2.473,12.371-4.984,24.735-7.45,37.108
		c-4.155,20.844-8.288,41.692-12.427,62.539c-4.494,22.637-9.015,45.27-13.467,67.915c-3.236,16.456-6.867,32.835-9.256,49.455
		c-2.696,18.755,12.804,34.596,32.177,30.268c9.366-2.093,17.161-6.914,24.161-13.26c14.308-12.972,25.366-28.599,36.392-44.274
		c2.075-2.95,3.275-6.075,3.964-9.501c5.789-28.81,11.521-57.632,17.368-86.43c6.507-32.052,13.13-64.08,19.673-96.125
		c1.447-7.088,4.389-9.644,11.549-9.65c22.665-0.018,45.331-0.021,67.996,0.002c6.936,0.007,9.504,3.029,8.228,9.667
		c-0.752,3.912-1.855,7.765-2.423,11.699c-0.45,3.114-1.983,6.148-1.198,10.028c1.473-1.663,2.559-2.884,3.639-4.11
		c4.426-5.02,9.349-9.507,14.855-13.297c21.534-14.822,45.123-19.575,70.698-14.094c22.075,4.731,36.541,18.039,43.566,39.384
		c4.932,14.986,5.125,30.483,3.74,45.961c-1.601,17.893-5.35,35.447-9.274,52.969c-5.584,24.936-12.613,49.547-16.962,74.758
		c-1.73,10.028-2.848,20.103-1.458,30.312c1.274,9.354,6.723,15.176,15.894,16.647c9.125,1.464,17.479-0.413,25.034-5.775
		c16.322-11.584,27.238-27.552,36.506-44.88c0.769-1.437,0.733-2.868,0.8-4.342c0.436-9.653,1.536-19.251,3.158-28.755
		c5.279-30.922,14.405-60.634,28.564-88.714c11.032-21.878,24.772-41.778,43.022-58.294c23.211-21.006,50.236-32.476,81.859-32.556
		c21.914-0.055,37.928,9.285,47.872,28.887c0.229,0.452,0.185,1.318,1.238,1.054c1.388-6.289,2.779-12.606,4.176-18.922
		c1.398-6.316,3.366-7.959,9.98-7.969c23.332-0.033,46.664-0.039,69.996,0.003c6.755,0.012,9.048,2.803,7.753,9.438
		c-3.021,15.481-6.138,30.943-9.215,46.413c-5.539,27.846-11.078,55.691-16.614,83.538c-4.532,22.797-9.094,45.588-13.57,68.396
		c-1.599,8.147-3.262,16.296-3.775,24.61c-0.77,12.476,6.318,23.288,18.004,27.592c1.741,0.641,3.459,0.835,5.353,0.73
		c12.423-0.69,23.138-5.472,32.636-13.283c3.886-3.196,4.904-3.118,8.659,0.808c0.358,1.858-0.043,3.635-0.599,5.387
		c-2.36,7.442-5.13,14.733-8.736,21.66c-7.433,14.277-17.445,26.341-31.125,35.051c-15.248,9.709-31.963,13.514-49.955,12.034
		c-24.748-2.036-42.224-14.483-52.848-36.761c-3.145-6.596-4.574-13.674-5.249-21.395c-0.664,0.927-1.086,1.412-1.394,1.961
		c-13.682,24.398-33.713,41.324-60.144,50.396c-13.939,4.784-28.23,7.676-43.107,4.779c-31.952-6.222-52.294-25.046-61.377-56.244
		c-0.798-2.742-0.629-5.757-2.27-8.555c-6.75,11.421-14.024,22.134-22.606,31.924c-20.271,23.126-45.715,34.824-76.512,34.448
		c-14.851-0.181-28.496-4.303-40.4-13.516c-17.162-13.283-26.007-30.947-26.396-52.44c-0.351-19.365,2.937-38.423,6.923-57.343
		c5.578-26.475,12.365-52.69,17.129-79.338c2.109-11.798,3.958-23.646,3.416-35.7c-0.262-5.842-1.265-11.527-3.808-16.89
		c-4.372-9.217-12.022-12.795-21.553-11.828c-13.129,1.333-23.274,7.987-29.611,19.49c-6.499,11.797-11.326,24.357-14.016,37.63
		c-4.946,24.407-9.822,48.828-14.749,73.24c-5.42,26.856-10.865,53.708-16.299,80.562c-2.964,14.647-5.908,29.298-8.906,43.938
		c-1.113,5.433-3.785,7.611-9.257,7.771c-0.333,0.01-0.667,0.002-1,0.002c-22.666,0-45.333,0.004-67.999-0.01
		c-1.328-0.001-2.686,0-3.979-0.257c-2.814-0.561-4.642-2.671-4.8-5.565c-0.081-1.482-0.007-3.022,0.304-4.469
		c2.094-9.737,4.37-19.436,6.375-29.191c0.856-4.163,2.302-8.254,2.279-12.669c-0.362,0.116-0.581,0.117-0.67,0.225
		c-0.837,1.018-1.653,2.053-2.473,3.084c-8.091,10.178-16.279,20.264-26.288,28.688c-9.718,8.18-20.042,15.326-32.038,19.879
		c-18.216,6.914-37.137,7.015-55.641,3.398c-24.572-4.803-40.915-20.258-48.881-44.197c-2.149-6.457-2.944-13.152-3.087-20.134
		c-1.782,0.782-2.273,2.284-3.093,3.451c-8.359,11.884-17.498,23.123-28.141,33.033c-10.656,9.922-22.411,18.245-36.137,23.524
		c-16.037,6.168-32.63,7.589-49.549,5.692c-10.336-1.159-20.144-4.311-29.066-9.731c-18.548-11.268-27.576-28.561-30.953-49.404
		c-1.279-7.897-1.02-15.857-1.304-23.834c-1.669,0.284-2.015,1.773-2.718,2.81c-5.239,7.738-11.108,14.948-17.484,21.785
		c-17.38,18.639-37.768,33.035-61.102,43.161c-18.072,7.842-36.924,12.9-56.618,14.675c-14.327,1.291-28.641,1.59-42.783-1.302
		c-26.805-5.48-47.21-19.893-59.894-44.417c-10.884-21.045-13.419-43.635-11.539-66.917c0.345-4.271,0.674-8.502,0.338-12.649
		c-7.999,0-15.474,0-22.75,0c-0.953,0.974-0.976,1.993-1.11,2.98c-3.004,22.226-10.294,42.891-22.832,61.552
		c-22.146,32.96-53.936,51.978-91.418,62.462c-16.221,4.537-32.827,6.963-49.706,7.25c-3.711-0.001-7.421-0.001-11.132-0.002
		c-1.826-0.054-3.653-0.174-5.479-0.153c-15.185,0.18-30.138-1.634-44.924-5.041c-22.399-5.161-42.548-14.629-59.272-30.717
		c-15.42-14.833-24.643-32.691-26.388-54.187c0.014-4.369,0.029-8.738,0.043-13.106c0.387-3.133,0.553-6.312,1.196-9.391
		c5.022-24.04,17.11-43.576,38.122-56.657c25.562-15.913,53.988-22.543,83.802-23.891c7.997-0.362,15.978,0.143,23.924,1.082
		c10.236,1.209,20.526,1.916,30.715,3.566c8.026,1.3,16.091,2.362,24.138,3.53c0.227,0.176,0.553,0.55,0.666,0.494
		c0.567-0.28,0.393-0.746,0.146-1.181c-8.748-21.896-22.199-40.824-37.322-58.639c-12.826-15.11-26.041-29.889-38.875-44.992
		c-11.992-14.111-22.718-29.124-29.901-46.333c-10.021-24.007-12.071-48.574-3.766-73.477
		c10.213-30.624,31.588-51.368,59.656-65.893c15.779-8.166,32.664-12.809,50.186-15.446C206.045,1.361,208.881,1.984,211,0
		c0.667,0,1.333,0,2,0C216.066,1.386,220.284,1.386,224,0z M1347.003,369.657c0,2.165-0.091,4.335,0.016,6.494
		c0.483,9.803,1.089,19.599,4.672,28.894c6.05,15.692,15.369,17.226,29.663,16.307c5.746-0.37,10.744-3.214,15.517-6.306
		c14.351-9.294,22.951-22.857,28.073-38.743c3.875-12.017,5.437-24.606,8.018-36.939c6.32-30.202,12.386-60.457,18.566-90.689
		c1.096-5.363,2.407-10.687,3.341-16.077c1.887-10.884-5.585-23.807-16.155-28.386c-10.454-4.528-20.2-2.044-29.511,3.179
		c-7.957,4.463-14.148,11.024-19.696,18.153c-7.8,10.023-13.552,21.221-18.624,32.82c-8.816,20.163-14.608,41.235-18.736,62.764
		C1349.078,337.136,1346.901,353.29,1347.003,369.657z M213.26,352.979c-11.797-3.023-23.336-4.438-34.96-4.927
		c-16.693-0.702-33.172,1.069-49.485,4.773c-15.444,3.506-27.248,11.837-35.189,25.526c-3.973,6.848-6.538,14.213-6.332,22.222
		c0.536,20.796,14.457,36.373,31.003,41.483c8.516,2.63,17.227,3.456,26.095,3.233c19.406-0.489,35.399-8.253,47.806-23.011
		C208.933,402.374,213.816,378.731,213.26,352.979z M431.153,317.491c2.118,0.848,3.464-0.155,4.875-0.431
		c20.507-4.016,37.867-13.936,52.474-28.672c13.897-14.02,22.911-30.827,26.984-50.146c1.85-8.776,3.207-17.647,1.569-26.692
		c-1.798-9.927-8.167-19.088-22.292-15.652c-7.202,1.752-12.952,5.876-18.017,11.016c-8.976,9.109-15.279,20.054-20.727,31.476
		C444.033,263.519,436.535,290.076,431.153,317.491z"/>
	<path style="fill:#B1ACAC;" d="M0.872,402.064C0.581,402.038,0.291,402.017,0,402c0-4.333,0-8.667,0-13
		c0.31,0.101,0.615,0.086,0.915-0.043C0.901,393.326,0.886,397.695,0.872,402.064z"/>
	<path style="fill:#625C5C;" d="M224,0c-3.716,1.386-7.934,1.386-11,0C216.667,0,220.333,0,224,0z"/>
	<path style="fill:#B9B5B5;" d="M137,493c0.003-0.281-0.019-0.561-0.066-0.839c3.711,0.001,7.421,0.001,11.132,0.002
		C148.022,492.44,148,492.719,148,493C144.333,493,140.667,493,137,493z"/>
	<path style="fill:#252122;" d="M822.998,67.224c-1.208-20.994,16.279-45.011,44.184-44.897c24.487,0.1,44.371,19.514,44.429,45.074
		c0.056,24.733-19.216,44.31-44.288,44.409C838.772,111.924,821.819,88.092,822.998,67.224z"/>
</g>
</svg>
