<?xml version="1.0" encoding="iso-8859-1"?>
<!-- Generator: Adobe Illustrator 27.0.0, SVG Export Plug-In . SVG Version: 6.00 Build 0)  -->
<svg version="1.1" id="Layer_1" xmlns="http://www.w3.org/2000/svg" xmlns:xlink="http://www.w3.org/1999/xlink" x="0px" y="0px"
	 viewBox="0 0 1494 184" style="enable-background:new 0 0 1494 184;" xml:space="preserve">
<g>
	<path style="fill:#1B4A8B;" d="M98.967,182.885C98.25,183.149,97.345,183.081,97,184c-6,0-12,0-18,0
		c-0.707-1.863-2.589-1.367-3.849-1.594c-17.961-3.241-35.737-7.331-53.543-11.3c-3.214-0.716-5.931-1.997-8.223-4.308
		c-5.604-5.651-9.681-12.151-11.59-19.974C1.398,145.192,1.704,143.184,0,142c0-2,0-4,0-6c1.037-0.288,1.036-1.111,1.028-1.957
		c-0.056-5.982-0.106-11.964-0.157-17.946c0.041-11.134,0.116-22.267,0.115-33.401c-0.001-12.959-0.07-25.918-0.109-38.877
		c0.509-8.85,4.564-16.15,9.883-22.949c3.759-4.806,8.57-7.64,14.519-8.944c15.581-3.416,31.302-6.072,46.974-9
		C76.524,2.129,81.072,2.347,85,0c2,0,4,0,6,0c2.035,1.663,4.7,1.173,6.968,2.037c4.762,2.224,9.455,4.641,13.366,8.166
		c4.507,4.061,8.344,9.007,8.499,15.192c0.178,7.132,1.106,14.207,1.101,21.337c-0.022,32.328,0.006,64.656-0.028,96.984
		c-0.005,4.458-0.016,8.878-0.756,13.361c-1.391,8.431-5.256,15.058-11.846,20.436C105.425,179.863,102.127,181.186,98.967,182.885z
		 M17.786,110.633c-1.157,4.637,0.004,8.399,0.225,12.186c0.599,10.274,5.51,16.898,15.442,19.623
		c17.066,4.682,34.46,6.967,52.198,5.475c3.485-0.293,6.818-1.349,9.996-2.89c2.178-1.057,4.064-2.499,5.073-4.636
		c6.2-13.124,8.012-26.673,2.926-40.559c-2.49-6.798-7.395-11.308-14.655-13.013c-3.896-0.915-7.846-1.364-11.805-1.82
		c-9.752-1.122-19.554-1.467-29.35-1.871c-2.377-0.098-4.598-0.749-6.812-1.41c-1.794-0.536-3.43-1.707-3.841-3.63
		c-0.97-4.545-1.897-9.075-0.472-13.792c0.978-3.236,2.991-5.412,6.015-6.053c9.25-1.961,18.52-3.853,28.122-2.493
		c3.513,0.497,5.228,2.225,6.257,5.419c0.907,2.818,0.577,5.951,2.302,8.727c7.442,0.46,14.778-1.125,22.668-1.081
		c0.27-7.556,0.213-14.605-2.956-21.266c-1.729-3.635-4.605-6.088-8.357-7.439c-3.294-1.186-6.71-1.893-10.221-2.099
		c-9.504-0.558-18.984-0.201-28.385,1.21c-8.228,1.235-16.258,3.289-23.713,7.188c-3.693,1.931-6.29,4.604-7.675,8.699
		c-2.697,7.975-4.246,15.942-2.871,24.434c2.35,14.514,4.892,15.553,16.321,18.64c6.927,1.872,14.106,2.142,21.215,2.753
		c5.795,0.498,11.604,0.851,17.314,2.035c5.257,1.09,7.747,3.837,8.347,9.108c0.359,3.161,0.277,6.327-0.053,9.478
		c-0.653,6.223-3.36,9.026-9.546,9.343c-9.346,0.479-18.586-0.68-27.761-2.386c-4.625-0.86-7.067-3.62-8.144-8.249
		c-0.671-2.885,0.119-6.005-1.601-9.137C28.676,111.445,23.355,109.814,17.786,110.633z"/>
	<path style="fill:#4085B9;" d="M1494,106c-6.629,0-13.258,0-19.426,0c-1.788-1.829-1.258-3.594-1.394-5.21
		c-0.163-1.939-1.31-3.247-3.005-3.557c-7.739-1.416-15.505-1.961-23.012,1.122c-4.406,1.809-6.774,6.274-6.211,10.898
		c0.255,2.095,1.307,3.513,3.35,3.738c2.964,0.327,5.859,1.038,8.883,1.108c7.789,0.179,15.576,0.627,23.275,1.934
		c2.937,0.498,5.825,1.2,8.572,2.454c3.517,1.605,5.501,4.398,5.842,8.077c0.702,7.585-0.424,14.931-4.106,21.699
		c-4.377,8.044-11.904,11.086-20.38,12.666c-13.369,2.494-26.773,2.385-40.033-0.205c-10.628-2.076-14.482-6.94-13-20.112
		c0.125-1.111,0.673-2.175,1.092-3.471c6.646,0,13.247,0,20.196,0c-0.25,1.6-0.623,3.13-0.703,4.676
		c-0.171,3.314,0.904,5.168,3.992,6.075c8.668,2.546,17.271,2.481,25.74-1.045c3.864-1.608,5.352-4.901,6.092-8.542
		c0.755-3.717-2.582-7.244-6.806-7.488c-6.13-0.355-12.273-0.505-18.397-0.933c-5.45-0.381-10.893-0.925-16.087-2.861
		c-5.41-2.016-8.27-5.866-8.467-11.663c-0.158-4.665,0.285-9.204,1.677-13.749c2.883-9.411,9.111-14.831,18.647-16.427
		c13.487-2.258,26.978-2.775,40.563-0.315c5.986,1.084,10.556,3.47,13.105,9.132C1494,98,1494,102,1494,106z"/>
	<path style="fill:#58699F;" d="M0,44c0.297-0.039,0.589-0.099,0.877-0.181c0.039,12.959,0.107,25.918,0.109,38.877
		c0.001,11.134-0.074,22.267-0.115,33.401C0.582,116.053,0.292,116.02,0,116C0,92,0,68,0,44z"/>
	<path style="fill:#878EB8;" d="M0,116c0.292,0.02,0.582,0.053,0.871,0.097c0.052,5.982,0.101,11.964,0.157,17.946
		C1.036,134.889,1.037,135.712,0,136C0,129.333,0,122.667,0,116z"/>
	<path style="fill:#3E82B8;" d="M98.967,182.885c3.161-1.699,6.459-3.022,9.338-5.372c6.59-5.378,10.455-12.005,11.846-20.436
		c0.74-4.483,0.751-8.903,0.756-13.361c0.033-32.328,0.005-64.656,0.028-96.984c0.005-7.13-0.922-14.205-1.101-21.337
		c-0.155-6.186-3.992-11.131-8.499-15.192c-3.911-3.525-8.604-5.942-13.366-8.166c5.853-0.457,11.571,0.899,17.35,1.383
		c7.259,0.608,14.476,1.715,21.709,2.62c9.861,1.233,19.718,2.497,29.581,3.712c6.417,0.791,12.852,1.436,19.259,2.294
		c8.528,1.142,17.166,1.761,25.498,3.97c11.053,2.93,17.206,10.602,19.687,21.553c0.743,3.282,0.864,6.566,0.857,9.898
		c-0.063,30.317-0.269,60.635-0.057,90.95c0.086,12.322-5.116,20.923-15.851,26.528c-6.252,3.264-12.906,5.159-19.873,5.97
		c-12.012,1.399-23.997,2.977-35.96,4.754c-6.719,0.997-13.507,1.519-20.254,2.334c-9.378,1.133-18.737,2.427-28.124,3.476
		C107.517,181.957,103.313,183.091,98.967,182.885z M220.666,99.976c0-6.206,0-11.619,0-17.393
		c-11.237-1.428-22.424,0.502-33.491-1.785c-0.602-11.383,0.242-22.469-0.65-33.625c-6.848-0.727-13.042-1.385-20.137-2.139
		c-0.832,12.041,1.718,23.719,0.031,35.993c-11.119-0.819-21.971-1.284-33.271-0.916c0.11,6.736-0.336,13.114,0.497,19.685
		c5.765,1.683,11.192-0.122,16.563,0.248c5.408,0.373,10.868-0.054,16.679,0.201c0.482,12.187,0.02,23.748,0.55,35.799
		c6.909-0.554,13.078-1.049,19.23-1.543c0.835-4.343,0.337-8.17,0.43-11.969c0.089-3.66-0.143-7.333,0.064-10.984
		c0.211-3.716-0.91-7.56,0.728-11.574C198.844,99.976,209.608,99.976,220.666,99.976z"/>
	<path style="fill:#1E4B8C;" d="M272.167,126.612c7.347,0,14.286,0,21.42,0c0.775,1.867,0.327,3.651-0.053,5.39
		c-0.431,1.974-0.693,3.951-0.376,5.945c0.548,3.438,2.343,5.498,5.773,5.991c11.588,1.665,23.206,1.968,34.794-0.001
		c3.845-0.653,6.621-2.891,8.327-6.463c2.114-4.426,3.192-9.086,3.227-13.968c0.026-3.674-1.315-5.561-4.891-6.539
		c-5.157-1.41-10.46-1.813-15.799-1.984c-10.973-0.353-21.931-0.955-32.601-3.867c-1.752-0.478-3.475-1.117-5.14-1.845
		c-4.194-1.834-6.455-5.156-6.835-9.66c-0.898-10.641,0.678-20.896,5.092-30.662c3.59-7.943,9.608-13.018,18.103-15.03
		c7.457-1.766,15.024-2.781,22.692-2.988c11.16-0.302,22.298-0.237,33.297,2.051c1.461,0.304,2.923,0.636,4.348,1.071
		c6.103,1.862,9.968,5.729,10.952,12.223c0.783,5.171,0.323,10.279-0.646,15.36c-0.142,0.743-0.827,1.382-1.374,2.25
		c-6.962,0-13.897,0-21.017,0c-0.916-2.546-0.156-5.037-0.306-7.461c-0.298-4.842-1.628-6.661-6.318-7.497
		c-9.938-1.771-19.9-1.329-29.782,0.39c-4.766,0.829-8.002,3.899-9.667,8.48c-1.203,3.312-1.767,6.758-1.725,10.277
		c0.058,4.862,1.16,6.137,5.912,7.025c6.059,1.131,12.187,1.609,18.333,1.896c8.64,0.404,17.256,0.977,25.722,2.938
		c10.995,2.547,16.424,6.218,15.037,20.93c-0.562,5.959-2.002,11.75-3.653,17.52c-4.028,14.082-13.618,20.928-27.786,22.565
		c-13.455,1.555-26.923,1.414-40.399,0.896c-5.142-0.198-10.265-0.984-15.161-2.737c-7.948-2.846-11.367-7.685-11.539-16.141
		C270.021,137.606,271.047,132.409,272.167,126.612z"/>
	<path style="fill:#4083B8;" d="M1198.12,52.106c0.921-0.076,1.741-0.204,2.56-0.202c19.322,0.027,38.644,0.03,57.966,0.131
		c5.506,0.029,10.845,1.201,16.071,2.945c7.217,2.409,10.633,7.779,11.189,14.959c1.061,13.693-1.889,26.722-7.444,39.179
		c-3.646,8.177-10.233,12.869-18.806,14.807c-5.991,1.355-12.059,2.167-18.247,2.108c-11.319-0.108-22.639-0.031-33.598-0.031
		c-1.851,0.901-2.48,2.138-2.762,3.72c-1.681,9.446-3.432,18.879-5.104,28.326c-0.213,1.205-0.627,2.221-1.891,3.493
		c-6.641,0.301-13.689,0.576-20.686-0.17c-1.335-4.003,0.174-7.372,0.802-10.689c4.094-21.622,8.451-43.195,12.632-64.801
		c1.854-9.584,3.517-19.204,5.224-28.816C1196.32,55.407,1196.711,53.833,1198.12,52.106z M1209.615,106.962
		c1.392,1.383,2.442,1.123,3.404,1.123c8.986,0.001,17.972-0.067,26.958-0.028c3.012,0.013,5.952-0.383,8.876-1.009
		c4.293-0.92,7.622-3.028,9.42-7.27c2.354-5.555,3.598-11.342,3.876-17.335c0.487-10.495-1.035-12.226-11.636-12.429
		c-10.48-0.2-20.966-0.09-31.45-0.095c-0.645,0-1.29,0.181-2.504,0.364C1214.225,82.615,1211.878,95.009,1209.615,106.962z"/>
	<path style="fill:#1F4B8C;" d="M437.967,161.429c-5.951-0.106-12.316-0.363-19.036,0.054c0.008-5.749,1.56-10.708,2.491-15.711
		c3.553-19.108,7.53-38.136,10.702-57.315c0.358-2.166,1.111-4.105,3.496-4.18c5.613-0.178,11.236-0.057,16.526-0.057
		c1.862,3.375-0.993,5.767-0.023,8.671c1.195-0.024,1.753-1.111,2.548-1.744c5.781-4.606,12.343-7.133,19.749-7.284
		c3.328-0.068,6.673-0.098,9.989,0.146c7.997,0.59,14.71,3.146,16.75,12.031c1.406-0.394,1.932-1.528,2.695-2.351
		c7.601-8.203,17.024-11.083,27.973-9.924c3.15,0.333,6.303,0.535,9.368,1.363c7.874,2.127,12.515,8.179,12.838,16.381
		c0.213,5.408-1.248,10.561-2.188,15.776c-2.591,14.373-5.429,28.702-8.153,42.965c-2.096,2.032-4.373,1.235-6.676,0.978
		c-2.14-0.239-4.326-0.065-6.492-0.061c-2.242,0.004-4.559,1.323-6.953-0.485c0.229-5.561,1.83-10.984,2.796-16.489
		c1.664-9.484,3.711-18.901,5.455-28.372c0.449-2.438,0.55-4.977,0.493-7.462c-0.138-6.024-3.137-9.07-9.202-9.63
		c-12.164-1.124-20.779,5.042-23.194,16.984c-2.799,13.838-5.33,27.73-7.947,41.604c-0.217,1.151-0.32,2.308-1.189,3.407
		c-0.474,0.517-1.303,0.98-2.086,0.846c-5.688-0.971-11.469,0.145-17.429-0.324c-0.015-5.344,1.483-9.949,2.313-14.631
		c2.176-12.268,4.523-24.506,6.862-36.745c1.463-7.655-1.94-10.273-7.608-11.325c-11.128-2.066-21.749,4.162-24.799,15.615
		c-1.748,6.563-2.756,13.327-4.027,20.014c-1.458,7.669-2.82,15.357-4.272,23.028C439.491,158.489,439.272,159.831,437.967,161.429z
		"/>
	<path style="fill:#204B8C;" d="M749.801,153.799c-4.227,2.935-8.405,5.924-13.534,7.207c-9.783,2.446-19.484,1.76-28.976-1.157
		c-6.94-2.133-10.18-7.378-10.485-14.708c-0.572-13.75,8.421-29.074,27.894-30.272c5.479-0.337,10.899-0.723,16.401-0.029
		c5.586,0.705,10.773,1.963,15.014,7.016c1.719-6.603,3.245-12.62,2.819-18.932c-0.205-3.042-2.229-4.802-5.033-5.483
		c-6.068-1.474-12.117-1.529-18.196,0.258c-4.664,1.372-6.841,4.936-8.549,9.043c-6.762,0-13.349,0-19.952,0
		c0.83-11.641,6.904-19.001,17.706-21.275c13.509-2.844,27.073-2.797,40.613-0.128c1.78,0.351,3.53,0.951,5.226,1.612
		c5.937,2.315,8.741,6.887,9.105,13.081c0.346,5.882-1.116,11.582-2.129,17.287c-2.467,13.895-5.267,27.732-7.957,41.587
		c-0.122,0.63-0.488,1.213-0.768,1.883c-0.637,0.261-1.267,0.769-1.848,0.717c-5.462-0.486-10.916-0.408-16.378-0.041
		c-0.403,0.027-0.841-0.458-1.459-0.82c-0.247-2.15,1.216-4.053,1.215-6.187c0.323-0.39,0.6-0.925,0.167-1.254
		C750.16,152.796,749.981,153.405,749.801,153.799z M732.554,149.462c2.622-0.158,5.289-0.208,7.928-0.503
		c3.545-0.396,6.791-1.627,9.381-4.195c2.565-2.543,4.587-5.45,3.768-9.26c-0.901-4.19-3.986-6.317-7.947-7.388
		c-6.101-1.649-12.191-1.435-18.23,0.21c-6.336,1.726-9.375,5.61-9.787,12.214c-0.333,5.357,1.483,7.673,6.878,8.396
		C727.176,149.289,729.852,149.296,732.554,149.462z"/>
	<path style="fill:#1E4B8C;" d="M931.825,162.305c-7.171-0.092-14.294-0.313-21.28-2.234c-8.928-2.454-12.151-6.31-12.613-15.472
		c-0.776-15.399,2.434-30.096,8.298-44.207c3.172-7.633,8.941-12.594,17.25-14.428c13.983-3.087,28-3.424,42.055-0.737
		c10.75,2.055,14.991,6.535,15.016,17.164c0.035,15.46-3.181,30.378-9.799,44.395c-3.305,7.001-9.231,11.223-16.677,13.187
		c-2.881,0.76-5.832,1.41-8.79,1.683C940.816,162.069,936.313,162.108,931.825,162.305z M933.594,147.2
		c4.668-0.023,8.32-0.062,11.852-1.185c3.143-0.999,5.739-2.727,7.052-5.838c4.499-10.657,7.068-21.739,6.818-33.361
		c-0.091-4.238-1.449-5.927-5.627-7.022c-6.873-1.8-13.795-1.524-20.688,0.015c-4.051,0.905-6.869,3.451-8.325,7.185
		c-4.01,10.284-6.18,20.969-5.95,32.039c0.095,4.566,1.471,5.815,6.018,7.259C927.998,147.328,931.324,146.957,933.594,147.2z"/>
	<path style="fill:#1E4B8C;" d="M1085.907,137.305c6.451-0.633,13.176-0.195,19.943-0.301c0,0.876,0.104,1.251-0.015,1.532
		c-2.31,5.435-0.548,8.849,6.718,10.393c6.834,1.453,13.552,1.015,20.163-1.13c4.273-1.386,7.149-4.127,7.964-8.72
		c0.747-4.206-1.146-7.093-5.286-8.196c-2.941-0.784-5.925-0.731-8.921-0.73c-7.827,0.003-15.645-0.214-23.29-2.118
		c-9.423-2.347-12.42-6.371-12.136-15.951c0.15-5.055,1.353-9.88,3.383-14.461c3.258-7.355,9.367-11.049,17.008-12.339
		c13.697-2.313,27.429-2.781,41.172-0.259c1.974,0.362,3.866,0.931,5.719,1.685c4.12,1.676,6.242,4.829,6.677,9.144
		c0.317,3.137,0.223,6.278-0.302,9.301c-3.748,1.052-14.079,1.2-19.333,0.34c-1.404-7.853-1.409-7.821-9.984-9.013
		c-5.541-0.771-10.981-0.334-16.214,1.557c-4.756,1.719-7.313,6.013-7.033,10.901c0.133,2.316,1.143,3.755,3.479,4.15
		c3.118,0.526,6.25,0.856,9.413,1.051c8.945,0.553,17.926,0.708,26.724,2.82c7.741,1.858,10.968,5.861,10.402,13.368
		c-0.188,2.487,0.047,5.068-0.537,7.452c-3.174,12.95-7.885,20.08-22.955,22.878c-13.322,2.474-26.816,2.239-40.242,0.251
		c-1.14-0.169-2.254-0.548-3.363-0.886C1085.15,157.006,1081.095,147.43,1085.907,137.305z"/>
	<path style="fill:#1F4B8C;" d="M1065.371,161.513c-6.518-0.283-12.871-0.5-19.24,0.05c-0.81-4.311,0.607-7.819,1.244-11.353
		c2.358-13.072,4.996-26.093,7.472-39.145c0.277-1.459,0.225-2.984,0.28-4.481c0.125-3.438-1.456-5.908-4.736-6.756
		c-8.744-2.26-17.184-1.969-24.54,4.11c-3.336,2.757-5.09,6.542-5.911,10.704c-2.38,12.053-4.622,24.134-7.011,36.185
		c-0.672,3.392-0.919,6.906-2.414,10.452c-6.432,0-12.801,0-19.946,0c4.873-25.659,9.658-50.854,14.473-76.208
		c6.845-1.354,13.264,0.929,19.64-0.942c0.695,3.432-1.557,5.995-0.797,8.774c1.839,0.673,2.46-0.897,3.334-1.662
		c5.22-4.564,11.351-6.765,18.166-7.31c5.969-0.477,11.949-0.642,17.746,1.124c7.471,2.276,13.628,7.27,13.049,18.135
		c-0.347,6.516-1.877,12.805-3.113,19.164c-2.186,11.248-4.202,22.529-6.321,33.79
		C1066.474,157.605,1066.015,159.028,1065.371,161.513z M1023.745,94.319c-0.091-0.057-0.236-0.199-0.291-0.17
		c-0.135,0.071-0.344,0.262-0.319,0.332c0.16,0.446,0.401,0.515,0.601,0.205C1023.792,94.6,1023.745,94.448,1023.745,94.319z"/>
	<path style="fill:#1F4B8C;" d="M577.454,85.571c0.982-0.874,1.95-1.357,2.935-1.172c5.54,1.039,11.165-0.139,17.031,0.211
		c-0.231,6.327-1.93,11.882-2.929,17.526c-1.911,10.797-4.13,21.539-6.214,32.306c-0.095,0.489-0.133,0.989-0.183,1.486
		c-0.799,8.024,1.424,10.687,9.415,11.176c3.155,0.193,6.337,0.358,9.435-0.438c7.99-2.052,12.767-7.366,15.111-15.097
		c2.32-7.653,3.416-15.565,4.925-23.388c1.447-7.498,2.832-15.008,4.184-22.19c0.836-1.21,1.886-1.694,2.8-1.554
		c5.718,0.876,11.496-0.024,17.836,0.201c-4.908,25.783-9.704,50.981-14.373,75.512c-1.439,1.278-2.434,1.686-3.408,1.46
		c-5.481-1.274-11.122,0.43-16.787-0.462c-0.203-3.476,2.081-6.048,1.678-9.099c-1.425,0.265-2.002,1.379-2.86,2.12
		c-5.741,4.952-12.335,7.822-19.965,7.963c-5.32,0.098-10.642,0.198-15.896-1.077c-8.386-2.034-12.956-7.713-13.215-16.403
		c-0.211-7.085,1.742-13.823,3.04-20.67c2.322-12.247,4.666-24.49,7.01-36.733C577.145,86.61,577.346,85.987,577.454,85.571z"/>
	<path style="fill:#4085B9;" d="M1374.811,152.83c-3.145,1.195-5.085,4.091-8.182,5.516c-4.764,2.192-9.56,3.782-14.821,3.719
		c-5.302-0.063-10.607,0.425-15.854-1.114c-10.075-2.955-13.534-13.023-12.349-20.534c2.736-17.345,6.768-34.437,9.522-51.768
		c0.21-1.32,0.651-2.565,1.778-4.176c5.983,0.03,12.292,1.182,18.418-0.413c1.349,4.184-0.195,7.19-0.732,10.19
		c-2.334,13.026-5.048,25.984-7.468,38.996c-0.451,2.423-0.324,4.987-0.213,7.474c0.163,3.678,0.788,4.664,4.52,5.494
		c15.114,3.363,26.664-1.341,30.405-18.603c2.734-12.614,4.833-25.366,7.144-38.069c0.273-1.498,0.583-2.913,1.417-4.176
		c1.006-0.661,2.156-1.431,3.243-1.066c5.276,1.77,10.764-0.628,16.703,0.601c-4.877,25.605-9.666,50.752-14.42,75.714
		c-2.496,0.984-17.092,1.077-19.683,0.217c-1.043-2.689,1.427-5.036,0.918-7.695c0.743-0.444,0.97-0.951,0.166-1.731
		C1375.122,151.964,1374.967,152.397,1374.811,152.83z"/>
	<path style="fill:#214C8C;" d="M801.815,99.613c-3.456-1.246-6.502-0.371-9.744-0.934c-0.521-4.769,1.195-9.087,1.996-13.482
		c3.453-1.788,7.114-0.082,10.678-1.257c1.093-5.346,2.181-10.669,3.325-16.263c6.605,0,13.009,0,19.766,0
		c0.366,5.438-2.066,10.407-2.21,15.685c1.177,1.98,3.139,1.573,4.904,1.378c7.644-0.847,15.307-0.164,22.957-0.39
		c1.025-0.03,1.993,0.117,3.087,1.337c-0.658,4.137-1.078,8.652-2.81,13.343c-10.516,0-20.767,0-31.266,0
		c-1.548,7.9-3.028,15.365-4.469,22.837c-0.881,4.569-1.709,9.148-2.551,13.725c-0.21,1.143-0.387,2.292-0.568,3.44
		c-1.155,7.362,4.502,9.542,10.051,7.777c4.845-1.54,6.741-5.642,7.962-10.116c0.431-1.58,0.235-3.349,2.057-5.138
		c4.881-0.387,10.28-0.266,16.251-0.032c-1.382,7.309-1.921,14.269-6.004,20.252c-3.066,4.492-7.577,6.904-12.581,8.489
		c-9.097,2.883-18.311,3.094-27.521,0.649c-7.996-2.122-11.983-7.994-11.347-16.39c0.567-7.483,2.436-14.752,3.735-22.114
		C798.839,114.894,800.336,107.409,801.815,99.613z"/>
	<path style="fill:#1E4B8C;" d="M678.067,52.055c6.452,0,12.719,0,18.963,0c0.347,3.443-18.294,103.203-20.202,108.453
		c-0.585,0.648-1.393,1.162-2.178,1.043c-5.718-0.87-11.496,0.016-17.18-0.24C657.181,157.526,675.951,58.142,678.067,52.055z"/>
	<path style="fill:#4083B8;" d="M1304.918,52.117c6.924,0,13.188,0,19.517,0c1.344,3.048-0.211,5.746-0.706,8.36
		c-4.395,23.233-9.038,46.418-13.556,69.628c-1.769,9.088-3.449,18.194-5.067,27.31c-0.305,1.72-0.55,3.286-2.724,4.212
		c-5.67-1.799-11.99,2.079-18.271-0.94C1291.07,124.379,1297.991,88.262,1304.918,52.117z"/>
	<path style="fill:#204B8C;" d="M876.433,161.102c-6.666,0.364-13.246,1.016-20.378,0.109c4.901-25.621,9.685-50.628,14.424-75.405
		c4.202-1.487,17.198-1.594,20.386-0.188C886.096,110.561,881.313,135.576,876.433,161.102z"/>
	<path style="fill:#204B8C;" d="M390.291,84.718c6.569-0.197,12.911,0.517,18.963-0.241c1.457,2.211,0.784,4.055,0.456,5.765
		c-4.092,21.335-8.243,42.658-12.427,63.976c-0.441,2.246-0.118,4.705-2.003,7.107c-6.046-0.189-12.412,1.065-19.533-0.385
		C380.569,135.669,385.369,110.517,390.291,84.718z"/>
	<path style="fill:#264E8F;" d="M894.17,67.657c-6.912-0.035-13.282,0.168-20.194-0.191c1.046-5.57,1.947-10.37,2.886-15.375
		c6.698,0,13.113,0,19.987,0C896.631,57.253,895.251,62.082,894.17,67.657z"/>
	<path style="fill:#264E8F;" d="M394.055,67.373c0-1.218-0.128-2.054,0.022-2.837c0.772-4.034,1.615-8.054,2.491-12.364
		c6.723,0,13.248,0,20.179,0c-0.848,5.206-1.616,10.155-3.081,15.201C407.145,67.373,400.907,67.373,394.055,67.373z"/>
</g>
</svg>
