<?xml version="1.0" encoding="iso-8859-1"?>
<!-- Generator: Adobe Illustrator 27.0.0, SVG Export Plug-In . SVG Version: 6.00 Build 0)  -->
<svg version="1.1" id="Layer_1" xmlns="http://www.w3.org/2000/svg" xmlns:xlink="http://www.w3.org/1999/xlink" x="0px" y="0px"
	 viewBox="0 0 1476 348" style="enable-background:new 0 0 1476 348;" xml:space="preserve">
<g>
	<path style="fill:#5D6972;" d="M723,0c0.001,88.824,0.006,177.649-0.02,266.473c-0.001,2.092,0.619,4.378-1.564,6.529
		c-4.421,0.282-9.225,0.241-14.027-0.048c-2.727-0.164-4.144-1.834-4.642-4.414c-0.878-4.553-1.763-9.104-2.643-13.656
		c-0.409-2.116-0.814-4.232-1.271-6.605c-4.516,4.297-8.55,8.702-13.105,12.571c-11.669,9.912-25.109,15.341-40.385,16.229
		c-14.27,0.83-27.77-1.696-40.233-9.029c-13.749-8.09-23.268-19.74-28.743-34.578c-4.904-13.291-7.873-26.994-8.615-41.267
		c-1.343-25.817,5.259-49.329,19.548-70.654c10.896-16.261,26.359-25.949,45.57-29.581c20.228-3.824,39.985-1.884,59.317,5.045
		c1.362,0.488,2.654,1.54,4.391,0.887c1.046-1.595,0.496-3.478,0.499-5.243c0.042-26.831,0.029-53.663,0.029-80.495
		c0-1-0.026-2.001,0.005-3c0.127-4.164,1.108-5.339,5.078-6.014c4.416-0.75,8.836-1.473,13.259-2.183
		C716.129,0.859,716.742,0.74,717,0C719,0,721,0,723,0z M696.675,123.447c-1.424-1.96-3.734-2.589-5.841-3.499
		c-15.152-6.548-31.085-8.461-47.319-6.815c-14.593,1.48-26.538,8.324-34.835,20.662c-8.027,11.937-12,25.363-13.941,39.523
		c-2.502,18.245,0.352,35.707,7.204,52.631c2.267,5.599,5.571,10.582,9.76,14.942c12.826,13.348,32.467,17.058,50.607,9.546
		c11.787-4.881,21.027-13.111,29.685-22.243c3.962-4.179,5.281-8.631,5.232-14.338c-0.247-28.804-0.1-57.612-0.077-86.419
		C697.149,126.106,697.231,124.781,696.675,123.447z"/>
	<path style="fill:#5D6972;" d="M0,254c1.839-2.341,1.554-5.24,1.992-7.923c0.637-3.906,1.032-7.85,1.514-11.65
		c2.535-1.294,4.072,0.431,5.679,1.38c8.924,5.267,18.447,9.146,28.359,12c8.788,2.53,17.789,3.868,26.95,4.581
		c8.581,0.668,16.875-0.208,25.113-2.304c20.502-5.217,32.495-19.988,34.632-38.52c2.125-18.42-3.914-33.363-19.284-44.054
		c-12.193-8.481-25.706-14.521-39.206-20.572c-13.362-5.989-26.376-12.625-38.094-21.552c-13.62-10.375-21.881-23.727-23.842-40.98
		C2.474,72.617,3.411,61.18,7.497,50.082c5.479-14.886,15.761-25.609,29.6-33.036C46.717,11.882,57,8.941,67.89,7.866
		c20.534-2.027,40.375,0.677,59.559,8.228c2.157,0.849,4.24,1.9,6.309,2.951c2.335,1.186,3.546,3.233,2.976,5.751
		c-1.506,6.655-2.483,13.369-3.008,20.163c-0.045,0.589-0.597,1.139-0.969,1.808c-2.074,0.143-3.521-1.137-4.997-2.034
		c-16.687-10.135-34.853-14.57-54.246-13.647C62.707,31.6,52.536,34.539,44.096,41.822c-11.249,9.707-15.358,22.11-13.54,36.632
		c1.525,12.176,8.051,21.107,18.027,27.962c10.333,7.1,21.514,12.528,32.891,17.637c15.019,6.745,29.82,13.856,43.133,23.736
		c14.457,10.729,23.536,24.854,26.07,42.618c2.73,19.141-0.239,37.375-11.217,53.814c-9.892,14.814-23.842,23.976-40.778,28.492
		c-16.259,4.335-32.869,4.325-49.513,2.447c-14.98-1.69-29.199-6.052-42.943-12.101C4.112,262.128,2.074,261.024,0,260
		C0,258,0,256,0,254z"/>
	<path style="fill:#105C72;" d="M1146,348c-0.504-1.319,0.417-2.224,0.995-3.182c5.84-9.67,11.746-19.3,17.542-28.997
		c1.399-2.34,3.143-4.24,5.318-5.848c14.175-10.485,28.343-20.98,42.466-31.536c2.087-1.56,4.184-2.565,6.862-2.342
		c12.409,1.029,24.885,1.248,37.651,3.079c-1.484,1.939-3.472,2.696-5.176,3.755c-33.442,20.797-66.91,41.554-100.34,62.37
		c-1.185,0.738-2.806,1.083-3.32,2.7C1147.333,348,1146.667,348,1146,348z"/>
	<path style="fill:#5D6973;" d="M1476,140c-30.787,19.051-61.575,38.102-92.336,57.137c-1.154-1.405-0.193-2.393,0.194-3.419
		c2.455-6.515,4.993-12.999,7.372-19.541c1.008-2.771,2.66-4.863,5.012-6.629c11.04-8.289,22.016-16.664,32.996-25.032
		c1.475-1.124,2.93-2.25,4.883-2.238c13.975,0.082,27.895-1.648,41.879-1.277C1476,139.333,1476,139.667,1476,140z"/>
	<path style="fill:#5D6973;" d="M909.345,272.911c-5.521,0-11.302,0-17.413,0c-2.726-3.135-2.135-7.335-2.919-11.123
		c-0.771-3.728-1.438-7.477-2.217-11.564c-5.151,4.015-9.9,8.106-15.084,11.647c-11.59,7.918-24.252,13.306-38.174,14.74
		c-15.406,1.586-30.647,0.752-44.091-8.468c-12.508-8.578-19.151-20.471-19.566-35.666c-0.214-7.809-0.246-15.622,2.206-23.216
		c4.378-13.556,13.442-23.104,25.543-30.035c13.243-7.585,27.676-11.937,42.487-15.094c13.641-2.908,27.456-4.764,41.331-6.158
		c1.164-0.117,2.335-0.183,3.656-1.541c0.298-9.003,0.943-18.512-3.236-27.398c-5.382-11.447-15.211-16.248-27.274-17.046
		c-18.581-1.23-36.331,2.606-53.549,9.325c-2.627,1.025-5.15,2.324-7.8,3.279c-1.985,0.715-3.89,2.039-6.901,1.171
		c-2.394-6.136-2.159-13.139-3.54-19.299c1.036-2.677,3.007-3.365,4.817-4.111c15.097-6.222,30.618-10.747,46.947-12.479
		c12.333-1.308,24.589-1.405,36.702,1.26c15.602,3.433,27.849,11.531,34.472,26.65c2.478,5.657,3.663,11.67,4.288,17.826
		c0.911,8.962,0.681,17.94,0.698,26.916c0.063,34.484,0.121,68.968,0.141,103.452C910.873,268.242,911.491,270.688,909.345,272.911z
		 M884.154,178.391c-0.676-0.073-1.344-0.28-1.969-0.191c-8.7,1.236-17.426,2.333-26.084,3.822
		c-12.617,2.17-24.953,5.363-36.604,10.879c-12.868,6.092-22.371,14.705-24.067,29.878c-1.317,11.791,4.188,26.163,18.546,30.482
		c10.109,3.041,20.07,2.271,29.957-0.44c14.893-4.084,27.434-12.426,39.069-22.316c2.081-1.769,2.12-3.954,2.116-6.323
		c-0.025-13.662,0-27.323-0.03-40.985C885.085,181.742,885.487,180.192,884.154,178.391z"/>
	<path style="fill:#5D6973;" d="M404.444,272.865c-7.684,0-15.615,0-23.553,0c-1.593-2.196-1.014-4.604-1.013-6.86
		c0.013-50.808,0.074-101.615,0.111-152.423c0.004-4.995-0.1-9.991-0.132-14.986c-0.011-1.643-0.147-3.322,1.136-5.515
		c5.746-0.266,11.829,0.042,18.364-0.162c2.994,8.179,2.344,17.015,5.053,25.525c4.413-3.46,8.519-6.792,12.743-9.968
		c11.125-8.364,23.079-15.119,36.911-17.811c14.664-2.854,29.083-2.468,42.818,4.271c13.56,6.653,21.023,17.904,24.036,32.356
		c1.427,6.843,1.754,13.845,1.771,20.806c0.093,39.314,0.051,78.629,0.028,117.944c-0.001,2.268,0.557,4.701-1.523,6.836
		c-7.583,0-15.342,0-22.81,0c-2.091-1.838-1.508-3.963-1.511-5.891c-0.034-22.489-0.022-44.978-0.022-67.467
		c0-16.992-0.003-33.984,0.002-50.976c0.001-5.013-0.573-10.001-2.025-14.756c-4.31-14.11-13.994-21.057-28.785-21.739
		c-10.56-0.486-20.325,2.625-29.544,7.583c-8.386,4.51-15.991,10.155-23.231,16.298c-6.197,5.258-8.02,12.129-7.702,20.037
		c0.375,9.313,0.305,18.647,0.316,27.971c0.034,27.487,0.021,54.974-0.005,82.461C405.875,268.513,406.369,270.769,404.444,272.865z
		"/>
	<path style="fill:#5D6972;" d="M198.122,340.654c-1.995-7.34-2.821-14.628-3.918-21.787c2.265-1.289,4.012-0.622,5.788-0.331
		c5.127,0.84,10.323,0.995,15.421,0.154c8.585-1.416,14.823-6.403,19.2-13.791c2.631-4.44,4.498-9.243,6.419-14.016
		c1.301-3.23,2.494-6.522,4.052-9.627c2.242-4.469,2.323-8.803,0.512-13.451c-6.085-15.613-12.025-31.283-18.003-46.938
		c-15.03-39.358-30.059-78.717-45.053-118.089c-0.866-2.274-2.279-4.504-1.187-7.832c7.395-1.356,15.09-2.767,22.184-4.068
		c2.941,1.76,3.424,4.171,4.199,6.309c16.106,44.45,32.163,88.917,48.243,133.376c1.348,3.726,2.795,7.415,4.494,11.909
		c4.532-12.9,8.796-25.018,13.048-37.14c12.516-35.682,25.027-71.366,37.541-107.049c1.772-5.053,2.398-5.436,7.518-5.392
		c6.978,0.06,13.957,0.015,21.352,0.015c-3.965,10.62-7.714,20.716-11.501,30.797c-14.47,38.513-28.937,77.026-43.435,115.528
		c-8.302,22.048-16.58,44.106-25.041,66.093c-3.12,8.107-7.531,15.466-13.516,21.931c-11.849,12.799-26.759,15.774-43.239,14.17
		C201.722,341.283,200.261,340.985,198.122,340.654z"/>
	<path style="fill:#5D6972;" d="M955.437,94.739c8.192-1.69,16.073-3.316,24.527-5.06c15.999,23.789,31.314,47.836,47.464,71.929
		c6.807-10.257,13.261-19.929,19.659-29.636c7.686-11.662,15.384-23.317,22.944-35.061c1.933-3.004,4.289-4.186,7.864-4.069
		c7.133,0.233,14.279,0.069,22.552,0.069c-9.88,15.251-19.828,29.242-29.46,43.437c-9.698,14.291-19.524,28.496-29.032,42.357
		c0.172,3.113,1.75,4.903,3.05,6.796c18.817,27.421,37.655,54.828,56.473,82.247c0.642,0.935,1.615,1.723,1.567,3.705
		c-7.88,1.487-15.91,3.003-24.584,4.64c-8.912-12.423-16.989-25.547-25.544-38.341c-8.483-12.687-16.924-25.4-25.64-38.486
		c-2.669,2.545-4.052,5.407-5.73,7.985c-13.246,20.338-26.48,40.686-39.514,61.161c-2.243,3.524-4.753,4.994-8.914,4.818
		c-6.969-0.295-13.958-0.081-21.122-0.081c0.023-2.325,1.373-3.626,2.347-5.069c18.05-26.74,36.115-53.471,54.177-80.203
		c0.652-0.965,1.266-1.958,1.965-2.887c2.173-2.884,2.197-5.486-0.022-8.596c-6.374-8.934-12.442-18.085-18.644-27.141
		c-11.088-16.191-22.201-32.364-33.257-48.576C957.452,99.048,956.041,97.549,955.437,94.739z"/>
	<path style="fill:#D6273A;" d="M1271.294,267.287c-0.238-0.96-0.458-1.318-0.366-1.55c4.626-11.588,9.213-23.212,18.552-32.062
		c3.747-3.55,7.626-6.962,12.021-9.714c8.061-5.046,15.504-10.938,22.909-16.867c2.75-2.202,5.605-3.093,9.168-3.039
		c12.624,0.195,25.253,0.076,38.267,0.879C1338.437,225.652,1305.029,246.368,1271.294,267.287z"/>
	<path style="fill:#4F8A9A;" d="M1181.862,205.651c25.749,20.993,50.679,41.32,76.357,62.255c-3.801,0-6.692-0.009-9.584,0.002
		c-7.323,0.028-14.649-0.028-21.97,0.124c-6.653,0.138-11.842-2.528-15.947-7.629c-5.838-7.255-11.954-14.273-18.534-20.863
		c-4.243-4.25-7.115-9.07-7.811-15.143C1183.698,218.497,1182.806,212.622,1181.862,205.651z"/>
	<path style="fill:#EC6B70;" d="M1280.769,147.103c30.069,16.073,60.138,32.146,90.188,48.209c-0.889,2.001-2.224,1.442-3.277,1.45
		c-9.986,0.081-19.975-0.012-29.958,0.19c-6.602,0.133-12.486-1.752-17.61-5.735c-8.659-6.729-17.66-12.969-26.718-19.131
		c-2.275-1.548-4.211-3.299-5.308-5.779c-2.73-6.17-5.333-12.396-7.987-18.6C1280.322,147.506,1280.546,147.304,1280.769,147.103z"
		/>
	<path style="fill:#8C949A;" d="M1474.404,131.368c-4.185,1.263-7.573,1.48-11.017,1.636c-10.082,0.457-20.153,1.143-30.23,1.704
		c-2.393,0.133-4.5-0.935-6.575-1.914c-7.787-3.675-15.536-7.428-23.313-11.126c-4.784-2.275-9.58-4.526-14.393-6.741
		c-2.949-1.357-5.272-3.455-7.227-5.974c-3.353-4.32-6.645-8.688-9.955-13.042c-0.291-0.383-0.555-0.805-0.045-1.677
		C1405.598,106.502,1439.646,118.807,1474.404,131.368z"/>
	<path style="fill:#F3A824;" d="M1184.892,197.534c1.503-3.293,4.049-5.957,5.815-9.07c5.309-9.356,12.707-16.385,21.995-21.781
		c6.022-3.499,11.585-7.794,17.305-11.802c5.334-3.737,11.161-5.713,17.724-5.624c7.486,0.101,14.975,0.023,23.332,0.023
		c-28.857,16.63-57.096,32.902-85.334,49.175C1185.45,198.148,1185.171,197.841,1184.892,197.534z"/>
	<path style="fill:#F15926;" d="M1280.982,140.44c3.672-6.243,7.323-12.499,11.036-18.718c0.784-1.312,2.202-1.975,3.44-2.817
		c8.24-5.607,16.515-11.167,24.662-16.907c5.196-3.661,10.813-5.652,17.189-5.676c7.64-0.029,15.218-1.423,22.91-1.167
		C1358.057,97.722,1289.203,137.852,1280.982,140.44z"/>
	<path style="fill:#F8C160;" d="M1208.003,108.997c3.901-0.024,6.76,2.542,9.921,4.196c14.109,7.383,28.113,14.968,42.146,22.496
		c3.634,1.95,7.237,3.959,10.701,5.856c0.004,1.203-0.565,1.387-1.274,1.445c-9.277,0.765-18.571,1.053-27.878,1.144
		c-2.436,0.024-4.445-0.489-6.437-2.001c-6.743-5.116-13.636-10.033-20.435-15.076c-2.03-1.506-3.66-3.275-4.113-5.998
		c-0.674-4.056-2.675-7.834-2.636-12.058L1208.003,108.997z"/>
	<path style="fill:#F68E4D;" d="M1288.516,62.887c23.851,8.55,47.702,17.101,71.552,25.651c-0.042,0.351-0.084,0.702-0.126,1.052
		c-2.329,0.39-4.644,0.917-6.988,1.145c-7.586,0.738-15.187,1.325-22.772,2.065c-2.089,0.204-3.896-0.307-5.725-1.22
		c-8.01-3.996-16.058-7.917-24.077-11.896c-3.981-1.976-7.061-4.818-8.868-9.008c-1.042-2.416-2.439-4.678-3.675-7.01
		C1288.064,63.407,1288.29,63.147,1288.516,62.887z"/>
	<path style="fill:#2399AC;" d="M1280.204,64.558c-23.828,13.147-47.053,25.899-71.378,38.988
		C1221.497,81.783,1250.441,62.317,1280.204,64.558z"/>
	<path style="fill:#45B6C2;" d="M1279.768,60.113c-7.759,0.552-15.12,2.628-22.702,2.926c-3.401,0.134-6.523-0.599-9.61-1.947
		c-5.931-2.59-11.372-6.053-16.921-9.321c-1.737-1.023-3.029-2.51-3.531-4.606c-0.528-2.206-1.225-4.371-2.111-7.473
		C1243.712,46.293,1261.855,52.696,1279.768,60.113z"/>
	<path style="fill:#F8C160;" d="M1207.998,109.002c-0.219-0.15-0.439-0.299-0.658-0.449c0.658-0.506,0.625,0.022,0.664,0.443
		C1208.003,108.997,1207.998,109.002,1207.998,109.002z"/>
</g>
</svg>
