<?xml version="1.0" encoding="iso-8859-1"?>
<!-- Generator: Adobe Illustrator 27.0.0, SVG Export Plug-In . SVG Version: 6.00 Build 0)  -->
<svg version="1.1" id="Layer_1" xmlns="http://www.w3.org/2000/svg" xmlns:xlink="http://www.w3.org/1999/xlink" x="0px" y="0px"
	 viewBox="0 0 1400.129 1462.995" style="enable-background:new 0 0 1400.129 1462.995;" xml:space="preserve">
<g>
	<path style="fill:#144B8E;" d="M1150,0c-46.131,86.274-92.262,172.549-138.487,259c-2.114,0-4.097,0-6.08,0
		c-106.332,0-212.664,0.015-318.996-0.014c-18.84-0.005-37.675,0.601-56.321,3.2c-39.091,5.449-76.809,15.68-112.379,33.276
		c-37.559,18.58-71.09,42.583-99.779,73.159c-12.803,13.645-23.453,28.943-33.183,44.927c-16.062,26.386-27.616,54.55-34.429,84.674
		c-4.431,19.59-6.072,39.437-5.715,59.487c0.643,36.111,8.779,70.492,23.707,103.323c1.925,4.233,4.586,8.105,6.101,12.535
		c-0.191,0.18-0.376,0.365-0.555,0.557c-5.175-2.336-9.729-5.707-14.448-8.785c-16.774-10.941-32.472-23.282-47.46-36.56
		c-23.051-20.421-43.635-43.097-61.162-68.38c-19.235-27.746-34.789-57.493-45.771-89.511
		c-6.432-18.752-10.917-37.962-14.277-57.513c-2.808-16.338-3.895-32.706-3.54-49.214c0.643-29.931,5.368-59.216,13.832-87.937
		c10.744-36.459,27.328-69.978,50.078-100.426c13.509-18.081,28.846-34.471,45.684-49.504c29.569-26.4,62.824-47.008,98.646-63.747
		c38.91-18.182,79.614-30.895,121.357-40.532c22.852-5.276,45.978-8.984,69.2-12.206c18.3-2.539,36.649-4.495,55.057-6.023
		c15.934-1.323,31.892-2.174,47.858-2.925c2.151,0.058,4.301,0.169,6.452,0.165c31.521-0.051,63.042-0.116,94.564-0.178
		c0.493,0.058,0.986,0.168,1.478,0.168c32.172-0.037,64.345-0.082,96.518-0.127c0.993,0.047,1.986,0.135,2.978,0.134
		c34.675-0.021,69.351-0.05,104.026-0.078c35.662,0.012,71.324,0.027,106.986,0.02c1.085,0,2.398,0.475,3.061-0.965
		C1120,0,1135,0,1150,0z"/>
	<path style="fill:#164B8F;" d="M0,1441c3.812-6.824,6.045-14.312,8.981-21.502c5.089-12.464,9.971-25.012,14.916-37.535
		c0.427-1.082,0.697-2.222,1.666-3.08c4.46,1.505,8.166,4.336,11.923,7.057c11.536,8.356,24.308,13.632,38.431,15.625
		c6.581,0.929,12.952,0.163,19.095-2.31c5.408-2.177,8.341-6.361,8.278-11.279c-0.045-3.476-1.569-5.961-4.417-7.884
		c-3.868-2.611-8.336-3.246-12.729-4.067c-9.144-1.709-18.458-2.655-27.423-5.144c-16.774-4.657-31.485-12.652-41.339-27.704
		c-5.129-7.835-7.82-16.641-8.2-25.864c-1.335-32.451,12.679-56.761,40.222-73.424c16.587-10.034,34.754-14.537,54.105-15.238
		c25.78-0.933,49.792,4.865,72.237,17.441c1.144,0.641,2.428,1.113,3.507,2.712c-7.275,18.851-14.652,37.963-22.262,57.681
		c-2.559-1.566-4.738-2.941-6.956-4.249c-9.371-5.53-19.206-9.888-30.002-11.794c-5.791-1.022-11.619-0.943-17.425-0.319
		c-2.851,0.306-5.394,1.665-7.589,3.539c-6.155,5.255-4.849,13.43,2.694,16.245c5.142,1.919,10.532,2.998,15.897,4.147
		c11.858,2.539,23.744,5.026,34.906,9.989c14.814,6.587,26.582,16.463,32.947,31.734c4.223,10.132,5.444,20.765,4.65,31.76
		c-0.881,12.193-4.196,23.511-10.54,33.933c-8.815,14.482-21.764,24.185-36.972,30.898c-20.5,9.049-41.991,11.864-64.343,9.911
		c-21.203-1.853-41.685-6.345-61.454-14.157c-2.779-1.098-5.434-2.511-8.209-3.62c-1.489-0.595-2.752-1.982-4.597-1.504
		C0,1442.333,0,1441.667,0,1441z"/>
	<path style="fill:#425E9B;" d="M1105,0c-0.663,1.441-1.976,0.965-3.061,0.965c-35.662,0.007-71.324-0.008-106.986-0.02
		C994.99,0.632,995.006,0.316,995,0C1031.667,0,1068.333,0,1105,0z"/>
	<path style="fill:#6775AA;" d="M995,0c0.006,0.316-0.01,0.632-0.047,0.946c-34.675,0.028-69.351,0.057-104.026,0.078
		c-0.993,0.001-1.986-0.088-2.978-0.134C887.99,0.595,888.007,0.298,888,0C923.667,0,959.333,0,995,0z"/>
	<path style="fill:#A9AECE;" d="M789.953,0.849c-31.521,0.062-63.042,0.128-94.564,0.178c-2.151,0.003-4.301-0.108-6.452-0.165
		C689.009,0.578,689.03,0.291,689,0c33.667,0,67.333,0,101,0C790.004,0.284,789.988,0.567,789.953,0.849z"/>
	<path style="fill:#878FBA;" d="M789.953,0.849C789.988,0.567,790.004,0.284,790,0c32.667,0,65.333,0,98,0
		c0.007,0.298-0.01,0.595-0.051,0.89c-32.172,0.045-64.345,0.09-96.518,0.127C790.938,1.017,790.445,0.907,789.953,0.849z"/>
	<path style="fill:#154B8E;" d="M960.211,486.785c6.251,3.143,12.088,6.978,17.874,10.874c32.555,21.919,61.3,48.069,86.273,78.323
		c22.391,27.126,40.63,56.806,54.606,89.133c10.141,23.455,17.556,47.681,22.448,72.751c4.656,23.862,5.588,47.837,3.915,72.053
		c-1.184,17.141-3.512,34.07-7.324,50.79c-7.932,34.793-20.601,67.682-39.321,98.2c-21.331,34.774-48.367,64.34-80.461,89.381
		c-39.127,30.529-82.929,52.223-129.528,68.711c-30.468,10.781-61.671,18.714-93.321,25.05
		c-21.692,4.342-43.553,7.537-65.514,10.166c-17.187,2.058-34.429,3.433-51.663,4.964c-20.276,1.801-40.577,2.017-60.902,2.016
		c-36.829-0.003-73.658-0.061-110.486,0.18c-105.815,0.691-211.631,0.378-317.446,0.621c-1.953,0.004-3.906,0.001-6.358,0.001
		c46.323-86.462,92.368-172.406,138.565-258.632c1.689,0,3.506,0,5.322,0c104.653,0,209.306,0.016,313.96-0.023
		c11.496-0.004,23.005-0.048,34.486-0.564c26.336-1.183,52.204-5.572,77.683-12.259c47.374-12.433,89.979-34.361,128.33-64.697
		c39.523-31.263,68.467-70.461,87.954-116.848c7.642-18.192,12.972-37.042,16.4-56.375c3.439-19.395,4.561-39.078,3.073-58.73
		c-2.43-32.084-9.79-63.022-23.394-92.32c-1.889-4.068-3.949-8.056-5.93-12.081C959.706,487.241,959.958,487.013,960.211,486.785z"
		/>
	<path style="fill:#144B8E;" d="M421.626,583.388c-0.612-132.495,106.942-243.559,243.547-243.354
		c136.163,0.205,243.051,110.781,242.953,243.562c-0.098,131.99-106.222,243.157-243.421,243.122
		C527.841,826.683,421.039,715.567,421.626,583.388z"/>
	<path style="fill:#164B8F;" d="M615.233,1356.781c-0.856-5.425-1.593-10.649-2.517-15.84c-2.102-11.809-3.391-23.687-3.883-35.682
		c-0.971-23.651-0.19-47.306-0.454-70.957c-0.007-0.641,0.13-1.283,0.228-2.18c26.384,0,52.619,0,79.124,0
		c0,75.613,0,151.199,0,227.149c-25.99,0-52.052,0-78.597,0c-4.288-7.037-8.786-14.401-13.267-21.774
		c-19.005-31.269-37.993-62.55-57.049-93.788c-0.932-1.527-1.349-4.058-4.159-3.45c-0.531,0.528-0.623,1.161-0.526,1.846
		c1.651,11.687,3.597,23.339,4.176,35.154c0.147,2.992,0.517,5.98,0.523,8.97c0.045,23.328,0.027,46.657,0.02,69.985
		c0,0.974-0.083,1.948-0.139,3.167c-26.105,0-52.029,0-77.963,0c-1.027-3.771-1.518-213.423-0.501-227.911
		c25.719,0,51.466,0,77.517,0c1.44,1.014,2.122,2.966,3.112,4.65c23.014,39.131,45.986,78.287,68.978,117.431
		C610.908,1355.342,611.517,1357.817,615.233,1356.781z"/>
	<path style="fill:#154B8E;" d="M826.509,1462.98c-24.129-0.364-48.821-5.893-71.254-19.779
		c-27.482-17.012-43.964-41.746-49.87-73.231c-4.706-25.088-2.338-49.787,8.332-73.212c12.701-27.883,34.001-47.142,62.25-58.191
		c38.812-15.181,77.534-14.17,115.035,4.466c32.723,16.261,52.92,42.864,60.533,78.589c3.21,15.061,3.238,30.366,0.672,45.669
		c-4.094,24.418-14.427,45.478-32.632,62.478c-14.92,13.932-32.504,22.956-52.117,28.184
		C854.694,1461.355,841.677,1462.921,826.509,1462.98z M871.047,1346.982c0.146-2.834-0.232-6.299-1.035-9.716
		c-3.988-16.969-13.792-28.94-31.053-32.861c-17.504-3.977-32.992,0.861-43.857,15.55c-11.103,15.01-11.904,31.699-4.377,48.629
		c4.962,11.16,13.796,18.145,25.517,21.328c6.126,1.663,12.368,2.107,18.766,1.272c14.078-1.837,24.53-8.768,31.098-21.366
		C869.713,1362.899,871.109,1355.429,871.047,1346.982z"/>
	<path style="fill:#154B8E;" d="M1270.177,1462.936c-22.642-0.376-47.949-6.221-70.703-20.952
		c-23.999-15.536-39.344-37.319-46.419-65.008c-1.282-5.016-2.105-10.096-2.68-15.205c-2.684-23.839,0.327-46.894,11.143-68.437
		c14.407-28.697,37.658-47.529,67.896-57.456c37.778-12.402,74.854-10.176,110.237,8.409c31.144,16.358,50.429,42.325,57.926,76.632
		c2.844,13.015,3.168,26.334,1.684,39.738c-1.539,13.902-5.097,27.134-11.356,39.53c-12.816,25.381-33.229,42.462-59.434,52.852
		C1311.442,1459.791,1293.469,1462.968,1270.177,1462.936z M1317.195,1346.262c0.102-2.324-0.237-6.305-1.252-10.185
		c-4.249-16.249-13.921-27.7-30.537-31.597c-16.656-3.906-31.382,0.45-42.778,13.627c-11.763,13.602-13.762,35.418-5.07,52.046
		c5.211,9.969,13.433,16.311,24.083,19.611c3.349,1.038,6.832,1.468,10.314,1.673c11.921,0.703,22.766-2.059,31.772-10.323
		C1313.441,1372.2,1317.09,1360.793,1317.195,1346.262z"/>
	<path style="fill:#154B8E;" d="M316.96,1462.995c-24.233-0.334-47.614-5.198-69.091-17.447
		c-28.856-16.457-46.802-41.172-53.404-73.556c-5.423-26.6-2.941-52.809,8.995-77.449c13.744-28.372,36.3-47.344,65.827-57.713
		c38.263-13.436,75.994-11.62,112.154,7.082c32.457,16.787,52.159,43.748,59.141,79.62c2.647,13.601,2.708,27.388,0.691,41.224
		c-2.817,19.331-9.48,36.994-21.491,52.441c-14.77,18.995-34.132,31.407-56.874,38.774
		C348.067,1460.781,332.794,1462.819,316.96,1462.995z M274.911,1347.753c0.014,5.299,0.347,10.517,2.168,15.603
		c3.095,8.643,7.957,15.926,15.672,21.046c11.131,7.386,23.185,9.055,36.127,5.871c11.353-2.793,19.728-9.282,25.414-19.366
		c2.046-3.629,3.116-7.575,4.058-11.662c3.945-17.106,0.234-32.158-12.227-44.479c-11.359-11.231-25.324-13.899-40.548-9.864
		C287.529,1309.686,274.333,1327.203,274.911,1347.753z"/>
	<path style="fill:#154B8E;" d="M1140.128,1369.37c0.203,14.861-0.637,28.648-1.071,42.444c-0.435,13.81-0.836,27.622-1.261,41.733
		c-3.902,2.508-8.462,3.401-12.945,4.412c-14.01,3.159-28.29,4.666-42.572,4.81c-38.587,0.389-70.677-13.711-94.928-44.329
		c-12.623-15.937-19.655-34.17-22.38-54.186c-4.014-29.489,1.678-56.982,17.748-82.028c11.081-17.27,25.928-30.69,44.174-40.267
		c13.267-6.963,27.33-11.514,42.218-12.784c15.965-1.361,31.891-0.508,47.595,3.154c6.962,1.624,13.844,3.482,21.059,5.801
		c1.157,28.156,2.316,56.361,3.48,84.693c-2.249-0.306-3.239-1.762-4.506-2.769c-9.841-7.821-20.243-14.39-32.688-17.572
		c-22.936-5.864-45.543,6.942-53.227,25.756c-11.133,27.259,5.298,54.843,31.878,60.658c15.566,3.405,30.037-0.076,43.439-8.375
		C1130.944,1377.551,1135.18,1373.802,1140.128,1369.37z"/>
	<path style="fill:#235091;" d="M1302.186,1071.111c0.335,43.231-35.11,80.876-81.089,80.677
		c-44.878-0.195-80.805-35.694-80.758-81.13c0.049-46.658,38.114-81.091,81.455-80.867
		C1266.089,990.019,1302.755,1026.477,1302.186,1071.111z M1296.418,1070.878c0.078-41.769-33.318-75.105-75.128-75.235
		c-40.093-0.125-74.954,31.837-75.132,74.797c-0.177,42.702,33.86,75.345,74.937,75.542
		C1262.738,1146.181,1296.34,1112.594,1296.418,1070.878z"/>
	<path style="fill:#154B8E;" d="M959.454,487.469c-0.287-0.344-0.743-0.758-0.286-1.149c0.445-0.382,0.837-0.024,1.042,0.465
		C959.958,487.013,959.706,487.241,959.454,487.469z"/>
	<path style="fill:#144B8E;" d="M374.439,673.568c0.302,0.293,0.81,0.648,0.38,1.041c-0.426,0.389-0.779-0.005-0.935-0.484
		C374.063,673.933,374.248,673.748,374.439,673.568z"/>
	<path style="fill:#194D8F;" d="M1274.442,1055.421c-10.179,5.498-20.809,10.15-31.1,16.489c4.547,3.885,9.207,7.365,11.887,12.723
		c2.58,5.16,3.239,10.752,4.146,16.205c3.445,3.341,7.758,1.577,11.545,2.359c-1.942,7.372-7.147,11.526-14.998,12.016
		c-10.565,0.66-17.625-5.016-19.021-15.355c-0.378-2.799-0.704-5.613-0.861-8.431c-0.159-2.852-0.84-5.559-1.705-8.252
		c-1.065-3.316-3.359-5.278-6.673-6.074c-4.383-1.052-8.806-1.633-13.232-0.932c-1.73,3.425-2.183,14.879-1.119,27.401
		c3.99,3.005,9.032,2.251,13.863,3.107c0.894,2.984,0.326,5.898,0.436,9.063c-16.27,0-32.181,0-48.506,0
		c-0.519-2.835-0.226-5.751-0.131-8.844c4.063-1.367,8.826,0.096,12.566-3.437c0-20.194,0-40.627,0-61.33
		c-3.243-3.942-8.33-2.832-13.134-3.875c-0.544-3.229-0.174-6.436-0.198-10.257c4.854,0,9.309,0.071,13.761-0.016
		c8.146-0.158,16.291-0.586,24.436-0.57c7.31,0.014,14.623,0.405,21.929,0.752c8.071,0.384,14.688,3.843,19.967,9.897
		c2.798,3.208,4.775,6.793,4.698,11.215c-0.015,0.86,0.223,1.618,0.83,2.49c-0.82,1.872-1.68,3.837-2.689,6.144
		c4.643-0.42,8.557-2.709,12.805-3.756C1274.11,1054.577,1274.276,1054.999,1274.442,1055.421z M1213.413,1037.906
		c-0.767,9.163-0.26,17.549-0.412,25.854c5.968,0.99,13.533,0.608,17.143-0.76c4.917-1.864,8.139-6.078,8.211-10.741
		c0.108-6.931-1.851-9.852-7.612-12.567C1225.299,1037.126,1219.689,1038.347,1213.413,1037.906z"/>
	<path style="fill:#6775AA;" d="M1274.442,1055.421c-0.166-0.422-0.332-0.844-0.498-1.266c1.269-0.556,2.404-1.755,4.025-0.838
		C1277.256,1054.839,1275.816,1055.076,1274.442,1055.421z"/>
	<path style="fill:#6775AA;" d="M1279.114,1052.492c0.518-0.455,1.032-0.508,1.539,0.018
		C1280.134,1052.976,1279.621,1053.011,1279.114,1052.492z"/>
</g>
</svg>
