<?xml version="1.0" encoding="iso-8859-1"?>
<!-- Generator: Adobe Illustrator 27.0.0, SVG Export Plug-In . SVG Version: 6.00 Build 0)  -->
<svg version="1.1" id="Layer_1" xmlns="http://www.w3.org/2000/svg" xmlns:xlink="http://www.w3.org/1999/xlink" x="0px" y="0px"
	 viewBox="0 0 1549.156 286" style="enable-background:new 0 0 1549.156 286;" xml:space="preserve">
<g>
	<path style="fill:#424745;" d="M146.223,147.221c1.781-1.479,3.525-3.006,5.349-4.431c14.31-11.175,37.572-12.071,52.66,0.715
		c7.543,6.392,11.758,14.888,13.518,24.371c3.406,18.345,0.601,35.8-9.713,51.55c-9.065,13.842-21.317,23.575-37.948,26.899
		c-12.843,2.566-24.726,0.654-35.183-7.742c-0.858-0.689-1.604-1.726-3.342-1.579c-1.032,2.855-0.454,6.057-1.105,9.072
		c-2.486,11.507-4.837,23.043-7.16,34.584c-0.349,1.735-1.057,3.515-0.299,5.339c-12,0-24,0-36,0
		c-0.518-5.561,1.421-10.786,2.408-16.108c4.378-23.619,9.072-47.18,13.607-70.77c3.785-19.687,7.503-39.388,11.273-59.078
		c0.184-0.959,0.572-1.879,0.927-3.016c10.465,0,20.875,0,31.489,0c1.003,3.356-1.191,6.385-1.053,9.62
		c-0.43,0.306-0.726,0.805-0.3,1.151C145.869,148.221,146.062,147.63,146.223,147.221z M138.903,196.94
		c0.23,7.283,1.458,13.84,8.152,17.434c6.79,3.645,13.496,2.183,19.856-1.567c0.997-0.588,1.98-1.24,2.842-2.007
		c10.036-8.929,13.684-20.136,11.192-33.191c-1.467-7.683-7.718-12.483-15.253-12.478c-3.223,0.002-6.217,0.996-9.005,2.511
		C144.932,174.028,139.703,184.338,138.903,196.94z"/>
	<path style="fill:#424746;" d="M0,230c5.982-7.335,11.963-14.67,18.083-22.174c2.966,1.659,5.75,3.401,8.689,4.824
		c6.546,3.171,13.481,4.853,20.774,4.218c3.572-0.311,7.408-0.626,9.281-4.756c-1.191-3.289-4.002-4.748-6.838-6.155
		c-5.503-2.73-11.129-5.231-16.502-8.195c-6.34-3.497-11.911-8.012-15.359-14.581c-6.36-12.121-3.742-26.635,6.46-36.003
		c6.914-6.35,15.115-10.39,24.294-11.95c18.333-3.116,35.292,0.633,51.197,11.324c-4.945,8.303-9.813,16.475-14.569,24.462
		c-1.918,0.087-2.821-1.051-3.956-1.679c-7.626-4.22-15.773-6.05-24.47-5.388c-4.617,0.352-6.418,1.378-9.128,5.282
		c0.726,2.783,3.067,4.047,5.457,5.216c5.07,2.481,10.174,4.894,15.245,7.374c4.969,2.431,9.429,5.58,13.344,9.511
		c13.015,13.07,10.957,35.624-3.836,46.622c-7.271,5.405-15.527,8.209-24.464,9c-18.482,1.636-35.184-3.347-50.36-13.829
		C2.257,232.374,1.115,231.706,0,231C0,230.667,0,230.333,0,230z"/>
	<path style="fill:#464B49;" d="M485.054,31.972c0.639-7.418,4.514-13.049,9.942-17.763c7.255-6.3,16.105-9.086,25.245-11.085
		c4.696-1.027,9.444-1.863,14.264-2.14c0.703-0.04,1.283-0.22,1.495-0.984c10,0,20,0,30,0c2.144,1.966,4.712,0.667,7.079,0.918
		c1.985,0.026,3.98,0.174,5.953,0.034C580.373,0.857,582.064,1.867,583,0c1,0,2,0,3,0c0.24,0.759,0.839,0.92,1.535,0.933
		c11.16,0.214,22.264,1.333,33.387,2.117c12.946,0.912,25.864,2.124,38.756,3.63c8.25,0.963,16.517,1.77,25.137,2.685
		c-0.547,2.438-1.874,4.454-3.158,6.473c-10.53,16.567-25.107,28.682-42.079,38.138c-15.244,8.493-31.658,13.742-48.773,16.561
		c-15.802,2.602-31.77,3.308-47.775,1.847c2.052-3.478,5.495-5.316,8.728-7.402c18.405,0.86,36.531-0.922,54.253-6.042
		c22.109-6.388,41.638-17.274,57.839-33.799c2.385-2.432,4.74-4.917,6.86-8.112c-3.329-1.52-6.391-1.066-9.288-1.378
		c-12.065-1.301-24.132-2.646-36.229-3.585c-13.101-1.016-26.22-1.827-39.348-2.52c-14.483-0.764-28.957-1.024-43.43-0.455
		c-10.65,0.419-21.18,2.028-31.167,5.991c-8.107,3.216-15.193,7.654-17.515,16.932C490.84,31.999,487.947,31.985,485.054,31.972z"/>
	<path style="fill:#838281;" d="M583,0c-0.936,1.867-2.627,0.857-3.968,0.952c-1.974,0.14-3.968-0.009-5.953-0.034
		C573.023,0.614,572.996,0.308,573,0C576.333,0,579.667,0,583,0z"/>
	<path style="fill:#616260;" d="M573,0c-0.004,0.308,0.023,0.614,0.079,0.918C570.712,0.667,568.144,1.966,566,0
		C568.333,0,570.667,0,573,0z"/>
	<path style="fill:#424745;" d="M372.466,232.512c-4.064,3.419-7.793,7.199-12.488,9.889c-11.779,6.749-23.984,7.145-36.519,2.803
		c-9.745-3.376-16.264-11.329-17.447-23.872c-0.636-6.743,1.083-13.248,2.273-19.758c3.905-21.374,8.087-42.698,12.265-64.579
		c12.034-0.408,24.053-0.123,36.435-0.208c-2.579,12.804-5.042,24.969-7.477,37.14c-1.726,8.627-3.451,17.255-5.088,25.899
		c-0.338,1.784-0.455,3.647-0.384,5.463c0.236,6.013,3.717,9.117,9.742,8.661c7.775-0.588,13.774-4.573,18.7-10.306
		c5.466-6.361,8.055-14,9.583-22.123c2.668-14.191,5.469-28.358,8.241-42.529c0.09-0.459,0.468-0.861,0.875-1.577
		c11.465,0,23.049,0,35.409,0c-7.051,35.817-14.055,71.394-21.116,107.262c-11.5,0-22.87,0-34.347,0
		c0.096-4.063,1.875-7.588,2.188-11.385c0.643-0.562,0.864-1.199,0.255-2.143C373.166,231.644,372.816,232.078,372.466,232.512z"/>
	<path style="fill:#424745;" d="M631.321,197.06c-22.408,0.573-44.673-0.507-66.866,0.725c-0.625,9.808,6.057,17.194,15.906,18.288
		c11.613,1.29,21.945-2.452,31.966-7.64c1.326-0.686,2.618-1.437,3.923-2.157c2.295,3.77,8.136,20.102,9.679,27.117
		c-13.409,8.828-28.035,14.417-44.279,14.188c-10.825-0.153-21.525-2.108-31.104-7.698c-13.645-7.963-21.137-20.025-22.281-35.691
		c-0.986-13.502,1.31-26.59,7.919-38.537c11.733-21.209,29.851-31.89,54.168-31.849c6.683,0.011,13.234,0.776,19.602,3.018
		c14.026,4.938,21.824,15.108,24.881,29.295C637.125,176.74,634.791,186.839,631.321,197.06z M600.109,176.864
		c0-2.033,0.136-3.682-0.026-5.302c-0.479-4.808-3.616-8.478-8.252-9.447c-9.514-1.988-20.201,4.479-22.589,14.749
		C579.387,176.864,589.5,176.864,600.109,176.864z"/>
	<path style="fill:#424746;" d="M518.552,172.089c-7.819-5.174-15.712-7.975-24.697-8.29c-13.528-0.475-28.151,11.122-31.046,25.492
		c-0.92,4.569-0.775,8.954,0.56,13.287c2.418,7.846,9.381,12.915,17.999,13.42c5.738,0.336,11.208-0.64,16.548-2.825
		c5.405-2.212,10.574-4.809,15.436-8.037c0.804-0.534,1.486-1.387,3.052-1.172c3.894,8.339,6.035,17.546,9.671,26.435
		c-11.298,8.554-23.779,13.961-37.809,15.464c-10.492,1.125-20.925,0.711-30.967-2.951c-17.545-6.398-27.361-19.036-30.336-37.397
		c-5.321-32.834,18.492-64.642,52.277-70.575c16.275-2.858,32.132-1.268,46.913,6.871c3.798,2.091,7.321,4.539,10.64,8.133
		C530.768,157.258,524.763,164.548,518.552,172.089z"/>
	<path style="fill:#424846;" d="M237.861,137.033c11.169,0,22.407,0,34.105,0c-1.285,6.44-2.516,12.611-3.784,18.967
		c2.547-0.198,3.102-2.178,4.173-3.516c6.498-8.117,14.289-14.374,24.601-16.867c4.524-1.093,9.104-1.134,14.051,0.087
		c-2.489,11.9-4.886,23.364-7.33,35.047c-3.939,0.351-7.776-0.315-11.515,0.458c-10.293,2.129-18.158,7.872-24.088,16.39
		c-5.35,7.686-7.395,16.57-9.138,25.569c-2.013,10.393-4.137,20.765-6.246,31.314c-11.866,0-23.461,0-35.052,0
		C217.164,240.79,234.239,150.041,237.861,137.033z"/>
	<path style="fill:#18AEBB;" d="M645.728,244.941c6.642-35.168,13.17-69.735,19.69-104.254c0.776-0.978,1.83-0.773,2.801-0.772
		c11.662,0.004,23.324-0.028,34.985,0.054c13.037,0.091,25.139,11.165,21.171,28.111c-2.113,9.022-7.657,15.262-15.378,19.882
		c-0.558,0.334-1.101,0.691-1.586,0.996c-0.236,1.26,0.712,1.592,1.328,1.894c8.459,4.15,11.236,11.751,10.943,20.224
		c-0.405,11.709-5.486,21.383-15.425,28.124c-5.065,3.435-10.808,5.454-16.769,5.621
		C673.862,245.202,660.219,244.941,645.728,244.941z M665.878,194.011c-2.686,13.556-5.348,26.989-8.027,40.511
		c1.157,0.243,1.629,0.428,2.101,0.428c8.148,0,16.3,0.117,24.445-0.076c11.302-0.267,22.132-7.642,24.325-20.787
		c1.793-10.749-1.809-18.79-14.321-19.914C685.177,193.346,675.82,194.011,665.878,194.011z M668.457,184.938
		c7.887,0,15.818,0.027,23.748-0.007c10.438-0.044,19.158-6.763,21.44-17.842c1.613-7.835-0.179-14.178-8.269-16.876
		c-2.294-0.765-4.766-1.218-7.311-1.168c-6.642,0.129-13.288,0.031-19.932,0.055c-1.127,0.004-2.346-0.293-3.294,0.635
		C672.494,157.602,668.155,181.087,668.457,184.938z"/>
	<path style="fill:#23AFBC;" d="M1260.42,227.538c4.755-29.359,11.151-58.217,16.262-87.426c3.624,0,6.722,0,10.354,0
		c-6.783,34.929-13.509,69.565-20.264,104.354c-3.092,0.675-6.049,0.223-9.467,0.348c-14.631-28.971-29.965-57.605-44.546-87.918
		c-5.66,29.819-11.141,58.702-16.632,87.628c-3.588,0.401-6.669,0.463-10.183-0.055c6.752-34.926,13.452-69.588,20.175-104.365
		c3.375,0,6.327,0,9.912,0C1230.777,169.068,1246.522,197.812,1260.42,227.538z"/>
	<path style="fill:#1EAEBC;" d="M834.703,137.881c14.727-0.108,26.194,3.853,35.236,13.522c6.93,7.41,10.561,16.396,11.054,26.502
		c1.21,24.8-9.837,43.389-29.617,57.353c-10.45,7.377-22.063,11.368-34.977,10.666c-21.434-1.165-37.039-12.903-41.98-34.266
		c-2.432-10.515-1.155-20.762,2.555-30.725c7.344-19.726,21.295-32.876,40.858-40.183
		C823.775,138.53,829.987,137.493,834.703,137.881z M784.965,200.835c0,1.332-0.091,2.671,0.014,3.994
		c1.046,13.198,7.343,22.948,19.551,28.263c6.599,2.873,13.545,3.247,20.898,2.209c24.42-3.447,47.953-28.723,45.525-56.769
		c-0.831-9.597-4.587-17.849-12.453-23.953c-9.344-7.252-19.91-8.67-31.038-6.276C802.75,153.619,784.529,176.196,784.965,200.835z"
		/>
	<path style="fill:#1EAEBC;" d="M1117.98,234.981c17.059,0,33.816,0,50.943,0c-0.541,3.37-1,6.227-1.44,8.971
		c-3.739,1.062-52.216,1.407-61.098,0.49c-1.026-1.475-0.502-3.205-0.206-4.724c3.005-15.414,6.121-30.806,9.205-46.205
		c3.213-16.044,6.416-32.09,9.646-48.13c0.353-1.755,0.856-3.48,1.297-5.25c19.512,0,38.772,0,58.634,0
		c-1.392,2.865-0.458,5.785-2.195,8.9c-15.794,0-31.859,0-48.214,0c-2.316,12.779-5.18,24.919-6.874,37.862
		c13.348,0,26.102,0,39.184,0c-0.558,2.744-0.977,4.973-1.483,7.182c-0.14,0.613-0.536,1.168-0.936,2.003
		c-12.644,0-25.26,0-38.346,0C1123.396,209.023,1120.741,221.747,1117.98,234.981z"/>
	<path style="fill:#1EAEBC;" d="M1418.536,186.872c13.567,0,26.173,0,38.976,0c0.997,3.131-1.093,5.692-0.512,9.041
		c-4.67,0.375-9.112,0.131-13.533,0.174c-4.33,0.043-8.66,0.009-12.99,0.009c-4.474,0-8.948,0-13.872,0
		c-2.489,12.888-4.922,25.488-7.42,38.423c4.21,1.011,8.474,0.323,12.677,0.448c4.16,0.124,8.326,0.027,12.49,0.027
		c4.33,0,8.66,0,12.991,0c4.12,0,8.24,0,12.836,0c-1.321,3.473-0.778,6.766-2.699,9.636c-19.919,0-39.849,0-60.292,0
		c5.938-34.999,13.088-69.522,19.384-104.416c19.844,0,39.55,0,59.484,0c-0.655,3.072-1.139,5.82-2.467,8.685
		c-15.492,0-31.101,0-47.236,0C1423.205,161.326,1421.211,173.795,1418.536,186.872z"/>
	<path style="fill:#464B49;" d="M453.848,91.83c-2.754,0.79-4.762,2.866-7.215,4.194c-12.41,6.718-25.571,10.828-39.639,12.22
		c-15.692,1.552-31.198,1.091-46.478-3.196c-4.559-1.279-8.674-3.349-12.236-6.423c-10.53-9.088-9.821-24.519,1.408-32.686
		c5.535-4.026,11.92-5.716,18.494-6.85c12.866-2.22,25.832-2.109,38.812-1.477c2.285,0.787,4.62,0.265,6.935,0.266
		c21.759,1.088,43.358,3.818,65.446,5.798c-1.422,3.38-3.031,5.818-4.751,8.23c-3.381,4.744-7.868,8.478-11.568,12.923
		C459.619,86.679,456.476,88.916,453.848,91.83z M450.958,84.199c4.882-3.691,9.474-7.676,13.288-12.772
		c-0.735-0.241-1.164-0.447-1.615-0.52c-9.997-1.615-20.105-2.147-30.185-2.83c-6.111-0.414-12.2-1.507-18.364-1.018
		c-2.692-0.026-5.292-2.009-8.062-0.376c-10.455-0.577-20.898-1.221-31.352,0.247c-6.436,0.904-12.841,1.868-18.511,5.252
		c-9.218,5.502-9.543,15.651-0.925,22.024c3.446,2.549,7.391,3.893,11.412,4.678c18.146,3.54,36.323,3.59,54.308-0.956
		c6.019-1.521,12.247-2.906,17.339-6.922C443.418,90.422,447.014,86.988,450.958,84.199z"/>
	<path style="fill:#23AFBC;" d="M413.929,57.877c-2.315-0.001-4.65,0.521-6.935-0.266c0.397-7.804,5.531-12.475,11.253-16.604
		c6.314-4.556,13.759-6.554,21.243-7.727c8.975-1.407,18.078-2.587,27.195-1.978c6.126,0.409,12.235,0.745,18.369,0.669
		c2.893,0.014,5.786,0.028,8.679,0.041c1.666,0.939,3.498,0.902,5.328,0.937c3.487,0.067,6.986,0.019,10.458,0.297
		c10.704,0.858,21.4,1.812,32.093,2.798c7.074,0.652,14.186,1.123,21.181,2.281c2.966,0.491,6.146,0.159,9.383,1.283
		c-2.153,4.115-4.578,7.411-7.023,10.734c-3.951,5.372-9.215,9.502-13.394,14.639c-3.232,2.086-6.676,3.924-8.728,7.402
		c-3.294,0.247-5.823,2.273-8.47,3.863c-13.402,8.051-28.07,12.294-43.356,14.772c-10.675,1.731-21.43,2.122-32.214,1.837
		c-1.723-0.046-3.708,0.676-5.142-1.026c2.629-2.914,5.772-5.151,9.208-7.001c15.679,0.302,30.967-2.126,45.912-6.752
		c5.99-1.855,11.907-3.966,17.044-7.743c3.677-1.406,7.01-3.371,9.891-6.074c7.884-4.548,14.51-10.461,20.384-18.091
		c-7.138-1.006-13.521-1.76-19.946-2.312c-4.453-0.383-8.917-0.669-13.361-1.111c-9.727-0.966-19.44-2.009-29.237-1.757
		c-2.902-0.203-5.721-1.217-8.677-0.885c-13.886-0.001-27.791-1.006-41.64,0.855c-6.389,0.859-12.655,2.225-18.475,5.062
		C419.798,48.532,415.228,51.72,413.929,57.877z"/>
	<path style="fill:#1EAEBC;" d="M1376.776,222.533c2.403,2.133,3.385,4.73,4.72,7.535c-4.727,4.215-10.043,7.212-15.598,9.76
		c-7.611,3.491-15.708,5.437-24.039,5.565c-16.329,0.251-30.611-4.659-39.773-19.065c-6.334-9.96-8.027-21.138-6.395-32.954
		c1.512-10.943,5.229-20.886,11.901-29.613c12.616-16.501,28.861-25.982,50.193-25.919c12.63,0.038,23.761,3.822,33.686,11.473
		c0.394,0.303,0.773,0.635,1.108,1.001c0.218,0.238,0.341,0.562,0.673,1.133c-0.921,2.8-4.054,4.017-5.111,6.947
		c-3.455-1.327-5.679-3.633-8.345-5.205c-9.931-5.857-20.656-7.285-31.622-4.77c-22.184,5.089-35.741,19.34-41.124,41.24
		c-2.613,10.631-1.664,21.106,4.014,30.78c4.754,8.1,12.095,12.748,21.085,14.524c13.347,2.637,25.575-0.949,37.047-7.717
		C1371.617,225.818,1373.976,224.279,1376.776,222.533z"/>
	<path style="fill:#1EAEBC;" d="M1053.904,230.174c-9.358,7.511-19.778,12.467-31.438,14.345
		c-15.355,2.474-29.705,0.196-41.768-10.578c-6.152-5.494-9.959-12.535-11.556-20.476c-4-19.89,0.38-37.895,13.523-53.47
		c8.56-10.144,19.132-17.416,32.255-20.387c16.763-3.795,32.597-1.97,46.927,8.285c1.365,0.977,2.615,2.03,4.115,3.66
		c-2.277,1.981-3.452,4.947-6.192,6.654c-2.301-0.587-3.592-2.492-5.366-3.645c-5.965-3.879-12.349-6.034-19.473-6.781
		c-15.412-1.614-28.503,3.617-39.544,13.676c-9.146,8.333-14.624,18.984-16.629,31.488c-1.281,7.989-0.568,15.536,2.318,22.898
		c4.144,10.572,12.225,16.615,23.12,19.159c10.674,2.492,20.689,0.128,30.415-4.183c5.151-2.283,10.045-5.034,14.446-8.813
		C1051.157,224.709,1052.971,227.192,1053.904,230.174z"/>
	<path style="fill:#1EAEBC;" d="M1472.609,232.514c1.63-2.657,3.991-4.481,6.262-6.672c2.678,1.829,5.11,3.852,7.848,5.294
		c10.757,5.665,21.642,6.976,32.534,0.256c6.765-4.174,10.196-11.979,8.656-20.224c-0.651-3.482-2.983-6.199-5.952-8.325
		c-4.343-3.109-9.032-5.584-13.824-7.878c-4.351-2.082-8.546-4.419-12.478-7.209c-6.171-4.379-10.065-10.352-10.287-17.889
		c-0.205-6.956,2.287-13.391,7.024-18.637c7.005-7.757,15.856-11.737,26.295-12.335c8.815-0.505,17.177,0.892,24.903,5.366
		c2.022,1.171,4.018,2.356,5.566,4.54c-1.724,2.482-3.451,5.031-5.944,7.359c-5.291-4.849-11.695-7.046-18.521-7.776
		c-10.534-1.126-24.148,4.304-27.889,16.193c-1.594,5.064-0.392,9.099,2.941,12.821c3.062,3.42,7.17,5.336,11.093,7.47
		c3.933,2.14,7.995,4.041,11.992,6.065c3.582,1.813,6.798,4.116,9.66,6.958c7.385,7.333,8.924,16.007,5.588,25.557
		c-4.875,13.957-15.745,20.607-29.645,22.318c-10.83,1.333-21.088-1.345-30.193-7.68
		C1476.058,236.57,1473.919,235.015,1472.609,232.514z"/>
	<path style="fill:#1EAEBC;" d="M883.42,231.975c1.707-1.341,3.267-2.571,4.833-3.794c0.902-0.704,1.539-1.757,2.97-2.163
		c4.649,3.453,9.456,6.861,15.358,8.461c9.122,2.474,17.708,1.788,25.647-3.547c6.409-4.307,10.668-13.891,7.786-20.866
		c-1.459-3.53-4.025-6.021-7.059-8.155c-4.645-3.267-9.926-5.34-14.894-8.001c-4.384-2.348-8.775-4.693-12.574-7.976
		c-7.696-6.652-10.656-16.647-5.729-27.455c4.481-9.83,12.409-15.582,22.41-18.199c11.418-2.987,22.703-2.042,33.238,3.904
		c2.036,1.149,3.999,2.379,5.631,4.531c-1.572,2.566-3.406,5.023-5.785,7.429c-5.359-4.615-11.591-7.168-18.502-7.719
		c-9.499-0.758-21.322,2.848-26.726,12.722c-4.214,7.699-1.963,14.889,6.044,19.916c5.775,3.626,12.011,6.366,18.051,9.484
		c3.568,1.842,6.74,4.199,9.743,6.846c7.689,6.776,8.827,15.53,6.411,24.615c-3.277,12.325-12.242,19.647-24.207,22.698
		c-12.625,3.219-24.674,0.941-35.578-6.459c-0.958-0.65-1.908-1.331-2.77-2.101C886.483,235.041,885.333,233.842,883.42,231.975z"/>
	<path style="fill:#1EAEBC;" d="M1088.948,140.087c3.893,0,7.172,0,11.224,0c-6.908,34.828-13.761,69.384-20.592,103.827
		c-3.77,1.141-4.893,1.173-10.047,0.192C1075.712,209.405,1082.627,174.836,1088.948,140.087z"/>
	<path style="fill:#23AFBC;" d="M744.831,244.778c-3.607-0.047-6.557,0.302-10.118-0.34c6.763-34.901,13.474-69.536,20.127-103.87
		c2.083-1.045,3.772-0.616,5.399-0.633c1.448-0.015,2.972-0.385,4.796,0.634C758.336,175.123,751.62,209.76,744.831,244.778z"/>
	<path style="fill:#2EADBA;" d="M414.081,67.06c3.566,8.683,11.545,11.267,19.417,13.84c5.652,1.847,11.609,2.356,17.46,3.299
		c-3.944,2.788-7.54,6.223-12.668,6.807c-2.825-1.78-6.191-1.935-9.235-3.071c-6.261-2.337-12.195-5.155-16.928-10.08
		c-3.067-3.191-5.205-6.827-6.107-11.171C408.789,65.051,411.389,67.034,414.081,67.06z"/>
	<path style="fill:#464B49;" d="M493.743,40.988c1.441,5.97,5.092,10.315,10.13,13.578c7.368,4.772,15.683,6.9,24.184,8.45
		c2.604,0.475,5.23,0.832,7.846,1.244c-2.88,2.703-6.214,4.668-9.891,6.074c-10.045-1.704-19.679-4.549-28.167-10.427
		c-6.971-4.827-11.725-11.134-12.779-19.803C488.022,39.77,490.841,40.784,493.743,40.988z"/>
</g>
</svg>
