<?xml version="1.0" encoding="iso-8859-1"?>
<!-- Generator: Adobe Illustrator 27.0.0, SVG Export Plug-In . SVG Version: 6.00 Build 0)  -->
<svg version="1.1" id="Layer_1" xmlns="http://www.w3.org/2000/svg" xmlns:xlink="http://www.w3.org/1999/xlink" x="0px" y="0px"
	 viewBox="0 0 1550 150" style="enable-background:new 0 0 1550 150;" xml:space="preserve">
<g>
	<path style="fill:#1F2D4F;" d="M0.742,63.996c0.984-14.651,10.921-21.79,24.104-24.622c8.87-1.906,17.866-1.826,26.76,0.148
		c13.338,2.96,23.729,10.782,24.841,28.03c-5.235,0-10.467,0-15.966,0c-0.802-0.464-0.555-1.622-0.794-2.521
		c-1.939-7.299-6.824-10.888-14.114-12.196c-7.417-1.331-14.492-0.934-21.524,1.833c-4.02,1.582-6.019,4.624-6.906,8.504
		c-1.023,4.477,1.583,8.894,6.155,10.715c6.074,2.419,12.504,3.299,18.931,4.158c7.568,1.012,15.049,2.17,22.156,5.335
		c16.386,7.297,16.684,30.375,4.744,40.188c-6.297,5.175-13.717,7.479-21.565,8.175c-8.963,0.794-18.003,0.756-26.713-2.044
		c-9.736-3.13-16.967-8.978-19.742-19.294C0.93,109.738,0.8,109.132,0,109c0-1.333,0-2.667,0-4c5.468,0,10.935,0,16.503,0
		c2.43,8.282,8.481,11.934,16.473,13.038c2.465,0.341,4.974,0.798,7.434,0.662c5.473-0.302,10.961-0.777,15.726-4.013
		c4.013-2.725,5.452-6.565,4.874-11.222c-0.56-4.509-3.464-7.008-7.599-8.267c-5.088-1.55-10.297-2.538-15.562-3.269
		c-6.907-0.96-13.861-1.767-20.487-4.078C9.349,85.056,3.485,80.019,1.496,71.426C0.939,69.02,0.977,66.476,0.742,63.996z"/>
	<path style="fill:#212E50;" d="M274,0c-0.048,1.83-0.139,3.66-0.139,5.49c-0.002,39.497,0.007,78.993,0.013,118.49
		c0,1.816,0,3.631,0,5.696c-2.851,1.044-5.676,0.411-8.417,0.528c-2.627,0.112-5.263,0.024-8.458,0.024c0-43.671,0-86.95,0-130.228
		C262.667,0,268.333,0,274,0z"/>
	<path style="fill:#1E2D4E;" d="M307,0c0,43.232,0,86.464,0,129.959c-5.653,0-10.911,0-16.324,0
		c-1.188-1.515-0.549-3.413-0.551-5.151c-0.042-39.773-0.029-79.547-0.032-119.32c0-1.829-0.06-3.658-0.093-5.487
		C295.667,0,301.333,0,307,0z"/>
	<path style="fill:#202E4F;" d="M1199,150c2.299-12.546,4.597-25.092,6.926-37.798c4.669,0,9.107,0,14.059,0
		c-3.125,12.774-6.386,25.329-9.984,37.798C1206.333,150,1202.667,150,1199,150z"/>
	<path style="fill:#212E50;" d="M1550,125c-1.232,0.452-1.321,1.794-2.046,2.651c-3.022,3.576-7.367,4.758-11.576,3.053
		c-3.854-1.561-5.884-5.323-5.455-10.108c0.396-4.419,3.319-7.546,7.811-8.354c3.976-0.715,8.189,1.462,10.181,5.371
		c0.291,0.57,0.275,1.263,1.085,1.387C1550,121,1550,123,1550,125z"/>
	<path style="fill:#1E2C4E;" d="M400.305,40.355c4.699,0,9.324,0,13.984,0c0.91,3.375,1.226,81.381,0.278,89.867
		c-2.368,0-4.811,0-7.254,0c-2.308,0-4.615,0-7.074,0c-1.434-4.597-0.962-9.119-1.431-13.552c-1.694,0.062-1.856,1.695-2.644,2.619
		c-9.448,11.073-21.818,14.37-35.551,12.329c-19.968-2.967-33.702-16.106-38.031-35.79c-5.378-24.452,7.746-53.104,38.938-57.329
		c13.691-1.854,26.082,1.992,35.13,13.428c0.499,0.631,0.812,1.477,2.15,1.607C399.307,49.233,398.811,44.766,400.305,40.355z
		 M338.787,85.167c-0.578,14.905,8.936,28.841,24.745,31.517c11.284,1.91,23.497-2.273,29.483-12.216
		c4.652-7.726,6.4-15.877,5.148-24.813c-3.595-25.661-30.723-32.6-47.22-20.53C342.21,65.515,338.682,74.545,338.787,85.167z"/>
	<path style="fill:#1E2C4E;" d="M239.715,91.005c-12.32,0-24.467,0-36.615,0c-12.151,0-24.302,0-36.471,0
		c1.324,18.97,13.777,25.79,26.738,26.818c8.869,0.703,17.218-0.848,24.281-6.87c2.489-2.122,3.82-4.991,5.556-7.8
		c5.081,0,10.21,0,15.791,0c-1.946,8.058-6.281,14.263-12.352,19.364c-6.6,5.546-14.498,8.078-22.849,9.044
		c-9.658,1.116-19.171,0.776-28.349-3.376c-12.152-5.497-19.996-14.525-23.895-27.158c-3.779-12.242-3.197-24.319,1.732-36.095
		c6.002-14.339,17.201-22.461,32.08-25.743c10.032-2.213,19.87-1.159,29.302,2.926c15.122,6.549,22.979,18.542,25.242,34.481
		C240.558,81.185,241.33,85.86,239.715,91.005z M223.417,77.578c-0.978-6.659-3.01-12.087-7.047-16.812
		c-9.109-10.66-31.269-10.636-41.034-1.332c-5.063,4.824-7.991,10.799-8.661,18.143C185.704,77.578,204.299,77.578,223.417,77.578z"
		/>
	<path style="fill:#202E4F;" d="M575.796,82.69c0.935,0.414,1.37,0.672,1.84,0.806c13.195,3.767,16.017,12.79,15.913,21.8
		c-0.135,11.734-6.452,19.576-17.251,22.879c-4.837,1.48-9.778,1.993-14.773,2.022c-12.327,0.071-24.655,0.028-36.983,0.015
		c-0.638-0.001-1.275-0.149-2.16-0.26c0-30.194,0-60.266,0-90.629c2.365-0.748,4.855-0.213,7.281-0.228
		c9.661-0.062,19.324-0.056,28.985,0.001c5.57,0.033,10.795,1.507,15.849,3.849c16.905,7.831,15.343,31.814,2.738,38.614
		C576.809,81.789,576.461,82.161,575.796,82.69z M537.106,117.818c10.036-0.281,19.486,0.519,28.912-0.683
		c5.442-0.694,10.034-2.591,11.817-8.312c2.892-9.283-1.496-16.584-11.068-18.492c-1.774-0.354-3.629-0.396-5.448-0.409
		c-6.315-0.047-12.631-0.068-18.946,0.014c-1.75,0.023-3.614-0.541-5.266,0.472C537.106,99.459,537.106,108.375,537.106,117.818z
		 M537.143,77.075c2.527,0.228,4.806,0.515,7.093,0.623c6.302,0.298,12.608,0.189,18.762-1.316
		c5.935-1.451,9.059-5.821,8.997-12.017c-0.06-6.001-3.128-10.012-8.859-11.575c-0.16-0.044-0.326-0.063-0.488-0.099
		c-8.476-1.886-16.99-0.618-25.504-1.017C537.143,60.634,537.143,68.872,537.143,77.075z"/>
	<path style="fill:#212F50;" d="M1387.068,104.694c0-21.648,0-43.296,0-65.571c4.872-0.153,9.561-0.354,14.489,0.187
		c0,30.222,0,60.161,0,90.442c-4.521,0.976-9.112,0.268-13.861,0.461c-16.1-22.03-32.159-44.006-48.219-65.981
		c-0.276,0.088-0.552,0.175-0.827,0.263c0,21.754,0,43.508,0,65.44c-5.036,0.518-9.607,0.266-14.395,0.227
		c0-30.482,0-60.568,0-90.913c4.548,0,8.984,0,13.844,0c15.878,21.736,31.943,43.728,48.007,65.719
		C1386.427,104.876,1386.748,104.785,1387.068,104.694z"/>
	<path style="fill:#1B2B4D;" d="M724.612,38.99c16.282,22.194,32.304,44.033,48.326,65.873c0.28-0.066,0.559-0.131,0.839-0.197
		c0-21.746,0-43.492,0-65.66c5.125,0.085,9.693-0.279,14.307,0.275c0,30.31,0,60.382,0,90.695c-4.497,0-8.78,0-13.759,0
		c-15.821-21.664-31.953-43.753-48.086-65.842c-0.255,0.093-0.51,0.185-0.765,0.278c0,21.686,0,43.371,0,65.43
		c-4.905,0-9.445,0-14.245,0c0-30.04,0-60.126,0-90.515C715.54,38.596,719.979,39.182,724.612,38.99z"/>
	<path style="fill:#1F2D4F;" d="M919.051,84.551c-0.128-25.454,20.373-47.198,46.796-46.818
		c25.092,0.36,46.566,18.922,46.738,47.024c0.167,27.294-22.414,46.664-44.888,46.902
		C939.379,131.958,919.055,111.363,919.051,84.551z M997.421,84.376c-0.025-4.521-0.742-8.897-2.326-13.17
		c-8.439-22.776-37.94-25.832-52.086-10.217c-8.449,9.326-10.689,20.492-7.909,32.554c5.658,24.55,34.295,31.059,50.455,17.692
		C993.906,104.327,997.437,95.081,997.421,84.376z"/>
	<path style="fill:#1E2D4E;" d="M1082.727,99.304c7.655,10.162,15.188,20.163,23.136,30.715c-6.008,0-11.129,0-16.749,0
		c-4.456-6.016-9.083-12.282-13.733-18.529c-2.184-2.933-4.469-5.793-6.603-8.762c-1.152-1.603-2.552-2.629-4.535-2.644
		c-4.791-0.035-9.581-0.011-14.754-0.011c0,10.165,0,19.925,0,29.821c-4.82,0.652-9.287,0.163-13.706,0.349
		c-1.113-3.852-1.544-74.768-0.581-90.665c0.931-1.023,2.173-0.559,3.267-0.56c11.653-0.004,23.307-0.044,34.958,0.117
		c5.51,0.076,10.902,1.179,15.87,3.657c12.184,6.079,16.206,17.776,15.281,29.489c-1.013,12.826-7.331,21.774-19.874,25.847
		C1084.106,98.324,1083.593,98.78,1082.727,99.304z M1049.869,86.747c8.533-0.043,16.469,0.294,24.418-0.468
		c9.625-0.922,15.081-5.93,15.394-15.542c0.291-8.945-2.712-16.605-15.042-17.845c-1.32-0.133-2.654-0.18-3.982-0.184
		c-5.821-0.019-11.641-0.031-17.462,0.012c-1.101,0.008-2.351-0.414-3.326,0.782C1049.869,64.344,1049.869,75.278,1049.869,86.747z"
		/>
	<path style="fill:#202E4F;" d="M902.048,73.523c-5.201,0-9.823,0-14.584,0c-1.631-2.117-1.897-4.86-3.049-7.226
		c-4.243-8.722-11.336-13.1-20.691-14.448c-5.01-0.722-9.841-0.411-14.773,0.88c-13.408,3.51-21.049,15.805-22.089,27.261
		c-1.119,12.32,1.665,23.253,11.749,31.244c14.324,11.351,36.919,7.202,44.616-6.007c1.684-2.889,2.565-6.092,3.961-9.248
		c4.804,0,9.569,0,14.733,0c-1.897,11.003-6.778,20.063-15.457,26.554c-26.009,19.451-67.569,7.565-74.085-28.946
		c-3.241-18.162,2.038-34.123,16.529-46.034c9.609-7.897,21.063-10.913,33.576-9.846c7.943,0.678,15.344,2.815,21.946,7.301
		C894.325,51.732,899.696,61.331,902.048,73.523z"/>
	<path style="fill:#1F2D4F;" d="M1514.241,73.483c-5.122,0.343-9.729,0.344-14.106,0.043c-1.479-1.064-1.313-2.575-1.723-3.769
		c-3.46-10.083-10.527-15.876-20.891-17.711c-26.099-4.619-41.558,16.822-38.038,38.57c2.134,13.179,9.349,22.118,22.313,25.963
		c6.346,1.882,12.707,1.874,19.125-0.177c8.34-2.665,14.032-7.943,17.126-16.088c0.295-0.776,0.58-1.557,0.826-2.35
		c0.187-0.601,0.305-1.223,0.489-1.982c5.015-0.312,9.765-0.328,14.589-0.022c0.448,3.017-0.715,5.431-1.564,7.876
		c-6.417,18.48-24.151,28.322-41.311,27.865c-15.71-0.418-28.766-6.206-38.249-19.02c-16.667-22.521-10.5-62.501,23.876-73.111
		c19.324-5.964,40.449,0.075,51.228,16.778C1511.193,61.401,1513.635,66.782,1514.241,73.483z"/>
	<path style="fill:#212E50;" d="M1142.676,100.009c0,10.348,0,19.969,0,29.902c-4.799,0-9.373,0-14.259,0
		c0-30.023,0-60.081,0-90.387c0.672-0.938,1.937-0.515,3.036-0.515c11.818,0.004,23.637-0.062,35.453,0.132
		c5.501,0.09,10.888,1.228,15.854,3.738c12.785,6.461,16.493,19.115,14.835,32.048c-2.183,17.027-15.441,24.082-28.488,24.898
		c-6.965,0.436-13.976,0.147-20.966,0.182C1146.509,100.016,1144.877,100.009,1142.676,100.009z M1143.111,86.82
		c8.874-0.197,17.153,0.302,25.424-0.676c8.019-0.947,12.756-5.121,14.243-12.918c1.972-10.34-3.482-18.815-13.365-20.093
		c-8.704-1.126-17.471-0.348-26.708-0.334C1142.738,64.21,1142.529,75.251,1143.111,86.82z"/>
	<path style="fill:#1F2D4F;" d="M641.816,39.158c5.144,0,9.778,0,14.67,0c12.325,30.088,24.629,60.125,37.146,90.683
		c-5.229,0-9.931,0-15.132,0c-2.384-5.957-4.893-12.227-7.478-18.688c-14.497,0-28.931,0-43.763,0
		c-2.438,6.093-4.947,12.362-7.534,18.826c-4.804,0-9.572,0-15.136,0C616.824,99.464,629.379,69.468,641.816,39.158z M632.68,97.547
		c11.088,0,21.635,0,32.881,0c-5.409-13.638-10.69-26.953-16.391-41.327C643.442,70.575,638.142,83.858,632.68,97.547z"/>
	<path style="fill:#222F50;" d="M142.518,112.743c0,5.273,0,9.892,0,14.802c-13.539,5.835-27.018,6.686-40.326-0.166
		c-7.779-4.005-10.599-11.538-12.117-19.593c-0.677-3.592-0.799-7.26-0.796-10.935c0.023-25.468-0.025-50.936-0.018-76.403
		c0-1.621-0.364-3.304,0.471-5.107c5.235,0,10.482,0,16.21,0c0,8.077,0,16.136,0,24.493c11.862,0.853,23.294-0.057,34.654,0.349
		c1.076,3.72,1.152,9.901,0.123,14.571c-11.323,0-22.742,0-33.82,0c-1.068,1.264-0.786,2.305-0.786,3.269
		c-0.011,13.483-0.007,26.966,0.031,40.449c0.004,1.488,0.17,2.986,0.387,4.462c1.666,11.334,6.777,13.217,16.074,14.082
		c5.163,0.48,10.245-0.674,15.142-2.416C139.128,114.107,140.481,113.538,142.518,112.743z"/>
	<path style="fill:#1F2D4F;" d="M451.691,57.403c8.791-16.038,21.53-20.713,37.912-17.402c0,5.071,0,9.821,0,14.765
		c-2.68,0-5.146,0.139-7.591-0.023c-16.412-1.088-25.741,8.841-28.808,22.541c-0.867,3.872-1.292,7.848-1.259,11.883
		c0.11,13.462,0.042,26.925,0.042,40.715c-5.642,0.643-11.018,0.332-16.649,0.199c0-29.971,0-59.688,0-89.696
		c4.859,0,9.615,0,14.702,0C451.622,45.381,450.444,50.78,451.691,57.403z"/>
	<path style="fill:#243151;" d="M1282.484,39.127c4.833,0,9.305,0,14.07,0c0,30.199,0,60.257,0,90.698
		c-4.633,0.785-9.316,0.445-14.07,0.174C1282.484,99.51,1282.484,69.324,1282.484,39.127z"/>
</g>
</svg>
