<?xml version="1.0" encoding="iso-8859-1"?>
<!-- Generator: Adobe Illustrator 27.0.0, SVG Export Plug-In . SVG Version: 6.00 Build 0)  -->
<svg version="1.1" id="Layer_1" xmlns="http://www.w3.org/2000/svg" xmlns:xlink="http://www.w3.org/1999/xlink" x="0px" y="0px"
	 viewBox="0 0 1499.999 1500" style="enable-background:new 0 0 1499.999 1500;" xml:space="preserve">
<g>
	<path style="fill:#EE2541;" d="M0,0c499.999,0,999.999,0,1499.999,0c0,499.999,0,999.999,0,1499.999
		c-499.999,0-999.999,0-1499.998,0.001C0,1000,0,500,0,0z M891.529,819.095c0.822,2.171,1.737,4.312,2.452,6.518
		c17.66,54.512,35.297,109.032,52.945,163.549c1.906,5.888,2.203,6.109,8.506,6.101c40.663-0.051,81.326-0.115,121.989-0.175
		c0.667-0.001,1.336-0.045,1.999,0c2.953,0.2,4.688-1.289,5.585-3.969c0.369-1.103,0.732-2.207,1.106-3.308
		c11.314-33.346,22.659-66.681,33.939-100.038c27.985-82.756,55.047-165.813,80.959-249.242c2.808-9.041,5.638-18.075,8.36-27.142
		c1.318-4.39-0.656-7.137-5.146-7.454c-0.829-0.058-1.666-0.013-2.499-0.015c-31.83-0.058-63.661-0.117-95.491-0.171
		c-6.335-0.011-6.574,0.148-8.301,6.189c-6.893,24.107-13.705,48.237-20.663,72.326c-7.605,26.328-15.735,52.51-22.916,78.952
		c-9.487,34.933-18.268,70.058-27.367,105.097c-2.096,8.073-4.251,16.131-6.39,24.241c-1.346-0.532-1.362-1.409-1.564-2.204
		c-4.991-19.634-9.95-39.276-14.996-58.895c-5.957-23.159-11.333-46.493-18.135-69.402c-11.911-40.118-24.718-79.971-37.149-119.935
		c-0.898-2.986-1.777-5.978-2.696-8.958c-2.373-7.688-4.682-15.397-7.193-23.04c-0.859-2.615-1.843-5.526-5.675-4.9
		c-1.16-0.074-2.321-0.211-3.481-0.212c-33.497-0.012-66.995-0.009-100.492-0.009c-0.667,0-1.334,0.017-2,0.001
		c-2.72-0.064-4.386,1.318-5.139,3.839c-0.427,1.431-0.716,2.904-1.063,4.359c-4.866,20.363-9.73,40.727-14.599,61.09
		c-7.148,29.897-14.471,59.754-21.406,89.701c-7.536,32.541-14.712,65.166-22.055,97.752c-0.197,0.875-0.101,2.04-1.536,2.003
		c-0.129-0.329-0.279-0.628-0.365-0.944c-12.322-45.196-24.061-90.55-37.047-135.566c-11.142-38.625-22.039-77.321-33.055-115.982
		c-1.581-5.547-2.467-6.252-7.904-6.247c-30.998,0.028-61.995,0.066-92.993,0.122c-5.693,0.01-6.547,0.668-8.112,6.018
		c-4.198,14.348-8.386,28.7-12.561,43.055c-18.327,63.007-36.634,126.02-52.546,189.696c-1.654,6.618-3.527,13.181-5.314,19.83
		c-1.391-0.608-1.338-1.503-1.516-2.29c-7.138-31.611-14.188-63.242-21.442-94.826c-9.821-42.758-19.799-85.48-29.71-128.217
		c-2.14-9.227-4.215-18.47-6.442-27.677c-1.052-4.349-2.182-5.128-6.551-5.29c-0.832-0.031-1.666,0.001-2.5,0.006
		c-32.497,0.189-64.993,0.379-97.49,0.568c-0.833,0.005-1.674-0.066-2.498,0.023c-3.332,0.36-5.01,2.394-4.694,5.76
		c0.108,1.153,0.406,2.297,0.702,3.422c3.714,14.139,7.44,28.276,11.17,42.411c14.966,56.703,30.564,113.233,46.558,169.653
		c15.493,54.655,31.329,109.213,47.58,163.649c1.812,6.07,2.061,6.24,8.325,6.266c34.83,0.142,69.66,0.282,104.49,0.4
		c6.132,0.021,6.926-0.649,8.619-6.682c4.487-15.994,9.01-31.979,13.46-47.983c15.886-57.135,32.783-113.988,47.648-171.407
		c1.916-7.402,4.033-14.753,6.31-23.05c0.695,2.047,1.13,3.12,1.426,4.23c21.329,79.938,44.966,159.217,68.051,238.654
		c1.698,5.843,2.62,6.522,8.789,6.523c35.331,0.006,70.661,0.005,105.992,0.001c6.363-0.001,7.275-0.691,8.994-6.896
		c16.096-58.111,32.141-116.237,48.326-174.324c2.177-7.813,3.834-15.792,6.884-23.352c0.321,0.751,0.682,1.487,0.958,2.254
		C885.988,802.007,888.116,810.766,891.529,819.095z M181.797,588.509c-11.657,0.41-23.24,1.432-34.763,3.394
		c-26.067,4.439-50.515,12.96-72.279,28.264c-18.998,13.359-33.383,30.489-41.247,52.572c-5.194,14.587-7.265,29.57-5.749,45.152
		c1.244,12.788,4.425,24.801,10.54,36.079c9.467,17.462,23.731,30.278,39.923,41.183c16.37,11.024,34.268,18.991,52.68,25.89
		c17.577,6.586,35.588,11.958,53.025,18.929c10.362,4.143,20.495,8.708,29.194,15.949c13.168,10.962,12.388,26.609,4.32,36.909
		c-3.362,4.292-7.831,7.108-12.776,9.312c-8.662,3.862-17.848,5.364-27.177,5.749c-18.544,0.766-36.428-2.677-53.681-9.425
		c-15.558-6.085-30.13-14.071-43.814-23.596c-4.261-2.966-8.45-2.193-10.826,2.201c-1.34,2.478-3.095,4.733-4.673,7.081
		c-12.903,19.198-25.809,38.394-38.714,57.591c-4.319,6.424-3.919,8.536,2.733,12.816c4.194,2.698,8.477,5.266,12.787,7.776
		c25.372,14.781,52.505,25.051,81.353,30.304c21.667,3.945,43.534,5.448,65.656,3.617c20.012-1.656,39.588-4.954,58.582-11.444
		c22.217-7.591,42.167-18.867,58.158-36.426c15.263-16.76,24.06-36.469,27.022-58.895c1.472-11.145,1.212-22.239,0.02-33.39
		c-1.859-17.392-7.334-33.34-17.733-47.543c-10.026-13.694-22.943-24.053-37.371-32.629c-18.24-10.842-37.928-18.376-58.028-24.958
		c-17.039-5.58-34.427-10.117-51.047-16.96c-7.407-3.05-14.656-6.404-20.666-11.856c-8.857-8.034-9.93-19.997-2.624-29.131
		c2.633-3.291,6.011-5.731,9.699-7.745c7.72-4.214,16.105-6.348,24.744-7.175c17.351-1.661,34.106,1.035,50.392,7.315
		c12.484,4.814,24.007,11.369,35.429,18.194c5.132,3.067,7.487,2.553,10.909-2.315c14.643-20.834,29.266-41.682,43.851-62.557
		c3.38-4.837,2.781-7.604-2.122-10.736c-10.938-6.988-22.143-13.484-33.943-18.948C251.281,594.1,217.254,587.752,181.797,588.509z
		 M1346.952,901.128c-2.579-2.602-1.788-5.241-1.789-7.645c-0.035-128.816-0.031-257.632-0.032-386.448
		c0-1.666,0.002-3.333-0.028-4.999c-0.031-1.725-0.809-2.823-2.737-3.018c-1.89,0.538-3.373,1.917-4.977,3.063
		c-18.43,13.165-36.422,26.889-53.757,41.486c-15.687,13.209-30.944,26.854-45.275,41.542c-2.923,2.996-4.073,5.989-4.067,10.137
		c0.104,77.323,0.004,154.646,0.113,231.969c0.036,25.824-0.723,51.658,0.572,77.472c0.697,13.902,3.499,27.384,9.103,40.156
		c7.428,16.928,19.074,29.712,36.258,37.426c14.786,6.638,30.32,10,46.24,11.517c20.428,1.946,40.964,0.95,61.455,1.084
		c0.499,0.003,1.007,0.021,1.496-0.058c2.045-0.331,3.338-1.437,3.462-3.603c0.067-1.163,0.05-2.332,0.05-3.498
		c0.002-26.496,0.006-52.993-0.009-79.489c-0.001-1.651,0.255-3.337-0.388-4.891c-1.216-1.661-2.823-2.282-4.802-2.214
		c-1.997,0.069-3.999,0.014-5.999,0.014C1370.187,901.128,1358.534,901.128,1346.952,901.128z M1453.777,939.099
		c10.956,0.055,19.893-8.774,19.79-19.551c-0.101-10.563-8.863-19.414-19.371-19.569c-10.728-0.158-19.911,8.715-20.077,19.401
		C1433.951,930.151,1442.816,939.044,1453.777,939.099z"/>
	<path style="fill:#FEDD10;" d="M948.751,640.117c12.432,39.964,25.238,79.817,37.149,119.935
		c6.802,22.909,12.178,46.243,18.135,69.402c5.046,19.62,10.006,39.261,14.996,58.895c0.202,0.794,0.218,1.671,1.564,2.204
		c2.14-8.11,4.294-16.168,6.39-24.241c9.099-35.039,17.879-70.164,27.367-105.097c7.181-26.441,15.311-52.624,22.916-78.952
		c6.958-24.088,13.77-48.218,20.663-72.326c1.727-6.04,1.966-6.199,8.301-6.189c31.83,0.054,63.661,0.113,95.491,0.171
		c0.833,0.001,1.67-0.044,2.499,0.015c4.49,0.316,6.465,3.063,5.146,7.454c-2.723,9.067-5.552,18.101-8.36,27.142
		c-25.912,83.43-52.974,166.486-80.959,249.242c-11.28,33.357-22.625,66.692-33.939,100.038c-0.374,1.101-0.737,2.206-1.106,3.308
		c-0.897,2.68-2.632,4.169-5.585,3.969c-0.663-0.045-1.333-0.001-1.999,0c-40.663,0.06-81.326,0.124-121.989,0.175
		c-6.303,0.008-6.6-0.214-8.506-6.101c-17.648-54.516-35.285-109.036-52.945-163.549c-0.715-2.206-1.63-4.347-2.452-6.518
		c2.315-1.562,2.351-4.266,3.065-6.534c3.583-11.383,6.954-22.833,10.465-34.239c3.171-10.301,6.463-20.565,9.636-30.865
		c6.343-20.595,12.646-41.203,18.956-61.808c3.884-12.681,7.674-25.391,11.688-38.03C946.16,645.032,946.235,641.98,948.751,640.117
		z"/>
	<path style="fill:#FBBC2E;" d="M948.751,640.117c-2.516,1.863-2.591,4.915-3.412,7.501c-4.014,12.639-7.805,25.349-11.688,38.03
		c-6.31,20.605-12.613,41.213-18.956,61.808c-3.173,10.301-6.465,20.564-9.636,30.865c-3.511,11.406-6.882,22.856-10.465,34.239
		c-0.714,2.268-0.75,4.972-3.065,6.534c-3.413-8.329-5.541-17.088-8.574-25.544c-0.275-0.767-0.636-1.503-0.958-2.254
		c-0.296-1.859,0.184-3.587,0.681-5.373c14.95-53.722,29.867-107.453,44.764-161.19c1.983-7.152,3.832-14.342,5.744-21.514
		c3.832-0.627,4.816,2.284,5.675,4.9c2.511,7.643,4.82,15.352,7.193,23.04C946.974,634.139,947.853,637.131,948.751,640.117z"/>
	<path style="fill:#FDEBEC;" d="M1453.777,939.099c-10.96-0.055-19.826-8.948-19.658-19.72c0.166-10.685,9.35-19.559,20.077-19.401
		c10.508,0.155,19.27,9.006,19.371,19.569C1473.67,930.325,1464.733,939.155,1453.777,939.099z M1453.869,935.338
		c8.729,0.001,16.076-7.282,15.927-15.788c-0.154-8.81-7.175-15.717-15.98-15.722c-8.902-0.005-15.797,6.873-15.792,15.754
		C1438.027,928.417,1444.987,935.337,1453.869,935.338z"/>
	<path style="fill:#EE2A44;" d="M1453.869,935.338c-8.882-0.001-15.841-6.922-15.846-15.756
		c-0.004-8.881,6.891-15.759,15.792-15.754c8.805,0.005,15.826,6.912,15.98,15.722
		C1469.945,928.056,1462.597,935.339,1453.869,935.338z M1461.385,928.5c-0.88-2.219-1.77-4.463-2.691-6.787
		c0.629-0.67,1.275-1.202,1.728-1.865c3.171-4.646,0.803-9.575-4.836-9.815c-2.73-0.116-5.543-0.441-8.164,0.318
		c0,6.378,0,12.424,0,18.625c1.26-0.164,2.265,0.381,3.34-0.753c0.467-1.752-0.29-3.978,0.482-5.891
		c1.346-0.417,2.459-0.45,3.518,0.033c1.564,1.976,1.714,4.684,3.401,6.412C1459.315,929.075,1460.276,929.209,1461.385,928.5z"/>
	<path style="fill:#FDEBED;" d="M1461.385,928.5c-1.109,0.709-2.07,0.576-3.223,0.275c-1.688-1.728-1.837-4.436-3.401-6.412
		c-1.059-0.482-2.172-0.45-3.518-0.033c-0.772,1.914-0.015,4.14-0.482,5.891c-1.075,1.134-2.08,0.589-3.34,0.753
		c0-6.201,0-12.247,0-18.625c2.621-0.759,5.434-0.434,8.164-0.318c5.64,0.241,8.007,5.169,4.836,9.815
		c-0.453,0.664-1.099,1.195-1.728,1.865C1459.616,924.036,1460.506,926.281,1461.385,928.5z M1450.988,918.664
		c2.416,0.16,4.71,0.798,6.668-0.863c0.405-4.874-0.264-5.297-6.798-4.369C1450.191,914.993,1450.325,916.573,1450.988,918.664z"/>
	<path style="fill:#EF3F53;" d="M1450.988,918.664c-0.663-2.09-0.797-3.67-0.13-5.232c6.534-0.928,7.203-0.505,6.798,4.369
		C1455.698,919.462,1453.404,918.823,1450.988,918.664z"/>
</g>
</svg>
