<?xml version="1.0" encoding="iso-8859-1"?>
<!-- Generator: Adobe Illustrator 27.0.0, SVG Export Plug-In . SVG Version: 6.00 Build 0)  -->
<svg version="1.1" id="Layer_1" xmlns="http://www.w3.org/2000/svg" xmlns:xlink="http://www.w3.org/1999/xlink" x="0px" y="0px"
	 viewBox="0 0 1640.994 347.11" style="enable-background:new 0 0 1640.994 347.11;" xml:space="preserve">
<g>
	<path style="fill:#2F55A0;" d="M308.318,178.38c0-55.446,0-111.71,0-169.163c40.611,40.665,80.548,80.655,120.548,120.708
		c0,56.467,0,112.922,0,168.821C389.091,259.031,349.083,219.084,308.318,178.38z"/>
	<path style="fill:#2E54A0;" d="M175.07,299.474c0-56.366,0-112.673,0-168.92c40.121-40.051,80.18-80.04,120.432-120.222
		c0,56.313,0,112.609,0,168.979C255.557,219.168,215.481,259.154,175.07,299.474z"/>
	<path style="fill:#2E54A0;" d="M314.213,0.981c56.922,0,113.368,0,168.548,0c40.612,40.454,80.558,80.244,120.509,120.039
		c-56.479,0-113.082,0-168.627,0C394.22,80.729,354.385,41.023,314.213,0.981z"/>
	<path style="fill:#2E54A0;" d="M0,120.955C40.223,80.644,79.813,40.968,119.589,1.105c56.464,0,113.079,0,169.681,0
		c-1.65,3.299-107.412,109.923-118.893,119.849C113.941,120.955,57.504,120.955,0,120.955z"/>
	<path style="fill:#0E0C0C;" d="M1003.675,173.194c0,31.421,0,62.843,0,94.583c-7.006,0.453-13.573,0.241-20.394,0.144
		c0-39.841,0-79.442,0-119.071c3.483-1.015,23.54-1.342,36.078-0.524c6.564,32.314,13.154,64.754,19.744,97.194
		c0.239-0.008,0.478-0.016,0.717-0.024c0-32.347,0-64.693,0-97.189c6.975,0,13.382,0,20,0c0,39.832,0,79.445,0,119.388
		c-11.805,0-23.709,0-36.021,0c-6.37-31.365-12.762-62.842-19.154-94.318C1004.322,173.316,1003.999,173.255,1003.675,173.194z"/>
	<path style="fill:#0E0C0C;" d="M1140.796,119.852c-6.354,0-12.675,0-18.985,0c-1.12-3.879-1.597-101.598-0.574-119.511
		c11.887,0,23.801,0,36.198,0c3.214,15.999,6.448,32.223,9.738,48.435c3.294,16.231,6.644,32.451,10.641,48.655
		c0-32.351,0-64.702,0-97.225c6.949,0,13.36,0,19.961,0c0,39.913,0,79.634,0,119.551c-11.848,0-23.463,0-35.803,0
		c-6.611-31.294-12.788-62.914-19.409-94.712c-0.368,0.918,0.157-0.075-0.465,0.162c-0.133,0.051-0.251,0.236-0.304,0.385
		c-0.108,0.302-0.208,0.618-0.236,0.935c-0.044,0.496-0.034,0.998-0.034,1.498c-0.023,30.161-0.044,60.323-0.068,90.484
		c0,0.164-0.021,0.338-0.081,0.489C1141.313,119.149,1141.192,119.276,1140.796,119.852z"/>
	<path style="fill:#0C0B0B;" d="M951.191,119.918c0-40.302,0-79.906,0-119.903c3.663,0,7.123-0.009,10.582,0.002
		c9.499,0.029,19.004-0.129,28.495,0.163c7.517,0.231,14.735,1.85,21.439,5.648c5.195,2.943,8.759,7.126,10.907,12.511
		c2.036,5.106,3.287,10.458,3.296,16.002c0.026,15.997,0.1,31.995-0.068,47.991c-0.071,6.838-1.413,13.518-3.893,19.945
		c-2.757,7.144-7.839,11.7-15.005,14.245c-5.067,1.799-10.304,2.757-15.585,3.074C978.08,120.394,964.783,119.846,951.191,119.918z
		 M976.013,101.539c3.537,0,6.541,0.286,9.474-0.05c11.537-1.324,15.032-4.992,15.531-16.587
		c0.695-16.133,0.333-32.278,0.197-48.418c-0.014-1.661-0.03-3.356-0.348-4.975c-0.989-5.036-2.651-9.691-8.167-11.523
		c-5.393-1.791-10.897-2.508-16.687-1.687C976.013,46.077,976.013,73.64,976.013,101.539z"/>
	<path style="fill:#0C0B0B;" d="M959.409,267.828c-8.189,0-16.121,0-24.391,0c0-17.275,0-34.359,0-51.743
		c-7.728,0-15.123,0-23.026,0c0,17.074,0,34.29,0,51.719c-8.435,0-16.371,0-24.642,0c0-39.649,0-79.353,0-119.388
		c7.973,0,16.014,0,24.482,0c0,16.339,0,32.581,0,49.065c7.826,0,15.229,0,23.043,0c0-16.396,0-32.638,0-49.135
		c8.326,0,16.248,0,24.534,0C959.409,188.012,959.409,227.713,959.409,267.828z"/>
	<path style="fill:#0C0B0B;" d="M1155.907,206.522c0,9.16,0.057,18.32-0.02,27.48c-0.052,6.187-1.183,12.228-3.238,18.054
		c-3.693,10.47-12.047,14.876-22.246,16.789c-9.134,1.714-18.188,1.281-27.205-0.882c-9.899-2.374-16.317-8.312-19.284-18.113
		c-1.9-6.276-2.608-12.715-2.678-19.179c-0.186-16.986-0.214-33.976-0.035-50.961c0.087-8.249,1.65-16.195,7.297-22.77
		c5.054-5.884,11.823-8.533,19.143-9.648c8.073-1.23,16.17-1.12,24.29,0.531c16.776,3.41,23.559,15.199,23.932,29.223
		c0.261,9.819,0.051,19.651,0.051,29.477C1155.912,206.522,1155.91,206.522,1155.907,206.522z M1131,207.537c0.017,0,0.034,0,0.05,0
		c0-9.65-0.038-19.301,0.027-28.951c0.016-2.384-0.433-4.665-1.288-6.808c-1.768-4.434-5.122-6.717-9.97-6.939
		c-5.205-0.238-9.59,0.949-11.954,6.113c-1.403,3.064-1.917,6.341-1.92,9.685c-0.016,17.305-0.042,34.61,0.029,51.915
		c0.016,3.984,0.474,7.963,1.807,11.762c1.796,5.118,5.328,7.388,11.129,7.262c5.742-0.125,9.384-2.604,10.802-7.753
		c0.699-2.537,1.337-5.12,1.316-7.835C1130.955,226.505,1131,217.021,1131,207.537z"/>
	<path style="fill:#0C0B0B;" d="M1250.96,205.987c0-9.493-0.099-18.987,0.034-28.478c0.094-6.753,1.705-13.133,5.692-18.747
		c5.192-7.312,12.83-10.315,21.234-11.581c8.269-1.245,16.555-0.969,24.782,0.831c12.46,2.726,20.541,11.528,22.312,24.279
		c0.529,3.81,0.766,7.604,0.759,11.438c-0.027,14.656-0.017,29.312-0.01,43.967c0.003,6.338-0.539,12.625-1.886,18.821
		c-2.527,11.626-9.154,19.056-21.173,21.669c-9.967,2.167-19.728,2.082-29.625-0.159c-10.874-2.462-17.326-9.25-20.028-19.803
		c-1.318-5.149-2.122-10.401-2.093-15.758c0.047-8.826,0.013-17.653,0.013-26.48C1250.968,205.987,1250.964,205.987,1250.96,205.987
		z M1300.932,207.103c0.003,0,0.006,0,0.008,0c0-8.488-0.042-16.976,0.025-25.463c0.021-2.69-0.334-5.299-0.985-7.885
		c-1.467-5.824-5.049-8.727-10.965-8.911c-6.883-0.215-10.377,2.199-12.396,8.349c-0.532,1.62-0.771,3.227-0.77,4.892
		c0.008,19.471,0.022,38.942,0.047,58.414c0.004,3.02,0.64,5.937,1.796,8.714c1.824,4.378,5.589,6.589,10.78,6.45
		c5.413-0.145,8.839-2.309,10.463-6.865c1.462-4.1,1.978-8.389,1.99-12.73C1300.948,223.745,1300.932,215.424,1300.932,207.103z"/>
	<path style="fill:#0E0C0C;" d="M1421.672,184.369c-1.12,1.038-1.971,0.935-2.785,0.935c-7.13,0.007-14.259,0.004-21.31,0.004
		c-0.993-2.095-0.482-3.946-0.557-5.73c-0.091-2.167-0.242-4.277-0.912-6.386c-1.87-5.885-4.902-8.325-10.798-8.408
		c-6.425-0.091-9.636,2.079-11.697,7.903c-1.633,4.617-1.915,9.424-1.906,14.251c0.028,14.992,0.15,29.984,0.139,44.976
		c-0.003,3.37,0.536,6.685,1.311,9.868c2.021,8.293,6.171,9.846,13.372,9.817c3.356-0.014,6.9-0.468,10.213-2.007
		c0-8.918,0-17.855,0-27.171c-3.597,0-7.028,0-10.775,0c0-6.104,0-11.837,0-17.87c11.75,0,23.47,0,35.46,0
		c0,20.183,0,40.107,0,60.187c-3.695,2.012-7.924,2.198-11.943,2.862c-9.02,1.489-18.114,2.543-27.293,2.345
		c-4.501-0.097-8.928-0.779-13.268-1.974c-8.982-2.472-15.008-8.025-18.075-16.917c-2.353-6.82-3.645-13.844-3.775-20.973
		c-0.266-14.656-0.161-29.32-0.084-43.979c0.033-6.176,1.253-12.224,3.162-18.071c3.814-11.679,12.165-18.339,24.019-20.651
		c8.911-1.738,17.881-1.743,26.67,0.762c11.526,3.286,18.122,10.991,20.131,22.84
		C1421.755,175.611,1421.648,180.171,1421.672,184.369z"/>
	<path style="fill:#0C0B0B;" d="M1639.501,185.087c-8.255,0-16.033,0-24.504,0c0-2.655-0.109-5.115,0.031-7.561
		c0.137-2.393-0.499-4.628-1.16-6.838c-0.632-2.116-1.967-3.778-4.002-4.873c-7.586-4.08-16.714,0.414-17.925,8.866
		c-1.041,7.264,1.138,13.054,7.509,17.131c3.648,2.334,7.514,4.224,11.36,6.163c6.232,3.142,12.28,6.538,17.804,10.875
		c8.28,6.501,12.525,14.779,12.374,25.394c-0.062,4.358-0.347,8.668-1.471,12.841c-3.33,12.359-11.841,19.248-24.05,21.719
		c-9.746,1.972-19.526,1.553-29.186-0.834c-10.765-2.66-17.011-9.592-19.36-20.364c-1.151-5.28-0.958-10.571-0.981-16.238
		c7.79,0,15.529,0,23.616,0c1.093,2.789,0.68,6.161,1.132,9.371c1.542,10.964,12.291,12.626,19.357,9.43
		c1.714-0.775,3.014-2.022,3.997-3.627c3.221-5.259,4.045-15.646-2.143-21.146c-3.396-3.018-7.23-5.278-11.248-7.265
		c-6.398-3.164-12.689-6.481-18.674-10.409c-18.203-11.946-17.355-31.975-10.56-45.872c4.301-8.796,12.357-12.792,21.49-14.514
		c8.882-1.674,17.791-1.407,26.706,0.613c10.869,2.464,16.978,9.293,19.012,19.867
		C1639.687,173.326,1640.118,178.982,1639.501,185.087z"/>
	<path style="fill:#0E0C0C;" d="M843.968,227.291c8.234,0,15.984,0,24.036,0c0.519,8.65,0.368,17.009-2.489,25.133
		c-3.235,9.198-10.143,14.114-19.288,16.132c-9.035,1.994-18.115,1.832-27.187-0.105c-12.775-2.729-19.44-11.078-22.007-23.395
		c-1.399-6.709-1.613-13.532-1.788-20.317c-0.284-10.982-0.267-21.982-0.005-32.965c0.158-6.62,0.467-13.255,1.686-19.826
		c2.588-13.954,9.482-21.564,23.304-24.477c8.515-1.795,17.117-1.764,25.676,0.401c11.741,2.97,18.433,10.628,20.819,22.191
		c1.074,5.203,1.382,10.538,0.74,16.164c-3.831,1.13-7.811,0.406-11.72,0.528c-3.98,0.124-7.967,0.027-11.905,0.027
		c-1.428-1.78-0.81-3.685-0.793-5.418c0.032-3.19-0.289-6.313-1.152-9.364c-1.25-4.42-4.009-6.889-7.86-7.209
		c-5.377-0.447-9.085,1.424-11.147,5.714c-2.515,5.234-2.889,10.951-2.857,16.543c0.094,16.462-0.913,32.948,0.794,49.389
		c0.294,2.829,0.854,5.556,1.822,8.216c1.843,5.063,5.21,6.723,9.835,7.012c4.625,0.289,7.794-2.287,9.56-7.201
		C843.983,239.056,843.995,233.393,843.968,227.291z"/>
	<path style="fill:#090808;" d="M717.39,0.153c19.851,0,39.462,0,59.348,0c0,5.855,0,11.578,0,17.687c-11.488,0-22.903,0-34.581,0
		c0,10.457,0,20.537,0,31.047c10.976,0,22.044,0,33.431,0c0,6.297,0,12.172,0,18.342c-11.081,0-22.021,0-32.881,0
		c-1.003,3.807-1.297,25.361-0.492,34.425c11.682,0,23.421,0,35.397,0c0,6.233,0,11.981,0,18.014c-20.022,0-39.941,0-60.221,0
		C717.39,80.038,717.39,40.328,717.39,0.153z"/>
	<path style="fill:#090808;" d="M1278.742,48.99c0,6.409,0,12.032,0,18.316c-5.706,0-11.292,0-16.877,0c-5.469,0-10.938,0-16.711,0
		c0,11.53,0,22.743,0,34.305c11.715,0,23.325,0,35.296,0c0,6.064,0,11.803,0,17.607c-3.259,0.946-50.554,1.31-60.177,0.376
		c0-39.677,0-79.383,0-119.334c19.775,0,39.498,0,59.441,0c0,5.837,0,11.564,0,17.681c-11.618,0-23.027,0-34.648,0
		c0,10.463,0,20.538,0,31.049C1256.19,48.99,1267.26,48.99,1278.742,48.99z"/>
	<path style="fill:#0B0A0A;" d="M776.873,148.35c0,5.913,0,11.524,0,17.501c-11.527,0-22.949,0-34.675,0c0,10.729,0,21.095,0,31.741
		c11.122,0,22.079,0,33.374,0c0,6.009,0,11.76,0,17.952c-10.934,0-22.016,0-33.389,0c0,11.657,0,22.883,0,34.402
		c11.691,0,23.301,0,35.292,0c0,5.994,0,11.719,0,17.763c-19.881,0-39.93,0-60.214,0c0-39.663,0-79.261,0-118.875
		C720.924,147.822,762.848,147.445,776.873,148.35z"/>
	<path style="fill:#0B0A0A;" d="M871.19,0.162c19.79,0,39.395,0,59.32,0c0,5.766,0,11.485,0,17.629c-11.439,0-22.85,0-34.579,0
		c0,10.476,0,20.543,0,31.053c10.85,0,21.933,0,33.387,0c0,6.153,0,11.885,0,18.039c-3.343,0.965-6.983,0.273-10.547,0.395
		c-3.826,0.13-7.66,0.029-11.49,0.029c-3.642,0-7.284,0-10.838,0c-1,3.797-1.246,27.787-0.368,34.32c11.531,0,23.13,0,35.067,0
		c0,6.286,0,12.158,0,18.178c-20.039,0-39.822,0-59.952,0C871.19,80.052,871.19,40.349,871.19,0.162z"/>
	<path style="fill:#070606;" d="M1548.467,166.034c-11.801,0-23.261,0-34.996,0c0,10.524,0,20.772,0,31.543
		c11.118,0,22.189,0,33.546,0c0,6.239,0,11.959,0,18.199c-11.248,0-22.325,0-33.606,0c0,11.606,0,22.694,0,34.141
		c11.75,0,23.345,0,35.312,0c0,6.061,0,11.785,0,17.81c-19.72,0-39.629,0-59.819,0c0-39.721,0-79.433,0-119.389
		c19.858,0,39.591,0,59.563,0C1548.467,154.176,1548.467,159.772,1548.467,166.034z"/>
	<path style="fill:#0B0A0A;" d="M1029.689,0.2c8.845,0,17.293,0,25.885,0c4.56,15.497,9.083,30.865,13.856,47.087
		c5.275-16.11,10.311-31.494,15.401-47.041c8.075,0,16.009,0,24.023,0c0.477,1.151-0.09,2.139-0.484,3.178
		c-8.436,22.275-16.848,44.56-25.301,66.828c-0.837,2.204-1.223,4.404-1.209,6.775c0.072,12.485,0.034,24.972,0.034,37.457
		c0,1.635,0,3.27,0,5.184c-8.235,0-16.158,0-24.241,0c-1.099-0.915-0.587-2.348-0.591-3.607
		c-0.038-12.153-0.075-24.306,0.017-36.458c0.022-2.877-0.446-5.554-1.448-8.238c-8.046-21.544-16.037-43.109-24.04-64.669
		C1030.845,4.686,1029.874,2.74,1029.689,0.2z"/>
	<path style="fill:#0C0B0B;" d="M650.272,17.861c-9.075,0-17.339,0-25.848,0c0-5.951,0-11.548,0-17.497c25.194,0,50.423,0,75.945,0
		c0,5.64,0,11.366,0,17.476c-8.436,0-16.693,0-25.4,0c0,34.107,0,67.837,0,101.839c-8.375,0-16.303,0-24.697,0
		C650.272,86.033,650.272,52.303,650.272,17.861z"/>
	<path style="fill:#0C0B0B;" d="M650.205,165.97c-9.013,0-17.28,0-25.79,0c0-5.907,0-11.5,0-17.103
		c3.521-1.01,64.558-1.431,75.91-0.487c0,5.686,0,11.409,0,17.481c-8.3,0-16.557,0-25.2,0c0,34.046,0,67.755,0,101.813
		c-8.43,0-16.482,0-24.92,0C650.205,234.055,650.205,200.338,650.205,165.97z"/>
	<path style="fill:#050505;" d="M797.925,119.492c0-39.661,0-79.354,0-119.26c8.059,0,15.973,0,24.285,0
		c0,33.731,0,67.283,0,101.318c10.454,0,20.533,0,30.963,0c0,6.195,0,11.918,0,17.652
		C849.7,120.127,804.932,120.393,797.925,119.492z"/>
	<path style="fill:#030303;" d="M1202.901,250.056c10.734,0,20.68,0,30.993,0c0.841,5.964,0.124,11.706,0.463,17.692
		c-18.656,0-37.051,0-55.615,0c0-39.759,0-79.339,0-119.288c7.909,0,15.792,0,24.159,0
		C1202.901,182.004,1202.901,215.694,1202.901,250.056z"/>
	<path style="fill:#030303;" d="M1442.991,148.265c8.128,0,15.892,0,23.967,0c0,39.858,0,79.546,0,119.494
		c-7.836,0-15.754,0-23.967,0C1442.991,228.059,1442.991,188.374,1442.991,148.265z"/>
	<path style="fill:#151413;" d="M1263.314,328.933c0,5.823,0,11.419,0,17.205c-3.012,0.422-5.602,0.34-8.491,0.091
		c0-14.391,0-28.622,0-43.023c7.883,0,15.557-0.401,23.173,0.101c9.616,0.634,14.671,9.066,10.879,17.283
		c-1.844,3.995-5.233,5.835-9.696,6.768c6.562,4.868,9.72,11.937,14.071,18.837c-3.867,0-7.121,0-10.513,0
		c-2.912-4.249-5.974-8.392-8.677-12.756C1271.673,329.587,1268.538,327.937,1263.314,328.933z M1263.394,321.067
		c4.655,0.399,8.807,0.271,12.937-0.066c2.61-0.213,4.536-2.566,4.567-5.066c0.032-2.581-1.742-4.773-4.556-4.984
		c-4.25-0.319-8.529-0.41-12.948,0.091C1263.394,314.47,1263.394,317.562,1263.394,321.067z"/>
	<path style="fill:#181616;" d="M1013.694,327.338c6.983,4.974,9.748,12.248,14.499,18.838c-3.923,0-7.168,0-10.838,0
		c-2.628-3.893-5.517-7.922-8.134-12.121c-2.531-4.062-5.856-6.184-11.121-5.383c0,5.717,0,11.479,0,17.351
		c-3.13,0.624-5.884,0.502-8.879,0.095c0-14.182,0-28.25,0-42.379c0.841-1.061,2.092-0.635,3.194-0.643
		c5.652-0.041,11.304-0.03,16.957-0.011c1.328,0.005,2.667,0.016,3.98,0.188c6.842,0.899,10.945,4.8,11.306,11.093
		c0.282,4.926-1.503,10.339-9.003,12.575C1015.187,327.083,1014.694,327.14,1013.694,327.338z M998.12,321.029
		c4.621,0,8.774,0.154,12.907-0.055c2.678-0.135,4.047-1.917,4.192-4.626c0.162-3.029-1.098-5.069-3.921-5.338
		c-4.373-0.416-8.785-0.449-13.179,0.075C998.12,314.563,998.12,317.664,998.12,321.029z"/>
	<path style="fill:#151413;" d="M1593.821,346.253c0-14.697,0-28.799,0-43.142c6.769,0,13.26-0.212,19.732,0.055
		c7.573,0.313,13.25,5.176,15.311,12.778c1.596,5.889,1.604,11.853-0.001,17.743c-2.038,7.48-7.154,11.997-14.933,12.482
		C1607.332,346.58,1600.688,346.253,1593.821,346.253z M1602.874,338.907c3.359,0,6.654,0.248,9.894-0.069
		c3.342-0.327,6.005-2.11,6.933-5.545c1.45-5.364,1.774-10.825,0.135-16.2c-1.1-3.606-3.52-5.919-7.523-6.137
		c-3.1-0.169-6.198-0.351-9.439,0.037C1602.874,320.389,1602.874,329.447,1602.874,338.907z"/>
	<path style="fill:#181616;" d="M916.41,347.02c-10.09,0.621-20.141-6.811-20.59-19.29c-0.121-3.353-0.304-6.708,0.498-9.899
		c2.766-11.013,11.227-16.372,21.878-15.449c15.267,1.323,20.287,12.736,19.362,25.173c-0.483,6.494-2.887,12.267-8.602,16.149
		C925.081,346.333,920.806,347.304,916.41,347.02z M928.187,324.262c-0.043-0.854-0.017-2.361-0.209-3.84
		c-0.773-5.928-4.795-9.949-10.298-10.389c-5.647-0.451-10.132,2.665-11.954,8.373c-1.353,4.24-1.238,8.508,0.049,12.735
		c1.621,5.329,5.271,8.145,10.509,8.221c5.601,0.081,9.374-2.671,11.179-8.051C928.167,329.211,928.118,327.061,928.187,324.262z"/>
	<path style="fill:#181616;" d="M1160.991,325.145c-0.241-3.676,0.173-6.831,1.33-9.788c3.588-9.169,10.73-13.409,20.259-13.041
		c10.424,0.403,17.129,6.026,19.435,15.445c1.641,6.702,1.346,13.212-1.931,19.362c-3.422,6.422-9.012,9.561-16.183,9.874
		c-2.478,0.108-4.998,0.297-7.457-0.337c-9.828-2.532-14.34-9.199-15.434-18.495
		C1160.874,327.016,1160.991,325.836,1160.991,325.145z M1193.837,325.216c-0.165-2.914-0.432-5.403-1.253-7.763
		c-1.624-4.662-5.721-7.449-10.694-7.423c-4.788,0.025-9.236,3.04-10.714,7.495c-1.563,4.713-1.566,9.518-0.027,14.236
		c1.61,4.936,5.707,7.639,11.081,7.555c5.228-0.081,9.266-3.074,10.622-8.115C1193.41,329.127,1193.563,326.943,1193.837,325.216z"
		/>
	<path style="fill:#151413;" d="M1538.806,327.425c-7.174,0-13.815,0-20.562,0c-1.088,3.777-0.22,7.414-0.645,11.446
		c8.027,0,15.788,0,23.654,0c0.738,2.486,0.375,4.601,0.417,7.416c-5.55,0.246-10.971,0.079-16.379,0.11
		c-5.326,0.031-10.652,0.007-15.928,0.007c-0.988-3.436-1.278-36.222-0.362-43.324c5.204,0,10.481,0,15.759,0
		c5.148,0,10.296,0,15.577,0c0.978,2.427,0.385,4.724,0.454,7.433c-7.525,0-14.944,0-22.447,0c-1.152,3.264-0.45,6.167-0.622,9.374
		c7.089,0,13.862,0,20.813,0C1539.253,322.42,1538.88,324.689,1538.806,327.425z"/>
	<path style="fill:#0E0C0C;" d="M754.731,303.302c0,14.29,0,28.381,0,42.74c-2.844,0-5.593,0-8.854,0
		c-5.291-8.502-10.762-17.293-16.233-26.084c-0.284,0.094-0.568,0.188-0.852,0.281c0,8.556,0,17.111,0,25.861
		c-2.822,0-5.234,0-7.9,0c0-14.284,0-28.367,0-42.662c2.625-0.661,5.262-0.244,8.3-0.322c5.625,9.13,11.329,18.389,17.034,27.649
		c0.234-0.061,0.467-0.123,0.701-0.184c0-9.025,0-18.05,0-27.28C749.597,303.302,751.883,303.302,754.731,303.302z"/>
	<path style="fill:#181616;" d="M1381.869,346.045c-3.277,0.682-6.227,0.3-9.329,0.274c-1.909-2.747-2.323-6.143-4.004-9.25
		c-2.628-0.57-5.454-0.192-8.249-0.258c-2.822-0.067-5.646-0.015-8.712-0.015c-1.224,3.142-2.41,6.184-3.649,9.364
		c-3.017,0-5.899,0-9.395,0c5.66-14.558,11.15-28.682,16.68-42.906c3.123,0,6.088,0,9.529,0
		C1370.367,317.313,1376.049,331.507,1381.869,346.045z M1359.971,313.941c-2.281,5.473-4.026,9.959-5.412,14.916
		c3.671,0,7.071,0,10.933,0C1363.693,323.998,1362.013,319.458,1359.971,313.941z"/>
	<path style="fill:#181616;" d="M1086.63,329.979c0,5.689,0,10.8,0,15.972c-3.057,0.783-5.816,0.491-8.536,0.308
		c-0.786-4.758-0.743-39.027,0.051-43.098c6.772,0,13.599-0.267,20.395,0.07c7.824,0.388,12.384,5.628,12.334,13.439
		c-0.048,7.608-4.958,12.873-12.603,13.277C1094.639,330.138,1090.988,329.979,1086.63,329.979z M1086.858,322.494
		c3.698,0.478,6.808,0.319,9.888-0.309c3.179-0.648,5.028-2.92,4.895-5.877c-0.123-2.744-2.019-4.946-4.973-5.29
		c-3.228-0.376-6.495-0.485-9.81,0.037C1086.858,314.994,1086.858,318.587,1086.858,322.494z"/>
	<path style="fill:#181616;" d="M836.625,330.592c3.083,0.668,5.743,1.356,8.189,2.615c-2.466,9.777-8.16,13.968-18.494,13.826
		c-8.831-0.121-16.352-6.078-18.146-14.791c-1.358-6.597-1.188-13.19,1.818-19.435c5.362-11.141,20.374-13.334,29.068-6.954
		c3.035,2.227,4.198,4.159,5.649,9.183c-2.535,1.172-5.309,1.429-7.887,2.014c-0.377-0.335-0.695-0.499-0.831-0.758
		c-2.609-4.95-5.715-6.876-10.122-6.247c-4.343,0.619-7.702,3.628-8.607,8.499c-0.817,4.398-0.995,8.914,0.311,13.314
		c1.451,4.89,4.148,7.143,8.729,7.401c4.667,0.263,7.071-1.27,9.26-5.941C835.902,332.588,836.151,331.815,836.625,330.592z"/>
	<path style="fill:#1D1B1B;" d="M1457.74,310.816c-3.835,0-7.629,0-11.863,0c0,11.835,0,23.412,0,34.967
		c-3.168,1.083-5.95,0.564-9.178,0.527c0-11.745,0-23.321,0-34.933c-4.296-1.179-8.319-0.084-12.497-0.849
		c-0.57-2.243-0.196-4.529-0.236-7.126c11.329,0,22.561,0,33.961,0C1458.532,305.748,1458.633,308.15,1457.74,310.816z"/>
	<path style="fill:#1D1B1B;" d="M658.952,303.243c2.911,0,5.534,0,8.459,0c0,14.242,0,28.318,0,42.635
		c-2.577,1.156-5.386,0.296-8.087,0.502C658.361,342.921,658.073,310.434,658.952,303.243z"/>
</g>
</svg>
