<?xml version="1.0" encoding="iso-8859-1"?>
<!-- Generator: Adobe Illustrator 27.0.0, SVG Export Plug-In . SVG Version: 6.00 Build 0)  -->
<svg version="1.1" id="Layer_1" xmlns="http://www.w3.org/2000/svg" xmlns:xlink="http://www.w3.org/1999/xlink" x="0px" y="0px"
	 viewBox="0 0 1573.774 277.84" style="enable-background:new 0 0 1573.774 277.84;" xml:space="preserve">
<g>
	<path style="fill:#065F9E;" d="M44.594,258.108c0,5.595,0,10.235,0,14.807C40.849,273.95,8.937,274.259,0,273.381
		C0,182.356,0,91.305,0,0c14.686,0,29.287,0,44.387,0c0,33.636,0,67.369,0,101.102c4.045-4.728,7.206-9.722,10.821-14.41
		c9.185-11.915,21.486-18.226,36.146-19.751c18.444-1.919,35.449,2.256,49.931,14.267c10.003,8.295,17.523,18.614,22.812,30.525
		c5.441,12.254,8.47,25.079,9.868,38.408c1.082,10.315,1.292,20.626,0.766,30.929c-1.273,24.922-8.237,48.05-22.938,68.483
		c-11.148,15.494-26.278,24.529-45.203,27.315c-13.766,2.026-27.18,0.999-40.149-4.164c-5.742-2.286-10.938-5.593-15.748-9.479
		C48.901,261.777,47.162,260.266,44.594,258.108z M127.744,174.223c0.157-14.111-0.639-24.043-3.054-33.779
		c-2.141-8.627-5.457-16.813-11.325-23.595c-15.197-17.562-42.727-14.722-56.366,1.507c-7.782,9.26-11.48,20.182-12.185,32.037
		c-0.791,13.301-0.329,26.639-0.254,39.963c0.038,6.851,0.638,13.609,2.26,20.262c5.804,23.805,27.544,34.116,48.084,29.08
		c12.713-3.117,21.13-11.448,25.833-23.522C126.505,201.366,127.293,185.76,127.744,174.223z"/>
	<path style="fill:#075F9E;" d="M451.452,153.054c13.993,0,27.788,0,41.922,0c0,12.203,0,24.106,0,36.587
		c-13.544,0-27.26,0-41.159,0c-0.984,7.759-2.22,14.93-4.515,21.866c-10.817,32.697-32.985,53.654-66.057,62.67
		c-14.715,4.012-29.826,4.249-45.022,1.839c-11.174-1.772-21.541-5.334-31.219-11.091c-11.292-6.716-19.673-16.321-26.733-27.167
		c-9.391-14.427-15.068-30.21-17.1-47.344c-2.518-21.233-0.776-42,8.425-61.43c13.636-28.795,35.535-47.643,67.644-53.289
		c17.497-3.077,34.738-2.272,51.749,2.992c10.304,3.189,19.508,8.379,27.87,15.112C435.27,108.301,446.554,127.568,451.452,153.054z
		 M359.682,153.416c5.273,0,9.917,0,14.561,0c4.5,0,9.004,0.126,13.497-0.035c4.535-0.162,9.159,0.722,13.712-0.624
		c-0.576-4.153-1.481-7.832-2.719-11.437c-3.362-9.794-8.176-18.635-17.044-24.536c-10.798-7.186-22.893-7.608-35.058-5.436
		c-11.993,2.142-20.767,9.174-26.639,19.898c-6.117,11.171-8.644,23.193-9.544,35.791c-0.946,13.244-0.014,26.269,3.426,39.044
		c2.637,9.793,7.314,18.557,15.138,25.318c9.262,8.003,20.164,10.332,32.109,9.382c15.057-1.198,26.516-7.847,33.768-21.347
		c3.341-6.219,5.445-12.857,6.638-19.741c0.545-3.145,1.852-6.351,0.799-10.061c-16.205,0-32.3,0-48.772,0
		C355.618,177.438,357.604,165.697,359.682,153.416z"/>
	<path style="fill:#095F9E;" d="M1026.711,273.508c-15.229,0-29.821,0-44.626,0c0-89.14,0-178.039,0-267.286
		c14.754,0,29.46,0,44.615,0c0,34.063,0,68.052,0,103.186c2.384-4.58,4.104-8.132,6.04-11.562
		c8.258-14.628,20.264-24.557,36.805-28.299c14.779-3.344,29.487-2.578,43.584,3.11c16.239,6.552,25.155,19.508,29.588,35.932
		c2.088,7.735,3.013,15.633,3.209,23.657c1.135,46.467,0.182,92.941,0.483,139.41c0.003,0.477-0.132,0.956-0.197,1.402
		c-3.807,0.858-38.533,1.023-44.612,0.169c0-1.71,0-3.5,0-5.291c0-40.484,0.015-80.968-0.016-121.452
		c-0.005-7.162-0.662-14.229-2.71-21.18c-3.926-13.324-17.9-20.457-30.882-19.176c-21.157,2.088-33.795,17.383-38.179,35.463
		c-2.121,8.747-3.113,17.657-3.1,26.689c0.045,33.153,0.005,66.307-0.002,99.46C1026.71,269.548,1026.711,271.354,1026.711,273.508z
		"/>
	<path style="fill:#085F9E;" d="M785.154,179.85c-45.277,0-90.209,0-135.355,0c-0.719,9.676,0.354,18.842,2.452,27.922
		c4.166,18.023,15.631,29.305,33.312,33.188c14.337,3.148,28.508,1.637,40.738-7.954c6.898-5.409,11.168-12.637,14.441-20.576
		c0.186-0.451,0.382-0.898,0.851-1.998c13.322,1.292,26.648,3.528,40.295,5.419c-6.68,21.933-19.772,38.225-38.954,49.734
		c-9.996,5.997-20.993,8.974-32.414,10.716c-14.331,2.186-28.603,1.767-42.511-2.184c-31.465-8.939-50.815-30.179-60.151-61.009
		c-4.729-15.616-5.842-31.73-4.814-47.911c1.251-19.703,6.61-38.225,17.664-54.844c11.985-18.019,28.057-30.26,49.243-35.736
		c17.618-4.554,35.194-4.793,52.71-0.199c23.378,6.13,39.435,21.237,50.212,42.406c7.264,14.269,10.977,29.499,11.966,45.432
		C785.189,167.87,786.121,173.476,785.154,179.85z M649.669,150.319c5.692,0.893,85.117,0.743,89.005-0.158
		c-0.138-6.123-1.058-12.171-3.115-17.962c-5.94-16.718-19.183-27.469-36.308-29.31c-19.686-2.116-35.833,7.757-43.578,24.164
		C652.183,134.447,650.179,142.182,649.669,150.319z"/>
	<path style="fill:#085F9E;" d="M1489.798,210.451c13.208,1.303,26.419,3.538,40.028,5.355
		c-3.314,11.538-8.543,21.547-16.014,30.415c-14.104,16.74-31.897,26.569-53.628,29.785c-18.48,2.734-36.423,1.693-53.918-5.105
		c-15.551-6.042-27.741-16.417-37.254-29.84c-10.74-15.154-15.565-32.467-17.362-50.81c-1.258-12.84-1.017-25.576,1.047-38.301
		c3.392-20.915,12.031-39.38,26.516-54.818c9.226-9.833,20.46-16.818,33.451-20.973c19.033-6.088,38.262-6.759,57.522-1.928
		c20.353,5.105,35.587,17.432,46.613,35.129c9.797,15.723,14.549,33.028,15.942,51.346c0.464,6.106,1.36,12.222,0.533,18.896
		c-45.171,0-90.228,0-135.629,0c-0.519,8.471,0.064,16.345,1.549,24.164c0.993,5.226,2.056,10.482,4.768,15.129
		c8.526,14.609,21.077,22.733,38.21,23.152c5.155,0.126,10.291,0.03,15.392-1.161c12.431-2.905,21.503-10.103,27.635-21.146
		C1486.801,216.855,1488.138,213.824,1489.798,210.451z M1486.627,150.659c0.348-7.622-1.215-14.389-3.985-20.832
		c-6.631-15.423-18.27-25.043-34.967-26.855c-18.027-1.957-32.593,4.803-42.185,20.679c-4.948,8.188-7.335,17.2-7.904,27.009
		C1427.424,150.659,1456.806,150.659,1486.627,150.659z"/>
	<path style="fill:#0A5F9E;" d="M1170.214,273.185c0-65.555,0-131.144,0-197.088c13.426,0,26.799,0,40.543,0
		c0,14.42,0,28.803,0,43.447c2.235-0.893,2.307-2.784,3.012-4.173c4.375-8.624,9.191-16.909,15.712-24.178
		c11.807-13.162,26.335-19.887,44.077-19.567c17.857,0.322,33.048,6.861,45.349,19.764c7.351,7.711,10.576,17.496,12.844,27.663
		c2.152,9.65,2.531,19.492,2.581,29.278c0.207,40.323,0.092,80.648,0.07,120.972c-0.001,1.295,0.333,2.651-0.465,4.169
		c-14.62,0-29.336,0-44.032,0c-0.658-2.011-0.352-3.841-0.353-5.636c-0.022-38.158,0.002-76.316-0.036-114.474
		c-0.006-6.159-0.43-12.309-1.837-18.33c-1.267-5.421-3.704-10.254-7.366-14.519c-10.662-12.418-27.311-12.212-39.641-5.264
		c-12.261,6.909-19.438,17.848-22.903,31.31c-1.996,7.756-2.957,15.669-2.96,23.684c-0.015,32.493-0.016,64.985-0.022,97.478
		c0,1.811,0,3.622,0,5.374C1210.595,273.943,1175.075,274.003,1170.214,273.185z"/>
	<path style="fill:#085F9E;" d="M926.206,200.493c12.67,1.299,25.011,2.564,37.252,3.818c1.172,2.961-0.166,5.282-0.72,7.606
		c-2.669,11.217-6.721,21.907-13.115,31.563c-10.966,16.559-26.225,27.157-45.539,31.6c-21.13,4.86-41.608,3.109-60.858-7.506
		c-12.471-6.877-21.326-17.373-28.349-29.512c-9.316-16.102-13.916-33.564-15.379-52.069c-1.381-17.458-0.042-34.562,5.177-51.258
		c6.105-19.531,16.647-36.197,33.22-48.569c11.291-8.429,24.074-13.037,38.144-14.548c11.549-1.24,22.854-0.622,34.134,2
		c19.619,4.561,34.155,15.639,43.642,33.425c4.651,8.719,7.607,18.015,9.795,27.585c0.319,1.393,0.757,2.905,0.1,4.703
		c-12.357,1.788-24.796,3.589-37.477,5.424c-0.883-3.738-1.513-7.316-2.585-10.757c-2.727-8.753-6.849-16.582-15.116-21.491
		c-14.853-8.821-40.353-6.485-51.006,13.713c-6.79,12.875-10.137,26.637-10.785,41.072c-0.576,12.822-0.392,25.635,3.082,38.131
		c2.805,10.09,7.237,19.18,15.653,26.013c14.172,11.506,38.623,8.784,50.146-7.315C920.629,217.129,923.488,209.207,926.206,200.493
		z"/>
	<path style="fill:#0B5F9E;" d="M511.366,110.003c-9.638,0-19.404,0-29.523,0c0-11.745,0-23.1,0-34.798c10.797,0,21.419,0,32.615,0
		c1.433-17.109,2.843-33.934,4.302-51.351c12.015-1.123,24.026-2.246,36.793-3.44C555.629,38.723,555.551,56.6,555.6,75
		c13.267,0,26.162,0,39.404,0c0,11.761,0,22.995,0,34.702c-12.894,0-25.797,0-38.235,0c-1.647,1.532-1.16,2.949-1.161,4.207
		c-0.026,31.325-0.03,62.65,0.005,93.975c0.004,3.819,0.25,7.606,0.876,11.422c2.045,12.473,8.606,16.542,19.605,18.509
		c5.95,1.064,11.929,0.901,17.916,0.939c1.458,0.009,2.957-0.38,4.632,0.3c0,11.258,0,22.521,0,33.997
		c-5.029,2.047-10.494,2.735-15.859,3.304c-9.233,0.979-18.515,2.407-27.825,0.396c-22.666-4.897-37.632-16.518-41.25-41.15
		c-1.284-8.743-1.794-17.529-1.787-26.36c0.025-31.158,0.017-62.317-0.012-93.475C511.908,113.977,512.3,112.131,511.366,110.003z"
		/>
	<path style="fill:#0D609F;" d="M196.317,95.312c14.827,0,29.263,0,43.704,0c1.011,3.464,1.396,169.23,0.383,178.196
		c-14.566,0-29.162,0-44.087,0C196.317,214.31,196.317,155.101,196.317,95.312z"/>
	<path style="fill:#0A5F9E;" d="M218.315,76.887c-12.836-0.063-23.555-10.419-23.161-23.121
		c0.49-15.807,13.186-23.498,23.698-23.224c12.976,0.338,22.81,10.249,23.093,23.257C242.218,66.36,230.481,78.02,218.315,76.887z"
		/>
	<path style="fill:#2B66A3;" d="M1527.421,94.21c-0.287-13.647,11.24-23.131,22.956-23.173c12.938-0.046,23.465,10.562,23.396,23.42
		c-0.068,12.724-10.433,23.1-23.103,23.207C1539.404,117.761,1527.12,108.522,1527.421,94.21z M1549.459,113.837
		c9.065,0.244,19.649-5.827,19.938-19.731c0.228-10.968-7.839-19.035-19.236-19.269c-10.95-0.225-19.567,8.524-19.696,19.445
		C1530.339,104.95,1538.906,113.77,1549.459,113.837z"/>
	<path style="fill:#2B66A3;" d="M1555.667,95.282c4.512,2.909,3.284,7.998,5.06,11.913c-1.516,0.837-2.796,0.651-4.215,0.256
		c-0.875-1.529-1.34-3.244-1.678-5.041c-0.973-5.182-2.132-5.912-8.238-5.157c0,3.201,0,6.464,0,9.503
		c-1.587,1.472-2.962,1.085-4.552,0.554c0-8.284,0-16.534,0-25.044c4.057-1.079,8.188-1.157,12.214-0.384
		c5.867,1.126,7.624,6.959,3.618,11.335C1557.215,93.937,1556.448,94.557,1555.667,95.282z M1546.685,93.354
		c2.151,0.442,4.192,0.376,6.278-0.45c1.787-0.708,2.671-2.038,2.681-3.766c0.009-1.527-0.837-2.764-2.305-3.557
		c-2.353-1.272-4.676-0.918-7.412-0.436C1546.348,88.027,1545.459,90.657,1546.685,93.354z"/>
	<path style="fill:#E5E7F1;" d="M1546.685,93.354c-1.226-2.697-0.337-5.327-0.758-8.209c2.736-0.482,5.059-0.835,7.412,0.436
		c1.468,0.793,2.314,2.03,2.305,3.557c-0.01,1.728-0.894,3.058-2.681,3.766C1550.877,93.73,1548.836,93.796,1546.685,93.354z"/>
</g>
</svg>
