<?xml version="1.0" encoding="iso-8859-1"?>
<!-- Generator: Adobe Illustrator 27.0.0, SVG Export Plug-In . SVG Version: 6.00 Build 0)  -->
<svg version="1.1" id="Layer_1" xmlns="http://www.w3.org/2000/svg" xmlns:xlink="http://www.w3.org/1999/xlink" x="0px" y="0px"
	 viewBox="0 0 1417.945 526" style="enable-background:new 0 0 1417.945 526;" xml:space="preserve">
<g>
	<path style="fill:#1D478A;" d="M402,526c-3.604-1.918-7.646-1.421-11.46-1.811c-37.73-3.849-73.695-13.842-107.772-30.513
		c-2.923-1.43-6.225-2.572-7.655-5.939c3.024-11.133,31.411-72.391,35.228-75.796c4.139,0.805,7.884,2.98,11.721,4.858
		c19.302,9.447,39.111,17.464,60.277,21.739c8.01,1.618,16.112,2.218,24.258,2.723c12.147,0.752,24.257,1.016,36.381-0.221
		c13.742-1.402,26.849-5.049,38.589-12.363c10.998-6.852,18.98-16.622,24.209-28.507c4.322-9.822,6.716-20.12,7.406-30.854
		c0.341-5.297,1.128-10.565,0.879-16.624c-4.135,3.729-7.88,7.102-11.621,10.48c-7.431,6.711-15.397,12.707-23.914,17.977
		c-14.988,9.276-31.384,14.363-48.834,15.938c-23.391,2.112-46.566,0.901-69.052-6.483c-23.658-7.77-44.018-20.643-61.07-39.045
		c-20.283-21.888-32.817-47.519-38.137-76.595c-3.634-19.862-4.177-39.925-1.833-60.149c2.191-18.905,7.056-36.865,15.609-53.766
		c21.564-42.609,55.859-68.846,102.471-79.144c11.473-2.535,23.094-2.801,34.732-2.928c13.02-0.142,25.897,1.164,38.537,4.489
		c16.557,4.356,30.844,13.014,44.267,23.286c5.533,4.235,10.897,8.69,16.7,13.335c1.893-11.316-0.025-22.511,2.03-33.47
		c2.548-1.407,5.233-1.419,7.852-1.448c28.495-0.313,56.991-0.308,85.487-0.008c2.473,0.026,4.963,0.152,7.53,1.259
		c0.27,3.917,0.769,7.87,0.78,11.825c0.129,46.993,0.201,93.987,0.247,140.981c0.01,10.496-0.132,20.991-0.213,31.487
		c-0.256,33.145,0.061,66.308-0.943,99.431c-0.929,30.644-8.588,59.801-24.161,86.471c-11.53,19.745-27.978,34.54-47.865,45.619
		c-17.33,9.655-36.119,15.064-55.464,18.67c-11.277,2.102-22.666,3.565-34.139,4.199c-3.366,0.163-6.853-1.034-10.061,0.899
		C429.333,526,415.667,526,402,526z M437.683,311.033c2.437,0.338,7.221-0.577,12.017-0.994
		c18.385-1.599,33.831-9.555,46.147-23.022c10.61-11.602,16.239-25.522,17.549-41.408c1.327-16.092-1.23-31.156-9.554-44.991
		c-10.5-17.453-26.271-27.772-45.784-32.736c-5.71-1.452-11.582-0.86-17.365-1.36c-10.567-0.913-20.914-0.141-30.947,3.44
		c-22.418,8.002-37.658,23.047-44.921,45.907c-3.481,10.956-4.169,22.147-2.795,33.481c2.149,17.72,9.585,32.565,23.497,44.162
		C400.009,305.581,416.747,310.636,437.683,311.033z"/>
	<path style="fill:#1C478A;" d="M139,0c0.344,1.535,2.187,0.462,3.167,2.329c1.454,26.839,0.221,54.471,0.85,81.957
		c1.503,1.217,3.058,0.68,4.483,0.686c20.49,0.088,40.981,0.145,61.471,0.148c3.512,0,6.97,0.243,10.633,1.107
		c0.92,2.568,1.15,5.35,1.18,8.155c0.249,23.156,0.383,46.312-0.021,69.468c-0.049,2.814-0.524,5.621-0.823,8.643
		c-4.32,1.553-8.817,1.303-13.231,1.332c-19.49,0.126-38.982,0.129-58.473,0.176C146.613,174.004,144.99,174,143,174
		c0,2.055-0.003,3.68,0.001,5.305c0.093,38.982,0.154,77.963,0.308,116.945c0.031,7.824,0.898,15.672,0.5,23.464
		c-0.4,7.849,8.579,17.843,16.136,19.347c9.877,1.966,19.535,0.728,29.142-1.559c7.614-1.812,14.769-4.968,22.051-7.753
		c2.367-0.905,4.806-2.672,7.485-0.28c1.102,2.373,1.21,5.027,1.228,7.689c0.146,21.324,0.321,42.648-0.117,63.97
		c-0.061,2.982-0.461,5.957-0.72,9.118c-6.267,4.516-13.317,7.434-20.358,10.353c-10.326,4.281-21.035,7.165-32.096,8.814
		c-1.814,0.271-3.606,0.581-5.439,0.611c-10.484,0.169-20.956,0.829-31.45,0.62c-13.758-0.274-27.201-2.494-39.821-7.959
		c-17.64-7.638-30.521-20.538-38.73-37.897c-6.61-13.977-10.038-28.649-10.22-44.277C40.273,286.373,40.094,232.234,40,178.093
		c-0.002-1.15,0-2.299,0-3.29c-1.284-1.299-2.691-0.752-3.95-0.778c-9.824-0.206-19.653,0.279-29.478-0.326
		C3.996,173.539,1.748,172.984,0,171c0-22.333,0-44.667,0-67c0.594-0.391,0.874-0.931,0.876-1.653
		c0.012-4.805,0.038-9.61,0.06-14.414c0.08-0.845,0.194-1.673,1.229-1.895c2.275-0.487,4.545-0.913,6.9-0.913
		c8.975,0,17.949-0.054,26.923-0.147c1.258-0.013,2.662,0.501,3.851-0.7c0-14.543-0.022-29.151,0.007-43.76
		c0.023-11.468,0.114-22.937,0.164-34.405C40.021,3.581,40.225,1.168,43,0c1.333,0,2.667,0,4,0c0.244,0.703,0.746,1.035,1.482,1.032
		c3.984-0.019,7.967-0.039,11.951-0.054C61.163,0.975,61.678,0.647,62,0c20.333,0,40.667,0,61,0
		c3.85,2.126,8.002,0.505,11.992,0.919C135.293,0.95,135.662,0.322,136,0C137,0,138,0,139,0z"/>
	<path style="fill:#737CAC;" d="M0,88c0.324,0.138,0.635,0.116,0.936-0.068c-0.022,4.805-0.048,9.609-0.06,14.414
		C0.874,103.069,0.594,103.609,0,104C0,98.667,0,93.333,0,88z"/>
	<path style="fill:#58679F;" d="M62,0c-0.322,0.647-0.837,0.975-1.567,0.977c-3.984,0.015-7.967,0.036-11.951,0.054
		C47.746,1.035,47.244,0.703,47,0C52,0,57,0,62,0z"/>
	<path style="fill:#57679F;" d="M136,0c-0.338,0.322-0.707,0.95-1.008,0.919C131.002,0.505,126.85,2.126,123,0
		C127.333,0,131.667,0,136,0z"/>
	<path style="fill:#9A9EC2;" d="M443,526c3.208-1.934,6.695-0.736,10.061-0.899c-0.11,0.294-0.13,0.593-0.061,0.899
		C449.667,526,446.333,526,443,526z"/>
	<path style="fill:#1D478A;" d="M650.655,377.333c13.93-22.827,27.956-45.172,43.655-66.41c5.28,1.998,9.397,4.814,13.584,7.497
		c16.011,10.259,32.77,18.977,50.918,24.861c16.12,5.226,32.563,8.183,49.562,6.686c6.797-0.599,13.471-1.816,19.327-5.85
		c9.26-6.379,10.294-18.47,2.097-26.155c-3.197-2.997-6.908-5.185-10.918-6.889c-14.55-6.184-29.814-10.249-44.821-15.072
		c-17.23-5.537-34.652-10.566-50.831-18.916c-19.203-9.91-35.169-23.259-45.54-42.65c-6.079-11.367-9.396-23.373-9.325-36.288
		c0.046-8.489-0.222-16.984,0.551-25.458c1.185-12.987,5.586-24.947,12.124-36.081c15.15-25.801,37.69-42.091,66.157-50.487
		c12.979-3.828,26.203-6.003,39.808-5.792c11.314,0.176,22.624,0.12,33.893,1.419c14.762,1.702,29.004,5.542,43.056,10.207
		c16.291,5.408,31.987,12.139,46.585,21.246c3.772,2.353,7.833,4.372,11.149,8.406c-11.532,23.811-24.425,46.959-38.073,69.345
		c-3.033,0.745-5.047-0.615-7.113-1.567c-10.408-4.793-20.478-10.285-31.048-14.757c-12.733-5.388-25.745-9.807-39.386-12.195
		c-10.931-1.914-21.822-2.375-32.498,1.524c-4.901,1.79-8.639,4.766-10.774,9.702c-2.778,6.421-2.076,10.919,2.925,15.84
		c3.841,3.779,8.516,6.343,13.235,8.833c13.581,7.168,28.237,11.576,42.652,16.586c15.834,5.504,31.777,10.743,46.869,18.116
		c21.838,10.67,40.459,25.037,51.96,47.105c4.481,8.598,7.319,17.652,7.849,27.541c0.563,10.503,0.642,20.999-0.414,31.395
		c-1.601,15.764-7.048,30.323-16.031,43.483c-13.598,19.922-32.603,32.431-55.118,39.995c-21.194,7.12-43.103,10.027-65.358,9.159
		c-21.658-0.844-42.916-4.646-63.648-11.174c-26.447-8.327-50.287-21.606-72.549-37.919c-0.936-0.686-1.828-1.468-2.596-2.334
		C651.923,379.56,651.487,378.644,650.655,377.333z"/>
	<path style="fill:#21B5E8;" d="M1390.992,162.289c2.393-0.802,4.094,0.898,6.036,1.692c2.622,1.073,5.057,2.514,7.294,4.236
		c3.719,2.862,5.848,6.371,5.896,11.397c0.08,8.368-0.45,16.559-3.489,24.441c-5.308-1.893-10.718-3.825-16.401-2.905
		c-6.653,1.077-13.372,1.27-20.032,2.68c-20.69,4.38-40.852,10.27-59.887,19.52c-17.111,8.315-33.861,17.283-49.33,28.533
		c-12.63,9.186-24.807,18.832-35.654,30.1c-4.952,5.144-10.112,10.075-14.63,15.645c-7.112,8.766-13.744,17.81-18.202,28.261
		c-1.949,4.568-3.151,9.373-3.549,14.31c-1.053,13.05,2.447,24.821,10.011,35.512c1.389,1.963,3.596,3.488,3.963,6.135
		c-0.202,1.368-1.18,1.799-2.366,2.195c-9.874,3.3-19.869,6.587-30.169,7.667c-13.78,1.445-27.324,0.098-40.343-5.917
		c-16.193-7.48-31.338-16.558-45.62-27.128c-4.125-3.053-7.782-6.742-11.616-10.181c-12.163-10.912-22.995-22.971-31.737-36.837
		c-7.374-11.696-13.294-24.02-16.666-37.497c-4.253-16.994-3.362-33.58,4.743-49.257c5-9.671,12.217-17.623,21.117-24.11
		c20.57-14.992,43.4-25.368,67.313-33.619c5.774-1.992,11.469-4.216,17.392-5.767c0.992-0.26,1.939-0.381,2.935-0.341
		c2.525,3.864,4.92,7.8,6.998,11.931c5.302,10.541,12.376,19.879,20.208,28.602c8.404,9.36,19.798,13.574,31.599,16.254
		c9.056,2.056,18.451,2.191,27.77,2.138c5.95-0.033,11.922-0.702,17.808-0.715c11.488-0.026,22.572-2.109,33.717-4.263
		c11.897-2.299,23.758-4.84,35.218-8.774c17.277-5.931,34.39-12.286,50.331-21.445
		C1372.456,178.569,1382.1,170.945,1390.992,162.289z"/>
	<path style="fill:#2D71B7;" d="M1203.018,381.843c-0.367-2.646-2.574-4.172-3.963-6.135c-7.564-10.691-11.065-22.462-10.011-35.512
		c0.398-4.936,1.6-9.742,3.549-14.31c4.459-10.451,11.091-19.495,18.202-28.261c4.519-5.57,9.678-10.5,14.63-15.645
		c10.847-11.268,23.024-20.914,35.654-30.1c15.468-11.251,32.218-20.218,49.33-28.533c19.035-9.25,39.197-15.14,59.887-19.52
		c6.661-1.41,13.38-1.602,20.032-2.68c5.683-0.92,11.093,1.012,16.401,2.905c-5.402,14.455-13.775,27.204-22.912,39.473
		c-16.876,22.662-37.079,42.19-57.734,61.329c-19.106,17.705-40.041,32.952-61.752,47.189
		c-17.95,11.771-36.894,21.713-56.807,29.771C1206.049,382.414,1204.528,383.453,1203.018,381.843z"/>
	<path style="fill:#BDD543;" d="M1394.677,140.558c-4.108-0.322-7.715-2.056-11.452-3.114c-8.607-2.436-17.199-4.916-25.949-6.777
		c-11.022-2.344-22.151-4.054-33.299-5.71c-24.861-3.693-49.855-1.728-74.791-2.147c-5.995-0.101-11.996,0.115-17.994,0.206
		c-10.493,0.159-20.835,1.869-31.203,3.203c-12.492,1.607-24.848,4.045-37.167,6.686c-10.2,2.186-20.213,5.051-30.349,7.925
		c-1.776-2.433-1.899-5.344-2.342-8.056c-0.828-5.072-1.742-10.199-1.808-15.314c-0.203-15.775,2.733-30.757,12.924-43.467
		c8.185-10.208,19.227-15.692,31.823-17.927c13.308-2.362,26.76-1.713,40.238-1.394c18.262,0.433,35.972,3.878,53.423,8.564
		c25.72,6.908,50.238,16.971,73.448,30.165c17.162,9.756,32.935,21.294,46.854,35.311c2.106,2.12,4.035,4.428,5.916,6.754
		C1394.05,136.826,1395.296,138.264,1394.677,140.558z"/>
	<path style="fill:#97D7EF;" d="M1390.992,162.289c-8.892,8.656-18.536,16.279-29.344,22.489
		c-15.941,9.159-33.054,15.514-50.331,21.445c-11.459,3.934-23.32,6.475-35.218,8.774c-11.145,2.154-22.228,4.237-33.717,4.263
		c-5.886,0.013-11.858,0.682-17.808,0.715c-9.318,0.052-18.714-0.082-27.77-2.138c-11.802-2.68-23.196-6.894-31.599-16.254
		c-7.832-8.723-14.906-18.061-20.208-28.602c-2.078-4.131-4.473-8.067-6.998-11.931c4.591-3.127,10.097-3.557,15.237-4.897
		c10.141-2.645,20.379-4.991,30.672-6.957c7.732-1.477,15.653-1.944,23.419-3.276c7.629-1.309,15.428-1.048,22.994-2.8
		c1.111-0.257,2.322-0.109,3.486-0.109c21.642,0.003,43.292-0.342,64.921,0.198c8.48,0.211,17.025,1.163,25.506,2.513
		c5.813,0.925,11.703,1.788,17.571,2.539c7.279,0.931,14.446,2.925,21.574,4.794c8.089,2.121,16.088,4.59,24.108,6.965
		C1388.837,160.419,1390.513,160.477,1390.992,162.289z"/>
	<path style="fill:#F57E2B;" d="M1417.922,230.374c0.264,14.346-1.831,27.905-5.413,41.288
		c-9.946,37.158-26.665,71.087-49.12,102.192c-9.377,12.989-19.991,24.944-33.493,33.933c-3.591,2.391-7.345,4.516-11.326,6.247
		c-9.946,4.325-20.433,4.251-30.896,3.58c-6.943-0.445-13.888-1.428-20.734-2.701c-14.464-2.688-28.128-7.657-40.69-15.437
		c-0.535-0.331-0.964-0.834-1.73-1.51c1.359-1.514,2.996-2.22,4.583-2.978c23.453-11.202,45.574-24.619,66.719-39.718
		c17.215-12.293,33.708-25.448,49.277-39.774c16.191-14.899,31.624-30.522,45.599-47.534c8.661-10.543,16.679-21.56,23.651-33.317
		C1415.167,233.266,1415.841,231.676,1417.922,230.374z"/>
</g>
</svg>
