<?xml version="1.0" encoding="iso-8859-1"?>
<!-- Generator: Adobe Illustrator 27.0.0, SVG Export Plug-In . SVG Version: 6.00 Build 0)  -->
<svg version="1.1" id="Layer_1" xmlns="http://www.w3.org/2000/svg" xmlns:xlink="http://www.w3.org/1999/xlink" x="0px" y="0px"
	 viewBox="0 0 395.04 521.302" style="enable-background:new 0 0 395.04 521.302;" xml:space="preserve">
<g>
	<path style="fill:#27325F;" d="M126,521.302c-0.476-0.398-1.097-0.319-1.642-0.493c-3.253-1.036-5.652-2.977-6.512-6.392
		c-1.227-4.873,1.21-10.196,7.226-11.564c2.291-0.521,4.6-0.473,6.888,0.034c0.547,0.121,1.094,0.192,1.786,0.253
		c0.155,1.439,0.31,2.875,0.453,4.202c-0.37,0.416-0.682,0.343-0.979,0.269c-0.269-0.13-0.29-0.398-0.362-0.612
		c-0.628-1.866-1.927-2.847-3.874-3.06c-1.125-0.124-2.248-0.118-3.329,0.161c-2.104,0.543-3.628,1.826-4.351,3.904
		c-1.041,2.994-0.738,5.91,0.845,8.636c1.427,2.459,3.734,3.344,6.48,3.274c0.8-0.02,1.603-0.049,2.402-0.619
		c0.428-1.389,0.309-2.867,0.083-4.268c-0.695-0.54-1.408-0.396-2.066-0.509c-0.796-0.137-0.901-0.393-0.504-1.278
		c2.275,0.121,4.576,0.047,6.76,0.024c0.412,0.355,0.332,0.662,0.282,0.927c-0.365,0.397-0.886,0.25-1.419,0.659
		c-0.21,1.707-0.517,3.545,0.531,5.362c-1.289,0.346-2.475,0.659-3.692,0.848c-0.173,0.027-0.418-0.058-0.446,0.243
		C129.04,521.302,127.52,521.302,126,521.302z"/>
	<path style="fill:#27325F;" d="M395.04,518.424c-0.41,0.249-0.355,0.72-0.513,1.088c-0.201,0.469-0.376,0.95-0.582,1.474
		c-4.509-0.123-8.964-0.095-13.309-0.039c-0.376-0.381-0.361-0.68-0.217-1.007c0.556-0.366,1.235-0.21,1.822-0.384
		c0.527-0.333,0.585-0.841,0.589-1.375c0.012-1.597,0.034-3.195,0.039-4.792c0.007-2.277,0.004-4.555,0-6.832
		c-0.001-0.399-0.013-0.799-0.049-1.196c-0.081-0.865-0.198-0.994-1.042-1.203c-0.268-0.066-0.542-0.112-0.764-0.156
		c-0.307-0.372-0.314-0.697-0.014-1.092c3.968,0,7.987,0,12.032,0c0.408,1.114,0.319,2.286,0.483,3.419
		c0.066,0.452-0.191,0.758-0.688,0.787c-0.461-0.13-0.564-0.509-0.675-0.903c-0.331-1.168-1.082-1.776-2.325-1.873
		c-1.353-0.105-2.695-0.013-4.106-0.077c0,2.202,0,4.295,0,6.485c1.477-0.025,2.932,0.19,4.347-0.152
		c0.328-0.603,0.351-1.212,0.508-1.765c0.331-0.351,0.672-0.434,1.164-0.066c-0.023,1.79-0.137,3.651,0.041,5.413
		c-0.346,0.436-0.668,0.462-1.052,0.261c-0.43-0.527-0.245-1.324-0.82-1.918c-1.276-0.388-2.668-0.215-3.977-0.239
		c-0.349,0.256-0.268,0.554-0.27,0.82c-0.007,1.478-0.024,2.957,0.004,4.435c0.026,1.393,0.4,1.759,1.766,1.889
		c1.195,0.114,2.386,0.053,3.581,0.007c0.974-0.038,1.673-0.449,2.167-1.262c0.309-0.509,0.62-1.017,0.877-1.439
		c0.338-0.349,0.687-0.131,0.984-0.226C395.04,517.144,395.04,517.784,395.04,518.424z"/>
	<path style="fill:#27325F;" d="M0,505.47c0.481-0.167,0.358-0.64,0.455-0.974c0.209-0.724,0.335-1.472,0.481-2.149
		c0.825-0.712,1.031,0.242,1.624,0.501c4.382,0,8.89,0,13.304,0c0.537-0.225,0.735-1.119,1.515-0.458
		c-0.136,1.405-0.388,2.846-0.36,4.264c-0.333,0.33-0.642,0.434-1.038,0.2c-0.039-0.084-0.109-0.184-0.134-0.293
		c-0.346-1.505-0.115-1.909-2.542-2.235c-0.197-0.027-0.397-0.046-0.595-0.047c-0.835-0.005-1.67-0.002-2.412-0.002
		c-0.252,0.139-0.283,0.293-0.283,0.454c0.006,4.312-0.011,8.624,0.034,12.936c0.019,1.803,0.08,1.801,1.83,2.039
		c0.154,0.021,0.302,0.086,0.44,0.127c0.114,0.563,0.114,0.563-0.004,1.008c-0.202,0.168-0.444,0.165-0.684,0.15
		c-1.992-0.125-3.984-0.127-5.977-0.003c-0.884,0.055-0.993-0.07-1.006-0.975c0.365-0.396,0.874-0.302,1.336-0.361
		c0.932-0.119,1.141-0.322,1.233-1.273c0.031-0.317,0.052-0.637,0.052-0.955c0.003-4.113,0.003-8.225,0-12.338
		c0-0.231-0.034-0.463-0.057-0.757c-1.276-0.058-2.489-0.106-3.718,0.09c-0.923,0.147-1.521,0.628-1.956,1.399
		c-0.212,0.375-0.31,0.833-0.679,1.009c-0.378,0.155-0.593-0.105-0.858-0.155C0,506.269,0,505.87,0,505.47z"/>
	<path style="fill:#27325F;" d="M303.12,521.302c-0.424-0.469-1.071-0.372-1.589-0.62c-0.536-0.257-0.919-0.551-1.077-1.162
		c-0.28-1.085-0.537-2.164-0.445-3.28c0.819-0.502,0.896-0.493,1.199,0.282c0.352,0.901,0.785,1.738,1.515,2.404
		c1.11,1.013,2.427,1.217,3.797,0.833c1.858-0.52,2.503-2.901,1.327-4.655c-0.384-0.573-0.907-1.007-1.478-1.383
		c-0.966-0.637-1.954-1.243-2.894-1.915c-1.235-0.883-2.184-2.014-2.485-3.54c-0.562-2.855,1.255-5.251,4.265-5.662
		c0.591-0.081,1.197-0.115,1.792-0.09c1.039,0.044,2.045,0.307,3.087,0.558c0.447,0.961,0.44,2.011,0.559,3.028
		c0.074,0.638-0.073,0.713-0.985,0.762c-0.364-0.249-0.343-0.697-0.51-1.047c-0.821-1.726-2.798-2.46-4.538-1.654
		c-1.301,0.603-1.784,2.392-0.967,3.708c0.448,0.722,1.09,1.264,1.814,1.712c0.916,0.567,1.846,1.116,2.721,1.742
		c1.085,0.777,1.976,1.727,2.421,3.039c0.954,2.807-0.271,5.443-3.018,6.539c-0.301,0.12-0.742-0.025-0.911,0.399
		C305.52,521.302,304.32,521.302,303.12,521.302z"/>
	<path style="fill:#7A7896;" d="M394.82,414.771c0.073,0.009,0.146,0.016,0.22,0.021c0,0.88,0,1.759,0,2.639
		c-0.081-0.001-0.162-0.002-0.243-0.003C394.805,416.541,394.812,415.656,394.82,414.771z"/>
	<path style="fill:#7A7896;" d="M394.82,491.296c0.073,0.009,0.146,0.016,0.22,0.021c0,0.88,0,1.759,0,2.639
		c-0.081-0.001-0.162-0.002-0.243-0.003C394.805,493.066,394.812,492.181,394.82,491.296z"/>
	<path style="fill:#C5CDDA;" d="M264.479,287.893c0.559,1.401,1.219,2.771,1.644,4.211c0.342,1.157,0.804,2.279,1.056,3.471
		c0.116,0.548,0.165,1.08,0.197,1.626c-0.182,0.475-0.427,0.909-0.539,1.432c-0.263,1.225-0.6,2.445-1.04,3.618
		c-0.916,2.44-1.951,4.825-3.252,7.102c-1.482,2.594-3.276,4.945-5.25,7.157c-1.481,1.66-3.166,3.119-4.927,4.496
		c-4.227,3.306-8.924,5.653-14.087,7.084c-3.707,1.027-7.499,1.546-11.33,1.492c-1.597-0.022-3.224-0.132-4.829-0.408
		c-1.975-0.34-3.959-0.639-5.868-1.249c-3.01-0.962-5.949-2.091-8.695-3.699c-2.19-1.282-4.323-2.67-6.184-4.364
		c-2.171-1.976-4.292-4.029-6.047-6.429c-2.396-3.278-4.389-6.757-5.729-10.594c-0.752-2.152-1.385-4.328-1.737-6.6
		c-0.309-1.989-0.642-3.964-0.66-5.98c-0.02-2.299,0.117-4.577,0.43-6.867c0.316-2.313,0.847-4.564,1.541-6.763
		c0.688-2.18,1.673-4.26,2.723-6.306c1.769-3.449,4.109-6.473,6.722-9.296c1.511-1.633,3.282-2.983,5.037-4.347
		c2.523-1.96,5.318-3.473,8.228-4.712c3.036-1.292,6.213-2.232,9.503-2.699c0.323-0.046,0.365-0.247,0.385-0.496
		c1.419,0.163,2.645,0.917,3.992,1.312c1.006,0.295,1.97,0.737,2.952,1.113c0.009,0.432-0.2,0.663-0.633,0.709
		c-1.021,0.107-1.99,0.425-2.979,0.681c-3.321,0.86-6.393,2.245-9.242,4.137c-2.116,1.406-3.946,3.132-5.714,4.952
		c-1.62,1.668-2.925,3.552-4.051,5.543c-1.974,3.489-3.402,7.185-3.809,11.232c-0.154,1.528-0.375,3.048-0.46,4.585
		c-0.038,0.692,0.361,1.304,0.254,1.993c-0.162,1.043,0.111,2.075,0.297,3.062c0.436,2.311,1.05,4.599,1.998,6.765
		c2.104,4.808,5.191,8.862,9.274,12.194c2.825,2.306,5.951,3.999,9.361,5.217c3.413,1.218,6.933,1.806,10.557,1.773
		c0.911-0.008,1.816-0.144,2.715-0.196c2.03-0.117,3.97-0.597,5.892-1.15c4.357-1.254,8.248-3.431,11.658-6.394
		c3.051-2.651,5.497-5.816,7.341-9.426c1.188-2.327,1.994-4.79,2.596-7.327C263.908,288.962,263.931,288.309,264.479,287.893z"/>
	<path style="fill:#B2BDCD;" d="M207.368,112.012c-0.054,1.581-0.28,3.145-0.441,4.716c-0.112,1.098-0.181,2.208-0.285,3.311
		c-0.126,1.334-0.227,2.669-0.442,3.996c-0.151,0.933-0.153,1.893-0.228,2.836c-0.101,1.261-0.215,2.535-0.353,3.785
		c-0.212,1.917-0.264,3.854-0.628,5.759c-0.154,0.808-0.169,1.659-0.212,2.475c-0.065,1.269-0.23,2.532-0.352,3.788
		c-0.189,1.958-0.28,3.932-0.63,5.878c-0.16,0.889-0.179,1.817-0.227,2.715c-0.114,2.097-0.38,4.18-0.586,6.263
		c-0.19,1.918-0.368,3.845-0.602,5.762c-0.147,1.206-0.21,2.449-0.342,3.664c-0.132,1.211-0.13,2.436-0.393,3.643
		c-0.191,0.879-0.188,1.815-0.237,2.712c-0.113,2.098-0.379,4.18-0.585,6.263c-0.19,1.918-0.359,3.845-0.603,5.762
		c-0.148,1.166-0.206,2.367-0.332,3.545c-0.134,1.252-0.143,2.515-0.405,3.761c-0.185,0.882-0.187,1.816-0.233,2.713
		c-0.109,2.098-0.385,4.179-0.586,6.263c-0.185,1.918-0.277,3.852-0.63,5.759c-0.171,0.926-0.167,1.893-0.228,2.834
		c-0.131,2.015-0.461,4.008-0.568,6.025c-0.05,0.942-0.226,1.884-0.213,2.838c0.004,0.259-0.082,0.467-0.377,0.613
		c-0.228-0.706-0.507-1.386-0.543-2.135c0.427-0.354,0.189-0.806,0.134-1.198c-0.178-1.259-0.426-2.508-0.617-3.766
		c-0.518-3.423-1.005-6.85-1.533-10.271c-0.594-3.852-1.232-7.698-1.826-11.55c-0.527-3.421-1.005-6.85-1.533-10.271
		c-0.594-3.852-1.233-7.698-1.826-11.55c-0.527-3.421-1.005-6.85-1.532-10.271c-0.594-3.852-1.233-7.698-1.827-11.55
		c-0.527-3.421-1.006-6.85-1.531-10.272c-0.519-3.381-1.082-6.755-1.601-10.136c-0.598-3.894-1.154-7.794-1.754-11.687
		c-0.594-3.853-1.255-7.695-1.81-11.553c-0.126-0.875-0.474-1.762-0.24-2.734c2.157-0.038,4.255,0.23,6.356,0.366
		c1.155,0.075,2.313,0.081,3.465,0.19c2.144,0.204,4.287,0.408,6.443,0.426c0.14,0.373,0.465,0.208,0.721,0.247
		c2.792,2.354,5.598,4.692,8.37,7.069C205.107,110.026,206.336,110.907,207.368,112.012z"/>
	<path style="fill:#E1E4EA;" d="M233.277,253.351c3.459,1.916,6.788,4.019,9.944,6.418c3.314,2.519,6.294,5.395,9.074,8.45
		c3.003,3.301,5.696,6.873,7.875,10.8c0.572,1.03,1.302,1.974,1.67,3.113c-0.15,0.294-0.421,0.453-0.529,0.848
		c-0.289,1.056-0.547,2.127-0.964,3.156c-0.657,1.622-1.463,3.161-2.364,4.649c-0.884,1.459-2.005,2.767-3.2,3.958
		c-0.708,0.706-1.537,1.356-2.345,1.993c-3.673,2.891-7.883,4.482-12.452,5.017c-2.386,0.279-4.819,0.074-7.223-0.404
		c-3.206-0.637-6.081-2.029-8.768-3.761c-1.886-1.217-3.529-2.783-4.964-4.579c-1.751-2.19-3.086-4.56-4.074-7.172
		c-0.674-1.782-1.042-3.631-1.3-5.486c-0.14-1.003-0.505-2.042-0.275-3.059c0.329-1.462,0.343-2.957,0.642-4.43
		c0.437-2.155,1.182-4.185,2.171-6.091c1.499-2.889,3.392-5.498,6.007-7.57c1.5-1.189,3.043-2.269,4.72-3.16
		c1.712-0.91,3.555-1.491,5.427-1.975C232.762,253.959,233.249,253.954,233.277,253.351z"/>
	<path style="fill:#8091AE;" d="M269.489,314.289c0.032,1.774,0.05,3.546-0.434,5.277c-0.021,0.075-0.019,0.158-0.014,0.237
		c0.149,2.303-0.535,4.489-0.945,6.714c-0.014,0.078-0.015,0.158-0.021,0.237c-0.578-0.02-0.692,0.521-0.884,0.848
		c-1.215,2.081-2.487,4.118-3.883,6.089c-1.538,2.173-3.321,4.131-5.073,6.116c-0.893,1.011-1.948,1.87-2.951,2.777
		c-1.766,1.597-3.66,3.012-5.592,4.392c-2.751,1.965-5.733,3.517-8.769,4.976c-2.993,1.438-6.127,2.487-9.327,3.339
		c-1.668,0.444-3.365,0.756-5.077,1.02c-2.028,0.312-4.052,0.672-6.101,0.648c-2.743-0.033-5.486,0.185-8.235-0.172
		c-1.006-0.131-2.066-0.162-3.057-0.341c-2.348-0.423-4.686-0.903-6.998-1.561c-5.245-1.493-10.171-3.645-14.758-6.571
		c-3.923-2.502-7.531-5.401-10.771-8.751c-0.472-0.489-0.838-1.059-1.301-1.543c-1.592-1.664-2.897-3.549-4.236-5.408
		c-2.343-3.253-4.199-6.775-5.721-10.477c-0.958-2.329-1.787-4.7-2.406-7.144c-0.646-2.551-1.177-5.114-1.45-7.743
		c-0.225-2.166-0.452-4.322-0.456-6.503c-0.004-2.301,0.179-4.578,0.444-6.865c0.159-1.369,0.315-2.756,0.593-4.085
		c0.585-2.797,1.326-5.563,2.308-8.267c1.072-2.95,2.447-5.749,3.885-8.521c0.69-1.329,1.462-2.63,2.324-3.853
		c1.388-1.969,2.869-3.867,4.425-5.716c2.037-2.421,4.351-4.544,6.726-6.593c1.756-1.515,3.704-2.815,5.675-4.059
		c2.645-1.668,5.418-3.082,8.3-4.296c2.034-0.857,4.07-1.693,6.205-2.269c0.276-0.074,0.692-0.021,0.637-0.519
		c1.858-0.05,3.703-0.041,5.533,0.414c0.677,0.169,1.424,0.061,2.139,0.079c-0.022,0.542-0.471,0.587-0.836,0.665
		c-2.078,0.445-4.096,1.089-6.095,1.8c-3.405,1.212-6.631,2.803-9.682,4.724c-2.782,1.751-5.436,3.693-7.775,6.019
		c-1.411,1.403-2.85,2.774-4.132,4.312c-1.269,1.521-2.483,3.084-3.589,4.713c-1.534,2.26-2.799,4.687-3.961,7.163
		c-1.276,2.717-2.278,5.534-3.021,8.436c-0.574,2.242-1.009,4.51-1.266,6.825c-0.152,1.367-0.3,2.748-0.38,4.11
		c-0.105,1.811-0.107,3.637,0.138,5.472c0.197,1.477,0.283,2.972,0.509,4.458c0.367,2.413,0.938,4.769,1.645,7.098
		c1.221,4.022,2.943,7.818,5.1,11.425c1.587,2.654,3.386,5.167,5.468,7.432c2.391,2.602,4.922,5.075,7.809,7.17
		c4.188,3.039,8.665,5.493,13.544,7.226c2.523,0.896,5.104,1.573,7.719,2.097c1.808,0.362,3.657,0.703,5.491,0.722
		c3.02,0.031,6.044,0.206,9.074-0.151c1.408-0.166,2.833-0.324,4.208-0.595c2.767-0.546,5.482-1.326,8.153-2.287
		c3.82-1.374,7.391-3.189,10.768-5.419c1.885-1.244,3.627-2.663,5.362-4.107c1.725-1.436,3.288-3.032,4.785-4.676
		c1.457-1.599,2.78-3.337,3.998-5.138c1.372-2.029,2.567-4.161,3.641-6.362c0.746-1.527,1.46-3.067,2.074-4.652
		C269.069,314.426,269.195,314.255,269.489,314.289z"/>
	<path style="fill:#222E5D;" d="M194.875,101.731c-2.156-0.018-4.299-0.222-6.443-0.426c-1.152-0.109-2.31-0.116-3.465-0.19
		c-2.101-0.136-4.199-0.404-6.356-0.366c-0.234,0.972,0.114,1.858,0.24,2.734c0.555,3.858,1.216,7.701,1.81,11.553
		c0.601,3.893,1.157,7.793,1.754,11.687c0.519,3.381,1.082,6.755,1.601,10.136c0.525,3.422,1.004,6.85,1.531,10.272
		c0.594,3.852,1.233,7.698,1.827,11.55c0.527,3.421,1.005,6.85,1.532,10.271c0.594,3.852,1.232,7.698,1.826,11.55
		c0.527,3.421,1.005,6.85,1.533,10.271c0.594,3.852,1.232,7.698,1.826,11.55c0.527,3.421,1.015,6.849,1.533,10.271
		c0.19,1.258,0.439,2.507,0.617,3.766c0.055,0.392,0.293,0.844-0.134,1.198c-0.737-3.097-1.458-6.198-2.214-9.291
		c-2.534-10.362-5.085-20.721-7.622-31.083c-2.527-10.323-5.046-20.649-7.567-30.974c-2.465-10.094-4.928-20.188-7.395-30.282
		c-0.017-0.071-0.083-0.13-0.204-0.312c-16.873,1.532-33.813,3.071-50.768,4.611c0.007-0.594,0.61-0.484,0.808-0.805
		c0.269,0.128,0.448-0.055,0.649-0.18c1.42-0.883,2.839-1.768,4.266-2.642c5.193-3.181,10.391-6.354,15.583-9.538
		c5.498-3.371,10.996-6.741,16.482-10.132c0.894-0.553,1.895-0.966,2.645-1.782c-1.804-1.484-3.54-2.948-5.317-4.361
		c-1.43-1.136-2.766-2.39-4.291-3.406c-2.065-1.691-4.13-3.381-6.195-5.072c0.368-0.048,0.698,0.056,1.041,0.19
		c8.507,3.331,17.018,6.652,25.528,9.973c6.698,2.614,13.403,5.213,20.091,7.852C192.723,100.759,193.891,101.038,194.875,101.731z"
		/>
	<path style="fill:#222E5D;" d="M394.82,414.771c-0.008,0.885-0.015,1.771-0.023,2.656c-0.199,0.172-0.449,0.151-0.683,0.16
		c-0.399,0.015-0.8,0.008-1.2,0.008c-130.359,0-260.717,0-391.075,0c-0.476,0-0.951,0-1.535,0c-0.122-0.981-0.056-1.921-0.045-2.836
		c0.289-0.301,0.628-0.15,0.931-0.176c0.278-0.024,0.56-0.005,0.84-0.005c130.438,0,260.877,0,391.315,0.01
		C393.835,414.587,394.371,414.384,394.82,414.771z"/>
	<path style="fill:#222E5D;" d="M394.82,491.296c-0.008,0.885-0.015,1.771-0.023,2.656c-0.199,0.172-0.449,0.151-0.683,0.16
		c-0.399,0.015-0.8,0.008-1.2,0.008c-130.359,0-260.717,0-391.076,0c-0.476,0-0.951,0-1.535,0c-0.121-0.981-0.056-1.921-0.045-2.836
		c0.289-0.301,0.628-0.147,0.931-0.176c0.238-0.023,0.48-0.005,0.72-0.005c130.479,0,260.957,0,391.435,0.01
		C393.835,491.112,394.371,490.909,394.82,491.296z"/>
	<path style="fill:#6E82A2;" d="M202.553,245.7c0.055,0.498-0.362,0.445-0.637,0.519c-2.135,0.575-4.171,1.412-6.205,2.269
		c-2.883,1.214-5.655,2.628-8.3,4.296c-1.971,1.243-3.919,2.544-5.675,4.059c-2.375,2.049-4.689,4.172-6.726,6.593
		c-1.556,1.849-3.037,3.748-4.425,5.716c-0.863,1.223-1.634,2.524-2.324,3.853c-1.438,2.772-2.813,5.571-3.885,8.521
		c-0.982,2.703-1.723,5.47-2.308,8.267c-0.278,1.33-0.434,2.716-0.593,4.085c-0.266,2.287-0.448,4.563-0.444,6.865
		c0.004,2.181,0.232,4.337,0.456,6.503c0.272,2.629,0.804,5.192,1.45,7.743c0.619,2.444,1.448,4.815,2.406,7.144
		c1.522,3.702,3.378,7.224,5.721,10.477c1.339,1.859,2.644,3.744,4.236,5.408c0.464,0.484,0.829,1.054,1.301,1.543
		c3.24,3.351,6.847,6.249,10.771,8.751c4.587,2.926,9.513,5.077,14.758,6.571c2.311,0.658,4.649,1.138,6.998,1.561
		c0.991,0.179,2.051,0.21,3.057,0.341c2.749,0.358,5.492,0.139,8.235,0.172c2.049,0.025,4.073-0.335,6.101-0.648
		c1.712-0.264,3.409-0.576,5.077-1.02c3.2-0.852,6.335-1.901,9.327-3.339c3.036-1.459,6.018-3.011,8.769-4.976
		c1.931-1.379,3.825-2.794,5.592-4.392c1.003-0.907,2.059-1.766,2.951-2.777c1.752-1.985,3.535-3.943,5.073-6.116
		c1.395-1.971,2.667-4.008,3.883-6.089c0.191-0.327,0.305-0.868,0.884-0.848c-0.282,1.744-0.624,3.472-1.171,5.157
		c-0.694,2.137-1.259,4.317-2.212,6.364c-0.569-0.1-0.88,0.235-1.158,0.659c-1.068,1.625-2.349,3.091-3.665,4.503
		c-2.521,2.707-5.189,5.273-8.171,7.485c-2.669,1.98-5.456,3.775-8.384,5.35c-2.198,1.182-4.49,2.156-6.811,3.066
		c-3.046,1.195-6.205,2.001-9.399,2.671c-1.733,0.363-3.486,0.586-5.251,0.765c-1.768,0.18-3.532,0.419-5.308,0.423
		c-1.664,0.004-3.323-0.004-4.997-0.168c-2.158-0.211-4.309-0.392-6.455-0.743c-2.799-0.458-5.533-1.158-8.235-1.981
		c-1.655-0.504-3.258-1.178-4.859-1.852c-2.631-1.108-5.158-2.391-7.617-3.84c-3.524-2.078-6.757-4.547-9.783-7.271
		c-2.778-2.501-5.201-5.343-7.452-8.337c-3.497-4.651-6.206-9.724-8.239-15.154c-2.038-5.443-3.263-11.097-3.578-16.888
		c-0.204-3.756-0.192-7.538,0.394-11.299c0.357-2.29,0.689-4.578,1.237-6.83c1.39-5.713,3.587-11.105,6.545-16.178
		c2.197-3.767,4.855-7.21,7.765-10.452c1.625-1.811,3.452-3.426,5.291-5.012c0.536-0.463,1.054-0.963,1.627-1.387
		c2.127-1.574,4.289-3.102,6.575-4.434c1.81-1.054,3.64-2.07,5.591-2.875c1.275-0.526,2.537-1.096,3.809-1.638
		c0.294-0.126,0.746-0.166,0.706-0.674C197.406,245.608,199.978,245.638,202.553,245.7z"/>
	<path style="fill:#D5DBE4;" d="M233.277,253.351c-0.028,0.603-0.516,0.608-0.928,0.714c-1.873,0.484-3.715,1.065-5.427,1.975
		c-1.678,0.892-3.22,1.971-4.72,3.16c-2.615,2.072-4.508,4.682-6.007,7.57c-0.989,1.906-1.734,3.936-2.171,6.091
		c-0.299,1.473-0.313,2.968-0.642,4.43c-0.229,1.017,0.136,2.056,0.275,3.059c0.258,1.855,0.626,3.704,1.3,5.486
		c0.988,2.612,2.323,4.982,4.074,7.172c1.435,1.795,3.077,3.362,4.964,4.579c2.687,1.733,5.561,3.124,8.768,3.761
		c2.404,0.478,4.837,0.683,7.223,0.404c4.569-0.535,8.779-2.126,12.452-5.017c0.809-0.637,1.637-1.286,2.345-1.993
		c1.195-1.191,2.316-2.499,3.2-3.958c0.902-1.488,1.708-3.027,2.364-4.649c0.416-1.028,0.675-2.1,0.964-3.156
		c0.108-0.395,0.38-0.555,0.529-0.848c0.905,1.909,2.124,3.674,2.639,5.761c-0.549,0.416-0.572,1.07-0.71,1.653
		c-0.602,2.537-1.408,5-2.596,7.327c-1.844,3.61-4.29,6.775-7.341,9.426c-3.41,2.963-7.301,5.139-11.658,6.394
		c-1.921,0.553-3.862,1.033-5.892,1.15c-0.899,0.052-1.804,0.188-2.715,0.196c-3.624,0.034-7.144-0.555-10.557-1.773
		c-3.411-1.217-6.537-2.911-9.361-5.217c-4.083-3.332-7.169-7.386-9.274-12.194c-0.948-2.166-1.561-4.454-1.998-6.765
		c-0.186-0.987-0.459-2.019-0.297-3.062c0.107-0.688-0.293-1.301-0.254-1.993c0.085-1.537,0.306-3.057,0.46-4.585
		c0.407-4.047,1.835-7.743,3.809-11.232c1.126-1.991,2.431-3.875,4.051-5.543c1.768-1.82,3.598-3.547,5.714-4.952
		c2.849-1.892,5.921-3.278,9.242-4.137c0.989-0.256,1.958-0.574,2.979-0.681c0.433-0.046,0.642-0.277,0.633-0.709
		C230.299,251.782,231.65,252.858,233.277,253.351z"/>
	<path style="fill:#9AA7BE;" d="M269.489,314.289c-0.293-0.033-0.42,0.138-0.516,0.386c-0.614,1.585-1.329,3.125-2.074,4.652
		c-1.075,2.201-2.27,4.333-3.641,6.362c-1.217,1.801-2.54,3.538-3.998,5.138c-1.498,1.643-3.06,3.24-4.785,4.676
		c-1.735,1.444-3.477,2.863-5.362,4.107c-3.377,2.229-6.947,4.045-10.768,5.419c-2.671,0.96-5.386,1.741-8.153,2.287
		c-1.374,0.271-2.8,0.429-4.208,0.595c-3.029,0.357-6.054,0.183-9.074,0.151c-1.834-0.019-3.682-0.359-5.491-0.722
		c-2.615-0.524-5.197-1.201-7.719-2.097c-4.88-1.734-9.357-4.187-13.544-7.226c-2.887-2.095-5.418-4.568-7.809-7.17
		c-2.082-2.265-3.881-4.778-5.468-7.432c-2.157-3.607-3.879-7.403-5.1-11.425c-0.707-2.329-1.278-4.685-1.645-7.098
		c-0.226-1.485-0.312-2.981-0.509-4.458c-0.244-1.835-0.243-3.662-0.138-5.472c0.079-1.362,0.228-2.743,0.38-4.11
		c0.257-2.315,0.692-4.583,1.266-6.825c0.743-2.902,1.745-5.718,3.021-8.436c1.163-2.476,2.427-4.904,3.961-7.163
		c1.107-1.63,2.32-3.192,3.589-4.713c1.283-1.538,2.722-2.909,4.132-4.312c2.339-2.326,4.993-4.268,7.775-6.019
		c3.051-1.921,6.277-3.512,9.682-4.724c1.999-0.711,4.017-1.355,6.095-1.8c0.365-0.078,0.814-0.123,0.836-0.665
		c1.021-0.045,1.953,0.424,2.963,0.522c0.521,0.051,1.078,0.067,1.606,0.183c0.015,0.377-0.168,0.632-0.532,0.676
		c-1.296,0.157-2.515,0.606-3.767,0.935c-4.832,1.27-9.228,3.469-13.424,6.118c-1.674,1.056-3.191,2.326-4.727,3.563
		c-0.924,0.745-1.783,1.591-2.624,2.423c-0.811,0.802-1.629,1.64-2.322,2.55c-0.436,0.572-0.969,1.048-1.381,1.633
		c-1.385,1.968-2.815,3.898-3.99,6.016c-1.174,2.117-2.284,4.257-3.094,6.531c-1,2.812-1.93,5.639-2.348,8.629
		c-0.289,2.07-0.708,4.116-0.67,6.219c0.009,0.471,0.056,0.942-0.187,1.404c-0.117,0.222-0.113,0.573-0.033,0.823
		c0.514,1.618,0.161,3.301,0.403,4.955c0.256,1.75,0.496,3.509,0.892,5.223c0.637,2.756,1.501,5.448,2.651,8.054
		c1.187,2.688,2.507,5.293,4.148,7.726c1.372,2.034,2.921,3.924,4.532,5.785c1.341,1.548,2.877,2.861,4.374,4.201
		c1.695,1.518,3.589,2.825,5.565,4.01c2.931,1.756,5.968,3.255,9.181,4.409c2.41,0.865,4.865,1.518,7.4,1.934
		c1.987,0.326,3.958,0.701,5.981,0.671c1.071-0.016,2.142,0.505,3.185,0.213c1.479-0.415,2.987-0.163,4.481-0.392
		c1.904-0.291,3.798-0.608,5.678-1.018c5.472-1.194,10.457-3.536,15.131-6.553c2.059-1.329,3.939-2.902,5.809-4.502
		c1.618-1.385,2.982-2.979,4.381-4.534c1.766-1.963,3.227-4.188,4.59-6.458c0.631-1.051,1.264-2.115,1.754-3.235
		c0.993-2.273,2.016-4.54,2.712-6.929c0.116-0.399,0.265-0.654,0.706-0.648C269.296,309.649,269.7,311.958,269.489,314.289z"/>
	<path style="fill:#9AA7BE;" d="M228.481,1.15c0.056-0.545,0.486-0.765,0.949-1.15c-0.055,1.239-0.395,2.29-0.603,3.359
		c-0.655,3.367-1.353,6.725-2.039,10.085c-0.584,2.859-1.177,5.716-1.764,8.574c-0.611,2.973-1.217,5.947-1.832,8.919
		c-0.599,2.895-1.209,5.788-1.808,8.684c-0.678,3.281-1.352,6.564-2.022,9.847c-0.6,2.936-1.191,5.873-1.789,8.809
		c-0.685,3.361-1.386,6.718-2.048,10.083c-0.143,0.728-0.614,1.391-0.447,2.181c-0.311,0.038-0.622-0.012-0.938,0.09
		c-2.859,0.925-5.715,1.861-8.591,2.734c-1.45,0.44-2.85,1.141-4.432,1.025c-4.592-1.538-9.185-3.073-13.772-4.624
		c-0.331-0.112-0.62-0.348-0.928-0.526c0.025-0.507,0.343-0.877,0.596-1.279c1.818-2.894,3.638-5.788,5.447-8.688
		c3.639-5.833,7.27-11.671,10.909-17.504c2.608-4.181,5.225-8.357,7.834-12.538c3.219-5.159,6.432-10.321,9.649-15.481
		c2.376-3.81,4.752-7.621,7.134-11.427c0.172-0.276,0.363-0.53,0.245-0.879l-0.011,0.014C228.455,1.479,228.481,1.325,228.481,1.15z
		"/>
	<path style="fill:#B2BDCD;" d="M221.771,248.772c-0.02,0.249-0.062,0.45-0.385,0.496c-3.29,0.467-6.467,1.406-9.503,2.699
		c-2.911,1.239-5.705,2.752-8.228,4.712c-1.755,1.364-3.526,2.714-5.037,4.347c-2.613,2.824-4.953,5.848-6.722,9.296
		c-1.05,2.047-2.035,4.127-2.723,6.306c-0.694,2.199-1.224,4.45-1.541,6.763c-0.313,2.291-0.45,4.568-0.43,6.867
		c0.018,2.016,0.352,3.991,0.66,5.98c0.353,2.272,0.986,4.448,1.737,6.6c1.34,3.836,3.333,7.316,5.729,10.594
		c1.754,2.4,3.875,4.453,6.047,6.429c1.861,1.694,3.994,3.082,6.184,4.364c2.746,1.608,5.685,2.737,8.695,3.699
		c1.909,0.61,3.893,0.91,5.868,1.249c1.605,0.276,3.232,0.385,4.829,0.408c3.832,0.054,7.624-0.465,11.33-1.492
		c5.163-1.431,9.86-3.777,14.087-7.084c1.76-1.377,3.445-2.836,4.927-4.496c1.974-2.212,3.768-4.564,5.25-7.157
		c1.301-2.277,2.336-4.661,3.252-7.102c0.44-1.172,0.777-2.393,1.04-3.618c0.112-0.524,0.358-0.957,0.539-1.432
		c0.719,0.823,0.619,1.912,0.872,2.875c0.225,0.857,0.446,1.762,0.326,2.683c-0.257,0.006-0.436,0.064-0.505,0.375
		c-0.11,0.496-0.292,0.975-0.434,1.465c-0.976,3.354-2.417,6.5-4.131,9.541c-1.841,3.266-4.148,6.169-6.708,8.876
		c-1.553,1.642-3.313,3.067-5.12,4.431c-3.594,2.714-7.521,4.792-11.76,6.306c-2.041,0.729-4.123,1.264-6.246,1.7
		c-2.44,0.501-4.892,0.851-7.377,0.877c-1.623,0.017-3.244-0.023-4.875-0.167c-2.364-0.208-4.704-0.533-6.982-1.112
		c-4.147-1.055-8.083-2.673-11.769-4.888c-4.033-2.423-7.695-5.256-10.771-8.86c-1.264-1.48-2.466-2.991-3.557-4.591
		c-2.149-3.15-3.866-6.531-5.1-10.139c-0.966-2.826-1.763-5.694-2.061-8.691c-0.16-1.607-0.486-3.199-0.452-4.823
		c0.033-1.545,0.064-3.086,0.178-4.633c0.146-1.976,0.416-3.926,0.828-5.841c1.052-4.896,2.958-9.483,5.542-13.766
		c1.783-2.956,4.005-5.591,6.356-8.116c0.682-0.732,1.511-1.289,2.221-1.98c1.082-1.054,2.293-1.938,3.51-2.821
		c2.77-2.008,5.758-3.611,8.904-4.942c2.873-1.215,5.852-2.066,8.911-2.647c0.398-0.076,0.774-0.147,1.009-0.518
		C219.445,247.879,220.644,248.193,221.771,248.772z"/>
	<path style="fill:#222E5D;" d="M338.39,439.611c-0.302,2.326-0.333,4.519-0.457,6.702c-0.275,4.859-0.545,9.72-0.703,14.585
		c-0.135,4.153-0.196,8.311-0.044,12.466c0.013,0.356,0.077,0.714,0.15,1.063c0.38,1.825,0.966,2.364,2.779,2.558
		c1.066,0.114,2.134,0.212,3.143,0.311c0.508,0.652,0.531,1.23-0.014,1.915c-5.305-0.21-10.681-0.255-16.034,0.015
		c-0.504-0.629-0.667-1.23-0.176-1.935c1.061-0.223,2.178-0.292,3.263-0.558c1.249-0.306,1.99-1.064,2.399-2.258
		c0.394-1.15,0.506-2.344,0.608-3.53c0.375-4.334,0.743-8.669,1.03-13.009c0.353-5.333,0.666-10.669,0.908-16.007
		c0.099-2.188,0.282-4.382,0.11-6.578c-0.161-2.051-0.974-3.051-2.965-3.519c-1.044-0.245-2.113-0.381-3.207-0.572
		c-0.292-0.619-0.338-1.207,0.258-1.872c3.991,0.162,8.084,0.324,12.228-0.022c0.007,3.644,1.353,6.806,2.805,9.901
		c2.233,4.76,4.593,9.461,6.925,14.174c2.456,4.961,4.816,9.97,7.399,14.868c0.128,0.242,0.208,0.517,0.498,0.728
		c0.304-0.122,0.382-0.451,0.524-0.705c2.356-4.212,4.404-8.581,6.532-12.908c3.164-6.433,6.326-12.868,9.449-19.321
		c1.006-2.079,1.793-4.249,2.038-6.721c4.111,0.311,8.202,0.164,12.302-0.001c0.561,0.586,0.28,1.202,0.279,1.878
		c-0.961,0.114-1.824,0.215-2.687,0.32c-2.998,0.365-4.108,1.595-4.244,4.601c-0.096,2.119,0.003,4.234,0.023,6.35
		c0.05,5.312,0.102,10.625,0.269,15.934c0.159,5.024,0.246,10.054,0.671,15.068c0.176,2.082,1.034,3.337,3.306,3.477
		c0.832,0.051,1.66,0.182,2.477,0.275c0.597,0.636,0.447,1.236-0.016,1.945c-5.98-0.253-11.995-0.249-17.958-0.004
		c-0.632-0.912-0.634-0.934-0.18-1.935c0.91-0.111,1.856-0.221,2.801-0.344c2.063-0.268,2.834-1.015,2.888-3.104
		c0.082-3.155,0.068-6.314,0.061-9.471c-0.011-5.275-0.043-10.551-0.075-15.826c-0.016-2.637-0.051-5.274-0.081-7.91
		c-0.002-0.194,0.043-0.401-0.122-0.594c-0.347,0.005-0.369,0.342-0.471,0.546c-2.776,5.516-5.524,11.046-8.31,16.557
		c-3.093,6.12-6.264,12.201-9.096,18.449c-0.526,1.16-1.042,2.324-1.526,3.502c-0.195,0.475-0.491,0.709-0.994,0.676
		c-0.467-0.03-0.642-0.321-0.798-0.746c-1.826-4.981-4.195-9.722-6.442-14.517c-3.667-7.823-7.352-15.639-10.769-23.577
		C338.977,440.534,338.842,440.116,338.39,439.611z"/>
	<path style="fill:#222E5D;" d="M34.411,479.579c-1.344-3.808-3.054-7.447-4.763-11.085c-3.318-7.063-6.675-14.109-9.872-21.228
		c-1.125-2.504-2.205-5.028-3.302-7.534c-0.457,0.111-0.372,0.447-0.385,0.696c-0.275,5.379-0.522,10.759-0.811,16.137
		c-0.239,4.465-0.3,8.934-0.396,13.403c-0.029,1.359,0.064,2.714,0.225,4.061c0.218,1.825,0.84,2.835,2.917,2.975
		c1.031,0.069,2.059,0.187,3.049,0.279c0.473,0.882,0.473,0.882,0.082,1.927c-5.359-0.199-10.768-0.262-16.128,0.019
		c-0.478-0.646-0.605-1.221-0.19-1.93c0.747-0.116,1.527-0.245,2.309-0.355c2.351-0.332,3.248-1.209,3.671-3.558
		c0.39-2.165,0.506-4.359,0.691-6.544c0.336-3.976,0.629-7.956,0.875-11.939c0.258-4.181,0.427-8.368,0.657-12.552
		c0.112-2.034,0.216-4.066,0.185-6.104c-0.005-0.32,0.002-0.64-0.022-0.959c-0.145-1.93-1.026-3.006-2.915-3.444
		c-1.046-0.243-2.117-0.379-3.242-0.575c-0.437-0.625-0.285-1.223,0.208-1.891c4.031,0.174,8.096,0.344,12.213-0.015
		c0.143,4.356,1.944,8.101,3.745,11.825c2.895,5.99,5.88,11.937,8.814,17.908c1.493,3.038,2.941,6.099,4.545,9.082
		c0.151,0.281,0.311,0.557,0.484,0.865c0.507-0.214,0.617-0.715,0.834-1.106c2.287-4.111,4.261-8.38,6.349-12.591
		c2.514-5.069,5.013-10.145,7.503-15.225c1.209-2.467,2.448-4.921,3.285-7.552c0.316-0.994,0.476-2.014,0.664-3.192
		c4.105,0.324,8.196,0.171,12.315-0.002c0.486,0.634,0.47,1.242,0.114,1.878c-1.254,0.263-2.504,0.239-3.705,0.552
		c-1.879,0.491-2.772,1.483-2.988,3.415c-0.205,1.83-0.129,3.662-0.077,5.499c0.083,2.956,0.042,5.915,0.098,8.872
		c0.143,7.623,0.315,15.245,0.724,22.859c0.032,0.597,0.119,1.194,0.219,1.784c0.284,1.683,1.151,2.511,2.849,2.727
		c0.983,0.125,1.969,0.226,2.913,0.333c0.362,0.999,0.362,0.999-0.104,1.926c-5.972-0.23-11.991-0.265-17.969,0.017
		c-0.594-0.571-0.536-1.17-0.303-1.828c0.827-0.39,1.742-0.185,2.583-0.415c0.267-0.073,0.559-0.047,0.832-0.104
		c1.514-0.317,2.094-0.918,2.388-2.444c0.137-0.711,0.128-1.431,0.127-2.15c-0.007-4.438,0.004-8.875-0.032-13.312
		c-0.05-6.192-0.137-12.383-0.209-18.574c-0.001-0.118-0.024-0.237-0.044-0.423c-0.451,0.234-0.526,0.68-0.703,1.034
		c-2.327,4.632-4.615,9.284-6.971,13.901c-2.806,5.5-5.646,10.984-8.312,16.553c-1.186,2.478-2.275,5.001-3.407,7.505
		C35.652,479.809,35.59,479.838,34.411,479.579z"/>
	<path style="fill:#35517E;" d="M252.032,358.425c-2.843,3.572-6.245,6.564-9.932,9.203c-2.923,2.092-5.986,3.996-9.171,5.684
		c-0.093,0.049-0.236,0.005-0.355,0.005c-0.064-0.161-0.163-0.28-0.355-0.22c-0.862,0.269-1.717,0.56-2.584,0.812
		c-1.734,0.506-3.48,0.96-5.255,1.307c-2.045,0.4-4.086,0.782-6.167,1c-1.609,0.169-3.22,0.383-4.831,0.412
		c-4.366,0.078-8.737,0.127-13.059-0.694c-1.543-0.293-3.115-0.451-4.637-0.822c-2.708-0.66-5.411-1.352-8.033-2.321
		c-3.152-1.164-6.236-2.461-9.196-4.071c-2.785-1.515-5.484-3.148-8.048-5.014c-1.889-1.375-3.763-2.783-5.438-4.398
		c-2.92-2.816-5.815-5.654-8.283-8.912c-2.323-3.066-4.435-6.25-6.258-9.628c-0.96-1.779-1.865-3.589-2.617-5.468
		c-0.716-1.793-1.53-3.558-2.083-5.401c-0.631-2.101-1.323-4.195-1.718-6.362c-0.246-1.351-0.58-2.682-0.76-4.05
		c-0.18-1.367-0.323-2.737-0.492-4.103c-0.237-1.927-0.339-3.859-0.419-5.789c-0.106-2.534,0.236-5.057,0.414-7.585
		c0.114-1.621,0.283-3.241,0.595-4.81c0.557-2.802,1.155-5.598,2.021-8.344c0.88-2.789,1.874-5.523,3.094-8.167
		c1.177-2.553,2.474-5.051,3.93-7.468c2.545-4.224,5.595-8.054,8.95-11.647c1.03-1.103,2.147-2.123,3.29-3.122
		c1.463-1.278,2.906-2.573,4.467-3.732c0.253-0.188,0.369-0.408,0.319-0.716c2.481-1.569,5.193-2.659,7.9-3.749
		c1.182-0.476,2.364-0.98,3.633-1.205c0.021,0.377-0.203,0.552-0.513,0.716c-2.027,1.073-3.963,2.293-5.835,3.618
		c-1.97,1.394-3.923,2.83-5.668,4.481c-1.377,1.303-2.804,2.556-4.118,3.946c-1.97,2.084-3.608,4.377-5.242,6.697
		c-1.32,1.874-2.601,3.781-3.708,5.782c-1.248,2.254-2.406,4.568-3.437,6.929c-1.211,2.774-2.186,5.641-2.949,8.581
		c-0.572,2.205-1.047,4.423-1.412,6.669c-0.215,1.322-0.523,2.632-0.473,3.982c0.013,0.35-0.422,0.354-0.43,0.697
		c0.211,0.326,0.178,0.724,0.194,1.121c0.043,1.074-0.127,2.129-0.22,3.193c-0.099,1.138,0.099,2.29,0.165,3.431
		c0.115,1.975,0.281,3.934,0.493,5.902c0.237,2.196,0.688,4.342,1.155,6.486c0.695,3.192,1.727,6.28,2.927,9.323
		c1.455,3.691,3.254,7.202,5.338,10.561c2.342,3.775,5.097,7.246,8.184,10.442c1.215,1.258,2.48,2.466,3.799,3.627
		c2.113,1.861,4.303,3.607,6.638,5.168c3.26,2.181,6.67,4.093,10.277,5.657c3.042,1.319,6.153,2.438,9.347,3.303
		c2.041,0.553,4.103,1.044,6.216,1.313c1.248,0.159,2.502,0.308,3.74,0.508c1.448,0.233,2.91,0.325,4.353,0.383
		c3.21,0.127,6.422,0.059,9.626-0.398c1.398-0.199,2.83-0.31,4.21-0.571c2.771-0.525,5.512-1.211,8.209-2.073
		c4.152-1.327,8.149-2.985,11.945-5.137c2.341-1.327,4.636-2.712,6.791-4.33C250.97,358.751,251.38,358.253,252.032,358.425z"/>
	<path style="fill:#B2BDCD;" d="M201.118,74.39c1.582,0.116,2.982-0.584,4.432-1.025c2.875-0.873,5.731-1.809,8.591-2.734
		c0.316-0.102,0.627-0.052,0.938-0.09c0.337-0.033,0.59,0.122,0.874,0.298c4.918,3.046,9.854,6.062,14.771,9.109
		c3.739,2.317,7.446,4.685,11.187,6.998c4.65,2.876,9.326,5.71,13.98,8.58c3.069,1.892,6.121,3.813,9.179,5.723
		c1.109,0.692,2.212,1.394,3.325,2.08c0.207,0.128,0.435,0.212,0.424,0.509c-0.158,0.008-0.323,0.05-0.472,0.019
		c-7.586-1.579-15.17-3.171-22.756-4.747c-5.214-1.083-10.433-2.141-15.648-3.219c-5.252-1.086-10.503-2.181-15.754-3.274
		c-4.902-1.021-9.802-2.052-14.707-3.063c-2.489-0.513-4.986-0.989-7.479-1.482c0.022-0.458,0.263-0.807,0.536-1.154
		c0.411-0.523,0.795-1.069,1.186-1.608c1.521-2.098,3.074-4.173,4.548-6.303c0.958-1.384,2.105-2.641,2.839-4.177
		C201.114,74.683,201.116,74.536,201.118,74.39z"/>
	<path style="fill:#203D6E;" d="M169.423,254.006c0.05,0.308-0.067,0.529-0.319,0.716c-1.56,1.159-3.004,2.453-4.467,3.732
		c-1.143,0.999-2.26,2.019-3.29,3.122c-3.355,3.593-6.405,7.423-8.95,11.647c-1.456,2.416-2.752,4.914-3.93,7.468
		c-1.22,2.644-2.214,5.378-3.094,8.167c-0.866,2.745-1.464,5.542-2.021,8.344c-0.312,1.569-0.481,3.189-0.595,4.81
		c-0.177,2.528-0.52,5.05-0.414,7.585c0.081,1.93,0.182,3.862,0.419,5.789c0.168,1.366,0.312,2.736,0.492,4.103
		c0.18,1.368,0.514,2.699,0.76,4.05c0.394,2.167,1.087,4.261,1.718,6.362c0.553,1.843,1.367,3.608,2.083,5.401
		c0.751,1.88,1.656,3.69,2.617,5.468c1.823,3.378,3.935,6.562,6.258,9.628c2.468,3.258,5.364,6.096,8.283,8.912
		c1.675,1.616,3.549,3.023,5.438,4.398c2.564,1.866,5.263,3.498,8.048,5.014c2.959,1.61,6.044,2.908,9.196,4.071
		c2.622,0.968,5.325,1.66,8.033,2.321c1.522,0.371,3.095,0.529,4.637,0.822c4.323,0.821,8.693,0.771,13.059,0.694
		c1.611-0.029,3.222-0.243,4.831-0.412c2.08-0.218,4.121-0.6,6.167-1c1.775-0.347,3.521-0.801,5.255-1.307
		c0.866-0.253,1.722-0.544,2.584-0.812c0.191-0.06,0.291,0.059,0.355,0.22c-2.776,1.836-5.883,2.942-8.994,4.022
		c-3.862,1.341-7.84,2.247-11.871,2.882c-2.472,0.389-4.979,0.507-7.483,0.643c-3.447,0.187-6.866-0.081-10.281-0.419
		c-1.699-0.168-3.407-0.364-5.059-0.847c0.01-0.312-0.093-0.466-0.439-0.578c-1.649-0.53-3.29-1.089-4.915-1.687
		c-2.561-0.941-5.07-2.025-7.479-3.297c-2.864-1.512-5.637-3.184-8.298-5.047c-2.631-1.842-5.142-3.832-7.5-5.996
		c-3.049-2.798-5.785-5.894-8.297-9.193c-2.451-3.218-4.558-6.647-6.485-10.19c-1.059-1.947-1.943-3.984-2.767-6.041
		c-1.111-2.776-2.106-5.591-2.835-8.499c-0.678-2.704-1.229-5.425-1.675-8.179c-0.303-1.871-0.569-3.762-0.615-5.624
		c-0.081-3.296-0.229-6.601,0.135-9.911c0.224-2.035,0.446-4.065,0.742-6.093c0.455-3.118,1.268-6.143,2.15-9.157
		c0.698-2.386,1.564-4.71,2.544-6.991c1.017-2.367,2.159-4.67,3.444-6.909c0.886-1.543,1.707-3.121,2.741-4.574
		c0.201-0.283,0.337-0.559-0.074-0.784c1.732-2.397,3.833-4.461,5.922-6.534c2.971-2.95,6.328-5.427,9.785-7.757
		C166.381,255.607,167.83,254.666,169.423,254.006z"/>
	<path style="fill:#222E5D;" d="M192.003,88.072c2.493,0.493,4.99,0.969,7.479,1.482c4.904,1.01,9.805,2.042,14.707,3.063
		c5.251,1.093,10.501,2.189,15.754,3.274c5.215,1.078,10.434,2.136,15.648,3.219c7.587,1.576,15.17,3.168,22.756,4.747
		c0.15,0.031,0.315-0.011,0.472-0.019c0.102,0.048,0.204,0.095,0.354,0.165c-0.955,0.463-1.961,0.381-2.914,0.514
		c-3.437,0.48-6.888,0.866-10.331,1.305c-3.403,0.434-6.803,0.897-10.205,1.336c-2.77,0.357-5.543,0.691-8.314,1.045
		c-2.889,0.369-5.775,0.76-8.665,1.125c-3.444,0.436-6.892,0.846-10.336,1.285c-3.443,0.438-6.883,0.898-10.325,1.346
		c-0.237,0.031-0.477,0.036-0.716,0.053c-1.032-1.105-2.261-1.986-3.402-2.965c-2.772-2.377-5.578-4.715-8.37-7.069
		c-0.152-0.365-0.35-0.717-0.448-1.096c-0.569-2.186-1.128-4.375-1.665-6.569C192.973,92.237,192.495,90.152,192.003,88.072z"/>
	<path style="fill:#536B92;" d="M194.871,246.184c0.04,0.508-0.412,0.549-0.706,0.674c-1.272,0.542-2.534,1.112-3.809,1.638
		c-1.951,0.805-3.781,1.821-5.591,2.875c-2.286,1.332-4.448,2.86-6.575,4.434c-0.573,0.424-1.091,0.924-1.627,1.387
		c-1.839,1.587-3.666,3.202-5.291,5.012c-2.91,3.242-5.569,6.684-7.765,10.452c-2.958,5.073-5.155,10.465-6.545,16.178
		c-0.548,2.253-0.881,4.54-1.237,6.83c-0.586,3.761-0.598,7.543-0.394,11.299c0.314,5.791,1.54,11.446,3.578,16.888
		c2.033,5.43,4.742,10.503,8.239,15.154c2.252,2.994,4.674,5.836,7.452,8.337c3.026,2.724,6.258,5.193,9.783,7.271
		c2.459,1.45,4.986,2.733,7.617,3.84c1.601,0.674,3.204,1.348,4.859,1.852c2.702,0.823,5.436,1.523,8.235,1.981
		c2.146,0.351,4.297,0.532,6.455,0.743c1.673,0.164,3.333,0.172,4.997,0.168c1.775-0.005,3.54-0.244,5.308-0.423
		c1.766-0.179,3.519-0.402,5.251-0.765c3.194-0.67,6.353-1.476,9.399-2.671c2.32-0.91,4.613-1.884,6.811-3.066
		c2.928-1.575,5.715-3.37,8.384-5.35c2.982-2.213,5.65-4.778,8.171-7.485c1.315-1.412,2.597-2.878,3.665-4.503
		c0.278-0.424,0.589-0.759,1.158-0.659c-1.377,3.132-2.697,6.292-4.474,9.23c-0.081,0.134-0.118,0.296-0.284,0.362
		c-0.496-0.086-0.858,0.131-1.111,0.531c-0.148,0.234-0.233,0.522-0.479,0.672c-1.408,0.86-2.369,2.218-3.649,3.236
		c-1.701,1.353-3.397,2.709-5.165,3.97c-3.492,2.492-7.255,4.498-11.181,6.223c-2.965,1.302-6.024,2.309-9.154,3.105
		c-2.129,0.542-4.284,0.956-6.469,1.265c-2.19,0.31-4.376,0.652-6.582,0.642c-2.503-0.011-5.003,0.123-7.516-0.17
		c-1.916-0.223-3.828-0.422-5.733-0.748c-3.417-0.584-6.734-1.498-10.007-2.634c-3.488-1.211-6.786-2.796-10.019-4.565
		c-4.085-2.235-7.771-5.018-11.245-8.071c-2.901-2.549-5.477-5.443-7.802-8.525c-2.164-2.869-4.121-5.894-5.771-9.094
		c-1.303-2.527-2.397-5.148-3.346-7.835c-0.892-2.523-1.686-5.079-2.234-7.687c-0.484-2.301-0.884-4.625-1.073-6.99
		c-0.157-1.967-0.267-3.938-0.42-5.906c-0.083-1.062,0.115-2.131,0.178-3.192c0.11-1.856,0.262-3.696,0.495-5.542
		c0.237-1.875,0.584-3.723,0.999-5.559c0.894-3.963,2.144-7.82,3.853-11.504c1.749-3.771,3.69-7.45,6.147-10.824
		c1.796-2.466,3.63-4.901,5.825-7.04c1.712-1.668,3.324-3.444,5.198-4.938c1.977-1.575,4.024-3.062,6.146-4.434
		c2.523-1.631,5.089-3.193,7.886-4.338c0.358-0.147,0.914-0.163,0.933-0.766c0.393-0.448,0.966-0.295,1.445-0.378
		C191.666,246.496,193.228,245.99,194.871,246.184z"/>
	<path style="fill:#A5B2C6;" d="M218.184,247.795c-0.235,0.371-0.61,0.443-1.009,0.518c-3.059,0.581-6.037,1.432-8.911,2.647
		c-3.146,1.33-6.135,2.934-8.904,4.942c-1.218,0.883-2.429,1.768-3.51,2.821c-0.71,0.692-1.54,1.248-2.221,1.98
		c-2.351,2.525-4.573,5.16-6.356,8.116c-2.584,4.283-4.49,8.87-5.542,13.766c-0.411,1.914-0.682,3.865-0.828,5.841
		c-0.114,1.547-0.146,3.088-0.178,4.633c-0.034,1.624,0.292,3.216,0.452,4.823c0.298,2.997,1.095,5.865,2.061,8.691
		c1.234,3.608,2.95,6.989,5.1,10.139c1.091,1.6,2.293,3.11,3.557,4.591c3.076,3.603,6.738,6.436,10.771,8.86
		c3.686,2.215,7.622,3.833,11.769,4.888c2.278,0.58,4.618,0.904,6.982,1.112c1.632,0.144,3.253,0.184,4.875,0.167
		c2.485-0.026,4.937-0.376,7.377-0.877c2.123-0.436,4.204-0.971,6.246-1.7c4.24-1.514,8.166-3.593,11.76-6.306
		c1.807-1.364,3.567-2.789,5.12-4.431c2.56-2.707,4.867-5.61,6.708-8.876c1.714-3.041,3.155-6.187,4.131-9.541
		c0.142-0.489,0.324-0.969,0.434-1.465c0.069-0.312,0.249-0.37,0.505-0.375c0.433,0.861,0.163,1.832,0.438,2.736
		c0.173,0.57,0.423,1.19,0.235,1.832c-0.441-0.006-0.59,0.249-0.706,0.648c-0.696,2.389-1.719,4.656-2.712,6.929
		c-0.489,1.12-1.123,2.184-1.754,3.235c-1.363,2.27-2.824,4.495-4.59,6.458c-1.4,1.555-2.763,3.149-4.381,4.534
		c-1.87,1.6-3.75,3.173-5.809,4.502c-4.674,3.017-9.658,5.359-15.131,6.553c-1.88,0.41-3.773,0.727-5.678,1.018
		c-1.494,0.228-3.002-0.023-4.481,0.392c-1.043,0.292-2.113-0.229-3.185-0.213c-2.023,0.031-3.994-0.345-5.981-0.671
		c-2.535-0.416-4.99-1.068-7.4-1.934c-3.213-1.154-6.25-2.653-9.181-4.409c-1.976-1.184-3.869-2.491-5.565-4.01
		c-1.497-1.341-3.033-2.654-4.374-4.201c-1.612-1.86-3.16-3.751-4.532-5.785c-1.641-2.433-2.961-5.038-4.148-7.726
		c-1.15-2.606-2.014-5.298-2.651-8.054c-0.396-1.714-0.636-3.473-0.892-5.223c-0.242-1.654,0.111-3.337-0.403-4.955
		c-0.08-0.251-0.084-0.601,0.033-0.823c0.243-0.462,0.196-0.932,0.187-1.404c-0.038-2.103,0.38-4.149,0.67-6.219
		c0.418-2.989,1.348-5.817,2.348-8.629c0.809-2.274,1.92-4.414,3.094-6.531c1.175-2.118,2.604-4.048,3.99-6.016
		c0.412-0.585,0.945-1.061,1.381-1.633c0.694-0.91,1.511-1.749,2.322-2.55c0.842-0.832,1.7-1.678,2.624-2.423
		c1.536-1.237,3.054-2.507,4.727-3.563c4.196-2.648,8.592-4.848,13.424-6.118c1.252-0.329,2.471-0.778,3.767-0.935
		c0.364-0.044,0.547-0.3,0.532-0.676C215.932,247.167,217.086,247.374,218.184,247.795z"/>
	<path style="fill:#48628B;" d="M188.636,247.147c-0.02,0.604-0.576,0.62-0.933,0.766c-2.797,1.145-5.363,2.707-7.886,4.338
		c-2.122,1.372-4.169,2.858-6.146,4.434c-1.875,1.494-3.486,3.27-5.198,4.938c-2.195,2.139-4.029,4.574-5.825,7.04
		c-2.458,3.375-4.398,7.053-6.147,10.824c-1.709,3.684-2.959,7.541-3.853,11.504c-0.414,1.836-0.762,3.683-0.999,5.559
		c-0.233,1.846-0.385,3.687-0.495,5.542c-0.063,1.061-0.261,2.13-0.178,3.192c0.153,1.967,0.263,3.939,0.42,5.906
		c0.189,2.365,0.589,4.689,1.073,6.99c0.548,2.608,1.343,5.164,2.234,7.687c0.949,2.686,2.043,5.307,3.346,7.835
		c1.65,3.201,3.607,6.225,5.771,9.094c2.325,3.082,4.902,5.976,7.802,8.525c3.474,3.053,7.16,5.836,11.245,8.071
		c3.233,1.77,6.531,3.354,10.019,4.565c3.273,1.137,6.59,2.05,10.007,2.634c1.905,0.326,3.817,0.525,5.733,0.748
		c2.513,0.293,5.013,0.159,7.516,0.17c2.206,0.01,4.392-0.332,6.582-0.642c2.185-0.309,4.339-0.723,6.469-1.265
		c3.129-0.796,6.189-1.803,9.154-3.105c3.926-1.724,7.689-3.73,11.181-6.223c1.768-1.262,3.464-2.618,5.165-3.97
		c1.28-1.018,2.241-2.376,3.649-3.236c0.246-0.15,0.331-0.438,0.479-0.672c0.254-0.4,0.615-0.618,1.111-0.531
		c-1.505,2.706-3.226,5.254-5.28,7.586c-0.693,0.786-1.485,1.513-1.99,2.463c-0.125,0.236-0.329,0.452-0.63,0.509
		c-0.653-0.172-1.062,0.326-1.473,0.635c-2.155,1.619-4.45,3.003-6.791,4.33c-3.796,2.152-7.793,3.81-11.945,5.137
		c-2.697,0.862-5.438,1.548-8.209,2.073c-1.381,0.261-2.813,0.372-4.21,0.571c-3.204,0.456-6.416,0.525-9.626,0.398
		c-1.442-0.057-2.904-0.149-4.353-0.383c-1.238-0.2-2.492-0.349-3.74-0.508c-2.113-0.269-4.175-0.76-6.216-1.313
		c-3.194-0.865-6.305-1.984-9.347-3.303c-3.607-1.564-7.017-3.476-10.277-5.657c-2.335-1.562-4.525-3.308-6.638-5.168
		c-1.319-1.161-2.584-2.37-3.799-3.627c-3.087-3.195-5.842-6.667-8.184-10.442c-2.084-3.36-3.883-6.87-5.338-10.561
		c-1.2-3.044-2.232-6.131-2.927-9.323c-0.467-2.145-0.918-4.29-1.155-6.486c-0.213-1.967-0.378-3.927-0.493-5.902
		c-0.066-1.141-0.265-2.292-0.165-3.431c0.093-1.064,0.263-2.118,0.22-3.193c-0.016-0.397,0.017-0.795-0.194-1.121
		c0.007-0.343,0.443-0.347,0.43-0.697c-0.05-1.35,0.258-2.66,0.473-3.982c0.365-2.246,0.84-4.464,1.412-6.669
		c0.763-2.94,1.738-5.807,2.949-8.581c1.031-2.361,2.189-4.675,3.437-6.929c1.107-2.001,2.388-3.907,3.708-5.782
		c1.634-2.321,3.273-4.613,5.242-6.697c1.314-1.39,2.742-2.644,4.118-3.946c1.746-1.652,3.698-3.087,5.668-4.481
		c1.872-1.325,3.808-2.545,5.835-3.618c0.311-0.164,0.534-0.339,0.513-0.716c1.555-0.715,3.223-1.064,4.873-1.457
		C186.749,247.376,187.649,246.968,188.636,247.147z"/>
	<path style="fill:#222E5D;" d="M293.8,428.382c5.731,0.009,10.423,0.97,14.689,3.477c5.762,3.386,9.391,8.436,11.025,14.869
		c1.987,7.824,1.115,15.298-3.383,22.119c-4.056,6.15-9.851,9.76-17.107,10.966c-6.115,1.016-12.047,0.28-17.586-2.517
		c-7.179-3.626-11.612-9.485-13.112-17.394c-1.45-7.645-0.03-14.77,4.601-21.1c3.89-5.317,9.211-8.476,15.627-9.842
		C290.553,428.534,292.579,428.388,293.8,428.382z M312.92,456.206c-0.066-3.397-0.445-6.838-1.414-10.191
		c-1.052-3.642-2.645-7.011-5.275-9.801c-3.545-3.759-7.95-5.464-13.088-5.377c-6.474,0.11-11.414,2.918-14.709,8.484
		c-2.498,4.219-3.102,8.919-3.068,13.71c0.014,1.985,0.23,3.976,0.619,5.94c0.798,4.029,2.133,7.842,4.557,11.198
		c4.339,6.006,10.321,8.403,17.539,7.398c5.842-0.814,9.947-4.243,12.479-9.538C312.334,464.32,312.865,460.351,312.92,456.206z"/>
	<path style="fill:#B2BDCD;" d="M138.848,23.999c-0.173-0.113-0.148-0.249-0.046-0.394c0.075-0.013,0.171-0.062,0.222-0.033
		c2.886,1.65,5.771,3.303,8.651,4.963c2.367,1.363,4.729,2.736,7.093,4.103c2.399,1.387,4.796,2.776,7.198,4.158
		c1.888,1.086,3.783,2.16,5.672,3.243c2.781,1.595,5.559,3.196,8.339,4.792c1.991,1.143,3.987,2.278,5.975,3.427
		c0.672,0.388,1.419,0.67,1.922,1.308c0.078,0.769-0.205,1.481-0.379,2.204c-0.828,3.443-1.757,6.862-2.464,10.334
		c-0.31,0.051-0.616,0.067-0.912,0.236c-0.962,0.547-1.965,1.02-2.918,1.581c-3.067,1.804-6.231,3.431-9.346,5.148
		c-0.269,0.148-0.545,0.345-0.89,0.297c-1.282-1.776-2.341-3.693-3.486-5.554c-7.058-11.473-14.096-22.959-21.165-34.426
		c-1.017-1.651-1.896-3.394-3.135-4.903l0.023,0.03C139.217,24.25,139.082,24.09,138.848,23.999z"/>
	<path style="fill:#9AA7BE;" d="M192.003,88.072c0.492,2.081,0.97,4.165,1.479,6.242c0.537,2.194,1.096,4.383,1.665,6.569
		c0.099,0.379,0.296,0.731,0.448,1.096c-0.255-0.038-0.58,0.126-0.721-0.247c-0.984-0.693-2.152-0.972-3.245-1.403
		c-6.688-2.639-13.393-5.238-20.091-7.852c-8.511-3.321-17.021-6.642-25.528-9.973c-0.344-0.134-0.674-0.238-1.041-0.19
		c-0.19,0-0.259-0.118-0.216-0.275c0.059-0.22,0.272-0.194,0.443-0.226c1.084,0.145,2.128-0.199,3.191-0.292
		c1.568-0.137,3.116-0.505,4.684-0.631c1.54-0.123,3.062-0.386,4.588-0.578c1.559-0.196,3.129-0.379,4.688-0.614
		c1.52-0.229,3.059-0.381,4.589-0.561c2.428-0.286,4.844-0.668,7.275-0.951c0.78-0.091,1.569-0.166,2.35-0.283
		c1.521-0.228,3.044-0.437,4.569-0.633c1.489-0.191,2.982-0.342,4.471-0.534c1.602-0.208,3.195-0.499,4.802-0.651
		c1.496-0.142,2.977-0.395,4.47-0.558c2.079-0.227,4.141-0.621,6.238-0.697c-0.734,1.536-1.881,2.794-2.839,4.177
		c-1.474,2.13-3.027,4.205-4.548,6.303c-0.391,0.539-0.775,1.085-1.186,1.608C192.265,87.265,192.025,87.614,192.003,88.072z"/>
	<path style="fill:#222E5D;" d="M259.862,467.108c0.722-0.399,1.334-0.269,1.897,0.223c0.041,2.422-2.036,8.457-3.568,10.381
		c-2.149,0.584-4.245,1.349-6.452,1.734c-7.079,1.235-14.088,1.173-20.897-1.351c-7.424-2.752-12.74-7.77-15.102-15.404
		c-2.625-8.483-1.42-16.506,3.958-23.702c3.101-4.149,7.312-6.847,12.145-8.585c4.566-1.642,9.287-2.194,14.131-1.957
		c3.883,0.19,7.694,0.782,11.457,1.727c0.621,0.156,1.242,0.277,2.053,0.324c0.318,3.665,0.603,7.339,1.092,11.019
		c-0.612,0.614-1.277,0.557-1.947,0.307c-0.338-0.447-0.346-0.944-0.483-1.398c-1.605-5.322-5.256-8.333-10.649-9.257
		c-4.157-0.712-8.294-0.5-12.284,0.951c-5.713,2.077-9.666,6.006-11.587,11.771c-2.397,7.193-2.247,14.402,0.795,21.375
		c3.02,6.925,8.457,10.927,15.897,12.195c2.819,0.48,5.637,0.484,8.433-0.212c4.536-1.13,7.806-3.858,10.012-7.923
		C259.158,468.594,259.503,467.833,259.862,467.108z"/>
	<path style="fill:#35517E;" d="M181.032,62.105c0.706-3.472,1.635-6.891,2.464-10.334c0.174-0.724,0.457-1.435,0.379-2.204
		c4.89-5.313,9.782-10.624,14.669-15.939c5.564-6.051,11.126-12.103,16.686-18.158c4.128-4.496,8.251-8.997,12.378-13.494
		c0.185-0.201,0.329-0.456,0.624-0.53c0.118,0.349-0.072,0.603-0.245,0.879c-2.382,3.807-4.758,7.617-7.134,11.427
		c-3.217,5.16-6.43,10.322-9.649,15.481c-2.609,4.181-5.226,8.356-7.834,12.538c-3.639,5.833-7.269,11.671-10.909,17.504
		c-1.809,2.9-3.629,5.794-5.447,8.688c-0.253,0.403-0.571,0.772-0.596,1.279c-0.303,0.041-0.405-0.2-0.539-0.389
		c-0.435-0.614-0.855-1.239-1.3-1.845C183.386,65.38,182.344,63.644,181.032,62.105z"/>
	<path style="fill:#222E5D;" d="M183.012,468.129c0.763-0.13,1.335-0.083,1.917,0.489c-0.706,3.569-1.765,7.087-3.129,10.58
		c-11.83-0.197-23.601-0.236-35.347,0c-0.566-0.918-0.566-0.918-0.145-1.911c0.919-0.108,1.869-0.21,2.815-0.336
		c0.473-0.063,0.948-0.141,1.408-0.264c1.147-0.308,1.826-1.075,2.11-2.218c0.262-1.056,0.3-2.133,0.31-3.209
		c0.039-4.275,0.073-8.549,0.085-12.824c0.014-5.396,0.016-10.791-0.003-16.187c-0.007-2.075-0.079-4.151-0.136-6.226
		c-0.011-0.396-0.069-0.795-0.144-1.185c-0.436-2.267-1.282-3.028-3.606-3.263c-0.951-0.096-1.902-0.187-2.867-0.281
		c-0.475-0.62-0.283-1.206,0.062-1.934c6.362,0.231,12.769,0.279,19.101-0.004c0.53,0.604,0.422,1.188,0.315,1.824
		c-0.773,0.267-1.575,0.238-2.352,0.343c-0.474,0.064-0.945,0.127-1.416,0.225c-1.389,0.288-2.102,1.181-2.407,2.504
		c-0.263,1.14-0.289,2.299-0.291,3.455c-0.011,10.432-0.012,20.863,0.001,31.295c0.001,1.075,0.055,2.149,0.265,3.218
		c0.459,2.331,1.661,3.576,4.015,3.978c2.57,0.438,5.169,0.485,7.763,0.371c1.592-0.07,3.192-0.019,4.777-0.316
		c1.183-0.222,2.189-0.684,3.015-1.566c1.437-1.535,2.444-3.335,3.294-5.236C182.615,469.014,182.81,468.581,183.012,468.129z"/>
	<path style="fill:#222E5D;" d="M139.818,468.142c0.605-0.181,1.202-0.11,1.818,0.48c-0.714,3.568-1.768,7.093-3.137,10.577
		c-11.832-0.202-23.605-0.231-35.399-0.006c-0.513-0.547-0.45-1.143-0.192-1.878c0.957-0.118,1.935-0.236,2.912-0.36
		c0.316-0.04,0.636-0.067,0.944-0.142c1.744-0.423,2.41-1.157,2.687-2.922c0.211-1.346,0.254-2.701,0.254-4.06
		c-0.001-10.313-0.001-20.627,0-30.94c0-1.359-0.053-2.712-0.241-4.06c-0.26-1.867-0.974-2.65-2.794-3.112
		c-0.629-0.159-1.266-0.155-1.899-0.233c-0.591-0.073-1.182-0.138-1.784-0.208c-0.446-0.62-0.31-1.204,0.07-1.915
		c6.326,0.209,12.695,0.315,19.075-0.029c0.462,0.632,0.626,1.23,0.182,1.952c-0.887,0.092-1.796,0.183-2.705,0.282
		c-2.277,0.248-3.249,1.229-3.465,3.515c-0.143,1.51-0.23,3.022-0.228,4.541c0.009,9.474-0.004,18.948,0.013,28.422
		c0.003,1.554,0.068,3.113,0.436,4.637c0.432,1.791,1.516,2.899,3.331,3.367c1.487,0.383,2.997,0.464,4.507,0.517
		c2.874,0.101,5.747,0.051,8.606-0.326c1.242-0.164,2.261-0.707,3.102-1.634c1.442-1.587,2.432-3.445,3.306-5.378
		C139.382,468.869,139.447,468.455,139.818,468.142z"/>
	<path style="fill:#E1E4EA;" d="M181.032,62.105c1.313,1.54,2.354,3.276,3.548,4.902c0.445,0.607,0.865,1.231,1.3,1.845
		c0.134,0.188,0.236,0.43,0.539,0.389c0.308,0.178,0.597,0.414,0.928,0.526c4.587,1.551,9.18,3.085,13.772,4.624
		c-0.002,0.146-0.004,0.293-0.006,0.439c-2.098,0.077-4.159,0.47-6.238,0.697c-1.493,0.163-2.974,0.417-4.47,0.558
		c-1.607,0.152-3.2,0.444-4.802,0.651c-1.488,0.193-2.982,0.343-4.471,0.534c-1.525,0.196-3.049,0.405-4.569,0.633
		c-0.781,0.117-1.57,0.192-2.35,0.283c-2.431,0.283-4.848,0.665-7.275,0.951c-1.529,0.18-3.069,0.332-4.589,0.561
		c-1.559,0.235-3.128,0.417-4.688,0.614c-1.526,0.192-3.048,0.454-4.588,0.578c-1.568,0.126-3.116,0.493-4.684,0.631
		c-1.064,0.093-2.107,0.437-3.191,0.292c0.026-0.115,0.014-0.296,0.083-0.334c1.232-0.689,2.476-1.357,3.713-2.037
		c2.313-1.273,4.619-2.559,6.939-3.819c0.299-0.163,0.523-0.344,0.638-0.66c0.335,0.306,0.592,0.013,0.85-0.128
		c2.992-1.637,5.98-3.284,8.97-4.925c0.242-0.133,0.517-0.22,0.578-0.542c0.345,0.047,0.621-0.149,0.89-0.297
		c3.114-1.718,6.279-3.344,9.346-5.148c0.953-0.561,1.956-1.034,2.918-1.581C180.416,62.172,180.721,62.156,181.032,62.105z"/>
	<path style="fill:#222E5D;" d="M75.987,431.281c-0.242-0.683-0.253-1.247,0.179-1.915c6.229,0.222,12.517,0.302,18.812-0.032
		c0.482,0.61,0.635,1.21,0.207,1.943c-0.877,0.093-1.787,0.176-2.693,0.288c-1.795,0.223-3.13,0.613-3.532,3.321
		c-0.242,1.632-0.216,3.267-0.221,4.897c-0.03,9.669-0.03,19.338-0.001,29.006c0.005,1.671-0.049,3.35,0.25,5.016
		c0.326,1.814,0.946,2.573,2.775,2.972c1.122,0.245,2.274,0.357,3.382,0.524c0.48,0.65,0.297,1.229-0.091,1.925
		c-6.258-0.236-12.55-0.271-18.821,0.012c-0.567-0.582-0.468-1.185-0.27-1.841c0.793-0.343,1.647-0.306,2.462-0.419
		c2.845-0.393,3.734-1.307,3.921-4.16c0.092-1.394,0.139-2.789,0.137-4.187c-0.009-9.709-0.005-19.418-0.004-29.126
		c0-1.635-0.026-3.268-0.282-4.888c-0.329-2.083-1.358-2.795-3.397-3.049C77.893,431.457,76.98,431.382,75.987,431.281z"/>
	<path style="fill:#222E5D;" d="M208.027,477.518c0.076,0.569,0.165,1.122-0.319,1.695c-6.22-0.233-12.515-0.228-18.838-0.006
		c-0.442-0.626-0.557-1.229-0.093-1.924c0.89-0.116,1.797-0.232,2.703-0.352c2.263-0.299,3.096-1.144,3.478-3.406
		c0.154-0.914,0.186-1.827,0.186-2.744c0.004-10.994,0.002-21.988,0.002-32.982c0-1.039-0.056-2.07-0.23-3.101
		c-0.328-1.947-1.233-2.865-3.209-3.11c-0.987-0.123-1.979-0.206-2.969-0.308c-0.447-0.634-0.263-1.213,0.085-1.924
		c6.282,0.281,12.579,0.278,18.823,0.002c0.501,0.813,0.501,0.813,0.265,1.898c-0.836,0.097-1.697,0.214-2.562,0.289
		c-0.441,0.038-0.864,0.134-1.292,0.234c-1.221,0.285-1.921,1.061-2.223,2.247c-0.337,1.326-0.407,2.687-0.41,4.037
		c-0.023,10.794-0.024,21.588,0.001,32.382c0.003,1.309,0.075,2.628,0.383,3.92c0.298,1.253,1.052,2.012,2.288,2.337
		c0.931,0.245,1.882,0.346,2.832,0.461C207.279,477.206,207.656,477.147,208.027,477.518z"/>
	<path style="fill:#222E5D;" d="M149.263,270.85c0.411,0.225,0.275,0.501,0.074,0.784c-1.034,1.453-1.855,3.031-2.741,4.574
		c-1.285,2.239-2.426,4.542-3.444,6.909c-0.98,2.281-1.846,4.605-2.544,6.991c-0.882,3.014-1.695,6.038-2.15,9.157
		c-0.296,2.028-0.518,4.058-0.742,6.093c-0.365,3.309-0.217,6.615-0.135,9.911c0.046,1.862,0.312,3.753,0.615,5.624
		c0.446,2.754,0.997,5.475,1.675,8.179c0.729,2.909,1.724,5.723,2.835,8.499c0.823,2.057,1.708,4.094,2.767,6.041
		c1.927,3.543,4.033,6.973,6.485,10.19c2.513,3.298,5.249,6.394,8.297,9.193c2.358,2.164,4.869,4.154,7.5,5.996
		c2.661,1.863,5.435,3.535,8.298,5.047c2.409,1.272,4.918,2.356,7.479,3.297c1.626,0.598,3.266,1.156,4.915,1.687
		c0.346,0.111,0.449,0.266,0.439,0.578c-2.055-0.176-4.014-0.803-5.981-1.352c-2.943-0.821-5.832-1.839-8.599-3.127
		c-4.961-2.311-9.669-5.058-13.99-8.448c-8.21-6.442-14.651-14.313-19.247-23.68c-3.166-6.452-5.241-13.238-6.21-20.367
		c-0.55-4.047-0.809-8.104-0.616-12.181c0.355-7.502,1.844-14.769,4.574-21.779c2.488-6.39,5.936-12.217,10.179-17.589
		C149.067,270.986,149.173,270.924,149.263,270.85z"/>
	<path style="fill:#222E5D;" d="M166.966,69.367c-0.061,0.322-0.336,0.409-0.578,0.542c-2.99,1.641-5.978,3.287-8.97,4.925
		c-0.258,0.141-0.515,0.435-0.85,0.128c-1.015-2.971-2.015-5.948-3.048-8.913c-4.695-13.478-9.399-26.953-14.1-40.429
		c-0.129-0.369-0.368-0.714-0.24-1.136c1.24,1.51,2.118,3.253,3.135,4.903c7.068,11.467,14.107,22.953,21.165,34.426
		C164.625,65.674,165.684,67.591,166.966,69.367z"/>
	<path style="fill:#8091AE;" d="M151.163,87.384c1.525,1.016,2.862,2.27,4.291,3.406c1.777,1.412,3.512,2.877,5.317,4.361
		c-0.75,0.815-1.752,1.229-2.645,1.782c-5.485,3.391-10.984,6.761-16.482,10.132c-5.192,3.183-10.39,6.356-15.583,9.538
		c-1.426,0.874-2.845,1.759-4.266,2.642c-0.202,0.126-0.38,0.308-0.649,0.18c0.277-0.823,0.97-1.343,1.522-1.933
		c2.585-2.766,5.262-5.447,7.852-8.209c3.053-3.255,6.151-6.466,9.22-9.705c3.014-3.18,6.01-6.376,9.059-9.523
		C149.625,89.201,150.377,88.276,151.163,87.384z"/>
	<path style="fill:#27325F;" d="M28.325,512.478c0,1.888-0.028,3.682,0.009,5.474c0.028,1.333,0.265,1.548,1.595,1.719
		c0.239,0.031,0.478,0.051,0.728,0.262c0.103,0.099,0.166,0.288,0.132,0.49c-0.026,0.151-0.107,0.294-0.15,0.408
		c-0.113,0.057-0.183,0.126-0.252,0.124c-1.915-0.059-3.83-0.107-5.745,0.027c-0.889,0.062-0.979-0.038-1.053-0.964
		c0.432-0.544,1.258-0.216,1.706-0.761c0.482-1.479,0.415-13.59-0.092-14.854c-0.522-0.406-1.238-0.189-1.767-0.482
		c-0.244-0.338-0.176-0.628,0.034-1.029c2.229-0.091,4.49,0.101,6.656-0.052c0.415,0.365,0.423,0.692,0.233,1.096
		c-0.514,0.121-1.05,0.247-1.727,0.406c-0.645,2.03-0.136,4.143-0.33,6.193c0.941,0.251,7.697,0.317,9.489,0.118
		c0.379-1.807,0.205-5.446-0.331-6.349c-0.498-0.116-1.034-0.241-1.531-0.356c-0.233-0.354-0.214-0.647,0.081-1.059
		c2.132-0.047,4.352,0.089,6.488-0.051c0.401,0.32,0.541,0.612,0.285,1.09c-0.507,0.116-1.078,0.247-1.616,0.371
		c-0.443,0.387-0.432,0.883-0.433,1.355c-0.008,4.155-0.006,8.311-0.001,12.466c0,0.356,0.005,0.72,0.126,0.968
		c0.514,0.806,1.43,0.354,1.983,0.81c0.195,0.325,0.148,0.621,0.012,0.87c-0.271,0.258-0.557,0.24-0.835,0.219
		c-1.754-0.13-3.508-0.109-5.262-0.012c-0.811,0.045-0.862-0.012-0.95-0.935c0.277-0.34,0.682-0.342,1.073-0.421
		c0.787-0.159,1.022-0.395,1.035-1.212c0.032-1.95,0.01-3.902,0.01-5.926C34.733,512.478,31.6,512.478,28.325,512.478z"/>
	<path style="fill:#27325F;" d="M77.855,519.964c0.643-0.493,1.555-0.091,2.012-0.848c0.352-2.072,0.291-13.07-0.085-14.42
		c-0.385-0.405-0.953-0.334-1.407-0.504c-0.373-0.354-0.39-0.695,0.012-1.102c3.448-0.236,6.953-0.486,10.45,0.002
		c2.672,0.372,4.952,1.495,6.452,3.857c2.902,4.569,1.128,11.762-5.359,13.629c-2.313,0.666-4.666,0.529-7.016,0.404
		c-1.356-0.072-2.707-0.117-4.062-0.01C77.971,521.041,77.879,520.938,77.855,519.964z M82.858,504.571
		c-0.027,0.41-0.06,0.685-0.061,0.961c-0.004,3.752-0.005,7.503-0.003,11.255c0,0.278,0.004,0.562,0.053,0.835
		c0.227,1.268,0.862,1.86,2.156,2.014c0.956,0.114,1.924,0.131,2.866-0.035c2.222-0.391,3.898-1.543,4.791-3.686
		c0.56-1.346,0.728-2.749,0.736-4.203c0.018-3.424-1.814-6.669-5.975-7.316C85.927,504.164,84.42,504.064,82.858,504.571z"/>
	<path style="fill:#27325F;" d="M62.074,502.889c0.414,1.136,0.327,2.346,0.5,3.513c0.064,0.428-0.265,0.619-0.572,0.715
		c-0.569-0.079-0.689-0.475-0.793-0.861c-0.332-1.24-1.124-1.824-2.412-1.921c-1.317-0.099-2.625-0.001-4.018-0.079
		c0,2.172,0,4.267,0,6.512c1.455-0.057,2.94,0.156,4.32-0.154c0.374-0.684,0.357-1.307,0.542-1.82
		c0.341-0.317,0.659-0.374,1.115-0.058c0.12,1.74-0.209,3.571,0.122,5.281c-0.256,0.557-0.612,0.6-1.035,0.489
		c-0.513-0.578-0.311-1.431-0.878-2.007c-1.33-0.33-2.722-0.217-4.077-0.213c-0.311,0.462-0.177,0.914-0.184,1.341
		c-0.019,1.239-0.021,2.478-0.003,3.717c0.024,1.611,0.383,1.972,1.942,2.098c1.157,0.094,2.309,0.018,3.464-0.01
		c0.938-0.023,1.592-0.444,2.074-1.199c0.343-0.536,0.67-1.082,0.991-1.601c0.461-0.227,0.799-0.135,1.075,0.318
		c-0.252,1.338-0.649,2.661-1.224,3.945c-0.776,0.199-1.528,0.013-2.278,0.019c-3.437,0.029-6.875-0.106-10.311,0.068
		c-0.886,0.045-0.984-0.055-0.997-1.009c0.386-0.301,0.872-0.276,1.338-0.337c0.743-0.097,0.973-0.312,1.071-1.037
		c0.053-0.394,0.062-0.796,0.062-1.195c0.004-3.677,0.003-7.354,0.003-11.032c0-0.16,0.004-0.32-0.002-0.48
		c-0.051-1.433-0.106-1.497-1.502-1.821c-0.153-0.035-0.302-0.084-0.423-0.118c-0.225-0.391-0.165-0.718,0.091-1.067
		C54.046,502.889,58.035,502.889,62.074,502.889z"/>
	<path style="fill:#27325F;" d="M279.931,502.883c3.949,0,7.935,0,11.966,0c0.344,1.297,0.453,2.591,0.434,3.885
		c-0.821,0.383-1.049,0.383-1.197-0.256c-0.456-1.966-1.888-2.275-3.56-2.235c-0.987,0.024-1.981-0.093-3.024,0.093
		c0,2.105,0,4.17,0,6.352c1.294,0.089,2.6,0.069,3.904,0.001c0.465-0.024,0.687-0.361,0.748-0.801
		c0.059-0.435,0.135-0.862,0.374-1.224c0.319-0.194,0.615-0.205,0.988,0.05c0,1.807,0,3.666,0,5.529
		c-0.258,0.353-0.594,0.315-0.926,0.217c-0.502-0.598-0.26-1.471-0.93-2.023c-1.304-0.257-2.678-0.252-3.96-0.146
		c-0.271,0.235-0.261,0.443-0.256,0.637c0.038,1.675-0.123,3.356,0.094,5.025c0.129,0.994,0.392,1.281,1.327,1.394
		c1.468,0.176,2.942,0.145,4.413,0.006c0.592-0.056,1.027-0.379,1.406-0.821c0.521-0.609,0.847-1.344,1.243-1.944
		c0.412-0.191,0.701-0.117,1.042,0.21c-0.072,1.421-0.682,2.747-1.148,4.062c-0.919,0.218-1.71,0-2.501,0.011
		c-3.395,0.049-6.791-0.095-10.185,0.077c-0.855,0.043-0.967-0.098-0.925-1.031c0.371-0.263,0.817-0.253,1.247-0.311
		c0.84-0.112,1.007-0.258,1.17-1.088c0.061-0.311,0.079-0.634,0.079-0.951c0.005-3.835,0.002-7.67,0.004-11.506
		c0-0.604-0.012-1.2-0.412-1.695c-0.482-0.333-1.11-0.188-1.566-0.506C279.517,503.519,279.6,503.207,279.931,502.883z"/>
	<path style="fill:#27325F;" d="M185.365,502.553c0.699,2.042,1.372,3.994,2.036,5.949c0.997,2.939,1.986,5.881,2.983,8.82
		c0.115,0.339,0.273,0.663,0.394,1c0.296,0.824,0.806,1.301,1.743,1.374c0.931,0.073,1.022,0.351,0.579,1.212
		c-1.078,0-2.151-0.005-3.224,0.002c-0.878,0.006-1.754-0.006-2.633,0.066c-0.785,0.065-0.858-0.066-0.846-0.988
		c0.419-0.467,1.078-0.181,1.694-0.558c-0.356-1.773-1.102-3.472-1.588-5.27c-1.758,0-3.428,0-5.212,0
		c-0.685,1.686-1.267,3.44-1.697,5.238c0.498,0.51,1.369-0.005,1.7,0.738c0.137,0.308,0.035,0.537-0.254,0.789
		c-1.652,0.023-3.362-0.085-5.07,0.05c-0.614,0.049-0.708-0.165-0.656-1.033c0.257-0.224,0.586-0.257,0.898-0.259
		c0.856-0.007,1.296-0.522,1.586-1.233c1.819-4.46,3.487-8.978,5.191-13.482c0.16-0.424,0.172-0.853,0.229-1.359
		C183.964,503.466,184.344,502.575,185.365,502.553z M183.97,506.646c-0.752,2.057-1.415,3.872-2.143,5.865
		c1.404-0.047,2.677,0.063,4.072-0.106C185.252,510.473,184.652,508.681,183.97,506.646z"/>
	<path style="fill:#27325F;" d="M262.221,504.501c-0.524-0.431-1.151-0.287-1.646-0.561c-0.288-0.328-0.182-0.648,0.012-1.03
		c3.961,0,7.908,0,11.955,0c0,1.208,0,2.467,0,3.79c-0.36,0.291-0.36,0.291-0.899,0.208c-0.047-0.06-0.125-0.116-0.139-0.185
		c-0.382-1.853-0.945-2.357-3.085-2.441c-1.027-0.04-2.057-0.007-3.147-0.007c0,2.31,0,4.485,0,6.722
		c1.511,0.123,2.975,0.071,4.394-0.032c0.819-0.472,0.436-1.472,1.02-2.027c0.285-0.152,0.58-0.179,0.99,0.138
		c-0.011,1.774-0.104,3.637,0.03,5.368c-0.338,0.429-0.643,0.423-0.996,0.313c-0.541-0.537-0.302-1.483-1.078-2.065
		c-1.344-0.207-2.817-0.054-4.446-0.101c0.113,2.273-0.177,4.49,0.185,6.551c0.723,0.822,1.711,0.236,2.335,0.807
		c0.201,0.387,0.129,0.701-0.19,0.958c-1.121,0-2.234-0.012-3.347,0.003c-1.037,0.015-2.074-0.042-3.113,0.065
		c-0.692,0.072-0.747-0.036-0.86-0.926c0.514-0.659,1.528-0.122,2.028-0.835C262.572,517.888,262.58,505.914,262.221,504.501z"/>
	<path style="fill:#27325F;" d="M171.275,506.768c-0.509-2.054-0.945-2.415-3.105-2.488c-0.877-0.03-1.755-0.005-2.806-0.005
		c0,2.552-0.035,5.088,0.01,7.622c0.044,2.494-0.211,5.006,0.154,7.295c0.593,0.541,1.103,0.414,1.566,0.493
		c0.797,0.136,0.896,0.363,0.499,1.294c-2.461-0.13-4.956-0.062-7.338-0.026c-0.419-0.421-0.401-0.74-0.166-1.072
		c0.495-0.248,1.024-0.194,1.534-0.252c0.499-0.057,0.807-0.32,0.88-0.821c0.057-0.394,0.125-0.791,0.125-1.187
		c0.009-4.232,0.005-8.465,0.002-12.697c0-0.157-0.03-0.314-0.056-0.564c-1.471-0.172-2.931-0.184-4.355,0.207
		c-0.829,0.228-1.185,0.995-1.56,1.713c-0.37,0.707-0.526,0.714-1.335,0.213c0.332-1.394,0.671-2.811,1.002-4.199
		c0.737-0.58,0.989,0.124,1.443,0.53c4.475,0,9.02,0,13.521,0c0.473-0.244,0.69-1.098,1.452-0.431
		c-0.125,1.295-0.347,2.625-0.344,3.975C172.4,506.951,172.1,507.026,171.275,506.768z"/>
	<path style="fill:#27325F;" d="M356.028,502.933c0.251,0.285,0.408,0.552,0.122,0.94c-0.041,0.026-0.134,0.129-0.237,0.14
		c-1.287,0.136-2.064,0.945-2.669,1.989c-1.2,2.069-2.396,4.141-3.602,6.206c-0.394,0.675-0.521,1.415-0.563,2.175
		c-0.078,1.397-0.068,2.794,0.091,4.185c0.094,0.821,0.285,0.988,1.136,1.076c0.238,0.025,0.482,0.013,0.716,0.056
		c0.691,0.126,0.783,0.372,0.464,1.195c-0.623,0.255-1.257-0.016-1.888,0.007c-1.596,0.059-3.194-0.064-4.791,0.078
		c-0.769,0.069-0.867-0.08-0.884-1c0.382-0.313,0.869-0.303,1.337-0.338c0.628-0.046,1.003-0.43,1.009-0.99
		c0.027-2.288,0.462-4.604-0.85-6.768c-1.009-1.665-1.809-3.456-2.681-5.202c-0.668-1.337-1.259-2.739-3.013-2.654
		c-0.326-0.435-0.37-0.758,0.054-1.166c2.001,0.046,4.106,0.072,6.109-0.016c0.408,0.399,0.43,0.72,0.145,1.099
		c-0.375,0.114-0.79,0.24-1.326,0.402c0.946,2.498,2.227,4.772,3.479,7.266c1.452-2.435,2.709-4.812,3.923-7.275
		c-0.527-0.136-0.987-0.255-1.445-0.373c-0.304-0.304-0.326-0.62-0.007-1.033C352.383,502.933,354.163,502.933,356.028,502.933z"/>
	<path style="fill:#27325F;" d="M318.069,502.305c0.801-0.6,0.993,0.237,1.529,0.535c4.401,0,8.912,0,13.363,0
		c0.533-0.21,0.779-1.173,1.556-0.418c-0.281,1.415-0.357,2.879-0.396,4.253c-0.37,0.322-0.674,0.313-0.932,0.228
		c-0.246-0.158-0.289-0.35-0.305-0.553c-0.096-1.228-0.779-1.815-1.987-1.97c-1.233-0.158-2.454-0.069-3.667-0.105
		c-0.368,2.423-0.186,14.075,0.226,15.096c0.553,0.485,1.328,0.123,1.921,0.462c0.302,0.318,0.277,0.643,0.078,0.961
		c-0.203,0.219-0.451,0.216-0.687,0.193c-1.595-0.155-3.194-0.057-4.791-0.075c-0.517-0.006-1.036,0.084-1.552,0.069
		c-0.671-0.02-0.744-0.161-0.652-1.027c0.397-0.326,0.896-0.251,1.362-0.309c0.856-0.108,1.046-0.271,1.141-1.083
		c0.06-0.513,0.112-1.031,0.113-1.547c0.009-3.956,0.005-7.912,0.003-11.867c0-0.236,0.041-0.482-0.186-0.817
		c-1.375-0.111-2.836-0.161-4.266,0.24c-0.595,0.167-0.965,0.671-1.281,1.201c-0.219,0.368-0.297,0.84-0.725,1.064
		c-0.367,0.121-0.62-0.029-0.871-0.407C317.393,505.074,317.739,503.656,318.069,502.305z"/>
	<path style="fill:#27325F;" d="M211.469,516.595c0.475-0.145,0.803-0.109,1.073,0.357c-0.247,1.327-0.61,2.689-1.2,3.945
		c-0.708,0.227-1.34-0.005-1.974,0.006c-3.357,0.057-6.715-0.087-10.071,0.082c-0.796,0.04-0.855-0.034-0.975-0.943
		c0.353-0.408,0.865-0.326,1.325-0.404c0.774-0.132,0.939-0.294,1.03-1.067c0.033-0.277,0.033-0.558,0.033-0.838
		c0.002-3.878,0.002-7.755,0-11.633c0-0.279-0.03-0.559-0.033-0.838c-0.006-0.678-0.365-1.018-1.017-1.099
		c-0.393-0.049-0.784-0.115-1.134-0.167c-0.377-0.419-0.3-0.758,0.119-1.144c2.242,0.072,4.552,0.065,6.784-0.008
		c0.436,0.381,0.525,0.717,0.169,1.135c-0.541,0.128-1.156,0.108-1.667,0.357c-0.421,0.45-0.43,0.973-0.431,1.493
		c-0.002,3.838-0.016,7.675,0.006,11.513c0.009,1.578,0.434,1.972,1.964,2.11c1.039,0.094,2.071-0.009,3.107-0.003
		c0.844,0.004,1.462-0.353,1.883-1.059C210.805,517.812,211.121,517.216,211.469,516.595z"/>
	<path style="fill:#27325F;" d="M239.538,516.603c0.462-0.152,0.792-0.131,1.074,0.329c-0.215,1.34-0.606,2.695-1.188,3.96
		c-0.699,0.237-1.331-0.001-1.964,0.01c-3.357,0.057-6.715-0.087-10.071,0.082c-0.794,0.04-0.856-0.033-0.994-0.932
		c0.347-0.42,0.86-0.336,1.32-0.414c0.783-0.133,0.944-0.285,1.035-1.057c0.037-0.316,0.04-0.638,0.04-0.957
		c0.003-3.798,0.002-7.595,0.001-11.393c0-0.24,0.003-0.48-0.014-0.719c-0.076-1.066-0.21-1.21-1.267-1.383
		c-0.312-0.051-0.626-0.092-0.897-0.131c-0.393-0.41-0.319-0.749,0.095-1.143c2.241,0.054,4.552,0.071,6.81-0.014
		c0.398,0.368,0.535,0.696,0.171,1.12c-0.528,0.169-1.156,0.1-1.704,0.4c-0.397,0.403-0.405,0.927-0.405,1.448
		c-0.003,3.837-0.015,7.675,0.006,11.512c0.009,1.625,0.431,1.995,2.063,2.139c1.001,0.089,1.992-0.028,2.987-0.01
		c0.902,0.016,1.523-0.398,1.957-1.144C238.911,517.76,239.209,517.199,239.538,516.603z"/>
	<path style="fill:#27325F;" d="M360.85,519.94c0.436-0.238,0.837-0.249,1.232-0.304c0.838-0.117,0.977-0.269,1.067-1.143
		c0.033-0.317,0.039-0.637,0.039-0.956c0.003-3.717,0.002-7.434,0.002-11.152c0-0.12,0.002-0.24,0-0.36
		c-0.027-1.614-0.09-1.681-1.722-1.956c-0.189-0.032-0.412,0.015-0.556-0.18c-0.272-0.342-0.191-0.655,0.189-1.039
		c2.217,0.068,4.528,0.077,6.789-0.005c0.405,0.344,0.562,0.663,0.196,1.127c-0.512,0.13-1.126,0.109-1.663,0.355
		c-0.39,0.377-0.443,0.851-0.444,1.337c-0.003,3.917-0.016,7.834,0.006,11.751c0.009,1.496,0.447,1.896,1.91,2.036
		c1.039,0.1,2.071-0.006,3.106,0.005c0.896,0.01,1.531-0.367,1.967-1.124c0.334-0.582,0.664-1.168,0.977-1.72
		c0.42-0.166,0.748-0.146,1.056,0.287c-0.162,1.36-0.64,2.69-1.162,3.967c-0.657,0.274-1.251,0.031-1.842,0.04
		c-3.396,0.053-6.794-0.093-10.19,0.079C360.94,521.028,360.827,520.898,360.85,519.94z"/>
	<path style="fill:#27325F;" d="M253.235,502.849c0.353,0.355,0.47,0.661,0.184,1.074c-0.532,0.245-1.217,0.107-1.786,0.451
		c-0.444,0.483-0.374,1.097-0.374,1.69c-0.003,3.871-0.004,7.743,0,11.614c0.002,1.738,0.039,1.773,1.75,2.022
		c0.116,0.017,0.227,0.068,0.327,0.1c0.371,0.356,0.337,0.706-0.05,1.155c-2.253-0.052-4.583-0.098-6.768,0.016
		c-0.414-0.399-0.409-0.697-0.253-1.032c0.288-0.195,0.638-0.24,0.993-0.299c0.977-0.161,1.093-0.301,1.176-1.317
		c0.026-0.318,0.036-0.637,0.037-0.956c0.002-3.632,0.002-7.264,0.002-10.896c0-0.08,0.002-0.16,0-0.239
		c-0.054-1.862-0.065-2.015-1.864-2.202c-0.113-0.012-0.22-0.069-0.354-0.112c-0.032-0.157-0.101-0.313-0.086-0.461
		c0.019-0.188,0.037-0.399,0.325-0.613C248.69,502.946,250.997,502.897,253.235,502.849z"/>
	<path style="fill:#27325F;" d="M110.573,519.798c0.318,0.466,0.274,0.786-0.105,1.164c-2.217-0.054-4.514-0.114-6.7,0.015
		c-0.47-0.345-0.473-0.672-0.302-1.028c0.597-0.493,1.563-0.051,2.045-0.829c0.378-2.038,0.225-13.827-0.196-14.739
		c-0.55-0.353-1.245-0.188-1.797-0.455c-0.239-0.328-0.165-0.626,0.065-1.066c2.262,0.036,4.597,0.075,6.821-0.014
		c0.278,0.211,0.39,0.381,0.391,0.586c0,0.151-0.066,0.302-0.114,0.5c-0.585,0.117-1.162,0.233-1.699,0.34
		c-0.482,0.409-0.522,0.925-0.522,1.448c-0.003,4.11-0.012,8.22,0.006,12.33c0.006,1.303,0.178,1.444,1.53,1.625
		C110.19,519.7,110.38,519.755,110.573,519.798z"/>
	<path style="fill:#27325F;" d="M142.266,519.935c0.544-0.407,1.28-0.149,1.853-0.58c0.313-0.401,0.36-0.909,0.359-1.436
		c-0.004-3.997-0.005-7.994,0.002-11.991c0.001-0.529-0.062-1.033-0.345-1.503c-0.534-0.413-1.241-0.214-1.811-0.484
		c-0.294-0.328-0.289-0.646,0.136-1.091c2.177,0.077,4.48,0.063,6.692,0.005c0.443,0.327,0.445,0.657,0.29,1.049
		c-0.585,0.31-1.34,0.1-1.95,0.568c-0.258,0.603-0.281,1.281-0.283,1.953c-0.009,3.678-0.004,7.355-0.004,11.033
		c0,0.2-0.007,0.401,0.012,0.599c0.129,1.334,0.201,1.408,1.559,1.614c0.239,0.036,0.473,0.071,0.665,0.267
		c0.157,0.296,0.136,0.594-0.048,0.872c-0.212,0.177-0.449,0.196-0.692,0.18c-1.875-0.13-3.749-0.119-5.624-0.01
		C142.241,521.028,142.104,520.825,142.266,519.935z"/>
	<path style="fill:#222E5D;" d="M138.848,23.999c0.234,0.091,0.369,0.252,0.355,0.514C138.845,24.507,139.045,24.116,138.848,23.999
		z"/>
	<path style="fill:#35517E;" d="M228.481,1.15c0,0.176-0.026,0.33-0.26,0.309C228.237,1.296,228.317,1.187,228.481,1.15z"/>
</g>
</svg>
