<?xml version="1.0" encoding="iso-8859-1"?>
<!-- Generator: Adobe Illustrator 27.0.0, SVG Export Plug-In . SVG Version: 6.00 Build 0)  -->
<svg version="1.1" id="Layer_1" xmlns="http://www.w3.org/2000/svg" xmlns:xlink="http://www.w3.org/1999/xlink" x="0px" y="0px"
	 viewBox="0 0 1670 176" style="enable-background:new 0 0 1670 176;" xml:space="preserve">
<g>
	<path style="fill:#72BF47;" d="M0,175c2.788-4.528,3.774-9.785,5.881-14.592c1.057-2.411,1.859-4.935,2.778-7.411
		c10.262-3.71,20.421-7.247,30.481-11.043c32.601-12.302,64.354-26.516,95.289-42.559c1.534-0.796,2.778-1.779,3.731-3.179
		c9.277-13.618,19.561-26.436,30.613-38.648c0.328-0.363,0.52-0.849,0.775-1.278c6.683-2.037,13.477-3.618,20.328-4.968
		c-11.249,11.219-21.544,23.246-31.034,36.134c0.662,0.232,1.048,0.511,1.242,0.413c1.618-0.819,3.238-1.644,4.787-2.584
		c13.959-8.475,26.822-18.415,38.782-29.5c2.967-2.75,6.582-4.987,8.333-8.909l-0.059,0.098c0.815,0.234,1.147-0.303,1.438-0.904
		c4.129-4.138,8.923-7.694,11.507-13.181c6.345-5.553,10.057-12.736,13.35-20.615c-4.535,0.373-15.632,8.638-31.06,22.72
		c-0.338,1.185-1.517,1.373-2.354,1.518c-6.456,1.116-12.738,3.133-19.288,3.746c11.563-11.252,23.78-21.743,36.652-31.471
		C226.784,5.303,231.889,2.644,237,0c2,0,4,0,6,0c3.123,2.473,6.263,5.072,5.623,9.586c-0.318,2.24-0.721,4.51-1.416,6.733
		c-1.389,4.441-3.882,8.337-5.694,12.559c-2.807,4.019-5.614,8.039-8.421,12.058c-9.344,10.644-19.23,20.705-30.092,29.857
		c-13.539,11.408-28.286,20.974-43.461,29.964c-2.573,1.524-5.027,3.317-7.744,4.514c-4.252,1.873-6.674,5.213-8.769,9.119
		c-3.749,6.986-6.05,14.418-6.754,22.253c-0.491,5.47,1.674,11.801,8.907,15.404c3.915,1.95,8.095,2.855,12.468,3.092
		c11.517,0.625,22.401-2.145,33.117-5.944c24.025-8.517,46.682-19.974,68.963-32.211c10.047-5.518,19.928-11.338,29.896-16.999
		c0.805-0.457,1.587-1.396,2.68-0.514c0.402,0.773-0.077,1.165-0.626,1.575c-26.134,19.512-52.776,38.241-82.279,52.448
		c-11.373,5.476-23.085,10.115-35.457,12.915c-11.664,2.64-23.154,1.688-34.372-2.018c-10.228-3.378-17.304-13.621-17.598-24.36
		c-0.147-5.378,0.522-10.603,2.064-15.752c0.305-1.019,1.395-2.001,0.531-3.234c-1.122-0.344-1.884,0.451-2.713,0.879
		c-32.772,16.914-66.243,32.314-100.458,46.071C14.334,170.832,7.432,174.141,0,176C0,175.667,0,175.333,0,175z"/>
	<path style="fill:#4C2B6E;" d="M1670,127c-1.492,0-2.984,0-4.8,0c0-32.069,0-64.103,0-96.161c1.461-1.142,3.292-0.098,4.8-0.839
		C1670,62.333,1670,94.667,1670,127z"/>
	<path style="fill:#4D2C6E;" d="M704.568,30.163c9.493,0,18.776,0,27.903,0c1.085,0.947,0.682,2.02,0.681,2.951
		c-0.026,20.488-0.012,40.976-0.175,61.462c-0.078,9.867,5.713,14.229,14.019,14.524c2.813,0.1,5.631,0.089,8.419-0.696
		c6.76-1.902,9.394-5.158,9.402-12.126c0.022-20.323,0.008-40.646,0.008-60.97c0-1.625,0-3.251,0-5.083c9.668,0,18.941,0,28.242,0
		c1.067,1.313,0.561,2.876,0.564,4.316c0.037,18.99,0.019,37.981,0.029,56.972c0.003,4.808,0.576,9.597-0.583,14.403
		c-1.386,5.745-4.228,10.408-8.922,13.969c-6.816,5.171-14.675,7.92-23.015,8.755c-11.278,1.128-22.612,1.219-33.699-1.862
		c-4.505-1.252-8.785-3.08-12.566-5.888c-6.679-4.961-10.606-11.634-10.677-19.938c-0.196-23.153-0.056-46.309-0.035-69.464
		C704.163,31.186,704.341,30.884,704.568,30.163z"/>
	<path style="fill:#4D2C6E;" d="M919.616,35.512c-2.445,5.786-4.871,11.524-7.416,17.546c-6.896-3.423-13.79-5.721-21.053-6.68
		c-5.115-0.675-10.262-1.088-15.354,0.357c-1.785,0.506-3.425,1.217-4.804,2.501c-3.88,3.612-3.2,9.541,1.433,12.13
		c3.686,2.06,7.866,2.542,11.848,3.662c5.909,1.662,12.139,1.804,17.953,3.941c2.966,1.09,5.852,2.306,8.692,3.693
		c14.143,6.907,16.702,21.648,12.301,33.537c-3.885,10.494-12.082,16.682-22.352,19.73c-22.045,6.541-43.604,4.039-65.197-4.646
		c2.041-6.569,3.987-12.836,5.917-19.049c2.051-0.494,3.398,0.734,4.87,1.325c9.978,4.003,20.32,6.182,31.07,6.241
		c3.489,0.019,6.948-0.485,10.286-1.626c3.663-1.252,5.834-3.684,6.176-7.613c0.337-3.878-1.833-6.274-4.932-7.958
		c-5.931-3.223-12.542-4.258-19.032-5.618c-5.371-1.126-10.7-2.306-15.722-4.631c-19.172-8.874-21.786-33.756-4.917-46.597
		c7.004-5.331,15.155-7.612,23.626-8.459c14.582-1.459,28.904-0.097,42.545,5.793c0.916,0.395,1.828,0.801,2.72,1.246
		C918.561,34.481,918.775,34.765,919.616,35.512z"/>
	<path style="fill:#4E2D6E;" d="M550.39,127.486c-22.643,0-44.754,0-67.216,0c0-32.382,0-64.611,0-97.166c22.2,0,44.589,0,67.232,0
		c0,6.124,0,12.195,0,18.667c-13.463,0-26.713,0-40.178,0c0,6.142,0,11.885,0,18.059c11.03,0,21.94,0,33.136,0
		c0,6.493,0,12.561,0,19.09c-11.067,0-21.979,0-33.119,0c0,7.368,0,14.278,0,21.635c13.384,0,26.635,0,40.145,0
		C550.39,114.463,550.39,120.711,550.39,127.486z"/>
	<path style="fill:#4C2B6E;" d="M387.033,49.269c-10.003,0-19.258,0-28.769,0c0-6.489,0-12.576,0-18.968c28.153,0,56.345,0,84.658,0
		c0,6.271,0,12.345,0,18.854c-9.466,0-18.717,0-28.422,0c0,26.181,0,51.932,0,77.539c-3.838,1.153-19.661,1.41-27.467,0.525
		C387.033,101.527,387.033,75.781,387.033,49.269z"/>
	<path style="fill:#4F2E6F;" d="M627.562,108.029c14.407,0,28.023,0,42.023,0c0,6.473,0,12.706,0,19.29c-22.884,0-45.939,0-69.009,0
		c-1.079-4.185-1.507-68.731-0.617-96.968c9.044,0,18.111,0,27.602,0C627.562,55.969,627.562,81.705,627.562,108.029z"/>
	<path style="fill:#543573;" d="M1330.679,78.791c-1.747,0.87-3.336,0.735-4.917,0.242c-0.456-11.355,6.398-20.937,20.417-22.781
		c5.608-0.738,11.295-0.589,16.865,0.826c9.083,2.306,13.907,8.143,13.94,17.521c0.045,12.484-0.181,24.968-0.288,37.452
		c-0.009,0.999-0.009,1.998,0,2.997c0.068,7.427,0.534,7.917,7.84,8.19c0.845,1.181,0.487,2.458,0.226,3.721
		c-8.906,2.83-12.853-0.233-13.908-10.792c-1.432,0.446-1.807,1.871-2.608,2.859c-5.968,7.364-13.747,10.78-23.124,10.644
		c-3.32-0.048-6.599-0.54-9.847-1.357c-9.172-2.308-13.987-9.53-13.582-19.447c0.38-9.297,4.963-14.856,14.007-17.835
		c6.551-2.157,13.407-2.246,20.17-2.863c3-0.274,5.966-0.71,8.844-1.439c3.809-0.965,6.258-3.167,6.666-7.6
		c0.836-9.067-2.932-15.014-11.858-17.406c-6.28-1.683-12.547-1.371-18.51,1.323C1334.277,66.091,1331.424,71.862,1330.679,78.791z
		 M1370.849,88.796c-2.855,1.775-5.731,2.613-8.673,3.036c-3.782,0.545-7.608,0.781-11.414,1.155
		c-5.126,0.504-10.281,0.953-15.079,3.001c-5.999,2.56-8.904,7.171-8.799,13.727c0.101,6.328,3.057,10.721,8.778,13.285
		c4.045,1.812,8.347,2.197,12.699,1.923c11.218-0.708,21.096-9.348,22.583-19.89C1371.685,99.777,1371.352,94.482,1370.849,88.796z"
		/>
	<path style="fill:#533372;" d="M1648.269,121.581c2.279,2.336,4.877,0.966,7.029,1.756c0.605,1.371,0.595,2.6-0.221,3.766
		c-9.315,2.455-12.479-0.327-13.387-12.157c-2.478,3.484-4.645,6.791-7.969,9.107c-10.453,7.284-21.607,7.527-32.586,2.152
		c-11.596-5.677-12.071-24.713-1.225-32.066c4.966-3.367,10.665-4.483,16.503-5.1c5.292-0.56,10.607-0.973,15.866-1.756
		c3.742-0.557,7.994-0.977,9.161-5.574c1.296-5.105,1.468-10.182-2.349-14.601c-2.868-3.32-6.564-5.142-10.716-5.909
		c-3.601-0.666-7.329-0.664-10.948-0.011c-9.054,1.635-14.072,6.907-15.736,16.226c-0.085,0.475-0.318,0.923-0.495,1.419
		c-1.581,0.917-3.189,0.595-4.789,0.311c-1.044-8.534,3.208-16.591,11.292-20.224c9.898-4.449,20.106-4.254,30.047-0.127
		c5.615,2.331,8.865,6.903,9.307,13.129c0.614,8.645,0.327,17.298,0.147,25.951c-0.132,6.326-0.167,12.656-0.135,18.983
		C1647.073,118.681,1647.593,120.462,1648.269,121.581z M1642.061,88.616c-3.467,1.61-6.333,2.911-9.484,3.249
		c-3.958,0.424-7.929,0.714-11.885,1.155c-4.929,0.549-9.863,1.042-14.534,2.964c-5.948,2.448-8.682,7.137-8.808,13.223
		c-0.122,5.875,2.303,10.857,7.841,13.359c13.818,6.243,31.522,0.38,35.891-15.925C1642.623,100.89,1641.669,95.094,1642.061,88.616
		z"/>
	<path style="fill:#523271;" d="M1198.204,104.05c1.201-0.133,2.171-0.28,3.147-0.332c0.463-0.025,0.935,0.132,1.842,0.275
		c-0.685,7.991-4.379,14.133-10.279,19.178c-11.862,10.143-40.103,9.565-47.969-13.339c-4.986-14.518-3.959-28.542,4.272-41.614
		c11.053-17.554,40-16.296,49.851,2.133c3.705,6.932,5.391,14.207,4.815,22.541c-18.599,0.417-37.177-0.338-55.647,0.683
		c-2.978,11.759,6.247,27.264,18.021,30.167C1181.425,127.482,1194.868,119.637,1198.204,104.05z M1198.157,88.595
		c0.676-16.05-10.728-28.621-25.296-28.372c-13.946,0.238-25.889,13.785-24.797,28.372
		C1164.638,88.595,1181.23,88.595,1198.157,88.595z"/>
	<path style="fill:#533372;" d="M1447.968,92.46c0.055-9.757,2.494-18.752,8.934-26.296c12.837-15.037,38.504-13.225,49.167,3.392
		c9.248,14.411,8.33,35.884-1.808,48.779c-12.314,15.664-39.635,15.295-50.559-3.504
		C1449.768,108.058,1447.947,101.275,1447.968,92.46z M1507.065,92.239c0.211-5.909-1.153-12.25-4.323-18.01
		c-4.875-8.858-12.424-13.574-22.736-13.503c-10.335,0.072-18.013,4.766-22.342,13.973c-5.941,12.634-5.802,25.514,1.066,37.798
		c9.218,16.489,33.314,16.595,43.007,0.408C1505.42,106.755,1507.105,100.091,1507.065,92.239z"/>
	<path style="fill:#583A76;" d="M1529.721,127.293c-1.978,0.9-3.547,0.771-5.351,0.231c0-23.123,0-46.203,0-69.09
		c1.83-1.379,3.435-0.695,5.447-0.551c0,4.395,0,8.618,0,12.967c1.565-0.413,1.712-1.555,2.198-2.332
		c6.123-9.785,16.543-14.227,28.976-12.065c11.662,2.028,18.08,8.928,18.706,21.189c0.84,16.47,0.394,32.98,0.202,49.473
		c-0.001,0.128-0.202,0.254-0.445,0.54c-1.281,0.448-2.717,0.362-4.17,0.006c-1.153-1.5-0.658-3.221-0.663-4.827
		c-0.04-12.665,0.045-25.332-0.061-37.996c-0.034-4.132-0.125-8.286-1.47-12.313c-2.386-7.143-7.498-10.801-14.741-11.54
		c-18.68-1.906-27.549,11.187-28.285,24.52c-0.67,12.13-0.273,24.318-0.343,36.481
		C1529.712,123.789,1529.721,125.592,1529.721,127.293z"/>
	<path style="fill:#543573;" d="M1094.226,127.505c-1.536,0.637-3.097,0.576-4.737,0.016c-0.708-1.668-0.37-3.347-0.374-4.971
		c-0.031-13-0.046-25.999,0.001-38.999c0.013-3.521-0.266-6.993-1.244-10.37c-2.011-6.948-6.783-10.95-13.788-12.1
		c-14.726-2.417-26.827,6.447-29.161,21.2c-0.598,3.78-0.95,7.575-0.924,11.422c0.074,11.158,0.026,22.317,0.026,33.388
		c-1.436,1.29-2.935,0.698-4.706,0.677c0-23.258,0-46.485,0-69.719c1.422-0.797,2.901-0.261,4.528-0.38
		c1.332,3.756-0.242,7.688,0.969,11.301c1.779-0.13,2.156-1.613,2.912-2.622c9.52-12.711,26.633-12.398,36.526-6.86
		c5.948,3.33,8.682,9.045,9.633,15.57c0.526,3.611,0.747,7.292,0.775,10.944c0.092,12.332,0.05,24.666,0.015,36.999
		C1094.671,124.461,1095.056,125.989,1094.226,127.505z"/>
	<path style="fill:#4F2E6F;" d="M1258.461,127.769c-1.478,0.057-2.792,0.373-4.346-0.33c0-22.959,0-46.007,0-69.237
		c1.547-0.573,2.974-0.412,4.678-0.135c0.932,4.019,0.017,8.173,0.515,12.325c1.689,0.081,1.763-1.614,2.364-2.542
		c8.666-13.39,25.904-14.287,36.83-8.699c6.858,3.507,9.413,9.965,10.427,17.169c0.231,1.64,0.239,3.321,0.241,4.983
		c0.017,15.304,0.01,30.608,0.01,45.718c-1.532,1.418-3.072,0.544-4.287,0.843c-0.975-0.722-0.895-1.579-0.896-2.399
		c-0.005-14.318-0.048-28.637,0.03-42.955c0.017-3.036-0.382-5.985-1.119-8.879c-1.907-7.485-7.642-12.047-15.38-12.742
		c-18.979-1.705-28.015,11.836-28.453,27.152c-0.338,11.811-0.056,23.64-0.084,35.461
		C1258.988,124.797,1259.308,126.148,1258.461,127.769z"/>
	<path style="fill:#523271;" d="M233.091,40.936c2.807-4.019,5.614-8.039,8.421-12.058c43.391-8.608,86.782-17.216,130.705-25.93
		c-0.662,2.699-2.339,2.634-3.662,2.988c-19.4,5.193-38.779,10.465-58.214,15.52c-24.745,6.436-49.535,12.697-74.31,19.017
		C235.074,40.717,234.072,40.786,233.091,40.936z"/>
	<path style="fill:#583A76;" d="M1135.423,57.583c0.669,1.716,0.614,3.009,0.105,4.743c-4.642,0-9.399,0-13.82,0
		c-1.387,1.749-0.964,3.307-0.967,4.759c-0.032,14.817-0.02,29.634-0.019,44.45c0,0.832-0.04,1.668,0.017,2.497
		c0.388,5.679,2.994,8.434,8.639,9.052c1.813,0.198,3.645,0.219,5.481,0.322c1.402,1.226,0.804,2.714,0.656,4.097
		c-0.31,0.269-0.527,0.618-0.804,0.674c-3.166,0.641-6.339,0.188-9.394-0.478c-6.713-1.463-10.194-6.509-10.221-14.546
		c-0.05-14.983,0.001-29.967-0.035-44.95c-0.004-1.798,0.399-3.658-0.591-5.715c-3.81,0-7.755,0-11.586,0
		c-1.186-1.624-0.842-3.042-0.421-4.771c3.924,0,7.886,0,12.32,0c0.68-7.157,0.029-14.087,0.392-20.998
		c1.665-1.429,3.41-0.492,5.625-0.683c0,7.306,0,14.219,0,21.547C1126.058,57.583,1130.823,57.583,1135.423,57.583z"/>
	<path style="fill:#583A76;" d="M1397.505,62.355c-3.827,0-7.632,0-11.296,0c-1.321-1.56-1.107-2.913-0.214-4.72
		c3.791,0,7.729,0,12.168,0c0-7.318,0-14.235,0-21.017c2.06-0.941,3.643-0.746,5.704-0.278c0,6.882,0,13.801,0,21.144
		c5.195,0,9.943,0,14.531,0c0.915,1.848,0.674,3.224-0.044,4.865c-4.587,0-9.222,0-13.564,0c-1.397,1.363-1.052,2.764-1.053,4.053
		c-0.022,14.821-0.018,29.643-0.006,44.464c0.001,1.163,0.07,2.331,0.185,3.489c0.558,5.618,3.209,8.225,8.941,8.766
		c1.801,0.17,3.614,0.225,5.411,0.332c0.993,1.503,0.74,2.919,0.264,4.527c-4.317,0.959-8.564,0.386-12.639-1.126
		c-3.465-1.286-5.681-3.978-6.782-7.512c-0.9-2.889-1.049-5.87-1.042-8.882c0.03-14.155,0.025-28.311-0.002-42.466
		C1398.061,66.35,1398.355,64.671,1397.505,62.355z"/>
	<path style="fill:#4C2B6E;" d="M1022.749,126.808c-1.871,0.536-3.506,0.303-5.491,0.186c0-32.055,0-64.105,0-96.344
		c1.731-0.625,3.478-0.326,5.491-0.26C1022.749,62.6,1022.749,94.521,1022.749,126.808z"/>
	<path style="fill:#4F2E6F;" d="M1221.18,127.071c-1.88,0.828-3.175,0.602-4.828,0.358c0-22.991,0-46.013,0-69.105
		c0.048-0.064,0.146-0.311,0.248-0.313c1.305-0.026,2.61-0.017,4.173-0.017c0.999,4.322-0.118,8.804,0.872,14.203
		c6.496-10.009,14.805-15.442,25.989-15.058c1.062,0.739,1.04,1.585,1.021,2.413c-0.015,0.646-0.087,1.291-0.139,1.998
		c-0.534,0.23-0.97,0.588-1.399,0.579c-14.921-0.324-26.085,11.616-25.954,27.424c0.089,10.817,0.017,21.635,0.017,32.453
		C1221.18,123.659,1221.18,125.313,1221.18,127.071z"/>
	<path style="fill:#4D2C6E;" d="M1429.88,58.308c1.689-0.812,3.139-0.31,4.841-0.431c0,23.274,0,46.328,0,69.523
		c-1.525,0.774-3.065,0.655-4.841-0.027C1429.88,104.435,1429.88,81.517,1429.88,58.308z"/>
	<path style="fill:#64487E;" d="M940.998,41.472c1.606,0.959,2.361,2.701,3.609,3.935c0.872,0.317,1.646,0.061,2.414-0.251
		l0.325,0.111l0.328-0.099c-2.374,4.858-7.392,6.599-12.38,4.295c-5.349-2.471-7.598-8.627-5.053-13.831
		c2.584-5.286,8.711-7.363,13.977-4.736c1.048,0.523,2.034,1.132,2.744,2.1c-0.127,0.291-0.133,0.585-0.018,0.881
		c-3.89-1.629-7.75-3.763-11.914-0.696c-4.376,3.989-5.07,8.681-1.844,12.456c2.927,3.425,7.648,3.733,12.197,0.446
		C942.07,46.004,940.22,44.788,940.998,41.472z"/>
	<path style="fill:#583A76;" d="M1429.571,30.745c1.777-0.707,3.35-0.584,5.199-0.132c0,4.587,0,9.114,0,13.838
		c-1.757,0.426-3.33,0.301-5.199,0.015C1429.571,39.926,1429.571,35.523,1429.571,30.745z"/>
	<path style="fill:#EBE8EE;" d="M940.998,41.472c-0.777,3.316,1.072,4.532,4.386,4.611c-4.548,3.287-9.27,2.979-12.197-0.446
		c-3.227-3.776-2.532-8.468,1.844-12.456c0.063,0.433,0.126,0.865,0.188,1.298c0.01,1.958-0.116,3.929,0.068,5.871
		c0.176,1.861-0.911,4.083,1.126,5.654c1.538-1.451,0.082-3.432,1.285-4.663c1.209-0.731,2.211,0.555,3.338,0.193L940.998,41.472z"
		/>
	<path style="fill:#64487E;" d="M941.036,41.535c-1.127,0.362-2.129-0.924-3.338-0.193c-1.203,1.231,0.253,3.212-1.285,4.663
		c-2.037-1.571-0.95-3.793-1.126-5.654c-0.184-1.942-0.058-3.913-0.068-5.871c2.362-0.635,4.725-1.274,6.916,0.491
		c-0.126,0.308-0.219,0.625-0.278,0.953c-1.545,0.365-3.253-0.332-4.656,0.59c-0.309,1.574-0.003,2.74,1.575,3.378
		c1.49-0.427,2.928-1.107,4.202-2.123c0.419,0.048,0.838,0.096,1.256,0.144C943.541,39.449,942.038,40.27,941.036,41.535z"/>
	<path style="fill:#89739B;" d="M948.008,42.997c0.209-1.648-0.475-3.46,0.794-5.076c1.393,2.449,1.393,2.449,0.227,5.317
		C948.689,43.158,948.348,43.077,948.008,42.997z"/>
	<path style="fill:#EBE8EE;" d="M944.234,37.912c-0.419-0.048-0.838-0.096-1.256-0.144c0.015-0.851-0.129-1.605-1.121-1.845
		c0.06-0.327,0.152-0.645,0.278-0.953c0.447-0.181,0.895-0.362,1.586-0.641C943.513,35.638,946.06,36.3,944.234,37.912z"/>
	<path style="fill:#EBE8EE;" d="M948.008,42.997c0.34,0.08,0.681,0.161,1.021,0.241c-0.004,0.958-0.269,1.732-1.355,1.93
		l-0.328,0.099l-0.325-0.111C947.015,44.284,946.844,43.335,948.008,42.997z"/>
	<path style="fill:#EBE8EE;" d="M946.944,33.878c-0.115-0.296-0.109-0.59,0.018-0.881c0.728,0.18,1.268,0.696,0.818,1.339
		C947.335,34.973,947.111,34.271,946.944,33.878z"/>
	<polygon style="fill:#EBE8EE;" points="947.481,36.731 947.354,36.401 947.674,36.436 	"/>
	<path style="fill:#4F2E6F;" d="M189.876,51.322c-6.851,1.35-13.645,2.931-20.328,4.968C124.157,67.279,78.765,78.268,32.707,89.418
		c1.693-6.364,4.126-11.568,6.057-17.052c4.015-1.874,8.385-2.09,12.545-3.003c30.787-6.756,61.603-13.382,92.421-19.999
		c13.464-2.891,26.955-5.662,40.429-8.506c0.474-0.1,0.907-0.396,1.36-0.6c6.551-0.612,12.832-2.63,19.288-3.746
		c0.836-0.145,2.015-0.333,2.354-1.518c0.608,0.132,1.216,0.264,1.825,0.395c-0.006,3.659-0.012,7.318-0.017,10.977
		C202.605,48.019,196.241,49.671,189.876,51.322z"/>
	<path style="fill:#523271;" d="M208.987,35.39c5.264-1.033,10.448-2.567,15.885-2.5c-2.584,5.486-7.378,9.043-11.507,13.181
		c-0.639,0.047-1.546-0.332-1.438,0.904l0.059-0.098c-0.903-0.778-2.08,0.07-3.017-0.508
		C208.975,42.709,208.981,39.049,208.987,35.39z"/>
</g>
</svg>
