<?xml version="1.0" encoding="iso-8859-1"?>
<!-- Generator: Adobe Illustrator 27.0.0, SVG Export Plug-In . SVG Version: 6.00 Build 0)  -->
<svg version="1.1" id="Layer_1" xmlns="http://www.w3.org/2000/svg" xmlns:xlink="http://www.w3.org/1999/xlink" x="0px" y="0px"
	 viewBox="0 0 322.086 110.554" style="enable-background:new 0 0 322.086 110.554;" xml:space="preserve">
<g>
	<path style="fill:#B9C9D9;" d="M46.029,109.97c0.019,0.195,0.038,0.39,0.057,0.584c-5,0-10,0-15,0
		c0.017-0.368-0.09-0.772,0.3-1.031c0.274,0.54,0.777,0.535,1.276,0.532C37.118,110.027,41.573,109.998,46.029,109.97z"/>
	<path style="fill:#1C5E8D;" d="M320.956,74.988c-0.194-0.319-0.387-0.638-0.626-1.031c1.034-0.246,0.997,1.072,1.756,1.097
		c0,0.667,0,1.333,0,2c-0.442-0.431-0.764,1.151-1.244,0.074C321.273,76.435,321.199,75.716,320.956,74.988z"/>
	<path style="fill:#085889;" d="M46.029,109.97c-4.456,0.029-8.911,0.057-13.367,0.085c-0.499,0.003-1.002,0.008-1.276-0.532
		c3.901-23.16,7.802-46.32,11.706-69.499c4.541,0,8.834,0,13.273,0c-0.47,3.038-0.92,5.95-1.387,8.97
		c1.002-0.287,1.154-1.094,1.558-1.654c1.118-1.552,2.221-3.105,3.602-4.45c6.897-6.713,19.168-4.609,23.504,5.385
		c1.961,4.52,2.622,9.249,2.348,14.098c-0.305,5.396-1.226,10.703-3.421,15.691c-2.137,4.856-4.963,9.223-9.564,12.137
		c-3.868,2.45-8.05,3.453-12.591,2.347c-3.983-0.97-7.076-3.119-9.016-6.825c-0.251-0.479-0.205-1.187-1.128-1.517
		C48.851,92.825,47.44,101.398,46.029,109.97z M70.981,58.598c0.193-1.444-0.169-2.84-0.564-4.173
		c-1.642-5.539-7.52-7.097-11.822-3.206c-2.112,1.91-3.338,4.342-3.954,7.046c-0.77,3.38-1.519,6.782-1.945,10.216
		c-0.334,2.688-0.766,5.413-0.125,8.168c0.751,3.23,3.12,5.987,5.897,6.363c3.397,0.461,5.945-0.904,7.75-3.804
		c0.839-1.348,1.527-2.748,1.993-4.261C69.853,69.618,70.447,64.111,70.981,58.598z"/>
	<path style="fill:#0A5889;" d="M7.68,51.39c-2.661,0-5.049,0-7.68,0c0.252-3.917,1.213-7.509,1.7-11.387
		c2.826-0.539,5.73,0.008,8.841-0.352c1.21-4.732,2.429-9.501,3.688-14.423c4.21,0,8.342,0,12.607,0
		c-0.755,4.734-1.505,9.441-2.31,14.494c4.068,0,7.994,0,12.117,0c-0.829,4.063-1.122,7.854-2.119,11.632c-4.079,0-8.064,0-12.074,0
		c-0.907,1.749-0.951,3.613-1.246,5.367c-0.99,5.876-1.866,11.771-2.983,17.626c-0.154,0.808-0.125,1.658-0.127,2.488
		c-0.007,3.155,1.287,4.572,4.48,4.705c2.401,0.1,4.81,0.02,7.528,0.02c-0.174,3.697-1.112,7.166-1.657,10.79
		c-5.382,0.772-10.664,1.266-15.944,0.233c-7.461-1.459-9.515-5.631-9.752-11.785c-0.113-2.912,0.464-5.777,1.026-8.624
		C5.021,65.853,6.306,59.54,7.56,53.22C7.654,52.744,7.628,52.243,7.68,51.39z"/>
	<path style="fill:#085889;" d="M104.936,91.863c-5.199,0-10.169,0-15.274,0c2.892-17.266,5.761-34.397,8.631-51.528
		c1.683-0.521,11.15-0.665,15.31-0.198C110.722,57.332,107.843,74.515,104.936,91.863z"/>
	<path style="fill:#165C8B;" d="M193.572,78.251c-0.903,0.429-1.55,0.321-2.394,0.199c-0.331-4.379,0.182-8.845-0.634-13.746
		c-2.543,4.727-4.85,9.013-7.365,13.688c-1.144-4.674-2.199-8.981-3.38-13.808c-2.007,4.718-2.967,9.327-4.639,13.661
		c-0.708,0.517-1.433,0.325-2.374,0.166c1.979-6.138,3.941-12.222,5.86-18.174c0.705-0.577,1.356-0.526,2.238-0.355
		c0.971,3.871,1.964,7.831,3.077,12.27c2.747-4.106,4.35-8.365,6.753-12.153c0.722-0.448,1.42-0.203,2.25-0.117
		C193.25,66.068,192.876,72.137,193.572,78.251z"/>
	<path style="fill:#165C8B;" d="M168.131,67.352c0.128,3.365-0.87,6.021-2.74,8.363c-2.227,2.788-5.838,3.91-9.142,2.775
		c-1.804-0.62-3.033-1.878-3.755-3.699c-1.725-4.351-0.13-10.666,3.506-13.577c4.303-3.446,10.386-1.775,11.915,3.263
		C168.237,65.536,168.06,66.618,168.131,67.352z M154.57,70.87c0,0.198-0.033,0.782,0.006,1.36c0.205,3.066,1.804,4.457,4.829,4.384
		c1.75-0.042,3.034-0.884,3.994-2.182c1.912-2.584,2.564-5.559,2.09-8.706c-0.429-2.855-2.771-4.655-5.229-4.086
		c-1.367,0.316-2.645,0.939-3.534,2.144C155.252,65.78,154.408,67.973,154.57,70.87z"/>
	<path style="fill:#165C8B;" d="M217.1,70.715c0.008-2.718,0.75-5.212,2.304-7.457c2.108-3.046,5.066-4.297,8.631-3.633
		c3.629,0.676,5.078,2.893,5.477,6.761c0.406,3.938-0.843,7.555-3.816,10.357c-2.399,2.261-5.314,2.719-8.32,1.66
		c-2.796-0.986-3.917-3.395-4.268-6.194C217.047,71.718,217.1,71.213,217.1,70.715z M224.449,76.607
		c1.748,0.165,3.147-0.767,4.28-2.224c1.597-2.056,2.196-4.5,2.189-6.99c-0.005-1.958-0.355-4.024-2.347-5.198
		c-2.318-1.366-5.355-0.488-7.046,2.291c-1.678,2.758-2.492,5.756-1.456,9.023C220.747,75.653,221.972,76.61,224.449,76.607z"/>
	<path style="fill:#1C5E8D;" d="M286.953,59.745c2.898,0,5.47-0.01,8.042,0.008c0.57,0.004,1.164-0.142,1.732,0.164
		c0.482,0.678-0.141,1.231-0.234,2.034c-2.371,0-4.751,0-7.052,0c-0.981,1.831-0.711,3.703-1.25,5.535
		c2.142,0.46,4.235-0.034,6.211,0.325c0.376,0.734,0.284,1.355-0.066,2.157c-1.987,0-4.041,0-6.187,0
		c-0.736,2.092-0.922,4.11-1.1,6.471c3.349,0,6.545,0,9.675,0c0.197,0.907-0.087,1.421-0.262,2.021c-4.042,0-8.091,0-12.288,0
		C285.099,72.231,286.005,66.13,286.953,59.745z"/>
	<path style="fill:#165C8B;" d="M146.914,61.76c-2.239,0.146-4.326,0.108-6.303,0.827c-4.121,1.499-6.343,5.389-5.551,9.704
		c0.6,3.267,3.258,4.923,6.468,3.959c1.251-0.375,2.452-0.917,3.802-1.432c-0.122,0.893-0.231,1.687-0.335,2.452
		c-1.889,1.175-3.87,1.782-5.981,1.6c-4.144-0.357-6.815-3.571-6.847-8.061c-0.035-4.97,3.081-9.273,7.844-10.624
		c2.233-0.633,4.541-0.924,6.906-0.543C147.294,60.318,147.071,60.952,146.914,61.76z"/>
	<path style="fill:#165C8B;" d="M203.718,70.563c-0.585,2.664-1.009,5.109-1.215,7.631c-0.705,0.675-1.508,0.231-2.59,0.389
		c0.948-6.383,1.854-12.49,2.768-18.645c2.009-0.419,3.912-0.195,5.774,0.163c1.931,0.372,3.305,2.033,3.582,4.009
		c0.31,2.205-0.754,4.505-2.59,5.522c-1.099,0.609-2.251,1.044-3.554,0.941C205.239,70.52,204.577,70.563,203.718,70.563z
		 M204.813,62.229c-0.187,1.126-0.348,2.09-0.507,3.055c-0.171,1.033-0.445,2.07,0.017,3.068c3.42,0.147,5.346-1.153,5.243-3.461
		C209.473,62.819,207.962,61.936,204.813,62.229z"/>
	<path style="fill:#1C5E8D;" d="M312.471,60.231c0.222,0.748,0.233,1.462-0.092,2.169c-4.65-1.079-5.495-0.82-6.735,2.072
		c0.11,1.145,0.842,1.941,1.655,2.667c0.93,0.831,1.909,1.607,2.848,2.428c1.946,1.701,2.612,4.135,1.738,6.272
		c-0.828,2.024-3.226,3.344-5.77,3.049c-1.388-0.161-2.783-0.439-3.89-1.39c-0.269-0.802-0.074-1.506,0.242-2.23
		c0.727-0.129,1.196,0.426,1.769,0.674c0.766,0.331,1.517,0.611,2.385,0.624c1.271,0.018,2.386-0.283,2.892-1.508
		c0.485-1.174,0.165-2.291-0.801-3.172c-0.492-0.449-0.979-0.903-1.487-1.334c-0.444-0.377-0.929-0.705-1.366-1.089
		c-2.576-2.264-3.342-4.733-2.19-7.018c1.177-2.337,4.29-3.49,7.4-2.72C311.54,59.841,311.987,60.053,312.471,60.231z"/>
	<path style="fill:#165C8B;" d="M238.638,77.316c0.178-0.74,0.346-1.442,0.558-2.324c1.771,1.048,3.476,1.99,5.442,1.45
		c1.124-0.309,1.666-1.291,1.912-2.394c-0.225-1.356-1.157-2.192-2.091-3.02c-0.932-0.826-1.898-1.616-2.816-2.457
		c-1.729-1.585-2.067-3.641-1.402-5.713c0.71-2.212,2.656-3.052,4.838-3.314c1.429-0.172,2.797,0.12,4.171,0.739
		c0.206,0.713-0.164,1.379-0.251,1.985c-0.166,0.24-0.294,0.223-0.488,0.153c-1.391-0.505-2.735-1.093-4.282-0.364
		c-1.801,0.849-2.362,2.688-1.086,4.247c0.573,0.7,1.313,1.267,1.995,1.875c0.619,0.551,1.291,1.047,1.892,1.616
		c2.066,1.955,2.512,3.948,1.442,6.271c-0.849,1.843-3.286,3.117-5.654,2.813C241.433,78.699,240.024,78.455,238.638,77.316z"/>
	<path style="fill:#165C8B;" d="M267.367,59.836c4.156,0,8.301,0,12.367,0c0.638,0.671,0.25,1.315,0.31,2.109
		c-1.746,0-3.386,0-5.192,0c-1.341,5.491-1.613,11.043-2.769,16.352c-0.732,0.453-1.375,0.198-2.268,0.226
		c0.802-5.498,1.583-10.849,2.397-16.427c-1.927,0-3.565,0-5.348,0C266.876,61.181,266.964,60.502,267.367,59.836z"/>
	<path style="fill:#74C04F;" d="M112.138,28.678c-2.793,1.522-5.933,1.756-8.967,2.337c-1.241,0.238-2.505,0.881-3.984,0.358
		c0.109-1.162,0.547-2.24,0.433-3.401c2.67-2.002,5.193-4.108,7.982-5.857c-0.066,0.548,0.315,0.878,0.564,1.302
		C109.288,25.329,111.366,26.512,112.138,28.678z"/>
	<path style="fill:#165C8B;" d="M257.394,78.421c-0.698,0.206-1.405,0.232-2.279-0.09c0.893-6.094,1.784-12.174,2.641-18.024
		c0.78-0.752,1.434-0.494,1.945-0.499C260.403,60.374,258.922,71.67,257.394,78.421z"/>
	<path style="fill:#21713E;" d="M129.569,6.51c3.297-2.615,6.95-4.637,10.658-6.51c0.729,0.648,0.271,1.169-0.075,1.564
		c-1.687,1.926-3.253,4.015-5.206,5.628c-1.082,0.893-1.683,2.158-2.84,2.906C131.26,8.902,130.415,7.706,129.569,6.51z"/>
	<path style="fill:#4B9747;" d="M122.163,20.257c-0.787,1.206-1.82,2.164-3.002,2.971c-0.218-0.335-0.457-0.658-0.652-1.005
		c-1.07-1.907-3.11-3.076-3.925-5.175c1.038-1.017,2.18-1.889,3.49-2.529c0.007,0.421,0.175,0.769,0.36,1.152
		C119.317,17.504,121.24,18.473,122.163,20.257z"/>
	<path style="fill:#3F8C45;" d="M122.163,20.257c-0.923-1.784-2.846-2.753-3.728-4.585c-0.185-0.383-0.353-0.732-0.36-1.152
		c1.024-1.031,2.222-1.825,3.478-2.539c0.911,1.984,2.463,3.469,3.913,5.034C124.531,18.265,123.469,19.385,122.163,20.257z"/>
	<path style="fill:#227940;" d="M129.569,6.51c0.846,1.196,1.692,2.392,2.537,3.588c-0.978,1.322-2.105,2.5-3.405,3.51
		c-1.708-0.9-2.6-2.529-3.613-4.05C126.463,8.367,127.958,7.354,129.569,6.51z"/>
	<path style="fill:#2D8241;" d="M125.089,9.558c1.013,1.521,1.905,3.149,3.613,4.05c-0.907,1.298-2.047,2.375-3.236,3.407
		c-1.45-1.565-3.002-3.05-3.913-5.034C122.635,11.032,123.797,10.201,125.089,9.558z"/>
	<path style="fill:#56A349;" d="M114.584,17.048c0.815,2.099,2.855,3.268,3.925,5.175c0.195,0.348,0.433,0.671,0.652,1.005
		c-0.588,0.712-1.187,1.412-2.026,1.849c-2.007-1.81-3.688-3.89-5.117-6.178C112.75,18.111,113.598,17.484,114.584,17.048z"/>
	<path style="fill:#60AD49;" d="M112.017,18.899c1.429,2.288,3.11,4.368,5.117,6.178c-0.632,0.939-1.476,1.631-2.485,2.13
		c-1.396-2.429-3.355-4.378-5.355-6.292C110.136,20.154,110.94,19.343,112.017,18.899z"/>
	<path style="fill:#6AB64B;" d="M109.294,20.915c2,1.914,3.959,3.864,5.355,6.292c-0.509,1.05-1.803,0.761-2.511,1.471
		c-0.772-2.166-2.851-3.349-3.972-5.261c-0.249-0.425-0.63-0.754-0.564-1.302C108.053,21.555,108.621,21.16,109.294,20.915z"/>
	<path style="fill:#B9C9D9;" d="M320.092,75.524c0,0.358,0.001,0.716,0.001,1.074c-0.667-0.028-1.39,0.139-2.014-0.518
		C318.684,75.303,319.441,75.6,320.092,75.524z"/>
</g>
</svg>
