<?xml version="1.0" encoding="iso-8859-1"?>
<!-- Generator: Adobe Illustrator 27.0.0, SVG Export Plug-In . SVG Version: 6.00 Build 0)  -->
<svg version="1.1" id="Layer_1" xmlns="http://www.w3.org/2000/svg" xmlns:xlink="http://www.w3.org/1999/xlink" x="0px" y="0px"
	 viewBox="0 0 2861 538" style="enable-background:new 0 0 2861 538;" xml:space="preserve">
<g>
	<path style="fill:#AFA798;" d="M924,538c0.022-2.166,0.062-4.331,0.062-6.497c0.006-139.466,0.017-278.932-0.031-418.398
		c-0.002-4.327,1.192-8.451,1.096-12.937c18.628,0,36.897,0,55.752,0c0.434,8.662-0.464,17.466,1.538,26.312
		c4.654-1.353,8.624-4.354,12.831-6.723c12.783-7.196,26.439-12.016,40.537-15.706c14.716-3.852,29.743-4.182,44.873-4.192
		c18.41-0.013,36.15,3.182,53.464,9.131c18.266,6.277,34.762,15.721,48.488,29.334c17.806,17.66,29.427,39.001,35.364,63.37
		c2.07,8.495,3.288,17.126,4.26,25.846c1.131,10.153,1.176,20.297,0.582,30.37c-1.153,19.54-4.944,38.552-13.387,56.489
		c-4.968,10.555-10.691,20.62-18.165,29.498c-6.958,8.265-14.868,15.676-23.793,21.908c-15.26,10.655-32.166,17.584-50.161,21.875
		c-7.37,1.757-14.963,2.454-22.485,3.473c-7.808,1.057-15.595,0.913-23.38,0.776c-13.929-0.245-27.544-2.711-40.911-6.661
		c-15.118-4.467-29.726-10.097-43.356-18.12c-1.663-0.979-3.636-1.431-6.178-2.398c0,58.09,0,115.67,0,173.25
		C962,538,943,538,924,538z M981.001,245.391c0,17.495,0.085,34.991-0.056,52.485c-0.038,4.67,1.488,8.365,4.852,11.482
		c2.194,2.033,4.439,3.983,6.768,5.869c14.874,12.048,32.18,18.612,50.582,22.823c5.668,1.297,11.477,1.391,17.159,2.237
		c10.181,1.516,20.222,0.608,30.238-0.49c8.844-0.969,17.467-3.417,25.669-6.967c13.349-5.777,24.456-14.411,33.022-26.28
		c10.386-14.391,15.102-30.856,16.537-48.131c1.027-12.352,0.721-24.829-1.658-37.196c-3.699-19.227-11.313-36.13-26.43-49.203
		c-7.118-6.156-14.954-10.947-23.772-14.101c-8.234-2.945-16.586-5.17-25.388-6.197c-10.329-1.205-20.646-1.161-30.863-0.419
		c-11.981,0.87-23.731,3.689-34.971,8.274c-14.095,5.749-27.047,13.225-37.945,24.03c-2.666,2.643-3.831,5.524-3.803,9.302
		C981.074,210.4,981.001,227.896,981.001,245.391z"/>
	<path style="fill:#72685A;" d="M120,0c0.063,27.652,0.126,55.305,0.187,82.957c0.01,4.331-0.008,8.663,0.033,12.994
		c0.011,1.13-0.301,2.35,0.984,3.788c29.18,0,58.748,0,88.601,0c0,17.191,0,33.93,0,51.119c-29.564,0-59.14,0-88.441,0
		c-1.367,2.084-1.117,3.946-1.118,5.749c-0.017,41.481-0.142,82.963,0.064,124.443c0.048,9.597,0.544,19.219,3.473,28.596
		c4.268,13.664,13.182,22.197,26.674,26.564c14.098,4.564,28.474,4.396,42.951,3.272c5.296-0.411,10.573-1.062,15.851-1.602
		c1.086,3.691,1.465,36.069,0.583,49.256c-0.924,1.277-2.345,1.568-3.834,1.879c-16.925,3.53-33.959,3.74-51.128,2.222
		c-9.29-0.821-18.497-2.007-27.526-4.247c-11.027-2.736-21.376-7.06-30.719-13.726c-13.276-9.472-21.665-22.345-26.399-37.674
		c-3.735-12.096-5.533-24.559-6.398-37.214c-0.842-12.322-0.572-24.633-0.593-36.948c-0.059-34.484,0.008-68.968,0.025-103.453
		c0.001-1.819,0-3.637,0-5.565c-2.664-1.778-5.548-1.377-8.295-1.384C36.65,150.979,18.325,151.001,0,151c0-17,0-34,0-51
		c20.936,0,41.873,0,62.987,0c0.106-1.982,0.235-3.283,0.236-4.584c0.015-30.648,0.018-61.296,0.009-91.943
		C63.231,2.315,63.081,1.157,63,0C82,0,101,0,120,0z"/>
	<path style="fill:#AFA798;" d="M2041,0c4.631,2.753,9.634,4.848,13.496,8.878c9.466,9.879,11.587,25.337,3.448,37.353
		c-5.675,8.378-13.819,13.051-23.613,13.522c-13.594,0.655-26.424-7.53-30.279-22.128c-4.138-15.67,4.427-30.982,18.599-36.042
		c0.835-0.298,2.018-0.4,2.349-1.584C2030.333,0,2035.667,0,2041,0z"/>
	<path style="fill:#B0A89A;" d="M2861,97c-2.059,2.439-2.305,5.674-3.737,8.427c-6.245,12.004-15.956,18.437-29.438,19.68
		c-8.053,0.743-15.764,0.166-22.958-3.715c-10.43-5.627-16.629-14.497-18.731-26.031c-1.95-10.7-0.641-21.135,5.014-30.569
		c6.073-10.129,15.021-16.21,27.073-16.726c6.419-0.274,12.85-0.634,19.141,1.845c9.23,3.636,16.145,9.413,20.058,18.705
		c1.052,2.499,1.84,5.191,3.578,7.384C2861,83,2861,90,2861,97z M2850.103,87.191c-0.003-3.479-0.138-6.912-1.056-10.332
		c-3.375-12.576-11.476-19.583-24.181-20.683c-10.855-0.94-22.065,5.093-25.99,16.704c-2.312,6.841-3.48,13.575-2.024,20.858
		c1.281,6.407,3.68,12.253,8.319,16.552c10.425,9.662,26.478,8.856,36.167-0.185C2847.892,103.989,2850.399,96.062,2850.103,87.191z
		"/>
	<path style="fill:#AFA798;" d="M1502.101,126.496c0-8.661,0-17.277,0-26.148c19.238,0,38.116,0,56.877,0
		c1.503,2.293,0.914,4.527,0.915,6.624c0.043,72.157,0.04,144.314,0.065,216.471c0.001,3.801-0.145,7.583,0.937,11.359
		c1.836,6.41,5.54,10.91,12.063,12.634c4.434,1.172,8.971,1.955,13.713,2.965c0,12.631,0,25.233,0,38.091
		c-5.626,2.373-11.706,2.984-17.737,3.37c-6.142,0.393-12.367,0.598-18.483,0.061c-14.449-1.267-28.033-4.949-38.275-16.277
		c-2.229-2.465-4.263-5.088-5.865-8.005c-0.729-1.327-1.487-2.577-2.713-3.592c-2.109,0.161-3.738,1.418-5.326,2.472
		c-15.36,10.199-32.35,16.707-50.055,21.118c-12.33,3.071-24.984,4.905-37.835,4.434c-8.289-0.304-16.612,0.26-24.856-1.107
		c-14.326-2.375-28.478-5.248-42.06-10.727c-18.186-7.336-33.921-18.101-47.093-32.514c-13.522-14.795-22.659-32.123-28.34-51.303
		c-2.815-9.504-4.646-19.234-5.866-29.035c-1.21-9.724-1.718-19.562-1.042-29.353c1.185-17.155,3.536-34.129,9.562-50.388
		c5.275-14.233,12.294-27.387,22.086-39.156c14.479-17.402,32.323-29.687,53.396-37.693c11.961-4.544,24.229-7.295,36.888-9.002
		c9.578-1.292,19.123-1.795,28.747-1.81c9.482-0.015,18.763,1.589,27.986,3.474c20.22,4.133,39.262,11.534,57.468,21.182
		C1498.67,125.387,1500.002,126.458,1502.101,126.496z M1503.03,246.126c-0.009,0-0.017,0-0.026,0
		c0-17.487-0.061-34.975,0.051-52.461c0.023-3.525-0.9-6.601-3.109-9.174c-2.053-2.391-4.299-4.687-6.76-6.647
		c-21.281-16.944-45.942-24.868-72.747-26.734c-13.801-0.961-27.507,0.45-40.834,3.99c-19.382,5.149-35.375,15.53-46.452,32.634
		c-9.972,15.396-13.802,32.724-15.054,50.678c-0.68,9.752,0.303,19.479,1.711,29.211c1.78,12.3,5.591,23.765,11.815,34.423
		c4.297,7.358,9.673,14.024,16.391,19.232c16.904,13.103,36.49,18.906,57.637,19.652c7.441,0.262,14.887-0.046,22.361-0.733
		c10.293-0.945,20.105-3.562,29.794-6.739c13.013-4.267,24.587-11.318,35.459-19.548c6.39-4.837,10.294-10.51,9.944-19.326
		C1502.572,278.454,1503.03,262.281,1503.03,246.126z"/>
	<path style="fill:#AFA798;" d="M2285.783,392.003c-1.5,0-3-0.039-4.498,0.006c-16.668,0.5-32.986-2.013-49.034-6.184
		c-17.087-4.44-33.194-11.296-47.658-21.56c-15.916-11.293-28.845-25.196-37.952-42.704c-7.244-13.927-11.912-28.543-14.749-43.895
		c-1.238-6.704-2.025-13.392-2.023-20.206c0.001-2.961-0.696-5.92-0.72-8.883c-0.179-22.009,2.885-43.505,10.922-64.093
		c4.902-12.557,11.562-24.097,20.265-34.525c8.063-9.661,17.309-17.814,27.802-24.671c12.862-8.405,26.778-14.399,41.613-18.237
		c12.477-3.228,25.174-5.035,38.022-6.301c11.488-1.132,22.983-1.316,34.36-0.494c22.464,1.623,44.553,5.819,65.086,15.564
		c17.243,8.183,32.424,19.185,44.614,34.235c10.584,13.066,18.336,27.48,23.348,43.441c3.92,12.484,6.408,25.187,7.076,38.337
		c0.346,6.798,0.794,13.592,0.601,20.38c-0.566,19.961-4.154,39.321-11.844,57.862c-7.443,17.945-18.436,33.353-32.922,46.195
		c-14.073,12.476-30.341,21.162-48.303,26.678c-10.73,3.295-21.679,5.469-32.776,7.252
		C2306.611,391.873,2296.225,391.992,2285.783,392.003z M2386.079,246.34c0.23-16.308-2.305-31.429-8.728-45.948
		c-5.653-12.781-13.899-23.22-25.206-31.354c-16.692-12.009-35.899-16.38-55.861-17.844c-11.732-0.86-23.542-0.394-35.203,1.792
		c-10.896,2.043-21.537,4.736-31.408,10.055c-18.353,9.889-30.875,24.653-37.675,44.314c-2.814,8.136-4.315,16.484-5.286,25.078
		c-1.262,11.171-0.858,22.266,0.568,33.23c1.624,12.49,5.721,24.436,12.254,35.342c4.464,7.452,9.913,14.23,16.817,19.518
		c17.816,13.644,38.461,19.387,60.53,20.399c11.096,0.509,22.183-0.015,33.228-1.784c12.166-1.948,23.751-5.254,34.56-11.322
		c17.277-9.7,28.886-24.024,35.36-42.597C2384.478,272.458,2386.383,259.268,2386.079,246.34z"/>
	<path style="fill:#AFA798;" d="M2557.8,180.831c0,67.993,0,135.782,0,203.878c-4.302,0.405-8.37,1.048-12.448,1.119
		c-9.996,0.175-19.999-0.05-29.994,0.163c-4.683,0.1-9.17-1.205-14.131-1.072c0-94.927,0-189.633,0-284.308
		c4.183-0.827,46.411-1.136,56.471-0.399c0,8.342,0,16.752,0,25.403c2.258,0.298,3.535-0.838,4.982-1.401
		c19.245-7.493,38.991-13.417,59.123-17.908c10.924-2.437,21.982-4.296,33.166-5.545c8.834-0.986,17.656-1.184,26.37-0.527
		c15.935,1.202,31.923,2.697,47.022,8.742c10.076,4.034,19.541,9.123,27.497,16.547c10.857,10.132,17.204,23.007,21.014,37.137
		c1.844,6.836,2.618,13.896,3.386,20.979c0.866,7.988,0.759,15.934,0.772,23.891c0.088,55.994,0.045,111.987,0.044,167.981
		c0,2.974,0,5.949,0,9.406c-19.048,1.472-37.7,1.45-56.321,0.048c-1.131-1.918-0.631-3.792-0.632-5.561
		c-0.032-56.327-0.019-112.654-0.033-168.981c-0.002-8.45-0.103-16.834-1.902-25.226c-2.874-13.407-10.866-22.11-23.208-27.029
		c-6.766-2.697-13.928-4.165-21.279-4.208c-3-0.017-5.85-0.921-8.87-1.004c-14.162-0.389-28.077,1.586-41.901,4.203
		c-14.271,2.701-28.187,6.801-41.861,11.722C2575.885,172.187,2566.747,175.565,2557.8,180.831z"/>
	<path style="fill:#72685A;" d="M582.997,100.988c-1.121,5.049-2.251,10.373-3.49,15.671c-2.984,12.77-5.241,25.68-7.519,38.586
		c-2.63,14.897-4.514,29.912-5.708,44.971c-1.422,17.924-1.791,35.89-0.718,53.895c0.834,13.998,2.707,27.777,6.501,41.245
		c4.856,17.236,12.492,32.904,26.42,44.873c10.025,8.615,21.594,13.459,34.679,14.928c6.627,0.744,13.201,1.334,19.866,0.107
		c12.454-2.292,20.832-8.984,24.019-21.518c0.324-1.275,1.15-2.44,0.819-4.318c-3.924-2.694-8.118-5.624-12.365-8.474
		c-3.481-2.335-6.639-5.033-9.37-8.2c-1.189-1.378-2.304-2.863-3.201-4.443c-3.211-5.658-2.197-10.467,2.944-14.497
		c2.657-2.083,5.708-3.5,8.906-4.361c12.698-3.417,25.553-4.26,38.413-1.117c5.137,1.256,10.232,2.966,14.024,7.114
		c3.707,4.055,4.291,7.243,1.917,12.244c-2.507,5.281-6.748,9.043-11.374,12.352c-4.452,3.183-9.085,6.113-13.979,9.382
		c1.309,7.856,3.937,14.888,10.616,19.984c6.263,4.779,13.49,6.218,21.065,6.454c23.837,0.741,43.536-7.747,58.423-26.626
		c8.484-10.759,13.393-23.276,17.035-36.298c4.954-17.713,6.876-35.86,7.047-54.216c0.132-14.158,0.326-28.332-1.084-42.432
		c-1.256-12.554-2.635-25.097-4.487-37.596c-2.702-18.239-6.109-36.324-10.16-54.301c-0.277-1.231-0.691-2.572,0.119-4.066
		c19.2,0,38.484,0,58.121,0c1.923,4.02,2.413,8.673,3.266,13.139c3.083,16.145,5.556,32.382,7.423,48.732
		c2.784,24.379,3.777,48.816,2.648,73.284c-1.371,29.699-6.036,58.802-18.771,86.063c-9.125,19.532-21.816,36.108-40.29,47.784
		c-13.385,8.459-28.192,13.206-43.5,16.621c-10.693,2.385-21.43,4.716-32.352,5.59c-10.78,0.864-21.614,1.165-32.432,1.412
		c-9.493,0.216-18.999,0.191-28.492-0.035c-27.751-0.661-54.873-5.115-80.971-14.72c-20.313-7.476-36.179-20.769-48.214-38.698
		c-11.554-17.212-18.447-36.306-22.795-56.428c-3.731-17.268-5.371-34.756-6.257-52.392c-0.813-16.178,0.07-32.245,1.013-48.36
		c0.672-11.469,1.937-22.864,3.426-34.23c1.876-14.315,4.347-28.547,7.255-42.692c0.922-4.487,1.969-5.268,6.404-5.277
		c17.496-0.035,34.993-0.015,52.489-0.01C581.148,100.111,582.009,99.973,582.997,100.988z"/>
	<path style="fill:#AFA798;" d="M1924.496,384.935c-18.256,1.407-36.589,1.492-54.947-0.035c-1.01-1.913-0.55-3.774-0.551-5.541
		c-0.025-54.656-0.028-109.311,0.005-163.967c0.006-10.615-0.386-21.144-2.837-31.57c-3.093-13.152-11.24-21.413-23.674-25.833
		c-6.564-2.333-13.386-3.303-20.292-4.21c-5.992-0.787-11.926-0.804-17.883-0.699c-11.759,0.207-23.375,1.922-34.876,4.245
		c-13.752,2.778-27.221,6.632-40.372,11.557c-9.129,3.419-18.057,7.288-27.077,11.658c0,68.035,0,135.964,0,204.241
		c-5.26,0.064-10.063,1.27-15.039,1.184c-8.163-0.142-16.335-0.266-24.492-0.018c-5.672,0.172-11.184-1.061-17.127-0.962
		c0-94.977,0-189.691,0-284.724c18.675,0,37.269,0,56.521,0c0,8.432,0,16.987,0,25.736c4.566-0.286,7.855-2.337,11.313-3.721
		c19.359-7.752,39.389-13.092,59.762-17.386c10.191-2.148,20.471-3.801,30.786-4.612c8.714-0.685,17.574-0.965,26.367,0.474
		c4.22,0.69,8.555,0.564,12.849,1.13c16.425,2.165,32.155,6.615,46.221,15.354c16.647,10.343,26.874,25.759,31.783,44.642
		c2.881,11.085,4.142,22.389,4.13,33.875c-0.065,61.488-0.02,122.975-0.035,184.463
		C1925.031,381.671,1925.365,383.189,1924.496,384.935z"/>
	<path style="fill:#72685A;" d="M281.235,99.061c18.917,0,37.517,0,56.523,0c0,16.317,0,32.423,0,49.711
		c12.061-10.712,23.633-20.271,37.157-27.26c13.33-6.889,27.084-12.613,41.399-16.958c14.424-4.378,29.116-7.534,44.509-8.32
		c0,20.609,0,40.863,0,61.394c-4.653,0.605-9.289,0.7-13.87,1.04c-15.13,1.124-29.907,4.095-44.599,7.673
		c-10.652,2.594-21.2,5.485-31.11,10.312c-7.801,3.8-15.156,8.244-21.647,14.095c-8.137,7.334-11.992,16.095-11.929,27.299
		c0.301,53.658,0.173,107.318,0.197,160.978c0.001,1.818,0,3.636,0,5.342c-2.057,1.649-4.283,1.46-6.384,1.46
		c-14.662,0.001-29.325-0.051-43.987-0.153c-1.978-0.014-3.953-0.406-6.259-0.659C281.235,289.761,281.235,194.673,281.235,99.061z"
		/>
	<path style="fill:#AFA698;" d="M2006.3,100.145c18.556,0,36.819,0,55.453,0c0,94.8,0,189.488,0,284.752
		c-18.307,1.741-36.71,0.395-55.453,0.3C2006.3,290.063,2006.3,195.382,2006.3,100.145z"/>
	<path style="fill:#73695B;" d="M754.05,232.398c3.689,1.715,6.975,3.236,9.836,5.597c7.253,5.985,8.843,18.564,1.742,25.832
		c-3.572,3.656-7.682,6.185-12.725,7.343c-6.319,1.451-12.56,1.052-18.723-0.516c-4.704-1.197-6.732-4.006-7.193-8.997
		c-1.05-11.359,2.812-21.258,9.319-30.24c11.75-16.218,33.776-17.484,48.349-6.917c3.4,2.466,6.227,5.49,7.675,9.586
		c0.512,1.449,0.773,2.892,0.355,4.387c-0.786,2.809-2.843,4.071-5.728,3.201c-1.72-0.519-3.359-1.424-4.906-2.366
		c-1.554-0.946-3.034-2.057-4.399-3.262c-6.639-5.864-14.395-6.112-22.517-4.585C754.86,231.51,754.644,231.87,754.05,232.398z"/>
	<path style="fill:#73695B;" d="M617.308,232.304c-8.628-2.427-16.445-1.934-23.206,4.001c-2.24,1.967-4.714,3.657-7.521,4.824
		c-2.115,0.879-4.112,1.3-6.261-0.378c-1.942-4.84-0.132-8.909,3.178-12.532c5.515-6.036,12.559-9.195,20.543-10.175
		c14.708-1.804,25.879,4.008,33.77,16.335c5.506,8.603,8.501,17.882,7.289,28.277c-0.405,3.478-1.765,6.21-5.147,7.229
		c-10.387,3.131-20.655,3.793-30.029-3.01c-11.33-8.221-10.748-23.263,1.111-30.828
		C613.087,234.739,615.215,233.549,617.308,232.304z"/>
	<path style="fill:#B1A99B;" d="M2841.33,105.11c-1.989,1.111-3.177,0.826-4.307,0.809c-3.584-0.054-4.12-0.62-5.059-4.066
		c-0.904-3.318-1.035-6.833-2.696-10.28c-3.7-1.114-7.647-0.353-11.746-0.468c-1.763,4.742,0.965,10.029-1.93,14.654
		c-2.298,0-4.577,0-7.228,0c0-12.463,0-24.822,0-37.376c7.854-1.899,15.673-1.87,23.54-0.412c5.808,1.076,9.503,6.134,7.679,11.625
		c-2.024,6.092-2.035,11.897,0.044,17.896C2840.483,99.958,2839.767,102.749,2841.33,105.11z M2817.684,74.087
		c-1.339,3.222-0.676,6.393-0.532,9.947c3.452,0,6.564,0.118,9.664-0.035c2.817-0.139,4.087-1.546,4.273-4.382
		c0.075-1.141,0.137-2.321-0.755-3.822C2826.782,72.848,2822.194,74.361,2817.684,74.087z"/>
</g>
</svg>
