<?xml version="1.0" encoding="iso-8859-1"?>
<!-- Generator: Adobe Illustrator 27.0.0, SVG Export Plug-In . SVG Version: 6.00 Build 0)  -->
<svg version="1.1" id="Layer_1" xmlns="http://www.w3.org/2000/svg" xmlns:xlink="http://www.w3.org/1999/xlink" x="0px" y="0px"
	 viewBox="0 0 1598 350" style="enable-background:new 0 0 1598 350;" xml:space="preserve">
<g>
	<path style="fill:#53B3DC;" d="M8.931,121.987c-0.092-4.305,2.116-7.98,3.587-11.762C18,96.133,25.456,83.062,34.209,70.745
		c1.431-2.014,3.282-3.729,5.13-5.796c6.48,1.071,12.989,1.966,19.421,3.247c12.585,2.505,25.127,5.232,37.693,7.836
		c0.705,0.146,1.247,0.342,1.523,1.032c-1.151,2.422-3.876,3.519-5.012,5.953c-0.971-0.391-1.784-1.237-2.963-1.028
		c-0.274-0.692-0.833-0.853-1.521-1.034c-12.484-3.294-24.94-6.692-37.442-9.914c-2.866-0.739-5.696-2.155-8.987-1.617
		c2.042,7.885,3.96,15.485,5.985,23.057c2.28,8.521,4.658,17.016,6.993,25.523c-0.01,0.332-0.02,0.663-0.031,0.995
		c-1.76,1.927-3.456,3.918-5.292,5.769c-6.892,6.95-13.871,13.814-20.734,20.793c-3.36,3.416-7.071,6.5-9.963,10.368
		c-0.57,0.137-0.913,0.497-1.046,1.065c-5.539,4.01-9.181,10.157-15.313,13.548C1.784,170.045,1.378,168.672,0,169
		c0-1.333,0-2.667,0-4c0.951-0.333,1.02-1.122,0.997-1.95c-0.1-3.716,0.157-7.396,1.101-11.007c2.876-0.268,5.43,1.212,8.164,1.523
		c2.486,0.283,4.813,2.44,7.533,0.898c-1.551-6.645-2.656-13.275-4.838-19.611C11.49,130.597,11.217,125.976,8.931,121.987z"/>
	<path style="fill:#7AC3E0;" d="M0,169c1.378-0.328,1.784,1.045,2.649,1.542c6.132-3.391,9.775-9.539,15.313-13.548
		c0.334,0.338,0.884,0.628,0.969,1.02c2.736,12.623,6.301,25.026,9.703,37.476c1.023,3.745,2.552,7.478,2.356,11.509
		c-0.325,0-0.65,0.002-0.976,0.006c-0.277-0.938-1.169-1.086-1.888-1.388c-8.094-3.397-16.625-5.134-25.227-6.596
		c-1.446-0.934-0.89-2.426-0.854-3.648c0.117-4.004-1.32-7.819-1.31-11.802c0-0.19-0.48-0.381-0.737-0.572
		C0,178.333,0,173.667,0,169z"/>
	<path style="fill:#58B6B1;" d="M159.042,1.01C159.028,0.673,159.014,0.337,159,0c6.667,0,13.333,0,20,0
		c-0.013,0.295,0.008,0.588,0.062,0.879c-2.348,0.045-4.696,0.089-7.045,0.134c-2.371,0.091-4.847-0.545-7.006,1.013
		C163.315-0.036,161.015,1.447,159.042,1.01z"/>
	<path style="fill:#A2D3E8;" d="M1596.942,92.098c0.353-0.032,0.705-0.065,1.058-0.098c0,7,0,14,0,21
		c-0.389-0.064-0.779-0.129-1.168-0.193C1596.869,105.904,1596.905,99.001,1596.942,92.098z"/>
	<path style="fill:#4990BB;" d="M1171,350c0.16-0.315,0.144-0.621-0.047-0.918c4.333-0.022,8.666-0.044,12.999-0.066
		c0.016,0.328,0.033,0.656,0.049,0.984C1179.667,350,1175.333,350,1171,350z"/>
	<path style="fill:#4990BB;" d="M1438.024,349.064c-0.222,0.307-0.23,0.619-0.024,0.936c-4.333,0-8.667,0-13,0
		c0.16-0.315,0.144-0.621-0.047-0.919C1429.31,349.076,1433.667,349.07,1438.024,349.064z"/>
	<path style="fill:#4990BB;" d="M1529.951,349.016c0.016,0.328,0.032,0.656,0.049,0.984c-4,0-8,0-12,0
		c0.001-0.318,0.001-0.636,0.002-0.954C1521.985,349.036,1525.968,349.026,1529.951,349.016z"/>
	<path style="fill:#A2D3E8;" d="M179.062,0.879C179.008,0.588,178.987,0.295,179,0c3,0,6,0,9,0
		c-0.036,0.284-0.039,0.568-0.011,0.853C185.013,0.861,182.038,0.87,179.062,0.879z"/>
	<path style="fill:#2A5E9A;" d="M688.955,197.082c13.842,20.888,29.247,40.68,43.111,61.186c-0.647,1.797-1.792,1.401-2.711,1.403
		c-10.332,0.023-20.665-0.058-30.995,0.056c-3.337,0.037-5.51-1.208-7.428-3.976c-11.556-16.685-23.272-33.26-34.943-49.866
		c-0.668-0.951-1.403-1.854-2.249-2.965c-10.678,0-21.436,0-32.591,0c0,18.632,0,37.069,0,55.815
		c-11.066,1.128-21.749,0.488-32.792,0.261c0-55.736,0-111.12,0-166.508c1.044-0.828,2.248-0.473,3.364-0.474
		c24.663-0.022,49.327-0.056,73.99,0c12.52,0.028,24.468,2.71,35.298,9.096c14.059,8.291,21.972,20.671,24.198,36.957
		c1.295,9.478,0.456,18.583-2.748,27.455c-5.171,14.319-15.387,23.777-29.298,29.507
		C691.828,195.579,690.291,195.74,688.955,197.082z M621.547,123.049c-0.932,6.073-0.688,46.161,0.356,49.884
		c14.063,0,28.197,0.051,42.331-0.048c2.465-0.017,4.989-0.423,7.379-1.054c16.989-4.487,23.621-16.826,19.173-33.357
		c-0.739-2.747-2.151-5.229-4.258-7.214c-5.262-4.958-11.485-7.961-18.721-8.285c-14.968-0.67-29.95-0.188-44.927-0.256
		C622.422,122.717,621.964,122.941,621.547,123.049z"/>
	<path style="fill:#2A5E9A;" d="M1249.13,91.997c1.656,0,2.965,0,4.274,0c23.828,0,47.656,0.015,71.484-0.007
		c10.597-0.009,20.83,1.835,30.594,5.988c14.885,6.33,24.609,17.316,28.738,32.942c3.99,15.102,2.385,29.721-5.386,43.365
		c-4.928,8.652-12.586,14.48-21.403,18.837c-2.502,1.237-5.097,2.286-7.5,3.356c-0.345,1.849,0.848,2.727,1.59,3.77
		c12.15,17.079,24.305,34.153,36.508,51.194c1.738,2.427,3.225,4.956,4.984,8.244c-3.052,0-5.479,0-7.906,0
		c-8.165,0-16.331-0.105-24.494,0.042c-4.371,0.079-7.317-1.471-9.899-5.208c-11.539-16.695-23.39-33.173-35.133-49.726
		c-0.472-0.666-0.996-1.295-1.357-1.761c-10.866,0-21.464,0-32.569,0c0,18.754,0,37.17,0,55.56
		c-11.065,2.406-21.644-0.123-32.525,0.584C1249.13,203.396,1249.13,147.998,1249.13,91.997z M1281.982,172.208
		c1.371,1.028,2.749,0.634,4.035,0.638c9.646,0.036,19.293-0.073,28.938,0.06c4.996,0.069,9.952-0.002,14.878-0.901
		c9.526-1.737,21.328-7.43,22.832-22.058c0.866-8.43-2.95-19.162-11.918-23.295c-4.897-2.257-9.832-3.954-15.256-3.949
		c-14.136,0.014-28.272,0.043-42.408,0.087c-0.281,0.001-0.56,0.268-1.1,0.542C1281.982,139.577,1281.982,155.953,1281.982,172.208z
		"/>
	<path style="fill:#2A5E9A;" d="M1542.435,92.339c0,9.87,0,19.475,0,29.579c-30.747,0-61.302,0-92.106,0c0,12.766,0,25.036,0,38.009
		c5.284,0.151,10.708,0.047,16.125,0.066c5.333,0.019,10.665,0.004,15.998,0.004c5.499,0,10.998,0,16.497,0
		c5.333,0,10.665,0,15.998,0c5.475,0,10.95,0,16.727,0c0,10.014,0,19.751,0,29.96c-26.914,0-53.819,0-80.573,0
		c-1.259,3.993-1.616,28.457-0.64,39.334c7.655,0.048,15.402,0.017,23.147,0.022c7.832,0.005,15.664,0.001,23.496,0.001
		c7.666,0,15.331,0,22.996,0c7.778,0,15.557,0,23.546,0c0,10.149,0,19.589,0,29.03c-0.934,1.052-2.179,0.652-3.288,0.69
		c-39.643,1.342-79.298,0.348-118.947,0.64c-1.3,0.01-2.689,0.315-4.119-0.937c0-55.183,0-110.62,0-166.398
		C1458.824,92.339,1500.394,92.339,1542.435,92.339z"/>
	<path style="fill:#2A5E9A;" d="M1125.38,122.078c0,12.84,0,25.083,0,37.83c27.088,0,54.133,0,81.399,0c0,10.242,0,19.98,0,30.183
		c-27.08,0-53.979,0-81.373,0c-0.602,13.172-0.159,25.896-0.333,39.069c31.327,0,62.224,0,93.478,0c0,10.142,0,19.839,0,29.52
		c-7.76,1.141-109.856,1.755-124.938,0.764c-1.622-1.72-1.398-3.927-1.399-6.056c-0.014-25.627-0.04-51.255-0.008-76.882
		c0.021-16.988-0.024-33.978,0.26-50.962c0.159-9.488-0.295-18.959-0.202-28.439c0.015-1.466-0.481-3.014,1.314-5.027
		c40.747-0.161,82.141-0.045,123.855-0.087c0,10.013,0,19.748,0,30.086C1186.718,122.078,1156.188,122.078,1125.38,122.078z"/>
	<path style="fill:#2A5E9A;" d="M917.144,259.694c-11.454-0.122-22.541,0.246-33.937-0.239
		c-5.627-13.385-11.07-26.332-16.528-39.315c-24.834,0-49.456,0-74.326,0c-5.539,12.926-11.071,25.837-16.603,38.747
		c-11.285,0.578-22.221,1.101-33.194,0.704c0.317-4.122,67.764-160.138,72.784-168.466c9.565,0,19.207,0,28.825,0
		C848.336,97.806,916.51,254.759,917.144,259.694z M804.989,189.758c16.451,0,32.296,0,48.228,0
		c-1.689-6.61-21.141-51.386-24.299-55.85C820.934,152.54,813.046,170.951,804.989,189.758z"/>
	<path style="fill:#2A5E9A;" d="M1000.558,260.285c-9.847-0.935-19.299,1.253-29.125-0.293
		c-22.872-55.681-45.804-111.51-68.901-167.74c12.282,0,24.047,0,36.426,0c15.569,39.676,31.243,79.618,47.36,120.689
		c6.232-13.927,10.899-27.286,16.106-40.421c5.321-13.421,10.615-26.854,15.873-40.3c5.189-13.271,10.318-26.565,15.514-39.956
		c11.87,0,23.474,0,35.838,0C1046.556,148.427,1023.665,204.093,1000.558,260.285z"/>
	<path style="fill:#2A5E9A;" d="M509.996,258.796c-10.765,0.847-21.17,1.204-32.105,0.685c-0.307-45.457,0.238-90.681-0.688-136.373
		c-17.116,0-34.021,0-50.742,0c-1.385-3.732-1.708-21.284-0.702-30.819c45.339,0,90.71,0,136.282,0
		c1.052,10.04,0.531,19.955,0.677,30.38c-17.515,0.781-34.588-0.395-52.047,0.588C510.574,168.529,511.027,213.447,509.996,258.796z
		"/>
	<path style="fill:#4EA0C7;" d="M92.963,83.017c1.137-2.434,3.861-3.531,5.012-5.953c11.959,1.708,23.587,4.918,35.215,8.039
		c17.386,4.667,34.811,9.258,51.552,16.01c2.147,0.866,4.197,1.973,6.292,2.969c0.107,1.727,0.924,3.126,1.946,4.39
		c3.413,0.93,6.73,1.936,10.26,1.525c5.664,2.314,10.214,5.948,13.329,11.273c1.116,1.908,1.387,3.733,0.904,6.1
		c-1.44,7.047-5.924,11.861-11.336,15.726c-6.73,4.805-14.128,8.546-22.139,10.894c-8.812-4.154-18.314-5.664-27.932-7.805
		c1.562,6.209,3.86,11.663,3.96,17.611c-7.162,3.432-14.348,6.817-21.477,10.316c-4.163,2.043-8.299,4.165-12.076,6.888
		c-0.988,0.712-2.002,1.152-3.211,1.149c-1.411-0.379-2.822-0.757-4.233-1.136c-0.311-0.929-0.848-1.73-1.107-2.726
		c-3.583-13.75-7.281-27.469-10.917-41.205c-3.177-12.002-6.326-24.011-9.457-36.025C95.983,95.052,94.489,89.03,92.963,83.017z
		 M142.496,97.497c-12.43,11.047-24.196,21.633-34.302,34.435c15.212,4.065,30.167,8.434,46.079,12.024
		C150.982,128.12,146.65,113.269,142.496,97.497z"/>
	<path style="fill:#5CB59E;" d="M179.062,0.879c2.976-0.009,5.951-0.017,8.927-0.026c8.222,0.457,16.274,2.092,24.35,3.546
		c0.249,0.045,0.432,0.452,0.646,0.691c0.446,5.163,1.885,10.05,3.867,15.42c4.076-4.029,7.933-7.37,11.115-11.398
		c8.443,1.978,16.215,5.717,23.884,9.56c10.244,5.133,20.059,11.034,28.999,18.283c12.71,10.306,24.234,21.741,33.785,35.095
		c4.542,6.351,8.809,12.857,12.339,19.832c0.757,1.496,1.485,2.975,1.473,4.701c-0.804,0.161-1.608,0.321-2.413,0.482
		c-7.715-2.028-15.431-4.052-23.144-6.087c-8.04-2.121-16.183-3.895-23.944-6.974c-0.009-0.66,0.12-1.357-0.046-1.975
		c-2.405-8.944-4.803-17.89-7.299-26.808c-1.794-6.411-3.732-12.782-5.606-19.171c-0.782-2.253-2.905-2.556-4.748-3.065
		c-11.012-3.045-22.02-6.112-33.095-8.908c-2.836-0.716-5.446-2.357-8.555-2.122c-1.471,0.111-2.687,0.177-2.626,2.067
		c-3.041,0.646-5.167,2.678-7.259,4.773c-8.439,8.449-16.867,16.909-25.345,25.318c-1.241,1.231-2.172,3.06-4.37,2.906
		c-0.335-0.008-0.67-0.016-1.005-0.024c-0.045-1.475-0.185-2.875-0.603-4.361c-3.58-12.727-6.915-25.523-10.487-38.252
		c-0.485-1.729-0.371-3.975-2.449-5.137c-12.248,11.325-23.038,24.007-36.154,34.9c-3.619-11.87-6.331-23.459-9.303-34.977
		c6.919-2.414,13.887-4.519,21.255-5.228c3.854-0.371,7.675-1.333,11.439-2.306c2.125-0.549,4.216-0.617,6.352-0.623
		c1.973,0.437,4.273-1.046,5.97,1.015c-0.084,1.973,0.253,3.751,2.051,4.93c2.582-1.389,3.384-3.984,4.955-5.943
		C174.366,0.968,176.714,0.923,179.062,0.879z"/>
	<path style="fill:#A2D3E8;" d="M30.991,206.999c0.196-4.031-1.333-7.764-2.356-11.509c-3.402-12.451-6.967-24.854-9.703-37.476
		c-0.085-0.392-0.636-0.682-0.969-1.02c0.132-0.567,0.476-0.927,1.046-1.065c0.498,0.028,1.018-0.026,1.492,0.096
		c15.498,3.978,30.991,7.973,46.486,11.965c1.468,0.506,2.084,1.587,2.083,3.085c4.758,15.742,8.093,31.898,13.211,47.71
		c2.502-1.544,3.514-3.892,5.797-4.718c-0.358,3.717-2.721,6.312-5.01,8.948c-0.994-0.103-0.941-1.285-1.688-1.643
		c-3.366,1.853-31.652,29.77-34.833,34.389c4.232,1.279,8.4,2.789,12.689,3.771c5.24,1.2,10.302,3.255,15.759,3.466
		c0.446,7.934,2.784,15.457,4.998,23.007c-3.309,1.869-6.056,4.408-8.652,7.147c-3.464,3.655-6.982,7.26-10.477,10.887
		c-2.887-0.581-4.255-2.939-5.865-5.013c-0.065-1.482,0.13-3.032-0.235-4.437c-3.225-12.426-6.548-24.826-9.879-37.37
		c-2.239,1.179-3.426,3.049-5.035,4.442c-3.108,2.691-5.416,6.248-9.048,8.373c-3.412-2.382-4.749-6.263-6.788-9.601
		c-2.4-3.929-4.741-7.928-6.091-12.392c8.465,2.486,16.935,4.951,25.544,6.683c-0.648-3.364-1.059-6.44-1.846-9.417
		c-3.073-11.626-6.243-23.226-9.446-34.817C31.85,209.319,32.691,207.707,30.991,206.999z"/>
	<path style="fill:#6CB993;" d="M345.823,196.004c-0.953,6.062-0.737,12.375-3.847,17.975c-7.949,5.403-13.97,12.878-20.87,19.409
		c-0.769,0.728-1.19,1.551-1.102,2.615c-3.223,1.749-5.819,4.247-8.376,6.829c-7.459,7.532-14.951,15.031-22.492,22.481
		c-1.985,1.961-3.664,4.272-6.159,5.687c-0.324-0.007-0.648-0.009-0.972-0.005l-0.001-0.001c0.036-1.657-0.328-3.186-0.809-4.809
		c-2.227-7.504-4.098-15.114-6.229-22.648c-1.935-6.841-3.295-13.848-5.874-20.504c-0.029-0.362-0.059-0.724-0.088-1.086
		c-0.076-1.153,0.036-2.356-0.257-3.451c-2.742-10.248-5.808-20.418-8.239-30.738c-1.23-5.222-3.849-10.171-3.48-15.748
		c3.844,0.761,7.814,1.14,11.509,2.354c11.664,3.833,23.623,6.527,35.469,9.658c3.767,1.311,7.45,2.997,11.317,3.861
		C325.604,190.182,335.687,193.184,345.823,196.004z"/>
	<path style="fill:#58B6B1;" d="M257.027,172.012c-0.368,5.577,2.25,10.526,3.48,15.748c2.431,10.32,5.497,20.49,8.239,30.738
		c0.293,1.095,0.181,2.298,0.257,3.451c-16.021-4.874-32.18-9.211-48.709-12.852c-0.859,4.369,0.791,7.862,1.674,11.482
		c2.75,11.269,5.715,22.48,8.994,33.607c0.488,1.655,0.49,3.783,3.047,3.828c2.389,1.843,5.334,2.197,8.108,2.968
		c11.958,3.325,24.22,5.512,35.971,9.602c1.327,0.462,2.608,0.322,3.916,0.41l0.001,0.001c-0.644,3.033-2.671,5.156-4.75,7.255
		c-9.859,9.956-19.71,19.92-29.563,29.881c-2.4-0.022-4.473-1.151-6.509-2.165c-10.784-5.37-21.805-10.28-32.166-16.479
		c-1.563-0.935-3.214-1.717-4.327-3.238c0.9-0.721,1.875-1.368,2.688-2.176c7.433-7.384,14.841-14.792,22.244-22.206
		c0.568-0.568,1.295-1.079,1.233-2.06c-0.378-1.001-1.174-1.401-2.147-1.817c-5.764-2.46-11.966-3.308-17.948-4.946
		c-9.305-2.549-18.634-4.999-27.78-8.089c0.74-1.544,2.135-2.512,3.292-3.675c9.819-9.872,19.678-19.705,29.493-29.582
		c1.15-1.157,2.602-2.079,3.228-3.704c1.625-0.627,2.549-2.079,3.707-3.23c9.999-9.943,19.948-19.936,29.958-29.869
		C253.894,173.67,254.807,171.807,257.027,172.012z"/>
	<path style="fill:#3D818E;" d="M278.946,84.005c7.762,3.079,15.904,4.852,23.944,6.974c7.713,2.035,15.43,4.058,23.144,6.087
		c0.114,1.112,1.918,0.793,1.787,2.146c-0.359,1.147-1.367,1.81-2.172,2.616c-21.84,21.864-43.692,43.716-65.543,65.57
		c-0.587,0.587-1.132,1.233-1.785,1.736c-1.422,1.095-2.895,1.66-4.311-0.048c4.162-4.934,8.971-9.265,12.531-14.78
		c4.895-7.584,7.816-15.749,8.284-24.671c0.489-9.319-3.344-17.176-9.686-23.743c-7.602-7.871-17.028-13.13-26.789-17.825
		c-16.35-7.864-33.76-12.554-51.209-17.132c-2.065-0.542-4.25-0.764-6.084-2.019c0.309-3.41-1.308-6.561-1.331-9.926l0.219-0.05
		c0.829,0.033,1.694-0.078,2.481,0.121c9.339,2.358,18.666,4.765,27.997,7.153c6.163,1.577,12.177,3.719,18.456,4.855
		c0.171,0.557,0.562,0.842,1.127,0.911c13.002,3.186,25.975,6.502,39.027,9.468C272.374,82.206,275.292,84.564,278.946,84.005z"/>
	<path style="fill:#48968C;" d="M254.011,169.084c1.416,1.708,2.889,1.144,4.311,0.048c0.653-0.503,1.198-1.148,1.785-1.736
		c21.851-21.853,43.703-43.705,65.543-65.57c0.805-0.806,1.814-1.469,2.172-2.616c0.13-1.353-1.673-1.035-1.787-2.146
		c0.804-0.161,1.608-0.321,2.413-0.482c1.668,0.135,2.004,1.553,2.533,2.717c6.446,14.178,11.277,28.868,13.881,44.249
		c0.247,1.457,0.133,2.975,0.186,4.464c-0.684,0-1.367,0.001-2.051,0.001c-13.35-3.646-26.669-7.411-40.074-10.838
		c-2.689-0.687-5.573-2.392-8.921-0.384c0,1.071-0.269,2.438,0.041,3.657c3.609,14.197,7.306,28.372,10.979,42.553
		c-0.116,0.563-0.468,0.891-1.018,1.022c-11.846-3.131-23.805-5.825-35.469-9.658c-3.695-1.214-7.665-1.593-11.509-2.354
		c-2.22-0.205-3.132,1.658-4.368,2.885c-10.01,9.932-19.958,19.926-29.958,29.869c-1.158,1.152-2.082,2.603-3.707,3.23l-0.065-0.052
		c-1.205-3.642-1.943-7.369-2.054-11.211c2.641-3.308,6.536-4.911,9.907-7.212C236.168,183.118,245.041,176.039,254.011,169.084z"/>
	<path style="fill:#58B6B1;" d="M119.996,9.167c2.971,11.518,5.683,23.107,9.303,34.977c13.116-10.893,23.906-23.575,36.154-34.9
		c2.078,1.163,1.964,3.409,2.449,5.137c3.573,12.729,6.907,25.525,10.487,38.252c0.418,1.486,0.557,2.886,0.603,4.361
		c-1.482-0.075-3.028,0.096-4.437-0.264c-13.253-3.388-26.492-6.834-39.717-10.327c-16.853-4.452-33.69-8.961-50.532-13.454
		c-1.265-0.337-2.475-0.8-3.324-2.095c0-0.903,0-1.897,0-2.892l-0.016,0.023c0.572-0.029,0.906-0.35,1.071-0.877
		c9.228-6.326,19.23-11.144,29.649-15.131C114.414,10.934,117.224,10.098,119.996,9.167z"/>
	<path style="fill:#5FBAD1;" d="M80.982,27.964c0,0.994,0,1.989,0,2.892c0.849,1.295,2.059,1.757,3.324,2.095
		c16.842,4.493,33.679,9.002,50.532,13.454c13.226,3.494,26.464,6.939,39.717,10.327c1.41,0.36,2.955,0.189,4.437,0.264
		c0.335,0.008,0.67,0.016,1.005,0.024c-0.017,0.64-0.034,1.28-0.051,1.92l-0.219,0.05c-1.087-0.068-1.855,0.515-2.475,1.297
		c-1.792,2.259-3.554,4.543-5.328,6.816c-5.003-0.029-9.728-1.707-14.605-2.499c-9.58-1.556-19.111-3.394-28.741-4.673
		c-7.67-1.018-15.3-2.341-22.938-3.586c-3.258-0.531-6.556-0.75-9.823-1.164c-8.352-1.061-16.811-1.279-25.165-2.328
		c-5.817-0.731-11.741-0.902-17.94-2.468c1.421-2.471,3.353-4.054,5.163-5.618c6.26-5.409,12.511-10.85,19.491-15.342
		C78.445,28.731,79.523,27.815,80.982,27.964z"/>
	<path style="fill:#5CB59E;" d="M247.692,308.132c9.854-9.961,19.704-19.926,29.563-29.881c2.079-2.099,4.105-4.222,4.75-7.255
		c0.324-0.003,0.648-0.002,0.972,0.005c0.063,0.823,0.099,1.691,1.117,1.932c2.985,0.706,6.002,1.292,8.962,2.091
		c5.703,1.539,11.514,2.72,17,5c-0.3,2.754-2.646,4.188-4.213,5.978c-9.309,10.633-19.324,20.529-30.937,28.718
		c-3.135,2.211-6.047,2.911-9.688,1.279C259.375,313.38,253.067,311.803,247.692,308.132z"/>
	<path style="fill:#37639E;" d="M794.295,323.453c6.474,8.488,12.7,16.65,19.203,25.177c-3.081,0.647-5.519,0.326-8.15,0.339
		c-6.504-8.406-13.001-16.801-19.435-25.117c-5.963,0-11.612,0-17.842,0c0,8.232,0,16.459,0,24.864
		c-2.486,0.424-4.417,0.375-6.668,0.109c0-20.788,0-41.502,0-62.726c8.428,0,16.709,0.051,24.989-0.025
		c3.35-0.03,6.652,0.169,9.899,0.988c10.859,2.738,16.541,12.215,13.669,22.797c-1.25,4.606-4.231,7.876-8.285,10.153
		C799.369,321.307,796.874,322.265,794.295,323.453z M768.151,316.87c7.843,0.565,15.458,0.458,23.065,0.057
		c1.617-0.085,3.266-0.651,4.787-1.274c5.662-2.32,8.641-7.072,7.946-12.438c-0.659-5.084-5.148-9.452-10.858-10.134
		c-4.109-0.491-8.211-1.154-12.401-0.961c-4.089,0.189-8.193,0.041-12.538,0.041C768.151,300.536,768.151,308.601,768.151,316.87z"
		/>
	<path style="fill:#37639E;" d="M674.273,342.454c12.976,0,25.586,0,38.249,0c0.687,2.248,0.229,4.162,0.365,6.323
		c-15.32,0-30.239,0-45.476,0c0-20.735,0-41.44,0-62.413c15.016,0,29.91,0,45.089,0c0.314,1.894,0.378,3.646-0.18,5.885
		c-12.566,0-25.163,0-38.13,0c-0.442,7.391-0.383,14.319-0.071,21.626c11.452,0,22.704,0,33.854,0
		c1.579,2.315,0.635,4.378,0.945,6.773c-11.802,0-23.066,0-34.645,0C674.273,328.049,674.273,335.083,674.273,342.454z"/>
	<path style="fill:#37639E;" d="M1065.173,342.322c12.991,0,25.723,0,38.489,0c0.544,2.379,0.357,4.301,0.248,6.451
		c-15.306,0-30.348,0-45.603,0c0-20.827,0-41.403,0-62.328c14.945,0,29.833,0,44.841,0c1.214,1.569,0.254,3.39,0.538,4.865
		c-1.428,1.646-3.026,1.128-4.454,1.135c-9.155,0.043-18.311-0.001-27.466,0.039c-2.122,0.009-4.243,0.228-6.599,0.363
		c0,7.057,0,13.812,0,21.083c11.349,0,22.735,0,34.238,0c0.714,2.377,0.558,4.288,0.216,6.733c-11.45,0-22.838,0-34.448,0
		C1065.173,328.078,1065.173,334.97,1065.173,342.322z"/>
	<path style="fill:#53B3DC;" d="M88.077,214.066c-2.283,0.826-3.295,3.174-5.797,4.718c-5.119-15.812-8.453-31.968-13.211-47.71
		c2.085,0.459,3.716-1.304,6.153-0.593c13.701,3.999,27.518,7.597,41.299,11.32c0.973,0.263,1.978,0.447,2.506-0.789
		c1.411,0.379,2.822,0.757,4.233,1.136c-3.549,2.951-7.651,5.113-11.195,8.107C103.424,197.556,95.712,205.766,88.077,214.066z"/>
	<path style="fill:#37639E;" d="M565.293,286.506c2.216-0.681,4.029-0.301,6.562-0.386c0.121,9.187-0.008,18.26,0.079,27.647
		c12.107,0,23.983,0,36.266,0c0-9.162,0-18.085,0-27.184c2.432-0.745,4.513-0.559,6.936-0.207c0,20.653,0,41.221,0,61.792
		c-2.188,1.4-4.282,0.821-6.835,0.606c0-9.214,0-18.292,0-27.701c-12.227,0-23.984,0-36.163,0c0,9.004,0,18.098,0,27.169
		c-2.405,1.32-4.476,0.559-6.846,0.498C565.293,327.933,565.293,307.361,565.293,286.506z"/>
	<path style="fill:#4EA0C7;" d="M182.98,244.957c9.146,3.09,18.475,5.54,27.78,8.089c5.982,1.638,12.185,2.486,17.948,4.946
		c0.973,0.415,1.769,0.816,2.147,1.817c0.063,0.982-0.665,1.492-1.233,2.06c-7.403,7.413-14.811,14.822-22.244,22.206
		c-0.814,0.808-1.788,1.455-2.688,2.176c-6.145-3.244-11.914-7.008-16.731-12.088c0.569-9.535-4.057-17.863-5.742-27.47
		c-3.645,2.744-5.887,5.734-8.447,8.397c-1.6-3.601-0.618-7.371-0.723-11.07c3.085-0.421,5.9,1.673,9.015,0.968
		C182.369,244.995,182.674,244.986,182.98,244.957z"/>
	<path style="fill:#37639E;" d="M868.728,331.922c-2.816,5.883-5.453,11.393-8.11,16.945c-2.176,0-4.139,0-6.951,0
		c9.662-21.598,19.754-42.509,29.353-62.597c2.528-1.487,3.89-0.588,5.693-0.081c9.659,20.462,19.43,41.162,29.387,62.255
		c-2.629,0.937-4.855,0.5-7.243,0.46c-2.621-5.567-5.227-11.102-7.937-16.859C891.614,331.5,880.319,331.682,868.728,331.922z
		 M899.522,324.893c-4.517-9.589-8.842-18.77-13.593-28.856c-5.19,9.911-9.623,18.992-13.402,28.856
		C881.711,324.893,890.301,324.893,899.522,324.893z"/>
	<path style="fill:#37639E;" d="M1183.951,349.016c-4.333,0.022-8.666,0.044-12.999,0.066c-8.28-1.297-13.809-6.029-17.071-13.623
		c-1.594-3.711-2.533-7.604-2.568-11.608c-0.106-11.827-0.037-23.656-0.033-35.484c0-0.663-0.006-1.334,0.712-2.024
		c1.746-0.44,3.694-0.291,5.577-0.073c1.373,1.519,0.869,3.258,0.876,4.857c0.042,10.495,0.023,20.991,0.021,31.486
		c-0.001,3.178,0.275,6.308,1.454,9.302c2.781,7.062,7.975,10.876,15.528,11.305c2.971,0.169,5.968,0.248,8.882-0.813
		c7.668-2.792,11.122-8.682,11.774-16.367c0.958-11.301,0.233-22.642,0.445-33.963c0.034-1.806-0.389-3.67,0.539-5.54
		c1.653-0.833,3.456-0.348,5.126-0.325c1.055,0.819,0.815,1.884,0.799,2.844c-0.191,11.638,0.54,23.269,0.067,34.914
		c-0.288,7.096-2.224,13.382-7.08,18.658C1192.733,346.177,1188.805,348.467,1183.951,349.016z"/>
	<path style="fill:#37639E;" d="M1529.951,349.016c-3.983,0.01-7.966,0.02-11.949,0.03c-7.621-1.041-14.519-4.788-19.294-10.543
		c0.549-2.015,2.278-3.051,3.861-4.388c2.485,1.12,4.274,3.166,6.486,4.592c7.284,4.697,15.141,5.949,23.336,3.137
		c5.846-2.006,8.684-8.218,6.519-13.158c-1.304-2.975-3.901-4.501-6.718-5.599c-3.714-1.447-7.602-2.335-11.505-3.155
		c-4.072-0.855-8.062-2.033-11.683-4.149c-8.805-5.143-10.394-16.345-3.521-23.914c4.077-4.49,9.356-6.306,15.108-6.696
		c8.813-0.597,16.614,2.308,23.665,7.602c0.094,2.775-1.67,4.267-3.249,6.095c-3.943-2.876-7.869-5.298-12.477-6.371
		c-4.465-1.039-8.904-1.196-13.221,0.518c-2.321,0.921-4.434,2.191-5.773,4.51c-2.838,4.917-1.763,9.483,3.095,12.361
		c3.766,2.231,7.963,3.27,12.2,4.108c3.595,0.711,7.106,1.697,10.512,3.019c7.36,2.856,10.743,7.445,10.817,14.496
		c0.08,7.663-3.371,12.96-10.499,15.918C1533.84,348.185,1532.01,349.049,1529.951,349.016z"/>
	<path style="fill:#5CB59E;" d="M342.997,148.015c0.684,0,1.367,0,2.051-0.001c1.618,2.619,1.511,5.717,1.699,8.517
		c0.573,8.539,1.953,17.067,0.441,25.701c-0.792,4.521,0.313,9.292-1.365,13.772c-10.136-2.82-20.218-5.822-30.501-8.118
		c-3.867-0.864-7.55-2.55-11.317-3.861c0.55-0.131,0.902-0.459,1.018-1.022c0.729,0.331,1.458,0.663,2.378,1.081
		c10.239-10.238,20.439-20.405,30.59-30.619C339.727,151.717,341.773,150.237,342.997,148.015z"/>
	<path style="fill:#2A5E9A;" d="M970.057,326.237c0,7.664,0,14.933,0,22.365c-2.043,0.654-3.805,0.345-5.878,0.294
		c0-20.864,0-41.565,0-62.77c7.404,0,14.688,0.054,21.97-0.026c3.017-0.033,5.974,0.213,8.898,0.918
		c10.395,2.505,14.729,8.33,15.711,16.965c0.932,8.19-2.983,16.087-11.974,19.878c-3.394,1.431-6.987,1.931-10.658,2.315
		C982.325,326.783,976.548,325.878,970.057,326.237z M969.991,319.952c5.943,0,11.245,0.189,16.526-0.065
		c3.624-0.175,7.223-0.912,10.57-2.524c4.476-2.155,6.725-5.779,6.957-10.642c0.351-7.356-4.157-12.297-12.244-13.748
		c-7.079-1.27-14.14-1.017-21.46-0.08C969.75,301.714,970.094,310.479,969.991,319.952z"/>
	<path style="fill:#37639E;" d="M1438.024,349.064c-4.357,0.006-8.714,0.012-13.071,0.018c-9.226-1.431-15.836-6.727-20.351-14.548
		c-7.942-13.754-5.037-31.287,6.097-41.599c12.425-11.508,34.628-10.552,45.519,3.359c-0.987,1.572-1.66,3.495-4.067,3.899
		c-2.242-0.367-3.633-2.214-5.245-3.527c-8.272-6.744-21.796-6.004-28.534-1.2c-8.703,6.205-13.038,16.92-10.719,27.541
		c1.951,8.933,6.808,15.62,15.372,18.812c9.31,3.47,17.97,1.49,25.573-4.941c1.261-1.067,2.254-2.473,3.944-3.119
		c1.644,0.829,2.872,2.092,3.879,4.394C1451.917,344.304,1445.564,347.622,1438.024,349.064z"/>
	<path style="fill:#58B6B1;" d="M310.056,280.024c-5.486-2.28-11.297-3.461-17-5c-2.96-0.799-5.976-1.385-8.962-2.091
		c-1.017-0.241-1.053-1.108-1.117-1.932c2.494-1.415,4.174-3.726,6.159-5.687c7.54-7.45,15.033-14.949,22.492-22.481
		c2.557-2.582,5.153-5.08,8.376-6.829l-0.007-0.007c0.548,4.329,2.114,8.405,3.37,12.534c0.766,2.518,0.478,5.496,2.684,7.515
		C322.014,264.902,316.942,273.068,310.056,280.024z"/>
	<path style="fill:#89CAE5;" d="M30.991,206.999c1.7,0.708,0.859,2.32,1.183,3.49c3.204,11.591,6.373,23.191,9.446,34.817
		c0.787,2.977,1.198,6.053,1.846,9.417c-8.609-1.732-17.079-4.198-25.544-6.683c-3.599-5.327-5.325-11.475-7.606-17.379
		c-0.468-1.211-0.817-2.467-1.221-3.702c0.62-0.161,1.444-0.12,1.83-0.512c6.382-6.463,13.208-12.491,19.09-19.443
		C30.341,207.001,30.666,206.999,30.991,206.999z"/>
	<path style="fill:#37639E;" d="M491.183,292.254c-7.284,0-13.891,0-20.318,0c-0.906-2.042-0.556-3.693-0.454-5.323
		c3.543-1.082,36.228-1.471,48.338-0.571c1.169,1.761,0.752,3.653,0.347,6.008c-6.891,0-13.657,0-20.919,0
		c0,19.011,0,37.579,0,56.415c-2.406,0.322-4.335,0.335-6.839-0.026C491.144,330.086,491.413,311.38,491.183,292.254z"/>
	<path style="fill:#37639E;" d="M1296.767,286.467c0.091,0.701,0.222,1.33,0.243,1.963c0.038,1.152,0.011,2.306,0.011,3.909
		c-6.998,0-13.75,0-20.927,0c0,19.029,0,37.612,0,56.437c-2.352,0-4.281,0-6.816,0c0-18.582,0-37.146,0-56.225
		c-7.148,0-13.711,0-20.245,0c-1.101-2.167-0.711-3.95-0.605-6.084C1264.54,286.467,1280.562,286.467,1296.767,286.467z"/>
	<path style="fill:#5FBAD1;" d="M74.995,262.998c-5.457-0.211-10.519-2.266-15.759-3.466c-4.289-0.982-8.456-2.492-12.689-3.771
		c3.181-4.619,31.467-32.536,34.833-34.389c0.747,0.358,0.694,1.54,1.688,1.643c-0.117,0.809-0.014,1.74-0.385,2.408
		C76.173,237.148,74.744,249.898,74.995,262.998z"/>
	<path style="fill:#48968C;" d="M182.98,244.957c-0.305,0.029-0.611,0.039-0.918,0.03c-0.924-4.799-2.01-9.551-4.082-14.016
		c-0.098-1.852,1.24-3.115,2.226-4.271c7.16-8.392,14.944-16.124,24.534-21.8c4.753,0.906,9.248,3.012,14.188,3.044l0.065,0.052
		c-0.626,1.624-2.078,2.546-3.228,3.704c-9.815,9.877-19.674,19.71-29.493,29.582C185.115,242.445,183.719,243.413,182.98,244.957z"
		/>
	<path style="fill:#7AC3E0;" d="M60.864,304.039c3.495-3.627,7.013-7.231,10.477-10.887c2.596-2.739,5.344-5.278,8.652-7.147
		c4.934,11.456,12.577,21.159,20.054,30.969c-5.947-0.794-11.642-2.665-17.419-4.166c-4.854-1.261-9.566-3.152-14.72-2.787
		C64.655,309.093,62.89,306.412,60.864,304.039z"/>
	<path style="fill:#5FBAD1;" d="M67.908,310.022c5.154-0.365,9.866,1.526,14.72,2.787c5.776,1.501,11.471,3.371,17.419,4.166
		c5.285,3.459,9.55,8.18,14.633,11.877c4.945,3.597,10.052,6.964,15.488,9.798c1.32,0.689,2.685,1.312,3.617,3.019
		c-2.439,0.579-4.485-0.595-6.473-1.169c-18.699-5.39-36.356-13.067-52.196-24.536C72.603,314.145,69.677,312.765,67.908,310.022z"
		/>
	<path style="fill:#5FBAD1;" d="M30.801,270.034c3.632-2.125,5.94-5.682,9.048-8.373c1.609-1.393,2.796-3.263,5.035-4.442
		c3.331,12.544,6.654,24.944,9.879,37.37c0.365,1.405,0.17,2.954,0.235,4.437c-6.478-5.196-11.909-11.4-16.924-17.958
		C35.403,277.572,31.932,274.56,30.801,270.034z"/>
	<path style="fill:#53B3DC;" d="M30.015,207.005c-5.882,6.952-12.708,12.98-19.09,19.443c-0.386,0.391-1.21,0.351-1.83,0.512
		c-2.725-7.114-4.019-14.616-5.861-21.965c-0.476-1.899-0.242-3.977-0.333-5.973c8.602,1.462,17.133,3.199,25.227,6.596
		C28.846,205.919,29.738,206.067,30.015,207.005z"/>
	<path style="fill:#2A5E9A;" d="M1350.027,348.766c-2.216,0-3.975,0-5.946,0c0-20.823,0-41.411,0-62.171
		c1.937-0.75,3.821-0.54,5.946-0.154C1350.027,307.229,1350.027,327.815,1350.027,348.766z"/>
	<path style="fill:#37639E;" d="M1596.942,92.097c-0.037,6.903-0.074,13.806-0.111,20.709c-1.486-0.029-3.005,0.082-4.422-1.119
		c-0.438-3.016,0.276-6.3-0.717-9.661c-2.219,1.452-2.74,3.94-4.705,5.761c-1.509-1.857-3.016-3.711-4.865-5.987
		c-1.497,3.725,0.169,7.44-1.169,10.677c-1.375,0.579-2.63,0.677-4.236-0.294c-0.483-6.497-1.081-13.19,0.381-19.863
		c1.72-0.503,3.16-0.475,4.847,0.114c1.448,2.168,3.001,4.493,4.725,7.074c2.682-1.897,3.317-5.077,5.546-7.192
		C1593.653,91.662,1595.307,92.015,1596.942,92.097z"/>
	<path style="fill:#89CAE5;" d="M8.931,121.987c2.286,3.989,2.559,8.611,4.025,12.867c2.183,6.335,3.287,12.965,4.838,19.611
		c-2.72,1.542-5.046-0.615-7.533-0.898c-2.734-0.311-5.288-1.791-8.164-1.523C3.298,141.779,5.023,131.635,8.931,121.987z"/>
	<path style="fill:#4990BB;" d="M160.025,163.796c-0.1-5.947-2.398-11.401-3.96-17.611c9.618,2.141,19.12,3.651,27.932,7.805
		c-5.049,3.102-10.778,4.635-16.189,6.888C165.27,161.936,162.916,163.636,160.025,163.796z"/>
	<path style="fill:#58B6B1;" d="M320.003,236.003c-0.088-1.064,0.333-1.887,1.102-2.615c6.9-6.531,12.922-14.006,20.87-19.409
		c-0.096,6.197-2.508,11.842-4.499,17.529c-0.999,2.853-1.532,6.009-3.581,8.456c-4.582-1.503-8.91-3.892-13.899-3.968
		L320.003,236.003z"/>
	<path style="fill:#4990BB;" d="M173.77,255.088c2.559-2.662,4.802-5.652,8.447-8.397c1.685,9.608,6.311,17.935,5.742,27.47
		c-4.774-3.66-8.848-7.979-11.967-13.126C174.897,259.228,173.582,257.414,173.77,255.088z"/>
	<path style="fill:#6CB993;" d="M319.997,235.997c4.989,0.075,9.317,2.465,13.899,3.968c-1.978,5.672-3.949,11.346-7.845,16.081
		c-2.206-2.019-1.918-4.998-2.684-7.515C322.111,244.402,320.545,240.326,319.997,235.997z"/>
	<path style="fill:#37639E;" d="M1572.733,92.274c0.561,1.28,0.626,2.354-0.026,3.472c-1.613,1.007-3.585-0.134-5.649,1.005
		c0,5,0,10.233,0,15.221c-1.741,1.301-3.116,1.048-4.927,0.382c0-5.169,0-10.412,0-15.381c-1.995-1.456-3.983-0.261-5.644-1.144
		c-0.816-1.017-0.504-2.14-0.259-3.553C1561.588,92.274,1566.987,92.274,1572.733,92.274z"/>
	<path style="fill:#51A48B;" d="M227.967,9.112c-3.182,4.028-7.039,7.369-11.115,11.398c-1.982-5.37-3.421-10.257-3.867-15.42
		C218.096,5.994,223.246,6.753,227.967,9.112z"/>
	<path style="fill:#3D818E;" d="M218.928,207.944c-4.94-0.032-9.435-2.138-14.188-3.044c3.814-3.065,7.567-6.221,12.134-8.167
		C216.985,200.575,217.723,204.302,218.928,207.944z"/>
	<path style="fill:#7AC3E0;" d="M177.98,230.97c2.072,4.465,3.158,9.217,4.082,14.016c-3.115,0.705-5.93-1.389-9.015-0.968
		C173.721,239.302,174.985,234.809,177.98,230.97z"/>
	<path style="fill:#4EA0C7;" d="M171.924,67.103c1.774-2.274,3.536-4.557,5.328-6.816c0.62-0.782,1.389-1.365,2.475-1.297
		c0.022,3.365,1.64,6.517,1.331,9.926C177.809,69.341,174.816,68.475,171.924,67.103z"/>
	<path style="fill:#3D818E;" d="M203.24,109.998c-3.53,0.411-6.847-0.595-10.26-1.525c-1.022-1.265-1.839-2.663-1.946-4.39
		C195.476,105.285,199.483,107.384,203.24,109.998z"/>
	<path style="fill:#5FBAD1;" d="M82.037,27.11c-0.165,0.527-0.499,0.847-1.071,0.877C81.044,27.353,81.426,27.092,82.037,27.11z"/>
	<path style="fill:#89CAE5;" d="M119.027,181.012c-0.528,1.236-1.533,1.052-2.506,0.789c-13.781-3.723-27.599-7.321-41.299-11.32
		c-2.436-0.711-4.068,1.052-6.153,0.593c0.001-1.498-0.615-2.579-2.083-3.085c-0.119-1.787-0.066-3.518-0.572-5.348
		c-3.079-11.125-5.837-22.338-8.863-33.478c-0.917-3.375-0.61-7.056-2.554-10.164c0.011-0.332,0.021-0.663,0.031-0.995
		c0.29-0.149,0.641-0.238,0.861-0.457c10.891-10.855,21.767-21.723,32.656-32.58c0.841-0.838,1.615-1.669,1.455-2.978
		c1.179-0.209,1.992,0.637,2.963,1.028c1.526,6.013,3.02,12.035,4.584,18.038c3.13,12.014,6.28,24.023,9.457,36.025
		c3.636,13.736,7.333,27.456,10.917,41.205C118.18,179.282,118.716,180.083,119.027,181.012z"/>
	<path style="fill:#7AC3E0;" d="M90,81.989c0.16,1.309-0.615,2.14-1.455,2.978c-10.889,10.856-21.766,21.725-32.656,32.58
		c-0.22,0.219-0.571,0.308-0.861,0.457c-2.335-8.506-4.713-17.002-6.993-25.523c-2.026-7.572-3.943-15.173-5.985-23.057
		c3.291-0.538,6.121,0.879,8.987,1.617c12.502,3.222,24.959,6.62,37.442,9.914C89.167,81.137,89.726,81.297,90,81.989z"/>
	<path style="fill:#5FBAD1;" d="M54.997,118.999c1.944,3.109,1.637,6.789,2.554,10.164c3.026,11.14,5.784,22.353,8.863,33.478
		c0.506,1.83,0.453,3.561,0.572,5.348c-15.494-3.992-30.988-7.987-46.486-11.965c-0.474-0.122-0.994-0.068-1.492-0.096
		c2.891-3.867,6.603-6.951,9.963-10.368c6.863-6.979,13.842-13.843,20.734-20.793C51.541,122.916,53.237,120.926,54.997,118.999z"/>
	<path style="fill:#48968C;" d="M172.018,1.012c-1.57,1.959-2.373,4.554-4.955,5.943c-1.798-1.178-2.135-2.957-2.051-4.93
		C167.171,0.467,169.647,1.104,172.018,1.012z"/>
	<path style="fill:#4990BB;" d="M142.496,97.497c4.154,15.772,8.486,30.623,11.777,46.459c-15.912-3.59-30.867-7.959-46.079-12.024
		C118.3,119.13,130.066,108.544,142.496,97.497z"/>
	<path style="fill:#58B6B1;" d="M230.008,71.98c-0.565-0.069-0.956-0.354-1.127-0.911c-2.964-11.388-6.069-22.742-8.82-34.181
		c-1.03-4.285-3.15-8.321-3.09-12.864c-0.061-1.891,1.155-1.956,2.626-2.067c3.109-0.236,5.718,1.406,8.555,2.122
		c11.076,2.796,22.084,5.864,33.095,8.908c1.843,0.509,3.966,0.812,4.748,3.065c-1.65,0.574-2.548,2.045-3.697,3.186
		c-9.132,9.075-18.243,18.173-27.309,27.314C233.263,68.291,231.216,69.757,230.008,71.98z"/>
	<path style="fill:#48968C;" d="M230.008,71.98c1.208-2.222,3.255-3.688,4.981-5.428c9.066-9.141,18.177-18.239,27.309-27.314
		c1.149-1.142,2.047-2.612,3.697-3.186c1.874,6.389,3.812,12.76,5.606,19.171c2.496,8.918,4.894,17.864,7.299,26.808
		c0.166,0.618,0.038,1.315,0.046,1.975c-3.654,0.56-6.572-1.798-9.911-2.557C255.983,78.481,243.01,75.165,230.008,71.98z"/>
	<path style="fill:#51A48B;" d="M216.971,24.023c-0.059,4.543,2.06,8.579,3.09,12.864c2.751,11.439,5.855,22.793,8.82,34.181
		c-6.279-1.136-12.293-3.278-18.456-4.855c-9.332-2.388-18.658-4.795-27.997-7.153c-0.787-0.199-1.652-0.088-2.481-0.121
		c0.017-0.64,0.034-1.28,0.051-1.92c2.197,0.154,3.129-1.675,4.37-2.906c8.478-8.409,16.906-16.869,25.345-25.318
		C211.804,26.701,213.93,24.668,216.971,24.023z"/>
	<path style="fill:#5FBAD1;" d="M234.01,258.014c-2.557-0.045-2.559-2.173-3.047-3.828c-3.279-11.127-6.243-22.338-8.994-33.607
		c-0.884-3.621-2.533-7.113-1.674-11.482c16.53,3.641,32.688,7.977,48.709,12.852c0.029,0.362,0.058,0.724,0.088,1.086
		c-1.699,0.511-2.578,2.018-3.728,3.16c-8.464,8.406-16.904,16.837-25.298,25.313C237.983,253.611,235.595,255.444,234.01,258.014z"
		/>
	<path style="fill:#5CB59E;" d="M234.01,258.014c1.586-2.57,3.973-4.403,6.056-6.507c8.394-8.476,16.834-16.906,25.298-25.313
		c1.15-1.142,2.029-2.649,3.728-3.16c2.579,6.656,3.939,13.663,5.874,20.504c2.131,7.534,4.002,15.143,6.229,22.648
		c0.481,1.622,0.845,3.152,0.809,4.809c-1.308-0.088-2.589,0.052-3.916-0.41c-11.75-4.09-24.013-6.277-35.971-9.602
		C239.344,260.212,236.398,259.857,234.01,258.014z"/>
	<path style="fill:#51A48B;" d="M342.997,148.015c-1.224,2.223-3.27,3.703-5.006,5.449c-10.152,10.215-20.351,20.381-30.59,30.619
		c-0.92-0.418-1.649-0.75-2.378-1.081c-3.673-14.181-7.37-28.356-10.979-42.553c-0.31-1.219-0.041-2.586-0.041-3.657
		c3.348-2.007,6.232-0.303,8.921,0.384C316.328,140.604,329.647,144.369,342.997,148.015z"/>
</g>
</svg>
