<?xml version="1.0" encoding="iso-8859-1"?>
<!-- Generator: Adobe Illustrator 27.0.0, SVG Export Plug-In . SVG Version: 6.00 Build 0)  -->
<svg version="1.1" id="Layer_1" xmlns="http://www.w3.org/2000/svg" xmlns:xlink="http://www.w3.org/1999/xlink" x="0px" y="0px"
	 viewBox="0 0 1543 659" style="enable-background:new 0 0 1543 659;" xml:space="preserve">
<g>
	<path style="fill:#33373A;" d="M0,225c25.157,0.031,50.313,0.07,75.47,0.091c16.994,0.014,33.988-0.009,50.982,0.021
		c1.63,0.003,3.304-0.332,5.177,0.411c0,8.186,0,16.438,0,25.246c-16.994,0-34.038,0-51.535,0c0,54.268,0,107.985,0,161.918
		c-9.564,0-18.67,0-27.766,0c-0.128-0.112-0.263-0.2-0.357-0.319c-0.102-0.129-0.198-0.278-0.243-0.434
		c-0.093-0.318-0.213-0.646-0.213-0.97C51.504,357.82,51.504,304.676,51.504,251c-17.289,0-34.397,0-51.504,0
		C0,242.333,0,233.667,0,225z"/>
	<path style="fill:#33373A;" d="M1543,251c-17.111,0-34.222,0-51.786,0c0,54.019,0,107.718,0,161.66c-9.538,0-18.625,0-28.454,0
		c-0.003-26.893-0.002-53.781-0.001-80.669c0.001-26.789,0-53.579,0-80.954c-17.264,0-34.286,0-51.518,0c0-8.84,0-17.095,0-25.454
		c1.746-0.948,3.606-0.46,5.368-0.462c40.468-0.035,80.936-0.026,121.403-0.031c1.663,0,3.325-0.059,4.988-0.09
		C1543,233.667,1543,242.333,1543,251z"/>
	<path style="fill:#34383A;" d="M1082,0c0.243,1.115,1.139,0.978,1.938,0.994c8.229,0.16,17.7,7.056,18.914,18.539
		c1.054,9.972-5.304,19.351-15.11,21.757c-10.185,2.499-18.776-0.254-24.493-8.682c-4.888-7.207-4.391-16.839,1.28-24.13
		c3.306-4.25,7.752-6.62,13.038-7.471c0.89-0.143,2.064,0.397,2.433-1.006C1080.667,0,1081.333,0,1082,0z"/>
	<path style="fill:#716F71;" d="M438.087,658.062c-0.225,0.294-0.254,0.607-0.087,0.938c-3.667,0-7.333,0-11,0
		c0.167-0.331,0.138-0.643-0.087-0.938C430.638,658.062,434.363,658.062,438.087,658.062z"/>
	<path style="fill:#34383A;" d="M517.47,412.699c-8.558,0-16.675,0-25.043,0c-12.526-43.244-25.016-86.364-37.506-129.485
		c-0.247-0.024-0.494-0.049-0.742-0.073c-12.527,43.141-25.054,86.283-37.619,129.557c-8.338,0-16.453,0-25.077,0
		c-16.204-62.299-32.424-124.66-48.735-187.367c10.117,0,19.735,0,30.139,0c10.871,43.849,21.301,88.152,32.481,133.429
		c12.779-45.238,25.24-89.348,37.714-133.504c7.859,0,15.317,0,23.144,0c12.345,44.094,24.679,88.143,37.012,132.193
		c0.228,0.046,0.456,0.092,0.684,0.137c10.781-43.95,21.563-87.901,32.42-132.16c9.766,0,19.519,0,29.413,0
		c0.008,0.004,0.204,0.05,0.284,0.172c0.081,0.124,0.069,0.324,0.059,0.488c-0.03,0.496-0.005,1.01-0.129,1.484
		C549.84,289.165,533.7,350.758,517.47,412.699z"/>
	<path style="fill:#34383A;" d="M1055.626,390.04c0.644-1.827,1.892-2.72,2.93-3.741c5.09-5.007,10.231-9.962,15.156-14.743
		c1.93,0.051,2.656,1.293,3.607,2.14c9.644,8.579,21.013,13.02,33.749,14.451c10.193,1.145,20.246,0.913,30.129-2.05
		c19.017-5.702,23.655-24.104,16.834-39.149c-2.816-6.211-7.968-10.095-14.536-11.993c-7.522-2.174-15.29-2.968-23.011-4.005
		c-11.033-1.482-22.003-3.103-32.247-7.895c-16.638-7.783-25.164-20.846-26.386-39.09c-0.835-12.465,1.093-24.174,7.881-34.836
		c7.635-11.992,18.765-19.412,32.325-22.495c26.907-6.117,52.544-3.765,75.263,13.743c1.698,1.309,3.273,2.778,4.754,4.044
		c-5.928,6.078-11.686,11.981-17.545,17.989c-1.519,0.004-2.462-1.283-3.556-2.21c-8.6-7.289-18.787-10.45-29.791-11.172
		c-8.468-0.555-16.874-0.58-25.007,2.879c-15.564,6.619-19.9,23.662-14.491,36.655c1.909,4.586,5.601,7.285,9.643,9.711
		c5.828,3.498,12.337,4.735,18.907,5.772c11.304,1.784,22.767,2.761,33.77,6.117c16.905,5.156,28.916,15.495,33.216,33.162
		c3.567,14.653,3.027,29.034-4.855,42.464c-6.703,11.42-16.764,18.733-28.992,23.189c-13.808,5.032-28.105,6.213-42.71,5.227
		c-11.227-0.758-21.991-3.049-32.216-7.817C1069.763,402.337,1062.181,396.831,1055.626,390.04z"/>
	<path style="fill:#35393B;" d="M822.528,412.785c-9.516,0-18.644,0-28.113,0c0-62.46,0-124.796,0-187.414
		c9.267,0,18.514,0,28.113,0C822.528,287.674,822.528,350.007,822.528,412.785z"/>
	<path style="fill:#414244;" d="M1288.511,491.468c2.728,0,5.176,0,8.26,0c8.703,13.173,17.639,26.698,26.575,40.224
		c0.252-0.032,0.504-0.064,0.756-0.096c0-13.264,0-26.527,0-40.008c3.314-0.568,6.089-0.34,8.831-0.235
		c1.037,3.539,1.42,50.435,0.493,59.954c-2.484,0.891-5.113,0.301-8.153,0.455c-8.763-13.275-17.582-26.635-26.401-39.995
		c-0.323,0.106-0.647,0.212-0.97,0.318c0,13.002,0,26.003,0,39.155c-3.34,0.869-6.228,0.505-9.391,0.333
		C1288.511,531.543,1288.511,511.8,1288.511,491.468z"/>
	<path style="fill:#3C3E40;" d="M799.497,551.746c0-20.44,0-40.2,0-60.528c9.34,0.301,18.451-0.648,27.529,0.681
		c6.882,1.007,11.658,4.672,13.385,11.642c1.644,6.635-0.09,12.152-5.736,16.257c-0.264,0.192-0.456,0.482-0.73,0.78
		c1.436,1.263,3.032,2.448,4.367,3.878c6.657,7.134,4.698,23.833-9.508,26.467c-3.271,0.607-6.585,0.881-9.932,0.844
		C812.563,551.696,806.252,551.746,799.497,551.746z M809.077,543.079c4.649,0,8.791,0.002,12.933-0.002
		c0.665-0.001,1.333,0.008,1.994-0.051c5.183-0.462,8.429-3.655,8.702-8.539c0.25-4.47-2.631-8.579-7.462-9.088
		c-5.349-0.564-10.804-0.129-16.167-0.129C809.077,531.306,809.077,536.921,809.077,543.079z M809.129,516.865
		c5.548-0.384,10.688,0.483,15.775-0.538c4.505-0.904,7.036-4.15,6.86-8.426c-0.171-4.135-3.178-7.567-7.589-7.851
		c-4.928-0.317-9.892-0.073-15.046-0.073C809.129,505.61,809.129,510.876,809.129,516.865z"/>
	<path style="fill:#35393B;" d="M814.339,98.091c11.118,0.015,20.574,9.549,20.565,20.737
		c-0.009,11.394-10.725,21.941-22.246,21.895c-11.077-0.044-20.543-9.638-20.563-20.84
		C792.075,108.474,802.69,98.075,814.339,98.091z"/>
	<path style="fill:#35383B;" d="M575.091,637.999c-11.227-0.036-20.73-9.46-20.803-20.63c-0.075-11.462,10.393-21.319,22.628-21.307
		c11.204,0.011,20.867,9.608,20.777,20.635C597.599,628.361,587.33,638.038,575.091,637.999z"/>
	<path style="fill:#35383B;" d="M700.916,518.998c11.241-0.127,20.719,9.165,20.804,20.396
		c0.087,11.441-10.391,22.074-21.904,22.227c-10.832,0.144-20.54-9.262-20.725-20.081
		C678.884,529.476,688.898,519.134,700.916,518.998z"/>
	<path style="fill:#35383B;" d="M1247.005,42.807c-0.052,11.489-9.17,20.521-20.614,20.42c-12.571-0.111-22.405-9.536-22.299-21.37
		c0.101-11.195,9.659-20.673,20.751-20.578C1237.327,21.387,1247.058,30.84,1247.005,42.807z"/>
	<path style="fill:#35383B;" d="M289.104,638.126c-12.436-0.013-22.63-9.53-22.405-21.285c0.224-11.693,9.18-20.781,20.68-20.563
		c13.409,0.254,22.311,9.32,22.406,21.333C309.876,629.094,300.203,638.392,289.104,638.126z"/>
	<path style="fill:#34383A;" d="M938.757,21.728c11.566-0.017,20.34,8.89,20.507,20.51c0.148,10.325-7.259,21.057-22.313,21.23
		c-13.474,0.155-20.394-10.406-20.626-20.557C916.058,31.208,926.237,21.746,938.757,21.728z"/>
	<path style="fill:#35383B;" d="M438.087,658.062c-3.725,0-7.45,0-11.175,0c-11.083-2.891-17.926-13.458-15.619-24.121
		c2.392-11.054,13.045-18.124,24.302-16.304c9.341,1.51,15.443,6.663,17.715,15.822c2.079,8.38-0.755,15.364-7.254,20.857
		C443.777,656.244,441.181,657.745,438.087,658.062z"/>
	<path style="fill:#35383B;" d="M142.995,540.02c-0.008-11.212,9.023-20.812,19.991-20.674c13.739,0.173,22.295,12.18,22.063,21.938
		c-0.269,11.323-9.557,20.782-20.712,20.615C151.61,561.709,142.046,549.821,142.995,540.02z"/>
	<path style="fill:#34383A;" d="M1350.196,140.004c-11.818-0.093-21.358-10.168-21.2-22.387c0.143-11.053,9.527-20.024,20.72-19.805
		c11.771,0.23,21.281,10.145,21.318,21.935C1371.07,131.428,1360.28,140.877,1350.196,140.004z"/>
	<path style="fill:#414244;" d="M1212.527,491.507c12.844,0,25.41,0,38.126,0c0.517,2.701,0.241,5.169,0.195,8.281
		c-9.553,0.368-19.111-0.012-28.857,0.22c0,5.76,0,11.158,0,16.904c8.084,0,16.027,0,24.019,0c1.267,2.82,0.658,5.418,0.606,8.341
		c-8.103,0-16.049,0-24.498,0c-0.728,5.863-0.14,11.458-0.433,17.674c4.893,0.046,9.637,0.108,14.381,0.13
		c4.791,0.022,9.583,0.005,14.638,0.005c0.331,3.001,0.363,5.572-0.019,8.426c-12.735,0-25.302,0-38.159,0
		C1212.527,531.563,1212.527,511.807,1212.527,491.507z"/>
	<path style="fill:#3D3F41;" d="M1461.517,499.816c0,5.988,0,11.303,0,17.063c8.17,0,16.266,0,24.388,0
		c0.819,2.855,0.417,5.32,0.417,8.399c-8.14,0-16.186,0-24.568,0c0,6.173,0,11.73,0,17.682c9.435,0,18.88,0,28.361,0
		c1.152,2.91,0.341,5.523,0.757,8.444c-13,0-25.558,0-38.459,0c0-19.851,0-39.719,0-59.872c12.625,0,25.187,0,38.021,0
		c0.524,2.699,0.369,5.268,0.107,8.283C1480.907,499.816,1471.488,499.816,1461.517,499.816z"/>
	<path style="fill:#383B3D;" d="M928.24,521.244c0.026-4.471-0.354-8.935,0.509-13.413c1.751-9.087,7.43-14.243,16.034-16.348
		c12.206-2.986,24.64,5.017,26.033,16.796c0.819,6.927,0.809,13.929,0.402,20.909c-0.048,0.828-0.182,1.654-0.199,2.482
		c-0.181,9.147-4.607,15.53-13.04,18.723c-8.597,3.255-16.605,1.911-23.576-4.441c-4.224-3.849-5.763-8.823-6.12-14.244
		C928.054,528.236,928.24,524.734,928.24,521.244z M962.114,521.402c-0.338-4.292,0.11-8.76-0.921-13.211
		c-1.181-5.096-5.128-8.653-11.665-8.888c-5.467-0.196-10.651,3.996-11.434,9.225c-1.28,8.559-1.266,17.187-0.013,25.752
		c0.779,5.327,5.63,9.156,11.305,9.406c5.548,0.245,10.313-3.419,11.755-8.76C962.333,530.509,961.787,526.016,962.114,521.402z"/>
	<path style="fill:#393C3E;" d="M1005.055,543.837c1.89-1.637,3.873-3.355,6.073-5.26c5.206,4.639,11.979,5.896,19.349,4.48
		c4.799-0.922,7.556-4.072,7.602-8.456c0.043-4.106-1.613-6.449-5.537-7.861c-3.16-1.137-6.555-0.946-9.777-1.743
		c-1.283-0.318-2.605-0.487-3.879-0.836c-8.085-2.217-12.061-6.967-12.394-14.752c-0.333-7.782,3.921-14.644,11.314-16.956
		c9.765-3.054,18.981-1.873,27.271,5.186c-1.237,2.611-3.895,3.619-5.435,5.916c-3.438-2.359-6.875-3.851-10.707-4.394
		c-2.717-0.385-5.315-0.042-7.824,0.936c-3.726,1.452-5.524,4.425-5.369,8.64c0.132,3.593,1.907,6.04,5.869,7.042
		c4.01,1.014,8.166,1.438,12.226,2.273c5.859,1.205,10.63,3.972,12.453,10.084c2.838,9.515-0.593,16.933-7.801,20.904
		c-9.423,5.19-24.22,3.6-32.336-3.46C1005.662,545.152,1005.095,544.759,1005.055,543.837z"/>
	<path style="fill:#3A3C3F;" d="M1414.995,509.572c-3.455,0-6.235,0-8.854,0c-1.3-1.054-1.229-2.534-1.869-3.683
		c-2.939-5.276-7.286-7.311-13.348-6.092c-5.312,1.068-8.417,4.534-9.034,10.4c-0.785,7.457-0.823,14.931-0.007,22.393
		c0.671,6.135,3.824,9.677,9.353,10.63c6.031,1.039,10.408-1.118,13.224-6.41c0.539-1.013,0.531-2.305,1.971-3.365
		c2.337-0.41,5.108-0.151,7.873-0.121c0.157,6.945-4.474,13.645-11.244,16.687c-12.718,5.714-30.766-0.881-30.969-19.552
		c-0.069-6.321-0.203-12.652,0.051-18.964c0.333-8.269,4.005-14.805,11.663-18.309c7.947-3.636,15.862-3.151,23.132,2.046
		C1411.654,498.603,1413.818,503.516,1414.995,509.572z"/>
	<path style="fill:#3C3E40;" d="M1124.681,509.603c-2.861,0-5.491,0-8.055,0c-1.157-0.98-1.296-2.362-1.859-3.538
		c-2.205-4.606-6.695-7.049-11.822-6.55c-5.713,0.557-9.222,3.43-10.395,9.047c-1.267,6.067-0.847,12.256-0.686,18.402
		c0.07,2.641-0.016,5.283,0.78,7.91c1.578,5.211,4.384,7.813,9.784,8.464c5.066,0.611,9.167-0.957,11.811-5.523
		c0.819-1.415,1.481-2.92,2.233-4.418c2.726,0,5.355,0,8.153,0c1.052,2.946-0.604,5.235-1.703,7.488
		c-3.823,7.838-11.898,11.86-21.659,11.013c-8.035-0.698-15.418-6.548-17.615-14.109c-0.551-1.897-0.874-3.895-1.027-5.868
		c-0.644-8.309-0.828-16.636,0.501-24.889c1.231-7.645,7.757-14.1,16.23-15.618c10.446-1.871,21.123,1.83,25.336,14.814
		C1124.996,507.174,1125.177,508.169,1124.681,509.603z"/>
	<path style="fill:#444547;" d="M889.535,551.544c-3.054,0.375-5.825,0.299-8.971,0.053c0-19.99,0-39.862,0-60.042
		c2.9-0.602,5.793-0.343,8.971-0.139C889.535,511.454,889.535,531.209,889.535,551.544z"/>
	<path style="fill:#3A3C3F;" d="M1171.634,551.502c-3.021,0-5.787,0-8.889,0c0-19.888,0-39.742,0-59.98
		c2.878-0.485,5.756-0.263,8.889-0.113C1171.634,511.585,1171.634,531.425,1171.634,551.502z"/>
</g>
</svg>
