<?xml version="1.0" encoding="iso-8859-1"?>
<!-- Generator: Adobe Illustrator 27.0.0, SVG Export Plug-In . SVG Version: 6.00 Build 0)  -->
<svg version="1.1" id="Layer_1" xmlns="http://www.w3.org/2000/svg" xmlns:xlink="http://www.w3.org/1999/xlink" x="0px" y="0px"
	 viewBox="0 0 1592 450" style="enable-background:new 0 0 1592 450;" xml:space="preserve">
<g>
	<path style="fill:#253A70;" d="M1274,0c-0.025,9.997-0.074,19.993-0.071,29.99c0.017,55.82,0.049,111.64,0.069,167.46
		c0.002,4.836,0.187,9.653,0.895,14.448c1.363,9.232,7.425,13.163,16.456,10.582c1.903-0.544,3.77-1.214,5.884-1.901
		c1.018,1.823,1.873,3.536,1.884,5.791c-1.787,1.337-4.01,2.017-6.126,2.876c-12.454,5.052-24.957,9.984-37.362,15.154
		c-3.076,1.282-6.034,1.426-9.535,1.018c0-7.078,0-14.001,0-21.665c-3.329,2.811-6.051,5.188-8.856,7.463
		c-10.644,8.633-22.713,13.785-36.499,14.243c-9.129,0.303-17.935-1.55-25.862-6.198c-20.956-12.288-33.391-30.543-36.949-54.574
		c-4.39-29.651,3.387-56.015,22.319-79.123c9.207-11.238,20.566-19.386,34.906-22.699c14.306-3.306,28.345-3.414,41.547,4.414
		c3.144,1.864,5.544,4.691,8.655,6.474c0.783-0.582,0.554-1.271,0.551-1.865c-0.092-17.656,0.406-35.32-0.869-52.958
		c-0.229-3.171-0.74-6.278-1.696-9.29c-1.458-4.589-3.951-6.354-8.771-6.709c-3.235-0.238-6.264,0.705-9.345,1.354
		c-1.125,0.237-2.168,0.873-3.659,0.534c-0.707-1.812-1.797-3.653-1.657-6.193c5.314-2.187,10.645-4.407,15.997-6.578
		c8.612-3.494,17.249-6.929,25.84-10.472c0.798-0.329,2.06-0.272,2.253-1.574C1267.333,0,1270.667,0,1274,0z M1245.708,211.688
		c0.093-0.756,0.205-1.246,0.205-1.737c0.009-25.306,0.242-50.615-0.105-75.917c-0.141-10.307-3.321-20.107-9.935-28.191
		c-13.755-16.809-34.719-19.274-50.903-1.969c-5.051,5.401-8.805,11.667-11.176,18.683c-7.022,20.776-6.671,41.815-1.915,62.939
		c3.071,13.642,10.323,24.727,21.345,33.296c9.16,7.121,19.43,10.164,30.864,7.145
		C1232.875,223.618,1239.629,217.956,1245.708,211.688z"/>
	<path style="fill:#293C72;" d="M1081,450c-0.44-1.477-2.028-1.54-2.982-2.405c-2.691-2.44-3.891-6.354-2.763-9.524
		c1.027-2.887,3.533-4.24,7.711-4.26c2.37-0.011,4.594,0.647,6.826,1.297c6.309,1.836,9.935,0.456,13.091-5.423
		c1.643-3.06,2.837-6.363,4.201-9.57c1.231-2.894,2.417-5.806,3.725-8.958c-4.13-8.602-8.296-17.266-12.451-25.936
		c-4.233-8.832-8.431-17.682-12.698-26.497c-1.374-2.838-2.888-5.597-4.611-8.261c-2.053-3.173-4.45-5.789-8.136-6.983
		c-1.425-0.461-2.509-1.111-1.506-3.066c11.205,0,22.594,0,33.88,0c0.674,1.881-0.158,2.281-1.553,2.523
		c-6.834,1.185-8.488,3.856-6.218,10.322c0.985,2.806,2.316,5.498,3.606,8.187c4.594,9.573,9.221,19.13,13.884,28.67
		c0.64,1.31,0.976,2.855,2.335,3.745c5.682-10.564,17.579-43.351,17.491-47.788c-0.915-4.262-6.244-1.569-8.009-5.613
		c8.759,0,16.786,0,24.718,0c0.653,1.66,0.087,2.396-1.349,2.712c-5.181,1.141-7.376,5.044-9.164,9.562
		c-9.881,24.973-19.906,49.89-29.792,74.861c-3.086,7.794-7.658,14.256-14.805,18.874c-2.364,1.528-5.181,1.892-7.432,3.529
		C1086.333,450,1083.667,450,1081,450z"/>
	<path style="fill:#253A71;" d="M843,0c2.465,1.539,5.411,2.011,7.718,4.042c6.036,5.315,8.047,12.906,5.033,20.29
		c-2.596,6.359-9.86,10.736-16.794,10.119c-7.917-0.704-14.388-6.24-15.878-13.584c-1.511-7.453,1.868-14.699,8.597-18.641
		C833.084,1.402,834.904,1.403,836,0C838.333,0,840.667,0,843,0z"/>
	<path style="fill:#8383A6;" d="M0.907,415.084c0,0-0.466,0.087-0.466,0.087L0,415C0,281.667,0,148.333,0,15
		c0.285-0.204,0.587-0.233,0.905-0.085c0.035,1.497,0.102,2.995,0.102,4.492c0.005,130.395,0.005,260.79,0,391.185
		C1.007,412.089,0.942,413.586,0.907,415.084z"/>
	<path style="fill:#374579;" d="M1592,400c-1.397,0.638-1.361,2.159-1.947,3.273c-3.847,7.305-11.918,10.802-19.281,8.268
		c-7.542-2.595-11.64-10.018-10.092-18.279c1.332-7.109,5.573-11.242,12.491-12.171c7.529-1.011,13.816,2.276,16.976,8.553
		c0.721,1.432,0.172,3.378,1.853,4.355C1592,396,1592,398,1592,400z M1575.475,409.294c9.787-0.007,12.992-5.938,13.39-12.846
		c0.384-6.667-6.492-13.352-13.006-13.234c-6.502,0.117-13.102,6.845-13.105,13.378
		C1562.752,401.857,1567.236,409.457,1575.475,409.294z"/>
	<path style="fill:#233870;" d="M0.907,415.084c0.035-1.497,0.1-2.995,0.1-4.492c0.005-130.395,0.005-260.79,0-391.185
		c0-1.497-0.066-2.995-0.102-4.492c1.507-1.097,3.23-0.528,4.837-0.529c98.988-0.032,197.977-0.03,296.965-0.019
		c1.984,0,4.006-0.266,6.166,0.619c0,133.177,0,266.438,0,400.004c-1.565,0.873-3.399,0.645-5.166,0.645
		c-99.655,0.01-199.31,0.011-298.965-0.012C3.462,415.622,2.067,416.086,0.907,415.084z M294.725,310.589
		c-93.989,0-187.513,0-280.998,0c-0.952,6.831-0.661,86.458,0.26,89.742c93.558,0,187.087,0,280.738,0
		C294.725,370.338,294.725,340.707,294.725,310.589z M33.011,57.964c4.63,0,8.785-0.239,12.904,0.048
		c9.691,0.675,16.036,5.063,17.548,14.403c0.798,4.929,1.546,9.835,1.542,14.844c-0.021,24.325-0.026,48.649-0.004,72.974
		c0.015,16.143-0.373,32.298,1.042,48.408c0.974,11.094,2.285,22.064,7.553,32.231c9.218,17.789,22.659,30.528,42.156,36.196
		c21.325,6.199,42.981,6.471,64.681,2.607c15.597-2.777,29.071-9.986,40.433-21.129c12.933-12.684,17.791-28.848,20.013-46.119
		c1.659-12.889,1.843-25.863,1.814-38.847c-0.06-27.49-0.032-54.98-0.004-82.47c0.004-3.992,0.004-8.003,0.371-11.971
		c0.395-4.271,0.897-8.556,3.681-12.199c4.546-5.948,10.387-9.139,17.944-9.049c3.28,0.039,6.561,0.007,10.072,0.007
		c0.069-3.291,0.528-6.025-0.236-8.54c-27.191,0-54.081,0-81.144,0c0.003,2.966-0.329,5.578,0.375,8.636
		c4.421,0,8.728-0.189,13.013,0.037c10.488,0.554,16.658,6.082,18.086,16.322c0.618,4.433,0.927,8.944,0.937,13.42
		c0.076,32.655,0.147,65.31-0.017,97.964c-0.056,11.125-0.832,22.233-2.732,33.245c-2.285,13.245-8.594,24.051-19.552,31.767
		c-20.396,14.363-43.149,18.001-66.928,11.809c-16.806-4.376-28.342-15.46-32.624-32.966c-3.091-12.637-4.761-25.508-4.854-38.472
		c-0.237-33.32-0.051-66.642-0.108-99.963c-0.009-5.34,0.297-10.634,0.99-15.921c1.216-9.281,6.047-14.72,15.103-16.902
		c2.456-0.592,4.969-0.339,7.459-0.445c2.776-0.118,5.593,0.333,8.478-0.352c0-2.822,0-5.428,0-8.287c-32.71,0-65.263,0-97.995,0
		C33.011,52.076,33.011,54.681,33.011,57.964z"/>
	<path style="fill:#2C3E73;" d="M378.638,281.368c-0.323-4.02-0.525-7.611,0.106-11.345c386.714,0,773.254,0,1160.017,0
		c0,3.818,0,7.426,0,11.345C1152.194,281.368,765.666,281.368,378.638,281.368z"/>
	<path style="fill:#253A71;" d="M377.404,17.903c-0.616-2.151-0.538-3.759-0.19-5.639c32.404,0,64.798,0,97.447,0
		c0.402,1.666,0.288,3.277,0.082,4.968c-1.643,1.21-3.533,0.51-5.295,0.619c-3.157,0.195-6.376-0.089-9.475,0.413
		c-9.5,1.537-15.613,8.294-16.965,18.335c-0.689,5.12-1.039,10.252-1.029,15.431c0.069,34.655-0.052,69.311,0.145,103.964
		c0.068,11.996,1.789,23.9,4.15,35.648c4.207,20.934,17.772,33.104,37.951,37.593c22.715,5.053,44.291,1.56,63.843-11.706
		c12.705-8.621,19.744-20.642,22.062-35.808c1.971-12.895,2.464-25.855,2.552-38.826c0.198-29.322,0.135-58.647,0.005-87.97
		c-0.029-6.64-0.11-13.324-1.368-19.899c-2.091-10.932-8.667-16.623-19.913-17.113c-3.63-0.158-7.272-0.025-11.062-0.025
		c-0.734-2.024-0.329-3.752-0.383-5.684c26.768,0,53.177,0,79.814,0c0,1.746,0,3.357,0,5.224c-3.273,0.964-6.763,0.291-10.18,0.503
		c-8.322,0.516-14.496,4.453-18.65,11.559c-2.336,3.997-2.477,8.594-2.853,13.043c-0.322,3.809-0.237,7.658-0.24,11.489
		c-0.032,32.655,0.159,65.313-0.148,97.966c-0.145,15.468-1.187,30.951-6.337,45.763c-7.673,22.066-23.518,35.972-45.195,43.069
		c-16.621,5.442-33.924,6.231-51.345,4.43c-8.279-0.856-16.49-1.815-24.507-4.227c-20.395-6.137-34.533-19.221-43.34-38.41
		c-4.884-10.642-6.178-22.005-6.965-33.483c-1.667-24.296-0.699-48.627-0.901-72.942c-0.13-15.66-0.089-31.323-0.046-46.984
		c0.013-4.517-0.436-8.981-1.105-13.424c-1.689-11.21-8.433-17.294-19.836-17.85C384.654,17.76,381.165,17.903,377.404,17.903z"/>
	<path style="fill:#273B71;" d="M792.524,241.049c-25.684,0-50.825,0-76.133,0c-1.019-1.853-0.426-3.779-0.535-5.99
		c3.356-0.326,6.442-0.736,9.541-0.908c10.623-0.589,14.489-8.717,14.703-15.733c0.152-4.994,0.237-9.992,0.227-14.989
		c-0.044-22.496-0.151-44.992-0.194-67.489c-0.011-5.528-0.757-10.953-2.079-16.296c-3.522-14.233-12.069-19.54-27.197-17.273
		c-10.199,1.529-18.661,6.758-26.222,13.501c-2.602,2.321-4.867,5.019-7.863,8.146c-0.424,0.944-0.094,2.805-0.096,4.618
		c-0.02,27-0.033,53.999,0.006,80.999c0.006,4.152-0.064,8.324,0.922,12.418c1.774,7.371,5.863,11.086,13.416,11.961
		c3.45,0.4,6.92,0.618,10.299,0.912c1.027,1.951,0.315,3.757,0.635,5.893c-25.358,0-50.401,0-75.496,0
		c-0.785-0.789-0.429-1.845-0.44-2.798c-0.011-0.964-0.302-2.006,0.488-2.955c2.709-0.318,5.497-0.583,8.265-0.983
		c7.004-1.014,10.636-4.42,12.194-11.276c1.152-5.068,1.348-10.226,1.357-15.383c0.04-23.333,0.159-46.667-0.062-69.998
		c-0.074-7.799,0.431-15.661-1.035-23.414c-1.55-8.199-6.127-11.351-14.245-9.669c-2.429,0.503-4.804,1.27-7.206,1.917
		c-1.771-1.58-2.03-3.76-2.882-5.444c1.045-1.778,2.694-1.903,4.022-2.442c12.765-5.188,25.586-10.238,38.342-15.448
		c3.465-1.416,6.902-2.337,11.355-1.426c0.136,9.978-0.027,20.169,0.096,30.916c2.365-1.402,3.469-3.086,4.802-4.497
		c7.811-8.27,16.119-15.913,26.372-21.132c11.491-5.849,23.328-7.419,35.616-2.753c6.065,2.303,10.915,6.138,14.744,11.45
		c6.568,9.111,9.31,19.354,9.773,30.4c1.165,27.809,0.442,55.631,0.65,83.447c0.032,4.328,0.132,8.638,1.198,12.886
		c1.831,7.297,6.039,11.038,13.53,11.873c2.955,0.33,6.007-0.075,8.956,1.154C792.881,236.995,792.657,238.77,792.524,241.049z"/>
	<path style="fill:#253A71;" d="M1113.352,180.789c2.491,0.268,3.738,1.714,5.518,2.706c-1.302,9.471-4.365,18.369-9.065,26.616
		c-7.822,13.724-17.751,25.488-33.009,31.311c-16.323,6.229-32.759,5.815-48.408-1.902c-21.466-10.586-33.716-28.537-38.358-51.726
		c-3.715-18.558-3.41-37.167,2.153-55.308c7.024-22.902,21.111-39.858,44.219-47.941c15.744-5.507,31.897-5.785,47.329,0.834
		c19.931,8.549,31.005,24.351,34.253,45.696c0.62,4.072,1.344,8.161,0.723,12.599c-35.417,0-70.691,0-105.938,0
		c-1.345,2.246-0.775,4.453-0.677,6.518c0.683,14.46,3.203,28.48,11.574,40.703c7.779,11.358,17.364,20.65,31.112,24.472
		c19.492,5.419,38.789-0.518,50.025-17.493C1108.296,192.595,1111.104,186.957,1113.352,180.789z M1083.274,133.791
		c0.826-0.583,0.666-1.123,0.604-1.572c-0.572-4.114-1.277-8.213-1.761-12.337c-1.793-15.252-21.815-32.967-44.077-24.351
		c-14.414,5.579-25.239,20.113-25.659,38.26C1036.13,133.791,1059.874,133.791,1083.274,133.791z"/>
	<path style="fill:#253A71;" d="M938.031,85.801c12.666,0,24.569,0,36.688,0c0,4.067,0,7.665,0,11.722c-12.002,0-23.93,0-35.429,0
		c-1.486,1.583-1.042,2.985-1.043,4.263c-0.023,31.982-0.048,63.965,0.02,95.947c0.011,5.148,0.284,10.325,1.756,15.318
		c2.48,8.41,10.358,12.58,18.775,9.993c6.611-2.032,11.135-6.373,13.779-12.848c2.233-0.29,4.347-0.347,6.816,0.101
		c-2.387,7.729-6.255,14.419-11.799,20.035c-3.623,3.669-7.69,6.935-12.352,9.235c-11.609,5.726-22.869,5.141-33.336-2.686
		c-7.15-5.346-9.721-13.247-10.824-21.69c-0.733-5.612-0.922-11.269-0.912-16.942c0.055-31.483,0.026-62.965,0.026-94.448
		c0-1.811,0-3.621,0-5.935c-8.149,0-16.047,0-23.761,0c-1.384-2.339-0.999-4.268-0.644-6.018
		c17.847-8.206,30.212-21.665,38.891-38.732c3.001-5.901,5.481-12.068,8.247-18.219c1.478-0.917,3.07-0.615,5.102-0.209
		C938.031,51.462,938.031,68.213,938.031,85.801z"/>
	<path style="fill:#273B71;" d="M802.701,105.777c-0.673-2.075-1.754-3.94-1.703-6.435c8.469-3.391,16.914-6.768,25.356-10.153
		c5.544-2.223,11.164-4.279,16.596-6.748c3.664-1.666,7.294-1.903,11.09-1.375c0.945,1.873,0.5,3.735,0.501,5.527
		c0.03,38.653,0.008,77.306,0.041,115.959c0.004,4.995,0.117,9.999,0.416,14.984c0.615,10.246,6.053,15.705,16.265,16.671
		c1.969,0.186,4.013,0.005,5.971,0.932c0.814,1.533,0.523,3.142,0.194,4.739c-3.478,0.964-68.603,1.202-74.224,0.278
		c-0.541-1.598-0.448-3.218-0.059-5.084c2.394-1.284,5.129-0.706,7.7-0.956c8.291-0.804,12.562-4.603,14.373-12.703
		c0.958-4.283,1.013-8.602,1.019-12.92c0.038-27.656,0.313-55.314-0.267-82.967c-0.08-3.818-0.481-7.647-0.998-11.434
		c-1.107-8.107-4.784-11.023-12.896-10.153C808.985,104.27,805.951,105.123,802.701,105.777z"/>
	<path style="fill:#293C72;" d="M1269.231,358.646c5.421,1.329,10.539,3.074,14.778,6.793c9.616,8.438,11.344,21.614,4.637,32.524
		c-6.905,11.233-17.391,15.271-29.833,16.019c-17.633,1.059-35.281,0.572-52.923,0.683c-3.165,0.02-6.33-0.001-9.495,0.001
		c-1.273,0.001-2.381-0.18-2.165-2.184c1.896-1.257,4.316-0.642,6.483-1.113c5.19-1.127,7.438-3.25,8.386-8.447
		c0.509-2.789,0.74-5.582,0.735-8.424c-0.038-23.488-0.033-46.976-0.004-70.465c0.003-2.506-0.373-4.958-0.601-7.436
		c-0.51-5.548-4.448-8.186-9.332-8.578c-1.795-0.144-3.595-0.22-5.078-0.309c-0.79-0.864-0.639-1.527-0.576-2.274
		c0.398-0.176,0.838-0.542,1.278-0.541c18.986,0.03,37.979-0.177,56.956,0.279c7.973,0.192,15.727,2.335,22.718,6.629
		c15.449,9.488,19.067,33.318-2.101,44.524C1271.814,357.005,1270.185,357.158,1269.231,358.646z M1225.88,406.474
		c3.327,1.856,7.085,1.663,10.642,2.14c7.152,0.96,14.363,0.746,21.191-1.737c8.422-3.064,14.931-8.487,16.221-17.854
		c1.353-9.823-2.628-17.59-11.216-22.664c-3.56-2.103-7.454-3.577-11.551-4.479c-7.919-1.743-15.868-1.029-23.819-0.463
		c-0.441,0.031-0.856,0.433-1.468,0.762C1225.88,376.896,1225.88,391.653,1225.88,406.474z M1225.854,312.201
		c0,14.185,0,27.795,0,41.684c9.717,1.585,19.297,2.056,28.769-0.233c6.805-1.644,11.911-5.681,14.467-12.5
		c4.038-10.775-0.693-22.619-11.506-27.55C1247.34,308.931,1236.727,308.963,1225.854,312.201z"/>
	<path style="fill:#293C72;" d="M730.783,411.835c0.123,2.386-1.471,2.033-2.709,2.037c-7.498,0.025-14.997,0.013-22.495,0.013
		c-3.642,0-7.284,0-10.444,0c-1.125-0.853-0.933-1.505-0.807-2.149c0.948-0.914,2.177-0.611,3.303-0.782
		c4.824-0.733,6.905-2.931,7.428-7.88c0.157-1.488,0.265-2.991,0.259-4.487c-0.052-13.161-0.119-26.322-0.223-39.483
		c-0.017-2.156-0.2-4.289-0.887-6.395c-1.28-3.919-2.505-4.765-6.558-4.014c-1.114,0.206-2.209,0.518-3.029,0.714
		c-1.084-0.638-1.562-1.265-1.573-2.186c0.125-0.294,0.173-0.765,0.381-0.852c6.887-2.874,13.789-5.713,20.691-8.551
		c1.42-0.584,2.865-0.715,4.718-0.059c0,4.819,0,9.749,0,15.749c2.199-2.238,3.725-3.708,5.157-5.265
		c3.657-3.976,7.946-7.029,12.917-9.157c8.555-3.663,16.962-1.224,22.403,6.444c1.553,2.189,2.409,4.715,3.427,6.618
		c2.412-2.042,4.93-4.045,7.301-6.208c4.111-3.75,8.572-6.697,14.126-8.006c12.422-2.927,20.956,6.419,22.939,14.801
		c1.131,4.779,0.987,9.595,1.043,14.403c0.12,10.163,0.021,20.329,0.052,30.493c0.005,1.655,0.096,3.326,0.343,4.96
		c0.914,6.053,2.437,7.532,8.498,8.401c1.295,0.186,2.855-0.012,2.443,2.11c-3.398,0.958-29.385,1.221-36.116,0.373
		c-0.439-0.587-0.379-1.206-0.04-2.026c1.811-0.331,3.792-0.503,5.651-1.071c4.021-1.229,5.785-3.511,5.806-7.656
		c0.064-12.83,0.044-25.662-0.003-38.492c-0.006-1.648-0.366-3.294-0.557-4.942c-1.085-9.383-7.398-13.545-16.607-10.855
		c-5.768,1.685-10.248,5.367-14.332,9.464c0.747,12.599,0.21,25.075,0.385,37.544c0.035,2.497,0.072,4.998,0.248,7.487
		c0.365,5.162,2.507,7.351,7.735,8.037c0.987,0.13,2.014,0.054,2.973,0.28c1.03,0.242,1.083,1.092,0.695,2.307
		c-12.258,0-24.622,0-36.894,0c-0.585-1.86,0.221-2.306,1.622-2.54c8.97-1.494,9.922-2.613,9.93-11.532
		c0.011-11.664-0.048-23.329,0.039-34.993c0.021-2.872-0.34-5.659-1.089-8.38c-1.801-6.548-7.592-9.991-14.224-8.602
		c-5.598,1.172-10.313,4.111-15.699,9.93c0,6.297,0,12.945,0,19.594c0,7.998-0.02,15.997,0.006,23.995
		c0.025,7.605,1.666,9.362,9.186,9.984C729.023,411.08,729.879,411.023,730.783,411.835z"/>
	<path style="fill:#293C72;" d="M591.598,336.886c0,5.718,0,10.333,0,15.516c3.492-1.981,5.313-4.819,7.591-7.108
		c3.253-3.27,7.015-5.597,11.377-6.923c10.038-3.053,19.596,1.419,23.8,11.057c0.397,0.909,0.701,1.859,1.088,2.898
		c2.055-0.314,2.82-2.16,3.993-3.438c5.062-5.514,10.789-9.756,18.431-11.09c10.515-1.836,19.644,4.174,21.959,15.282
		c0.775,3.72,1.116,7.548,1.082,11.406c-0.097,10.83-0.039,21.662-0.029,32.493c0.001,1.665,0.004,3.335,0.116,4.995
		c0.366,5.452,2.555,7.735,7.94,8.348c0.808,0.092,1.623,0.113,2.181,0.15c1.161,1.032,0.916,1.976,0.518,3.172
		c-11.859,0-23.785,0-35.711,0c-0.88-1.237-0.879-2.314,0.6-2.786c1.25-0.399,2.607-0.525,3.927-0.627
		c3.861-0.298,5.99-2.392,6.849-6.108c0.381-1.647,0.509-3.269,0.507-4.936c-0.01-11.498,0.006-22.995-0.012-34.493
		c-0.006-3.51-0.386-6.985-1.816-10.229c-2.574-5.84-6.959-8.034-13.277-7.047c-5.336,0.834-9.576,3.613-13.502,7.054
		c-1.118,0.98-2.162,2.046-3.025,2.869c0,14.481-0.012,28.627,0.02,42.774c0.003,1.315,0.19,2.652,0.468,3.94
		c0.913,4.238,2.37,5.49,6.663,6.157c1.452,0.226,3.031-0.285,4.344,0.684c0.424,0.811,0.352,1.624,0.046,2.717
		c-12.011,0-24.105,0-36.236,0c-0.86-0.774-0.79-1.676-0.282-2.649c1.307-1.045,2.872-0.502,4.324-0.645
		c4.776-0.472,7.175-2.884,7.253-7.742c0.107-6.664,0.058-13.33,0.018-19.995c-0.043-7.153,0.311-14.318-0.51-21.452
		c-0.208-1.81-0.426-3.599-0.881-5.396c-1.821-7.193-8.076-10.74-15.966-8.094c-4.457,1.494-8.232,4.277-11.783,7.332
		c-1.498,1.289-2.035,2.863-2.026,4.85c0.063,13.497,0.032,26.994,0.051,40.492c0.001,0.996,0.111,1.998,0.241,2.988
		c0.653,4.987,2.284,6.514,7.39,7.011c1.135,0.11,2.35-0.251,3.349,0.503c0.627,0.753,0.541,1.554,0.195,2.722
		c-11.774,0-23.654,0-35.535,0c-0.682-0.932-0.676-1.825-0.01-2.7c0.164-0.104,0.303-0.267,0.446-0.271
		c9.617-0.295,10.097-4.996,10.179-11.497c0.155-12.162,0.035-24.328,0.051-36.492c0.004-3.012-0.542-5.953-0.959-8.916
		c-0.606-4.297-3.341-6.29-7.315-5.002c-1.719,0.557-3.76,1.036-4.232-2.3C573.882,343.484,581.73,338.823,591.598,336.886z"/>
	<path style="fill:#283C72;" d="M463.406,309.015c3.165-0.563,4.827-2.391,5.821-5.117c0.639-1.752,0.786-1.698,3.673-2.685
		c1.749,12.37,1.714,24.729,3.088,36.721c-2.321,1.313-2.876,0.117-3.4-1.218c-1.211-3.087-2.25-6.26-3.708-9.227
		c-9.745-19.837-32.092-26.511-51.142-15.358c-5.185,3.036-8.931,7.417-11.754,12.633c-4.747,8.77-7.159,18.222-7.799,28.116
		c-0.626,9.677-0.136,19.264,2.761,28.636c9.082,29.379,46.391,36.638,66.384,14.87c2.81-3.06,5.497-6.233,8.217-9.325
		c0.984-0.282,1.648,0.054,2.071,0.917c-0.029,0.307,0.035,0.665-0.102,0.913c-2.911,5.28-6.477,10.072-10.756,14.326
		c-7.103,7.059-15.713,11.177-25.582,12.297c-14.624,1.66-28.534-0.28-40.74-9.383c-9.893-7.379-16.087-17.232-18.785-29.145
		c-3.963-17.496-2.834-34.586,7.058-49.989c11.892-18.516,29.165-26.941,51.268-25.221c7.254,0.565,13.983,2.681,20.402,5.992
		C461.403,308.293,462.511,308.65,463.406,309.015z"/>
	<path style="fill:#2A3D73;" d="M927.014,358.595c0,14.102-0.026,27.922,0.01,41.743c0.022,8.49,1.416,9.928,10.047,10.752
		c0.471,0.045,0.927,0.252,1.319,0.364c0.657,1.032,0.68,1.929-0.156,2.997c-11.797,0-23.72,0-35.436,0
		c-0.869-0.927-0.676-1.746-0.514-2.589c1.003-1.208,2.442-0.693,3.701-0.865c4.005-0.546,5.944-2.201,6.853-6.125
		c0.298-1.287,0.436-2.641,0.434-3.964c-0.029-14.984-0.095-29.967-0.173-44.951c-0.005-0.99-0.051-2.02-0.323-2.961
		c-0.797-2.754-2.621-4.061-5.514-4.074c-1.637-0.008-3.247,0.245-4.781,1.036c-0.662-0.973-1.116-1.641-1.6-2.352
		c0.46-0.412,0.77-0.888,1.195-1.039c8.129-2.891,15.695-7.489,24.811-8.843c0,5.313,0,9.939,0,14.625
		c1.684,0.216,2.004-1.092,2.687-1.829c3.872-4.178,8.107-7.882,13.273-10.403c11.694-5.705,23.701,0.726,26.329,11.261
		c0.972,3.897,1.86,7.72,1.851,11.751c-0.026,11.824,0.008,23.648,0.03,35.471c0.002,0.997,0.062,1.996,0.143,2.99
		c0.6,7.346,2.064,8.811,9.403,9.473c0.484,0.044,0.959,0.188,1.385,0.274c0.933,0.908,0.785,1.805-0.001,3.03
		c-11.719,0-23.627,0-35.511,0c-0.894-0.861-0.732-1.788-0.334-2.734c0.848-0.744,1.893-0.533,2.863-0.628
		c5.672-0.557,7.918-2.492,8.273-7.972c0.946-14.622,0.89-29.25-0.262-43.866c-0.039-0.496-0.066-1.004-0.191-1.482
		c-2.269-8.691-6.9-11.236-15.633-9.254C935.281,349.774,931.073,353.928,927.014,358.595z"/>
	<path style="fill:#2C3E73;" d="M1454.992,413.835c-0.984,0.743-2.11,0.855-3.306,0.853c-10.327-0.02-20.654-0.01-30.981-0.012
		c-1.468,0-3.085,0.239-3.377-1.994c1.518-1.413,3.493-1.073,5.179-1.283c3.704-0.461,5.609-2.592,6.512-5.922
		c0.566-2.087,0.828-4.21,0.816-6.402c-0.061-10.493-0.033-20.987-0.025-31.48c0.003-3.674-0.38-7.327-1.296-10.861
		c-1.966-7.582-7.217-10.437-14.783-8.273c-5.266,1.507-9.488,4.355-15.053,10.309c0,3.228-0.017,6.874,0.003,10.519
		c0.06,10.655,0.016,21.313,0.245,31.965c0.164,7.592,1.655,9.084,9.14,10.36c0.809,0.138,1.624,0.246,2.537,0.383
		c0.121,0.432,0.318,0.885,0.352,1.349c0.021,0.294-0.2,0.607-0.469,1.331c-3.64,0-7.441,0-11.242,0
		c-7.162,0-14.325,0.011-21.487-0.01c-1.425-0.004-3.157,0.412-3.365-1.895c0.972-1.533,2.691-1.135,4.044-1.402
		c4.024-0.793,5.96-3.349,6.596-7.138c0.274-1.636,0.458-3.3,0.514-4.957c0.492-14.637,0.664-29.282-0.655-43.881
		c-0.53-5.863-2.58-7.105-8.33-6.264c-0.794,0.116-1.492,0.81-2.372,0.401c-0.767-0.462-1.165-1.123-1.109-2.032
		c7.093-4.372,21.406-9.504,25.56-8.995c0,4.399,0,8.852,0,13.359c2.152,0.059,2.73-1.576,3.718-2.523
		c3.985-3.819,8.153-7.336,13.298-9.537c14.546-6.223,24.628,4.107,26.28,14.902c0.705,4.609,0.984,9.254,0.967,13.922
		c-0.036,9.827-0.012,19.655-0.01,29.482c0,1.165-0.026,2.334,0.042,3.496c0.391,6.665,2.25,8.786,8.664,9.973
		c1.141,0.211,2.274,0.468,3.411,0.704C1455.003,412.801,1454.998,413.318,1454.992,413.835z"/>
	<path style="fill:#283C72;" d="M900.578,404.843c0.417,0.917,0.683,1.5,1.18,2.593c-8.39,3.213-16.293,7.246-25.196,9.6
		c-1.198-5.192-0.127-10.026-0.749-14.96c-1.997,0.356-2.885,2.091-4.13,3.263c-3.763,3.546-7.546,7.019-12.273,9.309
		c-12.131,5.877-24.82-2.153-26.556-13.161c-0.812-5.148-0.929-10.275-0.999-15.418c-0.134-9.83-0.039-19.664-0.039-29.496
		c0-1.167,0.103-2.346-0.03-3.497c-0.668-5.774-2.517-10.116-10.42-10.084c-0.637,0.003-1.275-0.145-1.616-0.187
		c-0.877-0.764-0.675-1.421-0.52-2.373c8.335,0,16.721,0,25.14,0c0.892,1.453,0.489,2.985,0.493,4.43
		c0.033,14.998,0.006,29.997,0.034,44.995c0.005,2.653-0.034,5.296,0.703,7.925c1.872,6.681,7.152,9.993,14.012,8.745
		c4.965-0.903,8.898-3.621,12.465-6.934c1.206-1.121,2.004-2.682,2.988-4.043c0.309,0.202,0.619,0.405,0.928,0.607
		c0-7.147,0-14.295,0-21.442c0-5.833,0.005-11.665-0.004-17.498c-0.002-1.332,0.011-2.669-0.091-3.996
		c-0.514-6.736-2.238-8.608-8.872-10.053c-1.339-0.292-3.664,0.702-3.572-2.48c3.997-1.167,8.116-0.394,12.156-0.534
		c4.156-0.144,8.321-0.032,12.392-0.032c1.466,1.552,0.844,3.304,0.853,4.887c0.089,15.996,0.134,31.993,0.136,47.989
		c0,2.692,0.344,5.313,0.983,7.907c1.017,4.13,2.603,5.2,6.762,4.593C897.879,405.33,899.017,405.11,900.578,404.843z"/>
	<path style="fill:#293C72;" d="M1346.722,404.047c-3.387,2.568-6.568,4.943-9.706,7.372c-2.953,2.285-6.271,3.773-9.921,4.388
		c-10.745,1.811-19.752-5.183-20.947-16.186c-0.774-7.12,1.268-13.07,7.021-17.657c4.72-3.764,9.923-6.655,15.411-9.056
		c5.916-2.589,11.899-5.027,18.141-7.652c0.691-5.179-0.051-10.36-1.702-15.451c-0.643-1.985-1.929-3.484-3.781-4.439
		c-4.219-2.175-8.644-2.457-13.02-0.772c-4.558,1.755-6.171,4.872-5.553,9.793c0.25,1.994,0.374,3.939-0.469,5.876
		c-1.475,3.391-4.094,5.093-7.401,4.636c-2.821-0.389-5.325-2.885-5.772-6.068c-0.91-6.481,2.193-11.224,6.987-15.042
		c3.433-2.734,7.437-4.272,11.776-5.047c6.818-1.218,13.561-1.164,20.195,0.943c7.529,2.392,11.388,7.425,12.048,15.329
		c1.053,12.622,0.491,25.268,0.647,37.903c0.029,2.327,0.152,4.653,0.206,6.981c0.039,1.694,0.361,3.289,1.527,4.793
		c4.886,2.044,6.668-3.02,10.279-4.75c0.729,1.18,0.84,2.538,0.148,3.564c-3.389,5.03-7.375,9.511-13.376,11.419
		c-6.24,1.985-10.77-0.791-12.235-7.241C1346.976,406.599,1346.912,405.47,1346.722,404.047z M1346.851,370.62
		c-4.384,1.272-8.012,2.885-11.548,4.661c-2.957,1.485-5.945,3.022-8.598,4.973c-5.353,3.939-7.9,9.225-6.746,16.029
		c1.271,7.496,7.957,11.568,15.197,9.129c4.475-1.508,8.267-4.118,11.695-7.283C1346.851,389.04,1346.851,380.087,1346.851,370.62z"
		/>
	<path style="fill:#273B71;" d="M488.878,373.791c0.275-9.366,4.572-20.644,14.697-28.932c15.367-12.58,42.069-10.519,53.288,13.858
		c7.335,15.937,2.291,38.315-10.898,49.857c-10.425,9.124-35.032,12.937-48.845-5.668
		C491.504,395.342,488.674,386.804,488.878,373.791z M544.985,381.409c0-1.995,0.143-4.002-0.025-5.983
		c-0.737-8.706-2.632-17.069-7.868-24.315c-4.333-5.997-10.116-9.004-17.615-8.024c-7.148,0.934-10.957,5.778-13.28,12.009
		c-1.814,4.867-2.295,10.011-2.302,15.192c-0.017,11.689,2.129,22.781,9.04,32.541c4.252,6.005,10.031,8.582,17.303,7.287
		c6.783-1.208,10.609-5.83,12.736-11.992C544.837,392.729,545.272,387.092,544.985,381.409z"/>
	<path style="fill:#253A70;" d="M1454.992,413.835c0.006-0.517,0.012-1.034,0.017-1.551c1.377-0.421,2.736-0.92,4.135-1.248
		c5.985-1.403,6.869-2.287,7.583-8.027c0.143-1.149,0.092-2.324,0.093-3.488c0.005-25.781,0.016-51.561-0.02-77.342
		c-0.003-2.146-0.228-4.307-0.532-6.435c-0.729-5.108-2.667-6.386-7.87-5.328c-0.631,0.128-1.245,0.348-1.686,0.474
		c-1.097-0.399-1.484-1.096-1.855-2.659c8.078-3.098,15.823-7.309,24.052-9.339c1.108,0.854,1.256,1.48,1.255,2.163
		c-0.042,23.615-0.085,47.231-0.127,70.846c0.005,0.745,0.009,1.491,0.014,2.236c0.042,7.302,0.146,14.603,0.095,21.904
		c-0.021,3.004,0.36,5.954,0.781,8.898c0.584,4.078,2.265,5.631,6.347,6.376c1.584,0.289,3.273,0.193,4.659,1.015
		c0.397,1.399-0.174,2.014-1.38,2.13c-0.989,0.095-1.984,0.181-2.977,0.182c-9.794,0.013-19.588,0.019-29.382-0.008
		C1457.088,414.631,1455.829,415.01,1454.992,413.835z"/>
	<path style="fill:#283C72;" d="M1052.165,315.612c0,8.119,0,16.05,0,24.328c5.849,0,11.29,0,16.539,0
		c1.406,1.823,1.042,3.412,0.553,5.286c-5.461,1.188-11.139-0.234-16.553,0.75c-0.898,1.792-0.493,3.483-0.498,5.109
		c-0.038,13.331,0.017,26.663-0.054,39.994c-0.014,2.684,0.36,5.301,0.692,7.936c0.403,3.198,1.818,5.855,4.992,6.852
		c3.088,0.97,5.928-0.095,8.259-2.293c0.838-0.79,1.478-1.788,2.22-2.68c0.717-0.862,1.551-1.206,2.593-0.55
		c-1.912,8.322-9.266,14.782-17.365,15.273c-5.569,0.338-11.902-4.264-13.615-9.762c-1.318-4.23-1.045-8.581-1.076-12.886
		c-0.099-13.997-0.028-27.995-0.05-41.993c-0.003-1.629,0.276-3.306-0.489-5.256c-3.611,0-7.223,0-10.622,0
		c-1.083-1.794-0.796-2.885,0.689-3.621c9.993-4.959,15.626-13.587,19.88-23.432C1048.843,317.318,1048.921,315.13,1052.165,315.612
		z"/>
	<path style="fill:#2C3E73;" d="M1480.051,374.137c-0.005-0.745-0.009-1.491-0.014-2.236c0.692,0.222,1.289,0.065,1.82-0.427
		c7.568-7.016,15.133-14.037,22.714-21.039c1.819-1.68,2.25-3.6,1.268-5.772c-1.051-1.686-2.986-1.345-4.254-2.009
		c-0.635-0.735-0.376-1.372-0.176-2.177c10.661,0,21.359,0,31.97,0c0.493,1.93-0.285,2.486-1.722,2.53
		c-7.745,0.238-13.989,3.748-19.472,8.931c-6.038,5.707-12.091,11.399-18.313,17.262c9.347,11.955,18.215,23.966,28.11,35.177
		c4.04,4.578,9.061,7.052,14.829,7.652c0.563,1.522,0.289,2.371-0.974,2.588c-0.811,0.14-1.661,0.059-2.494,0.059
		c-9.663,0.002-19.325,0.006-28.988-0.005c-0.982-0.001-2.006,0.181-2.89-0.459c-0.932-1.781,0.203-2.389,1.613-2.808
		c1.314-0.39,2.498-0.932,3.13-2.389c0.478-1.93-0.625-3.491-1.722-4.912c-7.325-9.484-14.716-18.917-22.097-28.358
		C1481.788,374.977,1481.229,374.091,1480.051,374.137z"/>
	<path style="fill:#2C3E73;" d="M987.5,414.354c-0.454-1.189-0.482-1.978,0.098-2.961c0.485-0.1,1.108-0.294,1.743-0.348
		c6.338-0.541,8.556-2.386,8.735-8.462c0.47-15.983,0.473-31.976-0.049-47.96c-0.143-4.394-2.06-5.866-6.418-5.671
		c-1.328,0.06-2.625,0.255-3.642,0.836c-1.111-0.449-1.314-1.287-1.877-2.579c8.342-3.371,16.451-7.247,24.878-9.718
		c1.533,1.968,1.021,3.523,1.024,4.961c0.039,18.493,0.022,36.986,0.034,55.479c0.001,1.663-0.024,3.344,0.19,4.987
		c0.715,5.503,2.75,7.424,8.338,8.077c0.648,0.076,1.296,0.157,1.8,0.218c1.095,0.904,0.881,1.851,0.43,3.141
		C1011.154,414.354,999.424,414.354,987.5,414.354z"/>
	<path style="fill:#2A3D73;" d="M1013.013,307.355c0.014,4.83-3.244,8.072-8.076,8.038c-4.917-0.035-7.985-3.172-7.949-8.129
		c0.036-4.9,3.248-8.154,8.035-8.141C1009.668,299.136,1012.999,302.568,1013.013,307.355z"/>
	<path style="fill:#374579;" d="M1578.308,397.887c1.939,2.358,3.57,4.053,3.997,6.673c-1.215,0.849-2.333,0.931-3.24-0.433
		c-0.735-1.105-1.315-2.312-2.023-3.436c-1.044-1.657-2.421-2.729-4.434-2.356c-2.042,1.856,1.273,5.829-3.092,7.014
		c-1.022-2.888-0.411-5.693-0.52-8.417c-0.111-2.801-0.025-5.61-0.025-8.67c2.679-0.537,5.146-0.304,7.585-0.206
		c2.257,0.09,4.408,0.713,5.196,3.125c0.746,2.286-0.057,4.254-1.952,5.74C1579.415,397.222,1578.977,397.457,1578.308,397.887z
		 M1572.448,395.19c2.268-0.001,4.433,0.56,6.352-0.645c0.414-1.333,0.289-2.415-0.941-3.352c-1.781-0.449-3.695-0.337-5.483-0.089
		C1571.76,392.541,1571.777,393.637,1572.448,395.19z"/>
	<path style="fill:#253C73;" d="M237.01,380.982c1.869-2.071,1.924-4.103,1.913-6.236c-0.064-12.328-0.024-24.656-0.038-36.985
		c-0.002-1.95,0.462-4.031-2.507-6.102c9.811,0.118,18.45-0.463,27.041,0.471c4.061,0.441,7.404,2.66,9.721,6.286
		c4.633,7.249,5.521,15.203,4.475,23.469c-0.328,2.596-0.966,5.186-1.937,7.696c-2.782,7.188-8.304,10.817-15.602,11.293
		C252.624,381.36,245.114,380.982,237.01,380.982z M247.088,372.662c4.329,0,8.292,0.147,12.24-0.039
		c4.481-0.211,7.394-2.747,8.673-6.972c1.912-6.32,1.855-12.711-0.045-19.017c-1.021-3.387-3.386-5.909-6.866-6.525
		c-4.52-0.801-9.143-1.277-14.001-0.477C247.088,350.514,247.088,361.247,247.088,372.662z"/>
	<path style="fill:#253A70;" d="M79.296,331.909c5.029,0,8.802,0,12.685,0c0.065,1.767-1.005,3.265,0.183,4.897
		c6.631,9.112,13.154,18.304,20.14,27.343c-0.056-10.674,1.333-21.283-0.588-32.181c2.668-0.617,5.854-0.302,9.117-0.088
		c-1.247,4.631-1.129,44.908,0.124,48.934c-3.523,0-6.992,0-10.461,0c-0.619-1.058,1.255-1.589,0.628-2.718
		c-7.056-9.981-14.111-19.963-21.529-30.457c-1.328,11.597-0.763,30.087,0.968,33.204c-3.385,0-6.691,0-10.402,0
		c1.414-1.885,1.788-3.832,1.776-5.975c-0.074-12.331-0.063-24.662-0.009-36.993C81.935,335.82,81.789,333.91,79.296,331.909z"/>
	<path style="fill:#233970;" d="M228.298,381.788c-6.479-1.491-12.468-0.604-18.393-0.765c-5.813-0.158-11.634-0.034-17.95-0.034
		c1.274-1.924,2.152-3.45,2.129-5.533c-0.145-12.821-0.12-25.645-0.021-38.466c0.015-1.923-0.42-3.47-2.537-5.299
		c5.187,0,9.485,0,13.783,0c5.662,0,11.324-0.024,16.986,0.012c2.177,0.014,4.369,0.203,5.55-2.35c0,3.942,0,7.885,0,12.237
		c-1.472-1.157-2.626-2.368-4.562-2.33c-6.807,0.134-13.618,0.052-20.685,0.052c-1.034,4.103-0.239,7.986-0.517,12.374
		c4.906,0,9.361-0.078,13.812,0.036c1.915,0.049,2.579-1.623,3.993-2.684c0,4.338,0,8.32,0,12.348
		c-1.368-0.248-1.24-1.918-2.406-2.22c-4.954,0.001-9.909,0.001-15.121,0.001c0,4.416,0,8.661,0,12.89
		c6.293,1.321,22.516,0.89,25.614-0.756C228.64,374.788,228.189,378.197,228.298,381.788z"/>
	<path style="fill:#253C73;" d="M30.412,331.868c4.597,0,7.873,0,11.044,0c-1.139,11.433-0.745,22.77-0.247,34.091
		c0.186,4.223,2.277,6.143,6.416,7.075c0.973,0.219,1.96,0.556,2.937,0.544c6.253-0.072,11.584-1.427,11.374-10.262
		c-0.205-8.649-0.038-17.306-0.05-25.96c-0.002-1.794,0.368-3.71-1.872-5.15c3.828-0.95,7.226-0.383,11.411-0.492
		c-2.353,2.714-2.369,5.405-2.344,8.166c0.073,8.32,0.036,16.642,0.017,24.962c-0.004,1.662,0.051,3.352-0.213,4.981
		c-1.105,6.825-5.235,10.847-12.753,11.935c-3.58,0.518-7.246,0.551-10.89-0.337c-8.563-2.088-11.932-5.703-12.192-14.45
		c-0.281-9.477-0.133-18.967-0.153-28.452C32.894,336.36,33.189,334.151,30.412,331.868z"/>
	<path style="fill:#233970;" d="M163.285,339.551c-4.641-0.172-9.005-0.985-13.413,0.985c0-3.357,0-6.636,0-10.651
		c1.601,2.029,3.371,1.815,5.112,1.812c8.487-0.013,16.974-0.011,25.461-0.003c2.125,0.002,4.404,0.411,5.449-2.277
		c0,3.983,0,7.966,0,12.037c-4.221-3.915-9.155-1.435-13.388-2.143c-1.686,1.497-1.168,3.093-1.174,4.525
		c-0.041,9.985,0.03,19.97-0.057,29.954c-0.023,2.574,0.158,4.948,2.909,7.018c-4.372,0-7.969,0-11.968,0
		c0.557-1.624,1.55-3.003,1.531-4.793c-0.121-11.481-0.063-22.964-0.082-34.447C163.665,341.087,163.491,340.606,163.285,339.551z"
		/>
	<path style="fill:#233970;" d="M131.351,331.847c4.352,0,7.63,0,11.638,0c-1.856,1.765-2.04,3.554-2.031,5.487
		c0.059,12.634,0.065,25.269-0.005,37.904c-0.011,2.064,0.255,3.896,2.396,5.586c-4.284,0-7.896,0-12.038,0
		c1.466-1.865,1.623-3.816,1.615-5.857c-0.049-12.468-0.02-24.937-0.03-37.405C132.896,335.747,133.221,333.866,131.351,331.847z"/>
</g>
</svg>
