<?xml version="1.0" encoding="iso-8859-1"?>
<!-- Generator: Adobe Illustrator 27.0.0, SVG Export Plug-In . SVG Version: 6.00 Build 0)  -->
<svg version="1.1" id="Layer_1" xmlns="http://www.w3.org/2000/svg" xmlns:xlink="http://www.w3.org/1999/xlink" x="0px" y="0px"
	 viewBox="0 0 1549 878" style="enable-background:new 0 0 1549 878;" xml:space="preserve">
<g>
	<path style="fill:#22356B;" d="M993,0c0.309,1.072,1.201,0.915,2.003,0.954c32.638,1.604,64.214,8.469,94.812,19.723
		c34.944,12.852,66.785,31.207,95.489,54.975c32.987,27.313,59.437,59.972,79.992,97.476c0.395,0.721,0.711,1.486,1.261,2.647
		c-51.411,17.721-102.677,35.392-154.185,53.146c-2.861-4.726-5.517-9.503-8.538-14.039c-23.42-35.165-55.827-57.393-97.017-66.571
		c-18.199-4.055-36.597-4.061-55.108-1.595c-24.672,3.287-47.359,11.719-68.063,25.345c-25.344,16.68-44.314,39.082-57.674,66.234
		c-9.77,19.857-16.056,40.813-18.072,62.871c-3.863,42.268,0.804,83.388,18.031,122.547c12.307,27.975,30.437,51.518,55.257,69.551
		c19.227,13.97,40.708,22.94,63.985,27.781c16.907,3.517,33.977,4.77,51.156,3.865c27.609-1.456,53.39-8.926,76.147-25.111
		c25.464-18.111,41.108-43.021,49.528-72.788c0.361-1.276,0.647-2.573,0.957-3.862c0.038-0.157,0.005-0.332,0.005-0.948
		c-53.403,0-106.791,0-160.491,0c0-43.851,0-87.255,0-131.021c114.327,0,228.687,0,342.984,0c0.168,0.21,0.363,0.34,0.364,0.47
		c0.047,17.152,0.543,34.305-0.439,51.453c-0.657,11.476-1.644,22.904-3.216,34.297c-4.384,31.775-12.677,62.465-25.24,91.981
		c-18.845,44.277-45.782,82.898-81.296,115.411c-37.2,34.056-80.294,57.686-128.675,71.671
		c-16.623,4.805-33.607,8.249-50.789,10.193c-16.711,1.891-33.53,2.89-50.381,2.332c-61.216-2.027-117.967-18.771-169.253-52.513
		c-52.942-34.831-92.222-81.542-118.434-139.203c-11.948-26.284-20.201-53.722-25.236-82.17c-3.638-20.56-5.306-41.275-5.513-62.103
		c-0.558-56.314,12.274-109.474,38.812-159.136c14.258-26.682,31.844-51.076,52.969-72.87
		c37.154-38.332,81.009-66.074,131.43-83.417c22.231-7.647,45.165-12.39,68.478-15.291c4.951-0.616,9.942-0.915,14.914-1.36
		c3.325-0.021,6.65-0.042,9.975-0.064c7.382,0.063,14.763,0.125,22.145,0.19C986.917,1.06,987.718,1.008,988,0
		C989.667,0,991.333,0,993,0z"/>
	<path style="fill:#24376C;" d="M1549,876c-7.319,0-14.638,0-22.25,0c-32.266-36.77-64.642-73.664-97.579-111.198
		c0,36.424,0,72.075,0,108.053c-10.626,0-20.855,0-31.109,0c-0.942-3.385-1.137-158.716-0.132-164.229c6.877,0,13.817,0,21.401,0
		c32.188,36.792,64.71,73.967,97.975,111.99c0-36.752,0-72.348,0-108.617c10.82,0,21.257,0,31.694,0
		C1549,766.667,1549,821.333,1549,876z"/>
	<path style="fill:#23366C;" d="M213,878c-3.625-2.219-7.884-1.92-11.822-2.844c-31.912-7.482-58.041-35.685-63.252-67.951
		c-6.05-37.462,12.727-72.098,43.204-88.681c15.093-8.212,31.291-11.831,48.561-9.75c36.604,4.411,61.024,24.593,72.378,59.057
		c9.702,29.449,3.274,56.801-16.764,80.628c-10.327,12.28-23.529,20.408-38.68,25.403c-4.895,1.614-10.01,2.39-15.112,3.126
		c-0.903,0.13-2.069-0.297-2.513,1.011C223.667,878,218.333,878,213,878z M278.231,793.067c-0.126-2.494-0.062-5.014-0.405-7.478
		c-5.084-36.531-44.249-57.48-77.306-41.155c-18.102,8.94-28.652,23.874-30.251,43.902c-1.496,18.729,5.532,34.553,20.555,46.315
		c12.056,9.438,26.133,12.352,41.087,12.15C261.009,841.617,278.324,818.433,278.231,793.067z"/>
	<path style="fill:#717197;" d="M1549,656l-0.435,0.217l-0.474-0.111c-0.035-2.164-0.102-4.328-0.102-6.491
		c-0.009-211.857-0.014-423.714-0.018-635.571c0.343-0.014,0.686-0.029,1.029-0.043C1549,228,1549,442,1549,656z"/>
	<path style="fill:#717197;" d="M988,0c-0.282,1.008-1.083,1.06-1.925,1.052c-7.382-0.065-14.763-0.127-22.145-0.19
		C963.987,0.578,964.01,0.29,964,0C972,0,980,0,988,0z"/>
	<path style="fill:#717197;" d="M0.983,804.021C0.656,804.014,0.328,804.007,0,804c0-7,0-14,0-21
		c0.328-0.007,0.656-0.014,0.983-0.021C0.983,789.993,0.983,797.007,0.983,804.021z"/>
	<path style="fill:#717197;" d="M670.089,877.079c-0.217,0.289-0.246,0.596-0.089,0.921c-7,0-14,0-21,0
		c-0.004-0.33-0.008-0.661-0.012-0.991C656.022,877.032,663.055,877.055,670.089,877.079z"/>
	<path style="fill:#717197;" d="M1297.04,877.033c-0.013,0.322-0.027,0.645-0.04,0.967c-6,0-12,0-18,0
		c-0.015-0.321-0.03-0.642-0.045-0.963C1284.984,877.036,1291.012,877.034,1297.04,877.033z"/>
	<path style="fill:#9C9BB6;" d="M964,0c0.01,0.29-0.013,0.578-0.07,0.863c-3.325,0.021-6.65,0.042-9.975,0.064
		C954.12,0.625,954.135,0.316,954,0C957.333,0,960.667,0,964,0z"/>
	<path style="fill:#22356B;" d="M391.856,14.022c62.145,0,124.265,0,186.366,0c1.121,1.147,0.643,2.556,0.643,3.829
		c0.012,130.657,0.063,261.315-0.075,391.972c-0.023,21.318-1.435,42.593-4.811,63.688c-5.105,31.899-14.98,62.012-34.053,88.486
		c-15.809,21.943-35.026,40.509-57.157,56.065c-30.343,21.329-63.842,35.305-100.048,42.948c-27.63,5.833-55.57,8.267-83.813,8.07
		c-20.36-0.142-40.642-1.347-60.734-4.332c-41.304-6.137-80.724-18.259-116.359-40.547c-28.615-17.897-53.88-39.68-72.877-67.998
		c-12.182-18.159-20.055-38.176-24.857-59.428c-4.154-18.384-6.153-37.046-7.297-55.848c-0.892-14.656-0.885-29.31-0.889-43.97
		c-0.033-125.824-0.019-251.649-0.019-377.473c0-1.652,0-3.304,0-5.308c61.938,0,123.676,0,185.721,0
		c1.043,1.5,0.431,3.551,0.431,5.459c0.034,119.491,0.03,238.983,0.033,358.474c0,10.333-0.156,20.669,0.083,30.997
		c0.443,19.171,2.088,38.207,7.857,56.648c4.378,13.996,10.931,26.737,21.523,37.157c11.316,11.131,25.212,17.113,40.515,20.028
		c13.989,2.665,28.096,2.734,42.29,1.428c7.168-0.659,14.178-1.815,21.072-3.704c23.375-6.406,38.285-21.829,46.382-44.229
		c4.833-13.37,7.041-27.299,8.354-41.423c1.267-13.636,1.208-27.292,1.211-40.95c0.027-124.658,0.014-249.316,0.036-373.973
		C391.384,18.131,390.985,16.114,391.856,14.022z"/>
	<path style="fill:#22356B;" d="M1547.971,14.043c0.005,211.857,0.009,423.714,0.018,635.571c0,2.164,0.066,4.328,0.102,6.491
		c-2.444,0.632-4.948,0.531-7.431,0.532c-50.649,0.018-101.299,0.016-151.948-0.003c-1.299,0-2.655,0.321-4.193-0.507
		c0-213.854,0-427.837,0-641.732c1.375-0.914,2.74-0.559,4.029-0.559c52.149-0.02,104.298-0.018,156.447-0.007
		C1545.987,13.83,1546.979,13.969,1547.971,14.043z"/>
	<path style="fill:#24376C;" d="M769.618,712.694c1.53-0.98,3.063-0.541,4.508-0.548c15.329-0.078,30.658-0.07,45.987-0.162
		c11.418-0.069,22.027,2.875,31.851,8.564c10.377,6.009,16.532,15.354,19.365,26.72c3.891,15.614,2.173,30.425-8.294,43.369
		c-6.367,7.874-14.448,13.155-24.457,15.271c-0.606,0.128-1.307,0.014-1.705,0.669c2.066,3.902,42.491,56.985,46.593,61.031
		c22.442-52.795,44.792-105.374,67.178-158.038c7.915,0,15.531,0,23.616,0c22.521,54.442,45.087,108.993,67.831,163.977
		c-11.288,0-22.164,0-33.624,0c-4.548-10.924-9.241-22.196-14.044-33.734c-21.732-0.207-43.304-0.905-65.506-0.54
		c-4.792,11.051-9.652,22.257-14.683,33.859c-22.045,0-44.135,0-66.476,0c-14.383-21.334-28.776-42.683-43.061-63.872
		c-1.467-0.792-2.741-0.75-4.519-0.013c0,21.047,0,42.288,0,63.73c-10.419,0-20.349,0-30.56,0
		C769.618,819.435,769.618,766.037,769.618,712.694z M799.767,785.909c6.812,0.048,13.235,0.445,19.651-0.856
		c11.05-2.241,22.018-9.428,20.742-25.874c-0.553-7.136-3.455-12.779-9.558-16.53c-9.59-5.895-20.179-5-30.836-4.884
		C799.767,754.056,799.767,769.674,799.767,785.909z M962.299,756.059c-7.973,20.112-15.549,39.225-23.224,58.586
		c15.354,0,30.113,0,45.658,0C977.282,795.189,969.993,776.152,962.299,756.059z"/>
	<path style="fill:#23366C;" d="M670.089,877.079c-7.033-0.023-14.067-0.046-21.1-0.069c-19.896-1.739-36.636-10.157-50.692-24.121
		c-11.893-11.814-19.699-26.022-22.727-42.446c-5.06-27.447,1.096-52.217,19.677-73.38c13.062-14.876,29.466-24.327,49.046-27.464
		c29.244-4.684,55.284,2.511,76.715,23.302c13.501,13.098,21.504,29.337,24.096,48.159c3.203,23.257-2.217,44.297-16.282,62.951
		c-12.946,17.17-30.377,27.513-51.331,31.998C675.058,876.529,672.557,876.73,670.089,877.079z M715.112,792.291
		c0.048-3.13-0.291-6.746-1.015-10.366c-6.688-33.469-43.521-52.574-74.595-38.458c-18.736,8.512-29.958,23.219-32.177,43.618
		c-2.043,18.782,4.968,34.638,19.493,46.8c12.194,10.21,26.791,13.144,42.27,12.892
		C698.401,841.359,715.306,818.099,715.112,792.291z"/>
	<path style="fill:#23366C;" d="M1297.04,877.033c-6.028,0.001-12.057,0.003-18.085,0.004c-31.242-4.16-54.11-20.29-67.714-48.67
		c-15.577-32.495-7.829-71.486,18.559-96.691c17.103-16.336,37.711-24.467,61.151-23.346c34.2,1.635,59.11,18.595,73.971,49.366
		c17.086,35.378,6.031,78.71-25.401,102.44C1326.892,869.672,1312.825,875.484,1297.04,877.033z M1236.797,793.186
		c-0.063,3.684,0.45,8.292,1.715,12.813c8.077,28.862,31.752,39.843,55.921,40.98c4.552,0.214,8.809-1.284,13.118-2.598
		c27.176-8.286,43.352-37.675,35.349-65.958c-8.913-31.498-41.654-47.021-70.61-36.241
		C1250.452,750.311,1236.556,770.327,1236.797,793.186z"/>
	<path style="fill:#23366C;" d="M331.243,712.126c11.274,0,22.087,0.014,32.899-0.006c5.996-0.011,11.992-0.078,17.989-0.123
		c10.868-0.082,21.017,2.6,30.532,7.832c13.906,7.647,20.427,20.087,22.184,35.21c1.001,8.621,0.297,17.261-3.432,25.404
		c-4.719,10.306-14.083,21.949-33.095,26.165c16.662,22.031,33.177,43.867,50.099,66.242c-13.366,0-26.054,0-39.136,0
		c-6.631-9.809-13.432-19.837-20.199-29.888c-6.872-10.207-13.674-20.461-20.601-30.631c-1.2-1.762-2.043-4.519-5.757-3.178
		c0,21.063,0,42.297,0,63.778c-10.756,0-20.995,0-31.482,0C331.243,819.446,331.243,766.052,331.243,712.126z M362.389,785.833
		c7.629,0.247,15.013,0.628,22.317-1.463c3.56-1.019,6.848-2.468,9.834-4.615c12.061-8.672,11.406-30.96-2.598-37.995
		c-9.47-4.758-19.417-4.125-29.553-3.964C362.389,754.106,362.389,769.82,362.389,785.833z"/>
	<path style="fill:#23366B;" d="M492.869,872.963c-10.536,0-20.634,0-31.092,0c0-53.537,0-107.021,0-160.402
		c1.733-0.703,3.246-0.407,4.724-0.423c15.815-0.174,31.633,0.261,47.448-0.294c9.3-0.327,18.097,1.908,26.591,5.626
		c11.127,4.871,18.823,13.223,23.184,24.246c5.925,14.975,6.21,30.36-0.881,45.017c-8.294,17.145-22.488,26.231-41.567,27.158
		c-7.307,0.355-14.649,0.01-21.975-0.014c-1.637-0.005-3.275-0.001-5.303-0.001C492.981,833.676,493.109,853.223,492.869,872.963z
		 M493.05,787.682c7.037,0.344,13.494,0.215,19.924-0.594c13.615-1.711,21.887-8.131,22.675-22.486
		c0.624-11.358-3.415-19.947-15.439-23.689c-8.903-2.771-17.994-1.74-27.161-1.888C493.05,755.451,493.05,771.362,493.05,787.682z"
		/>
	<path style="fill:#24376C;" d="M0.983,804.021c0-7.014,0-14.028,0-21.042c1.874-16.501,8.386-31.016,19.059-43.634
		c13.41-15.852,30.465-25.428,50.953-28.81c17.389-2.871,34.108-0.61,50.091,6.851c0.868,0.405,1.914,0.668,2.622,1.917
		c0,11.51,0,23.315,0,35.689C111.2,743.529,96.92,737.1,80.03,739.337c-13.685,1.813-25.068,8.449-33.976,19.131
		c-16.662,19.98-16.405,50.451,0.566,69.751c10.022,11.398,22.439,18.232,37.697,18.822c15.219,0.588,27.987-5.766,39.423-16.013
		c0,12.542,0,24.489,0,36.567c-8.409,4.338-17.364,6.797-26.552,8.233c-20.668,3.23-40.133-0.422-57.809-11.718
		C17.392,850.058,4.432,830.025,0.983,804.021z"/>
	<path style="fill:#25386C;" d="M1072.055,739.484c-12.393,0-24.009,0-35.825,0c0-9.087,0-17.869,0-27.009
		c34.334,0,68.702,0,103.37,0c0,8.886,0,17.776,0,27.151c-11.858,0-23.598,0-35.842,0c0,44.692,0,88.904,0,133.337
		c-10.761,0-21.006,0-31.703,0C1072.055,828.583,1072.055,784.355,1072.055,739.484z"/>
	<path style="fill:#27396D;" d="M1182.494,873.005c-10.366,0-20.476,0-30.865,0c0-53.552,0-106.939,0-160.61
		c10.223,0,20.316,0,30.434,0C1183.062,716.05,1183.508,859.311,1182.494,873.005z"/>
</g>
</svg>
