<?xml version="1.0" encoding="iso-8859-1"?>
<!-- Generator: Adobe Illustrator 27.0.0, SVG Export Plug-In . SVG Version: 6.00 Build 0)  -->
<svg version="1.1" id="Layer_1" xmlns="http://www.w3.org/2000/svg" xmlns:xlink="http://www.w3.org/1999/xlink" x="0px" y="0px"
	 viewBox="0 0 1585 447.296" style="enable-background:new 0 0 1585 447.296;" xml:space="preserve">
<g>
	<path style="fill:#D52244;" d="M0,145c1.163-0.049,2.327-0.141,3.49-0.141c51.658-0.007,103.316-0.006,154.973-0.006
		c1.315,0,2.63,0,4.266,0c0,7.597,0,14.974,0,22.648c-11.786,0-23.41,0-34.675,0c-1.632,1.304-1.159,2.734-1.159,3.992
		c-0.006,62.489,0.006,124.978,0.042,187.467c0.005,8.856,1.057,17.573,3.852,26.029c4.87,14.73,14.944,24.176,29.709,28.335
		c11.815,3.328,23.939,3.952,36.082,1.792c21.133-3.758,36.689-18.678,41.4-39.549c1.285-5.692,2.022-11.448,2.022-17.296
		c-0.007-62.156-0.001-124.312-0.02-186.468c0-1.292,0.379-2.673-0.738-4.165c-11.393,0-23.006,0-34.944,0c0-7.67,0-15.038,0-22.524
		c33.402,0,66.634,0,99.998,0c0,7.507,0,14.747,0,22.382c-12.068,0-23.845,0-35.399,0c-1.357,2.067-0.806,3.955-0.808,5.73
		c-0.055,56.823-0.037,113.647-0.111,170.47c-0.019,14.831-0.726,29.646-4.998,43.973c-5.656,18.969-16.891,33.643-34.208,43.592
		c-12.324,7.08-25.736,10.532-39.594,12.737c-10.045,1.599-20.193,2.381-30.317,2.508c-22.398,0.281-44.539-1.706-65.501-10.543
		c-16.918-7.133-31.219-17.629-41.724-32.926c-6.705-9.764-10.601-20.612-12.623-32.208c-2.181-12.505-2.793-25.129-2.8-37.788
		c-0.032-53.157-0.012-106.315-0.035-159.472c-0.001-1.792,0.316-3.632-0.309-5.445c-1.47-0.813-2.993-0.476-4.431-0.453
		C20.96,167.841,10.472,167.216,0,168C0,160.333,0,152.667,0,145z"/>
	<path style="fill:#D52244;" d="M1585,359c-1.831,1.986-1.357,4.632-1.785,6.946c-6.149,33.292-25.063,56.691-55.438,70.807
		c-14.769,6.863-30.664,9.727-46.956,10.145c-12.496,0.32-24.939,0.163-37.26-2.505c-15.655-3.391-29.97-9.666-42.978-18.993
		c-1.33-0.953-2.478-2.234-4.391-2.738c-2.783,5.628-3.777,11.958-6.525,17.771c-8.781,0-17.55,0-26.611,0
		c0-32.12,0-64.027,0-96.257c9.067,0,18.153,0,27.581,0c1.574,3.586,1.41,7.813,2.377,11.785
		c4.521,18.554,12.987,34.849,27.367,47.684c14.758,13.173,32.114,19.708,51.925,19.646c8.54-0.027,16.914-1.026,24.924-4.188
		c12.24-4.832,21.574-12.631,24.889-25.875c4.019-16.058-0.767-30.968-14.763-40.76c-11.837-8.282-25.112-13.567-38.562-18.388
		c-12.804-4.589-25.802-8.639-38.685-13.011c-13.894-4.715-27.249-10.545-39.29-19.105c-17.579-12.496-28.07-29.471-31.699-50.611
		c-2.319-13.511-3.152-27.089,0.375-40.601c5.868-22.474,19.134-39.654,38.101-52.518c24.323-16.496,51.311-21.806,80.322-18.621
		c12.304,1.351,24.262,3.745,35.718,8.478c6.794,2.807,13.019,6.633,19.177,10.589c0.803,0.516,1.44,1.466,2.704,1.155
		c1.531-4.804,1.884-9.974,3.703-14.817c8.849,0,17.464,0,26.37,0c0,27.887,0,55.61,0,83.589c-8.747,0-17.346,0-26.136,0
		c-0.928-1.052-1.138-2.508-1.514-3.945c-4.675-17.875-12.664-33.893-26.378-46.659c-12.469-11.607-26.967-17.867-44.271-17.326
		c-7.908,0.247-15.6,1.253-22.862,4.361c-11.725,5.018-19.952,13.161-21.806,26.344c-1.544,10.981,2.335,20.293,9.677,28.239
		c7.279,7.878,16.515,12.751,26.423,16.483c11.037,4.158,22.428,7.217,33.649,10.802c14.244,4.55,28.332,9.416,41.77,16.078
		c23.8,11.799,39.766,30.139,47.066,55.788c1.499,5.266,2.787,10.608,2.852,16.146c-0.032,6.38-0.06,12.759-0.099,19.139
		c-0.005,0.85,0.064,1.63,1.038,1.943C1585,357,1585,358,1585,359z"/>
	<path style="fill:#D42144;" d="M731,0c0.222,0.764,0.822,0.866,1.51,0.973c24.193,3.767,42.496,22.677,46.142,46.168
		c5.106,32.89-17.348,58.645-43.912,64.037c-28.786,5.843-56.406-10.474-65.131-37.334c-9.761-30.049,6.386-61.587,36.599-71.35
		C709.114,1.555,712.38,1.917,715,0C720.333,0,725.667,0,731,0z"/>
	<path style="fill:#DF706C;" d="M1585,356c-0.974-0.312-1.043-1.092-1.038-1.943c0.04-6.38,0.068-12.759,0.099-19.139
		c0.298,0.202,0.61,0.229,0.938,0.081C1585,342,1585,349,1585,356z"/>
	<path style="fill:#D52244;" d="M353.561,167.631c-9.909,0-19.663,0-29.638,0c0-7.752,0-15.001,0-22.515c38.791,0,77.391,0,116.3,0
		c38.612,53.949,77.336,108.055,116.541,162.831c0-47.051,0-93.334,0-140.21c-11.673,0-23.392,0-35.399,0c0-7.819,0-15.053,0-22.587
		c33.288,0,66.534,0,100.1,0c0,7.224,0,14.474,0,21.954c-3.882,1.096-7.877,0.402-11.811,0.518c-3.996,0.118-8-0.031-11.998,0.042
		c-3.971,0.072-7.96-0.328-12.471,0.332c0,45.344,0,90.626,0,135.907c0,45.317,0,90.634,0,136.656
		c-15.122,0.176-29.994,0.061-44.828,0.084c-52.659-73.451-105.068-146.552-158.148-220.59c0,66.587,0,131.943,0,197.777
		c12.325,0,24.728,0,37.411,0c0,7.705,0,14.938,0,22.496c-33.894,0-67.66,0-101.69,0c-1.354-3.433-0.428-7.107-0.592-10.678
		c-0.167-3.639-0.037-7.292-0.037-11.411c12.137,0,24.039,0,36.258,0C353.561,334.552,353.561,251.344,353.561,167.631z"/>
	<path style="fill:#D42244;" d="M1014.561,160.436c1.245-5.393,2.362-10.236,3.535-15.316c8.818,0,17.57,0,26.595,0
		c0,27.799,0,55.525,0,83.498c-8.758,0-17.357,0-26.39,0c-1.066-3.605-2.077-7.414-3.317-11.146
		c-6.473-19.489-17.119-35.989-34.627-47.381c-9.398-6.115-19.745-9.355-31.045-9.428c-8.891-0.058-17.603,0.833-25.877,4.327
		c-9.442,3.987-16.932,10.2-20.216,20.142c-4.455,13.485-0.633,25.251,8.961,35.25c7.781,8.109,17.586,13.076,28.084,16.577
		c15.582,5.198,31.358,9.82,46.902,15.126c15.125,5.163,29.847,11.364,42.681,21.165c17.262,13.183,27.742,30.745,32.034,51.882
		c3.704,18.242,2.812,36.393-2.789,54.221c-4.316,13.735-11.812,25.561-21.627,36.016c-14.534,15.481-32.619,24.478-53.169,28.537
		c-25.165,4.971-50.269,4.906-74.924-3.1c-10.972-3.563-21.073-8.963-30.431-15.742c-1.162-0.842-2.085-2.181-4.162-2.263
		c-1.918,5.82-3.869,11.737-5.801,17.6c-9.131,0-17.9,0-26.889,0c0-32.162,0-64.076,0-96.269c9.208,0,18.281,0,27.662,0
		c1.36,7.429,2.572,14.928,5.155,22.121c8.185,22.789,22.312,40.476,44.694,50.428c18.637,8.287,37.995,9.262,57.306,2.179
		c10.531-3.863,18.794-10.719,23.039-21.455c6.283-15.888,1.827-34.957-14.329-45.576c-11.783-7.745-24.627-13.083-37.77-17.768
		c-15.625-5.57-31.475-10.511-47.083-16.125c-10.964-3.943-21.363-9.156-30.878-16.016c-15.443-11.135-25.861-25.687-30.21-44.328
		c-3.903-16.73-5.127-33.537-0.087-50.267c6.309-20.945,19.262-37.022,37.188-49.138c24.511-16.567,51.681-21.806,80.84-18.539
		c13.641,1.528,26.853,4.386,39.294,10.329C1002.907,152.841,1008.503,156.403,1014.561,160.436z"/>
	<path style="fill:#D52344;" d="M1089.476,167.401c-10.816,0-21.264,0-31.969,0c0-7.599,0-14.835,0-22.31
		c55.475,0,110.73,0,166.296,0c0,7.293,0,14.547,0,22.507c-11.452,0.141-23.005-0.023-35.495,0.096
		c18.084,38.649,35.944,76.552,54.224,115.198c19.495-38.614,38.633-76.522,58.103-115.088c-11.145,0-21.566,0-32.318,0
		c0-7.812,0-15.18,0-22.75c31.215,0,62.293,0,93.647,0c0,7.448,0,14.699,0,22.413c-10.132,0-20.225,0-29.834,0
		c-1.826,1.535-2.412,3.117-3.163,4.577c-23.799,46.235-47.581,92.479-71.405,138.701c-1.092,2.118-1.742,4.18-1.737,6.618
		c0.064,32.497,0.043,64.995,0.043,97.492c0,0.824,0,1.647,0,2.986c13.711,0,27.28,0,41.118,0c0,7.75,0,14.989,0,22.519
		c-57.51,0-114.929,0-172.68,0c0-7.247,0-14.485,0-22.287c13.41,0,26.96,0,40.361,0c0.786-1.97,0.507-3.47,0.508-4.927
		c0.019-31.331-0.015-62.661,0.062-93.992c0.007-2.937-0.688-5.454-2.019-8.049c-23.742-46.272-47.41-92.583-71.102-138.881
		C1091.365,170.762,1090.537,169.337,1089.476,167.401z"/>
	<path style="fill:#D42244;" d="M643.047,418.029c12.004,0,23.633,0,35.59,0c0-83.423,0-166.618,0-250.29
		c-11.776,0-23.51,0-35.574,0c0-7.705,0-14.946,0-22.538c53.955,0,108.022,0,162.427,0c0,7.132,0,14.382,0,21.918
		c-3.801,1.086-7.794,0.387-11.721,0.504c-3.995,0.119-7.997,0.026-11.995,0.026c-3.98,0-7.96,0-12.239,0
		c0,83.438,0,166.509,0,250.249c11.77,0.264,23.683-0.023,35.935,0.157c0,7.345,0,14.581,0,21.836
		c-3.416,0.942-154.645,1.284-162.422,0.314C643.047,433.02,643.047,425.787,643.047,418.029z"/>
</g>
</svg>
