<?xml version="1.0" encoding="iso-8859-1"?>
<!-- Generator: Adobe Illustrator 27.0.0, SVG Export Plug-In . SVG Version: 6.00 Build 0)  -->
<svg version="1.1" id="Layer_1" xmlns="http://www.w3.org/2000/svg" xmlns:xlink="http://www.w3.org/1999/xlink" x="0px" y="0px"
	 viewBox="0 0 1520 375" style="enable-background:new 0 0 1520 375;" xml:space="preserve">
<g>
	<path style="fill:#483280;" d="M246,375c0-82.922,0-165.844,0-249.505c-9.958,2.75-18.843,6.652-28.402,9.644
		c0-29.734,0-58.987,0-88.351c0.947-1.191,2.427-1.461,3.814-1.969c38.787-14.222,77.567-28.46,116.34-42.72
		C339.229,1.555,341.032,1.599,342,0c0.667,0,1.333,0,2,0c-0.06,1.66-0.173,3.319-0.173,4.979
		c0.003,88.653,0.013,177.307,0.045,265.96c0.001,1.795-0.356,3.637,0.502,5.813c8.954,0,18.038,0,27.626,0
		c0,33.031,0,65.64,0,98.248C330,375,288,375,246,375z"/>
	<path style="fill:#483180;" d="M0.912,41.914c1.231-0.693,2.584-0.538,3.907-0.538c30.319-0.005,60.638-0.005,90.957,0.002
		c0.811,0,1.622,0.081,2.636,0.136c0.763,1.849,0.425,3.688,0.425,5.452c0.025,56.807,0.045,113.613,0.015,170.42
		c-0.007,13.812,2.011,27.226,8.34,39.619c5.997,11.743,14.896,20.659,27.098,26.165c9.845,4.442,20.086,6.821,30.866,7.108
		c13.877,0.37,27.624-0.265,40.755-5.357c3.831-1.486,7.478-3.449,11.624-5.387c0,30.578,0,60.758,0,91.188
		c-4.181,1.387-8.657,1.658-13.055,2.242c-4.117,0.546-8.274,0.797-12.414,1.172c-0.56,0.051-0.855,0.399-1.066,0.866
		c-1.667,0-3.333,0-5,0c-0.342-0.959-1.127-1.004-1.977-1.004c-8.363-0.008-16.727-0.027-25.09-0.051
		c-0.851-0.002-1.634,0.071-1.933,1.055c-1.667,0-3.333,0-5,0c-0.235-0.75-0.817-0.93-1.52-0.967
		c-7.652-0.405-15.178-1.687-22.729-2.947c-20.675-3.451-40.248-9.997-58.441-20.423c-25.985-14.891-44.849-36.155-56.412-63.825
		c-7.714-18.46-11.386-37.772-12.065-57.707c0.069-1.157,0.2-2.314,0.2-3.471C1.029,174.064,1.017,122.468,0.995,70.872
		C0.991,61.219,0.941,51.567,0.912,41.914z"/>
	<path style="fill:#323338;" d="M1520,148c-1.311,0.127-2.621,0.363-3.932,0.364c-37.443,0.019-74.885,0.015-112.328,0.011
		c-0.82,0-1.669,0.136-2.533-0.493c0-7.65,0-15.4,0-23.075c1.593-0.933,3.12-0.516,4.568-0.516
		c37.608-0.007,75.216,0.022,112.824,0.028c0.467,0,0.934-0.207,1.4-0.318C1520,132,1520,140,1520,148z"/>
	<path style="fill:#9182B0;" d="M0.834,229.131C0.55,229.123,0.272,229.079,0,229c0-62.333,0-124.667,0-187
		c0.291-0.172,0.594-0.2,0.912-0.086c0.029,9.652,0.079,19.305,0.083,28.957c0.022,51.596,0.034,103.192,0.038,154.789
		C1.033,226.817,0.903,227.974,0.834,229.131z"/>
	<path style="fill:#6F5D99;" d="M157,375c0.3-0.984,1.082-1.057,1.933-1.055c8.363,0.024,16.727,0.043,25.09,0.051
		c0.85,0.001,1.634,0.045,1.977,1.004C176.333,375,166.667,375,157,375z"/>
	<path style="fill:#807C80;" d="M1520,197c-0.36-0.046-0.721-0.092-1.081-0.138c-0.017-7.869-0.034-15.738-0.051-23.607
		c0.377-0.085,0.755-0.17,1.132-0.255C1520,181,1520,189,1520,197z"/>
	<path style="fill:#807C80;" d="M1520,246c-0.36-0.046-0.721-0.092-1.081-0.138c-0.017-7.869-0.034-15.738-0.051-23.607
		c0.377-0.085,0.755-0.17,1.132-0.255C1520,230,1520,238,1520,246z"/>
	<path style="fill:#303137;" d="M693.146,246.238c0-40.878,0-81.138,0-121.294c1.309-1.093,2.698-0.644,3.974-0.647
		c14.824-0.035,29.649-0.145,44.47,0.029c7.636,0.09,15.229,0.774,22.71,2.683c19.181,4.895,29.478,23.655,22.732,41.628
		c-2.595,6.915-7.459,11.645-13.888,14.915c0.252,1.869,1.983,1.713,3.014,2.298c20.91,11.846,19.196,39.868,3.894,51.563
		c-6.928,5.295-15.033,7.657-23.603,8.44c-8.805,0.804-17.642,0.317-26.464,0.368C717.847,246.291,705.708,246.238,693.146,246.238z
		 M717.847,224.639c10.552,0,20.648,0.161,30.734-0.097c3.074-0.078,6.264-0.433,9.249-1.673c5.337-2.217,8.155-6.381,8.17-12.418
		c0.016-6.343-2.415-10.322-7.878-12.531c-3.08-1.245-6.309-1.935-9.673-1.935c-9.466,0-18.933-0.046-28.399-0.076
		c-0.828-0.003-1.666-0.044-2.203,0.756C717.847,205.784,717.847,214.906,717.847,224.639z M718.036,146.231
		c0,9.521,0,18.551,0,27.764c10.285,0,20.252,0.065,30.216-0.046c2.475-0.027,4.907-0.758,7.223-1.735
		c5.315-2.242,7.833-6.132,7.804-12.095c-0.029-5.827-2.732-9.992-8.002-11.973c-1.687-0.634-3.455-1.071-5.295-1.329
		c-7.963-1.116-15.956-0.361-23.93-0.575C723.429,146.171,720.801,146.231,718.036,146.231z"/>
	<path style="fill:#303137;" d="M1169.596,250.238c-36.699,0.649-65.804-30.155-65.687-65.327
		c0.115-34.708,28.246-64.211,63.198-64.75c38.441-0.593,67.074,29.783,66.958,65.669
		C1233.952,220.967,1204.081,250.877,1169.596,250.238z M1168.529,225.089c23.031-0.253,40.498-17.97,40.309-40.056
		c-0.186-21.775-16.662-39.897-41.212-39.667c-21.857,0.205-38.967,19.401-38.579,40.312
		C1129.487,209.348,1149.403,225.283,1168.529,225.089z"/>
	<path style="fill:#303137;" d="M1023.025,203.705c0-26.281,0-52.562,0-79.136c8.145,0,16.052,0,24.327,0
		c0,40.47,0,80.837,0,121.437c-7.587,0-15.04,0-23.065,0c-19.84-26.128-39.931-52.586-60.178-79.249
		c-0.318,1.06-0.071,0.104-0.618,0.485c-0.103,0.072-0.199,0.237-0.199,0.359c-0.009,25.974-0.008,51.948-0.008,78.279
		c-8.145,0-16.027,0-24.22,0c0-40.337,0-80.716,0-121.351c7.431,0,14.711,0,22.596,0c19.938,26.209,40.154,52.783,60.37,79.357
		C1022.361,203.827,1022.693,203.766,1023.025,203.705z"/>
	<path style="fill:#303137;" d="M634.517,197.831c12.363,16.167,24.35,31.843,36.746,48.053c-10.155,0-19.676,0-29.928,0
		c-11.441-15.555-23.246-31.605-35.099-47.72c-2.028,0-3.98,0-6.383,0c0,15.86,0,31.594,0,48.049
		c-8.34,0.053-16.252,0.009-24.513,0.029c0-40.514,0-80.922,0-121.472c0.986-0.956,2.394-0.471,3.665-0.473
		c15.831-0.035,31.664-0.208,47.491,0.045c9.846,0.158,19.57,1.434,28.323,6.593c10.492,6.183,15.508,15.577,16.178,27.525
		c0.329,5.871-0.214,11.607-2.466,17.123c-4.533,11.103-13.499,16.829-24.351,20.411
		C641.303,196.944,638.255,196.697,634.517,197.831z M599.882,176.107c10.812,0,21.11,0.005,31.408-0.004
		c2.372-0.002,4.58-0.769,6.697-1.719c5.162-2.317,8.411-7.543,7.967-13.246c-0.446-5.719-3.062-10.121-8.72-12.164
		c-4.103-1.481-8.399-1.938-12.734-1.961c-7.16-0.038-14.321-0.027-21.481,0.008c-1.094,0.005-2.349-0.419-3.136,0.667
		C599.882,157.065,599.882,166.358,599.882,176.107z"/>
	<path style="fill:#303137;" d="M923.41,245.994c-9.065,0-17.496,0-26.326,0c-3.466-9.168-6.964-18.422-10.511-27.803
		c-17.057,0-34.017,0-51.362,0c-3.469,9.105-6.99,18.344-10.588,27.786c-8.491,0-16.905,0-25.732,0
		c15.88-40.772,31.62-81.188,47.345-121.564c10.107,0,19.744,0,29.844,0C891.79,164.765,907.517,205.165,923.41,245.994z
		 M843.782,194.948c11.576,0,22.719,0,34.209,0c-5.66-15.029-11.165-29.647-16.67-44.265c-0.329,0.035-0.658,0.071-0.987,0.106
		C854.855,165.404,849.377,180.019,843.782,194.948z"/>
	<path style="fill:#313238;" d="M524.849,124.473c7.926,0,15.702,0,23.463,0c1.172,1.145,0.667,2.557,0.668,3.814
		c0.033,23.82-0.004,47.64,0.045,71.459c0.012,5.713-0.814,11.279-2.591,16.671c-5.199,15.782-15.974,25.55-32.032,29.783
		c-11.68,3.078-23.342,3.133-35.024,0.448c-18.566-4.268-31.672-18.804-34.412-37.67c-0.649-4.472-0.903-8.926-0.898-13.426
		c0.025-21.987,0.005-43.975,0.036-65.962c0.002-1.615-0.393-3.3,0.503-5.079c7.892,0,15.806,0,23.949,0
		c0.628,1.871,0.333,3.705,0.335,5.48c0.026,22.154,0.018,44.308,0.016,66.462c0,3.331,0.119,6.623,1.016,9.887
		c2.387,8.69,7.482,14.68,16.433,16.952c6.006,1.524,12.01,2.372,18.219,0.92c11.956-2.795,17.833-10.383,19.419-22.316
		c0.349-2.627,0.257-5.321,0.26-7.985c0.023-21.321,0.012-42.642,0.042-63.963C524.299,128.308,523.968,126.626,524.849,124.473z"/>
	<path style="fill:#303137;" d="M1253.999,124.534c10.477,0,19.894,0,29.452,0c2.945,2.674,85.499,111.315,92.038,121.213
		c-9.878,0-19.591,0-29.661,0C1315.492,205.704,1285.002,165.458,1253.999,124.534z"/>
	<path style="fill:#2F3036;" d="M1518.868,173.255c0.017,7.869,0.034,15.738,0.051,23.607c-3.991,0.047-7.982,0.133-11.973,0.135
		c-33.452,0.011-66.904,0.006-100.355,0.006c-1.65,0-3.299,0-5.271,0c0-7.877,0-15.597,0-23.388
		c0.551-0.725,1.432-0.515,2.228-0.515c37.779-0.009,75.558-0.009,113.337-0.002C1517.545,173.098,1518.207,173.2,1518.868,173.255z
		"/>
	<path style="fill:#2F3036;" d="M1518.868,222.255c0.017,7.869,0.034,15.738,0.051,23.607c-3.991,0.047-7.982,0.133-11.973,0.135
		c-33.452,0.011-66.904,0.006-100.355,0.006c-1.65,0-3.299,0-5.271,0c0-7.877,0-15.597,0-23.388
		c0.551-0.725,1.432-0.515,2.228-0.515c37.779-0.009,75.558-0.009,113.337-0.002C1517.545,222.098,1518.207,222.2,1518.868,222.255z
		"/>
	<path style="fill:#313238;" d="M1352.378,124.39c7.841,0,15.295,0,22.715,0c1.137,3.958,1.608,72.688,0.655,91.083
		c-1.23,0.047-1.649-0.991-2.225-1.745c-6.556-8.579-13.084-17.179-19.632-25.764c-1.116-1.463-1.964-2.893-1.955-4.919
		c0.086-18.96,0.059-37.921,0.08-56.881C1352.016,125.695,1352.201,125.226,1352.378,124.39z"/>
	<path style="fill:#303137;" d="M1277.903,245.864c-8.054,0-15.653,0-23.537,0c0-30.429,0-60.719,0-91.943
		c8.196,10.782,15.906,20.927,23.537,30.965C1277.903,205.191,1277.903,225.293,1277.903,245.864z"/>
</g>
</svg>
