<?xml version="1.0" encoding="iso-8859-1"?>
<!-- Generator: Adobe Illustrator 27.0.0, SVG Export Plug-In . SVG Version: 6.00 Build 0)  -->
<svg version="1.1" id="Layer_1" xmlns="http://www.w3.org/2000/svg" xmlns:xlink="http://www.w3.org/1999/xlink" x="0px" y="0px"
	 viewBox="0 0 1580.148 627.858" style="enable-background:new 0 0 1580.148 627.858;" xml:space="preserve">
<g>
	<path style="fill:#58585C;" d="M0,402.721c18.319-0.058,36.638-0.119,54.958-0.174c3.485-0.011,6.97-0.001,10.814-0.001
		c0,7.906,0,15.622,0,23.798c-4.108,0-8.202,0-12.438,0c-0.25,2.68,1.011,4.516,1.671,6.454
		c9.302,27.314,18.574,54.639,28.087,81.88c2.726,7.806,5.469,15.58,7.07,24.235c8.382-31.308,20.267-60.772,30.325-90.845
		c2.31-6.905,4.709-13.781,7.252-21.212c-5.939-0.931-11.541-0.02-17.3-0.627c0-7.78,0-15.357,0-22.941
		c3.548-0.926,55.249-1.23,63.313-0.339c0,7.572,0,15.177,0,23.031c-3.938,1.117-8.125-0.068-12.659,0.788
		c-18.273,46.162-36.63,92.534-55.002,138.945c-12.968,0-25.588,0-38.651,0c-18.211-46.32-36.451-92.716-54.736-139.224
		c-4.442,0.017-8.573-0.324-12.704,0.234C0,418.721,0,410.721,0,402.721z"/>
	<path style="fill:#58585C;" d="M668.598,444.008c20.817,0,40.761,0,61.001,0c0,7.762,0,15.355,0,23.261
		c-3.623,1.169-7.66-0.135-11.26,0.679c8.32,23.74,17.66,47.07,23.872,72.171c6.02-25.258,15.458-48.532,23.87-72.297
		c-4.213,0-8.814,0-13.748,0c0-7.984,0-15.705,0-23.713c17.566,0,35.144,0,53.053,0c0,7.72,0,15.438,0,23.446
		c-3.578,0-7.031,0-10.854,0c-2.229,5.979-4.419,11.831-6.593,17.69c-11.307,30.478-22.556,60.978-33.938,91.428
		c-4.428,11.846-9.616,23.339-17.42,33.447c-8.685,11.249-20.283,16.705-34.329,17.63c-8.399,0.553-16.495-1.146-24.902-2.391
		c0-8.411,0-16.667,0-25.337c5.325,0.675,10.531,1.221,15.7,2.016c7.858,1.208,14.497-1.152,19.76-6.918
		c5.424-5.944,8.936-13.143,12.697-20.656C706.661,531.261,687.768,487.951,668.598,444.008z"/>
	<path style="fill:#5F8CB7;" d="M215.004,351.733c2.383-7.957,6.324-15.271,9.515-22.893c8.122-19.403,16.378-38.751,24.655-58.089
		c6.715-15.688,13.584-31.309,20.3-46.996c8.279-19.337,16.432-38.728,24.708-58.066c8.474-19.799,17.072-39.545,25.541-59.346
		c9.184-21.472,18.265-42.989,27.426-64.472c5.393-12.647,10.842-25.27,16.296-37.89c0.572-1.323,1.033-2.76,2.399-3.981
		c0,46.468,0,92.601,0,138.582c-15.048,21.66-30.001,43.196-44.968,64.724c-21.034,30.254-42.057,60.515-63.128,90.744
		c-11.485,16.477-23.084,32.875-34.54,49.373c-0.898,1.293-2.419,2.411-2.241,4.319l0.052-0.058
		c-1.14,0.293-1.335,1.062-1.044,2.074l0.06-0.063c-0.443-0.007-0.886-0.015-1.329-0.022c-0.773,0.517-0.708,1.422-1.004,2.161
		c-0.417,0.052-0.61,0.273-0.532,0.7l-0.235,0.322c-1.17,0.008-0.74,1.772-1.93,1.757
		C215.005,353.653,215.005,352.693,215.004,351.733z"/>
	<path style="fill:#58585C;" d="M501.412,440.611c8.94-0.426,17.546,1.275,25.953,4.103c16.062,5.403,26.913,16.374,32.322,32.196
		c5.94,17.377,6.559,35.197,1.253,52.913c-5.369,17.93-17.453,29.503-35.188,34.955c-16.238,4.991-32.757,5.315-49.144,0.75
		c-20.391-5.68-33.716-18.711-38.825-39.445c-4.025-16.337-4.189-32.632,3.002-48.263c9.083-19.743,24.306-31.888,45.746-36.209
		C491.496,440.61,496.444,440.697,501.412,440.611z M470.901,508.378c-0.235,2.326,0.441,6.463,1.226,10.52
		c1.738,8.985,5.566,16.665,14.403,20.84c4.83,2.282,9.957,2.239,15.125,2.297c12.265,0.138,21.494-6.736,25.119-19.344
		c1.062-3.694,1.476-7.504,1.736-11.294c0.701-10.231-0.337-20.254-4.999-29.567c-5.01-10.01-13.584-14.298-24.433-14.023
		c-10.667,0.271-18.669,5.052-23.322,14.988C472.224,490.337,471.184,498.325,470.901,508.378z"/>
	<path style="fill:#58585C;" d="M337.691,562.571c-7.473,3.323-15.299,4.957-23.207,5.714c-11.973,1.147-24.004,0.871-35.559-2.882
		c-21.843-7.093-35.038-22.39-39.649-44.62c-3.195-15.403-2.715-30.87,4.851-45.223c11.26-21.362,28.894-33.435,53.2-34.784
		c16.34-0.907,30.169,1.18,43.519,5.691c0,11.59,0,23.294,0,35.215c-9.782,0-19.375,0-29.171,0
		c-0.945-5.156,0.073-10.316-0.621-15.509c-5.963-1.278-11.837-2.513-17.788-1.078c-10.007,2.413-16.548,8.903-20.142,18.336
		c-3.383,8.878-4.143,18.047-2.22,27.421c3.418,16.666,18.338,28.791,33.68,30.178c10.138,0.917,19.791-0.806,29.26-4.175
		c1.706-0.607,3.394-1.265,5.465-2.039C339.125,544.237,338.42,553.378,337.691,562.571z"/>
	<path style="fill:#59595C;" d="M366.282,467.669c-5.765,0-10.874,0-16.214,0c0-7.937,0-15.533,0-23.645c5.011,0,10.089,0,15.578,0
		c0-8.584,0-16.675,0-25.441c11.158-0.989,21.983-1.239,33.265-1.901c0,9.241,0,17.979,0,27.146c11.177,0,21.914,0,32.867,0
		c0,8.04,0,15.64,0,23.663c-10.692,0-21.431,0-31.625,0c-1.708,1.288-1.235,2.553-1.235,3.64
		c0.004,17.655,0.081,35.311,0.053,52.966c-0.004,2.86,0.366,5.634,0.949,8.405c1.356,6.446,5.061,9.698,11.677,10.266
		c7.052,0.605,13.922-0.202,20.938-2.965c0,7.646,0,15.001,0,22.725c-4.588,2.528-9.948,3.607-15.265,4.66
		c-10.062,1.993-20.131,2.303-30.042-0.95c-12.587-4.131-19.586-13.37-20.372-26.605c-1.214-20.459-0.271-40.935-0.569-61.401
		C366.241,474.924,366.282,471.612,366.282,467.669z"/>
	<path style="fill:#59595D;" d="M575.28,541.432c4.768,0,8.895,0,13.366,0c0-24.89,0-49.45,0-74.416
		c-4.988-0.749-10.288,0.068-15.787-0.456c0-7.817,0-15.551,0-23.511c15.522,0,30.798,0,46.382,0
		c0.909,3.828,0.527,7.757,0.192,11.669c-0.333,3.885-0.234,7.808-1.386,11.721c2.293,0.405,2.38-1.3,2.775-2.302
		c1.409-3.572,3.211-6.89,5.317-10.111c5.295-8.098,16.827-13.852,26.066-13.267c1.209,0.742,1.38,2.114,1.843,3.33
		c2.299,6.043,4.537,12.112,6.96,18.105c1.04,2.572,1.237,5.088,0.635,8.245c-3.451,0-6.91,0.127-10.357-0.022
		c-16.481-0.711-30.661,13.779-29.963,30.404c0.488,11.638,0.098,23.313,0.1,34.972c0,1.821,0,3.642,0,5.941
		c4.992,0,9.758,0,14.63,0c1.279,4.142,0.492,7.961,0.634,11.708c0.144,3.796,0.032,7.601,0.032,11.694c-20.464,0-40.548,0-60.956,0
		c-1.006-3.717-0.342-7.69-0.458-11.602C575.192,549.723,575.28,545.904,575.28,541.432z"/>
	<path style="fill:#618DB7;" d="M1112.137,469.847c1.246-1.931,2.467-3.878,3.741-5.79c8.455-12.691,20.366-19.016,35.562-19.35
		c9.086-0.199,17.741,1.201,25.899,5.579c11.927,6.4,18.638,16.7,22.395,29.208c2.103,7.001,3.133,14.338,2.968,21.581
		c-0.405,17.804-4.969,34.474-16.449,48.524c-8.35,10.219-19.136,16.688-32.253,19.216c-4.91,0.946-9.861,1.288-14.792,1.633
		c-7.668,0.538-15.18-1.014-22.563-2.999c-1.435-0.386-2.753-0.98-4.486-0.557c0,16.192,0,32.274,0,48.714
		c7.106,0,14.047,0,21.114,0c1.216,3.678,0.547,7.062,0.521,10.588c-17.885,0-35.44,0-53.087,0c-1.403-4.3,1.019-8.061,0.28-12.514
		c6.619,0,12.857,0,18.917,0c1.291-4.305,1.808-141.547,0.713-156.78c-7.328,0-14.726,0-22.398,0c0-3.595,0-6.655,0-9.998
		c11.383,0,22.647,0,34.494,0c0.66,7.547-1.447,15.076-0.906,22.643c-0.801,0.521-0.981,1.147-0.341,1.924
		C1112.113,471.09,1112.077,470.449,1112.137,469.847z M1113,552.217c0.855,0.453,1.406,0.836,2.017,1.054
		c12.101,4.327,24.528,5.428,37.162,3.265c4.532-0.776,9.125-1.766,13.229-4.043c11.839-6.567,19.116-16.715,22.541-29.628
		c2.518-9.494,2.845-19.196,2.215-28.998c-0.428-6.663-1.445-13.115-3.656-19.425c-4.573-13.055-15.602-19.987-28.684-20.866
		c-3.57-0.24-6.835,0.95-10.298,1.121c-9.625,0.476-17.583,4.733-23.729,11.967c-6.881,8.099-10.33,17.95-10.637,28.338
		C1112.599,513.953,1113,532.932,1113,552.217z"/>
	<path style="fill:#59595D;" d="M181.982,467.737c-5.481,0-10.604,0-16.388,0c2.88-8.383,6.696-15.815,9.94-23.655
		c13.321,0,26.547,0,40.231,0c0,32.629,0,65.002,0,97.815c4.516,0,8.602,0,13,0c0,8.169,0,15.903,0,23.946
		c-19.672,0-39.395,0-59.482,0c0-7.657,0-15.378,0-23.388c3.956-1.177,8.313,0.151,12.7-0.789
		C181.982,517.128,181.982,492.731,181.982,467.737z"/>
	<path style="fill:#608CB7;" d="M952.776,406.559c0,11.182,0,21.946,0,32.937c-3.822,0-7.422,0-11.426,0c0-7.943,0-15.869,0-23.898
		c-5.673-2.429-11.468-2.979-17.099-3.703c-6.39-0.822-12.859-1.483-19.366-1.102c-14.952,0.876-29.191,4.042-41.689,12.815
		c-14.101,9.898-22.382,23.56-26.398,40.192c-1.611,6.671-2.516,13.468-2.517,20.143c-0.001,18.725,3.567,36.656,16.146,51.496
		c8.304,9.797,19.157,15.826,31.418,19.111c9.805,2.627,19.943,3.642,30.061,2.966c8.549-0.571,17.168-1.078,26.158-3.434
		c0-8.138,0-16.525,0-25.128c4.186,0,7.764,0,11.601,0c0,11.117,0,22.047,0,33.336c-3.985,2.095-8.694,2.424-13.143,3.136
		c-12.439,1.992-24.968,3.722-37.611,3.167c-16.444-0.722-32.088-4.337-46.056-13.655c-13.101-8.74-21.525-20.928-26.769-35.533
		c-5.264-14.662-5.803-29.904-5.029-45.207c0.783-15.472,4.869-30.015,13.763-42.948c9.516-13.838,22.727-22.522,38.549-27.519
		c12.458-3.934,25.281-5.388,38.273-4.871C925.57,399.414,939.237,401.679,952.776,406.559z"/>
	<path style="fill:#618DB7;" d="M1447.006,555.745c6.749,0,12.882,0,19.149,0c1.257,3.182,0.835,6.235,0.704,9.541
		c-10.193,0-20.125,0-30.677,0c-0.213-4.314-0.285-8.645,0.475-13.073c0.724-4.215,0.907-8.523,1.338-12.894
		c-1.223-0.121-1.295,0.91-1.478,1.435c-2.159,6.227-5.831,11.591-10.056,16.472c-4.665,5.39-10.801,8.817-17.779,10.334
		c-9.426,2.049-18.776,1.479-27.894-1.79c-11.484-4.117-18.06-12.078-19.978-24.299c-1.126-7.173-0.364-13.855,2.548-20.322
		c3.546-7.877,10.033-12.658,17.815-15.792c7.118-2.867,14.575-4.13,22.237-4.696c10.7-0.791,21.478-0.522,32.072-2.015
		c1.922-9.135,1.706-17.955-0.729-26.694c-2.75-9.87-10.05-14.498-19.482-16.162c-12.18-2.149-24.017,0.07-35.667,3.634
		c-0.461,0.141-0.877,0.429-1.672,0.829c0,6.458,0,13.063,0,19.87c-3.9,0.983-7.509,0.37-11.743,0.451
		c-0.038-4.857-0.089-9.61-0.107-14.363c-0.018-4.653-0.004-9.307-0.004-14.089c4.739-3.456,10.256-4.802,15.62-6.226
		c9.493-2.52,19.231-3.694,29.057-2.934c8.099,0.626,16.142,1.719,23.072,6.659c7.419,5.289,11.734,12.356,13.202,21.361
		c1.674,10.268,0.781,20.577,0.804,30.862c0.036,16.122-1.213,32.229-0.832,48.362
		C1447.039,551.849,1447.006,553.495,1447.006,555.745z M1436.822,508.779c-9.642-0.351-18.584,0.1-27.538,0.798
		c-5.467,0.426-10.91,1.015-16.196,2.32c-6.694,1.653-13.336,4.124-16.447,10.903c-4.069,8.868-3.609,18.055,0.091,27.002
		c1.433,3.465,4.545,4.995,8.07,6.021c6.149,1.79,12.554,1.206,18.725,1.447c7.03,0.274,13.757-2.846,19.39-7.785
		C1435.299,538.628,1436.96,524.307,1436.822,508.779z"/>
	<path style="fill:#608CB7;" d="M1056.817,555.76c6.623,0,12.578,0,18.606,0c1.411,3.148,1.757,6.148,1.237,9.772
		c-10.464,0.01-20.786,0.009-31.11,0c0.187-8.867,1.039-16.658,1.315-24.552c-2.793,3.827-4.627,8.072-7.318,11.84
		c-7.393,10.35-17.402,15.444-30.017,15.847c-6.712,0.214-13.224-0.73-19.531-2.943c-12.092-4.241-18.416-13.224-19.817-25.584
		c-1.036-9.138,0.525-17.831,6.75-25.239c4.107-4.887,9.435-7.863,15.187-10.013c7.158-2.676,14.677-3.647,22.33-4.312
		c10.064-0.874,20.226-0.188,30.274-2c0.297-0.382,0.824-0.746,0.858-1.151c0.678-8.118,1.306-16.264-0.831-24.26
		c-2.689-10.057-9.567-15.65-19.62-17.325c-13.021-2.17-25.592-0.016-38.217,4.345c0,6.786,0,13.388,0,20.216
		c-3.633,0-6.901,0-10.546,0c0-9.531,0-19.101,0-29.049c8.649-3.899,17.861-6.697,27.666-7.743
		c5.138-0.548,10.251-1.066,15.387-0.668c6.923,0.536,13.728,1.489,20.181,4.516c10.519,4.935,15.65,13.591,17.178,24.524
		c0.729,5.214,1.447,10.525,1.049,15.87c-1.585,21.262-0.555,42.568-1.007,63.85C1056.796,552.845,1056.817,553.987,1056.817,555.76
		z M1045.972,509.278c-1.725-1.077-3.43-0.605-5.04-0.612c-7.142-0.031-14.262,0.266-21.394,0.873
		c-6.792,0.577-13.544,1.294-20.032,3.294c-7.512,2.316-13.545,6.674-15.034,14.969c-1.146,6.386-1.292,12.926,0.692,19.234
		c1.239,3.94,3.587,7.228,7.757,8.518c6.899,2.135,14.205,0.356,21.173,2.008c12.082-1.926,21.141-8.05,27.019-18.942
		C1046.138,529.309,1046.405,519.358,1045.972,509.278z M1047.476,539.614c0.376-0.473,0.633-0.934-0.097-1.351
		C1047.016,538.791,1047.041,539.223,1047.476,539.614z"/>
	<path style="fill:#608CB7;" d="M217.702,351.834c0.296-0.738,0.231-1.644,1.004-2.161c0.214,0.339,0.427,0.679,0.738,1.173
		c0.246-0.478,0.418-0.814,0.591-1.151l-0.06,0.063c1.166-0.28,1.485-0.986,1.044-2.074l-0.052,0.058
		c1.202,0.535,1.885-0.306,2.522-1.04c9.151-10.549,18.289-21.109,27.417-31.678c5.323-6.163,10.605-12.361,15.932-18.521
		c10.22-11.818,20.438-23.637,30.695-35.422c7.861-9.032,15.816-17.982,23.664-27.026c9.804-11.297,19.521-22.67,29.314-33.976
		c4.749-5.482,9.587-10.886,15.041-17.069c0,15.019,0,29.044,0,43.594c-3.975,4.468-9.241,8.309-14.039,12.634
		c-8.393,7.565-17.131,14.747-25.681,22.139c-14.714,12.722-29.4,25.476-44.086,38.231c-8.035,6.979-16.048,13.982-24.065,20.981
		c-11.776,10.281-23.541,20.575-35.334,30.837c-0.751,0.653-1.737,1.058-1.379,2.323l0.065-0.052
		c-0.657,0.015-1.314,0.03-1.971,0.045c-0.824-0.021-1.673,0.02-2.128-0.887l0.235-0.322
		C217.689,352.56,217.913,352.361,217.702,351.834z"/>
	<path style="fill:#618DB8;" d="M1517.251,386.269c0,56.589,0,112.66,0,169.221c6.399,0,13.148,0,19.965,0
		c1.196,3.48,0.585,6.568,0.644,9.98c-17.927,0-35.616,0-53.146,0c-0.818-0.889-0.586-1.763-0.601-2.565
		c-0.039-2.145-0.013-4.291-0.013-6.756c6.636-0.821,13.089,0.016,19.286-0.494c1.204-1.378,0.752-2.77,0.763-4.039
		c0.072-8.329-0.149-16.666,0.14-24.987c1.441-41.449,0.356-82.913,0.877-124.367c0.021-1.646,0.003-3.293,0.003-5.465
		c-8.989,0-17.726,0-26.74,0c-0.404-3.745-0.6-6.956,0.183-10.53C1491.473,386.269,1504.191,386.269,1517.251,386.269z"/>
	<path style="fill:#5F8CB7;" d="M1348.778,552.997c0.687,3.577-0.779,6.338-1.081,9.526c-12.236,5.539-24.9,8.081-38.141,4.745
		c-10.904-2.748-16.209-10.868-18.466-21.317c-0.877-4.058-1.147-8.189-1.122-12.364c0.127-21.823,0.192-43.646,0.187-65.469
		c-0.001-3.944,1.599-7.824,0.324-12.249c-6.821,0-13.74,0-20.765,0c-0.928-3.15-0.335-5.894-0.542-9.25c7.297,0,14.186,0,21.622,0
		c0-10.836,0-21.067,0-31.551c4.159,0,7.763,0,12.06,0c0.169,10.317-0.02,20.723,0.113,31.684c13.115,0,26.006,0,38.76,0
		c1.771,3.335,0.845,6.313,1.068,9.785c-13.24,0-26.286,0-39.929,0c0,3.492,0.038,6.436-0.006,9.379
		c-0.351,23.12-1.259,46.233-0.873,69.363c0.075,4.508,0.673,8.934,2.031,13.203c2.185,6.871,6.335,9.876,13.596,10.324
		c9.592,0.592,18.849-0.737,27.695-4.608C1346.366,553.735,1347.495,553.436,1348.778,552.997z"/>
	<path style="fill:#618DB7;" d="M216.936,352.856c0.455,0.907,1.304,0.866,2.128,0.887c-0.071,0.308-0.108,0.62-0.11,0.936
		c-0.239,0.157-0.479,0.313-0.718,0.47c0.161,0.137,0.322,0.275,0.482,0.412c0.129-0.246,0.258-0.492,0.386-0.738
		c0.916,0.091,1.748,0.039,1.93-1.126l-0.065,0.052c1.657,0.192,2.827-0.887,4.035-1.687
		c40.961-27.142,81.896-54.324,122.857-81.467c5.643-3.74,11.403-7.303,17.856-11.425c0.372,5.583,0.156,10.474,0.196,15.349
		c0.04,4.82,0.009,9.64,0.009,14.974c-51.308,23.805-102.635,47.618-154.928,71.88c0.773-3.216,1.493-5.088,2.866-6.703
		c0.382-0.019,0.764-0.037,1.146-0.056C216.195,354.628,215.766,352.864,216.936,352.856z"/>
	<path style="fill:#628EB8;" d="M1234.626,456.73c-4.034,0-7.682,0-11.331,0c-3.623,0-7.245,0-11.097,0c0-3.505,0-6.566,0-9.866
		c11.819,0,23.402,0,35.443,0c0,36.13,0,72.177,0,108.736c7.165,0,13.905,0,20.828,0c0.843,3.54,0.287,6.604,0.429,9.94
		c-18.306,0-36.205,0-54.333,0c-0.748-3.091-0.372-6.153-0.31-9.655c6.909,0,13.496,0,20.369,0
		C1234.626,522.741,1234.626,490.036,1234.626,456.73z"/>
	<path style="fill:#648FB9;" d="M1580.096,400.684c0.438,10.038-7.336,19.596-18.896,19.588c-12.905-0.008-20.05-9.44-20.072-19.568
		c-0.027-12.193,9.365-19.635,19.959-19.685C1571.63,380.971,1580.929,389.051,1580.096,400.684z M1568.961,409.756
		c1.443,0.314,2.379-0.119,3.308-1.421c3.418-4.786,3.909-10.032,1.276-14.96c-2.798-5.237-7.459-8.212-13.869-7.769
		c-5.646,0.391-10.671,4.177-12.686,9.541c-2.372,6.318,0.845,12.538,4.791,16.006c3.207,2.819,10.517,4.166,15.317,1.544
		c1.211-0.662,2.36-1.32,1.936-3.013L1568.961,409.756z"/>
	<path style="fill:#5F8CB7;" d="M1229.911,396.08c-0.772-6.356,5.378-11.787,11.455-11.503c6.627,0.309,12.076,5.238,12.326,11.779
		c0.22,5.755-6.184,12.153-12.168,12.157C1235.344,408.517,1229.917,402.707,1229.911,396.08z"/>
	<path style="fill:#608CB7;" d="M215.006,354.614c-0.382,0.019-0.764,0.037-1.146,0.056c0.193-1.052-0.077-2.285,1.144-2.937
		C215.005,352.693,215.005,353.653,215.006,354.614z"/>
	<path style="fill:#618DB7;" d="M217.702,351.834c0.211,0.528-0.013,0.726-0.532,0.7
		C217.092,352.106,217.285,351.885,217.702,351.834z"/>
	<path style="fill:#648FB9;" d="M1569.035,409.685c-1.314,0.094-2.639,0.349-3.874-0.238c-1.975-1.576-1.559-4.351-3.047-6.006
		c-1.446-1.058-2.881-0.928-4.696-0.438c-0.266,2,1.211,4.046,0.161,6.333c-1.079,0.912-2.537,0.428-4.273,0.204
		c0-6.057,0-12.12,0-18.489c4.349-1.121,8.69-0.299,12.938,0.885c2.451,0.683,3.379,3.254,2.458,5.65
		c-0.491,1.276-1.552,2.078-2.512,2.974c1.352,2.963,3.312,5.707,2.771,9.195L1569.035,409.685z M1557.085,393.814
		c0.53,1.941,0.91,3.329,1.248,4.566c1.143,0.637,2.143,0.418,3.111,0.331c1.509-0.136,2.534-0.939,2.491-2.524
		c-0.045-1.632-1.279-2.221-2.693-2.351C1560.107,393.731,1558.956,393.814,1557.085,393.814z"/>
</g>
</svg>
