<?xml version="1.0" encoding="iso-8859-1"?>
<!-- Generator: Adobe Illustrator 27.0.0, SVG Export Plug-In . SVG Version: 6.00 Build 0)  -->
<svg version="1.1" id="Layer_1" xmlns="http://www.w3.org/2000/svg" xmlns:xlink="http://www.w3.org/1999/xlink" x="0px" y="0px"
	 viewBox="0 0 1589.134 342.932" style="enable-background:new 0 0 1589.134 342.932;" xml:space="preserve">
<g>
	<path style="fill:#403B3B;" d="M1589.134,264.918c-1.593,0.849-1.638,2.708-2.6,4.001c-5.069,6.808-13.765,7.923-20.043,2.486
		c-4.405-3.815-5.427-8.802-4.041-14.016c1.36-5.116,4.988-8.561,10.436-9.467c5.749-0.956,10.373,1.059,13.865,5.723
		c0.809,1.081,0.75,2.796,2.384,3.273C1589.134,259.585,1589.134,262.252,1589.134,264.918z M1586.383,260.993
		c-0.077-6.071-5.202-11.171-11.094-11.042c-6.04,0.132-11.121,5.227-11.127,11.156c-0.005,6.109,5.503,11.547,11.487,11.341
		C1581.667,272.241,1586.461,267.124,1586.383,260.993z"/>
	<path style="fill:#199AD4;" d="M415.418,2.207c-1.955,6.076-5.718,11.203-8.954,16.567c-21.432,35.525-42.984,70.977-64.54,106.426
		c-26.731,43.96-53.524,87.881-80.249,131.844c-16.552,27.228-33.025,54.503-49.543,81.751c-0.849,1.4-1.789,2.744-2.701,4.137
		c-2.94-2.636-116.242-188.713-118.199-194.005c0.113-0.62,0.662-0.814,1.107-0.806c7.662,0.144,15.273-0.714,22.889-1.28
		c8.249-0.613,16.459-1.766,24.681-2.691c9.396-1.058,18.683-2.7,27.943-4.41c27.231-5.026,53.762-12.674,79.448-23.017
		c29.178-11.75,56.862-26.394,82.827-44.205c19.331-13.26,38.012-27.343,55.332-43.196c9.082-8.314,18.227-16.552,26.909-25.289
		c0.812-0.817,1.74-1.519,2.614-2.274C415.126,1.908,415.272,2.058,415.418,2.207z"/>
	<path style="fill:#6A308D;" d="M213.246,104.689c-43.994,15.475-89.747,20.314-136.233,22.393C51.279,84.828,25.629,42.713,0,0.631
		c1.506-1.422,2.268-0.086,3.072,0.567c9.682,7.872,19.63,15.396,29.787,22.636c16.658,11.874,33.998,22.661,51.934,32.51
		c15.73,8.638,31.781,16.612,48.368,23.442c19.982,8.228,40.66,14.306,61.693,19.208c6.097,1.421,12.16,2.99,18.239,4.491
		C213.144,103.887,213.195,104.288,213.246,104.689z"/>
	<path style="fill:#2D2828;" d="M725.821,203.848c-46.483,0-92.421,0-138.339,0c-1.328,23.256,14.431,49.572,43.745,58.827
		c27.587,8.709,61.928,0.246,78.544-33.59c3.664-0.1,7.436-0.31,11.525,0.197c-3.4,9.277-8.597,17.16-15.118,24.075
		c-15.536,16.476-34.856,23.584-57.381,22.828c-9.081-0.304-17.9-1.641-26.29-5.015c-24.094-9.69-39.432-27.226-45.111-52.561
		c-4.671-20.84-1.406-40.682,10.155-58.835c11.465-18.002,28.258-28.176,48.929-32.189c29.47-5.72,62.39,6.844,78.505,32.849
		C723.09,173.511,726.58,187.789,725.821,203.848z M714.5,192.95c-1.739-28.589-29.952-57.413-64.244-56.493
		c-36.152,0.969-61.184,28.923-62.749,56.493C629.72,192.95,671.922,192.95,714.5,192.95z"/>
	<path style="fill:#2D2829;" d="M1422.955,203.778c0.322,29.741,19.857,52.29,47.288,59.768
		c28.913,7.882,60.184-3.454,75.167-34.329c3.658,0,7.432,0,11.412,0c0.209,1.577-0.693,2.823-1.287,4.057
		c-11.17,23.182-29.319,37.332-54.755,41.692c-17.176,2.944-33.78,0.804-49.399-7.13c-18.232-9.262-30.557-23.635-36.53-43.298
		c-5.849-19.255-4.797-38.192,3.85-56.307c10.752-22.522,28.775-35.975,53.38-40.456c20.886-3.803,40.328-0.133,58.089,11.605
		c15.867,10.486,25.631,25.239,29.917,43.688c1.055,4.542,1.666,9.157,1.83,13.82c0.075,2.132,0.013,4.269,0.013,6.891
		C1515.354,203.778,1469.311,203.778,1422.955,203.778z M1550.338,192.951c-1.49-25.548-26.741-60.955-71.459-55.9
		c-17.236,1.948-31.701,9.664-42.595,23.331c-7.547,9.468-12.231,20.204-13.146,32.569
		C1465.781,192.951,1507.876,192.951,1550.338,192.951z"/>
	<path style="fill:#2B2727;" d="M970.215,158.833c0-9.791,0-19.269,0-28.933c3.592-0.618,7.007-0.471,10.631-0.039
		c0,47.533,0,94.933,0,142.62c-3.452,0.719-6.841,0.247-10.534,0.339c0-10.003,0-19.612,0-30.124
		c-2.671,3.294-4.742,5.935-6.904,8.499c-10.827,12.843-24.727,20.398-41.088,23.534c-13.96,2.676-27.916,2.202-41.375-2.293
		c-20.323-6.787-34.816-20.447-43.206-40.094c-10.242-23.983-8.942-47.653,4.121-70.274c10.423-18.049,26.102-29.346,46.527-33.837
		c21.088-4.638,40.923-1.094,59.54,9.558c8.053,4.608,14.65,10.891,19.857,18.604C968.316,157.177,968.563,158.228,970.215,158.833z
		 M970.261,189.88c-0.452-9.91-7.112-25.137-20.422-36.981c-16.563-14.738-36.062-19.186-57.594-14.566
		c-19.31,4.144-33.882,14.896-42.958,32.526c-6.577,12.776-8.53,26.384-6.295,40.654c2.638,16.843,10.207,30.847,23.799,41.184
		c15.714,11.951,33.75,15.542,52.846,11.928C952.76,258.355,972.061,230.448,970.261,189.88z"/>
	<path style="fill:#2B2727;" d="M1152.642,225.315c3.499,0,7.133,0,10.801,0c-6.382,27.553-35.85,51.747-73.094,50.824
		c-42.02-1.041-70.816-31.992-73.167-68.881c-2.81-44.091,27.162-75.452,63.684-80.168c41.527-5.361,74.728,19.242,83.005,51.364
		c-3.667,0-7.281,0-10.867,0c-1.055-0.767-1.328-1.942-1.75-2.989c-8.165-20.249-23.332-32.771-44.263-37.203
		c-24.282-5.142-45.862,1.102-63.194,19.501c-7.713,8.188-12.081,18.223-14.283,29.146c-3.41,16.908-1.474,33.156,7.433,48.112
		c10.455,17.557,26.127,27.481,46.351,30.038c22.023,2.784,41.055-3.46,56.679-19.448c4.826-4.938,8.408-10.706,10.992-17.087
		C1151.406,227.445,1151.661,226.307,1152.642,225.315z"/>
	<path style="fill:#2B2627;" d="M1222.484,328.831c-4.109,0.104-8.052,0.299-12.232-0.17c6.79-15.537,13.019-31.105,20.384-46.116
		c3.971-8.095,4.144-14.857,0.681-23.307c-17.28-42.162-33.855-84.613-50.673-126.965c-0.239-0.602-0.406-1.233-0.726-2.216
		c3.879-0.96,7.608-0.381,11.747-0.411c16.672,41.764,33.345,83.535,50.444,126.37c18.135-42.623,35.866-84.296,53.648-126.09
		c4.022-0.74,7.98-0.272,12.741-0.335C1279.724,196.241,1251.135,262.465,1222.484,328.831z"/>
	<path style="fill:#2B2627;" d="M503.474,272.665c-4.026,0-7.81,0-11.932,0c-19.56-47.418-39.12-94.836-58.892-142.767
		c3.92,0,7.315,0,11.588,0c17.468,41.903,35.159,84.341,53.214,127.653c17.661-42.965,34.978-85.096,52.342-127.338
		c3.945-1.117,7.912-0.574,12.529-0.612C542.614,177.515,523.058,225.055,503.474,272.665z"/>
	<path style="fill:#2A2526;" d="M1365.212,272.748c-3.98,0-7.123,0-10.753,0c0-44.146,0-88.201,0-132.742
		c-10.539,0-20.608,0-30.902,0c0-3.562,0-6.641,0-10.145c10.057,0,19.976,0,30.619,0c0.046-6.473,0.021-12.555,0.027-18.637
		c0.006-5.999,0.005-11.999,0.005-17.998c0.001-6.143,0-12.285,0-18.609c3.552-0.793,6.831-0.341,10.822-0.376
		c0.112,9.21,0.049,18.289,0.063,27.365c0.014,9.151,0.003,18.303,0.003,27.925c11.988,0,23.732,0,35.73,0c0,3.558,0,6.653,0,10.187
		c-11.661,0-23.4,0-35.614,0C1365.212,184.201,1365.212,228.254,1365.212,272.748z"/>
	<path style="fill:#282424;" d="M770.132,272.63c-3.953,0-7.224,0-10.725,0c0-47.612,0-95.012,0-142.693c3.5,0,6.886,0,10.577,0
		c0,6.531,0,12.984,0,20.716c11.935-18.193,29.107-23.629,48.493-24.642c1.393,1.682,0.607,3.584,0.748,5.329
		c0.133,1.634,0.028,3.288,0.028,5.191c-5.122,0.648-10.029,0.796-14.883,2.013c-15.486,3.885-24.82,14.08-30.28,28.384
		c-3.116,8.162-3.927,16.795-3.939,25.481c-0.035,24.992-0.016,49.985-0.018,74.977C770.132,269.026,770.132,270.666,770.132,272.63
		z"/>
	<path style="fill:#199AD4;" d="M414.982,1.758c0.182-0.375,0.424-0.93,0.868-0.522c0.412,0.378-0.049,0.742-0.432,0.972
		C415.272,2.058,415.126,1.908,414.982,1.758z"/>
	<path style="fill:#413B3B;" d="M1573.693,262.984c-2.432,1.52-0.222,4.344-2.018,5.879c-1.775-1.952-2.152-7.84-0.955-15.548
		c2.023-0.287,4.151-0.421,6.231,0.042c4.608,1.024,5.876,4.783,2.944,8.538c-0.399,0.511-0.973,0.886-1.656,1.493
		c1.046,1.618,2.084,3.223,3.464,5.356C1576.684,269.451,1577.142,263.776,1573.693,262.984z M1579.14,257.939
		c-1.471-3.012-3.918-2.237-6.285-1.922c-0.654,1.62-0.59,3.026-0.124,4.551C1575.468,261.153,1577.985,261.457,1579.14,257.939z"/>
</g>
</svg>
