<?xml version="1.0" encoding="iso-8859-1"?>
<!-- Generator: Adobe Illustrator 27.0.0, SVG Export Plug-In . SVG Version: 6.00 Build 0)  -->
<svg version="1.1" id="Layer_1" xmlns="http://www.w3.org/2000/svg" xmlns:xlink="http://www.w3.org/1999/xlink" x="0px" y="0px"
	 viewBox="0 0 1591 303" style="enable-background:new 0 0 1591 303;" xml:space="preserve">
<g>
	<path style="fill:#7390BF;" d="M0,117c0-0.667,0-1.333,0-2c0.742-0.204,0.907-0.844,1.171-1.456
		c6.488-15.014,13.01-30.013,19.485-45.032c9.091-21.086,18.147-42.188,27.22-63.282C48.595,3.559,49.494,1.93,49,0
		c0.667,0,1.333,0,2,0c-0.44,1.667,0.61,2.794,1.373,4.086c6.912,11.705,13.819,23.413,20.647,35.167
		c13.744,23.656,27.379,47.376,41.17,71.006c16.713,28.638,33.539,57.21,50.323,85.806c0.902,1.537,1.423,3.431,3.485,3.954
		c-10.172,17.381-20.357,34.753-30.51,52.145c-7.411,12.695-14.85,25.375-22.12,38.151c-2.184,3.837-5.256,7.21-6.35,11.644
		c-0.006,0.347-0.013,0.694-0.019,1.041c-0.333,0-0.667,0-1,0c0.084-1.437-0.786-2.521-1.444-3.646
		c-6.19-10.589-12.47-21.125-18.623-31.735c-12.722-21.937-25.344-43.933-38.079-65.863c-12.819-22.074-25.659-44.136-38.636-66.117
		C7.533,129.397,4.548,122.724,0,117z"/>
	<path style="fill:#6F8FBE;" d="M238.897,78.021c-4.124-4.575-6.472-10.261-9.566-15.469c-8.943-15.054-17.702-30.218-26.503-45.357
		C199.51,11.488,196.274,5.733,193,0c30.667,0,61.333,0,92,0c-0.012,0.343-0.025,0.685-0.037,1.028
		c-0.15,0.071-0.372,0.101-0.441,0.22c-12.138,20.777-24.199,41.598-36.439,62.314C245.183,68.47,242.909,73.808,238.897,78.021z"/>
	<path style="fill:#26384D;" d="M1591,231c-1.51,0.506-1.329,2.078-1.883,3.145c-4.15,7.99-12.953,12.369-21.668,10.654
		c-8.812-1.734-15.22-8.945-15.978-17.98c-0.735-8.767,6.089-17.626,14.893-19.822c10.463-2.61,20.307,3.677,23.487,12.083
		c0.265,0.701,0.009,1.735,1.149,1.92C1591,224.333,1591,227.667,1591,231z M1571.102,210.729c-8.25,0.051-14.355,6.624-14.419,15.2
		c-0.058,7.858,5.964,14.937,14.687,15.033c7.827,0.086,14.692-7.252,14.61-15.326
		C1585.897,217.33,1579.258,210.678,1571.102,210.729z"/>
	<path style="fill:#7183B2;" d="M109,303c0.006-0.347,0.013-0.694,0.019-1.041c17.301,0.014,34.602,0.047,51.903,0.037
		c21.959-0.012,43.917-0.06,65.876-0.092c0.067,0.365,0.134,0.73,0.202,1.095C187.667,303,148.333,303,109,303z"/>
	<path style="fill:#325592;" d="M226.798,301.905c-21.959,0.032-43.917,0.08-65.876,0.092c-17.301,0.01-34.602-0.023-51.903-0.037
		c1.093-4.435,4.166-7.807,6.35-11.644c7.27-12.776,14.709-25.455,22.12-38.151c10.152-17.392,20.338-34.764,30.51-52.145
		c20.368-34.885,40.774-69.749,61.068-104.678c3.333-5.737,7.115-11.229,9.831-17.32c4.012-4.213,6.286-9.551,9.186-14.459
		c12.239-20.716,24.301-41.537,36.439-62.314c0.069-0.119,0.291-0.149,0.441-0.22c4.54,10.332,9.144,20.637,13.608,31.002
		c11.627,26.994,23.195,54.013,34.775,81.027c0.454,1.06,0.782,2.173,1.268,3.545C298.702,178.323,262.75,240.114,226.798,301.905z"
		/>
	<path style="fill:#1B3247;" d="M1391.874,230.878c-7.134,0-13.94,0-21.161,0c-32.271-44.21-64.687-88.619-97.102-133.027
		c-0.284,0.121-0.568,0.242-0.852,0.363c0,44.091,0,88.182,0,132.532c-6.255,0-12.154,0-18.286,0c0-53.098,0-106.023,0-159.303
		c6.963,0,13.87,0,21.175,0c32.431,44.253,65.051,88.763,98.359,134.213c0-45.397,0-89.615,0-134.103c6.099,0,11.839,0,17.867,0
		C1391.874,124.601,1391.874,177.514,1391.874,230.878z"/>
	<path style="fill:#1A3147;" d="M1228.075,149.556c0.125,19.896-4.395,36.469-15.207,50.981
		c-11.626,15.605-26.754,26.14-45.934,30.352c-10.473,2.3-21.024,2.611-31.719,1.31c-11.409-1.388-21.99-4.84-31.664-10.984
		c-18.226-11.575-30.312-27.782-35.194-48.827c-3.936-16.967-3.523-33.987,2.428-50.566c7.969-22.199,22.926-38.131,44.81-46.639
		c23.573-9.165,47.47-8.454,70.035,3.155c21.15,10.882,34.66,28.542,40.208,51.896
		C1227.493,137.202,1228.364,144.3,1228.075,149.556z M1146.898,215.04c1.166,0,2.333,0.015,3.499-0.002
		c24.923-0.361,46.267-14.972,55.073-38.196c5.779-15.242,6.022-30.907,1.545-46.523c-5.281-18.418-16.974-31.33-34.699-38.579
		c-11.659-4.769-23.805-5.706-36.23-3.791c-21.329,3.287-36.94,14.502-45.946,34.089c-7.453,16.211-7.772,33.292-2.979,50.234
		c4.762,16.834,15.402,29.155,31.228,36.898C1127.407,213.583,1136.96,215.21,1146.898,215.04z"/>
	<path style="fill:#1D3348;" d="M1419.576,71.516c39.166,0,78.059,0,117.177,0c0,5.811,0,11.381,0,17.357
		c-32.954,0-65.686,0-98.674,0c0,17.805,0,35.207,0,53.02c29.232,0,58.475,0,88.055,0c0,6.12,0,11.839,0,17.972
		c-29.32,0-58.555,0-88.051,0c0,17.969,0,35.534,0,53.591c32.823,0,65.537,0,98.546,0c0.683,6.008,0.212,11.55,0.359,17.321
		c-39.287,0-78.197,0-117.411,0C1419.576,177.859,1419.576,124.961,1419.576,71.516z"/>
	<path style="fill:#1D3348;" d="M708.704,71.523c0,5.985,0,11.435,0,17.303c-32.951,0-65.692,0-98.727,0c0,17.822,0,35.224,0,53.114
		c29.129,0,58.36,0,87.886,0c0,6.067,0,11.66,0,17.759c-29.089,0-58.309,0-87.854,0c0,18.183,0,35.865,0,53.989
		c33.069,0,65.831,0,98.745,0c0,5.888,0,11.334,0,17.051c-39.082,0-78.001,0-117.262,0c0-52.93,0-105.949,0-159.216
		C630.563,71.523,669.466,71.523,708.704,71.523z"/>
	<path style="fill:#1A3247;" d="M814.795,164.995c15.548,22.097,30.821,43.805,46.36,65.89c-7.281,0-13.93,0-21.125,0
		c-14.935-21.157-30.055-42.575-45.157-63.967c-13.973,0-27.732,0-41.847,0c0,21.278,0,42.361,0,63.735
		c-6.059,0.738-11.793,0.12-17.774,0.415c0-53.39,0-106.422,0-159.412c1.07-0.963,2.292-0.541,3.398-0.543
		c19.153-0.029,38.306-0.036,57.458-0.013c10.914,0.013,21.542,1.497,31.38,6.598c15.496,8.034,23.689,20.768,24.55,38.236
		c0.382,7.736-0.288,15.316-3.513,22.43c-4.724,10.423-12.447,17.944-22.91,22.559C822.302,162.384,818.83,163.489,814.795,164.995z
		 M753.051,150.05c15.445,0,30.404-0.044,45.363,0.03c3.859,0.019,7.643-0.492,11.374-1.258c10.632-2.181,18.745-7.613,22.049-18.48
		c2.017-6.631,1.806-13.41,0.508-20.207c-1.735-9.087-7.029-15.247-15.349-18.839c-5.222-2.254-10.785-3.346-16.484-3.368
		c-14.976-0.057-29.952-0.025-44.928-0.009c-0.79,0.001-1.67-0.252-2.533,0.652C753.051,108.771,753.051,129.159,753.051,150.05z"/>
	<path style="fill:#1A3247;" d="M568.293,71.489c-22.964,53.507-45.698,106.48-68.41,159.402c-7.191,0-14,0-21.111,0
		c-22.62-53.007-45.244-106.025-68.033-159.429c6.942,0,13.235,0,19.951,0c19.425,46.029,38.881,92.13,58.64,138.951
		c19.875-46.791,39.421-92.809,59.008-138.925C554.836,71.489,561.127,71.489,568.293,71.489z"/>
	<path style="fill:#21354A;" d="M987.347,88.843c-18.995,0-37.236,0-55.605,0c0-5.987,0-11.557,0-17.349
		c43.073,0,85.827,0,128.582,0.001c0.995,3.51,1.126,11.574,0.223,17.367c-18.038,0-36.134,0-54.685,0c0,47.366,0,94.397,0,141.791
		c-6.333,0-12.222,0-18.515,0C987.347,183.717,987.347,136.658,987.347,88.843z"/>
	<path style="fill:#193146;" d="M903.648,231.005c-1.407,0-2.543,0-3.679,0c-4.651,0-9.302,0-14.148,0c0-53.268,0-106.283,0-159.499
		c6.059,0,11.81,0,17.828,0C903.648,124.593,903.648,177.46,903.648,231.005z"/>
	<path style="fill:#26384D;" d="M1573.613,229.518c-1.499-1.241-3.007-1.755-4.922-1.282c-1.184,2.221,0.159,4.847-0.861,7.192
		c-1.215,0.683-2.428,0.688-3.782-0.063c0-6.229,0-12.467,0-18.934c3.666-0.682,7.151-0.61,10.582-0.272
		c2.929,0.288,4.775,2.128,5.239,5.058c-0.167,2.5-1.874,3.875-3.623,5.161c3.152,2.15,2.935,5.521,3.884,8.417
		c-1.426,1.421-2.818,0.951-4.469,0.437C1574.989,233.357,1574.276,231.366,1573.613,229.518z M1575.029,221.823
		c-2.523-2.562-2.523-2.562-6.212-2.046c-0.005,1.658-0.558,3.368,0.382,5.159C1571.675,224.943,1573.877,224.794,1575.029,221.823z
		"/>
	<path style="fill:#E2E2E5;" d="M1575.029,221.823c-1.153,2.97-3.354,3.12-5.829,3.114c-0.94-1.792-0.387-3.501-0.382-5.159
		C1572.506,219.261,1572.506,219.261,1575.029,221.823z"/>
</g>
</svg>
