<?xml version="1.0" encoding="iso-8859-1"?>
<!-- Generator: Adobe Illustrator 27.0.0, SVG Export Plug-In . SVG Version: 6.00 Build 0)  -->
<svg version="1.1" id="Layer_1" xmlns="http://www.w3.org/2000/svg" xmlns:xlink="http://www.w3.org/1999/xlink" x="0px" y="0px"
	 viewBox="0 0 1500.05 707" style="enable-background:new 0 0 1500.05 707;" xml:space="preserve">
<g>
	<path style="fill:#3A3939;" d="M750.05,0c0.516,3.132,3.03,4.994,4.842,7.21c33.839,41.38,67.766,82.689,101.666,124.02
		c3.47,4.23,6.892,8.499,10.435,12.873c-39.374,48.078-78.592,95.966-118.155,144.276c-38.924-48.226-77.561-96.097-116.416-144.238
		c3.638-4.594,7.096-9.031,10.627-13.407c24.571-30.453,49.151-60.898,73.742-91.335c9.208-11.397,18.467-22.752,27.663-34.159
		c1.326-1.645,2.908-3.144,3.596-5.239C748.717,0,749.384,0,750.05,0z M644.674,144.2c34.748,43.065,69.226,85.795,104.167,129.1
		c35.448-43.227,70.549-86.03,105.868-129.099c-35.261-43.114-70.284-85.938-105.571-129.084
		C714.108,58.402,679.56,101.091,644.674,144.2z"/>
	<path style="fill:#393838;" d="M1500.05,527c-0.857,0.097-0.849,0.784-1.04,1.408c-10.227,33.456-20.629,66.86-30.637,100.382
		c-4.367,14.627-8.736,29.236-14.394,43.417c-3.581,8.975-7.693,17.668-14.656,24.689c-5.23,5.274-11.3,8.648-18.799,9.188
		c-0.657,0.047-1.324,0.061-1.474,0.916c-0.333,0-0.667,0-1,0c-0.98-1.639-2.64-0.823-3.983-1.048
		c-6.097-1.025-10.717-5.388-11.407-10.904c-0.54-4.318,1.669-8.148,5.522-9.572c3.981-1.471,7.34-0.359,10.002,3.31
		c3.905,5.38,6.716,5.647,11.594,1.119c3.097-2.875,5.214-6.439,7.175-10.117c5.335-10.005,8.613-20.799,12.062-31.525
		c1.774-5.517,3.461-11.062,5.326-17.042c-6.477-0.93-7.784-6.124-9.552-11.181c-10.338-29.561-20.801-59.079-31.207-88.617
		c-0.716-2.032-1.437-4.077-1.922-6.17c-0.611-2.638,0.216-3.886,2.803-4.096c2.482-0.202,4.996-0.149,7.489-0.037
		c2.61,0.117,3.472,2.029,4.214,4.226c3.872,11.46,7.874,22.875,11.773,34.326c6.248,18.348,12.45,36.711,18.678,55.065
		c0.297,0.877,0.653,1.734,1.017,2.693c1.982-0.93,1.681-2.734,2.062-4.005c8.723-29.046,17.341-58.123,25.973-87.197
		c1.343-4.523,1.794-4.912,6.573-4.945c2.619-0.018,5.281-0.342,7.807,0.717C1500.05,523.667,1500.05,525.333,1500.05,527z"/>
	<path style="fill:#3A3838;" d="M659.438,454.925c-3.19-1.406-5.889-0.849-8.517-1.007c-3.609-0.216-4.741-1.237-4.709-4.911
		c0.022-2.55-0.94-5.388,1.637-7.756c0.59-0.069,1.399-0.248,2.208-0.247c29.164,0.035,58.33-0.045,87.492,0.203
		c10.888,0.092,21.536,2.296,31.398,7.017c13.232,6.335,20.933,16.946,23.161,31.554c1.347,8.828,1.529,17.543-1.057,26.187
		c-3.814,12.752-11.601,21.856-24.247,26.528c-0.76,0.281-1.508,0.592-2.887,1.135c5.72,0.831,10.731,2.084,15.556,3.915
		c14.186,5.385,24.201,15.247,29.332,29.429c6.754,18.666,7.293,37.725,1.505,56.815c-4.861,16.031-15.562,26.72-30.758,33.215
		c-12.245,5.233-25.134,7.451-38.342,7.972c-21.154,0.834-42.322,0.251-63.483,0.399c-4,0.028-7.999,0.003-11.999,0.007
		c-1.66,0.002-3.343,0.154-4.929-0.816c-1.816-1.853-1.347-4.28-1.348-6.566c-0.017-41.831-0.011-83.661-0.011-125.492
		c0-23.998-0.002-47.997-0.003-71.995C659.438,458.697,659.438,456.883,659.438,454.925z M691.359,531.157
		c2.097-2.211,4.336-1.876,6.472-1.878c11-0.013,22-0.031,33,0.001c8.688,0.025,17.306-0.577,25.621-3.282
		c10.003-3.254,16.729-9.773,19.749-20.043c2.01-6.837,2.46-13.801,1.693-20.763c-1.668-15.144-9.58-24.103-24.161-28.255
		c-7.104-2.022-14.36-2.926-21.688-2.979c-17.999-0.13-35.999-0.055-53.999-0.018c-1.249,0.003-2.675-0.529-3.567,0.489
		c0,66.119,0,132.024,0,198.035c1.327,0.067,2.318,0.166,3.308,0.158c21.496-0.17,42.998,0.452,64.488-0.494
		c9.031-0.398,17.844-1.98,26.329-5.092c14.415-5.287,23.883-15.12,27.757-30.215c3.001-11.694,2.609-23.398,0.819-35.163
		c-2.981-19.586-14.466-32.075-33.621-36.847c-8.465-2.109-17.079-2.751-25.729-2.855c-13.498-0.161-26.999-0.037-40.499-0.05
		c-2.131-0.002-4.418,0.403-6.019-2.092C690.985,537.098,690.969,534.135,691.359,531.157z"/>
	<path style="fill:#383737;" d="M13.244,454.909c-4.397-1.68-8.973,0.044-13.069-2.096c-0.115-3.791-0.411-7.395,0.19-11.102
		c0.752-0.251,1.362-0.628,1.974-0.632c6.819-0.042,13.638-0.027,20.039-0.027c2.598,1.584,3.184,3.839,3.946,6.063
		c10.207,29.793,20.498,59.556,30.679,89.358c11.305,33.092,22.524,66.213,33.761,99.328c0.718,2.117,0.877,4.441,2.603,7.154
		c1.688-6.448,3.236-12.085,5.165-17.614c17.473-50.077,34.847-100.189,52.228-150.298c3.314-9.554,6.507-19.149,9.801-28.71
		c1.736-5.039,2.183-5.407,7.514-5.299c2.579,0.052,5.319-0.798,7.732,0.833c1.101,2.724-0.438,4.968-1.227,7.229
		c-9.228,26.448-18.555,52.861-27.829,79.293c-15.091,43.006-30.165,86.019-45.232,129.033c-0.705,2.012-1.282,4.068-2.033,6.469
		c-3.773,2.448-8.223,0.287-12.052,1.313c-2.437-1.706-2.878-4.042-3.629-6.221c-15.234-44.188-30.483-88.37-45.713-132.559
		c-8.049-23.353-16.066-46.716-24.108-70.071C13.823,455.893,13.538,455.477,13.244,454.909z"/>
	<path style="fill:#393837;" d="M1195.089,629.812c-6.186-3.784-9.523-9.838-12.469-16.309c-1.122-0.127-1.474,0.943-2.063,1.633
		c-11.415,13.389-26.054,18.531-43.231,16.274c-20.012-2.63-31.802-15.017-36.913-33.744c-4.6-16.854-4.245-33.892,1.662-50.537
		c5.561-15.671,16.541-25.568,32.815-28.851c15.635-3.154,29.594,1.285,41.968,11.094c0.897,0.711,1.744,1.484,3.043,2.596
		c0-38.459,0-76.434,0-114.534c-3.242-1.606-7.243,0.422-10.689-1.88c-1.453-3.222-1.142-6.584-0.25-9.886
		c4.366-1.964,20.255-1.95,24.546-0.028c1.012,1.824,0.527,3.866,0.527,5.819c0.028,60.139,0.027,120.279,0.015,180.418
		c-0.001,4.002,0.221,7.967,0.755,11.946c0.64,4.76,2.512,8.903,5.313,12.703c0.592,0.803,1.319,1.509,1.881,2.329
		c2.093,3.052,2.001,4.386-0.495,7.002C1199.769,627.678,1197.854,629.242,1195.089,629.812z M1180.112,546.095
		c-7.197-7.916-15.868-13.374-26.185-15.601c-7.541-1.627-15.221-1.257-22.481,2.019c-9.135,4.123-14.504,11.529-17.344,20.771
		c-4.413,14.359-4.353,28.878,0.075,43.216c2.516,8.145,7.142,14.935,14.86,19.242c7.005,3.91,14.519,4.348,22.24,3.486
		c12.036-1.345,21.096-7.434,27.705-17.438c0.769-1.165,1.149-2.312,1.146-3.705
		C1180.102,580.768,1180.112,563.451,1180.112,546.095z"/>
	<path style="fill:#393838;" d="M501.943,562.856c0.119-6.953,0.503-13.736-0.802-20.46c-1.366-7.037-6.73-11.967-15.031-13.268
		c-7.959-1.247-15.912-0.946-23.624,1.764c-2.994,1.052-5.792,2.434-8.059,4.761c-1.707,1.752-2.358,3.585-0.938,5.802
		c0.269,0.421,0.543,0.843,0.765,1.289c2.222,4.472,0.985,8.866-3.119,11.118c-4.142,2.273-9.356,1.034-11.848-2.965
		c-2.775-4.454-2.64-9.177-0.782-13.902c1.627-4.138,4.492-7.339,8.013-9.986c6.671-5.013,14.279-7.795,22.46-8.786
		c7.446-0.901,14.955-0.856,22.324,0.857c11.484,2.669,20.065,8.734,23.175,20.734c1.085,4.189,1.31,8.53,1.309,12.864
		c-0.004,14.828,0.213,29.661-0.082,44.483c-0.175,8.779,1.832,16.447,8.357,22.605c0.359,0.339,0.65,0.757,0.93,1.167
		c0.184,0.27,0.292,0.593,0.432,0.893c-1.489,3.922-2.655,5.159-7.984,8.253c-7.012-4.622-12.018-10.887-14.322-19.265
		c-1.164-4.233-1.059-8.566-1.07-12.888c-0.019-8.138-0.006-16.276-0.006-24.893c-4.872,0.334-9.454,0.504-14.003,0.99
		c-8.589,0.917-17.198,1.868-25.336,5.034c-7.942,3.09-14.335,7.793-16.235,16.734c-1.054,4.959-0.933,9.942,0.835,14.727
		c2.488,6.735,9.591,10.552,18.238,10.233c9.103-0.336,17.244-3.157,24.349-8.898c0.772-0.624,1.6-1.186,2.436-1.723
		c0.261-0.168,0.635-0.161,0.958-0.232c3.214,2.021,3.335,2.16,5.654,6.542c-0.229,1.805-1.512,2.957-2.818,3.942
		c-13.172,9.933-27.875,14.29-44.074,10.181c-15.276-3.875-21.023-15.529-20.572-29.623c0.481-15.039,8.811-24.545,22.341-30.021
		c10.432-4.222,21.407-5.896,32.526-6.85C491.434,563.629,496.538,563.273,501.943,562.856z"/>
	<path style="fill:#393838;" d="M1070.215,622.168c-1.832,3.691-4.618,5.747-7.85,7.957c-6.114-2.92-9.769-8.198-12.817-13.923
		c-3.067-5.76-3.065-12.188-3.192-18.49c-0.161-7.991-0.039-15.987-0.039-24.054c-0.488-0.222-0.933-0.617-1.344-0.584
		c-10.592,0.849-21.247,1.264-31.601,3.948c-6.318,1.638-12.352,3.879-17.068,8.741c-6.413,6.612-8.167,18.326-3.795,26.421
		c2.461,4.557,6.385,7.149,11.452,7.912c10.533,1.585,20.102-0.86,28.76-7.043c1.597-1.14,2.871-2.812,5.22-3.267
		c2.729,1.329,3.944,4.058,5.345,6.204c-0.26,2.504-1.686,3.744-3.153,4.803c-12.862,9.286-27,13.425-42.801,10.047
		c-12.582-2.689-20.761-13.242-21.359-26.061c-0.987-21.183,11.809-30.67,27.056-35.658c12.264-4.012,25.04-4.984,37.813-5.85
		c1.625-0.11,3.251-0.197,5.19-0.313c0-6.393,0.43-12.548-0.111-18.615c-0.65-7.283-4.86-12.412-11.999-14.321
		c-10.77-2.88-21.381-2.411-31.456,2.937c-0.732,0.389-1.474,0.783-2.135,1.275c-3.62,2.694-3.962,4.154-1.691,8.275
		c1.594,2.892,1.787,5.738-0.096,8.467c-2.047,2.967-4.973,4.37-8.613,3.919c-3.854-0.477-6.946-3.612-7.84-8.02
		c-1.167-5.752,0.342-10.863,3.994-15.384c3.654-4.525,8.429-7.516,13.739-9.63c13.471-5.365,27.204-5.873,40.932-1.27
		c12.115,4.062,18.999,13.556,19.167,26.319c0.219,16.659,0.19,33.323,0.099,49.983c-0.046,8.458,1.55,16.181,7.988,22.266
		C1068.833,619.934,1069.376,621.003,1070.215,622.168z"/>
	<path style="fill:#3C3A3A;" d="M864.792,542.782c0,19.106,0,38.089,0,57.072c0,7.495,0.007,14.99-0.005,22.485
		c-0.003,1.984,0.165,4.023-1.495,5.826c-3.058,1.174-6.408,0.474-9.687,0.493c-1.952,0.011-2.946-1.437-3.195-3.24
		c-0.18-1.309-0.098-2.657-0.098-3.988c-0.004-31.145-0.011-62.291,0.014-93.436c0.002-2.262-0.605-4.73,1.793-6.736
		c3.188-0.417,6.615-0.494,9.995,0.066c2.185,2.503,1.268,5.564,1.987,8.211c0.319,0.05,0.754,0.239,0.869,0.12
		c6.004-6.259,13.572-9.465,21.911-10.958c7.373-1.32,14.77-2.023,22.305-0.858c15.364,2.376,24.67,13.243,25.722,29.119
		c0.964,14.556-6.907,26.079-20.693,31.253c-0.929,0.349-1.85,0.717-3.564,1.382c9.427,2.854,12.688,10.433,15.866,18.088
		c1.588,3.826,3.209,7.638,4.811,11.458c1.661,3.96,4.525,6.269,8.778,7.315c7.199,1.77,8.037,3.628,5.671,10.912
		c-10.458,3.674-20.881-0.195-25.735-9.818c-2.534-5.024-4.628-10.27-6.919-15.416c-0.876-1.967-1.81-3.911-2.61-5.909
		c-3.46-8.629-9.629-12.676-19.07-11.899c-5.611,0.462-11.28-0.27-16.853,0.391c-2.914-3.019-3.13-5.871-0.664-10.439
		c4.095-0.64,8.414-0.232,12.704-0.269c6.15-0.052,12.268,0.076,18.265-1.829c17.711-5.626,19.249-23.422,12.871-34.739
		c-2.875-5.101-7.866-7.865-13.546-8.275c-11.117-0.803-21.896,0.723-31.633,6.748C869.736,537.677,867.246,539.853,864.792,542.782
		z"/>
	<path style="fill:#383737;" d="M1378.994,605.768c2.583,1.74,4.333,4.112,6.039,6.39c-0.099,2.858-1.914,4.474-3.664,5.912
		c-19.203,15.777-44.992,18.142-65.932,7.521c-11.747-5.958-19.093-15.799-22.683-28.356c-5.209-18.222-4.661-36.133,4.033-53.284
		c9.924-19.578,29.982-28.791,50.557-26.271c11.206,1.372,20.718,5.832,27.73,14.909c4.999,6.471,7.539,14.004,8.788,21.959
		c0.695,4.421,1.046,8.908,1.035,13.411c-0.004,1.418-0.114,2.64-1.657,3.795c-22.914,0-46.172,0-69.546,0
		c-1.902-3.457-1.848-6.75-0.401-10.032c1.853-1.507,3.916-1.075,5.872-1.078c15.495-0.021,30.991-0.011,46.486-0.01
		c1.637,0,3.274,0,4.843,0c1.398-2.998,0.131-5.576-0.472-8.056c-3.142-12.942-12.286-23.891-29.558-23.867
		c-15.634,0.022-27.703,8.143-32.919,23.42c-5.143,15.063-5.471,30.413,0.478,45.407c4.871,12.276,14.319,19.242,27.23,21.513
		c14.817,2.606,27.98-1.029,39.517-10.693C1375.893,607.42,1376.91,606.222,1378.994,605.768z"/>
	<path style="fill:#383736;" d="M265.898,570.537c-1.127,1.175-2.027,1.472-3.085,1.472c-22.612-0.01-45.224-0.007-67.619-0.007
		c-1.441-4.18-1.486-5.731-0.477-10.267c1.808-1.543,4.048-1.082,6.16-1.085c15.329-0.027,30.659,0.006,45.988-0.041
		c1.764-0.005,3.651,0.533,5.277-0.607c0.546-19.388-16.471-33.896-35.499-30.735c-15.202,2.525-24.277,11.659-28.545,25.815
		c-3.811,12.641-3.912,25.497-0.267,38.304c4.777,16.787,17.979,25.897,35.024,26.695c12.7,0.594,23.866-3.345,33.57-11.515
		c1.133-0.954,2.164-2.065,3.902-2.485c2.59,1.695,4.623,4.012,6.272,6.818c-0.595,2.837-2.562,4.617-4.668,6.245
		c-11.727,9.068-24.856,13.535-39.834,12.952c-11.809-0.459-22.63-3.351-32.061-10.597c-9.846-7.565-15.152-17.967-17.514-29.86
		c-2.529-12.733-2.421-25.532,1.688-37.959c6.286-19.009,18.861-31.448,38.936-35.162c8.574-1.586,17.264-1.185,25.587,1.738
		c15.351,5.39,23.152,17.033,26.233,32.413C266.148,558.573,266.316,564.533,265.898,570.537z"/>
	<path style="fill:#383737;" d="M328.144,575.573c2.188-2.16,4.293-1.491,6.227-1.564c7.636-0.287,15.334,0.728,22.9-0.97
		c8.418-1.889,15.153-6.017,18.015-14.662c2.11-6.375,1.642-12.732-1.039-18.895c-3.005-6.908-8.88-10.016-15.839-10.312
		c-14.369-0.612-27.794,2.188-38.425,13.55c0,27.903,0,56.029,0,83.975c-3.507,2.527-8.768,2.791-13.59,0.678
		c0-34.901,0-69.957,0-105.145c3.251-2.144,6.792-1.185,10.168-1.003c1.709,0.092,2.261,1.675,2.408,3.314
		c0.143,1.596-0.311,3.29,0.47,4.607c0.711,0.512,1.248,0.319,1.57,0.004c6.435-6.31,14.406-9.393,23.103-10.708
		c8.404-1.27,16.841-1.948,25.201,0.545c11.548,3.444,19.685,13.404,20.7,25.451c1.437,17.044-5.542,28.15-21.631,34.427
		c-0.428,0.167-0.848,0.356-1.892,0.797c8.685,2.994,12.132,9.967,15.151,17.299c1.514,3.677,3.129,7.316,4.552,11.028
		c1.962,5.118,5.51,8.207,10.973,8.952c1.697,0.231,3.272,0.593,4.564,2.254c0.55,2.387,0.44,5.008,0.016,7.758
		c-0.499,0.377-0.978,1.037-1.54,1.118c-10.104,1.447-20.039-0.214-24.369-9.704c-2.615-5.73-5.181-11.484-7.722-17.247
		c-1.473-3.339-2.818-6.728-4.835-9.807c-2.524-3.852-5.874-6.188-10.578-6.573c-7.623-0.625-15.24-0.424-23.172-0.095
		C326.773,581.987,328.481,578.594,328.144,575.573z"/>
	<path style="fill:#3A3838;" d="M1236.51,417.424c-3.738-1.135-7.648,0.588-10.967-1.751c-0.776-3.242-0.537-6.354-0.246-9.269
		c1.196-1.732,2.73-2.149,4.489-2.142c5.331,0.019,10.664-0.074,15.993,0.031c3.945,0.078,4.901,1.142,5.083,5.128
		c0.053,1.164,0.009,2.332,0.009,3.498c0,59.142-0.007,118.283,0.016,177.425c0.002,3.826-0.022,7.682,0.416,11.473
		c0.699,6.053,3.217,11.461,6.775,16.388c1.056,1.462,2.498,2.765,1.98,5.245c-1.766,2.693-4.513,4.752-7.31,6.474
		c-2.504-0.198-3.917-1.731-5.198-3.196c-6.076-6.947-9.951-14.894-10.408-24.259c-0.138-2.827-0.098-5.663-0.099-8.495
		c-0.005-56.976,0.001-113.952-0.024-170.928C1237.019,421.256,1237.422,419.404,1236.51,417.424z"/>
	<path style="fill:#3E3C3C;" d="M749.249,30.607c31.182,38.11,61.941,75.702,92.948,113.599
		c-30.911,37.74-61.754,75.397-92.95,113.486c-30.704-38.017-61.084-75.632-91.652-113.479
		C688.15,106.34,718.519,68.697,749.249,30.607z M749.262,248.341c28.706-35.028,57.064-69.631,85.51-104.342
		c-28.629-34.931-56.903-69.428-85.522-104.347c-28.091,34.874-56.029,69.558-84.055,104.351
		C693.402,179.01,721.264,213.592,749.262,248.341z"/>
	<path style="fill:#413F3E;" d="M784.369,140.354c9.236,4.245,10.077,11.714,8.045,19.914c-1.449,5.847-6.256,8.19-11.842,9.212
		c-3.605,0.659-20.34,0.77-25.09-0.044c0-14.84,0-29.75,0-43.771c-0.849-2.031-2.242-1.316-3.135-2.402
		c-0.603-1.121-0.055-2.572-0.135-3.891c0.495-0.285,0.768-0.578,1.049-0.585c8.296-0.193,16.616-0.704,24.874,0.302
		c8.108,0.987,12.573,8.522,10.005,16.101C787.403,137.365,785.586,138.599,784.369,140.354z M765.946,138.655
		c3.783-0.845,7.478-0.009,11.071-0.591c3.235-0.524,4.894-2.45,5.121-5.727c0.277-4.004-1.105-6.565-4.378-7.355
		c-5.197-1.255-10.453-0.789-15.751-0.528c0,13.58,0,26.686,0,40.037c6.32,0.542,12.422,0.519,18.466-0.648
		c1.973-0.381,3.599-1.595,4.778-3.356c3.906-5.834,0.906-14.006-5.793-15.915c-1.977-0.563-3.943-0.534-5.933-0.55
		c-2.605-0.021-5.21-0.005-7.583-0.005C765.132,141.946,765.076,140.519,765.946,138.655z"/>
	<path style="fill:#3E3C3C;" d="M728.372,160.655c4.892-14.56,9.473-28.199,13.922-41.44c2.409-1.361,4.329-0.957,6.248-0.721
		c0.052,3.791-13.314,44.032-16.986,51.438c-1.887,0.732-3.822,0.676-6.326-0.091c-5.131-14.881-10.358-30.04-15.407-44.683
		c-1.055-1.534-2.669-0.702-3.424-1.962c-0.493-1.367-0.356-2.794,0.093-4.278c2.712-1.126,5.261-0.68,7.937-0.231
		C719.407,132.441,723.711,146.16,728.372,160.655z"/>
</g>
</svg>
