<?xml version="1.0" encoding="iso-8859-1"?>
<!-- Generator: Adobe Illustrator 27.0.0, SVG Export Plug-In . SVG Version: 6.00 Build 0)  -->
<svg version="1.1" id="Layer_1" xmlns="http://www.w3.org/2000/svg" xmlns:xlink="http://www.w3.org/1999/xlink" x="0px" y="0px"
	 viewBox="0 0 1609.634 686.124" style="enable-background:new 0 0 1609.634 686.124;" xml:space="preserve">
<g>
	<path style="fill:#3E3D38;" d="M1146.634,0c1.031,1.665,2.953,1.3,4.43,1.764c16.883,5.3,27.277,21.454,26.359,38.109
		c-0.993,18.014-14.452,32.274-31.802,35.319c-21.684,3.806-45.274-13.573-43.65-39.738c1.058-17.046,12.431-30.125,29.115-34.459
		c0.65-0.169,1.298-0.245,1.547-0.994C1137.301,0,1141.968,0,1146.634,0z"/>
	<path style="fill:#474540;" d="M1609.634,639c-1.631,1.117-3.338,1.247-5.312,0.419c-1.159-2.608-1.299-5.544-2.044-8.795
		c-2.903,2.901-2.824,7.143-5.894,9.544c-3.441-1.986-3.127-6.204-5.905-8.839c-1.531,2.554-0.809,5.65-2.596,8.029
		c-1.609,0.719-3.281,1.167-4.922-0.963c1.358-7.247,2.315-14.744,4.329-22.23c4.067,0.144,3.747,3.819,5.061,5.904
		c1.487,2.36,2.417,5.07,3.687,7.839c3.07-4.461,4.321-9.707,7.405-13.812c2.7,0.222,2.516,2.296,2.815,3.735
		c0.911,4.378,1.589,8.803,2.362,13.21c0.133,0.756-0.107,1.712,1.015,1.958C1609.634,636.333,1609.634,637.667,1609.634,639z"/>
	<path style="fill:#3E3D38;" d="M473.431,429.702c5.958,12.652,13.551,24.321,22.541,35.079
		c10.005,11.973,21.437,22.369,35.014,30.155c14.214,8.151,29.324,13.655,45.653,16.307c35.274,5.728,66.832-3.416,96.08-22.633
		c25.992-17.077,46.814-39.305,64.221-64.913c16.677-24.534,30.349-50.711,42.705-77.615c4.708-10.252,9.283-20.565,13.974-30.825
		c0.852-1.863,1.203-3.734,1.196-5.774c-0.088-26.663,0.174-53.332-0.295-79.988c-0.316-17.967-1.548-35.916-3.564-53.805
		c-1.658-14.711-3.45-29.378-7.247-43.721c-0.968-3.658-2.123-7.266-3.318-11.322c22.218,0,44.098,0,66.232,0
		c2.268,3.15,3.062,7.077,3.945,10.92c2.732,11.893,3.57,24.027,3.907,36.164c0.632,22.824,0.134,45.655-0.108,68.484
		c-0.083,7.83,0.005,15.662,0.028,23.493c0.003,0.982-0.117,2.001,0.704,3.108c3.659-14.835,8.424-29.117,14.488-42.946
		c11.761-26.823,27.702-50.768,49.328-70.686c13.604-12.53,28.807-22.541,46.808-27.609c11.961-3.367,24.123-4.294,36.551-2.739
		c14.962,1.873,28.27,7.252,39.474,17.372c8.67,7.831,14.716,17.257,15.157,29.314c0.398,10.886-2.976,20.708-10.273,28.835
		c-5.123,5.706-9.831,5.824-16.222,1.035c-6.121-4.588-12.148-9.266-19.062-12.687c-15.912-7.871-32.892-10.083-50.384-10.015
		c-17.05,0.067-32.225,5.508-46.028,15.298c-12.325,8.742-21.626,20.144-29.306,32.979c-11.897,19.884-18.954,41.608-23.987,64.056
		c-3.457,15.417-6.217,30.959-7.207,46.763c-0.135,2.159-0.18,4.327-0.18,6.491c-0.01,52.327,0.183,104.656-0.138,156.982
		c-0.085,13.871,5.763,23.857,16.495,31.693c1.18,0.862,2.4,1.668,4.308,2.989c-33.845,0-66.834,0-100.141,0
		c2.697-2.118,5.261-3.91,7.57-5.985c8.342-7.497,12.653-16.626,12.603-28.136c-0.203-46.661-0.084-93.322-0.084-139.984
		c0-1.823,0-3.645,0-5.886c-2.12,1.095-2.407,2.984-3.134,4.428c-9.637,19.136-19.363,38.229-30.249,56.693
		c-13.386,22.706-28.147,44.455-46.879,63.168c-24.19,24.165-52.642,41.484-85.349,51.577c-14.154,4.367-28.672,6.953-43.463,8.317
		c-12.353,1.139-24.662,1.046-36.901-0.351c-18.542-2.116-36.601-6.4-53.745-14.065c-34.465-15.41-61.404-39.372-81.134-71.464
		c-13.81-22.463-22.267-46.967-27.402-72.737c-4.815-24.164-6.07-48.595-4.717-73.077c2.143-38.788,12.272-75.266,33.727-108.123
		c10.943-16.758,24.583-30.979,40.237-43.387c23.043-18.264,49.16-30.217,77.459-37.428c19.245-4.904,38.881-7.005,58.82-6.689
		c17.277,0.274,34.101,2.695,50.459,8.214c15.925,5.373,29.87,13.622,40.081,27.445c8.07,10.926,12.035,23.25,12.84,36.616
		c1.195,19.863-3.797,38.546-11.57,56.602c-10.955,25.447-26.513,47.931-44.464,68.877c-28.946,33.774-62.905,61.743-99.794,86.33
		c-19.937,13.288-40.765,25.043-62.051,36.009C476.186,427.654,474.522,428.121,473.431,429.702z M467.703,418.415
		c4.264-2.801,7.992-5.295,11.764-7.721c39.256-25.244,75.434-54.148,106.351-89.323c17.889-20.352,33.195-42.445,44.393-67.178
		c11.478-25.352,18.286-51.653,14.507-79.826c-1.522-11.343-4.943-22.061-11.293-31.624c-10.363-15.606-24.866-24.348-43.789-24.426
		c-12.979-0.053-25.894,1.299-38.545,4.546c-36.406,9.344-63.578,30.397-80.048,64.302c-15.022,30.925-21.784,64.047-23.315,98.201
		c-0.827,18.46-0.248,36.946,1.657,55.388c2.071,20.056,5.683,39.779,11.44,59.086C462.657,405.986,464.641,412.13,467.703,418.415z
		"/>
	<path style="fill:#3E3D38;" d="M1531.65,205.335c-2.061,2.58-4.819,3.839-7.168,5.984c-3.558-4.582-6.267-9.354-9.811-13.518
		c-19.522-22.937-41.525-42.696-69.758-54.447c-15.326-6.379-31.299-9.822-47.906-10.594c-10.357-0.482-20.652-0.375-30.722,2.199
		c-27.079,6.922-48.306,21.776-59.475,47.926c-9.698,22.706-4.568,44.053,10.27,63.122c10.359,13.313,24.627,21.632,39.432,29.081
		c8.758,4.407,18.005,7.662,27.029,11.437c16.673,6.976,33.456,13.691,50.225,20.437c13.096,5.268,26.161,10.607,38.317,17.858
		c19.772,11.794,37.488,25.962,50.848,45.006c10.569,15.066,16.939,31.761,17.026,50.21c0.112,23.774-6.709,45.538-21.434,64.528
		c-10.174,13.121-22.912,23.067-37.647,30.603c-15.658,8.008-32.272,12.9-49.536,15.962c-14.968,2.655-30.024,3.913-45.2,3.761
		c-37.593-0.376-71.552-11.515-101.482-34.483c-23.945-18.375-41.998-41.578-55.816-68.225c-4.892-9.434-9.121-19.172-12.711-29.18
		c-0.332-0.926-0.808-1.822-0.526-3.177c2.321-1.654,5.329-1.887,8.024-2.889c1.314,1.163,1.595,2.64,2.135,3.994
		c9.672,24.217,23.05,46.048,41.782,64.368c20.531,20.079,44.756,33.572,72.579,40.782c17.368,4.501,34.976,6.613,52.859,5.958
		c22.048-0.808,42.721-6.251,60.576-19.883c14.211-10.851,24.218-24.525,27.53-42.495c1.856-10.069-0.312-19.517-4.61-28.543
		c-5.887-12.362-15.398-21.644-26.287-29.537c-16.616-12.045-34.57-21.729-53.515-29.613c-22.201-9.239-44.357-18.585-66.539-27.871
		c-9.637-4.034-19.464-7.624-28.505-12.99c-24.373-14.465-42.639-34.299-53.372-60.706c-4.557-11.211-6.844-22.953-6.535-35.059
		c0.274-10.712,2.906-21.023,6.461-31.089c7.296-20.663,19.056-38.397,35.615-52.739c16.034-13.887,34.684-22.536,55.536-26.53
		c12.826-2.457,25.751-3.282,38.766-2.871c28.259,0.893,55.389,6.458,80.545,19.902c19.34,10.336,35.609,24.435,49.907,40.94
		C1517.192,182.92,1524.495,193.828,1531.65,205.335z"/>
	<path style="fill:#3E3D38;" d="M129.927,122.58c-3.113,2.988-5.788,5.428-8.321,8.008c-12.865,13.103-16.815,29-14.43,46.794
		c1.492,11.128,6.079,21.361,9.715,31.835c12.399,35.718,25.097,71.333,37.65,106.998c15.748,44.741,31.459,89.496,47.207,134.238
		c1.655,4.702,3.948,9.122,6.332,13.487c0.633,1.159,1.428,2.252,2.281,3.263c6.926,8.212,17.229,7.121,22.564-2.272
		c6.506-11.453,11.092-23.736,15.673-36.013c27.245-73.017,54.493-146.032,81.587-219.105c4.318-11.647,8.842-23.297,11.007-35.612
		c2.844-16.178,1.081-31.501-9.408-44.906c-1.794-2.293-3.969-4.287-6.339-6.815c17.835,0,35.078,0,52.303,0
		c0.901,1.269-0.068,2.304-0.403,3.27c-18.86,54.364-37.734,108.723-56.691,163.053c-20.594,59.023-41.261,118.021-61.92,177.022
		c-4.214,12.034-7.62,24.36-13.114,35.936c-3.002,6.325-6.279,12.463-10.672,17.945c-9.706,12.113-22.318,16.427-37.599,14.736
		c-14.863-1.645-25.58-9.451-34.046-21.122c-9.446-13.022-15.744-27.668-21.706-42.466c-14.067-34.919-26.1-70.586-38.832-105.994
		c-21.1-58.678-41.962-117.441-63.113-176.1c-4.156-11.526-7.687-23.336-13.668-34.151c-6.502-11.757-14.207-22.512-25.196-30.561
		C0.357,123.731,0.079,123.4,0,122.58C43.055,122.58,86.085,122.58,129.927,122.58z"/>
	<path style="fill:#3D3C37;" d="M1090.404,529.653c2.6-1.895,4.526-3.177,6.317-4.626c9.576-7.75,14.898-17.494,14.889-30.126
		c-0.071-108.125-0.068-216.249-0.014-324.374c0.009-17.456-4.198-33.525-14.505-47.8c-0.387-0.536-0.688-1.136-0.999-1.723
		c-0.069-0.13-0.01-0.328-0.01-0.701c24.716,0,49.421,0,74.642,0c0,2.105,0,4.056,0,6.007c0,122.286,0.082,244.572-0.106,366.857
		c-0.023,14.668,5.722,25.596,17.507,33.786c1.051,0.73,2.465,1.064,3.128,2.699
		C1157.806,529.653,1124.492,529.653,1090.404,529.653z"/>
	<path style="fill:#44423E;" d="M456.686,657.54c4.696,8.812,9.274,17.404,14.125,26.508c-4.049,2.16-7.741,1.236-11.471,0.968
		c-4.477-8.81-8.896-17.505-13.432-26.432c-4.671-0.337-9.273-0.247-14.559-0.006c0,8.67,0,17.239,0,25.788
		c-3.554,1.058-6.482,0.588-9.848,0.477c-1.175-4.47-0.463-8.944-0.578-13.339c-0.122-4.66-0.028-9.325-0.028-13.988
		c0-4.496,0-8.993,0-13.489c0-4.663-0.053-9.326,0.015-13.988c0.065-4.431-0.342-8.899,0.326-13.292
		c1.092-0.31,1.709-0.635,2.328-0.637c8.826-0.032,17.66-0.262,26.476,0.037c13.508,0.458,22.753,11.902,20.566,25.034
		C469.472,647.984,464.836,653.534,456.686,657.54z M431.79,649.776c5.016,0,9.8,0.054,14.582-0.03
		c1.646-0.029,3.312-0.287,4.926-0.637c5.429-1.176,9.342-5.985,9.372-11.388c0.029-5.271-3.974-10.934-9.241-11.427
		c-6.514-0.611-13.129-0.146-19.638-0.146C431.79,634.172,431.79,641.757,431.79,649.776z"/>
	<path style="fill:#403E3A;" d="M1121.526,616.763c3.561-0.952,6.3-0.872,8.834-0.334c0.337,0.31,0.469,0.414,0.58,0.537
		c0.11,0.12,0.221,0.247,0.297,0.39c0.661,1.252,0.39,2.61,0.391,3.922c0.017,21.292,0.012,42.585,0.012,63.542
		c-1.585,1.656-3.076,1.168-4.76,0.967c-13.791-16.423-27.668-32.948-42.285-50.354c0,17.019,0,32.997,0,49.214
		c-3.418,0.489-6.3,0.573-9.528-0.072c0-22.901,0-45.635,0-68.338c1.014-1.159,2.281-1.305,4.152-0.916
		c13.709,15.922,27.679,32.148,42.305,49.134C1121.526,648.06,1121.526,632.571,1121.526,616.763z"/>
	<path style="fill:#41403B;" d="M840.92,684.266c0-22.448,0-44.717,0-66.787c0.796-0.803,1.477-1.347,2.342-1.328
		c9.299,0.207,18.631-0.82,27.894,0.774c16.468,2.834,28.47,17.25,28.393,34.133c-0.075,16.355-12.416,31.203-28.471,33.645
		c-7.734,1.176-15.619,0.499-23.437,0.497C845.538,685.201,843.319,685.768,840.92,684.266z M850.985,675.783
		c5.198,0,10,0.284,14.757-0.055c12.665-0.903,22.229-9.385,23.753-22.669c1.241-10.82-5.437-23.019-18.752-26.482
		c-3.531-0.919-15.655-0.935-19.759,0.066C850.985,642.711,850.985,658.811,850.985,675.783z"/>
	<path style="fill:#43413D;" d="M975.684,654.951c0,7.188,0,13.805,0,20.911c10.629,0,21.206,0,31.725,0
		c1.332,3.145,1.292,5.831,0.262,8.845c-13.946,0-27.848,0-42.093,0c0-22.664,0-45.211,0-67.663
		c3.686-1.181,32.278-1.55,41.654-0.605c2.331,2.489,1.205,5.409,0.904,8.356c-3.434,1.815-6.978,0.721-10.375,0.897
		c-3.654,0.19-7.325,0.043-10.989,0.043c-3.495,0-6.991,0-10.851,0c0,6.472,0,12.832,0,19.361
		c8.766,0.572,17.403-0.352,25.989,0.535c0.434,0.045,0.826,0.504,1.416,0.886c0.266,2.519,0.614,5.103-0.526,8.347
		C993.977,655,985.064,654.856,975.684,654.951z"/>
	<path style="fill:#474540;" d="M584.737,684.859c-14.426,0-28.05,0-41.47,0c-1.457-1.082-1.386-2.433-1.386-3.764
		c0.001-20.322,0-40.644,0.002-60.966c0-1.16-0.122-2.355,1.438-3.918c13.09-0.339,26.823-0.026,40.563-0.159
		c2.113,3.175,2.011,6.086,0.299,9.534c-10.297,0-20.722,0-31.468,0c0,6.671,0,12.886,0,19.665c7.163,0,14.266-0.027,21.369,0.017
		c1.953,0.012,4.054-0.523,5.934,1.378c0.519,2.457,0.877,5.174-0.673,8.169c-8.72,0-17.499,0-26.616,0c0,7.084,0,13.816,0,21.064
		c10.395,0,20.979,0,31.474,0C585.608,679.089,584.976,681.81,584.737,684.859z"/>
	<path style="fill:#413F3A;" d="M1393.863,670.449c-2.167,4.75-4.298,9.421-6.443,14.121c-3.234,0.815-6.302,0.341-9.071,0.317
		c-1.034-1.64-0.479-2.624-0.033-3.737c7.758-19.321,28.384-63.158,31.093-65.968c2.754-0.344,3.22,1.976,3.997,3.672
		c5.461,11.911,10.828,23.865,16.236,35.801c3.899,8.608,7.819,17.206,11.714,25.816c0.469,1.037,0.835,2.122,1.235,3.15
		c-3.005,1.702-3.082,1.71-9.744,1.058c-2.89-4.326-4.271-9.54-7.071-14.23C1415.307,670.449,1404.85,670.449,1393.863,670.449z
		 M1397.917,661.44c8.312,0,15.937,0,24.072,0c-4.061-9.057-7.899-17.616-12.141-27.076
		C1405.626,643.945,1401.851,652.513,1397.917,661.44z"/>
	<path style="fill:#41403B;" d="M650.492,676.442c1.072-1.696,2.026-3.24,3.019-4.758c0.454-0.694,0.968-1.356,1.616-1.563
		c1.736-0.44,2.643,0.667,3.73,1.4c3.177,2.142,6.483,3.999,10.24,4.993c2.641,0.699,5.227,0.802,7.833-0.032
		c3.359-1.076,6.017-2.946,6.731-6.63c0.726-3.742-0.538-6.876-3.405-9.35c-2.929-2.528-6.383-4.146-9.92-5.609
		c-3.533-1.461-7.001-3.071-10.149-5.252c-9.813-6.799-11.736-19.174-4.33-27.712c3.702-4.268,8.665-6.155,14.063-6.675
		c7.726-0.745,14.785,1.482,21.181,5.813c0.513,0.347,0.796,1.034,1.253,1.654c-0.678,2.468-2.311,4.318-3.591,6.063
		c-2.119,0.886-3.503-0.12-4.939-0.967c-3.036-1.789-6.356-2.788-9.78-3.515c-3.125-0.664-5.991,0.173-8.557,1.771
		c-4.568,2.844-5.118,8.638-1.338,12.979c2,2.297,4.62,3.755,7.369,4.984c4.235,1.893,8.609,3.51,12.552,5.993
		c5.51,3.469,9.886,7.709,10.674,14.727c0.85,7.571-2.08,13.193-8.104,17.511C676.926,689.229,658.1,686.456,650.492,676.442z"/>
	<path style="fill:#43413C;" d="M1239.264,616.562c0.964,2.843,0.686,5.444,0.266,8.509c-5.643,1.511-11.49,0.033-17.622,0.99
		c0,19.453,0,38.85,0,58.327c-3.366,1.059-6.296,0.567-9.072,0.446c-0.264-0.268-0.384-0.381-0.493-0.503
		c-0.11-0.123-0.266-0.24-0.305-0.386c-0.128-0.477-0.299-0.965-0.299-1.449c-0.015-18.631-0.013-37.262-0.013-56.144
		c-5.885-1.326-11.958,0.675-17.685-1.223c-0.435-2.958-0.591-5.55,0.052-8.065C1197.533,615.888,1231.55,615.511,1239.264,616.562z
		"/>
	<path style="fill:#403E3A;" d="M1500.19,616.525c2.964-0.533,5.984-1.063,9.238,0.574c0,19.44,0,38.861,0,58.725
		c9.367,0,18.438,0,27.478,0c1.565,3.054,0.929,5.781,0.648,8.841c-12.559,0-24.941,0-37.337,0
		C1499.132,681.025,1499.041,621.096,1500.19,616.525z"/>
	<path style="fill:#484541;" d="M1316.255,616.756c0,22.737,0,45.126,0,67.335c-1.709,1.46-3.447,0.84-5.047,0.903
		c-1.47,0.057-2.994,0.285-4.388-0.328c-1.398-4.21-1.31-64.383,0.145-68.191C1309.801,615.889,1312.701,615.779,1316.255,616.756z"
		/>
	<path style="fill:#484541;" d="M761.525,616.244c2.318-0.254,5.084-0.464,7.777,0.194c1.399,3.636,1.578,63.689,0.215,68.239
		c-2.873,0.633-5.809,0.393-8.682,0.124c-1.396-3.516-2.095-46.297-1.149-64.784C759.756,618.652,759.758,617.337,761.525,616.244z"
		/>
	<path style="fill:#43413C;" d="M1580.088,616.779c0.721,1.966,0.749,3.364,0.153,4.819c-1.602,0.848-3.322,0.094-5.486,0.76
		c0,5.421,0,11.13,0,16.533c-2.074,1.392-3.629,1.204-5.716,0.367c-0.807-5.363,0.015-10.984-0.442-16.61
		c-1.486-1.385-3.544-0.036-5.207-1.016c-1.181-1.243-0.527-2.68-0.463-4.702C1568.681,616.601,1574.258,616.839,1580.088,616.779z"
		/>
</g>
</svg>
