<?xml version="1.0" encoding="iso-8859-1"?>
<!-- Generator: Adobe Illustrator 27.0.0, SVG Export Plug-In . SVG Version: 6.00 Build 0)  -->
<svg version="1.1" id="Layer_1" xmlns="http://www.w3.org/2000/svg" xmlns:xlink="http://www.w3.org/1999/xlink" x="0px" y="0px"
	 viewBox="0 0 1522 264.3" style="enable-background:new 0 0 1522 264.3;" xml:space="preserve">
<g>
	<path style="fill:#4574BA;" d="M258.96,1.365c-2.766,8.331-6.525,16.263-9.849,24.368c-9.239,22.532-18.653,44.993-27.963,67.496
		c-14.06,33.982-28.089,67.977-42.135,101.964c-9.364,22.657-18.736,45.312-28.104,67.967c-15.6-0.008-31.2-0.015-46.8-0.023
		c-2.238-5.709-4.452-11.428-6.716-17.126c-18.184-45.758-36.383-91.51-54.568-137.267C31.437,80.09,20.14,51.398,8.629,22.792
		C5.865,15.922,3.67,8.795,0,2.3c0-0.333,0-0.667,0-1c21.99,0.017,43.979,0.035,65.969,0.052c1.788,4.811,3.559,9.629,5.365,14.433
		c19.24,51.161,38.483,102.321,57.754,153.471c0.424,1.126,0.493,2.627,2.052,3.059c1.091-1.018,1.358-2.335,1.823-3.55
		c5.505-14.386,10.987-28.78,16.518-43.156c14.515-37.721,29.012-75.449,43.64-113.126c1.48-3.813,2.311-7.945,4.828-11.33
		c1.816,0.049,3.632,0.137,5.449,0.14C221.919,1.325,240.44,1.343,258.96,1.365z"/>
	<path style="fill:#4E78BC;" d="M1500,264.3c-3.449-2.102-7.354-3.33-10.225-6.529c-6.484-7.225-6.367-18.162,0.578-25.112
		c6.932-6.937,17.958-7.065,25.104-0.593c3.448,3.123,4.865,7.2,6.543,11.234c0,2,0,4,0,6c-1.296,0.318-0.963,1.561-1.354,2.391
		c-2.799,5.946-6.779,10.491-13.662,11.679c-0.37,0.064-0.658,0.609-0.984,0.93C1504,264.3,1502,264.3,1500,264.3z M1503.05,259.401
		c6.26,0.341,13.356-4.631,13.665-14.035c0.223-6.771-6.524-13.652-13.111-13.808c-7.015-0.167-13.378,6.283-13.591,13.778
		C1489.798,252.851,1495.78,259.304,1503.05,259.401z"/>
	<path style="fill:#BCC6E5;" d="M1522,52.3c-0.349-0.012-0.699-0.023-1.048-0.035c0.315-16.898,0.092-33.791,0.162-50.944
		c-2.205,0-3.687,0-5.168,0c-65.778,0-131.557-0.001-197.335,0.005c-1.497,0-2.994,0.08-4.49,0.123
		c-0.04-0.383-0.08-0.767-0.12-1.15c69.333,0,138.667,0,208,0C1522,17.7,1522,35,1522,52.3z"/>
	<path style="fill:#C8D0EA;" d="M501,0.3c0.016,0.324,0.021,0.647,0.015,0.971c-57.303,0.009-114.606,0.017-171.91,0.035
		c-1.996,0.001-3.992,0.106-5.987,0.162C323.078,1.08,323.039,0.69,323,0.3C382.333,0.3,441.667,0.3,501,0.3z"/>
	<path style="fill:#C8D0EA;" d="M688,0.3c-0.006,0.287,0.009,0.573,0.046,0.857c-1.655,0.047-3.311,0.135-4.966,0.136
		c-34.679,0.032-69.358,0.054-104.037,0.078C579.029,1.015,579.014,0.658,579,0.3C615.333,0.3,651.667,0.3,688,0.3z"/>
	<path style="fill:#C8D0EA;" d="M1081,0.3c0.016,0.283,0.031,0.567,0.047,0.85c-1.819,0.05-3.639,0.141-5.458,0.143
		c-24.188,0.025-48.375,0.037-72.563,0.052c-0.009-0.348-0.017-0.697-0.026-1.045C1029,0.3,1055,0.3,1081,0.3z"/>
	<path style="fill:#C8D0EA;" d="M1176,264.3c-0.009-0.289-0.024-0.579-0.044-0.867c25.023-0.028,50.046-0.056,75.068-0.084
		c0.002,0.317-0.006,0.635-0.024,0.952C1226,264.3,1201,264.3,1176,264.3z"/>
	<path style="fill:#C8D0EA;" d="M66,0.3c-0.01,0.351-0.021,0.702-0.031,1.052C43.979,1.335,21.99,1.318,0,1.3
		c0.08-2.217,1.752-0.927,2.5-0.93C23.667,0.283,44.833,0.3,66,0.3z"/>
	<path style="fill:#C8D0EA;" d="M197.95,1.153c0.018-0.284,0.035-0.568,0.05-0.853c20.333,0,40.667,0,61,0
		c-0.013,0.355-0.026,0.71-0.04,1.065c-18.521-0.022-37.041-0.04-55.562-0.072C201.582,1.29,199.766,1.202,197.95,1.153z"/>
	<path style="fill:#C8D0EA;" d="M636.886,263.137c0.038,0.388,0.076,0.776,0.114,1.164c-19.333,0-38.667,0-58,0
		c0.014-0.357,0.029-0.714,0.043-1.071C598.324,263.199,617.605,263.168,636.886,263.137z"/>
	<path style="fill:#C8D0EA;" d="M1060.763,263.009c0.079,0.431,0.158,0.861,0.237,1.292c-19.333,0-38.667,0-58,0
		c0.009-0.348,0.017-0.696,0.026-1.044c17.263,0.015,34.525,0.04,51.788,0.032C1056.797,263.287,1058.78,263.106,1060.763,263.009z"
		/>
	<path style="fill:#C8D0EA;" d="M1446.833,263.077c0.056,0.408,0.111,0.815,0.167,1.223c-19.333,0-38.667,0-58,0
		c0.022-0.368,0.045-0.736,0.067-1.104c10.626,0.035,21.252,0.11,31.877,0.093C1429.574,263.275,1438.203,263.152,1446.833,263.077z
		"/>
	<path style="fill:#C8D0EA;" d="M1193.999,1.297c-0.011-0.332-0.011-0.664,0.001-0.997c19,0,38,0,57,0
		c0.018,0.317,0.026,0.634,0.024,0.952C1232.016,1.267,1213.007,1.282,1193.999,1.297z"/>
	<path style="fill:#C8D0EA;" d="M104,264.3c0.036-0.388,0.072-0.775,0.109-1.163c15.6,0.008,31.2,0.015,46.8,0.023
		c0.03,0.38,0.061,0.76,0.091,1.14C135.333,264.3,119.667,264.3,104,264.3z"/>
	<path style="fill:#4574B9;" d="M636.886,263.137c-19.281,0.031-38.562,0.062-57.843,0.093c-0.037-1.331-0.106-2.662-0.106-3.993
		c-0.005-84.624-0.005-169.249,0.001-253.873c0-1.331,0.069-2.662,0.106-3.993c34.679-0.024,69.358-0.046,104.037-0.078
		c1.655-0.002,3.311-0.089,4.966-0.136c12.793,0.619,25.406,2.352,37.75,5.884c26.153,7.484,44.082,23.48,50.651,50.362
		c5.195,21.258,4.138,42.229-6.445,61.957c-9.723,18.124-24.993,28.832-45.061,32.869c-0.626,0.126-1.244,0.289-2.48,0.578
		c22.069,36.827,43.959,73.356,66.157,110.399c-23.289,0-45.741,0-68.83,0c-18.144-34.731-36.413-69.703-54.633-104.58
		c-9.479,0-18.584,0-28.268,0C636.886,193.606,636.886,228.371,636.886,263.137z M637.108,109.328
		c14.897,0,29.22,0.002,43.543-0.001c4.326-0.001,8.634-0.165,12.898-1.025c5.9-1.191,11.692-2.705,16.445-6.624
		c9.827-8.101,11.174-18.752,8.347-30.254c-2.3-9.358-9.058-14.785-17.763-18.077c-8.381-3.17-17.239-3.378-25.983-3.698
		c-11.15-0.408-22.325-0.113-33.49-0.079c-1.284,0.004-2.672-0.413-3.998,0.677C637.108,69.719,637.108,89.307,637.108,109.328z"/>
	<path style="fill:#4574B9;" d="M323.118,1.469c1.996-0.056,3.992-0.162,5.987-0.162c57.303-0.018,114.606-0.026,171.91-0.035
		c0,17.473,0,34.946,0,52.869c-39.785,0-79.517,0-119.122,0c-1.106,3.985-1.445,38.99-0.544,49.104c37.654,0,75.36,0,113.29,0
		c0,17.935,0,35.339,0,53.17c-37.802,0-75.374,0-113.292,0c0,17.994,0,35.567,0,53.343c-0.084-0.084,0.029,0.04,0.153,0.15
		c0.12,0.106,0.253,0.284,0.38,0.284c41.805,0.012,83.611,0.012,125.778,0.012c0,17.66,0,35.055,0,52.494
		c-3.533,0.958-171.597,1.417-183.944,0.46c-1.023-0.934-0.644-2.173-0.644-3.287c-0.016-85.802-0.012-171.604-0.007-257.406
		C323.063,2.134,323.099,1.802,323.118,1.469z"/>
	<path style="fill:#4574B9;" d="M1193.999,1.297c19.009-0.015,38.017-0.03,57.026-0.045c0.067,1.659,0.191,3.317,0.191,4.976
		c0.01,84.048,0.01,168.096,0,252.144c0,1.659-0.125,3.317-0.191,4.976c-25.023,0.028-50.046,0.056-75.068,0.084
		c-7.047-10.069-13.02-20.809-19.456-31.258c-19.606-31.827-39.096-63.725-58.592-95.62c-11.004-18.001-21.929-36.051-32.899-54.073
		c-1.018-1.673-2.103-3.306-3.285-5.16c-0.289,0.999-0.041-0.072-0.592,0.302c-0.11,0.075-0.156,0.29-0.175,0.447
		c-0.058,0.492-0.125,0.987-0.125,1.481c-0.026,61.152-0.047,122.304-0.068,183.456c-1.983,0.098-3.966,0.279-5.949,0.28
		c-17.263,0.008-34.525-0.017-51.788-0.032c-0.041-1.331-0.117-2.661-0.118-3.992c-0.006-84.642-0.006-169.284,0-253.926
		c0-1.331,0.077-2.661,0.117-3.992c24.188-0.015,48.376-0.028,72.563-0.052c1.819-0.002,3.639-0.093,5.458-0.143
		c5.088,6.976,9.212,14.561,13.718,21.9c19.199,31.27,38.282,62.612,57.385,93.942c12.62,20.697,25.2,41.418,37.809,62.122
		c0.849,1.395,1.79,2.734,2.907,4.432c1.52-1.874,0.941-3.739,0.942-5.4c0.036-57.121,0.029-114.242,0.037-171.364
		C1193.846,4.954,1193.945,3.125,1193.999,1.297z"/>
	<path style="fill:#4574BA;" d="M912.741,263.211c-19.155,0-38.077,0-57.308,0c0-87.166,0-174.2,0-261.256
		c3.428-0.97,48.008-1.325,57.308-0.405C912.741,88.684,912.741,175.848,912.741,263.211z"/>
	<path style="fill:#4574B9;" d="M1446.833,263.077c-8.63,0.075-17.259,0.198-25.889,0.212c-10.626,0.017-21.252-0.058-31.877-0.093
		c-0.029-5.999-0.082-11.997-0.083-17.996c-0.006-62.331-0.003-124.662-0.003-186.993c0-1.798,0-3.595,0-5.711
		c-24.978,0-49.584,0-73.83,0c-0.47-0.452-0.594-0.563-0.708-0.685c-0.111-0.118-0.304-0.247-0.304-0.371
		c-0.016-16.663-0.017-33.326-0.019-49.989c1.497-0.043,2.994-0.123,4.49-0.123c65.778-0.006,131.557-0.005,197.335-0.005
		c1.481,0,2.963,0,5.168,0c-0.07,17.154,0.153,34.046-0.162,50.944c-24.455,0-48.911,0-73.484,0c-0.948,2.097-0.554,4.1-0.554,6.02
		c-0.023,66.433-0.019,132.866-0.022,199.298C1446.892,259.416,1446.854,261.246,1446.833,263.077z"/>
	<path style="fill:#557CBE;" d="M1496.296,235.971c3.646-0.622,6.687-0.562,9.817,0.083c2.328,0.479,4.243,1.341,4.764,3.679
		c0.584,2.623,0.679,5.347-2.148,7.051c-0.42,0.253-0.818,0.543-1.325,0.882c0.404,2.593,3.114,4.131,3.343,7.022
		c-6.134,1.889-6.114-4.608-9.219-7.037c-0.949,2.434,0.163,4.807-0.846,6.966c-1.393,0.713-2.783,0.613-4.386,0.039
		C1496.296,248.537,1496.296,242.464,1496.296,235.971z M1501.582,243.486c1.557,0.924,3.058,1.02,4.23-0.691
		c0.497-0.726,0.399-1.627-0.188-2.301c-0.827-0.949-1.937-1.335-3.123-0.826C1500.673,240.454,1500.812,241.849,1501.582,243.486z"
		/>
	<path style="fill:#D6DBEF;" d="M1501.582,243.486c-0.77-1.637-0.908-3.032,0.919-3.818c1.186-0.51,2.296-0.124,3.123,0.826
		c0.587,0.674,0.685,1.575,0.188,2.301C1504.64,244.506,1503.139,244.411,1501.582,243.486z"/>
</g>
</svg>
