<?xml version="1.0" encoding="iso-8859-1"?>
<!-- Generator: Adobe Illustrator 27.0.0, SVG Export Plug-In . SVG Version: 6.00 Build 0)  -->
<svg version="1.1" id="Layer_1" xmlns="http://www.w3.org/2000/svg" xmlns:xlink="http://www.w3.org/1999/xlink" x="0px" y="0px"
	 viewBox="0 0 1547 461" style="enable-background:new 0 0 1547 461;" xml:space="preserve">
<g>
	<path style="fill:#4479BD;" d="M0,213c1.097-0.622,0.791-1.717,0.885-2.666c0.514-5.183,1.583-6.17,6.896-6.224
		c3.165-0.033,6.331-0.006,9.497-0.006c9.497,0.001,18.995-0.098,28.49,0.033c8.501,0.118,15.912,2.881,21.65,9.499
		c1.998,2.304,3.46,4.862,4.651,7.618c8.09,18.719,16.168,37.443,24.264,56.16c0.791,1.828,1.719,3.596,2.502,5.427
		c0.704,1.647,1.682,2.826,4.055,2.755c1.251-2.674,2.614-5.457,3.867-8.287c10.002-22.597,20.006-45.193,29.965-67.809
		c12.831-29.138,25.588-58.309,38.449-87.434c4.083-9.247,10.399-16.126,20.678-18.608c2.483-0.6,4.96-0.539,7.44-0.541
		c39.654-0.03,79.308-0.022,118.962-0.022c31.99,0,63.979-0.009,95.969,0.017c2.647,0.002,5.31-0.214,7.93,0.558
		c4.674,1.378,8.331,4.024,10.791,8.261c6.424,11.066,12.052,22.53,16.957,34.342c2.436,5.868,0.989,7.923-5.41,7.924
		c-69.144,0.008-138.289,0.002-207.433,0.015c-3.147,0.001-6.255,0.056-9.402,0.767c-8.539,1.93-14.815,6.649-18.419,14.566
		c-7.764,17.058-15.378,34.185-22.976,51.318c-7.261,16.373-14.409,32.795-21.632,49.184c-11.903,27.012-23.817,54.02-35.747,81.02
		c-4.424,10.012-8.908,19.997-13.358,29.997c-0.539,1.211-1.115,2.413-1.536,3.666c-2.236,6.652-7.025,10.482-13.758,11.388
		c-7.634,1.027-13.748-2.073-17.668-8.72c-4.137-7.016-7.056-14.649-10.341-22.082c-9.048-20.476-17.922-41.029-26.875-61.546
		c-6.101-13.982-12.348-27.903-18.236-41.974c-1.447-3.458-3.208-4.951-6.983-4.765c-5.485,0.271-10.993,0.088-16.491,0.062
		c-3.285-0.016-3.284-0.048-6.235-2.294C0.279,252.535,1.766,249.923,0,248C0,236.333,0,224.667,0,213z"/>
	<path style="fill:#274088;" d="M1547,359c-16.8,0-33.599,0-50.842,0c-3.962-4.799-8.135-9.745-12.191-14.785
		c-18.479-22.958-36.92-45.947-55.396-68.908c-1.001-1.244-1.853-2.915-4.147-2.308c-1.196,1.515-0.627,3.408-0.63,5.145
		c-0.041,24.498-0.017,48.996-0.049,73.493c-0.003,1.957,0.503,4.02-0.972,6.178c-14.34,0-28.909,0-43.387,0
		c-0.979-1.006-1.038-2.142-1.099-3.324c-0.911-17.577-0.258-247.934,0.733-251.816c3.454-1.026,38.001-1.282,43.685-0.318
		c1.672,1.627,1.034,3.742,1.036,5.664c0.033,41.496,0.019,82.993,0.047,124.489c0.001,1.792-0.445,3.661,0.463,5.343
		c1.913,1.14,2.757-0.379,3.739-1.425c6.384-6.802,12.769-13.604,19.12-20.437c15.083-16.228,30.147-32.475,45.225-48.709
		c0.334-0.36,0.735-0.657,0.979-0.873c16.772,0,33.389,0,49.836,0c1.842,2.34,0.241,3.546-1.024,4.858
		c-7.057,7.314-14.096,14.646-21.163,21.951c-18.305,18.919-36.627,37.822-54.921,56.752c-1.138,1.177-2.452,2.261-2.992,3.906
		c0.116,1.455,1.056,2.445,1.885,3.46c19.263,23.615,38.545,47.216,57.812,70.828c6.844,8.387,13.652,16.803,20.496,25.189
		c1.106,1.355,1.956,2.999,3.758,3.646C1547,357.667,1547,358.333,1547,359z"/>
	<path style="fill:#253F87;" d="M255,0c3.085,1.937,6.678,1.341,9.996,1.727c28.732,3.344,55.789,11.903,81.313,25.437
		c9.718,5.153,18.866,11.208,27.822,17.566c0.666,0.472,1.257,1.05,1.679,1.406c0.673,1.861,0.425,3.234-1.127,4.705
		c-92.271,0-184.861,0-277.517,0c-3.124-3.754-3.067-4.788,1.048-7.749c14.368-10.338,29.851-18.628,46.263-25.253
		c18.737-7.564,38.14-12.581,58.09-15.565c3.946-0.59,7.942-0.846,11.911-1.288C215.389,0.885,216.541,1.297,217,0c1,0,2,0,3,0
		c2.989,1.375,8.308,1.375,12,0c2.667,0,5.333,0,8,0c3.55,1.385,7.927,1.385,11,0C252.333,0,253.667,0,255,0z"/>
	<path style="fill:#263F88;" d="M217,461c-3.8-1.883-8.011-1.372-12.015-1.885c-18.049-2.314-35.498-6.845-52.439-13.416
		c-0.912-0.354-1.829-0.831-2.411-1.778c-0.75-1.996-0.112-3.836,0.706-5.715c3.576-8.212,7.146-16.428,10.608-24.689
		c1.227-2.928,3.336-3.762,6.312-3.707c8.156,0.151,16.316,0.161,24.474,0.184c48.119,0.133,96.24,0.134,144.358,0.469
		c11.145,0.078,22.296,0.34,33.446,0.384c0.665,0.003,1.333,0.014,1.995,0.078c1.446,0.14,2.541,0.829,2.977,2.258
		c0.431,1.412,0.041,2.636-1.168,3.528c-0.935,0.69-1.894,1.348-2.857,1.999c-28.585,19.299-59.639,32.545-93.732,38.466
		c-6.887,1.196-13.791,2.118-20.733,2.841c-0.911,0.095-2.062-0.312-2.521,0.985c-2,0-4,0-6,0c-3.161-1.397-5.549-1.397-9,0
		C231.667,461,224.333,461,217,461z"/>
	<path style="fill:#676BA3;" d="M232,0c-3.692,1.375-9.011,1.375-12,0C224,0,228,0,232,0z"/>
	<path style="fill:#5C639E;" d="M251,0c-3.073,1.385-7.45,1.385-11,0C243.667,0,247.333,0,251,0z"/>
	<path style="fill:#535D9A;" d="M239,461c3.451-1.397,5.839-1.397,9,0C245,461,242,461,239,461z"/>
	<path style="fill:#263F88;" d="M675.06,304.836c3.395-0.557,3.433-2.937,4.187-4.629c8.923-20.016,17.779-40.063,26.654-60.1
		c19.632-44.325,39.269-88.649,58.883-132.982c0.605-1.368,1.013-2.819,2.397-4.063c15.249,0,30.71-0.007,46.17,0.021
		c0.746,0.001,0.98,0.821,1.605,1.622c-2.479,5.584-5.042,11.318-7.575,17.065c-27.723,62.897-55.455,125.789-83.147,188.699
		c-4.481,10.179-8.626,20.507-13.207,30.639c-4.915,10.872-13.719,17.616-24.973,20.559c-17.451,4.564-33.384-3.33-41.939-16.043
		c-3.624-5.386-6.134-11.367-8.725-17.293c-25.474-58.265-50.959-116.526-76.434-174.79c-6.585-15.06-13.16-30.123-19.701-45.202
		c-0.7-1.613-1.909-3.333,0.282-5.257c15.297,0,30.928,0,47.05,0c14.703,33.462,29.568,67.141,44.305,100.874
		C645.615,237.651,660.344,271.341,675.06,304.836z"/>
	<path style="fill:#263F88;" d="M832.965,274.737c2.608,17.504,10.406,31.515,26.297,40.581c15.33,8.746,31.636,10.274,48.74,8.01
		c12.808-1.695,25.001-5.256,36.592-10.892c3.699-1.799,7.26-3.882,10.72-5.746c2.357,0.987,1.859,2.847,1.864,4.423
		c0.037,10.993,0.019,21.985,0.019,33.314c-6.448,4.568-13.548,8.053-21.116,10.602c-13.005,4.381-26.371,6.673-40.095,7.188
		c-13.552,0.508-26.942-0.313-39.968-4.271c-33.3-10.117-55.535-31.311-63.883-65.562c-5.513-22.619-4.785-45.335,2.946-67.377
		c8.139-23.203,21.908-42.192,44.542-53.346c15.522-7.649,32.026-10.472,49.389-9.03c10.882,0.904,21.375,2.865,31.419,7.161
		c17.211,7.363,29.194,19.923,36.704,36.913c4.967,11.236,7.2,23.093,7.954,35.295c0.515,8.318,0.644,16.638,0.551,24.965
		c-0.02,1.809,0.327,3.692-0.972,5.478c-1.693,1.078-3.745,0.532-5.682,0.533c-39.988,0.036-79.975,0.017-119.963,0.057
		C837.126,273.035,834.973,272.289,832.965,274.737z M923.218,243.563c-0.18-7.787-1.759-14.998-4.826-21.868
		c-4.226-9.464-11.312-15.78-21.178-19.077c-3.679-1.23-7.448-1.698-11.243-2.06c-10.224-0.976-19.868,0.792-28.542,6.556
		c-11.187,7.434-17.868,18.058-21.463,30.789c-0.386,1.366-1.426,2.747-0.451,4.289
		C838.595,243.271,916.189,244.602,923.218,243.563z"/>
	<path style="fill:#263F88;" d="M1339.374,217.056c-3.503-2.178-6.942-4.479-10.531-6.517c-13.399-7.61-27.603-12.377-43.244-11.339
		c-6.983,0.464-13.881,1.481-19.608,6.196c-9.014,7.422-9.165,20.905-0.133,28.262c6.209,5.058,13.725,7.38,21.3,9.289
		c9.332,2.352,18.852,4.044,27.699,8.01c10.28,4.609,19.66,10.415,26.375,19.851c4.929,6.925,7.782,14.626,9.3,22.885
		c2.52,13.713,0.878,26.826-6.057,39.062c-5.875,10.366-14.615,17.554-25.45,22.261c-17.452,7.582-35.749,8.395-54.343,6.568
		c-9.465-0.93-18.644-3.06-27.564-6.447c-5.932-2.253-11.498-5.099-16.962-8.785c-0.027-13.076-0.005-26.261,0.319-39.443
		c2.087-0.571,2.943,0.228,3.885,0.945c12.653,9.625,26.749,16.192,42.46,18.626c9.359,1.45,18.883,1.821,28.116-1.502
		c6.866-2.471,12.054-6.549,13.131-14.189c1.137-8.069-0.552-15.146-7.727-20.236c-6.247-4.432-13.389-6.489-20.568-8.578
		c-8.282-2.411-16.839-3.844-24.902-7.035c-5.262-2.083-10.338-4.498-15.138-7.54c-11.45-7.257-18.309-17.512-21.062-30.764
		c-3.211-15.454-1.593-30.164,6.534-43.803c10.036-16.842,25.182-26.146,44.462-28.656c16.526-2.152,32.868-0.948,48.911,3.739
		c8.005,2.339,15.53,5.73,22.82,10.146c0,12.332,0.012,24.625-0.025,36.919C1341.37,215.829,1340.798,216.513,1339.374,217.056z"/>
	<path style="fill:#263F88;" d="M454.657,309.306c0.958,1.942,0.42,3.779-0.344,5.703c-4.855,12.223-10.56,24.024-17.368,35.282
		c-3.458,5.719-8.586,8.722-15.263,8.795c-9.498,0.104-18.998,0.1-28.497,0.057c-33.661-0.152-67.322-0.546-100.981-0.415
		c-13.498,0.053-26.962-0.799-40.459-0.631c-18.954,0.236-37.913,0.06-56.87,0.059c-1,0-2.008,0.078-2.998-0.021
		c-3.344-0.333-4.642-2.255-3.699-5.534c0.319-1.109,0.859-2.157,1.331-3.218c5.46-12.292,11.076-24.519,16.307-36.908
		c1.763-4.175,4.187-5.599,8.701-5.572c45.995,0.277,91.995,0.037,137.986,0.575c32.16,0.376,64.319,0.221,96.476,0.528
		C450.93,308.026,453.019,307.579,454.657,309.306z"/>
	<path style="fill:#263F88;" d="M233.305,253.918c-0.946-2.04-0.088-3.872,0.709-5.716c3.688-8.528,7.081-17.199,11.127-25.554
		c5.682-11.733,15.031-18.471,28.4-18.483c62.79-0.055,125.581-0.029,188.371-0.017c5.198,0.001,7.508,1.844,7.843,6.935
		c0.875,13.307,0.83,26.636-0.025,39.944c-0.3,4.67-1.688,5.842-6.318,5.804c-12.652-0.103-25.299,0.106-37.958-0.422
		c-12.789-0.533-25.612-0.619-38.423,0.105c-3.638,0.206-7.312-0.325-10.97-0.338c-35.97-0.127-71.939-0.222-107.909-0.313
		c-9.657-0.024-19.315-0.016-28.972,0.005C236.99,255.874,234.802,255.989,233.305,253.918z"/>
	<path style="fill:#274088;" d="M996.203,183.095c35.916-18.917,73.323-22.954,112.689-14.779c0,14.349,0,28.404,0,43.182
		c-7.657-1.609-14.65-4.246-22.072-4.71c-7.654-0.478-15.292-1.033-22.939-0.021c-7.405,0.98-14.756,2.186-22.214,5.267
		c0,16.244,0,32.534,0,48.825c0,16.33,0,32.661,0,48.991c0,16.268,0.002,32.536-0.002,49.049c-15.305,0-29.749,0-44.238,0
		c-1.816-1.561-1.193-3.683-1.199-5.591c-0.043-14.164-0.025-28.328-0.025-42.493c0-40.493,0-80.986,0-121.479
		C996.203,187.519,996.203,185.702,996.203,183.095z"/>
	<path style="fill:#253F88;" d="M1183.632,357.941c-14.707,0-29.149,0-43.388,0c-0.315-0.335-0.432-0.451-0.539-0.576
		c-0.108-0.126-0.242-0.245-0.301-0.393c-0.123-0.307-0.29-0.632-0.29-0.949c-0.028-61.997-0.043-123.994-0.051-185.991
		c0-0.815,0.093-1.63,0.12-2.068c1.056-1.659,2.322-1.831,3.715-1.829c12.5,0.016,24.999,0.015,37.498,0.002
		c1.197-0.001,2.327,0.108,3.25,0.989C1184.372,171.007,1184.443,352.71,1183.632,357.941z"/>
	<path style="fill:#253F87;" d="M123.622,102.982c3.065,2.474,1.701,4.737,0.688,7.025c-4.498,10.158-8.969,20.329-13.461,30.491
		c-1.341,3.033-2.712,6.053-4.08,9.074c-0.751,1.658-1.382,3.414-3.712,4.43c-6.004,0-12.488,0-18.971,0
		c-20.303,0-40.605,0-60.908,0c-0.832,0-1.664,0.01-2.496-0.002c-5.467-0.077-6.678-1.704-4.693-6.681
		c2.333-5.85,4.617-11.738,7.34-17.408c3.088-6.429,6.647-12.628,10.462-18.673c3.151-4.991,7.619-8.141,13.464-8.18
		C72.705,102.883,98.158,102.982,123.622,102.982z"/>
	<path style="fill:#263F88;" d="M1161.889,138.629c-16.235,0.336-28.043-13.307-27.917-27.697
		c0.133-15.278,12.201-27.552,27.515-27.761c15.255-0.208,27.996,12.477,27.971,27.852
		C1189.433,126.278,1177.118,138.61,1161.889,138.629z"/>
</g>
</svg>
