<?xml version="1.0" encoding="iso-8859-1"?>
<!-- Generator: Adobe Illustrator 27.0.0, SVG Export Plug-In . SVG Version: 6.00 Build 0)  -->
<svg version="1.1" id="Layer_1" xmlns="http://www.w3.org/2000/svg" xmlns:xlink="http://www.w3.org/1999/xlink" x="0px" y="0px"
	 viewBox="0 0 1526.24 356" style="enable-background:new 0 0 1526.24 356;" xml:space="preserve">
<g>
	<path style="fill:#494949;" d="M269.382,269.135c-3.18,19.474-7.374,38.673-15.372,56.845c-2.817,6.399-6.245,12.424-10.672,17.866
		c-4.058,4.988-8.894,8.899-15.003,11.09c-0.598,0.215-1.319,0.166-1.335,1.065c-32.333,0-64.667,0-97,0
		c-0.057-0.156-0.079-0.419-0.177-0.452c-11.824-3.974-18.76-12.966-24.253-23.491c-5.074-9.721-8.646-19.994-11.586-30.526
		c-2.984-10.687-4.729-21.636-7.058-32.461c-0.026-7.084-1.736-13.975-2.553-20.967c-0.251-2.143,0.575-4.703-1.309-6.581
		c0.256-8.002-1.292-15.885-1.559-23.853c-0.379-11.296-1.51-22.568-1.133-33.889c8.985,0.385,17.721,2.646,26.639,3.537
		c0.302,7.467,0.599,14.934,0.906,22.401c0.497,12.108,1.362,24.185,3.148,36.182c-0.664,3.848,0.667,7.542,1.123,11.267
		c0.653,5.329,1.056,10.773,2.919,15.908c0.621,3.253,1.154,6.527,1.878,9.757c2.832,12.644,6.188,25.124,12.105,36.75
		c1.717,3.373,3.656,6.613,6.438,9.263c4.687-4.389,7.213-8.548,10.473-16.904c4.537-11.632,7.434-23.72,10.073-35.882
		c8.987-0.058,17.976-0.269,26.957,0.299c-2.935,18.019-7.758,35.509-15.061,52.307c1.98,0.739,3.66,0.415,5.302,0.423
		c13.831,0.073,27.669-0.121,41.491,0.267c5.041,0.142,8.267-1.576,10.455-5.864c0.527-1.034,1.183-2.002,1.717-3.032
		c7.731-14.92,11.529-31.05,14.553-47.416c2.233-8.927,3.346-18.031,4.291-27.161c2.02-19.471,3.532-38.973,3.564-58.565
		c1.957-0.189,3.946-0.22,5.866-0.597c6.887-1.352,13.806-2.444,20.808-2.971c0.038,1.66,0.114,3.319,0.109,4.979
		c-0.06,17.651-1.396,35.229-3.051,52.788C271.845,250.721,270.613,259.928,269.382,269.135z"/>
	<path style="fill:#FBBB9A;" d="M0.861,224.075C0.574,224.052,0.287,224.027,0,224c0-30.667,0-61.333,0-92
		c0.297,0.008,0.591-0.013,0.883-0.065c0.035,22.415,0.084,44.83,0.096,67.245C0.985,207.478,0.903,215.777,0.861,224.075z"/>
	<path style="fill:#928E8E;" d="M131.887,0.881C132.022,0.6,132.06,0.306,132,0c30.667,0,61.333,0,92,0
		c-0.014,0.294,0.03,0.579,0.133,0.855c-8.64,0.046-17.28,0.134-25.92,0.129C176.104,0.972,153.995,0.918,131.887,0.881z"/>
	<path style="fill:#494949;" d="M1311.68,201.553c0.925,2.909,3.068,4.871,4.73,7.098c11.445,15.34,22.982,30.613,34.485,45.909
		c1.704,2.266,3.234,4.625,4.104,7.363c2.05,6.448-0.084,12.385-5.812,15.972c-3.145,1.969-6.615,3.158-10.264,3.616
		c-11.061,1.388-21.927,1.577-31.595-5.414c-4.543-3.286-7.979-7.56-11.002-12.144c-10.88-16.499-22.487-32.533-31.921-50.046
		c-4.978,0-9.783,0-14.705,0c-1.247,1.117-0.648,2.711-0.654,4.114c-0.055,13.497-0.026,26.995-0.059,40.492
		c-0.007,2.821-0.22,5.604-0.718,8.426c-1.537,8.713-8.354,13.885-17.073,14.939c-5.134,0.62-10.358,0.67-15.466-0.046
		c-8.847-1.24-15.608-6.111-16.838-16.222c-0.382-3.147-0.699-6.276-0.698-9.452c0.012-45.658-0.02-91.316,0.001-136.974
		c0.007-15.14,6.163-23.136,20.664-27.093c1.121-0.306,2.229-0.682,3.367-0.9c17.449-3.334,35.021-3.802,52.692-2.353
		c9.984,0.819,19.767,2.547,29.118,6.205c18.166,7.107,31.025,19.286,35.25,38.864c3.988,18.482,1.777,36.058-9.765,51.714
		c-3.18,4.314-7.04,7.996-11.321,11.219C1316.081,198.436,1313.902,199.951,1311.68,201.553z M1249.152,172.919
		c4.971,0,9.467,0.253,13.923-0.065c5.314-0.379,10.454-1.63,15.217-4.266c10.485-5.802,11.206-20.399,5.57-27.921
		c-1.302-1.738-2.914-3.178-4.899-4.171c-9.564-4.787-19.581-3.964-29.811-2.874
		C1249.152,146.842,1249.152,159.627,1249.152,172.919z"/>
	<path style="fill:#F05523;" d="M846.504,183.44c-8.732-11.618-17.272-22.887-25.707-34.233
		c-7.446-10.016-14.823-20.085-22.133-30.201c-3.038-4.204-5.567-8.699-5.813-14.088c-0.295-6.439,2.08-10.242,7.917-13.119
		c3.208-1.581,6.685-2.181,10.106-2.513c7.799-0.757,15.596-0.682,23.313,1.227c9.129,2.258,15.642,8.016,20.674,15.5
		c6.586,9.796,12.787,19.851,19.137,29.805c2.661,4.171,5.28,8.369,8.257,13.091c4.523-7.135,8.693-13.692,12.841-20.263
		c4.706-7.453,9.436-14.892,14.078-22.384c6.969-11.249,17.194-16.721,30.252-17.257c6.171-0.254,12.332-0.296,18.354,1.379
		c6.773,1.883,10.747,6.112,10.895,12c0.097,3.883-1.148,7.525-3.108,10.896c-3.359,5.777-7.651,10.886-11.667,16.186
		c-12.969,17.112-26.02,34.162-39.033,51.242c-0.397,0.521-0.717,1.1-1.234,1.902c5.565,7.454,11.133,14.898,16.687,22.353
		c10.64,14.282,21.27,28.57,31.906,42.855c2.788,3.744,5.333,7.644,7.224,11.922c4.156,9.406,1.042,16.859-8.591,20.263
		c-8.057,2.847-16.376,2.375-24.7,1.557c-12.973-1.274-22.089-8.318-28.877-19.016c-8.555-13.481-17.194-26.909-25.839-40.333
		c-0.965-1.498-1.613-3.264-3.209-4.376c-1.655,0.802-2.165,2.509-3.014,3.86c-7.959,12.672-15.84,25.393-23.743,38.1
		c-0.615,0.989-1.237,1.974-1.851,2.963c-8.474,13.65-20.607,20.322-36.784,19.377c-4.152-0.243-8.33-0.078-12.424-1.051
		c-9.749-2.317-13.865-9.888-10.521-19.339c1.693-4.784,4.686-8.778,7.673-12.772c15.748-21.059,31.514-42.106,47.27-63.159
		C845.332,185.154,845.786,184.466,846.504,183.44z"/>
	<path style="fill:#484949;" d="M1110.271,243.108c-21.997,0-43.469,0-65.146,0c-2.295,4.226-3.489,8.884-5.116,13.358
		c-1.88,5.171-4.052,10.177-7.194,14.718c-4.667,6.745-11.193,10.179-19.292,10.829c-4.332,0.348-8.661,0.23-12.976-0.154
		c-1.808-0.161-3.648-0.493-5.363-1.072c-8.501-2.87-11.848-8.868-10.358-17.828c0.748-4.498,2.631-8.558,4.36-12.671
		c19.663-46.791,39.378-93.561,59.1-140.328c0.837-1.984,1.815-3.916,2.839-5.812c4.471-8.272,11.194-13.433,20.626-14.833
		c5.482-0.813,11.02-0.847,16.425,0.067c9.385,1.588,15.771,7.261,19.835,15.781c3.862,8.098,6.977,16.501,10.354,24.796
		c16.448,40.4,32.876,80.808,49.257,121.236c1.678,4.142,3.181,8.365,3.639,12.888c0.735,7.257-1.913,12.215-8.427,15.399
		c-2.855,1.395-5.831,2.354-9.052,2.486c-6.313,0.258-12.646,0.787-18.833-1.006c-5.297-1.535-9.485-4.559-12.555-9.251
		c-4.233-6.469-6.66-13.703-9.297-20.861C1112.185,248.376,1111.287,245.894,1110.271,243.108z M1095.616,201.839
		c-6.011-16.306-11.828-32.084-17.968-48.74c-6.176,16.775-11.991,32.568-17.945,48.74
		C1071.678,201.839,1083.222,201.839,1095.616,201.839z"/>
	<path style="fill:#F05523;" d="M714.999,243.174c-21.748,0-43.381,0-65.261,0c-2.076,3.863-3.078,8.243-4.673,12.383
		c-1.552,4.029-3.058,8.061-5.139,11.867c-4.265,7.802-10.559,12.645-19.479,13.982c-6.644,0.996-13.268,1.219-19.807-0.435
		c-8.526-2.158-12.676-9.108-11.067-17.853c0.761-4.135,2.361-7.944,3.974-11.766c19.819-46.952,39.642-93.902,59.467-140.851
		c2.145-5.08,4.642-9.901,8.698-13.827c2.82-2.729,5.929-4.761,9.69-5.876c8.843-2.62,17.679-2.895,26.481,0.073
		c4.873,1.643,8.75,4.638,11.649,8.946c2.523,3.749,4.499,7.771,6.19,11.928c18.954,46.588,37.885,93.184,56.786,139.793
		c1.936,4.774,3.646,9.617,3.575,14.918c-0.082,6.153-2.923,10.43-8.402,13.017c-1.342,0.633-2.764,1.171-4.207,1.501
		c-6.565,1.5-13.28,1.658-19.878,0.863c-8.76-1.056-14.747-6.323-18.695-14.103c-3.168-6.242-5.374-12.863-7.898-19.36
		C716.344,246.681,715.695,244.982,714.999,243.174z M700.501,201.913c-5.985-16.22-11.817-32.026-17.649-47.832
		c-0.3,0.035-0.601,0.069-0.901,0.104c-5.794,15.779-11.589,31.557-17.528,47.728C676.725,201.913,688.3,201.913,700.501,201.913z"
		/>
	<path style="fill:#F05523;" d="M522.569,212.144c7.206-19.892,14.264-39.398,21.339-58.897c4.982-13.73,9.967-27.458,14.999-41.169
		c0.913-2.489,1.974-4.933,3.11-7.33c4.828-10.192,13.225-15.029,24.191-15.702c5.641-0.346,11.324-0.623,16.92,0.585
		c12.319,2.659,16.384,10.571,13.394,22.167c-2.038,7.908-5.77,15.201-8.978,22.668c-17.63,41.037-35.321,82.048-53.034,123.049
		c-1.579,3.654-3.357,7.234-5.237,10.745c-4.023,7.513-10.175,12.302-18.727,13.345c-7.27,0.887-14.554,0.979-21.848-0.457
		c-8.758-1.724-14.642-6.894-18.38-14.649c-2.882-5.978-5.439-12.118-7.978-18.254c-17.711-42.799-35.385-85.614-53.053-128.432
		c-1.583-3.837-3.072-7.684-3.33-11.936c-0.553-9.101,3.705-15.406,13.303-17.732c8.672-2.102,17.526-2.039,26.208,0.153
		c7.801,1.97,12.864,7.387,16.365,14.345c3.74,7.433,6.317,15.346,9.184,23.133c9.981,27.104,19.942,54.216,29.884,81.334
		C521.246,210.055,521.519,210.993,522.569,212.144z"/>
	<path style="fill:#484949;" d="M1471.904,139.002c0,2.34,0,4.142,0,5.943c-0.006,36.983-0.007,73.966-0.025,110.949
		c-0.001,2.991-0.194,5.955-0.583,8.947c-1.424,10.954-8.083,15.015-16.003,16.63c-6.852,1.398-13.91,1.199-20.831-0.207
		c-12.299-2.498-15.244-9.965-16.257-19.143c-0.236-2.142-0.103-4.327-0.103-6.492c-0.008-37.483-0.01-74.965-0.013-112.448
		c0-1.161,0-2.321,0-3.363c-1.193-1.319-2.617-0.783-3.877-0.79c-8.829-0.049-17.658-0.004-26.487-0.041
		c-2.328-0.01-4.684-0.006-6.977-0.348c-9.045-1.352-14.539-6.206-16.215-15.167c-1.193-6.376-1.287-12.931,0.548-19.296
		c2.162-7.501,8.546-12.537,16.443-13.044c3.156-0.203,6.324-0.318,9.486-0.315c37.482,0.043,74.964,0.121,112.447,0.174
		c2.672,0.004,5.265,0.287,7.895,0.889c7.405,1.696,11.859,6.163,13.714,13.476c1.42,5.598,1.485,11.318,0.557,16.859
		c-1.88,11.231-7.836,15.939-19.128,16.583c-9.466,0.54-18.984,0.172-28.479,0.204
		C1476.201,139.007,1474.387,139.002,1471.904,139.002z"/>
	<path style="fill:#494949;" d="M131.887,0.881c22.109,0.037,44.217,0.091,66.326,0.103c8.64,0.005,17.28-0.083,25.92-0.129
		c7.664,0.612,13.126,5.042,18.017,10.429c7.042,7.755,11.235,17.116,14.937,26.738c6.096,15.842,9.509,32.36,12.272,49.038
		c0.225,1.947,0.411,3.9,0.681,5.841c1.026,7.356,2.079,14.708,3.121,22.062c1.236,13.601,2.172,27.224,2.831,40.865
		c-1.293,0.236-2.586,0.473-3.879,0.709c-7.586,1.382-15.103,3.229-22.867,3.421c-0.356-16.444-1.752-32.816-3.43-49.168
		c-1.002-9.309-2.143-18.596-4.305-27.724c-1.521-6.798-2.807-13.658-4.616-20.378c-2.849-10.583-6.231-20.99-12.029-30.44
		c-2.185-3.562-4.886-5.318-9.35-5.25c-14.984,0.228-29.974,0.034-44.961,0.007c-0.815-0.001-1.658-0.126-2.632,0.563
		c7.513,16.653,11.896,34.31,15.188,52.277c-8.995,0.076-17.991,0.152-26.986,0.228c-1.034-4.361-2.038-8.729-3.107-13.082
		c-2.657-10.821-5.836-21.47-11.123-31.348c-1.602-2.993-3.22-6.084-6.31-8.029c-4.653,4.631-7.306,10.17-9.59,15.896
		c-5.122,12.841-8.489,26.173-10.894,39.763c-2.035,9.064-3.7,18.183-4.069,27.494c-0.31,1.967-0.709,3.925-0.914,5.903
		c-1.495,14.372-2.158,28.802-2.952,43.223c-1.308-0.023-2.645,0.122-3.92-0.095c-7.531-1.285-15.129-2.199-22.573-3.982
		c0.451-13.649,1.487-27.259,2.788-40.85c0.84-6.187,1.789-12.362,2.474-18.567c0.343-3.105,1.617-6.118,1.01-9.323
		c2.283-10.856,4.102-21.814,7.088-32.517c3.44-12.328,7.833-24.287,14.377-35.329c4.752-8.019,10.836-14.711,20.078-17.708
		C129.576,1.169,130.752,1.088,131.887,0.881z"/>
	<path style="fill:#F05624;" d="M273.162,114.963c-1.043-7.354-2.096-14.706-3.121-22.062c-0.271-1.941-0.456-3.894-0.681-5.841
		c17.379,2.942,34.601,6.54,51.066,13.022c7.905,3.112,15.5,6.873,22.276,12.104c6.525,5.038,11.386,11.196,12.861,19.526
		c0.374,2.114,0.407,4.307,0.41,6.464c0.026,26.499-0.207,53,0.119,79.495c0.148,12.051-5.143,20.8-14.513,27.379
		c-12.537,8.802-26.703,14.106-41.464,17.747c-10.152,2.504-20.322,5.033-30.732,6.338c1.232-9.207,2.463-18.414,3.695-27.621
		c12.673-1.883,24.913-5.446,36.959-9.697c4.849-1.711,9.477-3.956,13.811-6.77c2.098-1.362,4.143-2.745,5.121-4.792
		c0-17.596,0-34.84,0-52.022c-1.144-0.225-1.839,0.274-2.595,0.599c-9.452,4.064-19.195,7.286-29.155,9.827
		c-7.041,1.796-14.131,3.399-21.2,5.088c-7.002,0.528-13.921,1.619-20.808,2.971c-1.92,0.377-3.909,0.407-5.866,0.597
		c-4.604,0.358-9.217,0.631-13.812,1.089c-14.466,1.443-28.961,2.327-43.499,2.471c-0.016-7.083-0.003-14.166-0.077-21.248
		c-0.013-1.224,0.615-2.677-0.803-3.622c0.001-0.557,0.002-1.114,0.003-1.67c11.309-0.148,22.618-0.472,33.88-1.477
		c8.091-0.722,16.237-1.135,24.211-2.9c7.764-0.192,15.281-2.039,22.867-3.421c1.293-0.236,2.586-0.473,3.879-0.709
		c1.622-0.283,3.253-0.524,4.865-0.857c11.521-2.375,22.922-5.185,33.697-10.036c5.252-2.364,10.458-4.868,14.923-9.731
		C312.402,122.854,292.807,118.841,273.162,114.963z"/>
	<path style="fill:#F05624;" d="M86.946,87.076c0.607,3.205-0.667,6.218-1.01,9.323c-0.685,6.204-1.634,12.379-2.474,18.567
		c-1.951,0.35-3.914,0.642-5.851,1.06c-11.001,2.371-21.949,4.977-32.414,9.19c-6.28,2.528-12.494,5.285-17.607,10.27
		c2.745,2.883,5.823,4.997,9.205,6.799c13.765,7.335,28.698,10.823,43.879,13.531c7.443,1.783,15.041,2.697,22.573,3.982
		c1.275,0.217,2.612,0.073,3.92,0.095c10.494,1.71,21.08,2.51,31.681,3.133c8.453,0.497,16.91,0.926,25.365,1.386
		c0.856,1.169,0.682,2.522,0.682,3.843c0,6.647,0.008,13.295-0.014,19.942c-0.003,0.956,0.306,2.015-0.613,2.783
		c-1.999-0.033-3.998-0.039-5.996-0.103c-17.13-0.553-34.191-2.114-51.26-3.56c-8.918-0.891-17.654-3.153-26.639-3.537
		c-0.586-0.268-1.146-0.662-1.761-0.786c-16.944-3.418-33.679-7.53-49.495-14.74c-0.418-0.191-0.968-0.092-1.543-0.135
		c-0.143,0.495-0.386,0.945-0.387,1.395c-0.024,15.985-0.011,31.969-0.042,47.954c-0.005,2.761,1.184,4.698,3.465,6.193
		c3.622,2.376,7.395,4.438,11.36,6.182c13.163,5.788,27.124,8.744,41.094,11.679c1.884,1.878,1.058,4.438,1.309,6.581
		c0.818,6.992,2.528,13.883,2.553,20.967c-21.285-3.086-42.029-8.173-61.506-17.499c-7.21-3.452-13.819-7.969-18.833-14.453
		c-3.006-3.888-5.243-8.069-5.725-13.044c0.042-8.298,0.124-16.596,0.119-24.894c-0.013-22.415-0.062-44.83-0.096-67.245
		c1.495-9.358,7.355-15.77,14.615-21.047c7.271-5.285,15.44-8.91,23.848-12.038c13.701-5.097,27.936-8.063,42.228-10.831
		C83.359,87.673,85.155,87.389,86.946,87.076z"/>
	<path style="fill:#F05624;" d="M115.107,273.074c-1.863-5.135-2.267-10.578-2.919-15.908c-0.456-3.725-1.787-7.419-1.123-11.267
		c5.958,0.485,11.918,0.943,17.873,1.46c10.423,0.905,20.843,1.872,31.327,1.502c8.982,0.042,17.964,0.085,26.946,0.127
		c10.286,0.226,20.561,0.315,30.826-0.717c9.234-0.929,18.494-1.604,27.743-2.391c-0.946,9.13-2.058,18.234-4.291,27.161
		c-1.323,0.067-2.651,0.081-3.968,0.21c-15.154,1.482-30.327,2.655-45.563,2.813c-2.976,0.031-5.951,0.191-8.926,0.292
		c-8.98-0.569-17.969-0.357-26.957-0.299C142.398,275.352,128.744,274.333,115.107,273.074z"/>
	<path style="fill:#F05624;" d="M241.513,83.066c2.162,9.129,3.303,18.416,4.305,27.724c-7.236-0.908-14.47-1.763-21.762-2.204
		c-12.253-0.741-24.487-1.845-36.783-1.427c-8.913-0.182-17.828-0.594-26.732,0.255c-7.142-0.745-14.236,0.351-21.342,0.664
		c-9.423,0.416-18.827,1.275-28.166,2.688c0.37-9.311,2.034-18.43,4.069-27.494c12.903-0.843,25.747-2.596,38.71-2.538
		c0.828,0.004,1.664-0.021,2.314-0.663c8.995-0.076,17.991-0.152,26.986-0.228c1.155,0.07,2.309,0.153,3.465,0.207
		c12.055,0.56,24.118,0.848,36.167,1.659C229.002,82.131,235.199,83.474,241.513,83.066z"/>
	<path style="fill:#494949;" d="M164.211,164.412c0.067-19.082-1.887-38.034-3.67-56.997c8.903-0.849,17.819-0.437,26.732-0.255
		c1.136,10.403,2.083,20.82,2.751,31.266c0.552,8.631,0.979,17.263,1.133,25.91c-0.001,0.557-0.002,1.114-0.003,1.67
		c-0.194,8.368-0.339,16.737,0.079,25.103c-0.416,9.255-0.72,18.518-1.277,27.764c-0.606,10.063-1.414,20.116-2.745,30.116
		c-8.982-0.042-17.964-0.085-26.946-0.127c0.896-8.546,2.001-17.077,2.634-25.643c0.793-10.726,1.433-21.471,1.368-32.239
		c0.919-0.768,0.61-1.827,0.613-2.783c0.022-6.647,0.014-13.295,0.014-19.942C164.893,166.934,165.067,165.581,164.211,164.412z"/>
	<path style="fill:#F17947;" d="M191.233,191.108c-0.419-8.367-0.274-16.735-0.079-25.103c1.418,0.945,0.79,2.398,0.803,3.622
		c0.074,7.082,0.061,14.165,0.077,21.248C191.799,191.063,191.532,191.141,191.233,191.108z"/>
</g>
</svg>
