<?xml version="1.0" encoding="iso-8859-1"?>
<!-- Generator: Adobe Illustrator 27.0.0, SVG Export Plug-In . SVG Version: 6.00 Build 0)  -->
<svg version="1.1" id="Layer_1" xmlns="http://www.w3.org/2000/svg" xmlns:xlink="http://www.w3.org/1999/xlink" x="0px" y="0px"
	 viewBox="0 0 1585 539.937" style="enable-background:new 0 0 1585 539.937;" xml:space="preserve">
<g>
	<path style="fill:#E92628;" d="M0,247.937c1.965-3.587,1.287-7.641,1.897-11.457c1.046-6.551,2.022-13.103,3.467-19.92
		c7.065,0.779,13.686,2.729,20.744,4.068c-11.762,64.177-0.35,123.248,38.649,175.628c38.987,52.363,91.783,81.72,156.747,87.404
		c114.235,9.994,211.206-69.148,232.484-174.634c22.368-110.887-45.413-228.698-168.513-256.86
		C288.627,34.783,292.783,17.59,296.367,0c4.674,0.396,8.938,1.656,13.222,2.743c39.118,9.922,74.38,27.616,105.548,53.208
		c18.22,14.96,34.326,32.027,48.158,51.187c20.172,27.94,34.587,58.581,43.148,91.949c4.1,15.978,6.759,32.196,7.814,48.689
		c0.458,7.157,0.799,14.302,0.742,21.467c-0.203,25.437-3.841,50.389-11.128,74.749c-15.944,53.296-45.441,97.748-88.263,133.176
		c-35.264,29.175-75.646,47.806-120.496,56.851c-14.89,3.003-29.947,4.342-45.081,5.078c-6.021,0-12.042,0-18.062,0.001
		c-16.383-0.868-32.65-2.529-48.669-6.63c2.264-10.651,4.433-20.852,6.603-31.059c-1.423-0.988-2.887-1.196-4.338-1.53
		c-8.259-1.902-16.387-4.247-24.388-7.06c-31.811-11.183-60.233-28.038-84.852-51.091c-24.866-23.284-44.021-50.639-57.295-82.052
		c-8.849-20.941-14.568-42.702-17.231-65.294c-0.371-3.146,0.097-6.552-1.797-9.444c0-1.667,0-3.333,0-5c1.39-3.096,1.39-9.437,0-13
		c0-0.667,0-1.333,0-2c2.019-3.865,0.587-8.011,0.931-12.013c0.026-0.3-0.605-0.657-0.931-0.987C0,250.604,0,249.27,0,247.937z"/>
	<path style="fill:#262222;" d="M1585,272.937c-1.502,0.398-0.515,2.138-1.524,2.839c-19.947,0-39.905,0-60.106,0
		c-0.613-1.727-0.153-3.289,0.154-4.887c0.82-4.274,1.027-8.597,0.633-12.928c-0.507-5.569-3.404-8.5-8.957-8.727
		c-6.044-0.247-11.052,1.908-14.509,7.105c-3.064,4.607-5.05,9.693-6.689,14.934c-3.727,11.917-6.101,24.132-7.767,36.479
		c-0.442,3.273-0.451,6.687-0.079,9.97c0.766,6.75,5.645,10.146,12.361,8.934c5.007-0.903,8.872-3.459,11.595-7.854
		c2.56-4.13,4.171-8.644,5.84-13.15c0.51-1.378,0.982-2.77,1.484-4.189c20.277,0,40.366,0,60.86,0
		c-1.285,7.762-4.018,14.654-7.548,21.231c-9.374,17.467-24.509,27.535-43.025,33.177c-15.148,4.616-30.744,5.244-46.42,5.223
		c-9.055-0.013-17.878-1.418-26.462-4.252c-18.679-6.167-30.282-18.348-33.075-38.358c-0.833-5.963-0.37-11.898-0.616-18.062
		c-31.144,0-62.089,0-93.329,0c-2.172,5.673-2.577,11.601-1.679,17.529c0.653,4.309,3.602,7,7.877,8.048
		c10.438,2.559,20.876-2.075,24.903-11.521c0.189-0.443,0.406-0.873,0.716-1.537c19.06,0,38.149,0,57.299,0
		c0.391,2.106-0.771,3.648-1.495,5.223c-7.187,15.647-18.775,26.773-34.611,33.527c-11.265,4.805-23.085,7.043-35.209,8.315
		c-11.165,1.172-22.301,1.344-33.388-0.145c-14.287-1.919-27.464-6.442-37.3-17.852c-5.494-6.373-8.778-13.867-9.73-22.031
		c-3.081-26.42,3.236-50.492,19.576-71.62c9.726-12.576,22.648-20.943,37.504-26.215c21.684-7.695,43.931-9.036,66.33-4.01
		c12.434,2.79,23.315,8.669,30.478,19.946c4.006,6.307,6.113,13.183,6.943,20.542c0.533,4.725,0.86,9.463,1.384,14.346
		c1.763-3.673,3.41-7.407,5.307-11.009c10.342-19.643,26.467-32.474,47.148-39.963c13.481-4.882,27.44-6.275,41.661-6.289
		c11.905-0.012,23.575,1.38,34.813,5.358c13.91,4.924,23.377,14.172,27.232,28.75c0.538,2.034-0.206,4.361,1.421,6.122
		C1585,261.604,1585,267.27,1585,272.937z M1334.113,270.849c11.477,0,22.57,0,33.717,0c1.795-3.928,1.591-7.961,0.982-11.845
		c-0.827-5.273-4.909-8.715-10.322-9.194c-2.137-0.189-4.338-0.192-6.462,0.089C1341.997,251.226,1333.94,260.541,1334.113,270.849z
		"/>
	<path style="fill:#FCDBCD;" d="M232,539.937c0.006-0.281-0.004-0.561-0.031-0.84c6.021,0,12.042,0,18.062-0.001
		c-0.027,0.28-0.037,0.56-0.031,0.84C244,539.937,238,539.937,232,539.937z"/>
	<path style="fill:#EE6B51;" d="M0,251.937c0.326,0.33,0.957,0.687,0.931,0.987c-0.345,4.002,1.087,8.148-0.931,12.013
		C0,260.604,0,256.27,0,251.937z"/>
	<path style="fill:#EE6B51;" d="M0,266.937c1.39,3.563,1.39,9.904,0,13C0,275.604,0,271.27,0,266.937z"/>
	<path style="fill:#262222;" d="M673.165,356.732c-28.368,0-56.174,0-83.941,0c-1.277-4.083-2.12-177.726-0.994-196.782
		c3.588-0.978,58.496-1.338,69.85-0.394c-3.203,40.093-6.408,80.192-9.61,120.277c0.294,0.053,0.455,0.107,0.616,0.104
		c0.147-0.002,0.343-0.019,0.431-0.111c0.221-0.232,0.427-0.493,0.576-0.775c0.232-0.439,0.442-0.895,0.611-1.363
		c14.202-39.254,28.4-78.509,42.605-117.762c0.049-0.137,0.214-0.232,0.505-0.533c26.438,0,53.049,0,80.283,0
		c-0.107,13.67-1.785,27.157-2.491,40.683c-0.711,13.628-1.824,27.236-2.806,40.849c-0.98,13.577-2.017,27.149-2.092,40.931
		c14.192-40.759,28.383-81.517,42.626-122.424c23.243,0,46.321,0,70.073,0c-28.362,66.014-56.536,131.587-84.751,197.26
		c-28.055,0-56.004,0-84.611,0c2.994-42.203,5.978-84.252,8.961-126.302c-0.21-0.045-0.421-0.091-0.631-0.136
		C703.334,272.331,688.294,314.407,673.165,356.732z"/>
	<path style="fill:#E92628;" d="M200.925,448.104c1.454-6.592,2.909-13.188,4.473-20.274c60.187,10.037,112.42-5.218,154.944-49.636
		c23.627-24.679,37.168-57.76,39.7-77.604c-10.262-2.249-20.549-4.503-30.817-6.753c14.485-76.986-34.569-137.695-91.686-154.191
		c-37.087-10.711-72.459-6.458-105.727,13.059c-33.227,19.493-52.892,49.083-62.055,86.175
		c-17.532-3.766-34.696-7.454-51.848-11.138c13.608-79.781,94.155-155.813,197.627-146.444
		c111.192,10.069,186.198,112.339,166.076,218.687C400.251,412.877,292.833,468.55,200.925,448.104z"/>
	<path style="fill:#252122;" d="M1019.518,159.872c22.241,0,44.029,0,66.306,0c-5.114,23.816-10.168,47.356-15.226,70.912
		c1.521,0.264,2.049-0.442,2.665-0.934c16.708-13.359,35.703-17.602,56.266-12.579c15.277,3.732,24.108,14.504,27.462,29.784
		c2.472,11.261,1.625,22.539-0.199,33.743c-2.442,15.004-7.039,29.333-14.688,42.56c-8.104,14.013-18.83,25.416-33.78,32.134
		c-12.293,5.524-25.289,6.981-38.512,4.304c-9.466-1.917-17.132-7.041-22.885-14.887c-0.59-0.805-1.181-1.609-1.788-2.401
		c-0.092-0.12-0.27-0.173-0.784-0.485c-1.456,4.87-2.883,9.647-4.364,14.601c-20.682,0-41.264,0-62.482,0
		C991.532,290.946,1005.48,225.619,1019.518,159.872z M1055.732,306.826c0,1.996-0.002,3.992,0.002,5.987
		c0.001,0.332,0.015,0.666,0.052,0.996c0.441,3.968,2.402,6.276,6.334,7.319c5.745,1.524,10.819,0.267,15.187-3.79
		c3.24-3.008,5.191-6.806,6.802-10.846c2.898-7.27,4.406-14.895,5.97-22.517c1.305-6.359,2.371-12.731,1.988-19.259
		c-0.399-6.812-4.821-11.082-11.297-10.451c-7.462,0.728-13.318,4.22-16.096,11.454
		C1059.595,278.945,1056.945,292.739,1055.732,306.826z"/>
	<path style="fill:#E92728;" d="M230.249,311.648c-3.701,17.496-7.34,34.703-11.084,52.404c-17.004-3.11-31.495-10.702-44.258-21.72
		c-18.462-15.939-29.834-36.067-33.654-60.105c-8.177-51.455,23.605-98.384,70.684-111.907
		c47.042-13.512,98.953,8.219,120.106,57.511c18.342,42.74,3.845,94.918-37.838,122.227c-1.946-2.853-3.928-5.697-5.844-8.584
		c-1.922-2.896-3.78-5.835-5.731-8.856c29.152-22.214,42.062-50.846,32.625-86.752c-7.889-30.017-28.442-48.306-58.897-56.245
		c-2.336,10.589-4.608,20.885-6.973,31.607c-15.247-2.169-28.917,0.879-40.498,11.227c-8.592,7.678-13.319,17.387-14.68,28.66
		C191.935,279.928,201.653,303.615,230.249,311.648z"/>
	<path style="fill:#262223;" d="M963.953,357.499c-19.027,0-37.82,0-56.943,0c0-3.896,0-7.629,0-11.795
		c-5.381,4.026-10.594,7.743-16.478,10.45c-7.382,3.396-15.023,5.197-23.155,5.055c-6.997-0.123-13.985-0.29-20.708-2.521
		c-14.024-4.654-22.181-15.917-21.468-30.635c0.728-15.035,6.15-28.159,17.747-38.247c7.013-6.101,15.279-10,24.075-12.661
		c9.882-2.989,20.013-4.679,30.362-5.316c8.312-0.511,16.618-0.854,25.295-0.817c1.717-5.179,3.223-10.389,3.486-15.832
		c0.231-4.761-2.535-7.839-7.411-8.256c-8.198-0.701-13.714-0.315-18.056,10.264c-0.432,1.053-0.924,2.083-1.455,3.274
		c-18.005,0-35.951,0-54.066,0c-0.159-2.901,1.062-5.31,2.06-7.675c6.938-16.453,19.734-26.338,36.323-31.711
		c10.984-3.558,22.347-5.103,33.869-5.276c13.65-0.205,27.299-0.265,40.701,3.046c3.238,0.8,6.344,1.912,9.375,3.253
		c14.266,6.311,19.655,17.906,17.952,33.249c-1.671,15.05-5.797,29.64-8.785,44.442c-3.775,18.702-7.916,37.331-11.918,55.987
		C964.654,356.247,964.347,356.67,963.953,357.499z M917.308,297.071c-7.02-0.417-13.652-0.604-20.117,1.219
		c-11.087,3.127-13.896,12.564-13.35,19.69c0.305,3.976,2.469,6.689,6.001,7.807c9.189,2.906,18.361,0.009,22.598-9.27
		C915.214,310.445,915.997,303.865,917.308,297.071z"/>
	<path style="fill:#262222;" d="M1262.23,174.287c-3.247,15.364-6.311,29.862-9.475,44.836c9.95,0,19.378,0,29.509,0
		c-2.366,13.954-5.584,27.207-8.339,40.747c-9.901,0-19.534,0-29.513,0c-1.435,6.413-2.873,12.663-4.227,18.93
		c-1.612,7.461-3.122,14.944-4.739,22.404c-0.535,2.465-0.71,4.955-0.692,7.446c0.035,4.769,2.076,6.946,6.96,7.26
		c3.651,0.235,7.317,0.271,10.964-0.377c2.246-0.399,4.538-0.537,7.425-0.861c-2.84,13.546-5.579,26.615-8.376,39.954
		c-3.979,2.048-8.542,2.26-12.874,2.968c-11.984,1.957-24.025,3.512-36.232,3.394c-6.219-0.06-12.25-1.045-18.173-2.727
		c-17.205-4.885-22.445-17.063-19.984-32.315c3.542-21.947,8.99-43.527,13.241-65.68c-5.673-0.797-11.43,0.036-17.601-0.516
		c2.807-13.39,5.576-26.594,8.431-40.212c5.761-0.834,11.575,0.069,17.742-0.55c1.628-7.228,3.255-14.452,4.912-21.805
		C1214.665,189.617,1238.057,182.078,1262.23,174.287z"/>
	<path style="fill:#2E292A;" d="M1367.221,424.091c6.22,16.317,12.308,32.288,18.396,48.26c0.335-0.052,0.671-0.103,1.006-0.155
		c3.474-16.052,6.947-32.104,10.407-48.09c2.79,0,5.078,0,7.743,0c-4.369,20.591-8.685,40.929-13.05,61.497
		c-3.552,0-6.988,0-10.769,0c-6.417-16.701-12.879-33.514-19.808-51.548c-4.402,17.78-7.344,34.766-11.384,51.644
		c-2.633,0.169-5.062,0.452-7.688-0.28c4.392-20.511,8.752-40.87,13.134-61.33C1359.293,424.091,1363.088,424.091,1367.221,424.091z
		"/>
	<path style="fill:#2E292A;" d="M992.13,424.052c9.006,0,17.482-0.047,25.957,0.026c2.851,0.024,5.607,0.87,8.18,2.02
		c4.869,2.176,7.116,6.984,6.149,12.307c-1.249,6.875-4.873,11.876-11.282,14.793c-0.722,0.329-1.395,0.765-2.427,1.337
		c5.267,1.975,5.887,5.971,5.482,10.66c-0.458,5.301-0.611,10.628-0.33,15.958c0.076,1.441,0.438,2.943-0.285,4.528
		c-2.806,0-5.579,0-8.549,0c-0.762-3.993-0.385-7.95-0.266-11.898c0.096-3.158,0.372-6.324,0.235-9.472
		c-0.189-4.341-2.226-6.282-6.62-6.405c-4.649-0.13-9.304-0.029-14.532-0.029c-2.02,9.265-4.014,18.411-6.047,27.732
		c-2.745,0.642-5.51,0.305-8.71,0.239C983.453,465.157,987.749,444.807,992.13,424.052z M999.378,431.333
		c-1.18,6.352-3.134,12.247-3.635,18.862c3.909,0,7.368,0.027,10.826-0.011c1.824-0.02,3.661-0.035,5.468-0.253
		c6.469-0.783,10.474-4.557,11.009-10.252c0.419-4.469-1.298-6.892-5.738-7.78C1011.409,430.719,1005.469,431.203,999.378,431.333z"
		/>
	<path style="fill:#2D2828;" d="M748.15,485.549c-3.033,0-5.331,0-8.301,0c1.393-10.659,4.195-20.805,6.252-31.08
		c2.043-10.208,4.345-20.363,6.623-30.957c9.695,0.207,19.145-0.33,28.587,0.592c0.976,0.095,1.927,0.493,2.877,0.789
		c7.526,2.344,10.379,7.838,8.199,15.478c-1.984,6.954-6.583,11.334-13.667,13.975c4.261,2.049,6.014,5.287,5.662,9.612
		c-0.578,7.116-0.516,14.248-0.332,21.645c-2.973,0-5.719,0-8.961,0c0-4.746-0.012-9.512,0.005-14.278
		c0.008-2.329,0.21-4.666,0.081-6.986c-0.248-4.448-2.089-6.299-6.533-6.43c-4.651-0.137-9.309-0.031-14.242-0.031
		c-1.833,4.464-2.178,9.278-3.348,13.866C749.911,476.222,749.134,480.794,748.15,485.549z M759.589,431.26
		c-1.269,6.663-2.398,12.59-3.561,18.696c5.897,0,11.357,0.284,16.775-0.078c5.695-0.38,9.408-3.82,10.603-8.926
		c1.182-5.052-0.667-8.093-5.7-9.087C771.813,430.702,765.879,431.262,759.589,431.26z"/>
	<path style="fill:#2E292A;" d="M655.049,463.756c-0.187-9.918,2.657-18.926,8.351-27.034c8.016-11.415,22.812-16.61,36.045-12.905
		c6.9,1.932,11.243,6.372,13.029,13.054c3.757,14.057-2.625,37.001-18.632,45.873c-7.566,4.193-15.555,5.17-24.039,3.316
		c-7.144-1.562-13.533-7.423-14.727-17.322C654.879,467.099,655.049,465.417,655.049,463.756z M704.485,444.429
		c-0.083-0.887-0.102-2.905-0.493-4.848c-0.72-3.584-2.527-6.315-6.1-7.886c-7.73-3.398-21.206-1.566-26.724,7.283
		c-5.571,8.934-7.574,18.721-7.053,29.01c0.276,5.458,3.479,9.579,8.957,10.63c10.479,2.011,20.029-0.208,25.778-11.081
		C702.47,460.693,704.065,453.248,704.485,444.429z"/>
	<path style="fill:#2E292A;" d="M1278.676,486.96c-14.384-0.011-22.582-8.234-22.617-22.594c-0.012-4.71,0.821-9.321,2.158-13.744
		c2.906-9.611,7.783-18.001,16.75-23.308c8.639-5.113,17.92-6.031,27.343-2.992c8.283,2.671,11.978,9.454,12.41,17.595
		c0.725,13.665-3.164,25.959-13.086,35.829C1295.324,484.023,1287.557,486.953,1278.676,486.96z M1279.552,479.233
		c7.456-0.02,13.449-1.686,17.599-7.172c6.804-8.993,9.03-19.473,8.64-30.47c-0.164-4.647-2.419-8.544-7.367-10.247
		c-8.332-2.869-21.302-1.31-27.168,9.665c-4.012,7.504-5.745,15.568-5.898,23.913c-0.142,7.754,3.353,12.436,9.582,13.878
		C1276.702,479.208,1278.571,479.15,1279.552,479.233z"/>
	<path style="fill:#2D2828;" d="M953.257,446.745c-0.827,12.948-5.066,24.856-16.052,33.469c-8.879,6.96-18.994,8.466-29.64,5.253
		c-6.743-2.035-10.851-7.168-12.245-13.925c-2.979-14.451,3.3-35.902,18.749-44.599c8.54-4.807,17.731-5.661,26.933-2.534
		c7.268,2.469,10.931,8.319,11.933,15.81C953.199,442.19,953.142,444.204,953.257,446.745z M903.945,463.479
		c0,1.495-0.129,3.003,0.023,4.482c0.599,5.823,4.156,10.099,9.884,10.903c10.483,1.471,18.885-0.878,24.516-10.98
		c4.623-8.294,6.412-17.384,5.621-26.861c-0.367-4.402-2.473-7.854-6.85-9.53c-8.168-3.127-21.284-1.463-27.079,8.723
		C905.938,447.459,904.236,455.279,903.945,463.479z"/>
	<path style="fill:#2F2A2B;" d="M1101.819,485.693c-0.64-2.937-1.347-5.335-1.645-7.783c-0.303-2.486-1.506-4.76-1.196-7.863
		c-4.988-0.682-9.766-0.258-14.505-0.334c-4.651-0.074-9.304-0.016-14.366-0.016c-3.419,5.332-6.882,10.733-10.305,16.071
		c-2.903,0-5.55,0-8.933,0c13.176-20.809,26.096-41.211,39.025-61.63c3.259,0,6.357,0,9.65,0
		c3.918,20.476,7.804,40.778,11.721,61.247C1108.005,486.255,1105.07,485.826,1101.819,485.693z M1097.309,461.837
		c-1.582-9.686-3.095-18.943-4.766-29.175c-6.097,10.041-11.795,19.424-17.716,29.175
		C1082.427,461.837,1089.496,461.837,1097.309,461.837z"/>
	<path style="fill:#2F2A2B;" d="M629.236,439.039c-2.809,1.03-5.433,0.745-8.003,0.708c-2.926-8.958-10.084-11.999-19.253-8.253
		c-3.127,1.278-5.888,3.154-7.892,5.9c-6.963,9.54-9.61,20.275-8.125,31.914c0.781,6.126,4.664,9.208,10.685,9.816
		c8.063,0.814,13.813-2.478,17.516-9.484c2.85,0,5.493,0,8.556,0c-1.647,5.67-5.405,9.489-9.93,12.462
		c-7.478,4.913-15.738,6.055-24.303,3.507c-7.843-2.333-11.583-8.46-12.109-16.042c-1.07-15.419,2.999-29.332,14.678-40.126
		c7.981-7.376,17.669-8.804,27.906-6.145C626.417,425.231,629.949,430.871,629.236,439.039z"/>
	<path style="fill:#2E292A;" d="M826.599,485.668c-2.931,0-5.527,0-8.682,0c4.306-20.452,8.554-40.627,12.866-61.108
		c6.133,0,11.927,0.024,17.72-0.009c3.474-0.02,6.931-0.309,10.406,0.359c7.962,1.53,12.313,7.81,10.692,15.676
		c-1.935,9.384-8.617,15.774-18.254,17.269c-3.609,0.56-7.24,1.022-10.926,0.861c-2.63-0.115-5.27-0.022-8.055-0.022
		C830.435,467.729,828.571,476.445,826.599,485.668z M834.381,450.332c1.516,0.984,2.887,0.663,4.194,0.668
		c3.83,0.017,7.689,0.245,11.484-0.133c5.868-0.585,10.633-6.021,10.9-11.894c0.156-3.437-1.694-6.26-5.046-7.057
		c-5.859-1.393-11.755-0.596-17.596-0.621C836.9,438.15,835.627,444.305,834.381,450.332z"/>
	<path style="fill:#2D2828;" d="M1140.383,431.536c-0.799-3.003,0.742-4.923,0.704-7.339c16.664,0,33.236,0,49.827,0
		c0.324,2.552-0.523,4.686-1.42,7.066c-6.618,0-13.259,0-20.293,0c-3.882,18.114-7.73,36.07-11.62,54.224
		c-2.812,0.662-5.545,0.451-8.7,0.138c3.801-18.049,7.541-35.81,11.39-54.09C1153.361,431.536,1146.957,431.536,1140.383,431.536z"
		/>
	<path style="fill:#2F2A2B;" d="M1216.683,485.774c-3.13,0.053-5.745,0.403-8.552-0.325c4.349-20.508,8.663-40.851,13.006-61.332
		c2.988-0.274,5.747-0.39,8.714,0.099C1225.458,444.751,1221.11,465.076,1216.683,485.774z"/>
</g>
</svg>
