<?xml version="1.0" encoding="iso-8859-1"?>
<!-- Generator: Adobe Illustrator 27.0.0, SVG Export Plug-In . SVG Version: 6.00 Build 0)  -->
<svg version="1.1" id="Layer_1" xmlns="http://www.w3.org/2000/svg" xmlns:xlink="http://www.w3.org/1999/xlink" x="0px" y="0px"
	 viewBox="0 0 1534.174 1098.048" style="enable-background:new 0 0 1534.174 1098.048;" xml:space="preserve">
<g>
	<path style="fill:#058853;" d="M746,0c3.938,3.341,8.656,5.415,13.106,7.886c40.979,22.751,82.002,45.425,123.027,68.092
		c33.459,18.486,66.94,36.933,100.411,55.398c0.718,0.396,1.424,0.812,2.306,1.315c0,55.614,0,111.229,0,167.686
		c-53.403-30.504-106.409-60.78-159.689-91.213c0,14.215,0,28.031,0,42.384c53.453,29.059,107.139,58.245,160.686,87.355
		c0,56.178,0,112.079,0,168.575c-53.758-27.816-106.969-55.349-160.609-83.104c0,38.979,0,77.234,0,115.728
		c68.152,0,136.09,0,204.137,0c0.006-0.005,0.13-0.104,0.233-0.221c0.109-0.125,0.248-0.254,0.287-0.404
		c0.083-0.315,0.128-0.643,0.155-0.969c0.028-0.331,0.021-0.666,0.021-0.999c0.008-122.829,0.016-245.658,0.029-368.487
		c0-0.159,0.077-0.324,0.139-0.477c0.056-0.139,0.141-0.266,0.51-0.945c46.786,27.965,93.552,55.918,140.596,84.037
		c0,142.81,0,285.738,0,428.984c-1.611,0.708-3.452,0.359-5.21,0.36c-137.828,0.072-275.658-0.256-413.484,0.304
		c-99.491,0.404-198.981,0.125-298.471,0.366c-42.998,0.104-85.996,0.146-128.994,0.216c-1.631,0.003-3.261,0-5.126,0
		c0-144.381,0-288.312,0-432.862c46.103-27.649,92.526-55.49,139.69-83.776c0,125.408,0,249.933,0,374.785
		c68.529,0,136.582,0,204.917,0c0-38.26,0-76.529,0-115.591c-53.226,27.413-106.144,54.667-159.53,82.162
		c0-56.287,0-111.892,0-167.822c53.044-28.984,106.25-58.056,159.603-87.209c0-13.991,0-27.953,0-42.408
		c-53.192,30.312-106.148,60.49-159.566,90.932c0-56.143,0-111.704,0-167.829c3.776-2.117,7.926-4.478,12.108-6.782
		c49.93-27.505,99.87-54.994,149.798-82.504c24.892-13.716,49.767-27.463,74.632-41.228C742.531,1.283,743.647,1.111,744,0
		C744.667,0,745.333,0,746,0z"/>
	<path style="fill:#078853;" d="M0.942,831.924c0.847-1.303,2.2-1.977,3.249-2.668c2.53,0,4.863-0.112,7.18,0.036
		c1.816,0.116,3.608,0.533,5.087,1.776c4.889,4.108,10.843,6.398,16.308,9.524c5.351,3.06,10.662,6.195,13.767,11.185
		c1.958,9.548,1.416,18.715,1.417,27.858c0.001,47.99,0.004,95.979-0.007,143.969c-0.001,3.663-0.222,7.33-0.136,10.99
		c0.098,4.137,0.032,8.374,3.536,11.524c0.425,0.382,0.505,1.192,0.656,1.825c0.77,3.239,3.066,4.544,6.129,4.914
		c8.283,1,16.561,0.827,24.853,0.051c1.951-0.183,3.455-0.879,4.791-2.281c3.626-3.805,5.235-8.329,5.236-13.539
		c0.003-48.156,0.031-96.312,0.039-144.468c0.003-16.496-0.019-32.992-0.057-49.489c-0.007-2.843,0.067-5.687,0.955-8.394
		c0.956-2.918,2.911-4.751,6.176-4.92c4.703-0.243,9.284-0.296,12.918,3.543c0.865,0.914,2.231,1.473,3.469,1.894
		c8.254,2.806,13.71,9.133,19.408,15.189c1.469,1.561,2.08,3.296,2.079,5.41c-0.002,4.163,0.192,8.325,0.193,12.488
		c0.015,53.488-0.004,106.977,0.037,160.465c0.003,3.979,0.046,8.017,0.704,11.921c0.664,3.941,2.839,7.391,5.429,10.448
		c0.966,1.14,2.396,1.846,3.979,1.826c6.453-0.078,12.827,1.54,19.386,0.234c3.237-0.644,5.954-1.834,8.277-3.308
		c4.057-6.787,4.914-13.825,4.895-21.316c-0.16-61.986-0.093-123.973-0.081-185.959c0-2.163,0.059-4.332,0.223-6.488
		c0.223-2.926,1.778-4.993,4.503-6.044c4.279-1.649,8.531-1.567,12.244,1.293c3.437,2.648,6.982,5.152,10.717,7.287
		c7.504,4.288,13.289,10.459,18.945,16.143c1.952,7.797,1.55,15.298,1.549,22.77c-0.005,59.154-0.019,118.307-0.063,177.461
		c-0.003,3.817-0.026,7.624-0.52,11.449c-1.761,13.632-12.768,26.64-26.012,30.3c-1.412,0.39-2.966,0.332-4.457,0.362
		c-51.797,1.062-103.6,0.436-155.401,0.563c-4.979,0.012-10.008-0.001-14.927-0.657c-6.608-0.882-12.117-4.398-16.881-8.915
		c-3.265-3.096-5.384-6.855-6.902-11.271C2.475,1072.961,2.081,1068.695,0,1065c0-14.667,0-29.333,0-44
		c1.82-0.966,0.945-2.669,0.955-4.009c0.079-10.475,0.047-20.951,0.043-31.426C0.981,934.351,0.961,883.138,0.942,831.924z"/>
	<path style="fill:#76A885;" d="M0.942,831.924c0.019,51.213,0.038,102.427,0.056,153.64c0.004,10.476,0.036,20.951-0.043,31.426
		c-0.01,1.34,0.864,3.043-0.955,4.009c0-63,0-126,0-189C0.314,831.972,0.628,831.947,0.942,831.924z"/>
	<path style="fill:#0B8853;" d="M408.578,1054.752c2.215,4.805,1.774,9.579,0.053,14.188c-1.957,5.243-4.326,10.333-6.518,15.488
		c-0.259,0.609-0.572,1.197-0.788,1.82c-2.976,8.555-9.24,12.013-17.998,11.729c-4.329-0.141-8.662-0.197-12.993-0.188
		c-25.496,0.054-50.993,0.101-76.489,0.246c-4.682,0.027-9.297-0.422-13.913-1.042c-0.642-0.086-1.46-0.111-1.867-0.505
		c-3.518-3.398-8.544-4.474-12.039-7.891c-0.59-0.577-1.226-1.221-1.967-1.513c-8.741-3.45-10.917-10.953-10.976-19.08
		c-0.262-36.161-0.217-72.324-0.278-108.486c-0.004-2.666,0.284-5.36,0.002-7.994c-0.851-7.971,3.246-14.383,6.483-21.026
		c1.336-2.742,3.958-4.449,6.81-5.607c4.825-1.958,9.421-4.23,12.149-9.046c1.802,0,3.286-0.002,4.77,0
		c28.162,0.051,56.324,0.155,84.486,0.102c4.767-0.009,8.771,1.692,12.392,4.393c5.632,4.202,10.184,9.571,15.051,14.592
		c1.083,1.117,1.665,2.469,1.964,3.962c0.162,0.811,0.057,1.766,0.455,2.425c3.393,5.615,2.805,11.855,2.805,17.954
		c-0.002,14.994-0.225,29.988-0.224,44.981c0,2.937-0.711,5.497-2.087,8.04c-6.436,11.894-6.887,12.265-19.037,18.392
		c-3.409,1.719-7.04,2.07-10.605,2.106c-16.495,0.168-32.993,0.031-49.49,0.057c-2.466,0.004-3.975-0.783-4.802-3.325
		c-1.137-3.494-2.072-6.905-1.986-10.663c0.189-8.323,0.029-16.653,0.089-24.979c0.043-5.984,2.829-8.764,8.821-8.875
		c11.14-0.206,22.28-0.382,33.533-1.198c1.309-1.222,2.629-2.455,3.872-3.616c-0.863-7.231-2.832-9.127-9.795-9.216
		c-8.997-0.116-18.002,0.074-26.992-0.217c-5.47-0.177-10.885-0.711-16.381,0.081c-2.819,0.406-5.088,1.22-6.923,3.516
		c-0.663,2.349-0.355,4.865-0.362,7.343c-0.059,20.165,0.034,40.331-0.158,60.494c-0.04,4.184,2.5,7.065,3.747,10.512
		c1.874,0.918,3.736,0.495,5.531,0.496c30.998,0.03,61.996,0.037,92.994-0.003C402.772,1053.197,405.536,1053.399,408.578,1054.752z
		"/>
	<path style="fill:#0A8853;" d="M1281.336,1084.557c-0.517-1.626-1.105-3.179-1.499-4.779c-0.804-3.264-1.922-6.157-4.861-8.327
		c-2.152-1.589-3.013-4.172-3.008-7.064c0.053-32.327,0.026-64.655,0.022-96.982c0-2.333,0.211-4.688-0.03-6.995
		c-0.622-5.952,1.518-11.094,4.514-15.949c1.575-2.553,2.148-5.494,3.764-8.049c3.074-4.861,6.525-9.026,11.91-11.644
		c3.219-1.564,5.887-4.286,8.741-6.565c2.324-1.855,4.861-2.443,7.855-2.42c16.498,0.128,32.997,0.124,49.496,0.028
		c5.963-0.035,11.925-0.733,17.88,0.178c0.983,0.15,2.076-0.084,2.971,0.251c11.337,4.249,23.17,7.941,31.153,17.727
		c4.043,4.957,7.789,10.242,11.552,15.464c1,1.388,1.098,3.078,1.094,4.785c-0.022,10.99,0.433,21.976,0.105,32.97
		c-0.159,5.324-1.49,10.551-1.034,15.507c-0.537,1.921-2.082,2.613-2.939,4.226c0,1.207,0,2.692,0,3.773
		c-1.153,2.651-3.511,2.977-4.988,3.852c-1.844,1.383-0.136,3.69-1.712,4.473c-1.29,1.561-3.244,0.487-4.323,1.826
		c-1.443,1.526-0.225,3.942-1.827,5.56c-0.909,0.792-2.133,0.589-3.262,0.559c-2.636-0.07-4.881,0.764-6.855,2.492
		c-2.352,2.059-5.091,2.75-8.24,2.909c-4.838,0.245-9.645,0.061-14.464-0.133c-0.997-0.04-2.119,0.095-2.963-0.31
		c-5.675-2.72-11.713-2.028-17.649-1.887c-4.034,0.096-7.948-0.532-11.869-1.162c-4.428-0.711-6.791-3.28-6.758-7.918
		c0.065-9.128-1.206-18.241-0.132-27.383c0.473-4.028,1.97-6.469,5.938-7.651c3.646-1.087,7.424-1.771,11.247-1.818
		c4.163-0.051,8.346-0.106,12.488,0.233c5.479,0.448,10.462-1.424,15.569-2.777c0.59-0.156,1.067-0.742,1.538-1.087
		c-0.271-2.105-0.517-4.072-0.78-6.037c-0.657-4.909-4.483-8.599-9.425-9.518c-3.976-0.739-7.891-0.254-11.858-0.215
		c-10.977,0.109-21.973,0.648-32.944-0.301c-2.038-0.176-3.867,0.664-5.922,1.042c-1.746,4.355-2.986,8.637-2.911,13.438
		c0.197,12.661,0.279,25.339-0.174,37.989c-0.25,6.987-0.228,13.916,0.128,20.889c0.204,3.998,1.544,7.425,3.658,10.606
		c1.993,2.999,4.582,4.493,8.577,4.925c6.86,0.743,13.595,0.005,20.387-0.027c20.831-0.099,41.663-0.013,62.495-0.058
		c3.503-0.008,6.967,0.078,10.398,1.081c1.13,1.214,0.203,2.872,0.935,4.592c1.567,0.52,3.797-0.067,5.516,2.439
		c0.386,4.467,0.034,9.639-2.607,14.516c-1.811,3.345-2.955,7.028-5.356,10.086c-1.37,1.744-1.315,4.054-1.85,6.125
		c-0.843,3.264-2.476,4.435-5.856,4.999c-8.116,1.356-16.263,0.759-24.411,0.762c-22.829,0.008-45.659,0.129-68.488,0.195
		c-2.332,0.007-4.665-0.057-6.997-0.08c-9.163-0.089-17.106-3.474-24.107-9.163
		C1286.806,1086.835,1283.848,1086.174,1281.336,1084.557z"/>
	<path style="fill:#088853;" d="M929.892,831.987c-1.9,5.594-4.109,10.754-6.977,15.61c-0.95,1.609-1.75,3.334-1.747,5.14
		c0.012,6.751-2.878,12.12-7.531,16.775c-5.464,1.439-11.028,1.611-16.703,1.564c-22.986-0.19-45.975-0.141-68.962-0.061
		c-4.6,0.016-9.286,0.085-12.794,4.046c-1.849,2.088-2.919,4.259-3.14,7.086c-0.61,7.791-0.477,15.579,0.026,23.347
		c0.232,3.588,1.931,6.867,3.713,10.35c6.209,0,12.352,0.097,18.49-0.027c6.311-0.127,12.619,0.014,18.944-0.312
		c4.558-0.235,9.827-0.406,12.837,4.69c1.412,2.391,1.088,5.126,2.07,7.673c-4.845,6.466-7.102,14.25-11.446,20.911
		c-0.587,0.9-0.636,1.848-0.757,2.837c-0.665,5.448-3.938,9.233-8.54,11.53c-3.035,1.515-6.635,1.917-10.155,1.851
		c-4.651-0.087-9.295-0.403-13.957-0.03c-7.045,0.563-10.582,4.438-11.344,11.389c-1.039,9.481-0.134,18.913-0.112,28.368
		c0.069,29.317,0.033,58.635,0.01,87.953c-0.001,1.462,0.367,2.992-0.391,4.309c-0.833,0.932-1.881,0.812-2.858,0.812
		c-9.81,0.002-19.629,0.677-29.425-0.536c-2.632-0.326-5.317-0.21-7.975-0.342c-4.709-0.233-6.991-2.452-7.154-7.078
		c-0.135-3.826-0.187-7.657-0.187-11.485c-0.01-71.628-0.005-143.256-0.015-214.884c0-1.659,0.097-3.371-0.262-4.965
		c-0.63-2.797-0.001-5.401,1.323-7.666c3.194-5.463,6.02-11.062,7.706-17.317c6.327-1.604,10.203-6.856,15.624-9.761
		c1.988-1.065,3.829-1.694,6.073-1.691c37.313,0.042,74.626,0.004,111.94,0.063c4.477,0.007,8.983,0.235,13.418,0.806
		c3.202,0.413,5.714,2.48,7.663,5.061C928.196,829.19,928.933,830.5,929.892,831.987z"/>
	<path style="fill:#0C8853;" d="M453.58,919.03c40.377,0,80.345,0,120.073,0c4.958,3.874,5.555,9.426,2.225,14.506
		c-2.645,4.034-5.929,7.964-4.859,13.365c-2.992,3.554-5.055,7.34-6.41,11.753c-2.802,9.128-3.463,8.711-12.476,9.071
		c-17.295,0.691-34.642,0.293-51.961,0.006c-4.969-0.082-9.886-0.634-14.865,0.181c-4.74,0.776-7.342,3.752-6.816,8.498
		c0.146,1.316,0.44,2.616,0.755,4.436c0.863,0.673,2.045,1.595,3.734,2.913c3.828,1.032,8.383,0.784,13.061,0.682
		c11.465-0.249,23.01-0.302,34.395,0.842c5.074,0.51,10.642,2.111,14.838,6.113c3.108,2.965,6.354,5.788,10.238,7.844
		c2.503,1.325,4.176,3.775,6.212,6.086c0.511,7.297,3.543,14.14,5.71,21.21c0.406,1.323,0.508,2.57,0.567,3.881
		c0.474,10.656,0.067,21.312,0.075,31.967c0.002,2.845-1.711,4.945-2.209,7.561c-0.984,5.172-3.187,10.053-3.945,15.807
		c-5.483,0.642-8.797,4.718-12.519,8.225c-3.071,2.894-6.775,3.837-10.929,3.827c-24.155-0.055-48.31-0.027-72.464-0.027
		c-15.492,0-30.985,0.016-46.477-0.024c-1.614-0.004-3.335,0.488-4.848-0.573c-0.835-1.55-0.095-3.234,0.506-4.277
		c1.663-2.886,2.261-6.032,3.345-9.046c1.887-5.247,2.691-10.958,5.967-15.727c1.099-1.599,1.944-3.582,2.222-5.489
		c0.489-3.36,2.342-5.77,4.362-8.088c4.999-1.104,9.887-1.445,14.903-1.41c24.32,0.171,48.642,0.081,72.964,0.067
		c1.144-0.001,2.336,0.256,4.118-0.813c0.306-4.44,0.686-9.367-0.376-14.216c-0.505-2.306-2.329-4.299-4.726-4.745
		c-3.237-0.603-6.5-1.438-9.853-1.179c-14.295,1.106-28.58,0.68-42.865-0.223c-1.18-0.075-2.237-0.315-3.335-0.794
		c-7.039-3.063-13.337-7.403-19.848-11.376c-0.28-0.171-0.659-0.334-0.776-0.597c-2.357-5.291-6.383-9.781-7.883-15.416
		c-0.641-2.409-1.124-4.793-2.404-6.94c-0.901-1.512-0.946-3.191-0.928-4.836c0.142-12.786-0.707-25.57-0.055-38.355
		c0.068-1.325-0.052-2.675,0.678-3.885c3.584-5.939,5.459-12.705,9.053-18.657c1.079-1.787,2.324-3.411,4.057-4.275
		C447.626,925.005,450.492,922.027,453.58,919.03z"/>
	<path style="fill:#0D8854;" d="M1206.078,1052.557c0-6.443,0-12.698,0-18.777c-1.233-1.373-2.652-0.926-3.923-0.931
		c-12.331-0.049-24.662,0-36.993-0.092c-5.314-0.04-10.627-0.339-15.94-0.529c-1.171-0.042-2.26-0.293-3.343-0.842
		c-4.249-2.154-8.369-4.654-13.099-4.976c-1.452-1.912-0.647-4.272-2.638-6.132c-2.035-0.624-3.984-2.127-5.474-4.56
		c-1.459-2.382-3.61-4.337-5.431-6.501c-0.746-0.887-1.937-1.774-2.047-2.759c-0.664-5.948-3.683-11.377-3.941-17.344
		c-0.303-6.986-0.007-13.996-0.242-20.987c-0.189-5.616,2.26-10.296,4.685-15.016c1.969-3.831,3.617-7.661,4.708-11.936
		c1.57-6.153,5.036-11.405,10.859-14.909c12.143-7.306,12.073-7.422,26.498-7.422c29.662,0,59.324-0.008,88.986,0.009
		c3.997,0.002,7.998,0.056,11.992,0.209c5.034,0.193,7.068,2.409,6.107,7.402c-1.528,7.943-3.759,15.71-7.629,22.902
		c-0.392,0.729-0.929,1.453-1.059,2.237c-0.918,5.512-4.328,9.17-8.576,11.947c-6.08,1.658-12.054,1.346-18.04,1.319
		c-20.996-0.097-41.993-0.024-62.99-0.049c-4.105-0.005-8.026,0.324-10.675,4.132c0,3.609,0,7.246,0,10.258
		c4.532,8.711,12.033,8.925,19.69,8.488c11.305-0.644,22.6-0.664,33.902-0.007c3.321,0.193,6.681,0.521,9.973,0.227
		c4.005-0.357,7.278,1.009,9.97,3.589c3.041,2.914,6.389,5.205,10.241,6.662c0.862,2.802-0.559,5.925,1.897,8.385
		c1.479,0.61,3.15,1.299,4.754,1.96c2.173,4.539,2.912,9.15,3.072,14.057c0.347,10.646,0.695,21.28,0.237,31.93
		c-0.221,5.121-1.254,10.003-2.57,15.003c-1.77,6.728-6.279,11.531-9.725,17.02c-4.847,7.72-12.657,10.962-21.596,11.306
		c-5.823,0.224-11.66,0.104-17.491,0.097c-32.493-0.041-64.987-0.088-97.48-0.167c-1.614-0.004-3.322,0.464-5.109-0.666
		c-0.922-3.83-0.229-7.773,0.838-11.535c1.758-6.201,3.889-12.267,8.303-17.285c1.633-1.857,2.248-4.415,2.396-6.873
		c2.119-2.563,4.738-4.417,7.325-6.159c3.091-2.082,6.925-2.044,10.519-2.168c4.822-0.167,9.657,0.134,14.487,0.139
		c18.997,0.023,37.995,0.011,56.992,0.008C1200.97,1053.221,1203.449,1053.262,1206.078,1052.557z"/>
	<path style="fill:#0A8853;" d="M954.505,997.386c4.631-1.219,8.278-3.876,12.019-6.315c3.455-2.252,7.066-3.305,11.245-3.14
		c5.308,0.209,10.623-0.362,15.932-0.589c11.455-0.491,22.869,0.796,34.082,1.3c3.092,4.761,2.233,9.736,2.353,14.425
		c0.235,9.153-0.054,18.319-0.157,27.479c-0.005,0.466-0.299,0.929-0.411,1.253c-1.293,1.458-2.883,1-4.331,1.015
		c-8.998,0.088-17.996,0.096-26.993,0.201c-6.105,0.071-9.406,2.975-10.472,9.015c-0.144,0.818-0.4,1.618-0.534,2.437
		c-0.782,4.76,0.724,6.631,5.484,8.51c7.093,2.8,14.426,3.191,21.904,3.367c8.653,0.204,17.22-0.442,25.916-1.484
		c4.235-3.831,6.347-8.588,6.495-14.433c0.489-19.316-0.305-38.627-0.055-57.941c0.013-0.985,0.076-2.098-0.327-2.939
		c-2.139-4.461-2.136-9.313-2.64-13.937c-1.228-1.258-2.641-0.758-3.901-0.757c-21.663,0.014-43.327,0.012-64.99,0.172
		c-4.372,0.032-8.53-1.201-12.608-1.265c-3.156-2.517-3.018-5.654-2.328-8.827c0.313-1.439,0.922-2.859,1.634-4.157
		c3.786-6.909,5.733-14.414,7.225-22.061c0.241-1.235,0.914-2.104,1.577-3.047c2.201-3.126,4.402-6.253,6.571-9.332
		c1.824-0.852,3.686-0.47,5.492-0.473c15.999-0.032,31.997-0.022,47.996-0.016c5.462,0.002,10.861-0.804,16.409-0.063
		c3.75,0.501,7.327,1.029,10.204,3.334c5.688,4.557,12.696,7.18,17.791,12.615c5.155,5.499,9.645,11.28,11.63,18.754
		c1.14,4.29,2.638,8.496,4.176,12.665c0.703,1.906,0.964,3.788,1.156,5.786c0.923,9.619,0.019,19.237,0.152,28.854
		c0.159,11.497,0.002,22.998,0.055,34.497c0.021,4.649-0.138,9.287,0.497,13.947c0.814,5.978-0.867,11.914-0.942,17.904
		c-0.016,1.226-0.885,2.465-1.449,3.656c-1.767,3.732-3.909,7.318-4.41,11.532c-0.171,1.437-1.239,2.304-2.064,3.334
		c-4.18,5.216-8.937,9.844-14.247,13.931c-6.989,1.648-14.13,1.291-21.279,1.224c-13.498-0.126-27-0.202-40.495,0.015
		c-11.327,0.182-22.618-0.868-33.937-0.624c-2.58,0.056-4.887-0.841-7.134-1.915c-3.444-1.646-6.925-3.16-10.626-3.591
		c-1.943-1.949-3.238-4.08-4.191-6.38c-1.214-2.93-2.587-5.7-4.755-8.093c-1.581-1.744-2.347-3.853-2.289-6.38
		c0.088-3.839-0.525-7.595-2.588-11.009c-0.853-1.411-1.314-3.02-1.309-4.755c0.03-9.825,0.011-19.65,0.002-29.475
		c-0.002-2.05,0.227-4.162,1.719-5.596C949.229,1013.795,952.273,1005.8,954.505,997.386z"/>
	<path style="fill:#098853;" d="M649.401,914.705c3.419,4.088,8.144,3.892,12.502,4.079c8.142,0.349,16.305,0.171,24.458,0.276
		c1.966,0.025,4.002-0.222,6.152,0.905c0.741,3.805,1.201,7.642-1.842,10.982c-1.205,1.322-1.281,3.068-1.539,4.64
		c-1.936,11.812-7.791,23.065-16.486,31.161c-4.08,0.346-8.288,1.358-12.631,1.224c-3.678-0.113-6.394,2.431-9.408,3.179
		c-0.892,1.668-0.59,3.027-0.592,4.334c-0.02,22.651,0.053,45.303-0.069,67.953c-0.026,4.74,1.794,7.682,6.049,9.799
		c4.136,2.058,8.235,3.072,12.868,2.917c5.463-0.183,10.943-0.393,16.428,0.506c2.724,0.446,5.097,1.197,7.691,3.174
		c-2.371,12.935-7.291,25.237-12.713,37.97c-17.449-0.24-35.187,0.405-52.084-0.463c-5.935-4.796-10.008-10.341-16.533-12.227
		c-1.041-1.429-1.452-2.834-1.708-4.326c-1.293-7.541-4.5-14.424-7.425-21.4c-0.98-2.337-1.364-4.771-1.381-7.271
		c-0.042-5.828-0.063-11.656-0.063-17.484c0.001-20.319,0.022-40.639,0.007-60.958c-0.001-1.474,0.31-2.992-0.321-4.421
		c-1.616-1.591-3.676-1.375-5.644-1.413c-2.664-0.051-5.357,0.23-7.989-0.062c-6.825-0.757-7.231-2.826-7.3-7.806
		c-0.033-2.337,0.388-4.571,1.574-6.683c2.187-3.892,3.266-8.297,4.972-12.301c2.758-6.476,5.442-13.146,9.327-19.142
		c1.176-1.815,2.95-2.653,5.004-2.812c1.506-0.117,3.012-0.008,4.296-1.82c-0.24-3.376-1.186-7.016-0.524-10.919
		c0.734-4.325,2.912-7.387,5.993-9.911c8.64-7.078,18.087-12.877,28.496-17.027c3.71-1.479,8.396,0.959,9.7,5.382
		c1.027,3.482,1.852,7.088,1.551,10.776c-0.472,5.795,0.197,11.651-0.953,17.411C649.141,913.543,649.358,914.226,649.401,914.705z"
		/>
	<path style="fill:#068853;" d="M1462.933,915.846c17.307,0,33.288-0.039,49.27,0.026c4.279,0.018,8.505-1.22,12.873,0.002
		c1.878,0.526,3.747,1.284,5.48,1.33c4.377,3.774,3.766,8.562,3.281,13.15c-0.804,7.608-3.108,14.836-6.383,21.746
		c-2,4.219-5.631,7.59-5.843,12.737c-9.068-1.348-17.481-0.543-25.901,0.155c-4.7,0.39-8.642,3.739-9.908,8.328
		c-0.947,3.433-0.901,6.92-0.899,10.404c0.013,36.134,0.059,72.268,0.09,108.401c0,0.494-0.088,0.989-0.157,1.717
		c-3.377,3.273-7.918,3.798-12.294,3.986c-7.976,0.343-15.975,0.2-23.964,0.136c-3.918-0.032-7.572-0.984-10.163-4.016
		c-1.537-7.542-1.495-14.994-1.468-22.487c0.121-34.136,0.053-68.273,0.053-102.41c0-3.993,0.148-7.992-0.038-11.977
		c-0.202-4.337,0.905-8.131,3.421-11.68c2.385-3.364,4.674-6.766,5.999-10.821c0.679-2.08,2.612-3.817,4.177-5.528
		C1454.712,924.502,1458.973,920.056,1462.933,915.846z"/>
	<path style="fill:#078853;" d="M943.582,964.238c-6.586,0-13.401-0.044-20.214,0.015c-4.983,0.043-9.543,1.183-12.741,5.471
		c-0.903,1.211-1.654,2.382-1.717,4.021c-0.203,5.311-0.948,10.582-0.939,15.92c0.058,33.975,0.03,67.951,0.029,101.927
		c0,1.827,0,3.654,0,5.289c-1.235,1.351-2.654,1.014-3.927,1.021c-7.993,0.044-15.986,0.036-23.979,0.015
		c-4.176-0.011-8.233-0.789-12.222-1.998c-2.442-0.74-3.929-2.003-4.159-4.853c-0.267-3.309-0.661-6.603-0.66-9.932
		c0.009-39.971-0.084-79.943,0.096-119.913c0.032-7.141,1.693-14.101,6.222-20.032c0.996-1.305,1.86-2.778,2.463-4.301
		c0.997-2.519,2.338-4.75,4.249-6.668c0.697-0.699,1.523-1.458,1.811-2.345c1.628-5.013,5.691-8.067,8.952-11.584
		c1.585-0.747,3.107-0.426,4.581-0.429c15.822-0.025,31.644-0.037,47.466-0.002c4.289,0.01,8.499-0.747,12.893-0.025
		c4.64,0.762,7.796,2.432,8.741,6.393C957.855,937.707,950.68,950.645,943.582,964.238z"/>
</g>
</svg>
