<?xml version="1.0" encoding="iso-8859-1"?>
<!-- Generator: Adobe Illustrator 27.0.0, SVG Export Plug-In . SVG Version: 6.00 Build 0)  -->
<svg version="1.1" id="Layer_1" xmlns="http://www.w3.org/2000/svg" xmlns:xlink="http://www.w3.org/1999/xlink" x="0px" y="0px"
	 viewBox="0 0 1571 607" style="enable-background:new 0 0 1571 607;" xml:space="preserve">
<g>
	<path style="fill:#233C72;" d="M565,0c-3.203,13.055-7.139,25.906-10.801,38.833c-18.731,66.111-37.438,132.229-56.185,198.335
		c-14.037,49.499-28.12,98.985-42.195,148.474c-0.272,0.957-0.69,1.871-1.142,3.077c-33.695,0-67.467,0-101.574,0
		c-20.869-69.107-40.526-138.548-62.384-208.027c-2.976,5.812-4.738,11.394-6.419,16.972
		c-14.598,48.469-29.123,96.959-43.679,145.441c-4.199,13.987-8.434,27.963-12.636,41.95c-0.378,1.259-0.644,2.55-1.678,3.75
		c-32.03,0-64.162,0-96.619,0c-2.836-6.921-4.865-14.24-6.941-21.544c-10.937-38.477-21.867-76.955-32.829-115.425
		C66.63,170.111,43.324,88.391,20.02,6.671C19.383,4.437,18.675,2.223,18,0c34,0,68,0,102,0
		c6.213,25.319,12.413,50.641,18.642,75.956c12.141,49.345,24.239,98.701,36.489,148.02c3.198,12.876,5.5,26.003,10.313,38.476
		c1.038-0.751,1.25-1.873,1.538-2.986c13.35-51.598,26.726-103.189,40.062-154.791C236.058,69.79,245.016,34.892,254,0
		c24,0,48,0,72,0c-0.387,1.356,0.071,2.619,0.409,3.902c1.523,5.777,3.049,11.554,4.544,17.338
		c21.098,81.623,42.975,163.039,64.992,244.417c0.245,0.906,0.055,2.083,1.607,2.237c0.509-1.536,1.081-3.088,1.54-4.673
		c4.024-13.875,7.034-28.003,10.446-42.03c10.868-44.675,21.643-89.372,32.442-134.063C448.998,58.088,455.994,29.043,463,0
		C497,0,531,0,565,0z"/>
	<path style="fill:#233D72;" d="M889,0c-0.557,1.967-0.261,3.977-0.26,5.964c0.035,121.83,0.082,243.659,0.154,365.489
		c0.003,5.668-0.449,11.293-1.094,17.231c-29.042,0-58.112,0-87.625,0c-1.18-52.109,0.512-104.342-1.104-156.783
		c-40.903,0-81.489,0-122.698,0c-0.782,52.177,0.082,104.269-0.555,156.321c-3.721,1.006-79.612,1.391-90.494,0.463
		c-0.936-6.173-1.182-12.436-1.18-18.726c0.042-106.997,0.071-213.993,0.103-320.99c0.004-14.666,0.018-29.332,0.002-43.999
		C584.247,3.313,584.087,1.657,584,0c31,0,62,0,93,0c-0.104,0.985-0.299,1.97-0.299,2.955c0,49.31,0.014,98.62,0.045,147.93
		c0.001,1.123-0.348,2.363,1.166,3.721c40.914,0.585,82.311,0.629,124.088-0.029c0-52.013,0-103.295,0-154.578C831,0,860,0,889,0z"
		/>
	<path style="fill:#223C72;" d="M1387,0c5.757,2.565,11.831,4.204,17.839,6.012c33.249,10.003,55.877,31.22,67.102,64.122
		c12.923,37.879,9.71,74.319-11.08,108.776c-7.416,12.291-17.804,21.937-29.504,30.103c-8.874,6.194-18.332,11.404-28.43,15.401
		c-1.031,0.408-2.328,0.497-3.217,2.032c3.393,5.205,7.331,10.262,11.445,15.158c33.638,40.03,67.359,79.991,100.981,120.035
		c6.957,8.286,13.615,16.824,20.386,25.265c0.591,0.737,1.564,1.339,1.273,2.663c-1.522,0.637-3.175,0.32-4.773,0.323
		c-32.989,0.055-65.979-0.006-98.967,0.198c-5.234,0.032-8.949-1.936-11.966-5.851c-28.352-36.783-57.168-73.202-86.19-109.458
		c-9.26-11.568-18.722-22.976-28.104-34.447c-0.729-0.892-1.551-1.707-2.278-2.502c-0.319,0.115-0.474,0.145-0.599,0.223
		c-0.131,0.082-0.312,0.195-0.335,0.32c-0.093,0.487-0.183,0.985-0.184,1.479c-0.008,49.815-0.007,99.63-0.007,149.796
		c-28.574,0-56.786,0-85.529,0c0-1.563,0.001-3.172,0-4.781c-0.053-126.459-0.393-252.918,0.242-379.377
		c0.009-1.83-0.068-3.661-0.105-5.491C1272.333,0,1329.667,0,1387,0z M1300.604,169.581c1.446,0.7,2.795,0.442,4.098,0.445
		c13.155,0.023,26.309,0.026,39.464,0.005c16.551-0.026,27.585-8.836,34.498-22.933c4.944-10.08,7.103-21.051,6.364-32.435
		c-1.426-21.973-12.473-36.634-32.82-43.554c-16.869-5.737-34.082-3.936-51.604-1.806
		C1300.604,102.772,1300.604,136.02,1300.604,169.581z"/>
	<path style="fill:#223C71;" d="M1032,0c0.756,1.938,0.358,3.957,0.356,5.933c-0.112,91.798-0.385,183.596,0.028,275.394
		c0.048,10.641,0.006,21.283,0.006,32.412c46.407,0.669,92.162,0.121,137.877,0.287c2.318,6.542,2.249,63.234,0.281,74.777
		c-74.868,0-149.77,0-224.654,0c-1.076-1.79-0.734-3.676-0.752-5.453c-0.12-11.661-0.194-23.323-0.194-34.984
		c-0.007-114.29,0.004-228.579,0.012-342.869c0-1.833,0.026-3.665,0.04-5.498C974,0,1003,0,1032,0z"/>
	<path style="fill:#FAEB27;" d="M1570.146,468.095c-0.227,1.295,0.095,2.681-0.715,4.071c-0.487,0.183-1.086,0.583-1.702,0.613
		c-7.307,0.357-14.616,0.935-21.925,0.935c-380.131,0.024-760.263,0.311-1140.394-0.191c-133.805-0.176-267.61-0.1-401.415-0.414
		C2.662,473.106,1.331,473.038,0,473c0-8,0-16,0-24c6.165-0.002,12.329-0.005,18.494-0.005c514.463,0,1028.926,0,1543.388,0
		c2.143,0,4.287,0,6.346,0c1.257,2.397,1.766,4.619,1.841,6.957C1570.094,460,1570.12,464.047,1570.146,468.095z"/>
	<path style="fill:#294074;" d="M877,607c-3.214-3.087-6.751-5.854-9.094-9.774c-2.986-4.995-4.605-10.25-3.614-16.305
		c3.224,0.121,5.155,2.106,6.927,4.286c2.308,2.838,4.508,5.763,6.831,8.588c4.786,5.82,14.65,5.563,20.021,1.484
		c6.482-4.923,6.726-13.153,0.418-18.334c-2.342-1.924-5.073-3.109-7.914-4.106c-4.069-1.428-8.067-3.072-12.109-4.548
		c-9.144-3.339-15.283-14.804-12.278-24.919c3.715-12.507,13.919-15.719,23.456-14.838c10.105,0.933,16.492,6.354,18.623,16.464
		c0.444,2.107,0.981,4.194,1.528,6.513c-2.228,1.062-4.511,0.129-6.817,0.343c-1.348-2.518-2.475-5.1-4.015-7.405
		c-4.22-6.318-9.497-8.26-16.79-6.447c-5.942,1.477-9.87,8.856-7.808,14.616c0.711,1.987,2.026,3.307,3.886,4.314
		c3.97,2.151,8.251,3.475,12.462,4.996c2.337,0.844,4.744,1.531,7.002,2.549c11.64,5.249,16.225,16.438,11.712,28.448
		c-1.788,4.759-4.533,8.851-8.574,12.023c-0.72,0.565-1.877,0.795-1.853,2.053C891.667,607,884.333,607,877,607z"/>
	<path style="fill:#294074;" d="M363,607c-6.49-4.967-11.531-10.961-13.429-19.138c-0.48-2.067-0.785-4.174-1.194-6.388
		c3.846-1.302,6.393,0.448,8.434,2.99c1.761,2.194,3.334,4.584,4.683,7.055c4.086,7.485,15.902,9.098,22.706,3.255
		c4.777-4.102,6.477-12.162,0.209-17.386c-3.138-2.615-6.771-4.131-10.569-5.425c-4.233-1.442-8.56-2.655-12.462-4.953
		c-14.395-8.478-12.102-26.556-3.357-33.602c7.259-5.848,15.52-6.583,23.967-3.232c7.909,3.138,11.757,9.413,12.035,17.892
		c0.038,1.164,0.129,2.326,0.15,3.49c0.005,0.303-0.16,0.609-0.363,1.321c-3.296-0.052-5.171-2.376-6.95-4.647
		c-1.534-1.958-2.655-4.241-4.206-6.183c-5.94-7.435-19.116-5.567-22.864,3.183c-1.853,4.326-0.808,8.259,3.032,10.928
		c3.732,2.594,8.034,3.94,12.286,5.375c2.36,0.797,4.715,1.606,7.07,2.416c12.951,4.452,16.586,16.483,13.242,27.782
		c-1.933,6.53-6.209,11.228-11.418,15.267C377,607,370,607,363,607z"/>
	<path style="fill:#294074;" d="M1445,607c0.005-0.575-0.384-0.824-0.825-1.079c-9.367-5.399-13.443-13.766-13.785-24.714
		c3.544-0.64,5.766,1.38,7.671,3.562c1.959,2.245,3.568,4.801,5.273,7.261c3.768,5.44,9.103,6.951,15.316,6.011
		c4.171-0.631,7.381-2.91,9.585-6.501c3.127-5.095,2.413-9.905-2.017-13.864c-2.518-2.25-5.519-3.666-8.654-4.815
		c-3.742-1.371-7.542-2.595-11.238-4.078c-14.431-5.79-15.551-18.87-11.82-28.775c2.797-7.427,11.273-12.086,20.293-11.72
		c13.524,0.548,21.728,10.005,20.982,24.508c-3.258-0.065-5.561-1.753-7.4-4.187c-1.401-1.854-2.68-3.805-3.949-5.755
		c-4.925-7.564-16.228-6.539-20.884-1.23c-3.09,3.523-3.565,7.328-2.318,11.762c3.631,3.99,8.569,5.897,13.617,7.609
		c2.983,1.012,6.024,1.878,8.943,3.05c12.556,5.042,17.313,16.638,12.394,29.309c-2.272,5.853-6.461,9.914-11.183,13.644
		C1458.333,607,1451.667,607,1445,607z"/>
	<path style="fill:#294074;" d="M1382,607c-0.031-0.164-0.006-0.419-0.102-0.478c-9.447-5.865-12.455-14.852-12.988-25.416
		c-0.554-10.986-0.632-21.963-0.546-32.946c0.047-5.946,0.447-11.89,0.699-18.123c2.542-0.328,4.938-0.336,7.277-0.003
		c1.016,1.93,0.648,3.789,0.653,5.58c0.033,12.661,0.045,25.323,0.002,37.984c-0.014,4.17,0.366,8.305,0.861,12.43
		c0.73,6.085,5.647,11.104,11.645,12.027c7.201,1.108,12.854-1.757,15.578-7.954c1.216-2.766,1.681-5.686,1.789-8.713
		c0.517-14.493,0.002-28.986,0.117-43.479c0.02-2.473,0.003-4.947,0.003-7.675c2.96-0.691,5.566-0.384,8.038-0.307
		c1.269,0.972,0.834,2.231,0.836,3.334c0.029,13.162,0.111,26.324-0.03,39.484c-0.052,4.81-0.463,9.638-1.06,14.414
		c-0.909,7.28-4.589,13.062-10.289,17.625c-0.86,0.689-2.227,0.847-2.485,2.216C1395.333,607,1388.667,607,1382,607z"/>
	<path style="fill:#FCF4AC;" d="M1570.146,468.095c-0.026-4.047-0.051-8.095-0.077-12.142c0.307,0.09,0.617,0.106,0.932,0.048
		c0,4,0,8,0,12C1570.713,468.016,1570.429,468.047,1570.146,468.095z"/>
	<path style="fill:#2B4175;" d="M984.632,604.596c-2.198-0.221-4.127-0.415-6.339-0.637c-0.873-24.837-0.31-49.569-0.224-74.597
		c4.392,0.368,8.31,0.696,12.597,1.055c1.787,7.135,3.532,14.187,5.322,21.227c2.7,10.618,5.373,21.244,8.195,31.83
		c0.623,2.336,1.229,4.833,3.487,6.697c5.854-19.718,10.787-39.473,15.895-59.238c3.509-1.246,7.032-0.945,10.358-1.736
		c1.811,7.26,1.572,69.115-0.269,74.766c-1.736,0.373-3.51,0.32-5.587-0.022c-2.115-18.252-0.031-36.548-1.463-54.808
		c-6.409,17.928-10.239,36.595-15.738,54.878c-2.688,0-5.145,0-7.981,0c-6.821-18.439-9.442-38.169-16.674-56.598
		C985.223,566.392,986.634,585.405,984.632,604.596z"/>
	<path style="fill:#284074;" d="M66.511,572.595c5.98,9.933,12.597,19.716,16.392,31.318c-2.76,0-5.349,0-8.096,0
		c-2.258-1.666-3.681-4.1-4.975-6.601c-1.83-3.536-3.596-7.107-5.33-10.692c-1.454-3.005-3.244-5.773-5.25-8.444
		c-3.386-4.508-7.555-6.902-13.334-5.655c-1.769,0.382-3.642-0.209-5.78,0.663c-0.273,9.965,0.421,20.097-0.462,30.384
		c-2.247,0.914-4.432,1.363-7.493,0.8c-0.422-24.583-0.264-49.273-0.105-74.377c11.693-0.438,23.03-2.052,34.405,0.692
		c5.562,1.341,9.065,4.804,11.329,9.636c5.069,10.818,0.866,24.219-9.388,30.499C67.711,571.254,66.928,571.534,66.511,572.595z
		 M40.912,538.894c-0.969,8.21-1.156,16.019-0.17,24.176c6.386,0,12.219,0.273,18.017-0.061c9.726-0.562,13.836-7.586,11.757-16.735
		c-0.943-4.152-3.678-6.67-8.011-7.067C55.38,538.554,48.25,538.964,40.912,538.894z"/>
	<path style="fill:#2B4175;" d="M1337.117,572.091c8.519,9.346,13.357,20.212,17.987,31.515c-2.866,1.247-5.645,0.123-8.346,0.719
		c-2.422-3.092-4.019-6.351-5.714-9.557c-2.482-4.693-5.019-9.356-7.54-14.028c-2.824-5.232-7.027-8.31-13.145-8.356
		c-2.621-0.02-5.243-0.003-8.178-0.003c-0.561,10.38,0.378,20.821-0.642,31.312c-2.076,0.894-4.045,0.26-5.903,0.537
		c-1.872-7.399-2.086-68.717-0.29-74.162c10.564-1.013,21.161-1.029,31.747,0.061c7.352,0.756,13.288,6.994,14.707,15.467
		c0.55,3.283,0.607,6.644,0.058,9.946c-0.856,5.147-3.276,9.375-7.756,12.247C1342.016,569.122,1339.885,570.388,1337.117,572.091z
		 M1312.061,562.653c6.847,0.46,13.141,0.444,19.433,0.262c5.303-0.153,9.22-2.459,11.107-7.638
		c3.164-8.683-1.431-15.88-10.613-16.277c-6.589-0.285-13.198-0.315-19.927,0.237
		C1312.061,547.099,1312.061,554.679,1312.061,562.653z"/>
	<path style="fill:#2B4175;" d="M1117.061,549.74c-0.671,18.54,0.679,36.31-0.716,53.854c-2.273,0.903-4.065,0.588-6.387,0.381
		c-1.663-24.812-0.562-49.636-0.632-74.952c3.14,0.925,5.813,0.882,8.285,2.105c10.469,18.205,18.887,37.542,30.594,55.376
		c0-18.711,0-37.421,0-56.14c2.569-0.913,4.688-0.37,6.69-0.556c1.45,4.311,1.718,61.114,0.409,74.151c-2.841,0-5.73,0-8.915,0
		C1136.236,586.469,1128.557,567.495,1117.061,549.74z"/>
	<path style="fill:#2B4175;" d="M694.452,530.385c10.674,17.453,17.974,36.68,29.965,54.691c1.009-6.978,0.443-12.841,0.544-18.663
		c0.107-6.162,0.024-12.328,0.024-18.492c0-5.976,0-11.953,0-17.876c2.489-1.429,4.556,0.229,7.051-0.298
		c1.32,25.105,1.173,49.949,0.087,74.603c-1.836,0.816-3.034-0.09-4.313-0.198c-1.312-0.11-2.62-0.284-3.997-0.438
		c-10.729-17.269-17.642-36.541-29.947-54.334c-0.336,6.976-0.173,12.803-0.173,18.617c0,5.994,0.27,11.991,0.154,17.982
		c-0.115,5.945-0.564,11.884-0.879,18.086c-2.298,0.109-4.214,0.337-6.548-0.287c-0.795-24.732-0.386-49.467-0.25-74.475
		C689.019,529.676,691.452,529.993,694.452,530.385z"/>
	<path style="fill:#2B4175;" d="M96.17,603.997c0-24.839,0-49.115,0-73.84c14.618-1.238,29.094-1.059,43.901-0.093
		c0.14,2.954,0.303,5.682-0.173,8.816c-11.636,0-23.043,0-34.662,0c0,7.829,0,15.246,0,23.093c10.653,0,21.226,0,31.89,0
		c0.938,3.132,0.49,5.879,0.434,9.099c-10.838,0.345-21.448-0.316-32.484,0.901c-0.355,7.992-0.262,16.081,0.122,24.444
		c11.821,2.124,23.972-1.69,35.392,2.055c0.965,1.96,0.452,3.554,0.169,5.499C126.034,604.962,111.346,605.051,96.17,603.997z"/>
	<path style="fill:#2D4276;" d="M299.995,596.803c11.711,0,23.144,0,34.836,0c0.299,2.504,1.105,4.485,0.814,7.135
		c-14.499,1.09-29.04,1.076-44.225,0.095c-0.635-24.634-0.162-49.168-0.329-73.885c14.65-1.16,28.85-1.101,42.933,0.186
		c1.048,1.359,0.602,2.741,0.633,4.028c0.028,1.132,0.325,2.342-0.615,3.603c-11.014,1.88-22.347,0.369-33.866,1.12
		c-1.01,7.513-0.244,14.929-0.178,22.768c10.842,0.484,21.574-0.334,32.46,0.492c0,2.884,0,5.485,0,8.832
		c-10.748,0.039-21.459-0.001-32.462,0.025C299.995,579.882,299.995,588.103,299.995,596.803z"/>
	<path style="fill:#2B4175;" d="M615.283,597.052c0.665,2.418,0.693,4.378,0.63,6.829c-14.556,1.174-29.054,1.116-43.811,0.166
		c-0.979-24.718-1.076-49.224,0.006-73.98c14.151-0.873,28.178-1.218,42.486,0.382c0.481,2.418,0.352,4.817,0.084,7.417
		c-11.401,1.951-22.722,0.542-34.314,1.156c0,7.505,0,15.041,0,22.954c10.821,0,21.402,0,32.201,0c0.8,3.059,0.323,5.82,0.418,9.029
		c-10.916,0-21.632,0-32.638,0c-0.808,8.686-0.243,16.932-0.302,25.816C591.798,597.203,603.391,596.823,615.283,597.052z"/>
	<path style="fill:#2D4276;" d="M1094.7,603.986c-14.535,0.998-28.767,1.041-43.442,0.015c-0.589-24.631-0.502-49.167-0.048-73.896
		c14.236-1.128,28.131-1.041,42.214-0.086c0.901,2.721,0.365,5.485,0.357,8.883c-11.733,0-23.285,0-34.961,0
		c-0.263,7.932-0.172,15.213,0.182,23.077c10.769,0,21.477,0,32.413,0c0.361,3.321,0.488,6.057-0.087,9.067
		c-10.742,0.462-21.374-0.394-32.285,0.946c0,8,0,16.051,0,24.221c2.605,0.989,5.283,0.718,7.899,0.743
		c7.326,0.069,14.654-0.018,21.98,0.039C1094.707,597.041,1094.967,597.383,1094.7,603.986z"/>
	<path style="fill:#284074;" d="M850.986,530.411c0,2.633,0,4.914,0,7.447c-11.457,1.99-22.927,0.434-34.648,1.246
		c-0.237,7.77-0.455,15.167,0.61,22.856c10.656,0.282,21.252-0.365,32.015,0.373c0,2.882,0,5.495,0,8.663
		c-10.651,0-21.371,0-32.431,0c0,8.761,0,16.977,0,25.633c11.627,0.839,23.229,0.013,34.971,0.492
		c0.722,2.173,0.574,4.292,0.677,6.365c-6.75,1.547-28.827,1.729-43.937,0.367c0-24.526,0-49.075,0-73.769
		C822.477,529.149,836.515,528.937,850.986,530.411z"/>
	<path style="fill:#294074;" d="M478.364,529.344c1.492,0,2.489-0.082,3.466,0.019c1.481,0.153,2.948,0.435,4.64,0.695
		c8.392,24.44,16.682,48.915,23.118,73.917c-1.564,1.288-3.006,0.318-4.428,0.201c-1.315-0.108-2.628-0.229-4.228-0.37
		c-1.873-6.504-3.742-12.997-5.745-19.952c-8.149,0.142-16.195-1.101-24.595-0.506c-2.172,6.916-4.296,13.682-6.414,20.426
		c-2.632,0.809-5.085,0.179-8.203,0.517C462.921,578.894,470.462,554.28,478.364,529.344z M491.973,574.764
		c-2.82-11.153-5.803-21.843-9.549-33.263c-3.691,11.428-6.748,22.098-9.528,33.241
		C479.543,575.079,485.614,575.153,491.973,574.764z"/>
	<path style="fill:#294074;" d="M204.339,603.896c-3.431,0-6.038,0-8.732,0c-2.329-6.938-3.888-13.895-6.722-20.502
		c-8.085-0.748-16.013,0.501-24.394,0.611c-1.826,6.62-3.657,13.256-5.514,19.987c-2.718,0-5.149,0-8.001,0
		c1.122-6.224,2.979-11.997,4.685-17.79c4.915-16.693,9.94-33.353,14.933-50.023c1.882-6.282,1.906-6.287,8.654-6.363
		c0.484-0.005,0.969,0.051,1.906,0.105C189.085,554.341,197.603,578.659,204.339,603.896z M167.57,574.749
		c6.71,0.35,12.6,0.426,19.068-0.104c-3.067-11.089-5.99-21.654-9.105-32.916C172.735,552.593,170.544,563.433,167.57,574.749z"/>
	<path style="fill:#2B4175;" d="M789.368,530.146c2.859,0,5.154,0,8.041,0c-6.684,25.07-14.393,49.494-22.498,73.864
		c-2.713,0.915-5.302,0.901-8.204,0.641c-8.956-24.335-16.126-49.159-22.727-74.425c2.89-0.806,5.587-0.313,8.448,0.039
		c6.285,20.6,9.974,41.79,18.479,62.879C777.715,571.726,783.088,550.961,789.368,530.146z"/>
	<path style="fill:#304477;" d="M1214.866,529.62c0,3.309,0,6.076,0,9.239c-6.317,0-12.411,0-19.055,0c0,21.803,0,43.213,0,64.8
		c-3.063,0.828-5.602,0.627-8.627,0.223c0-21.573,0-42.995,0-64.859c-6.699,0-12.949,0-19.284,0
		c-0.805-3.181-0.489-5.958-0.278-9.41C1183.284,529.1,1198.859,529.193,1214.866,529.62z"/>
	<path style="fill:#2B4175;" d="M1291.912,530.035c0,2.89,0,5.528,0,8.727c-6.218,0-12.442,0-19.202,0c0,21.956,0,43.359,0,64.908
		c-3.066,0.791-5.599,0.603-8.576,0.22c0-21.613,0-43.022,0-64.861c-6.657,0-12.903,0-19.213,0
		c-0.953-3.152-0.507-5.921-0.366-8.643C1249.609,529.044,1282.564,528.78,1291.912,530.035z"/>
	<path style="fill:#2D4276;" d="M1536.339,529.634c0.005,3.43,0.417,6.059-0.464,9.204c-6.443,0-12.876,0-19.836,0
		c-0.548,22.045,0.847,43.587-0.798,65.197c-2.264,0-4.039,0-6.314,0c-1.178-10.813-0.776-21.578-0.823-32.321
		c-0.046-10.653-0.01-21.306-0.01-32.505c-6.284,0-12.522,0-18.743,0c-1.319-3.207-0.576-5.999-0.755-9.345
		C1504.488,528.935,1520.173,529.247,1536.339,529.634z"/>
	<path style="fill:#284074;" d="M940.015,538.922c-6.91,0-13.041,0-19.312,0c-1.092-2.939-0.379-5.709-0.594-9.02
		c15.994-0.966,31.684-0.677,47.343-0.167c0.224,0.96,0.422,1.43,0.43,1.903c0.034,2.16,0.015,4.32,0.015,7.125
		c-6.501,0-12.88,0-19.731,0c0,22.061,0,43.482,0,65.159c-2.885,0-5.279,0-8.151,0C940.015,582.423,940.015,561.001,940.015,538.922
		z"/>
	<path style="fill:#2B4175;" d="M538.752,604.004c-2.38,0-4.31,0-6.45,0c-1.987-21.482-0.739-42.905-0.668-65.005
		c-6.88,0-13.465,0-20.312,0c0-3.283,0-5.876,0-9.198c15.617-0.878,31.311-0.494,47.127-0.181c0.726,3.174,0.431,5.923,0.291,8.962
		c-6.415,0.868-12.718,0.116-19.517,0.607C538.741,560.616,539.579,582.033,538.752,604.004z"/>
	<path style="fill:#304477;" d="M223.711,595.678c9.806,2.056,19.161,0.914,28.532,1.442c0.893,2.162,0.549,4.272,0.648,6.312
		c-7.985,1.674-25.635,1.979-36.942,0.624c-1.272-24.662-0.834-49.391-0.275-74.173c2.661-0.938,4.896-0.635,7.87-0.11
		C224.085,551.663,223.715,573.56,223.711,595.678z"/>
	<path style="fill:#233D72;" d="M427.835,539.162c-7.192-0.21-13.666-0.234-20.224-1.412c-0.48-2.366-0.354-4.629,0.028-7.446
		c15.752-0.922,31.445-0.807,47.015-0.09c1.245,1.21,0.904,2.604,0.885,3.891c-0.017,1.137,0.292,2.329-0.421,3.57
		c-6.358,1.506-13.006,1.094-20.021,1.584c0,21.705,0,43.087,0,64.688c-2.556,0-4.617,0-7.044,0
		C427.418,582.411,427.937,561.021,427.835,539.162z"/>
	<path style="fill:#294074;" d="M662.032,530.024c2.484,0,4.555,0,6.594,0c1.617,10.637,1.472,63.65-0.208,74.031
		c-1.887,0.169-3.811,0.283-6.173-0.211C661.481,579.274,661.928,554.739,662.032,530.024z"/>
</g>
</svg>
