<?xml version="1.0" encoding="iso-8859-1"?>
<!-- Generator: Adobe Illustrator 27.0.0, SVG Export Plug-In . SVG Version: 6.00 Build 0)  -->
<svg version="1.1" id="Layer_1" xmlns="http://www.w3.org/2000/svg" xmlns:xlink="http://www.w3.org/1999/xlink" x="0px" y="0px"
	 viewBox="0 0 1698.62 442" style="enable-background:new 0 0 1698.62 442;" xml:space="preserve">
<g>
	<path style="fill:#EE5426;" d="M715.143,431.855c-14.405-4.141-28.058-10.061-41.184-17.268
		c-36.334-19.95-64.72-47.955-85.537-83.783c-14.116-24.295-23.265-50.345-27.087-78.08c-8.336-60.489,5.551-115.563,42.115-164.559
		c22.316-29.904,50.806-52.415,84.716-68.024c20.052-9.23,41.08-15.043,62.899-18.242C754.371,1.414,757.95,1.944,761,0
		c0.333,0,0.667,0,1,0c3.044,1.395,10.259,1.395,14,0c2.667,0,5.333,0,8,0c4.545,1.769,9.167,1.193,13.791,0.436
		C797.882,0.421,797.931,0.151,798,0c0.333,0,0.667,0,1,0c3.216,1.837,6.888,1.359,10.338,1.966
		c12.007,2.109,23.971,4.36,35.57,8.219c-0.29,0.774-0.621,1.535-0.865,2.324c-6.021,19.437-12.033,38.878-18.046,58.318
		c-1.918-0.479-3.842-0.94-5.754-1.441c-25.057-6.566-50.217-7.268-75.502-1.372c-31.32,7.303-57.878,22.762-79.831,46.272
		c-18.084,19.366-30.039,42.008-36.946,67.482c-2.238,8.254-2.816,16.698-3.483,25.137c-1.239,15.665-0.747,31.354,2.075,46.758
		c3.256,17.775,10.117,34.408,19.785,49.689c18.708,29.571,44.213,51.106,76.969,63.808c3.555,1.378,7.139,2.679,10.71,4.015
		c-0.346,1.104-0.694,2.208-1.037,3.312C727.036,393.609,721.089,412.732,715.143,431.855z"/>
	<path style="fill:#2CABE2;" d="M825.997,70.825c6.013-19.44,12.025-38.88,18.046-58.318c0.244-0.788,0.575-1.55,0.865-2.324
		c9.952,2.581,19.342,6.639,28.627,10.955c27.663,12.857,51.525,30.915,71.631,53.729c22.1,25.076,37.979,53.674,47.06,86.009
		c3.941,14.035,6.653,28.311,8.412,42.685c0.948,7.75,1.184,15.729,0.803,23.737c-0.563,11.826-2.543,23.361-4.689,34.88
		c-2.572,13.802-6.42,27.305-11.742,40.352c-7.998,19.607-18.361,37.821-31.421,54.526c-7.817,9.999-16.594,19.08-25.884,27.648
		c-11.125,10.26-23.359,19.076-36.445,26.721c-13.204,7.714-26.919,14.315-41.457,19.055c-14.144,4.611-28.548,8.186-43.417,9.636
		c-2.793,0.272-5.525,1.147-8.379,0.888c-4.652,0.002-9.305-0.017-13.957,0.023c-1.086,0.009-2.391-0.461-3.05,0.972c-1,0-2,0-3,0
		c-0.507-1.214-1.583-0.983-2.549-0.985c-4.49-0.008-8.981-0.002-13.471,0c-13.385-0.701-26.465-3.204-39.353-6.773
		c-2.519-0.698-5.176-1.013-7.485-2.386c5.947-19.123,11.893-38.246,17.84-57.369c0.344-1.105,0.691-2.208,1.037-3.312
		c12.533,3.898,25.447,5.737,38.471,6.689c11.135,0.814,22.269-0.237,33.228-2.062c16.738-2.787,32.571-8.41,47.647-16.32
		c21.3-11.176,38.973-26.579,53.104-45.846c19.887-27.113,29.597-57.873,30.329-91.386c0.161-7.396-0.636-14.859-1.638-22.268
		c-2.26-16.703-6.94-32.613-14.386-47.74c-11.832-24.037-28.64-43.833-50.432-59.38C856.745,83.16,841.816,76.083,825.997,70.825z"
		/>
	<path style="fill:#C52429;" d="M0,7c1.224-0.668,2.555-0.626,3.892-0.626c20.481,0.008,40.962,0.005,61.444,0.007
		c0.992,0,2.004-0.095,3.234,0.706c3.053,9.84,6.221,19.947,9.327,30.073c14.789,48.217,29.55,96.442,44.342,144.658
		c13.867,45.201,27.755,90.395,41.67,135.582c0.507,1.646,0.442,3.601,2.105,4.757c-0.254,0.428-0.625,0.826-0.745,1.288
		c-2.381,9.183-5.226,18.225-8.13,27.252c-2.055,6.389-3.921,12.835-5.97,19.229c-4.491,14.013-8.583,28.155-12.756,42.269
		c-2.132,7.209-4.763,14.269-6.42,21.618c-1.898-1.172-1.816-3.299-2.363-5.078c-17.163-55.811-34.29-111.633-51.434-167.45
		c-21.626-70.408-43.266-140.812-64.891-211.22C9.211,36.741,5.161,23.405,1.094,10.073C0.861,9.309,0.943,8.386,0,8
		C0,7.667,0,7.333,0,7z"/>
	<path style="fill:#80C1EA;" d="M781,442c0.659-1.434,1.964-0.963,3.05-0.972c4.652-0.04,9.304-0.021,13.957-0.023
		c-0.002,0.332-0.005,0.663-0.007,0.995C792.333,442,786.667,442,781,442z"/>
	<path style="fill:#80C1EA;" d="M761.98,441.015c4.49-0.001,8.981-0.008,13.471,0c0.966,0.002,2.042-0.229,2.549,0.985
		c-5.333,0-10.667,0-16,0C762.088,441.67,762.082,441.341,761.98,441.015z"/>
	<path style="fill:#F48F64;" d="M776,0c-3.741,1.395-10.956,1.395-14,0C766.667,0,771.333,0,776,0z"/>
	<path style="fill:#F48F64;" d="M798,0c-0.069,0.151-0.118,0.421-0.209,0.436C793.167,1.193,788.545,1.769,784,0
		C788.667,0,793.333,0,798,0z"/>
	<path style="fill:#3470B2;" d="M1395.012,322.051c4.254-13.602,8.565-27.186,12.746-40.81c4.863-15.846,9.55-31.746,14.42-47.59
		c14.467-47.062,29.006-94.102,43.477-141.162c8.477-27.567,16.884-55.155,25.291-82.742c0.344-1.13,0.67-2.219,1.541-3.224
		c22.345,0,44.775,0,67.833,0c-43.781,142.658-87.438,284.912-130.978,426.787c-1.328,0.889-2.353,0.684-3.333,0.685
		c-20.833,0.01-41.667,0.009-62.5-0.002c-0.827,0-1.654-0.128-2.481-0.197c0.851-2.981,1.676-5.97,2.557-8.942
		c1.956-6.595,4.383-13.069,6.192-19.677c4.754-17.37,10.62-34.395,15.533-51.712
		C1388.299,342.924,1391.762,332.518,1395.012,322.051z"/>
	<path style="fill:#2299D4;" d="M1263.974,119.027c-3.115,3.28-3.315,7.776-4.63,11.737c-3.696,11.13-6.886,22.427-10.32,33.644
		c-7.643,24.965-15.313,49.922-22.971,74.883c-11.682,38.076-23.361,76.153-35.047,114.228c-8,26.068-16.008,52.134-24.021,78.198
		c-0.19,0.617-0.474,1.204-0.596,1.509c-1.129,0.957-2.161,0.767-3.138,0.767c-20.648,0.009-41.296,0.008-61.944,0.004
		c-0.998,0-2.007,0.036-2.99-0.096c-1.048-0.141-1.19-0.981-1.119-1.874c0.857-0.082,1.526-0.269,1.808-1.308
		c0.599-2.214,1.375-4.38,2.047-6.575c4.649-15.182,9.27-30.372,13.942-45.546c1.928-6.262,4.132-12.443,5.908-18.746
		c3.687-13.083,7.595-26.093,12.06-38.932c0.582-4.459,2.361-8.59,3.65-12.842c7.19-23.723,14.561-47.391,21.841-71.087
		c7.668-24.956,15.287-49.927,22.957-74.883c9.369-30.483,18.777-60.954,28.152-91.436c6.12-19.9,12.21-39.809,18.321-59.712
		c0.478-1.556,1.011-3.096,1.542-4.719c0.828-0.063,1.473-0.155,2.119-0.155c20.647-0.008,41.294-0.024,61.941,0.023
		c1.646,0.004,3.869-0.836,4.385,1.931c-1.172,1.015-1.531,2.4-1.963,3.833c-4.432,14.72-8.896,29.43-13.424,44.12
		c-4.917,15.951-10.059,31.835-14.785,47.842C1266.23,108.814,1263.657,113.588,1263.974,119.027z"/>
	<path style="fill:#2CABE2;" d="M1132.963,320.918c-4.465,12.84-8.374,25.849-12.06,38.932c-1.776,6.303-3.98,12.484-5.908,18.746
		c-4.672,15.174-9.294,30.365-13.942,45.546c-0.672,2.195-1.447,4.361-2.047,6.575c-0.282,1.04-0.951,1.226-1.808,1.308
		c-2.68-8.326-5.432-16.629-8.021-24.983c-3.618-11.677-7.105-23.396-10.664-35.091c-8.224-27.024-16.427-54.055-24.698-81.065
		c-4.402-14.374-8.987-28.692-13.384-43.068c-6.908-22.59-13.694-45.218-20.596-67.811c-4.585-15.01-9.31-29.977-13.924-44.979
		c-7.43-24.156-14.811-48.326-22.228-72.486c-4.606-15.004-9.245-29.997-13.861-44.998c-1.014-3.295-1.993-6.601-3.122-10.347
		c22.834,0,45.224,0,67.782,0c1.871,2.443,2.328,5.651,3.245,8.591c6.049,19.397,11.899,38.857,17.812,58.296
		c7.211,23.706,14.398,47.42,21.638,71.117c4.296,14.061,8.694,28.091,13.011,42.146c7.372,24.002,14.704,48.016,22.078,72.017
		c5.92,19.267,11.827,38.539,17.927,57.75C1130.604,318.415,1129.937,321.243,1132.963,320.918z"/>
	<path style="fill:#2785C2;" d="M1263.974,119.027c-0.317-5.439,2.256-10.213,3.726-15.193c4.726-16.007,9.868-31.891,14.785-47.842
		c4.528-14.69,8.992-29.401,13.424-44.12c0.432-1.434,0.791-2.818,1.963-3.833c5.715,18.487,11.443,36.97,17.141,55.462
		c11.151,36.194,22.291,72.392,33.424,108.592c9.042,29.399,18.07,58.802,27.098,88.205c6.115,19.918,12.22,39.838,18.321,59.761
		c0.234,0.765,0.154,1.686,1.157,1.994c-3.25,10.466-6.713,20.873-9.703,31.413c-4.912,17.317-10.779,34.341-15.533,51.712
		c-1.808,6.608-4.236,13.082-6.192,19.677c-0.881,2.972-1.706,5.961-2.557,8.942c-2.362-2.686-2.665-6.232-3.66-9.414
		c-6.276-20.065-12.282-40.215-18.451-60.313c-11.805-38.459-23.683-76.896-35.488-115.356
		c-10.251-33.394-20.471-66.798-30.643-100.216C1269.8,138.688,1266.402,129.002,1263.974,119.027z"/>
	<path style="fill:#3570B2;" d="M1630.437,6.561c22.577,0,44.979,0,68.184,0c-30.561,99.58-60.972,198.67-91.43,297.914
		c-22.707,0-45.136,0-67.901,0c0.049-3.547,1.568-6.668,2.548-9.874c8.52-27.892,17.124-55.758,25.68-83.639
		c12.153-39.604,24.277-79.218,36.431-118.822c8.313-27.089,16.652-54.169,24.989-81.251
		C1629.371,9.48,1629.901,8.101,1630.437,6.561z"/>
	<path style="fill:#3570B2;" d="M1587.045,369.946c-6.486,21.126-12.983,42.286-19.571,63.742c-22.679,0-45.392,0-68.335,0
		c6.496-21.199,12.937-42.218,19.334-63.093c1.317-1.099,2.706-0.664,3.991-0.693c2.828-0.064,5.659,0.008,8.489-0.024
		c16.957-0.194,33.914-0.418,50.872-0.582C1583.434,369.28,1585.127,368.852,1587.045,369.946z"/>
	<path style="fill:#EE5426;" d="M427.973,322.098c1.764-0.886,1.558-2.767,2.011-4.238c16.692-54.252,33.334-108.52,49.988-162.783
		c15-48.871,30.007-97.74,45.015-146.609c0.145-0.471,0.344-0.924,0.505-1.352c3.854-1.003,63.31-1.066,68.277,0.057
		c-43.626,142.155-87.238,284.263-130.803,426.22c-0.837,0.706-1.685,0.604-2.506,0.604c-21.161,0.003-42.323,0.004-63.484-0.005
		c-0.662,0-1.324-0.106-1.987-0.162c-0.076-4.89,2.261-9.196,3.579-13.704c5.132-17.555,10.716-34.978,16.113-52.456
		c4.289-13.891,8.521-27.8,12.875-41.671C427.975,324.665,427.892,323.403,427.973,322.098z"/>
	<path style="fill:#D53428;" d="M131.992,433.814c1.657-7.349,4.289-14.41,6.42-21.618c4.174-14.114,8.265-28.256,12.756-42.269
		c2.049-6.394,3.914-12.841,5.97-19.229c2.904-9.027,5.749-18.069,8.13-27.252c0.12-0.463,0.491-0.86,0.745-1.288
		c12.298-40.124,24.59-80.249,36.894-120.371c13.668-44.566,27.348-89.127,41.021-133.691C249.962,48.429,255.996,28.763,262,9.088
		c0.295-0.966,0.536-1.911,1.403-2.793c22.316,0,44.774,0,67.183,0c0.778,0.781,1.299,1.601,1.175,2.695
		c-1.207,0.017-1.525,0.696-1.86,1.822c-2.431,8.161-5.029,16.272-7.515,24.416c-3.014,9.873-6.185,19.7-9.182,29.573
		c-4.9,16.142-9.687,32.318-14.779,48.402c-0.588,1.856-1.675,3.62-1.425,5.698c-3.441,8.799-5.771,17.954-8.554,26.961
		c-15.134,48.98-30.177,97.989-45.219,146.998c-14.07,45.841-28.099,91.694-42.152,137.54c-0.339,1.105-0.742,2.189-1.093,3.216
		c-1.738,0.692-3.421,0.367-5.064,0.369c-19.316,0.026-38.632,0.021-57.948,0.009C135.312,433.991,133.652,433.876,131.992,433.814z
		"/>
	<path style="fill:#E04227;" d="M297.001,118.899c-0.251-2.077,0.837-3.842,1.425-5.698c5.092-16.084,9.879-32.26,14.779-48.402
		c2.997-9.872,6.168-19.7,9.182-29.573c2.486-8.145,5.084-16.255,7.515-24.416c0.335-1.126,0.653-1.805,1.86-1.822
		c4.367,13.931,8.799,27.843,13.089,41.798c14.726,47.901,29.403,95.817,44.096,143.729c12.652,41.253,25.301,82.508,37.946,123.763
		c0.388,1.265,0.721,2.546,1.08,3.82c-0.08,1.304,0.003,2.567-0.416,3.902c-4.354,13.871-8.585,27.78-12.875,41.671
		c-5.397,17.478-10.981,34.901-16.113,52.456c-1.318,4.508-3.655,8.814-3.579,13.704c-2.195-0.753-1.861-2.909-2.353-4.504
		c-10.814-35.02-21.578-70.055-32.33-105.094c-12.894-42.02-25.773-84.045-38.65-126.07c-7.92-25.846-15.822-51.697-23.751-77.541
		C297.718,120.013,297.307,119.472,297.001,118.899z"/>
</g>
</svg>
