<?xml version="1.0" encoding="iso-8859-1"?>
<!-- Generator: Adobe Illustrator 27.0.0, SVG Export Plug-In . SVG Version: 6.00 Build 0)  -->
<svg version="1.1" id="Layer_1" xmlns="http://www.w3.org/2000/svg" xmlns:xlink="http://www.w3.org/1999/xlink" x="0px" y="0px"
	 viewBox="0 0 1650 312" style="enable-background:new 0 0 1650 312;" xml:space="preserve">
<g>
	<path style="fill:#ED2125;" d="M1077,0c-0.018,54.983-0.037,109.965-0.052,164.948c-0.005,18.328,0.014,36.655-0.024,54.983
		c-0.003,1.613,0.448,3.306-0.511,5.031c-15.382,0-30.804,0-46.813,0c0-1.925,0-3.695,0-5.465c0-52.984,0.01-105.967-0.045-158.951
		c-0.002-1.78,0.908-3.973-1.883-5.84c-5.241,19.009-9.467,37.855-14.207,56.564c-4.811,18.993-9.454,38.029-14.149,57.052
		c-4.651,18.841-9.275,37.689-13.936,56.636c-17.806,0-35.26,0-53.313,0c-6.723-28.251-13.372-56.656-20.26-85.002
		c-6.857-28.219-13.344-56.534-20.478-85.041c-1.071,0.682-1.218,0.763-1.35,0.863c-0.127,0.096-0.29,0.19-0.348,0.324
		c-0.13,0.302-0.239,0.622-0.294,0.945c-0.055,0.326-0.044,0.664-0.044,0.997c-0.002,55.471-0.002,110.942-0.002,166.761
		c-15.734,0-31.277,0-47.291,0c0-74.949,0-149.877,0-224.805c26.667,0,53.333,0,80,0c0.857,7.434,2.972,14.608,4.597,21.88
		c5.463,24.452,11.027,48.882,16.564,73.318c4.986,22.007,9.979,44.012,15.004,66.01c0.27,1.184,0.226,2.79,2.282,2.826
		c0.879-1.573,1.146-3.362,1.558-5.105c10.911-46.175,21.876-92.338,32.681-138.537C996.266,13.634,998.408,6.974,999,0
		C1025,0,1051,0,1077,0z"/>
	<path style="fill:#ED2225;" d="M1356,0c0,24.156,0,48.312,0,72.391c0.933,0.353,1.394-0.163,1.875-0.558
		c11.065-9.091,24.115-13.2,38.056-14.661c9.79-1.026,19.559-0.82,29.244,1.74c19.582,5.176,34.689,16.466,45.857,33.108
		c11.955,17.814,16.901,37.804,14.669,58.881c-3.659,34.561-21.515,59.594-53.917,73.108c-15.342,6.399-31.454,6.371-47.571,2.494
		c-10.157-2.443-19.306-6.945-27.851-13.588c-0.993,4.119-0.002,8.151-1.363,12.04c-15.158,0-30.262,0-45.35,0
		c-1.008-1.863-0.522-3.724-0.522-5.499c-0.03-71.32-0.025-142.641-0.03-213.961c0-1.831-0.063-3.663-0.097-5.494
		C1324.667,0,1340.333,0,1356,0z M1395.398,101.628c-23.443-0.208-41.441,18.056-41.11,41.525
		c0.333,23.584,17.456,40.699,41.004,40.662c24.616-0.039,41.462-18.229,41.417-41.401
		C1436.661,117.86,1417.394,101.155,1395.398,101.628z"/>
	<path style="fill:#ED2025;" d="M148,0c0,13.803,0,27.606,0,41.927c-32.503,0-64.88,0-97.477,0c0,15.619,0,30.722,0,46.56
		c7.749,0.234,15.504,0.08,23.251,0.108c7.663,0.027,15.326,0.006,22.989,0.006c7.83,0,15.659,0,23.489,0c7.652,0,15.304,0,23.287,0
		c0,13.503,0,26.727,0,40.484c-30.893,0-61.771,0-92.943,0c0,18.105,0,35.685,0,53.8c32.349,0,64.715,0,97.29,0
		c0,14.27,0,28.007,0,41.612c-0.959,1.01-2.023,0.635-2.963,0.635c-47.478,0.022-94.956,0.02-142.434,0.013
		c-0.829,0-1.659-0.095-2.488-0.146C0,150,0,75,0,0C49.333,0,98.667,0,148,0z"/>
	<path style="fill:#ED2225;" d="M1650,225c-16.129,0-32.258,0-48.412,0c-0.93-1.894-0.482-3.751-0.482-5.527
		c-0.029-71.159-0.024-142.318-0.028-213.477c0-1.999-0.05-3.998-0.077-5.996c16.333,0,32.667,0,49,0C1650,75,1650,150,1650,225z"/>
	<path style="fill:#ED2025;" d="M1563,0c0.805,2.603,0.342,5.274,0.357,7.908c0.063,11.125,0.027,22.251,0.027,33.733
		c-16.124,0-32.116,0-48.384,0c0-13.885,0-27.763,0-41.641C1531,0,1547,0,1563,0z"/>
	<path style="fill:#F7977A;" d="M416,312c-0.038-0.292-0.071-0.584-0.1-0.877c21.94-0.031,43.881-0.064,65.821-0.081
		c0.485,0,0.971,0.187,1.456,0.286c0.116,0.27,0.057,0.494-0.178,0.671C460.667,312,438.333,312,416,312z"/>
	<path style="fill:#EE2325;" d="M483.178,311.329c-0.485-0.1-0.971-0.287-1.456-0.286c-21.94,0.017-43.881,0.05-65.821,0.081
		c-12.371-12.596-24.742-25.191-37.111-37.788c-16.457-16.76-32.913-33.521-49.864-50.785c-15.57,20.075-31.023,40-46.59,60.071
		c-18.59,0-37.191,0-56.525,0c24.287-30.35,48.279-60.333,72.522-90.628c-10.645-10.795-21.121-21.419-31.751-32.199
		c-17.123,21.947-34.011,43.592-50.827,65.146c-18.702,0-37.14,0-56.403,0c25.776-32.204,51.126-63.876,76.761-95.906
		c-22.45-22.731-44.852-45.413-67.868-68.716c23.192,0,45.301,0,67.594,0c9.746,10.138,19.556,20.343,29.863,31.064
		c18.617-23.886,37.068-47.559,55.539-71.258c18.583,0,37.063,0,56.522,0c-27.101,34.251-53.889,67.89-81.103,102.034
		c10.339,10.451,20.687,20.911,31.49,31.83c24.521-31.416,48.764-62.477,73.041-93.58c18.601,0,37.159,0,56.652,0
		c-33.113,41.788-65.742,82.963-98.433,124.218c1.344,2.953,3.836,4.736,5.892,6.808c35.098,35.374,70.254,70.69,105.39,106.026
		c3.876,3.898,7.705,7.843,11.556,11.766C482.821,309.81,483.503,310.347,483.178,311.329z"/>
	<path style="fill:#ED2325;" d="M619.15,142.98c0.15,37.113-24.699,70.675-59.838,81.575c-21.847,6.777-43.507,6.238-64.331-3.071
		c-28.892-12.916-46.047-35.562-50.697-66.854c-6.066-40.826,17.285-78.514,54.489-92.023c35.059-12.73,67.277-6.641,94.79,19.012
		c13.918,12.977,21.704,29.602,24.524,48.496C618.754,134.579,619.015,139.049,619.15,142.98z M531.239,184.128
		c22.772,0.903,40.922-18.129,41.063-40.961c0.129-20.911-14.487-41.613-40.21-41.896c-25.143-0.277-40.865,19.428-41.066,41.048
		C490.802,166.381,509.326,184.612,531.239,184.128z"/>
	<path style="fill:#ED2225;" d="M1193.094,228.994c-38.97,0.05-72.519-23.862-83.972-60.288
		c-14.588-46.396,11.477-95.227,58.5-108.586c24.882-7.069,48.88-4.424,71.157,8.816c23.744,14.112,37.494,35.221,41.344,62.664
		c4.984,35.519-13.449,72.141-47.945,88.616C1219.824,226.116,1206.751,228.866,1193.094,228.994z M1193.346,184.135
		c22.854,0.61,40.671-18.312,40.654-41.38c-0.017-22.55-16.561-41.486-40.646-41.501c-24.283-0.015-40.559,19.328-40.631,41.49
		C1152.65,165.354,1170.473,184.844,1193.346,184.135z"/>
	<path style="fill:#ED2325;" d="M691.88,60.424c0,5.01,0,9.646,0,14.82c4.347-3.03,7.955-6.215,12.126-8.566
		c19.984-11.266,41.016-13.843,62.342-5.235c18.429,7.438,29.63,21.957,34.61,41.194c1.721,6.646,2.321,13.433,2.323,20.277
		c0.009,33.323-0.001,66.646-0.009,99.969c0,0.498-0.061,0.996-0.093,1.489c-3.385,0.972-41.458,1.218-47.731,0.29
		c-0.655-1.71-0.292-3.552-0.294-5.339c-0.031-27.491-0.034-54.983-0.014-82.475c0.004-5.846-0.359-11.622-2.044-17.276
		c-3.787-12.706-13.075-19.979-26.321-20.492c-6.594-0.255-12.919,0.599-18.663,4.217c-7.766,4.891-11.389,12.357-12.963,20.985
		c-0.683,3.745-0.932,7.575-0.922,11.428c0.068,27.825,0.037,55.649,0.037,83.474c0,1.8,0,3.599,0,5.683c-16.076,0-31.82,0-47.858,0
		c0-54.736,0-109.453,0-164.444C661.426,60.424,676.338,60.424,691.88,60.424z"/>
	<path style="fill:#ED2125;" d="M1563.156,224.665c-4.853,0.671-43.5,0.654-48.154-0.015c0-54.654,0-109.337,0-164.244
		c16.133,0,32.028,0,48.154,0C1563.156,115.231,1563.156,169.803,1563.156,224.665z"/>
</g>
</svg>
