<?xml version="1.0" encoding="iso-8859-1"?>
<!-- Generator: Adobe Illustrator 27.0.0, SVG Export Plug-In . SVG Version: 6.00 Build 0)  -->
<svg version="1.1" id="Layer_1" xmlns="http://www.w3.org/2000/svg" xmlns:xlink="http://www.w3.org/1999/xlink" x="0px" y="0px"
	 viewBox="0 0 1505.424 574.319" style="enable-background:new 0 0 1505.424 574.319;" xml:space="preserve">
<g>
	<path style="fill:#030303;" d="M800.806,447.112c0,6.037,0,11.019,0,16.001c-0.002,24.325-0.095,48.65,0.027,72.974
		c0.082,16.38-10.955,33.853-30.394,37.471c-23.245,4.326-40.356-10.377-44.695-29.246c-0.676-2.938-0.955-5.887-0.954-8.905
		c0.024-94.967,0.078-189.933-0.039-284.9c-0.02-16.15,10.048-35.292,33.457-38.305c20.62-2.653,38.164,11.371,41.607,30.367
		c0.316,1.741,0.61,3.486,1.013,5.798c6.013-6.27,11.81-11.723,18.295-16.422c15.715-11.385,32.984-19.125,52.273-21.715
		c28.308-3.801,54.531,2.269,78.2,18.228c29.448,19.855,47.155,47.989,56.113,81.924c3.751,14.21,5.527,28.782,4.91,43.459
		c-1.347,32.03-11.05,61.288-31.104,86.558c-19.664,24.777-45.038,40.626-76.549,45.297c-29.418,4.36-56.284-3.059-80.69-19.792
		C814.719,460.725,807.907,454.661,800.806,447.112z M800.827,348.766c0,2.497-0.101,4.999,0.036,7.489
		c0.09,1.646,0.552,3.27,0.792,4.911c2.977,20.3,12.303,37.065,28.611,49.523c15.69,11.985,33.541,16.559,53.007,12.522
		c23.237-4.819,39.637-18.815,49.587-40.008c10.694-22.776,10.384-45.921-0.024-68.828c-10.805-23.779-37.278-44.15-69.109-40.637
		c-15.303,1.689-28.365,7.937-39.344,18.365C808.241,307.433,800.986,326.697,800.827,348.766z"/>
	<path style="fill:#030303;" d="M160.324,372.905c1.747-1.755,2.025-3.799,2.769-5.607c14.675-35.642,28.739-71.535,44.122-106.887
		c4.292-9.863,8.127-19.917,13.837-29.096c3.733-6.001,8.257-11.302,14.066-15.37c11.099-7.775,23.132-9.083,35.458-3.771
		c12.359,5.326,19.436,15.03,21.319,28.493c1.501,10.73-1.215,20.779-4.715,30.677c-4.751,13.432-10.946,26.265-16.831,39.217
		c-22.802,50.183-45.614,100.362-68.572,150.474c-9.678,21.125-20.201,41.814-33.977,60.664
		c-10.499,14.367-22.606,27.109-37.802,36.566c-16.227,10.099-33.73,15.915-53.118,15.888c-15.529-0.021-30.405-2.644-44.468-9.199
		c-11.675-5.442-21.58-13.014-27.843-24.683c-10.082-18.786-2.965-40.68,16.326-49.565c9.844-4.534,20.017-4.246,29.984-0.204
		c5.209,2.112,10.21,4.736,15.309,7.122c4.701,2.2,9.543,3.689,14.83,3.747c5.589,0.061,10.613-1.562,14.739-5.124
		c11.512-9.937,20.315-21.798,25.142-36.429c0.971-2.943,0.729-5.257-0.719-7.972c-12.787-23.971-25.46-48.003-38.123-72.04
		C65.675,348.712,49.48,317.52,31.05,287.552c-5.124-8.332-9.307-17.179-11.721-26.756c-2.923-11.598-2.044-22.771,4.022-33.222
		c5.877-10.126,14.796-15.988,26.37-17.587c16.48-2.276,28.506,5.269,38.103,17.782c3.646,4.754,6.366,10.091,9.007,15.454
		c15.144,30.745,30.319,61.476,45.421,92.242C148.303,347.791,154.195,360.195,160.324,372.905z"/>
	<path style="fill:#050505;" d="M370.857,373.906c8.852,24.541,25.542,40.13,50.256,46.618c13.311,3.494,26.348,0.581,39.008-4.1
		c7.325-2.708,14.107-6.554,21.096-9.971c8.068-3.944,16.273-7.384,25.455-7.886c17.654-0.966,32.305,11.703,32.657,29.364
		c0.139,6.969-2.356,13.329-6.073,19.213c-7.551,11.955-18.5,19.831-31.037,25.704c-13.595,6.368-27.912,10.234-42.802,12.257
		c-13.92,1.891-27.912,2.405-41.748,0.602c-25.16-3.28-47.962-12.63-67.668-28.977c-15.602-12.943-27.777-28.504-36.262-46.927
		c-5.434-11.8-9.001-24.133-11.084-36.971c-2.23-13.746-2.4-27.5-0.728-41.253c2.239-18.422,7.621-35.923,16.497-52.282
		c7.751-14.286,17.523-27.029,29.427-38.097c12.624-11.738,27.574-19.37,43.849-24.684c14.623-4.775,29.57-7.597,44.968-7.463
		c26.937,0.235,51.484,8.259,73.959,23.002c27.494,18.035,44.402,43.692,54.089,74.604c2.744,8.757,4.308,17.764,4.602,26.904
		c0.298,9.294-1.504,18.195-7.312,25.82c-6.702,8.799-16.026,12.533-26.716,13.418c-2.484,0.206-4.995,0.117-7.494,0.12
		c-39.153,0.054-78.305,0.068-117.458,0.168c-12.484,0.032-24.968,0.281-37.452,0.446
		C372.414,373.539,371.943,373.7,370.857,373.906z M500.591,325.08c-4.112-25.171-29.754-52.604-65.496-51.874
		c-36.788,0.752-60.06,30.724-62.25,51.874C415.414,325.08,457.982,325.08,500.591,325.08z"/>
	<path style="fill:#EE2C29;" d="M1268.024,0.182c9.184-0.581,18.205,0.147,26.953,3.431c13.717,5.149,21.016,15.141,22.847,29.36
		c1.896,14.726,2.471,29.477,1.314,44.338c-1.15,14.772-1.553,29.6-2.397,44.397c-1.176,20.611-2.474,41.215-3.685,61.825
		c-0.469,7.98-0.723,15.973-1.29,23.946c-0.718,10.108-0.579,20.299-2.915,30.259c-2.515,10.725-8.872,18.149-19.253,21.697
		c-9.411,3.217-18.06,0.891-25.711-5.129c-5.314-4.182-8.943-9.779-12.208-15.633c-20.548-36.843-41.172-73.643-61.663-110.517
		c-7.495-13.488-15.621-26.651-21.652-40.917c-2.904-6.871-5.836-13.712-7.749-20.972c-4.186-15.885,1.116-28.376,13.37-38.446
		c11.251-9.246,24.549-14.512,38.221-18.738c13.646-4.219,27.582-7.44,41.84-8.829C1258.664-0.198,1263.362,0.182,1268.024,0.182z"
		/>
	<path style="fill:#020302;" d="M604.734,302.047c0.001-49.816,0.248-99.633-0.136-149.446
		c-0.13-16.926,12.055-33.963,29.853-38.017c14.507-3.304,30.452,2.97,39.032,15.98c4.785,7.256,7.22,15.33,7.225,23.954
		c0.064,98.798,0.063,197.596,0.02,296.394c-0.008,18.197-10.425,32.248-26.695,37.524c-21.374,6.931-42.716-5.575-48.21-26.559
		c-1.072-4.094-1.088-8.225-1.088-12.382C604.731,400.345,604.733,351.196,604.734,302.047z"/>
	<path style="fill:#EE2C29;" d="M1414.732,498.073c-8.261,0.235-14.658-3.399-20.059-9.357c-6.426-7.088-11.205-15.29-15.723-23.593
		c-15.934-29.287-31.651-58.694-47.408-88.077c-3.627-6.763-6.29-13.837-7.248-21.559c-1.815-14.628,9.981-25.805,21.02-26.805
		c8.449-0.765,16.219,1.639,23.459,5.428c33.804,17.69,67.662,35.288,100.755,54.297c5.194,2.983,10.125,6.372,14.627,10.375
		c9.061,8.059,11.306,17.892,8.097,29.357c-1.822,6.51-5.161,12.237-8.899,17.71c-12.832,18.785-28.516,34.635-48.38,46.049
		C1428.712,495.497,1422.059,497.917,1414.732,498.073z"/>
	<path style="fill:#EE2C29;" d="M1259.702,533.305c-27.532-1.558-52.357-10.49-74.993-25.723
		c-4.452-2.996-8.131-6.867-11.035-11.409c-4.374-6.841-5.317-14.145-2.981-21.932c1.688-5.627,4.47-10.708,7.597-15.607
		c12.259-19.21,25.99-37.39,39.271-55.882c9.504-13.234,19.274-26.276,28.866-39.447c3.156-4.333,6.857-8.121,10.967-11.514
		c14.54-12.005,35.122-5.662,40.032,12.504c2.131,7.883,2.659,15.979,1.921,24.206c-0.609,6.781-0.439,13.629-0.693,20.444
		c-0.643,17.269-1.257,34.539-2.027,51.802c-0.481,10.783-1.083,21.565-1.9,32.328c-0.514,6.777-1.386,13.521-3.381,20.092
		c-3.612,11.897-12.02,17.857-23.848,19.654C1264.879,533.219,1262.189,533.162,1259.702,533.305z"/>
	<path style="fill:#EE2C29;" d="M1351.065,305.037c-19.918,0.068-33.009-19.917-25.008-37.844
		c3.024-6.776,7.755-12.408,12.821-17.68c15.802-16.444,31.804-32.696,47.637-49.111c10.167-10.541,20.153-21.26,31.154-30.957
		c2.369-2.088,4.8-4.119,7.32-6.02c14.414-10.872,27.721-8.089,39.657,2.653c7.702,6.931,14.172,14.996,19.648,23.793
		c8.804,14.142,16.153,28.948,20.007,45.289c1.392,5.9,1.455,11.88,0.383,17.772c-1.147,6.308-4.719,11.231-9.96,14.973
		c-7.708,5.503-16.431,8.55-25.536,10.653c-37.316,8.619-74.643,17.193-111.955,25.832
		C1355.089,304.885,1352.947,304.883,1351.065,305.037z"/>
	<path style="fill:#EE2C29;" d="M1079.805,302.379c-0.934-15.266,1.464-30.118,6.049-44.633c1.962-6.213,4.777-12.028,9.288-16.862
		c5.272-5.648,11.658-8.47,19.519-8.239c7.074,0.208,13.794,1.891,20.451,3.99c22.763,7.176,45.077,15.631,67.511,23.744
		c12.157,4.396,24.278,8.891,36.388,13.416c5.449,2.036,10.685,4.526,15.441,7.942c9.326,6.699,13.057,15.968,11.051,26.999
		c-1.972,10.848-8.758,18.244-19.517,21.091c-12.491,3.306-25.129,6.063-37.723,8.967c-25.516,5.883-51.037,11.747-76.576,17.524
		c-7.609,1.721-15.225,2.715-23.171,1.984c-12.003-1.104-19.489-7.409-23.932-18.148c-2.893-6.992-4.211-14.342-4.709-21.808
		C1079.519,313.045,1079.805,307.702,1079.805,302.379z"/>
</g>
</svg>
