<?xml version="1.0" encoding="iso-8859-1"?>
<!-- Generator: Adobe Illustrator 27.0.0, SVG Export Plug-In . SVG Version: 6.00 Build 0)  -->
<svg version="1.1" id="Layer_1" xmlns="http://www.w3.org/2000/svg" xmlns:xlink="http://www.w3.org/1999/xlink" x="0px" y="0px"
	 viewBox="0 0 1561 463" style="enable-background:new 0 0 1561 463;" xml:space="preserve">
<g>
	<path style="fill:#2B6AB4;" d="M283,0c1.148,7.876,2.23,15.763,3.461,23.627c1.77,11.307,3.658,22.596,5.481,33.894
		c2.272,14.082,4.558,28.162,6.785,42.252c1.813,11.471,3.507,22.962,5.327,34.432c1.819,11.466,3.763,22.913,5.592,34.378
		c2.144,13.434,4.2,26.881,6.338,40.316c2.216,13.924,4.512,27.835,6.721,41.76c2.132,13.435,4.199,26.881,6.295,40.322
		c0.28,1.796,0.569,3.591,0.905,5.71c-37.846,0-75.554,0-113.497,0c-0.891-12.2-1.771-24.239-2.668-36.533
		c-26.825,0-53.409,0-80.433,0c-5.187,12.11-10.452,24.404-15.721,36.706c-38.572,0-76.862,0-115.112,0
		c-0.987-1.403,0.207-2.284,0.687-3.161c17.722-32.34,35.507-64.646,53.25-96.975c10.869-19.805,21.659-39.653,32.527-59.458
		c15.903-28.981,31.878-57.922,47.755-86.917C145.864,33.606,154.902,16.787,164,0C203.667,0,243.333,0,283,0z M206.247,89.534
		c-2.859,1.28-2.616,3.112-2.896,4.349c-2.908,12.833-7.441,25.1-12.602,37.156c-7.25,16.934-15.129,33.578-23.119,50.172
		c-1.116,2.317-2.729,4.507-2.603,7.474c14.591,0,29.015,0,44.01,0C206.486,155.739,202.431,123.059,206.247,89.534z"/>
	<path style="fill:#2E6BB5;" d="M0,367c19.126,0,38.252,0,57.63,0c0,5.331,0,10.269,0,15.889
		c-5.938,0.246-12.029,0.079-18.108,0.109c-6.125,0.03-12.251,0.007-18.588,0.007c0,4.422,0,8.37,0,12.843
		c10.509,0,21.085,0,31.922,0c0,5.573,0,10.626,0,16.065c-10.246,0-20.346,0-30.79,0c0,4.413,0,8.46,0,12.957
		c12.375,0,24.802,0,37.46,0c0.701,5.347,0.195,10.292,0.409,15.925C39.815,440.864,19.907,440.932,0,441C0,416.333,0,391.667,0,367
		z"/>
	<path style="fill:#2E6BB5;" d="M199,463c-1.165-1.748-3.238-1.21-4.845-1.839c-2.928-1.146-5.968-1.961-8.286-4.698
		c2.079-4.496,4.14-8.955,6.204-13.42c9.363,4.58,11.83,4.393,16.015-1.289c-3.958-9.428-7.997-19.029-12.021-28.636
		c-3.966-9.469-7.918-18.944-12.145-29.059c6.88-0.386,13.414-0.081,20.449-0.203c4.585,11.248,9.188,22.538,14.04,34.44
		c4.798-11.813,9.33-22.971,13.899-34.221c6.637,0,13.072,0,19.476,0c0.854,1.949-0.269,3.36-0.858,4.813
		c-7.598,18.731-15.31,37.416-22.829,56.179c-3.891,9.708-10.105,16.257-21.118,16.987C206.436,462.09,206.15,462.5,206,463
		C203.667,463,201.333,463,199,463z"/>
	<path style="fill:#376EB6;" d="M1561,64c-1.492,0.509-0.977,1.944-1.333,2.959c-3.67,10.471-12.869,17.81-25.233,17.087
		c-10.279-0.602-19.289-8.105-21.921-18.7c-2.939-11.831,6.06-26.173,18.242-29.29c13.622-3.485,26.653,6.758,29.202,18.398
		c0.199,0.907-0.21,2.068,1.043,2.545C1561,59.333,1561,61.667,1561,64z M1518.763,59.902c0.016,8.085,3.518,14.323,10.813,17.656
		c6.626,3.027,13.419,2.486,19.16-2.477c8.438-7.296,9.83-18.558,1.4-28.273c-4.117-4.745-9.432-7.333-15.94-6.434
		C1524.293,41.739,1518.4,50.139,1518.763,59.902z"/>
	<path style="fill:#3D71B8;" d="M1561,339c-1.666,0.937-1.395,2.858-2.144,4.267c-3.587,6.744-9.209,10.62-16.769,10.486
		c-7.456-0.131-13.134-3.707-16.565-10.73c-3.312-6.78-1.303-16.627,6.419-22.505c6.395-4.868,15.172-4.61,21.604,0.658
		c3.164,2.591,5.431,5.79,6.405,9.813c0.187,0.771,0.017,1.695,1.05,2.011C1561,335,1561,337,1561,339z M1535.033,346.038
		l-0.073-0.074c-0.795,1.247,0.159,1.843,0.987,2.317c3.653,2.091,7.519,2.465,11.507,1.126c5.448-1.829,8.392-5.995,9.321-11.328
		c0.993-5.697-1.545-10.429-5.835-14.032c-4.128-3.468-8.918-4.19-13.985-2.133c-8.503,3.452-10.817,16.674-4.061,23.712
		C1533.478,346.233,1534.163,346.718,1535.033,346.038z"/>
	<path style="fill:#2B6AB4;" d="M473.998,270.998c-4.923,4.41-9.748,8.935-14.787,13.208
		c-13.094,11.103-27.523,19.884-44.568,23.264c-19.134,3.794-37.506,1.812-53.764-9.919c-13.476-9.724-21.558-23.295-25.836-39.173
		c-3.885-14.422-4.734-29.052-3.295-43.956c2.485-25.738,9.033-50.206,21.168-73.116c11.078-20.914,26.176-38.057,47.053-49.583
		c10.101-5.577,20.998-8.825,32.596-9.984c9.401-0.939,18.624-0.33,27.648,2.013c14.974,3.886,26.378,12.924,35.042,25.618
		c1.097,1.607,1.785,3.578,4.109,5.053c1.885-8.886,3.716-17.519,5.579-26.304c33.004,0,65.747,0,98.829,0
		c-13.43,70.583-26.804,140.872-40.231,211.435c-31.27,0-62.322,0-93.788,0c0.429-5.821,1.92-11.25,2.738-16.776
		c0.579-3.911,2.083-7.715,1.512-11.775c0.219-0.092,0.438-0.184,0.657-0.276c-0.115-0.149-0.231-0.298-0.346-0.447
		C474.209,270.519,474.104,270.759,473.998,270.998z M431.981,200.608c0,1.828-0.147,3.67,0.025,5.481
		c0.828,8.705,6.373,15.051,14.93,17.098c12.062,2.886,22.015-1.05,29.896-10.101c7.867-9.035,9.998-20.05,9.016-31.671
		c-0.717-8.481-7.17-15.967-14.986-17.236c-8.427-1.368-16.589-0.306-23.68,5.045C436.773,177.081,432.043,187.754,431.981,200.608z
		"/>
	<path style="fill:#2B6BB4;" d="M1257.547,301.657c-34.093,0-67.717,0-101.531,0c-0.702-4.08,0.723-7.714,1.414-11.378
		c3.438-18.251,7.037-36.471,10.563-54.705c2.456-12.701,4.923-25.399,7.306-38.113c0.947-5.052,1.76-10.133,2.479-15.223
		c0.473-3.35-0.231-6.673-1.241-9.824c-1.835-5.724-8.404-6.889-12.825-6.059c-8.222,1.544-13.449,6.659-16.737,14.172
		c-2.769,6.326-3.552,13.107-4.865,19.757c-3.595,18.222-7.018,36.478-10.526,54.718c-2.973,15.453-5.97,30.902-9.004,46.597
		c-34.49,0-68.879,0-103.589,0c13.452-70.995,26.841-141.657,40.255-212.449c33.354,0,66.419,0,99.837,0
		c-1.774,9.381-3.486,18.44-5.199,27.499c0.241,0.146,0.482,0.291,0.723,0.437c3.315-3.074,6.586-6.196,9.953-9.212
		c11.142-9.98,23.406-18.111,37.978-22.171c19.167-5.341,38.17-5.207,56.406,3.4c15.819,7.466,24.093,20.752,27.088,37.671
		c2.095,11.835,0.818,23.495-1.429,35.156c-4.611,23.937-9.082,47.9-13.676,71.841c-4.25,22.15-8.584,44.284-12.891,66.423
		C1257.948,300.651,1257.741,301.089,1257.547,301.657z"/>
	<path style="fill:#2B6AB4;" d="M886.812,309.092c-24.154,0.184-45.453-4.23-64.502-16.42
		c-23.39-14.968-37.809-36.117-41.307-63.958c-3.903-31.07,4.875-59.024,22.983-83.949c18.522-25.495,42.662-44.101,72.494-54.9
		c12.234-4.429,24.895-6.767,37.844-8.087c9.686-0.988,19.283-0.73,28.867,0.308c27.382,2.964,50.965,13.687,68.556,35.426
		c10.447,12.91,16.46,27.864,18.443,44.5c2.923,24.522-1.425,47.682-12.651,69.505c-10.497,20.405-26.105,36.301-44.696,49.562
		c-18.028,12.86-37.936,21.209-59.52,25.497C904.053,308.42,894.588,309.51,886.812,309.092z M932.979,187.864
		c0-1.331,0.085-2.668-0.014-3.992c-0.584-7.776-5.896-14.686-12.979-16.626c-6.467-1.77-12.748-1.12-18.932,1.596
		c-14.584,6.404-21.559,24.836-19.69,38.266c1.419,10.194,6.118,14.811,15.284,16.643c6.629,1.325,13.285,0.268,19.19-3.445
		C927.768,212.803,932.182,201.261,932.979,187.864z"/>
	<path style="fill:#2B6BB4;" d="M1514.792,98.93c-12.681,21.484-24.921,42.222-37.362,63.298c-4.365-2.782-8.523-5.431-12.679-8.083
		c-7.459-4.758-15.223-8.899-23.98-10.66c-5.855-1.177-11.581-0.562-16.878,2.504c-1.46,0.845-2.706,1.932-3.798,3.207
		c-4.145,4.841-3.209,10.469,2.515,13.165c5.113,2.408,10.666,3.626,16.219,4.581c13.683,2.353,26.784,6.386,38.843,13.366
		c15.898,9.202,23.506,26.119,20.791,43.989c-4.542,29.892-21.552,50.859-46.571,66.128c-14.469,8.83-30.318,14-47.064,16.724
		c-12.74,2.072-25.531,2.493-38.316,1.669c-27.82-1.792-54.347-8.57-78.997-21.932c-0.574-0.311-1.079-0.749-2.192-1.535
		c11.911-21.588,24.025-43.013,36.246-64.808c6.389,4.704,12.569,8.873,19.035,12.608c8.688,5.019,17.681,9.169,27.772,10.437
		c6.256,0.786,12.241,0.205,17.811-3.093c3.038-1.799,4.903-4.392,5.934-7.68c1.394-4.445-0.036-7.873-4.26-9.812
		c-2.105-0.966-4.346-1.562-6.631-2.084c-10.504-2.397-21.029-4.757-31.004-8.985c-5.995-2.541-11.697-5.588-16.62-9.92
		c-10.254-9.024-14.355-20.601-13.419-33.948c0.592-8.448,2.217-16.751,5.578-24.652c7.775-18.278,20.693-31.962,37.504-42.136
		c15.699-9.501,32.754-15.023,50.942-17.481c15.772-2.131,31.444-1.843,47.207-0.026c14.439,1.665,28.372,5.169,41.937,10.252
		C1507.043,95.405,1510.607,97.123,1514.792,98.93z"/>
	<path style="fill:#2B6BB4;" d="M620.565,89.143c33.078,0,65.992,0,99.552,0c-1.104,9.528-3.432,18.763-5.085,28.446
		c1.583-0.423,2.227-1.554,3.037-2.398c7.873-8.209,16.514-15.454,26.4-21.146c15.222-8.765,31.621-12.704,49.157-11.947
		c0.302,0.013,0.596,0.231,1.445,0.58c-6.471,33.649-12.965,67.415-19.435,101.058c-1.959,0.841-3.058-0.544-4.294-1.192
		c-8.828-4.628-17.927-7.408-28.168-6.735c-18.487,1.216-33.688,12.1-40.179,29.471c-2.635,7.052-3.541,14.477-4.96,21.787
		c-3.854,19.855-7.575,39.737-11.368,59.604c-0.87,4.559-1.817,9.102-2.781,13.915c-34.311,0-68.523,0-103.534,0
		C593.79,229.934,607.156,159.652,620.565,89.143z"/>
	<path style="fill:#2F6CB5;" d="M315.661,367.086c14.574,0,28.887-0.138,43.195,0.09c3.926,0.062,7.804,1.181,11.563,2.677
		c8.67,3.452,13.336,13.205,10.493,22.604c-1.383,4.572-4.802,7.44-8.67,10.084c2.551,1.138,4.997,2.044,7.169,3.566
		c9.746,6.828,9.369,24.091-2.232,30.319c-5.423,2.911-11.288,4.191-17.22,4.322c-14.639,0.325-29.29,0.106-43.889,0.106
		C315.051,437.191,314.705,376.45,315.661,367.086z M337.227,425.855c6.838,0,13.458,0.068,20.075-0.053
		c1.447-0.026,2.962-0.546,4.305-1.15c2.606-1.173,4.209-3.211,4.257-6.187c0.049-3.017-1.543-5.083-4.208-6.178
		c-1.979-0.813-4.058-1.38-6.295-1.314c-3.829,0.113-7.668-0.068-11.495,0.068c-2.246,0.08-4.607-0.641-6.64,0.47
		C337.227,416.357,337.227,420.969,337.227,425.855z M337.202,396c5.212,0,9.869-0.043,14.524,0.02
		c2.063,0.028,3.987-0.509,5.747-1.408c3.96-2.022,4.937-7.444,2.024-10.626c-1.666-1.82-3.906-2.61-6.228-2.808
		c-5.441-0.463-10.806,0.282-16.067,1.219C337.202,386.994,337.202,391.267,337.202,396z"/>
	<path style="fill:#2F6CB5;" d="M1325.462,120.445c-9.81,0-19.059,0-29.094,0c6.587-28.59,13.075-56.749,19.568-84.934
		c17.537,0,34.594,0,52.33,0C1353.885,64.048,1339.732,92.131,1325.462,120.445z"/>
	<path style="fill:#2F6CB5;" d="M1216.196,387.031c0-8.713,0-16.837,0-25.178c6.537,0,12.747,0,19.323,0c0,26.427,0,52.329,0,78.947
		c-5.82,0.176-11.87,0.088-17.72,0.027c-1.393-1.452-0.326-3.139-1.107-4.428c-12.682,8.619-28.257,7.035-37.688-4.044
		c-5.447-6.398-7.285-14.168-6.79-22.342c0.553-9.145,3.783-17.357,11.591-22.739
		C1194.086,380.188,1204.806,380.027,1216.196,387.031z M1216.018,413.554c0.129-6.503-1.477-10.848-6.358-13.308
		c-4.548-2.292-9.043-1.85-13.161,1.116c-4.362,3.142-5.818,10.229-3.524,16.366c2.778,7.434,10.576,10.356,17.467,6.492
		C1215.144,421.582,1215.805,417.005,1216.018,413.554z"/>
	<path style="fill:#2F6CB5;" d="M1316.333,362.624c6.455,0,12.68,0,19.29,0c0,8.422,0,16.517,0,24.875
		c1.812,0.102,2.717-0.999,3.707-1.585c12.465-7.371,35.766-1.591,39.552,20.264c1.334,7.704,0.429,15.203-3.281,22.201
		c-7.254,13.682-28.637,18.203-40.176,7.996c-1.202,1.128-0.043,2.864-1.219,4.253c-5.696,0-11.614,0-17.873,0
		C1316.333,414.759,1316.333,388.887,1316.333,362.624z M1334.851,412.158c0.049,0.993,0.015,1.998,0.161,2.977
		c1.269,8.513,10.275,13.342,17.51,9.409c7.538-4.097,8.742-17.2,2.115-22.796c-4.16-3.513-8.846-3.747-13.469-1.553
		C1336.298,402.507,1334.611,406.923,1334.851,412.158z"/>
	<path style="fill:#2F6CB5;" d="M969.41,440.497c-1.229,0.19-1.862,0.371-2.497,0.374c-6.143,0.021-12.286,0.013-18.583,0.013
		c-2.279-4.73-4.485-9.311-6.684-13.876c-10.23,0-20.189,0-30.389,0c-2.765,4.08-3.624,9.111-6.236,13.603
		c-6.843,0-13.762,0-21.305,0c10.948-24.617,21.764-48.935,32.643-73.398c6.876,0,13.655,0,20.799,0
		C947.843,391.492,958.564,415.853,969.41,440.497z M935.163,410.838c-3.115-7.727-5.98-14.833-8.845-21.939
		c-0.323-0.004-0.647-0.008-0.97-0.012c-2.876,7.181-5.753,14.363-8.792,21.951C923.074,410.838,928.83,410.838,935.163,410.838z"/>
	<path style="fill:#2E6BB5;" d="M1055.793,412.202c-0.662-16.127,12.512-28.415,28.068-30.006c8.27-0.845,16.212,0.47,23.432,4.887
		c12.272,7.507,16.24,21.922,12.26,34.35c-3.578,11.171-11.73,17.272-22.987,19.593c-7.836,1.616-15.463,1.059-22.907-1.984
		C1063.845,435.03,1055.241,425.123,1055.793,412.202z M1087.288,425.947c8.773-0.496,11.734-5.188,12.254-13.861
		c0.449-7.491-4.877-13.029-11.926-13.17c-7.023-0.141-12.44,5.197-12.457,12.672
		C1075.143,418.707,1079.378,425.718,1087.288,425.947z"/>
	<path style="fill:#316CB5;" d="M412.926,417.523c4.536,10.124,11.729,11.338,26.892,5.181c3.542,3.109,6.698,6.678,9.636,10.642
		c-2.28,3.914-6,5.909-9.877,7.191c-11.349,3.754-22.523,3.214-33.257-2.415c-17.52-9.189-19.825-36.081-2.829-48.801
		c12.361-9.251,31.064-8.342,42.005,1.527c5.751,5.187,10.625,16.227,8.692,26.676C440.722,417.523,427.151,417.523,412.926,417.523
		z M435.169,406.939c-0.972-6.195-5.441-9.929-11.453-9.936c-5.522-0.006-9.315,3.576-10.358,9.936
		C420.499,406.939,427.611,406.939,435.169,406.939z"/>
	<path style="fill:#316CB5;" d="M1478.798,417.672c-13.372,0-26.94,0-40.651,0c2.861,9.64,11.996,11.258,26.325,4.991
		c3.89,2.936,6.676,7.024,9.961,10.685c-2.18,3.301-5.164,5.251-8.38,6.492c-12.088,4.665-24.126,4.316-35.504-2.038
		c-17.6-9.828-18.771-37.048-1.289-49.209c11.089-7.714,27.393-7.589,38.451,0.273c6.952,4.943,10.615,11.81,11.233,20.165
		C1479.141,411.686,1480.904,414.461,1478.798,417.672z M1460.145,406.884c-1.651-6.7-6.048-10.091-12.228-9.881
		c-5.601,0.19-8.882,3.426-9.818,9.881C1445.35,406.884,1452.568,406.884,1460.145,406.884z"/>
	<path style="fill:#2F6CB5;" d="M1281.953,407.116c-0.693-5.646-3.808-8.574-9.279-9.068c-4.729-0.427-9.276,0.427-13.641,2.253
		c-1.365,0.571-2.683,1.256-4.565,2.145c-2.186-4.564-4.298-8.974-6.351-13.26c0.478-1.709,1.864-2.09,3.016-2.619
		c12.031-5.527,24.331-6.343,36.746-1.531c9.529,3.693,14.456,11.177,14.898,21.102c0.496,11.142,0.14,22.323,0.132,33.487
		c0,0.282-0.268,0.563-0.518,1.053c-5.819,0-11.745,0-17.636,0c-1.275-1.714-0.114-3.71-0.992-5.437
		c-8.613,8.125-18.365,8.397-28.547,3.82c-6.509-2.926-9.766-9.255-9.165-16.778c0.544-6.802,4.672-10.866,10.76-13.013
		c4.395-1.55,9.013-2.235,13.717-2.165C1274.321,407.161,1278.116,407.116,1281.953,407.116z M1282.381,417.593
		c-4.479-0.606-8.559-0.607-12.602,0.428c-2.274,0.583-3.794,1.877-3.957,4.44c-0.178,2.793,0.617,4.462,3.191,5.532
		c3.184,1.324,6.518,1.733,9.453-0.469C1281.533,425.223,1283.278,422.162,1282.381,417.593z"/>
	<path style="fill:#2F6CB5;" d="M725.113,384.104c6.786,0,13.031,0,19.183,0c0.993,1.594,0.558,3.127,0.568,4.576
		c0.051,7.326,0.015,14.653,0.029,21.979c0.003,1.664-0.014,3.337,0.146,4.99c0.498,5.169,3.32,8.559,7.58,9.239
		c4.914,0.784,9.582-2.031,11.52-6.765c0.849-2.074,0.981-4.18,0.978-6.35c-0.011-7.493-0.024-14.986,0.012-22.479
		c0.008-1.627-0.29-3.297,0.389-5.146c6.275,0,12.534,0,19.143,0c0,18.625,0,37.351,0,56.409c-5.941,0-11.987,0-18.013,0
		c-1.08-1.583-0.101-3.372-0.91-5.248c-3.921,2.644-7.794,5.184-12.559,6.151c-12.63,2.565-24.734-5.325-27.203-17.965
		c-0.609-3.116-0.911-6.223-0.888-9.402C725.156,404.284,725.113,394.476,725.113,384.104z"/>
	<path style="fill:#2F6CB5;" d="M529.113,384c6.825,0,12.963,0,18.989,0c1.231,1.227,0.756,2.636,0.764,3.909
		c0.045,7.659,0.011,15.319,0.031,22.979c0.005,1.83-0.039,3.68,0.204,5.485c0.651,4.829,3.593,7.989,7.744,8.542
		c4.43,0.59,9.247-2.024,11.053-6.062c1.037-2.318,1.254-4.775,1.238-7.306c-0.059-8.972-0.023-17.944-0.023-27.638
		c6.604-0.065,12.974-0.024,19.622-0.021c0,19.055,0,37.774,0,56.747c-6.059,0-11.981,0-17.98,0
		c-1.404-1.511-0.012-3.586-1.14-5.396c-3.645,2.786-7.497,5.15-12.177,6.133c-12.919,2.714-25.011-5.173-27.499-18.102
		c-0.601-3.123-0.861-6.233-0.845-9.405C529.145,404.074,529.113,394.282,529.113,384z"/>
	<path style="fill:#2F6CB5;" d="M468.498,402.32c-2.295-4.829-4.351-9.155-6.462-13.596c3.121-2.613,6.672-3.868,10.363-4.858
		c8.848-2.372,17.685-2.721,26.512,0.075c10.871,3.443,16.87,11.158,17.053,22.487c0.182,11.294,0.04,22.594,0.04,34.174
		c-6.152,0-12.057,0-17.815,0c-1.607-1.584-0.329-3.708-1.358-5.293c-9.517,8.003-21.907,8.744-31.175,2.126
		c-8.33-5.948-10.006-22.121,2.656-27.479c4.822-2.041,9.901-2.723,15.073-2.824c4.135-0.08,8.272-0.016,12.402-0.016
		c-0.057-4.503-1.513-6.722-5.367-8.129c-5.266-1.923-10.473-1.097-15.583,0.71C472.821,400.41,470.878,401.328,468.498,402.32z
		 M495.98,417.25c-3.18,0-6.147-0.143-9.091,0.051c-1.937,0.128-3.911,0.484-5.64,1.569c-2.86,1.796-3.302,5.713-0.889,8.039
		c2.352,2.266,8.526,2.77,11.695,0.955C495.464,425.912,497.021,422.088,495.98,417.25z"/>
	<path style="fill:#2F6CB5;" d="M103.128,407.116c-0.727-5.727-3.896-8.616-9.405-9.076c-4.547-0.38-8.942,0.358-13.157,2.092
		c-1.517,0.624-2.985,1.368-4.943,2.273c-2.211-4.612-4.332-9.038-6.512-13.587c2.333-2.131,5.026-3.303,7.861-4.221
		c9.737-3.152,19.554-3.699,29.381-0.569c10.273,3.272,16.354,11.077,16.598,21.818c0.26,11.47,0.059,22.95,0.059,34.733
		c-6.103,0-12.012,0-17.833,0c-1.651-1.497-0.243-3.664-1.361-5.207c-8.82,7.348-18.903,8.68-28.071,3.562
		c-6.327-3.532-8.94-9.271-8.567-16.263c0.357-6.698,4.26-11.024,10.421-13.266c4.397-1.6,9.008-2.259,13.694-2.285
		C95.102,407.099,98.912,407.116,103.128,407.116z M103.031,417.45c-4.378-0.323-8.502-0.62-12.482,0.762
		c-1.91,0.663-3.504,1.806-3.654,4.199c-0.135,2.151,0.315,4.066,2.279,5.11c3.385,1.799,6.919,2.209,10.352,0.091
		C102.985,425.478,104.079,422.38,103.031,417.45z"/>
	<path style="fill:#2F6CB5;" d="M151.559,401.87c0.97,2.454,3.322,2.777,5.612,3.174c3.922,0.681,7.87,1.236,11.765,2.044
		c2.095,0.435,4.173,1.129,6.139,1.983c6.041,2.625,9.397,7.3,9.754,13.882c0.345,6.36-2.381,11.509-7.7,14.729
		c-7.139,4.322-15.004,5.943-23.419,4.696c-5.255-0.778-10.498-1.453-15.554-3.206c-2.195-0.761-4.271-1.642-6.362-3
		c1.585-4.728,3.131-9.213,5.591-13.59c7.793,3.57,15.538,6.257,24.1,4.62c1.92-0.367,3.497-0.971,4.498-2.907
		c-0.394-2.314-2.147-3.011-4.227-3.348c-3.925-0.635-7.834-1.377-11.772-1.91c-2.503-0.339-4.84-1.162-7.176-2.003
		c-5.404-1.946-8.951-5.518-9.921-11.392c-1.066-6.461,0.814-11.776,5.954-15.86c4.304-3.42,9.442-5.009,14.729-5.538
		c9.166-0.917,18.27-0.322,26.969,3.174c0.754,0.303,1.45,0.754,2.36,1.235c-1.832,4.556-3.61,8.975-5.522,13.729
		c-7.495-3.142-14.815-5.894-22.826-3.651C153.058,399.15,151.768,399.881,151.559,401.87z"/>
	<path style="fill:#316CB5;" d="M1011.033,386.02c2.468,0,4.936,0,7.7,0c0.525-3.276,0.493-6.25,1.247-9.101
		c1.531-5.785,4.697-10.307,10.188-12.798c7.72-3.502,15.698-3.613,23.748-1.108c0.803,0.25,1.535,0.625,2.184,1.746
		c-0.715,4.281-2.536,8.51-4.153,13.124c-3.345-0.696-6.815-2.428-9.929-0.078c-2.381,1.797-2.344,4.592-1.926,7.484
		c1.954,1.137,4.143,0.446,6.222,0.561c1.973,0.108,3.956,0.023,6.255,0.023c0,5.002,0,9.725,0,14.979c-4.114,0-8.182,0-12.557,0
		c0,13.442,0,26.365,0,39.434c-3.667,1.13-7.146,0.467-10.56,0.583c-3.283,0.112-6.573,0.024-10.181,0.024
		c0-13.381,0-26.302,0-39.313c-2.792-1.216-5.477-0.404-8.037-0.743C1011.167,395.896,1011.1,390.958,1011.033,386.02z"/>
	<path style="fill:#316CB5;" d="M1009.659,400.741c-4.112,0-8.225,0-12.676,0c0,13.576,0,26.511,0,39.796c-6.582,0-12.83,0-19.726,0
		c-0.048-4.039-0.119-8.292-0.142-12.546c-0.025-4.498-0.005-8.996-0.005-13.494c0-4.311,0-8.622,0-12.894
		c-2.529-1.437-5.132-0.16-7.858-1.083c-0.804-4.547-0.258-9.281-0.288-14.022c2.487-1.309,5.084-0.08,7.785-1
		c0.78-2.486,0.423-5.339,1.106-8.049c1.871-7.427,6.239-12.254,13.522-14.591c6.194-1.987,12.429-1.879,18.668-0.507
		c1.364,0.3,2.983,0.614,4.058,2.386c-0.624,4.341-2.714,8.491-4.019,13.181c-3.504-0.728-6.981-2.482-10.092-0.092
		c-2.364,1.816-2.325,4.611-1.877,7.567c3.827,1.152,7.858-0.035,11.734,0.709C1009.785,390.982,1009.722,395.861,1009.659,400.741z
		"/>
	<path style="fill:#2F6CB5;" d="M685.039,401.548c-1.706-0.987-3.057-0.538-4.342-0.651c-1.124-0.099-2.256-0.121-3.588-0.188
		c0-4.905,0-9.506,0-14.258c2.236-1.306,4.838-0.047,7.463-0.891c1.014-2.643,0.505-5.681,1.229-8.564
		c2.245-8.939,9.26-13.672,17.273-15.078c5.716-1.003,11.214-0.595,16.691,1.112c0.812,0.253,1.543,0.59,2.238,1.585
		c-0.033,2.291-1.295,4.497-2.046,6.81c-0.705,2.17-1.004,4.538-2.598,6.452c-3.012-1.077-6.155-2.038-9.119-0.35
		c-2.939,1.674-1.824,5.524-4.037,8.25c4.592,0,8.807,0,13.35,0c0,5.072,0,9.799,0,15.062c-4.092,0-8.162,0-12.551,0
		c0,13.457,0,26.39,0,39.685c-6.713,0-13.088,0-19.962,0C685.039,427.443,685.039,414.379,685.039,401.548z"/>
	<path style="fill:#316CB5;" d="M635.665,425.119c1.826,4.534,3.601,8.943,5.504,13.668c-5.727,3.196-11.562,4.695-17.821,3.863
		c-2.757-0.367-5.541-0.86-8.173-2.037c-7.127-3.187-10.655-8.843-11.117-16.376c-0.347-5.643-0.124-11.319-0.202-16.98
		c-0.023-1.635,0.286-3.308-0.341-5.028c-2.324-1.152-4.937,0.059-7.896-1.066c-0.708-4.4-0.332-9.095-0.151-13.731
		c2.621-1.195,5.226,0.017,7.874-1.021c1.3-4.496-0.085-9.356,0.843-14.272c6.351,0,12.609,0,19.114,0
		c1.109,4.662-0.161,9.513,0.782,14.587c4.009,0,7.952,0,12.267,0c0,4.941,0,9.499,0,14.311c-3.806,1.722-8.092-0.144-12.523,1.216
		c0,6.505-0.187,13.113,0.076,19.703c0.139,3.499,3.277,5.426,6.805,4.667C632.289,426.284,633.82,425.689,635.665,425.119z"/>
	<path style="fill:#316CB5;" d="M817.625,362.558c0,26.063,0,51.662,0,77.346c-3.133,1.441-6.321,0.622-9.406,0.754
		c-3.141,0.135-6.292,0.03-9.371,0.03c-1.135-3.936-1.585-63.11-0.63-78.13C804.548,362.558,810.911,362.558,817.625,362.558z"/>
	<path style="fill:#2B6BB4;" d="M1407.964,439.895c-6.429,0-12.503,0-18.816,0c0-25.797,0-51.367,0-77.311
		c6.171,0,12.363,0,18.816,0C1407.964,388.278,1407.964,413.844,1407.964,439.895z"/>
	<path style="fill:#316CB5;" d="M1148.349,440.782c-6.228,0-12.359,0-18.46,0c-0.997-3.7-1.349-45.894-0.468-56.549
		c5.991,0,12.026,0,18.152,0c0.966,1.644-0.016,3.586,0.789,5.461c5.534-4.258,11.573-7.04,19.048-6.634c0,5.895,0,11.612,0,17.308
		c-1.695,0.93-3.383,0.471-4.998,0.503c-8.973,0.178-13.326,4.541-13.393,13.644c-0.057,7.653-0.002,15.308-0.024,22.961
		C1148.993,438.444,1149.234,439.466,1148.349,440.782z"/>
	<path style="fill:#2B6BB4;" d="M667.829,440.621c-6.219,0-12.298,0-18.692,0c0-18.829,0-37.535,0-56.493c6.225,0,12.305,0,18.692,0
		C667.829,402.933,667.829,421.648,667.829,440.621z"/>
	<path style="fill:#2F6CB5;" d="M1485.978,429.738c-0.017-6.996,5.404-12.505,12.169-12.367c6.708,0.137,11.938,5.498,11.876,12.174
		c-0.062,6.759-5.797,12.605-12.392,12.302C1490.02,441.498,1485.818,436.678,1485.978,429.738z"/>
	<path style="fill:#2F6CB5;" d="M851.092,429.675c-0.051,6.626-5.971,12.418-12.477,12.207c-6.593-0.214-11.702-5.66-11.62-12.387
		c0.082-6.786,5.17-11.973,11.888-12.12C845.656,417.226,851.146,422.758,851.092,429.675z"/>
	<path style="fill:#2F6CB5;" d="M275.127,429.461c0.749,5.902-5.325,12.436-12.175,12.412c-6.492-0.022-11.867-5.538-11.925-12.168
		c-0.06-6.812,5.367-12.299,12.254-12.39C269.695,417.232,275.115,422.788,275.127,429.461z"/>
	<path style="fill:#2F6CB5;" d="M658.842,356.886c7.752-0.018,12.89,4.977,12.123,11.79c-0.055,0.493-0.102,0.993-0.23,1.469
		c-1.506,5.582-7.472,8.951-13.773,7.792c-6.275-1.154-10.374-5.919-10.024-11.653C647.285,360.596,651.963,356.902,658.842,356.886
		z"/>
	<path style="fill:#C0C9E7;" d="M1009.659,400.741c0.063-4.88,0.126-9.759,0.188-14.639c0.395-0.027,0.79-0.055,1.185-0.083
		c0.067,4.938,0.135,9.877,0.202,14.815C1010.71,400.804,1010.184,400.772,1009.659,400.741z"/>
	<path style="fill:#EBEDF7;" d="M1282.381,417.593c0.897,4.569-0.848,7.63-3.915,9.931c-2.936,2.202-6.269,1.793-9.453,0.469
		c-2.574-1.07-3.369-2.739-3.191-5.532c0.163-2.563,1.683-3.858,3.957-4.44C1273.822,416.986,1277.902,416.987,1282.381,417.593z"/>
	<path style="fill:#EBEDF7;" d="M495.98,417.25c1.04,4.838-0.517,8.661-3.924,10.613c-3.169,1.815-9.343,1.311-11.695-0.955
		c-2.413-2.325-1.971-6.243,0.889-8.039c1.728-1.085,3.702-1.441,5.64-1.569C489.834,417.107,492.801,417.25,495.98,417.25z"/>
	<path style="fill:#EBEDF7;" d="M103.031,417.45c1.047,4.93-0.046,8.028-3.504,10.161c-3.434,2.118-6.967,1.709-10.352-0.091
		c-1.964-1.044-2.414-2.959-2.279-5.11c0.15-2.393,1.744-3.536,3.654-4.199C94.53,416.83,98.654,417.127,103.031,417.45z"/>
	<path style="fill:#376EB6;" d="M1538.68,63.366c-1.953-0.573-3.563-0.783-5.419-0.335c-1.326,3.221,0.191,6.833-0.942,10.169
		c-1.547,1.108-3.15,0.701-5.034,0.432c0-8.773,0-17.511,0-26.78c5.04-1.26,10.116-1.338,15.359-0.031
		c5.078,1.266,6.108,6.987,3.225,10.678c-0.508,0.651-1.138,1.207-1.916,2.019c1.895,1.64,2.661,3.887,3.412,6.227
		c0.714,2.223,0.395,4.582,1.798,6.815c-2.803,0.518-5.049,0.361-7.147,0.16C1540.15,69.661,1540.608,66.202,1538.68,63.366z
		 M1532.775,58.377c4.767,0.801,7.695-0.128,8.118-2.496c0.471-2.642-2.612-4.61-7.317-4.625c-0.261-0.001-0.524,0.343-1.006,0.679
		C1532.087,54.007,1531.913,56.22,1532.775,58.377z"/>
	<path style="fill:#3D71B8;" d="M1535.033,346.038c0-6.626,0-13.251,0-19.925c3.747-1.911,7.439-1.52,10.932-0.88
		c3.979,0.729,6.407,3.619,3.809,8.07c-0.33,0.565-0.728,1.09-1.241,1.85c1.793,2.759,2.56,5.932,3.231,9.378
		c-1.602,1.042-3.357,0.499-5.316,0.465c-0.624-2.078-1.233-4.103-1.842-6.13c-1.161-1.27-2.599-1.248-4.403-0.825
		c-0.412,2.43-0.843,4.972-1.259,7.423c-1.337,0.964-2.706,0.327-3.984,0.501L1535.033,346.038z M1539.558,334.699
		c2.806,0.46,5.119,0.314,6.264-2.776c-1.344-2.923-3.608-3.216-6.625-2.429C1539.209,331.206,1538.77,332.771,1539.558,334.699z"/>
	<path style="fill:#E2E6F4;" d="M1532.775,58.377c-0.863-2.157-0.688-4.37-0.205-6.442c0.482-0.337,0.744-0.68,1.006-0.679
		c4.705,0.015,7.788,1.983,7.317,4.625C1540.471,58.249,1537.542,59.179,1532.775,58.377z"/>
	<path style="fill:#E2E6F4;" d="M1539.558,334.699c-0.788-1.928-0.35-3.493-0.361-5.205c3.017-0.787,5.281-0.493,6.625,2.429
		C1544.678,335.013,1542.364,335.16,1539.558,334.699z"/>
</g>
</svg>
