<?xml version="1.0" encoding="iso-8859-1"?>
<!-- Generator: Adobe Illustrator 27.0.0, SVG Export Plug-In . SVG Version: 6.00 Build 0)  -->
<svg version="1.1" id="Layer_1" xmlns="http://www.w3.org/2000/svg" xmlns:xlink="http://www.w3.org/1999/xlink" x="0px" y="0px"
	 viewBox="0 0 508.587 111.718" style="enable-background:new 0 0 508.587 111.718;" xml:space="preserve">
<g>
	<path style="fill:#F4EA66;" d="M68.21,96.513c-3.642,1.925-6.238,5.198-9.83,7.282c-8.953,5.196-18.288,8.711-28.818,7.771
		c-6.115-0.546-11.594-2.567-16.513-6.589C5.774,99.028,2.518,91.166,0.879,82.377c-2.344-12.565,0.263-24.53,4.732-36.236
		C9.69,35.456,16.075,26.246,24.014,18.12C29.94,12.053,36.861,7.17,44.589,3.692c8.584-3.863,17.777-4.744,26.846-2.411
		c6.31,1.623,11.556,5.57,15.424,11.013c0.784,1.103,1.517,2.244,2.273,3.367c0.05,0.15,0.032,0.291-0.056,0.423
		c-4.708,3.866-8.368,8.647-11.931,13.522c-3.606,4.935-5.947,10.515-8.556,15.988c-3.232,6.781-4.981,13.916-5.511,21.279
		c-0.407,5.656-0.595,11.396,0.629,17.05c0.917,4.236,1.956,8.401,4.563,11.986C68.26,96.112,68.24,96.313,68.21,96.513z
		 M49.099,11.536c-1.619,0-3.239-0.013-4.858,0.01c-0.364,0.005-0.738,0.103-1.089,0.215c-9.404,3.021-16.803,8.891-22.623,16.631
		c-5.649,7.511-8.83,16.076-10.238,25.452c-1.087,7.24,0.819,13.492,4.732,19.23c3.917,5.745,9.979,7.777,16.57,6.939
		c9.882-1.256,17.432-6.906,23.967-14.122c5.869-6.481,9.458-14.106,11.697-22.431c1.831-6.811,2.045-13.595-0.672-20.285
		C63.586,15.794,57.678,10.79,49.099,11.536z"/>
	<path style="fill:#D8343C;" d="M89.076,16.084c0.087-0.132,0.106-0.273,0.056-0.423c5.276-4.355,10.74-8.413,16.996-11.321
		c9.001-4.184,18.443-5.507,27.973-2.951c6.167,1.654,11.447,5.483,15.208,10.82c5.064,7.185,7.785,15.302,7.943,24.057
		c0.279,15.412-4.236,29.472-12.388,42.55c-4.588,7.36-10.082,13.849-16.649,19.417c-5.306,4.499-11.128,8.142-17.818,10.521
		c-4.518,1.606-9.038,2.746-13.753,2.858c-11.641,0.276-21.125-3.816-27.344-14.109c-0.243-0.402-0.721-0.663-1.089-0.99
		c0.03-0.2,0.05-0.401,0.06-0.603c2.698-1.863,4.437-4.627,6.634-6.962c4.105-4.364,7.363-9.286,10.084-14.572
		c1.468-2.851,2.604-5.87,4.057-8.729c3.477-6.835,4.644-14.257,5.298-21.721c0.462-5.281,0.451-10.659-0.696-15.908
		C92.732,23.825,91.804,19.602,89.076,16.084z M88.383,77.792c-0.284,5.192,1.881,10.7,4.514,15.102
		c2.482,4.15,6.272,6.422,11.005,7.494c3.541,0.802,6.921,0.399,10.294-0.466c9.893-2.538,16.944-9.061,22.901-16.861
		c4.96-6.494,7.782-13.994,9.556-21.951c1.591-7.135,0.508-13.785-2.89-20.148c-3.551-6.65-9.437-9.255-16.649-9.064
		c-7.086,0.187-13.154,3.231-18.619,7.532c-5.027,3.957-9.28,8.659-12.46,14.194C91.736,61.106,89.118,69.171,88.383,77.792z"/>
	<path style="fill:#7C7D7F;" d="M343.295,47.482c7.649-3.185,15.22-6.332,23.209-0.422c2.259-0.729,4.488-1.447,6.717-2.167
		c4.909-1.586,9.707-1.922,14.306,1.033c3.348,2.151,5.304,5.168,5.726,9.076c0.4,3.7,0.611,7.415,0.55,11.15
		c-0.09,5.474,0.002,10.95-0.043,16.425c-0.01,1.205,0.372,2.487-0.481,3.723c-1.236,0.598-2.527,0.525-3.742,0.041
		c-0.933-0.922-0.586-1.976-0.59-2.925c-0.028-7.964-0.045-15.928,0.002-23.892c0.012-2.028-0.169-4.019-1.099-5.8
		c-1.186-2.27-2.9-3.99-5.703-4.179c-4.136-0.28-8.21-0.248-12.119,2.097c1.479,11.4,0.311,22.909,0.797,34.282
		c-2.369,0.886-2.372,0.839-4.578,0.284c-0.78-0.827-0.453-1.875-0.456-2.831c-0.027-7.591-0.01-15.182-0.02-22.772
		c-0.002-1.368,0.025-2.746-0.123-4.101c-0.484-4.421-2.835-6.657-7.247-7.005c-4.599-0.363-7.207,0.054-10.712,1.795
		c0,11.548,0,23.221,0,34.834c-1.504,0.834-2.826,0.561-4.396,0.357C343.295,73.653,343.295,60.897,343.295,47.482z"/>
	<path style="fill:#7C7D7F;" d="M334.08,86.269c-1.572,0.654-2.775,0.302-3.856,0.346c-0.909-1.035-0.572-2.077-0.576-3.022
		c-0.032-8.33-0.025-16.661-0.016-24.992c0.003-2.555-0.432-4.923-2.37-6.824c-1.292-1.267-2.714-2.08-4.574-2.238
		c-4.294-0.366-8.416,0.052-12.342,2.177c2.101,11.46,0.665,22.94,1.119,34.285c-2.299,0.616-2.299,0.616-4.29,0.3
		c-0.914-0.771-0.566-1.836-0.569-2.786c-0.025-7.957-0.158-15.918,0.024-23.872c0.181-7.9-3.304-10.543-10.693-10.215
		c-2.484,0.11-4.968,0.229-7.539,1.717c0,11.465,0,23.101,0,34.436c-1.463,1.525-2.793,1.042-4.299,0.973
		c0-12.954,0-25.712,0-38.501c5.681-5.03,14.667-5.513,23.435-1.132c2.096-0.664,4.338-1.351,6.564-2.084
		c4.002-1.319,8.087-1.768,12.025-0.112c5.039,2.119,7.78,6.218,7.896,11.585C334.234,66.246,334.08,76.189,334.08,86.269z"/>
	<path style="fill:#7C7D80;" d="M173.347,86.129c-0.992,0.677-1.759,0.559-2.496,0.528c-0.474-0.02-0.943-0.177-1.9-0.37
		c5.452-19.008,12.553-37.28,18.479-55.922c1.707,0,3.059,0,4.896,0c5.811,18.542,12.901,36.814,18.386,55.742
		c-1.512,0.844-2.797,0.625-4.345,0.189c-1.958-5.723-3.945-11.53-6.001-17.537c-5.383,0-10.582,0-15.792,0
		c-0.567-2.121,0.232-3.608,1.216-5.223c4.025-0.593,8.132,0.03,12.718-0.406c-2.774-8.782-5.496-17.397-8.497-26.897
		c-2.627,5.968-3.744,11.57-5.609,16.902c-1.915,5.478-3.565,11.047-5.428,16.544C177.116,75.173,175.591,80.782,173.347,86.129z"/>
	<path style="fill:#7C7D80;" d="M508.121,68.95c-8.429,0-16.951,0-25.613,0c0.033,2.373,0.401,4.32,1.029,6.149
		c1.442,4.203,4.594,6.266,8.979,6.626c4.291,0.352,8.402-0.379,12.404-1.88c0.338-0.127,0.692-0.212,1.126-0.344
		c0.596,1.485,0.253,2.958,0.281,4.415c-1.558,1.601-3.496,2.072-5.612,2.528c-3.481,0.751-6.965,0.746-10.398,0.379
		c-5.85-0.626-9.144-4.677-11.139-9.714c-1.996-5.04-2.093-10.42-1.609-15.763c0.211-2.328,0.563-4.701,1.282-6.914
		c1.712-5.271,5.172-8.833,10.732-10.251c5.681-1.449,10.19,0.695,14.288,4.292c0.449,0.394,0.732,0.991,1.048,1.519
		C507.328,54.024,509.59,62.256,508.121,68.95z M503.98,64.284c0.679-5.596-1.316-10.084-5.259-13.614
		c-4.073-3.646-11.648-2.111-14.104,2.746c-1.681,3.324-2.488,6.907-2.04,10.867C489.751,64.284,496.771,64.284,503.98,64.284z"/>
	<path style="fill:#7C7D80;" d="M245.613,80.084c1.686,1.073,1.647,2.771,2.196,4.162c-1.498,1.581-3.358,1.901-5.171,2.284
		c-4.072,0.861-8.242,0.973-12.24,0.07c-6.853-1.548-11.794-5.914-14.464-12.281c-4.543-10.833-4.374-21.802,0.742-32.439
		c2.818-5.859,7.559-10.022,13.965-11.39c5.457-1.166,11.092-1.152,16.317,1.715c0.915,1.929-0.412,3.231-1.332,5.184
		c-3.086-1.863-6.373-1.974-9.714-2.155c-7.025-0.382-14.165,5.509-16.375,11.489c-3.201,8.661-3.196,17.225,0.678,25.693
		c2.561,5.596,7.2,8.431,13.056,9.281c3.575,0.519,7.22,0.413,10.638-1.18C244.454,80.265,245.09,80.212,245.613,80.084z"/>
	<path style="fill:#7A7A7D;" d="M469.218,86.147c-1.057,0.322-2.285,0.105-3.444,0.103c-0.952-0.858-0.589-1.921-0.592-2.87
		c-0.03-7.84-0.053-15.681,0.008-23.521c0.015-1.899-0.201-3.738-0.899-5.466c-1.157-2.864-3.218-4.638-6.457-4.844
		c-4.256-0.27-8.469-0.3-12.808,1.849c0,5.634,0,11.451,0,17.268c0,5.708,0,11.417,0,17.245c-1.459,0.559-2.726,0.49-4.168,0.081
		c0-12.524,0-24.934,0-37.457c0.478-0.953,1.318-1.685,2.437-2.008c4.269-1.233,8.406-2.98,13.016-2.764
		c7.766,0.363,12.834,5.226,13.229,12.491c0.534,9.792,0.087,19.638,0.05,29.46C469.588,85.808,469.434,85.901,469.218,86.147z"/>
	<path style="fill:#7E7E81;" d="M406.856,44.683c0,6.893,0.065,13.481-0.028,20.067c-0.044,3.123,0.263,6.202,0.615,9.286
		c0.596,5.215,4.461,8.155,8.694,7.93c2.337-0.124,4.624,0.122,6.827-1.312c2.164-1.409,3.539-3.227,3.917-5.598
		c0.388-2.435,0.845-4.876,0.814-7.392c-0.095-7.574-0.034-15.149-0.034-22.767c1.511-0.641,2.803-0.455,4.101-0.261
		c0.618,1.35,0.346,2.607,0.352,3.818c0.03,6.223-0.087,12.449,0.052,18.669c0.082,3.655-0.506,7.163-1.544,10.618
		c-1.696,5.645-6.279,8.895-12.165,9.288c-9.033,0.602-13.181-3.841-15.264-11.548c-0.586-2.166-0.885-4.355-0.868-6.617
		c0.057-7.716,0.028-15.434,0.041-23.15c0-0.237,0.109-0.473,0.198-0.836C403.77,44.162,405.084,44.467,406.856,44.683z"/>
	<path style="fill:#818184;" d="M274.488,86.134c-1.098,0.837-2.312,0.629-3.788,0.337c0-18.575,0-37.164,0-55.837
		c1.132-0.703,2.364-0.335,3.563-0.269C274.989,32.925,275.181,81.827,274.488,86.134z"/>
	<path style="fill:#F49722;" d="M89.076,16.084c2.728,3.518,3.656,7.741,4.573,11.935c1.147,5.248,1.158,10.627,0.696,15.908
		c-0.654,7.464-1.822,14.886-5.298,21.721c-1.454,2.858-2.59,5.878-4.057,8.729c-2.721,5.286-5.979,10.208-10.084,14.572
		c-2.197,2.335-3.936,5.099-6.634,6.962c-2.606-3.585-3.645-7.751-4.563-11.986c-1.225-5.653-1.036-11.394-0.629-17.05
		c0.53-7.364,2.279-14.498,5.511-21.279c2.608-5.474,4.949-11.053,8.556-15.988C80.707,24.731,84.367,19.949,89.076,16.084z"/>
</g>
</svg>
