<?xml version="1.0" encoding="iso-8859-1"?>
<!-- Generator: Adobe Illustrator 27.0.0, SVG Export Plug-In . SVG Version: 6.00 Build 0)  -->
<svg version="1.1" id="Layer_1" xmlns="http://www.w3.org/2000/svg" xmlns:xlink="http://www.w3.org/1999/xlink" x="0px" y="0px"
	 viewBox="0 0 1784 710" style="enable-background:new 0 0 1784 710;" xml:space="preserve">
<g>
	<path style="fill:#06475C;" d="M1784,266c-1.069,0.302-0.837,1.256-1.021,2.012c-2.292,9.411-8.374,14.481-18.014,14.96
		c-1.995,0.099-3.998,0.029-5.998,0.029c-22.162,0.001-44.323,0.001-66.485,0.001c-1.316,0-2.631,0-4.063,0
		c-1.04,1.827-0.539,3.688-0.541,5.429c-0.035,55.654-0.026,111.308-0.039,166.962c-0.001,2.823,0.003,5.628-0.521,8.454
		c-1.859,10.026-6.407,15.212-16.408,16.746c-6.55,1.004-13.34,1.086-19.91-0.164c-9.945-1.892-15.064-8.05-15.825-18.365
		c-0.171-2.322-0.106-4.663-0.106-6.996c-0.005-55.654-0.004-111.308-0.004-166.962c0-1.487,0-2.973,0-4.416
		c-1.636-1.194-3.351-0.659-4.944-0.661c-23.161-0.038-46.323-0.03-69.484-0.021c-2.503,0.001-4.937-0.248-7.411-0.791
		c-6.728-1.478-10.902-5.727-12.747-12.022c-2.139-7.3-2.209-14.798-0.02-22.165c2.319-7.805,8.431-12.395,17.048-12.991
		c1.161-0.08,2.332-0.037,3.498-0.037c67.151-0.001,134.303,0.009,201.454-0.024c4.233-0.002,8.336,0.47,12.033,2.591
		c4.774,2.738,7.284,7.119,8.442,12.394c0.228,1.039-0.411,2.427,1.064,3.041C1784,257.333,1784,261.667,1784,266z"/>
	<path style="fill:#BFD237;" d="M688,0c0.08,1.133,1.137,1.06,1.805,1.372c6.994,3.275,12.318,8.35,16.365,14.876
		c4.399,7.095,4.155,14.217-0.751,20.909c-1.982,2.703-4.372,5.009-6.729,7.363c-12.736,12.717-25.416,25.491-38.174,38.186
		c-7.785,7.747-15.714,15.349-23.511,23.085c-11.108,11.022-22.155,22.105-33.226,33.164c-21.447,21.42-42.903,42.831-64.325,64.275
		c-2.803,2.806-5.239,5.872-8.73,8.064c-5.306,3.331-10.82,3.902-16.136,1.287c-8.273-4.069-14.612-10.406-18.281-19.042
		c-2.471-5.817-0.639-11.061,2.635-15.98c3.164-4.753,7.399-8.558,11.396-12.555c33.351-33.348,66.738-66.661,100.113-99.985
		c18.044-18.016,36.131-35.99,54.101-54.08C668.878,6.586,673.492,2.735,679,0C682,0,685,0,688,0z"/>
	<path style="fill:#BED237;" d="M0,679c4.444-8.714,11.553-15.177,18.349-21.945c31.641-31.511,63.208-63.097,94.808-94.649
		c18.865-18.837,37.743-37.662,56.613-56.494c2.357-2.352,4.765-4.638,7.469-6.607c6.265-4.562,12.848-5.12,19.543-1.253
		c5.837,3.372,10.692,7.906,14.127,13.789c4.643,7.951,4.007,15.076-2.167,21.985c-3.658,4.093-7.554,7.98-11.44,11.862
		C146.027,596.913,94.676,648.062,43.554,699.439c-4.393,4.415-9.1,7.869-14.554,10.561c-2,0-4,0-6,0
		c-0.967-1.554-2.771-1.624-4.212-2.28c-5.413-2.464-9.646-6.32-13.351-10.86C3.022,693.901,1.748,690.322,0,687
		C0,684.333,0,681.667,0,679z"/>
	<path style="fill:#07485C;" d="M1440.805,393.099c0.732-1.981,0.385-3.815,0.386-5.608c0.024-42.992,0.022-85.984,0.015-128.976
		c0-2.668,0.196-5.287,0.696-7.932c1.541-8.159,6.477-12.928,14.417-14.564c7.905-1.628,15.901-1.695,23.773,0.167
		c6.928,1.639,11.245,6.154,12.859,13.124c0.714,3.087,1.04,6.219,1.039,9.407c-0.025,66.487-0.019,132.975-0.029,199.462
		c0,1.665,0.06,3.354-0.186,4.99c-1.734,11.487-7.916,16.332-18.912,17.75c-11.108,1.432-20.084-2.344-27.719-10.458
		c-26.371-28.031-52.888-55.925-79.374-83.848c-12.154-12.814-24.372-25.567-36.549-38.359
		c-7.121-7.481-14.202-14.999-21.343-22.461c-1.118-1.169-1.942-2.713-3.676-3.299c-0.671,1.818-0.328,3.646-0.328,5.432
		c-0.023,42.659-0.014,85.317-0.028,127.976c-0.001,2.823-0.104,5.621-0.551,8.45c-1.693,10.72-8.537,15.547-18.869,16.505
		c-4.626,0.429-9.331,0.253-13.987,0.056c-11.473-0.485-18.381-7.291-19.271-18.801c-0.128-1.658-0.094-3.331-0.094-4.997
		c-0.003-66.487,0.001-132.975-0.009-199.462c0-2.674,0.26-5.278,0.835-7.911c1.637-7.501,6.35-11.847,13.577-13.658
		c4.556-1.142,9.237-1.398,13.902-0.977c7.01,0.631,12.454,4.392,17.179,9.264c7.887,8.133,15.675,16.361,23.481,24.573
		c18.022,18.958,36.019,37.94,54.045,56.895c20.322,21.369,40.662,42.722,61.008,64.068
		C1438.193,391.065,1439.077,392.54,1440.805,393.099z"/>
	<path style="fill:#06475C;" d="M1039.784,380.309c0,17.433,0,34.725,0,52.104c1.618,1.109,3.502,0.556,5.263,0.558
		c40.487,0.037,80.973,0.028,121.46,0.029c1.499,0,3.003-0.058,4.497,0.034c9.605,0.592,15.955,5.941,17.764,15.246
		c1.082,5.566,1.426,11.151,0.284,16.847c-1.989,9.921-8.605,15.8-18.764,15.851c-16.661,0.084-33.322,0.023-49.983,0.024
		c-36.655,0-73.309,0.005-109.964-0.009c-2.988-0.001-5.94-0.076-8.914-0.796c-9.212-2.231-13.619-8.77-14.354-17.487
		c-0.168-1.988-0.117-3.996-0.117-5.995c-0.005-66.145-0.008-132.29,0.013-198.435c0.001-2.978,0.003-5.92,0.776-8.906
		c1.979-7.649,6.956-11.801,14.425-13.432c3.273-0.715,6.578-0.953,9.922-0.952c52.149,0.013,104.299,0.02,156.448-0.023
		c2.705-0.002,5.321,0.356,7.875,1.091c5.076,1.462,8.907,4.52,10.81,9.531c3.041,8.007,3.549,16.215,1.003,24.438
		c-2.848,9.201-8.859,11.934-17.048,12.919c-1.479,0.178-2.996,0.053-4.495,0.053c-40.32,0.002-80.64,0.001-120.96,0.001
		c-1.812,0-3.625,0-5.769,0c0,16.291,0,32.305,0,48.283c1.919,0.918,3.777,0.49,5.568,0.492c29.99,0.031,59.98,0.022,89.97,0.022
		c1,0,2,0.023,2.999-0.003c11.818-0.303,19.505,6.349,20.666,18.852c0.501,5.403,0.359,10.599-1.039,15.782
		c-1.64,6.082-5.392,10.074-11.54,11.922c-3.891,1.17-7.806,1.55-11.82,1.548c-29.823-0.014-59.647-0.013-89.47,0.006
		C1043.5,379.909,1041.66,379.618,1039.784,380.309z"/>
	<path style="fill:#06475C;" d="M574.043,358.15c0-32.822,0.008-65.643-0.01-98.465c-0.002-3.675,0.071-7.334,1.048-10.902
		c1.883-6.872,6.292-11.085,13.256-12.755c3.436-0.825,6.891-1.028,10.386-1.028c24.158-0.002,48.319-0.235,72.473,0.054
		c38.164,0.455,69.705,15.349,94.028,44.801c15.169,18.367,23.971,39.578,26.932,63.315c7.144,57.26-27.284,112.636-81.525,131.3
		c-12.297,4.231-25.004,6.629-38.132,6.567c-25.157-0.119-50.315-0.027-75.473-0.046c-2.485-0.002-4.94-0.07-7.429-0.617
		c-9.959-2.189-14.578-8.497-15.456-18.763c-0.198-2.317-0.095-4.662-0.095-6.994C574.041,422.46,574.043,390.305,574.043,358.15z
		 M626.433,282.11c0,50.807,0,101.008,0,151.018c1.085,0.97,2.133,0.662,3.091,0.663c12.656,0.023,25.313,0.086,37.968-0.029
		c3.815-0.035,7.666-0.336,11.433-0.937c35.401-5.645,58.398-34.662,61.985-66.455c2.231-19.765-2.692-38.013-14.474-54.124
		c-12.278-16.79-28.665-27.043-49.547-29.264C660.296,281.217,643.626,282.596,626.433,282.11z"/>
	<path style="fill:#08485C;" d="M439.088,436.784c-44.813,0-88.962,0-133.725,0c-6.726,6.823-13.64,14.019-20.761,21.005
		c-5.58,5.475-10.672,11.459-16.955,16.216c-10.299,7.798-21.541,8.875-33.509,4.862c-3.033-1.017-5.63-2.837-7.902-5.097
		c-5.581-5.552-6.805-13.237-3.095-20.139c2.066-3.844,4.93-7.13,7.993-10.184c22.893-22.826,45.833-45.604,68.763-68.392
		c28.957-28.778,57.918-57.552,86.878-86.327c12.293-12.214,24.49-24.528,36.93-36.591c5.616-5.446,11.849-10.152,19.056-13.505
		c3.85-1.791,7.886-2.854,11.958-3.217c7.939-0.708,15.956-1.152,23.829,0.796c7.84,1.94,12.267,7.586,13.232,16.748
		c0.139,1.321,0.111,2.663,0.111,3.996c-0.002,66.327-0.008,132.653-0.02,198.98c-0.001,3.327-0.011,6.63-0.73,9.937
		c-1.778,8.18-6.709,13.369-14.815,14.867c-6.93,1.281-13.953,1.122-20.842-0.085c-10.521-1.843-15.881-8.355-16.306-19.484
		c-0.242-6.324-0.076-12.664-0.091-18.996C439.085,440.532,439.088,438.892,439.088,436.784z M439.949,393.862
		c0-30.128,0-59.81,0-90.271c-30.508,30.294-60.503,60.078-90.909,90.271C379.722,393.862,409.644,393.862,439.949,393.862z"/>
	<path style="fill:#09485C;" d="M856.071,358.075c0-32.819,0.005-65.639-0.008-98.458c-0.001-3.336,0.187-6.625,0.919-9.909
		c1.662-7.462,6.316-12,13.597-13.598c8.213-1.802,16.563-1.821,24.745,0.172c6.7,1.632,10.905,6.144,12.51,12.888
		c0.732,3.077,1.046,6.215,1.044,9.404c-0.027,66.305-0.018,132.61-0.028,198.915c0,2.326-0.203,4.624-0.546,6.948
		c-1.547,10.482-8.523,15.576-18.903,16.438c-4.467,0.371-8.995,0.226-13.486,0.063c-11.739-0.425-18.796-7.223-19.738-18.912
		c-0.174-2.154-0.103-4.329-0.103-6.494C856.069,423.047,856.071,390.561,856.071,358.075z"/>
</g>
</svg>
