<?xml version="1.0" encoding="iso-8859-1"?>
<!-- Generator: Adobe Illustrator 27.0.0, SVG Export Plug-In . SVG Version: 6.00 Build 0)  -->
<svg version="1.1" id="Layer_1" xmlns="http://www.w3.org/2000/svg" xmlns:xlink="http://www.w3.org/1999/xlink" x="0px" y="0px"
	 viewBox="0 0 1442 926" style="enable-background:new 0 0 1442 926;" xml:space="preserve">
<g>
	<path style="fill:#18181A;" d="M0,632c3.146-0.424,6.301-0.173,9.456-0.161c21.989,0.09,43.978,0.099,65.967,0.234
		c3.535,0.022,6.803-1.082,9.991-1.821c1.005,0.61,1.394,1.409,1.178,2.234c-1.782,6.809-1.783,13.829-2.531,20.759
		c-0.158,1.47,0.008,3.212-2.638,2.646c-0.367-1.666-0.73-3.421-1.141-5.164c-1.42-6.024-4.661-8.868-10.874-9.801
		c-6.788-1.019-13.622-0.809-20.444-0.905c-4.792-0.067-9.585-0.013-14.699-0.013c0,19.273,0,38.152,0,57.051
		c0.615,0.214,1.068,0.509,1.521,0.509c11.491-0.007,22.986,0.341,34.469-0.441c3.476-0.237,6.539-1.16,8.618-4.196
		c0.396-0.578,0.924-0.937,2.134-0.693c0.477,3.08-0.414,6.19-0.804,9.354c-0.427,3.464-0.182,7.026-0.783,10.448
		c-0.549,3.126,0.679,6.653-1.624,9.456c-1.568-0.603-1.623-1.726-1.824-2.923c-1.701-10.134-4.343-12.312-14.748-12.994
		c-8.814-0.577-17.62-0.649-26.265-0.503c-1.448,1.156-1.005,2.588-1.008,3.857c-0.026,13.494-0.117,26.988,0.045,40.48
		c0.074,6.153,0.539,12.311,1.069,18.446c0.539,6.24,3.369,8.795,9.608,9.184c2.765,0.172,5.597,0.009,8.238,1.395
		c-1.199,2.444-3.277,2.303-5.257,2.272c-4.33-0.068-8.674-0.011-12.987-0.344c-8.165-0.631-16.305-0.468-24.454,0.17
		c-2.443,0.191-4.983,0.669-7.339-1.431c1.327-1.912,3.371-1.941,5.204-1.955c4.066-0.031,5.956-2.435,6.914-5.921
		c0.482-1.754,0.965-3.568,1.02-5.367c0.266-8.655,1.078-17.279,1.041-25.956c-0.121-28.486-0.047-56.973-0.047-85.459
		c0-3.669-0.22-7.315-0.816-10.946c-0.841-5.121-3.282-7.902-8.288-8.41C5.313,634.829,2.638,634.356,0,635C0,634,0,633,0,632z"/>
	<path style="fill:#1A1A1C;" d="M1442,659c-1.629,0.541-0.919,1.952-0.958,2.944c-0.26,6.491-0.428,12.986-0.564,19.481
		c-0.039,1.845-0.2,3.658-0.744,5.415c-0.288,0.93-1.046,1.202-2.237,0.961c-1.036-1.967-1.078-4.307-1.292-6.561
		c-0.684-7.194-4.17-12.402-10.567-15.796c-6.708-3.558-13.915-5.654-21.365-6.28c-9.786-0.822-19.625-0.784-29.267,1.767
		c-16.595,4.39-27.072,14.882-31.242,31.509c-3.725,14.851-3.889,29.607,2.102,44.008c7.74,18.608,21.552,30.332,40.904,35.555
		c10.78,2.909,21.781,2.863,32.643,0.866c8.783-1.615,14.848-6.957,17.696-15.696c0.752-2.307,0.612-5.012,2.497-6.712
		c1.144-0.665,1.571,0.621,2.395,0.539c0,2,0,4,0,6c-1.963,3.514-1.96,7.55-2.852,11.33c-2.378,10.072-3.17,10.949-13.456,12.617
		c-11.724,1.901-23.453,2.093-35.3,1.191c-11.083-0.843-21.718-3.159-31.544-8.27c-19.437-10.11-31.031-25.889-34.028-47.874
		c-2.381-17.468,1.429-33.309,11.396-47.748c8.825-12.785,21.056-20.538,36.045-24.037c14.261-3.329,28.636-3.284,43.133-1.536
		c7.754,0.935,15.352,2.94,23.159,3.256c1.844,0.075,2.281,1.443,3.448,2.07C1442,658.333,1442,658.667,1442,659z"/>
	<path style="fill:#282628;" d="M912,926c-0.503-1.205-1.623-0.896-2.554-1.032c-12.257-1.786-20.266-12.314-20.384-24.519
		c-0.112-11.646,8.835-22.159,20.205-24.425c8.581-1.71,16.564-0.565,23.606,4.702c13.394,10.018,10.347,30.118,0.116,38.372
		c-4.057,3.273-8.496,5.776-13.902,5.996c-0.782,0.032-1.694-0.088-2.087,0.906C915.333,926,913.667,926,912,926z M896.032,898.637
		c0.345,9.694,3.297,15.88,8.971,20.192c8.616,6.548,22.579,5.063,27.103-5.693c3.992-9.491,3.803-19.188-2.387-27.892
		c-4.341-6.103-10.812-8.107-18.055-7.076c-6.967,0.991-11.918,4.854-14.153,11.671
		C896.586,892.663,895.953,895.608,896.032,898.637z"/>
	<path style="fill:#2C2A2C;" d="M509,926c-4.432-8.892-7.763-18.259-11.75-27.344c-2-4.557-3.761-9.219-5.707-13.801
		c-1.6-3.766-2.397-8.463-8.796-7.142c3.163-1.818,11.643-2.081,17.107-1.103c0.053,2.033-2.441,0.64-2.977,2.762
		c4.388,11.315,8.981,23.16,14.012,36.133c5.738-12.605,10.101-24.603,14.202-35.998c-0.283-2.487-2.799-0.928-2.99-3.1
		c4.513,0,9.007,0,13.512,0c-0.086,1.32-1.148,1.344-2.138,1.5c-2.778,0.438-3.54,2.776-4.467,4.88
		c-4.68,10.634-9.309,21.29-13.974,31.931c-1.653,3.771-3.355,7.52-5.035,11.279C509.667,926,509.333,926,509,926z"/>
	<path style="fill:#282628;" d="M285,926c-1.814-1.952-4.881-0.647-6.997-3.189c-0.78-2.622,0.187-5.831,0.176-9.488
		c0.636,0.704,1.099,1,1.244,1.409c2.49,7.068,8.937,9.957,15.688,6.996c4.511-1.979,5.941-8.701,2.58-12.815
		c-1.247-1.527-2.874-2.763-4.411-4.03c-2.822-2.325-5.71-4.57-8.564-6.856c-4.687-3.755-7.003-8.453-5.247-14.464
		c1.416-4.846,6.987-8.158,13.451-8.508c3.544-0.192,6.896,0.848,10.59,1.295c0.43,2.882,0.03,5.705-0.318,8.809
		c-0.717-0.474-1.12-0.589-1.201-0.817c-0.712-2.016-1.05-4.247-3.482-5.112c-2.706-0.963-5.439-1.551-8.314-0.899
		c-6.113,1.386-8.1,6.804-4.225,11.721c1.762,2.235,4.058,3.914,6.393,5.524c2.877,1.982,5.645,4.103,8.172,6.527
		c4.236,4.064,5.792,8.983,3.752,14.487c-2.024,5.46-6.204,8.443-12.194,8.562c-0.794,0.016-1.691-0.166-2.092,0.847
		C288.333,926,286.667,926,285,926z"/>
	<path style="fill:#C3C1C2;" d="M745.958,0.873C746.042,0.585,746.056,0.294,746,0c4.333,0,8.667,0,13,0
		c-0.068,0.298-0.055,0.592,0.039,0.882C754.679,0.879,750.319,0.876,745.958,0.873z"/>
	<path style="fill:#928E90;" d="M824,926c-0.021-0.309-0.041-0.618-0.062-0.928c4.39,0.022,8.78,0.044,13.17,0.066
		c-0.124,0.276-0.16,0.563-0.108,0.862C832.667,926,828.333,926,824,926z"/>
	<path style="fill:#131316;" d="M745.958,0.873c4.36,0.003,8.721,0.006,13.081,0.009c12.983,0.752,25.773,2.502,38.074,7.018
		c1.959,0.719,3.502,1.738,4.896,3.247c4.634,5.016,9.35,9.956,14.011,14.9c11.551,0.944,23.028,1.426,34.258,3.99
		c13.545,3.092,26.534,7.506,37.733,16.074c7.31,5.592,12.599,12.761,15.827,21.359c4.211,11.214,1.402,20.855-7.009,29.061
		c-6.229,6.078-14.022,9.436-22.039,12.292c-6.228,2.218-12.666,3.709-19.637,5.064c1.423-6.732,2.777-13.132,4.199-19.859
		c-5.986-3.747-12.092-5.916-19.002-4.532c-3.897,0.78-7.705,2.001-11.555,3.013c-6.972,1.833-14.011,2.835-21.19,1.432
		c-3.07-0.6-6.135-1.311-8.847-3.67c6.48-2.305,12.989-3.588,19.412-5.152c10.963-2.669,21.972-5.133,33.173-6.633
		c4.147-0.555,8.318-0.703,12.461-0.327c8.072,0.734,12.114,5.776,11.368,13.849c-0.178,1.932-0.161,3.895-1.366,5.781
		c14.291-1.506,21.833-12.26,18.82-24.512c-1.669-6.787-5.833-11.822-11.585-15.629c-9.609-6.36-20.479-9.363-31.573-11.665
		c-13.541-2.81-27.263-4.19-40.949-4.569c-3.082-3.357-6.405-6.271-8.857-9.792c-5.665-8.136-13.927-11.625-23.051-13.458
		c-7.509-1.508-15.196-2.074-22.855-1.503c-12.701,0.947-24.217,5.524-34.669,12.608c-14.378,9.745-24.158,23.489-33.149,38.078
		c-9.453,15.337-14.852,32.39-21.995,48.702c-6.641,15.164-13.076,30.418-19.502,45.675c-9.909,23.529-20.055,46.952-30.947,70.046
		c-0.292,0.619-0.546,1.202-0.369,1.943c1.543,0.718,3.228,0.334,4.857,0.338c14.166,0.035,28.332,0.044,42.498,0
		c2.686-0.008,5.31,0.255,7.924,0.842c3.914,0.878,7.02,2.954,9.299,6.227c3.475,4.991,5.777,10.428,6.322,16.563
		c0.214,2.407,0.72,4.788,1.191,7.806c1.764-1.885,3.146-3.281,4.438-4.755c10.607-12.105,23.714-20.752,38.163-27.507
		c9.968-4.661,20.392-8.049,31.26-9.722c21.803-3.356,42.869-1.014,62.361,9.896c13.846,7.75,23.157,19.72,29.481,34.126
		c0.653,1.487,0.883,3.191,2.252,4.57c1.198-0.382,1.548-1.476,2.15-2.389c16.747-25.367,40.046-40.712,70.072-45.755
		c17.45-2.931,34.768-2.735,51.896,2.123c15.368,4.359,28.245,12.41,37.6,25.583c6.642,9.354,10.72,19.83,13.003,31.006
		c2.24,10.966,3.057,22.092,2.727,33.259c-0.985,33.323-0.52,66.659-1.039,99.985c-0.117,7.496-0.274,14.986,0.246,22.485
		c1.278,18.442,9.52,25.995,23.067,30.73c7.862,2.748,16.051,4.041,24.321,5.011c16.921,1.985,33.907,1.988,51.258,2.049
		c-2.194,3.912-5.145,6.949-7.496,10.209c-11.383,0-22.529,0.07-33.673-0.022c-8.83-0.073-17.669-0.142-26.486-0.578
		c-13.948-0.69-27.911-1.365-41.57-4.754c-4.874-1.209-9.567-2.842-13.921-5.288c-7.595-4.267-11.761-10.94-13.358-19.439
		c-0.745-3.965-0.893-7.926-0.885-11.921c0.048-24.999,1.031-49.976,1.669-74.962c0.494-19.324,0.899-38.67,0.154-57.986
		c-0.448-11.617-2.204-23.115-6.649-34.079c-7.455-18.39-21.072-29.032-40.394-32.345c-13.954-2.393-27.854-1.951-41.337,2.929
		c-18.711,6.772-33.439,18.272-42.527,36.327c-3.05,6.058-4.267,12.536-4.249,19.288c0.095,35.998-0.128,72.001,0.407,107.993
		c0.22,14.791,0.61,29.654,2.788,44.359c0.68,4.595,1.397,9.189,3.534,13.639c12.75,6.713,26.755,6.599,40.946,6.666
		c1.122,3.304,0.107,6.614,0.657,10.152c-44.343,0-88.383,0-132.628,0c0-3.218,0-6.464,0-10.139
		c14.036-0.092,28.056,0.058,41.124-6.503c2.832-6.18,3.605-12.987,4.297-19.728c1.225-11.931,1.951-23.924,2.023-35.913
		c0.206-34.496,0.806-68.996,0.068-103.491c-0.28-13.066-2.995-25.685-8.64-37.589c-7.691-16.218-20.892-25.032-38.165-27.981
		c-13.95-2.382-27.867-2.033-41.334,2.912c-20.565,7.551-36.627,20.082-44.614,41.251c-1.529,4.052-2.315,8.259-2.305,12.667
		c0.084,39.332-0.125,78.665,0.195,117.994c0.141,17.315,1.239,34.624,2.038,51.93c0.253,5.48,0.941,10.94,1.495,17.132
		c-11.102,0.387-22.125-1.295-33.178-0.975c-11.158,0.323-22.33,0.13-33.497,0.144c-11.142,0.014-22.283,0.003-33.654,0.003
		c-0.557-3.794-0.324-7.55-0.155-11.659c18.101-0.826,36.501,1.698,53.72-6.677c2.513-5.319,3.437-11.278,4.013-17.174
		c1.41-14.42,2.114-28.891,2.256-43.394c0.392-40.163,0.846-80.324,0.158-120.488c-0.169-9.836-0.694-19.609-3.328-29.152
		c-1.306-4.731-3.497-8.957-7.267-12.48c-10.664,0-21.466,0-32.457,0c-5.729,12.327-11.419,24.627-17.155,36.906
		c-24.713,52.892-48.553,106.193-74.224,158.634c-9.575,19.559-20.095,38.601-32.63,56.49
		c-12.906,18.418-28.01,34.653-45.867,48.373c-10.884,8.362-22.484,15.463-35.359,20.151c-15.459,5.628-31.39,8.797-47.959,6.327
		c-13.212-1.97-24.641-7.716-34.339-16.872c-5.585-5.273-10.786-10.892-14.385-17.772c-1.536-2.937-2.995-5.938-2.946-10.064
		c9.463-8.915,20.331-14.743,34.251-12.062c2.738,0.527,5.217,2.082,7.531,3.767c5.397,3.932,10.409,8.295,15.174,12.969
		c5.598,5.49,11.515,10.622,18.281,14.643c7.293,4.335,15.086,6.246,23.377,3.422c5.254-1.789,9.631-5.034,13.372-9.22
		c9.064-10.145,15.698-21.854,21.857-33.84c14.426-28.074,27.172-56.948,40.447-85.568c26.61-57.372,53.174-114.764,79.755-172.15
		c0.551-1.189,1.072-2.391,1.811-4.043c-55.596,0-110.799,0-166.485,0c1.982-4.556,3.751-8.624,5.646-12.979
		c55.517,0,111.147,0,166.98,0c3.621-7.786,7.167-15.412,10.714-23.037c13.725-29.502,27.077-59.195,42.235-87.995
		c12.932-24.57,26.47-48.827,43.636-70.818c9.036-11.576,18.609-22.6,30.084-31.92c10.012-8.131,21.135-13.632,33.738-16.3
		C731.115,2.553,738.496,1.461,745.958,0.873z"/>
	<path style="fill:#1A191B;" d="M644.597,779.992c-2.54-0.489-3.339-2.667-4.288-4.52c-7.415-14.485-14.84-28.966-22.094-43.532
		c-9.613-19.304-18.461-38.969-27.307-58.633c-0.512-1.139-0.649-2.58-2.497-3.592c-0.501,5.575-0.992,10.881-1.452,16.19
		c-1.236,14.263-2.58,28.518-3.653,42.794c-0.998,13.28-2.632,26.517-2.836,39.852c-0.085,5.579,1.875,7.749,7.476,8.486
		c1.813,0.239,3.623,0.51,5.418,0.857c0.415,0.08,0.759,0.528,1.431,1.025c-1.826,1.754-3.882,1.906-6.015,1.729
		c-10.149-0.846-20.294-1.005-30.448-0.04c-2.461,0.234-2.472,0.112-5.596-1.769c1.59-1.61,3.621-1.455,5.47-1.694
		c5.814-0.751,7.727-2.515,8.87-8.292c1.52-7.68,2.032-15.488,2.95-23.244c1.271-10.735,2.448-21.481,3.643-32.225
		c1.139-10.248,2.237-20.501,3.375-30.749c1.194-10.744,2.424-21.484,3.618-32.228c0.496-4.463,0.996-8.927,1.386-13.399
		c0.231-2.649,0.568-5.246,1.473-7.547c1.602-0.744,2.596-0.126,3.239,0.922c1.125,1.834,2.172,3.727,3.114,5.661
		c18.691,38.365,37.363,76.739,56.042,115.11c0.505,1.037,1.052,2.055,1.684,3.285c1.971-0.909,2.178-2.873,2.883-4.377
		c17.891-38.18,35.731-76.383,53.606-114.57c1.156-2.469,1.976-5.26,4.606-6.572c1.951,0.923,2.065,2.454,2.228,3.929
		c1.367,12.399,2.698,24.803,4.082,37.2c1.514,13.553,3.105,27.097,4.604,40.652c1.17,10.581,2.081,21.193,3.427,31.751
		c1.047,8.213,1.008,16.605,3.879,24.55c1.497,4.143,3.925,7.386,8.148,8.83c2.175,0.744,4.539,1.088,6.844,1.254
		c2.647,0.191,5.336,0.137,7.984-0.085c4.078-0.342,7.063-2.521,9.35-5.891c2.455-3.617,4.039-7.632,5.603-11.648
		c12.825-32.935,25.58-65.898,38.417-98.828c1.306-3.351,2.464-6.829,4.789-9.691c2.854-0.156,3.29,2.017,4.03,3.788
		c3.645,8.729,7.283,17.461,10.872,26.214c10.324,25.184,20.604,50.385,30.948,75.561c1.893,4.606,4.062,9.08,6.818,13.268
		c2.947,4.48,6.929,7.029,12.3,7.461c1.723,0.139,3.576,0.106,5.359,1.681c-1.758,1.445-3.437,1.861-5.258,1.815
		c-9.827-0.252-19.653-0.529-29.479-0.792c-0.887-0.024-1.6-0.377-2.43-1.351c0.327-1.284,2.386-1.5,3.154-3.249
		c-5.476-13.663-10.952-27.326-16.492-41.149c-13.958,0-27.744,0-41.528,0c-1.237,0.541-1.405,1.762-1.8,2.835
		c-3.327,9.028-6.672,18.049-9.958,27.092c-0.621,1.709-1.167,3.475-1.475,5.262c-1.032,5.99-0.087,7.209,6.036,8.252
		c0.938,0.16,2.031-0.005,2.664,1.083c-0.606,1.724-2.161,2.13-3.612,1.935c-12.479-1.685-24.969,0.531-37.42-0.159
		c-10.308-0.571-20.674,0.024-30.93-1.519c-0.965-0.145-2.032,0.025-2.955-1.288c4.559-6.954,0.953-14.5,0.699-21.885
		c-0.309-8.963-1.642-17.89-2.498-26.836c-1.237-12.923-2.454-25.847-3.658-38.773c-0.494-5.304-0.949-10.611-1.385-15.92
		c-0.162-1.973-0.156-3.966-1.275-6.563c-2.12,4.425-4.002,8.299-5.838,12.196c-14.979,31.795-29.94,63.597-44.944,95.38
		C647.17,777.023,646.682,779.101,644.597,779.992z M788.315,726.611c12.487,0,24.176,0,36.445,0
		c-3.142-8.537-5.959-16.65-9.113-24.63c-3.101-7.846-5.396-16.048-9.245-23.581c-0.383,0.035-0.766,0.07-1.149,0.105
		C799.671,694.36,794.088,710.215,788.315,726.611z"/>
	<path style="fill:#18181A;" d="M232.513,722.635c6.372,7.916,12.754,15.994,19.304,23.933c4.976,6.03,9.969,12.068,15.313,17.766
		c6.468,6.896,13.746,12.616,23.884,12.905c0.975,0.028,1.952,0.372,2.902,0.656c0.443,0.133,0.823,0.474,1.594,0.939
		c-2.088,1.704-3.998,1.884-5.931,1.917c-6.664,0.112-13.343,0.156-19.944-0.831c-5.758-0.861-10.475-3.905-14.735-7.784
		c-7.686-6.997-13.696-15.41-20.039-23.54c-4.605-5.902-9.157-11.85-13.572-17.894c-1.723-2.359-3.697-3.557-6.659-3.508
		c-6.652,0.111-13.307,0.035-20.196,0.035c-0.818,0.533-0.493,1.62-0.485,2.567c0.108,11.989-0.27,23.988,0.718,35.959
		c0.096,1.162,0.11,2.334,0.277,3.485c0.721,4.966,3.137,7.283,8.12,7.782c2.459,0.246,5.025-0.074,7.319,1.534
		c-0.758,2.263-2.664,2.176-4.447,2.153c-3.664-0.048-7.342-0.009-10.986-0.33c-7.331-0.645-14.635-0.494-21.949,0.151
		c-2.087,0.184-4.3,0.714-6.204-1.282c0.735-1.962,2.469-1.86,4.016-2.128c4.498-0.78,5.436-1.825,6.329-6.316
		c1.21-6.084,1.357-12.287,1.374-18.402c0.074-27.649,0.459-55.301-0.182-82.948c-0.004-0.167-0.011-0.333-0.015-0.5
		c-0.193-8.935-0.87-11.457-11.013-11.967c-1.353-0.068-2.699-0.086-3.177-1.749c0.506-1.498,1.813-1.233,2.916-1.233
		c16.657,0.004,33.317-0.112,49.97,0.145c5.449,0.084,10.866,1.156,16.106,2.938c9.134,3.107,15.361,9.409,18.592,18.192
		c3.054,8.302,1.699,16.753-1.838,24.754c-3.208,7.256-8.237,13.225-13.876,18.718C234.821,719.9,233.29,720.728,232.513,722.635z
		 M194.141,717.631c1.184,1.343,2.386,1.563,3.493,1.799c7.531,1.6,15.161,2.293,22.793,1.164
		c5.757-0.851,10.102-4.141,12.683-9.405c5.498-11.215,5.579-22.671,1.121-34.223c-1.892-4.903-4.683-9.251-9.232-12.067
		c-9.678-5.991-20.082-5.524-30.857-3.539C194.141,680.431,194.141,699.039,194.141,717.631z"/>
	<path style="fill:#1D1B1D;" d="M946.26,654.461c1.885-0.82,3.739-0.451,5.54-0.452c15.996-0.009,31.992,0.063,47.988,0.036
		c6.933-0.012,13.908,0.592,21.319-1.746c-0.863,7.577-1.633,14.454-2.453,21.324c-0.081,0.68-0.609,1.157-1.868,1.155
		c-1.456-0.988-1.253-2.948-1.546-4.637c-0.923-5.31-1.811-6.089-7.2-7.392c-4.609-1.115-9.28-0.761-13.921-1.036
		c-5.32-0.314-10.649-0.456-15.976-0.648c-0.295-0.011-0.598,0.199-1.137,0.393c0,15.968,0,32.021,0,48.556
		c11.22-0.165,22.329,0.362,33.418-0.977c2.84-0.343,4.526-2.569,6.762-3.969c1.206,3.583-0.357,20.537-2.303,24.861
		c-2.196-0.922-1.639-2.876-1.866-4.534c-0.661-4.831-2.432-6.85-7.294-7.357c-9.419-0.981-18.878-1.257-28.168-1.028
		c-1.214,1.396-0.761,2.788-0.765,4.056c-0.037,12.497-0.025,24.994-0.016,37.491c0.001,1.332,0.039,2.666,0.113,3.996
		c0.391,7.118,3.358,10.068,10.598,10.517c6.821,0.423,13.638,0.544,20.467,0.022c7.911-0.604,11.756-3.64,13.855-11.213
		c0.383-1.382,0.16-3.066,1.87-3.802c1.716,0.208,1.528,1.578,1.482,2.646c-0.233,5.334-1.411,10.541-2.32,15.779
		c-0.444,2.561-2.222,4.043-4.822,4.334c-1.318,0.148-2.662,0.096-3.994,0.096c-13.497,0.004-26.985-0.375-40.472-0.901
		c-6.49-0.253-12.991-0.181-19.471,0.526c-2.086,0.227-4.392,0.717-5.505-1.946c1.136-1.39,2.702-1.28,4.159-1.493
		c4.527-0.66,5.512-1.702,6.389-6.199c1.19-6.102,0.931-12.283,1.092-18.433c0.647-24.655,0.37-49.318,0.371-73.978
		c0-4.16-0.316-8.322-0.553-12.479c-0.377-6.609-2.625-8.759-9.273-9.051c-1.308-0.057-2.687,0.305-3.904-0.431
		C946.249,656.181,945.989,655.576,946.26,654.461z"/>
	<path style="fill:#171719;" d="M1182.413,661.914c-11.882,0.234-23.364-0.515-34.779,1.134c-3.873,0.56-6.551,2.915-8.498,6.285
		c-0.949,1.643-0.979,3.939-2.86,4.751c-1.115,0.112-1.773-0.533-1.693-1.057c1.076-7.005,1.88-14.081,4.727-20.68
		c0.056-0.131,0.262-0.197-0.064,0.034c31.47,3.325,62.601,1.051,93.674,1.603c3.786,0.067,7.475-1.566,11.882-0.691
		c-0.34,7.409-0.263,14.825-1.342,22.195c-0.033,0.224-0.808,0.339-1.173,0.48c-1.741-0.787-1.254-2.355-1.361-3.543
		c-0.437-4.867-3.353-7.435-7.768-8.551c-2.73-0.69-5.527-1.461-8.31-1.525c-8.631-0.197-17.27-0.072-25.977-0.072
		c-0.842,1.178-0.477,2.54-0.474,3.801c0.072,31.82-0.364,63.642,0.58,95.457c0.084,2.836,0.236,5.65,0.778,8.444
		c0.881,4.545,3.015,6.58,7.628,7.043c2.147,0.215,4.346,0.018,6.417,0.784c0.428,0.158,0.767,0.558,1.346,0.998
		c-1.136,1.928-2.903,1.965-4.706,1.916c-3.497-0.096-7.007-0.038-10.489-0.328c-7.83-0.652-15.639-0.519-23.454,0.161
		c-2.266,0.197-4.64,0.61-6.421-1.712c1.357-1.456,3.02-1.481,4.607-1.737c4.501-0.724,5.585-1.874,6.45-6.201
		c1.153-5.769,0.937-11.617,1.077-17.431c0.713-29.651,0.329-59.308,0.4-88.963C1182.613,663.846,1182.514,663.184,1182.413,661.914
		z"/>
	<path style="fill:#1A1A1C;" d="M1113.975,654.629c-2.14,7.68,0.349,15.188-2.079,22.444c-2.419-0.862-2.55-2.595-2.696-3.924
		c-1.01-9.187-7.565-12.277-15.313-13.985c-4.755-1.048-9.763-1.13-14.838-0.385c-15.768,2.317-22.387,17.783-12.8,30.558
		c2.736,3.645,6.22,6.434,9.858,9.105c8.041,5.904,16.433,11.333,24.038,17.828c4.709,4.022,8.875,8.491,12.201,13.746
		c11.473,18.123,3.547,43.044-18.57,50.02c-8.39,2.647-16.988,3.004-25.649,2.347c-6.118-0.464-12.221-1.101-18.011-3.503
		c-2.782-1.154-4.276-2.652-4.188-5.897c0.177-6.494,0.222-12.984,1.044-19.443c0.138-1.088,0.383-1.944,1.523-2.296
		c1.564,0.308,1.424,1.56,1.518,2.711c0.94,11.453,5.955,17.374,17.064,20.367c5.878,1.583,11.741,1.948,17.753,0.771
		c8.443-1.653,15.117-5.824,17.66-14.23c2.671-8.829,0.986-17.205-5.826-23.93c-5.696-5.623-12.167-10.341-18.56-15.129
		c-7.204-5.395-14.264-10.95-20.296-17.682c-10.169-11.35-11.456-25.728-3.489-38.111c4.527-7.037,11.42-10.97,19.409-12.96
		c10.895-2.715,21.783-1.716,32.649,0.336C1108.624,653.813,1110.889,654.129,1113.975,654.629z"/>
	<path style="fill:#1A1A1C;" d="M300.902,751.114c1.883,1.122,1.838,2.628,1.877,4.138c0.241,9.397,5.715,14.996,13.895,18.121
		c7.606,2.906,15.45,3.187,23.472,1.095c16.74-4.364,19.829-22.82,11.769-34.268c-2.913-4.137-6.829-7.241-10.741-10.343
		c-8.858-7.023-18.322-13.298-26.421-21.259c-5.367-5.276-10.2-10.815-11.967-18.549c-3.247-14.214,2.822-28,15.761-34.147
		c7.879-3.743,16.196-4.676,24.748-4.455c7.489,0.193,14.759,2.024,22.12,2.876c0.755,4.476,0.172,17.968-0.935,22.261
		c-1.299,0.547-1.828-0.373-2.192-1.293c-0.363-0.917-0.612-1.906-0.742-2.885c-1.148-8.638-7.559-11.794-14.792-13.215
		c-4.785-0.94-9.765-1.483-14.847-0.429c-7.214,1.496-13.511,4.051-16.226,11.442c-2.765,7.528-0.776,14.372,4.198,20.427
		c2.223,2.706,4.862,4.968,7.68,7.079c8.777,6.574,18.328,12.129,26.388,19.634c4.861,4.527,9.694,9.172,12.57,15.348
		c9.977,21.427-2.009,41.69-20.384,47.395c-8.394,2.606-16.987,2.941-25.645,2.292c-7.292-0.547-14.555-1.377-20.974-5.261
		C297.778,771.406,298.59,754.84,300.902,751.114z"/>
	<path style="fill:#171719;" d="M439.945,661.917c-11.55,0.273-22.686-0.522-33.773,1.041c-4.233,0.597-7.397,2.571-9.392,6.49
		c-0.888,1.745-1.165,4.19-3.734,4.781c-1.015-3.564,1.361-16.014,4.105-22.072c1.131-0.761,2.252-0.091,3.325,0.162
		c4.552,1.073,9.144,1.751,13.83,1.749c23.657-0.008,47.314-0.083,70.969,0.039c5.512,0.029,10.905-1.086,16.356-1.228
		c0.674,2.816,0.528,20.526-0.169,22.248c-0.307,0.758-0.993,0.755-1.717,0.76c-1.161-1.137-1.141-2.767-1.327-4.126
		c-0.609-4.45-3.428-6.68-7.342-7.82c-3.673-1.07-7.463-1.739-11.291-1.818c-7.328-0.151-14.659-0.131-21.988-0.164
		c-0.461-0.002-0.922,0.149-1.258,0.207c-0.885,1.004-0.51,2.052-0.511,3c-0.016,23.157-0.092,46.314,0.049,69.47
		c0.067,10.991,0.516,21.98,0.868,32.967c0.208,6.494,2.861,9.007,9.574,9.507c2.106,0.157,4.376-0.208,6.321,1.504
		c-0.943,2.005-2.737,2.141-4.549,2.101c-3.996-0.09-8.002-0.105-11.984-0.409c-7.333-0.559-14.641-0.391-21.958,0.222
		c-2.202,0.184-4.597,0.787-6.419-1.366c0.883-1.8,2.435-1.774,3.865-2.009c5.022-0.824,6.793-2.624,7.287-7.734
		c0.497-5.137,0.992-10.274,0.988-15.452c-0.025-29.821-0.007-59.641-0.008-89.462C440.062,663.857,440.005,663.208,439.945,661.917
		z"/>
	<path style="fill:#161518;" d="M889.566,655.205c3.116-1.406,36.523-1.778,42.158-0.577c0.368,1.577-0.677,2.089-1.884,2.274
		c-1.473,0.227-2.937,0.302-4.397,0.784c-2.651,0.875-4.203,2.44-4.569,5.274c-0.427,3.311-0.65,6.622-0.66,9.958
		c-0.082,28.326-0.093,56.654-0.317,84.979c-0.078,9.806-0.767,19.565-3.837,29.047c-2.101,6.49-5.409,12.122-10.19,16.894
		c-6.864,6.853-14.488,12.729-23.006,17.41c-0.871,0.479-1.703,1.087-2.955,0.247c-0.774-1.996,0.946-2.792,2.207-3.646
		c3.179-2.155,5.983-4.651,8.621-7.481c6.504-6.976,9.862-15.331,11.223-24.53c1.486-10.048,2.133-20.175,2.103-30.353
		c-0.082-27.327-0.019-54.654-0.077-81.98c-0.007-3.155-0.276-6.327-0.675-9.459c-0.536-4.207-2.035-5.712-6.208-6.563
		c-1.458-0.297-2.964-0.406-4.455-0.487C891.421,656.932,890.328,656.749,889.566,655.205z"/>
	<path style="fill:#18181A;" d="M153.417,778.614c-1.018,2.215-2.756,2.131-4.388,2.1c-4.16-0.079-8.332-0.066-12.473-0.406
		c-7.164-0.587-14.297-0.353-21.437,0.26c-2.118,0.182-4.339,0.583-5.974-1.748c0.983-1.415,2.474-1.447,3.891-1.654
		c5.033-0.736,6.529-2.218,7.008-7.282c0.407-4.305,0.871-8.624,0.922-12.942c0.339-29.127,0.476-58.255,0.072-87.383
		c-0.03-2.167-0.142-4.298-0.72-6.42c-1.188-4.358-2.327-5.438-6.739-6.064c-1.439-0.204-3.058,0.324-4.246-0.944
		c-0.202-0.216-0.234-0.593-0.466-1.227c3.183-1.891,6.679-0.637,9.97-0.84c3.316-0.204,6.655-0.008,9.984-0.008
		c3.495,0,6.992-0.088,10.486-0.022c3.216,0.06,6.491-0.403,9.786,0.339c-0.211,2.273-1.432,2.425-2.807,2.647
		c-6.997,1.13-8.335,2.593-8.881,9.586c-0.103,1.324-0.026,2.662-0.026,3.994c-0.001,24.635-0.048,49.27,0.028,73.905
		c0.023,7.485,0.295,14.972,0.621,22.451c0.328,7.512,2.454,9.581,9.938,10.177C149.782,777.276,151.641,777.274,153.417,778.614z"
		/>
	<path style="fill:#161518;" d="M1302.629,654.929c-0.031,1.841-1.336,1.942-2.717,2.072c-7.523,0.708-7.977,3.335-8.884,9.668
		c-0.07,0.49-0.022,0.998-0.022,1.498c0.007,28.657-0.026,57.315,0.059,85.972c0.015,4.99,0.439,9.986,0.831,14.966
		c0.424,5.395,2.724,7.481,8.227,7.977c2.35,0.212,4.945-0.291,7.125,1.813c-1.449,1.936-3.266,1.868-5.057,1.82
		c-3.83-0.103-7.674-0.062-11.487-0.38c-7.168-0.599-14.308-0.418-21.46,0.173c-2.095,0.173-4.337,0.815-6.272-1.223
		c0.759-2.116,2.7-2.068,4.395-2.145c3.387-0.154,5.067-2.042,5.785-5.135c0.49-2.112,0.781-4.227,0.904-6.407
		c1.343-23.806,0.857-47.634,0.927-71.455c0.022-7.664-0.066-15.328-0.119-22.991c-0.009-1.332-0.021-2.671-0.157-3.994
		c-0.819-7.959-1.819-8.987-9.928-10.189c-1.075-0.159-1.925-0.432-2.136-1.623c0.292-0.913,0.951-1.231,1.863-1.33
		C1270.786,653.338,1299.996,654.013,1302.629,654.929z"/>
	<path style="fill:#1A1A1C;" d="M784.338,41.339c1.792,1.857,1.523,3.894,2.993,5.777c-9.746,5.209-19.169,10.245-28.529,15.247
		c-12.286-4.332-24.287-8.564-36.211-12.768c-1.228-1.754-1.674-3.679-2.348-6.172c10.842-0.634,21.563-0.277,32.236-1.009
		C763.09,41.685,773.752,42.274,784.338,41.339z"/>
	<path style="fill:#292829;" d="M674.767,904.631c-2.926,0-5.691,0-8.948,0c0.308,6.111-0.58,12.032,0.755,17.466
		c1.721,1.682,4.02,0.189,5.746,2.448c-6.043,0-11.49,0-16.982,0c0.165-2.188,2.292-0.952,3.701-2.901
		c0.938-13.747,0.721-28.429,0.211-42.212c-1.788-2.13-3.768-0.969-4.662-2.342c-0.251-0.533-0.137-0.822,0.29-0.823
		c6.648-0.019,13.305-0.24,19.94,0.052c3.785,0.167,7.668,0.945,10.432,4c3.875,4.282,4.058,10.908,0.439,16.113
		c-1.419,2.041-3.125,3.883-4.99,6.171c4.742,6.186,9.74,12.31,15.196,18.057c2.112,2.224,5.237,2.268,8.588,3.199
		c-7.065,2.262-13.498,0.623-17.505-4.193C682.847,914.702,678.828,909.642,674.767,904.631z M665.863,900.521
		c2.93,1.284,5.692,1.651,8.508,1.314c2.352-0.282,4.417-1.085,5.774-3.345c2.773-4.618,2.55-11.788-0.675-15.974
		c-2.755-3.576-7.622-4.566-13.607-2.73C665.863,886.566,665.863,893.371,665.863,900.521z"/>
	<path style="fill:#292829;" d="M1006.764,904.627c-2.919,0-5.685,0-8.942,0c0.042,6.129-0.361,12.044,0.736,17.554
		c1.839,1.392,3.759,0.388,5.167,1.499c-2.129,1.432-10.538,1.779-16.38,0.684c0.2-1.998,2.323-0.757,3.641-2.7
		c1.312-13.787,1.458-28.459,0.226-42.279c-1.75-2.083-3.731-0.92-4.622-2.293c-0.254-0.537-0.139-0.824,0.29-0.825
		c6.648-0.018,13.305-0.238,19.939,0.052c3.784,0.165,7.669,0.859,10.437,3.985c3.78,4.27,4.135,10.683,0.743,15.693
		c-1.486,2.194-3.302,4.165-5.273,6.617c4.762,6.109,9.514,12.43,15.21,17.955c2.12,2.056,4.938,2.93,7.992,3.102
		c-6.501,2.453-12.94,0.815-16.946-3.999C1014.849,914.706,1010.831,909.645,1006.764,904.627z M998.08,879.091
		c0,7.597,0,14.666,0,21.575c2.493,0.953,4.768,1.33,7.106,1.273c3.852-0.093,6.459-1.717,7.95-5.516
		c3.805-9.694-1.918-17.963-12.303-17.493C1000.026,878.967,999.221,879.024,998.08,879.091z"/>
	<path style="fill:#282628;" d="M1092.039,901.128c0.942-0.306,1.926-0.519,2.818-0.933c5.467-2.536,7.326-6.457,6.143-12.587
		c-0.901-4.667-5.859-9.405-10.552-8.771c-1.609,0.217-3.272,0.035-5.491,0.035c0,7.606-0.186,14.861,0.052,22.103
		c0.237,7.202-1.073,14.532,0.913,21.131c1.818,1.397,3.574,0.505,4.799,1.602c-2.148,1.399-10.493,1.733-16.354,0.668
		c0.244-1.953,2.301-0.816,3.652-2.568c0.922-13.918,0.817-28.59-0.154-43.255c-1.424-1.29-3.392-0.107-4.354-1.456
		c-0.182-0.478-0.068-0.798,0.319-0.799c7.624-0.025,15.254-0.74,22.866,0.368c4.817,0.701,8.73,2.832,10.086,7.646
		c1.493,5.299,0.105,10.198-3.891,14.162c-2.985,2.961-6.744,4.057-10.826,4.295
		C1092.056,902.221,1092.047,901.675,1092.039,901.128z"/>
	<path style="fill:#282628;" d="M837.108,925.138c-4.39-0.022-8.78-0.044-13.17-0.066c-14.665-1.438-24.15-11.546-23.861-25.575
		c0.199-9.638,6.557-21.455,20.923-23.596c8.057-1.201,15.828-0.154,23.935,1.464c-0.164,3.886,0.58,7.776-0.864,11.755
		c-0.523-0.443-0.932-0.627-0.934-0.815c-0.055-4.912-2.894-7.438-7.27-8.866c-6.117-1.997-12.182-1.588-18.124,0.423
		c-6.085,2.059-9.145,6.619-10.296,12.898c-1.971,10.751,1.495,19.889,9.642,25.381c5.876,3.961,12.415,4.434,19.16,3.573
		c2.829-0.361,4.726-2.205,6.203-4.586c0.759-1.224,0.677-2.934,2.367-3.885c0.868,3.664-0.685,6.783-1.49,9.889
		C841.435,924.809,839.234,924.856,837.108,925.138z"/>
	<path style="fill:#292829;" d="M581.299,878.915c-2.044-1.518-3.883-0.48-5.222-2.505c9.69,0,18.998,0,28.661,0
		c0.489,2.345,0.041,4.977-0.738,7.845c-1.6-1.112-0.958-3.136-3.406-4.236c-3.236-1.02-7.591-0.702-12.228-1.043
		c0,6.173,0,12.225,0,18.617c5.166-0.567,10.334,0.434,15.424-1.476c0.296,3.016,0.082,6.098-1.143,9.738
		c-0.723-1.774-1.236-3.033-1.802-4.424c-4.066-1.16-8.224-0.668-12.846-0.975c0.321,6.774-0.658,13.377,0.811,20.179
		c4.958,2.149,9.75,1.61,14.537,0.141c1.823-1.005,1.215-3.472,3.215-5.035c0.029,3.267-0.335,5.87-1.366,8.86
		c-9.253,0.81-18.507-0.282-27.75,0.441c-0.068-2.807,2.612-1.319,3.366-2.748C582.723,907.747,582.052,893.189,581.299,878.915z"/>
	<path style="fill:#282628;" d="M422.069,921.909c0.817-14.208,0.736-28.743,0.199-42.334c-1.757-2.291-3.684-1.215-4.762-2.405
		c-0.184-0.628,0.185-1.009,0.674-1.012c5.139-0.034,10.277-0.021,15.609-0.021c-0.585,2.243-2.738,1.12-3.678,2.197
		c-1.788,5.097-1.577,36.983,0.397,42.157c4.255,1.828,8.84,1.803,13.451,0.917c2.434-0.468,2.406-0.615,5.177-5.231
		c0.666,3.088,0.55,3.916-1.278,8.414c-9.722,0-19.593,0-29.502,0C418.504,922.406,420.551,923.516,422.069,921.909z"/>
	<path style="fill:#292829;" d="M357.793,878.957c-0.903-1.739-2.914-0.502-3.555-1.859c-0.14-0.481-0.029-0.815,0.313-0.816
		c4.759-0.018,9.517-0.012,14.303-0.012c-0.095,2.433-2.751,0.939-3.336,2.642c-1.278,6.736-0.751,40.025,0.728,43.756
		c1.335,0.887,3.332-0.196,4.897,1.877c-5.922,0-11.361,0-16.845,0c-0.179-2.372,2.619-0.781,3.257-2.28
		C358.795,907.897,358.853,893.506,357.793,878.957z"/>
	<path style="fill:#5A5759;" d="M1092.039,901.128c0.009,0.546,0.017,1.093,0.026,1.639c-0.942,0.091-1.885,0.244-2.827,0.246
		c-0.404,0.001-0.81-0.31-1.375-0.546C1088.898,900.499,1090.538,901.025,1092.039,901.128z"/>
</g>
</svg>
