<?xml version="1.0" encoding="iso-8859-1"?>
<!-- Generator: Adobe Illustrator 27.0.0, SVG Export Plug-In . SVG Version: 6.00 Build 0)  -->
<svg version="1.1" id="Layer_1" xmlns="http://www.w3.org/2000/svg" xmlns:xlink="http://www.w3.org/1999/xlink" x="0px" y="0px"
	 viewBox="0 0 1585.989 264" style="enable-background:new 0 0 1585.989 264;" xml:space="preserve">
<g>
	<path style="fill:#F15624;" d="M1308.989,264c-0.3-0.359-0.527-0.88-0.91-1.053c-7.548-3.406-8.102-9.908-6.6-16.401
		c3.514-15.194,7.163-30.357,10.78-45.527c9.578-40.184,19.168-80.365,28.751-120.548c0.385-1.614,0.719-3.241,1.123-4.85
		c2.587-10.3,9.942-16.466,20.574-17.225c1.326-0.095,2.663-0.029,3.995-0.029c67.269-0.001,134.538-0.003,201.808,0.009
		c1.825,0,3.661,0.047,5.473,0.242c5.588,0.603,9.781,3.025,11.24,8.895c0.053,0.213,0.503,0.327,0.767,0.487c0,2,0,4,0,6
		c-1.581,1.235-1.529,3.172-1.929,4.842c-7.61,31.747-15.157,63.509-22.725,95.267c-5.763,24.183-11.631,48.341-17.254,72.557
		c-2.06,8.872-7.332,14.191-16.013,16.385c-0.331-0.033-0.662-0.096-0.993-0.096c-48.569,0.014-97.139,0.034-145.708,0.048
		c-21.956,0.006-43.912-0.021-65.868,0.049c-1.495,0.005-3.364-1.003-4.509,0.949C1310.323,264,1309.656,264,1308.989,264z
		 M1463.094,162.405c1.495,4.792,2.91,9.553,4.47,14.266c1.657,5.005,3.573,6.251,8.711,6.47c10.37,0.442,20.246-1.688,29.371-6.418
		c18.127-9.397,31.192-23.081,34.817-43.983c2.356-13.584-3.698-29.324-16.916-37.189c-7.594-4.518-15.795-6.032-24.321-6.136
		c-16.163-0.196-32.33-0.1-48.495-0.031c-5.591,0.024-6.509,0.949-7.775,6.322c-4.484,19.036-9.003,38.063-13.505,57.095
		c-6.065,25.644-12.135,51.287-18.173,76.937c-0.415,1.765-0.688,3.594,0.383,5.433c0.534,0.244,1.125,0.744,1.722,0.751
		c7.161,0.087,14.325,0.194,21.485,0.085c2.629-0.04,4.175-1.871,4.859-4.327c0.31-1.114,0.349-2.301,0.616-3.43
		c7.216-30.48,14.434-60.959,21.682-91.431c1.714-7.208,3.536-14.391,5.335-21.693c9.219,0,18.039-0.118,26.852,0.077
		c2.428,0.054,4.926,0.796,7.233,1.649c5.741,2.123,9.405,6.236,10.279,12.375c0.68,4.781-0.669,9.316-3.172,13.323
		c-6.162,9.868-15.003,15.283-26.839,15.324c-4.166,0.015-8.335,0.093-12.498-0.027
		C1466.135,157.76,1464.09,158.915,1463.094,162.405z M1340.196,234.473c0.959,1.081,1.814,1.57,2.87,1.573
		c6.995,0.016,13.993,0.151,20.983-0.039c3.181-0.086,4.137-1.316,5.025-5.055c5.969-25.141,11.942-50.281,17.872-75.431
		c4.789-20.315,9.536-40.641,14.259-60.972c0.814-3.504,0.019-4.979-3.276-5.08c-6.818-0.208-13.65-0.084-20.474,0.057
		c-3.089,0.064-4.734,2.015-5.412,4.938c-0.935,4.034-1.971,8.045-2.918,12.077c-9.549,40.638-19.08,81.281-28.66,121.912
		C1339.996,230.437,1339.762,232.354,1340.196,234.473z"/>
	<path style="fill:#F15724;" d="M1100.989,0c0.204,0.797,0.914,0.769,1.516,1.003c9.974,3.875,14.169,11.951,11.613,22.296
		c-3.436,13.907-19.837,24.341-33.889,21.56c-11.803-2.336-17.705-14.367-12.584-26.008c3.984-9.058,11.035-14.787,20.377-17.786
		c0.742-0.238,1.705,0.026,1.967-1.066C1093.656,0,1097.323,0,1100.989,0z"/>
	<path style="fill:#F4804E;" d="M1528.068,263.05c-0.214,0.301-0.24,0.618-0.078,0.95c-72.333,0-144.667,0-217,0
		c1.145-1.952,3.014-0.944,4.509-0.949c21.956-0.07,43.912-0.043,65.868-0.049c48.569-0.014,97.139-0.035,145.708-0.048
		C1527.406,262.954,1527.737,263.016,1528.068,263.05z"/>
	<path style="fill:#57595C;" d="M346.844,177.833c6.988,21.372,13.832,42.306,20.679,63.242c-0.762,4.173-3.554,5.787-7.492,5.806
		c-7.998,0.039-15.997,0.047-23.995-0.001c-4.394-0.026-4.811-0.37-6.153-4.88c-4.964-16.692-9.888-33.395-14.839-50.091
		c-2.97-10.016-5.98-20.021-8.938-30.041c-1.514-5.13,0.771-8.389,6.238-8.544c6.161-0.174,12.33-0.064,18.495-0.046
		c13.97,0.042,28.07-10.954,31.651-23.943c3.379-12.256-5.017-24.201-17.719-24.387c-14.161-0.207-28.327-0.048-42.491-0.034
		c-0.484,0-0.967,0.153-1.748,0.286c-2.153,8.754-4.37,17.568-6.485,26.406c-5.521,23.072-10.985,46.157-16.497,69.231
		c-3.16,13.229-6.374,26.446-9.556,39.67c-0.917,3.811-2.592,5.507-6.447,5.591c-7.495,0.163-14.997,0.168-22.493,0.028
		c-4.11-0.077-5.488-2.107-4.513-6.291c3.802-16.319,7.641-32.631,11.504-48.936c8.606-36.323,17.229-72.642,25.863-108.958
		c1.162-4.887,3.284-6.632,8.365-6.64c23.995-0.039,47.992-0.164,71.985,0.05c11.325,0.101,22.097,2.519,31.157,10.037
		c8.772,7.278,13.821,16.487,14.558,27.898c1.305,20.191-8.062,35.453-22.572,48.262c-4.128,3.643-8.686,6.705-13.482,9.407
		C357.29,173.567,352.376,175.579,346.844,177.833z"/>
	<path style="fill:#57595C;" d="M875.711,104.202c-4.299,17.749-8.482,34.812-12.558,51.901c-4.58,19.2-9.042,38.429-13.601,57.634
		c-2.069,8.715-4.256,17.402-6.371,26.107c-1.178,4.845-2.634,6.229-7.38,6.3c-6.996,0.105-13.996,0.101-20.992,0.004
		c-4.84-0.067-6.172-1.845-5.056-6.613c4.726-20.19,9.485-40.372,14.255-60.552c7.632-32.287,15.278-64.57,22.93-96.852
		c1.194-5.038,3.206-6.814,8.225-6.824c24.159-0.048,48.319-0.165,72.476,0.068c7.968,0.077,15.912,1.168,23.152,5.054
		c13.648,7.325,21.494,18.389,22.346,34.133c0.888,16.415-5.919,29.723-16.677,41.342c-8.259,8.921-18.374,15.265-29.553,19.947
		c-1.498,0.627-3.197,0.878-4.657,2.605c2.748,8.093,5.56,16.382,8.378,24.669c3.898,11.461,7.824,22.913,11.689,34.385
		c1.593,4.729-0.461,8.032-5.433,8.145c-8.992,0.205-17.993,0.058-26.99,0.059c-3.116,0-4.174-2.029-4.936-4.656
		c-3.419-11.787-6.916-23.551-10.439-35.307c-4.426-14.773-8.943-29.52-13.341-44.301c-1.612-5.418,0.558-8.271,6.185-8.45
		c0.832-0.027,1.666-0.004,2.499-0.004c5.165,0,10.333,0.117,15.494-0.023c14.303-0.388,26.823-9.787,31.235-21.206
		c5.676-14.687-2.828-26.435-16.642-27.349C905.376,103.454,890.69,104.202,875.711,104.202z"/>
	<path style="fill:#57595D;" d="M682.489,105.381c-3.055,13.144-6.078,26.152-9.087,39.095c2.283,0.976,4.138,0.606,5.941,0.609
		c18.326,0.031,36.653,0.02,54.98,0.017c2.324,0,4.753-0.359,6.436,2.263c0.51,1.034,0.354,2.381,0.041,3.669
		c-1.41,5.801-2.834,11.6-4.35,17.374c-1.219,4.643-2.833,5.922-7.655,6.294c-1.159,0.089-2.331,0.017-3.498,0.017
		c-19.492,0-38.984,0-59.017,0c-3.652,13.828-6.715,27.843-9.835,41.75c1.994,1.295,3.88,0.782,5.662,0.785
		c22.158,0.04,44.317,0.026,66.475,0.026c1.166,0,2.341-0.086,3.497,0.02c3.814,0.351,5.312,2.357,4.396,6.095
		c-1.421,5.798-2.955,11.569-4.479,17.342c-1.054,3.994-3.282,5.832-7.371,6.145c-0.828,0.063-1.665,0.013-2.498,0.013
		c-32.988,0-65.976,0.001-98.963,0c-2.483,0-5.082,0.38-6.912-2.172c-0.69-1.834-0.414-3.827,0.052-5.77
		c6.69-27.902,13.403-55.799,20.121-83.694c5.826-24.189,11.654-48.377,17.507-72.56c1.164-4.811,3.391-6.578,8.444-6.582
		c33.987-0.027,67.975-0.009,101.962-0.027c2.047-0.001,4.029-0.005,5.507,2.057c0.687,1.792,0.134,3.699-0.375,5.643
		c-1.218,4.652-2.59,9.282-3.463,14.002c-0.853,4.611-3.66,7.249-9.026,7.198c-22.823-0.219-45.649-0.101-68.474-0.078
		C686.693,104.913,684.847,104.621,682.489,105.381z"/>
	<path style="fill:#57595C;" d="M132.036,213.134c-25.971,0-51.593,0-77.414,0c-6.173,8.365-12.626,16.61-18.48,25.261
		c-2.726,4.027-6.064,6.127-10.624,6.253c-6.989,0.194-13.988,0.076-20.982,0.027c-1.327-0.009-2.622-0.394-3.878-1.386
		c-1.806-3.369,0.494-5.909,2.266-8.386c6.192-8.655,12.534-17.203,18.796-25.808c22.698-31.193,45.397-62.384,68.073-93.593
		c9.968-13.719,19.859-27.494,29.834-41.208c3.934-5.409,6.335-6.08,12.538-3.669c2.277,5.536,3.188,11.634,4.63,17.563
		c8.896,36.571,17.653,73.177,26.482,109.765c3.111,12.892,6.315,25.761,9.437,38.65c1.143,4.718-1.114,7.918-6.049,8.057
		c-7.322,0.207-14.655,0.136-21.981,0.023c-3.999-0.062-5.592-1.452-6.54-5.495c-1.779-7.588-3.43-15.205-5.154-22.806
		C132.77,215.418,132.435,214.481,132.036,213.134z M125.527,185.029c-4.373-17.959-8.647-35.508-13.195-54.185
		c-13.29,18.445-25.93,36.003-38.576,54.185C91.368,185.029,108.091,185.029,125.527,185.029z"/>
	<path style="fill:#56585C;" d="M1256.723,115.958c-4.947-2.829-9.629-5.679-14.469-8.232c-6.818-3.596-13.98-6.175-21.849-5.997
		c-9.508,0.214-17.53,3.666-23.269,11.427c-4.806,6.5-4.382,13.957,0.799,20.178c3.042,3.652,6.93,6.24,11.121,8.311
		c4.609,2.277,9.314,4.376,14.062,6.351c7.098,2.953,13.738,6.713,19.991,11.134c9.474,6.698,16.204,15.375,17.693,27.185
		c1.407,11.162-1.505,21.469-7.666,30.8c-10.591,16.042-25.664,25.99-44.084,30.438c-19.781,4.776-39.281,3.442-57.87-5.572
		c-5.122-2.484-9.809-5.648-13.642-9.915c-3.399-3.785-3.528-5.692-0.359-9.572c3.789-4.637,7.715-9.167,11.702-13.637
		c4.044-4.533,6.758-4.917,11.61-1.418c6.239,4.498,12.802,8.352,20.023,11.021c11.808,4.366,23.22,3.994,33.647-3.634
		c5.26-3.848,8.849-8.94,9.075-15.882c0.208-6.401-2.851-11.125-7.416-15.095c-5.214-4.533-11.437-7.332-17.713-10.021
		c-8.116-3.477-15.906-7.47-22.973-12.892c-14.253-10.935-19.222-26.72-13.478-44.414c4.525-13.938,13.862-23.978,26.025-31.717
		c10.943-6.963,23.02-10.029,35.8-11.026c15.111-1.18,29.414,1.53,42.92,8.415c3.866,1.971,7.481,4.343,10.836,7.085
		c3.087,2.523,3.571,5.18,0.904,8.168c-4.758,5.333-9.797,10.421-14.828,15.504C1261.653,114.631,1259.331,115.264,1256.723,115.958
		z"/>
	<path style="fill:#57595C;" d="M472.234,244.538c-0.578-2.197-0.104-4.41,0.45-6.715c10.424-43.371,20.786-86.757,31.148-130.142
		c0.153-0.639,0.142-1.318,0.204-1.948c-1.038-1.371-2.473-0.806-3.701-0.811c-11.16-0.046-22.32-0.006-33.48-0.036
		c-5.442-0.015-6.799-1.78-5.499-7.112c1.218-4.995,2.484-9.978,3.778-14.953c1.263-4.854,3.501-6.695,8.457-6.699
		c36.645-0.028,73.29-0.027,109.935-0.002c5.421,0.004,6.66,1.78,5.281,7.136c-1.322,5.137-2.635,10.276-3.909,15.425
		c-1.076,4.348-3.203,6.177-7.695,6.197c-10.993,0.05-21.987,0.017-32.981,0.017c-1.653,0-3.305,0-5.023,0
		c-1.781,3.117-2.051,6.48-2.805,9.632c-9.924,41.445-19.741,82.916-29.578,124.383c-1.609,6.783-3.111,7.973-10.291,7.984
		c-6.163,0.009-12.326-0.026-18.489,0.017C475.799,246.925,473.685,246.792,472.234,244.538z"/>
	<path style="fill:#57595C;" d="M1022.127,244.76c-0.754-2.431-0.192-4.858,0.385-7.296c10.851-45.853,21.695-91.707,32.54-137.562
		c1.336-5.65,2.665-11.303,4.012-16.95c1.178-4.942,3.336-6.782,8.297-6.828c6.999-0.066,14-0.064,20.999-0.001
		c4.981,0.045,6.284,1.74,5.151,6.507c-8.1,34.059-16.223,68.113-24.311,102.176c-4.408,18.565-8.758,37.144-13.139,55.715
		c-1.025,4.343-3.103,6.25-7.556,6.335c-7.164,0.137-14.332,0.013-21.498,0.051C1025.056,246.917,1023.402,246.426,1022.127,244.76z
		"/>
</g>
</svg>
