<?xml version="1.0" encoding="iso-8859-1"?>
<!-- Generator: Adobe Illustrator 27.0.0, SVG Export Plug-In . SVG Version: 6.00 Build 0)  -->
<svg version="1.1" id="Layer_1" xmlns="http://www.w3.org/2000/svg" xmlns:xlink="http://www.w3.org/1999/xlink" x="0px" y="0px"
	 viewBox="0 0 337 123" style="enable-background:new 0 0 337 123;" xml:space="preserve">
<g>
	<path style="fill:#E1C36E;" d="M252.848,9.993c1.697,1.321,3.394,2.641,5.092,3.962c0.322,1.129,1.215,1.082,2.112,1.026
		l-0.042-0.034c0.07,0.634,0.421,0.978,1.06,1.024l-0.041-0.042c0.041,0.655,0.389,1,1.044,1.035l-0.038-0.037
		c0.036,0.656,0.383,1.003,1.038,1.041l-0.043-0.039c0.047,0.643,0.393,0.993,1.034,1.053l-0.047-0.046
		c0.06,0.637,0.407,0.988,1.046,1.046l-0.046-0.045c0.061,0.639,0.407,0.989,1.05,1.04l-0.032-0.041
		c-0.056,0.883-0.169,1.796,1.048,2.016l-0.026-0.026c0.04,0.638,0.37,0.988,1.017,1.021l-0.022-0.019
		c0.036,0.649,0.374,0.998,1.027,1.034l-0.028-0.031c-0.061,0.889-0.175,1.806,1.044,2.041l-0.058-0.051
		c0.035,0.556,0.316,0.911,0.858,1.053c0.365,0.37,0.73,0.74,1.095,1.11c0.04,0.815-0.107,1.739,1.092,1.882l-0.028-0.033
		c-0.233,2.638,0.584,4.748,3.031,6.041l-0.04-0.044c-0.753,2.264,1.243,4.311,0.639,6.868c-1.201,0.069-2.376-0.072-3.419,0.236
		c-3.146,0.929-6.654,1.348-8.237,4.924c-1.587,0.43-1.61,2.303-2.832,3.07c-1.3,0.166-1.218,1.107-1.145,2.042l0.03-0.042
		c-1.241,0.227-1.081,1.162-1.033,2.041l0.036-0.048c-2.534,2.474-3.06,5.19-0.991,8.218c-0.021,0.506-0.042,1.011-0.063,1.517
		c-0.014,0.915-0.248,1.934,1.053,2.227l-0.044-0.057c-0.038,0.877-0.198,1.817,1.043,2.042l-0.024-0.042
		c-0.005,0.583-0.276,1.261,0.441,1.601c0.094,0.045,0.412-0.381,0.626-0.589c1.459,1.493,1.343,4.192,3.779,4.936
		c1.566,2.741,4.359,3.364,7.085,4.101c1.217,0.179,2.52-0.275,3.592,0.497c0.979,0.751-1.182,2.118,0.604,2.702
		c-1.328,5.675-4.74,10.226-8.015,14.85c-1.286,0.175-1.184,1.124-1.139,2.041l0.038-0.047c-0.657,0.046-0.995,0.403-1.034,1.055
		l0.041-0.039c-0.661,0.033-1.008,0.38-1.04,1.041l0.038-0.042c-0.653,0.041-1,0.389-1.041,1.041l0.043-0.044
		c-0.653,0.043-1,0.389-1.039,1.043l0.042-0.025c-2.101-0.082-3.114,0.924-3.026,3.029l0.022-0.041
		c-0.652,0.039-1.006,0.377-1.038,1.037l0.034-0.026c-1.417-0.211-2.119,0.383-2.062,1.831l-0.244,0.185l-0.306-0.002
		c-0.745-0.044-1.307,0.171-1.427,1.01l0.042-0.036c-0.647,0.04-1.01,0.372-1.059,1.028l0.049-0.031
		c-1.771-0.164-3.431-0.11-4.015,2.05l0.035-0.01c-2.331,0.365-4.461,1.135-6.042,3.008l0.023-0.002
		c-3.621,0.675-7.445,0.829-10.107,3.956c-0.965,0.437-2.339-0.537-3.021,0.876c-1.003,0.298-2.359-0.356-2.936,1.088
		c-0.333,0-0.667,0-1,0c-0.112-0.571-0.46-0.901-1.026-1.011c-1.364-1.892-3.373-0.986-5-0.9
		c-8.349,0.439-16.331-0.852-23.858-4.536c-1.455-0.712-2.881-0.501-4.348-0.487c-1.596-1.029-3.192-2.058-4.788-3.086
		c-0.626-2.62-2.712-3.414-4.979-3.982c-0.329-1.11-1.196-1.039-2.074-0.947l0.022,0.026c-0.101-2.586-1.45-3.921-4.031-4.024
		l0.042,0.021c-0.043-0.649-0.388-0.996-1.037-1.038l0.04,0.039c-0.044-0.649-0.388-0.998-1.039-1.039l0.039,0.039
		c-0.04-0.652-0.377-1.007-1.037-1.041l0.026,0.033c0.07-0.886,0.182-1.794-1.036-2.02l0.006,0.038
		c0.204-1.531-0.458-2.219-1.998-2.051l0.038,0.032c0.013-1.477,0.456-3.243-2.043-3.023l0.034,0.024
		c0.255-2.631-0.683-4.69-2.938-6.114c0.245-2.657-1.768-4.83-1.743-7.526c3.28-0.792,6.428-1.554,9.294-3.224
		c1.01-0.589,1.513-1.156,1.393-2.278l-0.026,0.033c1.322,0.172,2.123-0.271,2.051-1.741c1.231-0.731,2.097-1.681,1.949-3.241
		c2.309,0.008,2.095-1.496,1.819-3.036l0.106-0.165c1.536-0.187,2.046-1.194,2.07-2.59c0-1.79,0.001-3.58,0.001-5.37
		c-1.009-1.837-0.063-4.784-3.106-5.465l-0.181-0.257c0.183-0.658-0.146-0.89-0.746-0.897l-0.094-0.12
		c0.326-1.52-0.446-2.072-1.834-2.081c-0.353-0.517-0.707-1.033-1.06-1.55c-0.915-3.156-3.436-3.405-6.111-3.374l-0.422,0.017
		l-0.4-0.134c-0.024-3.606-3.732-0.767-4.768-2.809c0.615-2.231,1.337-4.5,2.536-6.628c0.781-1.387,1.649-2.838,1.211-4.585
		l-0.035,0.024c1.582,0.204,2.161-0.571,2.01-2.059c-0.011-2.528,2.46-3.723,3.152-5.874c0.811-0.049,1.705,0.039,1.846-1.117
		l-0.016,0.032c1.258-0.217,1.084-1.185,1.081-2.063c0.264-0.3,0.528-0.601,0.792-0.901c0.685-0.019,1.11-0.33,1.173-1.046
		l-0.031,0.03c0.649-0.037,0.994-0.379,1.034-1.029l-0.032,0.034c0.646-0.039,0.993-0.382,1.046-1.025l-0.036,0.028
		c1.417,0.195,2.137-0.39,2.07-1.854c2.398-0.834,4.388-2.274,6.107-4.116c1.59,0.325,2.912-0.453,4.217-1.12
		c4.83-2.471,9.951-4.12,15.125-5.679c1.505-0.453,3.42,0.707,4.538-1.154c7.403-0.144,14.801-0.191,22.152,0.921
		c0.954,0.017,1.908,0.034,2.861,0.051c0.092,0.482,0.068,1.322,0.292,1.394C243.255,6,247.591,9.207,252.848,9.993z
		 M186.007,56.996c-0.044,4.753,0.438,9.557-1.873,14.04c-0.411,0.797-0.117,1.958-0.148,2.95c-4.21,2.77-7.204,6.609-8.832,11.283
		c-0.595,1.708-0.529,3.897,0.405,5.836c3.661,7.606,8.628,14.238,15.931,18.504c6.178,3.609,12.649,6.681,20.005,7.764
		c5.985,0.881,11.966,1.067,17.793,0.28c6.46-0.872,12.694-3.059,18.45-6.509c9.484-5.685,17.203-12.71,20.229-23.422
		c-0.798-5.012-4.103-8.296-6.742-11.69c-3.798-4.883-5.273-10.115-5.242-16.043c0.001-0.664,0.001-1.328,0.002-1.993
		c1.601-4.02,2.971-8.134,5.95-11.469c1.855-2.076,3.458-4.377,5.097-6.48c-0.197-2.677,0.656-5.344-0.403-7.6
		c-2.747-5.853-6.034-11.444-11.403-15.334c-3.288-2.383-6.71-4.656-10.314-6.505c-3.033-1.556-6.335-3.011-9.663-3.479
		c-6.56-0.923-13.031-2.874-19.891-1.248c-5.19,1.23-10.414,1.645-15.529,3.871c-9.257,4.029-16.712,10.022-22.033,18.27
		c-3.355,5.2-5.205,7.947,0.162,14.715c2.982,3.761,5.442,7.793,7.601,12.046c0.059,0.117,0.29,0.146,0.441,0.216
		C186.002,55.665,186.005,56.331,186.007,56.996z"/>
	<path style="fill:#C9945E;" d="M183.93,58.815c0,1.79-0.001,3.58-0.001,5.37c-0.726,0.046-1.452,0.093-2.178,0.139
		c-3.49-0.069-6.981-0.197-10.471-0.198C116.182,64.113,61.085,64.117,5.987,64.11C3.991,64.11,1.996,64.038,0,64c0-2,0-4,0-6
		c1.323,0.074,2.645,0.211,3.968,0.211c57.522,0.007,115.044,0.006,172.566-0.016c1.814-0.001,3.658,0.273,5.445-0.311
		C182.275,58.937,183.102,58.878,183.93,58.815z"/>
	<path style="fill:#E1C36E;" d="M296.672,52.27c-1.252-1.304-2.052-2.863-3.178-5.217c5.577,0.424,9.706,3.678,14.541,4.048
		c0.687,1.43,1.977,0.736,3.034,0.861l-0.055-0.038c0.566,1.661,1.964,0.896,3.048,1.046l-0.051-0.035
		c0.273,1.199,1.208,1.046,2.081,1.017c0.156,0.058,0.307,0.143,0.468,0.17c6.48,1.093,12.591,3.581,18.981,5.007
		c0.454,0.101,0.972-0.08,1.46-0.129c0,0.667,0,1.333,0,2c-2.219-0.435-4.224,0.269-6.256,1.054
		c-2.289,0.885-4.465,2.151-7.076,2.065c-0.75-0.025-1.565,0.437-2.272,0.82c-6.248,3.386-12.903,5.61-19.764,7.395
		c-1.204,0.313-2.932,0.265-3.84,1.847c-0.649,1.131-2.003,0.8-3.614,0.899c0.997-2.806,1.958-5.124,3.67-7.089
		c0.935,0.06,1.852,0.077,2.283-1.006c2.181-0.023,4.429,0.144,5.853-2.046c1.946-0.655,3.892-1.311,5.837-1.966
		c3.162,0.189,5.444-1.763,8.7-3.074c-2.904-1.319-5.09-2.206-7.581-1.858l0.038,0.027c-0.342-1.285-1.358-1.031-2.278-0.996
		c-0.201,0.082-0.401,0.08-0.6-0.005c-0.698-1.571-2.104-0.931-3.268-1.045c-0.276,0.048-0.553,0.057-0.832,0.028
		C303.167,54.108,299.766,53.568,296.672,52.27z"/>
	<path style="fill:#CA9964;" d="M193.769,116.066c1.467-0.013,2.892-0.225,4.348,0.487c7.527,3.684,15.509,4.975,23.858,4.536
		c1.627-0.086,3.636-0.992,5,0.9c-3.816,0.002-7.631-0.001-11.447,0.008C214.561,122,213.491,121.781,213,123c-1,0-2,0-3,0
		c-2.919-2.578-6.988-2.122-10.251-3.897C197.795,118.04,195.55,117.509,193.769,116.066z"/>
	<path style="fill:#C9945E;" d="M235.148,2.964c-7.351-1.111-14.749-1.065-22.152-0.921c-0.006-0.33-0.002-0.661,0.012-0.991
		C213.762,0.872,214.712,1.062,215,0c4,0,8,0,12,0c0.621,1.429,1.93,0.853,2.961,0.959C231.89,1.155,233.77,1.381,235.148,2.964z"/>
	<path style="fill:#CC9F6C;" d="M213,123c0.491-1.219,1.561-1,2.528-1.003c3.815-0.009,7.631-0.006,11.447-0.008
		c0.566,0.11,0.914,0.44,1.026,1.011C223,123,218,123,213,123z"/>
	<path style="fill:#F6EDD1;" d="M229,123c0.578-1.445,1.934-0.79,2.936-1.088c0.021,0.363,0.042,0.726,0.064,1.088
		C231,123,230,123,229,123z"/>
	<path style="fill:#CA9964;" d="M36.962,82.046c-0.587-3.701,1.505-6.596,2.939-10.475c2.664,3.957,3.375,8.054,4.908,11.746
		c1.708,4.113,3.436,8.233,4.751,12.526c0.995,3.249,2.436,6.438,5.302,8.916c-2.033,0.486-3.665,0.426-5.472,0.055
		c-1.794-3.979-2.723-8.399-5.175-12.41c-3.046-0.51-6.146-0.41-9.454-0.048c-1.933,3.878-3.356,7.857-3.95,12.247
		c-1.296,0.716-2.753,0.525-4.649,0.175c2.809-2.392,3.872-5.501,4.702-8.658c1.217-4.633,3.93-8.762,4.466-13.626
		c0.083-0.757,1.038-0.605,1.694-0.522c0.616,3.041-1.585,5.59-1.611,8.946c2.826-0.216,5.548,0.422,8.435-0.486
		c-1.388-4.202-2.285-8.287-4.237-11.926C37.611,79.148,38.801,81.605,36.962,82.046z"/>
	<path style="fill:#CA9964;" d="M103.025,104.759c-1.787,0.502-3.567,0.499-5.35-0.006c-1.452-4.239-2.77-8.474-5.019-12.486
		c-2.975,0-5.934,0-9.239,0c-2.019,3.793-3.462,7.9-3.801,12.421c-1.704,0.602-3.328,0.331-5.419,0.144
		c2.94-1.777,3.772-4.52,4.779-7.191c1.507-3.997,2.198-8.312,4.625-11.953c0.344,0.264,0.687,0.528,1.031,0.792
		c-0.365,1.383-1.018,2.765-0.151,4.378c2.546-0.077,4.983,0.451,7.493-0.448c-0.192-4.337-2.301-7.826-3.872-11.832
		c-0.627,0.703-0.942,1.056-1.257,1.409c-0.527-0.002-1.054-0.004-1.58-0.007c0.017-2.943,2.414-4.924,2.853-8.086
		c2.019,1.594,2.319,3.564,2.981,5.32c2.509,6.654,4.941,13.338,7.536,19.958c1.017,2.595,1.831,5.395,4.346,7.11L103.025,104.759z"
		/>
	<path style="fill:#CA9964;" d="M115.735,92.926c0.521-1.56,1.042-3.12,1.689-5.056c-2.701-5.312-5.289-10.991-10.137-15.627
		c2.755,0,5.297,0,7.908,0c-0.388,0.502-0.757,0.979-1.285,1.662c1.932,3.66,3.288,7.759,6.179,10.977
		c0.763-0.325,1.345-0.573,1.927-0.821c0.021,0.368,0.041,0.736,0.062,1.104c-0.349,1.486-0.312,2.832,0.537,4.26
		c3.101,5.216,5.897,10.621,10.003,15.364c-1.826,0.521-3.567,0.347-5.289,0.066c-2.878-4.622-4.705-9.788-8.075-13.904
		c-1.42,0.23-1.397,1.628-2.337,2.018C116.523,92.955,116.129,92.941,115.735,92.926z"/>
	<path style="fill:#CC9F6C;" d="M61.478,72.154c1.94,0,3.894,0,5.922,0c-0.699,5.522-0.326,10.921-0.396,16.311
		c-0.06,4.654,0.066,9.311-0.067,13.962c-0.101,3.512-0.746,6.879-4.602,8.994c-0.725-3.623,1.098-6.686,0.828-9.945
		c-0.273-3.302-0.068-6.644-0.07-9.968c-0.002-3.325,0.13-6.656-0.039-9.972C62.894,78.411,64.253,74.98,61.478,72.154z"/>
	<path style="fill:#CC9F6C;" d="M115.735,92.926c0.394,0.015,0.788,0.029,1.182,0.044c-1.393,4.156-4.857,7.338-5.503,11.925
		c-1.967,0.287-3.94,0.17-5.845,0.739c-0.877,0.262-2.008,0.311-2.544-0.876l-0.046-0.478c3.816,0.515,6.207-1.177,7.849-4.593
		C112.031,97.182,113.468,94.72,115.735,92.926z"/>
	<path style="fill:#CC9F6C;" d="M175.96,74.926c0.12,1.122-0.382,1.689-1.393,2.278c-2.866,1.67-6.014,2.432-9.294,3.224
		c-0.024,2.695,1.988,4.869,1.743,7.526c-0.021,0.383-0.041,0.767-0.062,1.15c-2.093-3.178-3.348-6.654-4.173-10.816
		C167.81,78.533,171.848,76.602,175.96,74.926z"/>
	<path style="fill:#CC9F6C;" d="M122.077,85.166c-0.021-0.368-0.041-0.736-0.062-1.104c0.16-2.815,2.412-4.587,3.467-6.954
		c0.684-1.534,2.427-2.849,0.743-4.795c1.596-0.431,2.881-0.337,4.498-0.048C128.108,76.87,125.407,81.22,122.077,85.166z"/>
	<path style="fill:#CC9F6C;" d="M184.002,108.998c2.267,0.568,4.353,1.362,4.979,3.982c-2.662-0.332-4.488-1.952-6.073-3.944
		C183.272,109.024,183.637,109.011,184.002,108.998z"/>
	<path style="fill:#CA9964;" d="M177.919,104.054c2.58,0.102,3.93,1.437,4.031,4.024
		C179.828,107.516,178.481,106.178,177.919,104.054z"/>
	<path style="fill:#CA9964;" d="M166.955,89.103c0.021-0.383,0.041-0.767,0.062-1.15c2.256,1.425,3.193,3.483,2.938,6.114
		C168.216,92.86,167.531,91.014,166.955,89.103z"/>
	<path style="fill:#CA9964;" d="M83.6,85.688c0.543-1.2-0.132-2.892,1.479-3.661c0.25-0.011,0.5-0.029,0.75-0.054
		c0.473,1.734-0.408,3.108-1.198,4.507C84.287,86.216,83.944,85.952,83.6,85.688z"/>
	<path style="fill:#DFC29C;" d="M181.751,64.325c0.726-0.046,1.452-0.093,2.178-0.139c-0.024,1.395-0.535,2.402-2.07,2.59
		C181.823,65.958,181.787,65.141,181.751,64.325z"/>
	<path style="fill:#CA9964;" d="M169.921,94.044c2.498-0.22,2.056,1.547,2.043,3.023C170.806,96.382,170.037,95.433,169.921,94.044z
		"/>
	<path style="fill:#DFC29C;" d="M181.753,66.94c0.276,1.541,0.491,3.044-1.819,3.036C180.5,68.94,180.671,67.668,181.753,66.94z"/>
	<path style="fill:#CC9F6C;" d="M85.829,81.973c-0.249,0.025-0.499,0.043-0.75,0.054c0.061-0.682,0.123-1.365,0.184-2.047
		c0.527,0.002,1.054,0.004,1.58,0.007C86.97,80.886,86.738,81.602,85.829,81.973z"/>
	<path style="fill:#CA9964;" d="M171.925,97.035c1.54-0.168,2.202,0.519,1.998,2.051C172.401,99.236,172.074,98.222,171.925,97.035z
		"/>
	<path style="fill:#CC9F6C;" d="M177.985,73.218c0.072,1.47-0.729,1.913-2.051,1.741C176.374,74.092,176.947,73.38,177.985,73.218z"
		/>
	<path style="fill:#CA9964;" d="M173.917,99.048c1.218,0.225,1.106,1.133,1.036,2.02
		C173.988,100.712,173.641,100.039,173.917,99.048z"/>
	<path style="fill:#CA9964;" d="M184.002,108.998c-0.365,0.013-0.729,0.025-1.094,0.038c-0.566-0.09-0.901-0.41-0.98-0.985
		C182.805,107.959,183.673,107.889,184.002,108.998z"/>
	<path style="fill:#CC9F6C;" d="M61.796,112.411c-0.502,0.634-1.003,0.686-1.517,0.009
		C60.785,112.003,61.283,111.558,61.796,112.411z"/>
	<path style="fill:#CA9964;" d="M174.927,101.035c0.66,0.033,0.997,0.389,1.037,1.041
		C175.343,102.004,174.997,101.657,174.927,101.035z"/>
	<path style="fill:#CA9964;" d="M175.925,102.036c0.652,0.041,0.995,0.39,1.039,1.039
		C176.344,103.004,176.007,102.648,175.925,102.036z"/>
	<path style="fill:#CA9964;" d="M176.924,103.036c0.65,0.043,0.994,0.39,1.037,1.038
		C177.342,104.002,176.997,103.655,176.924,103.036z"/>
	<path style="fill:#5E5C5E;" d="M61.992,34.994c1.84,4.747,5.64,8.066,8.736,11.89c0.741,0.914,1.801,1.537,0.71,3.218
		c-6.314-2.148-8.155-8.653-12.478-12.973c-1.652-0.118-3.467-0.248-5.567-0.398c-0.377,4.31-0.19,8.52,1.13,12.883
		c-1.773,0-3.675,0-5.681,0c2.186-4.831,1.13-10.067,1.015-15.154c-0.115-5.081,1.595-10.406-1.426-15.511
		c2.727,0,5.381-0.017,8.034,0.004c3.768,0.03,7.434,0.433,9.442,4.25c2.14,4.068,0.209,7.327-2.34,10.397
		c-0.281-0.279-0.562-0.559-0.843-0.838c0.285-1.977,0.607-3.946,0.371-5.963c-0.63-5.373-3.895-7.397-9.733-5.779
		c-0.24,4.498-0.502,9.06,0.107,13.393c3.027,1.659,5.843,0.334,8.577,0.624L61.992,34.994z"/>
	<path style="fill:#5E5C5E;" d="M80.046,19.258c5.447-0.294,5.447-0.294,7.86,1.255c-0.447-0.001-0.894-0.019-1.34,0.003
		c-0.656,0.032-1.311,0.093-2.236,0.162c-0.93,3.758-0.149,7.507-0.425,10.917c2.471,2.578,6.138-0.12,8.839,3.024
		c-3.169,0.068-5.66-1.061-8.453-0.268c-0.788,4.26-0.253,8.603-0.358,13.211c3.582,0.207,6.474,1.254,9.521,0.434
		c0.285,0.913,0.128,1.743-0.934,1.826c-2.481,0.194-4.974,0.254-7.435-0.275c-1.814-0.39-3.612-0.515-5.363,0.279
		c0.063-0.496-0.152-0.788-0.644-0.876c0.9-0.885,1.012-2.036,1.005-3.191c-0.052-8.524-0.124-17.047-0.19-25.571
		C79.999,19.887,80.051,19.577,80.046,19.258z"/>
	<path style="fill:#5E5C5E;" d="M130.047,19.238c5.397,0,10.795,0,16.192,0c-1.96,2.323-4.453,1.322-7.362,1.899
		c0.197,9.38-0.338,18.876,0.3,28.544c-1.478,0-3.437,0-5.97,0c1.944-1.18,1.897-2.814,1.903-4.381
		c0.029-7.961,0.013-15.923,0.013-24.173c-1.891-0.124-3.486-0.228-5.082-0.333C130.044,20.276,130.045,19.757,130.047,19.238z"/>
	<path style="fill:#5E5C5E;" d="M114.889,35.796c-0.977-2.808-2.017-5.596-2.906-8.432c-0.469-1.495-1.249-2.256-3.217-1.483
		c0.894-2.695,1.144-5.002,2.801-7.095c5.01,10.114,7.078,21.228,13.026,30.786c-1.502,0.683-3.081,0.278-4.699,0.024
		c-1.73-3.9-2.284-8.262-4.856-11.783C114.988,37.142,114.938,36.469,114.889,35.796z"/>
	<path style="fill:#5E5C5E;" d="M24.979,49.899C10.805,48.47,8.594,34.645,12.51,26.696c1.265-2.567,2.763-5.111,6.433-5.926
		c-8.123,12.236-5.622,22.795,6.038,27.317C24.98,48.691,24.98,49.295,24.979,49.899z"/>
	<path style="fill:#5E5C5E;" d="M32.03,48.141c1.233-0.261,2.172-0.829,2.083-2.266c-0.212-3.436,0.395-6.896-0.288-10.385
		c1.141-1.273,2.472-1.083,4.135-0.339c-0.964,4.181,0.318,8.408-0.497,12.49c-1.52,1.73-3.522,1.872-5.436,2.227
		C32.028,49.292,32.029,48.717,32.03,48.141z"/>
	<path style="fill:#CC9F6C;" d="M213.008,1.052c-0.014,0.33-0.018,0.66-0.012,0.991c-1.117,1.861-3.032,0.701-4.538,1.154
		c-5.174,1.559-10.295,3.208-15.125,5.679c-1.305,0.668-2.627,1.445-4.217,1.12c3.578-3.971,8.74-4.932,13.366-6.796
		C205.782,1.871,209.29,0.73,213.008,1.052z"/>
	<path style="fill:#5E5C5E;" d="M102.942,49.616c-0.965,0.027-1.93,0.054-2.895,0.082c-0.118-0.389-0.236-0.778-0.354-1.168
		c2.324-3.043,3.074-6.756,4.328-10.25c0.794-2.211,1.283-4.553,2.847-6.515c2.017,1.484-0.261,2.79,0.22,4.07
		c-0.042,0.66-0.084,1.32-0.126,1.98c-2.409,3.166-3.197,6.88-3.626,10.715C103.205,48.892,103.073,49.254,102.942,49.616z"/>
	<path style="fill:#5E5C5E;" d="M37.443,20.089c-0.259,1.065-0.446,1.839-0.725,2.986c-4.692-3.702-10.085-3.147-16.363-2.669
		C26.617,17.55,28.449,17.861,37.443,20.089z"/>
	<path style="fill:#CA9964;" d="M168.955,30.932c0.438,1.748-0.429,3.199-1.211,4.585c-1.199,2.128-1.922,4.397-2.536,6.628
		c1.036,2.042,4.744-0.797,4.768,2.809c-2.249-0.174-4.55,0.059-7.096-0.791C164.623,39.468,165.3,34.557,168.955,30.932z"/>
	<path style="fill:#757374;" d="M32.03,48.141c-0.001,0.576-0.002,1.152-0.003,1.727c-2.346,0.798-4.695,0.838-7.048,0.031
		c0.001-0.604,0.001-1.209,0.002-1.813C27.331,48.104,29.68,48.123,32.03,48.141z"/>
	<path style="fill:#757374;" d="M106.962,37.814c0.042-0.66,0.084-1.32,0.126-1.98c2.601,0.237,5.202,0.285,7.801-0.038
		c0.05,0.673,0.099,1.345,0.149,2.018C112.346,38.122,109.654,38.121,106.962,37.814z"/>
	<path style="fill:#CC9F6C;" d="M170.798,45.072c2.675-0.032,5.196,0.217,6.111,3.374C174.698,47.636,172.436,46.92,170.798,45.072z
		"/>
	<path style="fill:#DFC29C;" d="M183.93,58.815c-0.829,0.063-1.655,0.122-1.951-0.931c0.012-1.613-1.424-2.856-1.155-4.534
		C183.867,54.031,182.921,56.979,183.93,58.815z"/>
	<path style="fill:#757374;" d="M130.047,19.238c-0.002,0.519-0.004,1.037-0.005,1.556c-1.363,0.016-2.83,0.785-4.226-0.686
		C126.966,18.29,128.61,19.177,130.047,19.238z"/>
	<path style="fill:#CA9964;" d="M170.931,28.897c0.151,1.488-0.429,2.263-2.01,2.059C168.879,29.575,169.682,29.018,170.931,28.897z
		"/>
	<path style="fill:#CC9F6C;" d="M183.009,14.112c0.067,1.464-0.653,2.048-2.07,1.854C181.337,15.021,182.006,14.38,183.009,14.112z"
		/>
	<path style="fill:#757374;" d="M99.693,48.53c0.118,0.389,0.236,0.778,0.354,1.168c-0.746,0.333-1.498,0.292-2.317,0.031
		C97.997,48.655,99.127,49.037,99.693,48.53z"/>
	<path style="fill:#DFC29C;" d="M177.969,49.995c1.388,0.009,2.16,0.561,1.834,2.081C178.871,51.665,178.277,50.957,177.969,49.995z
		"/>
	<path style="fill:#757374;" d="M80.046,19.258c0.004,0.319-0.047,0.629-0.154,0.93c-0.53-0.209-1.059-0.418-1.687-0.666
		C78.9,18.985,79.462,18.986,80.046,19.258z"/>
	<path style="fill:#CC9F6C;" d="M176.994,19.875c0.003,0.878,0.177,1.846-1.081,2.063C175.555,20.874,176.183,20.327,176.994,19.875
		z"/>
	<path style="fill:#CC9F6C;" d="M175.929,21.906c-0.141,1.156-1.035,1.068-1.846,1.117C174.388,22.139,174.903,21.6,175.929,21.906z
		"/>
	<path style="fill:#5E5C5E;" d="M63.567,33.601c-0.451,0.549-0.787,1.226-1.576,1.393l0.054,0.044
		c-0.72-1.041-0.012-1.655,0.678-2.275C63.005,33.042,63.286,33.321,63.567,33.601z"/>
	<path style="fill:#DFC29C;" d="M79.722,49.826c-0.461,0.354-1.064,0.332-1.315-0.061c-0.371-0.582,0.183-0.748,0.671-0.814
		C79.57,49.038,79.784,49.33,79.722,49.826z"/>
	<path style="fill:#757374;" d="M102.942,49.616c0.131-0.362,0.262-0.724,0.394-1.087c0.395,0.281,0.79,0.563,1.201,0.856
		C104.049,50.152,103.491,49.85,102.942,49.616z"/>
	<path style="fill:#DFC29C;" d="M179.897,52.196c0.6,0.006,0.929,0.238,0.746,0.897C180.092,53.046,179.939,52.667,179.897,52.196z"
		/>
	<polygon style="fill:#E3C9A5;" points="39.243,34.486 39.574,34.376 39.545,34.66 	"/>
	<polygon style="fill:#E3C9A5;" points="31.314,34.477 31.629,34.379 31.592,34.653 	"/>
	<path style="fill:#CC9F6C;" d="M178.959,17.928c-0.063,0.717-0.488,1.027-1.173,1.046C177.998,18.425,178.32,17.998,178.959,17.928
		z"/>
	<path style="fill:#CC9F6C;" d="M179.962,16.929c-0.04,0.649-0.385,0.992-1.034,1.029C179.004,17.345,179.367,17.021,179.962,16.929
		z"/>
	<path style="fill:#CC9F6C;" d="M180.975,15.937c-0.053,0.644-0.4,0.986-1.046,1.025C180.024,16.361,180.394,16.042,180.975,15.937z
		"/>
	<path style="fill:#C9945E;" d="M259.093,64.239c-2.069-3.029-1.544-5.745,0.991-8.218c0.062,0.492,0.124,0.983,0.267,2.112
		c12.894,0,25.866,0,38.838,0c0.658-0.053,1.316-0.105,1.975-0.158c-0.128,1.668,1.291,3.134,0.635,4.871
		c-1.223,0.021-1.953,1.064-3.003,1.445c-12.851-0.281-25.702-0.314-38.552,0.042C259.861,64.302,259.477,64.27,259.093,64.239z"/>
	<path style="fill:#CC9F6C;" d="M234.958,121.036c2.661-3.126,6.486-3.281,10.107-3.956
		C242.326,120.008,238.716,120.711,234.958,121.036z"/>
	<path style="fill:#DFC29C;" d="M298.797,64.29c1.049-0.381,1.78-1.424,3.003-1.445c0.309,2.87,2.508,1.96,4.185,2.093
		c-1.424,2.189-3.671,2.023-5.853,2.046c-0.151-0.798-0.004-1.766-1.143-2C298.89,64.763,298.826,64.531,298.797,64.29z"/>
	<path style="fill:#CC9F6C;" d="M272.989,79.975c-2.726-0.738-5.518-1.36-7.085-4.101c2.797-0.082,4.826,1.793,7.188,2.819
		C273.058,79.12,273.023,79.548,272.989,79.975z"/>
	<path style="fill:#C9945E;" d="M272.989,79.975c0.035-0.427,0.069-0.855,0.104-1.282c1.902,0.167,3.804,0.333,5.704,0.5
		c0.153,1.756-0.524,2.955-1.612,3.981c-1.786-0.584,0.375-1.951-0.604-2.702C275.508,79.701,274.206,80.154,272.989,79.975z"/>
	<path style="fill:#CA9964;" d="M245.042,117.082c1.581-1.872,3.71-2.643,6.042-3.008C249.945,116.837,247.514,117,245.042,117.082z
		"/>
	<path style="fill:#C9945E;" d="M261.053,107.079c-0.088-2.105,0.925-3.111,3.026-3.029
		C263.768,105.757,262.813,106.82,261.053,107.079z"/>
	<path style="fill:#CA9964;" d="M251.048,114.084c0.584-2.16,2.244-2.214,4.015-2.05
		C254.104,113.461,252.867,114.341,251.048,114.084z"/>
	<path style="fill:#C9945E;" d="M298.988,64.985c1.139,0.233,0.992,1.201,1.143,2c-0.431,1.083-1.348,1.067-2.283,1.006
		C297.734,66.801,298.645,66.001,298.988,64.985z"/>
	<path style="fill:#C9945E;" d="M258.009,109.88c-0.057-1.448,0.646-2.042,2.062-1.831
		C259.8,109.128,258.922,109.524,258.009,109.88z"/>
	<path style="fill:#C9945E;" d="M261.082,69.968c-1.241-0.225-1.08-1.164-1.043-2.042C261.058,68.264,261.179,69.06,261.082,69.968z
		"/>
	<path style="fill:#DFC29C;" d="M259.093,64.239c0.384,0.031,0.768,0.062,1.151,0.094c-0.082,0.555-0.164,1.11-0.246,1.665
		c-0.328-0.059-0.651-0.14-0.968-0.242C259.051,65.25,259.072,64.745,259.093,64.239z"/>
	<path style="fill:#C9945E;" d="M259.03,65.756c0.317,0.102,0.64,0.183,0.968,0.242c0.028,0.662,0.056,1.323,0.085,1.985
		C258.783,67.69,259.017,66.671,259.03,65.756z"/>
	<path style="fill:#C9945E;" d="M262.125,70.938c-0.214,0.208-0.532,0.634-0.626,0.589c-0.717-0.341-0.446-1.018-0.441-1.601
		C261.743,69.915,261.956,70.403,262.125,70.938z"/>
	<path style="fill:#C9945E;" d="M268.031,100.065c-0.045-0.917-0.147-1.867,1.139-2.041
		C268.933,98.784,269.068,99.751,268.031,100.065z"/>
	<path style="fill:#C9945E;" d="M267.034,101.073c0.039-0.651,0.378-1.009,1.034-1.055
		C267.979,100.62,267.667,101.004,267.034,101.073z"/>
	<path style="fill:#C9945E;" d="M266.035,102.075c0.032-0.661,0.378-1.009,1.04-1.041
		C267.028,101.68,266.681,102.027,266.035,102.075z"/>
	<path style="fill:#C9945E;" d="M265.032,103.075c0.042-0.653,0.388-1.001,1.041-1.041
		C266.008,102.663,265.66,103.009,265.032,103.075z"/>
	<path style="fill:#C9945E;" d="M264.036,104.074c0.038-0.654,0.386-1,1.039-1.043C265.008,103.657,264.693,104.036,264.036,104.074
		z"/>
	<path style="fill:#C9945E;" d="M260.037,108.075c0.032-0.66,0.385-0.998,1.038-1.037
		C261.05,107.705,260.702,108.049,260.037,108.075z"/>
	<path style="fill:#C9945E;" d="M256.032,111.074c0.12-0.839,0.682-1.054,1.427-1.01
		C257.143,110.627,256.744,111.071,256.032,111.074z"/>
	<path style="fill:#C9945E;" d="M255.015,112.065c0.049-0.656,0.412-0.988,1.059-1.028
		C256.046,111.715,255.614,111.976,255.015,112.065z"/>
	<path style="fill:#CA9964;" d="M265.029,48.957c1.582-3.576,5.09-3.995,8.237-4.924c1.043-0.308,2.218-0.167,3.419-0.236
		c0.604-2.556-1.391-4.603-0.639-6.868c1.806,2.188,2.858,4.66,2.983,7.911C273.819,44.582,269.582,47.259,265.029,48.957z"/>
	<path style="fill:#CC9F6C;" d="M252.848,9.993c-5.256-0.786-9.592-3.993-14.547-5.584c-0.224-0.072-0.2-0.912-0.292-1.394
		C243.359,4.482,248.734,5.897,252.848,9.993z"/>
	<path style="fill:#DFC29C;" d="M301.164,57.974c-0.658,0.053-1.316,0.105-1.975,0.158c-0.171-2.241-2.574-3.524-2.518-5.863
		c3.094,1.298,6.495,1.838,9.329,3.779C304.115,56.004,302.159,55.782,301.164,57.974z"/>
	<path style="fill:#CA9964;" d="M276.086,36.973c-2.447-1.293-3.264-3.403-3.031-6.041C275.113,32.42,275.94,34.525,276.086,36.973z
		"/>
	<path style="fill:#CC9F6C;" d="M314.062,52.97c-1.084-0.15-2.482,0.615-3.048-1.046C312.119,52.013,313.33,51.794,314.062,52.97z"
		/>
	<path style="fill:#CC9F6C;" d="M311.069,51.962c-1.057-0.124-2.347,0.569-3.034-0.861
		C309.162,50.979,310.312,50.777,311.069,51.962z"/>
	<path style="fill:#CA9964;" d="M260.052,14.981c-0.897,0.056-1.79,0.103-2.112-1.026C258.874,13.822,259.658,13.999,260.052,14.981
		z"/>
	<path style="fill:#CA9964;" d="M267.084,22.951c-1.218-0.221-1.104-1.133-1.048-2.016
		C266.965,21.306,267.383,21.942,267.084,22.951z"/>
	<path style="fill:#CA9964;" d="M270.096,26.971c-1.219-0.235-1.104-1.152-1.044-2.041
		C270.061,25.272,270.218,26.051,270.096,26.971z"/>
	<path style="fill:#CA9964;" d="M273.083,30.965c-1.199-0.143-1.052-1.066-1.092-1.882C273.03,29.318,273.081,30.128,273.083,30.965
		z"/>
	<path style="fill:#CC9F6C;" d="M316.092,53.952c-0.874,0.028-1.808,0.182-2.081-1.017
		C314.877,52.921,315.715,52.965,316.092,53.952z"/>
	<path style="fill:#C9945E;" d="M260.048,56.069c-0.048-0.879-0.208-1.815,1.033-2.041
		C261.079,54.881,261.096,55.745,260.048,56.069z"/>
	<path style="fill:#C9945E;" d="M261.051,54.069c-0.072-0.935-0.154-1.876,1.145-2.042C261.926,52.771,262.24,53.842,261.051,54.069
		z"/>
	<path style="fill:#CA9964;" d="M266.068,20.976c-0.643-0.051-0.989-0.402-1.05-1.04C265.585,20.064,265.954,20.391,266.068,20.976z
		"/>
	<path style="fill:#CA9964;" d="M270.896,27.973c-0.542-0.143-0.823-0.497-0.858-1.053
		C270.617,27.032,270.872,27.409,270.896,27.973z"/>
	<path style="fill:#CA9964;" d="M269.08,24.96c-0.653-0.036-0.991-0.385-1.027-1.034C268.811,23.859,269.03,24.325,269.08,24.96z"/>
	<path style="fill:#CA9964;" d="M268.075,23.946c-0.648-0.032-0.977-0.383-1.017-1.021C267.884,22.78,268.118,23.224,268.075,23.946
		z"/>
	<path style="fill:#CA9964;" d="M265.064,19.982c-0.639-0.058-0.986-0.409-1.046-1.046
		C264.588,19.063,264.936,19.412,265.064,19.982z"/>
	<path style="fill:#CA9964;" d="M264.064,18.981c-0.641-0.06-0.987-0.409-1.034-1.053C263.622,18.037,263.94,18.414,264.064,18.981z
		"/>
	<path style="fill:#CA9964;" d="M263.073,17.968c-0.655-0.039-1.002-0.385-1.038-1.041
		C262.652,17.004,262.997,17.353,263.073,17.968z"/>
	<path style="fill:#CA9964;" d="M262.073,16.964c-0.655-0.036-1.003-0.381-1.044-1.035C261.644,16.005,261.99,16.351,262.073,16.964
		z"/>
	<path style="fill:#CA9964;" d="M261.069,15.971c-0.639-0.046-0.99-0.39-1.06-1.024C260.574,15.07,260.953,15.384,261.069,15.971z"
		/>
	<path style="fill:#E6CC84;" d="M255.984,59.99c-0.032,5.928,1.444,11.159,5.242,16.043c2.639,3.393,5.944,6.678,6.742,11.69
		c-3.026,10.712-10.746,17.737-20.229,23.422c-5.756,3.45-11.991,5.637-18.45,6.509c-5.827,0.787-11.809,0.602-17.793-0.28
		c-7.356-1.083-13.827-4.155-20.005-7.764c-7.303-4.266-12.27-10.899-15.931-18.504c-0.933-1.939-1-4.128-0.405-5.836
		c1.628-4.674,4.622-8.512,8.832-11.283l0.017,0.016c-0.48,2.982-2.184,5.454-3.583,8c-2.005,3.649-1.658,7.178-0.394,10.858
		c0.347,1.012,1.085,1.088,1.92,1.13c0.036,2.011,1.13,2.983,3.069,3.125c0.088,1.284-0.343,2.638,0.573,3.911
		c0.979,0.686,2.283,1.236,3.063,2.206c4.312,5.364,10.808,7.168,16.458,10.349c0.914,0.514,1.518,0.323,1.917-0.624
		c1.463,1.149,3.169,1.144,4.898,1.03c2.025,0.004,4.05,0.009,6.075,0.013c0.335,0,0.669,0,1.004,0.001
		c1.673,1.553,3.338,1.594,4.995-0.026c0.345-0.008,0.69-0.016,1.035-0.024c2.409,0.321,4.523-1.509,6.964-0.957
		c2.338,1.624,4.344,1.37,5.967-1.053c0.588,1.366,1.417,0.955,2.357,0.38c4.331-2.649,9.136-4.67,12.823-8.171
		c2.366-2.246,6.128-3.798,5.845-8.073c4.266-0.65,4.574-1.173,2.987-5.065c2.257-2.58,0.439-5.567,1.018-8.071
		c-1.188-1.733-2.132-3.25-3.223-4.654c-0.734-0.944-0.943-2.621-2.76-2.292c-0.008-0.659-0.017-1.319-0.025-1.978
		c-0.403-1.774-0.328-3.9-2.967-4.026c-0.006-0.997-0.013-1.993-0.019-2.99c1.3-1.534,1.3-1.534-0.984-2.008
		c-0.001-1.662-0.002-3.323-0.003-4.985C254.001,60.001,254.993,59.996,255.984,59.99z"/>
	<path style="fill:#E6CC84;" d="M186,55c-0.151-0.07-0.382-0.099-0.441-0.216c-2.158-4.252-4.618-8.284-7.601-12.046
		c-5.367-6.768-3.517-9.515-0.162-14.715c5.321-8.248,12.777-14.241,22.033-18.27c5.114-2.226,10.339-2.641,15.529-3.871
		c6.86-1.626,13.331,0.324,19.891,1.248c3.328,0.468,6.63,1.924,9.663,3.479c3.605,1.849,7.026,4.122,10.314,6.505
		c5.369,3.89,8.657,9.481,11.403,15.334c1.059,2.256,0.206,4.923,0.403,7.6c-1.64,2.102-3.243,4.403-5.097,6.48
		c-2.979,3.335-4.35,7.449-5.95,11.469c-1.165-0.165-0.811-1.837-1.981-1.998c0.003-0.664,0.006-1.328,0.009-1.992
		c1.435,0.085,2.094-0.588,1.974-2.022c0.771-1.218,1.192-2.525,1.015-3.985c0.326-0.037,0.78,0.053,0.96-0.129
		c3.151-3.172,4.674-7.24,5.969-11.372c0.485-1.548-0.26-2.905-1.938-3.505c1.518-3.507,1.395-3.821-2.012-5.127
		c-2.833-7.499-9.494-11.021-15.843-14.598c-1.754-0.989-3.618-3.157-6.259-2.238c-1.454-1.178-3.173-1.094-4.889-1.027
		c-1.661-0.006-3.322-0.012-4.982-0.018c-0.056-1.051-0.282-1.967-1.613-1.969c-3.606-0.004-7.218-0.119-10.816,0.052
		c-1.394,0.066-2.891,0.55-3.649,2.044c-1.745-0.272-3.419-0.182-4.894,0.945c-0.279-0.641-0.736-1.213-1.458-1.004
		c-3.779,1.092-7.314,2.704-10.571,4.84c0.437,0.928,0.713,1.515,0.989,2.102c-1.416,0.037-3.118-0.359-3.005,1.989
		c-0.33,0.014-0.661,0.018-0.992,0.012c-0.16-0.488-0.603-1.039-0.977-0.846c-3.776,1.945-6.702,4.697-8.013,8.883
		c-0.355,0.659-0.709,1.317-1.064,1.976c-3.262,0.042-1.976,3.021-2.489,4.474c-1.106,3.132-0.898,6.461,2.552,8.511
		c0.005,0.329,0.008,0.658,0.01,0.988c-0.125,1.447,0.54,2.115,1.985,2.015c1.039,0.316,0.981,1.177,0.995,2.002
		c-2.245,1.871,0.064,2.202,1.012,2.993c1.699,1.257,2.059,3.047,1.994,5.007C187.335,55,186.668,55,186,55z"/>
	<path style="fill:#E6CC84;" d="M183.986,73.986c0.031-0.993-0.263-2.153,0.148-2.95c2.31-4.484,1.828-9.287,1.872-14.04
		c0.994,0.004,1.988,0.007,2.982,0.011c0,2.995,0,5.991,0,8.986c-2.287,0.472-2.287,0.472-0.986,2.007
		c-0.004,0.665-0.008,1.329-0.013,1.994c-1.439-0.088-2.099,0.584-1.974,2.023c-0.002,0.33-0.005,0.66-0.009,0.99
		c-0.668,0.332-1.336,0.664-2.005,0.996C184.003,74.002,183.986,73.986,183.986,73.986z"/>
	<path style="fill:#E8CF90;" d="M254.004,56c1.17,0.161,0.816,1.832,1.981,1.998c-0.001,0.664-0.001,1.328-0.002,1.993
		c-0.991,0.006-1.982,0.011-2.973,0.017C253.306,58.662,252.192,56.968,254.004,56z"/>
	<path style="fill:#E8CF90;" d="M188.989,57.007c-0.994-0.004-1.988-0.007-2.982-0.011c-0.002-0.665-0.004-1.331-0.006-1.996
		c0.668,0,1.335,0,2.003,0C189.052,55.316,188.991,56.176,188.989,57.007z"/>
	<path style="fill:#F6EDD1;" d="M301.164,57.974c0.995-2.193,2.951-1.97,4.837-1.926c0.279,0.029,0.556,0.02,0.832-0.028
		c0.787,1.295,2.099,0.945,3.268,1.045c0.199,0.085,0.4,0.087,0.6,0.005c0.518,0.884,1.334,1.086,2.278,0.996l-0.038-0.027
		c0.261,1.039,1.471,1.784,0.923,3.092c-0.664,0.598-1.353,1.219-2.043,1.841c-1.946,0.655-3.892,1.311-5.837,1.966
		c-1.677-0.133-3.876,0.777-4.185-2.093C302.455,61.109,301.036,59.642,301.164,57.974z"/>
	<path style="fill:#CC9F6C;" d="M311.822,62.973c0.69-0.621,1.379-1.243,2.043-1.841c0.547-1.308-0.663-2.053-0.923-3.092
		c2.491-0.347,4.676,0.539,7.581,1.858C317.266,61.21,314.983,63.162,311.822,62.973z"/>
	<path style="fill:#CC9F6C;" d="M310.101,57.066c-1.169-0.1-2.481,0.25-3.268-1.045C307.997,56.134,309.403,55.494,310.101,57.066z"
		/>
	<path style="fill:#CC9F6C;" d="M312.979,58.067c-0.944,0.09-1.76-0.112-2.278-0.996C311.621,57.036,312.637,56.782,312.979,58.067z
		"/>
	<path style="fill:#F1E2B7;" d="M231.995,112.992c-2.441-0.552-4.555,1.278-6.964,0.957c0.004-2.322,0.008-4.643,0.012-6.965
		c4.247-1.122,8.704-1.314,12.671-3.714c1.755-1.062,4.164-0.977,4.628-3.672c0.044-0.257,0.817-0.409,1.265-0.574
		c5.249-1.944,8.288-6.074,8.384-11.492c0.044-2.498-0.001-4.998-0.005-7.498c0.602-0.069,1.3,0.091,1.634-0.725
		c-2.197-0.909-4.095-2.665-6.736-2.3c-0.275,0.023-0.551,0.029-0.827,0.019c-0.335-0.987-1.302-1.727-1.137-2.909
		c0.583-0.192,0.985-0.564,1.157-1.164c0.301,0.028,0.602,0.039,0.903,0.033c0.324,0.991,0.979,1.65,1.972,1.972
		c1.651,1.72,3.775,2.514,6.016,3.081c0.223,4.026,1.517,7.947,1.181,12.038c-0.024,0.288,0.634,0.632,0.975,0.95
		c-0.061,0.324-0.128,0.648-0.2,0.969c-4.19,2.681-6.554,6.844-8.927,11c-0.824,0.02-1.687-0.035-1.988,1.013
		c-1.427,0.026-3.149-0.392-3,1.998l-0.001,0.001c-2.835-0.183-4.646,0.948-5.025,3.917l0.001,0.107
		c-0.922-0.63-1.843-1.26-2.773-1.895c-1.261,0.359-2.49,0.69-3.217,2.054C231.995,111.068,231.995,112.03,231.995,112.992z"/>
	<path style="fill:#EDDAA4;" d="M257.124,91.027c-0.341-0.318-0.999-0.662-0.975-0.95c0.336-4.091-0.958-8.012-1.181-12.038
		c0.42-0.201,0.924-0.575,0.301-0.89c-1.016-0.513-1.934-1.019-2.288-2.18c-0.314-1.036-1.178-0.951-1.989-0.975
		c0.001-0.663,0.003-1.326,0.004-1.989c0.334-7.14-0.761-14.329,0.701-21.437c0.028-0.137-0.459-0.379-0.705-0.572
		c0.327-0.659,0.653-1.318,0.98-1.977c1.031-0.305,1.012-1.151,1.023-1.982c0.005-0.676,0.009-1.352,0.014-2.029
		c1.331-0.004,2.662-0.008,3.993-0.012c0,1.335,0,2.669,0,4.004c0.177,1.46-0.244,2.767-1.015,3.985
		c-1.429-0.079-2.096,0.586-1.974,2.022c-0.003,0.664-0.006,1.328-0.009,1.992c-1.812,0.968-0.699,2.662-0.994,4.007
		c0.001,1.662,0.002,3.323,0.003,4.985c-0.005,0.833-0.065,1.692,0.984,2.008c0.006,0.997,0.013,1.993,0.019,2.99
		c0.402,1.774,0.331,3.898,2.967,4.026c0.008,0.659,0.017,1.319,0.025,1.978c1.182,4.633,4.164,8.882,2.994,14.018
		C258.86,89.831,258.081,90.681,257.124,91.027z"/>
	<path style="fill:#DFC29C;" d="M225.043,106.984c-0.004,2.322-0.008,4.643-0.012,6.965c-0.345,0.008-0.69,0.016-1.035,0.024
		c-0.011-2.002-0.022-4.005-0.033-6.007c-0.168-1.615,0.503-3.396-0.566-4.814c-1.492,0.21-1.292,1.133-1.421,1.865
		c-0.317-0.01-0.634-0.008-0.951,0.007c-0.023-0.35-0.047-0.7-0.07-1.05c-0.085-4.745,0.377-9.5-0.251-14.233
		c-0.025-0.185-0.469-0.314-0.719-0.469c-0.246,0.165-0.701,0.325-0.705,0.496c-0.125,4.746-0.204,9.494-0.29,14.241
		c-0.318,0.002-0.636,0.005-0.954,0.01c-0.025-1.341-0.05-2.683-0.075-4.024c0-7.57,0-15.14,0-23.097
		c1.754,0.46,2.96-0.328,4.036,1.178c0,3.37-0.001,7.009,0,10.647c0.002,8.255,0.002,8.255,2.019,10.829c0-7.827,0-14.863,0-21.899
		c0.345,0.012,0.691,0.024,1.036,0.035c0,7.435,0,14.869,0,22.304c-0.003,0.998-0.007,1.996-0.01,2.993
		C225.042,104.319,225.042,105.652,225.043,106.984z"/>
	<path style="fill:#E8CF90;" d="M207.025,112.956c-0.399,0.947-1.003,1.138-1.917,0.624c-5.65-3.181-12.147-4.985-16.458-10.349
		c-0.78-0.97-2.083-1.52-3.063-2.206c-0.916-1.272-0.484-2.627-0.573-3.911c1.147,0.043,1.941-0.736,2.861-1.224
		c0.875,1.514,1.499,3.17,2.874,4.385c1.54,1.361,2.739,3.291,5.262,2.716c0.312,1.015,0.98,1.677,1.986,2.004
		c0.035,0.79,0.071,1.581,0.117,2.615c3.014,0.927,5.288,3.602,8.778,3.355C206.937,111.629,206.981,112.293,207.025,112.956z"/>
	<path style="fill:#E8CF90;" d="M246.009,104.01c0.301-1.048,1.163-0.993,1.988-1.013c5.789,0.467,7.124-4.078,9.008-8.004
		c0.661,0.361,1.322,0.722,1.982,1.083c0.283,4.275-3.479,5.827-5.845,8.073c-3.687,3.5-8.492,5.521-12.823,8.171
		c-0.94,0.575-1.769,0.987-2.357-0.38c0.008-0.635,0.015-1.27,0.023-1.906l-0.001-0.107c2.26-0.555,4.839-0.701,5.025-3.917
		l0.001-0.001C244.431,105.976,246.135,106.365,246.009,104.01z"/>
	<path style="fill:#E8CF90;" d="M184.003,74.002c0.668-0.332,1.336-0.664,2.005-0.996c0.309,1.767-0.476,3.276-1.34,4.656
		c-2.183,3.489-3.102,7.214-2.687,11.31c0.133,1.313,0.018,2.652,0.016,3.979c-0.017,0.346-0.034,0.692-0.051,1.037
		c-0.835-0.042-1.573-0.118-1.92-1.13c-1.263-3.68-1.61-7.208,0.394-10.858C181.818,79.457,183.523,76.984,184.003,74.002z"/>
	<path style="fill:#E8CF90;" d="M260.003,90.012c1.17-5.136-1.812-9.385-2.994-14.018c1.817-0.329,2.026,1.348,2.76,2.292
		c1.091,1.403,2.035,2.92,3.223,4.654c-0.579,2.504,1.238,5.491-1.018,8.071C261.317,90.678,260.66,90.345,260.003,90.012z"/>
	<path style="fill:#CA9964;" d="M260.003,90.012c0.657,0.333,1.314,0.665,1.971,0.998c1.588,3.892,1.279,4.415-2.987,5.065
		c-0.661-0.361-1.322-0.722-1.982-1.083c-0.027-0.999-0.054-1.997-0.081-2.996c0.073-0.322,0.139-0.645,0.2-0.97
		C258.081,90.681,258.86,89.831,260.003,90.012z"/>
	<path style="fill:#CA9964;" d="M237.985,110.033c-0.008,0.635-0.015,1.27-0.023,1.906c-1.623,2.424-3.629,2.678-5.967,1.053
		c0-0.962,0-1.924,0-2.8c0.727-1.364,1.956-1.695,3.217-2.054C236.142,108.774,237.063,109.404,237.985,110.033z"/>
	<path style="fill:#CA9964;" d="M181.946,93.99c0.017-0.346,0.034-0.692,0.051-1.037c0.922-0.602,1.843-1.205,2.826-1.847
		c0.725,0.315,1.442,0.626,2.159,0.937c0.661,1.199,1.297,2.403,0.894,3.849c-0.92,0.487-1.714,1.267-2.861,1.224
		C183.075,96.973,181.982,96.001,181.946,93.99z"/>
	<path style="fill:#CA9964;" d="M207.025,112.956c-0.044-0.663-0.088-1.327-0.133-1.99c0.362-0.659,0.724-1.319,1.086-1.978
		c1.716,0.02,3.501-0.285,4.937,1.051c0.303,1.475-0.247,2.736-0.993,3.947C210.194,114.1,208.488,114.105,207.025,112.956z"/>
	<path style="fill:#EDDAA4;" d="M223.963,107.966c0.011,2.002,0.022,4.005,0.033,6.007c-1.656,1.62-3.322,1.58-4.995,0.026
		c0.009-1.67,0.019-3.34,0.028-5.01c0.642,0.329,1.285,0.658,1.927,0.987c0.2,1.14-0.328,2.438,1.083,4.258c0-2.328,0-3.798,0-5.267
		C222.681,108.634,223.322,108.3,223.963,107.966z"/>
	<path style="fill:#EDDAA4;" d="M211.923,113.986c0.745-1.212,1.296-2.472,0.993-3.947c1.685-0.019,3.369-0.037,5.054-0.056
		c0.009,1.339,0.019,2.678,0.028,4.017C215.973,113.995,213.948,113.99,211.923,113.986z"/>
	<path style="fill:#E8CF90;" d="M217.998,113.999c-0.009-1.339-0.019-2.678-0.028-4.017c0.001-0.996,0.003-1.992,0.005-2.988
		c-0.002-1.002-0.004-2.003-0.005-3.005l0.066,0.031c0.318-0.005,0.636-0.008,0.954-0.01l0.046-0.021
		c-0.002,1.667-0.003,3.334-0.005,5.002c-0.009,1.67-0.019,3.34-0.028,5.01C218.667,114,218.333,113.999,217.998,113.999z"/>
	<path style="fill:#E8CF90;" d="M256.984,74.016c-2.636-0.128-2.565-2.252-2.967-4.026
		C256.656,70.116,256.581,72.242,256.984,74.016z"/>
	<path style="fill:#E8CF90;" d="M253.998,67c-1.049-0.316-0.99-1.175-0.984-2.008C255.298,65.466,255.298,65.466,253.998,67z"/>
	<path style="fill:#EDDAA4;" d="M186.982,92.043c-0.717-0.311-1.435-0.623-2.159-0.937c-0.983,0.642-1.904,1.245-2.826,1.847
		c0.002-1.327,0.117-2.666-0.016-3.979c-0.416-4.097,0.504-7.821,2.687-11.31c0.863-1.38,1.649-2.889,1.34-4.656
		c0.004-0.33,0.007-0.66,0.009-0.99c1.426,0.075,2.094-0.59,1.974-2.023c0.004-0.665,0.008-1.329,0.013-1.994
		c1.049-0.315,0.989-1.175,0.986-2.007c0-2.995,0-5.991,0-8.986c0.002-0.831,0.063-1.691-0.986-2.007
		c0.066-1.96-0.295-3.75-1.994-5.007c-0.161-1.057,0.51-2.396-1.012-2.993c-0.014-0.825,0.044-1.687-0.995-2.002
		c0.103-1.425-0.56-2.095-1.985-2.015c-0.001-0.329-0.005-0.658-0.01-0.988c0.01-3.373,0.02-6.746,0.03-10.12
		c1.647,0.307,3.27,1.58,4.959,0.12c1.966,3.311,0.856,6.631,0.03,9.951c-0.408,0.199-0.958,0.45-0.337,0.903
		c0.493,0.359,1.177,0.462,1.32,1.198c0.001,0.304,0.011,0.608,0.028,0.912c-0.58,0.079-1.242-0.083-1.638,0.568
		c0.433,0.621,1.489,0.604,1.618,1.545c-0.308,2.774,3.146,1.35,3.789,3.257c0.188,5.888,0.705,11.857-0.014,17.672
		c-0.406,3.284-0.051,6.867-1.755,9.978c-2.335-0.111-2.039,1.548-2.027,3.014c-0.648,0.299-0.828,0.834-1.039,1.508
		C185.974,85.699,187.141,88.866,186.982,92.043z"/>
	<path style="fill:#E8CF90;" d="M237.879,11.032c2.642-0.919,4.505,1.25,6.259,2.238c6.349,3.578,13.01,7.099,15.843,14.598
		c-0.978,0.067-1.957,0.134-2.935,0.202c-1.251-5.162-5.597-7.347-9.57-9.857c-0.627-0.396-1.232,0.093-1.482,0.819
		c-0.565-0.105-0.912-0.445-1.065-0.992c0.203-2.278-2.171-2.554-2.833-4.107c-1.565,0-2.882,0-4.2,0
		C237.891,12.967,237.885,12,237.879,11.032z"/>
	<path style="fill:#EDDAA4;" d="M191.999,18.997c0.331,0.007,0.661,0.003,0.992-0.012c1.002,0.006,2.005,0.012,3.007,0.017
		l0.489,0.013l0.489-0.01c0,0,0.022-0.003,0.023-0.004c0.002,0.998,0.003,1.996,0.005,2.994c-2.901-0.677-3.54,1.937-4.683,3.486
		c-1.184,1.604-1.922,3.487-4.311,3.521c-0.395-0.947-1.036-1.656-1.989-2.066c-0.212-1.533,0.934-2.304,1.79-3.262
		C189.207,22.114,191.047,20.951,191.999,18.997z"/>
	<path style="fill:#E8CF90;" d="M211.93,10.114c0.758-1.494,2.255-1.978,3.649-2.044c3.598-0.171,7.21-0.056,10.816-0.052
		c1.331,0.002,1.557,0.917,1.613,1.969c-0.935,0.125-1.991-0.277-2.961,0.873c0,0.562,0,1.364,0,2.167
		c-0.007,1.326-0.014,2.652-0.02,3.979c-0.019,0.326-0.035,0.653-0.05,0.979c-0.321,0.003-0.642,0.004-0.964,0.001
		c-0.015-0.985-0.031-1.971-0.046-2.956c-0.509-1.288-1.018-2.576-1.578-3.993c-1.182,0-2.277,0-3.372,0
		c-0.084-0.544,0.153-1.195-0.462-1.548c-0.063-0.036-0.371,0.353-0.565,0.544c-1.89-0.512-3.365,1.084-5.168,1.016
		C212.317,10.935,212.047,10.597,211.93,10.114z"/>
	<path style="fill:#E8CF90;" d="M257.002,48.001c0-1.335,0-2.669,0-4.004l-0.005,0.005c1.492,0.199,2.131-0.837,2.414-1.957
		c0.674-2.661,1.827-5.242,1.577-8.086c0.113-0.552,0.472-0.848,1.004-0.963c1.678,0.6,2.424,1.957,1.938,3.505
		c-1.295,4.132-2.818,8.2-5.969,11.372C257.782,48.054,257.329,47.965,257.002,48.001z"/>
	<path style="fill:#CA9964;" d="M261.993,32.996c-0.532,0.115-0.891,0.411-1.004,0.963c-3.986-0.61-3.986-0.61-3.942-5.888
		c0.978-0.067,1.957-0.134,2.935-0.202C263.388,29.174,263.511,29.488,261.993,32.996z"/>
	<path style="fill:#E8CF90;" d="M182.038,31.875c-0.01,3.373-0.02,6.746-0.03,10.12c-3.45-2.05-3.657-5.38-2.552-8.511
		c0.513-1.453-0.773-4.432,2.489-4.474C181.976,29.965,182.007,30.92,182.038,31.875z"/>
	<path style="fill:#E8CF90;" d="M195.996,16.996c-0.276-0.587-0.552-1.174-0.989-2.102c3.257-2.136,6.791-3.748,10.571-4.84
		c0.723-0.209,1.179,0.363,1.458,1.004c-0.017,0.327-0.058,0.651-0.124,0.971c-2.937-0.408-4.917,2.084-7.446,2.316
		c-1.069,1.533-1.667,2.983-1.495,4.666c-0.324-0.012-0.648-0.015-0.972-0.009l-0.022,0.003c0.017-0.833,0.071-1.684-0.973-2.001
		L195.996,16.996z"/>
	<path style="fill:#CA9964;" d="M206.912,12.03c0.065-0.321,0.107-0.645,0.124-0.971c1.475-1.126,3.149-1.217,4.894-0.945
		c0.118,0.483,0.388,0.821,0.892,0.935c0.022,0.965,0.043,1.93,0.065,2.894c-1.757,1.48-3.51,2.983-5.798,0.853
		C207.03,13.874,206.971,12.952,206.912,12.03z"/>
	<path style="fill:#CA9964;" d="M237.879,11.032c0.006,0.967,0.012,1.934,0.018,2.902c-0.533,0.15-0.815,0.521-0.928,1.044
		c-3.48,1.416-3.525,1.398-5.133-1.943c0.385-1.01,0.77-2.02,1.155-3.03C234.706,9.938,236.425,9.854,237.879,11.032z"/>
	<path style="fill:#CA9964;" d="M182.038,31.875c-0.031-0.955-0.062-1.911-0.093-2.866c0.355-0.659,0.709-1.317,1.064-1.976
		c1.004-0.032,2.008-0.064,3.013-0.097c0.953,0.41,1.594,1.119,1.989,2.066c0.15,1.163-0.655,2.002-1.014,2.992
		C185.308,33.455,183.685,32.182,182.038,31.875z"/>
	<path style="fill:#E8CF90;" d="M186.022,26.937c-1.004,0.032-2.008,0.064-3.013,0.097c1.311-4.186,4.237-6.938,8.013-8.883
		c0.374-0.193,0.817,0.358,0.977,0.846c-0.953,1.955-2.793,3.118-4.187,4.678C186.956,24.633,185.81,25.404,186.022,26.937z"/>
	<path style="fill:#EDDAA4;" d="M232.99,10.005c-0.385,1.01-0.77,2.02-1.155,3.03c-2.263-0.003-4.526-0.005-6.789-0.008
		c0-0.803,0-1.605,0-2.167c0.97-1.15,2.026-0.748,2.961-0.873C229.669,9.993,231.329,9.999,232.99,10.005z"/>
	<path style="fill:#E8CF90;" d="M195.999,19.003c-1.002-0.006-2.005-0.012-3.007-0.017c-0.113-2.347,1.59-1.951,3.005-1.989
		l0.007,0.008C196.002,17.671,196,18.337,195.999,19.003z"/>
	<path style="fill:#E8CF90;" d="M184.998,47c1.522,0.597,0.851,1.936,1.012,2.993C185.062,49.202,182.752,48.871,184.998,47z"/>
	<path style="fill:#E8CF90;" d="M182.017,42.982c1.425-0.08,2.088,0.591,1.985,2.015C182.558,45.097,181.892,44.429,182.017,42.982z
		"/>
	<path style="fill:#E8CF90;" d="M254.014,54.008c-0.122-1.436,0.545-2.101,1.974-2.022C256.107,53.42,255.449,54.093,254.014,54.008
		z"/>
	<path style="fill:#E8CF90;" d="M188.988,65.993c0.003,0.832,0.063,1.692-0.986,2.007C186.701,66.465,186.701,66.465,188.988,65.993
		z"/>
	<path style="fill:#E8CF90;" d="M187.99,69.994c0.12,1.433-0.548,2.098-1.974,2.023C185.891,70.578,186.551,69.906,187.99,69.994z"
		/>
	<path style="fill:#F4E6C3;" d="M225.043,106.984c-0.001-1.332-0.001-2.665-0.002-3.997c3.176,0.274,6.289-0.109,9.09-1.623
		c3.091-1.671,6.079-3.526,9.375-4.8c0.16-0.062,0.151-0.564,0.219-0.86c-0.387-0.697-1.077-0.649-1.725-0.705
		c0.108-0.558,0.441-0.891,0.999-1.002c1.084,0.037,1.575-0.551,2.227-1.436c3.266-4.43,2.858-9.47,2.751-14.488
		c1.336,0.653,2.672,1.306,4.008,1.959c0.004,2.499,0.049,4.999,0.005,7.498c-0.096,5.418-3.135,9.548-8.384,11.492
		c-0.447,0.166-1.22,0.317-1.265,0.574c-0.464,2.696-2.873,2.611-4.628,3.672C233.747,105.67,229.29,105.862,225.043,106.984z"/>
	<path style="fill:#F6EDD1;" d="M247.978,78.074c0.107,5.018,0.515,10.058-2.751,14.488c-0.652,0.885-1.143,1.473-2.227,1.436
		c0.548-1.854-1.101-2.819-1.872-4.169c2.285-1.666,3.072-3.811,2.902-6.461c-0.137-2.13-0.017-4.276-0.011-6.414
		c0.68,0.025,1.359,0.049,2.039,0.074c0.276,0.011,0.552,0.004,0.827-0.019C247.049,77.568,247.422,77.915,247.978,78.074z"/>
	<path style="fill:#EDDAA4;" d="M256.924,91.997c0.027,0.999,0.054,1.997,0.081,2.996c-1.884,3.927-3.219,8.472-9.008,8.004
		C250.37,98.841,252.734,94.678,256.924,91.997z"/>
	<path style="fill:#E3C9A5;" d="M250.996,72.006c-0.001,0.663-0.003,1.326-0.004,1.989c-0.337,0.008-0.675,0.015-1.012,0.023
		c-0.601-1.503-1.934-0.879-3-1.032c-0.302,0.006-0.603-0.005-0.903-0.033c-0.416-0.936-1.047-1.633-2.086-1.878
		c-0.529-0.164-0.916-0.466-1.02-1.046l0.051-0.058c0.992,0.022,1.984,0.043,2.976,0.065
		C247.414,71.329,249.209,71.658,250.996,72.006z"/>
	<path style="fill:#EDDAA4;" d="M243.008,106.01c-0.186,3.216-2.765,3.362-5.025,3.917
		C238.362,106.958,240.173,105.827,243.008,106.01z"/>
	<path style="fill:#DFC29C;" d="M252.981,74.97c0.354,1.161,1.272,1.667,2.288,2.18c0.623,0.314,0.12,0.688-0.301,0.89
		c-2.241-0.567-4.365-1.362-6.016-3.081c0.334-0.01,0.667-0.019,1.001-0.029C250.962,74.942,251.971,74.956,252.981,74.97z"/>
	<path style="fill:#DFC29C;" d="M247.978,78.074c-0.555-0.16-0.929-0.506-1.094-1.066c2.641-0.365,4.539,1.392,6.736,2.3
		c-0.334,0.816-1.032,0.655-1.634,0.725C250.65,79.38,249.314,78.727,247.978,78.074z"/>
	<path style="fill:#DFC29C;" d="M246.057,77.027c-0.68-0.025-1.359-0.049-2.039-0.074c-0.127-0.546-0.49-0.847-1.016-0.978
		c-0.09-0.541-0.392-0.88-0.938-0.989c-0.351-0.004-0.702-0.008-1.053-0.012c0.066-0.481,0.309-0.804,0.804-0.902
		c0.732-0.001,1.464-0.002,2.196-0.003c0.303,0.01,0.606,0.026,0.909,0.049C244.755,75.3,245.722,76.04,246.057,77.027z"/>
	<path style="fill:#EDDAA4;" d="M246.009,104.01c0.125,2.355-1.578,1.966-3,1.998C242.861,103.618,244.583,104.036,246.009,104.01z"
		/>
	<path style="fill:#F6EDD1;" d="M249.953,74.929c-0.334,0.01-0.667,0.019-1.001,0.029c-0.993-0.322-1.648-0.981-1.972-1.972
		c1.065,0.153,2.398-0.471,3,1.032C249.99,74.322,249.981,74.625,249.953,74.929z"/>
	<path style="fill:#F6EDD1;" d="M244.921,74.118c-0.303-0.023-0.606-0.039-0.909-0.049c-0.007-0.998-0.014-1.995-0.021-2.993
		c1.039,0.245,1.67,0.941,2.086,1.878C245.905,73.554,245.504,73.926,244.921,74.118z"/>
	<path style="fill:#F1E2B7;" d="M250.996,72.006c-1.788-0.348-3.582-0.677-4.998-1.969c-0.995-2.641-1.089-5.384-1.01-8.166
		c0.074-2.624,0.018-5.251,0.019-7.877c1.174-0.821,3.138-0.85,2.998-2.989c1.004-0.311,1.803-1.233,2.988-1.008
		c0.247,0.193,0.733,0.436,0.705,0.572C250.235,57.677,251.331,64.866,250.996,72.006z"/>
	<path style="fill:#F4E6C3;" d="M252.995,46.038c-0.011,0.831,0.008,1.678-1.023,1.982c-1-0.036-2-0.073-3.001-0.109
		c-1.067-2.657-1.186-5.449-0.944-8.231c0.392-4.527-1.229-8.29-4.028-11.681c1.277-1.87,2.583-1.071,3.595,0.154
		c1.891,2.288,3.469,4.762,3.417,7.931c-0.043,2.64-0.006,5.282-0.004,7.923C250.865,45.472,251.575,46.103,252.995,46.038z"/>
	<path style="fill:#DFC29C;" d="M248.972,47.911c1,0.036,2,0.073,3.001,0.109c-0.327,0.659-0.653,1.318-0.98,1.977
		c-1.185-0.225-1.983,0.697-2.988,1.008c-0.663-0.003-1.326-0.007-1.989-0.01c-1.035-0.218-2.414,0.61-2.998-0.985
		c0.322,0.003,0.643-0.011,0.963-0.041c1.036-0.603,2.386-0.717,3.026-1.938C247.662,47.991,248.317,47.951,248.972,47.911z"/>
	<path style="fill:#E8CF90;" d="M257.002,43.998c-1.331,0.004-2.662,0.008-3.993,0.012c0,0-0.025-0.03-0.025-0.03
		c0.194-1.154,1.83-0.818,2.031-1.965c1.437-0.112,2.088,0.561,1.982,1.988L257.002,43.998z"/>
	<path style="fill:#E8CF90;" d="M252.995,46.038c-1.421,0.065-2.13-0.566-1.988-2.031c0.659-0.009,1.318-0.019,1.977-0.028
		c0,0,0.025,0.03,0.025,0.03C253.005,44.685,253,45.362,252.995,46.038z"/>
	<path style="fill:#F1E2B7;" d="M249.953,74.929c0.028-0.303,0.037-0.607,0.027-0.911c0.337-0.008,0.675-0.015,1.012-0.023
		c0.81,0.024,1.674-0.061,1.989,0.975C251.971,74.956,250.962,74.942,249.953,74.929z"/>
	<path style="fill:#F6EED7;" d="M245.007,53.993c-0.001,2.626,0.055,5.253-0.019,7.877c-0.078,2.782,0.015,5.525,1.01,8.166
		c-0.992-0.022-1.984-0.043-2.976-0.065c-0.317-1.047-1.184-0.974-2.009-0.985c-0.375-0.79-0.84-1.255-1.665-0.486
		c0.43,0.608,1.056,0.489,1.641,0.513c0.278,1.085,1.165,0.982,1.982,1.016c0.104,0.579,0.491,0.882,1.02,1.046
		c0.007,0.998,0.014,1.995,0.021,2.993c-0.732,0.001-1.464,0.002-2.196,0.003c0.047-0.33,0.093-0.66,0.14-0.989
		c-0.053-0.746,0.183-1.778-0.937-1.803c-1.128-0.025-0.916,1.025-1.011,1.762c-1-0.017-2-0.034-3-0.05
		c-0.176-1.175-1.858-0.787-2.036-1.961c2.259,0.126,2.041-1.481,2.05-2.93c-0.586-1.441-1.245-1.557-1.99-0.109
		c-0.74,0.103-1.643-0.079-1.82,1.07c0.578,0.65,1.168,1.313,1.758,1.976c-0.863,0.116-2.05-0.123-1.59,1.459
		c1.11,0.84,2.398,0.418,3.609,0.515c0.697,1.973,2.287,2.118,4.022,1.962c0.351,0.004,0.702,0.008,1.053,0.012
		c0.019,0.608,0.374,0.898,0.938,0.989c0.526,0.132,0.889,0.433,1.016,0.978c-0.006,2.139-0.126,4.285,0.011,6.414
		c0.17,2.65-0.617,4.795-2.902,6.461c0.771,1.35,2.42,2.315,1.872,4.169c-0.557,0.11-0.891,0.443-0.999,1.002
		c-1.676-0.417-3.742,0.973-5.061-1.094c-0.015-0.643-0.01-1.333-0.709-1.628c-0.212-0.089-0.703,0.064-0.826,0.258
		c-0.44,0.694-0.107,1.162,0.602,1.425c0.09,1.731-1.001,2.411-2.366,3.229c-2.686,1.612-5.697,1.973-8.59,2.803
		c0-7.435,0-14.869,0-22.304c-0.345-0.012-0.691-0.024-1.036-0.035c0,7.036,0,14.072,0,21.899
		c-2.017-2.575-2.017-2.575-2.019-10.829c-0.001-3.638,0-7.277,0-10.647c-1.076-1.506-2.282-0.718-4.036-1.178
		c0,7.956,0,15.526,0,23.097c-0.955-0.044-1.915-0.273-2.829-0.338c-3.253-0.229-5.784-2.776-9.096-2.651
		c-0.111-0.909,1.688-1.615,0.349-2.688c-1.135,0.638-1.498,1.592-1.404,2.77c0.009,0.293,0.016,0.587,0.022,0.88
		c-1.451,0.141-2.102-0.532-2.004-1.968c0.005-0.669,0.01-1.339,0.015-2.008l-0.016,0.021c1.16-0.262,1.011-1.182,1.017-2.024
		l-0.019,0.025c1.483-0.475,2.077-1.538,2.013-3.038c1.054-1.426,3.247-2.249,2.524-4.847c-0.857-0.048-1.66-0.092-2.464-0.137
		c-0.205-0.197-0.511-0.6-0.598-0.558c-0.675,0.332-0.435,1.005-0.482,1.571l0.016-0.02c-1.139,0.272-1.013,1.18-1.016,2.022
		l0.017-0.023c-1.143,0.271-1.013,1.183-1.018,2.026l0.021-0.028c-1.067,0.278-1.624,1.071-2.034,2.012
		c-2.817-1.639-2.542-4.545-2.991-7.181c-0.279-1.637,0.938-3.62-1.075-4.873c0.753-2.118,3.409-1.95,4.835-3.908
		c-1.496,0-2.618,0-3.74,0c0.279-0.759,1.016-1.757,0.764-2.237c-1.621-3.084-1.256-6.268-0.748-9.458
		c0.563-3.536-1.111-6.82-1.017-10.291c0.656-0.005,1.312-0.01,1.968-0.016c0.641,1.475,1.952,0.86,3.03,0.97
		c0.339,0.822,0.798,1.245,1.629,0.507c-0.43-0.586-1.05-0.474-1.623-0.514c-0.593-1.494-1.919-0.873-2.975-1.029
		c-0.097-0.573-0.468-0.877-1.004-1.017c0.175-0.448,0.35-0.895,0.653-1.671c-1.336-0.129-1.73-1.07-1.673-2.277l0.003-0.008
		c0.848-0.134,1.787,0.313,2.55-0.387c-0.311-0.734-0.985-0.556-1.552-0.642c0.878-3.604,1.211-7.257,0.997-10.961
		c-0.085-1.471,0.6-2.457,1.953-2.998c0.155,0.536,0.488,0.884,1.048,0.991c0.182,0.254-0.007,1.123,0.736,0.443
		c-0.247-0.146-0.495-0.291-0.742-0.437c0.296-1.49-0.338-2.749-0.998-4c0.004-0.684,0.007-1.368,0.011-2.052
		c1.132-0.247,0.96-1.139,0.96-1.945c0.675,0.33,1.351,0.66,2.026,0.99c0.856,0.215,1.464,0.896,2.606,0.026
		c3.31-2.519,7.343-3.311,11.356-4.018c0,7.81,0,15.621,0,23.597c1.482-0.688,2.723-0.293,4.038-0.314
		c0-4.044-0.118-7.872,0.033-11.688c0.15-3.787-0.694-7.685,0.992-11.364c1.557,3.787,0.75,7.716,0.962,11.564
		c0.212,3.854-0.343,7.748,1.069,11.57c0-7.788,0-15.576,0-23.364c4.157,0.292,7.647,3.248,11.942,2.994
		c0.32,1.1,1.23,0.973,2.068,0.993c-0.019,1.003-0.039,2.006-0.058,3.009c-0.351,0.135-1.079,0.052-0.44,0.76
		c0.144-0.256,0.289-0.511,0.433-0.767c1.169-0.201,0.862-1.828,1.993-2.065l0.01,0.068c0.003,1.307,0.007,2.613,0.01,3.92
		c-1.37,0.571-2.096,1.561-2.009,3.081c-0.788,0.375-1.274,0.834-0.495,1.668c0.598-0.449,0.46-1.084,0.493-1.67
		c1.083-0.255,1.648-1.052,2.077-1.99c2.923,0.642,2.732,2.939,2.978,5.202c0.283,2.596-1.142,5.42,0.944,7.789
		c-0.152,1.175-1.795,0.807-1.998,1.93c-1.059,0.211-2.415-0.411-3.017,1.077l0.024-0.023c-0.571,0.104-0.956,0.393-1.01,1.013
		c-1.364,0.234-3.034-0.746-4.014,1.01l0.028-0.022c-1.384-0.082-2.116,0.496-1.981,1.954c-0.196,2.468,1.621,2,3.054,2.094
		c0.035,0.758-0.125,1.624,0.993,1.784c0.985-0.256,1.658-0.832,1.941-1.826l-0.025,0.023c1.055-0.202,2.427,0.537,3.024-1.02
		l-0.025,0.017C242.996,54.006,244.001,53.999,245.007,53.993z M212.98,70.024c0.111,0.559,0.444,0.891,1.009,0.986
		c0.314,1.027,1.156,1.012,1.991,1.011c2.44,2.247,5.068,2.972,8.029,0.989c0.827-0.011,1.718,0.107,2.001-0.997
		c0.838,0.008,1.683,0.028,2.009-0.997c0.299-0.177,1.095-0.096,0.406-0.784c-0.148,0.249-0.296,0.498-0.444,0.747
		c-0.837-0.005-1.683-0.027-1.994,1.009c-0.821,0.024-1.723-0.113-1.995,1.003c-2.757,0.438-5.223-1.424-7.978-1.009
		c-0.314-1.045-1.168-1.001-2.004-0.994c-0.07-0.588-0.403-0.921-0.984-1.011c-0.09-0.585-0.425-0.917-1.016-0.986
		c0.012-0.839,0.028-1.679-0.996-2.002c-0.023-0.823,0.045-1.691-1.006-1.995c0.001-2.328,0.002-4.655,0.003-6.983
		c1.106-0.274,0.99-1.167,1.008-1.992c0.573-0.096,0.888-0.448,0.993-1.006c0.555-0.11,0.888-0.443,0.997-0.998
		c0.558-0.108,0.891-0.442,1.001-0.999c0.559-0.11,0.893-0.444,1-1.004c0.566-0.101,0.939-0.395,0.994-1.003
		c3.33-0.001,6.659-0.001,9.989-0.002c0.057,0.602,0.424,0.902,0.987,1.01c0.173,0.315,0.114,1.081,0.793,0.405
		c-0.253-0.147-0.506-0.293-0.759-0.44c-0.088-0.584-0.445-0.892-1.012-0.985c-3.337-2.6-6.674-2.581-10.011-0.001
		c-0.57,0.092-0.93,0.398-1.005,0.992c-0.579,0.088-0.927,0.407-1.005,0.998c-0.588,0.08-0.921,0.413-0.999,1.001
		c-0.586,0.079-0.915,0.415-0.998,0.997c-0.59,0.074-0.905,0.426-1.004,0.995c-1.09,0.294-0.989,1.177-0.994,2.009
		c-1.606,2.341-1.626,4.681,0.003,7.021c0.014,0.826-0.127,1.728,0.992,2.008c-0.008,0.838-0.016,1.677,1.009,1.993
		C212.085,69.578,212.417,69.913,212.98,70.024z M228.989,46.987c-0.265,0.181-1.06,0.079-0.4,0.752
		c0.142-0.242,0.284-0.485,0.426-0.727c0.358-0.144,1.073-0.093,0.428-0.784C229.291,46.481,229.14,46.734,228.989,46.987z
		 M230.99,66.989c-0.763,0.372-1.292,0.812-0.509,1.655c0.632-0.42,0.512-1.048,0.531-1.633c0.606-0.063,0.9-0.434,0.993-1.005
		c1.542-2.671,1.542-5.344,0.007-8.018c-0.011-0.828,0.113-1.723-0.992-2.011c-0.172-0.285-0.047-1.085-0.757-0.437
		c0.239,0.159,0.477,0.319,0.716,0.478c0.023,0.823-0.039,1.688,1.01,1.991c0.002,2.662,0.003,5.323,0.005,7.985
		C231.389,66.054,231.093,66.424,230.99,66.989z M202.989,49.015c0.373,0.817,0.849,1.263,1.684,0.495
		c-0.43-0.621-1.066-0.498-1.657-0.526c-0.359-0.815-0.823-1.271-1.667-0.507C201.773,49.097,202.404,48.983,202.989,49.015z
		 M207.988,51.015c0.168,0.288,0.08,1.049,0.751,0.405c-0.241-0.144-0.482-0.288-0.723-0.432c-0.358-0.828-0.828-1.272-1.675-0.511
		C206.766,51.099,207.399,50.986,207.988,51.015z M226.993,45.991c1.007-0.319,1.003-1.155,1.015-1.983
		c1.001-0.325,1.002-1.159,1.012-1.988c0.662-0.342,1.324-0.684,1.986-1.027c0.464,1.298-1.244,2.205-0.594,3.778
		c1.234-0.809,2.311-1.532,2.357-3.033c-0.485-0.736-1.163-0.642-1.775-0.731c-0.066-0.606,0.065-1.274-0.538-1.709
		c-1.147,0.536-1.563,1.473-1.477,2.686c-1.115,0.284-0.989,1.178-0.988,2.01c-1.159,0.266-0.981,1.184-0.982,2.015
		c-0.315,0.136-1.049,0.015-0.44,0.718C226.71,46.481,226.851,46.236,226.993,45.991z M208.993,46.007
		c0.01,0.591-0.1,1.218,0.516,1.653c0.776-0.845,0.303-1.303-0.503-1.665c-0.021-0.822,0.031-1.682-0.998-2.001
		c0.006-0.835,0.028-1.678-0.99-2.008c0.035-1.467-0.607-2.485-1.994-3.009c-0.01-0.829,0.017-1.678-1.002-2.002
		c-0.183-0.28-0.06-1.113-0.776-0.428c0.243,0.158,0.485,0.317,0.728,0.475c0.009,0.829-0.044,1.689,1.004,1.995
		c-0.062,1.487,0.579,2.505,2.002,3.002c0.012,0.828-0.106,1.723,1.012,1.988C208.013,44.831,207.889,45.727,208.993,46.007z
		 M236.975,38.971c-0.79,0.373-1.27,0.834-0.505,1.678c0.637-0.408,0.531-1.038,0.56-1.622c0.358-0.155,1.071-0.129,0.409-0.804
		C237.285,38.473,237.13,38.722,236.975,38.971z M232.017,37.019c1.014-0.343,0.981-1.191,0.978-2.025
		c1.003-0.311,1.014-1.142,1.032-1.969c1.179-0.608,2.229-1.268,1.339-2.878c-1.874,0.446-1.23,1.812-1.392,2.83
		c-1.114,0.297-0.961,1.199-0.968,2.026c-1.126,0.251-1.014,1.147-1.027,1.977c-0.374,0.139-1.06,0.111-0.423,0.791
		C231.709,37.521,231.863,37.27,232.017,37.019z M208.984,35.016c0.008,0.83,0.013,1.661,1.008,1.99
		c-0.036,1.467,0.591,2.496,1.991,3.013c0.179,0.274,0.047,1.097,0.759,0.43c-0.241-0.156-0.482-0.312-0.722-0.468
		c0.064-1.491-0.543-2.53-2.01-2.993c-0.001-0.831,0.132-1.729-0.992-2.005c-0.013-0.829,0.048-1.697-1.019-1.985
		c0.01-0.835,0.135-1.725-0.973-2.022c-0.133-0.873,0.152-2.138-1.515-1.66c0.076,0.987,0.67,1.435,1.464,1.706
		c0.018,0.826-0.008,1.676,1.026,1.974C208.012,33.825,207.962,34.682,208.984,35.016z M209.013,89.013
		c1.115-0.273,0.996-1.167,1.004-1.996c1.125-0.272,0.99-1.173,1-2.002c0.373-0.137,1.061-0.104,0.425-0.786
		c-0.152,0.252-0.303,0.505-0.455,0.757c-1.008,0.331-0.995,1.172-1.001,2.004c-1.007,0.331-0.998,1.169-0.998,2.002
		c-0.8,0.362-1.251,0.825-0.493,1.656C209.089,90.215,208.985,89.594,209.013,89.013z M230.98,84.024
		c0.183,0.275,0.053,1.111,0.77,0.429c-0.241-0.158-0.482-0.317-0.724-0.475c-0.029-0.586,0.077-1.217-0.555-1.631
		C229.705,83.193,230.182,83.655,230.98,84.024z M213.014,82.016c0.804-0.362,1.275-0.822,0.51-1.668
		c-0.623,0.422-0.515,1.051-0.541,1.637c-0.348,0.153-1.067,0.109-0.417,0.789C212.715,82.522,212.865,82.269,213.014,82.016z
		 M233.975,78.029c0.183,0.283,0.067,1.11,0.779,0.428c-0.241-0.161-0.483-0.322-0.724-0.483c-0.033-0.582,0.073-1.211-0.555-1.622
		C232.717,77.19,233.183,77.656,233.975,78.029z M210.009,42.991c0.003-0.834,0.128-1.729-0.998-2
		c0.094-2.305-0.601-4.206-2.734-5.369c0.608,1.947,1.049,3.978,2.713,5.388c0.001,0.833-0.001,1.667,1.003,1.995
		c0.068,1.201,0.114,2.42,2.025,2.325C211.733,44.146,211.204,43.309,210.009,42.991z M206.993,72.99c-1,0.005-2,0.011-3,0.016
		c0.758-1.646,2.984-1.292,3.853-2.848c-0.221-1.078-0.562-2.105-1.581-2.724c-2.057,0.973-4.452,1.021-6.307,2.491
		c0.426,2.563,2.326,2.697,4.05,3.068c-0.198,0.585-0.397,1.171-0.616,1.816c1.84,0.499,2.945-0.22,3.619-1.798
		c0.797-0.22,1.857,0.511,2.491-0.62C208.383,71.754,207.556,71.874,206.993,72.99z M235.019,36.018
		c1.451-0.75,2.643-1.691,3.033-4.233c-1.883,1.433-3.108,2.342-3.067,4.204c-1.198,0.888-1.747,2.058-1.911,3.752
		C235.257,38.942,235.004,37.421,235.019,36.018z M220.83,54.841c-4.466,0.051-6.686,2.614-6.93,7.144
		c-0.171,3.186,3.285,6.812,7.04,6.92c3.865,0.112,7.204-3.357,7.117-7.279C227.958,57.164,225.428,54.789,220.83,54.841z
		 M207.413,80.447c-0.106,0.285-0.235,0.535-0.279,0.799c-0.015,0.088,0.186,0.212,0.288,0.32c0.149-0.197,0.397-0.385,0.416-0.593
		C207.853,80.815,207.573,80.631,207.413,80.447z M203.412,29.448c-0.107,0.285-0.236,0.535-0.281,0.799
		c-0.015,0.087,0.187,0.211,0.289,0.319c0.149-0.197,0.397-0.385,0.416-0.593C203.851,29.815,203.572,29.632,203.412,29.448z
		 M205.264,55.421c0.552,0.578,1.141,0.662,1.244,0.147C206.595,55.132,205.989,55.046,205.264,55.421z M233.472,88.764l0.199-0.336
		l-0.333-0.032L233.472,88.764z M234.48,90.756l0.202-0.341l-0.338-0.033L234.48,90.756z M207.248,92.478l0.321,0.213l0.034-0.365
		L207.248,92.478z M214.475,44.749l0.187-0.318l-0.307-0.032L214.475,44.749z M213.754,42.519l-0.321-0.211l-0.034,0.362
		L213.754,42.519z M235.75,80.521l-0.321-0.213l-0.035,0.364L235.75,80.521z M236.759,82.509l-0.319-0.205l-0.032,0.352
		L236.759,82.509z M215.481,46.752l0.203-0.337l-0.339-0.033L215.481,46.752z M232.258,86.47l0.31,0.208l0.036-0.353L232.258,86.47z
		"/>
	<path style="fill:#F6EDD1;" d="M236.94,93.906c1.319,2.068,3.385,0.677,5.061,1.094c0.648,0.056,1.338,0.007,1.725,0.705
		c-0.069,0.296-0.059,0.798-0.219,0.86c-3.296,1.274-6.283,3.129-9.375,4.8c-2.801,1.514-5.914,1.897-9.09,1.623
		c0.003-0.998,0.007-1.996,0.01-2.993c2.893-0.83,5.904-1.191,8.59-2.803c1.365-0.819,2.455-1.498,2.366-3.229
		C236.319,93.971,236.631,93.953,236.94,93.906z"/>
	<path style="fill:#F6EDD1;" d="M206.034,97.007c3.312-0.125,5.843,2.422,9.096,2.651c0.914,0.064,1.874,0.293,2.829,0.338
		c0.025,1.341,0.05,2.683,0.075,4.024l-0.066-0.031c-4.821-0.755-9.418-2.295-13.973-3.985c0.335-0.679,0.671-1.357,1.006-2.036
		c-0.006-0.293-0.013-0.587-0.022-0.88C205.332,97.061,205.683,97.034,206.034,97.007z"/>
	<path style="fill:#F6EDD1;" d="M218.989,104.01c0.086-4.747,0.165-9.495,0.29-14.241c0.004-0.171,0.459-0.331,0.705-0.496
		c0.25,0.155,0.695,0.284,0.719,0.469c0.628,4.733,0.166,9.487,0.251,14.233c-0.64,0.005-1.28,0.01-1.92,0.015
		C219.035,103.988,218.989,104.01,218.989,104.01z"/>
	<path style="fill:#F4E6C3;" d="M223.963,107.966c-0.641,0.334-1.282,0.668-1.923,1.002c-0.021-1.317-0.043-2.634-0.064-3.951
		c0.129-0.732-0.071-1.655,1.421-1.865C224.466,104.57,223.795,106.351,223.963,107.966z"/>
	<path style="fill:#F1E2B7;" d="M219.035,103.988c0.64-0.005,1.28-0.01,1.92-0.015c0.023,0.35,0.047,0.7,0.07,1.05
		c-0.023,1.651-0.045,3.302-0.068,4.953c-0.642-0.329-1.285-0.658-1.927-0.987C219.031,107.323,219.033,105.656,219.035,103.988z"/>
	<path style="fill:#E8CF90;" d="M220.957,109.977c0.023-1.651,0.045-3.302,0.068-4.953c0.317-0.015,0.634-0.017,0.951-0.007
		c0.021,1.317,0.043,2.634,0.064,3.951c0,1.469,0,2.938,0,5.267C220.629,112.415,221.157,111.117,220.957,109.977z"/>
	<path style="fill:#F1E2B7;" d="M186.982,92.043c0.159-3.177-1.008-6.343-0.009-9.542c0.21-0.674,0.391-1.209,1.039-1.508
		c0.663,0.002,1.327,0.003,1.99,0.005c-0.417,6.8,0.547,13.031,7,17.003c0.002,0.85-0.086,1.746,1.024,2.04
		c0,0.284-0.004,0.567-0.013,0.851c-0.3,1.051-0.968,1.75-2.002,2.102c-2.523,0.574-3.722-1.355-5.262-2.716
		c-1.375-1.215-1.998-2.871-2.874-4.385C188.279,94.446,187.643,93.241,186.982,92.043z"/>
	<path style="fill:#EDDAA4;" d="M207.979,108.988c-0.362,0.659-0.724,1.319-1.086,1.978c-3.49,0.247-5.764-2.428-8.778-3.355
		c-0.046-1.034-0.082-1.825-0.117-2.615c0.564-0.112,0.896-0.457,1.018-1.013C202.73,104.35,204.819,107.628,207.979,108.988z"/>
	<path style="fill:#DFC29C;" d="M199.016,103.983c-0.122,0.556-0.453,0.902-1.018,1.013c-1.006-0.327-1.674-0.989-1.986-2.004
		c1.034-0.352,1.702-1.051,2.002-2.102c0.656-0.305,1.312-0.61,1.968-0.914C200.285,101.463,199.689,102.732,199.016,103.983z"/>
	<path style="fill:#F1E2B7;" d="M199.016,103.983c0.674-1.251,1.269-2.521,0.966-4.007l-0.008,0.015
		c0.997-0.772,3.226-1.12,1.028-2.991c0.095-0.546,0.409-0.884,0.954-1.002c0.347,0.001,0.694,0.002,1.042,0.003
		c-0.097,1.436,0.554,2.109,2.004,1.968c-0.335,0.679-0.671,1.357-1.006,2.036c-0.172,1.956,0.293,3.429,2.418,4.169
		c3.771,1.314,7.37,3.248,11.56,2.82c-0.002,0.996-0.003,1.992-0.005,2.988c-1.685,0.019-3.369,0.037-5.054,0.056
		c-1.436-1.336-3.221-1.031-4.937-1.051C204.819,107.628,202.73,104.35,199.016,103.983z"/>
	<path style="fill:#F4E6C3;" d="M217.974,106.994c-4.19,0.428-7.789-1.507-11.56-2.82c-2.125-0.74-2.59-2.214-2.418-4.169
		c4.554,1.69,9.152,3.23,13.973,3.985C217.971,104.991,217.973,105.992,217.974,106.994z"/>
	<path style="fill:#F4E6C3;" d="M197,53.049c-0.094,3.471,1.581,6.754,1.017,10.291c-0.508,3.19-0.874,6.373,0.748,9.458
		c0.252,0.479-0.485,1.478-0.764,2.237c-1.95,2.884-4.935,2.971-7.962,2.944c1.704-3.111,1.349-6.693,1.755-9.978
		c0.719-5.816,0.201-11.784,0.014-17.672c-0.643-1.907-4.098-0.483-3.789-3.257c0.652-0.013,1.305-0.027,1.957-0.04
		c0.686,1.204,1.495,1.385,2.794-0.069c-1.133,0-1.933,0-2.734,0c-0.31-1.022-1.051-1.615-1.997-2.004
		c-0.017-0.304-0.027-0.608-0.028-0.912c1.584-0.378,2.785,1.689,4.512,0.681c-0.532-1.041-1.643-1.234-2.513-1.76
		c0.985-1.417,1.201-3.024,0.976-4.667c-0.749-5.461,1.417-9.451,5.986-12.337c0.771-0.487,1.34-1.294,2.003-1.953
		c0.139,0.546,0.478,0.885,1.034,0.999l-0.018-0.02c0.103,0.578,0.423,0.937,1.02,1.02l-0.019-0.019
		c0.006,0.653,0.012,1.306,0.018,1.959c-0.004,0.684-0.007,1.368-0.011,2.052c-0.591,0.09-0.918,0.454-1.055,1.015
		c-0.498-0.575-0.996-1.15-1.403-1.621c-3.827,5.047-3.679,10.772-3.563,16.514c0.03,1.471,0.615,2.105,2.026,2.09
		c-0.057,1.207,0.338,2.148,1.673,2.277c-0.303,0.776-0.478,1.224-0.653,1.671c-0.339,0.014-0.679,0.028-1.018,0.042
		c-0.653-1.242-1.523-1.323-2.606-0.509c0.761,0.859,1.73,0.416,2.592,0.525C196.994,52.355,196.997,52.702,197,53.049z"/>
	<path style="fill:#F1E2B7;" d="M198.974,24.011c-0.662,0.659-1.231,1.466-2.003,1.953c-4.569,2.886-6.735,6.876-5.986,12.337
		c0.225,1.643,0.01,3.25-0.976,4.667c-1.018-0.272-1.817-1.18-2.982-1.023c0.825-3.319,1.936-6.64-0.03-9.951
		c0.358-0.99,1.164-1.829,1.014-2.992c2.388-0.033,3.127-1.917,4.311-3.521c1.143-1.549,1.782-4.162,4.682-3.485
		c0.319-0.004,0.639,0.003,0.958,0.022C198.299,22.683,198.636,23.347,198.974,24.011z"/>
	<path style="fill:#E3C9A5;" d="M190.039,77.978c3.027,0.027,6.011-0.06,7.962-2.944c1.122,0,2.244,0,3.74,0
		c-1.426,1.958-4.082,1.79-4.835,3.908c-0.961,0.039-1.923,0.077-2.884,0.116c-1.34,0.646-2.68,1.293-4.021,1.939
		c-0.663-0.002-1.327-0.003-1.99-0.005C188.001,79.526,187.704,77.867,190.039,77.978z"/>
	<path style="fill:#E8CF90;" d="M187.027,41.946c1.165-0.157,1.964,0.751,2.982,1.023c0.871,0.526,1.981,0.718,2.513,1.76
		c-1.727,1.007-2.927-1.06-4.512-0.681c-0.144-0.737-0.827-0.839-1.32-1.198C186.07,42.396,186.62,42.145,187.027,41.946z"/>
	<path style="fill:#E8CF90;" d="M188.039,44.958c0.946,0.389,1.687,0.982,1.997,2.004l-0.06,0.069
		c-0.652,0.013-1.305,0.027-1.957,0.04c-0.129-0.941-1.185-0.924-1.618-1.545C186.798,44.875,187.46,45.037,188.039,44.958z"/>
	<path style="fill:#F1E2B7;" d="M239.062,26.994c-0.839-0.02-1.748,0.107-2.068-0.993c0.342-0.998,1.234-1.812,1.009-3.001
		c1.929-1.371,0.426-2.232-0.593-2.785c-3.844-2.087-7.837-3.76-12.383-3.21c0.007-1.326,0.014-2.652,0.02-3.979
		c2.263,0.003,4.526,0.005,6.789,0.008c1.607,3.341,1.653,3.359,5.133,1.943c2.427,1.609,4.706,3.603,7.961,3.063
		c0.153,0.547,0.5,0.887,1.065,0.992c0.144,1.691,0.955,2.865,2.215,4.098c4.423,4.323,7.813,9.211,6.812,15.928
		c-0.144,0.964-0.012,1.97-0.007,2.956c-0.201,1.147-1.837,0.811-2.031,1.965c-0.659,0.009-1.318,0.019-1.977,0.028
		c-0.002-2.641-0.039-5.282,0.004-7.923c0.052-3.169-1.526-5.644-3.417-7.931c-1.012-1.225-2.318-2.024-3.595-0.154
		c-1,0-1.999,0-2.999,0.001l-0.01-0.068C241.214,25.838,240.1,26.495,239.062,26.994z M243.469,25.711l0.182-0.275l-0.295-0.036
		L243.469,25.711z"/>
	<path style="fill:#EDDAA4;" d="M255.015,42.014c-0.004-0.986-0.136-1.992,0.007-2.956c1-6.717-2.389-11.605-6.812-15.928
		c-1.261-1.232-2.071-2.406-2.215-4.098c0.25-0.726,0.855-1.215,1.482-0.819c3.973,2.51,8.319,4.694,9.57,9.857
		c-0.043,5.279-0.043,5.279,3.942,5.888c0.251,2.844-0.903,5.425-1.577,8.086c-0.284,1.121-0.923,2.156-2.414,1.957
		C257.103,42.576,256.452,41.903,255.015,42.014z"/>
	<path style="fill:#EDDAA4;" d="M244.929,18.041c-3.254,0.541-5.533-1.454-7.961-3.063c0.113-0.523,0.396-0.894,0.928-1.044
		c1.317,0,2.634,0,4.2,0C242.758,15.487,245.132,15.763,244.929,18.041z"/>
	<path style="fill:#E6CC84;" d="M197.961,22.019c-0.319-0.019-0.639-0.026-0.958-0.022c0-0.999-0.002-1.998-0.004-2.995
		c0.324-0.005,0.648-0.002,0.972,0.01l0.061-0.008c-0.277,1.2,0.652,1.995,1.002,2.985
		C198.676,21.999,198.319,22.009,197.961,22.019z"/>
	<path style="fill:#E6CC84;" d="M195.999,19.003c0.002-0.666,0.003-1.332,0.005-1.998c1.044,0.317,0.99,1.168,0.973,2.001
		l-0.489,0.01L195.999,19.003z"/>
	<path style="fill:#DFC29C;" d="M225.052,23.007c0,7.788,0,15.576,0,23.364c-1.412-3.822-0.857-7.716-1.069-11.57
		c-0.211-3.848,0.596-7.778-0.962-11.564c-1.686,3.679-0.842,7.577-0.992,11.364c-0.151,3.816-0.033,7.643-0.033,11.688
		c-1.314,0.021-2.556-0.375-4.038,0.314c0-7.977,0-15.787,0-23.597c-0.001-1.33-0.003-2.659-0.004-3.989c0.002-1,0.004-2,0.005-3
		c0.006-0.665,0.012-1.331,0.017-1.996c0.005-1.329,0.009-2.658,0.014-3.986c0.194-0.192,0.502-0.581,0.565-0.544
		c0.614,0.352,0.377,1.004,0.462,1.548c0.008,1.336,0.016,2.672,0.024,4.008c0.003,1.987,0.005,3.974,0.008,5.961
		c0.231,3.914-0.718,7.923,0.982,11.754c1.52-4.175,0.757-8.486,0.909-12.73c0.252-0.834-0.411-1.906,0.641-2.543
		c0.841,0.561-0.039,2.095,1.372,2.322c1.132-0.137,0.931-1.078,1.06-1.823c0.321,0.003,0.643,0.003,0.964-0.001
		c0.022,0.676,0.043,1.352,0.065,2.029C225.045,21.011,225.049,22.009,225.052,23.007z"/>
	<path style="fill:#F4E6C3;" d="M225.042,20.014c-0.022-0.676-0.043-1.352-0.065-2.029c0.014-0.327,0.031-0.653,0.05-0.979
		c4.546-0.55,8.539,1.123,12.383,3.21c1.019,0.553,2.522,1.414,0.593,2.785C233.722,21.831,229.788,19.162,225.042,20.014z"/>
	<path style="fill:#F4E6C3;" d="M224.013,17.986c-0.129,0.744,0.072,1.686-1.06,1.823c-1.411-0.226-0.53-1.761-1.372-2.322
		c-1.052,0.637-0.389,1.709-0.641,2.543c-0.631,0.325-1.261,0.651-1.892,0.976c-0.003-1.987-0.005-3.974-0.008-5.961
		c1.642-0.005,3.284-0.01,4.925-0.015C223.982,16.015,223.997,17,224.013,17.986z"/>
	<path style="fill:#EDDAA4;" d="M217.99,10.034c-0.005,1.329-0.009,2.658-0.014,3.986c-1.697-0.025-3.393-0.051-5.09-0.076
		c-0.022-0.965-0.043-1.93-0.065-2.894C214.625,11.118,216.1,9.521,217.99,10.034z"/>
	<path style="fill:#EDDAA4;" d="M223.967,15.03c-1.642,0.005-3.284,0.01-4.925,0.015c-0.008-1.336-0.016-2.672-0.024-4.008
		c1.095,0,2.19,0,3.372,0C222.949,12.454,223.458,13.742,223.967,15.03z"/>
	<path style="fill:#EDDAA4;" d="M206.912,12.03c0.059,0.922,0.118,1.844,0.177,2.767c-0.464,1.514-1.971,1.657-3.091,2.159
		c-1.896,0.85-2.119,2.311-1.995,4.045c-1.887,0.455-2.106-2.409-3.971-1.997l-0.061,0.008c-0.172-1.684,0.426-3.134,1.495-4.666
		C201.995,14.114,203.975,11.622,206.912,12.03z"/>
	<path style="fill:#F1E2B7;" d="M202.003,21.001c-0.125-1.734,0.098-3.196,1.995-4.045c1.12-0.502,2.627-0.645,3.091-2.159
		c2.288,2.13,4.041,0.627,5.798-0.853c1.697,0.025,3.393,0.051,5.09,0.076c-0.006,0.665-0.012,1.331-0.017,1.996
		C212.451,17.072,207.184,18.898,202.003,21.001z"/>
	<path style="fill:#E3C9A5;" d="M237.007,72.99c1,0.017,2,0.034,3,0.05c0.649,0.014,1.298,0.028,1.947,0.042
		c-0.047,0.33-0.093,0.66-0.14,0.989c-0.496,0.098-0.738,0.421-0.804,0.902c-1.736,0.155-3.325,0.011-4.022-1.962L237.007,72.99z"/>
	<path style="fill:#E3C9A5;" d="M243.002,75.975c-0.564-0.091-0.919-0.381-0.938-0.989C242.61,75.095,242.912,75.434,243.002,75.975
		z"/>
	<path style="fill:#E3C9A5;" d="M245.007,53.993c-1.005,0.006-2.01,0.013-3.016,0.019c0.808-1.718,3.217-1.3,4.025-3.018
		c0.663,0.003,1.326,0.007,1.989,0.01C248.145,53.144,246.181,53.173,245.007,53.993z"/>
	<path style="fill:#F6EDD1;" d="M241.001,28c1,0,1.999,0,2.999-0.001c2.799,3.391,4.421,7.154,4.028,11.681
		c-0.241,2.781-0.123,5.574,0.944,8.231c-0.655,0.04-1.309,0.08-1.964,0.12c-0.304-1.039-0.982-1.708-2.01-2.031
		c-2.086-2.37-0.661-5.193-0.944-7.789c-0.246-2.263-0.054-4.56-2.978-5.202c-0.022-0.363-0.044-0.726-0.066-1.089
		C241.007,30.613,241.004,29.306,241.001,28z"/>
	<path style="fill:#F6EDD1;" d="M246.016,50.994c-0.808,1.718-3.217,1.299-4.025,3.018l0.025-0.017
		c-0.34-0.007-0.679-0.015-1.019-0.022c-0.33-1.317-0.66-2.633-0.991-3.95c0-0.346,0.001-0.693,0.001-1.039
		c0,0-0.024,0.023-0.024,0.023c0.675,0.019,1.349,0.038,2.024,0.057c0.124,0.543,0.472,0.846,1.011,0.946
		C243.601,51.604,244.98,50.777,246.016,50.994z"/>
	<path style="fill:#F4E6C3;" d="M244.998,46c1.028,0.323,1.705,0.992,2.01,2.031c-0.641,1.221-1.99,1.335-3.026,1.938
		c-0.097-0.562-0.445-0.869-0.99-0.977c0.003-0.354,0.006-0.708,0.009-1.062C243.203,46.807,244.846,47.175,244.998,46z"/>
	<path style="fill:#F6EED7;" d="M242.991,48.992c0.545,0.107,0.893,0.415,0.99,0.977c-0.32,0.03-0.641,0.044-0.963,0.041
		c-0.539-0.1-0.887-0.403-1.011-0.946C242.334,49.021,242.662,48.997,242.991,48.992z"/>
	<path style="fill:#CA9964;" d="M220.83,54.841c4.598-0.052,7.128,2.323,7.227,6.785c0.087,3.922-3.252,7.391-7.117,7.279
		c-3.755-0.109-7.211-3.734-7.04-6.92C214.143,57.455,216.364,54.892,220.83,54.841z"/>
	<path style="fill:#F4E6C3;" d="M202.003,21.001c5.181-2.103,10.448-3.929,15.956-4.985c-0.002,1-0.004,2-0.005,3
		c-4.857,0.624-9.314,2.435-13.958,4.762c0,0.966,0,2.092,0,3.218c-0.675-0.33-1.351-0.66-2.026-0.99
		c-0.326-0.011-0.652-0.016-0.979-0.015l0.019,0.019c-0.097-0.583-0.413-0.947-1.02-1.02l0.018,0.02
		c-0.112-1.076,0.482-2.379-0.975-3.021c-0.349-0.99-1.279-1.785-1.002-2.985C199.897,18.592,200.116,21.456,202.003,21.001z"/>
	<path style="fill:#F6EDD1;" d="M194.023,79.058c0.961-0.039,1.923-0.077,2.884-0.116c2.013,1.253,0.796,3.236,1.075,4.873
		c0.449,2.636,0.174,5.542,2.991,7.181c-0.669,1.328-1.337,2.655-2.006,3.983c-1.572-0.719-2.309-2.122-3.241-3.497
		C193.066,87.56,194.287,83.232,194.023,79.058z"/>
	<path style="fill:#F6EDD1;" d="M197.003,48.002c-1.411,0.015-1.996-0.619-2.026-2.09c-0.116-5.742-0.264-11.467,3.563-16.514
		c0.407,0.47,0.905,1.045,1.403,1.621c0.337,0.663,0.674,1.325,1.011,1.988c-1.354,0.542-2.038,1.527-1.953,2.998
		c0.214,3.704-0.119,7.357-0.997,10.961c-0.534,0.147-0.884,0.473-0.998,1.028L197.003,48.002z"/>
	<path style="fill:#F6EDD1;" d="M203.996,26.996c0-1.126,0-2.252,0-3.218c4.644-2.328,9.101-4.138,13.958-4.762
		c0.002,1.33,0.003,2.659,0.004,3.989c-4.014,0.707-8.046,1.499-11.356,4.018C205.46,27.892,204.852,27.212,203.996,26.996z"/>
	<path style="fill:#F6EDD1;" d="M225.042,20.014c4.746-0.852,8.68,1.817,12.96,2.987c0.225,1.189-0.667,2.002-1.009,3.001
		c-4.294,0.253-7.784-2.702-11.942-2.994C225.049,22.009,225.045,21.011,225.042,20.014z"/>
	<path style="fill:#F6EDD1;" d="M201.956,95.998c-0.545,0.118-0.859,0.456-0.954,1.002c-0.325,1.003-1.257,1.797-1.028,2.991
		l0.008-0.015c-0.656,0.305-1.312,0.61-1.968,0.914c0.009-0.283,0.013-0.567,0.013-0.851c-0.005-0.674-0.011-1.348-0.016-2.022
		l0.008-0.013c1.143-0.262,1.002-1.164,0.997-1.999l-0.003,0.008c2.567-1.641,3.218-4.372,3.997-7.03l-0.021,0.028
		c1.076-0.305,1.021-1.178,1.018-2.026l-0.017,0.023c1.092-0.295,1.019-1.177,1.016-2.022l-0.016,0.02
		c0.589-0.094,0.911-0.472,1.08-1.013c0.803,0.045,1.607,0.089,2.464,0.137c0.722,2.598-1.471,3.421-2.524,4.847
		c-1.442,0.502-2.059,1.55-2.013,3.038l0.019-0.025c-1.068,0.308-1.018,1.178-1.017,2.024l0.016-0.021
		C201.934,94.278,202.014,95.174,201.956,95.998z"/>
	<path style="fill:#E3C9A5;" d="M204.008,72.993c-1.724-0.371-3.624-0.505-4.05-3.068c1.855-1.47,4.25-1.518,6.307-2.491
		c1.019,0.619,1.36,1.647,1.581,2.724c-0.869,1.556-3.095,1.203-3.853,2.848L204.008,72.993z"/>
	<path style="fill:#F6EDD1;" d="M236.083,55.033c-1.432-0.094-3.25,0.374-3.054-2.094c0.985-0.322,1.708-0.91,1.981-1.954
		c0,0-0.028,0.022-0.028,0.022c0.68,0.022,1.361,0.043,2.041,0.065c0.661,0.983,1.323,1.966,1.984,2.949
		c0,0.332-0.005,0.663-0.017,0.995l0.025-0.023C238.039,55.006,237.061,55.02,236.083,55.033z"/>
	<path style="fill:#E3C9A5;" d="M225.995,51.005c-3.33,0.001-6.659,0.001-9.989,0.002l-0.013-0.012
		c3.337-2.58,6.674-2.598,10.011,0.001L225.995,51.005z"/>
	<path style="fill:#E3C9A5;" d="M216.015,71.981c2.754-0.415,5.22,1.447,7.978,1.009l0.017,0.019
		c-2.961,1.983-5.589,1.258-8.029-0.989L216.015,71.981z"/>
	<path style="fill:#E3C9A5;" d="M203.008,88.984c-0.778,2.658-1.429,5.389-3.997,7.03c-0.014-0.345-0.029-0.69-0.043-1.035
		c0.669-1.328,1.337-2.655,2.006-3.983C201.384,90.055,201.941,89.262,203.008,88.984z"/>
	<path style="fill:#F6EDD1;" d="M237.022,68.1c-0.009,1.448,0.209,3.056-2.05,2.93c0,0-0.002,0.008-0.002,0.008
		c-0.59-0.663-1.18-1.326-1.758-1.976c0.177-1.149,1.08-0.967,1.82-1.07C235.696,68.027,236.359,68.064,237.022,68.1z"/>
	<path style="fill:#E3C9A5;" d="M208.99,41.01c-1.664-1.41-2.105-3.441-2.713-5.388c2.133,1.164,2.828,3.064,2.734,5.369
		L208.99,41.01z"/>
	<path style="fill:#E3C9A5;" d="M232.012,57.988c1.535,2.674,1.535,5.347-0.007,8.018l-0.012-0.012
		c-0.002-2.662-0.003-5.323-0.005-7.985L232.012,57.988z"/>
	<path style="fill:#E3C9A5;" d="M210.012,58.01c-0.001,2.328-0.002,4.655-0.003,6.983l-0.019,0.017
		c-1.628-2.34-1.609-4.68-0.003-7.021L210.012,58.01z"/>
	<path style="fill:#E3C9A5;" d="M230.994,41.006c0.612,0.089,1.29-0.004,1.775,0.731c-0.046,1.501-1.122,2.223-2.357,3.033
		c-0.65-1.573,1.058-2.479,0.594-3.778L230.994,41.006z"/>
	<path style="fill:#E3C9A5;" d="M236.989,73.011c-1.211-0.097-2.499,0.325-3.609-0.515c-0.46-1.582,0.728-1.343,1.59-1.459
		l0.002-0.008c0.177,1.174,1.859,0.786,2.036,1.961L236.989,73.011z"/>
	<path style="fill:#E3C9A5;" d="M234.985,35.989c-0.041-1.862,1.184-2.772,3.067-4.204c-0.391,2.542-1.583,3.483-3.033,4.233
		L234.985,35.989z"/>
	<path style="fill:#E3C9A5;" d="M207.011,73.012c-0.673,1.578-1.779,2.297-3.619,1.798c0.219-0.645,0.417-1.231,0.616-1.816
		l-0.015,0.014c1-0.005,2-0.011,3-0.016L207.011,73.012z"/>
	<path style="fill:#E3C9A5;" d="M236.083,55.033c0.978-0.014,1.956-0.028,2.934-0.042c-0.283,0.993-0.956,1.57-1.941,1.826
		C235.957,56.658,236.117,55.791,236.083,55.033z"/>
	<path style="fill:#E3C9A5;" d="M235.019,36.018c-0.015,1.402,0.238,2.924-1.945,3.723c0.165-1.694,0.713-2.864,1.911-3.752
		L235.019,36.018z"/>
	<path style="fill:#E3C9A5;" d="M239.062,26.994c1.038-0.499,2.152-1.156,1.928,0.938c-1.132,0.237-0.824,1.864-1.993,2.065
		l0.007,0.007C239.023,29,239.043,27.997,239.062,26.994z"/>
	<path style="fill:#E3C9A5;" d="M233.973,32.979c0.163-1.018-0.481-2.384,1.392-2.83c0.889,1.61-0.16,2.27-1.339,2.878
		L233.973,32.979z"/>
	<path style="fill:#E3C9A5;" d="M200.955,33.006c-0.337-0.663-0.674-1.325-1.011-1.988c0.137-0.561,0.464-0.926,1.055-1.015
		c0.661,1.251,1.294,2.51,0.998,4l0.006-0.006C201.442,33.889,201.109,33.542,200.955,33.006z"/>
	<path style="fill:#E3C9A5;" d="M203.994,92.015c-0.046-1.488,0.571-2.536,2.013-3.038
		C206.071,90.477,205.477,91.541,203.994,92.015z"/>
	<path style="fill:#E3C9A5;" d="M237.024,51.071c-0.68-0.022-1.361-0.043-2.041-0.065c0.981-1.757,2.65-0.776,4.014-1.01
		l0.005,0.007C238.691,51.003,237.823,50.974,237.024,51.071z"/>
	<path style="fill:#E3C9A5;" d="M206.034,97.007c-0.351,0.027-0.703,0.054-1.054,0.082c-0.094-1.178,0.268-2.132,1.404-2.77
		C207.722,95.392,205.923,96.098,206.034,97.007z"/>
	<path style="fill:#E3C9A5;" d="M236.94,93.906c-0.309,0.047-0.62,0.066-0.933,0.056c-0.709-0.263-1.042-0.731-0.602-1.425
		c0.123-0.194,0.614-0.347,0.826-0.258C236.93,92.572,236.925,93.262,236.94,93.906z"/>
	<path style="fill:#E3C9A5;" d="M210.01,36.99c1.467,0.463,2.074,1.502,2.01,2.993l-0.037,0.037c-1.4-0.518-2.027-1.546-1.991-3.013
		L210.01,36.99z"/>
	<path style="fill:#E3C9A5;" d="M241.011,31.919c0.022,0.363,0.044,0.726,0.066,1.089c-0.429,0.938-0.994,1.735-2.077,1.99
		l0.002,0.002C238.915,33.481,239.641,32.49,241.011,31.919z"/>
	<path style="fill:#E3C9A5;" d="M210.009,42.991c1.195,0.318,1.724,1.154,2.009,2.34c-1.912,0.094-1.957-1.125-2.025-2.325
		L210.009,42.991z"/>
	<path style="fill:#F6EDD1;" d="M241.955,73.082c-0.649-0.014-1.298-0.028-1.947-0.042c0.095-0.736-0.117-1.787,1.011-1.762
		C242.138,71.304,241.902,72.337,241.955,73.082z"/>
	<path style="fill:#E3C9A5;" d="M206.98,42.02c-1.423-0.496-2.064-1.515-2.002-3.002l0.045-0.041
		c1.387,0.524,2.029,1.542,1.994,3.009L206.98,42.02z"/>
	<path style="fill:#E3C9A5;" d="M231.006,40.993c-0.662,0.342-1.324,0.684-1.986,1.027l-0.041-0.036
		c-0.086-1.213,0.33-2.15,1.475-2.686c0.605,0.435,0.474,1.103,0.54,1.709L231.006,40.993z"/>
	<path style="fill:#E3C9A5;" d="M235.011,50.985c-0.274,1.044-0.996,1.632-1.981,1.954
		C232.894,51.481,233.627,50.903,235.011,50.985z"/>
	<path style="fill:#E3C9A5;" d="M197.006,47.994c0.113-0.555,0.464-0.881,0.998-1.028c0.567,0.086,1.241-0.093,1.552,0.642
		C198.793,48.307,197.855,47.86,197.006,47.994z"/>
	<path style="fill:#E3C9A5;" d="M238.991,55.015c0.011-0.332,0.017-0.663,0.017-0.995c0.663-0.016,1.325-0.032,1.988-0.047
		c0.34,0.007,0.679,0.015,1.019,0.022C241.418,55.552,240.046,54.813,238.991,55.015z"/>
	<path style="fill:#E3C9A5;" d="M242.991,48.992c-0.329,0.005-0.657,0.029-0.984,0.072c-0.675-0.019-1.349-0.038-2.024-0.057
		c0.602-1.488,1.958-0.867,3.017-1.077C242.997,48.283,242.994,48.638,242.991,48.992z"/>
	<path style="fill:#E3C9A5;" d="M199.028,52.967c1.056,0.156,2.382-0.465,2.975,1.029l-0.006,0.007
		c-1.078-0.109-2.389,0.505-3.03-0.97L199.028,52.967z"/>
	<path style="fill:#E3C9A5;" d="M206.975,31.025c-0.794-0.271-1.388-0.719-1.464-1.706c1.668-0.478,1.383,0.787,1.515,1.66
		L206.975,31.025z"/>
	<path style="fill:#E3C9A5;" d="M206.993,72.99c0.563-1.116,1.391-1.237,2.509-0.599c-0.633,1.131-1.694,0.4-2.491,0.62
		L206.993,72.99z"/>
	<path style="fill:#E3C9A5;" d="M225.987,71.987c0.311-1.036,1.157-1.013,1.994-1.009l0.038,0.038
		c-0.326,1.025-1.17,1.005-2.009,0.997L225.987,71.987z"/>
	<path style="fill:#E3C9A5;" d="M197,53.049c-0.003-0.347-0.005-0.694-0.008-1.041c0,0,0.014-0.016,0.014-0.016
		c0.339-0.014,0.679-0.028,1.018-0.042c0.536,0.14,0.907,0.443,1.004,1.017l-0.061,0.066C198.312,53.039,197.656,53.044,197,53.049z
		"/>
	<path style="fill:#E3C9A5;" d="M223.992,72.99c0.272-1.116,1.174-0.979,1.995-1.003l0.023,0.026
		c-0.283,1.104-1.174,0.986-2.001,0.997L223.992,72.99z"/>
	<path style="fill:#E3C9A5;" d="M233.975,78.029c-0.792-0.373-1.258-0.838-0.5-1.677c0.628,0.411,0.522,1.039,0.555,1.622
		L233.975,78.029z"/>
	<path style="fill:#F6EDD1;" d="M207.413,80.447c0.16,0.184,0.439,0.368,0.425,0.525c-0.018,0.208-0.266,0.397-0.416,0.593
		c-0.102-0.108-0.303-0.232-0.288-0.32C207.179,80.982,207.307,80.732,207.413,80.447z"/>
	<path style="fill:#E3C9A5;" d="M212.983,81.985c0.026-0.586-0.082-1.215,0.541-1.637c0.766,0.846,0.295,1.306-0.51,1.668
		L212.983,81.985z"/>
	<path style="fill:#E3C9A5;" d="M230.98,84.024c-0.798-0.369-1.275-0.831-0.509-1.677c0.632,0.414,0.526,1.045,0.555,1.631
		L230.98,84.024z"/>
	<path style="fill:#E3C9A5;" d="M206.068,83.994c-0.169,0.541-0.492,0.919-1.08,1.013c0.047-0.566-0.193-1.238,0.482-1.571
		C205.557,83.393,205.863,83.797,206.068,83.994z"/>
	<path style="fill:#DFC29C;" d="M200.991,25.991c0.326-0.001,0.653,0.004,0.979,0.015c-0.001,0.806,0.172,1.697-0.96,1.945
		C201.003,27.297,200.997,26.644,200.991,25.991z"/>
	<path style="fill:#F4E6C3;" d="M203.412,29.448c0.159,0.184,0.439,0.368,0.425,0.525c-0.019,0.209-0.267,0.396-0.416,0.593
		c-0.103-0.107-0.304-0.231-0.289-0.319C203.176,29.982,203.305,29.732,203.412,29.448z"/>
	<path style="fill:#E3C9A5;" d="M205.004,84.986c0.002,0.846,0.076,1.727-1.016,2.022C203.991,86.166,203.865,85.258,205.004,84.986
		z"/>
	<path style="fill:#E3C9A5;" d="M209.986,86.989c0.006-0.832-0.007-1.673,1.001-2.004l0.029,0.029c-0.01,0.829,0.125,1.73-1,2.002
		L209.986,86.989z"/>
	<path style="fill:#E3C9A5;" d="M204.005,86.986c0.003,0.847,0.057,1.721-1.018,2.026C202.992,88.169,202.862,87.257,204.005,86.986
		z"/>
	<path style="fill:#E3C9A5;" d="M210.017,87.016c-0.008,0.83,0.111,1.723-1.004,1.996l-0.024-0.022
		c-0.001-0.833-0.009-1.671,0.998-2.002L210.017,87.016z"/>
	<path style="fill:#E3C9A5;" d="M208.001,32.999c-1.035-0.298-1.008-1.148-1.026-1.974l0.051-0.046
		c1.108,0.297,0.984,1.187,0.973,2.022L208.001,32.999z"/>
	<path style="fill:#E3C9A5;" d="M209.013,89.013c-0.028,0.581,0.076,1.202-0.518,1.634c-0.757-0.831-0.307-1.293,0.493-1.656
		L209.013,89.013z"/>
	<path style="fill:#E3C9A5;" d="M207.999,33.001c1.067,0.288,1.006,1.156,1.019,1.985l-0.034,0.031
		c-1.022-0.334-0.971-1.191-0.983-2.017L207.999,33.001z"/>
	<path style="fill:#E3C9A5;" d="M233.005,35.004c0.007-0.826-0.146-1.729,0.968-2.026l0.053,0.047
		c-0.018,0.827-0.029,1.658-1.032,1.969L233.005,35.004z"/>
	<path style="fill:#E3C9A5;" d="M232.995,34.995c0.003,0.834,0.036,1.682-0.978,2.025l-0.039-0.038
		c0.014-0.83-0.099-1.725,1.027-1.977L232.995,34.995z"/>
	<path style="fill:#E3C9A5;" d="M238.999,34.999c-0.033,0.587,0.105,1.221-0.493,1.67c-0.778-0.834-0.293-1.294,0.495-1.668
		L238.999,34.999z"/>
	<path style="fill:#E3C9A5;" d="M202.996,94.014c-0.001-0.846-0.052-1.716,1.017-2.024
		C204.008,92.832,204.156,93.751,202.996,94.014z"/>
	<path style="fill:#E3C9A5;" d="M204.021,36.975c1.019,0.324,0.992,1.173,1.002,2.002l-0.045,0.041
		c-1.048-0.306-0.995-1.166-1.004-1.995L204.021,36.975z"/>
	<path style="fill:#E3C9A5;" d="M237.031,39.027c-0.03,0.585,0.077,1.214-0.56,1.622c-0.765-0.843-0.285-1.305,0.505-1.678
		L237.031,39.027z"/>
	<path style="fill:#E3C9A5;" d="M209.011,40.992c1.126,0.271,1.002,1.165,0.998,2l-0.016,0.014
		c-1.004-0.328-1.002-1.163-1.003-1.995L209.011,40.992z"/>
	<path style="fill:#E3C9A5;" d="M207.992,44.008c-1.118-0.265-1-1.16-1.012-1.988l0.038-0.034c1.019,0.33,0.997,1.173,0.99,2.008
		L207.992,44.008z"/>
	<path style="fill:#E3C9A5;" d="M201.956,95.998c0.058-0.823-0.022-1.719,1.056-2.005c-0.005,0.669-0.01,1.339-0.015,2.008
		C202.65,96,202.303,95.999,201.956,95.998z"/>
	<path style="fill:#E3C9A5;" d="M227.991,43.993c-0.001-0.832-0.128-1.726,0.988-2.01l0.041,0.036
		c-0.01,0.829-0.011,1.663-1.012,1.988L227.991,43.993z"/>
	<path style="fill:#E3C9A5;" d="M208.993,46.007c-1.105-0.28-0.98-1.176-1.002-1.998l0.016-0.014
		c1.029,0.32,0.977,1.179,0.998,2.001L208.993,46.007z"/>
	<path style="fill:#E3C9A5;" d="M227.009,46.008c0.001-0.831-0.177-1.748,0.982-2.015l0.016,0.015
		c-0.012,0.828-0.008,1.665-1.015,1.983L227.009,46.008z"/>
	<path style="fill:#E3C9A5;" d="M209.006,45.995c0.807,0.362,1.279,0.82,0.503,1.665c-0.616-0.436-0.506-1.063-0.516-1.653
		L209.006,45.995z"/>
	<path style="fill:#E3C9A5;" d="M207.988,51.015c-0.589-0.028-1.221,0.084-1.647-0.538c0.847-0.762,1.317-0.318,1.675,0.511
		L207.988,51.015z"/>
	<path style="fill:#E3C9A5;" d="M202.989,49.015c-0.585-0.032-1.216,0.082-1.64-0.538c0.844-0.764,1.308-0.308,1.667,0.507
		L202.989,49.015z"/>
	<path style="fill:#E3C9A5;" d="M203.016,48.984c0.59,0.028,1.226-0.095,1.657,0.526c-0.834,0.768-1.311,0.322-1.684-0.495
		L203.016,48.984z"/>
	<path style="fill:#E3C9A5;" d="M202.003,53.997c0.573,0.04,1.193-0.073,1.623,0.514c-0.83,0.738-1.289,0.315-1.629-0.507
		L202.003,53.997z"/>
	<path style="fill:#E3C9A5;" d="M205.264,55.421c0.725-0.376,1.331-0.289,1.244,0.147C206.405,56.083,205.816,55.999,205.264,55.421
		z"/>
	<path style="fill:#E3C9A5;" d="M209.988,57.988c0.005-0.831-0.096-1.715,0.994-2.009l0.039,0.039
		c-0.019,0.825,0.098,1.718-1.008,1.992L209.988,57.988z"/>
	<path style="fill:#E3C9A5;" d="M231.02,55.977c1.105,0.289,0.981,1.183,0.992,2.011l-0.024,0.021
		c-1.049-0.302-0.987-1.168-1.01-1.991L231.02,55.977z"/>
	<path style="fill:#E3C9A5;" d="M209.018,34.986c1.125,0.275,0.991,1.173,0.992,2.005l-0.018,0.016
		c-0.995-0.329-1.001-1.16-1.008-1.99L209.018,34.986z"/>
	<path style="fill:#E3C9A5;" d="M210.009,64.993c1.052,0.304,0.984,1.172,1.006,1.995l-0.033,0.03
		c-1.119-0.28-0.978-1.182-0.992-2.008L210.009,64.993z"/>
	<path style="fill:#E3C9A5;" d="M211.015,66.988c1.024,0.323,1.008,1.163,0.996,2.002l-0.02,0.02
		c-1.025-0.315-1.017-1.154-1.009-1.993L211.015,66.988z"/>
	<path style="fill:#E3C9A5;" d="M231.013,67.011c-0.019,0.585,0.1,1.213-0.531,1.633c-0.782-0.843-0.254-1.283,0.509-1.655
		L231.013,67.011z"/>
	<path style="fill:#E3C9A5;" d="M237.022,68.1c-0.663-0.036-1.327-0.073-1.99-0.109C235.777,66.543,236.436,66.659,237.022,68.1z"/>
	<path style="fill:#E3C9A5;" d="M240.989,69.014c-0.584-0.024-1.211,0.094-1.641-0.513c0.825-0.769,1.29-0.304,1.665,0.486
		L240.989,69.014z"/>
	<path style="fill:#E3C9A5;" d="M241.013,68.987c0.825,0.011,1.692-0.062,2.009,0.985l-0.051,0.058
		c-0.817-0.033-1.704,0.069-1.982-1.016L241.013,68.987z"/>
	<path style="fill:#E3C9A5;" d="M214.011,70.987c0.836-0.007,1.69-0.051,2.004,0.994l-0.035,0.039
		c-0.835,0.001-1.678,0.016-1.991-1.011L214.011,70.987z"/>
	<path style="fill:#E3C9A5;" d="M213.983,52.985c0.078-0.592,0.427-0.911,1.005-0.998l0.024,0.023c-0.106,0.561-0.44,0.895-1,1.004
		L213.983,52.985z"/>
	<path style="fill:#E3C9A5;" d="M212.014,55.012c-0.106,0.558-0.42,0.91-0.993,1.006l-0.039-0.039
		c0.099-0.569,0.413-0.922,1.004-0.995L212.014,55.012z"/>
	<polygon style="fill:#E3C9A5;" points="233.472,88.764 233.338,88.395 233.671,88.427 	"/>
	<path style="fill:#E3C9A5;" d="M201.997,34.003c0.247,0.146,0.495,0.291,0.742,0.437c-0.743,0.68-0.555-0.189-0.736-0.443
		L201.997,34.003z"/>
	<path style="fill:#E3C9A5;" d="M227.016,51.981c0.253,0.147,0.506,0.293,0.759,0.44c-0.679,0.676-0.621-0.091-0.793-0.405
		C226.982,52.015,227.016,51.981,227.016,51.981z"/>
	<polygon style="fill:#E3C9A5;" points="234.48,90.756 234.344,90.382 234.683,90.414 	"/>
	<path style="fill:#E3C9A5;" d="M214.012,53.015c-0.11,0.557-0.443,0.891-1.001,0.999l-0.027-0.027
		c0.078-0.588,0.411-0.921,0.999-1.001L214.012,53.015z"/>
	<path style="fill:#E3C9A5;" d="M238.997,29.996c-0.144,0.256-0.289,0.511-0.433,0.767c-0.639-0.708,0.089-0.625,0.44-0.76
		L238.997,29.996z"/>
	<polygon style="fill:#E3C9A5;" points="207.248,92.478 207.603,92.327 207.569,92.692 	"/>
	<path style="fill:#E3C9A5;" d="M240.007,48.984c0,0.346-0.001,0.693-0.001,1.039c-0.335-0.007-0.669-0.013-1.004-0.02l-0.005-0.007
		C239.051,49.377,239.436,49.088,240.007,48.984z"/>
	<path style="fill:#E3C9A5;" d="M213.012,54.014c-0.11,0.556-0.442,0.888-0.997,0.998l-0.028-0.028
		c0.083-0.583,0.412-0.919,0.998-0.997L213.012,54.014z"/>
	<polygon style="fill:#E3C9A5;" points="214.475,44.749 214.356,44.399 214.662,44.431 	"/>
	<path style="fill:#E3C9A5;" d="M226.005,50.996c0.566,0.093,0.923,0.401,1.012,0.985l-0.034,0.034
		c-0.563-0.108-0.929-0.408-0.987-1.01L226.005,50.996z"/>
	<path style="fill:#E3C9A5;" d="M234.03,77.974c0.241,0.161,0.483,0.322,0.724,0.483c-0.713,0.683-0.596-0.145-0.779-0.428
		L234.03,77.974z"/>
	<path style="fill:#E3C9A5;" d="M216.006,51.007c-0.055,0.608-0.428,0.902-0.994,1.003l-0.024-0.023
		c0.075-0.594,0.435-0.9,1.005-0.992L216.006,51.007z"/>
	<path style="fill:#E3C9A5;" d="M208.015,50.987c0.241,0.144,0.482,0.288,0.723,0.432c-0.671,0.644-0.583-0.117-0.751-0.405
		L208.015,50.987z"/>
	<path style="fill:#E3C9A5;" d="M229.014,47.012c-0.142,0.242-0.284,0.485-0.426,0.727c-0.659-0.673,0.136-0.571,0.4-0.752
		C228.989,46.987,229.014,47.012,229.014,47.012z"/>
	<path style="fill:#E3C9A5;" d="M228.989,46.987c0.151-0.253,0.303-0.506,0.454-0.759c0.644,0.691-0.071,0.64-0.428,0.784
		L228.989,46.987z"/>
	<path style="fill:#E3C9A5;" d="M212.98,70.024c-0.562-0.111-0.895-0.446-0.988-1.014l0.02-0.02
		c0.591,0.069,0.926,0.401,1.016,0.986L212.98,70.024z"/>
	<path style="fill:#E3C9A5;" d="M232.005,66.006c-0.092,0.571-0.387,0.942-0.993,1.005l-0.022-0.022
		c0.102-0.565,0.399-0.935,1.003-0.995L232.005,66.006z"/>
	<polygon style="fill:#E3C9A5;" points="213.754,42.519 213.399,42.669 213.433,42.308 	"/>
	<path style="fill:#E3C9A5;" d="M213.027,69.976c0.581,0.091,0.914,0.423,0.984,1.011l-0.022,0.022
		c-0.565-0.095-0.898-0.427-1.009-0.986L213.027,69.976z"/>
	<polygon style="fill:#E3C9A5;" points="235.75,80.521 235.394,80.671 235.429,80.308 	"/>
	<path style="fill:#E3C9A5;" d="M227.981,70.978c0.148-0.249,0.296-0.498,0.444-0.747c0.689,0.688-0.107,0.608-0.406,0.784
		L227.981,70.978z"/>
	<path style="fill:#E3C9A5;" d="M212.02,39.983c0.241,0.156,0.482,0.312,0.722,0.468c-0.712,0.666-0.58-0.157-0.759-0.43
		L212.02,39.983z"/>
	<path style="fill:#E3C9A5;" d="M213.014,82.016c-0.149,0.253-0.299,0.505-0.448,0.758c-0.65-0.68,0.069-0.636,0.417-0.789
		C212.983,81.985,213.014,82.016,213.014,82.016z"/>
	<path style="fill:#E3C9A5;" d="M236.975,38.971c0.155-0.249,0.31-0.499,0.465-0.748c0.662,0.674-0.051,0.648-0.409,0.804
		L236.975,38.971z"/>
	<polygon style="fill:#E3C9A5;" points="236.759,82.509 236.408,82.655 236.44,82.303 	"/>
	<path style="fill:#E3C9A5;" d="M230.978,56.018c-0.239-0.159-0.477-0.319-0.716-0.478c0.71-0.648,0.586,0.151,0.757,0.437
		C231.02,55.977,230.978,56.018,230.978,56.018z"/>
	<path style="fill:#E3C9A5;" d="M226.993,45.991c-0.141,0.245-0.282,0.49-0.423,0.735c-0.609-0.703,0.125-0.582,0.44-0.718
		L226.993,45.991z"/>
	<polygon style="fill:#E3C9A5;" points="215.481,46.752 215.345,46.381 215.684,46.414 	"/>
	<path style="fill:#E3C9A5;" d="M210.987,84.985c0.152-0.252,0.303-0.505,0.455-0.757c0.635,0.682-0.052,0.65-0.425,0.786
		L210.987,84.985z"/>
	<path style="fill:#E3C9A5;" d="M231.026,83.978c0.241,0.158,0.482,0.317,0.724,0.475c-0.716,0.682-0.587-0.154-0.77-0.429
		L231.026,83.978z"/>
	<path style="fill:#E3C9A5;" d="M232.017,37.019c-0.154,0.251-0.308,0.502-0.462,0.753c-0.637-0.68,0.05-0.652,0.423-0.791
		L232.017,37.019z"/>
	<path style="fill:#E3C9A5;" d="M203.974,37.023c-0.243-0.158-0.485-0.317-0.728-0.475c0.715-0.686,0.593,0.148,0.776,0.428
		L203.974,37.023z"/>
	<polygon style="fill:#E3C9A5;" points="232.258,86.47 232.604,86.326 232.568,86.679 	"/>
	<path style="fill:#F4E6C3;" d="M198.968,94.979c0.014,0.345,0.029,0.69,0.043,1.035l0.003-0.008
		c-1.105,0.281-1.024,1.153-0.997,1.999l-0.008,0.013c-0.336-0.006-0.672-0.012-1.007-0.017c-6.453-3.972-7.417-10.203-7-17.003
		c1.34-0.646,2.68-1.293,4.021-1.939c0.264,4.174-0.957,8.502,1.703,12.424C196.659,92.857,197.395,94.261,198.968,94.979z"/>
	<path style="fill:#E3C9A5;" d="M197.002,98c0.336,0.006,0.672,0.012,1.007,0.017c0.005,0.674,0.011,1.348,0.016,2.022
		C196.916,99.746,197.004,98.85,197.002,98z"/>
	<path style="fill:#DFC29C;" d="M199.974,99.991c-0.229-1.193,0.703-1.988,1.028-2.991C203.2,98.871,200.971,99.219,199.974,99.991z
		"/>
	<path style="fill:#DFC29C;" d="M199.034,21.989c1.456,0.642,0.863,1.945,0.975,3.021c-0.556-0.114-0.895-0.453-1.034-0.999
		c-0.338-0.664-0.675-1.328-1.013-1.992C198.319,22.009,198.676,21.999,199.034,21.989z"/>
	<path style="fill:#E8CF90;" d="M190.036,46.962c0.8,0,1.601,0,2.734,0c-1.299,1.455-2.108,1.274-2.794,0.069L190.036,46.962z"/>
	<path style="fill:#E3C9A5;" d="M196.992,52.009c-0.862-0.109-1.83,0.334-2.592-0.525c1.082-0.814,1.952-0.733,2.606,0.509
		L196.992,52.009z"/>
	<path style="fill:#DFC29C;" d="M199.99,24.99c0.608,0.072,0.923,0.437,1.02,1.02C200.413,25.927,200.093,25.568,199.99,24.99z"/>
	<polygon style="fill:#F6EDD1;" points="243.469,25.711 243.356,25.4 243.651,25.437 	"/>
	<path style="fill:#F6EDD1;" d="M219.049,21.006c0.631-0.325,1.261-0.651,1.892-0.976c-0.152,4.244,0.61,8.556-0.909,12.73
		C218.331,28.929,219.28,24.92,219.049,21.006z"/>
	<path style="fill:#F6EED7;" d="M239.002,50.003c0.335,0.007,0.669,0.013,1.004,0.02c0.33,1.317,0.66,2.633,0.991,3.95
		c-0.663,0.016-1.325,0.032-1.988,0.047c-0.661-0.983-1.323-1.966-1.984-2.949C237.823,50.974,238.691,51.003,239.002,50.003z"/>
	<path style="fill:#E3C9A5;" d="M198.017,98.005c-0.028-0.846-0.109-1.718,0.997-1.999
		C199.019,96.841,199.161,97.743,198.017,98.005z"/>
</g>
</svg>
