<?xml version="1.0" encoding="iso-8859-1"?>
<!-- Generator: Adobe Illustrator 27.0.0, SVG Export Plug-In . SVG Version: 6.00 Build 0)  -->
<svg version="1.1" id="Layer_1" xmlns="http://www.w3.org/2000/svg" xmlns:xlink="http://www.w3.org/1999/xlink" x="0px" y="0px"
	 viewBox="0 0 1478 285" style="enable-background:new 0 0 1478 285;" xml:space="preserve">
<g>
	<path style="fill:#55565D;" d="M0,278c3.083-3.123,4.216-7.333,6.019-11.129c10.692-22.506,19.38-45.859,28.882-68.868
		c12.29-29.761,24.586-59.519,36.938-89.254c6.489-15.621,18.183-23.654,35.197-23.752c6.831-0.039,13.662-0.146,20.494-0.161
		c14.913-0.034,25.723,6.845,32.757,19.788c4.292,7.897,7.178,16.426,10.615,24.703c16.291,39.241,32.488,78.52,48.743,117.775
		c2.017,4.871,4.192,9.675,8.236,14.414c0.104-1.962,0.223-3.171,0.223-4.38c0.01-42.666,0.015-85.332,0.003-127.998
		c-0.003-10.665-0.073-21.33-0.103-31.995c-0.004-1.333-0.066-2.679,0.093-3.996c0.539-4.471,3.019-6.881,7.547-7.097
		c3.157-0.151,6.331-0.022,9.494,0.071c11.996,0.351,23.989,0.056,35.983-0.113c1.165-0.016,2.342-0.024,3.495,0.116
		c4.012,0.487,5.941,2.372,6.368,6.379c0.211,1.981,0.182,3.993,0.18,5.991c-0.048,45.829-0.121,91.659-0.155,137.488
		c-0.008,11.331,0.107,22.662,0.159,33.993c0.006,1.333,0.018,2.668-0.059,3.998c-0.299,5.162-2.087,7.417-7.273,7.631
		c-7.146,0.296-14.322,0.096-21.476-0.141c-1.807-0.06-3.639-0.282-5.464-0.283c-18.666-0.013-37.336-0.221-55.997,0.093
		c-7.81,0.131-15.623,0.413-23.439,0.429c-1.657,0.003-3.298-0.052-4.966-0.307c-4.069-0.621-6.406-2.818-7.823-6.676
		c-2.402-6.538-5.175-12.941-7.821-19.388c-3.763-9.169-10.564-13.363-20.525-13.734c-8.313-0.31-16.632-0.134-24.935-0.611
		c-4.48-0.257-8.961-0.524-13.438-0.821c-3.031-0.202-5.999,0.426-8.903,1.008c-5.158,1.035-8.989,3.978-11.308,8.892
		c-2.218,4.7-3.314,9.72-4.735,14.656c-0.964,3.346-1.88,6.721-3.106,9.974c-1.452,3.855-4.209,6.197-8.499,6.745
		c-2.339,0.299-4.667,0.386-6.97,0.233c-16.308-1.083-32.632-0.214-48.945-0.505C3.657,281.136,1.829,281.057,0,281
		C0,280,0,279,0,278z M117.505,141.942c-4.477,12.577-8.533,23.972-12.588,35.367c-1.279,3.593-2.569,7.178-3.133,10.982
		c-0.846,5.706,0.891,8.21,6.66,8.626c7.65,0.551,15.308-0.074,22.952-0.474c1.954-0.102,4.11-0.461,4.464-3.836
		C130.029,176.513,123.986,159.833,117.505,141.942z"/>
	<path style="fill:#2CABE2;" d="M634.074,67.096c2.05-2.934,4.822-4.538,8.369-5.268c2.296-0.472,4.868-0.718,6.623-2.706
		c4.639-3.446,9.23-7.011,14.763-8.934c8.903-3.095,18.185-4.65,27.432-6.211c5.684-0.959,7.69,0.868,8.851,6.595
		c1.666,8.212,0.711,16.504,0.85,24.763c0.022,1.309-0.921,1.597-1.936,1.798c-1.986,1.293-0.967,3.295-0.97,4.91
		c-0.074,38.285-0.026,76.57-0.094,114.855c-0.009,5.159,0.279,10.26,1.096,15.346c1.391,8.664,5.383,12.251,11.129,13.657
		c10.637,2.603,20.921,0.692,30.267-4.374c16.276-8.821,24.233-23.159,24.405-41.509c0.266-28.295,0.119-56.594,0.131-84.891
		c0.001-1.825-0.138-3.651-0.211-5.476c-0.335-0.545-0.881-1.01-0.54-2.146c4.152-2.428,9.026-3.275,13.96-3.444
		c6.481-0.221,12.976,0.012,19.465-0.027c6.131-0.037,12.246,0.341,18.375-0.868c4.259-0.84,8.679-0.587,11.974,3.108
		c-0.005,27.457,0.113,54.914-0.059,82.37c-0.103,16.414-3.458,32.153-11.091,46.843c-7.094,13.655-17.015,24.829-29.435,33.842
		c-18.034,13.087-38.228,21.53-59.443,27.859c-10.136,3.024-20.337,5.643-30.848,6.966c-0.408,0.051-0.759,0.553-1.137,0.845
		c-8.333,0-16.667,0-25,0c-3.531-1.702-7.45-2.192-11.043-3.877c-12.967-6.084-19.609-16.825-22.913-30.135
		c-2.3-9.264-2.12-18.74-2.12-28.19c0-33.782-0.044-67.565,0.04-101.347c0.015-5.983-0.55-11.91-0.936-17.858
		c-0.046-0.715-0.382-1.246-0.955-1.648c0.084-1.365-0.568-2.528-0.953-3.782c-2.713-8.841-3.168-17.663,0.446-26.419
		C633.185,70.243,633.577,68.648,634.074,67.096z"/>
	<path style="fill:#55575E;" d="M1478,244c-1.794,2.594-1.155,5.728-1.824,8.582c-4.146,17.665-18.594,28.252-34.938,28.741
		c-15.82,0.473-31.621,0.415-47.435,0.416c-28.655,0.003-57.309,0.177-85.964,0.256c-9.958,0.028-12.259-2.831-11.217-12.71
		c0.856-8.119,0.698-16.293-0.048-24.438c-0.106-1.154-0.326-2.321-0.249-3.465c0.403-6.03,2.708-8.378,8.777-8.508
		c5.827-0.125,11.661,0.114,17.491,0.118c25.497,0.017,50.995,0.034,76.492-0.02c3.972-0.009,8.01,0.337,11.88-0.98
		c2.392-0.814,3.927-2.38,4.233-5.018c0.317-2.733-0.405-4.977-2.917-6.343c-1.3-0.707-2.677-1.311-4.079-1.786
		c-3.768-1.275-7.535-2.575-11.362-3.655c-21.714-6.128-43.448-12.182-65.168-18.288c-8.082-2.272-15.678-5.506-21.938-11.332
		c-7.226-6.725-11.271-15.064-12.733-24.757c-1.901-12.598-1.891-25.33-0.685-37.88c2.112-21.975,17.586-33.071,35.625-35.889
		c6.115-0.955,12.256-1.057,18.419-1.054c35.328,0.02,70.655,0.01,105.983,0.01c0.833,0,1.669,0.04,2.499-0.006
		c9.236-0.512,11.607,3.195,10.75,12.309c-0.767,8.146-0.907,16.26,0.036,24.389c0.019,0.165,0.04,0.329,0.057,0.494
		c0.974,9.363-2.279,12.81-11.803,12.712c-17.976-0.185-35.95-1.239-53.922-0.65c-13.151,0.431-26.289,0.504-39.439,0.34
		c-3.943-0.049-5.868,1.318-6.52,4.132c-0.819,3.537,0.266,6.271,3.496,7.994c1.742,0.929,3.66,1.604,5.572,2.124
		c22.568,6.144,45.164,12.186,67.719,18.375c7.367,2.022,14.589,4.478,21.347,8.186c11.584,6.355,18.169,16.228,20.85,28.953
		c0.198,0.938-0.041,2.042,1.016,2.651C1478,220,1478,232,1478,244z"/>
	<path style="fill:#D0CDD0;" d="M764.061,25.04c-4.9-0.788-9.331-3.038-13.976-4.598c-8.549-2.871-17.121-5.816-26.001-7.194
		c-8.573-1.331-17.154-2.705-25.85-3.467c-11.862-1.041-23.702-2.209-35.584-1.623c-5.592,0.276-11.177,0.927-16.795,0.841
		c-1.128-0.017-2.315,0.334-3.743-0.583c8.256-1.772,16.087-3.807,24.276-4.624c5.622-0.561,11.199-0.667,16.806-0.804
		C685.619,2.929,687.75,2.327,689,0c20,0,40,0,60,0c3.891,2.62,8.537,2.931,12.893,3.894c8.136,1.798,16.311,3.409,24.156,6.254
		c1.76,0.638,3.828,1.093,4.987,2.912c-2.967,2.605-6.754,3.145-10.382,3.925C774.437,18.32,768.731,20.579,764.061,25.04z"/>
	<path style="fill:#55575E;" d="M912.143,282.001c-22.323,0-44.645,0.024-66.968-0.016c-5.636-0.01-8.243-2.058-8.039-7.158
		c0.36-9.018-1.122-17.93-1.027-26.915c0.009-0.833-0.031-1.668,0.009-2.499c0.45-9.238,5.197-13.871,14.434-14.327
		c4.7-0.232,9.319,0.563,13.907,1.161c5.822,0.759,11.618,0.733,17.436,0.742c17.653,0.027,35.307,0.014,52.96,0.007
		c3.994-0.002,7.987-0.036,11.981-0.069c1.503-0.013,2.95-0.328,4.418-0.678c2.888-0.689,4.008-2.819,4.577-5.34
		c0.623-2.759-0.601-4.888-2.823-6.441c-1.795-1.254-3.917-1.816-5.987-2.393c-25.246-7.04-50.331-14.65-75.687-21.303
		c-22.033-5.781-31.208-19.736-34.277-40.411c-1.301-8.765-1.412-17.564-1.006-26.391c0.222-4.836,0.941-9.62,2.345-14.218
		c5.308-17.391,17.242-26.199,34.583-28.716c5.957-0.865,11.926-0.934,17.919-0.936c35.985-0.013,71.97-0.067,107.954-0.097
		c10.336-0.009,12.782,2.471,11.846,12.846c-0.78,8.643-0.916,17.243,0.022,25.866c0.108,0.991,0.189,1.998,0.136,2.991
		c-0.281,5.314-2.392,7.902-7.654,7.916c-10.81,0.028-21.619,0.289-32.444-0.266c-8.783-0.45-17.626-0.647-26.436,0.232
		c-2.64,0.263-5.325,0.175-7.986,0.114c-9.978-0.229-19.969,0.546-29.94-0.49c-2.693-0.28-5.392,0.037-7.076,2.652
		c-2.411,3.745-1.301,8.055,2.733,10.147c1.603,0.831,3.382,1.382,5.136,1.857c23.688,6.419,47.397,12.759,71.072,19.223
		c5.926,1.618,11.628,3.877,17.129,6.68c11.955,6.091,19.021,15.799,21.576,28.838c2.384,12.167,2.366,24.422,1.325,36.749
		c-0.551,6.522-1.492,12.873-4.295,18.814c-5.793,12.275-15.611,19.007-28.952,20.908c-5.129,0.731-10.272,0.812-15.429,0.812
		c-19.158-0.001-38.317,0-57.475,0C912.143,281.926,912.143,281.964,912.143,282.001z"/>
	<path style="fill:#56575E;" d="M1117.003,85.997c28.495,0,56.99,0,85.485,0c1.833,0,3.666-0.012,5.499,0.002
		c8.508,0.068,11.089,3.159,10.284,11.788c-0.544,5.829,0.649,11.603,1.205,17.386c0.32,3.329,0.659,6.643,0.082,9.941
		c-1.38,7.886-5.557,11.434-13.631,11.845c-4.517,0.23-8.956-0.459-13.419-0.951c-7.741-0.853-15.563,0.02-23.303-1.067
		c-2.791-0.392-5.622-0.757-8.43-0.722c-9.283,0.115-13.804,4.643-13.717,13.912c0.04,4.308,0.477,8.64,1.097,12.908
		c0.555,3.82,0.553,7.625,0.557,11.448c0.01,8.166,0.214,16.338-0.057,24.495c-0.265,7.982-0.771,15.968-0.437,23.944
		c0.698,16.642,0.299,33.293,0.636,49.936c0.017,0.832,0.02,1.668-0.042,2.497c-0.461,6.246-2.51,8.295-8.764,8.321
		c-3.98,0.016-7.959-0.398-11.942-0.49c-10.314-0.237-20.613-0.258-30.928,0.456c-10.065,0.696-11.894-1.329-11.895-11.567
		c0-33.662-0.078-67.325,0.058-100.987c0.031-7.643,0.633-15.285,0.486-22.941c-0.171-8.87-2.685-11.561-11.453-10.897
		c-10.156,0.769-20.301,0.272-30.449,0.444c-6.164,0.105-12.332,0.029-18.497,0.012c-1.327-0.004-2.682,0.047-3.976-0.19
		c-3.912-0.717-5.465-2.427-5.587-6.417c-0.107-3.493,0.135-6.994,0.118-10.492c-0.037-7.663-0.102-15.327-0.226-22.99
		c-0.122-7.486,1.77-9.594,9.259-9.604C1055.679,85.973,1086.341,85.998,1117.003,85.997z"/>
	<path style="fill:#55565D;" d="M1223.829,183.582c0-28.642,0-57.284,0-85.927c0-0.999,0.067-2.003-0.011-2.997
		c-0.548-7.048,2.869-8.664,8.536-8.638c12.155,0.056,24.31,0.074,36.465,0.086c3.496,0.003,6.994-0.157,10.488-0.084
		c5.418,0.113,7.513,2.235,7.685,7.581c0.037,1.164,0.006,2.331,0.006,3.497c0,55.12-0.002,110.239,0.004,165.359
		c0,3.66,0.201,7.327,0.045,10.979c-0.251,5.857-2.457,7.967-8.338,8.26c-2.992,0.149-5.981-0.469-8.935-0.443
		c-11.473,0.101-22.962-0.727-34.42,0.444c-0.33,0.034-0.666,0.002-0.999,0.011c-8.824,0.243-10.526-1.401-10.527-10.204
		C1223.828,242.199,1223.829,212.89,1223.829,183.582z"/>
	<path style="fill:#C8D85A;" d="M828.013,86.275c-3.295-3.695-7.715-3.948-11.974-3.108c-6.129,1.209-12.244,0.831-18.375,0.868
		c-6.489,0.039-12.984-0.195-19.465,0.027c-4.934,0.169-9.808,1.016-13.96,3.444c-0.341,1.136,0.205,1.601,0.54,2.146
		c-6.733,2.272-13.655,2.586-20.509,1.118c-9.994-2.14-19.934-4.46-30.052-6.044c-5.7-0.893-11.082-3.155-15.19-7.592
		c1.015-0.201,1.958-0.489,1.936-1.798c-0.14-8.259,0.815-16.551-0.85-24.763c-1.161-5.727-3.168-7.554-8.851-6.595
		c-9.247,1.56-18.53,3.116-27.432,6.211c-5.533,1.923-10.124,5.489-14.763,8.934c-13.081-5.261-26.572-9.152-40.335-12.163
		c-12.962-2.836-26.088-4.715-39.282-5.74c-14.748-1.146-29.561-1.739-44.365-1.076c-10.105,0.452-20.22,1-30.286,1.973
		c-15.487,1.497-30.909,3.519-46.228,6.372c-17.908,3.336-35.646,7.341-53.188,12.232c-1.31,0.365-2.614,0.373-4.476,0.049
		c8.759-5.217,17.419-9.6,26.249-13.624c17.516-7.982,35.62-14.355,54.28-19.087c11.387-2.887,22.897-5.169,34.492-7.138
		c25.716-4.367,51.618-4.704,77.536-3.671c12.879,0.513,25.691,2.372,38.464,4.473c26.079,4.29,51.392,11.292,76.181,20.295
		c14.633,5.315,29.117,11.041,43.758,16.331c7.452,2.692,15.072,4.946,22.886,6.431c8.244,3.246,17.027,3.959,25.664,5.072
		c10.858,1.398,21.83,1.434,32.782,1.07c1.646-0.055,3.343,0.209,4.767-0.942c11.81,0.551,23.529-0.09,35.273-1.656
		c19.411-2.588,38.359-7.195,57.278-12.033c1.76-0.45,3.614-0.529,5.425-0.78c0.355,0.832,0.71,1.665,1.065,2.497
		c-14.715,6.957-30.064,12.227-45.666,16.714C863.835,79.754,846.105,83.884,828.013,86.275z"/>
	<path style="fill:#2FABE1;" d="M827.967,69.979c-1.424,1.152-3.121,0.888-4.767,0.942c-10.953,0.363-21.924,0.328-32.782-1.07
		c-8.637-1.112-17.421-1.826-25.664-5.072c0.64-5.801-0.34-11.547-0.536-17.319c-0.254-7.466-0.121-14.946-0.155-22.42
		c4.67-4.461,10.375-6.72,16.593-8.056c3.628-0.78,7.415-1.319,10.382-3.925c6.013-1.144,11.764-3.23,17.635-4.888
		c6.174-1.744,12.356-3.462,19.296-5.404C827.967,25.47,827.967,47.724,827.967,69.979z"/>
	<path style="fill:#E2EBA9;" d="M927.007,58.007c-0.355-0.832-0.71-1.665-1.065-2.497c0.177-1.93,1.974-1.485,3.047-1.948
		c5.711-2.466,11.487-4.781,17.231-7.173c0.791-0.33,1.534-0.568,2.672,0.119C942.802,52.85,934.928,55.472,927.007,58.007z"/>
	<path style="fill:#55565D;" d="M515.071,84.029c14.787-0.17,28.578,0.484,42.304,2.1c12.288,1.446,24.215,4.226,34.952,10.786
		c14.308,8.743,22.572,21.788,26.567,37.736c2.304,9.199,3.331,18.612,4.208,28.059c1.003,10.808,1.16,21.622,0.556,32.415
		c-0.705,12.591-1.517,25.21-4.63,37.524c-6.367,25.193-22.443,40.488-47.586,46.291c-10.376,2.395-20.995,3.231-31.598,4.183
		c-11.476,1.03-22.956,1.131-34.427,0.699c-15.282-0.576-30.5-2.02-45.421-5.625c-26.447-6.389-41.57-23.547-46.984-49.768
		c-2.729-13.219-3.984-26.588-4.264-40.106c-0.366-17.685,0.953-35.15,5.066-52.367c6.282-26.289,23.038-41.89,49.097-47.941
		c7.961-1.849,16.05-2.589,24.197-3.055C496.746,84.408,506.375,83.8,515.071,84.029z M516.667,234.028
		c3.494,0,7.014,0.274,10.479-0.048c13.694-1.275,24.118-7.357,28.671-20.992c2.646-7.925,3.701-16.149,2.64-24.558
		c-0.269-2.131-0.37-4.352-0.085-6.47c0.917-6.823,0.738-13.633-0.421-20.358c-2.254-13.085-9.814-23.466-23.979-26.855
		c-9.664-2.312-19.446-2.251-29.226-1.157c-17.027,1.905-25.681,12.771-28.482,27.512c-0.99,5.21-1.182,10.559-1.673,15.853
		c-0.976,10.525-0.492,20.991,1.621,31.237c2.753,13.351,10.471,22.353,25.558,25.116
		C506.741,234.218,511.696,234.076,516.667,234.028z"/>
	<path style="fill:#55575E;" d="M439.965,281.172c-4.414,0-8.56,0-12.705,0c-13.16,0-26.321-0.045-39.481,0.025
		c-4.478,0.024-8.955,0.316-13.431,0.521c-4.859,0.222-8.593-1.623-11.601-5.52c-18.304-23.707-36.723-47.325-55.044-71.019
		c-4.894-6.329-7.697-13.626-8.298-21.56c-0.484-6.392,1.205-12.51,3.886-18.338c2.664-5.792,6.588-10.772,10.239-15.917
		c13.092-18.447,26.257-36.843,39.402-55.253c0.966-1.353,1.952-2.695,2.988-3.996c2.088-2.624,4.831-4.083,8.188-4.087
		c22.813-0.03,45.626-0.016,68.491-0.016c-0.12,2.343-1.783,3.409-2.923,4.769c-20.521,24.494-41.07,48.964-61.596,73.453
		c-2.355,2.81-4.389,5.85-6.094,9.104c-3.006,5.735-3.029,11.423,0.127,17.13c2.438,4.408,5.625,8.258,8.982,11.945
		c18.488,20.302,37.043,40.544,55.567,60.813c3.817,4.177,7.558,8.424,11.426,12.552
		C439.403,277.184,440.484,278.545,439.965,281.172z"/>
	<path style="fill:#CFCCCE;" d="M634.074,67.096c-0.497,1.552-0.889,3.147-1.509,4.648c-3.613,8.757-3.159,17.579-0.446,26.419
		c0.385,1.254,1.037,2.417,0.953,3.782c-3.936-2.228-6.596-5.931-10.07-8.742c-10.818-8.753-22.956-14.76-36.027-19.123
		c-9.363-3.125-19.021-4.804-28.784-6.158c-8.847-1.227-17.753-1.335-26.6-2.12c-14.445-1.281-28.864-0.329-43.283-0.803
		c-0.628-0.021-1.305,0.126-1.914-0.723c10.348-1.045,20.35-3.497,30.653-4.496c11.636-1.128,23.201-2.897,34.934-2.821
		c2.8,0.018,5.43-1.072,8.312-1.027c9.911,0.156,19.747,1.094,29.61,1.944c10.013,0.863,19.802,2.703,29.498,5.173
		c3.336,0.85,6.657,1.86,9.846,3.144C630.865,66.843,632.432,66.986,634.074,67.096z"/>
</g>
</svg>
