<?xml version="1.0" encoding="iso-8859-1"?>
<!-- Generator: Adobe Illustrator 27.0.0, SVG Export Plug-In . SVG Version: 6.00 Build 0)  -->
<svg version="1.1" id="Layer_1" xmlns="http://www.w3.org/2000/svg" xmlns:xlink="http://www.w3.org/1999/xlink" x="0px" y="0px"
	 viewBox="0 0 1587.277 190.067" style="enable-background:new 0 0 1587.277 190.067;" xml:space="preserve">
<g>
	<path style="fill:#201F1E;" d="M989,190.067c-0.763-1.665-2.271-0.9-3.443-0.961c-10.463-0.547-20.929-0.345-31.395-0.041
		c-1.574,0.046-3.372,0.762-4.623-1.305c-0.183-2.813,2.092-3.717,4.201-4.541c2.037-0.795,4.029-1.607,5.549-3.205
		c1.908-2.006,2.868-4.419,2.843-7.228c-0.069-7.659,0.161-15.331-0.213-22.974c-0.527-10.803-0.729-21.608-0.952-32.417
		c-0.196-9.475-0.597-18.946-0.897-28.419c-0.058-1.837-0.108-3.663-1.762-5.061c-3.245,0.289-4.07,3.107-5.224,5.365
		c-5.367,10.503-10.634,21.058-15.889,31.618c-9.842,19.779-19.62,39.591-29.52,59.341c-1.073,2.142-1.901,4.672-4.59,5.777
		c-1.912-0.69-2.498-2.437-3.289-4.073c-14.653-30.283-29.319-60.561-44.021-90.82c-0.701-1.443-1.175-3.136-2.909-4.071
		c-2.134,0.592-1.857,2.401-1.909,3.971c-0.415,12.469-0.709,24.943-1.229,37.408c-0.485,11.631-1.006,23.258-0.966,34.902
		c0.006,1.664,0.017,3.334,0.153,4.991c0.627,7.626,3.915,11.708,11.227,14.053c1.575,0.505,3.158,0.998,4.697,1.601
		c2.08,0.816,2.719,2.271,1.358,5.067c-13.716,0.138-27.773-1.033-41.607,0.256c-1.483-3.487-1.282-4.501,0.891-5.678
		c0.428-0.232,0.917-0.393,1.398-0.483c8.091-1.504,10.481-7.562,11.062-14.554c1.816-21.856,3.659-43.718,4.931-65.609
		c0.664-11.435,0.801-22.972-1.771-34.306c-0.698-3.076-1.6-6.061-3.004-8.899c-2.157-4.357-5.338-7.515-9.99-9.188
		c-1.805-0.649-4.061-0.824-4.775-3.682c1.045-3.216,4.129-2.334,6.513-2.122c5.656,0.503,11.274,0.648,16.915-0.049
		c1.488-0.184,2.995-0.13,4.373,0.358c1.092,0.717,1.515,1.772,2.022,2.839c16.932,35.623,33.888,71.234,50.874,106.831
		c0.911,1.91,1.598,4.047,3.839,5.323c1.708-1.117,2.423-2.981,3.302-4.716c13.573-26.77,27.149-53.539,40.713-80.314
		c4.418-8.721,8.776-17.471,13.224-26.176c0.667-1.306,1.276-2.726,3.284-4.119c6.846,0.421,14.411,0.723,21.839-0.143
		c1.314,3.014,0.879,4.722-1.901,5.461c-0.962,0.255-1.892,0.668-2.866,0.83c-5.074,0.845-8.634,4.478-9.569,11.236
		c-0.757,5.469-0.127,10.927-0.015,16.385c0.33,16.134,0.702,32.268,1.147,48.4c0.39,14.13,0.878,28.257,1.385,42.383
		c0.071,1.982,0.239,4.029,0.811,5.909c1.481,4.861,5.316,6.954,10,7.839c2.489,0.47,4.981,0.904,5.368,2.814
		c0.268,3.911-3.047,2.311-3.587,4.197C990.333,190.067,989.667,190.067,989,190.067z"/>
	<path style="fill:#201F1E;" d="M1193,190.067c-0.331-0.926-0.692-1.842-0.974-2.782c-0.089-0.295,0.034-0.654,0.068-1.079
		c0.899-2.01,2.995-2.345,4.788-3.093c7.804-3.256,10.128-6.683,10.131-15.236c0.013-33.633,0.009-67.265-0.007-100.898
		c-0.001-1.659-0.005-3.348-0.292-4.972c-1.212-6.862-4.036-9.481-10.991-11.025c-2.417-0.537-5.483-0.303-6.645-3.449
		c0.78-2.908,3.174-2.8,5.245-2.646c12.48,0.929,24.96,0.181,37.439,0.151c3.485-0.008,6.969-0.326,10.448-0.521
		c9.687-0.541,19.275,0.468,28.345,4.141c21.493,8.703,24.761,33.814,14.918,49.341c-3.734,5.891-8.603,10.532-14.522,14.126
		c-1.956,1.187-3.964,2.288-6.127,3.532c7.249,10.883,14.363,21.701,21.623,32.42c5.494,8.112,10.647,16.461,16.734,24.167
		c4.758,6.024,10.266,10.838,18.171,12.143c0.782,0.129,1.521,0.622,2.229,1.033c0.241,0.14,0.327,0.548,0.63,1.1
		c-1.107,2.478-3.602,2.139-5.745,2.558c-1.819,0.356-3.93-0.892-5.468,0.989c-1.333,0-2.667,0-4,0
		c-0.274-1.078-1.183-0.935-1.975-1.041c-7.232-0.968-13.147-4.378-18.056-9.691c-3.285-3.556-6.242-7.376-8.883-11.414
		c-9.004-13.77-18.002-27.545-26.813-41.438c-2.281-3.598-5.135-5.509-9.338-5.53c-5.331-0.027-10.662-0.096-15.993-0.108
		c-1.343-0.003-2.677,0.165-3.599,1.328c-0.68,0.857-0.619,1.865-0.617,2.869c0.025,14.498,0.182,28.997,0.011,43.493
		c-0.09,7.682,3.364,11.887,10.955,13.705c2.579,0.618,5.181,1.231,7.661,2.148c2.57,0.95,2.775,1.888,1.669,4.824
		c-14.696-1.345-29.402-0.852-44.103-0.143c-1.304,0.063-3.009-0.834-3.918,0.999C1195,190.067,1194,190.067,1193,190.067z
		 M1223.833,111.598c0.917,0.548,1.448,1.103,2.043,1.184c9.602,1.309,19.311,1.497,28.752-0.386
		c11.95-2.383,18.508-10.502,19.964-22.498c1.592-13.115-2.518-26.727-15.159-33.105c-9.456-4.771-19.537-6.256-30.002-4.983
		c-4.563,0.555-5.537,1.558-5.56,6.015C1223.779,75.646,1223.833,93.469,1223.833,111.598z"/>
	<path style="fill:#201F1E;" d="M556,190.067c-0.559-1.732-3.297-0.904-3.533-3.648c0.417-2.083,2.856-2.618,4.751-2.967
		c7.737-1.425,9.897-6.995,10.736-13.67c0.186-1.479,0.102-2.996,0.102-4.495c0.005-32.663,0.007-65.326-0.004-97.988
		c-0.001-1.824,0.045-3.642-0.367-5.463c-1.348-5.944-5.818-8.622-10.958-10.565c-2.291-0.866-4.841-1.114-6.649-2.836
		c-0.512-1.939,0.077-3.143,1.949-3.411c1.472-0.211,2.989-0.373,4.463-0.26c13.986,1.071,27.971,0.319,41.956,0.07
		c8.985-0.16,17.914-0.047,26.72,2.312c16.429,4.402,26.398,17.251,25.758,33.954c-0.323,8.427-4.077,15.326-10.511,20.7
		c-2.656,2.219-5.566,4.134-8.788,6.502c2.229,1.639,4.543,2.159,6.789,2.941c10.981,3.824,19.763,10.066,23.639,21.704
		c5.532,16.608-0.91,33.925-12.15,44.058c-8.645,7.794-18.922,11.403-30.384,12.144c-1.18,0.076-2.72-0.766-3.521,0.919
		c-1.333,0-2.667,0-4,0c-0.393-1.332-1.528-0.974-2.444-1.04c-15.866-1.143-31.73-0.249-47.594,0.074
		c-0.797,0.016-1.683-0.117-1.962,0.966C558.667,190.067,557.333,190.067,556,190.067z M585.291,116.937
		c-0.141,0.371-0.36,0.679-0.36,0.988c-0.006,18.137-0.056,36.274,0.052,54.41c0.033,5.584,2.484,8.495,8.119,9.704
		c7.007,1.503,14.139,2.042,21.305,1.567c4.956-0.329,9.938-0.576,14.639-2.502c9.326-3.821,15.691-10.19,18.13-20.244
		c1.493-6.153,0.812-12.208-0.081-18.302c-1.277-8.709-5.651-15.414-12.953-20.326c-6.387-4.296-13.637-5.904-21.045-6.943
		c-7.763-1.089-15.568-1.26-23.373-0.241C588.031,115.269,586.501,115.772,585.291,116.937z M585.699,106.619
		c6.974,2.289,14.182,1.648,21.248,1.283c6.917-0.357,13.873-1.262,20.247-4.523c4.566-2.336,7.968-5.8,8.677-10.846
		c1.9-13.502-1.729-24.995-13.296-33.223c-8.352-5.941-17.787-7.784-27.808-7.48c-8.299,0.251-9.905,1.815-9.933,10.04
		c-0.047,13.813-0.012,27.625-0.013,41.438C584.82,104.305,584.752,105.311,585.699,106.619z"/>
	<path style="fill:#1F1E1E;" d="M695,190.067c-0.164-1.733-2.608-0.414-2.753-1.799c-0.639-2.585,1.211-3.172,2.62-3.873
		c1.923-0.956,4.022-1.556,5.957-2.492c3.037-1.47,4.872-3.858,5.306-7.315c0.415-3.303,0.893-6.579,0.888-9.934
		c-0.045-31.491-0.037-62.983-0.01-94.474c0.003-3.011-0.326-5.964-0.778-8.934c-0.87-5.721-3.74-9.455-9.679-10.434
		c-1.308-0.216-2.606-0.534-3.883-0.894c-1.472-0.415-2.825-1.034-3.218-2.819c0.23-1.277,1.083-1.928,2.381-2.031
		c1.82-0.144,3.644-0.366,5.465-0.354c13.32,0.087,26.641,0.17,39.961,0.36c14.652,0.208,29.3,0.24,43.945-0.369
		c1.645-0.068,3.296-0.009,4.776-0.009c2.758,6.188,1.328,23.718-2.23,28.646c-2.829,0.094-3.45-1.861-3.671-4.148
		c-0.192-1.981-0.155-3.963-0.482-5.958c-0.606-3.701-2.685-5.858-6.052-7.208c-5.206-2.087-10.697-2.366-16.149-2.525
		c-7.991-0.233-15.994-0.064-23.992-0.054c-0.829,0.001-1.662,0.05-2.487,0.137c-6.405,0.678-7.128,1.387-7.146,7.682
		c-0.042,14.996-0.017,29.992-0.006,44.988c0.001,1.152-0.15,2.34,0.479,3.491c1.404,1.376,3.241,1.317,5.07,1.315
		c8.164-0.005,16.33,0.086,24.492-0.053c2.639-0.045,5.344-0.409,7.886-1.108c4.586-1.261,7.821-4.125,9.389-8.811
		c0.708-2.115,0.8-4.6,2.549-6.038c1.683-0.375,2.61,0.209,3.084,1.431c0.233,0.599,0.278,1.3,0.279,1.955
		c0.015,12.812,0.011,25.624,0.011,38.288c-2.208,2.055-3.925,1.643-4.883-0.711c-0.866-2.129-1.209-4.467-1.849-6.694
		c-1.775-6.182-5.042-9.06-11.393-9.186c-10.326-0.204-20.66-0.045-30.99-0.07c-1.398-0.003-2.624,0.274-3.587,1.348
		c-0.68,1.054-0.539,2.244-0.539,3.398c-0.009,15.328-0.038,30.657,0.008,45.985c0.02,6.708,1.608,8.411,8.135,9.602
		c8.5,1.551,16.934,0.18,25.334-0.691c6.244-0.648,12.37-2.194,18.284-4.522c6.924-2.725,13.047-6.538,18.074-12.052
		c0.999-1.095,1.832-2.37,3.505-3.126c2.17,1.151,1.864,3.204,1.455,5.09c-0.779,3.589-2.276,6.91-4.326,9.966
		c-2.33,3.474-5.096,6.574-8.14,9.433c-3.018,2.835-6.504,4.535-10.726,4.606c-0.842,0.014-2.068-0.532-2.365,0.967
		c-2.333,0-4.667,0-7,0c-0.067-1.301-1.079-0.977-1.802-0.976c-10.95,0.007-21.893-0.396-32.837-0.566
		c-10.947-0.169-21.905,0.332-32.858,0.566c-0.916,0.02-2.046-0.307-2.503,0.976C695.667,190.067,695.333,190.067,695,190.067z"/>
	<path style="fill:#20201F;" d="M1482.974,189.308c-1.078-0.369-2.449-0.351-2.44-3.161c0.014-0.103,0.818-0.812,1.992-1.275
		c1.385-0.545,2.69-1.314,4.1-1.77c6.131-1.98,8.454-6.403,8.458-12.551c0.016-23.986,0.126-47.973,0.145-71.959
		c0.009-11.491-0.142-22.982-0.133-34.473c0.002-2.229-0.562-4.306-1.266-6.323c-1.23-3.525-3.8-5.786-7.431-6.733
		c-1.764-0.46-3.615-0.634-5.332-1.217c-1.484-0.504-3.393-0.903-2.933-3.504c1.446-1.803,3.668-1.66,5.784-1.64
		c18.481,0.175,36.961,0.489,55.442,0.544c10.147,0.03,20.295-0.375,30.443-0.537c1.633-0.026,3.326-0.359,4.876,0.44
		c2.801,6.005,1.168,23.556-2.68,28.224c-1.666,0.004-2.594-0.849-3.058-2.513c-0.587-2.109-0.804-4.259-0.833-6.414
		c-0.058-4.417-2.333-6.959-6.34-8.506c-5.236-2.022-10.718-2.265-16.166-2.433c-7.989-0.246-15.991-0.134-23.986-0.044
		c-8.323,0.094-9.625,1.363-9.664,9.517c-0.067,14.16-0.027,28.32-0.01,42.479c0.002,1.313-0.179,2.665,0.452,3.983
		c1.484,1.602,3.468,1.626,5.49,1.622c7.996-0.018,15.993-0.039,23.988,0.009c2.864,0.017,5.658-0.534,8.379-1.195
		c5.152-1.251,8.154-4.938,9.608-9.859c0.523-1.768,1.043-3.451,2.024-4.809c1.772-0.607,2.683-0.151,3.263,1.452
		c0.587,1.623,0.66,3.248,0.605,4.912c-0.109,3.316-0.038,6.655-0.417,9.941c-0.806,6.995,0.109,13.947,0.278,20.914
		c0.045,1.874,0.199,3.637-1.137,5.246c-2.562,1.114-3.661-0.572-4.33-2.558c-0.578-1.717-0.73-3.572-1.173-5.34
		c-1.542-6.157-4.8-9.382-11.108-9.581c-10.651-0.336-21.32-0.17-31.981-0.078c-2.969,0.026-3.885,1.182-3.929,4.517
		c-0.08,6.163-0.024,12.327-0.024,18.491c0,8.996-0.036,17.992,0.012,26.987c0.038,7.175,1.736,9.024,8.666,10.288
		c8.506,1.551,16.927,0.109,25.328-0.732c6.087-0.609,12.05-2.151,17.808-4.414c7.24-2.846,13.637-6.832,18.779-12.742
		c0.838-0.963,1.496-2.271,3.305-2.387c2.207,1.952,1.415,4.621,0.703,6.755c-2.822,8.463-8.202,15.132-15.494,20.2
		c-2.211,1.536-4.856,2.024-7.598,2.043c-1.158,0.008-2.696-0.783-3.442,0.942c-2,0-4,0-6,0c-0.479-1.701-1.891-0.981-2.891-1
		c-5.645-0.109-11.318,0.223-16.933-0.217C1517.084,187.512,1500.039,189.054,1482.974,189.308z"/>
	<path style="fill:#222121;" d="M269,190.067c-0.156-0.271-0.303-0.773-0.469-0.78c-6.129-0.239-12.262-0.619-18.391-0.573
		c-5.291,0.04-10.579,0.584-15.772,0.215c-1.168-1.946-0.938-3.352,1.039-4.224c0.753-0.332,1.546-0.585,2.337-0.821
		c5.447-1.63,8.985-5.187,11.385-10.335c6.162-13.217,12.594-26.307,18.863-39.474c12.816-26.922,25.595-53.861,38.391-80.793
		c1.282-2.699,2.535-5.413,3.881-8.08c0.819-1.623,1.672-3.281,3.717-3.875c2.01,0.528,2.568,2.282,3.263,3.98
		c14.909,36.477,29.83,72.949,44.757,109.419c2.633,6.433,4.984,12.969,8.101,19.22c3.048,6.113,7.858,9.205,14.375,10.086
		c1.324,0.179,2.644,0.27,3.858,0.899c1.33,0.69,1.337,0.678,1.635,4.251c-15.949-0.419-31.843-0.476-47.734-0.193
		c-0.914,0.016-1.413-0.772-1.871-1.598c0.151-2.684,2.417-3.39,4.408-3.947c9.013-2.524,9.195-6.062,6.324-13.737
		c-3.824-10.223-8.018-20.308-11.967-30.485c-1.704-4.393-4.58-6.502-9.466-6.448c-15.155,0.167-30.313,0.173-45.468,0.024
		c-4.95-0.049-8.02,1.798-9.999,6.423c-3.584,8.375-7.511,16.607-11.435,24.832c-1.552,3.253-2.197,6.589-1.984,10.131
		c0.267,4.446,2.248,6.781,6.592,8.295c2.336,0.814,5.043,0.344,7.166,2.201c0.886,1.082,0.828,2.321-0.029,3.909
		c-0.559,1.311-2.952-0.488-3.504,1.479C270.333,190.067,269.667,190.067,269,190.067z M309.007,68.732
		c-2.241,2.723-21.691,42.364-24.871,50.598c-0.4,1.036-0.998,2.157-0.156,3.629c15.552,0,31.266,0,47.002,0
		C330.725,119.005,312.45,73.964,309.007,68.732z"/>
	<path style="fill:#222121;" d="M1046,190.067c-0.421-1.808-1.864-0.905-2.819-0.951c-10.616-0.508-21.24-0.374-31.547,0.044
		c-1.764-1.562-1.677-2.897-0.207-4.002c0.765-0.575,1.772-0.889,2.716-1.154c5.884-1.647,9.458-5.578,12.034-11.022
		c15.885-33.566,31.924-67.06,47.912-100.577c4.283-8.979,8.565-17.959,12.861-26.932c0.851-1.777,1.621-3.661,3.708-4.216
		c2.192,0.747,2.713,2.542,3.4,4.219c14.576,35.565,29.167,71.123,43.725,106.695c2.883,7.045,5.376,14.237,8.718,21.109
		c3.219,6.621,8.257,10.211,15.51,10.82c1.361,0.114,2.611,0.497,3.766,1.202c1.173,0.715,1.433,1.753,1.006,3.057
		c-1.028,1.13-2.411,0.767-3.696,0.746c-7.822-0.124-15.64-0.223-23.461-0.56c-5.796-0.249-11.627,0.417-17.445,0.568
		c-1.751,0.045-3.748,0.511-4.986-1.54c-0.227-1.761,0.992-2.657,2.335-3.348c1.022-0.526,2.169-0.807,3.257-1.209
		c6.704-2.477,7.86-4.779,5.58-11.793c-2.871-8.832-6.682-17.306-10.086-25.935c-1.034-2.621-2.115-5.227-3.274-7.794
		c-1.35-2.991-3.579-4.59-7.026-4.574c-16.328,0.072-32.658,0.086-48.986,0.048c-3.644-0.008-5.891,1.737-7.355,4.907
		c-4.175,9.032-8.4,18.042-12.592,27.066c-0.992,2.136-1.463,4.428-1.64,6.75c-0.492,6.435,2.274,10.069,8.594,11.306
		c1.299,0.254,2.666,0.178,3.876,0.836c0.575,0.313,1.134,0.654,1.493,0.862c1.969,3.252-1.006,3.917-2.371,5.37
		C1048,190.067,1047,190.067,1046,190.067z M1108.278,122.431c-1.776-6.218-4.69-11.97-7.101-17.909
		c-2.492-6.138-4.815-12.351-7.523-18.392c-2.578-5.751-4.304-11.93-8.225-18.335c-9.082,18.823-17.566,36.649-25.884,54.731
		C1064.811,123.653,1104.111,123.544,1108.278,122.431z"/>
	<path style="fill:#21201F;" d="M1350,190.067c-0.127-1.373-2.552-1.319-1.934-3.24c1.235-2.383,3.763-3,6.041-3.766
		c5.155-1.734,7.875-5.088,8.32-10.572c0.229-2.822,0.517-5.631,0.517-8.464c0.001-33.323,0.006-66.645-0.003-99.968
		c-0.002-7.657-1.623-9.862-8.947-12.354c-6.374-2.169-6.374-2.169-8.606-4.411c0.645-2.957,3.068-2.738,5.14-2.571
		c6.982,0.563,13.972,0.571,20.965,0.582c5.993,0.009,11.984-0.019,17.966-0.532c2.133-0.183,4.462-0.444,5.193,2.478
		c-0.505,1.889-1.943,2.387-3.635,2.906c-9.262,2.839-11.405,5.702-11.42,15.44c-0.042,27.324-0.008,54.649-0.012,81.974
		c-0.001,6.995-0.044,13.991-0.039,20.986c0.001,1.497,0.051,3.001,0.207,4.488c0.46,4.387,2.001,6.044,6.36,7.086
		c4.429,1.059,8.923,1.133,13.416,0.782c7.12-0.556,14.224-1.134,21.257-2.606c11.362-2.378,21.374-7.039,29.296-15.739
		c0.856-0.94,1.538-2.219,3.124-2.441c1.917,1.154,1.781,2.978,1.331,4.77c-2.522,10.036-8.584,17.448-17.241,22.845
		c-1.861,1.16-4.065,1.387-6.247,1.444c-3.703,0.032-7.407,0.064-11.111,0.096c-21.493-0.518-42.984-1.402-64.482-0.179
		c-0.899,0.051-2.049-0.39-2.457,0.967C1352,190.067,1351,190.067,1350,190.067z"/>
	<path style="fill:#1C1C1B;" d="M418,190.067c-0.178-1.34-2.422-1.421-1.75-3.732c1.109-1.876,3.617-2.516,5.907-3.273
		c5.183-1.712,7.934-5.168,8.303-10.584c0.147-2.155,0.48-4.307,0.483-6.461c0.036-34.321,0.045-68.642,0.024-102.963
		c-0.004-6.364-1.853-8.848-7.962-11.076c-1.866-0.68-3.771-1.255-5.641-1.927c-1.538-0.553-3.264-0.872-3.922-2.771
		c0.616-3.048,3.096-2.482,5.147-2.449c5.327,0.085,10.65,0.401,15.977,0.464c7.66,0.091,15.32,0.021,22.973-0.44
		c2.081-0.125,4.512-0.582,5.138,2.478c-0.586,1.843-1.996,2.431-3.742,2.832c-2.252,0.517-4.458,1.269-6.39,2.642
		c-3.064,2.179-4.642,5.177-4.766,8.886c-0.217,6.493-0.443,12.988-0.477,19.483c-0.14,26.158-0.244,52.317-0.27,78.475
		c-0.004,4.47,0.328,8.951,0.713,13.408c0.384,4.449,1.97,6.012,6.338,7.083c5.434,1.333,10.95,1.119,16.408,0.614
		c5.941-0.55,11.883-1.133,17.774-2.318c11.917-2.396,22.316-7.361,30.484-16.566c0.634-0.715,1.176-1.658,2.462-1.724
		c1.702,0.94,1.721,2.54,1.392,4.229c-0.542,2.779-1.36,5.481-2.742,7.96c-2.701,4.845-6.214,9.076-10.398,12.679
		c-2.94,2.532-6.351,4.258-10.414,4.164c-3.703,0.03-7.405,0.06-11.108,0.091c-21.496-0.539-42.991-1.413-64.491-0.179
		c-0.898,0.052-2.05-0.391-2.449,0.973C420,190.067,419,190.067,418,190.067z"/>
	<path style="fill:#196456;" d="M0,187.067c3.558-4.825,5.294-10.575,8.036-15.815c0.839-1.602,1.602-3.244,2.422-4.913
		c0.163,0.221,0.308,0.339,0.351,0.487c2.671,9.221,7.723,11.457,16.652,11.337c19.148-0.258,38.301-0.066,57.452-0.086
		c7.5-0.008,10.834-4.791,8.089-11.892c-3.646-9.434-8.614-18.242-13.368-27.141c-5.382-10.073-10.785-20.136-16.277-30.149
		c-4.644-8.467-7.274-17.337-6.393-27.116c0.387-4.292,1.505-8.453,4.183-12.824c2.352,4.602,4.577,8.981,6.826,13.348
		c13.939,27.073,27.924,54.123,41.804,81.227c4.819,9.41,2.956,17.582-4.101,22.581c-2.634,1.866-5.526,2.72-8.823,2.711
		c-31.639-0.092-63.278-0.1-94.917-0.113c-0.645,0-1.29,0.234-1.935,0.359C0,188.4,0,187.733,0,187.067z"/>
	<path style="fill:#DFDEDD;" d="M1244.021,189.21c-0.006,0.286-0.013,0.571-0.021,0.857c-16,0-32,0-48,0
		c0.909-1.833,2.613-0.936,3.918-0.999C1214.619,188.359,1229.325,187.865,1244.021,189.21z"/>
	<path style="fill:#B9B6B5;" d="M488,190.067c-0.03-0.264-0.05-0.529-0.059-0.794c3.703-0.03,7.405-0.06,11.108-0.091
		c-0.107,0.29-0.124,0.585-0.048,0.885C495.333,190.067,491.667,190.067,488,190.067z"/>
	<path style="fill:#B9B6B5;" d="M1420,190.067c-0.03-0.262-0.051-0.525-0.062-0.788c3.703-0.032,7.407-0.064,11.111-0.096
		c-0.115,0.289-0.131,0.584-0.049,0.884C1427.333,190.067,1423.667,190.067,1420,190.067z"/>
	<path style="fill:#186455;" d="M80.038,30.341C85.458,20.273,90.8,10.35,96.372,0c32.121,62.85,63.989,125.204,96.084,188.004
		c-14.19,0-27.77,0-41.329,0c-0.035-0.386-0.117-0.583-0.054-0.701c4.191-7.775,2.602-15.126-0.784-22.838
		c-5.358-12.203-12.174-23.608-18.329-35.37C115.399,97.447,98.629,65.908,81.95,34.32C81.262,33.016,80.669,31.661,80.038,30.341z"
		/>
	<path style="fill:#1A6456;" d="M135.323,188.062c-6.55,0-12.831,0-19.143,0c0.111-1.468,1.07-2.258,1.793-3.099
		c5.547-6.456,5.161-13.562,1.635-20.504c-14.136-27.833-28.51-55.546-42.783-83.31c-3.79-7.372-7.534-14.769-11.395-22.343
		c3.067-5.763,6.081-11.426,9.188-17.263c1.96,1.025,2.324,2.75,3.031,4.106c18.885,36.219,37.707,72.47,56.587,108.692
		c2.146,4.118,4.354,8.17,6.142,12.488C143.827,175.156,142.156,182.032,135.323,188.062z"/>
</g>
</svg>
