<?xml version="1.0" encoding="iso-8859-1"?>
<!-- Generator: Adobe Illustrator 27.0.0, SVG Export Plug-In . SVG Version: 6.00 Build 0)  -->
<svg version="1.1" id="Layer_1" xmlns="http://www.w3.org/2000/svg" xmlns:xlink="http://www.w3.org/1999/xlink" x="0px" y="0px"
	 viewBox="0 0 408 109.469" style="enable-background:new 0 0 408 109.469;" xml:space="preserve">
<g>
	<path style="fill:#11283A;" d="M408,83.325c-0.345,0.797-0.79,1.446-1.705,1.745c-0.671,0.22-1.15,0.124-1.618-0.356
		c-0.282-0.289-0.495-0.621-0.713-0.956c-2.001-3.077-3.64-6.356-5.321-9.608c-3.309-6.399-6.567-12.823-9.848-19.236
		c-0.179-0.349-0.371-0.691-0.545-1.014c-4.24,0-8.424,0-12.721,0c0,0.472,0.003,0.899,0,1.327
		c-0.074,8.416-0.138,16.833-0.233,25.249c-0.015,1.342-0.061,2.697-0.468,3.936c-1.236,0.892-2.361,0.799-3.321,0.084
		c-0.604-0.947-0.458-1.851-0.547-2.715c-0.077-0.753-0.119-1.512-0.127-2.269c-0.155-16.195-0.168-32.391-0.163-48.586
		c0.001-3.31,0.095-6.621,0.197-9.93c0.085-2.756,0.421-3.038,3.197-3.051c5.877-0.029,11.753,0.02,17.626,0.266
		c3.277,0.137,6.417,0.888,9.179,2.706c2.764,1.82,4.817,4.263,5.91,7.447c0.626,1.825,0.928,3.697,1.003,5.615
		c0.002,1.207,0.003,2.414,0.005,3.622c-0.019,2.429-0.617,4.732-1.633,6.916c-1.182,2.54-2.888,4.623-5.355,6.084
		c-2.019,1.195-4.222,1.845-6.431,2.513c-0.421,0.127-0.859,0.193-1.14,0.656c0.218,0.485,0.425,0.999,0.677,1.491
		c0.959,1.878,1.95,3.741,2.898,5.625c3.695,7.339,7.87,14.434,11.197,21.96C408,83.005,408,83.165,408,83.325z M375.579,49.501
		c0.406,0,0.681-0.003,0.956,0c4.639,0.056,9.275-0.09,13.912-0.173c2.17-0.039,4.248-0.469,6.24-1.415
		c3.216-1.528,5.182-4.048,6.078-7.402c0.675-2.528,0.742-5.155,0.384-7.721c-0.417-2.995-1.8-5.579-4.208-7.521
		c-1.784-1.439-3.917-2.098-6.109-2.545c-2.201-0.449-4.459-0.348-6.689-0.43c-3.195-0.117-6.398-0.045-9.597-0.044
		c-0.308,0-0.638-0.097-0.968,0.133C375.579,31.366,375.579,40.37,375.579,49.501z"/>
	<path style="fill:#9A9B9D;" d="M408,37.584l-0.107-0.004l-0.105,0.019c-0.002-1.207-0.003-2.414-0.005-3.622
		c0.071,0.03,0.144,0.034,0.218,0.014C408,35.19,408,36.387,408,37.584z"/>
	<path style="fill:#FDDA98;" d="M0,41.655c0.077,0.019,0.152,0.016,0.226-0.011c-0.005,0.889-0.009,1.777-0.014,2.666
		C0.142,44.298,0.071,44.291,0,44.29C0,43.412,0,42.534,0,41.655z"/>
	<path style="fill:#F8B924;" d="M43.448,84.395c-0.624-0.396-1.437-0.575-1.69-1.463c0.272-0.972,1.184-1.536,1.719-2.41
		c0-21.07,0-42.175,0-63.265c-0.297-0.344-0.737-0.346-1.069-0.556c-0.778-0.493-0.947-1.285-0.182-1.727
		c1.286-0.744,1.335-1.844,1.282-3.065c-0.014-0.319-0.02-0.64,0.001-0.957c0.117-1.796-0.078-3.502-1.346-4.922
		c-0.102-0.115-0.149-0.28-0.216-0.424c-0.067-0.144-0.127-0.29-0.184-0.422c0.075-0.492,0.427-0.772,0.697-1.086
		c0.519-0.18,0.953-0.044,1.376,0.237c0.651,0.433,1.232,0.32,1.868-0.135c1.653-1.183,3.334-2.325,5.299-2.969
		c4.415-1.446,8.752-1.601,12.987,0.642c1.153,0.611,2.112,1.456,2.952,2.405c2.212,2.498,4.765,4.595,7.442,6.558
		c1.803,1.322,3.623,2.63,5.241,4.173c2.106,2.009,3.622,4.413,4.623,7.162c0.605,1.664,0.948,3.381,1.124,5.11
		c0.277,2.724,0.953,5.293,2.129,7.771c0.902,1.902,1.576,3.901,1.868,6.014c0.248,1.791,0.242,3.586,0.105,5.37
		c-0.201,2.62-0.65,5.205-1.624,7.671c-0.029,0.074-0.028,0.162-0.066,0.23c-1.192,2.105-1.32,4.383-1.161,6.726
		c0.073,1.073-0.001,2.155,0.038,3.231c0.089,2.45-0.676,4.703-1.544,6.938c-0.978,2.518-2.44,4.752-4.186,6.783
		c-1.157,1.345-1.869,2.831-2.226,4.547c-0.593,2.846-1.389,5.635-2.693,8.252c-1.906,3.826-4.655,6.938-8.126,9.413
		c-1.501,1.07-2.879,2.274-4.228,3.519c-0.733,0.676-1.476,1.341-2.226,1.998c-2.596,2.273-5.767,3.201-9.045,3.264
		c-2.782,0.054-5.44-0.899-7.067-3.528c-0.586-0.947-1.571-1.704-1.818-2.78c-0.235-1.024-0.053-2.143-0.053-3.22
		C43.447,94.494,43.448,89.507,43.448,84.395z M46.111,80.759c1.814,1.302,3.623,2.523,5.752,3.184
		c2.905,0.902,5.346,0.205,7.316-2.103c0.309-0.362,0.555-0.776,0.832-1.165c0.393-0.552,0.762-1.122,1.187-1.648
		c0.626-0.776,1.354-0.741,1.958,0.058c0.121,0.161,0.204,0.343,0.194,0.578c-0.357,1.405-1.225,2.551-2.11,3.679
		c-2.386,3.039-5.479,4.041-9.237,3.211c-1.612-0.356-3.094-1.014-4.576-1.697c-0.379-0.175-0.742-0.498-1.235-0.299
		c-0.026,0.114-0.074,0.229-0.074,0.344c0.021,5.461-0.227,10.925,0.18,16.382c0.168,2.247,1.679,4.158,3.851,4.83
		c1.176,0.364,2.384,0.283,3.568,0.183c2.416-0.204,4.512-1.233,6.36-2.769c0.277-0.23,0.667-0.459,0.575-0.933
		c-1.583-0.496-3.21-0.271-4.777-0.578c-1.37-0.269-2.752-0.49-3.959-1.248c-1.022-0.642-1.072-1.409-0.151-2.327
		c0.606,0.063,1.231,0.189,1.818,0.429c1.776,0.727,3.629,0.881,5.52,0.808c0.958-0.037,1.921-0.013,2.876-0.088
		c1.475-0.117,2.922-0.353,4.185-1.233c2.966-2.066,5.344-4.646,7.057-7.838c1.363-2.54,2.273-5.235,2.964-8.023
		c0.364-1.472,0.36-2.889-0.159-4.32c-0.951-2.62-1.716-5.287-1.98-8.079c-0.137-1.441-0.17-2.863,0.394-4.231
		c0.21-0.508,0.547-0.894,1.173-0.816c0.528,0.066,0.926,0.547,0.968,1.199c0.026,0.396,0.001,0.798-0.027,1.195
		c-0.197,2.746,0.321,5.386,1.181,7.974c0.158,0.474,0.266,1.001,0.843,1.221c0.971-0.784,1.632-1.79,2.262-2.797
		c1.594-2.546,2.844-5.23,3.253-8.256c0.2-1.478,0.085-2.93-0.047-4.398c-0.135-1.502-0.573-2.871-1.421-4.123
		c-0.698-1.031-1.598-1.692-2.826-2.045c-2.183-0.628-4.414-1.037-6.607-1.615c-4.003-1.056-7.808-2.533-11.102-5.103
		c-1.884-1.469-3.134-3.37-3.633-5.729c-0.136-0.645-0.128-1.26,0.352-1.758c1.157-0.159,1.31-0.096,1.755,0.781
		c0.161,0.318,0.282,0.656,0.421,0.986c1.303,3.106,3.74,4.941,6.742,6.121c0.47-0.391,0.418-0.854,0.428-1.284
		c0.025-1.077,0.05-2.155,0.029-3.231c-0.039-1.982,0.351-3.859,1.177-5.667c0.643-1.409,1.221-2.849,1.78-4.294
		c0.603-1.557,1.13-3.145,1.336-4.81c0.344-2.777-0.454-5.271-1.961-7.579c-0.475-0.727-1.016-1.426-1.11-2.314
		c0.739-1.048,1.1-1.123,2.031-0.433c0.191,0.142,0.399,0.279,0.545,0.462c1.196,1.507,2.303,3.103,2.654,5.015
		c0.507,2.761,0.522,5.539-0.347,8.262c-0.882,2.763-1.999,5.44-3.004,8.158c-1.082,2.927-1.069,5.827,0.55,8.619
		c0.414,0.714,0.973,1.135,1.75,1.312c1.202,0.274,2.401,0.563,3.609,0.806c2.397,0.483,4.737,1.093,6.712,2.643
		c0.269,0.211,0.547,0.457,0.933,0.406c2.675-5.158,3.117-14.377,0.496-17.688c-0.38,0.541-0.485,1.163-0.605,1.775
		c-0.223,1.133-0.551,2.235-0.944,3.319c-0.261,0.718-0.61,1.375-1.217,1.866c-0.885,0.067-1.343-0.406-1.622-1.211
		c0.173-0.606,0.343-1.258,0.545-1.9c0.734-2.323,1.227-4.696,1.29-7.131c0.066-2.547,0.154-5.097-0.186-7.641
		c-0.327-2.444-1.079-4.706-2.482-6.756c-1.608-2.35-3.812-4.064-6.071-5.707c-2.002-1.456-3.979-2.929-5.824-4.587
		c-1.488-1.336-2.825-2.82-4.302-4.164c-0.813-0.74-1.733-1.309-2.781-1.584c-2.627-0.687-5.275-0.651-7.939-0.137
		c-2.986,0.577-5.165,2.355-7.071,4.509c0,2.199,0,4.345,0,6.542c1.266,0.271,2.507,0.514,3.737,0.804
		c2.418,0.57,4.759,1.371,6.801,2.816c3.748,2.652,6.178,6.193,6.834,10.782c0.215,1.505,0.604,3.065-0.036,4.584
		c-0.519,0.385-1.05,0.316-1.626,0.155c-0.523-0.816-0.532-1.741-0.631-2.639c-0.215-1.943-0.57-3.848-1.48-5.606
		c-2.048-3.957-5.31-6.371-9.591-7.475c-1.3-0.335-2.604-0.674-3.959-0.426C46.045,18.503,45.991,77.18,46.111,80.759z"/>
	<path style="fill:#11283A;" d="M320.671,51.739c0.092-5.767,0.196-11.632,0.276-17.498c0.055-4.066,1.511-7.615,4.021-10.745
		c1.417-1.767,3.242-3.043,5.352-3.904c3.435-1.401,6.978-1.85,10.673-1.454c2.346,0.251,4.665,0.481,6.863,1.439
		c3.594,1.566,6.239,4.077,7.878,7.637c0.96,2.085,1.503,4.25,1.542,6.563c0.172,10.174,0.398,20.348,0.146,30.524
		c-0.041,1.675-0.097,3.352-0.069,5.027c0.057,3.432-1.093,6.461-2.926,9.302c-1.877,2.909-4.563,4.69-7.753,5.888
		c-2.411,0.905-4.908,1.01-7.42,1.062c-3.346,0.069-6.608-0.348-9.646-1.873c-1.837-0.922-3.46-2.108-4.756-3.733
		c-1.743-2.187-2.911-4.648-3.607-7.335c-0.301-1.162-0.277-2.374-0.299-3.567C320.84,63.329,320.761,57.583,320.671,51.739z
		 M353.062,53.134c-0.13-6.458,0.253-12.923-0.24-19.376c-0.169-2.205-0.793-4.302-2.073-6.121c-1.759-2.498-4.101-4.186-7.181-4.72
		c-0.667-0.116-1.33-0.31-2-0.344c-2.745-0.139-5.479-0.347-8.17,0.602c-4.779,1.686-7.638,5.759-7.945,10.479
		c-0.132,2.029-0.206,4.064-0.214,6.097c-0.032,8.936-0.05,17.872-0.026,26.808c0.008,2.8,0.41,5.543,1.627,8.123
		c0.411,0.872,0.891,1.676,1.506,2.416c1.571,1.888,3.698,2.875,5.957,3.589c1.925,0.609,3.942,0.529,5.942,0.51
		c2.231-0.022,4.35-0.484,6.32-1.537c3.91-2.09,5.997-5.392,6.222-9.777C353.072,64.305,353.093,58.719,353.062,53.134z"/>
	<path style="fill:#11283A;" d="M131.186,69.255c-0.408,0-0.764,0-1.12,0c-6.197,0-12.395-0.01-18.592,0.006
		c-1.758,0.005-3.517,0.076-5.274,0.136c-0.635,0.022-1.281,0.045-1.947,0.471c-0.583,2.015-1.169,4.117-1.802,6.205
		c-0.784,2.587-1.531,5.184-2.487,7.718c-0.384,1.018-0.935,1.266-1.9,1.241c-0.16-0.004-0.319-0.02-0.478-0.037
		c-1.513-0.159-2.045-0.857-1.758-2.338c0.371-1.914,0.919-3.782,1.497-5.641c5.409-17.389,10.813-34.779,16.242-52.162
		c0.639-2.047,1.305-4.087,2.071-6.095c0.285-0.745,0.726-1.122,1.456-1.197c2.226-0.229,3.046,0.292,3.607,2.069
		c1.041,3.298,2.044,6.609,3.055,9.916c5.107,16.692,10.213,33.384,15.314,50.077c0.313,1.026,0.542,2.079,0.884,3.095
		c0.273,0.81-0.086,1.321-0.681,1.726c-0.493,0.336-1.037,0.583-1.667,0.592c-0.971,0.015-1.347-0.216-1.7-1.142
		c-1.5-3.941-2.575-8.02-3.892-12.02C131.734,71.019,131.47,70.155,131.186,69.255z M129.51,64.363
		c-0.463-2.694-10.837-36.774-11.685-38.2c-4.095,12.868-8.1,25.602-11.939,38.458c1.421,0.094,2.693,0.242,3.967,0.252
		c4.556,0.036,9.113,0.032,13.669,0.029c1.718-0.001,3.437,0.014,5.147-0.208C128.98,64.654,129.321,64.707,129.51,64.363z"/>
	<path style="fill:#11283A;" d="M226.258,21.706c-1.966,0.485-3.935,0.453-5.876,0.469c-8.198,0.066-16.397,0.049-24.596,0.063
		c-0.43,0.001-0.859,0-1.391,0c0.084,9.055,0.168,18.012,0.252,27.081c5.31,0.017,10.567,0.065,15.727,0.448
		c0.818,1.145,0.735,2.145,0.225,3.169c-0.855,0.416-1.744,0.387-2.615,0.41c-4.037,0.103-8.076,0.184-12.113,0.28
		c-0.389,0.009-0.79-0.07-1.223,0.11c-0.083,8.96-0.167,17.917-0.251,26.947c10.562,0.086,21.024,0.171,31.44,0.256
		c1.157,1.286,1.143,2.594,0.304,4.02c-11.747-0.069-23.5,0.203-35.114-0.129c-0.492-0.422-0.687-0.789-0.695-1.259
		c-0.03-1.635-0.246-3.257-0.246-4.898c-0.007-18.437-0.144-36.874-0.002-55.31c0.009-1.157,0.062-2.313,0.097-3.47
		c0.017-0.567,0.125-1.108,0.56-1.663c1.714,0.065,3.491-0.262,5.291-0.261c8.759,0.001,17.517,0,26.276-0.003
		c0.842,0,1.676,0.065,2.51,0.178c1.679,0.228,2.375,1.367,1.767,2.945C226.512,21.27,226.4,21.438,226.258,21.706z"/>
	<path style="fill:#10283A;" d="M269.854,68.182c0.562,0.86,0.533,1.856,0.525,2.781c-0.033,3.715-1.412,6.873-4.067,9.509
		c-2.745,2.727-6.138,4.04-9.843,4.777c-2.575,0.512-5.153,0.563-7.744,0.215c-7.559-1.016-12.745-5.352-14.623-12.814
		c-0.287-1.141-0.283-2.375-0.286-3.566c-0.03-10.772-0.032-21.544-0.041-32.316c-0.001-0.838,0.081-1.685-0.012-2.512
		c-0.402-3.578,1.189-6.513,3.085-9.289c2.976-4.356,7.332-6.314,12.475-6.797c2.847-0.267,5.661-0.073,8.468,0.404
		c2.365,0.402,4.503,1.338,6.401,2.785c1.722,1.314,3.195,2.869,4.451,4.646c0.932,1.318,1.349,2.799,1.546,4.336
		c0.131,1.021,0.313,2.05,0.263,3.095c-0.042,0.893-0.331,1.6-1.155,2.074c-1.284,0.739-2.744,0.212-3.129-1.214
		c-0.3-1.11-0.436-2.255-0.721-3.374c-0.774-3.036-2.583-5.271-5.24-6.824c-1.527-0.892-3.255-1.351-4.995-1.553
		c-2.949-0.342-5.888-0.244-8.774,0.622c-2.955,0.887-5.098,2.703-6.543,5.39c-0.662,1.231-1.086,2.558-1.585,3.856
		c-0.162,0.42-0.173,0.852-0.172,1.293c0.003,9.575-0.042,19.151,0.029,28.726c0.022,2.945-0.109,5.916,0.357,8.839
		c0.501,3.142,1.871,5.819,4.648,7.601c2.268,1.456,4.762,2.213,7.451,2.279c1.716,0.043,3.44,0.15,5.149-0.11
		c4.826-0.734,8.102-3.29,9.441-8.082c0.321-1.147,0.641-2.296,0.896-3.459c0.394-1.799,1.236-1.824,2.604-1.672
		C269.113,67.875,269.48,68.019,269.854,68.182z"/>
	<path style="fill:#13293B;" d="M292.779,22.452c-4.784-0.072-9.422-0.147-14.061-0.205c-0.803-0.01-1.594-0.087-2.376-0.252
		c-0.888-0.187-1.283-0.749-1.332-1.848c-0.044-0.992,0.31-1.531,1.16-1.832c0.271-0.096,0.541-0.123,0.82-0.142
		c2.075-0.138,4.151-0.218,6.233-0.212c9.959,0.025,19.918,0.032,29.877,0.046c0.437,0.001,0.873,0,1.251,0
		c1.119,1.326,1.258,2.607,0.057,3.966c-5.486,0.365-11.087,0.161-16.8,0.485c-0.082,10.323-0.181,20.642-0.241,30.963
		c-0.06,10.333-0.082,20.667-0.12,30.955c-1.606,0.867-2.211,0.862-4.074-0.009C293.038,63.773,293.025,43.153,292.779,22.452z"/>
	<path style="fill:#10283A;" d="M153.361,80.711c0.511,0,0.903-0.001,1.295,0c7.318,0.011,14.636,0.031,21.954,0.025
		c1.282-0.001,2.554,0.092,3.827,0.202c1.147,0.099,1.696,0.702,1.723,1.851c0.011,0.45-0.133,0.862-0.252,1.282
		c-0.123,0.435-0.421,0.662-0.857,0.715c-0.595,0.072-1.19,0.177-1.786,0.19c-8.957,0.186-17.914,0.027-26.871-0.012
		c-1.027-0.004-2.053-0.189-3.103-0.292c-0.289-1.096-0.432-2.106-0.449-3.138c-0.193-11.57-0.212-23.141-0.24-34.712
		c-0.021-8.818-0.029-17.636-0.043-26.455c-0.001-0.437,0-0.873,0-1.31c0.513-0.451,1.086-0.736,1.672-0.967
		c1.233-0.487,2.268,0.077,2.679,1.332c0.193,0.589,0.188,1.173,0.202,1.767c0.467,19.349,0.158,38.702,0.249,58.052
		C153.363,79.677,153.361,80.113,153.361,80.711z"/>
	<path style="fill:#9B9C9E;" d="M354.246,96.597c-0.045,4.193,0.126,8.379-0.459,12.453c-0.392,0.192-0.616,0.18-0.928-0.004
		c-0.418-2.237-0.528-4.563-0.554-6.959c-0.514,0.198-0.563,0.669-0.764,1.017c-0.278,0.481-0.491,0.999-0.852,1.434
		c-0.651,0.784-1.354,0.817-1.954-0.006c-0.507-0.696-0.91-1.466-1.355-2.196c-0.71,2.207,0.114,4.606-0.869,6.739
		c-0.468,0.153-0.856,0.153-1.327,0.069c-0.091-0.923-0.245-1.856-0.262-2.792c-0.042-2.351,0-4.704-0.038-7.056
		c-0.01-0.648,0.212-1.248,0.228-1.886c0.011-0.441,0.339-0.696,0.758-0.915c0.631,0.103,1.11,0.442,1.458,1.037
		c0.6,1.028,1.249,2.027,1.86,3.049c0.148,0.247,0.329,0.444,0.655,0.729c0.558-0.984,1.106-1.919,1.622-2.87
		C352.047,97.371,352.819,96.604,354.246,96.597z"/>
	<path style="fill:#9B9B9E;" d="M317.181,104.844c-0.992-0.656-1.292-1.705-1.885-2.554c-0.442,0.397-0.384,0.873-0.389,1.33
		c-0.014,1.315-0.037,2.631-0.035,3.946c0.001,0.578-0.104,1.101-0.526,1.521c-0.392,0.164-0.788,0.122-1.182,0.088
		c-0.273-0.938-0.293-11.05-0.026-12.216c0.964-0.374,1.041-0.376,1.644,0.283c1.085,1.184,1.757,2.638,2.577,3.995
		c0.082,0.135,0.164,0.27,0.286,0.471c0.667-1.285,1.328-2.527,1.958-3.784c0.495-0.987,1.243-1.382,2.394-1.101
		c0,4.16,0,8.32,0,12.476c-0.728,0.07-0.733,0.087-1.385-0.24c-0.359-0.464-0.444-0.996-0.442-1.569
		c0.004-1.275-0.014-2.551-0.042-3.826c-0.007-0.3,0.117-0.636-0.223-0.963c-0.535,0.305-0.679,0.916-1.014,1.366
		C318.463,104.642,317.991,105.092,317.181,104.844z"/>
	<path style="fill:#9A9B9D;" d="M362.513,96.486c1.631,0.118,3.167-0.101,4.725,0.176c0.994,0.176,1.695,0.605,2.345,1.471
		c0.042,1.395,0.222,2.899-0.444,4.389c1.412,1.506,1.087,3.306,0.606,5.02c-0.242,0.864-1.072,1.442-2.047,1.651
		c-1.694,0.363-3.402,0.189-5.186,0.257C362.513,105.132,362.513,100.892,362.513,96.486z M367.444,106.885
		c0.643-1.047,0.659-2.051-0.05-2.854c-0.799-0.907-1.939-0.612-3.007-0.554c0,1.295,0,2.503,0,3.767
		C365.472,107.283,366.491,107.386,367.444,106.885z M364.416,101.308c2.274,0.643,3.276-0.186,2.909-2.358
		c-0.921-0.3-1.838-0.804-2.901-0.315C364.262,99.543,364.25,100.399,364.416,101.308z"/>
	<path style="fill:#9A9B9D;" d="M283.242,96.827c1.626-0.485,3.231-0.505,4.775-0.172c3.059,0.66,3.785,4.393,1.825,6.258
		c-0.316,0.301-0.697,0.534-1.025,0.782c0.696,1.834,1.771,3.271,2.024,5.014c-0.82,0.961-1.238,1.016-1.949,0.04
		c-0.839-1.151-1.554-2.393-2.31-3.604c-0.253-0.405-0.52-0.78-1.08-1.04c-0.762,1.613-0.072,3.438-0.863,4.947
		c-0.452,0.216-0.877,0.191-1.328,0.097c-0.041-0.109-0.12-0.218-0.116-0.323c0.097-2.505-0.213-4.998-0.219-7.501
		C282.974,99.852,283.133,98.399,283.242,96.827z M285.2,98.231c0,1.269,0,2.478,0,3.671c0.8,0.234,1.473-0.237,2.188-0.135
		c0.115,0.016,0.244,0.004,0.355-0.03c0.274-0.084,0.491-0.258,0.656-0.492c0.634-0.896,0.375-1.856-0.672-2.356
		C286.945,98.516,286.079,98.441,285.2,98.231z"/>
	<path style="fill:#9A9B9D;" d="M394.92,104.101c-0.801,1.624,0.078,3.411-0.791,5.025c-0.193,0.149-0.482,0.356-0.935,0.218
		c-0.411-0.315-0.557-0.793-0.545-1.329c0.063-2.707-0.312-5.401-0.223-8.11c0.033-0.992,0.326-1.958,0.206-2.956
		c0.523-0.339,1.054-0.399,1.616-0.441c1.206-0.09,2.388,0.112,3.564,0.273c1.479,0.201,2.407,1.57,2.215,3.172
		c-0.061,0.509-0.168,1.013-0.186,1.53c-0.02,0.551-0.337,0.965-0.695,1.35c-0.349,0.376-0.704,0.748-1.069,1.136
		c0.746,1.713,2.17,3.164,1.709,5.159c-0.416,0.429-0.766,0.296-1.098,0.003c-0.512-0.452-0.925-0.976-1.242-1.591
		c-0.418-0.811-0.863-1.612-1.347-2.385C395.85,104.76,395.543,104.378,394.92,104.101z M394.561,102.014
		c1.006-0.168,1.879-0.141,2.685-0.474c1.009-0.417,1.233-1.661,0.364-2.267c-0.798-0.557-1.69-1.01-2.837-0.806
		C394.367,99.577,394.634,100.71,394.561,102.014z"/>
	<path style="fill:#9A9B9D;" d="M257.759,103.304c-0.114-1.298,0.112-2.833,0.261-4.371c0.11-1.128,1.111-2.013,2.276-2.225
		c0.793-0.145,1.538-0.182,2.336,0c1.422,0.324,2.451,0.848,2.515,2.658c0.06,1.705,0.301,3.399,0.263,5.107
		c-0.02,0.871-0.173,1.731-0.24,2.599c-0.105,1.356-1.029,2.102-2.402,2.128c-0.837,0.016-1.678-0.038-2.512,0.012
		c-1.093,0.065-1.69-0.542-2.116-1.42c-0.356-0.733-0.404-1.521-0.383-2.321C257.772,104.834,257.759,104.197,257.759,103.304z
		 M261.507,98.638c-0.407,0.176-0.857,0.207-1.176,0.459c-0.366,0.47-0.428,0.972-0.424,1.5c0.012,1.513-0.002,3.027,0.018,4.54
		c0.018,1.362,0.375,1.82,1.724,2.324c1.288-0.392,1.292-1.535,1.359-2.523c0.102-1.507,0.023-3.025,0.033-4.538
		c0.003-0.495-0.121-0.936-0.453-1.371C262.253,98.907,261.884,98.773,261.507,98.638z"/>
	<path style="fill:#9A9B9D;" d="M155.026,103.887c0.438,0.877,0.857,1.728,1.289,2.573c0.218,0.427,0.366,0.862,0.454,1.342
		c0.194,1.056,0.136,1.203-0.998,1.609c-0.658-0.315-1.089-0.874-1.392-1.536c-0.431-0.942-0.947-1.835-1.485-2.717
		c-0.412-0.675-0.48-0.73-1.237-1c-0.458,0.358-0.464,0.878-0.453,1.392c0.019,0.876-0.06,1.74-0.227,2.602
		c-0.193,1.002-0.392,1.177-1.583,1.22c0.206-4.239,0.053-8.479,0.127-12.746c0.562-0.256,1.126-0.129,1.664-0.108
		c1.191,0.045,2.381,0.13,3.568,0.238c1.055,0.096,1.912,0.891,2.179,2.624c0.232,1.507-0.189,2.826-1.33,3.886
		C155.402,103.45,155.229,103.666,155.026,103.887z M151.352,98.548c-0.26,1.039-0.192,2.007-0.089,2.945
		c0.926,0.533,0.92,0.494,2.277,0.288c0.72-0.109,1.017-0.56,1.21-1.139c0.194-0.583-0.016-1.176-0.59-1.545
		C153.349,98.577,152.468,98.259,151.352,98.548z"/>
	<path style="fill:#F8B927;" d="M6.235,35.539c0.941,1.059,1.155,2.352,1.162,3.678c0.003,0.669,0.11,1.254,0.537,1.774
		c0.492,0.599,0.561,1.3,0.468,2.036c-0.061,0.481-0.333,0.815-0.768,0.985c-0.45,0.176-0.749-0.11-1.033-0.415
		c-0.849-0.912-0.984-1.965-0.583-3.173c-1.23-0.762-1.011-2.226-1.612-3.356C3.77,37.2,3.661,37.78,3.363,38.165
		c-0.62,0.804-1.028,0.893-2.083,0.364c-0.344-1.352,0.232-2.524,0.869-3.679c0.166-0.301,0.487-0.385,0.792-0.496
		c0.293-0.107,0.653-0.032,0.994-0.46c-0.265-1.374,0.04-2.863,0.167-4.362c0.14-1.662,0.297-3.325,0.705-4.952
		c0.156-0.621,0.443-1.107,1.101-1.303c1.065,0.467,1.142,0.505,1.063,1.677c-0.166,2.466-0.397,4.93-0.302,7.404
		C6.71,33.445,6.628,34.498,6.235,35.539z"/>
	<path style="fill:#9B9B9E;" d="M166.85,96.844c1.377-0.567,2.004-0.372,2.439,0.865c1.177,3.35,2.348,6.705,2.985,10.214
		c0.1,0.551-0.108,1.003-0.472,1.422c-0.673,0.18-1.037-0.179-1.325-0.707c-0.338-0.619-0.496-1.353-1.124-1.801
		c-0.549-0.139-1.112-0.023-1.664-0.079c-0.921-0.093-1.53,0.243-1.833,1.139c-0.139,0.411-0.328,0.808-0.651,1.125
		c-0.305,0.299-0.648,0.498-1.072,0.351c-0.461-0.16-0.474-0.554-0.473-0.981c0.001-1.008,0.322-1.954,0.589-2.895
		C165.067,102.613,165.969,99.752,166.85,96.844z M168.001,101.089c-0.515,1.12-0.936,2.239-1.157,3.479
		c0.719,0.09,1.406,0.186,2.138-0.044C168.95,103.286,168.499,102.202,168.001,101.089z"/>
	<path style="fill:#9B9B9E;" d="M225.896,99.081c-0.832-0.099-1.599-0.195-2.364-0.371c-1.131-0.26-1.688,0.063-2.262,1.222
		c0.108,0.626,0.647,0.862,1.14,1.093c0.903,0.424,1.765,0.917,2.622,1.422c0.812,0.478,1.308,1.126,1.298,2.117
		c-0.008,0.781,0.141,1.549,0.018,2.346c-0.22,1.424-1.271,2.479-2.728,2.51c-0.948,0.02-1.914,0.163-2.839-0.216
		c-0.712-0.291-1.357-0.644-1.719-1.375c-0.192-0.386-0.262-0.743,0.008-1.118c0.303-0.42,0.739-0.504,1.174-0.36
		c0.487,0.161,0.943,0.418,1.402,0.656c0.866,0.449,1.671,0.449,2.394-0.245c0.294-1.654,0.145-1.963-1.234-2.7
		c-0.667-0.356-1.296-0.79-1.984-1.095c-1.175-0.521-1.599-1.492-1.665-2.654c-0.063-1.117-0.018-2.227,0.977-3.037
		c0.456-0.371,0.975-0.492,1.524-0.619c1.031-0.239,2.047-0.232,3.055,0.072C226.053,97.133,226.235,97.477,225.896,99.081z"/>
	<path style="fill:#9B9B9E;" d="M332.647,104.28c-0.29,0.316-0.256,0.606-0.26,0.88c-0.011,0.667-0.004,1.334-0.004,2.124
		c1.118,0,2.145-0.01,3.172,0.005c0.394,0.006,0.783,0.009,1.182,0.102c0.784,0.181,1.148,0.625,1.159,1.413
		c-0.343,0.474-0.818,0.638-1.356,0.612c-2.07-0.102-4.187,0.357-6.242-0.344c-0.138-4.15-0.611-8.145,0.017-12.21
		c1.342-0.445,2.777-0.417,4.181-0.284c0.751,0.071,1.502,0.123,2.253,0.148c0.528,0.017,0.931,0.163,1.143,0.758
		c-0.317,0.583-0.89,0.698-1.496,0.673c-1.316-0.055-2.591,0.303-3.962,0.25c0,1.194,0,2.294,0,3.445
		c0.438,0.282,0.97,0.107,1.469,0.155c0.743,0.071,1.119,0.388,1.116,0.969c-0.003,0.539-0.316,0.868-1,0.944
		C333.499,103.975,333.019,104.109,332.647,104.28z"/>
	<path style="fill:#9B9C9E;" d="M179.763,97.083c0.475-0.41,0.903-0.55,1.405-0.568c1.317-0.048,2.623,0.036,3.925,0.227
		c0.632,0.093,1.108,0.437,1.467,0.938c1.345,1.879,1.185,4.303-0.298,6.053c-0.442,0.522-1.089,0.624-1.729,0.645
		c-0.831,0.027-1.663,0.007-2.626,0.007c0.048,1.37-0.132,2.612-0.224,3.863c-0.079,1.079-0.565,1.341-1.634,0.847
		C179.503,105.097,179.863,101.049,179.763,97.083z M181.934,102.672c0.714-0.078,1.341-0.096,1.944-0.225
		c0.87-0.187,1.518-1.132,1.414-1.948c-0.165-1.302-1.957-2.333-3.343-1.831C181.857,99.954,181.864,101.277,181.934,102.672z"/>
	<path style="fill:#9B9C9E;" d="M136.604,101.912c0.843,0.193,1.695-0.059,2.48,0.164c0.239,1.487,0.142,1.616-1.216,1.872
		c-0.383,0.072-0.751,0.224-1.148,0.346c-0.314,0.957-0.167,1.9-0.161,2.901c1.758,0.278,3.542-0.186,5.223,0.428
		c0.382,0.291,0.318,0.696,0.286,1.091c-1.151,0.799-5.389,1.021-7.309,0.382c-0.343-0.382-0.334-0.861-0.359-1.34
		c-0.067-1.308-0.115-2.622-0.158-3.926c-0.075-2.255,0.136-4.52,0.226-6.749c1.306-0.781,6.197-0.717,7.538,0.07
		c0.11,0.272,0.116,0.538-0.075,0.848c-1.687,0.567-3.493,0.305-5.329,0.442C136.604,99.612,136.604,100.74,136.604,101.912z"/>
	<path style="fill:#9B9C9E;" d="M377.81,109.315c0-4.154,0-8.216,0-12.382c2.396-0.743,4.827-0.254,7.231-0.46
		c0.235,0.499,0.154,0.919,0.103,1.449c-1.654,0.67-3.421,0.37-5.188,0.515c0,1.163,0,2.264,0,3.409
		c0.399,0.279,0.892,0.123,1.355,0.154c1.193,0.082,1.463,0.528,0.997,1.793c-0.694,0.144-1.424,0.295-2.24,0.465
		c-0.31,0.96-0.156,1.933-0.147,2.974c1.208,0.14,2.358,0.058,3.497,0.229c1.471,0.221,1.588,0.256,1.49,1.854
		C382.58,109.315,380.245,109.315,377.81,109.315z"/>
	<path style="fill:#9B9B9E;" d="M305.331,98.031c-1.695,0.469-3.332,0.314-5.007,0.384c-0.154,1.189-0.077,2.32-0.055,3.445
		c0.443,0.211,0.846,0.111,1.234,0.142c0.315,0.025,0.629-0.013,0.935,0.141c0.377,0.19,0.711,0.386,0.657,0.878
		c-0.053,0.491-0.33,0.8-0.815,0.894c-0.543,0.105-1.09,0.186-1.668,0.283c-0.617,0.956-0.308,1.981-0.343,3.079
		c1.625-0.005,3.164,0.041,4.68,0.336c0.561,0.766,0.561,0.766,0.421,1.738c-2.294,0-4.594,0-7.023,0
		c-0.052-4.166-0.568-8.3,0.036-12.5c2.395-0.597,4.814-0.223,7.227-0.344C305.846,97.136,305.637,97.579,305.331,98.031z"/>
	<path style="fill:#9B9C9E;" d="M209.709,102.55c0.083,0.459,0.14,0.851-0.233,1.249c-0.741,0.169-1.549,0.339-2.399,0.371
		c-0.612,0.945-0.428,1.969-0.403,3.056c1.786,0.181,3.554-0.14,5.315,0.371c0.239,0.246,0.467,0.556,0.332,1.038
		c-0.366,0.467-0.898,0.559-1.474,0.559c-1.12,0.001-2.24,0.028-3.359,0.014c-0.79-0.01-1.558,0.381-2.452,0.089
		c-0.412-4.194-0.428-8.423-0.107-12.75c1.423,0,2.779-0.096,4.112,0.039c0.713,0.072,1.426,0.118,2.138,0.138
		c0.649,0.018,1.057,0.259,1.227,0.943c-0.433,0.73-1.219,0.627-1.878,0.712c-0.749,0.096-1.517,0.052-2.277,0.049
		c-0.445-0.002-0.877,0.024-1.329,0.317c0.019,1.007-0.398,2.031-0.227,3.144C207.671,102.205,208.821,101.66,209.709,102.55z"/>
	<path style="fill:#9B9C9E;" d="M125.869,109.085c-0.191,0.143-0.389,0.115-0.73,0.097c-0.687-1.709-0.51-3.573-0.604-5.432
		c-1.283,0-2.467,0-3.704,0c-0.724,1.703,0.055,3.624-0.657,5.287c-0.258,0.216-0.49,0.181-0.741,0.115
		c-0.273-0.297-0.374-0.656-0.402-1.07c-0.246-3.655-0.23-7.314-0.23-10.974c0-0.153,0.029-0.306,0.045-0.463
		c0.403-0.23,0.797-0.116,1.281-0.1c0.838,1.59,0.479,3.37,0.654,5.141c1.159,0,2.291,0,3.51,0c0.125-1.225,0.039-2.449,0.22-3.662
		c0.214-1.437,0.276-1.572,1.855-1.436c0.234,0.652-0.131,1.295-0.123,1.952c0.032,2.949-0.018,5.898-0.017,8.847
		C126.226,107.993,126.138,108.561,125.869,109.085z"/>
	<path style="fill:#F8B927;" d="M7.638,54.939c0.103,0.682-0.232,1.162-0.513,1.628c-1.16,1.922-1.653,4.03-1.827,6.235
		c-0.082,1.044,0.182,2.061,0.277,3.089c0.06,0.651,0.036,1.256-0.085,1.866c-1.329,0.791-2.182,0.323-2.374-1.168
		c-0.308-2.392-0.184-4.771,0.04-7.154c0.026-0.275,0.082-0.549,0.149-0.817c0.174-0.697,0.09-1.331-0.348-1.926
		c-0.527-0.716-0.871-1.526-1.01-2.401c-0.093-0.585-0.174-1.2,0.328-1.722c0.298-0.19,0.652-0.17,1.012-0.109
		c0.879,0.56,1.046,1.676,1.861,2.385c0.464-0.232,0.805-0.79,1.414-0.68C7.017,54.247,7.347,54.529,7.638,54.939z"/>
	<path style="fill:#9B9C9E;" d="M106.516,98.751c-1.08-0.244-2.14,0.218-2.991-0.48c-0.141-0.422-0.093-0.81-0.063-1.33
		c2.652-0.762,5.343-0.272,7.984-0.449c0.29,1.776,0.059,1.966-2.554,2.22c-0.276,0.255-0.163,0.594-0.165,0.897
		c-0.012,1.592,0.001,3.185-0.009,4.777c-0.01,1.543,0.086,3.094-0.37,4.687c-0.197,0.196-0.493,0.369-0.906,0.308
		c-0.62-0.391-0.616-1.033-0.646-1.673c-0.129-2.776-0.294-5.552-0.237-8.333C106.562,99.183,106.533,98.991,106.516,98.751z"/>
	<path style="fill:#9B9B9E;" d="M250.774,96.588c0.06,0.575,0.122,1.081-0.118,1.605c-0.75,0.361-1.568,0.459-2.368,0.482
		c-0.3,0.609-0.347,1.187-0.347,1.785c0,2.549-0.019,5.099-0.03,7.648c-0.002,0.39,0,0.78,0,1.226c-0.645,0-1.187,0-1.74,0
		c-0.266-0.257-0.153-0.595-0.155-0.898c-0.021-2.629-0.038-5.258-0.035-7.887c0.001-0.603-0.061-1.186-0.275-1.793
		c-0.77-0.297-1.767,0.168-2.49-0.651c-0.219-0.411-0.005-0.973-0.421-1.517C245.52,96.588,248.088,96.588,250.774,96.588z"/>
	<path style="fill:#F8B926;" d="M11.993,83.574c-0.788-0.397-1.005-1.1-1.146-1.793c-0.312-1.534-1.029-2.807-2.176-3.874
		c-0.461-0.429-0.816-0.972-1.221-1.461c-0.313-0.378-0.389-0.775-0.088-1.194c0.323-0.451,0.993-0.662,1.478-0.461
		c0.492,0.204,0.872,0.572,1.197,0.966c0.555,0.674,1.209,0.926,2.09,0.863c1.244-0.088,1.756,0.589,1.366,1.775
		c-0.384,1.168-0.286,2.349-0.274,3.537C13.23,82.989,13.078,83.172,11.993,83.574z"/>
	<path style="fill:#F8B927;" d="M24.597,48.839c0.155,0.389,0.155,0.737,0.053,1.098c-0.994,1.186-2.385,1.54-3.818,1.671
		c-0.762,0.07-1.373,0.327-1.957,0.755c-0.951,0.698-2.024,1.097-3.19,1.222c-0.9,0.096-1.037-0.022-1.493-1.027
		c0.281-0.784,0.89-1.281,1.676-1.516c0.72-0.215,1.295-0.592,1.751-1.167c0.465-0.586,1.003-0.801,1.775-0.622
		c0.928,0.216,1.794-0.195,2.66-0.485C22.878,48.492,23.713,48.144,24.597,48.839z"/>
	<path style="fill:#9A9B9D;" d="M196.505,108.96c-0.534,0.277-0.851,0.257-1.2,0.223c-0.058-0.076-0.141-0.159-0.195-0.258
		c-0.133-0.246-0.224-0.5-0.234-0.791c-0.131-3.814-0.314-7.626-0.163-11.497c0.787-0.331,1.434-0.084,2.069,0.437
		C196.763,101.077,197.483,105.069,196.505,108.96z"/>
	<path style="fill:#F9BA2A;" d="M28.083,63.914c1.391-1.575,1.532-1.61,3.941-0.981c0.8-1.34,2.367-1.804,3.441-2.845
		c0.119-0.616,0.068-1.23,0.303-1.79c0.107-0.256,0.188-0.54,0.359-0.747c0.287-0.346,0.661-0.579,1.152-0.452
		c0.541,0.14,0.756,0.554,0.838,1.05c0.184,1.11-0.349,2.028-1.654,2.801c0.082,1.008-0.478,1.768-1.23,2.41
		c-0.622,0.531-1.321,0.901-2.184,0.779c-0.622-0.088-1.147,0.086-1.688,0.423C30.076,65.363,29.161,65.167,28.083,63.914z"/>
	<path style="fill:#F8B927;" d="M27.587,12.858c-1.474-0.777-1.568-1.941-0.289-2.866c0.605-0.438,1.34-0.46,2.086-0.678
		c0.179-1.063,0.949-1.421,1.959-1.426c0.903-0.004,1.832-0.173,2.577,0.604c0.308,0.321,0.75,0.165,1.131,0.021
		c0.695-0.263,1.335-0.134,1.92,0.287c1.116,0.802,0.984,1.809-0.341,2.4c-0.646-0.123-1.218-0.488-1.793-0.832
		c-0.504-0.301-1.025-0.402-1.6-0.314c-1.136,0.173-2.273,0.335-3.467,0.51C29.201,11.411,28.728,12.406,27.587,12.858z"/>
	<path style="fill:#F9BA28;" d="M34.95,1.411c-0.169,0.744-0.665,1.042-1.282,1.176c-1.134,0.246-2.285,0.331-3.442,0.244
		c-0.952-0.072-1.572-0.52-1.62-1.124c-0.058-0.729,0.562-1.327,1.565-1.485c1.179-0.185,2.353-0.387,3.542-0.008
		C34.324,0.41,34.795,0.7,34.95,1.411z"/>
	<path style="fill:#F8B927;" d="M22.123,71.446c0.603-0.43,1.146-0.487,1.543-0.297c0.928,0.444,1.873,0.56,2.8,0.378
		c0.801,1.269,0.7,1.89-0.458,2.497c-0.959,0.503-1.873,1.197-3.132,1.113C22.244,73.951,21.989,72.72,22.123,71.446z"/>
	<path style="fill:#F9BA28;" d="M29.083,83.838c0.626-1.368,1.028-1.52,2.281-0.875c1.06,0.546,2.068,1.163,2.79,2.107
		c-0.437,1.151-1.207,1.545-2.221,1.118C30.784,85.703,29.739,85.064,29.083,83.838z"/>
	<path style="fill:#F9BA2A;" d="M20.5,75.379c1.415,0.457,1.638,0.882,1.12,2.08c-0.314,0.726-0.664,1.434-1.113,2.093
		c-0.255,0.374-0.542,0.68-0.979,0.831c-1.296-0.478-1.586-1.019-1.064-2.218C18.936,77.081,19.48,76.023,20.5,75.379z"/>
	<path style="fill:#F9BA2A;" d="M28.634,70.934c1.216-0.33,2.453-0.418,3.724-0.109c0.608,0.148,0.839,0.567,0.975,1.074
		c0.167,0.623-0.069,0.995-0.719,1.111c-0.938,0.168-1.878,0.281-2.838,0.103C28.349,72.847,28.082,72.384,28.634,70.934z"/>
	<path style="fill:#F9BA2A;" d="M14.241,69.938c0.922,0.292,1.161,0.925,1.119,1.772c-0.049,0.962-0.31,1.862-0.641,2.755
		c-0.167,0.449-0.486,0.709-0.934,0.861c-1.199-0.415-1.315-0.637-1.134-1.878c0.12-0.823,0.311-1.625,0.539-2.423
		C13.341,70.495,13.605,70.09,14.241,69.938z"/>
	<path style="fill:#F9BA2A;" d="M17.776,96.5c0.156-0.852,0.714-1.146,1.326-1.434c1.223,0.757,2.27,1.707,3.147,2.814
		c-0.012,0.797-0.46,1.192-1.165,1.485C19.628,98.808,18.534,97.794,17.776,96.5z"/>
	<path style="fill:#F8B927;" d="M35.222,51.692c-1.303-0.668-1.548-1.388-0.796-2.469c0.589-0.848,1.19-1.704,2.121-2.215
		c1.469,0.37,1.642,0.754,1.018,2.064C37.033,50.187,36.221,51.029,35.222,51.692z"/>
	<path style="fill:#F9BA28;" d="M26.707,104.279c0.294-1.107,0.294-1.107,1.179-1.5c0.959,0.354,1.822,0.909,2.588,1.614
		c0.202,0.186,0.361,0.423,0.52,0.651c0.351,0.501,0.227,0.99-0.109,1.43c-0.353,0.463-0.821,0.43-1.284,0.182
		C28.472,106.053,27.4,105.378,26.707,104.279z"/>
	<path style="fill:#F8B926;" d="M37.474,107.569c-0.668,1.296-1.151,1.559-2.335,1.319c-0.425-0.086-0.835-0.248-1.254-0.371
		c-1.49-0.439-1.683-0.768-1.321-2.41C34.375,105.908,36.058,106.13,37.474,107.569z"/>
	<path style="fill:#F8B927;" d="M1.409,46.258c0.137,0.055,0.3,0.088,0.424,0.177c0.787,0.566,1.486,3.296,1.076,4.166
		c-0.273,0.58-0.793,0.724-1.962,0.492c-0.382-1.098-0.756-2.248-0.731-3.489C0.231,46.842,0.797,46.543,1.409,46.258z"/>
	<path style="fill:#F9BA2A;" d="M38.654,41.237c1.28,0.642,1.44,0.986,1.218,2.308c-0.119,0.712-0.339,1.378-0.687,2.003
		c-0.335,0.603-1,0.833-1.605,0.568c-0.597-0.261-0.602-0.729-0.495-1.292c0.162-0.853,0.31-1.704,0.58-2.533
		C37.836,41.771,38.081,41.356,38.654,41.237z"/>
	<path style="fill:#F9BA28;" d="M10.752,17.16c-0.621-0.249-1.131-0.535-1.323-1.164c0.41-0.97,1.234-1.842,2.893-3.062
		c0.455-0.087,0.842,0.094,1.205,0.341C13.92,14.722,12.776,16.344,10.752,17.16z"/>
	<path style="fill:#F9BA28;" d="M13.987,91.449c0.304-0.553,0.653-0.92,1.088-1.164c0.276-0.047,0.514-0.032,0.709,0.133
		c0.955,0.809,1.721,1.734,2.009,3c0.096,0.42,0.155,0.802-0.217,1.072c-0.359,0.261-0.763,0.377-1.231,0.186
		c-0.429-0.175-0.732-0.456-0.982-0.825C14.851,93.097,14.4,92.31,13.987,91.449z"/>
	<path style="fill:#F9BA2A;" d="M21.714,64.838c1.179,1.348,1.383,2.906,1.332,4.526c-1.089,0.845-1.697,0.721-2.26-0.414
		c-0.214-0.43-0.343-0.882-0.457-1.346C19.943,66.014,20.043,65.772,21.714,64.838z"/>
	<path style="fill:#F9BA28;" d="M31.283,102.271c-0.717-0.004-1.436-0.015-2.113-0.293c-0.748-0.307-0.872-0.892-0.345-1.502
		c0.245-0.283,0.553-0.501,0.9-0.549c1.106-0.154,2.22-0.204,3.298,0.183c0.437,0.157,0.772,0.437,0.78,0.942
		c0.007,0.452-0.313,0.718-0.659,0.924C32.569,102.318,31.918,102.258,31.283,102.271z"/>
	<path style="fill:#F9BA2A;" d="M29.507,45.848c-0.424,1.256-1.229,2.115-2.317,2.691c-0.897,0.475-1.483,0.21-1.969-0.807
		c0.392-1.221,1.218-2.105,2.361-2.68C28.442,44.62,28.969,44.857,29.507,45.848z"/>
	<path style="fill:#F9BA28;" d="M36.104,86.582c-0.367-0.717-0.367-0.717-0.287-1.629c1.13-0.969,2.506-1.316,4.327-1.089
		c0.575,0.914,0.45,1.632-0.527,2.11C38.511,86.513,37.326,86.834,36.104,86.582z"/>
	<path style="fill:#F8B927;" d="M38.871,107.319c0.678-1.409,2.053-1.827,3.32-2.367c0.49-0.209,1.022-0.189,1.437,0.283
		c0.169,0.378,0.087,0.769,0.02,1.211c-0.898,1.123-2.057,1.794-3.565,1.81C39.494,108.262,39.082,108.04,38.871,107.319z"/>
	<path style="fill:#F9BA2A;" d="M16.816,32.972c1.711,0.561,1.85,2.17,2.34,3.519c-0.2,0.667-0.476,1.222-1.206,1.526
		c-1.204-0.818-1.804-2.036-2.09-3.43C15.709,33.852,16.205,33.414,16.816,32.972z"/>
	<path style="fill:#F8B927;" d="M36.258,1.473c0.643-0.436,1.205-0.529,1.888-0.334c0.922,0.263,1.873,0.433,2.565,1.158
		c0.354,0.371,0.438,0.816,0.167,1.315c-0.275,0.505-0.64,0.56-1.187,0.518c-0.997-0.076-1.832-0.451-2.64-0.998
		C36.457,2.73,36.207,2.22,36.258,1.473z"/>
	<path style="fill:#F8B927;" d="M14.852,88.934c-0.975,0.558-1.572,0.546-2.022-0.13c-0.598-0.898-0.857-1.941-1.036-2.995
		c-0.055-0.325,0.123-0.613,0.291-0.885c1.324-0.368,1.694-0.213,2.261,0.962C14.802,86.831,15.05,87.813,14.852,88.934z"/>
	<path style="fill:#F9BA2A;" d="M15.889,27.618c0.736,0.368,1.002,1.048,1.212,1.792c0.198,0.703,0.175,1.408,0.146,2.121
		c-0.02,0.494-0.246,0.844-0.724,0.964c-0.446,0.112-0.866,0.026-1.192-0.345c-0.185-0.211-0.362-0.428-0.415-0.708
		c-0.124-0.659-0.312-1.305-0.312-1.988C14.604,28.293,14.703,28.129,15.889,27.618z"/>
	<path style="fill:#F8B926;" d="M29.518,93.119c-0.017,0.647-0.341,1.041-0.772,1.476c-1.601,0.133-2.657-0.899-3.697-1.79
		c-0.15-0.457-0.103-0.81-0.076-1.142C26.169,90.811,28.233,91.475,29.518,93.119z"/>
	<path style="fill:#F9BA28;" d="M7.235,22.435c-1.113-0.367-1.461-0.801-1.23-1.708c0.245-0.963,0.681-1.857,1.355-2.616
		c0.389-0.438,0.872-0.606,1.39-0.348c0.53,0.264,0.621,0.731,0.474,1.318C8.89,20.418,8.382,21.627,7.235,22.435z"/>
	<path style="fill:#F9BA2A;" d="M25.003,58.859c-1.236-0.882-1.298-1.28-0.395-2.287c0.426-0.475,0.903-0.89,1.426-1.261
		c0.309-0.219,0.657-0.292,0.997-0.366c0.456-0.098,0.888,0.065,1.159,0.44c0.287,0.398,0.192,0.824-0.089,1.214
		C27.306,57.703,26.169,58.321,25.003,58.859z"/>
	<path style="fill:#F9BA28;" d="M23.763,5.778c-0.24-0.121-0.388-0.179-0.517-0.266c-0.13-0.087-0.241-0.202-0.347-0.293
		c-0.258-0.718,0.011-1.238,0.511-1.715c0.634-0.606,1.275-1.169,2.147-1.436c1.009-0.308,1.063-0.316,1.831,0.698
		C26.698,4.388,25.223,5.088,23.763,5.778z"/>
	<path style="fill:#F9BA2A;" d="M20.677,63.334c0.03-1.319,0.56-2.418,1.197-3.461c0.478-0.783,1.208-0.781,2.151-0.015
		c-0.086,1.275-0.53,2.482-1.305,3.544C22.231,64.073,21.771,64.027,20.677,63.334z"/>
	<path style="fill:#F9BA28;" d="M5.795,69.4c1.318,1.327,1.876,2.614,1.804,4.069c-0.38,0.426-0.819,0.557-1.381,0.337
		c-1.258-0.494-2.207-2.959-1.608-4.245C4.969,69.34,5.372,69.43,5.795,69.4z"/>
	<path style="fill:#F9BA2A;" d="M36.486,35.975c0.99-0.648,1.217-0.647,1.891,0.05c0.745,0.77,1.089,1.737,1.207,2.772
		c0.081,0.705-0.238,1.145-0.787,1.289c-0.538,0.141-1.012-0.084-1.356-0.681C36.841,38.365,36.458,37.261,36.486,35.975z"/>
	<path style="fill:#F9BA2A;" d="M8.438,53.34c0.933-1.199,2.146-1.497,3.52-1.223c0.873,0.174,0.863,0.223,1.201,1.246
		c-0.067,0.42-0.317,0.747-0.706,0.878c-0.862,0.291-1.756,0.498-2.665,0.542C8.973,54.821,8.768,54.565,8.438,53.34z"/>
	<path style="fill:#F9BA28;" d="M16.828,22.229c0.745,0.282,0.968,0.777,0.904,1.444c-0.1,1.045-0.465,1.996-1.03,2.873
		c-0.202,0.314-0.478,0.536-0.891,0.472c-0.433-0.067-0.789-0.329-0.873-0.718c-0.229-1.053,0.17-2.024,0.532-2.99
		C15.701,22.69,16.178,22.39,16.828,22.229z"/>
	<path style="fill:#F9BA2A;" d="M19.073,38.345c1.259,0.574,2.163,2.098,2.061,3.425c-0.054,0.701-0.496,1.037-1.129,1.323
		c-1.051-0.469-1.293-1.521-1.715-2.435c-0.08-0.173-0.061-0.391-0.1-0.585C17.965,38.947,17.967,38.942,19.073,38.345z"/>
	<path style="fill:#F8B926;" d="M33.174,51.694c0.533,0.836,0.33,1.483-0.138,2.084c-0.677,0.869-1.665,1.202-2.683,1.393
		c-0.696,0.131-1.193-0.497-1.074-1.207c0.048-0.286,0.183-0.542,0.381-0.726C30.637,52.326,31.754,51.714,33.174,51.694z"/>
	<path style="fill:#F9BA28;" d="M30.862,20.113c1.279,0.809,1.361,1.135,0.624,2.29c-0.319,0.5-0.637,1.002-1.078,1.408
		c-0.79,0.728-1.089,0.743-2.057,0.11C28.256,22.286,29.139,20.924,30.862,20.113z"/>
	<path style="fill:#F9BA28;" d="M31.795,19.689c0.273-1.452,0.915-2.004,3.304-2.862c0.796,0.398,0.796,0.398,1.095,1.315
		c-0.623,1.23-1.697,1.908-3.04,2.199C32.612,20.457,32.117,20.327,31.795,19.689z"/>
	<path style="fill:#F8B926;" d="M14.847,13.367c-0.705-1.141-0.656-1.665,0.279-2.398c0.906-0.712,1.881-1.288,3.08-1.139
		C18.885,11.52,17.092,13.37,14.847,13.367z"/>
	<path style="fill:#F8B927;" d="M36.803,17.61c-0.148-0.505-0.136-0.931-0.005-1.395c0.767-0.733,1.772-0.988,2.788-1.132
		c0.98-0.139,1.364,0.212,1.614,1.243C40.239,17.738,38.324,18.314,36.803,17.61z"/>
	<path style="fill:#F8B927;" d="M22.977,7.341c-0.696,1.311-1.402,1.969-2.869,2.672c-1.412-0.651-1.569-1.292-0.548-2.383
		c0.349-0.373,0.731-0.734,1.153-1.018C21.823,5.866,22.38,6.061,22.977,7.341z"/>
	<path style="fill:#F8B924;" d="M22.784,100.41c0.139-1.073,0.371-1.321,1.296-1.309c0.978,0.012,1.897,0.241,2.649,0.912
		c0.49,0.437,0.545,0.849,0.224,1.369c-0.425,0.689-1.438,0.992-2.18,0.668C23.946,101.688,23.309,101.107,22.784,100.41z"/>
	<path style="fill:#F8B924;" d="M0.212,44.31c0.005-0.889,0.009-1.777,0.014-2.666c0.03-0.194,0.025-0.402,0.097-0.579
		c0.254-0.625,0.746-0.944,1.266-0.824c0.601,0.139,0.813,0.585,0.81,1.148c-0.006,1.166,0.188,2.35-0.196,3.458
		C0.85,45.216,0.65,45.158,0.212,44.31z"/>
	<path style="fill:#F8B927;" d="M27.317,29.449c-0.79-0.273-0.963-0.745-0.948-1.363c0.026-1.019,0.392-1.936,0.853-2.81
		c0.316-0.598,0.855-0.639,1.482-0.271c0.54,1.26,0.142,2.519-0.247,3.754C28.3,29.258,27.732,29.311,27.317,29.449z"/>
	<path style="fill:#F9BA2A;" d="M21.582,45.745c-0.083,0.577-0.135,1.171-0.261,1.75c-0.125,0.568-0.584,0.88-1.13,0.856
		c-0.581-0.025-0.939-0.331-0.984-0.979c-0.06-0.869-0.094-1.747,0.217-2.592c0.265-0.721,0.613-1.005,1.173-0.965
		c0.693,0.049,0.774,0.583,0.879,1.089C21.533,45.173,21.547,45.452,21.582,45.745z"/>
	<path style="fill:#F9BA2A;" d="M27.379,33.7c-0.468,0.04-0.787-0.115-1.131-0.309c-0.538-0.816-0.45-1.753-0.264-2.634
		c0.159-0.757,0.886-0.798,1.512-0.821C28.668,30.99,28.623,32.322,27.379,33.7z"/>
	<path style="fill:#F9BA2A;" d="M24.95,90.294c-0.956,0.793-1.359,0.837-1.998,0.258c-0.942-0.853-1.083-1.783-0.427-2.825
		C24.176,87.443,24.958,88.252,24.95,90.294z"/>
	<path style="fill:#F8B927;" d="M20.359,20.025c-0.94,1.69-1.463,1.968-2.987,1.596c-0.231-0.739-0.16-1.467,0.284-2.129
		c0.35-0.522,0.883-0.86,1.508-0.812C19.906,18.738,20.209,19.313,20.359,20.025z"/>
	<path style="fill:#F9BA28;" d="M35.328,100.867c-0.108-0.539-0.108-1.01-0.023-1.501c0.402-0.692,1.154-0.75,1.83-0.91
		c0.475-0.112,0.964-0.073,1.211,0.472c0.238,0.525,0.068,1.455-0.312,1.765C37.459,101.16,36.129,101.262,35.328,100.867z"/>
	<path style="fill:#F9BA28;" d="M18.216,81.943c0.546-0.118,1.018-0.116,1.483-0.005c1.096,1.675,0.918,2.685-0.586,3.377
		C17.701,84.628,17.378,83.467,18.216,81.943z"/>
	<path style="fill:#F9BA2A;" d="M30.262,94.001c0.836-1.317,1.987-1.726,3.081-1.082c0.422,0.248,0.811,0.558,0.773,1.11
		c-0.039,0.573-0.5,0.777-0.963,0.933C31.984,95.354,30.944,95.003,30.262,94.001z"/>
	<path style="fill:#F8B927;" d="M38.15,74.148c-0.385,0.724-0.792,1.216-1.638,0.971c-0.827-0.239-1.688-1.022-1.741-1.62
		c-0.068-0.769,0.346-1.177,1.119-1.403C36.808,72.513,37.787,72.937,38.15,74.148z"/>
	<path style="fill:#F9BA2A;" d="M14.251,64.904c1.134,0.687,1.527,1.716,1.13,2.843c-0.27,0.768-1.245,0.991-1.805,0.413
		C12.594,67.146,12.895,65.563,14.251,64.904z"/>
	<path style="fill:#F9BA2A;" d="M28.969,81.242c-0.19,0.336-0.52,0.465-0.871,0.574c-1.161-0.296-1.59-1.212-1.909-2.211
		c0.103-0.371,0.249-0.692,0.559-0.947c0.392-0.21,0.83-0.124,1.255-0.1C29.099,79.416,29.166,79.602,28.969,81.242z"/>
	<path style="fill:#F9BA2A;" d="M32.885,33.485c0.047-0.907,0.597-1.223,1.371-1.384c0.609,0.205,1.211,0.501,1.656,1.041
		c0.349,0.423,0.569,0.909,0.224,1.419c-0.325,0.48-0.806,0.567-1.375,0.418C33.88,34.748,33.371,34.112,32.885,33.485z"/>
	<path style="fill:#F9BA2A;" d="M29.142,41.058c0.386-0.393,0.731-0.432,1.028-0.464c0.473-0.051,0.894,0.184,0.985,0.676
		c0.138,0.751,0.125,1.516-0.261,2.211c-0.233,0.42-0.614,0.6-1.104,0.559c-0.532-0.045-0.738-0.394-0.864-0.848
		C28.711,42.419,28.932,41.705,29.142,41.058z"/>
	<path style="fill:#F8B926;" d="M55.938,32.107c0.93,0.66,0.9,1.318,0.142,2.111c-0.414,0.433-0.852,0.842-1.284,1.257
		c-2.31,2.218-2.909,4.914-2.325,7.987c0.718,3.781,3.058,6.384,6.083,8.5c1.307,0.914,2.656,1.77,3.981,2.659
		c2.355,1.58,4.293,3.562,5.745,6.002c0.756,1.269,0.924,2.698,1.029,4.126c0.166,2.266-0.392,4.417-1.135,6.533
		c-0.196,0.559-0.463,1.099-0.541,1.77c0.753,1.028,1.53,2.083,2.299,3.143c1.071,1.476,1.755,3.107,1.992,4.923
		c0.142,1.09,0.047,2.136-0.36,3.166c-0.17,0.43-0.41,0.759-0.776,1.014c-0.754,0.065-1.089-0.314-1.216-1.005
		c-0.123-0.669-0.202-1.337-0.214-2.016c-0.058-3.357-1.617-5.824-4.503-7.481c-2.443-1.403-5.037-1.937-7.826-1.283
		c-0.706,0.165-1.363,0.443-2.001,0.776c-0.425,0.221-0.839,0.466-1.274,0.662c-1.114,0.503-1.57,0.32-2.177-0.851
		c0.089-0.491,0.419-0.821,0.813-1.11c2.485-1.824,5.214-2.642,8.319-2.178c1.149,0.172,2.278,0.36,3.371,0.754
		c0.3,0.108,0.621,0.169,1.078-0.048c0.885-1.211,1.267-2.746,1.567-4.306c0.621-3.224-0.67-5.862-2.701-8.189
		c-0.746-0.855-1.762-1.486-2.723-2.137c-2.378-1.61-4.808-3.15-6.924-5.118c-1.66-1.544-2.933-3.356-3.853-5.413
		c-0.409-0.914-0.625-1.882-0.607-2.898c0.019-1.117-0.028-2.235,0.005-3.351c0.098-3.28,1.594-5.764,4.373-7.488
		C54.797,32.306,55.328,32.017,55.938,32.107z"/>
	<path style="fill:#F8B926;" d="M55.436,93.679c0.519-0.743,1.227-0.961,2.003-1.005c0.918-0.052,1.821-0.186,2.71-0.407
		c1.949-0.485,3.457-1.591,4.568-3.251c0.177-0.265,0.331-0.55,0.533-0.794c0.605-0.729,1.126-0.793,2.123-0.266
		c0.245,0.97,0.033,1.82-0.608,2.646c-1.092,1.409-2.409,2.544-3.899,3.499c-0.658,0.421-1.411,0.584-2.156,0.652
		c-1.273,0.117-2.556,0.155-3.835,0.058C56.051,94.749,55.954,94.656,55.436,93.679z"/>
	<path style="fill:#F9BA28;" d="M63.334,11.644c-0.311,0.624-0.639,1.11-1.333,1.212c-0.538-0.175-0.963-0.561-1.348-0.943
		c-1.624-1.608-3.534-1.8-5.622-1.235c-0.537,0.145-1.069,0.308-1.606,0.454c-0.76,0.207-1.09,0.087-1.402-0.498
		c-0.355-0.666-0.224-1.134,0.419-1.635c0.751-0.585,1.64-0.802,2.545-0.949c2.389-0.389,4.681-0.275,6.71,1.286
		C62.617,10.042,62.894,10.352,63.334,11.644z"/>
	<path style="fill:#F8B926;" d="M52.73,57.01c0.616,0.279,0.858,0.781,1.102,1.283c0.329,0.68,0.678,1.35,1.147,1.947
		c1.094,1.392,2.555,2.091,4.298,2.247c0.612,0.055,1.176,0.214,1.589,0.701c0.553,0.653,0.341,1.367-0.451,1.714
		c-0.841,0.367-1.652,0.04-2.459-0.069c-2.658-0.358-4.425-2.019-5.807-4.16c-0.433-0.67-0.638-1.432-0.583-2.265
		C51.63,57.413,51.596,57.411,52.73,57.01z"/>
</g>
</svg>
