<?xml version="1.0" encoding="iso-8859-1"?>
<!-- Generator: Adobe Illustrator 27.0.0, SVG Export Plug-In . SVG Version: 6.00 Build 0)  -->
<svg version="1.1" id="Layer_1" xmlns="http://www.w3.org/2000/svg" xmlns:xlink="http://www.w3.org/1999/xlink" x="0px" y="0px"
	 viewBox="0 0 1578 341.804" style="enable-background:new 0 0 1578 341.804;" xml:space="preserve">
<g>
	<path style="fill:#295CA9;" d="M0,333.804c7.117-10.441,13.37-21.42,19.997-32.166c32.992-53.499,65.951-107.018,98.877-160.557
		c24.126-39.23,48.178-78.506,72.278-117.752c3.208-5.224,6.507-10.393,9.688-15.465c34.816,0,69.261,0,104.148,0
		c11.9,107.593,23.784,215.045,35.667,322.496c0.339,0.034,0.678,0.068,1.017,0.102c21.709-77.767,43.419-155.533,65.132-233.313
		c26.886,0,53.326,0,80.13,0c-2.145,10.242-4.233,20.214-6.534,31.204c5.193-4.683,9.422-8.659,13.823-12.434
		c14.016-12.024,29.882-20.556,48.165-23.725c18.519-3.21,36.514-1.551,52.889,8.668c9.796,6.114,17.358,14.424,22.641,24.746
		c0.879,1.718,1.41,3.639,2.985,5.403c3.657-4.55,7.208-8.913,11.176-12.924c14.969-15.132,33.225-23.322,54.11-26.357
		c12.749-1.853,25.264-1.157,37.376,3.111c28.361,9.993,45.443,29.809,50.215,59.624c2.292,14.324,0.444,28.561-3.314,42.461
		c-5.282,19.534-10.934,38.967-16.449,58.438c-7.456,26.324-14.932,52.643-22.481,79.25c-30.109,0-60.171,0-90.714,0
		c1.546-5.595,2.985-10.98,4.522-16.337c11.296-39.388,22.625-78.766,33.906-118.158c1.835-6.408,3.192-12.845,1.847-19.627
		c-1.827-9.213-9.223-16.108-18.571-16.759c-13.587-0.947-24.219,4.546-32.463,15.111c-5.535,7.093-8.39,15.399-10.818,23.906
		c-8.832,30.949-17.679,61.893-26.526,92.838c-3.691,12.909-7.397,25.815-11.181,39.019c-30.093,0-60.155,0-90.547,0
		c0.737-5.02,2.466-9.641,3.811-14.349c11.529-40.358,23.093-80.705,34.619-121.063c1.65-5.778,2.54-11.629,1.71-17.689
		c-1.332-9.722-8.922-17.071-18.671-17.774c-13.39-0.966-23.969,4.372-32.164,14.703c-5.573,7.027-8.547,15.289-10.97,23.825
		c-7.382,26.012-14.883,51.991-22.338,77.983c-4.985,17.381-9.971,34.761-14.96,52.141c-0.18,0.628-0.392,1.246-0.691,2.191
		c-62.252,0-124.477,0-186.995,0c-0.395-3.359-0.903-6.775-1.183-10.209c-1.136-13.927-2.161-27.862-3.303-41.788
		c-1.644-20.056-3.351-40.108-5.036-60.161c-1.323-15.743-2.654-31.486-3.985-47.228c-1.317-15.577-2.574-31.159-4.001-46.726
		c-0.364-3.974-0.855-7.937-1.636-12.261c-21.791,39.082-43.582,78.164-65.626,117.699c5.004,1.079,9.6,0.429,14.139,0.549
		c4.496,0.119,8.998,0.026,13.498,0.026c4.666,0,9.332,0,13.999,0c4.5,0,8.999,0,13.499,0c4.648,0,9.296,0,13.893,0
		c0.275,1.618-0.853,1.943-1.571,2.497c-31.758,24.498-63.519,48.991-95.299,73.46c-9.758,7.513-19.591,14.927-29.342,22.449
		c-1.787,1.379-3.575,2.104-5.904,2.099c-31.663-0.069-63.327-0.05-94.991-0.058c-0.497,0-0.993-0.078-1.49-0.12
		C0,334.47,0,334.137,0,333.804z"/>
	<path style="fill:#295CA9;" d="M1421.966,340.973c-14.497-0.672-28.673-2.758-42.352-8.031
		c-29.575-11.401-49.111-32.121-58.469-62.325c-5.104-16.474-5.329-33.362-3.295-50.361c2.175-18.17,7.563-35.35,16.278-51.401
		c19.443-35.814,48.879-59.365,87.898-71.039c15.232-4.557,30.832-6.782,46.663-6.765c19.231,0.021,38.151,2.434,55.786,10.795
		c28.984,13.742,47.209,35.901,52.493,67.991c0.131,0.793-0.049,1.695,1.032,1.967c0,5.333,0,10.667,0,16
		c-28.755-0.071-57.51-0.142-86.25-0.213c-0.872-2.799-0.47-5.154-0.665-7.445c-0.876-10.324-8.071-19.562-17.509-22.085
		c-8.501-2.272-16.818-1.552-24.8,2.195c-9.586,4.5-16.996,11.55-23.109,20.063c-8.58,11.949-13.809,25.32-16.538,39.691
		c-1.969,10.372-2.466,20.861-0.025,31.183c4.097,17.328,17.523,26.826,35.853,22.836c12.858-2.799,21.264-11.066,27.879-21.716
		c2.359-3.797,4.065-7.938,5.634-12.082c28.965,0,57.707,0,86.411,0c0.502,2.411-0.606,4.22-1.277,6.036
		c-15.407,41.74-44.648,69.677-85.796,85.609c-15.028,5.819-30.796,8.048-46.775,9.084
		C1428.01,340.964,1424.988,340.969,1421.966,340.973z"/>
	<path style="fill:#A9B2DA;" d="M921.071,340.949c-0.061,0.282-0.085,0.567-0.071,0.855c-5.667,0-11.333,0-17,0
		c0.02-0.291-0.003-0.579-0.068-0.864C909.645,340.943,915.358,340.946,921.071,340.949z"/>
	<path style="fill:#D3D7ED;" d="M1431.032,340.959c-0.028,0.281-0.038,0.562-0.032,0.845c-3,0-6,0-9,0
		c0.001-0.277-0.011-0.554-0.034-0.83C1424.988,340.969,1428.01,340.964,1431.032,340.959z"/>
	<path style="fill:#295CA9;" d="M921.071,340.949c-5.713-0.003-11.426-0.006-17.139-0.009
		c-25.403-2.654-45.013-14.891-59.371-36.672c-3.815,10.605-7.38,20.519-10.968,30.492c-27.226,0-54.163,0-81.721,0
		C782.909,222.995,813.856,111.551,844.833,0c30.234,0,60.175,0,90.847,0c-10.395,37.64-20.695,74.934-31.153,112.801
		c1.931-0.319,2.844-1.2,3.818-1.914c12.483-9.154,26.004-16.067,41.428-18.58c28.583-4.657,53.889,1.628,74.203,23.228
		c11.227,11.938,17.455,26.543,20.961,42.374c2.13,9.615,3.13,19.434,2.733,29.222c-1.58,39.012-13.98,74.219-38.487,104.798
		c-16.042,20.017-35.949,34.979-60.383,43.376C939.846,338.382,930.592,340.434,921.071,340.949z M960.14,197.749
		c-0.005-4.371-0.23-8.677-1.168-12.937c-4.589-20.849-21.636-31.128-41.685-27.329c-10.69,2.026-18.733,8.329-25.883,15.902
		c-10.369,10.984-17.103,24.092-20.891,38.64c-3.165,12.155-4.9,24.456-1.515,36.929c4.923,18.14,19.757,28.34,38.944,25.555
		c11.326-1.644,20.979-7.259,28.741-15.811C952.377,241.407,959.329,220.749,960.14,197.749z"/>
	<path style="fill:#295CA9;" d="M1270.473,334.728c-27.903,0-55.492,0-83.479,0c0.613-7.566,3.569-14.526,4.221-22.143
		c-2.714,0.412-4.096,2.211-5.746,3.438c-14.172,10.548-29.644,18.373-46.969,22.128c-22.242,4.82-44.006,4.086-64.323-7.403
		c-15.771-8.918-25.601-22.558-29.128-40.314c-3.584-18.044,1.464-34.586,10.331-50.132c8.445-14.806,21.092-25.187,36.25-32.47
		c16.427-7.892,33.901-12.472,51.9-15.109c12.977-1.902,25.934-3.962,38.94-5.635c8.245-1.061,16.457-2.167,24.525-4.212
		c5.026-1.274,9.765-3.124,14.12-6.023c10.531-7.01,10.391-24.263-1.866-29.504c-14.311-6.118-28.179-5.104-41.344,3.334
		c-3.51,2.25-6.709,4.951-9.361,8.203c-2.517,3.086-4.921,6.264-7.512,9.577c-28.154,0-56.417,0-84.917,0
		c-0.031-4.315,1.797-7.88,3.335-11.455c10.203-23.721,27.672-40.307,50.752-51.307c14.835-7.07,30.586-10.796,46.797-13
		c11.583-1.575,23.209-2.172,34.854-1.838c18.375,0.526,36.434,3.048,53.341,10.831c23.484,10.81,38.363,28.448,42.914,54.32
		c2.918,16.586,0.898,32.742-3.571,48.745c-7.584,27.156-15.272,54.283-22.77,81.462
		C1277.4,302.048,1273.795,318.065,1270.473,334.728z M1209.558,227.445c-1.429-1.486-3.123-1.345-5.024-0.952
		c-15.422,3.192-30.917,6.055-46.269,9.551c-8.397,1.912-16.64,4.657-23.555,10.236c-6.957,5.613-9.94,12.943-8.331,21.623
		c1.639,8.842,7.057,15.027,15.736,17.694c7.085,2.177,14.376,2.074,21.635,0.429c12.311-2.789,22.166-9.399,30.172-19.03
		c8.636-10.388,12.637-22.812,15.85-35.593C1210.09,230.143,1210.219,228.773,1209.558,227.445z"/>
</g>
</svg>
