<?xml version="1.0" encoding="iso-8859-1"?>
<!-- Generator: Adobe Illustrator 27.0.0, SVG Export Plug-In . SVG Version: 6.00 Build 0)  -->
<svg version="1.1" id="Layer_1" xmlns="http://www.w3.org/2000/svg" xmlns:xlink="http://www.w3.org/1999/xlink" x="0px" y="0px"
	 viewBox="0 0 1529.833 328" style="enable-background:new 0 0 1529.833 328;" xml:space="preserve">
<g>
	<path style="fill:#13AA4C;" d="M158.902,0c3.175,5.416,5.348,11.299,7.888,17.008c10.593,23.81,21.332,47.559,31.482,71.557
		c2.389,5.649,5.988,8.545,11.449,9.229c10.481,1.314,20.283,4.975,30.256,8.056c10.478,3.236,20.906,6.643,30.55,12.017
		c1.448,0.807,2.909,1.592,4.333,2.439c0.238,0.142,0.318,0.55,0.66,1.186c-22.907-4.073-45.713-7.012-68.707-8.449
		c-0.333,2.448,0.767,4.2,1.378,6.048c2.861,8.647,6.339,17.087,8.678,25.91c-0.85-0.034-1.449-0.275-2.03-1.078
		c-1.662-2.295-2.735-4.893-4.13-7.318c-7.061-12.273-14.278-24.457-21.361-36.719c-6.588-11.406-13.033-22.895-19.621-34.301
		c-7.083-12.261-14.278-24.458-21.389-36.702c-5.367-9.242-10.68-18.517-16.042-27.821c-2.812,0-5.461,0-8.11,0
		c-0.095-0.354-0.19-0.709-0.285-1.063C135.568,0,147.235,0,158.902,0z"/>
	<path style="fill:#0E59A0;" d="M66.894,178.841c9.465,0,18.93,0,28.497,0c1.32,2.607,0.992,5.477,1.4,8.221
		c3.05,20.506,13.048,35.942,32.557,44.38c4.005,1.732,8.305,2.253,12.561,2.94c-0.095,2.533,1.301,4.31,2.905,6.065
		c3.011,3.294,5.979,6.632,8.849,10.049c4.342,5.168,8.536,10.46,12.883,15.624c4.252,5.051,8.449,10.143,12.838,15.087
		c6.006,6.766,11.434,14.042,17.247,20.985c6.037,7.211,12.217,14.304,18.389,21.401c0.877,1.009,0.888,2.084,0.888,3.244
		c-6.368,0.055-12.738,0.061-19.104,0.203c-1.315,0.029-2.961-0.773-3.902,0.961c-0.333,0-0.667,0-1,0
		c-0.224-15.308-4.782-28.964-14.903-40.717c-9.037-10.495-20.221-15.849-34.104-15.47c-0.656,0.018-1.316-0.124-1.974-0.191
		c-0.139-0.802-0.013-1.813-0.458-2.372c-3.278-4.121-6.631-8.185-10.034-12.204c-4.367-5.157-8.855-10.211-13.193-15.392
		c-4.22-5.04-8.253-10.236-12.482-15.268c-4.348-5.173-9.034-10.072-13.212-15.374c-6.422-8.149-13.345-15.869-19.888-23.905
		C69.688,184.69,66.585,182.668,66.894,178.841z"/>
	<path style="fill:#20437D;" d="M801.096,139.338c8.983,0,17.576,0,26.083,0c0.257,0.408,0.554,0.666,0.573,0.944
		c0.95,13.662,8.656,19.458,20.279,21.536c7.275,1.3,14.645,0.841,21.681-1.774c4.147-1.542,7.694-3.893,9.329-8.354
		c2.014-5.496,0.66-10.709-3.946-14.294c-2.502-1.947-5.328-3.326-8.321-4.44c-10.299-3.835-21.121-5.813-31.591-9.031
		c-6.883-2.116-13.425-4.946-19.121-9.409c-13.309-10.431-14.393-31.828-4.216-45.069c7.099-9.236,16.887-13.965,27.918-16.012
		c13.677-2.538,27.182-1.517,40.095,4.186c14.971,6.612,22.169,18.349,22.844,35.124c-4.521,0.042-8.941,0.1-13.361,0.121
		c-4.313,0.021-8.625,0.004-13.136,0.004c-0.446-1.805-0.818-3.39-1.23-4.964c-1.587-6.066-5.155-10.359-11.231-12.302
		c-6.989-2.235-14.098-2.575-21.142-0.502c-4.395,1.294-8.231,3.535-9.841,8.36c-2.337,7.005,0.101,12.697,6.937,15.341
		c5.737,2.219,11.689,3.754,17.674,5.182c8.555,2.041,17.225,3.738,25.422,7.024c6.861,2.75,13.151,6.418,17.667,12.543
		c10.049,13.63,8.1,34.676-4.273,46.633c-6.808,6.579-15.013,10.214-24.185,12.074c-14.31,2.902-28.451,2.776-42.272-2.322
		c-13.572-5.006-23.417-13.771-27.248-28.219C801.462,147.861,800.817,143.92,801.096,139.338z"/>
	<path style="fill:#20437D;" d="M784.768,55.242c0.655,1.622,0.344,3.117,0.341,4.57c-0.041,24.984-0.119,49.969-0.156,74.953
		c-0.007,5.02-0.639,9.931-1.838,14.809c-4.338,17.645-15.854,27.953-33.112,32.158c-13.154,3.205-26.33,3.027-39.467-0.546
		c-17.239-4.689-27.599-15.816-31.47-33.114c-0.835-3.732-1.261-7.536-1.257-11.391c0.032-26.982,0.017-53.964,0.017-81.315
		c9.05,0,18.097,0,27.208,0c0.866,1.519,0.417,3.218,0.419,4.838c0.035,23.986,0.009,47.972,0.041,71.957
		c0.006,4.487,0.006,8.975,1.309,13.363c1.999,6.732,6.257,11.277,12.915,13.4c7.305,2.329,14.767,2.253,22.158,0.528
		c9.031-2.108,13.722-8.29,14.97-17.195c0.552-3.942,0.898-7.92,0.885-11.938c-0.073-23.319-0.036-46.639-0.035-69.959
		c0-1.627,0-3.253,0-5.118C766.956,55.242,775.858,55.242,784.768,55.242z"/>
	<path style="fill:#20437D;" d="M398.909,55.146c9.515,0,18.819,0,28.561,0c15.506,41.686,31.048,83.469,46.721,125.601
		c-9.643,0-18.91,0-28.705,0c-3.021-8.96-6.128-18.173-9.282-27.528c-15.616,0-31.07,0-47.085,0
		c-3.196,8.901-6.481,18.053-9.866,27.48c-9.223,0-18.478,0-28.228,0C367.02,138.757,382.953,96.982,398.909,55.146z
		 M413.629,87.507c-0.318-0.096-0.635-0.192-0.953-0.287c-5.36,14.78-10.719,29.56-16.21,44.702c11.202,0,21.615,0,32.367,0
		C423.697,116.919,418.663,102.213,413.629,87.507z"/>
	<path style="fill:#1E8946;" d="M1200.627,180.828c-4.368,0-8.501,0-13.175,0c-11.453-41.69-22.946-83.522-34.517-125.642
		c4.535,0,8.659,0,13.179,0c9.323,36.226,18.65,72.47,28.269,109.848c10.439-37.269,20.555-73.381,30.745-109.759
		c4.917,0,9.854,0,15.196,0c10.06,36.056,20.16,72.258,30.261,108.459c0.308,0.001,0.615,0.001,0.923,0.002
		c9.505-36.103,19.01-72.207,28.548-108.438c3.849-0.595,7.631-0.186,12.215-0.354c-11.701,42.142-23.257,83.765-34.889,125.662
		c-4.163,0.766-8.394,0.418-12.856,0.202c-10.528-37.299-21.014-74.445-31.499-111.591c-0.26,0.041-0.519,0.083-0.779,0.124
		C1221.718,106.467,1211.187,143.595,1200.627,180.828z"/>
	<path style="fill:#20437D;" d="M663.592,55.222c0,7.803,0,15.085,0,22.765c-12.428,0-24.679,0-37.446,0
		c0,34.432,0,68.469,0,102.759c-9.447,0-18.379,0-27.868,0c0-33.974,0-68.018,0-102.577c-12.774,0-25.008,0-37.439,0
		c0-7.921,0-15.322,0-22.948C595.122,55.222,629.198,55.222,663.592,55.222z"/>
	<path style="fill:#20437D;" d="M574.55,180.823c-29.88,0-59.323,0-89.019,0c0-41.9,0-83.621,0-125.585c9.077,0,17.993,0,27.316,0
		c0,33.938,0,67.835,0,102.394c5.424,0.412,10.521,0.143,15.596,0.192c5.163,0.05,10.327,0.011,15.49,0.011
		c4.997,0,9.994,0,14.991,0c5.127,0,10.254,0,15.626,0C574.55,165.646,574.55,173.053,574.55,180.823z"/>
	<path style="fill:#1E8946;" d="M1442.375,125.01c0,18.891,0,37.16,0,55.645c-4.08,0-7.829,0-11.855,0c0-41.873,0-83.57,0-125.406
		c0.831-0.102,1.467-0.249,2.103-0.247c19.481,0.033,38.962-0.001,58.442,0.169c6.884,0.06,13.51,1.673,19.604,5.003
		c7.695,4.204,12.83,10.482,14.673,19.142c2.271,10.669,1.551,20.837-5.594,29.779c-3.076,3.85-6.918,6.689-11.362,8.727
		c-1.312,0.601-2.799,0.841-3.829,1.986c0.458,1.554,1.887,1.175,2.863,1.51c7.486,2.576,12.173,7.709,14.529,15.224
		c1.82,5.803,1.893,11.787,2.289,17.746c0.363,5.469,0.635,10.939,1.574,16.358c0.595,3.432,2.033,6.582,3.249,10.014
		c-4.25,0.353-8.209,0.287-12.361,0.067c-2.73-6.069-3.603-12.422-3.629-18.917c-0.026-6.517-0.733-12.952-2.141-19.3
		c-2.638-11.885-9.708-17.491-21.937-17.498c-13.821-0.009-27.641-0.002-41.462-0.002
		C1446.058,125.01,1444.586,125.01,1442.375,125.01z M1442.438,114.827c16.058,0,31.396,0.736,46.632-0.197
		c16.942-1.037,26.961-12.131,24.854-28.798c-0.927-7.332-4.294-13.167-10.949-16.864c-4.934-2.741-10.294-3.729-15.813-3.769
		c-13.654-0.101-27.309-0.044-40.964-0.014c-1.276,0.003-2.681-0.42-3.761,0.66C1442.438,81.989,1442.438,98.094,1442.438,114.827z"
		/>
	<path style="fill:#1E8946;" d="M1146.947,119.197c-0.316,14.054-3.596,28.64-12.974,41.292
		c-9.037,12.194-21.097,19.436-36.218,21.6c-10.561,1.512-20.968,1.055-30.994-2.581c-14.247-5.167-24.895-14.64-31.142-28.514
		c-10.195-22.644-10.283-45.47,0.487-67.908c8.11-16.895,21.945-26.586,40.354-29.998c11.094-2.056,22.122-1.245,32.466,2.536
		c13.541,4.95,23.801,14.229,30.259,27.466C1144.55,94.083,1146.879,105.663,1146.947,119.197z M1040.349,117.411
		c0.038,6.856,0.721,13.627,2.565,20.245c6.239,22.39,22.884,37.063,47.649,35.301c16.672-1.187,29.592-8.738,37.105-23.934
		c9.892-20.01,9.715-40.555,0.806-60.74c-5.985-13.558-16.611-22.211-31.538-24.935c-4.455-0.813-8.959-0.784-13.449-0.513
		c-11.646,0.702-21.555,5.114-29.326,13.983C1043.965,88.45,1040.405,102.337,1040.349,117.411z"/>
	<path style="fill:#0EA64B;" d="M124.187,1.063c2.649,0,5.299,0,8.11,0c5.362,9.304,10.674,18.578,16.042,27.821
		c7.111,12.245,14.306,24.441,21.389,36.702c6.588,11.406,13.033,22.895,19.621,34.301c7.083,12.261,14.299,24.445,21.361,36.719
		c1.395,2.425,2.468,5.023,4.13,7.318c0.581,0.803,1.18,1.044,2.03,1.078c3.095,6.611,4.977,13.638,7.531,20.87
		c-10.71,0-20.962,0-31.104,0c-1.059-0.643-1.194-1.633-1.509-2.586c-4.893-14.81-9.82-29.609-14.746-44.407
		c-1.538-4.621-1.903-4.923-6.671-5.006c-3.822-0.066-7.646-0.027-11.47-0.034c-1.29-4.307-4.289-7.699-6.234-11.648
		c-1.483-3.012-4.383-5.484-3.766-9.349c6.205-1.348,12.573-0.176,19.368-1.048c-8.942-22.4-17.747-44.456-26.855-67.273
		c-0.739,2.169-1.125,3.433-1.596,4.665c-3.253,8.521-5.463,17.407-9.044,25.814c-1.827,0.08-2.395-1.225-3.157-2.577
		c-3.834-6.808-7.841-13.518-11.646-20.342c-0.844-1.514-1.896-2.148-3.487-2.211c3.216-8.964,6.416-17.935,9.673-26.884
		C122.482,2.093,122.995,1.155,124.187,1.063z"/>
	<path style="fill:#138844;" d="M1326.024,180.851c0-41.945,0-83.573,0-125.527c28.776,0,57.506,0,86.541,0c0,2.978,0,6.055,0,9.616
		c-24.64,0-49.365,0-74.668,0c-0.393,15.499-0.098,30.532-0.197,45.971c23.442,0,46.53,0,69.884,0c0,3.472,0,6.548,0,10.109
		c-23.089,0-46.152,0-69.544,0c0,16.726,0,32.981,0,49.753c24.824,0,49.886,0,75.062,0c0.744,3.581,0.365,6.671,0.406,10.078
		C1384.281,180.851,1355.378,180.851,1326.024,180.851z"/>
	<path style="fill:#138844;" d="M935.841,127.004c0,18.19,0,35.804,0,53.708c-4.166,0-8.079,0-12.122,0c0-41.754,0-83.489,0-124.934
		c1.658-1.191,3.031-0.756,4.306-0.758c16.833-0.035,33.666-0.036,50.499-0.015c5.163,0.006,10.252,0.301,15.257,1.971
		c12.749,4.253,20.272,12.946,22.464,26.107c1.9,11.403,0.687,22.298-6.932,31.625c-7.315,8.954-17.428,11.938-28.415,12.194
		c-13.159,0.307-26.331,0.092-39.498,0.102C939.755,127.005,938.109,127.004,935.841,127.004z M936.091,116.839
		c14.704,0,28.856,0.217,42.995-0.113c5.257-0.122,10.539-1.218,15.193-4.22c9.276-5.983,12.498-16.263,10.006-28.653
		c-1.639-8.147-6.756-13.614-14.432-16.502c-3.881-1.46-8.032-2.164-12.216-2.178c-12.826-0.042-25.652-0.024-38.479,0.003
		c-0.953,0.002-2.003-0.345-3.066,0.622C936.091,82.53,936.091,99.438,936.091,116.839z"/>
	<path style="fill:#20437D;" d="M109.743,180.107c-0.404-19.57,16.109-34.621,33.87-33.955
		c14.579,0.547,27.003,10.429,30.851,25.291c4.909,18.961-7.184,37.516-23.829,41.765c-17.135,4.374-35.196-5.957-39.689-23.015
		C110.049,186.788,109.652,183.345,109.743,180.107z"/>
	<path style="fill:#145EA5;" d="M66.894,178.841c-0.308,3.827,2.794,5.849,4.761,8.265c6.542,8.036,13.466,15.756,19.888,23.905
		c4.178,5.302,8.864,10.202,13.212,15.374c4.229,5.032,8.262,10.228,12.482,15.268c4.338,5.181,8.826,10.235,13.193,15.392
		c3.403,4.019,6.756,8.082,10.034,12.204c0.444,0.559,0.319,1.57,0.458,2.372c-11.784,1.448-21.867,6.324-30.039,14.99
		c-1.7,1.802-3.257,3.739-4.881,5.613c-0.885-1.648-2.784-2.144-3.912-3.645c-5.63-7.494-11.765-14.578-18.04-21.54
		c3.771-5.522,9.058-9.611,13.863-14.413c-23.167-19.083-33.968-43.872-35.073-72.951C64.34,178.025,65.603,178.299,66.894,178.841z
		"/>
	<path style="fill:#10A04B;" d="M148.902,92.841c-0.617,3.864,2.282,6.337,3.766,9.349c1.945,3.949,4.944,7.34,6.234,11.648
		c-15.079,0.912-30.047,2.732-44.911,5.425c-0.028-1.014-0.376-1.894-0.889-2.784c-5.223-9.074-10.275-18.25-15.695-27.204
		c-1.239-2.047-1.997-5.134-5.343-5.273c6.323-17.025,12.966-33.931,18.875-51.11c0.365-1.06,1.024-2.019,1.546-3.025
		c1.591,0.063,2.643,0.697,3.487,2.211c3.805,6.824,7.812,13.534,11.646,20.342c0.762,1.352,1.33,2.657,3.157,2.577
		c-4.47,13.857-8.941,27.713-13.643,42.289C128.304,95.205,138.446,92.796,148.902,92.841z"/>
	<path style="fill:#095498;" d="M215.908,326.836c-0.001-1.16-0.011-2.235-0.888-3.244c-6.172-7.097-12.351-14.19-18.389-21.401
		c-5.812-6.943-11.24-14.219-17.247-20.985c-4.389-4.944-8.586-10.036-12.838-15.087c-4.347-5.164-8.541-10.456-12.883-15.624
		c-2.87-3.417-5.839-6.755-8.849-10.049c-1.604-1.755-3.001-3.532-2.905-6.065c8.425,0.073,16.414-1.745,23.952-5.519
		c0.034,1.745,0.809,3.262,1.931,4.442c3.863,4.059,7.173,8.571,10.783,12.834c6.164,7.278,12.492,14.419,18.622,21.725
		c5.906,7.039,11.638,14.223,17.478,21.318c0.767,0.932,1.647,1.08,2.258-0.255c3.978,7.214,5.656,15.136,6.893,23.146
		c0.73,4.724,1.571,9.491,0.856,14.733C221.774,327.166,218.842,327.028,215.908,326.836z"/>
	<path style="fill:#119849;" d="M92.064,84.002c3.346,0.139,4.104,3.226,5.343,5.273c5.42,8.954,10.472,18.13,15.695,27.204
		c0.512,0.89,0.86,1.77,0.889,2.784c-0.488,0.923-1.394,0.694-2.179,0.783c-2.785,0.315-4.246,1.74-5.088,4.565
		c-3.499,11.744-7.243,23.416-10.968,35.093c-0.645,2.022-0.921,4.239-2.799,6.275c-9.586,0.442-19.486,0.062-30.163-0.107
		c3.504-10.159,6.816-19.761,10.189-29.539c-2.932-1.004-4.657,1.822-7.074,1.692c-1.95-5.472-5.296-10.185-8.22-15.127
		c6.405-4.743,13.655-7.899,20.979-10.823c2.902-1.158,4.451-2.864,5.422-5.779C86.584,98.809,89.385,91.426,92.064,84.002z"/>
	<path style="fill:#164C8B;" d="M216.933,288.927c-0.611,1.335-1.491,1.187-2.258,0.255c-5.84-7.095-11.572-14.279-17.478-21.318
		c-6.13-7.306-12.458-14.447-18.622-21.725c-3.61-4.263-6.92-8.775-10.783-12.834c-1.122-1.179-1.897-2.697-1.931-4.442
		c13.442-8.78,21.111-21.452,24.612-36.84c0.765-3.361,0.998-6.853,1.33-10.299c0.192-1.992,0.952-3.108,3.086-2.905
		c0.573,3.261,3.086,5.271,5.001,7.642c4.419,5.47,8.79,10.989,13.456,16.244c1.965,2.214,3.452,5.452,7.256,5.287
		c-3.219,10.336-7.942,19.781-14.85,28.284c-3.134,3.858-6.235,7.701-9.769,11.173c-1.951,1.916-4.78,2.896-6.643,6.351
		c4.15,3.861,8.712,7.506,12.541,11.803C208.078,272.559,213.781,279.952,216.933,288.927z"/>
	<path style="fill:#1A6DB5;" d="M84.049,267.039c6.274,6.962,12.409,14.047,18.04,21.54c1.128,1.501,3.026,1.997,3.912,3.645
		c-1.514,3.117-2.85,6.337-4.588,9.324c-2.002,3.439-3.039,7.052-3.696,10.964c-0.768,4.574-1.801,9.098-1.933,13.716
		c-3.599,0.953-25.755,1.171-32.844,0.272C63.488,304.358,69.431,284.204,84.049,267.039z"/>
	<path style="fill:#8B939B;" d="M670.61,285.535c4.285-15.793,8.29-30.557,12.313-45.385c2.993-0.345,5.597-0.359,8.468,0.002
		c3.979,14.848,7.943,29.637,12.173,45.419c3.875-15.749,7.528-30.592,11.178-45.428c2.605-0.318,4.702-0.346,7.577,0.08
		c-4.895,18.632-9.698,36.916-14.504,55.209c-2.532,0.748-4.833,0.289-7.817,0.429c-4.21-14.95-8.422-29.906-12.634-44.861
		c-0.34-0.005-0.681-0.01-1.021-0.016c-4.158,14.841-8.317,29.681-12.468,44.497c-2.612,0.627-4.902,0.318-7.711,0.285
		c-4.75-18.359-9.492-36.689-14.281-55.201c2.531-1.141,4.964-0.498,7.859-0.611C663.278,254.785,666.79,269.512,670.61,285.535z"/>
	<path style="fill:#8B939B;" d="M829.059,239.91c4.32,0,8.284,0.046,12.246-0.015c2.968-0.046,5.924-0.27,8.888-0.532
		c4.739-0.419,9.768,0.016,13.904,2.583c7.925,4.919,8.394,15.55,2.104,21.296c-0.85,0.777-1.793,1.452-2.78,2.245
		c0.616,1.161,2.029,1.22,3.034,1.883c4.804,3.171,7.55,9.252,6.239,14.694c-1.53,6.348-5.044,11.164-11.716,12.855
		c-3.374,0.855-6.85,1.022-10.356,0.965c-7.105-0.117-14.214-0.035-21.563-0.035C829.059,277.103,829.059,258.867,829.059,239.91z
		 M836.07,289.063c6.56,0,12.67,0.033,18.779-0.01c5.756-0.04,9.771-3.533,10.093-8.682c0.348-5.566-2.738-9.749-8.534-10.165
		c-6.701-0.481-13.463-0.112-20.339-0.112C836.07,276.538,836.07,282.459,836.07,289.063z M836.155,246.035
		c0,6.268,0,11.848,0,17.757c6.981,0.257,13.723,0.453,20.387-0.885c2.483-0.499,4.461-1.865,5.459-4.512
		c2.395-6.35-0.71-11.756-7.72-12.27C848.372,245.69,842.404,246.035,836.155,246.035z"/>
	<path style="fill:#8B939B;" d="M1205.898,283.502c0-14.361,0-28.722,0-43.333c2.345,0,4.288,0,6.265,0
		c0.956,3.331,1.323,45.814,0.444,55.052c-1.105,1.067-2.505,0.518-3.78,0.611c-1.149,0.083-2.309,0.018-3.946,0.018
		c-9.412-14.474-18.861-29.005-28.31-43.536c-0.23,0.074-0.46,0.148-0.69,0.222c0,14.219,0,28.438,0,42.791
		c-2.548,0.805-4.762,0.679-6.926,0.141c-1.135-3.629-1.536-44.54-0.59-54.865c1.058-1.143,2.472-0.593,3.74-0.674
		c1.32-0.085,2.65-0.019,4.455-0.019c9.485,14.517,19.048,29.154,28.611,43.791C1205.412,283.635,1205.655,283.569,1205.898,283.502
		z"/>
	<path style="fill:#8B939B;" d="M1448.742,256.786c-2.204,0-4.012,0-6.05,0c-1.295-0.866-1.453-2.659-2.269-4.053
		c-2.894-4.946-6.985-7.977-12.898-7.848c-2.786,0.061-5.568-0.227-8.351,0.861c-4.773,1.865-8.151,4.949-10.148,9.652
		c-3.192,7.516-3.385,15.297-0.901,22.856c4.563,13.887,20.708,14.547,28.752,8.795c4.523-3.234,6.457-7.959,5.807-14.796
		c-5.357,0-10.777,0-16.181,0c-1.037-2.127-0.631-3.901-0.531-6.002c7.841,0,15.57,0,23.623,0c0,9.352,0,18.755,0,28.211
		c-1.046,1.212-2.455,0.324-3.624,0.643c-1.789-1.487-1.848-3.544-2.356-5.808c-3.184,2.115-5.817,4.706-9.356,6.13
		c-12.073,4.856-28.85-1.156-33.868-16.189c-3.478-10.42-2.312-20.993,4.106-30.438c5.971-8.787,14.712-11.291,24.727-10.445
		c2.597,0.219,5.217,0.947,7.678,1.849C1443.952,242.787,1448.773,249.505,1448.742,256.786z"/>
	<path style="fill:#8B939B;" d="M1357.691,268.361c5.608,2.778,7.477,7.247,7.171,12.84c-0.258,4.708,1.204,9.064,2.989,13.576
		c-2.942,0.488-5.549,0.384-8.224,0.13c-1.276-2.324-1.738-4.704-1.582-7.228c0.208-3.356-0.333-6.658-1.274-9.824
		c-1.179-3.969-3.943-6.307-7.986-6.085c-5.782,0.318-11.595,0.081-17.893,0.081c0,7.768,0,15.175,0,22.681
		c-2.694,0.918-4.973,0.486-7.206,0.424c-0.915-3.747-1.23-44.955-0.433-54.438c0.375-0.17,0.805-0.532,1.236-0.534
		c9.328-0.038,18.66-0.171,27.985,0.002c6.904,0.128,13.398,5.51,13.66,13.648C1366.354,260.481,1363.776,265.115,1357.691,268.361z
		 M1330.937,265.024c6.649,0,12.76,0.032,18.871-0.034c0.952-0.01,1.916-0.417,2.846-0.727c4.72-1.57,6.862-5.151,6.256-10.401
		c-0.504-4.367-4.198-7.792-8.777-7.88c-4.971-0.096-9.947-0.028-14.919,0.055c-1.431,0.024-2.999-0.507-4.278,0.676
		C1330.937,252.648,1330.937,258.574,1330.937,265.024z"/>
	<path style="fill:#8B939B;" d="M503.212,240.07c2.747,0,5.209,0,7.859,0c9.436,14.463,18.909,28.982,28.943,44.36
		c0-15.312,0-29.591,0-44.072c2.31-0.709,4.37-0.468,6.709-0.259c0,18.485,0,36.733,0,55.184c-2.275,1.091-4.747,0.347-7.517,0.609
		c-9.464-14.531-18.924-29.056-28.384-43.582c-0.261,0.052-0.523,0.104-0.784,0.157c0,14.277,0,28.554,0,42.949
		c-2.414,0.644-4.371,0.412-6.3,0.342C502.65,292.188,502.247,251.648,503.212,240.07z"/>
	<path style="fill:#8B939B;" d="M351.292,239.971c10.143,0,19.964-0.252,29.765,0.085c7.011,0.241,12.864,5.932,13.092,13.631
		c0.203,6.865-2.413,11.469-8.449,14.684c5.259,2.53,7.349,6.622,7.176,11.865c-0.161,4.907,0.772,9.54,3.054,14.291
		c-2.744,0.962-5.267,0.554-7.498,0.384c-1.893-1.411-1.512-3.182-1.618-4.805c-0.268-4.123-0.555-8.251-1.799-12.22
		c-1.518-4.842-2.951-5.964-7.817-6.021c-5.952-0.07-11.906-0.017-18.328-0.017c0,7.882,0,15.3,0,22.884
		c-2.713,0.562-4.979,0.386-7.579,0.16C351.292,276.726,351.292,258.657,351.292,239.971z M359.189,245.985
		c0,6.765,0,12.837,0,19.057c6.325,0,12.302-0.026,18.279,0.019c1.391,0.011,2.607-0.51,3.839-0.961
		c4.209-1.54,6.289-5.468,5.627-10.457c-0.515-3.877-4.071-7.489-8.06-7.607C372.408,245.845,365.934,245.985,359.189,245.985z"/>
	<path style="fill:#8B939B;" d="M1250.334,240.132c12.884,0,25.48,0,38.32,0c0.378,1.951,0.327,3.691,0.006,5.948
		c-10.227,0-20.292,0-30.582,0c0,6.099,0,11.691,0,17.808c9.448,0,18.85,0,28.47,0c0.397,2.425,0.376,4.354,0.034,6.844
		c-9.404,0-18.799,0-28.503,0c-0.414,6.606-0.279,12.673-0.091,19.229c10.333,0,20.406,0,30.718,0
		c0.258,2.404,0.334,4.331-0.06,6.58c-12.646,0-25.242,0-37.887,0C1249.735,293.278,1249.338,250.347,1250.334,240.132z"/>
	<path style="fill:#8B939B;" d="M1013.925,246.267c-9.818,0-19.766,0-29.933,0c-0.425,5.938-0.273,11.529-0.094,17.664
		c9.576,0,18.979,0,28.631,0c0.274,2.449,0.426,4.343-0.37,6.76c-9.312,0-18.554,0-28.094,0c0,6.616,0,12.675,0,19.243
		c10.135,0,20.213,0,30.544,0c0.299,2.411,0.341,4.336-0.016,6.596c-12.779,0-25.494,0-38.458,0c0-18.755,0-37.347,0-56.28
		c12.748,0,25.456,0,38.145,0C1014.935,243.313,1014.985,243.316,1013.925,246.267z"/>
	<path style="fill:#8B939B;" d="M622.773,289.819c0.242,2.73,0.421,4.662-0.126,6.703c-12.738,0-25.287,0-37.744,0
		c-1.039-3.834-1.351-48.039-0.408-56.613c6.167,0,12.426,0,18.685,0c6.32,0,12.639,0,18.94,0c1.467,1.957,0.46,3.867,0.806,6.07
		c-10.441,0-20.373,0-30.971,0c-0.234,6.013-0.057,11.721-0.115,17.909c9.739,0,19.141,0,28.769,0
		c0.424,2.377,0.371,4.313,0.074,6.766c-9.383,0-18.783,0-28.508,0c0,6.558,0,12.626,0,19.164
		C602.187,289.819,612.259,289.819,622.773,289.819z"/>
	<path style="fill:#8B939B;" d="M468.233,240.238c0.946,1.899,0.373,3.628,0.369,5.775c-10.275,0-20.196,0-30.435,0
		c0,6.114,0,11.815,0,17.905c9.413,0,18.674,0,27.903,0c1.121,2.245,0.504,4.146,0.646,6.656c-4.998,0.517-9.611,0.208-14.195,0.263
		c-4.649,0.056-9.299,0.012-14.313,0.012c0,6.29,0,12.361,0,18.918c9.902,0,19.972,0,30.11,0c0.902,2.489,0.66,4.538,0.323,6.84
		c-12.798,0-25.391,0-37.994,0c-1.067-3.423-1.466-46.357-0.48-56.369C442.833,240.238,455.535,240.238,468.233,240.238z"/>
	<path style="fill:#8B939B;" d="M1102.952,263.991c9.9,0,19.172,0,28.674,0c0.541,2.23,0.41,4.164,0.136,6.671
		c-9.388,0-18.778,0-28.464,0c0,6.624,0,12.692,0,19.209c10.32,0,20.571,0,30.937,0c0.7,2.318,0.721,4.204,0.125,6.059
		c-3.528,1.151-27.525,1.523-37.79,0.629c-0.941-3.497-1.213-49.248-0.298-56.369c12.552,0,25.145,0,37.87,0
		c1.078,1.607,0.545,3.397,0.392,5.783c-10.267,0-20.49,0-31.15,0C1102.632,252.12,1103.17,257.707,1102.952,263.991z"/>
	<path style="fill:#8B939B;" d="M767.648,240.209c1.218-0.164,1.703-0.281,2.19-0.286c1.997-0.021,3.993-0.009,6.627-0.009
		c7.17,18.267,14.385,36.651,21.668,55.206c-2.61,1.284-4.942,0.457-7.365,0.766c-3.33-5.16-4.165-11.431-7.318-16.781
		c-7.671,0-15.293,0-23.125,0c-2.975,5.143-4.257,11.036-6.902,16.533c-2.292,0-4.569,0-7.667,0
		C753.13,276.968,760.37,258.635,767.648,240.209z M762.71,271.687c6.412,0,12.236,0,18.57,0c-3.025-8.438-5.87-16.376-9.104-25.398
		C768.833,255.258,765.873,263.199,762.71,271.687z"/>
	<path style="fill:#1C9149;" d="M57.688,122.897c2.924,4.942,6.27,9.655,8.22,15.127c-8.588,4.656-17.541,8.593-25.958,13.605
		c-12.893,7.678-25.126,16.234-36.504,26.021c-0.947,0.815-1.688,2.013-3.111,2.198c-0.847-1.158,0.119-1.912,0.609-2.676
		c14.266-22.236,33.045-39.841,55.342-53.821C56.69,123.098,57.218,123.044,57.688,122.897z"/>
	<path style="fill:#8B939B;" d="M1522.109,240.08c2.756,0,5.051,0,7.723,0c-0.669,2.834-2.376,4.838-3.719,6.957
		c-4.698,7.415-9.436,14.81-14.387,22.057c-1.513,2.214-2.046,4.383-2.007,6.958c0.095,6.291,0.031,12.583,0.031,18.691
		c-2.565,1.694-4.865,0.966-7.431,0.998c-0.69-3.553-0.676-7.076-0.27-10.436c1.1-9.106-1.702-16.731-7.135-23.951
		c-4.963-6.595-9.185-13.746-14.045-21.126c3.065,0,5.598,0,8.7,0c5.137,8.075,10.518,16.532,16.4,25.778
		c2.954-4.828,5.48-9.012,8.064-13.161C1516.66,248.627,1519.343,244.447,1522.109,240.08z"/>
	<path style="fill:#8B939B;" d="M944.458,288.908c0.384,2.692,0.385,4.614,0.065,6.778c-12.473,0-24.706,0-37.205,0
		c0-18.444,0-36.696,0-55.216c2.259-1.015,4.661-0.473,7.514-0.41c0,16.304,0,32.374,0,48.848
		C924.87,288.908,934.454,288.908,944.458,288.908z"/>
	<path style="fill:#20437D;" d="M220.601,207.992c-3.804,0.164-5.291-3.074-7.256-5.287c-4.666-5.255-9.037-10.774-13.456-16.244
		c-1.916-2.371-4.428-4.381-5.001-7.642c9.255-0.928,18.528-0.357,27.794-0.296c0.608,0.004,1.214,0.426,2.109,0.761
		C225.386,189.154,223.703,198.668,220.601,207.992z"/>
</g>
</svg>
