<?xml version="1.0" encoding="iso-8859-1"?>
<!-- Generator: Adobe Illustrator 27.0.0, SVG Export Plug-In . SVG Version: 6.00 Build 0)  -->
<svg version="1.1" id="Layer_1" xmlns="http://www.w3.org/2000/svg" xmlns:xlink="http://www.w3.org/1999/xlink" x="0px" y="0px"
	 viewBox="0 0 1607 212" style="enable-background:new 0 0 1607 212;" xml:space="preserve">
<g>
	<path style="fill:#353436;" d="M0,158c1.588-0.352,1.571-1.88,2.031-2.958c18.738-43.917,37.432-87.853,56.148-131.779
		c1.745-4.095,3.597-8.146,5.439-12.309c7.29,0,14.402,0,21.758,0c20.556,49.797,41.085,99.528,61.758,149.607
		c-10.551,0-20.512,0-30.907,0c-4.098-10.175-8.223-20.421-12.355-30.68c-20.111,0-39.894,0-60.118,0
		c-4.412,10.074-8.848,20.204-13.429,30.665C20.219,160.698,10.11,160.849,0,161C0,160,0,159,0,158z M94.658,105.989
		c-6.805-17.275-13.428-34.088-20.47-51.962c-7.226,17.873-14.03,34.702-21.007,51.962
		C67.249,105.989,80.648,105.989,94.658,105.989z"/>
	<path style="fill:#353336;" d="M1002,212c0-47.442,0-94.884,0-142.665c5.174,0,10.235,0,15.589,0
		c0.868,3.589-0.109,7.427,0.504,11.153c1.035,0.357,1.452-0.521,1.962-1.045c18.288-18.771,49.842-16.372,65.271,6.681
		c11.736,17.535,11.352,43.014-1.195,59.961c-14.875,20.091-43.949,22.841-62.442,5.946c-1.06-0.969-1.794-2.39-3.689-2.926
		c0,21.085,0,41.99,0,62.896C1012.667,212,1007.333,212,1002,212z M1077.28,116.252c0-9.575-2.039-16.4-6.715-23.028
		c-10-14.175-30.516-16.014-43.322-4.274c-13.01,11.927-13.767,36.608-2.617,49.583c11.36,13.219,32.404,13.85,43.995,0.855
		C1074.627,132.653,1077.559,124.754,1077.28,116.252z"/>
	<path style="fill:#353436;" d="M606,0c0,26.139,0,52.279,0,78.733c1.775-0.623,2.577-2.105,3.706-3.128
		c13.258-12.009,33.966-11.624,46.017,0.792c4.262,4.391,6.133,9.843,7.096,15.612c0.709,4.244,1.018,8.598,1.046,12.905
		c0.112,17.486,0.051,34.973,0.034,52.459c-0.001,0.96,0.279,1.999-0.657,3.103c-4.724,0-9.649,0-14.649,0
		c-1.094-1.289-0.57-2.851-0.573-4.272c-0.041-17.486-0.054-34.973-0.005-52.459c0.011-3.877-0.698-7.572-1.899-11.236
		c-2.409-7.351-7.218-10.896-15.34-11.165c-13.688-0.454-20.967,5.02-23.768,19.485c-0.983,5.077-1.141,10.23-1.117,15.402
		c0.063,13.323,0.03,26.646,0.007,39.969c-0.002,1.305,0.282,2.653-0.453,4.22c-4.923,0-9.977,0-15.446,0
		c0-53.584,0-107.002,0-160.42C595.333,0,600.667,0,606,0z"/>
	<path style="fill:#5D595A;" d="M1606.137,127.785c0.317-0.045,0.605,0.027,0.863,0.215c0,4,0,8,0,12
		c-0.33,0.007-0.66,0.014-0.989,0.021C1606.053,135.942,1606.095,131.863,1606.137,127.785z"/>
	<path style="fill:#343234;" d="M313.304,163.519c-6.703,0-12.993,0-19.796,0C264.106,129.961,234.5,96.17,204.277,61.675
		c0,33.356,0,65.831,0,98.192c-3.807,1.032-21.412,1.27-28.859,0.457c0-49.851,0-99.739,0-149.93c6.432,0,12.86,0,19.692,0
		c29.361,33.503,58.953,67.271,89.341,101.945c0-33.423,0-65.625,0-97.708c3.802-1.035,22.199-1.275,28.854-0.453
		C313.304,63.74,313.304,113.334,313.304,163.519z"/>
	<path style="fill:#E44232;" d="M381.294,145.362c11.472,0,21.778,0,32.085,0c10.292,0,20.584,0,31.115,0
		c0.703,5.39,0.249,10.292,0.358,15.49c-32.745,0-65.135,0-97.884,0c3.593-5.255,7.989-9.546,11.97-14.162
		c17.274-20.036,34.674-39.963,51.946-59.999c4.348-5.044,8.057-10.594,11.565-16.252c4.433-7.149,6.744-14.943,5.183-23.317
		c-2.11-11.314-9.227-18.729-19.96-22.196c-12.147-3.923-23.41-1.982-32.57,7.479c-5.032,5.198-7.057,11.906-8.063,18.935
		c-0.094,0.657-0.087,1.329-0.165,1.989c-0.016,0.131-0.208,0.241-0.533,0.592c-5.043,0-10.305,0-15.86,0
		c-0.654-3.197,0.299-6.266,0.988-9.199c4.791-20.399,17.482-32.904,38.223-36.257c27.803-4.495,48.862,13.622,53.729,32.661
		c3.08,12.049,1.232,23.407-4.519,34.228c-4.398,8.276-10.255,15.551-16.353,22.595c-12.196,14.086-24.56,28.028-36.84,42.042
		C384.414,141.465,383.212,143.02,381.294,145.362z"/>
	<path style="fill:#353436;" d="M950.267,80.676c0-4.027,0-7.635,0-11.123c0.52-0.24,0.805-0.485,1.09-0.486
		c4.652-0.024,9.305-0.017,14.303-0.017c0,30.422,0,60.779,0,91.675c-2.584,0-5.2,0.054-7.813-0.016
		c-2.451-0.065-4.942,0.335-7.689-0.365c0-3.748,0-7.349,0-11.46c-2.802,2.428-5.039,4.611-7.516,6.474
		c-17.518,13.174-45.308,9.719-59.269-10.807c-11.179-16.435-11.478-43.792,0.602-60.17c14.974-20.302,44.224-23.481,62.759-6.397
		C947.684,78.861,948.305,80.163,950.267,80.676z M890.766,115.829c-0.267,5.254,1.214,11.336,4.258,17.002
		c5.384,10.02,13.599,15.756,25.177,15.97c11.231,0.207,20.128-4.42,25.779-14.115c7.323-12.563,7.571-25.687,0.718-38.494
		c-8.566-16.009-28.651-19.056-41.791-10.181C894.915,92.759,890.503,102.629,890.766,115.829z"/>
	<path style="fill:#353336;" d="M1205.939,118.261c-24.231,0-47.667,0-71.041,0c-1.555,11.33,6.454,24.683,17.714,28.576
		c14.043,4.856,26.951,2.319,38.941-16.874c4.465,1.939,8.628,4.486,13.122,7.276c-8.83,15.137-20.944,24.698-38.84,25.784
		c-9.181,0.557-17.944-0.725-25.898-5.531c-13.131-7.934-20.221-19.718-22.025-34.9c-1.223-10.294-0.286-20.269,4.057-29.71
		c7.383-16.051,19.773-24.928,37.663-25.91c30.19-1.656,45.199,22.947,45.605,44.114
		C1205.277,113.235,1205.062,115.395,1205.939,118.261z M1188.815,104.759c-1.875-12.333-12.47-24.46-28.053-23.41
		c-13.617,0.918-24.514,11.588-24.753,23.41C1153.602,104.759,1171.191,104.759,1188.815,104.759z"/>
	<path style="fill:#353335;" d="M710.63,118.072c-0.824,12.377,6.822,24.694,17.859,28.84c7.611,2.86,15.342,2.803,22.808-0.612
		c7.417-3.393,11.862-9.904,16.317-16.535c4.327,2.444,8.488,4.794,13.003,7.344c-6.553,11.45-15.068,20.197-27.696,23.866
		c-14.407,4.186-28.336,3.108-40.858-5.945c-9.276-6.706-15.028-15.897-17.373-27.074c-3.166-15.087-1.462-29.479,7.329-42.476
		c8.103-11.981,19.544-18.001,34.053-18.539c9.826-0.364,18.807,1.853,26.815,7.548c9.259,6.585,14.265,15.972,17.063,26.718
		c1.397,5.364,1.296,10.864,1.317,16.864C757.737,118.072,734.164,118.072,710.63,118.072z M764.812,104.844
		c-2.755-14.67-14.884-25.097-29.265-23.35c-13.327,1.62-23.873,12.364-23.435,23.35
		C729.56,104.844,747.012,104.844,764.812,104.844z"/>
	<path style="fill:#373537;" d="M566.426,13.925c0.063,5.173,0.298,9.957-0.178,15.061c-11.8,0-23.413,0-35.507,0
		c0,43.875,0,87.423,0,131.619c-5.681,0.227-10.906,0.117-16.531,0.07c0-43.808,0-87.379,0-131.54c-12.078,0-23.784,0-35.694,0
		c0-5.357,0-10.126,0-15.211C507.711,13.925,536.79,13.925,566.426,13.925z"/>
	<path style="fill:#373537;" d="M1235.269,69.172c5.571,0,10.52,0,15.974,0c0,1.59,0,3.031,0,4.473
		c0,16.818,0.004,33.636-0.003,50.454c-0.001,3.677,0.475,7.272,1.55,10.8c2.896,9.513,12.113,15.454,21.898,13.662
		c11.512-2.109,17.031-7.91,17.284-19.601c0.389-17.973,0.227-35.957,0.297-53.937c0.007-1.805,0.001-3.609,0.001-5.719
		c5.354,0,10.409,0,15.475,0c0.829,1.049,0.48,2.243,0.482,3.347c0.024,17.651,0.011,35.301,0.02,52.952
		c0.004,6.704-0.649,13.34-3.676,19.398c-4.639,9.286-12.87,14.232-22.477,16.73c-11.453,2.978-22.35,1.142-32.46-5.262
		c-7.829-4.959-12.219-12.057-13.483-21.075c-0.574-4.095-0.957-8.229-0.927-12.411c0.114-16.151,0.046-32.304,0.046-48.455
		C1235.269,72.889,1235.269,71.251,1235.269,69.172z"/>
	<path style="fill:#363436;" d="M1520.759,133.095c0,7.146,0,13.736,0,20.286c-18.068,13.576-46.745,14.063-65.309-5.577
		c-16.149-17.085-16.839-45.528-1.429-63.892c16.978-20.232,46.259-21.892,65.991-8.203c0,6.453,0,13.066,0,20.182
		c-3.202-2.903-5.982-5.687-9.089-8.106c-18.082-14.073-46.568-4.525-51.131,19.939c-2.328,12.479,0.483,23.434,9.651,32.397
		c11.798,11.533,30.691,11.659,43.436,0.41C1515.465,138.25,1517.903,135.799,1520.759,133.095z"/>
	<path style="fill:#363436;" d="M1606.137,127.785c-0.042,4.079-0.084,8.158-0.126,12.236
		c-1.409,11.411-14.145,23.374-29.563,23.252c-16.325-0.129-26.592-7.088-32.746-22.594c2.759-2.225,8.143-4.613,13.52-5.95
		c1.907,3.375,3.771,6.88,6.561,9.75c6.771,6.969,19.114,5.969,24.387-1.998c4.06-6.135,2.737-13.849-3.206-18.054
		c-2.706-1.914-5.632-3.449-8.753-4.653c-6.046-2.332-11.666-5.464-17.2-8.866c-13.199-8.114-11.975-25.341-3.65-34.774
		c11.878-13.458,36.541-12.878,45.545,7.304c-3.671,2.825-8.173,4.19-12.14,6.749c-1.934-1.036-2.55-3.065-3.827-4.502
		c-5.043-5.676-13.135-5.949-18.004-0.581c-3.499,3.858-3.059,10.033,1.076,13.236c3.841,2.975,8.278,4.886,12.79,6.577
		c6.913,2.591,13.162,6.3,18.828,10.993C1603.344,118.988,1605.706,122.874,1606.137,127.785z"/>
	<path style="fill:#353336;" d="M1359.776,69.031c5.784,0,10.739,0,15.967,0c0,4.952,0,9.676,0,14.837c-5.172,0-10.25,0-15.649,0
		c0,25.694,0,50.96,0,76.54c-5.391,0-10.448,0-15.886,0c0-25.378,0-50.628,0-76.006c-3.154-1.051-6.205-0.018-9.274-0.781
		c0-4.75,0-9.362,0-14.175c2.665-1.118,5.731,0.082,9.078-0.835c0-10.606,0-21.33,0-32.282c5.42,0,10.352,0,15.765,0
		C1359.776,46.998,1359.776,57.726,1359.776,69.031z"/>
	<path style="fill:#383638;" d="M826.804,160.489c-5.149,0-10.089,0-15.281,0c0-30.485,0-60.723,0-91.231c5.206,0,10.301,0,15.492,0
		c0.976,2.454-0.25,5.237,1.046,8.322c5.281-5.218,9.981-10.785,18.072-10.661c5.582,0.086,10.822,0.873,15.878,4.036
		c-2.462,4.694-4.829,9.207-7.254,13.83c-2.168-0.802-4.101-1.666-6.117-2.237c-7.144-2.023-14.29,1.175-17.587,7.787
		c-3.216,6.449-3.554,13.457-3.625,20.428c-0.152,14.829-0.031,29.66-0.066,44.49C827.356,156.884,827.773,158.58,826.804,160.489z"
		/>
	<path style="fill:#353436;" d="M1397.354,69.159c5.278,0,10.219,0,15.134,0c0.633,4.211,0.878,82.155,0.296,91.12
		c-2.514,0.859-5.175,0.335-7.778,0.428c-2.461,0.088-4.928,0.019-7.652,0.019C1397.354,130.064,1397.354,99.832,1397.354,69.159z"
		/>
	<path style="fill:#383638;" d="M1416.23,34.95c-0.067,6.002-5.201,11.042-11.169,10.967c-6.52-0.082-11.441-5.304-11.252-11.939
		c0.167-5.862,5.631-11.06,11.391-10.836C1411.379,23.382,1416.301,28.651,1416.23,34.95z"/>
</g>
</svg>
