<?xml version="1.0" encoding="iso-8859-1"?>
<!-- Generator: Adobe Illustrator 27.0.0, SVG Export Plug-In . SVG Version: 6.00 Build 0)  -->
<svg version="1.1" id="Layer_1" xmlns="http://www.w3.org/2000/svg" xmlns:xlink="http://www.w3.org/1999/xlink" x="0px" y="0px"
	 viewBox="0 0 1561.695 188" style="enable-background:new 0 0 1561.695 188;" xml:space="preserve">
<g>
	<path style="fill:#E7E1DB;" d="M186,0c0,62.667,0,125.333,0,188c-62,0-124,0-186,0C0,125.333,0,62.667,0,0C62,0,124,0,186,0z
		 M78.017,19.094c-2.604-0.303-4.894,0.584-7.079,1.869c-7.344,1.528-13.737,5.105-19.877,9.225
		c-1.848,1.34-4.477,1.835-4.994,4.615c-0.015,0.682-0.03,1.364-0.046,2.046c-2.841-1.045-5.427-0.443-7.849,1.218
		c-0.078,2.031-0.543,3.799-2.16,5.316c-3.045,2.857-5.335,6.365-7.505,9.898c-4.526,7.368-8.232,15.096-9.543,23.769
		c0,0,0.083-0.107,0.083-0.107c-0.164,0.155-0.444,0.293-0.471,0.469c-0.099,0.657-0.334-0.24,0.198,0.162
		c0.062,1.839,0.123,3.679,0.185,5.518c-1.369-0.116-1.656,0.821-1.718,1.861c-0.157,2.619-0.259,5.241-0.384,7.862
		c-3.478,0.742-7.258-0.743-11.431,1.388c4.306,1.459,7.947,0.331,11.432,0.978c0.283,3.169-0.078,6.387,0.709,9.519
		c2.223,1.804,1.874,4.558,2.558,6.929c-0.752,0.456-1.249,0.982-0.931,1.989c2.193,6.942,4.576,13.794,8.594,19.958
		c0.509,0.781,1.044,1.203,1.909,1.307c0.822,0.205,1.281,0.74,1.42,1.566c-0.22,0.562-0.845,1.028-0.26,1.752
		c1.629,2.014,2.839,4.378,5.004,5.941c0.144,0.556,0.517,0.886,1.047,1.06c1.024,1.224-0.408,2.94,1.129,4.433
		c3.371-0.372,5.279,2.769,8.07,4.312c2.525,2.635,5.603,4.468,8.828,6.088c2.74,2.174,5.917,3.503,9.145,4.734
		c4.394,1.816,8.853,3.405,13.763,4.192c-0.128-0.768-0.205-1.231-0.282-1.693c0.737-0.194,1.221,0.076,1.457,0.797
		c0.204,1.899,1.778,1.727,2.999,1.835c2.951,0.261,5.915,0.366,8.874,0.533c0.522,0.65,1.315,0.441,1.983,0.626
		c0.663,3.179-0.884,6.673,1.546,10.756c1.002-4.259,0.287-7.558,0.699-10.756c4.186-0.542,8.373-1.083,12.559-1.625
		c0.414-1.02,1.106-1.766,2.174-1.008c1.272,0.902,2.085-0.235,3.106-0.419c8.389-1.755,15.911-5.463,22.976-10.199
		c2.305-1.271,4.526-2.654,6.231-4.718c2.124-1.393,3.794-3.73,6.806-3.283c1.153-0.19,2.064-0.775,2.358-1.15
		c1.112-1.995-1.286-3.066-0.076-4.572c4.733-4.562,8.141-10.02,10.804-15.982c5.04-9.051,7.663-18.757,7.887-29.112
		c0.063-1.281,0.125-2.563,0.188-3.844c3.491-0.659,7.256,0.756,11.455-1.352c-4.327-1.456-7.963-0.354-11.454-0.945
		c-0.085-1.609-0.171-3.219-0.256-4.828c0.517-3.482-0.851-6.74-1.236-10.115c-0.091-0.793-0.924-0.767-1.58-0.775
		c-0.051-1.794-0.101-3.587-0.152-5.381c-2.135-8.041-5.609-15.422-10.796-21.963c-0.498-1.457-1.486-2.617-2.531-3.656
		c-2.414-2.398-4.124-5.075-3.711-9.066c-2.233,0-4.034,0-5.835,0c-0.666-0.352-1.332-0.703-1.998-1.055
		c-1.167-0.001-2.071-0.369-2.319-1.657c0.037-0.978,0.107-1.838-0.982-2.521c-1.937-1.214-3.583-2.885-5.797-3.672
		c-3.49-2.01-6.917-4.15-10.862-5.212c-3.002-1.854-6.312-2.699-9.79-2.998c-1.446,0.755-2.893,1.226-4.348,0.021
		c0.137-1.225-0.622-1.726-1.646-1.824c-1.406-0.134-2.826-0.129-4.24-0.184c-0.268-0.165-0.48-0.714-0.859-0.127
		c-1.006-0.449-2.057-0.598-3.149-0.466c-0.976-0.145-1.953-0.29-2.929-0.435c-0.618-3.52,0.784-7.301-1.34-11.576
		c-1.375,4.407-0.426,8.05-0.903,11.576c-1.299,0.389-2.786-0.38-3.982,0.645C85.282,18.173,81.472,17.358,78.017,19.094z"/>
	<path style="fill:#535655;" d="M798.549,45.067c3.946-1.27,28.365-1.207,31.562-0.039c-1.409,1.667-3.462,1.013-5.029,1.55
		c-2.562,0.878-3.96,2.308-4.208,4.904c-0.299,3.135-0.872,6.227-0.866,9.411c0.049,26.991,0.024,53.981-0.024,80.972
		c-0.003,1.934,0.536,3.994-0.879,5.978c-1.862,0.168-2.874-1.273-4.006-2.387c-11.87-11.681-23.49-23.603-34.969-35.673
		c-14.088-14.813-27.594-30.154-42.085-45.793c0,4.901-0.349,9.128,0.072,13.277c0.893,8.797,0.601,17.61,0.89,26.414
		c0.338,10.302,0.664,20.603,1.009,30.905c0.028,0.826,0.092,1.663,0.259,2.47c1.225,5.927,2.971,7.436,9.005,7.947
		c1.201,0.102,2.676-0.54,3.515,1.029c-3.226,1.234-27.405,1.418-32.168,0.144c2.509-1.986,5.739-0.674,8.79-3.376
		c1.955-2.021,1.686-5.772,1.711-9.4c0.11-16.157,0.186-32.315,0.234-48.472c0.035-11.829,0.027-23.659-0.01-35.488
		c-0.008-2.477,0.152-4.875,1.622-7.954c9.402,9.604,17.904,19.317,26.708,28.735c8.865,9.483,17.725,18.97,26.559,28.482
		c8.787,9.46,17.538,18.953,26.872,29.044c0-7.442,0.008-13.898-0.006-20.355c-0.003-1.497-0.084-2.994-0.116-4.492
		c-0.336-15.799-0.635-31.599-1.019-47.397c-0.147-6.022-1.834-7.781-7.602-9.157C802.64,45.933,800.707,46.621,798.549,45.067z"/>
	<path style="fill:#535655;" d="M1302.067,45.784c0.919-0.973,1.238-1.608,1.561-1.609c9.641-0.054,19.281-0.055,28.922,0.001
		c0.303,0.002,0.602,0.684,0.9,1.045c-0.288,0.272-0.478,0.615-0.722,0.659c-7.733,1.389-8.625,2.234-8.751,9.882
		c-0.164,9.99-0.084,19.984-0.122,29.976c-0.07,18.815-0.161,37.631-0.206,56.446c-0.005,2.001-0.123,3.926-1.267,5.981
		c-2.885-1.64-5.204-3.754-7.387-5.994c-17.069-17.511-34.249-34.916-50.6-53.111c-6.559-7.298-13.138-14.579-19.674-21.897
		c-0.655-0.734-1.075-1.678-1.857-2.931c-1.573,1.978-1.225,3.298-1.208,4.479c0.085,5.823,0.238,11.646,0.351,17.469
		c0.287,14.795,1.253,29.572,1.085,44.381c-0.026,2.302,0.55,4.612,0.872,6.915c0.691,4.952,2.697,6.863,7.717,7.495
		c1.417,0.178,3.003-0.516,4.709,1.182c-3.632,1.646-7.176,0.691-10.558,0.823c-3.655,0.142-7.321,0.072-10.981,0.018
		c-3.526-0.052-7.094,0.319-11.028-0.274c1.165-2.207,2.639-1.569,3.818-1.745c4.814-0.716,5.692-1.707,6.61-6.553
		c0.562-2.966,0.72-5.92,0.719-8.919c-0.008-26.982,0.001-53.964,0.042-80.946c0.003-2.098-0.538-4.374,1.742-6.596
		c9.216,9.02,17.521,18.851,26.43,28.09c9.119,9.455,17.998,19.143,26.909,28.796c8.777,9.508,17.462,19.1,26.862,29.392
		c0-7.124,0.431-13.372-0.099-19.537c-0.828-9.632-0.575-19.267-0.823-28.898c-0.206-7.972,0.086-15.956-0.674-23.913
		c-0.111-1.16-0.141-2.333-0.341-3.477c-0.532-3.042-2.016-5.039-5.348-5.669C1307.402,46.318,1305.105,46.107,1302.067,45.784z"/>
	<path style="fill:#535655;" d="M435.655,147.042c-7.63-0.1-14.948,0.649-22.152-0.436c-5.589-0.842-9.904-4.351-13.525-8.71
		c-7.752-9.33-14.811-19.18-21.985-28.946c-1.175-1.599-2.383-3.174-3.661-4.874c-5.964-0.428-11.915-0.611-17.713-0.323
		c-1.334,0.963-0.972,2.224-0.969,3.334c0.027,9.323-0.067,18.644,0.282,27.969c0.339,9.065,3.599,9.72,9.797,9.944
		c0.945,0.034,2.031-0.313,2.911,1.193c-3.603,1.689-7.342,0.616-10.917,0.776c-3.818,0.17-7.654,0.097-11.477-0.014
		c-3.707-0.108-7.477,0.633-11.13-0.369c0.071-1.931,1.314-1.522,2.207-1.584c3.43-0.239,5.257-1.826,6.006-5.405
		c1.175-5.616,0.919-11.271,0.953-16.878c0.134-22.313-0.063-44.628-0.142-66.942c-0.003-0.832-0.029-1.666-0.1-2.495
		c-0.344-3.988-1.662-5.28-5.453-6.711c-1.811-0.684-3.967,0.188-5.506-1.203c0.236-1.76,1.467-1.38,2.342-1.348
		c11.98,0.433,23.961-0.149,35.937,0.034c5.995,0.092,11.818,1.386,17.185,4.265c8.502,4.561,13.354,14.783,11.918,24.338
		c-1.333,8.871-5.397,16.25-11.415,22.702c-1.458,1.563-2.949,3.095-4.644,4.871c3.063,4.015,5.885,7.871,8.872,11.596
		c5.3,6.608,10.651,13.175,16.069,19.687c6.469,7.776,13.956,13.777,24.815,13.576C434.747,145.076,434.967,145.567,435.655,147.042
		z M355.681,49.278c0,16.035,0,31.566,0,46.946c0.956,1.047,1.974,1.493,3.129,1.807c4.052,1.103,8.192,1.044,12.336,1.139
		c9.157,0.211,13.546-4.777,15.792-11.083c3.169-8.896,3.141-17.902-0.76-26.605c-3.187-7.111-8.617-11.395-16.538-12.693
		C365.081,48.042,360.781,48.89,355.681,49.278z"/>
	<path style="fill:#535655;" d="M1509.947,144.938c-0.275,1.186-0.658,2.13-2.213,2.108c-6.161-0.085-12.342,0.196-18.48-0.203
		c-4.953-0.322-9.074-2.868-12.601-6.409c-6.132-6.155-11.014-13.308-16.259-20.166c-4.028-5.266-7.841-10.697-11.841-16.181
		c-6.07-0.477-12.167-0.616-18.567-0.317c-0.714,5.834-0.29,11.454-0.323,17.05c-0.027,4.657,0.219,9.316,0.347,13.974
		c0.023,0.831-0.02,1.675,0.108,2.491c0.908,5.773,2.556,7.226,8.468,7.722c1.355,0.114,2.978-0.638,4.518,1.625
		c-6.13,0.774-11.803,0.309-17.455,0.224c-5.5-0.083-11.036,0.592-17.682-0.262c2.993-2.334,5.957-1.057,7.906-3.133
		c1.865-2.641,2.229-5.928,2.247-9.265c0.103-19.318,0.192-38.635,0.235-57.953c0.016-7.159,0.035-14.323-0.208-21.476
		c-0.213-6.248-1.797-7.803-7.868-8.72c-1.074-0.162-2.356,0.484-3.173-0.785c0.14-1.486,1.3-1.256,2.23-1.255
		c12.314,0.008,24.633-0.151,36.941,0.141c7.016,0.166,13.943,1.614,19.499,6.29c8.863,7.46,10.939,16.964,7.595,27.875
		c-1.987,6.484-5.532,12.002-10.122,16.92c-1.46,1.564-3.274,2.815-4.482,4.977c2.447,4.258,5.825,7.929,8.854,11.816
		c5.512,7.075,11.22,14.007,17.049,20.824c4.811,5.626,10.413,10.184,17.976,11.758c2.484,0.517,4.951,0.237,7.418,0.445
		L1509.947,144.938z M1429.362,95.776c1.332,1.467,2.342,1.942,3.497,2.251c4.053,1.083,8.198,0.985,12.337,1.153
		c8.479,0.345,13.58-4.59,15.977-11.551c2.677-7.777,2.74-15.652,0.252-23.401c-2.879-8.968-8.928-14.296-18.595-15.544
		c-4.236-0.547-8.187,0.328-11.903,0.491c-1.217,0.948-1.541,1.927-1.543,2.915C1429.353,66.845,1429.362,81.599,1429.362,95.776z"
		/>
	<path style="fill:#535655;" d="M1050.088,45.605c0.355-1.853,1.512-1.597,2.439-1.597c12.317,0.001,24.638-0.151,36.95,0.124
		c6.515,0.146,12.874,1.63,18.372,5.426c8.973,6.195,12.275,17.272,8.7,28.887c-1.785,5.801-4.919,10.856-8.925,15.379
		c-1.863,2.103-3.802,4.138-5.917,6.433c3.199,4.199,6.181,8.364,9.425,12.314c5.592,6.809,10.979,13.779,16.842,20.378
		c6.342,7.137,13.46,12.289,23.466,12.149c0.387-0.005,0.78,0.458,1.169,0.703c-0.286,1.528-1.453,1.208-2.307,1.213
		c-5.498,0.034-10.998,0.095-16.493-0.036c-4.639-0.111-8.675-1.898-12.212-4.909c-5.76-4.903-9.962-11.123-14.474-17.069
		c-5.214-6.872-10.271-13.862-15.478-20.912c-6.064-0.46-12.157-0.638-18.109-0.328c-1.071,1.654-0.657,3.192-0.656,4.644
		c0.003,8.329,0.079,16.658,0.13,24.986c0.003,0.5-0.066,1.014,0.028,1.497c1.4,7.222,0.141,9.68,10.253,10.112
		c0.649,0.028,1.31,0.121,1.932,0.299c0.221,0.063,0.344,0.471,0.926,1.34c-5.999,0.777-11.677,0.34-17.332,0.211
		c-5.543-0.127-11.121,0.721-17.457-0.295c2.552-2.575,6.02-0.622,7.628-3.207c1.572-2.177,1.965-4.743,2.14-7.445
		c1.631-25.118,0.514-50.263,0.79-75.394c0.029-2.633-0.561-5.267-0.734-7.909c-0.214-3.269-1.901-4.977-5.019-5.94
		C1054.184,46.049,1051.977,46.443,1050.088,45.605z M1073.107,96.702c4.607,2.423,9.572,2.221,14.502,2.475
		c10.51,0.541,15.14-6.101,17.321-13.24c1.632-5.343,1.698-10.884,0.912-16.275c-1.222-8.385-4.795-15.563-13.121-19.18
		c-6.324-2.747-12.857-1.998-19.614-1.088C1073.107,65.276,1073.107,80.691,1073.107,96.702z"/>
	<path style="fill:#535655;" d="M276.945,42.078c2.182,1.314,2.523,3.337,3.225,5.151c10.264,26.524,20.532,53.046,30.802,79.566
		c1.436,3.709,3.06,7.323,5.033,10.792c2.681,4.714,6.532,7.375,12.043,7.405c0.683,0.004,1.319,0.08,2.047,0.968
		c-2.762,2.13-5.913,0.817-8.769,1.026c-3.147,0.23-6.327,0.087-9.49,0.006c-3.137-0.08-6.314,0.398-10.04-0.637
		c2.806-2.543,2.101-5.155,0.986-7.999c-4.04-10.307-7.91-20.68-11.894-31.162c-10.209,0-20.33,0-30.649,0
		c-2.03,3.415-2.684,7.384-4.052,11.063c-2.02,5.435-3.678,11.005-5.468,16.525c-0.304,0.939-0.585,1.901-0.727,2.875
		c-0.814,5.564,0.085,6.706,5.644,7.383c0.457,0.056,0.886,0.344,1.377,0.544c-1.979,1.591-1.978,1.546-9.586,1.338
		c-3.325-0.091-6.658,0.127-9.985,0.063c-3.44-0.067-6.921,0.49-10.296-0.349c-0.123-1.312,0.586-1.673,1.486-1.618
		c7.183,0.439,11.026-3.809,13.343-9.805c3.16-8.179,6.036-16.468,9.049-24.705c7.611-20.805,15.224-41.609,22.86-62.405
		C274.618,46.11,275.061,43.95,276.945,42.078z M261.81,101.712c9.101,0,17.83,0,26.999,0c-4.382-13.052-8.801-25.83-14.493-38.308
		C270.183,76.06,266.052,88.716,261.81,101.712z"/>
	<path style="fill:#535655;" d="M966.741,141.259c1.91,4.758,5.614,2.902,8.456,4.842c-3.809,1.651-7.208,0.699-10.49,0.785
		c-3.495,0.092-6.993,0.143-10.488,0.106c-3.357-0.035-6.766,0.419-10.13-0.302c0.34-1.982,1.521-1.703,2.422-1.676
		c5.965,0.179,9.747-3.04,11.89-8.148c2.753-6.559,5.151-13.271,7.594-19.956c8.399-22.985,16.732-45.993,25.151-68.97
		c0.721-1.969,1.074-4.234,3.143-5.613c1.913,0.762,2.241,2.544,2.884,4.219c8.242,21.459,16.485,42.918,24.843,64.332
		c3.184,8.159,6.024,16.463,9.927,24.333c2.922,5.892,6.996,10.058,14.155,9.865c0.424-0.011,0.921,0.301,0.932,0.912
		c-3.598,1.581-23.902,1.45-27.857-0.361c2.192-1.256,2.337-3.17,1.616-5.095c-4.172-11.127-8.418-22.225-12.655-33.376
		c-10.386,0-20.517,0-31.093,0C973.858,118.877,968.162,129.861,966.741,141.259z M1005.869,101.723
		c-2.478-9.801-11.745-35.127-14.217-38.519c-4.22,12.936-8.348,25.586-12.568,38.519
		C988.343,101.723,997.076,101.723,1005.869,101.723z"/>
	<path style="fill:#535655;" d="M715.868,146.059c-3.135,1.226-20.798,1.493-27.955,0.334c3.002-2.72,1.734-5.46,0.61-8.371
		c-3.933-10.183-7.715-20.425-11.616-30.807c-10.175,0-20.3,0-30.446,0c-1.094,0.663-1.253,1.825-1.624,2.927
		c-2.486,7.384-5.046,14.743-7.538,22.125c-0.528,1.565-1.011,3.168-1.286,4.792c-1.023,6.058-0.312,6.957,5.977,8.019
		c0.467,0.079,0.899,0.365,0.903,0.965c-2.658,1.085-24.285,1.434-29.774,0.477c-0.193-1.099,0.464-1.53,1.379-1.488
		c7.359,0.337,11.242-3.934,13.571-10.224c3.328-8.99,6.616-17.994,9.908-26.997c7.328-20.036,14.631-40.082,21.998-60.103
		c0.714-1.939,1.006-4.208,3.117-5.493c2.045,1.085,2.348,3.157,3.042,4.952c9.955,25.769,19.883,51.548,29.843,77.315
		c1.729,4.473,3.475,8.928,5.946,13.089c2.766,4.656,6.559,7.355,12.066,7.433C714.78,145.016,715.684,144.921,715.868,146.059z
		 M674.812,101.749c-4.609-13.389-8.826-26.096-14.127-39.641c-4.55,13.936-8.692,26.624-12.941,39.641
		C656.79,101.749,665.383,101.749,674.812,101.749z"/>
	<path style="fill:#535655;" d="M888.203,146.6c1.114-2.273,2.652-1.378,3.839-1.639c2.71-0.595,4.593-2.133,4.893-4.93
		c0.354-3.298,1.112-6.526,1.1-9.896c-0.083-24.49-0.037-48.981-0.049-73.472c-0.004-8.126-1.482-9.73-9.684-10.625
		c-0.671-0.073-1.32-0.113-1.828-0.64c0.065-1.423,1.12-1.401,2.118-1.399c12.485,0.02,24.971-0.01,37.455,0.116
		c3.316,0.034,6.554,0.881,9.77,1.77c12.375,3.421,19.336,14.6,16.819,28.271c-3.449,18.734-17.296,26.107-32.845,26.688
		c-1.614,0.06-3.351,0.303-4.415-1.437c1.465-2.091,3.675-1.166,5.55-1.278c9.598-0.575,17.849-6.452,20.298-15.66
		c3.468-13.038-1.49-26.85-13.274-32.18c-5.563-2.516-11.48-3.207-17.479-1.088c-1.008,1.07-0.838,2.449-0.83,3.759
		c0.152,27.155-0.391,54.314,0.366,81.467c0.023,0.833-0.04,1.675,0.059,2.497c0.723,5.97,2.574,7.668,8.643,8.075
		c1.274,0.085,2.685-0.461,3.777,0.689c-1.87,1.357-1.87,1.354-10.607,1.322c-3.996-0.015-7.993,0.049-11.986-0.039
		C896.101,146.887,892.276,147.485,888.203,146.6z"/>
	<path style="fill:#515453;" d="M1341.088,146.316c3.241-1.828,6.065-1.026,8.394-3.338c2.559-4.247,2.275-9.769,2.344-14.915
		c0.314-23.494,0.372-46.998,0.031-70.492c-0.152-10.449-1.882-10.588-10.425-11.598c-0.435-0.052-0.839-0.372-1.326-0.599
		c0.8-2.136,2.572-1.342,3.867-1.336c11.661,0.056,23.321,0.249,34.981,0.322c3.994,0.025,7.99-0.207,11.985-0.256
		c1.847-0.023,3.622-0.313,5.496-1.128c1.562,3.268-0.724,6.184-0.56,9.259c0.155,2.909,0.51,6.149-1.505,8.989
		c-1.901-1.232-1.145-2.705-1.394-3.9c-0.688-3.302-2.149-5.632-5.855-6.515c-4.457-1.062-8.912-0.834-13.38-0.946
		c-3.139-0.079-6.281-0.015-9.767-0.015c0,13.383,0,26.434,0,39.954c5.992,0,11.927,0.013,17.862-0.018
		c0.649-0.003,1.291-0.316,1.947-0.386c6.604-0.698,6.604-0.692,11.345-3.789c-1.435,7.095-1.062,13.736-2.562,20.398
		c-2.07-1.076-1.354-2.776-1.559-4.134c-0.468-3.098-1.962-5.36-5.182-5.857c-7.218-1.114-14.476-1.372-21.841-0.746
		c-0.651,2.519-0.349,4.849-0.343,7.142c0.026,10.162-0.028,20.329,0.257,30.485c0.166,5.916,1.885,7.411,7.682,8.428
		c5.636,0.989,11.212,0.726,16.843-0.128c4.788-0.727,7.805-3.071,9.148-7.827c0.427-1.511-0.19-3.462,1.515-4.566
		c1.012,1.819,1.53,5.008,0.612,8.574c-0.773,3.002-0.02,6.439-2.647,9.265c-4.693,1.881-9.943,1.19-14.979,0.848
		c-9.649-0.655-19.285-0.444-28.929-0.554C1349.535,146.898,1345.89,147.503,1341.088,146.316z"/>
	<path style="fill:#515453;" d="M480.857,146.362c-11.259,0.673-22.491,0.576-34.062,0.636c0.882-2.707,2.484-1.794,3.619-2.05
		c2.475-0.557,4.322-1.726,4.654-4.46c0.2-1.646,0.909-3.155,0.953-4.868c0.727-28.3,0.176-56.603,0.39-85.444
		c-6.584,0-13.003-0.055-19.42,0.031c-2.148,0.029-4.289,0.555-6.438,0.606c-4.279,0.101-7.168,2.148-9.083,5.873
		c-0.587,1.141-0.827,2.573-2.561,3.397c-1.68-3.144,0.408-5.909,0.847-8.713c0.479-3.064,0.742-6.255,2.768-9.194
		c5.515,2.405,11.338,2.131,17.081,2.167c17.152,0.105,34.304,0.054,51.457,0.026c4.147-0.007,8.299-0.108,12.364-1.081
		c1.211,4.115,0.814,15.434-0.628,18.139c-0.815-0.228-0.699-0.94-0.822-1.545c-1.247-6.115-3.391-8.188-9.52-8.882
		c-7.92-0.897-15.864-1.297-23.805-0.833c-1.127,1.183-0.619,2.584-0.62,3.841c-0.023,24.479-0.044,48.959,0.051,73.438
		c0.015,3.806,0.509,7.621,0.944,11.412c0.407,3.548,1.598,4.41,5.253,5.666C476.454,145.272,478.892,144.255,480.857,146.362z"/>
	<path style="fill:#515453;" d="M1171.512,142.744c0.585-1.419,1.4-3.214,1.489-5.264c0.296-6.801,0.876-13.599,0.918-20.401
		c0.124-20.477,0.045-40.955,0.045-61.433c0-1.651,0-3.302,0-5.475c-6.569,0-12.991-0.191-19.389,0.108
		c-2.117,0.099-4.3,0.408-6.432,0.473c-4.462,0.136-7.529,2.063-9.475,6.067c-0.542,1.114-0.731,2.638-2.959,3.268
		c0.091-6.239,1.81-11.867,3.621-17.876c7.406,2.521,14.839,2.156,22.237,2.165c14.651,0.018,29.302,0.013,43.952,0.001
		c5.108-0.004,10.225,0.109,15.761-1.272c1.194,6.43-0.239,12.39-0.483,18.381c-1.49-0.171-1.821-1.049-1.786-2.15
		c0.139-4.48-2.627-6.352-6.421-7.678c-3.703-1.295-7.559-1.004-11.311-1.416c-5.219-0.573-10.548-0.144-16.241-0.144
		c0,1.956,0,3.581,0,5.205c0,9.989-0.096,19.98,0.022,29.967c0.19,16.125,0.519,32.249,0.797,48.373
		c0.02,1.164,0.059,2.33,0.154,3.49c0.436,5.335,2.37,7.245,7.769,7.854c1.404,0.158,2.983-0.541,4.593,1.113
		c-3.752,1.793-7.49,0.701-11.054,0.862c-3.983,0.181-7.984,0.138-11.971,0.003c-3.725-0.126-7.512,0.639-11.801-0.554
		C1165.89,144.026,1169.189,145.641,1171.512,142.744z"/>
	<path style="fill:#535655;" d="M1510.064,145.054c-1.567-3.326-0.893-6.868-0.857-10.313c0.033-3.143,0.536-6.279,0.788-9.422
		c0.079-0.987,0.584-1.488,1.7-1.722c0.562,2.549,0.489,5.207,1.249,7.744c1.196,3.994,3.332,7.161,6.966,9.279
		c8.721,5.083,20.302,4.015,26.395-2.034c6.552-6.505,7.244-16.467,2.128-24.654c-3.777-6.043-9.536-10.14-14.891-14.604
		c-5.236-4.366-10.567-8.623-14.706-14.122c-5.827-7.741-7.987-16.309-5.307-25.743c2.692-9.474,9.706-14.248,18.834-16.42
		c6.934-1.65,13.883-0.975,20.737,0.455c1.919,0.4,3.96,0.239,5.749,0.953c0.819,5.123,0.177,15.927-1.117,18.463
		c-1.126-1.366-1.477-2.956-1.622-4.56c-0.31-3.441-2.127-6.061-4.9-7.718c-7.154-4.276-14.703-5.01-22.28-1.161
		c-9.515,4.833-8.921,18.765-3.435,24.705c4.422,4.788,9.353,8.955,14.454,12.968c5.881,4.625,11.687,9.316,16.129,15.482
		c7.826,10.863,7.432,26.025-0.923,36.028c-5.851,7.004-13.745,9.541-22.409,10.275c-7.921,0.671-15.527-0.791-22.799-3.992
		L1510.064,145.054z"/>
	<path style="fill:#535655;" d="M565.714,123.67c0.699,2.439,0.271,4.945,1.01,7.389c1.501,4.962,4.349,8.439,9.029,10.582
		c8.862,4.057,19.024,2.269,24.262-2.843c6.452-6.296,7.4-17.357,2.134-25.141c-3.994-5.904-9.573-10.137-14.973-14.551
		c-6.583-5.382-13.216-10.719-17.302-18.395c-4.782-8.982-5.112-18.103,0.109-27.019c3.59-6.131,9.523-9.042,16.183-10.627
		c6.939-1.652,13.89-0.976,20.766,0.376c1.792,0.352,3.604,0.481,5.939,0.936c0.332,6.079,0.125,12.208-0.313,18.938
		c-2.23-1.264-2.281-2.805-2.431-4.179c-0.618-5.669-4.044-9.077-9.176-10.565c-4.252-1.233-8.552-1.83-13.215-0.96
		c-12.25,2.285-15.881,16.77-8.865,25.826c4.431,5.72,10.269,9.899,15.813,14.391c5.301,4.294,10.495,8.632,14.717,14.105
		c12.916,16.744,4.804,42.729-17.587,46.225c-8.427,1.316-16.495,1.052-24.447-1.956c-4.005-1.515-4.393-2.03-4.352-6.167
		c0.05-4.984,0.122-9.975,0.964-14.912C564.099,124.419,564.315,123.851,565.714,123.67z"/>
	<path style="fill:#515453;" d="M514.897,44.731c4.092-0.972,28.285-0.77,31.241,0.301c-1.243,1.569-3.115,1.108-4.518,1.516
		c-2.991,0.868-4.494,2.615-4.627,5.643c-0.139,3.155-0.351,6.311-0.356,9.467c-0.032,20.467-0.038,40.935,0.001,61.402
		c0.008,4.321,0.175,8.645,0.382,12.962c0.323,6.727,2.309,8.611,9.217,8.98c0.972,0.052,1.998-0.248,2.893,0.385
		c0.13,0.092,0.236,0.218,0.356,0.331c-0.567,0.388,0.213-0.12-0.01,0.509c-0.048,0.135-0.154,0.345-0.249,0.354
		c-10.598,1.011-21.225-0.07-31.832,0.44c-0.779,0.037-1.651,0.142-2.162-0.726c0.088-1.541,1.288-1.207,2.205-1.29
		c5.729-0.517,5.776-2.402,6.417-6.053c0.799-4.55,1.041-9.242,1.063-13.875c0.103-21.299,0.028-42.599,0.066-63.898
		c0.005-2.838-0.208-5.631-0.691-8.422c-0.795-4.594-1.631-5.498-6.11-6.614C517.147,45.885,515.782,46.58,514.897,44.731z"/>
	<path style="fill:#346B5C;" d="M35.885,130.98c2.012-0.615,2.135-2.175,2.124-3.944c-0.068-10.63-0.078-21.261-0.108-31.891
		c0-0.763,0-1.526,0-2.29c0-16.138,0-32.276,0-48.554c-1.856,0.504-2.634,2.064-3.593,3.309
		c-6.026,7.823-10.481,16.469-13.197,25.974c-0.401,1.405-0.247,3.036-2.146,3.467c1.311-8.673,5.017-16.401,9.543-23.769
		c2.17-3.533,4.461-7.041,7.505-9.898c1.617-1.517,2.082-3.285,2.16-5.316c1.331,0.19,3.025-1.014,3.879,1.01
		c-0.411,1.91,1.274,2.574,2.248,3.564c5.837,5.936,11.761,11.785,17.62,17.699c1.267,1.279,2.844,2.355,3.278,4.285
		c-1.917-0.121-2.747-1.746-3.898-2.882c-6.97-6.88-13.906-13.794-20.892-20.735c-1.507,1.334-1.156,2.91-1.158,4.357
		c-0.019,14.826-0.02,29.653,0.004,44.479c0.002,1.111-0.408,2.361,0.696,3.258c0,0.598,0,1.195,0,1.793
		c-1.208,1.064-0.682,2.485-0.688,3.745c-0.045,8.967-0.041,17.934-0.002,26.901c0.005,1.091-0.47,2.353,0.857,3.344
		c4.914-0.503,9.038,0.827,10.971,6.085c-0.404,0.029-0.808,0.058-1.212,0.087c-3.584-4.975-5.094-5.612-10.501-4.137
		c-0.122,4.271-0.248,8.68-0.375,13.09c-0.376-0.022-0.752-0.043-1.128-0.065c0-3.901,0-7.802,0-11.621
		C36.981,131.965,36.014,132.065,35.885,130.98z"/>
	<path style="fill:#346B5C;" d="M155.88,51.341c-2.11-1.759-3.039-4.633-5.78-6.355c0,16.228,0,32.048,0,47.868
		c0.001,0.762,0.002,1.524,0.003,2.286c0,11.286,0,22.571,0,34.021c2.958,1.436,3.59,4.546,5.233,7.418
		c2.483-3.178,4.139-6.393,5.888-9.548c0.529,0.162,0.734,0.579,0.838,1.073c-2.663,5.962-6.071,11.419-10.804,15.982
		c-0.825-0.06-1.651-0.119-2.476-0.179c0.011-3.082,0.134-6.17-0.016-9.244c-0.072-1.473,0.936-3.223-0.788-4.423
		c-0.5-0.145-1-0.291-1.499-0.436c-0.994-0.988-2.347-0.399-3.477-0.79l-0.011-0.014c-0.02-0.325,0.023-0.641,0.126-0.949
		c1.775,0,3.55,0,5.524,0c0-11.148,0.004-21.767-0.025-32.386c-0.001-0.257-0.37-0.513-0.567-0.77c0-0.598,0-1.195,0-1.793
		c1.351-1.407,0.669-3.152,0.677-4.724c0.062-12.905-0.163-25.816,0.14-38.714c0.109-4.648-0.744-8.337-4.791-10.902
		c-0.012-0.565-0.024-1.131-0.035-1.696c1.801,0,3.602,0,5.835,0c-0.413,3.991,1.297,6.669,3.711,9.066
		c1.045,1.038,2.034,2.199,2.531,3.656C156.037,50.307,155.959,50.824,155.88,51.341z M150.102,143.074
		c4.145-4.694,4.029-8.054,0-11.388C150.102,135.346,150.102,138.926,150.102,143.074z"/>
	<path style="fill:#2C5E50;" d="M148.782,143.909c0.825,0.06,1.651,0.119,2.476,0.179c-1.21,1.506,1.188,2.578,0.076,4.572
		c-0.293,0.375-1.204,0.96-2.358,1.15c-0.73-1.281-1.988-0.627-3.014-0.823c-0.009-0.359-0.018-0.719-0.028-1.078
		c-0.365-1.135-1.548-1.453-2.344-1.56c-4.507-0.604-6.275-3.83-7.464-7.557c-0.31-0.971-0.565-1.823-1.303-2.556
		c-4.823-4.782-9.625-9.587-14.419-14.398c-0.624-0.626-1.352-0.915-2.207-0.964c-0.881-1.555-1.996-3-2.287-4.835
		c1.591-0.345,2.402,0.822,3.325,1.738c2.817,2.797,5.613,5.617,8.429,8.415c0.923,0.917,1.728,2.078,3.303,1.833l0.003,0.004
		c-0.128,0.885-0.058,1.674,0.97,1.999c1.877,3.501,6.348,4.857,7.442,9.005c-0.31,0.709,0.063,0.832,0.657,0.766l0.154,0.143
		c-0.37,1.627,0.314,2.18,1.875,1.839l0.151,0.15c-0.485,2.638,1.607,1.688,2.789,2.003c0.953,1.375,1.965,1.405,3.034,0.133
		C148.297,144.049,148.543,143.996,148.782,143.909z"/>
	<path style="fill:#618E80;" d="M42.052,39.079c-0.854-2.024-2.548-0.821-3.879-1.01c2.421-1.662,5.007-2.263,7.849-1.218
		c15.62,0.009,31.24,0.017,46.861,0.026c0,0,0.263,0.299,0.263,0.299c-0.694,0.572-1.389,1.143-2.083,1.715
		c-0.694,0.04-1.387,0.08-2.081,0.12c-1.259,0.15-2.612-0.39-4.036,0.693c0,0.933,0,2.047,0,3.16
		c-3.177,0.408-1.012-2.995-2.744-3.783C68.891,39.079,55.471,39.079,42.052,39.079z"/>
	<path style="fill:#346B5C;" d="M145.962,148.987c1.026,0.195,2.284-0.458,3.014,0.823c-3.012-0.447-4.682,1.889-6.806,3.283
		c-0.506-0.072-1.012-0.145-1.519-0.217c0.632-0.73,1.265-1.46,2.404-2.776c-16.355,0-32.132,0-47.91,0
		c-0.761-0.001-1.523-0.002-2.284-0.003c-16.215-0.005-32.431-0.011-48.646-0.016c-0.618-0.105-1.039-0.428-1.183-1.061
		c10.004-0.025,20.008-0.05,30.012-0.075c5.453,0.038,10.906,0.103,16.359,0.094c1.267-0.002,2.674,0.463,3.739-0.709
		c0.529-0.101,1.059-0.202,1.588-0.303c0.625,1.005,1.634,0.936,2.616,0.93c5.739-0.039,11.477-0.083,17.215-0.125
		C125.029,148.884,135.495,148.935,145.962,148.987z"/>
	<path style="fill:#618E80;" d="M144.04,37.068c0.012,0.565,0.024,1.131,0.035,1.696c-5.769,0.075-11.539,0.122-17.307,0.233
		c-7.578,0.145-15.165-0.362-22.736,0.29c-2.073-0.097-4.146-0.195-6.219-0.292c-0.607,0.007-1.214,0.014-1.821,0.021
		c-0.38-0.614-0.761-1.227-1.141-1.841l0.269-0.297c14.801,0.042,29.602,0.087,44.403,0.115c0.941,0.002,2.049,0.288,2.52-0.981
		C142.708,36.364,143.374,36.716,144.04,37.068z"/>
	<path style="fill:#4E7A6C;" d="M162.062,128.106c-0.104-0.495-0.309-0.911-0.838-1.073c2.394-6.266,4.721-12.495,6.04-19.17
		c0.584-2.958-0.352-6.201,1.46-8.915c0.408,0.015,0.816,0.031,1.224,0.046C169.725,109.349,167.102,119.055,162.062,128.106z"/>
	<path style="fill:#4E7A6C;" d="M20.125,111.631c2.785,7.436,5.041,15.1,9.483,21.822c0.229,0.346,0.069,0.949,0.09,1.432
		c-0.865-0.104-1.4-0.525-1.909-1.307c-4.018-6.164-6.401-13.016-8.594-19.958C18.876,112.614,19.373,112.087,20.125,111.631z"/>
	<path style="fill:#4E7A6C;" d="M155.88,51.341c0.079-0.517,0.157-1.034,0.236-1.551c5.187,6.54,8.661,13.922,10.796,21.963
		c-0.635,0.022-1.457,0.248-1.686-0.553C163.181,64.072,159.371,57.783,155.88,51.341z"/>
	<path style="fill:#2C5E50;" d="M43.032,149.02c0.144,0.633,0.565,0.956,1.183,1.061c0.381,1.505,1.912,2.013,2.727,3.142
		c-0.278,0.242-0.555,0.484-0.833,0.726c-2.79-1.543-4.698-4.683-8.07-4.312c-1.538-1.493-0.106-3.209-1.129-4.434
		c0.023-0.466,0.047-0.932,0.07-1.397c0.284,0.138,0.581,0.186,0.894,0.141c0.376,0.022,0.752,0.043,1.128,0.065
		c0.332,0.747,0.863,1.273,1.663,1.501c1.509-0.235,2.262-1.561,3.388-2.345c0.335,0.937,0.671,1.875,1.006,2.812
		c-0.014,0.339-0.028,0.677-0.042,1.016C43.822,147.148,42.253,146.933,43.032,149.02z"/>
	<path style="fill:#346B5C;" d="M112.963,168.01c0.037-0.831,0.015-1.674,1.121-1.899c7.603-1.547,14.175-5.44,20.821-9.164
		c0.505,0.096,0.917,0.303,1.033,0.864C128.874,162.547,121.352,166.255,112.963,168.01z"/>
	<path style="fill:#346B5C;" d="M71.951,21.823c-7.074,2.106-13.551,5.5-19.878,9.218c-0.495-0.097-0.9-0.3-1.012-0.852
		c6.14-4.121,12.533-7.697,19.877-9.225C71.425,21.074,71.838,21.271,71.951,21.823z"/>
	<path style="fill:#346B5C;" d="M18.14,95.17c-0.106,1.943-0.298,3.83,0.548,5.757c0.573,1.305,0.587,2.917-1.122,3.775
		c-0.788-3.132-0.427-6.349-0.709-9.519c0-0.789,0-1.577-0.001-2.366c0.124-2.621,0.226-5.243,0.384-7.862
		c0.062-1.04,0.349-1.977,1.718-1.861c-0.264,3.231-0.527,6.461-0.791,9.692C18.158,93.58,18.149,94.375,18.14,95.17z"/>
	<path style="fill:#4E7A6C;" d="M95.109,168.946c3.099-0.104,6.231,0.326,9.269-0.727c1.357-0.47,2.59-0.238,3.304,1.217
		c-4.186,0.542-8.373,1.083-12.559,1.625c-0.749,0-1.497,0-2.246,0c-0.669-0.185-1.462,0.024-1.983-0.626
		c0.025-0.41,0.05-0.819,0.075-1.229c0.643-0.086,1.285-0.171,1.928-0.257C93.634,168.949,94.372,168.947,95.109,168.946z"/>
	<path style="fill:#346B5C;" d="M31.117,136.451c0.445,0.363,0.89,0.727,1.505,1.228c0.47-1.26,0.923-2.473,1.376-3.686
		c1.505,0.244,1.021,1.359,0.865,2.192c-0.501,2.675,0.034,5.049,1.805,7.13c-0.269,0.276-0.538,0.553-0.807,0.829
		c-2.164-1.564-3.375-3.927-5.003-5.941C30.272,137.479,30.898,137.013,31.117,136.451z"/>
	<path style="fill:#346B5C;" d="M65.155,163.909c4.186,0.936,8.056,3.037,12.408,3.361c0.077,0.462,0.154,0.925,0.282,1.693
		c-4.91-0.787-9.369-2.376-13.763-4.192C64.218,164.208,64.667,164.034,65.155,163.909z"/>
	<path style="fill:#61897C;" d="M16.856,92.817c0,0.789,0,1.577,0.001,2.366c-3.484-0.646-7.126,0.481-11.432-0.978
		C9.599,92.074,13.379,93.56,16.856,92.817z"/>
	<path style="fill:#61897C;" d="M92.879,16.938c0.477-3.526-0.473-7.169,0.903-11.576c2.124,4.275,0.722,8.056,1.34,11.576
		C94.374,16.938,93.626,16.938,92.879,16.938z"/>
	<path style="fill:#61897C;" d="M170.136,92.852c3.491,0.592,7.127-0.51,11.454,0.945c-4.199,2.108-7.964,0.693-11.455,1.352
		C170.136,94.383,170.136,93.618,170.136,92.852z"/>
	<path style="fill:#346B5C;" d="M169.021,88.95c-0.843-3.907-1.848-7.788-1.957-11.817c0.656,0.009,1.49-0.017,1.58,0.775
		c0.386,3.375,1.753,6.633,1.236,10.115C169.349,88.105,169.122,88.469,169.021,88.95z"/>
	<path style="fill:#346B5C;" d="M46.108,153.949c0.278-0.242,0.555-0.484,0.833-0.726c3,1.988,5.999,3.976,8.999,5.964
		c-0.108,0.55-0.511,0.752-1.003,0.85C51.712,158.417,48.633,156.584,46.108,153.949z"/>
	<path style="fill:#61897C;" d="M92.877,171.061c0.749,0,1.497,0,2.246,0c-0.413,3.197,0.302,6.497-0.699,10.756
		C91.993,177.734,93.54,174.24,92.877,171.061z"/>
	<path style="fill:#4E7A6C;" d="M54.937,160.037c0.492-0.097,0.895-0.299,1.003-0.85c3.072,1.574,6.143,3.148,9.215,4.722
		c-0.488,0.125-0.937,0.299-1.073,0.862C60.854,163.539,57.677,162.21,54.937,160.037z"/>
	<path style="fill:#4E7A6C;" d="M92.879,16.938c0.747,0,1.495,0,2.242,0c0.976,0.145,1.953,0.29,2.929,0.435
		c-0.006,0.466-0.012,0.933-0.018,1.399c-0.974,0.093-1.949,0.187-2.923,0.28c-0.74,0-1.479,0-2.219,0
		c-1.308-0.093-2.617-0.187-3.925-0.28c-0.023-0.397-0.046-0.793-0.069-1.19C90.093,16.558,91.58,17.327,92.879,16.938z"/>
	<path style="fill:#346B5C;" d="M131.95,29.027c-3.631-1.737-7.262-3.475-10.892-5.212c0.112-0.56,0.532-0.755,1.025-0.864
		c3.945,1.061,7.372,3.201,10.862,5.212C132.848,28.721,132.444,28.926,131.95,29.027z"/>
	<path style="fill:#346B5C;" d="M98.033,18.773c0.006-0.466,0.012-0.933,0.018-1.399c1.092-0.132,2.143,0.017,3.149,0.466
		l0.418,0.146l0.441-0.019c1.414,0.055,2.833,0.05,4.24,0.184c1.024,0.097,1.783,0.598,1.646,1.824
		C104.641,19.574,101.337,19.174,98.033,18.773z"/>
	<path style="fill:#4E7A6C;" d="M122.083,22.951c-0.492,0.109-0.912,0.304-1.025,0.864c-2.923-1.285-6.536-1.004-8.765-3.862
		C115.771,20.252,119.081,21.097,122.083,22.951z"/>
	<path style="fill:#4E7A6C;" d="M131.95,29.027c0.494-0.101,0.898-0.306,0.994-0.864c2.214,0.786,3.86,2.458,5.797,3.672
		c1.09,0.683,1.019,1.543,0.982,2.521C137.132,32.579,134.541,30.803,131.95,29.027z"/>
	<path style="fill:#346B5C;" d="M90.969,169.206c-0.025,0.41-0.05,0.819-0.075,1.229c-2.959-0.168-5.923-0.272-8.874-0.533
		c-1.221-0.108-2.795,0.064-2.999-1.835C83.004,168.447,86.986,168.827,90.969,169.206z"/>
	<path style="fill:#346B5C;" d="M88.897,17.584c0.023,0.397,0.046,0.793,0.069,1.19c-3.696-0.09-7.224,1.486-10.949,1.103
		c-0.025-0.261-0.025-0.521,0-0.782C81.472,17.358,85.282,18.173,88.897,17.584z"/>
	<path style="fill:#4E7A6C;" d="M135.939,157.81c-0.116-0.561-0.528-0.768-1.033-0.864c1.888-1.395,3.546-3.115,5.745-4.072
		c0.506,0.072,1.012,0.145,1.519,0.217C140.465,155.157,138.244,156.539,135.939,157.81z"/>
	<path style="fill:#4E7A6C;" d="M51.061,30.189c0.112,0.552,0.517,0.755,1.012,0.852c-1.831,1.527-3.459,3.379-6.006,3.763
		C46.584,32.024,49.212,31.529,51.061,30.189z"/>
	<path style="fill:#4E7A6C;" d="M78.017,19.094c-0.025,0.261-0.025,0.521,0,0.782c-1.859,1.157-3.978,1.504-6.066,1.947
		c-0.112-0.552-0.526-0.749-1.013-0.86C73.122,19.679,75.412,18.791,78.017,19.094z"/>
	<path style="fill:#2C5E50;" d="M169.021,88.95c0.1-0.481,0.327-0.845,0.859-0.926c0.085,1.609,0.171,3.219,0.256,4.828
		c0,0.766,0,1.532-0.001,2.298c-0.063,1.281-0.125,2.563-0.188,3.844c-0.408-0.015-0.816-0.031-1.224-0.046
		c0.048-1.268,0.097-2.537,0.145-3.805c0.001-0.763,0.001-1.526,0.002-2.289C168.921,91.553,168.971,90.251,169.021,88.95z"/>
	<path style="fill:#346B5C;" d="M19.047,76.944c-0.217,0.157-0.308,0.367-0.273,0.631c-0.532-0.402-0.297,0.495-0.198-0.162
		C18.602,77.237,18.883,77.099,19.047,76.944z"/>
	<path style="fill:#346B5C;" d="M36.979,143.806c-0.023,0.466-0.046,0.931-0.07,1.397c-0.531-0.173-0.904-0.503-1.048-1.059
		c0.269-0.276,0.538-0.552,0.807-0.829C36.632,143.568,36.736,143.732,36.979,143.806z"/>
	<path style="fill:#4E7A6C;" d="M102.059,17.967l-0.441,0.019L101.2,17.84C101.579,17.253,101.791,17.802,102.059,17.967z"/>
	<path style="fill:#618E80;" d="M18.14,95.17c0.009-0.795,0.018-1.59,0.027-2.384c6.576,0.395,13.154,0.27,19.733,0.07
		c0,0.763,0,1.526,0,2.29C31.314,95.153,24.727,95.162,18.14,95.17z"/>
	<path style="fill:#618E80;" d="M95.109,168.946c-0.737,0.001-1.475,0.002-2.212,0.003c-0.012-6.284-0.024-12.569-0.036-18.853
		c0.761,0.001,1.523,0.002,2.284,0.003C95.133,156.382,95.121,162.664,95.109,168.946z"/>
	<path style="fill:#618E80;" d="M168.871,92.854c-0.001,0.763-0.001,1.526-0.002,2.289c-6.256-0.001-12.511-0.001-18.767-0.002
		c-0.001-0.762-0.002-1.524-0.003-2.286C156.357,92.855,162.614,92.854,168.871,92.854z"/>
	<path style="fill:#618E80;" d="M92.891,19.054c0.74,0,1.479,0,2.219,0c0.003,5.942,0.007,11.883,0.01,17.825l-0.269,0.297
		c-0.568,0-1.137-0.001-1.705-0.001c0,0-0.263-0.299-0.263-0.299C92.885,30.935,92.888,24.994,92.891,19.054z"/>
	<path style="fill:#E7E1DB;" d="M44.052,143.168c-1.127,0.785-1.879,2.11-3.388,2.345c-0.8-0.229-1.331-0.754-1.663-1.501
		c0.126-4.41,0.252-8.82,0.375-13.09c5.407-1.475,6.917-0.838,10.501,4.137c0.41,1.797-0.944,2.789-1.823,3.998
		C46.207,139.928,44.78,141.208,44.052,143.168z"/>
	<path style="fill:#618E80;" d="M69.029,94.949c-9.693-0.018-19.385-0.035-29.078-0.053c0-0.598,0-1.195,0-1.793
		c9.696,0.03,19.391,0.06,29.087,0.09C69.034,93.779,69.031,94.364,69.029,94.949z"/>
	<path style="fill:#4E7A6C;" d="M48.054,139.057c0.879-1.209,2.233-2.201,1.823-3.998c0.404-0.029,0.808-0.058,1.212-0.087
		c2.43-0.865,3.475-3.109,4.93-4.946c2.834-1.645,4.647-4.397,7.048-6.511c1.182-1.041,2.033-2.573,3.898-2.58
		c-1.32,2.181-2.639,4.361-3.959,6.542c-4.886,2.473-7.884,7.072-11.881,10.547c-0.771,0.061-1.13,0.555-1.307,1.241
		C49.229,139.195,48.641,139.126,48.054,139.057z"/>
	<path style="fill:#618E80;" d="M148.049,94.896c-9.638,0.05-19.276,0.1-28.913,0.15c-0.403-0.034-0.806-0.068-1.209-0.101
		c0.024-0.631,0.047-1.261,0.071-1.892c10.017,0.017,20.034,0.034,30.051,0.051C148.049,93.701,148.049,94.299,148.049,94.896z"/>
	<path style="fill:#E7E1DB;" d="M148.043,144.066c-0.022-4.608-0.044-9.216-0.065-13.824c1.724,1.2,0.716,2.95,0.788,4.423
		c0.151,3.074,0.027,6.162,0.016,9.244C148.543,143.996,148.297,144.049,148.043,144.066z"/>
	<path style="fill:#E7E1DB;" d="M142.99,129.002c-0.534,0.502-1.069,1.005-1.722,1.619c-0.536-1.795-0.044-2.673,1.848-2.568
		C143.013,128.361,142.971,128.677,142.99,129.002z"/>
	<path style="fill:#E7E1DB;" d="M146.478,129.806c-1.224,0.023-2.644,0.907-3.477-0.79
		C144.131,129.407,145.483,128.818,146.478,129.806z"/>
	<path style="fill:#B4B7B7;" d="M114.562,148.832c-5.738,0.042-11.477,0.085-17.215,0.125c-0.982,0.007-1.991,0.075-2.616-0.93
		c0,0,0.492-0.033,0.492-0.033c4.89-0.002,9.781,0.024,14.67-0.029c1.051-0.011,2.331,0.536,3.052-0.819
		c1.88-0.08,4.154,0.491,4.942-1.939c0.693-2.137,0.32-4.173-1.948-5.376c-3.343-9.138-6.687-18.277-10.03-27.415
		c1.04-0.566,2.079-1.132,3.119-1.698c2.134,0.404,3.051,2.609,4.958,3.349l-0.057-0.059c0.005,0.689,0.347,1.045,1.041,1.051
		l-0.03-0.03c0.001,0.685,0.344,1.029,1.03,1.03l-0.059-0.02c0.291,1.835,1.406,3.279,2.287,4.835
		c-0.239,0.857,0.095,1.575,0.405,2.371c2.58,6.605,5.095,13.234,7.63,19.857c-1.942,3.235-5.022,4.452-8.572,4.844
		C116.579,148.066,115.327,147.6,114.562,148.832z"/>
	<path style="fill:#727574;" d="M117.927,94.945c0.403,0.034,0.806,0.068,1.209,0.101c0.886,5.788,3.855,10.844,5.706,16.292
		c1.908,5.613,4.986,10.795,6.126,16.687c-1.575,0.245-2.38-0.916-3.303-1.833c-2.816-2.798-5.612-5.618-8.429-8.415
		c-0.923-0.916-1.734-2.083-3.325-1.738l0.059,0.02c-0.006-0.68-0.349-1.024-1.03-1.03l0.03,0.03
		c-0.002-0.693-0.394-0.998-1.041-1.051l0.057,0.059c-0.056-1.706-0.101-3.417-2.161-4.054c0.047-0.75,0.095-1.5,0.142-2.25
		c0.158-1.337-0.461-2.457-0.889-3.669c-1.059-2.995-2.864-5.726-3.216-8.971C111.217,95.064,114.572,95.004,117.927,94.945z"/>
	<path style="fill:#727574;" d="M126.233,143.103c-2.535-6.622-5.05-13.252-7.63-19.857c-0.311-0.796-0.644-1.514-0.405-2.371
		c0.854,0.049,1.583,0.338,2.207,0.964c4.795,4.811,9.596,9.616,14.419,14.398c0.739,0.732,0.994,1.585,1.303,2.556
		c1.189,3.727,2.957,6.953,7.464,7.557c0.796,0.107,1.979,0.424,2.344,1.56c-2.456-0.078-4.885-0.152-7.356-0.447
		C134.041,146.92,130.247,144.82,126.233,143.103z"/>
	<path style="fill:#515453;" d="M126.233,143.103c4.014,1.717,7.808,3.817,12.346,4.359c2.471,0.295,4.9,0.369,7.356,0.447
		c0.009,0.359,0.018,0.719,0.028,1.078c-10.467-0.052-20.934-0.104-31.401-0.155c0.765-1.232,2.017-0.765,3.099-0.885
		C121.21,147.555,124.291,146.338,126.233,143.103z"/>
	<path style="fill:#E7E1DB;" d="M142.219,141.93c1.389,0.028,2.302,0.719,2.789,2.003
		C143.826,143.618,141.734,144.569,142.219,141.93z"/>
	<path style="fill:#E7E1DB;" d="M140.194,139.941c1.253-0.027,1.88,0.584,1.875,1.839
		C140.508,142.122,139.824,141.569,140.194,139.941z"/>
	<path style="fill:#727574;" d="M130.971,128.029c1.13,0.275,1.068,1.128,0.97,1.999
		C130.914,129.704,130.843,128.915,130.971,128.029z"/>
	<path style="fill:#E7E1DB;" d="M139.383,139.033c0.219,0.255,0.438,0.51,0.657,0.766
		C139.446,139.865,139.073,139.742,139.383,139.033z"/>
	<path style="fill:#535655;" d="M93.145,37.174c0.568,0,1.137,0.001,1.705,0.001c0.38,0.614,0.761,1.227,1.141,1.841l-0.003-0.033
		c-1.596,0.833-0.94,2.333-0.952,3.551c-0.069,6.803-0.049,13.607-0.06,20.411c-1.972-0.693-0.014-3.207-1.839-3.969
		c-3.332-6.511-0.515-13.226-0.361-19.85c-0.776-0.081-1.259-0.131-1.743-0.181l0.03-0.055
		C91.757,38.317,92.451,37.746,93.145,37.174z"/>
	<path style="fill:#61897C;" d="M85.073,44.136c1.159-0.492,2.317-0.985,3.531-1.5c0.868-1.091,0.55-2.367,0.377-3.627
		c0.694-0.04,1.387-0.08,2.081-0.12l-0.03,0.055c0.473,2.849-0.374,5.034-3.145,6.251C86.915,44.934,85.632,45.495,85.073,44.136z"
		/>
	<path style="fill:#727574;" d="M63.005,127.477c1.32-2.181,2.639-4.361,3.959-6.542l0.032,0.054
		c1.499,0.095,2.475-0.601,2.998-1.982c0.061-0.322,0.077-0.646,0.049-0.972l-0.008,0.011c0.398,0.079,0.796,0.157,1.194,0.236
		c-1.067,4.69-2.955,9.101-4.59,13.6c-0.839,2.31-2.109,4.541-1.655,7.158c0,0,0.068-0.059,0.068-0.059
		c-0.3,0.212-0.599,0.423-0.899,0.635c-1.935,4.577-1.89,4.729,2.226,7.364c1.226-0.333,2.468-0.671,3.709-1.008
		c2.217-0.52,3.79,0.408,4.594,2.061c6.352,0,12.323,0,18.295,0l0.164,0.298c-1.065,1.172-2.472,0.707-3.739,0.709
		c-5.453,0.009-10.906-0.056-16.359-0.094c-1.027-1.669-2.716-1.026-4.028-0.887c-5.041,0.534-9.311-1.064-13.145-4.178
		C59.741,139.062,61.511,133.329,63.005,127.477z"/>
	<path style="fill:#618E80;" d="M94.73,148.027c-0.529,0.101-1.059,0.202-1.588,0.303l-0.164-0.298
		c-0.045-11.327-0.089-22.654-0.134-33.982c0.097-0.383,0.193-0.766,0.29-1.149c0.604,0.017,1.207,0.035,1.811,0.052
		c0.093,11.68,0.185,23.361,0.278,35.041C95.222,147.994,94.73,148.027,94.73,148.027z"/>
	<path style="fill:#515453;" d="M55.871,143.881c3.834,3.113,8.104,4.712,13.145,4.178c1.312-0.139,3.001-0.782,4.028,0.887
		c-10.004,0.025-20.008,0.05-30.012,0.075c-0.779-2.087,0.79-1.871,1.984-2.024C49.074,147.489,52.493,145.757,55.871,143.881z"/>
	<path style="fill:#E7E1DB;" d="M104.032,39.287c-0.003,0.243-0.017,0.486-0.043,0.728c-2.911,0.241-1.748,2.487-1.99,4.042
		l0.055-0.045c-0.3-0.117-0.601-0.234-0.901-0.351c-3.301,0.011-3.616-2.116-3.341-4.666
		C99.886,39.092,101.959,39.19,104.032,39.287z"/>
	<path style="fill:#346B5C;" d="M97.813,38.995c-0.275,2.55,0.04,4.677,3.341,4.666c-0.06,0.393-0.119,0.786-0.179,1.179
		c-0.588,0.101-1.177,0.203-1.765,0.304c-2.805-1.149-3.581-3.359-3.222-6.162l0.003,0.033
		C96.598,39.009,97.205,39.002,97.813,38.995z"/>
	<path style="fill:#B4B7B7;" d="M55.871,143.881c-3.378,1.876-6.797,3.608-10.855,3.116c0.014-0.339,0.028-0.677,0.042-1.016
		c0.633-0.149,1.267-0.298,1.9-0.447c3.413-1.38,4.37-4.123,4.166-7.509c3.997-3.474,6.995-8.074,11.881-10.547
		C61.511,133.329,59.741,139.062,55.871,143.881z"/>
	<path style="fill:#D9D1CB;" d="M46.958,145.533c-0.633,0.149-1.267,0.298-1.9,0.447c-0.335-0.937-0.671-1.875-1.006-2.812
		c0.728-1.96,2.155-3.24,4.002-4.111c0.588,0.069,1.175,0.138,1.763,0.207c0.264,1.648-0.774,2.73-1.678,3.875
		C47.577,143.852,46.46,144.296,46.958,145.533z"/>
	<path style="fill:#B4B7B7;" d="M69.936,92.88c2.028-5.302,4.056-10.604,6.084-15.906c0.333,0.019,0.665,0.037,0.998,0.056
		l-0.05-0.055c0.025,0.68,0.377,1.032,1.057,1.057l-0.057-0.057c0.025,0.68,0.377,1.032,1.057,1.057l-0.057-0.057
		c0.024,0.68,0.376,1.032,1.057,1.057l-0.057-0.052c0.361,0.665,0.723,1.329,1.084,1.994c-1.356,3.667-2.713,7.333-4.069,11
		C74.634,92.942,72.285,92.911,69.936,92.88z"/>
	<path style="fill:#4E7A6C;" d="M69.936,92.88c2.349,0.031,4.698,0.063,7.047,0.094c0.018,0.89,0.054,1.788-1.076,2.086
		c-2.337,0.023-4.674,0.046-7.011,0.068l0.133-0.179c0.003-0.585,0.006-1.17,0.009-1.755C69.336,93.088,69.636,92.984,69.936,92.88z
		"/>
	<path style="fill:#346B5C;" d="M77.018,77.031c-0.333-0.019-0.665-0.037-0.998-0.056c-2.1-2.232-4.203-4.462-6.298-6.698
		c-0.761-0.811-1.785-1.567-0.729-2.848c2.723,2.484,4.815,5.629,8,7.63C77.015,75.715,77.523,76.366,77.018,77.031z"/>
	<path style="fill:#B4B7B7;" d="M77.018,77.031c0.506-0.664-0.003-1.315-0.026-1.973c2.457-8.324,5.997-16.243,9.13-24.312
		c0.709-1.825,1.428-3.619,1.766-5.55c2.771-1.217,3.617-3.403,3.145-6.251c0.484,0.05,0.968,0.101,1.743,0.181
		c-0.154,6.624-2.971,13.339,0.361,19.85c-0.117,4.361-0.234,8.723-0.35,13.084c-1.952-0.038-2.015-1.83-2.766-2.982
		c0-2.769,0-5.538,0-8.308c-0.22,0.011-0.44,0.022-0.661,0.033c-2.457,6.392-4.915,12.784-7.372,19.175
		c-0.673,0.007-1.346-0.505-2.019,0.001l0.057,0.052c0.248-0.952-0.104-1.305-1.057-1.057l0.057,0.057
		c0.247-0.951-0.105-1.304-1.057-1.057l0.057,0.057c0.246-0.951-0.106-1.303-1.057-1.057L77.018,77.031z"/>
	<path style="fill:#B4B7B7;" d="M68.896,95.128c2.337-0.023,4.674-0.046,7.011-0.068c-0.88,4.128-3.767,7.636-3.719,12.05
		c-3.185,4.082-4.365,8.915-5.192,13.879l-0.032-0.054c-1.864,0.007-2.716,1.539-3.898,2.58c-2.401,2.114-4.214,4.866-7.048,6.511
		c-0.11-3.947,2.141-7.179,3.405-10.676C62.371,111.2,65.713,103.193,68.896,95.128z"/>
	<path style="fill:#346B5C;" d="M46.958,145.533c-0.498-1.237,0.619-1.682,1.181-2.394c0.904-1.144,1.942-2.226,1.678-3.875
		c0.178-0.685,0.537-1.18,1.307-1.241C51.328,141.411,50.371,144.153,46.958,145.533z"/>
	<path style="fill:#727574;" d="M95.988,38.982c-0.359,2.803,0.417,5.013,3.222,6.162c3.713,10.034,7.404,20.077,11.786,29.847
		c0.002,0.323-0.001,0.646-0.009,0.969c-0.811,0.394-1.747,0.698-1.531,1.896c0.937,0.233,1.323-0.181,1.541-0.856
		c0.254-0.035,0.51-0.051,0.767-0.048c0.961,4.029,2.806,7.738,4.195,11.613c0.498,1.389,1.324,2.684,1.301,4.235
		c-3.397,0.093-6.794,0.186-10.191,0.279c-0.356-0.03-0.712-0.06-1.068-0.089c0.355-2.858-1.75-5.071-2.035-7.761
		c0.174-0.435,0.348-0.871,0.522-1.306c0.203-0.439,0.407-0.878,0.607-1.312c-2.913-0.892-2.814-0.934-4.067-3.839
		c-1.98-4.589-2.994-9.603-6.004-13.741c-0.016-0.696-0.031-1.392-0.047-2.088c0.011-6.804-0.008-13.608,0.06-20.411
		C95.048,41.315,94.392,39.816,95.988,38.982z"/>
	<path style="fill:#346B5C;" d="M111.821,74.805c10.508-10.61,21.015-21.222,31.547-31.808c0.122-0.123,0.583,0.09,1.766,0.31
		C134.03,54.297,123.5,65.151,112.577,75.622C112.325,75.35,112.073,75.077,111.821,74.805z"/>
	<path style="fill:#2C5E50;" d="M107.068,93.08c3.397-0.093,6.794-0.186,10.191-0.279c0.268,0.022,0.514,0.106,0.739,0.253
		c-0.024,0.631-0.047,1.261-0.071,1.892c-3.355,0.059-6.711,0.119-10.066,0.178c-0.277-0.073-0.548-0.164-0.813-0.271
		C107.054,94.261,107.061,93.67,107.068,93.08z"/>
	<path style="fill:#4E7A6C;" d="M102,44.057c0.242-1.555-0.921-3.801,1.99-4.042C104.044,41.715,104.057,43.396,102,44.057z"/>
	<path style="fill:#346B5C;" d="M111.763,76.952c-0.257-0.003-0.513,0.013-0.767,0.048c-0.003-0.346-0.006-0.693-0.01-1.039
		c0.008-0.323,0.011-0.646,0.009-0.969c0.263-0.115,0.538-0.177,0.825-0.187c0.252,0.272,0.504,0.545,0.756,0.817
		C112.306,76.065,112.035,76.509,111.763,76.952z"/>
	<path style="fill:#4E7A6C;" d="M100.974,44.84c0.06-0.393,0.119-0.786,0.179-1.179c0.3,0.117,0.601,0.234,0.901,0.351
		C101.91,44.569,101.606,44.918,100.974,44.84z"/>
	<path style="fill:#E7E1DB;" d="M139.555,132.434c-0.216,0.475-0.564,0.513-0.968,0.266c-0.072-0.044-0.136-0.261-0.099-0.3
		C138.846,132.018,139.214,131.957,139.555,132.434z"/>
	<path style="fill:#515453;" d="M105.908,112.416c-3.272-0.356-6.547-0.253-9.823-0.077c-0.705-0.273-1.032-0.042-0.962,0.72
		l-0.179-0.105c-0.604-0.017-1.207-0.035-1.811-0.052c-0.825-1.21-2.086-0.769-3.186-0.786c-4.312-0.067-8.624-0.071-12.936-0.099
		c-0.008-0.335-0.017-0.67-0.025-1.004c0,0,0.025-0.027,0.025-0.027c0.56-0.089,0.884-0.415,0.974-0.974l0.022-0.026
		c1.018-0.302,1.661-0.985,2.004-1.973c0.364-0.017,0.728-0.035,1.091-0.052c3.86-0.061,7.739,0.331,11.679-0.271
		c0.134-1.314,0.247-2.43,0.361-3.545c0.572,0,1.143,0,1.715,0c0.394,1.174-0.354,2.621,1.031,3.793c3.527,0,7.231,0,10.935,0
		c0.446-0.046,0.892-0.092,1.337-0.139l0.016-0.016c-0.115,0.664,0.167,1.061,0.816,1.209l0.014,0.017
		c0.007,0.57,0.014,1.14,0.021,1.71C107.988,111.284,106.948,111.85,105.908,112.416z"/>
	<path style="fill:#2C5E50;" d="M112.945,147.146c-2.079-1.107-2.634-2.838-1.946-4.994c0.8-2.508,3.018-2.129,4.94-2.321
		c2.268,1.204,2.641,3.24,1.948,5.376C117.099,147.637,114.825,147.067,112.945,147.146z M117.01,143.812
		c-0.063-1.279-0.622-2.441-2.169-2.679c-1.582-0.243-2.529,0.711-2.772,2.193c-0.22,1.34,0.539,2.29,1.813,2.561
		C115.382,146.205,116.428,145.489,117.01,143.812z"/>
	<path style="fill:#2C5E50;" d="M109.028,110.718c-0.007-0.57-0.014-1.14-0.021-1.71c0.97,0.248,1.693,1.19,2.818,1.004
		c2.06,0.637,2.105,2.349,2.161,4.054C112.079,113.327,111.162,111.122,109.028,110.718z"/>
	<path style="fill:#2C5E50;" d="M113.929,114.009c0.647,0.053,1.039,0.359,1.041,1.051
		C114.276,115.053,113.934,114.697,113.929,114.009z"/>
	<path style="fill:#2C5E50;" d="M114.94,115.03c0.681,0.006,1.023,0.35,1.03,1.03C115.284,116.059,114.941,115.716,114.94,115.03z"
		/>
	<path style="fill:#B4B7B7;" d="M107.048,94.852c0.265,0.107,0.536,0.197,0.813,0.271c0.352,3.245,2.157,5.976,3.216,8.971
		c0.429,1.212,1.047,2.332,0.889,3.669c-0.977-0.007-1.955-0.013-2.932-0.02c-0.292-0.123-0.578-0.11-0.857,0.039l-0.016,0.016
		c0-0.759-0.344-1.076-1.103-0.859l0.007,0.017c0.172-0.853-0.168-1.193-1.021-1.02l0.023,0.024
		c-0.272-2.239-1.914-3.327-3.645-4.342c-0.344-0.342-0.688-0.684-1.031-1.026c-0.528-1.718-2.796-2.39-2.699-4.484
		C101.176,93.685,104.323,95.674,107.048,94.852z"/>
	<path style="fill:#515453;" d="M109.034,107.743c0.977,0.007,1.955,0.013,2.932,0.02c-0.047,0.75-0.095,1.5-0.142,2.25
		c-1.125,0.185-1.848-0.756-2.818-1.004l-0.014-0.017C109.007,108.576,109.021,108.16,109.034,107.743z"/>
	<path style="fill:#4E7A6C;" d="M94.975,62.944c0.016,0.696,0.031,1.392,0.047,2.088c-0.055,5.624-0.11,11.247-0.166,16.871
		c-1.155-0.503-0.808-1.54-0.853-2.429c-0.046-0.91,0.222-1.919-0.856-2.467c-0.097-0.323-0.194-0.647-0.291-0.97
		c-0.024-1.325-0.047-2.651-0.071-3.976c0.117-4.361,0.234-8.723,0.35-13.084C94.961,59.737,93.003,62.251,94.975,62.944z"/>
	<path style="fill:#D9D1CB;" d="M92.844,114.05c-4.982,0-9.964,0-15.209,0c-3.265,8.355-6.859,16.597-8.96,25.384
		c-1.186-0.546-2.443-0.421-3.691-0.395c-0.455-2.617,0.816-4.848,1.655-7.158c1.634-4.499,3.522-8.91,4.59-13.6l0.061-0.109
		c0.571-0.188,0.705-0.636,0.698-1.169c0.178-0.269,0.244-0.563,0.199-0.883l-0.083,0.03c0.652-0.06,0.967-0.444,1.031-1.07
		l-0.05,0.055c0.634-0.07,0.986-0.42,1.046-1.057l-0.049,0.055c0.637-0.066,0.988-0.416,1.049-1.055l-0.049,0.056
		c0.623-0.062,1.017-0.366,1.077-1.022l-0.018,0.094c0.316,0.053,0.606-0.01,0.872-0.189c4.312,0.028,8.625,0.032,12.936,0.099
		c1.099,0.017,2.361-0.423,3.186,0.786C93.037,113.284,92.941,113.667,92.844,114.05z"/>
	<path style="fill:#535655;" d="M66.996,120.989c0.827-4.964,2.006-9.797,5.192-13.879c0.219,0.008,0.438,0.019,0.657,0.033
		c1.495,1.627,3.475,0.479,5.18,0.907c-0.006,0.645-0.011,1.29-0.017,1.935l-0.022,0.026c-0.566,0.083-0.891,0.408-0.974,0.974
		l-0.025,0.027c-0.648,0.138-0.931,0.536-0.846,1.194l0.018-0.094c-0.703-0.022-1.06,0.321-1.077,1.022l0.049-0.056
		c-0.686,0.017-1.039,0.366-1.049,1.055l0.049-0.055c-0.688,0.017-1.04,0.366-1.046,1.057l0.05-0.055
		c-0.696,0.018-1.046,0.368-1.031,1.07l0.083-0.03c-0.655-0.067-1.048,0.232-1.203,0.862c-0.58,0.119-0.905,0.466-0.949,1.063
		l0.008-0.011c-0.261,0.148-0.522,0.296-0.783,0.445c0.245,0.176,0.489,0.351,0.734,0.527
		C69.471,120.387,68.495,121.084,66.996,120.989z"/>
	<path style="fill:#346B5C;" d="M64.985,139.038c1.247-0.026,2.505-0.15,3.691,0.395c0.078,0.464,0.156,0.929,0.234,1.393
		c-1.843,0.065-4.077-0.758-4.718,2.046c0.944,3.37,3.778,1.658,5.761,2.197c-0.011,0.309,0.034,0.609,0.136,0.9
		c-1.242,0.338-2.483,0.675-3.709,1.008c-4.116-2.635-4.161-2.787-2.226-7.364c0.515,0.094,0.707-0.27,0.899-0.635L64.985,139.038z"
		/>
	<path style="fill:#D9D1CB;" d="M65.052,138.98c-0.192,0.364-0.384,0.728-0.899,0.635C64.453,139.403,64.753,139.191,65.052,138.98z
		"/>
	<path style="fill:#2C5E50;" d="M70.035,118.045c0.045-0.597,0.369-0.944,0.949-1.063c0,0,0.135,0.132,0.135,0.132
		c0.057,0.353,0.114,0.705,0.171,1.058c0,0-0.061,0.109-0.061,0.109C70.831,118.203,70.433,118.124,70.035,118.045z"/>
	<path style="fill:#2C5E50;" d="M69.994,119.006c-0.245-0.176-0.489-0.351-0.734-0.527c0.261-0.148,0.522-0.296,0.783-0.445
		C70.071,118.361,70.055,118.685,69.994,119.006z"/>
	<path style="fill:#727574;" d="M72.845,107.143c-0.219-0.014-0.438-0.025-0.657-0.033c-0.048-4.414,2.839-7.922,3.719-12.05
		c1.13-0.298,1.094-1.196,1.076-2.086c1.356-3.667,2.713-7.333,4.069-11l0.469,0.039l0.47-0.023l0.024,0.021
		c0.667,1.015,1.334,2.03,2,3.046c-0.951,2.618-1.903,5.236-2.854,7.854c-1.222,0.345-1.167,1.293-1.067,2.262
		c-0.674,2.969-2.58,5.627-2.228,8.854C75.292,103.615,73.946,105.181,72.845,107.143z"/>
	<path style="fill:#346B5C;" d="M81.99,81.989l-0.47,0.023l-0.469-0.039c-0.361-0.665-0.723-1.329-1.084-1.994
		c0.673-0.506,1.346,0.006,2.019-0.001C81.988,80.649,81.989,81.319,81.99,81.989z"/>
	<path style="fill:#346B5C;" d="M76.967,76.975c0.951-0.246,1.303,0.107,1.057,1.057C77.345,78.007,76.992,77.655,76.967,76.975z"/>
	<path style="fill:#346B5C;" d="M78.968,78.976c0.953-0.248,1.304,0.105,1.057,1.057C79.344,80.008,78.992,79.656,78.968,78.976z"/>
	<path style="fill:#346B5C;" d="M77.967,77.975c0.952-0.247,1.304,0.106,1.057,1.057C78.345,79.008,77.992,78.655,77.967,77.975z"/>
	<path style="fill:#727574;" d="M81.99,81.989c-0.001-0.67-0.002-1.34-0.003-2.01c2.457-6.392,4.915-12.784,7.372-19.175
		c0.22-0.011,0.44-0.022,0.661-0.033c0,2.769,0,5.538,0,8.308c-2.503,4.367-3.468,9.313-5.256,13.949
		c-0.874-0.454-1.578-1.369-2.75-1.016L81.99,81.989z"/>
	<path style="fill:#D9D1CB;" d="M84.764,83.027c1.787-4.636,2.752-9.583,5.256-13.949c0.751,1.152,0.814,2.944,2.766,2.982
		c0.024,1.325,0.047,2.651,0.071,3.976c-0.625,0.055-1.447-0.085-1.647,0.68c-0.847,3.241-2.834,6.079-3.306,9.446
		C86.608,85.367,85.592,84.291,84.764,83.027z"/>
	<path style="fill:#B4B7B7;" d="M94.857,81.903c0.055-5.624,0.11-11.247,0.166-16.871c3.01,4.138,4.024,9.152,6.004,13.741
		c1.253,2.904,1.154,2.947,4.067,3.839c-0.201,0.433-0.404,0.872-0.607,1.312c-0.49-0.374-1.001-0.407-1.534-0.096
		c-0.853,0.501-1.512,1.088-0.973,2.203l0.053-0.055c-0.952-0.247-1.304,0.105-1.057,1.057l0.057-0.057
		c-0.952-0.247-1.304,0.105-1.057,1.057l0.058-0.052c-1.437-0.764-1.89,0.88-2.891,1.182c-0.352-1.823-0.861-3.582-2.043-5.07
		C95.019,83.362,94.938,82.633,94.857,81.903z"/>
	<path style="fill:#B4B7B7;" d="M103.964,85.229c0.285,2.69,2.39,4.903,2.035,7.761c-2.979-0.389-6.175,1.046-8.951-1.059
		c0.474-1.711,2.667-2.123,2.985-3.951l-0.058,0.052c0.68-0.025,1.032-0.377,1.057-1.057l-0.057,0.057
		c0.68-0.025,1.032-0.377,1.057-1.057l-0.053,0.055c0.564,0.059,0.94-0.172,1.109-0.721l0.432-0.116L103.964,85.229z"/>
	<path style="fill:#4E7A6C;" d="M97.049,91.932c2.776,2.105,5.972,0.67,8.951,1.059c0.356,0.03,0.712,0.06,1.068,0.089
		c-0.007,0.591-0.013,1.182-0.02,1.773c-2.725,0.822-5.872-1.167-8.356,1.254c-0.927,0-1.855,0-2.782,0
		c0.42-1.212-0.56-2.036-0.846-3.053C95.899,92.987,96.785,93.009,97.049,91.932z"/>
	<path style="fill:#2C5E50;" d="M110.987,75.961c0.003,0.346,0.006,0.693,0.01,1.039c-0.218,0.675-0.604,1.089-1.541,0.856
		C109.24,76.659,110.176,76.355,110.987,75.961z"/>
	<path style="fill:#2C5E50;" d="M103.964,85.229c0,0-0.445-0.036-0.445-0.036l-0.432,0.116c-0.045-0.494-0.09-0.988-0.135-1.482
		c0.533-0.311,1.044-0.278,1.534,0.096C104.312,84.358,104.138,84.794,103.964,85.229z"/>
	<path style="fill:#B4B7B7;" d="M95.124,113.059c-0.07-0.762,0.257-0.993,0.962-0.72C95.765,112.579,95.444,112.819,95.124,113.059z
		"/>
	<path style="fill:#7F8281;" d="M106.824,107.937c-3.704,0-7.409,0-10.935,0c-1.385-1.172-0.637-2.618-1.031-3.793l0.312-0.301
		c2.326-0.193,4.835,1.059,6.939-0.88c1.62,0.601,2.048,2.779,3.959,2.996l-0.023-0.024c-0.016,0.696,0.323,1.038,1.021,1.02
		l-0.007-0.017C106.98,107.272,106.902,107.604,106.824,107.937z"/>
	<path style="fill:#7F8281;" d="M93.142,104.144c-0.113,1.115-0.227,2.231-0.361,3.545c-3.94,0.601-7.819,0.209-11.679,0.271
		c-0.042-0.324-0.072-0.648-0.089-0.974l-0.031,0.032c0.618-0.072,0.962-0.417,1.034-1.034l-0.032,0.036
		c1.085-0.259,1.695-1.027,2.127-1.986c0.383-0.027,0.765-0.054,1.148-0.081c2.513-0.047,5.027-0.093,7.54-0.14L93.142,104.144z"/>
	<path style="fill:#618E80;" d="M94.857,104.144c-0.572,0-1.143,0-1.715,0l-0.341-0.332c0.034-2.521,0.067-5.042,0.101-7.563
		c0.054-0.3,0.092-0.602,0.114-0.906c0.954-0.341,1.733-0.275,2.042,0.88c0.037,2.54,0.074,5.08,0.111,7.619L94.857,104.144z"/>
	<path style="fill:#2C5E50;" d="M78.007,109.985c0.006-0.645,0.011-1.29,0.017-1.935c0.581-0.109,1.162-0.218,1.743-0.327
		l0.244,0.29C79.669,109,79.026,109.683,78.007,109.985z"/>
	<path style="fill:#2C5E50;" d="M76.14,112.205c-0.084-0.658,0.198-1.055,0.846-1.194c0.008,0.335,0.017,0.67,0.025,1.004
		C76.746,112.195,76.456,112.258,76.14,112.205z"/>
	<path style="fill:#2C5E50;" d="M77.011,110.984c0.083-0.566,0.408-0.891,0.974-0.974C77.895,110.57,77.571,110.895,77.011,110.984z
		"/>
	<path style="fill:#2C5E50;" d="M109.034,107.743c-0.014,0.416-0.027,0.832-0.041,1.248c-0.649-0.148-0.931-0.545-0.816-1.209
		C108.457,107.633,108.742,107.62,109.034,107.743z"/>
	<path style="fill:#2C5E50;" d="M106.824,107.937c0.078-0.333,0.156-0.665,0.234-0.998c0.76-0.217,1.104,0.1,1.103,0.859
		C107.716,107.844,107.27,107.891,106.824,107.937z"/>
	<path style="fill:#2C5E50;" d="M81.014,106.986c0.017,0.326,0.047,0.651,0.089,0.974c-0.364,0.017-0.728,0.035-1.091,0.052
		l-0.244-0.29C80.058,107.266,80.404,106.902,81.014,106.986z"/>
	<path style="fill:#2C5E50;" d="M95.91,96.107c0.927,0,1.855,0,2.782,0c-0.097,2.095,2.171,2.766,2.699,4.484
		c-0.187,0.199-0.377,0.393-0.572,0.584c-1.919-1.405-3.597-3.049-4.975-4.992L95.91,96.107z"/>
	<path style="fill:#2C5E50;" d="M106.067,105.959c-1.911-0.217-2.338-2.395-3.959-2.996c-0.179-0.234-0.277-0.498-0.295-0.792
		c0.202-0.186,0.405-0.371,0.609-0.555C104.152,102.632,105.795,103.72,106.067,105.959z"/>
	<path style="fill:#2C5E50;" d="M107.065,106.956c-0.698,0.017-1.037-0.324-1.021-1.02
		C106.897,105.763,107.237,106.103,107.065,106.956z"/>
	<path style="fill:#2C5E50;" d="M101.391,100.591c0.344,0.342,0.688,0.684,1.031,1.026c-0.204,0.184-0.407,0.369-0.609,0.555
		c-0.53-0.134-0.859-0.469-0.994-0.997C101.013,100.984,101.204,100.79,101.391,100.591z"/>
	<path style="fill:#618E80;" d="M92.99,90.976c0.053-4.657,0.105-9.314,0.158-13.97c1.078,0.548,0.811,1.557,0.856,2.467
		c0.045,0.889-0.302,1.926,0.853,2.429c0.081,0.73,0.162,1.46,0.243,2.19c-0.03,2.294-0.06,4.588-0.09,6.883
		c0.03,0.325,0.021,0.649-0.024,0.972c-0.655,0.006-1.309,0.012-1.964,0.018C92.974,91.637,92.963,91.307,92.99,90.976z"/>
	<path style="fill:#D9D1CB;" d="M69.953,145.07c-1.983-0.539-4.817,1.173-5.761-2.197c0.64-2.804,2.875-1.981,4.718-2.046
		c-0.248,0.707-0.497,1.415-0.757,2.158c0.171,1.047,1.03,0.888,1.771,0.941l0.155,0.136
		C70.036,144.398,69.995,144.734,69.953,145.07z"/>
	<path style="fill:#D9D1CB;" d="M69.923,143.926c0.086-0.573-0.039-1.224,0.619-1.604c0.753,0.824,0.329,1.329-0.464,1.74
		L69.923,143.926z"/>
	<path style="fill:#2C5E50;" d="M73.085,115.135c0.007-0.691,0.359-1.04,1.046-1.057C74.07,114.715,73.719,115.065,73.085,115.135z"
		/>
	<path style="fill:#2C5E50;" d="M70.984,116.983c0.156-0.63,0.548-0.929,1.203-0.862c0.045,0.319-0.021,0.614-0.199,0.883
		c-0.292,0.022-0.581,0.059-0.869,0.111L70.984,116.983z"/>
	<path style="fill:#2C5E50;" d="M74.082,114.132c0.01-0.689,0.362-1.038,1.049-1.055C75.069,113.716,74.718,114.066,74.082,114.132z
		"/>
	<path style="fill:#2C5E50;" d="M75.081,113.133c0.017-0.701,0.374-1.044,1.077-1.022C76.098,112.767,75.704,113.071,75.081,113.133
		z"/>
	<path style="fill:#727574;" d="M71.119,117.114c0.288-0.052,0.577-0.089,0.869-0.111c0.006,0.532-0.127,0.981-0.698,1.169
		C71.233,117.82,71.176,117.467,71.119,117.114z"/>
	<path style="fill:#2C5E50;" d="M72.104,116.151c-0.015-0.702,0.335-1.053,1.031-1.07C73.071,115.707,72.756,116.091,72.104,116.151
		z"/>
	<path style="fill:#7F8281;" d="M81.014,106.986c-0.61-0.084-0.956,0.28-1.247,0.736c-0.581,0.109-1.162,0.218-1.743,0.327
		c-1.705-0.428-3.685,0.721-5.18-0.907c1.101-1.961,2.447-3.528,5.021-3.117c1.407,0.038,2.814,0.075,4.221,0.113
		c-0.033,0.627-0.067,1.254-0.1,1.881l0.032-0.036c-0.703-0.013-1.048,0.331-1.034,1.034L81.014,106.986z"/>
	<path style="fill:#D9D1CB;" d="M82.086,104.138c-1.407-0.038-2.814-0.075-4.221-0.113c-0.353-3.227,1.553-5.886,2.228-8.854
		c1.319-0.003,2.637-0.005,3.956-0.008c0.179,1.94-0.9,3.461-1.68,5.086c-0.559,1.165-0.681,2.237,0.786,2.857
		c-0.074,0.287-0.157,0.572-0.249,0.854C82.626,103.988,82.353,104.047,82.086,104.138z"/>
	<path style="fill:#D9D1CB;" d="M81.16,92.91c0.951-2.618,1.903-5.236,2.854-7.854c1.33,0.639,2.277,1.667,2.988,2.936
		c-0.998,1.507-1.147,3.184-0.986,4.923C84.398,92.914,82.779,92.912,81.16,92.91z"/>
	<path style="fill:#61897C;" d="M81.16,92.91c1.619,0.002,3.238,0.004,4.857,0.006c1.913-0.008,3.827-0.015,5.74-0.023
		c0.293,0.055,0.589,0.08,0.887,0.075c0.293,0.843-0.645,1.279-0.666,2.019c-0.328,0.044-0.657,0.052-0.986,0.022
		c-2.314,0.052-4.629,0.104-6.943,0.155c-1.319,0.003-2.637,0.005-3.956,0.008C79.993,94.203,79.938,93.255,81.16,92.91z"/>
	<path style="fill:#346B5C;" d="M87.003,87.992c-0.711-1.269-1.659-2.297-2.988-2.936c-0.667-1.015-1.334-2.03-2-3.046
		c1.172-0.353,1.876,0.562,2.75,1.016c0.828,1.264,1.844,2.34,3.14,3.136c1.525,1.784,2.877,3.752,5.086,4.814
		c-0.027,0.331-0.016,0.66,0.032,0.989l-0.072,0.064c-0.392,0.046-0.785,0.092-1.177,0.138
		C90.183,90.775,88.593,89.384,87.003,87.992z"/>
	<path style="fill:#346B5C;" d="M94.986,91.947c0.046-0.323,0.054-0.647,0.024-0.972c1.103-0.142,1.593-1.007,2.132-1.812
		c1.001-0.302,1.454-1.946,2.891-1.182c-0.319,1.828-2.511,2.241-2.985,3.951c-0.264,1.078-1.15,1.055-1.985,1.122
		C95.038,92.685,95.012,92.316,94.986,91.947z"/>
	<path style="fill:#346B5C;" d="M102.952,83.827c0.045,0.494,0.09,0.988,0.135,1.482c-0.169,0.549-0.544,0.78-1.109,0.721
		C101.44,84.915,102.1,84.328,102.952,83.827z"/>
	<path style="fill:#346B5C;" d="M102.032,85.975c-0.025,0.68-0.377,1.032-1.057,1.057C100.728,86.08,101.08,85.728,102.032,85.975z"
		/>
	<path style="fill:#346B5C;" d="M101.032,86.975c-0.025,0.68-0.377,1.032-1.057,1.057C99.728,87.08,100.08,86.728,101.032,86.975z"
		/>
	<path style="fill:#2C5E50;" d="M94.986,91.947c0.026,0.369,0.052,0.738,0.078,1.106c0.286,1.017,1.266,1.841,0.846,3.053
		l-0.066,0.076c-0.264-0.028-0.525-0.014-0.785,0.041c-0.31-1.155-1.088-1.221-2.042-0.88c-0.332-0.104-0.665-0.209-0.997-0.313
		l-0.04-0.044c0.021-0.739,0.96-1.176,0.666-2.019c0.133-0.303,0.235-0.616,0.306-0.939l0.072-0.064
		C93.677,91.959,94.331,91.953,94.986,91.947z"/>
	<path style="fill:#E7E1DB;" d="M95.058,96.224c0.259-0.055,0.521-0.069,0.785-0.041c1.379,1.943,3.057,3.587,4.975,4.992
		c0.135,0.528,0.464,0.863,0.994,0.997c0.018,0.294,0.116,0.558,0.295,0.792c-2.104,1.939-4.613,0.686-6.939,0.88
		C95.132,101.303,95.095,98.764,95.058,96.224z"/>
	<path style="fill:#346B5C;" d="M92.155,96.226c-2.035,2.81-5.178,4.631-6.894,7.726c-0.383,0.027-0.765,0.054-1.148,0.081
		c-0.402-0.024-0.804-0.048-1.206-0.072c0.092-0.282,0.175-0.567,0.249-0.854c2.826-2.492,5.742-4.898,7.837-8.098
		c0.33,0.03,0.658,0.023,0.986-0.022l0.04,0.044C92.064,95.429,92.11,95.828,92.155,96.226z"/>
	<path style="fill:#2C5E50;" d="M82.907,103.961c0.402,0.024,0.804,0.048,1.206,0.072c-0.432,0.959-1.042,1.727-2.127,1.986
		c0.033-0.627,0.067-1.254,0.1-1.881C82.353,104.047,82.626,103.988,82.907,103.961z"/>
	<path style="fill:#2C5E50;" d="M80.984,107.018c-0.014-0.703,0.332-1.048,1.034-1.034
		C81.946,106.601,81.601,106.946,80.984,107.018z"/>
	<path style="fill:#61897C;" d="M92.155,96.226c-0.046-0.399-0.091-0.797-0.137-1.196c0.332,0.104,0.665,0.209,0.997,0.313
		c-0.022,0.304-0.06,0.606-0.114,0.906l-0.372-0.052L92.155,96.226z"/>
	<path style="fill:#618E80;" d="M91.757,92.893c0.049-0.241,0.055-0.483,0.016-0.726c0.392-0.046,0.785-0.092,1.177-0.138
		c-0.071,0.323-0.173,0.636-0.306,0.939C92.346,92.973,92.05,92.948,91.757,92.893z"/>
</g>
</svg>
