<?xml version="1.0" encoding="iso-8859-1"?>
<!-- Generator: Adobe Illustrator 27.0.0, SVG Export Plug-In . SVG Version: 6.00 Build 0)  -->
<svg version="1.1" id="Layer_1" xmlns="http://www.w3.org/2000/svg" xmlns:xlink="http://www.w3.org/1999/xlink" x="0px" y="0px"
	 viewBox="0 0 1630 347" style="enable-background:new 0 0 1630 347;" xml:space="preserve">
<g>
	<path style="fill:#2D996A;" d="M1454,0c0.401,1.672-0.673,2.848-1.411,4.123c-23.299,40.293-46.599,80.585-69.914,120.869
		c-3.578,6.183-7.229,12.323-10.906,18.585c-21.222,1.911-42.368,0.751-63.985,1.211c-7.205,12.445-14.495,25.039-22.027,38.049
		c21.111,0.508,41.657,1.002,63.061,1.516c-18.584,32.283-36.863,64.036-55.337,96.129c2.041,0.97,3.848,0.621,5.556,0.623
		c65.997,0.083,131.997-0.255,197.989,0.356c38.151,0.354,76.307,0.093,114.453,0.872c2.972,0.061,5.936,0.463,9.711,0.772
		c-11.282,20.15-22.344,39.908-33.485,59.807c-132.022,0-263.972,0-396.521,0c19.185-33.421,38.218-66.575,57.447-100.072
		c-3.45-1.53-6.511-1.697-9.617-1.711c-15.996-0.073-31.993-0.159-47.989-0.269c-1.297-0.009-2.652,0.33-4.449-0.715
		c18.589-32.741,37.351-65.372,56.253-97.672c21.371-0.832,42.359,0.065,63.182-1.162c1.6-0.75,2.198-2.178,2.935-3.458
		c14.342-24.924,28.647-49.868,43.005-74.782c11.62-20.162,23.298-40.291,34.96-60.429c0.331-0.572,0.776-1.077,1.168-1.614
		c2.94-0.638,6.165,1.202,8.922-1.028c0.667,0,1.333,0,2,0c3.333,1.584,6.667,1.581,10,0C1424,0,1439,0,1454,0z"/>
	<path style="fill:#2D996A;" d="M0,339c2.33-5.345,2.654-11.169,3.857-16.77c3.763-17.513,7.435-35.052,10.716-52.66
		c4.466-23.968,9.879-47.74,14.499-71.674c0.283-1.465,0.716-2.902,1.081-4.358c1.183-0.914,2.567-0.521,3.859-0.522
		c27.32-0.023,54.64,0.034,81.959-0.059c5.863-0.02,10.398,3.232,15.158,5.707c14.143,7.353,21.082,19.668,23.03,35.132
		c0.166,1.315,0.221,2.642,1.388,3.725c3.11-14.803,6.198-29.503,9.29-44.224c0.956-0.126,1.603-0.286,2.248-0.286
		c27.819,0.029,55.638,0.073,83.457,0.114c12.734,0.019,23.793,4.103,32.637,13.503c6.485,6.892,10.311,14.983,10.981,24.501
		c0.204,2.905,0.774,5.774,0.488,9.262c2.12-1.763,2.503-3.62,3.323-5.197c8.248-15.878,19.703-28.74,35.374-37.615
		c9.385-5.315,19.605-8.334,30.234-9.35c11.243-1.075,22.492-0.897,33.704,1.536c21.669,4.703,36.045,17.452,43.774,38.048
		c6.633,17.675,5.852,35.398,0.969,53.337c-7.157,26.297-23.177,45.239-47.208,57.498c-10.202,5.204-21.349,7.152-32.771,7.456
		c-4.369,0.01-8.737,0.021-13.106,0.031c-12.601-0.601-24.107-4.686-34.507-11.608c-9.42-6.271-16.987-14.252-21.406-25.01
		c-4.882-11.885-5.579-24.167-4.525-36.726c0.401-4.778,0.741-9.562,1.156-14.957c-2.191,2.927-3.836,5.422-5.776,7.663
		c-7.258,8.38-16.864,12.702-27.319,15.472c-1.264,0.335-2.675,0.272-3.573,1.753c7.847,19.737,15.731,39.568,23.654,59.498
		c-4.915,1.066-41.52,0.751-50.739-0.328c-8.953-25.051-17.971-50.282-26.988-75.513c-7.2,25.435-11.431,51.118-17.192,76.781
		c-15.629-0.257-31.036,0.507-47.184-0.722c4.788-26.338,10.34-51.917,15.166-77.635c-1.978,2.575-3.651,5.24-5.434,7.828
		c-6.185,8.977-14.056,15.904-24.343,19.865c-6.778,2.61-13.936,3.097-21.052,3.406c-12.796,0.555-25.608,0.749-38.413,1.103
		c-0.983,0.027-1.964,0.121-3.523,0.22c-3.144,15.22-6.28,30.404-9.453,45.767c-11.198,0-22.165,0.13-33.127-0.06
		C9.577,342.849,4.704,343.54,0,342C0,341,0,340,0,339z M396.998,253.015c0.314-3.735-0.434-7.354-1.192-10.915
		c-2.18-10.245-9.753-16.683-19.786-17.31c-11.463-0.716-19.904,4.389-26.078,13.586c-10.277,15.309-13.199,32.48-11.739,50.483
		c0.519,6.398,3.009,12.196,8.948,15.928c10.412,6.542,24.88,4.958,33.368-5.223C391.773,286.066,396.035,270.12,396.998,253.015z
		 M204.993,230.316c-1.887,9.523-4.198,18.782-5.128,28.503c2.282,0.409,4.055,0.949,5.844,1.009
		c8.828,0.297,17.588-0.382,26.326-1.738c7.157-1.111,12.455-8.42,12.949-14.616c0.629-7.895-3.398-12.848-11.329-13.091
		C224.349,230.098,215.027,230.316,204.993,230.316z M64.925,257.426c10.316,2.329,19.882,1.262,29.417,0.22
		c5.081-0.555,9.088-3.082,11.268-7.899c1.323-2.924,1.548-6.065,1.404-9.254c-0.236-5.225-3.081-8.695-8.308-9.578
		c-9.372-1.584-18.793-0.45-28.256-0.842C68.487,239.431,66.148,248.17,64.925,257.426z"/>
	<path style="fill:#2E996A;" d="M1630,185c-5.634,9.549-11.255,19.105-16.906,28.644c-4.742,8.005-9.496,16.003-14.308,23.965
		c-0.57,0.943-0.897,2.237-2.302,2.487c-3.337-2.58-30.651-48.194-33.402-55.99c22.4-0.449,44.659-0.222,66.918-0.107
		C1630,184.333,1630,184.667,1630,185z"/>
	<path style="fill:#CDDDD1;" d="M672.049,346.169c-0.031,0.276-0.047,0.553-0.049,0.831c-6,0-12,0-18,0
		c0.003-0.281-0.013-0.56-0.048-0.839C659.984,346.164,666.017,346.167,672.049,346.169z"/>
	<path style="fill:#B6D0BE;" d="M821.045,346.08c-0.105,0.302-0.12,0.609-0.045,0.92c-5.333,0-10.667,0-16,0
		c0.055-0.305,0.038-0.607-0.052-0.904C810.313,346.091,815.679,346.086,821.045,346.08z"/>
	<path style="fill:#BCD4C3;" d="M349,347c0.025-0.291,0.006-0.58-0.059-0.865c4.369-0.01,8.737-0.021,13.106-0.031
		c-0.082,0.295-0.098,0.594-0.047,0.896C357.667,347,353.333,347,349,347z"/>
	<path style="fill:#69AA86;" d="M1409,0c-3.333,1.581-6.667,1.584-10,0C1402.333,0,1405.667,0,1409,0z"/>
	<path style="fill:#69AA86;" d="M1397,0c-2.756,2.23-5.982,0.39-8.922,1.028c-0.026-0.343-0.052-0.685-0.078-1.028
		C1391,0,1394,0,1397,0z"/>
	<path style="fill:#2E996A;" d="M821.045,346.08c-5.366,0.005-10.731,0.011-16.097,0.016c-28.668-3.239-51.802-23.792-56.957-52.614
		c-3.576-19.992,0.428-38.959,8.8-57.202c6.965-15.177,17.061-27.664,31.053-36.943c9.19-6.095,19.419-9.346,30.144-11.094
		c12.245-1.996,24.537-2.037,36.68,0.827c13.531,3.191,25.77,8.748,34.869,19.828c1.976,2.406,3.155,5.468,6.213,7.609
		c3.109-7.821,3.389-16.035,5.612-24.089c42.621,0,85.358,0,128.282,0c-0.946,5.217-1.851,10.214-2.901,16.005
		c2.689-2.289,4.712-3.98,6.701-5.71c10.72-9.327,23.561-13.204,37.37-14.798c9.311-1.075,18.58-1.132,27.869,0.078
		c13.016,1.695,24.89,5.946,34.175,15.672c6.525,6.835,10.139,15.135,11.083,24.504c0.309,3.071,1.562,6.122,0.631,9.494
		c-14.339,0-28.617,0-43.048,0c-1.647-1.486-1.749-3.791-2.344-5.778c-1.601-5.356-5.133-8.548-10.472-9.479
		c-5.432-0.947-10.933-1.039-16.312,0.61c-2.084,0.639-4.038,1.572-5.656,3.061c-4.276,3.935-3.77,9.04,1.297,11.899
		c5.248,2.961,11.073,4.418,16.82,6.042c7.657,2.164,15.385,4.102,22.812,7.007c8.336,3.26,15.656,7.882,21.425,14.948
		c5.345,6.545,6.915,14.141,7.641,22.225c1.296,14.433-3.885,26.121-13.692,36.53c-9.932,10.541-22.143,16.274-35.953,18.98
		c-18.105,3.547-35.992,2.622-53.497-3.641c-15.983-5.718-26.858-16.134-30.922-32.994c-1.372-5.691-1.85-11.434-1.368-17.82
		c16.125-0.376,32.136,0.107,48.265,0.823c0.332,2.564,0.576,4.851,0.931,7.121c1.029,6.588,4.962,10.375,11.463,11.379
		c5.787,0.894,11.593,1.022,17.32-0.577c2.293-0.64,4.28-1.777,5.926-3.511c3.917-4.126,4.283-10.118-1.532-13.437
		c-4.086-2.332-8.472-3.736-12.917-5.103c-9.029-2.777-18.302-4.779-26.938-8.804c-5.02-2.339-9.656-5.229-13.844-8.795
		c-7.82-6.656-11.084-15.537-11.967-25.478c-0.395-4.451-0.066-8.913,0.34-13.911c-11.733,0.276-23.146-0.608-34.949,1.173
		c-7.758,37.664-15.479,75.146-23.177,112.514c-13.419,1.332-43.726,0.626-48.43-1.251c7.123-36.995,15.466-73.846,22.196-110.966
		c-4.199-1.513-24.489-2.082-33.098-0.967c-0.361,7.003,0.615,14.104-0.192,21.402c-15.494,0-30.741,0-46.153,0
		c-0.832-2.282-0.353-4.628-0.451-6.902c-0.507-11.69-8.031-18.971-19.75-19.099c-7.501-0.082-14.599,1.153-20.583,6.082
		c-4.466,3.679-7.232,8.607-9.855,13.651c-7.225,13.893-8.957,28.771-7.71,44.091c0.795,9.773,7.545,18.422,20.679,19.082
		c15.007,0.754,22.127-4.241,27.763-15.81c1.23-2.525,2.415-5.071,3.735-7.846c16.111,0.128,32.174-0.301,48.411,0.386
		C887.089,317.744,861.51,344.021,821.045,346.08z"/>
	<path style="fill:#2D996A;" d="M971.711,175.013c-30.351,0-60.16,0-90.389,0c-1.454-7.971-2.902-15.905-4.389-24.054
		c-17.312,0-34.398,0-51.655,0c-4.491,8.057-8.924,16.009-13.408,24.054c-16.44-0.126-32.664,0.305-50.02-0.502
		c30.414-51.28,60.08-101.432,90.473-151.512c5.745,0,11.563-0.016,17.38,0.004c7.665,0.025,15.329,0.077,22.994,0.12
		c2,0.011,4.029-0.069,6.028,1.952c8.696,44.837,16.837,90.293,26.405,135.514c11.119-45.054,19.234-90.586,29.126-135.461
		c1.351-1.692,2.993-1.96,4.683-1.986c13.329-0.207,26.658-0.31,39.984,0.159c1.01,0.036,1.986,0.12,3.408,1.34
		C992.322,74.439,982.095,124.586,971.711,175.013z M872.323,115.826c-2.405-12.69-3.768-24.804-6.917-37.774
		c-7.705,12.691-14.491,24.668-21.168,37.65C853.982,116.311,862.71,116.29,872.323,115.826z"/>
	<path style="fill:#2D996A;" d="M434.886,342.378c10.237-49.612,20.459-99.152,30.764-149.095c1.668-0.35,3.404-1.027,5.141-1.03
		c21.823-0.038,43.648-0.124,65.468,0.117c10.856,0.12,21.451,1.923,31.389,6.752c15.449,7.506,24.946,19.786,28.208,36.425
		c3.649,18.61,0.649,36.72-6.246,54.226c-5.142,13.056-12.631,24.593-23.524,33.562c-11.49,9.46-24.522,15.836-39.457,17.709
		c-11.739,1.472-23.565,1.609-35.373,1.754c-17.492,0.214-34.987,0.244-52.481,0.319
		C437.654,343.121,436.45,343.474,434.886,342.378z M506.744,228.922c-2.592,12.619-5.244,24.907-7.614,37.249
		c-2.36,12.285-5.406,24.448-7.375,36.842c1.204,0.405,1.822,0.792,2.441,0.794c6.326,0.017,12.672,0.271,18.972-0.146
		c5.589-0.37,11.132-1.072,16.1-4.444c8.155-5.535,12.636-13.439,15.69-22.422c3.494-10.276,3.544-20.908,3.067-31.57
		c-0.326-7.283-6.346-13.898-13.578-15.129C525.365,228.553,516.217,229.417,506.744,228.922z"/>
	<path style="fill:#2E996A;" d="M1106.561,113.451c7.226,20.626,16.308,39.864,22.979,59.783c-0.927,1.755-2.391,1.591-3.665,1.588
		c-14.991-0.031-29.983-0.11-44.974-0.2c-0.476-0.003-0.95-0.267-1.738-0.502c-8.992-25.113-17.269-50.666-27.61-75.636
		c-6.7,25.203-10.925,50.882-16.8,76.643c-15.487-0.062-30.9,0.327-45.949-0.872c-1.477-1.788-0.91-3.337-0.63-4.721
		c4.776-23.575,9.609-47.138,14.441-70.702c4.466-21.777,8.935-43.553,13.431-65.323c0.699-3.385,1.547-6.74,2.306-10.02
		c1.628-0.809,3.15-0.475,4.612-0.474c22.661,0.018,45.324-0.13,67.981,0.202c9.604,0.141,19.294,0.556,28.537,3.831
		c11.195,3.966,19.34,11.375,24.877,21.815c3.68,6.939,3.713,14.427,3.251,21.91c-1.151,18.637-11.208,31.08-27.67,38.874
		c-2.549,1.207-5.18,2.167-8.065,2.417C1110.271,112.202,1108.712,112.868,1106.561,113.451z M1090.524,60.895
		c-10.794,0.36-21.403,0.714-32.252,1.076c-2.042,9.199-4.148,18.158-5.407,27.101c0.693,0.442,0.957,0.752,1.244,0.774
		c9.981,0.777,20.003,0.976,29.94-0.031c8.89-0.901,14.932-9.07,14.001-17.63C1097.516,67.263,1094.152,64.28,1090.524,60.895z"/>
	<path style="fill:#2E996A;" d="M672.049,346.169c-6.033-0.003-12.065-0.005-18.098-0.008c-12.26-0.848-23.907-3.8-34.613-10.026
		c-12.181-7.084-19.808-17.533-22.778-31.26c-1.542-7.125-0.347-14.295,0.845-21.33c4.823-28.477,11.526-56.569,17.663-84.776
		c0.351-1.615,0.851-3.198,1.269-4.753c1.539-1.289,3.276-1.686,5.154-1.712c13.816-0.187,27.638-0.683,41.426,0.701
		c0.292,0.029,0.558,0.314,1.186,0.689c-1.148,5.842-2.29,11.83-3.506,17.804c-4.8,23.575-9.63,47.144-14.424,70.72
		c-0.43,2.114-0.751,4.255-1.014,6.397c-1.055,8.621,2.81,17.172,13.847,18.107c3.974,0.337,8.01,0.446,11.984,0.169
		c7.508-0.523,15.066-6.919,16.87-14.255c5.071-20.622,9.724-41.341,14.133-62.114c2.615-12.319,5.183-24.648,7.871-37.445
		c15.98-1.285,31.975-1.564,48.174-0.053c0.362,5.76-1.369,10.667-2.442,15.622c-5.796,26.751-11.797,53.457-17.645,80.197
		c-2.46,11.249-5.38,22.246-12.613,31.608c-10.806,13.987-24.909,22.13-42.385,24.621
		C679.326,345.589,675.702,345.978,672.049,346.169z"/>
	<path style="fill:#2C996A;" d="M1515.567,184.102c11.093,18.91,21.996,37.496,33.467,57.05
		c-61.971-0.191-122.918,0.358-184.898-0.403c11.055-19.455,22.083-37.897,32.893-56.647
		C1436.527,184.102,1475.927,184.102,1515.567,184.102z"/>
	<path style="fill:#319A6B;" d="M1420.172,143.82c11.478-21.271,23.246-41.255,35.271-61.183
		c3.769,3.182,33.011,51.922,36.789,61.226C1468.379,145.232,1444.758,144.949,1420.172,143.82z"/>
</g>
</svg>
