<?xml version="1.0" encoding="iso-8859-1"?>
<!-- Generator: Adobe Illustrator 27.0.0, SVG Export Plug-In . SVG Version: 6.00 Build 0)  -->
<svg version="1.1" id="Layer_1" xmlns="http://www.w3.org/2000/svg" xmlns:xlink="http://www.w3.org/1999/xlink" x="0px" y="0px"
	 viewBox="0 0 1531 315.476" style="enable-background:new 0 0 1531 315.476;" xml:space="preserve">
<g>
	<path style="fill:#060505;" d="M0,285c1.627-1.199,1.505-3.177,1.913-4.807c10.501-41.994,20.883-84.017,31.361-126.017
		c10.525-42.192,21.325-84.318,31.591-126.573C68.243,13.7,79.211,5.213,93.276,5.097c13.332-0.11,26.666-0.024,39.999-0.024
		c10.167,0,20.333-0.001,30.5,0c4.888,0.001,9.598,0.889,14.057,2.927c7.221,3.3,12.138,8.674,14.111,16.414
		c6.398,25.102,12.706,50.227,19.033,75.346c13.354,53.016,26.697,106.034,40.056,159.049c0.075,0.296,0.309,0.552,0.595,1.045
		c13.793,0,27.712,0,41.611,0c0.885-1.929,0.455-3.781,0.456-5.566c0.027-73.166,0.026-146.332,0.017-219.498
		c-0.001-5.18,0.154-10.303,2.823-14.985c5.194-9.114,13.129-13.816,23.471-14.657c1.326-0.108,2.665-0.073,3.998-0.073
		C367,5.072,410,5.087,452.999,5.05c4.378-0.004,8.616,0.51,12.755,1.973c9.756,3.448,17.448,14.095,17.366,24.407
		c-0.301,37.831-0.095,75.665-0.164,113.498c-0.006,3.092,0.659,5.755,2.198,8.456c19.394,34.038,38.7,68.126,58.034,102.198
		c0.813,1.433,1.684,2.834,2.57,4.32c8.399,0,16.676,0,25.487,0c0-1.9,0-3.673,0-5.446c0-73.333,0.01-146.665-0.016-219.998
		c-0.002-6.835,1.267-13.242,5.677-18.678c5.314-6.551,12.273-10.007,20.659-10.625c1.162-0.086,2.332-0.08,3.498-0.08
		c43.5-0.003,86.999,0.003,130.499-0.008c6.833-0.002,13.209,1.49,18.7,5.739c6.368,4.928,10.127,11.34,10.615,19.488
		c0.099,1.661,0.05,3.332,0.05,4.999c0.002,36.5,0.007,72.999-0.011,109.499c-0.001,2.349,0.244,4.484,1.494,6.656
		c20.534,35.701,41.504,71.155,60.886,107.623c61.742,0,123.379,0,185.188,0c1.2-1.483,0.554-3.385,0.556-5.119
		c0.042-47.666,0.053-95.332,0.004-142.998c-0.005-4.738,0.602-9.255,2.671-13.566c6.14-12.794,22.461-17.747,33.909-13.725
		c12.483,4.386,20.566,17.991,20.511,28.952c-0.285,56.831-0.393,113.667,0.022,170.496c0.13,17.745-13.752,28.87-28.88,28.854
		c-75.666-0.082-151.332-0.006-226.998-0.072c-11.38-0.01-20.189-5.033-25.826-15.008c-24.288-42.972-48.475-86.001-72.782-128.963
		c-2.742-4.847-3.419-9.987-3.421-15.352c-0.007-29.833-0.004-59.666-0.004-89.499c0-1.827,0-3.653,0-5.812
		c-26.871,0-53.62,0-80.51,0c-0.956,1.587-0.421,3.464-0.422,5.234c-0.033,73.166-0.029,146.332-0.028,219.498
		c0,5.166-0.058,10.291-2.683,15.018c-5.538,9.973-14.218,14.667-25.355,14.871c-11.329,0.207-22.666,0.047-33.999,0.047
		c-11,0-22,0.072-32.999-0.021c-11.765-0.1-20.738-5.145-26.573-15.486c-23.605-41.832-47.117-83.716-70.909-125.442
		c-3.357-5.888-4.879-11.735-4.841-18.435c0.167-29.999,0.073-59.999,0.073-89.999c0-1.652,0-3.304,0-5.286
		c-26.896,0-53.632,0-80.651,0c-1.02,1.389-0.384,3.282-0.385,5.021c-0.04,73.499-0.036,146.998-0.029,220.498
		c0,2.834-0.375,5.612-0.719,8.425c-1.189,9.737-11.041,19.235-21.55,20.779c-3.288,0.483-6.587,0.817-9.942,0.81
		c-28.166-0.063-56.333-0.084-84.499-0.014c-11.889,0.03-20.813-4.945-26.731-15.233c-2.442-4.244-3.097-9.103-4.244-13.752
		c-18.452-74.797-36.829-149.613-55.223-224.424c-0.274-1.115-0.481-2.26-1.384-3.299c-9.877,0-19.849,0-30.242,0
		c-1.782,6.969-3.615,13.994-5.375,21.037c-18.048,72.231-36.093,144.462-54.118,216.698c-3.789,15.185-16.574,22.133-27.968,21.647
		c-7.171-0.306-13.373-1.831-18.682-6.74c-3.137-2.901-5.288-6.33-6.723-10.331C1.127,297.248,1.683,295.574,0,295
		C0,291.667,0,288.333,0,285z"/>
	<path style="fill:#070606;" d="M1530.217,49.113c-2.554,13.194-5.076,26.395-7.669,39.581
		c-4.162,21.163-8.393,42.313-12.557,63.476c-4.164,21.168-8.26,42.35-12.423,63.518c-4.519,22.973-9.074,45.94-13.635,68.905
		c-0.549,2.763-1.055,5.555-1.891,8.236c-3.825,12.26-12.994,19.639-25.745,19.827c-19.995,0.294-40.001,0.31-59.995-0.006
		c-14.143-0.223-24.061-9.34-27.061-24.056c-8.458-41.494-16.85-83.001-25.297-124.498c-6.993-34.351-14.024-68.695-21.055-103.038
		c-0.198-0.966-0.579-1.895-0.896-2.908c-2.133-0.787-4.25-0.204-6.621-0.405c-2.186,10.632-4.332,21.018-6.455,31.408
		c-6.79,33.222-13.575,66.446-20.357,99.67c-5.546,27.166-11.088,54.332-16.625,81.5c-1.392,6.829-2.665,13.683-4.153,20.49
		c-2.801,12.817-12.879,21.579-26.236,21.815c-20.159,0.355-40.334,0.356-60.493-0.008c-13.407-0.242-23.369-8.976-25.994-21.944
		c-6.418-31.706-12.693-63.441-19.09-95.152c-5.872-29.108-11.862-58.192-17.734-87.301c-3.182-15.778-6.22-31.584-9.344-47.374
		c-0.225-1.139-0.623-2.243-1.02-3.646c-69.136,0-138.375,0-208.113,0c0,1.832,0,3.611,0,5.389c0,46.832-0.018,93.664,0.038,140.496
		c0.004,3.36-0.336,6.667-0.915,9.929c-1.183,6.659-5.415,11.525-10.763,15.022c-16.948,11.083-37.88,2.267-42.749-15.103
		c-0.486-1.734-0.576-3.625-0.577-5.443c-0.031-59.164-0.053-118.328-0.014-177.493c0.009-12.86,9.44-21.843,19.756-24.505
		c3.375-0.871,6.86-1.255,10.372-1.255c84.498,0.005,168.995,0.006,253.493-0.002c4.371,0,8.634,0.51,12.701,2.219
		c9.845,4.138,14.655,12.114,16.69,22.104c11.779,57.799,23.515,115.606,35.276,173.408c3.645,17.914,7.32,35.821,10.993,53.729
		c0.23,1.122,0.429,2.275,1.335,3.368c4.185,0,8.488,0,13.239,0c1.457-6.978,2.959-14.089,4.425-21.207
		c5.225-25.375,10.448-50.751,15.652-76.131c5.132-25.025,10.21-50.062,15.367-75.082c4.253-20.632,8.716-41.221,12.833-61.879
		c2.162-10.851,13.621-19.587,22.788-20.196c1.827-0.121,3.655-0.311,5.483-0.313c15.833-0.025,31.666,0.025,47.499-0.032
		c7.068-0.025,13.522,1.726,19.06,6.212c4.807,3.893,8.003,8.884,9.234,14.974c3.714,18.381,7.348,36.779,11.02,55.169
		c5.466,27.377,10.935,54.753,16.407,82.128c5.833,29.183,11.67,58.366,17.508,87.548c0.619,3.095,1.256,6.186,1.93,9.5
		c4.688,0.61,9.266,0.217,14.034,0.288c2.442-11.965,4.833-23.657,7.215-35.351c5.137-25.222,10.266-50.445,15.402-75.666
		c4.866-23.892,9.739-47.783,14.606-71.674c3.709-18.205,7.338-36.427,11.151-54.61c2.644-12.612,9.991-19.534,22.733-21.846
		c0.542-0.098,0.858-0.396,1.02-0.898c1.667,0,3.333,0,5,0c0.167,0.491,0.447,0.88,1.011,0.891
		c8.625,0.177,15.291,3.89,20.033,11.082C1530.102,24.353,1530.159,36.733,1530.217,49.113z"/>
	<path style="fill:#A7A4A4;" d="M1530.044,11.973c0.318,0.016,0.637,0.025,0.956,0.027c0,12.333,0,24.667,0,37l-0.374,0.181
		l-0.41-0.068C1530.159,36.733,1530.102,24.353,1530.044,11.973z"/>
</g>
</svg>
