<?xml version="1.0" encoding="iso-8859-1"?>
<!-- Generator: Adobe Illustrator 27.0.0, SVG Export Plug-In . SVG Version: 6.00 Build 0)  -->
<svg version="1.1" id="Layer_1" xmlns="http://www.w3.org/2000/svg" xmlns:xlink="http://www.w3.org/1999/xlink" x="0px" y="0px"
	 viewBox="0 0 1569 630" style="enable-background:new 0 0 1569 630;" xml:space="preserve">
<g>
	<path style="fill:#D4822A;" d="M1569,510c-1.433-0.697-2.955-0.299-4.426-0.299c-519.276-0.021-1038.553-0.02-1557.829-0.05
		c-1.937,0-3.984,0.601-5.823-0.577c0.027-2.98,0.072-5.961,0.079-8.941c0.048-19.376,0.087-38.751,0.129-58.127
		c522.267-0.001,1044.535-0.002,1566.802-0.003c0.023,1.82,0.066,3.639,0.067,5.459c0.007,19.031-0.019,38.061,0.062,57.091
		c0.006,1.468-1.031,3.33,0.939,4.446C1569,509.333,1569,509.667,1569,510z"/>
	<path style="fill:#F9C890;" d="M0,326C0,217.333,0,108.667,0,0c521.5,0,1043,0,1564.5,0c2.96,0,2.96,0,4.5,1
		c-0.367,0.04-0.734,0.08-1.1,0.119c-2.164-0.039-4.329-0.111-6.493-0.111C1043.817,1.003,526.227,1.003,8.637,1.003
		c-1.166,0-2.338-0.067-3.498,0.018C3.863,1.115,2.473,0.577,1.3,1.616C0.738,3.221,1.029,4.892,1.027,6.528
		C1,24.692,0.992,42.856,1.009,61.02c0.016,17.329,0.068,34.658,0.105,51.987c-0.038,18.909-0.103,37.818-0.106,56.727
		c-0.003,15.757,0.066,31.514,0.103,47.27c-0.038,9.164-0.096,18.328-0.112,27.492c-0.045,27.163-0.074,54.326-0.109,81.488
		C0.593,325.985,0.297,325.991,0,326z"/>
	<path style="fill:#34353B;" d="M230,630c-2.097-1.601-4.821-1.845-6.992-3.408c-5.791-4.171-8.51-10.181-9.746-16.796
		c-1.645-8.802-0.637-17.267,3.287-25.631c5.068-10.804,19.669-17.805,31.679-8.382c0.64,0.502,1.235,1.135,2.533,1.102
		c-1.042-9.712-0.574-19.42-0.702-29.346c3.297-0.784,6.343-0.406,9.626-0.366c0,27.262,0,54.154,0,81.29
		c-2.338,0.853-4.76,0.318-7.058,0.422c-1.28-1.908-0.173-4.204-1.86-6.067c-3.274,2.93-7.31,4.594-10.767,7.182
		C236.667,630,233.333,630,230,630z M249.994,585.438c-1.163-1.003-2.205-2.09-3.422-2.918c-6.041-4.11-14.524-3.41-18.677,1.471
		c-7.343,8.632-7.854,24.059-1.093,33.039c3.41,4.529,8.259,6.054,13.685,4.433c4.012-1.199,6.902-3.831,9.507-6.972
		C249.994,604.98,249.994,595.496,249.994,585.438z"/>
	<path style="fill:#34353B;" d="M84,630c-0.17-0.255-0.307-0.702-0.515-0.738c-12.289-2.103-19.033-10.314-22.612-21.374
		c-3.95-12.205-3.83-24.568,1.189-36.522c6.338-15.097,21.827-22.627,37.11-18.398c5.154,1.426,9.08,4.649,12.765,8.354
		c-1.252,2.34-3.22,3.858-4.801,5.763c-1.636-0.51-2.653-1.621-3.791-2.517c-10.803-8.507-24.679-2.852-30.264,5.332
		c-2.579,3.779-3.857,8.007-4.496,12.52c-1.038,7.333-0.917,14.566,1.111,21.729c4.549,16.072,19.636,22.089,34.305,13.407
		c0-6.274,0-12.71,0-19.435c-4.701-0.904-9.509-0.006-14.507-0.555c-0.953-2.309-0.34-4.748-0.491-7.477c7.927,0,15.638,0,23.637,0
		c0,10.427,0,20.857,0,31.667c-3.635,3.61-8.326,5.903-13.55,7.23C98.311,629.183,97.4,629.049,97,630C92.667,630,88.333,630,84,630
		z"/>
	<path style="fill:#32333A;" d="M428,630c-0.059-0.155-0.083-0.418-0.183-0.451c-11.84-3.896-15.847-13.184-16.727-24.507
		c-0.387-4.979-0.34-10.008,1.044-14.859c2.82-9.883,8.919-16.459,19.274-18.599c3.925-0.811,7.603,0.024,11.093,1.712
		c2.066,0.999,3.966,2.343,6.636,3.95c-0.395-10.338-0.49-20.162-0.305-30.291c3.07-0.294,5.809-0.299,8.821,0.018
		c0,27.205,0,54.251,0,81.538c-2.219,0.781-4.487,0.334-6.569,0.275c-1.729-1.449-0.383-3.789-2.254-5.387
		c-3.543,2.16-7.186,4.38-10.829,6.601C434.667,630,431.333,630,428,630z M448.636,614.494c0-10.005,0-19.63,0-29.154
		c-2.066-2.542-4.852-3.702-7.565-4.903c-4.884-2.163-9.315-1.328-13.403,2.118c-2.35,1.981-4.324,4.28-5.245,7.124
		c-2.75,8.494-2.697,17.046,1.033,25.234c2.778,6.097,9.589,8.559,15.979,6.392C443.193,620.031,446.021,617.561,448.636,614.494z"
		/>
	<path style="fill:#32333A;" d="M1536,630c-0.046-0.16-0.057-0.436-0.144-0.464c-10.955-3.397-14.925-11.816-15.848-22.284
		c-0.526-5.968-0.813-12.012,1.109-17.806c3.006-9.061,8.492-15.647,18.359-17.75c4.139-0.882,7.916-0.212,11.516,1.82
		c1.861,1.051,3.65,2.228,6.055,3.706c-0.119-10.179-0.577-19.88-0.123-29.751c3.036-0.721,5.937-0.319,9.077-0.292
		c0,27.271,0,54.189,0,81.261c-2.379,1.027-4.796,0.166-6.996,0.481c-1.233-2.06-0.586-4.007-1.273-6.003
		c-2.414,0.485-3.543,2.765-5.429,3.888c-1.773,1.056-3.536,2.128-5.304,3.193C1543.333,630,1539.667,630,1536,630z
		 M1556.631,614.432c0-9.613,0-19.223,0-28.603c-1.028-1.931-2.593-2.922-4.154-3.836c-5.639-3.304-13.315-2.748-17.144,1.162
		c-9.05,9.242-8.035,26.359-2.226,33.681c3.945,4.973,9.001,6.527,14.967,4.25C1551.595,619.743,1554.289,617.373,1556.631,614.432z
		"/>
	<path style="fill:#34353B;" d="M144,630c-0.039-0.162-0.043-0.447-0.122-0.469c-11.337-3.195-16.534-11.617-18.353-22.406
		c-1.568-9.299-0.105-18.177,5.605-26.092c8.986-12.455,27.421-12.96,36.926-0.847c6.042,7.7,7.636,16.447,6.541,25.85
		c-0.642,5.517-2.547,10.615-6.015,15.079c-2.83,3.643-6.169,6.492-10.701,7.755c-0.711,0.198-1.746-0.059-1.882,1.129
		C152,630,148,630,144,630z M134.874,600.521c-0.162,6.197,0.773,12.015,4.913,16.833c5.755,6.698,15.831,6.29,21.065-0.789
		c6.139-8.303,5.708-24.327-0.869-32.271c-5.613-6.78-14.506-6.745-20.09,0.077C136.02,589.104,134.734,594.639,134.874,600.521z"/>
	<path style="fill:#32333A;" d="M744,630c-0.2-0.244-0.363-0.652-0.607-0.708c-10.658-2.414-15.856-10.199-17.885-19.901
		c-1.926-9.206-1.33-18.431,4.099-26.891c9.284-14.469,29.627-14.972,39.646-0.145c6.815,10.085,7.461,31.624-4.004,42.021
		c-3.062,2.777-6.835,3.76-10.249,5.624C751.333,630,747.667,630,744,630z M734.092,601.113c0.287,4.319,0.748,8.747,2.873,12.825
		c2.665,5.115,6.659,8.17,12.608,8.131c5.95-0.039,9.808-3.234,12.467-8.31c1.818-3.471,2.476-7.267,2.622-11.021
		c0.241-6.171-0.508-12.277-4.464-17.439c-5.837-7.616-16.539-7.335-21.951,0.566C735.135,590.41,734.293,595.596,734.092,601.113z"
		/>
	<path style="fill:#34353B;" d="M307,630c0.024-0.925-0.719-0.883-1.315-1.083c-12.143-4.072-11.935-22.152-2.46-28.088
		c6.079-3.808,12.638-5.741,19.577-6.782c1.956-0.293,3.919-0.468,5.895-1.303c0.233-3.015-0.828-5.681-1.825-8.238
		c-1.686-4.321-6.777-6.136-12.319-4.874c-2.145,0.489-4.047,1.479-5.973,2.435c-1.929,0.958-3.798,2.038-5.962,3.211
		c-1.904-1.541-2.592-3.882-3.917-6.242c7.526-5.526,15.349-8.78,24.711-7.352c6.472,0.987,10.411,4.731,12.53,10.69
		c1.175,3.306,1.915,6.736,1.939,10.232c0.081,11.496,0.034,22.993,0.016,34.49c-0.001,0.463-0.209,0.926-0.384,1.647
		c-2.145,0.267-4.247,0.29-6.262-0.003c-1.68-1.728-0.603-4.01-1.648-5.989c-4.199,2.415-8.401,4.832-12.603,7.248
		C313.667,630,310.333,630,307,630z M328.752,599.959c-6.136,0.834-11.978,1.769-17.451,4.123
		c-4.385,1.886-6.559,6.617-5.618,11.509c0.897,4.662,3.673,6.99,8.65,7.156c2.195,0.073,4.227-0.577,6.15-1.635
		c3.052-1.68,6.009-3.477,8.27-6.11C328.752,610.013,328.752,605.096,328.752,599.959z"/>
	<path style="fill:#34353B;" d="M1091,630c0.066-0.948-0.72-0.833-1.276-1.082c-5.995-2.696-9.383-7.283-9.614-13.902
		c-0.229-6.565,2.676-11.491,8.374-14.753c5.989-3.429,12.585-5.005,19.292-6.175c1.635-0.285,3.271-0.482,5.025-1.193
		c0.624-3.341-0.68-6.425-2.082-9.349c-1.161-2.421-3.656-3.329-6.218-3.537c-3.664-0.298-7.303-0.207-10.696,1.589
		c-2.457,1.301-4.979,2.482-7.543,3.752c-1.672-1.816-2.585-3.883-3.605-6.363c7.698-4.95,15.422-8.969,25.048-7.253
		c7.283,1.298,11.212,5.77,13.279,12.501c1.197,3.897,1.145,7.901,1.204,11.863c0.151,10.148,0.054,20.299,0.039,30.449
		c-0.001,0.633-0.149,1.265-0.257,2.124c-2.234,0-4.33,0-6.528,0c-1.257-1.59-1.044-3.71-1.933-6.063
		c-3.953,3.002-8.354,4.97-12.51,7.391C1097.667,630,1094.333,630,1091,630z M1112.898,599.756
		c-4.467,0.881-8.393,1.526-12.247,2.465c-2.231,0.543-4.437,1.325-6.418,2.6c-4.506,2.9-6.258,7.92-4.316,12.488
		c1.829,4.302,6.428,6.156,11.703,4.947c4.59-1.052,7.707-4.31,11.278-6.828C1112.898,610.279,1112.898,605.341,1112.898,599.756z"
		/>
	<path style="fill:#36373D;" d="M614,630c-4.673-1.983-9.457-3.661-13.117-7.536c-3.929-4.159-6.026-9.001-6.916-14.579
		c-1.013-6.349-0.782-12.611,1.031-18.737c2.791-9.431,9.237-15.176,18.737-17.361c8.45-1.944,18.416,2.171,22.27,11.756
		c2.417,6.011,2.349,12.303,2.837,19.206c-6.171,0.373-12.102,0.118-18.016,0.166c-5.812,0.048-11.625,0.01-17.844,0.01
		c-0.239,6.841,2.177,12.282,7.379,16.049c7.457,5.4,15.06,3.315,22.718-0.879c1.142,1.857,2.237,3.636,3.436,5.586
		c-2.986,2.886-6.669,3.933-10.189,5.267c-0.588,0.223-1.327,0.132-1.326,1.051C621.333,630,617.667,630,614,630z M630.625,595.845
		c-0.191-1.859-0.323-3.47-0.529-5.071c-0.738-5.753-4.629-10.594-9.372-11.701c-5.622-1.312-11.426,1.013-14.769,5.928
		c-2.18,3.205-3.331,6.778-3.947,10.844C611.605,595.845,621.011,595.845,630.625,595.845z"/>
	<path style="fill:#34353B;" d="M1485,630c-0.204-0.239-0.365-0.618-0.62-0.697c-11.828-3.667-18.538-12.206-19.459-24.706
		c-0.433-5.874-0.175-11.676,2.193-17.145c3.408-7.873,8.785-13.642,17.552-15.513c8.496-1.813,15.299,0.661,20.572,7.697
		c3.514,4.688,6.319,14.603,4.156,23.542c-11.537,0-23.153,0-34.701,0c-1.218,5.73,1.805,13.331,6.915,16.538
		c7.843,4.923,15.498,3.564,22.895-1.458c1.909,1.524,1.951,4.102,3.407,5.855c-1.752,2.322-4.245,2.848-6.508,3.81
		c-1.779,0.756-3.912,0.587-5.403,2.076C1492.333,630,1488.667,630,1485,630z M1474.167,595.774c9.204,0,18.404,0,27.606,0
		c-0.198-12.83-6-16.195-12.251-16.513C1482.372,578.897,1474.253,586.104,1474.167,595.774z"/>
	<path style="fill:#34353B;" d="M1011,630c-0.052-0.158-0.076-0.438-0.16-0.457c-13.252-3.058-20.032-17.847-19.198-30.665
		c0.533-8.195,2.957-15.31,8.846-21.011c5.754-5.57,12.646-7.685,20.594-5.904c4.043,0.906,7.338,2.937,9.92,6.196
		c3.852,4.861,5.792,10.4,5.992,16.559c0.086,2.63,0.014,5.265,0.014,8.366c-12.103,0-23.837,0-36.047,0
		c-0.142,7.234,2.188,12.984,7.697,16.683c7.734,5.192,15.485,3.304,22.827-1.67c1.489,1.969,2.438,4.032,2.957,6.322
		c-3.195,3.254-7.861,3.312-11.442,5.583C1019,630,1015,630,1011,630z M1028.927,595.912c-0.438-2.794-0.596-5.118-1.188-7.326
		c-1.665-6.208-5.862-9.439-11.823-9.353c-8.091,0.117-15.221,8.308-14.442,16.678
		C1010.387,595.912,1019.306,595.912,1028.927,595.912z"/>
	<path style="fill:#34353B;" d="M799,630c-5.174-2.32-9.173-5.768-10.641-11.479c-0.534-2.079-1.041-4.239-1.057-6.366
		c-0.097-12.797-0.048-25.596-0.048-38.654c3.095-0.885,6.15-0.218,9.667-0.413c0,2.224,0,4.014,0,5.804
		c0,9.657-0.004,19.314,0.003,28.971c0.001,1.995-0.034,3.985,0.441,5.957c1.957,8.119,9.022,10.876,16.039,6.188
		c2.929-1.957,5.343-4.468,7.568-7.613c0-12.704,0-25.673,0-38.829c2.877-0.891,5.62-0.385,8.651-0.381c0,18.471,0,36.713,0,55.218
		c-2.002,1.18-4.309,0.143-6.272,0.566c-2.139-2.513-0.569-5.544-2.315-8.209c-3.878,3.883-7.799,7.547-13.035,9.24
		C805,630,802,630,799,630z"/>
	<path style="fill:#32333A;" d="M1174,630c-4.352-2.183-9.167-3.587-12.722-7.7c0.817-2.192,2.465-3.95,4.122-5.801
		c4.294,2.822,8.469,5.513,13.598,6.138c2.539,0.309,5.005,0.102,7.351-0.792c3.279-1.249,4.911-3.969,5.298-7.267
		c0.363-3.093-1.152-5.4-3.919-6.905c-3.497-1.902-6.962-3.852-10.755-5.138c-3.018-1.023-5.702-2.617-8.084-4.756
		c-4.372-3.926-5.924-8.687-4.34-14.375c1.66-5.96,5.613-9.768,11.517-11.27c8.474-2.155,16.051-0.252,22.805,5.937
		c-1.355,1.856-2.243,3.988-4.299,5.473c-2.901-1.566-5.617-3.436-8.994-3.984c-2.363-0.383-4.593-0.411-6.882,0.227
		c-3.734,1.04-5.256,2.575-5.67,6.031c-0.394,3.291,0.757,5.686,3.801,7.388c3.5,1.956,7.131,3.527,10.916,4.761
		c3.746,1.221,6.537,3.65,9.357,6.319c6.61,6.256,3.904,18.24-4.084,22.561c-2.25,1.217-4.674,2.111-7.018,3.153
		C1182,630,1178,630,1174,630z"/>
	<path style="fill:#34353B;" d="M856,630c-4.938-1.781-9.898-3.523-13.687-7.714c0.848-2.115,2.444-3.774,3.961-5.796
		c4.31,2.56,8.366,5.417,13.429,6.083c2.542,0.334,4.99,0.203,7.364-0.602c3.527-1.196,5.255-3.978,5.648-7.494
		c0.352-3.144-1.291-5.324-4.014-6.836c-3.77-2.093-7.58-4.101-11.653-5.534c-2.721-0.957-4.955-2.575-7.126-4.429
		c-4.385-3.745-5.84-8.446-4.455-13.876c1.506-5.902,5.334-9.924,11.237-11.589c8.718-2.459,16.174,0.471,23.306,5.744
		c-1.359,1.972-2.557,3.71-3.74,5.428c-2.2-0.066-3.509-1.438-5.071-2.238c-4.021-2.06-8.22-2.593-12.535-1.146
		c-2.492,0.836-4.37,2.456-4.813,5.21c-0.479,2.973,0.107,5.54,2.796,7.439c1.927,1.361,4.021,2.317,6.173,3.164
		c3.547,1.397,7.04,2.869,10.431,4.642c6.724,3.516,8.707,9.17,7.703,16.238c-0.916,6.448-4.878,10.302-10.888,12.26
		c-0.762,0.248-1.675,0.102-2.067,1.048C864,630,860,630,856,630z"/>
	<path style="fill:#36373D;" d="M1060,630c-0.001-0.166,0.04-0.464-0.01-0.481c-6.454-2.095-8.6-7.139-9.053-13.291
		c-0.71-9.639-0.127-19.296-0.334-28.943c-0.042-1.953,0.34-3.945-0.341-5.876c-2.443-0.92-5.009,0.073-7.635-0.715
		c-0.725-1.994-0.268-4.113-0.336-6.196c2.603-1.858,5.627-0.785,8.631-1.806c0.289-4.947,0.586-10.026,0.892-15.274
		c2.589-0.537,4.988-0.417,7.717-0.095c0,5.107,0,10.053,0,15.303c4.821,0.975,9.47,0.046,14.294,0.643
		c1.083,2.276,0.347,4.724,0.613,7.68c-4.975,0-9.695,0-14.662,0c0,11.017-0.139,21.473,0.046,31.923
		c0.136,7.655,2.678,9.781,10.202,9.173c1.126-0.091,2.228-0.479,3.401-0.744c1.243,1.998,1.737,4.194,1.673,6.307
		c-0.797,2.108-3.372,0.514-4.099,2.389C1067.333,630,1063.667,630,1060,630z"/>
	<path style="fill:#34353B;" d="M1445,630c-9.841-3.704-10.451-12.272-10.683-20.807c-0.249-9.157-0.056-18.326-0.056-27.509
		c-2.158-1.467-4.639-0.065-7.024-1.041c0-2.014,0-4.11,0-6.318c2.18-1.616,5.051-0.589,7.586-1.602
		c0.799-5.055,1.203-10.129,1.352-15.415c2.642,0,4.908,0,7.482,0c0.878,4.996-0.025,10.133,0.532,15.59c4.46,0,8.877,0,13.44,0
		c1.018,2.716,0.497,5.149,0.546,7.746c-4.552,0.855-9.041,0.031-13.468,0.482c-1.161,0.878-0.667,2.144-0.672,3.236
		c-0.041,8.665-0.019,17.33-0.026,25.995c-0.002,1.837,0.118,3.645,0.547,5.451c1.171,4.931,2.502,6.115,7.467,6.258
		c1.968,0.057,3.971,0.235,6.145-1.174c0.668,2.513,1.236,4.655,1.719,6.472c-1.227,2.277-3.849,0.792-4.887,2.636
		C1451.667,630,1448.333,630,1445,630z"/>
	<path style="fill:#34353B;" d="M667,630c-0.023-0.575-0.388-0.784-0.89-0.95c-9.675-3.197-15.788-9.744-17.528-19.787
		c-1.558-8.993-1.011-17.787,3.697-26.074c5.788-10.186,23.88-17.785,36.712-5.375c-1.066,2.125-2.548,4.007-4.504,5.753
		c-0.732-0.38-1.561-0.621-2.142-1.14c-8.153-7.273-21.609-1.363-23.941,9.635c-1.318,6.214-1.532,12.497,0.518,18.649
		c3.695,11.087,14.197,14.643,23.796,8.11c1.073-0.73,1.919-1.883,3.613-1.98c1.492,1.633,2.327,3.721,3.287,5.794
		c-3.225,3.757-7.564,5.339-11.619,7.364C674.333,630,670.667,630,667,630z"/>
	<path style="fill:#32333A;" d="M194,630c-3.728-2.712-5.07-6.397-5.052-10.958c0.093-23.13,0.042-46.26,0.049-69.39
		c0-0.65,0.08-1.3,0.14-2.231c2.776-0.663,5.508-0.186,8.751-0.338c0,24.927,0,49.474,0,73.026c1.204,2.25,2.609,1.72,3.679,2.243
		c1.239,2.376,1.428,4.994,1.432,7.648C200,630,197,630,194,630z"/>
	<path style="fill:#32333A;" d="M1145,630c-3.898-2.162-6.161-5.332-6.16-9.922c0.004-24.119,0.002-48.237,0.002-72.499
		c3.02-0.957,5.933-0.324,9.384-0.494c0,24.918,0,49.46,0,74.001c1.166,1.6,3.099,0.45,4.217,2.022
		c0.635,1.946,0.829,4.392,0.556,6.892C1150.333,630,1147.667,630,1145,630z"/>
	<path style="fill:#E6AB6C;" d="M1567.9,1.119c0.367-0.04,0.734-0.08,1.1-0.119c0,169.333,0,338.667,0,508
		c-1.97-1.117-0.932-2.978-0.939-4.446c-0.081-19.03-0.055-38.061-0.062-57.091c-0.001-1.82-0.043-3.639-0.067-5.459
		c0-34,0-68,0.001-101.999c0-40.665-0.001-81.33-0.001-121.994c0-34.666,0-69.333,0-103.999
		C1567.922,76.38,1567.911,38.75,1567.9,1.119z"/>
	<path style="fill:#E6B888;" d="M0,326c0.297-0.009,0.593-0.015,0.89-0.016c0.08,4.341,0.159,8.682,0.239,13.023
		c-0.04,19.074-0.107,38.148-0.11,57.223c-0.003,15.259,0.072,30.517,0.112,45.776c-0.042,19.376-0.082,38.751-0.129,58.127
		c-0.007,2.98-0.052,5.961-0.079,8.941c0,0-0.467,0.036-0.467,0.036L0,509C0,448,0,387,0,326z"/>
	<path style="fill:#36373D;" d="M916.756,553.921c3.561-0.58,7.174-0.341,11.093-0.09c6.25,18.105,12.499,36.207,18.747,54.309
		c6.5-18.1,12.678-36.149,18.891-54.219c3.817-0.578,7.431-0.266,11.241-0.16c0,25.089,0,49.852,0,74.89c-2.776,0-5.38,0-8.634,0
		c-0.036-4.896-0.088-9.982-0.107-15.069c-0.019-5-0.004-10-0.004-15c0.001-5.167-0.13-10.337,0.041-15.498
		c0.164-4.97,0.639-9.93,0.254-15.076c-6.143,17.607-12.285,35.215-18.422,52.805c-2.247,0-4.197,0-6.295,0
		c-6.355-18.251-12.665-36.37-18.974-54.488c1.007,20.658,0.09,41.25,0.368,61.978c-2.699,1.111-5.327,0.489-7.88,0.539
		C916.074,625.368,915.797,560.188,916.756,553.921z"/>
	<path style="fill:#32333A;" d="M1356.892,588.009c0,13.483,0,26.805,0,40.314c-2.951,1.079-5.831,0.519-9.133,0.4
		c0-7.25,0.077-14.209-0.023-21.166c-0.089-6.149,0.208-12.286-0.503-18.45c-1.063-9.212-9.111-11.193-15.343-7.502
		c-2.889,1.711-5.415,3.844-7.774,6.96c0,13.043,0,26.48,0,40.11c-3.106,0-5.844,0-8.803,0c0-18.645,0-37.048,0-55.683
		c2.494,0,4.767,0,7.14,0c1.433,1.858,0.103,4.552,1.761,6.69c1.917-1.548,3.695-3.206,5.685-4.551
		c8.171-5.524,18.981-6.362,25.311,6.246c2.906-2.793,5.757-5.476,9.138-7.465c3.088-1.817,6.275-2.988,9.924-2.49
		c8.619,1.176,14.351,7.555,14.593,17.364c0.324,13.144,0.08,26.303,0.08,39.67c-2.959,0.885-5.844,0.372-8.643,0.337
		c-0.919-2.067-0.482-3.909-0.527-5.697c-0.269-10.646,0.517-21.308-0.514-31.942c-0.096-0.994-0.1-2.002-0.272-2.982
		c-1.272-7.255-7.17-10.302-13.734-7.018C1362.11,582.727,1359.423,584.95,1356.892,588.009z"/>
	<path style="fill:#36373D;" d="M508.042,598.93c0,10.096,0,19.717,0,29.556c-3.238,0.735-6.272,0.465-9.55,0.246
		c0-25.206,0-50.099,0-74.934c1.203-1.183,2.616-0.738,3.87-0.691c8.788,0.325,17.634-0.942,26.365,0.933
		c7.991,1.717,14.411,5.586,16.548,13.944c3.919,15.332-2.461,26.562-18.378,30.01C520.829,599.309,514.655,598.39,508.042,598.93z
		 M508.217,590.945c6.224,0.021,12.018,0.313,17.767-0.89c4.497-0.941,8.269-2.928,9.654-7.545c0.99-3.298,1.346-6.7,0.746-10.305
		c-0.847-5.091-3.515-7.995-8.318-9.37c-6.51-1.863-13.088-0.816-19.85-1.048C508.217,571.612,508.217,581.028,508.217,590.945z"/>
	<path style="fill:#36373D;" d="M396.973,628.821c-2.665,0-5.317,0-7.861,0c-1.304-1.167-0.833-2.589-0.838-3.859
		c-0.037-10.165-0.01-20.33-0.031-30.496c-0.004-1.83,0-3.679-0.239-5.487c-1.012-7.68-6.806-11.02-14.14-8.241
		c-4.029,1.527-6.955,4.431-9.932,7.92c0,13.014,0,26.312,0,39.817c-2.971,0.809-5.71,0.343-8.392,0.404
		c-0.718-4.59-0.963-43.916-0.378-55.352c2.327-0.823,4.726-0.424,7.146-0.275c1.162,2.18,0.276,4.449,1.003,6.755
		c2.871-2.024,5.625-4.089,8.504-5.963c3.301-2.149,7.011-3.075,10.927-2.704c7.922,0.75,12.782,5.436,14.102,13.736
		c0.546,3.436,0.823,6.946,0.862,10.427c0.112,9.997,0.048,19.997,0.025,29.995C397.729,626.463,398.016,627.504,396.973,628.821z"
		/>
	<path style="fill:#36373D;" d="M1235.818,553.915c2.878-0.602,5.816-0.241,9.145-0.198c0,22.162,0,44.083,0,66.389
		c10.465,0,20.552,0,30.645,0c1.543,3.014,0.54,5.757,0.869,8.642c-13.798,0-27.091,0-40.378,0
		C1235.123,625.358,1234.852,560.107,1235.818,553.915z"/>
	<path style="fill:#36373D;" d="M569.39,581.393c5.11-6.436,10.236-12.411,19.5-9.003c0.576,3.008-0.691,5.443-1.214,8.304
		c-4.113-0.356-8.119-0.343-11.644,2.48c-4.316,3.456-6.642,7.739-6.647,13.263c-0.008,8.983,0.015,17.965-0.017,26.948
		c-0.006,1.644,0.32,3.327-0.468,5.277c-2.579,0.506-5.309,0.299-8.345,0.075c0-18.518,0-36.873,0-55.388
		c2.325-0.433,4.433-0.342,6.657-0.095C568.723,575.599,567.355,578.608,569.39,581.393z"/>
	<path style="fill:#424247;" d="M710.548,628.844c-3.174,0-5.816,0-9.194,0c-0.049-18.616-0.01-37.125-0.026-55.778
		c3.272-0.726,6.156-0.71,9.22-0.04C710.548,591.576,710.548,609.966,710.548,628.844z"/>
	<path style="fill:#32333A;" d="M1406.427,573.284c2.97,0,5.575,0,8.417,0c0,18.433,0,36.667,0,55.149
		c-2.555,1.055-5.344,0.131-8.417,0.632C1406.427,610.346,1406.427,592.001,1406.427,573.284z"/>
	<path style="fill:#32333A;" d="M1296.679,628.718c-2.959,0-5.563,0-8.407,0c0-18.434,0-36.672,0-55.166
		c2.569-1.026,5.357-0.119,8.407-0.608C1296.679,591.656,1296.679,610.015,1296.679,628.718z"/>
	<path style="fill:#34353B;" d="M1406.675,560.641c-2.269-4.357-2.188-8.268,0.065-10.311c1.97-1.787,5.63-1.84,7.797-0.113
		c2.298,1.831,3.09,5.281,1.854,8.081C1415.041,561.356,1412.61,561.97,1406.675,560.641z"/>
	<path style="fill:#34353B;" d="M706.349,548.995c3.456,0.035,5.958,2.863,5.889,6.656c-0.07,3.85-2.053,5.733-5.997,5.694
		c-3.846-0.038-5.955-2.084-5.977-5.801C700.241,551.895,702.969,548.961,706.349,548.995z"/>
	<path style="fill:#34353B;" d="M1286.99,555.265c-0.006-3.545,2.316-6.165,5.558-6.272c3.423-0.113,6.24,2.622,6.365,6.181
		c0.116,3.284-3.013,6.452-6.257,6.335C1289.43,561.392,1286.995,558.709,1286.99,555.265z"/>
	<path style="fill:#DA872B;" d="M1.13,442.006c-0.04-15.259-0.114-30.517-0.112-45.776c0.003-19.074,0.07-38.148,0.11-57.223
		c30.591-0.002,61.182-0.016,91.773-0.003c18.786,0.008,37.572,0.054,56.358,0.084c-1.506,5.863-4.096,11.244-7.068,16.495
		c-2.829,4.999-5.956,9.926-10.595,13.199c-8.718,6.15-18.583,9.291-29.409,9.089c-6.94-0.129-13.885-0.024-20.937-0.024
		c0,13.834,0,27.193,0,40.614c62.357,0,124.372,0,186.459,0c0-13.645,0-27.023,0-40.614c-2.481,0-4.629,0.003-6.778-0.001
		c-11.975-0.021-23.949,0.151-35.909-0.786c-7.977-0.625-13.323-3.846-13.931-9.364c-0.484-4.386-0.528-8.882,1.764-12.971
		c1.331,2.389,3.603,1.213,5.388,1.215c52.894,0.074,105.789,0.061,158.684,0.061c0.603,1.005,0.077,2.169,0.727,3.299
		c1.931,3.361-0.685,10.742-3.719,12.71c-4.559,2.956-9.473,4.78-15.04,5.063c-12.146,0.618-24.291,0.898-36.449,0.792
		c-1.286-0.011-2.652-0.358-4.009,0.536c0,13.313,0,26.69,0,40.084c74.249,0,148.176,0,222.246,0c0-13.628,0-27.016,0-40.677
		c-10.126,0.313-19.914-0.261-29.706-0.788c-9.61-0.517-17.602-4.243-23.437-12.012c-2.276-3.03-4.064-6.406-5.596-9.893
		c1.159-3.093,3.844-2.082,6.003-2.084c42.975-0.043,85.951-0.031,128.926-0.031c0.095,22.563,0.191,45.126,0.286,67.642
		c16.726,0,32.826,0,49.023,0c4.734-8.737,9.385-17.322,13.927-25.704c1.698-0.101,2.591,0.76,3.57,1.315
		c11.864,6.723,24.159,12.485,37.051,16.972c9.974,3.472,20.062,6.515,30.375,8.825c3.635,0.814,7.375,1.195,10.937,2.087
		c5.209,1.305,10.61,2.324,15.754,2.531c6.399,0.258,12.719,1.409,19.178,1.249c12.966-0.321,25.933,0.259,38.916-0.703
		c13.436-0.996,26.75-2.57,39.951-5.236c19.127-3.864,37.484-9.869,54.662-19.259c14.919-8.155,27.56-18.965,37.653-32.638
		c7.132-9.661,11.258-20.753,14.489-32.21c8.658,0.042,17.316,0.117,25.974,0.121c28.477,0.016,56.954-0.014,85.431,0.056
		c1.661,0.004,3.695-0.986,4.997,1.042c-2.022,6.784-5.076,13.119-8.924,19.01c-7.427,11.372-17.8,17.85-31.559,19.126
		c-7.832,0.726-15.635,0.385-23.447,0.638c-1.433,0.046-3.017-0.508-4.108,0.62c0,13.251,0,26.355,0,39.413
		c6.791,0.914,180.863,1.192,186.6,0.313c0-13.358,0-26.737,0-40.366c-2.14,0-3.959,0.003-5.778-0.001
		c-11.982-0.026-23.968,0.207-35.934-0.74c-3.007-0.238-5.892-0.805-8.702-1.884c-3.998-1.536-6.054-4.405-6.339-8.678
		c-0.292-4.381,0.37-8.564,1.752-12.739c3.917-11.838,9.294-23.066,14.203-34.488c1.089-2.533,1.494-5.466,3.618-7.38
		c42.47,0,84.747,0,127.263,0c4.149,9.304,8.241,18.54,12.386,27.753c2.653,5.897,5.568,11.691,7.309,17.951
		c2.122,7.629-0.07,14.936-9.124,17.555c-5.02,1.452-10.118,1.763-15.269,2.104c-10.81,0.715-21.628,0.502-32.445,0.561
		c-0.786,0.004-1.68-0.223-2.324,0.703c0,13.172,0,26.43,0,40.131c73.656,0,147.086,0.002,220.515-0.033
		c0.593,0,1.185-0.499,1.788-0.77c0-13.348,0-26.579,0-40.046c-4.663,0-8.994,0.173-13.307-0.038
		c-7.773-0.381-15.606-0.164-23.275-1.819c-6.305-1.361-11.502-4.431-15.524-9.65c-5.92-7.683-9.329-16.647-13.459-25.252
		c1.305-2.025,3.339-1.034,4.999-1.036c45.989-0.061,91.979-0.047,137.968-0.046c0,34,0,68-0.001,101.999
		C1045.665,442.004,523.398,442.005,1.13,442.006z"/>
	<path style="fill:#F0992C;" d="M1567.9,1.119c0.011,37.63,0.022,75.261,0.033,112.891c-78.142-0.003-156.284-0.007-234.426-0.01
		c-1,0-2.002-0.04-2.998,0.017c-1.308,0.075-2.109,0.849-2.535,2.05c-5.026-9.677-8.487-20.063-13.375-29.846
		c-35.512,0-70.928,0-106.245,0c-0.52,1.123-0.928,2.032-1.358,2.93c-4.148,8.659-7.255,17.781-11.715,26.301
		c-1.798-3.004-4.773-2.444-7.529-2.444c-75.897-0.009-151.795-0.006-227.692-0.006c-0.113-9.572-0.225-19.144-0.338-28.735
		c-15.73,0-30.851,0-46.08,0c-4.996,7.906-9.948,15.743-14.908,23.591c-9.489-5.496-18.984-10.185-28.791-14.309
		c-28.235-11.873-57.798-16.949-88.243-17.515c-13.301-0.247-26.572,0.281-39.828,1.782c-14.87,1.685-29.462,4.529-43.766,8.853
		c-19.091,5.771-36.563,14.694-52.155,27.198c-1.346-2.943-4.014-1.826-6.153-1.827c-85.017-0.049-170.035-0.037-255.052-0.063
		c-2.659-0.001-5.264,0.096-7.779,1.033c-4.755-8.655-7.572-18.213-12.145-26.754c-35.671,0-71.019,0-106.334,0
		c-0.56,1.283-0.992,2.353-1.487,3.393c-3.824,8.039-6.615,16.537-10.866,24.386c-1.773-1.161-3.761-1.048-5.759-1.048
		c-79.753,0.016-159.507,0.016-239.26,0.018C1.077,95.678,1.025,78.349,1.009,61.02C0.992,42.856,1,24.692,1.027,6.528
		C1.029,4.892,0.738,3.221,1.3,1.616c1.173-1.039,2.563-0.501,3.839-0.594c1.16-0.085,2.332-0.018,3.498-0.018
		c517.59,0,1035.18,0,1552.77,0.005C1563.571,1.008,1565.735,1.081,1567.9,1.119z"/>
	<path style="fill:#EA932A;" d="M1.114,113.007c79.753-0.002,159.507-0.003,239.26-0.018c1.998,0,3.986-0.114,5.759,1.048
		c-0.24,0.783-0.408,1.597-0.729,2.345c-10.732,25.059-21.449,50.124-32.237,75.158c-3.977,9.227-7.506,18.653-12.115,27.603
		c-1.132-3.122-3.825-2.109-5.982-2.11c-64.653-0.039-129.306-0.03-193.959-0.029c-0.037-15.757-0.106-31.514-0.103-47.27
		C1.011,150.825,1.076,131.916,1.114,113.007z"/>
	<path style="fill:#E18C2A;" d="M1.111,217.004c64.653-0.001,129.306-0.01,193.959,0.029c2.158,0.001,4.85-1.011,5.982,2.11
		c-0.963,2.22-1.947,4.43-2.885,6.661c-5.43,12.918-10.792,25.865-16.284,38.757c-10.325,24.235-20.722,48.439-31.1,72.651
		c-0.322,0.751-0.676,1.527-1.522,1.877c-18.786-0.029-37.572-0.076-56.358-0.084c-30.591-0.012-61.182,0.001-91.773,0.003
		c-0.08-4.341-0.159-8.682-0.239-13.023c0.035-27.163,0.064-54.326,0.109-81.488C1.014,235.332,1.072,226.168,1.111,217.004z"/>
	<path style="fill:#EA932A;" d="M1327.973,116.068c0.427-1.201,1.227-1.975,2.535-2.05c0.996-0.057,1.999-0.017,2.998-0.017
		c78.142,0.003,156.284,0.007,234.426,0.01c0,34.666,0,69.333,0,103.999c-65.321-0.001-130.641-0.001-195.962-0.002
		c-0.3-0.377-0.701-0.711-0.885-1.138c-11.134-25.828-22.29-51.647-33.345-77.509
		C1334.431,131.62,1330.622,124.086,1327.973,116.068z"/>
	<path style="fill:#E08B2A;" d="M1371.97,218.008c65.321,0.001,130.641,0.001,195.962,0.002c0,40.665,0.001,81.33,0.001,121.994
		c-45.989-0.001-91.979-0.015-137.968,0.046c-1.66,0.002-3.694-0.989-4.999,1.036c-4.855-9.409-8.572-19.324-12.812-29.005
		c-10.524-24.031-20.841-48.153-31.195-72.258C1377.855,232.596,1374.535,225.457,1371.97,218.008z"/>
	<path style="fill:#E08B2A;" d="M481.946,355.117c-7.367-13.438-12.847-27.735-18.957-41.743
		c-8.073-18.507-16.037-37.061-24.063-55.589c-5.205-12.017-10.446-24.019-15.635-36.043c-0.317-0.734-0.319-1.604-0.467-2.411
		c1.282-2.47,3.58-1.267,5.357-1.269c62.036-0.073,124.072-0.06,186.108-0.065c1.995,0,3.989-0.066,5.984-0.101
		c5.558,12.34,15.319,20.833,26.1,28.342c14.468,10.077,30.711,16.345,47.35,21.688c18.959,6.088,38.341,10.575,57.818,14.586
		c15.265,3.143,30.672,5.586,45.973,8.56c19.518,3.794,39.174,7.083,57.956,13.919c7.188,2.616,13.976,5.907,20.049,10.816
		c13.198,10.669,16.327,35.718-2.469,49.313c-9.364,6.773-19.897,10.408-31.005,12.878c-15.911,3.539-32.068,3.802-48.168,2.872
		c-24.795-1.433-48.583-7.131-70.196-19.951c-26.915-15.965-44.405-39.035-51.79-69.583c-0.195-0.805-0.472-1.592-0.74-2.378
		c-0.156-0.457-0.368-0.895-0.594-1.434c-17.625,0-35.223,0-52.985,0c-0.84,1.903-0.501,3.746-0.504,5.513
		c-0.029,18.327-0.013,36.655-0.026,54.982c-0.001,1.662-0.109,3.323-0.168,4.985c-42.975-0.001-85.951-0.013-128.926,0.031
		C485.79,353.035,483.105,352.024,481.946,355.117z"/>
	<path style="fill:#E18C2A;" d="M1151.102,218.192c-1.39,4.714-4.141,8.82-5.918,13.372c-4.491,11.509-9.562,22.779-14.308,34.184
		c-10.121,24.323-20.734,48.441-31.16,72.637c-0.12,0.28-0.44,0.473-0.666,0.707c-1.302-2.028-3.336-1.038-4.997-1.042
		c-28.477-0.069-56.954-0.04-85.431-0.056c-8.658-0.005-17.316-0.079-25.974-0.121c0.675-6.098,1.974-12.203,1.907-18.293
		c-0.198-18.108-3.887-35.254-16.035-49.563c-7.797-9.184-17.264-16.202-27.748-22.102c-16.85-9.48-35.018-15.46-53.413-20.879
		c-9.433-2.779-18.985-5.153-28.483-7.709c0.15-0.797,0.106-1.681,1.316-2.326c0.982,0,2.304,0,3.626,0
		c94.114,0,188.227,0,282.341,0.001c1.166,0,2.333-0.008,3.497,0.032C1150.396,217.059,1150.832,217.54,1151.102,218.192z"/>
	<path style="fill:#E08B2A;" d="M212.856,354.725c1.342-6.722,4.488-12.78,7.083-19.032c3.295-7.936,6.779-15.793,10.215-23.763
		c42.625,0,85.006,0,127.423,0c1.99,2.404,2.762,5.341,3.962,8.033c4.993,11.197,9.86,22.449,14.793,33.672
		c0.338,0.768,0.724,1.494,0.596,2.366c-52.895,0-105.789,0.013-158.684-0.061C216.46,355.938,214.188,357.114,212.856,354.725z"/>
	<path style="fill:#EA932A;" d="M1151.102,218.192c-0.27-0.652-0.706-1.133-1.446-1.158c-1.165-0.04-2.331-0.032-3.497-0.032
		C1052.045,217,957.931,217,863.817,217c-1.322,0-2.644,0-3.626,0c-1.21,0.645-1.167,1.53-1.316,2.326
		c-9.264-1.845-18.552-3.578-27.786-5.562c-15.233-3.272-30.607-5.796-45.888-8.802c-16.898-3.325-33.866-6.442-50.004-12.775
		c-7.5-2.943-14.262-6.87-19.772-12.975c-8.09-8.963-9.472-28.054,0.169-38.657c6.506-7.155,14.525-11.502,23.448-14.488
		c9.65-3.229,19.578-4.728,29.771-5.348c10.004-0.609,19.942-0.64,29.885,0.303c24.73,2.347,48.441,7.965,69.243,22.424
		c19.571,13.602,31.743,32.212,37.103,55.364c0.598,2.583,1.226,5.159,1.862,7.733c0.112,0.454,0.337,0.88,0.541,1.398
		c17.353,0,34.611,0,51.829,0c1.066-1.882,0.569-3.747,0.571-5.521c0.04-27.979,0.029-55.958,0.043-83.937
		c0.001-1.828,0.109-3.655,0.167-5.483c75.897-0.001,151.795-0.003,227.692,0.006c2.756,0,5.732-0.561,7.529,2.444
		c-2.577,7.544-6.085,14.697-9.219,22.008c-11.239,26.218-22.474,52.439-33.721,78.653
		C1152.022,216.852,1151.936,217.751,1151.102,218.192z"/>
	<path style="fill:#EA932A;" d="M620.272,217.895c-1.995,0.035-3.989,0.101-5.984,0.101c-62.036,0.005-124.072-0.008-186.108,0.065
		c-1.777,0.002-4.075-1.201-5.357,1.269c-4.358-8.197-7.656-16.872-11.34-25.369c-11.347-26.166-22.564-52.389-33.816-78.596
		c-0.321-0.747-0.472-1.567-0.702-2.353c2.515-0.937,5.12-1.034,7.779-1.033c85.017,0.026,170.035,0.014,255.052,0.063
		c2.139,0.001,4.807-1.116,6.153,1.827c-8.089,7.406-15.593,15.292-21.172,24.857c-10.036,17.209-13.58,35.61-11.121,55.389
		C614.692,202.445,617.181,210.215,620.272,217.895z"/>
	<path style="fill:#DA872B;" d="M322.124,228.954c3.049,3.289,4.001,7.694,5.881,11.566c4.198,8.646,7.726,17.616,11.538,26.449
		c0.337,0.78,0.63,1.541,0.183,2.641c-29.963,0-60.049,0-90.231,0c-0.912-1.367,0.241-2.528,0.68-3.573
		c5.189-12.359,10.495-24.669,15.787-36.985c0.183-0.425,0.538-0.776,0.812-1.161c1.603,0.99,3.352,1.14,5.206,1.134
		C288.695,228.968,305.409,228.969,322.124,228.954z"/>
	<path style="fill:#E18C2A;" d="M322.124,228.954c-16.715,0.016-33.429,0.014-50.144,0.071c-1.855,0.006-3.603-0.144-5.206-1.134
		c3.696-9.459,7.66-18.802,12.063-27.956c10.623,0.029,21.246,0.058,31.87,0.087c3.605,8.523,7.65,16.858,10.799,25.579
		C321.919,226.744,321.973,227.828,322.124,228.954z"/>
	<path style="fill:#F0992C;" d="M310.707,200.022c-10.623-0.029-21.246-0.058-31.87-0.087c3.249-9.377,7.69-18.258,11.468-27.415
		c1.286-3.118,2.288-6.404,4.584-9.761C300.274,175.445,305.49,187.734,310.707,200.022z"/>
	<path style="fill:#DA872B;" d="M1276.042,235.985c4.299,7.836,7.142,16.324,10.924,24.392c1.389,2.962,2.594,6.011,4.01,9.315
		c-30.837,0-61.22,0-91.447,0c-0.694-0.71-0.591-1.384-0.337-1.974c4.52-10.483,9.06-20.959,13.611-31.428
		c0.255-0.587,0.652-1.112,0.983-1.666c1.079,2.343,3.197,1.324,4.843,1.33C1237.766,236.021,1256.904,235.99,1276.042,235.985z"/>
	<path style="fill:#E18C2A;" d="M1276.042,235.985c-19.138,0.005-38.276,0.036-57.414-0.031c-1.646-0.006-3.764,1.013-4.843-1.33
		c2.642-8.109,6.527-15.704,9.751-23.573c1.115-2.721,2.426-5.362,3.648-8.04c5.306,1.293,10.713,0.988,16.095,0.975
		c6.202-0.015,12.431,0.382,18.564-0.977C1266.831,213.893,1271.805,224.78,1276.042,235.985z"/>
	<path style="fill:#F0992C;" d="M1261.844,203.01c-6.133,1.359-12.362,0.962-18.564,0.977c-5.382,0.013-10.789,0.318-16.095-0.975
		c5.576-13.268,11.153-26.536,17.124-40.744c2.816,6.417,5.321,11.885,7.627,17.435
		C1255.175,187.5,1259.034,195.032,1261.844,203.01z"/>
</g>
</svg>
