<?xml version="1.0" encoding="iso-8859-1"?>
<!-- Generator: Adobe Illustrator 27.0.0, SVG Export Plug-In . SVG Version: 6.00 Build 0)  -->
<svg version="1.1" id="Layer_1" xmlns="http://www.w3.org/2000/svg" xmlns:xlink="http://www.w3.org/1999/xlink" x="0px" y="0px"
	 viewBox="0 0 1477 735" style="enable-background:new 0 0 1477 735;" xml:space="preserve">
<g>
	<path style="fill:#3977BC;" d="M746.031,0.976c15.303,0.799,30.26,3.677,45.042,7.561c31.847,8.368,61.003,22.466,87.46,41.964
		c30.115,22.194,54.624,49.525,73.3,82.006c12.316,21.419,21.513,44.099,27.409,68.099c3.526,14.355,5.842,28.878,6.979,43.65
		c0.782,10.156,1.029,20.298,0.569,30.415c-1.165,25.647-5.734,50.716-14.132,75.028c-10.354,29.973-25.482,57.277-45.586,81.838
		c-26.049,31.825-57.762,56.299-95.136,73.381c-21.523,9.837-44.044,16.37-67.425,20.233c-20.5,3.387-41.118,3.895-61.684,2.475
		c-32.697-2.257-64.005-10.457-93.752-24.482c-23.484-11.072-44.855-25.211-64.195-42.519
		c-23.058-20.635-41.611-44.715-56.148-72.002c-12.905-24.223-21.496-49.918-26.427-76.829c-1.791-9.773-2.867-19.68-3.545-29.642
		c-0.555-8.155-0.754-16.29-0.6-24.43c0.28-14.787,1.908-29.431,4.608-44.002c4.502-24.304,12.287-47.479,23.354-69.51
		c10.728-21.355,24.294-40.802,40.416-58.503c25.011-27.463,54.581-48.569,88.474-63.542c19.611-8.664,40.018-14.954,61.278-18.307
		c7.707-1.216,15.377-2.606,23.194-2.881C700.197,0.951,700.76,0.739,701,0c10.333,0,20.667,0,31,0
		c0.399,0.927,1.194,0.988,2.056,0.985C738.048,0.97,742.039,0.977,746.031,0.976z M822.198,339.905
		c8.665,0,17.338-0.222,25.992,0.075c6.124,0.21,9.978-2.599,9.872-10.013c-0.208-14.662-0.038-29.329-0.071-43.993
		c-0.018-7.91-2.573-10.058-10.291-9.146c-6.907,0.817-12.321-1.535-14.69-8.925c-0.859-2.678-1.213-5.56-2.358-8.095
		c-4.926-10.9-8.414-22.329-12.387-33.565c-16.234-45.908-32.213-91.906-48.282-137.873c-3.007-8.601-5.912-17.239-9.016-25.805
		c-2.485-6.858-6.511-9.795-13.451-9.635c-15.829,0.363-31.658,0.483-47.479-0.084c-6.743-0.242-10.966,2.985-13.837,8.659
		c-1.732,3.423-2.672,7.126-3.859,10.744c-9.549,29.107-19.078,58.221-28.688,87.308c-9.148,27.687-18.394,55.342-27.582,83.016
		c-2.661,8.014-4.698,16.248-8.007,24.03c-3.712,8.73-9.557,11.757-18.67,10.098c-7.853-1.43-11.36,1.389-11.383,9.314
		c-0.043,14.665,0.148,29.332-0.086,43.993c-0.104,6.479,2.991,10.073,9.929,9.975c16.826-0.238,33.659-0.068,50.488-0.082
		c7.206-0.006,10.317-2.208,12.501-9.006c1.467-4.567,2.759-9.191,4.113-13.794c2.988-10.159,5.907-20.339,8.972-30.475
		c1.719-5.684,4.465-7.837,10.012-7.843c17.665-0.019,35.33,0.072,52.994,0.09c6.987,0.007,13.98,0.263,20.955-0.41
		c9.106-0.88,13.504,2.882,15.24,9.938c3.641,14.803,8.755,29.177,13.038,43.795c1.759,6.003,4.265,7.69,10.536,7.705
		C805.201,339.92,813.699,339.905,822.198,339.905z M587.999,409.445c-0.034,0-0.068,0-0.102,0c0,6.663,0.205,13.334-0.056,19.986
		c-0.279,7.115,1.755,10.857,9.365,14.083c1.368,0.58,2.805,1.021,4.241,1.41c11.21,3.04,22.55,5.194,34.152,6.312
		c13.657,1.316,27.257,1.133,40.796-0.543c16.169-2.002,31.785-6.455,47.083-12.033c23.147-8.441,46.909-12.558,71.653-10.99
		c13.98,0.886,27.647,3.141,41.107,6.853c4.305,1.187,8.544,2.612,12.83,3.87c5.872,1.723,8.66-0.238,8.923-6.219
		c0.029-0.665,0.009-1.333,0.009-1.999c0-13.829,0.003-27.658-0.001-41.486c-0.002-7.904-1.92-10.948-9.161-13.502
		c-19.208-6.773-39.059-10.239-59.385-10.908c-8.469-0.279-16.889,0.701-25.316,1.581c-12.419,1.297-24.512,4.008-36.341,7.863
		c-18.894,6.158-37.689,12.612-57.609,14.782c-9.806,1.068-19.675,1.317-29.401,0.189c-14.797-1.716-29.329-5.188-43.918-8.201
		c-6.323-1.306-8.841,0.631-8.864,6.961C587.978,394.784,587.999,402.115,587.999,409.445z"/>
	<path style="fill:#241C1C;" d="M983,735c-1.161-1.726-3.202-1.348-4.81-1.827c-3.899-1.163-7.351-3.01-10.481-5.541
		c-1.174-0.949-2.17-2.058-2.913-3.386c-2.475-4.425-0.514-8.53,4.479-9.132c4.669-0.562,9.085,0.549,12.628,3.553
		c4.223,3.58,9.001,3.928,14.063,3.482c4.554-0.401,7.176-2.829,8.186-7.362c0.695-3.121,0.659-5.321-0.176-9.453
		c-1.402-0.568-2.43,0.561-3.527,1.023c-2.451,1.032-4.915,2.046-7.517,2.523c-14.693,2.697-26.523-5.038-29.778-19.634
		c-2.064-9.256-1.644-18.553,1.034-27.626c3.56-12.061,14.323-18.37,26.715-15.949c4.071,0.795,8.133,1.638,12.188,2.513
		c4.345,0.938,8.531,0.532,12.743-0.903c4.27-1.455,6.261-0.143,6.976,4.256c0.185,1.14,0.118,2.326,0.115,3.491
		c-0.051,18.326-0.08,36.652-0.181,54.978c-0.068,12.382-8.608,22.193-20.804,24.04c-0.561,0.085-0.819,0.448-0.94,0.955
		c-1.333,0-2.667,0-4,0c-3.168-2.083-6.712-0.462-10.039-1.006c-0.834-0.136-1.668-0.029-1.961,1.006
		C984.333,735,983.667,735,983,735z M1005.261,678.256c-0.149-3.128-0.078-6.237-1.054-9.329c-1.573-4.982-4.193-8.485-9.777-9.194
		c-5.944-0.755-10.3,1.432-13.315,6.512c-2.083,3.509-3.089,7.411-3.028,11.385c0.086,5.563,1.468,10.829,5.739,14.879
		c6.532,6.195,16.712,3.499,19.915-4.023C1005.145,685.188,1005.37,681.761,1005.261,678.256z"/>
	<path style="fill:#241C1C;" d="M0,704c1.6-0.956,1.56-2.741,2.093-4.217c7.929-21.945,15.837-43.899,23.748-65.851
		c0.45-1.248,0.812-2.531,1.335-3.747c1.986-4.611,3.724-5.644,8.838-5.193c2.679,0.236,5.307-0.238,7.959-0.358
		c4.535-0.206,6.546,1.01,8.003,5.15c9.011,25.599,17.957,51.22,26.911,76.839c0.1,0.286,0.012,0.637,0.012,0.943
		c-11.308,4.033-21.136,3.744-23.115-13.653c-1.704-2.229-4.109-2.676-6.688-2.531c-5.976,0.336-11.91,0.4-17.905-0.265
		c-5.25-0.582-8.677,2.487-10.011,7.784c-2.486,9.87-4.957,11.567-14.952,10.336C4.118,708.979,1.966,708.968,0,708
		C0,706.667,0,705.333,0,704z M39.477,645.795c-0.354,0.017-0.708,0.033-1.062,0.05c-2.356,8.405-4.822,16.782-7.018,25.228
		c-0.935,3.594,0.477,5.52,4.09,5.838c4.589,0.403,9.131-0.175,13.773-1.361C47.036,665.073,43.479,655.36,39.477,645.795z"/>
	<path style="fill:#49403F;" d="M1477,704l-0.486-0.077l-0.45,0.2c-0.006-25.405-0.013-50.81-0.019-76.215
		c0.301,0.208,0.62,0.238,0.955,0.092C1477,653.333,1477,678.667,1477,704z"/>
	<path style="fill:#7C9ACF;" d="M746.031,0.976c-3.991,0.001-7.983-0.006-11.974,0.009C733.194,0.988,732.399,0.927,732,0
		c4.667,0,9.333,0,14,0C746.01,0.325,746.02,0.651,746.031,0.976z"/>
	<path style="fill:#79706F;" d="M985,735c0.293-1.035,1.127-1.142,1.961-1.006c3.327,0.544,6.871-1.078,10.039,1.006
		C993,735,989,735,985,735z"/>
	<path style="fill:#241C1C;" d="M1265.03,708.623c-3.391,1.316-6.931,0.764-10.385,0.704c-4.235-0.073-5.61-1.581-5.63-5.855
		c-0.045-9.823,0.034-19.647,0.052-29.471c0.003-1.831,0.046-3.669-0.087-5.492c-0.437-5.988-3.487-9.323-8.805-9.477
		c-5.876-0.17-10.073,2.931-10.59,8.853c-0.13,1.486-0.211,2.982-0.204,4.472c0.048,9.984,0.148,19.967,0.186,29.951
		c0.02,5.075-1.756,6.947-6.849,7.057c-8.453,0.183-11.103-0.925-10.608-10.386c0.53-10.127,0.178-20.307-0.01-30.46
		c-0.096-5.19-2.148-7.874-6.188-9.141c-7.003-2.198-12.998,1.826-13.102,9.132c-0.15,10.486,0.022,20.977,0.053,31.465
		c0.005,1.497,0.194,3.028-0.056,4.482c-0.424,2.466-1.675,4.26-4.49,4.571c-2.319,0.256-4.626,0.507-6.954,0.275
		c-4.435-0.443-6.321-2.025-5.986-6.282c1.206-15.297-0.313-30.592,0.263-45.878c0.068-1.813,0.209-3.686,0.726-5.408
		c1.653-5.504,6.24-7.345,11.366-4.698c0.732,0.378,1.449,0.825,2.078,1.353c2.519,2.11,4.881,2.029,7.679,0.225
		c5.132-3.309,10.645-5.381,16.954-3.616c3.13,0.876,5.666,2.638,8.145,4.644c4.032,3.263,5.021,3.296,9.126,0.118
		c4.769-3.692,9.959-5.975,16.095-5.154c9.122,1.221,14.473,6.876,17.076,15.311c1.469,4.762,2.191,9.705,2.129,14.737
		c-0.119,9.653-0.198,19.307-0.243,28.961C1266.765,705.331,1266.601,706.931,1265.03,708.623z"/>
	<path style="fill:#281F1F;" d="M224.917,650.435c2.263-1.232,4.519-2.628,6.91-3.731c7.994-3.687,15.388-3.054,22.106,3.072
		c3.748,3.417,4.334,3.374,7.832,0.101c7.026-6.575,14.84-6.183,23.169-3.047c8.104,3.052,11.411,9.348,11.753,17.381
		c0.333,7.808,0.053,15.642,0.08,23.464c0.016,4.495,0.134,8.989,0.154,13.484c0.013,3.081-0.232,6.274-3.571,7.579
		c-3.671,1.434-7.57,1.667-10.967-0.774c-2.423-1.741-2.338-4.599-2.317-7.295c0.065-8.49,0.136-16.981,0.164-25.472
		c0.008-2.329-0.017-4.668-0.22-6.985c-0.485-5.539-3.57-8.738-8.702-9.194c-5.376-0.478-9.253,2.242-10.85,7.495
		c-0.447,1.47-0.518,2.941-0.52,4.437c-0.01,9.988-0.024,19.977-0.004,29.965c0.006,3.08-0.03,6.329-3.271,7.756
		c-3.611,1.59-7.487,1.772-11.008-0.477c-2.376-1.518-2.608-4.039-2.604-6.634c0.015-9.992-0.035-19.985-0.06-29.977
		c-0.002-0.999,0.053-2-0.001-2.996c-0.344-6.343-3.651-9.649-9.622-9.653c-6.122-0.004-10.244,3.6-10.371,9.693
		c-0.219,10.484-0.108,20.974-0.13,31.462c-0.002,1.164,0.125,2.337,0.027,3.492c-0.312,3.705-1.852,5.452-5.615,5.699
		c-9.381,0.615-11.507-0.833-11.236-10.148c0.387-13.308,0.067-26.637,0.008-39.957c-0.011-2.517,0.125-4.987,1.022-7.363
		c2.362-6.255,8.325-7.964,13.541-3.875C221.782,648.853,222.725,650.104,224.917,650.435z"/>
	<path style="fill:#241C1C;" d="M562.013,711.011c-4.81-0.101-9.609,0.21-14.388-0.995c-10.439-2.632-16.724-9.538-20.73-19.116
		c-1.493-3.57,0.283-5.635,2.881-6.801c1.844-0.827,3.802-1.222,5.781-1.397c3.612-0.319,6.725,0.831,8.332,4.217
		c4.277,9.011,11.797,10.942,20.785,9.905c1.981-0.229,3.973-0.434,5.925-0.825c3.047-0.611,5.567-2.105,7.234-4.836
		c2.911-4.768,1.615-9.588-3.356-12.162c-3.856-1.997-8.1-2.883-12.241-4.041c-6.061-1.695-12.141-3.321-18.216-4.967
		c-2.585-0.7-4.98-1.861-7.241-3.239c-4.648-2.832-7.742-6.972-8.474-12.348c-1.937-14.23,2.63-26.002,18.042-30.654
		c11.052-3.336,21.883-2.792,32.486,2.154c7.496,3.497,11.383,9.94,14.634,16.95c1.147,2.473,0.403,4.012-2.146,5.255
		c-6.063,2.956-13.318,2.882-16.712-4.127c-2.435-5.028-7.267-7.121-12.855-7.034c-3.144,0.049-6.316-0.389-9.424,0.58
		c-4.941,1.54-7.342,4.248-7.554,8.7c-0.219,4.581,1.636,7.315,6.98,8.945c6.172,1.882,12.502,3.238,18.739,4.914
		c3.997,1.074,7.957,2.255,11.828,3.78c17.233,6.787,17.197,21.366,11.193,32.589c-4.984,9.318-13.408,14.002-24.007,14.531
		C567.017,711.114,564.513,711.008,562.013,711.011z"/>
	<path style="fill:#241C1C;" d="M713.468,648.424c8.951-2.415,10.278-5.507,18.368,2.991c1.089-0.046,1.718-0.854,2.504-1.459
		c11.491-8.839,29.485-6.648,36.617,8.637c6.293,13.488,5.731,27.162-1.057,40.275c-6.063,11.712-19.446,15.374-31.75,9.488
		c-2.138-1.023-3.891-3.277-6.611-2.679c-1.217,1.208-0.754,2.613-0.767,3.887c-0.051,5.159-0.002,10.319-0.026,15.479
		c-0.034,7.214-1.942,9.045-9.274,8.964c-0.832-0.009-1.673,0.032-2.494-0.071c-3.845-0.486-5.29-2.147-6.032-6.058
		c-0.636-3.352,0.065-6.63,0.06-9.941c-0.029-19.806-0.018-39.613-0.007-59.419c0.001-1.668-0.004-3.324-0.495-4.94
		C711.93,651.682,712.381,649.979,713.468,648.424z M729.941,677.055c-0.123,5.258,0.573,9.816,3.008,13.942
		c4.406,7.465,13.625,8.895,19.477,3.074c6.789-6.752,7.636-22.06,1.737-29.636c-3.81-4.893-8.995-5.295-14.421-4.427
		c-4.834,0.773-7.287,4.4-8.518,8.753C730.418,671.608,729.666,674.549,729.941,677.055z"/>
	<path style="fill:#231A1A;" d="M174.994,650.908c0-6.067,0.036-11.867-0.015-17.665c-0.026-2.877-0.27-5.944,2.834-7.402
		c3.575-1.68,7.392-1.779,11.078-0.192c1.242,0.535,1.885,1.722,2.237,3.124c0.576,2.294,0.713,4.597,0.621,6.929
		c-0.828,20.955-0.159,41.919-0.392,62.878c-0.02,1.821-0.044,3.699-0.482,5.447c-1.411,5.63-7.233,7.854-12.149,4.754
		c-0.559-0.353-1.071-0.796-1.554-1.25c-2.284-2.147-4.582-2.206-7.176-0.415c-4.664,3.221-9.908,4.672-15.56,4.24
		c-10.214-0.781-16.67-6.769-20.698-15.661c-3.435-7.582-4.336-15.642-3.269-23.866c0.361-2.782,0.722-5.576,1.49-8.323
		c4.525-16.177,22.478-23.515,37.023-15.066C170.665,649.417,172.119,650.931,174.994,650.908z M176.079,678.339
		c0-5.2-1.035-9.052-2.943-12.388c-5.041-8.814-19.066-8.351-23.163-0.047c-4.163,8.437-4.259,17.039,0.622,25.18
		c5.163,8.611,16.063,8.682,21.802,0.414C175.14,687.545,176.295,683.129,176.079,678.339z"/>
	<path style="fill:#231A1A;" d="M787.132,648.402c3.276-1.601,6.267-2.407,9.496-2.278c3.577,0.142,4.06,4.17,6.667,5.376
		c1.329-0.155,2.24-0.855,3.214-1.502c17.374-11.54,37.821-2.075,40.374,18.705c0.878,7.147,0.799,14.298-0.948,21.315
		c-2.431,9.762-7.611,17.326-17.747,20.311c-6.126,1.804-12.15,0.883-17.885-1.829c-2.056-0.972-4.027-2.125-6.291-3.331
		c-1.415,3.957-1.856,7.801-1.491,11.823c0.3,3.304,0.448,6.64,0.363,9.955c-0.11,4.254-2.175,6.383-6.336,6.937
		c-0.985,0.131-1.995,0.127-2.992,0.112c-5.127-0.078-6.544-1.437-6.551-6.512c-0.027-17.82,0.041-35.639-0.035-53.459
		c-0.031-7.315,0.396-14.638-0.324-21.948C786.535,650.964,786.932,649.801,787.132,648.402z M830.333,677.852
		c-0.107-1.988-0.053-4-0.353-5.958c-0.923-6.033-4.95-10.807-9.864-11.91c-6.2-1.391-11.633,0.58-15.012,5.283
		c-4.542,6.322-4.662,19.798,0.339,26.398c6.334,8.359,17.636,7.569,22.372-1.768C829.724,686.134,830.466,682.077,830.333,677.852z
		"/>
	<path style="fill:#231A1A;" d="M1476.045,627.908c0.006,25.405,0.013,50.81,0.019,76.215c-2.145,6.596-6.01,8.398-11.498,4.77
		c-4.127-2.729-7.494-2.814-11.826-0.204c-10.189,6.139-23.912,2.383-30.601-7.906c-4.87-7.491-6.498-15.859-6.336-24.631
		c0.089-4.808,0.505-9.588,2.221-14.182c4.681-12.531,15.908-18.274,28.959-16.826c2.512,0.279,4.587,1.824,6.738,3.072
		c2.123,1.233,4.07,2.907,7.16,2.938c0-5.798,0.12-11.548-0.074-17.287c-0.057-1.684,0.146-3.296,0.272-4.936
		c0.079-1.032,0.606-1.944,1.364-2.591c2.201-1.882,4.925-1.907,7.564-1.668C1472.388,624.887,1475.171,624.724,1476.045,627.908z
		 M1461.342,678.579c-0.118-1.986-0.009-4.017-0.392-5.95c-1.605-8.1-6.049-13.667-15.262-12.867
		c-6.001,0.521-9.545,4.337-11.666,9.491c-3.196,7.767-2.133,15.326,2.458,22.207c5.622,8.426,16.339,8.048,21.734-0.551
		C1460.584,687.134,1461.462,682.994,1461.342,678.579z"/>
	<path style="fill:#251D1D;" d="M625.01,652.438c2.25-1.438,4.021-2.583,5.805-3.707c6.767-4.262,14.053-4.814,21.575-2.718
		c8.06,2.246,11.967,7.464,12.651,15.843c1.099,13.463,0.633,26.945,0.687,40.42c0.022,5.451-0.956,6.349-6.195,6.749
		c-0.662,0.051-1.316,0.203-1.978,0.258c-6.54,0.543-8.471-1.195-8.482-7.691c-0.016-9.331-0.004-18.663-0.004-27.994
		c0-1,0.012-2-0.002-2.999c-0.098-7.016-3.002-11.026-8.412-11.626c-7.259-0.805-12.989,2.669-14.747,9.002
		c-0.399,1.436-0.868,2.929-0.851,4.391c0.107,9.486-0.462,18.98,0.299,28.459c0.148,1.843,0.214,3.759-0.544,5.419
		c-1.558,3.413-4.929,3.01-7.833,3.077c-2.861,0.066-6.141,0.919-8.007-2.489c-1.012-1.849-0.915-3.848-0.906-5.848
		c0.062-12.661,0.157-25.323,0.163-37.984c0.005-9.828-0.111-19.656-0.152-29.484c-0.005-1.328-0.067-2.696,0.212-3.977
		c0.95-4.369,3.848-5.555,10.983-4.644c4.859,0.62,6.234,2.08,6.107,6.607c-0.042,1.493-0.34,2.981-0.353,4.472
		C624.982,641.269,625.01,646.563,625.01,652.438z"/>
	<path style="fill:#231A1A;" d="M485.16,681.353c-2.045,1.07-3.867,1.054-5.701,1.024c-10.814-0.179-21.634,0.353-32.441-0.301
		c-1.47-0.089-2.572,0.375-3.586,1.307c-1.528,7.714,5.304,15.195,13.356,14.358c3.446-0.358,6.739-1.257,9.261-4.219
		c2.727-3.203,10.671-4.656,14.409-3.107c1.846,0.765,2.865,2.184,3.368,4.501c-2.7,6.843-8.349,11.277-15.005,13.991
		c-11.596,4.73-22.87,3.011-33.036-4.156c-5.729-4.039-8.201-10.397-9.306-17.071c-1.225-7.402-1.471-14.897,0.597-22.244
		c3.486-12.379,11.849-18.989,24.265-20.273c17.727-1.834,31.859,8.987,35.199,26.459C487.18,674.96,487.101,678.216,485.16,681.353
		z M468.1,670.997c-2.014-5.011-4.026-7.949-6.797-10.14c-5.684-4.494-14.303-2.315-17.043,4.309
		c-1.34,3.238,0.177,5.786,3.582,5.815C454.434,671.037,461.026,670.997,468.1,670.997z"/>
	<path style="fill:#231A1A;" d="M1407.463,681.496c-1.168,0.985-2.521,0.889-3.844,0.879c-10.812-0.077-21.625-0.133-32.437-0.258
		c-3.653-0.042-5.91,2.463-5.056,6.078c1.441,6.097,11.143,13.939,18.926,8.003c6.607-5.039,13.689-6.121,21.53-5.013
		c-3.253,12.418-12.029,19.476-24.564,19.724c-3.977,0.079-7.929,0.155-11.904-0.726c-7.24-1.606-12.837-5.302-16.393-11.837
		c-5.537-10.175-7.536-21.032-4.287-32.211c3.739-12.868,13.627-19.699,26.782-21.011c3.289-0.328,6.65-0.357,9.945,0.324
		c8.958,1.85,15.209,7.001,18.865,15.379c2.293,5.253,3.202,10.77,3.351,16.448C1408.415,678.767,1408.481,680.282,1407.463,681.496
		z M1389.029,671.227c1.79-4.16,1.249-7.115-1.519-9.655c-4.5-4.129-13.859-3.963-18.151,0.328
		c-2.845,2.844-3.083,4.883-0.929,8.912C1375.153,671.835,1381.979,669.795,1389.029,671.227z"/>
	<path style="fill:#251D1D;" d="M340.409,711.009c-22.289,0.455-33.649-16.331-31.98-37.103c0.265-3.303,0.834-6.597,1.967-9.729
		c4.338-11.989,13.444-17.724,25.648-18.98c4.609-0.474,9.286-0.364,13.886,0.797c10.893,2.749,18.077,9.23,21.191,20.183
		c2.052,7.22,2.235,14.456,0.448,21.661C367.627,703.733,354.533,711.767,340.409,711.009z M355.29,677.688
		c-0.086-1.704-0.004-3.561-0.3-5.354c-1.667-10.11-7.636-14.475-16.835-13.437c-4.112,0.464-7.065,2.759-9.471,5.857
		c-5.143,6.624-5.309,19.091-0.34,25.821c3.701,5.012,8.781,6.816,14.873,6.005c6.421-0.854,9.95-4.712,11.402-10.837
		C355.243,683.115,355.107,680.461,355.29,677.688z"/>
	<path style="fill:#251D1D;" d="M910.137,651.079c2.157-0.581,3.475-1.915,4.997-2.906c7.973-5.192,19.747-4.578,27.083,1.356
		c5.29,4.278,6.628,10.157,6.673,16.487c0.057,8.156-0.109,16.313-0.126,24.469c-0.008,3.993,0.201,7.989,0.138,11.98
		c-0.081,5.164-2.3,7.304-7.391,7.21c-1.481-0.027-2.956-0.421-4.433-0.657c-2.68-0.428-4.064-2.116-4.365-4.704
		c-0.153-1.314-0.216-2.673-0.066-3.983c0.965-8.458-0.389-16.934,0.267-25.404c0.189-2.437-0.396-4.963-0.825-7.414
		c-0.919-5.256-3.906-8.069-9.246-8.92c-5.055-0.806-9.168,1.234-11.432,5.967c-1.663,3.475-2.428,7.209-2.414,11.098
		c0.031,8.657,0.028,17.314,0.003,25.972c-0.016,5.573-1.222,6.927-6.798,7.728c-1.13,0.162-2.216,0.37-3.432,0.202
		c-5.651-0.78-7.746-2.87-7.467-8.512c0.707-14.304,0.115-28.612,0.308-42.917c0.031-2.33,0.011-4.645,0.93-6.849
		c2.392-5.739,8.18-7.235,12.926-3.283C906.868,649.165,908.133,650.49,910.137,651.079z"/>
	<path style="fill:#251D1D;" d="M1070.248,677.479c0.191-7.308-0.118-16.123,0.295-24.947c0.302-6.466-0.245-12.967-0.274-19.453
		c-0.031-6.857,2.192-8.855,9.095-8.462c8.83,0.503,9.947,2.059,9.727,11.02c-0.274,11.152-0.069,22.315-0.086,33.473
		c-0.008,5.329-0.095,10.658-0.066,15.987c0.037,6.898,2.084,8.956,9.103,8.48c8.486-0.576,16.968-0.22,25.45-0.305
		c6.133-0.062,7.509,1.445,7.515,7.682c0.001,0.999,0.052,2.005-0.04,2.996c-0.324,3.483-1.855,5.173-5.327,5.38
		c-3.319,0.198-6.672,0.23-9.989,0.013c-11.813-0.776-23.617-0.054-35.424,0.031c-0.833,0.006-1.666,0.02-2.498,0.003
		c-5.834-0.121-7.425-1.642-7.467-7.404C1070.205,694.311,1070.248,686.649,1070.248,677.479z"/>
	<path style="fill:#251D1D;" d="M1333.144,644.55c2.298,3.22,5.427,2.128,8.355,2.667c2.757,2.898,1.204,6.378,1.209,9.421
		c-1.99,2.402-4.573,1.373-6.952,1.926c-3.321,4.063-3.723,9.13-3.561,14c0.21,6.293,0.956,12.55,0.481,18.882
		c-0.304,4.051,0.735,5.015,4.964,5.885c5.322,1.095,5.866,1.841,5.47,7.4c-0.083,1.16-0.024,2.332-0.154,3.485
		c-0.194,1.722-1.233,2.814-2.962,2.737c-4.625-0.207-9.254,0.388-13.885-0.751c-4.939-1.215-7.736-4.262-8.996-8.923
		c-0.78-2.886-1.08-5.859-1.061-8.876c0.056-8.98-0.107-17.963,0.079-26.94c0.081-3.896-1.32-6.423-5.037-7.503
		c-2.782-0.809-4.032-2.535-4.143-5.426c-0.108-2.831,1.348-4.381,3.76-5.155c4.148-1.331,5.753-4.172,5.405-8.361
		c-0.083-0.992-0.053-1.995-0.042-2.992c0.068-5.726,1.314-6.811,7.193-6.377c0.803,0.059,1.624-0.114,2.437-0.178
		c4.648-0.367,6.727,1.421,7.035,6.152C1332.935,638.596,1332.418,641.605,1333.144,644.55z"/>
	<path style="fill:#281F1F;" d="M90.069,649.184c2.922-3.079,6.776-2.705,10.272-2.956c4.496-0.323,5.21,4.523,8.094,6.892
		c2.006-3.086,4.334-5.592,7.592-7.033c1.523-0.674,3.052-1.175,4.79-1.129c4.162,0.112,6.199,2.021,6.048,6.098
		c-0.086,2.317-0.392,4.627-0.653,6.935c-0.072,0.641-0.337,1.261-0.485,1.792c-1.867,1.624-4.047,1.813-6.179,1.975
		c-8.412,0.637-12.973,6.619-12.78,14.266c0.205,8.128-0.536,16.243-0.055,24.387c0.455,7.701-6.486,11.934-13.433,8.447
		c-2.548-1.279-3.222-3.605-3.215-6.262c0.017-6.151,0.005-12.302,0.005-18.454C90.068,672.505,90.069,660.868,90.069,649.184z"/>
	<path style="fill:#241C1C;" d="M401.736,654.646c1.922-1.226,2.75-3.105,4.015-4.579c2.198-2.563,4.579-4.772,8.177-5.215
		c4.963-0.612,7.681,1.763,7.409,6.66c-0.083,1.492-0.266,2.979-0.32,4.471c-0.155,4.318-0.784,5.539-5.141,5.6
		c-10.624,0.149-15.459,7.031-14.945,17.43c0.385,7.805,0.113,15.644,0.064,23.467c-0.03,4.807-1.172,6.078-5.902,7.015
		c-1.822,0.361-3.612,0.339-5.435-0.068c-4.226-0.943-5.532-2.408-5.569-6.856c-0.062-7.325,0.075-14.652-0.04-21.975
		c-0.148-9.474,0.472-18.955-0.365-28.424c-0.248-2.81,1.02-4.333,3.691-5.129c5.379-1.604,8.795-0.424,12.078,4.202
		C400.199,652.296,400.892,653.385,401.736,654.646z"/>
	<path style="fill:#281F1F;" d="M681.248,698.915c0-14.276-0.007-28.551,0.01-42.827c0.002-1.488-0.049-3.016,0.255-4.456
		c0.72-3.403,2.667-4.891,7.004-4.965c3.718-0.064,8.01-0.838,9.991,3.617c0.999,2.247,0.961,4.85,0.857,7.355
		c-0.575,13.946-0.688,27.893,0.028,41.836c0.388,7.561-1.852,10.246-9.212,10.244c-7.179-0.002-9.75-2.869-8.997-9.31
		c0.057-0.492,0.008-0.996,0.008-1.495C681.211,698.914,681.229,698.915,681.248,698.915z"/>
	<path style="fill:#292121;" d="M875.93,678.006c0,7.156,0,14.312,0,21.468c0,0.333,0.003,0.666,0,0.999
		c-0.058,7.75-4.861,11.117-12.174,8.64c-2.112-0.715-3.283-1.968-3.779-4.143c-0.571-2.505-0.02-4.956-0.034-7.429
		c-0.083-14.306,0.428-28.618-0.242-42.919c-0.246-5.254,1.426-7.317,6.605-7.9c0.33-0.037,0.659-0.085,0.99-0.105
		c6.362-0.386,8.558,1.612,8.61,7.928c0.021,2.493-0.131,4.987-0.142,7.481c-0.024,5.327-0.007,10.654-0.007,15.981
		C875.815,678.006,875.872,678.006,875.93,678.006z"/>
	<path style="fill:#292121;" d="M1298.006,677.991c0,8.161,0.033,16.321-0.012,24.482c-0.029,5.287-2.154,7.338-7.795,7.237
		c-6.113-0.109-8.209-2.616-8.198-7.094c0.041-16.486,0.003-32.973,0.099-49.458c0.025-4.203,1.405-5.458,5.38-6.525
		c2.423-0.651,4.695-0.209,6.859,0.512c2.909,0.969,3.722,3.419,3.694,6.365C1297.954,661.669,1298.005,669.83,1298.006,677.991z"/>
	<path style="fill:#231A1A;" d="M1142.732,677.494c0-7.823-0.045-15.648,0.015-23.471c0.043-5.689,1.376-7.004,7.04-7.278
		c0.665-0.032,1.333-0.028,1.998-0.004c6.46,0.237,7.595,1.697,7.432,8.286c-0.363,14.645-0.412,29.294,0.03,43.94
		c0.03,0.999-0.019,2,0.026,2.998c0.232,5.254-1.547,8.024-8.931,7.66c-5.978-0.295-7.544-2.185-7.594-8.16
		C1142.681,693.474,1142.732,685.484,1142.732,677.494z"/>
	<path style="fill:#292121;" d="M690.183,638.57c-0.442,0.071-0.765,0.16-1.091,0.169c-6.7,0.191-10.039-4.971-7.404-11.251
		c0.896-2.135,2.543-3.094,4.558-3.269c2.625-0.228,5.309-0.271,7.924,0.01c3.22,0.346,4.459,1.871,5.067,5.149
		c0.279,1.505,0.13,2.957-0.134,4.429c-0.644,3.586-1.966,4.792-5.62,4.943C692.348,638.797,691.205,638.631,690.183,638.57z"/>
	<path style="fill:#352D2D;" d="M1150.765,638.926c-7.008-0.069-9.613-3.034-8.318-9.558c0.777-3.917,2.38-5.256,6.502-5.376
		c1.331-0.039,2.665-0.037,3.996,0c4.77,0.133,6.659,2.01,6.621,6.722c-0.011,1.314-0.261,2.649-0.577,3.931
		c-0.749,3.041-2.1,4.11-5.238,4.273C1152.758,638.969,1151.76,638.926,1150.765,638.926z"/>
	<path style="fill:#352D2D;" d="M1289.776,638.92c-2.173,0.105-4.349,0.276-6.134-1.354c-1.609-1.469-2.463-7.425-1.313-9.998
		c1.136-2.542,3.25-3.668,6.024-3.578c0.665,0.021,1.332-0.004,1.997-0.001c6.322,0.031,8.634,2.677,7.903,9.046
		c-0.489,4.259-2.12,5.743-6.485,5.882C1291.104,638.939,1290.44,638.92,1289.776,638.92z"/>
	<path style="fill:#292121;" d="M867.659,624.028c6.516,0.042,8.545,1.904,8.264,7.614c-0.257,5.224-2.179,7.045-7.502,7.13
		c-1.669,0.027-3.283-0.08-4.907-0.642c-2.137-0.74-3.367-2.07-3.51-4.311c-0.085-1.322-0.097-2.658-0.01-3.98
		c0.302-4.575,1.604-5.776,6.167-5.81C866.66,624.025,867.159,624.028,867.659,624.028z"/>
	<path style="fill:#377DC0;" d="M722.354,126.23c6.271,9.928,9.053,20.649,12.044,31.352c4.359,15.599,9.112,31.088,13.833,46.583
		c0.646,2.119,1.064,4.187,0.944,6.344c-0.155,2.794-1.466,4.145-4.294,4.562c-1.146,0.169-2.324,0.156-3.487,0.157
		c-12.153,0.01-24.306,0.008-36.459,0.002c-0.998-0.001-2.002-0.002-2.992-0.108c-4.058-0.43-5.683-2.493-4.765-6.397
		c0.832-3.538,1.904-7.022,2.955-10.504c6.978-23.108,13.975-46.21,20.986-69.308C721.356,128.131,721.802,127.413,722.354,126.23z"
		/>
</g>
</svg>
