<?xml version="1.0" encoding="iso-8859-1"?>
<!-- Generator: Adobe Illustrator 27.0.0, SVG Export Plug-In . SVG Version: 6.00 Build 0)  -->
<svg version="1.1" id="Layer_1" xmlns="http://www.w3.org/2000/svg" xmlns:xlink="http://www.w3.org/1999/xlink" x="0px" y="0px"
	 viewBox="0 0 1495 210" style="enable-background:new 0 0 1495 210;" xml:space="preserve">
<g>
	<path style="fill:#437690;" d="M34.801,207.895c14.074-19.726,28.112-39.477,42.23-59.171
		c17.893-24.959,35.862-49.864,53.779-74.806c16.852-23.459,33.677-46.937,50.52-70.401C182.189,2.321,183.109,1.171,184,0
		c2.333,0,4.667,0,7,0c4.834,1.804,8.017,5.417,10.949,9.499c27.35,38.075,54.774,76.098,82.173,114.138
		c0.854,1.185,2.16,2.153,1.913,4.185c-7.972,1.02-16.031,1.058-24.099,0.859c-3.112-0.077-4.529-2.492-6.071-4.634
		c-8.548-11.873-17.067-23.767-25.595-35.655c-12.305-17.152-24.6-34.31-36.932-51.442c-0.855-1.187-1.602-2.552-3.304-3.286
		c-1.87,0.712-2.789,2.575-3.916,4.138c-35.869,49.767-71.718,99.549-107.554,149.341c-4.464,6.203-8.837,12.472-13.259,18.705
		c-1.07,1.507-2.211,2.94-4.194,3.291c-7.277-0.044-14.555-0.039-21.83-0.171C37.766,208.94,35.906,209.828,34.801,207.895z"/>
	<path style="fill:#437690;" d="M1014,210c-1.334-1.93-0.997-4.133-0.998-6.27c-0.008-30.497,0.004-60.993-0.029-91.49
		c-0.002-1.782,0.485-3.657-0.833-5.849c-10.15-0.594-20.597-0.168-31.029-0.247c-10.301-0.079-20.603-0.017-31.387-0.017
		c-0.77-6.153-0.549-11.815-0.181-17.806c49.672,0,98.736,0,148.18,0c0,5.796,0,11.372,0,17.101
		c-1.486,1.291-3.404,0.669-5.153,0.675c-16.665,0.051-33.33,0.018-49.994,0.049c-1.782,0.003-3.673-0.445-5.263,0.678
		c-1.018,1.82-0.546,3.694-0.547,5.484c-0.034,30.33-0.031,60.66-0.013,90.99c0.002,2.642,0.375,5.374-2.752,6.702
		C1027.333,210,1020.667,210,1014,210z"/>
	<path style="fill:#F26F2A;" d="M1495,149c-2.479,0.616-3.556,2.837-4.97,4.565c-1.963,2.4-4.256,3.378-7.359,3.35
		c-12.493-0.111-24.988-0.046-37.482-0.046c-38.149,0-76.298,0.007-114.447-0.019c-1.939-0.001-4.005,0.491-6.326-1.223
		c0.673-5.205-0.137-10.717,0.246-15.963c2.002-1.191,3.708-0.79,5.338-0.79c50.643-0.022,101.286,0.025,151.929-0.099
		c4.05-0.01,7.018,1.049,9.412,4.296c0.897,1.216,1.639,2.973,3.659,2.929C1495,147,1495,148,1495,149z"/>
	<path style="fill:#C5284E;" d="M0,155c3.384-2.344,5.405-5.84,7.447-9.225c2.949-4.889,6.921-7.095,12.748-7.01
		c15.82,0.231,31.646,0.075,47.47,0.087c1.303,0.001,2.605,0.115,4.488,0.204c-3.969,5.495-7.626,10.613-11.347,15.685
		c-1.578,2.152-3.948,2.152-6.334,2.146c-11.829-0.03-23.658-0.027-35.486-0.008C12.657,156.89,6.329,156.958,0,157
		C0,156.333,0,155.667,0,155z"/>
	<path style="fill:#98ACBD;" d="M441.086,209.103c-0.101,0.292-0.129,0.591-0.086,0.897c-41,0-82,0-123,0
		c0.063-0.325,0.052-0.647-0.033-0.966c38.385-0.009,76.77-0.02,115.155-0.023C435.777,209.01,438.432,209.071,441.086,209.103z"/>
	<path style="fill:#98ACBD;" d="M651,210c-0.001-0.303-0.028-0.604-0.083-0.902c0.829-0.031,1.659-0.09,2.488-0.09
		c40.205,0.001,80.41,0.007,120.615,0.013c-0.031,0.326-0.038,0.653-0.02,0.98C733,210,692,210,651,210z"/>
	<path style="fill:#98ACBD;" d="M603.07,209.081c-0.112,0.3-0.136,0.606-0.07,0.919c-37.667,0-75.333,0-113,0
		c0.019-0.317,0.002-0.633-0.05-0.946c22.094-0.016,44.189-0.045,66.283-0.043C571.845,209.012,587.458,209.056,603.07,209.081z"/>
	<path style="fill:#B6C1CD;" d="M1282.064,209.077c-0.065,0.305-0.086,0.612-0.064,0.923c-32.333,0-64.667,0-97,0
		c0.044-0.32,0.03-0.637-0.042-0.952c6.639-0.015,13.278-0.047,19.917-0.042C1230.605,209.023,1256.334,209.052,1282.064,209.077z"
		/>
	<path style="fill:#98ACBD;" d="M34.801,207.895c1.105,1.934,2.965,1.045,4.48,1.072c7.275,0.132,14.553,0.127,21.83,0.171
		c-0.08,0.282-0.117,0.569-0.111,0.862c-9,0-18,0-27,0C33.955,209.179,33.847,208.335,34.801,207.895z"/>
	<path style="fill:#98ACBD;" d="M909,210c0.008-0.341,0.017-0.682,0.025-1.023c8.036,0.07,16.072,0.14,24.107,0.209
		c0.077,0.291,0.032,0.562-0.132,0.814C925,210,917,210,909,210z"/>
	<path style="fill:#98ACBD;" d="M816.082,209.097C816.027,209.396,816,209.697,816,210c-7,0-14,0-21,0
		c-0.041-0.286-0.078-0.573-0.111-0.861C801.954,209.125,809.018,209.111,816.082,209.097z"/>
	<path style="fill:#B6C1CD;" d="M1136.093,209.119c-0.041,0.292-0.072,0.586-0.093,0.881c-7,0-14,0-21,0
		c-0.021-0.295-0.052-0.588-0.093-0.881C1121.969,209.119,1129.031,209.119,1136.093,209.119z"/>
	<path style="fill:#437791;" d="M441.086,209.103c-2.655-0.032-5.309-0.093-7.964-0.093c-38.385,0.003-76.77,0.014-115.155,0.023
		c-3.245-2.026-4.705-5.518-6.837-8.438c-7.254-9.934-14.415-19.937-21.591-29.928c-0.652-0.908-1.157-1.921-2.023-3.377
		c9.51,0,18.405,0,27.745,0c3.726,3.519,6.264,8.452,9.621,12.743c2.045,2.615,3.901,5.381,5.786,8.117
		c1.436,2.085,3.269,2.995,5.884,2.988c32.648-0.097,65.296-0.116,97.944-0.127c2.555-0.001,4.887-0.694,7.217-1.645
		c3.65-1.49,5.515-4.132,5.528-8.059c0.02-5.664,0.082-11.328-0.017-16.99c-0.065-3.728-1.394-5.209-4.949-6.536
		c-2.579-0.963-5.225-0.883-7.881-0.884c-22.988-0.007-45.975,0.029-68.962-0.028c-5.475-0.014-10.977,0.167-16.403-0.902
		c-8.329-1.641-15.928-4.526-21.289-11.668c-2.488-3.315-3.842-7.089-4.249-11.016c-0.787-7.6-1.032-15.236,0.269-22.86
		c1.721-10.084,7.844-16.114,17.149-19.487c6.184-2.242,12.551-2.971,19.086-2.959c25.319,0.047,50.639,0.019,75.959,0.019
		c7.496,0,14.992-0.022,22.488,0.018c1.634,0.009,3.318-0.336,5.291,0.556c0,5.548,0,11.243,0,17
		c-1.842,0.963-3.705,0.534-5.482,0.536c-31.316,0.031-62.633,0.048-93.949-0.018c-3.024-0.006-5.978,0.355-8.904,0.898
		c-5.904,1.095-8.556,4.359-8.645,10.347c-0.047,3.164,0.148,6.339-0.041,9.493c-0.38,6.35,2.661,10.241,10.588,11.178
		c2.963,0.35,5.988,0.241,8.984,0.244c22.321,0.017,44.642,0.02,66.964,0.002c5.996-0.005,11.967,0.49,17.76,1.932
		c8.386,2.088,15.529,6.001,18.437,14.956c0.408,1.255,0.774,2.557,0.901,3.863c1.006,10.285,1.599,20.64-0.7,30.771
		c-1.538,6.775-6.1,11.789-12.351,14.917C452.221,207.226,446.803,208.786,441.086,209.103z"/>
	<path style="fill:#7895A9;" d="M1282.064,209.077c-25.729-0.025-51.459-0.054-77.188-0.072c-6.639-0.005-13.278,0.027-19.917,0.042
		c-5.792-0.65-11.375-1.962-16.521-4.859c-8.256-4.647-11.973-11.778-12.58-21.125c-1.09-16.784-0.605-33.574-0.645-50.361
		c-0.017-6.956,0.201-13.943,0.873-20.861c0.764-7.875,4.774-14.033,11.633-18.124c6.408-3.822,13.509-5.555,20.864-5.588
		c30.309-0.133,60.619-0.107,90.928-0.014c6.337,0.019,12.49,1.447,18.212,4.253c9.333,4.578,14.291,11.98,14.288,22.546
		c-0.006,21.817-0.404,43.646,0.225,65.445c0.414,14.329-9.623,24.664-20.925,27.077
		C1288.242,208.093,1285.256,209.144,1282.064,209.077z M1233.488,190.998c14.324,0,28.65,0.078,42.973-0.03
		c8.217-0.062,12.51-4.579,12.508-12.793c-0.005-19.488-0.029-38.975-0.047-58.463c-0.001-0.999,0.081-2.008-0.029-2.996
		c-0.567-5.123-3.367-8.846-7.977-9.531c-3.085-0.458-6.153-1.165-9.35-1.154c-25.651,0.084-51.302,0.084-76.952-0.007
		c-2.721-0.01-5.306,0.52-7.838,1.164c-4.967,1.263-7.737,4.985-7.751,10.233c-0.056,20.987-0.048,41.974-0.005,62.961
		c0.01,4.632,2.358,7.925,6.679,9.49c2.172,0.786,4.425,1.188,6.813,1.172C1206.171,190.952,1219.829,190.999,1233.488,190.998z"/>
	<path style="fill:#437791;" d="M603.07,209.081c-15.613-0.025-31.225-0.069-46.838-0.07c-22.094-0.002-44.189,0.027-66.283,0.043
		c-0.636-0.356-0.924-0.917-0.924-1.627c-0.003-5.153-0.002-10.306-0.002-15.302c1.913-1.797,4.021-1.092,5.923-1.095
		c33.315-0.047,66.629-0.05,99.944-0.008c3.216,0.004,6.259-0.409,9.183-1.816c3.133-1.508,4.997-3.853,5.042-7.368
		c0.075-5.993,0.049-11.987,0.032-17.98c-0.009-3.295-1.846-5.076-4.863-6.095c-2.436-0.823-4.892-0.87-7.386-0.87
		c-23.487-0.001-46.974,0.003-70.46-0.003c-6.648-0.002-13.291-0.142-19.76-1.93c-1.751-0.484-3.463-1.128-5.158-1.788
		c-9.341-3.637-14.996-10.432-16.109-20.359c-0.85-7.579-1.025-15.227,0.427-22.858c1.837-9.655,7.729-15.547,16.583-18.852
		c6.124-2.286,12.514-3.142,19.052-3.123c16.324,0.046,32.648,0.015,48.972,0.015c16.491,0,32.982-0.014,49.472,0.02
		c1.795,0.004,3.654-0.394,5.79,0.648c0,5.4,0,10.971,0,16.758c-1.363,1.341-3.302,0.671-5.043,0.674
		c-31.482,0.043-62.965,0.062-94.447-0.015c-3.196-0.008-6.312,0.433-9.384,1.016c-5.297,1.005-7.852,4.325-8.081,9.82
		c-0.144,3.447-0.17,6.891-0.147,10.344c0.038,5.798,2.96,9.724,10.142,10.695c2.953,0.399,5.984,0.287,8.98,0.29
		c23.32,0.02,46.64,0,69.961,0.018c6.515,0.005,12.93,1.01,19.088,3.024c9.197,3.008,15.005,9.371,15.823,19.142
		c0.705,8.426,0.868,16.907-0.347,25.388c-1.739,12.139-9.239,18.693-20.36,21.82C609.06,208.433,606.107,209.2,603.07,209.081z"/>
	<path style="fill:#42758F;" d="M816.082,209.097c-7.064,0.014-14.129,0.028-21.193,0.042c-1.401-0.951-0.867-2.409-0.868-3.658
		c-0.027-37.786-0.024-75.573-0.013-113.359c0-1.138-0.239-2.344,0.668-3.417c1.016-1.052,2.421-0.693,3.709-0.692
		c35.122,0.02,70.245-0.083,105.365,0.195c9.312,0.074,17.994,2.872,24.84,9.787c3.788,3.826,5.967,8.529,6.207,13.77
		c0.294,6.421,0.84,12.808,0.476,19.319c-0.827,14.833-10.091,23.068-23.254,25.83c-1.941,0.407-3.889,0.683-6.169,1.505
		c3.78,6.826,7.446,13.458,11.122,20.083c5.151,9.285,10.304,18.57,15.475,27.844c0.502,0.901,0.817,1.806,0.685,2.84
		c-8.036-0.07-16.072-0.14-24.107-0.209c-4.428-6.619-7.858-13.81-11.816-20.698c-4.957-8.628-9.752-17.355-14.403-26.151
		c-1.623-3.069-3.687-4.113-7.144-4.081c-17.809,0.167-35.62,0.068-53.43,0.094c-1.609,0.002-3.378-0.482-4.74,1.104
		c-0.872,1.464-0.475,3.17-0.474,4.801c0.007,13.315,0.097,26.63,0.063,39.945C817.078,205.701,817.855,207.686,816.082,209.097z
		 M818.019,139.432c1.348,0.932,2.895,0.553,4.359,0.554c24.666,0.023,49.333,0.019,73.999,0.01
		c1.498-0.001,3.008,0.011,4.493-0.155c7.332-0.82,10.998-4.819,11.114-12.184c0.058-3.664,0.013-7.333-0.113-10.996
		c-0.154-4.459-2.377-7.497-6.603-9.008c-2.997-1.072-6.074-1.557-9.277-1.552c-24.5,0.038-48.999,0.011-73.499,0.042
		c-1.611,0.002-3.358-0.508-4.776,0.743C816.681,111.057,816.919,136.537,818.019,139.432z"/>
	<path style="fill:#41758F;" d="M774.02,209.02c-40.205-0.006-80.41-0.012-120.615-0.013c-0.829,0-1.659,0.059-2.488,0.09
		c-1.289-0.717-1.032-1.975-1.032-3.1c-0.01-38.32-0.007-76.639,0.001-114.959c0-0.819-0.028-1.666,0.799-2.703
		c40.94,0,82.143,0,123.325,0c1.735,2.867,0.651,5.753,0.835,8.495c0.188,2.798,0.042,5.617,0.042,8.928
		c-5.779,0.742-11.392,0.258-16.97,0.346c-5.497,0.087-10.996,0.019-16.494,0.019c-5.665,0-11.329,0-16.994,0s-11.329,0-16.994,0
		c-5.498,0-10.996,0-16.494,0c-5.628,0-11.256,0-16.637,0c-1.569,3.811-1.828,27.089-0.459,32.493
		c5.072,0.797,10.368,0.273,15.624,0.363c5.33,0.091,10.663,0.02,15.994,0.02s10.663,0,15.994,0c5.165,0,10.33,0,15.494,0
		c5.331,0,10.665-0.094,15.994,0.027c5.294,0.12,10.615-0.585,16.329,0.224c0.815,5.907,0.549,11.59,0.109,17.942
		c-32.105,0-63.818,0-95.316,0c-1.259,4.054-1.242,29.296-0.01,33.839c33.201,0,66.585,0,99.184,0
		c1.806,1.503,1.741,2.674,1.732,3.853c-0.027,3.664-0.023,7.328-0.034,10.992C774.938,207.013,775.261,208.247,774.02,209.02z"/>
	<path style="fill:#F26F2A;" d="M294.945,138.853c4.191,5.766,8.177,11.252,12.014,16.532c-0.22,0.586-0.253,0.758-0.344,0.893
		c-0.084,0.124-0.219,0.279-0.349,0.298c-0.812,0.117-1.63,0.283-2.446,0.282c-62.958-0.023-125.917-0.06-188.875-0.122
		c-0.241,0-0.482-0.373-0.736-0.583c-0.433-1.153,0.421-1.859,0.983-2.64c2.239-3.104,4.841-6.003,6.676-9.327
		c2.439-4.419,5.859-5.443,10.674-5.429c52.136,0.153,104.272,0.096,156.409,0.096C290.774,138.853,292.596,138.853,294.945,138.853
		z"/>
	<path style="fill:#7994A8;" d="M1136.093,209.119c-7.062,0-14.124,0-21.186,0c-1.767-1.43-0.935-3.412-0.939-5.119
		c-0.041-21.313,0.023-42.626,0.026-63.939c0.003-15.318-0.061-30.637-0.046-45.955c0.002-1.78-0.49-3.669,0.919-5.71
		c6.977,0,14.202,0,21.487,0c1.105,1.038,0.701,2.449,0.702,3.725c0.021,37.631,0.025,75.263-0.012,112.894
		C1137.043,206.405,1137.724,208.063,1136.093,209.119z"/>
	<path style="fill:#C62C50;" d="M1320.628,198.273c2.916-5.003,3.554-10.593,3.936-15.998c4.031-1.193,135.852-1.358,139.877-0.307
		c0.242,0.968-0.456,1.475-0.991,2.091c-3.493,4.023-7.014,8.023-10.432,12.109c-1.827,2.184-3.912,3.283-6.878,3.278
		c-40.661-0.067-81.322-0.044-121.982-0.048C1323.173,199.399,1322.163,199.478,1320.628,198.273z"/>
	<path style="fill:#C5274F;" d="M1449.305,96.28c4.578,5.292,9.333,10.79,13.927,16.101c-0.238,0.632-0.272,0.804-0.362,0.939
		c-0.082,0.123-0.224,0.294-0.34,0.295c-44.632,0.094-89.264,0.177-133.896,0.251c-0.83,0.001-1.664-0.061-2.487-0.164
		c-0.31-0.039-0.623-0.243-0.882-0.44c-0.259-0.197-0.454-0.478-1.001-1.079c-0.22-5.453-2.5-10.715-5.797-15.76
		C1323.036,95.714,1444.09,95.636,1449.305,96.28z"/>
</g>
</svg>
