<?xml version="1.0" encoding="iso-8859-1"?>
<!-- Generator: Adobe Illustrator 27.0.0, SVG Export Plug-In . SVG Version: 6.00 Build 0)  -->
<svg version="1.1" id="Layer_1" xmlns="http://www.w3.org/2000/svg" xmlns:xlink="http://www.w3.org/1999/xlink" x="0px" y="0px"
	 viewBox="0 0 1473 1241" style="enable-background:new 0 0 1473 1241;" xml:space="preserve">
<g>
	<path style="fill:#D6BB7D;" d="M1014,0c10.664,2.432,15.89,10.214,19.805,19.598c6.877,16.484,14.07,32.836,21.086,49.263
		c7.473,17.497,14.837,35.041,22.356,52.518c6.802,15.811,13.8,31.538,20.618,47.342c7.863,18.228,15.578,36.519,23.444,54.745
		c6.033,13.979,12.252,27.878,18.297,41.853c7.883,18.222,15.651,36.494,23.515,54.725c5.769,13.372,11.643,26.698,17.417,40.068
		c6.888,15.949,13.694,31.934,20.583,47.883c5.775,13.371,11.644,26.702,17.424,40.071c7.222,16.705,14.38,33.437,21.594,50.145
		c6.495,15.042,13.143,30.02,19.519,45.112c8.433,19.963,17.326,39.726,25.536,59.786c6.14,15.002,12.796,29.792,19.161,44.702
		c6.3,14.759,12.484,29.567,18.787,44.324c7.215,16.891,14.538,33.735,21.757,50.625c7.542,17.647,14.974,35.342,22.532,52.983
		c6.65,15.523,13.425,30.993,20.113,46.5c6.812,15.797,13.557,31.623,20.384,47.414c6.043,13.978,12.175,27.917,18.229,41.89
		c1.516,3.499,2.696,7.13,2.818,10.978c0.149,4.658-2.201,7.569-6.729,8.434c-3.42,0.653-6.855,1.017-10.371,1.014
		c-62.991-0.054-125.983-0.038-188.974-0.042c-393.782-0.024-787.565-0.053-1181.347-0.013c-4.019,0-7.912-0.743-11.865-1.073
		c-4.575-0.382-6.722-3.713-5.375-8.154c1.34-4.419,3.009-8.767,4.882-12.992c10.001-22.561,20.128-45.065,30.177-67.605
		c9.231-20.705,18.482-41.401,27.608-62.152c11.257-25.597,22.392-51.248,33.584-76.875c13.045-29.87,25.558-59.964,38.073-90.059
		c12.513-30.09,25.25-60.088,38.003-90.078c12.174-28.63,24.467-57.209,36.758-85.789c9.609-22.344,19.28-44.661,28.949-66.979
		c9.934-22.927,19.907-45.837,29.85-68.76c11.455-26.411,22.862-52.843,34.354-79.238c8.789-20.187,17.718-40.312,26.511-60.497
		c10.507-24.119,20.942-48.269,31.395-72.411c8.875-20.498,17.76-40.992,26.583-61.512c4.574-10.637,9.011-21.333,13.535-31.992
		c3.098-7.299,7.439-13.306,15.856-15.015C440.66,0.691,440.812,0.255,441,0c31,0,62,0,93,0c1.556,1.947,3.709,0.947,5.542,0.948
		C662.512,1.005,785.482,1,908.452,0.999c1.333,0,2.666-0.006,3.999,0C913.191,1.002,913.695,0.661,914,0
		C947.333,0,980.667,0,1014,0z M737.335,525.931c54.664,0,109.329,0,163.993,0c10,0,20-0.05,29.999,0.018
		c10.421,0.071,18.081,4.467,22.363,14.301c1.796,4.124,2.977,8.441,4.066,12.73c8.238,32.453,17.177,64.719,25.789,97.072
		c5.685,21.359,11.62,42.652,17.301,64.012c6.233,23.437,12.142,46.96,18.489,70.366c6.476,23.881,12.615,47.846,18.87,71.783
		c1.746,6.681,3.017,13.513,6.1,19.856c2.556,5.259,6.617,8.115,11.98,9.608c2.284,0.636,4.631,0.448,6.95,0.449
		c13.499,0.007,26.999-0.055,40.498-0.057c65.331-0.008,130.663-0.003,195.994-0.003c6.666,0,13.332-0.063,19.996,0.046
		c2.228,0.036,4.347-0.391,6.295-1.231c2.573-1.11,4.149-3.032,4.157-6.179c0.01-3.768-1.019-7.182-2.533-10.539
		c-4.495-9.961-9.048-19.897-13.428-29.909c-7.361-16.828-14.605-33.707-21.9-50.564c-5.719-13.215-11.478-26.412-17.154-39.645
		c-7.569-17.646-15.039-35.334-22.62-52.974c-5.75-13.38-11.642-26.699-17.408-40.073c-6.878-15.953-13.653-31.952-20.541-47.901
		c-6.757-15.648-13.653-31.237-20.39-46.893c-6.54-15.199-12.898-30.475-19.439-45.673c-6.806-15.812-13.778-31.553-20.6-47.358
		c-6.886-15.953-13.64-31.963-20.521-47.918c-5.767-13.371-11.682-26.679-17.444-40.052c-7.727-17.932-15.348-35.911-23.057-53.851
		c-5.618-13.074-11.337-26.104-16.954-39.178c-7.709-17.944-15.371-35.907-23.039-53.869c-5.394-12.635-10.774-25.275-16.141-37.921
		c-6.851-16.143-13.695-32.289-20.519-48.443c-5.858-13.87-11.647-27.769-17.536-41.625c-3.625-8.528-6.666-17.319-11.015-25.521
		c-3.061-5.772-7.576-10.008-14.091-11.802c-4.988-1.373-10.126-1.635-15.216-1.846c-6.954-0.288-13.935,0.511-20.873,0.57
		c-37.497,0.317-74.997,0.205-112.496,0.211c-73.166,0.012-146.332,0.167-219.496-0.079c-28.459-0.095-56.924,0.723-85.39-0.641
		c-10.415-0.499-20.921-0.793-31.38,0.649c-8.698,1.199-15.743,4.755-20.672,12.175c-3.696,5.564-6.17,11.718-8.769,17.815
		c-6.165,14.457-12.353,28.905-18.48,43.378c-7.805,18.435-15.514,36.911-23.348,55.334c-7.124,16.751-14.406,33.435-21.534,50.185
		c-7.19,16.898-14.224,33.862-21.42,50.757c-7.133,16.746-14.397,33.437-21.58,50.162c-7.967,18.549-15.896,37.115-23.862,55.664
		c-6.399,14.9-12.828,29.787-19.243,44.68c-6.939,16.109-13.85,32.231-20.825,48.324c-5.991,13.822-12.089,27.597-18.08,41.419
		c-8.293,19.129-16.502,38.294-24.801,57.421c-5.996,13.818-12.113,27.584-18.115,41.4c-9.561,22.008-19.023,44.058-28.618,66.051
		c-7.679,17.603-15.534,35.128-23.236,52.721c-8.894,20.315-17.678,40.677-26.562,60.996c-7.361,16.835-14.829,33.624-22.178,50.464
		c-1.724,3.952-2.901,8.024-2.895,12.479c0.005,3.984,2.028,6.207,5.284,7.574c1.799,0.755,3.734,1.258,5.799,1.231
		c4.749-0.062,9.487,0.234,14.254,0.158c18.995-0.301,37.997-0.302,56.995-0.23c57.624,0.22,115.255-0.758,172.869,1.002
		c4.51,0.138,8.954-0.311,13.362-1.058c6.063-1.027,11.204-3.72,15.095-8.697c2.6-3.326,4.382-7.022,5.617-10.976
		c4.972-15.91,8.52-32.204,12.889-48.279c4.714-17.345,9.097-34.781,13.702-52.156c5.411-20.416,10.911-40.808,16.362-61.213
		c5.831-21.828,11.664-43.657,17.473-65.491c5.852-21.996,11.63-44.012,17.531-65.995c2.862-10.664,4.857-21.583,9.061-31.86
		c3.024-7.392,8.444-12.289,16.193-14.176c5.781-1.408,11.723-2.015,17.707-1.986c2.656,0.013,5.177,0.861,7.875,0.857
		C607.673,525.914,672.504,525.931,737.335,525.931z M755.519,886.143c0-0.026,0-0.051,0-0.077c19.663,0,39.326-0.007,58.989,0.001
		c47.657,0.021,95.314,0.052,142.971,0.069c2.832,0.001,5.681,0.092,8.492-0.174c6.082-0.575,9.169-4.194,9.012-10.299
		c-0.034-1.32-0.204-2.6-0.561-3.916c-6.043-22.286-12.038-44.586-17.984-66.899c-8.791-32.99-17.618-65.971-26.276-98.996
		c-8.069-30.78-15.988-61.599-23.83-92.437c-1.032-4.058-2.426-7.88-4.299-11.588c-2.864-5.666-7.789-8.657-13.697-9.663
		c-4.367-0.744-8.836-1.186-13.351-1.213c-4.512-0.027-8.893,0.932-13.38,0.931c-67.82-0.012-135.641,0.132-203.461-0.029
		c-15.619-0.037-31.236,0.378-46.879-0.608c-13.61-0.858-27.339-0.697-40.972-0.056c-9.797,0.46-15.483,2.927-19.636,14.437
		c-2.415,6.695-3.82,13.662-5.591,20.522c-7.996,30.974-15.719,62.018-23.709,92.994c-5.602,21.718-11.267,43.42-17.178,65.059
		c-5.172,18.936-10.345,37.871-15.581,56.789c-2.944,10.638-6.727,21.056-8.259,32.086c-0.895,6.443,2.278,11.803,8.495,12.9
		c3.251,0.574,6.5,1.139,9.858,1.054c16.62-0.421,33.257-0.567,49.868-0.685C617.544,885.86,686.533,886.143,755.519,886.143z"/>
	<path style="fill:#252122;" d="M411,1241c-3.006-2.01-6.568-1.377-9.856-1.979c-13.281-2.431-26.475-5.159-37.759-13.127
		c-13.455-9.502-20.926-22.988-24.089-38.828c-1.06-5.307-0.779-10.926,1.282-16.242c2.119-5.467,5.015-7.546,10.824-7.858
		c5.877-0.315,11.609,0.792,17.386,1.435c3.661,0.408,7.274,0.319,10.938,0.063c7.466-0.521,14.972-1.146,22.41,0.132
		c8.567,1.472,15.538,6.027,19.014,13.846c3.634,8.175,10.302,10.313,17.795,11.528c19.557,3.17,39.101,2.769,58.549-0.994
		c7.894-1.527,14.583-4.882,16.98-13.367c1.53-5.416,1.314-10.952-0.781-16.158c-2.221-5.518-7.067-7.877-12.628-8.409
		c-9.43-0.903-18.898-1.399-28.345-2.125c-10.771-0.828-21.534-1.76-32.307-2.568c-7.13-0.535-14.278-0.829-21.403-1.409
		c-14.902-1.215-29.831-2.37-44.184-7.015c-9.67-3.129-18.246-7.951-24.566-16.227c-4.864-6.369-7.671-13.678-8.884-21.412
		c-2.384-15.198-2.592-30.452,0.436-45.655c3.999-20.078,16.234-32.508,35.451-38.549c9.219-2.898,18.744-4.401,28.248-5.875
		c26.073-4.043,52.331-5.076,78.656-3.896c19.612,0.879,39.108,3.116,58.396,6.825c27.483,5.284,41.61,26.194,45.019,47.854
		c0.812,5.162-0.135,10.291-2.105,15.149c-1.796,4.429-5.126,6.78-9.947,7.091c-5.544,0.358-10.958-0.667-16.342-1.628
		c-4.019-0.717-7.924-0.352-11.914-0.127c-7.441,0.42-14.799,1.782-22.367,0.801c-10.188-1.321-17.327-6.705-21.723-15.522
		c-2.281-4.575-5.592-6.807-10.187-7.672c-11.506-2.165-23.11-2.596-34.772-1.645c-8.444,0.689-16.902,1.29-25.121,3.558
		c-2.89,0.798-5.628,1.862-7.978,3.862c-5.355,4.557-6.11,10.477-4.93,16.832c1.215,6.545,4.959,11.208,11.448,13.211
		c5.61,1.731,11.503,1.585,17.283,2.056c12.924,1.053,25.868,1.858,38.802,2.798c10.28,0.747,20.573,1.378,30.832,2.359
		c16.387,1.567,32.658,3.785,48.165,9.794c15.844,6.139,24.908,17.522,27.396,34.352c2.455,16.607,2.396,33.143-1.208,49.548
		c-2.916,13.269-10.627,23.021-22.717,29.322c-10.406,5.424-21.619,8.356-32.983,10.787c-9.592,2.053-19.273,3.594-29.077,4.259
		c-0.767,0.052-1.702-0.163-2.135,0.825C474.333,1241,442.667,1241,411,1241z"/>
	<path style="fill:#252121;" d="M1296,1241c-3.217-1.934-6.923-1.408-10.395-1.981c-13.443-2.219-26.737-4.764-39.152-10.82
		c-18.17-8.862-28.765-23.47-33.409-42.809c-2.574-10.721-3.285-21.693-3.816-32.621c-0.525-10.787-1.355-21.592-0.941-32.408
		c0.61-15.942,0.716-31.951,2.99-47.753c4.201-29.187,21.008-47.663,49.306-55.502c16.815-4.658,33.993-7.474,51.379-9.204
		c16.586-1.65,33.184-2.293,49.814-1.588c15.6,0.662,31.158,1.954,46.602,4.406c7.37,1.17,14.779,2.069,22.01,4.012
		c16.218,4.357,28.037,13.892,34.966,29.342c2.444,5.45,4.833,10.909,6.577,16.628c0.186,0.611,0.152,1.324,1.07,1.298
		c0,6,0,12,0,18c-2.878,5.005-7.264,8.078-12.714,9.629c-4.475,1.274-9.062,2.087-13.722,2.281
		c-14.649,0.611-29.308,0.367-43.961,0.304c-10.295-0.044-11.291-1.083-13.617-11.176c-1.762-7.644-6.235-13.111-13.59-16.03
		c-4.667-1.852-9.586-2.727-14.567-2.977c-9.619-0.483-19.251-0.635-28.88-0.274c-4.978,0.186-9.963,0.134-14.9,1.168
		c-12.548,2.629-21.003,9.555-23.718,22.436c-0.714,3.39-1.019,6.925-1.022,10.394c-0.007,8.811,0.317,17.623,0.412,26.435
		c0.135,12.49-0.01,24.986,0.324,37.47c0.351,13.125,7.901,22.45,20.132,25.015c4.2,0.881,8.57,1.096,12.877,1.292
		c13.147,0.599,26.302,0.265,39.452-0.011c2.973-0.062,6.017-0.347,8.885-1.085c6.502-1.673,11.339-5.368,13.234-12.185
		c0.502-1.806,0.323-3.635,0.482-5.45c0.713-8.135,4.462-13.501,10.932-14.958c3.545-0.798,7.233-1.43,10.895-0.953
		c4.971,0.648,9.95,0.663,14.939,0.678c10.984,0.031,21.968-0.56,32.952,0.055c5.719,0.32,11.183,1.242,15.176,5.944
		c0,7.667,0,15.333,0,23c-0.706,0.301-0.859,0.914-0.937,1.595c-2.502,21.698-14.355,36.673-33.591,46.09
		c-13.534,6.626-27.944,10.258-42.981,11.364c-0.902,0.067-2.058-0.401-2.49,0.951C1360.667,1241,1328.333,1241,1296,1241z"/>
	<path style="fill:#252121;" d="M733,1241c-0.294-0.716-0.923-0.836-1.594-0.945c-11.25-1.83-15.356-8.432-17.275-17.345
		c-1.406-6.529-1.673-13.213-1.786-19.834c-0.318-18.656-0.113-37.32-0.389-55.977c-0.261-17.657-0.265-35.308,0.327-52.956
		c0.2-5.963,1.079-11.841,0.039-17.889c-1.922-11.179-8.537-13.192-15.467-14.013c-1.806-0.214-3.716-0.298-5.485,0.043
		c-7.286,1.402-14.604,0.801-21.922,0.669c-3.661-0.066-7.314,0.044-10.948,0.726c-1.947,0.365-3.978,0.463-5.964,0.405
		c-9.186-0.266-14.653-4.715-16.282-13.749c-1.542-8.552-1.865-17.178-0.275-25.815c1.808-9.825,7.367-14.862,17.344-15.271
		c8.491-0.348,16.959,0.404,25.438,0.727c17.483,0.666,34.978,0.25,52.468,0.131c1.83-0.012,3.66-0.154,5.49-0.155
		c28.33-0.01,56.66-0.074,84.989,0.026c10.989,0.039,21.958-0.469,32.937-0.666c2.984-0.053,5.962-0.172,8.935,0.605
		c5.812,1.519,8.862,4.346,9.283,10.208c0.738,10.268,1.223,20.581-0.022,30.848c-0.823,6.784-4.452,10.154-11.358,11.228
		c-4.285,0.666-8.581,0.951-12.919,0.935c-9.498-0.035-18.997,0.01-28.495,0.077c-4.827,0.034-9.577,0.686-14.311,1.7
		c-6.936,1.486-10.343,6.022-11.783,12.585c-1.189,5.42-1.057,10.922-1.226,16.407c-0.082,2.664-0.001,5.332-0.016,7.999
		c-0.157,28.482-0.581,56.966-0.349,85.445c0.094,11.473,0.09,22.962,0.507,34.438c0.109,2.992-0.044,5.963-0.748,8.919
		c-1.316,5.527-4.507,8.523-10.145,9.486c-1.337,0.228-3.047-0.784-3.998,1.008C763,1241,748,1241,733,1241z"/>
	<path style="fill:#DFC999;" d="M914,0c-0.305,0.661-0.809,1.002-1.549,0.999c-1.333-0.006-2.666,0-3.999,0
		c-122.97,0-245.94,0.005-368.91-0.051C537.709,0.947,535.556,1.947,534,0C660.667,0,787.333,0,914,0z"/>
	<path style="fill:#666060;" d="M1133.023,1240.015c-0.008,0.328-0.016,0.657-0.023,0.985c-8,0-16,0-24,0
		c0.005-0.298-0.033-0.59-0.115-0.876C1116.931,1240.087,1124.977,1240.051,1133.023,1240.015z"/>
	<path style="fill:#B1ACAC;" d="M975.073,1240.148c-0.053,0.282-0.077,0.566-0.073,0.852c-7.333,0-14.667,0-22,0
		c-0.071-0.313-0.057-0.623,0.043-0.928C960.386,1240.097,967.729,1240.123,975.073,1240.148z"/>
	<path style="fill:#666060;" d="M250.1,1240.071c-0.033,0.309-0.067,0.619-0.1,0.929c-5.667,0-11.333,0-17,0
		c-0.007-0.329-0.015-0.657-0.022-0.986C238.685,1240.033,244.393,1240.052,250.1,1240.071z"/>
	<path style="fill:#B1ACAC;" d="M60,1241c0.004-0.286-0.02-0.57-0.073-0.852c5.379-0.008,10.757-0.017,16.136-0.025
		c-0.091,0.287-0.112,0.579-0.062,0.877C70.667,1241,65.333,1241,60,1241z"/>
	<path style="fill:#807979;" d="M953.043,1240.072c-0.1,0.305-0.115,0.615-0.043,0.928c-5.333,0-10.667,0-16,0
		c-0.014-0.322-0.027-0.643-0.041-0.965C942.321,1240.048,947.682,1240.06,953.043,1240.072z"/>
	<path style="fill:#B1ACAC;" d="M1108.885,1240.124c0.081,0.286,0.12,0.579,0.115,0.876c-5,0-10,0-15,0
		c0.048-0.297,0.027-0.589-0.063-0.876C1098.92,1240.124,1103.902,1240.124,1108.885,1240.124z"/>
	<path style="fill:#8C8686;" d="M281,1241c0.08-0.309,0.048-0.606-0.095-0.892c4.372-0.03,8.743-0.06,13.115-0.089
		c-0.007,0.327-0.013,0.654-0.02,0.981C289.667,1241,285.333,1241,281,1241z"/>
	<path style="fill:#B1ACAC;" d="M9.073,1240.148C9.02,1240.43,8.996,1240.714,9,1241c-3,0-6,0-9,0c0-0.667,0-1.333,0-2
		c0.285-0.062,0.574-0.082,0.865-0.06C3.315,1241.285,6.4,1239.319,9.073,1240.148z"/>
	<path style="fill:#252121;" d="M9.073,1240.148c-2.673-0.829-5.758,1.137-8.208-1.208c24.513-63.139,49.031-126.277,73.534-189.42
		c3.594-9.261,7.115-18.549,10.673-27.824c0.893-2.327,1.878-4.597,3.412-6.604c3.614-4.729,8.777-5.734,14.224-5.796
		c7.647-0.087,15.296,0.224,22.94,0.353c17.814,0.3,35.639,0.258,53.454,0.007c6.142-0.086,12.29-0.384,18.44-0.387
		c11.392-0.005,16.081,3.126,20.341,13.947c5.762,14.638,11.362,29.34,17.061,44.003c18.414,47.377,37.151,94.626,56.163,141.766
		c2.416,5.991,5.065,11.886,7.134,18.019c0.653,1.936,0.966,3.861,1,5.852c0.076,4.474-0.604,5.365-5.221,7.162
		c-4.372,0.03-8.743,0.06-13.115,0.089c-10.268-0.463-20.535-0.536-30.804-0.037c-5.708-0.019-11.415-0.038-17.123-0.057
		c-11.951-1.846-17.804-9.841-20.819-20.677c-0.311-1.116-0.524-2.264-0.718-3.408c-1.959-11.547-8.259-15.461-19.505-15.616
		c-6.633-0.092-13.273,0.541-19.913,0.608c-10.312,0.105-20.64,0.316-30.936-0.114c-7.13-0.298-14.243-0.96-21.398-0.936
		c-3.537,0.012-6.967,0.55-10.332,1.431c-11.801,3.088-17.63,11.587-20.32,22.826c-0.347,1.451-0.572,2.931-0.872,4.394
		c-1.594,7.768-4.273,10.332-12.104,11.601c-5.379,0.008-10.757,0.017-16.136,0.025C42.976,1240.148,26.024,1240.148,9.073,1240.148
		z M153.727,1059.376c-4.294,5.908-7.484,11.71-9.721,17.978c-5.511,15.445-10.876,30.943-16.314,46.414
		c-2.201,6.261-4.333,12.526-5.205,19.161c-0.934,7.106,2.031,11.614,9.088,13.011c3.409,0.675,6.872,1.05,10.394,1.117
		c10.33,0.194,20.595-0.981,30.9-1.247c2.481-0.064,4.981-0.384,7.422-0.851c4.761-0.911,6.299-3.218,5.901-8.128
		c-0.166-2.041-0.926-3.872-1.624-5.724c-7.715-20.462-15.467-40.91-23.198-61.366
		C158.866,1073.118,156.393,1066.484,153.727,1059.376z"/>
	<path style="fill:#252121;" d="M1108.885,1240.124c-4.983,0-9.965,0-14.948,0c-29.801-0.053-59.603-0.126-89.404-0.149
		c-9.82-0.008-19.64,0.112-29.461,0.173c-7.343-0.025-14.686-0.051-22.029-0.076c-5.361-0.012-10.723-0.025-16.084-0.037
		c-7.755-1.036-10.679-3.857-12.231-11.446c-0.915-4.475-0.668-8.994-0.36-13.435c0.473-6.815,0.556-13.632,0.577-20.44
		c0.062-20.484-0.189-40.969-0.182-61.454c0.008-25.816,0.226-51.632,0.197-77.448c-0.011-9.974-0.463-19.948-0.682-29.923
		c-0.033-1.492,0.008-3,0.19-4.479c0.989-8.038,3.478-11.766,13.888-12.248c7.476-0.346,14.986,0.026,22.48,0.104
		c33.633,0.352,67.265,0.932,100.903,0.726c9.159-0.056,18.332,0.13,27.472-0.326c10.48-0.523,20.959-0.378,31.436-0.651
		c3.827-0.1,7.674-0.158,11.377,1.082c4.224,1.415,7.229,3.994,8.079,8.597c0.241,1.304,0.735,2.598,0.753,3.901
		c0.106,7.986,0.295,15.978,0.092,23.96c-0.203,8.003-3.881,12.019-11.725,13.797c-2.643,0.599-5.301,0.712-7.947,0.533
		c-26.785-1.81-53.593-0.348-80.387-0.64c-4.993-0.054-9.985-0.217-14.978-0.291c-2.331-0.035-4.678-0.142-6.992,0.067
		c-7.047,0.637-13.057,2.796-14.231,12.948c-0.756,6.536-0.256,12.91,1.085,19.27c1.081,5.126,4.345,7.972,9.46,8.953
		c3.13,0.601,6.214,0.859,9.413,0.605c15.79-1.254,31.617-0.749,47.426-0.654c14.157,0.084,28.308,0.086,42.463-0.107
		c3.629-0.05,7.287-0.451,10.88,0.838c3.829,1.373,6.127,3.817,6.626,7.877c0.342,2.785,0.651,5.498,0.357,8.392
		c-0.485,4.775-0.098,9.634-0.155,14.457c-0.099,8.499-3.141,11.649-11.491,12.472c-3.02,0.297-5.978-0.105-8.966-0.091
		c-16.321,0.074-32.641-0.059-48.964,0.213c-13.638,0.227-27.285,0.132-40.914-0.844c-2.748-0.197-5.649,0.354-8.342,1.073
		c-5.571,1.488-7.942,5.874-8.487,11.134c-0.7,6.758-1.119,13.556-0.125,20.359c1.034,7.078,4.764,10.876,11.741,12.27
		c6.826,1.364,13.61,0.117,20.397-0.008c16.493-0.304,32.992-0.223,49.464,0.232c12.989,0.359,25.921-0.611,38.884-0.504
		c1.818,0.015,3.643-0.032,5.462,0.084c8.967,0.57,13.49,5.421,12.68,14.258c-0.656,7.157-0.373,14.229-0.013,21.384
		c0.367,7.288-1.11,13.777-10.547,15.378C1124.977,1240.051,1116.931,1240.087,1108.885,1240.124z"/>
	<path style="fill:#D6BB7D;" d="M733.772,486.962c-27.644,0.367-52.44-3.709-76.429-12.752
		c-18.759-7.072-35.956-16.777-51.842-29.004c-9.949-7.657-18.921-16.326-27.211-25.629c-13.205-14.82-23.746-31.414-31.526-49.781
		c-4.986-11.771-8.964-23.816-11.35-36.333c-1.171-6.145-2.262-12.335-2.564-18.659c-0.253-5.292-0.874-10.563-0.808-15.887
		c0.158-12.774,1.617-25.387,3.72-37.987c1.856-11.122,4.655-21.976,8.377-32.547c7.427-21.091,17.873-40.55,31.897-58.12
		c18.596-23.296,41.398-41.079,68.465-53.354c16.471-7.47,33.711-12.479,51.675-15.023c8.393-1.189,16.828-1.423,25.231-2.154
		c8.175-0.711,16.25,0,24.252,0.592c14.488,1.071,28.712,4.179,42.575,8.752c20.476,6.755,39.472,16.419,56.563,29.521
		c22.826,17.498,41.295,38.79,54.798,64.343c9.898,18.73,16.527,38.535,20.181,59.314c2.628,14.944,3.061,30.126,1.991,45.211
		c-1.005,14.162-3.915,28.061-8.194,41.688c-5.751,18.316-13.933,35.411-24.448,51.417c-9.352,14.235-20.308,27.16-32.955,38.545
		c-20.473,18.431-43.735,32.183-70.143,40.31c-10.899,3.354-22.039,5.549-33.43,6.771
		C745.611,486.946,738.668,486.766,733.772,486.962z M724.235,165.866c-7.813-0.456-17.624,1.012-27.353,3.129
		c-20.485,4.459-38.659,13.774-54.49,27.32c-14.402,12.324-25.639,27.181-33.524,44.605c-6.769,14.956-10.448,30.601-11.731,46.826
		c-0.879,11.111-0.159,22.263,2.04,33.189c4.53,22.508,14.173,42.661,29.338,59.962c16.788,19.153,37.414,32.552,61.88,39.799
		c17.691,5.24,35.787,6.59,54.041,4.126c10.296-1.39,20.355-4.005,30.13-7.746c16.191-6.196,30.418-15.416,42.987-27.23
		c8.637-8.118,15.783-17.476,21.741-27.717c10.674-18.346,16.398-38.219,17.612-59.338c0.571-9.933-0.124-19.838-1.736-29.725
		c-1.904-11.684-5.321-22.819-10.277-33.51c-8.448-18.228-20.328-33.863-36.284-46.11
		C784.424,174.882,757.011,165.564,724.235,165.866z"/>
</g>
</svg>
