<?xml version="1.0" encoding="iso-8859-1"?>
<!-- Generator: Adobe Illustrator 27.0.0, SVG Export Plug-In . SVG Version: 6.00 Build 0)  -->
<svg version="1.1" id="Layer_1" xmlns="http://www.w3.org/2000/svg" xmlns:xlink="http://www.w3.org/1999/xlink" x="0px" y="0px"
	 viewBox="0 0 1600.025 599" style="enable-background:new 0 0 1600.025 599;" xml:space="preserve">
<g>
	<path style="fill:#E7E9F5;" d="M299.037,1.097C299.024,0.731,299.012,0.366,299,0c104.333,0,208.667,0,313,0
		c0,0.316,0.002,0.631,0.007,0.947c-1.999,0.017-3.999,0.05-5.998,0.05C505.85,1,405.691,0.999,305.532,1.003
		C303.367,1.004,301.202,1.064,299.037,1.097z"/>
	<path style="fill:#8C99CD;" d="M609,599c0.029-0.358,0.058-0.717,0.087-1.075c1.332,0.025,2.663,0.072,3.995,0.073
		c93.428,0.003,186.856,0.004,280.284-0.002c1.497,0,2.995-0.071,4.493-0.108c0.047,0.371,0.094,0.742,0.141,1.112
		C801.667,599,705.333,599,609,599z"/>
	<path style="fill:#C0C6E5;" d="M1238,599c0-0.28-0.017-0.559-0.051-0.837c1.327-0.054,2.653-0.156,3.98-0.156
		c79.212-0.008,158.424-0.008,237.636-0.001c1.161,0,2.321,0.093,3.482,0.143c-0.041,0.282-0.057,0.566-0.047,0.851
		C1401.333,599,1319.667,599,1238,599z"/>
	<path style="fill:#AFB8DE;" d="M901,599c0.042-0.386,0.085-0.771,0.127-1.157c1.997,0.041,3.995,0.119,5.992,0.119
		c52.477,0.007,104.955,0.004,157.432,0.01c1.831,0,3.662,0.069,5.492,0.106c0.024,0.309,0.009,0.617-0.044,0.922
		C1013.667,599,957.333,599,901,599z"/>
	<path style="fill:#8B99CD;" d="M157.999,598c0,0.333,0,0.667,0.001,1c-52.667,0-105.333,0-158,0
		c0.057-0.377,0.114-0.754,0.171-1.13c1.83,0.044,3.659,0.125,5.489,0.125C56.44,598.001,107.22,598,157.999,598z"/>
	<path style="fill:#235BAA;" d="M157.999,598c-50.78,0-101.56,0.002-152.34-0.005c-1.83,0-3.659-0.082-5.489-0.125
		c7.603-15.304,15.165-30.629,22.817-45.908C59.64,478.768,96.31,405.584,132.985,332.402
		c36.675-73.183,73.365-146.359,110.045-219.54c18.672-37.254,37.338-74.51,56.007-111.766c2.165-0.032,4.33-0.093,6.495-0.093
		C405.691,0.999,505.85,1,606.008,0.997c1.999,0,3.999-0.033,5.998-0.05c6.001,12.388,12.047,24.755,17.996,37.167
		c31.358,65.424,62.691,130.86,94.034,196.292c19.079,39.83,38.156,79.66,57.243,119.486
		c26.908,56.145,53.839,112.278,80.727,168.433c11.471,23.956,22.858,47.953,34.275,71.935c0.566,1.19,1.053,2.417,1.576,3.627
		c-1.498,0.038-2.995,0.108-4.493,0.108c-93.428,0.005-186.856,0.005-280.284,0.002c-1.332,0-2.664-0.047-3.995-0.073
		c-7.043-15.759-14.098-31.513-21.128-47.277c-13.454-30.169-26.894-60.344-40.34-90.517c-3.302-7.409-6.601-14.82-9.922-22.277
		c-101.037,0-201.8,0-302.716,0c-1.814,2.155-2.676,4.872-3.876,7.383c-23.991,50.184-47.954,100.382-71.928,150.574
		C158.821,596.557,158.394,597.271,157.999,598z M290.074,336.787c67.246,0,134.014,0,201.343,0
		c-32.057-65.676-63.921-130.958-96.297-197.288C359.775,205.88,324.988,271.214,290.074,336.787z"/>
	<path style="fill:#235BAA;" d="M1483.047,598.149c-1.161-0.05-2.321-0.143-3.482-0.143c-79.212-0.007-158.424-0.006-237.636,0.001
		c-1.327,0-2.653,0.102-3.98,0.156c-14.202-0.603-28.058-2.989-41.355-8.156c-12.968-5.038-23.93-12.947-33.087-23.386
		c-10.854-12.373-18.602-26.714-25.85-41.328c-2.821-5.688-3.604-12.064-4.636-18.28c-3.053-18.382-4.829-36.906-6.246-55.482
		c-1.241-16.265-2.188-32.538-3.017-48.828c-1.067-20.962-1.505-41.935-2.099-62.91c-0.967-34.155-0.915-68.309-0.435-102.461
		c0.266-18.977,1.038-37.957,2.072-56.91c0.906-16.605,2.17-33.206,3.87-49.747c1.986-19.323,4.315-38.639,9.884-57.358
		c5.996-20.153,16.81-37.187,33.33-50.363c13.548-10.805,29.151-16.959,46.102-20.094c9.398-1.738,18.838-1.897,28.34-1.892
		c78.327,0.041,156.655,0.072,234.982-0.059c15.977-0.027,31.415,2.163,46.332,8.073c23.953,9.489,40.681,26.371,51.762,49.368
		c5.763,11.959,8.927,24.609,11.116,37.583c2.934,17.387,4.847,34.887,6.187,52.471c1.366,17.928,2.361,35.864,3.063,53.83
		c1.576,40.297,2.132,80.605,1.511,120.921c-0.354,22.977-1.138,45.953-2.063,68.915c-0.67,16.625-1.657,33.246-2.921,49.837
		c-1.616,21.215-3.814,42.372-6.79,63.459c-2.465,17.462-10.433,32.401-19.726,46.885c-6.893,10.743-15.102,20.276-25.52,27.772
		c-11.975,8.616-25.515,13.306-39.893,15.959C1496.301,597.193,1489.698,597.842,1483.047,598.149z M1426.322,300.071
		c0-44.482,0.003-88.964-0.002-133.446c-0.001-11.495-0.171-22.992,0.002-34.485c0.224-14.873-11.978-32.494-32.749-32.984
		c-21.979-0.519-43.986-0.463-65.967-0.008c-17.64,0.364-28.916,12.959-31.932,26.032c-0.881,3.82-0.778,7.602-0.779,11.408
		c-0.029,108.956-0.024,217.911-0.021,326.867c0,1.832-0.009,3.666,0.063,5.497c0.662,16.998,14.252,31.462,31.631,31.938
		c22.639,0.619,45.313,0.413,67.963,0.038c10.359-0.172,18.755-5.261,25.077-13.468c5.195-6.744,6.787-14.525,6.77-22.955
		C1426.267,409.693,1426.321,354.882,1426.322,300.071z"/>
	<path style="fill:#235BAA;" d="M1070.044,598.078c-1.831-0.037-3.662-0.105-5.492-0.106c-52.477-0.006-104.955-0.003-157.432-0.01
		c-1.997,0-3.995-0.078-5.992-0.119c-0.033-2.164-0.095-4.329-0.095-6.493c-0.005-126.292-0.005-252.584-0.005-378.876
		c0-1.961,0-3.922,0-6.301c-38.17,0-75.902,0-113.941,0c0-35.521,0-70.607,0-105.764c1.578-1.593,3.552-2.486,5.427-3.491
		c43.789-23.462,87.587-46.907,131.383-70.354c14.501-7.763,29.009-15.513,43.496-23.304c1.647-0.886,3.274-1.425,5.192-1.422
		c32.156,0.044,64.312,0.034,96.468,0.046c0.484,0,0.968,0.114,1.509,0.182c1.219,1.456,0.643,3.183,0.642,4.762
		c-0.119,175.442-0.266,350.885-0.416,526.327c-0.015,17.494-0.026,34.989-0.126,52.483
		C1070.637,589.785,1070.259,593.931,1070.044,598.078z"/>
</g>
</svg>
