<?xml version="1.0" encoding="iso-8859-1"?>
<!-- Generator: Adobe Illustrator 27.0.0, SVG Export Plug-In . SVG Version: 6.00 Build 0)  -->
<svg version="1.1" id="Layer_1" xmlns="http://www.w3.org/2000/svg" xmlns:xlink="http://www.w3.org/1999/xlink" x="0px" y="0px"
	 viewBox="0 0 1852 518" style="enable-background:new 0 0 1852 518;" xml:space="preserve">
<g>
	<path style="fill:#E3212E;" d="M451,0c0.779,1.677,2.323,0.92,3.51,0.989c22.294,1.298,44.384,4.167,66.176,9.025
		c27.019,6.023,53.108,14.807,77.588,27.875c23.593,12.594,44.609,28.486,60.925,49.957c11.827,15.563,19.899,32.932,23.776,52.16
		c6.19,30.693,0.715,59.807-12.066,87.885c-7.763,17.054-18.092,32.515-29.746,47.126c-0.294,0.369-0.709,0.642-1.408,1.261
		c-80.799-70.025-161.574-140.03-242.612-210.262C265.478,136.091,133.791,206.178,2.104,276.266
		c-1.821-1.132-1.058-2.976-1.099-4.497c-0.135-4.94-0.077-9.884-0.094-14.827c0.508-5.801,1.372-11.553,2.594-17.242
		c4.585-21.351,13.218-41.012,25.04-59.303c16.963-26.244,38.188-48.628,62.318-68.334c23.522-19.209,49.039-35.354,75.949-49.378
		c48.817-25.44,100.604-42.176,154.488-52.668c24.003-4.674,48.242-7.77,72.687-9.056C394.789,0.919,395.681,1.056,396,0
		c1.333,0,2.667,0,4,0c3.037,1.387,8.441,1.387,12,0C425,0,438,0,451,0z"/>
	<path style="fill:#0E0D0D;" d="M769,518c-1.37-1.656-3.406-0.914-5.106-1.357c-13.055-3.405-18.8-11.237-17.976-24.738
		c0.061-0.995,0.135-1.988,0.226-3.323c5.908,0,11.805,0,17.72,0c1.18,0.934,0.323,2.162,0.408,3.237
		c0.461,5.861,2.538,8.838,8.259,10.479c6.187,1.774,12.466,1.712,18.494-0.806c3.279-1.37,6.035-3.462,7.411-6.984
		c1.44-3.684,0.788-6.443-2.331-8.813c-2.414-1.834-5.263-2.788-8.108-3.69c-4.259-1.351-8.55-2.602-12.817-3.93
		c-1.262-0.393-2.526-0.822-3.724-1.375c-10.742-4.96-14.362-13.13-10.925-24.494c2.255-7.457,7.279-12.522,13.928-16.161
		c7.812-4.276,16.306-5.438,25.051-5.205c3.309,0.088,6.594,0.406,9.871,1.142c10.629,2.388,19.951,10.86,17.452,25.626
		c-5.83,0-11.727,0-17.62,0c-0.105-0.131-0.28-0.246-0.285-0.368c-0.36-8.642-3.939-10.91-12.323-11.866
		c-3.683-0.42-7.285,0.31-10.762,1.535c-2.236,0.788-4.213,2.093-5.581,4.028c-3.065,4.334-2.428,8.462,1.869,11.072
		c4.489,2.727,9.568,3.715,14.54,4.904c2.756,0.66,5.493,1.37,8.102,2.38c12.649,4.899,14.934,12.723,12.607,24.092
		c-2.274,11.11-10.046,17.511-20.146,21.589c-3.328,1.343-7.025,1.341-10.233,3.026C781,518,775,518,769,518z"/>
	<path style="fill:#0E0D0D;" d="M880,518c-1.174-1.638-3.145-1.504-4.768-1.975c-12.143-3.527-19.15-13.937-19.314-25.971
		c-0.255-18.776,6.29-34.556,20.438-46.735c14.098-12.136,30.539-15.577,48.441-10.295c13.539,3.995,19.159,16.688,16.445,28.706
		c-6.161,0.506-12.401,0.298-18.411,0.136c-1.105-1.298-0.697-2.504-0.758-3.622c-0.374-6.796-4.512-10.908-11.361-11.457
		c-9.887-0.792-17.877,2.908-24.222,10.273c-6.843,7.943-10.432,17.193-10.746,27.738c-0.392,13.184,8.965,19.948,22.392,16.719
		c8.089-1.946,13.528-7.445,16.836-15.275c6.28,0,12.547,0,19.288,0c-2.686,7.023-6.688,13.003-11.589,18.367
		c-6.112,6.689-13.548,11.147-22.653,12.489c-0.542,0.08-0.861,0.395-1.016,0.903C892.667,518,886.333,518,880,518z"/>
	<path style="fill:#242222;" d="M1851.025,55.04c-0.738,0.564-1.557,0.444-2.546,0.245c-1.331-2.516,0.247-5.496-1.058-8.396
		c-3.179,1.802-2.425,5.579-4.333,8.004c-0.909,0.787-1.987,0.73-3.419-0.025c-1.277-3.608-2.639-7.454-4.001-11.3
		c-0.183,0.009-0.366,0.018-0.548,0.027c0,3.793,0,7.586,0,11.128c-1.517,1.009-2.568,0.785-3.755-0.034c0-5.839,0-11.779,0-17.743
		c1.744-1.377,3.561-0.465,5.41-0.727c1.524,4.058,2.965,7.898,4.546,12.109c2.488-3.972,2.802-8.434,5.141-11.938
		c1.968-0.138,3.753-0.264,5.539-0.389c0,0.667,0,1.333,0,2c-1.491,0.594-0.923,1.906-0.936,2.932
		C1851.005,45.634,1851.03,50.337,1851.025,55.04z"/>
	<path style="fill:#F2A28D;" d="M0,257c0.31,0.078,0.614,0.059,0.912-0.058c0.016,4.943-0.041,9.888,0.094,14.827
		c0.041,1.52-0.722,3.365,1.099,4.497C1.67,277.278,0.732,276.843,0,277C0,270.333,0,263.667,0,257z"/>
	<path style="fill:#6B6868;" d="M1851.025,55.04c0.005-4.703-0.021-9.406,0.039-14.107c0.013-1.026-0.555-2.338,0.936-2.932
		c0,5.667,0,11.333,0,17C1851.675,55.013,1851.35,55.026,1851.025,55.04z"/>
	<path style="fill:#E96855;" d="M412,0c-3.559,1.387-8.963,1.387-12,0C404,0,408,0,412,0z"/>
	<path style="fill:#E3202E;" d="M2.447,289.417c123.185-50.201,246.02-100.26,369.096-150.416
		c85.836,49.509,171.767,99.073,258.147,148.895c-5.19,6.222-10.685,11.481-16.227,16.678
		c-31.341,29.391-66.919,52.587-105.419,71.361c-32.025,15.616-65.334,27.874-99.787,37.042
		c-25.087,6.676-50.456,11.794-76.194,15.234c-27.46,3.67-55.018,5.317-82.699,4.675c-37.755-0.876-74.91-6.014-111.094-17.03
		c-27.666-8.422-53.839-20.154-77.232-37.433c-19.809-14.632-36.424-32.136-47.414-54.469
		C8.322,313.178,4.302,301.966,2.447,289.417z"/>
	<path style="fill:#040303;" d="M1095.091,36.401c35.4,120.004,70.726,239.754,106.053,359.51
		c-3.91,1.076-127.529,1.52-139.418,0.54c-6.528-22.317-13.109-44.817-19.693-67.325c-91.861,0-183.337,0-275.16,0
		c-22.656,22.41-45.502,45.007-68.233,67.49c-42.011,0-83.657,0-125.515,0c0.02-2.16,1.85-3.013,3.03-4.175
		c33.731-33.199,67.509-66.349,101.256-99.532c68.444-67.301,136.871-134.618,205.31-201.924
		c17.11-16.826,34.236-33.635,51.363-50.445c1.423-1.396,2.904-2.733,4.404-4.14C990.515,36.401,1042.482,36.401,1095.091,36.401z
		 M981.14,118.685c-46.677,45.719-92.599,90.699-138.953,136.101c59.691,0,118.747,0,178.314,0
		C1007.417,209.544,994.418,164.595,981.14,118.685z"/>
	<path style="fill:#060606;" d="M1357.871,396.595c-43.931,0-87.22,0-131.324,0c33.773-95.317,67.404-190.235,101.239-285.728
		c-57.844,0-115.089,0-173.183,0c8.934-25.202,17.637-49.752,26.38-74.414c153.142,0,306.039,0,459.769,0
		c-8.79,24.958-17.442,49.525-26.122,74.169c-51.842,0-103.305,0-155.347,0C1425.494,205.906,1391.708,301.178,1357.871,396.595z"/>
	<path style="fill:#050404;" d="M1678.575,36.419c43.841,0,87.283,0,131.366,0c-42.582,120.195-85.05,240.065-127.572,360.09
		c-43.775,0-87.343,0-131.369,0C1593.555,276.396,1635.993,156.612,1678.575,36.419z"/>
	<path style="fill:#0C0B0B;" d="M1351.165,516.031c-6.465,0-12.704,0-19.519,0c9.61-27.853,19.079-55.297,28.65-83.036
		c4.541,0,9.015-0.001,13.489,0c11.306,0.003,22.612,0.03,33.917-0.009c2.709-0.009,5.288,0.614,7.751,1.545
		c7.994,3.023,11.876,10.689,10.209,19.828c-1.988,10.895-8.012,18.335-18.657,21.84c-0.937,0.309-1.83,0.751-2.914,1.202
		c7.48,3.982,6.174,10.746,5.44,17.17c-0.508,4.442-1.708,8.801-2.287,13.239c-0.337,2.583-0.061,5.245-0.061,8.175
		c-6.267,0-12.328,0-18.576,0c-1.438-4.562,0.19-8.867,0.986-13.188c0.691-3.748,1.49-7.443,1.726-11.285
		c0.246-3.995-2.885-7.375-6.985-7.475c-7.294-0.177-14.595-0.05-21.961-0.05C1358.588,494.809,1354.891,505.379,1351.165,516.031z
		 M1367.372,470.077c6.64,0,12.457,0.004,18.273-0.003c1.166-0.001,2.35,0.081,3.495-0.084c5.362-0.775,10.46-2.239,14.016-6.709
		c5.502-6.916,2.709-14.426-5.885-15.599c-7.273-0.993-14.598-0.189-21.977-0.445
		C1372.296,454.716,1369.915,462.097,1367.372,470.077z"/>
	<path style="fill:#0B0A0A;" d="M655.197,516.108c-6.667,0-12.783,0-19.681,0c4.104-11.993,8.077-23.601,12.18-35.59
		c-11.719,0-22.822,0-34.561,0c-4.091,11.667-8.279,23.611-12.466,35.55c-6.596,0-12.871,0-19.631,0
		c9.634-27.804,19.147-55.26,28.707-82.85c6.477,0,12.753,0,19.747,0c-3.591,10.409-7.103,20.592-10.756,31.18
		c11.647,0,22.866,0,34.544,0c3.642-10.273,7.332-20.679,11.066-31.211c6.513,0,12.962,0,19.659,0
		C674.372,460.912,664.826,488.39,655.197,516.108z"/>
	<path style="fill:#0B0A0A;" d="M1246.896,516.019c-6.971,0-13.248,0-19.771,0c4.093-11.854,8.075-23.389,12.215-35.38
		c-11.67,0-22.879,0-34.6,0c-4.047,11.569-8.181,23.389-12.381,35.395c-6.374,0-12.627,0-19.569,0
		c9.578-27.707,19.055-55.118,28.617-82.777c6.379,0,12.813,0,19.708,0c-3.563,10.384-7.069,20.604-10.71,31.214
		c11.705,0,22.802,0,34.522,0c3.629-10.269,7.351-20.803,11.053-31.281c6.608,0,12.901,0,19.707,0
		C1266.023,460.993,1256.474,488.463,1246.896,516.019z"/>
	<path style="fill:#0E0D0D;" d="M1298.415,448.204c-2.154,5.963-4.318,11.495-5.946,17.73c14.595,0,28.855,0,43.516,0
		c-1.792,5.132-3.412,9.774-5.099,14.607c-14.419,0-28.707,0-43.332,0c-3,6.175-4.621,12.724-7.259,19.598
		c16.18,0,31.766,0,47.947,0c-1.97,5.701-3.729,10.79-5.517,15.964c-22.38,0-44.485,0-67.363,0
		c9.284-27.929,18.955-55.283,28.487-82.87c22.258,0,44.359,0,66.89,0c-1.73,5.047-3.409,9.944-5.132,14.971
		C1329.844,448.204,1314.374,448.204,1298.415,448.204z"/>
	<path style="fill:#0E0D0D;" d="M944.047,516.151c-6.945,0-13.25,0-20.531,0c20.595-28.221,41.166-55.599,61.62-82.945
		c6.801,0,13.411,0,20.333,0c1.292,27.582,2.576,54.968,3.874,82.669c-6.46,1.018-12.68,0.03-19.373,0.127
		c-0.214-5.982-0.017-11.772-0.933-17.774c-10.498,0-21.092,0-31.95,0C952.82,504.092,948.435,510.119,944.047,516.151z
		 M988.915,483.657c0-10.605,0-20.551,0-31.743c-7.775,11.207-14.852,21.408-22.022,31.743
		C974.497,483.657,981.58,483.657,988.915,483.657z"/>
	<path style="fill:#0B0A0A;" d="M534.497,486.289c-3.536,10.153-6.947,19.947-10.345,29.703c-6.564,0-12.797,0-19.459,0
		c9.565-27.864,18.994-55.329,28.442-82.854c14.206,0,28.164-0.066,42.121,0.063c2.444,0.023,4.971,0.595,7.305,1.374
		c11.451,3.821,15.02,11.657,12.966,23.51c-2.543,14.683-12.402,22.882-26.23,26.842c-4.016,1.15-8.161,1.403-12.334,1.376
		C549.499,486.254,542.033,486.289,534.497,486.289z M539.635,471.615c0.923,0.188,1.402,0.367,1.88,0.369
		c5.49,0.022,10.981-0.002,16.471,0.028c2.525,0.013,4.999-0.46,7.359-1.181c6.42-1.961,10.456-6.87,10.706-14.521
		c0.153-4.661-2.163-7.515-6.792-8.338c-7.052-1.254-14.145-0.614-21.372-0.617C545.063,455.66,542.368,463.581,539.635,471.615z"/>
	<path style="fill:#0B0A0A;" d="M1498.298,516.108c9.585-27.898,18.979-55.241,28.308-82.393c1.367-1.131,2.752-0.692,4.026-0.697
		c11.315-0.037,22.63,0.029,33.944-0.048c4.205-0.029,8.171,0.892,12.215,1.939c10.603,2.745,13.518,12.539,12.786,20.334
		c-1.923,20.478-19.433,30.764-35.968,31.021c-8.308,0.129-16.619,0.022-25.16,0.022c-2.312,4.824-3.687,9.917-5.456,14.854
		c-1.775,4.953-3.476,9.933-5.233,14.967C1511.368,516.108,1505.266,516.108,1498.298,516.108z M1533.122,472.035
		c8.372-0.405,16.358,0.841,24.254-0.871c7.707-1.671,12-6.819,12.369-14.644c0.207-4.389-1.876-7.579-6.079-8.428
		c-7.366-1.487-14.802-0.671-22.114-0.779C1538.653,455.812,1535.954,463.728,1533.122,472.035z"/>
	<path style="fill:#0B0A0A;" d="M1470.445,433.181c6.739,0,13.352,0,20.271,0c1.366,27.519,2.723,54.868,4.101,82.629
		c-3.414,0.164-6.683,0.379-9.955,0.461c-3.113,0.078-6.229,0.017-9.771,0.017c0-6.273,0-12.038,0-18.072
		c-11.023,0-21.609,0-32.676,0c-4.13,5.695-8.494,11.714-12.956,17.866c-6.616,0-13.235,0-20.617,0
		C1429.59,488.161,1450.028,460.657,1470.445,433.181z M1474.875,483.697c0-10.881,0-21.141,0-32.64
		c-7.8,11.255-14.977,21.611-22.441,32.381C1460.311,484.577,1467.374,483.514,1474.875,483.697z"/>
	<path style="fill:#0E0D0D;" d="M685.997,433.206c6.617,0,13.063,0,19.947,0c2.731,11.123,5.482,22.328,8.444,34.39
		c10.58-11.805,20.8-23.207,30.943-34.523c7.571,0,14.889,0,22.619,0c-1.325,2.749-3.592,4.422-5.405,6.354
		c-12.753,13.588-25.593,27.094-38.495,40.54c-3.044,3.173-5.341,6.6-6.663,10.861c-2.599,8.373-5.535,16.641-8.408,25.18
		c-6.344,0-12.597,0-19.13,0c-0.318-1.354,0.19-2.544,0.599-3.737c2.845-8.298,5.651-16.61,8.572-24.881
		c0.858-2.43,0.957-4.615,0.196-7.193c-4.403-14.912-8.566-29.896-12.799-44.859C686.241,434.719,686.165,434.075,685.997,433.206z"
		/>
	<path style="fill:#0C0B0B;" d="M1615.202,516.133c-6.59,0-12.702,0-18.862,0c-0.74-1.25-0.132-2.261,0.225-3.32
		c2.852-8.456,5.615-16.942,8.557-25.366c0.857-2.456,0.967-4.627,0.223-7.209c-4.486-15.571-8.74-31.209-13.13-47.032
		c6.495,0,12.95,0,19.965,0c2.705,11.051,5.444,22.245,8.392,34.289c10.76-11.342,20.545-22.909,30.903-34.254
		c7.34,0,14.88,0,22.616,0c-0.56,1.79-1.831,2.668-2.825,3.718c-13.964,14.74-27.914,29.495-41.973,44.144
		c-2.487,2.591-4.224,5.427-5.325,8.815C1621.163,498.553,1618.219,507.143,1615.202,516.133z"/>
	<path style="fill:#0B0A0A;" d="M1139.332,516.084c-6.497,0-12.751,0-19.734,0c7.781-22.629,15.426-44.862,23.271-67.679
		c-9.228,0-17.786,0-26.894,0c1.344-5.58,3.393-10.33,5.122-15.413c24.236,0,48.316,0,72.824,0
		c-1.444,5.198-3.189,10.068-5.307,15.289c-8.535,0-17.126,0-25.875,0C1154.866,471.083,1147.117,493.531,1139.332,516.084z"/>
	<path style="fill:#0E0D0D;" d="M1037.107,500.259c14.505,0,27.963,0,41.916,0c-1.833,5.425-3.513,10.399-5.303,15.698
		c-20.324,0-40.732,0-61.74,0c9.539-27.653,19.002-55.088,28.532-82.716c6.516,0,12.944,0,19.796,0
		C1052.599,455.506,1044.98,477.516,1037.107,500.259z"/>
	<path style="fill:#0C0B0B;" d="M844.433,433.213c6.605,0,13.03,0,19.75,0c-9.654,27.723-19.207,55.159-28.835,82.807
		c-6.337,0-12.584,0-19.566,0C825.178,488.21,834.873,460.777,844.433,433.213z"/>
	<path style="fill:#302F2E;" d="M1827.853,36.148c1.167,1.373,1.041,2.318,0.753,3.315c-1.574,1.256-3.562,0.07-5.577,1.005
		c0,4.565,0,9.304,0,13.648c-1.37,1.623-2.604,1.516-4.379,0.831c0-4.712,0-9.599,0-14.249c-2.162-1.142-4.079-0.248-5.806-0.884
		c-1.291-0.951-0.363-2.04-0.493-3.324C1817.715,35.843,1822.814,36.347,1827.853,36.148z"/>
</g>
</svg>
