<?xml version="1.0" encoding="iso-8859-1"?>
<!-- Generator: Adobe Illustrator 27.0.0, SVG Export Plug-In . SVG Version: 6.00 Build 0)  -->
<svg version="1.1" id="Layer_1" xmlns="http://www.w3.org/2000/svg" xmlns:xlink="http://www.w3.org/1999/xlink" x="0px" y="0px"
	 viewBox="0 0 1877.734 657" style="enable-background:new 0 0 1877.734 657;" xml:space="preserve">
<g>
	<path style="fill:#777A93;" d="M348.717,1.16c-0.098-0.387-0.196-0.773-0.294-1.16c43.333,0,86.667,0,130,0
		c-0.06,0.37-0.12,0.74-0.179,1.111c-1.161-0.038-2.322-0.109-3.484-0.109c-40.688-0.006-81.376-0.006-122.064,0.002
		C351.37,1.004,350.043,1.106,348.717,1.16z"/>
	<path style="fill:#ACACBC;" d="M1751.351,655.904c0.024,0.365,0.048,0.731,0.072,1.096c-11,0-22,0-33,0
		c-0.026-0.333-0.026-0.666-0.001-0.999C1729.399,655.969,1740.375,655.936,1751.351,655.904z"/>
	<path style="fill:#ACACBC;" d="M338.423,0c-0.026,0.368-0.052,0.735-0.078,1.103c-7.877-0.048-15.757-0.404-23.629,0.199
		c-0.098-0.434-0.195-0.868-0.293-1.302C322.423,0,330.423,0,338.423,0z"/>
	<path style="fill:#ACACBC;" d="M305.423,0c-0.086,0.426-0.172,0.853-0.258,1.279c-7.815-0.43-15.629-0.501-23.443,0.026
		c-0.1-0.435-0.199-0.87-0.299-1.305C289.423,0,297.423,0,305.423,0z"/>
	<path style="fill:#153256;" d="M1449.556,314.529c-4.401,8.246-8.925,16.722-13.57,25.425c-36.36,0-72.79,0-109.705,0
		c42.338-74.96,84.481-149.576,126.72-224.36c50.873,0,101.644,0,152.969,0c12.767,74.621,25.536,149.255,38.368,224.257
		c-38.175,0-76.222,0-114.548,0c-1.281-8.385-2.554-16.712-3.869-25.322C1500.481,314.529,1475.222,314.529,1449.556,314.529z
		 M1520.363,265.925c-3.109-24.885-6.165-49.35-9.19-73.568c-3.057-1.107-3.516,0.925-4.284,2.569
		c-10.586,22.684-21.178,45.366-31.772,68.047c-0.411,0.88-1.065,1.691-0.582,2.952
		C1489.55,265.925,1504.642,265.925,1520.363,265.925z"/>
	<path style="fill:#153256;" d="M1142.401,116.413c-3.442,17.724-6.858,35.315-10.262,52.848c-1.827,1.123-3.703,0.6-5.477,0.603
		c-25.49,0.039-50.98,0.017-76.47,0.044c-2.156,0.002-4.378-0.039-6.453,0.442c-4.175,0.968-7.253,3.489-8.226,7.803
		c-0.973,4.317-0.207,8.259,3.517,11.233c5.011,4.003,10.92,6.248,16.743,8.656c12.281,5.079,24.491,10.251,35.431,18.011
		c10.402,7.379,18.326,16.849,24.408,27.948c2.186,3.989,3.242,8.389,3.686,12.857c3.609,36.328-15.729,68.636-53.807,79.208
		c-11.022,3.06-22.188,4.139-33.537,4.139c-51.147,0.001-102.293,0.002-153.44,0.003c-0.972,0-1.943,0-2.872,0
		c-0.113-4.342,8.264-48.968,9.965-53.495c1.713-0.798,3.568-0.373,5.361-0.375c28.489-0.032,56.978-0.017,85.466-0.032
		c2.33-0.001,4.692,0.073,6.983-0.268c4.759-0.708,8.322-3.256,10.248-7.745c1.915-4.463,0.695-8.426-2.202-12.07
		c-2.219-2.791-5.078-4.723-8.121-6.5c-11.641-6.798-24.387-11.324-36.224-17.715c-8.516-4.597-16.772-9.549-23.596-16.544
		c-8.37-8.58-12.843-18.768-13.089-30.858c-0.339-16.664,3.682-31.99,13.853-45.343c9.676-12.703,22.678-20.889,37.617-25.984
		c14.733-5.024,29.877-7.453,45.548-7.364c43.148,0.245,86.299,0.08,129.449,0.1
		C1138.693,116.015,1140.539,115.698,1142.401,116.413z"/>
	<path style="fill:#143256;" d="M580.422,256.633c2.443,0.931,2.731-0.732,3.342-2.081c4.586-10.13,9.218-20.239,13.804-30.369
		c11.429-25.247,22.838-50.502,34.268-75.748c0.61-1.348,1.349-2.639,2.023-3.946c43.452-9.071,86.777-18.116,130.632-27.271
		c-38.916,74.511-77.56,148.499-116.322,222.715c-51.212,0-102.453,0-154.1,0c-6.199-54.055-12.385-108.006-18.604-162.236
		c34.338-7.169,68.277-14.256,102.606-21.423C579.865,189.769,578.861,223.3,580.422,256.633z"/>
	<path style="fill:#153256;" d="M1389.058,169.58c-20.953,0-41.42,0-62.378,0c-11.072,56.813-22.115,113.475-33.201,170.36
		c-35.756,0-71.331,0-107.667,0c10.911-56.686,22.277-113.052,33.339-170.13c-20.803,0-41.204,0-62.42,0
		c3.55-18.372,6.964-36.04,10.4-53.823c77.493,0,154.579,0,232.422,0C1396.066,133.801,1392.61,151.446,1389.058,169.58z"/>
	<path style="fill:#143156;" d="M782.969,116.15c36.791,0,73.085,0,110.15,0c-14.541,74.798-29.026,149.308-43.505,223.789
		c-36.458,0-72.37,0-108.805,0C754.886,265.218,768.896,190.852,782.969,116.15z"/>
	<path style="fill:#143256;" d="M80.512,244.585c65.258-9.532,129.708-18.945,194.629-28.427
		c2.453,24.513,4.894,48.914,7.371,73.663c-29.157,0-57.918,0-86.876,0c-15.95,17.09-31.839,34.113-47.793,51.208
		c-48.99,0-97.932,0-147.841,0c9.017-11.286,18.085-21.694,26.895-32.31c8.93-10.761,17.851-21.53,26.821-32.258
		C62.675,265.745,71.689,255.076,80.512,244.585z"/>
	<path style="fill:#153256;" d="M348.717,1.16c1.326-0.054,2.652-0.156,3.979-0.156c40.688-0.008,81.376-0.008,122.064-0.002
		c1.161,0,2.322,0.071,3.484,0.109c-2.06,12.098-4.079,24.204-6.188,36.293c-3.567,20.442-7.186,40.875-10.799,61.309
		c-0.287,1.623-0.698,3.225-1.165,5.355c-33.182,5.597-66.496,11.215-100.111,16.885c-0.453-3.86-0.952-7.445-1.281-11.046
		c-1.47-16.06-2.843-32.129-4.343-48.187c-1.484-15.888-3.095-31.764-4.613-47.648C349.332,9.774,349.055,5.464,348.717,1.16z"/>
	<path style="fill:#163357;" d="M1751.351,655.904c-10.976,0.032-21.953,0.065-32.929,0.097c0.108-6.536,2.161-12.738,3.451-19.052
		c7.443-36.429,15.093-72.815,22.673-109.216c3.046-14.626,6.086-29.253,9.154-43.873c0.236-1.124,0.68-2.204,1.094-3.519
		c10.385,0,20.803,0,31.473,0c-0.75,3.957-1.451,7.647-2.244,11.831c2.379-0.751,3.195-2.463,4.336-3.668
		c9.679-10.215,21.87-12.26,34.883-9.951c10.343,1.836,16.362,10.383,17.134,22.268c0.586,9.026-0.199,17.939-1.939,26.805
		c-2.461,12.54-4.698,25.13-8.147,37.448c-2.06,7.358-4.717,14.493-8.549,21.169c-8.641,15.055-22.852,21.781-39.961,18.786
		c-5.845-1.023-10.589-3.745-13.835-8.842c-0.764-1.2-1.631-2.334-2.947-4.202c-1.646,7.754-3.102,14.658-4.577,21.557
		C1757.404,627.664,1754.376,641.783,1751.351,655.904z M1771.011,569.738c0.155,2.652,0.066,5.347,0.516,7.948
		c0.848,4.903,4.931,7.571,9.86,6.797c4.362-0.685,7.704-2.893,10.056-6.616c2.135-3.379,3.796-6.98,5.003-10.787
		c4.616-14.57,7.31-29.571,10.072-44.562c0.85-4.612,1.237-9.234,0.907-13.886c-0.521-7.334-5.629-10.942-12.781-9.222
		c-3.193,0.768-5.755,2.43-7.74,5.073c-2.632,3.503-4.229,7.479-5.555,11.596c-2.444,7.586-4.05,15.379-5.551,23.185
		C1773.86,549.355,1771.452,559.383,1771.011,569.738z"/>
	<path style="fill:#163357;" d="M1491.914,546.971c10.982,0,21.922,0,33.321,0c-2.968,14.468-7.235,28.104-16.242,39.744
		c-7.176,9.275-16.652,15.016-28.217,17.456c-11.929,2.518-23.81,2.684-35.632-0.217c-15.45-3.79-23.584-13.356-25.904-29.158
		c-1.552-10.573-0.401-20.986,1.415-31.289c3.313-18.796,6.562-37.634,11.879-56.006c3.01-10.4,6.968-20.415,13.106-29.461
		c7.7-11.348,18.127-18.811,31.348-22.402c13.253-3.6,26.621-4.261,39.917-0.636c13.512,3.685,20.67,13.126,21.586,27.183
		c0.569,8.728-0.496,17.244-2.568,25.629c-3.436,1.069-27.548,1.319-33.45,0.336c0.507-3.254,0.959-6.524,1.539-9.773
		c0.68-3.811,0.709-7.653,0.307-11.455c-0.664-6.273-3.98-9.079-10.349-8.985c-6.099,0.089-11.321,2.153-15.423,6.887
		c-4.451,5.138-7.027,11.212-9.221,17.513c-4.49,12.896-7.149,26.255-9.856,39.589c-2.38,11.722-4.716,23.457-5.602,35.432
		c-0.324,4.379-0.084,8.719,0.792,12.917c2.243,10.754,16.039,14.394,24.544,6.62c4.049-3.701,6.301-8.551,8.05-13.594
		c1.301-3.753,2.219-7.646,3.154-11.514C1490.795,550.181,1491.17,548.608,1491.914,546.971z"/>
	<path style="fill:#163357;" d="M364.865,200.114c26.378-5.009,52.705-10.008,79.818-15.156
		c-10.848,52.021-21.589,103.529-32.328,155.027c-16.077,0-31.659,0-47.49,0C364.865,293.386,364.865,247.012,364.865,200.114z"/>
	<path style="fill:#163357;" d="M1576.019,605.868c-5.246-0.276-12.048-0.715-18.604-2.83c-11.096-3.58-17.116-11.357-18.987-22.725
		c-1.513-9.194-0.43-18.255,1.055-27.294c2.26-13.763,4.787-27.469,10.03-40.504c5.911-14.696,15.344-25.929,30.681-31.395
		c4.56-1.625,9.296-2.663,14.092-2.978c7.804-0.513,15.621-0.614,23.383,0.866c13.902,2.651,23.321,10.836,24.992,26.241
		c1.118,10.298-0.52,20.231-2.32,30.193c-2.541,14.06-5.706,27.98-12.022,40.935c-8.215,16.85-21.586,26.479-40.295,28.697
		C1584.546,605.486,1581.09,605.866,1576.019,605.868z M1570.824,571.591c0.102,0.921,0.271,2.91,0.551,4.883
		c0.552,3.897,2.77,6.209,6.641,7.082c6.546,1.476,12.712-0.959,16.466-6.549c2.248-3.346,3.677-7.062,4.898-10.844
		c4.701-14.569,7.486-29.582,9.913-44.651c0.759-4.712,1.411-9.543,0.214-14.38c-1.137-4.6-3.574-6.731-8.187-7.29
		c-7.928-0.961-13.51,2.208-17.133,9.182c-1.148,2.21-2.132,4.474-2.945,6.835c-2.438,7.078-3.996,14.371-5.419,21.694
		C1573.702,548.473,1571.287,559.351,1570.824,571.591z"/>
	<path style="fill:#163357;" d="M146.076,163.304c42.176-50.929,83.675-101.04,125.825-151.938c0,41.689,0,82.327,0,123.482
		C230.333,144.249,188.677,153.67,146.076,163.304z"/>
	<path style="fill:#163357;" d="M1680.988,602.954c-11.287,0-22.199,0-33.504,0c8.542-41.012,17.017-81.698,25.533-122.583
		c10.527,0,20.771,0,31.369,0c0.446,4.675-2.294,8.921-1.883,14.682c8.726-11.74,19.462-17.883,34.141-17.01
		c-1.695,10.221-3.927,20.111-6.268,30.347c-3.749-0.496-7.161,0.182-10.602,0.515c-10.813,1.047-18.129,6.803-22.082,16.817
		c-2.266,5.741-2.967,11.898-4.246,17.891C1689.259,563.23,1685.194,582.875,1680.988,602.954z"/>
	<path style="fill:#1A3558;" d="M90.242,232.917c6.141-7.408,12.281-14.816,18.533-22.359
		c54.312-7.873,108.656-15.75,163.247-23.663c0.402,3.458,0.74,6.363,1.127,9.686c-60.959,12.421-121.707,24.8-182.456,37.178
		C90.543,233.478,90.393,233.198,90.242,232.917z"/>
	<path style="fill:#183457;" d="M281.722,1.305c7.814-0.527,15.628-0.456,23.443-0.026c-0.153,42.104-0.305,84.209-0.459,126.439
		c-3.929,1.382-7.579,2.183-11.54,2.306c-1.231-3.634-0.868-7.342-1.223-10.916c-1.349-13.572-2.331-27.18-3.507-40.77
		c-1.175-13.586-2.436-27.165-3.626-40.75c-0.798-9.114-1.537-18.233-2.307-27.349C282.252,7.261,281.983,4.283,281.722,1.305z"/>
	<path style="fill:#163357;" d="M314.716,1.302c7.872-0.603,15.752-0.247,23.629-0.199c0.028,10.815,0.078,21.63,0.08,32.445
		c0.005,27.626-0.011,55.253-0.019,82.879c0,1.653,0,3.306,0,5.28c-3.989,1.323-8.015,1.818-12.394,2.292
		c-0.454-4.123-0.958-8.033-1.304-11.958c-1.137-12.915-2.164-25.84-3.335-38.752c-1.155-12.745-2.464-25.475-3.647-38.217
		C316.682,23.819,315.716,12.559,314.716,1.302z"/>
	<path style="fill:#183457;" d="M354.913,340.031c-8.049,0-15.325,0-23.211,0c0.28-44.466,0.56-88.823,0.84-133.212
		c2.418-1.119,4.783-0.614,7.758-0.939C345.154,250.442,350.003,294.958,354.913,340.031z"/>
	<path style="fill:#183457;" d="M321.966,339.959c-8.097,0-15.498,0-23.265,0c0-42.651,0-85.046,0-127.654
		c2.552-0.613,5.168-1.597,8.415-0.957C312.041,254.007,316.974,296.722,321.966,339.959z"/>
	<path style="fill:#1B3558;" d="M120.39,196.451c5.5-6.636,11-13.273,16.389-19.774c45.123-6.511,89.985-12.985,135.036-19.486
		c0.792,3.153,0.314,6.097,0.365,9.611c-50.446,10.195-100.796,20.371-151.147,30.546
		C120.819,197.049,120.604,196.75,120.39,196.451z"/>
	<path style="fill:#1B3558;" d="M578.002,127.392c0,5.446,0,9.899,0,14.95c-34.562,6.174-69.242,12.369-104.123,18.6
		c-0.924-4.289-1.72-8.29-1.379-12.769C507.477,141.283,542.392,134.406,578.002,127.392z"/>
	<path style="fill:#1C3659;" d="M456.656,122.628c-0.861,5.076-1.548,9.131-2.283,13.465c-30.401,4.763-60.573,9.491-90.883,14.24
		c-1.615-3.061-0.706-6.097-1.582-9.441C393.461,134.809,424.656,128.796,456.656,122.628z"/>
	<path style="fill:#183457;" d="M573.889,116.955c-34.211,5.468-68.422,10.935-103.156,16.487
		c-1.75-5.563-1.189-11.275-2.543-17.087c35.494,0,70.67,0,105.846,0C573.987,116.555,573.938,116.755,573.889,116.955z"/>
	<path style="fill:#1C3659;" d="M450.733,153.672c-0.991,4.554-1.789,8.224-2.65,12.182c-27.705,4.644-55.294,9.269-83.119,13.934
		c-0.541-3.305-0.179-6.242-0.104-9.719C393.242,164.649,421.522,159.249,450.733,153.672z"/>
	<path style="fill:#183457;" d="M1849.24,571.278c9.558,0,18.666,0,28.494,0c-2.208,10.735-4.354,21.166-6.519,31.695
		c-9.573,0-18.812,0-28.501,0C1844.933,592.194,1847.086,581.737,1849.24,571.278z"/>
	<path style="fill:#1B3558;" d="M639.718,131.411c2.531-5.683,4.658-10.459,6.798-15.265c25.82,0,51.411,0,77.002,0
		c0.015,0.136,0.029,0.272,0.044,0.409C695.917,121.453,668.271,126.352,639.718,131.411z"/>
	<path style="fill:#283C5E;" d="M1658.856,113.145c12.061,0.014,22.045,10.233,21.965,22.482
		c-0.081,12.371-9.993,22.362-22.125,22.301c-12.105-0.061-22.127-10.201-21.984-22.47
		C1636.85,123.564,1645.514,113.647,1658.856,113.145z M1669.41,149.064c1.262,0.696,1.778-0.365,2.375-1.069
		c5.391-6.354,5.91-16.377,1.229-23.273c-4.608-6.789-13.114-9.373-20.707-6.291c-7.452,3.025-11.718,10.659-10.868,19.45
		c1.3,13.448,16.267,20.633,27.174,13.037c0.648-0.451,1.452-0.909,0.89-1.949L1669.41,149.064z"/>
	<path style="fill:#243A5D;" d="M1669.503,148.969c-1.302-0.166-2.604-0.331-4.328-0.551c-2.082-3.452-4.29-7.112-6.409-10.625
		c-1.435-0.726-2.68-0.787-4.283-0.113c0,3.357,0,6.797,0,9.791c-1.224,1.598-2.377,1.101-3.771,1.171c0-8.589,0-16.965,0-25.809
		c3.641,0,7.241-0.122,10.828,0.032c4.105,0.176,6.341,1.93,6.965,5.086c0.84,4.244-0.245,6.651-3.958,8.688
		c-0.567,0.311-1.208,0.488-1.808,0.724c1.996,4.11,5.086,7.475,6.672,11.701L1669.503,148.969z M1654.479,134.078
		c3.713-0.405,7.206,0.895,9.752-2.101c0.375-1.6,0.597-3.059-0.419-4.55c-2.874-2.13-6.089-1.488-9.333-1.072
		C1654.479,128.923,1654.479,131.203,1654.479,134.078z"/>
</g>
</svg>
