<?xml version="1.0" encoding="iso-8859-1"?>
<!-- Generator: Adobe Illustrator 27.0.0, SVG Export Plug-In . SVG Version: 6.00 Build 0)  -->
<svg version="1.1" id="Layer_1" xmlns="http://www.w3.org/2000/svg" xmlns:xlink="http://www.w3.org/1999/xlink" x="0px" y="0px"
	 viewBox="0 0 1554 776" style="enable-background:new 0 0 1554 776;" xml:space="preserve">
<g>
	<path style="fill:#C43C32;" d="M411.047,0.959c22.998,1.083,45.625,4.652,67.947,10.208
		C539.642,26.263,593.641,54.27,640.581,95.49c54.273,47.66,92.345,106.093,114.323,174.925
		c6.631,20.768,11.356,41.981,14.294,63.607c2.222,16.355,3.452,32.761,3.829,49.699c-1.746-1.011-2.293-2.512-3.071-3.763
		c-18.101-29.093-43.945-47.497-77.012-56.074c-17.963-4.66-36.094-5.36-54.433-3.065c-35.044,4.385-63.586,20.483-85.603,47.955
		c-13.691,17.083-21.801,36.716-25.047,58.381c-3.427,22.873-1.188,45.159,7.529,66.564c10.652,26.157,28.464,46.207,52.943,60.395
		c16.965,9.833,35.191,15.277,54.669,17.121c9.163,0.867,18.356,1.336,27.442,0.54c23.216-2.036,44.874-8.925,64.006-22.702
		c1.08-0.778,2.156-1.562,3.244-2.329c0.269-0.19,0.575-0.326,0.899-0.506c1.174,1.433-0.197,2.474-0.673,3.505
		c-17.551,38.075-40.387,72.589-69.045,103.279c-27.846,29.821-59.485,54.736-95.098,74.581
		c-34.943,19.472-72.132,33.024-111.295,41.006c-16.949,3.454-34.099,5.81-51.434,6.433c-5.972,0.02-11.944,0.046-17.916,0.054
		c-0.857,0.001-1.654,0.052-2.131,0.906c-3.333,0-6.667,0-10,0c-0.375-0.291-0.743-0.826-1.125-0.835
		c-4.468-0.112-8.939-0.147-13.408-0.198c-0.73-0.008-1.239,0.318-1.467,1.033c-1,0-2,0-3,0c-0.456-1.287-1.588-0.942-2.515-1.004
		c-20.436-1.348-40.612-4.342-60.574-8.982c-38.14-8.866-74.101-23.209-107.812-43.031c-32.624-19.183-61.787-42.735-87.565-70.523
		c-23.115-24.917-42.543-52.388-58.494-82.353C27.125,536.453,14.668,500.85,7.274,463.472c-3.229-16.323-5.423-32.792-6.335-49.419
		c-0.016-3.799,0.059-7.602-0.091-11.396C0.787,401.1,1.543,399.313,0,398c0-6,0-12,0-18c0.587-0.4,0.847-0.944,0.851-1.664
		c0.026-5.459,0.07-10.918,0.108-16.377c0.59-11.803,2.035-23.506,3.859-35.179c5.23-33.482,14.629-65.74,28.449-96.673
		c27.369-61.261,67.79-112.235,121.314-152.687c41.618-31.454,87.871-53.338,138.494-66.004c22.636-5.664,45.56-9.328,68.876-10.459
		c5.973-0.019,11.945-0.045,17.918-0.052C380.726,0.905,381.523,0.854,382,0c3,0,6,0,9,0c0.477,0.853,1.274,0.905,2.131,0.906
		C399.103,0.913,405.075,0.939,411.047,0.959z M141.286,232.967c0,2.348,0,4.158,0,5.967c0,69.492,0.059,138.983-0.042,208.475
		c-0.024,16.495,2.751,32.397,8.73,47.731c10.503,26.94,28.942,46.598,54.787,59.428c13.79,6.846,28.319,11.119,43.489,13.78
		c20.128,3.53,40.165,3.736,59.869-1.521c38.289-10.216,64.805-34.021,78.891-71.16c7.167-18.897,9.517-38.531,8.233-58.765
		c-0.986-15.552-3.49-30.663-9.172-45.185c-11.603-29.658-31.896-50.996-61.226-63.573c-17.814-7.639-36.451-9.904-55.636-7.993
		c-10.313,1.027-20.215,3.778-29.618,8.137c-16.092,7.459-28.729,19.062-39.286,33.114c-0.598,0.796-0.768,2.124-2.609,2.054
		c0-43.518,0-86.945,0-130.487C178.846,232.967,160.382,232.967,141.286,232.967z M491.355,564.548c0-80.224,0-160.208,0-240.254
		c-18.812,0-37.377,0-55.947,0c0,80.252,0,160.234,0,240.254C454.181,564.548,472.601,564.548,491.355,564.548z M462.686,288.991
		c2.957,0.449,6.247-0.264,9.393-1.245c20.594-6.418,28.145-31.207,13.001-47.063c-8.645-9.051-22.383-12.193-33.93-7.421
		c-11.347,4.69-18.285,13.099-19.028,25.637C431.139,275.509,445.552,289.483,462.686,288.991z"/>
	<path style="fill:#DB937E;" d="M1554,635c-0.271,0.095-0.551,0.137-0.838,0.128c-0.069-0.658-0.199-1.316-0.199-1.974
		c0.007-32.604,0.022-65.208,0.048-97.811c0.002-2.488,0.093-4.977,0.142-7.465c0.288,0.003,0.57,0.043,0.846,0.123
		C1554,563.667,1554,599.333,1554,635z"/>
	<path style="fill:#D6826C;" d="M361.951,0.957C361.967,0.638,361.984,0.319,362,0c6.667,0,13.333,0,20,0
		c-0.477,0.854-1.274,0.905-2.131,0.906C373.896,0.912,367.924,0.938,361.951,0.957z"/>
	<path style="fill:#D6826C;" d="M411.047,0.959c-5.972-0.02-11.944-0.046-17.916-0.054C392.274,0.905,391.477,0.853,391,0
		c6.667,0,13.333,0,20,0C411.016,0.32,411.031,0.64,411.047,0.959z"/>
	<path style="fill:#D6826C;" d="M391,776c0.477-0.853,1.274-0.905,2.131-0.906c5.972-0.008,11.944-0.034,17.916-0.054
		c-0.015,0.32-0.031,0.64-0.046,0.959C404.333,776,397.667,776,391,776z"/>
	<path style="fill:#D98A74;" d="M0,362c0.32-0.014,0.639-0.027,0.959-0.041c-0.038,5.459-0.082,10.918-0.108,16.377
		C0.847,379.056,0.587,379.6,0,380C0,374,0,368,0,362z"/>
	<path style="fill:#DB937E;" d="M0.939,414.053l-0.463-0.147L0,414c0-5.333,0-10.667,0-16c1.543,1.313,0.787,3.1,0.848,4.657
		C0.999,406.451,0.923,410.254,0.939,414.053z"/>
	<path style="fill:#D6826C;" d="M365,776c0.228-0.715,0.737-1.041,1.467-1.033c4.47,0.051,8.94,0.086,13.408,0.198
		c0.382,0.01,0.75,0.545,1.125,0.835C375.667,776,370.333,776,365,776z"/>
	<path style="fill:#C43D33;" d="M1553.154,527.877c-0.049,2.488-0.14,4.976-0.142,7.465c-0.026,32.604-0.041,65.208-0.048,97.811
		c0,0.658,0.129,1.316,0.199,1.974c-1.003,17.36-4.978,33.903-14.511,48.647c-12.196,18.862-30.155,29.592-51.487,35.183
		c-12.44,3.261-25.145,4.915-37.986,5.101c-13.162,0.19-26.351,0.432-39.49-0.18c-15.564-0.725-30.596-4.233-44.484-11.657
		c-16.667-8.91-28.676-22.133-35.226-39.849c-7.852-21.239-9.006-42.987-1.648-64.537c7.526-22.044,23.526-36.219,44.856-44.597
		c10.888-4.277,22.279-6.6,33.974-7.323c27.468-1.697,54.965-0.353,82.445-0.778c1.826-0.028,3.653-0.004,5.236-0.004
		c1.469-1.278,0.924-2.705,0.939-3.965c0.106-8.663,0.176-17.331-0.804-25.957c-1.271-11.184-4.744-21.344-13.291-29.299
		c-4.369-4.067-9.427-6.873-14.938-8.78c-7.078-2.449-14.397-3.766-21.924-4.371c-10.702-0.859-21.275-0.519-31.858,1.176
		c-15.649,2.506-30.104,7.995-43.402,16.653c-11.615,7.563-22.178,16.463-32.811,25.285c-0.496,0.411-1.029,0.778-1.587,1.196
		c-1.191-3.639-1.634-44.514-0.665-60.128c10.035-8.012,20.67-15.657,32.832-20.889c14.775-6.356,30.21-9.903,46.272-11.251
		c16.333-1.371,32.638-1.436,48.873,0.401c17.458,1.975,34.324,6.459,49.533,15.631c20.316,12.252,32.595,30.378,37.984,53.342
		C1551.826,511.977,1552.853,519.877,1553.154,527.877z M1495.794,595c-1.838,0-2.998,0-4.158,0
		c-20.657,0-41.315,0.032-61.972-0.023c-4.848-0.013-9.678,0.273-14.42,1.117c-8.064,1.435-15.91,3.7-22.452,8.94
		c-13.188,10.563-15.961,24.65-13.21,40.421c1.466,8.404,5.885,15.123,12.693,20.203c5.976,4.459,12.848,7.128,20.112,8.236
		c15.394,2.348,30.904,2.755,46.119-0.976c17.343-4.253,29.796-14.265,34.477-32.257
		C1496.848,625.806,1495.609,610.651,1495.794,595z"/>
	<path style="fill:#C43D33;" d="M906.871,552.134c0.022-12.871,0.749-25.191-1.936-37.31c-4.04-18.235-15.961-28.872-33.715-32.648
		c-32.102-6.828-62.385-1.885-90.569,15.332c-8.261,5.046-15.538,11.391-23.518,16.786c-1.193,0.807-2.385,1.616-3.994,2.246
		c9.175-21.697,13.972-44.523,18.444-67.711c5.993-3.518,12.476-5.956,19.179-7.827c22.168-6.189,44.794-8.078,67.706-6.918
		c17.506,0.887,34.78,3.377,51.107,10.035c30.946,12.619,48.933,35.514,53.552,68.764c1.216,8.755,1.731,17.526,1.708,26.362
		c-0.075,28.821,0.1,57.643-0.088,86.464c-0.081,12.506-1.738,24.85-5.721,36.81c-7.86,23.605-23.702,39.56-46.544,48.876
		c-12.267,5.003-25.104,7.37-38.232,8.716c-17.63,1.808-35.299,1.46-52.901,0.588c-18.256-0.905-35.735-5.265-51.372-15.559
		c-16.985-11.181-27.47-26.747-32.137-46.33c-3.791-15.909-4.407-31.904-0.221-47.876c5.864-22.374,19.816-38.039,40.39-47.946
		c12.87-6.198,26.628-9.209,40.864-10.089c27.291-1.688,54.611-0.324,81.913-0.76C902.608,552.108,904.431,552.134,906.871,552.134z
		 M906.936,595.799c-1.191-0.991-2.054-0.787-2.853-0.787c-21.826-0.005-43.651,0.004-65.476,0.015
		c-5.851,0.003-11.647,0.668-17.301,2.102c-12.847,3.257-23.173,9.758-28.614,22.545c-2.829,6.647-3.171,13.549-2.728,20.566
		c0.568,8.987,3.887,16.773,10.558,22.972c6.695,6.222,14.924,9.163,23.694,10.814c11.903,2.24,23.933,1.682,35.866,0.733
		c11.83-0.941,22.548-5.165,31.67-13.152c9.408-8.237,12.733-19.138,14.281-30.918C907.558,619.082,906.681,607.417,906.936,595.799
		z"/>
	<path style="fill:#C43D33;" d="M1025.397,485.677c-10.748,0-20.853,0-31.326,0c0-14.912,0-29.452,0-44.476
		c10.268,0,20.521,0,31.229,0c0-28.534,0-56.594,0-84.926c19.514,0,38.561,0,57.89,0c0,28.179,0,56.119,0,84.789
		c18.291,0.177,36.325-0.017,54.615,0.11c0,14.906,0,29.462,0,44.446c-18.133,0-36.066,0-53.702,0
		c-1.282,1.771-0.841,3.323-0.842,4.777c-0.024,48.487-0.044,96.974,0.023,145.461c0.006,4.146,0.246,8.361,1.013,12.424
		c2.69,14.238,11.67,21.919,26.29,22.554c6.653,0.289,13.326,0.125,19.991,0.161c1.827,0.01,3.654,0.001,5.828,0.001
		c0,16.234,0,32.277,0,48.319c-1.252,0.932-2.631,0.52-3.909,0.525c-9.497,0.04-18.996,0.095-28.492,0.003
		c-14.827-0.144-29.112-2.726-42.223-10.062c-17.084-9.559-27.176-24.494-32.729-42.875c-3.068-10.155-3.613-20.624-3.627-31.115
		c-0.064-47.821-0.028-95.641-0.028-143.462C1025.397,490.353,1025.397,488.373,1025.397,485.677z"/>
	<path style="fill:#C43D33;" d="M1187.338,322.615c18.859,0,37.78,0,56.889,0c0.968,1.957,0.537,3.978,0.537,5.903
		c0.024,102.493,0.017,204.985,0.033,307.478c0.001,5.319-0.094,10.63,1.115,15.901c2.293,9.999,8.42,15.93,18.375,18.013
		c4.257,0.891,8.575,1.119,12.919,1.097c7.145-0.037,14.289-0.01,21.764-0.01c0,16.306,0,32.335,0,48.307
		c-0.419,0.212-0.71,0.491-0.996,0.486c-16.966-0.257-34.005,1.308-50.867-1.685c-28.453-5.051-47.393-21.18-56.284-48.809
		c-2.51-7.801-3.848-15.822-3.853-24.033c-0.034-53.329-0.063-106.659-0.075-159.988c-0.012-52.33-0.007-104.659,0.016-156.989
		C1186.911,326.486,1186.554,324.639,1187.338,322.615z"/>
	<path style="fill:#C43C32;" d="M582.891,443.082c0.162-19.735,5.52-37.627,18.792-52.71c7.281-8.274,16.124-14.278,26.367-18.26
		c37.933-14.747,79.376,3,95.891,38.919c11.751,25.558,10.74,51.05-3.056,75.563c-8.359,14.852-21.022,25.035-37.266,30.696
		c-19.773,6.891-39.324,6.315-58.196-2.52c-21.919-10.261-34.747-28.148-40.399-51.411
		C583.412,456.714,582.656,449.952,582.891,443.082z"/>
	<path style="fill:#C43C32;" d="M339.159,445.161c-0.054,16.946-4.162,33.489-14.612,48.04
		c-11.558,16.093-27.267,25.31-46.955,27.982c-31.774,4.313-64.221-15.578-74.843-47.793c-7.619-23.106-7.074-46.014,3.719-67.83
		c11.375-22.992,30.147-37.074,56.008-39.685c22.277-2.249,41.069,6.055,56.275,22.279c11.143,11.889,17.061,26.279,19.42,42.315
		C338.854,435.114,338.972,439.74,339.159,445.161z"/>
</g>
</svg>
