<?xml version="1.0" encoding="iso-8859-1"?>
<!-- Generator: Adobe Illustrator 27.0.0, SVG Export Plug-In . SVG Version: 6.00 Build 0)  -->
<svg version="1.1" id="Layer_1" xmlns="http://www.w3.org/2000/svg" xmlns:xlink="http://www.w3.org/1999/xlink" x="0px" y="0px"
	 viewBox="0 0 1483.084 857.261" style="enable-background:new 0 0 1483.084 857.261;" xml:space="preserve">
<g>
	<path style="fill:#424945;" d="M1483.084,848.261c-2.827,2.897-6.396,3.715-10.278,3.714c-27.997-0.006-55.994,0.062-83.99-0.043
		c-8.484-0.032-12.345-5.208-10.543-13.504c0.804-3.702,2.981-5.836,6.85-6.132c3.14-0.24,6.315-0.082,9.472-0.025
		c2.017,0.036,3.975-0.15,5.913-0.748c4.637-1.431,5.714-3.726,3.725-8.274c-0.529-1.21-1.107-2.453-1.921-3.475
		c-6.325-7.95-11.11-17.085-17.829-24.631c-5.26-5.907-9.709-11.984-12.958-19.191c-2.619-5.81-6.891-7.773-12.216-5.397
		c-13.616,6.075-24.938,14.787-29.484,29.86c-2.134,7.076-1.451,14.177,1.493,20.957c2.726,6.279,7.939,9.123,14.485,9.895
		c0.988,0.117,1.999,0.128,2.994,0.086c1.714-0.073,3.323,0.401,4.85,1.031c3.633,1.499,5.043,5.665,4.284,12.239
		c-0.491,4.253-1.991,5.904-5.982,6.815c-1.97,0.45-3.942,0.545-5.947,0.544c-25.164-0.014-50.327-0.028-75.491,0.021
		c-2.356,0.005-4.623-0.427-6.929-0.7c-1.222-0.144-2.284-0.568-3.15-1.36c-3.805-3.48-2.638-8.013-2.226-12.206
		c0.326-3.314,2.776-5.076,6.011-5.842c1.647-0.39,3.286-0.448,4.943-0.564c9.001-0.63,14.217-5.325,16.095-14.221
		c0.625-2.961,0.84-5.91,0.832-8.916c-0.085-32.826-0.19-65.652-0.202-98.479c-0.008-22.327,0.104-44.655,0.213-66.982
		c0.015-3.02-0.296-5.967-0.962-8.903c-1.704-7.515-6.431-11.77-14.137-12.617c-1.323-0.145-2.667-0.101-3.988-0.257
		c-7.017-0.833-9.895-4.352-9.405-11.44c0.45-6.517,2.843-8.936,9.43-8.93c7.649,0.007,15.299,0.283,22.948,0.469
		c6.322,0.154,12.631,0.083,18.935-0.532c2.646-0.258,5.325-0.284,7.987-0.248c8.633,0.119,12.783,4.049,13.26,12.776
		c0.245,4.486,0.14,8.995,0.116,13.493c-0.083,15.993-0.275,31.985-0.287,47.978c-0.022,29.329,0.054,58.658,0.089,87.987
		c0.002,1.481,0,2.961,0,5.164c3.312-2.362,6.133-4.349,8.93-6.37c19.287-13.937,38.563-27.89,57.866-41.805
		c1.633-1.177,3.272-2.339,4.496-3.93c3.104-4.033,1.071-9.364-3.96-10.283c-1.786-0.326-3.657-0.363-5.478-0.28
		c-2.374,0.109-4.692-0.284-6.895-0.927c-4.449-1.299-6.068-5.711-4.941-12.647c0.704-4.335,2.846-6.131,7.563-6.161
		c4.493-0.029,8.988,0.085,13.481,0.087c21.331,0.011,42.661,0.003,63.992,0.009c1.499,0,3.02-0.094,4.491,0.125
		c3.852,0.574,5.953,2.754,6.337,6.58c0.165,1.647,0.154,3.341-0.021,4.988c-0.504,4.722-2.571,7.05-7.222,8.345
		c-0.959,0.267-1.929,0.605-2.91,0.667c-12.692,0.799-23.774,5.97-34.023,12.986c-9.336,6.39-18.382,13.207-27.474,19.948
		c-4.166,3.088-4.528,5.684-1.249,10.203c5.473,7.543,11.207,14.897,16.775,22.372c11.93,16.018,23.916,31.995,35.689,48.127
		c5.002,6.855,11.245,11.184,19.829,11.819c3.059,0.227,5.628,1.494,7.721,3.734
		C1483.084,839.594,1483.084,843.927,1483.084,848.261z"/>
	<path style="fill:#9A9997;" d="M835.084,857.261c0.165-0.324,0.147-0.638-0.053-0.941c6.702,0,13.404,0,20.107,0
		c-0.2,0.303-0.218,0.617-0.053,0.941C848.417,857.261,841.751,857.261,835.084,857.261z"/>
	<path style="fill:#0CACBA;" d="M898.284,170.301c-0.605,1.05-1.28,1.474-2.338,1.72c-2.168-0.993-4.015-2.712-5.762-4.416
		c-11.561-11.27-23.607-22.008-35.882-32.479c-29.748-25.375-60.985-48.672-95.116-67.947
		c-25.491-14.396-52.031-26.342-79.924-35.25c-15.317-4.892-30.945-8.533-46.889-10.518c-12.189-1.518-24.474-2.608-36.775-2.012
		c-25.32,1.227-49.921,5.959-73.428,15.775c-23.173,9.677-44.251,22.722-63.504,38.818c-20.122,16.822-37.921,35.845-54.329,56.257
		c-18.788,23.375-35.011,48.4-49.308,74.742c-15.539,28.63-28.508,58.389-40.035,88.821c-5.16,13.624-10.146,27.318-14.588,41.175
		c-10.198,31.809-20,63.74-28.562,96.049c-6.228,23.502-12.124,47.079-17.391,70.805c-3.799,17.114-6.936,34.376-10.295,51.586
		c-0.256,1.311-0.561,2.58-0.97,3.842c-2.405,7.424-5.729,10.001-13.46,10.057c-8.665,0.063-17.33-0.062-25.996-0.063
		c-65.993-0.007-131.986,0-197.979-0.024c-1.787-0.001-3.635,0.375-5.635-0.446c-0.699-6.422,1.736-12.076,4.635-17.415
		c9.196-16.933,17.235-34.445,26.161-51.512c17.547-33.553,36.006-66.58,55.725-98.915c25.188-41.304,52.575-81.086,82.024-119.446
		c11.837-15.419,24.115-30.497,36.811-45.231c11.618-13.483,23.465-26.749,35.583-39.79c15.543-16.727,31.69-32.85,48.198-48.591
		c29.154-27.799,60.046-53.524,93.863-75.54c30.829-20.07,63.314-36.857,98.018-49.324c19.992-7.182,40.395-12.685,61.242-16.504
		c8.942-1.638,18.023-2.564,27.105-3.435c15.634-1.5,31.282-1.215,46.884-0.558c11.536,0.486,23.021,2.28,34.449,4.37
		c17.479,3.196,34.503,7.89,51.191,13.867c24.779,8.874,48.164,20.642,70.524,34.473c21.091,13.045,40.849,27.907,59.924,43.739
		c13.746,11.408,26.46,23.875,38.567,36.939c9.944,10.73,18.717,22.453,26.632,34.784
		C897.919,169.109,898.021,169.614,898.284,170.301z"/>
	<path style="fill:#424945;" d="M1237.685,432.819c11.013,3.427,21.045,6.888,30.218,12.443c9.419,5.704,17.38,12.775,22.425,22.81
		c4.623,9.195,6.004,19.006,5.38,29.067c-0.598,9.635-2.439,19.128-5.858,28.198c-6.596,17.497-19.284,28.68-36.69,34.88
		c-9.629,3.429-19.653,4.818-29.732,5.963c-28.388,3.223-56.881,2.208-85.325,1.614c-13.325-0.278-26.603,0.237-39.902,0.269
		c-13.828,0.033-27.658,0.044-41.484-0.139c-6.287-0.083-8.558-2.694-8.634-9.031c-0.01-0.833-0.022-1.667,0.003-2.5
		c0.187-6.122,2.632-8.651,8.869-9.047c2.491-0.158,4.947-0.299,7.411-0.886c7.365-1.753,11.241-6.592,12.756-13.721
		c1.437-6.759,0.905-13.598,0.885-20.417c-0.002-0.831-0.111-1.662-0.127-2.494c-0.706-35.976-0.689-71.958-0.393-107.934
		c0.105-12.804,0.514-25.616,0.598-38.428c0.026-4.02-0.575-7.931-1.721-11.787c-2.2-7.4-7.487-11.09-14.75-12.407
		c-2.286-0.414-4.621-0.55-6.917-0.92c-4.116-0.664-6.141-2.761-6.487-6.942c-0.206-2.484-0.238-5.006-0.068-7.491
		c0.272-3.977,2.314-6.042,6.226-6.551c1.15-0.15,2.329-0.103,3.495-0.105c32.494-0.073,64.987-0.196,97.481-0.182
		c13.659,0.006,27.332-0.033,40.971,0.576c11.604,0.518,23.281,0.341,34.779,2.611c11.758,2.321,22.767,6.114,31.648,14.626
		c7.757,7.434,11.825,16.836,13.896,27.08c1.707,8.444,3.055,16.953,1.676,25.723c-1.34,8.518-4.87,15.81-10.444,22.217
		c-7.193,8.269-16.226,14.231-25.379,20.026C1241.109,430.815,1239.683,431.625,1237.685,432.819z M1174.1,539.365
		c6.832,0,12.161-0.034,17.49,0.009c6.185,0.05,12.287-0.674,18.274-2.141c12.984-3.182,22.522-10.384,26.592-23.604
		c4.007-13.017,4.089-26.26,1.158-39.421c-2.442-10.963-9.255-18.534-19.874-22.531c-4.532-1.706-9.219-2.923-14.004-3.359
		c-18.759-1.708-37.565-1.797-56.297,0.049c-11.823,1.165-15.22,6.073-16.243,16.083c-1.931,18.892-1.763,37.871-0.076,56.789
		c0.995,11.153,6.007,15.712,17.069,17.227C1157.32,539.719,1166.465,539.117,1174.1,539.365z M1167.401,346.264
		c-8.483-0.007-16.965-0.048-25.412,0.939c-6.959,0.813-10.124,3.767-11.073,10.611c-0.387,2.793-0.781,5.616-0.79,8.426
		c-0.033,10.158-0.153,20.326,0.258,30.471c0.247,6.1,0.443,12.298,2.648,18.172c1.818,4.843,5.008,8.139,10.06,9.537
		c4.511,1.248,9.107,1.778,13.78,1.852c9.661,0.151,19.268-0.92,28.906-1.292c4.123-0.159,8.278-0.866,12.308-1.797
		c13.751-3.178,22.55-11.279,25.237-25.57c1.372-7.297,1.529-14.622,0.546-21.853c-1.382-10.161-5.946-18.595-15.467-23.647
		c-5.213-2.766-10.807-4.088-16.584-4.957C1183.704,345.933,1175.547,346.34,1167.401,346.264z"/>
	<path style="fill:#424945;" d="M705.048,432.874c7.269,2.612,14.489,4.988,21.39,8.204c4.074,1.898,8.058,3.944,11.84,6.363
		c12.19,7.797,19.58,18.796,21.554,33.172c1.78,12.972,1.233,25.902-2.195,38.569c-5.884,21.74-20.136,35.371-41.424,41.99
		c-9.59,2.982-19.531,3.962-29.443,4.93c-22.722,2.221-45.524,2.52-68.334,2.357c-17.324-0.124-34.657-0.025-51.967-0.607
		c-9.824-0.33-19.637-0.265-29.454-0.35c-4.482-0.039-8.967,0.397-13.452,0.436c-3.721,0.032-7.624-0.189-9.341-4.248
		c-1.923-4.545-1.377-9.19,1.054-13.42c1.256-2.186,3.76-2.535,6.139-2.744c2.971-0.261,5.947-0.185,8.886-1.089
		c6.025-1.853,10.091-5.532,11.96-11.601c0.985-3.197,1.758-6.476,1.765-9.786c0.039-16.994,0.312-34.002-0.258-50.979
		c-0.654-19.489-0.552-38.974-0.261-58.446c0.264-17.643,0.508-35.285,0.604-52.929c0.017-3.042-0.528-5.984-1.206-8.881
		c-1.973-8.442-7.624-13.418-16.272-14.617c-2.305-0.319-4.62-0.567-6.92-0.915c-3.116-0.472-5.02-2.22-5.797-5.345
		c-0.82-3.301-0.792-6.633-0.298-9.906c0.561-3.716,2.925-5.58,7.057-5.718c4.326-0.144,8.662,0.063,12.993,0.043
		c18.491-0.086,36.991,0.124,55.471-0.4c16.649-0.473,33.29-0.798,49.932-0.36c18.615,0.49,37.239,1.158,55.703,3.836
		c7.249,1.051,14.29,3.056,20.936,6.208c15.507,7.353,23.905,20.077,27.206,36.512c1.745,8.685,2.446,17.472,0.725,26.234
		c-2.173,11.062-8.294,19.796-16.688,27.087c-5.172,4.492-10.846,8.265-16.741,11.718
		C708.199,429.372,706.243,430.566,705.048,432.874z M640.406,539.366c7.218,0,12.881-0.033,18.543,0.011
		c4.337,0.034,8.63-0.271,12.908-1.028c14.371-2.544,24.601-10.237,30.1-23.931c2.299-5.726,4.103-11.606,4.823-17.729
		c1.668-14.18-1.646-26.815-12.493-36.695c-7.749-7.058-17.24-10.362-27.483-11.824c-6.45-0.921-12.927-0.965-19.417-0.91
		c-11.309,0.096-22.629-0.35-33.91,0.909c-7.359,0.821-13.711,3.069-16.045,11.077c-0.601,2.062-1.131,4.199-1.283,6.33
		c-1.301,18.277-1.547,36.591,0.099,54.831c0.901,9.986,3.388,16.268,17.297,18.088
		C623.024,539.735,632.494,539.029,640.406,539.366z M595.1,393.305c0,7.161,0.028,14.322-0.008,21.483
		c-0.035,7.133,3.168,10.411,10.322,10.451c0.498,0.003,0.997-0.099,1.495-0.097c6.325,0.029,12.65,0.067,18.976,0.105
		c12.313,0.075,24.638,0.056,36.822-1.937c13.593-2.224,22.616-9.861,26.149-23.4c2.089-8.006,2.125-16.22,1.01-24.306
		c-1.466-10.631-6.71-19.021-16.636-23.943c-4.802-2.381-9.918-3.865-15.224-4.403c-15.767-1.602-31.557-1.525-47.33-0.054
		c-8.956,0.835-13.127,4.856-14.483,13.678c-0.151,0.984-0.108,1.996-0.217,2.989C594.897,373.663,595.404,383.491,595.1,393.305z"
		/>
	<path style="fill:#424945;" d="M696.92,720.819c6.218,2.555,12.236,4.902,18.149,7.491c6.717,2.941,13.023,6.61,18.857,11.101
		c11.471,8.829,17.932,20.432,18.816,34.835c0.901,14.67-1.458,28.928-8.027,42.149c-8.706,17.525-23.581,27.084-42.377,30.753
		c-14.223,2.777-28.69,3.541-43.144,4.331c-28.135,1.537-56.286,0.833-84.417,0.346c-15.318-0.265-30.632-0.081-45.946-0.359
		c-3.129-0.057-6.202,0.837-9.406-0.015c-3.085-0.82-4.949-2.501-5.779-5.502c-0.928-3.354-0.451-6.636,0.681-9.808
		c0.701-1.964,2.213-3.344,4.308-3.832c1.939-0.451,3.903-0.701,5.914-0.819c10.801-0.634,16.861-6.412,17.504-17.252
		c0.463-7.807,0.312-15.655,0.3-23.485c-0.045-29.328-0.189-58.656-0.209-87.984c-0.011-16.663,0.169-33.326,0.205-49.989
		c0.005-2.32-0.077-4.692-0.542-6.953c-1.964-9.55-7.373-14.763-17.616-15.327c-9.813-0.54-11.234-5.441-10.887-13.551
		c0.209-4.898,2.717-7.162,7.589-7.571c0.662-0.056,1.333-0.011,1.999-0.013c36.661-0.104,73.323-0.302,109.984-0.27
		c17.473,0.015,34.919,0.943,52.257,3.251c7.091,0.944,14.007,2.676,20.659,5.405c16.507,6.771,25.64,19.425,29.219,36.509
		c1.999,9.542,2.646,19.109-0.235,28.602c-3.377,11.126-10.623,19.413-19.626,26.382C709.497,713.62,703.308,717.162,696.92,720.819
		z M593.269,778.264c0,4.159,0.071,8.319-0.02,12.475c-0.091,4.169,0.398,8.292,0.683,12.436
		c0.972,14.147,6.008,19.08,19.985,20.276c12.297,1.053,24.598,0.759,36.9,0.769c5.817,0.005,11.614-0.639,17.302-1.926
		c15.988-3.616,26.03-13.097,29.185-29.491c1.583-8.227,2.014-16.428,0.914-24.758c-1.866-14.13-9.002-24-22.641-28.818
		c-7.93-2.801-16.216-3.48-24.507-3.705c-9.316-0.252-18.656-0.329-27.964,0.042c-5.772,0.23-11.605,0.162-17.327,1.533
		c-5.957,1.427-9.604,4.858-10.937,10.864c-0.397,1.792-0.693,3.568-0.9,5.39C593.001,761.637,593.094,769.951,593.269,778.264z
		 M631.157,638.155c-4.666,0-9.331-0.001-13.997,0c-3.833,0.001-7.628,0.273-11.412,1.011c-5.988,1.169-9.891,4.292-11.104,10.519
		c-0.991,5.083-1.355,10.196-1.425,15.352c-0.157,11.481-0.496,22.962,0.788,34.414c0.996,8.886,5.091,12.994,14.038,13.861
		c0.828,0.08,1.66,0.118,2.487,0.211c8.13,0.915,16.297,0.271,24.437,0.577c6.504,0.245,12.964,0.15,19.419-0.748
		c14.993-2.085,24.616-10.648,27.931-23.974c2.173-8.734,2.428-17.477,0.44-26.185c-2.516-11.018-9.063-18.642-19.973-22.285
		c-5.085-1.698-10.263-2.743-15.632-2.752C641.821,638.148,636.489,638.155,631.157,638.155z"/>
	<path style="fill:#424945;" d="M985.498,336.65c1.98-4.353,3.741-8.278,5.548-12.183c3.191-6.895,6.781-8.927,14.267-7.952
		c2.305,0.3,4.571,0.934,6.92,0.841c6.498-0.258,7.697,3.864,7.486,8.209c-0.956,19.646-0.193,39.297-0.358,58.944
		c-0.023,2.793,0.315,5.578-0.081,8.389c-0.692,4.919-2.597,7.29-7.417,8.024c-3.779,0.576-7.667,0.678-11.462,0.146
		c-3.695-0.518-6.377-2.789-8.011-6.12c-1.534-3.127-2.864-6.354-4.32-9.521c-3.693-8.032-8.016-15.675-13.671-22.527
		c-9.473-11.476-21.455-18.887-36.098-21.4c-16.081-2.76-32.189-2.402-47.948,2.177c-20.173,5.862-33.65,19.37-42.292,38.127
		c-5.041,10.942-7.841,22.539-9.943,34.332c-2.202,12.353-2.81,24.84-1.954,37.31c1.38,20.096,5.823,39.418,16.742,56.734
		c11.131,17.652,27.346,27.552,47.712,31.227c14.461,2.609,28.803,2.463,42.964-1.464c21.102-5.852,36.702-18.828,47.646-37.628
		c2.178-3.741,3.949-7.63,5.34-11.753c2.756-8.171,6.44-9.978,14.423-7.226c9.749,3.361,13.236,7.016,8.641,18.413
		c-7.722,19.152-18.706,35.936-35.245,48.711c-13.279,10.257-28.321,16.535-44.692,19.753c-10.801,2.123-21.736,3.044-32.735,2.732
		c-28.326-0.803-54.947-7.303-78.218-24.313c-23.457-17.146-37.946-40.102-43.668-68.569c-2.992-14.884-4.534-29.916-3.68-45.108
		c1.511-26.882,8.24-52.105,24.402-74.157c18.613-25.396,43.521-41.206,74.278-47.481c36.383-7.422,69.885,0.317,100.829,20.319
		C982.283,334.531,983.654,335.441,985.498,336.65z"/>
	<path style="fill:#434A46;" d="M1079.797,716.778c5.353-5.179,9.717-9.491,14.526-13.33c13.365-10.671,28.144-18.317,45.232-20.591
		c11.932-1.588,23.889-1.478,35.588,2.096c16.293,4.977,25.597,16.427,27.946,34.553c1.441,11.117,0.869,22.284,0.941,33.425
		c0.12,18.492-0.142,36.986-0.223,55.479c-0.009,1.996,0.026,3.999,0.188,5.987c0.803,9.855,6.606,15.78,16.469,16.851
		c1.979,0.215,3.953,0.233,5.908,0.836c4.911,1.514,6.802,4.325,6.61,10.246c-0.182,5.615-2.151,8.035-7.218,9.149
		c-1.979,0.435-3.951,0.5-5.95,0.5c-23.829-0.007-47.658-0.001-71.488-0.006c-9.09-0.002-10.389-1.289-10.47-10.304
		c-0.009-0.997-0.041-1.998,0.031-2.991c0.287-3.958,1.601-5.654,5.391-6.822c1.098-0.338,2.275-0.424,3.417-0.615
		c7.263-1.217,11.533-5.611,12.411-12.925c0.237-1.977,0.261-3.988,0.255-5.984c-0.079-23.659-0.142-47.319-0.308-70.978
		c-0.042-5.994-0.79-11.9-2.758-17.648c-3.871-11.301-13.11-17.207-25.36-15.221c-21.493,3.485-44.322,18.152-50.518,46.207
		c-0.644,2.914-1.249,5.91-1.276,8.873c-0.156,16.99-0.22,33.981-0.137,50.971c0.053,10.964,6.3,15.963,14.572,17.093
		c6.288,0.859,7.363,2.672,7.545,8.94c0.316,10.879-2.071,11.168-11.164,11.292c-24.325,0.332-48.657,0.123-72.986,0.088
		c-1.477-0.002-2.954-0.362-4.431-0.558c-0.165-0.022-0.331-0.048-0.491-0.093c-4.531-1.261-5.614-3.871-5.171-12.458
		c0.248-4.807,1.392-6.091,6.149-6.784c1.973-0.288,3.961-0.472,5.941-0.716c8.303-1.023,13.509-5.982,15.202-14.194
		c1.123-5.445,1.114-10.94,0.863-16.414c-0.801-17.473-0.88-34.958-0.541-52.431c0.135-6.972,0.137-13.968,0.595-20.939
		c0.21-3.197-0.276-6.328-1.001-9.405c-1.526-6.479-5.681-10.365-12.168-11.688c-2.274-0.464-4.611-0.606-6.911-0.954
		c-5.074-0.769-7.161-2.917-8.28-7.883c-0.659-2.925,0.042-5.668,0.835-8.318c0.779-2.599,2.898-3.936,5.77-3.869
		c3.658,0.085,7.318,0.108,10.977,0.112c11.831,0.013,23.663-0.018,35.494,0.022c2.656,0.009,5.295,0.32,7.945,0.622
		c7.757,0.882,10.312,4.525,11.278,12.169c0.374,2.964,0.615,5.952,0.747,8.937C1079.895,709.924,1079.797,712.752,1079.797,716.778
		z"/>
	<path style="fill:#742D83;" d="M740.127,191.332c-8.412,2.548-17.076,4.01-25.634,5.92c-29.81,6.656-59.682,13.11-88.907,22.061
		c-66.806,20.462-129.525,49.713-187.744,88.417c-37.867,25.174-72.336,54.418-103.291,87.731
		c-20.765,22.347-39.565,46.278-56.397,71.731c-2.404,3.635-4.846,7.159-8.934,9.717c0.834-6.101,2.529-11.76,3.877-17.489
		c8.064-34.253,16.776-68.328,28.027-101.703c5.943-17.627,12.746-34.919,20.383-51.881c0.269-0.598,0.696-1.126,1.049-1.687
		c0.623-0.197,1.268-0.341,1.865-0.598c14.879-6.42,29.68-13.031,44.646-19.242c23.496-9.751,47.25-18.84,71.291-27.178
		c18.4-6.381,36.921-12.369,55.574-17.967c16.737-5.022,33.577-9.65,50.515-13.941c20.291-5.14,40.653-9.972,61.13-14.316
		c11.768-2.497,23.457-5.425,35.298-7.494c12.989-2.27,25.934-4.829,39.052-6.423c7.364-0.895,14.693-2.09,22.082-2.909
		c4.294-0.476,8.603-0.558,12.872-1.065C724.61,192.099,732.329,191.228,740.127,191.332z"/>
	<path style="fill:#107683;" d="M740.127,191.332c-7.797-0.104-15.517,0.767-23.246,1.685c-4.269,0.507-8.578,0.589-12.872,1.065
		c-7.389,0.819-14.718,2.014-22.082,2.909c-13.118,1.594-26.063,4.153-39.052,6.423c-11.841,2.069-23.531,4.997-35.298,7.494
		c-20.477,4.345-40.839,9.176-61.13,14.316c-16.937,4.291-33.778,8.919-50.515,13.941c-18.654,5.597-37.174,11.586-55.574,17.967
		c-24.041,8.338-47.796,17.427-71.291,27.178c-14.966,6.211-29.766,12.822-44.646,19.242c-0.597,0.257-1.242,0.402-1.865,0.598
		c3.035-8.076,6.102-16.14,9.092-24.233c1.436-3.887,2.957-7.766,4.034-11.758c2.635-9.761,8.973-16.115,17.985-20.025
		c11.573-5.02,23.135-10.079,34.835-14.792c40.836-16.453,82.656-29.881,125.419-40.366c22.076-5.413,44.317-9.994,66.719-13.871
		c17.181-2.973,34.425-5.485,51.723-7.55c12.196-1.456,24.433-2.671,36.709-3.494c12.776-0.857,25.558-1.406,38.341-2.054
		c20.48-1.037,40.955-0.828,61.415-0.342c18.264,0.434,36.525,1.578,54.749,2.928c16.721,1.239,33.404,3.044,50.072,4.893
		c3.887,0.431,7.929,0.357,11.693,1.644c-0.528,5.332-1.632,6.691-6.305,6.039c-7.137-0.994-14.33-0.523-21.315,0.033
		c-18.862,1.503-37.812,1.457-56.629,3.755c-17.64,2.154-35.361,3.65-53.045,5.449C745.403,190.675,742.767,191.022,740.127,191.332
		z"/>
	<path style="fill:#424945;" d="M855.138,856.32c-6.702,0-13.404,0-20.107,0c-6.991-0.417-13.863-1.647-20.559-3.616
		c-16.925-4.976-26.274-16.69-29.223-33.765c-1.372-7.943-1.254-15.883,1.383-23.625c4.142-12.164,13.072-19.717,24.248-25.088
		c12.842-6.172,26.613-9.191,40.475-11.898c10.26-2.004,20.531-3.924,30.684-6.472c3.982-1,8.209-1.076,12.337-1.429
		c8-0.684,11.356-3.806,11.961-11.762c0.803-10.55-0.745-20.491-7.965-28.89c-6.25-7.271-14.693-9.962-23.667-11.533
		c-16.614-2.909-31.919,1.578-46.767,8.482c-0.272,0.127-0.438,0.484-0.884,1.001c2.413,1.93,4.807,3.873,7.232,5.776
		c2.247,1.764,4.226,3.771,5.737,6.202c2.036,3.276,2.627,6.793,1.513,10.515c-2.849,9.518-9.009,15.267-19.006,16.663
		c-5.397,0.754-10.681,0.149-15.684-1.83c-7.448-2.945-10.905-9.039-11.582-16.668c-1.149-12.955,3.469-23.504,14.113-31.138
		c9.982-7.16,21.259-11.635,32.997-14.845c27.387-7.49,54.045-4.457,79.836,6.7c15.419,6.67,23.695,19.191,26.859,35.398
		c1.026,5.257,1.22,10.565,1.221,15.891c0.006,25.158,0.028,50.317-0.029,75.475c-0.007,3.179,0.327,6.311,0.72,9.436
		c0.55,4.376,2.986,6.651,7.111,6.974c4.759,0.372,7.854-1.673,9.094-5.942c1.231-4.236,0.839-8.589,0.984-12.902
		c0.05-1.496-0.088-2.997-0.085-4.496c0.013-6.998,4.195-10.252,11.085-8.728c2.662,0.589,3.989,2.427,4.453,4.822
		c2.107,10.869,1.727,21.521-3.533,31.553c-4.616,8.804-12.1,13.877-21.627,16.218c-12.219,3.002-23.482,1.578-33.046-7.249
		c-5.092-4.7-8.483-10.62-11.298-16.89c-0.659-1.467-0.883-3.191-2.39-4.452C896.9,842.227,878.726,854.084,855.138,856.32z
		 M907.099,760.024c-10.46,2.603-20.436,4.934-30.326,7.586c-12.668,3.398-25.11,7.43-36.372,14.434
		c-4.587,2.852-8.593,6.245-11.401,10.926c-7.638,12.737-2.149,29.481,11.604,34.902c6.711,2.645,13.782,3.721,20.99,3.144
		c10.599-0.848,20.361-4.4,29.505-9.727c10.169-5.924,15.468-14.992,15.904-26.55C907.436,783.304,907.099,771.84,907.099,760.024z"
		/>
	<path style="fill:#107683;" d="M427.768,324.734c0.626,1.598,0.297,3.257,0.301,4.875c0.071,25.29,0.107,50.58,0.158,75.87
		c0.021,10.673-2.243,12.835-12.827,12.697c-11.809-0.155-23.619-0.172-35.429-0.179c-2.819-0.002-5.628,0.22-8.421,0.821
		c-1.76,0.379-3.648,0.42-5.454,0.281c-3.498-0.27-6.059-2.124-6.792-5.597c-1.534-7.264-3.1-14.518-2.389-22.079
		c0.593-6.309,3.174-11.614,7.732-15.715c19.277-17.346,38.86-34.336,60.053-49.356C425.631,325.69,426.496,324.854,427.768,324.734
		z"/>
	<path style="fill:#147886;" d="M751.209,217.371c2.749,5.939,2.241,12.14,1.714,18.227c-0.431,4.966-3.66,8.102-8.433,9.359
		c-6.567,1.729-13.132,1.25-19.659-0.438c-4.467-1.155-7.259-4.16-8.405-8.377c-1.701-6.259-2.669-12.699-2.155-19.216
		c0.664-8.416,5.743-13.9,14.41-15.377c6.058-1.032,12.205-1.486,18.369-1.284c5.509,0.181,7.509,2.673,6.373,8.007
		C752.768,211.345,751.942,214.383,751.209,217.371z"/>
</g>
</svg>
