<?xml version="1.0" encoding="iso-8859-1"?>
<!-- Generator: Adobe Illustrator 27.0.0, SVG Export Plug-In . SVG Version: 6.00 Build 0)  -->
<svg version="1.1" id="Layer_1" xmlns="http://www.w3.org/2000/svg" xmlns:xlink="http://www.w3.org/1999/xlink" x="0px" y="0px"
	 viewBox="0 0 1468.098 1280" style="enable-background:new 0 0 1468.098 1280;" xml:space="preserve">
<g>
	<path style="fill:#1F93D2;" d="M386.098,1280c-2.031-1.803-4.721-1.203-7.056-1.733c-20.097-4.559-37.359-14.197-52.485-28.062
		c-17.047-15.626-28.797-34.646-36.264-56.334c-5.236-15.208-7.043-30.985-6.419-47.074c0.954-24.589,8.107-47.02,23.587-66.32
		c14.804-18.457,34.007-29.709,57.482-33.679c5.594-0.946,11.266-1.46,16.797-1.468c7.39-0.011,14.867,0.749,22.232,2.088
		c5.177,0.941,10.299,1.751,15.755,0.98c9.032-1.276,15.542-5.989,19.924-13.419c5.652-9.584,11.755-18.871,17.647-28.295
		c6.82-10.908,6.139-21.709-0.405-32.331c-4.614-7.489-9.779-14.642-13.479-22.672c-5.799-12.587-9.596-25.612-10.613-39.583
		c-1.623-22.308,3.423-43.013,13.075-62.909c8.509-17.54,19.333-33.36,33.929-46.394c14.416-12.874,31.075-21.266,50.144-24.955
		c10.05-1.944,20.141-2.317,30.265-1.707c8.432,0.508,16.742,2.189,24.969,4.092c12.979,3.002,23.625-0.574,31.92-10.978
		c4.975-6.24,9.818-12.579,15.435-18.283c1.379-1.4,2.44-3.158,3.45-4.868c3.355-5.684,3.542-11.577,0.891-17.585
		c-3.251-7.369-8.501-13.466-12.853-20.132c-3.721-5.699-7.77-11.189-10.58-17.44c-1.513-3.367-2.579-6.789-2.378-10.572
		c0.284-5.349-0.672-10.578-1.99-15.738c-2.891-11.322-11.823-18.513-23.503-19.766c-7.025-0.753-13.868-0.199-20.711,1.042
		c-3.767,0.683-7.292-0.424-10.823-1.14c-13.801-2.797-25.53,1.046-35.74,10.443c-6.663,6.132-11.77,13.516-17.151,20.701
		c-12.288,16.409-27.709,28.599-47.648,34.338c-29.018,8.351-57.403-1.643-75.681-24.663c-6.353-8.001-11.27-16.769-14.849-26.342
		c-1.625-4.345-3.746-8.474-6.368-12.365c-4.508-6.689-11.138-9.163-18.7-9.72c-3.117-0.23-6.259,0.006-9.424,0.506
		c-3.74,0.592-7.612,0.513-11.426-0.09c-6.314-0.999-12.615-0.536-18.778,0.909c-8.39,1.967-13.91,7.471-17.209,15.252
		c-3.167,7.471-5.681,15.205-9.521,22.408c-15.708,29.465-40.061,47.877-72.306,55.475c-13.029,3.07-26.377,2.794-39.164-2.53
		c-14.582-6.071-24.536-16.781-30.801-30.981c-5.076-11.506-7.135-23.673-7.535-36.273c-0.211-6.636-0.091-13.233,0.369-19.802
		c1.924-27.516,10.77-52.446,28.326-74.023c18.457-22.685,42.614-35.98,70.607-42.989c4.502-1.127,9.088-1.76,13.663-2.504
		c8.917-1.45,16.645-5.664,23.51-11.317c18.656-15.362,32.181-34.261,39.126-57.625c2.356-7.925,2.364-15.809,1.206-23.974
		c-0.992-6.992-1.168-14.111-0.772-21.263c0.508-9.189,2.041-18.091,5.013-26.763c8.057-23.512,23.111-41.173,44.67-53.414
		c10.48-5.951,21.695-10.051,33.523-11.884c14.393-2.23,28.519-1.279,40.934,7.632c9.84,7.063,15.665,16.889,17.073,28.734
		c3.252,27.359-5.162,51.452-22.444,72.455c-13.133,15.96-30.643,25.11-50.492,29.885c-12.813,3.082-25.2,7.126-36.398,14.216
		c-23.505,14.884-39.213,35.55-45.528,62.819c-4.804,20.741-2.519,40.865,6.727,60.106c1.364,2.839,2.883,5.627,4.585,8.275
		c3.435,5.343,9.139,7.385,14.812,8.319c20.374,3.354,39.587-0.101,57.164-11.288c3.688-2.348,6.61-5.501,9.102-9.11
		c5.484-7.944,11.325-15.614,18.235-22.399c13.264-13.024,28.838-21.836,47.306-24.703c15.13-2.349,30.126-1.697,44.388,4.757
		c8.428,3.814,15.634,9.228,21.835,16.161c5.937,6.639,10.008,14.456,14.814,21.816c6.696,10.252,14.635,19.328,25.182,25.837
		c18.138,11.195,36.308,11.1,54.488,0.101c10.891-6.59,19.256-15.752,26.352-26.151c4.31-6.316,8.648-12.609,13.515-18.507
		c5.228-6.335,11.543-11.465,18.256-16.161c4.906-3.432,8.454-7.894,9.724-13.949c0.593-2.826,0.626-5.56-0.159-8.353
		c-1.124-3.997-2.386-7.931-4.357-11.604c-4.006-7.466-7.5-15.178-10.895-22.932c-4.952-11.31-15.218-15.46-27.455-13.646
		c-13.672,2.027-27.438,2.285-41.241,0.628c-12.545-1.506-24.2-5.215-35.003-11.851c-11.361-6.979-19.849-16.552-26.34-28.021
		c-5.838-10.316-10.294-21.254-11.728-33.037c-1.349-11.08-0.87-22.211,2.005-33.143c4.356-16.567,12.736-30.978,23.916-43.713
		c13.082-14.902,28.506-26.944,46.585-35.303c14.695-6.794,30.093-10.88,46.296-12.437c16.948-1.628,33.415-0.187,49.551,5.139
		c22.15,7.311,38.959,21.148,49.955,41.722c3.829,7.164,6.19,14.963,7.397,23.069c3.998,26.871-4.361,50.41-19.384,72.153
		c-7.039,10.188-15.987,18.684-24.509,27.566c-4.636,4.832-8.166,10.308-9.533,17.152c-1.128,5.643-0.182,10.922,1.517,16.112
		c3.136,9.575,8.045,18.266,14.925,25.628c6.32,6.763,14.348,10.509,23.562,11.786c5.954,0.825,11.819,0.917,17.826,0.151
		c8.326-1.061,16.496,0.969,24.674,2.334c4.411,0.736,8.807,1.562,13.331,1.506c9.83-0.123,17.671-4.103,23.494-11.945
		c5.679-7.648,9.854-16.131,13.102-25.053c3.881-10.664,2.574-20.903-3.121-30.598c-4.624-7.87-9.835-15.396-13.681-23.72
		c-6.378-13.803-10.519-28.087-11.552-43.414c-1.861-27.627,6.166-52.322,20.817-75.254c6.922-10.834,14.923-20.824,24.494-29.459
		c16.131-14.553,34.556-24.511,56.302-27.658c17.347-2.511,34.389-0.966,51.2,3.833c4.46,1.273,8.992,2.225,13.686,2.259
		c8.771,0.064,15.926-3.473,21.197-10.242c7.562-9.71,13.953-20.231,19.74-31.087c7.08-13.282,4.52-22.957-7.291-32.942
		c-3.791-3.205-6.698-6.783-9.023-11.078c-6.883-12.719-12.899-25.723-15.962-40.004c-3.309-15.432-3.814-30.885-2.051-46.527
		c1.674-14.857,5.96-28.854,13.145-41.921c14.062-25.574,35.221-41.883,63.787-48.406c3.391-0.774,6.742-1.708,10.245-1.826
		c7.357-0.01,14.713-0.019,22.07-0.029c14.278,1.235,27.552,5.785,39.915,12.805c23.58,13.39,40.678,32.889,52.346,57.195
		c6.2,12.914,10.122,26.518,11.915,40.813c1.191,9.49,1.401,18.994,0.578,28.389c-2.533,28.919-14.023,53.708-35.907,73.208
		c-10.507,9.363-22.229,16.776-35.791,21.039c-6.861,2.157-13.972,3.238-21.03,3.197c-7.06-0.041-14.122-1.434-21.057-3.149
		c-7.49-1.852-15.166-2.396-22.74-0.956c-10.561,2.007-17.586,9.09-22.787,17.921c-4.709,7.996-9.248,16.116-12.654,24.818
		c-4.159,10.624-3.964,20.991,0.857,31.351c2.249,4.834,4.941,9.403,7.674,13.956c7.774,12.951,12.77,26.823,14.783,41.856
		c2.736,20.434-0.38,40.022-8.008,58.955c-8.377,20.79-20.742,38.925-37.172,54.248c-14.311,13.346-31.125,22.047-50.148,26.11
		c-16.608,3.548-33.276,2.634-49.838-1.149c-10.457-2.388-20.749-2.122-30.354,3.49c-3.317,1.938-6.387,4.226-9.06,6.971
		c-5.808,5.966-11.138,12.333-15.576,19.403c-5.192,8.271-5.73,16.744-1.172,25.503c1.617,3.108,3.245,6.225,5.541,8.849
		c7.667,8.761,12.605,18.961,16.751,29.739c2.593,6.74,4.029,13.606,4.892,20.69c0.482,3.962,1.426,7.838,3.25,11.417
		c2.389,4.69,6.29,7.286,11.545,7.421c4.992,0.129,9.993-0.049,14.988-0.149c8.829-0.177,17.541,1.167,26.306,1.85
		c16.689,1.3,30.774-3.933,40.922-17.833c4.796-6.569,8.718-13.746,13.986-19.996c10.791-12.803,23.275-23.144,39.563-28.318
		c16.078-5.107,31.639-3.79,46.881,3.092c16.917,7.638,29.42,20.203,39.602,35.388c2.782,4.148,5.491,8.352,7.495,12.917
		c4.769,10.864,13.408,17.044,24.355,20.402c12.896,3.956,25.846,3.977,38.63-0.443c8.479-2.932,15.041-8.139,18.917-16.589
		c3.037-6.62,5.432-13.519,9.271-19.806c10.617-17.389,23.552-32.54,40.84-43.645c11.584-7.44,24.005-12.362,37.828-14.16
		c12.275-1.596,23.767,0.445,34.956,5.056c11.526,4.75,19.771,13.245,25.926,23.878c5.801,10.021,9.093,20.852,10.93,32.292
		c0.901,5.61,1.397,11.316,1.347,16.812c-0.146,16.135-2.946,31.965-9.034,47.039c-5.86,14.512-12.951,28.362-22.389,40.936
		c-16.943,22.575-38.755,37.341-66.84,42.466c-5.713,1.042-11.474,1.49-17.184,2.457c-10.857,1.84-20.057,6.983-28.152,14.029
		c-16.369,14.246-27.302,31.963-32.394,53.136c-2.2,9.148-2.233,18.344-0.76,27.668c2.487,15.743,0.23,31.021-5.52,45.82
		c-5.109,13.149-12.45,24.851-22.072,35.235c-11.986,12.936-25.949,22.631-42.917,27.754c-15.164,4.579-30.358,4.88-45.382-0.424
		c-13.672-4.826-21.619-14.867-24.907-28.783c-2.001-8.469-2.153-16.962-1.315-25.668c0.871-9.049,3.089-17.625,6.517-25.91
		c6.516-15.746,17.052-28.384,30.66-38.53c13.558-10.109,28.875-15.984,45.408-19.055c16.886-3.136,31.023-11.487,42.88-23.669
		c15.208-15.625,24.751-34.25,29-55.687c3.204-16.165,2.516-31.965-3-47.531c-2.238-6.315-5.501-12.07-9.368-17.496
		c-2.004-2.812-4.943-4.431-8.114-5.527c-3.605-1.246-7.301-2.016-11.17-2.21c-14.094-0.707-27.84,0.736-40.991,6.148
		c-8.116,3.34-15,7.983-20.101,15.583c-8.376,12.479-18.349,23.643-30.799,32.347c-12.251,8.565-25.858,12.89-40.731,14.37
		c-11.798,1.174-23.182,0.339-34.299-3.504c-16.808-5.81-28.432-17.321-35.572-33.453c-1.873-4.232-3.256-8.679-5.052-12.948
		c-3.4-8.08-7.858-15.313-15.699-20.002c-4.394-2.627-9.076-4.135-14.085-4.39c-5.317-0.271-10.666-0.274-15.987-0.049
		c-8.498,0.359-16.924-1.094-25.397-0.819c-6.343,0.207-12.519,1.394-18.065,4.741c-6.982,4.213-10.616,10.928-12.848,18.361
		c-2.671,8.892-6.752,16.852-12.889,23.859c-4.654,5.313-10.407,9.286-15.766,13.736c-3.987,3.311-7.648,6.86-10.772,11.021
		c-4.881,6.501-5.971,14.016-4.059,21.367c3.465,13.323,9.996,25.282,19.629,35.274c4.377,4.541,9.948,6.79,16.302,7.769
		c6.732,1.037,13.125-0.115,19.706-0.967c30.821-3.993,57.685,3.841,78.466,27.909c12.064,13.971,19.998,30.222,22.253,48.633
		c1.652,13.491-0.312,26.774-5.424,39.556c-5.243,13.111-12.865,24.688-21.777,35.507c-12.56,15.247-27.703,27.192-45.586,35.628
		c-13.147,6.202-26.952,9.902-41.398,11.65c-8.319,1.006-16.622,1.141-24.902,0.731c-16.699-0.826-32.796-4.182-47.489-12.769
		c-19.898-11.629-31.783-29.207-38.103-50.924c-1.853-6.368-2.923-12.888-3.105-19.578c-0.369-13.57,2.82-26.339,8.557-38.474
		c7.669-16.223,17.81-30.736,30.939-43.077c2.305-2.167,4.451-4.503,6.736-6.692c9.167-8.784,11.189-19.428,7.32-31.078
		c-3.261-9.821-8.018-18.895-15.676-26.276c-6.361-6.132-13.909-9.513-22.412-11.012c-8.517-1.502-17.169-1.513-25.777-1.902
		c-7.299-0.33-14.528-1.376-21.794-1.921c-20.996-1.575-32.469,4.86-41.665,23.629c-1.745,3.562-3.068,7.331-4.581,11.006
		c-4.487,10.897-2.706,21.111,3.489,30.773c4.753,7.413,9.667,14.731,13.425,22.721c5.815,12.36,9.868,25.205,11.631,38.842
		c3.535,27.352-3.249,52.333-16.821,75.784c-7.705,13.313-17.201,25.283-28.565,35.71c-15.134,13.887-32.592,23.464-52.877,27.08
		c-18.022,3.212-35.94,1.919-53.456-3.573c-4.775-1.497-9.692-2.801-14.57-2.833c-5.947-0.04-11.798,1.425-16.508,5.753
		c-4.348,3.994-7.718,8.709-10.637,13.758c-3.744,6.476-7.84,12.719-11.966,18.95c-1.096,1.655-1.908,3.495-2.882,5.234
		c-4.908,8.768-3.21,16.89,2.317,24.695c3.864,5.457,9.098,9.68,13.155,14.991c10.786,14.115,17.617,29.862,20.747,47.331
		c1.65,9.214,2.279,18.467,1.788,27.769c-1.411,26.702-9.092,51.258-26.53,71.953c-14.91,17.695-33.684,29.309-56.784,33.275
		c-0.684,0.117-1.279,0.236-1.558,0.95C406.098,1280,396.098,1280,386.098,1280z"/>
	<path style="fill:#2094D2;" d="M1468.098,634c-1.903,1.212-1.076,3.339-1.474,4.975c-5.026,20.618-14.526,39.043-27.058,56.007
		c-4.141,5.605-8.395,11.049-14.12,15.3c-14.14,10.498-36.137,1.783-39.327-15.13c-4.085-21.658-2.902-42.859,5.706-63.376
		c7.329-17.469,17.419-33.159,30.698-46.694c4.973-5.069,10.961-8.397,18.244-9.248c10.732-1.253,21.828,4.617,25.402,14.771
		c0.524,1.489,0.453,3.304,1.929,4.395C1468.098,608,1468.098,621,1468.098,634z"/>
	<path style="fill:#7FB2E0;" d="M1072.15,0.957c-7.357,0.01-14.713,0.019-22.07,0.029c0.006-0.328,0.012-0.657,0.018-0.985
		c7.333,0,14.667,0,22,0C1072.016,0.324,1072.033,0.643,1072.15,0.957z"/>
	<path style="fill:#1F93D2;" d="M890.164,1167.871c-12.021,0.406-23.854-0.707-35.269-4.764
		c-16.236-5.77-25.801-17.467-29.772-33.949c-2.796-11.607,0.412-22.402,5.416-32.684c11.151-22.91,28.07-40.523,49.895-53.588
		c16.11-9.644,33.449-16.017,51.783-19.633c11.111-2.192,22.442-3.065,33.737-2.026c13.268,1.22,26.215,3.819,37.625,11.46
		c12.448,8.335,19.224,20.043,20.277,34.79c0.674,9.444-1.815,18.558-6.631,26.677c-18.295,30.838-44.276,52.52-77.973,65.042
		c-11.411,4.24-23.16,6.833-35.111,8.569C899.573,1168.427,894.828,1167.871,890.164,1167.871z"/>
	<path style="fill:#1F93D2;" d="M1253.097,403.788c0.408,15.824-2.443,31.048-9.012,45.441
		c-10.102,22.134-26.49,37.097-50.55,42.709c-18.608,4.341-36.249,1.775-52.495-8.552c-10.597-6.736-18.734-15.847-24.707-26.86
		c-6.899-12.721-10.403-26.314-11.461-40.794c-1.085-14.845,1.04-29.064,6.214-42.835c7.639-20.33,20.432-36.693,40.181-46.225
		c24.887-12.013,49.44-10.977,72.484,5.248c9.165,6.453,15.529,15.368,20.29,25.436
		C1249.957,369.86,1253.598,386.831,1253.097,403.788z"/>
	<path style="fill:#1F93D2;" d="M1249.107,155.012c-0.237-9.003,0.349-19.114,2.057-29.113c2.174-12.728,5.894-24.852,15.124-34.523
		c6.516-6.828,14.639-10.662,23.681-12.887c10.828-2.664,21.598-2.871,32.251,0.67c10.475,3.482,18.437,10.427,24.933,19.088
		c10.634,14.178,16.456,30.543,20.914,47.458c2.498,9.477,4.003,19.159,3.77,28.965c-0.47,19.72-6.672,37.297-19.917,52.265
		c-6.325,7.148-13.529,12.705-22.881,15.016c-9.671,2.39-19.197,1.471-28.192-2.665c-26.122-12.012-43.615-31.441-50.34-59.806
		C1248.691,171.818,1248.874,163.974,1249.107,155.012z"/>
	<path style="fill:#1F93D2;" d="M660.415,1165.13c-22.913,0.251-40.829-7.092-56.583-20.6c-8.239-7.064-13.954-15.328-16.062-26.096
		c-1.602-8.185-0.055-15.857,3.236-23.226c8.666-19.404,23.084-32.99,42.619-41.149c12.948-5.408,26.56-7.977,40.498-9.139
		c17.211-1.435,33.662,2.036,49.35,8.549c15.344,6.37,24.328,18.561,27.543,34.812c1.752,8.855,2.09,17.8-0.476,26.609
		c-3.263,11.204-10.643,19.404-19.734,26.193c-15.144,11.309-32.38,17.884-50.696,21.895
		C672.953,1164.546,665.721,1165.419,660.415,1165.13z"/>
	<path style="fill:#2094D2;" d="M1347.23,833.637c0.309,11.958-3.639,22.894-9.202,33.09c-6.751,12.372-14.144,24.447-23.074,35.423
		c-10.032,12.33-21.748,22.333-37.729,26.282c-7.545,1.864-15.198,2.256-22.755,1.332c-7.761-0.949-11.776-5.765-13.249-15.237
		c-2.574-16.557,0.732-32.214,7.698-47.315c7.393-16.028,17.37-30.207,30.042-42.41c8.275-7.968,17.31-15.051,28.392-18.849
		c7.439-2.549,14.988-3.743,22.937-2.155c9.272,1.853,13.677,7.944,15.791,16.46C1347.173,824.658,1347.26,829.131,1347.23,833.637z
		"/>
	<path style="fill:#2094D2;" d="M1173.653,1005.05c3.56,0.65,7.203,0.759,10.713,1.873c7.355,2.336,11.364,7.212,12.88,14.861
		c1.732,8.737-0.703,16.493-4.69,23.823c-7.402,13.61-18.1,24.504-29.738,34.545c-11.241,9.699-23.408,17.967-36.844,24.339
		c-7.678,3.641-15.666,6.523-24.123,7.13c-7.044,0.506-13.853-1.276-19.515-5.903c-3.544-2.896-4.957-6.868-5.296-11.381
		c-0.819-10.88,2.405-20.649,8.078-29.709c9.117-14.56,21.223-26.317,34.891-36.54c11.891-8.893,24.694-16.07,38.972-20.465
		C1163.773,1006.149,1168.713,1005.843,1173.653,1005.05z"/>
	<path style="fill:#1F93D2;" d="M510.299,265.022c-16.592-0.176-32.21-3.921-46.218-13.112
		c-9.011-5.913-15.607-13.861-18.921-24.265c-3.785-11.886-1.647-23.254,3.271-34.309c3.476-7.812,8.501-14.642,14.046-21.07
		c15.284-17.718,33.302-31.9,54.648-41.679c14.682-6.726,29.981-11.411,46.001-13.646c4.262-0.595,8.504-1.377,12.783-1.786
		c5.159-0.493,10.274,0.63,15.373,1.13c7.397,0.726,14.699,2.371,21.684,5.105c16.121,6.311,25.994,18.299,29.757,34.83
		c1.925,8.454,0.576,17.223-2.955,25.384c-5.315,12.281-12.347,23.525-21.256,33.48c-21.634,24.176-48.947,38.801-80.115,46.548
		C529.234,263.91,519.835,265.237,510.299,265.022z"/>
	<path style="fill:#1F93D2;" d="M362.133,877.158c-0.512,21.664-5.473,41.96-18.387,59.835
		c-11.366,15.732-26.331,26.111-45.483,29.696c-17.554,3.286-34.055-0.092-48.802-10.247c-11.967-8.24-20.113-19.699-25.36-33.161
		c-3.985-10.225-6.241-20.812-7.212-31.826c-1.969-22.344,2.363-43.254,13.384-62.624c10.007-17.586,23.988-30.976,43.849-36.906
		c23.109-6.9,43.609-1.761,61.105,14.708c14.464,13.615,21.934,30.846,25.034,50.232
		C361.339,863.597,362.24,870.315,362.133,877.158z"/>
	<path style="fill:#1F93D2;" d="M220.041,1133.995c-0.215,11.28-1.06,22.489-3.907,33.466c-5.254,20.255-17.84,32.697-38.627,36.686
		c-8.218,1.577-16.287,2.427-24.585,0.364c-12.646-3.144-22.588-10.315-30.581-20.227c-10.954-13.583-16.886-29.447-20.256-46.43
		c-2.548-12.839-2.706-25.812-1.756-38.716c0.943-12.802,4.33-25.111,11.73-35.944c9.269-13.57,22.311-20.453,38.57-21.091
		c21.097-0.828,37.484,8.253,49.97,24.816c9.895,13.127,15.259,28.106,17.63,44.294
		C219.336,1118.78,220.197,1126.336,220.041,1133.995z"/>
	<path style="fill:#1F93D2;" d="M812.083,120.976c13.505-0.688,26.256,1.841,38.084,8.157c11.661,6.227,21.402,14.697,27.727,26.491
		c5.788,10.794,5.943,22.086,0.804,33.071c-11.22,23.982-29.717,39.534-55.414,46.26c-10.952,2.867-22.109,4.02-33.458,4.24
		c-13.712,0.267-26.99-1.489-39.905-6.077c-19.017-6.756-28.81-20.735-31.87-40.207c-1.23-7.825-1.107-15.494,0.734-23.184
		c3.568-14.908,13.088-25.116,25.949-32.505c11.905-6.84,24.947-10.591,38.351-13.188
		C792.705,122.171,802.331,120.387,812.083,120.976z"/>
	<path style="fill:#2094D2;" d="M142.611,481.119c-7.315,0.757-13.705-2.4-17.255-10.054c-2.085-4.494-2.877-9.447-3.294-14.454
		c-1.32-15.839,3.632-30.097,10.812-43.79c7.614-14.521,17.31-27.55,29.033-38.998c7.149-6.982,14.974-13.135,24.182-17.302
		c5.798-2.624,11.892-4.156,18.22-4.39c12.465-0.461,19.04,6.332,21.78,16.956c2.802,10.867,2.203,21.624-0.747,32.372
		c-5.339,19.451-15.359,36.191-28.939,50.976c-8.271,9.005-17.42,16.85-28.472,22.188
		C160.293,478.313,152.337,481.144,142.611,481.119z"/>
	<path style="fill:#2094D2;" d="M0.021,675.522c-0.167-32.317,10.225-58.377,27.284-82.148c4.262-5.939,8.411-11.955,13.802-17.011
		c4.573-4.289,9.983-6.603,16.074-7.043c9.283-0.67,20.864,6.587,24.5,15.202c2.003,4.746,3.182,9.744,3.436,14.938
		c0.178,3.636,0.698,7.261,0.744,10.895c0.274,21.462-5.98,41.185-16.49,59.639c-6.601,11.59-14.255,22.463-24.219,31.498
		c-4.105,3.722-8.75,6.315-14.252,7.731c-9.875,2.542-25.29-3.879-28.866-17.101C0.314,685.768-0.105,679.392,0.021,675.522z"/>
	<path style="fill:#2094D2;" d="M299.635,276.824c-5.192,0.117-10.256-0.796-15.179-2.219c-10.734-3.102-15.486-11.923-12.731-22.77
		c2.327-9.158,6.96-17.173,12.095-24.918c19.676-29.68,47.519-47.42,81.835-55.536c3.737-0.884,7.697-0.926,11.414-0.176
		c6.59,1.33,11.253,4.948,13.318,11.867c2.188,7.332,1.089,14.396-0.606,21.462c-2.172,9.053-7.086,16.79-12.857,23.889
		c-14.558,17.907-32.31,31.898-53.023,42.077C316.265,274.253,308.248,276.744,299.635,276.824z"/>
</g>
</svg>
