<?xml version="1.0" encoding="iso-8859-1"?>
<!-- Generator: Adobe Illustrator 27.0.0, SVG Export Plug-In . SVG Version: 6.00 Build 0)  -->
<svg version="1.1" id="Layer_1" xmlns="http://www.w3.org/2000/svg" xmlns:xlink="http://www.w3.org/1999/xlink" x="0px" y="0px"
	 viewBox="0 0 1547 591.208" style="enable-background:new 0 0 1547 591.208;" xml:space="preserve">
<g>
	<path style="fill:#F36F22;" d="M277,591.208c-0.596-1.536-1.954-0.92-3.008-1.004c-34.394-2.742-67.433-10.783-98.953-24.965
		c-22.402-10.08-43.323-22.597-62.578-37.823c-43.749-34.596-75.188-78.145-94.453-130.493
		c-6.209-16.871-10.722-34.187-13.834-51.878c-0.251-1.425-0.283-2.889-0.441-4.608c3.348-0.534,6.257,0.518,9.124,0.908
		c20.228,2.753,40.416,5.797,60.63,8.656c12.658,1.791,25.32,3.594,38.022,5.016c3.633,0.407,5.262,2.053,6.325,5.182
		c4.508,13.264,10.767,25.699,18.316,37.468c13.174,20.54,29.591,38.027,49.446,52.286c21.052,15.119,44.315,25.217,69.501,31.044
		c0.808,0.187,1.635,0.34,2.443-0.037c-37.759-22.953-47.163-62.351-36.359-94.189c10.401-30.651,40.867-55.663,80.65-52.491
		c30.224,2.41,60.067,23.115,69.024,59.27c8.053,32.504-5.087,67.824-39.186,87.636c4.644-0.049,8.133-1.296,11.571-2.223
		c31.391-8.472,59.035-23.809,82.685-46.115c20.51-19.345,35.744-42.336,45.981-68.601c3.481-8.932,3.389-8.784,12.829-10.033
		c8.882-1.175,17.762-2.411,26.632-3.673c9.86-1.403,19.725-2.796,29.586-4.21c14.461-2.073,28.943-4,43.418-5.978
		c0.653-0.089,1.32-0.075,2.201-0.12c1.289,3.196-0.273,6.251-0.828,9.147c-7,36.523-20.066,70.733-39.791,102.317
		c-11.409,18.268-24.607,35.155-39.688,50.546c-26.739,27.288-57.692,48.513-92.634,63.869
		c-21.479,9.439-43.79,16.201-66.944,20.277c-10.835,1.908-21.694,3.217-32.654,3.861c-0.807,0.048-1.691-0.074-2.031,0.959
		c-1,0-2,0-3,0c-0.317-0.978-1.107-1.034-1.954-1.034c-8.368,0.002-16.736-0.003-25.104-0.013c-0.848-0.001-1.637,0.062-1.942,1.047
		C279,591.208,278,591.208,277,591.208z"/>
	<path style="fill:#3A5AA9;" d="M1547,314.209c-2.025,3.053-1.381,6.669-1.734,9.962c-2.026,18.925-6.33,37.28-12.87,55.125
		c-11.36,31-28.814,58.043-53.336,80.216c-26.785,24.22-58.072,40.144-93.125,48.612c-15.673,3.787-31.525,6.449-47.688,7.407
		c-8.663,0.513-17.296,0.544-25.948,0.546c-34.326,0.008-68.654-0.189-102.978,0.088c-16.126,0.13-35.4-12.433-36.066-35.19
		c-0.029-0.999-0.01-1.999-0.01-2.999c0-121.642,0.005-243.284-0.01-364.926c-0.001-9.626,2.233-18.499,8.81-25.794
		c6.497-7.207,14.595-11.593,24.406-11.916c9.322-0.307,18.66-0.132,27.991-0.129c30.494,0.012,60.99-0.195,91.48,0.149
		c20.656,0.233,41.069,3.049,61.146,8.019c27.73,6.864,53.37,18.445,76.38,35.348c20.596,15.131,37.551,33.795,50.886,55.678
		c14.882,24.421,24.226,50.839,28.774,79.024c1.431,8.868,2.702,17.744,2.939,26.739c0.021,0.814-0.067,1.689,0.954,2.04
		c0,1.667,0,3.333,0,5c-0.703,0.251-1.031,0.759-1.031,1.496c0.004,6.333,0.007,12.665,0.008,18.998
		c0,0.737,0.325,1.246,1.022,1.506C1547,310.875,1547,312.542,1547,314.209z M1245.463,140.458
		c-1.007,6.701-0.69,306.567,0.287,309.804c26.353,0,52.67,0.066,78.986-0.053c5.476-0.025,10.98-0.483,16.416-1.172
		c17.522-2.221,34.537-6.363,50.841-13.37c26.026-11.186,46.506-28.677,61.318-52.843c13.229-21.583,19.466-45.333,21.58-70.271
		c1.182-13.932,0.93-27.89-0.701-41.83c-1.727-14.757-4.889-29.132-10.478-42.902c-14.897-36.705-41.064-61.867-78.081-75.817
		c-20.413-7.693-41.596-11.484-63.348-11.742c-24.652-0.293-49.309-0.146-73.964-0.167
		C1247.366,140.094,1246.333,139.793,1245.463,140.458z"/>
	<path style="fill:#F37022;" d="M0,274.209c0.995-0.365,0.922-1.236,0.977-2.05c1.458-21.959,5.907-43.356,12.269-64.372
		c3.219-10.633,7.266-20.973,11.693-31.163c0.266-0.612,0.46-1.253,1.792-1.857c48.216,34.144,96.756,68.517,146.278,103.586
		c-10.045,4.763-19.697,7.014-28.869,10.481c-9.281,3.508-18.836,6.284-28.241,9.471c-9.408,3.188-18.769,6.518-28.169,9.73
		c-9.244,3.159-18.521,6.22-27.766,9.376c-9.399,3.208-18.766,6.508-28.165,9.716c-9.4,3.209-18.822,6.355-28.642,9.666
		c-1.368-6.072-1.849-12.298-2.217-18.54c-0.122-4.362,0.796-8.799-0.939-13.044C0,294.875,0,284.542,0,274.209z"/>
	<path style="fill:#F9A363;" d="M280,591.208c0.305-0.984,1.094-1.048,1.942-1.047c8.368,0.01,16.736,0.014,25.104,0.013
		c0.847,0,1.638,0.055,1.954,1.034C299.333,591.208,289.667,591.208,280,591.208z"/>
	<path style="fill:#717EBD;" d="M1547,309.209c-0.698-0.26-1.022-0.769-1.022-1.506c-0.001-6.333-0.005-12.665-0.008-18.998
		c0-0.737,0.327-1.245,1.031-1.496C1547,294.542,1547,301.875,1547,309.209z"/>
	<path style="fill:#FBBA8B;" d="M0,305.209c1.735,4.246,0.817,8.683,0.939,13.044l-0.465-0.12L0,318.209
		C0,313.875,0,309.542,0,305.209z"/>
	<path style="fill:#395AA9;" d="M1035.888,279.821c17.026,4.955,31.533,13.059,44.15,24.596
		c12.56,11.485,21.351,25.409,26.838,41.413c5.284,15.411,7.372,31.429,6.91,47.616c-0.795,27.838-10.143,52.63-28.298,73.917
		c-18.085,21.204-41.319,34.137-67.767,41.748c-12.16,3.499-24.566,5.533-37.24,6.377c-9.826,0.654-19.631,0.697-29.449,0.704
		c-49.489,0.036-98.977-0.031-148.466,0.053c-11.097,0.019-20.526-3.49-28.023-11.79c-5.185-5.741-8.173-12.453-8.7-20.198
		c-0.135-1.992-0.126-3.996-0.127-5.995c-0.005-121.638-0.008-243.277,0.013-364.915c0.001-4.144-0.072-8.263,1.034-12.382
		c3.568-13.288,15.099-24.731,31.926-25.699c1.495-0.086,2.998-0.055,4.498-0.055c49.489-0.002,98.977,0.052,148.466-0.031
		c17.893-0.03,35.444,2.045,52.686,6.953c19.552,5.566,36.962,14.955,51.674,28.963c14.169,13.491,23.873,29.829,28.37,48.926
		c6.832,29.012,4.607,57.186-9.789,83.674c-8.382,15.422-20.369,27.45-36.583,34.849
		C1037.423,278.814,1036.892,279.213,1035.888,279.821z M836.534,450.332c2.386,0.875,4.234,0.54,6.042,0.541
		c39.304,0.022,78.607,0.013,117.911,0.021c8.156,0.002,16.286-0.338,24.347-1.69c13.548-2.272,25.945-7.272,36.188-16.559
		c18.562-16.831,25.037-38.15,20.592-62.347c-4.622-25.159-20.052-41.637-44.083-50.197c-10.82-3.854-22.12-4.735-33.393-4.8
		c-41.301-0.238-82.603-0.099-123.905-0.071c-1.253,0.001-2.68-0.51-3.697,0.672C836.534,360.704,836.534,405.443,836.534,450.332z
		 M836.478,250.96c0.97,0.107,1.612,0.24,2.255,0.24c39.33-0.021,78.661,0.055,117.99-0.158c9.853-0.053,19.49-2.166,28.538-6.196
		c14.198-6.324,24.477-16.429,29.193-31.561c2.87-9.207,3.266-18.559,1.721-28.094c-2.955-18.241-12.987-31.013-29.678-38.492
		c-9.483-4.249-19.613-6.426-29.999-6.471c-39.163-0.17-78.327-0.12-117.49-0.144c-0.806,0-1.67-0.136-2.53,0.781
		C836.478,177.253,836.478,213.86,836.478,250.96z"/>
	<path style="fill:#F37022;" d="M454.71,46.464c-41.284,43.599-82.189,86.798-122.93,129.824c-2.586-0.733-2.654-2.478-2.961-4.104
		c-1.595-8.469-3.214-16.934-4.812-25.403c-3.226-17.103-6.479-34.201-9.655-51.313c-3.842-20.7-7.601-41.414-11.427-62.117
		c-1.807-9.78-3.678-19.548-5.545-29.317c-0.216-1.132-0.556-2.236-0.001-4.035C354.037,0.398,406.243,15.969,454.71,46.464z"/>
	<path style="fill:#F37022;" d="M134.51,47.37c22.325,55.011,44.426,109.465,66.506,163.928c0.309,0.761,0.319,1.626-0.28,2.656
		c-1.93,0.772-3.965,0.183-6.06-0.343c-17.35-4.354-34.707-8.681-52.071-12.977c-37.314-9.233-74.634-18.44-111.948-27.673
		c-1.116-0.276-2.19-0.724-3.798-1.264C50.951,120.13,86.897,79.179,134.51,47.37z"/>
	<path style="fill:#F37022;" d="M294.341,0.139c-11.229,59.024-22.356,117.512-33.518,176.182c-3.352-1.078-5.187-3.234-7.101-5.269
		c-24.195-25.723-48.365-51.468-72.58-77.172c-13.706-14.549-27.485-29.028-41.219-43.551c-1.025-1.084-1.945-2.266-3.35-3.913
		c23.612-15.155,48.592-26.573,75.317-34.362C238.653,4.253,265.848-0.109,294.341,0.139z"/>
	<path style="fill:#F36F22;" d="M564.072,172.154c-56.294,14.004-112.35,27.957-168.42,41.856c-1.561,0.387-3.244,0.792-4.961,0.261
		c-1.627-2.142-0.392-4.11,0.394-6.043c9.355-23.01,18.748-46.005,28.107-69.013c11.73-28.837,23.435-57.684,35.162-86.522
		c0.619-1.522,1.352-2.998,2.276-5.032C503.893,79.371,539.797,120.399,564.072,172.154z"/>
	<path style="fill:#F37022;" d="M565.12,174.134c23.088,52.629,30.45,106.549,23.135,162.987
		c-56.814-19.47-112.98-38.643-169.553-57.984c0.913-1.449,1.13-2.165,1.612-2.507C468.333,242.615,516.37,208.628,565.12,174.134z"
		/>
</g>
</svg>
