<?xml version="1.0" encoding="iso-8859-1"?>
<!-- Generator: Adobe Illustrator 27.0.0, SVG Export Plug-In . SVG Version: 6.00 Build 0)  -->
<svg version="1.1" id="Layer_1" xmlns="http://www.w3.org/2000/svg" xmlns:xlink="http://www.w3.org/1999/xlink" x="0px" y="0px"
	 viewBox="0 0 1515.003 350.138" style="enable-background:new 0 0 1515.003 350.138;" xml:space="preserve">
<g>
	<path style="fill:#2E2929;" d="M1296.003,350.138c-0.126-0.803-0.751-0.9-1.398-1.115c-9.859-3.283-15.65-10.308-18.002-20.196
		c-2.205-9.271-1.996-18.451,2.41-27.165c6.574-13.003,21.604-18.052,34.791-11.871c7.221,3.385,10.87,9.417,13.04,16.986
		c-2.962,1.443-6.079,0.532-9.264,0.656c-0.399-0.749-0.87-1.427-1.142-2.177c-3.658-10.079-19.167-10.99-25.583-2.185
		c-5.946,8.16-6.262,21.416-0.823,30.133c6.037,9.675,22.635,9.775,26.741-1.65c0.157-0.438,0.435-0.833,0.679-1.289
		c3.04,0,6.004,0,8.981,0c-0.883,8.695-5.589,14.811-13.387,17.983c-1.346,0.548-3.342-0.063-4.045,1.89
		C1304.67,350.138,1300.337,350.138,1296.003,350.138z"/>
	<path style="fill:#2E2929;" d="M1515.003,307.138c-1.562,0.278-1.509,1.85-2.188,2.811c-3.455,4.894-9.359,7.002-14.815,5.415
		c-6.94-2.019-9.782-8.126-9.871-12.863c-0.107-5.737,4.168-11.118,9.957-12.829c5.429-1.605,11.337,0.701,14.766,5.611
		c0.675,0.967,0.61,2.539,2.15,2.855C1515.003,301.138,1515.003,304.138,1515.003,307.138z M1501.761,312.875
		c5.922-0.101,11.177-5.33,11.225-11.17c0.05-6.091-5.347-11.374-11.554-11.31c-5.99,0.062-11.134,5.193-11.166,11.135
		C1490.234,307.639,1495.645,312.978,1501.761,312.875z"/>
	<path style="fill:#282424;" d="M504.026,166.758c8.161,3.4,13.749,8.835,17.51,16.225c10.572,20.773-0.697,45.188-23.669,50.976
		c-5.309,1.338-10.735,2.185-16.266,2.176c-18.319-0.029-36.637,0.004-54.956,0c-0.959,0-1.918-0.123-3.053-0.201
		c0-44.832,0-89.405,0-133.9c0.94-1.258,2.205-0.796,3.296-0.798c16.32-0.028,32.641-0.085,48.961,0.012
		c9.353,0.056,18.521,1.12,27.105,5.375c9.986,4.951,15.84,12.977,17.781,23.757c1.029,5.717,1.15,11.532-0.47,17.299
		C517.829,156.357,512.778,162.723,504.026,166.758z M451.46,212.09c10.476,0,20.829,0.82,30.989-0.23
		c10.192-1.053,14.875-6.235,15.053-16.494c0.193-11.063-7.267-15.716-15.118-16.517c-8.97-0.915-17.944-0.211-26.912-0.437
		c-1.272-0.032-2.671-0.434-4.012,0.753C451.46,189.921,451.46,200.828,451.46,212.09z M451.483,157.073
		c9.354,0,18.477,0.104,27.595-0.079c2.087-0.042,4.206-0.93,6.221-1.673c7.256-2.678,9.739-8.529,9.371-15.356
		c-0.385-7.147-4.514-11.521-11.731-12.841c-10.373-1.898-20.828-0.695-31.455-0.952
		C451.483,136.655,451.483,146.724,451.483,157.073z"/>
	<path style="fill:#272323;" d="M735.09,144.779c0-1.936,0-4.026,0-6.335c9.289,0,18.214,0,27.109,0
		c1.13,1.171,0.66,2.575,0.661,3.843c0.028,27.484,0.019,54.968,0.02,82.453c0,7.021-0.804,13.954-3.042,20.612
		c-5.288,15.731-16.44,25.022-32.464,28.422c-9.7,2.058-19.498,2.103-29.14-0.662c-14.425-4.136-24.614-12.69-28.538-27.678
		c-0.21-0.8-0.484-1.59-0.615-2.403c-0.131-0.811-0.119-1.645-0.191-2.811c8.793,0,17.516,0,26.182,0
		c0.26,0.333,0.582,0.564,0.64,0.848c2.174,10.707,12.65,13.813,20.738,12.774c11.903-1.53,17.375-7.462,18.466-19.649
		c0.233-2.602,0.034-5.243,0.034-7.845c-0.398-0.025-0.635-0.113-0.721-0.035c-10.531,9.52-22.897,10.636-35.943,7.393
		c-13.141-3.266-22.346-11.68-27.594-23.939c-7.243-16.917-7.049-33.996,1.343-50.521c11.836-23.307,42.072-29.402,60.933-15.059
		C733.472,144.567,733.95,145.13,735.09,144.779z M735.035,185.053c0-4.49-0.039-8.98,0.02-13.469
		c0.022-1.702-0.118-3.302-1.195-4.701c-8.062-10.476-21.974-10.028-29.811-4.253c-12.195,8.986-12.619,32.014-2.386,42.611
		c7.301,7.56,22.061,8.599,30.165,0.228c2.162-2.233,3.502-4.618,3.275-7.948C734.819,193.382,735.034,189.21,735.035,185.053z"/>
	<path style="fill:#32B792;" d="M6.97,347.812c-2.231,0.205-4.459,0.351-6.737-0.091c0.046-0.647,0.08-1.121,0.114-1.596
		c0.716-0.426,0.72-1.099,0.625-1.806l0.226-0.185c3.873,1.193,5.13-2.763,7.79-3.957c0.276,0.85,0.828,1.412,1.689,1.637
		c5.711-3.005,11.447-5.93,17.136-8.943c12.114-6.415,24.337-12.613,36.354-19.229c11.868-6.534,24.091-12.421,36.146-18.616
		c1.171-0.601,2.219-1.44,3.386-2.049c5.988-3.126,11.806-6.606,18.235-8.82c0.604-0.103,1.067-0.353,1.096-1.054l-0.064,0.054
		c0.842-0.044,1.873,0.286,2.059-1.047l-0.055,0.04c1.093-0.019,2.342,0.507,3.043-0.874c0.789-0.198,1.806-0.003,2.033-1.175
		l-0.088,0.071c0.68-0.042,1.402-0.044,1.068-1.085l-0.061,0.091c1.816,0.772,3.235-0.471,4.683-1.086
		c24.261-10.311,48.483-20.711,72.732-31.049c18.908-8.061,37.852-16.041,56.76-24.102c14.793-6.307,29.56-12.674,44.332-19.031
		c10.354-4.456,20.693-8.947,31.05-13.398c0.579-0.249,1.255-0.27,2.118-0.444c0.695,4.795,0.129,9.427,0.371,14.189
		c-1.981,1.838-4.562,2.611-6.943,3.628c-28.504,12.186-57.038,24.302-85.565,36.433c-33.102,14.076-66.227,28.098-99.274,42.301
		c-3.14,1.35-6.65,2.046-9.343,4.392c-0.599,0.14-1.408-0.091-1.641,0.837c0.897,0.488,1.502,0.263,1.956-0.496
		c6.928-0.996,13.371-3.709,20.014-5.699c29.321-8.784,58.479-18.105,87.862-26.694c16.993-4.967,33.802-10.563,50.72-15.79
		c12.803-3.956,25.65-7.769,38.471-11.668c0.972-0.296,1.923-0.506,3.309-0.296c0,4.642,0,9.357,0,14.381
		c-4.67,1.869-9.786,3.107-14.814,4.635c-24.064,7.316-48.11,14.695-72.15,22.088c-25.627,7.88-51.242,15.796-76.86,23.706
		c-9.579,2.958-19.285,5.513-28.69,9.022c-2.708,0.432-5.461,1.048-8.007,1.795c-8.767,2.572-17.598,4.908-26.376,7.434
		c-9.092,2.616-18.168,5.29-27.265,7.891c-9.571,2.736-19.214,5.234-28.725,8.164c-11.386,3.507-22.892,6.575-34.312,9.945
		c-4.022,1.187-8.418,1.591-11.946,4.359c1.508,1.589,3.432,1.667,5.413,1.554c-1.232,1.798-3.349,1.242-4.49,0.724
		C11.52,345.615,9.319,346.684,6.97,347.812z M134.624,294.087c0.628,0,1.264,0.063,1.881-0.021
		c0.463-0.063,0.958-0.233,1.335-0.501c0.39-0.278,1.235-0.427,0.772-1.26C136.916,291.74,135.846,292.884,134.624,294.087z"/>
	<path style="fill:#22B4A8;" d="M18.844,346.177c-1.981,0.113-3.905,0.035-5.413-1.554c3.527-2.768,7.924-3.172,11.946-4.359
		c11.42-3.369,22.927-6.437,34.312-9.945c9.511-2.93,19.154-5.428,28.725-8.164c9.097-2.6,18.173-5.275,27.265-7.891
		c8.778-2.526,17.61-4.862,26.376-7.434c2.546-0.747,5.299-1.363,8.007-1.795c5.408,0.539,10.486-1.335,15.654-2.322
		c19.48-3.719,38.913-7.684,58.355-11.598c16.041-3.229,32.061-6.565,48.108-9.765c22.856-4.558,45.727-9.033,68.591-13.549
		c0.476-0.094,0.938-0.26,2.157-0.605c0.031,5.279,0.189,10.277-0.175,15.565c-12.832,2.466-25.472,4.879-38.104,7.326
		c-17.852,3.459-35.698,6.947-53.547,10.418c-16.388,3.187-32.78,6.353-49.165,9.556c-13.298,2.6-26.587,5.247-39.883,7.854
		c-0.976,0.191-1.983,0.224-2.975,0.33c-2.552,0.392-5.104,0.783-7.656,1.175c2.584,0.64,5.138,1.473,7.553-0.139
		c9.786-0.43,19.482-1.75,29.197-2.898c4.447-0.526,8.929-0.756,13.388-1.19c9.566-0.932,19.126-1.929,28.692-2.864
		c7.593-0.742,15.194-1.411,22.787-2.15c9.403-0.915,18.797-1.919,28.205-2.784c4.461-0.41,8.932-0.551,13.4-1.078
		c13.003-1.533,26.042-2.766,39.078-3.999c2.802-0.265,5.651-0.039,8.856-0.039c0,4.251,0,8.655,0,13.362
		c-2.42,1.08-5.326,0.689-8.037,1.144c-5.056,0.848-10.245,0.878-15.365,1.38c-8.246,0.81-16.487,1.669-24.718,2.622
		c-4.286,0.496-8.61,0.787-12.887,1.076c-12.753,0.861-25.433,2.451-38.161,3.528c-13.871,1.173-27.741,2.51-41.596,3.916
		c-10.062,1.021-20.146,1.846-30.181,3.033c-3.818,0.451-7.855,0.072-11.518,1.738c-6.771,0.206-13.532-0.037-20.307,0.925
		c-4.532,0.643-9.123,1.179-13.772,1.312c-6.126,0.175-12.199,1.55-18.37,1.865c-5.023,0.256-10.138,0.374-15.04,1.151
		c-8.784,1.391-17.65,1.608-26.45,2.6c-5.031,0.567-10.099,1.524-15.278,1.386c-1.899-0.05-4.029,0.005-6.052,0.344
		C36.242,345.105,27.53,345.525,18.844,346.177z"/>
	<path style="fill:#76C046;" d="M30.012,237.305c2.661-4.286,3.331-9.281,4.731-13.974c11.284-37.828,22.52-75.672,33.387-113.622
		c2.542-8.877,5.969-16.692,13.46-22.486c3.51-2.715,6.075-6.56,10.112-9.068C88.924,91.69,84.388,104.7,80.692,117.93
		c-3.703,13.26-7.816,26.405-11.749,39.6c-3.982,13.356-7.976,26.709-11.945,40.069c-3.884,13.076-7.741,26.16-11.668,39.437
		c2.008-0.196,2.079-1.63,2.507-2.563c13.202-28.833,26.335-57.698,39.516-86.541c11.319-24.767,22.695-49.508,34.025-74.271
		c6.631-14.494,13.229-29.002,19.823-43.513c1.317-2.898,2.928-5.526,5.25-7.789c6.321-6.163,12.489-12.484,18.771-18.689
		c1.285-1.269,2.413-2.768,4.397-3.671c0.651,2.015-0.62,3.424-1.297,4.911c-7.641,16.776-15.326,33.532-22.978,50.303
		c-22.196,48.642-44.357,97.299-66.589,145.924c-5.793,12.671-11.791,25.249-17.696,37.869c0.275,2.498-0.867,4.754-2.332,6.343
		c-1.736,1.883-2.685,4.048-3.876,6.172c-4.417,7.879-8.881,15.732-13.371,23.569c-4.812,8.402-9.673,16.776-14.513,25.161
		c-4.759,8.245-9.726,16.38-14.18,24.786c-1.862,3.514-5.255,6.502-4.78,11.065l-0.036,0.038c-0.815,0.012-1.676-0.064-1.944,1.005
		c-0.519,1.333-1.41,2.11-2.923,1.958c-0.001-0.661-0.127-1.351,0.017-1.979c1.818-7.924,4.33-15.659,6.301-23.552
		c2.956-11.841,6.685-23.487,9.949-35.253c1.047-3.773,2.422-7.476,3.395-11.204c2.378-9.112,4.396-18.32,7.178-27.333
		C30.178,239.023,29.998,238.134,30.012,237.305z"/>
	<path style="fill:#282424;" d="M1062.948,236.975c-9.437,0-18.372,0-27.274,0c-1.062-1.453-0.556-2.998-0.559-4.429
		c-0.042-17.33-0.014-34.66-0.044-51.99c-0.004-2.323,0.045-4.696-0.388-6.959c-2.411-12.627-15.415-14.462-23.399-10.684
		c-6.753,3.195-10.333,8.356-10.27,16.125c0.154,19.15,0.05,38.302,0.05,57.779c-9.188,0-18.236,0-27.53,0
		c0-47.479,0-94.887,0-142.617c9.052,0,17.97,0,27.313,0c0,17.409,0,34.989,0,53.294c2.195-1.588,3.794-2.715,5.361-3.885
		c12.452-9.3,30.343-8.981,42.24-1.311c7.636,4.923,11.494,12.264,13.407,20.794c0.91,4.056,1.135,8.22,1.122,12.407
		C1062.913,195.815,1062.948,216.131,1062.948,236.975z"/>
	<path style="fill:#272323;" d="M875.894,236.961c-9.428,0-18.358,0-27.259,0c-1.055-1.227-0.563-2.615-0.566-3.878
		c-0.038-16.986-0.025-33.972-0.027-50.958c0-1.499,0.005-2.998-0.023-4.496c-0.31-16.451-15.443-19.156-24.665-14.346
		c-6.193,3.23-9.504,8.275-9.417,15.648c0.206,17.65,0.067,35.303,0.067,52.955c0,1.625,0,3.25,0,5.053c-9.331,0-18.261,0-27.504,0
		c0-47.545,0-95.055,0-142.813c9.087,0,18.013,0,27.343,0c0,17.541,0,35.115,0,53.353c2.275-1.679,3.974-2.949,5.69-4.195
		c12.226-8.876,29.974-8.49,41.39-1.221c8.01,5.101,12.067,12.625,13.909,21.537c0.872,4.218,1.118,8.55,1.099,12.904
		C875.846,196.475,875.894,216.446,875.894,236.961z"/>
	<path style="fill:#282424;" d="M1255.417,138.215c7.993,0,15.316,0,22.64,0c1.476,0,2.952,0,4.761,0c0,32.97,0,65.684,0,98.664
		c-9.203,0-18.469,0-27.887,0c-1.111-2.394,0.213-5.198-0.833-7.688c-1.791,0.033-2.618,1.456-3.798,2.285
		c-11.948,8.4-24.708,10.142-38.223,4.385c-9.482-4.039-14.441-11.846-17.019-21.454c-0.957-3.568-1.14-7.219-1.142-10.886
		c-0.009-20.83-0.015-41.659-0.008-62.489c0-0.799-0.193-1.66,0.589-2.591c8.743,0,17.662,0,26.542,0
		c1.068,1.644,0.586,3.355,0.59,4.97c0.039,17.33,0,34.661,0.048,51.991c0.009,3.31-0.066,6.625,1.119,9.86
		c1.478,4.034,4.008,6.749,8.191,7.981c6.254,1.843,12.203,1.418,17.582-2.427c4.421-3.16,6.935-7.352,6.894-13.086
		c-0.126-17.996-0.047-35.994-0.047-53.99C1255.417,142.097,1255.417,140.455,1255.417,138.215z"/>
	<path style="fill:#272323;" d="M1490.146,194.455c-21.963,0-43.26,0-64.517,0c-1.658,9.255,5.295,20.328,14.062,22.581
		c12.623,3.245,22.55-1.484,24.643-10.817c7.991,0,16.067,0,24.626,0c-1.902,9.89-6.408,18.031-14.351,24.126
		c-16.768,12.868-49.279,12.725-65.146-7.235c-6.631-8.341-10.069-17.917-11.164-28.338c-1.074-10.226,0.045-20.226,4.152-29.803
		c8.319-19.403,27.632-30.181,48.641-28.131c22.322,2.178,34.983,18.192,37.985,36.752
		C1490.172,180.359,1490.21,187.091,1490.146,194.455z M1462.093,176.051c0.075-10.57-5.761-16.796-16.556-17.523
		c-8.517-0.574-18.148,5.507-20.206,17.523C1437.465,176.051,1449.57,176.051,1462.093,176.051z"/>
	<path style="fill:#272323;" d="M1127.583,239.079c-18.376,0.756-38.18-13.356-44.568-33.135
		c-6.676-20.671-3.386-39.612,12.092-55.298c22.064-22.36,56.769-17.486,73.417,8.461c13.976,21.783,10.231,50.689-8.682,67.731
		C1150.865,234.929,1140.387,239.375,1127.583,239.079z M1107.74,188.046c-0.333,6.813,1.554,13.432,5.519,19.407
		c7.113,10.72,19.842,11.717,28.363,2.302c9.846-10.879,9.976-32.253,0.265-43.398c-8.043-9.23-19.733-9.084-27.426,0.426
		C1109.551,172.851,1107.607,179.938,1107.74,188.046z"/>
	<path style="fill:#282424;" d="M1383.711,165.797c-8.465,0-16.906,0-25.358,0c-4.982-8.059-10.781-10.586-20.184-8.639
		c-3.01,0.623-5.63,2.021-7.244,4.825c-2.125,3.693-1.217,7.1,2.452,9.343c2.298,1.405,4.837,2.15,7.419,2.778
		c6.922,1.685,13.846,3.364,20.775,5.021c2.597,0.621,5.012,1.673,7.437,2.771c20.438,9.255,19.824,35.048,6.146,47.082
		c-6.751,5.939-14.825,8.819-23.533,9.778c-10.733,1.182-21.257-0.017-31.125-4.758c-11.035-5.302-17.672-14.483-19.105-26.336
		c8.633,0,17.242,0,26.21,0c2.478,5.995,7.285,9.294,13.86,10.255c3.906,0.571,7.626-0.07,11.231-1.453
		c3.447-1.323,5.21-3.974,5.359-7.656c0.151-3.726-2.027-5.811-5.193-7.107c-5.553-2.275-11.5-3.098-17.266-4.584
		c-5.449-1.404-10.91-2.639-16.173-4.789c-20.388-8.329-19.803-31.695-9.324-43.644c5.708-6.509,12.973-10.316,21.312-12.035
		c11.181-2.305,22.09-1.331,32.688,3.157C1373.143,143.638,1382.287,153.157,1383.711,165.797z"/>
	<path style="fill:#272323;" d="M930.883,111.874c0,9.036,0,17.333,0,26.133c7.209,0,14.27,0,21.646,0c0,7.557,0,14.617,0,22.059
		c-6.969,0.881-14.077-0.144-20.947,0.528c-0.975,1.22-0.622,2.427-0.624,3.543c-0.027,12.654,0.19,25.312-0.085,37.959
		c-0.203,9.33,5.534,12.606,12.667,12.113c3.697-0.255,7.104-1.482,10.917-2.717c0,8.294,0,16.343,0,24.524
		c-2.734,2.016-6.145,2.306-9.36,2.684c-7.296,0.858-14.599,0.642-21.741-1.43c-10.055-2.916-15.958-9.71-18.246-19.754
		c-0.812-3.566-1.099-7.208-1.079-10.896c0.078-13.652,0.046-27.305,0.006-40.958c-0.005-1.614,0.416-3.299-0.533-5.107
		c-4.87,0-9.823,0-15.137,0c0-7.453,0-14.653,0-22.271c4.744,0,9.491,0,14.584,0c0-8.817,0-17.236,0-26.353
		C912.33,111.825,921.364,111.906,930.883,111.874z"/>
	<path style="fill:#44B880;" d="M121.933,284.157c-6.429,2.214-12.247,5.694-18.235,8.82c-1.167,0.609-2.215,1.448-3.386,2.049
		c-12.055,6.195-24.279,12.082-36.146,18.616c-12.016,6.616-24.239,12.814-36.354,19.229c-5.69,3.013-11.426,5.938-17.136,8.943
		c-0.861-0.225-1.413-0.787-1.689-1.637c2.292,0.234,2.118-2.763,4.007-3.057c0.985,1.876,1.773,0.48,2.674-0.124
		c11.062-7.41,22.276-14.603,33.169-22.253c12.649-8.883,25.657-17.231,38.389-25.989c8.779-6.039,17.395-12.415,26.754-17.61
		c0.839-0.016,1.83,0.268,2.017-1.028l-0.016,0.014c0.694,0.024,1.209-0.131,1.003-1.005l0.008-0.007
		c1.219,0.348,2.336,0.354,3.068-0.921c0.526-0.187,1.026-0.396,0.979-1.095l-0.055,0.091c1.463,0.168,2.526-0.794,3.642-1.428
		c32.354-18.398,64.665-36.873,97.029-55.253c24.27-13.783,48.61-27.442,72.907-41.176c10.26-5.8,20.492-11.651,30.913-17.579
		c3.814,2.875,6.762,6.451,9.915,9.508c-0.257,1.706-1.335,2.231-2.338,2.798c-26.47,14.952-52.959,29.87-79.411,44.853
		c-22.987,13.021-45.93,26.121-68.898,39.175c-17.187,9.769-34.389,19.512-51.564,29.303c-0.805,0.459-1.96,0.599-2.214,1.785
		l0.061-0.091c-0.664,0.058-1.327,0.117-1.068,1.085l0.088-0.071c-0.689-0.433-1.343-0.091-2.003,0.093
		c-1.147,0.46-2.431,0.702-3.072,1.956l0.055-0.04c-0.886-0.043-1.703,0.05-2.059,1.047l0.064-0.054
		C122.432,283.213,122.021,283.517,121.933,284.157z"/>
	<path style="fill:#54BB6B;" d="M12.995,337.12c-1.889,0.293-1.716,3.291-4.007,3.057c-2.66,1.195-3.917,5.15-7.79,3.957
		c-0.397-1.364,0.273-2.409,1.406-2.769c1.76-0.559,0.449-1.497,0.5-2.261c1.513,0.152,2.404-0.625,2.923-1.958
		c0.651-0.011,1.302-0.022,1.953-0.033c0.068,0.152,0.104,0.334,0.212,0.446c0.103,0.107,0.366,0.238,0.414,0.195
		c4.438-3.949,8.401-8.322,12.264-12.849c5.04-5.906,11.036-10.922,16-16.973c4.39-5.353,9.727-9.878,14.218-15.223
		c4.991-5.94,10.612-11.391,16.072-16.883c6.503-6.543,11.493-14.602,19.383-19.774c0.527-0.346,1.228-1.017,1.207-1.509
		c-0.105-2.467,2.115-3.102,3.312-4.528c0.796-0.011,1.852,0.543,1.979-0.915l-0.057,0.093c2.012,0.125,2.778-1.636,3.928-2.712
		c18.727-17.518,37.413-35.082,56.115-52.626c10.687-10.025,21.388-20.037,32.084-30.052c20.542-19.233,41.077-38.472,61.633-57.691
		c5.593-5.229,11.247-10.393,17.12-15.814c3.749,2.892,6.87,6.472,9.905,9.585c-4.096,4.351-7.854,8.766-12.048,12.719
		c-12.722,11.992-25.613,23.806-38.438,35.689c-21.009,19.465-42.04,38.906-63.019,58.404
		c-12.931,12.018-25.777,24.127-38.67,36.185c-3.769,3.525-7.594,6.992-11.337,10.545c-0.737,0.7-2.204,1.222-1.287,2.759
		l0.073-0.079c-1.243-0.739-1.841-0.192-2.091,1.049l0.07-0.066c-0.796-0.077-1.221,0.422-1.579,1.022
		c-1.822,0.257-2.675,1.62-3.474,3.045l0.057-0.051c-0.591,0.104-0.944,0.44-1.021,1.046c-0.644,1.687-2.599,0.854-3.708,2.086
		c-5.2,5.777-11.616,10.232-17.308,15.477c-5.213,4.804-10.867,9.072-16.122,13.836c-7.048,6.39-14.824,11.973-21.95,18.284
		c-7.025,6.221-14.311,12.131-21.31,18.365C18.056,332.47,14.585,333.792,12.995,337.12z"/>
	<path style="fill:#6ABE4F;" d="M8.006,336.104c-0.475-4.563,2.919-7.551,4.78-11.065c4.454-8.407,9.421-16.541,14.18-24.786
		c4.84-8.386,9.7-16.76,14.513-25.161c4.489-7.838,8.953-15.691,13.371-23.569c1.191-2.123,2.14-4.288,3.876-6.172
		c1.465-1.589,2.606-3.845,2.332-6.343c2.035,0.552,2.489-1.088,3.271-2.324c6.31-9.978,12.637-19.944,18.951-29.919
		c15.92-25.149,31.837-50.3,47.754-75.451c21.963-34.705,43.924-69.412,65.891-104.115c0.438-0.693,0.939-1.345,1.531-2.187
		c3.979,2.442,6.604,6.205,10.609,8.957c-3.428,5.454-6.744,10.765-10.095,16.053c-32.127,50.705-64.267,101.402-96.387,152.112
		c-7.74,12.219-15.437,24.465-23.108,36.727c-0.81,1.295-2.497,2.379-1.505,4.335l0.074-0.1c-1.227-0.63-1.725,0.09-2.06,1.112
		c-1.293,3.475-3.835,6.113-6.002,9.009c-7.092,9.485-14.253,18.915-21.185,28.523c-10.102,14.002-20.45,27.832-30.926,41.557
		C14.603,327.576,11.961,332.353,8.006,336.104z"/>
	<path style="fill:#5CBC60;" d="M8.006,336.104c3.954-3.751,6.597-8.527,9.864-12.807c10.477-13.725,20.824-27.555,30.926-41.557
		c6.932-9.608,14.093-19.039,21.185-28.523c2.166-2.897,4.709-5.534,6.002-9.009c0.849-0.07,1.881,0.2,2.06-1.112l-0.074,0.1
		c2.997-1.695,4.496-4.791,6.584-7.287c20.492-24.506,40.837-49.136,61.269-73.693c14.26-17.14,28.62-34.197,42.882-51.334
		c14.262-17.136,28.458-34.327,42.684-51.493c0.319-0.384,0.646-0.761,1.185-1.395c3.192,3.38,6.252,6.62,9.478,10.036
		c-2.21,4.034-5.48,7.132-8.285,10.533c-17.785,21.56-35.686,43.024-53.574,64.498c-19.062,22.883-38.164,45.732-57.223,68.617
		c-9.581,11.505-19.114,23.049-28.639,34.601c-0.677,0.821-1.967,1.457-1.346,2.916l0.057-0.093
		c-1.025-0.486-1.618-0.036-1.979,0.915c-1.197,1.427-3.417,2.061-3.312,4.528c0.021,0.492-0.679,1.164-1.207,1.509
		c-7.89,5.172-12.88,13.231-19.383,19.774c-5.46,5.493-11.081,10.943-16.072,16.883c-4.491,5.345-9.828,9.87-14.218,15.223
		c-4.963,6.051-10.96,11.067-16,16.973c-3.863,4.526-7.826,8.899-12.264,12.849c-0.048,0.043-0.311-0.088-0.414-0.195
		c-0.108-0.113-0.145-0.295-0.212-0.446c0.017-0.324,0.014-0.649-0.009-0.973L8.006,336.104z"/>
	<path style="fill:#49BA76;" d="M12.995,337.12c1.59-3.328,5.061-4.65,7.611-6.922c6.999-6.234,14.285-12.144,21.31-18.365
		c7.126-6.311,14.902-11.894,21.95-18.284c5.255-4.764,10.909-9.032,16.122-13.836c5.692-5.245,12.108-9.701,17.308-15.477
		c1.109-1.232,3.064-0.399,3.708-2.086c0.652-0.044,1.103-0.285,1.021-1.046l-0.057,0.051c2.573,0.52,3.8-1.282,5.1-2.958
		c-0.016-0.369-0.031-0.739-0.047-1.108l-0.07,0.066c1.142,0.537,1.809,0.128,2.091-1.049l-0.073,0.079
		c1.914,0.169,3.008-1.357,4.285-2.283c21.399-15.526,42.721-31.156,64.101-46.708c23.929-17.405,47.915-34.732,71.844-52.137
		c13.175-9.583,26.274-19.269,39.433-28.873c2.136-1.559,4.217-3.238,6.876-4.344c3.289,2.484,6.061,5.526,9.141,9.018
		c-4.475,3.379-8.756,6.692-13.118,9.895c-26.266,19.285-52.542,38.556-78.831,57.809c-22.534,16.503-45.097,32.967-67.633,49.468
		c-7.512,5.5-14.992,11.044-22.448,16.62c-0.797,0.596-2.382,0.879-1.638,2.544l0.055-0.091c-0.699-0.613-1.32-0.106-1.959,0.137
		c-1.042,0.242-1.864,0.729-2.087,1.88l-0.008,0.007c-0.681-0.011-1.142,0.198-1.003,1.005l0.016-0.014
		c-0.949-0.2-1.766-0.142-2.017,1.028c-9.358,5.195-17.975,11.571-26.754,17.61c-12.732,8.759-25.74,17.106-38.389,25.989
		c-10.893,7.65-22.107,14.843-33.169,22.253C14.768,337.6,13.981,338.997,12.995,337.12z"/>
	<path style="fill:#93C841;" d="M3.103,339.104c-0.051,0.763,1.26,1.702-0.5,2.261c-1.133,0.36-1.802,1.405-1.406,2.769
		l-0.226,0.185c-0.187-0.127-0.392-0.167-0.613-0.121c-0.119-1.99-0.341-3.98-0.341-5.97c-0.02-55.48-0.017-110.96-0.018-166.439
		c0-0.831,0-1.663,0-2.278c4.366-4.337,8.578-8.521,12.977-12.891c0,28.292,0,56.521,0,84.75c2.222-6.637,2.922-13.498,3.993-20.285
		c1.914-12.132,3.661-24.291,5.502-36.435c1.84-12.144,3.71-24.283,5.565-36.425c0.351-2.297,0.765-4.588,1.007-6.897
		c0.131-1.251,0.643-2.207,1.485-3.059c4.9-4.958,9.8-9.917,15.133-15.314c0.988,4.507-0.39,8.142-0.893,11.746
		c-2.341,16.768-5.038,33.486-7.516,50.235c-2.187,14.781-4.303,29.572-6.326,44.376c-0.362,2.649-1.783,5.2-0.914,7.992
		c-0.013,0.83,0.166,1.719-0.069,2.48c-2.783,9.013-4.801,18.22-7.178,27.333c-0.973,3.728-2.348,7.43-3.395,11.204
		c-3.264,11.767-6.993,23.413-9.949,35.253c-1.97,7.892-4.483,15.628-6.301,23.552C2.976,337.754,3.102,338.443,3.103,339.104z"/>
	<path style="fill:#10B0B9;" d="M18.844,346.177c8.686-0.652,17.398-1.071,26.001-2.512c2.024-0.339,4.153-0.395,6.052-0.344
		c5.179,0.137,10.246-0.819,15.278-1.386c8.8-0.992,17.666-1.209,26.45-2.6c4.902-0.776,10.017-0.894,15.04-1.151
		c6.171-0.315,12.244-1.69,18.37-1.865c4.649-0.133,9.241-0.669,13.772-1.312c6.775-0.962,13.537-0.719,20.307-0.925
		c59.961-0.011,119.923-0.023,179.884-0.027c0.803,0,1.606,0.099,2.679,0.17c0,4.588,0,8.985,0,13.462
		c-1.65,0.811-3.333,0.434-4.945,0.434c-108.433,0.02-216.867,0.02-325.3,0.004c-1.821,0-3.642-0.204-5.463-0.312
		c2.349-1.128,4.549-2.197,7.384-0.911C15.495,347.419,17.613,347.975,18.844,346.177z"/>
	<path style="fill:#272323;" d="M605.811,164.851c-6.353-2.121-12.389-3.488-18.845-1.839c-8.575,2.189-13.072,7.566-13.083,16.341
		c-0.022,17.497,0.003,34.995-0.022,52.492c-0.002,1.62,0.287,3.285-0.349,5.076c-8.992,0-17.926,0-27.17,0
		c0-32.702,0-65.423,0-98.424c8.935,0,17.86,0,26.99,0c1.35,2.236-0.115,5.024,0.899,7.495c11.961-12.259,23.378-11.866,31.582-8.29
		C605.811,146.576,605.811,155.537,605.811,164.851z"/>
	<path style="fill:#272323;" d="M621.394,138.401c9.098,0,18.015,0,27.217,0c0,32.871,0,65.559,0,98.494c-9.009,0-17.937,0-27.217,0
		C621.394,204.325,621.394,171.63,621.394,138.401z"/>
	<path style="fill:#2E2929;" d="M1255.396,348.03c-2.551,0-4.862,0-7.533,0c-9.641-13.818-19.388-27.787-29.76-42.653
		c0,14.755,0,28.426,0,42.32c-3.362,0.8-6.433,0.371-9.764,0.389c0-19.944,0-39.645,0-59.614c3.048,0,5.982,0,9.499,0
		c9.032,12.89,18.315,26.14,28.202,40.251c0-14.069,0-27.012,0-40.256c3.126-0.48,6.06-0.245,9.356-0.134
		C1255.396,308.112,1255.396,327.814,1255.396,348.03z"/>
	<path style="fill:#2E2929;" d="M1067.439,347.885c0-19.834,0-39.413,0-59.335c3.186,0,6.269,0,9.871,0
		c8.854,12.629,17.965,25.626,27.077,38.623c0.262-0.082,0.524-0.164,0.787-0.246c0-12.695,0-25.391,0-38.359
		c3.296-0.659,6.234-0.253,9.498-0.343c0,19.858,0,39.569,0,59.619c-2.168,0.726-4.623,0.134-7.294,0.315
		c-9.857-14.131-19.714-28.262-30.169-43.249c0,14.862,0,28.789,0,42.976C1073.708,347.885,1070.669,347.885,1067.439,347.885z"/>
	<path style="fill:#2E2929;" d="M1189.172,347.86c-3.622,0.49-6.917,0.292-10.549,0.182c-1.903-5.214-3.813-10.45-5.764-15.796
		c-7.424,0-14.718,0-22.391,0c-2.396,4.801-3.596,10.303-5.862,15.606c-3.329,0.633-6.778,0.132-10.716,0.332
		c7.695-20.193,15.207-39.907,22.77-59.753c3.289,0,6.392,0,9.833,0C1174.017,308.147,1181.555,327.9,1189.172,347.86z
		 M1153.339,322.049c5.665,0,10.429,0,15.558,0c-2.733-6.954-5.359-13.639-8.278-21.068
		C1158.051,308.412,1155.768,315.02,1153.339,322.049z"/>
	<path style="fill:#2E2929;" d="M1418.824,347.831c-1.858-5.15-3.701-10.258-5.602-15.529c-7.543,0-14.974,0-22.694,0
		c-2.122,5.078-4.276,10.234-6.51,15.578c-2.956,0.545-5.896,0.182-9.666,0.246c7.424-20.333,15.186-40.016,22.643-59.797
		c3.339,0,6.31,0,9.756,0c7.492,19.629,15.019,39.352,22.709,59.502C1425.831,347.831,1422.619,347.831,1418.824,347.831z
		 M1401.394,302.234c-0.327,0.04-0.654,0.081-0.982,0.121c-2.214,6.456-4.427,12.912-6.807,19.855
		c5.575-0.158,10.423,0.415,15.535-0.396C1406.454,315.026,1403.924,308.63,1401.394,302.234z"/>
	<path style="fill:#2E2929;" d="M977.366,288.352c12.676,0,24.95,0,37.572,0c0.592,2.82,0.378,5.528,0.122,8.584
		c-8.975,0-17.736,0-26.808,0c0,6.039,0,11.746,0,17.853c8.358,0,16.622,0,24.937,0c0.91,2.933,0.588,5.501,0.344,8.495
		c-8.46,0-16.708,0-25.335,0c0,8.313,0,16.222,0,24.273c-3.718,1.132-7.148,0.298-10.833,0.671
		C977.366,328.199,977.366,308.495,977.366,288.352z"/>
	<path style="fill:#2E2929;" d="M1457.912,338.317c9.686,0,18.806,0,28.056,0c1.202,3.248,0.554,6.314,0.606,9.6
		c-13.112,0-25.889,0-39.011,0c0-19.662,0-39.381,0-59.407c3.276,0,6.524,0,10.349,0
		C1457.912,304.963,1457.912,321.511,1457.912,338.317z"/>
	<path style="fill:#282424;" d="M634.028,125.09c-8.688-0.072-15.887-6.939-15.891-15.107c-0.004-7.941,6.979-14.748,15.479-15.09
		c7.467-0.3,14.245,4.079,16.32,10.544c2.927,9.119-3.658,18.768-13.421,19.643C635.693,125.154,634.857,125.09,634.028,125.09z"/>
	<path style="fill:#2E2929;" d="M1034.337,347.853c0-20.044,0-39.605,0-59.405c3.475,0,6.724,0,10.29,0c0,19.737,0,39.421,0,59.405
		C1041.313,347.853,1037.936,347.853,1034.337,347.853z"/>
	<path style="fill:#272323;" d="M1356.107,347.987c-3.498,0-6.606,0-9.982,0c0-19.864,0-39.574,0-59.527c3.218,0,6.313,0,9.415,0
		C1356.602,292.252,1357.004,332.373,1356.107,347.987z"/>
	<path style="fill:#B1DCC5;" d="M158.975,319.283c-2.415,1.612-4.969,0.779-7.553,0.139c2.552-0.392,5.104-0.783,7.656-1.175
		C159.044,318.592,159.01,318.938,158.975,319.283z"/>
	<path style="fill:#54BB6B;" d="M0.359,344.199c0.221-0.047,0.426-0.006,0.613,0.121c0.095,0.707,0.092,1.38-0.625,1.806
		C0.351,345.484,0.355,344.841,0.359,344.199z"/>
	<path style="fill:#B1DCC5;" d="M134.624,294.087c1.222-1.203,2.292-2.347,3.988-1.782c0.463,0.834-0.381,0.983-0.772,1.26
		c-0.377,0.268-0.872,0.439-1.335,0.501C135.889,294.15,135.252,294.087,134.624,294.087z"/>
	<path style="fill:#B1DCC5;" d="M124.97,282.15c0.641-1.254,1.926-1.496,3.072-1.956c-0.01,0.36-0.02,0.721-0.03,1.081
		C127.312,282.657,126.062,282.13,124.97,282.15z"/>
	<path style="fill:#B1DCC5;" d="M122.965,283.157c0.357-0.998,1.173-1.09,2.059-1.047
		C124.839,283.443,123.807,283.113,122.965,283.157z"/>
	<path style="fill:#B1DCC5;" d="M121.933,284.157c0.087-0.64,0.499-0.944,1.096-1.054
		C123.001,283.804,122.537,284.053,121.933,284.157z"/>
	<path style="fill:#6ABE4F;" d="M7.971,336.141c0.023,0.324,0.026,0.648,0.009,0.973c-0.651,0.011-1.302,0.022-1.953,0.033
		C6.295,336.077,7.156,336.154,7.971,336.141z"/>
	<path style="fill:#B1DCC5;" d="M116.993,269.118c0.224-1.151,1.045-1.638,2.087-1.88c0.049,0.604,0.47,0.827,0.98,0.958
		C119.328,269.472,118.212,269.466,116.993,269.118z"/>
	<path style="fill:#B1DCC5;" d="M113.981,271.143c0.251-1.17,1.068-1.228,2.017-1.028
		C115.812,271.412,114.82,271.128,113.981,271.143z"/>
	<path style="fill:#B1DCC5;" d="M115.982,270.13c-0.139-0.807,0.322-1.016,1.003-1.005
		C117.191,269.999,116.676,270.154,115.982,270.13z"/>
	<path style="fill:#B1DCC5;" d="M107.068,258.197c-1.3,1.676-2.526,3.478-5.1,2.958c0.799-1.424,1.652-2.787,3.474-3.045
		C105.985,258.139,106.527,258.168,107.068,258.197z"/>
	<path style="fill:#B1DCC5;" d="M102.025,261.104c0.082,0.761-0.369,1.001-1.021,1.046
		C101.082,261.544,101.435,261.208,102.025,261.104z"/>
	<path style="fill:#2E2929;" d="M1503.715,305.393c-1.34-0.977-1.936-3.421-4.413-2.146c-1.197,1.69,0.604,4.187-1.277,5.947
		c-1.561-2.723-1.763-6.302-0.83-14.145c1.881,0,3.826-0.061,5.765,0.017c1.974,0.079,3.603,0.833,4.102,2.949
		c0.436,1.847-0.297,3.231-1.976,4.118c-0.427,0.226-0.929,0.414-0.794,1.285c0.105,0.249,0.296,0.703,0.488,1.157
		C1504.425,304.847,1504.07,305.12,1503.715,305.393z M1499.477,301.31c1.811,0.041,3.699,0.397,5.409-0.655
		c0.367-1.326,0.249-2.396-0.857-3.28c-1.501-0.466-3.076-0.435-4.673-0.088C1498.725,298.626,1498.751,299.832,1499.477,301.31z"/>
	<path style="fill:#2E2929;" d="M1504.78,304.575c0.731,0.998,1.462,1.996,2.361,3.223c-2.38,0.52-2.962-0.861-3.425-2.405
		C1504.07,305.12,1504.425,304.847,1504.78,304.575z"/>
</g>
</svg>
