<?xml version="1.0" encoding="iso-8859-1"?>
<!-- Generator: Adobe Illustrator 27.0.0, SVG Export Plug-In . SVG Version: 6.00 Build 0)  -->
<svg version="1.1" id="Layer_1" xmlns="http://www.w3.org/2000/svg" xmlns:xlink="http://www.w3.org/1999/xlink" x="0px" y="0px"
	 viewBox="0 0 1579 419" style="enable-background:new 0 0 1579 419;" xml:space="preserve">
<g>
	<path style="fill:#1B7ABD;" d="M90.063,0.925c15.494,1.193,30.657,3.717,44.314,11.746c11.677,6.865,18.191,17.127,19.688,30.622
		c1.024,9.236,1.389,18.54,2.913,27.723c1.638,9.868,3.649,19.602,9.96,27.787c7.145,9.266,16.3,15.44,27.714,18.327
		c10.205,2.581,20.584,3.573,31.051,3.98c13.303,0.517,26.625,1.407,39.919,0.67c14.971-0.83,29.945-0.89,44.903-0.669
		c18.4,0.272,36.354,3.276,52.868,12.097c21.37,11.415,34.112,28.98,37.696,53.061c1.985,13.337,1.596,26.455-2.962,39.312
		c-5.986,16.885-17.021,29.467-32.346,38.471c-3.132,1.84-6.236,3.731-10.285,5.205c4.84,2.564,9.159,4.536,13.177,7.076
		c18.545,11.724,29.282,28.463,32.475,50.119c2.093,14.196,1.54,28.136-3.838,41.646c-6.749,16.957-18.502,29.407-34.487,37.886
		c-13.353,7.083-27.635,11.136-42.755,12.102c-4.804-0.036-9.608-0.11-14.412-0.101c-16.907,0.031-33.813,0.09-50.72,0.139
		c-7.991,0.003-15.981,0.007-23.972,0.01c-7.326-0.02-14.573-0.744-21.781-2.093c-9.906-1.855-19.072-5.271-27.42-11.1
		c-10.785-7.531-17.655-17.426-19.645-30.474c-1.602-10.503-2.552-21.081-3.198-31.692c-0.584-9.602-2.856-18.687-9.296-26.252
		c-5.423-6.371-12.442-10.393-20.064-13.472c-13.733-5.548-28.283-7.138-42.84-7.892c-15.947-0.825-31.956-0.647-47.878,0.933
		c-7.411,0.735-14.833,1.458-22.2,2.714c-5.211,0.889-10.339,2.48-15.708,2.345c0.016-14.705,0.039-29.41,0.032-44.115
		C0.964,255.955,1.426,254.656,0,254c0-7.333,0-14.667,0-22c1.488,0.577,2.991,0.142,4.433-0.094
		c6.865-1.127,13.701-2.364,20.613-3.28c9.559-1.267,19.146-2.179,28.744-2.527c16.283-0.591,32.592-0.647,48.768,1.93
		c10.866,1.731,21.473,4.406,31.09,9.945c12.027,6.927,18.979,17.3,20.408,31.229c0.965,9.407,1.819,18.83,3.02,28.207
		c0.843,6.581,2.242,13.116,5.133,19.144c7.723,16.101,21.306,24.513,38.132,28.4c12.523,2.893,25.355,3.408,38.1,3.666
		c23.644,0.479,47.302,0.27,70.955,0.238c7.191-0.01,13.259-3.092,18.114-8.2c5.025-5.288,6.699-11.693,4.952-18.899
		c-2.683-11.066-12.612-17.714-23.654-17.682c-25.096,0.071-50.176-0.584-75.264-0.929c-12.492-0.172-25.01-0.499-36.974-4.296
		c-17.404-5.524-29.91-16.131-33.807-34.989c-2.362-11.427-3.063-23.012-3.801-34.596c-1.098-17.251-9.012-29.831-24.823-37.284
		c-15.031-7.085-31.187-8.998-47.42-9.824c-15.949-0.811-31.965-0.729-47.891,0.925c-7.41,0.769-14.838,1.446-22.202,2.727
		c-5.212,0.907-10.35,2.436-15.713,2.375c0.023-14.882,0.047-29.763,0.065-44.645C0.978,142.578,1.196,141.511,0,141
		c0-7.333,0-14.667,0-22c2.171,0.487,4.303,0.041,6.398-0.406c15.303-3.261,30.842-4.799,46.414-5.443
		c15.94-0.659,31.909-0.739,47.804,1.678c10.074,1.532,19.872,3.755,29.104,8.108c14.159,6.676,22.669,17.515,24.328,33.344
		c1.175,11.219,1.954,22.471,3.892,33.618c3.59,20.65,15.915,33.545,35.327,39.861c11.735,3.819,24.067,5.021,36.348,5.151
		c25.993,0.276,51.991,0.022,77.986,0.07c2.875,0.005,5.713-0.289,8.362-1.146c10.071-3.257,16.874-11.015,17.124-21.444
		c0.251-10.483-8.135-19.837-19.224-22.369c-5.316-1.214-10.56-0.225-15.847-0.19c-20.785,0.139-41.566,0.682-62.358,0.363
		c-10.162-0.156-20.271-0.441-30.286-2.228c-8.231-1.469-16.052-3.975-23.112-8.697c-10.102-6.757-17.06-15.489-19.433-27.728
		c-2.22-11.452-3.227-23.009-3.841-34.609c-0.988-18.655-10.08-31.499-27.182-38.795c-15.23-6.498-31.429-8.124-47.678-8.922
		c-13.124-0.644-26.282-0.415-39.421,0.666c-8.769,0.721-17.478,1.862-26.214,2.819c-5.94,0.651-11.652,2.754-17.696,2.611
		C0.857,59.725,0.917,44.14,0.98,28.555C0.983,27.821,0.652,27.313,0,27c0-6.667,0-13.333,0-20
		c15.54-2.85,31.106-5.498,46.937-6.149C47.302,0.836,47.646,0.295,48,0c10.333,0,20.667,0,31,0
		C82.54,2.068,86.377,0.592,90.063,0.925z"/>
	<path style="fill:#91AEDA;" d="M254.936,418.121c16.907-0.049,33.813-0.108,50.72-0.139c4.804-0.009,9.608,0.065,14.412,0.101
		c-0.111,0.299-0.134,0.604-0.068,0.917c-21.667,0-43.333,0-65,0C255.01,418.705,254.989,418.412,254.936,418.121z"/>
	<path style="fill:#5B8EC9;" d="M0.796,75.311C0.467,75.371,0.201,75.268,0,75c0-16,0-32,0-48c0.652,0.313,0.983,0.821,0.98,1.555
		C0.917,44.14,0.857,59.725,0.796,75.311z"/>
	<path style="fill:#5B8EC9;" d="M0.933,301.148l-0.485,0.039L0,301c0-15.667,0-31.333,0-47c1.426,0.656,0.964,1.955,0.965,3.033
		C0.972,271.738,0.949,286.443,0.933,301.148z"/>
	<path style="fill:#5B8EC9;" d="M0.912,188.185c0,0-0.483,0.042-0.483,0.042L0,188c0-15.667,0-31.333,0-47
		c1.196,0.511,0.978,1.578,0.977,2.54C0.959,158.422,0.935,173.303,0.912,188.185z"/>
	<path style="fill:#CCD8EE;" d="M254.936,418.121c0.053,0.291,0.074,0.583,0.064,0.879c-8,0-16,0-24,0
		c0.015-0.291,0.003-0.58-0.036-0.869C238.955,418.128,246.946,418.125,254.936,418.121z"/>
	<path style="fill:#7F7B7A;" d="M1577.911,227.172c0.363-0.057,0.726-0.115,1.089-0.172c0,6.667,0,13.333,0,20
		c-0.379-0.096-0.758-0.192-1.137-0.288C1577.879,240.199,1577.895,233.685,1577.911,227.172z"/>
	<path style="fill:#91AEDA;" d="M90.063,0.925C86.377,0.592,82.54,2.068,79,0c3.667,0,7.333,0,11,0
		C89.929,0.314,89.95,0.623,90.063,0.925z"/>
	<path style="fill:#3B3A3A;" d="M931.639,246.47c0-34.186,0-68.091,0-102.191c10.382,0,20.49,0,30.966,0
		c5.927,22.352,11.851,44.69,17.775,67.028c0.343,0.023,0.687,0.046,1.03,0.069c6.277-22.192,11.826-44.59,18.035-67.033
		c10.341,0,20.586,0,31.097,0c0,34.077,0,67.971,0,102.178c-6.453,0.343-12.685,0.324-19.333,0.006c0-25.577,0-50.843,0-76.11
		c-0.278-0.036-0.557-0.072-0.835-0.108c-6.484,25.409-12.968,50.818-19.451,76.22c-6.877,0-13.327,0-20.189,0
		c-6.356-25.455-12.69-50.821-19.024-76.186c-0.237,0.016-0.475,0.031-0.712,0.047c0,25.275,0,50.549,0,76.08
		C944.394,246.47,938.285,246.47,931.639,246.47z"/>
	<path style="fill:#393838;" d="M450.32,246.718c0-34.415,0-68.283,0-102.22c0.661-0.166,1.12-0.383,1.58-0.382
		c16.142,0.04,32.284,0.03,48.425,0.21c3.791,0.042,7.6,0.461,11.326,1.424c10.346,2.673,17.012,9.364,18.984,19.598
		c2.023,10.501-1.823,19.274-10.966,25.358c-0.539,0.358-1.047,0.767-1.541,1.186c-0.098,0.083-0.069,0.316-0.127,0.64
		c4.175,1.511,7.987,3.64,11.233,6.833c13.138,12.921,6.854,39.812-13.162,45.529c-5.691,1.625-11.559,1.545-17.303,1.687
		C482.815,246.975,466.845,246.718,450.32,246.718z M471.208,229.095c5.458,0,10.442,0.013,15.427-0.003
		c5.157-0.017,10.348,0.303,15.463-0.176c8.455-0.791,12.088-4.956,12.581-12.72c0.46-7.234-4.4-12.226-12.03-13.314
		c-10.401-1.483-20.818-0.654-31.44-0.868C471.208,211.136,471.208,219.868,471.208,229.095z M471.225,161.236
		c0,8.233,0,15.822,0,23.765c6.666,0,13.113,0.028,19.559-0.013c2.657-0.017,5.329-0.035,7.963-0.329
		c1.787-0.2,3.588-0.713,5.264-1.382c4.795-1.916,7.403-6.42,6.846-11.506c-0.613-5.6-3.956-9.199-9.509-9.831
		C491.446,160.814,481.509,161.279,471.225,161.236z"/>
	<path style="fill:#3A3939;" d="M730.517,254.142c0.709,5.007,3.677,6.877,7.998,7.111c1.486,0.08,2.98,0.384,4.452,0.291
		c10.949-0.688,15.382-2.991,15.129-16.02c-0.06-3.096-0.009-6.195-0.009-9.311c-1.603,0.041-1.97,1.144-2.596,1.828
		c-11.489,12.55-32.274,11.782-43.183-3.808c-4.214-6.021-6.147-12.845-6.8-20.064c-0.742-8.212,0.021-16.269,2.973-24.03
		c8.075-21.233,35.245-25.878,48.783-10.123c0.307,0.357,0.732,0.612,1.404,1.162c1.022-1.398,0.487-2.888,0.585-4.215
		c0.096-1.311,0.021-2.634,0.021-4.321c6.142,0,12.036,0,18.045,0c1.074,1.01,0.57,2.427,0.572,3.687
		c0.032,22.157,0.031,44.314,0.017,66.472c-0.003,4.838-0.621,9.598-1.815,14.299c-2.176,8.569-7.27,14.421-15.766,17.1
		c-12.778,4.03-25.618,3.722-38.226-0.426c-9.943-3.271-15.026-12.012-13.62-22.318
		C715.678,252.334,722.882,253.212,730.517,254.142z M725.713,208.75c0.236,2.921,0.17,6.218,1.11,9.478
		c2.13,7.385,7.659,12.339,14.296,12.476c6.912,0.142,13.641-4.582,15.689-11.605c2.177-7.465,2.272-15.083-0.314-22.508
		c-2.475-7.107-8.295-10.936-15.6-10.632c-6.529,0.272-11.783,4.701-13.905,11.572C725.892,201.083,725.897,204.73,725.713,208.75z"
		/>
	<path style="fill:#393838;" d="M693.654,246.484c-5.884,0-11.629,0-17.438,0c-0.921-2.937,0.024-5.807-0.664-8.576
		c-1.745-0.492-2.225,1.136-3.076,1.945c-13.894,13.182-34.255,10.696-44.621-5.474c-5.946-9.275-6.981-19.611-6.298-30.215
		c0.418-6.483,1.884-12.719,5.088-18.577c9.432-17.243,33.809-19.297,45.294-7.005c0.433,0.463,0.96,0.839,2.104,1.826
		c0-12.404,0-24.069,0-36.022c6.747,0,13,0,19.612,0C693.654,178.276,693.654,212.29,693.654,246.484z M674.275,207.868
		c-0.004-2.127-0.249-6.095-1.318-9.973c-1.878-6.813-7.298-11.527-13.714-11.917c-7.335-0.446-13.121,3.219-15.615,10.544
		c-2.92,8.579-2.774,17.374,0.219,25.876c2.561,7.274,7.774,10.059,13.845,10.309c6.323,0.26,11.825-3.974,14.473-10.294
		C673.879,218.323,674.179,214.062,674.275,207.868z"/>
	<path style="fill:#393838;" d="M613.751,246.534c-6.169,0-12.295,0-18.412,0c-1.835-1.957-1.68-4.677-2.887-6.829
		c-1.794-0.273-2.607,1.247-3.764,2.091c-8.597,6.269-18.035,8.209-28.299,5.294c-9.624-2.734-15.217-9.821-15.712-20.05
		c-0.389-8.039,3.553-16.429,13.219-20.263c7.325-2.905,15.088-3.861,22.658-5.674c3.214-0.77,6.445-1.454,9.37-2.824
		c1.588-7.023-0.781-10.931-7.324-12.067c-2.796-0.485-5.66-0.491-8.471-0.108c-5.062,0.691-7.587,4.325-9.508,8.746
		c-3.051,0.388-5.931-0.743-8.808-1.265c-2.882-0.523-6.001-0.359-8.638-2.005c2.406-11.503,10.198-18.716,22.736-20.303
		c7.761-0.982,15.615-0.94,23.333,0.805c3.764,0.851,7.201,2.435,10.253,4.876c4.862,3.891,6.331,9.249,6.416,15.067
		c0.153,10.488,0.096,20.98,0.085,31.47c-0.008,7.359,0.566,14.601,3.728,21.407C613.912,245.302,613.751,245.86,613.751,246.534z
		 M590.686,211.325c-3.124,0.709-5.695,1.283-8.26,1.878c-2.573,0.598-5.16,1.15-7.705,1.851c-1.745,0.481-3.503,1.028-5.125,1.813
		c-5.506,2.662-6.706,9.086-2.757,13.717c3.536,4.147,8.163,4.379,12.742,3.102c5.104-1.423,9.278-4.353,10.529-10.101
		C590.965,219.66,590.835,215.724,590.686,211.325z"/>
	<path style="fill:#393838;" d="M1182.037,215.123c0.259,4.21,0.93,7.567,2.711,10.659c3.56,6.183,10.854,9.156,17.589,7.073
		c2.843-0.88,4.833-2.886,6.298-5.382c0.742-1.263,1.214-2.685,2.033-4.545c6.333,1.079,12.772,2.177,19.264,3.283
		c-3.549,12.269-14.488,21.445-28.769,21.885c-5.522,0.17-11.008,0.185-16.299-1.429c-11.506-3.51-18.417-11.665-21.426-22.96
		c-2.559-9.607-2.332-19.379,0.422-29.024c3.565-12.486,14.673-23.442,30.8-23.944c18.736-0.583,32.172,10.238,35.375,28.753
		c0.876,5.066,1.297,10.118,1.103,15.63C1214.746,215.123,1198.678,215.123,1182.037,215.123z M1182.695,202.738
		c9.785,0,19.148,0,28.461,0c0.957-8.481-5.351-16.789-14.026-16.888C1190.071,185.77,1181.911,191.996,1182.695,202.738z"/>
	<path style="fill:#393838;" d="M857.112,215.298c-16.464,0-32.394,0-48.284,0c-0.811,8.326,3.869,15.718,10.894,17.596
		c7.975,2.132,12.849-0.586,17.262-9.918c6.197,1.055,12.512,2.131,19.213,3.272c-3.595,10.435-10.14,17.504-20.392,20.437
		c-8.432,2.412-17.086,2.315-25.551-0.346c-10.139-3.187-16.646-10.256-19.859-20.097c-3.651-11.185-3.653-22.581,0.399-33.726
		c5.135-14.122,17.381-22.053,32.323-21.785c17.756,0.319,30.07,11.536,33.015,28.592
		C857.012,204.42,857.353,209.477,857.112,215.298z M837.658,202.888c-0.466-13.405-9.311-17.725-16.282-16.911
		c-7.824,0.913-13.083,8.034-12.172,16.911C818.557,202.888,827.934,202.888,837.658,202.888z"/>
	<path style="fill:#393838;" d="M1110.948,215.383c-16.606,0-32.568,0-48.502,0c-0.788,8.325,4.358,16.041,11.558,17.624
		c8.068,1.774,12.73-0.954,16.213-9.662c3.246-0.576,6.4,0.715,9.599,1.199c3.26,0.492,6.607,0.68,9.741,1.875
		c-4.077,14.6-15.96,20.405-25.803,21.491c-6.299,0.695-12.658,0.66-18.816-1.18c-11.545-3.45-18.552-11.507-21.567-22.822
		c-2.654-9.958-2.553-20.125,0.618-30.037c4.737-14.806,17.481-23.502,32.95-23.129c19.52,0.47,30.68,13.356,33.14,29.709
		C1110.8,205.243,1111.042,209.964,1110.948,215.383z M1091.07,202.828c-0.093-10.634-5.985-17.128-14.852-16.914
		c-7.766,0.187-14.557,7.533-13.618,16.914C1071.932,202.828,1081.296,202.828,1091.07,202.828z"/>
	<path style="fill:#3A3939;" d="M1464.008,246.475c-6.945,0-13.2,0-19.38,0c-0.93-1.801-0.514-3.487-0.519-5.104
		c-0.04-12.651-0.022-25.301-0.022-37.952c0-2.998-0.074-5.978-0.859-8.913c-1.467-5.484-5.166-8.483-10.742-8.587
		c-8.36-0.155-14.492,5.215-15.601,13.64c-1.768,13.427-0.493,26.919-0.869,40.376c-0.059,2.122-0.008,4.248-0.008,6.57
		c-6.714,0-12.97,0-19.574,0c0-24.612,0-49.133,0-73.944c5.928,0,11.824,0,17.95,0c0.816,3-0.052,6.031,0.598,9.242
		c2-0.746,2.981-2.526,4.387-3.708c9.743-8.184,20.561-9.531,32.104-4.782c8.764,3.606,11.965,11.165,12.355,19.978
		c0.368,8.307,0.159,16.64,0.176,24.962C1464.022,227.556,1464.008,236.857,1464.008,246.475z"/>
	<path style="fill:#393838;" d="M1545.948,198.66c-6.569,0-13.008,0-19.653,0c-0.692-1.56-1.321-3.258-2.169-4.838
		c-3.055-5.695-8.056-7.556-14.217-7.059c-5.444,0.439-10.288,4.064-11.784,9.298c-0.908,3.176-1.542,6.486-1.809,9.775
		c-0.391,4.816,0.07,9.634,1.355,14.323c1.948,7.111,6.862,11.522,13.081,11.829c6.24,0.308,11.543-3.489,14.371-10.291
		c0.188-0.451,0.38-0.901,0.686-1.626c6.523,0,13.103,0,19.951,0c0.698,2.536-0.641,4.745-1.433,6.982
		c-4.429,12.515-13.39,19.224-26.471,21.077c-5.391,0.763-10.642,0.635-15.846-0.516c-11.204-2.479-19.124-9.005-23.015-19.935
		c-4.591-12.894-4.287-25.768,0.975-38.406c4.316-10.364,12.286-16.432,23.297-18.015c6.912-0.994,13.956-0.962,20.816,0.861
		c8.747,2.324,14.936,7.796,18.757,15.902C1544.382,191.289,1545.793,194.671,1545.948,198.66z"/>
	<path style="fill:#3A3939;" d="M1143.872,172.44c5.047,0,9.174,0,13.57,0c0,5.168,0,10.073,0,15.362c-4.285,0-8.542,0-12.362,0
		c-1.52,1.292-1.061,2.544-1.046,3.635c0.157,11.314-0.471,22.637,0.353,33.942c0.429,5.89,2.367,7.324,8.01,6.062
		c1.594-0.356,3.186-0.725,4.924-1.121c0.198,0.735,0.513,1.358,0.508,1.977c-0.038,4.316,1.569,8.511,0.98,13.262
		c-7.543,2.773-15.208,3.899-23.185,1.581c-6.282-1.826-9.614-6.062-10.637-12.432c-0.902-5.62-0.822-11.275-0.874-16.922
		c-0.09-9.779-0.025-19.559-0.025-29.778c-3.112,0-5.862,0-8.791,0c0-5.355,0-10.266,0-15.356c2.743-0.792,5.43-0.092,8.625-0.595
		c0-5.734,0-11.611,0-17.715c6.855,0,13.115,0,19.95,0C1143.872,160.118,1143.872,166,1143.872,172.44z"/>
	<path style="fill:#3B3A3A;" d="M1380.353,246.149c-6.648,0-13.408,0-20.445,0c0-34.098,0-67.923,0-101.907
		c6.875,0,13.495,0,20.445,0C1380.353,178.377,1380.353,212.399,1380.353,246.149z"/>
	<path style="fill:#3B3A3A;" d="M1265.732,246.521c-6.865,0-13.143,0-19.773,0c0-24.634,0-49.189,0-73.999c5.907,0,11.66,0,17.702,0
		c0.822,3.051-0.02,6.228,0.634,9.856c6.683-6.851,13.948-12.046,24.16-11.363c0,5.384,0,10.635,0,15.836
		c-1.396,0.517-2.366-0.338-3.468-0.599c-8.202-1.95-16.261,3.16-18.252,11.346c-0.999,4.106-0.97,8.254-0.987,12.405
		C1265.701,221.987,1265.732,233.973,1265.732,246.521z"/>
	<path style="fill:#3B3A3A;" d="M869.238,172.497c5.951,0,11.713,0,17.512,0c1.492,2.643-0.11,5.641,1.332,8.981
		c3.487-2.909,6.566-6.098,10.554-7.911c3.961-1.801,8.038-3.07,12.787-2.488c0,5.246,0,10.486,0,15.705
		c-1.297,0.586-2.272-0.275-3.367-0.514c-8.648-1.888-16.867,3.837-18.309,11.304c-0.894,4.632-0.931,9.258-0.978,13.894
		c-0.115,11.475-0.038,22.952-0.038,34.588c-3.32,1.297-6.648,0.499-9.884,0.645c-3.119,0.141-6.249,0.031-9.61,0.031
		C869.238,221.789,869.238,197.258,869.238,172.497z"/>
	<path style="fill:#3B3A3A;" d="M1287.352,227.131c6.602,0,12.863,0,19.709,0c-0.432,8.688,0.926,17.273-1.096,25.756
		c-2.079,8.722-8.053,13.597-16.413,16.502c-1.334-2.682-2.499-5.024-3.778-7.595c2.556-2.172,6.048-2.832,8.058-5.606
		c1.936-2.671,2.75-5.571,2.601-8.851c-2.888-1.396-6.012,0.073-9.081-1.049C1287.352,240.061,1287.352,233.833,1287.352,227.131z"
		/>
	<path style="fill:#363635;" d="M1577.911,227.172c-0.016,6.513-0.032,13.026-0.048,19.539c-6.123,0-12.247,0-18.418,0
		c-0.187-0.701-0.413-1.157-0.415-1.614c-0.024-5.818-0.016-11.635-0.016-17.926
		C1565.406,227.172,1571.659,227.172,1577.911,227.172z"/>
	<path style="fill:#337FC0;" d="M41.106,397.856c-0.097,10.003-8.365,18.126-18.227,17.908c-9.642-0.213-17.814-8.822-17.826-18.531
		c-0.01-7.887,6.398-17.612,17.959-17.727C35.469,379.381,41.677,389.719,41.106,397.856z M32.571,407.119
		c4.54-2.956,6.178-9.491,3.917-15.076c-2.415-5.966-9.716-10.114-15.732-8.786c-8.809,1.945-12.281,9.333-11.887,15.04
		c0.464,6.713,5.547,12.512,12.414,13.587c3.901,0.61,9.631-1.276,10.373-3.546c-1.105-0.164-2.185-0.324-3.317-0.491
		c-1.143-2.656-2.242-5.212-3.296-7.662c-1.864-0.548-3.437-0.767-4.919,0.131c-0.904,2.485,0.25,5.084-0.798,7.371
		c-1.226,0.475-2.314,0.761-3.075-0.152c0-6.95,0-13.683,0-20.523c3.836,0,7.338-0.258,10.787,0.064
		c4.58,0.427,6.719,4.631,4.938,8.782c-0.637,1.484-2.325,1.85-3.023,3.54C30.137,401.848,30.562,404.834,32.571,407.119z
		 M19.842,390.127c0.111,2.31-0.578,4.117,0.626,5.839c2.298,0.05,4.557,0.53,6.583-0.39c1.291-1.397,1.402-2.74,0.66-4.209
		C25.455,389.296,22.843,390.164,19.842,390.127z"/>
</g>
</svg>
