<?xml version="1.0" encoding="iso-8859-1"?>
<!-- Generator: Adobe Illustrator 27.0.0, SVG Export Plug-In . SVG Version: 6.00 Build 0)  -->
<svg version="1.1" id="Layer_1" xmlns="http://www.w3.org/2000/svg" xmlns:xlink="http://www.w3.org/1999/xlink" x="0px" y="0px"
	 viewBox="0 0 374.998 126.72" style="enable-background:new 0 0 374.998 126.72;" xml:space="preserve">
<g>
	<path style="fill:#082A3E;" d="M12.589,17.74c-0.726,0.555-1.129,1.42-1.846,2.003c-0.402-0.432-0.359-0.926-0.362-1.39
		c-0.017-2.473-0.138-4.954,0.008-7.419c0.215-3.632,1.975-6.502,4.891-8.638c1.448-1.061,3.008-1.947,4.87-2.082
		c0.93,0.005,1.861,0.009,2.791,0.015C23.11,0.23,23.233,0.164,23.296,0c0.08,0,0.16,0,0.24,0c0.079,0.255,0.294,0.207,0.485,0.222
		c2.114,0.168,4,0.975,5.769,2.085c0.427,0.268,0.9,0.541,1.026,1.232c-1.506,1.094-3.041,2.219-4.586,3.329
		c-4.447,3.195-8.418,6.873-11.104,11.698c-2.388,4.289-2.006,3.443-0.482,7.14c1.566,3.797,3.686,7.302,5.935,10.729
		c1.573,2.396,3.167,4.779,4.963,7.018c0.272,0.339,0.5,0.727,0.898,0.949c0.228,0.431,0.285,1.001,0.908,1.111
		c0.056,0.462,0.37,0.786,0.621,1.14c3.172,4.494,6.586,8.811,9.708,13.341c2.94,4.265,5.712,8.635,8.127,13.217
		c1.65,3.131,3.001,6.404,4.09,9.771c0.721,2.23,1.823,4.196,3.326,6.004c2.857,3.438,5.412,7.106,7.332,11.153
		c1.401,2.952,2.421,6.06,2.685,9.349c0.325,4.044-0.856,7.615-3.526,10.69c-1.546,1.781-3.462,3.084-5.573,4.046
		c-2.464,1.124-5.009,2.076-7.794,2.046c-0.068-0.001-0.136,0.06-0.207,0.094c-0.019,0.118-0.037,0.237-0.056,0.355
		c-0.08,0-0.16,0-0.24,0c-0.088-0.295-0.281-0.478-0.594-0.478c-1.108-0.001-2.216,0.011-3.324,0.016
		c-0.314,0.001-0.394,0.198-0.399,0.462c-0.32,0-0.64,0-0.959,0c-0.008-0.263-0.089-0.458-0.403-0.456
		c-0.591,0.004-1.183,0.002-1.774,0.002c-0.719,0.004-1.438,0.008-2.157,0.013c-3.747-0.244-7.254-1.379-10.653-2.89
		c-0.466-0.207-1.085-0.356-1.13-1.112c0.674-0.232,1.286,0.092,1.862,0.213c2.136,0.45,4.284,0.477,6.44,0.387
		c2.345-0.097,4.359-1.111,6.28-2.37c2.83-1.856,4.698-4.485,6.15-7.471c1.51-3.107,2.358-6.404,2.853-9.801
		c0.572-3.919,0.755-7.858,0.461-11.81c-0.168-2.267-0.651-4.485-1.227-6.681c-0.041-0.157-0.112-0.3-0.377-0.309
		c-0.178,0.466-0.035,0.985-0.145,1.557c-0.915-0.477-1.595-1.194-2.324-1.822c-3.268-2.815-6.774-5.321-10.209-7.919
		c-6.334-4.792-12.115-10.165-16.879-16.538c-3.914-5.235-6.902-10.969-8.572-17.327c-0.323-1.229-0.556-2.48-0.595-3.767
		c-0.079-2.595-0.099-5.19,0.045-7.78c0.145-2.613,1.001-5.059,1.978-7.459c0.57-1.4,1.279-2.737,2.004-4.064
		c0.227-0.416,0.414-0.855,0.62-1.283c0.401-0.603,0.804-1.206,0.864-2.102C13.083,16.512,12.716,17.054,12.589,17.74z
		 M21.037,59.474c1.435,1.808,2.82,3.484,4.463,4.93c2.799-1.498,5.326-3.26,7.998-4.959c-1.324-1.739-2.575-3.415-4.007-5.053
		C26.716,56.224,23.771,57.609,21.037,59.474z M28.945,53.29c-1.169-1.681-2.185-3.277-3.449-4.737
		c-3.055,1.438-6.122,2.671-8.945,4.39c1.135,1.906,2.245,3.639,3.524,5.287C23.019,56.59,25.926,54.971,28.945,53.29z
		 M21.262,42.826c-1.981,0.571-7.121,3.127-7.742,3.864c0.499,1.665,1.207,3.264,2.404,4.741c2.997-1.219,5.842-2.598,8.783-3.982
		C23.528,45.818,22.493,44.277,21.262,42.826z M34.357,60.567c-2.547,1.695-5.229,3.221-7.582,5.301
		c1.416,1.595,2.977,2.822,4.472,4.099c1.118-0.752,2.174-1.46,3.227-2.171c1.045-0.705,2.157-1.319,3.083-2.146
		C37.187,64.32,35.603,61.81,34.357,60.567z M12.429,45.062c2.635-1.209,5.197-2.384,7.799-3.578
		c-0.867-1.488-1.571-2.903-2.643-4.189c-2.205,0.785-4.387,1.562-6.333,2.962C11.534,41.894,11.997,43.396,12.429,45.062z
		 M37.446,74.522c1.547-0.778,2.781-1.82,4.104-2.816c-1.098-1.651-1.974-3.38-3.198-4.983c-2.027,1.35-3.986,2.646-5.857,4.218
		C34.101,72.327,35.65,73.544,37.446,74.522z M16.489,35.708c-0.364-1.225-0.913-2.29-1.723-3.222
		c-0.284-0.327-0.654-0.441-1.074-0.383c-0.929,0.129-1.878,0.178-2.795,0.598c0.138,1.839-0.321,3.652,0.173,5.551
		C12.977,37.56,14.795,36.873,16.489,35.708z M44.474,76.896c-0.818-1.329-1.409-2.694-2.318-3.866
		c-1.391,0.667-2.595,1.377-3.482,2.601c1.096,1.114,2.305,1.981,3.577,2.73C43.137,78.094,43.699,77.458,44.474,76.896z
		 M12.148,26.507c-0.742,1.517-0.939,2.939-1.25,4.427c1.134,0.12,2.114-0.047,3.159-0.359
		C13.711,29.112,13.032,27.86,12.148,26.507z M43.793,79.064c0.503,0.925,0.743,1.15,1.787,1.646
		c-0.014-0.977-0.36-1.747-1.048-2.368C44.145,78.482,43.847,78.653,43.793,79.064z"/>
	<path style="fill:#69707F;" d="M41.524,126.72c0.005-0.264,0.085-0.46,0.399-0.462c1.108-0.005,2.216-0.017,3.324-0.016
		c0.313,0,0.506,0.182,0.594,0.478C44.402,126.72,42.963,126.72,41.524,126.72z"/>
	<path style="fill:#ADAEB8;" d="M36.23,126.279c0.719-0.004,1.438-0.008,2.157-0.013c0.006,0.151,0.013,0.302,0.019,0.453
		c-0.72,0-1.439,0-2.159,0C36.242,126.573,36.236,126.426,36.23,126.279z"/>
	<path style="fill:#69707F;" d="M38.406,126.72c-0.006-0.151-0.013-0.302-0.019-0.453c0.591,0,1.183,0.002,1.774-0.002
		c0.315-0.002,0.395,0.192,0.403,0.456C39.845,126.72,39.125,126.72,38.406,126.72z"/>
	<path style="fill:#69707F;" d="M23.296,0c-0.062,0.164-0.185,0.23-0.356,0.229c-0.93-0.006-1.861-0.01-2.791-0.015
		C20.194,0.148,20.204,0.076,20.178,0C21.217,0,22.256,0,23.296,0z"/>
	<path style="fill:#04283C;" d="M201.852,119.661c0-1.456-0.005-2.848,0.001-4.24c0.05-12.53,0.099-25.059,0.156-37.589
		c0.009-2.074,0.035-4.159,0.48-6.189c0.478-2.18,1.22-4.264,2.557-6.114c1.011-1.399,2.349-2.369,3.771-3.262
		c2.491-1.566,5.235-2.48,8.095-3.086c4.771-1.01,9.391-0.414,13.753,1.636c3.353,1.576,5.781,4.219,7.256,7.64
		c1.255,2.909,2.027,5.934,1.998,9.143c-0.023,2.432,0.112,4.871-0.292,7.283c-0.804,4.807-2.779,9.05-6.383,12.397
		c-1.718,1.595-3.888,2.423-6.165,2.984c-3.26,0.802-6.423,0.346-9.519-0.703c-1.25-0.424-2.236-1.368-3.199-2.272
		c-0.551-0.517-1.068-1.071-1.746-1.531c-0.332,0.491-0.253,1.012-0.258,1.502c-0.038,4.31-0.07,8.619-0.089,12.929
		c-0.008,1.757-0.08,3.509-0.205,5.261c-0.13,1.827-1.555,3.595-3.323,4.071c-0.898,0.242-1.815,0.247-2.733,0.251
		c-1.279,0.006-2.557,0-3.836-0.006C202.097,119.765,202.024,119.719,201.852,119.661z M229.324,79.985
		c0-0.659-0.017-1.178,0.003-1.696c0.097-2.5-0.673-4.735-1.89-6.897c-1.644-2.921-5.468-3.958-8.045-3.501
		c-2.724,0.484-4.513,2.183-5.701,4.6c-0.566,1.153-0.794,2.386-0.987,3.647c-0.463,3.022-0.499,6.028,0.324,8.984
		c0.921,3.309,3.162,6.221,7.278,6.505c2.397,0.165,4.504-0.444,6.154-2.242c1.398-1.524,2.231-3.345,2.653-5.372
		C229.4,82.629,229.289,81.236,229.324,79.985z"/>
	<path style="fill:#06293D;" d="M70.572,47.615c1.797,0.013,3.689-0.197,5.528,0.115c2.328,0.394,4.305,1.749,4.539,5.037
		c0.207,2.91,0.15,5.821,0.169,8.732c0.006,0.876,0.001,1.752,0.001,2.714c0.562-0.176,0.79-0.602,1.082-0.935
		c1.667-1.896,3.647-3.3,6.097-4.024c5.857-1.73,12.463,0.701,15.939,5.46c2.518,3.447,3.832,7.266,4.289,11.466
		c0.422,3.887,0.256,7.727-0.741,11.5c-0.993,3.759-2.671,7.135-5.799,9.653c-1.529,1.231-3.336,1.834-5.116,2.498
		c-1.464,0.546-3.005,0.745-4.577,0.719c-2.115-0.035-4.231,0.042-6.342-0.174c-0.839-0.086-1.658-0.254-2.446-0.514
		c-2.805-0.924-5.529-2.023-7.861-3.907c-1.263-1.021-2.231-2.26-2.936-3.72c-1.102-2.283-1.788-4.654-1.841-7.214
		c-0.252-12.127-0.165-24.256-0.176-36.384C70.379,48.328,70.283,47.997,70.572,47.615z M80.862,80.013
		c-0.004,1.381-0.031,2.653,0.229,3.916c0.482,2.34,1.283,4.507,3.153,6.124c1.472,1.272,3.235,1.977,5.137,1.834
		c3.547-0.267,6.109-2.018,7.328-5.493c0.934-2.662,1.294-5.407,1.164-8.205c-0.134-2.875-0.927-5.553-2.818-7.806
		c-1.052-1.254-2.372-2.067-4.016-2.367c-1.083-0.198-2.154-0.161-3.211,0.028c-2.255,0.404-4.086,1.482-5.212,3.557
		c-0.568,1.047-1.049,2.125-1.305,3.304C80.937,76.628,80.82,78.365,80.862,80.013z"/>
	<path style="fill:#06293D;" d="M199.064,82.626c-8.828,0-17.556,0-26.425,0c0.513,3.511,1.247,6.751,4.727,8.401
		c3.089,1.465,6.032,1.013,8.75-1.001c0.51-0.378,0.973-0.828,1.425-1.277c0.87-0.865,1.94-1.256,3.131-1.275
		c2.236-0.036,4.474-0.015,6.711-0.018c0.323,0,0.638,0.03,0.912,0.268c0.168,0.338,0.068,0.667-0.065,1.012
		c-2.49,6.451-6.994,10.504-13.929,11.638c-3.184,0.521-6.38,0.511-9.491-0.36c-5.733-1.605-9.403-5.428-11.418-10.95
		c-0.633-1.734-0.927-3.536-1.184-5.344c-0.265-1.856-0.363-3.732-0.272-5.606c0.165-3.401,0.773-6.725,2.216-9.827
		c2.263-4.865,6.068-7.944,11.303-9.082c5.271-1.145,10.38-0.567,15.175,2.034c3.507,1.902,5.679,4.912,7.023,8.585
		c0.729,1.991,1.146,4.033,1.256,6.165C199.018,78.138,199.105,80.283,199.064,82.626z M188.154,75.68
		c-0.267-1.981-0.755-3.794-1.825-5.404c-0.328-0.493-0.785-0.89-1.292-1.226c-2.074-1.375-4.353-1.68-6.714-1.122
		c-2.178,0.515-3.674,1.979-4.63,3.958c-0.564,1.168-1.012,2.394-0.819,3.794C177.942,75.68,182.954,75.68,188.154,75.68z"/>
	<path style="fill:#06293D;" d="M124.326,59.727c3.521,0,6.973,0,10.529,0c0.045,0.764,0.133,1.585,0.136,2.406
		c0.032,7.9,0.105,15.8,0.035,23.699c-0.017,1.957,0.805,3.347,2.084,4.596c2.065,2.014,6.648,2.749,9.606-0.031
		c0.698-0.656,1.362-1.345,2.04-2.299c0-2.39-0.006-4.94,0.002-7.49c0.007-2.473,0.008-4.947,0.049-7.42
		c0.044-2.668,0.115-5.337,0.208-8.004c0.029-0.831,0.067-1.688,0.391-2.463c0.648-1.548,1.92-2.375,3.481-2.834
		c1.33-0.391,2.7-0.177,4.049-0.284c0.824-0.065,1.657-0.012,2.453-0.012c0.235,0.46,0.134,0.865,0.134,1.252
		c0,6.823,0.013,13.646-0.029,20.469c-0.015,2.465-0.028,4.944-0.47,7.38c-0.386,2.123-1.03,4.166-2.335,5.941
		c-1.437,1.954-3.36,3.25-5.57,4.178c-6.793,2.852-13.458,2.382-19.964-0.87c-3.638-1.818-5.684-4.87-6.382-8.852
		c-0.324-1.848-0.447-3.712-0.478-5.583c-0.042-2.512,0.02-5.029-0.102-7.537c-0.157-3.23-0.083-6.458-0.083-9.686
		C124.112,64.142,124.247,62.001,124.326,59.727z"/>
	<path style="fill:#06293D;" d="M317.048,100.053c-2.372,0.055-4.6-0.067-6.817-0.243c-1.672-0.133-3.207-1.768-3.543-3.429
		c-0.144-0.712-0.087-1.431-0.139-2.145c-0.307-4.219-0.198-8.447-0.279-12.671c-0.065-3.387-0.013-6.776-0.013-9.96
		c-1.601-2.425-3.482-3.916-6.232-4.137c-4.004-0.322-7.221,1.926-7.413,6.063c-0.387,8.373-0.153,16.751-0.23,25.126
		c-0.004,0.433-0.001,0.866-0.001,1.375c-3.567,0-7.065,0-10.731,0c-0.006-0.97-0.019-1.989-0.015-3.008
		c0.003-0.758,0.032-1.515,0.04-2.273c0.081-6.938,0.136-13.877,0.258-20.814c0.031-1.782,0.271-3.54,0.849-5.272
		c1.203-3.608,3.645-5.996,6.995-7.586c2.352-1.117,4.826-1.864,7.39-2.278c1.788-0.289,3.587-0.028,5.365,0.193
		c3.088,0.383,5.923,1.532,8.581,3.104c2.022,1.196,3.366,2.985,4.328,5.113c0.976,2.159,1.176,4.426,1.261,6.751
		c0.16,4.346,0.153,8.691,0.168,13.038c0.009,2.553-0.035,5.108,0.08,7.657C317.03,96.409,317.005,98.155,317.048,100.053z"/>
	<path style="fill:#04283C;" d="M319.963,47.925c2.033,0,3.99-0.056,5.944,0.015c2.141,0.078,4.193,2.167,4.428,4.275
		c0.204,1.831,0.168,3.665,0.208,5.499c0.013,0.588-0.039,1.186,0.151,1.89c2.078,0,4.133,0,6.289,0
		c-0.279,1.308-0.219,2.497-0.441,3.674c-0.424,2.25-2.246,3.363-3.829,3.565c-0.668,0.085-1.333,0.188-2.055,0.292
		c0,7.817,0,15.625,0,23.487c1.667,1.757,3.893,1.175,6.028,1.402c0,2.618,0,5.3,0,8.085c-1.41,0-2.799,0.038-4.186-0.008
		c-2.472-0.082-4.946-0.154-7.408-0.435c-2.741-0.314-4.847-3.265-4.868-5.306c-0.036-3.55-0.211-7.099-0.218-10.651
		c-0.017-8.341-0.062-16.682-0.102-25.022c-0.015-3.153-0.049-6.305-0.068-9.457C319.835,48.836,319.783,48.434,319.963,47.925z"/>
	<path style="fill:#0C6F97;" d="M27.348,45.514c-0.622-0.11-0.68-0.68-0.908-1.111c1.899-3.529,4.512-6.54,7.025-9.622
		c2.073-2.543,4.404-4.848,6.848-7.03c4.204-3.754,8.861-6.763,14.333-8.351c2.981-0.865,6.02-1.067,9.112-0.793
		c5.14,0.456,9.412,2.725,13.205,6.09c2.975,2.639,5.58,5.58,7.613,9.006c0.196,0.331,0.512,0.64,0.29,1.093
		c-0.326,0.236-0.677,0.154-1.03,0.079c-2.646-0.564-5.283-1.168-7.94-1.675c-2.15-0.411-4.317-0.728-6.507-0.889
		c-1.394-0.102-2.784-0.227-4.182-0.177c-5.671,0.206-11.281,0.745-16.642,2.821c-3.648,1.412-7.157,3.089-10.549,5.036
		c-2.871,1.648-5.638,3.46-8.441,5.215C28.838,45.666,28.157,45.885,27.348,45.514z"/>
	<path style="fill:#07293D;" d="M110.937,100.034c0-17.334,0-34.632,0-51.93c0.216-0.264,0.517-0.177,0.78-0.168
		c1.911,0.071,3.822-0.109,5.738,0.167c2.609,0.375,3.845,2.276,3.94,4.478c0.191,4.426,0.217,8.852,0.22,13.28
		c0.008,11.091,0.009,22.182,0.014,33.272c0,0.275,0,0.55,0,0.901C118.049,100.034,114.523,100.034,110.937,100.034z"/>
	<path style="fill:#06293D;" d="M253.039,99.867c-3.549,0.083-6.97,0.163-10.325,0.242c-0.361-0.242-0.267-0.545-0.267-0.808
		c-0.021-6.302-0.036-12.604-0.051-18.906c-0.007-3.248,0.366-6.426,1.628-9.463c1.809-4.357,4.778-7.55,9.184-9.369
		c3.789-1.564,7.745-2.048,11.965-1.942c0.048,3.669,0.014,7.306,0.027,11.046c-1.818,0-3.497-0.099-5.16,0.023
		c-2.544,0.187-4.714,1.125-5.958,3.554c-0.276,0.538-0.474,1.101-0.523,1.7c-0.098,1.192-0.216,2.386-0.235,3.58
		c-0.105,6.58-0.356,13.159-0.284,19.742C253.041,99.42,253.039,99.575,253.039,99.867z"/>
	<path style="fill:#06293D;" d="M278.758,100.113c-3.692-0.083-7.226-0.163-10.812-0.244c-0.405-13.429-0.168-26.772,0.179-40.052
		c0.319-0.348,0.66-0.222,0.96-0.22c1.794,0.012,3.594-0.088,5.373,0.256c2.092,0.404,3.971,2.561,4.079,4.712
		c0.201,3.988,0.168,7.975,0.183,11.963c0.028,7.42,0.027,14.839,0.038,22.259C278.759,99.18,278.758,99.573,278.758,100.113z"/>
	<path style="fill:#187198;" d="M231.605,104.777c0.298,4.976-0.11,9.9-0.135,14.895c-0.911,0.147-1.794,0.084-2.835-0.092
		c0.021-2.082-0.15-4.131-0.3-6.286c-0.581,0.639-0.755,1.412-1.117,2.075c-0.247,0.453-0.428,0.94-0.655,1.405
		c-0.355,0.727-0.991,1.019-1.756,1.036c-0.724,0.017-1.015-0.54-1.29-1.082c-0.522-1.029-1.035-2.062-1.557-3.091
		c-0.088-0.172-0.157-0.372-0.491-0.451c-0.204,2.159-0.012,4.313-0.08,6.521c-0.948,0-1.845,0-2.749,0
		c-0.252-0.275-0.125-0.609-0.136-0.911c-0.021-0.598,0-1.197-0.007-1.796c-0.045-3.666-0.093-7.333-0.138-10.999
		c-0.005-0.392-0.001-0.784-0.001-1.202c0.828-0.306,1.655,0.038,2.459-0.428c1.481,2.845,2.676,5.686,3.988,8.544
		c0.64-0.352,0.835-0.889,1.07-1.364c0.863-1.747,1.67-3.521,2.541-5.264C229.151,104.817,229.644,104.592,231.605,104.777z"/>
	<path style="fill:#21729A;" d="M335.566,119.893c-1.396,0.34-2.251-0.191-2.94-1.235c-1.294-1.961-2.638-3.889-3.978-5.82
		c-0.338-0.487-0.739-0.931-1.114-1.398c-0.51,0.33-0.355,0.818-0.363,1.224c-0.038,1.914-0.04,3.829-0.053,5.744
		c-0.003,0.395,0,0.79,0,1.253c-0.895,0.235-1.755,0.054-2.68,0.132c0-5.057,0-10.023,0-15.079c1.363-0.113,2.493,0.038,3.347,1.371
		c1.459,2.278,2.907,4.572,4.605,6.69c0.123,0.153,0.201,0.346,0.499,0.418c0.502-2.83,0.167-5.684,0.321-8.565
		c0.818-0.238,1.633-0.08,2.561-0.109C335.844,109.689,335.705,114.768,335.566,119.893z"/>
	<path style="fill:#0C6F97;" d="M259.777,119.962c0.057-5.065-0.115-10.032,0.044-14.89c0.265-0.361,0.539-0.4,0.825-0.4
		c1.951-0.002,3.896-0.037,5.847,0.215c2.273,0.293,4.02,2.724,4.075,4.404c0.064,1.952,0.111,3.907-0.02,5.856
		c-0.164,2.451-1.86,4.317-4.261,4.566C264.192,119.928,262.081,120.034,259.777,119.962z M262.562,107.549c0,3.282,0,6.414,0,9.56
		c0.987,0.134,1.919,0.123,2.813-0.006c1.592-0.231,2.468-1.01,2.539-2.521c0.075-1.592,0.066-3.193,0-4.786
		c-0.056-1.357-0.835-2.139-2.178-2.232C264.708,107.491,263.67,107.549,262.562,107.549z"/>
	<path style="fill:#21729A;" d="M243.54,113.567c0,1.241,0,2.373,0,3.609c2.356,0,4.654,0,7.008,0c0,0.883,0,1.663,0,2.523
		c-3.306,0-6.594,0-9.939,0c-0.233-4.958-0.332-9.882,0.043-14.98c3.256-0.031,6.495-0.302,9.794-0.182
		c0.296,0.981,0.121,1.918,0.136,2.954c-2.363,0-4.661,0-7.016,0c-0.151,1.194-0.102,2.286-0.036,3.471c2.001,0,3.945,0,5.906,0
		c0.375,0.876,0.172,1.69,0.168,2.607C247.556,113.567,245.578,113.567,243.54,113.567z"/>
	<path style="fill:#187198;" d="M345.239,119.939c-0.129-1.556-0.068-14.38,0.085-15.417c3.193,0.073,6.399,0.146,9.659,0.221
		c0,0.866,0,1.648,0,2.538c-2.292,0.098-4.581,0.196-6.91,0.296c0,1.112,0,2.166,0,3.374c1.958,0,3.848,0,5.773,0
		c0.239,0.918,0.074,1.698,0.143,2.62c-1.988,0-3.879,0-5.804,0c-0.224,1.232-0.134,2.337-0.177,3.566c2.296,0,4.55,0,6.905,0
		c-0.068,0.988-0.126,1.842-0.192,2.803C351.576,119.939,348.444,119.939,345.239,119.939z"/>
	<path style="fill:#187198;" d="M374.371,106.737c-0.165,0.804-0.668,1.334-1.405,1.772c-1.589-0.812-3.243-1.461-4.92-0.679
		c-0.29,0.26-0.325,0.457-0.377,0.65c-0.317,1.171,0.031,1.832,1.207,2.146c0.998,0.267,2.019,0.447,3.018,0.708
		c2.921,0.765,4.068,4.417,2.185,6.788c-0.98,1.233-2.296,1.628-3.759,1.808c-2.283,0.281-4.451-0.467-6.231-2.219
		c0.225-0.933,1.006-1.433,1.624-2.028c0.498,0.05,0.753,0.39,1.065,0.622c1.133,0.843,2.414,1.014,3.758,0.796
		c1.204-0.195,1.689-0.881,1.51-2.003c-0.096-0.601-0.353-1.046-1.018-1.157c-0.665-0.111-1.327-0.246-1.989-0.379
		c-0.429-0.086-0.861-0.165-1.28-0.284c-2.364-0.671-2.991-2.046-3.118-3.737c-0.143-1.894,0.775-3.605,2.663-4.371
		c2.272-0.922,4.366-0.461,6.371,0.764c0.168,0.102,0.321,0.241,0.452,0.388C374.23,106.439,374.289,106.595,374.371,106.737z"/>
	<path style="fill:#187198;" d="M303.045,109.616c-0.985,0.416-1.827,0.734-2.765,0.228c-0.225-0.446-0.385-0.942-0.723-1.346
		c-0.752-0.9-1.854-1.302-2.882-0.921c-1.036,0.384-1.582,1.221-1.618,2.301c-0.052,1.595-0.048,3.193-0.009,4.788
		c0.029,1.2,0.887,2.273,1.877,2.481c1.318,0.277,2.195-0.12,2.896-1.335c0.177-0.307,0.305-0.643,0.447-0.948
		c1.118-0.4,1.547-0.4,2.654-0.006c-0.074,3.532-3.85,6.069-7.114,4.778c-0.185-0.073-0.364-0.164-0.548-0.241
		c-1.97-0.822-2.981-2.313-3.075-4.429c-0.08-1.795-0.141-3.594-0.001-5.385c0.174-2.222,1.309-3.865,3.424-4.61
		c2.213-0.78,4.299-0.342,5.944,1.364C302.371,107.183,302.9,108.284,303.045,109.616z"/>
	<path style="fill:#112D41;" d="M278.707,56.191c-3.704,0-7.207,0-10.768,0c-0.452-2.765-0.113-5.475,0.176-8.283
		c2.114,0.098,4.152-0.175,6.167,0.169c2.24,0.383,3.648,1.763,4.078,3.968C278.616,53.355,278.594,54.72,278.707,56.191z"/>
	<path style="fill:#187198;" d="M282.708,119.948c-0.907,0-1.737,0-2.665,0c0-5.076,0-10.114,0-15.21c0.864,0,1.727,0,2.585,0
		C282.855,105.588,282.926,118.123,282.708,119.948z"/>
	<path style="fill:#187198;" d="M312.423,104.838c0.838-0.277,1.612-0.141,2.443-0.1c0,5.094,0,10.102,0,15.179
		c-0.816,0-1.598,0-2.388,0C312.231,119.035,312.167,106.532,312.423,104.838z"/>
	<path style="fill:#112D41;" d="M348.751,52.389c0.659-0.667,0.925-1.488,1.443-2.134c0.452-0.563,0.898-1.163,1.847-0.805
		c0.288,0.713,0.252,1.505,0.263,2.294c0.018,1.197-0.055,2.389-0.181,3.578c-0.098,0.925-0.17,0.962-1.267,0.879
		c-0.447-0.693,0.16-1.671-0.532-2.318c-0.568,0.135-0.644,0.747-1.15,0.985c-0.969,0.189-1.499-0.596-2.191-1.249
		c-0.365,0.864,0.118,1.802-0.396,2.536c-0.445,0.194-0.857,0.281-1.293,0.192c-0.353-2.206-0.19-6.252,0.343-7.157
		C347.279,49.617,347.568,51.385,348.751,52.389z"/>
	<path style="fill:#112D41;" d="M344.056,49.61c0.197,0.531,0.195,0.792,0.034,1.029c-0.358,0.334-0.873,0.145-1.282,0.46
		c-0.234,0.547-0.273,1.174-0.275,1.809c-0.002,0.595,0.004,1.192-0.025,1.786c-0.067,1.35-0.342,1.588-1.814,1.572
		c-0.206-1.709,0.12-3.459-0.186-5.018c-0.406-0.489-0.883-0.27-1.218-0.493c-0.362-0.757-0.307-1.102,0.276-1.125
		C341.06,49.571,342.559,49.61,344.056,49.61z"/>
	<path style="fill:#0C6F97;" d="M13.459,56.454c1.999,2.542,4.048,4.878,5.777,7.506c-0.265,1.335-0.75,2.596-1.158,3.876
		c-1.122,3.519-2.222,7.044-3.039,10.649c-0.66,2.914-1.207,5.841-1.132,8.854c0.045,1.794,0.068,3.592,0.006,5.385
		c-0.179,5.156,1.049,10.005,3.054,14.708c1.447,3.393,3.476,6.328,6.33,8.708c1.727,1.44,3.734,2.241,5.806,2.972
		c0.529,0.187,1.185,0.191,1.558,0.784c-4.001,0.506-7.873,0.122-11.705-0.944c-2.463-0.685-4.884-1.437-7.053-2.837
		c-3.269-2.11-5.949-4.764-7.886-8.175c-1.926-3.39-3.279-6.965-3.883-10.817c-0.074-0.47-0.094-0.953-0.098-1.43
		C0.015,93.499,0.002,91.305,0,89.111c-0.005-5.648,1.275-11.036,3.396-16.235c2.332-5.715,5.481-10.953,9.402-15.726
		C12.973,56.937,13.178,56.749,13.459,56.454z"/>
</g>
</svg>
