<?xml version="1.0" encoding="iso-8859-1"?>
<!-- Generator: Adobe Illustrator 27.0.0, SVG Export Plug-In . SVG Version: 6.00 Build 0)  -->
<svg version="1.1" id="Layer_1" xmlns="http://www.w3.org/2000/svg" xmlns:xlink="http://www.w3.org/1999/xlink" x="0px" y="0px"
	 viewBox="0 0 1499 511" style="enable-background:new 0 0 1499 511;" xml:space="preserve">
<g>
	<path style="fill:#1E4171;" d="M311.079,0.911c17.005,1.395,33.179,5.433,47.14,15.763c13.082,9.68,20.076,22.776,20.734,39.117
		c0.365,9.063-0.727,17.924-4.004,26.443c-6.46,16.794-18.724,27.498-35.338,33.604c-5.488,2.017-11.208,3.09-16.976,3.93
		c-0.926,0.135-1.999-0.056-2.706,1.147c0.756,2.318,2.866,1.808,4.479,1.929c9.026,0.679,17.733,2.706,26.108,6.092
		c16.269,6.579,28.729,17.276,35.541,33.76c3.806,9.211,4.811,18.87,4.117,28.825c-0.708,10.16-3.503,19.611-8.575,28.364
		c-7.617,13.144-19.02,22.045-32.576,28.425c-12.226,5.755-25.116,8.728-38.614,8.761c-37.319,0.092-74.639,0.074-111.958,0.09
		c-0.491,0-0.982-0.127-1.663-0.221c-0.897-3.046-0.275-6.144-0.475-9.592c9.22,0,18.143,0,26.964,0
		c1.051-3.856,1.404-229.293,0.434-238.233c-8.892,0-17.831,0-26.746,0C195.589,5.953,196.989,2.848,196,0c0.667,0,1.333,0,2,0
		c1.161,1.9,3.015,0.934,4.516,0.942c14.77,0.078,29.541,0.061,44.312,0.044c18.42-0.021,36.839-0.067,55.259-0.102
		C305.084,0.893,308.081,0.902,311.079,0.911z M264.895,248.305c10.511-0.061,20.834,0.751,31.043-0.434
		c19.705-2.287,34.824-11.882,43.491-30.108c7.881-16.574,9.028-34.021,4.146-51.595c-4.683-16.858-15.488-28.788-31.588-35.754
		c-6.61-2.86-13.602-4.355-20.756-5.019c-8.775-0.814-17.551-0.21-26.335-0.438C264.895,166.3,264.895,207.047,264.895,248.305z
		 M264.954,115.984c12.502,0.24,24.616,0.529,36.472-2.934c17.675-5.164,29.574-16.049,34.194-34.217
		c1.614-6.349,1.989-12.835,1.687-19.341c-0.918-19.803-10.535-33.943-28.303-42.464c-13.921-6.676-28.848-7.049-43.833-6.68
		C264.542,14.526,264.359,108.519,264.954,115.984z"/>
	<path style="fill:#1D4071;" d="M0,263c0.757-0.221,0.899-0.811,0.999-1.503c3.272-22.688,13.638-41.175,32.655-54.347
		c10.561-7.315,22.36-11.51,35.125-13.236c16.684-2.257,32.849-0.195,48.658,5.224c6.635,2.274,12.648,5.917,18.867,9.096
		c2.959,1.512,5.923,3.013,8.887,4.515c2.764,1.401,5.714,1.603,8.755,1.499c3.855-0.131,6.686-1.852,8.505-5.188
		c1.026-1.882,1.868-3.864,2.838-5.895c3.442,0,6.894,0,10.617,0c0,29.744,0,59.323,0,89.135c-3.899,0.682-7.829,0.345-12,0.188
		c-0.962-4.621-1.828-9.16-2.858-13.662c-3.26-14.251-8.612-27.655-17.097-39.611c-12.48-17.584-28.964-29.027-50.646-32.404
		c-15.853-2.469-31.021-0.723-44.662,7.987c-15.326,9.787-23.314,24.287-24.506,42.386c-1.344,20.405,7.63,35.555,24.297,46.659
		c11.386,7.586,24.08,11.91,37.232,15.142c13.704,3.368,27.635,5.793,41.1,10.16c11.796,3.826,22.874,8.987,33.011,16.202
		c17.02,12.113,27.157,28.671,30.871,48.96c4.615,25.206,2.402,49.755-9.674,72.797c-7.842,14.964-19.781,25.792-35.07,32.858
		c-15.078,6.968-31.061,9.348-47.571,9.227c-15.993-0.117-31.373-3.15-46.338-8.654c-5.772-2.123-11.619-4.042-17.437-6.037
		c-3.184-1.092-6.479-1.532-9.833-1.453c-6.124,0.144-9.434,2.756-11.308,8.657c-0.391,1.232-0.173,2.664-1.202,3.831
		c-3.427,0-6.891,0-10.724,0c0-35.931,0-71.825,0-108.056c3.435-0.709,7.147-0.272,10.971-0.285
		c1.242,6.877,2.009,13.456,3.347,19.947c3.613,17.521,10.158,33.799,20.936,48.09c12.251,16.244,28.265,27.281,48.399,31.246
		c20.865,4.108,40.64,0.47,57.999-11.973c14.123-10.123,22.007-24.51,22.799-41.985c1.248-27.548-12.312-46.377-36.049-58.834
		c-9.073-4.761-18.872-7.216-28.699-9.783c-15.427-4.03-30.968-7.776-45.742-13.952c-14.771-6.174-28.147-14.366-38.255-27.139
		c-9.466-11.962-14.242-25.783-16.179-40.738C0.88,291,1.413,289.664,0,289C0,280.333,0,271.667,0,263z"/>
	<path style="fill:#1E4171;" d="M1499,446c-1.723,1.434-1.328,3.648-1.763,5.455c-3.98,16.51-11.895,30.796-24.695,41.915
		c-11.067,9.613-24.038,15.28-39.015,15.726c-15.194,0.452-29.92-1.541-43.675-8.301c-18.591-9.137-30.701-24.112-37.653-43.347
		c-6.552-18.129-8.336-36.842-6.36-56.018c1.726-16.748,7.135-32.149,16.624-45.95c11.228-16.329,26.412-27.487,45.643-32.859
		c20.946-5.85,41.463-4.943,61.391,4.107c9.619,4.369,17.51,10.905,23.139,19.906c5.035,8.053,6.229,16.742,3.309,25.845
		c-4.589,14.309-22.109,19.33-33.124,9.542c-5.723-5.085-7.302-13.265-3.704-19.996c1.483-2.775,3.133-5.44,5.344-7.79
		c3.238-3.439,3.427-7.297,1.118-11.468c-1.676-3.027-4.266-5.139-7.135-6.82c-5.224-3.063-10.831-4.969-16.995-5.166
		c-7.373-0.235-14.682-0.1-21.597,2.831c-12.332,5.229-19.674,14.946-23.952,27.25c-3.299,9.49-4.949,19.273-5.053,29.35
		c-0.203,19.829-0.814,39.677,0.244,59.474c0.662,12.394,3.777,24.273,12.574,33.948c4.696,5.165,10.553,8.173,17.044,9.793
		c16.748,4.18,32.434,1.799,46.282-9c8.164-6.367,13.966-14.629,18.097-24.114c2.125-4.878,3.512-9.984,4.813-15.057
		c3.164-0.79,6.075-1.41,9.098-1.258C1499,444.667,1499,445.333,1499,446z"/>
	<path style="fill:#556189;" d="M302.086,0.883c-18.42,0.035-36.839,0.081-55.259,0.102c-14.771,0.017-29.542,0.034-44.312-0.044
		C201.015,0.934,199.161,1.9,198,0c34.667,0,69.333,0,104,0C301.999,0.297,302.028,0.592,302.086,0.883z"/>
	<path style="fill:#A1A3BB;" d="M951,511c0.057-0.299,0.035-0.591-0.066-0.878c4.714,0.009,9.429,0.018,14.143,0.026
		c-0.069,0.28-0.095,0.564-0.077,0.852C960.333,511,955.667,511,951,511z"/>
	<path style="fill:#8084A4;" d="M302.086,0.883C302.028,0.592,301.999,0.297,302,0c3,0,6,0,9,0
		c-0.139,0.318-0.113,0.622,0.079,0.911C308.081,0.902,305.084,0.893,302.086,0.883z"/>
	<path style="fill:#1C4070;" d="M1275.66,493.199c0-52.051,0-103.318,0-154.891c-23.846,0-47.556,0-71.463,0
		c0,51.409,0,102.689,0,154.395c9.297,0,18.704,0,28.24,0c1.077,3.433,0.332,6.554,0.577,9.963c-33.895,0-67.628,0-101.714,0
		c-0.697-2.86-0.144-5.963-0.304-9.606c11.722,0,23.268,0,34.889,0c0-52.305,0-104.042,0-156.169c-11.991,0-23.75,0-35.782,0
		c0-3.613,0-6.842,0-10.464c11.897,0,23.666,0,35.124,0c1.299-1.539,0.869-2.929,0.879-4.211c0.07-9.499-0.163-19.007,0.172-28.495
		c0.627-17.742,3.597-35.04,10.738-51.458c6.78-15.59,16.358-29.03,30.488-38.733c10.25-7.038,21.563-11.706,33.967-13.632
		c8.587-1.333,17.189-2.218,25.868-1.786c13.034,0.649,25.336,3.909,36.044,11.629c8.463,6.101,14.647,14.026,17.004,24.443
		c2.026,8.956,0.157,17.185-5.215,24.581c-6.983,9.614-25.48,12.954-34.965-0.258c-5.793-8.069-3.404-20.18,5.027-25.402
		c1.98-1.226,4.035-2.365,5.868-3.787c3.846-2.983,4.346-6.23,1.904-10.504c-1.738-3.042-4.557-4.761-7.526-6.325
		c-4.967-2.616-10.419-3.59-15.87-4.016c-13.171-1.031-25.904,0.685-37.596,7.393c-9.978,5.724-16.51,14.353-20.469,24.957
		c-3.449,9.238-5.285,18.782-5.784,28.718c-1.063,21.158-0.28,42.314-0.573,63.468c-0.014,0.975-0.225,2.009,0.494,2.961
		c1.514,0.717,3.194,0.35,4.816,0.352c25.832,0.026,51.663,0.041,77.495-0.007c3.66-0.007,7.347-0.134,10.972-0.592
		c6.323-0.799,12.355-2.553,17.341-7.003c0.263,0.941,0.038-0.068,0.539,0.37c0.11,0.096,0.15,0.301,0.171,0.462
		c0.065,0.491,0.149,0.985,0.15,1.478c0.029,56.996,0.051,113.991,0.085,170.987c0,0.134,0.167,0.268,0.531,0.817
		c9.965,0,20.22,0,30.66,0c0.822,3.446,0.213,6.529,0.474,9.882c-33.286,0-66.207,0-99.411,0c-0.851-2.944-0.112-6.04-0.459-9.518
		C1257.983,493.199,1266.577,493.199,1275.66,493.199z"/>
	<path style="fill:#1D4070;" d="M694.821,337.903c-10.414,0-20.512,0-30.792,0c0-3.429,0-6.503,0-9.613
		c1.745-0.802,3.422-0.444,5.035-0.448c12.663-0.034,25.327-0.066,37.99,0.009c4.021,0.024,7.992-0.425,11.943-0.961
		c5.192-0.705,9.833-2.776,14.004-7.566c0,12.146,0,23.334,0,34.648c2.418-0.181,3.059-1.935,4.095-3.105
		c7.214-8.15,15.156-15.455,24.463-21.169c15.866-9.741,32.946-12.791,51.239-9.303c7.449,1.421,14.411,4,20.743,8.174
		c11.371,7.494,17.382,18.498,20.358,31.434c1.241,5.395,1.279,10.898,1.279,16.398c-0.003,37.324-0.001,74.648-0.001,111.972
		c0,1.791,0,3.582,0,5.732c10.745,0,21.002,0,31.474,0c0,2.971,0,5.573,0,8.539c-33.343,0-66.733,0-100.539,0
		c-0.248-1.355-0.596-2.93-0.811-4.523c-0.199-1.475-0.255-2.97-0.414-4.953c9.899,0,19.64,0,28.995,0
		c1.382-1.634,0.917-3.024,0.918-4.294c0.028-40.99,0.037-81.98,0.003-122.97c-0.004-4.489-0.553-8.922-1.511-13.344
		c-2.875-13.264-14.014-19.043-25.937-18.257c-13.194,0.871-23.667,7.238-33.154,15.713c-6.618,5.911-11.946,12.966-17.21,20.066
		c-0.954,1.287-1.348,2.576-1.346,4.141c0.037,39.49,0.048,78.979,0.078,118.469c0,0.296,0.192,0.592,0.427,1.272
		c9.617,0,19.38,0,29.387,0c0.581,3.084,0.299,5.811,0.267,8.79c-34.046,0-67.777,0-101.744,0c0-3.197,0-6.254,0-9.667
		c10.266,0,20.364,0,30.763,0C694.821,441.349,694.821,389.966,694.821,337.903z"/>
	<path style="fill:#1E4171;" d="M1023.819,124.865c2.967-3.106,5.873-6.273,8.911-9.306c10.925-10.907,24.026-17.928,39.241-20.233
		c10.109-1.531,20.331-0.703,29.942,3.295c16.034,6.671,23.893,19.398,26.023,36.132c0.778,6.118,0.757,12.28,0.748,18.443
		c-0.043,29.321-0.019,58.643-0.019,87.964c0,1.8,0,3.599,0,5.779c7.08,0,13.845,0,20.908,0c0,3.437,0,6.502,0,9.909
		c-26.554,0-53.123,0-79.977,0c-1.108-2.82-0.166-5.966-0.528-9.591c7.186,0,14.239,0,21.032,0c1.13-2.105,0.695-3.798,0.696-5.414
		c0.03-33.653,0.035-67.306,0.009-100.959c-0.004-4.491-0.3-8.963-1.649-13.305c-2.612-8.404-9.454-13.894-18.18-14.735
		c-7.938-0.765-15.17,1.188-21.851,5.373c-9.818,6.15-17.304,14.461-22.681,24.703c-0.867,1.651-1.297,3.333-1.294,5.239
		c0.044,32.32,0.033,64.64,0.046,96.96c0,0.474,0.146,0.947,0.286,1.796c8.61,0,17.191,0,26.001,0
		c0.759,3.422,0.188,6.512,0.44,9.924c-31.212,0-62.101,0-93.193,0c-0.79-2.977-0.245-6.074-0.419-9.654c9.729,0,19.129,0,28.771,0
		c0-44.558,0-88.622,0-133.159c-9.408,0-18.823,0-28.488,0c0-3.711,0-6.959,0-10.306c1.377-0.742,2.891-0.349,4.335-0.367
		c13.658-0.171,27.32,0.278,40.976-0.324c6.803-0.3,13.129-1.873,18.857-6.85c0,9.801,0,19.141,0,28.481
		C1023.114,124.729,1023.467,124.797,1023.819,124.865z"/>
	<path style="fill:#1E4171;" d="M637.256,444.042c3.911,0,7.199,0,10.479,0c0.845,2.588-0.181,4.808-0.799,6.945
		c-4.91,16.983-12.918,32.053-27.045,43.323c-11.288,9.005-24.118,13.836-38.497,14.752c-16.959,1.08-32.761-2.551-47.14-11.69
		c-16.398-10.423-27.103-25.238-33.277-43.548c-5.183-15.373-7.093-31.213-5.755-47.248c2.208-26.456,11.8-49.825,31.933-67.845
		c17.598-15.751,38.323-21.315,61.643-17.219c16.572,2.911,30.958,9.896,42.522,22.304c14.229,15.267,21.085,33.205,19.744,54.051
		c-1.932,2.542-4.573,1.995-7.003,1.996c-33,0.022-65.999,0.015-98.999,0.015c-1.815,0-3.631,0-5.277,0
		c-1.237,1.333-0.752,2.734-0.756,4.003c-0.04,12.166-0.062,24.333-0.011,36.499c0.04,9.535,0.994,18.957,4.408,27.953
		c6.324,16.668,18.522,25.457,36.219,26.814c21.118,1.619,35.974-8.487,47.081-25.34c4.512-6.846,7.666-14.365,9.471-22.41
		C636.444,446.288,636.878,445.221,637.256,444.042z M613.232,387.113c-0.204-8.041,0.449-16.003-0.677-23.938
		c-0.773-5.448-2.145-10.752-4.684-15.686c-6.013-11.685-15.608-18.04-28.72-18.32c-13.256-0.283-23.374,5.504-29.948,17.168
		c-3.232,5.734-4.918,11.955-5.746,18.439c-0.989,7.748-0.352,15.487-0.571,23.187C560.011,388.926,608.405,388.486,613.232,387.113
		z"/>
	<path style="fill:#1D4171;" d="M406.874,173.088c0.679-22.051,11.85-46.13,36.276-62.939
		c30.695-21.123,71.679-16.101,97.103,11.635c18.571,20.26,25.682,44.368,21.708,71.43c-4.134,28.158-18.614,49.644-44.161,62.634
		c-33.571,17.07-74.098,5.74-95.945-26.238C411.716,214.768,406.729,198.32,406.874,173.088z M522.756,177.411
		c0.31-8.114-0.422-17.92-0.904-27.72c-0.367-7.463-1.854-14.8-4.734-21.779c-4.467-10.828-12.468-17.474-23.93-19.611
		c-4.872-0.908-9.871-0.916-14.89-0.502c-14.242,1.176-23.743,8.378-28.757,21.698c-3.083,8.189-4.217,16.737-4.492,25.381
		c-0.513,16.141-0.568,32.296,0.011,48.435c0.334,9.31,1.564,18.545,5.073,27.297c3.918,9.77,10.479,16.824,20.813,19.905
		c5.826,1.736,11.823,1.988,17.787,1.424c12.957-1.225,22.412-7.651,27.707-19.718c2.343-5.339,3.829-10.953,4.576-16.733
		C522.576,203.417,522.758,191.275,522.756,177.411z"/>
	<path style="fill:#1D4171;" d="M804.775,180.613c0.405-27.331,10.449-50.252,32.038-67.378
		c30.391-24.108,73.557-20.82,100.503,7.599c18.903,19.936,26.261,43.91,22.812,71.077c-3.092,24.355-14.458,44.128-34.65,58.214
		c-34.859,24.318-81.44,15.028-105.776-20.643C811.225,217.054,804.452,199.267,804.775,180.613z M918.994,178.46
		c0-7.824,0.222-15.655-0.058-23.469c-0.322-8.977-1.49-17.861-4.816-26.322c-4.108-10.449-11.301-17.419-22.44-19.936
		c-7.23-1.633-14.521-1.691-21.75-0.221c-11.312,2.299-18.872,9.113-23.203,19.76c-2.659,6.536-4.067,13.375-4.538,20.309
		c-1.378,20.276-1.413,40.585-0.004,60.863c0.518,7.453,1.994,14.805,4.898,21.766c3.988,9.559,10.6,16.363,20.73,19.336
		c5.824,1.709,11.831,1.978,17.797,1.394c12.745-1.247,22.11-7.561,27.411-19.394c2.803-6.256,4.254-12.886,5.088-19.682
		C919.511,201.424,919.106,189.935,918.994,178.46z"/>
	<path style="fill:#1E4171;" d="M359.212,444.058c3.537,0,6.485,0,9.824,0c-4.359,23.101-14.254,42.367-34.326,55.217
		c-9.838,6.299-20.613,9.794-32.481,9.889c-15.716,0.126-30.778-2.25-44.782-9.848c-14.262-7.739-24.702-19.063-31.494-33.668
		c-6.157-13.24-9.262-27.222-10.292-41.859c-1.093-15.535,0.57-30.608,5.549-45.229c8.045-23.624,22.948-41.546,45.963-51.869
		c15.162-6.8,31.169-9.092,47.771-6.95c13.804,1.781,26.579,6.071,37.456,14.972c7.657,6.266,13.455,13.935,15.029,23.985
		c1.834,11.709-3.246,24.426-15.735,27.644c-11.623,2.995-21.988-2.613-24.72-12.01c-1.697-5.837-0.802-11.174,2.899-16.008
		c0.707-0.923,1.413-1.898,2.305-2.62c5.606-4.54,5.247-11.625-1.147-17.164c-4.632-4.013-10.184-6.38-16.16-7.308
		c-5.927-0.921-11.97-0.938-17.913,0.152c-16.867,3.092-26.678,14.071-32.015,29.536c-3.261,9.448-5.027,19.244-5.113,29.339
		c-0.162,18.991-0.433,37.982,0.177,56.967c0.192,5.986,1.118,11.889,2.77,17.684c6.197,21.738,20.438,30.383,41.856,30.334
		c20.308-0.047,34.946-10.119,45.362-27.046C354.572,460.762,357.224,452.589,359.212,444.058z"/>
	<path style="fill:#1C4070;" d="M965.077,510.148c-4.714-0.009-9.429-0.018-14.143-0.026c-6.658-0.634-13.211-1.871-19.237-4.832
		c-12.507-6.145-18.573-16.643-19.681-30.249c-0.243-2.982-0.183-5.993-0.184-8.991c-0.01-40.648-0.007-81.295-0.007-121.943
		c0-1.811,0-3.621,0-5.915c-11.287,0-22.35,0-33.702,0c0-3.539,0-6.61,0-10.034c3.909-0.821,8.013-0.853,12.108-1
		c9.785-0.352,19.136-2.502,27.714-7.301c8.431-4.717,14.247-11.884,18.114-20.643c2.892-6.552,5.281-13.277,6.291-20.425
		c0.159-1.129,0.602-2.218,0.966-3.51c2.768-0.528,5.535-0.236,8.784-0.223c0,17.632,0,35.01,0,52.747c15.73,0,30.984,0,46.442,0
		c0.583,3.429,0.248,6.52,0.312,10.013c-15.531,0-30.782,0-45.643,0c-1.518,1.505-1.012,2.917-1.013,4.18
		c-0.028,43.48-0.018,86.959-0.031,130.439c-0.001,3.175,0.272,6.315,0.76,9.449c1.746,11.21,8.749,15.405,19.458,14.692
		c9.852-0.655,16.952-6.214,22.437-14.078c1.234-1.769,2.363-3.61,3.697-5.658c2.889,1.04,5.081,3.012,7.676,4.709
		C998.159,499.46,984.345,508.704,965.077,510.148z"/>
	<path style="fill:#1E4171;" d="M799.877,113.943c-14.067,0-27.655,0-41.102,0c-0.993,1.934-0.572,3.624-0.573,5.243
		c-0.029,35.659-0.014,71.319-0.037,106.978c-0.002,3.176,0.162,6.336,0.729,9.449c1.309,7.192,6.367,11.669,13.64,12.464
		c10.623,1.162,18.816-2.807,24.875-11.473c0.477-0.683,0.947-1.371,1.454-2.031c0.197-0.257,0.486-0.444,0.866-0.781
		c2.089,3.031,3.385,6.407,4.928,9.695c-7.89,11.898-18.567,18.943-32.737,20.641c-10.559,1.266-20.833,0.865-30.969-2.87
		c-11.431-4.212-17.796-12.291-19.954-24.053c-0.483-2.632-0.681-5.259-0.68-7.933c0.025-36.493,0.023-72.985,0-109.478
		c-0.001-1.793,0.318-3.624-0.419-5.756c-8.352,0-16.786,0-25.474,0c-0.758-3.576-0.363-6.841-0.302-10.601
		c6.039,0.034,11.903-0.757,17.682-2.285c13.139-3.473,22.677-11.488,29.404-23.05c4.814-8.274,7.412-17.373,9.274-26.89
		c2.38-0.731,4.678-0.27,7.646-0.355c0.017,5.838,0.04,11.591,0.048,17.344c0.008,5.666,0.002,11.331,0.002,16.997
		c0,5.812,0,11.624,0,17.87c13.845,0,27.407,0,40.65,0c1.638,1.846,0.9,3.581,1.019,5.165
		C799.974,109.881,799.877,111.546,799.877,113.943z"/>
	<path style="fill:#1E4171;" d="M590.36,254.134c-2.525,1.691-2.251,4.585-3.549,6.743c-2.395,0-4.709,0-7.554,0
		c-0.449-18.725-0.897-37.419-1.35-56.334c3.188,0,5.801,0,8.68,0c1.658,3.584,1.328,7.685,2.441,11.463
		c3.281,11.131,8.482,21.057,18.183,27.866c13.421,9.421,27.996,11.194,43.014,4.525c11.234-4.989,16.278-14.419,15.761-26.561
		c-0.504-11.855-6.817-19.761-17.653-24.294c-6.867-2.872-14.183-3.534-21.428-4.409c-9.238-1.116-17.94-3.93-25.898-8.524
		c-11.799-6.812-18.496-17.464-20.896-30.774c-1.617-8.965-1.264-17.829,1.634-26.603c5.611-16.986,17.573-26.555,34.699-30.116
		c11.752-2.444,23.16-0.901,34.209,3.65c2.46,1.013,4.902,2.084,7.41,2.967c5.832,2.055,7.644,1.063,9.425-5.139
		c2.2-0.529,4.492-0.177,7.176-0.219c1.251,15.025,1.237,29.943,1.462,45.036c-2.373,1.052-4.792,0.506-7.377,0.437
		c-1.388-4.708-2.602-9.355-4.635-13.732c-6.203-13.351-16.523-20.795-31.212-22.339c-9.424-0.99-18.191,0.403-26.083,5.961
		c-10.903,7.678-12.031,22.447-6.79,30.67c3.553,5.574,9.063,8.171,14.936,10.2c7.434,2.567,15.252,3.293,22.979,4.417
		c8.066,1.173,16.071,2.436,23.563,5.996c14.773,7.02,23.554,18.496,26.514,34.559c2.112,11.458,0.96,22.66-3.286,33.361
		c-6.472,16.312-18.912,25.711-35.976,29.059c-11.584,2.273-23.142,2.207-34.61-0.971c-4.841-1.341-9.269-3.662-13.89-5.523
		C596.99,254.191,593.697,253.049,590.36,254.134z"/>
	<path style="fill:#1C4070;" d="M455.765,493.121c9.232,0,17.656,0,26.239,0c0,3.318,0,6.27,0,9.552c-33.35,0-66.731,0-100.359,0
		c-0.55-3.048-0.269-6.122-0.218-9.673c11.401,0,22.476,0,33.907,0c-0.45-52.187-0.181-103.901-1.429-156.026
		c-8.529,0-16.936,0-25.621,0c0-3.65,0-6.886,0-10.132c1.616-0.933,3.312-0.454,4.929-0.478c14.151-0.216,28.313,0.422,42.455-0.389
		c7.267-0.417,14.172-2.008,20.096-8.053C455.765,376.549,455.765,434.473,455.765,493.121z"/>
	<path style="fill:#1C4070;" d="M1047.508,336.823c-9.508,0-18.775,0-28.27,0c0-3.594,0-6.825,0-10.051
		c1.814-0.737,3.49-0.406,5.118-0.41c12.164-0.032,24.33,0.119,36.491-0.063c9.499-0.142,19.063-0.415,27.139-8.224
		c0,58.695,0,116.423,0,174.739c8.88,0.426,17.471-0.001,26.201,0.263c0.883,3.174,0.312,6.263,0.476,9.631
		c-33.726,0-67.101,0-100.657,0c0-3.134,0-6.087,0-9.495c11.02,0,22.104,0,33.502,0
		C1047.508,441.036,1047.508,389.309,1047.508,336.823z"/>
</g>
</svg>
