<?xml version="1.0" encoding="iso-8859-1"?>
<!-- Generator: Adobe Illustrator 27.0.0, SVG Export Plug-In . SVG Version: 6.00 Build 0)  -->
<svg version="1.1" id="Layer_1" xmlns="http://www.w3.org/2000/svg" xmlns:xlink="http://www.w3.org/1999/xlink" x="0px" y="0px"
	 viewBox="0 0 1496 525" style="enable-background:new 0 0 1496 525;" xml:space="preserve">
<g>
	<path style="fill:#0D4164;" d="M8,0c0.344,1.034,1.243,0.927,2.04,0.951c2.498,0.075,4.997,0.161,7.495,0.161
		C93.532,1.121,169.53,1.273,245.525,0.98c13.989-0.054,27.472,2.192,40.889,5.399c9.873,2.36,19.326,6.036,28.167,11.121
		c19.979,11.491,31.715,28.877,36.337,51.228c6.704,32.42-4.164,58.486-29.041,79.37c-11.846,9.945-25.386,16.979-39.607,22.813
		c-1.982,0.813-3.982,1.582-6.859,2.722c7.241,1.588,13.652,2.815,19.971,4.413c17.43,4.407,33.607,11.552,47.795,22.759
		c18.188,14.367,29.497,33.141,34.828,55.548c7.78,32.703,1.364,62.319-19.906,88.496c-9.926,12.215-22.49,21.091-36.366,28.326
		c-17.808,9.285-36.454,16.104-56.287,19.375c-25.688,4.237-51.088,2.73-75.859-5.394c-23.317-7.647-36.09-24.909-37.729-49.268
		c-0.661-9.823,0.171-19.593,0.156-29.389c-0.09-61.161-0.148-122.323-0.17-183.484c-0.001-2.368-0.34-4.662-0.896-6.906
		c-1.043-4.209-4.423-6.78-8.703-6.911c-4.354-0.134-7.745,2.176-9.274,6.195c-1.038,2.727-0.971,5.549-0.971,8.382
		c0.004,58.997,0.003,117.995,0.003,176.992c0,10.5-0.178,21.003,0.045,31.498c0.282,13.343,3.316,25.973,10.575,37.4
		c4.346,6.841,9.899,12.506,16.299,17.396c1.306,0.998,2.763,1.817,3.66,3.028c0.003,1.008-0.643,0.897-1.004,0.836
		c-11.869-1.984-23.336-5.138-33.736-11.475c-15.904-9.692-24.037-23.885-24.721-42.425c-0.086-2.33-0.116-4.664-0.116-6.996
		c-0.005-69.497-0.002-138.994-0.012-208.491c0-1.981,0.131-3.941-0.638-5.904c-1.682-4.29-5.107-6.697-9.582-6.434
		c-4.291,0.252-7.464,2.822-8.5,7.163c-0.381,1.595-0.375,3.305-0.376,4.963c-0.017,71.664,0.084,143.327-0.1,214.99
		c-0.035,13.758,3.582,25.878,12.454,36.426c2.1,2.497,3.925,5.226,6.234,8.33c-5.819-0.092-10.405-2.082-14.878-4.13
		c-16.688-7.64-28.158-19.811-32.034-38.186c-0.881-4.178-1.444-8.479-0.796-12.812c0.146-0.979,0.034-1.997,0.035-2.997
		c0.063-43.496,0.161-86.991,0.176-130.487c0.009-26.163-0.174-52.325-0.115-78.488c0.01-4.36-1.172-7.395-5.573-8.797
		c-5.054-1.61-8.329-7.04-7.09-13.834c1.127-6.177,5.622-10.14,11.611-10.51c1.162-0.072,2.333-0.02,3.499-0.02
		c40.165-0.001,80.33,0,120.495,0c0.833,0,1.669,0.042,2.5-0.006c10.245-0.588,14.477,9.198,12.427,17.204
		c-0.851,3.321-3.112,5.985-6.537,7.055c-4.189,1.308-5.41,3.944-5.403,8.246c0.115,68.83,0.089,137.661,0.063,206.491
		c-0.002,5.031,0.749,9.916,1.965,14.782c4.005,16.03,14.197,25.339,30.538,27.159c13.918,1.55,27.578-0.14,40.5-5.976
		c13.626-6.154,23.657-16.192,29.7-29.696c11.622-25.972,13.264-52.779,3.668-79.652c-9.685-27.12-29.66-42.993-57.442-49.388
		c-9.617-2.214-19.475-2.377-29.261-2.727c-5.706-0.204-9.33-2.125-9.216-9.538c0.061-3.991-0.188-7.996,0.054-11.973
		c0.326-5.363,1.756-6.767,7.073-8.081c4.726-1.168,9.581-1.04,14.367-1.321c28.708-1.685,53.896-22.278,60.145-54.192
		c2.725-13.916,1.674-27.85-1.843-41.548c-5.066-19.731-18.122-31.241-37.695-35.484c-9.607-2.082-19.349-2.906-29.234-1.362
		c-11.974,1.87-19.969,9.144-22.312,20.961c-0.259,1.304-0.51,2.611-0.724,3.923c-0.781,4.778-1.496,5.482-6.536,5.483
		c-10.663,0.002-21.327-0.167-31.99-0.157c-26.496,0.026-52.993,0.121-79.489,0.163c-2.31,0.004-4.669,0.306-6.863-0.624
		c-1.539-1.324-1.973-3.054-2.168-4.922c-1.193-11.396-7.653-18.844-17.82-23.334c-6.424-2.837-13.297-4.181-20.19-5.309
		c-5.109-0.836-9.987-2.323-15.089-4.655c0-3.079,0.051-6.214-0.029-9.346C0.943,13.946,1.568,12.582,0,12C0,8,0,4,0,0
		C2.667,0,5.333,0,8,0z"/>
	<path style="fill:#0E4164;" d="M1496,124c-1.503,1.31-1.282,3.31-1.862,4.962c-2.221,6.323-6.124,11.239-12.343,13.599
		c-9.693,3.679-15.699,10.667-20.008,19.74c-12.534,26.396-25.228,52.715-37.851,79.068
		c-18.928,39.518-37.873,79.028-56.767,118.562c-19.112,39.991-38.165,80.01-57.261,120.009c-2.932,6.142-5.837,12.301-8.958,18.347
		c-5.96,11.544-14.092,20.936-26.499,25.933c-0.22,0.089-0.305,0.511-0.453,0.778c-16.667,0-33.333,0-50,0
		c-7.348-6.637-9.795-15.777-12.637-24.719c-0.462-1.455-0.683-2.909-0.387-4.495c1.123-2.25,3.32-3.022,5.553-3.737
		c7.735-2.478,15.416-5.128,23.363-6.894c13.431-2.985,23.871-10.493,32.152-21.291c5.815-7.583,9.78-16.199,13.841-24.743
		c8.337-17.54,16.466-35.179,24.825-52.708c1.764-3.699,1.236-6.871-0.353-10.437c-11.962-26.831-23.775-53.728-35.658-80.594
		c-17.859-40.375-35.749-80.737-53.593-121.119c-2.556-5.785-5.513-11.345-8.709-16.795c-4.55-7.756-11.026-13.21-19.344-16.534
		c-1.387-0.554-2.799-1.06-4.142-1.708c-3.963-1.909-4.867-3.3-3.933-7.459c1.204-5.359,3.318-10.441,6.033-15.214
		c1.541-2.71,3.92-4.376,7.211-4.749c2.319-0.263,4.618-0.489,6.953-0.488c30.492,0.013,60.984,0.022,91.477-0.001
		c7.16-0.005,14.32-0.132,21.481-0.194c3.003-0.026,5.999,0.101,8.92,0.861c4.419,1.15,5.791,3.432,4.454,7.719
		c-0.936,3.001-1.902,5.995-3.257,8.865c-2.53,5.355-6.365,9.233-11.87,11.515c-3.99,1.654-7.904,3.498-11.544,5.852
		c-7.722,4.994-9.683,10.172-7.391,19.183c1.562,6.143,4.188,11.885,6.597,17.706c16.056,38.798,32.131,77.588,48.212,116.376
		c0.634,1.53,1.382,3.012,2.086,4.534c1.586-0.448,1.615-1.963,2.123-3.062c20.396-44.144,40.765-88.3,61.118-132.463
		c1.11-2.409,1.826-4.982,2.748-7.459c1.776-4.775-0.17-10.536-5.252-13.79c-3.376-2.162-7.003-3.793-10.8-5.063
		c-5.821-1.948-11.684-3.787-17.446-5.897c-6.289-2.303-7.161-4.323-4.806-10.615c0.869-2.321,1.869-4.652,3.198-6.73
		c3.319-5.19,8.365-7.496,14.378-7.57c5.824-0.072,11.652,0.234,17.479,0.227c21.992-0.029,43.983-0.139,65.975-0.168
		c4.669-0.006,9.235,0.55,12.947,3.859C1496,118,1496,121,1496,124z"/>
	<path style="fill:#0D4164;" d="M600.81,348.309c-1.932-0.26-2.689,1.053-3.697,1.812c-12.09,9.111-23.881,18.632-36.937,26.396
		c-14.426,8.579-29.668,14.945-46.452,17.011c-15.314,1.885-30.599,1.96-45.377-3.153c-23.636-8.178-38.444-24.801-45.233-48.695
		c-2.415-8.5-3.473-17.244-4.132-26.051c-1.37-18.299-0.704-36.614-0.693-54.928c0.019-31.828-0.017-63.657-0.376-95.482
		c-0.137-12.09-4.95-18.403-15.538-22.485c-5.295-2.042-10.889-2.97-16.281-4.638c-1.584-0.49-3.245-0.746-4.81-1.286
		c-4.984-1.718-6.435-4.866-4.441-9.705c1.33-3.227,2.981-6.328,4.185-9.597c1.847-5.016,5.49-6.69,10.516-6.404
		c7.156,0.407,14.319,0.063,21.479,0.052c21.662-0.032,43.325,0.098,64.988,0.177c1.161,0.004,2.337,0.017,3.48,0.191
		c7.347,1.117,10.005,4.029,10.509,11.52c0.134,1.991,0.18,3.992,0.181,5.988c0.01,36.665-0.231,73.332,0.114,109.993
		c0.16,16.979,0.072,33.967,0.612,50.942c0.33,10.351,1.919,20.559,5.235,30.368c4.414,13.057,12.674,22.601,26.516,26.06
		c8.841,2.209,17.511,1.078,25.735-2.928c17.91-8.724,29.892-22.924,37.58-41.001c5.3-12.461,8.385-25.512,10.166-38.915
		c2.109-15.872,2.637-31.821,2.665-47.801c0.026-15.327-0.037-30.654,0.039-45.981c0.017-3.364-0.394-6.678-1.103-9.899
		c-1.423-6.471-5.136-11.437-10.868-14.87c-4.462-2.673-9.351-4.281-14.253-5.862c-2.211-0.713-4.465-1.288-6.686-1.971
		c-5.786-1.78-7.612-4.77-5.602-10.479c1.591-4.519,3.925-8.779,5.979-13.13c0.721-1.527,2.277-1.96,3.731-2.197
		c1.63-0.266,3.319-0.234,4.982-0.23c27.995,0.056,55.991,0.129,83.986,0.197c0.333,0.001,0.667-0.006,1,0.001
		c8.889,0.196,12.788,4.039,12.855,12.901c0.099,12.997,0.125,25.995,0.127,38.993c0.002,11.331-0.102,22.662-0.106,33.993
		c-0.014,41.831-0.023,83.662,0.016,125.493c0.005,5.315-0.015,10.621,0.931,15.922c1.534,8.594,6.138,14.507,14.173,17.879
		c6.646,2.789,13.763,3.737,20.67,5.506c0.964,0.247,1.939,0.453,2.898,0.72c6.371,1.777,8.166,4.895,6.097,11.098
		c-1.332,3.994-3.592,7.492-6.745,10.342c-2.818,2.547-5.994,3.784-9.953,3.774c-29.497-0.08-58.994,0.017-88.492,0.051
		c-1.499,0.002-3.005,0.017-4.496-0.111c-5.936-0.51-8.773-3.256-8.942-9.24c-0.239-8.492-0.173-16.993-0.233-25.49
		C600.8,351.531,600.81,349.905,600.81,348.309z"/>
	<path style="fill:#0D4164;" d="M1023.046,253.338c-1.311,1.68-1.186,3.052-1.151,4.361c0.637,23.57,6.26,45.744,19.514,65.467
		c12.353,18.383,29.823,28.922,51.791,32.033c18.21,2.579,35.412-0.462,51.609-9.089c9.516-5.069,17.252-12.404,24.769-19.983
		c1.169-1.179,2.287-2.447,3.611-3.426c6.644-4.913,14.841-0.304,17.389,4.059c0.993,1.701,1.394,3.645,0.688,5.758
		c-0.583,1.742-1.216,3.427-2.041,5.069c-5.669,11.284-11.374,22.55-16.921,33.894c-3.727,7.623-9.371,12.435-17.733,14.731
		c-22.27,6.115-44.844,9.79-67.949,8.599c-37.112-1.913-70.625-13.811-99.063-38.153c-21.59-18.48-34.455-42.311-40.472-69.937
		c-3.201-14.697-4.482-29.606-3.929-44.615c1.511-41.052,15.876-76.491,46.63-104.472c16.235-14.772,35.606-23.552,56.812-28.606
		c17.156-4.089,34.581-5.321,52.06-3.802c21.228,1.846,40.93,8.406,58.018,21.652c14.606,11.322,24.541,26.05,31.202,43.099
		c7.921,20.274,10.879,41.375,10.089,63.053c-0.173,4.737-1.677,9.143-3.989,13.235c-2.015,3.566-5.111,5.623-9.297,5.798
		c-1.83,0.077-3.662,0.121-5.493,0.121c-49.317,0.006-98.635,0.01-147.952-0.007
		C1028.401,252.176,1025.601,252.229,1023.046,253.338z M1022.252,220.851c2.046,1.42,3.937,0.94,5.724,0.942
		c26.131,0.03,52.263,0.021,78.394,0.021c1.664,0,3.337,0.109,4.992-0.019c11.61-0.898,18.949-4.45,20.392-18.063
		c1.632-15.401-0.327-30.497-6.888-44.778c-10.666-23.216-33.77-29.921-54.005-24.744c-13.112,3.354-22.98,11.628-30.629,22.615
		c-11.522,16.552-16.671,35.245-18.206,55.091C1021.799,214.839,1021.047,217.857,1022.252,220.851z"/>
	<path style="fill:#0E4164;" d="M902.891,181.664c-2.406-0.881-3.321-2.708-4.32-4.427c-3.841-6.609-7.687-13.216-11.472-19.857
		c-6.617-11.607-15.872-19.962-28.924-23.715c-8.276-2.38-16.767-3.036-25.138-1.43c-12.646,2.426-21.307,10.4-26.985,21.696
		c-1.865,3.71-1.733,7.718-0.449,11.666c1.632,5.022,4.68,9.142,8.203,12.967c4.885,5.303,10.635,9.544,16.509,13.664
		c26.767,18.775,52.28,39.068,75.233,62.442c7.842,7.985,15.17,16.373,20.138,26.526c12.272,25.08,9.207,57.69-10.689,79.695
		c-11.624,12.855-26.22,20.715-42.386,26.038c-12.847,4.23-26.05,6.554-39.581,7.304c-21.558,1.194-42.856-0.362-63.886-5.282
		c-8.439-1.974-16.461-5.167-24.354-8.684c-3.358-1.496-6.435-3.462-9.149-5.979c-6.249-5.798-8.505-12.953-7.105-21.261
		c0.557-3.305,0.811-6.604,0.791-9.941c-0.073-11.828-0.165-23.657-0.197-35.485c-0.018-6.517,2.178-9.405,8.364-11.238
		c0.476-0.141,0.97-0.222,1.455-0.336c7.008-1.648,8.122-1.006,9.78,5.816c2.917,12.004,7.24,23.471,13.19,34.298
		c9.105,16.568,22.746,27.434,41.492,30.453c17.208,2.771,33.217-0.663,46.024-13.527c13.044-13.101,14.28-31.951,3.256-46.81
		c-7.205-9.712-16.298-17.531-25.582-25.151c-15.976-13.112-33.518-24.047-50.172-36.214c-10.756-7.858-21.136-16.107-30.041-26.196
		c-23.134-26.21-18.44-70.323,11.277-91.883c13.158-9.547,27.827-15.456,43.621-18.781c19.743-4.156,39.657-3.731,59.633-2.272
		c12.951,0.946,25.794,2.533,38.502,5.201c1.458,0.306,2.923,0.608,4.348,1.033c8.791,2.619,12.207,7.713,12.49,15.967
		c0.422,12.317,0.226,24.66,0.068,36.989C916.751,171.474,909.774,179.608,902.891,181.664z"/>
</g>
</svg>
