<?xml version="1.0" encoding="iso-8859-1"?>
<!-- Generator: Adobe Illustrator 27.0.0, SVG Export Plug-In . SVG Version: 6.00 Build 0)  -->
<svg version="1.1" id="Layer_1" xmlns="http://www.w3.org/2000/svg" xmlns:xlink="http://www.w3.org/1999/xlink" x="0px" y="0px"
	 viewBox="0 0 307.97 139.934" style="enable-background:new 0 0 307.97 139.934;" xml:space="preserve">
<g>
	<path style="fill:#838487;" d="M29.27,14.638c4.497-3.81,9.507-6.782,14.887-9.168c3.46-1.535,7.03-2.731,10.703-3.627
		c2.545-0.621,5.114-1.109,7.724-1.402c0.951-0.107,1.898-0.203,2.853-0.228c0.2-0.005,0.401,0.003,0.512-0.213
		c3.357,0,6.715,0,10.072,0c0.083,0.241,0.288,0.224,0.486,0.238c4.294,0.293,8.494,1.132,12.631,2.279
		c4.183,1.16,8.217,2.731,12.087,4.698c4.847,2.463,9.353,5.435,13.486,8.982c4.962,4.258,9.245,9.099,12.824,14.566
		c2.134,3.26,4.638,8.081,5.513,10.631c-1.446,0-2.867,0-4.359,0c-0.858,1.856-1.183,3.855-1.945,5.7
		c-0.225-0.104-0.288-0.283-0.358-0.477c-2.63-7.254-6.47-13.8-11.475-19.677c-5.277-6.197-11.51-11.197-18.662-15.072
		c-6.27-3.397-12.925-5.641-19.946-6.898C71.128,4.045,65.918,3.81,60.707,4.137C54.377,4.535,48.22,5.909,42.29,8.211
		c-4.205,1.633-8.19,3.69-11.958,6.168c-0.265,0.174-0.545,0.325-0.817,0.487C29.389,14.837,29.297,14.773,29.27,14.638z"/>
	<path style="fill:#1C2F5B;" d="M44.553,89.369c0.672,3.107,2.561,5.223,5.44,6.597c-0.202,0.217-0.435,0.155-0.634,0.155
		c-16.295,0.004-32.59,0.003-48.884,0.001c-0.158,0-0.316-0.031-0.475-0.047c0-2.236,0-4.472,0-6.709
		C14.851,89.368,29.702,89.368,44.553,89.369z"/>
	<path style="fill:#19477C;" d="M51.348,64.7c-0.823,1.409-2.042,2.402-3.415,3.228c-1.056,0.635-2.189,1.105-3.349,1.511
		c-0.218,0.076-0.481,0.063-0.631,0.391c0.461,0.142,0.918,0.282,1.375,0.423c-0.017,0.21-0.068,0.407-0.322,0.42
		c-0.318,0.016-0.638,0.007-0.957,0.007c-14.682,0-29.365,0-44.047,0c0-2.316,0-4.632,0-6.948
		c6.302,0.001,12.604,0.002,18.906,0.002c0.142,0.729-0.126,1.499,0.186,2.251c3.385-0.06,6.742,0.095,10.095-0.092
		c1.825-0.102,3.55-0.522,4.859-1.945c0.307,0.49,0.794,0.249,1.189,0.25c5.204,0.018,10.408,0.012,15.543,0.012
		C51.086,64.311,51.077,64.656,51.348,64.7z"/>
	<path style="fill:#065591;" d="M50.298,52.119c0.307-0.014,0.501,0.159,0.675,0.387c1.293,1.691,2.121,3.557,2.173,5.718
		c-6-0.001-12.001-0.002-18.001-0.003c-0.278,0-0.561-0.024-0.833,0.021c-0.235,0.039-0.249,0.272-0.264,0.472
		c-0.837-0.826-1.811-1.423-2.972-1.647c-0.974-0.188-1.956-0.329-2.958-0.322c-2.747,0.019-5.495,0.002-8.242,0.012
		c-0.303,0.001-0.641-0.12-0.901,0.149c-0.023,0.282-0.046,0.559-0.069,0.836c-6.302,0-12.604-0.001-18.906-0.001
		c0-1.837,0-3.674,0-5.511c16.252,0,32.504,0.001,48.755-0.004C49.27,52.227,49.795,52.308,50.298,52.119z"/>
	<path style="fill:#1C4173;" d="M0,70.679c14.682,0,29.365,0,44.047,0c0.319,0,0.639,0.009,0.957-0.007
		c0.254-0.013,0.305-0.21,0.322-0.42c1.367,0.244,2.622,0.797,3.973,1.366c-0.082,1.733,0.612,3.23,1.343,4.715
		c-0.248,0.574-0.758,0.322-1.148,0.324c-4.218,0.018-8.436,0.013-12.653,0.009c-0.477-0.001-0.953-0.03-1.375,0.251
		c-1.695-1.003-3.574-1.354-5.497-1.393c-3.354-0.067-6.71-0.045-10.065-0.049c-0.304,0-0.639-0.115-0.927,0.139
		c-0.024,0.427-0.048,0.861-0.072,1.294c-6.302,0-12.603-0.001-18.905-0.001C0,74.832,0,72.755,0,70.679z"/>
	<path style="fill:#0D5B98;" d="M50.298,52.119c-0.503,0.189-1.028,0.107-1.543,0.108C32.504,52.231,16.252,52.231,0,52.231
		c0-1.837,0-3.674,0-5.511c0.387-0.148,0.791-0.077,1.187-0.077c11.504-0.004,23.008-0.009,34.512,0
		c3.372,0.003,6.674,0.435,9.81,1.766c1.557,0.661,2.953,1.569,4.184,2.727C49.981,51.409,50.304,51.664,50.298,52.119z"/>
	<path style="fill:#1D3563;" d="M44.553,89.369C29.702,89.368,14.851,89.368,0,89.367c0-1.917,0-3.833,0-5.75
		c6.302,0,12.604,0.001,18.905,0.001c0.116,0.582-0.063,1.188,0.111,1.749c0.098,0.048,0.167,0.111,0.235,0.11
		c3.952-0.051,7.907,0.182,11.855-0.159c1.869-0.162,3.597-0.676,5.015-1.977c2.41,0.012,4.821,0.029,7.231,0.033
		c0.786,0.001,1.572-0.032,2.32,0.275C44.656,85.43,44.366,87.353,44.553,89.369z"/>
	<path style="fill:#1E3C6C;" d="M18.905,83.618c-6.302,0-12.604-0.001-18.905-0.001c0-2.236,0-4.472,0-6.709
		c6.302,0,12.603,0.001,18.905,0.001C18.969,79.146,18.972,81.382,18.905,83.618z"/>
	<path style="fill:#0A518B;" d="M0,57.741c6.302,0,12.604,0.001,18.906,0.001c0.061,1.997,0.071,3.994,0,5.991
		C12.604,63.732,6.302,63.732,0,63.731C0,61.734,0,59.738,0,57.741z"/>
	<path style="fill:#838487;" d="M68.358,130.88c1.746-0.092,3.492-0.1,5.239-0.252c2.578-0.225,5.127-0.603,7.658-1.103
		c5.291-1.046,10.34-2.832,15.162-5.221c4.006-1.985,7.741-4.417,11.237-7.213c2.124-1.699,4.096-3.558,5.977-5.514
		c2.52-2.62,4.732-5.487,6.741-8.513c0.218-0.328,0.435-0.656,0.657-0.991c2.382,0,4.732,0,7.174,0
		c-0.252,0.852-0.823,1.461-1.278,2.115c-2.838,4.076-6.135,7.761-9.841,11.06c-4.849,4.316-10.244,7.815-16.178,10.476
		c-3.779,1.695-7.673,3.045-11.705,3.987c-2.668,0.624-5.363,1.082-8.093,1.381c-3.296,0.361-6.593,0.497-9.903,0.388
		c-0.952-0.031-1.9-0.151-2.85-0.23C68.356,131.127,68.357,131.003,68.358,130.88z"/>
	<path style="fill:#1C4173;" d="M101.453,73.098c-0.688,2.277-1.548,4.491-2.452,6.689c-6.448,0-12.896,0-19.344,0
		c-0.123-0.443,0.266-0.833,0.105-1.382c-2.575,0-5.181,0-7.786,0c-0.124-0.356-0.427-0.296-0.699-0.297
		c-1.039-0.002-2.078-0.006-3.117,0.002c-0.408,0.003-0.814,0.03-0.999-0.449c0.864-0.807,1.768-1.57,2.386-2.61
		c0.55-0.924,0.994-1.882,1.233-2.932c4.486-0.009,8.973-0.017,13.459-0.026c0.185,0.581,0.371,1.163,0.575,1.804
		c0.544-0.33,0.398-0.974,0.766-1.314c0.642,0.235,1.307,0.26,1.985,0.258c4.27-0.012,8.541-0.012,12.811,0.004
		C100.737,72.847,101.188,72.623,101.453,73.098z"/>
	<path style="fill:#1C4173;" d="M142.275,72.614c-0.482,2.104-1.138,4.158-1.795,6.211c-0.459-0.099-0.894-0.253-1.386-0.252
		c-9.419,0.016-18.838,0.013-28.257,0.007c-0.486,0-0.949,0.037-1.374,0.291c-0.768-1.902-1.492-3.821-2.139-5.769
		c5.377-0.009,10.754-0.017,16.131-0.026c0.141,0.295,0.281,0.591,0.421,0.885c0.438-0.37,0.219-0.986,0.572-1.371
		C130.391,72.598,136.333,72.606,142.275,72.614z"/>
	<path style="fill:#1E3C6C;" d="M109.463,78.872c0.425-0.255,0.888-0.292,1.374-0.291c9.419,0.007,18.838,0.009,28.257-0.007
		c0.492-0.001,0.927,0.153,1.386,0.252c-0.563,1.917-1.126,3.834-1.689,5.751c-8.665-0.001-17.329-0.002-25.994,0
		c-0.399,0-0.797,0.028-1.196,0.042C110.836,82.723,110.087,80.82,109.463,78.872z"/>
	<path style="fill:#0F4C84;" d="M119.171,61.575c0.791,1.8,1.43,3.657,2.077,5.511c-5.345,0.141-10.699-0.308-16.037,0.262
		c-0.39-0.539-0.45-1.219-0.771-1.797c-0.41,0.45-0.393,1.098-0.753,1.564c-0.436-0.01-0.873-0.028-1.309-0.028
		c-4.406-0.002-8.813-0.003-13.219,0.001c-0.516,0-1.032,0.031-1.485-0.281c0.597-1.772,1.2-3.541,1.969-5.249
		C99.486,61.563,109.329,61.569,119.171,61.575z"/>
	<path style="fill:#1C2F5B;" d="M96.151,87.451c-0.883,2.835-2.036,5.571-3.031,8.389c-4.674,0-9.291,0-14.019,0
		c-1.704-1.654-3.471-3.369-5.301-5.145c0.967-1.217,1.92-2.417,2.874-3.617c0.263,0.648,0.832,0.357,1.255,0.359
		C84.003,87.457,90.077,87.451,96.151,87.451z"/>
	<path style="fill:#1D3563;" d="M96.151,87.451c-6.074,0-12.148,0.006-18.222-0.015c-0.423-0.001-0.993,0.29-1.255-0.359
		c1.397-2.266,2.357-4.711,2.983-7.292c6.448,0,12.896,0,19.344,0C98.101,82.36,97.233,84.945,96.151,87.451z"/>
	<path style="fill:#838487;" d="M181.006,82.988c1.202,1.191,2.324,2.303,3.474,3.442c0.926-1.042,1.439-2.416,2.382-3.454
		c0.945,0,1.846,0,2.914,0c-1.231,1.817-2.383,3.518-3.449,5.091c1.356,1.461,2.645,2.852,4.024,4.337c-1.183,0-2.263,0-3.496,0
		c-0.606-0.651-1.311-1.407-1.923-2.064c-0.572-0.019-0.72,0.313-0.94,0.521c-2.364,2.243-5.121,2.642-8.075,1.534
		c-3.373-1.265-4.529-5.686-1.298-8.289c0.659-0.531,1.388-0.923,2.155-1.392c-0.247-0.557-0.687-0.959-1.031-1.428
		c-1.113-1.521-1.286-3.117-0.371-4.806c0.403-0.745,1.046-1.206,1.782-1.527c1.711-0.745,3.433-0.773,5.187-0.064
		c2.743,1.109,3.143,4.622,0.878,6.569C182.555,82.033,181.818,82.499,181.006,82.988z M178.525,84.293
		c-0.959,0.306-1.742,0.959-2.429,1.746c-0.38,0.435-0.561,0.944-0.573,1.527c-0.027,1.307,0.966,2.549,2.295,3.007
		c1.638,0.565,3.943-0.253,5.023-1.89C181.397,87.215,179.98,85.773,178.525,84.293z M179.332,81.518
		c0.668-0.527,1.388-0.785,1.938-1.326c0.687-0.676,0.944-1.473,0.694-2.381c-0.204-0.74-1.096-1.194-2.132-1.186
		c-0.198,0.001-0.398,0.01-0.595,0.035c-1.516,0.194-2.27,1.673-1.541,3.012C178.083,80.381,178.641,80.935,179.332,81.518z"/>
	<path style="fill:#0D5B98;" d="M61.383,54.869c-0.781-1.903-1.29-3.895-1.908-5.851c-0.178-0.562-0.45-1.103-0.477-1.765
		c6.338,0,12.658,0,19.051,0c0.574,2.473,1.319,4.889,1.79,7.375c-5.492-0.001-10.984,0.002-16.476-0.006
		C62.689,54.621,62.022,54.617,61.383,54.869z"/>
	<path style="fill:#1D3563;" d="M111.601,84.619c0.399-0.015,0.797-0.042,1.196-0.042c8.665-0.002,17.329-0.001,25.994,0
		c-0.497,1.852-0.977,3.71-1.647,5.51c-0.56-0.223-1.142-0.248-1.74-0.247c-4.256,0.012-8.512,0.002-12.768,0.008
		c-3.023,0.004-6.045,0.021-9.068,0.032C112.821,88.16,112.207,86.391,111.601,84.619z"/>
	<path style="fill:#1C2F5B;" d="M113.568,89.879c3.023-0.011,6.045-0.028,9.068-0.032c4.256-0.006,8.512,0.004,12.768-0.008
		c0.598-0.002,1.179,0.024,1.74,0.247c-0.638,1.881-0.954,3.858-1.657,5.752c-6.579,0-13.111,0-19.756,0
		C115.053,93.858,114.162,91.925,113.568,89.879z"/>
	<path style="fill:#0A518B;" d="M119.171,61.575c-9.843-0.006-19.685-0.012-29.528-0.018c0.453-1.556,1.003-3.077,1.681-4.551
		c8.721,0.006,17.442,0.012,26.162,0.018C117.961,58.573,118.785,59.993,119.171,61.575z"/>
	<path style="fill:#065591;" d="M117.487,57.023c-8.721-0.006-17.442-0.012-26.162-0.018c0.478-1.63,1.075-3.216,1.752-4.773
		c7.557,0.001,15.115,0.002,22.672,0.003C116.353,53.822,117.029,55.383,117.487,57.023z"/>
	<path style="fill:#0A518B;" d="M61.383,54.869c0.639-0.252,1.306-0.248,1.98-0.247c5.492,0.008,10.984,0.006,16.476,0.006
		c0.626,2.039,1.129,4.109,1.559,6.197c-4.768,0.01-9.536,0.019-14.303,0.031c-1.26,0.003-2.526-0.092-3.766,0.239
		C62.563,59.057,61.914,56.982,61.383,54.869z"/>
	<path style="fill:#19477C;" d="M142.275,72.614c-5.942-0.008-11.884-0.015-17.825-0.023c0.344-2.134,1.017-4.186,1.545-6.275
		c0.476,0.017,0.953,0.048,1.429,0.048c4.971,0.004,9.942,0.008,14.914-0.005c0.598-0.002,1.178,0.031,1.739,0.248
		C143.521,68.623,143.007,70.651,142.275,72.614z"/>
	<path style="fill:#0F4C84;" d="M34.049,58.714c0.015-0.2,0.03-0.433,0.264-0.472c0.271-0.045,0.555-0.021,0.833-0.021
		c6,0,12.001,0.002,18.001,0.003c0.159,2.369-0.285,4.571-1.799,6.476c-0.27-0.044-0.262-0.389-0.57-0.49
		c-5.136,0-10.339,0.006-15.543-0.012c-0.395-0.001-0.881,0.239-1.189-0.25C35.055,62.204,35.086,60.459,34.049,58.714z"/>
	<path style="fill:#0D5B98;" d="M20.704,118.899c-1.001-0.689-1.677-1.692-2.453-2.589c-3.613-4.175-6.627-8.755-9.105-13.687
		c-0.071-0.14-0.112-0.296-0.195-0.521c2.967,0,5.895,0,8.969,0c1.008,1.954,2.327,3.837,3.467,5.83
		c-0.288,0.46-0.291,0.97-0.289,1.491c0.01,2.829,0.01,5.657-0.002,8.486C21.096,118.274,21.27,118.743,20.704,118.899z"/>
	<path style="fill:#0D5B98;" d="M115.748,52.235c-7.557-0.001-15.115-0.002-22.672-0.003c0.468-1.68,1.188-3.269,1.765-4.97
		c6.333,0,12.662,0,19.103,0C114.537,48.895,115.143,50.565,115.748,52.235z"/>
	<path style="fill:#065591;" d="M20.704,118.899c0.566-0.156,0.391-0.625,0.393-0.99c0.011-2.829,0.011-5.657,0.002-8.486
		c-0.002-0.522,0.001-1.031,0.289-1.491c0.918,0.881,1.38,2.088,2.183,3.051c0.945,1.133,1.822,2.32,2.915,3.33
		c0.756,0.699,1.405,1.511,2.13,2.244c1.001,1.012,2.028,1.999,3.044,2.996c-0.557-0.013-0.485,0.385-0.485,0.738
		c0.001,1.816-0.008,3.633,0.005,5.449c0.005,0.669,0.006,1.33-0.245,1.964c-1.743-1.035-3.279-2.348-4.836-3.629
		c-1.716-1.411-3.338-2.93-4.888-4.521C21.019,119.359,20.872,119.119,20.704,118.899z"/>
	<path style="fill:#19477C;" d="M105.212,67.348c5.338-0.57,10.692-0.12,16.037-0.262c0.781,1.98,1.552,3.964,2.207,5.991
		c-5.377,0.009-10.754,0.017-16.131,0.026C106.552,71.21,105.809,69.305,105.212,67.348z"/>
	<path style="fill:#19477C;" d="M87.675,66.806c0.454,0.312,0.97,0.282,1.485,0.281c4.406-0.003,8.813-0.003,13.219-0.001
		c0.436,0,0.873,0.018,1.309,0.028c-0.687,2.016-1.336,4.046-2.235,5.983c-0.265-0.474-0.716-0.251-1.077-0.252
		c-4.27-0.016-8.541-0.016-12.811-0.004c-0.678,0.002-1.343-0.023-1.985-0.258C86.15,70.611,86.922,68.712,87.675,66.806z"/>
	<path style="fill:#0F4C84;" d="M144.075,66.607c-0.561-0.216-1.14-0.249-1.739-0.248c-4.971,0.012-9.942,0.008-14.914,0.005
		c-0.476,0-0.953-0.032-1.429-0.048c0.393-1.676,0.721-3.37,1.309-4.995c4.899,0.005,9.797,0.007,14.696,0.016
		c1.183,0.002,2.374-0.091,3.535,0.238C144.925,63.217,144.719,64.975,144.075,66.607z"/>
	<path style="fill:#0D5B98;" d="M129.642,51.96c0.361-1.544,0.723-3.088,1.098-4.691c6.316,0,12.6,0,18.996,0
		c-0.417,1.712-0.84,3.378-1.477,4.985c-0.455-0.336-0.984-0.261-1.496-0.262C141.056,51.98,135.349,51.97,129.642,51.96z"/>
	<path style="fill:#065591;" d="M129.642,51.96c5.707,0.01,11.414,0.02,17.121,0.032c0.513,0.001,1.041-0.074,1.496,0.262
		c-0.542,1.479-0.672,3.075-1.3,4.53c-0.876,0-1.752,0-2.629-0.001c-5.297-0.01-10.594-0.02-15.891-0.03
		C128.775,55.138,129.104,53.523,129.642,51.96z"/>
	<path style="fill:#19477C;" d="M84.238,72.092c-4.486,0.009-8.973,0.017-13.459,0.026c0.214-2.282-0.465-4.276-1.941-6.014
		c0.239-0.612,0.773-0.451,1.229-0.453c4.187-0.021,8.374-0.033,12.561-0.048C83.202,67.757,83.823,69.899,84.238,72.092z"/>
	<path style="fill:#1E3C6C;" d="M45.672,83.649c-0.748-0.307-1.534-0.274-2.32-0.275c-2.41-0.004-4.821-0.021-7.231-0.033
		c0.498-0.806,0.982-1.612,1.053-2.598c0.115-1.587-0.592-2.794-1.708-3.826c0.423-0.281,0.898-0.251,1.375-0.251
		c4.218,0.004,8.436,0.009,12.653-0.009c0.39-0.002,0.901,0.25,1.148-0.324c0.543,0.718,1.087,1.436,1.701,2.248
		C49.642,79.732,47.264,81.189,45.672,83.649z"/>
	<path style="fill:#0A518B;" d="M128.44,56.752c5.297,0.01,10.594,0.021,15.891,0.03c0.876,0.002,1.752,0.001,2.629,0.001
		c-0.404,1.618-0.856,3.222-1.426,4.791c-1.161-0.329-2.352-0.236-3.535-0.238c-4.899-0.009-9.797-0.011-14.696-0.016
		C127.551,59.765,127.955,58.249,128.44,56.752z"/>
	<path style="fill:#0F4C84;" d="M82.627,65.604c-4.187,0.015-8.374,0.027-12.561,0.048c-0.456,0.002-0.99-0.159-1.229,0.453
		c-1.327-1.195-2.885-1.914-4.666-2.205c-0.405-0.91-0.684-1.837-0.843-2.802c1.239-0.332,2.506-0.236,3.766-0.239
		c4.768-0.013,9.535-0.021,14.303-0.031C81.78,62.426,82.359,63.975,82.627,65.604z"/>
	<path style="fill:#0A518B;" d="M30.935,127.705c0.251-0.634,0.25-1.296,0.245-1.964c-0.013-1.816-0.004-3.633-0.005-5.449
		c0-0.353-0.073-0.752,0.485-0.738c1.528,1.452,3.146,2.803,4.873,4.006c1.613,1.124,3.309,2.129,4.966,3.19
		c0.197,0.126,0.379,0.277,0.568,0.416c-0.596,0.186-0.586,0.661-0.584,1.16c0.009,1.796,0,3.592-0.003,5.388
		c-1.903-0.685-3.653-1.686-5.394-2.687C34.316,130.008,32.505,129.039,30.935,127.705z"/>
	<path style="fill:#1D3563;" d="M64.423,90.627c-2.708,2.198-7.318,2.15-9.782-0.013c-2.039-1.789-2.49-5.204,0.014-7.498
		c0.29-0.266,0.623-0.485,0.997-0.772C58.638,85.031,61.293,88.008,64.423,90.627z"/>
	<path style="fill:#0F4C84;" d="M41.48,133.715c0.002-1.796,0.012-3.592,0.003-5.388c-0.003-0.499-0.012-0.975,0.584-1.16
		c2.186,1.115,4.313,2.348,6.573,3.318c0.978,0.42,1.947,0.859,2.921,1.29c-0.262,0.378-0.242,0.808-0.243,1.24
		c-0.003,1.453-0.017,2.906-0.027,4.36C47.917,136.431,44.606,135.319,41.48,133.715z"/>
	<path style="fill:#065591;" d="M23.75,31.869c-1.681,2.324-3.448,4.588-4.972,7.021c-0.47,0.751-0.876,1.543-1.311,2.317
		c-0.154-0.02-0.346-0.001-0.399-0.189c-0.138-0.489-0.3-0.963-0.293-1.496c0.028-2.231,0.02-4.463,0.004-6.694
		c-0.003-0.358,0.202-0.831-0.356-1.01c1.896-2.434,4.001-4.668,6.358-6.662c0.567-0.014,0.481,0.395,0.482,0.745
		c0.001,1.628,0.003,3.256-0.001,4.884C23.26,31.224,23.201,31.681,23.75,31.869z"/>
	<path style="fill:#19477C;" d="M51.29,137.374c0.01-1.453,0.024-2.906,0.027-4.36c0.001-0.432-0.02-0.862,0.243-1.24
		c2.828,1.101,5.76,1.858,8.689,2.625c0.46,0.121,0.923,0.232,1.384,0.347c0,1.554,0,3.108,0,4.662
		c-2.114-0.113-4.178-0.552-6.238-0.989C54.016,138.126,52.613,137.899,51.29,137.374z"/>
	<path style="fill:#939295;" d="M160.512,36.989c0.18-0.114,0.328-0.096,0.494-0.007c0.2,0.22,0.116,0.512,0.116,0.782
		c0.004,22.424,0.004,44.848,0.002,67.272c0,0.279,0.022,0.566-0.037,0.834c-0.051,0.23-0.274,0.252-0.575,0.161
		C160.512,83.031,160.512,59.999,160.512,36.989z"/>
	<path style="fill:#1E3C6C;" d="M72.665,136.147c1.632-0.01,3.265,0.003,4.897-0.034c2.906-0.066,5.787-0.388,8.648-0.897
		c0.43-0.076,0.868-0.105,1.302-0.155c0.07,0.798-0.102,1.623,0.26,2.39c-3.111,0.981-6.307,1.568-9.536,1.972
		c-1.848,0.231-3.7,0.477-5.571,0.438C72.665,138.623,72.665,137.385,72.665,136.147z"/>
	<path style="fill:#1C4173;" d="M72.665,136.147c0,1.238,0,2.476,0,3.713c-3.689,0.125-7.373,0.156-11.032-0.453
		c0-1.554,0-3.108,0-4.662C65.282,135.441,68.957,135.927,72.665,136.147z"/>
	<path style="fill:#0A518B;" d="M23.75,31.869c-0.549-0.188-0.49-0.645-0.489-1.084c0.003-1.628,0.002-3.256,0.001-4.884
		c0-0.35,0.085-0.759-0.482-0.745c2.121-2.085,4.439-3.921,6.962-5.498c0.245,0.342,0.243,0.731,0.239,1.13
		c-0.011,1.066-0.002,2.133-0.004,3.199c-0.001,0.393-0.044,0.793,0.226,1.131C27.926,27.249,25.811,29.533,23.75,31.869z"/>
	<path style="fill:#0D5B98;" d="M16.422,31.818c0.559,0.179,0.354,0.652,0.356,1.01c0.017,2.231,0.025,4.463-0.004,6.694
		c-0.007,0.533,0.155,1.007,0.293,1.496c0.053,0.188,0.245,0.169,0.399,0.189c0.038,0.413-0.29,0.626-0.501,0.931
		c-2.42,0-4.847,0-7.347,0c0.169-0.708,0.585-1.235,0.908-1.801C12.244,37.326,14.132,34.433,16.422,31.818z"/>
	<path style="fill:#1E3C6C;" d="M67.16,77.66c0.185,0.479,0.591,0.452,0.999,0.449c1.039-0.008,2.078-0.004,3.117-0.002
		c0.272,0.001,0.576-0.059,0.699,0.297c-0.417,1.516-0.461,3.113-1.001,4.603c-0.392,1.082-0.885,2.109-1.662,3.117
		c-2.196-1.85-3.959-4.042-5.971-6.193C64.749,79.251,65.919,78.401,67.16,77.66z"/>
	<path style="fill:#0F4C84;" d="M30.202,25.118c-0.27-0.338-0.227-0.738-0.226-1.131c0.002-1.066-0.007-2.133,0.004-3.199
		c0.004-0.399,0.006-0.788-0.239-1.13c2.468-1.813,5.096-3.35,7.905-4.574c0.229,0.348,0.255,0.733,0.25,1.139
		c-0.013,0.996,0.005,1.992,0.01,2.988c-1.756,1.198-3.396,2.559-5.212,3.678c-0.672,0.415-1.204,1.063-1.78,1.625
		C30.689,24.734,30.501,24.989,30.202,25.118z"/>
	<path style="fill:#19477C;" d="M59.332,76.253c-1.492-1.415-2.681-2.942-2.53-5.152c0.143-2.088,1.678-3.307,3.854-3.07
		c2.054,0.224,2.808,2.349,2.59,3.796c-0.14,0.925-0.541,1.738-1.194,2.42C61.276,75.057,60.391,75.717,59.332,76.253z"/>
	<path style="fill:#21345F;" d="M232.624,63.729c1.279,1.385,2.777,2.303,4.719,2.491c2.023,0.195,3.772-0.268,5.211-1.739
		c0.166-0.17,0.314-0.358,0.499-0.569c0.798,0.469,1.492,0.976,2.213,1.613c-1.301,1.541-2.913,2.488-4.832,2.854
		c-3.886,0.741-7.251-0.188-9.874-3.281c-0.15-0.177-0.242-0.401-0.362-0.604c0.154-0.461,0.507-0.541,0.94-0.528
		C231.645,63.98,232.167,64.046,232.624,63.729z"/>
	<path style="fill:#21345F;" d="M252.56,88.393c1.428,1.387,3.109,2.173,5.127,2.202c1.808,0.026,3.364-0.53,4.606-1.877
		c0.133-0.145,0.288-0.271,0.446-0.418c0.778,0.37,1.41,0.914,2.17,1.49c-1.604,2.042-3.752,2.957-6.195,3.122
		c-3.756,0.254-6.878-0.996-9.003-4.263C250.638,88.303,251.608,88.449,252.56,88.393z"/>
	<path style="fill:#263762;" d="M87.772,137.45c-0.362-0.767-0.19-1.592-0.26-2.39c2.689-0.691,5.401-1.294,8.038-2.185
		c4.766-1.61,9.255-3.796,13.534-6.426c0.149,0.031,0.249,0.112,0.264,0.273C102.84,131.671,95.671,135.294,87.772,137.45z"/>
	<path style="fill:#21345F;" d="M276.206,64.214c2.544,2.864,6.929,2.766,10.072-0.263c0.72,0.462,1.453,0.92,2.14,1.576
		c-1.262,1.517-2.841,2.447-4.724,2.823c-3.936,0.786-7.339-0.131-9.995-3.277c-0.152-0.18-0.327-0.354-0.355-0.61
		C274.301,64.4,275.278,64.587,276.206,64.214z"/>
	<path style="fill:#21345F;" d="M285.937,88.914c-0.208,0.717-0.984,0.88-1.382,1.412c-0.953,1.274-2.337,1.845-3.798,2.235
		c-3.293,0.881-6.371,0.332-9.185-1.573c-0.583-0.395-1.07-0.943-1.455-1.555c0.446-0.261,0.923-0.353,1.438-0.31
		c0.502,0.042,1.002,0.024,1.444-0.273c1.645,1.404,3.569,1.894,5.69,1.712c1.641-0.141,3.002-0.908,4.243-1.932
		C283.904,89.037,284.935,88.818,285.937,88.914z"/>
	<path style="fill:#21345F;" d="M265.982,64.991c-3.729,4.627-9.742,4.305-13.538,2.052c-0.832-0.494-1.599-1.188-2.094-2.085
		c0.212-0.444,0.62-0.259,0.941-0.258c0.669,0.001,1.329-0.01,1.963-0.253c0.473,0.595,1.155,0.889,1.818,1.168
		c1.295,0.544,2.626,0.796,4.066,0.606c1.522-0.201,2.792-0.842,3.965-1.762c0.632,0.257,1.295,0.232,1.959,0.239
		C265.385,64.701,265.795,64.527,265.982,64.991z"/>
	<path style="fill:#263762;" d="M224.61,64.452c-0.74,2.197-2.428,3.183-4.579,3.577c-1.139,0.209-2.29,0.193-3.442,0.188
		c-1.579-0.007-3.157-0.002-4.793-0.002c-0.075-1.487-0.067-2.865-0.004-4.244c0.84,0,1.681,0,2.521,0
		c0.182,0.641-0.128,1.342,0.203,1.964c1.351,0,2.666,0.014,3.98-0.004c1.393-0.019,2.555-0.517,3.349-1.717
		C222.733,64.684,223.69,64.349,224.61,64.452z"/>
	<path style="fill:#1E3C6C;" d="M191.352,64.205c0.322-1.005,0.831-1.926,1.298-2.866c0.902-0.001,1.804-0.001,2.705-0.002
		c0.058,0.165,0.177,0.261,0.348,0.261c2.124,0.003,4.248,0.002,6.397,0.002c-0.059-0.294-0.104-0.519-0.148-0.744
		c0.899,0.077,1.776-0.068,2.649-0.256c0.6,1.179,1.239,2.34,1.641,3.61c-0.947,0-1.895,0.001-2.842,0.001
		c-0.189-0.368-0.499-0.444-0.893-0.441c-2.271,0.014-4.542,0.007-6.813,0.007c-0.397,0-0.794,0-1.093,0
		c-0.401,0.143-0.357,0.522-0.603,0.67C193.128,64.222,192.244,64.172,191.352,64.205z"/>
	<path style="fill:#263762;" d="M186.768,64.45c-0.647,2.318-2.472,3.139-4.582,3.578c-1.333,0.277-2.69,0.182-4.039,0.187
		c-1.381,0.005-2.763,0.001-4.205,0.001c-0.085-1.409-0.089-2.705,0.001-4.003c0.841,0,1.682-0.001,2.522-0.001
		c0.145,0.565-0.123,1.178,0.188,1.748c1.24,0,2.464,0.001,3.688,0c1.403-0.002,2.633-0.411,3.566-1.518
		C184.861,64.443,185.814,64.447,186.768,64.45z"/>
	<path style="fill:#19477C;" d="M185.392,57.054c-0.371,0.849-1.236,1.129-2.048,1.673c0.925,0.369,1.826,0.569,2.317,1.394
		c-0.589,0.161-1.173,0.332-1.799,0.261c-0.26-0.029-0.555-0.055-0.666,0.291c-2.123-1.198-4.414-0.661-6.627-0.767
		c-0.054,0.242-0.079,0.357-0.105,0.472c-0.838,0-1.675,0.001-2.513,0.001c-0.096-1.277-0.083-2.554,0.003-3.831
		c0.836-0.001,1.673-0.002,2.509-0.003c0.03,0.38,0.059,0.76,0.094,1.196c1.213,0,2.354-0.005,3.494,0.001
		c1.158,0.006,2.176-0.323,2.977-1.196c0.426-0.001,0.852,0,1.278-0.004C184.75,56.539,185.128,56.675,185.392,57.054z"/>
	<path style="fill:#19477C;" d="M37.906,19.211c-0.005-0.996-0.022-1.992-0.01-2.988c0.005-0.406-0.021-0.791-0.25-1.139
		c1.593-1.03,3.392-1.616,5.128-2.329c1.051-0.432,2.105-0.895,3.247-1.066c0.184,0.345,0.288,0.699,0.27,1.104
		c-0.027,0.619,0.001,1.241,0.006,1.861c-2.241,1.17-4.503,2.299-6.716,3.524C39.003,18.499,38.565,19.035,37.906,19.211z"/>
	<path style="fill:#19477C;" d="M211.794,60.379c-0.072-1.278-0.059-2.555,0-3.833c0.836,0,1.673,0,2.509,0
		c0.04,0.379,0.079,0.758,0.125,1.195c1.128,0,2.193-0.02,3.257,0.006c1.111,0.027,2.106-0.261,2.977-0.955
		c0.705,0.028,1.995,0.302,2.383,0.506c-0.386,0.677-1.118,0.931-1.845,1.423c1.015,0.431,2.013,0.715,2.542,1.657
		c-0.929-0.078-1.807,0.348-2.735,0.283c-2.108-1.184-4.379-0.641-6.562-0.757c-0.072,0.247-0.106,0.362-0.139,0.476
		C213.469,60.38,212.632,60.379,211.794,60.379z"/>
	<path style="fill:#21345F;" d="M236.898,88.171c0,0.594,0,1.187,0,1.902c2.886,0,5.693,0,8.555,0
		c0.159,0.812,0.066,1.52,0.085,2.217c-0.858,0.25-8.433,0.337-11.16,0.126c0-1.408,0-2.825,0-4.243
		C235.218,88.173,236.058,88.172,236.898,88.171z"/>
	<path style="fill:#0D5B98;" d="M250.777,77.122c1.383-1.639,3.25-2.397,5.284-2.723c2.285-0.366,4.526-0.162,6.589,1.029
		c0.693,0.4,1.339,0.856,1.844,1.595c-0.617,0.605-1.349,1.05-2.096,1.577c-1.477-1.564-3.288-2.166-5.399-1.966
		c-1.096,0.104-2.056,0.565-3.033,1c-0.071-0.158-0.189-0.256-0.366-0.245C252.645,77.451,251.707,77.329,250.777,77.122z"/>
	<path style="fill:#0D5B98;" d="M231.375,52.571c1.137-1.331,2.668-1.954,4.313-2.336c2.7-0.628,5.288-0.382,7.688,1.11
		c0.545,0.339,1.032,0.744,1.467,1.333c-0.602,0.616-1.334,1.058-2.076,1.558c-0.789-0.638-1.532-1.278-2.5-1.613
		c-1.713-0.592-3.359-0.46-4.987,0.258c-0.399,0.176-0.786,0.377-1.179,0.566c-0.301-0.04-0.274-0.476-0.845-0.501
		c-0.294,0-0.837-0.002-1.381,0.001C231.609,52.949,231.432,52.842,231.375,52.571z"/>
	<path style="fill:#0D5B98;" d="M274.381,52.718c1.121-1.34,2.626-2.004,4.27-2.435c2.143-0.562,4.255-0.483,6.338,0.273
		c1.262,0.458,2.179,1.123,3.021,2.191c-0.662,0.49-1.323,0.979-1.929,1.427c-0.305,0-0.437-0.149-0.586-0.282
		c-2.069-1.84-4.397-2.054-6.907-1.086c-0.368,0.142-0.685,0.417-1.108,0.411c-0.248-0.476-0.69-0.239-1.044-0.259
		C275.743,52.921,275.042,53.006,274.381,52.718z"/>
	<path style="fill:#0D5B98;" d="M173.954,53.433c-0.135-0.986-0.025-1.968-0.05-3.084c0.55,0,1.016-0.014,1.481,0.002
		c2.304,0.078,4.619-0.209,6.911,0.207c1.428,0.259,2.625,0.894,3.381,2.199c0.123,0.212,0.222,0.421,0.16,0.673
		c-0.83,0-1.659,0-2.513,0c-0.055,0.224-0.091,0.372-0.127,0.519c-0.588-0.893-1.455-1.353-2.486-1.399
		c-1.375-0.061-2.755-0.015-4.145-0.015c-0.041,0.353-0.072,0.625-0.103,0.896C175.627,53.432,174.791,53.432,173.954,53.433z"/>
	<path style="fill:#0D5B98;" d="M211.793,53.431c0-0.985,0-1.97,0-3.083c1.104,0,2.166-0.017,3.226,0.004
		c1.745,0.035,3.508-0.189,5.228,0.228c1.595,0.386,2.997,1.069,3.468,2.851c-0.588-0.001-1.177,0.015-1.764-0.008
		c-0.455-0.018-0.75,0.158-0.9,0.584c-0.582-0.887-1.406-1.417-2.46-1.455c-1.381-0.05-2.765-0.012-4.152-0.012
		c-0.053,0.349-0.094,0.621-0.136,0.892C213.466,53.432,212.63,53.432,211.793,53.431z"/>
	<path style="fill:#0D5B98;" d="M270.945,76.892c1.319-1.455,3.04-2.158,4.915-2.463c3.265-0.531,6.264,0.09,8.824,2.31
		c0.201,0.174,0.489,0.303,0.445,0.65c-0.471,0-0.943-0.003-1.414-0.001c-0.622,0.003-1.258-0.081-1.819,0.296
		c-2.425-1.294-4.895-1.514-7.432-0.327c-0.167,0.078-0.386,0.048-0.581,0.068c-0.149-0.464-0.508-0.529-0.934-0.521
		C272.281,76.916,271.613,76.897,270.945,76.892z"/>
	<path style="fill:#1C4173;" d="M46.298,14.655c-0.005-0.62-0.033-1.242-0.006-1.861c0.018-0.405-0.086-0.759-0.27-1.104
		c2.08-0.89,4.289-1.336,6.478-1.836c1.192-0.273,2.388-0.551,3.616-0.629c0,0.671,0,1.341,0.001,2.012
		c-2.398,0.781-4.835,1.444-7.179,2.391C48.063,13.981,47.227,14.44,46.298,14.655z"/>
	<path style="fill:#0D5B98;" d="M251.729,52.19c2.066-1.905,4.603-2.386,7.274-2.242c2.224,0.12,4.253,0.887,5.946,2.399
		c0.114,0.102,0.194,0.24,0.29,0.361c-0.865,0.197-1.738,0.301-2.627,0.243c-0.254-0.017-0.455,0.063-0.536,0.332
		c-2.079-1.097-4.228-1.398-6.482-0.589c-0.177,0.064-0.385,0.041-0.579,0.058c-0.521-0.373-1.12-0.273-1.701-0.283
		C252.77,52.461,252.209,52.551,251.729,52.19z"/>
	<path style="fill:#1E3C6C;" d="M56.116,11.236c0-0.671,0-1.341-0.001-2.012c6.142-1.049,12.3-1.139,18.474-0.324
		c-0.001,0.127-0.002,0.255-0.004,0.382c-1.234,0.013-2.469,0.03-3.703,0.037c-4.843,0.026-9.602,0.699-14.295,1.871
		C56.437,11.228,56.274,11.221,56.116,11.236z"/>
	<path style="fill:#214C80;" d="M295.266,57.506c0.088,0.156,0.177,0.312,0.265,0.468l0.106-0.034
		c0.327-0.316,0.585-0.708,1.016-0.908c0.311,0.408,0.748,0.48,1.223,0.471c0.54-0.01,1.081-0.006,1.621-0.008
		c-0.34,0.362-0.68,0.723-1.011,1.075c0.337,0.678,1.072,0.969,1.352,1.639c-0.145,0.544-0.594,0.408-0.956,0.4
		c-0.586-0.013-1.157,0.003-1.682,0.304c-0.674-0.345-1.026-1.077-1.706-1.465c-0.269,0.559,0.039,1.145-0.219,1.655
		c-0.82-0.002-1.64-0.004-2.46-0.006c-0.085-1.198-0.076-2.396,0.003-3.593C293.634,57.503,294.45,57.504,295.266,57.506z"/>
	<path style="fill:#21345F;" d="M206.036,88.242c-0.272,1.441-0.798,2.804-1.234,4.21c-0.927,0-1.797,0-2.741,0
		c-0.465-1.501-1.036-2.969-1.337-4.522c0.79,0,1.579,0.001,2.369,0.001c0.095,0.159,0.19,0.317,0.279,0.466
		c0.353-0.049,0.136-0.417,0.357-0.509c0.584,0.014,1.168,0.033,1.752,0.039C205.732,87.93,205.946,87.97,206.036,88.242z"/>
	<path style="fill:#0D5B98;" d="M195.696,54.868c0.537-1.532,1.332-2.946,1.985-4.443c0.779-0.129,1.526-0.08,2.34-0.039
		c0.61,1.222,1.243,2.443,1.669,3.759c-0.835,0.067-1.704-0.186-2.498,0.267c-0.214-0.127-0.141-0.559-0.497-0.504
		c-0.382,0.461-0.408,1.085-0.813,1.513c-0.089-0.283-0.316-0.345-0.565-0.311C196.75,55.187,196.231,54.982,195.696,54.868z"/>
	<path style="fill:#1E3C6C;" d="M212.751,88.889c-0.482-1.156-0.807-2.363-1.14-3.567c0.801-0.022,1.602-0.044,2.403-0.067
		c0.51,1.009,0.579,2.191,1.216,3.238c0.34-1.061,0.651-2.033,0.962-3.005c0.821,0.015,1.641,0.031,2.462,0.046
		c-0.472,1.09-0.504,2.316-1.047,3.384C215.989,88.909,214.37,88.899,212.751,88.889z"/>
	<path style="fill:#263762;" d="M303.385,63.684c1.281,1.096,2.48,2.278,3.66,3.48c0.274,0.279,0.539,0.566,0.925,0.971
		c-1.312,0-2.469,0-3.813,0c-1.135-1.241-2.591-2.414-3.722-3.906c0.866-0.161,1.73-0.342,2.622-0.27
		C303.224,63.972,303.326,63.837,303.385,63.684z"/>
	<path style="fill:#065591;" d="M206.2,80.16c0.125-0.966,0.498-1.86,0.815-2.77c1.506-0.003,3.013-0.007,4.519-0.01
		c0.492,1.081,0.815,2.216,1.095,3.366c-0.813,0.008-1.626,0.017-2.439,0.025c-0.285-0.8-0.57-1.601-0.891-2.505
		c-0.411,0.803-0.45,1.596-0.845,2.254c-0.577-0.007-1.154-0.018-1.731-0.019C206.468,80.501,206.271,80.43,206.2,80.16z"/>
	<path style="fill:#0F4C84;" d="M296.686,82.887c-0.633-0.743-1.288-1.468-1.74-2.345c0.773-0.727,1.736-0.476,2.642-0.514
		c0.362,0.448,0.724,0.897,1.094,1.354c0.314-0.388,0.61-0.753,0.905-1.118c0.914,0.068,1.867-0.219,2.73,0.304
		c-0.591,0.767-1.042,1.637-1.736,2.327C299.283,82.893,297.985,82.89,296.686,82.887z"/>
	<path style="fill:#19477C;" d="M296.686,82.887c1.298,0.003,2.597,0.006,3.895,0.008c-0.04,0.531,0.392,0.815,0.633,1.197
		c0.307,0.487,0.741,0.89,0.964,1.435c-0.909,0.062-1.881-0.206-2.665,0.508c-0.397-0.22-0.464-0.724-0.876-0.996
		c-0.482,0.189-0.562,0.795-0.987,1.056c-0.142-0.429-0.443-0.584-0.887-0.57c-0.539,0.017-1.08-0.011-1.62-0.02
		c0.357-0.523,0.716-1.045,1.07-1.569C296.432,83.615,296.761,83.341,296.686,82.887z"/>
	<path style="fill:#21345F;" d="M212.751,88.889c1.619,0.01,3.237,0.02,4.856,0.03c-0.334,1.173-0.669,2.346-1.006,3.53
		c-0.947,0-1.814,0-2.753,0C213.411,91.299,213.027,90.112,212.751,88.889z"/>
	<path style="fill:#1C4173;" d="M236.898,88.171c-0.84,0.001-1.68,0.002-2.519,0.003c-0.087-1.757-0.079-3.513,0.007-5.269
		c0.837-0.001,1.674-0.002,2.51-0.003C236.955,84.657,236.967,86.414,236.898,88.171z"/>
	<path style="fill:#1E3C6C;" d="M253.254,64.446c-0.634,0.243-1.294,0.254-1.963,0.253c-0.322,0-0.729-0.186-0.941,0.258
		c-1.205-1.38-1.758-3.012-1.866-4.816c0.905,0,1.81,0,2.715,0C251.438,61.789,252.136,63.218,253.254,64.446z"/>
	<path style="fill:#214C80;" d="M251.199,60.141c-0.905,0-1.81,0-2.715,0c-0.14-1.681-0.026-3.319,0.82-4.833
		c0.924,0.046,1.816,0.412,2.758,0.282C251.378,57.032,251.144,58.56,251.199,60.141z"/>
	<path style="fill:#0D5B98;" d="M300.024,53.913c1.125-1.29,2.513-2.301,3.697-3.53c1.139,0,2.248,0,3.362,0
		c-0.296,0.635-2.679,2.888-4.037,3.822C302.081,53.674,301.033,53.988,300.024,53.913z"/>
	<path style="fill:#0D5B98;" d="M198.251,79.894c-0.694-1.608-1.056-3.32-1.624-5.006c0.426-0.285,0.87-0.149,1.282-0.159
		c0.433-0.011,0.875-0.078,1.386,0.085c0.53,1.528,1.001,3.117,1.382,4.734c-0.588-0.001-1.176,0.002-1.764-0.007
		C198.621,79.537,198.363,79.573,198.251,79.894z"/>
	<path style="fill:#1C4173;" d="M228.214,82.904c0.087,1.676,0.096,3.352,0.006,5.029c-0.839,0-1.679-0.001-2.518-0.001
		c-0.069-1.677-0.059-3.354,0.001-5.03C226.541,82.902,227.377,82.903,228.214,82.904z"/>
	<path style="fill:#263762;" d="M203.399,64.211c0.947,0,1.895-0.001,2.842-0.001c0.752,1.21,1.175,2.568,1.886,3.921
		c-1.074,0.156-2.011,0.056-3.035,0.086C204.456,66.911,203.882,65.581,203.399,64.211z"/>
	<path style="fill:#1E3C6C;" d="M285.937,88.914c-1.001-0.095-2.033,0.123-3.005-0.283c0.997-1.184,1.606-2.552,1.927-4.057
		c0.882,0.002,1.764,0.003,2.647,0.005C287.44,86.189,286.968,87.652,285.937,88.914z"/>
	<path style="fill:#1C4173;" d="M232.624,63.729c-0.457,0.318-0.979,0.251-1.486,0.236c-0.433-0.013-0.786,0.067-0.94,0.528
		c-1.083-1.429-1.694-3.016-1.619-4.832c0.887,0.004,1.773,0.007,2.66,0.011C231.4,61.127,231.821,62.493,232.624,63.729z"/>
	<path style="fill:#1E3C6C;" d="M276.206,64.214c-0.928,0.373-1.906,0.186-2.861,0.249c-1.036-1.255-1.468-2.733-1.6-4.322
		c0.891,0.004,1.783,0.008,2.674,0.011C274.696,61.647,275.233,63.026,276.206,64.214z"/>
	<path style="fill:#1C4173;" d="M252.56,88.393c-0.952,0.056-1.922-0.09-2.848,0.257c-0.955-1.367-1.511-2.863-1.469-4.551
		c0.879-0.002,1.757-0.004,2.636-0.006c-0.092,1.329,0.631,2.39,1.17,3.508C252.185,87.881,252.388,88.13,252.56,88.393z"/>
	<path style="fill:#1E3C6C;" d="M265.982,64.991c-0.187-0.464-0.597-0.29-0.92-0.293c-0.664-0.007-1.327,0.017-1.959-0.239
		c1.002-1.106,1.688-2.377,2.009-3.839c0.905,0,1.811,0,2.716,0C267.666,62.267,267.113,63.751,265.982,64.991z"/>
	<path style="fill:#21345F;" d="M295.701,88.891c-0.708,1.24-1.588,2.362-2.414,3.552c-1.036,0-2.058,0-3.301,0
		c1.133-1.5,2.175-2.879,3.217-4.259c0.081,0.474,0.44,0.485,0.799,0.46C294.589,88.603,295.149,88.708,295.701,88.891z"/>
	<path style="fill:#21345F;" d="M304.502,88.651c0.59,0.774,1.183,1.545,1.768,2.323c0.328,0.436,0.641,0.884,1.04,1.438
		c-1.214,0-2.292,0-3.441,0c-0.684-1.078-1.618-2.05-2.193-3.268C302.571,88.709,303.571,88.881,304.502,88.651z"/>
	<path style="fill:#0A518B;" d="M300.024,53.913c1.009,0.075,2.057-0.238,3.022,0.293c-1.124,1.16-2.264,2.302-3.548,3.289
		c-0.54,0.002-1.081-0.002-1.621,0.008c-0.475,0.009-0.912-0.062-1.223-0.471C297.692,55.9,298.851,54.899,300.024,53.913z"/>
	<path style="fill:#263762;" d="M191.352,64.205c0.892-0.033,1.776,0.017,2.645,0.242c-0.486,1.221-0.973,2.441-1.469,3.688
		c-1.005,0.148-1.979,0.085-3.049,0.036C190.067,66.776,190.599,65.441,191.352,64.205z"/>
	<path style="fill:#1E3C6C;" d="M303.385,63.684c-0.059,0.153-0.161,0.288-0.328,0.275c-0.892-0.072-1.756,0.109-2.622,0.27
		c-1.139-1.046-2.303-2.069-3.234-3.317c0.525-0.301,1.096-0.316,1.682-0.304c0.362,0.008,0.812,0.144,0.956-0.4
		C301.147,61.237,302.263,62.463,303.385,63.684z"/>
	<path style="fill:#21345F;" d="M225.703,87.931c0.839,0,1.679,0.001,2.518,0.001c0.087,1.44,0.083,2.88,0.012,4.32
		c-0.054,0.06-0.108,0.119-0.162,0.179c-0.774,0-1.547,0-2.368,0C225.703,90.898,225.703,89.415,225.703,87.931z"/>
	<path style="fill:#19477C;" d="M267.828,60.619c-0.905,0-1.811,0-2.716,0c0.224-1.468,0.002-2.891-0.446-4.289
		c0.919-0.013,1.839-0.025,2.758-0.038C268.079,57.685,267.95,59.152,267.828,60.619z"/>
	<path style="fill:#214C80;" d="M274.419,60.153c-0.891-0.004-1.783-0.008-2.674-0.011c-0.115-1.416-0.062-2.809,0.54-4.131
		c0.941,0.022,1.883,0.044,2.824,0.066C274.565,57.382,274.533,58.774,274.419,60.153z"/>
	<path style="fill:#1E3C6C;" d="M183.195,60.674c0.112-0.347,0.406-0.321,0.666-0.291c0.626,0.07,1.211-0.1,1.799-0.261
		c0.441,0.675,1.034,1.249,1.203,2.099c0.152,0.764,0.157,1.496-0.095,2.23c-0.954-0.004-1.907-0.007-2.861-0.011
		C184.449,63.037,184.191,61.786,183.195,60.674z"/>
	<path style="fill:#0D5B98;" d="M292.822,54.384c-0.23-1.289-0.053-2.579-0.091-3.98c0.88-0.097,1.685-0.065,2.617-0.01
		c-0.013,1.354,0.148,2.675-0.089,3.999C294.447,54.39,293.635,54.387,292.822,54.384z"/>
	<path style="fill:#19477C;" d="M210.19,80.771c0.813-0.008,1.626-0.017,2.439-0.025c0.328,1.004,0.665,2.006,0.981,3.014
		c0.154,0.492,0.271,0.997,0.404,1.495c-0.801,0.022-1.602,0.044-2.403,0.067C211.094,83.819,210.563,82.32,210.19,80.771z"/>
	<path style="fill:#0F4C84;" d="M236.896,82.901c-0.837,0.001-1.674,0.002-2.51,0.003c-0.103-1.437-0.075-2.873,0.001-4.31
		c0.837-0.002,1.674-0.003,2.51-0.005C236.897,80.027,236.896,81.464,236.896,82.901z"/>
	<path style="fill:#0F4C84;" d="M228.214,82.904c-0.837-0.001-1.674-0.002-2.51-0.003c0-1.437-0.001-2.874-0.001-4.311
		c0.837,0.002,1.674,0.003,2.511,0.005C228.29,80.031,228.317,81.467,228.214,82.904z"/>
	<path style="fill:#0A518B;" d="M267.424,56.292c-0.919,0.013-1.839,0.025-2.758,0.038c-0.633-1.211-1.46-2.257-2.59-3.046
		c0.08-0.269,0.281-0.349,0.536-0.332c0.889,0.058,1.762-0.046,2.627-0.243C266.347,53.672,267.08,54.863,267.424,56.292z"/>
	<path style="fill:#19477C;" d="M287.505,84.578c-0.882-0.002-1.764-0.003-2.647-0.005c0.087-1.305-0.138-2.569-0.487-3.818
		c0.858-0.453,1.785-0.18,2.679-0.25C287.675,81.81,287.634,83.189,287.505,84.578z"/>
	<path style="fill:#214C80;" d="M198.251,79.894c0.112-0.321,0.37-0.357,0.662-0.353c0.588,0.009,1.176,0.005,1.764,0.007
		c0.444,1.343,0.886,2.688,1.183,4.074c-0.804-0.001-1.615-0.079-2.384,0.251C198.924,82.59,198.554,81.252,198.251,79.894z"/>
	<path style="fill:#1C4173;" d="M199.476,83.872c0.769-0.329,1.581-0.252,2.384-0.251c0.365,1.211,0.725,2.423,1.099,3.631
		c0.069,0.224,0.165,0.437,0.135,0.679c-0.79,0-1.579-0.001-2.369-0.001C200.194,86.612,199.722,85.277,199.476,83.872z"/>
	<path style="fill:#1E3C6C;" d="M221.008,60.661c0.928,0.065,1.805-0.36,2.735-0.283c1.134,1.178,1.149,2.595,0.867,4.074
		c-0.92-0.104-1.877,0.232-2.765-0.237C222.223,62.876,222.03,61.671,221.008,60.661z"/>
	<path style="fill:#214C80;" d="M250.879,84.092c-0.879,0.002-1.757,0.004-2.636,0.006c-0.134-1.34,0.014-2.639,0.577-3.876
		c0.955,0.024,1.91,0.048,2.865,0.072C250.927,81.457,251.121,82.821,250.879,84.092z"/>
	<path style="fill:#065591;" d="M252.062,55.59c-0.942,0.13-1.834-0.236-2.758-0.282c0.494-1.284,1.272-2.347,2.425-3.118
		c0.48,0.361,1.041,0.271,1.584,0.28c0.581,0.01,1.181-0.09,1.701,0.283C253.873,53.535,252.869,54.461,252.062,55.59z"/>
	<path style="fill:#19477C;" d="M204.601,60.6c-0.873,0.188-1.75,0.334-2.649,0.256c-0.578-1.164-1.118-2.343-1.518-3.582
		c0.81-0.467,1.712-0.139,2.558-0.295C203.608,58.151,204.192,59.337,204.601,60.6z"/>
	<path style="fill:#1C4173;" d="M206.036,88.242c-0.09-0.272-0.304-0.312-0.554-0.315c-0.584-0.006-1.168-0.025-1.752-0.039
		c0.417-1.35,0.724-2.736,1.311-4.031c0.794-0.001,1.588-0.002,2.382-0.003C206.992,85.326,206.687,86.838,206.036,88.242z"/>
	<path style="fill:#065591;" d="M275.109,56.076c-0.941-0.022-1.883-0.044-2.824-0.066c0.375-1.303,1.054-2.413,2.096-3.292
		c0.661,0.288,1.362,0.202,2.053,0.241c0.354,0.02,0.796-0.217,1.044,0.259C276.611,54.106,275.716,54.972,275.109,56.076z"/>
	<path style="fill:#1E3C6C;" d="M304.502,88.651c-0.93,0.23-1.931,0.058-2.826,0.493c-0.822-0.966-1.543-2.002-2.162-3.108
		c0.784-0.714,1.756-0.446,2.665-0.508C303.034,86.509,303.794,87.56,304.502,88.651z"/>
	<path style="fill:#1E3C6C;" d="M273,88.85c-0.442,0.297-0.942,0.314-1.444,0.273c-0.516-0.043-0.993,0.049-1.438,0.31
		c-0.892-1.072-1.646-2.21-1.746-3.66c0.907-0.013,1.814-0.027,2.721-0.04C271.506,86.907,272.167,87.931,273,88.85z"/>
	<path style="fill:#214C80;" d="M231.238,59.672c-0.887-0.004-1.773-0.007-2.66-0.011c-0.13-1.26,0.043-2.475,0.544-3.642
		c0.939,0.019,1.877,0.038,2.816,0.058C231.522,57.24,231.357,58.451,231.238,59.672z"/>
	<path style="fill:#0D5B98;" d="M211.534,77.38c-1.506,0.003-3.013,0.007-4.519,0.01c0.167-0.885,0.502-1.717,0.8-2.612
		c0.952,0,1.885,0,2.908,0C211.143,75.564,211.353,76.467,211.534,77.38z"/>
	<path style="fill:#0A518B;" d="M231.939,56.077c-0.939-0.019-1.877-0.038-2.816-0.058c0.399-1.379,1.128-2.542,2.252-3.448
		c0.057,0.271,0.234,0.378,0.5,0.376c0.543-0.003,1.086-0.001,1.381-0.001c0.571,0.025,0.544,0.461,0.845,0.501
		C233.113,54.105,232.601,55.152,231.939,56.077z"/>
	<path style="fill:#0A518B;" d="M287.051,80.505c-0.894,0.071-1.82-0.202-2.679,0.25c-0.603-1.203-1.448-2.211-2.477-3.071
		c0.561-0.377,1.197-0.293,1.819-0.296c0.471-0.002,0.943,0,1.414,0.001C286.07,78.242,286.796,79.228,287.051,80.505z"/>
	<path style="fill:#19477C;" d="M218.654,85.535c-0.821-0.015-1.641-0.031-2.462-0.046c0.305-1.282,0.646-2.554,1.116-3.788
		c0.835,0.01,1.671,0.02,2.506,0.03C219.48,83.015,219.141,84.298,218.654,85.535z"/>
	<path style="fill:#0D5B98;" d="M236.897,78.589c-0.837,0.002-1.674,0.003-2.51,0.005c-0.128-1.23-0.039-2.46-0.042-3.754
		c0.838-0.235,1.654-0.076,2.529-0.119C236.977,76.061,236.963,77.325,236.897,78.589z"/>
	<path style="fill:#0D5B98;" d="M228.213,78.594c-0.837-0.002-1.674-0.003-2.511-0.005c0-1.232,0-2.464,0-3.771
		c0.81-0.191,1.623-0.087,2.511-0.057C228.213,76.07,228.213,77.332,228.213,78.594z"/>
	<path style="fill:#1E3C6C;" d="M173.95,60.38c0.838,0,1.675-0.001,2.513-0.001c0.001,1.277,0.002,2.554,0.003,3.832
		c-0.841,0-1.682,0.001-2.522,0.001C173.86,62.935,173.865,61.657,173.95,60.38z"/>
	<path style="fill:#0D5B98;" d="M301.466,77.633c0.523-1.035,1.322-1.878,1.923-2.87c1.035,0,2.023,0,3.231,0
		c-0.781,1.171-1.48,2.226-2.375,3.146C303.322,77.784,302.364,78.012,301.466,77.633z"/>
	<path style="fill:#065591;" d="M251.685,80.295c-0.955-0.024-1.91-0.048-2.865-0.072c0.373-1.21,0.98-2.272,1.957-3.101
		c0.93,0.207,1.867,0.329,2.823,0.268c0.177-0.011,0.295,0.087,0.366,0.245C253.041,78.38,252.268,79.257,251.685,80.295z"/>
	<path style="fill:#0A518B;" d="M219.815,81.732c-0.835-0.01-1.671-0.02-2.506-0.03c0.178-1.235,0.725-2.372,0.958-3.593
		c0.873,0.001,1.746,0.001,2.619,0.002c-0.25,0.916-0.493,1.833-0.752,2.746C220.05,81.154,219.923,81.44,219.815,81.732z"/>
	<path style="fill:#0A518B;" d="M221.051,54.007c0.15-0.426,0.446-0.602,0.9-0.584c0.587,0.023,1.176,0.007,1.764,0.008
		c0.154,0.472,0.096,0.971,0.207,1.464c0.199,0.885-0.17,1.751-0.876,2.404c-0.388-0.204-1.678-0.478-2.383-0.506
		C221.317,55.937,221.101,54.96,221.051,54.007z"/>
	<path style="fill:#1E3C6C;" d="M295.701,88.891c-0.552-0.183-1.112-0.288-1.699-0.247c-0.36,0.025-0.718,0.014-0.799-0.46
		c0.562-0.954,1.22-1.839,1.942-2.678c0.54,0.009,1.081,0.037,1.62,0.02c0.444-0.014,0.744,0.141,0.887,0.57
		C296.939,86.985,296.543,88.093,295.701,88.891z"/>
	<path style="fill:#1E3C6C;" d="M292.815,61.095c0.82,0.002,1.64,0.004,2.46,0.006c0.145,1.196,0.16,2.392,0.003,3.588
		c-0.821,0-1.641,0-2.462,0C292.729,63.491,292.746,62.293,292.815,61.095z"/>
	<path style="fill:#1E3C6C;" d="M211.794,60.379c0.838,0,1.675,0,2.513,0.001c0.083,1.197,0.088,2.395,0.006,3.592
		c-0.84,0-1.681,0-2.521,0C211.793,62.774,211.794,61.577,211.794,60.379z"/>
	<path style="fill:#065591;" d="M270.945,76.892c0.668,0.005,1.336,0.024,2.003,0.011c0.426-0.008,0.785,0.057,0.934,0.521
		c-0.032,0.109-0.028,0.271-0.1,0.32c-0.812,0.548-1.397,1.31-1.991,2.065c-0.928-0.09-1.887,0.112-2.783-0.289
		C269.424,78.475,270.053,77.586,270.945,76.892z"/>
	<path style="fill:#0D5B98;" d="M220.886,78.11c-0.873-0.001-1.746-0.001-2.619-0.002c0.33-1.09,0.66-2.18,1.003-3.314
		c0.868-0.11,1.722-0.126,2.639,0.021C221.637,75.97,221.389,77.078,220.886,78.11z"/>
	<path style="fill:#19477C;" d="M271.092,85.733c-0.907,0.013-1.814,0.027-2.721,0.04c-0.43-1.096-0.312-2.225-0.201-3.353
		c0.902,0.012,1.803,0.023,2.705,0.035C270.675,83.565,270.94,84.645,271.092,85.733z"/>
	<path style="fill:#0D5B98;" d="M293.014,77.946c-0.893-0.952-1.637-2.011-2.394-3.189c1.157,0,2.186,0,3.26,0
		c0.601,0.878,1.327,1.668,1.816,2.629c-0.85,0-1.701,0-2.547,0C293.085,77.65,293.05,77.798,293.014,77.946z"/>
	<path style="fill:#065591;" d="M293.014,77.946c0.036-0.148,0.071-0.296,0.135-0.56c0.847,0,1.697,0,2.547,0
		c0.721,0.817,1.348,1.701,1.893,2.644c-0.907,0.037-1.87-0.213-2.642,0.514C294.185,79.764,293.578,78.871,293.014,77.946z"/>
	<path style="fill:#214C80;" d="M207.423,83.853c-0.794,0.001-1.588,0.002-2.382,0.003c0.248-1.275,0.62-2.512,1.159-3.696
		c0.072,0.27,0.268,0.341,0.523,0.341c0.577,0.001,1.154,0.012,1.731,0.019C208.219,81.665,207.88,82.777,207.423,83.853z"/>
	<path style="fill:#0A518B;" d="M183.197,53.949c0.036-0.148,0.072-0.295,0.127-0.519c0.853,0,1.683,0,2.513,0
		c-0.05,0.406,0.245,0.737,0.268,1.111c0.056,0.911,0.005,1.812-0.713,2.512c-0.264-0.379-0.642-0.515-1.087-0.511
		c-0.426,0.004-0.852,0.003-1.278,0.004C183.476,55.707,183.421,54.834,183.197,53.949z"/>
	<path style="fill:#0F4C84;" d="M195.696,54.868c0.535,0.114,1.054,0.319,1.621,0.241c0.249-0.034,0.476,0.028,0.565,0.311
		c-0.097,0.157-0.231,0.269-0.279,0.481c-0.229,1.016-0.627,1.969-1.171,2.86c-0.139-0.45-0.47-0.559-0.902-0.547
		c-0.464,0.012-0.93-0.02-1.394-0.032C194.611,57.056,195.037,55.907,195.696,54.868z"/>
	<path style="fill:#19477C;" d="M194.135,58.182c0.465,0.013,0.93,0.045,1.394,0.032c0.433-0.012,0.763,0.098,0.902,0.547
		c-0.317,0.876-0.624,1.757-1.077,2.576c-0.902,0.001-1.804,0.001-2.705,0.002C193.101,60.266,193.549,59.191,194.135,58.182z"/>
	<path style="fill:#0A518B;" d="M173.954,53.433c0.837,0,1.673-0.001,2.51-0.001c0,1.038-0.001,2.076-0.001,3.114
		c-0.836,0.001-1.673,0.002-2.509,0.003C173.857,55.51,173.87,54.472,173.954,53.433z"/>
	<path style="fill:#0F4C84;" d="M292.822,54.384c0.813,0.003,1.626,0.006,2.438,0.009c0.159,1.037,0.168,2.075,0.006,3.113
		c-0.816-0.001-1.632-0.003-2.448-0.004C292.743,56.462,292.757,55.423,292.822,54.384z"/>
	<path style="fill:#0A518B;" d="M211.793,53.431c0.837,0,1.673,0.001,2.51,0.001c0.083,1.038,0.096,2.076,0,3.114
		c-0.836,0-1.673,0-2.509,0C211.794,55.508,211.794,54.47,211.793,53.431z"/>
	<path style="fill:#21345F;" d="M292.815,64.689c0.821,0,1.641,0,2.462,0c0.11,1.103,0.068,2.204,0.015,3.356
		c-0.815,0.228-1.598,0.104-2.477,0.094C292.815,66.972,292.815,65.831,292.815,64.689z"/>
	<path style="fill:#0A518B;" d="M202.992,56.98c-0.846,0.156-1.748-0.173-2.558,0.295c-0.523-0.907-0.899-1.878-1.242-2.863
		c0.793-0.454,1.663-0.2,2.498-0.267C202.254,55.03,202.616,56.008,202.992,56.98z"/>
	<path style="fill:#0F4C84;" d="M270.875,82.455c-0.902-0.012-1.803-0.023-2.705-0.035c0.037-1.037,0.317-2.003,0.839-2.9
		c0.896,0.401,1.855,0.199,2.783,0.289C271.263,80.614,271.163,81.567,270.875,82.455z"/>
	<path style="fill:#0A518B;" d="M301.466,77.633c0.898,0.379,1.856,0.15,2.779,0.276c-0.613,0.908-1.176,1.851-1.927,2.659
		c-0.863-0.522-1.817-0.236-2.73-0.304C300.145,79.339,300.749,78.446,301.466,77.633z"/>
	<path style="fill:#939295;" d="M68.358,130.88c-0.001,0.123-0.002,0.247-0.003,0.37c-1.085,0.191-2.104-0.34-3.182-0.296
		C66.234,130.776,67.295,130.793,68.358,130.88z"/>
	<path style="fill:#939295;" d="M29.27,14.638c0.027,0.135,0.119,0.199,0.245,0.228c-0.506,0.48-1.018,0.952-1.695,1.188
		l-0.003-0.004C27.969,15.239,28.745,15.067,29.27,14.638z"/>
	<path style="fill:#214C80;" d="M74.587,9.281c0.001-0.127,0.002-0.255,0.004-0.382c0.805-0.106,1.56,0.262,2.355,0.249
		c0.015,0.096,0.031,0.192,0.046,0.288C76.19,9.385,75.388,9.333,74.587,9.281z"/>
	<path style="fill:#838487;" d="M109.348,126.722c-0.016-0.161-0.115-0.241-0.264-0.273c0.387-0.441,0.885-0.692,1.449-0.855
		C110.343,126.199,109.827,126.44,109.348,126.722z"/>
	<path style="fill:#939295;" d="M76.991,9.437c-0.015-0.096-0.031-0.192-0.046-0.288c0.566-0.128,1.03,0.304,1.584,0.297
		C78.012,9.578,77.502,9.751,76.991,9.437z"/>
	<path style="fill:#939295;" d="M27.819,16.054c-0.081,0.25-0.276,0.26-0.489,0.23l0.016,0.015c0.073-0.24,0.25-0.284,0.469-0.249
		L27.819,16.054z"/>
	<polygon style="fill:#0D5B98;" points="295.638,57.94 295.532,57.974 295.562,57.886 	"/>
	<path style="fill:#1C4173;" d="M228.071,92.431c0.054-0.06,0.108-0.119,0.162-0.179C228.295,92.417,228.221,92.459,228.071,92.431z
		"/>
	<path style="fill:#838487;" d="M110.95,125.219c0.067-0.1,0.173-0.2,0.266-0.092c0.104,0.12-0.037,0.181-0.136,0.228
		C111.037,125.309,110.993,125.264,110.95,125.219z"/>
	<path style="fill:#838487;" d="M111.08,125.354c-0.073,0.054-0.194,0.167-0.213,0.152c-0.178-0.143-0.016-0.209,0.082-0.288
		C110.993,125.264,111.037,125.309,111.08,125.354z"/>
	<path style="fill:#939295;" d="M27.107,16.538c0.011-0.149,0.097-0.223,0.24-0.239l-0.016-0.015
		c0.016,0.175-0.087,0.232-0.239,0.24L27.107,16.538z"/>
	<path style="fill:#939295;" d="M27.092,16.523c-0.03,0.062-0.061,0.124-0.091,0.186c-0.168-0.183,0.047-0.129,0.107-0.171
		C27.107,16.538,27.092,16.523,27.092,16.523z"/>
</g>
</svg>
