<?xml version="1.0" encoding="iso-8859-1"?>
<!-- Generator: Adobe Illustrator 27.0.0, SVG Export Plug-In . SVG Version: 6.00 Build 0)  -->
<svg version="1.1" id="Layer_1" xmlns="http://www.w3.org/2000/svg" xmlns:xlink="http://www.w3.org/1999/xlink" x="0px" y="0px"
	 viewBox="0 0 1670 574" style="enable-background:new 0 0 1670 574;" xml:space="preserve">
<g>
	<path style="fill:#202B54;" d="M753,574c-3.593-1.926-7.635-1.507-11.447-1.892c-27.603-2.785-53.26-11.176-76.709-26.07
		c-3.903-2.479-7.545-5.368-11.574-8.259c-1.529,9.715-2.996,19.037-4.504,28.624c-20.303,0-40.566,0-61.139,0
		c0-170.872,0-341.896,0-513.266c23.208,0,46.434,0,70.103,0c0,57.127,0,114.374,0,171.797c2.141-0.463,3.374-1.599,4.705-2.54
		c20.161-14.257,42.582-22.897,66.774-27.46c12.17-2.295,24.466-3.41,36.729-3.428c35.937-0.053,70.021,7.6,100.687,27.197
		c19.206,12.273,34.85,28.254,47.336,47.328c14.06,21.478,22.405,45.143,27.032,70.252c4.438,24.082,5.24,48.346,2.799,72.641
		c-3.461,34.445-13.28,66.795-33.582,95.352c-20.315,28.575-47.075,48.53-80.367,59.66c-15.858,5.302-32.107,8.492-48.837,9.12
		c-0.8,0.03-1.693-0.128-2.006,0.943c-1.333,0-2.667,0-4,0c-0.162-0.267-0.312-0.758-0.487-0.767
		c-5.009-0.258-10.021-0.393-15.028-0.004c-0.18,0.014-0.324,0.503-0.485,0.771C757,574,755,574,753,574z M666.903,382.279
		c0.053,12.167,0.873,24.254,2.931,36.278c3.491,20.401,9.828,39.639,21.9,56.707c11.648,16.469,27.045,27.858,46.357,33.632
		c12.705,3.799,25.695,4.717,38.999,3.403c12.822-1.267,24.79-4.793,35.94-11.016c18.569-10.364,31.245-26.102,40.008-45.177
		c8.878-19.327,12.511-39.92,13.744-60.945c1.174-20.025-0.258-39.93-4.79-59.522c-5.194-22.457-14.486-42.74-31.437-58.986
		c-18.074-17.321-39.907-24.62-64.527-24.284c-5.615,0.077-11.27,0.536-16.883,1.51c-12.321,2.139-23.718,6.521-34.031,13.498
		c-18.775,12.701-30.748,30.571-38.237,51.645C669.609,339.467,666.907,360.669,666.903,382.279z"/>
	<path style="fill:#1F2B54;" d="M0,274c1.275-0.472,0.919-1.606,0.988-2.53c3.251-43.372,14.322-84.499,35.662-122.574
		c9.307-16.606,20.499-31.892,33.45-45.923c16.756-18.153,35.872-33.269,57.341-45.378c24.545-13.844,50.699-23.12,78.578-27.77
		c22.657-3.779,45.337-4.769,68.172-2.726c40.113,3.589,76.992,16.208,109.72,39.986c16.236,11.796,30.387,25.947,44.15,40.481
		c1.486,1.569,2.952,3.158,4.921,5.267c-15.236,15.356-30.419,30.657-45.574,45.931c-1.793-0.543-2.549-1.918-3.551-2.967
		c-12.907-13.503-26.155-26.589-41.853-36.961c-17.197-11.363-35.995-18.386-56.218-22.076c-17.864-3.26-35.818-3.638-53.735-1.62
		c-26.725,3.01-51.421,11.929-73.454,27.625c-24.139,17.196-42.196,39.503-54.916,66.155c-10.967,22.98-17.992,47.112-20.883,72.47
		c-1.285,11.266-2.311,22.55-2.423,33.858c-0.149,14.983,0.643,29.951,2.807,44.819c2.4,16.491,6.093,32.652,11.706,48.365
		c11.261,31.524,28.639,58.882,54.818,80.165c19.212,15.619,41.16,25.373,65.367,30.5c17.313,3.667,34.767,4.042,52.199,2.646
		c25.713-2.059,49.815-9.83,72.062-23.032c15.71-9.322,29.874-20.561,42.091-34.198c1.329-1.483,2.86-2.786,3.848-3.739
		c15.764,15.765,31.607,31.611,47.686,47.691c-6.849,8.571-14.778,17.561-23.776,25.521c-10.492,9.281-21.705,17.629-33.683,24.927
		c-14.407,8.778-29.758,15.5-45.641,21.075c-14.803,5.196-30.083,8.612-45.579,10.527c-19.007,2.349-38.117,3.296-57.33,1.793
		c-17.81-1.393-35.331-4.191-52.528-8.888c-25.262-6.899-48.637-17.907-70.069-32.998c-38.63-27.201-65.272-63.598-82.516-107.269
		c-8.342-21.126-14.205-42.91-17.518-65.351c-1.53-10.362-2.871-20.772-3.337-31.262C0.937,325.615,1.258,324.484,0,324
		c0-10.667,0-21.333,0-32c1.841-4.54,1.122-9.165,0.433-13.784C0.42,278.124,0.15,278.071,0,278C0,276.667,0,275.333,0,274z"/>
	<path style="fill:#1F2B54;" d="M1126,574c-0.77-1.686-2.314-0.923-3.506-1.01c-23.922-1.747-47-6.835-68.806-17.107
		c-23.436-11.04-42.507-27.179-57.103-48.599c-12.533-18.393-20.391-38.77-25.478-60.296c-2.679-11.338-4.308-22.842-5.288-34.465
		c-1.036-12.29-1.917-24.58-1.56-36.908c0.77-26.622,4.959-52.674,14.938-77.467c17.461-43.386,47.039-75.273,90.638-93.317
		c15.756-6.521,32.264-10.151,49.237-11.982c13.303-1.435,26.585-1.743,39.887-0.685c37.634,2.992,71.824,14.938,100.805,39.775
		c17.969,15.4,31.481,34.248,41.423,55.675c8.82,19.009,13.799,39.096,16.832,59.754c2.652,18.062,2.753,36.228,1.633,54.338
		c-1.986,32.112-9.967,62.677-26.359,90.628c-15.616,26.626-37.073,47.247-64.541,61.55c-16.824,8.761-34.571,14.493-53.339,17.199
		c-6.095,0.879-12.174,1.794-18.337,2.004c-9.051-0.042-18.103-0.082-27.154-0.127c-0.838-0.004-1.653,0.008-1.925,1.04
		C1127.333,574,1126.667,574,1126,574z M1242.341,380.307c-0.239-5.757-0.22-13.901-1.114-22.042
		c-1.735-15.784-5.104-31.121-11.181-45.817c-4.543-10.987-10.486-21.142-18.376-30.082c-15.456-17.513-34.878-27.17-58.093-29.554
		c-19.35-1.987-37.837,0.736-55.168,9.703c-19.91,10.301-33.277,26.695-42.387,46.814c-9.48,20.937-12.954,43.181-13.854,65.925
		c-0.588,14.847,0.436,29.632,2.947,44.263c2.711,15.796,7.343,31.017,15.163,45.115c10.587,19.087,25.339,33.689,45.89,41.807
		c15.636,6.177,31.839,7.736,48.513,5.752c22.792-2.712,41.841-12.447,57.024-29.661c9.135-10.357,15.639-22.269,20.376-35.18
		C1239.74,426.476,1242.523,404.818,1242.341,380.307z"/>
	<path style="fill:#1F2B54;" d="M1670,387c-1.555,0.596-0.926,1.967-0.956,3.002c-0.092,3.137-0.033,6.279-0.033,9.903
		c-84.767,0.243-169.149,0.484-253.753,0.727c-0.516,6.381,0.277,12.327,0.888,18.231c1.373,13.28,4.35,26.181,9.674,38.519
		c10.805,25.043,29.096,41.718,55.155,49.776c18.545,5.735,37.492,6.745,56.761,5.113c17.756-1.504,34.678-6.008,51.083-12.706
		c15.075-6.155,28.652-14.787,41.085-25.261c0.764-0.644,1.547-1.265,2.81-2.296c10.228,16.543,20.394,32.984,30.669,49.602
		c-9.307,8.3-19.179,15.616-29.898,21.752c-22.012,12.601-45.671,20.763-70.549,25.276c-24.192,4.388-48.62,5.959-73.105,3.164
		c-42.497-4.851-78.91-22.045-107.051-54.868c-16.036-18.704-26.84-40.333-33.776-63.955c-8.598-29.283-10.631-59.231-8.748-89.478
		c1.689-27.131,7.798-53.385,19.755-77.853c21.972-44.962,57.026-74.594,105.662-87.548c18.628-4.962,37.669-6.936,56.878-5.891
		c26.468,1.44,51.529,8.079,74.172,22.38c21.787,13.76,38.03,32.571,50.19,55.15c9.732,18.072,15.327,37.462,19.04,57.504
		c1.639,8.848,2.636,17.764,3.096,26.745c0.041,0.798-0.117,1.696,0.952,2.011c0,2,0,4,0,6c-1.371,2.991-1.371,15.033,0,18
		C1670,382.333,1670,384.667,1670,387z M1415.234,345.04c61.421,0,122.442,0,183.449,0c0.756-4.172-0.277-7.929-0.483-11.723
		c-0.609-11.207-3.125-22.002-7.164-32.437c-6.684-17.271-17.332-31.35-33.483-40.872c-9.573-5.644-19.938-8.892-30.936-10.467
		c-12.494-1.79-24.935-1.612-37.214,1.039c-27.646,5.969-47.319,22.442-60.457,47.1
		C1421.127,312.356,1416.83,328.106,1415.234,345.04z"/>
	<path style="fill:#3AB54B;" d="M454,0c0.581,1.646,2.034,2.564,3.18,3.715c12.913,12.965,25.864,25.892,38.777,38.857
		c1.148,1.153,2.636,2.063,3.078,3.509c-15.28,15.258-30.45,30.406-45.322,45.257c-14.949-14.927-30.189-30.145-45.649-45.583
		c0.35-1.122,1.834-2.034,2.984-3.187c12.917-12.961,25.874-25.882,38.791-38.843C450.984,2.575,452.446,1.663,453,0
		C453.333,0,453.667,0,454,0z"/>
	<path style="fill:#7F7C96;" d="M1128,574c0.271-1.032,1.086-1.044,1.925-1.04c9.051,0.045,18.103,0.085,27.154,0.127
		c-0.207,0.289-0.233,0.593-0.079,0.913C1147.333,574,1137.667,574,1128,574z"/>
	<path style="fill:#918EA5;" d="M1670,380c-1.371-2.967-1.371-15.009,0-18C1670,368,1670,374,1670,380z"/>
	<path style="fill:#686684;" d="M759,574c0.161-0.268,0.304-0.757,0.485-0.771c5.008-0.389,10.02-0.254,15.028,0.004
		c0.175,0.009,0.325,0.5,0.487,0.767C769.667,574,764.333,574,759,574z"/>
	<path style="fill:#515272;" d="M0,278c0.15,0.071,0.42,0.124,0.433,0.216C1.122,282.835,1.841,287.46,0,292
		C0,287.333,0,282.667,0,278z"/>
	<path style="fill:#3DB54B;" d="M519.573,67.084c15.64,15.641,30.799,30.8,45.614,45.615c-14.966,15.123-30.12,30.437-45.002,45.475
		c-15.031-15.031-30.175-30.174-45.71-45.71C489.321,97.524,504.59,82.16,519.573,67.084z"/>
	<path style="fill:#3FB54C;" d="M453.391,224.971c-15.076-15.07-30.255-30.243-45.14-45.122
		c15.106-15.058,30.38-30.282,45.384-45.238c14.734,14.72,30.006,29.977,45.096,45.052
		C483.859,194.525,468.676,209.697,453.391,224.971z"/>
</g>
</svg>
