<?xml version="1.0" encoding="iso-8859-1"?>
<!-- Generator: Adobe Illustrator 27.0.0, SVG Export Plug-In . SVG Version: 6.00 Build 0)  -->
<svg version="1.1" id="Layer_1" xmlns="http://www.w3.org/2000/svg" xmlns:xlink="http://www.w3.org/1999/xlink" x="0px" y="0px"
	 viewBox="0 0 1533.541 403.336" style="enable-background:new 0 0 1533.541 403.336;" xml:space="preserve">
<g>
	<path style="fill:#616264;" d="M556.321,402.293c2.196-6.756,5.518-13.034,8.352-19.515c11.826-27.046,23.74-54.052,35.643-81.064
		c2.538-5.759,5.167-11.478,7.765-17.239c4.146-0.632,8.111-0.119,12.305-0.342c2.49,5.56,4.932,10.977,7.345,16.406
		c14.412,32.434,28.824,64.868,43.202,97.317c0.663,1.496,1.628,2.93,1.563,4.685c-4.442-0.066-8.885-0.129-13.327-0.203
		c-0.855-0.014-1.64,0.063-2.009,1c-0.667,0-1.333,0-2,0c-2.317-7.635-6.409-14.494-9.558-21.766
		c-1.899-4.384-4.086-8.643-6.103-12.872c-17.009,0-33.623,0-50.135,0c-0.439,0.565-0.835,0.914-1.032,1.353
		c-4.691,10.443-9.37,20.892-14.009,31.359c-0.247,0.557-0.118,1.28-0.164,1.925c-0.667,0-1.333,0-2,0
		c-0.623-1.462-1.93-0.964-2.997-0.978C564.882,402.3,560.601,402.309,556.321,402.293z M596.366,353.015
		c12.392,0,24.374,0,36.688,0c-6.417-14.101-12.38-27.938-19.26-42.069C607.775,325.475,602.095,339.185,596.366,353.015z"/>
	<path style="fill:#616364;" d="M771.159,403.336c0.625-1.616,0.274-3.297,0.275-4.941c0.025-34.307,0.005-68.614,0.04-102.921
		c0.004-3.458,0.305-6.916,0.48-10.609c22.425,0,44.508,0,66.942,0c0.721,4.922,0.22,9.834,0.304,15.284
		c-16.776,0-33.328,0-50.126,0c0,11.938,0,23.331,0,35.228c16.175,0,32.241,0,48.579,0c0.415,5.244,0.342,9.989,0.029,15.187
		c-16.261,1.102-32.368,0.1-49.161,0.653c-0.111,11.999-0.029,23.865-0.056,36.278c17.611,0,34.826,0,52.695,0
		c0,5.634,0,10.737,0,15.841c-0.667,0-1.333,0-2,0c-0.704-1.398-2.008-0.902-3.088-0.903c-19.941-0.024-39.882-0.024-59.823,0
		c-1.08,0.001-2.384-0.493-3.089,0.904C772.492,403.336,771.826,403.336,771.159,403.336z"/>
	<path style="fill:#626364;" d="M684.159,403.336c-0.045-4.993-0.129-9.985-0.13-14.978c-0.011-32.629-0.005-65.258-0.005-97.887
		c0-1.793,0-3.586,0-5.106c1.837-1.16,3.372-0.733,4.824-0.739c9.988-0.042,19.977-0.091,29.965,0.008
		c4.812,0.048,9.59,0.584,14.332,1.549c14.135,2.876,23.404,14.126,25.325,27.273c1.962,13.423-4.318,26.299-14.325,32.118
		c-6.151,3.577-12.844,5.441-19.889,5.679c-7.467,0.253-14.948,0.057-21.694,0.057c-1.385,0.788-1.52,1.426-1.518,2.102
		c0.034,16.642,0.075,33.283,0.114,49.925C695.492,403.336,689.826,403.336,684.159,403.336z M701.204,336.187
		c7.599,0,14.74,0.094,21.876-0.046c2.816-0.055,5.552-0.92,8.152-2.058c7.406-3.241,10.234-9.898,9.778-17.509
		c-0.476-7.952-4.236-12.988-11.993-15.334c-3.76-1.137-7.564-1.042-11.379-0.983c-5.431,0.083-10.885-0.377-16.434,0.303
		C701.204,312.472,701.204,324.09,701.204,336.187z"/>
	<path style="fill:#616364;" d="M495.036,402.424c-0.045-6.659-0.125-13.318-0.129-19.977c-0.014-30.478-0.006-60.955-0.006-91.433
		c0-1.803,0-3.606,0-5.115c0.656-0.459,0.917-0.801,1.172-0.797c14.462,0.219,28.932-1.262,43.387,0.259
		c16.875,1.776,28.337,13.466,29.875,28.985c1.304,13.158-2.831,23.568-13.866,30.871c-6.068,4.016-13.053,5.725-20.282,6.049
		c-5.985,0.268-11.988,0.137-17.981,0.258c-1.619,0.033-3.319-0.452-4.818,0.443c-0.727,1.121-0.46,2.312-0.462,3.446
		c-0.02,15.322-0.018,30.644-0.006,45.966c0.001,0.653,0.156,1.305,0.239,1.957c-0.667,0-1.333,0-2,0
		c-0.655-1.387-1.927-0.916-2.982-0.925C503.131,402.379,499.083,402.414,495.036,402.424z M512.207,300.137
		c0,12.503,0,24.2,0,36.196c5.782,0,11.241,0.01,16.7-0.006c1.66-0.005,3.327,0.003,4.977-0.145
		c10.859-0.974,16.305-5.893,17.749-16.508c1.305-9.594-4.163-16.694-11.981-18.459C530.624,299.174,521.53,300.787,512.207,300.137
		z"/>
	<path style="fill:#9A9899;" d="M773.159,403.336c0.704-1.397,2.009-0.902,3.089-0.904c19.941-0.024,39.882-0.024,59.823,0
		c1.08,0.001,2.384-0.495,3.088,0.903C817.159,403.336,795.159,403.336,773.159,403.336z"/>
	<path style="fill:#7F7E7F;" d="M926.159,403.336c0.098-0.358,0.196-0.716,0.294-1.074c6.582,0.022,13.163,0.044,19.745,0.066
		c0.57,0.098,0.819,0.502,0.961,1.008C940.159,403.336,933.159,403.336,926.159,403.336z"/>
	<path style="fill:#7F7E7F;" d="M872.978,402.287c0.06,0.35,0.121,0.699,0.182,1.049c-5.667,0-11.333,0-17,0
		c0.054-0.348,0.109-0.697,0.163-1.045C861.874,402.29,867.426,402.289,872.978,402.287z"/>
	<path style="fill:#7F7E7F;" d="M556.321,402.293c4.281,0.016,8.562,0.007,12.842,0.065c1.067,0.014,2.374-0.484,2.997,0.978
		c-5.333,0-10.667,0-16,0C556.213,402.988,556.267,402.641,556.321,402.293z"/>
	<path style="fill:#959293;" d="M495.036,402.424c4.047-0.01,8.095-0.045,12.141-0.012c1.055,0.009,2.327-0.462,2.982,0.925
		c-5,0-10,0-15,0C494.957,403.054,494.916,402.75,495.036,402.424z"/>
	<path style="fill:#7F7E7F;" d="M657.159,403.336c0.37-0.937,1.155-1.015,2.009-1c4.442,0.074,8.884,0.137,13.327,0.203
		c0.051,0.335-0.061,0.6-0.336,0.797C667.159,403.336,662.159,403.336,657.159,403.336z"/>
	<path style="fill:#959293;" d="M984.13,402.318c0.01,0.34,0.02,0.679,0.03,1.019c-3.667,0-7.333,0-11,0
		c0.004-0.336,0.007-0.671,0.011-1.007C976.823,402.325,980.476,402.321,984.13,402.318z"/>
	<path style="fill:#58B249;" d="M141.111,142.331c0-7.639,0-15.279,0-22.863C188.389,79.697,235.348,40.195,283.131,0
		c0,2.115,0,3.464,0,4.812c0,44.125,0.015,88.25-0.059,132.376c-0.003,1.75,1.206,4.132-1.533,5.18
		c-0.449-0.044-0.899-0.089-1.348-0.133c-0.748-1.337-2.038-0.872-3.129-0.872c-43.601-0.018-87.202-0.018-130.803,0
		c-1.092,0-2.382-0.465-3.13,0.872c-0.28,0.021-0.56,0.048-0.839,0.081c-0.252-0.033-0.505-0.065-0.757-0.094L141.111,142.331z"/>
	<path style="fill:#58B249;" d="M318.218,262.319c0,7.143,0,14.287,0,21.926c-46.955,39.241-94.124,78.661-141.41,118.179
		c-1.082-1.543-0.685-2.873-0.685-4.097c-0.026-44.107-0.029-88.214,0.01-132.321c0.001-1.583-0.645-3.34,0.713-4.749
		c0.434,0.044,0.868,0.087,1.302,0.131c1.219,1.81,3.06,0.903,4.584,0.905C227.894,262.34,273.056,262.325,318.218,262.319z"/>
	<path style="fill:#A9D099;" d="M318.157,142.337c0.515-1.239,1.619-0.933,2.563-0.932c45.815,0.009,91.629,0.029,137.444,0.053
		c0.158,0,0.317,0.078,0.699,0.179c-0.937,2.09-2.73,3.347-4.328,4.702c-12.774,10.838-25.558,21.666-38.401,32.423
		c-11.314,9.477-22.731,18.832-34.059,28.292c-6.749,5.636-13.39,11.4-20.125,17.052c-9.908,8.314-19.898,16.531-29.771,24.887
		c-4.557,3.857-8.884,7.985-13.725,11.503c-0.099-1.817-0.285-3.634-0.286-5.451C318.152,217.474,318.156,179.906,318.157,142.337z"
		/>
	<path style="fill:#A9D099;" d="M141.254,261.167c-1.492,0.078-2.985,0.223-4.477,0.223c-43.986,0.012-87.971,0.01-131.957,0.01
		c-1.418,0-2.837,0-4.82,0c3.439-4.628,7.712-7.304,11.42-10.526c9.763-8.482,19.79-16.66,29.727-24.94
		c9.298-7.748,18.647-15.436,27.916-23.219c7.244-6.083,14.366-12.311,21.603-18.401c9.77-8.222,19.612-16.358,29.397-24.562
		c6.739-5.65,13.433-11.354,20.158-17.022c0.239-0.201,0.591-0.269,0.89-0.399l0.422-0.11c-0.119,0.817-0.343,1.634-0.342,2.451
		C141.199,183.504,141.228,222.335,141.254,261.167z"/>
	<path style="fill:#077E44;" d="M318.157,142.337c0,37.569-0.005,75.138,0.012,112.707c0.001,1.817,0.186,3.634,0.286,5.451
		c-0.06,0.279-0.146,0.549-0.261,0.81c-5.15,0.011-10.3,0.029-15.45,0.031c-41.532,0.019-83.064,0.035-124.596,0.052
		c-0.434-0.044-0.868-0.087-1.302-0.131c3.367-3.918,7.576-6.912,11.482-10.213c26.773-22.626,53.64-45.14,80.478-67.688
		c15.644-13.144,31.288-26.287,46.939-39.422C316.484,143.314,317.029,142.378,318.157,142.337z"/>
	<path style="fill:#077E44;" d="M280.19,142.235c0.449,0.044,0.899,0.089,1.348,0.133c-5.79,6.236-12.682,11.226-19.107,16.732
		c-20.602,17.658-41.388,35.1-62.099,52.63c-18.296,15.486-36.579,30.987-54.903,46.441c-0.985,0.831-1.882,1.905-3.265,2.188
		c0.002-27.562-0.007-55.123,0.012-82.685c0.008-11.787,0.074-23.573,0.113-35.36c0.279-0.032,0.559-0.059,0.839-0.081
		c10.798,0.027,21.597,0.079,32.395,0.075C210.412,142.296,245.301,142.261,280.19,142.235z"/>
	<path style="fill:#626364;" d="M1149.103,141.629c5.45,0,10.574,0,16.194,0c-15.925,40.053-31.716,79.771-47.424,119.279
		c-1.555,0.814-2.829,0.709-4.528,0.138c-12.488-31.581-25.069-63.397-37.65-95.213c-0.406,0.002-0.812,0.004-1.218,0.006
		c-12.924,31.709-25.849,63.419-38.694,94.934c-1.261,0.959-2.348,0.859-3.902,0.1c-15.78-39.369-31.689-79.06-47.757-119.149
		c5.998,0,11.577,0,17.831,0c10.392,26.639,20.918,53.623,31.856,81.662c11.292-27.833,22.226-54.784,33.175-81.77
		c5.458,0,10.587,0,16.234,0c10.728,26.763,21.513,53.666,32.679,81.521C1127.453,195.596,1138.01,168.486,1149.103,141.629z"/>
	<path style="fill:#626364;" d="M905.477,259.752c0-39.322,0-78.531,0-117.705c1.24-1.031,2.628-0.586,3.9-0.585
		c9.824,0.003,19.652-0.095,29.47,0.169c7.045,0.189,13.74,1.902,19.898,5.624c7.05,4.261,11.746,10.201,13.742,18.169
		c2.746,10.959,1.318,21.121-6.408,29.816c-3.229,3.635-7.293,6.251-12.079,8.452c11.003,7.966,17.923,18.9,24.497,30.041
		c5.237,8.876,11.394,17.109,17.611,25.987c-6.811,0-13.154,0-19.795,0c-0.977-0.49-1.546-1.697-2.269-2.817
		c-6.672-10.326-12.829-20.988-19.975-31.003c-3.087-4.325-6.423-8.433-10.458-12.004c-4.516-3.995-9.66-5.64-15.532-5.557
		c-1.797,0.025-3.595,0.004-5.774,0.004c0,17.264,0,34.18,0,51.409C916.532,259.752,911.142,259.752,905.477,259.752z
		 M922.437,193.447c5.549,0,10.842,0.245,16.104-0.051c11.334-0.637,17.511-6.954,18.251-18.253
		c0.54-8.244-3.786-14.516-11.757-16.771c-7.432-2.103-14.997-1.141-22.599-1.225C922.437,169.544,922.437,181.418,922.437,193.447z
		"/>
	<path style="fill:#626364;" d="M1491.658,203.682c10.161,7.357,16.644,17.01,22.648,27.036c5.216,8.71,10.849,17.136,16.853,25.319
		c0.756,1.03,1.386,2.153,2.381,3.713c-6.817,0-13.041,0-19.403,0c-1.541-0.932-2.234-2.672-3.225-4.191
		c-7.63-11.686-14.344-23.99-23.16-34.875c-4.311-5.323-8.947-10.301-16.176-11.82c-3.653-0.768-7.246-0.35-11.306-0.528
		c0,17.152,0,34.06,0,51.347c-5.801,0-11.185,0-16.9,0c0-39.2,0-78.422,0-117.676c1.133-1.001,2.528-0.546,3.802-0.548
		c9.496-0.009,18.996-0.102,28.487,0.122c8.099,0.191,15.803,2.055,22.567,6.816c7.813,5.499,12.149,12.993,12.943,22.543
		C1512.435,186.148,1506.064,196.925,1491.658,203.682z M1460.623,157.199c-0.762,4.608-0.769,31.575-0.001,36.325
		c5.88,0.114,11.847,0.475,17.759-0.289c8.142-1.052,14.166-6.062,15.451-13.445c1.714-9.846,0.063-19.253-13.49-21.965
		C1473.797,156.516,1467.172,157.098,1460.623,157.199z"/>
	<path style="fill:#616264;" d="M872.978,402.287c-5.552,0.001-11.103,0.003-16.655,0.004c-0.054-1.494-0.154-2.988-0.154-4.481
		c-0.009-35.944-0.013-71.888,0.013-107.832c0.001-1.623-0.372-3.303,0.349-4.847c1.074-0.865,2.287-0.515,3.405-0.502
		c11.302,0.132,22.623-0.545,33.899,0.688c10.767,1.177,19.813,5.55,25.847,14.844c8.593,13.235,7.102,36.279-12.304,45.438
		c-0.715,0.337-1.381,0.78-2.338,1.326c11.546,8.547,18.651,20.384,25.635,32.283c4.711,8.028,10.731,15.159,15.525,23.121
		c-6.582-0.022-13.163-0.044-19.745-0.066c-6.628-10.313-13.207-20.657-19.915-30.918c-1.9-2.907-4.146-5.591-6.28-8.34
		c-6.707-8.639-15.208-13.11-27.001-11.083C873.164,368.574,873.071,385.431,872.978,402.287z M873.362,336.174
		c5.3,0,10.424,0.236,15.51-0.099c2.582-0.17,5.251-0.68,7.732-1.734c6.345-2.695,10.209-7.235,10.704-14.279
		c0.128-1.821,0.124-3.658,0.067-5.484c-0.197-6.357-3.505-10.762-9.215-13.009c-8.058-3.17-16.506-2.259-24.798-2.074
		C873.362,312.012,873.362,323.945,873.362,336.174z"/>
	<path style="fill:#616364;" d="M894.556,260.345c-6.348,0-11.812,0-17.697,0c-5.249-11.233-10.56-22.599-15.872-33.968
		c-16.911,0-33.529,0-50.661,0c-5.001,11.141-10.076,22.446-15.216,33.894c-5.88,0-11.645,0-17.892,0
		c16.968-39.739,33.802-79.164,50.655-118.634c4.129,0,7.921,0,12.317,0C858.146,180.843,876.209,220.284,894.556,260.345z
		 M836.38,168.112c-3.956,6.459-16.777,38.401-16.878,41.916c11.76,0,23.517,0,35.87,0
		C848.977,195.916,842.746,182.162,836.38,168.112z"/>
	<path style="fill:#616364;" d="M1260.75,260.273c-6.217,0-11.667,0-17.662,0c-5.225-11.159-10.548-22.529-15.868-33.894
		c-16.947,0-33.586,0-50.684,0c-5.005,11.173-10.073,22.486-15.193,33.915c-5.752,0-11.359,0-16.989,0
		c0.502-3.866,45.585-110.441,50.182-118.703c3.721,0,7.528,0,11.862,0C1224.4,180.899,1242.466,220.347,1260.75,260.273z
		 M1201.503,167.397c-6.061,14.63-11.781,28.435-17.573,42.416c8.989,0.868,32.661,0.564,36.543-0.509
		C1214.265,195.589,1208.083,181.934,1201.503,167.397z"/>
	<path style="fill:#626364;" d="M597.763,233.594c0,5.835,0,11.766,0,18.217c-6.336,3.648-13.249,6.75-20.748,8.32
		c-8.652,1.811-17.422,2.567-26.275,2.165c-29.968-1.362-53.773-20.587-59.113-50.44c-4.837-27.039,8.558-53.368,33.628-65.068
		c15.446-7.209,31.538-8.459,48.126-4.572c8.069,1.891,15.799,4.702,23.506,7.434c0,6.093,0,11.86,0,18.115
		c-4.52-2.166-8.563-4.448-12.849-6.096c-15.985-6.147-32.283-8.132-48.505-1.288c-16.262,6.86-25.368,19.399-26.677,37.111
		c-1.001,13.535,2.385,25.776,12.423,35.48c7.664,7.409,16.989,11.178,27.568,12.539c17.004,2.187,32.161-2.54,46.395-11.345
		C595.947,233.728,596.606,233.191,597.763,233.594z"/>
	<path style="fill:#626364;" d="M1358.573,141.533c22.288,0,44.083,0,66.544,0c0.148,5.09,0.284,10.098-0.168,15.497
		c-16.531,0-32.794,0-49.353,0c0,12.097,0,23.816,0,36.122c16.104,0,31.986,0,48.076,0c0,5.188,0,9.797,0,15.104
		c-5.189,0.191-10.442,0.058-15.685,0.081c-5.329,0.024-10.658,0.005-15.988,0.005c-5.325,0-10.651,0-16.34,0
		c0,12.205,0,24.257,0,36.894c16.904,0,33.936,0,51.141,0c0,5.32,0,10.056,0,15.028c-22.811,0-45.379,0-68.227,0
		C1358.573,220.732,1358.573,181.359,1358.573,141.533z"/>
	<path style="fill:#616264;" d="M768.181,245.303c0,5.162,0,9.782,0,14.411c-3.387,0.99-59.183,1.337-67.821,0.383
		c0-39.356,0-78.743,0-118.394c22.046,0,43.972,0,66.279,0c0,4.815,0,9.721,0,15.175c-16.223,0-32.611,0-49.278,0
		c0,12.274,0,24.012,0,36.199c15.829,0,31.567,0,47.573,0c0,5.188,0,9.934,0,15.103c-15.743,0-31.484,0-47.54,0
		c0,12.467,0,24.52,0,37.122C734.239,245.303,751.124,245.303,768.181,245.303z"/>
	<path style="fill:#636465;" d="M1342.126,141.747c0,5.07,0,9.863,0,15.177c-13.498,0-26.904,0-40.844,0
		c0,34.736,0,68.957,0,103.377c-5.815,0-11.089,0-16.918,0c0-34.276,0-68.496,0-103.074c-13.805,0-27.067,0-40.893,0
		c-0.476-5.221-0.127-10.135-0.243-14.985C1247.081,141.192,1329.887,140.783,1342.126,141.747z"/>
	<path style="fill:#616364;" d="M683.923,245.124c0,5.421,0,10.035,0,15.013c-23.16,0-46.208,0-69.589,0c0-39.311,0-78.7,0-118.393
		c5.374,0,10.765,0,16.512,0c0,34.412,0,68.672,0,103.381C648.6,245.124,666.013,245.124,683.923,245.124z"/>
	<path style="fill:#6B6A6C;" d="M984.13,402.318c-3.653,0.004-7.306,0.008-10.959,0.012c-9.977-3.159-15.105-10.977-13.915-21.212
		c1.011-8.694,8.173-16.001,16.638-16.67c9.306-0.735,19.142,3.2,21.884,15.953C999.792,389.77,994.077,398.866,984.13,402.318z
		 M978.529,368.103c-7.136-1.02-15.887,6.211-15.835,15.727c0.049,8.886,6.865,15.371,15.867,15.84
		c8.226,0.429,16.08-8.072,15.881-15.89C994.217,374.983,987.489,368.119,978.529,368.103z"/>
	<path style="fill:#76B864;" d="M178.148,261.388c41.532-0.017,83.064-0.033,124.596-0.052c5.15-0.002,10.3-0.021,15.45-0.031
		c0.008,0.338,0.016,0.676,0.024,1.015c-45.162,0.005-90.324,0.021-135.486-0.027C181.208,262.291,179.367,263.198,178.148,261.388z
		"/>
	<path style="fill:#60A26B;" d="M142.29,142.315c-0.039,11.787-0.105,23.573-0.113,35.36c-0.019,27.562-0.009,55.123-0.012,82.685
		c-0.051,0.554-0.31,0.874-0.911,0.808c-0.026-38.832-0.055-77.664-0.064-116.495c0-0.817,0.223-1.634,0.342-2.451
		C141.785,142.25,142.038,142.281,142.29,142.315z"/>
	<path style="fill:#60A26B;" d="M280.19,142.235c-34.889,0.026-69.778,0.061-104.667,0.075c-10.798,0.004-21.597-0.048-32.395-0.075
		c0.748-1.337,2.038-0.871,3.13-0.872c43.601-0.018,87.202-0.018,130.803,0C278.153,141.363,279.442,140.898,280.19,142.235z"/>
	<path style="fill:#6B6A6C;" d="M978.76,386.671c-1.579-0.425-2.877-0.419-4.448-0.019c-0.917,2.218,0.069,4.786-0.573,6.915
		c-0.969,1.135-1.973,0.599-3.207,0.711c0-6.881,0-13.611,0-20.956c3.088,0,6.187-0.078,9.281,0.021
		c3.472,0.111,5.979,1.9,6.697,4.87c0.702,2.902-0.497,5.132-2.955,6.73c-0.413,0.269-0.817,0.552-1.239,0.839
		c2.537,2.542,4.121,5.563,5.162,8.877c-1.054,0.681-1.998,0.74-3.222,0.238C982.436,392.411,981.318,389.19,978.76,386.671z
		 M982.841,376.645c-3.045-0.802-5.739-0.611-8.662-0.341c-0.308,2.026-0.443,3.727,0.069,5.382
		C981.635,382.705,982.9,382.002,982.841,376.645z"/>
</g>
</svg>
