<?xml version="1.0" encoding="iso-8859-1"?>
<!-- Generator: Adobe Illustrator 27.0.0, SVG Export Plug-In . SVG Version: 6.00 Build 0)  -->
<svg version="1.1" id="Layer_1" xmlns="http://www.w3.org/2000/svg" xmlns:xlink="http://www.w3.org/1999/xlink" x="0px" y="0px"
	 viewBox="0 0 1601.361 532" style="enable-background:new 0 0 1601.361 532;" xml:space="preserve">
<g>
	<path style="fill:#4955A5;" d="M1601.361,362c-16.311,6.661-33.332,8.906-50.799,7.731c-9.4-0.632-18.243-3.539-26.327-8.436
		c-8.778-5.318-13.561-13.464-15.862-23.239c-2.106-8.947-2.91-18.051-2.928-27.217c-0.064-33.333-0.071-66.666-0.099-99.999
		c-0.001-1.797,0-3.593,0-5.734c-8.323,0-16.258,0-24.108,0c-0.874-3.952-1.044-37.541-0.233-43.529c7.846,0,15.783,0,24.133,0
		c0-13.735,0-27.008,0-39.951c3.91-3.025,49.966-29.583,54.738-31.571c0,23.563,0,46.938,0,70.784
		c12.32,0.733,24.229,0.352,36.413,0.538c0,14.6,0,28.836,0,43.596c-11.903,0-23.811,0-35.416,0
		c-0.976,1.578-0.668,2.765-0.667,3.888c0.025,32.5,0.068,64.999,0.128,97.499c0.005,2.656,0.048,5.29,0.775,7.919
		c1.668,6.031,5.362,9.172,11.64,9.848c5.971,0.642,11.503-1.024,17.065-2.793c1.997-0.635,3.924-1.834,6.531-1.264
		c1.401,4.522,1.229,9.379,1.876,14.09c0.949,6.913,1.501,13.881,2.223,20.826c0.058,0.558,0.438,0.835,0.919,1.017
		C1601.361,358,1601.361,360,1601.361,362z"/>
	<path style="fill:#F58022;" d="M298.361,532c-0.295-1.215-1.49-1.44-2.318-1.574c-5.186-0.842-8.261-4.65-11.671-8.011
		c-1.766-1.74-0.279-5.313-3.598-5.646c0-3.567,0-6.552-0.002-9.539c0.236-1.429,2.22-0.944,2.536-2.693
		c1.072-5.933,5.63-8.498,10.765-10.392c1.094-0.404,2.078-1.104,3.762-2.021c7.041-1.176,14.004,0.639,19.916,6.06
		c7.695,7.056,9.073,17.933,1.382,25.764c-3.939,4.01-8.511,6.515-13.771,8.053C303.028,532,300.694,532,298.361,532z"/>
	<path style="fill:#F58123;" d="M310.29,1.041c4.143,2.057,8.526,3.752,11.229,7.885c1.171,1.791,2.931,3.365,2.656,5.714
		c-0.209,1.782,1.389,2.452,1.862,3.298c-0.588,9.1-5.02,15.252-12.762,19.824c-3.154-0.969-5.846,3.009-9.488,2.075
		c-5.628-1.443-11.442-2.64-15.373-7.562c-3.284-4.112-5.34-8.638-4.954-14.086c0.271-3.828,1.943-7.055,4.368-9.77
		c2.602-2.914,5.163-6.126,9.637-6.447c0.815-0.058,1.229-1.02,0.895-1.974c0.667,0,1.333,0,2,0c0.367,0.95,1.165,0.992,2.014,0.993
		C305.013,0.996,307.652,1.023,310.29,1.041z"/>
	<path style="fill:#F9A05B;" d="M310.29,1.041c-2.639-0.018-5.277-0.045-7.916-0.048c-0.849-0.001-1.647-0.043-2.014-0.993
		c3.333,0,6.667,0,10,0C310.337,0.347,310.314,0.694,310.29,1.041z"/>
	<path style="fill:#4854A5;" d="M511.017,157c21.896-0.062,41.108,4.204,58.226,15.086c25.787,16.393,41.262,39.892,46.267,70.206
		c3.057,18.517,2.146,36.759-3.009,54.785c-5.661,19.793-16.801,36.03-32.373,49.309c-15.796,13.47-34.151,20.818-54.773,22.813
		c-28.337,2.741-54.515-3.383-78.277-19.1c-15.817-10.462-26.276-25.19-32.723-42.88c-6.852-18.804-8.67-38.37-6.682-58.028
		c2.703-26.729,13.667-49.864,33.997-67.935c13.23-11.76,28.989-18.616,46.214-22.155C496.055,157.422,504.36,156.835,511.017,157z
		 M463.353,262.901c0,3.162-0.18,6.335,0.034,9.483c0.658,9.701,2.935,18.984,7.527,27.634c9.351,17.611,28.452,27.859,47.77,24.728
		c20.06-3.251,32.49-15.832,38.541-34.687c3.942-12.284,4.764-25.014,3.244-37.937c-1.592-13.535-5.525-25.939-15.055-36.085
		c-11.71-12.466-26.327-16.628-42.683-13.447c-15.723,3.057-26.647,12.891-33.377,27.34
		C464.487,240.374,462.877,251.473,463.353,262.901z"/>
	<path style="fill:#4854A5;" d="M1225.633,279.123c-44.125,0-88.533,0-133.213,0c-0.716,7.302,0.759,13.915,3.008,20.284
		c5.88,16.648,17.497,27.164,35.132,29.25c15.888,1.879,29.627-4.741,36.672-22.814c0.714-1.832,0.958-3.862,2.385-5.775
		c17.856,2.945,35.792,5.903,54.115,8.925c-3.741,10.521-8.508,19.778-14.885,28.12c-11.99,15.684-27.868,25.403-47.041,29.778
		c-12.905,2.945-25.901,3.494-39.151,2.469c-12.456-0.964-24.271-3.807-35.536-8.908c-16.977-7.686-29.478-20.168-38.161-36.615
		c-6.364-12.055-9.889-24.911-11.686-38.362c-1.531-11.459-1.673-22.969-0.744-34.406c1.79-22.015,7.259-42.859,21.507-60.558
		c14.619-18.16,33.241-29.428,56.399-32.593c19.082-2.608,37.845-1.195,55.758,6.517c24.025,10.343,39.802,28.281,48.11,52.923
		c3.997,11.856,6.173,24.069,7.226,36.545c0.603,7.151,0.805,14.286,0.816,21.443
		C1226.345,276.464,1226.722,277.671,1225.633,279.123z M1171.85,245.39c0.352-5.735-1.211-14.753-3.604-21.119
		c-8.868-23.59-36.645-32.944-57.063-19.012c-9.041,6.169-14.393,15.064-16.788,25.687c-1.046,4.637-1.983,9.33-1.51,14.445
		C1119.427,245.39,1145.646,245.39,1171.85,245.39z"/>
	<path style="fill:#4955A5;" d="M719.49,365.349c-17.771,0-35.666,0-53.798,0c0-67.875,0-135.613,0-203.691
		c16.829,0,33.408,0,50.518,0c0,9.025,0,18.049,0,26.826c2.639-2.277,5.319-4.24,7.582-6.601
		c11.498-11.998,25.261-20.08,41.568-23.186c23.322-4.443,45.428-1.732,64.793,13.3c9.715,7.542,15.185,17.897,18.101,29.655
		c2.049,8.262,2.923,16.739,2.957,25.205c0.181,45.162,0.152,90.325,0.182,135.488c0.001,0.966,0.249,1.999-0.447,2.862
		c-5.658,0.849-44.529,0.519-53.662-0.497c-0.173-3.85-0.488-7.781-0.504-11.714c-0.145-36.996-0.236-73.992-0.35-110.988
		c-0.018-6.009-0.781-11.945-1.87-17.841c-2.901-15.715-15.076-25.593-31.057-25.282c-14.458,0.282-25.905,6.333-34.549,17.854
		c-4.029,5.37-5.354,11.754-6.556,18.101c-1.393,7.357-2.018,14.828-2.035,22.33c-0.075,34.164-0.133,68.327-0.234,102.491
		C720.124,361.445,720.579,363.309,719.49,365.349z"/>
	<path style="fill:#4955A5;" d="M1393.818,161.648c21.592,0,42.483,0,64.306,0c-23.151,32.409-45.829,64.158-68.796,96.31
		c24.661,35.555,49.901,70.906,74.984,107.397c-22.907,0-44.794,0-67.071,0c-13.401-20.34-26.919-40.856-40.868-62.028
		c-13.981,21.015-27.659,41.574-41.388,62.21c-21.021,0-41.99,0-63.872,0c23.966-35.682,48.854-70.058,73.162-105.307
		c-23.256-32.697-46.469-65.332-69.745-98.056c3.773-1.052,56.787-1.43,66.355-0.496c11.53,17.756,23.265,35.826,35.526,54.707
		C1369.185,197.694,1381.514,179.653,1393.818,161.648z"/>
	<path style="fill:#4854A5;" d="M320.865,286.438c18.065,3.119,35.66,6.157,53.491,9.235c-3.803,17.396-10.313,32.894-21.615,45.97
		c-11.457,13.255-26.178,21.29-43.221,25.093c-11.743,2.621-23.629,3.777-35.668,3.145c-19.663-1.032-38.024-6.082-54.026-17.979
		c-17.228-12.809-27.929-30.031-33.357-50.645c-5.02-19.067-5.371-38.409-3.282-57.896c1.781-16.61,6.674-32.15,15.836-46.194
		c12.687-19.448,30.647-31.454,53.006-37.142c13.725-3.491,27.597-3.395,41.625-2.352c10.569,0.786,20.687,3.041,30.499,6.795
		c15.166,5.802,26.584,16.156,35.208,29.737c5.372,8.459,9.119,17.647,12.319,27.859c-17.832,3.902-35.611,6.567-53.622,9.99
		c-0.672-2.543-1.207-4.916-1.925-7.232c-4.646-14.997-14.973-23.325-30.445-24.666c-14.001-1.213-26.286,3.005-35.844,13.782
		c-5.234,5.901-7.69,13.122-9.452,20.611c-1.334,5.67-2.111,11.423-2.208,17.275c-0.199,11.994-0.278,23.986,2.215,35.794
		c2.198,10.409,6.087,19.927,14.233,27.369c12.244,11.185,33.216,13.619,47.406,5.016c4.906-2.975,8.636-7.204,11.427-12.275
		c2.665-4.843,4.413-10.011,5.862-15.305C319.805,290.682,320.228,288.927,320.865,286.438z"/>
	<path style="fill:#4955A5;" d="M916.357,205.006c-8.419,0-16.354,0-24.555,0c0-14.588,0-28.811,0-43.524c8.158,0,16.083,0,24.405,0
		c0-13.755,0-27.032,0-40.363c18.201-10.553,36.122-20.944,54.944-31.858c0,24.55,0,48.084,0,71.982c12.378,0,24.151,0,36.305,0
		c1.21,5.048-0.144,9.834,0.096,14.564c0.236,4.654,0.048,9.33,0.047,13.997c-0.001,4.83,0,9.661,0,15.012
		c-12.019,0-23.923,0-35.463,0c-1.378,1.653-0.911,3.042-0.91,4.3c0.036,33.165,0.122,66.329,0.156,99.494
		c0.003,2.527,0.154,5.001,1.101,7.347c1.889,4.679,5.136,7.511,10.37,8.13c6.15,0.727,11.865-0.874,17.608-2.582
		c2.061-0.613,4.122-1.223,6.755-2.003c1.832,6.934,1.701,13.928,2.74,20.724c1.053,6.893,1.539,13.873,2.303,21.098
		c-4.471,3.18-9.959,4.135-15.159,5.371c-10.696,2.542-21.626,3.754-32.656,3.255c-8.036-0.364-15.786-2.23-23.16-5.423
		c-13.591-5.884-20.611-16.712-22.917-30.987c-1.222-7.567-1.889-15.179-1.898-22.848c-0.036-33.165-0.075-66.329-0.113-99.494
		C916.355,209.374,916.357,207.549,916.357,205.006z"/>
	<path style="fill:#4D4848;" d="M1197.976,477.928c0,9.204,0,18.296,0,27.726c-2.865,0.525-5.391,0.33-8.174,0.019
		c0-27.114,0-53.988,0-80.703c1.206-1.063,2.427-0.677,3.546-0.685c1.132-0.008,2.32-0.305,3.704,0.473
		c0.704,2.034-0.035,4.393,0.436,6.812c1.269,0.025,1.779-1.083,2.523-1.761c6.508-5.926,14.027-7.913,22.595-5.842
		c6.972,1.685,11.848,6.07,14.646,12.448c5.21,11.873,5.202,23.922-0.368,35.682c-6.365,13.438-23.215,16.364-34.487,8.657
		C1201.057,479.839,1200.085,478.351,1197.976,477.928z M1232.438,453.6c0.276-4.99-0.697-10.01-3.194-14.638
		c-2.109-3.908-5.042-6.953-9.596-8.059c-7.783-1.889-15.265,1.576-18.963,9.2c-2.886,5.951-3.754,12.344-2.881,18.911
		c0.527,3.961,1.526,7.769,3.781,11.199c6.781,10.313,20.935,10.049,27.165-0.581C1231.599,464.768,1232.628,459.452,1232.438,453.6
		z"/>
	<path style="fill:#4D4848;" d="M934.283,483.514c-2.971,0.274-5.385,0.424-8.062-0.124c0-27.053,0-53.971,0-80.825
		c1.367-0.833,2.724-0.416,4.019-0.464c1.125-0.041,2.256,0.109,3.641,0.189c0.555,9.339,0.39,18.448,0.199,27.541
		c2.151,0.402,2.843-1.287,3.941-2.089c5.089-3.714,10.76-5.188,16.943-4.568c9.99,1.002,16.758,7.578,17.026,17.618
		c0.373,13.979,0.007,27.978-0.055,41.969c-0.001,0.133-0.171,0.266-0.5,0.744c-2.147,0.382-4.54,0.382-6.841-0.034
		c-1.07-1.753-0.595-3.461-0.618-5.088c-0.158-11.321,0.279-22.647-0.354-33.964c-0.12-2.151-0.1-4.271-0.912-6.371
		c-3.631-9.39-15.804-9.033-21.574-4.407c-4.623,3.707-6.708,8.563-6.747,14.369c-0.066,9.991-0.075,19.982-0.106,29.973
		C934.279,479.643,934.283,481.303,934.283,483.514z"/>
	<path style="fill:#4C4746;" d="M1125.966,441.542c-2.77-0.378-5.169-0.705-7.972-1.088c1.707-7.02,5.018-12.531,11.452-15.094
		c6.904-2.75,14.224-3.235,21.507-1.033c7.004,2.117,10.635,6.97,11.408,14.149c0.715,6.642,0.36,13.301,0.374,19.951
		c0.018,8.3,0.086,16.58,2.575,24.831c-2.818,0.811-5.407,0.447-8.267,0.339c-0.647-2.424-1.277-4.785-1.976-7.405
		c-2.815,2.558-5.561,4.942-8.958,6.418c-5.852,2.542-11.829,3.155-17.981,1.326c-6.596-1.96-10.968-7.116-11.48-14.18
		c-0.493-6.795,1.84-12.326,8.132-15.837c5.518-3.08,11.663-3.669,17.666-4.85c3.891-0.765,7.792-1.459,11.702-2.691
		c0.686-2.56,0.467-5.041-0.05-7.424c-1.362-6.269-7.459-9.725-14.633-8.813C1132.481,431.029,1127.803,434.526,1125.966,441.542z
		 M1154.287,454.115c-2.543-0.79-4.66,0.554-6.849,0.972c-5.655,1.082-11.419,1.925-16.664,4.521
		c-4.229,2.092-6.003,5.433-5.468,10.131c0.471,4.136,3.065,6.346,6.868,7.537c9.249,2.898,20.632-4.119,22.044-13.876
		C1154.658,460.364,1154.287,457.211,1154.287,454.115z"/>
	<path style="fill:#4B4646;" d="M1046.287,455.993c-14.399,0-28.517,0-42.997,0c0.235,6.046,1.662,11.311,5.36,15.821
		c6.677,8.142,21.299,8.012,26.955-1.837c0.662-1.153,1.363-2.283,2.148-3.595c2.595-0.975,4.968,0.845,7.597,0.815
		c-2.197,9.831-10.596,16.765-21.119,17.662c-15.056,1.283-26.512-7.843-28.875-22.768c-1.362-8.6-0.648-16.845,2.931-24.84
		c6.757-15.092,25.951-17.415,37.021-10.174c7.129,4.663,9.723,11.99,10.839,19.911
		C1046.531,449.705,1047.217,452.55,1046.287,455.993z M1003.496,448.766c11.586,0,23.146,0,34.738,0
		c-1.722-12.286-7.656-18.984-16.94-18.68C1013.031,430.356,1005.268,435.079,1003.496,448.766z"/>
	<path style="fill:#4B4646;" d="M1304.509,466.178c2.432-0.334,4.743,0.772,7.188,1.09c-2.504,10.149-11.164,17.163-21.967,17.618
		c-15.474,0.651-25.618-7.669-28.207-23.569c-1.184-7.274-0.662-14.61,1.923-21.608c7.663-20.744,33.781-20.322,42.762-8.406
		c0.896,1.189,1.753,2.424,2.475,3.723c3.055,5.496,4.651,13.436,4.089,20.731c-14.32,0-28.701,0-43.43,0
		c0.409,4.367,1.151,8.023,2.759,11.483c2.904,6.248,7.676,9.934,14.653,10.354c6.938,0.418,12.259-2.311,15.679-8.486
		c0.48-0.867,1.036-1.692,1.573-2.526C1304.091,466.45,1304.262,466.372,1304.509,466.178z M1304.231,448.787
		c-0.379-10.92-6.881-18.415-16.072-18.723c-9.829-0.329-17.044,7.094-18.174,18.723
		C1281.402,448.787,1292.814,448.787,1304.231,448.787z"/>
	<path style="fill:#F58022;" d="M368.032,517.857c-6.676-3.33-10.247-8.099-12.589-15.583c-0.443-3.883,0.635-8.713,4.118-13.318
		c3.376-4.465,8.585-5.67,12.93-8.769c3.092,0,6.41,0,9.966,0c2.595,2.919,7.076,2.833,9.95,5.887
		c2.089,2.219,3.44,4.703,4.974,7.254c2.945,4.895,1.822,9.379-0.03,13.979c-1.809,4.493-5.279,7.903-9.403,9.876
		c-4.067,1.946-8.632,3.518-13.409,2.786C372.08,519.591,370.214,517.058,368.032,517.857z"/>
	<path style="fill:#F58123;" d="M355.634,31.977c-0.855-7.903,1.857-13.934,7.392-18.585c8.462-7.11,20.415-7.329,28.514,0.175
		c4.364,4.044,7.786,8.559,7.52,14.515c-0.179,4.01-1.552,8.045-4.704,11.242c-5.048,5.121-10.924,8.984-18.125,8.166
		c-7.901-0.898-14.986-4.195-18.068-12.57C357.666,33.568,356.188,33.162,355.634,31.977z"/>
	<path style="fill:#F58022;" d="M17.395,245.331c1.187,0,2.351,0.019,3.514-0.003c8.044-0.153,14.419,3.327,19.03,9.621
		c5.386,7.353,4.703,15.973-1.179,21.991c-3.063,3.134-5.978,6.897-11.232,6.252c-1.859,2.536-4.73,2.415-7.093,1.822
		c-3.999-1.004-8.289-1.569-11.687-4.211c-3.747-2.914-6.72-6.654-8.029-11.163c-1.045-3.599-1.11-7.533,0.896-11.1
		c2.707-4.814,5.406-9.618,11.583-10.665C14.765,247.609,15.513,246.014,17.395,245.331z"/>
	<path style="fill:#F58123;" d="M439.49,453.994c1.157,0,2.49,0,3.823,0c2.333,0,4.665,0,6.655,0c1.645,0.205,1.311,1.964,2.7,2.253
		c6.106,1.267,9.073,5.616,11.717,10.961c2.406,4.864,1.847,9.16,0.016,13.648c-1.889,4.631-5.378,8.345-9.642,10.412
		c-9.668,4.686-18.608,3.063-25.593-4.506c-7.019-7.606-8.494-16.369-0.344-25.387c2.188-2.421,4.234-5.305,8.127-5.152
		C438.446,456.28,438.146,454.356,439.49,453.994z"/>
	<path style="fill:#F58022;" d="M144.356,484.514c0-1.825,0.107-3-0.017-4.15c-0.796-7.376,5.278-14.448,10.843-17.05
		c10.918-5.104,19.318-3.55,28.033,4.939c3.571,3.479,4.777,8.099,4.798,12.666c0.013,2.749-1.631,5.827-3.314,8.203
		c-5.084,7.179-12.607,10.917-21.032,9.595c-7.192-1.128-14.815-3.639-17.127-12.427
		C146.265,485.244,145.011,485.163,144.356,484.514z"/>
	<path style="fill:#F58022;" d="M57.18,198.752c-0.346,8.009-3.517,14.035-9.989,18.281c-1.689,1.108-3.327,1.765-5.391,2.13
		c-2.717,0.48-5.187,2.303-8.178,1.708c-4.676-0.929-9.33-2.253-13.131-5.077c-3.463-2.574-5.723-6.517-6.867-10.644
		c-1.9-6.849,2.311-15.441,8.984-18.877c3.232-1.663,6.379-3.819,10.457-4.068c6.667-0.407,11.937,2.331,16.959,6.044
		c2.168,1.603,3.866,3.61,4.526,6.383C54.921,196.193,55.418,197.805,57.18,198.752z"/>
	<path style="fill:#F58123;" d="M231.777,7.94c10.787,0.876,19.417,7.204,21.689,17.906c0.837,3.945-0.751,7.685-2.588,10.771
		c-4.151,6.976-10.873,11.029-18.902,11.011c-4.605-0.011-9.664-1.718-13.299-5.032c-12.444-11.348-8.337-26.662,5.814-32.648
		C227.129,8.834,229.581,7.567,231.777,7.94z"/>
	<path style="fill:#F58022;" d="M43.356,138.422c-0.294-3.746,1.628-6.695,3.591-9.563c3.308-4.831,8.228-7.364,13.607-9.192
		c2.166-0.736,4.258-0.102,6.381,0.179c9.151,1.21,17.134,8.464,18.454,17.314c0.695,4.665-0.703,9.075-3.683,12.822
		c-4.63,5.822-10.674,9.475-18.137,9.009C50.816,158.193,43.537,148.439,43.356,138.422z"/>
	<path style="fill:#F58123;" d="M166.445,71.185c-10.141-0.603-18.82-5.899-21.566-15.686c-1.16-4.135-0.335-7.902,1.993-11.36
		c2.759-4.1,5.525-7.921,10.981-9.251c2.761-0.673,5.299-1.895,8.342-1.989c6.911-0.214,11.947,3.396,16.852,7.429
		c1.734,1.425,2.241,3.66,2.966,5.684c0.831,2.321,3.157,4.07,2.009,7.158c-1.438,3.868-2.436,7.742-5.569,10.876
		C177.754,68.746,172.177,70.791,166.445,71.185z"/>
	<path style="fill:#F58022;" d="M38.325,393.099c-0.24-4.958-0.281-9.543,2.597-13.987C46.253,370.88,53.96,367.248,63,369.16
		c7.038,1.489,13.885,5.181,15.586,13.699c3.359,3.949,1.68,8.06,0.208,12.034c-2.257,6.096-6.788,9.805-12.846,12.026
		c-5.819,2.133-11.26,1.578-16.614-1.285c-4.182-2.236-7.657-5.052-9.044-9.895C39.998,394.719,38.954,393.914,38.325,393.099z"/>
	<path style="fill:#504A4A;" d="M1372.949,483.752c-1.664-1.782-0.265-3.889-1.974-5.126c-1.822-0.133-2.793,1.46-4.136,2.317
		c-6.57,4.196-13.599,5.201-21,2.849c-7.807-2.482-11.671-8.478-11.913-16.158c-0.45-14.267-0.129-28.559-0.129-43.067
		c2.686-0.522,5.126-0.323,7.441-0.184c1.317,1.196,0.851,2.615,0.855,3.886c0.035,11.329,0.024,22.659,0.017,33.988
		c-0.001,2.167-0.093,4.358,0.518,6.452c2.195,7.515,10.212,10.93,18.215,7.746c5.739-2.283,9.151-6.527,9.959-12.659
		c1.222-9.278,0.794-18.613,0.722-27.932c-0.028-3.643-0.005-7.286-0.005-10.948c2.757-1.246,5.212-0.301,7.941-0.82
		c0,19.92,0,39.346,0,58.853c-0.73,1.223-2.014,0.724-3.111,0.788C1375.198,483.804,1374.041,483.752,1372.949,483.752z
		 M1371.898,477.845c0.119-0.124,0.219-0.227,0.318-0.33c-0.191-0.113-0.373-0.258-0.579-0.319c-0.067-0.02-0.199,0.182-0.301,0.283
		C1371.522,477.6,1371.708,477.721,1371.898,477.845z"/>
	<path style="fill:#F58022;" d="M88.218,87.062c0.017-7.709,5.678-15.511,12.47-17.965c2.63-0.95,5.023-2.35,8.038-2.138
		c7.586,0.533,13.68,3.641,18.049,9.895c4.804,6.877,4.278,15.131-0.95,21.437c-4.298,5.184-10.039,7.379-16.337,8.506
		c-1.352,0.242-2.786,0.257-4.319-0.44c-5.374-2.441-11.228-4.088-14.156-9.956C89.467,93.301,87.35,90.348,88.218,87.062z"/>
	<path style="fill:#F58022;" d="M211.357,504.299c0.013-7.61,4.947-14.11,12.486-16.451c2.857-3.333,6.84-2.994,10.367-2.409
		c10.732,1.779,17.912,7.513,19.109,18.335c0.859,7.76-4.55,14.149-11.906,17.86c-9.306,4.696-17.158,1.714-24.545-4.153
		C213.999,515.202,211.35,508.483,211.357,504.299z"/>
	<path style="fill:#F58022;" d="M26.415,309.86c1.364,0,2.735,0.208,4.02-0.037c5.059-0.964,9.253,1.441,13.272,3.701
		c6.335,3.561,8.703,9.718,9.306,16.645c0.235,2.701-1.327,5.23-2.618,7.06c-8.899,12.62-23.831,15.368-34.881,3.512
		c-9.153-9.82-6.455-19.954,5.046-28.193c1.038-0.744,2.24-0.548,3.38-0.584C25.246,311.921,25.072,310.434,26.415,309.86z"/>
	<path style="fill:#F58022;" d="M85.241,442.029c0.115-5.845,2.324-9.908,5.76-13.133c4.893-4.592,10.848-6.894,17.653-6.556
		c9.007,0.447,18.17,9.366,18.84,18.312c0.269,3.594-0.668,7.04-2.628,9.911c-4.111,6.023-9.947,10.043-17.263,10.29
		c-8.145,0.274-15.867-3.399-20.109-11.239C86.082,447.005,84.689,444.302,85.241,442.029z"/>
	<path style="fill:#F58123;" d="M445.179,38.13c7.942,0.017,15.574,5.908,19.095,12.699c2.667,5.145,1.747,9.662-0.238,14.011
		c-1.935,4.24-5.731,7.541-9.955,9.481c-10.84,4.979-20.673,0.972-26.51-6.79c-1.864-2.478-4.023-5.411-3.968-9.218
		c0.082-5.756,2.067-10.626,6.369-14.182C434.289,40.563,439.124,37.621,445.179,38.13z"/>
	<path style="fill:#4C4746;" d="M1552.047,467.158c2.854-0.009,4.947-1.27,7.446-0.983c1.358,0.99,1.742,2.688,2.352,4.153
		c3.602,8.648,18.214,9.937,24.43,3.26c3.968-4.262,2.943-10.773-2.21-13.482c-3.26-1.713-6.855-2.427-10.418-3.233
		c-4.037-0.913-8.002-1.97-11.84-3.672c-10.142-4.498-11.121-19.476-1.822-26.077c8.351-5.928,20.691-4.798,27.88-0.256
		c3.853,2.434,5.75,6.308,7.408,10.333c-2.815,1.674-2.815,1.674-7.633,1.654c-2.178-4.694-5.868-7.598-11.249-8.468
		c-4.01-0.648-7.658,0.122-10.949,2.205c-5.287,3.346-4.858,10.449,0.7,13.341c3.122,1.624,6.552,2.35,9.962,3.071
		c3.733,0.789,7.463,1.567,10.994,3.069c5.819,2.476,9.579,6.625,9.952,13.115c0.38,6.604-1.903,12.205-7.718,15.728
		c-8.753,5.303-17.946,5.564-27.11,1.176C1556.368,479.289,1553.885,473.855,1552.047,467.158z"/>
	<path style="fill:#4C4746;" d="M1532.367,441.631c-3.051,0.429-5.49,1.724-8.447,1.097c-0.598-1.249-1.217-2.585-1.871-3.902
		c-5.706-11.499-22.204-10.474-27.861-1.549c-3.469,5.474-4.402,11.436-4.337,17.611c0.043,4.114,0.586,8.25,2.421,12.1
		c3.114,6.532,7.844,10.668,15.416,10.605c7.219-0.06,12.301-3.453,15.165-10.11c0.651-1.514,1.302-3.028,2.108-4.905
		c2.44,0.363,5.031,0.35,7.444,1.342c-1.861,14.206-14.707,23.307-28.935,20.736c-9.411-1.701-16.146-6.809-19.408-15.907
		c-4.178-11.655-4.091-23.189,2.36-34.07c5.445-9.185,14.235-12.142,24.322-11.451c9.612,0.658,16.484,5.551,20.038,14.718
		C1531.198,439.019,1531.69,440.064,1532.367,441.631z"/>
	<path style="fill:#4C4746;" d="M1408.964,431.62c-2.679-1.321-5.488,0.081-8.25-1.142c-0.07-1.902-0.285-3.817,0.182-5.723
		c2.538-1.113,5.159,0.126,7.89-1.06c0-4.133,0-8.39,0-12.496c2.537-2.48,5.111-4.127,8.446-5.985c0,6.662,0,12.57,0,18.991
		c3.76,0,7.161,0,10.645,0c0.595,2.414,0.401,4.331,0.259,6.777c-3.584,0-6.992,0-10.008,0c-1.178,1.545-0.828,2.751-0.831,3.87
		c-0.03,11.324-0.003,22.647-0.03,33.971c-0.006,2.356,0.117,4.65,1.427,6.619c2.803,2.594,6.052,0.996,9.268,1.024
		c1.207,2.123,1.4,4.368,1.267,7.037c-4.102,0.744-8.231,0.864-12.278,0.201c-4.626-0.759-7.064-3.917-7.489-9.256
		c-0.317-3.974-0.452-7.97-0.476-11.957C1408.921,452.17,1408.964,441.851,1408.964,431.62z"/>
	<path style="fill:#4A4544;" d="M884.284,423.987c0-4.575,0-8.871,0-13.402c2.476-1.674,4.889-3.307,8.087-5.47
		c0,3.777,0,6.682,0,9.588c0,2.975,0,5.949,0,9.406c3.625,0,7.013,0,10.589,0c0.629,2.348,0.358,4.299,0.357,6.41
		c-3.452,1.386-7.334-0.538-10.992,1.537c0.459,14.243-0.757,28.678,0.688,42.145c3.37,4.112,6.902,2.082,10.184,2.343
		c1.618,1.991,0.987,4.374,1.364,6.886c-4.22,0.961-8.347,0.916-12.368,0.214c-4.439-0.775-6.628-3.545-7.165-8.369
		c-1.087-9.778-0.615-19.598-0.633-29.404c-0.009-4.786-0.002-9.573-0.002-14.367c-2.816-1.082-5.556,0.078-8.258-0.882
		c-0.193-1.956-0.397-3.886,0.177-5.893C878.817,423.77,881.357,424.649,884.284,423.987z"/>
	<path style="fill:#4B4646;" d="M1100.405,425.707c-0.963,2.575-1.447,5.001-2.758,7.107c-1.751-0.339-3.369-0.631-4.977-0.966
		c-5.869-1.223-9.703,1.173-12.617,6.497c-2.021,3.693-2.775,7.779-2.775,11.99c0,9.316-0.001,18.633-0.001,27.949
		c0,1.632,0,3.264,0,5.05c-2.8,0.621-5.229,0.443-7.634,0.209c-0.856-3.736-0.979-53.966-0.141-58.955
		c2.194-0.553,4.435-0.436,6.52-0.091c1.412,1.74,0.129,3.833,1.24,5.433C1087.883,422.003,1090.587,421.482,1100.405,425.707z"/>
	<path style="fill:#504A4A;" d="M1451.037,424.451c2.598-0.304,4.885-0.36,7.526,0.428c0,19.397,0,38.8,0,58.539
		c-2.3,0.65-4.744,0.28-7.143,0.223C1450.392,480.071,1450.065,432.486,1451.037,424.451z"/>
	<path style="fill:#504A4A;" d="M1450.678,402.209c2.967,0,5.274,0,7.725,0c0.859,3.517,0,6.959,0.575,10.548
		c-2.811,0.448-5.254,0.279-7.908,0.129C1450.131,409.299,1450.786,405.796,1450.678,402.209z"/>
</g>
</svg>
