<?xml version="1.0" encoding="iso-8859-1"?>
<!-- Generator: Adobe Illustrator 27.0.0, SVG Export Plug-In . SVG Version: 6.00 Build 0)  -->
<svg version="1.1" id="Layer_1" xmlns="http://www.w3.org/2000/svg" xmlns:xlink="http://www.w3.org/1999/xlink" x="0px" y="0px"
	 viewBox="0 0 1600 267" style="enable-background:new 0 0 1600 267;" xml:space="preserve">
<g>
	<path style="fill:#1D3D6F;" d="M224,0c6.69,3.303,10.333,9.253,13.9,15.448c16.176,28.089,32.517,56.082,48.778,84.121
		c2.981,5.14,5.871,10.333,9.09,16.007c-20.883,0-41.104,0-61.926,0c-11.879-20.46-23.964-41.274-36.117-62.207
		c-30.351,0-60.649,0-91.512,0c-15.619,26.082-31.401,52.436-47.404,79.158c15.599,26.883,31.259,53.87,47.018,81.028
		c30.502,0,60.939,0,91.757,0c12.1-20.619,24.28-41.373,36.431-62.079c20.639,0,40.949,0,61.248,0
		c0.684,1.156-0.214,1.917-0.666,2.691c-20.359,34.883-40.753,69.745-61.103,104.633c-1.57,2.692-3.802,4.553-6.355,6.193
		c-1.044,0.671-2.591,0.575-3.142,2.007c-48,0-96,0-144,0c-4.947-2.773-8.983-6.375-11.885-11.402
		C45.469,216.365,22.718,177.192,0,138c0-3,0-6,0-9c1.799-1.785,2.211-4.315,3.447-6.422C24.557,86.603,45.661,50.623,66.56,14.524
		C70.008,8.567,73.644,3.112,80,0C128,0,176,0,224,0z"/>
	<path style="fill:#214777;" d="M1600,177c-2.586,2.256-5.505,2.992-9.002,2.961c-18.48-0.166-36.963-0.109-55.445-0.062
		c-7.091,0.018-13.011-2.296-17.283-8.147c-2.105-2.883-3.401-6.067-3.399-9.711c0.006-19.313-0.13-38.627,0.054-57.939
		c0.077-8.087,5.862-14.901,13.65-17.072c2.753-0.768,5.561-0.924,8.402-0.921c17.816,0.019,35.632,0.101,53.446-0.065
		c3.652-0.034,6.77,0.715,9.576,2.957c0,5,0,10,0,15c-2.685,2.025-5.6,2.788-9.059,2.753c-16.994-0.173-33.99-0.093-50.986-0.056
		c-1.588,0.003-3.282-0.46-4.767,0.49c0,17.377,0,34.619,0,52.144c1.943,0,3.584,0,5.225,0c16.662,0,33.325,0.073,49.987-0.059
		c3.57-0.028,6.786,0.452,9.601,2.727C1600,167,1600,172,1600,177z"/>
	<path style="fill:#214677;" d="M800.154,151.821c0.983,2.721-0.005,4.97,1.016,7.242c17.054,0,34.15,0,51.598,0
		c0-4.966,0-10.058,0-15.344c-1.093-1.07-2.675-0.506-4.092-0.51c-15.159-0.046-30.318-0.007-45.476-0.045
		c-3.315-0.008-6.672,0.124-9.846-1.169c-7.167-2.919-11.802-7.793-12.569-15.845c-0.712-7.471-0.907-14.962-0.029-22.392
		c1.209-10.227,7.798-16.39,18.004-17.459c0.992-0.104,1.993-0.172,2.99-0.173c16.991-0.01,33.982-0.009,50.974-0.007
		c7.475,0.001,13.641,2.626,17.898,9.007c2.702,4.051,3.47,8.623,3.188,13.353c-0.21,3.52-2.259,5.531-5.761,5.651
		c-4.794,0.165-9.597,0.041-14.284,0.041c-1.337-2.47,0.04-4.963-1.198-7.283c-17.017,0-34.1,0-51.539,0c0,5.149,0,10.236,0,15.6
		c1.155,1.093,2.899,0.464,4.469,0.469c15.992,0.051,31.994,0.373,47.971-0.102c8.996-0.268,19.721,6.309,20.27,18.97
		c0.274,6.315,0.363,12.669-0.003,18.975c-0.666,11.451-8.72,18.975-20.244,19.05c-17.49,0.113-34.983,0.137-52.473-0.008
		c-11.946-0.099-19.594-7.402-20.654-19.255c-0.555-6.21,1.59-8.672,7.733-8.757C792.079,151.776,796.064,151.821,800.154,151.821z"
		/>
	<path style="fill:#224777;" d="M612.778,149.255c5.625,6.691,10.859,12.919,16.096,19.144c0.429,0.51,0.882,0.999,1.318,1.503
		c1.673,1.934,3.25,3.946,2.071,6.709c-1.251,2.932-3.786,3.39-6.634,3.294c-2.829-0.095-5.682-0.222-8.493,0.029
		c-3.735,0.334-6.304-1.185-8.557-4.023c-3.621-4.561-7.484-8.929-11.225-13.395c-3.734-4.458-7.444-8.937-11.078-13.304
		c-8.883,0-17.501,0-26.6,0c0,6.294,0,12.4,0,18.506c0,1.999,0.11,4.007-0.027,5.997c-0.259,3.783-2.232,5.889-5.911,6.129
		c-2.821,0.184-5.672,0.181-8.493,0c-3.55-0.227-5.469-2.149-5.88-5.619c-0.136-1.151-0.041-2.33-0.041-3.496
		c-0.001-25.16-0.001-50.321-0.001-75.481c0-1-0.074-2.007,0.017-2.998c0.351-3.808,2.204-5.591,6.094-5.909
		c0.662-0.054,1.332-0.01,1.999-0.01c21.328,0,42.656-0.017,63.984,0.013c4.723,0.007,9.271,0.804,13.159,3.782
		c5.372,4.115,8.113,9.54,8.102,16.336c-0.012,6.998-0.295,14.011,0.064,20.991C633.315,138.561,626.057,148.203,612.778,149.255z
		 M611.639,128.559c0.857-5.596,0.702-18.283-0.208-21.657c-17.088,0-34.151,0-51.481,0c0,7.287,0,14.338,0,21.657
		C577.296,128.559,594.482,128.559,611.639,128.559z"/>
	<path style="fill:#1F4676;" d="M428.993,133.003c0-8.991-0.054-17.983,0.014-26.974c0.081-10.709,6.754-18.24,17.328-19.695
		c0.659-0.091,1.326-0.172,1.99-0.172c18.148-0.007,36.3-0.199,54.444,0.066c12.694,0.186,19.474,10.687,19.381,19.375
		c-0.196,18.311,0.135,36.629-0.143,54.938c-0.171,11.247-8.122,19.125-19.314,19.269c-18.146,0.233-36.298,0.185-54.446,0.02
		c-12.368-0.112-19.69-10.503-19.329-19.856C429.265,150.996,428.993,141.994,428.993,133.003z M449.159,159.113
		c17.675,0,34.944,0,52.461,0c0-17.476,0-34.721,0-52.128c-17.593,0-34.953,0-52.461,0
		C449.159,124.43,449.159,141.55,449.159,159.113z"/>
	<path style="fill:#1F4676;" d="M1050.414,107.273c0,4.999,0,10.085,0,15.224c1.472,0.861,2.999,0.472,4.442,0.476
		c13.663,0.034,27.325,0.002,40.988,0.029c5.574,0.011,7.105,1.557,7.159,7.071c0.025,2.499,0.106,5.004-0.024,7.496
		c-0.172,3.31-1.949,5.129-5.246,5.498c-1.319,0.148-2.661,0.106-3.993,0.107c-12.663,0.007-25.326-0.01-37.989,0.022
		c-1.635,0.004-3.317-0.336-5.253,0.503c-0.604,4.93-0.33,9.994-0.153,14.952c1.772,1.127,3.474,0.661,5.081,0.665
		c16.995,0.038,33.99,0.024,50.985,0.024c1.166,0,2.34-0.08,3.498,0.019c3.849,0.329,5.77,2.131,6.029,5.969
		c0.19,2.819,0.163,5.669,0,8.491c-0.222,3.829-2.142,5.695-5.943,6.044c-0.991,0.091-1.998,0.017-2.998,0.017
		c-22.827,0-45.653,0.001-68.48-0.001c-1.166,0-2.35,0.108-3.495-0.053c-2.938-0.414-4.712-2.265-5.073-5.276
		c-0.158-1.317-0.122-2.661-0.123-3.992c-0.006-24.993-0.005-49.986-0.005-74.978c0-0.833-0.026-1.667,0.009-2.499
		c0.208-4.952,2.075-6.78,7.094-6.951c0.832-0.028,1.666-0.004,2.499-0.004c22.327,0,44.654-0.001,66.981,0.002
		c1.332,0,2.684-0.112,3.993,0.071c3.546,0.498,5.329,2.358,5.536,5.943c0.163,2.823,0.182,5.67,0.012,8.492
		c-0.231,3.826-2.179,5.7-5.968,6.02c-1.158,0.098-2.331,0.017-3.498,0.017c-16.995,0-33.99-0.013-50.985,0.022
		C1053.878,106.692,1052.184,106.268,1050.414,107.273z"/>
	<path style="fill:#1F4676;" d="M670.407,122.993c14.972,0,29.46,0,43.949,0c1.166,0,2.34-0.086,3.497,0.021
		c3.057,0.282,4.923,2.019,5.099,5.075c0.181,3.155,0.16,6.333,0.023,9.491c-0.143,3.309-1.932,5.112-5.265,5.485
		c-1.483,0.166-2.994,0.108-4.492,0.109c-12.827,0.007-25.654-0.005-38.48,0.018c-1.303,0.002-2.657-0.292-4.244,0.566
		c-0.6,4.879-0.331,9.943-0.142,14.931c1.948,1.101,3.81,0.62,5.583,0.624c16.991,0.042,33.983,0.023,50.974,0.029
		c1.331,0,2.689-0.106,3.989,0.112c3.007,0.505,4.759,2.334,4.934,5.4c0.18,3.155,0.157,6.333,0.005,9.491
		c-0.144,2.997-1.945,4.926-4.892,5.444c-1.134,0.199-2.326,0.087-3.491,0.087c-23.155,0.003-46.31,0.003-69.465,0.001
		c-0.999,0-2.015,0.091-2.995-0.05c-2.92-0.421-4.744-2.306-5.1-5.277c-0.138-1.151-0.069-2.328-0.069-3.493
		c-0.003-25.32-0.003-50.641,0-75.961c0-1.165-0.05-2.34,0.075-3.495c0.328-3.037,2.003-4.842,4.99-5.358
		c0.975-0.168,1.992-0.116,2.99-0.116c23.321-0.005,46.643-0.008,69.964,0.007c1.156,0.001,2.35,0.016,3.461,0.288
		c2.817,0.691,4.362,2.37,4.522,5.23c0.177,3.155,0.194,6.337,0.004,9.49c-0.199,3.29-2.084,5.086-5.391,5.48
		c-1.151,0.137-2.329,0.045-3.495,0.045c-17.158,0.002-34.316-0.012-51.474,0.023c-1.613,0.003-3.309-0.435-5.062,0.601
		C670.407,112.291,670.407,117.376,670.407,122.993z"/>
	<path style="fill:#1C4475;" d="M1204.828,147.375c0-17.664-0.006-35.148,0.003-52.632c0.003-6.938,1.596-8.559,8.402-8.612
		c1.832-0.014,3.672-0.112,5.494,0.024c4.414,0.33,6.235,2.224,6.257,6.684c0.056,11.323,0.019,22.647,0.019,33.971
		c0,14.987,0.005,29.974-0.002,44.962c-0.003,6.541-1.577,8.07-8.283,8.098c-2.331,0.01-4.673-0.138-6.992,0.034
		c-3.633,0.269-6.21-1.044-8.582-3.912c-15.27-18.462-30.703-36.789-46.087-55.157c-0.729-0.871-1.504-1.704-3.053-3.452
		c0,2.158,0,3.352,0,4.547c0,16.652,0.011,33.305-0.005,49.957c-0.006,6.268-1.689,7.927-7.98,7.981
		c-1.998,0.017-4.004,0.113-5.993-0.024c-4.089-0.283-5.921-2.226-6.008-6.381c-0.08-3.828-0.017-7.66-0.017-11.49
		c0-22.481-0.004-44.962,0.002-67.443c0.002-6.806,1.602-8.468,8.584-8.379c13.297,0.17,10.216-2.009,19.622,9.193
		c14.017,16.693,27.965,33.443,41.966,50.149C1202.782,146.222,1203.212,147.26,1204.828,147.375z"/>
	<path style="fill:#224777;" d="M347.433,107.267c0,17.119,0,34.352,0,51.517c1.974,0.934,3.826,0.521,5.614,0.525
		c17.32,0.036,34.641,0.003,51.961,0.032c4.929,0.008,7.344,1.853,7.627,5.939c0.195,2.818,0.172,5.668,0.005,8.489
		c-0.226,3.831-2.175,5.733-5.923,6.101c-0.66,0.065-1.331,0.013-1.998,0.013c-18.819,0-37.639,0.046-56.458-0.016
		c-13.238-0.044-21.1-7.929-21.135-21.134c-0.045-17.154-0.057-34.308,0.004-51.461c0.046-13.014,7.709-20.986,20.683-21.109
		c19.151-0.182,38.304-0.088,57.456-0.022c5.455,0.019,7.316,2.097,7.402,7.703c0.026,1.665,0.021,3.331,0.001,4.996
		c-0.072,6.066-1.726,7.796-7.667,7.823c-8.993,0.041-17.986,0.011-26.98,0.011c-8.66,0-17.32-0.019-25.98,0.019
		C350.588,106.701,349.063,106.327,347.433,107.267z"/>
	<path style="fill:#214777;" d="M911.153,107.096c0,17.185,0,34.423,0,52.237c1.682,0,3.287,0,4.891,0
		c16.991,0,33.982-0.006,50.973,0.008c1.491,0.001,3.022-0.056,4.464,0.25c2.819,0.597,4.347,2.336,4.488,5.206
		c0.155,3.157,0.155,6.334,0.001,9.491c-0.159,3.256-2.057,5.131-5.3,5.545c-0.821,0.105-1.663,0.047-2.496,0.047
		c-18.823,0.002-37.647-0.001-56.47,0.003c-3.871,0.001-7.613-0.485-11.033-2.515c-5.996-3.559-9.722-8.631-9.769-15.732
		c-0.127-18.988-0.197-37.979-0.012-56.967c0.089-9.088,6.211-15.958,15.139-17.977c1.969-0.445,3.948-0.571,5.946-0.571
		c18.657-0.006,37.314-0.005,55.97,0.001c0.998,0,2.014-0.047,2.989,0.119c3.17,0.54,4.925,2.5,5.049,5.8
		c0.113,2.994,0.128,6.001-0.005,8.993c-0.148,3.335-1.912,5.185-5.21,5.597c-1.313,0.164-2.662,0.041-3.995,0.041
		c-16.824,0.001-33.649-0.01-50.473,0.018C914.676,106.693,913.008,106.376,911.153,107.096z"/>
	<path style="fill:#1E4576;" d="M1400.362,106.663c0,5.621,0,10.582,0,15.633c1.157,1.262,2.755,0.664,4.167,0.669
		c13.666,0.048,27.333,0.02,41,0.033c6.186,0.006,7.581,1.407,7.642,7.604c0.021,2.166,0.083,4.337-0.019,6.499
		c-0.192,4.062-1.79,5.717-5.755,6.033c-1.325,0.106-2.665,0.039-3.998,0.039c-12.5,0.002-25,0.001-37.5,0.001
		c-1.65,0-3.299,0-4.638,0c-1.492,1.357-1.062,2.773-1.068,4.048c-0.036,8.5,0.018,17-0.032,25.5c-0.031,5.3-1.86,7.056-7.247,7.146
		c-2.166,0.036-4.336,0.079-6.499-0.011c-4.384-0.183-6.336-2.126-6.401-6.515c-0.081-5.499-0.02-11-0.02-16.5
		c0-20.833-0.005-41.667,0.003-62.5c0.003-6.479,1.712-8.203,8.301-8.21c23.167-0.023,46.333-0.001,69.5-0.021
		c2.373-0.002,4.687,0.07,6.543,1.82c2.416,2.279,2.464,14.729,0.048,17.068c-1.703,1.649-3.867,1.682-6.072,1.676
		c-11-0.031-22-0.014-33-0.014C1417.163,106.663,1409.008,106.663,1400.362,106.663z"/>
	<path style="fill:#214677;" d="M1294.881,106.671c0,2.3,0,3.939,0,5.579c0,19.817,0.008,39.634-0.005,59.451
		c-0.004,6.478-1.723,8.145-8.312,8.179c-1.166,0.006-2.336-0.066-3.496,0.012c-6.091,0.411-8.429-1.857-8.347-8.045
		c0.264-19.813,0.098-39.633,0.098-59.449c0-1.647,0-3.293,0-4.639c-1.298-1.568-2.729-1.055-3.98-1.062
		c-8.326-0.047-16.653,0.005-24.979-0.035c-6.016-0.029-7.688-1.73-7.739-7.704c-0.019-2.165-0.067-4.332,0.012-6.494
		c0.141-3.871,1.865-5.78,5.669-6.276c1.148-0.15,2.328-0.065,3.493-0.065c24.979-0.003,49.959-0.003,74.938,0
		c1.165,0,2.344-0.073,3.492,0.074c3.509,0.449,5.291,2.359,5.43,5.937c0.11,2.827,0.101,5.664,0.005,8.491
		c-0.142,4.136-1.961,5.967-6.251,6.019c-7.992,0.097-15.986,0.028-23.98,0.028C1299.12,106.671,1297.311,106.671,1294.881,106.671z
		"/>
	<path style="fill:#3F97D2;" d="M121.133,83.015c0.254-1.061,1.115-1.074,1.935-1.075c19.075-0.008,38.151-0.006,57.363-0.006
		c4.41,7.537,8.781,14.916,13.062,22.347c4.705,8.167,9.353,16.368,13.96,24.59c0.704,1.257,1.841,2.407,1.605,4.06
		c-19.355,0.049-38.71,0.097-58.064,0.146c-3.844-6.708-7.693-13.413-11.532-20.124c-5.476-9.572-10.961-19.138-16.386-28.739
		C122.588,83.35,122.008,83.046,121.133,83.015z"/>
	<path style="fill:#1276A9;" d="M121.133,83.015c0.875,0.031,1.454,0.335,1.942,1.199c5.425,9.601,10.911,19.167,16.386,28.739
		c3.839,6.711,7.688,13.416,11.532,20.124c-6.518,11.383-13.126,22.716-19.512,34.173c-2.947,5.287-6.482,10.26-8.716,15.937
		c-1.745,0.101-2.094-1.368-2.731-2.471c-8.952-15.515-17.895-31.035-26.821-46.565c-0.238-0.414-0.256-0.953-0.51-1.967
		C102.055,116.009,111.594,99.512,121.133,83.015z"/>
	<path style="fill:#1D3D6F;" d="M122.765,183.187c2.234-5.677,5.769-10.651,8.716-15.937c6.387-11.456,12.995-22.789,19.512-34.173
		c19.355-0.049,38.71-0.097,58.064-0.146c0.225,1.116-0.521,1.876-1.009,2.725c-8.852,15.405-17.707,30.808-26.571,46.206
		c-0.243,0.422-0.593,0.782-1.074,1.407c-2.481,0.123-5.117,0.36-7.753,0.366c-15.316,0.036-30.633,0.018-45.949,0.017
		C125.371,183.653,124.032,183.725,122.765,183.187z"/>
	<path style="fill:#254878;" d="M1364.728,132.954c0,12.815,0.014,25.631-0.005,38.446c-0.01,6.785-1.716,8.446-8.607,8.488
		c-1.997,0.012-4.008,0.135-5.988-0.055c-3.792-0.364-5.583-2.292-5.916-6.131c-0.086-0.991-0.016-1.996-0.016-2.995
		c0-25.131,0-50.263,0-75.394c0-0.999-0.064-2.003,0.023-2.995c0.353-4.041,2.322-6.004,6.347-6.187
		c2.491-0.114,4.995-0.092,7.488-0.006c4.353,0.149,6.429,2.07,6.631,6.387c0.171,3.654,0.042,7.321,0.043,10.983
		C1364.729,113.315,1364.728,123.134,1364.728,132.954z"/>
	<path style="fill:#1C4475;" d="M1499.181,132.903c0,12.993,0.016,25.986-0.007,38.979c-0.011,6.28-1.655,7.899-7.97,7.986
		c-1.666,0.023-3.333,0.052-4.997-0.008c-5.315-0.19-7.141-2.017-7.161-7.334c-0.04-10.994-0.012-21.988-0.012-32.982
		c0-15.158-0.014-30.317,0.007-45.475c0.009-6.168,1.793-7.899,8.027-7.94c1.499-0.01,2.998-0.013,4.497,0.001
		c5.895,0.053,7.585,1.743,7.605,7.795c0.034,10.328,0.01,20.655,0.01,30.983C1499.181,127.573,1499.181,130.238,1499.181,132.903z"
		/>
	<path style="fill:#1B4475;" d="M992.915,132.925c0-12.992-0.019-25.984,0.008-38.976c0.013-6.051,1.702-7.751,7.597-7.817
		c1.665-0.019,3.331-0.021,4.997,0.001c5.639,0.074,7.487,1.843,7.498,7.423c0.032,17.656,0.012,35.312,0.012,52.968
		c0,8.661,0.028,17.323-0.01,25.984c-0.024,5.372-1.784,7.165-7.105,7.35c-1.83,0.064-3.665,0.047-5.496,0.005
		c-5.703-0.132-7.476-1.854-7.49-7.462C992.891,159.243,992.914,146.084,992.915,132.925z"/>
</g>
</svg>
