<?xml version="1.0" encoding="iso-8859-1"?>
<!-- Generator: Adobe Illustrator 27.0.0, SVG Export Plug-In . SVG Version: 6.00 Build 0)  -->
<svg version="1.1" id="Layer_1" xmlns="http://www.w3.org/2000/svg" xmlns:xlink="http://www.w3.org/1999/xlink" x="0px" y="0px"
	 viewBox="0 0 1547.011 1627.051" style="enable-background:new 0 0 1547.011 1627.051;" xml:space="preserve">
<g>
	<path style="fill:#E6E8EC;" d="M1546,0.051c0.308,0.218,1.043-0.506,1.01,0.5c-0.043,1.332-0.01,2.666-0.01,4
		c0,539.333,0,1078.667,0,1618c0,2.96,0,2.96-1,4.5c-0.03-0.383-0.061-0.765-0.091-1.148c-0.007-26.627-0.014-53.254-0.021-79.881
		c0.038-1.831,0.109-3.662,0.109-5.494c0.002-511.297,0-1022.595-0.008-1533.892c0-1.83-0.085-3.661-0.131-5.491
		C1545.905,0.78,1545.953,0.415,1546,0.051z"/>
	<path style="fill:#74798F;" d="M1546,0.051c-0.047,0.365-0.095,0.73-0.142,1.095c-2.165-0.032-4.33-0.091-6.495-0.091
		C1028.969,1.05,518.575,1.05,8.181,1.05c-1,0-2.005-0.064-2.998,0.016C3.904,1.169,2.519,0.638,0.997,1.909
		c0,1.518,0.002,3.321,0,5.124c-0.036,24.66-0.073,49.32-0.11,73.98C0.592,81.033,0.296,81.046,0,81.051c0-27,0-54,0-81
		C515.333,0.051,1030.667,0.051,1546,0.051z"/>
	<path style="fill:#C5D1E0;" d="M1545.909,1625.903c0.03,0.383,0.061,0.765,0.091,1.148c-513.833,0-1027.667,0-1541.5,0
		c-2.96,0-2.96,0-4.5-1c0.371-0.031,0.743-0.062,1.114-0.093c1.999,0.031,3.997,0.089,5.996,0.089
		c510.936,0.004,1021.873,0.004,1532.809-0.002C1541.916,1626.044,1543.913,1625.952,1545.909,1625.903z"/>
	<path style="fill:#4F6887;" d="M0,81.051c0.296-0.005,0.592-0.018,0.887-0.038c0.038,2.164,0.108,4.329,0.108,6.493
		C1,571.539,1,1055.572,0.998,1539.605c0,2.166-0.031,4.332-0.048,6.497c-0.32,0.05-0.637,0.032-0.95-0.052
		C0,1057.717,0,569.384,0,81.051z"/>
	<path style="fill:#9CB5CE;" d="M0,1546.051c0.313,0.084,0.63,0.101,0.95,0.052c0,0-0.053,0.109-0.053,0.109
		c0.035,4.818,0.09,9.635,0.101,14.453c0.046,21.765,0.079,43.529,0.117,65.294c-0.371,0.031-0.743,0.062-1.114,0.092
		C0,1599.384,0,1572.717,0,1546.051z"/>
	<path style="fill:#0E3251;" d="M0.95,1546.102c0.017-2.166,0.048-4.332,0.048-6.497C1,1055.572,1,571.539,0.995,87.506
		c0-2.164-0.071-4.329-0.108-6.493c0.037-24.66,0.073-49.32,0.11-73.98c0.003-1.803,0-3.606,0-5.124
		c1.522-1.271,2.907-0.74,4.186-0.843C6.176,0.986,7.181,1.05,8.181,1.05c510.394,0,1020.788,0,1531.182,0.004
		c2.165,0,4.33,0.059,6.495,0.091c0.046,1.83,0.131,3.661,0.131,5.491c0.008,511.297,0.01,1022.595,0.008,1533.892
		c0,1.831-0.071,3.662-0.109,5.494c-2.165,0.041-4.329,0.119-6.494,0.119c-510.5,0.005-1020.999,0.005-1531.499,0.008
		c-2.333,0-4.666,0.041-6.999,0.062C0.897,1546.211,0.95,1546.102,0.95,1546.102z M1348.566,1075.455
		c1.093-12.932,0.571-671.505-0.47-675.043c-52.794,0-105.566,0-158.855,0c0,104.287,0,208.33,0,312.506c-13.59,0-26.663,0-40.222,0
		c0-104.296,0-208.345,0-312.342c-9.57-0.977-154.573-0.621-158.117,0.344c0,224.234,0,448.476,0,672.862
		c52.784,0,105.347,0,157.765,0c0.217-0.405,0.354-0.541,0.354-0.677c0.031-103.821,0.052-207.642,0.074-311.462
		c0-0.5-0.009-1.001,0.016-1.499c0.017-0.331,0.065-0.664,0.141-0.986c0.034-0.144,0.163-0.272,0.267-0.392
		c0.109-0.125,0.239-0.232,0.347-0.334c12.961,0,25.906,0,39.454,0c0,105.745,0,211.271,0,317.023
		C1242.688,1075.455,1295.451,1075.455,1348.566,1075.455z M887.431,736.263c0.988-0.09,1.979-0.16,2.964-0.272
		c12.217-1.386,23.175-5.678,32.3-14.118c19.624-18.149,29.696-41.044,29.979-67.328c0.655-60.654,0.227-121.319,0.179-181.98
		c-0.005-5.826-0.797-11.612-2.457-17.216c-5.361-18.1-16.269-32.196-31.603-42.918c-11.017-7.704-23.372-12.167-36.817-12.188
		c-94.156-0.144-188.313-0.078-282.47-0.055c-1.274,0-2.659-0.418-3.913,0.573c0,224.352,0,448.722,0,673.03
		c52.926,0,105.518,0,158.613,0c0-105.298,0-210.338,0-315.58c3.816,0,7.133-0.049,10.448,0.012
		c4.324,0.079,8.668-0.361,12.965,0.494c8.869,1.765,14.663,8.166,15.408,17.135c0.179,2.155,0.222,4.327,0.229,6.491
		c0.135,44.328,0.278,88.655,0.374,132.983c0.11,50.995,0.175,101.99,0.259,152.985c0.003,1.779,0,3.558,0,5.622
		c2.178,0,3.814,0.01,5.451-0.001c35.322-0.239,70.645-0.493,105.967-0.714c14.664-0.092,29.329-0.104,43.993-0.186
		c1.106-0.006,2.338,0.414,3.583-0.836c0-1.54,0-3.346,0-5.151c0-82.659-0.001-165.317,0.003-247.976
		c0-7.674-0.441-15.331-1.959-22.848c-4.86-24.067-18.062-41.744-40.531-52.173C903.034,740.63,895.302,738.316,887.431,736.263z
		 M554.623,712.95c0.773-1.33,0.461-2.519,0.461-3.646c0.018-79.166,0.012-158.331,0.021-237.497
		c0.001-4.852-0.553-9.623-1.722-14.329c-4.036-16.252-13.132-29.326-25.669-40.068c-13.22-11.326-28.579-17.253-46.115-17.249
		c-69.999,0.013-139.998,0.018-209.997-0.023c-4.363-0.003-8.648,0.534-12.855,1.461c-22.055,4.865-38.21,17.802-49.885,36.791
		c-5.67,9.221-9.562,19.13-9.579,30.012c-0.108,69.832-0.015,139.664-0.009,209.496c0.01,107.332,0.007,214.664-0.012,321.996
		c-0.001,4.68,0.276,9.336,1.309,13.885c4.811,21.176,16.853,37.375,34.743,49.267c11.193,7.44,23.638,11.047,37.186,11.034
		c70.164-0.067,140.329-0.044,210.493-0.002c4.701,0.003,9.306-0.578,13.835-1.653c19.396-4.605,34.139-15.944,45.376-32.046
		c8.055-11.542,12.936-24.198,12.924-38.572c-0.067-79.832-0.029-159.665-0.053-239.497c0-1.269,0.428-2.655-0.592-3.925
		c-52.394,0-104.817,0-157.785,0c0,2.146,0,4.096,0,6.046c0,85.332-0.007,170.665,0.024,255.997
		c0.001,3.514-0.183,7.004-0.741,10.454c-0.864,5.344-3.219,9.788-8.386,12.188c-9.601,4.459-23.113,0.493-27.435-10.754
		c-1.421-3.698-1.266-7.512-1.266-11.333c-0.004-186.164-0.004-372.329-0.004-558.493c0-1.833,0.137-3.679-0.029-5.497
		c-0.364-4.013,1.35-7.113,4.084-9.766c4.656-4.518,10.377-6.556,16.752-6.491c6.75,0.069,13.845,5.373,15.969,11.701
		c1.015,3.024,1.05,6.201,1.049,9.383c-0.023,81.666-0.019,163.331-0.019,244.997c0,1.963,0,3.925,0,6.131
		C449.525,712.95,501.96,712.95,554.623,712.95z"/>
	<path style="fill:#4885AC;" d="M0.897,1546.211c2.333-0.022,4.666-0.062,6.999-0.062c510.499-0.003,1020.999-0.003,1531.499-0.008
		c2.165,0,4.329-0.078,6.494-0.119c0.007,26.627,0.014,53.254,0.021,79.881c-1.997,0.049-3.994,0.142-5.99,0.142
		c-510.936,0.006-1021.873,0.006-1532.809,0.002c-1.999,0-3.997-0.058-5.996-0.089c-0.038-21.765-0.071-43.529-0.117-65.294
		C0.988,1555.846,0.932,1551.029,0.897,1546.211z"/>
	<path style="fill:#0E3352;" d="M753.817,713.141c0.26-90.999-0.179-181.419,1.162-271.646c1.134-1.242,2.374-0.782,3.463-0.792
		c5.998-0.052,12,0.111,17.994-0.058c7.938-0.223,17.782,7.574,17.756,17.857c-0.2,77.144-0.115,154.289-0.103,231.434
		c0.001,8.678-3.841,15.3-10.734,20.274c-2.461,1.776-5.287,2.874-8.356,2.907C768.191,713.193,761.381,713.141,753.817,713.141z"/>
</g>
</svg>
