<?xml version="1.0" encoding="iso-8859-1"?>
<!-- Generator: Adobe Illustrator 27.0.0, SVG Export Plug-In . SVG Version: 6.00 Build 0)  -->
<svg version="1.1" id="Layer_1" xmlns="http://www.w3.org/2000/svg" xmlns:xlink="http://www.w3.org/1999/xlink" x="0px" y="0px"
	 viewBox="0 0 1485 293" style="enable-background:new 0 0 1485 293;" xml:space="preserve">
<g>
	<path style="fill:#282324;" d="M1485,221c-5.953,0.01-11.88-1.282-17.86-0.294c-1.297,0.214-2.661,0.026-3.993,0.034
		c-2.943,0.017-5.056-1.273-6.431-3.897c-10.205-19.473-23.997-36.684-35.093-55.599c-4.344-7.405-10.854-11.055-19.507-10.483
		c-4.427,0.293-9.026-0.493-13.214,1.814c-1.584,2.169-1.693,4.64-1.644,7.148c0.191,9.812,0.33,19.626,0.592,29.436
		c0.217,8.138,0.103,16.276,0.753,24.419c0.373,4.67-0.938,7.02-6.661,7.122c-3.974,0.071-7.981,0.418-11.923-0.595
		c-3.353-0.862-4.559-1.933-4.87-5.365c-0.254-2.811-0.198-5.661-0.116-8.489c0.872-30.126,1.324-60.257,0.932-90.394
		c-0.143-10.975-0.625-21.946-0.94-32.919c-0.043-1.498-0.096-3.002-0.014-4.497c0.185-3.36,1.176-4.526,4.542-4.634
		c5.159-0.166,10.327-0.092,15.491-0.059c15.155,0.095,30.31,0.154,45.463,0.361c7.134,0.097,14.287,0.286,21.291,1.911
		c13.955,3.24,24.937,14.092,26.243,31.174c0.357,4.672,0.458,9.348-0.533,13.91c-3.046,14.008-12.673,21.703-25.645,25.87
		c-4.405,1.415-8.998,2.243-13.913,3.438c4.711,6.884,9.363,13.688,14.021,20.489c10.331,15.084,20.661,30.17,31.009,45.243
		c0.518,0.754,0.758,1.88,2.017,1.856C1485,219,1485,220,1485,221z M1388.256,91.212c-0.592,1.498-1.146,2.691-1.14,4.07
		c0.057,11.641,0.036,23.283,0.173,34.923c0.046,3.914,1.176,4.798,5.273,4.783c2.818-0.01,5.626-0.178,8.454-0.139
		c11.123,0.152,22.277,0.915,33.347-0.856c5.083-0.813,10.093-1.91,14.373-5.062c7.448-5.485,8.395-13.329,7.089-21.489
		c-1.3-8.128-6.684-13.176-14.51-15.417c-7.146-2.047-14.517-1.16-21.807-1.227c-2.314-0.021-4.684,0.268-6.932-0.129
		c-7.422-1.311-14.855-0.525-22.284-0.412C1389.696,90.266,1389.106,90.798,1388.256,91.212z"/>
	<path style="fill:#EC4839;" d="M157,0c2.329,1.975,5.324,1.28,7.943,1.673c15.408,2.307,30.035,7.055,44.17,13.429
		c2.849,1.285,6.081,1.829,8.598,4.163c0.908,2.854,0.477,5.429-1.807,7.503c-3.271,0.951-5.966-0.101-8.733-1.478
		c-11.5-5.72-23.502-9.962-36.141-12.484c-22.361-4.462-44.383-3.001-65.887,4.173C55.479,33.549,24.693,67.923,12.363,118.427
		c-7.549,30.921-2.381,60.803,11.676,89.108c14.429,29.055,36.459,50.55,66.001,64.056c19.048,8.708,39.134,12.374,60.119,11.637
		c20.616-0.724,40-5.827,58.384-15.033c1.62-0.811,3.218-1.738,5.049-1.961c4.045,2.476,4.375,3.09,4.312,8.194
		c-2.46,2.452-6.054,3.04-9.111,4.568c-14.236,7.118-29.253,11.73-45.173,13.142c-0.687,0.061-1.302,0.157-1.62,0.863
		c-11.333,0-22.667,0-34,0c-0.335-1.01-1.218-0.895-2.018-1.031c-4.41-0.749-8.865-1.314-13.214-2.331
		C53.167,275.7,10.726,227.978,1.779,171.88C1.417,169.613,2.087,166.887,0,165c0-12.333,0-24.667,0-37
		c1.269-0.464,0.906-1.6,1.031-2.526c2.03-15.081,5.988-29.584,12.702-43.303C24.603,59.962,40.742,42.35,60.8,28.193
		c20.839-14.708,43.59-24.669,69.222-27.254C130.592,0.881,130.84,0.485,131,0c0.333,0,0.667,0,1,0
		c0.238,0.711,0.747,1.042,1.482,1.04c5.992-0.017,11.984-0.039,17.975-0.053C152.192,0.985,152.707,0.675,153,0
		C154.333,0,155.667,0,157,0z"/>
	<path style="fill:#F28065;" d="M153,0c-0.293,0.675-0.808,0.985-1.543,0.987c-5.992,0.014-11.984,0.035-17.975,0.053
		C132.747,1.042,132.238,0.711,132,0C139,0,146,0,153,0z"/>
	<path style="fill:#282425;" d="M598.232,219.693c-5.272,0.391-9.811,1.267-14.495,1.3c-5.344,0.037-8.792-2.204-10.872-7.044
		c-2.957-6.881-4.985-14.042-6.836-21.273c-0.945-3.691-1.857-7.416-3.182-10.978c-3.105-8.349-7.655-12.074-16.55-11.525
		c-11.452,0.707-22.924,0.743-34.366,1.565c-5.971,0.429-9.846,3.388-12.216,8.742c-3.3,7.454-5.885,15.133-7.734,23.072
		c-0.638,2.741-1.258,5.51-2.211,8.148c-2.054,5.685-6.036,8.905-12.258,9.336c-6.006,0.416-11.969-0.33-17.957-0.309
		c-12.329,0.045-24.66,0.16-36.986-0.03c-10.84-0.167-21.552-1.486-31.663-5.731c-23.501-9.866-38.314-27.127-42.818-52.325
		c-3.98-22.27-0.456-43.391,12.775-62.212c10.961-15.592,26.569-23.549,45.108-26.434c7.289-1.134,14.6-0.955,21.922-0.951
		c8.829,0.004,17.658-0.082,26.487-0.025c4.002,0.026,5.4,1.483,5.503,5.402c0.062,2.326,0.146,4.666-0.03,6.981
		c-0.242,3.187-1.47,4.342-4.707,4.696c-1.145,0.125-2.316,0.003-3.475,0.006c-12.471,0.039-24.956-0.817-37.402,0.687
		c-20.873,2.521-34.196,14.107-40.496,33.935c-5.474,17.228-5.471,34.397,1.916,51.097c7.404,16.739,20.906,25.151,38.761,27.274
		c16.275,1.935,32.607,0.455,48.906,0.943c4.062,0.121,5.238-1.013,6.738-5.28c9.609-27.348,19.232-54.691,28.801-82.053
		c3.775-10.793,7.426-21.63,11.127-32.448c0.161-0.47,0.225-0.974,0.399-1.439c2.692-7.175,6.809-9.911,14.508-9.546
		c3.98,0.189,7.952,0.525,11.93,0.759c5.824,0.343,10.027,2.969,12.447,8.419c2.291,5.16,4.084,10.498,5.972,15.804
		c13.385,37.611,26.771,75.221,40.14,112.838C596.357,213.728,597.162,216.408,598.232,219.693z M553.154,155.707
		c-7.552-21.096-14.987-41.867-22.477-62.791c-0.442,0.42-0.624,0.513-0.675,0.653c-6.903,19.168-13.8,38.338-20.679,57.515
		c-0.454,1.266-0.694,2.581,0.112,3.825C512.771,156.277,538.183,156.768,553.154,155.707z"/>
	<path style="fill:#292424;" d="M1087.832,188.88c0.612-0.708,0.424-1.548,0.417-2.332c-0.161-18.484,0.011-36.981-0.616-55.45
		c-0.542-15.97-0.351-31.944-0.892-47.908c-0.017-0.499-0.004-0.999-0.002-1.499c0.031-6.968,2.181-8.949,9.058-8.363
		c2.647,0.226,5.299,0.391,7.941,0.661c4.38,0.447,6.166,2.017,6.196,6.204c0.077,10.813,0.006,21.624-0.542,32.437
		c-0.421,8.305-0.37,16.638-0.367,24.958c0.004,12.657-0.209,25.329,0.337,37.965c0.517,11.97,0.268,23.946,0.844,35.909
		c0.317,6.594-1.925,8.693-8.656,9.506c-12.853,1.551-21.678-3.953-28-14.815c-9.774-16.793-20.171-33.211-30.602-49.602
		c-10.881-17.098-21.824-34.156-32.748-51.226c-0.872-1.363-1.808-2.686-3.46-3.819c0,19.584,0,39.168,0,58.752
		c0,19.457,0,38.913,0,59.089c-6.923,2.439-14.003,1.545-20.698,0.692c-2.174-2.429-1.849-4.836-1.766-7.129
		c1.08-29.626,0.701-59.265,0.826-88.9c0.057-13.485-0.639-26.943-1.019-40.413c-0.038-1.331-0.086-2.673,0.035-3.996
		c0.284-3.12,1.363-4.844,4.416-5.167c5.905-0.626,11.757-2.021,17.833-0.805c6.929,1.387,11.632,5.611,15.236,11.173
		c5.238,8.082,10.041,16.445,15.18,24.593c16.222,25.718,32.512,51.393,48.795,77.073
		C1086.165,187.392,1086.458,188.665,1087.832,188.88z"/>
	<path style="fill:#EC4436;" d="M127.276,120.263c9.028-5.314,18.655-6.335,28.777-4.129c4.292,0.935,5.211,2.244,4.112,6.497
		c-0.455,1.762-0.855,3.559-1.527,5.242c-1.871,4.685-4.695,6.424-9.761,5.422c-8.028-1.588-13.338,3.169-15.736,8.462
		c-2.202,4.861-1.283,9.428,1.817,13.578c3.123,4.18,7.306,6.165,12.576,5.411c1.474-0.211,2.912-0.727,4.427-0.426
		c2.997,0.596,5.151,2.257,6.204,5.158c1.067,2.94,2.036,5.915,3.18,9.26c-3.341,2.99-7.376,3.403-11.391,3.87
		c-3.569-1.194-7.297-0.365-10.921-0.859c-1.153-1.259-2.452-0.996-4.499-0.139c1.945,0.352,2.958,1.476,4.496,1.281
		c3.678,0.341,7.356,0.682,11.035,1.022c2.469,0.701,4.775,0.476,7.25-0.437c12.632-4.66,20.115-13.546,22.59-26.74
		c1.223-6.518,2.569-7.478,9.135-6.11c2.464,0.513,4.973-0.151,7.579,0.521c2.126,3.925,0.462,7.831-0.249,11.573
		c-1.279,6.739-4.585,12.74-7.796,18.733c-0.44,0.324-0.879,0.649-1.892,1.397c1.358-0.031,2.047,0.239,2.412-0.744
		c1.6,0.073,2.278-1.045,3.017-2.207c12.529-19.699,12-43.682-2.558-61.952c-3.137-3.937-6.809-7.27-10.732-10.388
		c-4.929-3.919-5.294-6.657-1.826-11.961c0.182-0.278,0.412-0.524,0.599-0.8c3.542-5.228,4.971-5.322,9.656-0.992
		c4.882,4.513,10.044,8.673,14.2,13.986c28.041,35.84,14.981,91.076-28.915,108.134c-46.087,17.909-86.274-10.621-95.325-49.808
		c-0.82-3.549-1.349-7.195-1.232-10.89c0.043-1.36,0.067-2.669,1.41-4.023c3.212-0.876,6.859-0.557,10.457-0.318
		c2.437,0.162,3.075,2.07,3.349,4.254c0.599,4.777,1.177,9.568,2.876,14.129c0.872,2.341,1.871,4.616,3.212,6.731
		c0.988,1.558,2.183,2.775,4.388,2.917c-10.548-19.314-11.582-42.762,5.771-62.671c2.184-2.505,4.443-4.988,6.945-7.161
		c3.176-2.758,5.355-2.677,8.292,0.286c3.981,4.016,5.704,8.837,4.198,14.515c-0.493,0.139-0.884,0.521-0.474,0.906
		C126.853,121.213,127.09,120.636,127.276,120.263z M181.119,185.13c0.561-0.118,0.892-0.456,0.983-1.025
		c0.33-0.204,1.081-0.224,0.386-0.879c-0.19,0.233-0.38,0.465-0.57,0.698c-0.553,0.107-0.891,0.439-1.022,0.984
		c-0.311,0.224-1.061,0.274-0.357,0.901C180.733,185.583,180.926,185.357,181.119,185.13z M109.556,184.558
		c0.294,0.292,0.588,0.584,0.882,0.877c1.232,1.521,2.238,3.406,5.082,3.252c-1.294-1.938-2.624-3.113-4.302-3.906
		c-0.333-0.333-0.666-0.666-0.998-0.999c-0.153-0.519-0.485-0.854-1.014-0.987c-0.345-0.321-0.69-0.642-1.034-0.962
		c-0.129-0.528-0.442-0.883-0.973-1.032c-0.149-0.523-0.48-0.858-1.016-0.981c-0.499-0.963-1.106-1.364-1.988-0.41
		c0.22,0.748,0.88,0.758,1.437,0.93c0.309,0.366,0.618,0.732,0.926,1.098c0.324,0.357,0.649,0.715,0.973,1.072
		c0.338,0.351,0.676,0.703,1.014,1.054C108.882,183.895,109.219,184.226,109.556,184.558z M119.074,130.08
		c0.778-0.432,1.302-0.933,0.527-1.814c-0.737,0.344-0.677,1.003-0.722,1.618c-0.228,0.164-0.456,0.328-0.683,0.492
		c0.146,0.151,0.293,0.302,0.439,0.453C118.781,130.58,118.927,130.33,119.074,130.08z M128.75,196.515
		c0.796,1.658,1.733,2.235,3.041,0.452c-0.68-1.501-1.975-0.759-2.98-0.962c-0.697-1.165-1.622-1.138-2.864-0.726
		C126.804,196.371,127.689,196.666,128.75,196.515z M159.635,197.127c-8.683,1.699-17.503,1.34-26.335,0.538
		C140.39,200.591,150.268,201.094,159.635,197.127z M114.173,148.293c0.172-0.008,0.344-0.017,0.515-0.025c0-2.879,0-5.758,0-8.637
		c-0.172,0.007-0.344,0.013-0.515,0.02C114.173,142.531,114.173,145.412,114.173,148.293z M118.56,191.305
		c0.71,1.027,1.109,1.953,2.384,1.286C120.917,191.42,120.281,191.05,118.56,191.305z M118.094,190.692
		c-0.332-1.224-0.817-2.021-2.232-1.143C116.288,190.554,116.762,191.371,118.094,190.692z M174.264,189.261
		c-0.127,1.095-0.063,1.733,1.276,1.465C175.525,189.9,175.057,189.595,174.264,189.261z M132.324,176.457
		c0.486,0.592,0.998,0.557,1.529,0.061C133.364,175.982,132.857,175.906,132.324,176.457z M178.534,186.381
		c-0.452,0.285-0.528,0.651-0.206,1.073c0.043,0.056,0.257,0.069,0.305,0.019C179.007,187.081,178.924,186.711,178.534,186.381z
		 M116.594,134.187c-0.176,0.168-0.473,0.317-0.512,0.517c-0.079,0.4-0.083,1.033,0.58,0.671
		C117.075,135.15,117.066,134.58,116.594,134.187z M161.085,196.483c0.587,0.507,1.158,0.879,1.688-0.059
		C162.119,195.732,161.605,196.114,161.085,196.483z M164.208,195.607c0.585,0.522,1.05,0.473,1.429-0.221
		C165.051,194.854,164.589,194.925,164.208,195.607z M184.833,181.554c-0.096-0.114-0.192-0.227-0.288-0.341
		c-0.113,0.096-0.307,0.186-0.316,0.291c-0.009,0.104,0.169,0.224,0.265,0.337C184.607,181.745,184.72,181.65,184.833,181.554z
		 M172.717,192.526l-0.277-0.182l-0.036,0.296L172.717,192.526z M122.991,193.49c-0.108-0.11-0.239-0.328-0.319-0.311
		c-0.233,0.05-0.446,0.194-0.668,0.301c0.11,0.108,0.242,0.323,0.325,0.305C122.562,193.737,122.775,193.592,122.991,193.49z
		 M170.474,193.717l0.182-0.277l-0.297-0.036L170.474,193.717z M124.826,194.395c-0.126-0.143-0.224-0.254-0.323-0.366
		c-0.11,0.203-0.254,0.397-0.31,0.613c-0.018,0.07,0.195,0.2,0.302,0.303C124.615,194.748,124.733,194.551,124.826,194.395z
		 M117.788,132.404c-0.093-0.117-0.186-0.234-0.279-0.35c-0.097,0.113-0.195,0.226-0.292,0.339c0.141,0.118,0.282,0.235,0.422,0.353
		C117.689,132.631,117.739,132.518,117.788,132.404z M122.506,125.158c-0.436,0.175-0.459,0.398-0.042,0.614
		c0.05,0.026,0.299-0.17,0.308-0.276C122.781,125.392,122.603,125.272,122.506,125.158z M124.452,123.735l0.21-0.329l-0.347-0.038
		L124.452,123.735z"/>
	<path style="fill:#282324;" d="M680.849,150.119c15.994,23.415,31.644,46.327,47.341,69.308
		c-15.019,4.557-27.033-0.524-33.071-9.733c-0.911-1.389-2.031-2.682-2.71-4.175c-7.068-15.56-17.49-28.987-27.147-42.903
		c-1.705-2.457-3.35-4.959-4.954-7.484c-1.85-2.912-4.353-4.372-7.893-4.245c-4.328,0.155-8.666-0.01-12.997,0.101
		c-6.938,0.178-8.872,1.988-9.119,8.947c-0.201,5.659-0.351,11.352,0.033,16.993c0.566,8.314,0.414,16.631,0.652,24.945
		c0.1,3.493,0.312,6.967,0.617,10.451c0.562,6.416-1.745,8.562-7.396,8.416c-2.993-0.077-6.017,0.097-8.971-0.28
		c-5.804-0.74-7.143-2.309-7.215-8.05c-0.065-5.164-0.138-10.339,0.099-15.495c1.331-28.962,0.976-57.94,0.834-86.914
		c-0.044-8.979-0.597-17.955-0.907-26.933c-0.046-1.332-0.08-2.667-0.041-3.998c0.124-4.21,1.086-5.251,5.416-5.302
		c7.499-0.088,14.999,0.02,22.498-0.042c5.154-0.043,10.316-0.263,15.458-0.336c13.132-0.187,26.34-0.224,39.333,1.83
		c14.864,2.35,26.131,11.251,29.711,26.492c1.848,7.867,1.684,15.857-1.102,23.537c-4.704,12.969-14.921,19.429-27.645,22.681
		C688.311,148.789,684.863,149.318,680.849,150.119z M632.345,134.815c12.567-0.247,25.507,0.818,38.439,0.041
		c4.767-0.286,9.529-1.095,14.153-2.568c8.857-2.822,13.543-8.362,14.17-17.086c0.788-10.961-2.634-17.317-11.444-21.599
		c-5.197-2.527-10.779-3.407-16.397-3.522c-11.794-0.241-23.597-0.121-35.396-0.055c-4.387,0.025-5.567,1.235-5.592,5.708
		c-0.066,11.476-0.019,22.953-0.026,34.429C630.251,131.864,630.331,133.515,632.345,134.815z"/>
	<path style="fill:#282324;" d="M1247.182,74.303c1.772-0.682,3.615-0.561,5.444-0.561c28.326-0.001,56.652-0.001,84.979-0.001
		c0.167,0,0.333-0.001,0.5,0c7.839,0.054,8.566,0.906,7.39,8.862c-0.172,1.167-0.177,2.27-0.009,3.448
		c0.602,4.233-0.341,5.415-4.576,5.659c-2.491,0.143-5.019,0.236-7.493-0.013c-8.466-0.854-16.958-0.403-25.434-0.626
		c-11.323-0.299-22.658-0.154-33.988-0.138c-5.265,0.008-6.307,0.928-6.218,6.084c0.184,10.659,0.195,21.314-0.031,31.971
		c-0.028,1.334,0.008,2.668,0.594,3.913c1.498,1.934,3.612,2.174,5.838,2.161c19.157-0.111,38.314-0.217,57.471-0.315
		c1.998-0.01,3.997,0.023,5.994,0.064c2.757,0.056,4.289,1.539,4.743,4.193c0.167,0.979,0.306,1.971,0.345,2.962
		c0.329,8.339-1.234,10.045-9.58,9.936c-18.805-0.245-37.609-0.593-56.413-0.894c-1.166-0.019-2.341-0.089-3.498,0.018
		c-3.778,0.349-5.353,1.896-5.459,5.717c-0.101,3.658,0.139,7.323,0.128,10.985c-0.025,8.829-0.126,17.658-0.157,26.487
		c-0.008,2.306-0.289,4.658,0.566,6.71c1.685,1.792,3.67,1.827,5.695,1.825c18.162-0.012,36.324,0.02,54.486-0.029
		c3.818-0.01,7.638-0.463,11.454-0.419c5.455,0.063,7.047,2.027,6.531,7.458c-0.141,1.487-0.173,2.985-0.221,4.479
		c-0.157,4.936-1.588,6.473-6.66,6.572c-5.161,0.101-10.352,0.26-15.482-0.169c-4.332-0.363-8.642-0.343-12.962-0.366
		c-9.664-0.051-19.329-0.085-28.992,0.004c-8.814,0.081-17.627,0.352-26.441,0.492c-1.652,0.026-3.345,0.02-4.954-0.301
		c-3.934-0.786-5.702-2.866-5.744-6.925c-0.073-6.997,0.048-13.995,0.05-20.993c0.008-37.156,0.003-74.312,0.006-111.468
		C1245.083,78.777,1244.678,76.352,1247.182,74.303z"/>
	<path style="fill:#282325;" d="M864.305,219.24c-1.221-1.894-1.228-3.889-1.194-5.905c0.217-12.646,0.705-25.296,0.526-37.937
		c-0.115-8.15-0.669-16.318-0.309-24.456c0.819-18.487,0.19-36.975,0.382-55.46c0.041-3.983-0.294-7.969-0.443-11.954
		c-0.031-0.832-0.045-1.669,0.003-2.499c0.332-5.762,1.929-7.346,7.67-7.323c15.659,0.064,31.317,0.239,46.975,0.273
		c12.313,0.026,24.621-0.172,36.932-0.619c7.173-0.261,9.018,1.801,8.933,8.213c-0.015,1.163,0.133,2.328,0.132,3.493
		c-0.004,5.092-1.341,6.641-6.431,6.631c-7.485-0.015-14.97-0.386-22.456-0.466c-14.494-0.155-28.988-0.261-43.482-0.283
		c-4.282-0.006-5.652,1.434-5.669,5.757c-0.042,10.998-0.018,21.996,0.07,32.994c0.03,3.697,1.4,5.004,5.118,5.28
		c1.16,0.086,2.332,0.021,3.499,0.015c18.827-0.085,37.655-0.171,56.482-0.256c0.833-0.004,1.667-0.016,2.5,0.002
		c5.453,0.117,6.687,1.263,7.191,6.673c0.031,0.331-0.002,0.667,0.019,0.999c0.488,7.817-1.057,9.585-8.832,9.483
		c-17.978-0.236-35.955-0.588-53.933-0.886c-1.666-0.028-3.334-0.044-5,0.001c-5.727,0.152-7.243,1.803-7.169,7.666
		c0.079,6.331,0.161,12.662,0.177,18.993c0.016,6.166-0.08,12.331-0.066,18.497c0.012,5.277,1.569,6.799,6.872,6.781
		c2.329-0.008,4.658-0.196,6.988-0.2c12.833-0.021,25.666,0.04,38.499-0.031c6.32-0.035,12.638-0.312,18.958-0.443
		c1.325-0.027,2.682-0.044,3.975,0.2c2.373,0.446,3.875,1.74,3.8,4.428c-0.079,2.83,0.054,5.666-0.035,8.495
		c-0.103,3.253-1.13,4.479-4.301,5.106c-1.29,0.255-2.648,0.227-3.975,0.228c-8.489,0.004-16.977-0.318-25.458-0.374
		c-19.984-0.132-39.97,0.23-59.956,0.377C868.983,220.749,866.6,221.045,864.305,219.24z"/>
	<path style="fill:#272324;" d="M778.09,74.01c9.488,0,18.982-0.217,28.461,0.061c9.575,0.28,18.771,2.495,27.06,7.485
		c11.382,6.852,16.282,17.551,17.246,30.345c0.413,5.489,0.054,10.978-1.337,16.342c-3.579,13.8-12.943,22.032-25.943,26.602
		c-7.573,2.662-15.461,3.946-23.47,4.024c-8.806,0.086-17.623,0.321-26.421-0.546c-1.61-0.159-3.302,0.239-4.924,0.547
		c-3.258,0.618-4.805,2.043-4.764,5.355c0.157,12.811-0.495,25.634,0.509,38.435c0.299,3.811,0.674,7.627,0.711,11.444
		c0.05,5.169-1.929,7.188-6.918,6.735c-3.652-0.332-7.23-0.495-10.897-0.172c-3.758,0.331-5.071-0.875-5.796-4.617
		c-0.312-1.614-0.415-3.312-0.318-4.955c0.991-16.788,0.679-33.597,0.757-50.395c0.112-23.815-0.014-47.631-0.061-71.447
		c-0.006-2.826-0.237-5.652-0.231-8.477c0.014-6.226,0.773-7.007,6.856-7.027c9.826-0.033,19.653-0.009,29.479-0.009
		C778.09,73.83,778.09,73.92,778.09,74.01z M764.001,122.794c0,5.141-0.011,9.473,0.003,13.805c0.018,5.496,0.584,6.074,5.904,6.144
		c6.327,0.084,12.656,0.292,18.981,0.221c6.482-0.072,12.965-0.486,19.301-1.968c11.674-2.73,17.954-9.293,19.486-21.085
		c1.541-11.865-3.49-23.958-17.675-28.037c-4.499-1.294-9.104-1.893-13.776-1.859c-6.316,0.046-12.596-0.008-18.904-0.803
		c-10.814-1.364-15.556,3.203-14.163,13.961C764.043,110.002,763.824,116.791,764.001,122.794z"/>
	<path style="fill:#EC4737;" d="M146.719,19.171c35.094,0.335,65.034,13.111,89.905,37.783
		c18.47,18.322,30.152,40.334,34.955,65.888c1.194,6.353,1.627,12.857,2.227,19.309c0.308,3.308-0.894,4.451-4.642,5.165
		c-3.616,0.689-6.184-0.272-7.091-2.845c-0.435-1.234-0.621-2.589-0.714-3.904c-3.352-47.3-27.742-79.939-69.976-99.926
		c-11.185-5.293-23.16-8.114-35.565-8.876c-39.414-2.422-72.411,11.014-98.612,40.507c-14.153,15.931-22.322,34.778-25.447,55.899
		c-2.819,19.053-1.978,37.758,4.122,56.117c6.293,18.938,17.471,34.601,32.158,47.9c4.938,4.471,10.13,8.614,15.608,12.425
		c4.531,3.152,3.649,9.81-1.429,12.04c-1.589,0.698-2.945,0.1-4.204-0.767c-28.962-19.946-49.936-45.632-57.667-80.72
		c-2.967-13.467-3.05-27.082-1.162-40.697c3.202-23.098,11.026-44.439,24.859-63.351c20.753-28.374,48.695-45.107,83.274-50.902
		c2.946-0.494,5.932-0.855,8.914-1.002C139.721,19.039,143.223,19.171,146.719,19.171z"/>
	<path style="fill:#EC4737;" d="M254.146,146.576c-1.025,36.216-15.241,65.816-44.324,87.935c-1.845,1.403-3.796,2.729-5.862,3.763
		c-3.705,1.854-6.063,0.906-8.137-2.943c-2.223-4.126-1.779-5.941,1.852-8.346c22.067-14.615,36.917-34.386,41.879-60.653
		c10.766-56.996-27.887-105.373-76.688-113.475c-49.149-8.16-96.1,20.562-109.598,70.888c-1.498,5.587-2.765,11.304-2.36,17.225
		c0.165,2.415-0.469,4.811-2.963,5.833c-3.048,1.25-6.201,1.241-9.064-0.646c-1.378-0.908-1.663-2.408-1.484-3.997
		c1.55-13.746,4.046-27.246,9.947-39.917c12.781-27.444,33.172-46.888,61.833-56.653c37.254-12.693,72.304-7.502,103.665,16.546
		c23.062,17.684,36.178,41.613,40.319,70.444C253.828,137.223,254.007,141.848,254.146,146.576z"/>
	<path style="fill:#EC4637;" d="M101.961,224.992c-0.16-4.648,2.286-7.829,5.119-10.606c2.092-2.05,4.777-0.976,7.066-0.004
		c4.133,1.754,8.283,3.426,12.615,4.624c35.907,9.93,72.036-7.822,87.187-41.27c19.759-43.624-5.81-94.339-53.024-103.926
		c-14.073-2.857-27.734-1.732-41.186,3.078c-2.205,0.788-4.263,1.81-6.292,2.97c-4.107,2.349-6.024,1.785-8.633-2.305
		c-0.269-0.421-0.563-0.829-0.8-1.267c-2.708-5.01-2.046-7.561,2.961-10.132c6.393-3.283,13.215-5.506,20.25-6.795
		c18.733-3.433,37.015-1.983,54.66,5.628c18.928,8.165,32.82,21.773,42.774,39.567c7.28,13.014,11.009,27.145,10.901,41.99
		c-0.171,23.536-8.281,44.223-24.198,61.664c-11.486,12.584-25.387,21.519-41.959,25.676c-19.059,4.781-37.889,3.284-56.276-3.607
		c-3.107-1.164-6.136-2.541-9.178-3.87C103.355,226.145,102.869,225.649,101.961,224.992z"/>
	<path style="fill:#272324;" d="M1122.979,75.653c2.493-2.095,4.9-1.89,7.196-1.892c32.165-0.031,64.329-0.022,96.494-0.017
		c0.831,0,1.671,0.005,2.493,0.115c3.169,0.423,4.041,1.357,4.082,4.519c0.049,3.82,0.012,7.641,0.012,10.779
		c-1.994,3.045-4.401,3.012-6.712,2.689c-9.951-1.392-19.958-0.643-29.936-0.913c-5.865-0.159-7.332,1.242-7.311,7.303
		c0.042,12.152,0.343,24.304,0.412,36.456c0.026,4.65-0.703,9.332-0.375,13.949c1.443,20.283,0.061,40.598,0.914,60.882
		c0.07,1.661,0.029,3.336-0.106,4.993c-0.358,4.382-1.783,6.068-6.135,6.239c-4.132,0.162-8.312,0.319-12.421-0.659
		c-3.735-0.89-5.062-2.183-5.449-6.027c-0.2-1.983-0.141-3.996-0.131-5.995c0.078-16.661-0.171-33.333,0.35-49.98
		c0.599-19.145,0.372-38.294,0.885-57.435c0.031-1.162-0.029-2.333-0.133-3.491c-0.403-4.49-2.16-6.347-6.587-6.367
		c-6.66-0.031-13.322,0.144-19.98,0.331c-3.652,0.103-7.305,0.344-10.946,0.648c-2.219,0.185-4.306,0.139-6.569-1.782
		C1124.199,85.401,1122.283,80.548,1122.979,75.653z"/>
	<path style="fill:#F6AA92;" d="M139.032,177.747c3.624,0.494,7.352-0.335,10.921,0.859c0.037,0.435,0.073,0.87,0.11,1.305
		c-3.678-0.341-7.356-0.682-11.035-1.022C139.03,178.509,139.031,178.128,139.032,177.747z"/>
	<path style="fill:#F6AA92;" d="M159.635,197.127c-9.367,3.966-19.246,3.464-26.335,0.538
		C142.132,198.467,150.953,198.826,159.635,197.127z"/>
	<path style="fill:#F28065;" d="M114.173,148.293c0-2.881,0-5.762,0-8.642c0.172-0.007,0.344-0.013,0.515-0.02
		c0,2.879,0,5.758,0,8.637C114.517,148.276,114.345,148.284,114.173,148.293z"/>
	<path style="fill:#FCD6C7;" d="M111.217,184.781c1.678,0.793,3.008,1.967,4.302,3.906c-2.843,0.154-3.849-1.731-5.082-3.252
		C110.698,185.217,110.957,184.999,111.217,184.781z"/>
	<path style="fill:#EC4536;" d="M128.811,196.005c1.005,0.203,2.3-0.539,2.98,0.962c-1.309,1.784-2.246,1.206-3.041-0.452
		C128.718,196.339,128.738,196.169,128.811,196.005z"/>
	<path style="fill:#F4987E;" d="M139.032,177.747c-0.001,0.381-0.002,0.761-0.003,1.142c-1.538,0.195-2.551-0.929-4.496-1.281
		C136.581,176.752,137.879,176.488,139.032,177.747z"/>
	<path style="fill:#FCD6C7;" d="M128.811,196.005c-0.073,0.164-0.093,0.334-0.061,0.51c-1.06,0.15-1.946-0.144-2.802-1.236
		C127.189,194.867,128.114,194.84,128.811,196.005z"/>
	<path style="fill:#FCD6C7;" d="M118.56,191.305c1.721-0.255,2.357,0.114,2.384,1.286
		C119.668,193.258,119.27,192.333,118.56,191.305z"/>
	<path style="fill:#FCD6C7;" d="M118.094,190.692c-1.332,0.68-1.806-0.137-2.232-1.143
		C117.277,188.671,117.762,189.468,118.094,190.692z"/>
	<path style="fill:#EC4536;" d="M174.264,189.261c0.794,0.334,1.261,0.639,1.276,1.465
		C174.201,190.995,174.136,190.357,174.264,189.261z"/>
	<path style="fill:#F4987E;" d="M132.324,176.456c0.533-0.549,1.04-0.474,1.529,0.063
		C133.321,177.014,132.809,177.049,132.324,176.456z"/>
	<path style="fill:#EC4536;" d="M178.531,186.381c0.393,0.331,0.476,0.7,0.102,1.092c-0.048,0.05-0.262,0.037-0.305-0.019
		C178.006,187.033,178.082,186.667,178.531,186.381z"/>
	<path style="fill:#F4987E;" d="M116.594,134.187c0.471,0.393,0.48,0.962,0.068,1.188c-0.662,0.362-0.658-0.271-0.58-0.671
		C116.122,134.504,116.418,134.355,116.594,134.187z"/>
	<path style="fill:#F4987E;" d="M118.879,129.884c0.045-0.615-0.015-1.275,0.722-1.618c0.775,0.881,0.251,1.383-0.527,1.814
		L118.879,129.884z"/>
	<path style="fill:#F6AA92;" d="M161.085,196.483c0.52-0.369,1.034-0.751,1.688-0.059
		C162.243,197.362,161.672,196.99,161.085,196.483z"/>
	<path style="fill:#FCD6C7;" d="M105.631,180.339c-0.557-0.172-1.217-0.181-1.437-0.93c0.882-0.954,1.489-0.552,1.988,0.41
		C106.003,179.998,105.82,180.171,105.631,180.339z"/>
	<path style="fill:#F6AA92;" d="M164.208,195.607c0.381-0.682,0.843-0.753,1.429-0.221
		C165.258,196.08,164.793,196.129,164.208,195.607z"/>
	<path style="fill:#FCD6C7;" d="M107.197,180.801c0.531,0.149,0.844,0.504,0.973,1.032c-0.228,0.211-0.442,0.436-0.639,0.676
		c-0.324-0.357-0.649-0.715-0.973-1.072C106.775,181.228,106.988,181.016,107.197,180.801z"/>
	<path style="fill:#F28065;" d="M184.833,181.554c-0.113,0.096-0.226,0.192-0.339,0.288c-0.096-0.113-0.274-0.233-0.265-0.337
		c0.009-0.105,0.203-0.195,0.316-0.291C184.641,181.326,184.737,181.44,184.833,181.554z"/>
	<path style="fill:#FCD6C7;" d="M108.545,183.563c-0.338-0.351-0.676-0.703-1.014-1.054c0.198-0.24,0.411-0.465,0.639-0.676
		c0.345,0.321,0.69,0.642,1.034,0.962C108.985,183.051,108.765,183.307,108.545,183.563z"/>
	<path style="fill:#FCD6C7;" d="M109.205,182.795c0.529,0.133,0.861,0.467,1.014,0.987c-0.221,0.259-0.442,0.517-0.662,0.776
		c-0.337-0.332-0.674-0.664-1.011-0.995C108.765,183.307,108.985,183.051,109.205,182.795z"/>
	<path style="fill:#F28065;" d="M181.918,183.924c0.19-0.233,0.38-0.465,0.57-0.698c0.695,0.655-0.056,0.674-0.386,0.879
		L181.918,183.924z"/>
	<path style="fill:#FCD6C7;" d="M110.438,185.435c-0.294-0.292-0.588-0.584-0.882-0.877c0.221-0.259,0.442-0.517,0.662-0.776
		c0.333,0.333,0.666,0.666,0.998,0.999C110.957,184.999,110.698,185.217,110.438,185.435z"/>
	<path style="fill:#F28065;" d="M180.896,184.909c0.131-0.545,0.469-0.877,1.022-0.984l0.184,0.181
		c-0.09,0.569-0.422,0.907-0.983,1.025L180.896,184.909z"/>
	<path style="fill:#F28065;" d="M181.119,185.13c-0.193,0.226-0.387,0.452-0.58,0.679c-0.704-0.626,0.046-0.677,0.357-0.901
		L181.119,185.13z"/>
	<path style="fill:#F4987E;" d="M119.074,130.08c-0.146,0.25-0.293,0.5-0.44,0.75c-0.146-0.151-0.293-0.302-0.439-0.453
		c0.228-0.164,0.456-0.328,0.683-0.492L119.074,130.08z"/>
	<polygon style="fill:#EC4536;" points="172.717,192.526 172.405,192.641 172.44,192.344 	"/>
	<path style="fill:#FCD6C7;" d="M122.993,193.488c-0.218,0.104-0.431,0.249-0.664,0.298c-0.084,0.017-0.215-0.197-0.325-0.305
		c0.221-0.107,0.434-0.251,0.668-0.301C122.752,193.162,122.883,193.38,122.993,193.488z"/>
	<polygon style="fill:#EC4536;" points="170.474,193.717 170.359,193.405 170.656,193.44 	"/>
	<path style="fill:#FCD6C7;" d="M124.826,194.395c-0.093,0.156-0.212,0.353-0.33,0.551c-0.107-0.103-0.32-0.233-0.302-0.303
		c0.056-0.217,0.2-0.411,0.31-0.613C124.602,194.141,124.7,194.252,124.826,194.395z"/>
	<path style="fill:#F4987E;" d="M117.788,132.404c-0.049,0.114-0.099,0.228-0.148,0.342c-0.141-0.118-0.282-0.235-0.422-0.353
		c0.097-0.113,0.195-0.226,0.292-0.339C117.602,132.17,117.695,132.287,117.788,132.404z"/>
	<path style="fill:#F28065;" d="M122.506,125.158c0.096,0.113,0.275,0.234,0.266,0.338c-0.009,0.106-0.259,0.302-0.308,0.276
		C122.047,125.556,122.07,125.333,122.506,125.158z"/>
	<polygon style="fill:#F28065;" points="124.452,123.735 124.315,123.368 124.662,123.406 	"/>
	<path style="fill:#FCD6C7;" d="M106.182,179.82c0.536,0.123,0.867,0.458,1.016,0.981c-0.21,0.216-0.423,0.428-0.64,0.636
		c-0.309-0.366-0.618-0.732-0.926-1.098C105.82,180.171,106.003,179.998,106.182,179.82z"/>
</g>
</svg>
