<?xml version="1.0" encoding="iso-8859-1"?>
<!-- Generator: Adobe Illustrator 27.0.0, SVG Export Plug-In . SVG Version: 6.00 Build 0)  -->
<svg version="1.1" id="Layer_1" xmlns="http://www.w3.org/2000/svg" xmlns:xlink="http://www.w3.org/1999/xlink" x="0px" y="0px"
	 viewBox="0 0 1532.753 360" style="enable-background:new 0 0 1532.753 360;" xml:space="preserve">
<g>
	<path style="fill:#112A4A;" d="M52.753,0c0.378,1.401,1.543,0.894,2.443,0.995c10.411,1.164,20.826,2.289,31.233,3.485
		c9.909,1.138,19.809,2.354,29.714,3.525c13.375,1.581,26.748,3.191,40.129,4.717c13.218,1.508,26.447,2.919,39.67,4.385
		c13.879,1.539,27.752,3.13,41.635,4.626c10.915,1.177,21.845,2.213,32.762,3.37c10.912,1.157,21.815,2.411,32.726,3.576
		c10.913,1.165,21.833,2.274,32.75,3.407c7.112,0.738,14.228,1.447,21.334,2.237c1.298,0.144,2.559,0.617,3.642,0.889
		c1.919,2.385,0.694,4.237-0.431,6.122c-2.035,3.409-4.588,6.512-6.197,10.206c1.305,0.751,2.619,0.747,4.22,0.803
		c5.963-4.982,12.084-10.096,18.284-15.276c4.189,0.259,8.198,1.286,12.236,2.157c2.454,2.625,2.125,6.268,3.673,9.507
		c4.428,0.74,9.005,1.441,13.627,1.32c3.961-0.104,6.34,1.409,8.279,4.993c8.46,15.639,17.141,31.159,25.933,46.614
		c1.98,3.48,2.786,6.556,0.53,10.155c-1.033,1.649-1.556,3.618-2.358,5.557c2.294,1.368,4.008,1.027,5.848-0.676
		c14.664-13.57,29.391-27.072,44.37-40.844c0-4.623,0-9.423,0-14.821c14.641-5.931,29.598-10.755,44.567-16.518
		c1.904-4.537,2.258-9.716,3.398-14.693c1.408-6.15,2.562-12.357,3.922-18.518c0.793-3.592,1.438-4.132,4.992-4.178
		c5.832-0.076,11.666-0.047,17.499-0.012c4.545,0.027,5.262,0.608,6.45,5.185c1.496,5.767,2.941,11.547,4.41,17.328
		c0.53,0.241,0.96,0.592,1.411,0.62c6.826,0.434,6.812,0.428,8.241,7.271c0.509,2.436,1.021,4.877,1.689,7.271
		c0.815,2.925-0.037,5.023-2.368,6.994c-8.772,7.414-17.415,14.982-26.291,22.652c-0.364,5.189-0.784,10.495,3.105,14.92
		c2.046,2.328,2.337,5.033,2.16,7.933c-0.152,2.479,0.251,4.991-0.447,7.97c-8.901,4.905-18.041,9.942-27.455,15.13
		c-1.542,4.14-1.497,8.856-2.158,13.417c-1.668,11.515-2.881,23.095-4.532,34.612c-0.351,2.448-0.045,4.587,0.688,6.802
		c1.304,3.938,2.48,7.926,3.977,11.79c0.799,2.06,0.621,3.756-0.269,5.702c-3.456,7.546-6.696,15.191-10.186,22.721
		c-2.121,4.576-5.83,8.07-8.881,11.997c-9.29,11.955-18.73,23.794-28.333,35.958c1.627,6.502,3.262,13.086,4.922,19.663
		c3.694,14.642,7.392,29.283,11.107,43.92c0.781,3.079,0.639,6.188,0.588,9.322c-0.101,6.142-0.03,12.287-0.03,17.53
		c-2.547,3.165-5.11,2.911-7.604,2.88c-9.768-0.12-7.592,1.238-13.074-7.055c-7.7-11.65-15.019-23.558-22.931-35.06
		c-3.605-5.24-5.877-10.703-6.568-16.932c-0.091-0.815-0.277-1.62-0.45-2.607c-3.411-2.018-6.839-4.036-10.256-6.073
		c-1.015-0.605-2.04-0.995-3.275-0.992c-16.475,0.031-32.95,0.02-49.55,0.02c-0.893,2.297-0.49,4.466-0.483,6.564
		c0.007,2.241-0.755,3.712-2.883,4.71c-5.107,2.395-10.122,4.986-15.178,7.491c-1.851,0.917-3.833,0.956-5.851,0.95
		c-10.333-0.033-20.666-0.02-30.998-0.01c-1.653,0.002-3.338-0.195-4.863,0.746c-12.013,7.407-24.031,14.806-36.26,22.337
		c0,7.878-0.04,15.691,0.028,23.502c0.017,1.998-0.191,3.894-1.03,5.707c-5.667,0-11.333,0-17,0
		c-7.884-7.15-15.737-14.335-23.674-21.426c-2.288-2.044-3.924-4.354-4.934-7.281c-3.134-9.087-6.433-18.118-9.707-27.278
		c-4.352-1.589-8.474-3.712-12.922-4.182c-3.801,3.065-5.231,8.069-10.061,10.02c-5.561-4.101-10.802-8.538-16.597-12.066
		c-4.879-2.969-6.672-7.06-7.042-12.288c-0.047-0.664-0.139-1.326-0.201-1.989c-0.131-1.404-0.79-2.49-1.867-3.396
		c-4.826-4.064-9.518-8.294-14.581-11.89c-5.202,0-10.231-0.363-15.19,0.075c-10.6,0.937-20.201-1.536-29.67-6.321
		c-14.055-7.103-28.908-12.643-41.879-21.83c-1.299-0.92-2.946-1.383-4.039-3.202c47.217,0,94.149,0,141.571,0
		c-1.686-2.597-3.101-4.776-4.508-6.944c-1.755,0-3.248,0-4.741,0c-46.831,0-93.663-0.019-140.494,0.048
		c-2.779,0.004-5.101-0.606-7.466-2.083c-11.7-7.306-23.336-14.739-35.32-21.554c-5.786-3.291-7.613-8.592-10.414-14.398
		c60.68,0,120.634,0,180.739,0c0.015-2.7-0.973-4.743-1.844-7.124c-60.735,0-121.361,0-182.217,0
		c-2.84-12.622-5.947-24.902-8.325-37.938c60.579,0,120.483,0,180.73,0c-0.696-2.561-1.253-4.607-1.892-6.956
		c-60.094,0-120.034,0-180.325,0c-1.73-7.68-3.074-15.181-5.172-22.465c-1.61-5.591-0.317-10.394,2.035-15.187
		c0.251-0.091,0.406-0.195,0.561-0.195c42.825-0.056,85.65-0.105,128.475-0.161c0.49-0.001,0.983-0.076,1.468-0.152
		c0.151-0.024,0.299-0.151,0.42-0.262c0.104-0.095,0.166-0.235,0.313-0.451c-0.563-1.96-0.007-4.201-1.139-6.421
		c-21.337,0-42.657,0-63.977,0c-21.214,0-42.429-0.001-63.967-0.002c5.225-14.997,9.871-29.351,15.236-43.432
		c5.008-13.145,9.185-26.258,7.702-40.623c-0.45-4.36,1.254-5.272,5.468-4.094c3.423,0.957,6.61,2.728,10.335,3.237
		c0.425-3.483,0.646-6.78,2.109-9.789C48.086,0,50.419,0,52.753,0z M354.322,212.102c-3.7-6.645-6.888-12.619-9.613-18.834
		c-6.673-15.219-11.669-31.037-16.909-46.767c-5.563-16.702-11.506-33.238-19.887-48.788c-2.303-4.274-4.978-8.264-8.552-11.589
		c-4.405-4.099-9.267-6.38-15.649-6.34c-36.484,0.234-72.969,0.114-109.454,0.113c-1.654,0-3.307,0-5.49,0
		c2.4,3.178,4.685,5.815,6.241,8.928c3.484,6.972,6.955,13.944,9.832,21.204c7.169,18.09,11.939,36.902,16.919,55.655
		c4.601,17.327,9.473,34.561,17.76,50.591c4.6,8.899,9.852,17.357,17.109,24.391c6.438,6.241,14.033,9.279,23.103,8.397
		c6.666-0.648,12.189-5.47,12.978-11.898c-9.482,0-18.927,0-28.53,0c-0.736-4.67-0.458-8.951,0.929-13.067
		c2.443-7.25,9.756-11.977,18.384-11.987c28.322-0.03,56.644-0.012,84.965-0.012C350.109,212.102,351.76,212.102,354.322,212.102z
		 M276.823,220.267c5.812,9.64,5.566,19.139-0.927,28.348c1.185,0.828,2.364,0.468,3.467,0.468
		c32.968,0.022,65.936,0.019,98.904,0.014c1.165,0,2.338,0.022,3.494-0.095c7.318-0.742,14.086-8.318,13.567-15.425
		c-0.547-7.486-5.93-13.958-14.476-13.849c-33.129,0.421-66.267,0.167-99.402,0.185C279.972,219.913,278.46,219.635,276.823,220.267
		z M156.38,94.32c4.083,0,8.126,0,12.37,0c-2.505-5.313-5.347-9.036-8.823-11.746c-4.199-3.274-8.541-3.512-12.299-0.675
		c-5.906,4.458-7.612,15.605-3.317,21.652c1.422,2.002,3.328,3.491,5.785,3.302c2.771-0.213,4.099-2.425,5.156-4.807
		C156.234,99.835,155.461,97.448,156.38,94.32z M251.911,229.901c6.902,0,13.774,0,20.686,0c-1.201-6.093-5.842-10.226-11.05-10.006
		C256.209,220.121,252.834,223.563,251.911,229.901z M173.156,102.108c-3.665-0.11-6.942-0.328-10.229,0.156
		c-0.802,3.76-2.99,6.651-5.388,9.679c6.696,0,13.009,0,19.485,0C176.329,108.266,174.634,105.429,173.156,102.108z"/>
	<path style="fill:#AEAEBC;" d="M1532.753,249l-0.464,0.057l-0.467-0.023c0.026-7.703,0.051-15.405,0.077-23.108
		c0.298-0.126,0.583-0.101,0.855,0.073C1532.753,233.667,1532.753,241.333,1532.753,249z"/>
	<path style="fill:#122B4A;" d="M729.203,150.886c-0.798-2.851-1.455-5.742-2.415-8.529c-3.708-10.757-11.23-16.818-22.53-18.484
		c-5.862-0.864-11.606-0.665-17.279,0.778c-12.869,3.274-20.944,11.861-25.229,24.033c-5.885,16.715-5.691,33.699-0.427,50.479
		c5.699,18.166,21.816,28.187,42.638,25.189c6.086-0.876,11.608-2.794,16.409-6.608c5.412-4.299,8.612-10.032,10.382-16.625
		c0.428-1.594,0.767-3.211,1.207-5.071c11.096,0,22.169,0,33.643,0c-0.48,6.889-2.178,13.358-4.713,19.641
		c-6.573,16.289-18.42,27.167-34.93,32.551c-21.424,6.986-42.839,6.677-63.8-2.176c-17.941-7.577-29.719-21.031-35.674-39.34
		c-6.04-18.573-7.111-37.635-1.752-56.504c8.602-30.288,28.84-48.039,59.924-53.245c15.102-2.53,29.983-1.079,44.107,4.61
		c21.867,8.807,32.901,25.879,35.443,49.301C752.482,150.886,740.915,150.886,729.203,150.886z"/>
	<path style="fill:#132B4B;" d="M1106.65,201.788c-26.315,0-52.74,0-79.11,0c-1.92,12.342,6.872,25.412,18.662,28.212
		c5.952,1.413,11.855,1.311,17.737-0.351c6.312-1.784,10.95-5.4,13.058-11.833c0.255-0.778,0.706-1.492,1.104-2.313
		c9.476,0,18.918,0,28.859,0c-0.818,7.724-3.699,14.238-8.302,20.061c-7.672,9.706-18.323,14.091-30.017,16.198
		c-11.426,2.059-22.84,1.595-34.074-1.643c-20.868-6.014-33.335-19.982-37.571-40.969c-2.525-12.512-2.026-25.115,2.628-37.318
		c6.066-15.907,17.101-26.62,33.153-32.149c12.138-4.181,24.554-4.501,36.822-1.125c20.22,5.564,32.019,19.18,36.102,39.627
		c1.244,6.231,1.297,12.568,1.562,18.882C1107.324,198.535,1107.555,200.067,1106.65,201.788z M1077.302,182.555
		c-0.921-18.784-12.427-24.612-23.481-24.76c-15.221-0.203-24.594,11.253-25.581,24.76
		C1044.508,182.555,1060.759,182.555,1077.302,182.555z"/>
	<path style="fill:#132B4B;" d="M1305.538,183.772c-0.276-5.766-0.149-10.769-1.788-15.557c-1.492-4.36-4.374-7.272-8.995-8.476
		c-6.027-1.571-11.856-1.142-17.512,1.335c-3.716,1.627-5.921,4.744-7.382,8.396c-0.614,1.533-0.969,3.169-1.506,4.974
		c-9.544,0-19.119,0-29.098,0c0.752-12.9,6.048-22.861,16.716-29.718c7.708-4.954,16.323-7.144,25.424-7.849
		c10.382-0.804,20.593-0.384,30.523,3.071c12.777,4.447,20.147,13.544,22.755,26.647c0.78,3.917,1.115,7.89,1.106,11.909
		c-0.049,22.658-0.016,45.317-0.043,67.975c-0.002,1.279,0.401,2.65-0.584,4.029c-9.504,0-19.104,0-29.22,0
		c0-4.071,0-8.101,0-13.179c-4.806,5.435-9.135,9.799-15.035,11.981c-13.86,5.128-27.666,5.538-40.982-1.566
		c-10.246-5.466-14.324-14.902-14.963-25.982c-0.916-15.869,7.103-27.41,22.202-32.768c10.479-3.719,21.282-5.18,32.333-5.22
		C1294.618,183.757,1299.748,183.772,1305.538,183.772z M1305.293,201.862c-7.802,0.284-15.395-0.493-22.992,0.693
		c-3.637,0.568-7.172,1.334-10.388,3.203c-5.479,3.184-6.895,8.147-6.272,14.079c0.529,5.036,3.295,8.413,7.944,9.846
		c7.983,2.461,15.786,1.754,23.056-2.61c4.012-2.409,6.816-5.923,7.988-10.435C1305.844,211.965,1305.78,207.157,1305.293,201.862z"
		/>
	<path style="fill:#122B4A;" d="M888.996,193.517c0.115,16.771-4.396,30.854-15.649,42.268
		c-8.554,8.676-19.117,13.783-31.049,15.748c-13.547,2.231-26.88,1.347-39.499-4.622c-15.183-7.182-25.116-18.856-29.053-35.258
		c-3.714-15.476-3.227-30.764,4.167-45.169c8.858-17.255,23.469-26.568,42.429-29.511c13.179-2.046,25.909-0.533,37.933,5.204
		c16.086,7.675,25.628,20.636,29.43,37.936C888.747,184.853,888.877,189.686,888.996,193.517z M803.669,194.098
		c-0.31,6.872,0.598,13.595,3.413,19.934c4.681,10.541,13.529,15.562,26.208,15.06c9.722-0.385,17.997-6.536,21.49-16.596
		c4.29-12.358,4.099-24.818-0.547-37.067c-3.379-8.907-11.974-15.852-23.795-15.563c-11.311,0.277-19.682,5.565-23.778,15.658
		C804.244,181.475,803.362,187.68,803.669,194.098z"/>
	<path style="fill:#112A4A;" d="M1457.581,250.502c-10.337,0-20.273,0-30.286,0c-1.128-1.521-0.587-3.241-0.59-4.827
		c-0.041-19.328-0.062-38.656,0.003-57.984c0.013-4.02-0.33-7.99-0.958-11.937c-1.285-8.069-7.111-13.33-15.24-13.889
		c-5.368-0.369-10.699-0.314-15.536,2.462c-7.832,4.495-11.179,11.61-11.218,20.354c-0.088,19.994-0.026,39.989-0.025,59.984
		c0,1.628,0,3.255,0,5.105c-10.431,0-20.501,0-30.806,0c0-36.852,0-73.576,0-110.537c10.202,0,20.294,0,30.757,0
		c0.707,5.183,0.096,10.453,0.371,15.781c1.21-0.245,1.479-1.376,2.088-2.206c6.999-9.527,16.423-14.729,28.174-15.871
		c5.825-0.566,11.557-0.542,17.292,0.942c11.819,3.058,19.233,10.612,23.115,21.97c1.682,4.921,2.74,10.036,2.777,15.158
		C1457.68,199.992,1457.581,224.979,1457.581,250.502z"/>
	<path style="fill:#122B4A;" d="M1224.378,250.488c-10.365,0-20.3,0-30.297,0c-1.097-1.782-0.601-3.653-0.605-5.411
		c-0.042-18.331-0.064-36.663,0.002-54.994c0.015-4.177-0.26-8.325-0.677-12.464c-0.983-9.75-6.929-15.329-16.628-15.806
		c-3.175-0.156-6.35-0.204-9.44,0.569c-9.628,2.409-16.028,10.844-16.085,21.44c-0.09,16.498-0.021,32.996-0.02,49.494
		c0,5.32,0,10.639,0,16.322c-10.361,0-20.563,0-30.967,0c0-36.693,0-73.305,0-110.28c10.125,0,20.344,0,30.915,0
		c0,5.144,0,10.411,0,15.931c1.757-0.585,1.892-1.996,2.594-2.918c6.454-8.478,14.98-13.617,25.462-15.181
		c6.917-1.032,13.899-1.162,20.751,0.896c10.422,3.129,17.541,9.717,21.428,19.907c2.65,6.946,3.674,14.196,3.729,21.511
		c0.172,22.829,0.068,45.661,0.061,68.491C1224.602,248.653,1224.487,249.309,1224.378,250.488z"/>
	<path style="fill:#132B4B;" d="M884.431,139.232c11.185,0,21.95,0,33.253,0c8.508,25.789,17.083,51.778,25.658,77.767
		c0.312-0.009,0.625-0.018,0.938-0.028c8.638-25.852,17.277-51.705,25.975-77.737c9.882,0,19.652,0,30.09,0
		c-13.604,37.236-27.112,74.21-40.655,111.279c-11.514,0-22.794,0-34.607,0C911.587,213.572,898.072,176.575,884.431,139.232z"/>
	<path style="fill:#112A4A;" d="M1531.898,225.927c-0.026,7.703-0.051,15.405-0.077,23.108c-11.133,4.026-22.498,4.372-33.762,1.117
		c-11.762-3.399-19.133-13.231-20.276-25.774c-0.909-9.979-0.484-19.982-0.539-29.976c-0.061-10.972-0.014-21.945-0.014-33.03
		c-4.684-0.852-9.191,0.017-13.869-0.567c0-7.192,0-14.265,0-21.77c4.569,0,9.002,0,13.859,0c0-8.163,0-15.906,0-23.838
		c10.373,0,20.304,0,30.704,0c0,7.831,0,15.56,0,23.775c8.018,0,15.588,0,23.352,0c0,7.433,0,14.371,0,21.81
		c-7.55,0-15.121,0-22.268,0c-1.437,1.644-0.968,3.039-0.971,4.312c-0.035,15.499-0.006,30.998-0.04,46.496
		c-0.005,2.348,0.2,4.658,0.633,6.953c0.99,5.247,4.182,8.168,9.47,8.57c3.163,0.24,6.305,0.135,9.423-0.657
		C1528.933,226.097,1530.373,225.519,1531.898,225.927z"/>
</g>
</svg>
