<?xml version="1.0" encoding="iso-8859-1"?>
<!-- Generator: Adobe Illustrator 27.0.0, SVG Export Plug-In . SVG Version: 6.00 Build 0)  -->
<svg version="1.1" id="Layer_1" xmlns="http://www.w3.org/2000/svg" xmlns:xlink="http://www.w3.org/1999/xlink" x="0px" y="0px"
	 viewBox="0 0 1490 506" style="enable-background:new 0 0 1490 506;" xml:space="preserve">
<g>
	<path style="fill:#706E70;" d="M1490,373c-10.469,0-20.938,0-31.235,0c-1.842-2.034-1.526-4.253-1.499-6.376
		c0.183-13.973,0.533-27.946,0.57-41.919c0.086-32.822,0.051-65.645,0.001-98.468c-0.007-4.475-0.385-8.949-0.578-13.424
		c-0.079-1.841-0.063-3.673,1.206-5.813c10.3,0,20.917,0,31.534,0C1490,262.333,1490,317.667,1490,373z"/>
	<path style="fill:#777779;" d="M550,506c-0.946-1.797-2.93-1.259-4.371-1.738c-9.851-3.27-12.705-12.043-6.324-19.886
		c0.307-0.377,0.557-0.8,0.988-1.427c-1.194-2.299-3.849-4.143-2.848-7.407c0.892-2.908,3.246-4.523,5.493-6.722
		c-1.039-2.142-3.04-3.734-3.882-6.079c-3.946-10.985,3.172-21.624,15.208-22.685c5.457-0.481,10.57,0.473,15.077,3.28
		c3.974-0.809,7.435-2.89,11.336-2.049c1.006,2.495,1.006,2.495,0.29,5.09c-1.996,1.286-4.638-0.157-6.639,1.404
		c-0.86,2.108,0.576,3.881,0.887,5.769c1.358,8.237-2.807,15.752-10.644,18.557c-3.472,1.243-7.005,1.86-10.728,1.183
		c-1.95-0.355-3.967-0.387-5.958-0.454c-1.74-0.058-3.356,0.244-3.795,2.421c0.58,2.399,2.395,2.717,4.534,2.893
		c5.776,0.476,11.599,0.654,17.273,1.961c2.085,0.48,4.133,1.212,6.117,2.027c4.818,1.98,7.31,5.832,7.355,10.862
		c0.046,5.192-3.297,8.447-7.611,10.806c-1.536,0.84-3.527,0.692-4.757,2.193C561.333,506,555.667,506,550,506z M557.096,445.976
		c-0.994,0-2.021-0.162-2.977,0.028c-4.494,0.893-7.901,3.033-9.325,7.773c-1.382,4.602,0.452,8,3.538,11.077
		c2.138,2.132,5.044,2.672,7.753,2.878c5.688,0.431,12.129-3.643,12.938-9.91C569.903,451.002,564.865,445.993,557.096,445.976z
		 M573.044,493.682c-0.57-3.35-2.605-4.922-5.328-5.643c-6.449-1.708-13.046-2.385-19.696-2.168
		c-3.123,0.102-5.841,2.759-6.252,5.482c-0.406,2.697,0.576,4.512,4.005,6.117c7.422,3.473,15.053,3.377,22.719,0.78
		C570.665,497.514,572.066,495.942,573.044,493.682z"/>
	<path style="fill:#777778;" d="M1.076,422.316c10.3-0.732,20.613-0.17,30.92-0.299c2.115-0.027,4.296-0.488,6.608,0.396
		c0.594,1.745,0.519,3.487,0.093,5.379c-3.311,1.866-6.86,0.762-10.248,0.943c-3.486,0.187-6.99,0.041-10.486,0.041
		c-3.465,0-6.931,0-10.718,0c0,6.806,0,13.212,0,20.302c7.601,0.099,15.284,0.198,22.571,0.293c1.498,2.347,1.129,4.123,0.757,6.334
		c-7.532,0.804-15.153-0.124-22.646,0.518c-1.231,3.432-1.484,18.013-0.374,24.1c11.261,0.344,22.663-0.185,33.31,0.262
		c1.376,1.725,1.104,2.761,1.14,3.735c0.03,0.822,0.09,1.67-0.433,2.403c-0.927,0.816-1.998,0.945-3.219,0.938
		c-11.32-0.067-22.64-0.048-33.96-0.113C2.925,487.54,1.463,487.191,0,487c0-0.667,0-1.333,0-2c1.89-1.162,0.942-3.013,0.949-4.515
		C1.045,461.095,1.049,441.706,1.076,422.316z"/>
	<path style="fill:#1DA7C5;" d="M873,0c2.929,1.751,6.077,3.098,8.419,5.8c4.99,5.757,6.028,12.216,2.9,18.941
		c-2.897,6.229-7.863,9.992-15.15,10.386c-7.227,0.391-12.469-2.542-16.288-8.476c-5.688-8.837-1.77-20.901,8.131-25.475
		C861.724,0.847,862.697,1.01,863,0C866.333,0,869.667,0,873,0z"/>
	<path style="fill:#8E8D8E;" d="M1.076,422.316c-0.027,19.389-0.032,38.779-0.127,58.168C0.942,481.987,1.89,483.838,0,485
		c0-21,0-42,0-63C0.359,422.105,0.718,422.211,1.076,422.316z"/>
	<path style="fill:#737375;" d="M1127.747,218.849c-10.764,3.025-21.364,5.954-32.762,8.474c0-10.219,0-19.809,0-29.197
		c-3.823-1.32-151.56-1.727-158.666-0.529c-1.229,4.527-0.379,9.343-0.532,14.072c-0.15,4.662-0.033,9.332-0.033,13.999
		c0,4.833,0,9.667,0,14.5c0,4.625,0,9.25,0,13.387c2.388,1.893,4.47,1.289,6.406,1.29c46.833,0.034,93.666,0.047,140.499,0.006
		c7.691-0.007,15.223,0.871,22.679,2.789c14.164,3.644,21.174,13.409,23.583,27.17c2.483,14.183,2.102,28.525,1.684,42.802
		c-0.221,7.567-0.626,15.219-2.609,22.688c-3.196,12.042-10.552,19.645-22.666,22.679c-7.77,1.946-15.627,2.944-23.647,2.938
		c-47-0.038-94-0.043-141,0.005c-8.037,0.008-15.915-1.166-23.61-3.216c-10.937-2.913-18.157-9.963-21.482-20.883
		c-3.052-10.024-2.913-20.277-2.566-30.977c11.593-2.454,22.996-4.868,35.062-7.422c0,11.402,0,21.981,0,31.992
		c0.634,0.674,0.74,0.804,0.864,0.914c0.122,0.108,0.253,0.253,0.399,0.28c0.807,0.146,1.619,0.372,2.43,0.372
		c53.999,0,107.998-0.018,161.998-0.057c0.461,0,0.921-0.306,1.338-0.454c1.139-3.641,1.281-56.055,0.169-60.698
		c-1.788-1.202-3.85-0.615-5.787-0.617c-45.833-0.037-91.667-0.069-137.5,0.01c-8.021,0.014-15.97-0.571-23.744-2.392
		c-13.514-3.164-21.936-10.317-25.107-26.283c-1.358-6.838-2.057-13.789-1.903-20.791c0.215-9.809-0.43-19.626,0.604-29.433
		c0.56-5.314,1.509-10.508,3.178-15.556c3.235-9.781,10.15-15.781,19.868-18.637c7.524-2.211,15.229-3.232,23.096-3.225
		c44.167,0.041,88.333,0.04,132.5,0c7.871-0.007,15.564,1.116,23.112,3.214c12.001,3.335,19.246,11.407,22.228,23.293
		C1127.698,202.792,1128.321,210.407,1127.747,218.849z"/>
	<path style="fill:#1DA7C5;" d="M236.424,236.817c-11.834,2.034-24.297,4.176-37.368,6.423c0-15.536,0-30.45,0-44.858
		c-2.15-2.211-4.269-1.536-6.185-1.54c-21.992-0.045-43.985-0.029-65.978-0.029c-26.324,0-52.649-0.008-78.973,0.017
		c-1.799,0.002-3.649-0.347-5.751,0.543c0,49.104,0,98.313,0,147.459c1.707,1.836,3.836,1.13,5.744,1.134
		c20.993,0.049,41.986,0.031,62.979,0.031c27.324,0,54.648,0.012,81.972-0.025c1.922-0.003,4.037,0.633,6.131-1.51
		c0-5.195,0-10.833,0-16.472c0-5.498-0.053-10.997,0.015-16.494c0.068-5.579-0.309-11.184,0.328-17.329
		c12.845,2.434,25.105,4.757,36.883,6.988c1.737,1.222,1.593,2.593,1.592,3.924c-0.003,7.497,0.438,15.028-0.121,22.483
		c-0.602,8.039-0.943,16.109-3.338,24.016c-3.334,11.005-10.649,17.374-21.308,20.165c-7.687,2.013-15.547,3.206-23.57,3.197
		c-45.984-0.051-91.969-0.022-137.953-0.027c-8.161-0.001-16.198-1.201-24.032-3.321c-11.5-3.112-18.847-10.511-21.833-22.213
		c-1.733-6.792-2.654-13.65-2.652-20.637c0.012-39.486,0-78.972,0.121-118.458c0.021-6.807,1.218-13.55,3.472-19.978
		c4.246-12.106,13.774-17.849,25.701-20.158c9.14-1.769,18.412-2.146,27.741-2.12c43.152,0.12,86.304,0.041,129.456,0.064
		c8.154,0.004,16.185,1.208,24.035,3.311c13.219,3.54,19.984,12.88,22.345,25.847c2.183,11.993,2.044,24.129,1.941,36.255
		C237.81,234.529,237.765,235.507,236.424,236.817z"/>
	<path style="fill:#706E70;" d="M1407.054,261.258c-12.199,1.773-23.898,3.827-35.408,4.888c-1.787-1.723-1.498-3.456-1.298-5.066
		c1.137-9.128,0.208-18.288,0.505-27.427c0.039-1.209-0.354-2.278-1.119-3.212c-4.705-0.669-126.876-0.594-130.761,0.081
		c-1.141,3.752-1.202,112.873,0.027,117.391c43.618,0,87.33,0,131.52,0c0.818-13.297,0.208-26.335-0.167-40.03
		c12.682,1.516,24.416,4.125,36.72,5.825c-0.615,13.018,1.102,25.617-1.905,38.136c-2.611,10.871-9.272,17.288-19.88,20.006
		c-6.811,1.745-13.745,2.297-20.753,2.295c-40.658-0.015-81.317-0.046-121.975,0.03c-6.873,0.013-13.601-0.892-20.24-2.424
		c-10.429-2.407-17.603-11.067-19.308-22.303c-1.005-6.623-1.122-13.258-1.125-19.904c-0.011-29.493,0.106-58.985,0.076-88.478
		c-0.006-5.55,0.844-10.961,2.318-16.225c2.36-8.423,7.861-14.122,16.253-16.819c6.685-2.149,13.556-3.173,20.592-3.169
		c42.158,0.019,84.316,0.023,126.474-0.005c6.028-0.004,11.927,0.919,17.748,2.305c11.421,2.72,17.894,10.3,20.289,21.514
		C1407.916,239.345,1406.731,250.159,1407.054,261.258z"/>
	<path style="fill:#21A7C5;" d="M299.084,372.567c0-55.404,0-110.53,0-165.602c3.61-1.099,182.745-1.317,187.745-0.287
		c1.086,0.845,0.988,2.034,0.987,3.203c-0.005,5.5,0.028,11-0.011,16.499c-0.033,4.772-0.673,5.421-5.542,5.425
		c-23.666,0.021-47.331,0.009-70.997,0.009c-23.499,0-46.998-0.01-70.497,0.019c-1.789,0.002-3.635-0.35-5.658,0.463
		c0,13.412,0,26.811,0,40.857c30.373,0,60.591,0,91.292,0c0.97,8.64,0.258,16.679,0.502,24.197
		c-2.138,2.265-4.267,1.533-6.175,1.537c-26.666,0.047-53.331,0.032-79.997,0.032c-1.791,0-3.582,0-5.633,0
		c0,16.597,0,32.655,0,49.265c8.689,0,17.138,0,25.588,0c8.5,0,16.999,0,25.499,0c8.666,0,17.333,0,25.999,0
		c8.5,0,16.999,0,25.499,0s16.999-0.007,25.499,0.002c8.434,0.008,16.871-0.042,25.591,0.04c0,8.569,0,16.327,0,24.08
		C485.3,373.271,306.207,373.58,299.084,372.567z"/>
	<path style="fill:#1DA7C5;" d="M567.812,348.188c16.644,0,32.608,0,48.571,0c16.164,0,32.327-0.001,48.491,0
		c15.911,0.001,31.821-0.006,47.964,0.005c0,9.07,0,17.159,0,25.573c-60.261,0-120.301,0-180.635,0c0-55.921,0-111.633,0-167.601
		c11.666,0,23.085,0,34.994,0c1.322,7.837,0.41,15.62,0.577,23.344c0.17,7.828,0.038,15.663,0.038,23.495c0,7.999,0,15.997,0,23.996
		c0,7.832,0,15.664,0,23.496c0,7.832,0,15.664,0,23.496C567.812,331.801,567.812,339.61,567.812,348.188z"/>
	<path style="fill:#16A6C5;" d="M729.999,257.485c-0.039-25.279,20.609-45.609,45.554-45.555
		c25.096,0.054,46.137,19.522,46.024,45.72c-0.111,25.676-18.817,45.492-45.903,45.832
		C749.382,303.812,730.14,282.808,729.999,257.485z"/>
	<path style="fill:#18A6C5;" d="M707.609,188.089c-18.783,0.717-35.139-15.498-34.622-34.03
		c0.536-19.224,13.832-34.749,34.786-34.613c20.647,0.134,34.131,16.507,34.101,34.276
		C741.843,172.862,725.984,189.131,707.609,188.089z"/>
	<path style="fill:#18A6C5;" d="M803.089,62.177c0.931,13.411-11.172,27.921-27.812,27.678
		c-15.791-0.23-27.068-12.574-27.091-27.952c-0.024-15.792,13.689-27.023,27.452-27.114
		C792.073,34.682,804.222,49.451,803.089,62.177z"/>
	<path style="fill:#777778;" d="M68.599,486.232c-2.557,1.652-4.299,1.558-6.626,0.545c-1.183-4.735-0.366-9.885-0.514-14.955
		c-0.146-4.995-0.156-10.002,0.003-14.996c0.162-5.094-0.757-10.268,0.672-15.285c2.057-0.659,3.826-0.594,5.406-0.192
		c1.769,1.547,0.386,3.736,1.646,5.459c2.295-1.258,4.535-2.623,6.892-3.739c2.241-1.062,4.537-2.145,6.928-2.726
		c6.367-1.547,10.871,0.467,15.031,6.529c2.032-0.408,3.714-1.738,5.541-2.757c3.943-2.2,8.002-4.03,12.658-4.036
		c6.827-0.008,12.179,4.268,12.411,11.007c0.395,11.484,0.172,22.989,0.172,34.485c0,0.441-0.376,0.882-0.612,1.4
		c-1.914,0.951-3.825,0.778-5.737,0.079c-1.485-1.551-1.02-3.467-1.027-5.249c-0.036-8.332-0.015-16.665-0.017-24.997
		c0-1.166,0.051-2.338-0.035-3.498c-0.443-5.997-4.171-8.505-9.934-6.811c-2.259,0.664-4.347,1.674-6.336,2.866
		c-1.993,1.194-3.86,2.6-6.191,4.191c0,10.671,0,21.621,0,32.501c-2.179,1.724-4.159,1.9-6.336,0.953
		c-0.908-1.279-1.24-2.702-1.066-4.234c1.005-8.799,0.199-17.628,0.455-26.439c0.01-0.333,0.016-0.669-0.015-0.999
		c-0.821-8.781-5.16-11.365-13.207-7.841c-3.52,1.541-6.622,3.755-10.164,6.363C68.599,464.527,68.599,475.467,68.599,486.232z"/>
	<path style="fill:#79797A;" d="M797.896,447.177c3.061-1.712,5.757-3.332,8.552-4.755c3.296-1.679,6.784-2.57,10.558-2.369
		c5.308,0.283,9.641,3.56,10.864,8.625c0.425,1.76,0.679,3.604,0.691,5.412c0.066,9.657,0.031,19.315,0.031,28.972
		c0,1.164,0.102,2.346-0.932,3.808c-1.699,1.283-3.862,0.816-6.449,0.119c0-4.557,0-8.859,0-13.16
		c0-5.828,0.009-11.656-0.006-17.483c-0.003-1.33,0.048-2.682-0.159-3.986c-0.789-4.973-4.579-7.392-9.423-5.965
		c-4.847,1.427-9.064,4.002-12.734,7.21c-1.526,11.069-0.693,21.988-0.445,32.459c-2.276,1.972-4.146,1.755-5.976,0.927
		c-1.724-1.513-1.237-3.448-1.244-5.231c-0.032-8.492-0.009-16.984-0.02-25.476c-0.002-1.33,0.075-2.685-0.14-3.987
		c-0.816-4.941-4.662-7.353-9.479-5.887c-4.994,1.52-9.358,4.193-13.55,7.837c0,10.649,0,21.435,0,32.008
		c-2,1.922-3.947,1.24-6.422,1.129c-0.813-7.759-0.283-15.339-0.382-22.886c-0.099-7.597-0.022-15.195-0.022-22.483
		c2.414-1.307,4.196-0.947,5.875-0.731c1.641,1.344,0.392,3.335,1.404,4.824c1.965,0.447,3.382-0.894,4.86-1.834
		c2.837-1.805,5.906-3.128,9.113-3.915C789.112,438.725,793.438,440.69,797.896,447.177z"/>
	<path style="fill:#79797A;" d="M678.894,454.4c0,10.666,0,21.455,0,32.027c-2.352,1.804-4.345,1.233-6.325,0.208
		c-1.088-6.872-0.694-41.91,0.53-45.211c1.737-0.515,3.501-0.533,5.096-0.051c1.513,1.434,0.119,3.476,1.521,4.813
		c1.942,0.113,3.332-1.181,4.871-2.097c2.872-1.71,5.908-3.418,9.154-3.775c7.452-0.819,9.958-0.454,14.892,6.561
		c1.903-0.025,3.179-1.464,4.725-2.327c4.52-2.521,9.076-4.824,14.523-4.496c6.341,0.382,10.466,4.156,11.129,10.532
		c1.191,11.454,0.371,22.942,0.509,34.414c0.006,0.474-0.284,0.951-0.457,1.49c-2.047,1.721-4.161,1.681-6.915-0.266
		c0-7.873,0.005-16.162-0.003-24.451c-0.003-2.83,0.122-5.672-0.093-8.488c-0.46-6.022-4.836-8.79-10.498-6.636
		c-4.528,1.722-8.707,4.09-12.536,7.646c0,10.644,0,21.439,0,32.234c-2.224,1.392-4.205,1.418-6.147,0.508
		c-1.11-1.73-0.625-3.44-0.635-5.057c-0.053-8.495-0.016-16.99-0.034-25.485c-0.003-1.496,0.079-3.032-0.219-4.48
		c-1.029-5.009-4.853-7.348-9.671-5.651C687.444,448.078,682.949,450.579,678.894,454.4z"/>
	<path style="fill:#757577;" d="M1068.069,487.019c0-21.874,0-43.124,0-65.028c7.112,0,14.036,0.019,20.96-0.01
		c2.508-0.01,4.929,0.321,7.371,0.964c11.615,3.06,20.321,13.792,20.579,25.787c0.142,6.619,0.49,13.23-1.752,19.715
		c-3.958,11.45-12.352,18.129-24.397,18.527C1083.385,487.219,1075.926,487.019,1068.069,487.019z M1074.41,481.093
		c5.224,0,9.867,0.166,14.495-0.036c8.389-0.366,14.746-4.468,17.992-12.071c4.126-9.665,3.981-19.702-0.042-29.484
		c-1.757-4.272-4.819-7.551-9.099-9.499c-7.574-3.446-15.459-2.095-23.346-2.042C1074.41,445.822,1074.41,463.064,1074.41,481.093z"
		/>
	<path style="fill:#777778;" d="M269.094,441.403c2.055-0.417,3.665-0.587,6.036,0.332c3.193,10.028,6.531,20.513,10.2,32.038
		c3.671-11.503,6.998-21.928,10.185-31.913c2.028-1.007,3.477-0.887,5.658-0.308c3.274,10.5,6.655,21.348,10.318,33.096
		c2.64-8.303,5.013-15.772,7.389-23.241c0.602-1.892,1.185-3.791,1.816-5.673c1.497-4.459,1.769-4.628,6.776-4.423
		c0.996,1.011,0.52,2.128,0.17,3.221c-4.183,13.087-8.414,26.158-12.515,39.271c-0.652,2.086-1.403,3.948-3.805,3.815
		c-2.042-0.113-2.85-1.749-3.438-3.703c-2.957-9.816-6.085-19.581-9.194-29.497c-1.125,0.299-1.225,1.388-1.456,2.131
		c-2.842,9.168-5.632,18.352-8.371,27.551c-0.562,1.887-1.229,3.524-3.556,3.428c-1.961-0.081-2.771-1.36-3.323-3.134
		c-3.587-11.537-7.329-23.027-10.849-34.584C270.33,447.169,268.796,444.657,269.094,441.403z"/>
	<path style="fill:#757577;" d="M159.399,483.086c-0.711,7.247,0.046,14.426-0.104,21.476c-2.299,0.598-4.068,0.592-6.132,0.109
		c0-20.943,0-41.823,0-62.865c1.474-1.323,3.291-0.713,4.904-0.613c1.612,0.912,0.691,2.582,1.427,3.667
		c0.882,0.38,1.562-0.113,2.266-0.538c4.16-2.512,8.461-4.567,13.51-4.329c6.438,0.304,11.579,3.028,14.808,8.614
		c5.342,9.241,5.683,19.081,1.526,28.686c-4.209,9.726-15.289,14.598-26.272,8.786C163.479,485.098,162.022,483.301,159.399,483.086
		z M159.045,453.599c0,6.083,0.043,12.402-0.027,18.721c-0.02,1.838,0.694,3.205,1.979,4.38c3.557,3.254,7.743,5.139,12.552,5.363
		c5.354,0.25,9.337-2.056,11.554-7.009c3.07-6.857,3.059-13.972,0.694-20.913c-2.183-6.408-8.815-9.628-15.335-7.889
		C166.059,447.427,162.203,449.641,159.045,453.599z"/>
	<path style="fill:#787879;" d="M1233.715,465.363c0.046,7.207,1.725,13.391,8.367,16.165c8.036,3.356,13.081-2.074,17.472-7.574
		c3.229,0.633,3.229,0.633,5.486,3.122c-3.363,6.756-12.028,12.361-18.834,11.618c-8.243-0.9-14.289-3.612-17.946-13.445
		c-2.619-7.041-2.698-14.182-0.321-21.445c2.662-8.134,10.8-14.289,18.661-13.79c8.332,0.528,15.675,6.209,18.019,14.748
		c0.568,2.07,1.031,4.203,1.226,6.335c0.312,3.41-0.794,4.181-4.344,4.116c-8.487-0.155-16.978-0.142-25.467-0.174
		C1235.399,465.035,1234.763,465.211,1233.715,465.363z M1258.018,458.993c-0.472-8.118-6.274-13.681-13.062-13.056
		c-6.37,0.587-11.351,6.752-10.401,13.056C1242.236,458.993,1249.939,458.993,1258.018,458.993z"/>
	<path style="fill:#787879;" d="M1428.468,473.939c2.877-0.09,4.241,1.299,5.466,2.901c-2.913,6.652-11.368,12.054-18.623,11.938
		c-7.813-0.125-15.254-5.251-18.036-12.744c-2.8-7.543-3.097-15.185-0.295-22.864c2.866-7.854,9.84-13.111,17.562-13.088
		c8.466,0.025,15.749,5.29,18.39,13.41c0.714,2.194,1.268,4.456,1.685,6.726c0.735,4.005-0.686,5.109-4.808,5.018
		c-9.106-0.2-18.22-0.062-27.636-0.062c0.768,7.042,1.873,13.829,9.104,16.54C1419.088,484.641,1424.057,479.457,1428.468,473.939z
		 M1403.256,458.914c7.814,0,15.645,0,23.47,0c0.098-7.257-5.575-13.165-12.178-12.999
		C1408.051,446.079,1402.728,452.083,1403.256,458.914z"/>
	<path style="fill:#787879;" d="M1173.565,465.034c-9.999,0-20.267,0-30.479,0c-0.808,7.558,1.982,13.974,7.357,16.296
		c8.354,3.607,13.39-1.772,17.985-7.24c2.874-0.533,4.134,1.321,5.968,3.006c-4.479,6.937-10.529,11.355-18.644,11.549
		c-7.907,0.189-14.242-3.728-17.58-10.946c-4.322-9.345-4.577-18.974,0.716-28.177c5.038-8.759,14.471-11.925,23.558-7.944
		c6.64,2.909,10.128,8.466,11.336,15.352C1174.214,459.379,1175.702,462.058,1173.565,465.034z M1143.249,458.924
		c7.814,0,15.646,0,23.473,0c0.135-7.259-5.407-13.058-12.139-13.009C1148.142,445.962,1142.776,451.982,1143.249,458.924z"/>
	<path style="fill:#787879;" d="M1009.13,465.018c-5.855,0-11.166,0-16.478,0c-5.114,0-10.228,0-15.58,0
		c0.598,7.265,2.106,13.476,8.837,16.638c5.07,2.381,9.12,0.467,17.975-7.759c2.238,0.146,3.824,1.417,5.148,3.093
		c-4.268,7.514-13.556,12.742-20.616,11.687c-10.031-1.499-16.185-8.926-17.577-17.222c-1.571-9.358-1.152-18.094,5.685-25.662
		c8.605-9.525,22.475-6.461,28.555,2.149C1008.551,452.856,1009.464,458.475,1009.13,465.018z M1001.826,458.998
		c-0.353-7.86-6.206-13.526-13.019-13.077c-6.221,0.41-11.316,6.63-10.5,13.077C985.993,458.998,993.707,458.998,1001.826,458.998z"
		/>
	<path style="fill:#777779;" d="M349.861,465.015c0.598,7.508,1.97,14.159,8.97,16.709c7.635,2.781,12.907-1.965,17.146-7.683
		c2.673-0.389,4.138,1.243,6.093,2.942c-4.319,6.954-10.405,11.289-18.459,11.656c-7.941,0.362-14.454-3.511-17.689-10.725
		c-4.557-10.163-4.987-20.622,1.823-30.254c8.884-12.565,26.398-8.706,31.861,3.311c1.909,4.199,3.08,8.721,1.976,14.044
		c-5.268,0-10.538,0-15.808,0C360.652,465.015,355.53,465.015,349.861,465.015z M350.154,459.215
		c8.258,0.011,16.424,0.03,24.694-0.009c-1.166-8.161-6.221-13.32-12.417-13.293C355.966,445.94,351.203,450.851,350.154,459.215z"
		/>
	<path style="fill:#79797A;" d="M921.954,451.828c0,11.615,0,23.066,0,34.578c-2.478,1.813-4.775,1.422-7.09,0.36
		c-0.974-6.793-0.642-41.906,0.427-45.271c1.568-0.711,3.208-0.423,4.805-0.258c1.419,0.89,1.297,2.698,2.465,3.891
		c3.919-1.746,7.807-3.586,11.991-4.622c8.912-2.205,16.718,2.636,17.167,11.62c0.571,11.438,0.138,22.926,0.138,34.315
		c-2.201,1.635-4.205,1.426-6.33,0.483c-0.84-1.958-0.413-3.973-0.427-5.926c-0.054-7.826-0.019-15.652-0.026-23.478
		c-0.001-1.331,0.064-2.677-0.099-3.991c-0.61-4.93-3.026-6.981-8.016-6.918C931.422,446.679,926.796,449.245,921.954,451.828z"/>
	<path style="fill:#79797A;" d="M1292.782,486.932c-2.955,0.92-5.022,0.92-7-0.25c-0.915-7.583-0.576-42.274,0.447-45.153
		c1.566-0.846,3.213-0.287,4.531-0.367c1.747,0.945,1.501,2.874,2.926,3.912c3.801-1.779,7.698-3.608,11.892-4.612
		c9.494-2.273,17.123,3.423,17.302,13.204c0.191,10.484,0.043,20.974,0.023,31.462c-0.001,0.479-0.195,0.958-0.319,1.525
		c-1.967,1.42-3.976,1.211-6.205,0.205c-0.602-2.764-0.259-5.586-0.281-8.376c-0.056-7.158,0.136-14.32-0.055-21.473
		c-0.297-11.136-4.62-11.543-13.023-9.637c-3.47,0.787-6.985,2.079-10.236,4.826
		C1292.782,463.558,1292.782,475.155,1292.782,486.932z"/>
	<path style="fill:#79797A;" d="M479.768,441.678c2.208-0.91,3.709-0.412,4.999-0.579c1.749,0.792,1.521,2.675,2.657,3.831
		c0.39-0.069,0.897-0.043,1.283-0.246c3.541-1.862,7.255-3.319,11.123-4.261c8.614-2.099,16.382,2.777,16.86,11.508
		c0.625,11.438,0.538,22.938-0.051,34.406c-0.007,0.145-0.157,0.284-0.295,0.517c-1.778,1.256-3.677,0.713-5.258,0.462
		c-1.436-1.449-0.98-2.853-0.986-4.124c-0.04-8.658-0.017-17.317-0.026-25.975c-0.001-1.331,0.068-2.681-0.124-3.989
		c-0.686-4.665-3.036-6.642-7.79-6.617c-5.528,0.029-10.219,2.472-15.205,5.277c0,11.531,0,23.128,0,34.578
		c-2.549,1.665-4.735,1.287-7.186,0.315C479.768,471.741,479.768,456.711,479.768,441.678z"/>
	<path style="fill:#777779;" d="M212.09,464.095c-0.117-4.011,0.678-7.744,2.099-11.312c5.69-14.285,23.82-17.338,33.71-5.568
		c7.088,8.435,7.623,27.204-0.941,35.425c-12.129,11.643-27.301,4.973-32.552-6.543C212.686,472.324,211.852,468.201,212.09,464.095
		z M234.932,445.935c-7.538-0.089-12.235,3.082-14.363,8.868c-2.431,6.61-2.48,13.341,0.453,19.824
		c2.21,4.887,6.226,7.959,11.58,8.12c5.2,0.157,9.096-2.662,11.407-7.399c3.725-7.634,3.554-15.292-0.14-22.866
		C241.691,448.02,237.875,446.064,234.932,445.935z"/>
	<path style="fill:#79797A;" d="M851.034,442.085c1.179-1.134,2.043-0.993,2.851-0.993c0.982-0.001,2.005-0.191,2.897,0.429
		c1.395,1.344,0.989,3.086,0.994,4.709c0.027,7.818,0.008,15.635,0.016,23.453c0.002,1.33-0.036,2.67,0.107,3.987
		c0.584,5.367,4.23,8.261,9.619,7.572c5.383-0.689,9.286-4.093,13.607-7.51c0-10.51,0-21.105,0-31.471
		c2.152-1.72,4.041-1.247,5.885-0.801c1.099,3.493,1.388,39.342,0.42,45.241c-2.978,0.988-2.978,0.988-6.002-0.032
		c-1.008-1.647,0.233-3.62-0.777-5.402c-2.976,1.774-5.885,3.662-8.934,5.286c-3.45,1.838-7.076,2.524-11.041,1.528
		c-5.496-1.38-9.476-5.457-9.58-11.208C850.885,465.24,851.034,453.602,851.034,442.085z"/>
	<path style="fill:#777779;" d="M1374.21,447.391c-0.647,1.829-2.131,2.779-3.515,3.441c-2.256,0.107-3.255-1.371-4.578-2.34
		c-4.248-3.113-8.847-3.569-13.661-1.472c-2.352,1.025-3.693,2.854-3.498,5.484c0.176,2.366,1.418,3.975,3.774,4.729
		c3.782,1.209,7.513,2.579,11.303,3.763c2.563,0.801,5.024,1.845,7.174,3.395c4.036,2.909,6.36,6.805,5.684,11.964
		c-0.653,4.985-3.225,8.668-7.968,10.594c-5.79,2.351-11.641,2.474-17.452,0.079c-3.985-1.643-7.776-3.614-10.576-7.116
		c0.821-2.325,3.067-2.647,4.153-4.041c2.314,0.283,3.528,1.707,4.898,2.859c3.653,3.071,7.881,4.125,12.564,3.646
		c2.449-0.251,4.456-1.335,5.985-3.236c2.408-2.993,2.013-6.269-1.059-8.695c-3.22-2.544-7.162-3.4-10.987-4.449
		c-2.893-0.794-5.717-1.719-8.386-3.082c-7.599-3.883-8.26-14.552-1.666-19.622C1353.984,437.46,1368.379,439.399,1374.21,447.391z"
		/>
	<path style="fill:#777779;" d="M1482.944,447.003c-1.058,2.008-2.522,3.211-4.416,3.85c-12.446-6.997-17.917-6.709-21.423,1.067
		c0.174,3.628,2.72,5.055,5.679,6.04c4.404,1.466,8.907,2.669,13.222,4.356c6.828,2.67,10.373,8.932,8.981,15.362
		c-1.037,4.792-4.078,7.861-8.58,9.549c-7.783,2.918-15.043,1.305-21.886-2.824c-1.942-1.172-3.911-2.483-5.457-4.509
		c1.386-2.087,3.048-3.52,5.315-4.017c1.88,0.532,2.719,2.132,4.06,3.086c4.07,2.895,8.429,4.584,13.501,3.269
		c3.665-0.951,5.972-3.274,6.228-6.247c0.303-3.523-1.72-5.45-4.603-6.967c-3.57-1.879-7.573-2.414-11.258-3.909
		c-1.993-0.809-4.159-1.267-6.035-2.277c-7.643-4.116-8.313-14.279-1.466-19.548c4.942-3.803,10.568-3.862,16.19-2.82
		C1475.536,441.302,1479.898,443,1482.944,447.003z"/>
	<path style="fill:#79797A;" d="M1211.623,422.265c1.513,2.03,1.001,3.912,0.141,6.146c-2.971-0.57-5.956-0.66-8.074,2.02
		c-2.3,2.91-1.678,6.243-1.531,9.255c1.914,2.016,4.034,1.224,5.954,1.383c3.661,0.303,4.161,1.114,3.009,5.35
		c-2.679,1.292-5.823-0.189-9.025,1.04c0,13.046,0,26.146,0,39.012c-2.464,1.631-4.457,1.324-6.794-0.099
		c0-12.778,0-25.733,0-38.497c-2.478-1.948-5.295-0.018-7.661-1.689c-1.061-1.285-0.799-2.859-0.255-4.598
		c2.108-1.127,4.652,0.102,6.812-1.144c1.583-1.815,0.887-4.074,1-6.171c0.34-6.295,3.423-10.782,8.66-12.009
		C1206.436,421.659,1209.122,421.779,1211.623,422.265z"/>
	<path style="fill:#7A7A7B;" d="M642.516,486.285c-1.85,1.62-3.805,1.442-5.795,1.115c-1.508-1.266-1.317-2.979-1.318-4.618
		c-0.007-18.493,0.001-36.986-0.013-55.478c-0.001-1.676,0.048-3.318,1.033-4.851c1.703-0.935,3.479-0.317,4.907-0.347
		c1.362,1.086,1.47,2.211,1.47,3.412c-0.011,19.659-0.006,39.318-0.022,58.977C642.777,485.136,642.594,485.778,642.516,486.285z"/>
	<path style="fill:#787879;" d="M409.377,486.551c-1.928,1.238-3.907,1.551-6.18,0.082c0-14.84,0-29.77,0-44.763
		c1.899-1.264,3.811-0.833,5.65-0.456c2.061,2.193,0.074,4.98,1.349,7.181c9.247-8.117,11.059-8.934,18.279-8.108
		c0.804,1.886,0.28,3.736-0.203,5.201c-0.959,1.321-2.027,1.122-2.983,1.321c-9.512,1.973-14.75,7.828-15.287,17.587
		c-0.329,5.973-0.161,11.974-0.207,17.963C409.786,483.87,410.115,485.214,409.377,486.551z"/>
	<path style="fill:#777778;" d="M447.18,441.271c2.468-0.11,4.289-0.636,5.949,0.405c0.96,3.53,1.251,37.521,0.401,44.677
		c-2.789,0.792-2.789,0.792-6.35,0.312C447.18,471.673,447.18,456.647,447.18,441.271z"/>
	<path style="fill:#7A7A7B;" d="M447.258,430.385c-0.57-2.388-0.264-4.5-0.126-6.748c1.98-1.183,4.053-0.607,6.222-0.467
		c1.039,2.307,0.451,4.572,0.443,6.769C450.957,430.8,450.957,430.8,447.258,430.385z"/>
</g>
</svg>
