<?xml version="1.0" encoding="iso-8859-1"?>
<!-- Generator: Adobe Illustrator 27.0.0, SVG Export Plug-In . SVG Version: 6.00 Build 0)  -->
<svg version="1.1" id="Layer_1" xmlns="http://www.w3.org/2000/svg" xmlns:xlink="http://www.w3.org/1999/xlink" x="0px" y="0px"
	 viewBox="0 0 1553.038 351.231" style="enable-background:new 0 0 1553.038 351.231;" xml:space="preserve">
<g>
	<path style="fill:#07ACD8;" d="M90.074,329.9c-0.612-1.674-2.043-1.939-3.554-2.066c-0.809-0.62-1.617-1.24-2.426-1.86
		c-5.477-3.676-11.161-7.057-16.145-11.437c-0.436-0.383-1.202-0.392-1.814-0.574c-0.408-0.9-1.05-1.58-1.921-2.046
		c-1.421-1.667-2.644-3.589-5.079-3.954c-1.345-1.987-2.943-3.724-4.989-5.013c-2.769-3.282-5.785-6.318-9.059-9.097
		c-0.637-1.357-1.803-2.175-3.012-2.95c-1.535-3.357-4.494-5.631-6.541-8.595c-3.522-5.1-6.983-10.241-10.47-15.365
		c-0.62-0.808-1.24-1.617-1.86-2.425c-0.118-1.507-0.404-2.918-2.029-3.569c-1.582-4.212-3.511-8.251-5.978-12.023
		c-1.462-5.542-4.164-10.603-6.187-15.927c-0.553-2.034-0.657-4.215-1.958-6.005c0.201-1.479-0.27-2.78-1.06-3.995
		c0.036-1.107,0.393-2.31-0.898-3.022c0.114-3.505-1.486-6.641-2.151-9.978c0.053-1.103,0.508-2.322-0.869-3.013
		c-0.047-0.995-0.094-1.99-0.14-2.985c-0.062-1.151-0.051-2.312-0.2-3.453c-0.53-4.054-1.605-8.104-1.584-12.15
		c0.057-10.921-0.716-21.846,0.787-32.773c0.963-7.002,1.984-13.997,3.737-20.803c4.142-16.079,9.549-31.676,17.984-46.156
		c6.818-11.704,14.643-22.624,23.851-32.488c4.616-4.945,9.506-9.663,14.707-14.092c9.178-7.815,19.065-14.499,29.533-20.346
		c18.817-10.51,38.986-16.931,60.33-20.005c3.281-0.473,6.917,0.295,9.961-1.735c10.333,0,20.667,0,31,0
		c2.15,1.937,5.039,1.376,7.464,1.711c14.824,2.045,29.217,5.648,43.013,11.369c14.453,5.994,27.985,13.656,40.406,23.278
		c20.139,15.601,36.045,34.673,48.033,57.129c9.204,17.241,15.121,35.466,18.287,54.76c2.363,14.403,2.576,28.852,1.549,43.233
		c-1.289,18.053-5.929,35.468-12.989,52.217c-10.44,24.767-25.794,46.015-45.886,63.738c-21.883,19.302-47.112,32.481-75.531,39.27
		c-16.556,3.955-33.418,4.948-50.408,4.377c-8.735-0.294-17.34-1.432-25.897-3.099c-0.646-0.126-1.329-0.067-1.994-0.094
		c-2.187-1.23-4.569-1.696-7.045-1.789c-5.365-1.724-10.775-3.322-16.081-5.215c-3.635-1.297-7.012-3.307-10.881-3.981
		c-0.343-1.019-1.242-0.863-2.022-0.958c-2.566-1.943-5.381-3.371-8.528-4.112C92.559,330.865,91.615,329.849,90.074,329.9z
		 M108.317,164.415c-3.64,5.69-6.826,10.896-10.74,15.639c-3.185,3.859-5.803,7.916-5.732,13.373
		c0.236,18.148,0.194,36.3,0.303,54.45c0.024,3.987,1.016,4.963,5.025,5.01c5.661,0.067,11.324,0.006,16.986,0.024
		c1.368,0.004,2.671-0.067,3.613-1.417c0.836-1.37-0.31-3.27,0.949-4.655c0.287-0.168,0.57-0.479,0.854-0.479
		c35.794-0.088,71.588-0.159,107.383-0.205c1.647-0.002,3.333-0.313,4.94,0.334c0.148,0.059,0.267,0.197,0.389,0.309
		c0.119,0.11,0.225,0.236,0.517,0.546c0.127,1.247,0.275,2.702,0.471,4.617c7.069,1.903,14.223,0.512,21.254,0.938
		c1.766,0.107,3.259-0.453,4.561-2.135c0-12.587-0.019-25.405,0.011-38.223c0.009-3.991-0.387-8.083,0.341-11.952
		c1.469-7.817-0.75-14.32-5.559-20.307c-3.99-4.968-7.925-9.992-10.59-15.947c5.575-1.25,11.242-1.044,15.564-4.673
		c-0.153-7.581-8.769-11.912-19.734-10.255c-1.027,0.726-0.892,2.15-1.692,3.619c-3.958-9.281-9.704-16.488-16.623-22.855
		c-2.272-2.091-4.792-3.695-7.796-4.077c-4.26-0.543-8.569-0.918-12.86-0.957c-15.485-0.14-30.973-0.023-46.457-0.19
		c-5.006-0.054-9.924,0.644-14.858,1.137c-2.749,0.275-5.447,1.314-7.629,3.315c-5.295,4.856-10.106,10.096-13.632,16.419
		c-1.278,2.292-2.641,4.537-4.014,6.889c-0.905-1.203,0.015-2.9-1.826-3.728c-1.682,0-3.69-0.152-5.667,0.03
		c-4.944,0.454-9.261,2.309-12.694,6.031c-1.246,1.351-1.8,2.752-1.119,4.202c0.795,1.388,1.918,1.834,2.975,2.265
		C99.233,163.144,103.554,163.454,108.317,164.415z M126.192,95.381c0.587,2.805,2.211,4.487,4.583,5.695
		c3.726,1.898,7.582,3.314,11.726,3.94c11.009,1.662,22.077,2.421,33.21,2.765c12.361,0.382,24.544-0.902,36.654-3.011
		c4.037-0.703,8.111-1.902,11.49-4.49c3.801-2.91,3.711-6.605-0.142-9.39c-3.273-2.365-6.908-4.009-10.833-4.849
		c-7.961-1.703-16.058-2.563-24.17-2.862c-11.964-0.441-23.949-0.6-35.869,0.921c-6.576,0.839-13.189,1.559-19.446,3.974
		C130.017,89.377,127.138,91.207,126.192,95.381z"/>
	<path style="fill:#1D385A;" d="M1553.038,250c-7.633-0.693-15.282-0.146-22.922-0.298c-3.488-0.069-6.979-0.012-10.896-0.012
		c-5.361-12.819-10.716-25.626-16.153-38.627c-7.553,0-15.019,0-23.287,0c4.04-9.355,7.859-18.2,11.807-27.341
		c-5.609-13.513-11.256-27.121-17.252-41.569c-15.612,36.26-30.935,71.85-46.202,107.31c-10.879,0-21.315,0-32.402,0
		c21.733-49.579,43.278-98.728,64.85-147.94c9.267,0,18.217,0,27.478,0c3.988,9.056,8.01,18.142,11.995,27.245
		c17.098,39.062,34.178,78.131,51.32,117.172c0.325,0.74,0.242,2.095,1.666,2.058C1553.038,248.667,1553.038,249.333,1553.038,250z"
		/>
	<path style="fill:#1B3759;" d="M1266.066,156.225c0,31.452,0,61.758,0,92.421c-10.366,0-20.578,0-31.048,0
		c0-48.6,0-97.19,0-146.414c4.511-0.041,9.096-0.098,13.681-0.119c4.494-0.021,8.989-0.005,13.854-0.005
		c22.858,29.623,45.789,59.341,68.72,89.058c0.293-0.098,0.586-0.196,0.879-0.294c0-29.336,0-58.671,0-88.532
		c5.527-0.461,10.628-0.167,15.707-0.221c5.145-0.054,10.292-0.012,15.766-0.012c0,48.985,0,97.698,0,146.654
		c-8.648,0-17.25,0-26.061,0C1314.059,218.341,1290.473,187.814,1266.066,156.225z"/>
	<path style="fill:#1D385A;" d="M1203.872,248.519c-11.339,0-22.13,0-33.364,0c-5.281-12.519-10.611-25.152-16.113-38.194
		c-7.318,0-14.763,0-22.948,0c3.368-9.611,7.733-18.078,11.57-27.299c-5.417-13.074-10.98-26.501-17.044-41.137
		c-15.515,36.631-30.491,72.234-46.146,107.613c-10.583,0-21.028,0-32.263,0c21.732-49.586,43.269-98.725,64.856-147.98
		c9.121,0,18.072,0,27.467,0C1161.134,150.336,1182.428,199.254,1203.872,248.519z"/>
	<path style="fill:#1D385A;" d="M932.747,102.669c13.112,33.372,26.258,66.83,39.673,100.971
		c13.494-34.195,26.686-67.625,39.911-101.139c11.189,0,22.145,0,33.917,0c-20.467,49.557-40.729,98.804-61.22,148.023
		c-8.703,0-17.167,0-26.189,0c-20.188-49.038-40.434-98.215-60.87-147.856C909.602,102.669,920.805,102.669,932.747,102.669z"/>
	<path style="fill:#203A5B;" d="M877.837,248.89c-6.225,0-11.543,0-17.391,0c-15.018-19.65-30.243-39.573-45.342-59.329
		c-14.864,0-29.305,0-44.247,0c0,19.77,0,39.345,0,59.182c-4.741,0-8.991,0-13.537,0c0-48.684,0-97.397,0-146.095
		c1.035-0.944,2.258-0.524,3.365-0.526c20.327-0.029,40.657-0.259,60.979,0.063c13.385,0.213,26.006,3.417,36.586,12.344
		c8.328,7.026,12.756,16.103,13.662,26.806c2.008,23.723-12.431,38.552-33.121,44.655c-2.327,0.686-4.955,0.518-7.439,2.407
		C846.708,208.381,861.966,228.237,877.837,248.89z M770.844,175.378c0.536,0.422,0.667,0.615,0.798,0.615
		c16.989-0.003,33.989,0.346,50.962-0.185c9.186-0.287,17.941-3.057,25.526-8.791c13.2-9.979,13.285-31.812,1.685-41.84
		c-3.962-3.425-8.592-5.608-13.51-7.244c-6.716-2.233-13.599-2.48-20.642-2.322c-13.488,0.303-26.987,0.07-40.481,0.115
		c-1.42,0.005-3.001-0.531-4.339,0.786C770.844,136.102,770.844,155.743,770.844,175.378z"/>
	<path style="fill:#20395B;" d="M547.17,124.843c-3.218,3.497-6.061,6.93-9.612,9.797c-3.396-2.924-6.648-5.769-9.949-8.556
		c-19.945-16.841-52.834-18.678-74.413-1.282c-11.469,9.245-18.57,21.26-21.671,35.486c-3.953,18.138-1.338,35.387,8.588,51.273
		c17.588,28.145,57.516,36.312,85.613,14.321c4.311-3.374,8.264-7.128,12.293-11.169c3.429,2.985,6.666,5.801,10.246,8.918
		c-8.618,9.177-17.783,17.172-29.442,21.868c-18.978,7.644-38.189,8.802-57.308,0.951c-21.317-8.753-35.293-24.565-41.671-46.641
		c-8.434-29.19-3.288-55.724,17.501-78.369c12.321-13.421,27.958-20.717,46.217-21.752c21.081-1.195,40.201,3.957,56.23,18.394
		c1.979,1.782,4.024,3.49,6.023,5.25C546.186,123.655,546.481,124.066,547.17,124.843z"/>
	<path style="fill:#1F395B;" d="M588.673,248.844c-4.755,0-9.221,0-14.354,0c23.404-49.382,46.622-98.371,69.846-147.373
		c3.624,0,6.927,0,10.797,0c22.932,48.876,45.959,97.953,69.13,147.339c-4.666,0-8.956,0-13.767,0
		c-5.82-12.309-11.753-24.854-17.834-37.716c-5.552,0-11.174,0-17.325,0c2.921-6.306,5.613-12.118,8.455-18.254
		c-11.189-23.765-22.416-47.61-33.984-72.181C629.175,163.683,609.001,206.101,588.673,248.844z"/>
	<path style="fill:#F2B64F;" d="M126.192,95.381c0.946-4.174,3.825-6.004,7.203-7.307c6.258-2.415,12.871-3.135,19.446-3.974
		c11.92-1.52,23.905-1.361,35.869-0.921c8.113,0.299,16.209,1.159,24.17,2.862c3.926,0.84,7.561,2.484,10.833,4.849
		c3.854,2.785,3.943,6.48,0.142,9.39c-3.379,2.587-7.453,3.786-11.49,4.49c-12.11,2.11-24.293,3.393-36.654,3.011
		c-11.133-0.344-22.201-1.102-33.21-2.765c-4.144-0.626-8-2.041-11.726-3.94C128.403,99.868,126.779,98.186,126.192,95.381z
		 M136.157,95.03c9.753,6.838,65.913,7.587,81.279,0.331C206.194,88.027,149.097,87.795,136.157,95.03z"/>
	<path style="fill:#0BADD9;" d="M186.758,136.679c1.875-1.718,0.913-3.586,0.941-5.64c9.297,0.189,18.569-0.572,28.309,1.211
		c6.115,8.341,11.454,17.529,15.179,27.121c-0.407,0.812-0.456,0.974-0.557,1.092c-0.106,0.123-0.248,0.254-0.397,0.294
		c-0.473,0.126-0.958,0.298-1.438,0.298c-35.286,0.014-70.571,0.015-105.856-0.003c-0.467,0-0.935-0.259-1.936-0.555
		c4.049-10.603,9.157-20.428,15.984-29.388c9.24,0,18.205,0,27.119,0c1.671,1.504,0.282,3.644,1.538,5.57
		C172.599,136.679,179.801,136.679,186.758,136.679z"/>
	<path style="fill:#12ADD9;" d="M133.513,206.66c-0.726-2.06-0.585-3.871-0.419-5.699c1.343-1.866,3.302-1.926,5.335-1.924
		c25.119,0.016,50.238,0.017,75.357-0.004c1.877-0.002,3.654,0.089,5.038,1.765c0.479,2.434,0.379,4.816-1.718,7.303
		c-7.68,0-15.646,0.015-23.612-0.003c-16.469-0.038-32.938-0.125-49.407-0.118C140.583,207.98,137.141,207.768,133.513,206.66z"/>
	<path style="fill:#17AED9;" d="M254.905,199.379c-1.356,2.078-3.009,3.296-5.563,3.748c-6.31,1.118-12.564,2.541-18.991,2.903
		c-1.595,0.09-3.181,0.344-5.257,0.577c0.107-6.906,2.875-12.175,8.205-16.111c3.333-2.461,7.101-4.144,11.002-5.547
		c4.066-1.463,8.054,0.207,9.637,4.21c0.421,1.066,0.855,2.195,0.924,3.317C255.005,194.779,254.905,197.096,254.905,199.379z"/>
	<path style="fill:#17AED9;" d="M125.749,206.501c-9.747-1.135-19.31-1.581-27.981-5.038c-2.187-9.644-0.14-14.719,6.58-17.297
		C119.868,188.869,125.246,194.258,125.749,206.501z"/>
	<path style="fill:#1EACD3;" d="M136.157,95.03c12.94-7.235,70.037-7.002,81.279,0.331
		C202.069,102.616,145.91,101.867,136.157,95.03z"/>
</g>
</svg>
