<?xml version="1.0" encoding="iso-8859-1"?>
<!-- Generator: Adobe Illustrator 27.0.0, SVG Export Plug-In . SVG Version: 6.00 Build 0)  -->
<svg version="1.1" id="Layer_1" xmlns="http://www.w3.org/2000/svg" xmlns:xlink="http://www.w3.org/1999/xlink" x="0px" y="0px"
	 viewBox="0 0 1514.119 455.045" style="enable-background:new 0 0 1514.119 455.045;" xml:space="preserve">
<g>
	<path style="fill:#E32126;" d="M896,0c3.622,1.743,7.605,1.509,11.439,2.029c9.925,1.345,19.614,3.593,28.808,7.603
		c17.467,7.618,28.28,21.086,33.697,39.093c3.968,13.192,5.031,26.811,5.041,40.48c0.067,93.155,0.063,186.31-0.035,279.464
		c-0.013,12.847-1.737,25.504-5.685,37.836c-7.373,23.028-23.09,37.109-46.084,43.459c-15.869,4.382-32.12,5.714-48.481,4.814
		c-11.999-0.66-23.71-3.054-34.554-8.694c-12.998-6.76-21.756-17.232-27.227-30.645c-4.645-11.387-6.6-23.333-6.966-35.534
		c-0.299-9.991-0.255-19.994-0.257-29.992c-0.016-88.322-0.005-176.644-0.014-264.967c-0.001-10.001,0.147-19.98,2.35-29.81
		c3.962-17.675,11.957-32.85,27.63-42.835c10.981-6.996,23.244-10.515,36.246-11.383c6.217,0.038,12.433,0.076,18.65,0.111
		C891.28,1.034,891.781,0.71,892,0C893.333,0,894.667,0,896,0z M864.091,227.529c0.003,0,0.006,0,0.008,0
		c0,45.319,0.008,90.638-0.013,135.957c-0.002,4.173,0.176,8.314,0.925,12.43c1.569,8.621,7.076,14.584,15.017,15.992
		c6.446,1.143,12.9,1.234,19.364-0.06c9.534-1.91,15.118-7.745,16.67-17.434c0.582-3.634,0.8-7.27,0.8-10.942
		c-0.012-90.304-0.018-180.609,0.017-270.913c0.002-4.187-0.399-8.332-1.012-12.437c-1.363-9.121-7.157-15.188-16.037-16.858
		c-6.404-1.205-12.841-1.633-19.33-0.259c-7.311,1.548-12.282,5.64-14.569,12.789c-1.378,4.307-1.862,8.748-1.859,13.281
		C864.103,135.225,864.091,181.377,864.091,227.529z"/>
	<path style="fill:#EC7C5F;" d="M892,0c-0.219,0.71-0.72,1.034-1.442,1.03c-6.217-0.035-12.433-0.074-18.65-0.111
		C872.127,0.632,872.158,0.325,872,0C878.667,0,885.333,0,892,0z"/>
	<path style="fill:#F2A086;" d="M0,219c0.298,0.013,0.592-0.014,0.883-0.079c0,5.386,0,10.772,0,16.158
		C0.592,235.014,0.298,234.987,0,235C0,229.667,0,224.333,0,219z"/>
	<path style="fill:#E32126;" d="M1184.095,413.972c-16.496,3.362-32.739,6.672-49.386,9.256
		c-22.096-78.888-44.1-157.449-66.104-236.01c-0.347,0.049-0.695,0.098-1.042,0.147c1.32,81.607,2.639,163.213,3.969,245.434
		c-8.742,1.84-17.813,2.488-26.784,3.705c-9.065,1.229-18.169,2.162-27.2,3.218c-0.199-0.212-0.317-0.331-0.426-0.457
		c-0.106-0.122-0.273-0.243-0.292-0.382c-0.094-0.655-0.205-1.317-0.205-1.976c-0.009-140.148-0.008-280.296-0.008-421.138
		c18.296,1.304,36.149,3.888,54.534,6.332c21.031,74.307,42.082,148.687,63.133,223.066c0.206-0.022,0.411-0.044,0.617-0.067
		c-1.228-71.111-2.456-142.222-3.69-213.7c17.882,2.726,35.263,6.098,52.885,9.677
		C1184.095,165.279,1184.095,289.352,1184.095,413.972z"/>
	<path style="fill:#E32126;" d="M394.479,28.125c18.082-2.549,36.01-5.077,53.888-7.597c1.237,2.17,0.715,4.209,0.715,6.147
		c0.029,106.494,0.029,212.989,0.019,319.483c-0.001,6.002,0.21,11.956,1.634,17.844c1.743,7.208,5.96,12.309,12.884,14.704
		c7.09,2.452,14.401,3.926,22.019,2.432c6.12-1.2,10.085-4.839,12.322-10.468c1.231-3.097,1.986-6.35,2.06-9.714
		c0.073-3.332,0.148-6.664,0.148-9.997c0.008-109.994,0.006-219.989,0.006-329.983c0-1.818,0-3.635,0-6.123
		c19.089-2.267,38.063-3.896,56.874-5.23c1.429,1.249,0.929,2.667,0.929,3.92c0.021,115.494,0.029,230.988,0.001,346.482
		c-0.003,14.057-1.633,27.879-6.805,41.094c-9.116,23.293-25.931,37.03-50.867,39.931c-25.402,2.955-49.735-1.615-72.666-12.739
		c-18.096-8.779-27.857-24.069-31.588-43.49c-1.639-8.529-2.114-17.156-2.112-25.835c0.025-108.661,0.014-217.322,0.031-325.983
		C393.972,31.536,393.664,30.024,394.479,28.125z"/>
	<path style="fill:#E32226;" d="M603.517,6.806c0.997-0.774,2.208-0.634,3.349-0.686c18.796-0.855,37.596-1.646,56.39-2.545
		c9.32-0.446,18.646-0.904,27.963-0.424c14.206,0.732,28.048,3.313,40.928,9.67c16.296,8.043,26.432,21.294,31.893,38.373
		c3.633,11.364,4.866,23.098,4.884,34.947c0.068,44.314,0.102,88.629-0.054,132.942c-0.043,12.171-1.684,24.173-5.628,35.812
		c-7.087,20.914-21.268,34.478-42.175,41.102c-11.007,3.487-22.341,5.123-33.895,5.153c-7.164,0.019-14.327-0.024-21.491,0.027
		c-1.453,0.01-2.98-0.41-4.811,0.643c0,49.52,0,99.25,0,149.48c-19.366-0.25-38.218-1.716-57.071-2.513
		C602.84,445.273,602.583,12.64,603.517,6.806z M660.846,65.238c-0.01,58.688-0.014,116.532,0.001,174.561
		c10.534,0.008,20.332,0.417,30.105-0.811c9.771-1.228,15.732-6.264,18.321-15.772c1.277-4.691,1.455-9.513,1.455-14.345
		c-0.003-37.633-0.021-75.266,0.03-112.898c0.005-3.847-0.209-7.686-0.844-11.436c-1.985-11.73-6.742-16.124-17.286-18.542
		C682.288,63.624,671.819,65.216,660.846,65.238z"/>
	<path style="fill:#E32226;" d="M194.457,378.458c0-100.577,0-200.842,0-301.037c0.688-1.246,1.934-1.249,3.02-1.615
		c15.422-5.196,30.97-9.984,46.725-14.063c11.593-3.001,23.31-5.617,35.265-6.479c18.23-1.314,35.491,1.499,50.253,13.488
		c9.643,7.831,15.557,18.061,19.233,29.682c3.238,10.239,4.11,20.822,4.098,31.532c-0.054,50.316-0.015,100.632-0.029,150.949
		c-0.005,17.494,0.175,34.992-0.189,52.479c-0.241,11.541-2.67,22.725-7.759,33.238c-7.969,16.462-20.846,26.795-38.525,31.259
		c-12.157,3.07-24.394,2.922-36.649,0.813C244.296,394.299,219.566,386.614,194.457,378.458z M245.147,119.036
		c0,72.44,0,144.888,0,217.507c3.797,1.082,7.41,2.271,11.099,3.131c8.587,2.001,17.179,4.021,26.124,3.42
		c9.459-0.635,16.12-6.601,17.688-15.992c0.494-2.959,0.823-5.919,0.821-8.938c-0.031-60.165-0.022-120.331-0.028-180.496
		c0-2.662-0.165-5.302-0.501-7.962c-1.493-11.819-9.052-17.95-21.215-17.865c-9.434,0.065-18.383,2.684-27.436,4.795
		C249.458,117.156,247.114,117.484,245.147,119.036z"/>
	<path style="fill:#E32326;" d="M1213.284,47.279c46.086,10.377,91.303,22.713,135.415,39.396c0,18.172,0,36.088,0,54.167
		c-13.925-4.006-27.608-7.942-41.642-11.98c0,84.63,0,168.898,0,253.707c-17.022,5.637-34.246,10.168-51.99,14.98
		c0-94.361,0-188.102,0-281.941c-13.968-3.752-27.747-6.613-41.783-9.258C1213.284,86.662,1213.284,67.253,1213.284,47.279z"/>
	<path style="fill:#E32427;" d="M0.883,235.079c0-5.386,0-10.772,0-16.158c1.696-14.223,7.517-26.755,15.669-38.346
		c9.487-13.488,21.294-24.682,34.349-34.606c15.396-11.704,31.837-21.764,49.046-30.569c0.978-0.5,1.877-1.435,3.453-1.095
		c0,75.36,0,150.749,0,226.455c-3.982-1.244-7.455-3.452-11.024-5.381c-17.166-9.279-33.503-19.84-48.471-32.392
		c-14.663-12.296-27.44-26.203-35.869-43.652C4.32,251.642,1.878,243.574,0.883,235.079z"/>
	<path style="fill:#E32126;" d="M1411.157,340.816c0-75.79,0-151.215,0-226.989c7.406,3.407,14.162,7.284,20.885,11.207
		c19.631,11.455,38.074,24.497,53.823,41.033c11.248,11.81,20.452,24.913,25.212,40.77c5.428,18.084,3.403,35.496-4.569,52.39
		c-6.565,13.912-16.276,25.482-27.247,36.047C1461.175,312.691,1433.246,330.394,1411.157,340.816z"/>
</g>
</svg>
