<?xml version="1.0" encoding="iso-8859-1"?>
<!-- Generator: Adobe Illustrator 27.0.0, SVG Export Plug-In . SVG Version: 6.00 Build 0)  -->
<svg version="1.1" id="Layer_1" xmlns="http://www.w3.org/2000/svg" xmlns:xlink="http://www.w3.org/1999/xlink" x="0px" y="0px"
	 viewBox="0 0 1588 702" style="enable-background:new 0 0 1588 702;" xml:space="preserve">
<g>
	<path style="fill:#7F756A;" d="M0,485C0,323.333,0,161.667,0,0c529.333,0,1058.667,0,1588,0c0,161.667,0,323.333,0,485
		c-1.998,0.038-3.996,0.108-5.994,0.108c-525.337,0.005-1050.675,0.005-1576.012,0C3.996,485.108,1.998,485.038,0,485z
		 M946.966,169.84c0.276-0.161,0.552-0.322,0.827-0.483c56.251,67.264,112.501,134.528,168.656,201.676
		c6.166-0.222,11.941,0.333,17.527-0.325c0.791-1.6,0.533-2.957,0.531-4.266c-0.105-74.984,0.427-149.968-0.245-224.951
		c-0.001-0.132-0.17-0.271-0.278-0.392c-0.109-0.123-0.24-0.227-0.371-0.349c-6.1,0-12.206,0-18.651,0c0,66.393,0,132.477,0,198.538
		c-1.159,0.073-1.478-0.595-1.886-1.081c-22.15-26.417-44.289-52.844-66.434-79.264c-31.026-37.015-62.087-74.001-93.063-111.059
		c-7.225-8.644-4.832-7.729-17.238-7.743c-2.74-0.003-5.593-0.358-8.03,0.888c0,76.799,0,153.215,0,229.606
		c6.371,0,12.426,0,18.656,0C946.966,303.46,946.966,236.65,946.966,169.84z M459.814,255.536c0-3.664,0.425-7.392-0.119-10.973
		c-0.547-3.598-0.877-7.229-1.574-10.825c-6.495-33.5-24.604-59.163-52.818-77.746c-15.439-10.169-32.584-16.07-51.073-18.132
		c-14.165-1.58-28.273-1.639-42.112,1.705c-35.978,8.694-63.322,28.924-80.924,61.813c-7.629,14.254-11.892,29.524-13.051,45.549
		c-1.566,21.652,2.614,42.314,12.392,61.734c10.424,20.703,25.375,37.301,45.384,49.182c15.032,8.926,31.177,14.268,48.622,16.35
		c13.072,1.56,25.999,1.005,38.702-1.444c23.366-4.504,43.971-15.023,60.881-31.922
		C447.622,317.344,460.085,289.032,459.814,255.536z M828.752,254.714c9.099-3.335,17.109-6.97,23.87-12.787
		c17.432-14.998,21.485-34.48,17.773-56.057c-3.349-19.463-15.648-31.692-33.579-38.785c-12.718-5.031-26.115-6.333-39.581-6.573
		c-17.825-0.317-35.66-0.091-53.491-0.063c-1.433,0.002-3.038-0.443-4.203,0.992c0,76.395,0,152.806,0,229.315
		c6.307,0,12.236,0,18.735,0c0.161-36.625,0.32-73.007,0.479-109.136c0.851-0.375,1.144-0.616,1.437-0.617
		c13.649-0.016,27.351-0.895,40.909,1.105c9.21,1.359,17.399,4.917,23.575,12.57c5.753,7.129,11.441,14.278,16.609,21.843
		c15.759,23.07,30.572,46.759,45.913,70.103c0.989,1.505,1.637,3.31,3.438,4.147c6.747,0.914,13.472,0.424,20.707-0.055
		c-0.872-1.518-1.464-2.674-2.169-3.757c-19.949-30.661-39.888-61.328-59.882-91.958c-4.963-7.603-11.019-14.193-18.743-19.119
		C830.128,255.614,829.711,255.338,828.752,254.714z M497.921,140.688c0,2.271-0.001,4.089,0,5.906
		c0.024,43.989,0.1,87.977,0.027,131.965c-0.013,7.849,0.474,15.599,2.088,23.275c3.149,14.971,8.684,28.93,18.282,40.971
		c15.719,19.72,36.987,29.311,61.471,32.013c13.735,1.516,27.545,0.691,41.049-2.85c22.919-6.01,40.909-18.755,53.038-39.258
		c9.599-16.227,13.989-34.013,14.066-52.739c0.184-44.821,0.061-89.643,0.061-134.465c0-1.483,0-2.966,0-4.381
		c-5.09-1.068-15.864-0.927-19.469,0.193c-0.61,1.937-0.311,3.951-0.314,5.932c-0.049,42.822-0.112,85.645-0.072,128.467
		c0.008,9.023-0.74,17.937-3.182,26.617c-6.201,22.036-18.939,38.643-40.656,47.256c-17.863,7.084-36.277,7.613-54.762,2.854
		c-12.988-3.343-24.177-9.976-33.207-20.069c-13.423-15.003-18.951-33.161-19.176-52.653c-0.514-44.483-0.156-88.976-0.188-133.464
		c-0.001-1.772,0.476-3.633-0.614-5.57C510.498,140.688,504.561,140.688,497.921,140.688z M1308.839,246.429
		c-8.895,0-17.367,0-25.839,0c-8.333,0-16.665,0-24.998,0c-8.499,0-16.998,0.009-25.498-0.003
		c-8.414-0.012-16.829-0.046-25.383-0.071c0-30.452,0-60.19,0-90.436c6.081,0,11.878,0.003,17.675-0.001
		c5.833-0.004,11.666-0.019,17.498-0.023s11.666-0.002,17.498-0.001c6,0.002,11.999-0.001,17.998,0.012
		c5.833,0.013,11.666,0.106,17.498,0.05c5.742-0.055,11.514,0.394,17.405-0.27c0.129-5.276,0.613-10.02-0.172-14.701
		c-0.78-0.225-1.253-0.48-1.726-0.48c-39.996-0.037-79.992-0.057-119.988-0.061c-0.821,0-1.644,0.177-2.462,0.3
		c-0.143,0.022-0.272,0.18-0.394,0.291c-0.12,0.109-0.223,0.236-0.427,0.457c0,76.315,0,152.73,0,229.195
		c42.737,0,85.128,0,127.729,0c0.142-5.371,0.605-10.426-0.199-15.848c-36.238,0-71.997,0-107.814,0c0-31.132,0-61.84,0-92.838
		c7.173,0,13.985,0,20.796,0c6.666,0,13.332,0,19.998,0c6.833,0,13.665,0,20.498,0c6.666,0,13.332,0.026,19.998-0.007
		c6.756-0.034,13.52,0.074,20.343-0.204C1309.004,256.455,1309.318,251.813,1308.839,246.429z M1427.793,248.044
		c29.89-35.833,59.467-71.293,89.767-107.618c-8.982,0.148-16.752-0.495-24.615,0.815c-9.117,11.027-18.217,22.08-27.367,33.092
		c-14.686,17.676-29.404,35.325-44.112,52.983c-1.052,1.263-1.943,2.766-4.235,2.828c-24.72-29.798-49.581-59.764-74.137-89.363
		c-8.046,0-15.453,0-23.261,0c0.901,2.141,2.158,3.438,3.298,4.805c4.161,4.987,8.33,9.967,12.495,14.951
		c23.064,27.606,46.102,55.234,69.23,82.786c2.255,2.686,3.377,5.328,3.363,8.955c-0.143,37.662-0.105,75.325-0.077,112.987
		c0.001,1.773-0.491,3.642,0.591,5.494c6.224,0,12.472,0,19.06,0C1427.793,329.576,1427.793,288.634,1427.793,248.044z
		 M156.999,140.687c0,2.607,0,4.598,0,6.588c0,70.327,0.023,140.654-0.026,210.981c-0.007,9.983,0.45,19.972-0.841,29.948
		c-0.772,5.962-1.851,11.785-4.224,17.3c-3.183,7.396-8.293,12.799-16.346,14.844c-4.34,1.102-8.67,2.136-13.256,1.064
		c-2.501-0.585-5.148-0.549-7.99-0.818c1.278,6.003,1.969,11.704,3.728,17.484c6.382-0.427,12.458,0.074,18.639-0.855
		c16.14-2.427,27.029-11.235,33.163-26.059c4.234-10.233,6.078-21.081,6.093-32.089c0.11-78.16,0.063-156.319,0.039-234.479
		c0-1.261,0.434-2.658-0.705-3.909C169.393,140.687,163.455,140.687,156.999,140.687z"/>
	<path style="fill:#8E9FA6;" d="M1588,517c0,61.667,0,123.333,0,185c-529.333,0-1058.667,0-1588,0c0-61.667,0-123.333,0-185
		c1.996,0.058,3.992,0.166,5.988,0.166c525.341,0.007,1050.683,0.007,1576.024,0C1584.008,517.166,1586.004,517.058,1588,517z
		 M1465.414,571.303c0.011,18.735-0.301,37.438,0.676,56.834c-2.287-1.243-3.329-2.506-4.377-3.75
		c-6.323-7.517-12.642-15.037-18.959-22.559c-8.032-9.565-16.09-19.109-24.073-28.715c-2.057-2.475-4.329-3.457-7.532-2.014
		c-1.343,22.3-0.529,44.548-0.783,66.579c2.381,1.092,4.078,1.449,6.436,0.336c0-18.716,0-37.591,0-56.712
		c2.4,0.603,3.229,2.154,4.255,3.378c14.33,17.104,28.62,34.241,42.927,51.364c2.649,3.171,2.904,3.213,7.154,1.621
		c1.085-6.67,0.94-62.826-0.185-66.706C1469.385,570.213,1467.797,570.183,1465.414,571.303z M184.487,638.175
		c0-22.509,0-44.753,0-67.002c-3.522-1.556-5.925-0.594-8.047,2.147c-4.482,5.789-9.041,11.522-13.7,17.169
		c-2.919,3.538-5.434,7.454-9.174,10.685c-8.372-10.25-16.557-20.273-24.652-30.184c-2.054-0.002-3.688-0.482-5.233,0.396
		c-1.177,5.834-0.951,65.857,0.389,67.227c1.293,0.042,2.791,0.639,4.536-1.277c0-5.759,0-12.059,0-18.359
		c0-6.328-0.096-12.658,0.027-18.984c0.12-6.149-0.602-12.358,0.818-19.516c8.456,10.387,16.271,19.986,24.319,29.871
		c8.719-9.981,15.818-20.543,25.314-30.295c0,19.946,0,38.897,0,57.731C180.901,638.762,182.459,639.01,184.487,638.175z
		 M280.81,571.189c-1.109,5.634-0.798,63.498,0.353,66.998c8.746,1.219,26.753,0.606,34.685-1.197
		c6.332-1.439,11.825-4.32,16.061-9.37c7.161-8.535,9.897-18.401,7.951-29.266c-2.834-15.819-14.167-26.194-28.856-27.222
		c-8.449-0.591-16.926-1.054-25.411-0.73C283.969,570.466,282.244,570.03,280.81,571.189z M973.203,604.256
		c0.544,19.24,13.926,34.7,34.164,35.344c22.134,0.705,36.808-15.471,37.126-34.284c0.37-21.875-18.138-35.39-34.811-35.621
		C989.83,569.42,973.747,584.79,973.203,604.256z M1348.394,569.892c-21.122-0.9-36.266,17.242-36.077,33.675
		c0.268,23.225,17.356,36.057,34.923,36.031c21.683-0.032,36.017-14.958,36.289-35.17
		C1383.795,584.714,1366.976,569.165,1348.394,569.892z M777.603,569.893c-20.031,0.094-35.359,15.139-34.962,35.026
		c0.368,18.489,13.22,34.439,35.747,34.623c20.497,0.168,35.2-15.473,35.35-35.059C813.88,585.998,798.638,569.055,777.603,569.893z
		 M1072.387,570.552c-1.58,11.073-1.458,63.839,0.067,67.884c1.59,0.457,3.188,0.682,5.373-0.542c0-10.25,0-20.815,0-31.417
		c2.521-0.74,4.519-0.518,6.48-0.512c6.778,0.02,12.171,2.391,15.838,8.506c3.764,6.275,7.953,12.297,12.016,18.389
		c1.283,1.924,2.279,4.083,4.384,5.755c1.535,0.058,3.299,0.65,5.456-0.63c-3.748-5.881-7.332-11.634-11.047-17.301
		c-3.685-5.621-7-11.505-12.076-16.466c1.635-0.909,2.792-1.533,3.932-2.188c6.039-3.467,8.387-9.053,7.855-15.586
		c-0.554-6.797-4.005-11.802-10.956-13.976C1090.763,569.668,1081.67,570.413,1072.387,570.552z M847.034,606.487
		c10.745-1.92,18.837,0.667,24.065,9.926c0.489,0.866,1.112,1.657,1.663,2.488c4.225,6.371,8.448,12.743,12.635,19.061
		c2.017,0.736,3.914,0.948,6.238,0.397c-3.098-6.4-7.206-11.828-10.918-17.486c-3.693-5.628-7.054-11.486-11.603-16.326
		c1.06-1.614,2.453-1.891,3.573-2.562c5.793-3.469,7.916-8.963,7.638-15.249c-0.296-6.688-3.679-11.559-10.226-13.992
		c-5.25-1.951-10.715-2.461-16.193-2.359c-4.074,0.076-8.273-0.72-12.198,0.661c-0.961,6.304-0.679,63.393,0.303,66.988
		c1.519,0.599,3.058,1.144,5.021-0.231C847.034,627.586,847.034,617.148,847.034,606.487z M539.744,638.11
		c-9.642-22.819-19.071-45.327-29.362-67.462c-0.151-0.325-0.836-0.403-2.023-0.928c-10.117,22.701-19.708,45.512-29.557,68.328
		c2.397,0.946,4.128,1.005,6.026,0.047c3.239-7.535,6.51-15.146,9.816-22.839c9.923,0,19.529,0,29.403,0
		c3.324,7.777,6.638,15.531,9.923,23.216C535.993,638.733,537.602,639.119,539.744,638.11z M1148.197,615.301
		c10.253,0,19.854,0,29.389,0c3.749,7.856,6.238,15.994,10.422,23.04c1.896,0.497,3.338,0.787,4.867-0.364
		c-0.021-2.317-1.3-4.317-2.184-6.405c-3.562-8.413-7.194-16.796-10.816-25.184c-4.675-10.827-9.324-21.666-14.097-32.45
		c-0.666-1.504-0.789-3.783-4.06-3.814c-9.612,22.206-19.329,44.655-28.953,66.891c1.674,1.984,3.225,1.954,5.438,1.182
		C1141.429,630.804,1144.802,623.078,1148.197,615.301z M221.805,601.834c0-5.031-0.101-9.35,0.029-13.663
		c0.128-4.246-0.599-8.553,0.603-13.251c10.075,0,19.985,0,29.799,0c0.312-0.956,0.574-1.41,0.583-1.87
		c0.012-0.636-0.166-1.275-0.253-1.844c-5.132-1.325-32.561-1.098-36.262,0.301c0,22.181,0,44.411,0,66.968
		c12.527,0,24.727,0,36.827,0c0.844-1.683,1.121-3.06-0.017-4.642c-10.175-1.548-20.653,0.22-30.842-0.88
		c-0.993-8.088-0.663-22.49,0.539-25.935c9.474-1.102,19.128,0.308,28.452-0.8c0.805-1.806,0.79-3.017-0.914-4.385
		C241.361,601.834,231.922,601.834,221.805,601.834z M719.64,575.496c-7.669-3.726-15.511-5.796-24.051-5.711
		c-10.215,0.102-18.632,3.668-25.916,10.818c-15.432,15.148-12.454,42.619,7.483,53.904c14.238,8.059,28.392,5.702,42.378-0.494
		c0.615-2.08,0.757-3.847-0.164-5.986c-2.158,0.871-4.3,1.689-6.405,2.594c-7.184,3.089-14.694,4.63-22.41,3.253
		c-14.616-2.608-25.491-15.456-24.418-31.234c1.195-17.581,15.356-27.283,27.669-27.782c7.537-0.306,14.47,1.546,21.251,4.483
		c1.436,0.622,2.749,1.823,4.455,1.358C720.275,579.018,720.007,577.55,719.64,575.496z M461.938,575.396
		c-3.454-1.946-6.825-2.908-10.16-3.888c-7.139-2.097-14.453-2.358-21.704-0.922c-15.424,3.054-29.554,17.641-27.241,37.852
		c1.214,10.609,6.094,18.871,14.806,24.822c9.48,6.475,19.999,7.563,30.997,5.193c4.683-1.009,9.282-2.347,13.232-4.962
		c0.276-1.922,0.614-3.557-0.319-5.137c-1.923,0.095-3.438,1.225-5.096,1.934c-8.137,3.479-16.59,5.203-25.309,3.262
		c-11.84-2.636-20.843-13.05-22.118-24.862c-1.455-13.477,4.449-25.08,15.814-30.711c9.413-4.664,18.976-3.931,28.519-0.333
		c2.73,1.029,5.418,2.171,8.371,3.36c0.185-1.131,0.367-1.767,0.376-2.405C462.117,577.616,462.009,576.633,461.938,575.396z
		 M914.447,570.852c0,22.859,0,44.873,0,67.113c1.788-0.06,3.136,1.036,5.349-0.299c0.096-9.758,0.195-19.955,0.3-30.647
		c4.785,0,9.067-0.034,13.349,0.011c3.386,0.036,6.589-0.664,9.646-2.096c7.277-3.409,10.965-10.089,9.804-18.888
		c-1.001-7.586-5.066-12.166-12.823-14.027C931.697,570.008,923.259,571.175,914.447,570.852z M1223.11,575.866
		c0,21.321,0,41.861,0,62.386c2.295,0.592,4.022,0.951,5.739-0.375c0.56-5.148,0.212-10.306,0.272-15.452
		c0.06-5.158,0.013-10.316,0.013-15.475s-0.037-10.317,0.011-15.475c0.047-5.084-0.219-10.19,0.217-15.653
		c8.384,0,16.153,0,23.769,0c0.97-1.814,1.083-3.178-0.037-4.714c-17.991,0-36.064,0-54.02,0c-1.111,1.599-1.077,2.963,0.061,4.757
		C1206.692,575.866,1214.458,575.866,1223.11,575.866z M561.34,571.394c0,22.468,0,44.67,0,67.412
		c12.571-0.687,24.784-1.075,36.718-0.019c1.105-1.989,1.147-3.375,0.114-5.146c-10.109-1.258-20.575,0.385-31.242-0.706
		c0-5.743-0.001-10.879,0-16.015c0.001-4.993,0.008-9.987,0.007-14.98c-0.002-5.16,0.03-10.32-0.028-15.479
		c-0.057-5.088,0.226-10.199-0.196-15.058C564.615,570.762,563.16,570.694,561.34,571.394z M1278.533,571.268
		c0,22.435,0,44.676,0,66.603c0.983,0.969,1.833,0.914,2.654,0.908c0.823-0.006,1.674,0.034,2.909-1.146
		c0.918-21.833,0.814-44.209,0.054-66.331C1282.045,570.13,1280.485,570.186,1278.533,571.268z M368.871,570.876
		c0.315,22.486-1.22,44.936-0.358,67.16c2.099,0.825,3.519,1.009,5.23,0.019c0-22.218,0-44.563,0-66.727
		C372.361,570.261,371.112,570.078,368.871,570.876z"/>
	<path style="fill:#A1A438;" d="M1588,517c-1.996,0.058-3.992,0.166-5.988,0.166c-525.341,0.007-1050.683,0.007-1576.024,0
		c-1.996,0-3.992-0.108-5.988-0.166c0-10.667,0-21.333,0-32c1.998,0.038,3.996,0.108,5.994,0.108
		c525.337,0.005,1050.675,0.005,1576.012,0c1.998,0,3.996-0.071,5.994-0.108C1588,495.667,1588,506.333,1588,517z"/>
	<path style="fill:#7F756A;" d="M439.196,253.026c-0.217,26.306-6.899,47.844-21.705,66.465
		c-15.564,19.575-35.453,32.141-60.372,36.658c-29.407,5.33-55.791-1.533-79.262-19.39c-17.468-13.29-28.638-31.168-34.862-52.193
		c-3.582-12.102-4.951-24.508-3.87-36.972c2.267-26.134,12.455-48.67,32.012-66.626c12.855-11.803,27.641-20.054,44.554-24.356
		c11.885-3.023,23.896-3.313,36.093-1.855c22.709,2.714,41.832,12.61,57.787,28.593c15.194,15.221,24.655,33.657,28.3,54.909
		C438.855,243.983,439.473,249.8,439.196,253.026z M374.898,217.891c-7.056,4.128-13.154,9.565-19.685,14.411
		c-2.568,1.905-4.954,4.114-8.394,5.886c-2.7-19.922-5.305-39.141-7.911-58.36c-0.301,0.009-0.602,0.017-0.903,0.026
		c-2.627,19.316-5.253,38.631-7.972,58.627c-3.206-2.416-5.688-4.341-8.227-6.187c-6.575-4.784-12.65-10.246-19.639-14.467
		c-0.176-0.44-0.5-0.861-0.928-0.461c-0.412,0.385,0.029,0.761,0.365,1.042c6.283,9.385,13.818,17.847,20.641,27.58
		c-19.763,3.414-39.398,4.573-58.576,9.009c9.628,1.561,19.266,2.7,28.893,3.93c9.738,1.244,19.476,2.5,29.648,3.959
		c-6.704,9.938-14.374,18.16-20.338,27.581c0.265,0.24,0.531,0.479,0.796,0.719c8.925-6.751,17.851-13.503,27.456-20.769
		c2.719,20.277,5.337,39.805,7.955,59.332c1.647-6.635,2.609-13.192,3.477-19.763c0.87-6.58,1.412-13.211,2.529-19.747
		c1.086-6.352,0.995-12.947,3.114-19.599c9.724,7.194,18.352,14.586,28.057,20.588c-6.088-9.833-13.864-18.364-20.537-28.589
		c19.998-2.616,39.227-5.132,58.455-7.648c-19.296-4.047-38.716-5.935-58.479-8.722c6.735-10.101,14.264-18.581,20.884-27.741
		c0.258-0.337,0.68-0.746,0.252-1.106C375.394,217.052,375.067,217.438,374.898,217.891z"/>
	<path style="fill:#80766A;" d="M758.582,243.759c0-29.086,0-57.7,0-85.834c1.432-1.71,2.869-1.414,4.128-1.329
		c8.833,0.6,17.658-0.207,26.488-0.057c9.482,0.161,18.988,0.166,28.249,2.504c15.829,3.996,28.184,12.216,31.901,29.188
		c3.333,15.217,1.082,29.515-10.186,41.214c-5.909,6.136-13.579,9.384-21.716,11.529c-7.601,2.004-15.411,2.71-23.203,2.936
		c-11.157,0.324-22.331,0.089-33.497,0.078C760.099,243.987,759.452,243.855,758.582,243.759z"/>
	<path style="fill:#8F9FA6;" d="M286.372,633.09c0-19.128,0-37.716,0-56.281c0.9-1.13,2.134-0.815,3.257-0.79
		c7.311,0.161,14.624-0.552,21.934,0.643c13.829,2.262,21.021,11.965,22.281,24.549c1.111,11.099-2.348,20.705-11.716,27.577
		c-1.49,1.093-3.115,1.854-4.88,2.437C307.176,634.556,296.908,632.944,286.372,633.09z"/>
	<path style="fill:#8F9FA6;" d="M1008.962,634.197c-15.11,0.843-29.72-12.729-29.272-30.405
		c0.434-17.108,14.47-29.064,29.816-29.092c13.177-0.024,29.132,12.68,28.596,30.472
		C1037.579,622.493,1024.133,634.696,1008.962,634.197z"/>
	<path style="fill:#8F9FA6;" d="M1347.834,634.198c-18.382,0.656-28.962-16.125-29.124-29.155
		c-0.223-17.997,14.704-29.984,28.763-30.304c14.573-0.332,29.744,12.689,29.668,29.485
		C1377.065,621.199,1364.43,634.636,1347.834,634.198z"/>
	<path style="fill:#8F9FA6;" d="M778.18,634.187c-15.321,0.608-29.769-12.604-29.25-31.007c0.486-17.241,16.228-28.759,30.06-28.463
		c12.574,0.269,28.619,10.536,28.559,30.018C807.495,622.392,792.462,635.482,778.18,634.187z"/>
	<path style="fill:#8F9FA6;" d="M1078.324,575.934c6.149,0.014,12.091-0.931,17.892,0.968c5.92,1.938,8.177,5.349,7.964,11.586
		c-0.198,5.805-3.218,9.845-8.678,11.318c-5.501,1.484-11.111,1.519-16.695,1.038
		C1077.595,597.368,1077.286,583.635,1078.324,575.934z"/>
	<path style="fill:#8F9FA6;" d="M847.403,600.852c0-8.371,0-16.415,0-24.938c6.303,0.098,12.419-0.992,18.398,1.032
		c5.602,1.896,8.46,6.101,8.166,11.698c-0.313,5.952-3.612,9.879-9.432,11.35C858.984,601.398,853.395,601.155,847.403,600.852z"/>
	<path style="fill:#8FA0A7;" d="M521.601,609.848c-8.729,0-16.343,0-24.698,0c4.014-9.712,7.394-19.156,12.546-28.65
		C513.979,590.666,517.72,599.857,521.601,609.848z"/>
	<path style="fill:#8FA0A7;" d="M1175.378,609.837c-8.642,0-16.238,0-24.607,0c3.436-10.049,7.734-19.198,12.25-29.595
		C1167.346,590.601,1171.21,599.856,1175.378,609.837z"/>
	<path style="fill:#8F9FA6;" d="M920.254,602.033c0-9.105,0-17.343,0-25.854c5.71-0.671,11.182-0.821,16.531,0.06
		c6.572,1.082,10.286,6.129,10.176,12.795c-0.115,6.985-4.358,11.773-11.52,12.753c-2.289,0.313-4.638,0.208-6.961,0.239
		C925.857,602.06,923.234,602.033,920.254,602.033z"/>
	<path style="fill:#82786D;" d="M332.76,252.517c0.098-2.5-2.244-3.753-2.633-6.204c2.499-0.137,3.825,2.64,6.392,2.405
		c0.585-2.312,1.184-4.68,1.948-7.7c0.789,2.969,1.425,5.361,2.083,7.836c2.495-0.048,3.749-2.283,6.128-2.964
		c0.074,2.595-2.33,4.049-2.62,6.527c2.606,0.679,5.098,1.328,8.114,2.114c-2.916,0.721-5.308,1.313-7.908,1.956
		c-0.122,2.397,2.379,3.805,2.51,6.674c-2.118-1.115-3.924-2.065-6.054-3.186c-0.727,2.342-1.392,4.483-2.081,6.703
		c-1.708-1.798-1.415-4.252-2.091-6.377c-2.506,0.028-3.81,2.276-6.266,2.605c-0.169-2.501,2.623-3.793,2.465-6.338
		c-2.322-0.604-4.681-1.218-7.73-2.012C328.008,253.768,330.385,253.142,332.76,252.517z"/>
</g>
</svg>
