<?xml version="1.0" encoding="iso-8859-1"?>
<!-- Generator: Adobe Illustrator 27.0.0, SVG Export Plug-In . SVG Version: 6.00 Build 0)  -->
<svg version="1.1" id="Layer_1" xmlns="http://www.w3.org/2000/svg" xmlns:xlink="http://www.w3.org/1999/xlink" x="0px" y="0px"
	 viewBox="0 0 1542 781" style="enable-background:new 0 0 1542 781;" xml:space="preserve">
<g>
	<path style="fill:#F47822;" d="M253,0c7.963,3.878,15.334,8.546,21.072,15.474c11.302,13.646,18.756,28.914,19.958,46.857
		c0.032,0.479,0.235,0.947,0.36,1.425c23.478-7.934,42.279-2.155,55.019,7.311c-4.037,9.118-10.589,16.131-18.672,21.898
		c-8.026,5.726-17.169,8.539-27.004,10.147c-0.027,3.595,1.535,6.564,2.745,9.532c9.154,22.444,23.944,40.311,44.741,52.738
		c13.882,8.294,28.272,7.001,42.281-0.381c3.243-1.709,6.148-3.959,8.784-6.536c2.628-2.568,4.796-5.515,7.042-8.617
		c1.702,0.506,2.05,2.132,2.869,3.215c8.786,11.62,20.304,17.732,34.98,18.129c10.919,0.296,20.561-2.781,29.438-9.081
		c11.393-8.084,21.119-17.694,29.152-29.793c-18.474-6.407-31.287-18.276-37.949-37.108c19.041-7.219,36.807-4.646,54.087,5.872
		c1.916-16.706,8.779-30.471,22.088-40.644c7.352-5.62,15.441-9.514,24.779-10.625c0.803,1.992-0.352,3.221-0.922,4.452
		c-18.424,39.727-32.691,80.926-43.444,123.342c-5.06,19.958-8.88,40.191-12.423,60.47c-2.086,11.939-3.832,23.949-6.341,35.799
		c-2.705,12.779-10.516,21.994-21.849,28.316c-2.084,1.162-4.007,1.7-5.626-0.919c0.636-2.087,2.219-3.603,3.477-5.329
		c4.28-5.868,5.299-12.462,4.065-19.457c-0.664-3.765-2.727-6.638-5.982-8.803c-5.985-3.982-12.765-5.578-19.661-6.662
		c-15.023-2.361-30.121-2.45-45.286-1.392c-56.829,3.962-111.523,17.04-164.267,38.365c-18.214,7.364-35.839,15.959-51.546,28.007
		c-3.982,3.055-7.628,6.483-10.754,10.402c-5.439,6.818-5.786,12.743-1.305,20.246c2.629,4.403,6.288,7.724,10.914,9.948
		c1.635,0.786,3.312,1.486,4.884,2.188c1.001,2.832-0.217,3.977-2.664,4.198c-3.863,0.348-7.699-0.192-11.383-1.17
		c-9.695-2.573-17.967-7.176-24.26-15.5c-15.961-21.113-32.175-42.057-49.818-61.807c-18.987-21.255-39.163-41.348-60.506-60.263
		c-16.085-14.255-32.735-27.8-49.969-40.632C2.804,192.643,1.641,191.439,0,191c0-0.333,0-0.667,0-1
		c1.045,0.267,1.926-0.201,2.848-0.585c10.136-4.219,20.285-4.145,30.615-0.5c11.168,3.941,20.747,10.418,29.822,17.799
		c1.502,1.222,2.841,2.697,4.695,3.345c3.446-3.798,6.701-7.354,10.309-10.565c8.386-7.466,17.291-14.046,28.425-16.9
		c1.758-0.451,3.47-1.084,5.522-0.241c3.214,19.447-0.927,36.835-14.772,51.472c0.883,0.644,1.237,0.984,1.655,1.197
		c9.083,4.626,18.656,7.912,28.631,9.88c7.832,1.546,15.813,3.124,23.781,1.936c20.688-3.084,35.337-19.675,36.655-38.404
		c0.066-0.943-0.082-2.057,1.428-2.754c8.402,4.775,17.691,6.67,27.533,5.48c13.9-1.681,24.86-8.162,31.866-20.455
		c9.137-16.031,13.918-33.327,14.115-51.826c0.09-8.458-0.695-16.816-2.808-25.37c-9.699,2.927-19.108,5.236-29.103,3.807
		c-10.007-1.431-19.251-4.377-27.322-10.534c9.481-18.175,23.108-27.904,44.757-32.2c-0.144-0.475-0.22-0.978-0.437-1.409
		c-6.356-12.628-8.709-26.099-8.176-40.1C240.505,20.82,243.801,9.5,252,0C252.333,0,252.667,0,253,0z"/>
	<path style="fill:#060606;" d="M1288,781c0-30.428,0-60.856,0-92.071c3.875,4.733,7.005,9.011,10.595,12.86
		c15.691,16.826,34.593,28.914,55.977,37.17c11.671,4.506,23.787,7.292,36.299,7.907c8.205,0.403,16.187-0.846,23.685-4.547
		c6.417-3.168,10.138-8.236,11.727-15.158c0.912-3.976-0.202-7.207-2.749-10.094c-3.59-4.07-8.167-6.742-13.033-8.998
		c-8.801-4.08-18.235-5.976-27.604-8.119c-16.968-3.88-33.902-7.906-49.838-15.155c-9.442-4.295-18.09-9.812-25.453-17.219
		c-11.684-11.754-15.915-26.041-14.876-42.324c1.504-23.582,13.169-40.612,33.261-52.243c11.942-6.913,24.961-10.54,38.636-12.063
		c4.307-0.48,8.601-0.745,12.928-0.937c13.063-0.582,25.862,1.353,38.66,3.529c10.338,1.758,20.725,3.054,31.253,2.534
		c10.24-0.506,19.157-3.745,25.496-12.331c0.165-0.223,0.539-0.291,1.069-0.56c0,25.011,0,49.893,0,75.145
		c-4.16-2.418-6.924-5.988-10.156-8.987c-4.639-4.304-8.958-8.958-13.671-13.177c-11.296-10.113-25.354-14.125-39.7-17.165
		c-10.542-2.234-21.185-1.988-31.589,1.019c-7.394,2.138-14.213,5.449-19.728,11.088c-7.222,7.383-7.424,15.774-0.266,23.276
		c4.802,5.032,10.805,8.233,17.247,10.631c8.606,3.204,17.629,4.64,26.652,5.998c16.902,2.543,33.789,5.095,49.641,11.998
		c7.34,3.196,14.214,7.179,20.678,11.88c12.393,9.014,18.851,21.734,21.703,36.311c4.934,25.219-3.853,45.365-23.959,60.765
		c-11.863,9.086-25.67,13.619-40.267,15.948c-8.384,1.338-16.807,2.095-25.328,2.072c-13.721-0.036-27.164-1.898-40.408-5.357
		c-10.163-2.654-20.458-4.657-30.981-4.27c-14.475,0.533-28.829,2.056-42.02,8.83c-0.99,0.508-2.274,0.662-2.882,1.815
		C1288.667,781,1288.333,781,1288,781z"/>
	<path style="fill:#63B547;" d="M1542,376c-0.134-0.099-0.355-0.175-0.389-0.301c-5.387-20.023-19.243-31.556-38.136-38.015
		c-12.562-4.294-25.538-5.666-38.512-5.543c-1.349,1.08-0.942,2.333-0.943,3.436c-0.02,42.153-0.19,84.306,0.074,126.458
		c0.096,15.244,5.572,28.545,17.15,38.98c4.395,3.961,9.483,6.588,15.032,8.787c-45.198,0-90.395,0-136.641,0
		c11.19-3.816,19.293-10.198,25.268-19.151c4.701-7.045,7.45-14.789,7.446-23.4c-0.022-43.652-0.01-87.304-0.01-130.957
		c0-1.156,0-2.312,0-3.741c-5.272-1.187-10.421-0.795-15.469-0.433c-11.515,0.826-22.65,3.324-32.991,8.748
		c-13.499,7.081-23.697,17.013-28.032,32.084c-0.092,0.319-0.188,0.642-0.335,0.937c-0.359,0.721-0.75,1.426-1,1.895
		c0-25.261,0-50.764,0-76.785c75.985,0,151.737,0,227.489,0C1542,324.667,1542,350.333,1542,376z"/>
	<path style="fill:#62B547;" d="M918.531,509.948c4.839-3.021,9.993-5.253,14.424-8.802c4.213-3.374,7.755-7.267,10.473-11.928
		c3.913-6.712,4.736-13.837,2.341-21.152c-2.833-8.654-6.021-17.192-9.085-25.866c-21.557,0-42.836,0-64.249,0
		c-3.458,8.134-6.803,16.25-9.172,24.71c-4.558,16.279,3.534,33.577,18.93,40.744c1.464,0.682,2.969,1.276,4.737,2.03
		c-2.148,0.749-3.982,0.44-5.781,0.441c-29.828,0.022-59.655,0.016-89.483,0.016c-26.325,0-52.652-0.153-78.975,0.056
		c-16.542,0.132-29.651-6.162-39.548-19.375c-3.096-4.133-6.025-8.365-8.668-12.798c-10.661-17.878-18.856-36.966-27.407-55.88
		c-1.024-2.265-2.025-4.541-3.127-7.017c-6.607,0-13.183,0-20.281,0c0,1.782,0.04,3.398-0.007,5.01
		c-0.21,7.149-0.025,14.293-0.369,21.454c-0.607,12.638-0.047,25.338,2.071,37.805c2.385,14.042,9.886,24.517,23.807,29.535
		c0.307,0.111,0.626,0.2,0.909,0.355c0.124,0.068,0.17,0.278,0.366,0.628c-41.444,0-82.774,0-125.01,0
		c3.719-2.736,6.986-4.649,9.761-7.246c9.164-8.574,13.658-19.431,15.834-31.479c0.832-4.605,0.862-9.259,0.858-13.927
		c-0.033-36.826,0.078-73.653-0.099-110.479c-0.036-7.432,0.029-14.984-2.189-22.236c-3.618-11.827-10.594-20.586-22.72-24.567
		c-0.432-0.142-0.825-0.404-1.977-0.982c2.625,0,4.452,0,6.279,0c48.657,0,97.315-0.081,145.972,0.046
		c16.211,0.042,32.218,1.864,47.101,8.946c17.308,8.236,26.643,22.283,27.784,41.21c1.486,24.634-11.114,41.541-31.296,53.809
		c-0.978,0.595-1.996,1.123-2.877,1.615c-0.411,1.669,0.488,2.752,1.051,3.921c11.343,23.529,23.454,46.633,38.423,68.108
		c6.286,9.018,13.012,17.693,21.511,24.828c3.076,2.583,6.314,4.848,10.189,6.6c11.437-6.351,21.493-13.894,27.827-26.078
		c9.066-17.437,16.316-35.591,23.453-53.842c11.122-28.439,22.658-56.716,33.417-85.297c1.874-4.978,3.373-10.02,3.466-15.469
		c0.139-8.134-3.303-14.428-9.199-19.622c-4.42-3.893-9.596-6.451-15.166-8.519c41.317,0,82.634,0,124.365,0
		c2.181,6.065,4.47,12.259,6.642,18.493c14.949,42.928,29.938,85.842,44.762,128.814c3.745,10.857,7.657,21.598,13.632,31.464
		c9.01,14.877,18.996,24.146,34.502,31.922C1017.077,509.948,967.804,509.948,918.531,509.948z M609.135,385.721
		c7.258,0.881,14.088,0.525,20.868,0.664c6.554,0.134,13.262-0.488,19.556-3.073c6.714-2.758,11.243-7.391,13.524-14.344
		c1.609-4.906,1.27-9.923,0.936-14.85c-0.847-12.513-7.331-19.654-17.704-22.612c-3.205-0.914-6.46-1.626-9.812-1.621
		c-7.823,0.011-15.646,0.049-23.468,0.14c-1.264,0.015-2.658-0.489-3.9,0.639C609.135,348.872,609.135,367.145,609.135,385.721z
		 M902.679,349.677c-0.304-0.087-0.608-0.175-0.911-0.262c-7.401,22.335-14.803,44.67-22.287,67.256c15.889,0,31.05,0,46.46,0
		C918.1,394.09,910.389,371.883,902.679,349.677z"/>
	<path style="fill:#62B547;" d="M248.018,317.068c13.987-5.731,27.795-10.926,41.84-15.514
		c28.297-9.244,57.152-16.212,86.454-21.361c6.705-1.178,13.443-2.315,20.215-2.923c5.826-0.523,11.608,0.81,17.243,2.224
		c31.935,8.01,54.553,27.255,68.147,57.133c5.471,12.025,8.571,24.726,10.231,37.826c1.427,11.256,2.237,22.533,1.778,33.866
		c-1.423,35.153-10.644,67.826-31.35,96.719c-12.989,18.124-29.371,32.542-48.523,43.911c-22.003,13.061-45.838,20.87-70.947,25.118
		c-16.946,2.867-34.013,4.111-51.192,3.657c-27.864-0.736-55.344-4.05-81.99-12.659c-17.197-5.556-33.387-13.19-47.717-24.322
		c-15.9-12.351-28.262-27.384-32.637-47.545c-3.652-16.828-2.917-33.462,5.667-48.934c8.202-14.782,21.578-22.246,37.714-25.011
		c28.03-4.803,49.852,14.362,56.341,34.286c2.124,6.522,2.955,13.176,3.366,19.992c-1.664,0.658-3.078,0.171-4.537-0.058
		c-5.54-0.869-10.942-0.114-16.151,1.834c-7.253,2.713-10.461,8.413-10.936,15.787c-0.686,10.65,3.87,19.073,11.826,25.721
		c9.52,7.955,20.831,12.229,32.714,15.186c17.75,4.416,35.833,5.831,53.996,4.719c18.824-1.152,37.182-4.855,54.441-12.992
		c24.135-11.378,41.252-29.301,51.021-54.162c4.714-11.997,7.253-24.47,8.231-37.313c1.758-23.065,0.109-45.858-5.293-68.346
		c-2.302-9.584-5.965-18.666-11.33-26.984c-9.628-14.927-23.289-23.772-40.702-27.09c-8.381-1.597-16.797-2.104-25.267-1.907
		c-1.162,1.607-0.646,3.324-0.647,4.924c-0.029,56.99,0.117,113.981-0.154,170.969c-0.049,10.305,6.734,18.532,17.691,19.381
		c-1.835,2.206-4.205,3.181-6.438,4.217c-9.866,4.582-20.273,7.206-31.045,8.659c-10.423,1.407-20.871,2.197-31.366,1.743
		c-13.994-0.605-27.807-2.367-40.934-7.712c-3.41-1.388-6.568-3.144-9.583-5.612c1.472-1.681,3.407-1.243,5.073-1.551
		c8.855-1.642,14.515-7.503,15.214-16.015c0.161-1.958-0.253-3.955-0.256-5.935c-0.082-53.824-0.144-107.647-0.21-161.471
		C248.017,318.868,248.018,318.211,248.018,317.068z"/>
	<path style="fill:#060505;" d="M595.839,563.256c42.242,0,84.235,0,126.329,0c-0.234,1.434-1.435,1.436-2.409,1.86
		c-13.998,6.102-21.536,17.008-23.946,31.889c-0.671,4.143-0.888,8.255-0.887,12.417c0.008,40.993-0.202,81.987,0.109,122.978
		c0.12,15.839,6.642,28.915,19.954,38.155c2.121,1.472,4.803,2.075,7.047,4.375c-2.031,0-3.504,0-4.977,0
		c-63.322,0.024-126.645-0.172-189.964,0.199c-20.238,0.118-36.78-7.275-51.021-20.996c-11.577-11.154-20.983-24.049-29.971-37.286
		c-8.774-12.921-16.99-26.201-25.578-39.913c-7.898,10.072-15.625,19.925-23.448,29.901c-0.492,8.429,0.574,16.848,1.361,25.267
		c0.541,5.787,1.838,11.454,3.532,17.022c3.856,12.678,9.534,19.504,21.554,25.603c-43.75,0-87.1,0-131.128,0
		c2.116-0.762,3.679-1.27,5.201-1.882c8.467-3.407,14.227-9.723,18.175-17.676c3.877-7.809,5.686-16.231,6.312-24.926
		c1.138-15.805,0.547-31.629,0.605-47.445c0.098-26.995,0.027-53.99,0.027-80.986c0-1.794,0-3.588,0-5.6
		c25.522-2.538,50.187-7.235,74.302-16.852c0,22.205,0,43.919,0,65.627c2.405,0.526,2.944-1.262,3.788-2.251
		c14.256-16.715,28.451-33.482,42.655-50.24c7.857-9.27,15.708-18.544,23.559-27.819c3.253-3.843,5.693-8.087,7.084-12.992
		c1.686-5.947,0.294-11.445-2.275-17.18c34.688,0,68.943,0,103.09,0c-0.731,0.726-1.814,1.155-3.071,1.454
		c-22.535,5.365-42.497,15.747-60.028,30.861c-6.851,5.906-12.317,13.079-18.162,19.895c-6.927,8.077-13.671,16.311-20.49,24.473
		c2.284,5.518,5.225,10.323,7.922,15.239c12.296,22.416,24.735,44.765,39.19,65.882c16.77,24.498,36.553,46.16,61.256,62.982
		c7.011,4.775,14.318,9.033,22.171,12.296c0.902,0.375,1.863,0.607,2.908,0.94c8.711-6.567,13.716-15.257,15.417-25.875
		c0.816-5.092,0.954-10.26,0.957-15.412c0.022-39.826,0.097-79.653-0.042-119.479c-0.04-11.341-2.943-21.958-9.733-31.335
		c-3.625-5.006-8.273-8.56-13.86-11.034C598.177,564.873,596.734,564.789,595.839,563.256z"/>
	<path style="fill:#060605;" d="M947.714,704.24c0-30.831,0.054-61.663-0.039-92.494c-0.023-7.475-0.616-14.945-2.643-22.202
		c-1.435-5.14-3.414-10.048-6.654-14.364c-3.58-4.768-7.979-8.418-13.768-10.22c-1.24-0.386-2.426-0.945-4.203-1.649
		c31.955,0,63.3,0,94.727,0c-0.493,0.345-0.939,0.822-1.485,1.015c-11.166,3.927-16.566,12.74-19.539,23.412
		c-1.515,5.44-2.207,11.057-2.202,16.757c0.038,42.997,0.021,85.994,0.021,128.992c0,8.74,1.456,17.197,5.151,25.163
		c3.506,7.559,9.086,12.963,17.031,16.026c-35.969,0-71.938,0-108.405,0c-30.077-46.537-60.338-93.36-90.6-140.183
		c-0.274,0.076-0.548,0.152-0.822,0.227c0,1.521,0,3.041,0,4.562c0,28.165,0.005,56.33-0.004,84.494
		c-0.002,7.001,0.594,13.966,1.811,20.84c2.1,11.857,8.59,20.684,19.124,26.537c1.449,0.805,2.854,1.69,4.268,2.556
		c0.266,0.163,0.479,0.413,1.058,0.925c-31.574,0-62.802,0-94.031,0c0.553-0.885,1.495-1.237,2.419-1.493
		c10.59-2.937,15.999-10.678,18.997-20.576c1.256-4.147,1.753-8.483,2.003-12.777c0.454-7.803,0.729-15.626,0.749-23.442
		c0.079-31.498,0.029-62.996,0.035-94.494c0.002-9.321-0.15-18.646-1.703-27.855c-1.421-8.424-3.848-16.465-10.113-22.811
		c-2.861-2.898-6.027-5.171-9.972-6.321c-1.074-0.313-2.072-0.885-3.535-1.526c36.594,0,72.674,0,109.191,0
		c30.726,46.932,61.539,93.997,92.352,141.062C947.196,704.348,947.455,704.294,947.714,704.24z"/>
	<path style="fill:#050505;" d="M1250.08,554.303c0,30.451,0,60.889,0,91.558c-1.568-0.869-1.686-2.424-2.351-3.596
		c-4.599-8.105-11.018-14.546-18.337-20.173c-19.171-14.738-40.663-24.091-64.498-28.286c-7.12-1.253-14.175-2.009-21.235-0.503
		c-10.116,2.159-17.708,8.129-23.262,16.717c-4.576,7.076-6.835,15.012-8.443,23.213c-3.029,15.448-3.88,31.053-2.902,46.699
		c0.881,14.085,2.948,28.037,7.816,41.415c1.717,4.717,4.114,9.058,7.258,12.96c10,12.411,26.245,14.574,38.411,11.115
		c8.51-2.42,14.12-8.371,13.847-20.439c-0.25-10.995-0.24-21.985-0.277-32.977c-0.012-3.54-0.634-6.952-1.556-10.306
		c-2.695-9.803-9.577-15.194-19.078-17.716c-0.616-0.164-1.36,0.112-2.007-0.76c39.026,0,77.881,0,116.766,0
		c-0.028,0.16-0.005,0.559-0.116,0.601c-13.264,4.984-19.261,15.656-22.093,28.608c-1.492,6.824-2.017,13.808-2.018,20.81
		c-0.003,18.167-0.001,36.333-0.001,54.5c0,1.659,0,3.318,0,4.953c-1.574,0.425-2.235-0.753-3.091-1.377
		c-10.912-7.958-23.216-10.289-36.381-8.926c-14.119,1.462-27.369,6.478-40.921,10.249c-9.268,2.579-18.532,5.148-28.181,5.941
		c-7.672,0.631-15.333,0.165-22.914-0.761c-11.725-1.433-23.133-4.253-33.889-9.374c-25.21-12.003-41.296-31.84-49.553-58.171
		c-4.829-15.4-5.693-31.269-4.405-47.328c0.92-11.476,3.246-22.614,6.29-33.702c6.101-22.224,19.977-38.346,38.947-50.457
		c15.067-9.619,31.732-14.805,49.473-16.843c13.145-1.51,26.262-1.448,39.34,0.227c8.882,1.137,17.465,3.749,25.987,6.496
		c9.847,3.174,19.95,4.997,30.297,5.377c14.386,0.528,24.927-5.621,31.687-18.312
		C1248.976,555.189,1249.041,554.419,1250.08,554.303z"/>
	<path style="fill:#62B547;" d="M1292.693,361.84c-5.669-10.581-13.788-18.107-24.341-23.032
		c-11.28-5.264-23.201-7.894-35.547-8.902c-19.115-1.56-38.272-0.6-57.405-1.039c-0.968-0.022-1.938-0.003-3.142-0.003
		c0,19.412,0,38.474,0,57.998c3.124,0,6.094,0.195,9.031-0.04c6.612-0.528,13.287-0.258,19.83-1.698
		c9.272-2.041,16.965-6.48,22.77-14.15c3.704-4.894,6.623-10.244,9.912-16.492c0,31.528,0,62.069,0,93.651
		c-1.291-4.307-2.441-7.603-3.967-10.757c-6.19-12.797-16.79-19.24-30.467-21.416c-8.911-1.418-17.871-0.888-26.701-1.203
		c-1.069,1.567-0.639,3.112-0.643,4.566c-0.035,14.329-0.026,28.658-0.019,42.987c0.003,7.366,0.88,14.669,3.253,21.611
		c4.038,11.811,11.266,20.978,23.27,25.957c-42.648,0-85.296,0-128.666,0c2.004-1.329,3.564-2.214,4.956-3.31
		c14.148-11.144,22.161-25.593,22.257-43.731c0.206-38.987,0.137-77.977,0.026-116.965c-0.043-15.268-5.126-28.623-16.126-39.523
		c-2.984-2.957-6.594-4.901-11.148-7.148c74.842,0,148.702,0,222.869,0C1292.693,319.95,1292.693,340.668,1292.693,361.84z"/>
</g>
</svg>
