<?xml version="1.0" encoding="iso-8859-1"?>
<!-- Generator: Adobe Illustrator 27.0.0, SVG Export Plug-In . SVG Version: 6.00 Build 0)  -->
<svg version="1.1" id="Layer_1" xmlns="http://www.w3.org/2000/svg" xmlns:xlink="http://www.w3.org/1999/xlink" x="0px" y="0px"
	 viewBox="0 0 1066.554 716.197" style="enable-background:new 0 0 1066.554 716.197;" xml:space="preserve">
<g>
	<path style="fill:#76BB47;" d="M1066.554,507c0,2,0,4,0,6c-0.759,0.219-0.982,0.793-0.967,1.501
		c0.144,6.664-0.599,13.281-0.953,19.919c-0.479,8.972-1.596,17.874-2.472,26.797c-0.857,8.728-2.244,17.413-3.65,26.076
		c-1.511,9.308-2.934,18.657-5.076,27.829c-3.95,16.916-20.237,29.259-37.119,30.063c-6.1,0.291-12.171,0.76-18.292,0.575
		c-6.304-0.19-12.604-0.018-18.895,0.758c-6.738,0.831-13.576,0.972-20.266,2.059c-11.198,1.818-22.368,3.898-33.451,6.318
		c-17.74,3.874-35.431,7.989-53.084,12.245c-12.564,3.029-24.996,6.604-37.553,9.667c-15.071,3.676-30.188,7.17-45.328,10.548
		c-11.822,2.638-23.692,5.067-35.574,7.417c-7.731,1.529-15.517,2.78-23.291,4.084c-1.95,0.327-3.623,1.463-5.771,1.331
		c-5.463-0.337-10.784,1.173-16.15,1.881c-6.498,0.858-12.979,1.932-19.497,2.71c-3.602,0.43-7.202,0.881-10.803,1.322
		c-4.574,0.56-9.134,1.364-13.725,1.614c-4.798,0.262-9.579,0.858-14.337,1.307c-6.743,0.637-13.5,1.123-20.241,1.777
		c-6.271,0.608-12.591,0.587-18.825,1.326c-9.083,1.077-18.225,0.429-27.311,1.528c-5.393,0.652-11.004-0.455-15.844,2.544
		c-4.645-2.659-9.35-2.429-13.955-1.833c-1.791,0.232-3.604,0.562-5.402,0.601c-20.631,0.447-41.242-0.397-61.855-1.074
		c-0.666-0.022-1.361,0.047-1.992-0.118c-6.152-1.608-12.51-0.725-18.767-1.542c-5.031-0.657-10.262-0.861-15.309-1.477
		c-8.961-1.093-17.943-2.217-26.886-3.568c-8.928-1.349-17.866-2.738-26.7-4.478c-15.242-3.003-30.396-6.492-45.382-10.673
		c-26.685-7.444-52.65-16.828-77.901-28.218c-23.216-10.472-45.333-22.925-66.633-36.854c-3.107-2.032-5.711-5.096-8.906-6.575
		c-4.549-2.107-7.653-5.86-11.775-8.392c-3.956-2.43-7.13-6.107-10.754-9.108c-5.339-4.422-11.066-8.422-16.224-13
		c-11.677-10.366-23.02-21.093-33.489-32.758c-9.525-10.613-18.72-21.461-27.374-32.784c-15.583-20.388-29.084-42.084-41.08-64.758
		c-4.306-8.14-7.432-16.781-11.387-25.055c-7.493-15.673-13.352-31.989-18.969-48.378c-5.252-15.326-9.202-31.056-12.871-46.83
		c-2.557-10.991-4.602-22.094-6.387-33.253c-0.756-4.726-1.02-9.551-2.053-14.16c-1.603-7.159-1.581-14.449-2.755-21.614
		c-0.911-5.558-0.567-11.233-1.332-16.761c-1.299-9.386-1.572-18.831-1.79-28.233c-0.261-11.26-0.132-22.551-0.009-33.83
		c0.118-10.761,0.29-21.553,1.06-32.237c1.034-14.35,1.117-28.765,3.153-43.082c1.178-8.283,2.112-16.649,3.405-24.915
		c1.894-12.113,4.612-24.099,7.05-36.124c1.856-9.153,3.886-18.272,5.726-27.428C23.406,13.404,31.797,4.445,45.978,0.98
		C46.64,0.818,47.267,0.713,47.554,0c4,0,8,0,12,0c5.979,2.544,11.949,5.1,18.134,7.127c16.662,5.462,33.984,7.244,51.286,8.749
		c13.409,1.166,26.903,1.422,40.38,1.48c28.798,0.124,57.577-0.487,86.34-1.99c13.944-0.729,27.898-1.232,41.832-2.186
		c11.44-0.783,22.9-1.26,34.35-1.898c12.442-0.694,24.88-1.46,37.324-2.117c12.442-0.658,24.888-1.258,37.335-1.815
		c15.612-0.699,31.223-1.476,46.843-1.948c18.798-0.569,37.603-1.041,56.408-1.216c26.964-0.252,53.913,0.348,80.858,1.655
		c13.289,0.645,26.573,1.368,39.816,2.496c13.558,1.155,27.096,2.63,40.592,4.521c17.253,2.417,34.395,5.296,51.427,8.989
		c40.875,8.863,79.946,22.63,116.96,42.157c47.82,25.228,88.957,58.615,123.181,100.528c26.977,33.038,48.009,69.554,64.242,108.902
		c17.477,42.361,28.446,86.458,34.467,131.804c2.405,18.113,4.231,36.31,4.338,54.623c-0.023,5.362-0.045,10.724-0.072,16.086
		c-0.004,0.842,0.114,1.615,0.959,2.054c0,5.333,0,10.667,0,16C1065.222,497.462,1065.222,503.705,1066.554,507z M562.54,665.854
		c12.984,0.004,25.967,0.281,38.951-0.428c10.798-0.589,21.625-0.474,32.438-1c21.271-1.035,42.516-2.331,63.734-4.201
		c20.885-1.841,41.695-4.236,62.476-7.013c25.381-3.392,50.601-7.728,75.743-12.498c35.746-6.782,71.256-14.81,107.294-20.045
		c14.492-2.105,29.023-3.709,43.631-4.768c9.978-0.723,19.956-0.846,29.942-1.059c9.381-0.2,16.355-6.357,17.985-15.457
		c3.284-18.337,6.104-36.716,8.116-55.241c2.104-19.373,3.075-38.8,3.499-58.258c0.199-9.146,0.079-18.3-0.333-27.46
		c-0.456-10.142-0.769-20.302-1.672-30.404c-2.015-22.527-5.064-44.912-9.68-67.088c-9.648-46.349-25.027-90.584-48.049-132.04
		c-29.617-53.332-69.303-97.517-120.077-131.527c-55.329-37.061-116.832-57.499-182.224-67.388
		c-18.097-2.737-36.276-4.721-54.509-6.331c-20.896-1.845-41.84-2.912-62.786-3.38c-29.469-0.658-58.954-0.835-88.429,0.332
		c-16.299,0.645-32.616,0.833-48.913,1.502c-21.278,0.875-42.552,1.896-63.812,3.131c-6.313,0.367-12.63,0.618-18.942,0.982
		c-15.446,0.891-30.885,1.896-46.332,2.76c-8.806,0.492-17.636,0.615-26.433,1.221c-21.09,1.454-42.217,2.104-63.336,2.566
		c-27.464,0.6-54.944,0.711-82.368-1.677c-15.094-1.315-30.069-3.197-44.812-6.827c-7.773-1.914-15.257-4.55-22.649-7.57
		c-6.023-2.46-11.644-0.129-13.169,5.77c-2.893,11.186-5.451,22.47-7.205,33.897c-1.147,7.472-2.396,14.928-3.319,22.444
		c-0.879,7.165-1.977,14.305-2.788,21.489c-0.502,4.446-0.44,8.961-1.217,13.329c-1.105,6.212-1.212,12.512-1.536,18.718
		c-0.659,12.628-0.2,25.313-0.197,37.975c0.002,5.829-0.643,11.754,0.183,17.465c1.19,8.22,0.387,16.536,1.866,24.703
		c0.291,1.609-0.268,3.409,0.171,4.948c1.376,4.824,0.925,9.827,1.624,14.721c0.554,3.875,1.038,7.847,1.434,11.776
		c0.753,7.482,2.561,14.852,3.679,22.306c1.65,11.006,3.984,21.879,6.57,32.679c4.731,19.754,10.417,39.227,17.501,58.303
		c4.643,12.502,9.513,24.921,15.136,36.975c6.354,13.621,13.113,27.074,20.807,40.043c10.627,17.914,21.98,35.286,35.006,51.578
		c14.379,17.984,29.734,35.025,46.667,50.646c19.256,17.765,39.875,33.749,61.956,47.849
		c36.145,23.079,74.705,40.941,115.627,53.769c24.453,7.665,49.273,13.74,74.525,18.101c14.918,2.577,29.905,4.559,44.959,6.18
		c16.889,1.819,33.83,2.742,50.78,3.42C540.864,666.205,551.709,665.854,562.54,665.854z"/>
	<path style="fill:#A3CD7F;" d="M1065.667,459.86c0.293,0.066,0.588,0.113,0.887,0.14c0,6,0,12,0,18
		c-0.845-0.439-0.964-1.212-0.959-2.054C1065.622,470.584,1065.644,465.222,1065.667,459.86z"/>
	<path style="fill:#A3CD7F;" d="M1066.554,507c-1.332-3.295-1.332-9.538,0-13C1066.554,498.333,1066.554,502.667,1066.554,507z"/>
	<path style="fill:#D02430;" d="M631.192,266.735c0.922,1.478,1.845,2.957,3.133,5.022c0.151-2.614,0.272-4.706,0.393-6.797
		c14.874-8.077,29.753-16.146,44.605-24.264c0.51-0.279,0.759-1.037,1.082-1.503c-1.522-3.608-2.391-4.105-5.403-2.764
		c-2.424,1.08-4.739,2.403-7.103,3.616c-11.063,5.677-22.127,11.354-33.191,17.031c0.001-20.043,0.002-40.085,0.003-60.128
		c3.43-2.672,5.774-6.345,8.673-9.505c3.804-4.148,7.333-8.547,11.014-12.809c1.376-1.593,1.871-3.186,0.108-4.754
		c-1.743-1.55-3.378-0.9-4.801,0.558c-1.156,1.185-2.22,2.459-3.333,3.687c-3.882,4.284-7.767,8.565-11.651,12.847
		c-0.12-11.146-0.715-22.301,0.499-33.425c1.288-11.802,8.305-18.793,19.084-22.583c3.311-1.164,6.701-2.038,10.229-2.048
		c12.149-0.036,24.298-0.014,36.848-0.014c0,42.173,0,84.236,0,126.519c2.005-0.723,2.361-2.273,3.069-3.487
		c18.256-31.288,45.408-49.925,81.017-55.592c45.795-7.289,92.755,16.822,113.831,57.935c7.058,13.768,11.043,28.445,11.469,44.038
		c0.196,7.163,0.015,14.257-1.256,21.826c-52.285,0-104.505,0-157.043,0c1.264,7.213,4.948,12.458,9.237,17.373
		c17.363,19.9,44.723,21.274,63.984,12.142c5.45-2.584,10.691-3.819,16.66-3.746c19.157,0.233,38.318,0.094,57.478,0.106
		c0.326,0,0.652,0.096,0.978,0.151c-9.237,25.808-37.852,53.504-77.116,61.56c-24.393,5.005-48.011,2.142-70.512-8.667
		c-22.463-10.79-39.368-27.416-51.453-50.574c0,7.388,0.009,13.577-0.003,19.766c-0.007,3.665-0.235,7.287-1.037,10.904
		c-2.731,12.317-10.541,19.859-22.921,21.801c-3.781,0.593-7.574,0.982-11.431,0.932c-8.829-0.115-17.66-0.036-26.49-0.036
		c-1.631,0-3.262,0-5.456,0c0-5.322,0-10.263,0-15.204c0-4.997,0-9.994,0-15.16c-2.003,0.248-2.054,2.08-2.641,3.198
		c-8.984,17.128-21.541,31.116-37.082,42.509c-0.517,0.379-1.178,0.562-1.771,0.837c-4.377-6.676-8.512-13.527-13.197-19.979
		c-4.75-6.541-8.25-13.642-11.026-21.149c-1.553-4.2-2.887-8.483-4.249-12.751c-0.318-0.996-1.455-2.01-0.258-3.139
		c1.065-0.138,1.934,0.366,2.868,0.702c13.87,4.995,26.535,12.241,38.651,20.542c3.122,2.139,6.172,4.458,9.686,5.668
		c4.122-2.779,4.295-3.976,0.965-6.73c-1.792-1.482-3.708-2.827-5.64-4.127c-11.8-7.938-22.755-16.819-31.538-28.132
		c-1.249-1.609-3.003-2.959-3.286-5.169c0.59-0.257,0.886-0.484,1.195-0.502c1.328-0.077,2.66-0.14,3.99-0.124
		c16.887,0.205,33.332,3.293,49.662,7.36c10.952,2.727,22.002,5.072,33.048,7.402c2.078,0.438,4.833,1.491,6.053-1.627
		c0.789-2.017-0.7-3.306-4.8-4.327c-14.659-3.652-29.289-7.429-43.992-10.897c-14.536-3.429-27.778-9.656-40.434-17.536
		c1.168-1.754,2.909-1.981,4.418-2.541c8.272-3.073,16.807-5.24,25.449-6.912c18.608-3.6,37.49-5.326,56.24-7.956
		c16.618-2.33,33.295-4.237,49.941-6.365c3.624-0.463,7.233-1.047,10.84-1.631c1.871-0.303,3.121-1.406,2.937-3.377
		c-0.184-1.971-1.573-2.804-3.508-2.736c-0.832,0.029-1.67,0.012-2.495,0.109c-6.107,0.722-12.215,1.441-18.317,2.212
		c-14.67,1.854-29.33,3.786-44.006,5.59c-12.371,1.52-24.789,2.691-37.132,4.408c-12.274,1.708-24.533,1.907-36.789,0.433
		c-3.42-0.411-7.143-0.249-10.578-2.429c7.313-6.727,14.575-13.037,22.702-18.3C610.224,277.594,620.828,272.381,631.192,266.735z
		 M756.719,276.239c29.783,0,59.47,0,89.176,0c-6.102-14.369-24.991-26.236-44.968-26.047
		C779.875,250.392,760.398,264.582,756.719,276.239z"/>
	<path style="fill:#D02430;" d="M348.679,141.953c3.685-0.199,6.774,1.484,9.876,3.127c0.199,1.882-0.492,3.882,0.609,5.613
		c1.403,0.327,2.661,0.569,3.799-0.098c0.808-0.897,0.506-1.937,0.69-2.868c1.471,0.104,3.101-0.395,4.202,1.111
		c-1.519,0.74-1.621,1.709-0.56,2.909c1.441-0.042,1.982-0.965,2.38-2.05c2.386,1.271,5.095,2.008,6.935,4.185
		c-0.38,1.417-2.102,0.806-2.761,1.822c-0.29,1.274,1.356,2.405,0.27,3.748c-2.164,1.507-4.944,1.219-7.409,2.153
		c0.843,2.805,1.221,5.284,0.152,7.953c-1.052,2.627,0.393,4.316,2.634,5.228c1.036-0.35,1.217-1.003,1.458-1.61
		c2.453,1.82,4.52,4.016,6.309,6.483c-1.209,0.48-2.394,0.983-2.536,3.059c1.742,1.205,3.431,2.539,5.193-0.417
		c1.744,1.368,3.468,2.755,4.639,4.689c0.433,1.571-1.749,1.898-1.623,3.513c1.686,0.781,3.103,0.823,3.985-1.198
		c2.126,1.651,4.09,3.462,5.638,5.685c0.433,1.571-1.748,1.898-1.623,3.513c1.686,0.781,3.103,0.823,3.985-1.198
		c2.126,1.651,4.09,3.462,5.638,5.685c0.433,1.571-1.748,1.898-1.623,3.513c1.686,0.781,3.102,0.823,3.985-1.198
		c1.466,0.975,2.67,2.209,3.634,3.68c-0.049,2.254-0.102,4.509,1.875,5.82c1.37,0.389,2.088-0.463,2.983-0.744
		c1.604,0.84,2.702,2.188,3.673,3.663c-0.578,0.285-1.259,0.467-1.32,1.641c1.899,2.328,3.611,5.258,7.638,4.68
		c0.839,0.28,1.281,0.959,1.681,1.679c-0.578,0.285-1.259,0.467-1.319,1.642c1.899,2.327,3.611,5.258,7.638,4.68
		c0.839,0.28,1.281,0.959,1.681,1.679c-0.578,0.285-1.259,0.467-1.319,1.642c1.9,2.327,3.611,5.259,7.64,4.679
		c0.77,0.217,1.147,0.77,1.299,1.517c-0.058,1.281-0.416,2.581,0.207,3.815c1.407,1.339,3.071,1.79,4.941,1.609
		c13.365,11.175,22.886,25.222,30.732,40.612c-1.731,0.976-3.246,0.503-4.647,0.195c-6.969-1.532-13.899-3.203-20.712-5.372
		c-14.285-4.549-27.828-10.899-41.551-16.821c-6.98-3.012-13.785-6.478-20.773-8.629c-1.945,0.71-2.828,1.821-3.148,3.388
		c0.408,2.665,2.693,3.187,4.614,4.057c12.26,5.555,24.56,11.021,36.794,16.631c13.656,6.262,26.581,13.744,38.095,23.488
		c1.041,0.881,2.358,1.613,2.759,3.219c-8.901,1.875-17.609,3.081-26.437,3.377c-18.148,0.608-36.244-0.339-54.326-1.753
		c-1.989-0.156-4.04-0.288-5.485,1.547c-0.259,4.366,0.013,4.821,3.862,5.114c12.926,0.985,25.856,1.916,38.786,2.845
		c13.306,0.956,26.373,3.193,39.068,7.353c1.144,0.375,2.699,0.389,3.316,2.159c-4.184,3.556-9.156,5.887-13.986,8.356
		c-14.251,7.287-29.373,12.358-44.6,17.152c-18.68,5.881-37.314,11.91-55.985,17.819c-2.138,0.676-4.211,1.195-4.504,4.106
		c0.549,1.491,1.441,2.795,3.399,3.126c0.426-0.075,0.933-0.104,1.401-0.255c16.582-5.361,33.162-10.731,49.738-16.112
		c1.414-0.459,2.779-1.157,4.328-0.617c-8.129,8.935-17.732,16.016-28.153,21.981c-18.347,10.501-38.119,16.139-59.253,17.278
		c-9.66,0.521-19.307,0.306-28.959,0.334c-27.485,0.079-54.971,0.04-82.456,0.009c-1.619-0.002-3.32,0.445-5.034-0.542
		c0-88.336,0-176.727,0-265.01c1.383-0.969,2.758-0.592,4.05-0.593c36.314-0.023,72.628-0.024,108.942,0.001
		c1.286,0.001,2.671-0.435,3.855,0.496c0.054,1.304-0.289,2.653,0.706,4.335c1.807,0.34,2.912,2.259,4.171,3.592
		c2.776,0.294,3.793-2.206,5.583-2.862c5.659,1.274,7.458,1.32,11.806,0.339c1.049,0.673,1.159,2.492,2.752,2.414
		c1.261-0.318,0.579-1.915,1.706-2.253C345.696,142.169,347.194,141.994,348.679,141.953z M268.462,201.232
		c0,45.062,0,89.76,0,134.756c12.959,0,25.594,0.152,38.223-0.059c7.14-0.12,14.275-0.831,21.256-2.514
		c29.005-6.994,58.778-39.562,47.792-81.685c-9.277-35.57-41.826-51.7-66.098-50.631c-9.473,0.417-18.981,0.069-28.472,0.073
		C277.027,201.174,272.885,200.693,268.462,201.232z"/>
	<path style="fill:#F8E521;" d="M415.085,217.726c-0.971-1.475-2.069-2.823-3.673-3.663c-1.333-1.966-2.985-3.627-4.858-5.077
		c-0.964-1.471-2.168-2.705-3.634-3.68c-0.571-0.993-1.269-1.855-2.362-2.315c-1.548-2.223-3.512-4.034-5.638-5.685
		c-0.571-0.992-1.269-1.855-2.362-2.315c-1.548-2.223-3.512-4.034-5.638-5.685c-0.571-0.992-1.269-1.855-2.362-2.315
		c-1.171-1.934-2.895-3.321-4.639-4.689c-0.64-1.128-1.51-2.025-2.657-2.642c-1.789-2.467-3.856-4.663-6.309-6.483
		c-1.267-1.754-2.592-3.499-0.818-5.767c2.179-1.344,3.89-0.55,5.592,1.13c2.323,2.293,4.379,4.876,7.098,6.755
		c0.574,0.568,1.148,1.137,1.722,1.705c1.752,2.439,3.884,4.497,6.278,6.295c0.574,0.568,1.148,1.137,1.722,1.705
		c1.751,2.439,3.884,4.497,6.278,6.295c0.574,0.569,1.148,1.137,1.721,1.706c0.389,0.527,0.72,1.114,1.177,1.574
		c11.855,11.931,23.719,23.852,35.596,35.761c0.678,0.68,1.217,1.62,2.37,1.638l-0.113-0.114c-0.041,0.749,0.464,1.204,0.924,1.67
		c12.279,12.447,25.134,24.236,39.632,34.089c2.974,2.021,5.678,4.596,9.347,5.461c0.109,0.45,0.241,0.841,0.736,0.28
		c-0.189-0.15-0.379-0.299-0.568-0.449c0.407-4.689-0.833-9.203-1.615-13.74c-2.862-16.624-9.272-32.035-16.477-47.156
		c1.766-1.396,3.89-1.909,6.009-2.435c1.4,1.693,1.983,3.797,2.85,5.75c4.306,9.701,8.76,19.325,14.067,28.534
		c4.28,7.427,9.496,14.173,14.491,21.125c1.09-0.868,1.236-1.687,1.477-2.484c4.959-16.429,5.791-33.282,5.162-50.281
		c-0.134-3.632,0.159-7.302-0.81-10.874c2.291-0.478,4.596-0.449,6.906-0.178c0.358,25.521,4.726,57.128,9.409,62.524
		c13.862-16.649,21.964-36.174,27.974-56.727c2.333,0.39,4.668,0.77,6.708,2.098c-0.499,1.583-0.947,3.184-1.504,4.746
		c-4.461,12.516-8.752,25.085-11.258,38.174c-1.232,6.436-1.784,12.952-2.419,20.003c11.398-7.557,21.874-15.21,30.812-24.715
		c6.04-6.422,11.719-13.184,17.559-19.793c1.984,1.096,3.459,2.754,4.907,4.442c-8.958,10.876-18.34,21.42-26.096,33.239
		c-3.865,5.89-7.351,11.985-10.262,18.807c1.142,0,1.811,0.121,2.421-0.018c7.257-1.654,14.602-2.961,21.655-5.434
		c12.884-4.516,24.678-11.281,36.625-17.73c1.364,1.794,2.388,3.757,2.952,5.948c-10.364,5.645-20.969,10.859-30.897,17.287
		c-8.127,5.263-15.389,11.573-22.702,18.3c3.435,2.18,7.158,2.018,10.578,2.429c12.256,1.475,24.515,1.275,36.789-0.433
		c12.343-1.718,24.76-2.888,37.132-4.408c14.676-1.804,29.336-3.736,44.006-5.59c6.101-0.771,12.209-1.49,18.317-2.212
		c0.824-0.098,1.663-0.08,2.495-0.109c1.935-0.068,3.324,0.766,3.508,2.736c0.184,1.971-1.066,3.074-2.937,3.377
		c-3.607,0.584-7.216,1.167-10.84,1.631c-16.646,2.128-33.324,4.035-49.941,6.365c-18.75,2.629-37.632,4.356-56.24,7.956
		c-8.643,1.672-17.178,3.839-25.449,6.912c-1.508,0.56-3.249,0.788-4.418,2.541c12.656,7.88,25.898,14.108,40.434,17.536
		c14.703,3.468,29.333,7.245,43.992,10.897c4.1,1.021,5.589,2.31,4.8,4.327c-1.22,3.118-3.976,2.065-6.053,1.627
		c-11.046-2.329-22.096-4.674-33.048-7.402c-16.33-4.067-32.775-7.155-49.662-7.36c-1.33-0.016-2.662,0.047-3.99,0.124
		c-0.308,0.018-0.604,0.246-1.195,0.502c0.283,2.21,2.037,3.561,3.286,5.169c8.783,11.313,19.737,20.195,31.538,28.132
		c1.932,1.3,3.848,2.645,5.64,4.127c3.33,2.754,3.157,3.952-0.965,6.73c-3.514-1.209-6.564-3.529-9.686-5.668
		c-12.116-8.301-24.781-15.547-38.651-20.542c-0.934-0.336-1.803-0.84-2.868-0.702c-1.198,1.129-0.06,2.143,0.258,3.139
		c1.362,4.268,2.695,8.551,4.249,12.751c2.776,7.507,6.276,14.608,11.026,21.149c4.685,6.452,8.821,13.303,13.197,19.979
		c-1.355,1.801-3.377,2.646-5.271,3.674c-0.77-1.08-1.562-2.145-2.305-3.242c-9.616-14.19-19.902-27.831-32.387-39.678
		c-2.255-2.14-4.519-4.272-6.911-6.533c-3.354,22.152,1.285,42.989,6.662,63.746c1.741,11.837,5.166,23.299,7.763,34.946
		c-2.251,0.001-4.502,0.003-6.753,0.004c-0.382-1.772-0.698-3.561-1.156-5.313c-2.423-9.26-4.073-18.715-7.018-27.844
		c0.027-3.377-1.232-6.5-1.98-9.715c-3.464-14.886-7.42-29.615-14.679-43.214c-1.282-2.403-2.62-4.776-4.2-7.653
		c-9.924,19.999-14.546,40.568-16.896,61.759c-0.785,5.061-1.519,10.13-2.37,15.179c-0.785,4.657-2.746,5.311-6.644,2.258
		c-0.47-1.937,0.034-3.869,0.241-5.834c0.449-4.267,1.695-8.439,1.534-12.776c0.341-1.452,0.778-2.889,1.007-4.358
		c1.643-10.499,2.85-21.057,3.621-31.649c0.666-9.144,0.446-18.297-0.941-27.902c-2.244,2.139-4.048,3.828-5.819,5.55
		c-13.861,13.481-24.327,29.374-33.037,46.513c-1.355,1.056-1.957,2.642-2.776,4.056c-5.812,10.027-11.556,20.094-17.386,30.111
		c-1.05,1.804-1.722,4.048-4.217,4.657c-1.788-0.184-3.046-1.045-3.597-3.177c0.225-1.433,1.155-2.816,1.941-4.249
		c2.866-5.227,5.757-10.439,8.625-15.665c3.026-5.512,6.776-10.618,9.205-16.464c0.473-0.948,0.947-1.897,1.42-2.845
		c2.017-1.623,2.856-4.053,4.129-6.165c8.95-14.842,16.697-30.234,21.231-47.074c0.447-1.659,0.997-3.274,0.981-5.026
		c-21.042,7.417-38.524,19.948-54.995,34.098c-1.413-1.72-3.279-3.063-4.275-5.13c17.313-12.712,33.209-26.875,46.803-45.169
		c-8.274,0.534-15.406,0.664-22.449,1.52c-13.226,1.607-25.962,5.402-38.598,9.51c-1.403,0.456-2.92,0.664-3.986,1.846
		c-0.638,0.125-1.275,0.251-1.913,0.376c-0.521,0.089-1.247-0.043-0.974,0.903l0.065-0.093c-1.55-0.54-2.914,0.158-4.328,0.617
		c-16.576,5.381-33.156,10.75-49.738,16.112c-0.468,0.151-0.975,0.18-1.401,0.255c-1.958-0.331-2.85-1.635-3.399-3.126
		c0.293-2.912,2.367-3.43,4.504-4.106c18.672-5.908,37.305-11.938,55.985-17.819c15.228-4.794,30.349-9.865,44.6-17.152
		c4.83-2.47,9.802-4.8,13.986-8.356c-0.617-1.77-2.172-1.784-3.316-2.159c-12.696-4.159-25.763-6.396-39.068-7.353
		c-12.93-0.929-25.86-1.86-38.786-2.845c-3.849-0.293-4.121-0.749-3.862-5.114c1.446-1.834,3.496-1.702,5.485-1.547
		c18.083,1.414,36.178,2.361,54.326,1.753c8.829-0.296,17.536-1.502,26.437-3.377c-0.401-1.606-1.718-2.338-2.759-3.219
		c-11.515-9.745-24.439-17.227-38.095-23.488c-12.234-5.61-24.534-11.076-36.794-16.631c-1.921-0.87-4.206-1.393-4.614-4.057
		c0.32-1.566,1.203-2.678,3.148-3.388c6.988,2.15,13.792,5.617,20.773,8.629c13.724,5.922,27.267,12.272,41.551,16.821
		c6.813,2.169,13.743,3.84,20.712,5.372c1.401,0.308,2.915,0.781,4.647-0.195c-7.846-15.39-17.367-29.436-30.732-40.612
		c-1.33-2.174-3.293-3.748-5.148-5.424c-0.152-0.747-0.529-1.3-1.299-1.517c-1.742-2.471-3.9-4.528-6.32-6.321
		c-0.4-0.72-0.842-1.398-1.681-1.679c-1.741-2.473-3.899-4.528-6.319-6.321c-0.4-0.72-0.842-1.398-1.681-1.679
		C419.663,221.575,417.505,219.519,415.085,217.726z M522.707,285.856c-17.552-0.472-35.675,12.934-35.605,34.596
		c0.066,20.582,15.781,35.006,35.302,35.089c21.518,0.091,35.272-17.657,35.412-35.014
		C557.962,302.294,542.029,285.565,522.707,285.856z"/>
	<path style="fill:#2D367C;" d="M560.445,470.947c-2.597-11.646-6.022-23.109-7.763-34.946c8.023-2.016,15.788-4.777,23.384-8.042
		c2.412-1.037,4.522-2.804,7.268-3.04c2.221,0.09,4.443,0.18,6.664,0.27c3.303,4.715,6.515,9.498,9.939,14.124
		c2.511,3.392,4.478,2.936,6.626-1.466c-2.189-4.497-6.109-7.998-8.388-12.566c1.497-0.049,2.994-0.142,4.491-0.142
		c97.491-0.006,194.982-0.005,292.473-0.004c1.493,0,2.986,0,4.424,0c1.086,3.701,1.439,34.826,0.562,45.386
		c-1.062,1.125-2.478,0.638-3.735,0.639c-110.823,0.024-221.647,0.023-332.47,0.013
		C562.762,471.173,561.603,471.026,560.445,470.947z"/>
	<path style="fill:#2D367C;" d="M500.523,437.799c0.161,4.338-1.085,8.509-1.534,12.776c-0.207,1.965-0.71,3.897-0.241,5.834
		c3.898,3.053,5.859,2.398,6.644-2.258c0.851-5.049,1.585-10.119,2.37-15.179c4.311,0.289,8.617,0.698,12.933,0.843
		c8.344,0.281,16.573-1.032,24.823-2.02c2.945,9.128,4.595,18.584,7.018,27.844c0.458,1.752,0.774,3.541,1.156,5.313
		c-1.659,0.078-3.318,0.225-4.976,0.225c-114.48,0.01-228.959,0.009-343.439,0.009c-1.795,0-3.59,0-5.64,0
		c0-15.451,0-30.509,0-45.464c1.403-0.957,2.775-0.565,4.061-0.565c83.652-0.021,167.304-0.019,250.956-0.015
		c0.832,0,1.665,0.053,2.497,0.082c-2.428,5.846-6.179,10.952-9.205,16.464c-2.868,5.225-5.759,10.438-8.625,15.665
		c-0.786,1.433-1.716,2.816-1.941,4.249c0.551,2.132,1.809,2.993,3.597,3.177c2.495-0.609,3.167-2.852,4.217-4.657
		c5.829-10.017,11.574-20.083,17.386-30.111c0.819-1.413,1.422-2.999,2.776-4.056C476.436,431.806,488.278,435.401,500.523,437.799z
		"/>
	<path style="fill:#D02730;" d="M429.916,398.209c16.471-14.15,33.953-26.681,54.995-34.098c0.016,1.752-0.534,3.366-0.981,5.026
		c-4.534,16.841-12.281,32.232-21.231,47.074c-1.274,2.112-2.113,4.542-4.129,6.165
		C447.632,415.964,438.014,407.987,429.916,398.209z"/>
	<path style="fill:#D02730;" d="M598.989,227.481c-5.84,6.61-11.52,13.371-17.559,19.793c-8.938,9.505-19.414,17.158-30.812,24.715
		c0.635-7.052,1.187-13.568,2.419-20.003c2.506-13.089,6.797-25.658,11.258-38.174c0.557-1.562,1.005-3.163,1.504-4.746
		c9.381,2.574,17.707,7.322,25.747,12.617C594.169,223.411,596.822,225.146,598.989,227.481z"/>
	<path style="fill:#D02730;" d="M559.091,206.967c-6.01,20.553-14.112,40.078-27.974,56.727c-4.682-5.397-9.05-37.004-9.409-62.524
		C534.54,200.707,547.005,202.615,559.091,206.967z"/>
	<path style="fill:#D02730;" d="M628.24,260.787c-11.948,6.449-23.741,13.213-36.625,17.73c-7.053,2.472-14.398,3.78-21.655,5.434
		c-0.61,0.139-1.279,0.018-2.421,0.018c2.911-6.822,6.396-12.917,10.262-18.807c7.755-11.818,17.137-22.363,26.096-33.239
		C614.056,239.82,621.8,249.754,628.24,260.787z"/>
	<path style="fill:#D02730;" d="M407.412,360.786c1.066-1.182,2.583-1.39,3.986-1.846c12.636-4.108,25.372-7.903,38.598-9.51
		c7.043-0.856,14.174-0.986,22.449-1.52c-13.594,18.294-29.49,32.456-46.803,45.169c-6.362-6.739-10.284-14.973-14.177-23.216
		C410.049,366.867,408.759,363.813,407.412,360.786z"/>
	<path style="fill:#D02730;" d="M514.802,201.348c0.969,3.572,0.675,7.241,0.81,10.874c0.629,16.999-0.202,33.852-5.162,50.281
		c-0.241,0.797-0.386,1.616-1.477,2.484c-4.995-6.952-10.212-13.698-14.491-21.125c-5.307-9.209-9.76-18.833-14.067-28.534
		c-0.867-1.953-1.45-4.058-2.85-5.75C489.478,204.572,501.968,202.182,514.802,201.348z"/>
	<path style="fill:#D02730;" d="M489.482,273.078c-3.67-0.865-6.374-3.441-9.347-5.461c-14.498-9.853-27.353-21.642-39.632-34.089
		c-0.46-0.466-0.965-0.92-0.924-1.67c1.784-0.468,3.042-1.731,4.426-2.84c8.483-6.799,17.266-13.123,27.552-17.005
		c7.205,15.121,13.615,30.532,16.477,47.156c0.781,4.537,2.022,9.051,1.615,13.74L489.482,273.078z"/>
	<path style="fill:#D02730;" d="M583.334,424.919c-2.746,0.236-4.856,2.003-7.268,3.04c-7.596,3.266-15.361,6.026-23.384,8.042
		c-5.377-20.757-10.016-41.594-6.662-63.746c2.393,2.261,4.656,4.393,6.911,6.533c12.485,11.847,22.771,25.489,32.387,39.678
		c0.744,1.098,1.536,2.162,2.305,3.242C586.193,422.779,584.763,423.849,583.334,424.919z"/>
	<path style="fill:#D02730;" d="M439.691,231.972c-1.153-0.018-1.692-0.958-2.37-1.638c-11.877-11.908-23.742-23.83-35.596-35.761
		c-0.457-0.46-0.787-1.046-1.177-1.574c2.073-1.729,3.489,1.699,5.268,0.762c2.035-1.072,4.243-0.428,6.071-0.943
		c2.331-1.604,4.039-3.316,3.795-6.186c3.496,4.03,6.221,8.596,9.234,12.971c4.957,7.198,8.402,15.094,11.535,23.122
		c0.933,2.391,2.535,4.452,3.092,6.98C439.71,230.464,440.384,231.166,439.691,231.972z"/>
	<path style="fill:#D02430;" d="M415.682,186.633c0.244,2.871-1.464,4.582-3.795,6.186c-1.827,0.515-4.036-0.129-6.071,0.943
		c-1.779,0.937-3.195-2.492-5.268-0.762c-0.574-0.569-1.148-1.137-1.721-1.706c1.716-0.585,3.664,0.199,5.302-0.838
		c1.355-3.115-1.416-3.896-2.518-5.259c-1.638-0.379-2.715,0.063-3.741,0.626c-1.608,0.882-2.063-1.38-3.383-1.201
		c-0.651,0.088-1.292,0.25-1.937,0.378c-0.574-0.568-1.148-1.137-1.722-1.705c1.716-0.585,3.664,0.199,5.395-0.898
		c1.155-2.998-1.431-3.88-2.783-5.416c-2.495,0.131-4.82,1.754-7.004-0.313c-0.276-0.262-1.24,0.203-1.886,0.332
		c-0.574-0.568-1.148-1.137-1.722-1.705c1.698-0.547,3.593,0.1,5.286-0.752c1.143-2.245-0.551-5.063,1.606-7.064
		c1.945-0.956,4.142-0.205,6.212-0.615c1.117,1.849,3.665,1.997,4.694,3.951c0.024,0.898-0.277,1.842,0.372,2.671
		c0.754,0.734,1.725,0.418,2.612,0.514c1,0.908,2.596,1.118,3.079,2.631c-0.049,1.612-0.436,3.242,0.172,4.702
		c1.519,1.616,2.933,1.345,4.338,0.073C412.05,183.699,414.554,184.575,415.682,186.633z"/>
	<path style="fill:#F7E222;" d="M634.71,257.077c11.064-5.677,22.127-11.353,33.191-17.031c2.364-1.213,4.679-2.536,7.103-3.616
		c3.011-1.342,3.88-0.845,5.403,2.764c-0.323,0.466-0.572,1.224-1.082,1.503c-14.852,8.117-29.731,16.187-44.605,24.264
		C634.716,262.332,634.713,259.705,634.71,257.077z"/>
	<path style="fill:#D02730;" d="M395.931,166.863c-2.07,0.41-4.267-0.341-6.212,0.615c-2.157,2.002-0.463,4.819-1.606,7.064
		c-1.693,0.853-3.588,0.206-5.286,0.752c-2.719-1.879-4.775-4.462-7.098-6.755c-1.702-1.68-3.413-2.474-5.592-1.13
		c-1.775,2.268-0.449,4.013,0.818,5.767c-0.24,0.607-0.421,1.259-1.458,1.61c-2.24-0.912-3.686-2.601-2.634-5.228
		c1.069-2.669,0.691-5.148-0.152-7.953c2.464-0.935,5.244-0.646,7.409-2.153c1.085-1.343-0.56-2.474-0.27-3.748
		c0.659-1.016,2.381-0.405,2.761-1.822c2.865,0.278,4.82,2.434,7.048,3.807C387.988,160.358,391.866,163.763,395.931,166.863z"/>
	<path style="fill:#3D4184;" d="M913.864,397.079c-0.228,7.844-6.446,13.531-14.458,13.224c-7.436-0.285-13.678-6.757-13.493-13.991
		c0.188-7.355,7.019-13.479,14.754-13.227C908.279,383.333,914.085,389.489,913.864,397.079z M900.168,407.324
		c6.02-0.069,10.754-4.821,10.72-10.76c-0.033-5.798-5.06-10.625-10.976-10.541c-6.008,0.085-10.815,4.936-10.697,10.794
		C889.334,402.785,894.139,407.393,900.168,407.324z"/>
	<path style="fill:#F7E222;" d="M634.724,186.972c3.884-4.282,7.769-8.563,11.651-12.847c1.112-1.228,2.177-2.502,3.333-3.687
		c1.423-1.458,3.058-2.108,4.801-0.558c1.763,1.568,1.267,3.161-0.108,4.754c-3.681,4.262-7.21,8.662-11.014,12.809
		c-2.899,3.161-5.243,6.833-8.673,9.505C634.717,193.623,634.72,190.297,634.724,186.972z"/>
	<path style="fill:#EFDE33;" d="M598.175,425.281c2.28,4.568,6.2,8.069,8.388,12.566c-2.148,4.402-4.115,4.858-6.626,1.466
		c-3.424-4.626-6.636-9.408-9.939-14.124C592.727,424.92,595.454,424.771,598.175,425.281z"/>
	<path style="fill:#D02730;" d="M348.679,141.953c-1.484,0.04-2.983,0.215-4.373-0.463c-1.127,0.338-0.445,1.935-1.706,2.253
		c-1.593,0.078-1.703-1.741-2.752-2.414c-4.349,0.981-6.148,0.935-11.806-0.339c-1.79,0.656-2.807,3.156-5.583,2.862
		c-1.259-1.333-2.364-3.252-4.171-3.592c-0.994-1.682-0.651-3.031-0.706-4.335c8.05-0.178,15.91,1.179,23.588,3.391
		C343.685,140.041,346.866,139.175,348.679,141.953z"/>
	<path style="fill:#D02730;" d="M363.653,147.727c-0.184,0.931,0.118,1.971-0.69,2.868c-1.138,0.667-2.396,0.425-3.799,0.098
		c-1.101-1.731-0.41-3.731-0.609-5.613C360.704,145.097,362.383,146.017,363.653,147.727z"/>
	<path style="fill:#D02730;" d="M411.197,181.406c-1.405,1.272-2.818,1.543-4.338-0.073c-0.608-1.46-0.221-3.09-0.172-4.702
		C408.611,177.825,409.905,179.614,411.197,181.406z"/>
	<path style="fill:#D02730;" d="M369.675,149.697c-0.398,1.085-0.939,2.008-2.38,2.05c-1.061-1.201-0.959-2.169,0.56-2.909
		C368.57,148.894,369.281,148.96,369.675,149.697z"/>
	<path style="fill:#D02730;" d="M403.609,174c-0.887-0.096-1.859,0.22-2.612-0.514c-0.648-0.829-0.347-1.773-0.372-2.671
		C401.82,171.688,403.245,172.347,403.609,174z"/>
	<path style="fill:#D02430;" d="M404.525,362.065c-0.274-0.946,0.453-0.814,0.974-0.903
		C405.424,361.733,405.043,361.973,404.525,362.065z"/>
	<path style="fill:#D02730;" d="M415.085,217.726c2.42,1.794,4.578,3.849,6.319,6.322c-4.028,0.578-5.739-2.352-7.638-4.68
		C413.826,218.193,414.507,218.01,415.085,217.726z"/>
	<path style="fill:#D02730;" d="M423.085,225.726c2.421,1.793,4.578,3.849,6.319,6.321c-4.028,0.578-5.739-2.352-7.638-4.68
		C421.826,226.193,422.506,226.011,423.085,225.726z"/>
	<path style="fill:#D02730;" d="M431.085,233.726c2.421,1.793,4.578,3.85,6.32,6.321c-4.029,0.58-5.74-2.352-7.64-4.679
		C429.826,234.193,430.506,234.011,431.085,233.726z"/>
	<path style="fill:#D02730;" d="M406.554,208.986c1.873,1.449,3.525,3.11,4.858,5.077c-0.895,0.28-1.613,1.132-2.983,0.744
		C406.452,213.495,406.505,211.24,406.554,208.986z"/>
	<path style="fill:#D02730;" d="M377.262,179.66c1.147,0.618,2.017,1.515,2.657,2.642c-1.762,2.956-3.45,1.622-5.193,0.417
		C374.868,180.643,376.054,180.14,377.262,179.66z"/>
	<path style="fill:#D02730;" d="M438.704,241.564c1.855,1.676,3.818,3.25,5.148,5.424c-1.87,0.18-3.534-0.27-4.941-1.609
		C438.288,244.145,438.646,242.845,438.704,241.564z"/>
	<path style="fill:#D02730;" d="M400.558,202.991c1.093,0.46,1.791,1.323,2.362,2.315c-0.882,2.021-2.299,1.979-3.985,1.198
		C398.81,204.889,400.991,204.562,400.558,202.991z"/>
	<path style="fill:#D02730;" d="M392.558,194.991c1.093,0.46,1.791,1.323,2.362,2.315c-0.882,2.021-2.299,1.979-3.985,1.198
		C390.809,196.889,392.991,196.562,392.558,194.991z"/>
	<path style="fill:#D02730;" d="M384.558,186.991c1.093,0.46,1.791,1.323,2.362,2.315c-0.882,2.021-2.299,1.979-3.985,1.198
		C382.809,188.889,384.991,188.562,384.558,186.991z"/>
	<path style="fill:#D02730;" d="M545.518,437.794c-8.249,0.988-16.479,2.301-24.823,2.02c-4.315-0.145-8.622-0.554-12.933-0.843
		c2.35-21.191,6.972-41.76,16.896-61.759c1.581,2.876,2.918,5.25,4.2,7.653c7.258,13.6,11.215,28.329,14.679,43.214
		C544.286,431.295,545.545,434.418,545.518,437.794z"/>
	<path style="fill:#D02730;" d="M500.523,437.799c-12.245-2.398-24.087-5.993-35.168-11.846c8.71-17.14,19.177-33.033,33.037-46.513
		c1.771-1.722,3.574-3.411,5.819-5.55c1.388,9.606,1.608,18.758,0.941,27.902c-0.772,10.592-1.979,21.15-3.621,31.649
		C501.301,434.91,500.864,436.347,500.523,437.799z"/>
	<path style="fill:#D02730;" d="M384.548,177c0.645-0.128,1.609-0.593,1.886-0.332c2.185,2.067,4.51,0.444,7.004,0.313
		c1.352,1.536,3.938,2.418,2.783,5.416c-1.731,1.097-3.679,0.312-5.395,0.898C388.432,181.497,386.3,179.438,384.548,177z"/>
	<path style="fill:#D02730;" d="M392.549,185c0.645-0.128,1.286-0.29,1.937-0.378c1.321-0.178,1.775,2.083,3.383,1.201
		c1.026-0.563,2.102-1.004,3.741-0.626c1.102,1.363,3.873,2.144,2.518,5.259c-1.638,1.038-3.586,0.253-5.302,0.838
		C396.432,189.497,394.3,187.438,392.549,185z"/>
	<path style="fill:#D02730;" d="M489.649,272.909c0.189,0.15,0.379,0.299,0.568,0.449c-0.494,0.561-0.626,0.171-0.736-0.28
		L489.649,272.909z"/>
	<path style="fill:#3D4184;" d="M903.116,397.996c1.074,1.963,1.845,3.372,2.656,4.853c-3.094,0.622-3.094,0.622-6.861-4.828
		c-1.377,1.536-0.106,3.607-1.185,5.003c-0.848,0.8-1.724,0.727-2.822-0.153c0-4.047,0-8.25,0-12.448
		c1.795-0.739,3.454-0.426,5.064-0.409c2.156,0.022,4.471,0.043,5.481,2.47C906.416,394.808,905.256,396.557,903.116,397.996z"/>
</g>
</svg>
