<?xml version="1.0" encoding="iso-8859-1"?>
<!-- Generator: Adobe Illustrator 27.0.0, SVG Export Plug-In . SVG Version: 6.00 Build 0)  -->
<svg version="1.1" id="Layer_1" xmlns="http://www.w3.org/2000/svg" xmlns:xlink="http://www.w3.org/1999/xlink" x="0px" y="0px"
	 viewBox="0 0 1372.027 1372.131" style="enable-background:new 0 0 1372.027 1372.131;" xml:space="preserve">
<g>
	<path style="fill:#C5C5C6;" d="M708.115,1371.255c-0.057,0.289-0.086,0.581-0.088,0.875c-15.333,0-30.667,0-46,0
		c0.009-0.299-0.014-0.596-0.069-0.891c13.35-0.063,26.7-0.126,40.05-0.188C704.043,1371.12,706.079,1371.188,708.115,1371.255z"/>
	<path style="fill:#C5C5C6;" d="M1372.027,706.131c-0.299,0.024-0.599,0.049-0.897,0.076c-0.068-2.7-0.136-5.401-0.204-8.101
		c0.064-11.012,0.128-22.023,0.193-33.035c0.302,0.026,0.605,0.046,0.908,0.06C1372.027,678.798,1372.027,692.464,1372.027,706.131z
		"/>
	<path style="fill:#707072;" d="M932.118,45.697c2.642,0.498,4.78,2.225,7.238,3.073c16.262,5.608,31.685,13.114,47.222,20.397
		c9.673,4.535,18.938,9.827,28.304,14.896c27.889,15.094,54.66,32.011,80.02,51.099c6.601,4.968,12.94,10.265,19.366,15.449
		c4.531,3.654,8.983,7.453,13.599,11.027c3.708,2.871,7.141,6.285,10.765,9.255c5.23,4.287,9.349,9.768,15.051,13.482
		c0.824,0.537,1.5,1.313,2.204,2.019c10.933,10.967,22.147,21.67,32.729,32.966c25.753,27.491,49.058,56.976,69.581,88.568
		c16.594,25.545,32.072,51.752,45.26,79.279c7.774,16.226,14.433,32.911,21.445,49.454c0.376,0.886,0.337,1.948,0.491,2.929
		c-0.305,0.57-0.487,1.256-1.446,1.378c-1.734-0.525-2.715-2.171-3.971-3.424c-20.864-20.815-41.697-41.661-62.534-62.502
		c-1.877-1.877-3.659-3.905-6.647-3.863c-2.922-3.407-4.601-7.572-6.871-11.373c-9.562-16.007-19.756-31.58-30.408-46.893
		c-12.941-18.602-27.156-36.174-41.842-53.366c-8.402-9.836-17.512-19.072-26.404-28.483c-3.988-4.221-8.248-8.166-12.672-11.957
		c-4.91-4.207-9.34-8.945-14.167-13.28c-9.118-8.189-18.513-16.017-27.956-23.815c-12.356-10.203-25.291-19.627-38.439-28.736
		c-16.166-11.2-32.771-21.749-50.021-31.238c-0.028-0.983,0.19-2.009-0.51-2.873c-1.555-1.923-2.875-4.002-4.659-5.779
		c-20.658-20.566-41.252-41.196-61.868-61.804C933.337,49.945,931.369,48.487,932.118,45.697z"/>
	<path style="fill:#707072;" d="M411.009,1314.215c-8.348-2.741-16.07-6.909-23.937-10.707
		c-40.959-19.778-79.534-43.482-115.769-70.968c-19.908-15.101-38.901-31.288-57.063-48.463
		c-39.972-37.8-74.865-79.811-104.773-125.969c-22.605-34.886-41.797-71.57-57.763-109.949c-0.391-0.94-0.734-1.842-0.785-2.851
		c0.369-0.888,0.87-1.256,1.905-0.824c2.069,0.863,3.515,2.456,5.04,3.982c23.212,23.217,46.423,46.434,69.649,69.637
		c1.487,1.485,2.714,3.521,5.346,3.013c3.011,4.758,5.982,9.542,9.04,14.27c17.58,27.178,36.956,53.033,58.419,77.24
		c11.112,12.533,22.443,24.898,34.731,36.385c11.53,10.779,23.013,21.581,35.065,31.779c13.295,11.25,27.209,21.689,41.228,32.003
		c4.247,3.125,8.974,5.587,12.8,9.288c-0.927,0.379-1.376,1.01-0.656,1.875c0.848,1.019,1.814,1.942,2.753,2.881
		c26.925,26.93,53.852,53.859,80.784,80.783C408.899,1309.494,410.894,1311.282,411.009,1314.215z"/>
	<path style="fill:#DBDCDD;" d="M135.993,276.102c0.234-2.917,2.723-4.486,4.252-6.497c6.581-8.652,13.43-17.106,20.391-25.459
		c5.078-6.094,10.519-11.885,15.732-17.868c11.703-13.429,24.585-25.717,37.308-38.137c8.508-8.305,17.361-16.272,26.53-23.903
		c9.634-8.019,19.339-15.948,29.105-23.801c2.417-1.943,4.742-4.119,7.693-5.333c8.698,9.914,18.606,18.647,27.596,28.277
		c-4.224,3.267-8.456,6.523-12.671,9.801c-16.397,12.753-32.335,26.047-47.454,40.305c-14.141,13.335-27.805,27.134-40.738,41.65
		c-9.31,10.45-18.316,21.151-26.959,32.162c-4.218,5.373-8.952,10.342-12.623,16.144c-5.314-5.211-10.586-10.466-15.957-15.618
		C144.126,283.92,140.551,279.497,135.993,276.102z"/>
	<path style="fill:#78797B;" d="M411.009,1314.215c-0.115-2.932-2.11-4.721-3.986-6.596c-26.932-26.924-53.859-53.853-80.784-80.783
		c-0.94-0.94-1.906-1.863-2.753-2.881c-0.72-0.865-0.27-1.495,0.656-1.875c0.926,0.678,1.816,1.413,2.784,2.027
		c13.621,8.635,27.368,17.048,41.297,25.195c14.868,8.696,30.472,15.878,45.802,23.615c7.123,3.595,14.685,6.379,22.135,9.337
		c12.906,5.124,25.818,10.213,38.919,14.822c3.367,1.184,7.129,1.427,9.972,3.948c-0.634,2.615,1.297,3.921,2.798,5.423
		c13.747,13.759,27.501,27.51,41.257,41.26c1.875,1.874,3.886,3.659,3.88,6.63c-6.807-0.402-13.212-2.731-19.719-4.403
		c-21.828-5.608-43.343-12.335-64.538-19.977c-12.065-4.35-23.805-9.604-35.682-14.474
		C412.313,1315.181,411.39,1315.112,411.009,1314.215z"/>
	<path style="fill:#818283;" d="M737.03,2.153c6.367,0.456,12.721,0.887,19.066,1.783c4.382,0.619,8.887,0.542,13.35,1.046
		c9.857,1.113,19.637,2.693,29.424,4.231c7.308,1.149,14.599,2.451,21.843,3.95c10.16,2.102,20.423,3.79,30.322,7.03
		c0.142,2.945,2.227,4.674,4.093,6.54c14.677,14.677,29.357,29.351,44.026,44.035c1.495,1.497,3.454,2.777,2.868,5.393
		c-0.642-0.136-1.306-0.206-1.922-0.418c-12.399-4.257-24.954-8.006-37.524-11.726c-13.878-4.107-27.929-7.5-42.075-10.471
		c-9.647-2.027-19.323-3.954-29.074-5.499c-5.152-0.817-10.443-0.974-15.442-2.699c0.357-2.253-1.488-3.212-2.724-4.454
		c-10.809-10.864-21.652-21.692-32.497-32.52C738.993,6.605,737.178,4.886,737.03,2.153z"/>
	<path style="fill:#78797B;" d="M132.858,1021.113c-2.632,0.508-3.859-1.528-5.346-3.013c-23.226-23.203-46.437-46.42-69.649-69.637
		c-1.525-1.525-2.971-3.118-5.04-3.982c-1.035-0.432-1.536-0.064-1.905,0.824c-4.593-8.57-7.453-17.848-10.74-26.928
		c-8.575-23.686-15.746-47.806-21.63-72.308c-0.391-1.629-0.402-3.279-0.819-4.878c2.474-0.403,3.477,1.664,4.82,3.001
		c14.847,14.782,29.641,29.618,44.481,44.407c1.257,1.253,2.27,2.861,4.168,3.536c0.352-0.449,0.64-0.815,0.927-1.181
		c3.628,7.573,5.787,15.698,8.819,23.5c7.513,19.335,15.391,38.511,24.405,57.195
		C113.558,988.664,123.027,1004.993,132.858,1021.113z"/>
	<path style="fill:#9E9FA0;" d="M5.159,600.151c0.803-6.032,1.489-12.082,2.435-18.091c1.381-8.772,2.871-17.529,4.458-26.267
		c1.673-9.214,3.664-18.365,5.957-27.448c2.609-10.334,4.829-20.77,8.046-30.946c0.247-0.781,0.644-1.513,0.971-2.269
		c2.198-0.16,3.12,1.674,4.359,2.902c7.88,7.807,15.692,15.683,23.565,23.497c1.127,1.119,1.984,2.77,3.985,2.589
		c0.479,1.493,0.144,2.952-0.193,4.408c-3.176,13.724-6.869,27.306-9.016,41.292c-2.507,16.33-5.244,32.607-6.961,49.055
		c-0.461,4.412-0.192,8.965-1.618,13.274c-2.208,0.204-3.166-1.604-4.413-2.842c-8.492-8.432-16.942-16.906-25.4-25.373
		C9.576,602.173,7.902,600.294,5.159,600.151z"/>
	<path style="fill:#78797B;" d="M1250.795,371.18c2.989-0.042,4.771,1.986,6.647,3.863c20.837,20.841,41.67,41.687,62.534,62.502
		c1.256,1.253,2.238,2.899,3.971,3.424c0.958-0.122,1.141-0.808,1.446-1.378c2.991,3.889,3.961,8.669,5.587,13.121
		c8.603,23.57,15.65,47.62,21.664,71.974c0.274,1.11,0.25,2.294,0.365,3.443c-2.212,0.157-3.135-1.694-4.377-2.93
		c-15.101-15.043-30.16-30.128-45.239-45.192c-1.502-1.5-2.79-3.456-5.41-2.881c-0.901-1.59-1.493-3.296-2.109-5.017
		c-2.785-7.773-5.589-15.543-8.604-23.229c-9.023-22.999-19.591-45.288-30.99-67.197
		C1254.457,378.18,1251.801,375.107,1250.795,371.18z"/>
	<path style="fill:#78797B;" d="M902.021,76.162c0.586-2.616-1.372-3.897-2.868-5.393c-14.669-14.684-29.349-29.358-44.026-44.035
		c-1.866-1.866-3.951-3.595-4.093-6.54c23.133,5.552,45.965,12.107,68.242,20.51c4.298,1.621,8.729,2.897,12.841,4.994
		c-0.749,2.79,1.218,4.249,2.859,5.889c20.617,20.607,41.211,41.237,61.868,61.804c1.785,1.777,3.104,3.856,4.659,5.779
		c0.699,0.865,0.482,1.891,0.51,2.873c-6.049-3.304-12.055-6.69-18.158-9.893c-10.678-5.604-21.483-10.973-32.521-15.824
		c-10.566-4.643-21.113-9.345-31.981-13.285C913.513,80.922,907.795,78.465,902.021,76.162z"/>
	<path style="fill:#9E9FA0;" d="M495.909,26.93c8.814-3.603,18.109-5.572,27.321-7.711c13.893-3.227,27.822-6.398,41.869-8.819
		c7.582-1.307,15.131-3.326,22.934-3.229c-0.527,2.372,1.146,3.618,2.548,5.018c8.675,8.665,17.344,17.336,26.01,26.009
		c1.269,1.27,2.866,2.376,2.414,4.561c-8.632,1.124-17.266,2.234-25.896,3.374c-14.406,1.903-28.686,4.53-42.895,7.549
		c-8.702,1.849-17.378,3.82-26.066,5.736c0.112-2.147-1.55-3.199-2.811-4.465c-7.624-7.655-15.254-15.304-22.926-22.91
		C496.953,30.594,495.631,29.181,495.909,26.93z"/>
	<path style="fill:#818283;" d="M1297.984,477.126c2.62-0.576,3.908,1.38,5.41,2.881c15.079,15.065,30.138,30.15,45.239,45.192
		c1.241,1.236,2.164,3.087,4.377,2.93c2.129,5.048,2.849,10.475,3.929,15.766c2.536,12.42,5.021,24.872,6.822,37.413
		c1.384,9.632,3.28,19.249,3.323,29.031c0.009,2.022,1.507,3.731,0.801,5.773c-2.197,0.11-3.085-1.76-4.319-2.986
		c-11.76-11.687-23.466-23.429-35.197-35.146c-1.497-1.496-2.789-3.43-5.394-2.856c-1.585-4.199-2.018-8.666-2.839-13.021
		c-3.337-17.686-7.452-35.185-12.376-52.487C1304.663,498.74,1301.253,487.953,1297.984,477.126z"/>
	<path style="fill:#818283;" d="M72.125,890.956c-0.287,0.366-0.575,0.732-0.927,1.181c-1.898-0.674-2.91-2.283-4.168-3.536
		c-14.84-14.789-29.634-29.625-44.481-44.407c-1.343-1.337-2.347-3.404-4.82-3.001c-2.723-7.943-3.829-16.267-5.55-24.433
		c-2.037-9.662-3.74-19.42-4.995-29.213c-1.343-10.477-3.223-20.907-3.549-31.503c2.428-0.332,3.938,1.079,5.508,2.66
		c11.427,11.503,22.895,22.966,34.395,34.397c1.339,1.331,2.345,3.38,4.805,2.97c0.189,0.262,0.501,0.505,0.548,0.79
		c1.977,12.208,4.703,24.265,7.243,36.36c2.064,9.829,4.938,19.455,7.226,29.233C65.619,872.11,69.151,881.468,72.125,890.956z"/>
	<path style="fill:#818283;" d="M532.984,1354.336c0.007-2.971-2.005-4.756-3.88-6.63c-13.756-13.75-27.51-27.501-41.257-41.26
		c-1.502-1.503-3.432-2.808-2.798-5.423c0.959,0.177,1.908,0.19,2.889,0.502c7.918,2.52,15.842,4.987,23.907,7.057
		c18.664,4.789,37.342,9.433,56.328,12.821c3.639,0.65,7.668,0.376,10.868,2.884c-0.092,2.192,1.773,3.082,3.001,4.318
		c11.458,11.531,22.964,23.015,34.468,34.502c1.412,1.41,3.036,2.682,2.518,5.042c-8.596-0.159-17.064-1.518-25.55-2.721
		c-7.824-1.109-15.692-1.969-23.468-3.349C557.595,1359.875,545.093,1358.029,532.984,1354.336z"/>
	<path style="fill:#949496;" d="M619.006,42.757c0.452-2.185-1.145-3.291-2.414-4.561c-8.667-8.673-17.336-17.344-26.01-26.009
		c-1.402-1.4-3.076-2.645-2.548-5.018c2.791-1.907,6.154-1.157,9.195-1.697c7.304-1.296,14.805-1.43,22.175-2.419
		c5.91-0.793,11.915-0.47,17.768-1.735c0.323-0.07,0.663-0.083,0.995-0.079c12.637,0.123,25.217-1.895,37.874-1.02
		c-0.136,2.203,1.728,3.101,2.955,4.338c9.463,9.538,18.974,19.028,28.486,28.518c1.898,1.894,3.723,3.795,3.524,6.767
		c-4.488,0.749-8.885-0.556-13.349-0.58c-18.365-0.099-36.692,0.526-55.023,1.744C634.752,41.531,626.894,42.349,619.006,42.757z"/>
	<path style="fill:#8A8B8D;" d="M619.029,1368.147c0.518-2.36-1.106-3.631-2.518-5.042c-11.503-11.487-23.009-22.97-34.468-34.502
		c-1.228-1.236-3.093-2.126-3.001-4.318c1.638-0.258,3.193-0.113,4.868,0.197c5.577,1.033,11.202,2.107,16.848,2.388
		c5.308,0.264,10.587,0.88,15.804,1.559c9.359,1.217,18.768,1.647,28.144,2.478c7.412,0.657,14.914,0.236,22.326,1.257
		c-0.155,2.201,1.691,3.114,2.919,4.35c9.803,9.873,19.657,19.696,29.496,29.534c1.393,1.393,3.112,2.616,2.562,5.003
		c-13.35,0.063-26.7,0.126-40.05,0.189c-9.458,0.378-18.853-0.87-28.271-1.335C628.836,1369.666,623.762,1369.923,619.029,1368.147z
		"/>
	<path style="fill:#8A8B8D;" d="M1322.974,575.125c2.605-0.574,3.896,1.36,5.394,2.856c11.731,11.716,23.437,23.458,35.197,35.146
		c1.234,1.226,2.123,3.096,4.319,2.986c2.03,16.257,3.058,32.579,3.234,48.959c-0.064,11.012-0.128,22.023-0.193,33.035
		c-2.208,0.149-3.098-1.726-4.332-2.95c-9.884-9.807-19.718-19.665-29.553-29.521c-1.411-1.414-2.69-3.021-5.043-2.507
		c-0.983-4.06-0.872-8.207-0.974-12.337c-0.069-2.816,0.009-5.646-0.241-8.446c-0.852-9.521-1.74-19.041-2.771-28.544
		c-0.763-7.035-1.756-14.045-2.674-21.063C1324.569,586.863,1323.763,580.995,1322.974,575.125z"/>
	<path style="fill:#8A8B8D;" d="M48.343,796.071c-2.46,0.41-3.466-1.639-4.805-2.97c-11.5-11.431-22.968-22.893-34.395-34.397
		c-1.57-1.581-3.08-2.992-5.508-2.66c-0.523-3.753-1.412-7.497-1.492-11.259c-0.167-7.799-0.811-15.586-1.405-23.329
		c-1.108-14.456-0.418-28.889-0.731-43.327c-0.036-1.659,0.08-3.322,0.126-4.983c2.197-0.131,3.09,1.732,4.323,2.955
		c9.516,9.439,18.983,18.928,28.449,28.417c1.885,1.889,3.764,3.73,6.719,3.592c0.665,11.891,1.111,23.795,2.354,35.649
		c0.81,7.725,1.222,15.501,2.326,23.18c0.499,3.471,0.239,6.992,0.896,10.343C46.424,783.523,47.21,789.824,48.343,796.071z"/>
	<path style="fill:#949496;" d="M39.624,708.11c-2.954,0.139-4.834-1.702-6.719-3.592c-9.466-9.489-18.933-18.978-28.449-28.417
		c-1.233-1.223-2.127-3.086-4.323-2.955c-0.03-7.27-0.251-14.507,0.642-21.795c0.779-6.362,0.489-12.844,1.113-19.281
		c0.92-9.494,1.508-19.017,3.027-28.448c0.184-1.141,0.168-2.313,0.245-3.471c2.743,0.143,4.417,2.022,6.174,3.781
		c8.458,8.466,16.908,16.94,25.4,25.373c1.247,1.238,2.206,3.046,4.413,2.842c-0.01,5.635-0.667,11.248-0.848,16.854
		c-0.525,16.24-1.585,32.471-1.189,48.742C39.194,701.211,40.435,704.614,39.624,708.11z"/>
	<path style="fill:#B9BABB;" d="M371.042,76.179c18.649-9.604,37.542-18.674,57.154-26.176c2.596-0.993,4.806-3.021,7.814-2.909
		c-0.163,2.188,1.649,3.123,2.876,4.362c7.206,7.276,14.453,14.511,21.716,21.73c1.43,1.421,2.899,2.759,2.465,5.058
		c-11.764,4.922-23.583,9.718-35.275,14.805c-10.332,4.495-20.523,9.315-30.776,13.992c0.529-2.394-1.198-3.619-2.596-5.017
		c-6.94-6.938-13.877-13.88-20.819-20.815C372.199,79.808,370.494,78.569,371.042,76.179z"/>
	<path style="fill:#B9BABB;" d="M47.098,435.149c4.532-11.858,9.593-23.485,14.84-35.047c4.103-9.043,8.62-17.867,13.026-26.753
		c0.571-1.153,0.82-2.529,2.033-3.294c2.257,2.105,4.561,4.163,6.762,6.324c7.496,7.358,14.955,14.752,22.429,22.133
		c-0.817,1.98-1.524,4.014-2.468,5.931c-9.254,18.808-17.321,38.125-24.854,57.673c-2.115,0.428-3.324-0.95-4.618-2.25
		c-6.986-7.016-14.001-14.005-20.993-21.015C51.506,437.098,49.811,435.284,47.098,435.149z"/>
	<path style="fill:#ADAEAF;" d="M47.098,435.149c2.714,0.135,4.408,1.949,6.156,3.702c6.993,7.01,14.007,13.998,20.993,21.015
		c1.295,1.3,2.503,2.678,4.618,2.25c-0.107,0.475-0.166,0.967-0.328,1.422c-5.893,16.455-11.276,33.073-16.035,49.894
		c-1.022,3.61-1.306,7.485-3.566,10.687c-2.002,0.181-2.858-1.47-3.985-2.589c-7.873-7.815-15.685-15.69-23.565-23.497
		c-1.239-1.228-2.162-3.062-4.359-2.902c0.31-3.963,1.818-7.611,2.964-11.358C35.018,467.327,40.736,451.125,47.098,435.149z"/>
	<path style="fill:#ADAEAF;" d="M463.068,78.245c0.433-2.3-1.036-3.637-2.465-5.058c-7.262-7.22-14.51-14.455-21.716-21.73
		c-1.227-1.239-3.039-2.174-2.876-4.362c5.218-3.157,11.158-4.585,16.783-6.683c12.888-4.807,25.958-9.141,39.217-12.865
		c1.307-0.367,2.611-0.35,3.898-0.616c-0.278,2.251,1.044,3.664,2.504,5.111c7.673,7.606,15.302,15.256,22.926,22.91
		c1.261,1.266,2.923,2.318,2.811,4.465c-0.401,0.641-1.079,0.625-1.716,0.793c-15.703,4.132-31.216,8.893-46.616,14.036
		C471.594,75.655,467.582,77.756,463.068,78.245z"/>
	<path style="fill:#8A8B8D;" d="M711.005,39.843c0.2-2.972-1.626-4.873-3.524-6.767c-9.511-9.49-19.023-18.979-28.486-28.518
		c-1.227-1.237-3.091-2.135-2.955-4.338c12.441-0.001,24.897-0.36,37.317,0.148c6.267,0.257,12.543,0.689,18.825,0.805
		c1.706,0.032,3.221,0.715,4.848,0.98c0.148,2.732,1.963,4.452,3.734,6.22c10.844,10.828,21.688,21.657,32.497,32.52
		c1.236,1.242,3.081,2.201,2.724,4.454c-2.148-0.118-4.319-0.072-6.439-0.38c-13.533-1.966-27.143-3.035-40.774-4.064
		C722.849,40.457,716.906,40.5,711.005,39.843z"/>
	<path style="fill:#D0D1D2;" d="M135.993,276.102c4.559,3.396,8.134,7.818,12.204,11.723c5.371,5.152,10.643,10.407,15.957,15.618
		c-0.158,1.243-1.124,2.004-1.792,2.926c-7.007,9.684-13.743,19.553-20.262,29.571c-3.068,4.715-6.12,9.439-9.179,14.16
		c-2.194,0.148-3.063-1.728-4.311-2.928c-8.28-7.963-16.005-16.492-24.614-24.12c0.197-1.885,1.334-3.277,2.318-4.813
		c8.584-13.398,17.869-26.317,26.835-39.454C133.898,277.687,134.718,276.65,135.993,276.102z"/>
	<path style="fill:#C5C5C6;" d="M371.042,76.179c-0.548,2.39,1.157,3.629,2.56,5.031c6.942,6.936,13.879,13.877,20.819,20.815
		c1.398,1.398,3.125,2.623,2.596,5.017c-4.155,2.639-8.71,4.49-13.088,6.694c-10.015,5.042-19.362,11.259-29.133,16.732
		c-1.852,1.037-3.464,2.587-5.734,2.764c-8.501-9.929-18.535-18.379-27.184-28.166c2.507-3.759,6.714-5.285,10.347-7.352
		C345.085,90.398,357.631,82.501,371.042,76.179z"/>
	<path style="fill:#C5C5C6;" d="M103.996,323.051c8.609,7.629,16.334,16.158,24.614,24.12c1.248,1.2,2.117,3.076,4.311,2.928
		c-2.143,4.834-5.292,9.095-7.809,13.716c-6.303,11.568-12.616,23.13-18.924,34.695c-7.473-7.381-14.933-14.775-22.429-22.133
		c-2.202-2.161-4.505-4.219-6.762-6.324c2.096-6.874,6.344-12.667,9.712-18.878c4.714-8.694,10.088-17.029,15.099-25.565
		C102.408,324.587,102.844,323.55,103.996,323.051z"/>
	<path style="fill:#D0D1D2;" d="M321.879,105.066c8.649,9.787,18.682,18.237,27.184,28.166c-2.636,1.749-5.29,3.473-7.906,5.252
		c-12.191,8.29-24.372,16.596-36.556,24.896c-8.99-9.629-18.898-18.362-27.596-28.277c3.937-3.754,8.678-6.41,13.03-9.599
		c9.182-6.727,18.794-12.808,28.202-19.196C319.412,105.51,320.498,104.999,321.879,105.066z"/>
	<path style="fill:#DBDCDD;" d="M1236.076,1094.176c-2.451,5.696-6.905,9.996-10.55,14.834c-5.441,7.221-11.311,14.122-17.07,21.1
		c-2.098,2.542-4.459,4.838-6.529,7.441c-3.593,4.518-7.643,8.693-11.693,12.823c-7.312,7.456-14.186,15.316-21.546,22.737
		c-9.923,10.006-20.573,19.21-31.018,28.613c-9.146,8.234-18.372,16.496-28.634,23.425c-0.165-2.5-1.681-4.21-3.349-5.87
		c-6.598-6.565-13.166-13.16-19.755-19.734c-1.168-1.165-2.224-2.506-3.98-2.861c1.391-1.182,2.749-2.407,4.179-3.541
		c34.636-27.456,66.153-58.117,94.666-91.889c9.64-11.418,18.519-23.425,27.761-35.15c0.446,1.896,1.961,2.998,3.221,4.271
		c3.939,3.977,7.851,7.981,11.882,11.864C1227.797,1086.221,1231.47,1090.685,1236.076,1094.176z"/>
	<path style="fill:#B9BABB;" d="M1012.229,1288.224c-1.802,2.265-4.395,3.445-6.852,4.698c-9.838,5.018-19.729,9.935-29.643,14.802
		c-4.409,2.165-9.12,3.609-13.569,5.753c-7.355,3.543-14.961,6.574-22.496,9.735c-4.687,1.966-9.42,3.829-14.179,5.615
		c-1.04,0.391-2.276,0.259-3.422,0.367c-0.613-1.63-2.062-2.555-3.211-3.712c-7.697-7.75-15.45-15.447-23.141-23.203
		c-1.117-1.127-2.778-1.963-2.671-3.948c3.459-1.527,7.054-2.76,10.601-3.99c25.115-8.708,49.311-19.514,73.073-31.356
		c2.215-1.104,4.255-2.608,6.751-3.105c1.729,0.439,2.663,1.9,3.824,3.04c3.539,3.475,7.052,6.98,10.529,10.517
		C1002.646,1278.346,1007.428,1283.294,1012.229,1288.224z"/>
	<path style="fill:#9E9FA0;" d="M873.999,1345.026c-8.236,2.646-16.516,5.151-24.951,7.073c-13.25,3.018-26.498,6.062-39.815,8.757
		c-7.231,1.464-14.594,2.294-21.917,3.267c-2.104,0.28-4.076,1.568-6.309,0.875c0.12-2.194-1.748-3.079-2.969-4.312
		c-8.377-8.46-16.813-16.863-25.237-25.276c-1.752-1.75-3.604-3.427-3.76-6.147c10.317-1.362,20.626-2.792,30.954-4.066
		c11.332-1.399,22.535-3.574,33.729-5.728c10.835-2.085,21.551-4.79,32.319-7.223c-0.526,2.592,0.79,4.288,2.548,6.015
		c7.671,7.531,15.248,15.158,22.818,22.79C872.524,1342.174,874.185,1343.021,873.999,1345.026z"/>
	<path style="fill:#ADAEAF;" d="M1351.024,851.13c0.363,3.887-1.215,7.457-2.207,11.025c-4.383,15.757-8.868,31.495-14.338,46.921
		c-2.736,7.716-5.672,15.36-8.517,23.037c-2.74-0.125-4.434-1.971-6.193-3.734c-7.159-7.173-14.312-14.354-21.515-21.483
		c-1.132-1.12-1.957-2.793-3.935-2.743c0.064-0.321,0.088-0.655,0.196-0.96c6.95-19.516,12.969-39.318,18.096-59.388
		c1.924-7.531,3.674-15.106,5.503-22.662c2.193-0.134,3.091,1.721,4.325,2.943c8.104,8.024,16.132,16.126,24.232,24.153
		C1347.907,849.464,1348.826,851.3,1351.024,851.13z"/>
	<path style="fill:#949496;" d="M1331.997,663.127c2.353-0.514,3.632,1.093,5.043,2.507c9.836,9.856,19.669,19.714,29.553,29.521
		c1.234,1.224,2.124,3.099,4.332,2.95c0.068,2.7,0.136,5.401,0.204,8.101c-0.323,24.12-2.45,48.087-6.103,71.924
		c-2.374,0.523-3.638-1.129-5.049-2.542c-8.581-8.597-17.171-17.186-25.767-25.768c-1.385-1.383-2.575-3.171-4.98-2.672
		c0.55-6.589,1.406-13.171,1.584-19.77c0.326-12.113,1.505-24.191,1.25-36.33C1331.87,681.745,1332.008,672.435,1331.997,663.127z"
		/>
	<path style="fill:#949496;" d="M749.04,1329.262c0.157,2.721,2.008,4.397,3.76,6.147c8.424,8.414,16.86,16.816,25.237,25.276
		c1.221,1.233,3.089,2.118,2.969,4.312c-6.992,0.984-13.981,1.992-20.977,2.941c-3.592,0.487-7.247,0.662-10.83,0.928
		c-5.756,0.427-11.505,1.126-17.283,1.444c-7.933,0.436-15.858,0.849-23.801,0.945c-2.036-0.068-4.072-0.136-6.107-0.204
		c0.55-2.387-1.169-3.61-2.562-5.003c-9.839-9.838-19.692-19.661-29.496-29.534c-1.228-1.236-3.074-2.15-2.919-4.351
		c0.497-0.035,0.994-0.103,1.49-0.099c19.098,0.143,38.195,0.241,57.266-1.051c1.483-0.1,2.956-0.351,4.439-0.457
		C736.497,1330.11,742.769,1329.691,749.04,1329.262z"/>
	<path style="fill:#B9BABB;" d="M1294.319,904.153c1.978-0.05,2.804,1.623,3.935,2.743c7.203,7.13,14.355,14.31,21.515,21.483
		c1.759,1.763,3.453,3.609,6.193,3.734c-8.915,23.638-19.385,46.576-31.014,68.993c-2.713-0.126-4.401-1.944-6.146-3.694
		c-7.09-7.112-14.192-14.211-21.233-21.26c-1.549,0-2.859,0-4.17,0C1274.941,952.683,1285.275,928.695,1294.319,904.153z"/>
	<path style="fill:#C5C5C6;" d="M1012.229,1288.224c-4.8-4.931-9.583-9.879-14.407-14.786c-3.477-3.538-6.99-7.042-10.529-10.517
		c-1.161-1.14-2.095-2.6-3.824-3.04c1.967-1.189,3.878-2.483,5.909-3.55c11.409-5.99,22.63-12.309,33.55-19.15
		c8.7-5.45,17.336-11.004,26-16.511c0.451,0.194,1.068,0.26,1.328,0.6c4.224,5.517,9.518,10.004,14.377,14.901
		c4.043,4.075,7.784,8.48,12.404,11.962c-1.218,2.801-4.065,3.923-6.281,5.44c-7.884,5.394-15.971,10.496-24.154,15.453
		c-6.047,3.663-12.024,7.464-18.101,11.086c-4.25,2.533-8.667,4.786-12.96,7.25
		C1014.472,1287.974,1013.409,1288.231,1012.229,1288.224z"/>
	<path style="fill:#9E9FA0;" d="M1329.231,747.149c2.405-0.499,3.594,1.289,4.98,2.672c8.596,8.582,17.186,17.171,25.767,25.768
		c1.411,1.413,2.675,3.065,5.049,2.542c0.238,6.503-1.536,12.746-2.542,19.08c-1.34,8.438-2.727,16.882-4.528,25.229
		c-2.075,9.614-3.5,19.399-6.933,28.689c-2.198,0.171-3.116-1.666-4.352-2.891c-8.101-8.028-16.128-16.129-24.232-24.153
		c-1.234-1.222-2.131-3.077-4.325-2.943c1.041-6.012,1.936-12.054,3.148-18.032C1325.014,784.61,1327.147,765.884,1329.231,747.149z
		"/>
	<path style="fill:#D0D1D2;" d="M1236.076,1094.176c-4.607-3.49-8.28-7.955-12.415-11.937c-4.031-3.882-7.943-7.887-11.882-11.864
		c-1.261-1.273-2.775-2.375-3.221-4.271c2.998-4.346,6.054-8.653,8.983-13.046c6.859-10.288,13.657-20.617,20.479-30.93
		c2.01,0.817,3.658,2.101,5.185,3.649c6.261,6.348,12.609,12.611,18.884,18.945c1.427,1.44,2.798,2.828,5.059,2.514
		c-0.181,1.448-0.034,2.849-0.937,4.272c-8.917,14.046-18.371,27.719-28.231,41.115
		C1237.51,1093.262,1236.718,1093.664,1236.076,1094.176z"/>
	<path style="fill:#C5C5C6;" d="M1267.149,1047.237c-2.261,0.314-3.632-1.073-5.059-2.514c-6.275-6.334-12.622-12.598-18.884-18.945
		c-1.527-1.548-3.175-2.832-5.185-3.649c8.721-15.181,17.246-30.47,25.376-45.977c1.311,0,2.622,0,4.17,0
		c7.042,7.048,14.143,14.148,21.233,21.26c1.745,1.75,3.433,3.568,6.146,3.694c-6.161,12.404-13.147,24.359-20.17,36.277
		c-1.721,2.921-3.633,5.853-5.674,8.64C1268.539,1046.793,1268,1047.15,1267.149,1047.237z"/>
	<path style="fill:#ADAEAF;" d="M873.999,1345.026c0.186-2.004-1.475-2.851-2.591-3.976c-7.571-7.632-15.147-15.26-22.818-22.79
		c-1.759-1.726-3.074-3.423-2.548-6.015c3.469-0.982,6.92-2.029,10.409-2.934c12.337-3.199,24.358-7.443,36.593-10.978
		c-0.106,1.985,1.554,2.822,2.671,3.948c7.692,7.756,15.444,15.452,23.141,23.203c1.149,1.157,2.597,2.082,3.211,3.712
		c-10.611,5.032-21.827,8.398-32.982,11.926c-4.04,1.278-8.141,2.362-12.183,3.633
		C875.915,1345.065,874.989,1345.165,873.999,1345.026z"/>
	<path style="fill:#D0D1D2;" d="M1077.036,1248.133c-4.619-3.482-8.36-7.888-12.404-11.962c-4.859-4.897-10.153-9.384-14.377-14.901
		c-0.26-0.34-0.877-0.406-1.328-0.6c11.008-7.996,22.017-15.992,33.025-23.987c1.756,0.355,2.812,1.696,3.98,2.861
		c6.589,6.573,13.157,13.169,19.755,19.734c1.668,1.66,3.184,3.37,3.349,5.87c-8.861,7.181-17.837,14.209-27.197,20.738
		C1080.344,1246.929,1078.941,1248.029,1077.036,1248.133z"/>
	<path style="fill:#242021;" d="M1081.953,1196.683c-11.008,7.996-22.017,15.992-33.025,23.987c-8.664,5.508-17.3,11.061-26,16.511
		c-10.92,6.841-22.141,13.16-33.55,19.15c-2.031,1.066-3.943,2.36-5.909,3.55c-2.496,0.498-4.537,2.001-6.751,3.105
		c-23.761,11.843-47.958,22.648-73.073,31.356c-3.546,1.23-7.142,2.463-10.601,3.99c-12.235,3.535-24.257,7.779-36.593,10.978
		c-3.489,0.905-6.94,1.952-10.409,2.934c-10.768,2.433-21.484,5.138-32.319,7.223c-11.194,2.154-22.397,4.329-33.729,5.728
		c-10.328,1.275-20.637,2.705-30.954,4.066c-6.271,0.429-12.543,0.849-18.813,1.296c-1.483,0.106-2.956,0.356-4.439,0.457
		c-19.071,1.292-38.168,1.194-57.266,1.051c-0.496-0.004-0.993,0.065-1.49,0.099c-7.412-1.021-14.914-0.6-22.326-1.257
		c-9.376-0.831-18.785-1.26-28.144-2.478c-5.217-0.678-10.497-1.294-15.804-1.559c-5.645-0.281-11.27-1.355-16.848-2.388
		c-1.675-0.31-3.23-0.455-4.868-0.197c-3.2-2.508-7.229-2.234-10.868-2.884c-18.986-3.389-37.664-8.033-56.328-12.821
		c-8.066-2.069-15.99-4.537-23.907-7.057c-0.981-0.312-1.93-0.325-2.889-0.502c-2.843-2.521-6.605-2.764-9.972-3.948
		c-13.101-4.609-26.013-9.698-38.919-14.822c-7.451-2.958-15.012-5.741-22.135-9.337c-15.33-7.737-30.934-14.919-45.802-23.615
		c-13.929-8.146-27.676-16.56-41.297-25.195c-0.967-0.613-1.858-1.348-2.784-2.027c-3.826-3.701-8.553-6.163-12.8-9.288
		c-14.019-10.314-27.934-20.753-41.228-32.003c-12.052-10.198-23.535-21.001-35.065-31.779
		c-12.287-11.487-23.619-23.852-34.731-36.385c-21.463-24.207-40.839-50.062-58.419-77.24c-3.058-4.728-6.029-9.512-9.04-14.27
		c-9.831-16.12-19.3-32.449-27.508-49.462c-9.015-18.684-16.892-37.86-24.405-57.195c-3.032-7.802-5.191-15.927-8.819-23.5
		c-2.974-9.489-6.507-18.847-8.766-28.502c-2.288-9.778-5.162-19.404-7.226-29.233c-2.54-12.095-5.266-24.152-7.243-36.36
		c-0.046-0.285-0.359-0.528-0.548-0.79c-1.133-6.247-1.919-12.548-3.143-18.788c-0.657-3.351-0.397-6.872-0.896-10.343
		c-1.104-7.679-1.516-15.456-2.326-23.18c-1.243-11.855-1.689-23.758-2.354-35.649c0.811-3.497-0.43-6.899-0.515-10.368
		c-0.396-16.271,0.664-32.502,1.189-48.742c0.181-5.606,0.838-11.219,0.848-16.854c1.427-4.309,1.157-8.861,1.618-13.274
		c1.717-16.447,4.454-32.725,6.961-49.055c2.147-13.986,5.841-27.567,9.016-41.292c0.337-1.456,0.673-2.915,0.193-4.408
		c2.261-3.202,2.545-7.077,3.566-10.687c4.76-16.821,10.142-33.439,16.035-49.894c0.163-0.455,0.221-0.947,0.328-1.422
		c7.532-19.548,15.6-38.866,24.854-57.673c0.944-1.918,1.651-3.952,2.468-5.931c6.309-11.565,12.622-23.127,18.924-34.695
		c2.518-4.621,5.666-8.883,7.809-13.716c3.059-4.72,6.112-9.445,9.179-14.16c6.519-10.018,13.255-19.887,20.262-29.571
		c0.668-0.923,1.634-1.684,1.792-2.926c3.67-5.802,8.405-10.771,12.623-16.144c8.643-11.01,17.649-21.712,26.959-32.162
		c12.933-14.516,26.597-28.315,40.738-41.65c15.12-14.258,31.057-27.552,47.454-40.305c4.215-3.278,8.447-6.535,12.671-9.801
		c12.184-8.3,24.365-16.605,36.556-24.896c2.616-1.779,5.27-3.503,7.906-5.252c2.269-0.177,3.882-1.727,5.734-2.764
		c9.771-5.473,19.118-11.69,29.133-16.732c4.377-2.204,8.933-4.055,13.088-6.694c10.253-4.677,20.444-9.496,30.776-13.992
		c11.692-5.087,23.511-9.883,35.275-14.805c4.514-0.49,8.526-2.59,12.75-4.001c15.4-5.143,30.913-9.904,46.616-14.036
		c0.637-0.168,1.316-0.151,1.716-0.793c8.688-1.916,17.364-3.887,26.066-5.736c14.209-3.019,28.489-5.646,42.895-7.549
		c8.63-1.14,17.264-2.25,25.896-3.374c7.888-0.408,15.746-1.226,23.627-1.75c18.331-1.218,36.658-1.843,55.023-1.744
		c4.464,0.024,8.861,1.328,13.349,0.58c5.901,0.657,11.845,0.614,17.767,1.061c13.631,1.029,27.241,2.098,40.774,4.064
		c2.12,0.308,4.292,0.262,6.439,0.38c4.999,1.725,10.29,1.882,15.442,2.699c9.752,1.546,19.427,3.473,29.074,5.499
		c14.146,2.972,28.197,6.364,42.075,10.471c12.569,3.72,25.124,7.469,37.524,11.726c0.616,0.211,1.28,0.282,1.922,0.418
		c5.774,2.304,11.492,4.761,17.333,6.878c10.868,3.94,21.415,8.642,31.981,13.285c11.038,4.851,21.843,10.219,32.521,15.824
		c6.102,3.203,12.108,6.589,18.158,9.893c17.25,9.489,33.855,20.038,50.021,31.238c13.148,9.109,26.083,18.533,38.439,28.736
		c9.443,7.798,18.838,15.626,27.956,23.815c4.827,4.335,9.257,9.072,14.167,13.28c4.424,3.791,8.684,7.736,12.672,11.957
		c8.892,9.411,18.001,18.647,26.404,28.483c14.686,17.192,28.9,34.764,41.842,53.366c10.653,15.312,20.847,30.886,30.408,46.893
		c2.27,3.801,3.949,7.966,6.871,11.373c1.006,3.927,3.661,7,5.484,10.503c11.399,21.909,21.968,44.199,30.99,67.197
		c3.015,7.686,5.819,15.456,8.604,23.229c0.617,1.721,1.208,3.427,2.109,5.017c3.269,10.827,6.68,21.614,9.775,32.49
		c4.924,17.302,9.04,34.8,12.376,52.487c0.822,4.355,1.255,8.823,2.839,13.021c0.789,5.87,1.595,11.739,2.363,17.612
		c0.917,7.018,1.91,14.028,2.674,21.063c1.031,9.503,1.919,19.023,2.771,28.544c0.25,2.8,0.172,5.63,0.241,8.446
		c0.102,4.13-0.009,8.277,0.974,12.337c0.01,9.308-0.128,18.618,0.068,27.922c0.255,12.138-0.924,24.217-1.25,36.33
		c-0.178,6.599-1.034,13.181-1.584,19.77c-2.083,18.736-4.217,37.461-7.968,55.963c-1.212,5.978-2.108,12.019-3.148,18.032
		c-1.829,7.555-3.579,15.131-5.503,22.662c-5.127,20.07-11.146,39.871-18.096,59.388c-0.108,0.305-0.133,0.639-0.196,0.96
		c-9.044,24.542-19.378,48.531-30.921,72c-8.131,15.507-16.655,30.796-25.376,45.977c-6.823,10.312-13.62,20.642-20.479,30.93
		c-2.928,4.392-5.985,8.7-8.983,13.046c-9.243,11.725-18.121,23.732-27.761,35.15c-28.513,33.772-60.03,64.433-94.666,91.889
		C1084.702,1194.276,1083.344,1195.501,1081.953,1196.683z M1219.978,597.372c-9.067-1.307-18.075-2.934-27.021-4.903
		c-3.503-0.952-7.005-1.907-10.51-2.854c-7.026-1.899-13.636-4.926-20.403-7.529c-4.759-2.97-9.754-5.579-13.941-9.407
		c-9.024-8.25-12.987-18.151-10.158-30.376c1.321-5.709,3.773-10.927,6.576-16.013c4.588-6.558,9.399-12.946,14.548-19.076
		c5.969-5.739,11.938-11.479,17.906-17.218c0.162-0.036,0.37-0.019,0.479-0.115c14.365-12.522,29.647-23.852,45.259-34.75
		c0.712-0.497,1.285-1.012,1.579-1.822c4.214-2.553,8.429-5.105,12.772-7.736c-2.795-6.265-5.289-12.367-8.2-18.263
		c-5.027-10.185-9.964-20.424-15.771-30.204c-0.062-0.324-0.047-0.691-0.199-0.966c-8.929-16.164-18.5-31.954-28.889-47.206
		c-21.136-31.029-44.897-59.937-71.324-86.627c-1.244-1.257-2.164-3.005-4.455-3.356c-4.314,3.342-8.75,6.778-13.185,10.214
		c-1.365,0.116-2.52,0.516-2.813,2.081l-0.103,0.085c-1.356-0.381-2.121,0.662-3.055,1.281
		c-11.013,7.307-22.187,14.348-33.728,20.805c-2.563,1.434-5.526,2.253-7.563,4.569c-8.255,3.701-16.51,7.401-24.764,11.102
		c-6.656,1.65-12.946,4.536-19.786,5.636c-2.73,0.439-5.628,0.05-8.203,1.4c-2.159-0.004-4.319,0.012-6.478-0.014
		c-16.896-0.206-27.408-9.212-31.711-24.283c-0.635-2.225-0.51-4.646-1.753-6.7c-0.043-1.973,0.154-3.985-0.169-5.911
		c-1.579-9.394-0.075-18.691,0.674-28.015c0.527-3.416,0.963-6.849,1.596-10.246c3.969-21.292,9.25-42.239,16.416-62.7
		c0.448-1.28,1.685-2.603,0.837-4.214c1.965-4.176,3.483-8.507,4.907-12.954c-1.167-0.736-1.972-1.303-2.829-1.776
		c-16.55-9.129-33.483-17.488-50.792-25.074c-10.747-4.711-21.612-9.14-32.712-12.969c-8.926-3.592-18.103-6.47-27.262-9.373
		c-9.147-2.9-18.312-5.783-27.728-7.737c-0.431-0.248-0.834-0.62-1.298-0.727c-17.424-3.999-34.761-8.418-52.52-10.781
		c-5.786-1.306-11.617-2.248-17.686-2.57c-1.242,5.165-3.215,9.743-3.866,14.689c-2.072,0.611-1.799,2.697-2.32,4.103
		c-4.196,11.332-7.858,22.86-12.891,33.879c-3.851,8.432-7.54,16.938-11.301,25.411c-6.196,10.666-12.63,21.176-20.281,30.886
		c-1.188,1.141-2.391,2.266-3.56,3.425c-4.149,4.115-8.692,7.709-14.057,10.095c-8.48,3.773-16.854,3.773-25.372-0.323
		c-6.889-3.313-12.144-8.545-17.643-13.556c-6.6-8.145-12.46-16.804-17.847-25.788c-0.28-0.773-0.441-1.619-0.859-2.308
		c-4.533-7.483-7.666-15.654-11.57-23.444c0.122-0.877-0.347-1.572-0.665-2.334c-4.5-10.79-8.954-21.591-12.555-32.736
		c-0.988-3.057-1.439-6.415-3.578-9.05c-0.06-0.276-0.147-0.544-0.262-0.802c0.259-0.887,0.178-1.674-0.659-2.238
		c-0.875-3.308-1.749-6.616-2.694-10.19c-37.61,5.148-74.067,13.564-109.711,25.497c-35.757,11.97-70.075,27.157-103.047,45.686
		c1.578,4.016,2.964,7.546,4.351,11.076c-0.171,0.604,0.033,1.036,0.598,1.301c0.205,0.538,0.41,1.077,0.615,1.615
		c-0.351,1.457-0.291,2.754,1.341,3.438c0.341,0.903,0.681,1.805,1.022,2.708c-0.783,0.443-0.487,1.076-0.303,1.695
		c2.387,8.036,4.89,16.04,7.123,24.119c2.224,8.046,4.175,16.167,6.246,24.255c0.93,6.296,1.704,12.621,2.857,18.876
		c0.558,3.028-0.306,6.242,1.279,9.104c0.015,8.666,0.387,17.341-0.7,25.978c-0.762,2.868-1.359,5.792-2.316,8.593
		c-3.846,11.257-11.045,18.829-23.083,21.487c-5.282,1.166-10.503,0.651-15.758,0.789c-6.566-1.508-13.207-2.609-19.703-4.552
		c-2.46-0.736-4.543-2.693-7.297-2.446c-10.002-4.551-20.152-8.787-29.828-14.03c-0.333-0.351-0.604-0.813-1.007-1.037
		c-12.826-7.12-25.291-14.821-37.367-23.15c-0.854-0.589-1.742-0.913-2.78-0.733c-4.792-3.759-9.585-7.519-14.693-11.526
		c-54.462,54.328-97.304,116.351-128.107,186.971c5.21,3.145,9.893,5.971,14.576,8.797c0.409,1.663,1.6,2.045,3.113,1.9
		l-0.007-0.004c-0.044,1.23,0.959,1.595,1.742,2.185c9.14,6.878,18.411,13.577,27.414,20.644
		c6.518,5.116,12.444,10.906,18.957,16.011c9.035,9.242,18.002,18.542,25.362,29.236c2.691,4.555,5.266,9.15,6.874,14.245
		c3.601,11.414,2.301,21.768-5.956,30.948c-3.597,4-7.902,6.985-12.296,9.926c-7.805,4.049-15.971,7.245-24.226,10.226
		c-8.251,1.906-16.502,3.813-24.754,5.719c-1.144,0.07-2.3,0.053-3.428,0.224c-5.359,0.816-10.683,2.035-16.071,2.457
		c-10.344,0.812-20.634,2.412-31.045,2.33c-1.177-0.009-2.361-0.008-2.848,1.4c-3.461,0.013-6.921,0.026-10.382,0.039
		c-1.041-0.855-2.182-0.738-3.353-0.349c-1.302-0.02-2.603-0.04-3.905-0.061c-1.277-0.153-2.587-0.618-3.902,0.448
		c-0.437,3.706-0.803,7.497-1.343,11.264c-2.223,15.48-3.204,31.06-3.837,46.669c-0.175,4.323-0.055,8.662-0.358,12.974
		c-0.737,10.482-0.586,20.938,0.421,31.39c-0.198,7.481,0.268,14.923,0.723,22.396c1.142,18.749,3.377,37.356,6.366,55.872
		c1.341,8.304,2.465,16.674,4.714,24.816c-0.144,2.373,0.733,4.568,1.22,6.825c6.048,28.002,14.097,55.432,24.194,82.227
		c4.186,11.107,8.075,22.38,13.772,32.871c-0.143,1.083,0.542,1.889,0.938,2.789c9.366,21.32,20.214,41.877,32.151,61.854
		c23.13,38.707,50.29,74.37,81.42,106.992c27.311,28.622,57.137,54.328,89.512,77.084c13.744,9.66,27.833,18.757,42.502,27.36
		c3.842-7.713,7.249-15.355,10.451-23.092c0.289-0.404,0.651-0.774,0.855-1.217c7.743-16.754,15.476-33.513,23.192-50.279
		c0.613-1.333,1.499-2.619,1.125-4.226c0.317-0.357,0.741-0.663,0.936-1.077c7.07-15.011,14.177-30.005,21.142-45.065
		c2.761-5.97,5.924-11.766,8.056-18.02c1.016-2.019,2.089-4.011,3.039-6.06c6.539-14.104,13.063-28.216,19.558-42.341
		c0.682-1.483,1.581-2.951,1.279-4.719c0.789-0.172,0.857-0.881,1.131-1.463c3.514-7.453,7.106-14.87,10.548-22.356
		c3.146-6.842,6.134-13.757,9.141-20.525c-0.937-1.537-2.124-2.463-3.357-3.282c-7.164-4.758-13.763-10.248-20.549-15.507
		c-3.388-2.626-5.909-6.311-9.954-8.096c-7.484-7.555-14.972-15.106-22.449-22.668c-2.194-2.219-4.507-4.342-6.5-6.731
		c-3.579-4.29-7.049-8.68-10.399-13.152c-5.437-7.256-11.366-14.166-15.798-22.14c0.61-1.458,1.907-1.035,3.011-1.07
		c6.619-0.209,13.118,1.268,19.548,2.271c9.127,1.424,18.333,2.131,27.433,2.481c19.555,0.752,39.169,0.596,58.732-0.762
		c0.332-0.023,0.676,0.019,0.995-0.053c7.211-1.628,14.638-1.551,21.912-2.837c5.623-0.994,11.274-1.894,16.918-2.807
		c5.337-0.863,10.524-2.452,15.849-3.207c4.354-0.618,6.977-3.023,8.431-6.736c7.474-19.095,14.811-38.244,22.196-57.374
		c5.347-13.827,10.738-27.638,15.994-41.499c0.796-2.098,2.478-3.966,2.052-6.465c1.401-1.671,2.061-3.725,2.817-5.702
		c2.973-7.779,5.87-15.587,8.821-23.451c17.349,0,34.321,0,51.292,0c15.668,0.027,31.335,0.053,47.003,0.08
		c11.324,0.02,22.649,0.183,33.97,0.019c10.911-0.158,20.956,3.25,31.25,6.814c2.376-0.433,4.139-2.272,5.665-4.197
		c2.866-3.615,5.911-7.106,8.657-10.791c7.367-9.884,14.714-19.795,21.276-30.253c6.305-10.048,12.545-20.133,17.855-30.757
		c3.919-7.843,7.935-15.64,11.687-23.563c2.743-5.792,5.398-11.655,7.612-17.663c4.079-11.067,8.474-22.031,11.54-33.456
		c2.077-7.738,4.619-15.361,6.449-23.153c2.202-9.375,3.969-18.856,5.73-28.328c0.986-5.307,1.828-10.667,2.267-16.041
		c0.335-4.101,0.644-8.308,1.382-12.24c1.106-5.889,1.117-11.857,1.418-17.659c0.816-15.778,0.547-31.634,0.117-47.442
		c-0.129-4.734-0.885-9.508-0.828-14.298c0.013-1.108-0.366-2.401,1.096-2.997c1.711,1.263,3.5,2.434,5.118,3.807
		c5.266,4.469,10.423,9.065,15.706,13.513c7.495,6.309,14.204,13.369,20.769,20.63c3.99,4.413,7.402,9.367,11.987,13.24
		c3.833,5.163,7.536,10.43,11.542,15.454c2.984,3.742,4.862,8.285,8.508,11.522c0.537,1.778,1.633,3.24,2.609,4.785
		c9.49,15.019,17.936,30.587,25.205,46.818c2.154,4.81,3.574,9.945,6.347,14.478c0.004,1.193,0.519,2.229,0.898,3.332
		c2.15,6.258,4.177,12.557,6.27,18.835c3.35,10.05,5.403,20.439,8.074,30.667c2.114,12.669,4.262,25.327,5.535,38.127
		c0.32,3.218-0.45,6.615,1.028,9.791c16.54,0,32.954,0,49.368,0c1.654,0.113,3.309,0.325,4.963,0.324
		c56.994-0.035,113.987-0.089,170.981-0.15c1.329-0.001,2.657-0.108,3.986-0.166c10.036,0.761,30.074,0.426,33.731-0.614
		c-1.006-21.075-2.339-42.153-5.845-63.344c-3.489,0.184-6.611,0.348-9.733,0.513c-0.505-0.442-0.96-0.343-1.382,0.127
		c-2.808-0.014-5.616-0.027-8.424-0.041c-0.515-1.402-1.713-1.359-2.887-1.362C1245.569,600.31,1232.799,598.519,1219.978,597.372z
		 M557.525,924.615c0.668,0.056,1.121,0.128,1.574,0.128c45.807,0.005,91.614,0.103,137.421-0.063
		c12.152-0.044,24.17-1.651,35.809-5.517c10.062-3.343,19.437-7.884,27.039-15.419c11.171-11.074,18.869-24.383,24.572-38.946
		c3.466-8.85,4.98-17.827,3.174-27.329c-1.471-7.741-5.99-13.178-12.64-14.257c-1.337-0.217-2.703-0.261-4.055-0.385
		c1.879-0.305,3.517-1.176,5.245-1.679c12.628-3.683,22.165-10.978,27.336-23.446c3.553-8.568,4.961-17.581,5.583-26.7
		c1.091-15.991-10.76-31.318-22.969-35.11c-9.461-2.938-18.902-4.958-28.83-4.94c-39.977,0.071-79.954,0.025-119.931,0.048
		c-1.465,0.001-2.988-0.356-4.534,0.419C607.421,795.73,582.496,860.114,557.525,924.615z M872.856,731.207
		c-24.957,64.469-49.857,128.792-74.87,193.408c15.889,0,31.184,0,46.563,0c9.696-24.809,19.359-49.532,28.973-74.13
		c14.996,0,29.612,0,44.259,0c8.602,24.788,17.144,49.405,25.722,74.124c20.319,0,40.56,0,60.979,0
		c-9.518-26.058-19.578-51.774-29.041-77.963c3.5-0.62,6.277-1.112,9.053-1.603c22.42-3.961,39.617-15.158,50.871-35.424
		c9.533-17.168,12.078-34.827,6.896-53.831c-2.352-8.624-7.391-14.122-15.443-17.555c-11.195-4.774-22.92-6.934-34.943-7.008
		c-38.978-0.242-77.957-0.186-116.936-0.237C874.45,730.987,873.961,731.087,872.856,731.207z M1106.864,731.189
		c-25.031,64.446-50.008,128.755-75.09,193.331c18.405,0,36.173,0,53.815,0c9.378-24.436,18.665-48.633,27.93-72.774
		c27.687,0,55.013,0.059,82.339-0.039c7.314-0.026,14.639-0.278,21.883-1.588c15.177-2.745,29.001-8.438,40.763-18.619
		c11.996-10.383,21.028-22.548,23.817-38.687c0.54-3.123,0.812-6.26,1.187-9.374c1.145-9.494,0.707-18.927-2.393-28.092
		c-3.216-9.507-9.182-16.492-18.762-19.971c-7.065-2.565-14.342-4.24-21.916-4.249c-43.823-0.054-87.645-0.1-131.468-0.141
		C1108.479,730.987,1107.99,731.078,1106.864,731.189z"/>
	<path style="fill:#D0D1D2;" d="M85.02,704.131c-1.007-10.452-1.157-20.908-0.421-31.39c0.303-4.312,0.182-8.651,0.358-12.974
		c0.633-15.608,1.615-31.189,3.837-46.669c0.541-3.767,0.906-7.558,1.343-11.264c1.315-1.066,2.625-0.601,3.902-0.448
		c-0.513,2.887,1.863,4.089,3.435,5.661c74.18,74.223,148.384,148.422,222.586,222.624c0.707,0.707,1.477,1.361,2.108,2.129
		c1.098,1.337,2.516,1.471,4.065,1.275c1.222,1.064,1.373,2.699,2.137,4.007c5.221,13.022,11.659,25.459,18.301,37.789
		c2.261,4.197,4.948,8.165,7.44,12.238c5.201,9.846,11.751,18.818,18.252,27.802c7.3,10.087,15.132,19.753,23.505,28.989
		c8.941,9.863,18.265,19.326,28.159,28.23c0.506,0.641,0.928,1.379,1.531,1.909c10.704,9.402,21.646,18.53,33.234,26.817
		c4.24,3.032,8.277,6.549,13.37,8.265c0.302,1.769-0.597,3.236-1.279,4.719c-6.495,14.125-13.019,28.236-19.558,42.341
		c-0.95,2.049-2.023,4.042-3.039,6.06c-3.217,0.447-4.704-2.07-6.533-3.9C325.108,941.718,208.475,825.082,91.84,708.448
		c-1.06-1.06-2.183-2.065-3.168-3.191C87.652,704.091,86.367,704.081,85.02,704.131z"/>
	<path style="fill:#DBDCDD;" d="M1115.05,530.136c-0.651-1.618-2.094-2.56-3.256-3.722
		c-119.93-119.957-239.873-239.902-359.837-359.826c-1.481-1.48-2.616-3.581-5.152-3.605c0.081-0.66,0.049-1.359,0.261-1.974
		c4.432-12.862,7.834-26.029,11.471-39.121c1.568-5.645,3.777-11.169,4.116-17.121c0.651-4.946,2.624-9.524,3.866-14.689
		c6.069,0.322,11.9,1.264,17.686,2.57c-0.666,2.749,1.685,3.794,3.115,5.226c50.207,50.268,100.452,100.497,150.672,150.75
		c1.511,1.512,3.307,2.789,4.243,4.838c0.31,0.68,1.102,0.625,1.759,0.68c0.034,1.142-0.247,2.184-0.594,3.296
		c-1.812,5.803-4.003,11.528-4.362,17.693c-0.254,0.194-0.703,0.36-0.735,0.585c-0.917,6.453-2.795,12.795-2.298,19.414
		c-2.886,4.835-1.773,10.12-1.939,15.076c14.84,11.105,29.44,22.03,44.167,33.051c4.593-1.75,9.454-2.728,13.802-5.141
		c6.209-2.567,12.393-5.184,17.996-8.967c0.66-0.012,1.319-0.025,1.979-0.037c4.352,2.795,7.959,6.437,11.591,10.071
		c46.056,46.088,92.128,92.16,138.221,138.212c2.703,2.701,5.339,5.421,7.233,8.771c-4.342,3.323-8.683,6.647-13.025,9.97
		c-6.357,4.207-12.355,8.874-17.997,13.999c-3.462,2.634-7.115,5.059-10.32,7.976c-2.2,2.001-5.115,3.624-5.694,7.016
		C1118.635,525.321,1117.797,529.057,1115.05,530.136z"/>
	<path style="fill:#C5C5C6;" d="M85.02,704.131c1.346-0.05,2.632-0.04,3.651,1.125c0.985,1.126,2.108,2.131,3.168,3.191
		c116.635,116.635,233.268,233.27,349.915,349.893c1.83,1.829,3.316,4.346,6.533,3.9c-2.131,6.253-5.294,12.05-8.056,18.02
		c-6.965,15.06-14.072,30.054-21.142,45.065c-0.195,0.414-0.619,0.721-0.936,1.077c-0.734-1.975-2.483-3.096-3.876-4.489
		C310.646,1018.247,206.996,914.6,103.347,810.951c-0.825-0.824-1.716-1.593-2.46-2.484c-1.11-1.328-2.509-1.485-4.063-1.252
		c-2.249-8.142-3.373-16.511-4.714-24.816c-2.989-18.516-5.223-37.124-6.366-55.872C85.288,719.054,84.822,711.612,85.02,704.131z"
		/>
	<path style="fill:#605D5E;" d="M811.004,318.366c8.109,2.317,15.743,5.918,23.528,9.053c9.429,3.797,18.929,7.548,27.815,12.593
		c7.567,4.297,15.209,8.449,22.703,12.893c8.268,4.902,16.284,10.135,24.223,15.505c3.862,2.613,7.398,5.708,11.082,8.585
		c-2.613,2.712-5.19,5.46-7.845,8.13c-7.26,7.3-14.541,14.58-21.843,21.839c-1.784,1.773-3.46,3.565-3.7,6.233
		c-0.483-0.096-1.078-0.043-1.432-0.311c-8.767-6.615-18.167-12.279-27.404-18.18c-8.288-5.294-17.412-9.03-26.103-13.579
		c-2.862-2.637-6.665-3.386-10.022-5.032c-8.138-3.99-16.616-7.068-25.358-9.924c-0.589,1.06-1.133,2.039-1.511,2.719
		c3.089,9.266,4.996,18.407,6.802,27.536c1.842,9.311,3.304,18.695,4.25,28.18c0.801,8.036,1.874,16.027,1.846,24.123
		c-0.037,10.499-0.008,20.998-0.011,31.498c0,1.166,0.169,2.374-0.072,3.491c-1.63,7.56-1.474,15.325-2.77,22.948
		c-0.903,5.31-1.5,10.747-2.585,16.001c-2.114,10.232-4.44,20.426-7.372,30.5c-4.787,16.448-10.601,32.48-17.783,47.992
		c-8.961,19.356-19.769,37.666-32.388,54.887c-8.596,11.731-17.546,23.163-27.882,33.443c-5.908,5.876-11.773,11.795-17.691,17.662
		c-1.165,1.155-2.514,2.141-3.753,3.192c-4.786,4.06-9.422,8.295-14.459,12.055c-1.222,0.912-1.321,2.227-1.292,3.589
		c-16.971,0-33.943,0-51.292,0c-2.95,7.864-5.847,15.672-8.821,23.451c-0.756,1.977-1.416,4.031-2.817,5.702
		c-1.366-0.13-2.547,0.299-3.796,0.883c-11.027,5.157-22.382,9.522-33.912,13.39c-10.237,3.434-20.579,6.565-31.185,8.717
		c-6.568,1.332-13.086,3.039-19.715,3.896c-6.342,0.821-12.646,1.923-19.08,2.31c-7.202,0.433-14.356,1.812-21.618,1.795
		c-15.394-0.035-30.759,0.101-46.125-1.805c-8.138-1.009-16.332-1.92-24.348-3.422c-13.163-2.466-26.26-5.508-38.984-9.831
		c-7.444-2.529-15.076-4.603-21.723-8.24c-1.632-2.657-1.429-5.395-2.091-7.923c-1.616-6.172-2.846-12.436-3.419-18.808
		c2.992,0.55,5.371,2.49,8.118,3.587c13.856,5.535,27.816,10.787,42.382,14.17c8.755,2.033,17.513,4.063,26.438,5.319
		c5.855,0.823,11.747,1.348,17.582,2.144c7.2,0.983,14.44,1.366,21.628,1.626c9.235,0.333,18.502,0.228,27.806-0.56
		c8.522-0.722,17.135-1.138,25.545-2.471c11.915-1.888,23.73-4.406,35.458-7.519c18.363-4.874,35.877-11.768,52.959-19.83
		c14.922-7.042,28.971-15.661,42.401-25.279c12.092-8.659,23.511-18.132,34.29-28.356c7.696-7.3,14.797-15.154,21.576-23.347
		c5.885-7.113,11.659-14.29,16.895-21.874c10.79-15.627,20.303-31.967,27.915-49.429c6.177-14.168,11.56-28.588,15.605-43.491
		c2.011-7.41,4.046-14.866,5.237-22.432c1.246-7.92,2.667-15.824,3.329-23.864c0.607-7.366,1.682-14.715,1.764-22.112
		c0.169-15.224,0.046-30.418-1.797-45.603c-0.969-7.98-1.869-16.021-3.467-23.831c-2.947-14.397-6.368-28.749-11.712-42.527
		c-0.532-1.371-1.278-2.715-0.989-4.284c2.033-0.327,3.965,0.243,5.751,1.014c5.076,2.193,8.738,0.088,12.225-3.443
		c9.788-9.91,19.671-19.725,29.531-29.563C809.173,322.502,810.807,320.875,811.004,318.366z"/>
	<path style="fill:#B9BABB;" d="M96.823,807.215c1.554-0.233,2.953-0.076,4.063,1.252c0.745,0.891,1.636,1.66,2.46,2.484
		c103.649,103.649,207.3,207.297,310.932,310.963c1.393,1.393,3.142,2.514,3.876,4.489c0.374,1.607-0.511,2.894-1.125,4.226
		c-7.716,16.766-15.449,33.525-23.192,50.279c-0.205,0.443-0.567,0.813-0.855,1.217c-2.404,0.094-3.371-1.96-4.72-3.307
		c-37.965-37.905-75.894-75.846-113.829-113.78c-43.472-43.472-86.944-86.944-130.416-130.415c-2.327-2.327-4.573-4.775-8.008-5.484
		c-5.697-10.492-9.586-21.764-13.772-32.871c-10.097-26.795-18.146-54.225-24.194-82.227
		C97.556,811.782,96.679,809.587,96.823,807.215z"/>
	<path style="fill:#3D3A3B;" d="M832.028,381.127c8.69,4.549,17.815,8.286,26.103,13.579c9.237,5.9,18.637,11.565,27.404,18.18
		c0.354,0.267,0.949,0.214,1.432,0.311c1.658,3.046,5.684,3.625,7.155,6.866c-1.462,0.596-1.082,1.889-1.096,2.997
		c-0.057,4.79,0.699,9.564,0.828,14.298c0.43,15.809,0.699,31.664-0.117,47.442c-0.3,5.802-0.311,11.77-1.418,17.659
		c-0.739,3.931-1.047,8.139-1.382,12.24c-0.439,5.374-1.28,10.734-2.267,16.041c-1.76,9.471-3.528,18.953-5.73,28.328
		c-1.83,7.793-4.372,15.415-6.449,23.153c-3.067,11.425-7.461,22.389-11.54,33.456c-2.214,6.008-4.869,11.871-7.612,17.663
		c-3.752,7.922-7.767,15.72-11.687,23.563c-5.31,10.625-11.55,20.709-17.855,30.757c-6.562,10.458-13.909,20.369-21.276,30.253
		c-2.747,3.685-5.791,7.175-8.657,10.791c-1.526,1.924-3.289,3.764-5.665,4.197c-10.294-3.564-20.339-6.971-31.25-6.814
		c-11.321,0.163-22.647,0.001-33.97-0.019c0.251-2.482,1.776-4.191,3.45-5.853c8.706-8.645,17.284-17.381,25.077-26.909
		c5.948-7.272,11.823-14.584,17.135-22.315c6.615-9.628,12.954-19.422,18.908-29.507c6.824-11.556,12.78-23.515,18.033-35.772
		c6.196-14.455,11.81-29.192,15.874-44.446c2.398-9,4.818-17.995,6.566-27.149c1.627-8.518,2.964-17.081,4.252-25.66
		c1.271-8.464,2.341-17.017,2.492-25.434c0.293-16.403,1.071-32.84-0.567-49.285c-0.911-9.15-1.763-18.281-3.065-27.393
		c-1.066-7.457-2.326-14.849-3.984-22.188C830.91,383.092,830.561,381.79,832.028,381.127z"/>
	<path style="fill:#DBDCDD;" d="M326.234,833.076c-1.549,0.196-2.966,0.062-4.065-1.275c-0.631-0.768-1.402-1.422-2.108-2.129
		c-74.202-74.201-148.406-148.4-222.586-222.624c-1.572-1.573-3.948-2.775-3.435-5.661c1.302,0.02,2.603,0.04,3.905,0.061
		c1.015,1.102,2.178,0.784,3.353,0.349c3.461-0.013,6.921-0.026,10.382-0.039c1.992,0.857,4.03,1.306,6.241,1.275
		c15.363-0.213,30.752,0.932,46.082-0.939c8.045,0.719,15.984-1.032,23.998-1.033c3.759,0.607,7.286-1.714,11.062-0.876
		c-0.354,1.25-0.708,2.5-1.047,3.697c0.526,1.795,2.003,2.716,3.151,3.865c30.777,30.811,61.569,61.607,92.389,92.374
		c1.234,1.231,2.128,3.104,4.332,2.989c0.09,6.393,1.014,12.73,1.373,19.111c0.221,3.939,0.16,8.1,1.774,11.908
		c0.052,1.824-0.095,3.679,0.189,5.466c1.68,10.592,3.255,21.214,5.87,31.626c2.837,11.295,5.319,22.676,8.929,33.783
		C319.106,814.488,322.626,823.793,326.234,833.076z"/>
	<path style="fill:#514E50;" d="M326.234,833.076c-3.608-9.283-7.128-18.588-10.21-28.073c-3.61-11.108-6.092-22.488-8.929-33.783
		c-2.615-10.412-4.189-21.034-5.87-31.626c-0.284-1.787-0.137-3.642-0.189-5.466c2.195,0.151,3.119-1.68,4.355-2.91
		c12.437-12.377,24.82-24.807,37.257-37.184c1.236-1.23,2.158-3.062,4.352-2.916c-0.294,2.431,1.151,4.611,1.012,7.019
		c-0.4,12.769,1.112,25.384,3.04,37.967c0.572,6.372,1.803,12.636,3.419,18.808c0.662,2.529,0.459,5.266,2.091,7.923
		c6.647,3.636,14.279,5.711,21.723,8.24c12.724,4.323,25.821,7.364,38.984,9.831c8.017,1.502,16.211,2.413,24.348,3.422
		c15.366,1.906,30.731,1.771,46.125,1.805c7.262,0.016,14.415-1.363,21.618-1.795c6.434-0.387,12.738-1.489,19.08-2.31
		c6.629-0.858,13.148-2.564,19.715-3.896c10.605-2.152,20.947-5.283,31.185-8.717c11.53-3.868,22.885-8.232,33.912-13.39
		c1.249-0.584,2.43-1.013,3.796-0.883c0.426,2.499-1.256,4.367-2.052,6.465c-5.256,13.862-10.647,27.672-15.994,41.499
		c-2.046-0.283-3.917,0.447-5.778,1.084c-20.162,6.906-40.758,11.893-61.848,15.141c-9.556,1.472-19.156,2.98-28.727,3.525
		c-9.059,0.516-18.139,1.615-27.26,1.301c-4.615-0.159-9.192-0.26-13.806-0.899c-5.528-0.766-11.159-0.297-16.792-0.911
		c-8.152-0.89-16.26-1.937-24.373-3.124c-11.179-1.636-22.158-4.015-33.101-6.806c-5.346-1.363-10.62-3.552-16.327-3.291
		c-1.309-0.921-1.713-2.316-2.019-3.78c-0.318-1.523-1.288-2.242-2.905-2.172c-1.626,0.547-2.56,2.006-3.717,3.157
		c-9.09,9.042-18.15,18.114-27.208,27.189c-1.894,1.897-3.778,3.77-6.77,3.565C327.607,835.775,327.456,834.139,326.234,833.076z"/>
	<path style="fill:#514E50;" d="M832.028,381.127c-1.467,0.663-1.118,1.964-0.878,3.027c1.658,7.339,2.918,14.732,3.984,22.188
		c1.302,9.112,2.154,18.242,3.065,27.393c1.638,16.445,0.86,32.882,0.567,49.285c-0.15,8.418-1.221,16.971-2.492,25.434
		c-1.288,8.58-2.625,17.142-4.252,25.66c-1.748,9.154-4.168,18.15-6.566,27.149c-4.064,15.253-9.678,29.991-15.874,44.446
		c-5.254,12.257-11.21,24.216-18.033,35.772c-5.955,10.084-12.293,19.879-18.908,29.507c-5.312,7.731-11.188,15.043-17.135,22.315
		c-7.792,9.528-16.371,18.265-25.077,26.909c-1.674,1.662-3.199,3.371-3.45,5.853c-15.668-0.027-31.335-0.053-47.003-0.08
		c-0.029-1.362,0.07-2.677,1.292-3.589c5.037-3.76,9.673-7.995,14.459-12.055c1.239-1.052,2.589-2.038,3.753-3.192
		c5.918-5.866,11.783-11.786,17.691-17.662c10.337-10.28,19.286-21.712,27.882-33.443c12.619-17.221,23.427-35.531,32.388-54.887
		c7.182-15.512,12.996-31.544,17.783-47.992c2.932-10.075,5.257-20.269,7.372-30.5c1.086-5.254,1.682-10.691,2.585-16.001
		c1.296-7.623,1.14-15.387,2.77-22.948c0.241-1.117,0.071-2.325,0.072-3.491c0.003-10.499-0.026-20.999,0.011-31.498
		c0.028-8.096-1.045-16.087-1.846-24.123c-0.945-9.485-2.407-18.869-4.25-28.18c-1.806-9.129-3.713-18.27-6.802-27.536
		c0.378-0.68,0.922-1.659,1.511-2.719c8.742,2.856,17.22,5.934,25.358,9.924C825.364,377.742,829.166,378.491,832.028,381.127z"/>
	<path style="fill:#ADAEAF;" d="M136.009,929.138c3.436,0.709,5.681,3.157,8.008,5.484c43.472,43.471,86.944,86.943,130.416,130.415
		c37.935,37.935,75.864,75.875,113.829,113.78c1.349,1.347,2.316,3.401,4.72,3.307c-3.202,7.737-6.608,15.379-10.451,23.092
		c-14.669-8.603-28.758-17.7-42.502-27.36c-32.375-22.756-62.201-48.462-89.512-77.084c-31.13-32.623-58.289-68.285-81.42-106.992
		c-11.937-19.976-22.786-40.533-32.151-61.854C136.551,931.026,135.866,930.22,136.009,929.138z"/>
	<path style="fill:#3D3A3B;" d="M370.99,809.124c5.707-0.261,10.981,1.928,16.327,3.291c10.943,2.79,21.923,5.169,33.101,6.806
		c8.114,1.188,16.221,2.235,24.373,3.124c5.633,0.615,11.264,0.145,16.792,0.911c4.615,0.64,9.192,0.741,13.806,0.899
		c9.121,0.314,18.201-0.785,27.26-1.301c9.571-0.546,19.171-2.054,28.727-3.525c21.09-3.248,41.685-8.235,61.848-15.141
		c1.861-0.637,3.732-1.367,5.778-1.084c-7.385,19.13-14.721,38.279-22.196,57.374c-1.453,3.713-4.076,6.118-8.431,6.736
		c-5.325,0.755-10.512,2.344-15.849,3.207c-5.643,0.913-11.295,1.813-16.918,2.807c-7.275,1.286-14.701,1.21-21.912,2.837
		c-0.319,0.072-0.664,0.03-0.995,0.053c-19.563,1.358-39.176,1.515-58.732,0.762c-9.1-0.35-18.306-1.058-27.433-2.481
		c-6.43-1.003-12.929-2.481-19.548-2.271c-1.103,0.035-2.4-0.388-3.011,1.07c-4.763-5.862-8.042-12.666-12.053-19.006
		c-0.636-1.335-1.181-2.722-1.922-3.996c-6.135-10.555-11.465-21.515-16.166-32.765C372.722,814.764,370.871,812.25,370.99,809.124z
		"/>
	<path style="fill:#B9BABB;" d="M1213.094,397.104c5.808,9.78,10.744,20.02,15.771,30.204c2.911,5.896,5.405,11.998,8.2,18.263
		c-4.344,2.631-8.558,5.184-12.772,7.736c-0.739-0.032-1.478-0.064-2.217-0.095c-0.233-3.101-2.42-4.956-4.41-6.945
		c-49.648-49.644-99.292-99.292-148.953-148.923c-1.16-1.159-2.096-2.606-3.724-3.238c0.269-0.402,0.448-0.941,0.821-1.185
		c5.999-3.933,11.412-8.629,17.117-12.939c1.865-1.408,3.354-3.679,6.031-3.929c1.743,0.768,2.798,2.331,4.078,3.611
		c37.713,37.681,75.407,75.382,113.106,113.077C1208.125,394.722,1209.937,396.988,1213.094,397.104z"/>
	<path style="fill:#D0D1D2;" d="M943.995,254.144c-0.657-0.055-1.449,0-1.759-0.68c-0.935-2.049-2.732-3.326-4.243-4.838
		c-50.221-50.254-100.466-100.483-150.672-150.75c-1.43-1.432-3.782-2.478-3.115-5.226c17.759,2.363,35.097,6.782,52.52,10.781
		c0.464,0.106,0.867,0.478,1.298,0.727c-0.551,2.848,1.687,4.138,3.279,5.731c36.331,36.358,72.676,72.702,109.037,109.03
		c1.157,1.156,2.078,2.622,3.73,3.218c0.07,2.21-1.088,4.093-1.627,6.141c-1.582,6.018-4.468,11.641-5.399,17.855
		C945.246,248.505,945.65,251.716,943.995,254.144z"/>
	<path style="fill:#707072;" d="M391.925,854.194c4.011,6.34,7.289,13.144,12.053,19.006c4.431,7.975,10.361,14.885,15.798,22.14
		c3.35,4.472,6.82,8.862,10.399,13.152c1.993,2.389,4.306,4.512,6.5,6.731c7.477,7.562,14.965,15.113,22.449,22.668
		c-1.144,2.568-3.914,3.364-5.731,5.256c-7.011,7.301-14.222,14.412-21.436,21.515c-2.585,2.545-4.837,5.457-7.929,7.468
		c-9.894-8.904-19.217-18.367-28.159-28.23c-8.374-9.237-16.206-18.902-23.505-28.989c-6.502-8.984-13.052-17.955-18.252-27.802
		c2.394,0.564,3.615-1.164,5.009-2.559c9.268-9.268,18.534-18.538,27.806-27.802C388.313,855.363,389.515,853.589,391.925,854.194z"
		/>
	<path style="fill:#707072;" d="M894.122,420.063c-1.471-3.241-5.497-3.82-7.155-6.866c0.24-2.668,1.916-4.46,3.7-6.233
		c7.302-7.259,14.583-14.539,21.843-21.839c2.655-2.67,5.232-5.418,7.845-8.13c6.278,3.513,11.494,8.437,16.872,13.079
		c15.904,13.729,30.73,28.569,44.487,44.461c0.641,0.741,1.085,1.652,1.62,2.484c-1.715,0.474-2.623,1.958-3.773,3.102
		c-9.377,9.328-18.708,18.701-28.085,28.03c-1.151,1.145-2.063,2.624-3.774,3.103c-4.585-3.874-7.997-8.827-11.987-13.24
		c-6.564-7.261-13.274-14.321-20.769-20.63c-5.283-4.447-10.441-9.044-15.706-13.513
		C897.622,422.497,895.833,421.326,894.122,420.063z"/>
	<path style="fill:#DBDCDD;" d="M1253.016,665.071c0.159-2.207-1.701-3.114-2.929-4.347c-17.673-17.731-35.387-35.42-53.079-53.131
		c-1.486-1.487-3.475-2.729-2.99-5.336l0.024-0.255c5.116,0.046,10.233,0.122,15.349,0.128c3.593,0.004,7.074,1.676,10.727,0.693
		c6.822,0.087,13.644,0.188,20.466,0.256c6.96,0.069,13.911-0.049,20.781-1.369c2.808,0.014,5.616,0.027,8.424,0.041
		c0.502,0.407,0.961,0.355,1.382-0.127c3.122-0.164,6.244-0.329,9.733-0.513c3.507,21.191,4.839,42.269,5.845,63.344
		C1283.09,665.496,1263.052,665.832,1253.016,665.071z"/>
	<path style="fill:#C5C5C6;" d="M954.071,222.136c-1.652-0.595-2.573-2.062-3.73-3.218c-36.361-36.327-72.706-72.672-109.037-109.03
		c-1.592-1.593-3.83-2.883-3.279-5.731c9.417,1.954,18.581,4.837,27.728,7.737c9.159,2.903,18.336,5.78,27.262,9.373
		c-0.489,2.627,1.531,3.865,3.021,5.357c21.556,21.576,43.121,43.143,64.703,64.693c1.042,1.041,1.87,2.376,3.401,2.847
		c-0.158,1.465-0.179,2.886-0.759,4.353c-1.744,4.413-2.857,9.103-4.882,13.37C956.897,215.261,956.873,219.31,954.071,222.136z"/>
	<path style="fill:#818283;" d="M1003.13,462.95c5.648,6.71,10.035,14.282,14.579,21.721c8.172,13.377,15.627,27.152,21.85,41.563
		c0.256,0.593,0.346,1.257,0.513,1.888c-2.686,0.172-4.445,1.884-6.208,3.653c-9.812,9.843-19.653,19.659-29.468,29.499
		c-0.922,0.925-2.059,1.695-2.483,3.036c-2.773-4.533-4.193-9.668-6.347-14.478c-7.269-16.231-15.715-31.8-25.205-46.818
		c-0.976-1.545-2.072-3.007-2.609-4.785c0.437-0.22,0.968-0.346,1.297-0.675c11.234-11.226,22.45-22.469,33.656-33.723
		C1002.922,463.613,1002.992,463.247,1003.13,462.95z"/>
	<path style="fill:#949496;" d="M1058.291,578.03c3.362,8.104,4.855,16.714,6.692,25.217c2.718,12.578,4.786,25.26,6.182,38.071
		c0.861,7.906,1.753,15.79,1.92,23.744c-16.414,0-32.828,0-49.368,0c-1.478-3.176-0.708-6.573-1.028-9.791
		c-1.273-12.799-3.421-25.458-5.535-38.127c2.171,0.061,3.081-1.77,4.319-3.001c11.04-10.972,22.023-22.002,33.052-32.985
		C1055.677,580.011,1056.589,578.532,1058.291,578.03z"/>
	<path style="fill:#ADAEAF;" d="M1213.094,397.104c-3.157-0.116-4.968-2.381-6.95-4.363
		c-37.699-37.695-75.393-75.396-113.106-113.077c-1.281-1.28-2.335-2.843-4.078-3.611c0.694-1.817,3.171-2.439,3.167-4.724
		l0.103-0.085c1.384-0.09,2.96,0.08,2.813-2.081c4.436-3.436,8.871-6.872,13.185-10.214c2.29,0.351,3.21,2.099,4.455,3.356
		c26.427,26.69,50.187,55.598,71.324,86.627c10.39,15.252,19.96,31.042,28.889,47.206
		C1213.047,396.413,1213.031,396.78,1213.094,397.104z"/>
	<path style="fill:#8A8B8D;" d="M1058.291,578.03c-1.702,0.501-2.614,1.981-3.766,3.128c-11.029,10.983-22.012,22.013-33.052,32.985
		c-1.238,1.231-2.148,3.062-4.319,3.001c-2.671-10.228-4.725-20.617-8.074-30.667c-2.092-6.278-4.12-12.577-6.27-18.835
		c-0.379-1.103-0.894-2.139-0.898-3.332c0.424-1.341,1.56-2.112,2.483-3.036c9.815-9.84,19.656-19.656,29.468-29.499
		c1.764-1.77,3.523-3.481,6.208-3.653c3.484,5.804,5.535,12.232,8.074,18.45c3.74,9.159,6.499,18.652,9.571,28.037
		C1058.073,575.696,1058.108,576.887,1058.291,578.03z"/>
	<path style="fill:#78797B;" d="M424.028,972.13c3.091-2.011,5.344-4.922,7.929-7.468c7.214-7.103,14.425-14.214,21.436-21.515
		c1.817-1.892,4.587-2.688,5.731-5.256c4.045,1.785,6.566,5.47,9.954,8.096c6.785,5.258,13.384,10.749,20.549,15.507
		c1.233,0.819,2.42,1.745,3.357,3.282c-3.007,6.768-5.995,13.683-9.141,20.525c-3.442,7.486-7.034,14.903-10.548,22.356
		c-0.274,0.582-0.343,1.292-1.131,1.463c-5.093-1.716-9.13-5.232-13.37-8.265c-11.588-8.287-22.53-17.415-33.234-26.817
		C424.956,973.509,424.535,972.771,424.028,972.13z"/>
	<path style="fill:#B9BABB;" d="M964.14,194.163c-1.532-0.471-2.359-1.806-3.401-2.847c-21.582-21.55-43.148-43.116-64.703-64.693
		c-1.49-1.491-3.51-2.73-3.021-5.357c11.1,3.829,21.965,8.258,32.712,12.969c17.309,7.587,34.242,15.945,50.792,25.074
		c0.857,0.473,1.662,1.04,2.829,1.776c-1.424,4.447-2.942,8.777-4.907,12.954c-0.69,0.135-1.143,0.503-1.414,1.186
		c-2.34,5.905-4.733,11.789-7.031,17.711C965.616,193.912,964.988,194.103,964.14,194.163z"/>
	<path style="fill:#78797B;" d="M1003.13,462.95c-0.138,0.297-0.208,0.663-0.425,0.882c-11.206,11.253-22.422,22.497-33.656,33.723
		c-0.329,0.329-0.86,0.454-1.297,0.675c-3.646-3.237-5.525-7.78-8.508-11.522c-4.006-5.025-7.709-10.291-11.542-15.454
		c1.712-0.479,2.623-1.958,3.774-3.103c9.377-9.328,18.708-18.702,28.085-28.03c1.15-1.144,2.057-2.628,3.773-3.102
		C990.903,444.921,997.273,453.74,1003.13,462.95z"/>
	<path style="fill:#C5C5C6;" d="M732.984,199.107c-3.222,7.557-5.783,15.44-10.904,22.058c-24.367-0.001-48.734-0.002-73.101-0.003
		c-4.842-6.389-7.572-13.867-10.87-21.053c4.622,0.008,9.244,0.028,13.867,0.017c1.275-0.003,2.736,0.323,3.255-1.436
		c5.499,5.011,10.754,10.243,17.643,13.556c8.517,4.096,16.891,4.096,25.372,0.323c5.364-2.387,9.908-5.98,14.057-10.095
		c1.169-1.16,2.372-2.284,3.56-3.425C721.569,199.068,727.276,199.088,732.984,199.107z"/>
	<path style="fill:#C5C5C6;" d="M380.014,338.142c-6.841-1.925-13.024-5.239-18.991-9.008c3.393-2.543,6.611-5.304,10.078-7.768
		c1.747-1.242,3.963-2.603,3.953-5.35c5.255-0.138,10.476,0.377,15.758-0.789c12.038-2.658,19.237-10.23,23.083-21.487
		c0.957-2.801,1.554-5.725,2.316-8.593c1.363,0.093,2.449-0.324,3.596-1.194c4.012-3.045,8.164-5.906,12.263-8.836
		c2.277,3.03,2.17,6.85,2.656,10.238c0.556,3.867,1.827,7.761,1.291,11.778c-2.752,0.089-4.325,2.168-6.306,3.63
		C413.034,313.071,396.375,325.409,380.014,338.142z"/>
	<path style="fill:#C5C5C6;" d="M230.995,508.186c5.859,4.205,11.425,8.76,16.465,13.929c1.121,1.15,2.675,2.046,2.677,3.967
		c-1.439,0.575-1.696,2.008-2.031,3.196c-2.205,7.832-4.176,15.731-6.453,23.542c-4.007,13.748-8.205,27.44-11.597,41.36
		c-3.336,2.117-7.291,2.01-10.953,2.834c-2.927,0.659-5.922,1.809-9.066,1.151c0.054-0.485,0.062-0.98,0.168-1.453
		c1.297-5.767,4.064-11.207,3.845-17.312c4.394-2.941,8.698-5.926,12.296-9.926c8.257-9.18,9.557-19.534,5.956-30.948
		c-1.607-5.095-4.182-9.69-6.874-14.245c0.673-0.125,1.271-0.382,1.526-1.074C228.757,518.323,230.588,513.445,230.995,508.186z"/>
	<path style="fill:#C5C5C6;" d="M1122.02,525.13c0.579-3.393,3.494-5.015,5.694-7.016c3.206-2.916,6.858-5.341,10.32-7.976
		c1.163,3.531,2.146,7.11,3.134,10.693c0.551,1.996,0.377,4.808,3.354,5.459c-2.803,5.087-5.255,10.304-6.576,16.013
		c-2.829,12.226,1.134,22.126,10.158,30.376c4.187,3.828,9.182,6.438,13.941,9.407c0.032,0.978,0.077,1.92,0.349,2.907
		c1.295,4.682,2.441,9.406,3.641,14.114c-8.211-0.695-16.298-2.003-24.061-4.899c-0.04-1.152,0.207-2.409-0.17-3.437
		c-1.744-4.75-2.867-9.669-4.222-14.526c-4.198-15.036-8.341-30.088-12.712-45.074C1124.267,529.106,1124.218,526.54,1122.02,525.13
		z"/>
	<path style="fill:#C5C5C6;" d="M936.006,295.131c-0.497-6.619,1.381-12.961,2.298-19.414c0.032-0.225,0.48-0.391,0.735-0.585
		c2.904,0.551,4.539,3.084,6.929,4.433c3.103,1.751,5.142,5.244,9.118,5.56c1.243,2.053,1.117,4.474,1.753,6.7
		c4.303,15.071,14.815,24.077,31.711,24.283c2.159,0.026,4.318,0.01,6.478,0.014c-0.089,1.51,0.828,2.216,1.975,3.054
		c4.414,3.227,8.698,6.634,13.03,9.974c-5.603,3.783-11.787,6.401-17.996,8.967c-0.056-0.656-0.043-1.33-0.654-1.789
		c-5.911-4.441-11.828-8.875-17.728-13.329c-7.221-5.452-14.365-11.009-21.663-16.354
		C946.695,302.766,941.803,298.316,936.006,295.131z"/>
	<path style="fill:#ADAEAF;" d="M230.995,508.186c-0.407,5.259-2.238,10.136-4.039,15.021c-0.255,0.692-0.853,0.949-1.526,1.074
		c-7.36-10.694-16.328-19.994-25.362-29.236c0.526-2.513,1.701-4.745,2.995-6.926c2.748-0.012,4.579,1.969,6.448,3.42
		C216.668,497.094,224.284,502.061,230.995,508.186z"/>
	<path style="fill:#B9BABB;" d="M955.086,285.126c-3.975-0.316-6.015-3.81-9.118-5.56c-2.391-1.349-4.025-3.882-6.929-4.433
		c0.358-6.165,2.549-11.89,4.362-17.693c0.347-1.112,0.628-2.153,0.594-3.296c1.655-2.427,1.251-5.639,3.05-8.012
		c2.914,1.579,5.224,4.177,8.546,5.068c-0.749,9.324-2.253,18.621-0.674,28.015C955.24,281.14,955.043,283.153,955.086,285.126z"/>
	<path style="fill:#9E9FA0;" d="M955.591,251.2c-3.322-0.891-5.632-3.489-8.546-5.068c0.931-6.214,3.817-11.837,5.399-17.855
		c0.538-2.048,1.696-3.932,1.627-6.141c2.802-2.826,2.826-6.874,4.428-10.25c2.025-4.266,3.138-8.957,4.882-13.37
		c0.58-1.467,0.6-2.888,0.759-4.353c0.848-0.06,1.476-0.251,1.855-1.227c2.298-5.921,4.691-11.806,7.031-17.711
		c0.271-0.683,0.724-1.051,1.414-1.186c0.848,1.612-0.389,2.934-0.837,4.214c-7.166,20.461-12.446,41.408-16.416,62.7
		C956.554,244.35,956.118,247.784,955.591,251.2z"/>
	<path style="fill:#ADAEAF;" d="M732.984,199.107c-5.707-0.02-11.415-0.04-17.122-0.059c7.651-9.711,14.085-20.22,20.281-30.886
		c2.643-0.002,5.285-0.004,7.928-0.006c0.287,2.577-0.819,4.832-1.669,7.142C739.453,183.309,736.659,191.383,732.984,199.107z"/>
	<path style="fill:#B9BABB;" d="M375.054,316.016c0.009,2.747-2.206,4.107-3.953,5.35c-3.467,2.464-6.685,5.225-10.078,7.768
		c-7.107-3.228-13.981-6.85-20.04-11.85c-0.041-1.673,1.1-2.334,2.251-3.342c1.701-1.489,4.524-2.043,4.82-4.924
		c2.754-0.248,4.837,1.709,7.297,2.446C361.848,313.407,368.489,314.508,375.054,316.016z"/>
	<path style="fill:#B9BABB;" d="M1166.034,599.107c-1.199-4.709-2.346-9.432-3.641-14.114c-0.273-0.987-0.318-1.928-0.349-2.907
		c6.766,2.603,13.376,5.63,20.403,7.529c3.504,0.947,7.007,1.902,10.51,2.854c-0.296,3.252,0.632,6.366,1.084,9.533l-0.024,0.255
		c-5.868,0.06-11.602-0.897-17.362-1.943C1173.175,599.681,1169.478,600.454,1166.034,599.107z"/>
	<path style="fill:#B9BABB;" d="M655.23,198.689c-0.518,1.759-1.98,1.433-3.255,1.436c-4.622,0.011-9.244-0.009-13.867-0.017
		c-3.58-8.578-7.185-17.147-9.977-26.028c3.116-0.139,6.371,0.812,9.251-1.18C642.771,181.886,648.63,190.544,655.23,198.689z"/>
	<path style="fill:#B9BABB;" d="M1010.032,329.15c-4.332-3.34-8.616-6.746-13.03-9.974c-1.147-0.839-2.065-1.545-1.975-3.054
		c2.575-1.351,5.473-0.961,8.203-1.4c6.84-1.1,13.13-3.986,19.786-5.636c0.091,1.212-0.036,2.231,1.285,3.268
		c1.949,1.53,4.444,2.505,5.729,4.834c-0.343,1.002-1.206,1.426-2.012,2.003c-5.121,3.659-11.172,5.812-16.008,9.922
		C1011.351,329.126,1010.692,329.138,1010.032,329.15z"/>
	<path style="fill:#B9BABB;" d="M214.052,579.4c0.219,6.105-2.548,11.545-3.845,17.312c-0.106,0.473-0.115,0.968-0.168,1.453
		c-3.543,1.301-7.29,1.492-10.975,2.019c-3.777-0.838-7.304,1.483-11.062,0.876c-0.4-2.214,0.518-4.247,1.25-6.169
		c0.684-1.796,0.858-3.457,0.575-5.265C198.082,586.645,206.247,583.449,214.052,579.4z"/>
	<path style="fill:#B9BABB;" d="M432.071,275.116c-4.099,2.931-8.251,5.792-12.263,8.836c-1.147,0.871-2.233,1.287-3.596,1.194
		c1.087-8.636,0.715-17.312,0.7-25.978c3.685-1.147,6.271-3.966,9.301-6.108C429.236,260.128,430.924,267.55,432.071,275.116z"/>
	<path style="fill:#B9BABB;" d="M1144.522,526.289c-2.976-0.65-2.803-3.462-3.354-5.459c-0.988-3.583-1.971-7.162-3.134-10.693
		c5.642-5.126,11.64-9.793,17.997-13.999c0.046,3.957,1.159,7.621,3.039,11.074C1153.921,513.343,1149.109,519.731,1144.522,526.289
		z"/>
	<path style="fill:#949496;" d="M744.071,168.156c-2.643,0.002-5.285,0.004-7.928,0.006c3.761-8.473,7.45-16.979,11.301-25.411
		c5.032-11.02,8.695-22.548,12.891-33.879c0.521-1.406,0.248-3.493,2.32-4.103c-0.339,5.952-2.548,11.476-4.116,17.121
		c-3.637,13.092-7.039,26.259-11.471,39.121c-0.212,0.615-0.179,1.314-0.261,1.974C745.176,164.329,745.542,166.728,744.071,168.156
		z"/>
	<path style="fill:#ADAEAF;" d="M348.054,309.018c-0.297,2.881-3.119,3.435-4.82,4.924c-1.151,1.007-2.293,1.669-2.251,3.342
		c-7.421-3.953-14.184-8.926-21.005-13.786c-2.371-1.689-5.297-2.733-6.963-5.357c1.956-0.689,2.729-3.333,5.211-3.153
		C327.903,300.23,338.053,304.467,348.054,309.018z"/>
	<path style="fill:#949496;" d="M203.063,488.12c-1.294,2.181-2.469,4.413-2.995,6.926c-6.513-5.104-12.439-10.894-18.957-16.011
		c-9.003-7.067-18.274-13.766-27.414-20.644c-0.784-0.59-1.787-0.955-1.742-2.185c1.861-0.336,3.123,0.973,4.502,1.774
		c13.905,8.075,27.449,16.736,40.94,25.476C199.436,484.778,201.181,486.554,203.063,488.12z"/>
	<path style="fill:#ADAEAF;" d="M1030.031,317.189c-1.285-2.33-3.781-3.305-5.729-4.834c-1.321-1.038-1.194-2.056-1.285-3.268
		c8.255-3.701,16.51-7.401,24.764-11.102c2.409,0.55,4.504,1.497,5.246,4.153c-0.855,2.208-3.248,2.531-4.817,3.88
		c-3.144,2.706-7.324,3.968-10.197,7.102c-1.28-0.131-2.111,0.614-2.93,1.446C1033.69,315.983,1032.03,316.921,1030.031,317.189z"/>
	<path style="fill:#949496;" d="M1222.076,453.212c0.739,0.032,1.478,0.064,2.217,0.095c-0.293,0.811-0.867,1.325-1.579,1.822
		c-15.612,10.898-30.894,22.227-45.259,34.75c-0.11,0.096-0.317,0.079-0.479,0.115c-0.003-2.467-2.532-4.22-1.941-6.855
		c3.27-2.72,6.85-4.992,10.482-7.179c3.194-1.923,6.016-4.441,9.484-5.921C1204.026,464.43,1213.051,458.821,1222.076,453.212z"/>
	<path style="fill:#949496;" d="M164.003,602.093c-15.33,1.871-30.719,0.726-46.082,0.939c-2.211,0.031-4.249-0.418-6.241-1.275
		c0.487-1.407,1.671-1.409,2.848-1.4c10.411,0.083,20.701-1.518,31.045-2.33c5.388-0.423,10.711-1.642,16.071-2.457
		c1.128-0.172,2.285-0.155,3.428-0.225C165.198,597.671,163.522,599.711,164.003,602.093z"/>
	<path style="fill:#ADAEAF;" d="M426.213,253.06c-3.031,2.142-5.617,4.962-9.301,6.108c-1.585-2.862-0.721-6.076-1.279-9.104
		c-1.153-6.255-1.927-12.58-2.857-18.876c1.848-0.925,3.938-1.438,5.327-3.141C421.775,236.07,424.53,244.392,426.213,253.06z"/>
	<path style="fill:#ADAEAF;" d="M164.003,602.093c-0.481-2.382,1.196-4.422,1.069-6.747c8.251-1.906,16.503-3.813,24.754-5.719
		c0.283,1.808,0.109,3.469-0.575,5.265c-0.732,1.922-1.65,3.954-1.25,6.169C179.987,601.061,172.048,602.812,164.003,602.093z"/>
	<path style="fill:#ADAEAF;" d="M1175.035,483.139c-0.59,2.635,1.938,4.388,1.941,6.855c-5.969,5.739-11.938,11.479-17.906,17.218
		c-1.88-3.454-2.993-7.117-3.039-11.074c4.342-3.323,8.683-6.647,13.025-9.97C1171.467,485.985,1172.781,483.634,1175.035,483.139z"
		/>
	<path style="fill:#949496;" d="M418.102,228.047c-1.389,1.703-3.479,2.217-5.327,3.141c-2.071-8.088-4.022-16.209-6.246-24.255
		c-2.233-8.079-4.736-16.082-7.123-24.119c-0.184-0.619-0.479-1.252,0.303-1.695c0.997,0.132,1.235,0.926,1.548,1.702
		c5.788,14.322,11.531,28.66,16.602,43.256C418.072,226.689,418.027,227.389,418.102,228.047z"/>
	<path style="fill:#949496;" d="M1053.027,302.137c-0.742-2.656-2.837-3.603-5.246-4.153c2.038-2.315,5.001-3.135,7.563-4.569
		c11.541-6.457,22.714-13.499,33.728-20.805c0.933-0.619,1.698-1.662,3.055-1.281c0.004,2.285-2.473,2.907-3.167,4.724
		c-2.678,0.25-4.167,2.52-6.031,3.929c-5.705,4.31-11.118,9.006-17.117,12.939c-0.372,0.244-0.552,0.783-0.821,1.185
		C1060.568,296.136,1057.438,300.09,1053.027,302.137z"/>
	<path style="fill:#9E9FA0;" d="M637.383,172.901c-2.88,1.992-6.135,1.04-9.251,1.18c-2.464-7.524-4.863-15.071-7.448-22.554
		c-0.495-1.434-0.651-2.842-0.849-4.287c1.707-0.031,3.413-0.061,5.12-0.092c3.904,7.791,7.036,15.962,11.57,23.444
		C636.943,171.282,637.103,172.128,637.383,172.901z"/>
	<path style="fill:#9E9FA0;" d="M1194.041,602.002c-0.452-3.167-1.38-6.281-1.084-9.533c8.946,1.969,17.955,3.596,27.021,4.903
		c0.046,1.817,0.092,3.635,0.139,5.452c-3.653,0.983-7.133-0.689-10.727-0.693C1204.274,602.124,1199.157,602.048,1194.041,602.002z
		"/>
	<path style="fill:#8A8B8D;" d="M318.226,294.988c-2.482-0.18-3.255,2.464-5.211,3.153c-8.51-5.334-16.252-11.711-24.188-17.824
		c-2.735-2.107-5.473-4.217-8.107-6.447c-1.333-1.129-3.12-1.881-3.649-3.802c1.039-0.18,1.926,0.144,2.78,0.733
		c12.076,8.328,24.541,16.03,37.367,23.15C317.622,294.175,317.893,294.637,318.226,294.988z"/>
	<path style="fill:#8A8B8D;" d="M1220.117,602.824c-0.046-1.817-0.092-3.635-0.139-5.452c12.821,1.147,25.591,2.938,38.498,2.977
		c1.175,0.004,2.372-0.039,2.887,1.362c-6.87,1.32-13.82,1.439-20.781,1.369C1233.76,603.012,1226.938,602.911,1220.117,602.824z"/>
	<path style="fill:#8A8B8D;" d="M624.955,147.148c-1.707,0.031-3.413,0.061-5.12,0.092c-3.99-9.663-5.881-19.945-8.789-29.926
		c-1.001-3.436-1.638-6.977-2.613-10.422c-0.372-1.314-0.571-2.546-0.277-3.863c2.139,2.635,2.591,5.992,3.578,9.05
		c3.6,11.145,8.055,21.946,12.555,32.736C624.608,145.576,625.077,146.271,624.955,147.148z"/>
	<path style="fill:#949496;" d="M148.848,454.31c1.618-0.317,2.639,0.343,3.113,1.9C150.448,456.355,149.257,455.973,148.848,454.31
		z"/>
	<path style="fill:#949496;" d="M1095.042,269.163c0.148,2.161-1.429,1.991-2.813,2.081
		C1092.522,269.679,1093.677,269.279,1095.042,269.163z"/>
	<path style="fill:#949496;" d="M397.347,174.974c0.954,0.948,2.07,1.833,1.341,3.438
		C397.056,177.728,396.996,176.432,397.347,174.974z"/>
	<path style="fill:#949496;" d="M101.298,601.796c-1.175,0.436-2.338,0.754-3.353-0.349
		C99.115,601.058,100.257,600.941,101.298,601.796z"/>
	<path style="fill:#8A8B8D;" d="M607.895,102.226c-1.059-0.499-0.951-1.341-0.659-2.238
		C608.073,100.552,608.154,101.339,607.895,102.226z"/>
	<path style="fill:#949496;" d="M396.134,172.058c0.651,0.226,0.896,0.639,0.598,1.301
		C396.167,173.093,395.964,172.661,396.134,172.058z"/>
	<path style="fill:#8A8B8D;" d="M1271.169,601.625c-0.42,0.481-0.88,0.534-1.382,0.127
		C1270.208,601.282,1270.664,601.183,1271.169,601.625z"/>
	<path style="fill:#3D3A3B;" d="M347,691.118c-2.194-0.146-3.116,1.687-4.352,2.916c-12.437,12.376-24.821,24.807-37.257,37.184
		c-1.236,1.23-2.16,3.061-4.355,2.91c-1.615-3.808-1.553-7.969-1.774-11.908c-0.359-6.38-1.282-12.718-1.373-19.111
		c-0.02-4.826,0.166-9.664-0.099-14.477c-0.771-13.999,0.101-27.947,1.356-41.859c1.765-19.569,5.462-38.824,10.336-57.851
		c11.977-46.76,32.317-89.618,60.289-128.895c18.431-25.88,39.994-48.854,64.052-69.594c30.38-26.19,64.201-46.822,100.99-62.503
		c21.032-8.965,42.806-15.937,65.211-20.825c12.462-2.719,24.991-5.007,37.622-6.684c7.238-0.961,14.546-1.72,21.837-1.876
		c13.129-0.281,26.242-2.123,39.397-0.593c0.418,0.021,0.835,0.043,1.253,0.064c1.957,0.096,3.915,0.193,5.872,0.289
		c0.556,2.623-0.871,4.281-2.605,6.003c-13.175,13.081-26.285,26.227-39.406,39.362c-1.491,1.493-3.448,2.748-3,5.34
		c-6.02,0.05-12.057-0.154-17.981,1.256c-7.436,1.045-14.948,1.733-22.273,3.298c-3.228,0.69-6.696,0.89-9.734,2.486
		c-6.517,0.909-12.856,2.53-19.052,4.729c-7.555,1.785-14.93,4.111-22.02,7.298c-9.985,3.192-19.653,7.144-28.928,12.043
		c-8.056,3.238-15.754,7.163-22.984,11.985c-0.493,0.046-1.092-0.075-1.463,0.162c-6.8,4.333-13.675,8.557-20.32,13.119
		c-6.256,4.295-12.836,8.188-18.256,13.617c-4.824,2.935-8.987,6.735-13.165,10.456c-10.843,9.658-21.794,19.228-30.93,30.619
		c-4.639,4.264-8.483,9.236-12.376,14.144c-5.837,7.358-11.776,14.656-16.539,22.799c-5.812,7.902-10.888,16.255-15.331,24.996
		c-3.794,5.581-6.355,11.84-9.71,17.664c-1.715,2.977-3.437,5.959-3.968,9.437c-3.585,6.3-6.154,13.006-8.006,20
		c-3.23,5.93-4.75,12.424-6.237,18.929c-4.101,10.692-6.104,21.922-8.465,33.06c-1.154,7.67-3.343,15.192-3.284,23.034
		c-1.165,5.602-2.11,11.228-1.893,16.984c-0.861,7.306-1.455,14.623-0.924,21.988C347.102,685.779,347.051,688.449,347,691.118z"/>
	<path style="fill:#514E50;" d="M660.993,349.01c-0.448-2.592,1.509-3.847,3-5.34c13.121-13.135,26.231-26.282,39.406-39.362
		c1.734-1.722,3.162-3.38,2.605-6.003c6.521-0.694,12.922,0.73,19.353,1.292c7.474,0.653,14.868,2.178,22.314,3.195
		c21.663,2.959,42.709,8.403,63.333,15.574c-0.197,2.509-1.831,4.137-3.482,5.784c-9.86,9.838-19.744,19.653-29.531,29.563
		c-3.487,3.531-7.149,5.635-12.225,3.443c-1.785-0.771-3.718-1.342-5.751-1.014c-5.68-2.203-11.769-2.63-17.662-3.864
		c-2.194-0.46-4.376-1.277-6.77-1.214c-4.925,0.129-9.74-1.033-14.573-1.877c-5.047,0.388-9.932-1.733-15.004-0.963
		c-7.028,0.237-13.96-1.923-21.022-0.842c-6.047-0.829-11.96,1.108-17.978,0.87C664.945,348.058,662.904,348.019,660.993,349.01z"/>
	<path style="fill:#D0D1D2;" d="M1122.02,525.13c2.198,1.41,2.247,3.976,2.85,6.042c4.371,14.986,8.514,30.038,12.712,45.074
		c1.356,4.856,2.479,9.776,4.222,14.526c0.377,1.028,0.13,2.285,0.17,3.437c-6.095-0.205-11.538-2.601-16.964-5.053
		c-0.077-1.31,0.007-2.585-0.377-3.923c-4.599-16.029-9.105-32.085-13.635-48.134c0.483-2.826,2.774-4.599,4.052-6.962
		C1117.797,529.057,1118.635,525.321,1122.02,525.13z"/>
	<path style="fill:#D0D1D2;" d="M648.979,221.162c24.367,0.001,48.734,0.002,73.101,0.003c-1.338,5.433-5.346,9.324-8.063,13.96
		c-16.833,0.002-33.666-0.022-50.498,0.051c-1.508,0.007-3.385-0.943-4.514,1.012C654.417,232.011,651.216,226.908,648.979,221.162z
		"/>
	<path style="fill:#D0D1D2;" d="M230.058,594.18c3.391-13.92,7.59-27.612,11.597-41.36c2.276-7.81,4.247-15.71,6.453-23.542
		c0.335-1.189,0.592-2.621,2.031-3.196c0.856-0.002,1.689,0.179,2.198,0.896c2.733,3.852,6.651,6.776,8.717,11.146
		c-1.282,0.48-1.611,1.798-1.837,2.787c-3.724,16.268-9.438,31.992-13.159,48.258C241.064,591.929,235.802,593.823,230.058,594.18z"
		/>
	<path style="fill:#D0D1D2;" d="M380.014,338.142c16.361-12.733,33.019-25.07,49.699-37.38c1.981-1.462,3.554-3.541,6.306-3.63
		c1.429,0.653,0.983,1.957,0.991,3.044c0.032,4.649,0.003,9.298-0.003,13.947c-1.741,0.055-3.099,0.976-4.423,1.966
		c-10.478,7.833-21.015,15.589-31.366,23.586c-1.533,1.184-4.005,1.84-4.201,4.427C391.118,342.774,385.228,341.421,380.014,338.142
		z"/>
	<path style="fill:#DBDCDD;" d="M659.004,236.188c1.13-1.955,3.006-1.005,4.514-1.012c16.832-0.073,33.665-0.049,50.498-0.051
		c-3.751,5.936-8.641,10.767-14.318,14.853c-8.701,6.262-19.735,5.429-28.708-0.456c-4.749-3.115-8.567-7.197-11.734-11.888
		C659.008,237.264,659.081,236.675,659.004,236.188z"/>
	<path style="fill:#DBDCDD;" d="M1110.998,537.098c4.53,16.049,9.036,32.105,13.635,48.134c0.384,1.337,0.3,2.613,0.377,3.923
		c-2.687,0.289-4.745-1.324-6.841-2.509c-6.328-3.578-12.391-7.544-16.03-14.184c-3.217-5.869-2.797-12.085-1.151-18.185
		c1.506-5.578,4.551-10.522,7.77-15.296C1109.282,538.204,1110.24,537.719,1110.998,537.098z"/>
	<path style="fill:#DBDCDD;" d="M246.056,589.17c3.722-16.265,9.435-31.989,13.159-48.258c0.226-0.989,0.555-2.307,1.837-2.787
		c5.115,5.351,7.872,11.958,9.944,18.897c0.99,3.314,0.977,6.652,0.078,10.07c-0.934,3.554-2.225,6.69-4.843,9.475
		c-4.604,4.898-9.839,8.75-15.937,11.491C248.942,588.666,247.628,589.41,246.056,589.17z"/>
	<path style="fill:#DBDCDD;" d="M397.016,344.101c0.196-2.587,2.668-3.243,4.201-4.427c10.351-7.997,20.888-15.753,31.366-23.586
		c1.324-0.99,2.682-1.91,4.423-1.966c0.091,6.619-0.989,13.023-3.989,18.961c-4.238,8.387-11.48,12.297-20.563,13.006
		C407.211,346.497,402.033,345.768,397.016,344.101z"/>
	<path style="fill:#818283;" d="M700.132,298.015c-0.418-0.021-0.835-0.043-1.253-0.064
		C699.332,297.273,699.745,297.383,700.132,298.015z"/>
	<path style="fill:#605D5E;" d="M391.925,854.194c-2.41-0.605-3.612,1.169-4.998,2.554c-9.272,9.264-18.538,18.534-27.806,27.802
		c-1.394,1.394-2.616,3.123-5.009,2.559c-2.492-4.073-5.179-8.04-7.44-12.238c-6.642-12.329-13.08-24.767-18.301-37.789
		c2.991,0.205,4.876-1.668,6.77-3.565c9.058-9.074,18.118-18.146,27.208-27.189c1.158-1.151,2.092-2.61,3.717-3.157
		c1.617-0.07,2.587,0.649,2.905,2.172c0.306,1.465,0.71,2.859,2.019,3.78c-0.119,3.126,1.732,5.639,2.848,8.309
		c4.701,11.25,10.031,22.211,16.166,32.765C390.744,851.472,391.29,852.859,391.925,854.194z"/>
	<path style="fill:#D0D1D2;" d="M1175.035,483.139c-2.254,0.495-3.568,2.845-5.979,3.029c-1.895-3.35-4.53-6.07-7.233-8.771
		c-46.093-46.052-92.164-92.124-138.221-138.212c-3.632-3.634-7.238-7.276-11.591-10.071c4.835-4.11,10.886-6.264,16.008-9.922
		c0.807-0.577,1.669-1.001,2.012-2.003c1.999-0.267,3.659-1.205,5.053-2.623c0.818-0.833,1.65-1.577,2.93-1.446
		c3.147,0.168,4.948,2.45,6.931,4.433c33.336,33.331,66.669,66.666,100.003,100c15.43,15.43,30.859,30.862,46.292,46.288
		c1.763,1.762,3.64,3.445,3.762,6.199c-3.469,1.48-6.291,3.998-9.484,5.921C1181.885,478.147,1178.305,480.419,1175.035,483.139z"/>
	<path style="fill:#D0D1D2;" d="M936.006,295.131c5.797,3.185,10.688,7.635,15.985,11.514c7.299,5.345,14.442,10.902,21.663,16.354
		c5.901,4.455,11.817,8.889,17.728,13.329c0.611,0.459,0.598,1.134,0.654,1.789c-4.348,2.413-9.209,3.39-13.802,5.141
		c-14.727-11.021-29.327-21.946-44.167-33.051C934.233,305.252,933.12,299.966,936.006,295.131z"/>
	<path style="fill:#242021;" d="M619.449,884.981c5.515-14.477,10.815-28.389,16.01-42.028c1.228-1.149,2.453-0.805,3.578-0.806
		c18.663-0.006,37.325,0.004,55.988,0.034c8.839,0.014,17.602,0.753,26.195,2.968c2.275,0.586,4.386,1.559,6.389,2.76
		c4.334,2.601,6.68,6.312,6.495,11.508c-0.188,5.291-1.792,10.149-4.553,14.583c-1.792,2.878-4.36,5.007-7.666,6.105
		c-8.069,2.68-16.234,4.986-24.814,5.018c-24.994,0.093-49.988,0.092-74.983,0.117C621.442,885.242,620.794,885.118,619.449,884.981
		z"/>
	<path style="fill:#242021;" d="M647.844,811.568c5.556-14.407,10.846-28.124,16.008-41.509c1.632-0.981,2.993-0.624,4.288-0.625
		c19.134-0.025,38.269-0.065,57.403,0.009c6.475,0.025,12.959,0.26,19.328,1.652c1.455,0.318,2.924,0.634,4.322,1.13
		c6.262,2.223,8.2,5.932,6.38,12.438c-1.069,3.819-2.163,7.629-4.256,11.095c-6.018,9.967-15.195,14.46-26.418,15.34
		c-4.471,0.351-8.972,0.44-13.46,0.45c-19.467,0.046-38.934,0.02-58.401,0.02C651.552,811.568,650.066,811.568,647.844,811.568z
		 M655.948,805.972c13.321,0,25.925,0,38.098,0c7.111-4.877,13.988-9.382,20.631-14.209c6.695-4.864,13.495-9.643,19.761-15.691
		c-4.74-1.274-60.614-2.37-67.113-1.464C664.218,785.046,659.418,794.955,655.948,805.972z"/>
	<path style="fill:#242021;" d="M888.707,810.7c5.481-14.026,10.838-27.735,16.083-41.157c1.651-0.806,3.007-0.519,4.319-0.52
		c22.663-0.019,45.327,0.002,67.99-0.029c3.683-0.005,7.313,0.234,10.862,1.274c7.545,2.211,10.396,7.373,8.06,14.828
		c-3.086,9.848-9.842,16.391-19.037,20.566c-7.685,3.489-15.888,4.979-24.246,5.086c-20.827,0.266-41.658,0.263-62.487,0.355
		C889.932,811.105,889.614,810.943,888.707,810.7z"/>
	<path style="fill:#707072;" d="M721.01,349.185c4.832,0.844,9.647,2.006,14.573,1.877c2.394-0.063,4.576,0.755,6.77,1.214
		c5.893,1.234,11.982,1.661,17.662,3.864c-0.289,1.57,0.457,2.914,0.989,4.284c5.344,13.778,8.765,28.129,11.712,42.527
		c1.598,7.81,2.499,15.85,3.467,23.831c1.843,15.185,1.966,30.38,1.797,45.603c-0.082,7.398-1.157,14.746-1.764,22.112
		c-0.663,8.04-2.083,15.944-3.329,23.864c-1.19,7.566-3.225,15.022-5.237,22.432c-4.045,14.902-9.429,29.322-15.605,43.491
		c-7.612,17.462-17.125,33.802-27.915,49.429c-5.236,7.583-11.01,14.761-16.895,21.874c-6.779,8.193-13.88,16.047-21.576,23.347
		c-10.779,10.225-22.198,19.697-34.29,28.356c-13.43,9.617-27.48,18.236-42.401,25.279c-17.082,8.062-34.595,14.956-52.959,19.83
		c-11.729,3.113-23.544,5.631-35.458,7.519c-8.409,1.333-17.023,1.749-25.545,2.471c-9.303,0.788-18.571,0.893-27.806,0.56
		c-7.188-0.26-14.427-0.643-21.628-1.626c-5.836-0.796-11.727-1.321-17.582-2.144c-8.925-1.255-17.684-3.285-26.438-5.319
		c-14.565-3.383-28.526-8.635-42.382-14.17c-2.747-1.097-5.126-3.037-8.118-3.587c-1.928-12.582-3.44-25.198-3.04-37.967
		c1.163-0.013,2.24,0.089,3.354,0.663c10.701,5.516,21.751,10.237,33.022,14.466c11.218,4.209,22.704,7.461,34.43,9.847
		c8.339,1.697,16.632,3.533,25.18,4.248c5.866,0.491,11.726,1.8,17.619,1.694c12.765-0.23,25.522,0.638,38.316-0.717
		c6.695-0.709,13.433-1.36,20.054-2.425c8.689-1.398,17.286-3.434,25.836-5.683c14.018-3.687,27.632-8.507,40.768-14.473
		c16.688-7.58,32.654-16.557,47.383-27.594c9.517-7.131,18.954-14.35,27.338-22.829c6.302-6.374,12.932-12.434,18.523-19.491
		c3.683-4.648,7.648-9.081,11.184-13.836c5.401-7.263,10.438-14.783,15.167-22.514c6.314-10.322,11.621-21.189,16.585-32.163
		c4.515-9.983,8.221-20.387,11.104-31.001c2.271-8.36,4.562-16.76,6.016-25.284c1.375-8.061,2.406-16.213,3.406-24.351
		c1.093-8.887-0.357-17.867,1.714-26.637c0.635-2.687-1.072-5.089-1.072-7.799c0-5.769,0.001-11.51-0.704-17.324
		c-1.105-9.119-2.411-18.173-4.153-27.184c-3.025-15.649-7.498-30.847-13.468-45.638C723.91,357.889,721.547,353.845,721.01,349.185
		z"/>
	<path style="fill:#242021;" d="M1128.846,811.774c4.917-12.695,9.688-25.015,14.516-37.48c0.639-0.094,1.276-0.269,1.913-0.269
		c23.309,0.017,46.617,0.046,69.926,0.087c1.994,0.003,3.977,0.057,5.955,0.494c9.703,2.142,13.077,7.512,10.665,17.153
		c-2.462,9.844-9.059,15.613-18.526,18.271c-4.803,1.348-9.809,1.901-14.797,1.917c-22.476,0.074-44.953,0.032-67.43,0.025
		C1130.577,811.971,1130.087,811.888,1128.846,811.774z"/>
	<path style="fill:#78797B;" d="M721.01,349.185c0.537,4.66,2.9,8.704,4.605,12.929c5.97,14.791,10.443,29.989,13.468,45.638
		c1.742,9.011,3.047,18.066,4.153,27.184c0.705,5.814,0.704,11.555,0.704,17.324c0,2.71,1.707,5.112,1.072,7.799
		c-2.071,8.77-0.621,17.749-1.714,26.637c-1,8.137-2.031,16.29-3.406,24.351c-1.454,8.523-3.745,16.923-6.016,25.284
		c-2.883,10.613-6.589,21.018-11.104,31.001c-4.963,10.973-10.27,21.841-16.585,32.163c-4.729,7.731-9.766,15.251-15.167,22.514
		c-3.536,4.755-7.501,9.188-11.184,13.836c-5.591,7.057-12.221,13.117-18.523,19.491c-8.384,8.479-17.821,15.697-27.338,22.829
		c-14.729,11.037-30.695,20.014-47.383,27.594c-13.136,5.967-26.75,10.787-40.768,14.473c-8.55,2.249-17.147,4.284-25.836,5.683
		c-6.621,1.065-13.359,1.716-20.054,2.425c-12.794,1.355-25.551,0.486-38.316,0.717c-5.893,0.106-11.753-1.203-17.619-1.694
		c-8.548-0.715-16.841-2.55-25.18-4.248c-11.727-2.387-23.213-5.638-34.43-9.847c-11.271-4.229-22.321-8.95-33.022-14.466
		c-1.114-0.574-2.191-0.676-3.354-0.663c0.139-2.408-1.306-4.588-1.012-7.019c0.051-2.669,0.102-5.338,0.153-8.008
		c2.063-0.224,3.895,0.407,5.684,1.39c5.629,3.094,11.319,6.031,17.165,8.745c16.464,7.642,33.505,13.197,51.228,17.154
		c12.696,2.835,25.507,4.884,38.366,5.475c12.707,0.584,25.512,0.98,38.31-0.559c7.979-0.959,15.942-1.927,23.902-3.072
		c8.629-1.241,17.035-3.336,25.335-5.763c21.753-6.361,42.336-15.394,61.747-27.222c16.572-10.098,31.634-22.044,45.735-35.274
		c4.472-4.196,8.597-8.734,12.588-13.419c4.386-5.149,8.762-10.296,12.878-15.66c6.426-8.374,12.139-17.188,17.335-26.401
		c7.636-13.542,14.393-27.468,19.58-42.105c4.542-12.818,8.033-25.903,10.306-39.388c1.5-8.899,3.281-17.854,3.486-26.754
		c0.459-19.988,1.054-40.015-2.597-59.931c-2.158-11.773-4.517-23.429-8.031-34.861c-3.486-11.34-7.706-22.383-13.027-32.997
		c-0.662-1.321-1.403-2.659-1.136-4.246C711.078,347.453,715.963,349.573,721.01,349.185z"/>
	<path style="fill:#C5C5C6;" d="M1195.002,470.039c-0.121-2.754-1.999-4.437-3.762-6.199
		c-15.434-15.427-30.862-30.858-46.292-46.288c-33.334-33.334-66.667-66.668-100.003-100c-1.983-1.983-3.784-4.264-6.931-4.433
		c2.873-3.134,7.053-4.396,10.197-7.102c1.568-1.35,3.962-1.672,4.817-3.88c4.411-2.047,7.542-6.001,11.963-8.032
		c1.628,0.632,2.565,2.08,3.724,3.238c49.661,49.631,99.304,99.279,148.953,148.923c1.99,1.99,4.177,3.844,4.41,6.945
		C1213.051,458.821,1204.026,464.43,1195.002,470.039z"/>
	<path style="fill:#9E9FA0;" d="M353.254,621.104c2.361-11.138,4.364-22.368,8.465-33.06c4.646,0.613,7.226,4.495,10.54,7.028
		c16.793,12.835,35.094,22.43,55.406,28.516c13.766,4.125,27.817,6.005,41.978,7.51c8.286,0.881,16.599-0.265,24.764-1.198
		c9.365-1.07,18.663-2.943,27.86-5.535c16.195-4.565,31.188-11.548,45.323-20.399c12.751-7.984,24.296-17.466,34.234-28.942
		c5.522-6.377,10.867-12.836,15.56-19.82c7.004-10.424,12.995-21.432,17.178-33.28c3.703-10.489,7.157-21.051,8.81-32.176
		c0.987-6.642,2.12-13.314,2.472-19.961c0.401-7.552,0.35-15.159-0.602-22.809c-1.094-8.794-2.092-17.572-4.255-26.159
		c-3.177-12.613-7.415-24.897-13.409-36.448c-4.47-8.614-9.317-17.072-15.5-24.633c-0.962-1.176-1.065-2.358-1.074-3.686
		c3.038-1.596,6.506-1.796,9.734-2.486c7.325-1.565,14.837-2.253,22.273-3.298c2.099,4.449,5.089,8.373,7.549,12.615
		c5.402,9.314,9.778,19.057,13.477,29.11c4.19,11.388,7.308,23.037,9.256,35.086c1.154,7.137,2.327,14.302,2.57,21.442
		c0.478,14.04,0.611,28.114-1.763,42.098c-1.562,9.201-3.272,18.333-5.946,27.283c-4.495,15.046-10.574,29.38-18.436,42.999
		c-8.119,14.065-17.839,26.921-28.843,38.789c-7.09,7.646-15.213,14.196-23.452,20.598c-16.805,13.057-35.325,22.926-55.384,29.862
		c-10.671,3.69-21.584,6.479-32.82,8.153c-9.944,1.481-19.85,2.793-29.919,2.857c-10.089,0.065-20.097-0.523-30.114-1.891
		c-5.362-0.732-10.718-1.475-15.989-2.609c-10.587-2.277-20.908-5.528-30.95-9.585c-15.657-6.325-30.469-14.236-44.01-24.367
		C356.596,621.476,355.103,621.057,353.254,621.104z"/>
	<path style="fill:#949496;" d="M353.254,621.104c1.849-0.047,3.341,0.372,4.985,1.601c13.541,10.13,28.353,18.041,44.01,24.367
		c10.042,4.057,20.363,7.308,30.95,9.585c5.271,1.134,10.627,1.877,15.989,2.609c10.017,1.368,20.025,1.956,30.114,1.891
		c10.069-0.064,19.975-1.376,29.919-2.857c11.236-1.674,22.15-4.463,32.82-8.153c20.059-6.936,38.579-16.805,55.384-29.862
		c8.239-6.402,16.362-12.952,23.452-20.598c11.005-11.868,20.724-24.724,28.843-38.789c7.862-13.619,13.942-27.953,18.436-42.999
		c2.674-8.949,4.384-18.081,5.946-27.283c2.373-13.984,2.24-28.058,1.763-42.098c-0.243-7.14-1.417-14.305-2.57-21.442
		c-1.948-12.048-5.066-23.698-9.256-35.086c-3.699-10.054-8.076-19.796-13.477-29.11c-2.46-4.242-5.45-8.166-7.549-12.615
		c5.924-1.41,11.962-1.207,17.981-1.256c1.911-0.991,3.953-0.951,6.013-0.76c-0.447,2.843,1.926,4.449,2.992,6.602
		c5.267,10.642,10.657,21.238,14.57,32.467c3.068,8.804,5.779,17.728,7.51,26.932c1.181,6.278,2.391,12.523,3.153,18.886
		c0.682,5.701,1.892,11.337,1.791,17.118c-0.232,13.384,0.625,26.772-1.842,40.115c-1.306,7.061-2.411,14.169-3.876,21.212
		c-2.347,11.277-6.092,22.117-10.422,32.742c-4.677,11.478-10.194,22.599-16.771,33.092c-10.033,16.006-21.77,30.669-35.504,43.753
		c-8.159,7.772-16.915,14.715-26.099,21.166c-12.319,8.652-25.459,15.813-39.29,21.771c-9.521,4.102-19.266,7.448-29.267,10.152
		c-7.908,2.138-15.881,3.78-23.98,5.065c-8.777,1.393-17.543,2.587-26.42,2.786c-13.884,0.311-27.66-0.401-41.416-2.82
		c-10.171-1.789-20.275-3.718-30.125-6.73c-20.096-6.145-38.86-15.226-56.558-26.524c-1.702-1.087-3.344-2.158-5.481-1.897
		C349.911,636.296,352.1,628.774,353.254,621.104z"/>
	<path style="fill:#818283;" d="M706.006,348.222c-0.267,1.587,0.473,2.925,1.136,4.246c5.321,10.614,9.541,21.657,13.027,32.997
		c3.514,11.432,5.873,23.088,8.031,34.861c3.65,19.916,3.056,39.942,2.597,59.931c-0.204,8.9-1.986,17.855-3.486,26.754
		c-2.273,13.485-5.763,26.569-10.306,39.388c-5.187,14.637-11.944,28.563-19.58,42.105c-5.195,9.214-10.909,18.028-17.335,26.401
		c-4.117,5.364-8.493,10.512-12.878,15.66c-3.991,4.685-8.116,9.223-12.588,13.419c-14.101,13.23-29.162,25.176-45.735,35.274
		c-19.411,11.828-39.993,20.861-61.747,27.222c-8.301,2.427-16.707,4.522-25.335,5.763c-7.96,1.145-15.923,2.112-23.902,3.072
		c-12.798,1.539-25.603,1.142-38.31,0.559c-12.86-0.591-25.671-2.64-38.366-5.475c-17.723-3.957-34.764-9.512-51.228-17.154
		c-5.847-2.714-11.536-5.651-17.165-8.745c-1.789-0.983-3.621-1.615-5.684-1.39c-0.531-7.365,0.064-14.682,0.924-21.988
		c2.248,0.158,3.998,1.53,5.862,2.536c4.493,2.425,8.813,5.179,13.347,7.521c14.059,7.263,28.654,13.221,43.899,17.53
		c7.872,2.225,15.823,4.073,23.891,5.483c5.183,0.906,10.41,1.413,15.579,2.186c5.877,0.879,11.801,1.187,17.65,1.562
		c11.536,0.74,23.081-0.127,34.608-1.655c7.965-1.056,15.877-2.21,23.706-3.97c14.753-3.316,29.128-7.698,42.995-13.885
		c10.877-4.852,21.404-10.279,31.615-16.365c15.967-9.516,30.157-21.363,43.402-34.259c6.593-6.419,12.57-13.556,18.168-20.937
		c8.476-11.177,16.295-22.76,22.524-35.371c4.165-8.432,8.669-16.698,11.828-25.598c5.761-16.232,10.718-32.616,13.165-49.783
		c1.089-7.64,2.159-15.32,2.519-22.949c0.646-13.697,0.373-27.426-1.667-41.109c-1.281-8.589-2.432-17.218-4.588-25.591
		c-4.555-17.685-10.19-35.033-18.946-51.196c-1.333-2.461-2.553-4.998-2.648-7.893C692.046,346.299,698.978,348.459,706.006,348.222
		z"/>
	<path style="fill:#C5C5C6;" d="M541.005,380.12c9.275-4.899,18.943-8.851,28.928-12.043c3.812,2.051,5.816,5.913,8.322,9.068
		c8.102,10.198,15.026,21.132,20.022,33.336c5.15,12.58,8.464,25.615,9.504,38.974c0.879,11.298,0.584,22.721-1.521,34.12
		c-2.135,11.563-5.257,22.719-10.235,33.249c-7.895,16.7-18.391,31.543-32.68,43.591c-10.274,8.662-21.26,15.946-33.559,21.481
		c-14.102,6.347-28.902,9.792-44.115,11.072c-12.673,1.067-25.381-0.023-37.894-2.817c-16.251-3.629-31.272-10.115-45.141-19.223
		c-8.039-5.279-15.317-11.537-21.928-18.56c-1.303-1.384-2.334-3.392-4.745-3.252c0.531-3.478,2.253-6.46,3.968-9.437
		c3.355-5.823,5.916-12.082,9.71-17.664c3.101,0.129,4.575,2.599,6.111,4.637c4.229,5.612,9.208,10.576,14.561,14.94
		c8.823,7.193,18.69,12.868,29.438,16.88c10.364,3.869,21.109,5.901,32.098,6.621c8.43,0.552,16.782-0.455,25.073-1.97
		c10.104-1.845,19.724-5.385,28.554-10.376c11.032-6.236,21.276-13.642,29.396-23.774c5.284-6.592,10.206-13.363,14.076-20.812
		c5.485-10.556,8.632-21.831,10.259-33.684c1.457-10.617,1.441-21.205-0.503-31.539c-2.271-12.069-6.069-23.805-12.848-34.368
		C558.964,397.835,551.563,387.62,541.005,380.12z"/>
	<path style="fill:#8A8B8D;" d="M684.984,347.38c0.095,2.894,1.315,5.432,2.648,7.893c8.757,16.163,14.392,33.511,18.946,51.196
		c2.156,8.372,3.307,17.001,4.588,25.591c2.04,13.683,2.312,27.412,1.667,41.109c-0.359,7.629-1.43,15.309-2.519,22.949
		c-2.447,17.167-7.404,33.551-13.165,49.783c-3.159,8.901-7.663,17.167-11.828,25.598c-6.229,12.611-14.048,24.194-22.524,35.371
		c-5.598,7.382-11.575,14.518-18.168,20.937c-13.245,12.896-27.435,24.743-43.402,34.259c-10.211,6.086-20.738,11.512-31.615,16.365
		c-13.867,6.186-28.242,10.568-42.995,13.885c-7.828,1.76-15.74,2.914-23.706,3.97c-11.526,1.528-23.072,2.395-34.608,1.655
		c-5.849-0.375-11.772-0.682-17.65-1.562c-5.17-0.774-10.397-1.281-15.579-2.186c-8.068-1.41-16.019-3.258-23.891-5.483
		c-15.245-4.308-29.84-10.267-43.899-17.53c-4.534-2.342-8.854-5.096-13.347-7.521c-1.864-1.006-3.614-2.378-5.862-2.536
		c-0.217-5.756,0.728-11.382,1.893-16.984c2.138-0.26,3.779,0.811,5.481,1.897c17.698,11.298,36.462,20.38,56.558,26.524
		c9.849,3.012,19.954,4.941,30.125,6.73c13.757,2.419,27.532,3.132,41.416,2.82c8.877-0.199,17.643-1.393,26.42-2.786
		c8.099-1.285,16.072-2.927,23.98-5.065c10.001-2.704,19.746-6.051,29.267-10.152c13.831-5.958,26.972-13.12,39.29-21.771
		c9.185-6.451,17.941-13.393,26.099-21.166c13.734-13.084,25.471-27.747,35.504-43.753c6.577-10.493,12.094-21.614,16.771-33.092
		c4.33-10.626,8.075-21.465,10.422-32.742c1.466-7.043,2.571-14.151,3.876-21.212c2.467-13.343,1.609-26.731,1.842-40.115
		c0.1-5.781-1.109-11.417-1.791-17.118c-0.762-6.363-1.972-12.608-3.153-18.886c-1.732-9.204-4.442-18.128-7.51-26.932
		c-3.913-11.23-9.303-21.825-14.57-32.467c-1.066-2.154-3.439-3.759-2.992-6.602C673.024,348.488,678.937,346.551,684.984,347.38z"
		/>
	<path style="fill:#DBDCDD;" d="M477.981,419.002c5.42-5.428,12-9.322,18.256-13.617c6.644-4.561,13.52-8.786,20.32-13.119
		c0.371-0.237,0.97-0.116,1.463-0.162c0.067,0.649-0.031,1.396,0.632,1.791c7.122,4.239,13.31,9.501,18.644,15.9
		c4.472,5.365,8.319,11.146,11.128,17.426c3.331,7.449,5.574,15.261,6.829,23.489c1.683,11.033,0.55,21.649-2.339,32.163
		c-1.957,7.122-4.851,13.927-8.836,20.249c-3.354,5.322-6.986,10.521-11.515,14.756c-7.104,6.643-15.147,12.081-24.105,16.181
		c-9.567,4.379-19.665,6.128-29.973,7.008c-3.919,0.335-7.851-0.294-11.8-0.784c-7.909-0.98-15.471-3.078-22.652-6.233
		c-17.384-7.64-30.377-20.114-39.062-37.033c4.763-8.143,10.702-15.44,16.539-22.799c3.893-4.907,7.737-9.88,12.376-14.144
		c0.936,0.329,1.05,1.076,1.164,1.955c0.377,2.921,0.569,5.91,1.357,8.726c2.169,7.747,5.694,14.74,11.897,20.179
		c11.331,9.935,24.127,13.504,38.912,9.635c7.665-2.006,13.589-6.371,18.954-12.005c10.7-11.236,13.629-24.79,9.293-38.916
		c-4.738-15.438-15.425-25.805-32.198-28.73C481.611,420.632,479.189,421.077,477.981,419.002z"/>
	<path style="fill:#B9BABB;" d="M375.962,549.116c2.411-0.14,3.442,1.867,4.745,3.252c6.611,7.023,13.889,13.281,21.928,18.56
		c13.869,9.108,28.891,15.594,45.141,19.223c12.513,2.794,25.221,3.884,37.894,2.817c15.213-1.28,30.013-4.725,44.115-11.072
		c12.298-5.535,23.285-12.819,33.559-21.481c14.289-12.048,24.785-26.89,32.68-43.591c4.978-10.53,8.1-21.685,10.235-33.249
		c2.105-11.399,2.4-22.821,1.521-34.12c-1.04-13.36-4.354-26.394-9.504-38.974c-4.996-12.204-11.92-23.137-20.022-33.336
		c-2.506-3.155-4.511-7.017-8.322-9.068c7.09-3.187,14.465-5.513,22.02-7.298c0.134,3.328,2.789,5.07,4.526,7.446
		c7.985,10.926,15.007,22.391,20.181,34.993c6.285,15.309,9.977,31.243,11.213,47.615c0.994,13.16-0.047,26.335-2.698,39.383
		c-3.435,16.905-9.262,32.76-17.988,47.691c-9.305,15.923-21.47,29.181-35.406,41.07c-12.061,10.29-25.597,18.109-40.246,23.774
		c-17.242,6.667-35.299,9.977-53.826,10.359c-5.114,0.105-10.195-0.329-15.306-0.82c-6.387-0.613-12.641-1.719-18.906-2.939
		c-7.74-1.508-15.173-4.042-22.544-6.77c-8.045-2.978-15.797-6.647-23.042-11.2c-9.635-6.054-18.94-12.614-26.94-20.818
		c-0.842-0.863-1.71-1.586-3.014-1.447C369.808,562.121,372.377,555.415,375.962,549.116z"/>
	<path style="fill:#ADAEAF;" d="M367.956,569.115c1.304-0.139,2.172,0.584,3.014,1.447c8.001,8.203,17.305,14.764,26.94,20.818
		c7.245,4.552,14.997,8.222,23.042,11.2c7.371,2.729,14.804,5.262,22.544,6.77c6.264,1.221,12.519,2.326,18.906,2.939
		c5.111,0.491,10.192,0.925,15.306,0.82c18.527-0.382,36.584-3.692,53.826-10.359c14.65-5.665,28.185-13.484,40.246-23.774
		c13.935-11.889,26.1-25.148,35.406-41.07c8.726-14.931,14.553-30.786,17.988-47.691c2.651-13.048,3.692-26.223,2.698-39.383
		c-1.236-16.373-4.928-32.306-11.213-47.615c-5.174-12.602-12.196-24.067-20.181-34.993c-1.737-2.376-4.392-4.118-4.526-7.446
		c6.196-2.199,12.536-3.821,19.052-4.729c0.009,1.328,0.112,2.51,1.074,3.686c6.183,7.561,11.03,16.019,15.5,24.633
		c5.993,11.551,10.232,23.834,13.409,36.448c2.163,8.587,3.161,17.365,4.255,26.159c0.952,7.651,1.002,15.258,0.602,22.809
		c-0.353,6.647-1.486,13.319-2.472,19.961c-1.652,11.125-5.107,21.687-8.81,32.176c-4.182,11.848-10.174,22.856-17.178,33.28
		c-4.693,6.984-10.037,13.443-15.56,19.82c-9.938,11.476-21.483,20.958-34.234,28.942c-14.135,8.851-29.128,15.834-45.323,20.399
		c-9.197,2.592-18.495,4.465-27.86,5.535c-8.166,0.933-16.478,2.079-24.764,1.198c-14.162-1.505-28.212-3.386-41.978-7.51
		c-20.311-6.086-38.613-15.681-55.406-28.516c-3.314-2.533-5.894-6.415-10.54-7.028
		C363.206,581.539,364.726,575.046,367.956,569.115z"/>
	<path style="fill:#D0D1D2;" d="M404.972,497.019c8.685,16.918,21.678,29.393,39.062,37.033c7.18,3.156,14.743,5.253,22.652,6.233
		c3.95,0.49,7.881,1.118,11.8,0.784c10.308-0.88,20.405-2.629,29.973-7.008c8.958-4.1,17.001-9.539,24.105-16.181
		c4.529-4.235,8.161-9.433,11.515-14.756c3.985-6.323,6.879-13.128,8.836-20.249c2.889-10.514,4.023-21.13,2.339-32.163
		c-1.255-8.227-3.498-16.039-6.829-23.489c-2.809-6.281-6.656-12.061-11.128-17.426c-5.334-6.4-11.523-11.661-18.644-15.9
		c-0.663-0.394-0.565-1.142-0.632-1.791c7.23-4.822,14.928-8.747,22.984-11.985c10.558,7.499,17.959,17.715,24.85,28.452
		c6.779,10.563,10.578,22.299,12.848,34.368c1.944,10.334,1.96,20.922,0.503,31.539c-1.627,11.852-4.774,23.128-10.259,33.684
		c-3.871,7.449-8.793,14.219-14.076,20.812c-8.12,10.132-18.365,17.538-29.396,23.774c-8.83,4.991-18.45,8.531-28.554,10.376
		c-8.29,1.514-16.643,2.522-25.073,1.97c-10.989-0.72-21.734-2.752-32.098-6.621c-10.748-4.012-20.615-9.687-29.438-16.88
		c-5.353-4.364-10.333-9.328-14.561-14.94c-1.535-2.038-3.009-4.508-6.111-4.637C394.083,513.274,399.16,504.921,404.972,497.019z"
		/>
	<path style="fill:#3D3A3B;" d="M655.948,805.972c3.47-11.016,8.27-20.926,11.378-31.363c6.499-0.906,62.373,0.189,67.113,1.464
		c-6.266,6.048-13.066,10.827-19.761,15.691c-6.643,4.826-13.52,9.331-20.631,14.209
		C681.873,805.972,669.269,805.972,655.948,805.972z"/>
</g>
</svg>
