<?xml version="1.0" encoding="iso-8859-1"?>
<!-- Generator: Adobe Illustrator 27.0.0, SVG Export Plug-In . SVG Version: 6.00 Build 0)  -->
<svg version="1.1" id="Layer_1" xmlns="http://www.w3.org/2000/svg" xmlns:xlink="http://www.w3.org/1999/xlink" x="0px" y="0px"
	 viewBox="0 0 1689 357" style="enable-background:new 0 0 1689 357;" xml:space="preserve">
<g>
	<path style="fill:#0EB2A9;" d="M0,68c1.629-3.175,2.85-6.516,5.49-9.178c4.861-4.902,10.709-5.978,16.996-4.477
		c6.475,1.546,10.55,6.029,12.453,12.377c0.713,2.38,0.989,4.843,0.988,7.37c-0.034,69.591-0.026,139.181-0.027,208.772
		c0,5.843-1.401,11.16-5.717,15.414c-8.29,8.172-21.998,6.14-27.637-4.064C1.605,292.512,1.368,290.481,0,289
		C0,215.333,0,141.667,0,68z"/>
	<path style="fill:#1E1B40;" d="M1689,163c-1.669,0.033-1.446,1.618-1.778,2.485c-13.275,34.671-26.505,69.36-39.65,104.081
		c-2.055,5.429-3.922,10.922-6.523,16.128c-2.017,4.038-4.394,7.819-7.511,11.113c-5.351,5.654-12.163,7.185-19.574,6.806
		c-1.598-0.082-3.292-0.476-4.558-1.764c-2.967-3.017-1.765-8.519,2.258-9.776c1.402-0.438,2.954-0.487,4.444-0.535
		c6.719-0.219,11.181-3.776,14.08-9.544c1.561-3.107,2.989-6.289,4.318-9.503c1.643-3.973,3.121-8.015,4.633-11.928
		c-12.188-31.902-24.317-63.644-36.436-95.391c-0.59-1.545-1.29-3.087-1.592-4.695c-0.632-3.367,0.98-6.001,4.065-7.072
		c2.747-0.954,5.502,0.146,7.123,3.017c0.727,1.287,1.207,2.721,1.735,4.112c9.938,26.197,19.872,52.395,29.774,78.606
		c0.466,1.234,0.769,2.511,1.789,3.485c10.141-27.209,20.272-54.39,30.404-81.57c0.462-1.24,0.865-2.513,1.44-3.7
		c2.273-4.691,5.935-5.527,10.033-2.349c0.48,0.372,0.686,1.174,1.527,0.993C1689,158.333,1689,160.667,1689,163z"/>
	<path style="fill:#2F2B4B;" d="M563,357c-0.013-26.962-0.037-53.924-0.039-80.886c-0.005-90.207-0.002-180.415,0-270.622
		c0-1.831,0.025-3.661,0.039-5.492c1.667,0,3.333,0,5,0c-0.085,1.821-0.245,3.643-0.245,5.464
		c-0.012,115.357-0.012,230.715,0,346.072c0,1.821,0.16,3.643,0.245,5.464C566.333,357,564.667,357,563,357z"/>
	<path style="fill:#1D1A3F;" d="M652.158,186.503c-0.001-22.649-0.001-45.298,0-67.947c0-1.166-0.077-2.34,0.035-3.495
		c0.396-4.066,2.296-5.933,6.458-6.04c4.826-0.124,9.658-0.042,14.488-0.027c10.658,0.033,21.328-0.223,31.971,0.199
		c12.485,0.495,23.778,4.53,32.949,13.365c7.28,7.013,11.287,15.89,13.862,25.488c1.947,7.259,2.924,14.68,3.004,22.181
		c0.116,10.989,0.232,21.986-0.041,32.969c-0.278,11.195-2.158,22.139-6.925,32.412c-7.867,16.952-21.546,25.606-39.783,27.382
		c-15.776,1.537-31.618,0.557-47.43,0.701c-6.596,0.06-8.571-2.104-8.577-8.741C652.145,232.134,652.159,209.319,652.158,186.503z
		 M665.349,250.334c1.477,0.898,2.495,0.744,3.482,0.745c10.158,0.008,20.317-0.061,30.475,0.037
		c4.025,0.039,7.984-0.353,11.889-1.187c11.672-2.492,20.073-8.994,24.868-20.118c3.881-9.003,5.456-18.476,5.814-28.119
		c0.377-10.144,0.352-20.319,0.036-30.467c-0.279-8.977-1.667-17.834-4.898-26.323c-5.334-14.012-15.692-21.398-30.346-22.991
		c-13.113-1.425-26.285-0.4-39.428-0.618c-0.602-0.01-1.211,0.412-1.891,0.661C665.349,164.818,665.349,207.559,665.349,250.334z"/>
	<path style="fill:#1B193E;" d="M993.003,250.295c0,2.312,0.105,4.631-0.023,6.936c-0.226,4.05-2.659,6.454-6.226,6.341
		c-3.428-0.109-5.485-2.292-5.786-6.216c-0.089-1.16-0.053-2.331-0.054-3.497c-0.002-45.985-0.002-91.969,0.001-137.954
		c0-1.166-0.053-2.34,0.065-3.496c0.344-3.39,2.591-5.401,5.945-5.413c3.324-0.012,5.623,1.995,6.013,5.384
		c0.151,1.317,0.073,2.663,0.073,3.995c0.004,16.658,0.002,33.317,0.002,50.186c1.527-0.453,1.844-1.804,2.564-2.71
		c3.95-4.971,8.928-8.381,15.044-10.107c9.157-2.585,18.43-3.12,27.536-0.235c13.385,4.24,21.066,14.117,24.637,27.219
		c3.718,13.641,3.927,27.598,2.497,41.611c-0.661,6.473-1.874,12.801-4.303,18.865c-5.986,14.941-18.461,23.399-35.332,23.705
		c-4.504,0.082-8.956-0.373-13.334-1.472C1004.432,261.454,998.068,257.306,993.003,250.295z M1053.374,208.915
		c-0.074-8.542-0.059-16.361-2.321-23.956c-1.74-5.844-4.532-11.016-9.366-14.915c-5.989-4.831-12.868-6.503-20.462-6.113
		c-14.475,0.744-23.655,9.115-26.319,22.593c-2.606,13.184-2.377,26.478-0.788,39.729c1.777,14.819,10.012,24.523,24.02,26.391
		c14.589,1.945,28.614-4.745,33.008-21.22C1053.19,223.758,1053.23,215.986,1053.374,208.915z"/>
	<path style="fill:#1D1A3F;" d="M1267.553,240.628c4.955-14.79,9.68-28.935,14.433-43.07c9.342-27.777,18.707-55.545,28.033-83.328
		c0.533-1.587,1.079-3.155,2.032-4.522c1.723-2.471,4.357-3.383,6.984-2.528c2.381,0.776,3.913,2.931,4.121,5.686
		c0.182,2.398-0.63,4.593-1.379,6.778c-10.42,30.403-20.899,60.785-31.299,91.195c-5.251,15.355-10.365,30.758-15.563,46.131
		c-0.755,2.233-1.83,4.308-3.923,5.604c-3.569,2.21-7.68,1.265-9.895-2.495c-1.252-2.124-2.236-4.452-3.031-6.793
		c-15.178-44.704-30.311-89.423-45.443-134.142c-0.532-1.571-1.139-3.146-1.407-4.769c-0.534-3.24,1.246-6.162,4.118-7.134
		c2.846-0.963,5.419,0.037,7.302,2.786c1.148,1.677,1.635,3.625,2.27,5.498c10.361,30.6,20.699,61.208,31.029,91.819
		c3.444,10.206,6.846,20.425,10.287,30.632C1266.429,238.59,1266.802,239.146,1267.553,240.628z"/>
	<path style="fill:#1E1B40;" d="M1334.095,211.921c-0.56,8.48,0.153,16.15,3.461,23.439c4.303,9.482,11.497,15.134,21.851,16.814
		c13.338,2.165,25.023-0.881,34.712-10.588c0.586-0.587,1.202-1.158,1.869-1.648c2.955-2.171,5.46-2.159,7.638-0.005
		c1.838,1.817,2.044,5.382,0.187,7.789c-4.13,5.353-9.277,9.528-15.449,12.3c-12.615,5.665-25.619,6.617-38.822,2.454
		c-11.529-3.635-19.054-11.597-23.626-22.65c-2.97-7.181-4.129-14.721-4.474-22.349c-0.541-11.962-0.583-23.947,2.672-35.641
		c5.255-18.881,20.19-29.697,38.672-29.927c11.255-0.14,21.348,2.397,29.896,10.01c7.409,6.599,11.118,15.19,13.151,24.609
		c1.229,5.696,1.561,11.525,1.529,17.355c-0.034,6.34-1.616,8-7.96,8.019c-17.316,0.052-34.632,0.018-51.947,0.018
		C1343.149,211.921,1338.842,211.921,1334.095,211.921z M1395.073,199.975c-0.387-12.825-2.314-24.771-14-31.941
		c-10.899-6.687-22.65-6.797-33.52,0.01c-11.585,7.256-13.687,19.111-13.638,31.931
		C1354.445,199.975,1374.5,199.975,1395.073,199.975z"/>
	<path style="fill:#1E1B40;" d="M1141.095,211.921c-0.62,10.026,0.49,19.207,5.701,27.591c4.188,6.738,10.269,10.909,17.915,12.399
		c13.689,2.667,26.068,0.046,36.242-10.154c0.703-0.704,1.455-1.379,2.266-1.952c2.844-2.011,5.084-1.998,7.235-0.033
		c1.935,1.767,2.264,5.252,0.489,7.755c-2.724,3.843-6.145,7.067-10.162,9.476c-15.56,9.328-31.9,10.668-48.642,3.742
		c-7.774-3.216-13.333-9.197-17.224-16.666c-3.824-7.341-5.539-15.225-6.154-23.423c-0.974-12.983-1.133-25.952,2.365-38.604
		c4.59-16.602,15.333-27.302,32.531-29.655c25.135-3.438,43.891,8.395,49.236,34.403c1.209,5.881,1.564,11.862,1.47,17.86
		c-0.084,5.397-1.743,7.034-7.216,7.253c-1.164,0.047-2.331,0.008-3.496,0.008c-19.147,0-38.295,0-57.442,0
		C1144.586,211.921,1142.961,211.921,1141.095,211.921z M1201.651,200.086c1.086-16.74-5.83-28.541-14.982-32.99
		c-11.414-5.549-23.01-5.691-33.508,1.894c-10.442,7.545-12.417,18.874-12.195,31.096
		C1161.473,200.086,1181.414,200.086,1201.651,200.086z"/>
	<path style="fill:#1D1A3F;" d="M772.13,208.267c0.115-9.494,0.851-18.887,3.688-28.05c5.64-18.217,20.189-27.882,38.343-28.558
		c11.168-0.416,21.439,2.43,30.076,9.77c7.524,6.395,11.625,14.933,13.457,24.422c3.09,16.009,3.158,32.079-0.763,47.993
		c-4.729,19.191-20.045,30.924-39.902,31.12c-8.682,0.085-16.88-1.492-24.296-6.038c-10.771-6.602-16.234-16.799-18.625-28.838
		C772.679,222.901,772.023,215.613,772.13,208.267z M784.892,208.105c0.057,5.979-0.112,11.966,1.046,17.892
		c1.96,10.032,6.128,18.702,15.605,23.596c14.416,7.444,37.469,3.759,43.345-19.2c3.467-13.547,2.953-27.381,0.749-41.088
		c-0.897-5.575-3.077-10.853-6.855-15.247c-7.951-9.248-18.191-11.706-29.718-9.449c-12.034,2.357-18.833,10.338-22.084,21.748
		C784.953,193.471,784.727,200.772,784.892,208.105z"/>
	<path style="fill:#1A183E;" d="M945.167,249.681c-11.605,15.089-26.421,17.499-42.686,13.772
		c-13.985-3.205-21.332-13.174-24.45-26.7c-1.13-4.902-1.249-9.884-1.26-14.864c-0.044-19.663-0.024-39.326-0.007-58.988
		c0.001-1.661-0.016-3.352,0.273-4.977c0.534-3.006,2.591-4.699,5.508-4.829c3.069-0.137,5.556,1.625,6.185,4.685
		c0.331,1.609,0.264,3.313,0.265,4.974c0.016,19.663,0.047,39.326-0.021,58.988c-0.013,3.868,0.472,7.668,1.338,11.376
		c3.703,15.856,15.651,21.275,30.061,19.492c17.587-2.177,24.638-16.094,24.69-28.965c0.083-20.496,0.017-40.992,0.036-61.488
		c0.002-1.649-0.194-3.306,0.443-4.935c1.119-2.864,3.679-4.508,6.628-4.101c2.788,0.385,4.672,2.352,5.009,5.362
		c0.129,1.153,0.067,2.329,0.067,3.494c0.003,30.827,0.003,61.655,0,92.482c0,1.166,0.057,2.34-0.057,3.497
		c-0.336,3.401-2.667,5.677-5.781,5.738c-2.984,0.058-5.813-2.237-6.184-5.447C944.94,255.786,945.167,253.267,945.167,249.681z"/>
	<path style="fill:#221F42;" d="M1556.98,154.071c6.629,0,12.756-0.01,18.883,0.008c1.328,0.004,2.705-0.101,3.973,0.203
		c2.647,0.634,4.198,2.884,4.097,5.542c-0.103,2.697-1.751,4.63-4.583,5.064c-1.468,0.225-2.99,0.123-4.488,0.126
		c-5.796,0.011-11.592,0.004-17.529,0.004c-0.736,2.043-0.423,3.879-0.425,5.652c-0.025,27.65-0.013,55.301-0.03,82.951
		c-0.001,1.657,0.043,3.36-0.303,4.962c-0.693,3.202-3.022,5.049-5.967,5.067c-2.928,0.018-5.144-1.815-5.872-5.095
		c-0.32-1.442-0.393-2.964-0.394-4.449c-0.024-38.477-0.038-76.955-0.005-115.432c0.004-4.157,0.563-8.274,1.418-12.361
		c2.431-11.613,9.252-16.583,20.792-18.131c3.768-0.505,7.655-0.29,11.479-0.16c3.679,0.125,5.964,2.621,5.906,6.038
		c-0.058,3.439-2.324,5.62-6.089,5.868c-3.633,0.24-7.249,0.027-10.916,0.639c-6.92,1.154-9.543,5.487-9.866,11.812
		C1556.706,139.342,1556.98,146.337,1556.98,154.071z"/>
	<path style="fill:#1A183E;" d="M1085.543,179.545c0-20.804-0.01-41.608,0.017-62.413c0.002-1.82,0.062-3.675,0.411-5.452
		c0.509-2.59,2.657-4.328,5.214-4.58c2.693-0.265,5.126,1.348,6.212,3.994c0.794,1.935,0.525,3.939,0.526,5.916
		c0.019,39.611,0.006,79.222,0.032,118.834c0.002,2.976-0.171,5.948,0.734,8.906c1.152,3.766,3.492,5.894,7.357,6.396
		c1.815,0.236,3.655,0.332,5.446,0.683c3.208,0.627,5.068,2.9,5.021,5.904c-0.041,2.673-1.766,5.078-4.848,5.421
		c-13.134,1.463-24.032-2.077-25.6-17.724c-0.397-3.965-0.487-7.973-0.498-11.962
		C1085.515,215.494,1085.543,197.519,1085.543,179.545z"/>
	<path style="fill:#1A173D;" d="M1440.809,168.307c0.901-1.37,1.771-2.762,2.708-4.106c5.412-7.763,12.988-11.595,22.313-12.2
		c7.277-0.472,14.253,0.534,20.634,4.338c2.42,1.442,4.208,3.305,3.959,6.38c-0.265,3.274-2.677,5.481-5.982,5.488
		c-2.223,0.005-4.156-1.016-6.169-1.803c-6.152-2.406-12.416-3.449-18.987-1.682c-6.139,1.65-10.556,5.294-13.656,10.769
		c-4.147,7.323-5.26,15.362-5.333,23.535c-0.162,17.986-0.043,35.974-0.061,53.961c-0.002,1.827-0.018,3.673-0.268,5.477
		c-0.426,3.072-2.785,5.11-5.742,5.195c-2.846,0.082-5.485-1.993-6.066-4.93c-0.223-1.129-0.157-2.322-0.157-3.486
		c-0.007-31.311-0.007-62.622-0.002-93.933c0-0.998-0.053-2.016,0.112-2.991c0.566-3.334,2.994-5.325,6.243-5.225
		c3.092,0.095,5.31,1.923,5.595,5.238c0.284,3.302,0.062,6.647,0.062,9.973C1440.278,168.307,1440.543,168.307,1440.809,168.307z"/>
	<path style="fill:#1B193E;" d="M1519.912,208.147c0,15.33,0.009,30.66-0.012,45.99c-0.003,1.814,0.214,3.642-0.554,5.415
		c-1.128,2.605-3.142,4.099-5.735,4.051c-2.865-0.054-4.997-1.704-5.661-4.672c-0.359-1.606-0.478-3.295-0.479-4.947
		c-0.027-30.493-0.025-60.986-0.003-91.48c0.001-1.489,0.101-3.005,0.394-4.46c0.592-2.938,2.684-4.758,5.427-4.951
		c2.9-0.204,5.545,1.622,6.281,4.609c0.351,1.426,0.326,2.966,0.328,4.454C1519.92,177.487,1519.911,192.817,1519.912,208.147z"/>
	<path style="fill:#1E1B40;" d="M1523.01,116.743c-0.033,5.366-4.087,9.469-9.334,9.446c-5.121-0.022-9.539-4.368-9.581-9.424
		c-0.043-5.31,4.557-9.869,9.801-9.713C1519.142,107.208,1523.043,111.357,1523.01,116.743z"/>
	<path style="fill:#3CB24B;" d="M87.273,90.861c-4.833-0.002-9.667,0.078-14.498-0.017c-12.703-0.251-20.968-10.338-18.748-22.793
		c1.122-6.296,7.576-12.685,14.174-13.952c1.793-0.344,3.624-0.703,5.438-0.702c13.481,0.003,26.959-0.325,40.403,1.382
		c17.247,2.19,33.44,7.54,48.149,16.636c30.766,19.025,51.068,46.12,58.316,81.686c8.762,42.992-2.711,80.761-33.11,112.377
		c-18.517,19.258-41.48,30.744-67.637,35.926c-7.705,1.527-15.536,1.995-23.333,2.138c-8.973,0.165-17.989,0.754-26.943-0.49
		c-8.864-1.232-15.121-8.457-15.707-17.341c-0.687-10.418,7.494-17.337,14.036-18.718c2.609-0.551,5.221-0.902,7.914-0.887
		c8.331,0.045,16.668,0.118,24.994-0.124c39.701-1.153,76.29-30.902,83.487-72.06c6.883-39.359-13.819-78.033-49.302-94.651
		c-13.212-6.188-27.086-8.914-41.634-8.417C91.275,90.922,89.273,90.863,87.273,90.861z"/>
	<path style="fill:#C02890;" d="M375.108,284.249c0.532,8.966-6.019,18.03-16.5,19.182c-5.383,0.591-10.572-1.061-14.424-5.297
		c-2.346-2.58-4.17-5.524-5.637-8.738c-18.747-41.062-37.578-82.086-56.332-123.145c-13.099-28.679-26.108-57.398-39.166-86.095
		c-2.924-6.425-2.36-12.494,1.433-18.448c7.212-11.321,24.623-11.065,31.191,1.694c3.263,6.339,6.098,12.901,9.057,19.394
		c9.565,20.989,19.075,42.004,28.648,62.99c18.802,41.219,37.63,82.426,56.451,123.636c1.035,2.265,1.954,4.601,3.193,6.751
		C374.573,278.863,375.348,281.66,375.108,284.249z"/>
	<path style="fill:#6D3F99;" d="M373.957,213.48c-0.156-3.933,1.141-7.504,2.708-11.019c11.616-26.052,23.224-52.107,34.829-78.164
		c8.57-19.241,17.114-38.493,25.719-57.719c1.08-2.413,2.146-4.854,3.912-6.917c4.496-5.252,12.206-7.62,18.478-5.326
		c7.239,2.648,11.319,7.926,12.341,15.469c0.519,3.831-0.194,7.501-1.826,11.143c-20.413,45.554-40.716,91.158-61.082,136.733
		c-1.009,2.257-1.537,4.711-3.069,6.766c-4.637,6.221-12.115,8.999-18.852,6.88C378.758,228.698,373.985,222.224,373.957,213.48z"/>
</g>
</svg>
