<?xml version="1.0" encoding="iso-8859-1"?>
<!-- Generator: Adobe Illustrator 27.0.0, SVG Export Plug-In . SVG Version: 6.00 Build 0)  -->
<svg version="1.1" id="Layer_1" xmlns="http://www.w3.org/2000/svg" xmlns:xlink="http://www.w3.org/1999/xlink" x="0px" y="0px"
	 viewBox="0 0 1521 806.984" style="enable-background:new 0 0 1521 806.984;" xml:space="preserve">
<g>
	<path style="fill:#0F6CB1;" d="M1.186,655.251c5.981,0,11.962,0,18.681,0c0.031,17.41-0.002,34.773,0.021,52.268
		c6.348,0.822,12.057,0.865,16.576-3.863c1.948-2.038,3.627-4.332,5.446-6.494c9.962-11.835,19.919-23.675,29.909-35.486
		c1.395-1.649,2.988-3.13,4.442-4.732c1.786-1.967,4.075-2.909,6.629-2.962c5.308-0.109,10.619-0.033,16.266-0.033
		c-1.147,3.241-3.532,5.173-5.376,7.39c-12.335,14.832-24.77,29.582-37.276,44.271c-2.242,2.633-4.586,5.263-7.841,7.061
		c18.767,20.84,34.738,43.632,53.057,65.958c-7.689,0-14.266,0.049-20.841-0.032c-1.786-0.022-3.015-1.334-4.106-2.608
		c-3.786-4.421-7.593-8.825-11.285-13.324c-9.706-11.827-19.303-23.743-29.067-35.521c-2.147-2.59-5.004-4.305-8.639-4.168
		c-1.987,0.075-3.979,0.013-6.513,0.013c0,18.414,0,36.634,0,55.011c-7.383,1.515-14.395,0.016-21.27,0.985c0-0.333,0-0.667,0-1
		c2.01-1.304,0.929-3.318,0.933-4.93c0.081-37.274,0.06-74.549,0.071-111.824C1.004,659.238,1.123,657.244,1.186,655.251z"/>
	<path style="fill:#246FB3;" d="M1521,548.984c-1.079,0.266-0.857,1.231-1.088,1.975c-4.427,14.296-18.894,22.673-33.324,18.978
		c-18.944-4.85-26.074-25.953-17.311-40.751c6.262-10.575,15.775-15.297,27.7-13.727c11.711,1.542,19.537,8.529,23.005,20.022
		c0.193,0.639,0.238,1.297,1.017,1.503C1521,540.984,1521,544.984,1521,548.984z M1515.273,543.459
		c0.147-13.631-11.474-22.772-22.362-22.523c-10.963,0.25-22.036,9.246-21.658,23.306c0.399,14.854,12.053,22.125,22.164,22.202
		C1503.87,566.524,1515.79,557.175,1515.273,543.459z"/>
	<path style="fill:#8CA4D2;" d="M1.186,655.251c-0.064,1.993-0.182,3.987-0.183,5.98c-0.011,37.275,0.01,74.549-0.071,111.824
		c-0.004,1.612,1.077,3.626-0.933,4.93c0-41,0-82,0-123C0.395,655.073,0.791,655.162,1.186,655.251z"/>
	<path style="fill:#C6CFE8;" d="M445,806.984c0.008-0.347,0.016-0.695,0.024-1.042c5.004,0.053,10.008,0.105,15.012,0.158
		c-0.044,0.293-0.056,0.588-0.036,0.884C455,806.984,450,806.984,445,806.984z"/>
	<path style="fill:#086BB1;" d="M2.078,567.984c0-109.721,0-218.678,0-327.916c5.051-1.437,10.205-1.52,15.263-2.01
		c20.045-1.939,40.137-2.929,60.277-3.497c14.16-0.399,28.308-0.571,42.451-0.254c20.641,0.464,41.141,2.647,61.163,7.836
		c30.316,7.857,57.639,21.235,79.176,44.711c15.358,16.74,25.496,36.352,31.589,58.132c6.524,23.319,8.184,47.175,6.749,71.191
		c-1.46,24.43-7.327,47.859-18.711,69.697c-15.255,29.265-38.328,50.281-68.13,64.071c-14.377,6.652-29.459,11.146-45.025,13.997
		c-16.078,2.945-32.307,4.085-48.645,4.059c-36.827-0.058-73.654-0.018-110.481-0.018C5.956,567.984,4.159,567.984,2.078,567.984z
		 M79.374,515.112c11.874,0,23.198-0.129,34.518,0.031c15.619,0.221,30.81-2.19,45.503-7.367
		c17.257-6.08,31.477-16.353,41.86-31.611c12.557-18.452,17.19-39.375,18.638-61.171c0.551-8.294,0.347-16.657,0.13-24.979
		c-0.435-16.735-3.474-32.983-9.99-48.479c-8.271-19.669-21.85-34.41-41.21-43.519c-15.876-7.469-32.824-10.534-50.247-10.979
		c-9.155-0.234-18.327-0.01-27.486,0.21c-3.914,0.094-7.815,0.705-11.716,1.08C79.374,364.05,79.374,439.299,79.374,515.112z"/>
	<path style="fill:#096BB1;" d="M714.512,473.65c2.204-7.239,4.335-14,6.32-20.803c7.477-25.631,14.607-51.367,22.459-76.882
		c5.024-16.325,12.774-31.392,24.552-44.071c12.979-13.972,29.17-22.282,47.481-26.853c6.938-1.732,13.982-2.86,21.055-3.801
		c1.947-0.259,3.957-0.039,6.536-0.039c-31.458,88.721-61.799,177.629-92.683,266.533c-28.136,0-56.08,0-84.276,0
		c-2.8-5.883-4.592-12.267-6.748-18.492c-10.257-29.625-19.954-59.451-30.618-88.928c-12.701-35.107-26.007-69.993-41.336-104.078
		c-10.499-23.345-21.531-46.402-33.918-68.811c-15.566-28.159-32.897-55.159-53.55-79.86
		c-17.688-21.156-37.491-40.149-60.575-55.479c-23.648-15.705-49.298-26.568-77.17-32.241c-14.89-3.03-29.91-4.681-45.056-4.658
		c-48.242,0.076-93.263,11.999-134.768,36.927c-17.318,10.402-33.421,22.403-48.979,35.21c-3.94,3.243-4.901,3.294-8.903,1.038
		c-1.127-3.011-0.434-5.484,1.815-8.051c17.364-19.823,37.597-36.206,59.734-50.354c21.01-13.428,43.648-23.167,67.564-30.076
		c15.35-4.434,30.967-7.245,46.834-9.186c18.449-2.257,36.921-2.401,55.36-1.354c24.091,1.368,47.751,5.698,70.919,12.656
		c39.353,11.82,74.776,30.954,106.722,56.689c33.378,26.889,60.914,58.982,84.409,94.675
		c25.701,39.044,45.685,80.945,62.214,124.574c11.463,30.258,21.869,60.888,32.311,91.505
		C712.627,470.645,712.713,472.065,714.512,473.65z"/>
	<path style="fill:#096BB1;" d="M484.412,401.329c1.508-21.328-7.843-34.867-26.466-42.193c-7.015-2.76-14.469-3.656-21.942-4.105
		c-20.464-1.229-39.928,3.296-58.893,10.51c-8.075,3.072-15.884,6.74-23.79,11.119c-7.539-10.492-13.427-21.51-12.307-34.85
		c0.558-6.646,4.793-11.567,9.805-15.662c10.255-8.379,22.275-12.987,34.959-16.166c14.712-3.688,29.618-5.55,44.789-6.305
		c13.704-0.682,27.293-0.016,40.819,1.554c14.028,1.628,27.843,4.629,40.717,10.812c22.083,10.605,35.93,27.966,41.841,51.649
		c2.951,11.823,4.065,23.891,4.06,36.069c-0.012,30.826-0.008,61.652,0.005,92.478c0.001,2.758-0.094,5.433,1.086,8.175
		c0.869,2.019,0.593,4.578,0.632,6.9c0.232,13.687,1.729,27.167,6.21,40.198c1.404,4.083,3.398,7.893,5.525,11.945
		c-5.448,2.986-11.199,4.457-17.041,5.473c-10.69,1.859-21.451,2.674-32.259,1.021c-14.722-2.251-25.846-9.124-30.722-24.026
		c-0.331-1.013-0.126-2.4-1.536-3.079c-1.585,0.462-2.637,1.776-3.85,2.846c-13.844,12.212-30.141,19.07-48.149,22.407
		c-9.187,1.703-18.429,2.814-27.736,2.675c-20.482-0.307-39.88-4.547-56.759-17.015c-14.188-10.48-23.574-24.25-27.681-41.397
		c-4.432-18.501-4.704-36.873,3.212-54.678c5.342-12.016,13.828-21.393,24.478-28.989c12.78-9.116,27.17-14.521,42.143-18.582
		c11.557-3.134,23.408-4.649,35.26-6.226c16.57-2.205,33.208-2.006,49.851-2.036C481.82,401.849,482.998,402.018,484.412,401.329z
		 M486.672,440.406c-4.784-0.294-9.398,0.329-14.009,0.347c-9.855,0.04-19.523,1.321-29.144,3.235
		c-9.808,1.952-19.259,4.85-27.946,9.987c-13.547,8.011-22.496,21.702-18.673,40.374c2.493,12.175,9.245,20.841,20.639,25.567
		c9.719,4.031,19.95,4.758,30.311,3.014c12.913-2.172,24.455-7.122,33.746-16.704c3.412-3.519,5.29-7.567,5.458-12.437
		c0.074-2.162,0.2-4.324,0.203-6.486c0.02-14.147,0.019-28.293,0.002-42.44C487.256,443.55,487.511,442.198,486.672,440.406z"/>
	<path style="fill:#096BB1;" d="M1348.78,401.857c2.335-20.754-7.113-34.575-24.05-41.889c-6.796-2.935-14.004-4.178-21.279-4.777
		c-14.891-1.226-29.52,0.562-43.91,4.526c-14.307,3.941-27.948,9.506-41.045,16.699c-2.374-1.033-2.901-3.513-4.14-5.377
		c-5.349-8.047-8.489-16.872-8.951-26.57c-0.18-3.782,1.226-7.137,3.124-10.306c3.438-5.742,8.58-9.672,14.153-13.099
		c9.732-5.985,20.451-9.421,31.488-11.982c13.136-3.047,26.426-4.676,39.92-5.357c10.012-0.505,19.959-0.266,29.904,0.374
		c16.63,1.07,33.02,3.702,48.542,10.067c24.682,10.12,39.982,28.445,46.354,54.243c1.832,7.418,2.863,14.974,3.241,22.643
		c1.632,33.131,0.482,66.278,0.624,99.416c0.033,7.793,1.305,15.42,1.629,23.162c0.312,7.426,0.944,14.889,2.318,22.278
		c1.775,9.544,4.357,18.722,9.315,26.97c-0.22,1.426-1.317,1.615-2.187,1.928c-13.961,5.008-28.271,6.969-43.105,5.459
		c-6.025-0.613-11.774-1.788-17.279-4.296c-7.48-3.408-12.652-8.993-15.817-16.502c-0.963-2.284-1.803-4.62-2.857-7.337
		c-1.229,1.118-2.26,2.064-3.3,3c-11.338,10.219-24.577,16.849-39.225,20.861c-12.426,3.402-25.135,4.951-37.944,4.751
		c-16.406-0.256-32.357-3.012-46.975-11.176c-21.4-11.952-34.35-29.911-38.336-54.109c-1.927-11.697-2.286-23.488,0.408-35.148
		c4.172-18.054,14.642-31.774,29.648-42.253c12.565-8.775,26.683-14.05,41.353-17.944c11.725-3.112,23.716-4.756,35.749-6.287
		c16.251-2.068,32.543-1.938,48.851-1.967C1346.15,401.855,1347.296,401.857,1348.78,401.857z M1350.913,441.333
		c-1.79-1.483-3.531-1.077-5.144-1.02c-11.619,0.412-23.271,0.538-34.735,2.781c-10.766,2.106-21.403,4.649-31.015,10.284
		c-14.059,8.242-21.754,19.64-20.328,36.776c1.32,15.857,12.06,27.991,26.655,31.677c8.145,2.057,16.364,2.535,24.705,1.144
		c12.96-2.161,24.466-7.19,33.865-16.578c2.53-2.527,4.37-5.483,4.998-9.016c0.58-3.265,1.052-6.542,1.03-9.902
		c-0.086-12.826-0.032-25.653-0.031-38.48C1350.913,446.351,1350.913,443.703,1350.913,441.333z"/>
	<path style="fill:#096BB1;" d="M995.115,231.617c12.841-3.22,25.242-3.281,37.706-2.185c5.834,0.513,11.406,2.054,16.758,4.444
		c11.333,5.06,17.918,13.812,20.481,25.852c0.981,4.608,1.085,9.243,1.103,13.898c0.039,9.996-0.002,19.993,0.03,29.989
		c0.005,1.625-0.287,3.293,0.404,5.218c25.93,0,51.855,0,78.138,0c0,18.065,0,35.784,0,54.018c-25.911,0-51.967,0-77.654,0
		c-1.319,1.678-0.881,3.06-0.882,4.336c-0.026,36.487-0.061,72.974,0.018,109.461c0.014,6.488,0.832,12.883,3.409,18.992
		c5.207,12.341,14.752,18.405,27.761,19.429c16.152,1.271,30.352-4.271,43.631-12.858c0.82-0.53,1.522-1.313,3.09-1.377
		c6.692,8.839,12.828,18.251,14.673,29.726c1.066,6.63-0.986,12.52-5.914,17.223c-9.962,9.508-21.843,15.555-35.01,19.238
		c-16.182,4.527-32.709,5.996-49.399,4.755c-13.97-1.039-27.589-3.915-40.215-10.388c-15.906-8.155-26.362-20.977-32.133-37.738
		c-2.987-8.675-4.449-17.641-5.294-26.786c-0.922-9.985-0.674-19.962-0.68-29.942c-0.041-76.473-0.022-152.946-0.022-229.419
		C995.115,235.687,995.115,233.869,995.115,231.617z"/>
	<path style="fill:#096BB1;" d="M940.83,566.083c-1.296,0.909-2.499,0.579-3.629,0.582c-10.16,0.028-20.322,0.13-30.479-0.031
		c-5.138-0.081-10.284-0.564-15.258-2.059c-15.003-4.509-22.977-14.965-25.478-30.08c-0.736-4.448-0.911-8.918-0.91-13.416
		c0.015-70.62,0.011-141.24,0.012-211.86c0-1.639,0-3.278,0-4.748c1.912-0.956,3.225-0.071,4.628,0.298
		c16.78,4.413,32.119,11.645,45.243,23.172c13.88,12.19,22.381,27.326,25.216,45.676c0.743,4.808,0.947,9.591,0.949,14.405
		c0.022,57.962,0.009,115.924-0.008,173.885C941.117,563.363,941.359,564.868,940.83,566.083z"/>
	<path style="fill:#FAA824;" d="M961.024,222.949c-3.204-3.764-6.264-7.662-9.636-11.269c-13.982-14.953-31.383-23.56-51.243-27.884
		c-12.317-2.682-24.707-3.066-37.198-2.824c-3.012,0.058-5.931,0.616-9.045,1.186c-7.555,10.253-15.593,20.224-24.02,29.876
		c-11.172,12.797-22.808,25.141-35.022,36.969c-9.698,9.391-19.633,18.497-29.837,27.32c-4.028,3.483-8.156,6.849-12.24,10.267
		c-0.532,0.446-1.106,0.71-1.802,0.375l0.03,0.026c2.809-6.042,6.993-11.237,10.459-16.874c14.722-23.944,28.43-48.42,39.316-74.38
		c5.784-13.793,10.539-27.927,13.018-42.738c0.079-0.472,0.01-0.968,0.01-1.822c-27.952-11.736-55.327-24.689-79.05-44.586
		c1.788-1.126,2.747-0.184,3.788,0.197c14.581,5.336,29.647,7.601,45.08,6.101c14.757-1.434,28.405-6.438,40.904-14.505
		c1.566-1.011,2.105-2.371,2.584-4.017c2.279-7.828,3.614-15.845,4.854-23.876c2.27-14.696,2.33-29.502,2.028-44.322
		c-0.064-3.149-0.062-6.3-0.494-9.555c5.974,6.669,10.072,14.52,14.278,22.249c4.206,7.73,7.458,15.914,10.276,24.266
		c2.872,8.511,4.495,17.297,5.729,26.224C890.448,79.154,921.964,47.509,932.75,0c1.811,2.895,1.807,5.844,2.117,8.528
		c5.082,43.904-8.512,81.531-38.436,113.618c-2.27,2.434-4.464,4.94-6.675,7.43c-0.208,0.235-0.279,0.592-0.482,1.047
		c14.03,5.804,25.954,14.583,36.535,25.416c16.063,16.445,26.385,36.107,33.049,57.857c0.906,2.958,2.547,5.83,2.095,9.13
		C960.953,223.025,961.024,222.949,961.024,222.949z"/>
	<path style="fill:#136CB1;" d="M209.219,695.673c0-15.358,0-30.303,0-45.532c6.539,0,12.785,0,19.35,0c0,42.06,0,84.111,0,126.488
		c-4.31,0.667-8.71,0.394-13.042,0.148c-3.755-3.497-1.506-8.542-3.863-12.519c-1.36,0.378-2.126,1.702-3.146,2.616
		c-11.791,10.568-25.057,12.865-39.775,7.177c-2.691-1.04-5.013-2.612-6.826-4.858c-5.522-6.84-9.276-14.483-10.799-23.216
		c-1.707-9.793-1.577-19.472,0.907-29.138c4.066-15.826,13.969-25.684,29.901-29.229c8.822-1.963,16.739,0.628,23.922,5.813
		C206.771,694.09,207.391,695.166,209.219,695.673z M213.613,711.899c-2.622,0.694-4.048-0.736-5.359-2.26
		c-5.975-6.947-13.746-6.856-21.552-4.933c-8.22,2.025-12.463,8.261-14.681,16.084c-1.196,4.221-0.966,8.55-1.202,12.86
		c-0.422,7.7,0.338,15.07,3.645,22.216c3.18,6.872,8.407,10.026,15.7,10.098c9.775,0.098,17.726-3.586,23.449-11.7
		C213.613,740.428,213.613,726.628,213.613,711.899z"/>
	<path style="fill:#0F6CB1;" d="M661.455,673.328c-2.314,3.893-4.796,7.39-7.554,10.467c-3.722,0.852-6.32-0.292-9.294-2.477
		c-8.204-6.029-17.261-9.886-27.916-7.732c-2.586,0.523-5.244,0.736-7.86,1.237c-14.8,2.832-23.08,12.348-26.632,26.344
		c-2.998,11.814-2.734,23.747,0.775,35.441c3.435,11.445,10.944,19.177,22.421,22.776c9.19,2.881,18.596,3.581,28.021,1.485
		c6.431-1.43,12.219-4.302,16.736-10.049c6.57,0.028,8.295,6.666,12.807,9.35c-9.091,11.597-21.166,16.716-34.936,18.916
		c-11.981,1.915-23.593,0.545-34.752-3.76c-15.327-5.914-24.771-17.928-30.019-32.835c-5.601-15.91-5.611-32.299,0.26-48.342
		c5.91-16.149,17.124-27.039,33.44-32.505c14.442-4.838,29.024-5.043,43.6-0.598C647.779,663.25,654.772,667.468,661.455,673.328z"
		/>
	<path style="fill:#0F6CB1;" d="M898.261,737.03c-20.418,0-41.024,0-61.64,0c0.613,13.396,7.641,24.574,17.766,26.658
		c8.428,1.735,16.852,1.067,24.649-3.234c2.314-1.276,4.673-2.47,7-3.722c1.238-0.666,2.54-0.687,4.08-0.505
		c2.279,2.465,4.549,5.083,6.389,8.192c-4.126,6.594-10.583,9.955-17.556,12.231c-4.7,1.534-9.681,2.851-14.576,3.002
		c-9.538,0.294-18.904-1.156-26.985-6.903c-4.856-3.454-9.665-6.825-11.979-12.889c-5.602-14.677-5.931-29.403-1.553-44.384
		c1.592-5.446,4.661-9.879,8.75-13.672c5.003-4.641,9.945-9.73,16.952-10.899c13.811-2.304,27.254-1.747,38.514,8.178
		c5.461,4.814,9.305,10.698,11.147,17.882c1.164,4.542,1.925,9.084,1.907,13.767C901.116,732.967,900.806,735.055,898.261,737.03z
		 M880.252,725.633c0.672-2.565,0.114-4.618-0.352-6.415c-1.494-5.762-4.123-11.117-9.93-13.59
		c-6.314-2.689-12.977-2.415-19.553-0.661c-2.494,0.666-4.565,2.12-5.979,4.261c-1.829,2.769-3.67,5.569-5.097,8.551
		c-1.113,2.327-2.092,4.884-1.15,7.854C852.127,725.633,866.044,725.633,880.252,725.633z"/>
	<path style="fill:#126CB1;" d="M680.855,715.899c-5.22-2.981-4.728-8.708-6.711-13.429c7.495-7.619,16.505-11.747,26.758-13.461
		c7.012-1.172,13.831-0.56,20.545,1.816c7.352,2.602,12.421,7.509,15.194,14.737c2.751,7.171,4.413,14.519,4.303,22.319
		c-0.211,14.981-0.061,29.968-0.061,44.952c0,1.651,0,3.301,0,5.495c-4.148,0.439-7.961,0.952-11.833-0.643
		c-4.342-1.789-3.715-6.277-5.292-9.892c-3.892,2.73-7.199,5.733-11.104,7.91c-6.988,3.894-14.368,5.916-22.4,5.334
		c-10-0.725-19.145-8.36-20.082-17.02c-1.064-9.833,2.436-17.772,10.974-22.866c7.004-4.179,14.706-6.811,22.803-8.164
		c6.056-1.012,12.174-1.422,18.602-1.922c0.807-5.039,0.124-9.925-1.406-14.631c-1.907-5.867-6.867-7.646-12.394-8.446
		c-7.922-1.145-14.574,2.238-20.971,6.11C685.522,715.465,683.485,716.5,680.855,715.899z M725.484,740.403
		c-1.244-0.734-2.427-0.602-3.545-0.527c-5.778,0.388-11.579,0.627-17.32,1.335c-4.47,0.551-8.639,2.272-12.185,5.177
		c-3.215,2.633-3.717,6.115-2.719,9.899c1.055,4.003,2.789,8.022,7.391,8.339c11.194,0.772,21.463-1.401,28.379-11.136
		C725.484,748.924,725.484,744.656,725.484,740.403z"/>
	<path style="fill:#0F6CB1;" d="M422.479,737.104c-20.579,0-41.362,0-62.163,0c0.19,5.662,2.07,10.48,4.367,15.039
		c3.785,7.51,9.842,11.613,18.551,12.243c9.432,0.683,17.635-2.287,25.494-6.869c1.819-1.06,3.528-1.81,5.965-0.992
		c1.843,2.391,3.86,5.007,5.924,7.684c-4.164,6.783-10.624,10.136-17.586,12.424c-4.7,1.545-9.688,2.845-14.59,3.011
		c-9.554,0.324-18.73-1.436-27.075-6.804c-11.2-7.204-14.926-18.245-16.193-30.477c-0.984-9.501,0.063-18.914,3.123-28.05
		c1.292-3.859,3.3-7.249,6.06-10.2c5.043-5.394,10.417-11.083,17.575-12.74c13.998-3.239,27.947-2.622,39.666,7.245
		c10.444,8.793,14.012,20.606,13.444,33.921C424.972,734.155,424.197,735.366,422.479,737.104z M361.88,725.511
		c14.337,0,28.337,0,42.805,0c-0.27-8.056-2.416-15.148-9.225-19.022c-7.39-4.205-16.015-4.508-23.371-0.24
		C365.289,710.194,361.526,716.944,361.88,725.511z"/>
	<path style="fill:#0F6CB1;" d="M268.837,701.219c1.554,0.012,2.246-1.039,2.991-1.86c6.429-7.084,15.057-10.355,23.974-10.721
		c10.676-0.439,21.814,4.055,26.865,16.127c1.938,4.632,3.004,9.506,3.017,14.533c0.048,18.486,0.021,36.973,0.013,55.459
		c-0.001,1.138,0.204,2.331-0.742,3.624c-5.599,0-11.315,0-16.864,0c-1.263-1.798-0.766-3.517-0.77-5.127
		c-0.04-16.321-0.024-32.643-0.026-48.964c0-1.332-0.038-2.664-0.027-3.996c0.091-11.428-9.574-17.644-18.782-16.322
		c-5.693,0.817-10.928,2.733-15.139,6.894c-2.242,2.215-3.31,4.679-3.285,7.976c0.141,18.152,0.068,36.306,0.068,54.459
		c0,1.629,0,3.258,0,5.371c-6.183-0.009-11.903,0.108-17.81-0.089c0-29.399,0-58.148,0-87.472c3.268,0,6.378-0.054,9.486,0.018
		c2.253,0.053,3.626,1.203,4.24,3.471C266.679,696.94,267.28,699.349,268.837,701.219z"/>
	<path style="fill:#126CB1;" d="M460.036,806.101c-5.004-0.053-10.008-0.105-15.012-0.158c3.335-8.489,7.642-16.527,11.493-24.777
		c1.472-3.153,3.024-6.269,4.625-9.58c-11.874-26.555-23.763-53.144-35.97-80.444c6.501,0,12.121-0.153,17.725,0.083
		c1.962,0.082,3.46,1.308,4.333,3.523c7.535,19.111,16.048,37.825,23.243,57.068c1.45-0.406,1.349-1.708,1.758-2.771
		c6.781-17.633,13.627-35.242,20.394-52.881c1.352-3.525,3.529-5.392,7.495-5.097c4.253,0.317,8.556-0.309,13.497,0.466
		c-16.471,37.696-32.783,75.03-49.18,112.556C463.032,804.731,461.534,805.416,460.036,806.101z"/>
	<path style="fill:#126CB1;" d="M814.046,691.457c-0.554,5.143-1.064,9.882-1.593,14.796c-4.241,0.816-8.218,0.423-12.153,0.407
		c-9.239-0.037-15.393,5.167-18.747,13.006c-0.827,1.933-0.653,3.916-0.656,5.893c-0.024,15.316-0.013,30.632-0.013,45.949
		c0,1.633,0,3.267,0,5.188c-6.058,0-11.78,0-17.746,0c0-28.458,0-56.808,0-85.582c3.88,0,7.513-0.152,11.128,0.044
		c3.367,0.183,4.893,1.877,5.42,5.389c0.408,2.722-0.151,5.616,1.465,8.785c4.146-7.423,9.216-13.245,17.409-14.84
		C803.538,689.523,808.715,688.905,814.046,691.457z"/>
	<path style="fill:#0F6CB1;" d="M114.395,691.203c5.797,0,11.272,0,16.731,0c1.035,3.493,1.46,76.937,0.502,86.808
		c-2.789,1.341-5.819,0.5-8.745,0.646c-2.792,0.139-5.595,0.03-8.303,0.03C113.807,774.424,113.663,697.213,114.395,691.203z"/>
	<path style="fill:#126CB1;" d="M122.579,652.429c6.344,1.1,8.767,5.496,11.593,9.331c1.131,1.534,0.822,3.445,0.203,5.281
		c-1.749,5.189-5.596,8.113-10.518,9.82c-1.942,0.674-3.829,0.207-5.769-0.664c-5.118-2.297-7.592-6.605-8.055-11.688
		c-0.413-4.541,2.829-7.529,6.613-9.752C118.682,653.561,120.835,652.78,122.579,652.429z"/>
	<path style="fill:#FAA824;" d="M960.953,223.025c0.538,0.019,0.972,0.099,0.46,0.767c-0.134-0.289-0.261-0.566-0.389-0.843
		L960.953,223.025z"/>
	<path style="fill:#FAA824;" d="M750.98,286.966c-0.038,0.263-0.076,0.527-0.115,0.79c-0.18-0.097-0.359-0.194-0.539-0.292
		c0.228-0.157,0.455-0.315,0.683-0.472L750.98,286.966z"/>
	<path style="fill:#246FB3;" d="M1499.293,546.317c2.643,4.507,5.139,8.764,7.673,13.085c-1.813,0.721-3.307,0.438-5.221,0.363
		c-2.718-4.435-5.553-9.062-8.34-13.609c-1.809-0.382-3.417-0.466-5.366,0.133c0,4.259,0,8.533,0,12.267
		c-1.223,1.823-2.425,1.042-3.835,1.348c0-10.687,0-21.075,0-31.85c5.121,0,10.241-0.274,15.316,0.086
		c4.12,0.292,6.856,3.228,7.442,6.92c0.794,4.999-0.776,8.205-5.035,10.218C1501.185,545.629,1500.4,545.884,1499.293,546.317z
		 M1487.955,531.982c0.055,3.657-0.549,6.73,0.494,9.776c3.381,0.185,6.487,0.224,9.574-0.61c1.186-0.321,2.178-0.781,2.842-1.805
		c1.693-2.61,0.905-4.977-2.132-6.452C1495.418,531.282,1491.943,532.235,1487.955,531.982z"/>
</g>
</svg>
