<?xml version="1.0" encoding="iso-8859-1"?>
<!-- Generator: Adobe Illustrator 27.0.0, SVG Export Plug-In . SVG Version: 6.00 Build 0)  -->
<svg version="1.1" id="Layer_1" xmlns="http://www.w3.org/2000/svg" xmlns:xlink="http://www.w3.org/1999/xlink" x="0px" y="0px"
	 viewBox="0 0 491.066 187.198" style="enable-background:new 0 0 491.066 187.198;" xml:space="preserve">
<g>
	<path style="fill:#1E6E65;" d="M491.066,16.764c-0.63-0.061-1.276,0.125-2.015-0.17c-0.453-3.563-0.367-7.228-0.948-10.852
		c-1.627,3.547-2.787,7.256-4.148,10.855c-0.668,0.2-1.257,0.174-1.918,0.143c-1.383-3.809-2.76-7.603-4.138-11.398
		c-0.072,0.012-0.143,0.024-0.215,0.036c-0.25,3.764-0.501,7.528-0.754,11.336c-0.604,0-1.102,0-1.724,0
		c0.086-4.817,0.683-9.551,0.987-14.218c0.396-0.416,0.815-0.337,1.205-0.353c0.398-0.016,0.797-0.004,1.307-0.004
		c1.346,3.837,2.695,7.681,4.045,11.525c1.775-3.684,2.979-7.528,4.378-11.319c0.787-0.288,1.571-0.171,2.304-0.146
		c0.299,0.359,0.358,0.711,0.385,1.069c0.177,2.305,0.341,4.611,0.527,6.915c0.164,2.026,0.352,4.05,0.527,6.076
		c0.011,0.133,0.082,0.211,0.194,0.265C491.066,16.605,491.066,16.685,491.066,16.764z"/>
	<path style="fill:#096A61;" d="M194.75,28.284c1.62-3.705,3.211-7.345,4.79-10.955c3.14-0.308,27.66-0.121,29.332,0.252
		c-1.482,3.519-2.953,7.014-4.446,10.561c0.337,0.187,0.649,0.151,0.946,0.154c1.96,0.02,3.919,0.036,5.879,0.049
		c30.877,0.198,61.755,0.185,92.632,0.093c16.558-0.049,33.116-0.053,49.674-0.093c0.238-0.001,0.475,0,0.861,0
		c0.804-3.682,1.214-7.428,1.934-11.078c1.714-0.416,28.752-0.34,30.096,0.106c-0.582,3.656-1.167,7.335-1.77,11.12
		c19.669,0,39.292,0,59.029,0c-0.886,5.241-1.752,10.365-2.63,15.565c-32.145,0-64.251,0-96.51,0
		c-1.158,5.102-2.306,10.158-3.441,15.159c0.405,0.293,0.734,0.224,1.047,0.243c3.833,0.231,7.672,0.197,11.508,0.202
		c15.4,0.022,30.799,0.006,46.199,0.01c7.24,0.002,14.48-0.006,21.719,0.04c2.436,0.015,4.876-0.046,7.308,0.158
		c0.197,0.017,0.403-0.006,0.612,0.197c-0.339,2.071-0.679,4.185-1.031,6.298c-0.687,4.125-1.379,8.249-2.073,12.373
		c-0.687,4.084-1.423,8.16-2.055,12.253c-0.553,3.583-1.167,7.154-1.769,10.728c-0.668,3.966-1.311,7.937-1.998,11.9
		c-0.755,4.354-1.572,8.698-2.311,13.055c-0.28,1.649-0.911,3.153-1.806,4.515c-2.529,3.852-6.086,6.185-10.626,7.141
		c-2.176,0.458-4.363,0.568-6.545,0.58c-14.599,0.076-29.198,0.076-43.798,0.101c-0.314,0.001-0.628,0-0.93,0
		c-0.191-1.031,1.681-13.071,2.341-15.132c0.694-0.269,1.466-0.165,2.203-0.183c3.676-0.089,7.357-0.121,11.029-0.101
		c3.435,0.019,6.865-0.158,10.299-0.101c2.938,0.049,5.698-1.912,6.738-4.671c0.537-1.425,0.819-2.914,1.066-4.404
		c0.963-5.814,1.914-11.63,2.833-17.452c0.931-5.902,1.815-11.811,2.727-17.715c0.2-1.297,0.435-2.589,0.663-3.943
		c-18.973,0-37.921,0-57.017,0c-4.842,21.169-9.692,42.373-14.537,63.556c-1.157,0.217-58.355,0.191-60.208-0.031
		c-2.802-15.059-5.61-30.149-8.422-45.266c0.929-0.267,1.758-0.309,2.588-0.309c8.079-0.004,16.159-0.003,24.238,0.001
		c0.676,0,1.359-0.008,2.119,0.325c0.915,4.861,1.841,9.781,2.765,14.701c0.919,4.891,1.821,9.785,2.758,14.673
		c0.939,4.897,1.832,9.803,2.905,14.672c0.112,0,0.225,0,0.337-0.001c7.079-31.043,14.157-62.085,21.241-93.152
		c-0.724-0.239-1.327-0.168-1.917-0.182c-2.677-0.063-5.354-0.155-8.032-0.156c-23.193-0.012-46.386-0.086-69.579,0.026
		c-11.838,0.057-23.676,0.04-35.513,0.091c-0.238,0.001-0.476,0-0.832,0c-3.225,7.484-6.449,14.965-9.654,22.401
		c0.303,0.421,0.671,0.402,1.03,0.402c7.439,0.012,14.879,0.024,22.318,0.033c0.073,0,0.147-0.047,0.339-0.112
		c0.698-4.128,1.407-8.315,2.119-12.521c10.532,0,20.995,0,31.551,0c-0.67,4.149-1.329,8.224-1.984,12.279
		c0.311,0.257,0.642,0.184,0.954,0.196c4.636,0.173,9.274,0.144,13.912,0.159c11.28,0.036,22.559,0.026,33.839,0.039
		c1.36,0.002,2.719,0.032,4.079,0.043c0.361,0.003,0.718,0.002,1.176,0.244c-1.154,4.939-2.317,9.914-3.487,14.92
		c-1.645,0.278-3.233,0.309-4.821,0.312c-11.599,0.028-23.199,0.009-34.798,0.093c-4.278,0.031-8.556,0.097-12.835,0.105
		c-0.237,0-0.482-0.043-0.815,0.171c-3.156,18.575-6.328,37.245-9.504,55.934c-10.569,0-21.071,0-31.639,0
		c3.184-18.743,6.357-37.42,9.557-56.257c-19.082-0.059-38.156,0.065-57.404-0.109c5.531-12.813,10.998-25.48,16.518-38.266
		c-8.472-0.29-16.811-0.161-25.185-0.193c-0.518,1.231-0.596,2.512-0.818,3.749c-0.738,4.115-1.426,8.239-2.12,12.362
		c-0.76,4.516-1.493,9.037-2.259,13.552c-0.838,4.947-1.709,9.888-2.548,14.835c-0.759,4.476-1.485,8.958-2.244,13.434
		c-0.679,4.004-1.402,8.001-2.072,12.007c-0.696,4.164-1.338,8.336-2.026,12.501c-0.564,3.418-1.161,6.831-1.741,10.247
		c-0.613,3.612-1.222,7.224-1.835,10.836c-0.672,3.965-1.345,7.93-2.019,11.896c-0.687,4.044-1.372,8.088-2.062,12.131
		c-0.677,3.965-1.359,7.928-2.037,11.892c-0.1,0.582-0.188,1.166-0.296,1.837c-8.035,0-16.012,0-24.031,0
		c7.915-46.982,15.827-93.941,23.738-140.898c-0.331-0.333-0.76-0.354-1.129-0.357c-3.674-0.024-7.347-0.014-11.148-0.014
		c-5.36,31.516-10.718,63.024-16.077,94.536c-1.037,0.36-2.083,0.289-3.105,0.294c-6.92,0.032-13.839,0.031-20.759,0.039
		c-0.154,0-0.308-0.022-0.593-0.043c4.539-26.812,9.068-53.568,13.612-80.405c-12.781,0-25.583,0-38.462,0
		c-0.548,3.283-1.095,6.564-1.66,9.946c10.07,0,20.015,0,29.944,0c0.218,1.109-0.85,8.152-1.903,12.743
		c-0.312,0.258-0.687,0.155-1.037,0.157c-8.359,0.03-16.718,0.05-25.078,0.082c-1.355,0.005-2.709,0.058-4.205,0.091
		c-3.291,19.165-6.569,38.258-9.842,57.318c-2.724,0.341-23.298,0.149-24.772-0.257c3.111-18.935,6.478-37.845,9.669-56.811
		c-0.746-0.265-1.417-0.309-2.091-0.31c-5.8-0.013-11.599-0.018-17.399-0.037c-3.238-0.011-6.476-0.041-9.714-0.073
		c-0.311-0.003-0.639,0.086-1.051-0.15c0.666-4.189,1.318-8.42,2.143-12.706c10.109,0,20.178,0,30.335,0
		c0.576-3.274,1.14-6.477,1.708-9.701c-0.503-0.252-0.96-0.334-1.442-0.338c-1.439-0.009-2.878-0.038-4.317-0.039
		c-7.56-0.004-15.12-0.002-22.679-0.002c-2.351,0-4.703,0-7.22,0c0.7-4.427,1.344-8.682,2.181-12.924
		c6.189-0.081,12.26-0.019,18.485-0.232c0.016-2.246-0.351-4.48-0.5-6.723c-0.15-2.266-0.422-4.524-0.467-6.883
		c7.456,0,14.871,0,22.424,0c0.283,3.002,0.563,5.96,0.852,9.024c1,0.067,1.979,0.18,2.959,0.19c2.64,0.026,5.282,0.079,7.919-0.012
		c2.273-0.078,4.547-0.087,6.908-0.107c1.31-3.052,2.608-6.077,3.919-9.132c7.935,0,15.845,0,23.919,0
		c-1.902,4.543-3.765,8.995-5.635,13.461c0.168,0.102,0.259,0.205,0.353,0.208c5.836,0.194,11.673,0.15,17.51,0.134
		c0.074,0,0.147-0.053,0.275-0.103c0.376-0.975,0.47-2.052,0.653-3.098c1.243-7.099,2.426-14.209,3.675-21.307
		c0.483-2.743,1.036-5.477,1.65-8.194c0.496-2.194,1.406-4.221,2.826-6.005c1.434-1.802,3.212-3.084,5.431-3.728
		c1.34-0.389,2.686-0.646,4.106-0.684c6.196-0.166,12.391-0.189,18.588-0.189c12.52,0,25.039-0.017,37.559-0.02
		c0.43,0,0.875-0.1,1.397,0.141c-0.742,4.477-1.487,8.971-2.241,13.516c-0.384,0-0.659-0.001-0.934,0
		c-6.16,0.014-12.319,0.007-18.479,0.047c-6.277,0.041-12.553,0.126-18.83,0.193c-3.269,0.035-5.552,1.826-6.392,5.014
		c-0.172,0.654-0.348,1.309-0.474,1.973c-0.334,1.756-0.642,3.518-0.989,5.438C150.702,28.453,172.676,28.538,194.75,28.284z"/>
	<path style="fill:#096A61;" d="M98.756,12.114c-0.703,4.205-1.408,8.428-2.139,12.802c-28.489-0.028-56.97,0.066-85.448-0.095
		c-0.031-1.095,1.725-11.626,2.141-12.851c10.114,0,20.259,0,30.473,0c0.731-3.939,1.448-7.804,2.165-11.671
		c0.881-0.426,1.779-0.272,2.632-0.275c6.398-0.029,12.796-0.02,19.194-0.003c0.987,0.003,1.99-0.065,3.059,0.279
		c-0.675,3.761-1.348,7.506-2.047,11.397c1.21,0.081,2.346,0.218,3.482,0.223c8.358,0.032,16.715,0.036,25.073,0.056
		C97.773,11.976,98.217,11.88,98.756,12.114z"/>
	<path style="fill:#0A6A61;" d="M189.716,138.936c-9.767-0.045-19.508,0.243-29.478-0.132c6.481-15.297,12.958-30.406,19.386-45.584
		c9.785,0.043,19.519-0.074,29.493,0.102C202.657,108.676,196.24,123.779,189.716,138.936z"/>
	<path style="fill:#F19921;" d="M387.971,151.619c0.61-0.249,1.118-0.347,1.638-0.348c2.957-0.007,5.914-0.003,8.947-0.003
		c5.954,6.153,11.752,12.531,18.019,18.816c1.23-6.354,2.416-12.482,3.624-18.727c4.636,0,9.249,0,13.946,0
		c-1.912,11.287-3.827,22.598-5.765,34.036c-3.456,0.205-6.881,0.074-10.375,0.123c-5.88-6.102-11.761-12.237-17.906-18.409
		c-1.525,6.176-2.411,12.309-3.871,18.407c-4.688-0.071-9.349,0.152-14.158-0.211C384.05,174.002,386.015,162.782,387.971,151.619z"
		/>
	<path style="fill:#F19921;" d="M212.667,185.365c1.998-11.33,3.998-22.669,5.988-33.949c0.651-0.212,1.173-0.152,1.688-0.151
		c5.676,0.01,11.353-0.036,17.027,0.07c2.433,0.045,4.884-0.043,7.3,0.216c3.37,0.361,6.71,1.021,9.716,2.697
		c3.593,2.003,5.823,5.003,6.313,9.168c0.545,4.635-0.413,8.929-2.877,12.901c-1.773,2.859-4.409,4.662-7.347,6.104
		c-2.413,1.184-5.001,1.815-7.619,2.35c-1.926,0.394-3.87,0.455-5.826,0.51c-7.67,0.219-15.34,0.227-23.012,0.221
		C213.589,185.503,213.142,185.615,212.667,185.365z M229.191,177.681c0.23,0.079,0.339,0.147,0.448,0.148
		c3.239,0.031,6.445-0.169,9.518-1.332c2.346-0.888,4.057-2.481,5.193-4.692c0.849-1.654,1.122-3.433,1.292-5.283
		c0.269-2.927-1.126-5.613-3.851-6.705c-1.802-0.722-3.667-0.69-5.516-0.856c-1.178-0.106-2.384-0.167-3.737,0.053
		C231.294,165.203,230.25,171.442,229.191,177.681z"/>
	<path style="fill:#F19921;" d="M191.17,168.181c4.594,5.755,9.288,11.27,13.846,17.252c-5.833,0.107-11.397,0.068-16.962,0.078
		c-2.537-3.289-5.044-6.539-7.594-9.846c-0.65,0.339-1.099,0.84-1.597,1.271c-3.141,2.715-6.279,5.433-9.419,8.148
		c-0.306,0.265-0.63,0.435-1.072,0.434c-5.354-0.014-10.709-0.009-16.338-0.009c6.693-6.014,13.21-11.868,19.769-17.762
		c-3.872-5.691-8.09-10.945-12.116-16.462c5.594,0,11.089,0,16.65,0c2.093,3.012,4.204,6.05,6.403,9.214
		c3.508-3.102,6.962-6.155,10.351-9.151c5.451,0,10.823,0,16.195,0c0.034,0.076,0.069,0.151,0.103,0.227
		C203.335,157.094,197.28,162.613,191.17,168.181z"/>
	<path style="fill:#F19921;" d="M368.098,173.888c2.164,2.455,4.375,4.745,6.344,7.298c-0.93,0.881-2.003,1.409-3.059,1.95
		c-4.232,2.169-8.72,3.434-13.462,3.869c-5.194,0.477-10.276,0.128-15.201-1.721c-2.526-0.949-4.869-2.221-6.886-4.015
		c-2.875-2.558-4.584-5.748-5.138-9.582c-0.647-4.482,0.379-8.533,2.912-12.242c1.537-2.25,3.561-3.972,5.89-5.351
		c3.612-2.138,7.544-3.349,11.657-4.088c2.938-0.528,5.871-0.384,8.822-0.263c1.838,0.075,3.665,0.146,5.47,0.537
		c4.789,1.036,9.171,2.933,13.047,6.132c-3.124,1.954-6.218,3.889-9.277,5.802c-0.391-0.098-0.593-0.362-0.84-0.556
		c-2.532-1.986-5.4-2.994-8.624-3.073c-2.869-0.07-5.639,0.236-8.262,1.526c-2.434,1.197-4.315,2.952-5.263,5.472
		c-1.556,4.136-0.194,8.189,3.703,10.353c2.843,1.579,5.896,1.818,9.044,1.521c3.17-0.299,6.034-1.411,8.61-3.275
		C367.713,174.092,367.858,174.026,368.098,173.888z"/>
	<path style="fill:#F19921;" d="M307.89,158.37c-7.4,0.186-14.745-0.078-22.135,0.28c-0.525,3.028-1.041,5.999-1.579,9.102
		c6.707,0,13.365,0,20.142,0c-0.357,2.396-0.746,4.639-1.228,6.917c-6.72,0.183-13.39-0.126-20.176,0.203
		c-0.673,3.573-1.324,7.033-1.975,10.491c-1.937,0.384-14.164,0.19-15.123-0.246c1.982-11.15,3.964-22.306,5.955-33.507
		c0.689-0.237,1.401-0.282,2.104-0.298c2.079-0.048,4.159-0.077,6.238-0.076c8.439,0.001,16.878,0.013,25.317,0.03
		c1.191,0.002,2.383,0.054,3.7,0.086C308.776,153.769,308.377,156.053,307.89,158.37z"/>
	<path style="fill:#F19A22;" d="M308.144,185.41c0.556-3.173,1.075-6.139,1.578-9.014c0.419-0.356,0.803-0.441,1.207-0.441
		c3.751-0.003,7.503-0.002,11.239-0.002c0.23,1.046-0.512,6.349-1.327,9.56C316.693,185.48,312.514,185.584,308.144,185.41z"/>
	<path style="fill:#076A61;" d="M473.994,2.213c0,0.612,0,1.159,0,1.806c-1.877,0-3.733,0-5.685,0c0,4.265,0,8.431,0,12.635
		c-0.662,0.192-1.244,0.083-1.919,0.099c0-4.212,0-8.379,0-12.646c-1.947,0-3.803,0-5.696,0c-0.19-0.666-0.083-1.247-0.097-1.894
		C465.055,2.213,469.466,2.213,473.994,2.213z"/>
</g>
</svg>
