<?xml version="1.0" encoding="iso-8859-1"?>
<!-- Generator: Adobe Illustrator 27.0.0, SVG Export Plug-In . SVG Version: 6.00 Build 0)  -->
<svg version="1.1" id="Layer_1" xmlns="http://www.w3.org/2000/svg" xmlns:xlink="http://www.w3.org/1999/xlink" x="0px" y="0px"
	 viewBox="0 0 127.316 33.991" style="enable-background:new 0 0 127.316 33.991;" xml:space="preserve">
<g>
	<path style="fill:#080707;" d="M127.316,12.466c-0.043,0.012-0.051,0.044-0.055,0.083c-0.082,0.841-0.533,1.44-1.245,1.855
		c-0.561,0.327-1.178,0.461-1.821,0.517c-0.776,0.067-1.533,0-2.276-0.23c-0.67-0.208-1.273-0.538-1.818-0.977
		c-0.036-0.029-0.073-0.057-0.09-0.123c0.308-0.498,0.623-1.007,0.935-1.511c0.112-0.019,0.158,0.064,0.223,0.109
		c0.836,0.591,1.757,0.933,2.789,0.945c0.224,0.003,0.44-0.052,0.646-0.137c0.103-0.043,0.198-0.1,0.277-0.18
		c0.242-0.245,0.342-0.674-0.134-0.911c-0.292-0.145-0.609-0.21-0.925-0.275c-0.605-0.124-1.215-0.228-1.799-0.441
		c-0.359-0.131-0.695-0.299-0.99-0.544c-0.442-0.368-0.673-0.845-0.729-1.413c-0.134-1.372,0.748-2.354,1.922-2.695
		c1.718-0.5,3.309-0.176,4.745,0.892c0.022,0.016,0.038,0.04,0.064,0.069c-0.298,0.507-0.596,1.014-0.889,1.512
		c-0.085,0.014-0.116-0.04-0.156-0.073c-0.741-0.61-1.589-0.884-2.548-0.813c-0.226,0.017-0.432,0.094-0.624,0.21
		c-0.089,0.054-0.162,0.124-0.22,0.209c-0.154,0.227-0.1,0.478,0.136,0.616c0.226,0.133,0.479,0.191,0.73,0.249
		c0.575,0.134,1.161,0.218,1.727,0.391c0.408,0.125,0.798,0.288,1.148,0.538c0.551,0.395,0.856,0.93,0.922,1.603
		c0.005,0.05-0.022,0.115,0.055,0.136C127.316,12.206,127.316,12.336,127.316,12.466z"/>
	<path style="fill:#4C63AE;" d="M13.992,6.357c0.434,0,0.867,0,1.279,0c0.086-0.084,0.058-0.162,0.059-0.232
		c0.003-0.536-0.009-1.073,0.004-1.608c0.036-1.439,0.609-2.619,1.728-3.531c0.013-0.011,0.033-0.014,0.05-0.021
		c0.061,0.139,0.055,0.286,0.055,0.433c0,10.395,0,20.789,0.001,31.184c0,0.157-0.004,0.312-0.059,0.461
		c-0.941-0.702-1.472-1.658-1.707-2.789c-0.058-0.279-0.079-0.566-0.075-0.855c0.008-0.517,0.002-1.035,0.002-1.58
		c-0.789-0.006-1.564-0.011-2.339-0.017c0-0.963,0.001-1.926,0.001-2.889c0.773-0.005,1.546-0.01,2.316-0.015
		c0.045-0.427,0.03-3.054-0.021-3.273c-0.428,0-0.861,0-1.294,0c0-0.968,0-1.936,0-2.905c0.322-0.039,0.646-0.009,0.969-0.017
		c0.11-0.003,0.22,0,0.349,0c0-1.079,0-2.145,0-3.231c-0.438-0.045-0.881,0.022-1.318-0.036c0-0.966,0-1.932,0-2.898
		c0.44-0.007,0.879-0.013,1.318-0.02c0-1.097,0-2.17,0-3.269c-0.451,0-0.884,0-1.317,0C13.992,8.284,13.992,7.32,13.992,6.357z"/>
	<path style="fill:#080707;" d="M43.921,30.578c0-3.78,0-7.537,0-11.31c0.803,0,1.595,0,2.409,0c0,1.491,0,2.978,0,4.481
		c1.603,0,3.183,0,4.788,0c0-1.481,0-2.967,0-4.446c0.218-0.062,2.005-0.077,2.434-0.026c0,3.763,0,7.527,0,11.303
		c-0.809,0-1.609,0-2.431,0c0-1.555,0-3.097,0-4.652c-1.601,0-3.181,0-4.781,0c0,1.551,0,3.093,0,4.65
		C45.526,30.578,44.733,30.578,43.921,30.578z"/>
	<path style="fill:#080707;" d="M51.945,12.577c0,0.741,0,1.435,0,2.146c-2.673,0-5.339,0-8.008,0
		c-0.059-0.203-0.09-10.449-0.031-11.306c2.672,0,5.345,0,8.031,0c0,0.692,0,1.382,0,2.1c-1.861,0-3.719,0-5.59,0
		c0,0.802,0,1.577,0,2.38c1.816,0,3.637,0,5.474,0c0,0.727,0,1.426,0,2.147c-1.815,0-3.63,0-5.438,0
		c-0.063,0.225-0.081,1.746-0.035,2.534C48.204,12.577,50.061,12.577,51.945,12.577z"/>
	<path style="fill:#080707;" d="M84.992,14.728c-0.035-0.095-0.018-0.188-0.018-0.279c-0.001-1.584,0-3.169-0.002-4.753
		c0-0.176,0.01-0.356-0.025-0.526c-0.152-0.731-0.618-0.922-1.169-0.913c-0.62,0.01-1.235,0.318-1.608,0.852
		c0,1.855,0,3.733,0,5.621c-0.718,0-1.42,0-2.141,0c0-2.736,0-5.471,0-8.218c0.709,0,1.412,0,2.137,0c0,0.286,0,0.579,0,0.876
		c0.116-0.013,0.157-0.095,0.217-0.148c0.659-0.573,1.427-0.901,2.296-0.924c1.036-0.028,1.861,0.353,2.299,1.366
		c0.091-0.021,0.123-0.104,0.174-0.161c0.659-0.744,1.49-1.14,2.476-1.207c0.409-0.028,0.813,0.035,1.199,0.179
		c0.703,0.263,1.088,0.794,1.254,1.506c0.072,0.309,0.08,0.625,0.081,0.938c0.005,1.881,0.003,3.762,0.002,5.643
		c0,0.054,0.012,0.111-0.02,0.162c-0.202,0.049-1.852,0.058-2.154,0.011c-0.04-0.096-0.019-0.199-0.019-0.298
		c-0.002-1.612-0.002-3.224,0-4.837c0-0.224-0.025-0.441-0.1-0.653c-0.147-0.41-0.447-0.629-0.869-0.67
		c-0.741-0.073-1.332,0.221-1.819,0.774c0,1.881,0,3.76,0,5.66C86.445,14.728,85.72,14.728,84.992,14.728z"/>
	<path style="fill:#4768B1;" d="M17.107,33.042c0.055-0.149,0.059-0.304,0.059-0.461c-0.001-10.395-0.001-20.789-0.001-31.184
		c0-0.147,0.006-0.294-0.055-0.433c0.611-0.519,1.327-0.792,2.114-0.897c0,0.996,0,1.992-0.001,2.988
		c-0.023,0.015-0.045,0.033-0.07,0.044c-0.549,0.232-0.831,0.666-0.871,1.239c-0.036,0.504-0.013,1.013-0.015,1.52
		c-0.001,0.154,0,0.309,0,0.5c0.317,0,0.609,0,0.902,0c0,0.963,0,1.927,0,2.89c-0.292,0.03-0.588-0.023-0.89,0.034
		c0,1.084,0,2.15,0,3.237c0.434,0.007,0.856,0.015,1.278,0.022c0,0.969,0,1.937,0,2.906c-0.422,0.008-0.844,0.017-1.266,0.025
		c0,1.088,0,2.155,0,3.25c0.398,0,0.776,0,1.155,0c0,0.713,0.001,1.427,0,2.14c0,0.257,0.02,0.515-0.056,0.767
		c-0.368,0-0.735,0-1.113,0c0,1.108,0,2.177,0,3.254c0.227,0.052,0.45,0.003,0.668,0.032c0,0.963,0,1.927,0,2.89
		c-0.217,0.032-0.439-0.021-0.656,0.031c0,0.651,0,1.288,0,1.924c0,0.027-0.004,0.057,0.005,0.081
		c0.245,0.616,0.632,1.071,1.325,1.203c0.314,0.06,0.628,0.016,0.94,0.047c0,0.962,0,1.924,0,2.887
		c-0.815,0.042-1.617,0.004-2.386-0.319C17.79,33.497,17.433,33.298,17.107,33.042z"/>
	<path style="fill:#080707;" d="M95.903,17.847c-0.741,0-1.452,0-2.177,0c0-3.773,0-7.538,0-11.315c0.721,0,1.431,0,2.149,0
		C95.926,6.8,95.868,7.07,95.91,7.348c0.107-0.019,0.148-0.108,0.21-0.166c0.727-0.679,1.584-0.956,2.572-0.848
		c1.591,0.175,2.573,1.078,3.028,2.57c0.388,1.275,0.36,2.557-0.124,3.805c-0.415,1.071-1.165,1.812-2.302,2.099
		c-1.238,0.313-2.347,0.089-3.268-0.844c-0.025-0.025-0.047-0.058-0.122-0.047C95.903,15.221,95.903,16.529,95.903,17.847z
		 M95.889,10.6c0,0.454,0.006,0.908-0.003,1.362c-0.003,0.152,0.049,0.262,0.148,0.371c0.857,0.947,2.704,0.944,3.391-0.487
		c0.273-0.567,0.339-1.16,0.234-1.783c-0.165-0.977-0.826-1.666-1.804-1.8c-0.703-0.096-1.314,0.126-1.817,0.632
		c-0.111,0.111-0.156,0.237-0.152,0.398C95.896,9.729,95.889,10.165,95.889,10.6z"/>
	<path style="fill:#080707;" d="M108.806,7.343c0-0.271,0-0.537,0-0.813c0.735,0,1.445,0,2.171,0c0,2.736,0,5.463,0,8.202
		c-0.722,0-1.432,0-2.153,0c-0.051-0.274,0.013-0.551-0.037-0.825c-0.116,0.021-0.157,0.114-0.222,0.174
		c-0.682,0.63-1.485,0.9-2.412,0.849c-1.693-0.093-2.781-1.21-3.172-2.578c-0.383-1.339-0.363-2.67,0.188-3.958
		c0.476-1.113,1.33-1.808,2.53-2.023c1.138-0.204,2.148,0.066,2.973,0.911C108.696,7.306,108.713,7.344,108.806,7.343z
		 M108.783,12.183c0-1.046,0-2.091,0-3.128c-0.362-0.44-0.807-0.704-1.368-0.779c-1.01-0.136-1.847,0.355-2.205,1.205
		c-0.26,0.619-0.287,1.251-0.123,1.897c0.114,0.449,0.334,0.835,0.683,1.147C106.53,13.204,108.032,13.18,108.783,12.183z"/>
	<path style="fill:#080707;" d="M83.905,19.264c0.727,0,1.428,0,2.153,0c0,1.331,0,2.651,0,3.976
		c0.105-0.014,0.144-0.085,0.199-0.13c0.737-0.619,1.581-0.937,2.55-0.921c0.363,0.006,0.72,0.036,1.068,0.147
		c0.871,0.277,1.357,0.89,1.53,1.767c0.043,0.217,0.066,0.438,0.065,0.662c-0.003,1.881-0.002,3.761-0.003,5.642
		c0,0.053,0.019,0.111-0.027,0.174c-0.7,0-1.409,0-2.122,0c-0.035-0.094-0.018-0.186-0.018-0.276c-0.001-1.51-0.002-3.02,0.001-4.53
		c0-0.242-0.018-0.482-0.076-0.716c-0.13-0.524-0.484-0.83-1.005-0.904c-0.844-0.121-1.571,0.123-2.159,0.775
		c0,1.876,0,3.755,0,5.649c-0.722,0-1.431,0-2.156,0C83.905,26.811,83.905,23.047,83.905,19.264z"/>
	<path style="fill:#080707;" d="M69.927,23.233c0-0.274,0-0.549,0-0.842c0.721,0,1.429,0,2.154,0c0,2.729,0,5.457,0,8.224
		c-0.702,0.008-1.41,0.002-2.14,0.003c0-0.306,0-0.597,0-0.902c-0.118,0.041-0.161,0.128-0.225,0.19
		c-0.757,0.73-1.662,1.007-2.697,0.869c-1.589-0.212-2.54-1.165-2.955-2.657c-0.355-1.277-0.326-2.564,0.194-3.802
		c0.509-1.213,1.432-1.936,2.742-2.104c1.077-0.138,2.037,0.138,2.806,0.947C69.835,23.191,69.857,23.238,69.927,23.233z
		 M69.924,24.945c-0.441-0.557-1.013-0.824-1.731-0.823c-1.045,0.002-1.693,0.671-1.939,1.417c-0.153,0.465-0.189,0.94-0.11,1.423
		c0.126,0.774,0.589,1.735,1.818,1.881c0.805,0.095,1.466-0.186,1.962-0.815C69.924,26.988,69.924,25.97,69.924,24.945z"/>
	<path style="fill:#080707;" d="M63.009,27.197c-2.007,0-4.017,0-6.046,0c-0.012,0.095-0.002,0.17,0.021,0.249
		c0.252,0.871,0.847,1.367,1.721,1.53c0.962,0.179,1.832-0.063,2.619-0.631c0.044-0.031,0.088-0.062,0.15-0.107
		c0.325,0.474,0.641,0.936,0.96,1.401c-0.11,0.15-0.258,0.23-0.395,0.318c-1.083,0.698-2.267,0.956-3.547,0.812
		c-0.624-0.07-1.214-0.235-1.76-0.542c-0.893-0.502-1.515-1.238-1.827-2.214c-0.355-1.109-0.379-2.222,0.102-3.302
		c0.606-1.365,1.656-2.204,3.131-2.46c1.176-0.204,2.287-0.015,3.263,0.72c0.829,0.625,1.292,1.481,1.512,2.477
		C63.037,26.018,63.067,26.718,63.009,27.197z M56.913,25.686c1.332,0,2.663,0,3.994,0c-0.04-0.847-0.896-1.649-1.83-1.71
		C57.917,23.9,57.04,24.75,56.913,25.686z"/>
	<path style="fill:#080707;" d="M78.902,10.642c0.06,1.979-1.297,3.897-3.525,4.248c-1.253,0.198-2.458,0.015-3.504-0.78
		c-0.893-0.679-1.446-1.569-1.617-2.683c-0.329-2.153,0.756-3.949,2.453-4.743c2.541-1.189,5.526,0.302,6.112,3.045
		C78.889,10.047,78.904,10.371,78.902,10.642z M74.657,8.273c-0.928-0.051-1.668,0.418-1.998,1.276
		c-0.277,0.718-0.278,1.453,0.009,2.163c0.35,0.866,0.991,1.295,1.912,1.293c0.832-0.002,1.439-0.424,1.799-1.173
		c0.251-0.52,0.316-1.072,0.236-1.647C76.475,9.173,75.763,8.3,74.657,8.273z"/>
	<path style="fill:#080707;" d="M55.722,6.514c0,0.287,0,0.561,0,0.837c0.118-0.003,0.163-0.083,0.224-0.134
		c0.85-0.698,1.817-0.996,2.915-0.879c0.344,0.037,0.676,0.106,0.986,0.255c0.737,0.357,1.105,0.977,1.231,1.763
		c0.047,0.294,0.05,0.59,0.05,0.886c-0.001,1.723,0,3.446-0.001,5.169c0,0.1,0.018,0.202-0.02,0.314c-0.711,0-1.419,0-2.132,0
		c-0.039-0.105-0.02-0.208-0.02-0.307c-0.002-1.482,0-2.964-0.002-4.446c0-0.287-0.012-0.574-0.096-0.851
		c-0.118-0.391-0.364-0.664-0.761-0.773c-0.931-0.255-1.706,0.028-2.381,0.704c0,1.889,0,3.775,0,5.675c-0.732,0-1.441,0-2.166,0
		c0-2.736,0-5.465,0-8.214C54.266,6.514,54.983,6.514,55.722,6.514z"/>
	<path style="fill:#080707;" d="M119.057,7.5c-0.295,0.502-0.592,1.01-0.887,1.513c-0.097-0.002-0.137-0.073-0.193-0.117
		c-0.753-0.592-1.604-0.86-2.563-0.772c-0.207,0.019-0.395,0.091-0.572,0.194c-0.088,0.052-0.162,0.122-0.218,0.21
		c-0.159,0.251-0.096,0.517,0.167,0.656c0.231,0.122,0.485,0.171,0.737,0.229c0.674,0.155,1.363,0.245,2.014,0.494
		c0.322,0.123,0.628,0.272,0.901,0.481c0.649,0.497,0.898,1.173,0.873,1.97c-0.029,0.925-0.486,1.59-1.266,2.046
		c-0.535,0.313-1.125,0.45-1.739,0.511c-0.804,0.08-1.59,0.014-2.359-0.23c-0.659-0.209-1.258-0.532-1.792-0.972
		c-0.035-0.029-0.078-0.052-0.096-0.119c0.301-0.502,0.609-1.015,0.913-1.522c0.099-0.008,0.148,0.056,0.205,0.099
		c0.754,0.558,1.606,0.862,2.535,0.958c0.288,0.03,0.572-0.011,0.848-0.102c0.143-0.047,0.272-0.118,0.374-0.23
		c0.275-0.3,0.204-0.717-0.157-0.905c-0.282-0.146-0.593-0.198-0.9-0.261c-0.614-0.126-1.235-0.224-1.828-0.44
		c-0.288-0.105-0.564-0.232-0.815-0.408c-0.704-0.492-0.985-1.185-0.909-2.019c0.107-1.175,0.826-1.891,1.891-2.218
		c1.724-0.53,3.324-0.192,4.774,0.873C119.015,7.434,119.028,7.462,119.057,7.5z"/>
	<path style="fill:#080707;" d="M69.788,13.437c-0.692,0.853-1.539,1.361-2.608,1.477c-0.744,0.081-1.483,0.059-2.191-0.201
		c-1.497-0.551-2.44-1.605-2.741-3.177c-0.24-1.257-0.052-2.452,0.728-3.502c0.751-1.011,1.761-1.581,3.024-1.688
		c0.716-0.061,1.423-0.037,2.106,0.225c0.663,0.255,1.214,0.66,1.676,1.242c-0.471,0.442-0.94,0.881-1.419,1.331
		c-0.232-0.305-0.495-0.541-0.831-0.695c-1.301-0.596-2.793,0.163-3.063,1.565c-0.112,0.584-0.081,1.155,0.155,1.711
		c0.349,0.82,1.159,1.341,2.167,1.269c0.649-0.046,1.16-0.341,1.566-0.873C68.833,12.557,69.301,12.988,69.788,13.437z"/>
	<path style="fill:#080707;" d="M78.57,22.386c0-0.768,0-1.495,0-2.234c0.724,0,1.425,0,2.148,0c0,0.728,0,1.455,0,2.207
		c0.562,0,1.103,0,1.662,0c0,0.649,0,1.273,0,1.92c-0.543,0-1.086,0-1.616,0c-0.053,0.092-0.035,0.168-0.035,0.24
		c-0.001,1.112,0,2.223-0.002,3.335c0,0.14,0.014,0.276,0.048,0.412c0.117,0.465,0.472,0.691,0.942,0.587
		c0.172-0.038,0.336-0.101,0.504-0.247c0.164,0.572,0.321,1.115,0.476,1.656c-0.399,0.32-0.84,0.482-1.313,0.532
		c-0.499,0.052-0.998,0.023-1.483-0.137c-0.77-0.254-1.159-0.813-1.286-1.585c-0.047-0.284-0.051-0.571-0.05-0.858
		c0.003-1.204,0.001-2.409,0.001-3.613c0-0.091,0-0.183,0-0.297c-0.446,0-0.877,0-1.327,0c0-0.647,0-1.271,0-1.917
		C77.664,22.386,78.096,22.386,78.57,22.386z"/>
	<path style="fill:#3993D0;" d="M28.295,12.541c0.336-0.031,0.661,0.045,0.982,0.122c0.367,0.088,0.718,0.229,1.057,0.401
		c0.232,0.117,0.423,0.288,0.63,0.433c0.439,0.308,0.798,0.703,1.082,1.166c0.341,0.558,0.563,1.152,0.655,1.802
		c0.181,1.277-0.163,2.409-0.923,3.426c-0.265,0.354-0.616,0.622-0.968,0.891c-0.524,0.401-1.109,0.643-1.746,0.771
		c-0.269,0.054-0.543,0.113-0.823,0.075c0-0.97,0-1.941,0-2.911c0.036-0.007,0.072-0.017,0.108-0.021
		c1.275-0.118,1.841-1.515,1.212-2.501c-0.294-0.461-0.738-0.675-1.264-0.745c-0.009-0.077,0.045-0.142,0.051-0.21
		c0.025-0.296-0.02-0.591-0.013-0.889c0.003-0.125-0.035-0.267-0.036-0.403C28.294,13.48,28.296,13.011,28.295,12.541z"/>
	<path style="fill:#349ED8;" d="M32.582,0.015c1.327-0.002,2.655-0.004,3.982-0.006c0.101,0,0.202-0.005,0.304-0.008
		c0.169,0.047,0.227,0.162,0.225,0.333c-0.007,0.554,0.022,1.111-0.015,1.663C37.02,2.861,36.829,3.701,36.481,4.5
		c-0.425,0.974-1.003,1.844-1.773,2.58c-0.562,0.537-1.187,0.992-1.885,1.343c-0.042,0.021-0.081,0.044-0.129,0.042
		c0.073-0.336,0.054-0.676,0.055-1.016c0.001-0.657-0.002-1.314,0.002-1.971c0.001-0.167-0.005-0.33-0.069-0.487
		c0.013-0.058,0.056-0.094,0.096-0.132c0.309-0.296,0.556-0.638,0.766-1.009c0.162-0.287,0.299-0.584,0.387-0.946
		c-0.467,0-0.908,0-1.349,0C32.582,1.941,32.582,0.978,32.582,0.015z"/>
	<path style="fill:#080707;" d="M73.862,30.578c0-3.778,0-7.536,0-11.31c0.72,0,1.43,0,2.157,0c0,3.766,0,7.531,0,11.31
		C75.305,30.578,74.595,30.578,73.862,30.578z"/>
	<path style="fill:#63469C;" d="M3.973,15.4c-1.427-0.192-2.529-0.906-3.282-2.118c-1.163-1.87-0.828-4.238,0.787-5.736
		c0.638-0.592,1.395-0.959,2.247-1.129C3.805,6.401,3.89,6.406,3.973,6.402c0,0.202,0,0.404,0,0.606c0,0.67,0,1.34,0,2.01
		c0,0.12-0.018,0.246,0.137,0.292C4.044,9.34,3.977,9.37,3.911,9.399c-0.801,0.349-1.104,1.215-0.95,1.833
		c0.143,0.573,0.483,0.958,1.012,1.195C3.973,13.418,3.973,14.409,3.973,15.4z"/>
	<path style="fill:#5D4C9F;" d="M7.643,27.766c-0.893-0.055-1.669-0.405-2.357-0.957c-0.87-0.697-1.422-1.6-1.624-2.693
		c-0.262-1.418,0.084-2.691,1.003-3.803c0.351-0.424,0.774-0.772,1.257-1.035c0.449-0.245,0.928-0.426,1.444-0.483
		c0.001,1.005,0.002,2.009,0.003,3.014c-0.292,0.118-0.473,0.348-0.625,0.61c-0.241,0.413-0.291,0.852-0.162,1.307
		c0.158,0.559,0.546,0.903,1.077,1.104c-0.004,0.111-0.011,0.221-0.012,0.332C7.645,26.03,7.644,26.898,7.643,27.766z"/>
	<path style="fill:#3D82C4;" d="M27.462,33.093c-0.791,0.597-1.677,0.904-2.673,0.885c-0.001-0.966-0.001-1.932-0.002-2.898
		c0.024-0.032,0.06-0.037,0.097-0.042c1.143-0.158,1.787-1.512,1.104-2.516c-0.183-0.269-0.444-0.431-0.706-0.598
		c0.112-0.059,0.061-0.164,0.061-0.248c0.004-0.913,0.002-1.827,0.001-2.74c0.741,0.081,1.41,0.35,2.022,0.769
		c0.037,0.025,0.066,0.061,0.098,0.093C27.464,28.23,27.463,30.662,27.462,33.093z"/>
	<path style="fill:#5653A3;" d="M7.643,27.766c0.001-0.868,0.002-1.737,0.004-2.605c0-0.111,0.008-0.221,0.012-0.332
		c0.227,0.049,0.455,0.076,0.688,0.075c0.806-0.004,1.613-0.002,2.419,0c0.741,0.002,1.483,0.006,2.224,0.009
		c0,0.963-0.001,1.926-0.001,2.889c-0.509,0.003-1.017,0.008-1.526,0.009c-1.138,0.001-2.276,0.001-3.414-0.002
		C7.914,27.808,7.772,27.838,7.643,27.766z"/>
	<path style="fill:#4176BB;" d="M25.345,24.937c0,0.913,0.002,1.827-0.001,2.74c0,0.083,0.051,0.188-0.061,0.248
		c-0.402-0.12-0.814-0.119-1.228-0.114c-0.499,0.006-0.999,0.003-1.498,0.002c-0.647-0.002-1.294-0.005-1.942-0.008
		c0-0.964,0.001-1.928,0.001-2.891c1.19-0.002,2.38-0.006,3.569-0.005C24.572,24.909,24.96,24.887,25.345,24.937z"/>
	<path style="fill:#4176BB;" d="M24.788,31.081c0.001,0.966,0.001,1.932,0.002,2.898c-1.41-0.001-2.82-0.001-4.23-0.002
		c0-0.962,0-1.924,0-2.887c0.102-0.003,0.204-0.009,0.305-0.009C22.173,31.08,23.48,31.081,24.788,31.081z"/>
	<path style="fill:#4176BB;" d="M24.9,21.627c-1.206,0.015-2.412,0.018-3.617,0c0-0.969,0-1.938,0-2.907
		c0.073-0.006,0.146-0.017,0.219-0.017c1.06-0.001,2.12,0,3.179,0.001c0.073,0,0.146,0.01,0.219,0.015
		C24.901,19.689,24.9,20.658,24.9,21.627z"/>
	<path style="fill:#4176BB;" d="M21.505,12.539c0.239-0.005,0.478-0.013,0.717-0.013c0.93,0.002,1.859,0.008,2.789,0.012
		c0,0.969,0,1.938,0.001,2.908c-0.092,0.005-0.183,0.013-0.275,0.013c-0.986,0.001-1.971,0.002-2.957,0.001
		c-0.092,0-0.183-0.01-0.275-0.015C21.505,14.477,21.505,13.508,21.505,12.539z"/>
	<path style="fill:#505AA8;" d="M13.991,18.719c0,0.968,0,1.936,0,2.905c-0.653,0.004-1.307,0.01-1.96,0.01
		c-0.497,0-0.994-0.007-1.49-0.011c0-0.968,0-1.936,0-2.904c0.018-0.005,0.035-0.015,0.053-0.015c1.115,0,2.23,0,3.344,0.001
		C13.956,18.706,13.974,18.715,13.991,18.719z"/>
	<path style="fill:#505AA8;" d="M13.991,12.536c0,0.966,0,1.932,0,2.898c-0.054,0.007-0.109,0.02-0.163,0.02
		c-1.042,0.001-2.084,0.002-3.125,0.001c-0.054,0-0.108-0.014-0.162-0.021c0-0.966,0-1.931-0.001-2.897
		c0.239-0.004,0.478-0.012,0.717-0.011C12.169,12.528,13.08,12.532,13.991,12.536z"/>
	<path style="fill:#505AA8;" d="M13.992,6.357c0,0.964,0,1.927,0.001,2.891c-0.304,0.003-0.607,0.009-0.911,0.008
		c-0.847-0.001-1.693-0.005-2.54-0.008c0-0.964,0-1.927,0-2.891c0.755-0.003,1.509-0.008,2.264-0.009
		C13.2,6.347,13.596,6.354,13.992,6.357z"/>
	<path style="fill:#3D82C4;" d="M24.9,21.627c0-0.969,0-1.939,0-2.908c0.099-0.034,0.201-0.017,0.302-0.017
		c0.811-0.001,1.621-0.001,2.432,0.001c0.202,0,0.404,0.009,0.606,0.014c0,0.97,0,1.941,0,2.911
		C27.127,21.642,26.013,21.646,24.9,21.627z"/>
	<path style="fill:#5D4C9F;" d="M3.973,15.4c0-0.991,0-1.982,0-2.973c0.229,0.08,0.465,0.1,0.707,0.1
		c0.878-0.001,1.755,0.006,2.633,0.009c0,0.966-0.001,1.931-0.001,2.897c-0.026,0.007-0.053,0.019-0.079,0.019
		c-0.931,0.001-1.862,0.003-2.793-0.002C4.283,15.45,4.128,15.418,3.973,15.4z"/>
	<path style="fill:#3D82C4;" d="M25.012,15.447c0-0.969,0-1.938-0.001-2.908c0.524-0.004,1.049-0.014,1.573-0.012
		c0.57,0.003,1.141-0.019,1.711,0.014c0.001,0.469-0.001,0.939,0.003,1.408c0.001,0.136,0.039,0.278,0.036,0.403
		c-0.007,0.297,0.038,0.593,0.013,0.889c-0.006,0.068-0.06,0.133-0.051,0.21c-0.966,0.004-1.933,0.008-2.899,0.01
		C25.268,15.462,25.139,15.478,25.012,15.447z"/>
	<path style="fill:#5D4C9F;" d="M4.11,9.31C3.955,9.264,3.973,9.138,3.973,9.018c0.001-0.67,0-1.34,0-2.01c0-0.202,0-0.404,0-0.606
		c0.074-0.046,0.158-0.047,0.241-0.047c1.033,0,2.066,0.001,3.098,0.002c0,0.964,0,1.927,0,2.891
		c-0.295,0.003-0.59,0.003-0.884,0.01C5.656,9.275,4.881,9.21,4.11,9.31z"/>
	<path style="fill:#3993D0;" d="M32.682,4.991c0.064,0.157,0.07,0.32,0.069,0.487c-0.004,0.657-0.001,1.314-0.002,1.971
		c-0.001,0.34,0.018,0.68-0.055,1.016c-0.523,0.295-1.089,0.478-1.671,0.604c-0.438,0.095-0.879,0.197-1.335,0.17
		c0-0.964,0-1.928-0.001-2.893c0.03-0.044,0.076-0.043,0.122-0.046c0.746-0.059,1.424-0.317,2.06-0.701
		C32.162,5.423,32.405,5.185,32.682,4.991z"/>
	<path style="fill:#3A89C9;" d="M27.462,33.093c0.001-2.432,0.002-4.863,0.003-7.295c0.371,0.223,0.654,0.543,0.916,0.874
		c0.503,0.633,0.814,1.366,0.901,2.165c0.153,1.395-0.202,2.651-1.177,3.695C27.912,32.74,27.724,32.96,27.462,33.093z"/>
	<path style="fill:#5653A3;" d="M7.311,15.433c0-0.966,0.001-1.931,0.001-2.897c0.156-0.004,0.312-0.011,0.468-0.011
		c0.92,0.003,1.84,0.007,2.76,0.011c0,0.966,0,1.931,0.001,2.897c-0.054,0.007-0.108,0.02-0.163,0.02
		c-0.968,0.001-1.937,0.002-2.905,0C7.42,15.454,7.365,15.441,7.311,15.433z"/>
	<path style="fill:#5653A3;" d="M10.541,18.72c0,0.968,0,1.936,0,2.904c-0.699,0.004-1.398,0.016-2.097,0.008
		c-0.371-0.004-0.732,0.024-1.075,0.177c-0.001-1.005-0.002-2.009-0.003-3.014c0.218-0.086,0.453-0.082,0.678-0.086
		c0.796-0.016,1.592-0.006,2.388-0.005C10.468,18.704,10.505,18.714,10.541,18.72z"/>
	<path style="fill:#5653A3;" d="M7.313,9.248c0-0.964,0-1.927,0-2.891c1.076-0.017,2.152-0.015,3.228,0c0,0.964,0,1.927,0,2.891
		C9.465,9.262,8.389,9.264,7.313,9.248z"/>
	<path style="fill:#4176BB;" d="M24.457,9.247c-1.039,0-2.078,0-3.117,0c0-0.963-0.001-1.927-0.001-2.89c1.039,0,2.078,0,3.117,0
		C24.456,7.32,24.456,8.283,24.457,9.247z"/>
	<path style="fill:#3D82C4;" d="M24.457,9.247c0-0.964-0.001-1.927-0.001-2.891c0.928,0,1.855,0,2.783,0c0,0.963,0,1.927,0.001,2.89
		C26.312,9.247,25.384,9.247,24.457,9.247z"/>
	<path style="fill:#3A89C9;" d="M27.239,9.247c0-0.963,0-1.927-0.001-2.89c0.816-0.003,1.632-0.007,2.448-0.01
		c0,0.964,0,1.928,0.001,2.893C28.872,9.263,28.056,9.254,27.239,9.247z"/>
	<path style="fill:#446DB5;" d="M19.223,3.055c0-0.996,0-1.992,0.001-2.988c0.121-0.075,0.261-0.035,0.39-0.067
		c0.567,0.002,1.135,0.004,1.702,0.007c0.101,0.001,0.201,0.005,0.302,0.008c0,0.963,0,1.925,0,2.888
		c-0.491,0.003-0.981,0.015-1.472,0.006C19.827,2.904,19.521,2.947,19.223,3.055z"/>
	<path style="fill:#446DB5;" d="M21.339,6.357c0,0.963,0.001,1.927,0.001,2.89c-0.724,0-1.447,0-2.171,0c0-0.963,0-1.927,0-2.89
		C19.892,6.341,20.615,6.343,21.339,6.357z"/>
	<path style="fill:#446DB5;" d="M21.505,12.539c0,0.969,0,1.938,0,2.907c-0.649,0.022-1.299,0.025-1.948-0.001
		c0-0.969,0-1.937,0-2.906C20.207,12.518,20.856,12.519,21.505,12.539z"/>
	<path style="fill:#446DB5;" d="M21.283,18.72c0,0.969,0,1.938,0,2.907c-0.631,0.015-1.262,0.018-1.892,0
		c0.076-0.251,0.055-0.51,0.056-0.767c0.001-0.713,0-1.427,0-2.14C20.058,18.693,20.671,18.694,21.283,18.72z"/>
	<path style="fill:#446DB5;" d="M20.616,24.913c0,0.964-0.001,1.928-0.001,2.891c-0.557,0.013-1.113,0.016-1.67-0.001
		c0-0.963,0-1.927,0-2.89C19.503,24.913,20.059,24.913,20.616,24.913z"/>
	<path style="fill:#4176BB;" d="M21.617,2.903c0-0.963,0-1.925,0-2.888c1.02,0,2.041,0,3.061,0c0,0.963,0,1.926,0,2.889
		C23.658,2.904,22.638,2.903,21.617,2.903z"/>
	<path style="fill:#3993D0;" d="M32.582,0.015c0,0.963,0,1.926,0,2.889c-1.002,0-2.004,0-3.006,0c0-0.963,0-1.926,0-2.888
		C30.578,0.015,31.58,0.015,32.582,0.015z"/>
	<path style="fill:#3D82C4;" d="M24.679,2.904c0-0.963,0-1.926,0-2.889c0.853,0,1.707,0,2.56,0c0,0.963,0,1.926,0,2.889
		C26.386,2.904,25.532,2.904,24.679,2.904z"/>
	<path style="fill:#3A89C9;" d="M27.239,2.904c0-0.963,0-1.926,0-2.889c0.779,0,1.558,0,2.338,0c0,0.963,0,1.926,0,2.888
		C28.797,2.904,28.018,2.904,27.239,2.904z"/>
</g>
</svg>
