<?xml version="1.0" encoding="iso-8859-1"?>
<!-- Generator: Adobe Illustrator 27.0.0, SVG Export Plug-In . SVG Version: 6.00 Build 0)  -->
<svg version="1.1" id="Layer_1" xmlns="http://www.w3.org/2000/svg" xmlns:xlink="http://www.w3.org/1999/xlink" x="0px" y="0px"
	 viewBox="0 0 935.387 343" style="enable-background:new 0 0 935.387 343;" xml:space="preserve">
<g>
	<path style="fill:#208689;" d="M165.387,0c0.255,2.164,2.056,3.274,3.299,4.739c2.762,3.257,5.624,6.43,8.827,10.072
		c-9.19,0-17.73,0-26.757,0C155,9.327,160.547,5.42,164.387,0C164.721,0,165.054,0,165.387,0z"/>
	<path style="fill:#26878A;" d="M162.387,343c-2.14-4.549-6.349-7.457-9.121-11.505c-0.623-0.91-1.839-1.467-1.688-3.12
		c8.01,0,16.033,0,24.341,0c-2.44,4.305-6.443,7.227-9.524,10.918c-1.019,1.221-2.658,1.943-3.008,3.706
		C163.054,343,162.721,343,162.387,343z"/>
	<path style="fill:#398C8F;" d="M935.387,227c-1.176,1.721-2.167,3.613-3.563,5.131c-4.35,4.729-11.251,4.789-15.795,0.055
		c-4.37-4.553-4.079-11.651,0.724-15.864c5.1-4.474,13.25-2.976,16.752,2.882c0.742,1.241,0.211,3.075,1.882,3.795
		C935.387,224.333,935.387,225.667,935.387,227z M919.015,231.368c4.088,2.676,6.628,2.569,10.044-0.424
		c3.835-3.05,4.576-7.802,1.805-11.589c-2.837-3.877-7.376-4.483-11.649-1.555C913.944,221.96,913.867,227.166,919.015,231.368z"/>
	<path style="fill:#0D8386;" d="M732.745,237.004c-27.776,0.347-54.505-16.986-64.167-43.805
		c-8.012-22.24-5.031-43.344,9.345-62.174c15.178-19.88,35.904-28.571,60.67-26.845c28.257,1.969,54.964,21.584,61.486,53.131
		c6.46,31.247-9.953,60.69-38.339,73.609C752.551,235.101,742.883,237.234,732.745,237.004z M767.386,170.287
		c-0.053-18.869-15.796-34.385-34.786-34.285c-18.561,0.097-34.183,15.821-34.211,34.433c-0.028,18.824,15.733,34.566,34.607,34.564
		C751.835,204.997,767.44,189.246,767.386,170.287z"/>
	<path style="fill:#128487;" d="M805.967,107.083c1.258-0.086,2.237-0.21,3.216-0.211c16.157-0.012,32.317-0.173,48.472,0.046
		c12.174,0.165,23.225,3.874,32.338,12.238c6.827,6.266,10.187,14.259,10.488,23.458c0.217,6.64,0.204,13.254-2.02,19.72
		c-3.599,10.464-10.389,17.58-20.914,21.08c-0.628,0.209-1.274,0.369-1.898,0.589c-0.431,0.152-0.841,0.366-1.714,0.754
		c11.954,16.323,23.783,32.478,35.988,49.143c-14.187,0-27.615,0-41.574,0c-8.984-14.368-18.115-28.972-27.246-43.576
		c-1.02,4.745-0.981,9.393-0.987,14.038c-0.007,4.997,0.052,9.995-0.017,14.991c-0.066,4.783,0.321,9.586-0.293,14.563
		c-11.326,0-22.428,0-33.838,0C805.967,191.744,805.967,149.683,805.967,107.083z M840.252,165.238
		c7.491,1.065,14.337,0.405,20.166-4.047c6.999-5.345,6.986-18.089,0.111-23.31c-6.091-4.626-13.097-4.668-20.277-3.75
		C840.252,144.579,840.252,154.536,840.252,165.238z"/>
	<path style="fill:#128487;" d="M664.998,111.248c0,12.877,0,25.515,0,38.182c-1.85,0.276-2.176-1.407-2.975-2.262
		c-14.916-15.966-44.793-14.584-55.378,9.214c-8.512,19.136,1.085,41.134,22.356,46.196c11.843,2.819,22.727-0.515,31.927-8.717
		c0.984-0.878,1.979-1.744,2.986-2.596c0.09-0.076,0.301-0.01,0.456-0.008c0.902,3.485,1.167,32.078,0.357,38.559
		c-22.305,11.567-57.465,8.109-79.064-16.45c-21.713-24.689-21.878-60.374-0.427-85.266
		C606.328,103.625,641.573,99.319,664.998,111.248z"/>
	<path style="fill:#0B8386;" d="M323.334,170.047c13.647-0.06,27.295-0.141,40.942-0.175c12.146-0.03,24.292-0.006,36.631-0.006
		c0.979,3.891,0.281,7.677,0.46,11.886c-10.856,0-21.587,0-32.646,0c0,11.178,0,21.909,0,33.004c19.394,0,38.91,0,58.893,0
		c0-14.831,0-29.564,0-44.572c6.694-0.68,12.952-0.103,19.553-0.366c0,21.475,0,42.659,0,64.081c-41.172,0-82.218,0-123.746,0
		c0-21.401,0-42.666,0-63.931C323.422,169.967,323.334,170.047,323.334,170.047z"/>
	<path style="fill:#058386;" d="M323.353,163.964c0.231,2.029,0.308,4.057-0.019,6.084l0.088-0.08c-16.32,0-32.64,0-48.952,0
		c-2.554,2.311-3.645,5.66-6.574,8.155c-68.856,0-138.066,0-207.706,0c1.334,3.027,3.834,4.749,4.743,7.668
		c-16.134,0-32.21,0-49.12,0C10.893,180.293,5.577,174.353,0,168.121c0.769-0.848,2.187-2.413,3.455-3.812
		c1.684-0.687,3.201-0.429,4.683-0.429c103.767-0.013,207.533-0.012,311.3-0.005c1.328,0,2.657,0.103,3.986,0.159L323.353,163.964z"
		/>
	<path style="fill:#0F8486;" d="M323.424,164.034c0-18.928,0-37.856,0-56.96c31.69,0,62.914,0,94.328,0
		c0.671,2.943,0.328,5.764,0.328,8.546c0,2.79,0.346,5.616-0.41,8.89c-16.276,0-32.498,0-48.996,0c0,8.747,0,16.97,0,25.501
		c10.791,0,21.388,0,32.227,0c0.944,4.651,0.321,9.052,0.467,13.953c-26.2,0-52.108,0-78.015,0L323.424,164.034z"/>
	<path style="fill:#058386;" d="M297.184,136.97c1.588,1.847,2.975,3.459,5.02,5.836c-8.069,0.377-15.268,0.138-22.455,0.183
		c-7.302,0.045-14.604,0.01-22.001,0.01c0.629,3.198,3.518,4.777,4.248,7.88c-65.376,0-130.643,0-196.031,0
		c-1.968,2.378-3.859,4.664-5.781,6.988c-16.855,0-33.645,0-50.462,0c6.829-7.105,13.582-14.129,20.088-20.897
		C119.228,136.97,208.04,136.97,297.184,136.97z"/>
	<path style="fill:#0D8386;" d="M78.522,206.218c0.3,2.569,2.653,3.497,2.899,5.486c-0.101,0.234-0.143,0.406-0.241,0.534
		c-0.09,0.117-0.242,0.267-0.367,0.267c-12.817,0.012-25.633,0.011-38.166,0.011c-6.846-6.914-13.603-13.737-20.208-20.408
		c94.154,0,188.855,0,284.063,0c-1.633,2.089-3.038,3.887-4.58,5.858c-15.149,0-30.286,0-45.483,0
		c-1.92,2.729-3.726,5.295-5.807,8.251C193.426,206.218,136.045,206.218,78.522,206.218z"/>
	<path style="fill:#208689;" d="M270.217,109.361c1.404,1.584,2.646,2.924,3.809,4.329c0.407,0.492,0.621,1.144,1.177,2.209
		c-6.289,0-12.203,0-18.117,0c-5.79,0-11.58,0-17.541,0c0.736,3.048,3.222,4.686,3.845,7.31c-0.658,0.185,0.351-0.008-0.089,0.492
		c-0.094,0.107-0.308,0.154-0.466,0.154c-52.982,0.006-105.964,0.006-158.601,0.006c-2.859,2.044-3.829,5.163-6.497,7.033
		c-13.794,0-27.774,0-42.35,0c7.254-7.863,15.011-14.529,22.195-21.535C128.565,109.361,199.206,109.361,270.217,109.361z"/>
	<path style="fill:#0D8386;" d="M521.376,163.696c0-7.259,0-14.218,0-21.177c-0.196-0.03-0.392-0.06-0.589-0.09
		c-2.006,7.071-4.013,14.142-6.053,21.333c-5.572,0-10.996,0-17.069,0c5.217-19.028,10.327-37.667,15.509-56.568
		c17.239,0,34.31,0,51.741,0c0,18.6,0,37.321,0,56.094C561.502,164.229,532.851,164.566,521.376,163.696z"/>
	<path style="fill:#228689;" d="M47.183,218.229c77.848,0,155.771,0,234.039,0c-1.088,2.782-3.182,4.391-5.094,6.468
		c-12.058,0-24.189,0-36.176,0c-2.84,2.315-4.075,5.551-6.497,8.194c-45.814,0-91.747,0-137.818,0
		c0.202,3.096,3.238,4.388,3.731,7.01c-3.606,1.051-21.102,1.365-29.877,0.653C61.787,232.844,54.524,225.576,47.183,218.229z"/>
	<path style="fill:#128487;" d="M447.353,142.705c0,6.943,0,13.886,0,21.06c-6.51,0-12.774,0-19.367,0c0-18.713,0-37.425,0-56.148
		c3.434-0.926,43.892-1.211,50.855-0.305c5.234,18.609,10.503,37.345,15.875,56.447c-13.464,0-26.397,0-39.663,0
		C452.232,156.99,451.062,149.417,447.353,142.705z"/>
	<path style="fill:#0F8486;" d="M521.619,233.839c0-21.414,0-42.478,0-63.511c10.199-1.313,38.881-1.482,43.455-0.229
		c0,21.038,0,42.132,0,63.223C561.544,234.364,532.76,234.727,521.619,233.839z"/>
	<path style="fill:#26878A;" d="M83.904,82.345c53.482,0,106.466,0,159.63,0c1.592,1.793,3.211,3.616,5.571,6.275
		c-9.58,0-18.107,0-26.8,0c0.169,3.566,3.342,5.075,3.768,8.247c-41.57,0-83.025,0-124.473,0c-1.932,2.38-3.709,4.569-5.55,6.837
		c-11.08,0-22.173,0-34.099,0C69.585,96.275,76.692,89.361,83.904,82.345z"/>
	<path style="fill:#26878A;" d="M254.824,246.367c-1.913,2.414-3.419,4.316-4.977,6.282c-9.268,0-18.412,0-27.418,0
		c-3.044,2.067-3.943,5.588-6.769,8.142c-33.76,0-67.875,0-102.138,0c-0.331,2.884,2.935,3.815,2.736,6.608
		c-7.24,0-14.474,0-21.809,0c-6.638-6.982-13.455-14.151-19.997-21.032C133.813,246.367,193.959,246.367,254.824,246.367z"/>
	<path style="fill:#0B8386;" d="M456.776,170.144c19.081,0,37.307,0,56.178,0c-6.01,21.553-11.902,42.683-17.799,63.831
		c-6.556,0-12.676,0-19.076,0C469.696,212.866,463.333,191.825,456.776,170.144z"/>
	<path style="fill:#228689;" d="M88.573,76.746c7.211-7.888,15.028-14.347,22.186-21.521c35.377,0,70.668,0,106.132,0
		c1.88,1.7,3.704,3.542,5.542,6.424c-6.325,0-12.044,0-17.994,0c0.255,3.452,3.291,4.994,3.84,8.19c-29.768,0-59.339,0-88.814,0
		c-2.026,2.453-3.817,4.621-5.705,6.908C105.68,76.746,97.539,76.746,88.573,76.746z"/>
	<path style="fill:#228689;" d="M228.651,273.551c-1.176,2.638-2.794,4.272-4.704,6.147c-6.25,0-12.706,0-18.985,0
		c-2.636,2.371-3.889,5.374-6.4,8.113c-22.32,0-45.075,0-68.095,0c0.119,3.073,3.212,4.171,3.384,6.899c-4.59,0-9.173,0-13.047,0
		c-7.224-7.268-14.104-14.189-20.813-20.938C102.84,272.909,220.585,272.521,228.651,273.551z"/>
	<path style="fill:#228689;" d="M138.049,27.304c17.422,0,34.375,0,51.495,0c2.109,1.497,3.455,3.7,5.095,5.991
		c-2.87,1.24-5.605,0.022-8.264,1.017c0.465,2.833,3.158,4.533,4.054,7.566c-17.686,0-35.082,0-52.462,0
		c-2.132,2.619-4.111,5.049-6.214,7.633c-4.967,0-10.038,0-16.198,0C123.117,41.376,130.684,34.556,138.049,27.304z"/>
	<path style="fill:#26878A;" d="M203.137,300.587c-0.349,0.73-0.475,1.229-0.775,1.579c-1.295,1.51-2.642,2.977-4.198,4.714
		c-3.491,0-7.111,0-10.728,0c-1.982,2.779-3.799,5.328-5.748,8.061c-11.248,0-22.529,0-34.083,0
		c0.313,3.039,3.218,4.369,3.812,7.389c-2.315,0.627-4.363,0.938-6.301-0.97c-6.63-6.527-13.295-13.02-19.93-19.542
		c-0.206-0.203-0.234-0.588-0.471-1.231C150.806,300.587,176.765,300.587,203.137,300.587z"/>
	<path style="fill:#EBEFEF;" d="M919.215,217.8c4.273-2.928,8.812-2.322,11.649,1.555c2.771,3.787,2.031,8.539-1.805,11.589
		l-0.404,0.12c-0.029-1.923-1.81-3.08-2.176-5.008c0.85-1.231,2.535-2.032,2.566-4.381c-0.357-2.502-2.316-3.58-5.102-3.602
		c-1.481-0.012-2.962,0.019-4.443,0.03L919.215,217.8z"/>
	<path style="fill:#499194;" d="M928.655,231.064c-1.538,0.187-2.43-0.673-3.156-1.881c-0.746-1.241-1.31-2.683-3.054-3.117
		c-1.842,1.055-0.215,3.106-0.85,3.932c-0.79,1.141-1.487,0.863-2.107,0.902c0.004-4.265,0.008-8.53,0.011-12.796
		c1.481-0.011,2.962-0.041,4.443-0.03c2.786,0.022,4.745,1.1,5.102,3.602c-0.03,2.349-1.716,3.15-2.566,4.381
		C926.845,227.984,928.625,229.141,928.655,231.064z M921.925,220.686c-0.6,1.691-0.384,2.882,1.357,3.117
		c1.535,0.208,2.987-0.029,3.1-2.113C925.362,219.947,923.932,219.802,921.925,220.686z"/>
	<path style="fill:#DDE5E6;" d="M921.925,220.686c2.006-0.884,3.437-0.739,4.457,1.005c-0.113,2.083-1.565,2.321-3.1,2.113
		C921.542,223.568,921.326,222.377,921.925,220.686z"/>
</g>
</svg>
