<?xml version="1.0" encoding="iso-8859-1"?>
<!-- Generator: Adobe Illustrator 27.0.0, SVG Export Plug-In . SVG Version: 6.00 Build 0)  -->
<svg version="1.1" id="Layer_1" xmlns="http://www.w3.org/2000/svg" xmlns:xlink="http://www.w3.org/1999/xlink" x="0px" y="0px"
	 viewBox="0 0 1789.93 646.031" style="enable-background:new 0 0 1789.93 646.031;" xml:space="preserve">
<g>
	<path style="fill:#E85225;" d="M0.959,382.962c1.101-21.829,5.654-42.983,12.543-63.668c4.351-13.064,9.874-25.629,16.385-37.761
		c0.54-1.007,0.923-2.132,1.951-2.803c1.318,3.177,4.399,3.645,7.123,4.799c16.353,6.928,32.612,14.079,49.026,20.858
		c4.363,1.802,8.445,4.594,13.408,4.784c-5.004,9.556-10.211,19.015-13.95,29.174c-5.592,15.192-9.249,30.79-10.725,46.962
		c-0.76,8.323-0.696,16.644-0.457,24.914c0.116,3.996,1.196,8.216,1.723,12.319c0.697,5.42,2.102,10.644,3.259,15.941
		c1.981,9.071,5.019,17.754,8.765,26.272c5.251,11.942,11.311,23.356,19.104,33.841c3.775,5.079,7.354,10.273,11.883,14.778
		c5.148,5.12,23.53,20.774,30.258,25.349c11.03,7.499,22.637,13.907,35.022,18.901c12.375,4.991,25.141,8.529,38.328,10.538
		c22.429,3.417,44.751,3.024,66.937-1.968c0.81-0.182,1.646-0.25,2.47-0.372c-0.618,2.595,1.242,3.937,2.758,5.453
		c16.711,16.71,33.434,33.408,50.106,50.157c1.215,1.22,3.18,2.054,2.957,4.311c-13.015,5.235-26.124,10.174-39.821,13.402
		c-12.316,2.903-24.768,4.79-37.366,6.008c-9.818,0.95-19.619,1.008-29.437,0.742c-15.669-0.423-31.141-2.486-46.432-5.943
		c-30.289-6.849-58.471-18.665-84.349-35.86c-16.558-11.001-31.744-23.681-45.152-38.367c-17.541-19.213-32.027-40.577-43.04-64.148
		c-9.721-20.804-16.631-42.559-20.266-65.3c-1.34-8.382-2.494-16.778-2.974-25.257C0.946,410.209,1.034,409.327,0,409
		c0-1.333,0-2.667,0-4c0.647-0.34,0.904-0.874,0.905-1.605C0.914,396.584,0.939,389.773,0.959,382.962z"/>
	<path style="fill:#BCBDB6;" d="M1655.774,262.003c-1.572-1.899-1.151-4.294-0.558-6.109c0.816-2.494,0.704-4.902,0.705-7.353
		c0.024-80.851,0.02-161.702,0.023-242.553c0-1.996,0.036-3.992,0.056-5.988c25,0,50,0,75,0
		c0.01,81.892,0.014,163.784,0.052,245.676c0.002,3.615-0.282,7.221,0.75,10.851c0.456,1.606,1.089,3.924-0.822,5.491
		C1705.911,262.012,1680.843,262.008,1655.774,262.003z"/>
	<path style="fill:#F39B71;" d="M0.959,382.962c-0.02,6.811-0.045,13.622-0.054,20.433C0.904,404.126,0.647,404.66,0,405
		c0-7.333,0-14.667,0-22C0.32,382.987,0.639,382.975,0.959,382.962z"/>
	<path style="fill:#E22A26;" d="M101.393,309.17c-4.962-0.189-9.045-2.982-13.408-4.784c-16.413-6.779-32.673-13.93-49.026-20.858
		c-2.724-1.154-5.805-1.622-7.123-4.799c5.558-11.223,12.821-21.337,20.371-31.259c5.757-7.566,12.143-14.588,18.765-21.395
		c1.431-1.471,2.474-3.365,5.157-3.384c1.128-0.008,2.293-1.75,3.355-2.792c15.062-14.767,31.84-27.318,50.223-37.564
		c24.838-13.844,51.292-23.403,79.368-28.343c18.435-3.244,37.002-4.549,55.672-3.572c19.654,1.029,38.95,4.539,57.827,10.066
		c30.784,9.014,58.889,23.371,84.285,43c7.386,5.709,14.515,11.708,21.084,18.349c1.086,1.098,2.718,1.847,2.164,4.056
		c-0.363,1.449,1.315,2.177,2.177,3.112c16.896,18.342,31.17,38.461,42.039,60.979c10.015,20.748,17.468,42.311,21.605,64.995
		c-0.829,0.054-1.657,0.155-2.486,0.155c-23.943,0.009-47.887,0.011-71.83-0.004c-0.988-0.001-1.977-0.179-2.965-0.274
		c-7.65-29.447-22.447-54.734-43.093-77.076c-24.602-26.623-55.333-41.652-90.146-48.36c-50.876-9.802-97.363,1.67-139.188,32.083
		c-4.97,3.614-9.311,8.08-14.18,11.847C119.332,283.183,110.263,296.08,101.393,309.17z"/>
	<path style="fill:#158DCA;" d="M1363.873,228.291c-11.034-1.363-22.073-2.797-33.225-2.189
		c-22.144,1.207-43.527,5.659-63.997,14.491c-12.635,5.451-24.362,12.467-35.637,20.146c-9.258,6.304-17.199,14.373-24.721,22.691
		c-11.184,12.366-20.341,26.143-27.581,41.185c-3.807,7.91-6.782,16.146-9.79,24.373c-1.381,0.185-2.553-0.331-3.785-0.913
		c-7.439-3.516-15.144-6.416-22.666-9.756c-11.558-5.132-23.319-9.814-35.072-14.491c-2.705-1.076-5.207-2.918-8.325-2.837
		c2.694-9.947,6.775-19.369,11.247-28.598c9.965-20.567,22.365-39.529,37.366-56.846c5.47-6.314,11.683-11.705,17.776-17.303
		c11.526-10.587,23.747-20.274,36.879-28.789c17.348-11.249,36.01-19.735,55.557-26.383c15.252-5.187,30.89-8.776,46.823-10.876
		c14.007-1.847,28.131-2.785,42.268-1.961c14.067,0.82,27.998,2.853,41.766,5.889c1.221,0.269,2.677,0.391,3.339,1.817
		c-3.478,5.555-5.211,11.895-7.849,17.824c-5.452,12.252-10.329,24.767-15.186,37.274
		C1367.116,218.034,1363.766,222.591,1363.873,228.291z"/>
	<path style="fill:#0FA8DB;" d="M1099.072,320.991c3.117-0.081,5.62,1.761,8.325,2.837c11.753,4.677,23.515,9.359,35.072,14.491
		c7.522,3.34,15.227,6.24,22.666,9.756c1.232,0.582,2.404,1.098,3.785,0.913c-1.561,7.595-3.682,15.05-5.076,22.701
		c-1.923,10.555-2.103,21.138-1.882,31.769c0.281,13.492,2.879,26.642,6.553,39.564c9.439,33.203,26.779,61.559,52.665,84.505
		c12.252,10.86,26.232,19.158,40.79,26.52c-0.095,1.632,0.269,3.258-0.409,4.894c-4.635,11.192-9.206,22.411-13.792,33.624
		c-4.273,10.448-8.539,20.9-12.808,31.35c-12.329-4.985-23.921-11.383-34.991-18.692c-12.889-8.51-24.849-18.187-36.133-28.777
		c-23.042-21.624-40.794-46.978-54.275-75.432c-8.96-18.913-15.274-38.734-19.307-59.227c-1.719-8.738-2.743-17.626-3.522-26.548
		c-0.653-7.476-0.819-14.911-0.755-22.381c0.105-12.119,1.792-24.055,3.774-35.997c1.899-11.447,4.697-22.622,8.269-33.63
		C1098.276,322.453,1098.718,321.736,1099.072,320.991z"/>
	<path style="fill:#BCBDB6;" d="M418.648,354.854c0.988,0.095,1.977,0.274,2.965,0.274c23.943,0.015,47.887,0.013,71.83,0.004
		c0.829,0,1.657-0.101,2.486-0.155c1.276,0.161,2.757-0.297,3.802,1.716c0,24.223,0,48.971,0,74.013c-87.517,0-174.846,0-262.473,0
		c0-25.121,0-50.151,0-75.674c1.965,0,3.755,0,5.545,0c56.453,0,112.906,0.002,169.359-0.007
		C414.324,355.024,416.486,354.913,418.648,354.854z"/>
	<path style="fill:#BCBDB6;" d="M646.744,364.776c-0.818,2.052-0.711,4.205-0.71,6.351c0.005,18.82,0.013,37.64-0.015,56.46
		c-0.003,1.628,0.343,3.306-0.463,5.177c-24.637,0-49.347,0-74.03,0c-0.731-4.183-0.833-257.105-0.095-262.448
		c24.673,0,49.385,0,74.116,0c0.829,1.751,0.468,3.433,0.472,5.051c0.033,12.658-0.014,25.316,0.06,37.973
		c0.009,1.555-0.795,3.347,0.774,4.682c-1.087,1.648-0.804,3.51-0.804,5.316c-0.007,45.559-0.012,91.117,0.022,136.676
		C646.073,361.603,645.497,363.338,646.744,364.776z"/>
	<path style="fill:#BCBDB6;" d="M943.338,375.193c24.916,0,49.517,0,74.656,0c0,87.568,0,174.944,0,262.536
		c-24.396,0-49.332,0-74.262,0C942.763,634.139,942.353,385.18,943.338,375.193z"/>
	<path style="fill:#BCBDB6;" d="M1580.899,354.905c0.301,0.757,1.046,1.686,0.83,2.242c-1.259,3.248-0.637,6.586-0.649,9.865
		c-0.071,19.151-0.035,38.302-0.035,57.454c0,1.641,0,3.281,0,5.234c-87.342,0-174.352,0-261.379,0
		c-0.916-3.443-1.263-65.62-0.378-74.192c1.817-0.916,3.839-0.461,5.774-0.462c57.62-0.028,115.24-0.022,172.861-0.027
		c1.831,0,3.661-0.069,5.492-0.106c16.227,0.055,32.453,0.141,48.68,0.153C1561.695,355.074,1571.297,354.963,1580.899,354.905z"/>
	<path style="fill:#E54E89;" d="M917.967,281.044c-18.103-24.286-41.463-41.257-70.435-50.257
		c-13.21-4.104-26.756-6.285-40.655-5.611c-23.215,1.126-45.544,5.916-66.554,16.145c-0.433,0.211-0.917,0.317-1.376,0.473
		c-0.012-26.426-0.024-52.853-0.036-79.279c7.472-3.276,15.413-4.996,23.353-6.453c15.112-2.775,30.285-5.037,45.741-5.238
		c4-0.052,8.092-0.997,12.22-0.973c11.669,0.068,23.078,1.994,34.427,4.479c17.869,3.913,34.997,9.898,51.241,18.33
		c12.702,6.593,24.715,14.265,35.666,23.509c5.331,4.5,10.798,8.906,15.643,13.899c6.934,7.145,13.64,14.534,19.566,22.588
		c10.571,14.366,19.141,29.84,25.971,46.296c0.124,0.298,0.115,0.652,0.168,0.98c-26.404,0.02-52.808,0.041-79.212,0.059
		C921.72,279.993,919.705,279.758,917.967,281.044z"/>
	<path style="fill:#1278BD;" d="M1580.899,354.905c-9.602,0.058-19.204,0.168-28.806,0.161c-16.227-0.012-32.453-0.098-48.68-0.153
		c-3.367-13.795-8.92-26.732-15.627-39.184c-6.571-12.201-14.377-23.658-23.783-33.775c-8.819-9.485-18.761-17.85-29.449-25.311
		c-20.008-13.966-42.336-22.21-65.925-27.524c-1.578-0.355-3.362,0.52-4.755-0.829c-0.107-5.7,3.243-10.257,5.183-15.251
		c4.858-12.506,9.735-25.021,15.186-37.274c2.638-5.929,4.371-12.269,7.849-17.824c6.832,0.207,13.305,2.234,19.69,4.316
		c22.033,7.183,42.83,17.065,62.213,29.776c13.511,8.86,26.516,18.506,37.577,30.327c24.71,26.41,44.87,55.792,57.456,90.019
		C1574.131,326.257,1578.189,340.382,1580.899,354.905z"/>
	<path style="fill:#72BA65;" d="M1730.957,403.996c0.063,3.155,0.178,6.311,0.181,9.466c0.023,23.123-0.303,46.253,0.144,69.368
		c0.304,15.691,3.399,30.961,10.92,44.992c1.625,3.032,2.45,6.505,4.891,9.096c-1.585,2.085-3.03,4.297-4.781,6.231
		c-5.844,6.453-11.043,13.438-16.738,20.021c-6.104,7.056-11.814,14.463-17.783,21.649c-3.119,3.755-6.456,7.388-8.896,11.679
		c-15.135-16.377-25.806-35.382-32.749-56.472c-4.473-13.587-7.332-27.54-8.315-41.866c-0.307-4.476-0.297-9.02-0.949-13.416
		c-2.431-16.389-0.642-32.833-1.087-49.241c-0.285-10.485,0.044-20.986,0.098-31.479
		C1680.914,404.014,1705.936,404.005,1730.957,403.996z"/>
	<path style="fill:#71C4E8;" d="M1234.962,623.915c4.269-10.45,8.535-20.902,12.808-31.35c4.586-11.213,9.157-22.431,13.792-33.624
		c0.678-1.636,0.313-3.261,0.409-4.894c4.888,1.939,9.726,4.019,14.674,5.789c10.389,3.714,21.067,6.294,31.938,8.245
		c13.493,2.422,27.081,2.302,40.642,1.786c7.67-0.292,15.328-1.7,22.85-3.46c0.985-0.23,1.943-0.32,2.925-0.407
		c-0.195,1.553,0.889,2.407,1.833,3.328c2.83,2.762,5.871,5.307,8.767,7.974c7.521,6.925,15.198,13.68,22.669,20.648
		c5.433,5.067,11.413,9.556,16.356,15.153c0.76,0.861,1.917,1.363,2.689,2.1c2.797,2.668,6.496,4.612,7.635,8.737
		c-8.809,3.962-17.664,7.61-26.983,10.461c-10.412,3.185-20.82,6.024-31.52,7.862c-6.971,1.197-13.97,2.141-21.023,2.858
		c-8.783,0.893-17.548,1.044-26.328,0.814c-12.875-0.337-25.697-1.616-38.31-4.176c-13.212-2.682-26.334-5.869-38.967-10.715
		C1246.122,628.859,1240.286,626.985,1234.962,623.915z"/>
	<path style="fill:#2BA466;" d="M1730.957,403.996c-25.021,0.009-50.042,0.018-75.064,0.028c-0.046-0.994-0.131-1.988-0.131-2.982
		c-0.025-45.184-0.043-90.368-0.058-135.552c0-1.162,0.046-2.324,0.071-3.486c25.069,0.005,50.137,0.01,75.206,0.014
		c0.053,1.164,0.153,2.328,0.153,3.492c-0.005,45.165-0.017,90.33-0.036,135.496
		C1731.096,402.002,1731.005,402.999,1730.957,403.996z"/>
	<path style="fill:#E5196C;" d="M738.911,162.516c0.012,26.426,0.024,52.853,0.036,79.279c-8.831,4.66-17.139,10.13-25.22,15.984
		c-14.002,10.145-25.344,22.889-35.461,36.715c-14.764,20.179-24.82,42.636-31.018,66.835c-0.286,1.119-0.342,2.296-0.504,3.447
		c-1.247-1.438-0.672-3.173-0.673-4.762c-0.035-45.559-0.03-91.117-0.022-136.676c0-1.807-0.283-3.669,0.804-5.316
		c9.112-8.509,18.662-16.477,28.774-23.789c16.363-11.833,34.178-20.897,52.946-28.196
		C731.971,164.716,735.34,163.322,738.911,162.516z"/>
	<path style="fill:#B6DDF2;" d="M1434.949,623.94c-1.139-4.125-4.838-6.069-7.635-8.737c-0.773-0.737-1.929-1.24-2.689-2.1
		c-4.943-5.596-10.922-10.086-16.356-15.153c-7.471-6.968-15.148-13.723-22.669-20.648c-2.895-2.666-5.936-5.211-8.767-7.974
		c-0.944-0.921-2.028-1.775-1.833-3.328c5.041-2.298,10.51-3.25,15.733-4.991c14.175-4.724,27.335-11.511,39.923-19.411
		c5.421-3.402,10.347-7.586,15.581-11.298c2.787-1.977,3.534-1.829,5.972,0.419c8.15,7.516,16.336,15.004,24.601,22.381
		c8.002,7.142,15.518,14.849,24.062,21.382c1.111,0.849,1.371,2.214,2.186,3.713c-2.918,3.834-6.597,7.152-10.306,10.287
		c-9.443,7.981-19.677,14.937-30.212,21.376c-8.558,5.231-17.331,10.148-26.605,14.068
		C1435.656,624.045,1435.281,623.94,1434.949,623.94z"/>
	<path style="fill:#F0A8BE;" d="M917.967,281.044c1.738-1.286,3.753-1.051,5.728-1.052c26.404-0.019,52.808-0.039,79.212-0.059
		c3.243,7.05,5.585,14.357,7.302,21.954c0.921,4.074,2.442,8.076,3.274,12.206c1.753,8.705,3.399,17.437,3.453,26.369
		c0.004,0.642-0.11,1.284-0.198,2.227c-24.984,0-49.843,0-74.968,0c-0.933-4.334-1.888-8.449-2.698-12.592
		c-1.647-8.421-4.263-16.497-7.704-24.374c-3.59-8.218-7.827-16.01-13.121-23.24C917.986,282.126,918.053,281.529,917.967,281.044z"
		/>
	<path style="fill:#F39B71;" d="M349.831,625.74c0.222-2.256-1.743-3.09-2.957-4.311c-16.671-16.749-33.395-33.447-50.106-50.157
		c-1.516-1.516-3.376-2.858-2.758-5.453c6.185-2.045,12.415-3.968,18.547-6.162c13.199-4.722,25.754-10.765,37.26-18.846
		c0.718-0.504,1.45-0.735,2.259-0.886c0.477,1.731,2.009,2.604,3.156,3.755c14.461,14.514,28.964,28.987,43.439,43.488
		c1.877,1.88,3.653,3.86,5.476,5.793c-4.483,4.354-9.592,7.809-14.837,11.206c-3.483,2.256-7.205,4.224-10.45,6.853
		c-2.717,2.201-6.227,2.814-9.066,4.789C363.636,620.095,356.666,622.792,349.831,625.74z"/>
	<path style="fill:#A5CF98;" d="M1698.896,596.497c2.44-4.291,5.777-7.923,8.896-11.679c5.969-7.186,11.679-14.594,17.783-21.649
		c5.694-6.583,10.894-13.568,16.738-20.021c1.752-1.934,3.196-4.146,4.781-6.231c1.975,1.12,2.879,3.226,4.017,4.945
		c5.828,8.804,14.048,15.199,21.739,22.123c1.011,0.91,2.136,1.54,2.255,3.033c-2.206,0.973-3.549,2.886-5.01,4.652
		c-4.175,5.047-8.217,10.207-12.5,15.159c-3.866,4.47-7.323,9.263-11.299,13.655c-4.39,4.849-8.484,9.988-12.414,15.221
		c-2.018,2.687-4.991,4.744-5.845,8.26c-3.794-1.105-6.215-4.248-8.937-6.667c-6.642-5.905-12.731-12.433-19.031-18.721
		C1699.496,598.005,1698.865,597.427,1698.896,596.497z"/>
	<path style="fill:#BCBDB6;" d="M404.147,592.961c-1.823-1.933-3.6-3.913-5.476-5.793c-14.475-14.501-28.978-28.973-43.439-43.488
		c-1.147-1.151-2.679-2.024-3.156-3.755c1.39-2.358,3.893-3.557,5.913-5.12c3.648-2.822,7.383-5.529,10.268-8.297
		c17.39,17.391,34.656,34.657,52.258,52.258c0.036-0.078-0.15,1.066-0.822,1.651C414.671,584.794,410.037,589.661,404.147,592.961z"
		/>
	<path style="fill:#B6DDF2;" d="M1782.044,572.048c3.347,1.112,5.864,3.295,7.868,5.712c0.156,1.836-0.691,2.955-1.375,4.02
		c-1.864,2.9-43.613,52.655-45.354,54.198c-3.458-1.667-6.698-3.737-9.13-6.926c0.622-0.184,1.479-0.168,1.831-0.582
		c5.323-6.26,10.8-12.408,15.792-18.926c5.195-6.784,10.865-13.163,16.187-19.833
		C1772.571,583.81,1777.633,578.191,1782.044,572.048z"/>
	<path style="fill:#BCBDB6;" d="M1782.044,572.048c-4.41,6.143-9.472,11.761-14.181,17.662
		c-5.323,6.671-10.993,13.049-16.187,19.833c-4.991,6.518-10.468,12.666-15.792,18.926c-0.352,0.414-1.209,0.398-1.831,0.582
		c-2.418-1.208-4.739-2.529-6.016-5.086c0.855-3.516,3.828-5.573,5.845-8.26c3.93-5.233,8.024-10.372,12.414-15.221
		c3.976-4.392,7.433-9.185,11.299-13.655c4.283-4.952,8.325-10.112,12.5-15.159c1.461-1.766,2.805-3.679,5.01-4.652
		C1778.31,567.465,1780.334,569.539,1782.044,572.048z"/>
</g>
</svg>
