<?xml version="1.0" encoding="iso-8859-1"?>
<!-- Generator: Adobe Illustrator 27.0.0, SVG Export Plug-In . SVG Version: 6.00 Build 0)  -->
<svg version="1.1" id="Layer_1" xmlns="http://www.w3.org/2000/svg" xmlns:xlink="http://www.w3.org/1999/xlink" x="0px" y="0px"
	 viewBox="0 0 1672 516.207" style="enable-background:new 0 0 1672 516.207;" xml:space="preserve">
<g>
	<path style="fill:#122A4C;" d="M0,515c9.62-11.905,19.286-23.773,28.853-35.72c43.081-53.8,86.117-107.634,129.202-161.431
		c27.578-34.435,55.221-68.819,82.815-103.241c8.102-10.107,16.139-20.267,24.338-30.568
		c-32.009-44.557-63.926-88.985-96.185-133.889c90.944,0,181.396,0,272.567,0c-9.828,13.252-19.394,26.149-28.929,39.006
		c-55.429,0-110.57,0-166.522,0c5.381,8.671,11.338,16.272,16.844,24.165c5.709,8.186,11.66,16.202,17.486,24.307
		c5.73,7.97,11.44,15.955,17.152,23.938c5.713,7.983,11.418,15.971,17.411,24.354c-77.291,96.478-154.67,193.066-232.17,289.805
		c2.131,0.98,3.972,0.553,5.743,0.554c86.146,0.027,172.293,0.022,258.439,0.035c1.989,0,3.977,0.169,5.966,0.26l0.018-0.004
		c0.029,0.538,0.059,1.076,0.088,1.614c-4.776,6.163-9.62,12.274-14.308,18.504C333.93,503.17,328.339,509.106,324,516
		c-106.667,0-213.333,0.005-320-0.052C2.689,515.947,0.928,516.956,0,515z"/>
	<path style="fill:#142B4D;" d="M353.029,476.569c0,0-0.018,0.004-0.018,0.004c2.491-0.091,4.983-0.262,7.474-0.263
		c85.996-0.014,171.991-0.011,257.987-0.011c1.787,0,3.574,0,6.373,0c-77.766-97.414-154.904-194.04-231.997-290.612
		c32.624-45.426,65.027-90.545,97.479-135.731c16.402,0,32.702,0,49.835,0c-32.648,44.832-64.978,89.225-97.476,133.851
		c7.017,8.808,13.941,17.52,20.887,26.214c44.07,55.158,88.162,110.298,132.212,165.472c26.595,33.312,53.112,66.687,79.695,100.009
		c10.797,13.534,21.678,27,32.521,40.497c-108,0-216,0-324,0c-0.102-0.304-0.132-0.662-0.315-0.904
		c-9.566-12.641-19.147-25.271-28.717-37.909c-0.359-0.474-0.763-0.475-1.244-0.297C353.452,476.871,353.22,476.763,353.029,476.569
		z"/>
	<path style="fill:#162C4E;" d="M1672,373c-1.482,0.573-0.914,1.974-1.176,3.013c-2.907,11.526-10.958,18.264-21.729,21.25
		c-19.613,5.438-38.127,2.129-55.124-9.17c-1.086-0.722-1.99-1.717-3.13-2.718c2.785-5.2,5.509-10.286,8.356-15.601
		c4.653,3.55,9.255,6.428,14.311,8.549c8.257,3.463,16.709,5.463,25.713,3.755c0.814-0.154,1.663-0.183,2.446-0.429
		c4.536-1.425,8.428-3.822,8.913-8.958c0.457-4.844-1.937-8.541-6.149-11.1c-4.608-2.8-9.777-4.039-14.817-5.666
		c-6.307-2.036-12.717-3.775-18.611-6.945c-9.682-5.207-14.556-13.34-14.71-24.245c-0.153-10.776,4.769-18.854,13.921-24.245
		c8.555-5.04,17.958-6.5,27.801-5.89c9.255,0.574,17.986,2.92,26.244,7.087c1.758,0.887,3.587,1.692,5.249,3.636
		c-2.687,5.299-5.42,10.688-8.196,16.163c-4.475-1.924-8.516-3.797-12.658-5.413c-7.07-2.758-14.423-3.813-21.998-3.103
		c-4.001,0.375-7.503,1.816-9.465,5.537c-2.345,4.447-0.644,9.335,4.314,12.291c4.298,2.562,9.085,3.912,13.886,5.301
		c8.42,2.437,16.922,4.755,24.281,9.889c6.658,4.645,10.636,10.819,11.373,18.976c0.071,0.79-0.092,1.699,0.955,2.034
		C1672,369,1672,371,1672,373z"/>
	<path style="fill:#D52245;" d="M575,0c0.468,1.826-1.131,2.652-1.955,3.769c-8.876,12.046-17.822,24.04-26.842,36.174
		c-15.954,0-31.898,0-48.678,0C507.235,26.323,516.617,13.162,526,0C542.333,0,558.667,0,575,0z"/>
	<path style="fill:#122A4C;" d="M262.545,303.99c11.759-0.653,22.88,1.035,33.954,3.556c22.529,5.129,44.158,13.247,66.279,19.725
		c18.685,5.472,37.493,10.38,57.061,11.205c15.159,0.639,29.857-1.356,43.284-9.148c0.563-0.327,1.207-0.514,2.281-0.961
		c29.997,37.866,60.005,75.744,90.52,114.263c-135.117,0-269.256,0-404.059,0C188.89,396.254,225.623,350.239,262.545,303.99z"/>
	<path style="fill:#162C4E;" d="M1199.864,225.074c-7.745,0-14.889,0-22.055,0c-1.33-1.214-0.712-2.811-0.716-4.217
		c-0.046-17.332-0.06-34.665-0.008-51.997c0.011-3.861-0.277-7.676-1.427-11.346c-4.082-13.028-16.389-17.25-27.369-15.14
		c-16.99,3.265-24.369,17.163-24.401,30.291c-0.04,15.999-0.012,31.998-0.013,47.997c0,1.626,0,3.252,0,5.105
		c-7.66,0-14.923,0-22.498,0c0-35.054,0-70.117,0-105.476c7.338,0,14.716,0,22.452,0c0,5.919,0,11.672,0,17.404
		c0.926,0.014,1.192-0.367,1.456-0.802c7.352-12.075,18.706-16.935,32.235-17.67c10.776-0.586,20.873,1.327,29.27,8.793
		c4.594,4.084,7.535,9.229,9.562,14.922c1.341-0.151,1.425-1.236,1.842-2.102c5.157-10.7,13.443-17.363,25.063-20.245
		c8.316-2.062,16.542-1.914,24.71-0.04c14.158,3.249,24.061,14.737,25.986,29.487c0.669,5.127,0.983,10.261,0.961,15.44
		c-0.074,17.665-0.028,35.331-0.028,52.997c0,1.65,0,3.3,0,5.222c-3.862,1.079-7.667,0.369-11.403,0.5
		c-3.629,0.127-7.267,0.028-10.679,0.028c-1.15-1.74-0.699-3.28-0.702-4.727c-0.036-17.332-0.051-34.664-0.001-51.996
		c0.01-3.693-0.251-7.35-1.351-10.857c-4.161-13.259-16.399-17.37-27.284-15.293c-16.681,3.182-23.214,16.258-23.485,28.762
		c-0.357,16.491-0.107,32.996-0.118,49.495C1199.863,221.249,1199.864,222.89,1199.864,225.074z"/>
	<path style="fill:#152C4E;" d="M1415.598,180.135c-26.326,0-52.245,0-78.361,0c-0.277,3.164,1.058,5.503,2.175,7.791
		c7.177,14.697,20.229,20.594,36.399,17.692c8.252-1.481,15.312-5.317,21.575-11.17c4.63,3.691,7.861,8.537,12.166,12.6
		c-1.153,2.193-2.901,3.448-4.508,4.792c-11.653,9.746-25.319,13.454-40.245,13.304c-9.64-0.097-18.717-2.272-27.148-7.115
		c-10.092-5.796-17.128-14.126-20.973-25.051c-5.293-15.039-5.236-30.041,1.553-44.611c6.5-13.95,17.491-22.66,32.427-26.459
		c11.212-2.852,22.445-2.727,33.567,0.06c13.108,3.284,22.449,11.206,27.26,24.008
		C1415.589,156.891,1416.417,168.211,1415.598,180.135z M1338.126,163.775c19.379,0,38.749,0,58.12,0
		c-0.201-15.45-11.695-27.099-29.396-26.729C1351.044,137.377,1338.982,148.416,1338.126,163.775z"/>
	<path style="fill:#152C4E;" d="M1057.945,180.349c-26.326,0-52.101,0-77.899,0c-0.507,2.961,0.863,5.145,1.916,7.348
		c7.143,14.941,20.318,20.749,36.25,17.964c7.57-1.323,14.142-4.661,19.982-9.565c0.505-0.424,1.03-0.827,1.563-1.215
		c0.124-0.09,0.319-0.082,0.863-0.206c3.781,4.075,7.694,8.293,11.745,12.66c-7.917,8.021-16.757,13.507-27.517,15.856
		c-10.724,2.341-21.367,2.899-32.065-0.081c-16.925-4.715-28.675-15.031-34.045-31.91c-4.652-14.623-4.386-29.194,2.318-43.226
		c6.472-13.545,17.184-22.196,31.7-25.942c12.685-3.274,25.384-3.056,37.85,1.083c12.018,3.99,19.9,12.331,24.014,24.207
		C1058.265,157.841,1058.977,168.686,1057.945,180.349z M1038.994,163.867c-0.774-16.355-12.074-26.873-28.995-26.832
		c-17.053,0.042-28.956,12.837-29.166,26.832C1000.085,163.867,1019.336,163.867,1038.994,163.867z"/>
	<path style="fill:#152C4E;" d="M846.975,180.225c-26.214,0-51.986,0-78.327,0c0.773,6.001,3.379,10.699,6.881,14.877
		c9.821,11.719,22.41,13.071,36.295,9.437c6.61-1.73,11.915-5.678,17.443-10.125c4.01,4.28,7.941,8.476,12.029,12.839
		c-6.801,7.366-14.713,12.472-23.981,15.065c-11.675,3.267-23.515,4.135-35.45,0.834c-17.164-4.748-29.005-15.233-34.307-32.309
		c-4.484-14.442-4.207-28.871,2.417-42.781c6.474-13.595,17.172-22.225,31.655-26.014c12.33-3.226,24.706-3.064,36.885,0.864
		c12.216,3.94,20.202,12.292,24.741,24.196C847.319,157.765,847.593,168.753,846.975,180.225z M826.921,163.846
		c-0.525-16.149-11.621-26.175-27.319-26.8c-17.954-0.715-30.367,12.268-30.848,26.8
		C788.014,163.846,807.268,163.846,826.921,163.846z"/>
	<path style="fill:#152C4E;" d="M849.994,346.633c0.002-15.54,4.934-29.042,16.861-39.474c7.72-6.752,16.894-10.464,26.936-11.981
		c9.659-1.459,19.279-1.028,28.653,1.891c16.68,5.194,28.446,15.808,33.489,32.671c5.913,19.772,3.198,38.264-10.918,54.061
		c-7.202,8.06-16.656,12.457-27.195,14.597c-15.402,3.128-30.148,1.52-43.814-6.528c-15.27-8.993-22.606-22.896-23.994-40.244
		C849.879,349.973,849.994,348.298,849.994,346.633z M936.028,350.348c0.042-9.846-1.801-17.034-6.288-23.31
		c-7.177-10.038-17.289-13.004-29.241-12.433c-12.205,0.584-23.796,10.208-26.676,22.499c-1.388,5.925-1.839,11.867-0.795,17.815
		c4.838,27.566,33.074,32.094,49.002,21.554C932.081,369.821,935.559,359.696,936.028,350.348z"/>
	<path style="fill:#152C4E;" d="M1437.013,347.491c-0.124,11.39-2.809,22.011-9.528,31.414
		c-7.649,10.704-18.241,16.639-30.918,19.381c-13.957,3.019-27.494,1.929-40.339-4.34c-18.188-8.876-26.743-24.193-28.042-43.896
		c-0.645-9.782,1.176-19.205,5.576-28.039c6.371-12.792,16.689-20.893,30.23-24.94c13.84-4.137,27.864-3.913,41.15,1.389
		c16.676,6.655,27.141,19.261,30.811,37.109C1436.76,339.497,1437.173,343.463,1437.013,347.491z M1414.265,347.833
		c0.158-8.474-2.176-16.17-7.601-22.677c-7.341-8.803-17.081-11.477-28.177-10.427c-13.01,1.231-21.324,8.318-25.628,20.396
		c-2.704,7.589-2.816,15.41-0.768,23.09c6.622,24.832,33.17,28.231,48.174,18.322C1410.468,369.799,1414.21,359.64,1414.265,347.833
		z"/>
	<path style="fill:#172D4F;" d="M1489.73,399.763c-7.895,0-15.02,0-22.441,0c0-34.706,0-69.271,0-104.155c7.151,0,14.394,0,22.182,0
		c0,5.721,0,11.465,0,17.232c2.028-0.051,2.162-1.437,2.809-2.294c5.609-7.433,12.833-12.346,21.954-14.558
		c7.741-1.877,15.534-2.164,23.277-0.686c14.721,2.81,23.702,11.883,27.407,26.291c1.25,4.86,1.629,9.87,1.66,14.841
		c0.127,20.152,0.055,40.304,0.047,60.457c0,0.807-0.087,1.614-0.149,2.711c-7.444,0-14.673,0-21.995,0
		c-1.026-1.261-0.508-2.817-0.512-4.243c-0.042-16.988-0.073-33.976,0.008-50.964c0.017-3.531-0.332-7.029-1.077-10.408
		c-1.683-7.644-6.16-13.314-13.667-15.861c-15.277-5.182-33.816,0.78-38.794,19.949c-0.765,2.947-0.693,5.941-0.697,8.929
		c-0.024,15.822-0.012,31.644-0.013,47.466C1489.73,396.103,1489.73,397.736,1489.73,399.763z"/>
	<path style="fill:#182D4F;" d="M1051.115,294.557c7.048,0,14.28,0,21.455,0c0.822,1.796,0.453,3.478,0.456,5.104
		c0.032,16.995,0.031,33.99,0.009,50.984c-0.004,3.007,0.233,5.964,0.8,8.931c2.116,11.066,9.59,17.578,21.651,18.372
		c16.228,1.068,27.764-10.023,29.498-26.647c0.586-5.612,0.376-11.315,0.401-16.977c0.052-11.496-0.002-22.993,0.037-34.489
		c0.006-1.629-0.393-3.324,0.585-5.216c7.084,0,14.307,0,21.803,0c0,34.968,0,69.865,0,105.025c-7.33,0-14.578,0-22.062,0
		c-0.902-6.083,0.178-12.229-0.73-19.03c-3.417,5.557-7.12,9.896-12.213,12.97c-14.844,8.958-37.148,8.395-50.075-2.918
		c-6.874-6.016-10.132-13.855-11.584-22.572c-0.572-3.433-0.753-6.963-0.766-10.451c-0.071-19.66-0.043-39.321-0.019-58.982
		C1050.364,297.374,1049.973,295.986,1051.115,294.557z"/>
	<path style="fill:#172D4F;" d="M1481.065,224.072c-7.766,0-14.896,0-22.355,0c0-34.542,0-68.933,0-103.934
		c3.591-0.047,7.335-0.115,11.079-0.141c3.623-0.025,7.246-0.005,11.121-0.005c0,6.343,0,12.291,0,18.239
		c1.285,0.087,1.541-0.819,1.93-1.408c5.685-8.602,13.582-13.904,23.607-16.248c8.258-1.931,16.552-2.083,24.717-0.085
		c14.417,3.529,22.575,13.248,25.67,27.462c0.812,3.731,1.194,7.547,1.186,11.402c-0.039,20.654-0.016,41.307-0.014,61.961
		c0,0.803,0,1.605,0,2.654c-7.592,0-14.839,0-22.08,0c-1.122-1.342-0.623-2.905-0.626-4.342c-0.039-16.823,0-33.646-0.046-50.468
		c-0.009-3.158,0.041-6.375-0.516-9.46c-1.863-10.324-8.534-16.873-19.501-18.479c-14.333-2.099-27.873,4.501-32.578,19.262
		c-1.119,3.512-1.62,7.098-1.61,10.793c0.041,15.823,0.016,31.647,0.016,47.47C1481.065,220.383,1481.065,222.021,1481.065,224.072z
		"/>
	<path style="fill:#162C4E;" d="M828.292,305.091c-2.919,5.714-5.621,11.003-8.443,16.529c-4.472-2.047-8.572-4.131-12.898-5.702
		c-7.15-2.598-14.482-3.668-22.043-2.917c-5.842,0.58-9.513,3.923-9.959,8.707c-0.392,4.2,1.715,7.007,5.045,9.018
		c4.147,2.505,8.735,3.988,13.392,5.23c7.059,1.882,14.01,4.088,20.578,7.308c20.121,9.867,19.365,33.642,9.481,44.363
		c-5.86,6.356-13.334,9.851-21.731,11.236c-14.538,2.398-28.447-0.072-41.755-6.156c-3.784-1.73-7.169-4.136-10.442-7.357
		c2.704-5.087,5.397-10.154,8.273-15.566c3.946,3.027,7.84,5.476,12.005,7.475c8.874,4.257,18.069,6.509,27.984,4.863
		c1.828-0.304,3.613-0.708,5.254-1.47c6.805-3.162,8.269-11.064,3.083-16.531c-2.453-2.586-5.547-4.188-8.906-5.279
		c-6.145-1.996-12.307-3.937-18.445-5.954c-5.723-1.881-11.191-4.335-15.65-8.482c-11.678-10.86-10.857-30.89,1.628-41.11
		c4.993-4.087,10.783-6.43,17.082-7.673c15.531-3.066,29.99,0.028,43.697,7.507C826.375,303.593,827.122,304.254,828.292,305.091z"
		/>
	<path style="fill:#162C4E;" d="M1597.404,141.036c0-5.955,0-11.224,0-17.061c4.753,0,9.477,0,14.725,0c0-9.604,0-18.66,0-27.952
		c7.794,0,15.048,0,22.77,0c0,9.106,0,18.186,0,27.735c10.516,0,20.581,0,30.83,0c0,5.887,0,11.293,0,16.98
		c-10.167,0-20.112,0-29.757,0c-1.511,1.349-0.964,2.775-0.968,4.032c-0.04,14.993-0.016,29.986-0.034,44.979
		c-0.003,2.509,0.17,4.97,0.865,7.406c1.405,4.926,4.253,7.141,9.426,7.129c5.085-0.012,9.816-1.511,14.421-3.509
		c0.597-0.259,1.188-0.53,2.178-0.972c2.21,5.827,3.193,11.824,4.951,17.901c-10.944,6.28-22.342,9.487-34.842,6.322
		c-10.622-2.689-16.529-10.021-18.815-20.422c-0.782-3.557-1.004-7.228-0.985-10.917c0.081-15.492,0.034-30.985,0.033-46.478
		c0-1.62,0-3.24,0-5.171C1607.179,141.036,1602.564,141.036,1597.404,141.036z"/>
	<path style="fill:#162C4E;" d="M1193.036,316.883c-5.317,0-9.935,0-14.773,0c0-5.517,0-10.788,0-16.38
		c4.604-0.993,9.418,0.018,14.428-0.606c0.78-4.53,0.215-9.157,0.321-13.748c0.104-4.484,0.023-8.973,0.023-13.807
		c7.518,0,14.896,0,22.705,0c0,9.084,0,18.161,0,27.745c10.471,0,20.533,0,30.814,0c0,5.77,0,11.028,0,16.777
		c-10.1,0-20.164,0-29.981,0c-1.152,1.653-0.717,3.021-0.721,4.284c-0.041,14.328-0.038,28.656-0.015,42.984
		c0.004,2.33-0.075,4.697,0.294,6.981c1.055,6.526,5.653,9.814,12.168,8.633c2.432-0.441,4.947-0.597,7.283-1.626
		c2.258-0.995,4.607-1.784,7.296-2.808c1.513,5.93,3.013,11.811,4.504,17.654c-8.276,5.094-16.888,7.766-25.947,7.616
		c-17.71-0.293-27.825-11.328-28.264-27.743c-0.446-16.649-0.122-33.318-0.135-49.979
		C1193.035,321.065,1193.036,319.269,1193.036,316.883z"/>
	<path style="fill:#182D4F;" d="M1012.739,398.77c-7.448,0-14.568,0-21.67,0c-0.952-3.56-1.308-135.628-0.372-144.354
		c7.182,0,14.412,0,21.671,0C1013.239,258.14,1013.625,386.792,1012.739,398.77z"/>
	<path style="fill:#172D4E;" d="M913.537,223.023c-7.548,0-14.804,0-22.272,0c0-48.096,0-95.989,0-144.249
		c6.364,0,12.491-0.014,18.618,0.012c1.137,0.005,2.327-0.266,3.655,0.565C913.537,126.944,913.537,174.692,913.537,223.023z"/>
	<path style="fill:#142B4D;" d="M1297.848,399.683c-7.534,0-14.636,0-21.95,0c0-34.672,0-69.103,0-103.794
		c3.541-1.163,7.188-0.375,10.755-0.518c3.63-0.145,7.271-0.032,11.196-0.032C1297.848,330.273,1297.848,364.832,1297.848,399.683z"
		/>
	<path style="fill:#D42044;" d="M1297.889,259.216c0,6.364,0,12.43,0,18.754c-7.258,0-14.314,0-21.734,0c0-6.148,0-12.327,0-18.754
		C1283.26,259.216,1290.331,259.216,1297.889,259.216z"/>
	<path style="fill:#4A506C;" d="M353.724,476.891c0.397,0.712,0.01,1.056-0.607,1.293c-0.029-0.538-0.059-1.076-0.088-1.614
		C353.22,476.763,353.452,476.871,353.724,476.891z"/>
</g>
</svg>
