<?xml version="1.0" encoding="iso-8859-1"?>
<!-- Generator: Adobe Illustrator 27.0.0, SVG Export Plug-In . SVG Version: 6.00 Build 0)  -->
<svg version="1.1" id="Layer_1" xmlns="http://www.w3.org/2000/svg" xmlns:xlink="http://www.w3.org/1999/xlink" x="0px" y="0px"
	 viewBox="0 0 1577 416" style="enable-background:new 0 0 1577 416;" xml:space="preserve">
<g>
	<path style="fill:#080707;" d="M1577,405c-3.179,2.273-6.723,3.029-10.61,2.939c-16.992-0.394-33.99-1.084-50.984-0.594
		c-13.322,0.385-26.6-0.745-40.147-0.34c-2.047-4.112-4.117-8.053-5.997-12.084c-5.985-12.837-13.8-24.61-21.168-36.644
		c-26.643-43.511-54.558-86.207-82.496-128.89c-0.542-0.828-1.159-1.608-1.784-2.47c-1.574,0.395-1.96,1.784-2.617,2.796
		c-28.767,44.32-57.549,88.63-86.196,133.028c-4.692,7.272-8.126,15.164-9.534,23.857c-0.983,6.067,1.688,10.711,7.596,12.611
		c2.275,0.731,4.589,0.681,6.907,0.866c2.319,0.186,4.629,0.509,6.932,0.849c2.439,0.36,3.385,1.846,2.984,4.36
		c-1.987,2.335-4.708,2.739-7.611,2.643c-10.82-0.357-21.662-0.393-32.455-1.138c-19.834-1.367-39.594,0.051-59.379,0.882
		c-5.658,0.238-11.329,0.149-16.993,0.271c-1.932,0.042-3.59-0.499-5.017-1.74c-0.495-4.291-0.202-4.739,3.519-5.424
		c5.085-0.936,10.268-0.702,15.395-1.513c12.586-1.99,23.336-7.36,32.244-16.391c8.913-9.036,16.448-19.18,23.667-29.593
		c20.368-29.376,40.823-58.692,61.266-88.016c13.694-19.643,27.426-39.26,41.136-58.892c0.566-0.811,1.083-1.656,1.851-2.835
		c-3.921-6.033-7.832-12.156-11.846-18.211c-23.877-36.019-47.82-71.995-71.643-108.051c-6.506-9.847-12.901-19.768-19.892-29.279
		c-4.639-6.311-9.745-12.2-15.721-17.358c-9.407-8.119-20.467-12.065-32.551-13.707c-3.957-0.538-7.899-1.135-11.921-1.029
		c-2.875,0.076-5.266-0.757-5.783-4.007c1.041-2.267,2.955-2.802,5.007-2.89c3.825-0.165,7.659-0.356,11.483-0.267
		c19.318,0.448,38.633,1.02,57.951,1.473c10.333,0.242,20.634-0.718,30.952-1.038c9.325-0.29,18.658-0.365,27.989-0.433
		c2.316-0.017,4.665,0.197,6.94,0.621c1.328,0.247,2.341,1.315,2.352,2.867c0.01,1.487-0.78,2.419-2.139,3.043
		c-1.591,0.73-3.252,0.649-4.906,0.685c-4.84,0.105-9.633,0.599-14.307,1.881c-4.897,1.343-7.271,4.717-6.39,9.665
		c0.87,4.887,2.123,9.69,4.678,14.084c24.718,42.515,50.171,84.574,77.646,125.381c0.647,0.961,1.353,1.882,2.1,2.917
		c17.024-23.142,33.351-46.622,49.457-70.257c10.389-15.245,20.684-30.554,30.904-45.913c4.596-6.908,8.732-14.03,10.717-22.285
		c1.855-7.711-1.958-12.397-8.454-14.538c-5.115-1.685-10.415-2.075-15.772-1.979c-2.317,0.042-4.699,0.255-6.833-1.51
		c-0.806-1.01-0.669-2.307-0.353-3.646c0.908-1.069,2.09-1.57,3.468-1.701c5.321-0.505,10.65-0.216,15.978-0.241
		c17.324-0.082,34.608,2.272,51.928,1.109c12.643-0.849,25.292-0.928,37.943-1.204c2.495-0.055,4.993-0.004,7.401,0.848
		c1.339,0.474,2.385,1.171,2.659,2.94c-1.111,3.118-3.858,3.401-6.777,3.44c-7.699,0.103-15.184,1.339-22.443,4.012
		c-9.606,3.538-16.36,10.665-22.771,18.118c-7.818,9.089-14.689,18.924-21.791,28.576c-29.478,40.065-59.008,80.093-88.51,120.141
		c-0.582,0.79-1.445,1.432-1.432,3.191c3.858,5.88,8.056,12.239,12.214,18.623c30.108,46.232,60.162,92.5,90.832,138.363
		c7.024,10.504,14.113,20.961,22.139,30.759c9.108,11.119,20.96,17.6,34.614,21.289c5.975,1.614,12.038,2.459,18.199,2.671
		c2.152,0.074,4.19,0.526,6.176,1.304C1577,403,1577,404,1577,405z"/>
	<path style="fill:#090808;" d="M0,10c2.516-1.941,5.485-2.292,8.498-2.271c21.327,0.148,42.659,0.128,63.978,0.629
		c7.152,0.168,14.305,0.32,21.456,0.331c35.162,0.053,70.324,0.019,105.486,0.027c9.331,0.002,18.639-0.302,27.898-1.586
		c3.629-0.503,7.113-1.389,10.555-2.685c2.015-0.758,4.297-2.312,6.599-0.04c1.146,3.11-0.202,6.169-0.845,9.171
		c-2.026,9.447-3.438,18.925-3.775,28.613c-0.283,8.14-1.23,16.26-1.967,24.381c-0.265,2.921-1.723,5.315-3.747,7.317
		c-3.71-0.525-4.691-1.349-5.11-4.75c-0.428-3.469-0.61-6.968-0.964-10.447c-0.406-3.991-1.481-7.807-3.303-11.387
		c-3.207-6.302-8.595-9.958-15.056-12.286c-5.969-2.15-12.204-3.077-18.433-4.071c-13.717-2.187-27.554-1.894-41.367-2.121
		c-14.656-0.241-29.3-1.108-43.967-0.831c-5.694,0.107-6.093,0.344-6.096,5.911c-0.027,48.327-0.027,96.654-0.002,144.981
		c0.003,5.66,0.474,6.146,5.891,6.096c22.321-0.206,44.641,0.288,66.966-0.385c10.798-0.325,21.596-0.36,32.363-1.366
		c3.485-0.326,6.882-1.078,10.256-1.975c4.58-1.218,8.625-3.286,11.922-6.821c1.762-1.889,3.389-4.186,6.49-4.392
		c3.122,1.636,2.318,4.531,2.007,7.034c-0.489,3.948-1.424,7.839-2.039,11.774c-2.592,16.607-4.65,33.266-4.749,50.112
		c-0.009,1.489-0.016,3.026-0.365,4.457c-1.13,4.633-3.556,5.537-8.265,3.053c-0.598-3.967-0.555-8.125-1.065-12.238
		c-1.843-14.864-10.629-23.105-25.101-25.385c-5.775-0.91-11.588-1.432-17.384-1.659c-23.467-0.921-46.935-1.962-70.43-1.907
		c-2,0.005-4.016-0.128-5.846,1.264c-1.175,1.717-0.634,3.777-0.645,5.724c-0.133,23.996-0.061,47.994-0.37,71.988
		c-0.228,17.663-0.619,35.327-0.23,52.985c0.197,8.96,0.654,17.945,2.649,26.769c2.505,11.077,9.126,17.983,20.04,21.233
		c8.882,2.645,17.986,3.379,27.094,3.654c12.82,0.387,25.675,0.488,38.486-0.026c11.261-0.452,22.578-1.242,33.435-4.856
		c11.038-3.675,18.874-10.762,23.446-21.512c2.611-6.14,4.317-12.529,5.541-19.046c0.45-2.396,1.256-4.437,2.964-6.098
		c2.585-0.975,4.015,0.165,5.27,2.348c2.217,3.855,2.109,7.921,1.558,12.067c-1.882,14.158-3.819,28.308-6.775,42.293
		c-0.342,1.617-0.756,3.227-1.263,4.799c-2.391,7.421-7.611,10.819-15.309,11.138c-10.996,0.456-21.99,0.251-32.984,0.22
		c-11.998-0.034-23.995-0.18-35.992-0.3c-24.827-0.247-49.622-1.354-74.411-2.684c-11.152-0.598-22.301-0.355-33.458,0.302
		c-8.643,0.509-17.316,0.506-25.976,0.742c-5.324,0.145-10.649,0.292-15.971,0.481c-2.372,0.084-4.636-0.208-6.69-1.399
		c-2.258-4.64-1.606-5.981,3.101-6.697c5.267-0.801,10.613-0.509,15.89-1.52c6.636-1.271,11.225-4.792,13.602-11.007
		c2.558-6.689,4.06-13.66,4.572-20.814c3.844-53.751,2.09-107.59,2.334-161.392c0.23-50.823-0.234-101.649-0.389-152.474
		c-0.02-6.688-0.908-13.242-2.891-19.642c-2.645-8.538-8.549-13.6-17.003-15.869c-7.262-1.949-14.698-2.828-22.195-2.901
		C5.026,15.028,2.427,14.513,0,13C0,12,0,11,0,10z"/>
	<path style="fill:#080707;" d="M472,0c0.215,0.781,0.815,0.899,1.512,0.927c12.328,0.483,24.408,2.723,36.455,5.175
		c5.073,1.033,10.194,1.512,15.359,1.61c2.153,0.041,4.323-0.004,5.955,1.239c1.124,2.025,0.789,3.905,0.555,5.672
		c-1.819,13.734-1.757,27.575-2.486,41.371c-0.308,5.822,0.461,11.651-0.285,17.474c-0.521,4.066-1.613,5.949-3.932,6.097
		c-2.383,0.152-3.915-1.507-4.49-5.562c-0.934-6.583-2.194-13.036-4.33-19.382c-3.349-9.952-9.663-17.339-18.406-22.77
		c-10.888-6.763-22.873-10.341-35.538-11.954c-11.107-1.415-22.27-2.182-33.366-0.825c-22.431,2.743-41.598,11.391-53.385,31.993
		c-5.152,9.005-6.819,18.856-6.82,29.192c-0.001,14.236,4.618,26.619,13.382,37.703c5.924,7.492,12.769,14.022,19.919,20.287
		c16.92,14.827,35.124,27.939,53.556,40.8c21.489,14.995,41.663,31.599,58.595,51.774c12.57,14.978,21.967,31.685,25.254,51.187
		c6.805,40.365-4.773,74.491-35.514,101.809c-12.523,11.129-27.599,17.676-43.18,23.041c-16.134,5.555-32.839,8.007-49.925,8.113
		c-13.501,0.084-27.003-0.001-40.351-2.083c-15.578-2.43-30.854-6.22-45.583-11.984c-6.201-2.427-8.867-7.155-8.837-13.607
		c0.041-8.663-0.171-17.34,0.251-25.985c0.609-12.468,1.712-24.911,2.553-37.368c0.183-2.708,0.635-5.269,2.403-7.368
		c4.153-0.656,5.22-0.039,6.149,3.524c0.641,2.46,0.293,4.975,0.355,7.465c0.461,18.531,7.181,34.304,20.992,46.774
		c7.619,6.879,16.686,11.395,26.37,14.665c17.948,6.061,36.321,7.439,55.083,5.201c14.954-1.783,28.835-6.352,40.839-15.583
		c15.911-12.235,25.507-28.21,27.086-48.475c1.749-22.45-4.62-42.241-19.512-59.338c-12.564-14.424-27.302-26.329-42.526-37.694
		c-13.588-10.144-27.567-19.773-40.973-30.147c-16.893-13.073-32.648-27.403-45.409-44.733
		c-10.11-13.729-17.057-28.828-19.516-45.757c-3.774-25.984,1.19-49.924,17.534-70.962c6.805-8.759,15.003-16.071,24.486-21.799
		c15.818-9.553,33.04-15.141,51.294-17.854C426.704,1.397,430.138,1.974,433,0C446,0,459,0,472,0z"/>
	<path style="fill:#080707;" d="M668,416c-0.455-1.298-1.595-0.946-2.513-0.979c-20.329-0.736-39.545-6.152-58.305-13.644
		c-5.824-2.326-7.903-6.775-8.027-12.515c-0.22-10.159-0.382-20.33,0.232-30.475c0.693-11.457,1.046-22.943,2.461-34.35
		c0.102-0.825,0.062-1.671,0.195-2.489c0.684-4.2,2.412-5.195,7.075-4.063c2.053,2.525,1.776,5.596,1.679,8.557
		c-0.358,10.86,2.13,21.075,6.857,30.777c7.036,14.441,18.595,24.017,33.098,30.283c19.223,8.305,39.287,10.432,59.996,8.185
		c10.147-1.101,20.047-3.161,29.25-7.516c22.139-10.474,36.832-27.402,40.615-51.884c3.232-20.915-1.122-40.611-14.099-57.943
		c-9.874-13.188-22.035-24.012-34.842-34.172c-15.244-12.092-31.237-23.186-46.793-34.861
		c-17.615-13.22-34.217-27.572-48.126-44.803c-11.771-14.582-20.25-30.699-23.166-49.414c-3.027-19.425-2.069-38.421,6.359-56.561
		c7.664-16.497,19.594-29.142,35.126-38.419C672.308,9.42,691.124,4.035,710.994,1.877c4.31-0.468,8.62-0.719,12.933-1.038
		c4.398,0.064,8.796,0.132,13.195,0.188C737.926,1.037,738.775,1.074,739,0c1,0,2,0,3,0c0.566,1.615,1.958,0.924,2.973,0.946
		c14.013,0.304,27.851,2.153,41.532,5.033c7.027,1.479,14.094,2.214,21.217,2.747c1.629,0.122,3.357-0.054,4.95,1.267
		c1.051,2.928,0.422,6.115,0.087,9.178c-1.722,15.757-2.089,31.56-1.924,47.386c0.032,3.023-0.295,5.979-0.86,8.924
		c-0.154,0.802-0.412,1.602-0.741,2.35c-0.562,1.281-1.431,2.265-2.972,2.287c-1.709,0.024-2.841-0.798-3.306-2.452
		c-0.627-2.229-1.352-4.442-1.803-6.708c-1.037-5.213-2.717-10.245-4.077-15.366c-2.782-10.474-9.511-17.713-18.505-23.087
		c-10.983-6.563-22.988-10.049-35.65-11.631c-11.112-1.389-22.263-2.097-33.366-0.815c-20.561,2.373-38.541,9.944-50.815,27.638
		c-8.224,11.855-10.575,25.133-9.351,39.357c1.621,18.834,11.957,32.738,24.993,45.109c18.028,17.109,37.971,31.803,58.347,45.969
		c21.764,15.13,42.742,31.238,60.21,51.427c12.888,14.895,22.712,31.454,27.507,50.732c2.207,8.875,4.077,17.91,4.094,27.004
		c0.018,9.791-2.01,19.456-5.099,28.831c-7.882,23.93-22.363,42.923-43.324,56.73c-10.56,6.956-22.547,11.142-34.546,14.999
		c-12.521,4.025-25.312,6.804-38.523,7.255c-0.794,0.027-1.694-0.156-2.048,0.894c-1.667,0-3.333,0-5,0
		c-0.214-0.716-0.724-1.016-1.439-1.017c-6.039-0.002-12.077-0.003-18.116-0.001c-0.716,0-1.224,0.308-1.445,1.018
		C672.667,416,670.333,416,668,416z"/>
	<path style="fill:#6D6A6A;" d="M675,416c0.221-0.71,0.729-1.018,1.445-1.018c6.039-0.001,12.077,0,18.116,0.001
		c0.716,0,1.226,0.301,1.439,1.017C689,416,682,416,675,416z"/>
	<path style="fill:#AFADAD;" d="M739,0c-0.225,1.074-1.074,1.037-1.878,1.027c-4.398-0.056-8.797-0.124-13.195-0.188
		C723.981,0.562,724.005,0.282,724,0C729,0,734,0,739,0z"/>
	<path style="fill:#080707;" d="M879.379,406.898c-0.734-1.913-0.999-3.502,0.291-5.253c2.689-1.497,5.917-1.244,9.023-1.427
		c3.493-0.206,6.946-0.522,10.407-1.099c6.693-1.117,11.177-4.867,13.58-11.048c2.292-5.896,3.685-12.084,4.305-18.356
		c1.608-16.255,1.979-32.57,2.232-48.901c0.811-52.328,0.828-104.661,0.399-156.985c-0.306-37.327,0.161-74.657-0.587-111.98
		c-0.11-5.509-0.734-10.953-2.008-16.299c-1.544-6.48-5.283-11.254-11.185-14.529c-8.762-4.861-18.384-5.336-27.998-6.01
		c-1.825-0.128-3.707,0.081-5.473-0.293c-1.596-0.338-3.227-1.136-3.308-3.212c-0.069-1.766,1.096-2.709,2.527-3.356
		c1.996-0.903,4.093-1.174,6.301-1.182c21.493-0.079,42.964,0.581,64.423,1.728c1.33,0.071,2.666,0.018,3.999,0.018
		c41.498,0,82.996-0.001,124.493,0.002c9.164,0.001,18.305-0.336,27.4-1.583c3.635-0.498,7.114-1.411,10.559-2.698
		c2.011-0.751,4.311-2.328,6.49-0.012c1.222,2.66,0.171,5.353-0.482,7.795c-3.596,13.465-3.744,27.299-4.826,41.037
		c-0.353,4.479-0.615,8.974-1.199,13.424c-0.343,2.616-1.177,5.187-3.239,7.049c-3.801,0.014-4.911-0.675-5.475-4.036
		c-0.495-2.949-0.728-5.955-0.865-8.946c-0.161-3.528-1.098-6.856-2.123-10.19c-2.445-7.946-7.882-12.866-15.573-15.548
		c-5.984-2.086-12.202-3.071-18.431-4.065c-14.217-2.27-28.561-1.878-42.871-2.154c-13.99-0.27-27.971-1.102-41.971-0.773
		c-1.948,0.046-4.041-0.523-5.831,1.161c-1.001,2.218-0.995,4.712-0.995,7.208c0.001,46.989,0.002,93.978-0.007,140.966
		c0,2.501,0.064,4.983,0.854,7.219c1.059,1.353,2.32,1.288,3.712,1.225c11.941-0.543,23.918-0.476,35.838-0.274
		c17.63,0.299,35.223-0.527,52.834-0.54c6.471-0.005,12.865-1.193,19.204-2.664c5.406-1.254,9.789-3.85,13.397-8.045
		c2.814-3.271,2.936-3.166,6.648-4.176c2.957,1.634,2.195,4.507,1.873,7.016c-0.506,3.946-1.428,7.836-2.07,11.767
		c-1.715,10.5-2.99,21.051-3.795,31.665c-0.505,6.647-1.086,13.281-0.934,19.958c0.022,0.983-0.111,2.003-0.363,2.955
		c-1.229,4.641-3.593,5.525-8.282,2.97c-0.499-3.975-0.492-8.126-1.06-12.241c-2.009-14.559-10.186-23.006-24.628-25.293
		c-6.103-0.966-12.251-1.484-18.382-1.715c-23.47-0.885-46.939-1.957-70.435-1.887c-2.306,0.007-4.718-0.343-6.653,1.826
		c-0.065,0.835-0.216,1.819-0.209,2.802c0.285,40.832-0.528,81.657-0.605,122.486c-0.018,9.646,0.672,19.257,2.438,28.801
		c3.052,16.486,11.794,23.022,27.975,25.81c18.346,3.162,36.88,2.001,55.347,1.927c9.139-0.037,18.22-1.225,27.273-2.693
		c19.515-3.166,30.915-14.72,35.617-33.497c0.765-3.053,1.387-6.142,2.06-9.218c0.106-0.486,0.074-1.005,0.203-1.483
		c0.872-3.246,2.662-5.183,4.698-5.029c3.114,0.235,3.184,2.96,3.992,5.035c0.872,2.24,0.445,4.499,0.209,6.831
		c-1.556,15.39-3.955,30.639-7.061,45.789c-0.338,1.646-0.849,3.203-1.378,4.759c-2.375,6.993-7.466,10.183-14.695,10.536
		c-11.327,0.554-22.656,0.282-33.984,0.246c-9.665-0.031-19.33-0.269-28.996-0.274c-27.17-0.014-54.293-1.342-81.416-2.742
		c-10.654-0.55-21.306-0.29-31.964,0.328c-8.644,0.501-17.317,0.517-25.977,0.755c-5.491,0.151-10.982,0.31-16.472,0.474
		C883.798,408.832,881.554,408.427,879.379,406.898z"/>
</g>
</svg>
