<?xml version="1.0" encoding="iso-8859-1"?>
<!-- Generator: Adobe Illustrator 27.0.0, SVG Export Plug-In . SVG Version: 6.00 Build 0)  -->
<svg version="1.1" id="Layer_1" xmlns="http://www.w3.org/2000/svg" xmlns:xlink="http://www.w3.org/1999/xlink" x="0px" y="0px"
	 viewBox="0 0 1430.336 718.886" style="enable-background:new 0 0 1430.336 718.886;" xml:space="preserve">
<g>
	<path style="fill:#ACADB0;" d="M1086.979,1.943c1.733-1.089,3.683-0.853,5.59-0.978c1.183-0.078,2.636,0.568,3.431-0.965
		c10.333,0,20.667,0,31,0c1.34,1.81,3.282,0.865,4.924,0.942c2.903,0.135,5.737,0.314,8.302,1.85
		c-0.617,0.296-0.986,0.759-1.314,1.391c-3.573,6.88-6.942,13.857-10.763,20.621c-4.458,7.892-8.312,16.124-12.5,24.173
		c-9.749,18.736-19.344,37.552-29.247,56.209c-3.943,7.429-7.519,15.042-11.56,22.433c-5.382,9.842-10.381,19.899-15.526,29.872
		c-4.917,9.531-9.874,19.042-14.854,28.54c-0.437,0.833-0.607,1.974-1.869,2.104c-1.44,0.12-2.421-0.731-3.532-1.486
		c-10.485-7.129-21.474-13.268-33.678-17.017c-0.87-0.267-1.948-0.487-2.504-1.442c-0.044-2.195,0.45-4.229,1.58-6.144
		c6.543-11.09,11.93-22.794,17.962-34.156c9.208-17.343,17.926-34.948,27.25-52.237c4.777-8.859,9.024-17.99,13.827-26.851
		c7.551-13.931,14.505-28.185,21.696-42.311C1085.934,5.037,1087.078,3.73,1086.979,1.943z"/>
	<path style="fill:#C7C8CA;" d="M0,544c0.316-0.01,0.631-0.029,0.946-0.057c0,36.038,0,72.077,0,108.115
		C0.631,652.03,0.316,652.01,0,652C0,616,0,580,0,544z"/>
	<path style="fill:#96C741;" d="M675.989,83.287c14.555,6.518,28.665,13.945,42.907,21.094
		c40.243,20.202,79.965,41.376,118.716,64.337c0.995,0.589,2.08,1.025,3.123,1.532c0.952,1.755-0.412,2.737-1.292,3.884
		c-8.655,11.291-17.379,22.53-25.921,33.905c-2.653,3.534-5.911,6.67-7.65,10.857l0.042-0.014c-0.658,0.054-0.938,0.493-1.085,1.067
		c-15.073,11.049-29.076,23.314-42.063,36.758c-11.889,12.307-25.348,22.539-40.68,30.239c-8.501,4.27-17.5,7.187-26.568,9.937
		c-2.747,0.833-5.175,0.137-7.68-0.998c-16.643-7.541-33.318-15.012-49.98-22.51c-5.602-2.521-11.456-4.471-16.86-7.44
		c0.311-1.777-0.588-3.22-1.353-4.672c-2.447-4.65-5.028-9.207-7.117-14.066c-5.094-11.85-8.354-24.252-9.304-36.962
		c-0.844-11.297-0.763-22.733,1.648-34.061c2.194-10.308,4.975-20.368,9.499-29.851c6.365-13.344,14.319-25.627,25.423-35.636
		c3.452-3.111,6.322-6.845,10.073-9.637c7.533-5.607,15.369-10.748,23.805-14.91C674.962,85.505,676,84.879,675.989,83.287z"/>
	<path style="fill:#A9AAAD;" d="M0.946,652.058c0-36.038,0-72.077,0-108.115c1.023-11.77,6.163-21.859,12.948-31.214
		c6.636-9.149,15.022-16.482,25.065-21.555c7.364-3.72,15.257-6.233,23.739-6.224c50.157,0.055,100.314,0.066,150.47,0.092
		c3.659,0.002,7.319,0,10.856,0c1.323,1.177,0.854,2.601,0.856,3.871c0.03,18.996,0.593,38.015-0.147,56.982
		c-0.681,17.459-6.367,33.366-19.105,46.072c-4.23,4.22-8.581,8.232-13.509,11.739c-7.343,5.225-15.599,7.89-24.086,10.054
		c-2.673,0.682-5.637,0.275-8.468,0.276c-40.159,0.013-80.318,0.01-120.476,0.011c-1.814,0-3.627,0-5.108,0
		c-1.457,1.15-1.06,2.405-1.062,3.507c-0.017,11.164-0.031,22.329,0.032,33.493c0.078,13.91,8.11,23.669,21.75,26.972
		c3.084,0.747,6.175,1.006,9.346,1.004c49.657-0.036,99.314-0.03,148.971-0.007c1.794,0.001,3.636-0.356,5.659,0.437
		c0,10.544,0,21.138,0,31.799c-0.852,1.025-2.101,0.63-3.209,0.631c-49.49,0.019-98.981,0.155-148.47-0.071
		c-14.065-0.064-26.822-4.684-38.117-13.364c-10.658-8.191-18.58-18.393-23.903-30.653C2.803,662.787,1.548,657.495,0.946,652.058z
		 M32.991,581.481c2.373,0.745,4.21,0.454,6.016,0.455c37.497,0.02,74.994,0.029,112.491-0.001c4.962-0.004,9.888-0.022,14.87-0.782
		c12.07-1.842,22.064-9.498,25.016-21.089c0.796-3.125,2.387-6.353,1.284-9.672c-0.608-1.831-0.546-3.595-0.555-5.398
		c-0.037-7.666,0.006-15.332-0.038-22.998c-0.007-1.27,0.448-2.677-0.786-3.915c-0.518-0.05-1.163-0.167-1.809-0.167
		c-43.996,0.001-87.993-0.153-131.988,0.124c-12.458,0.078-23.203,9.864-24.272,23.342C32.17,554.608,32.991,567.983,32.991,581.481
		z"/>
	<path style="fill:#A9AAAD;" d="M1161.21,516.566c0-10.559,0-20.832,0-31.098c1.596-0.849,3.118-0.498,4.568-0.499
		c49.33-0.021,98.66,0.023,147.989-0.039c16.623-0.021,30.435,6.292,42.413,17.558c10.154,9.55,17.573,20.647,21.119,34.195
		c0.875,3.343,1.719,6.693,1.717,10.207c-0.022,34.497,0.065,68.995-0.073,103.491c-0.031,7.712-2.755,14.946-6.136,21.744
		c-4.005,8.052-9.411,15.226-15.974,21.43c-9.365,8.852-20.423,15.061-33.027,17.124c-11.065,1.811-22.437,2.216-33.701,0.5
		c-1.144-0.174-2.328-0.116-3.494-0.117c-40.83-0.024-81.66,0-122.489-0.154c-2.764-0.01-5.401,2.098-7.891,0.623
		c-1.383-1.109-1.164-2.331-1.164-3.476c-0.006-19.165-0.305-38.337,0.094-57.494c0.298-14.288,4.123-27.69,12.792-39.403
		c11.166-15.084,25.635-25.165,44.15-28.977c2.727-0.561,5.649-0.221,8.48-0.221c40.164-0.01,80.328-0.003,120.491-0.024
		c1.797-0.001,3.634,0.293,5.101-0.172c0.928-0.667,0.871-1.368,0.87-2.014c-0.007-11.666,0.499-23.362-0.181-34.989
		c-0.822-14.062-7.645-23.468-22.05-26.864c-2.967-0.699-5.88-0.892-8.861-0.892c-49.663-0.005-99.326,0.001-148.989-0.02
		C1165.167,516.983,1163.329,517.306,1161.21,516.566z M1187.001,677.51c2.32,0.846,4.158,0.517,5.947,0.518
		c27.302,0.026,54.603,0.018,81.905,0.018c15.149,0,30.306,0.285,45.445-0.102c10.208-0.261,18.572-4.53,23.327-14.141
		c2.138-4.321,3.412-8.924,3.412-13.814c0-10.821,0.03-21.642,0.011-32.462c-0.002-1.107,0.383-2.348-0.993-3.572
		c-0.646,0-1.621,0-2.596,0c-41.951,0.001-83.903,0.014-125.854-0.027c-2.687-0.003-5.271,0.377-7.82,1.099
		c-14.251,4.037-21.765,13.348-22.626,26.789C1186.405,653.577,1187.001,665.424,1187.001,677.51z"/>
	<path style="fill:#A9AAAD;" d="M505.534,710.991c-10.402,0-20.55,0-30.703,0c-1.404-1.652-0.748-3.569-0.751-5.314
		c-0.07-34.155,0.188-68.314-0.23-102.464c-0.194-15.806-3.784-31.122-10.976-45.338c-6.221-12.296-15.556-21.776-27.455-28.727
		c-9.69-5.66-20.258-8.517-31.272-10.257c-9.867-1.559-19.758-1.929-29.707-1.904c-18.327,0.046-36.654,0.013-54.982,0.013
		c-1.627,0-3.254,0-5.202,0c0,64.73,0,128.985,0,193.959c-5.404,0.014-10.499,0.033-15.594,0.039
		c-4.985,0.007-9.97,0.001-14.893,0.001c-1.063-3.923-1.525-213.118-0.556-225.353c1.069-1.144,2.486-0.674,3.75-0.674
		c33.655-0.003,67.312-0.08,100.966,0.146c6.401,0.043,12.83,1.08,19.181,2.074c7.647,1.198,15.078,3.39,22.445,5.778
		c12.584,4.079,24.055,10.258,34.351,18.505c18.168,14.551,29.952,33.265,36.149,55.68c4.397,15.905,6.15,32.043,6.046,48.513
		c-0.191,29.989-0.048,59.98-0.068,89.97C506.032,707.27,506.328,708.943,505.534,710.991z"/>
	<path style="fill:#A9AAAD;" d="M1116.588,485.4c0.64,1.209,0.095,2.046-0.329,2.964c-6.249,13.519-12.503,27.037-18.69,40.584
		c-8.038,17.6-16.001,35.235-24.031,52.839c-4.258,9.334-8.614,18.623-12.881,27.953c-8.39,18.346-16.749,36.706-25.12,55.061
		c-3.362,7.372-6.7,14.755-10.092,22.113c-4.433,9.616-8.906,19.214-13.368,28.817c-0.484,1.041-1.012,2.062-1.55,3.154
		c-9.425,0-18.714,0-27.904,0c-2.307-1.7-2.473-4.393-3.522-6.585c-6.075-12.69-12.059-25.423-18.028-38.163
		c-10.11-21.578-20.189-43.172-30.276-64.761c-7.005-14.992-13.998-29.99-21.004-44.981c-9.671-20.692-19.356-41.377-29.02-62.073
		c-2.575-5.514-5.094-11.054-7.812-16.959c12.498,0,24.576,0,36.891,0c1.902,3.965,3.896,7.93,5.724,11.97
		c3.951,8.732,7.758,17.529,11.731,26.251c10.422,22.88,20.886,45.74,31.364,68.594c6.485,14.145,13.041,28.258,19.535,42.398
		c5.318,11.579,10.561,23.194,15.926,34.751c0.73,1.573,1.168,3.42,3.075,4.769c27.871-62.935,55.678-125.725,83.566-188.699
		C1092.864,485.4,1104.773,485.4,1116.588,485.4z"/>
	<path style="fill:#A9AAAD;" d="M663.912,718.833c-9.45,0-18.421,0-27.569,0c-2.501-3.126-3.825-6.898-5.507-10.449
		c-3.398-7.172-6.572-14.45-9.954-21.629c-8.889-18.867-17.877-37.688-26.756-56.56c-7.468-15.873-14.829-31.797-22.257-47.688
		c-6.868-14.694-13.772-29.371-20.642-44.063c-7.432-15.893-14.852-31.792-22.249-47.702c-0.754-1.621-1.31-3.335-2.106-5.39
		c12.311,0,24.23,0,36.664,0c28.553,62.611,57.271,125.583,86.448,189.562c28.357-63.848,56.292-126.746,84.248-189.691
		c12.226,0,24.183,0,36.408,0c-1.572,3.595-3.024,7.067-4.595,10.485c-6.292,13.682-12.653,27.332-18.929,41.022
		c-9.169,20.001-18.282,40.028-27.426,60.04c-6.804,14.892-13.639,29.77-20.422,44.671c-9.659,21.218-19.273,42.457-28.928,63.676
		C668.288,709.62,666.142,714.08,663.912,718.833z"/>
	<path style="fill:#8FC040;" d="M675.989,83.287c0.011,1.592-1.027,2.218-2.316,2.854c-8.437,4.162-16.272,9.303-23.805,14.91
		c-3.751,2.792-6.622,6.525-10.073,9.637c-11.104,10.009-19.058,22.291-25.423,35.636c-4.524,9.484-7.305,19.544-9.499,29.851
		c-2.411,11.328-2.492,22.764-1.648,34.061c0.95,12.71,4.21,25.112,9.304,36.962c2.089,4.86,4.67,9.416,7.117,14.066
		c0.764,1.453,1.664,2.895,1.353,4.672c-8.768-3.411-17.543-6.804-26.302-10.237c-15.043-5.896-30.642-9.756-46.476-12.764
		c-0.814-0.155-1.663-0.15-2.238-0.882c-0.118-1.797-0.194-3.557-0.53-5.377c-1.667-9.024-3.756-18.011-3.487-27.299
		c0.071-2.445,0.139-4.857-0.737-7.349c-0.67-1.906-0.502-4.39,0.095-6.375c0.548-1.823,0.738-3.566,0.654-5.363
		c-0.466-9.956,1.154-19.759,3.248-29.347c4.511-20.657,11.866-40.386,23.069-58.393c10.6-17.038,23.08-32.614,38.873-45.268
		c1.044-0.837,2.023-1.779,1.835-3.329c4.96,0.765,9.357,3.142,13.863,5.09c11.271,4.873,22.473,9.889,33.482,15.374
		c5.417,2.699,10.877,5.54,16.653,7.557c0.032,0.643-0.057,1.416,0.58,1.751c0.691,0.363,1.195-0.065,1.437-0.771
		C675.342,83.063,675.665,83.175,675.989,83.287z"/>
	<path style="fill:#C7C8CA;" d="M805.872,218.896c1.739-4.187,4.997-7.323,7.65-10.857c8.542-11.376,17.266-22.615,25.921-33.905
		c0.88-1.147,2.244-2.13,1.292-3.884c1.877-0.045,3.013-1.317,4.058-2.598c6.978-8.56,13.8-17.251,20.91-25.701
		c5.534-6.577,11.424-12.854,17.133-19.285c10.925-12.306,22.743-23.744,34.384-35.352c7.146-7.125,15.239-13.187,22.692-19.955
		c5.399-4.903,11.163-9.297,16.959-13.654c8.826-6.633,18.04-12.69,27.727-18.044c6.788-3.752,13.284-8.107,20.456-11.06
		c5.595-2.304,10.669-6.011,16.918-6.653c-1.167,4.911-4.317,8.834-6.532,13.225c-8.782,17.412-17.898,34.649-26.92,51.937
		c-9.098,17.434-17.874,35.035-27.256,52.324c-4.492,8.279-7.944,17.1-12.99,25.101c-0.391,0.62-0.189,1.613-0.263,2.432
		c-10.737,1.391-21.525,2.554-32.059,5.102c-8.929,2.16-17.715,4.876-26.41,7.889c-20.506,7.106-39.933,16.451-58.622,27.453
		c-7.687,4.525-15.171,9.312-22.354,14.582C807.724,218.613,806.969,219.182,805.872,218.896z"/>
	<path style="fill:#8FC040;" d="M846.411,360.189c-5.75-1.039-10.905-3.777-16.286-5.831c-20.202-7.71-40.329-15.617-60.474-23.478
		c-0.904-0.353-1.702-0.976-2.549-1.473c2.066-0.494,3.471-2.113,5.739-2.627c9.622-2.178,18.81-5.803,27.702-10.053
		c9.547-4.563,18.383-10.22,26.513-17.105c9.781-8.283,18.528-17.421,26.024-27.807c7.202-9.978,12.501-20.97,16.622-32.448
		c3.482-9.697,6.784-19.584,6.304-30.178c5.433-2.867,11.288-4.708,17.044-7.184c7.876,5.274,16.268,9.608,23.91,15.227
		c5,3.676,10.624,6.513,16.022,9.633c0.897,0.518,1.576,1.108,2.1,1.948c-0.357,0.916-0.845,1.804-1.05,2.753
		c-1.172,5.429-2.236,10.873-3.887,16.197c-4.542,14.641-9.958,28.85-17.542,42.282c-8.578,15.192-19.162,28.785-30.821,41.627
		c-2.779,3.061-6.134,5.561-9.15,8.369C864.509,347.6,855.457,353.874,846.411,360.189z"/>
	<path style="fill:#9F9FA2;" d="M1042.593,188.135c1.261-0.13,1.432-1.271,1.869-2.104c4.98-9.498,9.937-19.009,14.854-28.54
		c5.145-9.972,10.144-20.03,15.526-29.872c4.042-7.39,7.617-15.003,11.56-22.433c9.903-18.657,19.498-37.474,29.247-56.209
		c4.188-8.049,8.042-16.281,12.5-24.173c3.82-6.763,7.19-13.741,10.763-20.621c0.328-0.631,0.697-1.095,1.314-1.391
		c9.418,0.211,17.818,4.054,26.305,7.494c4.374,1.773,8.774,3.597,12.497,6.641c-1.095,1.83-2.256,3.606-3.253,5.512
		c-4.053,7.751-7.907,15.602-12.008,23.333c-9.668,18.227-18.851,36.71-28.624,54.887c-3.905,7.263-7.494,14.694-11.32,22.005
		c-9.566,18.282-18.92,36.674-28.61,54.894c-6.744,12.681-13.113,25.561-19.663,38.345c-0.974,1.901-1.789,4.023-4.467,4.077
		c-5.848-9.921-14.03-17.814-22.21-25.729C1046.776,192.221,1043.578,191.3,1042.593,188.135z"/>
	<path style="fill:#BABBBD;" d="M948.012,162.967c0.074-0.82-0.128-1.813,0.263-2.432c5.046-8.001,8.497-16.823,12.99-25.101
		c9.382-17.289,18.158-34.89,27.256-52.324c9.022-17.288,18.138-34.524,26.92-51.937c2.215-4.391,5.365-8.315,6.532-13.225
		c0.44-1.078,1.56-1.246,2.419-1.565c11.852-4.397,23.813-8.628,36.225-10.979c8.678-1.644,17.345-4.113,26.362-3.46
		c0.099,1.787-1.045,3.094-1.785,4.547c-7.191,14.125-14.145,28.38-21.696,42.311c-4.803,8.861-9.05,17.992-13.827,26.851
		c-9.323,17.29-18.042,34.894-27.25,52.237c-6.033,11.362-11.419,23.066-17.962,34.156c-1.13,1.915-1.624,3.95-1.58,6.144
		c-2.523,0.172-4.901-0.648-7.263-1.268c-11.209-2.942-22.573-4.345-34.164-4C956.975,163.055,952.492,162.959,948.012,162.967z"/>
	<path style="fill:#86B541;" d="M609.003,53.951c0.188,1.549-0.791,2.492-1.835,3.329c-15.794,12.655-28.273,28.23-38.873,45.268
		c-11.203,18.008-18.558,37.736-23.069,58.393c-2.094,9.588-3.714,19.39-3.248,29.347c0.084,1.797-0.106,3.54-0.654,5.363
		c-0.597,1.986-0.765,4.469-0.095,6.375c0.876,2.492,0.808,4.904,0.737,7.349c-0.269,9.288,1.82,18.275,3.487,27.299
		c0.336,1.82,0.411,3.58,0.53,5.377c-7.991,1.156-14.49-1.459-20.822-6.526c-8.804-7.044-17.295-14.371-25.345-22.24
		c-0.48-0.469-0.949-0.913-1.026-1.622c0.242-13.226,0.519-26.431,2.084-39.609c0.775-6.525,1.901-12.949,3.053-19.397
		c3.316-18.561,9.916-35.996,17.775-53.031c3.328-7.213,7.542-13.928,11.414-20.831c3.302-5.887,7.171-11.457,11.391-16.715
		c5.577-6.949,10.962-14.084,17.321-20.367c1.422-1.405,1.113-3.013,1.169-4.64c12.658,3.648,25.167,7.693,37.084,13.411
		C602.947,51.862,606.022,52.807,609.003,53.951z"/>
	<path style="fill:#8C8C90;" d="M1065.921,333.921c-0.561-2.281,0.622-4.252,1.374-6.186c3.995-10.285,7.538-20.699,10.091-31.446
		c2.131-8.972,3.651-18.027,4.149-27.243c1.951,0.149,2.804-0.969,3.753-2.574c6.82-11.533,11.993-23.921,18.669-35.534
		c4.444-7.73,8.102-15.89,12.319-23.761c10.147-18.936,19.83-38.12,29.737-57.186c3.732-7.182,7.3-14.444,11.128-21.585
		c9.838-18.351,19.365-36.873,28.824-55.423c5.929-11.626,11.83-23.259,18.336-34.575c5.597,6.113,10.097,12.994,13.472,20.52
		c1.6,3.569,3.784,7.008,4.087,11.088c-2.504,0.463-3.031,2.738-4.046,4.509c-7.721,13.471-14.05,27.672-21.66,41.21
		c-4.445,7.908-8.263,16.164-12.488,24.205c-9.216,17.542-18.292,35.158-27.456,52.729c-8.932,17.128-17.691,34.346-26.713,51.43
		c-7.714,14.608-15.038,29.421-22.589,44.116c-1.051,2.045-2.236,4.039-3.39,6.03c-2.122,3.659-4.488,7.357-4.479,11.874
		c-1.608,3.276-5.039,4.725-7.631,6.783c-6.967,5.53-13.205,11.873-20.2,17.337c-1.685,1.316-3.448,2.534-5.175,3.797
		L1065.921,333.921z"/>
	<path style="fill:#939396;" d="M1204.3,38.408c-6.505,11.317-12.407,22.95-18.336,34.575c-9.46,18.551-18.986,37.072-28.824,55.423
		c-3.828,7.14-7.396,14.402-11.128,21.585c-9.906,19.065-19.59,38.25-29.737,57.186c-4.218,7.871-7.876,16.031-12.319,23.761
		c-6.676,11.612-11.849,24.001-18.669,35.534c-0.949,1.605-1.802,2.723-3.753,2.574c0.69-14.331-1.404-28.198-6.817-41.536
		c-1.054-2.597-3.382-4.561-3.634-7.53c2.679-0.054,3.493-2.176,4.467-4.077c6.551-12.784,12.919-25.665,19.663-38.345
		c9.69-18.22,19.044-36.613,28.61-54.894c3.826-7.311,7.414-14.742,11.32-22.005c9.774-18.177,18.957-36.66,28.624-54.887
		c4.1-7.731,7.955-15.582,12.008-23.333c0.997-1.906,2.158-3.682,3.253-5.512C1188.905,22.379,1197.929,28.832,1204.3,38.408z"/>
	<path style="fill:#868588;" d="M1099.037,306.119c-0.009-4.516,2.357-8.214,4.479-11.874c1.155-1.991,2.339-3.985,3.39-6.03
		c7.551-14.695,14.874-29.508,22.589-44.116c9.022-17.084,17.781-34.303,26.713-51.43c9.164-17.571,18.24-35.187,27.456-52.729
		c4.225-8.041,8.043-16.298,12.488-24.205c7.61-13.538,13.939-27.739,21.66-41.21c1.015-1.771,1.543-4.046,4.046-4.509
		c1.825,6.142,3.728,12.258,4.48,18.668c0.86,7.333,1.275,14.679,0.901,22.05c-0.285,5.622-0.134,11.247-1.223,16.853
		c-4.425,22.774-12.056,44.314-23.443,64.583c-10.943,19.477-23.688,37.698-38.311,54.493c-7.593,8.721-15.777,16.993-24.112,25.112
		c-10.263,9.998-21.764,18.406-32.415,27.865C1105.043,302.033,1102.546,304.781,1099.037,306.119z"/>
	<path style="fill:#7AA741;" d="M562.995,37.074c-0.055,1.627,0.253,3.236-1.169,4.64c-6.358,6.283-11.743,13.418-17.321,20.367
		c-4.22,5.258-8.09,10.828-11.391,16.715c-3.872,6.904-8.086,13.618-11.414,20.831c-7.859,17.035-14.458,34.47-17.775,53.031
		c-1.152,6.448-2.278,12.872-3.053,19.397c-1.565,13.178-1.842,26.384-2.084,39.609c-3.055-1.592-4.791-4.485-6.795-7.063
		c-13.514-17.379-26.173-35.31-35.281-55.493c1.627-0.007,2.054-0.824,2.371-2.433c2.114-10.736,4.849-21.347,8.123-31.768
		c2.598-8.27,5.922-16.321,9.41-24.305c8.275-18.937,18.326-36.789,30.573-53.444c2.096-2.85,4.936-5.322,5.81-8.997
		c5.415,1.232,11.03-0.127,16.479,1.471c2.777,0.814,5.855,0.377,8.808,0.87c6.391,1.067,12.501,3.2,18.814,4.512
		C559.177,35.446,560.715,37.307,562.995,37.074z"/>
	<path style="fill:#ACADB0;" d="M584.007,391.869c-6.472-1.996-12.753-4.437-18.594-7.918c-1.278-0.761-2.58-1.494-3.922-2.134
		c-8.791-4.19-16.085-10.434-23.161-16.947c-13.133-12.087-23.959-26.099-33.901-40.847c-1.305-1.935-2.442-3.923-3.396-6.036
		c2.953,0.052,3.138-2.476,3.925-4.333c3.946-9.308,7.953-18.593,11.686-27.987c2.463-6.198,5.638-12.119,7.337-18.617
		c6.008,3.171,11.208,7.548,16.819,11.31c15.081,10.112,29.627,21.089,46.089,28.971c8.317,3.982,16.639,8.023,25.517,10.69
		c0.653,0.196,1.271,0.297,1.603,0.96c-2.674,6.534-5.32,13.079-8.028,19.599c-4.539,10.926-9.147,21.823-13.67,32.755
		C589.49,378.157,586.772,385.023,584.007,391.869z"/>
	<path style="fill:#A9AAAD;" d="M809.298,485.255c10.62,0,20.88,0,31.393,0c0,75.456,0,150.681,0,225.883
		c-10.318,0-20.687,0-31.393,0C809.298,635.699,809.298,560.677,809.298,485.255z"/>
	<path style="fill:#86B541;" d="M846.411,360.189c9.046-6.315,18.098-12.588,26.22-20.15c3.015-2.807,6.371-5.308,9.15-8.369
		c11.659-12.842,22.243-26.435,30.821-41.627c7.584-13.432,13-27.641,17.542-42.282c1.652-5.325,2.715-10.768,3.887-16.197
		c0.205-0.949,0.693-1.837,1.05-2.753c1.804-0.272,3.151,0.759,4.54,1.624c6.501,4.046,12.983,8.12,19.486,12.163
		c3.896,2.422,7.669,5.054,12.05,6.623c1.046,0.374,1.901,1.281,2.844,1.943c-0.097,1.147,0.015,2.36-0.322,3.432
		c-3.831,12.178-7.586,24.358-12.859,36.054c-6.106,13.542-13.045,26.558-21.542,38.741c-5.742,8.233-11.836,16.14-18.559,23.653
		c-8.072,9.02-16.491,17.567-25.983,25.063c-4.34-0.366-8.045-2.642-12.027-4.062c-10.848-3.87-21.63-7.928-32.453-11.869
		C848.876,361.673,847.443,361.339,846.411,360.189z"/>
	<path style="fill:#94C441;" d="M876.006,209.187c0.48,10.594-2.821,20.481-6.304,30.178c-4.122,11.478-9.42,22.471-16.622,32.448
		c-7.497,10.386-16.244,19.524-26.024,27.807c-8.13,6.885-16.966,12.542-26.513,17.105c-8.892,4.25-18.08,7.875-27.702,10.053
		c-2.268,0.513-3.673,2.133-5.739,2.627c-9.237-3.628-18.542-7.092-27.462-11.476c0.374-1.517,1.546-2.465,2.526-3.553
		c3.497-3.883,7.018-7.745,10.462-11.675c0.904-1.032,2.503-1.92,1.469-3.761c2.034-2.473,4.95-3.805,7.445-5.673
		c8.422-6.307,15.854-13.691,23.183-21.168c14.366-14.655,30.011-27.794,47.112-39.083
		C845.824,223.782,860.322,215.347,876.006,209.187z"/>
	<path style="fill:#719C40;" d="M963.003,390.844c-8.183,2.141-16.48,1.735-24.717,0.706c-4.531-0.566-9.175-1.19-13.283-3.557
		c-0.2-1.563,0.897-2.417,1.846-3.337c9.758-9.46,18.556-19.744,26.675-30.64c6.003-8.057,11.79-16.277,16.82-24.949
		c5.124-8.835,9.624-18.014,13.902-27.331c5.648-12.301,9.657-25.111,13.805-37.911c9.014,2.97,18.027,5.941,27.041,8.911
		c-0.365,3.794-1.873,7.284-2.956,10.881c-3.082,10.239-7.181,20.093-11.327,29.937c-5.975,14.19-13.595,27.483-21.842,40.423
		c-6.821,10.703-14.385,20.876-22.776,30.429C964.631,386.184,962.703,388.031,963.003,390.844z"/>
	<path style="fill:#7AA741;" d="M998.05,263.825c-4.148,12.8-8.157,25.61-13.805,37.911c-4.278,9.317-8.778,18.496-13.902,27.331
		c-5.03,8.672-10.817,16.892-16.82,24.949c-8.118,10.896-16.917,21.18-26.675,30.64c-0.949,0.92-2.047,1.774-1.846,3.337
		c-10.256-2.781-20.411-5.874-30.265-9.886c9.491-7.496,17.911-16.042,25.983-25.063c6.723-7.513,12.817-15.42,18.559-23.653
		c8.496-12.183,15.436-25.199,21.542-38.741c5.273-11.696,9.029-23.876,12.859-36.054c0.337-1.072,0.225-2.285,0.322-3.432
		C982.018,255.384,990.034,259.605,998.05,263.825z"/>
	<path style="fill:#68903F;" d="M963.003,390.844c-0.3-2.813,1.628-4.661,3.188-6.438c8.391-9.554,15.954-19.726,22.776-30.429
		c8.247-12.94,15.867-26.233,21.842-40.423c4.145-9.844,8.245-19.699,11.327-29.937c1.083-3.597,2.59-7.086,2.956-10.881
		c5.727,1.285,11.541,2.009,17.383,2.36c3.959,0.238,7.944,0.045,12.265,0.045c0.001,4.97-1.002,9.294-1.996,13.561
		c-5.239,22.498-13.447,43.814-25.611,63.535c-4.357,7.064-10.284,12.584-16.792,17.574c-13.269,10.174-28.184,16.828-44.377,20.737
		C965.009,390.779,963.991,390.752,963.003,390.844z"/>
	<path style="fill:#A9AAAD;" d="M584.007,391.869c2.765-6.846,5.482-13.712,8.305-20.535c4.522-10.933,9.131-21.83,13.67-32.755
		c2.709-6.519,5.354-13.065,8.028-19.599c7.871,3.214,16.226,4.486,24.513,5.951c6.762,1.195,13.617,1.735,20.48,2.081
		c0.322,2.078-0.684,3.912-1.407,5.662c-6.929,16.776-14.082,33.46-20.958,50.257c-1.205,2.942-3.376,5.77-2.561,9.325
		c-3.551,1.967-7.63,1.95-11.434,2.483c-4.211,0.591-8.565,1.394-12.816,1.066c-6.225-0.481-12.546-0.534-18.621-2.232
		C588.822,392.908,586.259,393.044,584.007,391.869z"/>
	<path style="fill:#9F9FA2;" d="M634.076,392.257c-0.815-3.555,1.357-6.383,2.561-9.325c6.876-16.797,14.029-33.481,20.958-50.257
		c0.723-1.751,1.729-3.584,1.407-5.662c14.087-0.083,27.933-1.885,41.505-5.726c1.099-0.311,2.297-0.274,3.448-0.399
		c-0.007,0.332,0.084,0.705-0.035,0.99c-5.301,12.73-10.599,25.462-15.954,38.169c-1.229,2.915-2.346,5.812-1.938,9.058
		c-9.505,6.635-19.757,11.842-30.509,16.134c-4.718,1.884-9.491,3.59-14.264,5.316C638.888,391.411,636.577,392.131,634.076,392.257
		z"/>
	<path style="fill:#719C40;" d="M512.999,28.161c-0.874,3.675-3.714,6.147-5.81,8.997c-12.247,16.655-22.298,34.507-30.573,53.444
		c-3.489,7.984-6.812,16.034-9.41,24.305c-3.274,10.421-6.009,21.032-8.123,31.768c-0.317,1.609-0.744,2.426-2.371,2.433
		c-4.228-7.476-6.071-15.817-8.619-23.898c-1.335-4.233-2.08-8.608-2.678-13.004c2.565-0.62,2.943-2.886,3.599-4.885
		c2.859-8.708,5.816-17.406,9.778-25.659c7.615-15.864,15.174-31.784,25.313-46.278c1.047-1.496,2.052-3.004,1.895-4.958
		C494.914,28.653,503.889,27.596,512.999,28.161z"/>
	<path style="fill:#9F9FA2;" d="M523.981,267.049c-1.699,6.498-4.875,12.419-7.337,18.617c-3.733,9.394-7.74,18.679-11.686,27.987
		c-0.787,1.857-0.972,4.385-3.925,4.333c-5.197-6.486-8.794-13.962-12.984-21.066c-4.045-6.858-7.621-13.974-11.057-21.156
		c-0.424-0.886-1.121-1.684-0.927-2.777c2.663-0.061,3.602-2.108,4.442-4.07c2.447-5.717,4.999-11.405,7.074-17.259
		c1.244-3.511,3.49-6.743,3.428-10.681c7.161,6.255,14.783,11.953,21.904,18.27C516.268,262.224,520.271,264.471,523.981,267.049z"
		/>
	<path style="fill:#939396;" d="M491.008,240.978c0.062,3.938-2.183,7.17-3.428,10.681c-2.075,5.854-4.626,11.542-7.074,17.259
		c-0.84,1.962-1.779,4.009-4.442,4.07c-7.792-14.27-13.759-29.362-19.943-44.354c-5.802-14.065-10.394-28.573-15.55-42.874
		c-1.101-3.054-2.167-6.151-2.625-9.948c3.278,2.335,4.218,5.661,5.934,8.362c8.635,13.598,18.125,26.492,28.899,38.52
		C478.553,229.139,485.079,234.741,491.008,240.978z"/>
	<path style="fill:#68903F;" d="M486,30.427c0.157,1.954-0.848,3.462-1.895,4.958c-10.139,14.493-17.697,30.414-25.313,46.278
		c-3.962,8.253-6.919,16.951-9.778,25.659c-0.656,1.999-1.034,4.265-3.599,4.885c-3.062-13.688-4.788-27.46-2.494-41.466
		c2.61-15.934,11.42-27.339,25.717-34.491C474.11,33.512,479.828,31.218,486,30.427z"/>
	<path style="fill:#939396;" d="M686.029,369.104c-0.407-3.246,0.709-6.143,1.938-9.058c5.355-12.707,10.653-25.439,15.954-38.169
		c0.119-0.285,0.028-0.658,0.035-0.99c8.912-3.381,17.868-6.65,26.722-10.178c7.541-3.005,14.875-6.476,21.564-11.166
		c0.509-0.357,1.231-0.409,1.854-0.602c1.034,1.841-0.565,2.729-1.469,3.761c-3.443,3.93-6.965,7.792-10.462,11.675
		c-0.98,1.088-2.151,2.036-2.526,3.553c-2.135,0.559-2.881,2.635-4.217,4.017c-7.153,7.402-14.499,14.614-21.482,22.191
		c-4.241,4.602-9.27,8.494-13.644,13.028c-2.751,2.851-5.57,5.637-8.373,8.437C690.259,367.267,688.4,368.622,686.029,369.104z"/>
	<path style="fill:#ACADB0;" d="M1402.248,489.056c-14.908,0.864-27.769-11.326-27.807-27.512
		c-0.038-16.079,12.351-27.793,28.188-27.784c14.352,0.009,27.923,12.484,27.705,28.252
		C1430.152,475.086,1418.219,490.66,1402.248,489.056z M1402.388,486.078c13.522,1.075,24.9-11.814,24.925-24.608
		c0.026-12.893-11.665-24.753-24.475-24.76c-12.851-0.007-24.923,10.168-25.12,24.535
		C1377.53,474.965,1389.827,487.104,1402.388,486.078z"/>
	<path style="fill:#96C741;" d="M675.018,82.952c-0.242,0.706-0.746,1.135-1.437,0.771c-0.637-0.335-0.548-1.108-0.58-1.751
		C673.848,81.939,674.572,82.158,675.018,82.952z"/>
	<path style="fill:#8C8C90;" d="M1066.032,334.036c-0.146,0.225-0.293,0.45-0.439,0.674c-0.125-0.154-0.249-0.308-0.374-0.462
		c0.234-0.109,0.469-0.218,0.703-0.327L1066.032,334.036z"/>
	<path style="fill:#C7C8CA;" d="M804.83,219.949c0.147-0.574,0.426-1.013,1.085-1.067C805.919,219.61,805.522,219.93,804.83,219.949
		z"/>
	<path style="fill:#939396;" d="M437.752,174.54c-0.092,0.101-0.184,0.202-0.275,0.304c-0.075-0.115-0.24-0.265-0.211-0.338
		C437.439,174.076,437.621,174.096,437.752,174.54z"/>
	<path style="fill:#ACADB0;" d="M1416.726,478.729c-2.451,0-4.56,0-6.665,0c-1.427-2.154-1.532-4.505-1.95-6.716
		c-0.245-1.299-0.473-2.556-0.909-3.823c-1.6-4.647-2.229-5.176-7.08-5.175c-0.812,0-1.625,0.091-2.7,0.155
		c-0.9,5.116,0.083,10.252-0.578,15.27c-1.778,0.851-3.423,0.46-5.034,0.401c-0.983-3.536-1.29-24.08-0.475-34.697
		c5.662-0.213,11.41-0.549,17.116,0.189c3.734,0.482,6.417,2.928,7.336,6.569c0.912,3.616-1.026,6.376-3.787,8.591
		c-0.616,0.494-1.613,0.534-1.897,1.888C1415.799,465.647,1413.437,473.095,1416.726,478.729z M1397.072,457.978
		c3.037,0,5.668,0.172,8.265-0.05c2.414-0.207,3.728-1.996,3.71-4.423c-0.017-2.44-1.362-4.338-3.725-4.404
		c-2.725-0.076-5.566-0.684-8.251,0.528C1397.072,452.282,1397.072,454.763,1397.072,457.978z"/>
</g>
</svg>
