<?xml version="1.0" encoding="iso-8859-1"?>
<!-- Generator: Adobe Illustrator 27.0.0, SVG Export Plug-In . SVG Version: 6.00 Build 0)  -->
<svg version="1.1" id="Layer_1" xmlns="http://www.w3.org/2000/svg" xmlns:xlink="http://www.w3.org/1999/xlink" x="0px" y="0px"
	 viewBox="0 0 1545 368" style="enable-background:new 0 0 1545 368;" xml:space="preserve">
<g>
	<path style="fill:#273069;" d="M0,131c1.827-2.131,1.457-4.883,2.022-7.356c6.44-28.211,21.724-49.593,48.915-60.757
		c22.974-9.432,46.195-8.556,68.69,2.212c14.828,7.097,25.192,18.807,32.33,33.457c6.353,13.039,9.363,26.886,10.164,41.337
		c0.342,6.171,0.345,12.282-0.333,18.96c-38.136,0-76.356,0-114.834,0c2.56,10.547,6.866,19.273,15.59,25.334
		c5.607,3.896,11.836,5.998,18.53,6.753c16.478,1.859,30.897-2.865,43.311-13.814c0.867-0.764,1.753-1.507,3.039-2.61
		c8.814,7.849,17.567,15.644,26.562,23.654c-6.417,7.669-13.211,14.139-21.528,18.922c-17.805,10.239-36.952,13.335-57.217,11.161
		c-16.634-1.784-31.601-7.478-44.663-17.986C16.318,198.792,7.418,183.93,3.041,166.274c-0.959-3.868-1.801-7.777-2.046-11.778
		C0.951,153.794,0.765,153.21,0,153c0-1,0-2,0-3c1.374-2.995,1.374-13.948,0-17C0,132.333,0,131.667,0,131z M46.484,128.994
		c23.737,0,46.764,0,70.029,0c-0.288-2.022-0.35-3.705-0.792-5.281c-0.806-2.871-1.654-5.756-2.805-8.501
		c-7.881-18.792-29.578-26.289-47.447-16.364C53.847,105.302,49.243,116.252,46.484,128.994z"/>
	<path style="fill:#273069;" d="M588.027,0.983c0.045,1.496,0.13,2.992,0.13,4.488c0.006,71.436,0.006,142.871,0.006,214.307
		c0,1.629,0,3.257,0,5.143c-15.618,0-30.865,0-46.255,0c-1.222-1.546-0.6-3.443-0.601-5.177
		c-0.037-71.602-0.029-143.204-0.052-214.807C541.254,3.295,541.627,1.616,541,0c0.667,0,1.333,0,2,0
		c1.242,1.765,3.068,0.851,4.593,0.862C561.071,0.965,574.549,0.957,588.027,0.983z"/>
	<path style="fill:#C9D75D;" d="M1339,0c3.214,2.033,6.974,1.339,10.447,1.898c23.825,3.837,46.218,11.52,66.92,23.998
		c0.846,0.51,1.849,0.855,1.651,2.149c-5.199-2.096-10.366-4.275-15.604-6.266c-6.312-2.399-12.672-4.682-19.415-5.615
		c-11.494-3.122-23.207-3.692-35.028-3.023c-10.269,0.001-20.327,1.354-30.077,4.685c-8.056,1.652-15.808,4.164-23.055,8.114
		c-11.314,4.661-21.598,10.975-30.722,19.149c-3.713,2.239-6.375,5.68-9.614,8.465c-4.74,4.076-8.806,8.925-12.725,13.702
		c-2.931,3.574-5.393,7.776-7.952,11.772c-2.387,0.458-3.596-1.286-4.988-2.677c-8.466-8.461-16.909-16.945-25.412-25.368
		c-1.239-1.228-2.138-3.102-4.353-2.942c4.705-5.435,10.606-9.475,16.387-13.57c16.588-11.75,34.408-21.078,54.069-26.666
		c10.98-3.121,22.072-5.621,33.443-6.776c0.832-0.085,1.669-0.061,2.03-1.03C1316.333,0,1327.667,0,1339,0z"/>
	<path style="fill:#273069;" d="M997.071,366.956c-0.078-1.157-0.224-2.314-0.225-3.472c-0.012-30.306-0.01-60.612-0.01-90.919
		c0-1.304,0-2.607,0-4.17c3.77,0,7.179,0,11.154,0c0,14.574,0,29.123,0,43.805c19.18,0,37.801,0,57.023,0
		c0-14.508,0-29.047,0-43.825c4.027,0,7.461,0,10.903,0c1.153,1.689,0.655,3.579,0.657,5.364
		c0.031,30.473,0.018,60.945,0.038,91.418c0.001,0.947-0.472,1.998,0.388,2.842c-0.333,0-0.667,0-1,0
		c-0.095-1.221-1.042-1.004-1.797-1.021c-2.95-0.067-5.901-0.1-8.851-0.145c-0.111-14.549-0.222-29.098-0.332-43.547
		c-19.288,0-38.011,0-56.994,0c0,2.087,0.007,3.891-0.001,5.695c-0.057,12.645-0.117,25.289-0.177,37.934
		C1004.256,366.929,1000.663,366.943,997.071,366.956z"/>
	<path style="fill:#273069;" d="M1545,85c-0.821-0.086-1.643-0.172-2.936-0.307c0-6.122,0-12.324,0-18.526
		c-0.314-0.109-0.628-0.218-0.943-0.328c-2.656,3.909-5.312,7.818-8.297,12.212c-2.919-4.172-5.604-8.009-8.731-12.48
		c-0.982,6.724,0.035,12.787-0.636,18.566c-0.849,0.916-1.61,0.817-2.612,0.295c0-7.985,0-16.073,0-24.141
		c1.958-1.445,3.078-0.432,4.106,1.116c2.466,3.716,4.967,7.409,7.678,11.445c2.969-3.025,4.739-6.416,6.776-9.562
		c1.417-2.188,3.063-3.728,5.596-4.291c0,0.333,0,0.667,0,1c-0.731,0.233-0.997,0.77-0.997,1.496
		c0.002,6.657,0.002,13.314-0.001,19.971c0,0.735,0.317,1.249,0.997,1.533C1545,83.667,1545,84.333,1545,85z"/>
	<path style="fill:#726E95;" d="M642,368c0.054-0.363,0.109-0.726,0.163-1.09c2.663,0.02,5.327,0.052,7.99,0.057
		c21.309,0.035,42.617,0.065,63.926,0.096c0.094,0.322,0.068,0.635-0.079,0.937C690,368,666,368,642,368z"/>
	<path style="fill:#726E95;" d="M841,368c0.022-0.347,0.043-0.694,0.065-1.041c22.232-0.026,44.465-0.052,66.697-0.078
		c0.079,0.373,0.159,0.746,0.238,1.12C885.667,368,863.333,368,841,368z"/>
	<path style="fill:#726E95;" d="M588.027,0.983c-13.478-0.025-26.956-0.018-40.433-0.12C546.068,0.851,544.242,1.765,543,0
		c15,0,30,0,45,0C588.009,0.328,588.018,0.655,588.027,0.983z"/>
	<path style="fill:#1C5186;" d="M1545,83c-0.681-0.285-0.998-0.799-0.997-1.533c0.003-6.657,0.003-13.314,0.001-19.971
		c0-0.726,0.265-1.263,0.997-1.496C1545,67.667,1545,75.333,1545,83z"/>
	<path style="fill:#726E95;" d="M0,133c1.374,3.052,1.374,14.005,0,17C0,144.333,0,138.667,0,133z"/>
	<path style="fill:#726E95;" d="M813,368c0.03-0.351,0.059-0.702,0.089-1.054c2.764,0.007,5.528,0.025,8.292,0.017
		c1.114-0.003,2.335,0.203,2.899-1.178c0.995,0.492,0.644,1.423,0.721,2.214C821,368,817,368,813,368z"/>
	<path style="fill:#726E95;" d="M552.079,367.062c0.094,0.323,0.068,0.635-0.079,0.938c-3.667,0-7.333,0-11,0
		c0.129-0.392,0.259-0.784,0.388-1.176C544.951,366.903,548.515,366.983,552.079,367.062z"/>
	<path style="fill:#726E95;" d="M610,368c0.019-0.345,0.037-0.691,0.056-1.036c3.594-0.017,7.189-0.035,10.783-0.052
		c0.054,0.363,0.108,0.725,0.161,1.088C617.333,368,613.667,368,610,368z"/>
	<path style="fill:#726E95;" d="M735.911,366.946c0.03,0.351,0.06,0.703,0.089,1.054c-3.667,0-7.333,0-11,0
		c-0.219-0.299-0.244-0.613-0.072-0.942C728.589,367.021,732.25,366.983,735.911,366.946z"/>
	<path style="fill:#726E95;" d="M936,368c0.038-0.356,0.076-0.712,0.114-1.067c3.608,0.009,7.216,0.019,10.824,0.028
		c0.021,0.346,0.041,0.693,0.062,1.039C943.333,368,939.667,368,936,368z"/>
	<path style="fill:#726E95;" d="M1007.849,366.916c0.05,0.361,0.101,0.723,0.151,1.084c-3.667,0-7.333,0-11,0
		c0.024-0.348,0.047-0.696,0.071-1.044C1000.663,366.943,1004.256,366.929,1007.849,366.916z"/>
	<path style="fill:#726E95;" d="M1065,368c0.118-0.389,0.235-0.777,0.353-1.166c2.95,0.045,5.901,0.078,8.851,0.145
		c0.754,0.017,1.701-0.2,1.797,1.021C1072.333,368,1068.667,368,1065,368z"/>
	<path style="fill:#273069;" d="M426.983,56.784c18.219,0.1,35.236,4.571,50.496,14.659c19.359,12.797,31.771,30.649,36.302,53.419
		c5.061,25.433,0.112,48.993-15.676,69.798c-12.759,16.813-29.796,27.305-50.34,31.892c-25.112,5.607-49.078,2.311-71.039-11.248
		c-20.686-12.771-33.825-31.424-38.288-55.393c-8-42.968,14.64-81.927,53.895-96.95C404.202,58.419,413.79,56.811,426.983,56.784z
		 M469.181,144.421c0.72-22.714-14.47-45.112-39.862-46.955c-11.672-0.847-22.416,1.874-31.451,9.893
		c-8.66,7.687-12.899,17.481-14.348,28.754c-3.837,29.866,18.385,55.083,46.747,52.143c15.309-1.587,26.67-8.524,33.773-22.184
		C467.709,159.018,469.45,151.456,469.181,144.421z"/>
	<path style="fill:#273069;" d="M775.639,159.004c-38.449,0-76.391,0-114.843,0c2.851,13.085,9.008,23.417,21.339,28.397
		c18.198,7.35,35.518,4.714,51.447-6.741c2.539-1.826,4.9-3.9,7.549-6.025c8.836,7.798,17.538,15.478,26.526,23.41
		c-4.727,6.215-10.049,11.38-16.175,15.607c-11.827,8.159-24.899,12.917-39.271,14.536c-14.639,1.649-29.018,0.821-42.81-4.187
		c-31.881-11.575-49.83-34.606-54.478-68.114c-2.679-19.315-0.205-37.895,8.98-55.184c14.923-28.09,38.443-42.782,70.318-43.885
		c11.619-0.402,22.863,1.44,33.67,5.787c16.996,6.836,29.165,18.839,37.273,35.084C774.721,116.84,777.012,137.258,775.639,159.004z
		 M660.12,129.094c23.584,0,46.619,0,69.91,0c0.24-4.867-1.513-9.04-3.127-13.115c-10.653-26.897-42.24-25.808-55.387-11.341
		C665.285,111.493,662.032,119.706,660.12,129.094z"/>
	<path style="fill:#273069;" d="M847.787,60.254c0,7.285,0,14.331,0,22.264c2.739-3.048,4.785-5.409,6.92-7.686
		c8.559-9.128,18.784-15.525,31.277-17.262c22.456-3.122,44.009,2.784,56.633,22.926c4.672,7.455,7.008,15.724,8.369,24.324
		c0.994,6.276,1.029,12.6,1.026,18.932c-0.018,31.989-0.008,63.979-0.009,95.968c0,1.638,0,3.276,0,5.186
		c-15.689,0-31.062,0-46.498,0c-0.748-1.91-0.377-3.753-0.379-5.539c-0.03-27.991-0.028-55.981-0.015-83.972
		c0.003-5.677-0.393-11.274-1.974-16.786c-2.834-9.878-10.274-18.5-24.022-18.795c-3.491-0.075-6.987-0.224-10.409,0.706
		c-12.063,3.278-19.368,12.114-20.691,25.176c-0.268,2.645-0.279,5.323-0.281,7.986c-0.018,28.657-0.011,57.314-0.01,85.971
		c0,1.639,0,3.279,0,5.215c-15.737,0-31.104,0-46.681,0c0-54.907,0-109.64,0-164.616C816.552,60.254,831.938,60.254,847.787,60.254z
		"/>
	<path style="fill:#273069;" d="M251.585,169.034c12.208-36.143,24.416-72.286,36.725-108.728c16.016,0,32.11,0,48.797,0
		c-21.739,55.5-43.421,110.853-65.095,166.185c-14.344,0-28.313,0-42.716,0c-21.511-55.317-43.024-110.64-64.668-166.301
		c16.79,0,33.08,0,49.727,0c12.026,36.244,24.075,72.556,36.123,108.867C250.846,169.05,251.216,169.042,251.585,169.034z"/>
	<path style="fill:#273069;" d="M1074.939,180.95c0,12.603,0,24.889,0,37.523c-6.087,4.094-13.078,6.552-20.419,8.008
		c-12.411,2.463-24.762,2.413-36.977-1.345c-14.291-4.397-22.301-14.395-25.5-28.608c-1.502-6.673-1.996-13.469-1.982-20.321
		c0.054-25.158,0.021-50.315,0.021-76.009c-6.444,0-12.843,0-19.489,0c0-13.602,0-26.67,0-40.116c6.417,0,12.679,0,19.342,0
		c0-14.28,0-28.194,0-42.419c15.804,0,31.2,0,47.013,0c0,13.993,0,27.904,0,42.295c13.128,0,25.855,0,38.777,0
		c0,13.423,0,26.364,0,39.791c-12.632,0-25.357,0-37.659,0c-1.506,1.603-0.997,3.003-0.999,4.262
		c-0.036,21.66-0.027,43.319-0.022,64.979c0,1.332-0.034,2.674,0.101,3.996c0.986,9.662,5.516,14.084,16.46,13.599
		c3.629-0.161,7.255-0.921,10.828-1.668C1068.002,184.172,1071.311,182.573,1074.939,180.95z"/>
	<path style="fill:#F5A33A;" d="M1373.037,360.121c-8.678,3.242-17.698,4.854-26.866,5.986c-7.278,0.898-14.548,0.494-21.823,0.624
		c-1.461,0.026-2.994,0.358-4.375-0.483c-0.264-1.983,1.252-2.941,2.391-4.093c2.916-2.948,5.816-5.913,8.81-8.78
		c1.282-1.227,2.134-2.504,1.82-4.338c1.404-1.258,3.265-1.431,4.934-2.044c37.061-13.618,64.181-38.135,81.095-73.872
		c0.975-2.06,1.505-4.34,2.98-6.159c0.23,0.747,0.871,1.231,1.453,0.801c1.191-0.88,2.235-1.968,3.289-3.021
		c19.84-19.828,39.68-39.656,59.492-59.511c1.769-1.772,3.577-3.421,5.94-4.348c0.981,0.838,0.47,2.121,0.926,3.115
		c0.026,0.683,0.052,1.365,0.078,2.048c-0.001,5.291-0.002,10.582-0.003,15.872c-0.68,6.039-1.36,12.078-2.04,18.118
		c-0.416,1.315-0.832,2.63-1.248,3.945c-2.387-0.485-3.614,1.233-5.013,2.633c-10.824,10.826-21.649,21.649-32.474,32.474
		c-25.414,25.414-50.837,50.821-76.219,76.267C1374.848,356.695,1372.763,357.666,1373.037,360.121z"/>
	<path style="fill:#28A0BE;" d="M1347.97,13.141c11.821-0.669,23.535-0.1,35.028,3.023c2.126,3.83,5.371,6.697,8.41,9.737
		c33.078,33.084,66.16,66.164,99.241,99.245c0.942,0.942,1.932,1.84,2.819,2.831c1.042,1.164,2.345,1.071,3.685,0.953
		c3.023,6.83,4.388,14.142,5.673,21.398c1.089,6.155,2.676,12.322,2.117,18.69c-2.371,0.494-3.618-1.179-5.02-2.584
		c-7.271-7.282-14.551-14.556-21.828-21.833c-1.394-1.394-2.615-3.123-5.007-2.583c-5.132-7.737-10.457-15.311-16.717-22.221
		c-9.751-10.761-21.143-19.453-33.349-27.172c0.33-0.553,0.66-1.106,0.972-1.63c-0.894-1.817-2.419-2.889-3.69-4.161
		c-22.979-23.012-45.988-45.994-68.952-69.023C1350.005,16.46,1347.998,15.486,1347.97,13.141z"/>
	<path style="fill:#86C25E;" d="M1199.071,48.042c2.215-0.159,3.114,1.715,4.353,2.942c8.503,8.423,16.947,16.907,25.412,25.368
		c1.392,1.391,2.601,3.135,4.988,2.677c-4.633,8.041-9.242,16.182-12.319,24.894c-4.457,12.622-7.516,25.678-8.606,39.104
		c-2.381,0.457-3.617-1.244-5.021-2.648c-12.485-12.49-24.963-24.989-37.473-37.454c-2.092-2.085-4.334-4.02-6.506-6.024
		c0.192-2.769,2.968-4.835,2.145-7.88l-0.015,0.02c2.622-0.701,2.993-2.759,3.027-5.02c0,0-0.028,0.031-0.028,0.031
		c0.769,0.015,0.887-0.525,0.947-1.113l-0.039,0.047c1.204-0.229,0.977-1.294,1.218-2.085
		C1179.101,68.793,1187.982,57.48,1199.071,48.042z"/>
	<path style="fill:#37BFD4;" d="M1166.046,89.022c0.823,3.045-1.953,5.111-2.145,7.88c-3.706,6.257-5.606,13.207-7.33,20.154
		c-2.601,10.481-5.186,21.008-4.443,31.972c-0.432,8.937,0.221,17.764,1.708,26.617c2.359,14.044,6.652,27.35,12.946,40.118
		c3.44,6.977,7.712,13.428,11.545,20.152c-0.804,0.114-1.677,0.069-2.323,1.252c0,1.331,0,2.983,0,4.634
		c0,15.273,0.003,30.546-0.004,45.819c-0.001,1.804,0.292,3.67-0.933,5.261c-5.009-5.776-8.833-12.36-12.575-18.957
		c-8.697-15.333-14.971-31.649-18.879-48.84c-1.794-7.89-3.043-15.861-3.813-23.951c-0.632-6.641-0.666-13.252-0.813-19.886
		c-0.277-12.496,1.557-24.767,4.134-36.919c3.483-16.427,9.372-32.032,17.255-46.845C1161.954,94.52,1162.972,91.04,1166.046,89.022
		z"/>
	<path style="fill:#273069;" d="M714.079,367.063c-21.309-0.031-42.617-0.061-63.926-0.096c-2.663-0.004-5.327-0.037-7.99-0.057
		c-0.055-6.494-0.152-12.988-0.157-19.481c-0.019-24.66-0.015-49.319,0.008-73.979c0.001-1.624-0.31-3.295,0.397-5.096
		c23.604,0,47.195,0,71.078,0c0.758,3.21,0.373,6.457,0.241,10.274c-20.042,0-39.939,0-60.097,0c0,11.334,0,22.101,0,33.476
		c4.302,0.51,8.75,0.171,13.168,0.229c4.498,0.059,8.997,0.013,13.496,0.013c4.332,0,8.664,0,12.996,0c4.486,0,8.972,0,13.232,0
		c1.509,1.711,0.862,3.454,0.957,5.061c0.097,1.633,0.021,3.275,0.021,5.303c-18.12,0-35.877,0-53.958,0c0,11.616,0,22.84,0,34.581
		c20.18,0,40.254,0,60.437,0C714.678,360.875,714.688,363.962,714.079,367.063z"/>
	<path style="fill:#273069;" d="M620.839,366.912c-3.594,0.017-7.189,0.035-10.783,0.052c-0.082-10.296-0.173-20.593-0.242-30.889
		c-0.027-4.134-0.005-8.268-0.005-12.735c-19.074,0-37.906,0-57.167,0c0,3.183,0,6.292,0,9.401c0,9.474,0.014,18.949-0.012,28.423
		c-0.005,1.976,0.259,3.992-0.552,5.898c-3.564-0.079-7.127-0.159-10.691-0.238c-0.069-1.159-0.198-2.318-0.199-3.478
		c-0.011-30.482-0.009-60.964-0.009-91.446c0-0.992,0-1.984,0-3.192c3.673-1.139,7.266-0.428,11.294-0.47c0,14.577,0,28.99,0,43.753
		c19.185,0,37.912,0,57.093,0c0-14.335,0-28.749,0-43.25c3.801-1.125,7.258-0.413,10.508-0.585c1.2,0.793,0.916,1.872,0.916,2.825
		c0.011,31.481,0.008,62.962,0,94.444C620.991,365.921,620.892,366.417,620.839,366.912z"/>
	<path style="fill:#273069;" d="M735.911,366.946c-3.661,0.037-7.322,0.074-10.983,0.111c0.983-4.939,3.647-9.199,5.672-13.699
		c12.463-27.706,25.043-55.359,37.594-83.026c0.406-0.896,0.914-1.746,1.399-2.664c3.395-0.583,6.703-0.279,10.298-0.239
		c3.008,5.107,5.079,10.702,7.524,16.096c12.13,26.764,24.14,53.582,36.186,80.385c0.272,0.604,0.454,1.249,0.678,1.875
		c-0.564,1.381-1.785,1.174-2.899,1.178c-2.764,0.008-5.528-0.01-8.292-0.017c-3.777-8.278-7.554-16.557-11.426-25.045
		c-17.895,0-35.802,0-53.973,0C743.783,350.206,739.847,358.576,735.911,366.946z M752.234,330.953c15.47,0,29.932,0,44.908,0
		c-7.464-16.79-14.778-33.243-22.373-50.331C767.099,297.752,759.793,314.07,752.234,330.953z"/>
	<path style="fill:#F9BA37;" d="M1373.037,360.121c-0.275-2.455,1.81-3.426,3.148-4.767c25.382-25.446,50.805-50.852,76.219-76.267
		c10.825-10.825,21.65-21.649,32.474-32.474c1.399-1.399,2.626-3.118,5.013-2.633c-2.39,13.048-7.141,25.251-13.41,36.877
		c-0.923,1.712-2.172,3.23-2.497,5.217l0.087-0.108c-1.107,0.392-1.22,1.214-0.951,2.201c-5.077,6.613-9.957,13.378-15.434,19.68
		c-9.426,10.844-20.406,19.912-32.159,28.069c-14.676,10.186-30.62,17.81-47.65,23.19
		C1376.284,359.609,1374.731,360.163,1373.037,360.121z"/>
	<path style="fill:#37BFD4;" d="M1497.153,128.929c-1.339,0.118-2.643,0.211-3.685-0.953c-0.887-0.991-1.877-1.889-2.819-2.831
		c-33.081-33.081-66.163-66.16-99.241-99.245c-3.039-3.04-6.284-5.907-8.41-9.737c6.743,0.933,13.103,3.216,19.415,5.615
		c5.239,1.991,10.406,4.17,15.604,6.266c0,0-0.057-0.069-0.057-0.069c0.85,1.666,2.28,2.201,4.048,2.072
		c0,0-0.058-0.046-0.058-0.046c0.011,0.713,0.474,0.951,1.085,1.033l-0.078-0.064c0.3,0.88,1.067,0.992,1.829,1.114
		c11.064,6.76,20.994,14.938,29.947,24.283c10.826,11.301,20.072,23.772,27.769,37.434c5.794,10.283,10.364,21.051,14.074,32.218
		C1496.886,126.95,1496.966,127.957,1497.153,128.929z"/>
	<path style="fill:#2688AC;" d="M1218.908,335.122c-4.966-3.308-10.464-5.923-14.163-10.881c0.084-1.817,0.239-3.634,0.241-5.452
		c0.019-15.926,0.011-31.851,0.012-47.777c0-1.161,0.005-2.322,0.031-3.483c0.03-1.371,1.059-1.47,2.066-1.586
		c1.785,0.009,2.99,1.24,4.414,2.043c2.722,1.534,5.049,3.615,7.768,5.205c6.116,3.576,12.574,6.442,18.803,9.767
		c-1.977,1.098-1.046,2.976-1.053,4.478c-0.07,15.766-0.062,31.532-0.027,47.298c0.006,2.806,0.032,5.589-0.99,8.259
		c-3.71-0.442-6.323-3.657-10.079-3.982l0.073,0.059c-1.12-1.966-3.059-2.586-5.072-3.084l0.103,0.077
		C1220.661,334.993,1219.843,334.926,1218.908,335.122z"/>
	<path style="fill:#273069;" d="M946.938,366.961c-3.608-0.009-7.216-0.019-10.824-0.028c-0.066-1.993-0.188-3.985-0.189-5.978
		c-0.013-25.483-0.009-50.967-0.009-76.45c0-1.647,0-3.294,0-5.469c-11.099,0-21.986,0-32.906,0
		c-0.889-3.778-0.609-7.039-0.309-10.607c25.926,0,51.646,0,77.626,0c0.682,3.235,0.303,6.497,0.261,10.271
		c-11.079,0-21.972,0-32.69,0c-1.176,2.206-0.692,4.068-0.695,5.84c-0.039,25.65-0.023,51.3-0.038,76.95
		C947.165,363.314,947.018,365.137,946.938,366.961z"/>
	<path style="fill:#28A0BE;" d="M1207.095,265.944c-1.006,0.116-2.036,0.215-2.066,1.586c-0.026,1.161-0.031,2.322-0.031,3.483
		c-0.002,15.926,0.007,31.851-0.012,47.777c-0.002,1.817-0.157,3.634-0.241,5.452c-4.394-2.416-7.748-6.158-11.182-9.604
		c-6.495-6.516-12.72-13.348-18.107-20.864c-0.185-0.257-0.261-0.592-0.388-0.891c1.225-1.591,0.932-3.457,0.933-5.261
		c0.007-15.273,0.004-30.546,0.004-45.819c0-1.651,0-3.302,0-4.634c0.646-1.183,1.519-1.138,2.323-1.252
		c3.338,2.76,5.553,6.499,8.394,9.698c4.815,5.423,9.776,10.629,15.421,15.226C1203.923,262.291,1206.867,262.898,1207.095,265.944z
		"/>
	<path style="fill:#273069;" d="M907.762,366.88c-22.232,0.026-44.465,0.052-66.697,0.078c-0.079-1.157-0.225-2.314-0.226-3.472
		c-0.013-30.31-0.01-60.62-0.01-90.93c0-1.303,0-2.606,0-4.165c3.778,0,7.187,0,11.056,0c0,29.422,0,58.804,0,88.674
		c18.82,0,37.197,0,55.877,0C907.762,360.658,907.762,363.769,907.762,366.88z"/>
	<path style="fill:#2688AC;" d="M1473.088,142.018c2.392-0.54,3.613,1.189,5.007,2.583c7.276,7.277,14.557,14.55,21.828,21.833
		c1.402,1.404,2.649,3.077,5.02,2.584c1.944,14.069,1.246,28.066-1.153,42.016c-2.368,0.413-3.468-1.44-4.968-2.679
		c-1.845-1.524-2.87-4.152-5.718-4.357c-0.456-0.995,0.055-2.277-0.927-3.115c-0.784-14.745-4.723-28.681-10.797-42.069
		C1479.256,152.899,1476.061,147.513,1473.088,142.018z"/>
	<path style="fill:#EE8437;" d="M1332.995,349.036c0.314,1.834-0.538,3.11-1.82,4.338c-2.994,2.867-5.894,5.832-8.81,8.78
		c-1.14,1.152-2.656,2.11-2.391,4.093c-8.222,1.129-16.411,0.353-24.553-0.709c-4.867-0.634-9.745-1.419-14.469-2.873
		c-0.015-1.699,1.348-2.509,2.376-3.451c1.301-1.193,1.931-2.519,1.626-4.265c1.682-0.052,3.365-0.103,5.047-0.155
		c8.995,0.706,17.798-1.018,26.609-2.312C1322.121,351.673,1327.537,350.207,1332.995,349.036z"/>
	<path style="fill:#E45039;" d="M1284.954,354.949c0.305,1.746-0.325,3.072-1.626,4.265c-1.028,0.942-2.391,1.752-2.376,3.451
		c-18.121-3.825-35.009-10.819-50.994-20.047c-1.49-0.86-3.875-1.105-4.026-3.607c3.755,0.325,6.369,3.541,10.079,3.982
		c6.748,3.217,13.668,5.924,21.103,7.102c4.328,1.536,8.863,2.119,13.336,3.028C1275.256,354.101,1280.237,353.448,1284.954,354.949
		z"/>
	<path style="fill:#216B99;" d="M1493.104,203.998c2.848,0.205,3.874,2.832,5.718,4.357c1.499,1.239,2.6,3.093,4.968,2.679
		c-1.38,10.232-3.583,20.27-7.082,30.003c-1.822-0.523-3.574-1.441-5.569-1.001c0.68-6.039,1.36-12.078,2.04-18.117
		c1.757-4.172,0.418-8.543,0.789-12.806c0.09-1.04,0.499-2.313-0.786-3.066C1493.156,205.363,1493.13,204.68,1493.104,203.998z"/>
	<path style="fill:#1C5186;" d="M1491.139,240.036c1.995-0.44,3.747,0.477,5.57,1.001c-4.77,15.67-12.107,30.118-20.926,43.854
		c-0.387,0.603-0.668,1.607-1.799,1.184c0.325-1.988,1.574-3.505,2.497-5.217c6.27-11.626,11.021-23.829,13.41-36.877
		C1490.307,242.665,1490.723,241.35,1491.139,240.036z"/>
	<path style="fill:#273069;" d="M1508.025,84.381c-1.373,0.444-2,0.597-3.089-0.068c0-6.935,0-14.184,0-21.302
		c-2.988-1.759-6.285,0.24-8.923-1.73c2.779-1.837,15.929-2.079,20.276-0.359c-2.357,2.533-5.493,0.364-8.263,1.861
		C1508.025,69.759,1508.025,76.995,1508.025,84.381z"/>
	<path style="fill:#37BFD4;" d="M1169.057,84.022c-0.034,2.261-0.404,4.32-3.027,5.02
		C1166.195,86.86,1166.984,85.053,1169.057,84.022z"/>
	<path style="fill:#E45039;" d="M1220.932,335.986c2.013,0.498,3.951,1.118,5.072,3.084
		C1223.567,339.271,1221.937,338.142,1220.932,335.986z"/>
	<path style="fill:#C9D75D;" d="M1422.009,30.047c-1.769,0.129-3.198-0.406-4.048-2.072
		C1419.789,27.729,1421.127,28.443,1422.009,30.047z"/>
	<path style="fill:#C9D75D;" d="M1424.787,32.085c-0.762-0.121-1.529-0.234-1.829-1.114
		C1423.749,31.044,1424.714,30.831,1424.787,32.085z"/>
	<path style="fill:#1C5186;" d="M1473.12,288.168c-0.27-0.987-0.156-1.809,0.951-2.201
		C1474.494,287.02,1474.058,287.702,1473.12,288.168z"/>
	<path style="fill:#37BFD4;" d="M1171.155,80.901c-0.241,0.791-0.014,1.856-1.218,2.085
		C1169.883,82.022,1169.982,81.148,1171.155,80.901z"/>
	<path style="fill:#E45039;" d="M1218.908,335.122c0.935-0.197,1.753-0.13,2.127,0.941
		C1220.104,336.252,1219.35,336.04,1218.908,335.122z"/>
	<path style="fill:#C9D75D;" d="M1423.036,31.035c-0.611-0.083-1.074-0.32-1.085-1.033
		C1422.589,30.056,1423.032,30.315,1423.036,31.035z"/>
	<path style="fill:#37BFD4;" d="M1169.976,82.939c-0.06,0.588-0.178,1.128-0.947,1.113
		C1169.008,83.395,1169.245,82.957,1169.976,82.939z"/>
	<path style="fill:#273069;" d="M1212.9,143.027c1.089-13.426,4.149-26.482,8.606-39.104c3.076-8.712,7.686-16.853,12.319-24.894
		c2.559-3.995,5.021-8.198,7.952-11.772c3.918-4.777,7.984-9.626,12.725-13.702c3.239-2.785,5.901-6.226,9.614-8.465
		c0.157,0.054,0.359,0.062,0.464,0.167c11.64,11.571,23.26,23.163,34.927,34.707c1.175,1.162,1.693,2.389,1.477,3.978
		c-4.309,2.103-8.693,4.066-12.915,6.331c-29.416,15.775-50.779,38.973-64.162,69.575c-3.249,7.429-5.153,15.273-7.751,22.901
		c-1.891-7.351-2.883-14.837-3.112-22.409C1212.871,154.573,1212.94,148.798,1212.9,143.027z"/>
	<path style="fill:#2688AC;" d="M1347.97,13.141c0.029,2.346,2.036,3.32,3.383,4.671c22.963,23.028,45.973,46.01,68.952,69.023
		c1.271,1.273,2.796,2.345,3.69,4.161c-0.313,0.524-0.643,1.077-0.972,1.63c-12.705-6.693-25.841-12.222-39.964-15.229
		c-4.01-0.854-8.172-0.905-12.064-2.336c0.589-2.623-1.366-3.914-2.868-5.417c-15.663-15.677-31.345-31.335-46.989-47.03
		c-1.364-1.368-3.297-2.428-3.244-4.787C1327.643,14.495,1337.701,13.142,1347.97,13.141z"/>
	<path style="fill:#1C5186;" d="M1300.985,83.942c0.215-1.59-0.303-2.816-1.477-3.978c-11.668-11.543-23.287-23.135-34.927-34.707
		c-0.106-0.105-0.307-0.113-0.464-0.167c9.125-8.174,19.408-14.489,30.722-19.149c2.535,1.416,3.594,4.173,5.589,6.13
		c12.565,12.325,24.962,24.823,37.384,37.293c1.127,1.131,2.639,2.016,3.027,3.675c-0.863,1.763-3.091,0.076-3.856,1.764
		c-4.347,1.281-8.977,1.245-13.255,2.848c-1.62,0.281-3.284,0.412-4.852,0.87C1312.895,80.271,1306.946,82.126,1300.985,83.942z"/>
	<path style="fill:#216B99;" d="M1336.982,74.803c0.765-1.687,2.993-0.001,3.856-1.764c-0.388-1.66-1.9-2.544-3.027-3.675
		c-12.422-12.471-24.819-24.968-37.384-37.293c-1.995-1.957-3.054-4.714-5.589-6.13c7.247-3.95,14.999-6.463,23.055-8.114
		c-0.053,2.36,1.88,3.419,3.244,4.787c15.645,15.695,31.326,31.353,46.989,47.03c1.502,1.503,3.458,2.794,2.868,5.417
		c-6.443,0.294-12.772-1.229-19.229-1.107C1346.815,74.046,1341.953,75.37,1336.982,74.803z"/>
	<path style="fill:#273069;" d="M1332.995,349.036c-5.458,1.171-10.873,2.637-16.385,3.446c-8.811,1.294-17.613,3.018-26.609,2.312
		c0-20.083,0-40.166,0-60.765c3.556,0,6.677,0.088,9.79-0.04c1.395-0.057,3.029,0.708,4.162-0.814
		c5.681-0.906,11.486-1.078,17.015-2.881c2.106-0.442,4.248-0.76,6.314-1.345c44.119-12.479,75.358-39.733,93.808-81.714
		c3.205-7.293,4.958-15.048,7.662-22.494c1.094,6.289,2.554,12.532,2.34,18.987c-0.013,0.403,0.47,0.822,0.722,1.234
		c0.796,15.61-0.802,30.981-4.859,46.067c-1.443,5.367-3.29,10.625-4.953,15.933c-1.475,1.819-2.005,4.099-2.98,6.159
		c-16.914,35.737-44.034,60.254-81.095,73.872C1336.26,347.606,1334.399,347.778,1332.995,349.036z"/>
	<path style="fill:#EE8437;" d="M1422.003,266.962c1.663-5.308,3.509-10.566,4.953-15.933c4.057-15.086,5.655-30.456,4.859-46.067
		c2.253,0.34,3.2-1.516,4.439-2.75c13.446-13.392,26.85-26.826,40.282-40.233c1.384-1.381,2.535-3.178,4.845-3.166
		c6.074,13.388,10.013,27.324,10.797,42.069c-2.363,0.927-4.171,2.575-5.94,4.348c-19.812,19.856-39.652,39.683-59.492,59.511
		c-1.054,1.053-2.099,2.141-3.289,3.021C1422.874,268.193,1422.233,267.708,1422.003,266.962z"/>
	<path style="fill:#2688AC;" d="M1493.182,206.046c1.285,0.753,0.877,2.026,0.786,3.066c-0.371,4.263,0.968,8.634-0.789,12.806
		C1493.18,216.627,1493.181,211.337,1493.182,206.046z"/>
	<path style="fill:#E45039;" d="M1481.381,158.814c-2.31-0.012-3.461,1.785-4.845,3.166c-13.432,13.406-26.836,26.84-40.282,40.233
		c-1.239,1.234-2.186,3.09-4.439,2.75c-0.252-0.412-0.735-0.831-0.722-1.234c0.214-6.456-1.246-12.698-2.34-18.987
		c-1.68-7.408-3.868-14.636-6.708-21.71c-14.733-36.696-40.543-62.437-76.655-78.143c-7.02-3.053-14.432-4.852-21.661-7.237
		c4.278-1.603,8.908-1.567,13.255-2.848c4.971,0.567,9.832-0.757,14.782-0.85c6.458-0.121,12.786,1.401,19.229,1.107
		c3.893,1.431,8.054,1.482,12.064,2.336c14.123,3.007,27.259,8.536,39.964,15.229c12.207,7.719,23.598,16.41,33.349,27.172
		c6.26,6.909,11.585,14.483,16.717,22.221C1476.061,147.513,1479.256,152.899,1481.381,158.814z"/>
	<path style="fill:#4BB25E;" d="M1212.9,143.027c0.039,5.771-0.029,11.545,0.145,17.312c0.229,7.572,1.221,15.058,3.112,22.409
		c1.406,7.271,3.643,14.293,6.255,21.212c2.735,7.246,6.601,13.945,9.946,20.895c-2.835,0.849-4.24-1.243-5.863-2.865
		c-23.218-23.213-46.422-46.44-69.675-69.619c-1.347-1.342-2.289-3.42-4.693-3.344c-0.743-10.964,1.842-21.492,4.443-31.972
		c1.724-6.947,3.624-13.897,7.33-20.154c2.172,2.004,4.414,3.939,6.506,6.024c12.51,12.465,24.988,24.963,37.473,37.454
		C1209.283,141.783,1210.519,143.485,1212.9,143.027z"/>
	<path style="fill:#19A45F;" d="M1152.128,149.029c2.404-0.076,3.346,2.001,4.693,3.344c23.252,23.179,46.457,46.405,69.675,69.619
		c1.623,1.622,3.027,3.714,5.863,2.865c4.981,7.654,10.27,15.056,16.381,21.887c17.838,19.94,39.581,33.626,65.182,41.275
		c2.363,0.706,4.932,0.8,7.048,2.275c-5.529,1.803-11.334,1.975-17.015,2.881c-1.16-0.016-2.319-0.044-3.479-0.047
		c-9.285-0.023-18.574,0.382-27.818-1.068c-4.549-0.713-9.012-2.05-13.67-2.036c-6.969-2.355-13.938-4.71-20.906-7.065
		c-6.229-3.326-12.687-6.192-18.803-9.767c-2.719-1.59-5.045-3.671-7.768-5.205c-1.423-0.802-2.629-2.034-4.414-2.043
		c-0.228-3.046-3.172-3.653-4.954-5.104c-5.644-4.597-10.605-9.802-15.421-15.226c-2.84-3.199-5.056-6.938-8.394-9.698
		c-3.833-6.724-8.105-13.175-11.545-20.152c-6.294-12.768-10.588-26.074-12.946-40.118
		C1152.349,166.793,1151.696,157.966,1152.128,149.029z"/>
	<path style="fill:#216B99;" d="M1238.08,282.959c6.969,2.355,13.938,4.71,20.906,7.065c-2.382-0.031-1.982,1.704-1.979,3.154
		c0.031,18.973,0.069,37.945,0.106,56.918c-7.434-1.178-14.354-3.885-21.103-7.102c1.023-2.671,0.997-5.453,0.99-8.259
		c-0.035-15.766-0.044-31.532,0.027-47.298C1237.034,285.935,1236.102,284.057,1238.08,282.959z"/>
	<path style="fill:#1C5186;" d="M1257.113,350.096c-0.037-18.973-0.075-37.945-0.106-56.918c-0.002-1.45-0.403-3.185,1.979-3.154
		c4.658-0.014,9.121,1.323,13.67,2.036c9.244,1.449,18.534,1.044,27.818,1.068c1.16,0.003,2.319,0.031,3.479,0.047
		c-1.133,1.522-2.768,0.757-4.162,0.814c-3.112,0.128-6.234,0.04-9.79,0.04c0,20.599,0,40.682,0,60.765
		c-1.682,0.052-3.365,0.103-5.047,0.155c-4.717-1.502-9.698-0.848-14.506-1.825C1265.975,352.215,1261.441,351.632,1257.113,350.096
		z"/>
</g>
</svg>
