<?xml version="1.0" encoding="iso-8859-1"?>
<!-- Generator: Adobe Illustrator 27.0.0, SVG Export Plug-In . SVG Version: 6.00 Build 0)  -->
<svg version="1.1" id="Layer_1" xmlns="http://www.w3.org/2000/svg" xmlns:xlink="http://www.w3.org/1999/xlink" x="0px" y="0px"
	 viewBox="0 0 1600 1600" style="enable-background:new 0 0 1600 1600;" xml:space="preserve">
<g>
	<path style="fill:#FDD60C;" d="M839.056,0.932c6.94,1.722,14.198,0.098,21.128,2.004c0.777,0.214,1.659,0.076,2.491,0.056
		c6.819-0.158,13.515,0.626,20.246,1.816c4.521,0.799,9.238,0.392,13.89,0.992c14.288,1.841,28.573,3.7,42.728,6.363
		c19.708,3.709,39.372,7.627,58.806,12.656c26.982,6.983,53.566,15.19,79.718,24.839c28.531,10.526,56.396,22.582,83.513,36.317
		c40.119,20.32,78.311,43.793,114.493,70.539c16.066,11.876,31.51,24.516,46.919,37.21c0.489,0.403,0.837,0.976,1.559,1.839
		c-37.812,37.651-75.523,75.2-113.496,113.011c-5.88-4.58-11.495-8.963-17.12-13.334c-20.111-15.626-41.012-30.097-62.888-43.157
		c-30.723-18.341-62.574-34.416-95.876-47.524c-31.832-12.53-64.414-22.625-97.898-29.809c-18.176-3.9-36.447-7.205-54.874-9.528
		c-8.219-1.036-16.557-1.533-24.77-2.47c-12.732-1.453-25.494-1.77-38.231-2.376c-14.788-0.703-29.635-0.917-44.44,0.311
		c-1.824,0.151-3.664,0.115-5.496,0.155c-15.474,0.332-30.83,1.935-46.172,3.915c-11.683,1.507-23.357,2.938-34.97,5.008
		c-17.968,3.203-35.732,7.235-53.386,11.807c-37.202,9.635-73.073,22.906-107.83,39.282c-42.427,19.99-82.175,44.335-119.238,73.047
		c-15.796,12.237-30.91,25.272-45.522,38.928c-16.33,15.261-31.926,31.217-46.534,48.094c-25.525,29.488-48.228,61.048-68.04,94.667
		c-24.8,42.083-44.441,86.45-59.051,133.054c-7.843,25.018-14.123,50.415-18.797,76.219c-1.834,10.123-3.462,20.274-4.835,30.463
		c-1.17,8.681-1.971,17.412-3.004,26.112c-2.87,24.181-2.083,48.46-2.021,72.721c0.026,10.323,0.448,20.677,1.22,30.918
		c0.831,11.024,2.032,22.089,3.466,33.1c1.586,12.181,3.159,24.362,5.379,36.435c6.035,32.818,14.368,65.041,25.381,96.566
		c10.529,30.14,23.142,59.369,38.034,87.6c19.682,37.312,42.741,72.422,69.244,105.256c1.867,2.313,4.175,4.296,5.667,7.645
		c-37.622,37.455-75.331,74.996-113.382,112.878c-4.769-5.52-9.46-10.655-13.825-16.054c-18.103-22.388-35.198-45.522-50.911-69.658
		c-19.337-29.703-36.741-60.503-52.038-92.476c-17.429-36.429-31.908-74.02-43.744-112.621
		c-7.243-23.622-13.238-47.582-18.236-71.769c-3.658-17.699-6.83-35.515-9.075-53.451c-1.773-14.164-3.579-28.334-4.467-42.611
		c-0.578-9.287-1.334-18.568-1.849-27.863c-0.025-7.463-0.053-14.927-0.068-22.39C0.853,814.943,0.594,814.396,0,814
		c0-14.333,0-28.667,0-43c0.864-0.464,0.928-1.26,0.926-2.119c-0.011-4.65-0.001-9.3,0.002-13.95
		c0.38-5.601-0.009-11.195,0.912-16.83c1.303-7.979,1.097-16.152,2.217-24.193c1.191-8.546,1.926-17.159,3.233-25.685
		c2.009-13.106,4.116-26.196,6.614-39.226c4.527-23.614,10.11-46.968,16.723-70.073c7.943-27.752,17.469-54.96,28.385-81.692
		c10.994-26.924,23.406-53.181,37.373-78.668c19.594-35.757,41.628-69.949,66.401-102.386c18.609-24.366,38.49-47.613,59.645-69.774
		c18.409-19.285,37.958-37.366,58.175-54.753c23.743-20.42,48.74-39.157,74.668-56.675c33.934-22.927,69.535-42.882,106.705-60.095
		c32.553-15.075,65.807-28.267,100.09-38.872c20.116-6.223,40.45-11.564,60.977-16.253c16.329-3.73,32.756-6.903,49.276-9.597
		c9.657-1.575,19.364-2.869,29.077-4.063c7.745-0.952,15.551-1.405,23.296-2.358c12.714-1.565,25.471-2.371,38.264-2.773
		c8.647-0.01,17.294-0.025,25.941-0.023c0.862,0,1.656-0.056,2.102-0.94c6.667,0,13.333,0,20,0c0.483,0.852,1.284,0.889,2.14,0.889
		C821.779,0.894,830.418,0.916,839.056,0.932z"/>
	<path style="fill:#457CBF;" d="M761.932,1599.094c-9.155,0.043-18.321-0.633-27.395-1.357c-10.514-0.839-21.067-1.978-31.561-3.441
		c-10.011-1.396-20.037-2.692-30.031-4.228c-14.901-2.29-29.686-5.191-44.417-8.363c-28.51-6.14-56.587-13.898-84.212-23.223
		c-18.37-6.201-36.499-13.088-54.391-20.571c-22.686-9.488-44.758-20.285-66.453-31.826c-31.575-16.797-61.87-35.669-90.757-56.786
		c-14.364-10.5-28.375-21.448-42.203-32.638c-0.773-0.625-1.587-1.215-1.733-1.839c37.802-37.869,75.441-75.574,113.246-113.446
		c117.925,91.638,251.949,139.159,401.978,138.365c149.946-0.793,283.078-50.44,400.168-142.89
		c37.832,37.754,75.545,75.388,113.469,113.234c-4.577,3.831-9.47,8.071-14.514,12.123c-20.873,16.769-42.449,32.57-64.885,47.199
		c-17.542,11.438-35.44,22.279-53.796,32.353c-28.549,15.667-58.006,29.442-88.25,41.485c-35.123,13.986-70.992,25.728-107.814,34.4
		c-19.177,4.516-38.447,8.583-57.953,11.517c-14.75,2.218-29.463,4.564-44.322,6.056c-12.2,1.225-24.388,2.32-36.63,3.029
		c-5.14,0.298-10.279,0.646-15.428,0.819c-6.639,0.015-13.278,0.035-19.917,0.037c-0.856,0-1.655,0.04-2.131,0.898
		c-11.333,0-22.667,0-34,0c-0.474-0.856-1.272-0.914-2.129-0.912C771.225,1599.1,766.579,1599.094,761.932,1599.094z"/>
	<path style="fill:#4CBA78;" d="M1599.089,837.063c-0.699,10.785-1.093,21.6-2.177,32.346c-1.212,12.017-2.219,24.054-3.848,36.038
		c-5.564,40.944-13.941,81.265-25.624,120.915c-11.085,37.619-24.93,74.164-41.364,109.768
		c-18.361,39.781-40.087,77.638-64.6,113.907c-14.258,21.097-29.678,41.343-45.879,60.991c-1.899,2.303-3.778,4.623-6.051,7.407
		c-37.9-37.974-75.583-75.731-113.459-113.681c4.389-5.794,8.434-11.258,12.609-16.621c12.577-16.159,24.035-33.091,34.83-50.475
		c18.7-30.114,34.944-61.502,48.376-94.313c12.646-30.889,23.009-62.544,30.713-95.023c4.362-18.39,8.16-36.917,10.474-55.703
		c1.111-9.019,2.081-18.066,3.133-27.08c3.029-25.947,4.424-51.931,3.466-77.999c-0.44-11.958-0.392-23.958-1.725-35.882
		c-1.966-17.58-3.174-35.248-6.094-52.715c-5.035-30.119-11.857-59.819-20.908-88.997c-11.337-36.548-25.905-71.776-43.539-105.714
		c-18.213-35.051-39.578-68.104-63.908-99.231c-0.817-1.045-1.583-2.129-2.157-2.903c37.694-37.828,75.277-75.544,113.106-113.507
		c3.583,3.282,6.475,7.303,9.537,11.121c23.021,28.708,44.11,58.777,62.93,90.408c19.305,32.448,36.481,65.992,50.991,100.86
		c16.592,39.869,30.024,80.782,40.05,122.804c5.198,21.783,9.419,43.76,12.834,65.88c1.822,11.804,3.197,23.68,4.441,35.574
		c1.869,17.868,3.261,35.751,3.83,53.703c0.011,7.809,0.025,15.619,0.029,23.428c0,0.725,0.278,1.265,0.895,1.636
		c0,6.333,0,12.667,0,19c-0.595,0.396-0.857,0.942-0.858,1.664C1599.132,822.13,1599.109,829.596,1599.089,837.063z"/>
	<path style="fill:#FFE27D;" d="M762.957,0.963C763.132,0.649,763.146,0.328,763,0c9.333,0,18.667,0,28,0
		c-0.446,0.884-1.24,0.94-2.102,0.94C780.251,0.939,771.604,0.953,762.957,0.963z"/>
	<path style="fill:#FFE795;" d="M839.056,0.932c-8.639-0.017-17.277-0.038-25.916-0.043C812.284,0.889,811.483,0.852,811,0
		c9.333,0,18.667,0,28,0C838.912,0.317,838.931,0.628,839.056,0.932z"/>
	<path style="fill:#A8D7B4;" d="M1600,794c-0.616-0.371-0.894-0.911-0.895-1.636c-0.004-7.809-0.018-15.619-0.029-23.428
		c0.302,0.1,0.61,0.122,0.924,0.064C1600,777.333,1600,785.667,1600,794z"/>
	<path style="fill:#B2DCBB;" d="M1599.089,837.063c0.02-7.466,0.043-14.933,0.053-22.399c0.001-0.722,0.263-1.268,0.858-1.664
		c0,8,0,16,0,24l-0.458-0.012L1599.089,837.063z"/>
	<path style="fill:#FFE9A1;" d="M0,814c0.594,0.396,0.853,0.943,0.855,1.664c0.015,7.463,0.043,14.927,0.068,22.39l-0.458-0.082
		L0,838C0,830,0,822,0,814z"/>
	<path style="fill:#A3B6DE;" d="M812,1600c0.476-0.858,1.275-0.897,2.131-0.898c6.639-0.002,13.278-0.022,19.917-0.037
		c-0.1,0.307-0.116,0.619-0.048,0.935C826.667,1600,819.333,1600,812,1600z"/>
	<path style="fill:#FFE58B;" d="M0,755c0.316,0.071,0.625,0.048,0.928-0.069c-0.003,4.65-0.012,9.3-0.002,13.95
		C0.928,769.74,0.864,770.536,0,771C0,765.667,0,760.333,0,755z"/>
	<path style="fill:#A3B6DE;" d="M761.932,1599.094c4.646,0,9.293,0.006,13.939-0.006c0.856-0.002,1.655,0.056,2.129,0.912
		c-5.333,0-10.667,0-16,0C762.042,1599.693,762.02,1599.391,761.932,1599.094z"/>
	<path style="fill:#010101;" d="M544.119,1167.715c0-245.211,0-490.153,0-735.405c170.448,0,340.844,0,511.561,0
		c0,49.882,0,99.925,0,150.341c-108.003,0-215.934,0-324.169,0c0,45.27,0,90.168,0,135.468c92.034,0,183.946,0,276.174,0
		c0,51.962,0,103.525,0,155.482c-91.915,0-183.84,0-276.121,0c0,47.588,0,94.784,0,142.302c108.02,0,215.946,0,324.154,0
		c0,50.722,0,101.124,0,151.811C885.383,1167.715,714.987,1167.715,544.119,1167.715z"/>
</g>
</svg>
