<?xml version="1.0" encoding="iso-8859-1"?>
<!-- Generator: Adobe Illustrator 27.0.0, SVG Export Plug-In . SVG Version: 6.00 Build 0)  -->
<svg version="1.1" id="Layer_1" xmlns="http://www.w3.org/2000/svg" xmlns:xlink="http://www.w3.org/1999/xlink" x="0px" y="0px"
	 viewBox="0 0 1592 584" style="enable-background:new 0 0 1592 584;" xml:space="preserve">
<g>
	<path style="fill:#66308D;" d="M532.159,375.506c-1.72-0.475-3.441-0.949-5.161-1.424c-1.504-1.054-3.308-1.282-5.002-1.812
		c-1.976-0.768-3.952-1.535-5.928-2.303c-1.824-1.392-3.806-2.469-6.047-3.03c-4.034-2.538-8.155-4.949-12.084-7.641
		c-7.809-5.35-14.937-11.501-21.132-18.694c-0.524-0.608-1.226-1.064-1.845-1.59c-3.935-5.359-7.87-10.718-11.806-16.077
		c-1.014-2.527-2.388-4.841-4.103-6.954c-1.023-2.825-2.254-5.545-4.037-7.986c-1.084-2.664-2.168-5.329-3.252-7.993
		c-3.753-10.788-6.699-21.787-8.223-33.16c-56.609,0-112.837,0-168.99,0c-0.937,1.586-0.623,3.137-0.426,4.555
		c2.584,18.663,12.115,32.452,29.234,40.559c11.949,5.658,24.549,5.313,37.124,2.659c8.093-1.708,14.551-6.307,19.636-12.827
		c1.629-2.088,3.32-4.128,4.901-6.088c8.37-0.877,79.154-0.52,82.765,0.415c-0.405,1.246-0.81,2.492-1.215,3.738
		c-4.489,9.709-9.828,18.941-15.666,27.893c-1.93,1.848-3.424,4.034-4.851,6.271c-0.861,0.295-1.181,1.042-1.497,1.792
		c-1.028,0.759-1.803,1.715-2.256,2.919c-2.838,2.004-5.16,4.531-7.315,7.227c-1.677,0.869-2.964,2.182-4.13,3.633
		c-7.427,5.525-14.984,10.832-23.249,15.089c-6.343,3.267-13.116,5.357-19.781,7.761c-1.582,0.59-3.414,0.391-4.825,1.523
		c-2.794,0.135-5.441,0.865-7.999,1.961c-1.729,0.085-3.529-0.274-5.1,0.81c-8.481,1.327-17.056,1.375-25.599,1.789
		c-4.425,0.215-8.853-0.75-13.302-0.287c-1.333-0.046-2.666-0.091-3.999-0.137c-7.334-1.358-14.668-2.717-22.001-4.075
		c-1.424-1.131-3.214-1.044-4.853-1.46c-14.414-4.655-27.855-11.227-40.036-20.291c-0.652-0.485-1.387-0.856-2.084-1.28
		c-1.731-2-3.84-3.544-6.025-4.996c-5.495-4.891-10.128-10.599-15.133-15.954c-1.503-2.157-2.754-4.506-4.789-6.254
		c-4.727-8.179-9.64-16.235-13.091-25.108c-4.981-12.803-7.653-26.088-9.092-39.679c-0.051-1.667-0.103-3.334-0.154-5.001
		c0.007-3.666,0.014-7.331,0.021-10.997c0.036-1.667,0.073-3.335,0.109-5.002c1.046-8.402,1.954-16.826,4.128-25.027
		c-3.693-1.041-86.436-1.443-96.715-0.471c0,50.995,0,102.042,0,152.496c-1.141,1.347-2.024,1.133-2.818,1.134
		c-30.992,0.011-61.985,0.009-92.977,0.001c-0.497,0-0.994-0.086-1.491-0.131C0,244,0,122,0,0c72,0,144,0,216,0
		c0.059,0.662,0.171,1.323,0.171,1.985c0.009,25.493,0.011,50.985-0.002,76.478c0,0.969,0.218,1.993-0.762,3.388
		c-39.038,0-78.427,0-117.96,0c0,17.559,0,34.609,0,52.149c36.362,0,72.421,0,108.923,0c0,15.748,0,31.01,0,46.556
		c1.683-1.015,2.029-2.376,2.719-3.479c6.77-10.825,15.09-20.309,25.029-28.295c16.629-13.36,35.504-21.93,56.438-26.055
		c23.53-4.636,46.993-4.337,70.255,1.369c21.227,5.207,40.056,15.014,55.572,30.72c13.566,13.733,23.036,29.964,29.647,47.986
		c0.695,1.894,0.863,4.084,2.627,5.661c0.28-1.165,0.439-2.155,0.755-3.092c8.291-24.565,21.948-45.473,42.66-61.327
		c22.997-17.603,49.153-24.956,78.002-23.299c23.947,1.375,44.614,9.737,60.918,27.786c0.472,0.522,0.899,1.462,2.153,0.78
		c0-0.884,0-1.873,0-2.862c0-47.82,0.002-95.639-0.005-143.459c0-0.997-0.091-1.993-0.14-2.99c28.667,0,57.333,0,86,0
		c0,121.982,0,243.965,0,365.947c-3.323,0.065-6.647,0.185-9.97,0.187c-23.303,0.016-46.606,0.009-69.91,0.009
		c-1.805,0-3.61,0-5.807,0c-0.126-6.277-0.245-12.21-0.365-18.143c0.261-1.65,0.427-3.288-0.44-5.63
		c-2.451,3.28-4.456,5.963-6.46,8.645c-5.837,5.488-11.44,11.244-18.139,15.738c-1.825,0.735-3.62,1.52-5.038,2.95
		c-1.79,0.47-3.392,1.319-4.87,2.418c-2.266,0.594-4.406,1.485-6.403,2.713c-4.319,1.049-8.604,2.28-12.965,3.112
		c-13.17,2.514-26.323,1.929-39.434-0.579C536.852,376.747,534.506,376.127,532.159,375.506z M583.853,310.357
		c17.762,0.275,32.659-10.684,40.202-27.195c3.629-7.943,5.489-16.283,6.258-24.983c1.418-16.064-0.481-31.619-7.506-46.162
		c-10.057-20.818-27.857-28.467-48.777-25.722c-16.291,2.138-27.877,11.682-35.347,26.264c-4.445,8.676-6.922,17.859-8.062,27.546
		c-2.126,18.061,1.127,34.815,11.719,49.736C551.911,303.324,565.003,310.503,583.853,310.357z M368.624,213.398
		c-4.502-27.235-26.633-40.392-51.198-38.159c-22.951,2.086-39.166,22.734-39.987,38.159
		C307.824,213.398,338.202,213.398,368.624,213.398z"/>
	<path style="fill:#F26822;" d="M719,365.947c0-121.982,0-243.965,0-365.947c67.667,0,135.333,0,203,0
		c0.036,26.498,0.075,52.996,0.099,79.493c0.001,0.632-0.155,1.264-0.297,2.345c-38.855,0-77.589,0-116.541,0
		c0,17.417,0,34.363,0,51.771c38.709,0,77.448,0,116.521,0c0,26.325,0,52.19,0,78.533c-38.833,0-77.565,0-116.518,0
		c0,24.225,0,47.975,0,72.219c38.951,0,77.686,0,116.635,0c0,27.413,0,54.333,0,81.234c-1.26,0.935-2.638,0.527-3.917,0.527
		c-65.333,0.023-130.666,0.021-195.999,0.013C720.989,366.134,719.994,366.012,719,365.947z"/>
	<path style="fill:#67328E;" d="M1053.513,468.165c1.877,2.945,3.755,5.89,5.632,8.834c0.772,2.216,1.422,4.482,2.667,6.504
		c-0.032,1.612,0.478,3.08,1.188,4.496c0.112,0.73,0.224,1.461,0.336,2.191c0.247,1.27,0.494,2.539,0.741,3.809
		c-0.097,1.728-0.285,3.464,0.414,5.128c0.779,14.852-2.423,28.565-11.603,40.569c-1.338,0.807-2.393,1.911-3.312,3.158
		c-5.071,3.637-10.518,6.506-16.574,8.134c-1.404-0.084-2.807-0.157-4.134,0.457c-7.044,0.826-13.843-0.275-20.484-2.608
		c-1.749-1.07-3.499-2.141-5.248-3.211c-1.179-1.41-2.474-2.692-4.054-3.656c-1.192-1.531-2.385-3.062-3.91-5.021
		c0,2.159,0,3.605,0,5.051c-0.057,14-0.113,28-0.17,41.999c-3.667,0-7.333,0-11,0c-0.078-0.325-0.155-0.65-0.233-0.975
		c0.061-1.324,0.175-2.648,0.175-3.972c-0.003-35.051-0.018-70.102-0.031-105.153c-0.002-5.115,0-10.229,0-15.817
		c3-0.579,6.389-0.064,9.868-0.225c0.339,2.289,0.624,4.22,0.91,6.152c-0.162,1.937-0.287,3.871,0.384,6.054
		c2.161-1.789,3.47-4.007,4.986-6.045c12.66-9.981,26.438-10.92,41.052-5.069c0.915,0.366,1.824,0.745,2.736,1.119
		C1047.117,462.711,1050.629,465.063,1053.513,468.165z M1022.782,464.889c-11.749,0.041-19.629,5.127-23.948,16.029
		c-5.548,14.003-5.223,28.361-0.998,42.535c4.787,16.06,17.481,21.041,32.47,17.848c10.428-2.221,16.343-9.816,19.589-19.458
		c4.047-12.025,3.868-24.276,0.052-36.283C1045.781,472.451,1036.383,464.543,1022.782,464.889z"/>
	<path style="fill:#68338F;" d="M1592,550c-3.417-0.815-6.932,0.053-10.278-0.497c-1.373-1.116-0.843-2.551-0.851-3.801
		c-0.106-15.983-0.128-31.967-0.261-47.95c-0.033-3.987-0.133-8.004-0.638-11.952c-2.163-16.901-12.812-22.935-27.995-20.431
		c-11.146,1.838-16.951,9.651-19.985,19.917c-1.808,6.119-2.141,12.416-2.127,18.755c0.029,13.322,0.009,26.645,0.009,39.967
		c0,1.655,0,3.311,0,5.111c-3.596,1.051-7.016,0.293-10.866,0.581c-0.635-30.626,0.604-60.852-0.891-91.293
		c3.53-1.062,6.953-0.379,10.513-0.503c1.359,3.906-0.492,8.115,1.644,12.011c3.886-5.19,8.365-9.536,14.446-11.8
		c9.894-3.684,19.918-3.656,29.763-0.11c10.16,3.661,14.626,11.92,16.477,21.994c0.189,1.031-0.52,2.428,1.039,3.001
		c0,0.667,0,1.333,0,2c-1.52,0.612-0.978,1.939-0.979,3.013c-0.021,19.328-0.023,38.657,0.009,57.985
		c0.002,1.05-0.583,2.406,0.97,3.002C1592,549.333,1592,549.667,1592,550z"/>
	<path style="fill:#815CA2;" d="M1592,549c-1.552-0.597-0.968-1.952-0.97-3.002c-0.033-19.328-0.03-38.657-0.009-57.985
		c0.001-1.074-0.541-2.401,0.979-3.013C1592,506.333,1592,527.667,1592,549z"/>
	<path style="fill:#F26822;" d="M1236.854,134.068c-34.472,38.743-68.405,76.879-102.655,115.373
		c34.609,38.792,69.042,77.387,103.909,116.469c-36.803,0-72.888,0-109.523,0c-16.401-18.447-33.092-37.22-50.23-56.496
		c-17.263,18.768-33.514,38.047-50.495,56.594c-34.99,0-69.796,0-105.564,0c34.649-38.906,68.809-77.261,103.172-115.846
		c-34.376-38.739-68.484-77.177-103.074-116.156c36.893,0,72.858,0,109.103,0c16.779,18.527,33.644,37.149,50.847,56.144
		c16.522-18.81,32.834-37.382,49.26-56.082C1166.341,134.068,1201.101,134.068,1236.854,134.068z"/>
	<path style="fill:#68338F;" d="M723.05,474c-0.943,6.335-0.709,12.668,0.031,19c-0.163,1.403-0.27,2.802,0.363,4.135
		c0.504,2.305,0.067,4.787,1.313,6.952c0.125,1.713,0.177,3.446,1.261,4.913c-0.141,1.934,0.967,3.457,1.679,5.11
		c2.797,8.05,7.223,14.929,14.298,19.906c0.332,0.796,1.013,1.016,1.787,1.084c1.432,1.518,3.292,2.264,5.218,2.889
		c11.985,6.491,33.467,4.969,43.262-8.659c0.479-0.667,0.84-1.42,1.255-2.133c1.125-1.571,1.916-3.286,2.245-5.201
		c0.32-1.198,0.848-2.047,2.328-2.021c3.599,0.063,7.199,0.021,11.069,0.021c-0.649,5.659-3.123,10.032-5.998,14.233
		c-3.424,5.003-8.23,8.469-13.163,11.791c-2.214,0.683-4.339,1.562-6.277,2.854c-12.57,3.864-25.144,3.396-37.719,0.027
		c-1.166-0.965-2.582-1.349-4.005-1.713c-9.101-4.351-16.237-10.933-21.848-19.246c-2.789-5.136-4.729-10.637-6.901-16.038
		c-0.202-1.346-0.168-2.757-1.082-3.906c-0.122-1.397,0.129-2.869-0.82-4.101c-0.498-4.299-0.995-8.598-1.493-12.898
		c0.211-1.672,0.232-3.34-0.093-5.002c0.162-7.349,0.225-14.704,1.331-21.995c1.045-1.518,1.003-3.274,1.099-5
		c2.391-7.235,5.006-14.374,8.923-20.959c1.302-1.679,2.604-3.358,3.906-5.038c3.064-2.791,6.127-5.581,9.191-8.372
		c1.448-0.713,2.972-1.298,4.135-2.485c5.323-2.274,10.682-4.299,16.47-5.252c14.311-2.355,27.712-0.469,39.952,7.696
		c1.398,1.17,2.796,2.34,4.194,3.51c4.807,5.534,8.741,11.522,10.231,19.146c-4.277,0.761-8.216,0.307-12.129,0.352
		c-1.78-1.555-1.271-4.152-2.853-5.68c-0.769-2.443-2.091-4.506-4.162-6.053c-1.972-2.927-4.794-4.715-8.007-5.979
		c-1.112-1.127-2.54-1.532-4.042-1.765c-8.679-3.5-17.343-2.981-25.997,0.099c-2.191,0.57-4.296,1.333-6.123,2.72
		c-4.256,2.024-7.71,4.999-10.445,8.825c-1.323,1.11-2.229,2.523-2.957,4.067c-1.675,2.053-2.97,4.304-3.598,6.903
		c-1.576,1.794-1.976,4.08-2.615,6.265c-0.84,2.226-1.48,4.503-1.767,6.87C723.743,467.21,722.696,470.505,723.05,474z"/>
	<path style="fill:#693590;" d="M1304.548,549.502c-3.468,0-6.593,0-9.995,0c-1.44-3.516-1.456-7.311-1.707-11.214
		c-0.586,0.282-1.173,0.372-1.415,0.709c-5.89,8.196-14.275,11.681-23.954,12.5c-8.408,0.711-16.465-0.337-24.197-4.286
		c-17.263-8.816-17.334-35.113-1.584-45.01c8.579-5.391,18.151-7.333,28.017-7.891c6.949-0.393,13.938-0.076,21.469-0.076
		c0.228-7.152,0.632-13.878-2.255-20.281c-2.837-6.292-8.345-8.877-14.704-9.698c-4.09-0.528-8.237-0.507-12.397,0.436
		c-7.673,1.74-12.185,6.341-13.825,13.931c-0.172,0.797-0.346,1.593-0.543,2.502c-3.513,1.102-6.987,0.235-10.938,0.677
		c-0.443-6.421,1.562-11.632,5.374-16.207c4.733-5.679,11.251-8.112,18.245-9.414c8.305-1.546,16.589-0.91,24.77,0.922
		c8.77,1.964,14.335,7.329,16.431,16.157c0.888,3.739,1.339,7.518,1.348,11.368c0.036,14.663,0.134,29.325,0.19,43.988
		C1302.904,535.445,1304.001,542.185,1304.548,549.502z M1291.177,502.972c-10.083-1.292-19.462-0.543-28.805,0.997
		c-3.62,0.597-7.068,1.765-10.306,3.505c-7.41,3.982-10.508,10.386-9.977,18.55c0.5,7.685,5.801,13.614,13.626,15.991
		c4.565,1.387,9.218,1.462,13.824,0.845c10.426-1.396,17.264-7.288,20.144-17.41
		C1291.747,518.198,1291.492,510.735,1291.177,502.972z"/>
	<path style="fill:#68338F;" d="M1160.888,482.033c2.64,8.413,3.909,17.011,3.498,25.837c-0.513,3.71-1.025,7.419-1.538,11.129
		c-0.945,2.667-1.891,5.334-2.836,8.001c-2.196,3.606-4.393,7.213-6.589,10.819c-1.465,1.424-2.929,2.847-4.394,4.271
		c-4.499,3.618-9.633,6.038-15.028,7.967c-8.839,2.191-17.653,1.768-26.451-0.261c-1.979-1.403-4.337-1.896-6.551-2.736
		c-8.468-5.07-14.656-12.132-18.533-21.213c-0.705-1.993-1.409-3.986-2.114-5.978c-0.341-1.982-0.388-4.033-1.362-5.869
		c0.04-1.728,0.215-3.469-0.482-5.128c0.015-3.582,0.03-7.163,0.045-10.745c0.673-5.803,1.913-11.475,3.905-16.975
		c2.229-3.907,4.459-7.814,6.688-11.722c1.348-1.327,2.697-2.653,4.045-3.98c0.745-0.329,1.484-0.665,1.786-1.516
		c3.818-2.933,8.227-4.765,12.56-6.738c7.024-1.307,14.052-2.671,21.221-1.147c3.074,0.653,6.12,1.436,9.18,2.159
		c3.994,1.714,7.586,4.094,11.061,6.668c1.483,1.431,2.966,2.862,4.45,4.293C1156.201,473.301,1158.703,477.576,1160.888,482.033z
		 M1152.4,502.2c-0.127-8.116-1.862-15.346-5.175-22.213c-9.962-20.647-39.063-20.829-50.095-2.84
		c-4.017,6.549-6.065,13.691-6.69,21.183c-0.932,11.158,0.688,21.953,6.745,31.635c11.27,18.012,37.818,17.654,48.782-0.553
		C1150.752,521.465,1152.464,512.774,1152.4,502.2z"/>
	<path style="fill:#68338F;" d="M1440.363,457.011c5.832-0.958,11.64-2.021,17.615-1.446c6.62,0.638,12.765,2.771,18.738,5.54
		c2.417,1.995,4.834,3.99,7.251,5.986c1.615,1.993,3.23,3.987,4.846,5.98c1.993,4.167,3.987,8.334,5.98,12.501
		c-0.04,1.566,0.121,3.086,1.037,4.428c0.153,1.729-0.08,3.516,0.783,5.136c0.387,5.575,0.482,11.15-0.022,16.724
		c-0.854,1.623-0.583,3.415-0.776,5.137c-0.67,2.31-1.341,4.62-2.011,6.93c-1.667,3.333-3.333,6.666-5,9.999
		c-1.613,1.993-3.226,3.986-4.839,5.979c-3.016,2.298-6.033,4.596-9.049,6.894c-7.217,3.045-14.641,5.11-22.572,4.774
		c-12.932-0.548-23.619-5.642-31.831-15.738c-1.074-1.654-2.148-3.308-3.222-4.961c-0.203-1.091-0.666-2.055-1.417-2.876
		c-0.459-1.838-1.099-3.602-2.117-5.213c-0.141-0.24-0.259-0.491-0.354-0.752c-0.331-1.396-0.064-2.946-1.076-4.165
		c-0.131-0.624-0.261-1.247-0.392-1.871c0.15-0.763,0.132-1.503-0.286-2.192c-0.961-6.555-0.726-13.124-0.223-19.695
		c0.661-3.05,1.321-6.101,1.982-9.151c0.089-0.262,0.202-0.515,0.338-0.756c0.71-1.735,1.421-3.471,2.131-5.206
		c0.756-0.821,1.211-1.789,1.399-2.885c1.079-1.65,2.158-3.3,3.236-4.951c1.5-1.712,2.999-3.423,4.499-5.135
		c2.077-1.646,4.153-3.292,6.23-4.938c1.886-0.129,3.036-1.799,4.759-2.272C1437.527,458.393,1439.219,458.364,1440.363,457.011z
		 M1422.866,505.155c-0.204,8.841,2.859,18.437,6.439,24.328c11.268,18.543,38.333,18.33,49.365-0.37
		c3.36-5.695,5.255-11.876,5.978-18.35c1.223-10.963-0.169-21.579-5.331-31.5c-10.76-20.68-39.442-19.175-49.548-2.235
		C1424.831,485.306,1422.777,494.17,1422.866,505.155z"/>
	<path style="fill:#68348F;" d="M877.857,457.422c0.759,0.68,1.701,0.732,2.647,0.769c2.127,1.042,4.254,2.084,6.38,3.125
		c0.714,1.067,1.735,1.736,2.89,2.232c1.468,1.385,2.767,2.977,4.667,3.838l0.255-0.061l-0.097,0.244
		c1.187,2.045,2.461,4.023,4.274,5.589l-0.053-0.03c3.553,6.641,6.291,13.573,7.5,21.049c1.394,10.008,0.233,19.802-2.476,29.466
		c-1.707,3.419-3.414,6.837-5.121,10.256c-1.858,2.241-3.716,4.482-5.575,6.723c-1.124,0.943-2.248,1.885-3.372,2.828
		c-3.72,2.534-7.675,4.609-11.922,6.115c-1.632,0.425-3.407,0.357-4.856,1.411c-6.408,0.707-12.802,0.99-19.167-0.421
		c-8.092-1.795-14.912-5.865-20.845-11.548c-1.617-2.135-3.234-4.269-4.85-6.404c-2.209-4.773-4.318-9.588-5.932-14.603
		c-0.126-1.394,0.015-2.831-0.679-4.132c-0.23-2.288-0.461-4.577-0.691-6.865c0-2.334,0-4.668,0-7.001
		c0.234-2.289,0.468-4.579,0.701-6.868c0.663-1.305,0.576-2.731,0.667-4.129c1.628-5.01,3.713-9.834,5.934-14.603
		c1.618-2.134,3.236-4.268,4.854-6.402c4.07-3.441,8.037-7.025,13.007-9.192c1.729-0.435,3.485-0.797,5.001-1.82
		c7.275-1.667,14.609-1.949,22-0.956C874.457,457.055,876.216,457.033,877.857,457.422z M832.816,503.469
		c-0.111,8.989,1.57,17.537,6.14,25.38c5.615,9.635,14.106,14.294,25.164,14.236c11.111-0.058,19.635-4.921,24.838-14.733
		c7.89-14.879,8.023-30.322,1.895-45.787c-4.026-10.161-11.474-16.654-22.549-18.113c-10.994-1.449-20.39,1.649-27.258,10.805
		C834.772,483.623,832.944,493.305,832.816,503.469z"/>
	<path style="fill:#66318E;" d="M1362.799,540.484c0.523,3.258,0.456,6.023,0.125,8.921c-5.206,1.814-10.305,2.623-15.72,1.984
		c-12.033-1.421-15.159-9.322-16.062-17.19c-0.208-1.81-0.14-3.656-0.141-5.486c-0.008-19.474,0.004-38.948-0.026-58.422
		c-0.002-1.283,0.356-2.635-0.562-4.29c-4.549,0-9.291,0-14.214,0c0-2.844,0-5.254,0-8.133c4.907,0,9.643,0,14.656,0
		c0-6.4,0-12.346,0-18.419c3.341-2.198,6.885-3.431,11.03-4.974c0,7.906,0,15.419,0,23.349c6.939,0,13.348,0,20.001,0
		c0,2.833,0,5.237,0,8.041c-6.466,0-12.883,0-18.915,0c-1.384,1.342-0.944,2.576-0.946,3.675
		c-0.03,19.141,0.002,38.282-0.047,57.423c-0.007,2.862,0.427,5.646,1.004,8.406c0.904,4.319,3.544,6.445,8.026,6.764
		C1354.868,542.409,1358.625,541.851,1362.799,540.484z"/>
	<path style="fill:#68348F;" d="M1208.015,459.038c6.633-2.849,13.407-4.621,20.785-3.03c0,3.72,0,7.137,0,10.965
		c-4.845-0.468-9.476-0.976-13.987,0.439c-8.669,2.264-13.153,8.452-15.557,16.591c-0.111,0.665-0.223,1.329-0.334,1.994
		c-1.097,1.523-1.038,3.257-0.915,5.003c-0.633,2.109-0.506,4.278-0.505,6.438c0.004,15.639,0.023,31.278-0.014,46.916
		c-0.004,1.611,0.49,3.332-0.731,5.056c-3.282,0.485-6.688,0.271-10.073,0.138c-0.879-2.079-0.489-3.922-0.493-5.702
		c-0.057-23.458-0.066-46.916-0.109-70.374c-0.004-2.158-0.158-4.315-0.243-6.472c-0.026-1.333-0.051-2.666-0.077-4
		c0.079-1.461,0.158-2.923,0.252-4.655c3.398-0.96,6.862-0.461,10.358-0.301c0.921,2.065,0.272,4.096,0.793,5.956
		c0,1.84,0,3.681,0,6.199c1.757-1.596,2.453-3.027,3.191-4.427c0.882-0.965,1.764-1.929,2.645-2.894
		C1204.672,461.598,1206.343,460.318,1208.015,459.038z"/>
	<path style="fill:#68348F;" d="M943.838,478.941c-3.118,5.317-3.978,11.146-3.968,17.194c0.025,15.985,0.016,31.97,0.02,47.955
		c0,1.646,0,3.293,0,5.1c-3.671,0.899-7.084,0.277-10.998,0.486c-0.246-30.644,0.355-60.872-0.876-91.345
		c3.668-0.906,7.074-0.316,10.786-0.483c0.399,3.822,0.771,7.384,1.147,10.987c1.591-0.104,1.853-1.267,2.209-2.342
		c1.74-1.786,3.48-3.571,5.22-5.357c5.63-3.767,11.849-5.622,18.604-5.777c1.831-0.042,3.647-0.102,5.438,1.081
		c0.44,3.287,0.221,6.684,0.153,10.38c-8.787-0.553-17.281-1.162-23.601,6.106C945.787,474.375,944.652,476.548,943.838,478.941z"/>
	<path style="fill:#66318E;" d="M1378.255,458.03c3.531,0,6.812,0,10.441,0c0,30.343,0,60.699,0,91.281
		c-3.365,0.688-6.776,0.22-10.441,0.321C1378.255,518.895,1378.255,488.55,1378.255,458.03z"/>
	<path style="fill:#67328E;" d="M1377.185,431.898c0-4.719,0-8.986,0-13.508c4.248,0,8.31,0,12.67,0c0,4.496,0,8.874,0,13.508
		C1385.67,431.898,1381.603,431.898,1377.185,431.898z"/>
</g>
</svg>
