<?xml version="1.0" encoding="iso-8859-1"?>
<!-- Generator: Adobe Illustrator 27.0.0, SVG Export Plug-In . SVG Version: 6.00 Build 0)  -->
<svg version="1.1" id="Layer_1" xmlns="http://www.w3.org/2000/svg" xmlns:xlink="http://www.w3.org/1999/xlink" x="0px" y="0px"
	 viewBox="0 0 1152 685.171" style="enable-background:new 0 0 1152 685.171;" xml:space="preserve">
<g>
	<path style="fill:#E52C37;" d="M0.851,541.03c1.609-10.369,9.241-17.36,21.487-17.598c19.809-0.386,39.632-0.084,59.449-0.053
		c0.286,0,0.571,0.262,1.088,0.515c0,11.985,0,24.084,0,36.188c-1.074,1.205-2.494,0.688-3.751,0.696
		c-7.827,0.048-15.654,0.011-23.481,0.034c-1.829,0.005-3.667,0.039-5.485,0.221c-4.394,0.439-7.064,2.946-7.216,7.381
		c-0.222,6.463-0.057,12.938-0.057,19.882c7.243,0,14.307,0,21.236,0c1.086,4.044,1.401,27.177,0.604,37.402
		c-3.522,0.697-7.156,0.224-10.752,0.313c-3.481,0.086-6.965,0.019-10.94,0.019c0,18.752,0,37.305,0,55.352
		c-1.825,1.992-3.597,1.386-5.179,1.393c-11.657,0.05-23.315,0.019-34.972,0.041c-0.963,0.002-2-0.385-2.881,0.356
		c0-0.333,0-0.667,0-1c2.038-1.285,0.932-3.301,0.935-4.899c0.082-42.925,0.068-85.851,0.059-128.776
		C0.993,546.007,0.901,543.518,0.851,541.03z"/>
	<path style="fill:#E85048;" d="M1152,675.171c-0.339,0.315-0.807,0.567-0.999,0.955c-3.161,6.392-10.479,8.791-16.638,5.46
		c-2.187-1.183-3.488-3.068-4.209-5.327c-3.147-9.856,3.314-17.06,13.475-15.148c3.822,0.719,6.224,2.878,7.318,6.562
		c0.259,0.873-0.266,2.073,1.054,2.499C1152,671.838,1152,673.504,1152,675.171z M1140.371,663.084
		c-5.933,0.005-8.514,2.763-8.46,9.044c0.052,6.105,2.897,8.975,8.783,8.86c5.655-0.11,8.625-3.304,8.585-9.23
		C1149.237,665.701,1146.545,663.079,1140.371,663.084z"/>
	<path style="fill:#EF8A77;" d="M0.851,541.03c0.05,2.489,0.142,4.978,0.143,7.466c0.009,42.925,0.022,85.851-0.059,128.776
		c-0.003,1.597,1.103,3.614-0.935,4.899c0-47,0-94,0-141C0.284,541.123,0.567,541.076,0.851,541.03z"/>
	<path style="fill:#F4B2A1;" d="M996,685.171c0.026-0.292,0.003-0.58-0.07-0.864c5.046-0.001,10.093-0.002,15.139-0.002
		c-0.078,0.284-0.101,0.573-0.069,0.866C1006,685.171,1001,685.171,996,685.171z"/>
	<path style="fill:#F4B2A1;" d="M141.066,684.297c-0.081,0.287-0.103,0.578-0.066,0.874c-4.333,0-8.667,0-13,0
		c0.039-0.296,0.017-0.588-0.065-0.875C132.312,684.296,136.689,684.296,141.066,684.297z"/>
	<path style="fill:#F4B2A1;" d="M257,685.171c0.048-0.299,0.027-0.593-0.062-0.883c4.377,0.006,8.754,0.011,13.131,0.017
		c-0.074,0.285-0.096,0.573-0.069,0.866C265.667,685.171,261.333,685.171,257,685.171z"/>
	<path style="fill:#F4B2A1;" d="M653.062,684.288c-0.09,0.29-0.11,0.584-0.062,0.883c-4.333,0-8.667,0-13,0
		c-0.007-0.279-0.034-0.557-0.081-0.833C644.3,684.321,648.681,684.305,653.062,684.288z"/>
	<path style="fill:#F4B2A1;" d="M783.064,684.294c-0.091,0.287-0.112,0.579-0.064,0.877c-4,0-8,0-12,0
		c-0.001-0.282-0.028-0.561-0.08-0.838C774.968,684.32,779.016,684.307,783.064,684.294z"/>
	<path style="fill:#1B1A19;" d="M529.738,163.228c0-4.068,0-7.883,0-12.069c-8.504-6.66-13.621-16.348-20.099-24.961
		c-1.226-1.63-2.04-3.411-2.568-5.348c-4.827-17.742-9.597-35.5-14.533-53.212c-0.674-2.418-0.527-4.472,0.348-6.74
		c2.204-5.717,4.24-11.499,6.432-17.495c6.934-2.813,10.869-8.791,14.223-15.164c1.464-2.783,3.22-4.84,6.099-6.186
		c7.562-3.535,14.555-7.993,20.697-13.692c1.394-1.294,2.837-2.107,4.845-2.153c12.85-0.296,25.316-3.051,37.867-5.567
		c10.115-2.027,19.73,0.979,28.724,5.797c0.871,0.467,1.646,1.114,2.689,1.83c5.311-0.24,10.788-0.488,16.324-0.739
		c3.647,1.974,5.814,5.065,6.942,9.134c1.238,4.466,2.843,8.831,4.342,13.406c-2.289,5.032-4.617,10.145-6.594,15.412
		c-1.222,3.256-1.303,6.37-0.229,9.658c3.15,9.643,5.936,19.37,5.646,29.527c3.548,4.064,8.305,6.492,11.549,10.532
		c0.788,0.982,0.986,2.438,1.401,3.533c-0.665,5.902-5.695,7.305-9.67,9.536c-0.673,4.945,0.121,9.56,1.293,14.03
		c0.664,2.533,0.23,4.375-1,6.524c-2.105,3.679-5.364,6.992-4.477,11.877c0.77,2.118,2.375,3.862,3.072,6.12
		c1.336,4.334,0.678,6.815-2.991,9.521c-3.111,2.294-6.702,3.609-10.338,4.805c-2.984,0.981-5.974,1.945-8.935,2.989
		c-1.746,0.616-3.369,1.46-4.184,3.541c0.809,2.995,3.74,3.396,6.07,4.308c4.778,1.87,9.673,3.44,14.524,5.121
		c3.756,1.302,7.559,2.472,10.799,4.937c0.759,0.578,1.782,0.88,2.73,1.128c20.142,5.248,38.98,13.831,57.792,22.497
		c9.33,4.298,18.712,8.487,28.108,12.639c4.874,2.154,9.465,4.729,13.814,7.826c10.02,7.135,20.052,14.261,30.267,21.111
		c4.916,3.297,9.132,7.153,12.494,11.976c2.504,3.592,5.697,6.507,8.979,9.341c9.322,8.049,18.635,16.109,27.995,24.114
		c1.791,1.531,3.331,3.24,4.671,5.155c6.956,9.945,13.678,20.065,20.956,29.769c4.421,5.895,7.11,12.246,8.143,19.428
		c0.164,1.141,0.348,2.28,0.561,3.675c-5.364,5.491-10.81,11.101-16.296,16.671c-6.315,6.411-12.694,12.758-18.985,19.192
		c-2.227,2.277-4.661,4.155-7.468,5.718c-35.371,19.706-70.849,39.228-105.251,60.616c-6.494,4.037-12.947,8.141-19.006,12.819
		c-1.622,1.253-3.371,2.004-5.338,2.512c-4.645,1.199-9.25,2.55-13.817,3.824c-1.052,2.683-0.885,5.388-1.518,8.287
		c-3.798,0.684-7.668,0.46-11.891,0.091c0.487-6.669,0.951-13.116,1.43-19.561c0.887-11.94,1.758-23.881,2.681-35.817
		c1.206-15.585,2.497-31.164,3.675-46.751c1.141-15.091,2.157-30.192,3.281-45.285c0.84-11.275,1.956-22.533,2.593-33.818
		c0.543-9.615,2.399-19.203,1.329-28.862c-1.261-11.395-2.837-22.756-4.311-34.127c-0.94-7.251-1.942-14.494-2.973-22.165
		c-3.11-2.73-6.473-5.683-10.576-9.286c1.259,4.665,2.313,8.454,3.304,12.26c5.162,19.827,6.75,39.925,4.97,60.35
		c-1.039,11.926-1.566,23.897-2.346,35.846c-0.899,13.775-1.832,27.547-2.731,41.321c-0.769,11.784-1.498,23.57-2.267,35.354
		c-0.91,13.941-1.866,27.878-2.76,41.82c-0.777,12.114-1.541,24.23-2.217,36.35c-0.231,4.134-0.418,8.257-1.24,12.478
		c-4.235,0.241-8.341,0.343-12.951-0.077c2.479-42.316,4.946-84.419,7.468-127.456c-2.972,3.2-5.268,5.837-9.202,6.417
		c-1.741,11.777-3.512,23.586-5.21,35.406c-0.282,1.965-0.334,3.977-0.336,5.967c-0.021,24.833-0.004,49.666-0.036,74.499
		c-0.002,1.62,0.437,3.318-0.575,5.142c-6.465,0-13.036,0-20.052,0c1.064-41.075,2.122-81.951,3.18-122.826
		c-4.75-1.989-9.146-3.83-14.298-5.987c-1.468,43.219-2.917,85.86-4.375,128.778c-6.866,0-13.424,0-20.331,0
		c1.001-9.424,0.887-18.563,1.374-27.681c0.603-11.297,1.053-22.603,1.599-33.903c0.947-19.598,1.936-39.195,2.872-58.794
		c1.047-21.931,2.065-43.863,3.075-65.796c1.154-25.088,2.247-50.18,3.475-75.264c0.15-3.063-0.384-5.53-2.899-7.472
		c-1.444-1.115-2.699-2.472-4.39-4.047c-2.01,2.664-4.121,5.526-6.308,8.33c-1.036,1.329-0.743,2.862-0.841,4.317
		c-1.31,19.415-2.612,38.83-3.852,58.249c-0.922,14.441-1.737,28.89-2.629,43.333c-0.861,13.94-1.732,27.879-2.651,41.815
		c-0.854,12.942-1.815,25.876-2.66,38.819c-0.791,12.118-1.484,24.242-2.233,36.363c-0.769,12.452-1.535,24.904-2.353,37.352
		c-0.096,1.456,0.173,3.038-1.003,4.453c-7.483,0-15.075,0-23.043,0c0.598-9.682,1.161-19.101,1.764-28.517
		c0.871-13.61,1.747-27.22,2.666-40.827c0.874-12.944,1.829-25.882,2.703-38.826c0.784-11.611,1.493-23.228,2.26-34.84
		c0.909-13.772,1.857-27.542,2.764-41.314c0.754-11.451,1.458-22.905,2.214-34.356c0.921-13.939,1.903-27.874,2.786-41.815
		c0.177-2.799,0.026-5.619,0.026-8.686c-4.246,1.693-8.369,3.337-12.88,5.136c-7.02,87.777-14.045,175.619-21.123,264.123
		c-5.253,0.36-10.468,0.066-15.79,0.155c-1.33-4.912-0.759-9.582-0.973-14.182c-0.31-6.649-0.504-13.303-0.697-19.957
		c-0.159-5.517,1.028-10.926,1.976-16.278c2.155-12.172,2.706-24.43,3.176-36.725c0.946-24.765,1.978-49.527,2.986-74.29
		c0.656-16.122,1.306-32.244,2.005-48.364c0.77-17.777,1.839-35.545,2.232-53.33c0.11-4.969,0.711-10.277-1.552-15.584
		c-2.17,1.495-2.945,3.331-3.451,5.386c-3.725,15.149-7.372,30.294-8.848,45.896c-1.662,17.565-2.452,35.176-3.282,52.786
		c-0.759,16.115-1.372,32.236-2.017,48.356c-0.764,19.12-1.971,38.211-3.352,57.296c-0.948,13.107-1.5,26.243-2.303,39.362
		c-0.597,9.758-1.312,19.509-1.984,29.408c-5.423,0-10.519,0-15.854,0c0.73-5.836,1.193-11.464,2.171-17
		c2.731-15.451,3.351-31.051,3.931-46.681c0.745-20.109,1.836-40.206,2.685-60.311c0.519-12.304,0.784-24.618,1.301-36.922
		c0.916-21.759,1.705-43.528,3.012-65.264c0.668-11.108,2.362-22.154,3.548-33.232c0.277-2.588,0.376-5.195,0.119-7.978
		c-4.256,4.93-9.582,9.319-11.507,15.356c-2.402,7.532-3.028,15.577-2.014,23.675c2.032,16.226,1.92,32.54,1.272,48.853
		c-0.495,12.465-0.91,24.934-1.516,37.393c-0.922,18.939-1.99,37.872-2.974,56.808c-0.535,10.3-1.028,20.602-1.533,30.904
		c-0.049,0.992,0.048,2.01-0.929,3.129c-3.589-5.102-6.841-9.682-6.798-16.659c0.322-52.664,0.168-105.331,0.19-157.997
		c0.002-4.66-0.411-9.26-0.916-13.895c-0.866-7.942-0.574-15.931,0.705-23.855c0.21-1.298,0.153-2.64,0.281-5.193
		c-2.795,3.899-4.892,6.941-7.121,9.882c-1.018,1.343-0.871,2.833-0.909,4.289c-0.417,16.143-0.748,32.288-1.19,48.43
		c-0.36,13.133-0.856,26.261-1.26,39.393c-0.145,4.69,0.995,9.253,1.658,13.846c2.018,13.973,4.292,27.909,6.482,41.857
		c0.42,2.674-0.106,5.312-0.204,7.966c-0.314,8.481-0.669,16.96-0.983,25.44c-0.049,1.333-0.006,2.663-0.922,4.022
		c-8.122,1.422-14.889,5.906-21.348,10.896c-1.84,1.422-3.508,2.386-5.886,1.698c-0.934-0.27-1.988-0.189-2.985-0.168
		c-3.702,0.078-6.727-0.986-9.087-4.142c-2.081-2.783-4.768-5.103-7.009-7.777c-5.956-7.106-13.704-12.09-20.863-17.761
		c-13.699-10.853-27.569-21.49-40.436-33.355c-3.327-3.068-6.29-6.312-8.296-10.452c-2.022-4.174-4.252-8.267-6.664-12.228
		c-7.034-11.553-9.155-24.793-12.835-37.468c-1.157-3.985-0.441-8.376,4.09-11.505c9.552-1.72,18.9-5.234,26.398-12.905
		c-1.918-2.997-3.792-5.925-5.806-9.073c-1.278-0.285-2.71-0.603-4.321-0.962c-8.566,4.823-17.749,8.998-25.767,14.788
		c-7.993,5.772-15.834,12.206-20.493,21.405c-0.448,0.884-1.1,1.778-1.191,2.713c-1.104,11.327-1.279,22.492,5.306,32.609
		c8.416,12.931,18.826,24.059,30.166,34.447c16.775,15.364,35.614,27.817,54.975,39.542c10.951,6.632,21.832,13.33,32.178,20.902
		c5.363,3.925,11.76,6.059,17.738,8.898c1.112,0.528,2.613,0.31,3.935,0.314c7.328,0.025,14.656,0.012,22.456,0.012
		c8.697,14.003,6.09,28.381,1.56,43.198c-6.935,0-13.689,0-20.824,0c0.938-5.911,3.84-11.156,5.382-17.156
		c-4.055-4.73-7.93-9.665-13.699-13.133c-35.57-21.384-70.974-43.045-106.442-64.6c-1.427-0.867-2.798-1.76-3.976-2.972
		c-8.591-8.838-17.198-17.659-25.829-26.457c-1.185-1.208-2.066-2.585-2.819-4.069c-4.579-9.023-9.096-18.078-13.769-27.051
		c-1.2-2.304-1.711-4.591-1.625-7.152c0.173-5.161,0.262-10.326,0.259-15.49c-0.002-3.26,1.144-6.029,2.498-8.971
		c3.622-7.868,9.565-13.025,16.773-17.612c27.605-17.567,54.919-35.592,82.37-53.402c6.828-4.43,14.291-7.706,21.497-11.441
		c13.542-7.02,27.286-13.664,40.649-21.005c6.502-3.572,13.384-4.672,20.44-5.658c12.672-1.77,25.348-3.503,38.017-5.29
		c2.486-0.351,4.674-1.256,6.675-2.989c3.768-3.263,7.874-6.134,11.712-9.32C524.802,164.882,526.922,163.438,529.738,163.228z
		 M686.636,361.237c-1.31,1.411-0.627,2.894-0.216,5.248c0.559-2.392,1.477-3.79,1.324-5.484c0.234-1.135,0.461-2.272,0.705-3.405
		c1.527-7.109,3.875-14.03,4.681-21.306c1.168-10.558,2.506-21.097,3.655-31.657c0.665-6.113,0.934-12.24-0.775-18.274
		c-0.607-2.143-1.481-3.994-3.943-4.628c-2.137,1.344-1.784,3.448-1.772,5.375c0.043,7.148,0.559,14.32,0.137,21.438
		C689.389,326.121,687.928,343.674,686.636,361.237z M559.886,151.287c5.98-4.566,12.215-8.469,20.344-7.14
		c0.967,0.158,1.992-0.057,2.99-0.062c8.624-0.039,17.26-0.866,25.822,1.146c5.317,1.25,10.733,2.088,16.117,3.036
		c3.159,0.556,5.905,0.024,7.398-3.449c-1.619-2.961-2.362-6.52-5.941-8.094c0.448-2.389,1.141-4.565,3.324-5.895
		c1.918-1.168,4.223-1.676,5.897-3.307c-0.622-0.882-0.834-1.989-2.04-2.149c-3.628,0.084-6.968,1.981-10.571,1.949
		c-0.954-1.719-1.352-3.271-0.916-4.8c3.128-6.334,8.902-8.039,15.241-8.55c1.211-5.012-4.11-6.13-5.148-9.761
		c4.594-1.767,8.627-4.337,12.46-7.676c-2.72-2.665-5.472-5.244-8.961-7.74c-9.836,4.465-19.639,1.089-29.557-0.697
		c-1.365-2.69-3.42-4.858-4.397-7.919c5.924-2.7,11.613-5.346,17.351-7.88c2.208-0.975,4.084-2.15,4.794-4.605
		c-0.942-1.66-1.94-3.169-3.671-4.398c-5.141,0-10.463,0.037-15.785-0.025c-1.383-0.016-2.645,0.22-3.793,0.937
		c-8.571,5.356-17.132,10.728-25.622,16.05c-1.032,4.379-2.015,8.548-2.962,12.563c-4.534,1.348-7.964,0.169-11.064-2.963
		c-2.674-2.702-5.721-5.036-8.294-7.264c-6.225,0.762-12.319,0.789-15.189,7.701c0.144,2.928,0.31,6.232,0.467,9.536
		c0.161,3.395,1.139,6.375,3.396,9.094c2.527,3.044,5.23,6.023,7.002,9.677c-2.504,11.158-4.997,22.269-7.383,32.908
		c-1.548,0.928-3.05,0.366-3.647,2.131c-0.491,5.141-0.485,10.611-0.464,16.217c10.184,6.347,20.289,12.69,30.457,18.93
		c1.469,0.902,3.074,2.076,5.314,1.061c0.973-7.267,1.361-14.665,1.208-21.994c-4.912-4.058-9.636-7.961-14.144-11.685
		C559.501,154.324,559.416,152.86,559.886,151.287z M436.999,288.145c-0.606,0.177-1.084,0.288-1.542,0.454
		c-20.596,7.436-38.867,19.243-57.436,30.498c-1.821,1.104-2.871,2.707-3.726,4.502c14.563,30.424,36.262,55.077,61.793,76.781
		c5.066-0.244,10.241,0.151,15.115-2.636c-0.219-2.386-0.373-4.694-0.651-6.986c-0.819-6.763-1.695-13.518-2.531-20.279
		c-1.224-9.895-2.466-19.788-3.64-29.689c-1.194-10.066-2.365-20.136-3.449-30.215c-0.64-5.953-1.102-11.926-1.618-17.892
		C439.167,290.992,439.03,289.329,436.999,288.145z M771.838,346.669c-16.126-11.491-32.265-22.293-49.205-31.854
		c-5.039-2.844-10.284-5.2-15.928-6.437c-0.81,1.429-0.551,2.798-0.705,4.105c-0.524,4.449-0.817,8.944-1.651,13.335
		c-2.694,14.176-5.527,28.327-8.427,42.463c-2.394,11.67-4.44,23.425-8.841,34.603c-1.906,4.842-3.297,9.888-5.083,15.333
		c7.077-2.67,13.091-6.042,18.985-9.666c8.538-5.251,15.998-11.903,23.753-18.173C741.334,376.958,756.868,362.393,771.838,346.669z
		 M787.417,347.964c-27.896,25.338-55.375,50.297-82.522,74.955c-7.928,0.871-15.328,1.516-22.613,2.828c0,7.046,0,13.732,0,20.52
		c2.197-0.44,3.612-1.654,5.176-2.534c23.181-13.051,45.429-27.56,67.217-42.807c21.161-14.807,41.547-30.556,60.424-48.221
		c2.183-2.043,3.714-4.24,3.861-7.202c0.083-1.665,1.319-3.107,0.771-5.041c-11.55-14.997-23.208-30.135-34.745-45.114
		c-2.511-0.21-4.637-0.388-7.047-0.589c-5.823,8.377-11.661,16.776-17.6,25.321C769.484,329.497,778.284,338.56,787.417,347.964z
		 M624.718,278.055c1.808-8.572,0.857-17.108,1.967-25.5c0.814-6.151,0.575-12.55-1.002-18.336
		c-1.754-6.433-5.593-12.301-8.562-18.397c-0.597-1.225-1.618-0.823-2.915-0.286c-1.508,20.634-3.029,41.433-4.57,62.518
		C614.877,278.055,619.634,278.055,624.718,278.055z M685.72,206.896c0.422,2.815-0.087,4.971,0.842,6.636
		c7.668,3.143,15.015,6.14,22.346,9.178c0.91,0.377,1.776,0.903,2.589,1.466c13.228,9.169,26.581,18.168,39.605,27.62
		c6.16,4.471,12.674,7.715,20.099,9.356c1.176-0.485,2.466-0.867,2.881-2.43c-2.583-2.379-5.739-3.923-8.613-5.873
		c-20.736-14.067-41.488-28.112-62.226-42.177c-1.099-0.746-2.107-1.516-3.527-1.703
		C695.299,208.389,690.899,207.674,685.72,206.896z M444.797,231.884c0.278-1.916,0.396-3.681-0.27-5.812
		c-22.839,13.771-45.505,27.437-67.965,40.979c-0.461,2.024-0.529,3.649,0.024,5.319c1.514,1.504,3.136,2.872,4.624,3.406
		c6.147-0.749,10.04-4.535,14.299-7.661C411.954,256.043,428.385,243.951,444.797,231.884z M694.587,262.317
		c-0.207,0.18-0.413,0.36-0.62,0.54c5.05,8.101,10.085,16.212,15.177,24.286c0.415,0.658,1.146,1.214,1.854,1.575
		c10.004,5.103,20.03,10.165,30.075,15.249c2.045-1.469,3.912-2.811,5.913-4.249c-1.951-3.037-2.877-6.365-6.129-8.378
		C725.375,281.759,710,272.008,694.587,262.317z M697.571,249.116c5.005-1.43,9.236,1.514,13.621,4.283
		c11.625,7.34,23.409,14.431,34.969,21.87c3.631,2.337,7.498,3.266,11.597,3.808c0.253,0.033,0.551-0.278,0.887-0.461
		c0.439-1.221,0.645-2.479-0.099-4.093c-14.335-9.022-28.954-18.129-43.465-27.403c-5.594-3.575-11.295-6.907-17.403-9.493
		c-3.394-1.437-6.743-3.104-10.506-3.795C686.831,241.318,690.828,245.569,697.571,249.116z M644.487,224.985
		c-0.481,18.131-0.956,36.026-1.43,53.912c3.615,0,6.687,0,9.764,0c1.408-20.201,0.892-40.177,2.161-60.749
		C651.289,220.554,648.115,222.622,644.487,224.985z M448.342,200.498c-27.988,14.925-55.075,29.369-82.254,43.862
		c0.892,1.555,0.478,3.207,2.072,4.445c7.848-3.226,16.17-5.778,23.631-9.891c16.37-9.024,32.234-18.959,48.467-28.24
		C444.11,208.472,446.609,205.675,448.342,200.498z M444.694,258.221c-5.576,0.111-10.867,0.434-15.123,4.759
		c-1.963,1.996-4.405,3.52-6.624,5.265c-8.617,6.775-17.263,13.512-25.833,20.346c-4.15,3.31-4.368,5.278-1.211,9.723
		c1.745-3.582,5.049-5.151,8.174-6.969c11.745-6.832,23.436-13.758,35.229-20.505c3.159-1.807,5.619-3.957,6.486-7.633
		C445.448,261.646,445.098,260.058,444.694,258.221z M610.307,299.642c15.073,0,30.322,0,45.439,0
		c0.991-1.174,1.202-2.188,0.302-3.247c-15.455,0-30.865,0-46.168,0C609.344,297.661,609.382,298.586,610.307,299.642z
		 M610.221,290.077c15.164,0,30.412,0,45.711,0c0.549-1.397,0.69-2.586-0.106-3.756c-15.345,0-30.592,0-45.775,0
		C609.647,287.703,609.494,288.796,610.221,290.077z M566.456,260.661c-2.125-0.848-3.993-1.042-5.903,0.284
		c-0.733,1.935-1.249,3.85,0.757,5.352c1.873,1.402,3.699,1.115,5.546-0.668C567.117,264.191,567.476,262.596,566.456,260.661z
		 M569.017,221.304c-0.085-2.255-1.238-3.293-3.497-3.149c-2.032,0.13-3.483,1.678-3.324,3.547c0.151,1.769,1.964,3.385,3.732,3.326
		C567.833,224.965,569.098,223.44,569.017,221.304z"/>
	<path style="fill:#E52F37;" d="M944.851,575.366c-6.752,8.211-13.182,16.03-19.612,23.85c-6.442,7.834-12.882,15.67-19.604,23.846
		c16.22,19.612,32.396,39.17,48.681,58.861c-3.91,1.08-38.217,1.434-48.065,0.549c-8.718-10.522-17.7-21.363-26.682-32.205
		c-0.285,0.088-0.569,0.175-0.854,0.263c0,10.534,0,21.069,0,31.933c-14.393,0-28.26,0-42.336,0c0-53.078,0-105.831,0-158.94
		c13.903,0,27.796,0,42.174,0c0,25.32,0,50.729,0,76.137c0.28,0.098,0.56,0.197,0.84,0.295c6.698-8.184,13.396-16.367,20.125-24.589
		C914.471,575.366,929.382,575.366,944.851,575.366z"/>
	<path style="fill:#E52C37;" d="M653.062,684.288c-4.381,0.017-8.762,0.034-13.143,0.051c-24.463-3.704-41.586-17.209-49.157-40.507
		c-10.943-33.676,7.718-65.247,37.455-74.407c24.692-7.606,50.536-0.71,67.186,23.248c13.609,19.582,14.637,53.268-7.691,74.536
		C677.849,676.603,666.656,682.74,653.062,684.288z M663.15,625.204c0.005-11.804-5.957-16.588-16.486-16.723
		c-10.032-0.128-17.177,6.902-17.113,17.466c0.065,10.805,5.077,16.21,16.882,16.22C657.622,642.177,663.188,636.494,663.15,625.204
		z"/>
	<path style="fill:#E52C37;" d="M141.066,684.297c-4.377,0-8.754-0.001-13.131-0.001c-25.038-2.36-47.491-24.677-51.381-47.029
		c-3.267-18.776,0.557-35.667,13.215-50.2c16.319-18.737,37.287-24.553,60.467-18.172c23.125,6.366,37.437,22.625,41.9,46.604
		c6.059,32.552-16.883,58.289-38.96,66.009C149.244,682.883,145.174,683.676,141.066,684.297z M134.456,642.23
		c1.325-0.074,2.669-0.027,3.97-0.242c5.579-0.921,10.042-3.439,12.003-9.09c1.264-3.644,1.636-7.433,0.988-11.265
		c-1.277-7.546-4.981-11.263-12.51-12.796c-4.177-0.851-8.258-0.436-12.244,0.828c-4.199,1.33-7.183,4.174-8.578,8.337
		c-1.445,4.313-1.521,8.738-0.403,13.218c1.339,5.368,4.719,8.533,9.909,10.048C129.843,641.927,132.117,642.241,134.456,642.23z"/>
	<path style="fill:#E52C37;" d="M270.069,684.305c-4.377-0.006-8.754-0.011-13.131-0.017c-25.535-4.222-43.147-18.535-50.12-43.303
		c-10.176-36.148,13.845-65.07,40.197-72.113c40.035-10.701,69.732,17.591,74.237,46.242c3.568,22.686-3.961,41.13-21.089,55.993
		C291.497,678.627,281.424,682.925,270.069,684.305z M263.686,642.177c12.898,0.079,17.863-7.405,16.957-19.633
		c-0.073-0.984-0.37-1.953-0.578-2.925c-1.2-5.589-4.699-8.953-10.136-10.404c-3.919-1.046-7.841-0.971-11.806-0.124
		c-6.1,1.304-10.097,4.721-11.437,10.939C244.393,630.678,247.772,642.403,263.686,642.177z"/>
	<path style="fill:#E52D37;" d="M1011.069,684.305c-5.046,0.001-10.093,0.002-15.139,0.002c-24.04-3.58-40.573-17.069-49.303-39.338
		c-7.08-18.061-4.153-35.665,6.308-51.92c6.353-9.873,14.627-17.635,25.671-22.132c9.907-4.034,20.145-5.268,30.79-4.195
		c9.276,0.935,18.007,3.392,25.67,8.71c13.759,9.55,21.859,22.966,25.647,39.105c0.447,1.904,0.305,3.945,0.467,6.393
		c-24.389,5.359-48.628,10.685-73.012,16.042c9.461,11.006,18.518,10.7,30.643-1.065c11.06,7.122,22.201,14.296,33.544,21.601
		c-4.889,5.24-9.429,10.327-14.213,15.172c-4.547,4.605-10.434,7.104-16.401,9.204
		C1018.321,683.088,1014.738,683.992,1011.069,684.305z M1016.248,612.804c-4.651-6.296-10.917-8.434-18.25-6.598
		c-6.448,1.615-12.102,7.49-13.13,13.812C995.224,617.637,1005.505,615.273,1016.248,612.804z"/>
	<path style="fill:#E52C37;" d="M346.999,608.343c-5.926,0-11.078,0-16.194,0c-1.008-3.533-1.288-28.51-0.401-37.128
		c5.343,0,10.753,0,16.573,0c0-12.823,0-25.223,0-37.829c14.022,0,27.618,0,41.716,0c0,12.389,0,24.79,0,37.604
		c5.56,0,10.638,0,16.009,0c0,12.484,0,24.554,0,36.97c-4.894,0.909-10.02-0.042-14.928,0.49c-1.165,1.051-0.748,2.292-0.753,3.396
		c-0.037,7.662-0.043,15.324,0.001,22.986c0.008,1.483,0.14,2.995,0.451,4.442c0.745,3.464,2.944,5.387,6.463,6.03
		c3.314,0.606,6.634,0.411,9.956,0.508c2.14,0.062,4.312-0.336,6.701,0.4c0,11.869,0,23.779,0,35.618
		c-1.051,1.059-2.28,0.695-3.388,0.697c-13.325,0.027-26.65,0.02-39.975,0.013c-3.173-0.002-6.312-0.191-9.292-1.477
		c-8.301-3.583-12.888-9.738-12.921-18.908c-0.059-16.157-0.018-32.314-0.018-48.47
		C346.999,612.053,346.999,610.422,346.999,608.343z"/>
	<path style="fill:#E52D37;" d="M577.933,646.11c0,11.974,0,24.06,0,36.106c-1.653,1.025-3.362,0.559-4.981,0.562
		c-17.659,0.037-35.319,0.041-52.978,0.004c-2.49-0.005-4.978-0.377-7.468-0.408c-8.704-0.107-15.255-5.711-16.345-16.133
		c-0.173-1.652-0.155-3.328-0.155-4.993c-0.008-44.981-0.006-89.963-0.007-134.944c0-0.82,0-1.641,0-2.798
		c13.851,0,27.543,0,41.314,0c0.654,1.904,0.326,3.744,0.328,5.537c0.025,34.486,0.014,68.971,0.02,103.457
		c0.002,10.986,2.068,13.025,13.146,13.038c7.497,0.008,14.994-0.022,22.491,0.022C574.758,645.568,576.288,645.175,577.933,646.11z
		"/>
	<path style="fill:#E52D37;" d="M783.064,684.294c-4.048,0.013-8.096,0.026-12.144,0.039c-23.416-3.366-40.222-16.111-48.715-37.821
		c-9.126-23.326-4.175-44.754,13.502-62.851c12.261-12.553,27.275-17.618,44.703-16.754c13.505,0.669,25.292,5.07,35.281,14.175
		c4.052,3.693,7.705,7.742,10.616,12.839c-11.529,7.668-23.077,15.075-35.057,22.215c-3.973-4.753-8.422-8.145-14.618-7.742
		c-4.837,0.315-9.61,1-13.185,4.92c-5.135,5.631-5.052,18.798,0.224,24.099c7.023,7.057,19.113,6.094,27.801-2.522
		c11.45,7.388,22.987,14.832,34.916,22.529C815.856,673.151,801.855,682.533,783.064,684.294z"/>
	<path style="fill:#E52C37;" d="M1114.257,682.595c-13.66,0-27.104,0-40.549,0c-1.244-1.087-0.718-2.514-0.719-3.763
		c-0.031-29.817-0.029-59.634-0.013-89.451c0.001-1.996-0.058-4.026,0.267-5.982c1.58-9.525,7.834-14.852,18.071-15.13
		c8.156-0.222,16.323-0.088,24.485-0.096c9.823-0.01,19.647-0.002,29.836-0.002c0,12.457,0,24.815,0,37.631
		c-4.525,0-8.985-0.025-13.445,0.008c-3.329,0.025-6.669-0.024-9.984,0.23c-4.927,0.377-7.072,2.704-7.371,7.657
		c-0.08,1.328-0.035,2.664-0.036,3.997c-0.002,19.823,0.007,39.645-0.018,59.468
		C1114.778,678.801,1115.103,680.482,1114.257,682.595z"/>
	<path style="fill:#EDECEB;" d="M686.636,361.237c1.292-17.563,2.753-35.115,3.794-52.693c0.422-7.118-0.094-14.29-0.137-21.438
		c-0.011-1.927-0.364-4.031,1.772-5.375c2.462,0.634,3.336,2.484,3.943,4.628c1.71,6.034,1.441,12.16,0.775,18.274
		c-1.149,10.56-2.487,21.099-3.655,31.657c-0.805,7.276-3.154,14.197-4.681,21.306c-0.243,1.133-0.47,2.27-0.705,3.405
		C687.375,361.08,687.005,361.158,686.636,361.237z"/>
	<path style="fill:#DBD9D8;" d="M610.307,299.642c-0.925-1.055-0.964-1.981-0.427-3.247c15.303,0,30.713,0,46.168,0
		c0.9,1.059,0.689,2.074-0.302,3.247C640.629,299.642,625.38,299.642,610.307,299.642z"/>
	<path style="fill:#EDECEB;" d="M569.017,221.304c0.081,2.136-1.185,3.661-3.09,3.724c-1.768,0.059-3.581-1.557-3.732-3.326
		c-0.159-1.869,1.292-3.417,3.324-3.547C567.779,218.011,568.932,219.049,569.017,221.304z"/>
	<path style="fill:#8C8B8A;" d="M686.636,361.237c0.369-0.078,0.739-0.157,1.108-0.235c0.153,1.693-0.766,3.091-1.324,5.484
		C686.009,364.131,685.326,362.647,686.636,361.237z"/>
	<path style="fill:#E85048;" d="M1136.065,666.074c2.568,0,4.384,0.012,6.199-0.003c1.618-0.014,3.042,0.425,3.538,2.108
		c0.521,1.768,0.092,3.279-1.792,4.086c-0.422,0.181-0.96,0.315-0.924,0.966c0.169,1.643,2.276,2.44,1.87,4.635
		c-3.45,0.14-2.767-5.419-6.328-4.821c-1.362,1.397,0.284,3.642-1.835,5.237C1135.463,674.17,1136.349,670.344,1136.065,666.074z
		 M1138.532,670.902c2.073,0.123,3.841-0.175,5.672-1.845c-2.085-1.233-3.858-1.256-5.476-1.058
		C1137.838,668.99,1138.02,669.738,1138.532,670.902z"/>
	<path style="fill:#1B1A19;" d="M540.839,93.517c0.948-1.872,1.756-3.465,2.623-5.176c3.632,0,7.228,0,10.708,0
		c3.627,5.194,4.841,10.501,1.993,16.38c-0.925,0.746-2.089,0.405-3.355,0.331c-2.561-2.034-4.147-4.949-5.837-7.59
		c-1.399-0.785-2.761,0.047-4.313-0.48C541.702,96.347,541.801,94.836,540.839,93.517z"/>
</g>
</svg>
