<?xml version="1.0" encoding="iso-8859-1"?>
<!-- Generator: Adobe Illustrator 27.0.0, SVG Export Plug-In . SVG Version: 6.00 Build 0)  -->
<svg version="1.1" id="Layer_1" xmlns="http://www.w3.org/2000/svg" xmlns:xlink="http://www.w3.org/1999/xlink" x="0px" y="0px"
	 viewBox="0 0 1577.011 757.051" style="enable-background:new 0 0 1577.011 757.051;" xml:space="preserve">
<g>
	<path style="fill:#224C2B;" d="M1576,757.051c-525.333,0-1050.667,0-1576,0c0-252.333,0-504.667,0-757c525.333,0,1050.667,0,1576,0
		C1576,252.384,1576,504.717,1576,757.051z M153.928,147.133c0.205,0.356,0.312,1.005,0.853,0.292
		c0.015-0.019-0.393-0.358-0.603-0.549c0.164-1.796-0.838-3.195-1.737-4.544c-2.93-4.4-5.911-8.77-9.009-13.053
		c-0.793-1.097-1.512-2.555-3.363-2.729c-0.018,4.528-0.351,8.965,0.226,13.685C145.175,141.894,149.092,145.373,153.928,147.133z
		 M219.215,190.832c4.169,0.941,7.383,3.692,10.845,5.899c7.469,4.761,15.166,8.919,23.899,10.874
		c10.339,2.314,19.777,6.659,28.491,12.654c1.638,1.127,3.412,2.063,5.152,3.036c0.972,0.544,1.976,1.291,3.129,0.311
		c0.445-1.832-0.447-3.233-1.259-4.619c-7.637-4.163-14.403-9.655-22.321-13.24c-4.274-1.935-8.008-4.695-11.277-8.1
		c-2.42-2.521-5.222-4.614-8.098-6.59c-8.486-5.829-17.034-11.568-25.451-17.494c-2.156-1.518-4.017-3.502-5.828-5.445
		c-1.434-1.539-2.679-3.309-2.363-5.708c1.466,0.095,2.31,0.923,3.265,1.522c7.456,4.68,15.388,8.519,22.944,13.048
		c5.663,3.395,12.005,5.772,17.255,9.845c8.504,6.598,18.719,9.832,28.177,15.289c0.449-3.816,0.272-7.241-0.12-10.683
		c-0.41-3.609-2.366-5.979-5.384-7.888c-3.077-1.945-6.162-3.909-8.868-6.43c-3.168-2.953-6.785-5.278-10.699-7.23
		c-9.069-4.523-18.072-9.184-27.013-13.956c-6.755-3.605-13.203-7.765-18.939-12.846c-3.165-2.804-6.774-5.463-7.724-10.054
		l-0.056,0.054c1.393-0.379,2.116,0.73,3.016,1.393c7.947,5.852,16.757,10.173,25.679,14.238
		c14.946,6.81,30.451,12.482,44.043,22.002c0.215,0.151,0.628,0.019,1.46,0.019c-0.428-7.489-3.207-14.425-4.59-21.725
		c-1.473-0.694-2.818-1.324-4.159-1.961c-13.358-6.342-26.898-12.35-39.277-20.546c-1.798-1.19-3.547-1.564-5.598-1.559
		c-14.826,0.039-29.653,0.007-44.479,0.046c-1.245,0.003-2.652-0.508-3.853,0.769c0.202,0.562,0.418,1.173,0.64,1.782
		c8.693,23.846,20.061,46.641,27.626,70.947c2.056,6.605,5.447,12.813,10.358,18.011c5.893,6.237,13.316,9.875,21.212,12.591
		c17.105,5.882,34.099,12.043,50.795,19.015c3.597,1.502,6.912,3.736,11.118,4.605c-1.196-7.37-3.769-13.2-11.199-15.878
		c-4.708-1.697-8.884-4.544-12.834-7.592c-4.523-3.49-9.571-5.935-14.722-8.283c-6.043-2.754-12.369-5.128-17.651-9.19
		c-6.072-4.67-12.222-9.132-18.847-13.004c-2.941-1.719-5.767-3.984-6.832-7.601L219.215,190.832z M324.187,128.856
		c2.843,0.681,4.955,2.657,7.283,4.212c6.503,4.344,12.858,9.136,20.277,11.642c11.56,3.906,22.031,10.129,33.25,14.719
		c2.138,0.875,4.189,2.079,6.081,3.414c6.834,4.821,14.722,7.716,21.809,12.066c0.329,0.202,0.936-0.049,1.741-0.117
		c0.173-4.654,0.429-9.241-0.169-13.886c-4.438-2.331-8.703-4.546-12.945-6.806c-16-8.522-31.713-17.544-47.049-27.213
		c-2.022-1.275-4.102-1.9-6.56-1.886c-15.665,0.092-31.33,0.034-46.996,0.072c-1.211,0.003-2.622-0.503-3.7,0.777
		c8.138,22.042,13.171,44.842,17.68,67.764c4.691,23.844,10.955,47.107,22.674,68.656c2.623,4.823,5.582,8.951,10.08,12.057
		c3.707,2.56,7.546,4.88,11.644,6.72c20.154,9.048,40.335,18.037,60.506,27.045c1.207,0.539,2.392,1.022,3.305,2.111
		c2.22,2.646,5.331,3.584,8.648,4.439c0.107-0.761,0.307-1.265,0.222-1.715c-1.648-8.791-3.337-17.574-4.992-26.363
		c-0.165-0.875-0.567-1.593-1.23-2.101c-5.271-4.043-9.867-8.98-15.723-12.233c-4.083-2.268-8.16-4.463-11.421-7.915
		c-1.152-1.219-2.674-2.103-4.295-2.446c-5.226-1.107-9.225-4.4-13.496-7.243c-7.459-4.965-14.296-10.841-22.574-14.611
		c-7.652-3.485-14.106-8.737-19.782-14.94c-1.985-2.17-3.611-4.507-4.549-7.617c2.612,0.365,3.861,1.818,5.233,3.277
		c3.305,3.516,6.745,7.154,11.287,8.849c11.073,4.132,21.58,9.488,32.384,14.189c4.332,1.885,7.733,5.401,12.161,6.734
		c8.167,2.458,14.76,7.432,21.576,12.171c2.313,1.608,4.239,3.948,7.333,4.753c0.441-5.174-1.132-9.851-0.995-14.711
		c-1.658-1.076-3.188-2.057-4.707-3.054c-11.686-7.671-24.167-13.978-36.186-21.081c-8.404-4.967-16.031-11.389-25.721-14.031
		c-0.919-0.25-1.707-1.018-2.528-1.585c-6.841-4.725-13.495-9.712-19.869-15.039c-3.549-2.966-5.532-7.053-7.253-11.897
		c3.187,0.408,4.517,1.919,5.895,3.658c1.617,2.041,2.732,4.512,5.362,5.758c7.211,3.416,14.267,7.161,21.498,10.532
		c15.808,7.371,32.004,13.905,47.472,22.011c4.222,2.213,8.428,4.454,13.041,6.893c-0.186-3.779-1.466-6.92-1.698-10.15
		c-0.255-3.555-2.02-5.252-5.026-6.615c-7.439-3.376-14.546-7.336-20.646-12.902c-0.965-0.88-2.156-1.62-3.372-2.098
		c-5.591-2.201-10.129-6.14-15.188-9.203c-4.469-2.706-7.19-7.922-12.725-9.306c-0.421-0.105-0.762-0.631-1.086-1.008
		c-2.216-2.575-5.14-4.191-7.969-5.943c-4.099-2.537-8.308-4.922-12.233-7.705c-3.135-2.224-6.344-4.566-8.207-8.875
		c4.009,0.29,6.752,2.132,9.5,3.861c3.938,2.478,7.759,5.164,12.049,7.017c3.819,1.649,7.509,3.503,11.124,5.577
		c5.62,3.224,11.267,6.474,17.172,9.109c6.493,2.897,12.807,6.018,18.642,10.079c2.322,1.616,4.553,3.378,6.969,4.836
		c2.305,1.391,4.636,2.895,7.578,3.332c0-4.724,0-9.008,0-13.09c-2.622-2.257-5.036-4.348-7.851-5.777
		c-11.261-5.715-21.253-13.464-32.078-19.898c-10.133-6.022-19.93-12.613-30.388-18.108c-3.831-2.013-7.487-4.369-10.798-7.144
		c-3.927-3.291-8.152-6.41-9.892-11.6C323.912,129.138,324.05,128.997,324.187,128.856z M245.999,406.052
		c-3.747,0.465-7.171-1.069-10.741-1.711c-1.942-0.349-4.049-1.134-5.834,0.123c-4.734,3.336-9.925,6.035-14.486,10.047
		c4.562,3.691,8.924,7.22,13.532,10.948c21.584-14.159,43.216-28.059,69.988-29.997c-0.202,1.332-1.102,1.923-1.975,2.311
		c-5.31,2.363-10.271,5.549-15.621,7.657c-6.732,2.653-12.866,6.089-18.735,10.201c-3.265,2.288-6.701,4.335-10.079,6.461
		c-4.912,3.091-10.059,5.867-14.148,10.638c4.179,3.708,8.849,6.5,13.235,9.288c1.555-0.152,2.355-1.09,3.337-1.687
		c12.933-7.876,26.154-15.202,40.344-20.599c9.143-3.478,18.673-5.925,27.345-10.657c5.251-2.866,10.756-5.246,16.415-7.203
		c2.041-0.706,3.636-1.898,4.698-3.438c3.927,1.486,6.841-0.544,9.737-1.925c8.927-4.256,18.074-7.528,28.13-7.423
		c1.733,0.018,3.476-0.393,4.71-1.415c3.949-3.272,8.773-3.705,13.473-4.612c2.928-0.565,5.862-1.092,8.793-1.642
		c12.763-2.396,25.584-4.035,38.623-3.378c2.967,0.15,5.801,1.674,9.396,0.628c-15.827-16.708-33.324-30.75-53.334-41.658
		c-23.054-12.566-50.386-18.611-64.514-18.38c1.488,0.602,2.536,1.065,3.612,1.454c7.505,2.713,14.904,5.742,21.908,9.525
		c11.784,6.364,23.822,12.237,34.656,20.369c4.997,3.751,9.62,8.096,15.113,11.238c1.542,0.882,2.745,2.414,3.977,3.763
		c1.278,1.399,2.104,2.991,0.818,5.071c-2.826-1.156-4.937-3.254-7.176-5.21c-3.249-2.838-6.235-6.17-10.286-7.806
		c-6.095-2.462-11.295-6.264-16.53-10.065c-4.063-2.95-8.465-5.319-13.096-7.194c-18.607-7.533-37.189-15.142-56.907-19.451
		c-6.508-1.422-12.987-2.88-19.711-2.311c-2.898,0.246-5.824,0.473-8.563,2.604c7.459,1.898,14.477,3.867,21.58,5.456
		c19.551,4.374,35.607,14.943,50.308,27.989l0.031-0.03c-2.733,0.401-4.676-1.487-6.914-2.453
		c-16.398-7.078-31.794-16.555-49.737-19.918c-6.967-1.306-13.42-4.798-20.453-6.052c-4.031-0.718-7.992-1.504-12.284-0.998
		c-9.488,1.12-18.481,4.056-27.421,6.976c-13.073,4.27-25.969,9.087-39.16,13.025c-0.984,0.294-2.426,0.113-2.935,1.857
		c3.665,2.25,5.836,6.662,10.939,7.663c10.868-4.958,21.905-10.297,34.71-8.203c-8.667,6.021-19.74,6.615-28.718,12.513
		c3.696,3.751,7.459,2.862,11.063,1.417c11.15-4.472,22.628-7.547,34.616-8.567c5.908-0.503,11.648-0.082,16.765,3.463
		c-16.562,0.099-32.45,2.245-46.263,12.672c2.715,2.613,6.401,4.011,9.863,5.855c5.413-1.992,10.627-4.072,16.139-5.354
		c5.796-1.347,11.637-2.515,17.322-4.424c4.863-1.633,9.995-2.33,14.688-0.05c-13.938,3.91-28.103,7.752-41.736,14.743
		c5.376,4.241,10.41,5.74,16.18,2.802c2.666-1.357,5.352-2.681,8.065-3.94c2.982-1.385,3.259-1.361,7.2-0.281
		c-7.644,2.655-14.563,5.81-20.956,10.005c-6.438,4.224-12.845,8.496-19.124,12.652c1.489,3.39,4.636,4.187,6.133,6.614
		L245.999,406.052z M476.979,140.077c1.09-0.134,1.915,0.519,2.758,1.01c5.178,3.013,10.633,5.454,16.031,8.028
		c5.534,2.639,11.538,4.318,16.542,8.065c5.207,3.899,10.842,7.098,16.69,9.929c9.723,4.706,19.633,9.067,29.113,14.22
		c7.655,4.161,14.912,9.035,23.583,11.339c0.727-1.811,0.685-3.652-0.995-5.229c-1.415-1.328-2.17-3.152-2.302-4.877
		c-0.277-3.605-2.597-5.142-5.378-6.516c-2.377-1.175-5.108-1.975-6.758-4.139c-5.427-7.117-13.878-9.364-21.255-13.25
		c-3.635-1.915-7.626-3.25-11.326-5.146c-15.011-7.693-28.183-18.083-41.379-28.191c-17.05,0-33.987,0-50.962,0
		c-0.175,0.709-0.391,1.171-0.389,1.633c0.123,25.469,0.036,50.942,1.133,76.397c0.022,0.499,0.023,1.001,0.082,1.496
		c1.277,10.697,2.406,21.415,3.89,32.083c1.323,9.512,3.03,18.971,4.588,28.449c2.183,13.273,6.315,26.069,9.636,39.062
		c2.299,8.994,4.67,17.98,8.612,26.452c0.858,1.843,1.851,3.345,3.688,4.495c6.62,4.145,13.202,8.367,19.62,12.816
		c17.789,12.332,34.397,26.171,50.694,40.376c10.658,9.29,21.07,18.861,31.628,28.266c2.43,2.165,5.007,4.166,8.081,6.71
		c0-21.209,0-41.607,0-62.259c-6.12-5.353-12.745-10.353-19.496-15.176c-12.716-9.084-25.515-18.052-38.263-27.091
		c-8.674-6.151-16.38-13.611-25.585-19.041c-5.098-3.007-9.281-7.069-13.052-11.508c-2.898-3.412-6.284-6.603-7.922-11.667
		c2.688,1.099,3.946,2.91,5.502,4.339c1.59,1.46,2.854,3.327,4.841,4.289c3.506,1.698,6.36,4.199,9.112,6.889
		c2.51,2.455,5.262,4.506,8.874,5.222c1.779,0.352,3.389,1.361,4.816,2.547c8.232,6.841,17.46,12.12,26.839,17.168
		c7.463,4.017,14.955,7.984,22.359,12.109c5.97,3.327,11.131,7.858,16.811,11.623c1.294,0.858,2.442,2.2,4.418,1.785
		c0-4.803,0-9.417,0-14.039c-3.87-2.879-7.538-5.746-11.346-8.412c-8.717-6.1-17.486-12.125-26.268-18.129
		c-3.156-2.158-5.568-5.217-9.034-7.025c-4.434-2.313-8.407-5.365-12.224-8.578c-7.386-6.217-14.814-12.313-23.878-16.072
		c-2.909-1.206-5.4-3.233-7.738-5.412c-5.378-5.012-10.064-10.649-14.741-16.282c-1.503-1.81-3.289-3.724-2.916-6.533
		c1.544-0.151,2.44,0.939,3.512,1.62c4.401,2.797,7.861,6.657,11.596,10.218c3.604,3.436,7.148,7.096,11.81,9.049
		c5.034,2.108,9.018,6.291,14.651,7.201c0.875,0.141,1.598,1.148,2.416,1.719c5.317,3.711,10.546,7.558,15.988,11.075
		c5.53,3.574,11.61,6.153,17.236,9.673c9.57,5.988,19.61,11.228,28.732,17.956c0.578,0.427,1.255,1.111,2.256,0.541
		c0-8.262,0-16.561,0-25.136c-4.643-2.884-9.292-5.765-13.935-8.657c-11.798-7.351-24.843-12.931-34.047-23.97
		c-0.211-0.253-0.477-0.471-0.749-0.66c-11.895-8.223-23.452-17.003-35.789-24.498c-12.014-7.298-21.104-17.113-28.883-28.457
		c-0.848-1.236-2.251-2.598-0.965-4.785c3.833,4.328,7.504,8.618,11.625,12.47c5.991,5.6,12.349,10.617,20.294,13.251
		c2.196,0.728,4.575,1.396,6.368,2.753c6.163,4.666,13.18,7.735,19.97,11.235c5.036,2.596,10.092,5.26,14.308,9.023
		c7.245,6.466,15.045,12.013,23.703,16.405c5.996,3.042,12.087,5.891,18.195,9.741c0-9.016,0-17.302,0-25.844
		c-4.398-2.376-8.724-4.815-13.14-7.081c-10.812-5.55-21.652-11.127-30.982-18.991c-6.657-5.611-13.763-10.51-21.272-14.76
		c-15.303-8.661-28.097-20.05-38.62-34.056c-1.335-1.777-2.945-3.701-1.13-6.439c4.292,1.708,7.886,4.328,10.95,7.59
		c8.012,8.53,17.526,15.324,26.294,22.978c2.124,1.855,4.6,3.354,7.285,4.275c4.628,1.589,8.633,4.23,12.584,6.994
		c2.869,2.007,5.901,3.715,9.004,5.336c8.404,4.389,16.968,8.445,25.684,12.156c4.313,1.837,8.375,4.354,13.134,5.603
		c0-7.33,0-14.261,0-21.092c-0.971-0.557-1.66-1.029-2.409-1.37c-17.15-7.813-33.171-17.553-48.588-28.339
		c-2.165-1.515-4.23-3.208-6.79-4.131c-3.786-1.364-7.238-3.367-10.268-6.022c-2.665-2.336-5.686-4.045-8.939-5.369
		c-3.6-1.465-6.795-3.454-9.308-6.497c-1.94-2.349-4.611-3.766-7.188-5.298c-2.571-1.529-5.158-3.05-7.593-4.779
		c-1.7-1.206-3.729-2.333-3.684-4.917L476.979,140.077z M554.812,494.246c-4.127-2.348-6.933-6.089-10.052-9.506
		c-6.075-6.653-12.39-13.097-20.381-17.436c-3.826-2.078-7.37-4.455-10.838-7.042c-8.252-6.154-16.25-12.616-25.211-17.846
		c-6.146-3.587-12.763-6.477-18.242-11.216c-5.092-4.404-10.999-7.348-17.44-9.362c-2.989-0.935-5.717-2.546-8.992-2.743
		c-7.668-0.461-15.168,1.174-22.804,1.45c11.041,3.949,21.592,8.778,31.785,14.379c10.044,5.519,20.255,10.728,29.576,17.515
		c16.382,11.929,24.504,18.638,26.26,22.298c-1.446,0.907-2.774,0.104-3.607-0.758c-4.288-4.439-10.094-6.36-15.216-9.392
		c-9.15-5.416-17.88-11.544-27.546-16.089c-6.774-3.185-13.302-6.827-19.526-11.016c-4.847-3.261-10.027-5.896-15.731-7.348
		c-6.119-1.557-12.097-3.508-17.942-5.911c-2.133-0.877-4.411-1.602-6.686-1.892c-5.063-0.647-10.144-0.839-15.194,2.524
		c7.837,3.546,15.223,6.867,22.591,10.226c9.692,4.418,19.3,9.091,27.928,15.338c6.325,4.579,12.537,9.315,19.008,13.7
		c2.751,1.864,5.359,3.938,8.029,5.921c11.883,8.826,22.864,18.807,34.991,27.324c1.011,0.71,2.21,1.492,2.019,3.475
		c-1.769-0.097-3.052-1.022-4.392-1.941c-1.915-1.315-3.862-2.599-5.884-3.738c-8.979-5.056-18.059-9.948-26.481-15.923
		c-11.248-7.98-22.801-15.525-34.271-23.157c-18.053-12.012-38.317-19.774-58.228-28.048c-5.523,2.148-11.59,2.319-17.037,5.582
		c3.085,1.527,5.737,2.903,8.443,4.166c8.905,4.157,17.596,8.712,25.24,14.945c4.809,3.921,10.095,6.996,15.493,9.953
		c2.038,1.116,4.109,2.225,5.962,3.61c1.892,1.414,3.72,3.037,4.309,5.566c-1.402,0.54-2.466,0.385-3.234-0.181
		c-6.162-4.541-12.825-8.219-19.622-11.69c-1.012-0.517-1.795-1.473-2.708-2.195c-0.78-0.617-1.537-1.298-2.403-1.768
		c-13.178-7.142-27.137-12.504-41.048-17.975c-2.184-0.859-4.353-0.67-6.201,0.449c-4.962,3.005-10.354,5.634-14.535,9.528
		c-8.941,8.327-18.927,15.186-28.826,22.193c-4.05,2.867-7.913,6.05-12.605,7.983c-10.935,4.505-21.013,10.728-31.566,16.004
		c-1.255,0.627-2.371,1.532-3.757,2.443c3.255,2.36,5.824,5.011,9.427,6.484c5.031-2.484,10.078-5.017,15.161-7.476
		c19.778-9.569,39.828-18.288,62.108-20.212c4.354-0.376,8.27,0.254,12.176,2.962c-2.644,1.574-4.374-0.599-6.372-0.141
		c-3.391,0.777-6.84,1.317-10.202,2.196c-18.088,4.727-35.302,11.686-51.601,20.818c-4.404,2.467-9.132,4.526-12.992,7.983
		c1.375,1.868,2.79,3.285,4.436,4.423c1.693,1.17,3.457,1.74,5.618,0.909c8.978-3.449,18.283-5.952,27.224-9.545
		c11.077-4.451,22.215-8.779,33.882-11.531c1.816-0.428,3.576-0.648,5.41-0.059c-0.841,0.767-1.71,1.35-2.643,1.48
		c-3.401,0.474-6.306,2.065-9.09,3.892c-4.04,2.65-8.155,5.178-12.552,7.168c-10.443,4.726-20.94,9.333-31.423,13.972
		c-1.178,0.521-2.577,0.729-2.87,2.542c6.855,5.215,14.449,9.371,21.576,14.222c3.852,2.622,7.541,2.961,11.593,0.69
		c1.88-1.054,3.937-1.789,5.856-2.78c8.568-4.424,16.986-9.161,25.703-13.265c10.212-4.808,20.68-9.072,31.029-13.588
		c0.978-0.427,1.897-1.172,3.144-0.178c-4.807,5.637-9.847,10.556-17.165,12.488c-3.255,0.859-6.118,2.553-8.357,5.185
		c-1.534,1.803-3.544,2.952-5.62,4.066c-3.84,2.061-7.987,3.266-12.055,4.704c-0.455,0.161-0.881,0.401-1.145,0.524
		c-0.915,1.071-0.193,2.546-1.331,3.319c-4.827,3.029-10.077,5.286-15.486,7.819c2.562,3.026,5.649,3.837,8.366,5.221
		c3.155-1.577,6.121-3.071,9.096-4.546c16.845-8.353,34.033-15.79,52.521-19.799c1.369-0.297,2.613-0.826,4.996,0.411
		c-21.197,6.899-39.397,17.512-58.152,28.731c7.751,3.837,14.707,7.28,21.486,10.637c1.006-0.513,1.639-0.745,2.171-1.12
		c10.613-7.483,21.928-13.805,33.205-20.197c3.91-2.216,7.861-4.333,11.987-6.11c5.658-2.436,13.705-3.835,18.204-3.124
		c-6.714,4.954-13.486,9.438-20.447,13.631c-10.536,6.347-21.303,12.324-31.201,19.677c-1.124,0.835-2.721,1.364-2.723,3.32
		c5.036,2.538,10.045,5.062,15.418,7.77c14.651-15.221,33.285-24.301,51.182-34.482c3.324-1.891,6.842-3.332,10.821-1.31
		c-1.643,1.727-4.216,2.424-4.861,5.608c4.466,4.292,10.431,6.964,15.439,11.183c9.973-6.908,19.725-13.743,30.199-20.039
		c-2.697-3.67-5.959-5.912-9.265-8.102c-4.441-2.941-8.917-5.843-12.465-9.897c-1.229-1.405-2.738-2.755-2.403-4.979
		c1.574-0.059,2.511,0.713,3.475,1.299c7.961,4.843,15.887,9.753,22.917,15.923c1.826,1.603,3.834,2.488,5.858,1.165
		c2.291-1.497,4.77-2.928,6.629-5.454c-10.234-7.985-21.489-14.056-32.238-21.606c6.46-0.719,12.31,0.65,16.781,3.551
		c7.648,4.962,15.337,9.862,22.666,15.205c5.733-2.847,11.122-5.524,16.6-8.245c-3.956-4.007-9.516-4.488-12.803-8.688
		c8.677-2.313,13.804,3.872,18.628,7.07c16.253-0.462,29.028-8.556,43.41-12.059c-2.792-8.74-7.437-16.174-12.671-23.272
		c-8.046-10.912-17.956-20.097-27.656-29.456c-12.566-12.123-26.541-22.112-43.308-27.709c-6.561-2.19-13.2-3.996-20.771-4.77
		c3.13,3.784,6.793,5.823,10.364,7.823c10.194,5.707,19.83,12.151,28.531,19.989c4.444,4.003,8.797,8.249,13.787,11.461
		c4.913,3.163,8.544,7.055,11.783,11.832c4.263,6.286,9.215,12.126,16.146,15.913c0.632,1.818,1.282,3.686,1.931,5.553
		C555.149,493.897,554.982,494.072,554.812,494.246z M773.633,628.957c12.763,0,25.332,0,38.414,0c0-16.663,0-33.228,0-49.685
		c7.673-1.432,13.733,1.81,16.828,6.909c0.861,1.418,1.724,2.838,2.513,4.296c6.246,11.533,12.453,23.086,18.736,34.599
		c0.769,1.408,1.189,3.117,2.58,3.947c27.469,0,54.762,0,82.25,0c2.065-6.732,4.093-13.342,6.068-19.781c14.875,0,29.304,0,43.615,0
		c2.127,6.787,4.154,13.256,6.186,19.742c13.419,0,26.531,0,40.037,0c-15.538-41.45-30.949-82.564-46.389-123.753
		c-14.151,0-28.104,0-42.159,0c-15.524,41.045-30.999,81.964-46.647,123.337c-0.842-1.508-1.427-2.502-1.961-3.522
		c-5.463-10.444-10.744-20.987-16.428-31.309c-4.549-8.262-10.105-15.703-19.721-18.759c-0.417-0.133-0.464-0.468,0.012-0.926
		c1.115-0.341,2.55-0.731,3.951-1.219c6.048-2.106,11.482-5.144,15.755-10.074c8.601-9.924,10.236-21.358,6.973-33.618
		c-3.239-12.171-11.163-19.678-23.65-22.216c-5.726-1.164-11.486-1.875-17.329-1.876c-22-0.005-44-0.007-66,0.011
		c-1.134,0.001-2.321-0.28-3.634,0.505C773.633,546.521,773.633,587.608,773.633,628.957z M769.51,292.156
		c1.476-1.46,1.566-2.709,1.958-3.778c15.523-42.337,31.033-84.68,46.543-127.022c3.421-9.341,6.882-18.667,10.234-28.033
		c1.572-4.393,0.262-6.363-4.366-6.405c-10.661-0.097-21.325,0.031-31.986-0.068c-3.136-0.029-5.036,1.239-5.95,4.175
		c-0.246,0.79-0.611,1.543-0.914,2.316c-8.334,21.305-16.648,42.618-25.04,63.901c-0.558,1.416-0.547,3.344-2.537,4.055
		c-0.517-1.658-1.012-3.236-1.502-4.816c-6.674-21.54-13.342-43.083-20.027-64.62c-1.255-4.042-2.202-4.766-6.389-4.801
		c-5.497-0.046-10.995-0.031-16.493-0.006c-5.25,0.024-5.486,0.195-7.05,5.119c-5.372,16.911-10.715,33.831-16.099,50.738
		c-2.016,6.33-4.111,12.635-6.247,19.188c-1.553-1.797-1.923-3.63-2.57-5.31c-8.336-21.663-16.621-43.346-24.932-65.019
		c-1.912-4.987-2.339-5.289-7.619-5.317c-6.164-0.032-12.328-0.009-18.492-0.008c-4.165,0.001-8.335-0.123-12.493,0.046
		c-3.631,0.148-5.134,1.974-4.64,5.536c0.247,1.782,0.902,3.528,1.522,5.236c9.848,27.115,19.737,54.215,29.582,81.33
		c8.092,22.287,16.121,44.597,24.226,66.88c0.895,2.459,1.673,5.096,4.227,6.419c6.398,0,12.708,0,18.891,0
		c0.523-0.456,1.078-0.707,1.243-1.116c9.291-23.056,18.549-46.125,27.822-69.221c0.932,0.784,1.228,1.863,1.638,2.926
		c6.973,18.103,13.976,36.194,20.984,54.283c1.258,3.247,2.568,6.474,3.849,9.713c0.772,1.951,1.834,3.643,4.207,3.662
		C757.23,292.188,763.37,292.156,769.51,292.156z M983.385,317.628c-1.462,4.158-1.569,156.788-0.181,161.186
		c3.324,1.331,37.077,1.73,43.159,0.489c1.856-1.635,1.359-3.911,1.364-6.017c0.029-14.328,0.017-28.656,0.019-42.985
		c0-1.626,0-3.251,0-5.12c5.64,0,10.894,0,16.278,0c4.957,9.434,9.899,18.828,14.829,28.229c3.7,7.056,7.381,14.121,11.074,21.18
		c1.613,3.083,3.571,5.431,7.597,5.385c11.661-0.133,23.325-0.053,34.987-0.041c1.887,0.002,3.647-0.198,5.052-2.637
		c-10.18-17.991-20.509-36.246-30.914-54.635c12.955-4.89,21.189-13.79,25.469-26.254c5.811-16.925,6.07-34.026-0.296-50.806
		c-6.521-17.191-21.079-29.108-41.235-28.694c-27.146,0.557-54.311,0.131-81.468,0.156
		C987.315,317.066,985.458,316.705,983.385,317.628z M887.01,292.209c3.016-1.954,2.953-4.293,2.949-6.671
		c-0.024-16.492-0.026-32.985,0.014-49.477c0.003-1.256-0.508-2.653,0.489-3.73c15.819,0,31.553,0,47.544,0c0,1.918,0,3.557,0,5.197
		c0,16.159-0.023,32.319,0.011,48.478c0.011,5.206,0.963,6.139,6.097,6.197c4.331,0.049,8.663,0.01,12.994,0.01
		c8.152,0,16.304,0,23.804,0c3.408-1.791,3.093-4.38,3.092-6.881C983.998,234.856,984,184.379,984,133.902
		c0-0.666-0.023-1.334,0.002-1.999c0.074-1.988-0.699-3.541-2.526-4.806c-13.616,0-27.413,0-40.836,0
		c-2.942,1.835-2.638,4.419-2.637,6.919c0.007,16.992,0.021,33.985-0.025,50.977c-0.004,1.58,0.589,3.319-0.607,4.683
		c-15.726,0-31.329,0-46.948,0c-0.815-1.756-0.454-3.435-0.457-5.051c-0.03-16.826-0.028-33.651-0.008-50.477
		c0.003-2.528,0.12-5.048-2.522-7.032c-13.471,0-27.264,0-40.793,0c-3.202,1.759-2.689,4.583-2.689,7.208
		c-0.007,50.144-0.005,100.288-0.005,150.432c0,0.833-0.039,1.668,0.011,2.498c0.215,3.603,1.3,4.896,4.837,4.92
		C861.615,292.262,874.435,292.209,887.01,292.209z M1080.482,294.421c31.979-0.171,52.51-9.81,68.426-28.523
		c19.086-22.439,24.751-48.571,17.974-77.025c-9.622-40.396-48.152-69.21-90.109-62.972c-18.839,2.801-34.965,10.906-47.57,24.93
		c-21.219,23.607-28.051,51.309-19.995,82.052C1018.791,269.458,1052.67,295.213,1080.482,294.421z M1337.049,379.894
		c0-5.567,0-10.707,0-15.847c0-5.166,0-10.332,0-15.498s0.09-10.334-0.026-15.498c-0.115-5.086,0.534-10.227-0.446-15.109
		c-5.227-1.417-40.599-1.173-44.283,0.308c0,53.278,0,106.691,0,159.98c1.224,1.707,2.888,1.704,4.582,1.702
		c11.832-0.013,23.664-0.013,35.496-0.001c1.699,0.002,3.369,0.021,4.813-2.473c0-18.671,0-38.105,0-57.66
		c18.064,0,35.686,0,53.87,0c0,19.716,0,39.298,0,58.195c1.825,2.134,3.543,1.931,5.2,1.932c11.665,0.002,23.33,0,34.996,0.001
		c1.661,0,3.368,0.149,4.467-1.448c1.134-8.767,0.632-157.231-0.536-160.699c-4.897-1.25-40.162-0.996-44.091,0.547
		c0,20.309,0,40.865,0,61.568C1372.885,379.894,1355.275,379.894,1337.049,379.894z M681.199,356.927c2.303,0,4.123,0,5.942,0
		c25.987,0,51.974,0.009,77.961-0.007c5.271-0.003,5.813-0.528,5.829-5.631c0.032-9.662,0.01-19.324,0.007-28.986
		c-0.001-1.817,0.251-3.726-1.622-4.909c-10.864-1.144-129.208-0.598-132.625,0.609c-0.93,3.622-1.117,155.46-0.199,160.622
		c0.707,0.76,1.56,1.238,2.613,1.266c1.165,0.031,2.332,0.034,3.498,0.034c40.646,0.001,81.293,0.008,121.939-0.018
		c2.093-0.001,4.385,0.603,6.072-1.319c1.159-6.568,0.766-34.749-0.751-38.675c-29.327,0-58.886,0-88.584,0
		c0-7.001,0-13.422,0-20.258c1.848,0,3.475,0,5.103,0c10.828,0,21.656,0.011,32.484-0.01c2.124-0.004,4.408,0.43,6.04-1.797
		c0-12.165,0-24.444,0-36.399c-1.756-1.903-3.695-1.375-5.471-1.381c-11.494-0.036-22.989,0-34.483-0.045
		c-1.255-0.005-2.673,0.526-3.753-0.642C681.199,372.074,681.199,364.788,681.199,356.927z M1433.248,126.885
		c-1.777,0-3.763,0-5.75,0c-26.332,0-52.664,0-78.996,0c-5.666,0-11.333-0.053-16.999,0.018c-4.534,0.057-5.495,1.079-5.651,5.649
		c-0.04,1.165-0.007,2.333-0.007,3.5c0,42.831-0.001,85.663-0.001,128.494c0,7.333-0.056,14.667,0.022,21.999
		c0.05,4.678,0.98,5.645,5.603,5.65c32.999,0.036,65.997,0.034,98.996,0.004c4.798-0.004,5.825-1.036,5.885-5.928
		c0.091-7.332,0.034-14.666,0.02-21.999c-0.007-3.499,0.108-7.009-0.14-10.492c-0.227-3.188-1.609-4.339-4.801-4.583
		c-1.16-0.089-2.332-0.022-3.499-0.022c-17.166-0.001-34.332,0.014-51.498-0.027c-1.428-0.003-2.98,0.512-4.305-0.522
		c0-5.451,0-10.855,0-16.574c1.897,0,3.534,0,5.17,0c9.833,0,19.666,0.019,29.499-0.007c5.861-0.016,7.032-1.164,7.054-6.975
		c0.036-9.499,0.036-18.999,0.001-28.499c-0.022-5.873-1.194-7.085-6.977-7.111c-10.333-0.046-20.666,0.007-30.999-0.042
		c-1.246-0.006-2.655,0.514-3.66-0.531c0-6.355,0-12.58,0-18.961c7.009,0,13.662,0,20.316,0c12.333,0,24.666,0.031,36.998-0.016
		c4.649-0.018,6.412-1.511,6.444-5.618c0.081-10.666,0.004-21.332,0.047-31.998C1436.029,130.311,1435.363,128.734,1433.248,126.885
		z M865.122,315.286c-1.893,1.485-2.41,3.271-3.155,4.928c-16.32,36.309-32.64,72.618-48.975,108.921
		c-6.534,14.521-13.121,29.017-19.637,43.547c-0.99,2.208-2.528,4.507-0.28,6.867c0.335,0.154,0.635,0.411,0.937,0.412
		c12.83,0.044,25.66,0.054,38.49,0.098c2.361,0.008,3.51-1.322,4.432-3.316c1.51-3.267,2.541-6.788,4.496-9.597
		c22.978,0,45.604,0,68.079,0c2.501,4.184,3.459,8.877,6.575,12.78c12.938,0,25.918-0.008,38.898,0.009
		c1.836,0.002,3.258-0.553,3.915-2.398c-4.358-12.077-70.905-159.402-73.332-162.249
		C878.844,315.286,872.025,315.286,865.122,315.286z M1043.718,505.172c0,41.551,0,82.639,0,123.697
		c8.141,0.84,32.509,0.531,36.231-0.503c0-21.851,0-43.784,0-66.85c15.88,23.196,31.142,45.489,46.352,67.706
		c6.393,0,12.387,0.045,18.38-0.013c5.912-0.057,11.843,0.248,17.674-0.173c0-41.648,0-82.717,0-123.762
		c-12.314-0.802-32.419-0.476-36.324,0.644c0,22.158,0,44.404,0,67.747c-15.865-23.412-31.125-45.932-46.413-68.493
		C1067.707,505.172,1055.895,505.172,1043.718,505.172z M637.673,505.047c0,41.705,0,82.776,0,123.765
		c1.899,0.669,3.58,0.391,5.229,0.392c19.49,0.022,38.98-0.044,58.47,0.042c8.197,0.036,16.279-0.979,24.299-2.41
		c4.89-0.873,9.595-2.45,13.674-5.627c8.881-6.919,13.424-16.035,13.422-27.146c-0.002-12.262-4.97-21.908-16.47-27.382
		c-2.629-1.251-5.45-2.1-8.273-3.167c0.944-1.715,2.762-1.868,4.151-2.653c4.422-2.5,8.216-5.662,10.803-10.099
		c8.807-15.109,2.709-34.369-13.171-41.792c-6.475-3.026-13.318-3.939-20.374-3.932c-22.822,0.024-45.643,0.009-68.465,0.008
		C639.977,505.047,638.986,505.047,637.673,505.047z M1178.131,357.24c0,13.8,0,27.122,0,40.444c0,25.326-0.008,50.653,0.006,75.979
		c0.003,5.6,0.68,6.248,6.368,6.262c7.498,0.018,14.996,0.005,22.494,0.005c3.999,0,7.999,0.07,11.996-0.021
		c3.781-0.086,4.612-0.976,4.79-4.77c0.055-1.164,0.011-2.332,0.011-3.499c0-36.323,0-72.646,0-108.97c0-1.785,0-3.57,0-5.741
		c2.093,0,3.719,0,5.346,0c11.164,0,22.327,0.028,33.491-0.014c4.561-0.017,5.263-0.701,5.286-5.178
		c0.05-9.83,0.007-19.661,0.023-29.492c0.003-1.862,0.027-3.698-1.964-5.029c-0.449-0.043-1.101-0.16-1.752-0.16
		c-41.822-0.009-83.643-0.018-125.465,0.005c-4.188,0.002-4.787,0.644-4.806,5.023c-0.046,10.164-0.02,20.328-0.008,30.491
		c0.001,1.151-0.16,2.35,0.61,3.371c0.256,0.211,0.498,0.586,0.77,0.61C1149.405,357.757,1163.53,356.553,1178.131,357.24z
		 M1188.794,629.215c2.012,0,3.644,0,5.277,0c16.491,0,32.982-0.042,49.473,0.023c5.673,0.022,11.286-0.273,16.896-1.224
		c16.777-2.843,28.981-11.751,36.487-27.051c3.342-6.812,4.849-14.11,5.547-21.586c1.278-13.696,0.902-27.306-3.592-40.455
		c-4.475-13.093-12.239-23.503-25.351-29.188c-7.76-3.364-15.975-4.566-24.313-4.636c-18.822-0.156-37.646-0.058-56.469-0.029
		c-1.285,0.002-2.673-0.423-3.955,0.621C1188.794,546.566,1188.794,587.522,1188.794,629.215z M1235.803,127.496
		c-1.887-0.851-3.574-0.594-5.22-0.597c-10.657-0.023-21.314-0.012-31.971-0.012c-0.666,0-1.334-0.027-1.998,0.01
		c-3.655,0.206-4.611,1.138-4.931,4.826c-0.057,0.661-0.021,1.331-0.021,1.997c-0.001,50.621-0.011,101.242,0.012,151.863
		c0.003,5.9,0.768,6.622,6.666,6.624c32.804,0.015,65.607,0.014,98.411,0.001c5.733-0.002,6.724-0.904,6.769-6.57
		c0.077-9.824,0.031-19.649,0.014-29.473c-0.009-5.427-1.47-7.11-7.07-7.055c-17.982,0.177-35.967,0.078-53.95,0.043
		c-1.603-0.003-3.299,0.45-5.188-0.692c0-1.659,0-3.462,0-5.266c0-36.134,0.007-72.268-0.02-108.402
		C1237.304,132.349,1237.799,129.754,1235.803,127.496z M1425.447,539.799c-2.431-19.838-11.675-30.393-30.592-34.986
		c-11.945-2.901-24.038-2.776-36.165-1.186c-8.185,1.073-15.803,3.557-22.711,8.214c-17.248,11.629-19.934,36.997-4.04,50.842
		c4.724,4.115,10.06,7.028,15.774,9.346c7.869,3.192,16.094,5.19,24.361,7.041c4.211,0.943,8.377,2.102,12.284,3.983
		c5.509,2.653,8.352,7.477,7.634,12.76c-0.641,4.72-4.964,9.004-10.362,10.227c-1.296,0.294-2.608,0.58-3.927,0.701
		c-10.234,0.935-20.163-3.808-22.876-14.796c-0.469-1.9-0.957-3.796-1.524-6.044c-12.178,0.4-24.189,1.366-36.094,2.32
		c-0.645,3.094,0.224,5.682,0.851,8.205c4.024,16.201,13.152,27.864,29.943,32.029c16.373,4.061,32.933,4.515,49.349,0.403
		c12.276-3.075,22.2-9.8,27.935-21.485c6.46-13.163,6.768-26.302-1.772-38.739c-4.439-6.465-10.965-10.571-18.146-13.559
		c-9.996-4.16-20.488-6.649-31.006-9.033c-4.04-0.916-8.131-1.666-11.917-3.448c-2.882-1.357-5.178-3.447-5.171-6.749
		c0.008-3.518,1.784-6.259,5.089-7.96c10.163-5.229,22.751-0.107,26.289,10.705c0.343,1.049-0.047,2.386,1.457,3.422
		C1401.524,541.298,1413.27,540.562,1425.447,539.799z M208.37,272.215c-10.816,2.464-20.864,6.353-31.014,11.374
		c-5.29-0.742-10.148,2.013-15.414,4.275c3,5.229,8.027,8.538,9.386,14.57c12.416-3.324,24.583-5.53,36.188-11.024
		c0.439,0.207,1.326,0.845,2.359,0.587c6.055-1.508,12.52-1.4,18.022-5.111c3.064-2.067,7.063-1.139,8.794,1.473
		c-0.941,0.965-2.178,0.75-3.281,0.639c-1.948-0.197-3.627,0.273-5.097,1.515c-2.5,2.111-5.481,3.138-8.626,3.598
		c-9.024,1.319-17.049,4.893-24.854,9.582c-6.95,4.175-14.935,6.328-22.458,9.385c-7.686,3.124-15.228,6.526-22.533,10.709
		c0.251,1.946-0.197,3.874,1.715,5.133c5.254-1.939,10.503-3.938,15.799-5.803c2.37-0.834,4.681-1.808,6.754-3.168
		c3.413-2.238,7.115-3.44,11.11-4.051c9.411-1.439,18.478-3.936,26.746-8.876c3.159-1.888,6.785-2.649,10.215-3.887
		c8.864-3.2,18.591-3.406,27.096-7.922c1.538-0.816,3.525-0.923,5.329-1.078c16.285-1.399,31.692-7.098,48.94-9.39
		c-13.083-5.826-25.114-11.008-36.955-16.614c-19.387-9.178-38.498-18.879-56.864-29.965c-5.365-3.239-10.578-5.475-16.895-3.329
		c-1.215,0.413-2.642,0.206-3.972,0.278c-6.466,0.354-12.986,0.311-19.383,1.176c-5.72,0.773-11.613,0.375-17.497,2.418
		c2.377,5.944,5.973,11.052,9.999,15.902c1.224,1.475,2.894,1.45,4.574,1.44c2.311-0.013,4.657-0.332,7.785,0.393
		c-3.341,2.191-6.395,2.2-9.427,3.125c2.107,5.895,6.578,10.157,8.661,15.716c6.265-0.259,11.82-2.076,17.517-3.065
		C196.851,271.219,202.677,270.063,208.37,272.215z M432.23,581.333c-3.304-5.919-10.921-7.93-13.395-15.057
		c-7.38,6.774-16.401,10.62-21.818,19.046c5.832,2.737,11.913,3.779,17.407,6.504c-7.143,0.131-13.607-3.705-20.8-3.76
		c-5.472,5.251-11.025,10.246-15.339,16.698c6.78,1.594,13.198,3.746,19.309,6.315C400.755,608.929,431.178,582.855,432.23,581.333z
		 M572.438,165.419c-2.452-7.643-5.613-13.641-8.197-19.87c-0.502-1.211-1.636-1.619-2.654-2.131
		c-6.252-3.143-12.299-6.68-17.847-10.904c-7.75-5.9-16.098-8.668-25.934-7.579c-5.67,0.628-11.467,0.114-17.206,0.114
		C522.534,141.604,547.362,152.456,572.438,165.419z M1486.522,141.022c-1.91-4.933-1.769-10.223-3.792-14.577
		c-3.222,0-5.963,0-8.653,0c0,9.21,0,18.104,0,27.239c1.938-0.176,3.576,0.499,5.74-0.877c0-4.565,0-9.489,0-14.413
		c2.432,4.965,2.361,10.395,4.503,15.141c1.772,0.166,3.244,0.528,4.931-0.508c1.399-4.094,1.517-8.812,3.647-13.714
		c1.836,5.059-0.046,9.778,1.353,14.357c1.731-0.161,3.364,0.506,5.112-0.578c0-8.813,0-17.695,0-26.738
		c-3.239-0.316-6.174-0.369-9.054-0.002C1488.486,131.147,1488.46,136.231,1486.522,141.022z M536.795,545.552
		c8.114,5.276,15.924,10.276,23.651,15.401c7.654,5.077,14.446,11.339,22.195,17.045c0-5.725,0-10.686,0-15.603
		c-9.875-7.851-19.776-15.355-29.972-22.413C547.517,542.243,541.84,542.317,536.795,545.552z M246.93,536.509
		c9.008,6.196,17.59,11.813,26.2,16.783c6.335-2.388,12.159-4.583,18.831-7.098c-9.557-6.49-18.268-12.406-26.62-18.078
		C258.24,529.351,253.475,533.947,246.93,536.509z M360.185,578.925c-6.467,5.8-14.51,8.954-21.113,14.681
		c1.137,0.527,1.989,1.046,2.913,1.329c6.478,1.987,13.291,2.68,19.667,5.082c1.527,0.575,2.942,0.125,4.198-0.849
		c5.197-4.032,9.492-8.936,14.722-14.299C373.077,583.371,366.873,581.18,360.185,578.925z M416.22,134.428
		c-5.023-2.938-9.726-5.686-14.427-8.438c-1.017-0.595-2.07-0.956-3.288-0.952c-9.582,0.027-19.164,0.015-28.746,0.015
		c14.784,7.454,29.255,15.28,44.696,21.335C416.816,142.474,415.66,138.586,416.22,134.428z M348.076,574.167
		c-7.684-3.155-14.995-6.186-22.344-9.126c-0.693-0.277-1.77-0.253-2.41,0.101c-5.145,2.842-10.227,5.798-15.602,8.875
		c6.039,5.563,12.919,8.869,19.201,12.875C333.986,582.643,340.781,578.555,348.076,574.167z M170.014,179.666
		c-1.279-4.376-3.599-7.893-4.968-11.772c-2.258-6.398-6.021-11.107-12.316-14.047c-4.141-1.934-7.731-5.013-12.458-6.777
		c0,5.545,0,10.755,0,16.311c9.926,4.975,18.489,12.09,27.887,17.979C168.859,180.721,169.33,180.29,170.014,179.666z
		 M451.255,599.017c-8.606,7.522-19.4,11.683-27.864,19.484c7.111,0.027,13.905,1.982,21.051,1.473
		c4.887-4.324,10.603-7.643,16.283-11.177C458.389,604.848,455.577,601.692,451.255,599.017z M439.488,551.998
		c-5.132,4.9-11.474,7.684-16.762,12.779c6.397,2.794,11.571,6.6,16.643,10.551c5.423-3.495,10.338-7.027,14.998-11.149
		C450.457,558.692,444.079,556.912,439.488,551.998z M164.827,304.161c-6.519-2.935-8.65-10.642-15.218-13.189
		c-3.306,1.255-6.356,2.413-9.294,3.528c-1.187,6.508,0.155,12.226,3.93,17.64C151.411,310.766,157.761,307.124,164.827,304.161z
		 M473.488,579.99c-4.716,3.878-9.764,7.199-13.665,12.236c4.739,2.811,7.304,7.333,11.912,10.421
		c3.786-4.91,9.815-6.154,14.272-10.12C482.521,587.582,478.363,583.635,473.488,579.99z M1470.408,126.494
		c-7.417,0-14.324,0-21.22,0c0,2.273,0,4.216,0,6.554c2.255,0,4.332,0,6.791,0c0,6.971,0,13.55,0,20.321
		c2.606,0.323,4.811,0.707,7.427-0.466c0-6.573,0-13.143,0-19.559c2.556-0.619,4.763,0.147,7.002-0.706
		C1470.408,130.646,1470.408,128.717,1470.408,126.494z M213.137,448.391c3.455,4.294,7.925,7.101,11.852,10.656
		c5.11-3.151,10.129-5.944,15.068-9.695c-5.146-3.229-9.988-6.268-14.794-9.283C221.132,442.904,217.209,445.596,213.137,448.391z
		 M200.479,456.022c-4.786,2.662-8.949,4.978-13.245,7.367c1.563,2.002,3.019,3.952,4.565,5.829c3.902,4.74,7.145,5.25,12.533,1.981
		c3.082-1.87,6.129-3.798,9.312-5.775C209.985,461.192,204.781,459.211,200.479,456.022z M302.99,552.781
		c-6.071,3.225-12.922,3.9-18.768,7.697c2.738,1.76,5.009,3.372,7.15,5.208c3.613,3.099,6.394,3.324,10.378,0.834
		c2.672-1.67,5.484-3.045,8.233-4.554c1.384-0.76,3.154-1.088,3.963-3.032C310.822,556.227,307.125,554.548,302.99,552.781z
		 M146.166,264.329c2.798,5.89,5.502,11.509,10.443,15.762c4.636-1.929,9.713-1.967,14.311-4.541
		c-4.642-4.489-9.006-8.772-12.896-13.49C153.839,261.611,150.255,263.606,146.166,264.329z M165.012,445.531
		c3.894,3.218,6.31,7.67,11.219,9.425c4.175-2.592,8.975-4.026,13.241-7.213c-3.104-4.504-7.431-7.238-11.405-10.679
		C173.991,440.335,169.052,442.004,165.012,445.531z M582.818,592.113c-3.126-1.823-4.934-4.397-7.019-6.717
		c-5.161-5.744-6.851-5.936-12.928-1.463c-0.957,0.705-2.574,0.935-2.652,2.923c6.733,4.702,13.077,10.203,20.429,14.406
		C584.19,598.717,582.282,595.39,582.818,592.113z M191.728,429.315c3.422,4.614,6.96,8.228,11.649,10.896
		c3.846-2.535,8.381-3.847,11.982-7.609c-4.788-3.305-8.387-7.756-13.976-9.636C198.286,425.003,195.267,426.988,191.728,429.315z
		 M140.177,194.128c0,6.047,0,11.656,0,16.659c7.648,2.354,14.926,0.548,22.493-0.92
		C155.257,204.679,147.843,199.491,140.177,194.128z M524.671,628.946c0.167-0.328,0.334-0.655,0.501-0.983
		c-4.413-4.286-7.321-10.06-13.264-13.021c-4.171,3.206-8.471,5.933-12.327,9.725c2.031,1.63,3.809,3.058,5.331,4.279
		C511.747,628.946,518.209,628.946,524.671,628.946z M503.335,582.112c-2.187-2.86-4.316-4.973-6.818-6.588
		c-2.519-1.626-4.325-3.901-6.051-6.321c-3.788,2.358-7.641,3.893-10.966,7.049c5.038,4.04,9.609,8.052,15.277,11.005
		C497.455,585.646,500.128,584.039,503.335,582.112z M503.834,606.571c-2.726-2.592-5.481-4.85-8.871-6.523
		c-4.269,4.154-10.107,5.864-14.008,10.373c2.322,2.808,4.992,4.715,8.117,6.401C494.2,613.896,499.301,610.856,503.834,606.571z
		 M286.261,612.25c-9.656-3.259-16.147-11.033-25.007-15.565c-1.841,1.733-4.554,1.789-6.123,3.909
		c4.314,3.019,8.359,5.86,12.415,8.685c3.128,2.179,6.395,4.018,10.104,5.135C280.83,615.371,283.449,614.901,286.261,612.25z
		 M139.312,581.402c3.568,6.09,9.026,10.063,13.429,14.687c3.226,0.064,5.756-0.879,8.943-1.852
		c-4.419-6.931-8.777-12.965-15.824-16.264C143.662,578.626,141.881,579.439,139.312,581.402z M240.459,510.114
		c-2.884-2.687-4.878-5.711-8.502-7.472c-4.46,2.788-9.945,2.846-14.838,5.158c-0.21,4.973,4.289,6.359,6.712,9.666
		C229.17,514.782,234.899,513.315,240.459,510.114z M232.098,394.767c7.524-3.61,15.079-7.235,23.098-11.082
		c-2.665-0.902-4.655-1.697-6.711-2.242c-2.775-0.736-5.525-0.719-8.258,0.484c-5.442,2.396-10.156,5.941-15.393,8.994
		C226.825,393.622,229.591,393.827,232.098,394.767z M517.836,555.389c4.458,3.356,8.67,6.525,12.88,9.698
		c0.806,0.607,1.734,1.345,2.695,1.028c3.923-1.298,8.312-0.595,12.648-2.829c-8.081-4.173-15.202-8.973-23.42-11.424
		C520.916,552.773,519.089,553.203,517.836,555.389z M201.055,357.32c-4.707-2.154-6.718-6.464-10.861-8.134
		c-4.415,2.214-8.778,4.401-13.654,6.846c3.244,3.2,6.694,5.043,10.004,7.168C191.398,361.802,195.804,359.566,201.055,357.32z
		 M209.755,556.824c-3.073,0.528-5.671,1.85-8.198,2.775c-0.157,1.229,0.583,1.452,1.087,1.821
		c5.494,4.017,11.006,8.011,16.499,12.031c1.349,0.987,2.779,1.107,4.225,0.404c1.41-0.686,3.058-1.038,4.185-2.656
		C220.945,567.374,216.197,561.426,209.755,556.824z M197.089,583.165c-6.665-5.201-13.927-9.211-20.779-13.812
		c-1.911-1.283-4.144-0.59-6.275,0.996c4.738,8.288,13.252,11.323,20.433,16.04C192.809,585.385,195.265,585.387,197.089,583.165z
		 M250.368,561.635c-8.014-4.363-13.875-10.641-20.084-16.856c-1.785,1.717-4.026,2.196-5.568,4.523
		c6.062,5.611,12.252,10.959,18.838,15.719C245.774,564.085,247.983,563.852,250.368,561.635z M276.788,589.795
		c8.695,4.317,16.134,9.636,24.487,13.315c1.601-1.144,3.552-1.531,4.397-3.643c-7.507-4.19-14.848-8.67-21.949-13.536
		C281.358,586.702,279.353,587.795,276.788,589.795z M144.893,239.675c-1.784-0.857-3.286-0.752-4.998,1.081
		c0.791,5.069-1.055,10.683,1.076,16.172c4.678,0.374,8.667-0.966,13.235-1.413C150.538,250.044,147.165,245.132,144.893,239.675z
		 M540.386,573.427c2.596,1.67,5.144,3.191,7.56,4.898c2.312,1.633,4.782,2.203,7.518,1.665c3.382-0.665,6.754-1.379,10.742-2.197
		c-4.441-3.206-8.407-6.069-12.329-8.9C549.387,571.057,544.511,570.915,540.386,573.427z M565.987,608.386
		c-0.581-1.993-2.176-3.051-3.512-4.214c-3.632-3.163-7.394-6.178-11.113-9.241c-3.641-2.999-4.351-2.953-8.683,0.753
		c5.3,6.009,12.43,9.826,18.157,15.619C562.724,610.471,564.635,610.01,565.987,608.386z M496.527,566.59
		c6.03,3.195,11.522,5.576,16.274,9.337c2.772-1.254,5.399-2.443,8.218-3.718c-5.099-5.191-10.873-8.184-17.188-9.905
		C501.466,563.692,499.339,564.94,496.527,566.59z M231.99,377.256c-7.204-6.629-11.643-6.952-20.804,0.61
		c0.802,1.019,1.592,2.052,2.414,3.061c3.036,3.723,4.671,4.093,8.986,1.812C225.771,381.055,228.543,378.688,231.99,377.256z
		 M582.581,534.956c-3.322,0.776-6.008,1.592-8.755,1.992c-2.755,0.401-5.667-0.044-8.411,1.89
		c6.37,2.758,10.747,8.03,17.007,11.405C583.063,544.957,582.833,540.23,582.581,534.956z M272.035,137.133
		c-0.653-4.645-2.461-8.247-4.147-11.813c-6.586,0-12.9,0-19.214,0C256.246,129.435,263.291,134.358,272.035,137.133z
		 M582.726,622.431c-3.342-3.675-7.086-6.603-10.84-9.549c-2.273,0.562-3.923,1.874-6.057,3.023
		c3.74,4.834,8.209,8.502,12.266,12.549c1.13,1.127,2.732,0.897,4.233,0.223C583.205,626.789,582.693,624.809,582.726,622.431z
		 M238.636,580.814c-2.49,1.25-5.347,1.487-7.3,3.85c3.08,2.431,5.944,4.595,9.216,6.217c3.913,1.939,7.205,1.108,10.531-1.837
		C247.517,585.09,242.428,584.022,238.636,580.814z M207.309,408.201c4.81-2.374,9.274-4.995,13.804-8.252
		c-1.54-0.948-2.658-1.608-3.747-2.311c-3.46-2.235-3.947-2.32-7.033-0.103c-2.782,1.999-5.437,4.176-8.418,6.483
		C203.893,405.553,205.546,406.835,207.309,408.201z M273.299,578.547c-3.349-3.686-7.544-6.135-11.724-8.615
		c-2.167,1.125-4.514,1.531-6.352,3.51c2.328,1.462,4.007,3.44,5.847,5.251C265.694,583.245,267.899,583.239,273.299,578.547z
		 M544.096,621.096c-4.062-6.236-9.48-11.408-15.406-16.422c-1.526,1.048-3.379,1.103-3.866,3.655
		c6.211,4.031,10.476,10.511,16.087,14.829C542.672,623.067,543.379,622.427,544.096,621.096z M153.798,378.691
		c-2.515-3.239-4.921-6.338-7.426-9.565c-2.208,0.744-4.433,1.173-6.212,2.58c-0.976,5.136,3.564,7.042,5.128,10.427
		C148.851,381.828,151.464,380.68,153.798,378.691z M195.743,542.182c-5.131-0.616-8.64,2.44-12.932,3.326
		c0.762,3.542,3.058,5.191,5.988,6.23c4.021-0.749,7.457-2.663,11.014-5.019C198.373,545.116,197.081,543.674,195.743,542.182z
		 M251.165,517.24c-6.124,2.531-11.868,5.303-17.057,9.204c0.983,1.357,1.88,2.305,3.697,2.672c5.2-3.177,11.686-4.303,17.183-7.728
		C254.172,519.493,252.82,518.537,251.165,517.24z M189.758,615.935c-4.048-3.138-7.418-6.055-11.097-8.511
		c-3.231-2.157-6.776-2.151-10.535,0.249c4.577,2.82,8.871,5.563,13.265,8.134C183.706,617.161,186.218,617.848,189.758,615.935z
		 M194.718,384.987c-2.324,2.529-6.115,2.828-7.865,6.041c1.783,2.411,3.72,4.343,6.746,4.911c3.362-1.092,5.783-3.539,8.746-5.847
		C200.079,387.9,197.713,386.501,194.718,384.987z M152.088,481.074c7.167,6.509,7.874,8.056,14.861,3.632
		c-3.747-8.693-5.639-9.354-13.505-4.703C153.05,480.235,152.718,480.571,152.088,481.074z M156.96,436.325
		c4.626-2.176,9.194-4.047,13.101-7.799c-1.753-1.236-2.591-3.225-4.962-3.654c-3.536,2.433-8.095,3.392-11.135,6.994
		C155.018,433.436,155.92,434.778,156.96,436.325z M539.219,586.078c-0.205-1.361-0.699-2.029-1.343-2.574
		c-1.011-0.857-2.016-1.733-3.1-2.492c-4.531-3.172-6.34-2.985-10.966,1.242c3.422,2.587,6.73,5.201,10.558,6.931
		C536.224,588.292,537.78,587.409,539.219,586.078z M158.956,364.456c3.019,2.803,5.235,6.204,9.237,7.529
		c1.981-1.233,4.376-1.667,5.956-4.126c-2.644-2.306-5.21-4.545-7.804-6.807C163.967,362.047,161.456,362.368,158.956,364.456z
		 M192.2,516.163c3.381,3.882,6.014,6.905,8.769,10.069c2.779-1.088,5.755-1.307,8.282-3.499
		C204.812,517.83,199.437,516.307,192.2,516.163z M510.311,589.652c-1.667,1.833-4.211,2.264-5.269,4.725
		c3.256,1.987,5.985,4.342,8.764,6.773c1.864-1.311,4.199-1.493,5.435-3.659C517.017,594.197,514.409,591.538,510.311,589.652z
		 M337.606,615.209c-6.489-2.743-11.715-7.789-18.611-9.17c-1.67,0.98-3.518,1.49-4.386,3.488c3.805,1.099,7.492,2.532,11.311,3.167
		C329.877,613.352,333.314,616.11,337.606,615.209z M161.253,524.14c1.379,1.977,2.384,3.492,3.465,4.952
		c4.091,5.529,5.746,5.977,12.223,3.366c0.568-0.229,1.113-0.518,2.027-0.947C173.18,528.67,168.211,524.945,161.253,524.14z
		 M140.219,469.172c3.776-0.964,6.901-1.677,9.828-3.017c-2.419-7.054-5.574-8.687-9.828-5.402
		C140.219,463.389,140.219,465.98,140.219,469.172z M178.752,417.518c2.09,1.632,3.042,3.663,5.241,4.423
		c3.124-1.864,6.129-3.658,9.254-5.523c-1.581-2.285-3.137-3.636-5.472-4.328C185.076,413.714,182.282,415.395,178.752,417.518z
		 M211.345,365.262c-4.659-3.381-10.028-1.801-15.366,4.239C201.934,370.806,206.278,367.773,211.345,365.262z M173.046,399.053
		c-2.532,1.836-4.879,3.538-7.146,5.182c0.7,2.412,2.483,2.952,4.231,3.761c2.476-1.208,5.114-2.115,7.213-4.033
		C176.644,401.434,174.791,400.376,173.046,399.053z M222.437,601.84c-3.338-2.619-5.955-4.847-8.758-6.811
		c-1.969-1.379-4.199-1.521-7.236,0.026C211.479,598.397,215.102,602.932,222.437,601.84z M210.951,536.786
		c3.754,4.596,5.381,4.503,11.7-0.331C219.392,533.142,218.201,533.16,210.951,536.786z M143.456,613.69
		c4.597,3.003,8.354,5.895,13.683,7.481c-2.17-3.779-4.24-6.647-6.637-8.979C147.967,611.755,146.202,613.012,143.456,613.69z
		 M477.288,624.031c-2.661-2.819-4.26-5.322-7.431-6.205c-2.036,1.002-3.901,2.171-5.822,4.092
		C468.256,623.496,472.17,624.2,477.288,624.031z M361.191,619.394c4.52,2.474,8.424,4.633,12.349,6.751
		c2.038,1.1,4.09,1.632,6.753-0.314c-3.7-0.964-6.535-2.173-9.175-3.914C368.357,620.097,365.47,618.315,361.191,619.394z
		 M163.993,389.42c-0.005-1.153-0.635-1.819-1.869-2.31c-2.707,1.276-5.702,2.363-8.359,4.166c2.09,3.3,2.751,3.732,4.864,2.322
		C160.5,392.348,162.716,391.449,163.993,389.42z M184.836,377.298c-3.987-3.165-5.996-2.54-9.568,2.757
		c0.286,0.793,0.685,1.484,1.924,1.841C179.466,380.288,182.709,379.816,184.836,377.298z M147.872,420.015
		c2.602-1.46,5.178-2.906,7.766-4.358c-0.627-1.356-1.365-2.393-3.107-2.718c-2.204,0.938-4.625,1.909-6.503,3.641
		C145.828,418.02,146.13,419.058,147.872,420.015z M212.366,628.823c-2.681-1.91-5.284-3.935-8.818-3.769
		c-1.173,0.055-2.364,0.163-2.596,2.068C204.162,630.865,208.491,628.495,212.366,628.823z M556.226,130.617
		c-0.721-2.856-1.377-4.299-2.822-5.466c-2.178,0-4.444,0-7.799,0C549.449,127.129,552.375,128.635,556.226,130.617z
		 M185.44,474.408c1.955,3.589,4.907,3.485,9.601-0.312C191.749,474.213,188.617,473.802,185.44,474.408z M140.31,276.586
		c-0.41,2.95-0.527,4.886-0.035,6.876c1.274-0.319,2.668-0.005,3.573-1.445C142.867,280.511,141.902,279.03,140.31,276.586z
		 M140.231,398.337c-0.317,2.039-0.525,3.635,0.146,5.226c1.13-0.299,2.297-0.455,2.752-1.795
		C143.019,400.127,141.951,399.238,140.231,398.337z"/>
	<path style="fill:#A3AC9D;" d="M1576,757.051c0-252.333,0-504.667,0-757c0.308,0.218,1.043-0.506,1.01,0.5
		c-0.043,1.332-0.01,2.666-0.01,4c0,249.333,0,498.667,0,748C1577,755.51,1577,755.51,1576,757.051z"/>
	<path style="fill:#6AB245;" d="M555.315,493.719c-0.649-1.868-1.299-3.735-1.931-5.553c-6.932-3.786-11.884-9.627-16.146-15.913
		c-3.239-4.776-6.87-8.669-11.783-11.832c-4.989-3.212-9.343-7.459-13.787-11.461c-8.702-7.838-18.337-14.281-28.531-19.989
		c-3.571-1.999-7.234-4.039-10.364-7.823c7.571,0.774,14.211,2.58,20.771,4.77c16.768,5.597,30.742,15.586,43.308,27.709
		c9.7,9.358,19.61,18.543,27.656,29.456c5.234,7.098,9.879,14.532,12.671,23.272c-14.383,3.503-27.157,11.596-43.41,12.059
		c-4.824-3.197-9.95-9.383-18.628-7.07c3.287,4.2,8.847,4.681,12.803,8.688c-5.478,2.721-10.867,5.398-16.6,8.245
		c-7.329-5.344-15.018-10.243-22.666-15.205c-4.471-2.901-10.321-4.27-16.781-3.551c10.749,7.55,22.004,13.621,32.238,21.606
		c-1.859,2.526-4.338,3.957-6.629,5.454c-2.025,1.323-4.032,0.438-5.858-1.165c-7.03-6.17-14.956-11.08-22.917-15.923
		c-0.963-0.586-1.901-1.359-3.475-1.299c-0.335,2.224,1.174,3.575,2.403,4.979c3.548,4.054,8.024,6.956,12.465,9.897
		c3.306,2.189,6.568,4.432,9.265,8.102c-10.474,6.297-20.226,13.132-30.199,20.039c-5.008-4.219-10.973-6.891-15.439-11.183
		c0.644-3.184,3.217-3.881,4.861-5.608c-3.979-2.022-7.497-0.581-10.821,1.31c-17.897,10.181-36.532,19.261-51.182,34.482
		c-5.373-2.708-10.383-5.232-15.418-7.77c0.002-1.956,1.599-2.485,2.723-3.32c9.898-7.353,20.665-13.33,31.201-19.677
		c6.961-4.193,13.733-8.677,20.447-13.631c-4.499-0.711-12.546,0.687-18.204,3.124c-4.126,1.777-8.076,3.893-11.987,6.11
		c-11.277,6.392-22.592,12.714-33.205,20.197c-0.532,0.375-1.165,0.607-2.171,1.12c-6.78-3.356-13.735-6.799-21.486-10.637
		c18.755-11.218,36.954-21.832,58.152-28.731c-2.383-1.237-3.627-0.708-4.996-0.411c-18.488,4.009-35.676,11.446-52.521,19.799
		c-2.975,1.475-5.942,2.969-9.096,4.546c-2.718-1.384-5.804-2.194-8.366-5.221c5.408-2.532,10.659-4.79,15.482-7.82
		c1.142-0.772,0.42-2.246,1.334-3.318c0.264-0.122,0.69-0.363,1.145-0.524c4.068-1.438,8.215-2.643,12.055-4.704
		c2.077-1.115,4.086-2.263,5.62-4.066c2.239-2.632,5.102-4.326,8.357-5.185c7.318-1.932,12.357-6.851,17.165-12.488
		c-1.246-0.993-2.166-0.248-3.144,0.178c-10.35,4.516-20.817,8.78-31.029,13.588c-8.717,4.104-17.135,8.842-25.703,13.265
		c-1.919,0.991-3.976,1.726-5.856,2.78c-4.052,2.271-7.741,1.932-11.593-0.69c-7.127-4.851-14.721-9.007-21.576-14.222
		c0.293-1.813,1.693-2.021,2.87-2.542c10.483-4.639,20.98-9.246,31.423-13.972c4.397-1.99,8.512-4.518,12.552-7.168
		c2.784-1.826,5.688-3.418,9.09-3.892c0.932-0.13,1.801-0.713,2.643-1.48c-1.834-0.589-3.594-0.37-5.41,0.059
		c-11.667,2.752-22.805,7.079-33.882,11.531c-8.941,3.593-18.246,6.097-27.224,9.545c-2.161,0.83-3.925,0.261-5.618-0.909
		c-1.647-1.138-3.061-2.554-4.436-4.423c3.861-3.457,8.589-5.516,12.992-7.983c16.299-9.132,33.513-16.091,51.601-20.818
		c3.362-0.879,6.812-1.419,10.202-2.196c1.998-0.458,3.728,1.715,6.372,0.141c-3.906-2.708-7.822-3.338-12.176-2.962
		c-22.28,1.924-42.329,10.644-62.108,20.212c-5.083,2.459-10.129,4.993-15.161,7.476c-3.603-1.473-6.172-4.124-9.427-6.484
		c1.385-0.911,2.502-1.816,3.757-2.443c10.553-5.276,20.631-11.499,31.566-16.004c4.692-1.933,8.555-5.117,12.605-7.983
		c9.898-7.006,19.884-13.866,28.826-22.193c4.182-3.894,9.573-6.523,14.535-9.528c1.848-1.119,4.017-1.308,6.201-0.449
		c13.912,5.472,27.87,10.833,41.048,17.975c0.866,0.47,1.623,1.151,2.403,1.768c0.913,0.722,1.696,1.678,2.708,2.195
		c6.797,3.472,13.46,7.149,19.622,11.69c0.768,0.566,1.832,0.721,3.234,0.181c-0.589-2.53-2.417-4.152-4.309-5.566
		c-1.853-1.385-3.924-2.494-5.962-3.61c-5.398-2.957-10.684-6.031-15.493-9.953c-7.644-6.234-16.335-10.788-25.24-14.945
		c-2.705-1.263-5.357-2.639-8.443-4.166c5.448-3.263,11.514-3.434,17.037-5.582c19.911,8.274,40.175,16.036,58.228,28.048
		c11.47,7.632,23.024,15.177,34.271,23.157c8.422,5.975,17.502,10.867,26.481,15.923c2.023,1.139,3.97,2.423,5.884,3.738
		c1.339,0.919,2.622,1.845,4.392,1.941c0.19-1.982-1.009-2.765-2.019-3.475c-12.127-8.517-23.108-18.498-34.991-27.324
		c-2.67-1.983-5.279-4.057-8.029-5.921c-6.471-4.385-12.682-9.121-19.008-13.7c-8.628-6.247-18.236-10.92-27.928-15.338
		c-7.368-3.359-14.754-6.68-22.591-10.226c5.05-3.363,10.131-3.17,15.194-2.524c2.276,0.291,4.553,1.015,6.686,1.892
		c5.845,2.403,11.823,4.354,17.942,5.911c5.704,1.452,10.884,4.086,15.731,7.348c6.224,4.189,12.752,7.83,19.526,11.016
		c9.666,4.545,18.397,10.673,27.546,16.089c5.122,3.032,10.928,4.953,15.216,9.392c0.832,0.862,2.161,1.666,3.607,0.758
		c-1.757-3.66-9.878-10.369-26.26-22.298c-9.322-6.787-19.532-11.996-29.576-17.515c-10.193-5.601-20.744-10.43-31.785-14.379
		c7.637-0.276,15.136-1.911,22.804-1.45c3.274,0.197,6.002,1.808,8.992,2.743c6.441,2.014,12.347,4.958,17.44,9.362
		c5.479,4.739,12.096,7.629,18.242,11.216c8.961,5.23,16.959,11.692,25.211,17.846c3.469,2.587,7.012,4.964,10.838,7.042
		c7.992,4.339,14.306,10.783,20.381,17.436c3.119,3.416,5.925,7.157,10.052,9.506c0.339,0.323,0.679,0.646,1.018,0.968
		c1.726,1.71,1.719,4.649,4.155,5.854c0.146,0.298,0.019,1.095,0.715,0.392c-0.226-0.143-0.451-0.286-0.677-0.43
		c0.037-2.842-0.984-5.06-3.701-6.28C555.986,494.407,555.65,494.063,555.315,493.719z M415.773,473.56
		c-0.078-0.121-0.155-0.242-0.233-0.364c-0.098,0.106-0.266,0.206-0.276,0.319c-0.01,0.114,0.137,0.241,0.215,0.363
		C415.578,473.772,415.676,473.666,415.773,473.56z"/>
	<path style="fill:#6AB245;" d="M477.034,140.019c-0.044,2.584,1.985,3.711,3.684,4.917c2.435,1.729,5.022,3.25,7.593,4.779
		c2.576,1.532,5.248,2.95,7.188,5.298c2.514,3.043,5.708,5.032,9.308,6.497c3.253,1.324,6.273,3.033,8.939,5.369
		c3.029,2.655,6.482,4.658,10.268,6.022c2.56,0.923,4.625,2.616,6.79,4.131c15.418,10.786,31.439,20.526,48.588,28.339
		c0.748,0.341,1.437,0.813,2.409,1.37c0,6.831,0,13.762,0,21.092c-4.759-1.249-8.821-3.767-13.134-5.603
		c-8.716-3.711-17.28-7.766-25.684-12.156c-3.104-1.621-6.135-3.329-9.004-5.336c-3.951-2.764-7.956-5.405-12.584-6.994
		c-2.684-0.922-5.16-2.421-7.285-4.275c-8.768-7.654-18.282-14.448-26.294-22.978c-3.064-3.262-6.658-5.883-10.95-7.59
		c-1.815,2.738-0.205,4.662,1.13,6.439c10.523,14.005,23.317,25.395,38.62,34.056c7.509,4.249,14.615,9.149,21.272,14.76
		c9.331,7.865,20.17,13.442,30.982,18.991c4.415,2.266,8.742,4.704,13.14,7.081c0,8.542,0,16.828,0,25.844
		c-6.108-3.85-12.199-6.699-18.195-9.741c-8.658-4.392-16.458-9.94-23.703-16.405c-4.216-3.763-9.272-6.427-14.308-9.023
		c-6.79-3.5-13.807-6.568-19.97-11.235c-1.793-1.358-4.173-2.025-6.368-2.753c-7.945-2.634-14.303-7.651-20.294-13.251
		c-4.121-3.853-7.793-8.142-11.625-12.47c-1.286,2.187,0.117,3.548,0.965,4.785c7.779,11.345,16.869,21.159,28.883,28.457
		c12.338,7.495,23.894,16.275,35.789,24.498c0.272,0.188,0.538,0.407,0.749,0.66c9.203,11.039,22.249,16.619,34.047,23.97
		c4.643,2.893,9.292,5.774,13.935,8.657c0,8.576,0,16.875,0,25.136c-1.001,0.57-1.677-0.114-2.256-0.541
		c-9.123-6.727-19.162-11.968-28.732-17.956c-5.626-3.52-11.706-6.099-17.236-9.673c-5.442-3.517-10.672-7.364-15.988-11.075
		c-0.818-0.571-1.542-1.578-2.416-1.719c-5.633-0.91-9.618-5.093-14.651-7.201c-4.662-1.953-8.206-5.613-11.81-9.049
		c-3.735-3.561-7.195-7.421-11.596-10.218c-1.072-0.681-1.968-1.771-3.512-1.62c-0.373,2.809,1.413,4.723,2.916,6.533
		c4.677,5.633,9.363,11.27,14.741,16.282c2.338,2.179,4.83,4.206,7.738,5.412c9.064,3.759,16.492,9.855,23.878,16.072
		c3.816,3.213,7.79,6.265,12.224,8.578c3.466,1.808,5.878,4.867,9.034,7.025c8.782,6.005,17.552,12.03,26.268,18.129
		c3.809,2.665,7.476,5.533,11.346,8.412c0,4.622,0,9.236,0,14.039c-1.976,0.415-3.124-0.927-4.418-1.785
		c-5.68-3.765-10.842-8.296-16.811-11.623c-7.403-4.125-14.895-8.092-22.359-12.109c-9.379-5.048-18.607-10.328-26.839-17.168
		c-1.427-1.185-3.037-2.194-4.816-2.547c-3.613-0.716-6.364-2.767-8.874-5.222c-2.752-2.691-5.606-5.191-9.112-6.889
		c-1.987-0.963-3.251-2.829-4.841-4.289c-1.556-1.429-2.814-3.24-5.502-4.339c1.638,5.064,5.024,8.254,7.922,11.667
		c3.771,4.44,7.954,8.501,13.052,11.508c9.205,5.43,16.91,12.89,25.585,19.041c12.748,9.039,25.547,18.007,38.263,27.091
		c6.751,4.823,13.376,9.823,19.496,15.176c0,20.652,0,41.05,0,62.259c-3.075-2.544-5.651-4.545-8.081-6.71
		c-10.558-9.405-20.97-18.977-31.628-28.266c-16.297-14.205-32.906-28.044-50.694-40.376c-6.418-4.449-13-8.671-19.62-12.816
		c-1.836-1.15-2.83-2.651-3.688-4.495c-3.941-8.472-6.313-17.458-8.612-26.452c-3.321-12.993-7.453-25.789-9.636-39.062
		c-1.559-9.479-3.265-18.938-4.588-28.449c-1.484-10.668-2.613-21.386-3.89-32.083c-0.059-0.495-0.06-0.997-0.082-1.496
		c-1.097-25.455-1.01-50.928-1.133-76.397c-0.002-0.462,0.214-0.924,0.389-1.633c16.974,0,33.912,0,50.962,0
		c13.196,10.108,26.368,20.498,41.379,28.191c3.7,1.896,7.691,3.232,11.326,5.146c7.378,3.887,15.829,6.133,21.255,13.25
		c1.65,2.163,4.38,2.964,6.758,4.139c2.781,1.375,5.101,2.911,5.378,6.516c0.133,1.725,0.887,3.549,2.302,4.877
		c1.68,1.577,1.722,3.418,0.995,5.229c-8.671-2.304-15.928-7.178-23.583-11.339c-9.48-5.153-19.391-9.514-29.113-14.22
		c-5.848-2.831-11.483-6.03-16.69-9.929c-5.004-3.747-11.008-5.426-16.542-8.065c-5.399-2.574-10.854-5.015-16.031-8.028
		c-0.843-0.491-1.669-1.144-2.758-1.01c-0.179-0.224-0.056-1.071-0.698-0.337C476.532,139.833,476.783,139.926,477.034,140.019z"/>
	<path style="fill:#6AB245;" d="M357.987,354.062c-14.701-13.046-30.757-23.615-50.308-27.989
		c-7.103-1.589-14.121-3.558-21.58-5.456c2.739-2.131,5.665-2.359,8.563-2.604c6.724-0.57,13.203,0.888,19.711,2.311
		c19.718,4.309,38.3,11.918,56.907,19.451c4.631,1.875,9.033,4.244,13.096,7.194c5.236,3.801,10.435,7.603,16.53,10.065
		c4.051,1.636,7.037,4.968,10.286,7.806c2.239,1.956,4.35,4.054,7.176,5.21c1.286-2.08,0.461-3.672-0.818-5.071
		c-1.233-1.349-2.436-2.881-3.977-3.763c-5.493-3.142-10.115-7.487-15.113-11.238c-10.834-8.133-22.871-14.005-34.656-20.369
		c-7.004-3.783-14.404-6.811-21.908-9.525c-1.075-0.389-2.123-0.852-3.612-1.454c14.128-0.231,41.461,5.814,64.514,18.38
		c20.011,10.907,37.508,24.95,53.334,41.658c-3.594,1.047-6.429-0.478-9.396-0.628c-13.039-0.657-25.86,0.982-38.623,3.378
		c-2.93,0.55-5.865,1.077-8.793,1.642c-4.7,0.906-9.524,1.34-13.473,4.612c-1.234,1.022-2.977,1.434-4.71,1.415
		c-10.056-0.105-19.203,3.167-28.13,7.423c-2.896,1.381-5.809,3.411-9.737,1.925c-1.061,1.54-2.656,2.732-4.698,3.438
		c-5.66,1.957-11.165,4.337-16.415,7.203c-8.672,4.732-18.201,7.179-27.345,10.657c-14.19,5.397-27.411,12.723-40.344,20.599
		c-0.982,0.598-1.781,1.536-3.337,1.687c-4.385-2.789-9.056-5.581-13.235-9.288c4.09-4.771,9.236-7.547,14.148-10.638
		c3.378-2.125,6.813-4.173,10.079-6.461c5.869-4.112,12.004-7.548,18.735-10.201c5.349-2.108,10.311-5.295,15.621-7.657
		c0.873-0.388,1.774-0.979,1.975-2.311c-26.773,1.938-48.404,15.838-69.988,29.997c-4.608-3.729-8.97-7.258-13.532-10.948
		c4.562-4.012,9.752-6.711,14.486-10.047c1.785-1.258,3.892-0.473,5.834-0.123c3.57,0.642,6.994,2.176,10.741,1.711
		c0.358,1.037,0.963,1.148,1.799,0.5c-0.512-0.557-1.157-0.52-1.797-0.502c-1.496-2.428-4.643-3.224-6.133-6.614
		c6.279-4.157,12.686-8.428,19.124-12.652c6.394-4.195,13.312-7.35,20.956-10.005c-3.941-1.08-4.218-1.103-7.2,0.281
		c-2.713,1.26-5.399,2.583-8.065,3.94c-5.77,2.938-10.804,1.439-16.18-2.802c13.633-6.991,27.798-10.833,41.736-14.743
		c-4.692-2.28-9.824-1.582-14.688,0.05c-5.685,1.909-11.526,3.076-17.322,4.424c-5.513,1.281-10.727,3.361-16.139,5.354
		c-3.462-1.844-7.148-3.242-9.863-5.855c13.812-10.427,29.701-12.574,46.263-12.672c-5.118-3.545-10.858-3.965-16.765-3.463
		c-11.989,1.02-23.466,4.095-34.616,8.567c-3.604,1.445-7.367,2.334-11.063-1.417c8.978-5.898,20.051-6.492,28.718-12.513
		c-12.805-2.095-23.842,3.244-34.71,8.203c-5.103-1.001-7.274-5.413-10.939-7.663c0.509-1.744,1.951-1.563,2.935-1.857
		c13.191-3.937,26.087-8.754,39.16-13.025c8.94-2.92,17.932-5.857,27.421-6.976c4.292-0.506,8.253,0.28,12.284,0.998
		c7.032,1.253,13.485,4.746,20.453,6.052c17.943,3.362,33.338,12.84,49.737,19.918c2.238,0.966,4.182,2.854,6.914,2.453
		c-0.041,0.641,0.098,0.994,0.775,0.485C358.525,354.366,358.256,354.214,357.987,354.062z"/>
	<path style="fill:#6AB245;" d="M323.773,129.277c1.74,5.19,5.965,8.309,9.892,11.6c3.311,2.775,6.967,5.131,10.798,7.144
		c10.458,5.496,20.256,12.086,30.388,18.108c10.825,6.434,20.817,14.183,32.078,19.898c2.815,1.429,5.229,3.52,7.851,5.777
		c0,4.082,0,8.366,0,13.09c-2.943-0.437-5.274-1.942-7.578-3.332c-2.416-1.458-4.648-3.22-6.969-4.836
		c-5.836-4.061-12.149-7.182-18.642-10.079c-5.905-2.635-11.552-5.884-17.172-9.109c-3.615-2.074-7.306-3.928-11.124-5.577
		c-4.29-1.853-8.111-4.539-12.049-7.017c-2.748-1.729-5.49-3.571-9.5-3.861c1.864,4.309,5.072,6.651,8.207,8.875
		c3.925,2.784,8.134,5.168,12.233,7.705c2.829,1.751,5.753,3.368,7.969,5.943c0.324,0.377,0.665,0.902,1.086,1.008
		c5.536,1.383,8.256,6.599,12.725,9.306c5.059,3.063,9.597,7.002,15.188,9.203c1.215,0.478,2.407,1.218,3.372,2.098
		c6.1,5.566,13.207,9.526,20.646,12.902c3.005,1.364,4.771,3.06,5.026,6.615c0.231,3.23,1.512,6.371,1.698,10.15
		c-4.613-2.439-8.82-4.681-13.041-6.893c-15.468-8.106-31.664-14.641-47.472-22.011c-7.231-3.371-14.287-7.117-21.498-10.532
		c-2.63-1.246-3.745-3.716-5.362-5.758c-1.378-1.739-2.708-3.25-5.895-3.658c1.721,4.844,3.704,8.931,7.253,11.897
		c6.374,5.327,13.027,10.315,19.869,15.039c0.821,0.567,1.609,1.334,2.528,1.585c9.69,2.642,17.318,9.064,25.721,14.031
		c12.019,7.103,24.5,13.41,36.186,21.081c1.519,0.997,3.048,1.979,4.707,3.054c-0.137,4.86,1.436,9.538,0.995,14.711
		c-3.094-0.804-5.02-3.145-7.333-4.753c-6.816-4.738-13.409-9.713-21.576-12.171c-4.428-1.333-7.829-4.849-12.161-6.734
		c-10.804-4.701-21.31-10.058-32.384-14.189c-4.542-1.695-7.982-5.333-11.287-8.849c-1.372-1.459-2.621-2.913-5.233-3.277
		c0.938,3.11,2.564,5.447,4.549,7.617c5.676,6.203,12.13,11.455,19.782,14.94c8.277,3.77,15.114,9.646,22.574,14.611
		c4.271,2.843,8.27,6.136,13.496,7.243c1.62,0.343,3.143,1.227,4.295,2.446c3.26,3.451,7.337,5.646,11.421,7.915
		c5.856,3.253,10.452,8.19,15.723,12.233c0.662,0.508,1.065,1.226,1.23,2.101c1.655,8.789,3.344,17.572,4.992,26.363
		c0.085,0.451-0.115,0.955-0.222,1.715c-3.317-0.854-6.429-1.792-8.648-4.439c-0.913-1.089-2.099-1.572-3.305-2.111
		c-20.172-9.008-40.352-17.997-60.506-27.045c-4.098-1.84-7.937-4.16-11.644-6.72c-4.499-3.106-7.458-7.234-10.08-12.057
		c-11.718-21.55-17.983-44.812-22.674-68.656c-4.509-22.922-9.542-45.722-17.68-67.764c1.078-1.28,2.49-0.774,3.7-0.777
		c15.665-0.039,31.331,0.019,46.996-0.072c2.458-0.014,4.538,0.611,6.56,1.886c15.337,9.669,31.049,18.691,47.049,27.213
		c4.242,2.259,8.507,4.474,12.945,6.806c0.598,4.645,0.343,9.232,0.169,13.886c-0.805,0.068-1.412,0.319-1.741,0.117
		c-7.088-4.35-14.975-7.245-21.809-12.066c-1.892-1.335-3.943-2.539-6.081-3.414c-11.22-4.59-21.69-10.814-33.25-14.719
		c-7.419-2.507-13.774-7.298-20.277-11.642c-2.328-1.555-4.44-3.531-7.283-4.212c-0.221-0.539-0.628-0.791-1.204-0.784
		c-0.167-0.203,0.004-1.037-0.643-0.344c0.229,0.099,0.458,0.198,0.687,0.297C322.869,128.685,323.231,129.034,323.773,129.277z"/>
	<path style="fill:#6AB245;" d="M218.877,191.163c1.065,3.617,3.892,5.882,6.832,7.601c6.625,3.872,12.775,8.334,18.847,13.004
		c5.282,4.063,11.607,6.436,17.651,9.19c5.151,2.347,10.2,4.793,14.722,8.283c3.95,3.048,8.126,5.896,12.834,7.592
		c7.43,2.677,10.003,8.508,11.199,15.878c-4.206-0.869-7.521-3.103-11.118-4.605c-16.696-6.972-33.69-13.133-50.795-19.015
		c-7.896-2.715-15.319-6.353-21.212-12.591c-4.911-5.198-8.303-11.407-10.358-18.011c-7.565-24.307-18.933-47.102-27.626-70.947
		c-0.222-0.609-0.438-1.22-0.64-1.782c1.201-1.276,2.608-0.765,3.853-0.769c14.826-0.039,29.653-0.007,44.479-0.046
		c2.051-0.005,3.8,0.369,5.598,1.559c12.38,8.195,25.919,14.203,39.277,20.546c1.342,0.637,2.687,1.267,4.159,1.961
		c1.383,7.3,4.162,14.237,4.59,21.725c-0.831,0-1.244,0.132-1.46-0.019c-13.592-9.521-29.097-15.192-44.043-22.002
		c-8.923-4.066-17.732-8.386-25.679-14.238c-0.9-0.663-1.623-1.772-3.016-1.393c0.042-0.429-0.096-0.626-0.415-0.589
		c-0.115,0.289,0.042,0.468,0.471,0.535c0.95,4.591,4.559,7.25,7.724,10.054c5.736,5.081,12.184,9.241,18.939,12.846
		c8.941,4.772,17.944,9.433,27.013,13.956c3.914,1.952,7.53,4.277,10.699,7.23c2.706,2.522,5.791,4.485,8.868,6.43
		c3.019,1.908,4.974,4.279,5.384,7.888c0.391,3.441,0.568,6.867,0.12,10.683c-9.458-5.457-19.673-8.691-28.177-15.289
		c-5.25-4.073-11.592-6.45-17.255-9.845c-7.556-4.53-15.488-8.368-22.944-13.048c-0.955-0.599-1.8-1.427-3.265-1.522
		c-0.315,2.399,0.929,4.169,2.363,5.708c1.811,1.943,3.672,3.927,5.828,5.445c8.417,5.926,16.965,11.665,25.451,17.494
		c2.876,1.976,5.678,4.069,8.098,6.59c3.269,3.405,7.003,6.165,11.277,8.1c7.918,3.585,14.684,9.076,22.321,13.24
		c0.812,1.386,1.704,2.786,1.259,4.619c-1.153,0.98-2.157,0.233-3.129-0.311c-1.739-0.974-3.513-1.909-5.152-3.036
		c-8.714-5.995-18.152-10.34-28.491-12.654c-8.732-1.955-16.43-6.113-23.899-10.874c-3.462-2.207-6.676-4.958-10.845-5.899
		c-0.226-0.406-0.449-0.866-0.915-0.24C218.278,190.622,218.675,190.966,218.877,191.163z"/>
	<path style="fill:#6AB245;" d="M208.37,272.215c-5.692-2.153-11.519-0.996-17.283,0.004c-5.697,0.989-11.252,2.806-17.517,3.065
		c-2.083-5.56-6.554-9.821-8.661-15.716c3.032-0.926,6.087-0.934,9.427-3.125c-3.128-0.726-5.474-0.407-7.785-0.393
		c-1.68,0.01-3.35,0.035-4.574-1.44c-4.026-4.85-7.622-9.958-9.999-15.902c5.884-2.043,11.777-1.645,17.497-2.418
		c6.397-0.864,12.917-0.822,19.383-1.176c1.33-0.073,2.757,0.134,3.972-0.278c6.317-2.145,11.53,0.091,16.895,3.329
		c18.366,11.086,37.478,20.787,56.864,29.965c11.841,5.606,23.871,10.788,36.955,16.614c-17.248,2.292-32.655,7.992-48.94,9.39
		c-1.804,0.155-3.792,0.262-5.329,1.078c-8.505,4.516-18.232,4.722-27.096,7.922c-3.429,1.238-7.055,2-10.215,3.887
		c-8.268,4.94-17.335,7.437-26.746,8.876c-3.995,0.611-7.698,1.813-11.11,4.051c-2.074,1.36-4.384,2.333-6.754,3.168
		c-5.296,1.865-10.545,3.863-15.799,5.803c-1.912-1.259-1.464-3.187-1.715-5.133c7.305-4.183,14.847-7.585,22.533-10.709
		c7.523-3.057,15.508-5.21,22.458-9.385c7.805-4.689,15.83-8.263,24.854-9.582c3.145-0.46,6.127-1.487,8.626-3.598
		c1.47-1.242,3.149-1.712,5.097-1.515c1.103,0.111,2.34,0.327,3.281-0.642c-1.73-2.609-5.729-3.537-8.793-1.47
		c-5.502,3.711-11.967,3.603-18.022,5.111c-1.033,0.257-1.92-0.38-2.359-0.587c-11.605,5.494-23.771,7.7-36.188,11.024
		c-1.359-6.032-6.386-9.341-9.386-14.57c5.266-2.261,10.124-5.017,15.414-4.275C187.506,278.569,197.554,274.679,208.37,272.215z"/>
	<path style="fill:#69B145;" d="M432.23,581.333c-1.053,1.522-31.475,27.596-34.635,29.745c-6.111-2.569-12.529-4.721-19.309-6.315
		c4.314-6.451,9.867-11.447,15.339-16.698c7.194,0.055,13.658,3.891,20.8,3.76c-5.494-2.725-11.575-3.767-17.407-6.504
		c5.417-8.426,14.437-12.271,21.818-19.046C421.31,573.403,428.927,575.414,432.23,581.333z"/>
	<path style="fill:#6AB245;" d="M572.438,165.419c-25.076-12.962-49.904-23.814-71.838-40.37c5.74,0,11.536,0.514,17.206-0.114
		c9.836-1.089,18.185,1.679,25.934,7.579c5.548,4.224,11.595,7.761,17.847,10.904c1.018,0.512,2.152,0.92,2.654,2.131
		C566.825,151.777,569.986,157.775,572.438,165.419z"/>
	<path style="fill:#EAEBE8;" d="M1486.522,141.022c1.938-4.791,1.964-9.875,3.787-14.67c2.88-0.367,5.815-0.314,9.054,0.002
		c0,9.043,0,17.925,0,26.738c-1.747,1.083-3.38,0.417-5.112,0.578c-1.399-4.579,0.483-9.298-1.353-14.357
		c-2.131,4.902-2.248,9.62-3.647,13.714c-1.686,1.036-3.158,0.674-4.931,0.508c-2.141-4.746-2.071-10.176-4.503-15.141
		c0,4.924,0,9.848,0,14.413c-2.164,1.376-3.802,0.701-5.74,0.877c0-9.135,0-18.029,0-27.239c2.689,0,5.43,0,8.653,0
		C1484.753,130.799,1484.612,136.09,1486.522,141.022z"/>
	<path style="fill:#68AF45;" d="M536.795,545.552c5.045-3.235,10.722-3.31,15.874-5.571c10.196,7.058,20.097,14.562,29.972,22.413
		c0,4.917,0,9.879,0,15.603c-7.75-5.705-14.542-11.968-22.195-17.045C552.719,555.828,544.909,550.828,536.795,545.552z"/>
	<path style="fill:#69B145;" d="M246.93,536.509c6.544-2.562,11.31-7.158,18.412-8.394c8.352,5.672,17.063,11.588,26.62,18.078
		c-6.672,2.515-12.497,4.711-18.831,7.098C264.52,548.323,255.938,542.706,246.93,536.509z"/>
	<path style="fill:#69B145;" d="M360.185,578.925c6.688,2.255,12.891,4.446,20.386,5.943c-5.23,5.363-9.525,10.267-14.722,14.299
		c-1.256,0.974-2.67,1.424-4.198,0.849c-6.376-2.402-13.189-3.094-19.667-5.082c-0.924-0.283-1.775-0.802-2.913-1.329
		C345.676,587.879,353.719,584.725,360.185,578.925z"/>
	<path style="fill:#6AB245;" d="M416.22,134.428c-0.56,4.158,0.596,8.046-1.765,11.96c-15.441-6.055-29.912-13.881-44.696-21.335
		c9.582,0,19.164,0.012,28.746-0.015c1.218-0.003,2.271,0.357,3.288,0.952C406.494,128.742,411.197,131.49,416.22,134.428z"/>
	<path style="fill:#69B145;" d="M348.076,574.167c-7.295,4.388-14.089,8.475-21.155,12.725c-6.282-4.006-13.162-7.312-19.201-12.875
		c5.375-3.077,10.457-6.032,15.602-8.875c0.64-0.353,1.717-0.378,2.41-0.101C333.08,567.981,340.392,571.013,348.076,574.167z"/>
	<path style="fill:#69B145;" d="M170.014,179.666c-0.683,0.624-1.155,1.055-1.855,1.695c-9.398-5.889-17.961-13.004-27.887-17.979
		c0-5.556,0-10.767,0-16.311c4.728,1.764,8.317,4.843,12.458,6.777c6.295,2.94,10.058,7.649,12.316,14.047
		C166.415,171.773,168.734,175.29,170.014,179.666z"/>
	<path style="fill:#69B145;" d="M451.255,599.017c4.322,2.675,7.134,5.831,9.47,9.78c-5.679,3.534-11.395,6.853-16.283,11.177
		c-7.146,0.508-13.94-1.447-21.051-1.473C431.855,610.7,442.648,606.54,451.255,599.017z"/>
	<path style="fill:#69B145;" d="M439.488,551.998c4.591,4.914,10.969,6.693,14.88,12.181c-4.66,4.122-9.575,7.654-14.998,11.149
		c-5.073-3.952-10.247-7.757-16.643-10.551C428.014,559.682,434.356,556.898,439.488,551.998z"/>
	<path style="fill:#69B145;" d="M164.827,304.161c-7.066,2.964-13.416,6.605-20.582,7.979c-3.775-5.414-5.118-11.133-3.93-17.64
		c2.938-1.115,5.988-2.273,9.294-3.528C156.177,293.518,158.308,301.226,164.827,304.161z"/>
	<path style="fill:#68AF45;" d="M473.488,579.99c4.875,3.646,9.033,7.592,12.519,12.537c-4.457,3.966-10.486,5.21-14.272,10.12
		c-4.607-3.087-7.172-7.61-11.912-10.421C463.724,587.189,468.772,583.867,473.488,579.99z"/>
	<path style="fill:#68AF45;" d="M213.137,448.391c4.073-2.795,7.995-5.487,12.126-8.322c4.806,3.016,9.648,6.054,14.794,9.283
		c-4.939,3.751-9.958,6.544-15.068,9.695C221.062,455.492,216.592,452.686,213.137,448.391z"/>
	<path style="fill:#69B145;" d="M200.479,456.022c4.302,3.19,9.505,5.17,13.165,9.402c-3.183,1.977-6.23,3.905-9.312,5.775
		c-5.388,3.269-8.631,2.759-12.533-1.981c-1.545-1.877-3.001-3.827-4.565-5.829C191.53,460.999,195.693,458.684,200.479,456.022z"/>
	<path style="fill:#68AF45;" d="M302.99,552.781c4.135,1.767,7.832,3.447,10.955,6.153c-0.809,1.944-2.579,2.272-3.963,3.032
		c-2.749,1.509-5.561,2.884-8.233,4.554c-3.984,2.49-6.765,2.265-10.378-0.834c-2.14-1.836-4.412-3.448-7.15-5.208
		C290.068,556.68,296.919,556.006,302.99,552.781z"/>
	<path style="fill:#69B145;" d="M146.166,264.329c4.089-0.723,7.673-2.718,11.858-2.269c3.891,4.719,8.254,9.002,12.896,13.49
		c-4.598,2.574-9.675,2.612-14.311,4.541C151.668,275.838,148.965,270.219,146.166,264.329z"/>
	<path style="fill:#68AF45;" d="M165.012,445.531c4.04-3.527,8.979-5.196,13.055-8.467c3.974,3.441,8.301,6.175,11.405,10.679
		c-4.266,3.187-9.066,4.621-13.241,7.213C171.323,453.201,168.906,448.749,165.012,445.531z"/>
	<path style="fill:#69B145;" d="M582.818,592.113c-0.536,3.277,1.372,6.604-2.17,9.149c-7.352-4.203-13.696-9.704-20.429-14.406
		c0.078-1.989,1.695-2.219,2.652-2.923c6.077-4.473,7.767-4.281,12.928,1.463C577.884,587.716,579.692,590.289,582.818,592.113z"/>
	<path style="fill:#69B145;" d="M191.728,429.315c3.539-2.327,6.558-4.312,9.655-6.349c5.589,1.881,9.189,6.332,13.976,9.636
		c-3.601,3.761-8.137,5.073-11.982,7.609C198.688,437.543,195.149,433.928,191.728,429.315z"/>
	<path style="fill:#69B145;" d="M140.177,194.128c7.666,5.364,15.079,10.551,22.493,15.739c-7.568,1.468-14.845,3.274-22.493,0.92
		C140.177,205.784,140.177,200.175,140.177,194.128z"/>
	<path style="fill:#69B145;" d="M524.671,628.946c-6.462,0-12.924,0-19.759,0c-1.522-1.222-3.301-2.649-5.331-4.279
		c3.856-3.792,8.156-6.519,12.327-9.725c5.943,2.962,8.851,8.735,13.264,13.021C525.005,628.291,524.838,628.618,524.671,628.946z"
		/>
	<path style="fill:#68AF45;" d="M503.335,582.112c-3.206,1.927-5.879,3.534-8.558,5.145c-5.668-2.953-10.239-6.965-15.277-11.005
		c3.325-3.155,7.179-4.691,10.966-7.049c1.727,2.42,3.532,4.695,6.051,6.321C499.018,577.139,501.147,579.252,503.335,582.112z"/>
	<path style="fill:#69B145;" d="M503.834,606.571c-4.534,4.285-9.634,7.325-14.761,10.251c-3.125-1.686-5.796-3.593-8.117-6.401
		c3.901-4.509,9.739-6.219,14.008-10.373C498.353,601.721,501.108,603.98,503.834,606.571z"/>
	<path style="fill:#68AF45;" d="M286.261,612.25c-2.811,2.65-5.431,3.12-8.611,2.163c-3.709-1.117-6.976-2.956-10.104-5.135
		c-4.056-2.825-8.1-5.666-12.415-8.685c1.569-2.12,4.282-2.175,6.123-3.909C270.114,601.218,276.605,608.991,286.261,612.25z"/>
	<path style="fill:#68AF45;" d="M139.312,581.402c2.569-1.963,4.351-2.776,6.547-3.43c7.046,3.299,11.405,9.333,15.824,16.264
		c-3.187,0.974-5.716,1.917-8.943,1.852C148.338,591.465,142.88,587.493,139.312,581.402z"/>
	<path style="fill:#69B145;" d="M240.459,510.114c-5.56,3.201-11.29,4.668-16.628,7.353c-2.423-3.307-6.922-4.693-6.712-9.666
		c4.893-2.312,10.378-2.371,14.838-5.158C235.581,504.403,237.575,507.427,240.459,510.114z"/>
	<path style="fill:#68AF45;" d="M232.098,394.767c-2.506-0.94-5.272-1.145-7.264-3.846c5.238-3.053,9.951-6.598,15.393-8.994
		c2.733-1.203,5.483-1.22,8.258-0.484c2.056,0.545,4.046,1.34,6.711,2.242C247.176,387.532,239.621,391.157,232.098,394.767z"/>
	<path style="fill:#68AF45;" d="M517.836,555.389c1.253-2.186,3.08-2.616,4.803-3.528c8.217,2.451,15.339,7.251,23.42,11.424
		c-4.336,2.234-8.725,1.531-12.648,2.829c-0.96,0.318-1.888-0.42-2.695-1.028C526.506,561.914,522.293,558.745,517.836,555.389z"/>
	<path style="fill:#68AF45;" d="M201.055,357.32c-5.252,2.246-9.658,4.481-14.511,5.879c-3.31-2.125-6.76-3.968-10.004-7.168
		c4.877-2.445,9.239-4.632,13.654-6.846C194.338,350.856,196.348,355.166,201.055,357.32z"/>
	<path style="fill:#68AF45;" d="M209.755,556.824c6.442,4.602,11.19,10.549,17.797,14.374c-1.127,1.618-2.775,1.97-4.185,2.656
		c-1.445,0.703-2.876,0.583-4.225-0.404c-5.492-4.02-11.004-8.013-16.499-12.031c-0.504-0.369-1.243-0.591-1.087-1.821
		C204.084,558.674,206.682,557.352,209.755,556.824z"/>
	<path style="fill:#68AF45;" d="M197.089,583.165c-1.824,2.222-4.28,2.22-6.621,3.224c-7.181-4.717-15.695-7.752-20.433-16.04
		c2.132-1.586,4.365-2.279,6.275-0.996C183.162,573.955,190.424,577.965,197.089,583.165z"/>
	<path style="fill:#68AF45;" d="M250.368,561.635c-2.385,2.217-4.594,2.449-6.814,3.387c-6.586-4.76-12.775-10.108-18.838-15.719
		c1.542-2.327,3.783-2.806,5.568-4.523C236.493,550.994,242.354,557.272,250.368,561.635z"/>
	<path style="fill:#68AE44;" d="M276.788,589.795c2.566-2,4.57-3.093,6.936-3.864c7.101,4.866,14.442,9.346,21.949,13.536
		c-0.846,2.112-2.796,2.499-4.397,3.643C292.921,599.432,285.483,594.112,276.788,589.795z"/>
	<path style="fill:#69B145;" d="M144.893,239.675c2.272,5.457,5.645,10.369,9.314,15.84c-4.568,0.447-8.557,1.787-13.235,1.413
		c-2.132-5.489-0.285-11.104-1.076-16.172C141.607,238.923,143.109,238.818,144.893,239.675z"/>
	<path style="fill:#68AF45;" d="M540.386,573.427c4.125-2.512,9-2.37,13.492-4.534c3.922,2.831,7.888,5.694,12.329,8.9
		c-3.988,0.818-7.36,1.533-10.742,2.197c-2.736,0.538-5.206-0.032-7.518-1.665C545.531,576.618,542.983,575.097,540.386,573.427z"/>
	<path style="fill:#68AF45;" d="M565.987,608.386c-1.352,1.625-3.263,2.086-5.152,2.917c-5.727-5.793-12.857-9.61-18.157-15.619
		c4.333-3.705,5.042-3.752,8.683-0.753c3.719,3.063,7.481,6.078,11.113,9.241C563.811,605.334,565.406,606.392,565.987,608.386z"/>
	<path style="fill:#68AE44;" d="M496.527,566.59c2.812-1.65,4.938-2.898,7.305-4.286c6.315,1.721,12.089,4.714,17.188,9.905
		c-2.819,1.275-5.446,2.464-8.218,3.718C508.049,572.166,502.557,569.785,496.527,566.59z"/>
	<path style="fill:#68AF45;" d="M231.99,377.256c-3.448,1.431-6.22,3.798-9.404,5.482c-4.315,2.281-5.95,1.912-8.986-1.812
		c-0.822-1.008-1.612-2.042-2.414-3.061C220.347,370.305,224.786,370.627,231.99,377.256z"/>
	<path style="fill:#69B145;" d="M582.581,534.956c0.252,5.274,0.482,10.001-0.159,15.287c-6.26-3.375-10.637-8.647-17.007-11.405
		c2.745-1.933,5.656-1.488,8.411-1.89C576.572,536.548,579.258,535.732,582.581,534.956z"/>
	<path style="fill:#69B145;" d="M272.035,137.133c-8.744-2.775-15.789-7.698-23.361-11.813c6.314,0,12.628,0,19.214,0
		C269.574,128.886,271.383,132.488,272.035,137.133z"/>
	<path style="fill:#68AF45;" d="M582.726,622.431c-0.033,2.378,0.479,4.358-0.398,6.246c-1.501,0.674-3.103,0.904-4.233-0.223
		c-4.057-4.047-8.526-7.715-12.266-12.549c2.134-1.149,3.784-2.461,6.057-3.023C575.641,615.828,579.385,618.755,582.726,622.431z"
		/>
	<path style="fill:#68AF45;" d="M153.928,147.133c-4.835-1.76-8.753-5.238-13.633-6.898c-0.577-4.719-0.244-9.157-0.226-13.685
		c1.851,0.174,2.57,1.632,3.363,2.729c3.098,4.283,6.078,8.653,9.009,13.053c0.899,1.35,1.901,2.748,1.737,4.544L153.928,147.133z"
		/>
	<path style="fill:#68AE44;" d="M238.636,580.814c3.792,3.208,8.88,4.276,12.447,8.23c-3.326,2.946-6.618,3.777-10.531,1.837
		c-3.272-1.622-6.135-3.786-9.216-6.217C233.289,582.301,236.146,582.064,238.636,580.814z"/>
	<path style="fill:#68AE44;" d="M207.309,408.201c-1.763-1.367-3.416-2.648-5.394-4.182c2.981-2.307,5.636-4.484,8.418-6.483
		c3.086-2.217,3.573-2.132,7.033,0.103c1.089,0.703,2.206,1.363,3.747,2.311C216.583,403.207,212.119,405.828,207.309,408.201z"/>
	<path style="fill:#68AF45;" d="M273.299,578.547c-5.401,4.692-7.605,4.698-12.229,0.147c-1.84-1.811-3.519-3.789-5.847-5.251
		c1.838-1.98,4.184-2.385,6.352-3.51C265.755,572.412,269.95,574.862,273.299,578.547z"/>
	<path style="fill:#68AF45;" d="M544.096,621.096c-0.716,1.332-1.424,1.972-3.185,2.062c-5.611-4.318-9.876-10.798-16.087-14.829
		c0.487-2.553,2.34-2.607,3.866-3.655C534.615,609.688,540.033,614.86,544.096,621.096z"/>
	<path style="fill:#68AF45;" d="M153.798,378.691c-2.334,1.989-4.947,3.137-8.51,3.442c-1.564-3.385-6.104-5.291-5.128-10.427
		c1.779-1.406,4.004-1.836,6.212-2.58C148.877,372.353,151.283,375.453,153.798,378.691z"/>
	<path style="fill:#68AE44;" d="M195.743,542.182c1.338,1.492,2.631,2.933,4.07,4.538c-3.557,2.356-6.993,4.27-11.014,5.019
		c-2.93-1.04-5.227-2.688-5.988-6.23C187.102,544.622,190.612,541.566,195.743,542.182z"/>
	<path style="fill:#68AE44;" d="M251.165,517.24c1.655,1.297,3.007,2.253,3.823,4.148c-5.498,3.425-11.984,4.551-17.183,7.728
		c-1.817-0.367-2.714-1.315-3.697-2.672C239.297,522.543,245.041,519.771,251.165,517.24z"/>
	<path style="fill:#68AE44;" d="M189.758,615.935c-3.54,1.913-6.053,1.226-8.367-0.128c-4.394-2.57-8.688-5.313-13.265-8.134
		c3.759-2.4,7.304-2.406,10.535-0.249C182.34,609.88,185.711,612.798,189.758,615.935z"/>
	<path style="fill:#68AE44;" d="M194.718,384.987c2.995,1.514,5.361,2.912,7.627,5.106c-2.962,2.308-5.383,4.755-8.746,5.847
		c-3.027-0.568-4.963-2.5-6.746-4.911C188.604,387.815,192.394,387.516,194.718,384.987z"/>
	<path style="fill:#68AF45;" d="M152.088,481.074c0.629-0.502,0.962-0.839,1.356-1.072c7.866-4.651,9.758-3.99,13.505,4.703
		C159.962,489.129,159.256,487.583,152.088,481.074z"/>
	<path style="fill:#68AF45;" d="M156.96,436.325c-1.039-1.547-1.942-2.889-2.996-4.458c3.04-3.603,7.599-4.562,11.135-6.994
		c2.372,0.429,3.209,2.418,4.962,3.654C166.154,432.279,161.585,434.149,156.96,436.325z"/>
	<path style="fill:#68AE44;" d="M539.219,586.078c-1.438,1.33-2.994,2.214-4.85,3.107c-3.828-1.73-7.136-4.344-10.558-6.931
		c4.626-4.227,6.434-4.414,10.966-1.242c1.084,0.759,2.089,1.635,3.1,2.492C538.519,584.049,539.013,584.717,539.219,586.078z"/>
	<path style="fill:#68AE44;" d="M158.956,364.456c2.5-2.088,5.011-2.409,7.389-3.404c2.594,2.262,5.16,4.501,7.804,6.807
		c-1.58,2.458-3.975,2.892-5.956,4.126C164.191,370.66,161.975,367.259,158.956,364.456z"/>
	<path style="fill:#68AE44;" d="M192.2,516.163c7.237,0.144,12.611,1.667,17.051,6.57c-2.527,2.192-5.503,2.411-8.282,3.499
		C198.214,523.068,195.581,520.045,192.2,516.163z"/>
	<path style="fill:#66AC44;" d="M510.311,589.652c4.098,1.886,6.706,4.545,8.93,7.839c-1.236,2.166-3.571,2.348-5.435,3.659
		c-2.78-2.431-5.508-4.786-8.764-6.773C506.1,591.916,508.644,591.484,510.311,589.652z"/>
	<path style="fill:#63A743;" d="M337.606,615.209c-4.292,0.901-7.728-1.857-11.685-2.515c-3.82-0.636-7.507-2.068-11.311-3.167
		c0.868-1.998,2.716-2.508,4.386-3.488C325.891,607.42,331.117,612.466,337.606,615.209z"/>
	<path style="fill:#66AC44;" d="M161.253,524.14c6.957,0.805,11.926,4.53,17.714,7.371c-0.914,0.429-1.459,0.718-2.027,0.947
		c-6.476,2.612-8.131,2.163-12.223-3.366C163.638,527.632,162.633,526.117,161.253,524.14z"/>
	<path style="fill:#68AE44;" d="M140.219,469.172c0-3.192,0-5.783,0-8.418c4.254-3.285,7.41-1.652,9.828,5.402
		C147.121,467.495,143.996,468.207,140.219,469.172z"/>
	<path style="fill:#68AE44;" d="M178.752,417.518c3.53-2.124,6.324-3.804,9.022-5.428c2.335,0.691,3.891,2.043,5.472,4.328
		c-3.124,1.865-6.13,3.658-9.254,5.523C181.794,421.181,180.842,419.15,178.752,417.518z"/>
	<path style="fill:#63A743;" d="M211.345,365.262c-5.067,2.511-9.412,5.544-15.366,4.239
		C201.317,363.461,206.686,361.881,211.345,365.262z"/>
	<path style="fill:#68AE44;" d="M173.046,399.053c1.746,1.323,3.598,2.381,4.298,4.91c-2.1,1.918-4.737,2.825-7.213,4.033
		c-1.748-0.809-3.53-1.349-4.231-3.761C168.167,402.59,170.513,400.889,173.046,399.053z"/>
	<path style="fill:#66AC44;" d="M222.437,601.84c-7.334,1.092-10.958-3.442-15.994-6.785c3.037-1.547,5.267-1.405,7.236-0.026
		C216.481,596.992,219.098,599.221,222.437,601.84z"/>
	<path style="fill:#66AC44;" d="M210.951,536.786c7.25-3.626,8.441-3.644,11.7-0.331
		C216.333,541.29,214.705,541.382,210.951,536.786z"/>
	<path style="fill:#66AC44;" d="M143.456,613.69c2.746-0.679,4.511-1.935,7.045-1.497c2.397,2.332,4.467,5.199,6.637,8.979
		C151.81,619.585,148.053,616.693,143.456,613.69z"/>
	<path style="fill:#66AC44;" d="M477.288,624.031c-5.118,0.169-9.032-0.535-13.253-2.112c1.921-1.921,3.786-3.091,5.822-4.092
		C473.029,618.709,474.628,621.212,477.288,624.031z"/>
	<path style="fill:#63A743;" d="M361.191,619.394c4.279-1.079,7.166,0.703,9.927,2.524c2.641,1.741,5.475,2.95,9.175,3.914
		c-2.663,1.946-4.715,1.414-6.753,0.314C369.615,624.027,365.711,621.868,361.191,619.394z"/>
	<path style="fill:#66AC44;" d="M163.993,389.42c-1.277,2.029-3.493,2.928-5.364,4.177c-2.113,1.41-2.774,0.979-4.864-2.322
		c2.658-1.803,5.652-2.89,8.359-4.166C163.358,387.601,163.988,388.267,163.993,389.42z"/>
	<path style="fill:#63A743;" d="M184.836,377.298c-2.126,2.519-5.37,2.99-7.644,4.598c-1.238-0.357-1.638-1.048-1.923-1.842
		C178.84,374.757,180.849,374.133,184.836,377.298z"/>
	<path style="fill:#68AF45;" d="M147.872,420.015c-1.743-0.957-2.045-1.995-1.845-3.435c1.878-1.732,4.3-2.702,6.503-3.641
		c1.743,0.325,2.481,1.362,3.107,2.718C153.05,417.109,150.475,418.555,147.872,420.015z"/>
	<path style="fill:#66AC44;" d="M212.366,628.823c-3.876-0.328-8.205,2.042-11.414-1.701c0.232-1.905,1.423-2.013,2.596-2.068
		C207.082,624.888,209.685,626.912,212.366,628.823z"/>
	<path style="fill:#63A743;" d="M556.226,130.617c-3.851-1.982-6.777-3.488-10.62-5.466c3.355,0,5.621,0,7.799,0
		C554.849,126.317,555.504,127.761,556.226,130.617z"/>
	<path style="fill:#63A743;" d="M185.44,474.408c3.177-0.606,6.309-0.195,9.601-0.312
		C190.347,477.893,187.396,477.997,185.44,474.408z"/>
	<path style="fill:#63A743;" d="M140.31,276.586c1.592,2.444,2.556,3.925,3.537,5.432c-0.905,1.44-2.299,1.126-3.573,1.445
		C139.783,281.473,139.9,279.536,140.31,276.586z"/>
	<path style="fill:#63A743;" d="M140.231,398.337c1.72,0.901,2.789,1.79,2.898,3.431c-0.455,1.34-1.621,1.496-2.752,1.795
		C139.706,401.973,139.914,400.376,140.231,398.337z"/>
	<path style="fill:#68AF45;" d="M154.178,146.876c0.211,0.19,0.618,0.529,0.603,0.549c-0.542,0.713-0.649,0.065-0.853-0.292
		L154.178,146.876z"/>
	<path style="fill:#224C2B;" d="M559.985,501.068c-2.436-1.206-2.429-4.145-4.155-5.854c0.161-0.157,0.325-0.312,0.492-0.463
		c2.716,1.219,3.737,3.438,3.701,6.28L559.985,501.068z"/>
	<path style="fill:#224C2B;" d="M560.022,501.03c0.226,0.143,0.451,0.286,0.677,0.43c-0.696,0.703-0.568-0.094-0.715-0.392
		L560.022,501.03z"/>
	<path style="fill:#224C2B;" d="M415.773,473.56c-0.098,0.106-0.196,0.212-0.294,0.318c-0.078-0.121-0.225-0.249-0.215-0.363
		c0.01-0.114,0.177-0.213,0.276-0.319C415.618,473.317,415.696,473.439,415.773,473.56z"/>
	<path style="fill:#224C2B;" d="M555.83,495.214c-0.339-0.323-0.679-0.646-1.018-0.968c0.17-0.173,0.337-0.349,0.503-0.526
		c0.336,0.344,0.671,0.688,1.007,1.031C556.155,494.902,555.991,495.057,555.83,495.214z"/>
	<path style="fill:#224C2B;" d="M477.034,140.019c-0.251-0.093-0.502-0.186-0.753-0.279c0.642-0.734,0.519,0.113,0.698,0.337
		L477.034,140.019z"/>
	<path style="fill:#224C2B;" d="M812.197,555.172c0-8.513,0-16.569,0-25.162c8.513,0.375,16.918-0.796,25.258,0.975
		c6.211,1.319,9.304,5.004,9.403,11.016c0.094,5.707-3.204,10.066-8.926,11.609c-4.499,1.213-9.078,1.771-13.764,1.592
		C820.357,555.057,816.537,555.172,812.197,555.172z"/>
	<path style="fill:#264E2D;" d="M949.492,581.754c4.363-14.38,8.654-28.521,12.944-42.662c0.309-0.025,0.618-0.05,0.927-0.074
		c4.359,14.126,8.718,28.251,13.187,42.736C967.554,581.754,958.854,581.754,949.492,581.754z"/>
	<path style="fill:#224C2B;" d="M1065.3,384.959c-12.636,0-24.916,0-37.443,0c0-9.275,0-18.34,0-27.383
		c1.255-0.882,2.63-0.498,3.923-0.503c9.157-0.035,18.315-0.037,27.472-0.012c6.156,0.016,9.28,2.241,11.191,7.869
		C1072.888,372.128,1070.889,380.044,1065.3,384.959z"/>
	<path style="fill:#224C2B;" d="M1123.376,207.666c0.014,12.555-2.492,22.15-8.898,30.595
		c-13.432,17.707-41.125,17.532-54.412-1.463c-11.599-16.582-10.567-42.841,3.425-57.915c14.747-15.887,40.191-13.984,52.27,4.023
		C1121.23,191.058,1123.45,200.107,1123.376,207.666z"/>
	<path style="fill:#264E2D;" d="M859.556,426.969c5.338-11.929,10.504-23.473,15.979-35.707
		c5.556,12.245,10.805,23.814,16.202,35.707C880.94,426.969,870.535,426.969,859.556,426.969z"/>
	<path style="fill:#224C2B;" d="M246.001,406.05c0.64-0.019,1.285-0.056,1.797,0.502c-0.836,0.648-1.441,0.538-1.799-0.5
		L246.001,406.05z"/>
	<path style="fill:#224C2B;" d="M357.987,354.062c0.269,0.152,0.538,0.304,0.807,0.455c-0.678,0.508-0.817,0.155-0.775-0.485
		L357.987,354.062z"/>
	<path style="fill:#264E2D;" d="M676.856,577.177c9.191,0.365,18.147-0.802,27.042,0.85c6.559,1.218,10.053,5.362,10.104,11.625
		c0.053,6.402-3.686,11.021-10.119,12.275c-1.949,0.38-3.974,0.487-5.965,0.503c-6.946,0.058-13.893,0.023-21.062,0.023
		C676.856,593.841,676.856,585.772,676.856,577.177z"/>
	<path style="fill:#264E2D;" d="M676.885,553.728c0-7.883,0-15.487,0-23.741c7.969,0.446,16.09-0.88,24.123,1.001
		c5.81,1.36,8.279,5,8.12,11.382c-0.141,5.658-3.151,9.62-8.658,10.58C692.756,554.294,684.955,554.036,676.885,553.728z"/>
	<path style="fill:#224C2B;" d="M323.773,129.277c-0.542-0.242-0.904-0.592-0.745-1.252l-0.044,0.047
		c0.576-0.007,0.983,0.245,1.204,0.784C324.05,128.997,323.912,129.138,323.773,129.277z"/>
	<path style="fill:#224C2B;" d="M323.027,128.025c-0.229-0.099-0.458-0.198-0.687-0.297c0.646-0.694,0.476,0.141,0.643,0.344
		L323.027,128.025z"/>
	<path style="fill:#264E2D;" d="M1227.277,600.977c0-22.727,0-44.862,0-67.5c8.879-0.522,17.59-0.98,25.786,3.189
		c5.818,2.959,8.58,8.156,9.892,14.238c1.729,8.015,2.056,16.138,1.385,24.295c-0.272,3.308-0.345,6.645-1.302,9.878
		c-2.559,8.65-6.457,14.486-16.999,15.716C1239.95,601.504,1233.794,601.366,1227.277,600.977z"/>
	<path style="fill:#224C2B;" d="M207.027,133.029c-0.429-0.068-0.586-0.246-0.471-0.535c0.319-0.037,0.457,0.16,0.415,0.589
		L207.027,133.029z"/>
	<path style="fill:#224C2B;" d="M218.877,191.163c-0.202-0.198-0.599-0.541-0.577-0.572c0.466-0.626,0.688-0.165,0.915,0.24
		L218.877,191.163z"/>
</g>
</svg>
