<?xml version="1.0" encoding="iso-8859-1"?>
<!-- Generator: Adobe Illustrator 27.0.0, SVG Export Plug-In . SVG Version: 6.00 Build 0)  -->
<svg version="1.1" id="Layer_1" xmlns="http://www.w3.org/2000/svg" xmlns:xlink="http://www.w3.org/1999/xlink" x="0px" y="0px"
	 viewBox="0 0 1506.658 601.153" style="enable-background:new 0 0 1506.658 601.153;" xml:space="preserve">
<g>
	<path style="fill:#545050;" d="M1348,601.153c-0.957-1.782-2.66-0.877-4.004-1.014c-14.142-1.443-25.3-7.507-32.319-20.564
		c3.168-3.092,7.118-4.901,10.629-7.62c2.863,2.757,4.755,6.138,7.964,8.355c11.164,7.711,23.058,8.644,35.561,4.111
		c3.723-1.35,6.6-3.873,8.086-7.673c2.408-6.158,0.508-11.473-5.355-14.886c-4.819-2.805-10.173-3.951-15.615-4.732
		c-6.904-0.991-13.828-1.897-20.398-4.395c-5.854-2.225-11.161-5.205-14.321-10.981c-6.731-12.302-2.085-26.747,11.414-33.033
		c14.43-6.72,29.302-6.65,43.907-0.181c4.931,2.184,8.869,5.807,11.819,10.961c-3.241,3.044-7.218,5.01-10.817,7.514
		c-9.064-9.824-20.213-11.61-32.528-8.858c-2.928,0.654-5.638,1.928-7.928,3.995c-6.017,5.433-5.172,13.092,1.998,16.812
		c5.092,2.642,10.733,3.357,16.313,4.224c7.882,1.225,15.69,2.66,23.022,6.06c16.513,7.657,17.313,25.881,10.473,36.763
		c-4.004,6.371-10.207,9.884-17.21,12.016c-3.964,1.206-8.024,2.124-12.224,2.149c-0.907,0.005-2.061-0.391-2.466,0.976
		C1352,601.153,1350,601.153,1348,601.153z"/>
	<path style="fill:#544F50;" d="M515,601.153c-1.742-1.886-4.256-1.459-6.384-1.887c-16.344-3.286-26.751-16.378-28.716-31.179
		c-0.506-3.813-0.743-7.603-0.743-11.43c0.004-15.152,0.002-30.304,0.002-45.456c0-1.48,0-2.96,0-4.76
		c4.897-0.942,9.619-0.336,14.212-0.394c1.098,1.569,0.635,3.112,0.639,4.554c0.038,16.151,0.039,32.302,0.016,48.453
		c-0.006,4.021,0.47,7.946,1.779,11.763c3.285,9.574,10.36,14.963,20.377,15.51c3.165,0.173,6.326,0.243,9.43-0.541
		c10.921-2.759,16.955-11.393,17.354-22.768c0.397-11.309,0.133-22.641,0.148-33.964c0.01-7.467,0.002-14.935,0.002-22.701
		c4.982-0.756,9.696-0.289,14.125-0.342c1.058,1.173,0.749,2.221,0.749,3.178c0.01,17.483-0.015,34.966-0.009,52.449
		c0.001,4.191-0.736,8.244-1.831,12.279c-4.149,15.277-16.026,24.291-31.658,26.203c-1.181,0.144-2.743-0.68-3.491,1.032
		C519,601.153,517,601.153,515,601.153z"/>
	<path style="fill:#544F50;" d="M46,601.153c-0.749-1.7-2.306-0.893-3.496-1.053c-10.832-1.46-20.538-5.248-28.324-13.244
		c-6.226-6.394-9.845-14.103-11.655-22.726c-2.847-13.559-1.138-26.458,6.112-38.382c8.142-13.391,20.609-19.871,35.798-21.437
		c9.949-1.026,19.511,0.584,28.45,5.43c4.151,2.25,7.71,5.124,11.295,8.748c-3.224,3.074-6.311,6.018-9.148,8.724
		c-1.779,0.38-2.534-0.715-3.396-1.384c-9.523-7.392-20.221-8.724-31.588-5.942c-12.342,3.02-19.698,11.241-22.756,23.289
		c-2.606,10.269-1.265,20.191,4.441,29.214c5.701,9.013,14.552,12.73,24.776,13.749c10.706,1.067,19.925-2.458,28.195-9.541
		c3.751,2.897,6.658,6.533,10.304,9.888c-6.144,6.644-13.675,10.4-22.105,12.602c-2.742,0.716-5.532,1.111-8.38,1.116
		c-0.911,0.001-2.057-0.347-2.524,0.95C50,601.153,48,601.153,46,601.153z"/>
	<path style="fill:#544F50;" d="M788,601.153c-0.577-1.546-1.951-0.916-2.995-1.032c-6.846-0.757-13.375-2.596-19.373-5.983
		c-9.376-5.294-15.778-13.219-19.231-23.336c-4.513-13.222-4.441-26.478,1.295-39.355c7.552-16.957,21.231-25.401,39.303-27.17
		c10.166-0.995,19.835,0.899,28.833,5.946c3.812,2.138,7.035,4.925,9.718,7.511c-2.939,3.472-5.708,6.742-8.812,10.408
		c-7.438-6.343-15.585-9.834-24.859-9.638c-5.973,0.126-11.93,1.05-17.26,4.146c-3.919,2.277-7.382,5.08-10.015,8.844
		c-9.565,13.671-8.326,34.613,2.909,45.588c6.782,6.625,15.221,9.137,24.564,9.176c8.7,0.036,13.927-1.878,24.778-9.483
		c3.719,2.695,6.554,6.403,10.255,9.788c-7.92,7.939-17.25,12.274-28.122,13.558c-1.338,0.158-3.044-0.753-3.987,1.032
		C792.667,601.153,790.333,601.153,788,601.153z"/>
	<path style="fill:#FAE7E0;" d="M0,148.153c0.311-0.014,0.623-0.017,0.934-0.009c0.021,1.999,0.06,3.998,0.06,5.996
		c0.003,99.469,0.001,198.938,0.013,298.407c0,2.16,0.152,4.32,0.234,6.481c-0.414,0.042-0.827,0.083-1.241,0.125
		C0,355.486,0,251.819,0,148.153z"/>
	<path style="fill:#C8C4C4;" d="M145,601.153c0.009-0.282-0.009-0.562-0.057-0.839c3.7-0.015,7.4-0.031,11.101-0.046
		c-0.078,0.292-0.093,0.587-0.044,0.886C152.333,601.153,148.667,601.153,145,601.153z"/>
	<path style="fill:#C8C4C4;" d="M1139.068,600.361c-0.013,0.265-0.036,0.528-0.068,0.791c-3.333,0-6.667,0-10,0
		c0.005-0.28-0.015-0.558-0.058-0.834C1132.318,600.058,1135.694,600.074,1139.068,600.361z"/>
	<path style="fill:#DC242D;" d="M1.241,459.028c-0.081-2.16-0.233-4.32-0.234-6.481c-0.012-99.469-0.01-198.938-0.013-298.407
		c0-1.999-0.039-3.998-0.06-5.996c1.135-1.065,2.539-0.583,3.816-0.584c67.488-0.024,134.977-0.023,202.465-0.007
		c1.135,0,2.333-0.306,3.679,0.561c0,16.921,0,34.007,0,51.538c-50.133,0-100.218,0-150.572,0c0,26.202,0,51.962,0,78.193
		c47.406,0,94.796,0,142.454,0c0,16.884,0,33.299,0,50.154c-47.361,0-94.758,0-142.67,0c0,43.812,0,87.19,0,131.029
		C40.143,459.028,20.692,459.028,1.241,459.028z"/>
	<path style="fill:#DC242D;" d="M606.746,353.181c-1.348,39.203-17.645,70.303-50.707,92.03
		c-17.348,11.4-36.631,16.759-57.265,18.26c-22.245,1.618-43.597-1.721-63.474-11.622c-33.18-16.528-53.276-43.394-59.371-80.042
		c-5.677-34.135,2.853-64.728,25.468-90.981c12.595-14.621,28.382-24.975,46.496-31.738c18.148-6.776,36.806-8.105,55.979-6.21
		c18.371,1.816,35.536,7.047,51.114,16.828c27.204,17.081,43.782,41.643,50.015,73.145c0.805,4.069,1.305,8.212,1.698,12.344
		C606.95,347.834,606.746,350.517,606.746,353.181z M546.4,353.616c-0.005-9.232-1.894-17.96-5.52-26.293
		c-9.932-22.827-31.847-39.525-59.297-34.216c-14.431,2.791-26.059,9.857-34.64,21.628c-10.617,14.563-13.788,30.982-11.161,48.697
		c2.496,16.833,10.33,30.562,24.381,40.126c16.019,10.904,33.58,13.93,51.564,5.659C535.244,398.401,544.77,378.293,546.4,353.616z"
		/>
	<path style="fill:#DC242D;" d="M1304.273,360.326c-52.184,0-103.986,0-156.151,0c3.056,13.073,8.745,24.239,18.505,33.12
		c11.294,10.276,24.465,16.34,39.747,17.923c19.598,2.031,37.505-3.545,54.775-11.894c10.506-5.079,20.208-11.538,29.635-18.408
		c1.556-1.134,2.867-2.789,5.223-3.067c0,18.919,0,37.706,0,56.781c-10.38,5.785-20.998,11.209-32.103,15.653
		c-12.203,4.884-24.615,9.045-37.619,11.29c-35.038,6.051-67.292-0.306-95.629-22.323c-21.18-16.456-34.312-38.308-39.457-64.593
		c-6.505-33.238,1.018-63.512,21.535-90.269c14.691-19.159,33.904-32.108,57.355-38.572c24.617-6.786,48.883-5.353,72.385,4.097
		c26.829,10.789,44.578,30.72,54.476,57.72c4.38,11.949,6.675,24.35,7.1,37.079C1304.214,349.816,1305.193,354.761,1304.273,360.326
		z M1242.795,321.301c0.1-0.682,0.26-1.151,0.216-1.601c-0.08-0.822-0.235-1.643-0.438-2.444
		c-2.41-9.527-7.629-17.316-15.246-23.357c-7.91-6.273-17.141-9.917-27.215-9.455c-21.604,0.99-38.172,13.529-45.968,33.982
		c-0.315,0.826-0.863,1.815,0.115,2.876C1183.658,321.301,1213.175,321.301,1242.795,321.301z"/>
	<path style="fill:#DC242D;" d="M822.571,458.76c-18.271,0-36.683,0-55.361,0c-0.619-1.787-0.328-3.619-0.329-5.392
		c-0.021-38.159-0.011-76.317-0.022-114.476c-0.002-6.168-0.41-12.314-1.669-18.364c-3.415-16.418-13.283-24.054-30.017-23.731
		c-17.377,0.336-29.945,8.88-39.302,22.765c-7.174,10.646-10.927,22.638-12.945,35.267c-1.086,6.792-1.17,13.595-1.176,20.419
		c-0.024,25.828-0.01,51.656-0.01,77.484c0,1.823,0,3.646,0,5.409c-3.888,1.151-39.957,1.557-55.872,0.686
		c-1.077-3.788-1.565-196.497-0.51-211.474c18.532,0,37.094,0,56.153,0c0,10.135,0,20.384,0,30.883
		c2.295-0.704,2.873-2.373,3.79-3.653c6.67-9.307,14.545-17.283,24.538-23.091c8.18-4.755,16.933-7.754,26.286-8.751
		c14.353-1.529,28.521-0.966,42.285,4.174c21.078,7.87,33.973,23.156,40.553,44.219c3.099,9.921,4.176,20.164,4.177,30.53
		c0.003,44.491,0.004,88.981-0.011,133.472C823.128,456.267,823.416,457.459,822.571,458.76z"/>
	<path style="fill:#DC242D;" d="M923.126,183.554c0,21.258,0,42.194,0,63.612c19.711,0,39.104,0,58.825,0
		c0,14.384,0,28.289,0,42.568c-18.692,0-37.455,0-55.791,0c-1.674,1.42-1.134,2.853-1.135,4.108
		c-0.031,29.153-0.013,58.306-0.032,87.46c-0.004,6.042,0.69,11.931,3.151,17.528c3.263,7.42,9.315,11.037,16.959,12.33
		c10.811,1.829,21.158-0.259,31.256-4.069c1.692-0.639,3.353-1.36,5.047-2.05c1.083,3.553,1.455,40.392,0.538,49.528
		c-8.325,2.508-16.931,4.179-25.607,5.459c-12.545,1.851-25.138,2.735-37.799,1.18c-25.057-3.078-43.828-16.842-48.638-44.405
		c-1.068-6.12-1.194-12.258-1.201-18.413c-0.037-34.151-0.018-68.302-0.018-102.453c0-1.801,0-3.602,0-5.849
		c-11.822,0-23.237,0-34.967,0c0-14.368,0-28.275,0-42.641c11.569,0,22.986,0,34.915,0c0-21.514,0-42.58,0-63.893
		C886.903,183.554,904.657,183.554,923.126,183.554z"/>
	<path style="fill:#DC252E;" d="M1332.455,247.18c18.536,0,36.804,0,55.583,0c0,11.273,0,22.485,0,33.761
		c2.342-0.07,2.283-1.783,2.863-2.806c5.542-9.785,11.885-18.905,21.358-25.338c18.341-12.455,37.856-13.846,58.565-6.201
		c0,17.169,0,34.093,0,51.461c-4.162-1.048-8.201-2.236-12.312-3.069c-12.251-2.481-23.788-0.33-34.576,5.854
		c-14.438,8.275-23.11,21.225-28.833,36.375c-4.204,11.128-6.253,22.704-6.238,34.642c0.034,26.984-0.009,53.968-0.02,80.952
		c-0.001,1.819,0,3.638,0,6.194c-18.781,0.008-37.346,0.003-55.858,0.004C1331.882,455.016,1331.409,262.011,1332.455,247.18z"/>
	<path style="fill:#DC242D;" d="M287.685,458.787c-18.461,0-36.87,0-55.556,0c0-70.548,0-140.916,0-211.537
		c18.508,0,36.893,0,55.615,0c0,11.339,0,22.45,0,33.583c1.916,0.045,1.921-1.372,2.423-2.278
		c5.704-10.295,12.442-19.758,22.436-26.34c18.175-11.97,37.433-13.13,57.817-5.553c0,17.141,0,34.053,0,51.288
		c-3.595-0.401-6.885-1.964-10.362-2.688c-17.732-3.695-33.334,0.761-46.597,12.896c-13.435,12.293-20.12,28.219-23.458,45.764
		c-1.497,7.871-1.918,15.828-1.898,23.836c0.062,25.156,0.032,50.313,0.003,75.469C288.107,455.009,288.476,456.851,287.685,458.787
		z"/>
	<path style="fill:#DB222D;" d="M1012.97,458.16c0-70.334,0-140.427,0-210.814c18.506,0,36.937,0,55.724,0
		c0,70.059,0,140.279,0,210.814C1050.334,458.16,1031.929,458.16,1012.97,458.16z"/>
	<path style="fill:#545050;" d="M366.99,529.422c0,22.914,0,45.827,0,69.095c-5.024,0-9.746,0-14.737,0c0-30.774,0-61.498,0-92.39
		c5.713,0,11.172,0,17.079,0c9.898,14.047,19.946,28.307,30.366,43.095c10.209-14.52,20.281-28.845,30.293-43.085
		c5.715,0,11.169,0,16.913,0c0,30.886,0,61.593,0,92.587c-4.857,0.153-9.437,0.414-14.469-0.211c0-23.121,0-46.049,0-68.977
		c-0.311-0.114-0.621-0.229-0.932-0.343c-10.053,13.948-20.107,27.896-30,41.622c-1.383,0.725-2.517,0.604-3.96,0.201
		c-9.844-13.841-19.825-27.873-29.805-41.906C367.488,529.214,367.239,529.318,366.99,529.422z"/>
	<path style="fill:#545050;" d="M238.66,529.719c0,22.788,0,45.576,0,68.7c-5.003,0.883-9.715,0.272-14.639,0.419
		c0-31.085,0-61.676,0-92.565c5.513-0.667,10.955-0.146,16.862-0.323c10.037,14.226,20.173,28.592,30.533,43.275
		c10.196-14.523,20.197-28.767,30.234-43.063c5.706,0,11.301,0,17.127,0c0,30.806,0,61.41,0,92.363c-4.676,0-9.391,0-14.619,0
		c0-23.078,0-46.086,0-69.095c-0.31-0.102-0.62-0.204-0.93-0.307c-10.069,13.981-20.138,27.962-30.004,41.661
		c-3.243,1.501-4.554-0.422-5.958-2.42c-8.128-11.569-16.296-23.111-24.467-34.651c-1.037-1.464-2.165-2.862-3.252-4.291
		C239.251,529.52,238.956,529.619,238.66,529.719z"/>
	<path style="fill:#565152;" d="M1271.294,569.853c0-21.131,0-42.262,0-63.395c2.617-1.25,5.142-0.573,7.579-0.69
		c2.304-0.111,4.618-0.024,7.281-0.024c0,30.895,0,61.461,0,92.317c-3.568,1.058-7.348,0.305-11.398,0.419
		c-17.088-21.312-34.222-42.681-52.06-64.928c0,22.229,0,43.332,0,64.721c-5.145,0-9.9,0-15.006,0c0-30.68,0-61.241,0-92.02
		c3.487-1.11,7.139-0.211,11.172-0.573c17.061,21.461,34.206,43.027,51.351,64.594
		C1270.575,570.134,1270.935,569.994,1271.294,569.853z"/>
	<path style="fill:#544F50;" d="M668.559,598.111c-4.07,0.372-7.852,0.32-11.721,0.06c-17.055-21.287-34.075-42.53-51.726-64.561
		c0,21.977,0,42.977,0,64.237c-5.063,0.964-9.81,0.312-14.866,0.477c0-30.721,0-61.253,0-92.077c3.584,0,7.175,0,11.357,0
		c16.949,21.318,34.189,43.003,52.184,65.637c0-22.604,0-43.942,0-65.54c5.056-0.767,9.781-0.219,14.772-0.358
		C668.559,536.768,668.559,567.166,668.559,598.111z"/>
	<path style="fill:#544F50;" d="M1139.068,600.361c-3.374-0.287-6.75-0.303-10.126-0.042c-14.27-0.65-26.152-6.199-34.689-17.783
		c-7.859-10.664-10.322-22.979-8.87-35.945c1.351-12.071,5.992-22.681,15.431-30.898c7.129-6.206,15.306-9.895,24.602-11.039
		c13.121-1.615,25.488,0.2,36.408,8.405c7.598,5.708,12.534,13.245,15.418,22.142c3.862,11.915,3.904,23.944-0.319,35.747
		C1170.577,588.685,1157.545,598.095,1139.068,600.361z M1165.153,551.818c0.386-2.329-0.432-5.945-1.336-9.458
		c-2.877-11.182-9.336-19.379-20.637-22.96c-6.448-2.043-13.046-1.921-19.681-0.49c-9.502,2.049-16.232,7.618-20.029,16.32
		c-5.104,11.697-4.939,23.586,0.626,35.162c4.08,8.488,11.088,13.599,20.152,15.568c4.67,1.015,9.509,1.018,14.356,0.36
		c7.195-0.977,13.348-3.693,18.194-9.212C1162.815,570.253,1164.946,562.086,1165.153,551.818z"/>
	<path style="fill:#544F50;" d="M156.044,600.267c-3.7,0.015-7.4,0.031-11.101,0.046c-21.018-0.817-37.338-14.112-42.278-34.486
		c-4.76-19.63,0.97-43.215,21.085-55.192c5.808-3.458,12.131-5.517,18.766-6.178c15.624-1.555,29.773,1.722,40.964,13.663
		c5.598,5.974,8.954,13.104,10.898,20.977c2.75,11.131,2.333,22.195-1.723,32.862C186.277,588.737,173.661,597.83,156.044,600.267z
		 M181.176,551.432c0.248-2.953-0.618-7.52-2.15-11.936c-3.671-10.583-10.498-17.856-21.724-20.556
		c-5.948-1.43-11.812-1.292-17.746-0.018c-8.092,1.737-14.323,6.072-18.371,13.259c-5.654,10.037-6.639,20.651-3.479,31.723
		c1.876,6.573,5.086,12.198,10.57,16.439c9.192,7.108,19.561,7.387,30.304,5.214c6.059-1.226,10.974-4.417,14.943-9.209
		C179.112,569.599,181.003,561.712,181.176,551.432z"/>
	<path style="fill:#544F50;" d="M942.374,598.094c-5.489,0-10.427,0-15.765,0c-2.79-6.148-5.649-12.45-8.527-18.791
		c-16.649,0-33.102,0-50.004,0c-2.826,6.115-5.721,12.381-8.677,18.778c-5.18,0-10.258,0-15.947,0
		c13.926-30.94,27.649-61.429,41.385-91.947c5.608,0,10.898,0,16.549,0C914.973,536.614,928.58,567.145,942.374,598.094z
		 M893.654,522.838c-0.376,0.045-0.753,0.089-1.129,0.134c-6.193,13.957-12.386,27.913-18.652,42.034
		c8.743,0.954,34.702,0.644,38.331-0.471C906.011,550.613,899.833,536.725,893.654,522.838z"/>
	<path style="fill:#DC252E;" d="M1070.076,190.802c0.198,13.908-9.734,29.675-31.305,29.834c-15.407,0.113-28.7-13.476-28.76-29.845
		c-0.061-16.51,13.509-31.169,29.255-30.332C1055.364,161.315,1070.274,172.949,1070.076,190.802z"/>
	<path style="fill:#DC262E;" d="M948.049,92.033c14.568-0.448,26.943,12.047,26.887,26.889
		c-0.055,14.702-12.429,27.117-27.028,27.047c-14.675-0.07-26.867-12.424-26.867-27.192
		C921.042,104.007,933.355,91.544,948.049,92.033z"/>
	<path style="fill:#524E4F;" d="M944.29,519.216c0-3.87-0.007-7.165,0.005-10.46c0.003-0.815-0.128-1.673,0.739-2.572
		c24.683,0,49.589,0,74.809,0c0,4.141,0,8.225,0,12.858c-9.713,0-19.595,0-29.839,0c0,26.596,0,52.653,0,79.004
		c-5.085,0-9.802,0-14.891,0c0-26.115,0-52.179,0-78.829C964.732,519.216,954.703,519.216,944.29,519.216z"/>
	<path style="fill:#DC262E;" d="M876.204,67.272c0.661,9.927-7.634,22.482-22.387,22.559c-14.149,0.074-22.847-11.22-22.772-22.801
		c0.074-11.265,8.294-22.451,22.524-22.564C868.973,44.344,876.985,57.537,876.204,67.272z"/>
	<path style="fill:#DC262E;" d="M782.09,35.003c0.064,9.547-7.339,20.73-21.115,20.781c-13.4,0.049-21.791-11.169-21.211-22.2
		c0.6-11.399,9.957-20.481,21.623-20.286C773.1,13.495,782.282,23.122,782.09,35.003z"/>
	<path style="fill:#544F50;" d="M1057.68,598.878c-4.98,0-9.582,0-14.414,0c0-30.907,0-61.621,0-92.676
		c2.431-0.606,4.902-0.219,7.326-0.289c2.286-0.066,4.575-0.014,7.089-0.014C1057.68,537.086,1057.68,567.807,1057.68,598.878z"/>
	<path style="fill:#565152;" d="M715.77,598.058c-4.808,0-9.402,0-14.272,0c0-30.719,0-61.25,0-92.053
		c4.742-0.675,9.344-0.23,14.272-0.346C715.77,536.49,715.77,567.019,715.77,598.058z"/>
	<path style="fill:#DC262E;" d="M644.846,18.163c0.012-10.286,8.018-18.2,18.372-18.163c10.244,0.036,18.542,8.061,18.3,18.326
		c-0.229,9.708-6.904,18.208-18.468,18.247C651.027,36.613,644.452,26.44,644.846,18.163z"/>
	<path style="fill:#DC2B30;" d="M563.807,33.885c-8.335-0.038-15.641-7.452-15.53-15.759c0.114-8.447,7.534-15.937,15.733-15.522
		c9.21,0.466,15.309,6.895,15.494,15.721C579.682,26.75,572.195,33.924,563.807,33.885z"/>
	<path style="fill:#DC2B30;" d="M466.796,17.161c7.449,0,13.76,6.181,13.835,13.549c0.079,7.73-6.137,14.101-13.77,14.113
		c-7.61,0.012-13.983-6.455-13.855-14.059C453.13,23.377,459.432,17.161,466.796,17.161z"/>
	<path style="fill:#DC2B30;" d="M374.136,57c5.27,0.058,9.534,4.3,9.49,9.44c-0.043,5.045-4.474,9.509-9.506,9.578
		c-5.195,0.071-9.878-4.659-9.743-9.842C364.511,61.038,368.867,56.941,374.136,57z"/>
	<path style="fill:#DD3733;" d="M1499.483,252.222c2.726-1.263,2.686-5.938,7.175-5.647c0,4.733,0,9.423,0,14.176
		c-0.63,0.652-1.401,0.421-2.489,0.087c-0.115-2.391-0.236-4.907-0.399-8.296c-1.696,2.183-2.881,3.708-4.077,5.248
		c-2.268-0.741-2.231-3.632-4.485-4.517c-0.856,2.441,0.277,4.907-0.385,7.298c-0.736,0.963-1.693,0.604-2.883,0.308
		c0-4.645,0-9.326,0-14.195C1496.743,245.893,1496.629,251.06,1499.483,252.222z"/>
	<path style="fill:#DC2B30;" d="M297.182,114.146c3.385-0.121,6.207,2.442,6.295,5.715c0.083,3.116-2.892,6.167-6.001,6.155
		c-3.099-0.012-6.108-3.047-6.078-6.13C291.427,116.906,294.098,114.256,297.182,114.146z"/>
	<path style="fill:#DD3733;" d="M1489.313,247.096c0.626,0.826,0.617,1.444,0.283,2.12c-1.167,1.198-2.868,0.151-4.576,1.162
		c0,3.315,0,6.899,0,10.23c-1.167,0.711-1.947,0.633-3.133,0.228c0-3.242,0-6.639,0-9.358c-1.359-2.249-3.218-1.185-4.41-2.021
		c-0.646-0.738-0.588-1.497-0.042-2.496C1481.385,246.785,1485.446,246.531,1489.313,247.096z"/>
	<path style="fill:#DD3733;" d="M255.27,179.281c0.12,2.494-1.671,4.585-4.06,4.738c-2.235,0.143-4.505-1.905-4.695-4.235
		c-0.187-2.296,1.788-4.499,4.169-4.649C253.152,174.98,255.15,176.786,255.27,179.281z"/>
</g>
</svg>
