<?xml version="1.0" encoding="iso-8859-1"?>
<!-- Generator: Adobe Illustrator 27.0.0, SVG Export Plug-In . SVG Version: 6.00 Build 0)  -->
<svg version="1.1" id="Layer_1" xmlns="http://www.w3.org/2000/svg" xmlns:xlink="http://www.w3.org/1999/xlink" x="0px" y="0px"
	 viewBox="0 0 1497.011 235.213" style="enable-background:new 0 0 1497.011 235.213;" xml:space="preserve">
<g>
	<path style="fill:#FDC21A;" d="M336.193,1.091c2.726,0.756,2.782,3.019,2.798,5.183c0.032,4.494-0.091,8.988-0.088,13.482
		c0.009,13.984,0.045,27.967,0.075,41.951c0.009,4.356-0.855,5.366-5.166,5.374c-19.978,0.038-39.955,0.019-59.933,0.012
		c-0.948,0-1.968,0.18-2.871-0.797c0.525-1.585,2.006-1.625,3.144-1.918c3.205-0.827,6.465-1.442,9.678-2.242
		c1.225-0.305,2.697-0.311,3.316-1.798c0.201-0.186,0.588-0.522,0.576-0.536c-0.398-0.493-0.709-0.319-0.95,0.171
		c-9.473,0.503-18.632,3.031-27.976,4.369c-0.623,0.089-1.24,0.491-1.779,0.864c-3.214,2.221-6.456,1.792-10.634-0.075
		c10.635-3.901,20.572-7.545,31.057-11.391c-3.293-2.346-6.38-1.992-9.044-1.052c-6.22,2.193-12.681,3.582-18.832,6.044
		c-2.524,1.01-5.34,1.299-7.738,2.87c-1.147,0.752-2.209,0.032-2.984-1.048c0.613-1.866,1.797-3.055,3.771-3.559
		c7.464-1.907,13.895-6.059,20.603-9.603c0.407-0.215,0.68-0.684,1.214-1.242c-2.443-2.207-5.204-1.504-7.387-0.43
		c-4.614,2.271-9.702,3.388-14.116,6.116c-2.264,1.399-4.95,1.593-7.748,1.749c6.048-7.356,15.624-10.354,22.22-17.466
		c-2.183-1.793-4.145-1.193-5.749-0.095c-5.192,3.551-11.471,5.113-16.381,9.208c-1.767,1.474-4.106,2.092-6.892,1.871
		c0.406-2.788,2.377-4.257,4.085-5.862c5.436-5.106,10.909-10.171,16.341-15.281c0.678-0.637,1.652-1.278,0.729-2.884
		c-5.549,2.781-10.275,6.898-15.673,9.887c-5.39,2.984-9.771,7.526-15.119,10.612c-1.345-2.05-0.603-3.466-0.558-4.7
		c5.061-4.176,13.98-17.011,14.32-21.07c-5.277,3.248-8.994,7.664-13.251,11.412c-4.204,3.701-8.377,7.436-12.688,11.267
		c-1.607-2.548-0.101-4.239,0.689-5.919c3.249-6.906,7.199-13.475,9.939-20.629c0.402-1.05,1.177-2.011,0.52-3.472
		c-1.5-0.324-2.281,0.807-3.008,1.821c-5.61,7.826-12.32,14.833-17.235,23.176c-0.95,1.613-2.176,2.919-4.631,3.587
		c1.178-10.524,5.193-20.166,6.961-30.565c-2.625-0.205-3.626,1.336-4.499,3.168c-4.346,9.116-8.719,18.22-13.077,27.315
		c-1.005,0.463-1.927,0.502-2.994-0.611c-0.888-9.621,0.673-19.595-0.848-29.452c-0.032-0.207-0.529-0.343-1.135-0.709
		c-2.137,9.274-4.797,18.302-5.599,27.687c-3.19,1.493-4.206,1.226-4.563-1.478c-1.262-9.546-3.565-18.864-5.823-28.202
		c-0.394-1.63-1.218-3.589,0.627-5.064c12.704,0.025,25.408,0.059,38.113,0.06c1.074,0,2.377,0.468,3.011-0.98c0.667,0,1.333,0,2,0
		c0.29,0.672,0.8,0.996,1.533,0.996c4.314,0,8.628,0.003,12.942,0.008c0.735,0.001,1.239-0.331,1.525-1.004c0.333,0,0.667,0,1,0
		c0.082,0.638-0.036,1.355,1.033,1.925c1.814-1.316,4.148-0.916,6.422-0.918c20.782-0.018,41.563,0.004,62.345-0.015
		C306.604,1.19,321.398,1.13,336.193,1.091z"/>
	<path style="fill:#619843;" d="M460.011,235.213c-1.176-1.725-3.209-1.417-4.838-1.856c-29.173-7.864-47.142-26.473-54.312-55.813
		c-4.761-19.48-3.164-38.285,5.29-56.41c9.884-21.189,26.456-34.552,48.868-40.82c26.739-7.479,50.944-1.762,73.149,14.163
		c3.7,2.653,3.971,4.255,0.982,7.753c-7.508,8.786-7.577,8.861-17.012,2.704c-15.503-10.115-32.412-13.95-50.438-9.164
		c-21.838,5.799-36.017,20.041-42.058,41.843c-4.189,15.122-3.745,30.327,1.865,45.073c7.392,19.427,21.798,31.026,41.854,35.429
		c19.39,4.257,37.243-0.035,53.629-11.018c1.902-1.275,3.356-2.641,3.339-5.137c-0.076-10.823-0.107-21.647-0.176-32.471
		c-0.002-0.305-0.24-0.608-0.379-0.937c-1.504-1.837-3.624-1.318-5.558-1.316c-10.661,0.012-21.321,0.083-31.982,0.128
		c-1.332,0.006-2.671,0.056-3.996-0.047c-3.296-0.257-4.085-1.004-4.301-4.239c-0.11-1.653,0.02-3.325,0.07-4.987
		c0.179-5.909,1.063-6.85,7.136-6.867c17.159-0.051,34.318-0.04,51.477-0.004c4.344,0.009,5.226,0.893,5.245,5.307
		c0.074,17.158,0.05,34.316,0.146,51.474c0.02,3.586-1.898,5.868-4.464,7.91c-9.482,7.547-20.084,12.872-31.688,16.343
		c-3.916,1.171-8.09,1.224-11.85,2.957C480.011,235.213,470.011,235.213,460.011,235.213z"/>
	<path style="fill:#FDC21A;" d="M109.075,46.142c-3.308,0.753-5.691-1.372-8.245-2.776c-3.489-1.918-6.929-3.912-10.58-5.524
		c-1.743-0.77-3.18-0.901-4.189,1.316c5.386,5.769,13.231,8.54,19.072,14.996c-4.455-0.747-7.971-1.508-11.449-3.423
		c-4.445-2.449-9.433-3.911-14.184-5.807c-2.019-0.806-3.732-0.177-6.234,1.322c5.346,2.857,10.007,5.584,14.88,7.854
		c2.469,1.15,4.796,2.789,7.826,2.8c1.875,0.007,3.14,1.666,3.998,3.415c-0.764,1.944-2.207,1.826-3.619,1.047
		c-5.898-3.255-12.483-4.578-18.789-6.651c-2.697-0.887-5.763-1.249-8.734,1.201c7.734,4.401,16.481,5.465,24.018,9.852
		c-2.924,1.775-5.872,1.645-8.4,0.429c-4.571-2.198-9.641-2.101-14.336-3.7c-2.496-0.85-5.4-1.152-8.66,0.447
		c2.422,1.888,5.79,1.06,7.166,4.245c-15.391,0-30.495,0.021-45.6-0.011c-5.322-0.011-10.647-0.29-15.965-0.178
		c-2.591,0.054-4.847-0.586-7.042-1.783c0-21.333,0-42.667,0-64C14.654,1.212,29.297,1.202,43.94,1.211
		c30.951,0.02,61.902,0.049,92.853,0.075c1.523,1.829,0.919,4.157,1.461,6.215c2.194,8.326,4.435,16.639,6.574,24.978
		c0.307,1.198,0.948,1.984,1.692,2.903c1.389,1.716,0.477,3.709-0.366,5.944c-7.28-9.456-14.56-18.912-22.151-28.772
		c-1.624,2.616-1.053,4.417-0.16,6.212c2.288,4.602,4.591,9.198,6.865,13.807c1.11,2.25,2.189,4.522,1.017,7.411
		c-9.355-7.805-17.673-16.661-27.511-23.822c1.801,5.508,6.09,9.306,8.816,14.085c2.782,4.876,8.144,7.852,10.076,13.806
		c-2.945,0.425-5.288-0.765-6.79-2.509c-2.243-2.605-5.136-4.165-7.811-6.075c-4.189-2.992-8.465-5.867-12.772-8.689
		c-1.282-0.84-2.546-2.404-4.911-0.707c6.09,6.749,12.13,13.444,18.17,20.139L109.075,46.142z"/>
	<path style="fill:#639944;" d="M654.011,235.213c-0.091-1.216-1.118-0.952-1.836-1.142c-28.808-7.615-42.102-33.339-42.217-55.82
		c-0.085-16.686,4.757-31.498,16.198-43.752c14.32-15.338,32.053-20.536,52.213-15.159c19.755,5.268,31.524,18.938,36.466,38.512
		c1.995,7.901,3.049,15.988,2.047,23.919c-1.88,2.475-4.308,2.114-6.616,2.114c-24.994,0.006-49.988,0.004-74.982,0.004
		c-1.821,0-3.642,0-5.02,0c-1.905,1.356-1.782,2.813-1.56,4.34c1.747,12.053,8.218,20.943,18.633,26.855
		c16.208,9.199,36.485,6.614,50.479-6.157c1.724-1.574,3.268-3.358,6.169-3.434c3.749,1.917,5.249,6.448,9.636,8.659
		c-3.668,4.341-7.323,7.673-11.312,10.55c-6.664,4.807-13.975,8.299-22.17,9.704c-0.41,0.07-0.753,0.529-1.128,0.807
		C670.677,235.213,662.344,235.213,654.011,235.213z M628.674,169.24c24.017,0,47.082,0,70.726,0
		c-1.956-14.131-6.731-26.104-19.715-33.005c-12.048-6.404-23.921-4.889-34.804,2.741
		C634.732,146.09,628.907,155.889,628.674,169.24z"/>
	<path style="fill:#639944;" d="M770.011,235.213c-0.698-1.554-2.314-1.113-3.486-1.47c-21.612-6.598-34.447-21.434-39.241-43.052
		c-3.413-15.393-1.189-30.536,5.934-44.628c8.002-15.832,21.567-24.484,38.642-27.82c27.385-5.35,53.906,13.181,59.181,41.982
		c1.051,5.737,1.951,11.463,1.938,17.311c-0.012,5.461-0.829,6.343-6.38,6.347c-25.161,0.016-50.322-0.001-75.483,0.021
		c-2.134,0.002-4.336-0.366-6.395,0.727c-1.091,1.32-0.762,2.804-0.421,4.254c6.535,27.772,34.733,38.368,57.286,27.792
		c4.543-2.131,8.74-4.825,12.328-8.377c1.191-1.179,2.357-2.36,4.087-2.711c3.332,1.314,8.079,5.42,10.326,9.01
		c-0.226,0.484-0.366,1.197-0.791,1.63c-8.778,8.961-18.725,15.918-31.396,18.177c-0.411,0.073-0.754,0.529-1.128,0.807
		C786.677,235.213,778.344,235.213,770.011,235.213z M814.478,169.211c1.599-9.679-5.776-24.568-15.931-31.018
		c-11.568-7.348-23.859-8.08-35.739-0.883c-11.679,7.076-17.25,18.14-18.938,31.901
		C767.859,169.211,791.196,169.211,814.478,169.211z"/>
	<path style="fill:#619843;" d="M1186.011,235.213c-1.357-1.71-3.465-1.531-5.276-2.1c-12.199-3.835-21.088-11.22-24.647-23.853
		c-4.955-17.584,3.28-34.61,20.078-41.816c9.494-4.073,19.602-5.051,29.768-4.958c8.47,0.077,16.881,1.191,25.121,3.323
		c1.761,0.456,3.542,0.926,5.322,0.462c1.305-1.063,1.009-2.485,0.94-3.766c-0.771-14.444-8.985-25.163-23.929-27.51
		c-12.355-1.94-24.142-0.145-35.674,4.266c-1.395,0.533-2.725,1.255-4.146,1.694c-2.207,0.681-4.176-0.014-4.96-2.157
		c-1.288-3.522-3.294-6.943-2.52-11.328c4.657-2.639,9.936-4.062,15.099-5.664c15.994-4.964,32.011-5.35,47.932,0.397
		c14.747,5.323,23.905,16.904,24.793,34.01c0.595,11.452,0.967,22.951,0.651,34.407c-0.354,12.809-0.286,25.611-0.401,38.416
		c-0.009,0.994,0.045,2.005-0.845,3.52c-3.826,1.535-8.286,0.982-12.639,0.437c-2.005-0.251-2.667-2.22-2.776-4.227
		c-0.179-3.3-0.468-6.594-0.725-10.082c-1.468-0.099-2.008,1.04-2.749,1.741c-7.263,6.868-15.47,11.982-25.459,13.822
		c-0.534,0.098-0.837,0.447-0.958,0.966C1200.677,235.213,1193.344,235.213,1186.011,235.213z M1237.413,182.076
		c-1.859-1.18-2.91-1.586-4.05-1.902c-12.017-3.332-24.286-3.622-36.603-2.902c-5.011,0.293-9.747,1.895-14.072,4.557
		c-3.932,2.421-7.074,5.597-8.705,9.944c-3.615,9.632-0.329,19.997,9.688,25.453c13.734,7.48,34.395,4.663,45.444-6.43
		C1237.154,202.726,1238.845,192.75,1237.413,182.076z"/>
	<path style="fill:#619843;" d="M1447.011,235.213c-1.38-1.806-3.599-1.4-5.392-1.774c-9.399-1.96-17.972-5.818-26.115-10.755
		c-1.858-1.126-3.606-2.425-4.354-4.946c0.893-3.456,3.95-5.815,5.743-8.951c1.228-2.149,3.435-1.65,5.314-0.576
		c3.315,1.895,6.52,3.991,9.889,5.782c9.158,4.868,18.901,7.087,29.31,6.284c5.122-0.395,9.738-1.994,13.79-5.134
		c7.691-5.961,7.792-16.802,0.131-22.797c-4.508-3.528-9.78-5.569-15.229-7.182c-8.267-2.447-16.671-4.471-24.597-7.975
		c-4.746-2.098-9.104-4.699-12.825-8.431c-7.134-7.155-7.726-15.893-6.19-25.047c1.401-8.352,6.254-14.511,13.314-19.021
		c10.369-6.623,21.845-7.766,33.611-6.112c9.402,1.322,18.339,4.557,26.875,8.765c1.323,0.652,2.734,1.284,3.776,3.268
		c-0.356,4.009-2.737,7.574-5.574,10.788c-1.541,1.747-3.636,1.027-5.527,0.08c-3.263-1.633-6.492-3.36-9.854-4.766
		c-7.496-3.136-15.355-4.196-23.436-3.498c-4.053,0.35-7.767,1.802-11.076,4.128c-8.196,5.761-8.332,15.762-0.25,21.722
		c3.219,2.374,6.871,4.012,10.677,5.282c7.71,2.572,15.432,5.109,23.105,7.785c2.812,0.981,5.546,2.22,8.235,3.511
		c7.769,3.732,13.445,9.489,16.646,17.57c0,5.667,0,11.333,0,17c-0.555,0.077-0.795,0.451-0.957,0.947
		c-3.962,12.087-12.459,19.133-24.536,22.414c-1.826,0.496-4.001,0.043-5.507,1.639
		C1459.677,235.213,1453.344,235.213,1447.011,235.213z"/>
	<path style="fill:#165478;" d="M338.156,233.258c-0.048,0.652-0.097,1.303-0.145,1.955c-111.167,0-222.333,0-333.5,0
		c-2.96,0-2.96,0-4.5-1c1.042-0.269,0.98-1.073,0.976-1.903c-0.024-5.043-0.024-10.087-0.033-15.13
		c0.146-0.306,0.292-0.611,0.438-0.917c0.937,0.762,0.713,1.835,0.614,2.782c-0.484,4.669,1.329,9.076,1.142,14.174
		c2.278,0,4.235,0,6.193,0c69.294,0,138.589-0.004,207.883,0.002C257.535,233.224,297.845,233.245,338.156,233.258z"/>
	<path style="fill:#FDC21A;" d="M156.16,1.116c1.538,0.84,1.757,2.3,1.791,3.839c0.233,10.323,0.252,20.645-0.19,30.963
		c-0.012,0.28-0.329,0.546-0.518,0.84c-1.377,0.431-1.666-0.764-2.057-1.54c-5.013-9.934-9.937-19.913-15-29.821
		c-0.929-1.817-0.719-3.437-0.176-5.184c0.667,0,1.333,0,2,0c0.465,1.208,1.519,0.996,2.46,0.992
		C148.367,1.186,152.264,1.147,156.16,1.116z"/>
	<path style="fill:#FECF60;" d="M136.793,1.286C105.842,1.26,74.891,1.231,43.94,1.211C29.297,1.202,14.654,1.212,0.011,1.213
		c-0.153-1.972,1.371-0.945,2-0.948c16.333-0.066,32.666-0.052,49-0.052c28.667,0,57.333,0,86,0
		C136.938,0.571,136.866,0.928,136.793,1.286z"/>
	<path style="fill:#FECF60;" d="M336.193,1.091c-14.794,0.04-29.588,0.1-44.382,0.114c-20.782,0.02-41.563-0.002-62.345,0.015
		c-2.274,0.002-4.609-0.399-6.422,0.918c-1.069-0.57-0.951-1.287-1.033-1.925c38,0,76,0,114,0
		C336.022,0.516,336.083,0.808,336.193,1.091z"/>
	<path style="fill:#D0DAC2;" d="M0.783,200.296c0,0-0.395,0.039-0.395,0.039l-0.377-0.123c0-33.333,0-66.667,0-100
		c0.302-0.003,0.602,0.016,0.901,0.057c0.028,32.851,0.056,65.703,0.074,98.554C0.986,199.315,0.854,199.806,0.783,200.296z"/>
	<path style="fill:#FECF60;" d="M203.011,0.213c-0.635,1.448-1.938,0.981-3.011,0.98c-12.704,0-25.408-0.034-38.113-0.06
		c0.094-0.3,0.136-0.607,0.124-0.921C175.677,0.213,189.344,0.213,203.011,0.213z"/>
	<path style="fill:#A5AEBF;" d="M0.954,217.179c0.008,5.043,0.008,10.087,0.033,15.13c0.004,0.83,0.066,1.634-0.976,1.903
		c0-5.667,0-11.333,0-17C0.328,217.287,0.643,217.275,0.954,217.179z"/>
	<path style="fill:#A6BB8B;" d="M0.912,100.27c-0.299-0.041-0.599-0.061-0.901-0.057c0-5.333,0-10.667,0-16
		c0.327-0.006,0.654-0.013,0.981-0.019C0.965,89.552,0.938,94.911,0.912,100.27z"/>
	<path style="fill:#FECF60;" d="M221.011,0.213c-0.286,0.673-0.79,1.005-1.525,1.004c-4.314-0.006-8.628-0.008-12.942-0.008
		c-0.733,0-1.243-0.324-1.533-0.996C210.344,0.213,215.677,0.213,221.011,0.213z"/>
	<path style="fill:#FECF60;" d="M156.16,1.116c-3.896,0.031-7.793,0.07-11.689,0.089c-0.942,0.004-1.995,0.217-2.46-0.992
		c4.667,0,9.333,0,14,0C156.023,0.52,156.073,0.821,156.16,1.116z"/>
	<path style="fill:#5F9741;" d="M0.912,100.27c0.027-5.359,0.053-10.718,0.08-16.077c0.792-2.186,2.442-3.019,4.662-2.978
		c0.999,0.018,1.999-0.002,2.998-0.002c35.316,0,70.632,0.015,105.947-0.011c9.017-0.007,17.927,0.429,26.442,3.915
		c16.91,6.924,26.255,19.207,26.955,37.678c0.156,4.127,0.546,8.273-0.189,12.178c-1.448,1.321-2.996,1.007-4.475,1.11
		c-33.028,2.297-64.573,9.951-93.705,26.168c-12.45,6.931-23.616,15.556-33.151,26.177c-1.981,2.207-4.172,3.631-6.998,4.424
		c-7.988,2.242-15.927,4.661-23.905,6.937c-1.538,0.439-3.098,1.275-4.79,0.505c0.071-0.491,0.203-0.982,0.203-1.473
		C0.968,165.973,0.939,133.121,0.912,100.27z"/>
	<path style="fill:#065B93;" d="M338.156,233.258c-40.311-0.013-80.621-0.034-120.932-0.037
		c-69.294-0.006-138.589-0.002-207.883-0.002c-1.957,0-3.915,0-6.193,0c0.187-5.098-1.626-9.505-1.142-14.174
		c0.098-0.947,0.322-2.02-0.614-2.782c0.223-1.939,1.987-2.104,3.266-2.635c14.919-6.186,30.419-10.367,46.267-13.378
		c14.533-2.762,29.165-4.865,43.926-5.631c15.106-0.784,30.222-0.765,45.355,0.315c14.599,1.042,29.09,2.743,43.471,5.34
		c10.112,1.826,20.167,3.992,30.211,6.174c12.822,2.786,25.728,4.86,38.811,6.057c12.301,1.126,24.6,1.179,36.877,0.498
		c14.606-0.81,28.999-3.34,43.134-7.176c1.757-0.477,3.47-0.925,5.027-0.917c1.134,1.021,0.928,2.064,0.93,3.03
		c0.016,7.823,0.008,15.646,0.016,23.469C338.684,232.084,338.649,232.732,338.156,233.258z"/>
	<path style="fill:#619943;" d="M1011.083,232.618c-4.298,1.393-9.044,1.001-13.754,0.161c-1.298-0.232-2.08-1.49-2.42-2.928
		c-0.504-2.131-0.577-4.272-0.577-6.441c0.012-39.833,0.016-79.665,0-119.498c-0.002-5.163-0.132-10.327-0.188-15.49
		c-0.013-1.166-0.085-2.348,0.074-3.495c0.47-3.397,1.781-4.644,5.254-4.695c6.162-0.09,12.327-0.041,18.491-0.023
		c11.831,0.034,23.667-0.107,35.492,0.189c11.024,0.276,21.864,1.645,31.723,7.306c16.447,9.444,24.195,23.848,23.728,42.517
		c-0.467,18.664-9.248,32.659-25.608,41.645c-10.466,5.748-22.032,6.833-33.745,7.628c-9.507,0.645-18.939-0.329-28.404-0.128
		c-1,0.021-2.003-0.044-2.999,0.013c-5.103,0.297-6.116,1.299-6.12,6.333c-0.011,13.832,0.025,27.665,0.049,41.497
		C1012.079,228.864,1012.293,230.542,1011.083,232.618z M1012.341,97.425c-0.084,0.368-0.289,0.847-0.29,1.326
		c-0.022,20.134-0.025,40.267-0.034,60.401c-0.001,1.35,0.023,2.681,1.405,3.749c2.561,1.001,5.413,0.299,8.198,0.264
		c12.457-0.157,24.92,0.542,37.369-0.828c14.814-1.63,33.295-13.139,31.41-35.544c-1.097-13.042-7.836-22.333-20.319-26.77
		c-7.936-2.82-16.187-3.578-24.48-3.746c-9.645-0.195-19.298,0.037-28.947,0.098C1015.182,96.385,1013.622,96.08,1012.341,97.425z"
		/>
	<path style="fill:#629A44;" d="M1405.1,232.942c-3.924,0.254-7.742,1.321-11.789,0.508c-2.79-0.561-4.073-2.084-4.252-4.696
		c-0.17-2.49-0.199-4.994-0.201-7.492c-0.015-18.164-0.019-36.328,0-54.492c0.004-4.186-0.631-8.267-1.723-12.294
		c-4.519-16.668-19.543-22.486-32.619-20.948c-17.022,2.002-28.272,14.164-29.379,31.304c-0.686,10.623-1.611,21.29-0.874,31.924
		c0.75,10.821-0.033,21.641,0.605,32.446c0.048,0.805-0.117,1.623-0.218,2.865c-5.46,2.407-10.99,0.946-16.322,0.943
		c-1.517-4.948-1.305-108.14,0.174-112.242c3.39-0.951,6.991-1.423,10.628-1.189c3.502,0.226,4.645,1.431,4.99,4.955
		c0.37,3.785,0.586,7.585,0.886,11.617c2.328-0.543,3.248-2.447,4.471-3.841c6.712-7.658,15.024-12.584,24.99-14.497
		c26.618-5.108,46.84,12.531,50.671,33.053c0.523,2.802,0.758,5.577,0.915,8.403c1.078,19.305,0.483,38.627,0.631,57.94
		c0.027,3.465-0.869,6.898-0.06,10.409C1406.994,229.224,1406.402,230.904,1405.1,232.942z"/>
	<path style="fill:#619943;" d="M860.453,121.503c2.417,5.089,0.823,10.227,1.852,15.42c3.778-4.215,7.494-8.177,11.915-11.439
		c16.464-12.15,44.195-9.476,57.468,4.519c7.238,7.632,11.072,16.7,11.225,26.976c0.356,23.982,0.203,47.972,0.25,71.959
		c0.002,1.154,0.156,2.351-1.079,3.771c-3.873,1.054-8.228,1.52-12.672,0.517c-2.288-0.517-3.243-2.185-3.364-4.378
		c-0.119-2.161-0.185-4.327-0.187-6.491c-0.014-18.324-0.014-36.649-0.004-54.973c0.003-4.348-0.62-8.595-1.752-12.791
		c-3.058-11.333-11.915-19.194-24.134-20.651c-11.531-1.375-21.451,1.44-29.308,10.117c-6.034,6.664-8.912,14.571-8.832,23.693
		c0.166,18.989,0.05,37.981,0.05,56.972c0,1.166,0.073,2.338-0.016,3.497c-0.291,3.796-1.492,5.011-5.258,5.122
		c-2.494,0.073-5.006,0.065-7.488-0.152c-3.287-0.288-4.294-1.327-4.79-4.644c-0.196-1.309-0.184-2.656-0.184-3.986
		c-0.009-32.318-0.008-64.635-0.006-96.953c0-0.999-0.077-2.012,0.056-2.995c0.427-3.173,1.664-4.497,4.857-4.499
		C852.819,120.112,856.72,119.477,860.453,121.503z"/>
	<path style="fill:#619843;" d="M303.463,131.201c-5.073-11.886-14.13-19.899-25.215-25.943
		c-20.182-11.005-41.648-18.105-64.444-21.122c-2.817-0.373-5.368-1.425-8.221-2.47c1.851-0.714,3.482-0.445,5.076-0.446
		c40.287-0.016,80.574-0.013,120.861-0.012c1.165,0,2.333-0.034,3.495,0.031c2.38,0.131,3.571,1.533,3.839,3.803
		c0.078,0.657,0.025,1.33,0.025,1.996c0.001,14.65,0.003,29.3-0.003,43.949c0,1.153,0.15,2.338-0.884,4.055
		c-5.011,1.04-10.619,0.023-16.097,0.754c-5.571,0.743-11.246,0.714-16.875,1.022c-0.003-1.25-0.043-2.501,0.001-3.749
		C305.062,131.941,304.625,131.289,303.463,131.201z"/>
	<path style="fill:#619943;" d="M567.62,233.093c-4.924,0.522-9.871,0.231-14.426,0.149c-2.531-1.8-2.176-4.089-2.174-6.207
		c0.007-9.327,0.113-18.655,0.111-27.982c-0.005-24.32-0.049-48.64-0.076-72.959c-0.005-4.915,0.932-5.923,5.723-6.026
		c1.997-0.043,4.002-0.043,5.993,0.086c4.32,0.279,5.582,1.416,5.855,5.784c0.259,4.15,0.197,8.321,0.252,12.483
		c0.028,2.158,0.005,4.316,0.005,6.814c2.238-1.04,2.881-3.008,3.881-4.57c5.83-9.104,13.545-15.97,23.707-19.802
		c5.425-2.046,11.032-3.47,17.172-2.26c0.951,4.602,0.568,9.059,0.298,13.489c-0.135,2.222-1.594,3.595-3.73,4.161
		c-2.247,0.595-4.484,1.28-6.769,1.669c-17.044,2.898-30.724,18.047-33.458,35.917c-1.722,11.256-1.266,22.576-1.232,33.887
		c0.02,6.661,0.129,13.322,0.076,19.982C568.814,229.328,569.004,231.07,567.62,233.093z"/>
	<path style="fill:#619943;" d="M1124.855,153.188c0-23.639-0.009-47.277,0.005-70.916c0.005-8.307,0.833-9.064,9.228-8.732
		c0.332,0.013,0.667-0.016,0.999,0.007c6.03,0.41,6.532,0.864,7.297,6.985c0.205,1.642,0.285,3.309,0.286,4.964
		c0.017,26.804,0.273,53.612-0.108,80.411c-0.168,11.804-0.495,23.614-0.314,35.414c0.117,7.64,0.496,15.279,0.435,22.925
		c-0.008,0.999,0.05,2.001-0.011,2.996c-0.318,5.119-1.29,6.077-6.301,6.115c-2.162,0.016-4.337,0.03-6.486-0.168
		c-3.471-0.321-4.576-1.538-4.835-5.084c-0.097-1.325-0.043-2.662-0.043-3.994c-0.002-23.641-0.001-47.282-0.001-70.923
		C1124.954,153.188,1124.905,153.188,1124.855,153.188z"/>
	<path style="fill:#619843;" d="M338.325,149.314c0.921,0.989,0.535,2.209,0.538,3.323c0.029,11.159,0.034,22.319,0.01,33.478
		c-0.01,4.507-0.368,5.015-4.614,6.437c-12.51,4.189-25.408,6.55-38.524,7.499c-9.092,0.658-18.215,1.626-27.292,0.667
		c-0.978-1.488,0.237-2.248,0.862-3.11c14.35-19.801,33.384-33.616,55.575-43.365c3.95-1.735,7.972-3.306,11.979-4.906
		C337.283,149.168,337.833,149.314,338.325,149.314z"/>
	<path style="fill:#669945;" d="M1291.028,177.767c0,16.141,0.002,32.282-0.004,48.423c0,1.33,0.043,2.672-0.109,3.988
		c-0.218,1.887-1.34,3.08-3.277,3.114c-3.324,0.058-6.652,0.02-9.975-0.083c-2.074-0.064-3.269-1.216-3.839-3.265
		c-0.504-1.809-0.499-3.61-0.5-5.435c-0.002-10.983,0.02-21.967-0.006-32.95c-0.05-20.966-0.128-41.931-0.189-62.897
		c-0.004-1.33-0.085-2.675,0.073-3.989c0.385-3.218,1.598-4.448,4.797-4.586c2.653-0.114,5.329-0.029,7.979,0.171
		c3.21,0.243,4.44,1.448,4.853,4.593c0.172,1.31,0.065,2.658,0.065,3.989c0.003,16.309,0.002,32.618,0.002,48.926
		C1290.94,177.767,1290.984,177.767,1291.028,177.767z"/>
	<path style="fill:#669945;" d="M152.054,83.566c15.066,2.624,28.647,8.283,39.633,19.302c7.169,7.189,11.236,15.943,13.193,25.786
		c0.097,0.489,0.136,0.99,0.185,1.487c0.548,5.623-0.604,7.275-6.284,7.835c-6.793,0.67-13.506,1.752-20.172,3.156
		c-22.271,4.691-43.287,12.686-62.924,24.21c-4.596,2.697-8.873,5.904-12.743,9.585c-6.961,6.621-15.326,8.857-24.899,8.308
		c-0.077-2.484,1.7-3.54,3.11-4.776c11.849-10.391,25.204-18.413,39.543-24.818c18.623-8.318,38.247-13.133,58.328-16.232
		c3.276-0.506,6.615-0.615,9.926-0.882c1.324-0.107,2.673-0.083,3.875-1.271c1.077-2.966,0.363-6.091-0.244-9.142
		c-3.945-19.827-16.545-31.951-34.864-38.936c-1.859-0.709-3.697-1.475-5.545-2.214C152.134,84.496,152.094,84.031,152.054,83.566z"
		/>
	<path style="fill:#669945;" d="M303.463,131.201c1.161,0.088,1.599,0.74,1.559,1.868c-0.044,1.248-0.005,2.499-0.001,3.749
		c-0.979,0.673-2.041,0.982-3.244,1.127c-30.735,3.714-59.6,12.879-85.793,29.694c-7.581,4.867-14.714,10.389-20.779,17.052
		c-2.974,3.268-6.173,4.231-10.212,3.44c-2.238-0.438-4.454-0.996-6.723-1.51c-0.283-2.719,1.579-3.81,2.95-5.14
		c12.453-12.077,26.965-21.064,42.791-27.917c16.201-7.016,33.075-11.987,50.474-14.974c7.679-1.318,15.456-2.199,23.3-1.931
		c1.654,0.057,3.356,0.099,4.354-0.844C303.683,134.252,303.1,132.618,303.463,131.201z"/>
	<path style="fill:#669945;" d="M222.116,194.689c3.17-6.572,8.042-11.791,13.66-16.232c25.203-19.924,53.584-33.086,85.209-38.835
		c5.198-0.945,10.8-2.434,16.493,0.092c-15.235,3.588-30.065,7.546-44.273,13.504c-18.44,7.733-35.074,18.194-49.15,32.538
		c-1.878,1.913-3.48,3.987-4.998,6.187C234.867,198.016,228.704,198.996,222.116,194.689z"/>
	<path style="fill:#669945;" d="M131.113,181.51c3.093-4.805,6.889-8.213,11.063-11.185c14.464-10.3,30.618-17.179,47.27-22.977
		c12.866-4.48,26.031-7.849,39.544-9.688c5.604-0.763,11.263-0.934,17.843-0.156c-12.551,2.471-24.121,5.11-35.514,8.538
		c-18.43,5.545-35.582,13.691-51.486,24.505c-2.067,1.405-4.047,2.906-5.792,4.706C148.388,181.081,142.959,183.933,131.113,181.51z
		"/>
	<path style="fill:#669945;" d="M183.011,86.09c19.984,4.309,37.6,12.85,51.108,28.684c4.44,5.205,6.622,11.433,7.868,18.042
		c0.115,0.609-0.093,1.278-0.167,2.102c-1.66,0.441-3.205,1.032-4.8,1.242c-4.911,0.645-5.904-0.113-7.186-5.092
		c-3.624-14.071-11.845-24.62-24.257-32.096c-7.43-4.476-15.341-7.854-23.382-10.991C182.467,87.351,182.739,86.721,183.011,86.09z"
		/>
	<path style="fill:#669945;" d="M222.011,90.248c16.837,4.224,31.983,11.64,45.029,23.28c6.319,5.638,10.078,12.496,11.75,20.645
		c-4.505,2.084-5.843,2.281-10.495,1.594c-1.405-0.928-1.587-2.515-1.998-3.903c-3.152-10.641-9.616-18.76-18.643-25.042
		c-6.854-4.769-14.39-8.208-21.928-11.667c-1.788-0.821-3.779-1.283-5.183-2.817C221.748,92.145,222.059,91.323,222.011,90.248z"/>
	<path style="fill:#669945;" d="M1272.535,95.847c-0.571-5.561-0.827-10.613,0.284-15.678c0.312-1.421,1.151-2.499,2.538-2.792
		c5.379-1.136,10.779-1.279,16.661-0.241c0,5.219,0.04,10.177-0.017,15.133c-0.028,2.431-1.602,3.668-3.823,3.768
		C1283.222,96.26,1278.252,96.518,1272.535,95.847z"/>
	<path style="fill:#92B17B;" d="M222.011,90.248c0.048,1.075-0.263,1.897-1.469,2.091c-5.317-0.538-10.14-2.884-15.252-4.176
		c-8.146-2.059-16.273-4.197-24.383-6.687c3.752,0.266,7.535,0.316,11.251,0.84c9.499,1.338,18.897,3.188,27.906,6.621
		C220.801,89.218,221.732,89.265,222.011,90.248z"/>
	<path style="fill:#A6BB8B;" d="M183.011,86.09c-0.272,0.631-0.544,1.261-0.816,1.892c-7.892-1.957-15.785-3.915-23.677-5.872
		C167.154,81.132,175.397,81.951,183.011,86.09z"/>
	<path style="fill:#A6BB8B;" d="M152.054,83.566c0.04,0.465,0.08,0.93,0.119,1.396c-3.781-0.037-7.311-1.213-11.082-2.226
		C144.537,80.449,147.778,80.748,152.054,83.566z"/>
	<path style="fill:#FDC21A;" d="M108.994,46.212c0.138,0.154,0.275,0.309,0.256,0.287c0.01,0.021-0.082-0.168-0.175-0.357
		L108.994,46.212z"/>
</g>
</svg>
