<?xml version="1.0" encoding="iso-8859-1"?>
<!-- Generator: Adobe Illustrator 27.0.0, SVG Export Plug-In . SVG Version: 6.00 Build 0)  -->
<svg version="1.1" id="Layer_1" xmlns="http://www.w3.org/2000/svg" xmlns:xlink="http://www.w3.org/1999/xlink" x="0px" y="0px"
	 viewBox="0 0 1586 228" style="enable-background:new 0 0 1586 228;" xml:space="preserve">
<g>
	<path style="fill:#070706;" d="M143,0c0.581,1.595,1.966,0.893,2.988,0.944c14.64,0.732,29.142,2.528,43.365,6.089
		c13.668,3.422,27.145,7.473,39.799,13.867c7.201,3.638,9.71,9.659,6.52,16.909c-2.203,5.006-4.705,9.901-7.383,14.673
		c-3.874,6.904-10.427,8.493-17.362,4.692c-12.753-6.991-26.451-11.313-40.633-14.307c-16.585-3.501-33.359-4.211-50.141-2.693
		c-15.006,1.358-29.384,5.251-41.919,14.23c-13.271,9.506-21.533,22.463-25.678,38.049c-6.68,25.114-2.961,48.396,13.172,69.181
		c7.977,10.278,18.695,16.873,30.697,21.379c17.777,6.675,36.201,7.944,54.99,6.237c17.099-1.553,33.815-4.819,50.13-10.163
		c0.801-0.263,1.588-0.474,2.406-1.283c0.688-0.79,0.293-2.012,0.311-3.137c0.148-9.33,0.237-18.661,0.382-27.991
		c0.029-1.844-0.035-3.668-0.529-5.447c-1.024-3.686-3.605-5.924-7.428-6.323c-1.651-0.172-3.327-0.139-4.992-0.14
		c-14.665-0.009-29.329-0.006-43.994-0.006c-1.167,0-2.349,0.124-3.497-0.023c-6.239-0.8-11.635-2.222-12.612-12.045
		c-0.346-3.483-0.365-6.988,0.2-10.463c1.033-6.356,5.085-9.894,11.585-10.149c0.333-0.013,0.666-0.006,1-0.006
		c29.329,0,58.659,0.014,87.988-0.013c5.849-0.005,10.266,2.156,12.837,7.652c1.04,2.224,0.981,4.538,0.998,6.846
		c0.058,7.665,0.022,15.331,0.022,22.997c0,15.165-0.386,30.342,0.128,45.489c0.38,11.191-4.656,18.247-14.261,22.86
		c-13.092,6.287-26.882,10.418-41.132,12.93c-9.317,1.642-18.696,3.127-28.111,3.968c-12.266,1.096-24.583,1.491-36.927,1.027
		c-20.411-0.768-40.252-4.415-59.205-11.998c-21.692-8.679-39.728-22.073-51.813-42.563C7.804,159.238,3.68,146.22,1.966,132.392
		c-0.492-3.968-1.14-7.914-0.985-11.932C1.007,119.753,0.79,119.176,0,119c0-4,0-8,0-12c0.78-0.188,0.953-0.769,0.991-1.471
		c0.418-7.658,2.017-15.119,4.108-22.455c8.832-30.991,27.155-54.297,56.319-68.547c16.745-8.182,34.716-11.823,53.16-13.479
		C115.743,0.943,117.293,1.732,118,0c2,0,4,0,6,0c0.166,0.263,0.321,0.748,0.501,0.758c5.342,0.286,10.688,0.373,16.03,0.017
		C140.704,0.764,140.844,0.269,141,0C141.667,0,142.333,0,143,0z"/>
	<path style="fill:#201E1E;" d="M1555,228c-0.583-1.547-2.209-1.382-3.319-1.715c-8.273-2.481-16.803-12.055-16.559-24.185
		c0.217-10.768,7.666-20.816,18.211-23.494c16.265-4.13,29.179,6.083,31.648,19.946c0.157,0.884-0.371,2.07,1.018,2.447
		c0,1.333,0,2.667,0,4c-1.131,0.216-0.89,1.15-1.05,1.919c-2.234,10.754-8.56,17.617-19.325,20.217
		c-0.635,0.153-1.315,0.137-1.625,0.864C1561,228,1558,228,1555,228z M1580.223,202.582c-0.085-11.804-8.882-20.75-20.119-20.854
		c-9.86-0.091-20.121,8.354-19.861,21.17c0.261,12.884,9.175,21.025,20.159,20.906
		C1573.244,223.666,1580.489,212.756,1580.223,202.582z"/>
	<path style="fill:#7D7A79;" d="M141,0c-0.156,0.269-0.296,0.764-0.469,0.775c-5.342,0.356-10.688,0.269-16.03-0.017
		C124.321,0.748,124.166,0.263,124,0C129.667,0,135.333,0,141,0z"/>
	<path style="fill:#060606;" d="M1033.304,72.969c-3.106,5.609-6.247,11.199-9.312,16.831
		c-22.044,40.509-44.076,81.025-66.101,121.545c-1.697,3.122-3.404,6.441-7.49,6.486c-4.488,0.049-6.511-3.429-8.353-6.869
		c-18.641-34.803-37.276-69.609-55.916-104.412c-5.796-10.822-11.593-21.644-17.428-32.445c-0.36-0.667-0.499-1.611-1.497-1.852
		c-0.872,1.163-0.466,2.513-0.482,3.758c-0.598,45.826-0.614,91.654-0.61,137.482c0.001,5.668-2.787,9.122-8.563,9.521
		c-8.144,0.563-16.323,0.549-24.47-0.015c-4.784-0.331-7.593-2.98-8.607-7.623c-0.315-1.443-0.313-2.973-0.313-4.464
		c-0.014-64.33-0.014-128.66-0.003-192.989c0-1.493-0.037-3.026,0.267-4.473c1.006-4.792,4.813-8.379,9.711-8.526
		c12.322-0.371,24.657-0.521,36.976,0.081c6.003,0.293,10.168,3.748,12.994,8.847c3.699,6.672,7.278,13.411,10.919,20.115
		c16.309,30.033,32.617,60.065,48.944,90.088c0.87,1.599,1.926,3.096,2.866,4.658c3.289,5.466,7.83,3.432,9.953-0.66
		c2.597-5.006,5.449-9.879,8.212-14.798c18.284-32.551,36.636-65.065,54.814-97.676c4.043-7.254,9.709-11.018,18.09-10.897
		c9.997,0.145,20-0.058,29.997,0.061c8.394,0.099,12.116,3.933,12.12,12.369c0.025,56.83,0.015,113.66,0.013,170.491
		c0,8.166,0.036,16.333-0.035,24.498c-0.067,7.65-3.407,11.083-10.885,11.163c-7.332,0.079-14.666,0.034-21.999,0.003
		c-1.495-0.006-3.019-0.042-4.478-0.327c-4.102-0.801-6.829-3.07-7.791-7.347c-0.518-2.303-0.678-4.585-0.674-6.921
		c0.069-43.331,0.121-86.662,0.176-129.993c0.002-1.818,0-3.636,0-5.454C1034,73.142,1033.652,73.056,1033.304,72.969z"/>
	<path style="fill:#050505;" d="M1321.742,76.161c-1.532,2.049-1.743,4.17-1.745,6.361c-0.048,43.652-0.2,87.304-0.039,130.955
		c0.022,5.908-3.484,8.906-7.979,9.517c-1.153,0.157-2.321,0.273-3.483,0.276c-7.164,0.024-14.328,0.024-21.493-0.003
		c-1.162-0.004-2.337-0.101-3.481-0.298c-4.6-0.793-7.297-3.898-7.474-8.539c-0.032-0.832-0.007-1.666-0.007-2.499
		c0-65.311-0.001-130.623,0.001-195.934c0-8.095,2.41-10.905,10.483-11.151c9.485-0.289,18.995-0.495,28.471,0.217
		c5.752,0.432,10.294,3.539,14.211,7.549c8.381,8.581,16.706,17.216,25.036,25.846c22.33,23.133,44.661,46.266,66.972,69.417
		c10.982,11.395,21.926,22.826,32.873,34.254c1.965,2.051,3.948,4.007,6.818,4.081c2.352-1.417,2.206-3.483,2.212-5.472
		c0.014-4.998,0-9.997,0-14.995c0-35.821,0-71.643,0-107.464c0-1.333-0.067-2.671,0.031-3.997c0.377-5.106,3.621-8.833,8.768-9.236
		c8.637-0.677,17.315-0.596,25.959-0.043c4.567,0.292,8.416,4.508,9.009,9.26c0.144,1.151,0.08,2.329,0.08,3.495
		c0.003,64.145,0.006,128.29-0.008,192.436c0,1.815,0.252,3.662-0.484,5.428c-1.789,4.289-4.556,7.363-9.552,7.515
		c-7.659,0.233-15.327,0.438-22.972-0.197c-6.912-0.574-11.954-4.687-16.5-9.418c-37.628-39.158-75.216-78.355-112.818-117.538
		c-5.421-5.649-10.823-11.316-16.295-16.915C1326.636,77.327,1325.045,75.117,1321.742,76.161z"/>
	<path style="fill:#050504;" d="M598,135.337c0,2.966,0.002,5.777,0,8.589c-0.015,23.155-0.027,46.309-0.048,69.464
		c-0.004,4.889-2.998,8.589-7.768,9.523c-1.299,0.255-2.649,0.346-3.976,0.352c-7.829,0.031-15.659-0.028-23.489,0.028
		c-7.257,0.052-12.055-3.369-12.014-12.308c0.212-46.477,0.096-92.955,0.095-139.433c0-17.492-0.003-34.983,0.009-52.475
		c0.001-1.831-0.039-3.677,0.174-5.489c0.501-4.263,4.166-7.989,8.45-8.565c1.971-0.265,3.984-0.294,5.979-0.295
		c36.316-0.016,72.632-0.091,108.948,0.028c13.963,0.046,27.93,0.396,41.708,3.18c10.183,2.057,19.705,5.728,28.517,11.224
		c10.284,6.415,17.432,15.517,21.095,26.91c4.679,14.552,4.91,29.421,0.637,44.196c-3.814,13.189-12.148,22.623-24.322,28.834
		c-7.102,3.623-14.482,6.506-22.028,9.045c-4.891,1.646-7.017,4.969-5.893,8.954c0.392,1.389,1.304,2.674,2.15,3.887
		c10.84,15.541,21.713,31.059,32.575,46.585c6.193,8.851,12.401,17.691,18.564,26.562c3.158,4.545,1.258,8.901-4.277,9.018
		c-11.821,0.252-23.652,0.14-35.478,0.073c-3.086-0.017-5.797-1.312-8.175-3.295c-2.831-2.361-5.214-5.115-7.337-8.116
		c-15.554-21.98-31.198-43.898-46.632-65.962c-5.306-7.585-12.158-11.306-21.466-11.152c-13.656,0.225-27.319,0.048-40.979,0.073
		C601.548,134.773,600.038,134.485,598,135.337z M646.023,41c0-0.082,0-0.164,0-0.246c-11.821,0-23.642-0.049-35.462,0.016
		c-8.663,0.048-12.326,3.81-12.382,12.595c-0.048,7.492-0.011,14.984-0.011,22.476c0,4.495-0.055,8.991,0.014,13.485
		c0.13,8.47,4.195,12.539,12.555,12.672c0.333,0.005,0.666,0.001,0.999,0.001c20.478,0,40.957,0.072,61.434-0.051
		c5.138-0.031,10.311-0.41,15.396-1.135c5.898-0.841,11.755-2.132,17.156-4.836c5.936-2.972,11.019-6.892,13.409-13.374
		c5.112-13.867,1.693-29.973-14.876-36.753c-7.796-3.19-15.954-4.607-24.276-4.789C668.666,40.814,657.342,41,646.023,41z"/>
	<path style="fill:#050505;" d="M390.5,192.284c-16.499,0-32.998-0.005-49.497,0.007c-1.826,0.001-3.635,0.057-5.469,0.323
		c-4.319,0.628-7.224,2.651-9,6.813c-2.14,5.017-4.935,9.75-7.244,14.701c-2.943,6.31-7.939,9.125-14.708,9.15
		c-7.333,0.027-14.674-0.214-21.996,0.074c-6.241,0.245-9.842-2.774-6.764-10.35c2.179-5.362,4.897-10.507,7.409-15.732
		c21.045-43.765,42.092-87.528,63.15-131.286c7.833-16.276,15.874-32.454,23.47-48.84c3.977-8.579,10.259-12.692,19.598-12.437
		c2.498,0.068,5,0.039,7.499,0.005c8.546-0.113,14.478,3.847,18.298,11.406c9.494,18.789,19.087,37.528,28.618,56.298
		c23.422,46.13,46.83,92.266,70.254,138.396c0.675,1.329,1.511,2.577,2.18,3.909c2.014,4.014,0.053,7.835-4.382,8.443
		c-1.475,0.202-2.992,0.116-4.491,0.117c-9.333,0.008-18.668-0.14-27.997,0.047c-8.166,0.164-14.02-3.008-17.614-10.502
		c-2.364-4.93-5.286-9.59-7.737-14.482c-1.73-3.454-4.271-5.268-8.118-5.682c-1.993-0.215-3.969-0.374-5.964-0.374
		C423.498,192.282,406.999,192.284,390.5,192.284z M389.092,161.074c4.163,0,8.326-0.003,12.489,0.001
		c7.66,0.007,15.321,0.109,22.978-0.002c6.036-0.087,8.72-4.028,6.396-9.16c-12.018-26.54-24.05-53.073-36.09-79.603
		c-0.546-1.204-1.075-2.456-1.855-3.505c-1.863-2.505-4.265-2.573-6.171-0.041c-1.178,1.565-1.997,3.423-2.84,5.214
		c-11.639,24.713-23.262,49.435-34.859,74.167c-0.768,1.638-1.463,3.344-1.908,5.091c-1.062,4.17,1.089,7.215,5.397,7.748
		c1.314,0.163,2.661,0.086,3.992,0.087C367.444,161.076,378.268,161.073,389.092,161.074z"/>
	<path style="fill:#040404;" d="M1200.981,114.288c0,31.653,0,63.306,0,94.959c0,1.166,0.024,2.333-0.006,3.498
		c-0.159,6.271-3.401,10.067-9.755,10.292c-9.314,0.33-18.654,0.344-27.969,0.051c-6.939-0.218-10.17-3.944-10.178-10.863
		c-0.029-24.989-0.012-49.978-0.012-74.967c0-39.316,0-78.632,0.003-117.949c0-1.666-0.094-3.344,0.076-4.995
		c0.566-5.516,3.768-9.006,9.242-9.324c9.977-0.579,19.98-0.493,29.962-0.043c4.594,0.207,7.961,3.953,8.54,8.889
		c0.193,1.646,0.094,3.328,0.094,4.993C1200.982,50.649,1200.981,82.468,1200.981,114.288z"/>
	<path style="fill:#201E1E;" d="M1550.933,188.016c4.035,0,7.678-0.064,11.317,0.014c5.944,0.128,9.017,2.26,9.676,6.574
		c0.763,5.001-1.162,7.929-6.98,10.212c2.445,3.927,4.861,7.808,7.294,11.715c-1.608,1.15-3.058,0.73-4.83,0.493
		c-2.477-3.864-5.059-7.892-7.543-11.768c-1.278-0.71-2.408-0.437-4.037-0.323c0,3.993,0,7.907,0,11.578
		c-1.876,1.043-3.27,0.901-4.896,0.365C1550.933,207.399,1550.933,197.975,1550.933,188.016z M1555.82,192.047
		c0.011,3.14-0.289,5.734,0.228,8.347c2.529,0.524,4.773,0.432,7.031-0.078c2.994-0.676,3.983-1.656,3.968-4.043
		c-0.015-2.296-1.29-3.846-3.995-4.171C1560.815,191.833,1558.519,192.047,1555.82,192.047z"/>
</g>
</svg>
