<?xml version="1.0" encoding="iso-8859-1"?>
<!-- Generator: Adobe Illustrator 27.0.0, SVG Export Plug-In . SVG Version: 6.00 Build 0)  -->
<svg version="1.1" id="Layer_1" xmlns="http://www.w3.org/2000/svg" xmlns:xlink="http://www.w3.org/1999/xlink" x="0px" y="0px"
	 viewBox="0 0 1623.012 1622.052" style="enable-background:new 0 0 1623.012 1622.052;" xml:space="preserve">
<g>
	<path style="fill:#F26522;" d="M1623.012,359.001c0,153.667,0,307.333,0,461c-1.39,0.539-2.809,1.014-4.165,1.628
		c-5.321,2.409-10.033,1.553-14.167-2.548c-2.838-2.815-5.668-5.64-8.498-8.464c-54.841-54.735-109.679-109.473-164.537-164.191
		c-1.155-1.152-2.111-2.581-3.529-3.154c-21.756,22.046-43.422,44.002-65.138,66.008c9.505,10.719,20.358,21.08,30.944,31.687
		c45.317,45.406,90.791,90.655,136.19,135.98c3.061,3.056,5.951,6.283,8.955,9.396c3.73,3.865,3.926,8.228,1.825,12.881
		c-1.297,2.873-2.823,5.666-3.563,8.744c-1.158,4.811,2.186,10.943,6.774,11.858c3.576,0.713,7.282,0.774,10.625-1.414
		c2.386-1.562,4.516-3.385,6.525-5.397c19.193-19.218,38.397-38.424,57.636-57.596c1.255-1.251,2.188-2.963,4.125-3.417
		c0,256.667,0,513.333,0,770c-257,0-514,0-771,0c19.686-19.637,39.373-39.275,58.737-58.59
		c-67.286-67.286-134.289-134.289-201.482-201.483c-0.411,0.343-1.203,0.911-1.886,1.59c-22.087,21.984-44.173,43.969-66.227,65.985
		c-2.593,2.589-4.961,5.404-6.734,8.64c-2.273,4.15-1.893,8.01,1.029,11.578c3.072,3.75,7.061,5.129,11.521,3.664
		c3.303-1.085,6.494-2.511,9.739-3.776c3.188-1.243,6.109-0.882,8.953,1.137c3.146,2.233,5.905,4.87,8.613,7.576
		c44.216,44.161,88.435,88.318,132.619,132.51c4.593,4.594,8.904,9.469,13.465,14.096c3.152,3.197,3.763,6.792,2.639,11.001
		c-0.553,2.072-2.207,3.768-1.985,6.073c-153.667,0-307.333,0-461,0c0.525-1.682,2.001-2.586,3.143-3.736
		c9.75-9.809,19.539-19.581,29.314-29.366c26.262-26.29,52.53-52.574,78.778-78.878c5.101-5.111,9.553-10.646,11.251-17.921
		c1.715-7.347-0.454-13.6-5.783-18.588c-5.097-4.771-11.19-6.269-18.026-3.925c-3.152,1.081-6.214,2.328-9.164,3.868
		c-3.242,1.693-6.593,3.043-10.154,3.999c-5.472,1.469-10.232,0.182-14.463-3.252c-2.84-2.305-5.529-4.819-8.12-7.406
		c-17.452-17.425-34.843-34.912-52.284-52.348c-68.115-68.095-136.243-136.178-204.361-204.271
		c-3.412-3.411-6.938-6.685-10.146-10.325c-5.843-6.629-6.98-13.647-3.167-21.598c1.936-4.037,3.665-8.175,5.451-12.283
		c0.86-1.979,1.6-3.98,1.735-6.196c0.856-14.055-13.405-24.049-26.683-18.681c-5.503,2.225-10.011,5.776-14.175,9.96
		c-35.968,36.143-71.99,72.232-108.015,108.318c-1.268,1.27-2.293,2.844-4.045,3.578c-0.024-1.833-0.069-3.665-0.069-5.498
		C1.029,840.329,1.033,423.205,1.042,6.081c0-1.998,0.069-3.996,0.106-5.994c2.165-0.028,4.33-0.081,6.496-0.081
		c319.26-0.004,638.519-0.011,957.779,0.001c97.478,0.004,194.955,0.061,292.432,0.116c1.778,0.001,3.595-0.315,6.031,0.516
		c-22.885,22.931-45.514,45.606-67.942,68.08c9.407,9.432,18.438,18.486,27.597,27.669c1.475-0.956,3.005-1.926,4.513-2.927
		c8.738-5.796,17.848-10.869,27.528-14.97c22.525-9.543,45.731-12.246,69.796-7.641c14.45,2.765,28.144,7.658,41.302,14.153
		c4.165,2.056,8.193,4.421,12.726,5.647c6.084,1.646,11.489,0.506,16.189-3.816c3.369-3.098,5.871-6.747,7.583-10.987
		c0.572-1.418,0.865-2.845,0.986-4.349c0.409-5.062-1.796-8.91-5.282-12.376c-18.2-18.089-36.336-36.243-54.47-54.398
		c-1.236-1.238-2.784-2.293-3.646-4.723c94.403,0,188.324,0,282.245,0c0,92,0,184,0,276c-5.841-4.971-11.007-10.638-16.438-16.028
		c-13.723-13.618-27.35-27.332-41.045-40.978c-6.744-6.719-14.517-8.226-21.712-4.315c-9.321,5.067-12.187,11.232-10.15,21.426
		c1.018,5.09,2.795,9.883,4.968,14.569c5.745,12.387,10.289,25.171,12.923,38.613c3.203,16.347,3.632,32.787,1.079,49.194
		c-3.084,19.825-10.81,37.906-21.927,54.573c-1.548,2.321-3.373,4.522-4.176,7.618c9.677,8.313,17.929,18.192,28.314,26.825
		c0.859-1.141,1.464-2.177,2.283-3c20.58-20.667,41.178-41.316,61.794-61.946C1620.198,361.28,1621.241,359.713,1623.012,359.001z
		 M773.019,491.804c-0.899,0.831-1.526,1.373-2.111,1.956c-40.015,39.887-80.03,79.774-120.031,119.674
		c-3.068,3.061-5.972,6.264-8.135,10.074c-1.491,2.628-2.494,5.366-2.964,8.379c-1.772,11.352,10.089,26.059,24.957,19.296
		c3.215-1.462,6.163-3.238,8.907-5.424c2.082-1.658,4.125-3.39,6.346-4.843c2.952-1.932,6.126-3.435,9.836-2.761
		c9.492,1.724,18.804,3.997,27.751,7.773c12.707,5.363,24.941,11.693,37.28,17.802c112.188,55.542,224.347,111.141,336.516,166.722
		c13.234,6.558,26.472,13.109,38.998,19.312c4.806-4.767,9.27-9.193,13.902-13.787c0.092,0.324,0.052,0.167,0.003,0.014
		c-0.101-0.317-0.161-0.658-0.317-0.946c-63.042-116.789-126.09-233.575-189.134-350.364c-0.311-0.577-0.575-1.182-0.823-1.789
		c-0.039-0.095,0.096-0.306,0.202-0.409c0.478-0.464,0.392,0.473,0.247-1.484c1.416,1.846,2.121,3.016,3.058,3.953
		c74.02,73.996,148.059,147.975,222.094,221.956c1.061,1.06,2.088,2.153,3.139,3.223c7.197,7.324,8.29,15.544,3.654,24.63
		c-0.906,1.775-1.689,3.613-2.586,5.393c-1.348,2.676-2.524,5.418-3.258,8.328c-1.527,6.055-0.433,11.539,3.66,16.338
		c6.838,8.018,17.297,9.355,27.072,3.469c4.172-2.512,7.704-5.783,11.129-9.212c42.166-42.213,84.352-84.406,126.531-126.606
		c1.296-1.297,2.639-2.552,3.863-3.914c4.157-4.628,7.583-9.669,8.87-15.913c2.865-13.904-11.427-26.623-23.349-21.816
		c-2.304,0.929-4.682,1.678-6.972,2.637c-3.062,1.281-6.024,2.809-9.114,4.013c-7.176,2.798-13.981,2.718-19.918-2.99
		c-2.762-2.655-5.617-5.216-8.327-7.923c-86.773-86.698-173.534-173.408-260.288-260.125c-2.71-2.709-5.333-5.511-7.445-8.729
		c-2.571-3.916-3.695-8.039-2.379-12.78c0.985-3.549,2.359-6.894,3.969-10.17c1.612-3.278,2.95-6.655,4.186-10.099
		c4.519-12.59-8.64-27.02-22.796-23.22c-6.541,1.756-11.641,5.482-16.291,10.123c-40.223,40.149-80.455,80.289-120.669,120.447
		c-1.16,1.158-2.579,2.118-3.29,3.822c0.397,0.846,0.776,1.76,1.24,2.628c11.205,20.94,22.405,41.883,33.633,62.811
		c21.752,40.542,43.948,80.845,65.25,121.628c0.826,1.581,1.568,3.188,3.506,3.709c-0.633,0.98-1.054,2.131-2.675,2.394
		c-3.213-3.205-7.282-5.375-11.496-7.407c-41.123-19.829-82.218-39.716-123.308-59.612
		C814.536,512.01,793.954,501.978,773.019,491.804z M360.492,1285.054c2.941,1.636,4.913,3.913,7.018,6.017
		c37.01,36.983,74.017,73.968,110.993,110.985c2.82,2.823,5.391,5.895,8.089,8.841c4.895,5.344,5.741,11.44,3.242,18.076
		c-0.934,2.479-2.154,4.849-3.227,7.276c-1.207,2.729-2.564,5.406-3.558,8.211c-2.54,7.167-1.624,13.883,3.7,19.474
		c5.229,5.491,11.698,7.195,19.16,5.372c6.95-1.698,12.165-6.045,17.006-10.877c43.163-43.083,86.269-86.224,129.403-129.336
		c2.964-2.962,5.571-6.215,7.642-9.826c2.593-4.521,4.432-9.356,3.619-14.716c-1.884-12.431-15.055-20.658-27.016-14.77
		c-4.893,2.409-9.821,4.831-15.053,6.547c-5.454,1.789-10.434,1.156-15.187-2.051c-2.793-1.884-5.102-4.274-7.455-6.626
		c-78.021-77.976-156.038-155.956-234.045-233.945c-10.958-10.955-21.846-21.98-32.799-32.941
		c-7.049-7.055-8.753-14.965-4.194-24.052c1.784-3.556,3.447-7.182,4.982-10.852c1.482-3.542,2.631-7.163,1.79-11.144
		c-2.723-12.89-15.38-19.252-27.761-13.929c-4.51,1.939-8.281,4.855-11.717,8.32c-11.381,11.476-22.812,22.903-34.234,34.339
		c-32.383,32.42-64.766,64.839-97.163,97.245c-3.432,3.433-6.584,7.061-8.703,11.477c-4.124,8.593-3.032,17.018,3.368,23.462
		c5.21,5.245,11.843,7.811,21.961,3.048c3.902-1.837,7.823-3.631,11.736-5.444c7.304-3.384,13.882-1.965,19.912,3.025
		c1.154,0.955,2.339,1.883,3.408,2.928c4.291,4.19,8.556,8.406,12.805,12.638c33.41,33.278,66.483,66.895,100.187,99.877
		c1.167,1.142,2.647,2.078,3.009,3.476c0.377,3.163-1.837,4.448-3.482,6.008c-11.608,11.011-22.946,22.291-33.931,33.923
		c-0.994,1.053-2.341,1.87-2.642,3.141c9.162,9.202,18.193,18.272,27.717,27.838c4.489-4.678,8.943-9.404,13.492-14.036
		c4.553-4.636,9.132-9.251,13.827-13.743C351.043,1293.861,355.159,1288.811,360.492,1285.054z M1531.93,449.334
		c-119.339-119.35-238.315-238.338-357.57-357.605c-2.398-0.07-3.837,2.198-5.558,3.917c-22.633,22.617-45.244,45.256-67.852,67.898
		c-17.427,17.453-34.831,34.929-52.272,52.369c-4.703,4.703-8.017,10.097-9.272,16.727c-2.239,11.824,8.522,23.082,19.28,21.802
		c4.396-0.523,8.359-2.023,12.299-3.791c2.723-1.222,5.364-2.637,8.13-3.748c7.517-3.02,14.318-1.868,20.258,3.772
		c2.537,2.409,5.158,4.733,7.631,7.205c86.394,86.358,172.777,172.726,259.143,259.111c2.47,2.471,4.792,5.098,7.09,7.733
		c3.728,4.274,5.148,9.141,3.843,14.796c-0.946,4.1-2.8,7.798-4.612,11.522c-1.974,4.057-3.743,8.182-4.188,12.713
		c-1.183,12.046,10.438,21.5,21.434,19.667c8.067-1.345,14.287-5.866,19.936-11.53c39.896-39.999,79.848-79.941,119.777-119.906
		C1530.357,451.054,1531.234,450.073,1531.93,449.334z M461.419,788.74c-3.625,3.911-6.66,8.074-9.719,12.222
		c-23.317,31.615-38.554,66.472-42.964,105.8c-2.15,19.176-1.75,38.276,1.556,57.214c5.39,30.875,16.36,59.778,32.163,86.848
		c16.988,29.101,38.059,54.941,62.324,78.248c20.122,19.327,41.893,36.498,66.071,50.501c14.672,8.497,29.821,16.027,45.877,21.585
		c19.691,6.818,39.794,11.596,60.671,13.183c18.38,1.398,36.611,0.929,54.682-2.647c31.618-6.258,60.151-19.622,86.313-38.235
		c5.489-3.906,10.999-7.836,14.949-12.04c-9.072-9.299-17.889-18.338-26.875-27.549c-3.563,1.098-7.361,2.234-11.137,3.439
		c-15.377,4.907-29.14,2.057-41.403-8.43c-3.555-3.04-6.804-6.375-10.101-9.673c-82.222-82.25-164.465-164.48-246.665-246.753
		c-13.938-13.95-18.119-30.126-10.488-48.787c1.207-2.953,2.076-5.979,1.539-7.775C478.752,806.305,470.226,797.664,461.419,788.74z
		 M855.468,1139.741c0.779-0.684,1.218-0.961,1.516-1.347c2.947-3.82,5.938-7.608,8.79-11.499
		c25.006-34.106,40.685-71.7,43.547-114.323c1.136-16.921,0.241-33.647-2.778-50.22c-6.267-34.403-19.598-66.059-38.253-95.557
		c-17.747-28.062-39.373-52.811-63.934-75.05c-24.542-22.222-51.174-41.356-81.321-55.417
		c-28.002-13.06-57.214-21.375-88.116-23.098c-19.873-1.108-39.591,0.508-58.943,5.374c-30.886,7.766-58.841,21.572-83.85,41.282
		c-2.803,2.209-5.984,4.109-8.158,7.158c0.64,0.955,1.002,1.727,1.565,2.302c7.57,7.739,15.176,15.443,22.754,23.175
		c1.597,1.63,3.392,1.851,5.486,1.15c3.146-1.052,6.316-2.035,9.494-2.99c14.472-4.35,27.59-1.93,39.14,7.982
		c3.031,2.601,6.009,5.281,8.833,8.103c74.369,74.33,148.714,148.684,223.064,223.033c8.837,8.837,17.657,17.691,26.525,26.498
		c4.552,4.52,8.005,9.728,10.356,15.694c4.309,10.94,3.476,21.804-0.42,32.626c-0.947,2.631-2.428,5.143-1.522,8.333
		C837.862,1121.757,846.597,1130.679,855.468,1139.741z M1434.053,1048.525c-5.432-5.484-10.109-10.894-15.226-15.355
		c-1.495-0.3-2.318,0.421-3.266,0.677c-0.962,0.259-1.93,0.498-2.88,0.796c-10.042,3.149-18.676,0.658-26.143-6.513
		c-0.841-0.808-1.666-1.633-2.491-2.458c-45.965-45.952-91.93-91.903-137.892-137.859c-1.06-1.06-2.114-2.13-3.121-3.24
		c-6.171-6.798-8.443-14.478-5.486-23.455c0.765-2.321,1.877-4.595,1.868-7.164c-5.007-4.886-9.996-9.756-15.412-15.042
		c-35.047,42.724-39.036,89.155-15.263,139.807c-4.11-3.197-6.99-5.672-10.098-7.817c-27.356-18.887-55.829-20.268-85.107-4.918
		c-16.713,8.762-30.38,21.473-43.471,34.829c-0.314,0.32-0.439,0.826-0.266,0.485c5.199,5.423,10.126,10.562,15.201,15.855
		c1.211-0.626,2.548-1.266,3.838-1.991c8.476-4.766,16.774-4.406,25.005,0.683c3.844,2.376,7.454,5.029,10.647,8.218
		c15.802,15.779,31.595,31.567,47.357,47.385c3.181,3.192,5.92,6.758,8.284,10.604c2.988,4.864,4.048,10.01,3.119,15.744
		c-0.781,4.821-3.121,8.967-4.462,11.886c5.314,5.912,10.069,11.202,15.004,16.692c4.356-4.639,8.454-8.992,12.538-13.357
		c7.638-8.163,14.629-16.833,20.452-26.399c11.168-18.349,15.149-38.068,11.539-59.334c-0.431-2.537-1.829-5.098-1.132-8.231
		c0.771,0.681,1.177,0.971,1.499,1.333c16.35,18.367,35.57,32.989,57.505,44.064c23.659,11.946,48.737,16.732,74.971,13.221
		C1394.83,1074.505,1415.261,1063.621,1434.053,1048.525z M1056.743,1014.129c-0.871,0.793-1.509,1.328-2.096,1.914
		c-16.859,16.833-33.715,33.667-50.565,50.509c-5.538,5.536-11.084,11.064-16.566,16.654c-2.696,2.749-5.06,5.774-6.01,9.615
		c-1.095,4.426,0.056,8.314,3.461,11.294c3.136,2.744,6.719,3.325,10.611,1.37c2.071-1.04,4.301-1.759,6.405-2.74
		c5.289-2.468,9.893-1.829,13.988,2.554c2.954,3.161,6.199,6.048,9.262,9.11c47.488,47.463,94.967,94.935,142.448,142.405
		c0.471,0.471,0.918,0.969,1.416,1.411c3.328,2.95,3.73,6.463,2.054,10.402c-0.909,2.135-1.896,4.246-2.656,6.434
		c-1.754,5.045-0.123,9.702,4.289,12.629c5.269,3.495,10.461,2.915,15.273-1.853c14.32-14.188,28.615-28.4,42.897-42.625
		c10.387-10.345,20.761-20.705,31.088-31.11c2.104-2.12,4.105-4.374,5.367-7.156c2.604-5.739,1.089-11.044-3.931-14.406
		c-4.029-2.698-7.813-1.625-11.771,0.176c-10.968,4.991-12.915,4.653-21.455-3.834c-19.143-19.025-38.26-38.076-57.342-57.162
		c-34.276-34.285-68.505-68.617-102.79-102.893C1065.774,1022.483,1061.21,1018.359,1056.743,1014.129z M1094.638,1379.028
		c-67.482-67.277-134.567-134.158-201.661-201.049c-1.127,1.05-1.753,1.599-2.341,2.185c-22.404,22.365-44.808,44.73-67.194,67.114
		c-1.172,1.172-2.188,2.502-3.269,3.766c-1.677,1.961-2.502,4.333-2.942,6.793c-1.428,7.982,5.314,14.156,13.09,12.004
		c1.75-0.484,3.585-1.015,5.085-1.983c7.123-4.597,13.098-2.858,18.66,2.845c5.465,5.603,11.126,11.016,16.659,16.554
		c41.454,41.487,82.894,82.988,124.356,124.468c3.061,3.062,6.059,6.161,8.935,9.408c3.569,4.028,3.945,8.167,1.835,12.874
		c-1.151,2.568-2.314,5.156-3.153,7.835c-1.652,5.276,0.209,9.634,5.094,12.076c1.9,0.95,3.853,1.929,5.807,2.09
		c5.729-1.94,10.16-5.265,14.187-9.396c10.235-10.497,20.676-20.792,30.991-31.211
		C1070.609,1403.449,1082.394,1391.451,1094.638,1379.028z M1251.808,841.853c3.034-0.727,5.783-1.331,8.502-2.048
		c8.717-2.297,16.043,0.297,22.418,6.293c1.698,1.598,3.394,3.2,5.046,4.845c44.627,44.446,89.255,88.891,133.853,133.365
		c2.354,2.347,4.621,4.821,6.641,7.456c4.439,5.788,6.703,12.18,4.774,19.584c-0.791,3.037-1.406,6.12-2.109,9.216
		c4.278,5.929,9.759,10.446,14.967,15.518c5.586-6.257,9.972-12.906,14.033-19.759c13.232-22.334,18.545-46.498,15.842-72.275
		c-1.965-18.737-8.177-36.19-17.352-52.614c-13.682-24.491-32.235-44.739-54.104-62.088c-3.755-2.979-7.676-5.748-11.572-8.653
		c0.225-1.021,0.326-1.842,0.589-2.607c1.558-4.537,1.018-8.718-1.489-12.872c-2.584-4.282-5.479-8.331-8.329-12.422
		c-11.847-17.007-20.209-35.15-18.119-56.969c-5.43-4.602-9.745-10.548-15.448-14.32c-12.925,12.941-25.512,25.543-38.324,38.371
		c12.605,13.926,26.651,26.862,40.804,41.526c-43.757-11.765-82.006-3.294-115.92,24.831
		C1241.695,831.525,1246.671,836.607,1251.808,841.853z M522.79,487.735c1.095,1.013,1.72,1.554,2.303,2.136
		c20.043,20.011,40.082,40.024,60.117,60.042c0.942,0.942,1.785,1.988,2.761,2.89c4.266,3.941,4.81,8.396,2.158,13.484
		c-1.068,2.048-1.852,4.259-2.615,6.449c-1.499,4.304-0.035,7.722,3.2,10.706c3.094,2.854,6.37,3.088,10.116,1.5
		c3.786-1.605,6.674-4.324,9.504-7.142c21.127-21.047,42.25-42.097,63.342-63.178c2.234-2.233,4.35-4.6,6.36-7.037
		c2.3-2.788,3.511-6.011,3.124-9.708c-0.639-6.11-6.402-10-12.18-8.076c-2.823,0.94-5.592,2.09-8.288,3.353
		c-3.905,1.83-7.466,1.288-10.714-1.326c-2.2-1.77-4.294-3.691-6.292-5.688c-44.431-44.393-88.846-88.801-133.244-133.228
		c-1.878-1.879-3.561-3.953-5.328-5.943c-2.85-3.209-3.203-6.776-1.585-10.666c1.083-2.603,2.292-5.179,3.076-7.875
		c1.874-6.446-1.644-11.57-8.23-12.677c-3.83-0.644-6.8,0.912-9.684,2.988c-3.134,2.257-5.53,5.288-8.239,7.988
		c-20.885,20.816-41.748,41.654-62.6,62.503c-1.528,1.528-3.075,3.08-4.343,4.819c-3.468,4.754-3.404,10.995,0.126,14.72
		c3.069,3.237,6.681,3.904,10.942,2.353c2.965-1.079,5.666-2.711,8.734-3.597c3.2-0.924,5.896-0.544,8.352,1.619
		c2.124,1.87,4.282,3.711,6.291,5.7c18.583,18.405,37.14,36.836,55.689,55.276c0.774,0.769,1.819,1.369,2.215,3.525
		c-6.997,6.812-14.356,13.978-21.859,21.282c4.693,5.263,9.585,10.093,14.719,15.006
		C508.217,502.391,515.366,495.201,522.79,487.735z M587.348,595.067c0.133-6.646-5.013-10.933-11.427-9.319
		c-4.015,1.011-7.949,2.351-11.903,3.596c-3.002,0.945-5.574,0.01-7.909-1.778c-1.049-0.804-1.906-1.859-2.849-2.802
		c-46.787-46.78-93.553-93.581-140.396-140.305c-3.943-3.933-4.786-8.116-2.782-13.127c1.228-3.072,2.812-6.011,3.218-9.385
		c0.568-4.715-1.336-8.048-5.632-9.961c-3.692-1.643-7.078-1.105-10.432,0.917c-2.887,1.741-5.299,4.058-7.637,6.399
		c-22.141,22.167-44.223,44.394-66.301,66.624c-1.873,1.886-3.67,3.86-4.84,6.309c-2.079,4.354-1.613,8.425,1.474,12.099
		c2.777,3.306,6.343,3.891,11.377,2.026c2.49-0.923,4.947-1.936,7.431-2.878c3.738-1.418,7.118-0.818,10.267,1.676
		c2.89,2.288,5.353,4.998,7.943,7.588c44.186,44.195,88.378,88.383,132.547,132.595c1.641,1.642,3.15,3.438,4.557,5.287
		c2.182,2.868,2.636,5.99,1.113,9.38c-1.155,2.57-2.201,5.194-3.162,7.842c-1.493,4.113-1.02,7.927,2.358,10.958
		c3.486,3.129,7.403,3.252,11.597,1.394c3.441-1.524,6.097-4.01,8.689-6.598c17.216-17.194,34.417-34.403,51.622-51.608
		c5.303-5.303,10.626-10.586,15.896-15.921C585.17,603.033,587.276,599.519,587.348,595.067z M195.743,614.425
		c0.792,2.093,2.535,3.216,3.925,4.605c36.054,36.028,72.146,72.018,108.199,108.047c17.319,17.308,34.504,34.752,51.9,51.983
		c4.692,4.647,5.548,9.542,2.816,15.346c-0.776,1.649-1.539,3.325-2.081,5.059c-1.213,3.884-1.058,7.625,2.125,10.594
		c2.906,2.711,6.272,3.32,10.169,2.151c3.322-0.997,6.035-2.836,8.39-5.177c23.034-22.901,46.023-45.848,68.996-68.81
		c2.362-2.361,4.418-5.011,5.378-8.287c1.169-3.991,0.355-7.556-2.608-10.563c-2.928-2.971-6.431-3.256-10.144-2.012
		c-2.353,0.789-4.581,1.947-6.921,2.781c-5.087,1.814-9.323,1.279-13.525-2.939c-53.727-53.924-107.608-107.695-161.422-161.532
		c-1.139-1.139-1.941-2.615-3.675-4.998c-1.913,2.53-2.862,4.149-4.147,5.43c-16.28,16.226-32.609,32.404-48.926,48.594
		C201.126,607.74,198.129,610.843,195.743,614.425z M580.242,229.466c-6.896,6.696-13.297,12.766-19.536,18.997
		c-15.324,15.303-30.575,30.679-45.852,46.03c-2.592,2.604-4.966,5.303-5.942,9.036c-1.023,3.909-0.299,7.251,2.577,10.053
		c3.051,2.972,6.662,3.593,10.591,2.079c2.008-0.774,3.917-1.803,5.893-2.665c4.662-2.033,8.973-1.971,12.825,1.904
		c3.403,3.423,7.033,6.62,10.448,10.032c42.898,42.859,85.776,85.738,128.657,128.613c1.06,1.06,2.085,2.155,3.156,3.203
		c4.16,4.075,5.236,8.641,2.515,14.003c-1.347,2.654-2.547,5.412-3.094,8.377c-0.982,5.32,3.449,10.743,8.861,11.01
		c5.271,0.26,9.15-2.254,12.694-5.821c20.781-20.919,41.616-41.784,62.422-62.679c0.929-0.933,2.056-1.717,2.206-2.098
		C705.673,355.997,642.968,292.742,580.242,229.466z M923.481,1550.902c27.396-29.699,38.72-64.26,33.194-103.946
		c-3.348-24.046-13.401-45.377-28.529-64.372c-11.617-14.587-25.433-26.756-40.457-37.661
		c-21.843-15.855-45.534-27.265-72.697-30.391c-10.328-1.189-20.618-0.835-30.852,0.866c-19.134,3.18-36.016,11.352-51.012,23.495
		c-3.695,2.992-7.703,5.737-10.516,9.76c3.181,7.253,9.826,10.937,14.713,16.15c1.138-0.604,2.053-1.015,2.892-1.547
		c8.797-5.579,17.625-4.843,26.431-0.089c4.719,2.547,8.833,5.945,12.61,9.71c22.896,22.821,45.752,45.682,68.625,68.526
		c17.095,17.074,34.218,34.121,51.28,51.229c4.955,4.969,9.258,10.407,12.059,16.975c2.864,6.717,2.731,13.218-0.412,19.753
		c-0.985,2.048-2.399,3.931-2.728,5.706C913.288,1540.42,918.148,1545.418,923.481,1550.902z M793.206,714.71
		c7.676,7.857,15.283,15.784,23.04,23.56c44.238,44.351,88.565,88.614,132.738,133.03c11.257,11.319,19.725,24.601,25.46,39.541
		c4.664,12.148,5.865,24.464,1.603,37.041c-1.329,3.923-2.177,8.008-3.469,11.945c-3.436,10.47,7.571,23.41,19.612,20.856
		c4.095-0.868,7.916-2.384,11.385-4.821c4.524-3.179,8.477-6.978,12.376-10.855c19.137-19.031,38.342-37.994,57.373-57.131
		c5.626-5.657,10.81-11.727,12.993-19.773c3.248-11.973-7.014-23.641-19.188-21.656c-3.616,0.59-7.108,1.64-10.563,2.858
		c-11.323,3.994-22.771,4.271-34.271,0.848c-17.76-5.287-32.977-15.012-46.028-27.883c-24.078-23.746-47.777-47.878-71.599-71.883
		c-3.441-3.468-7.339-6.16-11.722-8.313c-29.495-14.489-58.949-29.064-88.431-43.578
		C800.989,716.762,797.461,714.985,793.206,714.71z M1384.528,258.064c0.92-0.046,1.281,0.02,1.571-0.094
		c1.233-0.483,2.462-0.982,3.662-1.541c11.276-5.246,22.981-5.81,35.083-3.682c12.15,2.136,22.993,7.393,33.596,13.3
		c4.503,2.509,9.105,4.758,13.909,6.617c10.18,3.939,19.728-2.301,23.487-9.795c1.857-3.702,2.305-7.558,0.84-11.567
		c-1.574-4.308-4.161-7.942-7.303-11.189c-3.357-3.469-6.849-6.807-10.261-10.222c-34.482-34.514-68.964-69.028-103.431-103.557
		c-2.957-2.962-6.074-5.695-9.869-7.523c-11.313-5.451-24.217,2.246-24.962,14.76c-0.414,6.956,1.882,13.082,5.354,18.864
		c5.999,9.991,11.376,20.26,14.26,31.633c2.904,11.454,3.927,22.922-0.433,34.307c-1.352,3.531-2.65,7.082-3.985,10.657
		C1365.266,239.378,1375.491,248.404,1384.528,258.064z M1168.253,1306.019c-0.367-1.659-1.356-2.349-2.159-3.155
		c-17.502-17.599-35.012-35.189-52.524-52.778c-0.587-0.59-1.147-1.233-1.822-1.704c-2.711-1.891-5.591-2.729-8.929-1.685
		c-6.094,1.907-9.006,7.189-7.373,13.741c1.13,4.533,3.218,8.705,4.996,12.993c6.841,16.495,8.234,33.37,3.872,50.756
		c-2.51,10-7.143,18.888-13.52,27.393c5.528,4.831,10.994,9.607,16.551,14.464
		C1127.854,1347.248,1147.586,1326.021,1168.253,1306.019z M905.032,1165.467c5.486,5.121,10.797,10.078,16.284,15.2
		c3.604-1.984,7.955-4.389,12.315-6.779c7.649-4.193,15.793-6.921,24.463-7.882c14.433-1.6,28.034,1.526,41.097,7.528
		c3.01,1.383,6.003,2.831,9.103,3.983c1.981,0.736,4.128,1.364,6.29,0.476c8.203-3.366,10.186-12.69,3.991-18.909
		c-16.795-16.863-33.605-33.711-50.437-50.537c-0.874-0.874-1.525-2.141-3.106-2.387
		C944.583,1125.479,925.168,1145.809,905.032,1165.467z M839.268,349.062c-7.445-7.309-14.604-14.263-21.678-21.302
		c-10.27-10.218-20.427-20.549-30.735-30.729c-4.966-4.905-12.33-4.064-15.777,1.616c-1.882,3.101-1.583,6.399-0.435,9.612
		c1.45,4.057,3.15,8.023,4.666,12.058c8.134,21.643,8.035,42.825-3.597,63.353c-1.699,2.997-3.348,6.023-5.01,9.018
		c3.863,5.896,8.847,10.147,13.76,14.726C800.387,388.18,819.473,368.898,839.268,349.062z M605.504,231.925
		c2.249-0.509,4.206-1.406,6.069-2.486c2.01-1.165,3.886-2.575,5.944-3.64c19.603-10.153,39.474-10.323,59.521-1.389
		c3.635,1.62,7.193,3.395,10.926,4.814c3.364,1.278,6.184,0.517,8.801-1.625c5.954-4.874,6.207-11.087,0.651-16.603
		c-13.241-13.146-26.499-26.274-39.761-39.398c-3.308-3.273-6.657-6.504-9.959-9.727c-2.733,2.039-54.07,53.935-56.125,56.758
		C596.145,223.099,600.306,228.063,605.504,231.925z M1456.064,646.362c15.51-1.903,29.416,2.294,42.669,9.581
		c6.568,3.612,12.789,7.709,18.796,12.164c2.933,2.176,5.833,4.447,9.236,5.839c8.368,3.422,15.846-0.625,17.766-9.462
		c1.007-4.638-1.154-7.935-4.199-11.072c-19.238-19.819-38.809-39.306-58.475-58.698c-0.928-0.915-1.669-2.092-3.002-2.522
		c-6.446,5.248-36.12,35.392-38.007,38.661C1445.401,636.291,1450.142,641.606,1456.064,646.362z M1075.882,1271.45
		c-1.389-5.298-4.731-9.195-8.435-12.84c-4.392-4.323-8.863-8.567-13.222-12.922c-15.558-15.543-31.085-31.118-46.621-46.682
		c-2.002-2.006-4.04-3.934-6.587-5.295c-3.492-1.866-6.758-1.41-9.826,0.795c-4.212,3.027-5.449,7.647-3.561,12.874
		c1.813,5.018,4.665,9.533,6.984,14.307c3.326,6.847,5.204,13.985,4.397,21.683c-0.47,4.49-2.251,8.626-3.356,12.317
		c5.614,5.57,10.909,10.823,16.468,16.338c0.247-0.093,1.012-0.368,1.769-0.664c8.701-3.402,17.42-3.585,26.332-0.638
		c5.581,1.845,10.482,4.949,15.673,7.525c9.816,4.87,14.233,3.48,19.608-5.969
		C1075.588,1272.134,1075.644,1271.977,1075.882,1271.45z M282.705,555.078c14.314-1.032,27.411,1.873,39.68,8.612
		c5.838,3.207,11.349,6.895,16.7,10.842c3.752,2.767,7.645,5.332,11.92,7.197c4.465,1.948,9.942,0.229,13.314-3.926
		c3.267-4.026,3.607-8.612,0.908-12.902c-1.967-3.127-4.622-5.669-7.213-8.25c-16.51-16.449-33.032-32.886-49.575-49.302
		c-1.029-1.021-1.818-2.39-3.449-2.827c-0.391,0.256-0.856,0.461-1.194,0.795c-10.413,10.303-20.817,20.614-31.211,30.936
		c-1.402,1.392-2.677,2.889-3.317,5.036C273.396,546.155,278.067,550.398,282.705,555.078z M147.144,661.613
		c1.055,1.153,1.805,2.037,2.62,2.856c17.647,17.707,35.299,35.409,52.959,53.103c1.176,1.179,2.376,2.344,3.653,3.41
		c4.734,3.952,9.39,3.963,14.51,0.097c4.509-3.404,5.812-8.466,3.54-13.694c-1.335-3.072-3.24-5.793-5.146-8.521
		c-6.286-8.995-12.456-18.03-16.537-28.348c-3.866-9.773-5.512-19.809-4.494-30.161c-5.288-4.535-8.379-11.103-15.236-13.812
		C170.988,638.301,159.206,649.82,147.144,661.613z M690.871,318.253c11.633-5.144,22.512-4.673,33.205,0.723
		c2.069,1.044,4.04,2.281,6.078,3.388c3.214,1.745,6.483,3.391,10.222,3.614c4.035,0.241,7.028-1.643,9.196-4.898
		c2.108-3.165,1.418-6.296-0.313-9.386c-1.657-2.958-4.179-5.163-6.52-7.507c-18.107-18.129-36.241-36.231-54.394-54.313
		c-1.762-1.755-3.576-3.516-5.605-4.933c-4.646-3.244-10.417-1.925-13.312,2.934c-1.71,2.87-1.882,5.85-0.705,9.071
		c1.605,4.393,3.927,8.403,6.096,12.502c3.504,6.622,4.984,13.602,4.376,21.131c-0.363,4.49-2.101,8.679-2.396,11.761
		C681.974,308.192,686.473,313.28,690.871,318.253z M1535.901,1579.012c32.48,0.195,54.062-25.639,54.187-52.838
		c0.138-30.065-23.646-53.692-53.952-53.62c-28.975,0.07-53.832,21.54-53.965,53.133
		C1482.047,1555.062,1505.134,1578.886,1535.901,1579.012z"/>
	<path style="fill:#F26522;" d="M0.97,1318.986c3.934-2.134,8.094-3.751,12.228-5.441c6.52-2.666,12.437-1.559,17.613,2.962
		c4.634,4.048,9.083,8.321,13.441,12.668c58.256,58.109,116.492,116.24,174.712,174.386c26.046,26.013,52.061,52.056,78.049,78.127
		c3.17,3.18,6.197,6.52,9.082,9.961c4.502,5.368,6.08,11.33,3.014,18.031c-1.24,2.71-2.402,5.457-3.584,8.193
		c-0.582,1.347-1.744,2.484-1.512,4.129c-101,0-202,0-303,0c-0.003-65.063-0.003-130.126-0.011-195.189
		C0.997,1390.87,0.981,1354.928,0.97,1318.986z"/>
	<path style="fill:#FDD8BD;" d="M0.012,0.001C0.39,0.03,0.769,0.058,1.148,0.087C1.111,2.085,1.042,4.083,1.042,6.081
		C1.033,423.205,1.029,840.329,1.028,1257.453c0,1.833,0.045,3.665,0.069,5.498c-0.362,0.017-0.724,0.033-1.086,0.05
		C0.012,842.001,0.012,421.001,0.012,0.001z"/>
	<path style="fill:#FDD8BD;" d="M0.97,1318.986c0.011,35.942,0.027,71.884,0.031,107.827c0.007,65.063,0.007,130.126,0.011,195.189
		c-0.308-0.218-1.043,0.506-1.011-0.5c0.043-1.332,0.011-2.666,0.011-4c0-99.5,0-199,0-298.5
		C0.331,1318.988,0.65,1318.982,0.97,1318.986z"/>
	<path style="fill:#F26823;" d="M1535.976,1481.619c25.408-0.393,43.246,20.516,43.358,43.844
		c0.121,25.325-19.147,44.5-42.525,44.752c-24.323,0.263-43.649-19.047-43.913-43.943
		C1492.648,1503.061,1509.88,1481.583,1535.976,1481.619z M1562.167,1556.371c-5.981-9.323-11.523-17.963-17.151-26.736
		c10.588-2.514,14.984-6.588,15.665-15.272c0.666-8.491-2.232-15.312-11.486-17.976c-2.843-0.818-5.822-1.307-8.859-1.275
		c-6.997,0.075-13.996,0.006-20.993,0.043c-1.106,0.006-2.369-0.414-3.162,0.644c0,20.182,0,40.268,0,60.728
		c3.066-0.139,5.834,0.456,9.019-0.548c0-8.588,0-17.172,0-25.727c3.892,0,7.325,0,10.684,0
		c5.394,8.841,10.661,17.475,15.934,26.118C1555.206,1556.371,1558.315,1556.371,1562.167,1556.371z"/>
	<path style="fill:#F26823;" d="M1525.241,1503.085c6.299,0.158,12.402-0.838,18.429,0.678c5.486,1.38,7.513,3.964,7.331,9.012
		c-0.181,5.011-2.438,7.778-7.797,8.748c-5.88,1.064-11.828,0.321-17.962,0.447
		C1525.241,1515.516,1525.241,1509.469,1525.241,1503.085z"/>
</g>
</svg>
