<?xml version="1.0" encoding="iso-8859-1"?>
<!-- Generator: Adobe Illustrator 27.0.0, SVG Export Plug-In . SVG Version: 6.00 Build 0)  -->
<svg version="1.1" id="Layer_1" xmlns="http://www.w3.org/2000/svg" xmlns:xlink="http://www.w3.org/1999/xlink" x="0px" y="0px"
	 viewBox="0 0 1578.014 458" style="enable-background:new 0 0 1578.014 458;" xml:space="preserve">
<g>
	<path style="fill:#427E68;" d="M391,0c-0.053,7.654-0.143,15.308-0.141,22.963c0.001,2.844-0.29,5.613-1.175,8.287
		c-1.469,0.823-2.998,0.426-4.461,0.438c-14.49,0.122-28.995-0.163-43.468,0.384c-17.119,0.648-34.218,1.904-51.312,3.087
		c-11.598,0.803-23.185,1.817-34.754,2.963c-6.93,0.687-13.82,1.781-20.721,2.746c-9.207,1.288-18.427,2.502-27.604,3.978
		c-12.45,2.003-24.917,3.962-37.286,6.403c-28.97,5.716-57.74,12.317-86.056,20.755C73.377,75.177,62.73,78.32,52.843,83.642
		C42.185,89.379,37.12,98.4,35.848,110.093c-0.632,5.814-0.625,11.625-0.625,17.446c0.004,70.638,0.027,141.277,0.007,211.915
		c-0.001,4.016,0.494,7.971,1.132,11.897c1.957,12.041,8.949,20.047,20.096,24.678c11.043,4.588,22.313,8.535,33.853,11.635
		c19.377,5.206,38.77,10.367,58.381,14.634c20.427,4.445,40.921,8.503,61.564,11.887c16.877,2.766,33.81,5.118,50.743,7.429
		c8.04,1.098,16.223,1.421,24.304,2.41c15.853,1.94,31.859,1.855,47.709,3.775c1.484,0.18,2.996,0.226,4.491,0.19
		c16.825-0.4,33.599,1.452,50.422,1.14c0.479-0.009,0.961,0.112,1.736,0.209c0.691,3.349,1.183,6.733,1.196,10.2
		c0.022,6.154,0.093,12.307,0.143,18.461c-0.667,0-1.333,0-2,0c-1.553-1.947-3.704-0.946-5.534-0.947
		C257.995,456.996,132.523,457.002,7.051,457c-1.999,0-3.999-0.028-5.998-0.043c-0.018-30.664-0.046-61.328-0.051-91.992
		c-0.015-98.326-0.021-196.651-0.03-294.977c0-22.911,0-45.821,0-68.989c2.717,0,4.698,0,6.679,0c125.106,0,250.211,0,375.317,0
		c1.499,0,2.999-0.005,4.498,0C388.202,1.001,388.717,0.683,389,0C389.667,0,390.333,0,391,0z"/>
	<path style="fill:#6E9483;" d="M389,0c-0.283,0.683-0.798,1.001-1.534,0.998c-1.499-0.005-2.999,0-4.498,0
		c-125.106,0-250.211,0-375.317,0c-1.981,0-3.962,0-6.679,0c0,23.168,0,46.078,0,68.989C0.648,69.997,0.324,70.001,0,70
		C0,46.667,0,23.333,0,0C129.667,0,259.333,0,389,0z"/>
	<path style="fill:#6F9584;" d="M400.455,1.1C400.303,0.733,400.152,0.367,400,0c130.333,0,260.667,0,391,0
		c0.012,0.329,0.024,0.657,0.036,0.986C667.168,0.99,543.301,0.993,419.433,1.003C413.107,1.003,406.781,1.066,400.455,1.1z"/>
	<path style="fill:#6E9483;" d="M400,458c0.149-0.367,0.298-0.734,0.447-1.101c2.996,0.034,5.993,0.097,8.989,0.098
		c127.204,0.011,254.409,0.017,381.613,0.023c-0.016,0.327-0.033,0.653-0.049,0.98C660.667,458,530.333,458,400,458z"/>
	<path style="fill:#6F9584;" d="M1.053,456.957C3.053,456.972,5.052,457,7.051,457c125.472,0.002,250.944-0.003,376.415,0.053
		c1.83,0.001,3.98-1,5.534,0.947c-128.167,0-256.333,0-384.5,0c-2.96,0-2.96,0-4.5-1C0.351,456.986,0.702,456.971,1.053,456.957z"/>
	<path style="fill:#638E7B;" d="M1.053,456.957C0.702,456.971,0.351,456.986,0,457C0,328,0,199,0,70
		c0.324,0.001,0.648-0.003,0.972-0.012c0.009,98.326,0.015,196.651,0.03,294.977C1.007,395.629,1.036,426.293,1.053,456.957z"/>
	<path style="fill:#427E68;" d="M791.049,457.02c-127.204-0.006-254.409-0.012-381.613-0.023c-2.996,0-5.993-0.064-8.989-0.098
		c-0.709-7.977-0.244-15.97-0.257-23.954c-0.005-3.142,1.49-4.359,4.704-4.634c0.993-0.085,1.999-0.012,2.999-0.019
		c13.165-0.086,26.33-0.217,39.495-0.243c7.674-0.015,15.289-0.72,22.897-1.602c0.33-0.038,0.661-0.139,0.988-0.126
		c12.364,0.492,24.591-1.295,36.838-2.442c9.908-0.928,19.841-1.814,29.67-3.559c5.394-0.958,10.857-1.668,16.32-2.074
		c10.137-0.754,20.077-2.802,30.043-4.535c17.162-2.984,34.349-5.895,51.36-9.706c29.143-6.53,58.209-13.353,86.566-22.853
		c6.148-2.06,12.02-4.721,17.683-7.945c10.754-6.124,15.256-15.732,16.093-27.552c0.106-1.493,0.059-2.998,0.059-4.498
		c0-74.829-0.011-149.659,0.018-224.488c0.002-4.19-0.623-8.289-1.415-12.355c-1.935-9.926-8.312-16.417-16.875-21.049
		c-8.22-4.447-17.072-7.377-25.954-10.079c-29.871-9.089-60.324-15.862-90.929-21.891c-20.03-3.946-40.138-7.624-60.423-10.011
		c-10.22-1.203-20.42-2.61-30.685-3.568c-11.569-1.08-23.172-1.978-34.722-3.375c-6.593-0.797-13.289-0.588-19.939-1.08
		c-20.786-1.54-41.623-1.051-62.444-1.13c-3.974-0.015-7.99,0.122-12.421-1.212c0.181-9.959-0.363-19.883,0.341-29.818
		c6.326-0.034,12.652-0.097,18.979-0.097c123.867-0.01,247.735-0.013,371.602-0.017c0.064,1.66,0.184,3.319,0.184,4.979
		c0.014,148.692,0.019,297.384,0.016,446.076C791.236,453.701,791.114,455.36,791.049,457.02z"/>
	<path style="fill:#457F6A;" d="M906.317,247.015c13.006,0,25.471,0,38.088,0c1.186,1.994,1.315,4.268,1.315,6.577
		c-0.003,37.986,0.016,75.971-0.042,113.957c-0.004,2.613-0.575,5.225-0.91,8.071c-7.489,0-14.757,0-22.25,0
		c-1.711-2.119-1.402-4.816-1.403-7.429c-0.009-26.323-0.006-52.647-0.006-78.97c0-3.319,0-6.637,0-9.956
		c-0.295-0.036-0.589-0.072-0.884-0.107c-7.123,31.766-14.246,63.532-21.281,94.906c-1.6,1.653-3.2,1.858-4.918,1.84
		c-3.831-0.04-7.664,0.032-11.495-0.025c-3.845-0.057-4.601-0.479-5.58-4.279c-1.736-6.742-3.269-13.539-4.783-20.337
		c-4.543-20.391-9.043-40.792-13.54-61.194c-0.707-3.206-1.307-6.436-2.038-10.06c-1.167,1.148-0.827,2.28-0.858,3.272
		c-0.052,1.664-0.004,3.332-0.016,4.998c-0.186,27.802-0.373,55.605-0.567,83.407c-0.006,0.828-0.082,1.655-0.156,3.071
		c-7.761,0.448-15.497,0.261-23.907,0.054c-0.459-42.536-0.139-84.911-0.253-127.182c2.773-1.906,5.653-1.764,8.4-1.409
		c8.465,1.092,16.955,0.434,25.43,0.625c1.651,0.037,3.303,0.005,5.4,0.005c6.384,28.919,11.386,57.956,18.573,86.577
		C894.499,304.775,900.361,276.122,906.317,247.015z"/>
	<path style="fill:#457F6A;" d="M1577.171,375.76c-7.391,0-14.715,0.022-22.038-0.043c-0.565-0.005-1.124-0.622-1.583-0.893
		c-0.894-1.9-0.534-3.761-0.536-5.566c-0.027-19.333-0.02-38.665-0.013-57.998c0.001-2.666-0.227-5.274-0.764-7.916
		c-0.855-4.207-3.173-7.189-7.196-8.06c-4.221-0.914-7.846,1.186-10.522,4.379c-2.904,3.464-3.617,7.768-3.622,12.18
		c-0.015,12.162,0.016,24.323-0.013,36.485c-0.018,7.831-0.101,15.661-0.176,23.492c-0.011,1.144,0.235,2.344-0.969,4.053
		c-7.713-0.057-15.883,0.263-23.54-0.231c-1.547-2.541-1.059-4.422-1.062-6.21c-0.038-19.999-0.024-39.999-0.024-59.998
		c0-1.167,0.026-2.334-0.008-3.5c-0.184-6.309-2.896-9.736-7.998-10.13c-6.148-0.475-11.053,2.918-12.208,8.59
		c-0.495,2.434-0.783,4.898-0.776,7.421c0.059,19.499,0.036,38.999,0.023,58.498c-0.001,1.317,0.214,2.668-0.757,4.802
		c-7.735,3.209-16.321,0.897-25.061,1.724c0-32.849,0-64.951,0-97.658c7.786-2.039,15.763-1.221,23.489-0.685
		c1.49,2.218,0.604,4.381,1.458,6.412c3.39-2.079,6.226-4.917,9.866-6.576c9.952-4.538,19.57-4.46,28.913,1.632
		c3.158,2.059,4.833,5.426,7.301,8.125c1.751-1.285,2.704-3.086,4.055-4.527c10.278-10.961,29.567-11.078,38.557-0.999
		c3.652,4.095,5.969,8.921,5.991,14.438c0.101,25.165,0.046,50.331,0.021,75.497C1577.975,373.459,1578.143,374.502,1577.171,375.76
		z"/>
	<path style="fill:#447F69;" d="M912.698,202.695c-12.175,1.828-21.732,1.743-26.327-0.437c0-17.986,0-36.241,0-54.798
		c-9.917,0-19.295,0-29.101,0c0,18.352,0,36.448,0,54.265c-4.018,2.591-16.071,2.949-26.991,0.996c0-42.156,0-84.371,0-126.582
		c5.004-1.868,22.701-1.746,26.719,0.428c0,15.166,0,30.594,0,46.33c9.805,0.926,19.158,1.066,29.008,0.03
		c0-15.365,0-30.774,0-45.958c4.53-2.036,18.87-2.385,26.693-0.798C912.698,118.198,912.698,160.274,912.698,202.695z"/>
	<path style="fill:#437F69;" d="M1055.196,374.691c-1.329-1.988-0.473-4.477-1.333-6.91c-2.539,2.107-4.735,4.115-7.115,5.872
		c-9.941,7.344-31.841,7.087-39.403-11.429c-2.635-6.453-4.563-13.179-4.402-20.313c0.064-2.823-0.499-5.653-0.57-8.437
		c-0.329-12.956-0.274-25.898,3.549-38.513c3.593-11.855,11.633-18.334,23.703-19.69c7.289-0.819,13.689,1.936,19.384,6.425
		c1.145,0.903,1.873,2.384,3.857,2.717c0-6.198,0-12.3,0-18.403c0-6.143,0-12.285,0-18.791c8.584,0,16.637,0,25.035,0
		c0,42.355,0,84.758,0,127.471C1070.388,374.691,1062.799,374.691,1055.196,374.691z M1028.138,325.796
		c0,4.629-0.091,8.462,0.023,12.288c0.14,4.667,0.63,9.315,2.751,13.568c1.888,3.786,4.679,6.297,9.279,6.393
		c4.635,0.096,7.492-2.384,9.476-6.108c1.328-2.493,1.966-5.265,2.404-8.082c1.519-9.772,0.749-19.603,0.654-29.399
		c-0.045-4.622-1.286-9.219-3.379-13.437c-3.401-6.854-12.982-7.497-17.254-1.163c-1.786,2.647-2.581,5.681-3.201,8.814
		C1027.712,314.622,1028.33,320.619,1028.138,325.796z"/>
	<path style="fill:#447F69;" d="M1397.764,307.736c-7.332,2.594-14.68,0.291-21.985,0.075c-2.547-13.321,6.305-26.899,19.706-30.676
		c11.919-3.359,23.671-2.439,35.222,1.514c8.643,2.957,14.167,11.135,14.27,20.82c0.112,10.487,0.026,20.976,0.027,31.464
		c0,6.826,0.071,13.652-0.021,20.476c-0.085,6.334,0.134,12.609,1.744,18.792c0.408,1.57,0.226,3.293,0.336,5.322
		c-7.446,0-14.686,0-22.419,0c-1.869-1.881-2.394-5.173-4.304-7.569c-1.28,0.043-1.793,1.063-2.297,1.826
		c-5.817,8.798-24.599,11.397-34.69,4.826c-4.657-3.033-7.569-7.476-9.16-12.687c-2.218-7.268-2.486-14.75-0.873-22.137
		c1.692-7.745,6.298-13.427,13.572-16.825c5.741-2.682,11.903-4.069,17.929-5.878c3.012-0.904,5.971-2.026,9.027-2.728
		c4.714-1.084,6.451-4.53,6.882-8.696c0.45-4.351-0.924-8.091-4.822-10.758c-6.227-4.261-15.317-0.512-16.772,7.005
		C1398.761,303.834,1398.861,305.867,1397.764,307.736z M1420.445,330.105c-5.824,0.434-10.578,1.778-15.069,3.947
		c-8.54,4.124-11.14,14.483-5.803,22.37c1.76,2.601,4.045,3.715,7.157,3.6c6.826-0.253,12.852-5.194,13.843-12.088
		C1421.398,342.188,1420.695,336.385,1420.445,330.105z"/>
	<path style="fill:#467F6A;" d="M998.576,159.117c-16.291,1.477-32.238-0.257-48.52,0.864c-0.855,8.177-0.646,16.231,3.424,23.599
		c3.762,6.811,13.426,6.469,17.154-0.386c1.197-2.2,1.942-4.588,2.364-7.049c0.318-1.854,1.046-3.464,2.246-5.087
		c6.97,0,13.933,0,20.938,0c1.74,2.331,1.099,4.943,0.653,7.259c-3.155,16.341-10.858,25.414-28.491,27.891
		c-5.716,0.803-11.29,0.385-16.82-0.641c-13.935-2.585-22.587-11.049-25.247-24.868c-3.328-17.288-3.616-34.64,0.627-51.929
		c3.633-14.804,15.386-23.895,31.094-24.804c4.663-0.27,9.369-0.425,13.965,0.374c12.84,2.232,20.481,10.198,23.996,22.47
		C998.927,137.173,998.982,147.769,998.576,159.117z M972.897,143.325c0-4.27,0.282-7.928-0.073-11.523
		c-0.417-4.213-2.698-7.55-6.65-9.248c-3.826-1.644-7.495-0.676-10.756,1.751c-1.922,1.43-3.128,3.454-3.837,5.7
		c-1.3,4.119-1.951,8.318-1.097,12.878C957.845,143.681,965.111,143.115,972.897,143.325z"/>
	<path style="fill:#457F6A;" d="M1365.005,330.619c-16.642,0.355-32.573-0.298-48.896,0.44c-0.105,7.043,0.312,13.647,2.055,19.998
		c1.637,5.965,5.927,9.153,10.578,8.933c5.039-0.238,8.432-3.309,10.214-9.384c0.697-2.374,1.205-4.803,1.859-7.451
		c7.362,0,14.584,0,21.787,0c2.881,15.059-6.722,29.698-21.96,33.649c-9.922,2.572-19.717,1.976-29.299-1.455
		c-7.977-2.857-13.174-8.639-16.419-16.379c-2.078-4.957-3.429-10.142-3.657-15.416c-0.531-12.279-1.157-24.586,0.677-36.842
		c0.594-3.97,1.692-7.783,3.151-11.477c3.213-8.137,8.76-13.951,17.154-16.938c10.492-3.733,20.979-4.482,31.663-0.765
		c8.418,2.929,14.03,8.609,17.16,16.829c2.62,6.88,4.109,13.98,3.953,21.396C1364.923,320.556,1365.005,325.358,1365.005,330.619z
		 M1340.809,314.834c-0.477-5.449-0.711-10.349-2.539-15.08c-1.669-4.318-5.083-6.355-9.179-6.52
		c-3.886-0.156-7.504,1.547-9.495,5.331c-2.593,4.926-3.54,10.217-3.483,16.197C1324.463,315.468,1332.492,315.579,1340.809,314.834
		z"/>
	<path style="fill:#457F6A;" d="M1007.851,171.473c7.474,0,14.59,0,21.948,0c0.397,2.391,0.764,4.648,1.149,6.903
		c1.731,10.122,13.095,13.118,20.493,7.326c4.567-3.576,4.587-11.703,0.078-15.441c-2.446-2.028-5.308-3.35-8.33-4.384
		c-5.645-1.932-11.287-3.89-16.852-6.039c-4.05-1.564-7.789-3.749-10.923-6.834c-6.963-6.852-7.929-15.489-6.912-24.509
		c1.24-10.998,7.588-18.385,17.806-21.942c11.438-3.981,23.251-4.233,34.721-0.135c9.738,3.48,15.62,10.469,16.083,21.23
		c0.111,2.574,1.535,5.189-0.245,8.023c-6.97,0.554-14.083,0.277-21.431,0.313c-0.871-1.65-1.056-3.425-1.423-5.179
		c-1.851-8.848-10.476-12.023-17.583-6.524c-4.553,3.523-4.842,10.117-0.527,13.937c2.654,2.349,5.866,3.693,9.205,4.812
		c5.973,2,11.954,3.988,17.849,6.203c14.473,5.437,18.581,18.573,16.42,31.994c-2.4,14.904-12.812,21.824-25.994,24.488
		c-9.431,1.906-18.815,1.089-28.041-1.742c-9.903-3.038-15.591-9.638-17.31-19.8
		C1007.347,180.106,1006.223,176.067,1007.851,171.473z"/>
	<path style="fill:#457F6A;" d="M1158.01,135.797c-7.87,0-15.145,0-22.779,0c-0.395-1.954-0.79-3.854-1.163-5.758
		c-1.035-5.299-4.487-8.285-9.618-8.307c-5.197-0.023-10.342,3.64-11.356,8.084c-0.893,3.919,2.022,8.974,6.876,11.041
		c4.567,1.945,9.308,3.5,14.026,5.067c4.412,1.466,8.774,3.002,12.938,5.111c7.26,3.679,11.583,9.803,12.716,17.509
		c2.747,18.681-5.697,32.828-24.391,36.653c-10.012,2.049-19.76,1.899-29.475-1.171c-10.681-3.375-17.095-11.699-17.575-22.884
		c-0.128-2.977-0.019-5.963-0.019-8.982c3.688-1.616,7.205-0.678,10.61-0.837c3.479-0.162,6.971-0.036,10.503-0.036
		c1.444,2.139,1.342,4.496,1.77,6.733c1.549,8.08,7.837,12.086,15.812,10.178c4.78-1.143,7.898-4.395,8.362-8.722
		c0.558-5.192-1.558-9.37-6.286-11.335c-5.512-2.29-11.196-4.162-16.774-6.298c-4.802-1.838-9.635-3.582-13.779-6.824
		c-8.29-6.485-11.03-15.201-9.926-25.22c1.792-16.261,13.33-23.756,27.486-25.56c8.234-1.049,16.613-0.931,24.694,1.886
		c10.99,3.832,17.23,12.434,17.345,24.145C1158.024,131.924,1158.01,133.579,1158.01,135.797z"/>
	<path style="fill:#447F69;" d="M1091.502,343.067c7.393,0,14.517,0,21.452,0c1.581,1.588,0.948,3.344,1.036,4.944
		c0.467,8.538,7.57,13.917,15.895,11.993c4.692-1.084,7.865-4.444,8.298-8.787c0.585-5.86-1.033-8.795-6.04-11.283
		c-4.921-2.446-10.167-4.027-15.295-5.923c-4.978-1.841-9.978-3.626-14.38-6.723c-6.881-4.842-10.616-11.303-10.351-19.847
		c0.103-3.321-0.375-6.666,0.274-9.961c1.553-7.882,6.13-13.795,13.119-17.252c13.517-6.686,27.541-6.855,41.483-1.236
		c11.763,4.741,16.607,20.741,12.771,28.828c-6.876,0-13.843,0-21.157,0c-0.534-2.297-1.074-4.679-1.644-7.055
		c-0.998-4.164-3.787-6.712-7.802-7.522c-4.005-0.808-7.572,0.707-10.375,3.635c-3.173,3.314-2.835,10.019,0.605,13.038
		c2.266,1.989,4.902,3.345,7.796,4.285c5.677,1.844,11.315,3.808,16.951,5.773c3.146,1.097,6.143,2.533,8.831,4.524
		c6.587,4.882,9.985,11.426,9.995,19.645c0.004,3.482,0.018,6.94-0.617,10.428c-1.815,9.961-7.822,16.324-16.863,20.021
		c-11.646,4.761-23.542,4.775-35.566,1.383c-11.176-3.153-17.227-10.613-18.886-21.929
		C1090.504,350.446,1089.69,346.857,1091.502,343.067z"/>
	<path style="fill:#457F6A;" d="M1181.864,250.504c7.983,0,15.752,0,23.878,0c0.753,9.167-0.277,18.297,0.64,27.399
		c4.367,1.892,8.982,0.344,13.45,1.184c0,5.477,0,10.707,0,16.027c-4.439,1.614-8.841,0.156-13.272,1.091
		c-0.784,3.155-0.504,6.476-0.522,9.742c-0.079,13.664-0.047,27.329-0.028,40.993c0.011,8.065,2.759,10.846,10.66,10.929
		c0.97,0.01,1.986-0.235,3.227,0.52c0.555,5.217,0.132,10.643,0.248,15.88c-2.03,2.152-4.535,1.758-6.758,2.014
		c-5.95,0.685-11.956,0.988-17.875-0.101c-9.149-1.683-13.546-6.59-14.479-15.811c-0.201-1.983-0.175-3.994-0.177-5.992
		c-0.012-17.664-0.007-35.328-0.007-52.992c0-1.634,0-3.268,0-5.101c-4.191-0.922-8.199,0.059-12.345-0.663
		c-0.7-5.415-0.322-10.696-0.33-16.157c3.66-1.59,7.728,0.456,11.312-1.53c1.723-1.939,1.758-4.471,1.782-6.966
		c0.05-5.165-0.002-10.332,0.03-15.497C1181.306,254,1181.043,252.486,1181.864,250.504z"/>
	<path style="fill:#457F6A;" d="M1234.288,375.162c0-32.413,0-64.162,0-96.112c7.868,0,15.467,0,23.26,0
		c0.972,3.029-0.016,6.215,0.666,9.306c13.6-13.087,18.87-15.388,26.908-11.445c-0.293,7.705,0.529,15.621-0.62,23.843
		c-4.475-0.757-8.335-0.884-12.29,0.068c-7.47,1.798-12.651,7.758-12.489,15.694c0.351,17.149,0.1,34.311,0.081,51.468
		c-0.002,1.493,0.049,3.016-0.224,4.469c-0.32,1.709-1.248,3.353-3.188,3.339C1249.103,375.738,1241.772,376.533,1234.288,375.162z"
		/>
	<path style="fill:#427E68;" d="M963.747,373.342c-0.077-30.87-0.029-62.405-0.059-94.214c8.764,0,16.812,0,25.075,0
		c0,32.048,0,63.933,0,95.73c-2.836,0.907-17.428,1.531-21.024,1.013C966.352,375.67,965.23,375.065,963.747,373.342z"/>
	<path style="fill:#467F6A;" d="M964.699,245.108c8.039,0,15.84,0,23.974,0c0,7.124,0,14.172,0,21.505c-7.931,0-15.855,0-23.81,0
		C963.888,263.204,963.741,251.51,964.699,245.108z"/>
	<path style="fill:#457F6A;" d="M713.952,146.307c1.414,4.578,1.851,31.75,0.775,40.658c-1.43,2.334-3.765,1.735-5.861,1.737
		c-24.827,0.022-49.655,0.014-74.482,0.014c-6.977,0-13.954,0-21.228,0c-2.107,6.015-1.111,11.911-0.913,17.961
		c2.446,0.779,4.76,0.603,7.046,0.604c24.161,0.008,48.322,0.022,72.482-0.009c4.845-0.006,9.568,0.746,14.316,1.621
		c5.318,0.98,8.591,4.249,10.546,8.916c1.275,3.044,2.068,6.314,2.251,9.663c0.848,15.451,1.668,30.927,0.856,46.379
		c-0.356,6.764-0.327,13.609-1.668,20.337c-2.017,10.123-6.911,15.001-17.029,16.844c-3.465,0.631-6.912,0.874-10.418,0.872
		c-38.324-0.023-76.648-0.013-114.972-0.016c-2.472,0-4.996,0.262-7.372-1.34c0-13.216,0-26.5,0-40.005
		c2.879-1.013,5.787-1.273,8.773-1.271c30.659,0.022,61.319,0.018,91.978,0.003c1.789-0.001,3.617,0.245,5.575-0.388
		c0-5.896,0-11.66,0-17.686c-1.712-0.816-3.557-0.466-5.315-0.468c-21.162-0.028-42.323-0.056-63.485,0.001
		c-7.993,0.022-15.965-0.276-23.831-1.681c-7.97-1.423-11.652-5.257-12.844-13.063c-2.32-15.195-2.286-30.463-1.376-45.768
		c0.286-4.815,0.096-9.661,0.082-14.492c-0.015-5.352,0.755-10.591,2.132-15.753c1.529-5.735,5.118-9.612,10.644-11.658
		c3.435-1.272,6.969-2.204,10.676-2.204c40.157-0.003,80.314-0.002,120.471,0.006C712.417,146.122,713.071,146.229,713.952,146.307z
		"/>
	<path style="fill:#457F6A;" d="M509.833,269.371c1.911-6.432,1.474-12.329,0.359-18.082c-2.071-0.91-3.756-0.552-5.389-0.554
		c-18.329-0.03-36.661-0.196-54.987,0.054c-9.5,0.13-18.94-0.674-28.406-1.012c-10.913-0.39-17.123-6.735-17.32-17.867
		c-0.297-16.823-0.154-33.653-0.18-50.481c-0.006-3.998,0.126-7.997,0.067-11.993c-0.06-4.081,0.93-7.973,2.492-11.622
		c2.109-4.929,5.647-8.529,11.088-9.981c3.544-0.946,7.068-1.736,10.769-1.734c38.658,0.024,77.316,0.011,115.975,0.024
		c2.134,0.001,4.344-0.298,6.249,1.019c0,13.339,0,26.601,0,40.33c-11.573,0.831-22.854,0.305-34.115,0.398
		c-11.33,0.093-22.661,0.021-33.992,0.021c-11.281,0-22.562,0-34.083,0c-0.572,6.908-0.423,13.312-0.175,19.675
		c2.133,0.902,3.978,0.526,5.76,0.528c26.827,0.03,53.655,0.02,80.482,0.021c1.333,0,2.672-0.069,3.997,0.034
		c7.762,0.604,12.279,4.127,14.519,11.514c1.157,3.817,1.785,7.748,1.781,11.768c-0.018,17.996-0.016,35.992-0.001,53.988
		c0.003,4.188-0.74,8.261-1.85,12.266c-2.026,7.309-7.057,11.53-14.291,13.01c-3.39,0.694-6.853,1.223-10.378,1.22
		c-40.491-0.038-80.982-0.024-121.473-0.024c-0.655,0-1.309,0-2.202,0c-0.823-1.865-1.379-3.714-1.409-5.71
		c-0.071-4.82-0.442-9.65,0.532-14.435c0.164-0.804,0.338-1.704,0.144-2.468c-1.648-6.49,0.177-12.887,0.318-19.906
		C439.276,269.371,474.336,269.371,509.833,269.371z"/>
	<path style="fill:#447F69;" d="M386.35,146.114c1.833,2.203,1.614,4.602,1.621,6.871c0.033,9.827,0.023,19.656-0.085,29.482
		c-0.066,6.029-0.348,6.24-6.217,6.243c-21.989,0.01-43.978,0.004-65.967,0.004c-4.998,0-9.995-0.028-14.992,0.016
		c-1.635,0.014-3.344-0.368-5.394,0.947c-0.872,5.348-0.285,11.091-0.241,17.31c3.609,0.104,7.038,0.284,10.468,0.287
		c24.988,0.024,49.975,0.016,74.963,0.008c2.328-0.001,4.675-0.166,7.374,1.771c0.075,13.1,0.501,26.649-0.286,39.89
		c-2.211,1.47-4.089,0.913-5.849,0.916c-25.82,0.042-51.641,0.016-77.462,0.045c-3.099,0.003-6.291-0.323-9.107,1.28
		c0,5.856,0,11.465,0,16.833c1.942,1.896,4.052,1.238,5.97,1.241c26.487,0.042,52.974,0.027,79.461,0.031
		c2.477,0,5.06-0.343,6.906,1.906c1.141,7.164,0.66,36.226-0.67,40.258c-1.388,0.792-2.92,0.416-4.385,0.417
		c-34.983,0.023-69.965,0.012-104.948,0.025c-5.03,0.002-9.902-0.701-14.594-2.616c-4.433-1.809-7.398-4.965-9.05-9.397
		c-1.807-4.849-3.034-9.807-3.03-15.041c0.024-37.148,0.03-74.297-0.007-111.445c-0.005-4.887,0.952-9.591,2.463-14.162
		c2.016-6.101,6.235-10.172,12.476-11.828c2.868-0.761,5.799-1.328,8.843-1.324c36.315,0.047,72.631,0.031,108.946,0.031
		C384.543,146.114,385.53,146.114,386.35,146.114z"/>
	<path style="fill:#447F69;" d="M72.115,310.576c0-54.278,0-108.717,0-163.102c4.67-1.636,24.592-2.267,40.844-1.378
		c1.368,0.075,2.668,0.131,4.082,2.027c0,19.054,0,38.803,0,58.83c24.241,0,47.975,0,71.673,0c0.828-1.694,0.497-3.206,0.501-4.655
		c0.053-16.663,0.058-33.326,0.114-49.989c0.007-1.951-0.414-4.037,1.111-5.67c1.081-0.782,2.285-0.515,3.426-0.517
		c11.664-0.017,23.329-0.027,34.993-0.003c5.388,0.011,5.945,0.581,5.946,6.084c0.012,50.99,0.013,101.979,0,152.969
		c0,1.812,0.248,3.677-0.511,5.188c-1.18,1.614-2.701,1.536-4.215,1.534c-11.331-0.011-22.662-0.019-33.993-0.008
		c-2.192,0.002-4.3-0.367-6.75-1.29c0-19.617,0-39.382,0-59.513c-24.135,0-47.869,0-72.001,0c0,19.627,0,39.391,0,58.863
		c-1.728,1.789-3.501,1.947-5.342,1.946c-11.831-0.008-23.661-0.003-35.492-0.014C75.007,311.877,73.499,311.856,72.115,310.576z"/>
</g>
</svg>
