<?xml version="1.0" encoding="iso-8859-1"?>
<!-- Generator: Adobe Illustrator 27.0.0, SVG Export Plug-In . SVG Version: 6.00 Build 0)  -->
<svg version="1.1" id="Layer_1" xmlns="http://www.w3.org/2000/svg" xmlns:xlink="http://www.w3.org/1999/xlink" x="0px" y="0px"
	 viewBox="0 0 1596.05 160.312" style="enable-background:new 0 0 1596.05 160.312;" xml:space="preserve">
<g>
	<path style="fill:#020202;" d="M735,160.012c0.657-1.276,0.161-2.616,0.162-3.913c0.036-50.631,0.035-101.263,0.038-151.894
		c0-0.818,0-1.636,0-2.823c30.376,0,60.583,0,91.114,0c15.558,20.571,31.291,41.373,47.454,62.744
		c16.454-21.263,32.595-42.122,48.744-62.991c28.705,0,57.315,0,85.766,0c0.957,0.738,0.701,1.624,0.701,2.412
		c0.011,51.131,0.011,102.262,0.005,153.393c0,0.663-0.089,1.326-0.137,1.989c-3.807,0.035-7.614,0.093-11.421,0.102
		c-19.867,0.048-39.734,0.083-59.602,0.123c-0.752-2.256-0.502-4.593-0.503-6.899c-0.013-24.287,0.01-48.574-0.015-72.86
		c-0.002-1.718,0.352-3.511-0.584-5.855c-21.798,28.92-43.255,57.387-64.713,85.855c-2.159-0.884-2.99-3.002-4.249-4.684
		c-19.231-25.694-38.415-51.424-57.666-77.103c-1.042-1.39-1.617-3.338-3.8-3.969c0,1.576,0,3.019,0,4.462
		c-0.005,25.149-0.002,50.299-0.03,75.448c-0.002,1.818,0.293,3.663-0.28,5.456c-21.519-0.003-43.037-0.031-64.556,0.042
		c-1.462,0.005-3.336-1.043-4.428,0.967C736.333,160.012,735.667,160.012,735,160.012z"/>
	<path style="fill:#030303;" d="M0,1.012c23.79,0,47.579,0,71.76,0c0,17.974,0,35.702,0,53.714c30.257,0,60.123,0,90.415,0
		c0-17.817,0-35.536,0-53.482c24.316,0,48.207,0,72.171,0c0.762,1.888,0.378,3.73,0.377,5.51
		c-0.025,50.786-0.083,101.572-0.117,152.359c0,0.3,0.257,0.6,0.393,0.9c-0.667,0-1.333,0-2,0c-0.556-1.594-1.924-0.974-2.951-0.975
		c-21.032-0.035-42.065-0.035-63.097,0c-1.028,0.002-2.395-0.616-2.952,0.976c-0.667,0-1.333,0-2,0
		c0.038-19.102,0.079-38.203,0.09-57.305c0-0.254-0.383-0.507-0.569-0.738c-29.73,0-59.438,0-89.165,0
		c-0.723,1.765-0.393,3.435-0.401,5.055c-0.086,17.293-0.137,34.587-0.197,51.88C47.839,158.94,23.919,158.976,0,159.012
		C0,106.345,0,53.679,0,1.012z"/>
	<path style="fill:#181616;" d="M1596,19.012c-1.895-1.401-4.278,0.109-6.438-1.16c-0.951-2.699,0.184-5.751-0.665-8.83
		c-2.46,2.723-2.888,6.385-4.965,9.037c-1.713,0.663-3.324,0.284-4.939,0.213c-1.995-2.566-2.447-5.857-4.755-8.368
		c-1.014,2.721,0.025,5.393-0.768,7.979c-2.005,0.953-4.125,0.493-6.761,0.352c-0.031-5.811-0.475-11.519,0.257-17.247
		c3.598,0.047,7.195,0.094,10.793,0.141c1.214,2.528,2.428,5.056,3.797,7.905c1.582-3.001,2.937-5.57,4.292-8.139
		c3.384,0.039,6.768,0.077,10.152,0.116C1596,7.012,1596,13.012,1596,19.012z"/>
	<path style="fill:#686565;" d="M1124,160.012c-0.318-0.232-0.376-0.517-0.177-0.855c1.993-0.047,3.986-0.135,5.979-0.136
		c50.052-0.017,100.103-0.024,150.155-0.033c0.014,0.341,0.029,0.683,0.043,1.024C1228,160.012,1176,160.012,1124,160.012z"/>
	<path style="fill:#686565;" d="M689.81,158.923c0.063,0.363,0.127,0.726,0.19,1.089c-49.333,0-98.667,0-148,0
		c0.049-0.357,0.099-0.715,0.148-1.072c34.92,0.025,69.841,0.061,104.761,0.068C661.209,159.011,675.509,158.953,689.81,158.923z"/>
	<path style="fill:#565352;" d="M351,160.012c0.115-0.368,0.23-0.736,0.345-1.104c12.475,0.022,24.95,0.053,37.424,0.063
		c35.097,0.03,70.193,0.051,105.29,0.075c-0.037,0.321-0.057,0.643-0.06,0.966C446.333,160.012,398.667,160.012,351,160.012z"/>
	<path style="fill:#686565;" d="M1457,160.012c-0.05-0.296-0.096-0.593-0.137-0.89c1.997-0.036,3.994-0.101,5.991-0.104
		c22.317-0.038,44.633-0.066,66.95-0.097c0.065,0.364,0.131,0.727,0.196,1.09C1505.667,160.012,1481.333,160.012,1457,160.012z"/>
	<path style="fill:#686565;" d="M71.758,158.905c0.081,0.369,0.161,0.738,0.242,1.107c-23.167,0-46.333,0.016-69.5-0.07
		c-0.748-0.003-2.42,1.287-2.5-0.93C23.919,158.976,47.839,158.94,71.758,158.905z"/>
	<path style="fill:#565352;" d="M328.817,158.95c0.061,0.354,0.122,0.708,0.183,1.062c-24,0-48,0-72,0
		c0.131-0.371,0.262-0.743,0.393-1.114C281.201,158.915,305.009,158.933,328.817,158.95z"/>
	<path style="fill:#565352;" d="M1366.817,158.951c0.061,0.354,0.122,0.708,0.183,1.061c-24,0-48,0-72,0
		c0.127-0.37,0.255-0.741,0.382-1.111C1319.194,158.917,1343.005,158.934,1366.817,158.951z"/>
	<path style="fill:#686565;" d="M1094.005,159.015c-0.007,0.332-0.009,0.665-0.005,0.997c-23.333,0-46.667,0-70,0
		c0.113-0.784-0.195-1.74,0.873-2.132c1.264,2.07,3.303,1.079,4.954,1.085C1051.22,159.04,1072.612,159.015,1094.005,159.015z"/>
	<path style="fill:#6F6C6C;" d="M938,160.012c-0.292-0.238-0.35-0.524-0.176-0.858c19.867-0.04,39.734-0.075,59.602-0.123
		c3.807-0.009,7.614-0.067,11.421-0.102c0.051,0.361,0.102,0.722,0.153,1.083C985.333,160.012,961.667,160.012,938,160.012z"/>
	<path style="fill:#666363;" d="M164,160.012c0.557-1.591,1.924-0.974,2.952-0.976c21.032-0.035,42.065-0.035,63.097,0
		c1.027,0.002,2.395-0.618,2.951,0.975C210,160.012,187,160.012,164,160.012z"/>
	<path style="fill:#605D5C;" d="M805.983,159.003c0.006,0.336,0.011,0.672,0.017,1.009c-23,0-46,0-69,0
		c1.091-2.01,2.965-0.962,4.428-0.967C762.946,158.973,784.465,159,805.983,159.003z"/>
	<path style="fill:#686565;" d="M1543.982,1c0.006-0.329,0.012-0.659,0.018-0.988c7,0,14,0,21,0c-0.08,0.367-0.16,0.734-0.24,1.101
		C1557.834,1.075,1550.908,1.038,1543.982,1z"/>
	<path style="fill:#6F6C6C;" d="M1578,0.012c-0.08,0.373-0.16,0.745-0.24,1.118c-3.598-0.047-7.195-0.094-10.793-0.141
		c0.011-0.326,0.022-0.652,0.033-0.977C1570.667,0.012,1574.333,0.012,1578,0.012z"/>
	<path style="fill:#686565;" d="M1585.848,0.896c-0.024-0.308,0.026-0.602,0.152-0.884c3.167,0,6.334,0.02,9.5-0.012
		c1.005-0.01,0.282,0.704,0.5,1.012C1592.616,0.973,1589.232,0.935,1585.848,0.896z"/>
	<path style="fill:#020202;" d="M1366.817,158.951c-23.812-0.017-47.623-0.033-71.435-0.05c-0.083-1.323-0.239-2.646-0.239-3.969
		c-0.01-49.993-0.008-99.987,0.014-149.98c0.001-1.129-0.308-2.311,0.418-3.666c26.811,0,53.735,0,80.88,0
		c26.826,26.107,53.789,52.346,81.317,79.136c0-26.705,0-52.691,0-79.043c24.115,0,47.84,0,71.818,0
		c0.745,0.556,0.361,1.638,0.361,2.577c0.018,50.827,0.017,101.653,0.009,152.48c0,0.829-0.102,1.658-0.156,2.487
		c-22.317,0.031-44.633,0.059-66.95,0.097c-1.997,0.003-3.994,0.068-5.991,0.104c-17.9-17.106-35.807-34.204-53.696-51.321
		c-10.571-10.115-21.109-20.263-31.67-30.388c-1.186-1.137-2.426-2.216-3.997-3.646c-0.76,1.432-0.472,2.717-0.474,3.893
		c-0.023,25.273-0.019,50.546-0.034,75.82C1366.991,155.303,1366.878,157.127,1366.817,158.951z"/>
	<path style="fill:#040404;" d="M1094.005,159.015c-21.392,0-42.785,0.025-64.177-0.05c-1.651-0.006-3.69,0.985-4.954-1.085
		c8.708-18.224,17.381-36.464,26.131-54.667c15.642-32.542,31.33-65.061,47.004-97.588c0.713-1.48,1.479-2.936,2.257-4.475
		c33.043,0,65.993,0,99.306,0c3.259,6.33,6.595,12.775,9.901,19.237c22.942,44.847,45.882,89.695,68.798,134.554
		c0.661,1.294,1.831,2.407,1.688,4.046c-50.052,0.009-100.103,0.016-150.155,0.033c-1.993,0.001-3.986,0.089-5.979,0.136
		c-0.139-1.052,0.362-1.906,0.789-2.815c6.052-12.903,12.08-25.817,18.113-38.728c0.347-0.742,0.513-1.599,1.967-2.385
		c11.812,0,24.279,0,37.671,0c-11.415-23.261-22.516-45.883-33.714-68.703c-2.122,0.958-2.32,2.919-3.034,4.419
		c-16.525,34.715-33.005,69.451-49.51,104.176C1095.473,156.449,1095.148,157.957,1094.005,159.015z"/>
	<path style="fill:#020202;" d="M689.81,158.923c-14.3,0.03-28.601,0.088-42.901,0.085c-34.92-0.008-69.841-0.044-104.761-0.068
		c-0.049-1.162-0.141-2.325-0.141-3.487C542,105.32,542.001,55.188,542.001,5.055c0-1.147,0-2.293,0-3.741
		c23.906,0,47.627,0,71.879,0c0,35.277,0,70.634,0,106.382c35.269,0,70.011,0,104.74,0c0.312,1.864-0.778,2.778-1.404,3.86
		C708.089,127.35,698.948,143.136,689.81,158.923z"/>
	<path style="fill:#010201;" d="M494.06,159.046c-35.097-0.024-70.193-0.046-105.29-0.075c-12.475-0.011-24.95-0.042-37.424-0.063
		c-0.079-1.157-0.228-2.313-0.228-3.47c-0.009-50.295-0.006-100.59,0.001-150.885c0-0.831,0.064-1.662,0.098-2.493
		c0.274-0.304,0.549-0.607,0.823-0.911c23.462,0,46.924,0,70.918,0c0,35.369,0,70.714,0,106.538c33.775,0,67.023,0,100.343,0
		c0.318,1.889-0.692,2.792-1.296,3.828c-8.932,15.332-17.875,30.657-26.8,45.992C494.876,158.071,494.748,158.758,494.06,159.046z"
		/>
	<path style="fill:#010201;" d="M328.817,158.95c-23.808-0.017-47.616-0.035-71.424-0.052c-0.084-1.155-0.241-2.311-0.241-3.466
		c-0.012-50.288-0.01-100.575-0.01-150.863c0-0.979,0-1.957,0-3.239c23.944,0,47.648,0,71.409,0c0.826,0.777,0.429,1.84,0.43,2.778
		c0.022,50.621,0.021,101.242,0.012,151.862C328.991,156.963,328.878,157.957,328.817,158.95z"/>
	<path style="fill:#181616;" d="M1543.982,1c6.926,0.037,13.852,0.075,20.778,0.112c0,1.464,0,2.928,0,4.43
		c-2.001,1.118-4.26-0.041-6.675,0.894c0,3.765,0,7.675,0,11.773c-2.678,0-4.944,0-7.724,0c0-4.023,0-7.901,0-11.558
		c-2.352-1.157-4.431-0.143-6.414-0.944C1543.436,4.179,1543.26,2.598,1543.982,1z"/>
	<path style="fill:#565352;" d="M352.039,1.149c-0.274,0.304-0.549,0.607-0.823,0.911C350.959,1.276,351.297,1.03,352.039,1.149z"/>
</g>
</svg>
