<?xml version="1.0" encoding="iso-8859-1"?>
<!-- Generator: Adobe Illustrator 27.0.0, SVG Export Plug-In . SVG Version: 6.00 Build 0)  -->
<svg version="1.1" id="Layer_1" xmlns="http://www.w3.org/2000/svg" xmlns:xlink="http://www.w3.org/1999/xlink" x="0px" y="0px"
	 viewBox="0 0 338.382 214.342" style="enable-background:new 0 0 338.382 214.342;" xml:space="preserve">
<g>
	<path style="fill:#104E8B;" d="M338.382,108.119c-4.213,2.137-8.374,4.373-12.475,6.72c-7.352,4.206-14.583,8.612-21.786,13.066
		c-0.266,0.165-0.565,0.302-0.742,0.586c-2.644,1.47-5.169,3.133-7.717,4.757c-9.365,5.971-18.723,11.954-28.049,17.986
		c-8.325,5.385-16.611,10.831-24.903,16.267c-7.227,4.738-14.442,9.493-21.656,14.251c-2.853,1.881-5.687,3.789-8.53,5.685
		c-1.245,0.555-2.305,1.409-3.436,2.145c-12.111,7.878-24.153,15.863-36.542,23.304c-0.816,0.49-1.642,0.963-2.486,1.456
		c-3.425-1.719-6.774-3.539-10.082-5.434c-7.151-4.097-14.119-8.487-21-13.018c-2.86-1.883-5.708-3.785-8.564-5.673
		c-0.296-0.196-0.618-0.354-0.927-0.53c-1.743-1.188-3.492-2.367-5.227-3.566c-8.387-5.798-16.78-11.587-25.152-17.408
		c-9.218-6.41-18.446-12.805-27.754-19.086c-3.927-2.65-7.905-5.224-11.845-7.854c-5.465-3.648-11.026-7.146-16.61-10.607
		c-1.247-0.773-2.447-1.634-3.798-2.234c-1.084-0.952-2.385-1.57-3.611-2.295c-8.479-5.019-17.08-9.818-25.971-14.079
		c-2.718-1.303-5.453-2.568-8.232-3.737c-0.437-0.184-0.865-0.388-1.287-0.578c-0.011-0.418,0.348-0.444,0.561-0.556
		c13.506-7.1,26.852-14.491,40.144-21.981c0.307-0.173,0.668-0.279,0.862-0.613c0.334-0.024,0.583-0.237,0.856-0.393
		c2.491-1.421,4.987-2.834,7.469-4.271c6.237-3.611,12.494-7.187,18.693-10.863c7.089-4.204,14.138-8.476,21.177-12.764
		c8.197-4.993,16.303-10.132,24.331-15.391c7.399-4.847,14.749-9.768,21.934-14.93c1.353-0.972,2.796-1.825,4.028-2.962
		c1.553-0.823,2.876-1.977,4.278-3.014c5.154-3.81,10.207-7.752,15.111-11.881c2.957-2.49,5.872-5.026,8.639-7.727
		c0.275-0.269,0.636-0.48,0.74-0.896c0.16,0,0.32,0,0.48,0c0.008,0.278,0.241,0.394,0.411,0.548c2.63,2.386,5.44,4.55,8.291,6.661
		c7.49,5.545,15.274,10.659,23.101,15.709c1.363,0.88,2.665,1.873,4.167,2.529c0.918,0.765,1.978,1.312,2.979,1.948
		c8.1,5.143,16.277,10.16,24.494,15.113c6.512,3.925,13.022,7.854,19.545,11.761c6.693,4.009,13.401,7.994,20.103,11.988
		c6.941,4.137,13.884,8.271,20.824,12.409c2.87,1.711,5.737,3.429,8.605,5.144c0.189,0.141,0.369,0.297,0.569,0.419
		c7.936,4.838,15.886,9.653,23.653,14.76c3.887,2.556,7.776,5.11,11.328,8.134c0.314,0.267,0.5,0.738,1.008,0.754
		C338.382,107.959,338.382,108.039,338.382,108.119z M171.857,26.367c-0.127,0.097-0.229,0.16-0.314,0.242
		c-3.511,3.383-7.22,6.539-11.041,9.562c-8.263,6.538-16.889,12.573-25.667,18.395c-11.265,7.472-22.759,14.572-34.376,21.481
		c-14.313,8.512-28.804,16.71-43.443,24.647c-3.323,1.801-6.659,3.579-9.984,5.365c0.168,0.351,0.516,0.394,0.798,0.514
		c8.148,3.468,15.924,7.66,23.559,12.123c10.194,5.958,20.064,12.425,29.838,19.04c11.494,7.779,22.818,15.805,34.263,23.654
		c9.701,6.653,19.439,13.25,29.647,19.119c2.443,1.404,4.911,2.764,7.442,3.999c2.731-1.52,5.329-3.15,7.925-4.783
		c11.005-6.918,21.831-14.11,32.706-21.228c8.139-5.327,16.26-10.681,24.396-16.014c11.936-7.824,23.916-15.578,36.071-23.059
		c7.43-4.573,14.874-9.125,22.694-13.02c0.151-0.075,0.254-0.178,0.333-0.403c-0.268-0.247-0.553-0.521-0.849-0.783
		c-1.286-1.14-2.683-2.136-4.094-3.113c-7.018-4.86-14.313-9.284-21.624-13.68c-10.449-6.284-20.939-12.499-31.403-18.757
		c-12.858-7.691-25.742-15.34-38.389-23.376C190.586,40.093,180.785,33.944,171.857,26.367z"/>
	<path style="fill:#BB2242;" d="M140.054,23.518c-1.232,1.138-2.675,1.99-4.028,2.962c-7.185,5.161-14.535,10.082-21.934,14.93
		c-8.029,5.26-16.135,10.398-24.331,15.391c-7.039,4.288-14.088,8.56-21.177,12.764c-6.198,3.676-12.456,7.252-18.693,10.863
		c-2.482,1.437-4.978,2.85-7.469,4.271c-0.273,0.156-0.522,0.369-0.856,0.393c0.173-4.018,0.306-8.038,0.47-12.056
		c0.257-6.302,0.203-12.605,0.213-18.908c0.003-1.915,0.01-3.834-0.107-5.744c-0.206-3.376-0.3-6.757-0.605-10.13
		c-0.183-2.021-0.346-4.047-0.584-6.059c-0.441-3.739-0.98-7.468-1.763-11.155c-0.205-0.965-0.406-1.931-0.61-2.9
		c0.373-0.302,0.786-0.166,1.162-0.159c3.624,0.069,7.242,0.26,10.861,0.459c3.66,0.2,7.324,0.319,10.983,0.536
		c2.703,0.16,5.406,0.325,8.111,0.463c3.219,0.165,6.431,0.462,9.649,0.652c1.392,0.082,2.784,0.143,4.176,0.236
		c3.378,0.226,6.764,0.326,10.141,0.552c2.703,0.181,5.406,0.328,8.11,0.483c2.784,0.159,5.567,0.324,8.351,0.48
		c2.823,0.157,5.645,0.322,8.467,0.479c3.181,0.178,6.362,0.359,9.544,0.513c3.221,0.156,6.442,0.316,9.663,0.486
		C138.552,23.361,139.302,23.451,140.054,23.518z"/>
	<path style="fill:#BB2242;" d="M39.101,128.931c1.351,0.6,2.551,1.461,3.798,2.234c5.584,3.461,11.145,6.959,16.61,10.607
		c3.94,2.63,7.918,5.204,11.845,7.854c9.307,6.28,18.535,12.676,27.754,19.086c8.371,5.821,16.765,11.61,25.152,17.408
		c1.735,1.199,3.485,2.378,5.227,3.566c-0.107,0.04-0.212,0.11-0.321,0.115c-2.348,0.11-4.697,0.189-7.043,0.321
		c-3.458,0.194-6.913,0.431-10.369,0.637c-1.988,0.118-3.979,0.202-5.968,0.317c-2.145,0.124-4.288,0.272-6.433,0.402
		c-1.749,0.106-3.5,0.141-5.25,0.286c-2.183,0.181-4.379,0.185-6.568,0.301c-3.578,0.19-7.152,0.437-10.731,0.606
		c-3.186,0.15-6.378,0.174-9.561,0.349c-5.304,0.292-10.611,0.243-15.916,0.184c-3.338-0.037-6.673-0.265-9.963-0.917
		c-0.4-0.079-0.744-0.253-1.102-0.338c-0.38-0.871-0.316-1.779-0.41-2.632c-0.312-2.845-0.607-5.694-0.827-8.552
		c-0.419-5.444-0.603-10.893-0.744-16.35c-0.099-3.83-0.165-7.661-0.059-11.484c0.094-3.388,0.03-6.778,0.198-10.163
		c0.177-3.58,0.353-7.16,0.427-10.745C38.867,130.992,39.012,129.962,39.101,128.931z"/>
	<path style="fill:#BB2242;" d="M212.524,187.437c2.843-1.896,5.678-3.804,8.53-5.685c7.214-4.758,14.429-9.514,21.656-14.251
		c8.292-5.436,16.578-10.883,24.903-16.267c9.326-6.032,18.684-12.015,28.049-17.986c2.547-1.624,5.073-3.287,7.717-4.757
		c0.283,4.336,0.348,8.681,0.522,13.021c0.179,4.46,0.306,8.922,0.493,13.38c0.108,2.551,0.043,5.107,0.23,7.648
		c0.223,3.031,0.059,6.065,0.231,9.089c0.335,5.904,0.154,11.81,0.175,17.715c0.006,1.671-0.155,3.342-0.253,5.012
		c-0.014,0.233-0.106,0.461-0.167,0.708c-0.828,0.318-1.601-0.077-2.342-0.218c-3.744-0.712-7.505-1.303-11.269-1.886
		c-3.534-0.547-7.075-1.023-10.624-1.454c-2.764-0.336-5.526-0.676-8.299-0.932c-2.893-0.267-5.777-0.635-8.67-0.893
		c-2.539-0.226-5.087-0.354-7.631-0.535c-2.026-0.145-4.049-0.331-6.076-0.451c-2.308-0.137-4.62-0.199-6.928-0.335
		c-4.06-0.239-8.127-0.302-12.187-0.505c-3.391-0.169-6.786,0.01-10.167-0.232C217.785,187.436,215.152,187.587,212.524,187.437z"/>
	<path style="fill:#BB2242;" d="M205.272,25.447c2.954,0.009,5.909,0.035,8.863,0.025c6.551-0.022,13.103,0.012,19.651-0.129
		c2.87-0.062,5.745-0.078,8.611-0.225c3.542-0.182,7.087-0.283,10.628-0.469c3.021-0.159,6.037-0.407,9.055-0.623
		c2.463-0.176,4.927-0.337,7.386-0.555c1.9-0.169,3.794-0.412,5.689-0.629c1.541-0.177,3.082-0.354,4.621-0.549
		c1.971-0.249,3.949-0.457,5.906-0.789c2.89-0.49,5.78-0.982,8.648-1.6c2.588-0.558,5.153-1.204,7.789-1.934
		c-0.01,0.714-0.128,1.378-0.215,2.02c-0.392,2.885-0.4,5.796-0.63,8.691c-0.164,2.065-0.057,4.15-0.135,6.223
		c-0.162,4.307-0.194,8.617-0.118,12.924c0.102,5.704,0.112,11.41,0.264,17.112c0.084,3.149,0.041,6.303,0.226,9.445
		c0.165,2.791,0.15,5.58,0.217,8.37c0.008,0.354,0.064,0.706,0.098,1.059c-2.868-1.715-5.735-3.433-8.605-5.144
		c-6.94-4.138-13.883-8.272-20.824-12.409c-6.702-3.994-13.41-7.979-20.103-11.988c-6.523-3.907-13.033-7.836-19.545-11.761
		c-8.217-4.953-16.394-9.971-24.494-15.113C207.25,26.759,206.189,26.212,205.272,25.447z"/>
	<path style="fill:#232323;" d="M193.934,122.023c-3.175,0-6.157,0-9.269,0c0.11,2.616-0.224,5.193,0.277,7.731
		c0.607,0.336,1.268,0.13,1.839,0.486c0.2,0.48,0.064,0.807-0.513,0.883c-0.275,0.036-0.559,0.025-0.838,0.011
		c-1.397-0.07-2.793-0.054-4.19,0c-0.534,0.021-0.961-0.099-0.873-0.77c0.343-0.381,0.837-0.304,1.288-0.532
		c0.237-0.667,0.333-1.407,0.333-2.166c-0.001-3.955-0.002-7.91,0.002-11.864c0-0.442-0.013-0.878-0.187-1.269
		c-0.413-0.539-1.056-0.303-1.522-0.486c-0.3-0.245-0.244-0.508-0.182-0.749c0.103-0.074,0.162-0.151,0.226-0.157
		c0.436-0.037,0.877-0.107,1.31-0.076c1.158,0.083,2.312,0.06,3.469,0c0.455-0.024,0.99-0.136,1.225,0.468
		c-0.066,0.882-0.928,0.406-1.297,0.774c-0.424,0.93-0.536,3.307-0.267,5.945c3.005,0,6.018,0,9.15,0
		c-0.088-1.982,0.18-3.924-0.147-5.612c-0.553-0.81-1.545-0.126-1.856-0.981c0.061-0.471,0.37-0.61,0.764-0.602
		c1.596,0.032,3.189,0.089,4.787,0.014c0.67-0.032,0.708,0.094,0.643,0.893c-0.087,0.043-0.185,0.12-0.292,0.139
		c-1.095,0.19-1.161,0.222-1.163,1.253c-0.008,4.354,0.005,8.708,0.008,13.062c0,0.485,0.059,0.953,0.302,1.379
		c0.075,0.041,0.141,0.103,0.214,0.113c2.136,0.288,2.555,0.039,3.293-1.973c1.681-4.587,3.352-9.177,5.046-13.759
		c0.197-0.532,0.22-1.209,0.932-1.451c0.682,0.119,0.77,0.744,0.961,1.235c1.152,2.96,2.264,5.936,3.416,8.896
		c0.734,1.887,1.455,3.782,2.292,5.624c0.682,1.501,1.45,1.779,3.11,1.393c0.244-0.278,0.303-0.63,0.312-0.988
		c0.11-4.552,0.077-9.105,0.024-13.657c-0.003-0.235-0.043-0.47-0.046-0.503c-0.419-0.988-1.675-0.118-1.892-1.14
		c0.14-0.484,0.503-0.553,0.869-0.523c2.312,0.188,4.631-0.142,6.942,0.089c2.274,0.227,3.902,1.588,4.345,3.645
		c0.255,1.186-0.064,2.294-0.532,3.365c-0.453,1.038-1.197,1.875-2.006,2.729c1.525,1.992,3.012,4.013,4.772,5.808
		c0.958,0.977,1.595,1.213,2.74,1.205c0.294-0.301,0.356-0.693,0.366-1.093c0.115-4.592,0.103-9.184,0.015-13.776
		c-0.003-0.155-0.048-0.31-0.064-0.407c-0.325-0.474-0.765-0.489-1.21-0.512c-0.493-0.026-0.745-0.247-0.56-0.808
		c0.507-0.425,1.138-0.269,1.709-0.238c2.157,0.119,4.315,0.006,6.47,0.068c0.643,0.019,1.237-0.343,2.021-0.167
		c0.161,1.085-0.265,2.163-0.254,3.256c0.002,0.237-0.271,0.371-0.471,0.455c-0.798-0.202-0.535-0.911-0.79-1.534
		c-1.202-0.604-2.573-0.444-4.024-0.432c0,2.013,0,3.939,0,5.986c1.685-0.06,3.355,0.404,4.717-0.628
		c0.339,0.055,0.485,0.188,0.475,0.337c-0.077,1.216-0.106,2.44-0.366,3.622c-0.604,0.055-0.604,0.055-1.237-1.455
		c-1.127-0.286-2.308-0.311-3.632-0.269c-0.024,2.302-0.176,4.545,0.095,6.644c0.354,0.388,0.643,0.479,0.978,0.5
		c0.758,0.048,1.514,0.076,2.273,0.009c1.2-0.107,1.419-0.271,1.761-1.404c0.177-0.586,0.177-0.586,0.934-0.749
		c0.284,1.158,0.074,2.27-0.277,3.36c-0.098,0.304-0.403,0.488-0.765,0.484c-0.24-0.002-0.479,0.006-0.719,0.005
		c-3.075-0.007-6.151-0.038-9.226-0.014c-1.677,0.013-3.025-0.574-4.044-1.912c-1.352-1.775-2.71-3.546-4.1-5.364
		c-0.781-0.238-1.615-0.127-2.619-0.121c0.066,2.031-0.191,4.038,0.298,5.984c0.596,0.382,1.269,0.138,1.829,0.518
		c0.171,0.483,0.022,0.8-0.549,0.876c-0.118,0.016-0.239,0.009-0.359,0.009c-2.995-0.017-5.99-0.037-8.984-0.048
		c-0.411-0.002-0.798-0.033-1.063-0.349c-0.205-0.386,0.273-0.577,0.166-1.086c-0.61-1.611-1.284-3.391-1.977-5.22
		c-1.557,0-3.101,0-4.73,0c-0.594,1.769-1.342,3.502-1.691,5.245c0.43,0.568,1.222,0.162,1.367,0.886
		c-0.124,0.551-0.549,0.58-1.015,0.575c-2.155-0.023-4.31-0.044-6.465-0.05c-0.958-0.003-1.916,0.05-2.874,0.04
		c-0.684-0.007-0.684-0.035-0.804-0.829c0.31-0.364,0.833-0.208,1.304-0.55C194.147,127.283,193.788,124.695,193.934,122.023z
		 M219.243,121.957c0.702,0.44,1.48,0.34,2.214,0.348c1.326,0.015,2.058-0.56,2.458-1.83c0.119-0.377,0.197-0.771,0.249-1.163
		c0.44-3.342-1.865-5.462-4.92-4.533C219.243,117.164,219.243,119.548,219.243,121.957z M206.105,117.485
		c-0.625,1.928-1.151,3.549-1.692,5.215c1.239,0,2.343,0,3.533,0C207.348,121.005,206.773,119.376,206.105,117.485z"/>
	<path style="fill:#242424;" d="M143.137,131.26c-0.623,0.009-0.934-0.437-1.295-0.79c-3.886-3.798-7.569-7.788-11.227-11.802
		c-0.231-0.253-0.383-0.62-0.918-0.673c0.357,3.933,0.078,7.871,0.518,11.613c0.718,0.523,1.409,0.25,1.901,0.638
		c0.15,0.29,0.101,0.542-0.202,0.826c-2.915,0-5.9,0.002-8.885-0.003c-0.25,0-0.453-0.131-0.677-0.385
		c0.432-0.756,0.075-1.449-0.225-2.182c-0.554-1.352-1.04-2.732-1.553-4.094c-1.608,0-3.117,0-4.703,0
		c-0.594,1.765-1.332,3.471-1.674,5.236c0.299,0.545,0.869,0.314,1.244,0.656c0.217,0.531-0.085,0.842-0.596,0.818
		c-1.519-0.072-3.035,0.038-4.551,0.013c-0.352-0.006-0.599-0.19-0.698-0.537c0.052-0.494,0.446-0.557,0.792-0.563
		c1.123-0.019,1.597-0.759,1.932-1.664c0.689-1.864,1.368-3.731,2.053-5.597c1.095-2.983,2.194-5.964,3.286-8.948
		c0.163-0.445,0.253-0.933,0.782-1.101c0.692,0.074,0.772,0.666,0.948,1.119c1.31,3.368,2.592,6.747,3.891,10.119
		c0.457,1.187,0.921,2.371,1.406,3.546c0.212,0.514,0.456,1.018,0.734,1.499c0.473,0.816,1.153,1.187,2.138,0.849
		c0.404-0.552,0.29-1.21,0.294-1.83c0.016-2.956-0.003-5.913,0.011-8.87c0.009-1.755,0.051-3.51,0.09-5.265
		c0.009-0.428-0.058-0.904,0.485-1.148c0.472-0.006,0.742,0.337,1.041,0.661c3.976,4.314,7.958,8.623,11.942,12.93
		c0.047,0.051,0.138,0.063,0.273,0.12c0-1.408,0.026-2.789-0.006-4.168c-0.049-2.153-0.137-4.304-0.209-6.457
		c-0.05-1.467-0.051-1.467-1.499-1.708c-0.482-0.08-0.482-0.08-0.596-0.764c0.221-0.295,0.545-0.31,0.866-0.3
		c1.356,0.044,2.712,0.096,4.069,0.003c0.401-0.027,0.817-0.011,0.985,0.474c-0.108,0.946-1.18,0.309-1.492,0.919
		c-0.251,0.44-0.163,0.929-0.166,1.401c-0.023,4.634-0.036,9.268-0.057,13.901C143.586,130.298,143.696,130.885,143.137,131.26z
		 M116.417,122.754c1.288-0.052,2.376,0.069,3.55-0.101c-0.673-1.685-1.104-3.352-1.877-5.026
		C117.518,119.382,116.992,120.996,116.417,122.754z"/>
	<path style="fill:#232323;" d="M207.013,84.507c-0.47,1.374-0.122,2.537-0.589,3.638c-0.352-0.122-0.372-0.388-0.39-0.649
		c-0.052-0.757-0.468-1.1-1.208-1.235c-1.229-0.224-2.454-0.167-3.763-0.148c0,2.052,0,4.065,0,6.219
		c1.775-0.148,3.603,0.469,5.455-0.635c-0.149,1.341-0.319,2.595-0.297,3.822c-0.369,0.042-0.423-0.074-0.441-0.184
		c-0.246-1.478-0.273-1.501-1.8-1.676c-0.954-0.11-1.906-0.081-2.984-0.01c0,2.053-0.026,4.08,0.014,6.105
		c0.014,0.709,0.462,1.16,1.191,1.286c0.991,0.172,1.983,0.147,2.976,0.032c0.952-0.11,1.496-0.674,1.731-1.573
		c0.058-0.223-0.006-0.49,0.237-0.645c0.408,0.671,0.296,2.179-0.316,3.559c-5.313-0.165-10.691,0.124-16.353-0.245
		c0.723-0.624,0.613-1.201,0.523-1.817c-0.386-2.643-0.725-5.292-1.086-7.938c-0.075-0.552-0.172-1.101-0.296-1.883
		c-1.973,4.078-3.859,7.974-5.781,11.947c-0.687-0.423-0.856-1.017-1.125-1.521c-1.615-3.018-3.057-6.121-4.518-9.214
		c-0.1-0.211-0.211-0.418-0.419-0.616c-0.529,3.439-1.141,6.847-1.339,10.103c0.584,0.88,1.411,0.467,2.009,0.829
		c-0.71,0.386-4.61,0.44-5.663,0.11c-0.016-0.222,0.154-0.255,0.306-0.276c1.174-0.162,1.307-0.227,1.512-1.431
		c0.422-2.473,0.79-4.955,1.17-7.435c0.41-2.677,0.809-5.356,1.212-8.034c0.037-0.246,0.137-0.455,0.346-0.611
		c0.597-0.019,0.664,0.508,0.841,0.867c1.158,2.354,2.288,4.723,3.433,7.084c0.884,1.823,1.777,3.642,2.757,5.65
		c2.334-4.587,4.342-9.182,6.578-13.592c0.563-0.039,0.639,0.254,0.689,0.597c0.31,2.089,0.635,4.175,0.94,6.265
		c0.42,2.877,0.805,5.76,1.25,8.634c0.255,1.65,1.826,2.521,3.383,1.94c0.423-0.158,0.607-0.494,0.639-0.925
		c0.074-0.993,0.2-1.986,0.208-2.979c0.026-3.276,0.014-6.552,0.006-9.827c-0.001-0.517-0.026-1.038-0.091-1.551
		c-0.106-0.845-0.368-1.068-1.208-1.212c-0.31-0.053-0.646,0.062-0.931-0.14c-0.029-0.02-0.045-0.058-0.117-0.153
		c0.213-0.296,0.544-0.19,0.819-0.19c2.318,0,4.635,0.022,6.953,0.014C204.58,84.855,205.69,84.989,207.013,84.507z"/>
	<path style="fill:#1F1F1F;" d="M156.583,101.923c-0.036,0.335-0.156,0.417-0.257,0.418c-3.073,0.016-6.147,0.023-9.22,0.027
		c-0.16,0-0.311-0.048-0.37-0.237c0.023-0.349,0.306-0.282,0.523-0.312c1.541-0.212,1.783-0.47,1.897-2.037
		c0.043-0.596,0.123-1.191,0.127-1.787c0.015-2.426,0.006-4.853,0.006-7.354c-4.032,0-8.007,0-12,0
		c-0.231,0.26-0.116,0.594-0.117,0.899c-0.003,2.356,0.019,4.713,0.012,7.069c-0.002,0.684,0.106,1.351,0.238,2.014
		c0.12,0.602,0.477,0.948,1.131,1.046c0.657,0.099,1.343,0.055,1.967,0.3c0.002,0.393-0.257,0.402-0.494,0.404
		c-0.639,0.006-1.278-0.008-1.917-0.007c-2.156,0.004-4.311,0.018-6.467,0.011c-0.329-0.001-0.719,0.142-0.997-0.255
		c0.188-0.46,0.608-0.267,0.915-0.322c1.095-0.196,1.36-0.426,1.499-1.52c0.1-0.789,0.18-1.587,0.191-2.382
		c0.075-5.231,0.11-10.463-0.012-15.692c-0.04-1.721,0.056-2.562-2.475-2.617c-0.195-0.004-0.41,0.047-0.56-0.213
		c0.037-0.432,0.417-0.331,0.699-0.331c1.917,0.005,3.833,0.031,5.75,0.037c0.798,0.003,1.596-0.031,2.394-0.041
		c0.266-0.004,0.548-0.036,0.741,0.203c-0.125,0.505-0.516,0.323-0.793,0.351c-1.314,0.137-1.757,0.494-1.784,1.766
		c-0.05,2.432-0.015,4.867-0.015,7.29c0.838,0.262,10.05,0.353,11.959,0.125c0.049-0.091,0.152-0.194,0.151-0.296
		c-0.018-2.393,0.147-4.788-0.106-7.177c-0.126-1.192-0.527-1.565-1.745-1.695c-0.402-0.043-0.856,0.113-1.347-0.324
		c1.146-0.453,2.197-0.179,3.221-0.195c1.118-0.017,2.238-0.03,3.355,0.003c1.049,0.031,2.117-0.253,3.182,0.113
		c-0.175,0.566-0.611,0.356-0.921,0.395c-1.216,0.151-1.585,0.516-1.686,1.743c-0.013,0.159-0.019,0.319-0.019,0.479
		c0.006,5.711,0.015,11.423,0.015,17.134c0,0.565,0.107,1.11,0.215,1.658c0.125,0.628,0.498,0.966,1.134,1.041
		C155.264,101.736,155.924,101.834,156.583,101.923z"/>
	<path style="fill:#202020;" d="M93.665,106.172c-0.202-0.326-0.2-0.551-0.078-0.813c0.523-0.46,1.193-0.347,1.805-0.294
		c1.831,0.158,3.651,0.171,5.485,0.004c1.27-0.116,2.544,0.043,3.783,0.386c3.727,1.032,5.281,4.48,3.594,7.975
		c-0.506,1.049-1.259,1.923-2.066,2.819c0.318,0.418,0.818,0.49,1.206,0.722c1.805,1.078,3.223,2.491,3.852,4.537
		c1.046,3.401-0.556,7.029-3.779,8.667c-1.335,0.678-2.755,1.041-4.254,1.028c-2.752-0.023-5.503-0.145-8.257-0.077
		c-0.919,0.023-0.997-0.126-0.792-1.05c0.473-0.308,1.117-0.01,1.684-0.497c0.444-0.61,0.377-1.48,0.458-2.293
		c0.094-0.95,0.078-1.913,0.078-2.87c0-5.31-0.008-10.62-0.018-15.929c-0.001-0.278-0.034-0.557-0.07-0.833
		c-0.093-0.712-0.437-1.171-1.209-1.245C94.616,106.362,94.151,106.255,93.665,106.172z M99.839,117.708
		c-0.034,0.246-0.063,0.359-0.063,0.472c-0.003,1.914-0.047,3.829,0.014,5.741c0.039,1.231,0.002,2.463,0.126,3.698
		c0.089,0.892,0.577,1.3,1.29,1.505c0.917,0.264,1.874,0.417,2.834,0.294c2.591-0.332,3.856-2.042,3.875-4.202
		c0.007-0.845-0.07-1.675-0.292-2.479c-0.779-2.824-3.053-5.2-6.391-5.032C100.797,117.727,100.36,117.708,99.839,117.708z
		 M99.841,106.948c0,3.053,0,5.984,0,8.981c0.924,0.142,1.799,0.051,2.663,0.107c1.315,0.085,2.105-0.604,2.599-1.704
		c0.764-1.7,0.601-3.42-0.067-5.1c-0.655-1.646-1.967-2.502-3.713-2.478C100.851,106.763,100.38,106.875,99.841,106.948z"/>
	<path style="fill:#124F8C;" d="M167.543,62.83c-2.33-1.8-4.652-3.595-7.091-5.48c2.812-0.199,5.46-0.387,8.206-0.582
		c0.957-2.42,1.918-4.849,2.961-7.483c0.887,2.4,1.715,4.641,2.565,6.939c2.664,0.448,5.324,0.895,8.215,1.38
		c-2.147,1.789-4.173,3.477-6.269,5.223c0.732,2.372,1.459,4.73,2.267,7.351c-2.181-1.631-4.121-3.081-6.143-4.593
		c-2.778,2.083-5.544,4.158-8.311,6.234c-0.053-0.022-0.106-0.044-0.159-0.067C165.025,68.804,166.267,65.855,167.543,62.83z"/>
	<path style="fill:#222222;" d="M164.727,130.235c-0.158-1.837-0.074-3.646,0.179-5.337c0.378-0.305,0.637-0.307,0.943-0.151
		c0.039,0.078,0.121,0.176,0.138,0.284c0.06,0.394,0.097,0.791,0.147,1.186c0.193,1.541,1.054,2.536,2.501,3.049
		c1.198,0.425,2.411,0.506,3.641,0.149c2.408-0.699,3.594-3.525,2.484-5.937c-0.424-0.922-1.078-1.68-1.829-2.341
		c-1.377-1.213-2.794-2.381-4.177-3.587c-0.784-0.684-1.476-1.46-2.057-2.327c-1.117-1.668-1.515-3.517-1.15-5.472
		c0.509-2.726,2.717-4.613,5.546-5.018c2.224-0.318,4.356,0.099,6.537,0.535c0,1.488,0.033,2.956-0.016,4.421
		c-0.02,0.599-0.212,0.664-1.021,0.594c-0.192-0.409-0.281-0.869-0.353-1.338c-0.13-0.855-0.613-1.46-1.385-1.826
		c-1.391-0.659-2.839-0.799-4.293-0.282c-2.032,0.722-2.817,3.104-1.71,5.053c0.482,0.849,1.193,1.501,1.912,2.128
		c1.202,1.049,2.459,2.034,3.68,3.062c1.105,0.93,2.071,1.982,2.837,3.218c1.873,3.023,1.452,8.819-3.661,10.72
		c-1.794,0.667-3.658,0.764-5.54,0.467C166.936,131.304,165.808,131.064,164.727,130.235z"/>
	<path style="fill:#222222;" d="M164.411,84.527c1.961-0.034,3.94,0.384,5.67,1.565c2.749,1.876,3.625,4.648,3.443,7.815
		c-0.114,1.983-0.73,3.831-2.013,5.394c-2.055,2.503-4.783,3.445-7.942,3.372c-1.618-0.037-3.182-0.323-4.582-1.152
		c-3.25-1.924-4.592-4.911-4.382-8.562c0.285-4.965,3.902-8.289,8.967-8.431C163.812,84.521,164.052,84.527,164.411,84.527z
		 M170.257,93.97c0.066-0.714-0.044-1.626-0.265-2.519c-0.504-2.035-1.434-3.803-3.298-4.921c-3.039-1.823-7.523-1.079-8.609,3.53
		c-0.493,2.091-0.441,4.2,0.218,6.253c0.629,1.96,1.722,3.609,3.647,4.516c3.043,1.433,6.755,0.667,7.864-3.352
		C170.114,96.389,170.271,95.301,170.257,93.97z"/>
	<path style="fill:#232323;" d="M162.356,113.62c-0.126,1.458-0.24,2.882-0.264,4.31c-0.007,0.442-0.364,0.572-0.778,0.484
		c-0.364-0.292-0.344-0.695-0.367-1.093c-0.061-1.059-0.604-1.805-1.563-2.215c-2.429-1.039-4.886-1.065-7.316-0.034
		c-1.271,0.54-2.167,1.567-2.604,2.837c-0.963,2.798-0.935,5.576,0.722,8.152c1.937,3.011,5.425,4.172,8.914,3.326
		c1.001-0.243,1.659-0.921,1.972-1.909c0.12-0.378,0.136-0.79,0.393-1.116c0.277-0.158,0.537-0.111,0.858,0.122
		c0.131,1.238-0.248,2.466-0.534,3.696c-0.09,0.387-0.446,0.646-0.873,0.74c-0.504,0.111-1,0.305-1.509,0.349
		c-2.876,0.248-5.731,0.336-8.43-1.007c-3.974-1.977-5.357-5.97-4.845-9.687c0.344-2.499,1.484-4.608,3.562-6.13
		c1.531-1.122,3.315-1.515,5.153-1.713C156.479,112.556,160.394,113.019,162.356,113.62z"/>
	<path style="fill:#242424;" d="M251.882,113.206c-0.279,1.283,0.348,2.607-0.468,3.746c-0.675-0.101-0.736-0.535-0.779-0.918
		c-0.12-1.071-0.853-1.477-1.769-1.654c-0.424-0.082-0.878-0.082-1.31-0.04c-1.812,0.177-2.697,2.014-1.699,3.542
		c0.688,1.053,1.719,1.766,2.68,2.541c0.934,0.753,1.869,1.501,2.588,2.477c1.296,1.759,1.543,3.669,0.608,5.632
		c-0.933,1.957-2.634,2.801-4.748,2.862c-0.955,0.027-1.918,0.07-2.848-0.25c-0.489-0.168-0.995-0.297-1.339-0.711
		c-0.307-1.768-0.156-3.231,0.426-4.028c0.1,0.015,0.223,0.011,0.323,0.055c0.104,0.046,0.186,0.14,0.266,0.203
		c0.026,0.097,0.061,0.172,0.066,0.249c0.154,2.355,2.246,3.619,4.41,2.662c1.234-0.546,1.863-1.95,1.474-3.298
		c-0.181-0.625-0.524-1.151-0.972-1.623c-0.828-0.873-1.79-1.59-2.708-2.356c-0.71-0.592-1.365-1.231-1.889-1.993
		c-1.1-1.6-1.36-3.336-0.522-5.095c0.822-1.725,2.409-2.346,4.216-2.483C249.178,112.628,250.428,112.915,251.882,113.206z"/>
</g>
</svg>
