<?xml version="1.0" encoding="iso-8859-1"?>
<!-- Generator: Adobe Illustrator 27.0.0, SVG Export Plug-In . SVG Version: 6.00 Build 0)  -->
<svg version="1.1" id="Layer_1" xmlns="http://www.w3.org/2000/svg" xmlns:xlink="http://www.w3.org/1999/xlink" x="0px" y="0px"
	 viewBox="0 0 1578.867 326" style="enable-background:new 0 0 1578.867 326;" xml:space="preserve">
<g>
	<path style="fill:#51863D;" d="M1453.867,326c-2.333-1.807-5.249-1.492-7.895-2.059c-10.665-2.284-20.703-6.016-29.806-12.109
		c-12.831-8.589-21.866-20.32-28.063-34.293c-6.338-14.289-9.261-29.409-10.254-44.938c-1.235-19.302-0.881-38.639-0.645-57.946
		c0.2-16.342,3.011-32.388,9.441-47.63c9.812-23.263,26.623-38.891,50.51-47.073c10.473-3.587,21.211-5.478,32.219-5.998
		c18.657-0.882,37.199,0.194,55.716,2.729c12.359,1.692,24.628,3.752,36.829,6.295c5.368,1.118,10.677,2.447,15.916,4.06
		c-0.001,78.64-0.003,157.28-0.004,235.919c-15.641,0.062-31.281,0.153-46.922,0.17c-6.018,0.007-9.02-3.099-9.107-9.284
		c-0.058-4.125-0.011-8.252-0.011-12.36c-1.219-0.104-1.655,0.692-2.222,1.256c-11.009,10.948-24.229,17.814-39.227,21.544
		c-1.817,0.452-3.988,0.112-5.475,1.715C1467.867,326,1460.867,326,1453.867,326z M1521.659,125.346
		c-2.236-0.824-4.2-1.079-6.164-1.431c-6.601-1.186-13.295-0.716-19.917-1.325c-8.833-0.812-17.656-0.639-26.419,0.441
		c-5.087,0.627-10.035,2.119-14.591,4.733c-8.263,4.741-13.012,12.107-16.008,20.85c-3.272,9.547-4.201,19.484-4.49,29.459
		c-0.29,9.988-0.103,19.99-0.128,29.987c-0.02,8.324-0.052,16.643,0.901,24.939c0.801,6.971,2.168,13.776,4.805,20.304
		c5.143,12.732,14.388,20.335,27.932,22.935c7.473,1.435,14.953,1.053,22.403,0.597c12.402-0.759,23.065-5.637,31.676-14.642
		C1521.659,216.59,1521.659,171.127,1521.659,125.346z"/>
	<path style="fill:#51863D;" d="M962.867,326c-1.738-1.92-4.286-1.433-6.401-1.852c-31.578-6.26-51.36-25.535-61.608-55.421
		c-4.954-14.448-7.022-29.388-7.149-44.609c-0.122-14.658,0.073-29.321-0.187-43.976c-0.273-15.424,1.633-30.5,6.349-45.18
		c7.253-22.574,20.926-39.91,42.4-50.467c10.634-5.228,21.945-8.49,33.818-9.685c7.785-0.783,15.566-1.808,23.392-1.42
		c14.278,0.707,28.536,1.444,42.75,3.372c15.331,2.08,30.459,4.981,45.466,8.62c1.711,0.415,3.669,0.483,5.222,2.121
		c0,78.21,0,156.616,0,234.951c-1.222,1.15-2.623,0.685-3.892,0.688c-14.326,0.036-28.652,0.039-42.978,0.015
		c-6.368-0.011-9.307-2.983-9.399-9.482c-0.056-3.996-0.01-7.993-0.01-11.969c-1.047-0.352-1.53,0.355-2.098,0.923
		c-11.886,11.871-26.284,18.969-42.607,22.399c-0.779,0.164-1.696-0.031-2.067,0.974C976.867,326,969.867,326,962.867,326z
		 M1031.643,262.461c0-45.821,0-91.564,0-137.336c-1.655-0.382-3.087-0.89-4.554-1.024c-14.907-1.361-29.789-2.563-44.81-1.306
		c-16.814,1.407-27.654,10.119-33.364,25.661c-3.539,9.634-4.537,19.741-4.734,29.886c-0.255,13.149-0.182,26.307-0.048,39.459
		c0.075,7.314,0.501,14.638,1.785,21.858c1.495,8.399,3.903,16.505,9.026,23.507c5.006,6.842,11.692,11.086,20.014,12.976
		c7.771,1.765,15.583,1.059,23.369,0.794C1011.295,276.494,1022.514,271.727,1031.643,262.461z"/>
	<path style="fill:#9CB288;" d="M1578.867,323c-0.345-0.014-0.69-0.028-1.035-0.042c0.001-78.64,0.003-157.28,0.004-235.919
		c0.344-0.013,0.688-0.025,1.031-0.038C1578.867,165.667,1578.867,244.333,1578.867,323z"/>
	<path style="fill:#C9D3BD;" d="M239.867,0c-0.035,0.383-0.07,0.766-0.106,1.149c-3.162-0.05-6.325-0.13-9.487-0.146
		c-14.155-0.068-28.31-0.118-42.465-0.174c0.031-0.276,0.05-0.552,0.058-0.83C205.2,0,222.534,0,239.867,0z"/>
	<path style="fill:#51863E;" d="M535.316,322.964c0-77.98,0-155.424,0-233.112c5.204-2.7,10.802-4.151,16.312-5.854
		c16.588-5.128,33.631-8.22,50.852-9.593c22.612-1.803,45.213-1.601,67.217,5.424c8.801,2.809,16.878,6.911,24.35,12.318
		c4.644-2.374,9.105-4.894,13.758-6.988c13.888-6.251,28.359-10.315,43.637-11.317c17.805-1.168,35.176,0.584,51.897,7.182
		c21.587,8.518,34.795,24.306,40.495,46.611c2.448,9.579,3.114,19.353,3.113,29.198c-0.001,54.324,0.006,108.649-0.012,162.973
		c0,0.956,0.326,1.998-0.471,3.002c-1.112,0.731-2.478,0.333-3.753,0.336c-13.998,0.036-28-0.196-41.991,0.116
		c-6.716,0.15-9.672-3.32-10.462-9.431c-0.191-1.477-0.07-2.995-0.07-4.495c-0.002-46.826,0.011-93.651-0.015-140.477
		c-0.004-7.99-0.101-15.973-2.214-23.79c-2.938-10.869-9.579-20.729-27.133-22.347c-14.125-1.302-27.057,1.617-38.954,9.27
		c-0.551,0.355-1.046,0.797-1.794,1.374c0,1.719,0,3.537,0,5.355c0,56.991,0.001,113.981-0.004,170.972
		c0,1.832,0.051,3.674-0.106,5.495c-0.454,5.262-3.069,7.889-8.335,7.931c-13.164,0.105-26.329,0.099-39.493,0.007
		c-4.74-0.033-7.746-2.864-8.336-7.565c-0.248-1.973-0.193-3.991-0.194-5.988c-0.01-42.993-0.012-85.986-0.007-128.979
		c0.001-10.326-0.137-20.642-1.704-30.88c-0.736-4.809-2.252-9.354-4.72-13.553c-4.194-7.134-10.947-10.497-18.648-12.164
		c-10.358-2.241-20.822-2.294-31.265-0.595c-5.039,0.82-10.15,1.389-15.337,3.138c0,1.866,0,3.672,0,5.479
		c0.001,58.49,0.001,116.98,0.002,175.47c0,1.833,0.019,3.666-0.009,5.499c-0.119,7.648-2.601,10.153-10.245,10.171
		c-14.164,0.033-28.329,0.014-42.493,0.002C538.038,323.157,536.889,323.046,535.316,322.964z"/>
	<path style="fill:#50863D;" d="M187.809,0.83c14.155,0.056,28.31,0.106,42.465,0.174c3.163,0.015,6.325,0.095,9.487,0.146
		c0.025,12.164,0.071,24.329,0.072,36.493c0.006,92.822,0.002,185.644,0.002,278.467c0,1.8,0,3.601,0,5.184
		c-1.527,1.116-2.902,0.679-4.175,0.682c-14.831,0.037-29.663,0.034-44.495,0.019c-7.506-0.008-10.618-3.056-10.624-10.558
		c-0.026-34.163-0.012-68.325-0.011-102.488c0-4.173-0.256-8.316-1.552-12.32c-3.336-10.306-12.198-17.1-23.022-17.635
		c-2.162-0.107-4.331-0.119-6.496-0.12c-28.163-0.007-56.327-0.005-84.49-0.005c-1.813,0-3.625,0-5.39,0
		c-1.136,1.934-0.617,3.806-0.619,5.572c-0.037,41.495-0.028,82.99-0.029,124.485c0,1.5,0.059,3.003-0.027,4.499
		c-0.262,4.532-3.744,8.462-8.196,8.5C33.905,322.069,17.1,321.983,0,321.983C0,214.975,0,108.251,0,1.437
		c0.836-1.006,2.088-0.578,3.189-0.58c15.165-0.029,30.33-0.044,45.494-0.01c7.662,0.017,11.537,3.975,11.541,11.744
		c0.015,30.496,0.006,60.993,0.008,91.489c0,6.265,0.892,12.234,4.965,17.383c4.186,5.292,9.645,8.006,16.259,8.55
		c1.988,0.164,3.996,0.113,5.995,0.113c28.997,0.006,57.993,0.004,86.99,0.004c1.82,0,3.641,0,5.351,0
		c1.263-1.941,0.706-3.825,0.708-5.593c0.039-36.829,0.029-73.658,0.03-110.487c0-1.167-0.013-2.333,0.004-3.5
		C180.623,4.589,181.856,2.946,187.809,0.83z"/>
	<path style="fill:#51863E;" d="M1336.867,321.999c-16.32,0-31.973,0.05-47.625-0.028c-5.169-0.026-8.462-3.283-9.122-8.705
		c-0.18-1.48-0.083-2.996-0.083-4.495c-0.004-45.83,0.001-91.659-0.008-137.489c-0.002-8.327-0.254-16.611-2.041-24.821
		c-3.051-14.015-11.86-21.923-25.639-24.447c-9.554-1.75-19.213-1.421-28.863-0.502c-9.779,0.931-19.424,2.628-29.108,4.72
		c-1.037,1.641-0.509,3.524-0.51,5.295c-0.033,59.329-0.043,118.657,0.009,177.986c0.003,3.638-0.399,6.928-3.22,9.574
		c-1.776,1.665-3.773,2.854-6.187,2.862c-15.636,0.056-31.272,0.029-47.183,0.029c0-77.893,0-155.474,0-233.33
		c4.869-2.461,10.337-3.269,15.596-4.446c16.218-3.629,32.552-6.56,49.104-8.464c11.944-1.374,23.907-2.179,35.861-2.217
		c18.678-0.06,37.16,1.672,54.643,9.342c18.291,8.025,30.446,21.595,37.289,40.101c3.652,9.874,5.4,20.163,6.279,30.666
		c0.822,9.821,0.801,19.637,0.804,29.464c0.011,44.33,0.005,88.66,0.005,132.989
		C1336.867,317.883,1336.867,319.685,1336.867,321.999z"/>
	<path style="fill:#51863D;" d="M431.509,271.665c0-2.247,0-4.069,0-5.89c0-58.326,0.107-116.653-0.103-174.978
		c-0.036-9.967,3.562-13.258,12.954-13.046c14.309,0.323,28.63,0.085,43.296,0.085c0,77.274,0,154.34,0,231.814
		c-3.224,1.745-7.209,2.305-10.99,3.21c-15.516,3.711-31.162,6.911-46.998,8.851c-17.355,2.126-34.809,3.655-52.31,2.853
		c-12.784-0.586-25.459-2.227-37.728-6.376c-24.529-8.295-39.707-25.232-46.663-49.852c-2.538-8.984-3.791-18.192-4.243-27.538
		c-0.556-11.491-0.499-22.983-0.501-34.477c-0.005-40.828-0.007-81.657,0.018-122.485c0.001-1.799-0.36-3.644,0.302-5.374
		c1.214-1.033,2.602-0.602,3.875-0.605c13.832-0.033,27.663-0.033,41.495-0.016c8.134,0.01,11.045,2.895,11.05,11.161
		c0.025,46.328,0.015,92.655,0.011,138.983c-0.001,8.837,0.413,17.623,2.793,26.208c3.177,11.463,10.511,18.563,22.113,21.274
		c4.056,0.948,8.119,1.547,12.31,1.709c15.413,0.597,30.551-1.394,45.599-4.407C428.923,272.541,430.015,272.114,431.509,271.665z"
		/>
</g>
</svg>
