<?xml version="1.0" encoding="iso-8859-1"?>
<!-- Generator: Adobe Illustrator 27.0.0, SVG Export Plug-In . SVG Version: 6.00 Build 0)  -->
<svg version="1.1" id="Layer_1" xmlns="http://www.w3.org/2000/svg" xmlns:xlink="http://www.w3.org/1999/xlink" x="0px" y="0px"
	 viewBox="0 0 314 84.6" style="enable-background:new 0 0 314 84.6;" xml:space="preserve">
<g>
	<path style="fill:#127240;" d="M0,49.8c5.75,0.335,11.501,0.349,17.304,0.041c0.2,0.718,0.062,1.441,0.082,2.147
		c-0.304,0.255-0.651,0.171-0.973,0.197c-1.95,0.152-2.908,1.073-3.006,3.037c-0.079,1.596-0.058,3.197-0.071,4.796
		c-0.009,1.197-0.002,2.395-0.002,3.714c3.622,0.069,7.194,0.015,10.708,0.034c0.226-0.285,0.153-0.527,0.153-0.751
		c-0.006-2.266-0.008-4.531-0.041-6.797c-0.009-0.596-0.07-1.2-0.189-1.783c-0.271-1.325-1.217-2.077-2.703-2.24
		c-0.389-0.043-0.803,0.069-1.203-0.189c-0.011-0.142-0.032-0.303-0.033-0.464c-0.004-0.529-0.002-1.058-0.002-1.643
		c1.174-0.136,2.287,0.076,3.401,0.091c3.865,0.051,7.73,0.054,11.593-0.048c0.659-0.017,1.328-0.031,1.989-0.105
		c0.168-0.019,0.333-0.017,0.441,0.147c-0.132,0.713,0.074,1.447-0.127,2.156c-0.432,0.019-0.866,0.017-1.296,0.061
		c-1.78,0.181-2.68,1.098-2.835,2.885c-0.038,0.431-0.053,0.864-0.053,1.297c-0.003,5.996-0.004,11.991,0,17.987
		c0.001,0.73,0.02,1.455,0.203,2.177c0.309,1.218,1.113,1.844,2.294,2.05c0.554,0.097,1.119,0.136,1.722,0.206
		c0.16,0.673,0.067,1.362,0.053,2.158c-5.763-0.229-11.501-0.279-17.239,0.001c-0.26-0.348-0.116-0.726-0.142-1.078
		c-0.024-0.328-0.005-0.659-0.005-0.994c0.464-0.237,0.932-0.216,1.384-0.274c1.541-0.196,2.382-1.025,2.607-2.553
		c0.156-1.057,0.185-2.12,0.185-3.185c0-1.765,0-3.531,0-5.296c0-0.326,0-0.652,0-1.012c-3.641,0-7.189,0-10.748,0
		c-0.043,0.116-0.104,0.204-0.104,0.292c0.008,2.83,0.021,5.661,0.036,8.491c0.002,0.367,0.071,0.723,0.165,1.08
		c0.348,1.319,1.057,1.974,2.405,2.167c0.459,0.066,0.931,0.045,1.404,0.232c0.083,0.669,0.044,1.356,0.026,2.107
		C11.548,80.714,5.773,80.693,0,81c0-0.733,0-1.467,0-2.2c0.594-0.063,1.191-0.11,1.783-0.191c1.369-0.189,2.159-0.933,2.413-2.275
		c0.123-0.653,0.209-1.309,0.208-1.979c-0.008-5.957-0.008-11.915,0-17.872c0.001-0.704-0.075-1.397-0.222-2.077
		c-0.227-1.053-0.823-1.788-1.924-2.054C1.51,52.17,0.764,52.078,0,52.2C0,51.4,0,50.6,0,49.8z"/>
	<path style="fill:#147340;" d="M157.6,0c2.37,1.54,2.618,4.372,1.777,6.107c-0.537,1.109-1.344,1.736-2.66,1.712
		c-3.498-0.063-6.963-0.382-10.376-1.17c-0.55-0.127-1.046-0.096-1.532,0.198c-0.312,0.189-0.638,0.354-0.962,0.522
		c-1.594,0.827-3.352,0.551-4.651-0.725c-0.89-0.874-0.927-0.815-2.07-0.344c-2.362,0.972-4.755,1.865-7.362,1.939
		c-2.22,0.064-3.998-1.718-3.889-3.948c0.024-0.496,0.064-1.002,0.186-1.481c0.308-1.208,1.517-2.137,2.786-2.213
		c1.081-0.065,2.115,0.153,3.124,0.512c1.843,0.655,3.685,1.316,5.521,1.99c0.47,0.172,0.923,0.347,1.441,0.337
		c0.446-0.009,0.84,0.145,1.105,0.557c0.218,0.339,0.562,0.421,0.956,0.411c0.599-0.014,1.198,0.013,1.797,0.018
		c0.898,0.009,1.773-0.001,2.602-0.49c0.472-0.279,1.06-0.374,1.606-0.514c2.607-0.669,5.162-1.496,7.645-2.531
		C155.422,0.565,156.284,0.475,157,0C157.2,0,157.4,0,157.6,0z M128.186,3.085c-0.38,0.006-0.474,0.228-0.578,0.43
		c-0.411,0.796-0.088,2.473,0.608,3.24c0.389,0.429,0.822,0.627,1.433,0.348C129.439,5.63,128.412,4.492,128.186,3.085z
		 M156.256,6.19c1.175-0.276,0.986-1.375,1.42-1.971c0.171-0.328,0.549-0.146,0.7-0.422c0.007-0.248,0.097-0.51-0.073-0.788
		c-0.35,0-0.708-0.003-1.065,0.001c-0.247,0.003-0.517,0.088-0.58,0.313C156.406,4.222,155.923,5.097,156.256,6.19z M139.109,5.006
		c-0.185,0.837-0.185,0.837,0.629,1.111C140.045,5.395,139.908,5.152,139.109,5.006z"/>
	<path style="fill:#2F7948;" d="M314,58c-0.26,0.014-0.17,0.222-0.2,0.362c-0.443,2.061-2.018,3.322-4.034,3.228
		c-1.911-0.089-3.442-1.549-3.702-3.531c-0.24-1.828,1.143-3.685,3.101-4.161c1.785-0.434,3.731,0.625,4.434,2.374
		c0.15,0.373,0.033,0.84,0.403,1.129C314,57.6,314,57.8,314,58z M306.78,57.676c-0.008,1.817,1.417,3.287,3.181,3.281
		c1.745-0.007,3.253-1.526,3.235-3.26c-0.018-1.809-1.436-3.189-3.266-3.179C308.138,54.526,306.788,55.88,306.78,57.676z"/>
	<path style="fill:#C5D1C3;" d="M159.81,84.434c-0.007,0.055-0.01,0.11-0.01,0.166c-0.8,0-1.6,0-2.4,0
		c0.001-0.056-0.002-0.112-0.01-0.168C158.197,84.432,159.004,84.433,159.81,84.434z"/>
	<path style="fill:#10723F;" d="M295.408,59.253c-3.206,7.167-6.412,14.334-9.634,21.536c-0.932,0-1.853,0-2.809,0
		c-3.172-7.347-6.563-14.585-9.94-21.877c-0.016,0.234-0.047,0.468-0.047,0.703c-0.003,4.6,0,9.199-0.004,13.799
		c-0.001,0.702,0.061,1.393,0.22,2.079c0.4,1.736,1.48,2.78,3.234,3.1c0.293,0.053,0.601,0.028,0.939,0.211
		c0.147,0.644,0.048,1.334,0.054,1.989c-0.164,0.251-0.383,0.152-0.566,0.137c-3.26-0.256-6.526-0.206-9.784-0.062
		c-1.502,0.066-2.988,0.014-4.483-0.024c-2.265-0.057-4.531-0.101-6.795,0.075c-0.627,0.049-1.261,0.007-1.947,0.007
		c-1.732-2.481-3.486-4.987-5.231-7.499c-1.064-1.531-2.12-3.067-3.301-4.511c-0.38-0.465-0.777-0.919-1.3-1.229
		c-0.303-0.18-0.612-0.414-0.987-0.239c-0.172,0.196-0.1,0.406-0.101,0.597c-0.005,2-0.006,4,0.002,5.999
		c0.002,0.533,0.019,1.067,0.065,1.598c0.156,1.79,1.029,2.704,2.804,2.952c0.494,0.069,1.001,0.035,1.55,0.217
		c0.113,0.655,0.043,1.341,0.037,2.053c-0.424,0.2-0.857,0.083-1.273,0.062c-4.93-0.243-9.863-0.206-14.792-0.05
		c-1.4,0.044-2.786,0.022-4.182-0.028c-3.964-0.144-7.931-0.079-11.897-0.013c-0.762,0.013-1.518,0.181-2.342,0.097
		c-0.169-0.678-0.05-1.365-0.082-2.085c0.531-0.21,1.064-0.183,1.582-0.247c1.416-0.174,1.916-0.769,1.858-2.188
		c-0.029-0.705-0.187-1.383-0.427-2.041c-0.351-0.964-0.719-1.921-1.087-2.899c-3.161,0-6.287,0-9.453,0
		c-0.508,0.962-0.986,1.939-1.347,2.973c-0.226,0.647-0.235,1.312-0.153,1.975c0.136,1.103,1.092,1.938,2.43,2.169
		c0.359,0.062,0.736,0.018,1.148,0.225c0.101,0.645,0.039,1.333,0.029,2.153c-3.826-0.241-7.636-0.225-11.495,0.03
		c-0.166-0.778-0.051-1.491-0.085-2.24c2.985-0.55,4.164-2.856,5.246-5.211c2.329-5.068,4.614-10.157,6.917-15.237
		c1.357-2.994,2.715-5.988,4.087-9.015c0.921-0.154,1.848-0.016,2.857-0.091c0.559,1.311,1.122,2.611,1.669,3.918
		c2.894,6.922,5.778,13.848,8.682,20.765c0.411,0.978,0.848,1.957,1.388,2.867c1.106,1.865,2.432,2.059,4.167,1.787
		c1.373-0.216,2.199-1.216,2.365-2.718c0.084-0.76,0.102-1.53,0.104-2.296c0.008-5.366,0.014-10.732-0.004-16.098
		c-0.003-1.028,0.017-2.061-0.242-3.078c-0.275-1.077-0.929-1.704-2-1.989c-0.809-0.216-1.639-0.179-2.504-0.268
		c-0.084-0.776-0.129-1.488,0.034-2.209c0.737-0.121,1.425,0.075,2.121,0.089c4.799,0.099,9.596,0.019,14.394-0.056
		c3.419-0.053,6.864-0.014,10.176,1.095c0.568,0.19,1.12,0.412,1.658,0.674c2.033,0.991,3.28,2.593,3.586,4.834
		c0.322,2.359-0.02,4.585-1.677,6.446c-1.201,1.35-2.773,2.022-4.488,2.423c-0.354,0.083-0.714,0.141-1.211,0.238
		c0.439,0.502,0.814,0.937,1.196,1.366c2.261,2.539,4.401,5.173,6.366,7.949c0.538,0.76,1.122,1.488,1.665,2.245
		c1.055,1.47,2.505,1.749,4.16,1.393c1.653-0.356,2.698-1.343,3.094-3.011c0.202-0.852,0.242-1.713,0.242-2.578
		c0.006-6.133,0.005-12.266,0.001-18.398c-0.001-1.444-0.338-1.847-1.734-2.254c-0.426-0.124-0.85-0.139-1.281-0.162
		c-0.392-0.021-0.784-0.055-1.21-0.086c0-0.741,0-1.432,0-2.216c4.402,0.184,8.807,0.246,13.294-0.01
		c2.894,6.64,5.794,13.296,8.782,20.151c2.879-6.83,5.682-13.482,8.484-20.13c4.558,0.158,9.078,0.195,13.645-0.013
		c0.16,0.709,0.099,1.42,0.036,2.162c-0.478,0.186-0.952,0.091-1.405,0.131c-0.433,0.039-0.855,0.102-1.278,0.2
		c-1.139,0.261-1.76,0.999-2.007,2.101c-0.131,0.586-0.208,1.177-0.207,1.78c0.008,6.232,0.014,12.465,0.014,18.697
		c0,0.438,0.078,0.861,0.164,1.285c0.3,1.479,1.049,2.183,2.548,2.377c0.625,0.081,1.254,0.137,1.931,0.21
		c0.187,0.673,0.066,1.355,0.078,2.172c-6.287-0.247-12.521-0.246-18.803,0.005c0-0.761,0-1.415,0-2.155
		c0.535-0.067,1.081-0.142,1.629-0.202c1.859-0.204,2.707-1.081,2.883-2.952c0.1-1.062,0.142-2.123,0.14-3.189
		c-0.01-4.393-0.004-8.786-0.004-13.179C295.511,59.293,295.46,59.273,295.408,59.253z M243.033,64.756
		c1.191,0.108,2.396,0.015,3.599-0.296c1.778-0.459,2.884-1.576,3.362-3.322c0.437-1.597,0.51-3.22,0.17-4.843
		c-0.342-1.629-1.178-2.896-2.827-3.45c-0.789-0.265-1.618-0.376-2.457-0.356c-1.787,0.044-2.003,0.259-2.005,2.039
		c-0.003,3.064-0.003,6.129,0.003,9.193C242.879,64.046,242.792,64.389,243.033,64.756z M213.731,68.974
		c-1.217-3.118-2.389-6.119-3.613-9.255c-1.294,3.17-2.523,6.178-3.779,9.255C208.852,68.974,211.207,68.974,213.731,68.974z"/>
	<path style="fill:#10723F;" d="M37.612,50.007c2.362,0.052,4.725,0.102,7.087,0.156c3.363,0.077,6.724-0.019,10.084-0.146
		c0.29-0.011,0.592-0.093,0.909,0.094c0,0.64,0,1.295,0,2.005c-0.579,0.088-1.164,0.152-1.739,0.27
		c-1.235,0.254-1.64,0.921-1.385,2.163c0.102,0.496,0.286,0.96,0.522,1.394c1.587,2.919,3.192,5.828,4.793,8.739
		c0.048,0.086,0.113,0.163,0.226,0.323c0.636-1.042,1.252-2.044,1.862-3.05c1.017-1.677,2.042-3.35,3.039-5.039
		c0.458-0.776,0.821-1.598,0.814-2.533c-0.007-1.093-0.495-1.74-1.573-1.995c-0.51-0.121-1.035-0.176-1.57-0.264
		c-0.021-0.106-0.055-0.199-0.056-0.293c-0.005-0.564-0.002-1.127-0.002-1.65c0.217-0.263,0.462-0.172,0.684-0.164
		c1.363,0.045,2.725,0.131,4.087,0.136c1.564,0.007,3.137,0.041,4.688-0.113c1.86-0.186,3.708-0.076,5.56-0.037
		c4.766,0.102,9.532-0.065,14.297,0.01c3.803,0.06,7.467,0.79,10.791,2.769c3.869,2.304,6.137,5.698,6.869,10.131
		c0.433,2.624,0.447,5.239-0.32,7.807c-1.513,5.071-4.975,8.112-10.011,9.462c-1.452,0.389-2.943,0.556-4.441,0.613
		c-2.228,0.085-4.456,0.063-6.688,0.029c-4.131-0.062-8.264-0.091-12.395,0.108c-0.626,0.03-1.254,0.004-1.942,0.004
		c0-0.718,0-1.396,0-2.098c0.547-0.214,1.115-0.186,1.673-0.227c1.73-0.129,2.743-1.093,2.928-2.82
		c0.096-0.894,0.158-1.789,0.156-2.692c-0.013-4.699-0.007-9.399-0.005-14.098c0-1.099-0.042-2.196-0.093-3.295
		c-0.121-2.632-1.202-3.505-3.699-3.534c-1.612-0.019-3.172,0.374-4.347,1.652c-0.319,0.347-0.577,0.732-0.82,1.129
		c-2.572,4.195-5.137,8.394-7.711,12.588c-0.214,0.348-0.365,0.69-0.359,1.116c0.029,2.232,0.033,4.465,0.056,6.697
		c0.003,0.297,0.043,0.599,0.109,0.888c0.335,1.473,1.085,2.16,2.583,2.357c0.658,0.087,1.322,0.137,2.021,0.207
		c0.156,0.682,0.059,1.367,0.063,2.154c-6.364-0.259-12.673-0.253-19.019,0.014c-0.231-0.7-0.064-1.388-0.13-2.139
		c0.666-0.078,1.281-0.147,1.895-0.222c1.64-0.2,2.502-1.052,2.715-2.688c0.285-2.19,0.08-4.391,0.143-6.586
		c0.009-0.318-0.139-0.573-0.289-0.835c-2.675-4.67-5.371-9.328-8.009-14.019c-0.909-1.617-2.324-2.181-4.037-2.303
		C37.623,51.457,37.617,50.732,37.612,50.007z M86.346,64.311c0,3.097-0.002,6.195,0.002,9.292c0.001,0.532,0,1.068,0.055,1.597
		c0.2,1.924,1.298,3.047,3.087,3.192c2.649,0.215,4.724-0.964,5.938-3.352c0.827-1.626,1.187-3.372,1.383-5.164
		c0.284-2.591,0.266-5.18,0.018-7.774c-0.14-1.462-0.382-2.9-0.844-4.29c-0.891-2.68-2.587-4.558-5.449-5.116
		c-1.097-0.214-2.222-0.417-3.363-0.141c-0.544,0.132-0.802,0.422-0.809,0.965c-0.004,0.3-0.018,0.599-0.018,0.899
		C86.345,57.716,86.346,61.014,86.346,64.311z"/>
	<path style="fill:#0C723F;" d="M159.81,84.434c-0.807-0.001-1.614-0.002-2.42-0.002c-2.515-0.117-4.955-0.595-7.248-1.649
		c-3.017-1.387-5.472-3.393-6.883-6.498c-0.489-1.076-0.722-2.212-0.817-3.374c-0.459-5.57,1.489-10.178,5.651-13.857
		c1.324-1.171,2.904-1.993,4.366-2.976c3.147-2.116,6.334-4.172,9.265-6.597c1.486-1.229,2.629-2.722,3.686-4.304
		c0.11-0.165,0.182-0.36,0.306-0.512c0.333-0.408,0.923-0.603,1.342-0.41c0.445,0.206,0.762,0.546,0.763,1.076
		c0.001,0.264,0.004,0.542-0.07,0.791c-1.007,3.353-0.492,6.594,0.8,9.74c0.958,2.333,2.042,4.614,3.092,6.908
		c1.403,3.066,2.286,6.253,2.099,9.647c-0.184,3.338-1.309,6.301-3.843,8.602c-1.8,1.635-3.977,2.493-6.325,2.974
		C162.331,84.246,161.079,84.414,159.81,84.434z M152.826,59.431c-0.672,0.17-0.676,0.166-0.886,0.357
		c-2.733,2.487-4.7,5.394-5.063,9.189c-0.144,1.504-0.127,2.989,0.502,4.398c0.391,0.877,1.24,1.357,1.867,1.104
		c0.725-0.293,0.991-1.164,0.633-2.143c-0.205-0.56-0.446-1.107-0.668-1.66c-0.616-1.534-0.635-3.099-0.271-4.692
		c0.435-1.905,1.527-3.438,2.735-4.909C152.074,60.588,152.501,60.123,152.826,59.431z M152.757,65.899
		c-0.892,0.556-1.333,1.229-1.637,2.016c-0.321,0.831-0.449,1.677-0.09,2.52c0.187,0.438,0.495,0.807,1.038,0.806
		c0.4,0,0.679-0.368,0.793-1.005c0.029-0.163,0.052-0.33,0.046-0.494C152.864,68.514,152.813,67.288,152.757,65.899z"/>
	<path style="fill:#10723F;" d="M127.735,29.412c0.922,0.361,1.819,0.03,2.313,0.791c0.234,0.36,0.24,0.749,0.101,1.159
		c-0.462,0.529-1.135,0.514-1.741,0.599c-0.963,0.135-1.929,0.006-2.868-0.227c-0.875-0.217-1.531-0.775-2.072-1.481
		c-0.729-0.954-1.521-1.849-2.392-2.679c-0.644-0.613-1.341-1.086-2.246-1.177c-0.21-0.021-0.38-0.11-0.615-0.3
		c-0.106-1.993-0.053-4.052-0.004-6.111c0.005-0.216,0.168-0.351,0.262-0.495c1.185-0.02,1.494,0.233,1.517,1.333
		c0.03,1.366-0.006,2.732,0.019,4.098c0.013,0.736,0.128,0.824,0.876,0.876c0.265-0.588,0.154-1.229,0.17-1.842
		c0.03-1.198,0.02-2.399-0.039-3.596c-0.054-1.098,0.213-2.005,1.075-2.759c1.102-0.964,2.142-1.999,3.192-3.021
		c0.281-0.273,0.571-0.442,0.968-0.422c0.131,0.007,0.264-0.022,0.395-0.043c1.512-0.235,2.832,0.132,3.924,1.252
		c0.142,0.695-0.449,0.791-0.859,1.023c-0.355,0.202-0.877,0.22-0.857,0.877c0.477,0.453,1.082,0.326,1.652,0.233
		c0.603-0.099,1.106-0.426,1.555-0.844c0.389-0.362,0.807-0.693,1.216-1.032c0.595-0.493,1.227-0.577,1.946-0.243
		c1.224,0.569,2.54,0.788,3.876,0.802c1.729,0.018,3.444,0.407,5.181,0.178c1.615-0.213,3.237-0.379,4.845-0.635
		c1.067-0.17,1.885,0.12,2.539,0.971c1.035,1.347,2.112,2.657,3.324,3.856c0.721,0.714,1.528,1.269,2.456,1.671
		c2.115,0.916,4.295,1.566,6.601,1.805c1.397,0.145,2.713,0.614,3.957,1.276c0.996,0.53,1.767,1.291,2.342,2.256
		c0.085,0.143,0.144,0.303,0.241,0.436c1.728,2.362,1.84,5.117,1.912,7.879c0.005,0.206,0.021,0.393,0.106,0.575
		c0.146,0.293,0.526,0.053,0.69,0.304c0.271,0.434,0.141,1.042-0.353,1.398c-0.759,0.546-1.606,0.934-2.483,1.252
		c-1.416,0.513-2.904,0.702-4.383,0.912c-0.381,0.054-0.794-0.045-1.182-0.124c-1.43-0.289-2.872-0.537-4.209-1.168
		c-0.399-0.188-0.785-0.365-0.916-0.825c0.36-0.75,0.36-0.75,1.58-0.431c0.066-0.09,0.176-0.216,0.259-0.358
		c0.082-0.14,0.135-0.297,0.208-0.462c-0.387-0.68-0.616-1.399-0.837-2.13c-0.307-1.02-1.061-1.651-2.051-2.023
		c-1.501-0.564-3.022-0.653-4.599-0.363c-2.386,0.438-4.763,0.879-7.072,1.659c-2.56,0.865-5.186,0.693-7.785,0.207
		c-1.29-0.242-2.372-1.019-3.422-1.787c-1.289-0.942-2.551-1.922-3.923-2.746c-0.661-0.397-1.347-0.708-2.102-0.882
		C129.256,28.708,128.597,28.93,127.735,29.412z M132.184,27.115c1.338,0.544,2.251,1.474,3.248,2.291
		c0.695,0.569,1.35,1.187,2.039,1.763c0.794,0.663,1.638,1.252,2.633,1.58c0.792,0.261,1.599,0.45,2.443,0.42
		c1.792-0.064,3.6,0.185,5.377-0.182c2.436-0.503,4.872-1.009,7.287-1.614c1.026-0.257,2.068-0.453,3.149-0.243
		c1.457,0.284,2.345,1.314,3.227,2.36c0.799,0.948,1.257,2.023,1.181,3.293c-0.021,0.347-0.055,0.717,0.216,1.022
		c0.913-0.787,1.133-1.47,0.711-2.477c-0.527-1.256-1.124-2.487-1.958-3.574c-1.126-1.467-2.636-2.073-4.469-1.86
		c-0.792,0.092-1.585,0.187-2.371,0.318c-1.831,0.304-3.704,0.373-5.481,0.988c-0.567,0.196-1.165,0.257-1.763,0.307
		c-1.762,0.145-3.528,0.004-5.29,0.093c-0.753,0.038-1.453-0.129-2.108-0.482c-1.022-0.551-2.049-1.095-3.051-1.683
		c-1.261-0.739-2.494-1.524-3.747-2.278C133.134,26.96,132.809,26.652,132.184,27.115z M147.795,29.792
		c-3.565-0.212-6.927-1.089-10.049-2.615c-0.345,0.282-0.205,0.486-0.083,0.686c0.432,0.706,1.106,1.139,1.785,1.559
		c2.161,1.334,4.551,1.346,6.957,1.122C146.886,30.499,147.439,30.357,147.795,29.792z"/>
	<path style="fill:#0F723F;" d="M107.249,52.104c0-0.752,0-1.442,0-2.151c0.248-0.224,0.558-0.1,0.84-0.084
		c5.194,0.294,10.388,0.154,15.584,0.037c1.893-0.042,3.791,0.059,5.685,0.219c1.601,0.136,3.161,0.413,4.685,0.908
		c0.793,0.257,1.543,0.608,2.261,1.031c1.487,0.878,2.407,2.186,2.801,3.843c0.41,1.724,0.328,3.452-0.342,5.098
		c-1.035,2.544-3.122,3.786-5.68,4.372c-0.387,0.089-0.784,0.133-1.219,0.29c0.609,0.684,1.198,1.346,1.787,2.009
		c2.503,2.816,4.76,5.825,6.944,8.888c0.891,1.249,1.899,2.237,3.582,2.192c0.092,0.756,0.061,1.439,0.026,2.229
		c-3.912-0.245-7.761-0.256-11.591,0.022c-1.443-2.064-2.833-4.052-4.224-6.04c-1.316-1.881-2.589-3.792-4.001-5.604
		c-0.391-0.501-0.812-0.975-1.29-1.39c-0.397-0.345-0.821-0.679-1.496-0.542c0,0.595,0,1.189,0,1.783
		c0,1.699-0.002,3.399,0.001,5.098c0.001,0.532,0.054,1.058,0.13,1.589c0.3,2.085,1.53,2.532,2.929,2.71
		c0.458,0.058,0.932,0.019,1.414,0.211c0.099,0.688,0.092,1.369-0.005,2.107c-6.289-0.204-12.53-0.244-18.818,0.042
		c0-0.77,0-1.455,0-2.142c0.574-0.16,1.137-0.18,1.698-0.218c1.632-0.113,2.546-0.929,2.89-2.514
		c0.129-0.593,0.168-1.185,0.168-1.785c0.002-5.798,0.002-11.596,0.002-17.393c0-0.8-0.034-1.597-0.203-2.384
		c-0.247-1.145-0.893-1.878-2.062-2.175C108.934,52.153,108.107,52.167,107.249,52.104z M121.692,64.733
		c1.465,0.138,2.825,0.031,3.988-0.363c1.179-0.399,2.166-1.098,2.643-2.269c0.967-2.369,1.043-4.786,0.059-7.176
		c-0.427-1.036-1.266-1.704-2.313-2.064c-1.153-0.397-2.353-0.387-3.553-0.272c-0.556,0.053-0.806,0.423-0.892,0.92
		c-0.045,0.259-0.024,0.531-0.024,0.797c-0.001,3.162-0.003,6.323,0.002,9.485C121.604,64.083,121.543,64.384,121.692,64.733z"/>
	<path style="fill:#127240;" d="M203.014,49.837c-0.129,2.867-0.267,5.648,0.042,8.472c-0.889,0.167-1.702,0.081-2.481,0.068
		c-0.235-0.265-0.16-0.55-0.214-0.802c-0.543-2.568-2.142-4.081-4.686-4.553c-1.964-0.365-3.953-0.497-5.951-0.266
		c-0.85,0.098-1.134,0.313-1.139,1.082c-0.022,3.196-0.009,6.392-0.009,9.7c1.503,0.092,2.91-0.086,4.088-1.113
		c1.177-1.027,1.463-2.485,1.791-3.954c0.763,0,1.515,0,2.351,0c-0.066,4.213-0.215,8.398,0.235,12.604
		c-0.798,0.208-1.555,0.054-2.403,0.112c-0.311-1.683-0.652-3.364-2.284-4.319c-1.151-0.673-2.412-0.855-3.724-0.85
		c-0.159,0.334-0.094,0.635-0.093,0.923c0.008,2.598,0.022,5.197,0.041,7.795c0.003,0.464,0.048,0.922,0.133,1.385
		c0.277,1.521,1.18,2.283,2.815,2.493c0.657,0.084,1.318,0.132,2.004,0.199c0.213,0.319,0.075,0.695,0.101,1.048
		c0.024,0.329,0.005,0.661,0.005,1.121c-6.555-0.213-13.057-0.328-19.617-0.001c0-0.756,0-1.436,0-2.168
		c0.564-0.063,1.117-0.129,1.67-0.187c1.848-0.195,2.739-1.091,2.938-2.918c0.098-0.895,0.138-1.789,0.137-2.689
		c-0.008-5.099-0.007-10.197,0-15.296c0.001-0.867-0.039-1.727-0.134-2.589c-0.201-1.819-1.102-2.736-2.941-2.927
		c-0.526-0.054-1.056-0.067-1.676-0.105c-0.098-0.733-0.057-1.446-0.016-2.247C183.634,50.074,193.242,50.066,203.014,49.837z"/>
	<path style="fill:#1E7443;" d="M134.455,11.03c-0.252-0.572,0.027-0.937,0.391-1.26c0.616-0.545,1.356-0.833,2.16-0.941
		c0.682-0.092,1.247,0.139,1.63,0.734c0.18,0.279,0.33,0.578,0.523,0.848c0.758,1.06,1.83,1.511,3.098,1.482
		c0.966-0.023,1.577-0.649,2.029-1.424c0.298-0.51,0.518-1.065,0.763-1.581c2.798-0.387,4.957,0.417,5.545,2.057
		c-0.143,0.58-0.643,0.705-1.124,0.834c-1.674,0.447-3.4,0.573-5.108,0.816c-2.509,0.356-4.961-0.182-7.427-0.446
		C136.007,12.048,135.203,11.519,134.455,11.03z"/>
	<path style="fill:#1E7443;" d="M173.848,38.885c0.266,0.083,0.442,0.263,0.542,0.617c-0.455,1.036-1.092,1.892-2.279,2.382
		c-1.399,0.576-2.804,0.991-4.314,1.067c-0.395,0.02-0.787,0.074-1.177,0.183c-0.481,0.134-0.988,0.139-1.483,0.035
		c-1.298-0.271-2.59-0.568-3.891-0.82c-0.779-0.151-1.405-0.571-2.02-1.023c-0.361-0.265-0.52-0.6-0.3-1.037
		c0.22-0.439,0.605-0.497,1.017-0.381c0.669,0.189,1.32,0.443,1.991,0.621c1.183,0.314,2.36,0.653,3.602,0.698
		C168.528,41.336,171.177,40.272,173.848,38.885z"/>
	<path style="fill:#1E7443;" d="M138.182,13.905c0.626-0.297,2.915-0.432,4.669-0.309c0.377,0.026,0.722,0.1,0.98,0.443
		c0.043,0.356-0.213,0.583-0.416,0.907c-1.449,0.104-2.908,0.077-4.365,0.021C138.507,14.946,138.352,14.704,138.182,13.905z"/>
	<path style="fill:#287745;" d="M145.364,14.429c1.514-1.279,3.265-1.326,5.093-1.173c0.15,0.493,0.037,0.874-0.408,1.007
		C148.511,14.721,146.944,14.669,145.364,14.429z"/>
	<path style="fill:#2F7948;" d="M143.34,8.877c-0.443,0.723-0.76,1.368-1.391,1.915c-0.832-0.301-1.588-0.676-1.96-1.575
		C140.674,8.749,141.134,8.703,143.34,8.877z"/>
	<path style="fill:#287745;" d="M119.287,17.898c-0.241-0.549-0.02-0.949,0.393-1.306c0.451-0.39,0.886-0.799,1.326-1.2
		c0.533-0.486,1.13-0.787,1.893-0.704C122.419,15.762,120.766,17.224,119.287,17.898z"/>
	<path style="fill:#287745;" d="M119.285,27.601c1.52,0.606,2.311,1.883,3.109,3.201C121.077,30.921,119.282,29.056,119.285,27.601z
		"/>
	<path style="fill:#287745;" d="M140.632,2.706c1.123-1.023,2.206-1.025,3.447-0.006C143.105,3.8,141.811,3.802,140.632,2.706z"/>
	<path style="fill:#287745;" d="M133.6,12.946c1.081-0.9,1.841,0.072,2.655,0.288c0.266,0.368,0.312,0.706,0.262,1.06
		C135.323,14.513,134.241,14.034,133.6,12.946z"/>
	<path style="fill:#C5D1C3;" d="M37.612,50.007c0.006,0.725,0.011,1.45,0.017,2.174c-0.103-0.014-0.205-0.027-0.308-0.041
		c0.201-0.709-0.006-1.443,0.127-2.156C37.505,49.975,37.559,49.983,37.612,50.007z"/>
	<path style="fill:#3A7D4E;" d="M308.274,55.672c0.73,0,1.361-0.038,1.985,0.012c0.502,0.041,1.001,0.203,1.153,0.782
		c0.15,0.572-0.011,1.045-0.543,1.362c-0.11,0.065-0.202,0.16-0.309,0.246c0.451,0.488,0.78,1.018,1.108,1.617
		c-0.252,0.205-0.484,0.177-0.761,0.059c-0.303-0.478-0.621-0.979-0.913-1.441c-0.325-0.165-0.609-0.206-0.927-0.101
		c-0.211,0.491,0.041,1.045-0.144,1.517c-0.206,0.169-0.4,0.097-0.649,0.075C308.274,58.448,308.274,57.106,308.274,55.672z
		 M309.055,57.427c0.419,0,0.779,0.01,1.137-0.003c0.297-0.01,0.507-0.167,0.549-0.467c0.05-0.359-0.176-0.55-0.487-0.639
		c-0.412-0.118-0.828-0.146-1.23,0.02C308.969,56.697,308.949,57.02,309.055,57.427z"/>
</g>
</svg>
