<?xml version="1.0" encoding="iso-8859-1"?>
<!-- Generator: Adobe Illustrator 27.0.0, SVG Export Plug-In . SVG Version: 6.00 Build 0)  -->
<svg version="1.1" id="Layer_1" xmlns="http://www.w3.org/2000/svg" xmlns:xlink="http://www.w3.org/1999/xlink" x="0px" y="0px"
	 viewBox="0 0 1558 676.175" style="enable-background:new 0 0 1558 676.175;" xml:space="preserve">
<g>
	<path style="fill:#A99A70;" d="M903,0c4.873,2.686,10.105,4.647,14.723,7.876c11.372,7.953,21.473,17.329,30.757,27.553
		c4.913,5.41,10.056,10.602,14.805,16.181c10.444,12.272,20.737,24.659,30.716,37.311c17.173,21.77,33.562,44.129,49.817,66.581
		c12.164,16.801,24.052,33.805,35.844,50.87c16.318,23.615,32.427,47.373,48.634,71.064c0.843,1.232,1.757,2.416,2.638,3.623
		c-15.666,11.452-31.991,21.946-48.026,32.859c-16.877,11.485-34.072,22.506-51.216,33.594c-1.997,1.292-3.94,2.939-6.456,3.331
		c-7.272-14.366-14.753-28.632-21.77-43.122c-12.006-24.79-23.567-49.797-35.601-74.574c-14.799-30.47-29.529-60.992-48.398-89.264
		c-4.448-6.665-9.777-12.55-15.187-18.452c-6.418-7.002-14.002-7.796-22.332-5.778c-9.333,2.261-18.12,6.155-27,9.768
		c-15.541,6.323-30.503,13.895-45.698,20.958c-17.586,8.175-35.348,15.858-53.823,21.81c-19.518,6.288-39.241,11.885-59.432,15.477
		c-7.276,1.294-14.621,2.469-21.99,3.375c-9.642,1.184-19.305,2.138-28.95,3.218c-8.145,0.912-16.236,0.627-24.338,0.751
		c-16.16,0.248-32.345,0.437-48.483-0.222c-6.172-0.252-12.516-0.194-18.65-1.648c-0.796-0.189-1.66-0.126-2.492-0.123
		c-9.254,0.038-18.401-1.43-27.587-2.211c-8.325-0.707-16.603-2.109-24.945-2.972c-11.066-1.145-22.015-3.394-33.071-4.68
		c-6.531-0.76-13.041-1.735-19.605-2.33c-5.707-0.517-11.39-1.51-17.131-1.874c-9.358-0.592-18.434,1.366-27.455,3.373
		c-23.601,5.251-45.937,14.313-68.334,23.142c-14.503,5.717-28.782,11.958-42.971,18.435c-13.2,6.026-26.314,12.206-39.285,18.701
		c-13.112,6.565-26.423,12.761-39.302,19.753c-16.047,8.712-32.215,17.204-48.036,26.351c-15.066,8.711-30.209,17.295-45.111,26.282
		c-13.191,7.956-26.251,16.14-39.182,24.512c-14.358,9.295-28.57,18.82-42.721,28.428c-9.929,6.741-19.663,13.771-29.447,20.723
		c-1.349,0.959-2.61,1.972-4.839,2.307c0.695-2.649,1.957-4.512,3.721-6.196c8.052-7.684,15.771-15.744,24.148-23.052
		c10.292-8.977,20.657-17.887,31.58-26.141c7.596-5.74,14.98-11.765,22.72-17.327c7.454-5.356,14.777-10.897,22.283-16.178
		c15.787-11.105,31.482-22.348,47.756-32.745c14.906-9.524,29.586-19.395,44.818-28.414c8.734-5.172,17.116-10.937,25.802-16.194
		c8.55-5.174,17.3-10.017,25.933-15.055c7.38-4.306,14.698-8.72,22.085-13.013c3.681-2.14,7.447-4.157,11.211-6.125
		c12.533-6.551,24.947-13.329,37.449-19.934c12.742-6.732,25.589-13.245,38.554-19.506c10.006-4.832,20.124-9.455,30.499-13.532
		c8.24-3.238,16.452-6.45,24.989-8.802c6.621-1.825,13.213-2.32,20.077-1.008c3.497,0.668,7.185,0.8,10.787,1.12
		c7.061,0.628,14.026,1.78,21.011,2.902c5.829,0.936,11.728,1.426,17.581,2.221c6.022,0.818,12.041,1.678,18.032,2.693
		c3.078,0.521,6.232,0.723,9.285,1.041c4.405,0.458,8.919,0.914,13.246,1.564c4.724,0.71,9.649-0.29,14.196,1.647
		c0.288,0.123,0.664,0.096,0.992,0.062c6.161-0.625,12.229,0.679,18.313,1.138c18.779,1.415,37.578,1.299,56.333,0.601
		c10.654-0.396,21.361-0.842,32.029-2.377c9.788-1.408,19.591-2.859,29.3-4.617c12.553-2.273,24.816-5.934,36.926-10.052
		c14.635-4.976,29.039-10.523,42.636-17.881c14.263-7.718,27.894-16.437,40.829-26.304c19.205-14.651,37.089-30.798,55.008-46.94
		c10.376-9.346,20.535-18.945,31.396-27.752C887.094,3.969,891.079,2.064,895,0C897.667,0,900.333,0,903,0z"/>
	<path style="fill:#141621;" d="M0,421c17.314,0,34.627,0,52.429,0c0,32.4,0,64.469,0,96.806c31.582,0,62.677,0,94.226,0
		c0-31.963,0-64.029,0-96.411c17.666,0,34.882,0,52.379,0c0,83.416,0,166.758,0,250.314c-17.334,0-34.424,0-51.99,0
		c0-35.432,0-70.807,0-106.443c-31.692,0-62.908,0-94.472,0c0,35.475,0,70.734,0,106.589C34.821,671.904,17.41,671.952,0,672
		C0,588.333,0,504.667,0,421z"/>
	<path style="fill:#BDBEC0;" d="M1025.236,350.842c2.517-0.392,4.459-2.039,6.456-3.331c17.144-11.088,34.339-22.109,51.216-33.594
		c16.035-10.912,32.36-21.406,48.026-32.859c3.394-0.672,5.719-3.209,8.416-5.016c19.235-12.882,38.744-25.284,59.781-35.082
		c9.261-4.313,18.79-8.122,28.88-9.73c8.257-1.316,16.435-0.077,24.11,3.795c13.159,6.639,25.703,14.248,37.487,23.098
		c9.366,7.034,18.785,14.005,27.993,21.242c6.757,5.31,13.237,10.976,19.794,16.537c8.953,7.593,17.905,15.19,26.771,22.884
		c3.628,3.148,6.952,6.618,10.653,9.72c5.588,4.684,10.662,9.976,16.104,14.842c10.642,9.517,20.959,19.376,31.366,29.144
		c4.959,4.654,9.686,9.575,14.829,14.02c10.08,8.713,18.861,18.777,28.766,27.629c9.068,8.104,17.33,16.987,26.13,25.338
		c21.728,20.619,42.821,41.883,64.04,63.019c0.575,0.573,1.294,1.003,1.945,1.5c0,0.333,0,0.667,0,1
		c-1.401,0.226-2.536-0.151-3.632-1.139c-6.149-5.544-12.236-11.167-18.579-16.483c-6.334-5.309-12.317-11.019-18.838-16.121
		c-2.852-2.231-5.504-4.763-8.248-7.157c-9.222-8.046-18.354-16.186-27.865-23.904c-7.447-6.043-14.462-12.617-21.913-18.656
		c-10.262-8.317-20.341-16.854-30.655-25.112c-7.732-6.192-15.447-12.427-23.122-18.701c-8.18-6.686-16.491-13.222-24.906-19.61
		c-12.613-9.575-25.329-19.014-38.073-28.415c-8.496-6.268-17.167-12.288-25.933-18.183c-15.494-10.42-31.114-20.623-47.953-28.76
		c-5.904-2.853-11.995-5.306-18.431-6.974c-8.258-2.14-15.264,0-21.889,4.749c-11.047,7.918-21.187,16.881-31.263,25.995
		c-9.264,8.379-17.754,17.499-26.796,26.074c-0.95,0.901-2.094,1.728-1.878,3.308c-3.047,0.166-3.618,3.098-5.308,4.772
		c-10.825,10.723-21.038,22.017-31.257,33.312c-5.312,5.872-10.711,11.658-15.474,17.998c-53.763,0-107.525,0-161.494,0
		c1.046-1.884,2.909-2.162,4.373-2.923c21.692-11.276,43.267-22.753,63.897-35.919
		C1023.773,352.505,1024.748,351.977,1025.236,350.842z"/>
	<path style="fill:#141621;" d="M1067.164,544.64c0.16,23.727-3.956,46.55-14.206,68.127c-10.502,22.109-26.752,38.57-48.258,50.086
		c-16.479,8.825-34.228,12.272-52.667,13.108c-14.064,0.638-27.902-0.621-41.372-4.897c-25.745-8.172-45.816-23.639-59.911-46.753
		c-9.636-15.802-15.376-32.93-17.891-51.249c-1.5-10.927-2.224-21.878-1.709-32.865c1.151-24.573,6.854-47.962,19.869-69.08
		c17.717-28.748,43.391-46.15,76.623-52.184c21.327-3.872,42.456-2.608,63.007,4.271c23.838,7.979,42.622,22.686,56.095,44.038
		c9.521,15.088,15.276,31.526,18.319,49.06C1066.696,525.71,1067.059,535.152,1067.164,544.64z M886.765,546.554
		c-0.141,15.785,2.033,31.211,8.293,45.764c9.346,21.73,24.457,36.632,49.12,39.251c13.031,1.384,25.205-1.587,35.941-9.085
		c14.444-10.088,22.366-24.683,26.91-41.29c4.936-18.04,5.981-36.326,3.163-54.86c-2.385-15.688-7.481-30.254-17.092-43.019
		c-11.411-15.155-26.715-22.751-45.639-22.149c-20.597,0.655-36.086,10.541-46.51,28.096
		C890.494,506.87,886.844,526.309,886.765,546.554z"/>
	<path style="fill:#141621;" d="M773.342,553.506c1.678,1.416,3.327,2.772,4.937,4.172c10.662,9.27,16.913,21.281,20.621,34.595
		c4.935,17.718,9.357,35.579,13.968,53.386c2.167,8.369,4.856,16.532,9.083,24.124c0.312,0.561,0.421,1.235,0.69,2.054
		c-18.479,0-36.786,0-55.34,0c-4.159-8.276-6.889-17.119-9.188-26.078c-3.501-13.646-6.681-27.374-10.111-41.039
		c-1.537-6.124-3.747-11.995-7.039-17.456c-4.536-7.525-11.555-11.464-19.734-13.156c-8.995-1.861-18.205-1.254-27.841-1.094
		c0,32.911,0,65.648,0,98.646c-17.562,0-34.63,0-51.97,0c0-82.389,0-164.618,0-247.3c7.72-1.076,15.391-2.298,23.101-3.189
		c20.394-2.357,40.882-2.473,61.368-2.083c15.402,0.294,30.441,2.985,44.676,8.963c22.26,9.348,35.489,26.09,39.463,49.967
		c3.417,20.531-0.892,39.277-13.31,56.067c-4.924,6.657-11.275,11.731-18.156,16.198
		C776.89,551.367,775.173,552.378,773.342,553.506z M693.519,531.418c0.406,0.214,0.682,0.486,0.962,0.49
		c10.317,0.137,20.67,0.76,30.906-0.955c7.754-1.299,15.229-3.572,21.31-8.926c9.825-8.651,13.111-19.715,11.365-32.383
		c-1.624-11.785-7.791-20.17-19.085-24.633c-14.842-5.865-30.031-3.672-45.458-2.564
		C693.519,485.66,693.519,508.572,693.519,531.418z"/>
	<path style="fill:#141621;" d="M603.161,619.857c3.076,14.803,6.061,29.173,9.066,43.635c-9.468,4.729-19.067,7.659-29.042,9.49
		c-16.469,3.024-33.119,3.715-49.756,2.843c-26.771-1.402-51.541-8.997-73.08-25.621c-16.687-12.879-27.934-29.619-35.234-49.199
		c-6.239-16.734-8.293-34.127-8.331-51.874c-0.041-18.967,2.844-37.374,9.867-55.059c11.293-28.44,30.716-49.412,58.07-63.024
		c15.339-7.633,31.685-11.503,48.7-13.206c13.511-1.353,26.987-1.234,40.381,0.351c13.832,1.637,27.448,4.588,40.496,11.163
		c-3.286,14.641-7.799,28.962-11.711,43.778c-5.312-1.954-10.299-4.127-15.479-5.635c-21.346-6.214-42.829-7.45-64.279-0.585
		c-22.23,7.114-37.088,21.974-44.979,43.85c-5.869,16.27-7.089,33.025-5.159,50.13c1.239,10.985,3.913,21.529,8.975,31.381
		c9.913,19.293,26.001,30.586,46.75,35.682c15.945,3.916,31.942,3.39,48.002,0.562C585.475,626.924,594.097,624.156,603.161,619.857
		z"/>
	<path style="fill:#131520;" d="M1245.066,421.015c0,14.918,0,29.659,0,44.924c-31.893,0-63.626,0-95.595,0
		c0,19.605,0,38.688,0,58.183c29.663,0,59.09,0,88.059,0c0.579,0.523,0.714,0.625,0.823,0.75c0.104,0.119,0.26,0.262,0.26,0.395
		c0.012,14.315,0.011,28.63,0.011,43.659c-5.793,0.172-11.712,0.047-17.623,0.07c-5.999,0.023-11.998,0.005-17.997,0.005
		c-5.833,0-11.665,0-17.497,0c-5.999,0-11.998,0-17.997,0c-5.951,0-11.902,0-18.173,0c0,34.422,0,68.364,0,102.612
		c-17.552,0-34.775,0-52.24,0c0-83.508,0-166.911,0-250.598C1146.429,421.015,1195.63,421.015,1245.066,421.015z"/>
	<path style="fill:#141621;" d="M343.054,671.743c-17.797,0-34.909,0-51.948,0c-1.019-1.898-0.597-3.768-0.595-5.566
		c0.033-29.983,0.045-59.966,0.216-89.949c0.031-5.499-1.324-10.357-3.951-15.179c-24.836-45.592-49.545-91.252-74.288-136.894
		c-0.471-0.87-1.039-1.709-1.014-2.921c19.948,0,39.889,0,60.126,0c15.782,33.903,32.178,67.533,47.127,103.009
		c8.141-17.892,15.827-35.005,23.703-52.03c7.858-16.985,15.906-33.881,23.934-50.95c20.005,0,39.963,0,60,0
		c-0.094,1.96-1.354,3.339-2.225,4.872c-25.736,45.301-52.187,90.194-77.602,135.68c-2.177,3.896-3.359,7.714-3.349,12.222
		c0.065,30.65-0.065,61.3-0.132,91.95C343.05,667.789,343.054,669.592,343.054,671.743z"/>
	<path style="fill:#141621;" d="M1447.758,466.028c-23.016,1.025-45.955,0.612-69.287,0.748c0,68.365,0,136.449,0,204.84
		c-17.632,0-34.858,0-52.495,0c0-68.144,0-136.208,0-204.853c-23.299-0.095-46.211,0.246-69.378-0.749c0-14.851,0-29.595,0-44.639
		c63.674,0,127.238,0,191.16,0C1447.758,436.133,1447.758,450.994,1447.758,466.028z"/>
	<path style="fill:#A99A70;" d="M1115.988,391.991c4.762-6.34,10.161-12.126,15.474-17.998
		c10.219-11.294,20.432-22.589,31.257-33.312c1.691-1.675,2.261-4.606,5.308-4.772c9.622,13.671,18.854,27.618,28.922,40.973
		c2.891,3.835,5.865,7.608,8.81,11.403c0.804,1.036,1.786,1.966,1.895,3.706C1177.069,391.991,1146.529,391.991,1115.988,391.991z"
		/>
</g>
</svg>
