<?xml version="1.0" encoding="iso-8859-1"?>
<!-- Generator: Adobe Illustrator 27.0.0, SVG Export Plug-In . SVG Version: 6.00 Build 0)  -->
<svg version="1.1" id="Layer_1" xmlns="http://www.w3.org/2000/svg" xmlns:xlink="http://www.w3.org/1999/xlink" x="0px" y="0px"
	 viewBox="0 0 1600.017 336" style="enable-background:new 0 0 1600.017 336;" xml:space="preserve">
<g>
	<path style="fill:#06334B;" d="M558.224,239.941c1.19-6.296,1.135-12.564-0.707-18.727c-4.461-14.932-14.299-24.422-29.364-28.267
		c-13.498-3.445-27.269-5.944-40.574-9.998c-33.488-10.204-55.193-32.616-63.791-66.452
		C410.702,65.001,443.052,14.556,492.754,2.898c3.718-0.872,7.405-1.888,11.266-1.896c4.318-0.008,8.636-0.024,12.953-0.016
		c0.862,0.002,1.656-0.047,2.044-0.985c1.333,0,2.667,0,4,0c2.713,1.936,6.014,1.273,9,1.836
		c36.662,6.917,66.341,35.957,74.064,72.27c1.88,8.838-4.34,15.828-11.106,16.994c-11.926,2.055-23.743,4.737-35.632,7.02
		c-8.392,1.611-14.085-1.971-16.529-10.329c-1.66-5.674-4.057-10.828-8.43-14.996c-8.308-7.919-20.881-10.218-31.47-5.583
		c-10.691,4.68-17.362,15.5-16.984,27.549c0.354,11.291,7.707,21.536,18.518,25.43c8.919,3.212,18.296,4.693,27.496,6.82
		c10.994,2.542,21.988,5,32.196,10.06c29.97,14.857,48.982,38.488,56.812,71.018c2.385,9.91,2.719,20.052,2.776,30.199
		c0.004,0.674-0.019,1.321-0.604,1.787C601.49,240.032,579.857,239.986,558.224,239.941z"/>
	<path style="fill:#EE5C50;" d="M558.224,239.941c21.633,0.045,43.266,0.09,64.899,0.136c-0.932,16.058-5.931,30.899-14.232,44.52
		c-14.032,23.025-33.891,38.779-59.889,46.529c-6.043,1.801-12.2,3.02-18.438,3.877c-0.921,0.126-2.059-0.252-2.547,0.998
		c-1.333,0-2.667,0-4,0c-4.199-1.825-8.485-1.129-12.768-0.427c-0.098,0.016-0.156,0.279-0.232,0.427c-1.333,0-2.667,0-4,0
		c-1.39-1.844-3.642-1.389-5.422-1.682c-21.522-3.543-39.936-13.314-55.52-28.242c-17.254-16.529-27.096-37.081-30.875-60.591
		c-0.26-1.615-0.186-3.283-0.285-5.272c21.598,0,42.997,0,64.661,0c0.942,0.871,1.104,2.376,1.599,3.759
		c6.595,18.424,23.698,29.28,42.981,26.796c16.105-2.074,27.126-11.665,32.829-27.04
		C557.447,242.484,557.813,241.204,558.224,239.941z"/>
	<path style="fill:#EF5D51;" d="M1600.017,288c-25.974-0.037-51.949-0.075-77.923-0.108c-0.655-0.001-1.336-0.042-1.856,0.494
		c-0.25,9.612,7.742,19.958,18.266,23.557c12.69,4.34,28.236,1.151,37.136-11.995c3.413,0.102,6.564,1.765,9.915,2.544
		c3.374,0.783,6.654,1.967,10.251,3.059c-3.102,7.124-7.967,12.645-14.167,16.963c-17.405,12.121-45.268,13.157-63.09,0.792
		c-11.535-8.003-18.724-18.846-21.331-32.446c-3.665-19.125,1.293-35.959,15.297-49.694c7.963-7.81,17.837-11.785,28.884-13.308
		c9.833-1.356,19.24-0.034,28.271,3.703c16.546,6.847,26.025,19.47,29.292,36.937c0.169,0.906-0.26,2.074,1.054,2.502
		C1600.017,276.667,1600.017,282.333,1600.017,288z M1520.236,271.623c19.129,0,37.84,0,56.534,0
		c0.789-13.19-11.845-25.114-26.362-25.812C1534.072,245.026,1520.591,256.457,1520.236,271.623z"/>
	<path style="fill:#536074;" d="M519.017,0c-0.388,0.938-1.182,0.987-2.044,0.985c-4.318-0.008-8.636,0.008-12.953,0.016
		c-0.001-0.334-0.002-0.668-0.003-1.002C509.017,0,514.017,0,519.017,0z"/>
	<path style="fill:#F4927E;" d="M511.017,336c0.076-0.148,0.134-0.411,0.232-0.427c4.283-0.702,8.569-1.398,12.768,0.427
		C519.684,336,515.35,336,511.017,336z"/>
	<path style="fill:#0A354C;" d="M1089.378,50.548c0-4.831,0-9.595,0-14.551c7.045,0,13.643,0,20.204,0
		c1.11,1.201,0.635,2.599,0.636,3.861c0.031,29.978,0.031,59.957,0.019,89.935c-0.003,8.003-0.38,15.986-3.329,23.549
		c-4.899,12.565-14.056,20.98-26.659,25.149c-23.094,7.639-44.851,4.902-64.62-9.883c-2.095-1.567-3.96-3.441-6.214-5.421
		c4.236-5.151,8.221-9.997,12.177-14.807c1.776,0.395,2.595,1.77,3.717,2.697c13.839,11.439,29.463,13.964,46.343,8.82
		c10.567-3.221,16.938-12.084,17.34-23.136c0.175-4.816,0.029-9.644,0.029-14.501c-1.713,0.03-2.125,1.538-2.977,2.425
		c-10.384,10.816-23.428,14.313-37.771,12.766c-22.06-2.378-36.219-19.9-40.094-40.03c-3.053-15.86-0.172-30.769,9.106-44.155
		c13.172-19.005,38.026-24.589,58.528-14.009c4.346,2.243,7.838,5.58,11.028,9.243C1087.469,49.224,1087.774,50.302,1089.378,50.548
		z M1029.732,87.191c-0.571,7.213,2.3,13.808,6.641,19.925c11.735,16.534,38.055,14.459,47.106-4.456
		c6.249-13.06,4.978-25.923-3.323-37.741c-10.404-14.813-31.699-15.178-42.836-0.921
		C1032.137,70.634,1029.519,78.212,1029.732,87.191z"/>
	<path style="fill:#EF5D51;" d="M1043.131,211.898c-3.529,6.12-6.913,11.986-10.239,17.753c-1.608,0.441-2.234-0.785-3.118-1.403
		c-9.219-6.447-19.419-9.918-30.675-10.386c-6.691-0.278-13.139,0.127-19.52,2.755c-5.872,2.418-10.643,10.329-7.586,18.33
		c1.204,3.153,3.499,5.191,6.312,6.776c4.672,2.632,9.802,3.982,14.944,5.315c9.457,2.451,19.029,4.48,28.233,7.864
		c4.069,1.496,8.003,3.204,11.637,5.586c6.655,4.363,11.38,10.089,13.151,18.034c2.649,11.888,1.612,23.056-6.012,33.08
		c-4.739,6.23-11.239,10.177-18.464,12.109c-28.209,7.546-54.558,2.957-78.81-13.395c-0.558-0.377-1.188-0.647-2.009-1.087
		c3.603-6.757,6.856-12.859,10.118-18.975c1.759,0.35,2.766,1.473,3.968,2.259c11.185,7.316,23.438,11.408,36.743,12.823
		c7.421,0.789,14.531,0.355,21.514-2.26c4.875-1.826,8.229-4.938,8.89-10.343c0.689-5.633-1.128-10.128-6.09-13.179
		c-4.853-2.983-10.13-4.941-15.577-6.472c-8.453-2.377-16.937-4.646-25.379-7.064c-4.151-1.189-8.11-2.853-11.852-5.079
		c-14.898-8.863-19.257-22.09-14.8-39.006c3.247-12.323,11.679-20.358,23.245-24.897c17.49-6.865,35.068-5.938,52.484,0.608
		C1030.796,204.108,1036.914,207.407,1043.131,211.898z"/>
	<path style="fill:#EF5D51;" d="M898.503,311.373c0,6.111,0,11.9,0,17.554c-11.962,7.01-24.286,0.16-25.709-14.457
		c-3.111,3.408-5.573,7.012-9.124,9.647c-8.96,6.648-18.847,8.876-29.942,8.186c-19.265-1.199-38.269-17.008-42.702-41.134
		c-2.747-14.946-0.722-29.094,7.886-41.954c6.754-10.091,15.756-17.123,27.826-19.447c14.583-2.807,27.662,0.607,38.933,10.459
		c1.232,1.077,2.095,2.579,4.219,3.505c0-8.129,0-15.989,0-23.849c0-7.79,0-15.58,0-23.625c7.451,0,14.534,0,21.878,0
		c0.739,1.69,0.354,3.532,0.356,5.29c0.03,32.812,0.022,65.624,0.022,98.436c0,0.999-0.03,2,0.005,2.998
		C892.34,308.298,893.18,309.432,898.503,311.373z M813.037,277.32c0.325,15.017,3.792,23.376,12.043,30.304
		c11.437,9.602,25.69,9.764,36.249-1.229c7.519-7.828,10.589-17.198,9.925-28.139c-0.589-9.707-3.939-17.761-11.431-23.974
		c-11.484-9.525-25.21-9.706-36.082,0.498C816.459,261.616,813.204,270.319,813.037,277.32z"/>
	<path style="fill:#EF5D51;" d="M794.292,329.893c-8.292,0-16.061,0-24.181,0c-4.553-11.812-9.127-23.679-13.772-35.729
		c-17.092,0-34.009,0-51.282,0c-4.585,11.766-9.206,23.623-13.906,35.683c-8.017,0-15.926,0-24.472,0
		c17.491-43.485,34.843-86.626,52.208-129.799c7.974,0,15.604,0,23.722,0C759.744,243.097,776.942,286.303,794.292,329.893z
		 M749.297,275.764c-6.173-16.748-12.216-33.143-18.617-50.509c-6.595,17.383-12.814,33.775-19.163,50.509
		C724.417,275.764,736.635,275.764,749.297,275.764z"/>
	<path style="fill:#EF5E51;" d="M1290.636,287.94c-25.917,0-52.157,0-78.379,0c-0.281,10.034,7.716,20.398,18.232,23.999
		c12.814,4.388,28.384,1.035,37.131-11.992c3.407,0.082,6.552,1.765,9.902,2.532c3.374,0.772,6.652,1.967,10.284,3.072
		c-3.65,8.244-9.406,14.538-17.078,18.785c-16.466,9.115-33.799,10.663-51.311,3.624c-16.658-6.695-26.673-19.597-30.161-37.01
		c-3.821-19.07,1.185-35.958,15.178-49.697c8.21-8.061,18.369-12.13,29.833-13.44c12.908-1.475,24.705,1.246,35.644,8.072
		c12.068,7.531,18.344,18.838,21.026,32.452c0.903,4.585,1.199,9.229,1.063,13.894
		C1291.948,284.028,1292.203,285.923,1290.636,287.94z M1212.052,270.767c19.225,0,38.075,0,56.925,0
		c-0.103-11.036-9.53-24.932-27.359-25.328C1226.677,245.108,1213.874,254.043,1212.052,270.767z"/>
	<path style="fill:#09344B;" d="M999.833,95.015c-26.712,0-53.137,0-79.614,0c2.066,13.048,10.026,22.156,21.56,24.949
		c13.113,3.174,26.727-1.359,34.307-13.188c6.638,1.267,13.127,3.679,19.668,5.426c0.77,1.736-0.451,2.726-1.062,3.768
		c-5.915,10.089-14.771,16.516-25.747,20.08c-15.877,5.155-31.647,4.953-46.285-3.483c-18.801-10.834-26.815-27.898-25.799-49.318
		c1.01-21.29,15.671-43.37,42.447-47.96c16.707-2.864,32.039,0.852,45.119,12.136c7.864,6.784,12.121,15.65,14.473,25.567
		C1000.601,80.167,1000.547,87.405,999.833,95.015z M977.608,78.543c-2.042-16.347-14.695-26.884-30.706-25.511
		c-17.687,1.516-26.545,15.348-26.009,25.511C939.788,78.543,958.683,78.543,977.608,78.543z"/>
	<path style="fill:#0C354C;" d="M1249.849,77.698c0-3.369,0.426-6.416-0.078-9.302c-1.667-9.546-9.381-15.98-19.189-16.49
		c-10.765-0.56-20.747,1.956-29.987,7.479c-0.847,0.507-1.693,1.017-2.953,1.774c-2.867-5.121-5.655-10.101-8.533-15.242
		c7.144-5.767,15.087-9.368,23.742-11.307c13.903-3.115,27.394-2.337,40.048,4.973c13.289,7.676,19.659,19.422,19.979,34.514
		c0.229,10.822,0.044,21.653,0.045,32.479c0,1.332-0.03,2.666,0.02,3.997c0.184,4.892,0.984,5.873,6.026,7.232
		c0,6.167,0,12.413,0,18.64c-12.052,3.561-21.833,1.655-25.856-11.311c-0.868-0.463-1.163,0.356-1.546,0.784
		c-7.946,8.891-18.307,12.277-29.791,12.962c-7.573,0.452-14.93-0.694-21.861-3.89c-15.732-7.255-22.47-26.173-14.874-41.759
		c3.374-6.924,9.058-11.39,16.04-14.221c9.371-3.799,19.062-5.293,29.232-4.336C1236.793,75.283,1243.153,76.352,1249.849,77.698z
		 M1249.952,93.276c-0.691-0.768-1.64-1.028-2.607-1.28c-5.637-1.468-11.408-1.96-17.181-2.554
		c-6.468-0.665-12.477,0.589-18.341,3.234c-11.345,5.117-9.866,19.58-2.354,25.122c4.831,3.564,10.178,4.572,15.975,4.25
		C1241.714,121.145,1252.748,109.14,1249.952,93.276z"/>
	<path style="fill:#0C354C;" d="M823.023,136.764c-7.807,0-14.935,0-21.998,0c-1.226-1.614-0.688-3.341-0.692-4.944
		c-0.043-17.328-0.014-34.656-0.037-51.984c-0.005-3.49-0.262-6.93-0.996-10.397c-2.36-11.16-11.676-17.801-24.599-14.145
		c-11.453,3.24-19.777,14.448-19.778,26.4c-0.002,16.661,0,33.323,0,49.984c0,1.628,0,3.256,0,5.095c-7.662,0-14.925,0-22.501,0
		c0-33.4,0-66.799,0-100.917c6.574-0.143,13.272-0.087,20.452-0.015c0,5.678,0,11.054,0,16.429c2.444-2.441,4.243-5.031,6.567-7.128
		c10.737-9.691,23.07-13.952,37.233-9.458c14.272,4.528,22.381,14.851,25.364,29.375c0.605,2.943,1.005,5.891,1.001,8.911
		c-0.03,19.827-0.015,39.654-0.015,59.481C823.023,134.426,823.023,135.4,823.023,136.764z"/>
	<path style="fill:#EE5C50;" d="M1299.151,329.861c0-33.693,0-66.975,0-100.558c6.844,0,13.559,0,20.606,0
		c0,5.417,0,10.699,0,16.818c3.435-3.624,5.767-7.152,9.103-9.732c11.051-8.545,23.26-11.38,36.504-6.526
		c13.717,5.027,20.986,15.64,23.66,29.699c0.938,4.929,1.007,9.909,1.001,14.903c-0.02,16.664-0.008,33.328-0.008,49.992
		c0,1.65,0,3.3,0,5.309c-7.405,0-14.599,0-21.846,0c-0.766-1.5-0.432-3.014-0.435-4.462c-0.027-15.831,0.094-31.663-0.081-47.491
		c-0.057-5.117-0.276-10.273-1.552-15.318c-3.077-12.161-11.591-17.028-24.342-13.788c-11.967,3.041-20.437,14.685-20.445,27.046
		c-0.01,16.331,0.007,32.661-0.018,48.992c-0.002,1.621,0.303,3.291-0.433,5.118
		C1313.779,329.861,1306.692,329.861,1299.151,329.861z"/>
	<path style="fill:#EF5D51;" d="M1474.113,298.768c6.07,2.061,12.477,4.236,19.33,6.562c-2.464,6.877-6.617,12.159-12.026,16.348
		c-8.793,6.808-18.833,10.202-30.031,10.507c-10.565,0.288-20.522-1.61-29.623-7.064c-13.477-8.076-21.663-20.07-24.483-35.382
		c-2.978-16.173,0.467-31.149,10.965-43.992c8.715-10.662,20.337-16.194,33.981-17.852c11.596-1.409,22.481,0.566,32.699,6.098
		c8.102,4.386,14.23,10.701,18.29,19.413c-7.026,2.411-13.714,4.706-20.441,7.014c-0.88-0.961-1.585-1.655-2.204-2.418
		c-7.577-9.351-17.448-12.471-28.936-9.917c-11.295,2.51-18.16,10.198-21.211,21.017c-3.356,11.903-1.49,23.099,6.539,32.849
		c13.646,16.571,37.655,10.859,44.992-1.291C1472.383,299.948,1472.853,299.252,1474.113,298.768z"/>
	<path style="fill:#EF5D51;" d="M1149.21,253.328c-7.109,2.435-13.673,4.683-20.308,6.956c-0.687-0.8-1.268-1.38-1.739-2.039
		c-10.662-14.935-36.45-15.521-47.244,2.885c-7.456,12.713-6.098,29.818,2.858,40.672c13.741,16.653,38.045,11.082,45.329-1.361
		c0.325-0.555,0.832-1.004,1.513-1.808c6.534,2.227,13.074,4.456,19.915,6.787c-2.38,7.04-6.773,12.195-12.208,16.382
		c-8.818,6.792-18.964,10.045-30.094,10.326c-16.725,0.422-31.081-4.875-42.174-17.702c-20.771-24.017-15.888-63.058,11.731-79.489
		c7.094-4.221,14.827-6.329,23.093-7.155c11.137-1.114,21.47,1.042,31.187,6.284C1139.02,238.354,1145.042,244.611,1149.21,253.328z
		"/>
	<path style="fill:#06334B;" d="M843.797,53.136c-4.691,0-8.627,0-12.772,0c0-5.8,0-11.228,0-16.942
		c3.958-1.007,8.139,0.103,12.618-0.745c0-9.637,0-19.214,0-29.063c7.704,0,14.925,0,22.64,0c0,9.755,0,19.324,0,29.375
		c8.382,0,16.286,0,24.406,0c0,5.913,0,11.338,0,17.273c-7.93,0-15.826,0-23.27,0c-1.664,1.759-1.155,3.336-1.158,4.768
		c-0.037,15.986,0.182,31.975-0.099,47.955c-0.176,10.035,6.119,13.945,15.424,11.003c2.024-0.64,3.865-1.861,6.232-3.033
		c2.837,5.12,5.699,10.286,8.698,15.698c-10.73,8.261-22.329,11.485-35.236,7.835c-10.572-2.989-17.036-11.761-17.213-23.062
		c-0.263-16.81-0.199-33.625-0.269-50.437C843.785,60.461,843.797,57.16,843.797,53.136z"/>
	<path style="fill:#0C354C;" d="M1289.609,6.22c7.31,0,14.44,0,21.598,0c1.208,1.747,0.64,3.634,0.642,5.388
		c0.041,31.314,0.151,62.628-0.052,93.941c-0.054,8.326,0.504,13.238,13.472,12.464c0.332-0.02,0.666-0.002,1.245-0.002
		c1.181,2.936,0.351,6.092,0.5,9.155c0.153,3.13,0.034,6.273,0.034,9.427c-6.661,2.271-13.189,2.43-19.432,0.685
		c-13.696-3.827-17.324-12.985-18.443-24.294c-0.147-1.487-0.096-2.996-0.096-4.494c-0.005-32.646-0.008-65.293,0.011-97.939
		C1289.089,9.252,1288.793,7.906,1289.609,6.22z"/>
	<path style="fill:#0F364D;" d="M691.519,6.154c7.841,0,15.156,0,22.785,0c0,43.378,0,86.642,0,130.101c-7.453,0-15.117,0-22.785,0
		C691.519,93.17,691.519,49.889,691.519,6.154z"/>
	<path style="fill:#09344B;" d="M1124.411,36.033c6.945,0,13.677,0,20.635,0c0,6.192,0,12.145,0,18.418
		c2.277-0.986,2.858-3.015,3.991-4.491c7.786-10.149,19.421-16.634,31.656-14.795c0,6.508,0,13.078,0,19.873
		c-3.29,1.402-7.049,0.728-10.549,1.821c-8.529,2.662-15.789,6.882-20.604,14.675c-1.692,2.738-2.615,5.545-2.587,8.889
		c0.144,16.985,0.066,33.971,0.066,50.957c0,1.653,0,3.306,0,5.29c-7.528,0-14.918,0-22.609,0
		C1124.411,103.222,1124.411,69.705,1124.411,36.033z"/>
	<path style="fill:#EF5E51;" d="M1179.555,329.88c-7.45,0-14.702,0-22.22,0c0-33.543,0-66.898,0-100.531c7.355,0,14.604,0,22.22,0
		C1179.555,262.634,1179.555,295.982,1179.555,329.88z"/>
	<path style="fill:#EF5E51;" d="M1157.333,196.087c7.609,0,14.742,0,22.229,0c0,7.128,0,14.174,0,21.574c-7.235,0-14.598,0-22.229,0
		C1157.333,210.596,1157.333,203.55,1157.333,196.087z"/>
	<path style="fill:#06334B;" d="M325.736,240.125c-1.994-0.075-3.988-0.215-5.983-0.216c-34.662-0.013-69.325-0.01-103.987-0.01
		c-1.823,0-3.647,0-5.615,0c-0.59-1.522,0.11-2.629,0.605-3.794c6.095-14.354,12.105-28.745,18.282-43.064
		c4.599-10.661,14.018-15.794,25.445-15.419c14.138,0.464,28.303,0.111,43.277,0.111c-13.691-32.076-27.611-63.474-41.722-95.947
		c-2.661,5.996-4.89,10.928-7.046,15.892c-20.358,46.872-40.702,93.75-61.061,140.622c-0.261,0.601-0.662,1.141-0.998,1.709
		c-22.217-0.02-44.434-0.041-66.651-0.061c0.12-2.741,1.656-4.982,2.687-7.383c23.353-54.417,46.734-108.822,70.13-163.221
		c5.897-13.712,11.733-27.453,17.827-41.078c7.108-15.894,19.799-23.558,36.958-24.138c5.492-0.186,11.002-0.21,16.492,0.005
		c16.958,0.661,29.692,8.27,36.544,23.997c11.924,27.369,23.4,54.933,35.055,82.419c17.159,40.469,34.314,80.94,51.457,121.416
		c1.099,2.594,2.074,5.241,3.107,7.863c-10.303,0.036-20.606,0.063-30.91,0.11C348.331,239.991,337.033,240.062,325.736,240.125z"/>
	<path style="fill:#04334A;" d="M0.246,239.95c-0.076-1.827-0.218-3.653-0.218-5.48C0.017,163,0.019,91.531,0.019,20.062
		c0-1.166-0.043-2.335,0.016-3.498C0.405,9.36,5.658,4.102,12.933,4.037c13.16-0.117,26.322-0.118,39.482,0.004
		c7.093,0.066,12.194,5.027,12.797,12.076c0.142,1.655,0.115,3.328,0.116,4.992c0.005,70.969,0.007,141.939-0.009,212.908
		c0,1.985,0.299,4.002-0.369,5.951C43.382,239.963,21.814,239.956,0.246,239.95z"/>
	<path style="fill:#EE5C50;" d="M120.282,239.949c22.217,0.02,44.434,0.041,66.651,0.061c-2.387,7.428-5.887,14.399-8.941,21.549
		c-9.585,22.44-19.301,44.823-28.978,67.224c-0.323,0.748-0.771,1.441-1.112,2.07c-5.659,0.756-62.281,0.593-66.496-0.287
		C94.395,300.291,107.339,270.12,120.282,239.949z"/>
	<path style="fill:#EE5C50;" d="M325.736,240.125c11.297-0.063,22.595-0.133,33.892-0.185c10.303-0.047,20.606-0.074,30.91-0.11
		c0.709,0.163,1.113,0.636,1.39,1.285c12.573,29.461,25.153,58.919,37.721,88.382c0.124,0.29,0.111,0.638,0.162,0.959
		c-3.256,1.048-57.55,1.442-66.332,0.441c-3.597-8.543-7.268-17.235-10.916-25.936c-8.533-20.354-17.059-40.711-25.568-61.075
		C326.486,242.67,326.151,241.38,325.736,240.125z"/>
	<path style="fill:#EE5B4F;" d="M0.246,239.95c21.568,0.006,43.135,0.013,64.703,0.019c0.08,1.156,0.228,2.313,0.229,3.469
		c0.013,27.781,0.015,55.562-0.006,83.343c-0.001,1.296,0.304,2.647-0.51,4.196c-21.248,0-42.625,0-64.101,0
		c-0.746-0.695-0.534-1.742-0.534-2.715c-0.009-28.613-0.009-57.225,0.002-85.838C0.03,241.599,0.171,240.774,0.246,239.95z"/>
</g>
</svg>
