<?xml version="1.0" encoding="iso-8859-1"?>
<!-- Generator: Adobe Illustrator 27.0.0, SVG Export Plug-In . SVG Version: 6.00 Build 0)  -->
<svg version="1.1" id="Layer_1" xmlns="http://www.w3.org/2000/svg" xmlns:xlink="http://www.w3.org/1999/xlink" x="0px" y="0px"
	 viewBox="0 0 1591.276 126" style="enable-background:new 0 0 1591.276 126;" xml:space="preserve">
<g>
	<path style="fill:#234197;" d="M127.276,0c-0.007,7.14-0.021,14.28-0.02,21.42c0.004,27.909-0.069,55.819,0.068,83.727
		c0.041,8.402-2.171,15.575-9.048,20.852c-39,0-78,0-117,0c0.002-29.852,0.007-59.704-0.002-89.555
		c-0.001-1.819-0.114-3.638-0.174-5.458c0.056-4.96,0.122-9.92,0.167-14.88C1.325,9.533,4.6,4.91,9.997,1.52
		c0.768-0.482,2.091-0.174,2.278-1.52C50.609,0,88.942,0,127.276,0z M97.37,21.227c-2.426-0.447-4.116,0.472-5.889,0.829
		c-18.236,3.669-36.462,7.385-54.684,11.124c-5.289,1.085-7.289,3.463-7.634,8.901c-0.084,1.328-0.047,2.664-0.033,3.997
		c0.194,19.315,1.743,38.601,1.198,57.932c-0.025,0.905-0.252,2.033,1.022,2.668c19.427-3.939,38.951-7.875,58.463-11.876
		c2.955-0.606,5.811-1.573,7.557-4.837C97.37,67.333,97.37,44.397,97.37,21.227z"/>
	<path style="fill:#595A5D;" d="M587.276,126c-2.084-3.32-3.07-6.905-3.067-10.859c0.013-15.658-0.565-31.319,0.118-46.972
		c0.498-11.402,7.533-25.351,22.225-29.39c11.67-3.208,21.877-0.666,29.95,8.26c7.606,8.41,10.818,18.446,9.088,29.931
		c-0.818,5.426-1.5,10.861-3.309,16.059c-5.557,15.966-25.086,22.165-38.978,12.414c-1.073-0.753-2.162-1.482-4.027-2.757
		c0,8.245,0,15.779,0,23.314C595.276,126,591.276,126,587.276,126z M600.209,73.177c-0.372,5.291,0.556,10.347,2.868,15.027
		c2.661,5.387,7.18,8.05,13.241,8.05c5.669,0.001,8.616-3.553,10.873-8.123c4.645-9.407,3.477-18.714-0.721-27.815
		c-2.461-5.335-8.299-8.051-14.582-7.402c-5.224,0.539-8.848,3.905-10.41,9.962C600.609,66.25,599.896,69.684,600.209,73.177z"/>
	<path style="fill:#284399;" d="M1591.276,95c-1.448,0.66-1.204,2.251-1.773,3.378c-1.164,2.304-2.708,4.275-4.864,5.566
		c-14.269,8.546-34.96,6.106-45.751-4.44c1.671-2.371,3.586-4.546,5.995-6.459c4.586,3.844,9.403,7.013,15.472,7.666
		c5.019,0.539,9.964,0.643,14.654-1.648c5.335-2.606,7.879-7.612,6.531-12.505c-0.725-2.631-2.31-4.384-4.702-5.457
		c-2.745-1.231-5.631-1.946-8.646-2.176c-3.646-0.278-7.291-0.586-10.926-0.979c-8.162-0.883-13.45-5.342-14.872-12.451
		c-1.626-8.128,1.788-16.693,8.171-20.492c0.429-0.255,0.847-0.557,1.311-0.72c12.088-4.24,23.756-3.833,34.796,3.222
		c0.693,0.443,1.324,1.019,1.514,1.848c-1.858,1.906-3.699,3.794-5.663,5.808c-7.45-5.275-15.563-6.519-24.205-4.04
		c-5.316,1.525-7.913,5.655-7.014,11.027c0.591,3.532,2.428,6.002,6.116,7.064c3.756,1.081,7.582,0.874,11.383,1.148
		c3.973,0.287,7.917,0.593,11.734,1.933c4.984,1.75,7.818,5.308,9.41,10.19c0.382,1.17-0.207,2.779,1.33,3.519
		C1591.276,89,1591.276,92,1591.276,95z"/>
	<path style="fill:#E3E3F2;" d="M1.099,30.987c0.061,1.819,0.174,3.638,0.174,5.458C1.283,66.296,1.278,96.148,1.276,126
		c-2.145-0.396-0.936-2.05-0.938-3C0.262,93.333,0.276,63.667,0.276,34c0-1,0-2,0-3l0.412-0.014L1.099,30.987z"/>
	<path style="fill:#5A5B5D;" d="M473.343,76.247c-0.184-5.349,0.621-10.583,1.72-15.808c2.228-10.593,8.641-17.229,18.78-20.612
		c6.128-2.045,12.315-2.697,18.633-1.28c9.295,2.086,15.828,7.916,19.551,16.339c6.77,15.314,5.173,30.053-4.579,43.802
		c-2.187,3.084-5.149,5.263-8.473,6.786c-10.274,4.708-20.787,4.787-30.752-0.422c-8.961-4.684-13.891-12.633-14.852-22.814
		C473.182,80.258,473.343,78.245,473.343,76.247z M520.293,75.168c0.085-6.731-1.511-12.412-4.768-17.579
		c-3.091-4.903-8.968-6.892-15.383-5.396c-5.661,1.32-9.297,5.195-9.788,11.088c-0.51,6.123-0.658,12.286-0.067,18.421
		c0.538,5.592,3.31,9.6,8.658,11.706c8.433,3.321,17.443-0.036,19.734-9.076C519.495,81.11,520.512,77.951,520.293,75.168z"/>
	<path style="fill:#5A5B5D;" d="M323.522,80.178c0.284,9.172,5.649,14.754,15.102,15.835c4.768,0.545,9.554,1.365,14.396,0.236
		c1.751-0.408,3.63-0.272,5.623-0.395c1.175,1.926,1.584,3.981,1.517,6.149c-0.067,2.193-1.026,3.941-3.15,4.625
		c-13.597,4.375-26.758,4.939-38.702-4.645c-4.699-3.77-7.739-8.658-9.504-14.315c-3.321-10.647-3.784-21.258,1.433-31.499
		c4.882-9.583,12.696-15.823,23.116-18.23c13.578-3.137,31.035,3.437,33.495,22.104c1.496,11.357-2.86,16.453-13.041,18.899
		c-6.691,1.608-13.58,1.067-20.393,1.223C330.119,80.241,326.821,80.178,323.522,80.178z M323.002,69.805
		c7.488,0.413,14.748,0.472,21.924-0.85c3.202-0.59,6.119-2.449,7.152-5.545c1.176-3.523-0.395-6.84-2.845-9.544
		c-1.224-1.35-2.802-2.271-4.562-2.899C333.102,46.834,321.063,56.918,323.002,69.805z"/>
	<path style="fill:#5B5B5E;" d="M207.176,108.347c-5.306,0.609-9.732,0.366-14.655,0.28c-0.085-4.664-0.231-9.092-0.234-13.519
		c-0.008-10.484-0.057-20.969,0.114-31.451c0.197-12.142,6.917-20.872,18.483-24.164c6.489-1.847,13.108-2.104,19.724-0.738
		c12.231,2.525,19.785,11.535,20.913,23.927c1.166,12.798,0.281,25.587,0.437,38.377c0.026,2.1-0.514,4.207-0.813,6.466
		c-4.522,0-8.805,0-13.109,0c-1.164-0.839-0.78-2.105-0.748-3.198c0.366-12.477-0.54-24.922-0.949-37.378
		c-0.187-5.718-1.939-10.671-7.2-13.947c-9.177-5.712-20.822,1.562-21.229,10.6c-0.478,10.63-0.943,21.235-0.747,31.873
		C207.239,99.611,207.176,103.75,207.176,108.347z"/>
	<path style="fill:#284399;" d="M1159.469,96.21c2.471-2.061,4.754-3.964,7.28-6.071c0.891,0.702,2.262,1.842,3.693,2.9
		c9.654,7.134,20.337,8.571,31.735,5.513c12.679-3.402,14.033-17.767,9.512-25.527c-1.442-2.474-3.592-4.212-6.433-5.231
		c-5.521-1.982-11.291-2.695-16.993-3.78c-4.402-0.837-8.74-1.791-12.956-3.451c-7.622-3.003-11.695-8.85-12.79-16.498
		c-2.181-15.226,5.859-29.073,23.856-31.221c5.542-0.661,10.984-0.285,16.4,0.31c6.71,0.737,11.851,4.863,17.081,9.154
		c-1.669,2.447-3.486,4.489-5.934,6.266c-5.128-3.131-10.364-6.009-16.293-7.146c-7.735-1.484-14.949-0.549-20.827,5.284
		c-4.842,4.805-6.171,12.876-3.305,18.985c1.51,3.218,4.174,5.031,7.318,6.397c5.1,2.215,10.548,2.917,15.94,3.906
		c3.264,0.599,6.536,1.198,9.757,1.991c14.217,3.498,18.345,16.491,17.318,26.705c-1.043,10.37-6.696,17.353-16.279,21.466
		C1192.299,112.705,1171.746,108.732,1159.469,96.21z"/>
	<path style="fill:#2B459A;" d="M692.814,57.087c13.398,0,26.487,0,39.309,0c1.235,1.784,0.672,3.321,0.759,4.773
		c0.078,1.31,0.016,2.629,0.016,4.414c-4.664,0.768-9.118,0.272-13.528,0.36c-4.327,0.086-8.657,0.019-12.985,0.019
		c-4.452,0-8.903,0-13.574,0c-0.707,14.212-0.132,27.833-0.429,41.285c-1.784,1.174-3.495,0.658-5.112,0.678
		c-1.63,0.02-3.319,0.386-5.259-0.525c0-31.559,0-63.258,0-94.955c3.442-0.979,51.376-1.23,57.81-0.267c0,2.72,0,5.486,0,8.964
		c-5.049,0.014-10.133,0.034-15.218,0.041c-5.327,0.007-10.655,0.002-15.982,0.002c-5.154,0-10.308,0-15.808,0
		C692.814,33.49,692.814,44.892,692.814,57.087z"/>
	<path style="fill:#5B5B5E;" d="M281.262,51.001c-0.194,12.138-0.486,23.617-0.069,35.097c0.175,4.819,2.99,8.135,7.748,8.973
		c2.248,0.396,4.483,1.009,6.894,0.334c1.719-0.481,3.636-0.277,5.466-0.321c0.459-0.011,0.924,0.201,1.858,0.422
		c0,1.757,0.101,3.553-0.019,5.334c-0.351,5.216-2.501,7.465-7.667,8.113c-3.445,0.432-6.863,0.572-10.361,0.168
		c-10.835-1.251-17.938-8.387-18.843-19.154c-1.061-12.621-0.927-25.266-0.882-37.91c0.025-6.827,0.128-13.654,0.156-20.482
		c0.014-3.488,0.478-6.906,1.222-10.526c4.325-1.991,8.731-1.055,13.522-0.958c0,5.736,0,11.153,0,16.964c7.662,0,14.916,0,21.876,0
		c0.482,0.667,0.807,0.913,0.842,1.194c1.27,10.26-0.678,12.538-10.962,12.741C288.587,51.058,285.13,51.001,281.262,51.001z"/>
	<path style="fill:#5A5B5D;" d="M467.246,93.975c1.621,7.607-0.13,10.792-6.612,13.373c-17.296,6.888-42.89-2.716-46.42-26.584
		c-2.001-13.528,0.917-25.401,10.918-35.081c5.235-5.067,11.616-7.575,18.911-7.683c5.83-0.087,11.626,0.192,17.309,1.666
		c4.508,1.169,5.771,2.64,5.918,7.245c0.058,1.802,0.318,3.643-0.375,5.747c-4.984-0.857-9.956-1.772-15.048-1.978
		c-11.067-0.448-18.237,7.768-20.246,15.269c-2.139,7.986-0.784,15.447,3.965,22.252c3.934,5.637,9.436,8.037,16.213,8.101
		C456.957,96.35,461.924,95.089,467.246,93.975z"/>
	<path style="fill:#294499;" d="M1096.212,108.461c-2.922,0-5.71,0-8.398,0c-1.292-1.623-0.297-3.417-0.957-5.154
		c-1.746-0.044-2.762,1.471-4.143,2.19c-10.238,5.331-20.431,5.662-30.195-0.886c-6.712-4.501-8.377-11.414-7.056-18.958
		c1.228-7.013,5.62-11.516,12.538-13.409c4.864-1.331,9.846-1.428,14.849-1.363c4.617,0.06,9.235,0.013,13.943,0.013
		c0.807-4.346,0.255-8.284-0.635-12.141c-0.941-4.078-3.703-6.609-7.718-7.693c-9.183-2.479-17.457-0.95-24.596,5.845
		c-2.43-1.178-3.982-3.344-6.269-5.037c3.538-5.728,8.709-8.579,14.718-9.466c6.576-0.97,13.277-1.126,19.827,0.691
		c8.507,2.36,13.137,7.799,14.264,16.584c0.382,2.975,0.561,5.945,0.551,8.944c-0.039,11.495,0.003,22.99-0.037,34.485
		C1096.891,104.731,1097.311,106.427,1096.212,108.461z M1086.846,78.096c-7.98,0.332-15.577-0.552-23.15,0.827
		c-5.589,1.018-9.15,4.96-9.241,10.563c-0.089,5.473,3.071,9.418,8.364,10.75c4.97,1.251,9.876,1.061,14.709-0.434
		c5.007-1.549,8.088-4.847,8.924-10.203C1087.017,85.989,1087.374,82.413,1086.846,78.096z"/>
	<path style="fill:#284399;" d="M844.253,56.975c-2.155-1.807-4.255-3.379-5.94-5.582c2.697-4.057,6.142-7.288,10.857-8.309
		c8.544-1.849,17.182-2.171,25.557,0.979c7.053,2.653,11.331,7.891,11.474,15.412c0.308,16.135,0.094,32.28,0.094,48.604
		c-2.774,1.065-5.525,0.413-8.225,0.474c-1.161-1.69,0.115-3.495-0.72-5.031c-1.388-0.424-2.052,0.76-2.942,1.298
		c-8.042,4.865-16.662,5.55-25.497,3.091c-12.949-3.603-17.948-19.536-9.712-30.281c1.809-2.36,4.289-3.606,6.962-4.603
		c5.569-2.077,11.372-2.217,17.216-2.128c4.625,0.07,9.251,0.014,14.059,0.014c0.37-4.51,0.423-8.606-1.161-12.549
		c-1.58-3.934-4.235-6.6-8.561-7.547C858.901,48.887,850.869,49.818,844.253,56.975z M877.307,78.212
		c-8.465,0.016-16.901-0.743-25.229,1.022c-4.736,1.004-7.747,5.604-7.655,10.893c0.088,5.06,2.764,8.551,7.46,9.884
		c3.4,0.965,6.863,1.217,10.349,0.934c8.696-0.708,13.334-4.187,14.762-11.424C877.69,85.985,877.988,82.326,877.307,78.212z"/>
	<path style="fill:#284399;" d="M1533.598,78.076c-13.864,0-27.793,0-41.646,0c-2.802,14.657,8.787,25.204,23.268,21.551
		c2.246-0.566,4.419-1.392,6.477-2.544c1.898-1.062,3.492-2.511,5.256-3.849c2.424,1.123,3.821,3.253,6.132,4.97
		c-4.258,4.75-8.5,8.626-14.727,9.889c-5.453,1.106-10.843,1.481-16.308,0.28c-7.856-1.727-13.591-6.243-16.791-13.542
		c-5.711-13.028-5.769-26.314,0.288-39.138c7.483-15.844,29.546-18.907,41.699-6.208c1.644,1.718,2.838,3.693,3.788,5.818
		C1533.733,61.334,1534.767,70.479,1533.598,78.076z M1491.548,70.77c11.407,0,22.484,0,33.693,0
		c-0.55-2.998-1.111-5.752-1.553-8.525c-1.507-9.461-13.026-13.737-19.989-11.694C1494.808,53.16,1490.379,60.085,1491.548,70.77z"
		/>
	<path style="fill:#31499C;" d="M902.88,42.999c2.8-0.631,5.424-0.308,7.901-0.287c1.757,1.516,0.046,3.769,1.511,5.25
		c1.852,0.139,2.84-1.433,4.173-2.278c14.374-9.105,32.19-2.736,36.495,13.067c1.023,3.754,0.746,7.614,0.799,11.406
		c0.175,12.62,0.066,25.244,0.066,38.197c-3.245,0.601-6.353,0.268-9.37,0.226c-1.393-1.324-0.818-2.916-0.831-4.339
		c-0.115-12.98-0.506-25.97-0.132-38.937c0.286-9.905-8.164-15.215-15.546-15.227c-7.579-0.012-15.264,4.509-15.917,14.534
		c-0.411,6.298-0.341,12.63-0.385,18.948c-0.057,8.131-0.014,16.263-0.014,24.672c-3.026,0.754-5.748,0.444-8.752,0.264
		C902.88,86.563,902.88,64.863,902.88,42.999z"/>
	<path style="fill:#264398;" d="M1277.793,93.352c1.82,1.499,3.596,2.961,5.634,4.639c-3.76,5.636-8.982,8.923-15.297,10.293
		c-10.886,2.362-20.953,0.87-28.772-7.884c-4.233-4.739-5.734-10.883-6.758-16.914c-1.344-7.912-1.027-15.859,1.554-23.614
		c5.784-17.38,26.52-23.961,40.912-12.942c5.859,4.486,7.855,10.984,8.944,17.791c0.677,4.231,0.63,8.573,0.227,13.331
		c-14.047,0-27.957,0-42.177,0c-0.291,5.65,0.456,10.61,3.193,15.093c2.862,4.687,7.597,6.255,12.685,6.869
		c6.2,0.748,11.888-0.687,16.892-4.542C1275.747,94.767,1276.712,94.123,1277.793,93.352z M1241.598,70.657
		c11.537,0,22.708,0,33.887,0c-0.643-13.463-7.125-21-17.479-20.647C1247.937,50.353,1241.345,58.507,1241.598,70.657z"/>
	<path style="fill:#2B459A;" d="M824.755,108.391c-3.089,0.549-6.16,0.147-9.044,0.215c-0.956-2.052-0.578-3.739-0.584-5.371
		c-0.038-11.331-0.06-22.663,0.013-33.994c0.015-2.36-0.288-4.646-0.792-6.915c-1.75-7.876-8.134-12.952-15.858-12.225
		c-8.638,0.813-14.348,5.317-15.242,14.242c-0.265,2.645-0.297,5.322-0.306,7.984c-0.033,10.165-0.013,20.33-0.013,30.494
		c0,1.653,0,3.306,0,5.026c-2.921,1.373-5.649,0.765-8.595,0.557c0-21.838,0-43.425,0-65.336c2.696-0.391,5.293-0.285,7.851-0.094
		c1.438,1.655,0.216,3.68,1.062,5.407c1.216,0.59,1.631-0.68,2.27-1.189c6.779-5.396,14.609-6.599,22.678-4.713
		c8.734,2.041,13.65,8.409,15.963,16.845c0.479,1.748,0.722,3.612,0.738,5.426c0.128,13.993,0.176,27.987,0.23,41.98
		C825.128,107.198,824.924,107.664,824.755,108.391z"/>
	<path style="fill:#5B5B5E;" d="M407.646,39.349c2.871,3.336,1.005,7.236,1.451,11.186c-2.329,0.462-4.393,0.91-6.472,1.276
		c-6.327,1.114-9.338,4.112-10.256,10.408c-0.215,1.474-0.189,2.987-0.225,4.483c-0.312,13.133-0.61,26.267-0.921,39.4
		c-0.016,0.653-0.11,1.305-0.184,2.149c-4.486,1.279-8.853-0.497-13.626-0.098c-0.284-3.806-0.745-7.402-0.784-11.003
		c-0.115-10.647-0.039-21.295-0.089-31.943c-0.016-3.513,0.375-7.006,1.155-10.38c2.1-9.08,9.211-15.063,19.084-16.455
		C400.689,37.823,403.83,38.098,407.646,39.349z"/>
	<path style="fill:#284399;" d="M1398.833,43.278c-7.931,21.674-15.784,43.132-23.684,64.721c-2.793,0.142-5.405,0.275-8.413,0.428
		c-7.93-21.683-15.829-43.282-23.812-65.113c3.632-0.825,6.909-0.388,10.508-0.381c6.02,16.83,10.21,34.265,17.291,51.477
		c6.017-17.581,11.789-34.447,17.595-51.413C1391.845,42.827,1395.116,42.561,1398.833,43.278z"/>
	<path style="fill:#5A5B5D;" d="M576.245,38.333c3.022,4.003,1.791,7.926,1.494,11.644c-1.788,1.173-3.519,0.747-5.13,0.988
		c-6.275,0.937-10.814,5.67-11.601,11.849c-1.29,10.123-0.665,20.283-0.766,30.429c-0.05,4.968-0.009,9.936-0.009,15.083
		c-4.618,1.005-8.838-0.574-12.92-0.241c-1.338-1.251-0.827-2.67-0.857-3.937c-0.237-9.984-0.271-19.97-0.65-29.955
		c-0.226-5.966,0.271-11.979,0.746-17.947c1.022-12.829,11.244-18.198,20.751-19.065c1.319-0.12,2.679-0.116,3.988,0.065
		C572.921,37.472,574.517,37.942,576.245,38.333z"/>
	<path style="fill:#294499;" d="M1014.072,52.18c-1.716,1.502-3.567,3.121-5.622,4.918c-3.634-2.638-7.033-5.532-11.562-6.593
		c-8.78-2.058-18.406,3.091-20.909,11.776c-2.487,8.626-2.528,17.283,0.082,26.013c2.121,7.092,7.566,10.892,15.046,11.764
		c5.789,0.675,10.923-0.454,14.865-5.134c0.528-0.627,1.251-1.088,2.087-1.799c2.663,1.459,4.223,4.012,6.201,6.114
		c-11.358,13.653-29.843,12.064-40.674,2.713c-5.146-4.443-6.681-10.963-8.153-17.275c-2.06-8.834-0.959-17.479,2.053-25.968
		c3.252-9.164,9.916-14.576,19.157-16.315c9.937-1.871,19.273-0.333,26.442,7.818c0.328,0.373,0.608,0.79,0.881,1.206
		C1014.044,51.533,1014.015,51.717,1014.072,52.18z"/>
	<path style="fill:#294499;" d="M1468.053,93.128c2.533,2.373,4.576,4.286,6.601,6.183c-5.85,8.139-17.789,11.359-27.272,9.071
		c-14.795-3.57-19.936-14.652-21.937-27.08c-1.2-7.459-0.158-14.874,2.684-22.023c4.343-10.923,12.619-16.837,24.338-17.423
		c9.081-0.454,16.594,2.257,22.193,9.803c-1.474,2.161-3.507,3.598-5.469,5.22c-1.565-0.385-2.409-1.715-3.545-2.572
		c-13.086-9.877-27.014-1.341-29.783,10.562c-1.623,6.976-1.802,14.252,0.298,21.224c4.048,13.436,12.965,14.87,23.054,13.789
		c2.378-0.255,4.228-1.908,5.962-3.457C1466.286,95.435,1467.155,94.175,1468.053,93.128z"/>
	<path style="fill:#57595B;" d="M164.348,20.141c4.329,0,8.292,0,12.613,0c0,29.034,0,58.051,0,87.024
		c-1.1,0.889-2.311,0.504-3.435,0.525c-2.965,0.055-5.933,0.019-9.178,0.019C164.348,78.381,164.348,49.485,164.348,20.141z"/>
	<path style="fill:#2A459A;" d="M1298.405,43.041c3.15,0,6.069,0,8.873,0c1.286,1.81,0.074,3.824,1.271,5.928
		c5.956-7.023,13.872-7.669,22.191-6.973c4.278,0.358,7.26,2.858,10.263,5.902c-1.934,2.654-3.969,4.991-6.345,7.241
		c-4.706-4.848-10.168-6.203-16.45-3.932c-6.058,2.191-9.648,7.012-9.943,13.539c-0.579,12.801-0.256,25.611-0.362,38.417
		c-0.013,1.62,0.434,3.318-0.658,5.202c-2.721,0.574-5.632,0.23-8.84,0.184C1298.405,86.696,1298.405,65.139,1298.405,43.041z"/>
	<path style="fill:#284399;" d="M1133.091,100.063c0.373,3.058,0.441,5.616-0.032,8.456c-4.36,0.262-8.548-0.07-12.464-1.121
		c-6.287-1.686-9.403-6.48-10.246-12.788c-0.176-1.313-0.131-2.66-0.132-3.991c-0.022-24.648-0.04-49.295-0.039-73.943
		c0-1.142-0.271-2.332,0.438-3.607c2.583-0.856,5.312-0.848,7.983-0.527c0.98,1.829,0.55,3.518,0.552,5.132
		c0.033,22.982,0.021,45.965,0.026,68.947c0,1.665-0.064,3.341,0.097,4.992c0.485,4.972,3.795,8.153,8.734,8.435
		C1129.634,100.141,1131.268,100.063,1133.091,100.063z"/>
	<path style="fill:#2B459A;" d="M750.76,43.014c3.219,0,6.151,0,9.354,0c0,21.736,0,43.307,0,65.147
		c-2.952,0.917-6.009,0.422-9.354,0.361C750.76,86.7,750.76,65.147,750.76,43.014z"/>
	<path style="fill:#264398;" d="M1405.562,42.788c2.904-0.897,5.49-0.178,8.401,0.203c0,21.669,0,43.351,0,65.249
		c-2.63,0.776-5.379,0.287-8.401,0.338C1405.562,86.443,1405.562,64.626,1405.562,42.788z"/>
	<path style="fill:#264398;" d="M1025.474,43.033c2.829,0,5.448,0,8.422,0c0,21.63,0,43.319,0,65.24
		c-2.646,0.699-5.393,0.306-8.422,0.263C1025.474,86.565,1025.474,64.894,1025.474,43.033z"/>
	<path style="fill:#384D9E;" d="M1414.967,12.42c0.333,3.882,0.328,7.29,0.027,10.945c-3.395,0.605-6.636,0.311-10.165,0.224
		c-0.942-3.639-0.228-7.181-0.49-10.913C1407.953,12.039,1411.195,12.334,1414.967,12.42z"/>
	<path style="fill:#384D9E;" d="M1024.483,23.787c0-4.177,0-7.618,0-11.267c3.511,0,6.774,0,10.372,0c0,3.533,0,6.953,0,10.66
		C1031.665,24.332,1028.239,23.362,1024.483,23.787z"/>
	<path style="fill:#384D9E;" d="M760.357,23.557c-3.376,0-6.316,0-9.545,0c-0.795-3.628-0.482-7.143-0.201-10.848
		c3.106-0.77,6.038-0.27,9.28-0.395C760.554,15.992,760.95,19.482,760.357,23.557z"/>
</g>
</svg>
