<?xml version="1.0" encoding="iso-8859-1"?>
<!-- Generator: Adobe Illustrator 27.0.0, SVG Export Plug-In . SVG Version: 6.00 Build 0)  -->
<svg version="1.1" id="Layer_1" xmlns="http://www.w3.org/2000/svg" xmlns:xlink="http://www.w3.org/1999/xlink" x="0px" y="0px"
	 viewBox="0 0 1542 553" style="enable-background:new 0 0 1542 553;" xml:space="preserve">
<g>
	<path style="fill:#369DD7;" d="M118,0c2.156,1.912,5.023,1.299,7.466,1.72c17.201,2.96,32.579,10.01,46.217,20.618
		c21.08,16.396,34.334,37.78,39.422,64.141c5.045,26.139,0.549,50.642-12.272,73.778c-0.388,0.7-1.055,1.246-1.593,1.863
		c-4.985-2.344-8.842-6.278-13.081-9.611c-8.53-6.708-17.205-13.232-25.584-20.144c-7.72-6.368-15.992-12.059-23.877-18.233
		c-11.651-9.123-23.115-18.485-34.768-27.604c-9.7-7.591-19.622-14.898-29.331-22.479C57.641,53.933,44.8,43.667,31.879,33.503
		c-0.465-0.366-1.236-0.341-1.865-0.499c2.754-3.769,6.297-6.715,9.944-9.557C53.967,12.527,69.552,5.128,87.093,1.833
		C89.714,1.341,92.678,1.892,95,0C102.667,0,110.333,0,118,0z"/>
	<path style="fill:#3F96D2;" d="M164.941,214.225c-12.211-1.432-24.439-2.951-36.754-1.985c-7.799,0.612-15.588,0.819-23.399,0.849
		c-13.271,0.05-25.875-2.799-38.181-7.731c-20.241-8.113-36.268-21.383-48.456-39.223C9.066,152.836,3.572,137.96,1.045,122.028
		C0.915,121.208,0.981,120.353,0,120c0-8,0-16,0-24c1.831-2.738,0.357-6.232,2.06-8.999c1.593-0.192,2.735,0.484,4.004,1.482
		c10.984,8.643,22.035,17.2,33.005,25.863c10.056,7.941,20.275,15.689,30.366,23.594c9.58,7.504,18.965,15.266,28.715,22.542
		c11.727,8.751,23.086,17.966,34.69,26.87c9.907,7.602,19.784,15.243,29.67,22.873C163.827,211.241,165.265,212.203,164.941,214.225
		z"/>
	<path style="fill:#233056;" d="M1542,214c-2.464,0-4.928,0-7.728,0c-1.095-16.152-2.211-31.849-2.599-47.65
		c-5.281,15.827-11.189,31.394-16.85,46.835c-1.869,0.916-3.513,0.359-5.472,0.547c-5.444-14.518-10.006-29.222-15.499-43.726
		c-1.012,14.576-2.035,29.012-3.061,43.668c-2.379,0-4.446,0-7.083,0c1.304-18.903,2.592-37.558,3.891-56.385
		c3.256,0,6.044,0,9.391,0c5.415,14.85,11.002,29.855,15.452,45.916c4.646-15.914,10.488-30.769,16.071-45.901
		c3.032,0,5.964,0,9.03,0c1.433,7.444,1.249,14.913,1.796,22.313c0.687,9.282,1.105,18.583,1.711,27.871
		c0.078,1.19-0.722,2.718,0.949,3.512C1542,212,1542,213,1542,214z"/>
	<path style="fill:#1F2D54;" d="M909,553c0-31.777,0-63.554,0-95.339c1.746-1.327,3.616-0.269,5.477-0.826
		c1.146,3.345,0.062,6.673,0.724,9.824c1.141-0.02,1.463-0.915,1.968-1.498c7.665-8.854,17.484-11.24,28.44-8.706
		c11.219,2.594,18.008,10.269,21.018,21.137c2.373,8.566,1.794,17.044-2.029,25.25c-8.422,18.079-34.462,21.171-47.503,6.487
		c-0.528-0.594-0.758-1.491-2.082-1.8c0,4.513,0,8.917,0,13.321c0,8.988,0.01,17.976-0.009,26.963
		C915,549.596,915.369,551.473,914,553C912.333,553,910.667,553,909,553z M914.732,487.613c0.071,1.495,0.03,3.005,0.231,4.481
		c1.216,8.91,5.609,15.588,14.163,18.889c8.86,3.419,17.121,2.723,24.6-3.909c11.204-9.934,10.614-29.892,0.067-39.862
		c-10.688-10.103-27.631-7.514-35.111,5.164C915.911,477.075,914.669,482.17,914.732,487.613z"/>
	<path style="fill:#3D98D4;" d="M2.06,87.001c0.681-6.442,2.655-12.575,5.021-18.522c4.987-12.532,11.735-24.045,21.02-33.947
		c0.552-0.589,1.271-1.022,1.913-1.528c0.629,0.157,1.4,0.133,1.865,0.499c12.92,10.165,25.762,20.43,38.72,30.547
		c9.709,7.58,19.631,14.887,29.331,22.479c11.653,9.12,23.118,18.481,34.768,27.604c7.884,6.174,16.157,11.866,23.877,18.233
		c8.379,6.912,17.055,13.435,25.584,20.144c4.239,3.333,8.096,7.267,13.081,9.611c-0.945,1.747-1.903,3.487-2.834,5.241
		c-3.838,7.231-6.434,14.888-7.299,23.03c-1.099,10.347,1.358,19.717,8.045,27.916c7.595,9.313,15.823,17.962,25.167,25.555
		c8.648,7.027,18.356,8.169,29.067,6.575c9.033-1.344,17.769-3.836,26.652-5.723c15.782-3.353,31.096-1.885,45.764,4.293
		c27.031,11.385,43.828,31.642,49.222,60.547c5.059,27.109-2.344,50.784-21.646,70.619c-6.479-3.358-11.686-8.46-17.452-12.79
		c-7.351-5.519-14.56-11.225-21.826-16.856c-7.529-5.835-15.094-11.624-22.569-17.527c-8.641-6.824-17.073-13.92-25.829-20.593
		c-11.885-9.057-23.708-18.188-35.405-27.486c-1.832-1.456-3.684-3.478-6.534-2.929c0.125-3.151,0.195-6.305,0.387-9.452
		c0.252-4.144-1.119-7.748-3.236-11.233c-3.893-6.409-8.659-12.135-13.813-17.506c-6.779-7.064-13.791-13.907-20.78-20.765
		c-4.361-4.28-9.709-6.778-15.65-8.037c-0.654-0.139-1.304-0.172-1.73-0.773c0.323-2.022-1.115-2.984-2.431-4
		c-9.886-7.63-19.763-15.271-29.67-22.873c-11.604-8.904-22.963-18.119-34.69-26.87c-9.75-7.275-19.135-15.038-28.715-22.542
		c-10.092-7.905-20.311-15.653-30.366-23.594c-10.97-8.663-22.021-17.22-33.005-25.863C4.795,87.484,3.653,86.809,2.06,87.001z"/>
	<path style="fill:#182951;" d="M959.339,331.674c-12.218,22.251-28.301,39.903-50.794,51.212
		c-20.487,10.3-42.372,13.942-64.93,11.701c-46.573-4.627-80.423-33.359-93.077-77.585c-10.163-35.522-7.319-70.509,9.505-103.771
		c13.74-27.164,35.447-45.008,65.037-52.459c23.291-5.864,46.625-5.173,69.18,3.49c26.541,10.194,44.711,29.282,56.006,55.161
		c8.957,20.522,11.79,42.044,10.693,64.762c-58.695,0-117.243,0-176.02,0c-0.487,10.646,1.558,20.35,5.331,29.619
		c9.35,22.967,25.939,38.136,50.27,43.485c28.779,6.326,53.251-1.645,72.516-24.371c5.17-6.099,9.605-12.712,13.657-19.989
		C937.636,319.203,948.37,325.371,959.339,331.674z M920.718,251.578c-0.982-7.71-3.518-14.673-6.91-21.322
		c-13.375-26.212-41.366-41.959-70.186-36.238c-26.772,5.314-44.806,21.392-54.487,46.799c-1.257,3.299-2.663,6.786-2.049,10.761
		C831.661,251.578,876.08,251.578,920.718,251.578z"/>
	<path style="fill:#192951;" d="M1124.518,395.003c-62.634,0.831-119.148-51.424-118.333-119.911
		c0.816-68.674,56.169-117.55,118.585-117.965c61.587-0.41,119.242,48.672,119.038,119.313
		C1243.607,345.692,1186.148,396.149,1124.518,395.003z M1125.492,359.338c5.508-0.013,10.99-0.118,16.403-1.298
		c17.092-3.725,31.631-11.795,43.209-25.052c24.488-28.04,26.219-72.093,8.079-102.202c-10.128-16.81-24.52-28.342-43.168-34.25
		c-11.867-3.76-24.079-4.675-36.503-2.76c-27.624,4.258-47.341,19.218-59.489,44.103c-8.683,17.788-10.356,36.735-6.784,56.007
		c3.502,18.891,12.3,35.059,27.209,47.508C1089.2,353.711,1106.268,359.653,1125.492,359.338z"/>
	<path style="fill:#182951;" d="M657.21,64.804c-29.49,0-58.229,0-87.17,0c0-12.507,0-24.617,0-36.719
		c3.505-0.993,205.355-1.382,214.557-0.422c0.862,3.517,1.122,29.632,0.318,37.104c-29.024,0-58.102,0-87.614,0
		c0,108.143,0,215.847,0,323.839c-13.51,0-26.587,0-40.091,0C657.21,280.967,657.21,173.273,657.21,64.804z"/>
	<path style="fill:#192951;" d="M1277.705,338.066c11.506-4.882,22.586-9.583,33.894-14.381c1.857,3.528,3.529,6.739,5.232,9.932
		c5.377,10.081,12.351,18.632,23.37,22.838c11.889,4.538,24.004,4.404,35.371-1.157c22.397-10.958,24.981-40.565,5.193-55.794
		c-4.356-3.352-8.995-6.278-14.056-8.479c-8.517-3.704-17.066-7.336-25.553-11.107c-10.18-4.524-20.192-9.323-28.917-16.463
		c-13.889-11.367-19.76-26.091-19.638-43.828c0.199-28.932,20.289-52.299,48.605-60.096c35.612-9.806,66.909,12.594,77.963,38.977
		c-2.441,2.169-25.777,14.608-31.672,16.838c-1.536-2.438-2.994-5.015-4.702-7.414c-4.335-6.091-9.827-10.758-16.903-13.466
		c-14.676-5.615-32.752,3.648-36.271,18.73c-1.718,7.362,0.452,13.802,5.334,19.374c4.459,5.089,10.126,8.54,16.089,11.588
		c8.289,4.237,17.058,7.335,25.62,10.924c9.496,3.981,18.963,8.003,27.618,13.682c9.62,6.312,17.608,14.092,22.82,24.535
		c6.417,12.858,7.582,26.463,5.345,40.34c-3.833,23.787-16.972,41.169-38.053,52.45c-10.347,5.537-21.531,8.465-33.379,8.924
		c-13.862,0.537-27.277-1.323-39.832-7.288C1299.844,377.586,1285.427,361.173,1277.705,338.066z"/>
	<path style="fill:#359FD9;" d="M471.443,154.074c3.348-1.1,59.322-1.443,66.365-0.367c0,78.202,0,156.443,0,234.949
		c-22.118,0-44.054,0-66.012,0C470.868,385.352,470.511,161.146,471.443,154.074z"/>
	<path style="fill:#4689C8;" d="M376.772,88.917c6.125-0.284,12.28,1.491,18.131,4.503c3.101,1.596,6.337,2.76,9.674,3.821
		c3.496,1.112,6.524,0.669,9.56-0.923c7.544-3.958,14.332-9.018,20.787-14.531c3.923-3.35,4.801-8.221,6.001-12.853
		c1.708-6.594,2.103-13.409,2.958-20.136c2.772-21.833,18.182-39.324,40.1-44.44c18.46-4.309,35.05,0.793,48.53,14.027
		c11.359,11.152,16.655,25.29,15.232,41.153c-2.294,25.589-21.445,44.454-45.43,47.55c-15.987,2.064-29.752-2.636-41.782-13.032
		c-5.886-5.086-12.718-6.94-20.36-6.18c-0.332,0.033-0.696,0.001-0.988,0.128c-8.156,3.567-15.52,8.27-21.227,15.223
		c-1.503,1.831-1.706,4.184-2.145,6.508c-1.226,6.493,0.19,12.889,0.251,19.323c0.166,17.643-13.331,35.853-33.822,39.05
		c-22.625,3.53-42.536-13.695-45.453-33.472C333.241,110.58,352.166,88.56,376.772,88.917z"/>
	<path style="fill:#4094D0;" d="M219.763,281.99c2.851-0.549,4.703,1.473,6.534,2.929c11.697,9.298,23.52,18.429,35.405,27.486
		c8.756,6.672,17.188,13.768,25.829,20.593c7.475,5.903,15.04,11.693,22.569,17.527c7.266,5.631,14.476,11.337,21.826,16.856
		c5.767,4.329,10.973,9.432,17.452,12.79c-2.296,4.035-6.458,6.048-9.964,8.598c-6.157,4.478-12.64,8.57-19.939,11.139
		c-5.112,1.799-10.322,3.165-15.644,4.119c-3.904,0.699-7.822,1.11-11.82,1.007c-14.452-0.371-28.057-3.772-40.666-10.947
		c-18.298-10.413-30.551-25.901-36.921-45.737c-5.239-16.312-5.028-32.97,0.215-49.35
		C216.445,293.353,217.288,287.425,219.763,281.99z"/>
	<path style="fill:#253157;" d="M1060.361,487.764c-17.246,0-34.461,0-51.593,0c-1.148,10.278,4.551,19.475,14.043,23.376
		c11.258,4.626,21.466,0.858,30.827-11.417c1.773,0.433,3.375,1.179,4.546,2.653c-5.096,11.457-17.813,17.23-28.996,16.153
		c-16.914-1.629-23.904-13.68-26.094-23.632c-2.43-11.043-0.412-21.279,7.141-29.832c8.066-9.134,18.474-11.472,29.952-8.168
		c11.634,3.349,17.486,12.024,19.672,23.443C1060.28,482.536,1060.971,484.839,1060.361,487.764z M1054.11,481.816
		c-0.398-9.921-9.808-20.963-23.431-20.541c-11.719,0.363-21.513,9.793-21.717,20.541
		C1023.919,481.816,1038.873,481.816,1054.11,481.816z"/>
	<path style="fill:#253157;" d="M706.65,487.723c-16.965,0-34.055,0-51.095,0c-1.285,9.752,4.415,19.187,13.811,23.292
		c10.89,4.758,20.905,1.146,31.349-11.366c0.723,0.324,1.499,0.615,2.218,1.01c0.713,0.391,1.369,0.887,2.401,1.568
		c-4.402,8.663-11.246,13.925-20.529,15.707c-23.261,4.466-38.408-15.015-35.307-36.098c1.594-10.836,6.947-19.429,17.372-23.891
		c15.248-6.525,36.135-0.368,40.043,23.125C707.253,483.109,708.082,485.304,706.65,487.723z M701.06,481.627
		c-1.531-11.671-11.091-20.284-22.406-20.438c-11.552-0.157-21.008,8.154-23.235,20.421
		C659.464,482.096,695.701,482.136,701.06,481.627z"/>
	<path style="fill:#1F2D54;" d="M857.14,467.124c0-3.881,0-6.834,0-9.926c2.017,0,3.752,0,5.678,0c0,19.969,0,39.729,0,59.708
		c-1.629,0.865-3.415,0.314-5.567,0.458c0-3.43,0-6.674,0-9.973c-2.022,0.142-2.33,1.703-3.184,2.602
		c-13.018,13.713-36.918,10.733-45.85-6.335c-5.773-11.032-5.946-22.422-0.15-33.454c8.637-16.442,31.655-19.8,45.283-6.867
		C854.415,464.348,855.429,465.411,857.14,467.124z M857.323,486.629c-0.106-1.657-0.138-3.323-0.329-4.97
		c-1.103-9.509-8.188-17.557-17.257-19.658c-10.474-2.426-20.075,1.251-25.396,10.041c-5.828,9.628-5.833,19.522-0.355,29.286
		c4.454,7.938,11.544,11.851,20.544,11.587c8.777-0.258,15.465-4.364,19.509-12.385
		C856.248,496.152,857.271,491.514,857.323,486.629z"/>
	<path style="fill:#1A2A52;" d="M565.222,409.637c1.894-0.499,3.503-0.404,5.537-0.084c0,18.583,0,37.168,0,55.855
		c1.564-0.299,1.805-1.413,2.38-2.137c6.084-7.662,14.228-8.703,23.015-6.845c5.007,1.058,8.481,4.477,10.473,9.205
		c1.23,2.919,2.1,6.035,2.127,9.177c0.123,13.963,0.053,27.928,0.053,42.151c-1.855,0-3.583,0-5.346,0
		c-0.893-1.59-0.436-3.286-0.443-4.903c-0.047-10.998-0.068-21.997,0.003-32.995c0.02-3.029-0.326-5.993-1.094-8.883
		c-1.206-4.538-4.005-7.397-8.794-8.463c-9.718-2.165-17.307,1.951-20.221,11.375c-1.282,4.144-1.924,8.414-1.914,12.774
		c0.02,8.665,0.006,17.331,0.006,25.996c0,1.633,0,3.267,0,5.126c-2.098,0-3.824,0-5.784,0
		C565.222,481.248,565.222,445.636,565.222,409.637z"/>
	<path style="fill:#2A345A;" d="M503.083,517.138c-2.632,0.28-4.426,0.538-6.701-0.312c0-30.385,0-60.908,0-91.814
		c-8.598,0-16.689,0-24.986,0c-0.554-2.251-0.506-4.139-0.105-6.229c18.905,0,37.671,0,56.66,0c0.618,2.011,0.62,3.911-0.164,6.133
		c-8.064,0-16.177,0-24.703,0C503.083,455.776,503.083,486.332,503.083,517.138z"/>
	<path style="fill:#1F2D54;" d="M1137.091,457.336c2.253-0.505,4.036-0.438,5.807-0.144c0.861,1.458,0.446,2.989,0.432,4.442
		c-0.115,12.315,0.263,24.631-0.282,36.948c-0.418,9.457-4.311,15.117-13.206,18.458c-7.364,2.766-14.401,1.838-21.045-2.094
		c-5.713-3.381-8.559-8.479-8.847-15.197c-0.579-13.48-0.143-26.962-0.304-40.442c-0.008-0.645,0.119-1.291,0.187-1.969
		c1.908-0.602,3.695-0.359,5.436-0.195c1.1,1.213,0.608,2.61,0.614,3.877c0.043,10.658,0.019,21.315,0.029,31.973
		c0.002,2.493,0.145,4.963,0.515,7.451c1.536,10.308,8.989,13.499,18.211,12.29c5.331-0.699,9.957-2.947,11.627-11.159
		c0.604-2.968,0.828-5.915,0.827-8.911C1137.089,481.019,1137.091,469.374,1137.091,457.336z"/>
	<path style="fill:#253157;" d="M1345.235,502.781c0,2.417,0,4.834,0,7.129c-11.94,11.41-31.2,11.869-43.72-0.613
		c-11.894-11.858-12.265-31.214-0.98-43.333c11.967-12.851,31.05-14.045,43.956-2.68c0.437,2.066,0.269,4.21,0.076,6.581
		c-2.107-0.071-3.046-1.854-4.374-2.871c-11.593-8.873-27.011-7.203-36.116,3.99c-11.526,14.169-4.483,36.166,13.151,40.934
		c9.536,2.579,17.661-0.511,24.911-6.612c0.966-0.813,1.591-2.033,2.374-3.065C1344.754,502.421,1344.994,502.601,1345.235,502.781z
		"/>
	<path style="fill:#233056;" d="M1416.787,464.944c-1.234,1.574-3.03,1.759-4.279,2.742c-1.544-0.091-1.64-1.561-2.376-2.376
		c-3.596-3.983-8.994-5.135-13.586-2.819c-6.594,3.326-7.237,11.264-1.113,15.297c2.054,1.353,4.459,2.191,6.742,3.173
		c2.74,1.179,5.604,2.093,8.269,3.415c7.495,3.718,10.624,9.381,9.816,17.356c-0.785,7.753-6.226,14.265-13.533,16.165
		c-13.197,3.431-24.579-5.22-26.397-15.286c1.62-0.576,3.287-1.168,5.052-1.795c2.056,1.933,2.505,4.715,4.165,6.789
		c6.514,8.141,19.393,6.749,23.58-2.642c2.812-6.307,0.882-11.972-5.263-15.102c-2.06-1.049-4.226-1.925-6.411-2.688
		c-2.832-0.989-5.574-2.159-8.17-3.642c-6.743-3.854-9.484-9.676-7.677-16.16c1.989-7.134,8.186-12.098,15.409-11.862
		C1407.927,455.734,1413.4,458.674,1416.787,464.944z"/>
	<path style="fill:#2D375C;" d="M1461.919,163.458c0,17.183,0,33.57,0,50.191c-2.625,0.438-4.86,0.4-7.542,0.007
		c0-16.495,0-32.879,0-49.485c-5.773-0.967-11.24,0.037-16.813-0.636c-0.949-1.902-0.25-3.87-0.584-6.125
		c14.006,0,27.708,0,41.714,0c0.773,1.74,0.068,3.715,0.479,6.048C1473.448,163.458,1468.042,163.458,1461.919,163.458z"/>
	<path style="fill:#1F2D54;" d="M1188.886,516.98c0-18.036,0-35.977,0-53.789c-2.157-1.018-4.271,0.112-6.191-0.96
		c-0.69-1.535-0.488-3.12-0.157-4.771c1.933-1.011,4.007-0.058,6.254-0.807c0-6.787,0-13.714,0-20.506
		c1.998-1.373,3.795-0.718,5.927-0.739c0,7.027,0,13.945,0,20.958c3.639,1.327,7.19,0.038,10.588,0.935
		c0.655,1.637,0.54,3.219,0.032,5.051c-3.197,0.862-6.548-0.061-10.141,0.632c0,17.864,0,35.792,0,53.804
		C1192.985,517.659,1191.109,517.464,1188.886,516.98z"/>
	<path style="fill:#253157;" d="M773.174,457.259c-1.03,1.69-1.884,3.091-2.651,4.349c-0.529,0.146-0.862,0.351-1.147,0.299
		c-8.337-1.531-12.355,1.094-14.62,9.318c-0.99,3.593-0.978,7.233-1.004,10.873c-0.071,9.974-0.001,19.949-0.049,29.923
		c-0.008,1.612,0.439,3.3-0.505,5.02c-1.687,0.503-3.422,0.517-5.365,0.002c0-20.036,0-39.907,0-59.751
		c2.007-0.532,3.762-0.322,5.369-0.136c1.082,1.939-0.079,3.9,0.975,5.509C760.578,455.412,765.299,453.989,773.174,457.259z"/>
	<path style="fill:#1F2D54;" d="M1249.733,457.039c0,20.23,0,39.946,0,59.847c-1.899,0.595-3.626,0.263-5.574,0.263
		c0-20.051,0-39.777,0-59.73C1245.754,456.527,1247.557,457.16,1249.733,457.039z"/>
	<path style="fill:#233056;" d="M1246.734,431.211c4.792,1.869,6.08,3.505,5.448,6.674c-0.49,2.452-2.344,4.099-4.814,4.275
		c-2.706,0.192-4.85-1.326-5.557-3.937C1240.959,435.079,1242.112,433.386,1246.734,431.211z"/>
</g>
</svg>
