<?xml version="1.0" encoding="iso-8859-1"?>
<!-- Generator: Adobe Illustrator 27.0.0, SVG Export Plug-In . SVG Version: 6.00 Build 0)  -->
<svg version="1.1" id="Layer_1" xmlns="http://www.w3.org/2000/svg" xmlns:xlink="http://www.w3.org/1999/xlink" x="0px" y="0px"
	 viewBox="0 0 1611 239.207" style="enable-background:new 0 0 1611 239.207;" xml:space="preserve">
<g>
	<path style="fill:#050404;" d="M659,239c-2.176-1.966-5.127-1.784-7.68-2.699c-20.127-7.209-31.872-21.321-35.426-42.353
		c-0.501-2.965-0.8-5.927-0.799-8.937c0.017-42.484-0.057-84.968,0.044-127.451c0.038-15.952,6.01-29.433,17.96-40.121
		c9.696-8.673,21.218-13.098,34.102-13.126c64.975-0.142,129.951-0.231,194.925,0.016c26.201,0.1,46.133,17.861,51.304,40.714
		c0.953,4.212,1.517,8.491,1.514,12.846c-0.03,42.484-0.009,84.968-0.024,127.451c-0.009,24.508-15.586,46.191-41.463,52.328
		c-1.812,0.43-3.998-0.514-5.456,1.332c-1,0-2,0-3,0c-1.353-1.954-3.366-0.942-5.025-0.945c-32.992-0.071-65.984-0.053-98.976-0.053
		c-31.159,0-62.318-0.015-93.478,0.046c-1.501,0.003-3.371-0.995-4.521,0.953C661.667,239,660.333,239,659,239z M765.122,191.724
		c17.166,0,34.332,0,51.498,0c8.833,0,17.668-0.113,26.499,0.026c13.196,0.208,20.51-9.544,19.861-19.927
		c-0.301-4.814-0.048-9.663-0.049-14.496c-0.005-28.499-0.019-56.998-0.009-85.497c0.001-4.208-0.386-8.313-2.624-12.015
		c-3.738-6.183-9.547-8.458-16.437-8.572c-7.332-0.121-14.664-0.173-21.997-0.243c-31.664-0.302-63.326,0.623-94.992,0.053
		c-13.826-0.249-27.663,0.121-41.495,0.134c-10.209,0.01-18.307,7.484-18.186,18.328c0.011,1,0,2,0,3
		c-0.011,29.832-0.022,59.664-0.033,89.497c-0.001,3.667,0.028,7.333-0.007,11c-0.077,8.104,4.852,17.399,16.494,18.51
		c1.652,0.158,3.321,0.193,4.983,0.194C714.123,191.727,739.622,191.724,765.122,191.724z"/>
	<path style="fill:#050404;" d="M342,0c0.603,1.789,0.294,3.637,0.296,5.454c0.025,27.157,0.009,54.314,0.043,81.47
		c0.002,1.601-0.432,3.276,0.39,4.869c1.843,0.075,3.075-1.197,4.447-1.984c49.217-28.252,98.423-56.524,147.576-84.887
		c3.582-2.067,7.129-2.997,11.273-2.992c28.989,0.037,57.978-0.126,86.967-0.195c1.811-0.004,3.658-0.318,6.224,0.564
		c-53.899,29.904-107.296,59.53-160.937,89.291c1.648,1.017,3.127,0.647,4.511,0.633c26.66-0.28,53.312,0.315,79.959,0.887
		c12.716,0.273,24.592,3.689,34.363,12.488c8.385,7.551,12.769,17.19,14.862,28.086c1.043,5.429,1.294,10.913,1.307,16.397
		c0.064,28.323,0.035,56.646,0.021,84.969c0,0.986-0.186,1.972-0.285,2.959c-4.013,0.016-8.026,0.033-12.039,0.049
		c-4.004,0.01-8.009,0.02-12.013,0.03c-3.687-0.043-7.378-0.421-11.06,0.11c-3.973,0.003-7.946,0.007-11.919,0.01
		c-1.7-0.596-3.678,0.447-5.361-0.925c0-20.119,0.041-40.269-0.027-60.419c-0.018-5.323-0.089-10.673-0.628-15.961
		c-1.198-11.739-7.679-17.871-16.963-20.117c-3.291-0.796-6.562-1.02-9.879-1.018c-48.961,0.035-97.922,0.092-146.884,0.177
		c-1.247,0.002-2.677-0.528-3.932,0.944c0,1.431,0,3.078,0,4.724c-0.006,29.144-0.008,58.287-0.031,87.431
		c-0.001,1.653-0.178,3.306-0.273,4.959c-17.287-0.026-34.574-0.051-51.861-0.077c-0.05-1.829-0.143-3.658-0.143-5.488
		C289.999,154.961,290,77.48,290,0C307.333,0,324.667,0,342,0z"/>
	<path style="fill:#060605;" d="M0,238C0,158.667,0,79.333,0,0c78.333,0,156.667,0,235,0c-0.038,1.83-0.11,3.659-0.11,5.489
		c-0.008,75.435-0.008,150.869-0.015,226.304c0,1.997-0.06,3.994-0.092,5.99c-1.987,0.071-3.975,0.196-5.963,0.204
		c-17.922,0.068-35.843,0.115-53.765,0.169c-8.336-0.383-16.672-0.14-25.009-0.005c-1.492-0.054-2.983-0.154-4.475-0.154
		C97.048,237.992,48.524,237.997,0,238z M11.788,118.579c-0.835,59.293,48.941,107.691,107.895,106.175
		c55.582-1.429,103.687-46.514,103.289-106.453c-0.391-58.805-49.205-105.35-106.58-104.574
		C55.629,14.549,11.537,63.65,11.788,118.579z"/>
	<path style="fill:#2D2B2B;" d="M1611,30c-1.743,0.807-1.473,2.698-2.155,4.068c-5.086,10.219-16.978,15.239-27.853,11.706
		c-10.272-3.338-17.379-14.576-15.755-24.914c1.809-11.518,11.247-19.857,22.679-19.876c9.771-0.016,16.714,4.585,21.157,13.227
		c0.647,1.258,0.429,2.974,1.927,3.79C1611,22,1611,26,1611,30z M1608.035,23.753c-0.019-10.911-9.083-19.842-20.08-19.787
		c-10.786,0.054-19.98,9.408-19.601,20.273c0.381,10.927,8.091,19.326,20.333,19.582
		C1599.128,44.041,1608.054,34.38,1608.035,23.753z"/>
	<path style="fill:#373535;" d="M663,239c1.15-1.948,3.02-0.95,4.521-0.953c31.159-0.061,62.318-0.046,93.478-0.046
		c32.992,0,65.984-0.018,98.976,0.053c1.659,0.004,3.672-1.009,5.025,0.945C797.667,239,730.333,239,663,239z"/>
	<path style="fill:#686564;" d="M0,238c48.524-0.003,97.048-0.008,145.572-0.003c1.492,0,2.983,0.1,4.475,0.154
		c-0.033,0.282-0.049,0.565-0.047,0.849c-48.667,0-97.333,0.01-146-0.053C2.688,238.945,0.928,239.956,0,238z"/>
	<path style="fill:#A4A1A1;" d="M234.783,237.783c0.072,0.406,0.145,0.811,0.217,1.217c-20,0-40,0-60,0
		c-0.008-0.283,0.01-0.565,0.056-0.844c17.922-0.053,35.843-0.101,53.765-0.169C230.808,237.979,232.795,237.854,234.783,237.783z"
		/>
	<path style="fill:#686564;" d="M290,239c0.05-0.357,0.099-0.714,0.149-1.071c17.287,0.026,34.574,0.051,51.861,0.077
		c-0.003,0.332-0.006,0.663-0.01,0.995C324.667,239,307.333,239,290,239z"/>
	<path style="fill:#807D7D;" d="M175.056,238.156c-0.045,0.28-0.064,0.561-0.056,0.844c-8.333,0-16.667,0-25,0
		c-0.002-0.284,0.014-0.567,0.047-0.849C158.383,238.016,166.719,237.772,175.056,238.156z"/>
	<path style="fill:#807D7D;" d="M548.966,238.089c4.004-0.01,8.009-0.02,12.013-0.03c0.047,0.313,0.054,0.626,0.021,0.941
		c-4,0-8,0-12,0C549.049,238.694,549.038,238.391,548.966,238.089z"/>
	<path style="fill:#686564;" d="M561,239c0.033-0.314,0.026-0.628-0.021-0.941c4.013-0.016,8.026-0.033,12.039-0.049
		c-0.006,0.33-0.012,0.66-0.018,0.989C569,239,565,239,561,239z"/>
	<path style="fill:#A4A1A1;" d="M548.966,238.089c0.072,0.301,0.083,0.605,0.034,0.911c-3.667,0-7.333,0-11,0
		c-0.046-0.265-0.077-0.532-0.094-0.801C541.588,237.668,545.279,238.046,548.966,238.089z"/>
	<path style="fill:#060605;" d="M1553.485,1c0,15.69,0,30.773,0,45.769c-2.034,0.883-3.887,0.493-5.685,0.494
		c-62.318,0.024-124.636,0-186.953,0.051c-5.978,0.005-11.979,0.272-17.844,1.64c-8.589,2.003-14.114,6.959-15.455,16.031
		c-0.664,4.493-0.797,8.901,0.263,13.373c1.756,7.413,6.511,11.662,14.066,12.717c7.452,1.041,14.931,1.155,22.42,1.158
		c46.655,0.023,93.31-0.076,139.965,0.074c11.466,0.037,22.904,0.902,33.961,4.532c9.857,3.236,17.041,9.469,21.621,18.683
		c4.346,8.744,6.195,18.169,7.072,27.811c1.179,12.965,1.367,25.937,0.039,38.907c-0.864,8.44-2.133,16.819-5.188,24.774
		c-5.727,14.916-16.504,24.181-32.028,27.868c-5.014,1.191-10.099,1.954-15.273,2.193c-9.317,0.43-18.631,0.719-27.962,0.703
		c-43.656-0.072-87.312-0.019-130.967-0.097c-22.826-0.041-45.652-0.254-68.478-0.414c-1.467-0.01-2.985,0.326-4.725-0.535
		c0-15.275,0-30.691,0-46.372c1.64-0.628,3.477-0.267,5.245-0.268c68.483-0.024,136.966-0.022,205.449-0.016
		c3.499,0,6.992,0.056,10.381-1.048c6.488-2.113,11.015-6.23,12.445-13.02c1.519-7.214,1.723-14.499,0.3-21.815
		c-1.401-7.205-5.345-12.262-15.261-14.167c-3.406-0.654-6.922-0.781-10.438-0.778c-51.154,0.049-102.308,0.03-153.462,0.038
		c-7.172,0.001-14.263-0.601-21.312-2.037c-18.844-3.838-30.558-15.301-35.514-33.581c-4.039-14.896-4.736-30.142-3.482-45.521
		c0.829-10.174,2.749-20.01,7.038-29.342c5.762-12.536,15.388-20.565,28.399-24.72c6.052-1.933,12.284-2.847,18.628-3.009
		c2.165-0.055,4.332-0.076,6.498-0.076C1407.56,0.999,1477.876,1,1548.192,1C1549.846,1,1551.5,1,1553.485,1z"/>
	<path style="fill:#060605;" d="M956.311,237.352c0-15.375,0-30.611,0-46.28c1.826,0,3.618,0,5.41,0
		c64.164,0,128.328,0,192.491-0.001c5.332,0,10.666,0.067,15.997-0.032c11.643-0.215,18.128-5.877,20.087-17.281
		c0.998-5.808,0.824-11.559,0.015-17.387c-1.276-9.197-6.512-13.743-15.681-15.389c-2.929-0.526-5.925-0.736-8.944-0.733
		c-51.664,0.047-103.329,0.015-154.993,0.054c-8.187,0.006-16.283-0.65-24.195-2.777c-16.428-4.417-27.343-14.762-31.842-31.175
		c-6.141-22.405-6.472-45.041-0.449-67.515c3.378-12.604,10.332-23.035,22.027-29.585c8.103-4.538,17.006-6.533,26.22-7.122
		c3.156-0.201,6.331-0.124,9.497-0.124C1081.947,1.999,1151.944,2,1221.941,2c1.791,0,3.582,0,5.522,0c0,15.547,0,30.633,0,45.635
		c-1.936,1.12-3.803,0.621-5.578,0.622c-61.831,0.03-123.661-0.004-185.492,0.067c-6.638,0.008-13.309,0.195-19.85,1.656
		c-8.296,1.853-13.411,6.652-14.893,15.286c-0.862,5.018-0.941,9.907,0.275,14.833c1.392,5.64,4.88,9.252,10.423,10.97
		c5.149,1.596,10.422,2.016,15.778,2.013c40.332-0.022,80.663-0.012,120.995-0.012c11.166,0,22.337-0.198,33.497,0.061
		c9.964,0.231,19.852,1.161,29.396,4.554c12.907,4.588,20.858,13.635,25.001,26.451c3.05,9.435,3.961,19.184,4.472,28.988
		c0.836,16.016,0.356,31.965-3.584,47.61c-1.957,7.772-4.955,15.1-10.357,21.267c-7.873,8.986-18.185,13.082-29.6,14.942
		c-4.768,0.777-9.602,0.842-14.444,0.84c-73.664-0.04-147.328-0.025-220.992-0.04C960.55,237.743,958.55,238,956.311,237.352z"/>
	<path style="fill:#151313;" d="M178.355,103.913c1.77-3.378,1.734-6.963,1.511-10.667c-1.332-22.114-13.547-36.975-32.175-46.95
		c-30.794-16.491-68.649-6.363-88.038,22.076c-6.267,9.192-7.793,19.133-8.311,29.618c-0.08,1.616,0.47,3.263,0.728,4.895
		c-0.287,0.357-0.573,0.715-0.86,1.072c-1.527-1.986-1.694-4.885-4.185-6.223c-0.329-0.534-0.657-1.068-0.986-1.602
		c1.883-1.387,0.767-3.154,0.903-5.307c-4.065,3.465-7.769,6.51-11.329,9.715c-1.34,1.206-2.492,2.688-3.476,4.208
		c-3.255,5.024-2.622,8.665,1.879,12.641c4.839,4.275,10.665,6.093,17.189,7.468c0-1.884,0-3.351,0-4.818
		c0.519,0.005,1.039,0.009,1.558,0.014c3.514,6.136,7.032,12.269,10.54,18.409c1.298,2.271,2.593,4.427,2.751,7.268
		c0.167,3.012,3.036,4.097,5.373,2.436c2.116-1.504,1.829-3.255,0.546-5.118c0.14-0.838,1.166-1.332,0.9-2.327
		c-0.254-11.907-0.509-23.813-0.762-35.685c-2.041-0.223-3.491-0.369-5.093,0.751c0.14,9.281-1.049,18.711,0.312,28.14
		c-0.389,0.015-0.778,0.031-1.167,0.046c-4.3-8.179-8.59-16.362-12.224-24.869c0.164-0.512,0.437-0.922,0.993-1.07
		c0.71,0.211,1.23-0.148,1.819-0.493c5.433-3.185,10.948-5.932,17.618-4.408c1.181,0.27,2.59-0.418,3.887-0.696
		c7.804-1.673,12.275,1.571,13.813,9.53c1.517,7.853,0.259,15.568-0.522,23.327c-0.1,0.99-0.604,2.001-0.476,2.942
		c1.37,10.045-0.061,20.299,2.39,30.273c0.997,4.058,0.99,8.292,0.433,12.408c-1.349,9.958-9.264,13.89-18.351,9.22
		c-1.741,1.611-3.729,1.535-5.936,0.922c-6.749-1.875-11.233-6.119-13.72-12.605c-2.695-7.027-4.259-14.341-4.754-21.8
		c-0.471-7.105-1.542-14.223-0.468-21.388c0.267-1.785,0.04-3.644,0.04-5.646c-3.694-1.217-7.467-2.287-11.105-3.702
		c-4.404-1.714-8.119-4.445-11.045-8.249c-3.051-3.967-3.341-8.198-1.504-12.665c1.214-2.952,3.022-5.54,5.452-7.644
		c2.014-1.744,3.987-3.549,6.119-5.138c5.894-4.391,10.486-9.646,12.059-17.08c0.238-1.125,0.736-2.195,1.128-3.329
		c-1.426-1.688-3.766-1.959-5.652-3.804c14.194-23.952,34.769-38.563,62.766-40.842c33.736-2.746,58.926,11.892,76.757,40.025
		c-1.595,2.467-4.371,2.497-5.848,4.303c1.223,8.855,5.4,15.795,12.787,20.946c3.662,2.554,7.131,5.448,9.633,9.32
		c4.374,6.768,3.818,12.807-1.916,18.414c-5.191,5.076-11.769,7.248-18.644,8.772c-0.456,0.101-1.014-0.1-1.666,1.113
		c1.012,9.25,0.229,19.159-0.275,29.412c2.461,0.835,4.901,1.732,7.388,2.478c1.332,0.4,2.937,0.908,3.155,2.148
		c0.493,2.801,3.02,3.152,4.912,4.506c-1.004,3.435-1.971,6.739-2.945,10.07c-5.419-0.685-10.911,1.712-15.295-2.121
		c-2.247,1.515-2.392,3.514-3.298,5.038c-3.261,5.486-7.856,9.342-14.274,9.555c-3.229,0.107-6.375,0.44-9.569,0.742
		c-7.262,0.686-11.935-3.586-12.817-11.381c-0.662-5.856,0.29-11.618,1.309-17.328c0.709-3.972,0.833-7.936,0.902-11.925
		c0.064-3.658-0.004-7.306,0.492-10.958c0.544-3.998-0.58-7.941-1.071-11.867c-0.732-5.857-0.583-11.603,0.448-17.354
		c1.151-6.42,4.879-9.575,11.047-8.93c3.581,0.374,7.113,0.457,10.69,0.552c4.384,0.116,8.737,1.787,12.583,4.271
		c0.795,0.514,1.475,1.432,2.643,1.062c0.594,0.154,0.866,0.604,1.046,1.139c-3.455,8.022-7.497,15.754-11.638,23.435
		c-0.133-0.766-0.514-1.342-1.255-1.644c0.133-8.587,0.071-17.165-0.409-25.538c-1.881-0.55-3.147-0.713-4.747-0.306
		c-0.703,11.872-1.064,23.758-0.672,35.776c0.74-0.049,1.218-0.081,1.696-0.113c-0.005,0.445-0.01,0.89-0.015,1.336
		c-0.737,1.233-2.315,2.026-1.992,3.813c2.865,3.804,3.234,3.86,6.872,0.989c0.265-1.884,0.101-3.82,1.216-5.696
		c4.153-6.986,8.09-14.099,12.108-21.165c0.524-0.009,1.048-0.018,1.572-0.027c-0.313,1.626-0.637,3.252,0.55,4.802
		c4.933-1.234,9.775-2.669,14.104-5.547c7.965-5.295,8.717-10.446,1.76-17.825c-3.564-3.78-7.841-6.888-12.032-10.503
		c-0.225,2.084-0.577,3.722,0.763,5.087c-0.336,0.569-0.673,1.139-1.009,1.708c-2.463,1.348-2.679,4.211-4.185,6.205
		C179.311,103.942,178.833,103.928,178.355,103.913z M157.983,149.655c0.083,13.34-0.093,26.208-0.754,38.738
		c1.958,1.391,3.29,0.927,5.132-0.371c1.118-12.22,1.787-24.85,1.625-37.935C161.878,150.438,160.268,150.168,157.983,149.655z
		 M66.961,150.331c-0.005,12.986,0.358,25.656,1.776,37.853c2.01,1.232,3.357,1.621,5.067,0.015
		c-0.952-12.562-0.637-25.456-0.916-38.613C70.762,150.373,68.954,150.179,66.961,150.331z M180.757,175.534
		c1.644,1.427,3.06,1.666,4.862,1.518c1.712-3.749,2.662-7.789,3.221-11.722c-1.486-1.654-3.141-1.42-4.797-1.872
		C182.508,167.582,181.397,171.458,180.757,175.534z M190.581,177.451c0.922-3.188,1.626-5.622,2.307-7.974
		c-1.013-0.668-1.751-0.805-2.796,0.062C190.659,171.807,187.364,174.225,190.581,177.451z"/>
	<path style="fill:#1D1B1B;" d="M171.737,75.12c-1.647,1.3-3.311,1.971-5.031,2.523C141.03,37.209,88.209,39.575,65.43,77.935
		c-2.095,0.322-3.612-0.923-5.509-2.371C72.24,54.451,90.568,43.169,114.715,42.43C137.75,41.725,159.714,53.542,171.737,75.12z"/>
	<path style="fill:#464443;" d="M51.21,103.958c0.287-0.357,0.573-0.715,0.86-1.072c1.552,1.384,1.919,3.428,2.863,5.15
		c-0.556,0.148-0.829,0.558-0.993,1.07C52.457,107.693,51.926,105.777,51.21,103.958z"/>
	<path style="fill:#464443;" d="M177.1,109.169c-0.18-0.534-0.452-0.985-1.046-1.139c0.767-1.372,1.534-2.745,2.301-4.117
		c0.478,0.014,0.956,0.029,1.434,0.043C179.086,105.794,178.492,107.687,177.1,109.169z"/>
	<path style="fill:#2D2B2B;" d="M1599.339,37.251c-7.134-1.447-6.849-8.603-11.704-12.31c-0.674-0.28-2.345,0.111-4.19,0.073
		c-1.246,3.642,0.142,7.523-0.76,11.096c-0.681,0.839-1.483,0.813-2.661,0.604c0-8.337,0-16.744,0-25.608
		c4.419,0,9.039-0.207,13.631,0.065c3.78,0.224,5.912,2.486,6.335,5.864c0.451,3.604-0.82,5.639-4.546,7.268
		c-0.886,0.387-1.777,0.764-2.839,1.219c1.228,1.938,2.398,3.739,3.52,5.57C1597.154,32.773,1598.626,34.204,1599.339,37.251z
		 M1583.091,21.526c2.719,1.131,5.664,0.649,8.541,0.462c4.958-0.323,6.068-3.209,2.865-7.825
		c-3.657-0.439-7.475-0.839-11.406,0.048C1583.091,16.725,1583.091,19.007,1583.091,21.526z"/>
	<path style="fill:#464443;" d="M178.266,120.057c2.401-4.332,4.704-8.723,7.238-12.975c1.699-2.85,3.013-5.702,2.478-9.111
		c3.078,1.306,2.366,3.513,1.191,5.631c-3.054,5.508-6.216,10.956-9.335,16.428C179.314,120.039,178.79,120.048,178.266,120.057z"/>
	<path style="fill:#464443;" d="M43.02,97.968c-0.492,3.407,0.86,6.263,2.522,9.107c2.497,4.274,4.823,8.648,7.222,12.979
		c-0.519-0.005-1.039-0.009-1.558-0.014c-3.128-5.461-6.285-10.905-9.369-16.391C40.617,101.48,40.038,99.32,43.02,97.968z"/>
	<path style="fill:#464443;" d="M162.992,137.066c-1.185-2.351,1.391-3.954,1.215-6.105c0.741,0.302,1.122,0.878,1.255,1.644
		C164.94,134.258,164.694,136.065,162.992,137.066z"/>
	<path style="fill:#464443;" d="M47.026,97.735c-1.363-0.056-2.639,1.116-4.056,0.284c0.441-1.577,1.482-2.177,3.07-1.886
		C46.368,96.667,46.697,97.201,47.026,97.735z"/>
	<path style="fill:#464443;" d="M188.028,98.018c-1.412,0.832-2.691-0.349-4.054-0.267c0.336-0.569,0.673-1.139,1.009-1.708
		C186.501,95.927,187.64,96.395,188.028,98.018z"/>
	<path style="fill:#373535;" d="M69.951,139.975c1.094-0.219,1.669,1.593,2.923,0.746c0.266,0.995-0.76,1.489-0.9,2.327
		C70.977,142.237,69.202,141.937,69.951,139.975z"/>
	<path style="fill:#373535;" d="M67.331,133.928c0.856,0.908,1.555,1.85,0.672,3.132c-1.447-0.531-1.349-1.984-1.839-3.085
		C66.553,133.959,66.942,133.943,67.331,133.928z"/>
	<path style="fill:#464443;" d="M160.077,140.78c0.325,0.073,0.65,0.146,0.975,0.219c0.171,0.816-0.356,1.014-0.99,1.117
		C160.067,141.67,160.072,141.225,160.077,140.78z"/>
	<path style="fill:#464443;" d="M160.998,141.056c-0.593-2.008-0.327-3.582,2.06-4.087
		C163.038,138.667,162.767,140.239,160.998,141.056z"/>
	<path style="fill:#373535;" d="M68.954,137.964c1.335,0.199,1.262,1.113,1.061,2.092C68.306,140.047,68.287,139.179,68.954,137.964
		z"/>
	<path style="fill:#373535;" d="M67.942,136.974c1.041-0.32,1.268,0.174,1.082,1.082C68.029,138.33,67.766,137.872,67.942,136.974z"
		/>
</g>
</svg>
