<?xml version="1.0" encoding="iso-8859-1"?>
<!-- Generator: Adobe Illustrator 27.0.0, SVG Export Plug-In . SVG Version: 6.00 Build 0)  -->
<svg version="1.1" id="Layer_1" xmlns="http://www.w3.org/2000/svg" xmlns:xlink="http://www.w3.org/1999/xlink" x="0px" y="0px"
	 viewBox="0 0 1468 182.714" style="enable-background:new 0 0 1468 182.714;" xml:space="preserve">
<g>
	<path style="fill:#E5A443;" d="M25.402,1.326c8.048,4.406,15.26,10.049,22.606,15.469c12.066,8.904,23.62,18.433,33.81,29.493
		c3.827,4.153,7.429,8.494,10.664,13.156c12.304,17.733,10.695,33.499-0.705,49.866c-9.598,13.78-21.801,25.06-34.871,35.456
		c-16.153,12.848-33.142,24.515-50.453,35.727c-0.939,0.608-2.198,0.858-2.452,2.22c-1.333,0-2.667,0-4,0
		c10.311-15.077,21.02-29.893,30.157-45.742c9.144-15.861,16.982-32.268,21.02-50.274c4.611-20.563,1.059-39.854-8.925-58.162
		c-4.146-7.603-9.08-14.684-14.272-21.603c-1.179-1.571-2.627-3.02-3.204-4.997C24.983,1.731,25.192,1.528,25.402,1.326z"/>
	<path style="fill:#2B2828;" d="M597,182.714c-0.374-1.604-2.621-1.531-2.921-3.228c0-4.48-0.025-8.96,0.03-13.44
		c0.008-0.615,0.414-1.225,0.658-1.897c2.336-0.85,4.696-0.55,6.944-0.305c11.116,1.214,22.253-11.69,17.026-24.401
		c-5.545-13.486-10.836-27.077-16.249-40.618c-3.814-9.539-7.637-19.074-11.479-28.602c-0.747-1.852-1.675-3.65-0.803-5.75
		c1.407-1.295,3.149-0.695,4.751-0.723c4.16-0.073,8.338,0.196,12.478-0.101c4.855-0.347,7.175,2.081,8.473,6.04
		c2.065,6.296,3.999,12.636,6.124,18.912c3.289,9.715,6.701,19.388,9.288,29.264c1.683,0.242,1.529-1.032,1.804-1.881
		c4.654-14.327,9.296-28.657,13.941-42.986c0.307-0.946,0.616-1.891,0.926-2.836c1.977-6.029,2.671-6.504,8.794-6.456
		c5.805,0.046,11.61,0.01,17.607,0.01c-0.908,4.831-2.869,8.875-4.421,13.043c-9.939,26.684-19.946,53.343-29.914,80.017
		c-2.723,7.288-6.628,13.777-12.779,18.682c-3.794,3.025-7.983,5.376-12.852,6.234c-0.69,0.122-1.283,0.215-1.426,1.023
		C607.667,182.714,602.333,182.714,597,182.714z"/>
	<path style="fill:#E6A748;" d="M1382,182.714c-0.039-37.967-0.08-75.933-0.113-113.9c-0.001-0.99-0.093-2.012,0.564-2.913
		c4.674-1.947,5.789-1.421,6.801,3.251c0.21,0.971,0.451,1.939,0.584,2.921c0.134,0.984,0.15,1.984,0.236,3.246
		c1.55-0.179,2.212-1.375,3.05-2.198c6.211-6.094,13.599-9.232,22.341-9.473c6.905-0.191,13.58,0.262,19.81,3.686
		c6.08,3.342,10.514,8.148,13.067,14.538c6.11,15.287,6.204,30.737,0.485,46.129c-4.196,11.293-12.735,17.522-24.406,19.54
		c-9.618,1.662-18.84,0.765-27.024-5.207c-2.515-1.835-4.822-3.923-6.831-6.314c-1.318,1.121-0.798,2.323-0.796,3.404
		c0.033,12.49,0.065,24.981,0.156,37.47c0.015,2.014-0.128,3.958-0.925,5.821C1386.667,182.714,1384.333,182.714,1382,182.714z
		 M1389.973,105.202c-0.478,4.776,0.225,9.586,1.214,14.27c2.265,10.72,6.185,18.439,18.894,20.905
		c2.477,0.481,4.967,0.441,7.454,0.419c11.986-0.107,19.632-5.569,23.665-16.925c4.207-11.846,3.949-23.827,0.433-35.712
		c-2.385-8.062-7.175-14.343-15.861-16.296c-4.999-1.124-10.078-1.211-15.298-0.4c-9.169,1.423-16.059,6.966-18.457,16.434
		C1390.59,93.535,1389.499,99.243,1389.973,105.202z"/>
	<path style="fill:#E6A74A;" d="M1468,146.714c-2.036-0.034-3.468,1.846-5.563,1.729c-5.902-2.408-8.075-7.185-5.372-11.878
		c2.075-3.603,4.798-4.509,8.71-2.882c0.754,0.314,1.484,0.685,2.225,1.03C1468,138.714,1468,142.714,1468,146.714z"/>
	<path style="fill:#2D2A2A;" d="M225.914,31.708c5.171-0.22,10.757-0.786,16.316-0.588c4.315,0.154,6.042,2.531,5.72,7.662
		c-1.002,15.971-0.41,31.951-0.566,47.925c-0.035,3.591-0.862,7.177-0.094,11.279c4.229-4.675,8.199-9.079,12.187-13.468
		c5.146-5.664,10.32-11.302,15.455-16.976c2.097-2.316,4.505-3.864,7.771-3.845c6.985,0.04,13.971,0.012,21.236,0.012
		c-0.729,2.446-2.562,3.721-3.937,5.245c-7.916,8.768-15.927,17.45-23.921,26.148c-1.342,1.46-2.917,2.753-3.202,5.853
		c10.743,14.497,21.891,29.54,33.048,44.596c-1.013,1.428-2.265,0.867-3.291,0.876c-6.329,0.056-12.66-0.072-18.986,0.074
		c-2.809,0.065-4.546-0.951-6.144-3.296c-5.804-8.517-11.84-16.876-17.808-25.282c-0.764-1.076-1.639-2.073-2.408-3.038
		c-6.696,0.742-11.125,6.786-10.109,14.011c0.489,3.476,0.891,6.927,0.829,10.434c-0.094,5.26-1.958,7.564-6.986,7.693
		c-4.473,0.114-8.938-0.657-13.443-0.55c-1.874,0.045-3.035-1.303-3.245-3.184c-0.147-1.317-0.074-2.661-0.075-3.992
		c-0.003-32.478-0.027-64.957,0.036-97.435C224.303,38.637,223.112,35.182,225.914,31.708z"/>
	<path style="fill:#2B2828;" d="M446.788,145.265c-10.071,2.968-16.762,2.413-20.175-9.582c-0.742,0.78-1.424,1.482-2.09,2.199
		c-6.631,7.136-14.893,10.391-24.542,10.022c-2.798-0.107-5.607-0.189-8.418-0.803c-11.481-2.511-16.011-10.816-17.391-18.836
		c-0.499-2.902-1.146-5.832-0.779-8.898c1.66-13.86,9.453-19.698,22.899-22.463c7.766-1.597,15.715-2.717,23.734-1.475
		c1.186,0.184,2.324-0.072,3.308-0.85c3.089-7.202-0.658-14.023-8.35-14.898c-6.566-0.747-12.899,0.348-18.968,2.99
		c-1.947,0.847-3.737,2.246-6.538,1.827c-4.549-3.413-5.411-9.174-7.555-13.52c0.353-1.957,1.345-2.391,2.221-2.773
		c14.776-6.438,29.856-8.485,45.581-3.567c9.8,3.065,17.094,11.028,17.239,22.427c0.238,18.647,0.196,37.298,0.25,55.947
		C447.217,143.659,446.976,144.306,446.788,145.265z M416.862,108.714c-2.789-0.297-5.892,0.402-8.967,1.02
		c-3.122,0.627-6.015,1.969-8.097,4.511c-2.709,3.307-3.584,6.995-2.018,11.134c1.51,3.99,4.727,5.267,8.589,5.562
		c9.643,0.738,16.003-4.24,17.888-13.979C425.734,109.328,425.187,108.682,416.862,108.714z"/>
	<path style="fill:#2B2828;" d="M589.732,144.818c-1.249,1.433-2.674,1.774-4.216,1.791c-3.827,0.044-7.657,0.192-11.479,0.074
		c-3.95-0.122-5.089-1.27-6.262-5.107c-0.699-2.288-0.684-4.596-0.686-6.921c-0.013-12.33-0.027-24.661,0.007-36.991
		c0.01-3.532-0.464-6.93-1.884-10.2c-1.349-3.109-3.558-5.029-6.84-5.996c-9.007-2.656-16.76,1.427-19.528,10.457
		c-1.825,5.954-2.109,12.098-2.096,18.26c0.018,8.995,0.118,17.991,0.165,26.986c0.014,2.664,0.017,5.339-1.741,8.168
		c-6.185,1.962-12.683,1.287-18.666,0.357c-2.958-2.434-2.494-5.226-2.497-7.848c-0.023-20.495-0.009-40.99-0.016-61.485
		c-0.001-2.496-0.119-4.994-0.065-7.489c0.039-1.808-0.12-3.769,2.775-5.165c2.611,0,6.09-0.029,9.57,0.007
		c4.48,0.047,5.313,0.654,6.885,4.951c0.507,1.386,0.922,2.805,1.37,4.181c1.603,0.585,2.094-0.782,2.819-1.539
		c10.741-11.216,28.153-11.343,40.211-5.155c8.211,4.214,11.895,11.716,12.062,20.468
		C589.985,105.937,589.732,125.261,589.732,144.818z"/>
	<path style="fill:#2B2828;" d="M372.609,108.987c-1.689,2.055-3.941,1.723-6.079,1.725c-13.139,0.013-26.278-0.01-39.416,0.024
		c-1.94,0.005-4.052-0.549-5.651,1.256c-0.987,6.671,3.018,13.56,9.717,16.697c5.343,2.502,10.963,2.421,16.61,1.7
		c6.277-0.802,12.284-2.693,18.179-4.943c0.769-0.293,1.456-0.826,2.658-0.518c0.616,4.609,0.312,9.375,0.197,14.114
		c-0.082,3.345-2.493,4.75-5.413,5.648c-8.999,2.767-18.178,3.7-27.563,3.179c-4.851-0.269-9.606-1.017-14.132-2.681
		c-13.356-4.911-20.871-14.833-23.5-28.543c-1.677-8.744-1.243-17.52,0.817-26.195c3.801-16.005,19.432-28.375,35.862-28.798
		c8.933-0.23,17.06,1.634,24.436,6.823c7.999,5.626,12.292,13.486,13.47,22.905C373.53,97.211,374.977,103.222,372.609,108.987z
		 M350.705,95.294c1.606-5.167-0.62-10.605-5.397-13.93c-5.431-3.78-12.76-3.536-18.04,0.6c-4.721,3.698-6.683,8.827-4.948,13.329
		C331.644,95.294,341.045,95.294,350.705,95.294z"/>
	<path style="fill:#2B2828;" d="M455.066,146.318c0-27.815,0-54.72,0-82.146c4.988-0.494,9.711-1.063,14.467-0.443
		c2.241,0.292,3.235,2.211,3.83,4.173c0.807,2.661,1.454,5.37,2.231,8.29c1.938-0.266,2.573-1.997,3.591-3.143
		c5.258-5.92,11.444-9.972,19.571-10.802c2.9-0.296,5.61-0.216,8.959,0.995c1.446,6.581-0.697,13.241-0.849,19.571
		c-1.792,1.505-3.3,1.052-4.77,0.946c-4.038-0.292-7.923,0.396-11.735,1.73c-7.927,2.773-12.196,8.386-12.424,16.757
		c-0.335,12.316-0.323,24.634-0.044,36.953c0.03,1.326,0,2.669-0.174,3.982c-0.246,1.856-1.424,3.249-3.239,3.274
		C468.204,146.541,461.923,146.386,455.066,146.318z"/>
	<path style="fill:#9FA0A2;" d="M207.548,134.035c-5.834-1.4-10.435-2.553-15.059-3.604c-11.467-2.608-22.986-2.523-34.473-0.254
		c-17.598,3.475-32.71,12.138-46.8,22.837c-6.197,4.705-12.063,9.806-17.766,15.551c-1.204-3.226,0.099-5.924,0.969-8.337
		c4.653-12.914,9.747-25.642,17.767-36.969c6.686-9.442,15.242-15.997,26.846-18.055c8.889-1.576,17.519-0.227,25.77,3.044
		c13.277,5.263,25.877,11.848,37.317,20.508C203.846,130.063,205.424,131.481,207.548,134.035z"/>
	<path style="fill:#E6A74A;" d="M889.007,98.803c1.724-1.627,2.203-3.039,1.901-4.586c-0.668-3.414-0.775-6.89-1.51-10.313
		c-1.783-8.3-9.174-13.118-17.104-13.25c-6.871-0.114-13.516,1.112-19.879,3.798c-1.798,0.759-3.576,1.906-5.903,1.041
		c-1.495-0.976-2.084-2.649-2.401-4.306c0.409-2.234,2.242-2.654,3.713-3.172c8.833-3.108,17.863-5.063,27.325-4.25
		c2.666,0.229,5.233,0.828,7.75,1.67c9.719,3.249,14.102,10.541,15.016,20.258c1.764,18.76,0.541,37.574,0.816,56.362
		c0.058,3.961-1.451,4.752-5.831,3.674c-2.475-2.874-0.807-7.168-3.217-10.031c-2.139,0.165-2.907,1.847-4.03,2.989
		c-6.269,6.379-14.106,9.433-22.785,9.639c-5.22,0.124-10.554-0.839-15.512-2.99c-7.72-3.35-11.017-9.543-11.798-17.602
		c-0.832-8.588,1.496-15.717,8.778-20.8c4.551-3.178,9.587-5.222,15.051-6.202c7.531-1.352,15.11-2.128,22.775-1.938
		C884.48,98.852,886.802,98.803,889.007,98.803z M889.218,105.866c-8.693-0.723-17.077,0.181-25.441,1.364
		c-4.467,0.632-8.726,1.946-12.605,4.314c-6.151,3.755-8.042,9.472-7.155,16.262c0.754,5.767,3.928,9.856,9.543,11.612
		c6.864,2.147,13.77,1.87,20.484-0.686C887.019,133.791,892.312,121.547,889.218,105.866z"/>
	<path style="fill:#E6A648;" d="M1072.591,75.611c-1.901-1.285-2.983-2.956-2.152-5.693c3.69-2.776,8.322-3.55,12.768-4.654
		c8.333-2.07,16.684-2.449,25.055,0.121c7.678,2.357,12.726,7.347,14.395,15.073c1.711,7.922,2.504,16,1.588,24.179
		c-0.387,3.457-0.116,6.989-0.119,10.488c-0.008,9.98-0.003,19.959-0.003,29.683c-1.692,1.956-3.321,2.051-5.116,1.088
		c-2.705-3.147-1.102-7.556-3.276-10.844c-2.115,0.66-3.051,2.573-4.483,3.891c-7.326,6.748-15.783,10.086-25.846,8.933
		c-2.468-0.283-4.916-0.508-7.381-0.955c-9.681-1.759-16.491-9.122-16.903-20.989c-0.362-10.433,4.656-17.984,14.503-22.193
		c5.54-2.368,11.361-3.442,17.34-4.119c6.305-0.714,12.588-0.914,18.911-0.706c0.969,0.032,1.95-0.283,2.909-0.436
		c3.701-4.328,1.743-9.059,0.78-13.375c-2.151-9.635-8.714-14.353-18.747-14.509c-6.266-0.098-12.135,1.521-17.965,3.531
		C1076.854,74.813,1074.997,76.192,1072.591,75.611z M1115.502,106.231c-0.736-0.249-1.193-0.524-1.662-0.544
		c-7.663-0.33-15.325,0.023-22.864,1.275c-4.689,0.779-9.419,1.831-13.628,4.446c-6.107,3.793-8.546,9.001-7.421,16.556
		c0.961,6.457,4.668,10.113,11.637,11.978c5.691,1.523,11.196,0.655,16.701-0.731
		C1113.341,135.417,1117.997,118.778,1115.502,106.231z"/>
	<path style="fill:#E6A647;" d="M1327.044,103.933c-0.31,7.187-0.818,12.839-2.518,18.23c-4.668,14.8-14.178,24.01-30.166,25.712
		c-12.931,1.377-23.925-2.253-32.646-12.038c-4.659-5.227-7.46-11.534-8.317-18.358c-1.113-8.864-1.592-17.827,0.684-26.671
		c4.032-15.666,16.034-27.16,34.174-27.189c9.104-0.015,17.46,1.63,24.677,7.486c7.639,6.199,11.384,14.549,12.945,23.966
		C1326.443,98.484,1327.399,101.921,1327.044,103.933z M1318.018,104.999c0.273-2.909-0.138-6.873-1.002-10.783
		c-2.427-10.989-8.553-21.016-22.895-22.997c-13.561-1.874-24.953,3.152-30.055,16.424c-4.746,12.343-4.365,24.74,0.373,36.935
		c2.838,7.303,7.999,12.555,15.735,14.857c4.19,1.247,8.514,1.693,12.824,1.191c7.948-0.926,14.601-4.203,19.03-11.243
		C1316.517,122.246,1318.105,114.403,1318.018,104.999z"/>
	<path style="fill:#E7A94E;" d="M966.456,145.337c-0.953-1.683-0.564-3.556-0.568-5.357c-0.031-13.999,0.031-27.999-0.043-41.998
		c-0.027-4.996-0.823-9.886-2.652-14.599c-3.877-9.99-14.041-15.418-24.504-13.142c-4.765,1.037-9.31,2.574-13.24,5.455
		c-6.71,4.919-9.313,11.957-9.396,19.979c-0.149,14.498-0.1,28.997-0.139,43.496c-0.004,1.332,0.115,2.69-0.097,3.992
		c-0.396,2.428-2.095,3.591-4.665,3.465c-2.341-0.115-3.733-1.252-3.916-3.642c-0.076-0.994-0.019-1.999-0.019-2.999
		c0-22.833,0-45.665,0-68.498c0-1-0.091-2.012,0.029-2.997c0.3-2.456,1.674-3.732,3.878-3.674c2.138,0.057,3.542,1.195,3.718,3.285
		c0.184,2.182,0.662,4.248,1.435,6.402c0.436-0.236,0.928-0.365,1.217-0.679c4.915-5.353,11.054-8.676,18.147-9.592
		c8.235-1.063,16.58-1.674,24.473,2.137c8.121,3.921,12.111,10.677,12.88,19.355c1.649,18.604,0.549,37.262,0.752,55.895
		C973.799,146.511,971.367,147.648,966.456,145.337z"/>
	<path style="fill:#E6A74A;" d="M770.705,145.297c-5.26,2.418-7.455,1.199-7.463-4.14c-0.036-23.642-0.015-47.285-0.015-70.927
		c0-0.499-0.038-1.003,0.008-1.498c0.243-2.63,1.366-3.877,3.567-3.907c2.404-0.032,3.618,1.381,4.094,3.565
		c0.383,1.752-0.232,3.655,0.738,5.334c1.682,0.674,2.455-0.696,3.38-1.508c6.505-5.71,14.011-8.712,22.716-8.637
		c4.491,0.039,8.975,0.034,13.368,1.183c10.407,2.72,17.265,9.077,17.628,20.657c0.61,19.459,0.262,38.949,0.306,58.426
		c0.001,0.319-0.151,0.639-0.294,1.209c-1.64,1.275-3.488,2.205-5.741,0.964c-2.153-1.186-1.913-3.279-1.912-5.283
		c0.008-15.984-0.022-31.967,0.024-47.951c0.011-3.868-0.594-7.579-1.912-11.21c-1.843-5.079-5.364-8.364-10.558-9.641
		c-6.719-1.652-13.424-1.594-20.164,0.309c-9.78,2.762-15.525,11.015-16.601,22.405c-1.396,14.78-0.417,29.581-0.755,44.368
		C771.073,140.994,771.391,143.002,770.705,145.297z"/>
	<path style="fill:#E6A647;" d="M708.481,64.816c3.636,0,6.952,0,10.269,0c1.165,0,2.332-0.045,3.495,0.009
		c3.211,0.15,4.71,1.446,4.619,3.929c-0.091,2.468-1.536,3.596-4.874,3.692c-2.66,0.077-5.327-0.009-7.984,0.121
		c-4.79,0.233-6.207,1.47-6.828,6.133c-0.262,1.967-0.164,3.987-0.165,5.983c-0.01,18.142-0.006,36.283-0.006,54.425
		c0,1.657,0,3.314,0,4.787c-3.344,3.423-3.659,3.47-7.685,1.256c-0.768-1.711-0.419-3.567-0.421-5.37
		c-0.026-20.139-0.012-40.277-0.023-60.416c-0.001-2.135,0.383-4.368-1.238-6.097c-3.74-2.956-7.782,0.34-11.803-0.793
		c-1.574-0.766-2.168-2.281-1.592-4.04c0.571-1.746,2.078-2.514,3.89-2.596c1.496-0.067,3.001-0.012,4.489-0.152
		c4.485-0.424,6.166-2.219,6.256-6.696c0.086-4.312,0.03-8.587,1.059-12.867c2.291-9.527,8.856-15.848,18.525-16.62
		c5.193-0.414,10.171,0.183,15.209,1.026c1.413,0.236,2.553,0.702,3.102,2.319c0.188,1.659-0.985,2.913-1.623,4.271
		c-2.151,1.009-4.082,0.498-6.013,0.021c-3.115-0.769-6.303-0.736-9.425-0.375c-5.362,0.62-9.339,3.294-11.069,8.658
		c-1.761,5.46-1.94,11.079-1.441,16.733C707.27,62.914,707.889,63.622,708.481,64.816z"/>
	<path style="fill:#636465;" d="M76.988,12.391c5.302,3.788,9.486,8.882,14.305,13.229c5.063,4.567,9.955,9.328,15.091,13.809
		c5.009,4.37,10.156,8.591,15.384,12.698c5.357,4.208,10.856,8.237,16.348,12.27c5.355,3.933,10.746,7.82,16.184,11.638
		c5.573,3.912,11.182,7.776,16.849,11.551c5.472,3.645,11.038,7.149,17.164,11.103c-8.086,0.39-14.907-1.737-21.587-4.184
		c-15.589-5.711-29.528-14.405-42.528-24.581c-16.091-12.596-30.004-27.272-40.95-44.615c-2.48-3.928-4.691-8.026-7.026-12.046
		C76.477,12.973,76.733,12.682,76.988,12.391z"/>
	<path style="fill:#E6A648;" d="M1037.852,68.751c-0.345,1.952-0.877,3.654-2.917,4.846c-4.038-0.32-8.111-1.802-12.351-2.427
		c-6.442-0.95-12.622-0.206-18.6,1.931c-8.754,3.13-13.33,10.151-15.821,18.634c-2.976,10.136-2.641,20.267,0.748,30.308
		c3.757,11.13,13.693,18.709,26.019,18.832c6.232,0.062,12.196-1.091,18.142-2.626c1.131-0.292,2.201-0.683,3.369-0.357
		c2.023,5.644-0.56,7.353-4.542,8.323c-9.477,2.308-19.064,2.83-28.474,0.217c-10.318-2.865-17.964-9.302-21.745-19.524
		c-6.14-16.604-5.83-32.958,3.817-48.215c5.954-9.417,15.196-13.964,26.241-15.086c7.518-0.764,14.783,0.425,22.045,2.105
		C1035.505,66.11,1036.962,66.63,1037.852,68.751z"/>
	<path style="fill:#E6A748;" d="M1247.585,137.873c1.343,4.114,0.819,6.711-2.317,7.527c-12.873,3.348-25.86,4.968-38.079-2.13
		c-11.128-6.464-16.622-16.657-18.308-29.264c-1.706-12.753,1.008-24.439,8.099-35.008c6.527-9.729,15.853-14.84,27.653-15.324
		c6.848-0.281,13.607,0.034,20.239,2.001c1.684,0.5,3.13,1.061,3.968,2.907c-0.067,1.757-0.771,3.353-2.078,4.551
		c-1.45,0.755-2.648,0.254-3.966-0.07c-6.939-1.708-13.848-2.813-21.13-1.695c-11.313,1.737-18.109,8.162-21.726,18.666
		c-4.077,11.84-3.662,23.57,1.294,34.939c4.285,9.828,12.213,15.009,22.934,15.818c6.719,0.507,13.232-0.728,19.673-2.435
		C1244.969,138.059,1246.044,137.645,1247.585,137.873z"/>
	<path style="fill:#E8AB52;" d="M1133.515,145.383c-0.643-0.876-0.525-1.896-0.526-2.886c-0.006-35.311-0.009-70.623-0.006-105.934
		c0-1.165-0.087-2.357,0.123-3.489c0.441-2.382,2.169-3.147,4.396-3.155c2.302-0.008,3.868,0.972,4.231,3.328
		c0.176,1.14,0.059,2.327,0.059,3.493c0.002,34.313,0.001,68.627,0.001,102.94c0,0.333,0.004,0.666,0,0.999
		C1141.717,146.555,1138.948,148.129,1133.515,145.383z"/>
	<path style="fill:#E6A748;" d="M1332.109,66.162c2.649-2.024,4.674-1.524,6.997,0.615c0,3.648,0,7.575,0,11.503
		c4.823-5.268,8.948-10.802,15.864-13.098c6.803-2.258,13.588-2.079,20.298-0.588c1.173,5.964,0.306,6.981-5.159,6.902
		c-3.98-0.058-8.024-0.464-11.897,0.691c-9.9,2.954-15.409,9.819-17.271,19.835c-1.009,5.426-0.91,10.911-0.921,16.384
		c-0.022,11.152,0.046,22.303,0.061,33.455c0.001,0.986-0.114,1.971-0.178,2.99c-2.54,2.197-5.017,2.405-7.794,0.103
		C1332.109,118.795,1332.109,92.546,1332.109,66.162z"/>
	<path style="fill:#E7AA4F;" d="M1046.226,145.29c0-26.104,0-52.333,0-78.643c2.135-2.226,4.508-2.444,7.239-0.908
		c0.703,1.652,1.348,3.379,1.286,5.2c-0.249,7.29-0.014,14.574-0.415,21.883c-0.488,8.905-0.551,17.877,0.258,26.851
		c0.655,7.259,0.362,14.627,0.112,21.934C1054.531,146.724,1051.441,147.998,1046.226,145.29z"/>
	<path style="fill:#E6A648;" d="M749.776,144.957c-3.815,2.183-3.815,2.183-7.391,0.563c-0.795-1.56-0.475-3.256-0.476-4.899
		c-0.021-22.993-0.014-45.986-0.014-68.979c0-0.333-0.005-0.667,0.001-1c0.108-5.664,2.097-6.921,7.88-4.643
		C749.776,92.135,749.776,118.403,749.776,144.957z"/>
	<path style="fill:#E8AB52;" d="M1047.598,35.961c2.974-0.493,5.733-0.768,7.09,2.294c1.457,3.287,1.775,6.816-0.277,9.932
		c-1.811,2.749-4.643,1.651-7.086,1.27C1044.266,44.468,1044.331,40.644,1047.598,35.961z"/>
	<path style="fill:#E7A94E;" d="M743.532,49.585c-3.465-4.22-3.437-9.008,0.011-13.539c2.646-0.679,5.55-0.948,6.873,1.967
		c1.378,3.035,1.364,6.558-0.037,9.633C748.961,50.758,746.012,49.878,743.532,49.585z"/>
	<path style="fill:#E5A443;" d="M24.776,1.935c-0.555-0.228-0.829-0.627-0.757-1.238l-0.044,0.042
		c0.66-0.252,1.075,0.089,1.427,0.587C25.192,1.528,24.983,1.731,24.776,1.935z"/>
	<path style="fill:#E5A443;" d="M24.019,0.698c-0.239-0.12-0.477-0.239-0.716-0.359C23.457,0.226,23.61,0.113,23.764,0
		c0.07,0.246,0.141,0.493,0.211,0.739L24.019,0.698z"/>
</g>
</svg>
