<?xml version="1.0" encoding="iso-8859-1"?>
<!-- Generator: Adobe Illustrator 27.0.0, SVG Export Plug-In . SVG Version: 6.00 Build 0)  -->
<svg version="1.1" id="Layer_1" xmlns="http://www.w3.org/2000/svg" xmlns:xlink="http://www.w3.org/1999/xlink" x="0px" y="0px"
	 viewBox="0 0 1474.012 1203.051" style="enable-background:new 0 0 1474.012 1203.051;" xml:space="preserve">
<g>
	<path style="fill:#434243;" d="M1185.768,911.988c0.081,3.994,0.119,7.989,0.249,11.98c1.037,31.653,22.825,55.83,48.033,63.204
		c7.756,2.269,15.608,3.112,23.629,3.109c57.664-0.018,115.328-0.012,172.992,0.002c1.799,0,3.635-0.247,5.189,0.237
		c1.255,1.355,0.836,2.756,0.837,4.038c0.016,43.498,0.013,86.996,0.002,130.494c-0.007,26.475-10.739,47.706-31.876,63.425
		c-10.526,7.829-22.357,13.022-35.803,13.526c-0.831-0.025-1.661-0.072-2.492-0.072c-66.526,0.008-133.052,0.021-199.578,0.031
		c-5.322,0.001-10.644-0.035-15.966,0c-1.067,0.007-2.407-0.515-2.971,1.037c-2.333,0-4.667,0-7,0
		c-3.218-2.066-7-1.394-10.452-1.763c-15.593-1.665-30.858-4.878-45.759-9.558c-47.561-14.936-86.379-42.034-114.723-83.46
		c-16.429-24.012-27.188-50.459-33.767-78.694c-0.337-1.447-0.346-2.97-0.508-4.457c7.401-0.021,14.802-0.043,22.202-0.064
		c1.098,2.225,1.226,4.737,2.034,7.032c2.094,5.953,2.863,12.344,5.947,17.965c0.078,0.982,0.052,1.937,0.443,2.918
		c3.775,9.481,7.794,18.815,12.783,27.768c6.609,11.862,14.191,23.051,23.248,33.067c10.222,11.303,21.289,21.799,34.077,30.333
		c7.835,5.229,15.991,9.882,24.317,14.229c4.362,2.278,9.054,3.924,13.596,5.858c11.201,4.768,22.81,8.248,34.692,10.809
		c4.477,0.965,9.048,1.485,13.54,2.388c6.937,1.395,13.948,2.553,20.99,2.564c72.651,0.115,145.303,0.039,217.954,0.142
		c6.214,0.009,12.103-0.892,17.895-3.048c7.737-2.88,14.412-7.429,20.071-13.285c3.058-3.164,5.638-6.939,7.79-10.796
		c3.871-6.937,6.601-14.366,6.616-22.465c0.049-27.161,0.015-54.322,0.013-81.483c0-11.91,0-23.82,0-36.008
		c-2.494,0-4.303,0-6.113,0c-43.606,0-87.212,0.085-130.818-0.061c-10.585-0.036-21.155,0.414-31.783-0.745
		c-10.599-1.156-20.691-3.581-30.153-8.234c-11.769-5.788-22.292-13.24-30.569-23.752c-6.679-8.483-12.216-17.405-15.839-27.641
		c-4.549-12.855-5.155-26.173-5.712-39.548c4.014-1.257,8.153-0.997,12.268-1.008
		C1178.784,911.993,1182.276,911.993,1185.768,911.988z"/>
	<path style="fill:#3C3B3D;" d="M255.787,922.997c0.062,1.493,0.179,2.986,0.179,4.479c0.006,65.6-0.038,131.201,0.03,196.801
		c0.016,15.155-3.376,29.351-11.453,42.194c-11.718,18.633-28.514,30.245-49.952,35.216c-2.186,0.507-4.654-0.432-6.579,1.312
		c-62.333,0-124.667,0-187,0c0.001-91.342,0-182.684,0.009-274.027c0-1.992,0.105-3.985,0.162-5.977
		c3.29,0.001,6.592-0.163,9.868,0.051c3.17,0.208,6.538-1.027,9.621,1.007c0.71,3.825,0.224,7.603,0.316,11.354
		c0.036,1.469,0.145,2.663,2.024,2.592c0.001,48.001,0.002,96.002,0.003,144.002c0,32.918,0,65.836,0,98.995
		c1.884,0,3.037,0,4.189,0c50.5,0,101,0.042,151.499-0.062c5.394-0.011,10.867-0.829,16.013-2.389
		c17.429-5.283,29.151-16.722,35.447-33.835c3.306-8.987,3.782-18.31,3.834-27.708c0.054-9.666,0.01-19.333,0.009-29
		c0.002-38.002,0.004-76.003,0.006-114.005c0.658-0.302,1.038-0.803,0.996-1.538c-0.487-8.434,1.478-16.749,1.075-25.204
		c-0.339-7.116-0.07-14.262-0.07-21.266c2.532-2.913,2.531-2.959,5.334-2.981C246.159,922.972,250.973,922.998,255.787,922.997z"/>
	<path style="fill:#403E40;" d="M605.012,1203c-0.243-0.739-0.821-0.915-1.523-0.983c-24.535-2.365-45.544-12.513-63.843-28.764
		c-7.885-7.002-14.584-15.059-21.201-23.194c-19.327-23.759-38.599-47.562-57.879-71.36c-0.932-1.151-1.731-2.409-2.593-3.616
		c0.906-1.833,2.597-1.036,3.935-1.047c9.034-0.07,18.069-0.036,27.104-0.036c2.938,1.062,3.431,4.564,5.993,6.002
		c0.608,0.774,1.214,1.551,1.826,2.323c6.341,8,12.385,16.263,19.118,23.919c5.676,6.454,10.805,13.335,16.399,19.851
		c7.603,8.857,14.523,18.209,23.195,26.222c7.988,7.382,16.76,13.389,26.171,18.524c13.11,7.152,27.469,9.918,42.236,10.086
		c23.327,0.265,46.659,0.071,69.989,0.071c38.994,0,77.989,0.01,116.983-0.034c1.661-0.002,3.588,0.695,5.354-1.177
		c-1.893-1.903-3.727-3.582-5.37-5.431c-4.075-4.586-8.339-9.006-12.389-13.599c-5.33-6.044-10.114-12.568-15.131-18.888
		c-6.246-7.867-12.491-15.734-18.735-23.603c-3.995-5.034-7.938-10.11-11.991-15.096c-6.844-8.42-13.757-16.785-20.641-25.172
		c-0.562-1.93-3.296-2.553-3.004-4.997c1.581-1.105,3.384-1.015,5.19-1.008c5.917,0.022,11.834-0.05,17.75,0.04
		c2.023,0.031,3.886-0.291,5.655-1.238c9.032,10,17.092,20.799,25.63,31.204c18.666,22.749,37.192,45.612,55.761,68.441
		c8.182,10.059,16.332,20.144,24.48,30.232c0.294,0.364,0.407,0.873,0.604,1.315c-75.208,0-150.417,0.001-225.625,0.001
		c-8.486,0-16.972-0.051-25.457,0.027c-1.34,0.012-3.053-0.881-3.989,0.988C607.678,1203,606.345,1203,605.012,1203z"/>
	<path style="fill:#BDBBBB;" d="M0.012,71c0.262-0.11,0.531-0.134,0.808-0.07c0.057,3.656,0.164,7.311,0.165,10.967
		C1,247.101,1.006,412.305,1.021,577.51c0,1.828,0.101,3.656,0.154,5.484c-0.056,1.66-0.161,3.32-0.161,4.981
		C1.012,697.988,1.016,808.001,1.028,918.014c0,1.661,0.101,3.321,0.154,4.982c-0.056,1.992-0.161,3.985-0.162,5.977
		C1.012,1020.316,1.012,1111.658,1.012,1203c-0.308-0.218-1.043,0.506-1.011-0.5c0.043-1.332,0.011-2.666,0.011-4
		C0.012,822.667,0.012,446.833,0.012,71z"/>
	<path style="fill:#565759;" d="M609.012,1203c0.936-1.868,2.649-0.975,3.989-0.988c8.485-0.077,16.971-0.027,25.457-0.027
		c75.208,0.001,150.417,0,225.625-0.001c0.599,0.073,0.759,0.549,0.929,1.015C779.678,1203,694.345,1203,609.012,1203z"/>
	<path style="fill:#565759;" d="M1148.012,1203c0.564-1.552,1.903-1.03,2.971-1.037c5.322-0.035,10.644,0.001,15.966,0
		c66.526-0.01,133.052-0.023,199.578-0.031c0.831,0,1.661,0.047,2.492,0.072c-0.002,0.332-0.005,0.664-0.007,0.996
		C1295.345,1203,1221.678,1203,1148.012,1203z"/>
	<path style="fill:#BDBBBB;" d="M1186.012,0c-0.025,0.364-0.05,0.729-0.075,1.093c-0.317-0.126-0.631-0.12-0.943,0.017
		c-1.161-0.048-2.322-0.138-3.483-0.138c-57.865-0.007-115.731-0.004-173.597-0.011c-1.988,0-3.977-0.086-5.965-0.132
		c0.044-0.275,0.065-0.551,0.063-0.83C1063.345,0,1124.678,0,1186.012,0z"/>
	<path style="fill:#BDBBBB;" d="M72.94,0.802C72.961,0.535,72.985,0.267,73.012,0c61,0,122,0,183,0
		c-0.034,0.378-0.067,0.756-0.101,1.134c-0.299-0.112-0.594-0.101-0.885,0.032c-1.325-0.065-2.65-0.186-3.975-0.186
		C193.336,0.97,135.622,0.973,77.907,0.965C76.252,0.965,74.596,0.859,72.94,0.802z"/>
	<path style="fill:#EF664B;" d="M1473.056,234.913c0.318,0.029,0.637,0.058,0.956,0.087c0,59,0,118,0,177
		c-0.316,0.023-0.632,0.045-0.948,0.068c-0.04-0.33-0.114-0.66-0.114-0.99c-0.005-56.727-0.006-113.454,0-170.181
		C1472.95,238.902,1473.019,236.907,1473.056,234.913z"/>
	<path style="fill:#EF664B;" d="M566.995,304.1c6.566-1.982,13.409-2.214,20.145-2.985c15.04-1.721,30.164-1.821,45.291-1.81
		c53.251,0.04,106.501-0.022,159.752-0.012c1.959,0,3.993-0.491,5.88,0.501c0.135,2.685-1.048,4.769-2.914,6.587
		c-1.069,1.042-2.078,2.154-3.033,3.302c-4.318,5.192-8.571,10.438-12.916,15.607c-4.25,5.055-8.779,9.888-12.833,15.093
		c-5.982,7.679-12.498,14.898-18.676,22.405c-3.986,4.843-8.165,9.526-12.204,14.324c-4.883,5.8-9.697,11.657-14.565,17.469
		c-3.815,4.554-7.684,9.062-11.496,13.618c-4.758,5.688-9.466,11.418-14.227,17.103c-3.921,4.681-7.912,9.304-11.83,13.988
		c-4.652,5.56-9.224,11.188-13.897,16.73c-4.364,5.176-8.625,10.434-13.161,15.473c-4.29,4.766-8.098,9.963-12.211,14.893
		c-4.019,4.816-8.129,9.556-12.263,14.273c-0.887,1.012-0.799,2.12-0.849,3.267c-54.26,0.041-108.52,0.101-162.78,0.108
		c-13.415,0.001-26.846-0.243-40.13,2.006c-5.974,1.011-12.019,1.388-17.981,2.661c-4.3,0.918-8.59,2.332-13.085,2.296
		c-0.054-1.348,0.082-2.537,1.122-3.655c5.282-5.678,9.945-11.883,14.946-17.798c7.027-8.312,14.116-16.566,21-25.003
		c6.879-8.43,14.112-16.568,21-25.002c6.883-8.427,14.154-16.533,20.989-25.011c6.829-8.471,13.963-16.698,20.963-25.031
		c7-8.334,14.003-16.665,21-25.001c8.694-10.356,17.374-20.724,26.077-31.072c7.219-8.583,14.436-17.169,21.731-25.688
		C566.814,306.594,567.116,305.471,566.995,304.1z"/>
	<path style="fill:#353335;" d="M72.94,0.802c1.656,0.057,3.312,0.162,4.968,0.162C135.622,0.973,193.336,0.97,251.05,0.979
		c1.325,0,2.65,0.121,3.975,0.186c0.263,0.274,0.527,0.548,0.79,0.822c0.057,1.827,0.163,3.655,0.163,5.482
		c0.002,190.681-0.004,381.362-0.017,572.043c0,1.827-0.112,3.654-0.171,5.481c-7.264-0.229-14.583,0.724-21.779-0.994
		c-0.621-47.032,0.68-94.064-0.756-141.109c-0.754-24.689-1.43-49.483,0.744-74.194c0.613-6.963-1.162-13.797-1.071-20.779
		c0.262-19.967,0.09-39.941,0.089-59.911c0-88.235,0-176.471,0-265.004c-2.485,0-4.296,0-6.106,0
		c-44.489,0-88.979-0.059-133.468,0.055c-7.93,0.02-15.844-0.362-23.827,0.719c-5.844,0.791-11.32,2.243-16.459,4.741
		C43.606,33.16,36.172,40.094,30.69,49.419c-5.081,8.643-7.69,17.676-7.687,27.619c0.025,70.317,0.019,140.633,0.022,210.95
		c-0.006,98.337-0.011,196.674-0.017,295.011c-7.277-0.002-14.555-0.003-21.832-0.005c-0.054-1.828-0.154-3.656-0.154-5.484
		C1.006,412.305,1,247.101,0.984,81.897c0-3.656-0.107-7.311-0.165-10.967C2.778,39.323,25.389,11.887,56.7,3.118
		C62.012,1.63,67.43,0.894,72.94,0.802z"/>
	<path style="fill:#ED4E38;" d="M630.986,503.923c0.05-1.147-0.038-2.255,0.849-3.267c4.134-4.717,8.244-9.457,12.263-14.273
		c4.114-4.929,7.921-10.127,12.211-14.893c4.536-5.039,8.797-10.297,13.161-15.473c4.673-5.542,9.245-11.17,13.897-16.73
		c3.918-4.683,7.909-9.306,11.83-13.988c4.761-5.685,9.469-11.415,14.227-17.103c3.812-4.556,7.682-9.064,11.496-13.618
		c4.868-5.812,9.682-11.669,14.565-17.469c4.04-4.799,8.219-9.482,12.204-14.324c6.178-7.507,12.695-14.726,18.676-22.405
		c4.054-5.205,8.583-10.037,12.833-15.093c4.345-5.169,8.598-10.415,12.916-15.607c0.955-1.148,1.964-2.26,3.033-3.302
		c1.866-1.818,3.049-3.901,2.914-6.587c1.081-0.603,2.265-0.413,3.413-0.414c28.053-0.022,56.106-0.035,84.159-0.038
		c1.143,0,2.336-0.225,3.387,0.48c-0.026,2.341-1.467,3.901-2.859,5.586c-2.528,3.059-5.197,5.986-7.799,8.975
		c-4.536,5.211-8.827,10.635-13.21,15.979c-4.186,5.102-8.414,10.161-12.819,15.084c-4.493,5.023-8.557,10.428-12.889,15.598
		c-4.344,5.184-8.614,10.425-13.145,15.459c-4.508,5.009-8.562,10.423-12.903,15.586c-4.246,5.05-8.676,9.946-12.892,15.021
		c-5.783,6.96-11.361,14.091-17.171,21.028c-6.142,7.332-12.528,14.46-18.672,21.79c-7.825,9.336-15.459,18.832-23.282,28.17
		c-6.035,7.205-12.241,14.266-18.352,21.407c-1.084,1.267-1.931,2.679-2.025,4.418C690.998,503.922,660.992,503.923,630.986,503.923
		z"/>
	<path style="fill:#302E2F;" d="M1001.948,0.83c1.988,0.046,3.977,0.132,5.965,0.132c57.866,0.007,115.731,0.004,173.597,0.011
		c1.161,0,2.322,0.09,3.483,0.138c0.283,0.302,0.566,0.605,0.849,0.907c0.042,1.331,0.121,2.662,0.121,3.992
		c0.001,95.995-0.003,191.99-0.014,287.985c0,1.331-0.081,2.661-0.124,3.992c-0.543,0.179-0.772,0.566-0.745,1.122
		c0,0,0.019-0.035,0.019-0.035c-0.304,0.11-0.608,0.221-0.912,0.331c-6.465,0.631-12.931,0.61-19.398,0.014
		c-2.626-0.989-1.732-3.265-1.734-5.086c-0.04-44.777-0.035-89.554-0.037-134.331c0-45.554,0-91.107,0-136.404
		c-1.878-0.851-3.223-0.587-4.526-0.588c-51.952-0.015-103.904-0.057-155.855,0.034c-8.229,0.015-15.884,2.843-22.902,6.886
		c-8.3,4.781-14.897,11.56-19.852,19.772c-4.225,7.002-6.917,14.52-6.902,22.877c0.054,29.14,0.029,58.279,0.034,87.419
		c-0.017,46.452-0.034,92.904-0.051,139.357c-7.316,0.742-14.634,0.655-21.954,0.061c0.003-0.63-0.108-1.196-0.806-1.431
		c-0.044-1.33-0.126-2.661-0.126-3.991c-0.009-71.988,0.046-143.976-0.056-215.964c-0.025-17.226,4.697-32.843,15.085-46.512
		C959.357,12.769,978.203,2.17,1001.948,0.83z"/>
	<path style="fill:#EC3F31;" d="M931.011,299.417c7.32,0.594,14.638,0.681,21.954-0.061c4.982,1.042,10.036,0.064,15.039,0.533
		c0.049,1.775-0.81,3.235-1.899,4.456c-5.706,6.397-11.041,13.109-16.646,19.583c-6.26,7.231-12.236,14.697-18.543,21.893
		c-6.72,7.666-13.132,15.628-19.577,23.539c-2.304,2.828-4.887,5.374-7.169,8.2c-4.133,5.118-8.274,10.231-12.508,15.264
		c-4.353,5.175-8.87,10.211-13.226,15.383c-4.557,5.411-8.972,10.942-13.515,16.365c-4.13,4.929-8.397,9.743-12.517,14.679
		c-6.115,7.327-12.117,14.749-18.238,22.071c-4.125,4.933-8.587,9.598-12.511,14.681c-4.738,6.138-10.152,11.7-14.851,17.838
		c-2.449,3.2-6.117,5.67-6.8,10.085c-26.333-0.002-52.667-0.004-79-0.005c0.094-1.739,0.941-3.151,2.025-4.418
		c6.111-7.141,12.317-14.203,18.352-21.407c7.822-9.338,15.456-18.834,23.282-28.17c6.144-7.33,12.53-14.458,18.672-21.79
		c5.81-6.937,11.389-14.067,17.171-21.028c4.216-5.075,8.646-9.971,12.892-15.021c4.341-5.163,8.395-10.577,12.903-15.586
		c4.531-5.034,8.802-10.275,13.145-15.459c4.332-5.17,8.396-10.575,12.889-15.598c4.404-4.923,8.633-9.982,12.819-15.084
		c4.383-5.343,8.674-10.768,13.21-15.979c2.602-2.989,5.271-5.916,7.799-8.975c1.392-1.685,2.833-3.245,2.859-5.586
		c1.733-0.809,3.574-0.403,5.362-0.422c11.86-0.123,23.72-0.193,35.58-0.281C930.226,299.526,930.501,299.886,931.011,299.417z"/>
	<path style="fill:#B22227;" d="M721.004,503.922c26.333,0.002,52.667,0.004,79,0.005c2.165,0.021,4.33,0.06,6.495,0.061
		c55.973,0.004,111.945,0.003,167.918,0.005c55.973,0.002,111.947,0.251,167.918-0.059c55.911-0.31,111.834,1.349,167.733-0.939
		c3.779-0.155,7.52,0.043,11.35-0.732c2.818-0.57,5.788-1.211,8.762-1.254c6.104-0.089,12.033-1.632,18.083-2.267
		c6.802-0.714,13.497-2.446,20.24-3.732c9.834-1.876,19.349-4.922,28.791-8.15c4.654-1.591,9.09-3.848,13.655-5.681
		c13.967-5.607,26.188-13.901,37.205-23.929c8.732-7.948,15.582-17.428,20.052-28.483c0.302-0.746,1.058-0.676,1.709-0.739
		c-2.108,9.084-6.571,17.099-11.805,24.628c-12.368,17.791-29.627,29.511-48.98,38.462c-19.862,9.187-40.815,14.902-62.261,18.761
		c-25.266,4.546-50.791,6.265-76.461,6.146c-26.299-0.122-52.598-0.028-78.898-0.019c-1.828,0.001-3.657,0.08-5.485,0.123
		c-0.333,0.001-0.667,0.003-1,0.004c-7.336-0.001-14.672-0.003-22.008-0.004c-1.328-0.042-2.656-0.12-3.984-0.12
		c-67.345-0.014-134.691-0.021-202.036-0.024c-1.329,0-2.657,0.067-3.986,0.103c-7.336-0.001-14.672-0.002-22.008-0.003
		c-0.352,0.004-0.704,0.007-1.055,0.011c-1.164-0.029-2.327-0.084-3.491-0.084c-96.186-0.007-192.371-0.009-288.557-0.007
		c-1.33,0-2.659,0.064-3.989,0.099c-9.64,0.008-19.28,0.016-28.921,0.025c-1.828-0.04-3.656-0.116-5.484-0.115
		c-43.592,0.003-87.184,0.035-130.776,0.013c-14.091-0.007-28.148,0.124-42.189,1.795c-7.856,0.935-15.716,1.678-23.511,3.114
		c-12.754,2.349-25.453,4.914-37.756,9.083c-10.568,3.581-21.365,6.587-31.255,11.952c-0.633,0.13-1.328,0.132-1.889,0.407
		c-14.463,7.108-29.025,14.044-42.333,23.247c-1.29,0.892-2.409,1.74-4.028,1.055c3.948-6.575,9.332-12.028,14.109-17.949
		c16.512-20.464,33.113-40.856,49.72-61.242c23.022-28.261,46.019-56.543,69.151-84.713c9.506-11.577,18.467-23.615,28.838-34.472
		c9.408-9.848,19.094-19.377,30.418-27.07c0.156,2.136-0.796,3.838-2.126,5.382c-4.201,4.88-8.65,9.571-12.52,14.7
		c-2.216,2.937-4.886,5.393-7.175,8.219c-4.146,5.118-8.254,10.271-12.533,15.276c-4.4,5.146-8.599,10.455-13.184,15.458
		c-4.779,5.216-9.037,10.907-13.586,16.337c-4.134,4.936-8.4,9.762-12.521,14.708c-4.216,5.06-8.266,10.26-12.503,15.302
		c-4.356,5.183-8.933,10.182-13.264,15.385c-5.796,6.962-11.368,14.11-17.184,21.054c-6.147,7.34-12.534,14.48-18.695,21.809
		c-6.149,7.315-12.097,14.798-18.229,22.128c-5.824,6.961-11.796,13.799-17.64,20.744c-0.883,1.05-1.79,2.267-1.622,3.68
		c1.04,0.574,1.516,0.122,2.064-0.261c6.075-4.248,12.404-8.039,19.035-11.391c4.266-2.156,8.314-4.764,12.669-6.781
		c0.941-0.436,1.716-1.001,2.007-2.056c0.626-0.13,1.265-0.217,1.876-0.398c5.122-1.522,9.661-4.404,14.745-6.154
		c4.189-1.442,8.731-2.578,12.391-5.432c1.414-0.323,2.853-0.563,4.237-0.982c7.595-2.297,15.176-4.639,22.762-6.965
		c4.495,0.036,8.785-1.379,13.085-2.296c5.962-1.273,12.007-1.65,17.981-2.661c13.283-2.248,26.714-2.004,40.13-2.006
		c54.26-0.006,108.52-0.067,162.78-0.108C660.992,503.923,690.998,503.922,721.004,503.922z"/>
	<path style="fill:#ED4E38;" d="M397.011,510.993c-7.586,2.326-15.168,4.667-22.762,6.965c-1.385,0.419-2.824,0.659-4.237,0.982
		c0.019-1.152-0.05-2.249,0.813-3.275c2.97-3.528,5.765-7.204,8.762-10.708c4.292-5.019,8.551-10.072,12.828-15.098
		c6.62-7.777,12.924-15.828,19.701-23.482c2.298-2.595,4.515-5.264,6.717-7.942c4.077-4.959,8.054-10.001,12.188-14.912
		c4.36-5.178,8.994-10.13,13.257-15.384c6.649-8.195,13.328-16.356,20.267-24.312c2.159-2.475,4.299-5.005,6.393-7.555
		c4.285-5.219,8.574-10.435,12.922-15.602c4.251-5.053,8.682-9.957,12.841-15.082c4.569-5.63,9.122-11.267,13.909-16.717
		c4.137-4.711,8.139-9.542,12.169-14.347c4.658-5.554,9.318-11.107,13.902-16.722c2.033-2.49,4.775-4.554,5.245-8.072
		c8.134-2.872,16.516-4.635,25.071-5.63c0.121,1.372-0.181,2.494-1.155,3.632c-7.295,8.519-14.512,17.105-21.731,25.688
		c-8.703,10.348-17.384,20.716-26.077,31.072c-6.997,8.336-14,16.668-21,25.001c-7,8.334-14.134,16.56-20.963,25.031
		c-6.835,8.478-14.106,16.584-20.989,25.011c-6.888,8.433-14.121,16.572-21,25.002c-6.884,8.437-13.974,16.69-21,25.003
		c-5,5.915-9.663,12.12-14.946,17.798C397.092,508.456,396.957,509.645,397.011,510.993z"/>
	<path style="fill:#E6272A;" d="M340.999,530.925c-0.291,1.054-1.066,1.62-2.007,2.056c-4.355,2.018-8.404,4.625-12.669,6.781
		c-6.632,3.352-12.96,7.144-19.035,11.391c-0.548,0.383-1.024,0.835-2.064,0.261c-0.168-1.413,0.738-2.63,1.622-3.68
		c5.844-6.945,11.816-13.782,17.64-20.744c6.132-7.329,12.08-14.813,18.229-22.128c6.161-7.329,12.547-14.469,18.695-21.809
		c5.816-6.944,11.388-14.092,17.184-21.054c4.332-5.203,8.908-10.202,13.264-15.385c4.237-5.042,8.286-10.242,12.503-15.302
		c4.121-4.946,8.387-9.772,12.521-14.708c4.549-5.431,8.807-11.121,13.586-16.337c4.584-5.003,8.784-10.311,13.184-15.458
		c4.279-5.006,8.388-10.158,12.533-15.276c2.289-2.826,4.959-5.282,7.175-8.219c3.87-5.129,8.319-9.82,12.52-14.7
		c1.33-1.545,2.282-3.247,2.126-5.382c11.455-8.684,23.46-16.434,36.899-21.752c0.219,1.23-0.174,2.194-0.99,3.174
		c-4.531,5.441-8.939,10.985-13.488,16.41c-4.242,5.058-8.745,9.9-12.883,15.039c-4.755,5.905-9.454,11.846-14.559,17.46
		c-2.331,2.563-4.526,5.251-6.736,7.921c-4.303,5.199-8.526,10.465-12.869,15.63c-4.248,5.053-8.752,9.896-12.876,15.045
		c-6.388,7.977-12.87,15.866-19.644,23.518c-2.297,2.594-4.491,5.281-6.707,7.946c-4.42,5.317-8.799,10.669-13.24,15.969
		c-4.238,5.059-8.56,10.048-12.796,15.108c-4.332,5.175-8.57,10.43-12.914,15.595c-4.248,5.052-8.71,9.929-12.837,15.077
		c-4.536,5.656-9.302,11.118-13.85,16.754C345.775,523.523,341.879,526.208,340.999,530.925z"/>
	<path style="fill:#EC3F31;" d="M340.999,530.925c0.88-4.717,4.776-7.402,7.516-10.798c4.548-5.636,9.314-11.098,13.85-16.754
		c4.127-5.147,8.589-10.025,12.837-15.077c4.344-5.165,8.582-10.42,12.914-15.595c4.236-5.061,8.558-10.05,12.796-15.108
		c4.441-5.3,8.82-10.652,13.24-15.969c2.216-2.665,4.41-5.351,6.707-7.946c6.774-7.652,13.256-15.541,19.644-23.518
		c4.124-5.15,8.628-9.993,12.876-15.045c4.342-5.166,8.566-10.431,12.869-15.63c2.21-2.67,4.405-5.358,6.736-7.921
		c5.105-5.614,9.804-11.555,14.559-17.46c4.138-5.139,8.642-9.982,12.883-15.039c4.55-5.425,8.957-10.969,13.488-16.41
		c0.816-0.98,1.209-1.944,0.99-3.174c8.773-3.897,17.606-7.627,27.019-9.75c-0.47,3.518-3.212,5.582-5.245,8.072
		c-4.584,5.615-9.244,11.168-13.902,16.722c-4.03,4.805-8.032,9.636-12.169,14.347c-4.787,5.451-9.339,11.087-13.909,16.717
		c-4.16,5.125-8.59,10.03-12.841,15.082c-4.347,5.167-8.636,10.384-12.922,15.602c-2.094,2.55-4.234,5.08-6.393,7.555
		c-6.939,7.957-13.618,16.117-20.267,24.312c-4.263,5.254-8.898,10.206-13.257,15.384c-4.134,4.91-8.11,9.953-12.188,14.912
		c-2.202,2.678-4.419,5.347-6.717,7.942c-6.777,7.654-13.082,15.705-19.701,23.482c-4.278,5.026-8.536,10.079-12.828,15.098
		c-2.997,3.504-5.793,7.18-8.762,10.708c-0.863,1.026-0.794,2.123-0.813,3.275c-3.66,2.854-8.203,3.99-12.391,5.432
		c-5.083,1.75-9.622,4.633-14.745,6.154C342.264,530.708,341.625,530.794,340.999,530.925z"/>
	<path style="fill:#383839;" d="M234.011,584c7.196,1.719,14.515,0.765,21.779,0.994c0,5.782,0,11.563,0,18.131
		c6.906-7.167,11.761-14.922,18.123-21.384c0.375,3.161,2.786,3.234,5.102,3.24c7.014,0.017,14.045,0.307,21-0.98
		c-3.077,5.876-8.281,10.113-11.966,15.509c-2.493,3.649-6.267,6.302-8.038,10.49c-0.414,0.259-0.94,0.43-1.225,0.792
		c-3.561,4.505-7.141,8.999-10.609,13.575c-3.686,4.864-7.801,9.352-11.764,13.979c-5.121,5.979-9.782,12.349-14.772,18.444
		c-1.095,1.338-2.151,3.027-4.558,3.245c-2.7-1.415-3.94-3.795-4.104-7.055c-0.268-5.305,0.557-10.513,1.021-15.758
		c0.776-8.776-1.517-17.447-0.984-26.221c1.113-1.589,1.009-3.402,1.004-5.215C233.999,598.524,234.011,591.262,234.011,584z"/>
	<path style="fill:#353335;" d="M300.014,584.001c-6.954,1.287-13.986,0.997-21,0.98c-2.316-0.006-4.726-0.079-5.102-3.24
		c3.227-4.254,6.454-8.508,9.681-12.762c0.765-0.018,1.302-0.296,1.324-1.162l-0.112,0.055c0.769,0.072,1.162-0.236,1.062-1.046
		l-0.1-0.15c1.62,0.685,2.738-0.163,4.028-1.055c13.308-9.202,27.87-16.139,42.333-23.247c0.561-0.276,1.256-0.278,1.889-0.407
		c0.19,1.553-0.969,2.345-1.814,3.362c-5.054,6.089-10.098,12.188-15.08,18.336c-4.971,6.137-9.851,12.348-14.809,18.495
		C301.706,582.919,301.047,583.723,300.014,584.001z"/>
	<path style="fill:#505052;" d="M931.011,299.417c-0.511,0.47-0.785,0.109-1.047-0.297c0.08-0.378,0.16-0.755,0.241-1.133
		C930.903,298.221,931.014,298.787,931.011,299.417z"/>
	<path style="fill:#B22227;" d="M284.919,567.818c-0.022,0.865-0.56,1.143-1.324,1.162
		C283.87,568.404,284.121,567.799,284.919,567.818z"/>
	<path style="fill:#B22227;" d="M285.868,566.828c0.1,0.809-0.293,1.118-1.062,1.046
		C284.811,567.17,285.102,566.758,285.868,566.828z"/>
	<path style="fill:#383839;" d="M255.816,1.988c-0.263-0.274-0.527-0.548-0.79-0.822c0.291-0.133,0.586-0.144,0.885-0.032
		C256.02,1.434,255.988,1.719,255.816,1.988z"/>
	<path style="fill:#383839;" d="M604.99,516.128c9.64-0.008,19.28-0.017,28.921-0.025c-20.885,25.681-41.783,51.352-62.652,77.047
		c-20.77,25.573-41.5,51.179-62.268,76.753c-12.678,15.612-25.395,31.191-38.174,46.882c4.695,7.063,9.989,13.474,15.305,19.883
		c4.659,5.617,8.983,11.511,13.58,17.18c3.916,4.829,8.072,9.463,12.007,14.277c2.973,3.636,5.56,7.602,8.678,11.102
		c7.43,8.34,13.312,17.958,21.478,25.7c1.757,1.666,3.507,3.565,4.509,5.916c-0.573,0.237-1.36,0.449-1.118,1.231
		c0.471,1.525,1.831,0.718,2.815,0.903c1.164,0.637,1.802,1.697,2.303,2.866c-0.573,0.237-1.36,0.449-1.118,1.231
		c0.471,1.524,1.831,0.718,2.815,0.903c1.166,0.635,1.821,1.687,2.337,2.854c-0.579,0.238-1.388,0.442-1.146,1.234
		c0.474,1.552,1.849,0.724,2.845,0.898c0.569,0.128,0.84,0.507,0.895,1.066c-0.014,1.571-0.199,3.278,2.28,2.865
		c1.711,1.363,3.099,2.994,4.1,4.945c-0.575,0.24-1.373,0.451-1.122,1.239c0.486,1.527,1.847,0.714,2.841,0.887
		c0.572,0.136,0.839,0.523,0.894,1.086c0.184,1.249-0.414,2.641,0.84,3.915c0.647,0,1.456,0,2.265,0
		c0.574,0.138,0.841,0.527,0.893,1.092c-0.207,1.578,0.595,3.316-0.882,4.941c-6.504,0-13.146,0.012-19.787-0.007
		c-2.069-0.006-4.128-0.079-4.3,2.952c2.662,3.419,5.324,6.949,8.105,10.383c4.977,6.142,10.182,12.106,14.985,18.379
		c2.841,3.711,6.37,6.742,9.299,10.314c8.134,9.919,16.052,20.015,24.156,29.959c1.034,1.269,1.613,2.444,1.443,4.021
		c-1.882-0.866-3.261-2.423-4.36-4.005c-3.801-5.472-8.396-10.199-13.015-14.951c-3.475-3.575-7.518-5.119-12.411-5.067
		c-7.995,0.085-15.993,0.023-23.989,0.023c-63.971,0-127.943-0.001-191.914,0.004c-2.461,0-5.032-0.417-7.259,1.867
		c1.202,1.413,1.188,3.361,2.22,5.155c2.675,4.649,6.332,8.427,9.741,12.433c1.418,1.667,2.838,3.234,2.988,5.54
		c-2.258-0.099-3.918-1.647-5.888-2.445c-1.513-0.613-2.832-1.604-4.625-1.583c-6.651,0.076-13.303,0.046-19.955,0.023
		c-1.478-0.005-2.643,0.308-2.896,2.007c-0.213-0.279-0.427-0.557-0.64-0.836c0-1.821,0-3.642,0-5.016
		c-0.781-2.01-2.727-2.63-2.977-4.456c-0.506-3.697-4.698-4.961-5.574-8.418c-5.146-2.974-7.538-8.434-11.331-12.628
		c-0.168-0.186,0.21-0.867,0.464-1.786c6.379,0,12.791,0,18.958,0c0.891-2.306-0.048-3.535-1.015-5.004
		c-7.345-11.168-16.842-20.639-24.67-31.423c-1.183-1.629-3.101-2.437-5.23-2.435c-7.489,0.009-14.977,0.023-22.466,0.005
		c-1.354-0.003-2.234,0.487-2.493,1.874c-5.821-6.087-10.903-12.786-16.093-19.396c-0.597-0.76-1.261-1.468-2.613-3.033
		c0,2.566,0,4.12,0,5.673c-0.001,28.132,0.002,56.265-0.01,84.397c-0.001,1.826-0.112,3.652-0.172,5.479
		c-4.814,0.001-9.628-0.025-14.441,0.013c-2.803,0.022-2.803,0.068-5.334,2.981c0,7.005-0.269,14.15,0.07,21.266
		c0.403,8.455-1.562,16.771-1.075,25.204c0.042,0.735-0.338,1.236-0.996,1.538c-1.888-1.173-0.95-3.031-0.955-4.544
		c-0.066-21.151-0.055-42.303-0.038-63.454c0.004-5.264-1.109-10.094-4.91-13.867c-66.88,0-133.642,0-200.429,0
		c-3.31,5.041-4.942,10.321-4.75,16.389c0.31,9.817,0.083,19.65,0.083,29.476c-1.879,0.071-1.988-1.123-2.024-2.592
		c-0.092-3.751,0.394-7.529-0.316-11.354c-3.083-2.034-6.451-0.799-9.621-1.007c-3.276-0.214-6.578-0.05-9.868-0.051
		c-0.054-1.661-0.154-3.321-0.154-4.982C1.016,808.001,1.012,697.988,1.015,587.975c0-1.66,0.105-3.32,0.161-4.981
		c7.277,0.002,14.555,0.003,21.832,0.005c0.002,9.667,0.004,19.333,0.007,29c-0.001,40.333-0.001,80.667-0.002,121
		c0.05,21.103-0.29,42.211,0.964,63.298c0.197,3.31,0.416,6.756-0.293,9.934c-0.489,2.19-0.044,3.394,1.094,4.522
		c69.2,0,138.154,0,206.718,0c2.054-1.476,1.49-3.277,1.497-4.875c0.042-8.999-0.119-18.001,0.083-26.995
		c0.091-4.052,0.86-8.09,1.278-11.758c1.902-1.548,3.542-1.124,5.614-0.899c12.239,14.732,25.005,29.361,36.277,44.501
		c79.275,0,157.878,0,236.394,0c0.287-0.91,0.548-1.603,0.116-2.188c-4.1-5.56-7.957-11.329-12.413-16.589
		c-6.397-7.553-12.13-15.613-18.631-23.111c-9.362-10.797-17.452-22.687-26.43-33.833c-2.227-2.765-3.804-6.302-7.268-8.005
		c-1.045-3.383-3.705-5.554-6-8c0.037-1.142-0.098-2.25,0.769-3.279c3.072-3.643,6.104-7.322,9.051-11.066
		c3.757-4.772,7.82-9.285,11.468-14.156c4.331-5.784,8.888-11.419,13.649-16.855c5.423-6.193,10.219-12.881,15.68-19.05
		c5.213-5.889,9.801-12.327,14.761-18.446c6.826-8.422,13.742-16.77,20.619-25.15C553.669,579.375,579.329,547.751,604.99,516.128z"
		/>
	<path style="fill:#383839;" d="M1163.017,516.127c7.336,0.001,14.672,0.003,22.008,0.004c0.258,0.287,0.517,0.574,0.775,0.861
		c0.055,1.494,0.158,2.988,0.158,4.482c0,128.678-0.006,257.356-0.021,386.034c0,1.494-0.11,2.987-0.168,4.481
		c-3.492,0.004-6.984,0.005-10.477,0.014c-4.116,0.011-8.255-0.249-12.268,1.008c-0.004-12.336-0.008-24.673-0.012-37.009
		c-0.042-20.242,0.31-40.488-0.959-60.713c-0.153-2.444-0.661-4.525-2.544-6.1c-67.808,0-135.498,0-203.441,0
		c-2.433,3.951-3.717,8.293-2.888,12.7c0.538,2.859,0.037,5.419-0.17,8.112c-1.458,0.031-2.025-0.661-2.016-2.134
		c0.045-6.978-0.253-13.974,0.175-20.926c0.14-2.272,0.62-4.724-0.315-6.561c-2.407-4.728-1.772-9.657-1.828-14.563
		c-0.068-5.981,0.012-11.963-0.039-17.944c-0.011-1.259,0.489-2.693-1.001-3.879c-5.768,0-11.746,0-17.723,0
		c-0.063-1.157-0.18-2.314-0.18-3.472c-0.011-42.019-0.014-84.037-0.006-126.056c0-1.157,0.122-2.313,0.188-3.47
		c6.116,0,12.232,0,18.169,0c2.169-2.127,2.63-4.409,2.607-7.006c-0.081-9.288-0.035-18.577-0.028-27.865
		c0.001-1.452-0.382-3.175,1.992-3.127c0.002,17.667,0.004,35.334,0.006,53.001c-0.468,11.92,1.014,23.89-0.961,35.778
		c-0.269,1.617-0.448,3.493,0.111,4.95c1.125,2.933,0.802,5.881,0.829,8.835c0.043,4.619-0.441,9.203-0.813,13.805
		c-0.615,7.61-0.154,15.306-0.173,22.966c-0.01,4.053,1.232,7.434,4.648,9.499c67.849,0,135.428,0,202.757,0
		c3.372-2.337,4.651-5.461,4.582-9.112c-0.551-29.238,1.232-58.502-0.981-87.72C1163.013,602.042,1163.015,559.084,1163.017,516.127
		z"/>
	<path style="fill:#3C3B3D;" d="M603.012,921c0.17-1.577-0.409-2.752-1.443-4.021c-8.104-9.944-16.023-20.039-24.156-29.959
		c-2.929-3.571-6.457-6.603-9.299-10.314c-4.803-6.273-10.009-12.237-14.985-18.379c-2.782-3.433-5.443-6.964-8.105-10.383
		c0.172-3.031,2.23-2.958,4.3-2.952c6.641,0.019,13.282,0.007,19.787,0.007c1.477-1.625,0.676-3.363,0.882-4.941
		c9.245,10.457,17.802,21.483,26.598,32.309c20.873,25.692,41.674,51.442,62.505,77.167c4.92,6.076,10.239,11.876,14.676,18.286
		c6.027,8.707,12.838,16.807,19.728,24.727c11.338,13.031,22.188,26.445,33.167,39.761c9.84,11.935,19.5,24.018,29.228,36.045
		c0.624,0.771,1.145,1.625,1.714,2.44c-1.769,0.947-3.632,1.269-5.655,1.238c-5.916-0.09-11.833-0.018-17.75-0.04
		c-1.806-0.007-3.609-0.097-5.19,1.008c-4.927-3.53-7.911-8.813-11.543-13.416c-6.626-8.397-13.625-16.481-20.275-24.852
		c-3.689-4.644-7.726-9.01-11.483-13.601c-5.416-6.619-10.635-13.399-16.095-19.98c-5.788-6.976-11.608-13.938-17.692-20.655
		c-7.31-8.07-14.094-16.557-20.969-24.985c-7.081-8.681-14.56-17.039-21.561-25.78C607.159,926.939,604.261,924.541,603.012,921z"/>
	<path style="fill:#3C3B3D;" d="M930.265,763.994c5.977,0,11.954,0,17.723,0c1.49,1.187,0.99,2.62,1.001,3.879
		c0.051,5.981-0.029,11.964,0.039,17.944c0.056,4.905-0.579,9.834,1.828,14.563c0.935,1.837,0.455,4.289,0.315,6.561
		c-0.429,6.952-0.13,13.948-0.175,20.926c-0.009,1.473,0.557,2.164,2.016,2.134c0.001,13.667,0.002,27.334,0.003,41.001
		c-0.001,26.831-0.159,53.663,0.052,80.493c0.14,17.713-1.223,35.478,1.841,53.125c0.838,4.827,1.272,9.771,2.343,14.551
		c0.441,1.97,0.695,3.863,0.755,5.834c-7.401,0.021-14.802,0.042-22.202,0.064c-2.148-6.831-2.741-13.945-3.704-20.98
		c-2.47-18.034-2.012-36.189-2.015-54.321c-0.01-60.099-0.011-120.198-0.005-180.297C930.078,767.645,930.2,765.819,930.265,763.994
		z"/>
	<path style="fill:#353335;" d="M953.007,592.998c-2.374-0.048-1.991,1.676-1.992,3.127c-0.006,9.288-0.052,18.577,0.028,27.865
		c0.023,2.597-0.438,4.879-2.607,7.006c-5.937,0-12.053,0-18.169,0c-0.063-1.157-0.18-2.313-0.18-3.47
		c-0.011-35.854-0.013-71.707-0.006-107.561c0-0.992,0.103-1.984,0.158-2.975c0.471-0.12,0.707-0.438,0.766-0.906
		c7.336,0.001,14.672,0.002,22.008,0.003C953.009,541.724,953.008,567.361,953.007,592.998z"/>
	<path style="fill:#3C3B3D;" d="M569.099,838.967c-0.809,0-1.618,0-2.265,0c-1.254-1.274-0.656-2.666-0.84-3.915
		C567.476,836.002,568.323,837.457,569.099,838.967z"/>
	<path style="fill:#3C3B3D;" d="M556.106,822.964c-0.996-0.174-2.371,0.654-2.845-0.898c-0.242-0.791,0.567-0.996,1.146-1.234
		C555.198,821.364,555.844,822.011,556.106,822.964z"/>
	<path style="fill:#3C3B3D;" d="M559.281,826.895c-2.479,0.413-2.294-1.294-2.28-2.865
		C558.188,824.646,558.833,825.693,559.281,826.895z"/>
	<path style="fill:#3C3B3D;" d="M565.1,833.967c-0.994-0.173-2.355,0.64-2.841-0.887c-0.251-0.788,0.547-0.999,1.122-1.239
		C564.206,832.346,564.844,833.002,565.1,833.967z"/>
	<path style="fill:#3C3B3D;" d="M548.07,812.978c-0.984-0.185-2.344,0.622-2.815-0.903c-0.242-0.782,0.545-0.994,1.118-1.231
		C547.196,811.351,547.823,812.014,548.07,812.978z"/>
	<path style="fill:#3C3B3D;" d="M552.07,817.978c-0.984-0.185-2.344,0.622-2.815-0.903c-0.242-0.782,0.545-0.994,1.118-1.231
		C551.196,816.351,551.823,817.013,552.07,817.978z"/>
	<path style="fill:#434243;" d="M931.003,516.084c-0.058,0.469-0.295,0.786-0.766,0.906c-0.152-0.28-0.249-0.579-0.29-0.895
		C930.299,516.091,930.651,516.088,931.003,516.084z"/>
	<path style="fill:#E6272A;" d="M1469.915,428.027c-0.65,0.063-1.407-0.007-1.709,0.739c-4.47,11.055-11.32,20.535-20.052,28.483
		c-11.018,10.029-23.238,18.322-37.205,23.929c-4.566,1.833-9.001,4.09-13.655,5.681c-9.442,3.228-18.957,6.274-28.791,8.15
		c-6.742,1.286-13.438,3.018-20.24,3.732c-6.05,0.635-11.979,2.178-18.083,2.267c-2.974,0.043-5.944,0.684-8.762,1.254
		c-3.83,0.775-7.571,0.577-11.35,0.732c-55.899,2.288-111.822,0.629-167.733,0.939c-55.971,0.31-111.945,0.061-167.918,0.059
		c-55.973-0.002-111.945-0.001-167.918-0.005c-2.165,0-4.33-0.039-6.495-0.061c0.683-4.414,4.351-6.885,6.8-10.085
		c4.699-6.139,10.113-11.7,14.851-17.838c3.924-5.083,8.387-9.748,12.511-14.681c6.122-7.322,12.123-14.744,18.238-22.071
		c4.12-4.937,8.387-9.75,12.517-14.679c4.544-5.423,8.958-10.954,13.515-16.365c4.356-5.172,8.873-10.208,13.226-15.383
		c4.234-5.034,8.375-10.146,12.508-15.264c2.282-2.826,4.865-5.372,7.169-8.2c6.445-7.911,12.857-15.874,19.577-23.539
		c6.308-7.196,12.284-14.662,18.543-21.893c5.605-6.474,10.94-13.186,16.646-19.583c1.089-1.221,1.948-2.681,1.899-4.456
		c1.831-0.031,3.662-0.089,5.492-0.09c61.955-0.009,123.909-0.008,185.864-0.037c1.807-0.001,3.66,0.388,5.429-0.344
		c6.466,0.595,12.932,0.617,19.398-0.014c0.51,0.458,0.719,0.084,0.912-0.331l-0.019,0.035l0.468,0.068l0.466-0.085
		c1.318,0.102,2.635,0.297,3.953,0.293c33.279-0.11,66.56,0.287,99.838-0.302c12.756-0.226,25.386-1.788,38.07-2.913
		c20.175-1.789,39.862-5.848,59.271-11.284c23.299-6.525,45.442-15.745,65.071-30.259c6.333-4.683,11.228-10.844,16.766-16.345
		c1.244-1.236,2.009-3.106,4.072-3.368c-0.037,1.995-0.106,3.989-0.107,5.984c-0.006,56.727-0.005,113.454,0,170.181
		c0,0.33,0.074,0.66,0.114,0.99C1473.021,417.586,1471.813,422.875,1469.915,428.027z"/>
	<path style="fill:#434243;" d="M1185.799,516.992c-0.258-0.287-0.517-0.574-0.775-0.861c0.333-0.001,0.667-0.003,1-0.004
		C1186.03,516.437,1185.955,516.725,1185.799,516.992z"/>
	<path style="fill:#505052;" d="M1185.842,2.018c-0.283-0.302-0.566-0.605-0.849-0.907c0.312-0.138,0.627-0.143,0.944-0.017
		C1186.074,1.418,1186.042,1.727,1185.842,2.018z"/>
	<path style="fill:#505052;" d="M1186.014,299.091c0,0-0.465,0.085-0.465,0.085l-0.468-0.068c-0.027-0.557,0.202-0.944,0.745-1.122
		C1185.888,298.355,1185.951,298.723,1186.014,299.091z"/>
	<path style="fill:#3C3B3D;" d="M331.649,920.001c0.253-1.699,1.418-2.012,2.896-2.007c6.652,0.023,13.304,0.054,19.955-0.023
		c1.793-0.021,3.111,0.97,4.625,1.583c1.97,0.798,3.63,2.346,5.888,2.445c3.576,3.523,6.409,7.685,9.963,11.263
		c3.579,3.603,6.363,7.979,9.692,11.848c5.373,6.243,10.381,12.769,15.485,19.225c4.906,6.206,10.211,12.104,14.974,18.413
		c2.62,3.471,5.866,6.302,8.576,9.637c5.19,6.385,10.304,12.831,15.445,19.255c3.7,4.624,7.372,9.271,11.094,13.878
		c3.316,4.103,6.582,8.253,10.055,12.219c3.915,4.471,7.438,9.253,11.365,13.724c5.424,6.176,10.346,12.791,15.522,19.187
		c0.828,1.023,2.024,1.792,1.826,3.353c-9.035,0-18.07-0.033-27.104,0.036c-1.338,0.01-3.029-0.786-3.935,1.047
		c-6.312-7.706-12.65-15.392-18.932-23.124c-11.752-14.464-23.183-29.2-35.266-43.382c-23.955-28.117-46.542-57.346-70.195-85.704
		C332.844,921.992,332.288,920.962,331.649,920.001z"/>
	<path style="fill:#3C3B3D;" d="M274.674,849.878c0.259-1.387,1.14-1.877,2.493-1.874c7.488,0.018,14.977,0.004,22.466-0.005
		c2.129-0.003,4.048,0.806,5.23,2.435c7.828,10.784,17.325,20.254,24.67,31.423c0.966,1.469,1.905,2.698,1.015,5.004
		c-6.167,0-12.579,0-18.958,0c-0.253,0.92-0.632,1.601-0.464,1.786c3.794,4.195,6.185,9.655,11.331,12.628
		c0.876,3.457,5.068,4.722,5.574,8.418c0.25,1.825,2.196,2.446,2.977,4.456c0,1.374,0,3.195,0,5.016
		c-5.928-6.083-10.864-12.992-16.235-19.537c-12.568-15.315-25.023-30.724-37.506-46.109
		C276.33,852.364,275.535,851.094,274.674,849.878z"/>
	<path style="fill:#272324;" d="M1414.009,1049c0.002,27.161,0.037,54.322-0.013,81.483c-0.015,8.099-2.745,15.528-6.616,22.465
		c-2.153,3.858-4.733,7.632-7.79,10.796c-5.659,5.856-12.334,10.405-20.071,13.285c-5.792,2.156-11.681,3.057-17.895,3.048
		c-72.651-0.103-145.303-0.027-217.954-0.142c-7.041-0.011-14.053-1.169-20.99-2.564c-4.492-0.903-9.063-1.423-13.54-2.388
		c-11.882-2.561-23.491-6.041-34.692-10.809c-4.542-1.934-9.234-3.58-13.596-5.858c-8.326-4.347-16.481-9-24.317-14.229
		c-12.787-8.533-23.855-19.029-34.077-30.333c-9.058-10.016-16.64-21.206-23.248-33.067c-4.988-8.953-9.008-18.287-12.783-27.768
		c-0.391-0.981-0.365-1.936-0.443-2.918c2.359-0.843,4.784-1.03,7.288-1.03C1120.186,1049.001,1267.097,1048.999,1414.009,1049z"/>
	<path style="fill:#302E2F;" d="M1414.009,1049c-146.912-0.001-293.824,0.001-440.736-0.028c-2.504,0-4.929,0.187-7.288,1.03
		c-3.084-5.621-3.853-12.012-5.947-17.965c-0.807-2.295-0.935-4.807-2.034-7.032c-0.06-1.971-0.314-3.864-0.755-5.834
		c-1.07-4.78-1.505-9.724-2.343-14.551c-3.064-17.647-1.701-35.412-1.841-53.125c-0.211-26.829-0.053-53.662-0.052-80.493
		c2.513-0.988,5.133-1.028,7.79-1.019c12.663,0.04,25.326,0.018,37.989,0.018c51.985,0,103.969-0.008,155.954,0.032
		c1.91,0.001,4.031-0.725,5.561,0.829c1.065,1.315,0.507,2.729,0.769,4.004c0.215,1.048,1.097,1.083,1.935,1.137
		c0.004,12.336,0.008,24.673,0.012,37.009c0.557,13.375,1.163,26.693,5.712,39.548c3.622,10.236,9.16,19.158,15.839,27.641
		c8.277,10.512,18.799,17.964,30.569,23.752c9.462,4.653,19.554,7.078,30.153,8.234c10.628,1.159,21.198,0.71,31.783,0.745
		c43.605,0.146,87.212,0.061,130.818,0.061c1.81,0,3.62,0,6.113,0C1414.009,1025.18,1414.009,1037.09,1414.009,1049z"/>
	<path style="fill:#353335;" d="M23.011,938c0-9.826,0.227-19.66-0.083-29.476c-0.191-6.068,1.441-11.349,4.75-16.389
		c66.787,0,133.55,0,200.429,0c3.801,3.773,4.914,8.604,4.91,13.867c-0.017,21.151-0.028,42.303,0.038,63.454
		c0.005,1.513-0.933,3.371,0.955,4.544c-0.002,38.002-0.004,76.003-0.006,114.005c-3.303-0.503-2.627-4.27-5.071-6.002
		c-68.409,0-137.164,0-205.92,0C23.013,1034.002,23.012,986.001,23.011,938z"/>
	<path style="fill:#302E2F;" d="M23.014,1082.002c68.755,0,137.511,0,205.92,0c2.444,1.732,1.768,5.5,5.071,6.002
		c0.001,9.667,0.045,19.333-0.009,29c-0.052,9.398-0.528,18.721-3.834,27.708c-6.296,17.113-18.018,28.552-35.447,33.835
		c-5.146,1.56-10.619,2.378-16.013,2.389c-50.5,0.104-101,0.062-151.499,0.062c-1.152,0-2.304,0-4.189,0
		C23.014,1147.839,23.014,1114.92,23.014,1082.002z"/>
	<path style="fill:#353335;" d="M489.011,1074c0.198-1.561-0.998-2.33-1.826-3.353c-5.175-6.396-10.098-13.011-15.522-19.187
		c-3.927-4.471-7.45-9.253-11.365-13.724c-3.474-3.967-6.74-8.117-10.055-12.219c-3.722-4.606-7.394-9.253-11.094-13.878
		c-5.141-6.424-10.255-12.87-15.445-19.255c-2.711-3.335-5.956-6.166-8.576-9.637c-4.764-6.309-10.068-12.207-14.974-18.413
		c-5.104-6.456-10.112-12.982-15.485-19.225c-3.329-3.868-6.114-8.245-9.692-11.848c-3.555-3.578-6.388-7.74-9.963-11.263
		c-0.15-2.307-1.57-3.874-2.988-5.54c-3.408-4.005-7.065-7.784-9.741-12.433c-1.033-1.795-1.019-3.742-2.22-5.155
		c2.227-2.283,4.798-1.866,7.259-1.867C421.294,896.999,485.265,897,549.236,897c7.996,0,15.994,0.062,23.989-0.023
		c4.893-0.052,8.936,1.492,12.411,5.067c4.619,4.752,9.214,9.479,13.015,14.951c1.099,1.583,2.479,3.139,4.36,4.005
		c1.25,3.541,4.147,5.939,6.382,8.73c7.002,8.742,14.481,17.1,21.561,25.78c6.874,8.428,13.659,16.916,20.969,24.985
		c6.084,6.716,11.904,13.678,17.692,20.655c5.46,6.581,10.679,13.362,16.095,19.98c3.757,4.592,7.794,8.958,11.483,13.601
		c6.65,8.372,13.649,16.456,20.275,24.852c3.632,4.603,6.616,9.886,11.543,13.416c-0.293,2.443,2.442,3.067,3.004,4.997
		c-4.947-0.105-9.784-1.279-14.798-1.079c-7.817,0.311-15.656,0.082-23.486,0.082c-63.638,0-127.276,0.017-190.914-0.053
		c-3.148-0.004-5.838,0.417-7.814,3.055C492.442,1078.564,491.949,1075.062,489.011,1074z"/>
	<path style="fill:#302E2F;" d="M495.004,1080.002c1.976-2.638,4.666-3.058,7.814-3.055c63.638,0.07,127.276,0.053,190.914,0.053
		c7.83,0,15.669,0.229,23.486-0.082c5.014-0.2,9.851,0.974,14.798,1.079c6.884,8.388,13.797,16.752,20.641,25.172
		c4.053,4.986,7.996,10.062,11.991,15.096c6.244,7.868,12.489,15.736,18.735,23.603c5.017,6.319,9.802,12.844,15.131,18.888
		c4.05,4.593,8.315,9.013,12.389,13.599c1.643,1.849,3.477,3.528,5.37,5.431c-1.765,1.872-3.693,1.175-5.354,1.177
		c-38.994,0.044-77.989,0.034-116.983,0.034c-23.33,0-46.662,0.195-69.989-0.071c-14.767-0.168-29.126-2.934-42.236-10.086
		c-9.411-5.134-18.183-11.141-26.171-18.524c-8.672-8.014-15.591-17.365-23.195-26.222c-5.594-6.516-10.723-13.397-16.399-19.851
		c-6.733-7.656-12.776-15.918-19.118-23.919C496.218,1081.553,495.612,1080.777,495.004,1080.002z"/>
	<path style="fill:#434243;" d="M23.015,611.999c-0.002-9.667-0.004-19.333-0.007-29c0.006-98.337,0.011-196.674,0.017-295.011
		c69.998,0.006,139.995,0.013,209.993,0.019c0.001,19.971,0.173,39.944-0.089,59.911c-0.092,6.981,1.684,13.816,1.071,20.779
		c-2.175,24.711-1.498,49.505-0.744,74.194c1.436,47.045,0.135,94.077,0.756,141.109c-0.001,7.262-0.012,14.524,0.006,21.786
		c0.004,1.812,0.109,3.626-1.004,5.215c-2.512,0.974-5.127,1.017-7.782,1.016C157.826,611.995,90.42,611.999,23.015,611.999z"/>
	<path style="fill:#505052;" d="M233.018,288.007c-69.998-0.006-139.995-0.013-209.993-0.019
		c-0.003-70.317,0.003-140.633-0.022-210.95c-0.004-9.943,2.605-18.976,7.687-27.619c5.483-9.325,12.917-16.259,22.467-20.902
		c5.139-2.498,10.615-3.949,16.459-4.741c7.984-1.081,15.897-0.699,23.827-0.719c44.489-0.114,88.979-0.055,133.468-0.055
		c1.811,0,3.621,0,6.106,0C233.018,111.536,233.018,199.772,233.018,288.007z"/>
	<path style="fill:#505052;" d="M1164.79,299.419c-1.769,0.731-3.622,0.343-5.429,0.344c-61.955,0.028-123.909,0.028-185.864,0.037
		c-1.831,0-3.662,0.058-5.492,0.09c-5.003-0.469-10.057,0.509-15.039-0.533c0.017-46.452,0.034-92.904,0.051-139.357
		c70.001,0.001,140.002,0.003,210.003,0.004c0.003,44.777-0.002,89.554,0.037,134.331
		C1163.058,296.154,1162.164,298.43,1164.79,299.419z"/>
	<path style="fill:#565759;" d="M1163.019,160.003c-70.001-0.001-140.002-0.003-210.003-0.004
		c-0.005-29.14,0.02-58.279-0.034-87.419c-0.015-8.357,2.677-15.875,6.902-22.877c4.955-8.213,11.552-14.992,19.852-19.772
		c7.018-4.042,14.673-6.871,22.902-6.886c51.952-0.092,103.904-0.049,155.855-0.034c1.304,0,2.648-0.263,4.526,0.588
		C1163.019,68.895,1163.019,114.449,1163.019,160.003z"/>
	<path style="fill:#505052;" d="M1185.099,299.074c-0.193,0.415-0.402,0.789-0.912,0.331
		C1184.492,299.294,1184.796,299.184,1185.099,299.074z"/>
	<path style="fill:#434243;" d="M953.007,592.998c0.001-25.637,0.003-51.274,0.004-76.911c1.329-0.036,2.657-0.103,3.986-0.103
		c67.345,0.002,134.691,0.01,202.036,0.024c1.328,0,2.656,0.078,3.984,0.12c-0.002,42.957-0.003,85.914-0.005,128.872
		c-3.64,2.581-7.824,1.992-11.887,1.993c-60.61,0.012-121.22,0.011-181.831,0.004c-5.445-0.001-10.919,0.392-16.281-0.996
		C953.011,628.332,953.009,610.665,953.007,592.998z"/>
	<path style="fill:#434243;" d="M604.99,516.128c-25.66,31.624-51.32,63.247-76.98,94.871c-0.665,0.027-1.504-0.199-1.966,0.121
		c-3.259,2.254-6.935,1.883-10.57,1.883c-75.79-0.004-151.58-0.003-227.369-0.003c-1.82,0-3.64,0-4.267,0
		c-2.701-0.546-2.471-2.523-3.827-3c1.771-4.188,5.545-6.84,8.038-10.49c3.686-5.396,8.889-9.633,11.966-15.509
		c1.033-0.278,1.692-1.082,2.302-1.839c4.958-6.147,9.838-12.358,14.809-18.495c4.981-6.149,10.025-12.247,15.08-18.336
		c0.845-1.018,2.004-1.81,1.814-3.362c9.889-5.365,20.687-8.37,31.255-11.952c12.302-4.169,25.001-6.734,37.756-9.083
		c7.795-1.435,15.656-2.179,23.511-3.114c14.041-1.671,28.098-1.802,42.189-1.795c43.592,0.022,87.184-0.01,130.776-0.013
		C601.333,516.012,603.161,516.088,604.99,516.128z"/>
	<path style="fill:#403E40;" d="M280.01,610c1.355,0.477,1.126,2.454,3.827,3c0.627,0,2.447,0,4.267,0
		c75.79,0,151.58-0.001,227.369,0.003c3.635,0,7.311,0.371,10.57-1.883c0.462-0.32,1.301-0.094,1.966-0.121
		c-6.877,8.38-13.793,16.728-20.619,25.15c-4.959,6.119-9.547,12.557-14.761,18.446c-5.461,6.169-10.257,12.858-15.68,19.05
		c-4.76,5.436-9.317,11.071-13.649,16.855c-3.648,4.872-7.712,9.385-11.468,14.156c-2.947,3.744-5.979,7.423-9.051,11.066
		c-0.867,1.029-0.733,2.137-0.769,3.279c0.302,3.94,1.859,6.939,6,8c-1.082,2.577,2.749,3.811,1.681,6.536
		c-1.772,0.928-3.796,0.439-5.727,0.439c-137.722,0.027-275.445,0.022-413.167,0.041c-2.656,0-5.274-0.035-7.786-1.018
		c0.001-40.333,0.001-80.667,0.002-121c67.405,0,134.811-0.004,202.216,0.019c2.654,0.001,5.27-0.042,7.782-1.016
		c-0.532,8.774,1.76,17.444,0.984,26.221c-0.464,5.245-1.288,10.453-1.021,15.758c0.165,3.26,1.404,5.64,4.104,7.055
		c2.407-0.218,3.463-1.907,4.558-3.245c4.99-6.095,9.651-12.465,14.772-18.444c3.963-4.626,8.078-9.115,11.764-13.979
		c3.469-4.577,7.048-9.07,10.609-13.575C279.07,610.43,279.596,610.259,280.01,610z"/>
	<path style="fill:#3C3B3D;" d="M23.013,732.999c2.512,0.983,5.131,1.018,7.786,1.018c137.722-0.019,275.445-0.014,413.167-0.041
		c1.931,0,3.954,0.488,5.727-0.439c1.068-2.725-2.763-3.959-1.681-6.536c3.464,1.703,5.041,5.241,7.268,8.005
		c8.978,11.146,17.069,23.036,26.43,33.833c6.502,7.499,12.234,15.558,18.631,23.111c4.456,5.261,8.312,11.03,12.413,16.589
		c0.431,0.585,0.17,1.278-0.116,2.188c-78.516,0-157.119,0-236.394,0c-11.272-15.141-24.038-29.769-36.277-44.501
		c-2.071-0.225-3.711-0.649-5.614,0.899c-0.418,3.668-1.188,7.705-1.278,11.758c-0.201,8.994-0.041,17.996-0.083,26.995
		c-0.007,1.599,0.557,3.4-1.497,4.875c-68.564,0-137.518,0-206.718,0c-1.138-1.128-1.583-2.332-1.094-4.522
		c0.709-3.178,0.49-6.624,0.293-9.934C22.723,775.21,23.063,754.102,23.013,732.999z"/>
	<path style="fill:#3C3B3D;" d="M448.012,727c-4.141-1.061-5.698-4.06-6-8C444.307,721.446,446.967,723.617,448.012,727z"/>
	<path style="fill:#3C3B3D;" d="M953.013,645.999c5.362,1.389,10.836,0.995,16.281,0.996c60.61,0.008,121.22,0.009,181.831-0.004
		c4.063-0.001,8.247,0.589,11.887-1.993c2.213,29.219,0.43,58.483,0.981,87.72c0.069,3.651-1.21,6.775-4.582,9.112
		c-67.329,0-134.908,0-202.757,0c-3.416-2.065-4.658-5.446-4.648-9.499c0.019-7.66-0.443-15.356,0.173-22.966
		c0.372-4.602,0.856-9.186,0.813-13.805c-0.027-2.953,0.296-5.901-0.829-8.835c-0.559-1.457-0.38-3.334-0.111-4.95
		C954.027,669.889,952.545,657.919,953.013,645.999z"/>
	<path style="fill:#353335;" d="M1163.012,876.001c-0.837-0.054-1.719-0.089-1.935-1.137c-0.262-1.275,0.296-2.689-0.769-4.004
		c-1.53-1.554-3.651-0.828-5.561-0.829c-51.985-0.039-103.969-0.032-155.954-0.032c-12.663,0-25.326,0.022-37.989-0.018
		c-2.657-0.008-5.278,0.032-7.79,1.019c-0.001-13.667-0.002-27.334-0.003-41.001c0.207-2.694,0.708-5.253,0.17-8.112
		c-0.83-4.408,0.454-8.749,2.888-12.7c67.943,0,135.633,0,203.441,0c1.883,1.576,2.391,3.657,2.544,6.1
		C1163.321,835.513,1162.97,855.76,1163.012,876.001z"/>
</g>
</svg>
