<?xml version="1.0" encoding="iso-8859-1"?>
<!-- Generator: Adobe Illustrator 27.0.0, SVG Export Plug-In . SVG Version: 6.00 Build 0)  -->
<svg version="1.1" id="Layer_1" xmlns="http://www.w3.org/2000/svg" xmlns:xlink="http://www.w3.org/1999/xlink" x="0px" y="0px"
	 viewBox="0 0 1533.857 525.793" style="enable-background:new 0 0 1533.857 525.793;" xml:space="preserve">
<g>
	<path style="fill:#FCD00A;" d="M0,525.793C0,350.653,0,175.347,0,0c511.235,0,1022.479,0,1533.857,0c0,175.182,0,350.404,0,525.793
		C1022.664,525.793,511.336,525.793,0,525.793z M759.931,352.103c4.503,8.279,10.135,15.817,15.107,23.677c3.642,0,6.944,0,10.98,0
		c-5.85-8.377-11.408-16.336-17.037-24.396c5.068-7.676,10.101-15.302,15.541-23.543c-4.097,0.007-7.211-0.322-10.35,0.282
		c-4.669,7.692-10.025,14.861-14.208,22.768c-1.891-0.568-1.105-2.158-1.119-3.292c-0.081-6.465-0.039-12.932-0.039-19.431
		c-3.068-0.899-5.812-0.714-8.5-0.29c0,16.065,0,31.936,0,47.95c2.925,0.041,5.52,0.31,7.943-0.175
		c0.911-1.925,0.518-3.607,0.536-5.232c0.056-5.153-0.014-10.308,0.051-15.461C758.85,353.945,758.226,352.531,759.931,352.103z
		 M660.087,356.131c0.153-8.06,0.453-16.708,0.454-25.356c0.001-18.159-0.105-36.318-0.277-54.477
		c-0.049-5.142,0.009-10.294-1.221-15.385c-5.552-22.981-19.258-38.52-41.82-45.932c-4.242-1.393-8.686-2.17-13.671-3.386
		c3.771-1.935,6.559-3.97,8.873-6.643c4.14-4.782,8.368-9.487,12.5-14.275c1.078-1.249,2.076-2.608,2.876-4.047
		c6.677-11.997-4.377-23.076-13.462-22.754c-10.152,0.36-20.327,0.165-30.491,0.042c-3.909-0.047-7.07,1.445-10.067,3.69
		c-1.027,0.77-1.602,2.192-3.314,2.281c-5.001-7.351-10.064-14.743-15.075-22.17c-9.044-13.403-21.478-21.897-37.12-25.81
		c-11.328-2.833-22.985-3.389-34.504-4.726c-13.367-1.551-26.844-2.469-40.298-2.885c-26.3-0.812-52.603-0.817-78.868,1.484
		c-15.561,1.363-31.093,2.843-46.556,5.101c-12.725,1.858-23.663,7.184-33.224,15.686c-5.178,4.604-8.835,10.346-12.699,15.953
		c-4.022,5.836-7.756,11.876-12.387,17.767c-4.48-5.673-10.389-6.657-16.779-6.508c-6.828,0.159-13.66,0.125-20.491,0.178
		c-2.166,0.017-4.346-0.108-6.495,0.09c-6.062,0.558-10.711,3.414-13.44,8.955c-2.692,5.467-2.106,11.05,1.693,15.453
		c7.04,8.16,13.086,17.351,22.628,23.257c-1.558,0.738-3.008,1.008-4.5,1.221c-8.311,1.191-16.179,3.825-23.182,8.426
		c-19.293,12.676-28.604,30.923-28.802,53.79c-0.221,25.493-0.089,50.989-0.116,76.484c-0.002,2.351,0.237,4.63,1.654,6.724
		c3.403,1.603,7.2,2.06,10.957,3.201c0,1.871-0.001,3.522,0,5.172c0.007,9.331-0.021,18.663,0.035,27.994
		c0.03,5,0.634,5.93,5.5,6.442c12.893,1.357,25.805,2.543,38.723,3.648c12.592,1.077,25.197,1.999,37.802,2.923
		c3.321,0.243,6.66,0.355,9.989,0.324c4.2-0.039,5.959-1.841,6.011-6.169c0.082-6.831-0.003-13.664,0.048-20.496
		c0.012-1.632-0.402-3.328,0.524-5.104c89.655,9.712,179.399,10.121,269.443-0.132c0,2.512-0.001,4.328,0,6.144
		c0.003,6.832-0.06,13.665,0.035,20.496c0.053,3.781,1.402,5.132,5.138,5.162c3.495,0.028,6.999-0.119,10.486-0.367
		c11.942-0.849,23.88-1.762,35.818-2.679c9.286-0.713,18.605-1.181,27.838-2.331c4.459-0.556,8.98-0.283,13.394-1.348
		c4.123-0.995,5.188-2.062,5.296-6.401c0.058-2.332,0.022-4.665,0.022-6.998c0.002-8.811,0.001-17.621,0.001-26.427
		C652.592,359.451,657.359,360.692,660.087,356.131z M1234.054,227.067c18.219,0,35.996,0,54.255,0
		c-0.378,4.557,0.5,8.777-0.656,13.364c-21.6,0-43.017,0-64.654,0c-0.001,6.33-0.076,12.225,0.054,18.545
		c22.127,0,43.527,0,65.395,0c0,8.7,0,16.955,0,25.732c5.92,0,11.377,0.101,16.829-0.026c6.799-0.158,8.852-2.337,8.873-9.077
		c0.017-5.445,0.004-10.891,0.004-16.973c17.9,0,35.28,0,52.598,0c0-6.425,0-12.201,0-18.411c-4.525,0-8.817,0-13.109,0
		c-4.332,0-8.664,0-12.996,0c-4.499,0-9,0.091-13.495-0.026c-4.242-0.11-8.538,0.535-12.989-0.483
		c0.132-4.362-0.393-8.45,0.448-12.971c15.743,0,31.311,0,46.773,0c0-6.217,0-11.951,0-18.084c-15.786,0-31.223,0-47.286,0
		c0-8.431,0-16.462,0-24.457c-8.9,0-17.161,0-25.805,0c-0.147,8.264,0.057,16.319-0.124,24.458c-7.693,0-14.663,0-22.284,0
		c7.468-10.136,13.79-20.56,19.056-31.258c27.561,0,54.62,0,81.818,0c0-6.127,0-12.043,0-18.371c-5.185,0-10.142,0-15.098,0
		c-4.832,0-9.664,0-14.496,0c-4.998,0-9.997,0-14.995,0c-4.832,0-9.666,0.086-14.495-0.024c-4.87-0.11-9.784,0.484-14.573-0.371
		c-0.216-2.02,1.593-3.396,0.433-5.444c-7.422-3.307-15.093-6.725-22.909-10.207c-2.092,5.546-3.677,10.921-6.351,16.158
		c-13.639,0-27.243,0-41.066,0c0,6.067,0,11.806,0,17.943c10.619,0,21.032,0,32.072,0c-6.972,12.82-15.977,23.104-26.548,32.365
		C1229.774,215.413,1232.028,220.909,1234.054,227.067z M847.808,284.701c5.894,0,11.19,0.08,16.482-0.02
		c6.539-0.125,9.583-2.6,9.495-9.806c-0.177-14.488-0.072-28.981-0.021-43.471c0.005-1.401-0.588-2.976,0.994-4.591
		c6.105,0,12.527,0,18.99,0c0-6.143,0-11.889,0-18.058c-6.651,0-13.07,0-19.701,0c0-13.779,0-27.132,0-40.87
		c6.729,0,13.152,0,19.7,0c0-6.118,0-11.847,0-17.65c-46.282,0-92.317,0-138.737,0c0.259,6.007-0.295,11.741,0.37,17.804
		c6.726,0,13.171,0,19.367,0c1.224,2.205,1.139,4.217,1.079,6.215c-0.315,10.468-0.64,20.936-0.978,31.404
		c-0.031,0.97,0.145,2.028-1.408,3.272c-5.595,0-11.835,0-18.098,0c0,6.248,0,11.982,0,18.158c6.021,0,11.771,0,17.577,0
		c-0.276,18.315-9.182,31.478-22.439,41.488c6.232,6.211,12.216,12.174,18.488,18.425c8.747-7.094,16.436-15.642,21.925-26.091
		c5.557-10.577,7.265-22.166,8.432-33.635c16.386,0,32.298,0,48.482,0C847.808,246.367,847.808,265.15,847.808,284.701z
		 M1028.088,249.543c-8.783,0-17.035,0-25.047,0c-1.355,1.783-0.811,3.539-1.112,5.14c-0.936,4.975-3.66,7.949-8.563,8.225
		c-6.471,0.365-12.976,0.321-19.461,0.174c-3.107-0.07-4.69-1.918-5.053-5.113c-0.168-1.481-0.099-2.992-0.102-4.489
		c-0.042-19.643-0.071-39.286-0.124-58.928c-0.005-1.819,0.144-3.638-0.406-5.447c-0.857-2.815-2.607-4.912-5.51-5.02
		c-6.594-0.244-13.204-0.077-19.638-0.077c-0.267,0.758-0.469,1.065-0.469,1.371c0.027,25.133-0.547,50.273,0.368,75.395
		c0.461,12.662,12.49,22.999,23.735,23.358c10.312,0.33,20.617,0.618,30.935,0.625c3.355,0.002,6.673-0.325,9.91-0.924
		c6.842-1.267,12.271-4.74,15.694-11.076C1027.142,265.544,1028.358,257.843,1028.088,249.543z M1117.242,227.044
		c17.771,0,35.176,0,52.934,0c0,2.039-0.003,3.669,0.001,5.299c0.021,10.491-0.04,20.982,0.089,31.471
		c0.142,11.605,6.783,18.899,18.168,20.407c6.809,0.902,13.634,0.286,20.45,0.457c1.276,0.032,2.686,0.423,3.772-0.663
		c0-6.94,0-13.854,0-21.219c-3.914,0-7.56,0.156-11.187-0.043c-3.751-0.205-4.981-1.568-5.28-5.251
		c-0.094-1.158-0.024-2.33-0.026-3.496c-0.017-12.322-0.049-24.645-0.036-36.967c0.003-2.388-0.265-4.581-1.991-6.472
		c-1.845-2.021-4.204-1.75-6.494-1.753c-22.48-0.026-44.96-0.021-67.439,0c-0.945,0.001-2.017-0.327-2.958,0.785
		C1117.242,215.031,1117.242,220.644,1117.242,227.044z M1108.507,176.752c32.431,0,64.113,0,95.944,0c0-5.898,0-11.621,0-17.853
		c-19.994,0-39.679,0-59.476,0c0.093-2.674,2.164-4.254,1.946-6.724c-6.933-3.082-13.798-6.134-20.77-9.233
		c-2.969,5.908-5.716,11.374-8.464,16.84C1114.898,165.327,1111.137,170.377,1108.507,176.752z M1011.591,198.265
		c10.139,18.945,17.289,38.478,24.093,58.461c7.73-2.458,15.067-4.79,22.838-7.261c-6.661-21.138-14.577-41.361-24.861-60.91
		C1026.087,191.462,1019.071,194.681,1011.591,198.265z M938.081,192.235c-8.242-1.477-15.925-3.147-23.861-3.531
		c-2.933,20.863-6.206,41.282-10.133,61.876c7.891,2.111,15.61,4.088,23.586,5.462C931.719,234.631,935.18,213.737,938.081,192.235z
		 M1107.552,227.219c-8.467,0-17.012,0-26.07,0c-0.348,17.874-8.734,31.34-22.657,41.334c6.362,6.293,12.345,12.212,18.61,18.41
		C1096.5,271.97,1106.74,252.143,1107.552,227.219z M1117.246,201.825c26.424,0,52.484,0,78.631,0c0-6.03,0-11.764,0-17.595
		c-26.324,0-52.389,0-78.631,0C1117.246,190.111,1117.246,195.723,1117.246,201.825z M1010.961,182.238
		c-11.818-13.771-23.596-27.387-37.269-39.334c-6.013,5.752-12.381,10.487-17.597,16.67c13.58,11.58,24.917,24.85,36.515,38.145
		C998.671,192.605,1004.634,187.576,1010.961,182.238z M1058.783,327.983c0,11.864,0,23.189,0,35.699
		c-6.155-12.783-12.117-24.34-18.358-35.807c-3.623,0.074-7.054-0.556-10.229,0.351c0,16.016,0,31.722,0,47.617
		c2.779-0.08,5.214,0.438,7.873-0.448c0-11.462,0-22.776,0-34.09c5.879,11.771,12.249,23.106,18.189,34.359c3.769,0,7.04,0,10.369,0
		c0-16.07,0-31.912,0-47.68C1063.966,327.983,1061.674,327.983,1058.783,327.983z M1366.943,351.226
		c0-1.592,0.206-3.452-0.037-5.253c-0.907-6.74-2.658-13.12-9.214-16.725c-10.882-5.984-24.064-0.774-27.749,11.096
		c-2.308,7.437-2.369,15.016-0.333,22.585c2.92,10.859,9.353,13.505,17.179,13.619c8.4,0.122,14.783-2.672,18.403-12.353
		C1366.74,360.055,1367.213,355.825,1366.943,351.226z M823.672,327.89c-4.964,16.068-9.818,31.779-14.776,47.826
		c3.227,0,5.847,0,8.576,0c2.013-3.644,2.19-7.916,3.975-11.499c5.753,0,11.341,0,16.843,0c1.746,3.895,1.922,8.009,4.007,11.578
		c2.85,0.095,5.638,0.341,8.768-0.239c-4.947-15.955-9.829-31.702-14.728-47.504C832.112,327.587,828.151,327.807,823.672,327.89z
		 M1166.711,363.9c1.282,3.973,2.532,7.845,3.711,11.498c1.573,0.774,2.928,0.493,4.233,0.476c1.472-0.02,2.988,0.338,4.882-0.5
		c-4.922-15.832-9.85-31.682-14.727-47.368c-4.524,0-8.475,0-12.685,0c-4.869,15.841-9.699,31.556-14.626,47.587
		c3.326,0.411,5.919,0.486,8.609,0.01c1.91-3.727,1.959-8.074,4.212-11.701c3.989,0,7.807,0,11.626,0
		C1163.43,363.9,1164.914,363.9,1166.711,363.9z M1242.717,327.993c-3.055,0-5.662,0-8.722,0c0,4.97,0.022,9.755-0.006,14.539
		c-0.035,5.99-0.018,11.983-0.207,17.969c-0.098,3.082-1.034,5.828-4.149,7.398c-6.389,3.221-12.861-0.359-13.814-7.558
		c-1.185-8.954-0.392-17.937-0.682-26.901c-0.057-1.77,0.443-3.621-0.478-5.431c-2.505,0-4.921,0-7.406,0
		c-0.171,0.64-0.398,1.096-0.398,1.551c0,10.487,0.002,20.974,0.068,31.461c0.01,1.64,0.094,3.262,0.681,4.898
		c2.262,6.311,6.721,9.625,13.299,10.311c14.278,1.49,20.947-5.436,21.645-15.462
		C1243.296,350.034,1242.717,339.206,1242.717,327.993z M958.119,375.76c-5.319-8.536-10.302-16.533-15.353-24.64
		c4.748-7.692,9.41-15.244,14.437-23.388c-3.847,0.247-6.968-0.322-10.171,0.412c-2.866,5.033-5.71,10.03-8.953,15.726
		c-3.319-5.706-6.283-10.801-9.269-15.934c-3.397-0.117-6.587-0.439-10.284,0.276c4.933,7.974,9.538,15.417,14.208,22.966
		c-5.082,8.162-10.04,16.124-15.26,24.507c3.829,0,6.933,0,9.972,0c3.318-5.693,6.527-11.198,9.942-17.056
		c3.633,6.062,6.947,11.592,10.268,17.132C950.992,375.76,954.133,375.76,958.119,375.76z M1079.755,183.886
		c-3.577,7.35-7.024,14.432-10.634,21.852c8.694,4.217,16.678,9.105,24.778,14.331c4.76-6.771,9.287-13.211,13.916-19.796
		C1098.813,194.123,1089.857,188.809,1079.755,183.886z M1069.16,168.611c8.656,4.476,16.624,9.168,24.731,14.409
		c4.66-6.602,9.22-13.064,13.943-19.755c-9.091-6.131-18.164-11.735-28.13-16.283C1076.14,154.293,1072.729,161.29,1069.16,168.611z
		 M1270.342,328.052c-0.049,2.463-0.394,4.545,0.413,7.063c3.972,0,7.885,0,12.074,0c0,4.939,0,9.41,0,13.88
		c0,4.498-0.104,8.999,0.03,13.492c0.131,4.405-0.596,8.868,0.476,13.366c2.71-0.113,5.168,0.458,7.878-0.508
		c0-13.348,0-26.616,0-40.028c4.282-0.98,8.497,0.431,12.283-0.869c0-2.259,0-4.207,0-6.396
		C1292.491,328.052,1281.723,328.052,1270.342,328.052z M987.251,327.89c0,16.071,0,31.921,0,48.072
		c2.919-0.253,5.521,0.299,8.298-0.412c0-15.937,0-31.648,0-47.66C992.814,327.89,990.217,327.89,987.251,327.89z M880.328,327.969
		c0,16.277,0,32.008,0,47.646c2.949,0,5.543,0,8.273,0c0-16.012,0-31.739,0-47.646C885.707,327.969,883.106,327.969,880.328,327.969
		z"/>
	<path style="fill:#040403;" d="M660.087,356.131c-2.729,4.561-7.495,3.32-11.121,5.284c0,8.805,0.001,17.616-0.001,26.427
		c0,2.333,0.036,4.667-0.022,6.998c-0.108,4.339-1.172,5.407-5.296,6.401c-4.414,1.065-8.935,0.792-13.394,1.348
		c-9.233,1.151-18.552,1.618-27.838,2.331c-11.937,0.917-23.875,1.83-35.818,2.679c-3.487,0.248-6.992,0.395-10.486,0.367
		c-3.735-0.03-5.085-1.381-5.138-5.162c-0.095-6.831-0.032-13.664-0.035-20.496c-0.001-1.816,0-3.632,0-6.144
		c-90.044,10.253-179.788,9.844-269.443,0.132c-0.926,1.776-0.512,3.472-0.524,5.104c-0.051,6.832,0.034,13.664-0.048,20.496
		c-0.052,4.328-1.811,6.13-6.011,6.169c-3.329,0.031-6.669-0.081-9.989-0.324c-12.604-0.924-25.21-1.845-37.802-2.923
		c-12.917-1.105-25.83-2.291-38.723-3.648c-4.866-0.512-5.47-1.442-5.5-6.442c-0.057-9.331-0.029-18.663-0.035-27.994
		c-0.001-1.65,0-3.301,0-5.172c-3.757-1.141-7.554-1.599-10.957-3.201c-1.417-2.094-1.657-4.374-1.654-6.724
		c0.027-25.495-0.105-50.991,0.116-76.484c0.198-22.867,9.509-41.114,28.802-53.79c7.003-4.601,14.872-7.235,23.182-8.426
		c1.492-0.214,2.942-0.483,4.5-1.221c-9.542-5.906-15.587-15.098-22.628-23.257c-3.8-4.404-4.385-9.986-1.693-15.453
		c2.728-5.541,7.378-8.397,13.44-8.955c2.15-0.198,4.329-0.073,6.495-0.09c6.83-0.053,13.663-0.019,20.491-0.178
		c6.39-0.149,12.299,0.835,16.779,6.508c4.631-5.891,8.365-11.932,12.387-17.767c3.864-5.607,7.522-11.349,12.699-15.953
		c9.561-8.502,20.499-13.828,33.224-15.686c15.463-2.258,30.995-3.738,46.556-5.101c26.264-2.301,52.567-2.296,78.868-1.484
		c13.454,0.416,26.931,1.334,40.298,2.885c11.519,1.337,23.177,1.892,34.504,4.726c15.642,3.913,28.076,12.407,37.12,25.81
		c5.011,7.427,10.075,14.819,15.075,22.17c1.712-0.089,2.287-1.511,3.314-2.281c2.997-2.245,6.157-3.737,10.067-3.69
		c10.163,0.123,20.339,0.318,30.491-0.042c9.084-0.322,20.138,10.757,13.462,22.754c-0.801,1.439-1.799,2.798-2.876,4.047
		c-4.132,4.788-8.36,9.494-12.5,14.275c-2.314,2.673-5.103,4.708-8.873,6.643c4.985,1.216,9.429,1.993,13.671,3.386
		c22.562,7.412,36.268,22.951,41.82,45.932c1.23,5.092,1.173,10.243,1.221,15.385c0.172,18.158,0.278,36.318,0.277,54.477
		C660.541,339.423,660.241,348.07,660.087,356.131z M568.899,311.051c0-14.406,0.137-28.056-0.044-41.701
		c-0.139-10.481-9.554-17.502-19.381-14.952c-5.74,1.49-11.6,2.609-17.466,3.493c-9.978,1.504-19.95,3.052-29.962,4.368
		c-10.689,1.405-21.394,2.718-32.119,3.555c-14.092,1.101-28.242,1.578-42.377,1.965c-22.808,0.624-45.556-0.54-68.279-2.616
		c-10.078-0.921-20.142-1.881-30.196-3.052c-15.939-1.857-31.714-4.59-47.411-7.87c-11.269-2.355-19.326,5.686-19.484,13.43
		c-0.291,14.298-0.083,28.606-0.083,43.367C364.403,332.7,466.488,332.802,568.899,311.051z M447.182,203.833
		c0.97-2.779,0.501-4.786,0.585-6.76c0.135-3.16-0.285-6.433,0.396-9.464c2.752-12.261,11.433-20.473,22.453-22.524
		c13.741-2.557,24.101,3.039,30.475,12.849c3.433,5.284,4.857,11.189,4.891,17.452c0.018,3.264,0.003,6.528,0.003,10.263
		c15.599-0.025,30.526,1.988,46.189,2.435c-9.712-14.294-18.86-28.079-28.375-41.605c-3.862-5.49-9.635-8.72-16.348-9.4
		c-9.561-0.968-19.055-2.438-28.629-3.357c-14.236-1.365-28.452-2.664-42.759-2.802c-3.163-0.031-6.337-0.042-9.487-0.298
		c-7.324-0.595-14.628-0.521-21.958-0.026c-10.625,0.718-21.287,0.347-31.929,1.218c-5.784,0.473-11.583,1.038-17.37,1.507
		c-3.458,0.28-6.962,0.398-10.414,0.885c-6.392,0.901-12.756,2.155-19.178,2.66c-8.76,0.688-15.327,4.596-20.17,11.809
		c-4.616,6.874-9.392,13.641-14.051,20.486c-4.176,6.136-8.287,12.315-12.528,18.625c6.807,0.339,43.285-2.202,45.887-3.177
		c0.515-5.574-0.123-11.202,0.975-16.843c2.578-13.249,13.312-22.861,27.6-23.427c14.755-0.584,25.846,10.434,28.667,20.989
		c1.147,4.291,0.728,8.572,0.988,12.863c0.107,1.754-0.64,3.655,0.992,5.631C404.917,202.938,426,203.007,447.182,203.833z"/>
	<path style="fill:#0F0D07;" d="M1234.054,227.067c-2.026-6.158-4.28-11.653-5.321-17.62c10.571-9.26,19.576-19.545,26.548-32.365
		c-11.04,0-21.453,0-32.072,0c0-6.137,0-11.877,0-17.943c13.823,0,27.426,0,41.066,0c2.674-5.237,4.259-10.612,6.351-16.158
		c7.816,3.482,15.488,6.901,22.909,10.207c1.16,2.048-0.648,3.424-0.433,5.444c4.789,0.855,9.702,0.261,14.573,0.371
		c4.829,0.11,9.663,0.024,14.495,0.024c4.998,0,9.997,0,14.995,0c4.832,0,9.664,0,14.496,0c4.957,0,9.913,0,15.098,0
		c0,6.328,0,12.243,0,18.371c-27.198,0-54.257,0-81.818,0c-5.266,10.698-11.588,21.122-19.056,31.258c7.621,0,14.591,0,22.284,0
		c0.181-8.139-0.023-16.195,0.124-24.458c8.644,0,16.905,0,25.805,0c0,7.996,0,16.026,0,24.457c16.063,0,31.5,0,47.286,0
		c0,6.133,0,11.867,0,18.084c-15.463,0-31.03,0-46.773,0c-0.841,4.522-0.315,8.61-0.448,12.971c4.45,1.019,8.747,0.373,12.989,0.483
		c4.496,0.117,8.996,0.026,13.495,0.026c4.332,0,8.664,0,12.996,0c4.292,0,8.585,0,13.109,0c0,6.211,0,11.986,0,18.411
		c-17.318,0-34.698,0-52.598,0c0,6.082,0.013,11.528-0.004,16.973c-0.021,6.74-2.074,8.919-8.873,9.077
		c-5.452,0.127-10.909,0.026-16.829,0.026c0-8.776,0-17.031,0-25.732c-21.868,0-43.269,0-65.395,0
		c-0.13-6.32-0.055-12.215-0.054-18.545c21.637,0,43.054,0,64.654,0c1.156-4.587,0.278-8.807,0.656-13.364
		C1270.05,227.067,1252.273,227.067,1234.054,227.067z"/>
	<path style="fill:#080704;" d="M847.808,284.701c0-19.551,0-38.334,0-57.426c-16.184,0-32.096,0-48.482,0
		c-1.167,11.47-2.875,23.058-8.432,33.635c-5.49,10.449-13.178,18.997-21.925,26.091c-6.272-6.251-12.255-12.214-18.488-18.425
		c13.257-10.011,22.164-23.174,22.439-41.488c-5.806,0-11.556,0-17.577,0c0-6.176,0-11.91,0-18.158c6.263,0,12.503,0,18.098,0
		c1.552-1.244,1.376-2.302,1.408-3.272c0.338-10.468,0.662-20.936,0.978-31.404c0.06-1.998,0.145-4.01-1.079-6.215
		c-6.196,0-12.641,0-19.367,0c-0.666-6.063-0.112-11.797-0.37-17.804c46.42,0,92.455,0,138.737,0c0,5.803,0,11.532,0,17.65
		c-6.548,0-12.972,0-19.7,0c0,13.738,0,27.09,0,40.87c6.631,0,13.05,0,19.701,0c0,6.169,0,11.916,0,18.058
		c-6.463,0-12.884,0-18.99,0c-1.582,1.615-0.989,3.19-0.994,4.591c-0.051,14.49-0.155,28.983,0.021,43.471
		c0.088,7.206-2.956,9.681-9.495,9.806C858.998,284.781,853.702,284.701,847.808,284.701z M847.688,168.314
		c-15.7,0-30.917,0-46.319,0c0.764,13.59-0.94,26.812-0.291,40.205c15.661,0,31.032,0,46.609,0
		C847.688,194.99,847.688,181.75,847.688,168.314z"/>
	<path style="fill:#100E07;" d="M1028.088,249.543c0.27,8.3-0.946,16-4.844,23.215c-3.423,6.336-8.852,9.809-15.694,11.076
		c-3.237,0.599-6.555,0.926-9.91,0.924c-10.318-0.007-20.623-0.295-30.935-0.625c-11.245-0.36-23.274-10.696-23.735-23.358
		c-0.914-25.122-0.341-50.262-0.368-75.395c0-0.307,0.202-0.613,0.469-1.371c6.434,0,13.044-0.167,19.638,0.077
		c2.903,0.107,4.654,2.205,5.51,5.02c0.55,1.809,0.401,3.628,0.406,5.447c0.053,19.643,0.083,39.285,0.124,58.928
		c0.003,1.497-0.067,3.008,0.102,4.489c0.363,3.194,1.946,5.042,5.053,5.113c6.484,0.147,12.99,0.191,19.461-0.174
		c4.903-0.277,7.626-3.25,8.563-8.225c0.301-1.601-0.243-3.357,1.112-5.14C1011.053,249.543,1019.305,249.543,1028.088,249.543z"/>
	<path style="fill:#0A0805;" d="M1117.242,227.044c0-6.399,0-12.012,0-17.443c0.941-1.112,2.013-0.784,2.958-0.785
		c22.48-0.021,44.96-0.026,67.439,0c2.29,0.003,4.65-0.268,6.494,1.753c1.726,1.891,1.994,4.085,1.991,6.472
		c-0.013,12.322,0.019,24.645,0.036,36.967c0.002,1.166-0.068,2.337,0.026,3.496c0.299,3.682,1.529,5.045,5.28,5.251
		c3.627,0.199,7.273,0.043,11.187,0.043c0,7.365,0,14.279,0,21.219c-1.085,1.085-2.495,0.695-3.772,0.663
		c-6.815-0.171-13.64,0.445-20.45-0.457c-11.385-1.508-18.026-8.803-18.168-20.407c-0.129-10.489-0.067-20.981-0.089-31.471
		c-0.003-1.63-0.001-3.261-0.001-5.299C1152.418,227.044,1135.012,227.044,1117.242,227.044z"/>
	<path style="fill:#0B0A06;" d="M1108.507,176.752c2.63-6.376,6.392-11.426,9.18-16.97c2.749-5.465,5.495-10.932,8.464-16.84
		c6.973,3.1,13.837,6.151,20.77,9.233c0.218,2.47-1.854,4.05-1.946,6.724c19.797,0,39.482,0,59.476,0c0,6.232,0,11.954,0,17.853
		C1172.62,176.752,1140.938,176.752,1108.507,176.752z"/>
	<path style="fill:#0B0A06;" d="M1011.591,198.265c7.48-3.584,14.496-6.803,22.07-9.71c10.284,19.549,18.2,39.772,24.861,60.91
		c-7.772,2.471-15.108,4.803-22.838,7.261C1028.88,236.744,1021.73,217.21,1011.591,198.265z"/>
	<path style="fill:#0B0A06;" d="M938.081,192.235c-2.901,21.502-6.362,42.396-10.409,63.807c-7.976-1.374-15.695-3.351-23.586-5.462
		c3.927-20.595,7.2-41.014,10.133-61.876C922.155,189.088,929.838,190.757,938.081,192.235z"/>
	<path style="fill:#080704;" d="M1107.552,227.219c-0.812,24.924-11.052,44.751-30.116,59.744
		c-6.265-6.197-12.248-12.116-18.61-18.41c13.922-9.994,22.308-23.46,22.657-41.334
		C1090.54,227.219,1099.085,227.219,1107.552,227.219z"/>
	<path style="fill:#040403;" d="M1117.246,201.825c0-6.102,0-11.714,0-17.595c26.241,0,52.307,0,78.631,0c0,5.831,0,11.566,0,17.595
		C1169.73,201.825,1143.67,201.825,1117.246,201.825z"/>
	<path style="fill:#0B0A06;" d="M1010.961,182.238c-6.327,5.337-12.29,10.367-18.351,15.48
		c-11.598-13.294-22.935-26.565-36.515-38.145c5.216-6.183,11.584-10.917,17.597-16.67
		C987.365,154.851,999.143,168.467,1010.961,182.238z"/>
	<path style="fill:#0B0A06;" d="M1058.783,327.983c2.891,0,5.183,0,7.845,0c0,15.768,0,31.61,0,47.68c-3.329,0-6.6,0-10.369,0
		c-5.94-11.253-12.31-22.588-18.189-34.359c0,11.314,0,22.628,0,34.09c-2.66,0.885-5.094,0.368-7.873,0.448
		c0-15.895,0-31.601,0-47.617c3.175-0.907,6.605-0.277,10.229-0.351c6.241,11.468,12.204,23.025,18.358,35.807
		C1058.783,351.173,1058.783,339.848,1058.783,327.983z"/>
	<path style="fill:#16140E;" d="M1366.943,351.226c0.27,4.6-0.203,8.829-1.751,12.97c-3.619,9.681-10.003,12.475-18.403,12.353
		c-7.826-0.114-14.259-2.76-17.179-13.619c-2.035-7.569-1.975-15.148,0.333-22.585c3.684-11.87,16.866-17.081,27.749-11.096
		c6.557,3.605,8.307,9.985,9.214,16.725C1367.149,347.774,1366.943,349.634,1366.943,351.226z M1357.925,352.268
		c0.333-4.363-0.172-8.646-2.14-12.601c-1.815-3.649-4.871-5.232-9.007-4.929c-3.935,0.288-6.624,2.19-7.842,5.857
		c-2.427,7.306-2.484,14.703,0.088,21.971c1.649,4.66,4.934,6.672,9.523,6.407c4.023-0.232,7.153-2.896,8.364-7.323
		C1357.746,358.6,1358.292,355.486,1357.925,352.268z"/>
	<path style="fill:#16140E;" d="M823.672,327.89c4.479-0.083,8.44-0.303,12.664,0.161c4.899,15.802,9.781,31.549,14.728,47.504
		c-3.129,0.58-5.918,0.334-8.768,0.239c-2.084-3.568-2.261-7.683-4.007-11.578c-5.502,0-11.09,0-16.843,0
		c-1.785,3.582-1.962,7.854-3.975,11.499c-2.729,0-5.349,0-8.576,0C813.854,359.668,818.708,343.958,823.672,327.89z
		 M836.026,355.941c-2.098-7.339-3.999-13.986-5.899-20.633c-0.229,0.072-0.457,0.144-0.686,0.215
		c-1.858,6.717-3.717,13.433-5.649,20.418C828.112,355.941,831.842,355.941,836.026,355.941z"/>
	<path style="fill:#18150E;" d="M1166.711,363.9c-1.797,0-3.281,0-4.765,0c-3.819,0-7.637,0-11.626,0
		c-2.253,3.627-2.302,7.974-4.212,11.701c-2.69,0.476-5.283,0.401-8.609-0.01c4.927-16.031,9.757-31.746,14.626-47.587
		c4.21,0,8.16,0,12.685,0c4.877,15.686,9.805,31.536,14.727,47.368c-1.894,0.839-3.411,0.48-4.882,0.5
		c-1.305,0.018-2.659,0.298-4.233-0.476C1169.243,371.745,1167.994,367.874,1166.711,363.9z M1158.464,334.13
		c-2.218,7.797-4.181,14.7-6.27,22.044c4.204-0.016,7.954,0.337,12.195-0.365C1162.451,348.719,1160.589,341.906,1158.464,334.13z"
		/>
	<path style="fill:#110F0A;" d="M1242.717,327.993c0,11.213,0.579,22.041-0.169,32.776c-0.699,10.026-7.367,16.952-21.645,15.462
		c-6.578-0.686-11.037-3.999-13.299-10.311c-0.587-1.636-0.671-3.258-0.681-4.898c-0.065-10.487-0.068-20.974-0.068-31.461
		c0-0.455,0.227-0.911,0.398-1.551c2.485,0,4.901,0,7.406,0c0.921,1.81,0.421,3.661,0.478,5.431
		c0.29,8.964-0.503,17.947,0.682,26.901c0.952,7.199,7.425,10.778,13.814,7.558c3.115-1.57,4.051-4.317,4.149-7.398
		c0.189-5.986,0.172-11.979,0.207-17.969c0.028-4.784,0.006-9.569,0.006-14.539C1237.055,327.993,1239.661,327.993,1242.717,327.993
		z"/>
	<path style="fill:#16140E;" d="M958.119,375.76c-3.986,0-7.127,0-10.464,0c-3.32-5.54-6.634-11.07-10.268-17.132
		c-3.415,5.858-6.623,11.363-9.942,17.056c-3.04,0-6.143,0-9.972,0c5.22-8.383,10.178-16.345,15.26-24.507
		c-4.67-7.549-9.275-14.992-14.208-22.966c3.697-0.715,6.887-0.393,10.284-0.276c2.986,5.133,5.95,10.228,9.269,15.934
		c3.243-5.696,6.088-10.692,8.953-15.726c3.203-0.733,6.324-0.165,10.171-0.412c-5.027,8.144-9.689,15.696-14.437,23.388
		C947.817,359.227,952.8,367.224,958.119,375.76z"/>
	<path style="fill:#0D0C07;" d="M1079.755,183.886c10.102,4.923,19.059,10.237,28.06,16.387
		c-4.629,6.585-9.156,13.024-13.916,19.796c-8.1-5.226-16.084-10.114-24.778-14.331
		C1072.731,198.319,1076.178,191.236,1079.755,183.886z"/>
	<path style="fill:#0D0C07;" d="M1069.16,168.611c3.569-7.321,6.98-14.318,10.543-21.629c9.965,4.549,19.039,10.152,28.13,16.283
		c-4.722,6.691-9.283,13.153-13.943,19.755C1085.784,177.779,1077.816,173.087,1069.16,168.611z"/>
	<path style="fill:#0B0A06;" d="M1270.342,328.052c11.381,0,22.15,0,33.154,0c0,2.188,0,4.137,0,6.396
		c-3.786,1.301-8.001-0.11-12.283,0.869c0,13.413,0,26.68,0,40.028c-2.71,0.967-5.168,0.395-7.878,0.508
		c-1.072-4.499-0.345-8.962-0.476-13.366c-0.134-4.494-0.03-8.995-0.03-13.492c0-4.471,0-8.941,0-13.88c-4.188,0-8.102,0-12.074,0
		C1269.947,332.598,1270.293,330.515,1270.342,328.052z"/>
	<path style="fill:#18150E;" d="M759.964,350.891c4.184-7.907,9.539-15.076,14.208-22.768c3.139-0.604,6.253-0.275,10.35-0.282
		c-5.44,8.241-10.474,15.866-15.541,23.543c5.629,8.061,11.187,16.019,17.037,24.396c-4.037,0-7.338,0-10.98,0
		c-4.971-7.86-10.604-15.398-15.107-23.677C759.942,351.699,759.953,351.295,759.964,350.891z"/>
	<path style="fill:#1C190F;" d="M759.964,350.891c-0.011,0.404-0.022,0.808-0.033,1.212c-1.706,0.428-1.082,1.842-1.095,2.857
		c-0.065,5.153,0.005,10.308-0.051,15.461c-0.018,1.625,0.375,3.307-0.536,5.232c-2.423,0.484-5.018,0.216-7.943,0.175
		c0-16.014,0-31.884,0-47.95c2.688-0.424,5.432-0.609,8.5,0.29c0,6.499-0.041,12.966,0.039,19.431
		C758.86,348.733,758.073,350.323,759.964,350.891z"/>
	<path style="fill:#1C190F;" d="M987.251,327.89c2.966,0,5.563,0,8.298,0c0,16.012,0,31.723,0,47.66
		c-2.776,0.711-5.378,0.159-8.298,0.412C987.251,359.81,987.251,343.961,987.251,327.89z"/>
	<path style="fill:#16140E;" d="M880.328,327.969c2.778,0,5.379,0,8.273,0c0,15.907,0,31.634,0,47.646c-2.73,0-5.324,0-8.273,0
		C880.328,359.977,880.328,344.246,880.328,327.969z"/>
	<path style="fill:#F8CD13;" d="M847.688,168.314c0,13.437,0,26.676,0,40.205c-15.577,0-30.949,0-46.609,0
		c-0.649-13.393,1.055-26.615,0.291-40.205C816.771,168.314,831.988,168.314,847.688,168.314z"/>
	<path style="fill:#F8CD13;" d="M1357.925,352.268c0.367,3.217-0.179,6.331-1.014,9.382c-1.211,4.427-4.341,7.091-8.364,7.323
		c-4.589,0.265-7.874-1.748-9.523-6.407c-2.571-7.268-2.515-14.665-0.088-21.971c1.218-3.667,3.907-5.568,7.842-5.857
		c4.136-0.303,7.192,1.28,9.007,4.929C1357.753,343.622,1358.259,347.906,1357.925,352.268z"/>
	<path style="fill:#F4CA19;" d="M836.026,355.941c-4.184,0-7.914,0-12.234,0c1.932-6.985,3.791-13.701,5.649-20.418
		c0.229-0.072,0.457-0.144,0.686-0.215C832.027,341.954,833.928,348.602,836.026,355.941z"/>
	<path style="fill:#F4CA19;" d="M1158.464,334.13c2.125,7.775,3.987,14.589,5.925,21.679c-4.241,0.702-7.991,0.349-12.195,0.365
		C1154.282,348.83,1156.246,341.927,1158.464,334.13z"/>
</g>
</svg>
