<?xml version="1.0" encoding="iso-8859-1"?>
<!-- Generator: Adobe Illustrator 27.0.0, SVG Export Plug-In . SVG Version: 6.00 Build 0)  -->
<svg version="1.1" id="Layer_1" xmlns="http://www.w3.org/2000/svg" xmlns:xlink="http://www.w3.org/1999/xlink" x="0px" y="0px"
	 viewBox="0 0 1700 465" style="enable-background:new 0 0 1700 465;" xml:space="preserve">
<g>
	<path style="fill:#1C164E;" d="M1700,465c-566.667,0-1133.333,0-1700,0C0,310,0,155,0,0c566.667,0,1133.333,0,1700,0
		C1700,155,1700,310,1700,465z M1293.727,322.815c0-60.276,0-120.029,0-179.813c-13.321,0-26.366,0-39.763,0
		c0,23.1,0,45.852,0,68.751c-21.593,0-42.827,0-64.203,0c-0.76-23.144-0.495-46.047-0.567-68.891
		c-16.068-0.863-36.402-0.477-39.687,0.654c0,59.773,0,119.495,0,179.118c13.454,0,26.529,0,39.87,0c0-24.955,0-49.566,0-74.37
		c21.648,0,43.023,0,64.838,0c0,25.01,0,49.739,0,74.551C1267.595,322.815,1280.534,322.815,1293.727,322.815z M993.804,150.01
		c-0.57-0.406-0.93-0.762-1.363-0.956c-11.49-5.165-23.772-7.074-36.144-7.857c-8.763-0.555-17.592-0.439-26.429,0.617
		c-9.417,1.125-18.601,2.927-27.41,6.303c-35.593,13.642-53.736,40.415-57.281,77.607c-1.168,12.255-0.248,24.591,2.899,36.602
		c3.404,12.992,9.17,24.838,18.221,34.858c13.222,14.637,30.295,22.29,49.301,25.637c11.438,2.014,23.006,2.581,34.769,1.458
		c11.578-1.105,23.012-2.611,34.288-5.331c5.059-1.22,10.187-2.367,14.881-4.692c0-31.563,0-62.842,0-94.726
		c-21.929-0.601-43.626-0.623-65.286-0.042c0,11.147,0,21.582,0,32.464c8.976,0,17.709,0,26.582,0c0,12.565,0,24.677,0,36.852
		c-1.024,0.416-1.898,0.933-2.838,1.129c-8.874,1.85-17.949,2.331-26.771,0.791c-19.585-3.418-33.455-14.292-40.362-33.365
		c-4.406-12.168-4.87-24.612-2.931-37.264c2.292-14.956,9.077-27.15,21.85-35.692c9.05-6.052,19.195-8.78,29.896-9.316
		c6.625-0.332,13.263-0.158,19.923,0.715c7.588,0.994,14.973,2.453,22.069,5.306c1.204,0.484,2.299,1.407,3.982,0.689
		C988.342,171.304,991.073,160.656,993.804,150.01z M218.885,321.782c18.764,0,36.876,0,54.918,0
		c1.118-3.607,2.639-6.864,3.337-10.806c-3.002-0.319-5.612-0.692-8.235-0.851c-2.827-0.171-5.628-0.252-7.86-2.672
		c-0.183-2.588-0.173-5.122,0.695-7.755c5.716-17.346,11.367-34.715,16.898-52.121c3.686-11.601,8.191-22.97,9.9-35.146
		c1.757-12.521-2.883-23.463-15.98-27.776c-4.002-1.318-8.056-1.708-12.166-2.074c-9.144-0.813-17.798,0.783-25.698,5.558
		c-5.954,3.599-11.75,7.459-17.647,11.153c-3.145,1.97-6.355,3.835-10.367,6.247c2.125-8.108,5.768-14.801,6.553-23.275
		c-20.007,5.766-38.968,12.072-58.863,12.981c-1.19,3.69-2.249,6.976-3.308,10.258c5.46,1.93,11.613,0.092,16.702,2.977
		c0.961,4.301-0.168,7.924-1.364,11.56c-10.281,31.263-20.388,62.584-31.159,93.685c-0.881,2.545-2.194,5.079-2.203,8.079
		c11.835,0,23.448,0,35.337,0c1.902-5.676,3.803-11.257,5.643-16.859c8.218-25.014,16.259-50.087,24.684-75.031
		c5.451-16.141,24.562-25.493,40.71-20.412c6.218,1.957,9.452,6.357,9.621,12.871c0.171,6.576-1.605,12.763-3.624,18.901
		C236.616,268.006,227.8,294.727,218.885,321.782z M1431.606,177.004c5.715,0,10.857,0,16,0c5.163,0,10.328-0.078,15.489,0.022
		c5.073,0.098,10.208-0.422,14.791,0.668c0.456,0.701,0.597,0.829,0.625,0.979c0.061,0.326,0.089,0.662,0.088,0.994
		c-0.077,46.303-0.157,92.605-0.237,138.908c-0.001,0.5-0.003,0.999-0.001,1.499c0.001,0.333-0.015,0.669,0.021,0.998
		c0.036,0.327,0.108,0.654,0.202,0.969c0.045,0.152,0.166,0.289,0.274,0.414c0.102,0.118,0.232,0.212,0.35,0.316
		c11.937,0.76,35.476,0.442,39.48-0.611c0-48.162,0-96.407,0-145.114c15.869,0,31.44,0,47.226,0
		c0.643-11.689,1.26-22.914-0.042-34.109c-8.937-0.936-130.867-0.547-134.684,0.487
		C1431.384,154.457,1430.685,165.58,1431.606,177.004z M415.287,322.693c37.002,0,73.251,0,109.587,0c0-11.415,0-22.539,0-34.237
		c-23.032,0-45.914,0-69.208,0c0-48.825,0-97.077,0-145.601c-13.5,0-26.576,0-40.169,0
		C415.766,202.839,415.652,262.587,415.287,322.693z M665.303,142.718c0,60.376,0,120.209,0,179.922c13.358,0,26.409,0,39.367,0
		c0-60.206,0-120.07,0-180.443C691.442,142.946,678.519,142.508,665.303,142.718z"/>
</g>
</svg>
