<?xml version="1.0" encoding="iso-8859-1"?>
<!-- Generator: Adobe Illustrator 27.0.0, SVG Export Plug-In . SVG Version: 6.00 Build 0)  -->
<svg version="1.1" id="Layer_1" xmlns="http://www.w3.org/2000/svg" xmlns:xlink="http://www.w3.org/1999/xlink" x="0px" y="0px"
	 viewBox="0 0 1519.414 283" style="enable-background:new 0 0 1519.414 283;" xml:space="preserve">
<g>
	<path style="fill:#FAB92A;" d="M129,283c-2.484-1.984-5.605-1.367-8.387-1.795c-21.926-3.367-41.896-11.431-59.974-24.243
		c-0.258-0.183-0.429-0.489-0.64-0.738c7.737,0.983,15.357-0.046,22.962-1.332c16.546-3.12,30.34-11.9,43.88-21.246
		c7.229-4.99,13.089-11.579,20.045-16.877c0.874,5.119,3.254,9.55,6.284,13.675c0.853,1.161,0.733,2.479,0.858,3.803
		c0.446,4.744-1.503,9.045-2.463,13.512c-0.873,4.057-0.942,7.645,1.743,11.24c2.15,2.878,3.559,6.056,1.932,10.152
		c-0.962,2.421-0.802,5.634,0.893,8.164c0.918,1.37,0.893,2.805,0.838,4.302c-1.87,0.98-4.331-0.592-5.971,1.383c-1,0-2,0-3,0
		c-3.845-2.168-8.001-0.489-11.989-0.924c-0.3-0.033-0.673,0.6-1.011,0.924C133,283,131,283,129,283z"/>
	<path style="fill:#FCC14E;" d="M126.98,1.246c0.978-0.11,1.955-0.22,2.933-0.33c6.208,0.029,12.416,0.059,18.624,0.083
		C149.488,1.003,150.543,1.229,151,0c0.667,0,1.333,0,2,0c0.594,1.457,1.911,0.823,2.942,1.019c1.693,0.321,3.601-0.538,5.084,0.93
		c0.003,5.45-1.846,10.606-2.561,15.951c-0.489,3.65-0.964,7.126,0.707,10.61c1.743,3.635,2.805,7.365,0.985,11.386
		c-0.38,0.839-0.124,1.966-0.161,2.961c-1.91,1.533-3.945,2.89-5.936,4.307c-4.218,3.003-8.949,5.559-11.295,10.593
		c-1.521-0.045-2.745,0.754-4.069,1.339c-2.639,1.166-4.842,3.178-7.69,3.921c0.004-0.832-0.26-1.787,0.055-2.476
		c2.07-4.521,0.415-7.86-2.927-11.002c-2.364-2.223-3.027-5.363-1.683-8.243c2.309-4.951,1.663-9.183-1.81-13.243
		c-1.73-2.023-2.168-4.594-1.5-7.044c1.286-4.722,1.754-9.668,3.809-14.18C127.795,4.973,127.875,3.112,126.98,1.246z"/>
	<path style="fill:#FCD693;" d="M151,0c-0.457,1.229-1.512,1.003-2.463,0.999c-6.208-0.024-12.416-0.055-18.624-0.083
		C130.031,0.619,130.06,0.314,130,0C137,0,144,0,151,0z"/>
	<path style="fill:#F5A77E;" d="M0.906,151.01l-0.452-0.075L0,151c0-6.333,0-12.667,0-19c0.308,0.133,0.616,0.134,0.925,0.003
		C0.919,138.339,0.912,144.674,0.906,151.01z"/>
	<path style="fill:#FDCC73;" d="M135,283c0.339-0.324,0.711-0.957,1.011-0.924c3.987,0.435,8.143-1.244,11.989,0.924
		C143.667,283,139.333,283,135,283z"/>
	<path style="fill:#0D0C0C;" d="M949.131,81.156c18.712,0,37.022-0.211,55.323,0.11c6.774,0.119,13.55,1.474,19.93,4.015
		c10.955,4.363,17.357,12.163,18.773,24.175c1.495,12.678-3.412,21.932-13.843,28.686c-1.246,0.807-2.505,1.595-3.745,2.41
		c-0.107,0.07-0.124,0.279-0.312,0.745c4.029,1.665,8.243,2.929,11.963,5.374c11.167,7.34,14.818,18.022,13.353,30.632
		c-1.954,16.813-12.712,26.015-28.125,30.551c-7.999,2.354-16.22,3.309-24.614,3.206c-15.327-0.189-30.657-0.054-45.987-0.054
		c-0.808,0-1.616,0-2.716,0C949.131,167.702,949.131,124.657,949.131,81.156z M975.254,151.934c0,13.895,0,27.146,0,40.781
		c5.868,0,11.496,0.021,17.124-0.013c1.657-0.01,3.316-0.145,4.97-0.275c4.456-0.35,8.871-0.643,13.199-2.144
		c11.144-3.864,13.709-14.35,12.012-22.341c-1.771-8.34-7.681-13.344-17.143-15.029C995.5,151.147,985.525,152.432,975.254,151.934z
		 M975.317,99.302c0,11.992,0,23.409,0,34.747c7.636,0,14.976,0.305,22.278-0.094c6.081-0.333,11.869-2.286,15.772-7.347
		c4.089-5.303,4.31-11.356,1.964-17.468c-2.405-6.266-7.9-8.228-13.829-9.088C992.925,98.806,984.276,99.351,975.317,99.302z"/>
	<path style="fill:#0D0C0C;" d="M1431.53,210.842c-7.804,0-14.755,0-22.006,0c-0.881-3.18-1.402-6.515-1.727-9.711
		c-1.758-0.333-2.127,0.832-2.748,1.505c-7.06,7.663-15.988,10.924-26.197,11.385c-6.057,0.273-11.93-0.637-17.647-2.471
		c-11.86-3.805-19.393-12.147-22.808-23.795c-4.695-16.014-4.766-32.168,1.582-47.85c6.545-16.166,18.621-25.785,35.822-28.961
		c7.913-1.461,16.123-1.459,28.157,1.053c0-12.145,0-24.205,0-36.499c8.697,0,16.92,0,25.059,0c1.127,1.948,0.637,3.82,0.639,5.6
		c0.034,30.635,0.022,61.27,0.025,91.905C1429.684,185.473,1429.338,197.959,1431.53,210.842z M1404.016,130.297
		c-4.554-1.92-8.956-2.842-13.412-3.114c-13.313-0.813-22.296,5.209-26.63,17.099c-3.44,9.437-3.6,19.176-2.519,28.994
		c0.491,4.456,1.562,8.796,3.56,12.861c2.311,4.703,5.848,8.246,10.9,9.551c8.322,2.149,16.153,0.741,22.881-4.874
		c3.166-2.643,5.183-6.113,5.198-10.358C1404.05,163.833,1404.016,147.21,1404.016,130.297z"/>
	<path style="fill:#0D0C0C;" d="M1215.76,116.61c1.219,31.528-1.556,62.689,2.089,94.056c-7.281,0-14.527,0-22.042,0
		c-1.437-2.808-0.285-6.42-2.036-9.41c-0.965-0.317-1.335,0.591-1.836,1.13c-9.358,10.067-21.436,12.061-34.258,11.103
		c-7.868-0.588-15.214-3.082-21.447-8.334c-6.784-5.716-10.59-13.08-12.412-21.571c-3.054-14.239-2.949-28.344,2.144-42.184
		c5.805-15.775,17.278-25.178,33.274-29.321c11.629-3.012,23.379-2.618,35.142-0.694
		C1201.572,112.562,1208.623,114.276,1215.76,116.61z M1189.801,129.396c-4.118-1.513-8.596-2.128-13.018-2.295
		c-12.635-0.477-21.875,4.879-26.135,17.14c-2.733,7.866-3.287,15.914-3.072,24.082c0.149,5.652,0.736,11.242,3.123,16.526
		c4.574,10.124,12.482,13.682,25.224,11.167c9.404-1.856,14.455-8.474,14.474-19.074c0.026-14.331,0.018-28.663-0.012-42.994
		C1190.382,132.488,1190.765,130.952,1189.801,129.396z"/>
	<path style="fill:#0D0C0C;" d="M841.43,211.58c-5.797,0-10.916,0-15.97,0c-1.157-1.478-0.684-3.033-0.687-4.465
		c-0.037-17.331,0.025-34.662-0.057-51.993c-0.021-4.49-0.188-9.013-0.757-13.46c-1.056-8.258-5.425-15.764-16.46-17.109
		c-10.952-1.335-20.011,1.613-26.625,10.787c-2.711,3.76-3.927,7.933-3.911,12.596c0.069,19.497,0.04,38.995,0.008,58.492
		c-0.003,1.621,0.386,3.303-0.471,5.101c-5.196,0-10.449,0-15.767,0c-1.038-1.804-0.547-3.672-0.554-5.436
		c-0.077-19.83-0.114-39.66-0.117-59.491c-0.001-3.37-0.677-6.599-1.602-9.8c-1.962-6.796-6.757-10.323-13.427-11.872
		c-13.274-3.083-24.688,3.533-29.392,11.799c-2.214,3.889-3.128,7.95-3.117,12.37c0.049,18.997,0.034,37.995,0.006,56.993
		c-0.003,1.788,0.409,3.658-0.621,5.502c-5.143,0-10.258,0-15.61,0c-0.819-1.753-0.463-3.599-0.465-5.359
		c-0.029-20.997-0.11-41.995,0.023-62.992c0.06-9.491-0.446-18.929-1.77-28.647c4.71-0.7,9.152-0.271,14.157-0.273
		c0.662,4.411,1.317,8.779,2.03,13.533c2.754-3.35,5.493-6.427,8.917-8.751c12.005-8.149,25.007-9.438,38.533-4.936
		c5.784,1.925,10.383,5.871,13.539,11.261c0.723,1.236,1.482,2.451,2.193,3.623c0.916-0.274,1.233-0.86,1.612-1.412
		c7.858-11.459,19.166-15.948,32.593-15.801c3.45,0.038,6.915,0.158,10.395,0.987c13.798,3.287,21.685,13.501,22.896,27.879
		c0.967,11.473,0.377,22.982,0.462,34.475c0.076,10.331,0.016,20.664,0.016,30.996C841.43,207.818,841.43,209.462,841.43,211.58z"/>
	<path style="fill:#0D0C0C;" d="M1297.923,210.98c0-18.597-0.023-36.579,0.015-54.562c0.01-4.838-0.201-9.643-0.756-14.457
		c-1.085-9.413-5.682-14.186-15.967-13.838c-10.843,0.366-18.341,6.539-20.774,15.553c-0.494,1.829-0.431,3.625-0.432,5.442
		c-0.019,18.828-0.011,37.656-0.01,56.484c0,1.634,0,3.269,0,5.15c-8.678,0-17.061,0-25.644,0
		c-0.969-32.465,1.128-64.767-1.436-97.284c3.374-1.061,7.004-0.301,10.561-0.444c3.48-0.14,6.971-0.03,10.694-0.03
		c0.709,3.803,1.375,7.373,2.041,10.943c1.489,0.142,1.893-1.177,2.657-1.955c7.596-7.736,16.934-11.481,27.641-11.928
		c4.479-0.187,8.938-0.054,13.395,0.921c14.306,3.13,21.215,12.266,23.071,25.851c0.769,5.628,0.744,11.29,0.734,16.956
		c-0.031,18.814-0.011,37.629-0.011,57.171C1315.177,211.051,1306.808,211,1297.923,210.98z"/>
	<path style="fill:#0D0C0C;" d="M1519.414,124.155c-4.07,4.523-7.945,8.829-11.735,13.041c-1.84-0.22-2.87-1.405-4.068-2.235
		c-5.819-4.033-12.171-6.666-19.193-7.727c-3.896-0.588-7.59,0.011-11.21,1.4c-3.9,1.496-6.436,4.283-6.84,8.433
		c-0.414,4.251,1.192,7.742,4.98,10.141c3.849,2.438,8.155,3.602,12.452,4.799c6.059,1.688,12.096,3.445,17.792,6.148
		c10.653,5.056,17.039,12.956,16.71,25.315c-0.337,12.648-6.593,21.286-17.926,26.367c-9.346,4.19-19.321,4.75-29.315,3.981
		c-8.945-0.689-17.716-2.596-26.001-6.217c-2.233-0.976-4.59-1.858-6.608-3.825c2.404-5.35,4.757-10.586,7.042-15.671
		c1.944-0.729,3.083,0.619,4.326,1.229c7.81,3.831,15.944,6.462,24.64,7.27c4.062,0.377,8.027-0.188,11.678-1.836
		c8.165-3.684,9.027-14.408,1.653-19.477c-4.173-2.868-9.06-4.005-13.848-5.3c-6.072-1.643-12.094-3.352-17.837-6.013
		c-19.181-8.89-17.753-31.378-7.304-42.306c5.238-5.479,11.757-8.822,18.989-10.306c16.993-3.487,32.982-0.789,47.527,9.03
		C1516.687,121.322,1518.043,122.287,1519.414,124.155z"/>
	<path style="fill:#0D0C0C;" d="M523.009,169.18c-0.711,18.454,11.305,31.325,29.607,32.728c8.384,0.643,16.08-1.585,23.457-5.278
		c1.893-0.948,3.698-2.072,5.676-3.19c2.652,2.936,4.216,6.391,6.568,9.686c-6.103,4.453-12.56,7.288-19.486,9.026
		c-11.677,2.931-23.277,2.869-34.868-0.813c-11.567-3.674-19.767-11.131-23.906-22.275c-6.557-17.654-6.744-35.463,1.974-52.593
		c7.831-15.388,21.083-22.876,37.943-24.479c7.001-0.665,13.893-0.301,20.657,2.025c17.14,5.894,20.122,24.158,11.988,36.646
		c-3.454,5.303-8.444,8.828-14.088,11.501c-8.817,4.176-18.249,5.899-27.85,6.809C534.913,169.519,529.14,170.389,523.009,169.18z
		 M522.253,157.983c8.583,0.271,16.617,0.055,24.678-1.605c6.61-1.361,12.86-3.314,18.273-7.348
		c4.658-3.472,6.665-8.328,5.527-14.04c-1.185-5.947-5.122-9.76-10.984-10.93c-10.803-2.156-23.806,1.594-30.827,12.661
		C524.913,143.038,522.839,149.926,522.253,157.983z"/>
	<path style="fill:#0D0C0C;" d="M929.244,192.745c2.228,3.501,4.182,6.572,6.07,9.539c-0.309,1.238-1.173,1.782-2.021,2.288
		c-17.311,10.334-35.508,12.239-54.486,5.418c-10.294-3.7-17.574-11.044-21.406-21.039c-6.425-16.756-6.753-33.829,0.712-50.426
		c7.138-15.869,19.971-24.224,37.029-26.619c7.719-1.084,15.174-0.562,22.597,1.871c19.911,6.525,20.275,29.681,8.538,40.714
		c-6.494,6.105-14.395,9.407-22.866,11.436c-8.909,2.134-17.949,3.441-27.163,3.089c-1.975-0.075-3.955-0.011-5.898-0.011
		c-1.218,15.908,10.26,30.823,25.929,32.197c10.668,0.936,20.453-1.084,29.614-6.491
		C926.874,194.133,927.859,193.558,929.244,192.745z M870.026,157.454c3.205,0.705,6.165,0.62,9.141,0.33
		c2.811-0.274,5.646-0.372,8.436-0.781c8.385-1.228,16.667-2.764,23.868-7.748c2.402-1.663,4.313-3.656,5.494-6.27
		c4.247-9.406-2.294-19.325-13.138-20C884.636,121.79,869.414,137.087,870.026,157.454z"/>
	<path style="fill:#B43135;" d="M142.765,57.758c2.346-5.034,7.077-7.59,11.295-10.593c1.99-1.417,4.026-2.775,5.936-4.307
		c8.79-4.386,17.776-8.308,27.08-11.479c7.789-1.804,15.54-3.794,23.65-3.547c4.758,0.145,9.523,0.059,14.284,0.077
		c3.812,2.447,7.711,4.795,10.273,8.712c0.995,1.521,3.401,1.282,4.015,3.26c-1.988,3.817-5.278,6.513-8.206,9.52
		c-1.388,1.426-2.715,2.934-4.242,4.194c-1.872,1.545-2.804,3.555-3.552,5.754c-1.372,4.031-2.784,8.059-4.902,11.771
		c-1.374,2.408-2.493,5.032-4.92,6.686c-5.006,3.413-9.114,7.53-10.612,13.669c-1.048-0.487-2.134-0.904-3.137-1.471
		C180.734,79.265,161.75,68.509,142.765,57.758z"/>
	<path style="fill:#0D0C0C;" d="M1063.573,210.77c-0.882-32.563,1.047-64.841-1.324-97.414c2.892-0.88,6.351-0.227,9.746-0.337
		c3.474-0.113,6.954-0.025,10.718-0.025c0.834,4.373,1.631,8.554,2.595,13.613c4.164-8.295,10.247-13.57,18.604-15.707
		c8.329-2.13,16.39-0.986,24.446,2.972c-1.281,6.609-2.69,12.997-4.562,19.487c-4.113-1.371-7.778-3.02-11.741-3.327
		c-13.514-1.047-22.796,6.202-22.882,21.698c-0.099,17.977-0.021,35.954-0.019,53.932c0,1.629,0,3.259,0,5.107
		C1080.561,210.77,1072.297,210.77,1063.573,210.77z"/>
	<path style="fill:#0D0C0C;" d="M517.734,78.647c-1.593,3.767-3.131,7.405-4.801,11.353c-5.677-2.486-11.406-3.82-17.295-4.496
		c-2.662-0.305-5.282-0.149-7.95,0.147c-8.42,0.933-12.863,6.248-13.627,14.599c-0.421,4.604-0.075,9.278-0.075,14.459
		c5.688,0,11.136,0,16.585,0c5.479,0,10.959,0,16.636,0c0.855,4.381,0.26,8.485,0.471,13.119c-11.257,0-22.295,0-33.691,0
		c0,28.127,0,55.706,0,83.61c-5.749,0-11.137,0-16.591,0c-0.738-1.649-0.384-3.326-0.385-4.945
		c-0.034-34.152-0.028-68.305-0.059-102.458c-0.008-8.979,2.078-17.11,8.972-23.439c5.001-4.591,11.161-6.568,17.654-7.284
		c11.066-1.22,21.862,0.292,32.263,4.353C516.44,77.899,516.99,78.257,517.734,78.647z"/>
	<path style="fill:#0D0C0C;" d="M647.267,197.556c1.657,3.438,3.205,6.652,4.873,10.113c-5.122,3.699-10.904,5.294-16.773,6.048
		c-6.759,0.868-13.602,0.813-20.357-0.726c-9.317-2.123-14.693-7.904-16.029-17.346c-0.444-3.139-0.796-6.267-0.795-9.446
		c0.019-35.662,0.008-71.324,0.005-106.986c0-0.82,0-1.641,0-2.84c5.526,0,10.921,0,16.89,0c0,12.331,0,24.867,0,37.872
		c10.472,0,20.385,0,30.544,0c0,4.576,0,8.678,0,13.267c-9.884,0-19.807,0-29.198,0c-1.733,1.546-1.208,2.967-1.21,4.224
		c-0.037,16.998-0.054,33.996,0.004,50.993c0.009,2.654,0.294,5.323,0.664,7.955c0.977,6.952,5.323,10.839,12.387,11.329
		c4.736,0.329,9.279-0.444,13.665-2.207C643.602,199.137,645.246,198.411,647.267,197.556z"/>
	<path style="fill:#0D0C0C;" d="M407.607,197.894c0,4.823,0,8.942,0,13.066c-3.387,1.005-72.662,1.329-80.34,0.339
		c0-43.036,0-86.105,0-129.382c5.468,0,10.75,0,16.515,0c0,38.506,0,77.067,0,115.977
		C365.188,197.894,386.118,197.894,407.607,197.894z"/>
	<path style="fill:#BA403E;" d="M202.864,91.474c1.498-6.139,5.606-10.257,10.612-13.669c2.427-1.654,3.546-4.278,4.92-6.686
		c2.118-3.712,3.53-7.74,4.902-11.771c0.748-2.2,1.681-4.209,3.552-5.754c1.528-1.261,2.854-2.769,4.242-4.194
		c2.927-3.007,6.217-5.703,8.206-9.52c10.717,9.663,18.913,21.272,26.085,33.686c0.808,1.398,0.159,3.454,2.031,4.323
		c-7.901,5.355-14.612,11.731-18.695,20.614c-1.719,3.741-4.003,7.25-7.707,9.489c-0.629-0.143-1.286-0.211-1.881-0.44
		c-6.326-2.428-12.552-5.158-19.289-6.338C213.973,98.332,208.408,94.92,202.864,91.474z"/>
	<path style="fill:#EE5E27;" d="M266.17,207.369c-0.302,2.848-2.666,4.509-3.974,6.778c-15.479,26.844-38.187,45.442-66.327,57.776
		c-0.295,0.129-0.652,0.117-0.98,0.17c-1.128-0.709,0.142-1.181,0.176-1.776c3.337-3.127,7.159-5.826,9.031-10.244
		c4.079-5.061,6.916-10.796,9.22-16.837c4.469-11.717,6.355-23.875,6.33-36.37c0.118-0.622,0.237-1.245,0.355-1.867
		c13.614,0,27.228-0.002,40.842,0.002C262.963,205.003,265.315,204.511,266.17,207.369z"/>
	<path style="fill:#0D0C0C;" d="M678.134,211.574c-5.564,0-10.846,0-16.497,0c0-32.305,0-64.515,0-97.044
		c5.439-0.603,10.84-0.172,16.497-0.309C678.134,146.9,678.134,179.142,678.134,211.574z"/>
	<path style="fill:#0D0C0C;" d="M421.249,114.458c5.493,0,10.755,0,16.366,0c0,32.274,0,64.482,0,96.954
		c-2.674,0.717-5.495,0.247-8.268,0.334c-2.624,0.082-5.253,0.018-8.098,0.018C421.249,179.107,421.249,146.894,421.249,114.458z"/>
	<path style="fill:#FCC14E;" d="M195.065,270.317c-0.034,0.594-1.304,1.066-0.176,1.776c-6.945,3.411-14.446,5.028-21.903,6.788
		c0.118-3.37-1.186-6.843,0.088-10.085c1.591-4.047,0.378-7.222-1.929-10.512c-2.413-3.442-2.969-7.301-1.054-11.229
		c0.912-1.87,1.406-3.921,0.78-5.768c-1.258-3.716-1.406-7.731-3.323-11.267c-2.517-4.644-3.139-9.728-2.469-14.872
		c0.338-2.595,1.19-5.122,0.898-7.794c6.646-0.473,13.291-0.334,19.936,0.012c0.025,2.317,0.008,4.635,0.084,6.95
		c0.126,3.842-1.311,7.543-0.125,11.558c1.431,4.845,2.108,9.89,5.417,13.999c1.396,1.734,1.827,3.768,1.734,6.015
		c-0.122,2.973-0.714,6.192,0.173,8.885C194.889,259.909,195.019,265.071,195.065,270.317z"/>
	<path style="fill:#F17035;" d="M280.788,165.037c-1.151,7.875-2.9,15.596-5.958,22.977c-18.278-0.005-36.556-0.009-54.835-0.014
		c-0.359-7.666-0.223-15.332,0.015-22.997C240.27,165.014,260.529,165.025,280.788,165.037z"/>
	<path style="fill:#FBBC39;" d="M165.978,207.353c0.292,2.672-0.56,5.199-0.898,7.794c-0.67,5.144-0.048,10.229,2.469,14.872
		c1.916,3.536,2.064,7.551,3.323,11.267c0.625,1.847,0.132,3.898-0.78,5.768c-1.915,3.928-1.359,7.787,1.054,11.229
		c2.307,3.291,3.52,6.465,1.929,10.512c-1.274,3.242,0.03,6.715-0.088,10.085c-5.237,1.505-10.572,2.439-16.016,2.736
		c0.054-1.497,0.08-2.932-0.838-4.302c-1.695-2.53-1.855-5.743-0.893-8.164c1.628-4.097,0.219-7.274-1.932-10.152
		c-2.686-3.595-2.616-7.183-1.743-11.24c0.961-4.468,2.909-8.768,2.463-13.512c-0.124-1.324-0.005-2.642-0.858-3.803
		c-3.03-4.125-5.41-8.556-6.284-13.675c2.555-3.226,5.091-6.468,8.056-9.34C158.617,206.866,162.297,207.023,165.978,207.353z"/>
	<path style="fill:#C35951;" d="M241.012,107.99c3.703-2.239,5.987-5.748,7.707-9.489c4.083-8.883,10.794-15.259,18.695-20.614
		c4.963,8.487,7.917,17.764,10.55,27.149c2.556,9.111,3.942,18.43,4.528,27.87c-1.702-0.029-2.814-1.326-4.232-1.966
		c-1.24-1.776-2.766-3.325-4.514-4.538c-8.754-6.074-18.012-11.28-27.638-15.848C244.394,109.741,242.207,109.836,241.012,107.99z"
		/>
	<path style="fill:#F59567;" d="M278.26,130.94c1.418,0.64,2.53,1.937,4.232,1.966c0.761,5.039,0.666,10.091,0.213,15.148
		c-20.9-0.017-41.8-0.035-62.7-0.052c0.008-5.664,0.017-11.328,0.025-16.992c13.414,0,26.829-0.021,40.243,0.018
		c2.607,0.007,5.179-0.162,7.801,0.78c1.734,0.623,3.964,0.667,5.812-0.28C275.321,130.791,276.81,131.165,278.26,130.94z"/>
	<path style="fill:#F5844D;" d="M220.005,148.001c20.9,0.017,41.8,0.035,62.7,0.052c0.02,1.154,0.227,2.341,0.027,3.456
		c-0.804,4.489-1.717,8.957-1.944,13.527c-20.259-0.012-40.518-0.023-60.777-0.035C219.626,159.335,219.85,153.668,220.005,148.001z
		"/>
	<path style="fill:#FDCC73;" d="M187.076,31.378c-9.304,3.172-18.291,7.093-27.08,11.479c0.037-0.994-0.219-2.122,0.161-2.961
		c1.821-4.021,0.759-7.751-0.985-11.386c-1.671-3.484-1.195-6.96-0.707-10.61c0.715-5.344,2.564-10.501,2.561-15.951
		c6.587,0.017,12.793,2.042,19.065,3.678c2.657,0.693,5.249,1.64,7.87,2.472c-0.19,1.952-1.096,3.719-1.023,5.794
		C187.144,19.716,187.051,25.549,187.076,31.378z"/>
	<path style="fill:#EF652B;" d="M219.996,188c18.278,0.005,36.556,0.009,54.835,0.014c-2.927,6.434-4.387,13.524-8.66,19.355
		c-0.856-2.858-3.207-2.366-5.326-2.366C247.23,204.998,233.616,205,220.002,205C219.65,199.333,219.707,193.667,219.996,188z"/>
	<path style="fill:#FCD693;" d="M187.076,31.378c-0.025-5.829,0.069-11.662-0.137-17.484c-0.073-2.075,0.832-3.842,1.023-5.794
		c2.282-0.184,4.11,1.238,5.968,2.078c10.631,4.805,21.168,9.841,30.554,16.915c0.243,0.183,0.354,0.54,0.527,0.816
		c-4.762-0.018-9.526,0.067-14.284-0.077C202.616,27.584,194.865,29.574,187.076,31.378z"/>
	<path style="fill:#0D0C0C;" d="M669.766,97.219c-6.441,0.001-11.098-4.257-11.128-10.173c-0.029-5.829,4.706-10.292,11.042-10.407
		c6.556-0.12,11.409,4.391,11.324,10.525C680.922,93.065,676.279,97.218,669.766,97.219z"/>
	<path style="fill:#0D0C0C;" d="M429.45,97.246c-6.394,0.087-11.222-4.202-11.357-10.087c-0.13-5.688,4.716-10.322,11.022-10.54
		c6.038-0.208,11.451,4.404,11.648,9.923C440.975,92.462,436.013,97.156,429.45,97.246z"/>
	<path style="fill:#FAB92A;" d="M72.102,19.255c8.083-5.731,17.197-9.225,26.54-12.217c1.733-0.555,3.444-1.251,5.316-1.222
		c0.517,3.67-0.694,7.195-1.362,10.669c-0.972,5.055-0.904,9.756,1.378,14.35c1.326,2.669,1.31,5.353,0.547,8.134
		c-0.557,2.031-1.062,4.077-1.55,5.96c1.281,2.554,2.335,4.984,3.676,7.245c1.73,2.917,2.025,6.198,1.033,9.069
		c-0.976,2.828-0.334,5.128,0.382,7.62c0.583,2.031,1.273,4.03,1.916,6.044c-3.901,2.34-7.763,4.749-11.711,7.007
		c-11.323,6.476-22.682,12.891-34.026,19.33c-2.014-2.789-2.293-6.358-4.145-9.22c-0.156-4.782-3.002-9.146-2.189-14.078
		c0.458-7.412-0.387-14.829,0.959-22.268c2.059-11.384,4.465-22.542,10.96-32.396c0.6-0.911,1.384-1.907,1.268-3.176l0.008-0.021
		C71.642,20.059,71.939,19.737,72.102,19.255z"/>
	<path style="fill:#B43135;" d="M0.906,151.01c0.006-6.336,0.013-12.671,0.019-19.007c0.199-1.607-0.108-3.274,0.57-4.825
		c0.924,2.605,0.843,5.524,2.481,7.905c-0.09,4.534,2.117,8.475,3.461,12.604c0.926,2.843,1.121,6.112,3.535,8.365
		c0.059,0.981,0.016,1.941,0.509,2.889c2.878,5.538,5.256,11.346,8.736,16.558c5.886,8.814,12.832,16.62,21.544,22.801
		c6.141,4.357,13.092,6.703,20.198,8.763c0.481,3.323-0.789,6.502-0.859,9.733c-0.086,3.915-1.134,7.373-2.913,10.772
		c-1.973,3.77-3.236,7.8-4.285,11.942c-0.831,3.279-0.872,6.848-2.991,9.744c-6.283-4.218-11.244-9.855-16.136-15.488
		c-12.096-13.928-20.986-29.728-26.884-47.219C3.998,175.003,1.601,163.176,0.906,151.01z"/>
	<path style="fill:#F17035;" d="M3.975,135.083c-1.638-2.38-1.557-5.3-2.481-7.905c0.566-8.24,1.947-16.322,4.651-24.15
		c4.802-0.006,9.613-0.192,14.406,0.016c14.537,0.63,28.998-1.542,43.526-1.06c0.243,10.333,0.397,20.667,0.052,31.001
		c-18.203,0.005-36.406,0.009-54.61,0.016c-1.324,0-2.648,0.003-3.971,0.027C4.179,133.053,4.075,134.072,3.975,135.083z"/>
	<path style="fill:#FBBC39;" d="M109.976,74.908c-0.643-2.013-1.332-4.013-1.916-6.044c-0.716-2.492-1.358-4.792-0.382-7.62
		c0.991-2.872,0.697-6.152-1.033-9.069c-1.34-2.26-2.394-4.69-3.676-7.245c0.488-1.883,0.993-3.929,1.55-5.96
		c0.763-2.781,0.779-5.466-0.547-8.134c-2.282-4.593-2.349-9.295-1.378-14.35c0.668-3.474,1.88-6.999,1.362-10.669
		c4.96-2.375,10.384-2.926,15.701-3.665c2.417-0.336,4.803-1.317,7.322-0.905c0.895,1.866,0.815,3.727-0.031,5.583
		c-2.055,4.512-2.522,9.458-3.809,14.18c-0.667,2.449-0.23,5.021,1.5,7.044c3.473,4.06,4.119,8.292,1.81,13.243
		c-1.343,2.88-0.681,6.02,1.683,8.243c3.342,3.142,4.997,6.481,2.927,11.002c-0.316,0.689-0.051,1.644-0.055,2.476
		c-0.56,1.324-2.051,0.746-2.931,1.441C122.548,68.817,116.199,71.754,109.976,74.908z"/>
	<path style="fill:#F5A77E;" d="M71.092,20.107c0.117,1.269-0.667,2.265-1.268,3.176c-6.495,9.853-8.901,21.012-10.96,32.396
		c-1.346,7.439-0.501,14.856-0.959,22.268c-1.415-0.391-0.487-2.219-2.481-3.123c-12.038,0-24.875,0-37.711,0
		c3.444-8.16,8.747-15.158,14.175-22.011c9.008-11.373,19.795-20.885,31.876-28.888C66.036,22.42,68.133,20.375,71.092,20.107z"/>
	<path style="fill:#F59567;" d="M17.714,74.823c12.837,0,25.673,0,37.711,0c1.993,0.905,1.065,2.733,2.481,3.123
		c-0.812,4.932,2.033,9.296,2.189,14.078c-16.971-0.386-33.893,1.673-50.869,1.019C11.488,86.706,13.724,80.356,17.714,74.823z"/>
	<path style="fill:#F5844D;" d="M9.226,93.044c16.976,0.654,33.898-1.405,50.869-1.019c1.851,2.862,2.13,6.431,4.145,9.22
		c0.057,0.271,0.003,0.517-0.162,0.739c-14.528-0.482-28.989,1.69-43.526,1.06c-4.793-0.208-9.603-0.022-14.406-0.016
		C6.475,99.485,8.131,96.351,9.226,93.044z"/>
	<path style="fill:#F5A77E;" d="M72.102,19.255c-0.164,0.482-0.46,0.804-1.002,0.83C71.106,19.412,71.43,19.124,72.102,19.255z"/>
	<path style="fill:#BA403E;" d="M50.91,249.254c2.118-2.896,2.16-6.465,2.991-9.744c1.049-4.142,2.313-8.172,4.285-11.942
		c1.779-3.399,2.827-6.857,2.913-10.772c0.071-3.231,1.341-6.411,0.859-9.733c0.805-0.056,1.609-0.113,2.414-0.169
		c2.136,0.077,4.271,0.198,6.407,0.223c8.062,0.096,16.125,0.161,24.188,0.237c0.302,3.011-0.307,5.842-1.429,8.645
		c-1.46,3.647-2.397,7.505-2.445,11.405c-0.04,3.251-0.691,6.303-2.29,8.938c-3.489,5.748-4.522,12.174-5.841,18.552
		c-7.605,1.285-15.225,2.315-22.962,1.332C56.659,254.305,53.457,252.206,50.91,249.254z"/>
	<path style="fill:#C35951;" d="M82.961,254.893c1.319-6.378,2.353-12.803,5.841-18.552c1.6-2.636,2.25-5.687,2.29-8.938
		c0.048-3.899,0.985-7.757,2.445-11.405c1.122-2.803,1.73-5.634,1.429-8.645c1.643-0.089,3.287-0.256,4.93-0.256
		c14.554,0.005,29.107,0.024,43.661,0.078c3.795,0.014,7.59,0.165,11.384,0.254c-2.965,2.872-5.501,6.114-8.056,9.34
		c-6.956,5.298-12.816,11.887-20.045,16.877C113.301,242.993,99.507,251.774,82.961,254.893z"/>
	<path style="fill:#F5A77E;" d="M220.03,131.009c-0.063-9.932-0.126-19.864-0.189-29.797c6.737,1.18,12.962,3.909,19.289,6.338
		c0.596,0.229,1.253,0.297,1.881,0.44c1.195,1.846,3.382,1.751,5.097,2.565c9.625,4.568,18.884,9.774,27.638,15.848
		c1.748,1.213,3.273,2.762,4.514,4.538c-1.45,0.225-2.938-0.149-4.374,0.586c-1.848,0.947-4.078,0.902-5.812,0.28
		c-2.622-0.941-5.194-0.772-7.801-0.78C246.859,130.988,233.444,131.009,220.03,131.009z"/>
	<path style="fill:#FCD693;" d="M193.931,207.227c8.572-0.12,17.144-0.24,25.715-0.36c0.025,12.495-1.86,24.653-6.329,36.37
		c-2.304,6.04-5.141,11.775-9.22,16.837c-3.419-2.119-2.801-5.822-2.547-8.715c0.214-2.434,0.173-4.893,0.484-7.234
		c-0.744-1.206-1.239-2.516-2.147-3.402c-6.351-6.195-6.844-14.125-6.908-22.264C192.948,214.671,194.782,211.066,193.931,207.227z"
		/>
	<path style="fill:#FDCC73;" d="M193.931,207.227c0.851,3.839-0.983,7.443-0.953,11.232c0.065,8.139,0.557,16.069,6.908,22.264
		c0.908,0.886,1.403,2.195,2.147,3.402c-0.311,2.341-0.27,4.8-0.484,7.234c-0.254,2.892-0.872,6.595,2.547,8.715
		c-1.872,4.418-5.695,7.117-9.031,10.244c-0.047-5.247-0.176-10.408-1.869-15.545c-0.887-2.693-0.295-5.912-0.173-8.885
		c0.092-2.247-0.338-4.282-1.734-6.015c-3.309-4.109-3.986-9.154-5.417-13.999c-1.186-4.015,0.251-7.716,0.125-11.558
		c-0.076-2.315-0.059-4.633-0.084-6.95C188.578,206.822,191.255,207.055,193.931,207.227z"/>
	<path style="fill:#EE5E27;" d="M64.13,153.992c0.072,14.139,0.146,28.278,0.215,42.418c0.017,3.495,0.018,6.989,0.026,10.484
		c-0.805,0.056-1.609,0.113-2.414,0.169c-7.105-2.059-14.057-4.406-20.198-8.763c-8.712-6.181-15.657-13.987-21.544-22.801
		c-3.481-5.212-5.858-11.02-8.736-16.558c-0.493-0.948-0.45-1.908-0.509-2.889c0.902-2.556,3.076-2.044,5.006-2.046
		C32.029,153.993,48.079,153.995,64.13,153.992z"/>
	<path style="fill:#EF652B;" d="M64.13,153.992c-16.051,0.003-32.102,0-48.152,0.014c-1.93,0.002-4.105-0.51-5.006,2.046
		c-2.414-2.253-2.609-5.522-3.535-8.365c-1.344-4.129-3.551-8.07-3.461-12.604c0.099-1.011,0.203-2.03,1.573-2.055
		c1.323-0.024,2.647-0.027,3.971-0.027c18.203-0.006,36.406-0.011,54.61-0.016C64.419,139.987,64.493,146.99,64.13,153.992z"/>
</g>
</svg>
