<?xml version="1.0" encoding="iso-8859-1"?>
<!-- Generator: Adobe Illustrator 27.0.0, SVG Export Plug-In . SVG Version: 6.00 Build 0)  -->
<svg version="1.1" id="Layer_1" xmlns="http://www.w3.org/2000/svg" xmlns:xlink="http://www.w3.org/1999/xlink" x="0px" y="0px"
	 viewBox="0 0 1560 379.075" style="enable-background:new 0 0 1560 379.075;" xml:space="preserve">
<g>
	<path style="fill:#273066;" d="M280,379.075c-7.795-5.959-9.239-11.664-5.285-21.098c1.877-4.478,4.622-8.453,7.426-12.375
		c7.721-10.801,17.476-19.643,27.551-28.125c17.989-15.144,37.109-28.723,57.609-40.264c13.77-7.752,23.505-19.373,32.077-32.213
		c0.698-1.045,1.543-2.118,1.476-3.601c-1.75-0.944-2.911,0.49-3.99,1.208c-4.704,3.136-9.298,6.441-13.883,9.751
		c-4.453,3.214-8.923,6.384-13.842,8.874c-2.532,1.282-5.272,1.972-7.883,2.987c-9.104,3.541-17.05-6.103-17.291-13.027
		c-0.149-4.281,1.276-8.167,2.482-12.14c0.56-1.844,1.866-3.525,1.5-5.534c-1.245-1.163-2.278-0.488-3.287,0.068
		c-15.277,8.422-30.601,16.761-45.793,25.331c-4.981,2.81-8.676,7.222-12.323,11.578c-9.203,10.992-16.944,23.071-25.626,34.446
		c-15.186,19.894-31.618,38.671-50.988,54.664c-7.843,6.475-16.121,12.318-25.811,15.851c-3.641,1.327-7.328,2.119-11.209,1.821
		c-5.968-0.459-9.667-4.438-9.946-10.329c-0.296-6.262,1.879-11.732,4.954-16.966c5.033-8.568,11.794-15.703,19.01-22.395
		c16.167-14.991,34.082-27.701,52.619-39.538c11.374-7.263,22.662-14.581,32.438-24.005c7.008-6.755,12.874-14.355,17.683-22.791
		c0.285-0.501,0.832-1.056,0.148-2.025c-2.582,0.933-4.656,2.793-6.868,4.378c-6.895,4.938-13.437,10.369-20.787,14.668
		c-3.165,1.851-6.418,3.499-9.908,4.614c-5.064,1.617-9.526,0.163-12.707-4.197c-2.746-3.765-3.955-7.996-3.506-12.694
		c0.185-1.93,0.784-3.938-0.413-5.981c-2.786,0.503-4.862,2.155-6.929,3.755c-8.59,6.648-17.7,12.379-28.009,16.004
		c-4.256,1.497-8.621,2.25-13.159,2.567c-14.229,0.993-24.266-12.351-22.327-25.609c0.697-4.768,2.121-9.304,4.373-13.676
		c9.765-18.957,23.775-33.96,41.526-45.623c10.987-7.219,22.112-14.194,34.493-18.812c5.753-2.146,11.612-4.051,17.961-2.688
		c7.629,1.638,11.041,7.32,8.879,14.881c-1.622,5.675-5.388,9.879-9.452,13.848c-12.446,12.154-27.498,19.621-44.085,24.264
		c-5.122,1.434-10.274,2.775-15.605,3.18c-2.265,0.172-4.094,1.05-5.742,2.637c-7.509,7.233-13.604,15.478-18.104,24.888
		c-0.862,1.803-1.426,3.693-1.803,5.673c-1.04,5.45,1.516,9.168,7.038,9.793c3.865,0.438,7.57-0.365,11.234-1.667
		c11.723-4.166,21.932-11.033,32.187-17.829c2.08-1.378,4.025-2.975,6.171-4.235c6.306-3.703,11.03-8.964,15.437-14.698
		c11.163-14.525,24.348-26.922,40.228-36.175c11.494-6.697,23.327-12.769,36.434-15.818c1.129-0.263,2.278-0.486,3.43-0.594
		c9.781-0.924,11.524,1.309,14.373,8.137c0.247,0.593,0.678,1.11,1.135,1.841c2.912-0.422,4.51-2.634,6.436-4.328
		c4.965-4.364,15.062-5.919,21.089-3.166c0.802,2.494-1.138,3.945-2.43,5.53c-5.687,6.98-12.241,13.171-18.27,19.841
		c-13.401,14.827-26.431,29.969-38.616,45.82c-1.373,1.786-2.9,3.515-3.64,6.348c3.376-0.634,6.004-1.953,8.608-3.198
		c22.966-10.974,44.018-24.597,62.278-42.622c14.227-14.044,31.118-24.324,50.248-30.604c4.273-1.403,8.678-2.265,13.188-2.487
		c5.164-0.255,9.079,1.503,11.036,6.652c0.455,1.196,0.935,2.532,2.461,3.246c2.865-0.461,4.629-2.777,6.694-4.636
		c4.857-4.371,13.311-5.335,19.55-2.148c0.551,2.311-1.24,3.556-2.517,4.978c-11.571,12.884-23.231,25.689-34.736,38.632
		c-8.632,9.711-16.795,19.814-24.365,30.384c-0.471,0.658-0.913,1.337-1.334,1.954c0.936,1.664,2.225,0.968,3.156,0.67
		c3.007-0.961,5.906-2.218,8.587-3.927c10.794-6.881,22.389-12.364,33.241-19.174c6.633-4.163,13.111-8.516,19.441-13.097
		c1.998-1.446,3.691-3.355,5.373-5.191c13.595-14.837,29.098-27.304,46.64-37.14c6.071-3.404,12.581-5.94,19.416-7.586
		c3.623-0.873,7.245-1.107,10.9-0.804c7.617,0.631,12.502,7.348,10.869,14.837c-0.427,1.96-1.279,3.746-2.361,5.463
		c-4.699,7.456-11,13.331-18.116,18.372c-11.692,8.283-24.605,13.717-38.713,16.302c-3.105,0.569-6.166,1.576-9.288,1.795
		c-3.126,0.22-5.177,1.617-7.13,3.879c-6.213,7.198-12.094,14.614-16.41,23.141c-1.426,2.817-2.719,5.701-2.716,8.976
		c0.003,3.912,1.083,5.33,4.79,6.514c4.048,1.293,7.957,0.416,11.716-0.9c11.853-4.151,22.735-10.188,32.699-17.801
		c9.273-7.085,17.777-15.081,26.11-23.224c13.224-12.923,26.24-26.059,38.748-39.685c0.649-0.706,1.637-1.189,1.828-2.88
		c-5.248,0-10.435,0-15.805,0c1.744-4.856,6.47-8.623,10.662-8.705c4.66-0.091,9.322-0.021,14.311-0.021
		c6.072-6.686,12.199-13.468,18.365-20.215c8.985-9.831,17.663-19.94,27.017-29.438c2.782-2.825,5.778-4.222,9.725-4.048
		c3.992,0.176,7.998,0.027,11.997,0.047c1.134,0.006,2.364-0.267,3.624,1.282c-14.505,18.166-31.4,34.334-47.358,52.162
		c3.013,0.16,5.274,0.281,7.616,0.406c-2.857,6.172-6.864,8.327-16.7,8.933c-6.909,7.443-14.068,15.083-21.146,22.797
		c-13.846,15.088-27.79,30.092-40.599,46.091c-2.49,3.111-4.772,6.398-6.997,9.706c-0.981,1.459-2.188,3.003-1.426,5.278
		c1.939,1.628,4.174,1.091,6.416,0.406c13.2-4.035,25.041-10.637,35.795-19.202c14.621-11.644,27.953-24.699,41.017-38.023
		c8.043-8.203,15.882-16.607,23.802-24.931c0.552-0.58,1.352-1.012,1.403-2.405c-6.091,0-12.168,0-18.371,0
		c1.56-4.906,6.377-8.726,11.017-8.82c5.328-0.108,10.66-0.025,16.505-0.025c5.054-5.548,10.285-11.324,15.554-17.065
		c10.131-11.036,19.77-22.522,30.419-33.089c2.308-2.29,4.855-3.44,7.958-3.488c4.665-0.073,9.332-0.027,13.998-0.002
		c0.824,0.005,1.67,0.094,2.729,1.379c-14.541,18.106-31.431,34.272-47.506,52.285c7.722,0,14.743,0,21.764,0
		c0.119,0.358,0.238,0.716,0.358,1.074c-3.705,3.912-6.92,8.329-13.612,7.875c-5.471-0.371-10.988-0.076-16.512-0.076
		c-2.491,1.496-4.168,3.824-6.067,5.878c-19.442,21.028-39.249,41.734-57.196,64.093c-3.309,4.122-6.792,8.193-8.492,13.35
		c1.619,2.867,4.145,2.014,6.252,1.488c3.863-0.965,7.545-2.508,11.094-4.373c13.018-6.839,25.029-15.141,36.299-24.569
		c3.143-2.629,6.243-5.468,10.271-6.596c2.922,1.962,1.194,4.13,0.477,5.897c-0.943,2.324-2.943,3.98-4.832,5.638
		c-9.302,8.161-19.731,14.708-30.289,21.05c-4.693,2.819-9.392,5.662-14.497,7.73c-2.773,1.124-5.588,2.006-8.529,2.667
		c-11.819,2.656-17.091-5.261-18.229-13.826c-0.346-2.6-0.053-5.285-0.053-8.235c-4.313,2.037-7.994,4.559-11.735,6.975
		c-7.685,4.961-15.39,9.862-24.031,13.093c-3.304,1.235-6.693,2.008-10.143,2.454c-5.726,0.741-10.861-2.102-13.559-7.308
		c-1.709-3.298-2.562-6.81-2.567-10.55c-0.002-1.46,0.672-2.93-0.139-4.767c-3.156,1.925-6.271,3.753-9.314,5.695
		c-7.148,4.561-14.291,9.129-21.832,13.027c-7.041,3.639-14.329,5.083-22.108,2.526c-12.587-4.139-18.933-16.325-14.989-28.928
		c0.933-2.982,2.073-5.909,2.556-9.368c-2.337-0.548-3.917,0.801-5.55,1.64c-10.051,5.16-19.81,10.849-29.653,16.389
		c-8.828,4.969-17.796,9.693-26.718,14.494c-5.531,2.977-9.966,7.178-13.744,12.126c-15.06,19.724-30.676,39-46.912,57.764
		c-11.122,12.855-22.679,25.302-36.075,35.889c-7.61,6.014-15.624,11.279-25.075,13.993c-0.196,0.056-0.279,0.509-0.415,0.777
		C286.667,379.075,283.333,379.075,280,379.075z M359.524,291.473c-2.909,0.883-5.34,2.619-7.82,4.296
		c-13.931,9.423-26.802,20.193-39.755,30.882c-10.107,8.341-18.552,18.07-25.962,28.785c-2.081,3.009-3.962,6.126-5.289,9.561
		c-0.744,1.927-1.341,3.785,0.305,5.562c1.8,0.961,3.493,0.574,5.254-0.176c2.466-1.05,4.703-2.448,6.857-4.017
		c4.724-3.442,8.877-7.527,13.02-11.612c15.77-15.547,30.173-32.338,44.488-49.199c3.524-4.151,7.281-8.198,9.625-13.235
		c0.44-0.205,0.85-0.532,0.474-0.998C360.369,290.886,359.901,291.206,359.524,291.473z M357.061,254.329
		c3.153,1.797,3.155,1.801,5.661,1.15c3.883-1.009,7.481-2.661,10.931-4.7c22.788-13.465,42.846-30.341,61.286-49.203
		c4.647-4.753,8.816-9.955,12.285-15.679c1.223-2.018,2.13-4.141,2.647-6.408c0.457-2.002-0.224-3.597-2.235-4.456
		c-1.877-0.802-3.67-1.142-5.774-0.451c-3.989,1.311-7.636,3.227-11.108,5.512c-7.66,5.04-14.69,10.886-21.529,16.974
		c-14.186,12.627-27.418,26.227-40.62,39.855c-3.24,3.345-6.208,6.939-8.892,10.758C358.364,249.6,357.2,251.576,357.061,254.329z
		 M248.116,252.964c1.171,2.698,3.294,2.382,5.194,1.854c2.551-0.71,4.903-1.959,7.208-3.318
		c11.049-6.512,21.07-14.477,31.216-22.233c13.643-10.43,25.68-22.644,37.52-35.036c3.122-3.268,5.638-7.008,7.303-11.207
		c1.001-2.525,2.91-5.406,0.512-7.917c-2.447-2.562-5.566-1.237-8.382-0.269c-5.241,1.8-9.809,4.831-14.226,8.082
		c-16.39,12.062-31.252,25.85-45.256,40.565c-6.408,6.734-12.461,13.807-17.682,21.534
		C249.849,247.493,248.371,250.074,248.116,252.964z M252.31,289.164c-3.147,0.695-5.044,1.538-6.934,2.627
		c-8.853,5.102-16.358,11.972-24.314,18.255c-12.024,9.494-24.186,18.832-34.597,30.166c-5.751,6.261-11.031,12.895-14.862,20.543
		c-1.255,2.505-2.49,5.112-1.398,8.33c2.915,1.44,5.385-0.174,7.698-1.594c9.408-5.78,18.053-12.645,25.512-20.72
		c13.441-14.55,26.862-29.136,39.578-44.337C246.26,298.53,249.768,294.731,252.31,289.164z M263.005,164.449
		c-3.702-1.409-6.868-0.526-9.866,0.979c-4.319,2.169-8.255,4.958-12.044,7.958c-11.122,8.803-20.953,18.982-30.944,28.99
		c-0.705,0.706-1.289,1.532-2.019,2.411c0.593,0.147,0.767,0.25,0.907,0.216c20.889-5.084,36.858-17.683,50.779-33.359
		C261.452,169.803,262.745,167.639,263.005,164.449z M514.707,206.19c1.498-0.29,2.136-0.382,2.759-0.539
		c12.849-3.241,23.563-10.39,33.755-18.481c4.689-3.722,9.219-7.63,13.01-12.292c1.742-2.143,3.643-4.299,3.572-7.265
		c-1.852-2.262-3.94-1.711-6.032-1.03c-4.633,1.508-8.679,4.111-12.58,6.933C536.482,182.714,525.379,193.619,514.707,206.19z"/>
	<path style="fill:#263066;" d="M1560,112.075c-2.967,1.482-4.187,4.591-6.317,6.856c-13.233,14.068-26.341,28.255-39.488,42.404
		c-0.553,0.596-1.082,1.215-2.284,2.567c7.842,0,14.917,0,22.965,0c-4.335,5.045-7.781,8.95-14.234,8.457
		c-5.464-0.417-10.985-0.086-16.828-0.086c-6.479,6.955-13.093,13.965-19.608,21.067c-14.968,16.319-30.106,32.491-43.872,49.865
		c-1.961,2.475-3.785,5.068-5.532,7.7c-1.08,1.627-2.322,3.289-1.842,5.662c2.794,1.937,5.64,0.76,8.424-0.125
		c5.095-1.62,9.759-4.184,14.382-6.816c11.025-6.275,21.252-13.677,30.973-21.809c2.037-1.704,4.279-3.162,6.441-4.714
		c1.258-0.903,2.587-1.527,4.448-0.564c1.121,3.367-0.855,5.829-3.016,8.142c-4.232,4.53-9.255,8.113-14.299,11.656
		c-9.533,6.698-19.467,12.749-29.734,18.248c-3.809,2.04-7.724,3.845-12.056,4.588c-9.591,1.645-15.809-2.643-17.505-12.285
		c-0.541-3.074-1.272-6.189,0.715-10.194c-4.851,2.18-8.199,4.47-11.568,6.679c-6.264,4.106-12.571,8.133-19.349,11.346
		c-4.359,2.066-8.813,3.851-13.655,4.567c-10.37,1.534-17.164-3.648-18.13-14.121c-0.239-2.588-0.036-5.218-0.036-8.185
		c-5.916,2.871-10.811,6.616-16.044,9.794c-4.975,3.022-9.902,6.112-15.18,8.603c-3.022,1.426-6.154,2.449-9.392,3.246
		c-5.475,1.348-14.517-4.967-13.686-11.823c0.47-3.879,1.344-7.773,1.36-12.122c-3.737,2.023-6.797,4.238-9.727,6.676
		c-5.245,4.365-10.489,8.748-16.411,12.198c-4.795,2.794-9.8,4.813-15.545,4.561c-6.902-0.302-10.803-3.829-11.316-10.707
		c-0.375-5.025,0.443-9.958,1.461-14.857c0.233-1.12,0.833-2.189,0.248-3.543c-1.616-0.282-2.645,0.97-3.756,1.742
		c-7.924,5.507-15.733,11.18-23.701,16.621c-5.493,3.752-11.238,7.103-17.752,8.865c-0.48,0.13-0.928,0.384-1.41,0.505
		c-11.243,2.812-19.199-3.359-19.283-14.943c-0.036-4.929,1.327-9.464,3.576-13.832c7.811-15.174,17.676-28.975,28.482-42.087
		c35.639-43.245,75.973-81.631,120.57-115.53c9.928-7.547,20.125-14.753,31.24-20.527c3.837-1.993,7.77-3.726,11.946-4.924
		c1.953-0.56,3.882-0.849,5.896-0.839c7.235,0.036,10.557,4.977,7.721,11.704c-2.158,5.118-5.582,9.426-9.156,13.618
		c-10.741,12.597-23.131,23.483-35.693,34.163c-29.707,25.255-60.81,48.704-93.006,70.672
		c-23.541,16.063-40.825,37.437-54.473,62.082c-2.088,3.77-4.248,7.574-2.803,12.284c2.656,1.475,5.184,0.739,7.695-0.202
		c9.408-3.527,17.911-8.707,26.067-14.476c10.882-7.697,21.177-16.166,31.4-24.695c4.968-4.145,9.171-9.191,13.94-13.592
		c16.749-15.457,35.146-28.429,56.573-36.672c3.557-1.368,7.208-2.585,10.912-3.462c6.172-1.461,11.973-0.131,16.976,3.687
		c3.032,2.314,5.572,2.242,8.521,0.04c3.181-2.375,6.938-3.149,10.856-3.006c4.23,0.155,8.581-0.865,12.756,0.986
		c0.337,2.771-1.579,4.16-3.024,5.588c-4.856,4.798-9.875,9.431-14.818,14.141c-16.158,15.396-32.52,30.592-47.053,47.593
		c-4.761,5.57-9.344,11.288-12.764,17.815c-0.976,1.863-2.231,3.795-0.791,6.362c2.678,0.405,4.945-1.083,7.246-2.2
		c10.959-5.322,21.328-11.525,30.563-19.598c21.457-18.758,41.103-39.319,61.273-60.648c-6.117,0-11.461,0-16.992,0
		c2.314-5.48,7.014-8.766,12.202-8.834c4.163-0.055,8.326-0.078,12.489-0.126c0.157-0.002,0.313-0.107,1.022-0.363
		c6.15-6.738,12.725-13.795,19.134-21c8.41-9.454,16.909-18.822,25.601-28.018c2.42-2.561,5.071-4.037,8.754-3.891
		c5.432,0.216,10.879,0.056,17.587,0.056c-15.231,19.039-32.091,35.055-47.658,52.501c2.375,1.795,5.326-0.291,7.268,1.916
		c-4.332,5.188-8.977,9.588-16.406,7.522c-6.218,6.644-12.191,12.905-18.031,19.289c-13.259,14.496-26.682,28.85-39.239,43.971
		c-3.614,4.352-7.033,8.868-10.444,13.382c-1.595,2.112-3.077,4.338-3.725,6.916c1.12,2.227,3.037,1.871,4.841,1.737
		c3.372-0.25,6.418-1.615,9.494-2.862c14.687-5.955,27.357-14.994,39.083-25.495c19.006-17.02,36.627-35.425,54.074-54.004
		c0.54-0.575,1.315-1.058,1.262-2.666c-6.096,0-12.252,0-19.41,0c4.555-5.365,8.271-9.522,15.082-8.941
		c4.463,0.381,8.986,0.072,13.839,0.072c5.186-5.655,10.483-11.385,15.728-17.162c9.847-10.846,19.372-21.983,29.671-32.422
		c2.666-2.703,5.532-3.934,9.298-3.801c5.323,0.187,10.658,0.051,15.987,0.054C1560,110.742,1560,111.408,1560,112.075z
		 M1266.12,169.206c5.592-2.961,10.464-7.007,15.725-10.468c8.793-5.784,16.193-13.306,24.406-19.803
		c21.957-17.368,42.903-35.877,63.252-55.079c4.844-4.571,9.593-9.25,13.908-14.336c1.455-1.715,3.167-3.351,3.388-5.91
		c-2.134-0.965-3.742,0.232-5.288,0.963c-4.963,2.346-9.688,5.11-14.044,8.491c-7.634,5.926-14.709,12.504-22.07,18.745
		c-25.048,21.24-48.865,43.776-71.866,67.196c-2.923,2.976-5.661,6.092-8.109,9.465c-0.419,0.357-0.838,0.714-1.355,1.156
		c0.514,0.173,0.848,0.41,1.054,0.328C1265.494,169.805,1265.791,169.466,1266.12,169.206z M1267.437,254.506
		c3.241,1.481,5.617,0.044,7.955-1.088c7.064-3.421,13.535-7.8,19.641-12.699c8.974-7.2,17.442-14.969,25.349-23.33
		c8.596-9.09,18.012-17.307,27.175-25.794c4.901-4.539,9.484-9.362,13.167-14.962c1.099-1.672,2.268-3.59,0.785-5.519
		c-1.479-1.923-3.611-1.946-5.901-1.424c-2.63,0.6-5.047,1.664-7.409,2.871c-10.299,5.261-19.335,12.384-28.079,19.806
		c-12.455,10.572-23.922,22.209-34.95,34.258c-5.507,6.017-10.742,12.283-14.951,19.309
		C1268.708,248.458,1267.166,251.056,1267.437,254.506z"/>
	<path style="fill:#283167;" d="M0,254.075c6.094-12.664,17.434-17.051,30.225-18.948c18.766-2.784,37.127-0.502,55.337,4.919
		c10.346-8.883,19.707-18.773,28.691-29.062c20.383-23.342,39.572-47.656,58.847-71.902c4.247-5.342,8.404-10.754,12.578-16.153
		c0.592-0.765,1.414-1.449,1.323-2.727c-3.35-0.347-6.533,0.829-9.783,1.274c-33.097,4.529-64.983,1.036-95.052-14.324
		c-10.568-5.398-19.506-12.772-25.414-23.258c-5.754-10.211-7.385-20.897-2.653-32.032c2.848-6.702,8.143-11.278,13.789-15.462
		c12.115-8.979,25.877-14.225,40.553-17.045c20.139-3.87,40.049-2.832,59.572,3.717c1.984,0.666,4.093,1.15,5.582,2.649
		c-0.524,2.187-1.957,1.686-3.263,1.59c-8.294-0.606-16.583-1.321-24.886-1.765c-24.639-1.318-48.441,2.015-70.609,13.51
		c-6.743,3.496-12.478,8.297-15.729,15.452c-2.196,4.834-2.461,9.807-1.636,15.091c2.146,13.747,10.709,22.526,21.986,29.258
		c14.301,8.537,29.858,13.57,46.227,16.367c11.892,2.032,23.872,2.519,35.837,1.734c10.601-0.695,21.244-1.516,31.754-3.956
		c14.11-16.775,28.528-33.343,43.867-49.077c12.116-12.427,25.509-23.401,39.289-33.911c11.659-8.891,23.692-17.224,36.916-23.655
		c7.035-3.421,14.234-6.461,22.31-6.356c9.64,0.126,15.947,7.989,13.92,17.505c-1.122,5.266-3.526,10.01-6.345,14.546
		c-7.303,11.755-17.052,21.295-27.646,29.99c-18.074,14.834-37.668,27.363-58.767,37.435c-11.408,5.446-23.503,9.118-35.654,12.546
		c-1.433,0.404-2.849,0.864-4.361,1.325c-7.009,11.903-14.439,23.505-21.049,35.636c-14.231,26.12-31.163,50.362-52.23,71.514
		c-9.911,9.951-21.149,18.255-33.069,25.647c-0.989,0.613-1.995,1.201-2.964,1.844c-0.231,0.154-0.346,0.483-0.65,0.932
		c4.322,2.499,8.852,4.511,13.468,6.306c18.427,7.168,37.215,13.28,56.379,18.109c15.133,3.813,30.525,4.649,46.033,2.264
		c2.844-0.437,5.818-1.168,8.709,0.479c-0.918,2.201-2.86,2.409-4.516,2.949c-7.611,2.479-15.501,3.779-23.376,4.931
		c-16.717,2.445-33.109,1.119-48.954-5.172c-15.114-6.001-30.122-12.231-44.712-19.443c-4.3-2.126-8.797-3.852-13.171-5.748
		c-13.311,6.729-27.02,11.67-41.082,15.721c-8.189,2.359-16.514,3.888-24.989,4.367c-6.685,0.378-13.238-0.637-19.569-3.047
		c-4.563-1.737-8.233-4.271-9.912-9.07c-0.221-0.632-0.428-1.257-1.15-1.496C0,258.075,0,256.075,0,254.075z M222.218,104.526
		c0.656,0.742,1.161,0.539,1.618,0.387c26.546-8.85,50.836-22.146,73.61-38.178c16.24-11.432,29.261-26.117,40.036-42.782
		c1.628-2.517,3.075-5.114,3.617-8.138c1.077-6.013-0.655-8.111-6.636-8.001c-2.872,0.053-5.585,0.803-8.274,1.699
		c-7.283,2.427-14.023,6.031-20.711,9.715c-17.879,9.847-34.349,21.615-48.594,36.32C249.666,63,244.168,71.779,238.35,80.292
		C232.856,88.331,227.551,96.498,222.218,104.526z M76.901,246.397c-2.132-0.745-4.247-1.663-6.453-2.225
		c-15.037-3.833-30.221-4.276-45.486-1.622c-3.759,0.654-7.425,1.775-10.877,3.459c-3.509,1.711-6.426,4.044-8.241,7.644
		c-1.373,2.722-0.996,5.124,0.827,7.414c2.415,3.033,5.746,4.364,9.423,5.098c6.845,1.367,13.53,0.01,20.29-0.891
		c14.598-1.945,27.018-8.717,38.863-16.894C75.923,247.914,76.661,247.478,76.901,246.397z"/>
	<path style="fill:#283167;" d="M1211.721,60.05c1.554,5.168,0.579,10.02-1.927,14.626c-2.566,4.717-6.376,8.525-9.813,12.583
		c-17.583,20.755-39.252,35.74-64.623,45.432c-7.831,2.992-15.823,4.516-24.333,4.531c-15.73,0.027-29.723-13.557-32.45-25.196
		c-1.04-4.439-0.941-8.934-0.063-13.373c2.778-14.039,9.428-26.073,18.623-36.97c22.506-26.672,51.473-42.152,85.177-49.139
		c13.019-2.699,26.327-4.165,39.709-3.432c18.849,1.032,35.056,8.207,48.691,21.285c3.005,2.882,6.297,5.466,10.171,8.803
		c2.579-0.772,5.973-3.2,9.61-5.048c8.188-4.161,16.728-7.339,25.623-9.479c4.645-1.117,9.448-1.571,14.157,0.773
		c-1.073,2.134-2.98,2.264-4.672,2.797c-12.665,3.992-25.373,7.872-37.276,13.903c-1.474,0.747-2.924,1.544-4.653,2.461
		c1.243,3.099,2.387,6.144,3.672,9.127c6.496,15.076,5.221,30.019-0.056,45.177c-6.251,17.958-17.125,32.549-31.125,45.059
		c-16.279,14.546-34.991,24.636-56.053,30.308c-10.135,2.729-20.466,4.362-31.264,4.555c-2.264,3.378-4.578,6.795-6.855,10.237
		c-7.824,11.831-16.333,23.165-26.31,33.242c-23.518,23.754-51.656,39.297-84.309,46.701c-19.628,4.451-39.521,6.033-59.523,4.906
		c-15.275-0.861-29.476-5.959-42.945-13.349c-7.785-4.272-13.751-10.007-17.28-17.997c-8.815-19.959-8.275-39.003,6.05-56.616
		c8.067-9.919,17.622-18.125,28.066-25.361c11.643-8.066,23.759-15.308,37.277-19.827c11.714-3.916,23.716-6.272,36.114-6.894
		c9.529-0.478,18.979-0.301,28.382,1.169c7.931,1.24,15.49,3.765,22.477,7.751c7.009,3.999,12.116,9.825,15.414,17.175
		c2.571,5.729,2.205,11.714,0.944,17.639c-2.794,13.12-10.792,22.602-21.481,30.128c-14.205,10.003-30.121,16.066-46.847,20.202
		c-9.41,2.327-18.971,3.445-28.69,3.173c-3.021-0.084-6.016-0.331-8.858-1.28c-2.481-0.828-4.98-1.918-5.349-5.467
		c4.256-0.991,8.479-0.656,12.447-0.035c11.675,1.828,22.914-0.194,33.987-3.31c14.44-4.063,28.432-9.441,40.635-18.379
		c9.025-6.611,15.969-15.02,18.985-26.162c2.397-8.858-0.065-16.413-6.069-22.989c-5.789-6.339-13.454-8.923-21.61-10.416
		c-13.257-2.427-26.531-1.943-39.745,0.156c-21.563,3.425-41.776,10.755-60.498,21.989c-12.542,7.526-23.638,16.767-31.78,29.112
		c-5.816,8.819-9.283,18.48-8.444,29.177c1.037,13.208,6.209,24.316,17.306,32.279c9.012,6.467,19.18,9.674,29.959,11.412
		c20.358,3.284,39.654-0.871,58.517-8.233c22.723-8.868,41.971-22.841,58.979-40.09c11.46-11.623,23.55-22.632,34.204-35.04
		c2.045-2.382,3.962-4.875,6.176-7.612c-5.736-1.565-9.87-4.96-13.689-9.616c2.487-1.073,3.986,0.435,5.64,1.116
		c1.993,0.821,3.975,1.672,5.999,2.411c1.874,0.685,3.802,1.21,6.071,1.246c4.167-3.373,7.546-7.713,11.054-11.895
		c11.777-14.04,24.807-26.978,36.246-41.314c6.544-8.202,13.248-16.269,20.163-24.169c9.166-10.471,19.636-19.458,30.886-27.539
		c10.776-7.742,21.031-16.224,32.797-22.909c-8.787-12.944-20.138-21.434-35.46-24.177c-14.064-2.519-28.149-3.099-42.18-0.063
		c-16.503,3.571-32.086,9.661-46.77,18.007c-18.979,10.787-36.002,23.971-49.865,40.979c-3.788,4.648-7.105,9.613-9.806,14.997
		c-3.09,6.158-3.86,12.661-3.296,19.41c0.287,3.43,1.581,6.399,3.999,8.903c4.795,4.963,10.471,7.848,17.431,8.729
		c11.863,1.502,22.803-1.562,33.381-6.233c24.046-10.62,44.314-26.161,60.12-47.289c3.094-4.136,5.58-8.662,7.124-13.632
		C1208.527,61.546,1208.958,59.967,1211.721,60.05z M1173.276,171.648c0.926,0.452,1.734,0.239,2.552,0.095
		c7.856-1.383,15.524-3.498,23.171-5.744c16.302-4.787,30.421-13.06,42.161-25.442c13.157-13.877,23.891-29.382,31.96-46.704
		c4.719-10.129,6.402-20.928,6.251-32.017c-0.058-4.294-0.831-8.515-3.55-12.865C1229.856,80.306,1198.362,123.255,1173.276,171.648
		z"/>
	<path style="fill:#273066;" d="M842.508,240.53c-2.847,4.045-4.807,8.705-8.425,12.251c-17.526,17.178-37.568,29.081-62.875,29.441
		c-17.869,0.254-33.744-13.203-37.257-30.738c-1.08-5.391-0.621-10.51,0.79-15.732c6.939-25.676,24.501-39.737,49.593-45.7
		c3.504-0.833,7.272-0.896,10.245-3.023c0.711-1.335,0.373-2.393-0.12-3.501c-3.16-7.095-1.687-13.656,2.535-19.773
		c6.074-8.802,14.761-14.286,24.336-18.441c8.302-3.603,17.114-5.609,26.122-5.783c8.623-0.167,16.405,2.631,22.146,9.542
		c5.017,6.04,7.302,14.458-0.522,22.368c-2.857,2.888-6.164,5.084-10.091,6.186c-3.215,0.902-6.378,0.6-8.915-1.717
		c-4.508-4.116-5.922-9.428,0.93-13.294c3.207-1.809,6.707-2.88,10.062-4.312c1.829-0.781,3.745-1.365,5.155-3.144
		c0.044-3.879-2.431-5.801-5.664-7.163c-4.463-1.881-8.945-0.94-13.194,0.423c-12.024,3.858-22.013,10.816-29.851,20.758
		c-1.65,2.093-2.93,4.423-3.8,6.981c-1.819,5.348-0.628,8.488,4.504,11.023c2.821,1.394,5.85,2.382,8.622,3.859
		c3.402,1.813,3.914,3.305,3.113,7.532c-2.807,1.108-5.695,0.53-8.613-0.114c-5.672-1.252-11.276-2.745-17.185-2.768
		c-6.638-0.026-12.522,1.873-17.429,6.226c-13.055,11.583-22.051,25.635-25.378,42.988c-0.799,4.167-0.621,8.385,0.822,12.325
		c2.545,6.949,7.406,11.384,15.071,11.937c14.343,1.034,26.883-3.732,37.789-12.698c5.83-4.793,8.329-11.748,10.314-19.004
		c-5.291-3.031-10.934-3.638-16.499-4.269c-3.455-0.392-7-0.282-10.484-0.068c-6.794,0.417-11.133,7.043-8.436,12.637
		c0.907,1.881,2.083,3.408,4.43,3.356c1.153-0.877,0.193-1.826,0.186-2.73c-0.01-1.354,0.363-2.611,1.153-3.732
		c1.455-2.062,4.287-3.185,6.571-2.597c2.074,0.534,3.495,2.588,3.579,5.42c0.029,0.971-0.055,2.057-0.462,2.912
		c-2.258,4.755-6.407,6.509-11.354,6.729c-4.744,0.211-7.807-1.857-9.686-6.316c-3.627-8.606-0.225-19.511,7.731-24.597
		c6.186-3.955,13.109-5.539,20.324-6.005c9.572-0.618,18.859,1.391,28.145,3.275c9.779,1.984,19.522,4.164,29.599,3.945
		c3.678-0.08,7.312-0.372,10.806-1.57c3.062-1.049,5.695-2.786,7.485-5.54c1.982-3.048,2.222-6.238,0.211-9.38
		c-1.926-3.009-4.833-3.898-9.18-2.931c-1.002,1.146-0.364,2.53-0.419,3.795c-0.211,4.836-2.675,8.231-6.843,9.215
		c-4.148,0.979-8.045-0.567-9.914-3.934c-2.121-3.82-1.482-8.989,1.447-12.065c2.057-2.159,4.742-3.194,7.515-3.623
		c6.828-1.055,13.272,0.198,18.967,4.277c6.263,4.485,7.93,10.331,5.113,17.507c-4.749,12.099-13.908,18.584-26.44,20.88
		c-8.185,1.499-16.214,0.575-24.224-1.157C844.019,240.758,843.366,240.674,842.508,240.53z"/>
	<path style="fill:#30366B;" d="M1508.974,234.404c0.036-11.738,9.621-21.313,21.232-21.209
		c11.701,0.105,21.398,10.167,21.179,21.975c-0.215,11.557-9.977,20.916-21.694,20.818
		C1516.695,255.879,1508.041,244.038,1508.974,234.404z M1547.109,234.41c-0.052-9.6-7.536-17.269-16.904-17.321
		c-9.433-0.052-17.255,7.997-17.192,17.693c0.061,9.458,7.755,17.254,17.056,17.281
		C1539.693,252.092,1547.162,244.355,1547.109,234.41z"/>
	<path style="fill:#33396C;" d="M1534.323,236.19c1.953,3.415,3.754,6.565,5.738,10.035c-1.757,0.898-3.326,0.553-4.801,0.361
		c-3.282-2.628-3.316-7.558-7.396-10.037c-1.329,3.374-0.118,6.596-0.951,9.636c-1.324,0.937-2.755,0.648-4.505,0.218
		c0-7.727,0-15.483,0-23.526c4.112-1.289,8.399-0.411,12.497,0.5c3.394,0.754,4.651,5.903,2.592,9.233
		C1536.736,233.841,1535.562,234.816,1534.323,236.19z M1527.529,232.57c5.497-0.131,6.112-0.835,4.697-5.287
		c-1.544-0.45-3.099-0.589-4.915,0.17C1527.136,229.165,1526.954,230.874,1527.529,232.57z"/>
	<path style="fill:#E2E1E8;" d="M1527.529,232.57c-0.575-1.697-0.393-3.406-0.218-5.117c1.815-0.758,3.371-0.62,4.915-0.17
		C1533.641,231.735,1533.026,232.439,1527.529,232.57z"/>
</g>
</svg>
