<?xml version="1.0" encoding="iso-8859-1"?>
<!-- Generator: Adobe Illustrator 27.0.0, SVG Export Plug-In . SVG Version: 6.00 Build 0)  -->
<svg version="1.1" id="Layer_1" xmlns="http://www.w3.org/2000/svg" xmlns:xlink="http://www.w3.org/1999/xlink" x="0px" y="0px"
	 viewBox="0 0 1563 388.133" style="enable-background:new 0 0 1563 388.133;" xml:space="preserve">
<g>
	<path style="fill:#09578B;" d="M0,15c22.302,0,44.605,0,66.766,0c0.258,0.239,0.385,0.34,0.492,0.459
		c0.111,0.123,0.265,0.253,0.291,0.399c0.086,0.486,0.17,0.982,0.171,1.474c0.049,41.639,0.091,83.278,0.143,124.918
		c0,0.137,0.152,0.274,0.542,0.932c43.892,0,88.098,0,133.239,0c-3.519,6.969-8.166,12.103-11.984,17.756
		c-3.813,5.648-7.89,11.118-11.761,16.54c-1.448,0.631-2.798,0.383-4.113,0.384c-46.139,0.013-92.277,0.052-138.416-0.022
		c-9.561-0.015-18.386-2.374-25.6-9.23c-4.931-4.686-7.353-10.553-8.727-17.007C0.843,150.671,1.144,149.549,0,149
		C0,104.333,0,59.667,0,15z"/>
	<path style="fill:#1D5B8E;" d="M1562.087,43.096c-2.47,16.098-17.001,28.88-33.205,30.027
		c-20.958,1.483-34.308-13.233-37.969-25.968c-5.425-18.877,4.347-38.368,22.816-45.154c1.459-0.536,3.347-0.286,4.271-2.001
		c4.667,0,9.333,0,14,0c0.537,1.184,1.68,0.801,2.593,0.988c14.269,2.936,26.753,16.929,27.555,29.855
		C1562.127,34.928,1562.107,39.012,1562.087,43.096z M1494.884,36.363c-0.919,17.335,14.792,31.64,30.914,31.807
		c16.22,0.168,31.774-14.087,31.698-31.69c-0.073-16.853-14.315-31.5-31.362-31.537C1509.064,4.906,1493.983,19.724,1494.884,36.363
		z"/>
	<path style="fill:#7386AD;" d="M1562.147,30.844c0.28,0.072,0.565,0.124,0.853,0.156c0,4,0,8,0,12l-0.467-0.05l-0.446,0.146
		C1562.107,39.012,1562.127,34.928,1562.147,30.844z"/>
	<path style="fill:#06578B;" d="M1142.141,117.847c0,7.811,0,15.602,0,23.695c49.755,0,99.34,0,149.439,0
		c23.409-41.828,47.01-83.999,70.751-126.419c24.679,0,49.45,0,74.654,0c29.743,53.695,59.59,107.578,89.468,161.515
		c-3.609,1.257-50.319,1.718-61.029,0.654c-5.054-8.506-10.294-17.327-15.657-26.354c-27.169,0-54.297,0-82.194,0
		c6.83-12.608,13.358-24.656,19.999-36.917c13.581,0,27.042,0,41.467,0c-9.662-18.704-19.755-36.316-29.183-53.962
		c-0.779,0-0.951-0.026-1.111,0.008c-0.155,0.033-0.331,0.094-0.439,0.202c-0.348,0.347-0.756,0.672-0.987,1.09
		c-21.309,38.517-42.604,77.042-63.789,115.367c-1.926,0.71-3.605,0.41-5.25,0.413c-12.831,0.028-25.665-0.175-38.492,0.048
		c-57.645,1.002-115.294,0.223-172.941,0.466c-7.808,0.033-15.213-1.574-21.713-6.137c-9.269-6.507-12.588-16.056-12.954-26.796
		c-0.312-9.154-0.078-18.328-0.078-27.492c0-23.329-0.165-46.659,0.076-69.986c0.127-12.321,5.359-22.143,16.244-28.503
		c6.248-3.651,13.222-4.352,20.234-4.369c32.16-0.076,64.321-0.033,96.481-0.034c20.329,0,40.659-0.015,60.988,0.026
		c1.768,0.004,3.688-0.589,5.451,0.946c0,11.625,0,23.386,0,35.547c-46.467,0-92.714,0-139.306,0c0,9.452,0,18.515,0,28.145
		c43.289,0,86.663,0,130.327,0c0,12.813,0,25.069,0,37.438c-0.014,0.017-0.11,0.157-0.233,0.268
		c-0.116,0.105-0.25,0.221-0.394,0.258c-0.32,0.082-0.651,0.125-0.98,0.169c-0.164,0.022-0.333,0.013-0.499,0.015
		c-0.333,0.003-0.667,0.006-1,0.006c-41.825,0.004-83.65,0.007-125.475,0.012c-0.166,0-0.332,0.021-0.497,0.038
		c-0.166,0.018-0.34,0.019-0.493,0.075C1142.877,117.333,1142.751,117.448,1142.141,117.847z"/>
	<path style="fill:#06578B;" d="M607.82,14.869c1.823-0.889,3.515-0.513,5.15-0.513c56.322-0.022,112.644-0.026,168.967-0.006
		c5.836,0.002,11.656,0.54,17.298,2.025c14.186,3.735,23.607,15.651,24.711,30.98c0.12,1.661,0.177,3.329,0.178,4.994
		c0.01,29.994-0.017,59.988,0.024,89.982c0.008,6.09-1.014,11.915-3.797,17.356c-5.488,10.73-14.671,15.897-26.308,17.261
		c-1.65,0.193-3.327,0.171-4.993,0.2c-32.144,0.559-64.291,0.754-96.44,0.723c-2.634-0.003-5.269,0-8.196,0
		c0-11.634,0-23.03,0-34.978c27.812,0,55.533,0,83.547,0c0-29.803,0-59.059,0-88.669c-34.127,0-68.328,0-102.877,0
		c0,41.027,0,81.959,0,122.796c-4.332,1.18-60.025,1.599-82.312,0.674c-26.134-36.685-52.537-73.747-78.94-110.808
		c-0.359,0.088-0.718,0.176-1.077,0.265c-1.03,8.983-0.309,18.043-0.44,27.06c-0.135,9.33-0.03,18.663-0.03,27.994
		c0,9.165,0,18.33,0.001,27.495c0,9.153,0,18.305,0,27.813c-18.361,0-36.431,0-54.539,0c-1.105-3.556-1.625-147.777-0.523-162.328
		c25.373,0,50.776,0,76.683,0c6.635,9.268,13.502,18.852,20.36,28.443c6.872,9.611,13.738,19.225,20.601,28.843
		c6.766,9.482,13.479,19.001,20.297,28.445c6.849,9.488,13.257,19.311,20.394,28.241c0.844-0.211,1.035-0.21,1.155-0.302
		c0.122-0.093,0.213-0.269,0.25-0.424c0.113-0.476,0.274-0.96,0.275-1.442c0.086-37.148,0.157-74.297,0.24-111.445
		C607.476,15.397,607.617,15.254,607.82,14.869z"/>
	<path style="fill:#06578B;" d="M849.107,177.662c0-11.76,0-22.892,0-34.52c52.169,0,104.214,0,156.581,0c0-8.868,0-17.243,0-26.267
		c-7.303,0-14.418,0.002-21.534,0c-33.815-0.01-67.63,0.014-101.445-0.058c-8.438-0.018-16.465-2.285-24.071-5.731
		c-9.409-4.264-13.99-12.121-14.409-22.19c-0.443-10.643-1.427-21.28-0.957-31.95c0.249-5.651,0.275-11.338,0.965-16.94
		c1.66-13.473,12.977-23.307,26.151-24.904c2.47-0.3,4.991-0.246,7.488-0.246c58.313-0.012,116.626-0.012,174.94,0.003
		c1.478,0,2.988-0.262,4.74,0.408c0,11.637,0,23.381,0,35.175c-0.067,0.08-0.157,0.229-0.284,0.33
		c-0.121,0.097-0.276,0.185-0.426,0.208c-0.491,0.074-0.987,0.163-1.481,0.164c-50.815,0.035-101.63,0.062-152.444,0.1
		c-0.138,0-0.275,0.161-1.146,0.704c-0.046,8.558-0.016,17.581-0.017,27.049c2.306,0,4.101,0,5.896,0
		c38.487,0,76.973,0.001,115.46-0.001c6.499,0,12.897,0.324,19.181,2.466c11.712,3.993,18.168,12.277,20.677,24.063
		c0.73,3.428,1.115,6.893,1.108,10.401c-0.021,10.162,0.438,20.351-0.171,30.477c-0.716,11.898-6.46,21.002-17.204,26.813
		c-6.378,3.449-13.235,4.378-20.227,4.398c-34.821,0.102-69.642,0.047-104.464,0.047c-22.492,0-44.984,0-67.477,0
		C852.894,177.662,851.252,177.662,849.107,177.662z"/>
	<path style="fill:#05568B;" d="M275.12,177.691c-24.599,0-48.731,0-72.794,0c-0.125-0.329-0.197-0.477-0.236-0.632
		c-0.04-0.156-0.126-0.374-0.058-0.474c36.466-53.825,72.943-107.643,109.45-161.504c24.967,0,49.72,0,75.463,0
		C349.424,69.642,312.329,123.584,275.12,177.691z"/>
	<path style="fill:#0D588C;" d="M1219.277,375.834c-3.973,0-7.772,0-12.12,0c-14.063-28.278-28.233-56.768-42.402-85.258
		c-0.209,0.039-0.417,0.078-0.626,0.118c0,31.817,0,63.633,0,95.815c-7.277,0-14.19,0-21.158,0
		c-0.93-3.248-1.213-118.28-0.221-125.132c10.729,0,21.5,0,32.819,0c12.394,25.891,24.918,52.051,37.731,78.816
		c12.916-26.72,25.518-52.791,38.105-78.833c11.064,0,21.829,0,32.902,0c0,41.802,0,83.368,0,125.515c-3.658,0-7.102,0-10.546,0
		c-3.315,0-6.629,0-10.375,0c0-32.011,0-63.753,0-95.885c-0.933,0.837-0.143,0.331-0.808,0.294c-0.158-0.009-0.379,0.007-0.47,0.106
		c-0.224,0.242-0.423,0.521-0.573,0.816C1247.458,320.058,1233.384,347.913,1219.277,375.834z"/>
	<path style="fill:#0B578B;" d="M1114.165,323.05c0.229,23.128-9.757,41.037-28.373,54.164c-8.957,6.316-19.271,9.704-30.231,10.561
		c-14.351,1.122-28.291-0.564-40.918-8.054c-17.53-10.398-28.715-25.331-31.768-45.842c-2.8-18.814,0.75-36.085,12.781-51.125
		c10.387-12.985,23.941-20.812,40.346-23.57c14.127-2.375,27.939-1.046,40.907,5.099c19.347,9.167,31.744,24.136,36.16,45.363
		C1113.993,314.085,1114.098,318.559,1114.165,323.05z M1047.607,277.721c-8.684-0.294-17.315,2.229-24.907,7.895
		c-13.402,10.002-19.361,23.368-18.876,40.128c0.743,25.69,26.11,49.695,56.059,41.546c16.731-4.553,32.466-22.088,32.634-43.989
		C1092.715,297.563,1071.488,276.875,1047.607,277.721z"/>
	<path style="fill:#12588C;" d="M1408.783,261.412c0,6.62,0,12.757,0,19.364c-22.157,0-44.215,0-66.616,0c0,11.321,0,22.177,0,33.5
		c19.853,0,39.585,0,59.569,0c0,6.379,0,12.298,0,18.685c-19.716,0-39.438,0-59.029,0c-1.071,3.969-1.33,26.166-0.466,33.943
		c22.695,0,45.44,0,68.457,0c0,6.783,0,13.163,0,19.736c-30.116,0-60.009,0-90.148,0c0-41.805,0-83.37,0-125.228
		C1349.921,261.412,1379.135,261.412,1408.783,261.412z"/>
	<path style="fill:#09578B;" d="M953.472,386.643c-6.942,0-13.556,0-20.662,0c0-16.962,0-33.704,0-50.707
		c-21.057,0-41.617,0-62.655,0c0,16.972,0,33.719,0,50.696c-7.21,0-13.944,0-20.647,0c-0.614-4.397-0.695-119.842-0.089-125.231
		c6.698,0,13.431,0,20.683,0c0,18.02,0,35.922,0,54.128c20.937,0,41.362,0,62.509,0c0.373-4.274,0.134-8.709,0.171-13.121
		c0.039-4.665,0.008-9.331,0.009-13.997c0-4.499,0.001-8.998,0.002-13.497c0-4.451,0-8.902,0-13.561c7.132,0,13.746,0,20.379,0
		C954.132,264.722,954.455,379.133,953.472,386.643z"/>
	<path style="fill:#0B578B;" d="M1429.392,367.508c4.283-5.168,8.506-10.263,12.937-15.609c2.792,2.046,5.361,4.07,8.068,5.888
		c10.632,7.137,22.162,11.225,35.182,10.244c4.224-0.318,8.086-1.563,11.784-3.617c8.487-4.715,9.877-18.605-0.153-24.367
		c-4.057-2.331-8.443-3.848-12.939-5.08c-7.194-1.972-14.398-3.911-21.571-5.957c-3.998-1.14-7.751-2.88-11.427-4.849
		c-9.601-5.142-15.524-12.83-16.856-23.771c-1.886-15.497,2.903-28.883,18.024-36.634c5.547-2.843,11.356-4.879,17.487-5.438
		c18.135-1.651,35.04,1.946,50.065,12.723c0.787,0.565,1.78,0.966,2.112,2.559c-3.412,4.866-7.012,10.002-10.782,15.379
		c-7.164-5.702-15.278-8.887-24.039-10.477c-6.787-1.232-13.609-1.313-20.247,0.712c-10.141,3.093-14,14.193-7.879,22.235
		c2.089,2.744,5.037,4.262,8.136,5.552c7.694,3.203,15.83,4.897,23.837,7.041c7.903,2.117,15.465,5.039,22.276,9.704
		c7.793,5.338,11.742,12.754,12.727,22.094c1.136,10.769-0.945,20.485-8.406,28.614c-6.046,6.588-13.714,10.718-22.365,12.288
		c-24.196,4.393-45.736-1.697-64.539-17.512C1430.333,368.822,1429.99,368.239,1429.392,367.508z"/>
	<path style="fill:#51BB7A;" d="M384.955,97.901c20.901-0.496,41.88,16.449,41.75,41.785c-0.125,24.255-18.713,41.72-41.987,41.699
		c-25.099-0.022-41.839-20.5-41.814-41.92C342.93,117.171,361.939,97.197,384.955,97.901z"/>
	<path style="fill:#235C8F;" d="M1518.831,41.56c0,4.352,0,9.105,0,13.963c-2.562,1.106-4.838,0.526-7.404,0.513
		c0-13.164,0-26.21,0-39.951c7.853,0.301,15.767-0.859,23.574,1.117c4.607,1.166,7.45,5.057,7.698,9.888
		c0.261,5.089-1.929,8.105-8.046,10.555c8.142,3.874,7.768,10.869,7.203,18.214c-1.746,0.566-3.519,0.261-5.601,0.208
		c-0.353-2.805-0.602-5.559-1.062-8.278c-0.809-4.779-2.706-6.482-7.616-6.901c-1.982-0.169-3.981-0.161-5.973-0.166
		C1520.807,40.719,1519.934,40.521,1518.831,41.56z M1518.177,21.126c0.162,5.205-0.476,9.803,0.441,14.45
		c4.24,0.731,8.185,0.081,12.05-0.692c3.147-0.629,4.677-3.2,4.639-6.723c-0.044-4.046-1.019-5.29-4.857-6.336
		C1526.553,20.763,1522.619,20.993,1518.177,21.126z"/>
</g>
</svg>
