<?xml version="1.0" encoding="iso-8859-1"?>
<!-- Generator: Adobe Illustrator 27.0.0, SVG Export Plug-In . SVG Version: 6.00 Build 0)  -->
<svg version="1.1" id="Layer_1" xmlns="http://www.w3.org/2000/svg" xmlns:xlink="http://www.w3.org/1999/xlink" x="0px" y="0px"
	 viewBox="0 0 1522.622 624" style="enable-background:new 0 0 1522.622 624;" xml:space="preserve">
<g>
	<path style="fill:#E05827;" d="M904.006,0c0,2.325,0.042,4.652-0.007,6.976c-0.126,5.958-2.648,8.933-8.476,9.815
		c-1.798,0.272-3.656,0.202-5.486,0.203c-26.992,0.011-53.983,0.008-80.975,0.008c-1.802,0-3.603,0-5.648,0
		c0,13.298,0,26.22,0,39.669c33.542,0,67.098,0,100.586,0c1.846,14.671-3.354,16.424-16.386,16.493
		c-1.095,1.272-0.576,2.833-0.58,4.255c-0.082,26.323-0.107,52.647-0.175,78.971c-0.019,7.161-0.186,14.322-0.201,21.483
		c-0.011,5.148-2.005,9.394-5.765,12.767c-4.568,4.098-9.581,6.892-16.158,6.451c-6.265-0.42-12.58-0.09-19.231-0.09
		c-0.648-41.353,0.702-82.416,0.446-123.738c-14.304,0-28.349,0-42.792,0c0,1.862,0,3.49,0,5.118c0,32.49-0.086,64.98,0.07,97.47
		c0.033,6.853-2.198,12.376-7.382,16.672c-3.942,3.267-8.582,4.998-13.729,5.059c-6.471,0.077-12.944,0.019-19.489,0.019
		c-1.089-1.044-0.6-2.458-0.599-3.718c0.065-64.309,0.16-128.618,0.239-192.928c0-0.318-0.17-0.637-0.261-0.955
		C809.339,0,856.673,0,904.006,0z"/>
	<path style="fill:#E05827;" d="M96.006,0c-0.047,21.464-0.112,42.928-0.115,64.393c0,2.525-0.183,4.979-1.151,7.316
		c-2.115,5.105-5.196,9.234-11.562,10.575c5.179,2.969,8.981,6.529,10.796,11.929c1.066,3.169,1.801,6.436,1.804,9.669
		c0.012,11.469-0.335,22.938-0.55,34.406c-0.078,4.157-0.612,8.363-0.155,12.459c0.915,8.19-6.694,16.406-13.44,18.239
		c-4.998,1.358-10.134,1.682-15.252,1.828c-7.819,0.223-15.647,0.131-23.472,0.187c-0.323,0.002-0.646,0.14-1.542,0.347
		c0,8.906,0,17.967,0,27.15c-4.005,0.938-7.406-0.501-10.858-0.268c-3.463,0.234-6.967-0.194-10.455-0.246
		c-10.461-0.157-19.882-9.588-20.012-20.125c-0.051-4.162-0.008-8.325-0.009-12.487C0.025,112.425,0.013,59.48,0.011,6.535
		c0-1.828,0.097-3.656,0.149-5.483C1.99,1.034,3.82,1,5.649,1c27.78-0.003,55.56,0.018,83.34-0.053
		C90.65,0.943,92.641,1.876,94.006,0C94.673,0,95.34,0,96.006,0z M54.794,153.943c0-21.015,0-41.868,0-62.723
		c-4.473,0-8.683,0-12.778,0c0,21.084,0,41.805,0,62.723C46.374,153.943,50.455,153.943,54.794,153.943z M42.05,18.23
		c0,18.582,0,36.823,0,55.223c4.406,0,8.491,0,12.79,0c0-18.493,0-36.741,0-55.223C50.586,18.23,46.494,18.23,42.05,18.23z"/>
	<path style="fill:#E78050;" d="M94.006,0c-1.365,1.876-3.356,0.943-5.017,0.947C61.209,1.018,33.429,0.997,5.649,1
		C3.82,1,1.99,1.034,0.161,1.052C0.109,0.701,0.058,0.351,0.006,0C31.34,0,62.673,0,94.006,0z"/>
	<path style="fill:#F1BB9D;" d="M1223.051,623.077c-0.133,0.302-0.148,0.609-0.044,0.923c-7.333,0-14.667,0-22,0
		c0.075-0.307,0.058-0.609-0.052-0.906C1208.32,623.089,1215.685,623.083,1223.051,623.077z"/>
	<path style="fill:#303180;" d="M265.147,270.091c22.831,0,44.937,0,66.989,0c0.872,1.994,0.47,3.846,0.471,5.64
		c0.024,75.322,0.026,150.643,0.016,225.965c-0.002,15.022,4.394,28.504,14.197,39.994c7.912,9.273,18.168,15.142,29.764,18.204
		c18.3,4.833,37.054,6.343,55.9,4.813c9.738-0.791,19.536-1.858,29.006-4.63c23.621-6.916,39.839-22.811,43.787-47.789
		c0.602-3.807,0.879-7.594,0.878-11.431c-0.012-74.988-0.009-149.977-0.009-224.965c0-1.805,0-3.61,0-5.731
		c22.54,0,44.76,0,66.988,0c0.92,1.81,0.467,3.672,0.468,5.46c0.027,75.322-0.049,150.643,0.101,225.965
		c0.023,11.715-2.405,22.729-6.718,33.484c-6.534,16.293-16.085,30.576-28.667,42.777c-12.257,11.885-26.531,20.386-43.025,25.121
		c-12.735,3.656-25.694,5.257-38.92,5.219c-25.829-0.074-51.659,0.03-77.488-0.039c-19.242-0.051-37.681-3.842-54.778-12.896
		c-13.861-7.341-25.477-17.414-34.96-29.954c-8.179-10.817-14.599-22.588-19.424-35.232c-2.921-7.654-4.618-15.535-4.612-23.819
		c0.059-76.821,0.035-153.643,0.035-230.464C265.147,273.98,265.147,272.178,265.147,270.091z"/>
	<path style="fill:#2F3080;" d="M1100.099,563.089c-5.685-13.809-11.371-27.617-17.054-41.427c-1.574-3.823-3.139-7.65-4.8-11.698
		c-35.443,0-70.73,0-105.61,0c-1.47-1.203-1.297-2.433-1.23-3.561c1.202-20.369,14.186-37.67,36.812-39.516
		c13.966-1.139,27.967-0.244,41.949-0.49c3.128-0.055,6.257-0.008,10.033-0.008c-15.083-37.151-29.913-73.679-44.771-110.277
		c-0.658,0.594,0.013-0.014-0.651,0.048c-0.143,0.013-0.329,0.079-0.406,0.185c-0.286,0.397-0.604,0.792-0.787,1.238
		c-34.31,84.055-68.61,168.115-102.977,252.34c-23.379,0-46.653,0-70.447,0c2.809-6.919,5.49-13.614,8.24-20.28
		c30.202-73.203,60.29-146.454,90.72-219.563c7.073-16.994,15.331-33.496,23.026-50.232c5.201-11.312,10.542-22.564,15.492-33.985
		c3.258-7.517,8.983-12.045,16.512-13.952c12.429-3.149,25.222-3.464,37.609-0.439c13.019,3.179,22.16,11.984,27.465,24.201
		c14.746,33.959,28.888,68.174,42.97,102.414c21.72,52.816,43.611,105.561,65.441,158.332c4.124,9.969,8.3,19.916,12.451,29.873
		c-4.82,1.99-9.98,2.329-15.052,2.636c-14.27,0.863-27.553-2.71-40.202-9.279C1115.947,575.035,1108.059,569.031,1100.099,563.089z"
		/>
	<path style="fill:#2F3080;" d="M893.453,271.699c0.453,17.805-7.183,28.71-20.666,35.976c-9.561,5.153-20.033,6.923-30.801,6.93
		c-46.657,0.031-93.314,0.013-139.97,0.013c-1.824,0-3.648,0-5.812,0c0,31.388,0,62.592,0,93.883
		c1.921,0.639,3.758,0.318,5.549,0.319c39.658,0.024,79.317-0.113,118.974,0.091c13.58,0.07,25.367,4.997,34.325,15.568
		c6.522,7.696,8.991,16.851,9.239,27.522c-56.088,0-111.96,0-168.26,0c0,52.662,0,105.051,0,157.799c-22.46,0-44.495,0-66.675,0
		c-0.731-1.693-0.329-3.54-0.33-5.32c-0.025-86.815-0.024-173.63-0.018-260.445c0-5.8-0.572-11.583-0.038-17.403
		c1.317-14.386,6.312-27.208,16.472-37.577c10.461-10.675,23.691-15.593,38.371-17.068c10.63-1.068,21.287-0.839,31.941-0.841
		c57.321-0.009,114.642-0.008,171.964,0.016C889.512,271.164,891.365,270.77,893.453,271.699z"/>
	<path style="fill:#DF5827;" d="M1100.099,563.089c7.961,5.942,15.848,11.946,24.734,16.561
		c12.649,6.569,25.932,10.142,40.202,9.279c5.072-0.307,10.231-0.646,15.052-2.636c13.012-3.39,23.964-10.458,34.082-19.038
		c11.537-9.783,20.797-21.448,28.843-34.197c17.486-27.71,35.117-55.328,52.665-83c0.969-1.529,2.253-2.907,2.612-4.777
		c0.977-0.685,1.493-1.711,2.116-2.689c7.181-11.273,14.434-22.499,21.596-33.784c5.478-8.631,11.357-17.01,16.352-25.945
		c7.262-10.137,13.686-20.825,20.451-31.287c13.731-21.235,27.576-42.391,42.45-62.848c6.527-8.977,14.129-16.77,24.492-21.477
		c5.862-2.663,11.975-4.04,18.325-4.214c15.132-0.415,30.21-1.674,45.308-2.631c9.743-0.618,19.496-1.076,29.396-1.23
		c-4.527,2.934-8.421,6.501-12.578,9.726c-8.301,6.44-14.644,14.507-20.092,23.329c-28.045,45.414-56.034,90.862-84.029,136.307
		c-4.535,7.361-9.013,14.757-13.487,22.156c-0.769,1.272-1.385,2.637-2.071,3.958c-0.79,1.055-1.67,2.054-2.355,3.173
		c-7.673,12.518-15.411,24.999-22.933,37.608c-4.47,7.493-9.472,14.673-13.367,22.507c-19.867,26.989-40.341,53.517-60.777,80.073
		c-5.349,6.951-12.833,10.916-20.278,14.898c-10.092,5.399-21.28,7.164-32.382,9.035c-3.745,0.631-7.531,1.274-11.373,1.133
		c-7.365,0.006-14.731,0.011-22.097,0.017c-18.037-0.529-35.743-3.151-52.954-8.657c-10.177-3.256-18.746-9.243-26.312-16.629
		c-8.05-7.858-14.187-17.12-18.989-27.272C1101.569,568.15,1100.338,565.79,1100.099,563.089z"/>
	<path style="fill:#E05A28;" d="M335.679,101.251c32.205,0,64.467,0,97.024,0c0-10.586,0-20.824,0-31.336
		c-18.654,0-37.237,0-55.986,0c-1.58,1.028-2.504,2.862-3.811,4.35c-6.705,7.632-14.875,11.945-25.292,11.782
		c-11.482-0.18-22.969-0.041-34.415-0.041c-0.368-1.782,0.731-2.734,1.383-3.819c12.248-20.382,24.492-40.767,36.813-61.105
		c2.762-4.56,6.065-8.743,9.847-12.532c5.744-5.754,12.301-8.893,20.652-6.773c1.255,0.319,2.655,0.073,3.988,0.073
		c44.659,0.002,89.318-0.02,133.977,0.041c3.687,0.005,7.276-0.692,10.93-0.878c7.758-0.394,14.324,1.944,19.756,7.644
		c3.474,3.646,6.446,7.628,9.049,11.895c12.904,21.148,25.766,42.322,38.636,63.492c0.248,0.409,0.404,0.874,0.636,1.385
		c-1.214,0.985-2.567,0.548-3.793,0.552c-10.498,0.042-20.997-0.065-31.494,0.049c-10.195,0.111-18.244-4.226-24.935-11.553
		c-1.339-1.466-2.543-3.055-3.859-4.648c-19.809,0-39.582,0-59.634,0c0,10.411,0,20.637,0,31.33c32.753,0,65.322,0,97.791,0
		c1.917,9.304-1.841,14.634-10.902,15.598c-5.119,0.545-10.288,0.827-15.436,0.848c-21.829,0.09-43.659,0.038-65.488,0.038
		c-1.83,0-3.66,0-5.447,0c-0.985,3.6-1.206,57.491-0.265,63.489c8.57,0,17.179,0,26.097,0c1.472-0.759,2.027-2.613,3.014-4.114
		c6.117-9.309,10.963-19.39,17.332-28.55c2.491-3.583,5.502-6.632,8.72-9.566c4.166-3.799,9.204-5.608,14.518-5.788
		c11.141-0.378,22.304-0.115,34.33-0.115c-9.79,16.181-19.255,31.827-29.192,48.251c14.535,0,28.255,0,41.83,0
		c1.999,8.601-0.039,12.621-7.876,14.721c-6.602,1.769-13.496,1.86-20.307,1.865c-59.49,0.05-118.979,0.029-178.469,0.029
		c-14.164,0-28.328-0.006-42.493,0.004c-4.688,0.003-9.317-0.644-13.776-1.959c-7.188-2.12-9.613-6.292-8.492-14.48
		c14.323,0,28.738,0,44.068,0c-10.002-16.497-19.511-32.18-29.342-48.394c12.253,0,23.751-0.388,35.208,0.136
		c7.643,0.35,13.787,4.635,18.666,10.433c3.318,3.943,6.297,8.159,8.8,12.696c4.655,8.439,9.705,16.64,14.897,24.858
		c6.606,0,13.058,0,19.787,0c0-20.987,0-41.914,0-63.193c-1.65-0.63-3.474-0.301-5.222-0.303
		c-20.496-0.029-40.992-0.087-61.488,0.024c-6.007,0.032-11.97-0.507-17.938-0.89C338.717,116.196,334.285,110.559,335.679,101.251z
		 M387.351,52.545c45.915,0,91.058,0,136.619,0c-6.801-11.543-13.357-22.673-19.86-33.711c-32.4,0-64.527,0-96.957,0
		C400.621,29.955,394.098,41.059,387.351,52.545z"/>
	<path style="fill:#2F3080;" d="M0.006,270.071c22.574,0,44.648,0,67.161,0c0,2.165,0,4.124,0,6.083
		c0,76.823-0.014,153.645,0.016,230.468c0.004,10.729,1.559,21.231,5.852,31.147c4.47,10.325,10.968,18.92,21.308,24.144
		c5.75,2.905,11.758,4.491,18.212,4.487c32.162-0.019,64.325-0.14,96.486,0.049c14.986,0.088,27.883,5.385,37.962,16.889
		c5.022,5.733,9.89,18.369,8.677,26.364c-1.138,0.896-2.52,0.432-3.781,0.433c-50.826,0.03-101.652,0.028-152.479,0.024
		c-12.755-0.001-25.326-1.818-37.121-6.524c-20.532-8.191-37.955-20.633-49.457-40.091c-6.325-10.7-10.102-22.316-11.817-34.646
		c-0.899-6.46-1.025-12.925-1.024-19.417c0.009-77.989,0.006-155.978,0.006-233.968C0.006,273.726,0.006,271.938,0.006,270.071z"/>
	<path style="fill:#E05927;" d="M114.33,118.308c14.046,0,27.825,0,42.121,0c0,20.417,0,40.679,0,61.239c8.412,0,16.311,0,24.452,0
		c0-29.898,0-59.639,0-89.416c-1.556-0.813-3.069-0.469-4.511-0.472c-14.665-0.029-29.33-0.018-43.994-0.018
		c-0.833,0-1.667-0.019-2.5,0.003c-11.618,0.299-16.93-5.733-15.419-17.62c21.97,0,44.02,0,66.363,0c0-12.602,0-24.67,0-36.813
		c-1.342-0.983-2.88-0.545-4.304-0.548c-14.998-0.036-29.996-0.047-44.994,0.004c-2.351,0.008-4.647-0.239-6.934-0.689
		c-6.541-1.287-9.871-4.907-10.407-11.503c-0.146-1.795-0.349-3.648,0.402-5.842c21.825,0,43.767,0,65.978,0
		c1.221-5.038,0.027-9.879,0.841-14.913c13.435,0,26.835,0,40.645,0c0,4.684,0,9.287,0,14.464c7.12,0.351,13.878,0.126,20.623,0.167
		c6.832,0.042,13.665,0.009,20.497,0.009c6.8,0,13.601,0,20.626,0c0.698,5.936,1.039,11.38-3.972,15.349
		c-3.455,2.737-7.729,2.869-11.869,2.897c-13.498,0.091-26.996,0.026-40.495,0.045c-1.625,0.002-3.293-0.245-5.083,0.425
		c0,12.033,0,23.981,0,36.664c6.72,0.225,13.479,0.078,20.229,0.104c6.832,0.026,13.665,0.006,20.497,0.006
		c6.806,0,13.611,0,20.714,0c0.526,2.847,0.513,5.484,0.14,8.066c-0.698,4.836-4.229,8.182-9.2,9.146
		c-2.135,0.414-4.264,0.601-6.44,0.596c-13.498-0.034-26.997-0.017-40.495-0.017c-1.654,0-3.309,0-5.322,0
		c0,30.005,0,59.732,0,89.835c6.538,0,13.12,0,20.427,0c0.125-4.817,0.034-9.907,0.05-14.991c0.017-5.166,0.004-10.332,0.004-15.498
		c0-4.999,0-9.999,0-14.998c0-5.127,0-10.254,0-15.611c13.688,0,26.958,0,40.359,0c1.041,0.762,0.631,2.024,0.632,3.126
		c0.023,21.33,0.037,42.66,0.006,63.99c-0.01,6.886-3.589,10.677-10.379,11.639c-4.311,0.611-8.613,0.739-12.946,0.737
		c-42.161-0.013-84.323-0.038-126.484,0.04c-4.032,0.007-7.961-0.642-11.921-1.071c-3.665-0.397-5.843-3.064-7.128-6.262
		c-0.726-1.808-1.176-3.768-1.171-5.831c0.056-21.664,0.04-43.328,0.054-64.992C114.026,119.436,114.155,119.116,114.33,118.308z"/>
	<path style="fill:#E05927;" d="M932.967,197.309c0-6.274,0-12.431,0-18.717c1.786-1.107,3.821-0.475,5.748-0.575
		c4.179-0.218,8.242-0.799,12.063-2.684c3.819-1.883,5.95-5.059,5.992-9.097c0.158-15.497,0.036-30.997-0.005-46.496
		c-0.001-0.289-0.297-0.576-0.583-1.097c-7.545,0.469-14.864,3.115-22.747,3.627c-1.207-3.735-0.407-7.542-0.549-11.271
		c-0.145-3.801-0.032-7.612-0.032-11.749c7.933-1.249,15.597-2.456,23.218-3.656c0.963-3.588,1.199-35.921,0.283-42.601
		c-7.54,0-15.14,0-22.635,0c-1.068-3.916-1.21-16.186-0.286-21.762c7.548,0,15.166,0,23.177,0c0-9.759,0-19.19,0-28.211
		c0.52-0.523,0.633-0.646,0.756-0.758c0.119-0.109,0.248-0.298,0.373-0.298c13.164-0.014,26.327-0.013,40.037-0.013
		c0,9.526,0,19.077,0,28.904c8.442,0,16.341,0,24.458,0c1.223-5.082,3.805-9.103,8.635-11.518c2.733-1.366,5.434-2.25,8.552-2.234
		c16.499,0.085,32.999,0.049,49.499,0.025c1.632-0.002,3.305,0.279,5.361-0.46c0-4.327,0-8.74,0-13.401c15.899,0,31.329,0,46.985,0
		c0.906,4.337-0.002,8.835,0.539,13.244c1.765,1.136,3.649,0.598,5.419,0.603c19,0.046,38.006,0.325,56.996-0.105
		c8.59-0.195,17.324,6.997,16.752,16.933c-0.497,8.625-0.104,17.302-0.104,25.77c-0.571,0.363-0.846,0.689-1.128,0.695
		c-10.645,0.222-21.282,0.515-31.932-0.178c-6.947-0.452-11.928-7.49-12.89-12.767c-0.716-3.926-0.323-7.914-0.713-12.06
		c-35.245,0-70.159,0-105.559,0c0,3.362,0.016,6.489-0.003,9.615c-0.064,10.33-5.345,15.58-15.753,15.615c-9,0.03-18,0.02-27-0.012
		c-1.129-0.004-2.33,0.336-3.706-0.582c0-4.748,0-9.696,0-15.391c-6.948,6.71-14.832,8.873-23.874,8.149c0,12.041,0,23.791,0,35.937
		c8.264-1.372,16.493-2.738,25.215-4.185c0.307,7.759-2.053,13.75-7.096,18.896c-4.997,5.099-11.629,6.041-17.957,7.359
		c-0.773,1.867-0.443,3.554-0.445,5.198C997.999,133.001,998.008,150,998.01,167c0.001,6.565-0.971,12.936-4.041,18.825
		c-4.015,7.701-10.138,12.089-19.102,12.051c-12.5-0.053-25-0.001-37.499-0.031C936.07,197.841,934.72,198.153,932.967,197.309z"/>
	<path style="fill:#E05927;" d="M1295.368,197.86c0-5.768,0-11.027,0-16.239c1.031-1.053,2.289-0.442,3.38-0.693
		c5.101-1.173,6.189-2.486,6.214-7.78c0.072-15.319,0.134-30.638,0.161-45.957c0.002-1.284,0.352-2.641-0.489-4.093
		c-8.195,0-16.466,0-24.816,0c-1.191,1.202-0.627,2.786-0.631,4.203c-0.045,15.827-0.025,31.653-0.03,47.48
		c-0.001,4.506-0.241,8.933-2.177,13.168c-2.754,6.026-7.331,9.573-13.871,9.797c-8.973,0.307-17.965,0.077-27.435,0.077
		c-0.615-5.606-0.169-11.006-0.323-16.603c3.563-0.175,6.641-0.693,9.25-2.645c1.036-1.636,1.171-3.381,1.171-5.265
		c-0.003-53.807,0.043-107.614,0.082-161.42c0.001-1.806,0-3.612,0-5.728c31.011,0,61.729,0,92.441,0
		c0.988,1.2,0.552,2.588,0.553,3.866c0.024,54.311,0.027,108.621,0.01,162.932c-0.001,4.832-0.477,9.621-2.146,14.203
		c-2.593,7.116-7.97,10.478-15.291,10.649C1312.933,198.012,1304.437,197.86,1295.368,197.86z M1304.845,56.609
		c0-10.958,0-21.645,0-32.282c-8.69,0-17.068,0-25.464,0c0,10.898,0,21.467,0,32.282
		C1287.855,56.609,1296.101,56.609,1304.845,56.609z M1279.382,74.818c0,10.02,0,19.439,0,29.064c8.618,0,17.001,0,25.465,0
		c0-9.824,0-19.38,0-29.064C1296.271,74.818,1287.999,74.818,1279.382,74.818z"/>
	<path style="fill:#E05927;" d="M620.366,1.86c40.147,0.04,79.752-0.223,119.593,0.405c1.123,3.621,1.121,7.195-0.192,10.655
		c-1.062,2.798-3.127,4.717-6.272,5.031c-2.808,0.28-5.585,0.738-8.44,0.727c-19.157-0.073-38.314-0.049-57.472-0.02
		c-1.788,0.003-3.626-0.317-5.648,0.404c0,12.138,0,24.235,0,36.49c1.467,1.177,3.374,0.552,5.13,0.558
		c16.991,0.054,33.983,0.032,50.975,0.032c12.103,0,18.868,6.401,19.943,18.691c0.725,8.293-0.005,16.581,0.126,24.872
		c0.118,7.489-0.428,14.993-0.18,22.474c0.455,13.756-10.226,21.378-21.707,21.611c-16.317,0.331-32.645,0.166-48.968,0.212
		c-1.624,0.005-3.247,0.001-5.239,0.001c0,18.51,0,36.587,0,54.948c-8.324,0-16.315,0.59-24.176-0.17
		c-7.511-0.726-16.999-8.863-16.943-19.845c0.214-41.81,0.18-83.623-0.134-125.433c-0.115-15.308-0.373-30.617-0.396-45.927
		C620.364,5.931,620.366,4.284,620.366,1.86z M696.749,128.977c0-18.621,0-36.696,0-54.857c-11.635,0-23.018,0-34.427,0
		c0,18.461,0,36.66,0,54.857C673.933,128.977,685.206,128.977,696.749,128.977z"/>
	<path style="fill:#E05927;" d="M1466.759,156.714c6.172,3.468,12.461,5.981,18.824,8.333c9.493,3.508,19.076,6.727,28.859,9.355
		c5.505,1.479,6.69,2.963,7.143,8.692c0.223,2.815,0.159,5.666,0.035,8.493c-0.209,4.747-2.398,6.545-7.078,6.046
		c-19.058-2.03-37.716-5.848-55.901-12.012c-8.187-2.775-16.158-6.03-24.208-9.607c-6.939,2.914-13.897,6.033-20.998,8.78
		c-19.003,7.351-38.721,11.787-58.956,13.992c-1.156,0.126-2.341,0.256-3.489,0.142c-3.197-0.318-4.91-1.911-5.067-5.086
		c-0.189-3.823-0.159-7.665-0.031-11.492c0.106-3.175,2.436-4.506,5.093-5.37c4.576-1.489,9.203-2.828,13.74-4.428
		c12.062-4.253,23.755-9.38,35.852-15.305c-18.691-13.186-35.635-27.668-49.711-44.764c0.65-3.617,2.887-4.291,5.296-4.305
		c12.162-0.072,24.324-0.035,36.486-0.03c2.502,0.001,4.368,1.29,6.144,2.91c7.258,6.621,14.81,12.898,22.659,18.804
		c3.571,2.687,7.313,5.145,11.148,7.826c14.355-10.093,27.477-21.231,40.014-34.827c-2.634,0-4.337,0-6.04,0
		c-32.988,0-65.976,0.032-98.964-0.028c-6.452-0.012-12.514-1.54-17.521-5.953c-3.751-3.306-5.113-7.562-5.01-12.287
		c1.14-1.145,2.373-0.721,3.477-0.721c52.647-0.023,105.295-0.025,157.942-0.014c7.094,0.001,11.497,2.47,12.647,8.086
		c1.094,5.344,1.283,10.851-1.557,16.018c-3.012,5.481-7.426,9.799-11.537,14.347c-11.1,12.28-23.958,22.597-37.067,32.612
		C1468.331,155.419,1467.706,155.948,1466.759,156.714z"/>
	<path style="fill:#2F3080;" d="M1338.352,382.863c-4.995,8.935-10.874,17.314-16.352,25.945
		c-7.162,11.285-14.416,22.511-21.596,33.784c-0.623,0.978-1.139,2.005-2.116,2.689c-23.17-34.328-46.347-68.651-69.507-102.986
		c-9.582-14.205-19.147-28.42-28.666-42.667c-1.226-1.835-3.151-3.598-1.797-6.285c1.587-0.7,3.27-0.32,4.898-0.323
		c14.663-0.036,29.33,0.173,43.988-0.089c9.743-0.175,18.189,3.161,26.256,8.108c12.734,7.809,22.521,18.685,31.16,30.587
		C1316.637,348.182,1327.403,365.589,1338.352,382.863z"/>
	<path style="fill:#2F3080;" d="M1347.861,517.939c3.896-7.834,8.898-15.014,13.367-22.507c7.521-12.609,15.259-25.09,22.933-37.608
		c0.685-1.119,1.566-2.118,2.355-3.173c18.303,27.536,36.666,55.032,54.889,82.621c13.096,19.826,26.01,39.772,38.99,59.675
		c0.98,1.503,1.842,3.083,3.096,5.197c-6.546,0.036-12.497,0.222-18.435,0.408c-10.144,0.319-20.302,0.357-30.451,0.264
		c-10.916-0.1-20.206-4.652-28.681-11.158c-12.415-9.531-22.178-21.46-30.966-34.271
		C1365.934,544.232,1356.894,531.087,1347.861,517.939z"/>
	<path style="fill:#E05A28;" d="M1219.694,179.736c1.098,11.339-7.844,18.313-16.98,18.268
		c-55.805-0.274-111.612-0.137-167.418-0.137c-11.01,0-16.484-5.857-16.107-17.991c5.362-0.009,10.779-0.021,16.196-0.026
		c5.497-0.004,10.995-0.001,16.492-0.001c5.664,0,11.328,0,16.992,0c5.497,0,10.995,0,16.492,0c5.465,0,10.931,0,16.693,0
		c0-17.665,0-34.92,0-52.33c-1.314-1.027-3.041-0.484-4.643-0.487c-17.658-0.04-35.316-0.025-52.974-0.025
		c-10.464,0-16.198-6.484-15.261-17.576c62.505,0,125.036,0,187.541,0c1.242,9.972-5.28,17.548-15.012,17.567
		c-17.492,0.033-34.983,0.009-52.475,0.009c-1.643,0-3.287,0-5.253,0c0,17.652,0,35.003,0,52.729
		C1169.241,179.736,1194.33,179.736,1219.694,179.736z"/>
	<path style="fill:#E05927;" d="M1502.869,53.193c5.375,6.859,12.33,6.148,19.754,5.059c0,5.923,0,11.804,0,17.911
		c-0.722,0.896-1.979,0.469-3.079,0.454c-9.314-0.127-18.64,0.45-27.938-0.588c-7.308-0.815-14.444-2.127-20.962-5.813
		c-5.522-3.123-8.578-7.591-8.522-14.107c0.085-9.993,0.04-19.988,0.005-29.982c-0.006-1.615,0.328-3.287-0.414-5.05
		c-18.448,0-36.844,0-55.266,0c-0.761,1.741-0.412,3.416-0.418,5.036c-0.037,9.827-0.195,19.659,0.041,29.481
		c0.168,6.981-2.95,11.595-8.859,14.866c-5.957,3.297-12.445,4.591-19.052,5.411c-10.763,1.336-21.58,0.603-32.748,0.79
		c-0.804-3.05-0.302-6.02-0.388-8.928c-0.088-2.977-0.019-5.959-0.019-8.836c1.477-1.038,2.738-0.385,3.991-0.224
		c3.315,0.428,6.607,0.571,9.856-0.527c5.021-1.696,6.977-4.243,6.992-9.544c0.035-11.826-0.006-23.653,0.017-35.479
		c0.015-7.288,2.954-10.256,10.301-10.26c38.644-0.024,77.287-0.023,115.931-0.001c7.33,0.004,10.704,3.284,10.752,10.625
		C1502.931,26.643,1502.869,39.8,1502.869,53.193z"/>
	<path style="fill:#E05827;" d="M1084.652,100.001c-15.573,0-30.925,0.001-46.278-0.34c-1.037-2.671,0.418-3.818,1.464-5.04
		c7.995-9.344,16.01-18.67,24.025-27.996c1.727-2.01,3.477-4,5.114-5.881c7.918-0.896,43.885-0.56,47.847,0.581
		C1105.999,74.339,1095.325,87.17,1084.652,100.001z"/>
	<path style="fill:#E05827;" d="M1204.428,99.661c-15.111,0-30.222,0-46.148,0c-10.159-12.234-20.762-25.002-31.278-37.665
		c0.528-1.792,1.832-1.607,2.916-1.61c13.666-0.029,27.332,0.008,40.997-0.046c2.39-0.009,4.02,0.976,5.538,2.75
		c8.768,10.247,17.629,20.414,26.427,30.635C1204.143,95.193,1205.848,96.592,1204.428,99.661z"/>
</g>
</svg>
