<?xml version="1.0" encoding="iso-8859-1"?>
<!-- Generator: Adobe Illustrator 27.0.0, SVG Export Plug-In . SVG Version: 6.00 Build 0)  -->
<svg version="1.1" id="Layer_1" xmlns="http://www.w3.org/2000/svg" xmlns:xlink="http://www.w3.org/1999/xlink" x="0px" y="0px"
	 viewBox="0 0 1427.305 472" style="enable-background:new 0 0 1427.305 472;" xml:space="preserve">
<g>
	<path style="fill:#B6B6CA;" d="M0,203C0,146,0,89,0,32c0.295,0.008,0.589,0.029,0.882,0.062c0.038,1.164,0.109,2.328,0.109,3.492
		C0.996,90.182,0.996,144.811,0.99,199.439c0,1.163-0.086,2.326-0.133,3.489C0.571,202.942,0.285,202.966,0,203z"/>
	<path style="fill:#B6B6CA;" d="M0.864,274.051C0.575,274.042,0.287,274.025,0,274c0-12,0-24,0-36
		c0.295,0.008,0.589,0.029,0.882,0.062C0.876,250.058,0.87,262.055,0.864,274.051z"/>
	<path style="fill:#8183A5;" d="M0.882,238.062C0.589,238.029,0.295,238.008,0,238c0-11.667,0-23.333,0-35
		c0.285-0.034,0.571-0.058,0.857-0.072C0.865,214.639,0.874,226.351,0.882,238.062z"/>
	<path style="fill:#8183A5;" d="M0.882,32.062C0.589,32.029,0.295,32.008,0,32c0-7,0-14,0-21c0.323,0.134,0.636,0.115,0.941-0.057
		C0.921,17.983,0.902,25.022,0.882,32.062z"/>
	<path style="fill:#CFD0CD;" d="M1049,472c0.014-0.288-0.003-0.575-0.051-0.86c5.703,0.007,11.405,0.013,17.108,0.02
		c-0.039,0.279-0.058,0.559-0.057,0.84C1060.333,472,1054.667,472,1049,472z"/>
	<path style="fill:#CFD0CD;" d="M590,472c0.026-0.295,0.011-0.588-0.045-0.879c5.036,0.023,10.071,0.045,15.107,0.068
		c-0.028,0.27-0.049,0.541-0.062,0.812C600,472,595,472,590,472z"/>
	<path style="fill:#8183A5;" d="M978.959,0.958C978.973,0.639,978.986,0.319,979,0c3.667,0,7.333,0,11,0
		c-0.085,0.31-0.053,0.608,0.094,0.893C986.383,0.915,982.671,0.937,978.959,0.958z"/>
	<path style="fill:#213E73;" d="M513.87,145.504c0,39.16,0.1,78.32-0.052,117.479c-0.057,14.674-1.583,29.197-6.385,43.229
		c-7.57,22.118-22.595,36.742-44.413,44.645c-11.185,4.051-22.818,6.115-34.604,6.91c-19.919,1.344-39.853,2.627-59.848,2.255
		c-19.513-0.363-38.86-2.056-57.786-7.053c-11.385-3.006-21.859-7.984-30.874-15.688c-13.668-11.679-20.742-26.978-23.843-44.328
		c-2.526-14.133-2.861-28.459-2.885-42.754c-0.113-66.822-0.044-133.644-0.056-200.467c-0.002-10.33-0.1-20.661-0.114-30.991
		c-0.003-2.487,0.106-4.942,0.709-7.42c1.045-4.292,3.7-6.827,7.901-7.164c8.481-0.68,16.989-0.444,25.358,1.211
		c3.944,0.78,6.301,3.552,6.983,7.573c0.641,3.779,0.933,7.579,0.932,11.426c-0.03,77.32-0.011,154.641-0.038,231.961
		c-0.003,9.355,0.865,18.59,3.046,27.696c4.478,18.69,14.806,28.243,33.745,31.027c13.844,2.035,27.802,2.642,41.768,3.075
		c10.158,0.315,20.327,0.366,30.466-0.191c12.604-0.692,25.246-1.302,37.557-4.541c16.939-4.457,25.75-15.951,28.603-32.746
		c1.455-8.568,1.678-17.235,1.698-25.847c0.156-66.322,0.211-132.645-0.027-198.966c-0.044-12.309-0.215-24.629-0.387-36.944
		c-0.033-2.35,0.231-4.649,0.629-6.942c0.821-4.725,3.111-7.421,7.736-7.792c8.64-0.693,17.312-0.475,25.851,1.194
		c4.37,0.854,6.834,3.76,7.508,8.242c0.496,3.3,0.841,6.587,0.839,9.931C513.861,64.184,513.87,104.844,513.87,145.504z"/>
	<path style="fill:#213E73;" d="M806.625,208.006c0.01,39.988,0.088,79.976-0.039,119.963c-0.021,6.618-0.398,13.322-2.753,19.659
		c-2.908,7.825-7.87,13.509-16.563,14.817c-5.738,0.864-10.78-1.225-15.491-4.3c-5.446-3.554-9.083-8.754-12.59-14.025
		c-17.135-25.754-34.193-51.558-51.322-77.316c-33.062-49.719-66.156-99.417-99.231-149.128
		c-5.802-8.72-11.586-17.452-17.351-26.196c-0.909-1.379-1.518-3.074-3.737-2.581c-0.974,1.134-0.52,2.511-0.522,3.768
		c-0.07,49.482-0.137,98.964-0.146,148.446c-0.006,31.822,0.079,63.645,0.123,95.467c0.005,3.493,0.111,6.99-0.012,10.479
		c-0.325,9.258-2.847,12.387-11.812,12.336c-6.76-0.039-13.633,0.182-20.355-1.307c-5.909-1.308-8.09-3.668-8.864-9.734
		c-0.464-3.64-0.631-7.279-0.63-10.947c0.021-74.811,0.035-149.621,0.006-224.432c-0.01-27.155-0.128-54.31-0.213-81.465
		c-0.015-4.677,0.64-9.25,1.565-13.833c2.895-14.333,22.926-21.033,34.587-12.31c4.757,3.559,8.277,8.17,11.519,13.025
		c24.481,36.666,48.867,73.396,73.418,110.016c28.245,42.129,56.344,84.352,84.081,126.817c3.993,6.113,8.005,12.214,11.895,18.147
		c1.699-0.008,2.671-0.406,2.773-1.889c0.034-0.498,0.034-0.999,0.033-1.498c-0.045-20.823-0.092-41.646-0.139-62.469
		c3.208-1.213,6.501-0.309,9.734-0.272C785.27,207.366,795.947,207.733,806.625,208.006z"/>
	<path style="fill:#213E73;" d="M0.882,32.062c0.02-7.039,0.039-14.079,0.059-21.118C1.506,6.589,4.394,4.31,8.369,4.198
		c8.299-0.233,16.646-0.927,24.903,0.696c6.232,1.225,8.886,3.948,9.621,10.317c0.457,3.956,0.728,7.958,0.73,11.939
		c0.041,78.479,0.02,156.959,0.047,235.438c0.003,7.82,0.463,15.587,1.988,23.323c3.35,16.993,13.911,26.153,30.51,29.188
		c7.222,1.321,14.494,1.954,21.825,2.027c6.661,0.067,13.325,0.044,19.983,0.239c22.311,0.655,44.631,0.696,66.94,0.359
		c14.311-0.216,28.626-0.271,42.936-0.608c2.692-0.063,5.322,0.217,7.904,0.94c3.579,1.003,5.88,3.422,6.147,7.047
		c0.636,8.616,0.667,17.254-0.994,25.789c-0.773,3.972-3.222,6.327-7.276,7.252c-2.637,0.601-5.266,0.833-7.92,0.839
		c-35.489,0.086-70.977,0.196-106.466,0.164c-14.809-0.013-29.614-0.585-44.336-2.273c-13.303-1.525-26.103-4.917-37.841-11.621
		C19.046,334.957,8.861,319.011,4.067,299.23c-2.004-8.268-3.041-16.67-3.204-25.178c0.006-11.996,0.012-23.993,0.018-35.989
		c-0.008-11.711-0.016-23.422-0.025-35.134c0.046-1.163,0.132-2.326,0.133-3.489C0.996,144.811,0.996,90.182,0.991,35.554
		C0.991,34.39,0.92,33.226,0.882,32.062z"/>
	<path style="fill:#203E72;" d="M978.959,0.958c3.712-0.022,7.424-0.043,11.135-0.065c9.647,1.656,15.556,7.882,19.113,16.417
		c6.63,15.91,12.977,31.939,19.334,47.96c9.287,23.405,18.482,46.846,27.705,70.277c0.362,0.92,0.61,1.885,0.911,2.829
		c-0.209,6.487-0.224,12.988-0.694,19.456c-0.315,4.326-0.307,8.569,0.071,12.9c0.706,8.089,1.62,16.32-3.342,23.655
		c-7.111-0.155-14.223-0.31-21.334-0.465c-2.025-3.053-3.585-6.327-4.918-9.741c-4.947-12.667-10.028-25.281-14.951-37.957
		c-9.169-23.61-18.263-47.249-27.499-71.163c-0.494,0.999-0.934,1.709-1.212,2.478c-11.768,32.602-24.844,64.701-37.342,97.022
		c-2.803,7.248-4.916,14.8-9.061,21.487c-5.539,1.324-11.181,0.698-16.773,0.793c-10.722,0.182-21.449,0.124-32.174,0.166
		c10.041-25.248,20.059-50.506,30.129-75.742c13.271-33.26,26.591-66.501,39.865-99.76c1.359-3.404,2.846-6.73,4.956-9.737
		C966.847,6.11,972.017,2.208,978.959,0.958z"/>
	<path style="fill:#214074;" d="M764.768,200.024c0.018-12.665,0.049-25.33,0.052-37.996c0.007-38.99,0.032-77.98-0.019-116.97
		c-0.012-9.152-0.269-18.304-0.48-27.455c-0.05-2.191,0.236-4.322,0.683-6.436c0.886-4.194,3.173-6.735,7.348-6.953
		c8.637-0.451,17.318-0.716,25.882,0.953c4.45,0.867,6.857,3.942,7.574,8.25c0.49,2.94,0.815,5.946,0.816,8.922
		c0.028,59.161-0.002,118.323-0.021,177.484c-5.315,0.087-10.629,0.231-15.944,0.249C782.029,200.1,773.398,200.044,764.768,200.024
		z"/>
	<path style="fill:#203E72;" d="M1080.785,193.901c4.924,12.499,9.798,25.018,14.781,37.494
		c16.373,40.988,32.792,81.957,49.15,122.95c0.541,1.355,1.503,2.637,1.251,4.364c-2.236,0.598-4.567,0.259-6.865,0.276
		c-10.662,0.077-21.325,0.04-31.987,0.147c-6.437,0.064-8.74-1.404-11.146-7.72c-6.146-16.129-12.249-32.274-18.386-48.407
		c-6.963-18.303-13.946-36.598-20.912-54.899c-0.293-0.77-0.495-1.575-0.739-2.363c1.753-16.876,1.701-33.763,0.286-50.657
		C1064.386,194.261,1072.569,193.737,1080.785,193.901z"/>
	<path style="fill:#203E72;" d="M927.071,211.104c-6.068,15.793-12.141,31.585-18.203,47.38
		c-11.35,29.57-22.689,59.144-34.054,88.709c-0.772,2.008-1.562,4.006-2.73,5.855c-2.093,3.313-5.016,5.565-8.862,5.785
		c-9.63,0.551-19.301,0.907-28.863-0.766c-6.093-1.066-7.682-3.721-6.555-9.889c1.113-6.093,3.629-11.712,5.894-17.411
		c15.983-40.23,31.984-80.454,47.979-120.679C896.826,209.582,911.945,210.509,927.071,211.104z"/>
	<path style="fill:#F9C41D;" d="M927.071,211.104c-15.126-0.595-30.245-1.522-45.395-1.016c-11.198-1.609-22.483-1.834-33.764-2.241
		c-7.635-0.276-15.285-0.268-22.91-0.403c-6.067-0.108-12.272-0.203-18.377,0.562c-10.678-0.273-21.355-0.64-32.035-0.761
		c-3.233-0.037-6.527-0.941-9.734,0.272c-7.7,3.054-15.691,4.237-23.923,3.448c-6.916-0.662-13.337-2.66-18.369-7.821
		c-0.344-0.352-0.626-0.77-0.898-1.182c-0.076-0.116-0.012-0.324-0.012-0.821c14.358-0.193,28.753-0.15,43.114-1.116
		c8.63,0.02,17.26,0.076,25.891,0.048c5.315-0.017,10.629-0.161,15.944-0.249c14.701-0.635,29.421-0.578,44.118-1.482
		c7.769-0.477,15.577-0.421,23.368-0.416c4.646,0.003,9.223-0.691,13.84-0.92c10.725-0.042,21.451,0.016,32.174-0.166
		c5.592-0.095,11.234,0.531,16.773-0.793c2.319,0.054,4.639,0.187,6.956,0.15c12.433-0.2,24.863-0.489,37.294-0.845
		c16.91-0.485,33.828-0.71,50.732-1.429c7.111,0.155,14.223,0.31,21.334,0.465c0.813,1.081,2.043,0.351,3.026,0.698
		c1.415,16.894,1.467,33.78-0.286,50.657c-4.009-8.504-8.019-17.008-12.25-25.982c-31.231,26.007-63.449,50.331-92.68,78.061
		c-1.634-0.599-2.454-1.508-3.053-3.406c28.36-24.615,54.13-52.219,80.863-78.432c0.763-1.75,0.592-3.17,0.056-4.544
		c-0.357-0.183-0.643-0.458-0.93-0.458c-33.295-0.028-66.589-0.036-99.884-0.038C927.727,210.942,927.399,211.048,927.071,211.104z"
		/>
	<path style="fill:#EB752F;" d="M1056.218,195.085c-0.982-0.347-2.213,0.383-3.026-0.698c4.962-7.335,4.048-15.566,3.342-23.655
		c-0.378-4.33-0.385-8.573-0.071-12.9c0.471-6.468,0.485-12.969,0.694-19.456c4.114,7.56,7.117,15.635,10.82,23.386
		c0.784,1.641,1.545,3.293,2.412,5.145c11.636-9.5,23.11-18.85,34.565-28.223c11.849-9.695,23.677-19.415,35.525-29.111
		c0.375-0.307,0.868-0.471,1.307-0.702c1.945,0.12,3.277,0.875,3.195,3.091c-7.49,7.579-14.944,15.196-22.479,22.73
		c-12.138,12.135-24.33,24.215-36.498,36.32c-0.58,0.577-1.209,1.131-1.265,2.084c0.503,1.211,1.641,0.85,2.549,0.872
		c19.304,0.466,38.619,0.647,57.909,1.438c12.475,0.512,24.968,0.242,37.417,0.993c11.644,0.703,23.304,0.27,34.929,0.963
		c12.64,0.754,25.31,0.296,37.93,1.045c11.478,0.681,22.981,0.153,34.426,0.989c10.287,0.752,20.612,0.025,30.87,1.175
		c2.19,2.523,5.176,2.437,8.113,2.439c15.474,0.013,30.95,0.134,46.421-0.068c4.518-0.059,8.84,1.254,13.321,1.138
		c1.089-0.028,1.291,0.822,1.266,1.729c-21.952,0.446-43.914,0.605-65.851,1.442c-14.133,0.539-28.279,0.27-42.388,0.991
		c-13.631,0.696-27.275,0.296-40.885,0.981c-14.129,0.711-28.277,0.313-42.385,1.02c-13.632,0.683-27.278,0.294-40.89,0.982
		c-13.961,0.706-27.938,0.352-41.882,1.021c-9.47,0.454-18.947,0.412-28.408,0.921c-2.145,0.115-4.277,0.482-6.415,0.734
		C1072.569,193.737,1064.386,194.261,1056.218,195.085z"/>
	<path style="fill:#707A72;" d="M284.364,470.912c-7.163,0-14.326,0.036-21.489-0.009c-8.4-0.053-12.256-3.901-13.06-12.359
		c-1.011-10.634-0.738-21.233,0.185-31.843c0.558-6.417,2.661-8.62,9.024-9.928c1.988-0.408,3.935-0.54,5.926-0.54
		c12.664,0,25.329-0.001,37.993,0.001c2.656,0,5.278,0.106,7.925,0.606c5.461,1.032,8.268,3.122,8.848,8.54
		c1.202,11.238,1.987,22.544,0.289,33.806c-1.15,7.626-5.991,11.709-13.652,11.809c-7.328,0.096-14.659,0.021-21.988,0.021
		C284.364,470.98,284.364,470.946,284.364,470.912z M304.376,458.297c0.905-1.356,1.602-2.981,1.61-4.895
		c0.027-6.312,0.092-12.623,0.149-18.934c0.051-5.689-3.447-8.936-9.877-8.214c-7.789,0.874-15.495,1.013-23.27-0.022
		c-5.695-0.759-9.258,2.473-9.183,8.246c0.075,5.814,0.098,11.621,0.011,17.436c-0.085,5.693,3.18,8.536,8.866,7.893
		c7.604-0.861,15.179-0.789,22.783-0.005C298.427,460.106,301.442,460.032,304.376,458.297z"/>
	<path style="fill:#6E796F;" d="M38.979,471.005c-6.332,0-12.666-0.106-18.994,0.039c-3.951,0.09-7.563-0.865-11.01-2.649
		c-4.503-2.33-7.127-5.905-7.102-11.115c0.019-3.988,0.06-7.948,0.829-11.924c0.757-3.915,0.866-8.008-0.047-11.921
		c-0.717-3.072-0.29-5.948,0.417-8.848c0.96-3.938,3.775-6.317,7.456-7.34c2.68-0.745,5.579-0.934,8.384-0.959
		c11.45-0.1,22.902,0.047,34.352-0.09c4.014-0.048,7.951,0.469,11.912,0.846c3.46,0.329,5.832,2.112,6.896,5.548
		c0.597,1.928,0.946,3.86,0.943,5.878c-0.017,10.162,0,20.324-0.018,30.487c-0.003,2.002-0.244,3.955-0.946,5.879
		c-1.006,2.757-2.903,4.429-5.679,5.073c-2.753,0.638-5.536,1.051-8.395,1.018c-6.332-0.075-12.665-0.023-18.997-0.023
		C38.979,470.937,38.979,470.971,38.979,471.005z M59.987,442.041c-0.034,0-0.068,0-0.102,0c0-2.662,0.105-5.329-0.02-7.985
		c-0.34-7.186-2.99-9.291-9.88-7.615c-3.984,0.97-7.932,0.73-11.888,0.284c-2.622-0.296-5.188-1.058-7.802-1.465
		c-5.868-0.914-10.242,1.835-12.419,7.471c-1.325,3.43-2.164,6.983-2.739,10.566c-1.199,7.461,2.128,12.537,9.376,14.731
		c1.581,0.479,3.175,0.867,4.847,1.064c7.45,0.876,14.882,0.716,22.327,0.005c5.443-0.52,7.818-2.675,8.257-8.077
		C60.186,448.046,59.987,445.035,59.987,442.041z"/>
	<path style="fill:#6E796F;" d="M841.418,470.903c-6.992,0-13.984-0.048-20.975,0.012c-9.453,0.081-13.714-5.527-13.503-13.497
		c0.225-8.484,0.037-16.979,0.063-25.469c0.006-1.828-0.004-3.679,0.263-5.48c0.994-6.696,3.19-8.594,9.948-9.642
		c3.318-0.515,6.609-0.573,9.926-0.577c10.987-0.013,21.975,0.063,32.961-0.047c3.19-0.032,6.292,0.536,9.395,0.964
		c3.318,0.458,5.713,2.418,6.597,5.939c0.49,1.952,0.833,3.879,0.828,5.894c-0.027,9.987-0.022,19.973-0.016,29.96
		c0.001,1.681-0.407,3.273-0.781,4.9c-0.798,3.474-2.841,5.445-6.33,6.163c-2.618,0.538-5.225,0.902-7.899,0.891
		C855.069,470.884,848.244,470.903,841.418,470.903z M839.133,426.746c-5,0-9.169-0.105-13.329,0.034
		c-3.217,0.108-4.884,1.44-4.916,4.452c-0.075,7.113-1.506,14.175-0.221,21.357c1.246,6.964,2.447,8.198,9.405,7.457
		c0.825-0.088,1.676-0.129,2.462-0.366c3.45-1.041,6.885-0.735,10.358-0.119c3.1,0.55,6.215,1.178,9.347,1.347
		c5.412,0.292,8.902-2.119,10.714-7.138c1.067-2.957,1.636-6.071,2.459-9.094c1.988-7.305-1.223-15.103-10.71-17.033
		C849.224,426.528,843.763,427.035,839.133,426.746z"/>
	<path style="fill:#6C776E;" d="M767.393,449.953c8.22,6.634,15.548,12.548,23.479,18.95c-7.526,2.933-14.065,3.036-20.448-0.983
		c-3.857-2.429-6.585-6.078-9.877-9.117c-3.065-2.829-6.194-5.576-9.887-7.532c-5.823-3.085-9.998-1.138-11.493,5.29
		c-0.608,2.616-0.328,5.292-0.307,7.955c0.035,4.475-2.203,6.44-6.982,6.389c-4.477-0.047-7.298-2.102-6.648-6.129
		c1.625-10.067-1.305-19.816-1.317-29.735c-0.003-2.162-0.049-4.332,0.106-6.485c0.479-6.613,4.454-11.087,10.923-12.482
		c4.755-1.025,9.6-1.387,14.373-0.741c6.96,0.943,13.927,0.868,20.902,0.881c2.673,0.005,5.292,0.228,7.911,0.725
		c5.061,0.961,8.131,3.776,8.651,8.888c0.486,4.78,0.62,9.641-0.424,14.401c-1.457,6.642-4.535,9.275-11.313,9.702
		C772.895,450.067,770.732,449.953,767.393,449.953z M756.191,426.01c-3.316,0-6.633-0.023-9.949,0.005
		c-6.185,0.053-7.585,1.496-7.482,7.656c0.011,0.662,0.035,1.328,0.112,1.985c0.389,3.32,1.746,5.045,4.942,5.117
		c7.955,0.179,15.925,0.277,23.872-0.036c4.888-0.193,6.616-2.796,6.407-8.133c-0.171-4.359-2.245-6.403-6.959-6.566
		C763.49,425.912,759.839,426.013,756.191,426.01z"/>
	<path style="fill:#6C776E;" d="M1157.725,459.067c2.739-2.674,2.742-5.329,1.336-8.1c-1.324-2.611-3.75-2.975-6.368-2.968
		c-9.494,0.027-18.991-0.147-28.48,0.057c-8.68,0.186-13.372-4.348-14.077-13.256c-0.267-3.375,0.162-6.687,1.054-9.87
		c1.194-4.259,3.765-7.286,8.515-8.058c2.143-0.349,4.262-0.838,6.421-0.605c10.958,1.182,21.947,0.31,32.918,0.588
		c1.498,0.038,3.013-0.017,4.488,0.196c3.93,0.569,7.214,4.456,7.207,8.377c-0.007,4.082-4.625,7.19-8.179,4.965
		c-9.185-5.75-19.093-4.687-29.023-3.779c-2.96,0.271-5.988-0.335-8.744,0.524c-1.83,1.641-1.973,3.6-1.843,5.637
		c0.141,2.214,1.141,3.785,3.378,4.377c0.96,0.254,1.939,0.669,2.902,0.648c8.807-0.188,17.638,0.676,26.42-0.462
		c3.224-0.417,6.367,0.16,9.353,0.994c2.729,0.762,5.015,2.679,5.954,5.616c2.126,6.65,2.223,13.349-0.033,19.966
		c-1.682,4.936-5.816,6.843-10.542,6.913c-12.151,0.18-24.307,0.052-36.46-0.078c-2.638-0.028-5.287-0.476-7.903-0.905
		c-4.474-0.734-7.168-3.956-7.06-8.236c0.129-5.086,3.506-7.509,8.369-5.944c1.257,0.404,2.509,0.901,3.662,1.539
		c5.57,3.081,11.446,3.854,17.753,3.131C1144.998,459.618,1151.319,459.471,1157.725,459.067z"/>
	<path style="fill:#6C776E;" d="M954.042,451.115c0-9.447,0.041-18.258-0.014-27.068c-0.039-6.164,4.038-9.102,9.848-6.922
		c2.392,0.898,2.986,3.031,2.999,5.27c0.054,9.318,0.019,18.637,0.019,27.956c0,4.658,0.002,9.316,0.009,13.974
		c0.008,5.152-3.704,7.848-8.635,6.197c-2.07-0.693-3.806-1.993-5.509-3.345c-13.144-10.441-26.305-20.861-39.471-31.275
		c-0.237-0.188-0.598-0.219-1.278-0.452c0,7.217,0.001,14.308-0.001,21.399c-0.001,2.664,0.094,5.332-0.035,7.99
		c-0.206,4.273-2.443,6.208-6.778,6.065c-3.665-0.121-5.418-1.451-5.255-5.096c0.461-10.285-1.63-20.529-0.196-30.843
		c0.471-3.388,0.223-6.92-0.4-10.418c-1.084-6.093,3.075-9.399,9.072-7.555c2.943,0.905,5.21,2.867,7.559,4.705
		c11.518,9.014,23.026,18.04,34.55,27.046C951.428,449.444,952.423,450.027,954.042,451.115z"/>
	<path style="fill:#707A72;" d="M1066.057,471.16c-5.703-0.007-11.405-0.013-17.108-0.02c-4.629-0.435-9.272-0.76-13.884-1.331
		c-5.923-0.733-8.749-3.465-8.879-9.42c-0.241-10.989-0.261-21.992,0.013-32.979c0.161-6.449,3.247-9.403,9.758-10.584
		c6.774-1.229,13.644-0.844,20.402-0.435c6.821,0.413,13.633,0.62,20.424,0.381c9.189-0.324,11.51,5.466,12.083,11.966
		c0.325,3.681-0.825,5.111-4.315,6.261c-4.558,1.502-7.472,0.927-9.356-2.009c-0.706-1.099-1.114-2.389-1.72-3.73
		c-1.788-1.467-4.125-1.964-6.391-2.154c-7.093-0.594-14.178-1.682-21.332-0.263c-3.79,0.752-4.152,0.938-4.904,4.949
		c-1.46,7.787-0.931,15.545,0.141,23.308c0.309,2.236,1.449,3.517,3.768,3.982c8.662,1.738,17.19,0.8,25.688-1.061
		c1.936-0.424,3.222-1.533,3.839-3.492c0.293-0.929,0.893-1.776,1.432-2.609c0.45-0.696,1.014-1.318,1.135-1.472
		c1.007-0.299,1.32-0.459,1.64-0.476c3.694-0.204,7.686-0.634,9.54,3.517c1.956,4.378,0.981,8.815-1.185,12.909
		c-0.769,1.452-2.215,2.303-4.016,2.662C1077.284,470.166,1071.703,470.898,1066.057,471.16z"/>
	<path style="fill:#6E796F;" d="M605.062,471.188c-5.036-0.023-10.071-0.045-15.107-0.068c-5.008,0.119-9.926-0.844-14.882-1.314
		c-5.044-0.478-7.958-3.48-8.024-8.509c-0.156-11.818-0.157-23.64-0.002-35.458c0.064-4.882,3.4-8.041,8.449-8.922
		c6.777-1.182,13.677-1.171,20.387-0.478c7.331,0.756,14.603,0.085,21.894,0.493c8.032,0.45,12.963,6.589,11.222,14.441
		c-0.232,1.045-0.731,1.852-1.491,2.513c-3.97,3.452-10.297,2.164-12.532-2.534c-0.282-0.592-0.556-1.187-1.077-2.3
		c-10.094-2.501-20.451-4.019-30.987-2.274c-2.211,3.346-2.428,6.927-2.687,10.299c-0.42,5.462-0.168,10.976-0.203,16.468
		c-0.018,2.746,1.451,4.445,3.997,4.975c9.365,1.952,18.74,2.471,28.058-0.329c0.463-0.139,0.872-0.461,1.491-0.798
		c0.489-1.071,0.981-2.301,1.595-3.466c2.096-3.977,4.254-4.966,8.468-3.955c4.102,0.984,5.555,2.938,5.471,7.577
		c-0.03,1.654-0.105,3.347-0.481,4.946c-1.152,4.902-3.6,6.947-8.681,7.415C614.984,470.368,610.022,470.765,605.062,471.188z"/>
	<path style="fill:#707A72;" d="M357.736,427.833c-0.93,1.518-0.907,2.712-0.909,3.858c-0.008,4.612,1.743,5.962,6.454,5.905
		c5.434-0.066,10.872,0.29,16.111,0.457c2.975,2.725,2.412,5.419,0.553,8.778c-4.335,0.226-8.901,0.501-13.47,0.677
		c-1.143,0.044-2.303-0.376-3.446-0.329c-4.478,0.184-6.198,1.874-6.254,5.976c-0.058,4.259,1.897,6.581,6.255,6.654
		c9.153,0.153,18.31,0.042,27.466,0.052c1.83,0.002,3.669-0.039,5.489,0.119c3.897,0.339,5.206,1.867,5.159,5.79
		c-0.046,3.79-1.19,5.096-5.086,5.115c-12.484,0.061-24.969,0.056-37.453-0.056c-2.465-0.022-4.96-0.468-7.378-1.002
		c-4.765-1.053-7.356-4.28-8.252-9.431c-0.889-5.112-1.032-10.25-0.862-15.398c0.22-6.63-0.71-13.298,0.716-19.892
		c1.295-5.989,3.279-7.59,9.422-8.175c13.446-1.281,26.918-0.421,40.375-0.699c1.345-0.028,2.626,0.185,3.927,0.539
		c3.353,0.91,4.398,2.103,4.205,5.064c-0.185,2.838-1.631,4.251-4.976,4.279c-9.987,0.085-19.975,0.044-29.963,0.027
		C362.995,426.134,360.169,426.041,357.736,427.833z"/>
	<path style="fill:#6E796F;" d="M546.151,417.006c1.553,1.094,2.001,1.99,2.264,2.963c0.954,3.524-0.647,5.9-4.337,6.092
		c-3.489,0.182-6.993,0.079-10.491,0.083c-6.996,0.008-13.993,0.043-20.988-0.021c-2.379-0.022-4.612,0.344-6.659,1.43
		c-2.412,4.382-2.412,4.382-0.005,8.866c4.118,1.466,8.412,2.231,12.96,0.982c1.412-0.388,2.977-0.304,4.471-0.288
		c4.302,0.044,5.623,1.275,5.642,5.115c0.019,3.825-1.435,5.43-5.327,5.648c-1.986,0.112-3.954-0.027-5.938-0.51
		c-3.286-0.799-6.598-0.655-9.808,0.58c-2.907,1.119-3.835,2.502-3.787,5.691c0.051,3.337,1.244,4.838,4.319,5.819
		c1.649,0.526,3.296,0.375,4.948,0.385c9.993,0.064,19.988,0.007,29.979,0.18c4.672,0.081,6.184,2.103,5.601,6.722
		c-0.319,2.524-1.545,3.811-4.177,4.096c-1.483,0.161-2.995,0.059-4.494,0.06c-10.328,0.003-20.655-0.004-30.983,0.005
		c-2.999,0.003-5.957-0.187-8.911-0.835c-6.128-1.344-8.834-3.709-9.227-9.998c-0.707-11.303-0.705-22.65,0-33.955
		c0.354-5.678,3.654-8.612,9.431-9.073C515.892,415.828,531.156,415.82,546.151,417.006z"/>
	<path style="fill:#6C776E;" d="M130.618,449.776c-4.494,0-8.99-0.106-13.48,0.026c-6.069,0.178-8.333,2.576-8.367,8.647
		c-0.01,1.828,0.199,3.657,0.223,5.486c0.067,5.026-1.608,6.744-6.235,7.002c-4.347,0.243-6.973-2.131-6.885-6.455
		c0.182-8.985,0.01-17.977,0.107-26.964c0.039-3.64-0.237-7.291,0.67-10.916c1.594-6.368,3.999-9.062,10.421-9.438
		c7.75-0.453,15.504-1.782,23.328-0.405c2.232,0.393,4.606,0.166,6.942-0.248c3.608-0.639,7.22-0.466,10.868,0.336
		c4.616,1.015,7.326,3.903,8.516,8.143c1.503,5.359,1.485,10.846-0.111,16.225c-1.58,5.322-5.992,8.567-12.015,8.752
		c-4.656,0.143-9.321,0.029-13.981,0.029C130.617,449.922,130.617,449.849,130.618,449.776z M126.074,440.099
		c3.83,0,7.662,0.068,11.49-0.018c4.632-0.104,6.587-2.148,6.683-6.77c0.096-4.621-1.807-7.124-6.247-7.24
		c-7.988-0.209-15.988-0.163-23.978-0.008c-3.256,0.063-4.784,1.804-5.086,4.984c-0.094,0.989-0.052,1.999,0.007,2.995
		c0.265,4.46,1.706,5.93,6.14,6.038C118.745,440.17,122.41,440.099,126.074,440.099z"/>
	<path style="fill:#707A72;" d="M707.473,418.124c0.973,2.086,0.796,4.197,0.301,6.489c-1.884,1.774-3.955,2.598-6.706,1.755
		c-2.558-0.783-5.27-0.69-7.931-0.525c-4.767,0.297-7.816,2.521-9.105,7.115c-1.92,6.844-1.467,13.861-0.594,20.783
		c0.418,3.315,0.798,6.6,0.63,9.915c-0.18,3.551-1.961,5.616-5.367,6.15c-1.782,0.28-3.685,0.264-5.466-0.028
		c-2.938-0.481-4.653-2.396-5.004-5.427c-0.17-1.465-0.106-3.019,0.191-4.463c0.902-4.391,1.47-8.68,0.668-13.246
		c-0.592-3.371,0.094-6.958,0.138-10.45c0.093-7.392-2.789-10.363-10.216-10.202c-3.297,0.072-6.577,0.743-9.876,0.992
		c-2.273,0.171-4.221-0.374-5.218-2.853c-1.854-4.609,0.279-8.025,5.251-8.021c17.435,0.014,34.869,0.088,52.304,0.119
		C703.685,416.231,705.767,416.519,707.473,418.124z"/>
	<path style="fill:#6E796F;" d="M207.904,445.812c-0.55,3.844,0.724,8.394,1.101,13.017c0.149,1.819,0.086,3.656,0.104,5.484
		c0.015,1.591-0.622,2.888-1.784,3.965c-2.096,1.943-6.76,2.313-9.891,0.893c-2.945-1.335-3.403-3.849-3.313-6.62
		c0.037-1.148,0.341-2.288,0.528-3.431c0.665-4.068,1.487-8.137-0.012-12.202c-0.601-1.631-0.308-3.223-0.042-4.893
		c0.391-2.451,0.633-4.96,0.587-7.437c-0.096-5.214-2.654-7.973-7.827-8.533c-2.472-0.268-4.97-0.234-7.443,0.315
		c-1.45,0.322-2.944,0.561-4.425,0.61c-4.522,0.148-6.466-1.607-6.395-5.612c0.065-3.704,2.075-5.716,6.24-5.162
		c3.833,0.509,7.571,0.028,11.349,0.031c12.481,0.008,24.962,0.018,37.442-0.012c2.006-0.005,3.964,0.157,5.924,0.603
		c3.615,0.822,4.597,2.237,3.973,5.981c-0.477,2.864-2.529,4.079-5.905,3.651c-3.575-0.453-7.047-1.365-10.791-0.786
		c-4.823,0.747-7.234,3.497-8.437,7.899C207.862,437.321,207.94,441.138,207.904,445.812z"/>
	<path style="fill:#737D75;" d="M452.388,470.902c-5.329,0-10.659,0-15.988,0c-0.5,0-1.003,0.034-1.499-0.009
		c-10.412-0.916-14.579-2.814-14.823-14.901c-0.225-11.155-0.122-22.318-0.06-33.477c0.025-4.433,2.558-6.561,7.063-6.269
		c5.239,0.34,7.474,2.417,6.771,6.984c-0.557,3.621-0.557,7.318-1.27,10.854c-0.83,4.117-0.02,8.019,0.902,11.765
		c2.452,9.964,8.636,13.953,18.119,15.057c4.912,0.572,9.964,0.646,14.89-0.626c1.114-0.288,2.313-0.287,3.476-0.334
		c4.197-0.17,5.947,1.363,6.119,5.305c0.174,3.992-1.342,5.637-5.712,5.72c-5.994,0.114-11.992,0.028-17.988,0.028
		C452.388,470.967,452.388,470.935,452.388,470.902z"/>
	<path style="fill:#737D75;" d="M1004.115,443.77c0,6.973,0.044,13.946-0.015,20.919c-0.041,4.856-1.63,6.273-6.775,6.305
		c-4.928,0.03-7.157-1.716-7.183-6.118c-0.084-14.111-0.095-28.224,0.007-42.335c0.032-4.374,2.631-6.461,7.158-6.284
		c4.75,0.186,6.753,2.061,6.792,6.594C1004.159,429.824,1004.115,436.798,1004.115,443.77z"/>
	<path style="fill:#F2A578;" d="M1389.889,185.81c0.025-0.906-0.176-1.757-1.266-1.729c-4.481,0.116-8.803-1.197-13.321-1.138
		c-15.472,0.202-30.947,0.081-46.421,0.068c-2.938-0.003-5.924,0.084-8.113-2.439c6.604-1.116,13.27-0.539,19.901-0.594
		c13.159-0.109,26.337-0.262,39.478,0.282c12.152,0.503,24.329,1.049,36.419,2.623c1.972,0.257,3.993,0.168,5.991,0.195
		c1.668,0.022,3.312,0.072,4.748,1.424C1414.825,186.774,1402.346,186.006,1389.889,185.81z"/>
	<path style="fill:#EF8A51;" d="M1144.981,111.962c0.081-2.215-1.25-2.971-3.195-3.091c8.802-8.05,17.604-16.101,26.754-24.469
		C1167.998,90.808,1159.62,100.401,1144.981,111.962z"/>
</g>
</svg>
