<?xml version="1.0" encoding="iso-8859-1"?>
<!-- Generator: Adobe Illustrator 27.0.0, SVG Export Plug-In . SVG Version: 6.00 Build 0)  -->
<svg version="1.1" id="Layer_1" xmlns="http://www.w3.org/2000/svg" xmlns:xlink="http://www.w3.org/1999/xlink" x="0px" y="0px"
	 viewBox="0 0 1503.645 257" style="enable-background:new 0 0 1503.645 257;" xml:space="preserve">
<g>
	<path style="fill:#2B3037;" d="M1117.555,0c0,51.772,0,103.545,0,155.732c-8.808,0-17.103,0.01-25.398-0.013
		c-0.965-0.003-2.009,0.278-2.928-0.507c-0.823-0.962-0.455-2.181-0.455-3.299c0.01-50.165,0.045-100.33,0.062-150.495
		c0-0.472-0.184-0.945-0.282-1.417C1098.222,0,1107.889,0,1117.555,0z"/>
	<path style="fill:#706E74;" d="M717.601,1.025c-0.015-0.342-0.031-0.684-0.046-1.025c9.667,0,19.333,0,29,0
		c-0.142,0.386-0.284,0.772-0.426,1.159C736.62,1.114,727.111,1.07,717.601,1.025z"/>
	<path style="fill:#BBB9BC;" d="M172.555,257c0.033-0.289,0.015-0.575-0.056-0.857c5.035-0.005,10.071-0.011,15.106-0.016
		c-0.087,0.287-0.104,0.578-0.051,0.874C182.555,257,177.555,257,172.555,257z"/>
	<path style="fill:#41BFB6;" d="M284.558,156.82c-10.513,0-20.425,0-30.097,0c-0.893-0.952-0.706-1.822-0.707-2.626
		c-0.014-11.329-0.309-22.667,0.073-33.983c0.387-11.456-0.496-22.886-0.162-34.328c0.084-2.874-0.676-5.547-1.678-8.215
		c-1.894-5.039-5.71-7.843-10.763-8.536c-13.633-1.868-24.09,5.617-24.634,19.996c-0.635,16.803-0.188,33.646-0.206,50.472
		c-0.006,5.629-0.001,11.259-0.001,17.182c-10.316,0-20.231,0-30.489,0c0-36.002,0-72.065,0-108.497c9.256,0,18.633,0,28.495,0
		c0,4.334,0,8.71,0,14.048c9.069-11.316,19.689-17.436,33.503-17.439c13.757-0.003,24.997,4.484,31.868,17.109
		c2.616-2.558,4.961-4.915,7.374-7.199c9.135-8.646,20.208-10.929,32.285-9.591c3.271,0.362,6.538,1.048,9.717,1.915
		c12.251,3.342,19.257,11.747,22.334,23.733c0.866,3.374,1.183,6.839,1.176,10.356c-0.052,23.99-0.022,47.98-0.044,71.969
		c-0.001,1.125,0.321,2.323-0.564,3.633c-9.575,0-19.295,0-29.482,0c0-1.986,0.001-3.78,0-5.574
		c-0.014-20.658-0.06-41.316-0.015-61.974c0.008-3.888-0.807-7.588-2.116-11.163c-1.506-4.112-4.325-6.981-8.726-8.161
		c-13.52-3.623-22.985,1.624-26.162,14.649c-0.755,3.095-0.999,6.2-0.994,9.37c0.032,19.158,0.016,38.317,0.017,57.476
		C284.558,153.092,284.558,154.74,284.558,156.82z"/>
	<path style="fill:#292E36;" d="M1264.557,160.951c8.732-2.267,17.061-4.428,25.429-6.601c0.881,0.553,1.192,1.497,1.438,2.471
		c2.607,10.36,11.246,15.999,22.051,17.134c3.822,0.401,7.648-0.065,11.382-1.037c9.937-2.586,16.333-10.335,17.58-21.737
		c0.394-3.606,0.062-7.291,0.062-10.969c-0.658-0.487-1.151-0.009-1.615,0.425c-11.444,10.703-24.932,12.215-39.516,8.793
		c-22.634-5.312-36.018-25.351-36.793-47.014c-0.521-14.573,3.602-27.543,13.261-38.601c8.415-9.634,19.284-14.51,31.802-15.675
		c6.981-0.65,13.899,0.069,20.56,2.77c5.201,2.109,9.376,5.443,13.367,10.211c0-3.99,0-7.261,0-10.826c9.297,0,18.338,0,27.307,0
		c0.863,1.197,0.481,2.401,0.482,3.518c0.024,30.652,0.042,61.303,0.002,91.955c-0.01,7.708-1.268,15.272-4.12,22.427
		c-7.278,18.258-21.442,27.641-40.355,30.697c-9.846,1.591-19.575,1.007-29.073-1.976c-16.9-5.308-28.396-16.046-32.957-33.533
		C1264.688,162.765,1264.69,162.103,1264.557,160.951z M1318.933,126.066c10.084-0.348,19.4-5.653,22.765-16.799
		c1.674-5.546,2.135-11.088,0.773-16.713c-3.513-14.506-17.912-23.17-32.864-17.484c-9.935,3.778-14.705,11.733-15.708,21.812
		C1292.243,113.529,1302.365,125.749,1318.933,126.066z"/>
	<path style="fill:#41BFB6;" d="M70.22,48.099c9.993,0,19.447,0,29.556,0c6.048,24.061,12.111,48.176,18.173,72.292
		c0.21,0.066,0.42,0.132,0.631,0.197c6.596-24.099,13.193-48.198,19.829-72.441c10.366,0,20.469,0,31.232,0
		c-11.489,36.398-22.892,72.523-34.325,108.744c-10.552,0-20.822,0-31.398,0c-6.277-23.643-12.533-47.203-18.788-70.762
		c-0.328-0.033-0.656-0.065-0.984-0.098c-6.19,23.452-12.079,46.984-18.074,70.763c-10.466,0-20.882,0-31.748,0
		C22.942,120.803,11.548,84.769,0,48.248c11.035,0,21.43,0,32.016,0c6.56,24.161,13.112,48.292,19.664,72.423
		c0.227-0.022,0.454-0.044,0.68-0.066C58.277,96.584,64.194,72.563,70.22,48.099z"/>
	<path style="fill:#292E35;" d="M717.601,1.025c9.509,0.044,19.019,0.089,28.528,0.133c0.076,10.652,0.173,21.305,0.222,31.957
		c0.035,7.816,0.007,15.633,0.007,23.732c1.997-0.239,2.923-1.747,4.18-2.587c13.756-9.199,34.849-9.777,48.384,0.275
		c7.677,5.701,11.364,13.632,13.574,22.526c0.887,3.568,1.135,7.21,1.131,10.883c-0.022,21.489-0.014,42.977-0.034,64.466
		c-0.001,0.963,0.259,1.997-0.625,3.087c-9.087,0-18.347,0-27.628,0c-1.271-1.486-0.664-3.224-0.668-4.805
		c-0.045-18.823-0.05-37.647,0-56.47c0.009-3.365-0.388-6.615-1.539-9.779c-2.943-8.085-9.5-10.88-17.27-11.038
		c-8.719-0.177-14.605,4.621-17.48,11.031c-1.607,3.582-2.062,7.308-2.055,11.173c0.032,18.157,0.031,36.314,0.009,54.471
		c-0.002,1.64,0.318,3.32-0.46,5.282c-9.26,0-18.643,0-27.982,0c-0.92-1.288-0.549-2.66-0.549-3.947
		c-0.014-49.141-0.005-98.282,0.014-147.423C717.358,3.004,717.517,2.015,717.601,1.025z"/>
	<path style="fill:#292E36;" d="M552.606,117.837c8.244,2.497,15.979,4.839,24.126,7.306c-3.003,9.629-8.036,17.513-15.708,23.368
		c-11.822,9.021-25.327,11.87-40.011,9.833c-8.016-1.112-15.491-3.516-22.371-7.816c-13.387-8.367-20.859-20.747-23.857-35.889
		c-2.875-14.518-0.983-28.593,6.537-41.429c9.784-16.702,24.312-25.922,44.041-26.236c6.711-0.107,13.205,0.811,19.627,2.81
		c15.984,4.977,25.647,15.995,30.44,31.618c2.677,8.725,3.174,18.787,1.855,29.326c-12.316,0-24.731,0-37.147,0
		c-12.445,0-24.89,0-37.333,0c0.095,10.253,7.773,19.406,17.988,22.304c6.561,1.862,12.853,1.003,19.043-1.286
		C546.216,129.385,549.67,124.106,552.606,117.837z M503.169,90.47c15.389,0,30.764,0,46.151,0
		c-0.583-12.458-9.242-19.74-22.399-20.196C514.484,69.843,504.634,78.41,503.169,90.47z"/>
	<path style="fill:#292E35;" d="M1067.601,102.893c-0.328,19.672-7.507,35.934-24.275,47.041
		c-31.254,20.703-80.304,5.289-85.901-38.631c-2.072-16.254,1.114-31.078,11.228-44.084c7.708-9.913,17.882-16.295,30.162-18.908
		c13.739-2.924,27.189-1.636,39.777,4.774c15.357,7.82,24.228,20.725,27.905,37.384
		C1067.399,94.553,1067.726,98.69,1067.601,102.893z M1012.398,132.246c12.854,0.199,21.337-8.43,24.459-18.242
		c2.511-7.892,2.428-15.666-0.268-23.433c-3.577-10.304-12.714-17.039-23.66-17.534c-10.161-0.46-20.255,5.94-24.421,15.739
		c-3.959,9.311-3.735,18.71-0.052,28.085C991.729,125.188,1001.182,133.045,1012.398,132.246z"/>
	<path style="fill:#292E35;" d="M1249.61,102.652c-0.184,16.11-5.055,30.362-16.959,41.675c-8.196,7.788-18.15,11.934-29.241,13.811
		c-12.239,2.072-23.845,0.247-34.864-5.18c-16.049-7.905-25.362-21.147-28.758-38.431c-2.816-14.329-0.763-28.17,6.629-40.911
		c9.369-16.148,23.735-24.631,42.123-26.452c6.481-0.642,12.952-0.049,19.357,1.233c21.644,4.334,37.417,22.834,40.718,42.825
		C1249.242,95.028,1249.566,98.8,1249.61,102.652z M1220.756,101.443c0.26-1.878-0.462-5.145-1.301-8.356
		c-2.974-11.38-11.104-18.45-22.832-19.93c-8.041-1.015-19.781,2.944-24.885,13.233c-5.581,11.25-5.714,22.683,0.646,33.831
		c8.618,15.106,27.958,14.557,37.313,7.228C1217.644,121.222,1220.576,112.708,1220.756,101.443z"/>
	<path style="fill:#292E36;" d="M868.871,155.475c-9.18,0-18.436,0-28.068,0c0-35.013,0-70.017,0-105.251c9.065,0,18.127,0,27.524,0
		c0,3.638,0,7.078,0,10.513c1.564,0.04,1.919-1.052,2.536-1.756c12.683-14.466,40.619-16.947,55.787-0.307
		c6.572,7.21,9.505,16.033,9.774,25.521c0.425,14.976,0.228,29.971,0.272,44.957c0.025,8.649,0.005,17.298,0.005,26.259
		c-9.654,0-19.043,0-28.453,0c-0.937-1.465-0.522-3-0.525-4.442c-0.032-17.985-0.01-35.971-0.033-53.956
		c-0.003-2.494,0.1-5.034-0.31-7.475c-2.088-12.428-12.544-18.78-24.798-15.2c-7.416,2.167-12.829,9.277-13.09,17.585
		c-0.188,5.989-0.061,11.989-0.062,17.984c-0.004,13.489,0.017,26.978-0.023,40.467C869.401,151.991,869.83,153.68,868.871,155.475z
		"/>
	<path style="fill:#292E35;" d="M187.606,256.126c-5.035,0.005-10.071,0.011-15.106,0.016
		c-41.401-1.117-81.49-20.433-106.749-41.158c4.606-6.256,9.224-12.527,14.018-19.039c7.62,4.423,15.223,8.373,23.206,11.568
		c15.843,6.34,32.305,9.834,49.242,11.685c8.805,0.962,17.621,0.958,26.422,1.439c9.146,0.5,18.304-0.72,27.384-1.828
		c16.192-1.976,32.044-5.492,47.217-11.715c7.53-3.088,14.743-6.767,21.902-11.248c4.728,6.428,9.339,12.696,14.27,19.401
		C259.028,238.532,225.644,253.059,187.606,256.126z"/>
	<path style="fill:#292E35;" d="M1386.889,50.223c10.988,0,21.414,0,32.422,0c8.997,19.684,18.135,39.676,27.745,60.701
		c8.772-20.835,17.182-40.808,25.577-60.745c10.415,0,20.534,0,31.012,0c-22.102,49.076-44.075,97.866-66.075,146.713
		c-10.157,0.159-20.102,0.628-30.817,0.165c8.382-18.552,16.544-36.615,24.781-54.846
		C1416.741,111.731,1401.913,81.179,1386.889,50.223z"/>
	<path style="fill:#292E36;" d="M697.597,82.781c-8.617,2.845-17.06,5.632-25.306,8.355c-1.815-1.297-1.916-3.108-2.663-4.545
		c-3.987-7.661-9.959-12.267-18.827-12.736c-9.83-0.52-18.204,2.396-23.662,10.898c-6.021,9.378-6.996,19.663-3.248,30.12
		c5.95,16.599,26.197,22.632,40.248,12.249c2.901-2.144,4.804-5.013,6.553-8.041c0.737-1.276,1.345-2.625,2.2-4.312
		c8.372,2.724,16.63,5.411,25.225,8.207c-2.884,10.092-8.11,18.164-15.92,24.485c-13.637,11.037-29.188,13.635-46.032,9.967
		c-11.538-2.512-21.369-7.996-29.36-16.804c-6.673-7.355-10.67-15.989-12.654-25.587c-2.973-14.384-1.069-28.164,6.155-40.978
		c12.269-21.763,33.909-29.996,56.746-26.648C677.524,50.412,691.43,62.102,697.597,82.781z"/>
	<path style="fill:#292E36;" d="M459.452,131.141c0,7.946,0,15.574,0,23.164c-11.22,5.305-33.547,3.482-42.427-7.876
		c-5.1-6.523-7.095-13.822-7.137-21.816c-0.084-15.997-0.025-31.995-0.025-48.49c-6.2,0-12.287,0-18.692,0
		c0-8.886,0-17.278,0-25.771c2.041-0.695,4.041-0.179,5.993-0.284c8.326-0.448,12.744-4.248,14.605-12.315
		c0.878-3.807,0.724-7.601,0.667-11.426c-0.037-2.485-0.377-4.985,0.309-7.75c8.371,0,16.782,0,25.574,0c0,10.242,0,20.496,0,31.159
		c7.098,0,13.844,0,20.922,0c0,8.796,0,17.19,0,26.019c-6.661,0-13.405,0-19.827,0c-1.29,1.588-0.824,2.973-0.828,4.244
		c-0.041,12.666-0.026,25.332-0.027,37.998c0,0.667-0.035,1.336,0.008,2c0.513,7.988,3.409,10.991,11.002,11.134
		C452.709,131.19,455.852,131.141,459.452,131.141z"/>
</g>
</svg>
