<?xml version="1.0" encoding="iso-8859-1"?>
<!-- Generator: Adobe Illustrator 27.0.0, SVG Export Plug-In . SVG Version: 6.00 Build 0)  -->
<svg version="1.1" id="Layer_1" xmlns="http://www.w3.org/2000/svg" xmlns:xlink="http://www.w3.org/1999/xlink" x="0px" y="0px"
	 viewBox="0 0 1486 260" style="enable-background:new 0 0 1486 260;" xml:space="preserve">
<g>
	<path style="fill:#D12631;" d="M827.837,245.03c-1.273-4.039-0.921-8.22-0.962-12.344c-0.152-15.487,0.726-30.984-0.077-46.462
		c-0.663-12.789-0.126-25.635-1.784-38.374c-0.753-5.791-2.122-11.401-4.849-16.633c-3.721-7.138-9.646-11.527-17.402-12.913
		c-8.273-1.477-16.653-1.286-24.603,1.879c-12.81,5.1-19.608,14.893-21.209,28.399c-1.139,9.604-0.881,19.277-1.1,28.925
		c-0.487,21.484-0.049,42.965,0.132,64.448c0.091,10.781-3.114,13.832-14.028,13.913c-5.997,0.044-11.971-0.248-17.937-0.827
		c-8.057-0.783-11.234-3.883-11.876-11.962c-0.276-3.481-0.286-6.99-0.287-10.486c-0.015-65.482,0.002-130.964-0.032-196.447
		c-0.003-6.652-0.313-13.304-0.431-19.956c-0.026-1.49,0.237-2.983,0.233-4.475C711.612,6.238,713.885,2.233,719,0c8,0,16,0,24,0
		c0.748,1.654,2.336,0.829,3.515,1.127c4.886,1.232,7.817,4.178,8.453,9.234c0.497,3.958,0.912,7.916,0.906,11.923
		c-0.038,25.299-0.027,50.598-0.002,75.896c0.002,1.784-0.324,3.606,0.41,5.709c1.873-2.102,3.584-4.074,5.35-5.996
		c15.439-16.809,34.538-22.722,56.865-19.188c5.1,0.807,10.143,1.822,14.986,3.58c17.106,6.209,27.345,18.719,32.47,35.81
		c0.709,2.364,1.63,4.725,1.233,7.291c-1.815,4.352-4.623,8.498-2.256,13.609c0.445,0.961,0.096,2.305,0.066,3.471
		c-0.387,15.1,0.599,30.205-0.833,45.32c-0.649,6.846,0.018,13.842,0.603,20.809c0.889,10.592,0.346,21.316,0.183,31.98
		c-0.076,4.953-4.62,9.227-9.64,9.395c-4.162,0.14-8.337,0.155-12.498,0.001c-7.419-0.275-10.782-3.805-10.799-11.191
		c-0.017-7.282,0.561-14.549,0.823-21.811c0.634-17.592,0.197-35.211-0.845-52.798c-0.07-1.187,0.394-2.48-0.696-3.908
		c-1.339,10.14-2.455,19.913-2.345,29.834c0.186,16.831,0.078,33.666,0.005,50.499C828.946,242.083,829.938,244.001,827.837,245.03z
		"/>
	<path style="fill:#D12732;" d="M970,260c-1.948-1.873-4.6-1.405-6.911-1.96c-16.201-3.895-31.476-9.846-44.199-20.891
		c-16.351-14.195-25.988-32.304-28.977-53.686c-3.666-26.218,2.164-50.301,18.189-71.507c11.564-15.303,27.591-24.248,45.602-29.827
		c11.334-3.511,22.957-5.474,34.897-4.75c18.225,1.105,34.331,7.334,47.723,19.979c11.034,10.418,18.141,23.229,22.581,37.601
		c1.223,3.958,2.096,8.025,3.151,12.126c-3.846,4.602-3.576,9.926-2.72,15.254c0.4,2.492,0.615,4.963,0.498,7.455
		c-0.286,6.079-2.794,9.092-8.714,10.479c-5.098,1.194-10.292,0.593-15.431,0.519c-15.977-0.23-31.963-1.202-47.926-0.521
		c-12.987,0.554-25.971-0.132-38.943,0.57c-2.163,0.117-4.298-0.301-6.447-0.569c-3.782-0.471-7.352,0.011-9.891,4.192
		c1.82,13.725,8.185,25.105,20.212,32.911c18.874,12.25,44.821,9.814,62.055-5.547c1.86-1.658,3.755-3.307,5.802-4.715
		c3.916-2.692,8.141-3.023,12.185-0.44c6.898,4.405,13.239,9.563,18.782,15.588c3.356,3.647,3.114,6.475-0.254,10.062
		c-0.91,0.969-1.856,1.932-2.91,2.734c-14.703,11.191-30.509,20.081-48.917,23.668c-1.801,0.351-4.013-0.711-5.437,1.276
		C986,260,978,260,970,260z M936.078,155.833c0.919,0.079,1.409,0.159,1.898,0.158c24.783-0.044,49.565-0.096,74.348-0.146
		c0.499-0.001,1.002,0.04,1.496-0.01c3.794-0.378,6.265-3.328,5.946-7.132c-0.208-2.479-0.395-4.964-0.732-7.426
		c-1.018-7.427-3.461-14.293-9.309-19.291c-13.061-11.164-28.173-14.233-44.709-10.364c-14.814,3.466-23.765,13.795-30.258,26.771
		c-1.88,3.758-2.149,7.687-0.428,11.539C935.155,151.781,935.439,153.733,936.078,155.833z"/>
	<path style="fill:#D12731;" d="M1407,260c-3.598-1.895-7.626-1.379-11.447-1.953c-16.059-2.415-30.947-7.551-43.625-18.069
		c-1.022-0.848-2.085-1.684-2.948-2.682c-3.27-3.782-3.158-7.318,0.807-10.313c3.765-2.844,6.861-6.285,10.09-9.641
		c1.612-1.675,3.302-3.32,5.159-4.707c4.944-3.694,10.176-3.806,15.357-0.553c2.099,1.318,4.085,2.906,5.854,4.645
		c11.162,10.969,24.246,12.911,38.75,8.476c3.999-1.223,7.792-2.894,11.192-5.348c8.895-6.421,9.084-18.302,0.392-25.116
		c-5.07-3.975-11.041-6.025-17.12-7.808c-8.621-2.529-17.538-3.765-26.233-5.968c-8.109-2.054-15.783-5.12-22.816-9.719
		c-20.565-13.448-27.013-35.543-17.054-57.963c8.52-19.179,23.857-29.305,43.844-33.124c12.65-2.417,25.424-3.111,38.244-1.167
		c15.015,2.277,28.438,7.995,39.491,18.6c5.305,5.089,4.914,9.258-1.115,13.477c-3.576,2.503-6.722,5.395-9.698,8.572
		c-8.265,8.823-13.69,8.993-22.363,0.706c-8.987-8.588-19.576-9.878-31.082-7.039c-3.215,0.794-6.302,1.998-9.294,3.518
		c-9.422,4.785-12.196,19.322-0.344,25.753c8.164,4.43,16.977,6.656,25.954,8.415c10.457,2.049,20.751,4.587,30.502,9.009
		c14.629,6.633,25.004,16.808,27.87,33.289c0.046,0.266,0.413,0.477,0.63,0.713c0,7.667,0,15.333,0,23
		c-1.49,0.331-1.411,1.756-1.741,2.753c-3.298,9.958-9.285,17.917-17.577,24.265c-10.888,8.334-23.411,12.239-36.793,14.087
		c-3.636,0.502-7.473,0.069-10.888,1.896C1415,260,1411,260,1407,260z"/>
	<path style="fill:#D12731;" d="M638.952,208.01c1.094,1.449,2.209,2.883,3.28,4.349c6.213,8.508,14.643,11.635,24.899,10.163
		c3.779-0.542,7.529-1.298,11.278-2.031c5.586-1.092,7.462,0.03,8.024,5.636c0.665,6.622,0.834,13.265-0.307,19.9
		c-1.007,5.85-4.108,9.639-9.883,11.222c-3.539,0.97-7.109,1.664-10.788,1.765c-0.906,0.025-2.063-0.397-2.454,0.985
		c-2.667,0-5.333,0-8,0c-4.211-1.604-8.488-1.335-12.783-0.435c-0.099,0.021-0.146,0.285-0.217,0.435c-0.667,0-1.333,0-2,0
		c-1.929-1.9-4.582-1.265-6.871-1.843c-3.218-0.813-6.477-1.472-9.596-2.616c-15.425-5.66-23.385-17.376-26.498-32.932
		c-1.374-6.868-1.857-13.844-1.874-20.835c-0.084-34.325-0.105-68.65-0.166-102.975c-0.03-16.661-0.104-33.322-0.147-49.982
		c-0.008-2.964-0.352-5.921,0.05-8.896c0.643-4.769,2.829-7.517,7.571-7.781c8.799-0.49,17.639-0.802,26.392,0.771
		c4.553,0.819,7.344,3.44,8.403,8.058c1.24,5.405,1.137,10.914,1.263,16.361c0.188,8.141-0.277,16.297-0.465,24.446
		c0.195,1.598,1.485,2.04,2.702,2.566c5.149,2.226,10.588,3.291,16.133,3.618c6.912,0.408,13.691-1.079,20.431-2.282
		c2.124-0.379,4.202-0.508,6.309-0.689c1.584,3.508,2.355,7.266,3.026,11.002c0.932,5.197-0.564,9.546-5.457,12.241
		c-1.74,0.958-3.471,1.971-5.306,2.71c-12.579,5.069-25.185,10.072-37.783,15.096c-4.027,0.521-4.099,0.521-4.103,4.434
		c-0.023,24.049-0.002,48.097-0.03,72.146c-0.002,2.053,0.25,3.913,2.102,5.39C636.967,208.01,637.959,208.01,638.952,208.01z"/>
	<path style="fill:#D12832;" d="M573.887,86.992c3.932,11.97-0.438,22.173-12.2,25.706c-12.201,3.665-23.833,8.646-35.615,13.318
		c-0.693,0.238-0.905,0.75-1.11,1.446c-1.761,5.99-2.861,12.096-2.937,18.334c-0.105,8.633-0.055,17.269-0.008,25.903
		c0.013,2.449,0.282,4.853,0.72,7.313c0.656,3.684,0.639,7.696-0.121,11.355c-0.589,2.835-0.652,5.586-0.531,8.336
		c0.126,2.866,1.272,5.447,4.525,6.276c1.536,2.559,2.988,5.174,4.624,7.668c5.322,8.108,13.24,10.634,22.423,9.991
		c4.788-0.335,9.545-1.123,14.316-1.706c3.305,5.646,3.83,11.938,2.767,18.043c-0.868,4.984-0.954,9.657,0.401,14.44
		c-6.175,3.268-12.838,4.814-19.72,5.588c-0.897,0.101-2.041-0.373-2.421,0.995c-5.667,0-11.333,0-17,0
		c-3.447-2.154-7.583-1.538-11.268-2.801c-2.502-0.858-5.117-1.394-7.693-2.025c-14.472-3.544-22.474-13.25-26.063-27.227
		c-2.493-9.713-3.509-19.621-3.562-29.595c-0.131-24.964-0.013-49.93-0.051-74.895c-0.04-26.126-0.145-52.252-0.22-78.379
		c-0.003-1.165-0.043-2.332,0.008-3.495c0.332-7.616,2.999-10.213,10.595-9.664c7.001,0.506,13.968-0.187,20.952-0.094
		c3.036,0.04,5.938,0.457,8.678,1.873c1.411,0.729,2.658,1.424,2.268,3.318c-0.884,0.09-1.564,0.359-1.644,1.431
		c-0.409,5.529-1.405,11.06-2.367,16.428c-0.98,5.465,0.641,10.394,0.596,15.57c-0.031,3.583,1.864,7.187,2.941,10.77
		c0.23,0.765,1.039,0.688,1.659,0.842l0.095,0.16c0.152,1.477,0.849,2.443,2.382,2.779c3.512,0.77,6.869,2.091,10.591,2.049
		C551.227,86.92,562.557,86.996,573.887,86.992z"/>
	<path style="fill:#D02327;" d="M37.06,0.815c8.781,0.111,17.561,0.272,26.342,0.301c2.481,0.008,4.64,0.238,5.544,2.992
		c-1.256,1.749-3.081,0.841-4.61,0.847C47.839,5.027,31.34,5.096,14.844,4.935c-4.23-0.041-7.419,1.219-9.688,4.777
		c0,78.639,0,157.265,0,235.782c1.592,1.715,2.901,3.456,4.867,4.505c6.348,0,12.681,0.074,19.011-0.024
		c4.744-0.074,7.718-3.047,7.957-7.705c0.06-1.163,0.012-2.333,0.012-3.499C37.002,192.277,37.001,145.783,37,99.289
		c0-8.166-0.107-16.333,0.049-24.496c0.071-3.709,0.61-7.425,3.953-11.308c0,2.605,0,4.184,0,5.764
		c0,57.159-0.009,114.318,0.041,171.477c0.002,1.736-0.758,3.655,0.657,5.246c-0.278,2.278-0.555,4.556-0.863,7.075
		c-5.742,2.523-11.818,2.898-17.867,2.444c-5.114-0.384-10.226-0.675-15.317-0.389C4.416,255.284,1.93,254.576,0,252C0,168,0,84,0,0
		c1,0,2,0,3,0c0.23,1.043,1.039,1.035,1.852,1.019c2.735-0.053,5.47-0.106,8.205-0.158C21.058,0.846,29.059,0.831,37.06,0.815z"/>
	<path style="fill:#EFC3B2;" d="M37.06,0.815c-8.001,0.015-16.002,0.03-24.004,0.046C13.005,0.576,12.986,0.289,13,0c8,0,16,0,24,0
		C37.019,0.272,37.039,0.544,37.06,0.815z"/>
	<path style="fill:#E07E6B;" d="M642,260c0.071-0.151,0.119-0.415,0.217-0.435c4.294-0.899,8.572-1.168,12.783,0.435
		C650.667,260,646.333,260,642,260z"/>
	<path style="fill:#E5967E;" d="M13,0c-0.014,0.289,0.005,0.576,0.057,0.861c-2.735,0.053-5.47,0.106-8.205,0.158
		C4.039,1.035,3.23,1.043,3,0C6.333,0,9.667,0,13,0z"/>
	<path style="fill:#EFC3B2;" d="M358,260c0.029-0.292,0.013-0.581-0.048-0.868c3.036,0.015,6.071,0.03,9.107,0.045
		c-0.027,0.274-0.047,0.548-0.059,0.823C364,260,361,260,358,260z"/>
	<path style="fill:#D12631;" d="M41.699,245.972c-1.415-1.591-0.656-3.51-0.657-5.246c-0.05-57.159-0.041-114.318-0.041-171.477
		c0-1.58,0-3.159,0-5.764c-3.342,3.883-3.882,7.6-3.953,11.308C36.892,82.956,37,91.123,37,99.289
		c0.001,46.494,0.002,92.988,0.003,139.482c0,1.167,0.048,2.336-0.012,3.499c-0.239,4.658-3.213,7.632-7.957,7.705
		c-6.33,0.098-12.663,0.024-19.011,0.024c-1.966-1.049-3.275-2.79-4.867-4.505c0-78.517,0-157.144,0-235.782
		c2.269-3.557,5.458-4.818,9.688-4.777C31.34,5.096,47.839,5.027,64.337,4.956c1.53-0.007,3.354,0.902,4.61-0.847
		c3.454,6.245,5.483,13.079,8.06,19.68c19.599,50.202,39.112,100.437,58.666,150.657c0.292,0.749,0.31,1.653,1.165,2.215
		c1.572-0.113,1.32-1.69,1.674-2.586c21.176-53.679,42.289-107.384,63.418-161.081c0.667-1.695,1.446-3.345,2.173-5.016
		c4.973-1.603,9.981-2.988,15.277-2.984c18.068,0.015,36.136-0.001,54.203-0.005c0.09,1.32,0.255,2.641,0.259,3.961
		c0.065,20.133,0.132,40.266,0.154,60.399c0.064,57.74,0.103,115.48,0.178,173.22c0.003,1.98,0.345,3.957,0.429,5.94
		c0.215,5.054-1.236,6.687-6.257,6.617c-7.485-0.104-14.918,1.133-22.412,0.741c-4.163-0.218-8.276-0.585-12.139-2.323
		c0.09-1.374,1.738-1.461,2.206-2.769c0-0.644,0.011-1.476-0.002-2.307c-0.62-42.376,1.037-84.761-0.879-127.14
		c-0.736-16.278-0.147-32.618-0.089-48.929c0.008-2.39-0.183-4.632-1.738-6.544c-0.57-0.701-1.072-0.516-1.376,0.298
		c-3.724-0.135-4.674,0.29-5.513,3.335c-3.762,13.648-9.933,26.37-15.141,39.456c-17.496,43.966-35.206,87.847-52.3,131.973
		c-0.897,2.315-1.949,4.582-3.092,6.787c-2.696,5.202-7.211,7.718-12.896,8.109c-4.997,0.344-10.009,0.045-14.918-0.962
		c-6.091-1.251-9.829-5.302-12-10.916c-3.112-8.05-6.1-16.147-9.22-24.194C88.649,172.84,69.844,126.184,51.113,79.498
		c-1.745-4.349-3.925-8.355-7.855-11.368c-1.066,1.776-0.616,3.454-0.612,5.038c0.039,16.825,0.199,33.649,0.191,50.474
		c-0.012,23.988-0.255,47.976-0.167,71.963c0.047,12.821,0.511,25.64,0.21,38.466C42.786,238.076,42.187,242.015,41.699,245.972z"/>
	<path style="fill:#D12631;" d="M1228.986,85.004c5.058,10.279,8.662,21.119,11.962,32.038
		c8.196,27.125,16.275,54.286,24.946,81.265c0.407,1.265,0.695,2.545,1.68,3.793c2.91-7.354,5.134-14.791,7.459-22.193
		c7.647-24.349,13.93-49.108,21.993-73.332c2.196-6.598,4.346-13.219,7.2-19.577c3.507,0.704,7.004,1.788,10.537,0.038
		c0.4-0.198,0.98-0.035,1.477-0.035c5.464-0.001,10.929-0.075,16.391,0.022c4.669,0.083,8.445,2.017,11.111,5.938
		c-5.754,17.136-11.527,34.267-17.259,51.41c-10.845,32.435-21.677,64.874-32.492,97.318c-3.983,11.948-6.987,14.157-19.465,14.168
		c-5.655,0.005-11.288-0.155-16.933-0.715c-6.775-0.672-11.527-3.924-14.427-9.971c-3.742-7.804-6.287-16.069-9.13-24.212
		c-9.184-26.309-18.279-52.65-27.466-78.957c-0.531-1.522-0.661-3.313-2.211-4.474c-10.12,32.322-20.231,64.615-30.344,96.909
		c-1.141,3.644-2.444,7.22-3.918,10.751c-2.52,6.036-7.171,9.006-13.414,9.664c-6.616,0.697-13.259,1.192-19.919,1.128
		c-9.518-0.092-14.5-3.278-17.792-12.33c-4.482-12.323-8.438-24.837-12.703-37.24c-12.571-36.555-25.186-73.094-37.772-109.644
		c-0.699-2.03-1.699-3.983-1.729-6.202c0.274-1.146,1.059-1.477,2.169-1.572c5.018-0.427,9.99-1.475,14.905-2.329
		c6.086-1.057,11.557,0,17.299,1.194c3.745,0.779,6.637,3.34,10.285,4.158c8.861,27.129,17.736,54.254,26.575,81.39
		c2.415,7.415,4.715,14.868,7.09,22.297c0.449,1.404,0.808,2.918,2.733,3.482c1.639-1.075,1.604-3.073,2.101-4.697
		c10.443-34.115,20.822-68.249,31.237-102.372c0.53-1.737,1.26-3.412,1.896-5.116C1198.374,86.497,1213.797,88.456,1228.986,85.004z
		"/>
	<path style="fill:#D12731;" d="M367.059,259.177c-3.036-0.015-6.071-0.03-9.107-0.045c-10.701-0.785-20.983-3.122-30.674-7.901
		c-16.143-7.96-25.97-20.643-27.826-38.619c-1.988-19.255,4.246-35.359,20.229-47.108c7.635-5.613,16.326-8.875,25.339-11.302
		c14.823-3.991,29.919-6.049,45.297-6.477c5.991-0.167,11.944,0.028,17.918,0.071c10.056,0.072,12.327-3.811,9.896-12.631
		c-3.827-13.882-14.164-22.412-29.659-24.121c-17.136-1.889-33.008,1.286-47.459,11.134c-9.027,6.152-13.986,4.881-19.729-4.338
		c-2.287-3.671-4.525-7.321-7.587-10.472c-2.524-2.597-2.236-5.198,0.916-7.087c15.977-9.575,32.082-18.774,51.046-21.433
		c18.824-2.64,37.029-0.429,54.979,5.425c17.667,5.761,28.077,18.209,33.283,35.54c0.997,3.32,2.047,6.678,1.872,10.234
		c-1.499,1.157-0.791,2.795-0.745,4.171c0.377,11.241,0.259,22.486,0.674,33.738c0.899,24.409,0.278,48.874,0.278,73.315
		c0,0.166,0.027,0.339-0.007,0.498c-1.309,6.07-1.469,8.842-9.513,10.461c-3.706,0.746-7.449,0.713-11.164,1.566
		c-6.82,1.565-11.708-2.249-13.344-9.052c-0.5-2.079-1.229-4.087-1.002-6.292c0.109-1.053-0.727-1.354-1.619-1.447
		c-0.32-1.02-0.299-2.042-0.02-3.065c0.863-0.733,0.149-0.789-0.394-0.919c-5.783,5.436-11.516,10.9-18.298,15.166
		C390.335,254.667,379.214,258.454,367.059,259.177z M396.783,177.92c-8.01-0.043-15.971,0.62-23.818,2.147
		c-8.526,1.659-16.836,4.049-23.715,9.755c-8.014,6.647-9.476,17.211-3.462,25.393c2.381,3.24,5.31,5.943,8.922,7.859
		c11.019,5.842,22.45,5.5,33.898,1.872c16.593-5.259,25.657-17.06,28.293-34.013c1.171-7.532-1.203-10.793-8.679-12.427
		C404.442,177.679,400.601,177.974,396.783,177.92z"/>
	<path style="fill:#D02B29;" d="M827.837,245.03c2.101-1.029,1.109-2.947,1.116-4.434c0.073-16.833,0.181-33.668-0.005-50.499
		c-0.11-9.921,1.006-19.694,2.345-29.834c1.09,1.428,0.626,2.721,0.696,3.908c1.042,17.588,1.479,35.206,0.845,52.798
		c-0.262,7.262-0.84,14.529-0.823,21.811c0.017,7.386,3.379,10.916,10.799,11.191c4.161,0.154,8.336,0.139,12.498-0.001
		c5.02-0.168,9.564-4.442,9.64-9.395c0.163-10.664,0.706-21.388-0.183-31.98c-0.585-6.967-1.252-13.963-0.603-20.809
		c1.432-15.115,0.447-30.22,0.833-45.32c0.03-1.166,0.38-2.509-0.066-3.471c-2.368-5.111,0.441-9.258,2.256-13.609
		c1.546,4.602,1.459,9.424,1.624,14.159c0.653,18.779,1.355,37.576,0.737,56.357c-0.564,17.137-0.138,34.264-0.375,51.394
		c-0.014,0.998,0.031,2.005-0.091,2.991c-0.381,3.088-1.759,4.772-4.758,4.646c-9.298-0.39-18.575,1.294-27.877,0.12
		c-2.498-0.315-4.867-0.922-7.208-1.682C827.68,250.688,827.968,247.822,827.837,245.03z"/>
	<path style="fill:#CF2929;" d="M231.917,66.154c0.305-0.815,0.806-0.999,1.376-0.298c1.555,1.912,1.747,4.154,1.738,6.544
		c-0.058,16.311-0.646,32.651,0.089,48.929c1.915,42.379,0.259,84.764,0.879,127.14c0.012,0.831,0.002,1.663,0.002,2.307
		c-0.468,1.308-2.115,1.395-2.206,2.769c-0.82-0.262-1.579-0.632-1.628-1.619c-0.058-1.163-0.029-2.33-0.03-3.495
		c-0.049-38.289-0.099-76.577-0.146-114.866C231.964,111.095,231.942,88.624,231.917,66.154z"/>
	<path style="fill:#D02B29;" d="M419.348,237.004c0.892,0.093,1.728,0.394,1.619,1.447c-0.228,2.205,0.502,4.213,1.002,6.292
		c1.636,6.804,6.524,10.618,13.344,9.052c3.715-0.853,7.458-0.82,11.164-1.566c8.044-1.619,8.205-4.391,9.513-10.461
		c0.034-0.159,0.007-0.332,0.007-0.498c0-24.442,0.62-48.907-0.278-73.315c-0.414-11.251-0.297-22.497-0.674-33.738
		c-0.046-1.375-0.754-3.014,0.745-4.171c1.519,12.707,2.139,25.474,2.19,38.257c0.104,25.772,0.034,51.545,0.022,77.318
		c-0.001,1.491,0.069,3.023-0.232,4.466c-0.685,3.283-2.54,5.004-5.872,5.034c-7.645,0.068-15.3,0.097-22.935-0.232
		c-5.97-0.257-8.192-2.581-9.113-8.49C419.367,243.288,418.825,240.173,419.348,237.004z"/>
	<path style="fill:#D02327;" d="M638.952,208.01c-0.992,0-1.985,0-2.866,0c-1.851-1.477-2.104-3.337-2.102-5.39
		c0.029-24.049,0.007-48.097,0.03-72.146c0.004-3.914,0.076-3.913,4.103-4.434c0.292,16.891-0.31,33.786,0.402,50.68
		c0.355,8.438,0.06,16.902,0.106,25.354C638.637,204.054,638.838,206.032,638.952,208.01z"/>
	<path style="fill:#CE2127;" d="M526.609,204.98c-3.253-0.83-4.399-3.411-4.525-6.276c-0.121-2.75-0.058-5.501,0.531-8.336
		c0.76-3.659,0.777-7.671,0.121-11.355c-0.438-2.46-0.706-4.863-0.72-7.313c-0.047-8.634-0.097-17.27,0.008-25.903
		c0.076-6.238,1.176-12.344,2.937-18.334c0.205-0.696,0.417-1.209,1.11-1.446C526.251,152.338,526.43,178.659,526.609,204.98z"/>
	<path style="fill:#CE2628;" d="M273.583,4.989c-18.068,0.004-36.136,0.02-54.203,0.005c-5.296-0.004-10.304,1.38-15.277,2.984
		c0.141-5.708,1.144-7.102,5.795-7.116c20.533-0.063,41.067-0.027,60.871-0.027C272.86,2.161,273.408,3.469,273.583,4.989z"/>
	<path style="fill:#D0322B;" d="M1111.425,92.014c-3.648-0.817-6.54-3.379-10.285-4.158c-5.742-1.194-11.212-2.251-17.299-1.194
		c-4.915,0.854-9.887,1.901-14.905,2.329c-1.109,0.095-1.895,0.426-2.169,1.572c-0.826-0.669-1.1-1.59-1.228-2.782
		c2.676-3.33,6.756-3.893,10.574-4.487c9.186-1.43,18.444-1.802,27.704-0.497C1110.012,83.67,1111.537,85.527,1111.425,92.014z"/>
	<path style="fill:#D0322B;" d="M1343.743,92.962c-2.666-3.921-6.443-5.856-11.112-5.938c-5.462-0.097-10.927-0.023-16.391-0.022
		c-0.497,0-1.077-0.163-1.477,0.035c-3.533,1.75-7.03,0.666-10.537-0.038c3.595-4.105,8.663-4.339,13.485-4.834
		c8.811-0.903,17.523,1.367,26.331,1.203c1.04-0.019,1.945,0.387,2.686,1.565C1346.577,87.77,1343.775,89.892,1343.743,92.962z"/>
	<path style="fill:#CE2628;" d="M573.887,86.992c-11.33,0.003-22.661-0.073-33.989,0.054c-3.723,0.042-7.08-1.279-10.591-2.049
		c-1.533-0.336-2.23-1.302-2.382-2.779c12.092,0.259,24.184,0.534,36.277,0.758c1.481,0.027,2.972-0.174,4.45-0.339
		C571.674,82.188,572.424,82.697,573.887,86.992z"/>
	<path style="fill:#D0322B;" d="M1228.986,85.004c-15.189,3.452-30.612,1.493-45.929,1.994c0.011-1.597,1.315-1.633,2.377-2.002
		c7.622-2.643,15.528-2.964,23.455-2.59c6.251,0.295,12.48,1.045,18.72,1.573C1228.318,84.039,1228.875,84.193,1228.986,85.004z"/>
	<path style="fill:#D02B29;" d="M683.637,84.99c-2.107,0.181-4.185,0.31-6.309,0.689c-6.74,1.203-13.518,2.69-20.431,2.282
		c-5.546-0.327-10.984-1.392-16.133-3.618c-1.216-0.526-2.506-0.968-2.702-2.566c10.413,1.132,20.876,1.11,31.327,1.357
		c3.323,0.079,6.648,0.109,9.968,0.254C680.923,83.456,682.738,83.061,683.637,84.99z"/>
	<path style="fill:#CE2127;" d="M526.83,82.058c-0.62-0.154-1.429-0.077-1.659-0.842c-1.077-3.582-2.972-7.187-2.941-10.77
		c0.044-5.177-1.576-10.106-0.596-15.57c0.962-5.368,1.958-10.9,2.367-16.428c0.079-1.072,0.76-1.341,1.644-1.431
		c0.172,8.585,0.308,17.171,0.527,25.754C526.336,69.202,526.607,75.629,526.83,82.058z"/>
	<path style="fill:#D0322B;" d="M571.141,253.417c-1.355-4.783-1.269-9.456-0.401-14.44c1.063-6.105,0.538-12.397-2.767-18.043
		c1.781-1.183,3.424,0.416,5.65-0.161c0.128,9.102,2.633,17.721,0.438,26.508C573.502,249.522,573.054,251.819,571.141,253.417z"/>
	<path style="fill:#D02B29;" d="M418.933,233.02c0.544,0.129,1.257,0.186,0.394,0.919
		C419.196,233.633,419.064,233.327,418.933,233.02z"/>
</g>
</svg>
