<?xml version="1.0" encoding="iso-8859-1"?>
<!-- Generator: Adobe Illustrator 27.0.0, SVG Export Plug-In . SVG Version: 6.00 Build 0)  -->
<svg version="1.1" id="Layer_1" xmlns="http://www.w3.org/2000/svg" xmlns:xlink="http://www.w3.org/1999/xlink" x="0px" y="0px"
	 viewBox="0 0 1541 1395" style="enable-background:new 0 0 1541 1395;" xml:space="preserve">
<g>
	<path style="fill:#2E3577;" d="M808.053,0.924c19.136,0.79,38.181,2.541,57.196,4.854c36.88,4.487,73.139,12.007,108.732,22.509
		c32.697,9.648,64.413,21.974,94.932,37.265c31.645,15.855,61.488,34.5,88.682,57.241c26.749,22.37,50.181,47.678,68.584,77.454
		c17.438,28.215,29.153,58.541,33.557,91.494c2.389,17.879,2.272,35.889,1.68,53.883c-0.378,11.485-1.431,22.9-3.175,34.282
		c-4.574,29.863-14.23,58.009-28.317,84.637c-18.441,34.86-43.227,64.685-72.973,90.436c-47.371,41.01-101.957,68.835-161.26,88.038
		c-31.835,10.308-64.26,18.039-97.326,23.177c-23.363,3.63-46.813,6.339-70.401,7.965c-26.787,1.846-53.6,2.26-80.421,1.475
		c-20.968-0.614-41.88-2.09-62.754-4.406c-27.136-3.01-54.067-7.158-80.666-13.239c-50.924-11.642-99.871-28.771-145.622-54.265
		c-36.145-20.141-69.018-44.635-97.223-75.104c-30.271-32.701-52.891-69.928-66.072-112.632
		c-5.455-17.673-8.897-35.771-10.414-54.239c-1.613-19.638-1.747-39.329-0.422-58.921c2.078-30.744,11.261-59.617,25.653-86.836
		c14.045-26.562,32.152-50.065,53.447-71.2c29.176-28.958,62.387-52.35,98.488-71.794c32.124-17.302,65.728-31.035,100.523-41.953
		c25.236-7.918,50.895-14.05,76.863-19.008c23.884-4.559,47.993-7.398,72.17-9.693c8.448-0.802,16.956-0.961,25.437-1.413
		c4.448-0.02,8.9,0.051,13.343-0.103C752.2,0.761,754.265,1.38,756,0c11.333,0,22.667,0,34,0
		C795.95,1.639,802.019,0.926,808.053,0.924z M834.037,472.033l-0.072-0.068c0.029,0.694,0.402,1.031,1.084,1.048l-0.068-0.061
		c2.267,2.826,4.579,5.601,8.003,7.126l-0.062-0.054c0.351,1.696,1.481,2.604,3.077,3.04l-0.065-0.068
		c-0.025,0.747,0.369,1.067,1.082,1.061l-0.077-0.072c0.012,0.716,0.406,1.039,1.092,1.061l-0.081-0.08
		c0.021,0.722,0.533,1.046,1.083,1.339c0.317,0.302,0.635,0.604,0.952,0.906c0.61,0.616,1.22,1.233,1.829,1.849
		c0,0,0.121,0.127,0.121,0.127c0.276,0.264,0.553,0.527,0.829,0.791c0.433,0.437,0.867,0.874,1.3,1.311
		c0.911,0.92,1.822,1.84,2.734,2.759l0.151,0.151c0.588,0.581,1.177,1.161,1.765,1.742c3.868,5.613,9.473,7.383,15.957,7.223
		c1.166-0.029,2.334-0.021,3.5,0.017c11.652,0.382,20.376-5.047,27.405-13.818c2.186-2.727,2.99-5.874,2.73-9.344
		c-0.323-4.319-2.058-7.975-4.936-11.171c-15.05-16.708-30.09-33.426-45.108-50.163c-1.92-2.14-3.328-4.578-3.336-7.583
		c-0.01-3.803,2.472-5.847,6.192-5.074c2.015,0.419,3.576,1.719,5.186,2.889c7.154,5.201,13.707,11.116,20.22,17.076
		c11.433,10.463,21.965,21.868,33.615,32.107c5.08,4.465,10.988,6.594,17.665,7.118c11.03,0.866,20.224-3.407,28.313-10.269
		c11.108-9.424,14.294-24.229,2.168-37.306c-6.336-6.833-13.229-13.149-19.835-19.733c-14.4-14.35-28.774-28.726-43.169-43.081
		c-1.818-1.813-3.217-3.813-3.33-6.484c-0.194-4.6,3.788-7.468,7.993-5.708c2.01,0.842,3.753,2.127,5.373,3.59
		c23.119,20.878,46.253,41.74,69.354,62.639c1.496,1.353,3.076,2.461,4.866,3.4c10.415,5.466,20.873,5.029,31.045-0.253
		c7.429-3.858,13.607-9.499,15.348-18.034c2.033-9.972-1.406-18.789-8.444-25.914c-4.551-4.607-9.774-8.547-14.66-12.826
		c-34.21-29.962-68.643-59.667-103.262-89.155c-20.286-17.279-40.496-34.65-61.328-51.273c-9.497-7.578-19.262-14.78-30.341-19.993
		c-7.036-3.311-14.326-5.053-22.163-4.862c-10.758,0.263-20.535,3.674-29.79,8.781c-14.02,7.737-27.064,16.932-39.48,27.028
		c-10.201,8.295-20.361,16.629-31.622,23.519c-13.717,8.392-28.411,12.83-44.585,11.542c-10.994-0.876-21.583-3.354-31.83-7.602
		c-6.227-2.581-11.017-6.68-15.33-11.601c-5.108-5.828-5.346-12.197-2.283-19.029c1.665-3.714,4.243-6.781,6.905-9.717
		c11.971-13.206,24.074-26.292,36.131-39.42c3.387-3.688,6.778-7.372,10.295-11.198c-1.458-0.503-2.443-0.206-3.389,0.045
		c-11.706,3.106-23.474,6.007-35.09,9.424c-17.723,5.213-35.774,5.638-53.914,3.936c-12.411-1.164-24.579-4.104-36.66-7.123
		c-38.665-9.663-76.723-21.264-113.663-36.343c-1.354-0.553-2.879-0.741-3.743-2.129c0.23-0.256,0.46-0.512,0.689-0.767
		c0.758-0.118,1.474-0.302,1.804-1.114c1.046-0.121,1.736-0.787,2.364-1.547c1.789-1.008,3.843-1.76,4.899-5.082
		c-2.796,1.403-4.35,2.625-5.643,4.221c-0.984,0.247-1.646,0.913-2.216,1.699c-0.652,0.368-1.451,0.566-1.662,1.442
		c-0.598,0.065-0.989,0.35-1.047,0.987c-0.833,0.528-1.732,0.976-2.489,1.597c-22.758,18.666-43.377,39.364-60.432,63.469
		c-16.271,22.996-28.518,47.863-35.305,75.296c-0.905,3.658-1.965,7.301-1.918,11.261c0.81,0.238,1.425,0.418,2.04,0.599
		c0.414,1.05,1.384,1.417,2.313,1.715c5.836,1.872,11.653,3.81,17.641,5.169c34.282,7.778,68.235,16.78,101.556,28.018
		c22.174,7.478,43.836,16.244,64.603,27.115c6.897,3.61,13.408,7.833,19.559,12.224c0.979-0.282,1.555-0.573,1.744-1.314
		c3.67-2.304,6.55-5.761,10.712-7.349c1.678-0.149,3.127-1.006,4.691-1.502c12.104-3.838,24.06-3.655,35.796,1.486
		c6.638,2.908,12.005,7.533,16.89,12.678c0.921-0.24,1.7-0.477,2.068-1.331c2.712-1.726,5.424-3.452,8.135-5.178
		c0.81-0.096,1.678-0.035,2.422-0.31c8.588-3.18,17.487-3.501,26.422-2.54c13.629,1.467,25.488,6.62,34.374,17.532
		c1.008,1.238,1.638,2.877,3.299,3.517l-0.054-0.072c-0.134,0.956,0.265,1.616,1.121,2.024l-0.045-0.076
		c0.032,0.625,0.157,1.171,0.964,1.141l-0.057-0.074c0.205,2.946,1.997,1.805,3.555,1.412c6.466-1.631,12.984-3.008,19.697-1.991
		c13.55,2.054,26.14,6.252,35.898,16.557l-0.043-0.05c0.166,0.791,0.696,1.123,1.461,1.157
		c7.963,11.346,10.578,24.133,10.171,37.735c-0.809,0.591-0.083,1.121,0.036,1.658c0.938,0.597,1.967,0.428,2.943,0.415
		c11.18-0.15,21.152,3.496,30.355,9.592c0.947,0.627,1.699,1.632,3.011,1.552L769.956,443c2.37,3.002,5.168,5.572,8.104,8.002
		l-0.059-0.061c0.135,0.822,0.62,1.203,1.448,1.154c0.219,0.795,0.211,1.776,0.689,2.358c8.555,10.425,10.955,22.729,10.745,35.731
		c-0.105,6.505-2.117,12.693-4.285,18.789c-0.433-0.096-0.529,0.078-0.435,0.551c0.06,0.304-0.172,0.827-0.033,0.931
		c2.974,2.222,6.236,3.844,9.902,4.582l-0.082-0.044c1.44,1.31,3.013,2.289,5.08,2.04l-0.077-0.037
		c6.327,3.398,13.255,4.507,20.266,4.893c3.183,0.175,6.595,1.066,9.642-0.905c4.398-0.751,8.677-1.887,12.633-4.015
		c2.562-1.378,4.755-3.067,4.889-6.561c-0.777-0.88-1.629-1.884-2.522-2.851c-11.817-12.806-23.635-25.611-35.464-38.406
		c-1.586-1.715-3.16-3.47-3.994-5.659c-0.842-2.21-1.192-4.551,0.553-6.572c1.698-1.966,4.307-2.384,7.22-1.21
		c0.888,0.358,1.702,0.899,2.55,1.356c0.216,0.619,0.616,0.991,1.306,0.973l-0.071-0.065c1.818,2.634,4.056,4.783,7.034,6.072
		l-0.042-0.038c2.19,2.913,4.74,5.414,8.055,7.04l-0.059-0.057C832.945,471.722,833.355,472.019,834.037,472.033z M1239.736,285.756
		c0.677,2.538,1.355,5.077,2.032,7.615c-0.253-2.838,1.104-5.992-1.411-8.294c-0.528-3.208-0.705-6.523-1.647-9.604
		c-3.333-10.901-5.995-21.999-10.511-32.557c-2.245-5.249-4.119-10.679-6.708-15.786c-15.856-31.278-37.619-57.949-63.6-81.312
		c-3.04-2.734-6.148-5.391-9.258-8.113c-1.191,1.698-2.647,2.171-4.014,2.758c-18.295,7.861-36.803,15.114-56.075,20.306
		c-18.822,5.071-37.886,8.905-57.339,10.021c-23.985,1.377-47.866,0.365-71.511-4.656c-21.016-4.463-41.449-10.673-61.028-19.464
		c-12.88-5.783-25.918-11.079-39.322-15.487c-14.393-4.733-29.104-8.235-44.145-9.894c-10.733-1.184-21.522-1.546-32.399-0.572
		c-10.798,0.967-21.471,2.442-31.962,4.99c-24.216,5.88-45.369,17.694-64.062,34.02c-11.049,9.65-21.384,20.023-31.285,30.859
		c-11.009,12.049-22.329,23.813-33.47,35.743c-1.657,1.774-3.732,3.37-3.913,6.165c2.747,3.925,6.739,5.964,11.016,7.425
		c13.433,4.589,27.04,4.669,40.743,1.272c8.563-2.123,15.776-6.921,22.956-11.713c12.62-8.423,23.819-18.709,35.985-27.726
		c11.616-8.609,23.341-17.022,36.619-23.08c22.767-10.387,44.807-8.968,66.319,3.366c10.561,6.056,20.299,13.365,29.746,20.97
		c27.888,22.452,55.235,45.558,82.253,69.053c28.275,24.588,56.593,49.128,84.921,73.655c2.233,1.934,4.384,4.033,6.941,5.387
		c23.681-10.727,47.651-20.001,71.929-28.465c26.477-9.23,53.275-17.439,80.385-24.613
		C1205.085,293.486,1222.287,289.1,1239.736,285.756z M928.779,485.212c-2.13,15.037-12.792,23.5-24.507,30.888
		c-12.259,7.731-25.687,8.044-39.406,4.604c-2.194,3.833-4.835,6.737-8.003,9.245c-6.739,5.334-14.605,8.118-22.892,8.92
		c-12.165,1.177-24.229-0.02-35.861-4.272c-7.321-2.676-14.408-5.846-21.351-9.657c-14.015,14.355-30.913,19.891-50.467,16.185
		c-19.557-3.707-32.743-15.756-41.122-33.505c-12.808,4.638-24.658,2.971-36.445-2.771c-11.773-5.736-21.325-13.397-26.116-26.184
		c-9.876,2.143-19.207,1.133-28.202-2.345c-8.957-3.463-16.88-8.635-23.318-15.828c-6.421-7.174-9.707-16.021-12.259-25.067
		c-4.137,1.129-7.806,0.845-11.457,0.728c-18.552-0.593-35.026-12.469-41.636-29.849c-3.934-10.343-3.72-20.814-1.321-31.39
		c0.324-1.43,1.041-2.784,0.572-4.353c-5.547-3.971-11.387-7.416-17.416-10.596c-18.234-9.615-37.264-17.307-56.718-24.045
		c-26.036-9.019-52.542-16.391-79.321-22.796c-14.972-3.581-30.019-6.85-44.805-10.209c-0.849,0.729-0.845,1.402-0.917,2.059
		c-1.849,16.872-0.414,33.625,2.603,50.196c4.563,25.063,13.766,48.486,26.821,70.338c17.869,29.907,40.94,55.306,67.73,77.446
		c33.457,27.649,70.784,48.815,110.49,65.97c31.748,13.718,64.653,23.95,98.242,32.042c24.567,5.918,49.452,9.984,74.515,13.192
		c17.688,2.265,35.441,3.681,53.211,4.482c17.62,0.794,35.274,1.214,52.949,0.587c20.808-0.738,41.563-1.877,62.271-4.101
		c19.015-2.042,37.926-4.788,56.679-8.438c33.918-6.601,67.191-15.682,99.559-27.822c43.269-16.228,84.174-36.917,121.265-64.794
		c30.902-23.225,57.789-50.189,78.477-83.014c24.508-38.886,36.27-81.116,32.964-127.157c-1.24,2.413-1.264,2.473-3.229,2.967
		c-2.896,0.728-5.801,1.418-8.707,2.105c-51.856,12.267-102.715,27.838-152.717,46.216c-10.387,3.818-20.58,8.164-31.134,12.375
		c1.019,2.36,1.918,4.289,2.694,6.266c2.964,7.546,4.558,15.31,3.082,23.417c-3.826,21.022-23.857,38.1-45.366,38.842
		c-4.91,0.169-9.818,0.246-14.733-0.338C993.693,464.461,963.205,490.415,928.779,485.212z M679.08,140.886
		c14.185-12.291,29.888-21.778,47.314-28.347c16.586-6.252,33.759-9.506,51.44-10.892c19.57-1.535,38.879-0.542,58.077,3.395
		c21.365,4.382,41.981,11.014,61.716,20.339c10.498,4.96,21.16,9.531,32.177,13.229c21.356,7.168,43.287,11.817,65.747,13.071
		c16.769,0.936,33.594,0.646,50.357-1.506c21.668-2.781,42.64-8.248,63.195-15.428c7.96-2.78,15.727-6.11,23.578-9.188
		c-0.394-0.901-1.264-1.41-2.088-1.976c-8.366-5.74-16.565-11.743-25.12-17.186C1069,83.191,1029.803,65.74,988.834,52.243
		c-37.61-12.391-76.161-20.842-115.38-26.225c-13.516-1.855-27.126-2.873-40.692-4.276c-15.769-1.631-31.586-1.947-47.376-2.348
		c-23.139-0.588-46.272,0.391-69.355,2.458c-17.397,1.558-34.734,3.406-52.025,5.97c-21.22,3.146-42.206,7.388-62.95,12.669
		c-42.403,10.795-83.32,25.675-122.248,45.849c-18.326,9.498-35.932,20.116-53.119,32.349c3.695,1.511,7.01,2.988,10.408,4.238
		c32.705,12.031,66.004,22.084,99.938,30.045c8.41,1.973,16.813,4.159,25.404,4.85c19.367,1.558,38.39-0.229,57.241-5.526
		C638.454,146.738,658.238,140.663,679.08,140.886z M636.547,452.073c2.478,2.594,2.585,2.6,2.347,7.062
		c-0.399,7.474,2.38,13.575,7.553,18.808c4.3,4.349,9.562,7.049,15.07,9.484c10.339,4.571,19.722,3.164,28.296-4.09
		c1.273-1.077,2.517-2.123,4.124-2.731c3.789-1.433,5.704-0.513,6.518,3.342c0.24,1.135,0.345,2.306,0.423,3.466
		c0.619,9.15,4.145,17.019,10.395,23.694c17.436,18.621,44.153,12.874,55.664-1.245c7.759-9.517,10.123-20.214,8.118-32.222
		c-3.032-18.157-19.288-31.133-34.84-31.762c-5.64-0.228-10.831,1.147-16.057,2.851c-2.656,0.866-5.334,1.968-8.196,0.959
		c-2.065-1.403-1.915-3.161-1.246-5.295c1.788-5.704,3.079-11.54,3.804-17.479c1.079-8.838,0.238-17.551-5.098-24.823
		c-8.598-11.72-20.579-16.229-34.959-14.187c-6.168,0.876-11.242,3.968-15.449,8.425c-1.73,1.832-3.296,2.683-5.642,0.947
		c-0.768-2.141-1.034-4.435-1.337-6.736c-1.15-8.732-5.387-15.557-12.7-20.5c-4.122-2.786-8.821-3.559-13.582-4.483
		c-19.099-3.705-35.793,5.442-43.537,19.954c-0.63,1.181-0.754,2.988-2.667,3.221c-3.545-20.934-12.169-30.598-29.295-32.068
		c-13.315-1.143-24.611,7.07-29.335,18.813c-4.531,11.266-1.307,26.392,10.091,34.771c10.333,7.596,24.616,9.426,40.446-4.072
		c4.036,2.279,2.944,6.038,2.327,9.321c-1.141,6.075-0.402,11.953,1.207,17.747c6.55,23.58,33.179,33.629,53.534,20.262
		C633.642,452.772,634.657,451.878,636.547,452.073z"/>
	<path style="fill:#2E3577;" d="M0,912c1.812-2.546,1.406-5.638,2.01-8.468c4.953-23.204,15.922-42.576,35.878-56.107
		c11.034-7.481,23.245-11.923,36.554-13.59c13.247-1.659,26.191-0.864,39.011,2.893c12.63,3.702,23.191,10.633,32.26,20.012
		c1.723,1.782,3.36,3.649,5.295,5.758c1.558-1.561,2.941-2.915,4.288-4.303c19.631-20.225,43.662-27.512,71.319-24.522
		c10.184,1.101,19.971,3.427,29.209,7.854c21.08,10.103,34.128,27.012,41.135,48.939c3.626,11.346,5.035,23.052,5.128,34.923
		c0.318,40.493,0.596,80.986,0.887,121.48c0.008,1.141,0.001,2.282,0.001,3.708c-17.027,0-33.759,0-50.767,0
		c-0.578-1.76-0.292-3.591-0.293-5.365c-0.021-39.164-0.036-78.327,0.01-117.491c0.006-4.855-0.295-9.699-1.233-14.415
		c-3.062-15.389-12.86-24.392-28.578-26.252c-6.797-0.804-13.642-0.709-20.266,1.501c-15.023,5.013-24.87,18.481-24.892,34.356
		c-0.055,40.664-0.017,81.327-0.041,121.991c-0.001,1.799,0.325,3.636-0.384,5.681c-16.717,0-33.479,0-50.431,0
		c-1.398-1.618-0.695-3.709-0.697-5.603c-0.047-38.997-0.013-77.994-0.063-116.991c-0.006-4.983,0.013-9.974-1.078-14.914
		c-3.401-15.399-12.549-24.047-28.245-25.985c-7.124-0.879-14.324-0.867-21.191,1.797c-13.523,5.248-20.881,15.361-22.841,29.531
		c-0.408,2.952-0.287,5.987-0.289,8.984c-0.016,39.164-0.005,78.327-0.028,117.491c-0.001,1.798,0.313,3.638-0.506,6.108
		c-16.969,0-34.066,0-51.163,0c0-0.667,0-1.333,0-2c1.596-0.849,0.906-2.355,0.918-3.57c0.066-6.49,0.031-12.98,0.031-19.471
		c0-32.951,0.016-65.903-0.046-98.854C0.9,925.411,1.766,923.432,0,922C0,918.667,0,915.333,0,912z"/>
	<path style="fill:#2E3577;" d="M1540.053,957.074c-1.326,16.828-6.634,32.458-14.455,47.281
		c-3.729,7.067-8.288,13.611-13.192,19.941c-8.645,11.158-20.016,18.469-33.01,23.232c-18.565,6.804-37.81,8.402-57.473,6.798
		c-13.884-1.132-27.189-4.014-39.888-9.874c-10.185-4.7-18.614-11.532-25.968-19.846c-15.189-17.173-23.998-37.192-27.327-59.853
		c-3.646-24.823-0.835-48.715,9.218-71.705c5.292-12.103,12.184-23.291,20.818-33.261c9.487-10.956,21.534-18.117,35.444-22.182
		c27.259-7.967,54.482-7.946,81.447,1.023c17.408,5.791,31.184,16.736,41.938,31.609c12.209,16.888,20.26,35.383,22.446,56.243
		c0.072,0.69,0.18,1.295,0.95,1.519c0,1,0,2,0,3c-0.932,0.322-1.053,1.072-1.027,1.914c0.094,3.046,0.181,6.093,0.271,9.139
		C1540.18,947.06,1540.116,952.067,1540.053,957.074z M1483.218,945.084c-0.043-6.821-0.074-13.649-1.236-20.403
		c-1.444-8.397-3.391-16.668-8.539-23.678c-10.246-13.952-24.327-20.169-41.422-19.714c-7.199,0.192-14.091,1.904-20.575,5.251
		c-12.659,6.533-20.202,16.936-23.485,30.598c-4.226,17.587-4.004,35.276-0.972,53c3.458,20.214,16.3,33.626,36.26,38.389
		c19.334,4.614,49.039-3.229,56.686-33.789C1482.374,964.983,1483.417,955.113,1483.218,945.084z"/>
	<path style="fill:#636093;" d="M0,922c1.766,1.432,0.9,3.411,0.903,5.105c0.062,32.951,0.046,65.903,0.046,98.854
		c0,6.49,0.035,12.981-0.031,19.471c-0.012,1.215,0.678,2.72-0.918,3.57C0,1006.667,0,964.333,0,922z"/>
	<path style="fill:#59578D;" d="M418.967,1393.988c0.011,0.337,0.022,0.674,0.033,1.012c-18,0-36,0-54,0
		c0.028-0.343,0.057-0.686,0.085-1.029C383.046,1393.977,401.006,1393.982,418.967,1393.988z"/>
	<path style="fill:#636093;" d="M701.066,1394.046c-0.022,0.318-0.044,0.636-0.066,0.954c-9.667,0-19.333,0-29,0
		c-0.013-0.324-0.026-0.649-0.039-0.973C681.663,1394.033,691.364,1394.039,701.066,1394.046z"/>
	<path style="fill:#948EB3;" d="M756,0c-1.735,1.38-3.8,0.761-5.705,0.828c-4.444,0.154-8.895,0.083-13.343,0.103
		C737.154,0.63,737.17,0.32,737,0C743.333,0,749.667,0,756,0z"/>
	<path style="fill:#948EB3;" d="M808.053,0.924C802.019,0.926,795.95,1.639,790,0c6,0,12,0,18,0
		C807.844,0.318,807.862,0.626,808.053,0.924z"/>
	<path style="fill:#636093;" d="M1540.053,957.074c0.064-5.007,0.127-10.014,0.191-15.021c0.252-0.017,0.504-0.035,0.756-0.053
		c0,5,0,10,0,15C1540.684,957.025,1540.369,957.049,1540.053,957.074z"/>
	<path style="fill:#59578D;" d="M1541,942c-0.252,0.018-0.504,0.036-0.756,0.053c-0.09-3.046-0.176-6.093-0.271-9.139
		c-0.026-0.842,0.095-1.593,1.027-1.914C1541,934.667,1541,938.333,1541,942z"/>
	<path style="fill:#2E3577;" d="M701.066,1394.046c-9.702-0.006-19.403-0.013-29.105-0.019
		c-16.424-1.281-32.151-5.023-46.462-13.505c-19.52-11.569-30.364-29.261-35.432-50.897c-2.246-9.589-3.252-19.338-3.251-29.197
		c0.004-54.479-0.01-108.958-0.061-163.437c-0.002-2.429,0.543-4.478,1.958-6.51c9.199-13.213,21.829-20.573,37.73-22.564
		c4.624-0.579,9.235-1.023,14.628-0.59c0.003,16.077,0.007,32.15,0.009,48.223c0.002,15.958,0,31.916,0,48.179
		c1.987-1.089,2.653-2.905,3.711-4.302c16.951-22.377,39.658-30.693,67.088-27.758c11.865,1.27,23.188,4.292,33.67,10.056
		c16.21,8.914,26.611,22.829,33.294,39.694c5.555,14.017,8.135,28.719,9.21,43.724c0.715,9.976,1.288,19.954,0.8,29.95
		c-0.774,15.861-3.184,31.458-9.227,46.233c-10.866,26.57-30.683,42.83-58.421,49.537
		C714.603,1392.459,707.959,1394.13,701.066,1394.046z M733.339,1287.428c0.591-4.304-0.013-9.783-0.533-15.229
		c-0.521-5.448-1.395-10.87-2.757-16.195c-1.112-4.347-2.382-8.663-4.313-12.701c-8.452-17.672-21.074-24.532-40.98-23.962
		c-12.174,0.349-22.69,4.699-30.306,14.726c-4.701,6.19-7.607,13.23-9.467,20.688c-3.942,15.81-5.021,31.835-2.85,48.005
		c0.996,7.417,2.718,14.703,5.98,21.496c4.89,10.181,12.309,17.5,23.361,21.015c6.351,2.02,12.744,2.216,19.231,1.892
		c15.594-0.779,27.082-8.079,34.332-21.945C731.032,1313.752,732.83,1301.336,733.339,1287.428z"/>
	<path style="fill:#2E3577;" d="M1255.23,864.26c0-7.32,0-14.64,0-21.961c0.001-11.498-0.028-22.996,0.013-34.494
		c0.026-7.444,1.452-14.539,5.519-20.937c5.024-7.902,12.716-12.087,21.265-14.76c9.127-2.854,18.549-3.794,28.079-2.836
		c1.265,1.097,0.764,2.523,0.744,3.781c-0.736,45.98-1.386,91.961-2.322,137.937c-0.404,19.822,0.296,39.699-0.906,59.451
		c-2.099,34.515-17.688,60.836-50.24,75.409c-11.03,4.938-22.705,7.215-34.714,8.357c-19.313,1.835-38.306,0.107-56.756-5.531
		c-30.597-9.349-49.474-30.098-56.781-61.175c-3.719-15.815-4.398-31.908-3.46-48.131c0.888-15.368,3.127-30.464,8.445-44.926
		c9.354-25.437,25.739-44.364,51.525-54.289c6.877-2.647,14.063-4.022,21.339-4.751c9.645-0.966,19.296-0.63,28.862,1.043
		c12.05,2.107,21.042,9.487,29.659,17.444C1248.913,857.044,1251.709,860.76,1255.23,864.26z M1168.111,945.145
		c0,2.165-0.101,4.335,0.017,6.493c0.655,11.99,2.159,23.789,6.834,35.034c4.368,10.507,11.739,17.612,22.615,20.874
		c8.588,2.576,17.246,2.87,26.098,0.804c12.308-2.873,21.398-9.714,27.002-20.934c6.343-12.698,8.51-26.515,9.499-40.461
		c0.528-7.452-0.576-14.929-2.084-22.299c-1.339-6.542-3.364-12.82-6.22-18.856c-8.52-18.004-25.987-24.828-43.614-23.324
		c-10.528,0.898-19.703,4.673-26.383,13.249c-3.799,4.877-6.8,10.234-8.892,16.062
		C1169.112,922.57,1167.919,933.763,1168.111,945.145z"/>
	<path style="fill:#2E3577;" d="M1169.92,1297.178c-51.02,0-101.63,0-152.717,0c1.411,13.646,3.986,26.513,12.172,37.537
		c3.107,4.184,7.259,7.261,11.964,9.615c12.718,6.364,26.335,7.564,39.938,5.281c15.688-2.633,26.943-12.187,34.705-26.399
		c16.647,0,33.594,0,50.891,0c-8.898,28.03-24.41,50.047-52.295,61.745c-17.562,7.367-35.878,9.579-54.706,8.569
		c-14.746-0.791-29.067-3.874-42.466-10.032c-25.401-11.674-41.95-31.537-51.398-57.569c-4.358-12.006-5.854-24.495-6.318-37.206
		c-0.666-18.229,2.34-35.719,9.121-52.658c9.862-24.636,26.962-42.32,50.564-54.138c13.236-6.627,27.312-9.311,41.884-9.868
		c11.672-0.446,23.314,0.164,34.694,3.099c10.557,2.723,20.245,7.339,29.269,13.493c20.501,13.982,32.451,33.824,39.612,57.041
		C1169.956,1262.293,1171.047,1279.284,1169.92,1297.178z M1111.017,1260.865c0.504-3.795-0.305-7.217-1.111-10.556
		c-3.311-13.714-9.851-25.156-23.65-30.691c-10.126-4.062-20.699-4.666-31.405-2.524c-24.91,4.984-37.143,26.4-37.137,43.771
		C1048.803,1260.865,1079.891,1260.865,1111.017,1260.865z"/>
	<path style="fill:#2E3577;" d="M469.96,993.259c20.092-0.361,39.869-0.717,59.923-1.078c-0.23,4.573-1.824,8.375-3.493,12.102
		c-3.083,6.889-7.325,13.021-12.53,18.506c-4.699,4.951-9.232,10.049-14.781,14.125c-11.741,8.625-24.885,13.964-39.133,16.539
		c-14.483,2.618-29.034,3.378-43.688,1.041c-21.392-3.412-39.99-12.865-57.149-25.668c-8.576-6.399-15.168-14.42-20.146-23.804
		c-5.108-9.631-8.068-19.981-9.95-30.675c-2.382-13.534-2.841-27.213-1.823-40.832c2.153-28.818,12.267-54.276,33.262-74.835
		c13.012-12.742,28.652-20.321,46.403-23.597c18.223-3.363,36.457-2.807,54.557,1.01c17.28,3.645,31.732,12.243,43.888,25.074
		c15.501,16.362,23.454,36.042,26.253,58.035c0.67,5.261,0.442,10.646,0.496,15.975c0.073,7.134,0.018,14.269,0.018,21.941
		c-50.604,0-100.979,0-151.641,0c-0.307,5.523,0.419,10.416,1.597,15.214c4.399,17.915,15.461,29.873,33.433,33.876
		c11.691,2.604,23.88,2.074,35.732-0.357C458.437,1004.365,465.966,998.986,469.96,993.259z M380.528,921.698
		c9.47,1.085,90.777,0.664,94.132-0.415c0.368-2.857-0.311-5.654-0.707-8.428c-1.699-11.907-7.5-21.057-18.24-26.983
		c-7.145-3.943-14.715-5.871-22.802-6.403c-10.375-0.682-20.278,0.84-29.308,6.115C389.905,893.586,384.11,906.751,380.528,921.698z
		"/>
	<path style="fill:#2E3577;" d="M965.622,905.788c-17.45,0-34.716,0-52.224,0c1.343-12.679,4.172-24.633,10.096-35.795
		c7.124-13.426,18.091-22.302,31.983-27.92c12.007-4.855,24.608-7.032,37.418-7.79c19.405-1.148,38.575,0.396,57.148,6.647
		c7.897,2.658,15.468,5.993,22.26,10.938c9.982,7.268,15.134,17.444,17.539,29.208c0.831,4.064,1.19,8.215,1.183,12.404
		c-0.051,28.487,0.133,56.976-0.083,85.462c-0.148,19.575-7.118,36.411-21.936,49.534c-9.481,8.396-20.71,13.733-32.724,17.495
		c-14.727,4.612-29.933,6.152-45.241,6.876c-11.329,0.536-22.644,0.213-33.844-1.803c-11.649-2.097-22.296-6.569-31.543-14.025
		c-10.479-8.449-16.068-19.815-18.343-32.796c-2.27-12.949-1.798-25.814,2.566-38.41c4.914-14.182,13.875-24.741,27.186-31.752
		c11.189-5.893,23.329-8.506,35.545-10.992c10.313-2.098,20.802-2.271,31.242-2.985c6.832-0.467,13.534-1.799,19.998-3.903
		c13.068-4.254,17.115-19.929,8.038-30.342c-1.665-1.911-3.672-3.271-6.135-4.093c-12.127-4.046-24.499-4.371-36.966-2.325
		c-12.039,1.976-18.889,9.56-21.812,21.087C966.532,902.249,966.083,903.987,965.622,905.788z M1037.838,949.222
		c-6.703,3.807-13.724,4.394-20.468,5.994c-6.778,1.607-13.441,3.788-20.383,4.609c-4.98,0.589-9.852,1.641-14.494,3.425
		c-9.41,3.617-16.055,9.945-18.14,20.175c-0.938,4.601-0.894,9.332-0.101,13.92c1.646,9.52,8.731,16.187,18.31,17.887
		c10.039,1.782,19.487-0.491,28.661-4.226c5.68-2.312,11.249-4.871,15.43-9.733c4.782-5.56,7.685-11.936,9.37-19.002
		c1.401-5.877,1.362-11.881,1.752-17.836C1038.087,959.678,1037.838,954.884,1037.838,949.222z"/>
	<path style="fill:#2E3577;" d="M889.552,914.904c-19.442,0-38.697,0-58.236,0c-0.451-3.939-1.068-7.828-2.308-11.607
		c-2.699-8.222-8.016-14.181-15.729-17.803c-14.665-6.887-36.996-6.092-50.106,6.429c-9.288,8.87-15.344,19.747-16.994,32.542
		c-2.692,20.872-1.752,41.5,5.575,61.54c5.364,14.671,15.983,22.246,31.202,24.234c5.708,0.746,11.347,0.434,16.908-0.442
		c12.938-2.039,21.761-9.29,26.08-21.801c1.522-4.409,2.452-8.953,3.199-13.851c19.252,0,38.484,0,58.056,0
		c0.076,6.268-1.609,12.154-3.408,17.921c-9.701,31.101-30.093,51.396-61.548,60.411c-14.915,4.274-30.04,5.194-45.459,3.815
		c-12.165-1.088-24.098-3.041-35.399-7.731c-26.476-10.987-42.563-31.197-50.246-58.293c-4.903-17.293-5.661-35.066-4.43-52.974
		c1.047-15.234,4.053-29.975,10.341-43.919c7.536-16.712,18.237-30.906,33.832-40.991c12.673-8.196,26.732-12.473,41.591-14.307
		c13.119-1.619,26.255-1.302,39.404-0.185c18.246,1.55,35.186,6.666,50.168,17.558c8.032,5.839,13.706,13.502,17.947,22.327
		C885.59,889.425,888.183,901.857,889.552,914.904z"/>
	<path style="fill:#2D3477;" d="M418.967,1393.988c-17.96-0.006-35.921-0.012-53.881-0.017c-0.064-1.827-0.183-3.653-0.183-5.48
		c-0.009-79.952,0.08-159.904-0.142-239.856c-0.023-8.141,2.111-15,6.925-21.266c7.482-9.739,16.297-17.587,28.924-19.758
		c5.928-1.019,11.91-0.324,17.629-0.42c1.325,1.141,0.908,2.389,0.909,3.488c0.025,93.61,0.028,187.221,0.023,280.831
		C419.17,1392.336,419.037,1393.162,418.967,1393.988z"/>
	<path style="fill:#2E3577;" d="M876.255,1393.609c-18.513,0-36.591,0-54.693,0c-1.089-1.126-0.609-2.53-0.61-3.792
		c-0.023-37.474-0.338-74.951,0.115-112.419c0.269-22.224,5.139-43.545,17.046-62.717c10.013-16.122,24.341-27.02,42.005-33.715
		c15.132-5.736,30.882-7.755,46.939-7.955c6.141-0.076,12.283-0.012,18.744-0.012c0,18.788,0,37.346,0,56.013
		c-0.979,1.108-2.399,0.578-3.656,0.594c-8.659,0.109-17.318,0.139-25.977,0.225c-3.85,0.038-7.614,0.754-11.299,1.795
		c-12.517,3.537-20.478,11.905-24.786,23.911c-2.719,7.577-3.795,15.495-3.805,23.52c-0.045,36.308-0.022,72.615-0.024,108.923
		C876.255,1389.777,876.255,1391.573,876.255,1393.609z"/>
	<path style="fill:#2E3577;" d="M611.782,1051.607c-18.023,0-36.105,0-54.447,0c-0.741-1.679-0.368-3.524-0.369-5.286
		c-0.028-33.815,0.201-67.631-0.134-101.442c-0.128-12.913,0.642-25.595,4.259-37.999c6.605-22.657,18.869-41.335,39.049-54.179
		c11.61-7.389,24.321-12.101,37.856-14.66c10-1.891,20.07-2.922,30.24-3.005c2.098-0.017,4.239-0.475,5.968,1.564
		c0.557,0.657,2.174,0.414,3.586,0.624c0,18.168,0,36.386,0,54.921c-8.302-0.696-16.414-0.814-24.502-0.068
		c-7.878,0.727-15.321,2.962-22.004,7.304c-11.812,7.674-17.238,19.007-18.21,32.685c-0.507,7.136-0.844,14.287-0.827,21.458
		c0.072,30.816,0.039,61.632,0.013,92.448C612.257,1047.766,612.627,1049.612,611.782,1051.607z"/>
	<path style="fill:#2D3477;" d="M478.18,1181.331c18.095,0,35.836,0,53.783,0c0,70.609,0,140.974,0,211.658
		c-17.848,0-35.584,0-53.374,0C477.644,1389.548,477.19,1193.703,478.18,1181.331z"/>
	<path style="fill:#2E3577;" d="M478.162,1107.23c18.061,0,35.651,0,53.21,0c1.07,3.886,1.429,33.146,0.602,48.501
		c-17.831,0-35.683,0-53.812,0C478.162,1139.714,478.162,1123.685,478.162,1107.23z"/>
	<path style="fill:#FDE501;" d="M928.779,485.212c34.426,5.203,64.914-20.751,64.698-49.46c4.915,0.584,9.824,0.507,14.733,0.338
		c21.509-0.742,41.54-17.82,45.366-38.842c1.475-8.107-0.118-15.87-3.082-23.417c-0.777-1.977-1.675-3.907-2.694-6.266
		c10.554-4.211,20.747-8.557,31.134-12.375c50.002-18.378,100.862-33.949,152.717-46.216c2.906-0.687,5.811-1.377,8.707-2.105
		c1.965-0.494,1.989-0.554,3.229-2.967c3.306,46.041-8.456,88.271-32.964,127.157c-20.688,32.826-47.575,59.789-78.477,83.014
		c-37.091,27.877-77.996,48.566-121.265,64.794c-32.368,12.14-65.641,21.221-99.559,27.822c-18.754,3.65-37.665,6.396-56.679,8.438
		c-20.708,2.223-41.462,3.363-62.271,4.101c-17.675,0.627-35.329,0.207-52.949-0.587c-17.77-0.801-35.523-2.217-53.211-4.482
		c-25.063-3.209-49.948-7.274-74.515-13.192c-33.59-8.092-66.494-18.324-98.242-32.042c-39.705-17.156-77.033-38.321-110.49-65.97
		c-26.79-22.14-49.861-47.538-67.73-77.446c-13.056-21.851-22.258-45.274-26.821-70.338c-3.017-16.571-4.452-33.324-2.603-50.196
		c0.072-0.657,0.067-1.331,0.917-2.059c14.786,3.358,29.833,6.627,44.805,10.209c26.779,6.405,53.285,13.777,79.321,22.796
		c19.454,6.739,38.484,14.43,56.718,24.045c6.029,3.18,11.869,6.625,17.416,10.596c0.469,1.569-0.248,2.922-0.572,4.353
		c-2.399,10.576-2.613,21.047,1.321,31.39c6.611,17.38,23.084,29.256,41.636,29.849c3.652,0.117,7.32,0.401,11.457-0.728
		c2.552,9.046,5.838,17.893,12.259,25.067c6.437,7.193,14.361,12.364,23.318,15.828c8.996,3.478,18.326,4.488,28.202,2.345
		c4.791,12.786,14.343,20.447,26.116,26.184c11.787,5.743,23.636,7.41,36.445,2.771c8.378,17.75,21.565,29.799,41.122,33.505
		c19.554,3.706,36.452-1.83,50.467-16.185c6.943,3.811,14.03,6.981,21.351,9.657c11.631,4.251,23.695,5.449,35.861,4.272
		c8.287-0.802,16.152-3.586,22.892-8.92c3.169-2.508,5.81-5.412,8.003-9.245c13.719,3.441,27.147,3.127,39.406-4.604
		C915.987,508.713,926.649,500.249,928.779,485.212z"/>
	<path style="fill:#FDE501;" d="M679.08,140.886c-20.842-0.223-40.626,5.852-60.401,11.41c-18.851,5.298-37.874,7.084-57.241,5.526
		c-8.59-0.691-16.994-2.877-25.404-4.85c-33.934-7.962-67.233-18.014-99.938-30.045c-3.399-1.25-6.714-2.727-10.408-4.238
		c17.187-12.233,34.793-22.851,53.119-32.349c38.928-20.174,79.845-35.054,122.248-45.849c20.744-5.281,41.731-9.523,62.95-12.669
		c17.291-2.564,34.628-4.412,52.025-5.97c23.083-2.067,46.216-3.046,69.355-2.458c15.79,0.401,31.607,0.718,47.376,2.348
		c13.566,1.403,27.176,2.421,40.692,4.276c39.22,5.382,77.771,13.834,115.38,26.225c40.969,13.497,80.166,30.948,116.64,54.153
		c8.555,5.443,16.754,11.445,25.12,17.186c0.824,0.566,1.694,1.075,2.088,1.976c-7.85,3.078-15.618,6.408-23.578,9.188
		c-20.555,7.18-41.528,12.648-63.195,15.428c-16.763,2.151-33.588,2.441-50.357,1.506c-22.46-1.253-44.391-5.903-65.747-13.071
		c-11.017-3.697-21.68-8.268-32.177-13.229c-19.735-9.325-40.351-15.957-61.716-20.339c-19.199-3.938-38.507-4.93-58.077-3.395
		c-17.68,1.386-34.854,4.64-51.44,10.892C708.968,119.108,693.266,128.595,679.08,140.886z"/>
	<path style="fill:#E5D234;" d="M308.767,282.132c6.357,1.08,12.371,3.472,18.647,4.87c17.891,3.986,35.716,8.252,53.402,13.066
		c37.202,10.126,73.973,21.48,108.604,38.807c9.352,4.679,18.398,9.871,26.764,16.184c-0.19,0.741-0.765,1.032-1.744,1.314
		c-6.151-4.391-12.662-8.614-19.559-12.224c-20.768-10.871-42.429-19.637-64.603-27.115c-33.32-11.237-67.273-20.239-101.556-28.018
		c-5.988-1.359-11.805-3.298-17.641-5.169C310.152,283.549,309.182,283.182,308.767,282.132z"/>
	<path style="fill:#E5D234;" d="M594.477,353.862c8.469-4.793,17.686-6.427,27.219-5.626c9.643,0.81,18.975,3.028,27.114,8.761
		c4.7,3.311,8.402,7.535,11.591,12.258c0.573,0.849,0.936,1.756,0.594,2.806c-1.662-0.64-2.291-2.279-3.299-3.517
		c-8.886-10.911-20.745-16.065-34.374-17.532c-8.935-0.962-17.834-0.64-26.422,2.54
		C596.155,353.827,595.287,353.766,594.477,353.862z"/>
	<path style="fill:#E5D234;" d="M526.895,347.71c1.154-2.314,3.555-2.818,5.622-3.609c17.896-6.852,37.956-2.891,51.151,12.922
		c0.717,0.859,1.308,1.977,2.673,2.017c-0.368,0.854-1.147,1.091-2.068,1.331c-4.885-5.145-10.253-9.77-16.89-12.678
		c-11.737-5.141-23.693-5.324-35.796-1.486C530.023,346.703,528.574,347.561,526.895,347.71z"/>
	<path style="fill:#E5D234;" d="M662.923,375.003c3.156,0.772,5.733-1.168,8.578-1.846c9.115-2.172,17.952-1.145,26.852,1.554
		c8.098,2.456,15.381,6.032,21.195,12.251c1.068,1.142,2.767,2.007,2.525,4.019c-9.758-10.305-22.348-14.503-35.898-16.557
		c-6.713-1.017-13.23,0.359-19.697,1.991C664.921,376.808,663.128,377.949,662.923,375.003z"/>
	<path style="fill:#CDBD44;" d="M733.663,429.824c7.563,0.675,15.114,1.278,22.299,4.144c4.653,1.857,8.961,4.238,13.018,7.132
		c0.666,0.475,1.423,0.903,1.028,1.941c-1.312,0.08-2.064-0.925-3.011-1.552c-9.202-6.095-19.175-9.742-30.355-9.592
		c-0.976,0.013-2.005,0.182-2.943-0.415C733.58,430.945,732.854,430.415,733.663,429.824z"/>
	<path style="fill:#CDBD44;" d="M800.953,516.995c1.333-0.456,2.69-0.133,3.873,0.305c8.421,3.123,17.151,3.916,26.035,3.683
		c-3.046,1.971-6.459,1.08-9.642,0.905C814.207,521.502,807.279,520.393,800.953,516.995z"/>
	<path style="fill:#CDBD44;" d="M786.598,508.972c1.534,1.78,3.84,2.235,5.742,3.379c1.297,0.78,3.144,0.862,3.691,2.685
		c-3.666-0.738-6.928-2.36-9.902-4.582c-0.139-0.104,0.094-0.627,0.033-0.931C786.069,509.05,786.165,508.876,786.598,508.972z"/>
	<path style="fill:#E5D234;" d="M824.952,464.008c3.774,1.202,6.567,3.643,8.055,7.04
		C829.692,469.422,827.142,466.922,824.952,464.008z"/>
	<path style="fill:#E5D234;" d="M817.96,457.974c4.011,1.237,5.643,2.646,7.034,6.072
		C822.015,462.757,819.778,460.608,817.96,457.974z"/>
	<path style="fill:#CDBD44;" d="M769.956,443c3.427,1.308,6.402,4.244,8.104,8.002C775.124,448.572,772.326,446.003,769.956,443z"/>
	<path style="fill:#CDBD44;" d="M1239.736,285.756c-0.303-0.694,0.416-0.451,0.621-0.679c2.515,2.302,1.158,5.455,1.411,8.294
		C1241.091,290.833,1240.413,288.295,1239.736,285.756z"/>
	<path style="fill:#E5D234;" d="M834.981,472.953c3.861,1.036,5.819,4.208,8.003,7.126
		C839.56,478.553,837.248,475.778,834.981,472.953z"/>
	<path style="fill:#BFC0D5;" d="M411.797,125.782c1.293-1.596,2.846-2.818,5.643-4.221c-1.056,3.323-3.11,4.074-4.899,5.082
		C412.293,126.356,412.045,126.069,411.797,125.782z"/>
	<path style="fill:#CDBD44;" d="M795.95,514.992c2.02-0.134,3.948-0.039,5.08,2.04C798.963,517.281,797.39,516.303,795.95,514.992z"
		/>
	<path style="fill:#E5D234;" d="M842.923,480.025c1.871,0.157,2.958,1.109,3.077,3.04
		C844.404,482.629,843.274,481.721,842.923,480.025z"/>
	<path style="fill:#E5D234;" d="M854.066,491.291c1.861-0.022,2.706,0.965,2.734,2.759
		C855.889,493.13,854.977,492.21,854.066,491.291z"/>
	<path style="fill:#BFC0D5;" d="M412.541,126.643c-0.628,0.76-1.318,1.426-2.364,1.547c-0.207-0.23-0.406-0.466-0.597-0.709
		c0.57-0.786,1.232-1.452,2.216-1.699C412.045,126.069,412.293,126.356,412.541,126.643z"/>
	<path style="fill:#E5D234;" d="M849.986,487.212c1.327-0.093,1.968,0.493,1.829,1.849
		C851.206,488.445,850.596,487.829,849.986,487.212z"/>
	<path style="fill:#E5D234;" d="M856.951,494.201c1.266-0.106,1.947,0.381,1.765,1.742
		C858.127,495.362,857.539,494.781,856.951,494.201z"/>
	<path style="fill:#E5D234;" d="M660.94,371.989c1.371,0.122,1.261,1.065,1.121,2.024
		C661.206,373.605,660.806,372.945,660.94,371.989z"/>
	<path style="fill:#BFC0D5;" d="M407.919,128.923c0.211-0.876,1.01-1.074,1.662-1.442c0.191,0.243,0.39,0.479,0.597,0.709
		c-0.329,0.812-1.046,0.996-1.804,1.114C408.215,129.185,408.063,129.059,407.919,128.923z"/>
	<path style="fill:#E5D234;" d="M851.937,489.188c0.543-0.015,0.82,0.248,0.829,0.791
		C852.49,489.716,852.213,489.452,851.937,489.188z"/>
	<path style="fill:#E5D234;" d="M847.951,484.968c0.915-0.002,1.231,0.481,1.083,1.339
		C848.484,486.013,847.972,485.689,847.951,484.968z"/>
	<path style="fill:#E5D234;" d="M846.94,483.986c0.779-0.073,1.131,0.292,1.092,1.061
		C847.346,485.025,846.951,484.703,846.94,483.986z"/>
	<path style="fill:#E5D234;" d="M845.934,482.997c0.783-0.077,1.135,0.286,1.082,1.061
		C846.303,484.065,845.909,483.745,845.934,482.997z"/>
	<path style="fill:#E5D234;" d="M833.965,471.965c0.933-0.241,1.321,0.081,1.084,1.048
		C834.367,472.996,833.994,472.658,833.965,471.965z"/>
	<path style="fill:#CDBD44;" d="M778.001,450.941c0.881-0.115,1.106,0.593,1.448,1.154
		C778.621,452.144,778.135,451.762,778.001,450.941z"/>
	<path style="fill:#E5D234;" d="M722.03,390.932c0.893-0.128,1.113,0.597,1.461,1.157
		C722.726,392.054,722.196,391.723,722.03,390.932z"/>
	<path style="fill:#E5D234;" d="M662.017,373.936c0.884-0.095,0.934,0.515,0.964,1.141
		C662.174,375.107,662.049,374.561,662.017,373.936z"/>
	<path style="fill:#BFC0D5;" d="M407.684,130.071c0,0-0.425,0.017-0.425,0.017l-0.387-0.177c0.058-0.638,0.449-0.923,1.047-0.987
		c0.144,0.135,0.296,0.262,0.455,0.381C408.144,129.559,407.914,129.815,407.684,130.071z"/>
	<path style="fill:#E5D234;" d="M832.949,470.992c0.966-0.283,1.303,0.091,1.088,1.041
		C833.355,472.019,832.945,471.722,832.949,470.992z"/>
	<path style="fill:#E5D234;" d="M816.725,457.066c0.795-0.159,1.477-0.164,1.306,0.973
		C817.341,458.057,816.94,457.686,816.725,457.066z"/>
</g>
</svg>
