<?xml version="1.0" encoding="iso-8859-1"?>
<!-- Generator: Adobe Illustrator 27.0.0, SVG Export Plug-In . SVG Version: 6.00 Build 0)  -->
<svg version="1.1" id="Layer_1" xmlns="http://www.w3.org/2000/svg" xmlns:xlink="http://www.w3.org/1999/xlink" x="0px" y="0px"
	 viewBox="0 0 1459 1699" style="enable-background:new 0 0 1459 1699;" xml:space="preserve">
<g>
	<path style="fill:#327DBF;" d="M0,1152c0-9.667,0-19.333,0-29c1.755-4.252,0.909-8.689,0.932-13.065
		c0.474-10.328,1.823-20.572,3.452-30.758c3.605-22.532,8.7-44.733,15.67-66.48c3.859-12.041,7.641-24.151,13.081-35.569
		c15.088-31.667,33.427-61.366,54.808-89.199c23.063-30.023,47.487-58.863,73.851-86.046c18.455-19.028,37.738-37.171,57.497-54.846
		c22.354-19.997,44.897-39.776,67.758-59.181c41.919-35.582,85.227-69.452,128.549-103.295
		c29.144-22.767,58.356-45.447,86.748-69.157c13.17-10.998,26.058-22.351,39.524-32.973c27.887-21.998,54.788-45.115,80.491-69.615
		c36.597-34.883,70.626-72.115,102.136-111.674c36.119-45.347,71.982-90.882,105.806-137.987
		c34.538-48.099,75.397-90.109,121.807-126.84c20.835-16.49,43.713-28.45,69.842-33.921C1025.314,1.69,1028.849,1.62,1032,0
		c24.667,0,49.333,0,74,0c0.581,0.279,1.137,0.721,1.746,0.812c18.696,2.803,36.537,8.569,54.156,15.246
		c28.518,10.807,55.028,25.254,79.493,43.419c20.152,14.962,37.957,32.383,54.248,51.489c24.41,28.629,45.924,59.217,63.418,92.514
		c23.685,45.083,41.287,92.632,55.77,141.355c7.632,25.675,14.032,51.673,18.517,78.119c2.725,16.07,5.104,32.21,8.749,48.109
		c2.083,9.088,3.96,18.193,5.186,27.445c1.051,7.935,1.402,15.916,2.096,23.873c0.753,8.623,1.832,17.218,2.524,25.844
		c1.225,15.269,2.322,30.549,3.37,45.832c1.368,19.941,2.484,39.895,2.771,59.887c0.03,11.269,0.059,22.537,0.089,33.806
		c0.002,0.86,0.24,1.629,0.866,2.248c0,13.667,0,27.333,0,41c-0.575,0.649-0.803,1.42-0.808,2.274
		c-0.047,7.924-0.096,15.848-0.145,23.771c0.021,6.17-0.521,12.311-0.873,18.463c-1.121,19.614-1.896,39.254-4.244,58.775
		c-1.669,13.878-3.552,27.729-5.351,41.591c-2.184,16.832-4.374,33.663-6.572,50.493c-1.788,13.689-3.223,27.423-5.545,41.043
		c-2.907,17.054-5.581,34.149-8.516,51.198c-2.904,16.871-5.203,33.828-9.465,50.482c-8.822,34.475-17.185,69.069-25.529,103.664
		c-7.644,31.692-15.591,63.28-25.866,94.259c-8.596,25.915-18.982,51.124-28.982,76.497c-12.416,31.504-27.19,61.798-44.976,90.634
		c-9.978,16.176-21.153,31.51-32.104,47.013c-28.967,41.005-63.424,76.635-103.524,106.876
		c-20.772,15.665-42.234,30.219-64.966,42.889c-30.066,16.758-61.928,29.13-94.59,39.808
		c-42.319,13.834-85.579,22.343-129.983,25.099c-16.954,1.052-33.911,2.157-50.909,2.283c-9.706,0.006-19.411,0.013-29.116,0.019
		c-2.486-0.223-4.974-0.427-7.459-0.672c-11.588-1.139-23.177-2.256-34.76-3.445c-10.095-1.036-20.246-1.75-30.256-3.338
		c-15.109-2.396-30.14-5.307-45.163-8.215c-33.342-6.455-66.183-14.912-98.619-24.969c-27.027-8.381-53.8-17.559-79.712-28.896
		c-24.837-10.867-49.293-22.62-73.671-34.512c-46.388-22.629-91.825-47.065-136.777-72.383
		c-55.379-31.192-106.116-68.842-152.975-111.758c-14.516-13.295-28.497-27.113-40.984-42.343
		c-34.013-41.489-58.53-88-73.046-139.678c-5.585-19.883-9.668-40.084-11.803-60.674C1.185,1162.171,1.735,1156.945,0,1152z
		 M971.845,1028.736c0,11.54,0.074,22.034-0.021,32.525c-0.096,10.54-1.435,20.938-4.754,30.969
		c-3.852,11.643-10.452,21.45-21.84,26.676c-18.738,8.599-37.736,8.76-56.341-0.648c-8.181-4.137-14.665-10.239-18.951-18.558
		c-2.38-4.62-4.284-9.378-5.659-14.371c-0.436-1.581-0.474-3.319-1.799-4.664c-16.056,0-32.166,0-48.174,0
		c-0.634,1.577-0.372,2.921-0.166,4.214c2.306,14.458,6.944,27.992,14.929,40.43c14.72,22.929,36.033,35.862,62.066,41.839
		c12.458,2.86,25.119,2.82,37.783,1.973c16.4-1.097,31.637-6.027,45.823-14.279c9.306-5.413,17.116-12.586,24.524-20.326
		c8.61-8.997,14.637-19.42,17.738-31.397c2.414-9.322,4.756-18.727,4.178-28.529c-0.078-1.315,0.202-2.65,0.3-3.976
		c0.602-8.131,2.376-16.138,2.373-24.339c-0.025-68.818-0.006-137.635-0.024-206.453c0-1.265,0.443-2.696-0.733-3.657
		c-17.002,0-33.92,0-51.427,0c0,7.943,0,15.572,0,23.412c-0.744-0.306-0.933-0.33-1.039-0.435c-0.823-0.819-1.642-1.643-2.442-2.486
		c-10.946-11.533-24.183-19.197-39.53-23.19c-13.096-3.407-26.377-3.456-39.637-1.318c-17.143,2.764-32.448,9.831-45.765,20.959
		c-17.2,14.372-27.363,33.289-34.048,54.257c-4.861,15.247-5.789,31.006-5.281,46.911c0.304,9.549,1.913,18.858,4.5,28.018
		c5.003,17.716,14.751,32.689,27.014,46.139c10.492,11.508,22.787,20.341,37.771,25.238c10.916,3.567,22.075,4.657,33.478,4.45
		c19.863-0.361,37.365-7.182,53.246-18.809C963.961,1036.363,967.467,1032.866,971.845,1028.736z M277.276,1050.502
		c16.554,0,32.767,0,48.84,0c0.73-1.614,0.481-2.963,0.481-4.272c0.015-33.661,0.013-67.323,0.007-100.984
		c0-1.165,0.026-2.341-0.108-3.495c-1.919-16.546,1.252-32.156,8.654-46.973c6.099-12.209,15.842-19.124,29.631-19.496
		c9.842-0.265,18.172,3.163,24.464,11.142c4.903,6.217,7.209,13.423,8.878,20.951c2.4,10.827,2.253,21.834,2.259,32.824
		c0.021,34.994-0.001,69.989,0.033,104.983c0.002,1.777-0.507,3.658,0.543,5.3c16.305,0,32.537,0,48.849,0
		c0.081-1.184,0.186-2.005,0.186-2.826c-0.029-36.994,0.14-73.989-0.204-110.98c-0.145-15.633,2.573-30.451,9.275-44.538
		c2.329-4.894,5.62-9.026,10.271-11.956c10.942-6.894,22.47-6.688,34-2.138c4.963,1.958,9.275,5.456,11.343,10.729
		c4.539,11.572,7.092,23.614,7.126,36.045c0.11,39.993,0.034,79.987,0.062,119.981c0.001,1.921-0.433,3.947,0.714,6.05
		c16.146,0,32.215,0.012,48.276-0.008c0.149-1.384,0.283-2.042,0.282-2.7c-0.041-46.492,0.129-92.986-0.277-139.476
		c-0.125-14.354-2.878-28.454-8.779-41.768c-7.728-17.434-20.612-28.637-39.217-33.29c-9.304-2.327-18.697-2.901-28.229-2.702
		c-19.016,0.398-35.278,7.223-49.108,20.237c-3.651,3.436-6.765,7.302-9.853,11.114c-1.778-0.766-2.318-2.242-3.118-3.474
		c-6.617-10.205-15.5-17.775-26.61-22.666c-9.459-4.165-19.401-6.209-29.697-4.953c-7.585,0.925-15.069,2.683-22.6,4.054
		c-1.674,0.305-3.136,1.028-4.549,1.959c-6.991,4.609-13.347,9.947-18.936,16.196c-0.84,0.94-1.352,2.365-3.192,2.412
		c-1.01-6.503,0.308-13.148-0.759-19.71c-16.454,0-32.558,0-48.939,0C277.276,907.564,277.276,978.823,277.276,1050.502z
		 M746.919,862.94c-1.598-1.748-2.392-2.589-3.157-3.456c-8.753-9.923-19.382-17.179-31.581-22.195
		c-15.651-6.435-31.877-7.778-48.514-5.451c-18.766,2.626-35.009,10.725-48.448,23.831c-15.811,15.419-26.378,34.167-32.312,55.461
		c-5.085,18.249-6.059,36.763-2.643,55.378c3.316,18.069,10.162,34.793,20.707,49.896c15.961,22.86,37.508,37.045,65.312,40.772
		c29.946,4.014,55.889-4.683,77.625-25.757c0.773-0.749,1.305-2.006,2.937-1.654c0,3.47-0.046,6.964,0.013,10.455
		c0.059,3.426-0.294,6.887,0.256,10.191c8.398,0.977,48.177,0.639,51.439-0.339c0-71.281,0-142.521,0-213.714
		c-6.118-0.944-47.895-0.705-51.636,0.31C746.919,845.07,746.919,853.54,746.919,862.94z M1273.447,976.893
		c-4.328,4.928-8.273,9.645-12.462,14.133c-5.58,5.978-11.446,11.935-18.677,15.664c-13.579,7.002-28.293,8.733-43.254,5.769
		c-19.568-3.876-34.286-14.527-43.701-32.427c-6.729-12.793-9.592-26.4-8.005-40.546c2.158-19.238,10.379-35.76,25.746-48.021
		c13.827-11.032,29.28-17.67,47.516-15.548c10.594,1.233,20.51,4.009,28.801,11.262c6.656,5.823,13.116,11.794,18.669,18.709
		c1.453,1.809,2.76,3.89,5.368,5.292c0-22.313,0-43.94,0-65.502c-15.678-8.728-32.408-13.352-50.049-14.563
		c-22.196-1.524-43.394,2.451-63.55,12.054c-21.054,10.031-37.804,24.652-49.343,45.068c-12.365,21.878-17.508,45.388-14.167,70.22
		c3.616,26.874,14.937,50.154,35.121,68.875c20.909,19.393,45.454,29.667,73.893,30.814c23.926,0.965,46.66-3.522,68.092-14.786
		C1273.447,1021.391,1273.447,999.414,1273.447,976.893z M1090.345,1050.624c0-71.652,0-143.043,0-214.854
		c-17.361,0.039-34.406-0.056-51.365,0.058c-1.071,9.682-0.651,211.329,0.36,214.796
		C1056.282,1050.624,1073.218,1050.624,1090.345,1050.624z M1064.391,781.105c16.776,0.492,34.332-16.066,33.23-33.629
		c-1.185-18.886-11.972-30.738-33.184-32.542c-15.915-1.353-33.399,15.706-33.139,32.173
		C1031.593,765.778,1045.786,780.218,1064.391,781.105z M1337.901,791.059c-0.823-19.768-15.357-34.511-34.966-34.377
		c-19.605,0.134-34.33,15.202-34.133,33.946c0.199,18.919,15.332,34.735,34.884,34.975
		C1323.005,825.84,1337.183,810.744,1337.901,791.059z"/>
	<path style="fill:#7DA1D3;" d="M1458.045,653.947c0.309,0.182,0.628,0.2,0.955,0.053c0,12,0,24,0,36
		c-0.626-0.619-0.864-1.387-0.866-2.248C1458.104,676.484,1458.075,665.215,1458.045,653.947z"/>
	<path style="fill:#B6C7E6;" d="M787,1699c0.013-0.291-0.008-0.58-0.063-0.867c9.706-0.006,19.411-0.013,29.116-0.019
		c-0.071,0.292-0.089,0.588-0.054,0.886C806.333,1699,796.667,1699,787,1699z"/>
	<path style="fill:#8CAAD7;" d="M1459,757l-0.481-0.085c0,0-0.471,0.131-0.471,0.131c0.048-7.924,0.098-15.848,0.145-23.771
		c0.005-0.854,0.232-1.625,0.808-2.274C1459,739.667,1459,748.333,1459,757z"/>
	<path style="fill:#8CAAD7;" d="M0,1110c0.318,0.079,0.628,0.058,0.932-0.065C0.909,1114.311,1.755,1118.748,0,1123
		C0,1118.667,0,1114.333,0,1110z"/>
	<path style="fill:#337DBF;" d="M974.136,945.524c0.556,14.363-2.837,28.183-10.034,41.212
		c-5.845,10.582-14.664,17.701-25.469,22.223c-23.113,9.674-44.291,5.516-63.422-10.188c-6.083-4.993-9.769-11.789-12.729-18.89
		c-8.671-20.8-9.484-42.038-2.43-63.406c3.166-9.591,8.71-18.031,15.552-25.396c12.142-13.069,27.57-17.276,44.951-15.623
		c18.292,1.739,31.422,11.593,41.672,26.175C971.418,914.707,975.017,929.252,974.136,945.524z"/>
	<path style="fill:#337DBF;" d="M630.682,942.886c-0.891-14.592,3.164-28.284,11.584-40.612
		c8.389-12.283,18.955-21.788,33.937-25.47c9.128-2.244,18.191-1.929,27.17,0.267c18.356,4.49,32.001,15.028,40.178,32.271
		c7.104,14.98,10.18,30.725,7.279,47.114c-3.051,17.231-9.407,33.097-23.742,44.297c-16.945,13.24-35.857,16.807-56.404,9.937
		c-20.71-6.924-32.15-22.186-37.48-42.64C631.098,959.967,630.257,951.683,630.682,942.886z"/>
	<path style="fill:#397FC0;" d="M1303.377,761.706c16.647,0.252,29.366,13.046,29.46,30.15
		c0.088,15.981-14.001,29.339-30.096,29.053c-16.469-0.292-29.416-13.896-29.04-30.511
		C1274.068,774.178,1287.362,761.325,1303.377,761.706z M1305.748,791.405c3.292,6.59,6.474,12.96,9.591,19.198
		c1.696,0.479,3.112,0.739,4.788-0.304c-3.026-6.203-6.05-12.4-9.239-18.936c3.048-0.317,5.409-1.043,7.599-2.262
		c3.66-2.038,4.842-5.3,4.427-9.257c-0.419-3.995-2.825-6.943-6.826-7.569c-8.212-1.283-16.488-1.073-24.98-0.748
		c0,13.276,0,26.15,0,39.315c1.67,0.01,3.079,0.568,4.605-0.528c0.522-6.2-0.295-12.487,0.503-18.909
		C1299.438,791.405,1302.378,791.405,1305.748,791.405z"/>
	<path style="fill:#397FC0;" d="M1296.179,788.614c-0.462-5-0.324-9.558-0.141-14.587c4.612,0,8.889-0.229,13.13,0.069
		c3.706,0.26,6.172,3.433,6.195,7.187c0.024,3.859-1.817,6.011-5.827,6.773C1305.289,788.863,1301.017,789.009,1296.179,788.614z"/>
</g>
</svg>
