<?xml version="1.0" encoding="iso-8859-1"?>
<!-- Generator: Adobe Illustrator 27.0.0, SVG Export Plug-In . SVG Version: 6.00 Build 0)  -->
<svg version="1.1" id="Layer_1" xmlns="http://www.w3.org/2000/svg" xmlns:xlink="http://www.w3.org/1999/xlink" x="0px" y="0px"
	 viewBox="0 0 1758 559" style="enable-background:new 0 0 1758 559;" xml:space="preserve">
<g>
	<path style="fill:#CF3C28;" d="M837,559c-2.346-1.838-5.27-1.47-7.927-1.901c-25.495-4.132-47.889-14.701-66.703-32.41
		c-19.694-18.538-32.412-41.106-37.785-67.696c-1.618-8.009-2.534-16.105-2.534-24.287c-0.002-103.144-0.236-206.289,0.161-309.432
		c0.109-28.32,10.324-53.592,27.925-75.808C767.262,25.85,789.429,11.929,815.87,4.66c6.724-1.849,13.572-3.28,20.577-3.719
		C837.363,0.884,838.505,1.268,839,0c1,0,2,0,3,0c0.923,1.9,2.642,0.983,3.974,0.984c87.874,0.035,175.748,0.021,263.621,0.016
		c15.811-0.001,31.621,0.038,47.432-0.016c1.333-0.005,3.051,0.916,3.974-0.983c1,0,2,0,3,0c0.209,0.774,0.792,0.932,1.497,0.955
		c6.684,0.219,13.2,1.517,19.667,3.108c25.667,6.315,47.321,19.515,64.511,39.402c21.175,24.498,31.166,53.461,31.194,85.752
		c0.087,100.779,0.026,201.559,0.04,302.338c0.001,8.015-0.594,16.009-2.185,23.826c-7.526,36.97-27.131,65.77-59.488,85.325
		c-17.133,10.354-35.843,16.522-56.053,17.417c-3.99-0.04-7.981-0.116-11.971-0.116c-89.088-0.007-178.176-0.004-267.264-0.006
		c-12.655,0-25.311-0.043-37.966,0.018c-1.335,0.006-3.052-0.913-3.98,0.98C840.333,559,838.667,559,837,559z M1115.175,360.726
		c-0.013,2.533-1.062,4.077-1.757,5.731c-7.839,18.65-15.644,37.316-21.058,56.857c-4.584,16.545-7.768,33.31-7.679,50.587
		c0.054,10.566,2.185,20.49,8.543,29.126c6.697,9.097,15.958,12.185,26.813,10.273c9.036-1.591,12.878-7.559,11.303-16.653
		c-1.499-8.658-4.021-17.099-4.796-25.93c-0.937-10.675-1.385-21.377,0.677-31.849c4.619-23.455,11.299-46.375,19.362-68.89
		c7.951-22.202,17.541-43.657,28.136-64.73c19.087-37.959,37.853-76.077,59.274-112.804c2.152-3.69,3.229-7.672,3.604-11.809
		c0.569-6.3-3.571-11.45-9.699-12.52c-10.408-1.817-19.539,2.549-24.767,11.822c-11.664,20.686-23.339,41.366-35.006,62.049
		c-9.3,16.487-18.72,32.907-27.831,49.497c-3.535,6.438-7.146,12.745-11.997,18.297c-2.896,3.315-6.253,6.104-10.268,7.758
		c-9.464,3.899-16.216,0.585-18.32-8.655c-1.429-6.275-1.313-12.617-0.262-18.849c1.656-9.814,4.276-19.429,7.05-28.99
		c6.998-24.125,16.434-47.28,27.811-69.655c1.734-3.409,3.502-6.818,4.275-10.576c1.182-5.741,1.259-11.573-3.439-15.815
		c-5.953-5.375-16.083-8.235-24.155-1.738c-3.541,2.85-6.518,6.147-8.996,9.95c-5.915,9.077-10.061,19.074-14.843,28.726
		c-10.317,20.824-20.548,41.662-33.243,61.206c-12.141,18.691-24.577,37.172-37.569,55.281c-1.685,2.348-3.438,4.451-6.508,4.597
		c-2.569-1.672-2.247-4.076-1.945-6.381c0.951-7.248,1.956-14.49,2.991-21.727c2.845-19.9,6.947-39.555,11.683-59.079
		c2.461-10.146,5.173-20.23,7.651-30.372c1.986-8.13-0.416-15.132-7.159-19.798c-6.615-4.578-14.057-4.363-21.273-0.776
		c-3.947,1.962-6.985,5.043-9.873,8.303c-10.836,12.232-20.383,25.453-29.803,38.771c-13.253,18.737-25.866,37.905-38.436,57.103
		c-0.783,1.195-1.275,2.812-3.141,2.851c-1.994-2.718-2.155-3.436-1.066-7.744c5.201-20.583,11.742-40.773,18.046-61.03
		c3.842-12.346,7.897-24.627,11.754-36.969c2.039-6.524,0.32-13.091-4.163-16.317c-7.544-5.428-17.554-5.429-24.657-0.02
		c-2.554,1.945-4.623,4.312-6.508,6.861c-8.011,10.835-16.011,21.679-23.999,32.531c-13.413,18.223-26.808,36.458-40.223,54.68
		c-1.655,2.249-3.348,4.496-6.689,4.679c-1.229-2.474-0.808-4.907-0.37-7.332c3.306-18.296,6.758-36.566,9.875-54.894
		c1.643-9.657,3.119-19.331,1.541-29.259c-1.623-10.216-7.355-16.374-17.451-17.382c-3.134-0.313-6.313,0.038-9.366,0.844
		c-11.002,2.904-19.844,9.101-26.832,17.994c-8.17,10.397-14.242,21.997-19.408,34.111c-0.992,2.327-1.598,4.81-1.638,7.253
		c-0.122,7.306,1.882,12.703,9.117,15.475c6.885,2.638,11.738,1.61,16.92-4.236c2.792-3.15,4.488-6.974,6.609-10.538
		c1.783-2.996,3.389-6.122,6.068-8.484c1.522-1.342,3.044-2.624,5.279-1.797c1.267,1.56,0.703,3.195,0.317,4.796
		c-6.793,28.212-13.751,56.385-20.336,84.646c-3.951,16.957-8.598,33.755-11.866,50.866c-2.223,11.639,6.931,21.913,18.711,21.493
		c6.467-0.231,11-3.538,14.43-8.527c4.047-5.886,7.987-11.868,11.582-18.036c11.82-20.276,24.876-39.724,38.845-58.565
		c3.365-4.539,7.089-8.815,10.694-13.173c1.016-1.228,2.104-2.571,4.233-1.593c0,0.737,0.082,1.396-0.012,2.029
		c-1.726,11.667-3.442,23.336-5.224,34.994c-2.158,14.118-4.462,28.215-6.535,42.346c-1.141,7.78,2.02,15.266,7.76,18.156
		c7.117,3.583,15.866,2.844,20.818-1.262c5.391-4.471,10.345-9.444,13.788-15.665c3.235-5.847,7.295-11.112,11.335-16.395
		c16.67-21.801,33.394-43.562,47.129-67.414c0.466-0.81,0.815-1.843,2.048-1.612c1.126,0.725,0.914,1.733,0.717,2.718
		c-3.405,17.002-4.41,34.272-5.897,51.496c-0.559,6.478-0.555,12.988-1.279,19.432c-0.548,4.873-0.456,9.669,0.483,14.407
		c2.365,11.928,11.749,18.035,21.001,17.428c10.177-0.667,18.65-4.696,24.812-12.889c11.803-15.689,23.437-31.505,35.155-47.258
		c3.433-4.615,6.912-9.196,10.37-13.793c-0.755,5.931-1.639,11.646-1.891,17.426c-0.47,10.807,1.199,21.189,6.438,30.824
		c6.799,12.505,19.969,17.853,31.165,16.134C1106.384,362.702,1110.511,361.606,1115.175,360.726z"/>
	<path style="fill:#1F4B82;" d="M0,207c6.64,0,13.28,0,20.051,0c4.422,6.439,8.739,12.725,13.329,19.408
		c3.011-2.323,5.744-4.648,8.687-6.665c12.245-8.39,25.621-13.144,40.677-12.442c14.844,0.692,25.916,7.416,33.087,20.466
		c0.549,0.999,0.929,2.099,2.37,2.799c1.755-1.546,3.543-3.245,5.457-4.787c9.246-7.446,19.084-13.994,30.636-17.179
		c8.942-2.466,18.052-2.526,27.037,0.408c10.214,3.335,17.527,9.926,22.135,19.551c4.51,9.419,6.593,19.484,7.516,29.804
		c1.724,19.279,0.628,38.609,0.866,57.915c0.135,10.984,0.024,21.972,0.024,32.916c-3.732,1.043-24.186,1.35-35.33,0.565
		c-1.017-1.122-0.524-2.518-0.524-3.779c0.011-25.99,0.007-51.98,0.145-77.969c0.037-6.965-1.094-13.612-4.401-19.736
		c-3.604-6.675-9.253-10.2-16.975-10.282c-11.603-0.123-20.905,4.446-28.187,13.415c-2.09,2.574-3.023,5.273-3.009,8.667
		c0.116,28.157,0.066,56.314,0.066,84.471c0,1.635,0,3.27,0,5.179c-11.925,0-23.483,0-35.102,0c-0.78-1.669-0.408-3.347-0.41-4.96
		c-0.027-25.658-0.038-51.316-0.007-76.974c0.008-6.763-1.333-13.219-4.233-19.306c-3.151-6.614-8.675-9.951-15.818-10.441
		c-12.233-0.839-21.993,3.853-29.418,13.602c-1.88,2.469-2.879,4.959-2.866,8.187c0.117,28.157,0.068,56.314,0.068,84.471
		c0,1.654,0,3.308,0,5.693c-6.063,0.004-11.98,0.01-17.898,0.011C11.983,350.006,5.992,350.002,0,350C0,302.333,0,254.667,0,207z"/>
	<path style="fill:#D76D4C;" d="M1163.182,558.123c-0.175,0.268-0.236,0.561-0.182,0.877c-107,0-214,0-321,0
		c0.928-1.893,2.645-0.974,3.98-0.98c12.655-0.061,25.311-0.019,37.966-0.018c89.088,0.002,178.176-0.001,267.264,0.006
		C1155.201,558.008,1159.192,558.083,1163.182,558.123z"/>
	<path style="fill:#D76D4C;" d="M1161,0c-0.923,1.899-2.641,0.979-3.974,0.983c-15.81,0.055-31.621,0.015-47.432,0.016
		c-87.874,0.005-175.748,0.019-263.621-0.016C844.642,0.983,842.923,1.9,842,0C948.333,0,1054.667,0,1161,0z"/>
	<path style="fill:#A8ABC6;" d="M1757.15,271.929c0.285-0.002,0.569,0.022,0.85,0.071c0,5,0,10,0,15
		c-0.287,0.031-0.574,0.053-0.862,0.066C1757.142,282.021,1757.146,276.975,1757.15,271.929z"/>
	<path style="fill:#1E4B82;" d="M655.408,304.784c2.257,10.673,4.377,20.695,6.556,30.996c-8.255,4.497-16.667,8.311-25.689,10.635
		c-18.908,4.871-37.85,4.998-56.58-0.652c-19.198-5.791-33.116-17.71-40.939-36.505c-9.734-23.386-9.201-46.336,2.981-68.604
		c10.1-18.462,26.076-28.654,46.835-31.724c13.422-1.985,26.485-0.989,39.292,3.516c13.474,4.739,23.384,13.547,30.351,25.947
		c5.004,8.906,7.231,18.506,7.786,28.562c0.256,4.65,0.186,9.323,0.122,13.984c-0.032,2.301-0.23,4.63-1.562,7.075
		c-31.936,0-64.03,0-96.138,0c0.635,13.684,10.058,25.511,22.876,29.044c2.399,0.661,4.781,1.399,7.206,1.949
		c8.667,1.964,17.151-0.05,25.596-1.52C635.149,315.561,645.53,311.713,655.408,304.784z M630.082,262.104
		c0.131-7.457-2.727-12.928-8.158-17.185c-8.261-6.476-17.784-6.813-27.55-5.443c-6.179,0.866-11.812,3.219-16.684,7.275
		c-4.771,3.972-7.193,9.181-8.997,15.353C589.393,262.104,609.459,262.104,630.082,262.104z"/>
	<path style="fill:#1E4B82;" d="M326.4,261.833c0.965-4.478,0.415-8.293-0.517-11.957c-0.945-3.711-3.558-6.402-7.084-7.914
		c-5.211-2.235-10.617-3.782-16.339-4.101c-17.062-0.952-33.396,2.271-49.228,8.454c-0.603,0.236-1.21,0.464-2.53,0.969
		c-1.339-9.89-2.636-19.476-3.905-28.848c1.453-1.865,3.334-2.117,5.014-2.732c18.021-6.598,36.649-9.566,55.785-8.498
		c13.448,0.75,25.818,5.204,35.978,14.198c7.517,6.654,11.825,15.551,14.33,25.236c1.676,6.48,1.837,13.1,1.804,19.781
		c-0.129,25.987-0.053,51.976-0.053,77.964c0,1.644,0,3.287,0,5.275c-8.49,0-16.72,0-25.266,0
		c-2.552-4.776-5.201-9.732-7.944-14.863c-2.401,0.746-3.883,2.635-5.651,4.002c-9.004,6.963-19.41,10.1-30.509,11.004
		c-8.302,0.676-16.613,0.536-24.595-2.604c-16.88-6.642-25.828-19.258-27.517-37.019c-1.332-14.005,2.465-26.406,13.394-35.904
		c7.212-6.268,15.868-9.514,25.162-11.285c4.934-0.94,9.904-1.159,14.901-1.156c9.829,0.005,19.658,0.001,29.486,0.001
		C322.766,261.833,324.413,261.833,326.4,261.833z M326.341,285.89c-1.639-1.242-2.846-0.864-3.965-0.868
		c-9.662-0.035-19.324,0.034-28.985-0.044c-4.412-0.036-8.456,1.237-12.569,2.642c-7.112,2.43-10.486,11.202-9.78,17.951
		c0.773,7.394,6.171,13.437,13.758,14.389c16.143,2.025,30.719-3.501,40.333-17.469c0.792-1.15,1.238-2.287,1.225-3.688
		C326.313,294.353,326.341,289.902,326.341,285.89z"/>
	<path style="fill:#1C4A81;" d="M428.11,279.312c0.083,1.989,0.236,3.978,0.238,5.967c0.018,19.651,0.018,39.302-0.002,58.953
		c-0.002,1.635,0.281,3.315-0.442,5.154c-11.101,0-22.195,0-33.285,0c-1.028-3.947-1.516-179.741-0.523-194.909
		c11.189,0,22.407,0,33.591,0c0.933,0.826,0.657,1.885,0.657,2.836c0.016,38.303,0.015,76.605,0.004,114.908
		c0,0.823-0.156,1.646-0.239,2.47C428.11,276.23,428.11,277.771,428.11,279.312z"/>
	<path style="fill:#1E4B82;" d="M428.11,279.312c0-1.541,0-3.082-0.001-4.623c1.839,1.371,2.294-0.54,2.944-1.402
		c5.108-6.773,10.129-13.612,15.179-20.429c11.685-15.774,23.371-31.547,35.192-47.503c13.881,0,27.84,0,42.607,0
		c-18.876,23.658-37.484,46.981-56.523,70.845c21.19,24.157,42.401,48.337,64.174,73.158c-15.013,0-29.07,0-43.854,0
		c-3.738-4.549-7.839-9.541-11.94-14.533c-14.793-18.006-29.574-36.021-44.413-53.989
		C430.704,279.901,430.186,277.668,428.11,279.312z"/>
	<path style="fill:#1D4A81;" d="M1757.15,271.929c-0.004,5.046-0.008,10.091-0.013,15.137c-1.46,14.588-4.967,28.425-14.045,40.408
		c-10.632,14.035-24.808,21.364-42.203,22.327c-17.106,0.947-32.644-3.158-45.843-16.496c-0.337,8.862-0.12,16.858-0.16,24.844
		c-0.04,7.999-0.009,15.999-0.009,23.998c0,8.124,0,16.249,0,24.611c-11.815,0-23.224,0-34.88,0c0-66.411,0-132.668,0-199.276
		c6.571,0,13.159,0,20.328,0c4.221,5.277,8.764,10.955,13.403,16.755c3.112-2.441,5.894-4.791,8.844-6.906
		c11.15-7.994,23.755-10.753,37.266-10.173c17.635,0.757,32.283,7.495,42.867,21.891c5.964,8.112,10.03,17.211,12.116,27.105
		C1755.919,261.358,1756.873,266.597,1757.15,271.929z M1654.87,280.619c0,5.328,0.285,10.676-0.088,15.978
		c-0.311,4.434,1.469,7.66,4.304,10.674c8.3,8.826,18.615,12.239,30.545,11.877c15.793-0.479,25.636-9.683,29.677-22.351
		c3.112-9.756,3.826-19.823,1.589-30.014c-4.736-21.575-21.009-31.768-40.011-27.838c-11.434,2.365-19.857,8.831-25.113,19.352
		c-0.868,1.738-0.905,3.507-0.904,5.337C1654.871,269.297,1654.87,274.958,1654.87,280.619z"/>
	<path style="fill:#1D4A82;" d="M1336.228,238.572c-7.15,0-14.291,0-21.83,0c-0.631-3.979,0.928-7.667,0.613-11.457
		c15.468-18.577,30.912-37.124,46.441-55.774c3.325,0,6.611,0,10.434,0c0,11.715,0,23.431,0,35.601c13.587,0,26.652,0,39.927,0
		c0,10.376,0,20.288,0,30.558c-13.108,0-26.053,0-38.607,0c-1.596,1.406-1.114,2.824-1.116,4.084
		c-0.031,17.995-0.02,35.99-0.022,53.985c0,2.334,0.29,4.627,0.614,6.945c1.395,10.005,7.885,14.252,17.073,14.807
		c6.43,0.388,12.501-1.489,18.564-3.297c0.933-0.278,1.859-0.581,3.14-0.983c0,10.316,0,20.371,0,30.579
		c-5.19,3.104-11.076,4.338-16.964,5.092c-9.608,1.231-19.176,0.897-28.705-1.436c-15.706-3.846-24.166-14.252-27.724-29.407
		c-0.958-4.08-1.107-8.221-1.096-12.401c0.053-20.994,0.031-41.988,0.011-62.983C1336.98,241.35,1337.289,240.15,1336.228,238.572z"
		/>
	<path style="fill:#1C4A81;" d="M1439.207,207.38c7.05,0,13.991,0,21.546,0c3.441,9.12,6.995,18.536,10.513,27.86
		c1.772,0.212,2.126-1.114,2.7-2.014c5.009-7.85,11.6-14.117,19.215-19.375c6.34-4.378,13.457-6.429,21.068-6.676
		c5.099-0.165,10.3-0.913,15.36,1.306c-1.538,10.703-3.885,21.175-6.103,31.838c-7.064-0.48-13.821-0.246-20.495,1.428
		c-7.942,1.993-14.027,6.525-18.983,12.925c-7.392,9.545-9.836,20.63-9.968,32.299c-0.219,19.33-0.074,38.663-0.083,57.995
		c-0.001,1.479,0,2.958,0,4.732c-11.643,0-23.047,0-34.77,0C1439.207,302.376,1439.207,255.002,1439.207,207.38z"/>
	<path style="fill:#1D4A81;" d="M1582.545,349.846c-11.594,0-22.883,0-34.472,0c0-47.519,0-94.883,0-142.481
		c11.467,0,22.749,0,34.05,0C1583.138,210.899,1583.567,338.283,1582.545,349.846z"/>
	<path style="fill:#1F4B82;" d="M1565.509,185.207c-10.228,0.332-17.977-9.093-17.737-18.27c0.276-10.533,8.723-18.785,19.419-18.43
		c8.113,0.27,16.875,9.401,16.618,17.776C1583.415,179.153,1574.251,185.564,1565.509,185.207z"/>
</g>
</svg>
