<?xml version="1.0" encoding="iso-8859-1"?>
<!-- Generator: Adobe Illustrator 27.0.0, SVG Export Plug-In . SVG Version: 6.00 Build 0)  -->
<svg version="1.1" id="Layer_1" xmlns="http://www.w3.org/2000/svg" xmlns:xlink="http://www.w3.org/1999/xlink" x="0px" y="0px"
	 viewBox="0 0 1544.851 281" style="enable-background:new 0 0 1544.851 281;" xml:space="preserve">
<g>
	<path style="fill:#0A7A58;" d="M771.848,1.047c0.051,21.829,0.102,43.657,0.152,65.486c0.006,2.492,0.001,4.984,0.001,7.811
		c-5.609,0-11.015,0-16.749,0c-1.171-6.051-1.471-12.358-3.196-18.408c-2.204-7.73-5.202-15.069-10.006-21.579
		c-7.438-10.08-17.208-16.355-29.636-18.574c-9.412-1.68-18.823-0.818-28.472-1.154c0,82.456,0,164.34,0,246.651
		c9.871,0,19.471,0,29.268,0c1.224,4.926,0.24,9.493,0.647,14.155c-2.167,0.719-4.003,0.426-5.782,0.427
		c-50.664,0.02-101.328,0.07-151.991-0.01c-20.931-0.033-39.707-5.737-54.234-21.779c-1.574-0.034-2.385,1.164-3.428,1.884
		c-15.43,10.65-32.545,17.486-50.851,20.757c-25.261,4.514-50.393,3.263-74.933-4.748c-11.172-3.647-21.341-9.193-29.919-17.429
		c-10.245-9.836-15.937-21.831-17.857-35.853c-1.307-9.547-0.926-18.938,1.597-28.185c3.496-12.815,11.06-22.991,21.283-31.238
		c9.658-7.791,20.675-13.258,31.986-18.175c1.5-0.652,3.189-0.907,4.858-2.414c-1.798-2.082-3.611-4.119-5.355-6.213
		c-11.194-13.439-17.714-28.677-18.584-46.341c-0.742-15.071,1.98-29.139,10.57-41.727c8.483-12.431,20.248-20.632,34.504-24.978
		c22.228-6.776,44.574-7.047,66.648,0.715c13.282,4.67,24.321,12.536,30.689,25.51c10.999,22.412,7.94,46.714-13.59,64.032
		c-9.828,7.906-20.922,13.47-32.513,18.184c-2.918,1.187-5.833,2.38-8.758,3.574c1.649,3.111,69.231,69.239,74.634,73
		c8.046-10.255,14.133-21.277,14.316-34.761c0.225-16.549-13.149-28.097-27.198-27.805c-1.633,0.034-3.321,0.344-5.344-0.525
		c-0.431-4.41-0.358-8.989,0.015-13.524c3.983-0.853,75.215-1.061,82.142-0.261c0,4.553,0,9.142,0,14.06
		c-3.217,0.557-6.533,0.415-9.737,1.304c-9.03,2.507-15.302,7.914-18.064,16.904c-1.899,6.181-3.455,12.479-4.9,18.785
		c-2.633,11.489-7.455,21.975-13.969,31.737c-1.468,2.2-2.889,4.431-3.851,5.908c5.808,6.253,11.111,12.45,16.932,18.113
		c8.234,8.01,16.83,15.628,27.134,21.047c7.04,3.702,14.359,6.025,22.392,5.928c7.491-0.09,14.983-0.019,22.836-0.019
		c0-82.123,0-164.012,0-246.028c-0.803-1.015-2.064-0.608-3.154-0.588c-8.477,0.156-16.963-0.412-25.415,1.06
		c-13.968,2.433-24.497,9.788-32.058,21.607c-6.701,10.474-9.601,22.163-10.847,34.367c-0.083,0.811-0.164,1.622-0.271,2.68
		c-5.379,0-10.629,0-15.915,0c-1.164-1.817-0.655-3.695-0.659-5.453c-0.041-21.665-0.024-43.331-0.036-64.996
		C537.179,2.646,537.063,1.323,537,0c0.667,0,1.333,0,2,0c1.364,1.925,3.371,0.936,5.034,0.939
		c45.297,0.065,90.593,0.045,135.89,0.055C710.565,1,741.207,1.029,771.848,1.047z M488.964,241.384
		c-30.315-29.717-60.555-59.36-90.748-88.958c-8.661,5.427-14.27,12.445-17.164,21.476c-3.938,12.287-4.691,24.981-1.869,37.443
		c4.95,21.858,18.767,35.851,40.45,41.591c13.789,3.65,27.702,2.447,41.521-0.356C470.994,250.584,480.398,247.494,488.964,241.384z
		 M433.302,118.421c8.338-4.337,15.034-9.991,20.437-17.109c7.239-9.537,10.882-20.434,11.742-32.327
		c0.647-8.949-0.378-17.626-4.518-25.684c-10.406-20.251-37.276-17.296-46.332-4.826c-4.9,6.748-7.407,14.128-7.571,22.259
		C406.592,83.923,417.108,102.21,433.302,118.421z"/>
	<path style="fill:#0B7A58;" d="M328.798,1.054c0,4.32,0,8.639,0,13.424c-10.621,0-21.211,0-31.657,0
		c-1.208,4.074-1.687,233.651-0.589,246.77c8.939,0.186,17.992-0.022,27.276,0.115c0.497,4.796,0.251,9.233,0.171,13.993
		c-36.898,0-73.634,0-110.743,0c-0.838-4.444-0.369-8.986-0.263-13.954c9.024,0,17.782,0,26.976,0c0-70.995,0-141.563,0-212.13
		c-0.211-0.09-0.422-0.18-0.634-0.27c-28.862,73.345-57.725,146.691-86.583,220.026c-4.852,0-9.327,0-14.394,0
		C109.246,195.38,80.054,121.531,50.863,47.682c-0.172,0.037-0.344,0.074-0.515,0.111c0,70.931,0,141.862,0,213.421
		c11.583,0,23.122,0,34.853,0c0.671,5.015,0.564,9.411,0.136,14.139c-26.442,0-52.664,0-79.152,0c0-4.523,0-8.956,0-13.834
		c8.395,0,16.818,0,25.802,0c0.254-82.337,0.131-164.237,1.069-246.697C21.763,14.706,10.887,14.361,0,15c0-0.667,0-1.333,0-2
		c1.829-0.959,0.829-2.651,0.979-4.009C1.263,6.417,0.584,3.75,1.554,0.994c1.974,0,3.787,0,5.6,0
		c25.608,0,51.215,0.023,76.823-0.053C85.636,0.936,87.642,1.929,89,0c0.667,0,1.333,0,2,0c-0.519,1.815,0.694,3.205,1.282,4.69
		c4.526,11.413,9.176,22.776,13.751,34.169c19.785,49.27,39.558,98.545,59.442,148.086c2.608-4.362,3.984-8.982,5.772-13.421
		c19.152-47.561,38.302-95.123,57.453-142.685c4.019-9.981,7.705-20.1,12.252-29.865C270.234,1.001,299.516,1.028,328.798,1.054z"/>
	<path style="fill:#137B5A;" d="M933,0c3.431,1.835,7.306,1.291,10.952,1.981c13.899,2.632,26.912,7.129,37.995,16.326
		c11.982,9.943,18.4,22.922,20.921,37.991c1.973,11.789,1.67,23.534-1.864,35.051c-4.203,13.694-12.149,24.602-24.23,32.457
		c-6.897,4.484-14.417,7.444-22.646,9.679c4.213,1.839,8.511,2.242,12.556,3.517c25.151,7.93,41.195,24.255,45.99,50.55
		c2.674,14.668,1.485,29.225-3.976,43.168c-7.519,19.197-21.854,31.276-40.985,38.109c-13.792,4.926-28.126,6.676-42.634,6.771
		c-30.648,0.201-61.298,0.08-91.947,0.078c-0.97,0-2.01,0.247-2.92-0.53c-0.798-1.338-0.413-2.868-0.413-4.325
		c-0.021-88.616-0.021-177.231-0.012-265.847c0-1.326,0.133-2.651,0.204-3.977c29.993,0,59.986,0.019,89.979-0.054
		C921.633,0.94,923.644,1.951,925,0C927.667,0,930.333,0,933,0z M847.235,260.724c0.926,0.778,1.783,0.581,2.574,0.58
		c26.658-0.04,53.315-0.086,79.973-0.154c10.085-0.026,19.855-2.085,29.315-5.333c17.943-6.16,29.847-18.219,34.505-36.873
		c2.157-8.639,2.404-17.441,1.482-26.269c-2.035-19.48-11.263-34.105-29.131-42.816c-11.115-5.419-23.002-7.804-35.237-7.927
		c-27.322-0.273-54.647-0.178-81.971-0.217c-0.45-0.001-0.9,0.206-1.509,0.354C847.235,181.738,847.235,221.317,847.235,260.724z
		 M847.294,126.963c0.926,0.063,1.569,0.145,2.213,0.145c24.151-0.003,48.303-0.045,72.454-0.005
		c8.536,0.014,16.967-0.973,25.159-3.194c18.301-4.96,31.277-15.855,36.434-34.638c3.463-12.611,3.22-25.285-0.46-37.882
		c-3.746-12.822-11.626-22.223-23.345-28.476c-10.343-5.519-21.553-7.872-33.119-7.995c-25.98-0.276-51.965-0.17-77.948-0.202
		c-0.453-0.001-1.026-0.096-1.292,0.493C846.92,19.366,846.801,120.126,847.294,126.963z"/>
	<path style="fill:#5C9279;" d="M771.848,1.047C741.207,1.029,710.565,1,679.924,0.993c-45.297-0.009-90.593,0.011-135.89-0.055
		C542.371,0.936,540.364,1.925,539,0c77.667,0,155.333,0,233,0C771.949,0.349,771.899,0.698,771.848,1.047z"/>
	<path style="fill:#5A9177;" d="M89,0c-1.358,1.929-3.364,0.936-5.023,0.941C58.369,1.017,32.762,0.994,7.154,0.994
		c-1.813,0-3.626,0-5.6,0C0.584,3.75,1.263,6.417,0.979,8.991C0.829,10.349,1.829,12.041,0,13C0,8.667,0,4.333,0,0
		C29.667,0,59.333,0,89,0z"/>
	<path style="fill:#578F76;" d="M925,0c-1.356,1.951-3.367,0.94-5.029,0.944c-29.993,0.072-59.986,0.053-89.979,0.054
		C829.995,0.665,829.997,0.332,830,0C861.667,0,893.333,0,925,0z"/>
	<path style="fill:#578F76;" d="M240.952,0.974C240.907,0.647,240.923,0.322,241,0c29.333,0,58.667,0,88,0
		c-0.068,0.351-0.135,0.703-0.203,1.054C299.516,1.028,270.234,1.001,240.952,0.974z"/>
	<path style="fill:#578F76;" d="M1411,0c-0.069,0.352-0.138,0.703-0.207,1.055c-5.546-0.004-11.092-0.008-16.638-0.012
		c-0.052-0.348-0.103-0.695-0.155-1.043C1399.667,0,1405.333,0,1411,0z"/>
	<path style="fill:#C0CFC5;" d="M1102.062,280.188c-0.027,0.27-0.048,0.541-0.062,0.812c-5,0-10,0-15,0
		c-0.007-0.276-0.026-0.55-0.059-0.824C1091.981,279.916,1097.022,279.897,1102.062,280.188z"/>
	<path style="fill:#107A59;" d="M1102.062,280.188c-5.04-0.29-10.081-0.271-15.122-0.011c-15.201-1.696-29.243-6.1-40.535-17.1
		c-9.758-9.505-14.743-21.067-15.481-34.622c-0.354-6.513-0.245-12.908,1.577-19.25c3.758-13.077,12.241-22.275,23.635-29.056
		c9.795-5.83,20.468-9.514,31.541-11.976c12.51-2.782,25.209-4.244,37.983-5.311c11.46-0.957,22.969-0.371,34.405-1.553
		c1.303-0.135,2.608-0.259,4.272-0.424c0.265-14.014,0.402-27.759-4.786-40.901c-5.063-12.826-14.379-20.982-27.727-24.271
		c-15.589-3.841-30.977-3.4-45.85,3.24c-14.026,6.262-22.698,17.503-28.671,31.194c-0.454,1.04-0.403,2.341-1.906,3.198
		c-4.64-0.678-9.121-2.856-14.177-4.122c0.999-5.732,3.611-10.513,6.411-15.105c11.653-19.107,28.888-29.834,50.853-33.146
		c13.139-1.981,26.153-1.579,39.084,1.936c18.223,4.953,30.433,16.393,37.339,33.732c4.044,10.154,5.879,20.836,5.952,31.678
		c0.237,35.495,0.162,70.992,0.203,106.489c0.008,6.817,0.001,13.633,0.001,20.763c-5.491,0-10.736,0-16.521,0
		c0-11.755,0-23.517,0-35.279c-0.294-0.178-0.589-0.356-0.883-0.534C1150.573,264.795,1129.7,277.743,1102.062,280.188z
		 M1164.383,173.886c-7.697,0.268-14.799,0.439-21.918,0.678c-13.324,0.448-26.578,1.376-39.743,3.439
		c-11.212,1.756-22.057,4.805-32.226,9.926c-26.258,13.224-26.866,40.077-17.516,57.315c5.916,10.907,15.96,16.609,27.608,19.736
		c11.196,3.005,22.457,2.354,33.621-0.065c27.847-6.034,47.101-27.65,49.744-55.873
		C1165.024,197.597,1164.273,186.072,1164.383,173.886z"/>
	<path style="fill:#0D7A59;" d="M1394.155,1.043c5.546,0.004,11.092,0.008,16.638,0.012c0.058,1.829,0.168,3.657,0.168,5.486
		c0.009,61.495,0.007,122.99,0.007,184.485c0,1.807,0,3.613,0,6.313c34.593-38.039,68.62-75.456,102.628-112.852
		c6.516,0,12.807,0,19.984,0c-5.408,7.251-11.603,12.963-17.132,19.229c-5.511,6.245-11.318,12.227-16.961,18.356
		c-5.754,6.25-11.465,12.539-17.198,18.808c-5.608,6.132-11.22,12.259-17.04,18.618c26.466,38.507,52.81,76.837,79.601,115.817
		c-6.926,0.669-12.972,0.283-19.287,0.314c-23.734-34.62-47.403-69.146-71.355-104.083c-14.587,15.705-28.844,31.055-43.217,46.529
		c0,18.973,0,37.951,0,57.267c-5.628,0-11.024,0-16.471,0c-0.925-1.178-0.503-2.562-0.503-3.832
		c-0.024-88.993-0.023-177.985-0.016-266.978C1394.002,3.369,1394.102,2.206,1394.155,1.043z"/>
	<path style="fill:#157B5A;" d="M1228.121,84.779c0,15.418,0,30.565,0,45.715c1.824-0.015,1.682-1.457,2.135-2.43
		c7.55-16.224,18.141-29.808,33.998-38.703c10.601-5.947,21.926-9.283,34.2-9.515c12.876-0.244,25.167,1.651,36.484,8.166
		c12.962,7.463,20.651,18.956,25.026,32.917c2.757,8.798,3.822,17.907,3.845,27.07c0.105,41.654,0.048,83.309,0.043,124.963
		c0,0.66-0.083,1.321-0.153,2.352c-5.424,0-10.812,0-16.478,0c-0.687-1.661-0.355-3.501-0.356-5.27
		c-0.023-38.655,0.072-77.311-0.081-115.965c-0.039-9.966-0.641-19.962-3.787-29.566c-3.958-12.085-10.998-21.549-23.079-26.59
		c-5.902-2.463-12.18-3.485-18.472-3.749c-14.68-0.615-28.354,2.715-40.511,11.37c-12.345,8.788-20.551,20.625-25.886,34.633
		c-5.228,13.728-6.769,28.057-6.799,42.599c-0.061,28.991-0.018,57.983-0.019,86.974c0,1.803,0,3.607,0,5.669
		c-5.682,0-10.942,0-16.173,0c-1.096-3.67-1.593-178.545-0.573-190.232C1214.804,84.11,1221.17,83.924,1228.121,84.779z"/>
</g>
</svg>
