<?xml version="1.0" encoding="iso-8859-1"?>
<!-- Generator: Adobe Illustrator 27.0.0, SVG Export Plug-In . SVG Version: 6.00 Build 0)  -->
<svg version="1.1" id="Layer_1" xmlns="http://www.w3.org/2000/svg" xmlns:xlink="http://www.w3.org/1999/xlink" x="0px" y="0px"
	 viewBox="0 0 1581 588" style="enable-background:new 0 0 1581 588;" xml:space="preserve">
<g>
	<path style="fill:#080707;" d="M0,444c2.952-6.184,8.262-9.72,14.191-12.495c16.439-7.694,33.483-12.624,51.901-11.618
		c13.914,0.76,26.249,5.282,36.727,14.589c0.62,0.551,1.255,1.084,1.893,1.615c0.125,0.104,0.294,0.154,0.846,0.433
		c4.763-3.069,9.665-6.367,15.049-8.893c10.53-4.943,21.457-7.927,33.138-7.852c7.49,0.048,14.905,0.387,22.282,2.181
		c18.939,4.605,31.191,16.107,36.98,34.636c2.646,8.469,3.942,17.167,3.963,26.009c0.072,29.997,0.041,59.995,0.002,89.992
		c-0.012,9.182-1.82,11.048-11.114,11.265c-5.649,0.132-11.327,0.476-16.948-0.566c-3.973-0.737-5.509-2.266-5.82-6.256
		c-0.207-2.653-0.141-5.329-0.142-7.995c-0.009-27.164-0.039-54.329,0.027-81.493c0.011-4.361-0.273-8.732-1.165-12.916
		c-2.426-11.378-7.305-18.524-21.771-20.44c-12.386-1.64-23.656,2.06-33.598,9.668c-0.531,0.406-1.151,0.696-1.137,0.687
		c1.386,21.939,0.544,43.095,0.715,64.236c0.118,14.664,0,29.33-0.02,43.996c-0.002,1.333,0.042,2.677-0.109,3.996
		c-0.463,4.053-1.76,5.49-5.709,6.534c-0.482,0.128-0.96,0.352-1.446,0.37c-7.153,0.259-14.318,0.74-21.433-0.467
		c-3.747-0.635-4.542-1.583-5.453-5.416c-0.665-2.797-0.635-5.619-0.636-8.449c-0.007-27.331,0.016-54.662-0.028-81.993
		c-0.007-4.314,0.003-8.611-0.959-12.91c-2.685-11.999-9.621-18.285-21.974-19.485c-11.826-1.148-22.704,1.747-32.916,7.69
		c-0.946,1.714-0.481,3.585-0.483,5.374c-0.034,33.664-0.031,67.327-0.028,100.991c0,3.17-0.126,6.311-0.782,9.439
		c-0.5,2.385-1.831,3.828-4.088,4.511c-0.953,0.288-1.92,0.709-2.889,0.732c-6.484,0.159-12.951,0.474-19.455-0.209
		C4.153,583.129,1.728,581.875,0,579C0,534,0,489,0,444z"/>
	<path style="fill:#080707;" d="M1229,588c-2.648-1.979-5.918-1.448-8.853-1.889c-15.388-2.315-28.671-9.091-40.775-18.492
		c-4.451-3.457-4.975-7.125-1.789-11.676c2.86-4.086,5.78-8.153,8.978-11.975c3.202-3.826,5.646-4.135,10.08-1.731
		c2.331,1.263,4.5,2.822,6.761,4.216c14.672,9.044,30.571,11.82,47.338,8.365c7.127-1.469,12.701-5.604,14.661-13.328
		c1.511-5.957-0.023-10.802-4.797-14.643c-3.699-2.976-8.085-4.522-12.533-5.856c-9.368-2.809-18.996-4.6-28.446-7.073
		c-11.074-2.898-21.233-7.745-29.139-16.319c-16.229-17.602-13.649-49.02,7.402-64.442c10.449-7.655,22.338-11.234,35.201-12.359
		c15.263-1.335,29.758,1.243,43.738,7.237c3.821,1.638,7.479,3.628,10.703,6.278c5.222,4.292,6.521,9.074,2.087,14.678
		c-2.475,3.128-4.962,6.254-7.6,9.243c-4.139,4.69-7.296,5.204-12.717,2.13c-4.76-2.699-9.488-5.419-14.84-6.841
		c-9.623-2.557-19.266-3.604-28.994-0.593c-5.885,1.822-10.357,5.088-11.916,11.463c-1.368,5.594,0.537,11.146,5.274,14.476
		c3.561,2.503,7.588,3.994,11.746,5.241c10.326,3.097,21.021,4.693,31.335,7.858c6.872,2.109,13.321,4.952,19.292,8.986
		c12.107,8.181,17.717,19.944,18.724,34.095c1.411,19.823-8.745,36.503-27.041,45.458c-8.106,3.967-16.604,6.706-25.799,6.523
		c-4.047-0.011-8.094-0.044-12.14-0.019c-1.06,0.006-2.333-0.434-2.941,0.99C1231,588,1230,588,1229,588z"/>
	<path style="fill:#78C2EB;" d="M1581,216c-0.365-0.092-0.73-0.185-1.096-0.277c0.029-0.997,0.083-1.995,0.083-2.992
		c0.003-69.039,0.002-138.079,0-207.118c0-1.164,0.089-2.345-0.074-3.488c-0.144-1.012-1.115-1.057-1.942-1.146
		c0.084-0.324,0.094-0.651,0.029-0.979c1,0,2,0,3,0C1581,72,1581,144,1581,216z"/>
	<path style="fill:#0E0D0D;" d="M1232,588c0.608-1.424,1.881-0.984,2.941-0.99c4.046-0.025,8.093,0.008,12.14,0.019
		c-0.027,0.324-0.054,0.647-0.081,0.971C1242,588,1237,588,1232,588z"/>
	<path style="fill:#1BB1E7;" d="M1577.971,0.979c0.827,0.089,1.798,0.134,1.942,1.146c0.163,1.143,0.074,2.324,0.074,3.488
		c0.003,69.039,0.003,138.079,0,207.118c0,0.997-0.054,1.995-0.083,2.992c-3.492,0.067-6.984,0.19-10.476,0.193
		c-21.987,0.019-43.974,0.018-65.961,0.003c-1.824-0.001-3.649-0.149-5.473-0.229c0.008-1.492-0.282-2.865-0.756-4.334
		c-3.672-11.381-7.041-22.86-10.708-34.242c-6.332-19.651-12.526-39.344-18.663-59.058c-3.408-10.947-6.917-21.863-10.3-32.821
		c-4.348-14.082-9.031-28.061-13.57-42.085c17.199-5.767,34.593-10.913,51.909-16.306c17.001-5.295,33.921-10.846,50.898-16.218
		C1557.173,7.346,1567.581,4.191,1577.971,0.979z"/>
	<path style="fill:#1DABE1;" d="M1443.997,43.15c4.539,14.023,9.222,28.002,13.57,42.085c3.383,10.957,6.892,21.874,10.3,32.821
		c6.137,19.713,12.331,39.406,18.663,59.058c3.668,11.382,7.036,22.861,10.708,34.242c0.474,1.469,0.764,2.842,0.756,4.334
		c-1.321,0.077-2.642,0.22-3.962,0.221c-35.027,0.015-70.054,0.018-105.081,0.007c-1.32,0-2.639-0.155-3.959-0.237
		c-0.085-1.145,0.055-2.27-0.318-3.434c-2.844-8.868-5.606-17.761-8.396-26.647c-5.631-17.936-11.243-35.878-16.9-53.806
		c-5.117-16.219-10.28-32.423-15.43-48.632c-0.792-2.493-2.071-4.849-2.08-7.557c7.184-3.397,14.959-5.05,22.463-7.477
		c26.177-8.469,52.444-16.66,78.681-24.944C1443.313,43.088,1443.667,43.158,1443.997,43.15z"/>
	<path style="fill:#17A4DD;" d="M1341.867,75.605c0.009,2.708,1.287,5.064,2.08,7.557c5.151,16.208,10.313,32.413,15.43,48.632
		c5.656,17.928,11.269,35.87,16.9,53.806c2.789,8.885,5.552,17.779,8.396,26.647c0.374,1.164,0.233,2.29,0.318,3.434
		c-1.321,0.078-2.641,0.223-3.962,0.224c-35.027,0.015-70.053,0.018-105.08,0.007c-1.319,0-2.638-0.159-3.958-0.243
		c-0.111-3.328-1.523-6.369-2.494-9.431c-6.266-19.769-12.477-39.555-18.69-59.341c-2.984-9.502-5.994-19.006-9.006-28.504
		c-1.076-3.392-2.635-6.701-2.804-10.355c9.856-3.875,20.039-6.764,30.121-9.954c17.47-5.527,34.926-11.107,52.477-16.367
		C1328.355,79.691,1334.889,76.9,1341.867,75.605z"/>
	<path style="fill:#080707;" d="M1355.061,516.932c-0.645,11.439,1.709,21.262,10.01,29.019c5.682,5.31,12.684,8.005,20.161,8.972
		c15.802,2.043,31.12,0.168,45.519-7.149c1.033-0.525,2.078-1.065,3.174-1.423c4.454-1.452,7.423-0.545,9.706,3.54
		c2.419,4.328,4.583,8.823,6.521,13.389c2.287,5.39,1.361,7.893-3.695,10.678c-9.092,5.008-18.967,7.846-29.071,9.813
		c-9.324,1.815-18.765,2.698-28.297,2.13c-16.119-0.962-30.949-5.296-43.67-15.802c-12.368-10.214-19.342-23.465-22.307-38.916
		c-2.875-14.982-2.353-30.137-1.503-45.286c0.564-10.057,2.586-19.718,6.966-28.819c9.64-20.028,25.774-31.734,47.312-35.862
		c15.449-2.961,30.771-2.022,45.511,4.101c16.453,6.834,27.519,18.904,33.525,35.476c5.492,15.153,5.978,30.899,4.043,46.748
		c-0.683,5.595-2.545,7.205-8.052,8.659c-2.632,0.695-5.262,0.731-7.924,0.731c-27.487,0.003-54.974,0.002-82.461,0.002
		C1358.878,516.932,1357.227,516.932,1355.061,516.932z M1427.472,490.645c0.885-4.644,0.165-8.97-0.523-13.194
		c-1.861-11.426-7.721-20.064-18.735-24.502c-7.571-3.051-15.406-3.203-23.521-2.244c-23.385,2.763-31.604,24.513-29.191,40.674
		C1366.75,492.488,1423.413,491.986,1427.472,490.645z"/>
	<path style="fill:#080707;" d="M341.704,490.957c0.591-7.059,0.258-13.717-0.814-20.282c-1.683-10.313-9.565-17.198-20.47-18.739
		c-14.707-2.079-28.755,0.152-42.374,5.84c-3.533,1.476-7.181,2.652-11.18,2.098c-2.148-1.114-3.351-3.132-4.485-5.154
		c-2.523-4.499-4.397-9.287-5.874-14.215c-1.443-4.813-0.541-7.04,3.939-9.427c6.768-3.607,14.073-5.862,21.473-7.658
		c20.044-4.865,40.177-5.761,59.989,0.831c18.183,6.049,28.517,19.18,32.067,37.879c1.28,6.746,1.51,13.572,1.546,20.381
		c0.127,23.994-0.183,47.993,0.179,71.983c0.129,8.566-3.196,14.109-10.527,18.107c-11.8,6.437-24.329,10.477-37.574,12.363
		c-11.232,1.6-22.521,2.393-33.834,0.952c-13.417-1.709-25.865-5.697-35.931-15.391c-7.892-7.601-12.187-16.985-13.609-27.604
		c-1.13-8.437-1.009-16.98,2.067-25.121c5.49-14.533,16.142-23.757,30.665-28.435c11.659-3.756,23.664-4.752,35.946-3.572
		C322.527,486.716,331.995,488.169,341.704,490.957z M342.864,516.125c-7.625-2.51-15.367-4.078-23.239-5.109
		c-8.133-1.064-16.26-1.251-24.205,1.004c-12.154,3.45-21.474,13.248-17.116,29.379c2.596,9.61,10.26,13.694,19.393,15.639
		c7.284,1.551,14.572,1.101,21.81-0.047c8.565-1.358,16.55-4.299,23.358-9.573C342.864,536.88,342.864,526.588,342.864,516.125z"/>
	<path style="fill:#080707;" d="M966.996,490.972c-0.138-6.594,0.238-12.698-0.688-18.858c-1.783-11.85-8.935-18.359-21.229-20.195
		c-14.372-2.147-28.086,0.294-41.415,5.664c-3.711,1.495-7.445,2.872-11.623,2.278c-2.423-1.357-3.659-3.744-4.917-6.078
		c-2.206-4.095-3.907-8.404-5.212-12.87c-1.59-5.446-0.85-7.508,4.229-10.07c4.731-2.387,9.739-4.125,14.794-5.743
		c15.436-4.942,31.294-6.258,47.31-4.902c13.436,1.137,26.218,4.83,36.457,14.199c9.648,8.829,13.869,20.373,15.295,33.15
		c1.094,9.804,0.825,19.63,0.838,29.454c0.027,19.496-0.189,38.995,0.105,58.486c0.114,7.56-2.925,12.657-9.248,16.317
		c-10.138,5.867-20.977,9.819-32.44,12.064c-13.632,2.669-27.4,3.693-41.202,1.954c-12.891-1.624-24.867-5.737-34.612-14.895
		c-8.654-8.133-13.012-18.399-14.231-29.933c-1.099-10.395,0.013-20.597,5.407-29.917c6.396-11.051,15.979-18.157,28.007-21.862
		c11.544-3.556,23.369-4.59,35.476-3.425C947.718,486.713,957.19,488.141,966.996,490.972z M967.94,516.039
		c-7.681-2.399-15.112-4.039-22.697-4.981c-8.296-1.03-16.629-1.427-24.717,0.998c-14.194,4.255-21.181,15.079-16.536,30.457
		c2.719,9.002,10.211,12.573,18.663,14.468c7.418,1.663,14.913,1.27,22.318-0.008c8.372-1.445,16.284-4.196,22.97-9.492
		C967.94,536.962,967.94,526.664,967.94,516.039z"/>
	<path style="fill:#080707;" d="M556.089,516.932c-0.154,11.293,1.892,21.111,10.023,28.797c5.782,5.466,12.935,8.089,20.571,9.233
		c13.411,2.009,26.51,0.122,39.26-4.249c2.644-0.906,5.027-2.545,7.613-3.653c6.115-2.619,9.203-1.648,12.221,4.292
		c2.246,4.42,4.817,8.719,6.276,13.51c1.196,3.928,0.622,5.798-2.691,8.127c-2.999,2.109-6.388,3.533-9.797,4.806
		c-15.888,5.932-32.284,8.965-49.281,8.076c-19.095-0.999-36.039-7.093-49.456-21.333c-9.428-10.006-14.619-22.054-16.763-35.442
		c-2.812-17.562-2.55-35.234,0.005-52.75c4.238-29.05,25.093-50.698,54.746-55.368c13.328-2.099,26.427-1.672,39.332,2.782
		c21.008,7.251,33.865,21.929,39.917,42.994c2.221,7.732,3.1,15.642,2.897,23.657c-0.155,6.135,0.6,12.295-0.848,18.405
		c-0.957,4.037-3.221,6.305-7.213,7.259c-2.791,0.667-5.571,0.866-8.409,0.864c-27.489-0.014-54.979-0.008-82.468-0.008
		C560.219,516.932,558.413,516.932,556.089,516.932z M628.689,490.886c0.759-8.231,0.007-14.445-2.548-20.784
		c-4.486-11.129-12.855-17.228-24.565-19.285c-8.934-1.57-17.566-0.71-25.837,2.782c-11.324,4.781-16.671,14.205-18.677,25.761
		c-0.687,3.957-1.962,8.043-0.535,12.101C568.894,492.373,624.472,491.964,628.689,490.886z"/>
	<path style="fill:#080707;" d="M446.448,454.761c-0.852,1.646-0.562,2.828-0.563,3.96c-0.021,23.664-0.001,47.328-0.029,70.992
		c-0.004,3.679,0.184,7.317,1.218,10.866c2.356,8.087,8.654,12.886,17.819,13.4c6.539,0.367,12.883-0.851,19.154-2.636
		c3.502-0.997,7.056-1.858,10.635-2.519c2.654-0.49,5.027,0.37,6.331,2.92c2.869,5.613,5.351,11.399,6.887,17.531
		c0.311,1.243,0.045,2.631,0.045,3.773c-1.999,3.223-5.088,4.546-8.144,5.814c-14.23,5.908-29.144,8.378-44.396,6.917
		c-21.186-2.029-36.107-13.093-42.238-36.187c-1.452-5.468-2.156-11.084-2.154-16.783c0.016-45.828-0.018-91.656-0.005-137.484
		c0.002-8.735,1.729-10.466,10.511-10.592c4.996-0.072,10.004-0.116,14.989,0.15c6.208,0.331,8.314,2.531,8.425,8.693
		c0.154,8.497,0.104,16.997,0.141,25.495c0.004,0.814,0,1.628,0,2.245c1.262,1.431,2.685,0.891,3.928,0.895
		c12.665,0.044,25.33-0.008,37.995,0.054c2.82,0.014,5.654,0.249,8.454,0.602c3.852,0.485,5.58,1.776,6.067,5.476
		c0.892,6.779,0.819,13.643,0.124,20.434c-0.359,3.509-2.37,4.918-6.218,5.206c-4.81,0.36-9.633,0.697-14.453,0.741
		C469.488,454.833,458.004,454.761,446.448,454.761z"/>
	<path style="fill:#169ED7;" d="M1238.998,108.037c0.169,3.655,1.728,6.963,2.804,10.355c3.012,9.497,6.022,19.001,9.006,28.504
		c6.213,19.786,12.425,39.572,18.69,59.341c0.97,3.062,2.382,6.103,2.494,9.431c-1.153,0.08-2.306,0.23-3.459,0.23
		c-27.696,0.017-55.392,0.02-83.088,0.01c-1.152,0-2.304-0.161-3.455-0.247c-0.118-1.47,0.145-2.929-0.332-4.419
		c-6.11-19.116-12.155-38.253-18.239-57.378c-2.125-6.68-4.311-13.341-6.47-20.011c9.28-3.891,19.057-6.291,28.581-9.444
		c14.884-4.927,29.911-9.421,44.891-14.056C1233.25,109.48,1236.138,108.805,1238.998,108.037z"/>
	<path style="fill:#0E0D0D;" d="M1073.063,476.53c0,31.655,0.035,63.31-0.02,94.965c-0.018,10.25-0.644,10.821-10.887,11.71
		c-5.659,0.491-11.317,0.164-16.958-0.256c-4.023-0.3-5.497-1.855-6.312-5.776c-0.65-3.129-0.642-6.29-0.643-9.453
		c-0.006-61.145-0.005-122.29-0.004-183.435c0-3.665,0.103-7.316,0.724-10.949c0.515-3.007,2.2-4.83,5.133-5.322
		c7.601-1.274,15.226-1.214,22.837-0.053c2.96,0.451,4.563,2.28,5.338,5.178c0.616,2.304,0.704,4.599,0.705,6.925
		c0.01,32.155,0.006,64.31,0.006,96.464C1073.01,476.53,1073.036,476.53,1073.063,476.53z"/>
	<path style="fill:#0E0D0D;" d="M691.371,519.282c0.001-16.161-0.007-32.323,0.004-48.484c0.005-7.185,0.807-14.26,3.18-21.085
		c5.531-15.906,17.089-25.128,33.165-28.404c15.566-3.172,31.114-1.903,46.34,2.692c1.89,0.57,3.747,1.341,5.502,2.246
		c3.56,1.836,4.87,4.182,4.185,8.186c-1.064,6.219-2.894,12.249-5.388,18.054c-1.474,3.431-3.948,4.949-7.878,4.629
		c-5.005-0.408-9.737-2.069-14.684-2.662c-5.465-0.655-10.902-1.078-16.33,0.329c-8.247,2.137-12.7,7.248-13.47,15.717
		c-0.181,1.985-0.129,3.995-0.129,5.993c-0.009,31.157-0.007,62.313-0.016,93.47c-0.001,2.829-0.069,5.634-0.693,8.44
		c-0.576,2.594-1.942,4.127-4.49,4.697c-0.809,0.181-1.598,0.585-2.405,0.613c-6.654,0.232-13.319,0.641-19.95-0.301
		c-4.743-0.673-5.705-1.799-6.488-6.676c-0.399-2.486-0.455-4.972-0.456-7.471C691.37,552.604,691.37,535.943,691.371,519.282z"/>
	<path style="fill:#1067B0;" d="M602.992,307.866c-12.456,4.01-24.904,8.045-37.37,12.024c-13.41,4.281-26.835,8.515-40.259,12.752
		c-0.617,0.195-1.286,0.224-2.271,0.387c0-38.998,0-77.827,0-116.977c17.398,0,34.651,0,51.905,0
		c0.107,1.304,0.009,2.575,0.43,3.906c5.269,16.668,10.284,33.418,15.7,50.037C595.226,282.577,599.24,295.179,602.992,307.866z"/>
	<path style="fill:#0E6EB5;" d="M602.992,307.866c-3.752-12.687-7.766-25.289-11.865-37.87c-5.416-16.619-10.431-33.369-15.7-50.037
		c-0.421-1.331-0.323-2.603-0.43-3.906c3.31-0.062,6.62-0.177,9.931-0.178c24.036-0.008,48.072,0.004,72.108,0.021
		c1.654,0.001,3.308,0.102,4.961,0.157c0.106,1.307-0.02,2.585,0.435,3.917c2.44,7.132,4.661,14.336,6.903,21.535
		c3.653,11.729,7.553,23.382,11.076,35.156c0.573,1.915,0.543,4.388,2.871,5.481c-1.192,1.314-2.892,1.472-4.45,1.964
		c-22.904,7.241-45.804,14.493-68.712,21.723C607.765,306.573,605.369,307.19,602.992,307.866z"/>
	<path style="fill:#1497D3;" d="M1156.95,133.855c2.158,6.67,4.345,13.33,6.47,20.011c6.084,19.125,12.129,38.261,18.239,57.378
		c0.476,1.49,0.214,2.948,0.332,4.419c-1.153,0.081-2.306,0.231-3.459,0.232c-28.694,0.016-57.389,0.02-86.083,0.009
		c-1.152,0-2.303-0.162-3.455-0.249c-0.041-0.994,0.195-2.106-0.169-2.962c-2.316-5.438-3.337-11.275-5.328-16.815
		c-1.322-3.678-2.412-7.458-3.594-11.189c-2.562-8.091-4.752-16.319-8.082-24.156c7.174-3.045,14.757-4.86,22.136-7.284
		c15.718-5.163,31.539-10.013,47.341-14.918C1146.478,136.722,1151.73,135.34,1156.95,133.855z"/>
	<path style="fill:#1691CD;" d="M1071.82,160.532c3.33,7.837,5.521,16.065,8.082,24.156c1.182,3.731,2.271,7.511,3.594,11.189
		c1.992,5.541,3.012,11.378,5.328,16.815c0.365,0.856,0.128,1.968,0.169,2.962c-1.325,0.082-2.65,0.236-3.974,0.237
		c-60.324,0.02-120.647,0.028-180.971,0.031c-0.998,0-1.996-0.074-2.994-0.113c-0.14-0.404-0.28-0.809-0.419-1.213
		c5.516-2.755,11.554-4.014,17.36-5.906c15.896-5.18,31.9-10.026,47.852-15.035c21.794-6.842,43.58-13.708,65.367-20.572
		c12.249-3.859,24.49-7.743,36.742-11.594C1069.22,161.091,1070.531,160.847,1071.82,160.532z"/>
	<path style="fill:#080707;" d="M839.992,504.012c0,22.817,0.018,45.633-0.009,68.45c-0.011,9.303-1.746,11.151-10.934,11.398
		c-4.99,0.134-10,0.147-14.98-0.146c-5.956-0.351-7.969-2.533-8.034-8.49c-0.116-10.658-0.091-21.317-0.088-31.975
		c0.008-36.473,0.01-72.946,0.065-109.419c0.013-8.759,2.086-10.7,11.036-10.756c4.33-0.028,8.663-0.093,12.99,0.017
		c7.475,0.19,9.898,2.568,9.915,9.974c0.056,23.649,0.021,47.298,0.021,70.948C839.98,504.012,839.986,504.012,839.992,504.012z"/>
	<path style="fill:#080707;" d="M1146.113,503.793c0,22.981,0.063,45.963-0.03,68.944c-0.038,9.377-1.648,10.906-11.115,11.138
		c-4.824,0.118-9.665,0.114-14.48-0.151c-6.138-0.338-8.156-2.58-8.411-8.771c-0.075-1.829-0.048-3.663-0.048-5.495
		c-0.002-43.632-0.005-87.264,0.004-130.896c0.001-2.663-0.089-5.346,0.185-7.986c0.48-4.63,2.247-6.396,6.808-7.28
		c0.651-0.126,1.323-0.195,1.985-0.197c5.329-0.015,10.671-0.249,15.983,0.049c7.404,0.416,9.09,3.373,9.073,9.204
		c-0.068,23.813-0.029,47.626-0.029,71.44C1146.063,503.793,1146.088,503.793,1146.113,503.793z"/>
	<path style="fill:#1075B9;" d="M683.282,282.142c-2.328-1.094-2.298-3.566-2.871-5.481c-3.522-11.774-7.423-23.427-11.076-35.156
		c-2.242-7.198-4.463-14.402-6.903-21.535c-0.456-1.332-0.329-2.61-0.435-3.917c5.464-0.059,10.929-0.175,16.393-0.167
		c22.536,0.034,45.071,0.106,67.607,0.165c0.156,1.63-0.143,3.245,0.43,4.903c1.918,5.556,3.775,11.139,5.427,16.778
		c2.064,7.042,4.864,13.871,6.139,21.141c-1.501,1.575-3.678,1.411-5.521,2c-21.428,6.838-42.903,13.527-64.354,20.29
		C686.527,281.665,685.002,282.341,683.282,282.142z"/>
	<path style="fill:#137BBE;" d="M757.993,258.874c-1.275-7.27-4.076-14.1-6.139-21.141c-1.653-5.639-3.51-11.222-5.427-16.778
		c-0.572-1.658-0.273-3.274-0.43-4.903c1.16-0.058,2.321-0.166,3.481-0.166c46.591,0.004,93.183,0.017,139.774,0.03
		c1.321,0,2.642,0,4.106,0.629c-2.812,0.957-5.607,1.969-8.439,2.864c-22.401,7.072-44.811,14.115-67.214,21.18
		c-19.093,6.021-38.179,12.065-57.278,18.068C759.668,258.894,758.807,258.808,757.993,258.874z"/>
	<path style="fill:#0E0D0D;" d="M823.1,364.088c3.322,0,6.655-0.163,9.965,0.037c5.336,0.323,7.574,2.12,8.233,7.381
		c0.99,7.902,1.053,15.854-0.233,23.769c-0.556,3.425-2.541,5.252-5.905,5.7c-8.093,1.078-16.184,1.163-24.285,0.034
		c-3.354-0.467-5.283-2.17-6.08-5.557c-0.814-3.458-0.7-6.917-0.714-10.39c-0.015-3.985-0.1-7.984,0.184-11.953
		c0.476-6.64,2.773-8.779,9.368-9.023c3.152-0.117,6.312-0.02,9.468-0.02C823.1,364.074,823.1,364.081,823.1,364.088z"/>
	<path style="fill:#0E0D0D;" d="M1129.316,364.123c3.323,0,6.66-0.2,9.964,0.046c5.075,0.378,6.934,2.196,7.893,7.274
		c1.369,7.25,0.969,14.582,0.501,21.854c-0.357,5.538-2.333,7.2-7.773,7.868c-7.606,0.934-15.221,0.947-22.813-0.177
		c-3.962-0.587-5.43-1.971-6.094-6.005c-1.277-7.751-1.001-15.543-0.288-23.325c0.471-5.137,2.688-7.164,8.643-7.543
		c3.31-0.211,6.644-0.038,9.967-0.038C1129.316,364.092,1129.316,364.108,1129.316,364.123z"/>
	<path style="fill:#65A8DA;" d="M900.635,214.595c0.14,0.404,0.28,0.809,0.419,1.213c-1.219,0.259-2.429,0.39-3.71-0.188
		C898.365,214.632,899.631,215.063,900.635,214.595z"/>
</g>
</svg>
