<?xml version="1.0" encoding="iso-8859-1"?>
<!-- Generator: Adobe Illustrator 27.0.0, SVG Export Plug-In . SVG Version: 6.00 Build 0)  -->
<svg version="1.1" id="Layer_1" xmlns="http://www.w3.org/2000/svg" xmlns:xlink="http://www.w3.org/1999/xlink" x="0px" y="0px"
	 viewBox="0 0 1498 602" style="enable-background:new 0 0 1498 602;" xml:space="preserve">
<g>
	<path style="fill:#E03C3F;" d="M405.868,310.137c1.828,0.069,3.656,0.194,5.484,0.197c11.665,0.018,23.331,0.125,34.994-0.018
		c17.656-0.217,35.307,0.187,52.936,0.911c19.273,0.792,37.917,4.765,55.091,13.967c15.863,8.5,27.587,20.794,32.965,38.304
		c6.266,20.405,2.37,39.132-10.367,56.018c-10.278,13.626-24.557,21.609-40.206,27.478c-3.521,1.32-7.071,2.563-11.743,4.251
		c14.205,4.383,26.705,9.634,37.333,18.847c6.783-9.992,13.044-19.158,19.247-28.364c28.074-41.667,56.178-83.314,84.126-125.065
		c3.035-4.534,6.743-6.454,12.048-6.364c11.314,0.192,22.63,0.255,33.945,0.445c16.138,0.27,32.289-0.231,48.434-0.4
		c1.166-0.012,2.341-0.079,3.498,0.026c4.194,0.383,5.515,1.403,6.387,5.658c2.067,10.087,3.973,20.208,5.935,30.316
		c4.238,21.839,8.496,43.674,12.697,65.519c4.14,21.524,8.217,43.06,12.335,64.589c0.174,0.907-0.085,2.039,1.377,2.642
		c1.772-3.722,2.326-7.809,3.32-11.709c12.5-49.045,24.901-98.115,37.286-147.19c2.345-9.294,2.938-9.711,12.421-9.891
		c10.495-0.2,20.964,0.631,31.449,0.536c11.313-0.102,22.635-0.103,33.935-0.581c7.003-0.296,11.229,2.173,14.446,8.721
		c22.27,45.33,44.916,90.476,67.42,135.691c5.18,10.408,10.258,20.866,15.431,31.277c1.086,2.186,1.998,4.509,4.159,6.69
		c0.612-1.768,1.232-3.212,1.614-4.716c8.72-34.256,17.432-68.514,26.107-102.782c5.743-22.683,11.417-45.384,17.145-68.071
		c1.393-5.518,2.861-6.682,8.803-6.709c9.652-0.045,19.301,0.232,28.95,0.391c14.142,0.233,28.296-0.26,42.445-0.39
		c2.425-0.022,5.124-0.466,6.626,2.943c-2.764,10.906-5.608,22.153-8.466,33.397c-13.535,53.237-27.069,106.475-40.613,159.71
		c-7.694,30.24-15.386,60.48-23.165,90.698c-0.423,1.643-0.711,3.223-0.698,4.889c-29.667,0-59.333,0-89,0
		c-1.22-1.763-2.667-3.411-3.624-5.307c-6.958-13.785-13.85-27.603-20.701-41.442c-20.621-41.657-41.21-83.33-61.845-124.98
		c-0.55-1.11-0.763-2.632-2.524-2.948c-0.395,1.059-0.907,2.112-1.183,3.222c-2.918,11.748-5.723,23.525-8.704,35.257
		c-9.764,38.42-19.546,76.835-29.427,115.225c-1.811,7.037-2.818,14.32-5.992,20.973c-40.333,0-80.667,0-121,0
		c-1.781-1.925-2.266-4.393-2.642-6.827c-1.189-7.711-2.227-15.446-3.383-23.163c-0.86-5.741-1.801-11.469-2.727-17.2
		c-0.504-3.12-2.552-4.516-5.527-4.758c-1.159-0.094-2.329-0.05-3.495-0.05c-35.802-0.002-71.604,0.1-107.404-0.102
		c-5.905-0.033-9.777,2.203-12.712,7.021c-7.261,11.92-14.698,23.733-21.877,35.701c-2.065,3.443-4.392,6.583-7.233,9.378
		c-51.333,0-102.667,0-154,0c-3.624-4.887-6.361-10.27-9.137-15.667c-5.356-10.412-11.033-20.659-16.562-30.983
		c-1.086-2.028-2.444-4.07-0.433-6.325c13.486-0.005,26.972,0.017,40.458-0.026c9-0.029,17.923-0.927,26.682-3.022
		c12.27-2.935,22.396-9.12,29.315-19.951c8.858-13.868,4.55-30.515-9.926-38.409c-2.926-1.596-6.035-2.709-9.229-3.669
		c-7.579-2.278-15.428-2.435-23.193-2.735c-22.803-0.881-45.623-0.091-68.436-0.181c-2.625-0.01-5.304-0.58-8.298,0.371
		c-2.389,5.149-3.354,10.874-4.833,16.434c-1.639,0.671-2.856,0.382-3.649-1.368c-0.958-2.112-1.996-4.191-3.089-6.236
		c-14.86-27.782-29.729-55.558-44.611-83.328c-3.424-6.389-3.142-8.652,2.049-13.517c10.196-9.555,20.411-19.091,30.65-28.601
		c18.771-17.434,37.581-34.827,56.325-52.289C401.783,310.915,403.588,310.064,405.868,310.137z M381.031,426.176
		c1.905,1.967,3.961,1.689,5.934,1.68c12.938-0.058,25.865-0.122,38.806-0.728c13.61-0.637,27.296,0.425,40.82-2.094
		c9.672-1.801,18.426-5.475,25.775-12.177c7.673-6.998,11.192-15.528,9.592-25.935c-1.453-9.455-9.846-17.453-20.715-19.859
		c-6.2-1.372-12.535-1.64-18.817-1.84c-12.149-0.387-24.313-0.294-36.471-0.355c-8.326-0.042-16.653-0.014-24.98-0.006
		c-4.515,0.004-5.008,0.382-6.298,4.678c-0.191,0.636-0.425,1.261-0.587,1.904c-3.651,14.479-7.399,28.935-10.868,43.458
		C382.345,418.566,380.646,422.13,381.031,426.176z M705.986,382.076c-0.44-0.104-0.88-0.208-1.32-0.313
		c-22.627,36.828-45.255,73.655-67.967,110.622c0.833,0.274,0.991,0.371,1.149,0.371c26.481,0.039,52.961,0.073,79.442,0.103
		c1.335,0.002,2.687,0.021,3.923-1.921C716.187,455.003,711.086,418.539,705.986,382.076z"/>
	<path style="fill:#E03C3F;" d="M931,0c0.18,3.75-1.399,7.154-2.263,10.672c-3.757,15.305-7.771,30.547-11.631,45.827
		c-0.371,1.467-0.65,2.905-1.732,4.119c-1.673,0.913-3.544,0.505-5.339,0.504c-31.652-0.016-63.305-0.064-94.957-0.111
		c-5.673-0.008-7.505,1.403-8.987,7.245c-6.406,25.254-12.74,50.526-19.176,75.772c-9.468,37.14-19.008,74.261-28.497,111.395
		c-2.506,9.806-4.934,19.632-7.405,29.447c-0.283,1.126-0.601,2.244-0.932,3.357c-1.572,5.274-3.413,6.759-8.93,6.757
		c-26.155-0.011-52.31-0.075-78.465-0.129c-1.474-0.003-3.051,0.277-4.686-2c4.037-18.736,9.475-37.827,14.206-57.081
		c4.791-19.496,9.893-38.916,14.842-58.373c4.908-19.298,9.812-38.597,14.688-57.903c4.862-19.251,9.688-38.511,14.544-57.819
		c-7.886-1.155-38.433-0.744-41.802,0.523c-0.873,2.34-0.358,4.858-0.295,7.295c0.59,22.869-9.473,40.286-27.391,53.651
		c-9.887,7.374-18.869,11.523-36.504,17.297c2.675,1.971,5.78,2.507,8.624,3.608c9.657,3.738,18.882,8.201,26.821,15.026
		c13.691,11.772,19.657,26.896,19.211,44.66c-0.515,20.501-9.573,37.324-23.049,52.169c-15.296,16.848-34.746,26.373-56.387,31.951
		c-14.527,3.745-29.331,5.719-44.329,6.284c-38.625,1.457-77.266,0.54-115.898,0.877c-1.939,0.017-4.036-0.601-5.74,0.955
		c-5.39,1.331-10.885,1.015-16.356,1.019c-18.461,0.011-36.921,0.015-55.382-0.004c-4.488-0.005-8.979-0.037-13.464-0.19
		c-2.848-0.097-5.724-0.374-6.983-3.632c0.293-1.468,0.522-2.951,0.887-4.401c14.049-55.683,28.143-111.354,42.158-167.045
		c9.639-38.304,19.809-76.474,28.816-114.937C399.82,4.204,400.59,1.62,403,0c60.333,0,120.667,0,181,0
		c0.291,0.159,0.565,0.405,0.874,0.464c11.22,2.148,22.439,4.3,33.671,6.384c1.431,0.265,2.966,0.528,4.465-0.471
		C624.284,4.526,625.159,2.433,625,0C727,0,829,0,931,0z M435.234,237.863c1.759,1.365,3.47,1.131,5.114,1.129
		c24.308-0.034,48.618,0.07,72.923-0.204c10.285-0.116,20.58-0.899,30.564-3.781c12.726-3.674,22.847-10.762,28.681-22.916
		c4.454-9.279,3.67-18.368-2.415-26.836c-5.073-7.059-12.591-10.023-20.554-12.199c-9.743-2.661-19.809-2.343-29.727-2.571
		c-21.293-0.489-42.602-0.265-63.905-0.307c-3.267-0.006-4.851,1.19-5.89,4.292c-0.368,1.1-0.643,2.232-0.926,3.359
		c-4.522,18.017-9.025,36.039-13.576,54.049C435.029,233.832,434.558,235.733,435.234,237.863z M464.55,116.773
		c1.44,0.107,2.248,0.219,3.056,0.22c19.319,0.01,38.639,0.084,57.957-0.022c10.82-0.059,21.613-0.708,32.04-3.969
		c9.543-2.984,18.203-7.446,23.959-16.035c4.197-6.263,6.476-13.174,4.815-20.772c-2.417-11.056-10.023-16.884-20.599-19.138
		c-9.46-2.016-19.142-2.237-28.765-2.664c-17.143-0.76-34.296,0.205-51.444-0.035c-1.822-0.025-3.691-0.198-5.755,1.695
		C474.879,75.689,469.79,95.929,464.55,116.773z"/>
	<path style="fill:#045B9A;" d="M327.354,293.17c1.26,3.258,4.135,3.535,6.983,3.632c4.485,0.153,8.976,0.186,13.464,0.19
		c18.461,0.019,36.921,0.015,55.382,0.004c5.471-0.003,10.966,0.312,16.356-1.019c-4.557,4.72-9.114,9.44-13.671,14.16
		c-2.28-0.073-4.085,0.778-5.785,2.361c-18.744,17.463-37.554,34.855-56.325,52.289c-10.239,9.51-20.454,19.045-30.65,28.601
		c-5.191,4.864-5.473,7.128-2.049,13.517c14.882,27.77,29.751,55.546,44.611,83.328c1.094,2.045,2.132,4.125,3.089,6.236
		c0.793,1.75,2.011,2.04,3.649,1.368c1.914,0.718,2.535,2.542,3.374,4.109c7.319,13.682,14.61,27.379,21.852,41.102
		c0.99,1.876,2.174,3.73,2.234,5.977c-2.011,2.255-0.653,4.297,0.433,6.325c5.528,10.324,11.205,20.571,16.562,30.983
		c2.776,5.397,5.513,10.78,9.137,15.667c-1,0-2,0-3,0c-5.667-5.376-12.209-9.623-18.492-14.188
		c-35.653-25.906-71.368-51.727-107.066-77.571c-4.714-3.413-9.444-6.804-14.185-10.178c-0.899-0.64-1.907-1.584-2.754,0.112
		c-24.756-17.991-49.498-36.002-74.281-53.957c-4.539-3.288-5.876-3.197-10.096,0.312c-14.457,12.021-28.89,24.069-43.312,36.132
		c-19.015,15.906-37.996,31.852-57.019,47.75c-25.408,21.234-50.853,42.425-76.239,63.686c-1.608,1.347-3.052,2.805-5.229,1.621
		c-2.256-1.227-1.644-3.366-1.309-5.338c0.055-0.326,0.166-0.643,0.254-0.964c10.149-36.941,20.295-73.883,30.447-110.824
		c6.55-23.834,13.063-47.678,19.709-71.485c1.171-4.196,0.317-7.512-2.909-10.303c-0.88-0.762-1.786-1.499-2.723-2.189
		c-11.918-8.776-23.883-17.489-35.748-26.336C7.818,365.125,3.207,362.372,0,358c0-21.333,0-42.667,0-64
		c1.289,0.197,2.154-0.898,3.316-1.087c0.809,1.807,2.298,1.948,4.076,1.949c24.162,0.008,48.325,0.097,72.487,0.126
		c5.082,0.006,6.778-1.317,8.141-6.227c1.905-6.862,3.731-13.746,5.587-20.621c11.483-42.526,22.95-85.056,34.461-127.574
		c2.631-9.719,5.413-19.398,8.185-29.309c1.825,2.015,2.648,4.217,3.678,6.281c18.366,36.835,36.719,73.676,55.048,110.53
		c9.975,20.056,20.064,40.057,29.735,60.259c2.466,5.152,5.593,7.142,11.206,6.774c7.137-0.468,14.321-0.253,21.485-0.263
		c17.165-0.024,34.33-0.044,51.495,0.033c2.452,0.011,4.626-0.222,6.278-2.218C319.237,292.824,323.295,292.997,327.354,293.17z"/>
	<path style="fill:#E03C3F;" d="M315.178,292.651c-1.652,1.996-3.826,2.229-6.278,2.218c-17.165-0.077-34.33-0.057-51.495-0.033
		c-7.164,0.01-14.348-0.205-21.485,0.263c-5.613,0.368-8.74-1.622-11.206-6.774c-9.671-20.202-19.761-40.203-29.735-60.259
		c-18.329-36.853-36.682-73.695-55.048-110.53c-1.029-2.064-1.852-4.266-3.678-6.281c-2.772,9.911-5.554,19.589-8.185,29.309
		c-11.511,42.518-22.977,85.049-34.461,127.574c-1.857,6.875-3.682,13.759-5.587,20.621c-1.363,4.91-3.059,6.233-8.141,6.227
		c-24.162-0.028-48.325-0.118-72.487-0.126c-1.778-0.001-3.267-0.142-4.076-1.949c-0.444-2.059,0.377-3.969,0.845-5.874
		c1.898-7.728,3.969-15.413,5.936-23.124c9.798-38.401,19.602-76.801,29.368-115.21c10.911-42.913,21.733-85.85,32.724-128.743
		C73.907,13.257,74.855,6.3,78,0c29,0,58,0,87,0c3.566,4.828,6.687,9.912,9.175,15.391c11.337,24.961,23.714,49.415,36.011,73.909
		c14.089,28.063,28.048,56.193,42.105,84.272c0.765,1.528,1.183,3.379,2.606,4.388c1.045-0.52,0.968-1.232,1.123-1.847
		c2.671-10.621,5.326-21.246,8.026-31.86c11.62-45.671,23.268-91.335,34.847-137.016C299.557,4.623,300.281,2.121,302,0
		c28.667,0,57.333,0,86,0c0.135,2.641,0.375,5.248-0.302,7.901c-7.471,29.274-14.848,58.572-22.314,87.848
		c-10.051,39.413-20.175,78.807-30.232,118.218C328.462,240.186,321.834,266.422,315.178,292.651z"/>
	<path style="fill:#E03D3F;" d="M1097,602c1.363-10.401,4.352-20.427,6.948-30.551c6.718-26.199,13.337-52.424,19.953-78.649
		c14.732-58.398,29.438-116.804,44.155-175.206c1.511-5.997,3.041-7.227,9.447-7.237c9.313-0.015,18.625,0.264,27.934,0.395
		c15.638,0.22,31.285-0.234,46.929-0.41c2.334-0.026,4.667-0.083,7.006,0.893c2.293,2.091,0.87,4.638,0.335,6.889
		c-1.838,7.745-3.954,15.423-5.927,23.136c-6.828,26.68-13.641,53.363-20.455,80.047c-0.363,1.42-0.789,2.844-0.492,4.249
		c1.222,0.849,1.915,0.109,2.692-0.51c41.798-33.268,83.604-66.525,125.403-99.79c4.038-3.213,8.112-6.387,12.041-9.73
		c4.25-3.616,9.024-5.24,14.631-5.225c33.653,0.09,67.307,0.027,100.96,0.073c3.147,0.004,6.294,0.409,9.441,0.628c0,1,0,2,0,3
		c-10.561,8.634-21.81,16.333-32.864,24.304c-30.362,21.895-60.6,43.963-90.895,65.952c-7.405,5.375-14.855,10.688-22.254,16.071
		c-3.856,2.806-4.22,4.669-1.899,8.819c0.244,0.435,0.546,0.837,0.808,1.262c17.808,28.864,35.614,57.729,53.42,86.594
		c15.972,25.891,31.93,51.791,47.938,77.661c1.42,2.295,2.562,4.617,2.745,7.338c-33.667,0-67.333,0-101,0
		c-3.386-5.314-6.991-10.48-10.129-15.962c-20.207-35.31-40.483-70.581-60.754-105.854c-1.053-1.832-1.73-4.022-4.043-4.869
		c-2.079,0.247-3.605,1.615-5.198,2.756c-19.726,14.134-39.404,28.336-59.15,42.443c-4.135,2.954-6.651,6.789-7.848,11.689
		c-3.581,14.657-7.14,29.321-10.94,43.921c-2.249,8.64-3.833,17.464-6.938,25.876C1158.333,602,1127.667,602,1097,602z"/>
	<path style="fill:#E03C3F;" d="M245,602c0.143-5.052,2.109-9.705,3.322-14.505c6.951-27.506,14.089-54.965,21.148-82.444
		c0.413-1.608,0.692-3.25,1.033-4.876c0.847-1.696,1.854-0.753,2.754-0.112c4.741,3.375,9.471,6.765,14.185,10.178
		c35.698,25.844,71.413,51.665,107.066,77.571c6.282,4.565,12.825,8.812,18.492,14.188C357,602,301,602,245,602z"/>
</g>
</svg>
