<?xml version="1.0" encoding="iso-8859-1"?>
<!-- Generator: Adobe Illustrator 27.0.0, SVG Export Plug-In . SVG Version: 6.00 Build 0)  -->
<svg version="1.1" id="Layer_1" xmlns="http://www.w3.org/2000/svg" xmlns:xlink="http://www.w3.org/1999/xlink" x="0px" y="0px"
	 viewBox="0 0 1651.136 1091.778" style="enable-background:new 0 0 1651.136 1091.778;" xml:space="preserve">
<g>
	<path style="fill:#060505;" d="M0,394c9.851-8.316,21.122-14.316,32.574-20.037c6.678-3.336,13.356-6.711,19.624-10.769
		c22.739-14.72,40.866-33.933,54.904-57.033c9.057-14.904,16.741-30.528,23.933-46.4c0.542-1.197,1.129-2.373,1.836-3.854
		c8.297,0.087,16.469,1.496,25.382,2.257c-1.697,35.566-3.269,71.043-5.755,106.975c44.769,0,89.179,0,133.966,0
		c0,15.706,0,30.942,0,46.729c-44.348,0-88.877,0-133.742,0c0,2.003-0.001,3.464,0,4.925c0.05,74.653-0.052,149.307,0.264,223.959
		c0.072,17.111,1.387,34.242,4.983,51.068c2.96,13.848,8.892,26.062,20.231,35.073c7.025,5.583,15.016,8.881,23.947,10.235
		c23.257,3.525,43.497-4.188,62.499-16.496c4.326-2.802,8.814-4.524,13.95-4.558c0.333-0.002,0.668-0.017,1,0.007
		c12.352,0.894,14.172,10.924,9.304,18.376c-12.573,19.248-29.967,32.68-51.06,41.526c-12.538,5.258-25.657,8.625-39.165,8.462
		c-15.303-0.185-30.619,0.733-45.923-0.528c-20.977-1.729-38.786-9.782-52.83-25.635c-8.523-9.62-13.935-20.98-17.652-33.138
		c-4.241-13.871-6.357-28.133-7.308-42.61c-1.795-27.302-0.865-54.633-0.963-81.947c-0.22-60.988-0.027-121.978-0.003-182.967
		c0.001-1.789,0-3.577,0-5.66c-23.196-0.176-45.998,0.869-68.952-2c-1.332-3.96-2.653-7.849-3.937-11.75
		c-0.2-0.606-0.17-1.322-1.108-1.211C0,396,0,395,0,394z"/>
	<path style="fill:#F68620;" d="M1447,0c4.321,1.7,8.999,1.592,13.462,2.756c19.596,5.114,35.957,15.319,49.081,30.643
		c8.429,9.842,14.368,21.055,17.634,33.681c8.166,31.563,0.995,59.536-19.977,84.04c-11.962,13.976-26.915,23.923-44.936,28.081
		c-32.677,7.541-61.494-0.378-86.005-23.36c-13.488-12.647-22.272-28.065-25.744-46.248c-9.656-50.562,20.437-90.388,58.587-103.758
		c6.734-2.36,13.42-4.907,20.694-5.101c0.408-0.011,0.804-0.478,1.205-0.733C1436.333,0,1441.667,0,1447,0z"/>
	<path style="fill:#FFD208;" d="M1171.936,1090.936c-0.396-1.657,0.673-2.895,1.339-4.174
		c21.732-41.691,42.575-83.827,62.753-126.284c21.945-46.174,42.542-92.951,61.044-140.629c0.599-1.542,1.352-3.026,1.277-5.05
		c-4.063-3.633-8.234-7.425-12.472-11.141c-22.696-19.896-44.057-41.108-63.88-63.89c-15.328-17.616-29.271-36.235-41.541-56.078
		c-17.135-27.71-30.273-57.189-37.951-88.929c-2.456-10.153-3.935-20.501-4.675-30.975c-0.541-7.652-0.886-15.287-0.687-22.938
		c0.499-19.167,3.363-38.021,8.314-56.519c11.592-43.31,32.21-82.043,59.766-117.25c16.068-20.529,34.128-39.197,53.296-56.767
		c30.261-27.738,63.391-51.696,98.317-73.208c15.855-9.766,32.114-18.825,48.511-27.641c1.444-0.776,2.868-1.657,4.793-1.896
		c3.725,4.688,6.804,9.791,9.935,14.837c15.63,25.193,28.843,51.63,39.506,79.27c10.098,26.175,18.007,53.026,23.561,80.577
		c3.317,16.453,5.758,33.019,7.572,49.673c0.754,6.923,1.036,13.935,1.56,20.892c1.14,15.152,1.02,30.302,0.67,45.444
		c-0.389,16.781-1.857,33.5-3.665,50.206c-3.275,30.264-9.446,59.934-17.306,89.282c-7.731,28.865-17.558,57.031-28.763,84.724
		c-12.031,29.732-25.837,58.635-40.59,87.098c-0.99,1.911-1.941,3.841-2.964,5.868c4.027,8.396,9.419,15.727,15.661,22.457
		c10.104,10.892,21.394,20.503,32.637,30.167c2.854,2.453,6.121,4.529,8.009,7.967l0.073-0.07c-3.404,0.528-6.548-0.802-9.765-1.457
		c-23.806-4.843-46.813-12.151-68.557-22.656c-1.889,0.587-2.332,2.186-3.094,3.386c-15.236,24.015-31.496,47.318-48.78,69.898
		c-13.143,17.171-26.725,33.99-40.773,50.438c-29.662,34.731-61.497,67.385-94.473,98.937c-5.974,5.716-11.55,11.951-18.562,16.53
		L1171.936,1090.936z M1326.854,727.362c1.893-2.912,2.212-5.917,3.14-8.67c11.071-32.83,20.584-66.108,28.639-99.805
		c3.892-16.279,7.462-32.627,10.416-49.103c2.31-12.887,4.678-25.77,6.654-38.71c1.702-11.15,2.891-22.378,4.302-33.572
		c0.998-7.913,1.421-15.885,2.274-23.805c1.3-12.071,2.132-24.187,2.477-36.285c1.069-37.441,1.076-74.889-2.914-112.202
		c-0.611-5.711-0.494-11.561-2.24-17.241c-0.588,0.199-1.1,0.27-1.497,0.522c-20.064,12.774-37.854,28.155-53.479,46.111
		c-11.965,13.75-22.117,28.702-30.343,44.916c-8.883,17.51-15.09,36.056-20.291,54.954c-6.943,25.224-10.831,50.927-11.865,77.045
		c-0.818,20.656,0.566,41.21,3.96,61.601c2.672,16.056,6.669,31.748,12.897,46.863c10.022,24.324,22.127,47.551,36.039,69.854
		C1318.683,715.703,1322.357,721.572,1326.854,727.362z"/>
	<path style="fill:#040404;" d="M819.397,776.818c-2.975,0-5.972,0.193-8.937-0.031c-20.943-1.579-41.942-1.827-62.916-2.538
		c-24.976-0.847-49.972-1.011-74.972-0.529c-13.328,0.257-26.654,0.542-39.946,1.405c-9.448,0.613-18.921,1.218-28.303,2.678
		c-9.792,1.524-18.762-3.772-21.633-12.791c-1.53-4.805-1.237-12.04,4.857-16.512c7.602-5.578,16.326-7.968,25.38-9.431
		c7.538-1.218,15.118-2.187,22.534-4.046c7.895-1.979,14.934-5.475,20.306-11.827c1.541-1.823,2.393-3.748,2.558-6.256
		c0.742-11.299,1.432-22.594,1.85-33.915c2.265-61.311,0.38-122.638,0.767-183.956c0.088-13.981-0.506-27.996-2.001-41.911
		c-1.694-15.769-5.339-30.978-13.622-44.851c-9.3-15.576-23.275-24.826-40.075-30.132c-12.444-3.93-25.305-4.894-38.405-4.634
		c-36.635,0.726-67.849,15.352-96.509,36.731c-9.079,6.773-17.391,14.471-25.318,22.763c0.866,11.7,0.806,23.359,1.023,35.013
		c0.894,48.16-0.246,96.319,0.01,144.478c0.086,16.164,0.024,32.329-0.015,48.493c-0.036,15.002,0.576,29.962,2.979,44.794
		c0.635,3.919,1.892,7.74,2.5,11.662c0.734,4.737,3.503,7.554,7.536,9.73c6.658,3.592,13.722,5.705,21.156,6.912
		c9.663,1.569,19.501,2.11,28.967,4.835c2.066,0.594,4.086,1.346,6.136,1.998c7.934,2.525,12.135,8.862,10.566,18.398
		c-1.613,9.807-10.764,16.105-20.52,14.24c-5.431-1.038-10.951-0.914-16.411-1.271c-14.121-0.923-28.237-2-42.394-2.408
		c-21.989-0.632-43.977-1.274-65.972-0.649c-19.478,0.553-38.945,1.465-58.386,2.813c-6.968,0.483-13.919,1.255-20.864,2.016
		c-8.92,0.978-14.887-4.411-17.348-11.216c-0.73-2.02-1.367-4.08-1.931-6.153c-0.785-2.887-1.29-5.827-1.23-9.028
		c4.146-4.117,9.321-6.615,14.787-8.677c8.926-3.367,18.304-4.559,27.646-6.003c10.805-1.67,21.685-3.054,31.469-8.619
		c2.464-1.401,4.084-3.065,5.091-5.696c4.154-10.846,6.041-22.176,6.092-33.656c0.105-23.825,1.068-47.63,1.047-71.46
		c-0.109-127.155,0.427-254.31-0.283-381.464c-0.118-21.163-0.323-42.327-0.607-63.489c-0.181-13.506-2.197-26.83-4.535-40.1
		c-0.459-2.605-0.497-5.319-1.834-8.086c-7.629-3.479-15.796-5.966-24.509-6.559c-9.135-0.622-18.265-1.311-27.394-2.013
		c-7.516-0.578-12.225-5.501-13.222-13.731c-0.886-7.311,3.051-13.898,9.878-16c14.399-4.432,28.89-8.571,43.26-13.091
		c20.444-6.431,40.596-13.777,58.213-26.276c10.572-7.501,22.288-9.817,34.656-10.719c0.941-0.069,1.999-0.356,3.018,0.592
		c0.407,4.616,0.981,9.386,1.22,14.172c0.732,14.636,1.756,29.253,2.342,43.902c1.493,37.308,2.024,74.622,1.461,111.95
		c-0.522,34.655-1.015,69.314-1.966,103.959c-0.636,23.16-0.684,46.319-0.912,69.479c-0.016,1.644-0.271,3.322,0.295,4.962
		c2.018-0.016,2.861-1.674,4.04-2.735c25.175-22.666,53.011-41.047,85.007-52.682c15.782-5.739,31.936-9.887,48.691-11.811
		c10.449-1.2,20.886-2.094,31.374-1.723c20.576,0.727,40.667,4.136,59.295,13.327c27.55,13.593,46.311,35.166,56.463,64.138
		c4.848,13.833,7.532,28.144,9.227,42.705c1.967,16.906,2.313,33.873,2.898,50.846c1.746,50.657-0.82,101.312,0.022,151.965
		c0.352,21.147,0.866,42.299,2.623,63.395c0.29,3.483,0.057,7.036,0.628,10.464c1.599,9.599,7.101,16.258,16.042,20.07
		c7.537,3.213,15.458,4.896,23.542,6.008c7.887,1.085,15.753,2.223,23.584,3.78c12.675,2.52,17.324,12.247,13.963,24.905
		C822.574,770.926,821.297,773.953,819.397,776.818z"/>
	<path style="fill:#050505;" d="M1125.524,472.678c-9.44,2.812-18.798,4.747-28.56,4.591c-33.157-0.531-66.318-0.858-99.475-1.412
		c-39.32-0.657-78.638-1.462-117.957-2.222c-9.329-0.18-18.656-0.465-27.985-0.644c-1.633-0.031-3.314-0.359-5.193,0.399
		c-4.085,13.843-7.541,27.956-9.478,42.433c-1.037,7.755-1.804,15.517-2.194,23.334c-1.348,27.024,1.379,53.557,11.276,78.849
		c17.577,44.917,49.257,74.445,96.611,86.111c18.173,4.477,36.638,6.659,55.373,5.859c27.71-1.182,53.815-7.609,76.827-23.945
		c10.011-7.107,18.355-15.894,25.876-25.51c2.684-3.432,5.668-6.549,9.08-9.242c1.296-1.023,2.683-1.918,4.261-2.537
		c4.216-1.655,8.544-3.529,12.748-0.499c5.052,3.641,6.74,8.941,5.875,14.979c-0.661,4.614-2.116,9.014-4.245,13.198
		c-8.131,15.986-18.539,30.31-31.05,43.156c-18.871,19.377-40.898,33.789-66.492,42.667c-12.269,4.256-24.942,6.706-37.737,8.738
		c-17.221,2.736-34.56,2.934-51.835,1.761c-30.925-2.1-60.683-9.04-87.964-24.424c-20.736-11.693-37.994-27.449-52.445-46.281
		c-18.628-24.274-30.078-51.676-35.972-81.654c-4.682-23.812-6.796-47.792-5.704-71.967c1.596-35.32,8.892-69.416,24.531-101.351
		c13.69-27.956,33.259-51.203,57.684-70.457c24.453-19.277,52.141-31.345,82.521-37.559c17.505-3.58,35.177-5.487,53.045-4.867
		c24.406,0.848,48.233,5.053,70.897,14.306c13.117,5.355,25.032,12.963,35.911,22.156c15.076,12.741,27.252,27.635,35.514,45.694
		C1126.131,431.332,1130.32,453.104,1125.524,472.678z M859.255,442.487c25.495-0.854,50.103-0.232,74.726,0.396
		c28.283,0.722,56.604,1.049,84.743-2.903c6.381-0.896,12.77-1.868,19.019-3.729c1.079-4.131,2.319-8.094,3.121-12.143
		c1.064-5.374,2.008-10.799,0.248-16.261c-2.471-7.67-6.083-14.744-11.534-20.686c-13.319-14.518-30.535-20.521-49.633-22.255
		c-9.489-0.862-18.908-0.389-28.343,0.941c-14.037,1.977-26.972,6.728-38.684,14.692c-15.2,10.336-27.273,23.802-38.109,38.475
		C869.397,426.345,864.267,433.861,859.255,442.487z"/>
	<path style="fill:#F68620;" d="M1651.124,261.635c0.747,39.033-36.798,78.041-79.051,77.367
		c-47.648-0.761-79.33-39.637-78.998-79.286c0.348-41.449,34.565-79.861,79.225-79.181
		C1610.913,181.122,1651.943,211.765,1651.124,261.635z"/>
	<path style="fill:#F68620;" d="M1244.443,245.302c-51.419,0.07-80.727-41.215-79.934-80.034
		c0.984-48.153,39.798-78.145,80.339-77.93c36.603,0.193,78.985,31.017,77.131,82.889
		C1320.513,211.27,1283.32,245.45,1244.443,245.302z"/>
	<path style="fill:#FFD208;" d="M1455.964,876.03c0.265,0.124,0.531,0.249,0.796,0.373c-0.662,0.538-0.729,0.106-0.723-0.444
		L1455.964,876.03z"/>
	<path style="fill:#FFD208;" d="M1172.033,1091.036c-0.132,0.247-0.264,0.494-0.396,0.742c-0.138-0.161-0.276-0.322-0.415-0.482
		c0.238-0.12,0.476-0.24,0.714-0.36L1172.033,1091.036z"/>
</g>
</svg>
