<?xml version="1.0" encoding="iso-8859-1"?>
<!-- Generator: Adobe Illustrator 27.0.0, SVG Export Plug-In . SVG Version: 6.00 Build 0)  -->
<svg version="1.1" id="Layer_1" xmlns="http://www.w3.org/2000/svg" xmlns:xlink="http://www.w3.org/1999/xlink" x="0px" y="0px"
	 viewBox="0 0 1851.304 541" style="enable-background:new 0 0 1851.304 541;" xml:space="preserve">
<g>
	<path style="fill:#888079;" d="M1016.304,541c-3.564-1.968-7.599-1.406-11.398-1.976c-24.704-3.701-47.285-11.947-65.172-30.193
		c-14.142-14.426-20.775-31.846-19.17-52.049c0.971-12.216,5.933-23.007,13.342-32.714c9.843-12.895,23.155-20.681,38.135-26.036
		c1.247-0.446,2.508-0.852,4.076-1.383c-5.062-4.091-9.756-8.296-14.863-11.918c-8.272-5.866-12.35-14.37-14.602-23.627
		c-2.452-10.078-0.859-20.077,3.472-29.576c2.345-5.143,5.879-9.176,10.619-12.26c5.858-3.812,12.188-6.713,18.49-9.669
		c-0.347-2.226-2.106-3.143-3.354-4.374c-10.436-10.3-20.798-20.683-28.22-33.484c-5.366-9.256-8.805-19.245-10.364-29.877
		c-0.89-6.072-1.495-12.158-1.924-18.278c-0.63-9.007,1.786-17.452,4.751-25.723c7.109-19.832,21.445-32.607,40.336-41.035
		c13.006-5.803,26.654-8.773,40.623-10.945c21.311-3.314,42.743-3.085,64.184-2.795c10.634,0.144,21.288,0.352,31.889,1.129
		c13.301,0.975,26.594,0.807,39.899,0.79c1.475-0.002,3.006-0.23,4.307,0.581c2.049,3.87,2.411,7.487,1.628,16.245
		c-0.478,0.249-1.048,0.803-1.62,0.805c-6.808,0.029-13.627,0.635-20.423-0.331c-1.309-0.186-2.674-0.313-3.977-0.157
		c-8.936,1.07-17.937,0.425-26.913,1.007c-0.516,1.512,0.774,2.059,1.443,2.835c5.134,5.954,9.28,12.539,12.666,19.617
		c0.788,1.648,1.393,3.407,2.355,4.944c5.398,8.622,6.696,18.146,7.018,28.101c0.236,7.295,0.172,14.572-0.32,21.81
		c-1.207,17.743-6.223,34.295-17.615,48.289c-6.817,8.373-15.612,14.388-25.556,18.645c-10.738,4.597-21.968,7.229-33.541,8.689
		c-12.526,1.581-25.111,2.191-37.691,3.039c-7.409,0.499-14.809,1.337-22.177,2.708c-12.063,2.245-19.336,19.072-17.376,27.428
		c1.024,4.366,4.149,7.135,7.923,9.114c6.556,3.438,13.695,4.898,20.987,5.679c18.931,2.028,37.917,1.173,56.876,0.82
		c16.359-0.305,32.532,0.471,48.305,5.207c19.773,5.937,36.2,16.513,46.938,34.635c4.527,7.64,7.113,15.996,8.049,24.885
		c2.435,23.118-5.348,43.011-19.087,61.032c-14.648,19.213-34.11,31.715-56.372,40.332c-11.666,4.516-23.815,6.955-36.111,8.818
		c-1.798,0.272-3.656,0.147-5.487,0.205c-4.147,0.008-8.294,0.01-12.44,0.027c-0.964,0.004-2.037-0.226-2.541,0.985
		C1029.638,541,1022.971,541,1016.304,541z M1034.245,524.095c22.641-0.001,40.583-4.764,57.25-14.137
		c10.128-5.695,18.749-13.14,24.947-23.143c5.499-8.876,8.676-18.502,10.173-28.843c1.513-10.458-0.144-20.138-5.665-29.1
		c-8.402-13.638-21.413-21.09-36.12-25.727c-16.094-5.074-32.59-7.014-49.561-5.48c-9.285,0.839-18.466,1.839-27.418,4.401
		c-11.23,3.215-21.925,7.622-31.309,14.792c-7.606,5.811-13.266,12.999-15.891,22.325c-0.9,3.197-1.149,6.523-1.666,9.796
		c-1.317,8.328-1.059,16.587,0.78,24.737c4.017,17.807,14.829,30.521,30.481,39.323
		C1004.97,521.321,1021.083,523.905,1034.245,524.095z M1038.477,157.854c-16.134-0.438-29.929,5.211-41.631,16.057
		c-14.404,13.349-20.68,30.574-22.432,49.58c-1.218,13.221,1.055,26.138,5.955,38.501c4.807,12.128,11.839,22.551,23.006,29.878
		c8.874,5.823,18.702,8.795,29.082,8.824c8.749,0.024,17.358-2.103,25.672-5.16c10.826-3.981,19.519-10.39,25.299-20.588
		c8.181-14.435,11.896-30.076,12.843-46.469c0.452-7.826-0.604-15.574-2.071-23.242c-2.122-11.088-6.244-21.31-13.93-29.787
		C1069.083,163.109,1054.765,158.099,1038.477,157.854z"/>
	<path style="fill:#898079;" d="M1567.304,0c-0.059,1.995-0.17,3.989-0.17,5.984c-0.008,128.279-0.005,256.559-0.025,384.838
		c0,1.954,0.356,3.963-0.434,6.084c-14.297,0-28.535,0-43.279,0c0-2.16,0-4.117,0-6.074c0-128.279,0-256.559-0.004-384.838
		c0-1.998-0.057-3.996-0.088-5.994C1537.971,0,1552.638,0,1567.304,0z"/>
	<path style="fill:#E4E1DF;" d="M1851.304,83l-0.495-0.001l-0.495,0.003c0.031-13.65,0.062-27.299,0.093-40.949
		c0.299-0.021,0.598-0.039,0.897-0.054C1851.304,55.667,1851.304,69.333,1851.304,83z"/>
	<path style="fill:#C1BBB6;" d="M1851.304,42c-0.299,0.014-0.599,0.032-0.897,0.054c-0.174-13.066-0.217-26.131,0.167-39.194
		c0.284-0.166,0.528-0.119,0.731,0.141C1851.304,16,1851.304,29,1851.304,42z"/>
	<path style="fill:#A59E98;" d="M1036.304,541c0.504-1.211,1.577-0.981,2.541-0.985c4.147-0.017,8.294-0.019,12.44-0.027
		c0.006,0.337,0.013,0.675,0.019,1.012C1046.304,541,1041.304,541,1036.304,541z"/>
	<path style="fill:#888079;" d="M1850.573,2.859c-0.384,13.063-0.34,26.128-0.167,39.194c-0.031,13.65-0.062,27.299-0.093,40.949
		c-0.035,0.665-0.092,1.33-0.102,1.995c-0.638,39.299-0.626,78.608-1.328,117.901c-0.536,29.974-0.032,59.958-0.958,89.913
		c-0.891,28.808-0.376,57.615-0.914,86.417c-0.102,5.445-0.551,10.883-0.865,16.802c-12.864-0.267-25.59,0.396-38.637-1.191
		c-0.126-4.957,0.116-9.793-0.472-14.527c-0.578-4.658-0.444-9.296-0.65-13.941c-0.21-4.725,0.136-9.5-0.74-15.178
		c-5.384,5.809-10.238,10.57-14.538,15.788c-8.159,9.898-18.041,17.624-29.058,23.97c-9.68,5.575-19.926,9.78-30.906,12.131
		c-18.586,3.979-36.674,2.516-54.043-5.246c-26.112-11.669-43.179-31.897-53.828-57.976c-5.49-13.446-8.437-27.497-10.096-41.904
		c-1.646-14.297-1.403-28.638-0.565-42.889c0.875-14.868,3.486-29.555,8.472-43.78c6.94-19.796,18.76-35.822,35.817-47.872
		c14.224-10.049,29.737-17.386,46.99-20.712c19.351-3.73,37.983-1.442,55.889,6.644c9.894,4.468,19.041,10.216,26.844,17.805
		c3.919,3.811,7.242,8.231,10.872,12.343c2.516,2.85,4.957,5.787,8.697,8.584c-1.488-61.942-0.144-123.223-2.119-185.222
		C1820.041,2.859,1835.307,2.859,1850.573,2.859z M1654.089,281.534c-0.7,21,2.755,41.063,11.815,60.044
		c8.368,17.532,20.553,31.235,38.646,39.142c11.004,4.809,22.644,5.886,34.196,3.861c23.918-4.194,40.441-18.944,52.432-39.279
		c11.266-19.104,16.351-40.221,17.926-62.018c1.413-19.553,0.998-39.159-4.702-58.294c-5.881-19.744-15.399-36.998-32.112-49.696
		c-10.035-7.624-21.285-12.262-33.83-13.162c-18.57-1.333-34.572,5.092-48.242,17.405c-14.5,13.06-23.217,29.789-28.836,48.124
		C1656.008,245.198,1653.573,263.255,1654.089,281.534z"/>
	<path style="fill:#AD9D6B;" d="M704.439,152.162c9.968-0.133,19.422-0.013,29.332,1.007c21.97,65.439,44.015,131.099,66.06,196.76
		c0.314,0.031,0.629,0.062,0.943,0.094c26.007-66.192,52.013-132.385,78.099-198.78c8.292,0,16.562,0,25.164,0
		c0.833,2.723-0.633,5.136-1.395,7.498c-1.064,3.298-2.473,6.531-4.107,9.593c-8.687,16.28-15.062,33.576-22.348,50.47
		c-10.764,24.957-20.777,50.224-30.923,75.434c-9.772,24.282-19.276,48.671-28.945,72.995c-3.182,8.005-6.476,15.966-9.795,23.915
		c-0.952,2.28-2.173,4.448-3.345,6.816c-9.074,0.198-17.997-0.079-27.116,0.828c-21.951-66.067-43.753-131.685-65.951-198.497
		c-24.23,66.785-48.055,132.456-71.909,198.204c-9.473,0-18.719,0-28.161,0c-3.072-9.304-5.984-18.434-9.098-27.495
		c-9.312-27.096-19.516-53.869-29.332-80.782c-11.064-30.332-22.068-60.691-32.473-91.262c-2.021-5.936-4.547-11.712-7.77-17.197
		c-5.208-8.863-9.275-18.298-12.784-27.69c0.595-1.855,1.77-2.098,3.233-2.094c13.654,0.032,27.308,0.019,40.668,0.019
		c2.306,1.495,1.988,3.818,2.338,5.609c5.165,26.477,15.074,51.424,24.509,76.52c5.596,14.884,10.719,29.931,15.912,44.955
		c8.061,23.322,15.916,46.72,25.085,69.643c0.417,1.042,0.934,2.043,1.911,4.163C656.533,285.353,680.484,218.764,704.439,152.162z"
		/>
	<path style="fill:#AD9D6B;" d="M215.306,398.851c-13.907,0-27.044,0-40.45,0c-0.784-4.025-0.496-8.001-0.142-11.882
		c0.211-2.313,0.447-4.622,0.465-6.941c0.112-14.498,0.323-28.997,0.219-43.493c-0.058-8.163,0.642-16.282,0.825-24.428
		c0.362-16.158-0.199-32.325-1.18-48.41c-1.23-20.182-4.223-40.235-12.758-58.922c-4.771-10.446-11.387-19.491-21.286-25.751
		c-7.008-4.432-14.617-6.653-22.938-7.365c-11.019-0.943-21.353,0.986-31.531,5.005c-10.484,4.139-18.26,11.342-24.33,20.574
		c-7.41,11.268-11.466,23.823-13.886,36.986c-3.255,17.708-4.343,35.576-4.1,53.551c0.079,5.832-0.113,11.672,0.129,17.496
		c0.594,14.282,1.139,28.573,2.149,42.828c0.692,9.772,1.396,19.537,1.9,29.323c0.358,6.959,1.157,13.894,0.875,21.229
		c-14.461,0-28.857,0-43.827,0c-0.062-3.124-0.081-6.231-0.192-9.335C4.26,361.682,4.014,334.028,4.66,306.4
		c0.849-36.31,0.721-72.614,0.499-108.919c-0.078-12.775-1.98-25.509-1.827-38.323c0.03-2.483,0.004-4.966,0.004-7.258
		c-0.915-1.389-2.364-0.529-3.337-1.242c0.154-0.187,0.269-0.467,0.465-0.543c2.499-0.976,5.039-1.356,7.776-1.258
		c6.992,0.25,13.995,0.232,20.994,0.258c5.482,0.02,10.952,0.145,16.646,1.092c0.94,9.653,1.647,19.384,1.486,29.49
		c2.295-0.917,3.822-2.376,5.446-3.711c10.554-8.679,21.596-16.673,33.975-22.559c13.262-6.306,27.134-10.457,41.912-11.536
		c18.55-1.354,35.789,2.632,50.786,13.504c14.464,10.486,26.036,23.69,31.998,41.042c1.089,3.169,1.616,6.385,1.741,9.737
		c0.954,25.46,0.597,50.943,1.281,76.401c0.976,36.308,0.623,72.614,0.798,108.921C215.316,393.8,215.306,396.105,215.306,398.851z"
		/>
	<path style="fill:#AD9D6B;" d="M494.89,270.093c-61.886,0-123.475,0-185.476,0c0,6.692-0.387,12.998,0.086,19.24
		c0.827,10.909,2.97,21.649,5.918,32.178c4.028,14.386,9.885,27.898,20.742,38.62c11.493,11.35,25.32,18.598,40.823,22.88
		c10.864,3,21.935,3.845,33.075,2.905c9.645-0.814,18.785-3.858,27.541-7.987c12.371-5.833,23.569-13.654,35.169-20.791
		c3.804-2.34,7.693-4.488,12.336-6.239c-0.893,7.618-0.605,14.937-3.228,21.849c-2.126,5.603-6.433,9.355-11.456,12.073
		c-16.129,8.728-33.016,15.215-51.253,18.393c-12.699,2.212-25.376,3.278-38.159,2.651c-16.5-0.809-32.448-4.227-47.58-11.226
		c-12.986-6.007-24.541-14.01-34.63-24.044c-8.157-8.112-14.854-17.394-20.857-27.254c-8.782-14.425-13.656-30.145-16.436-46.598
		c-2.531-14.981-3.171-30.143-1.951-45.252c1.88-23.285,9.591-44.603,23.253-63.681c8.29-11.576,18.981-20.272,31.309-27.28
		c15.171-8.625,31.34-14.365,48.458-17.23c12.33-2.063,24.782-1.779,37.257-0.491c9.11,0.94,18.014,2.635,26.783,5.13
		c14.451,4.111,27.596,10.845,38.271,21.465c11.305,11.247,20.155,24.291,24.939,39.716c1.913,6.167,3.13,12.475,3.653,18.978
		c1.067,13.258,1.743,26.52,1.798,39.817C495.276,268.389,495.113,268.864,494.89,270.093z M451.003,252.738
		c1.166-4.186,1.189-7.996,1.23-11.827c0.077-7.334-0.818-14.605-2.134-21.748c-1.927-10.456-5.077-20.6-10.637-29.825
		c-3.441-5.709-7.313-11.069-12.389-15.455c-9.582-8.281-20.623-12.769-33.302-14.172c-12.292-1.36-23.776,0.525-34.743,5.87
		c-16,7.797-27.093,20.503-35.479,35.905c-6.117,11.234-9.481,23.311-11.018,35.887c-0.615,5.03-0.516,10.201,0.158,15.366
		C358.928,252.738,404.849,252.738,451.003,252.738z"/>
	<path style="fill:#8A827B;" d="M1307.091,130.29c15.779,0,31.697,0,47.873,0c0,16.163,0,32.142,0,47.684
		C1339.159,162.231,1323.183,146.319,1307.091,130.29z"/>
	<path style="fill:#8A827B;" d="M1470.039,248.426c0,15.142,0,31.057,0,47.181c-16.194,0-32.117,0-47.351,0
		C1438.277,280.075,1454.263,264.146,1470.039,248.426z"/>
	<path style="fill:#898179;" d="M1196.142,221.178c9.106-14.313,17.645-27.736,26.414-41.522
		c13.517,8.655,26.714,17.105,39.911,25.556c-0.029,0.369-0.057,0.738-0.086,1.107
		C1240.614,211.201,1218.846,216.084,1196.142,221.178z"/>
	<path style="fill:#898179;" d="M1379.823,138.104c13.79,7.401,27.579,14.801,41.742,22.402
		c-7.637,14.239-15.133,28.217-23.136,43.138c-6.872-22.175-13.212-43.566-19.487-64.977
		C1379.235,138.48,1379.529,138.292,1379.823,138.104z"/>
	<path style="fill:#898179;" d="M1221.544,361.59c-8.175-13.407-16.349-26.813-24.762-40.611
		c13.873-8.491,27.373-16.755,41.74-25.548c-5.458,22.711-10.685,44.467-15.913,66.224
		C1222.254,361.633,1221.899,361.612,1221.544,361.59z"/>
	<path style="fill:#898179;" d="M1439.381,363.104c-13.944-8.197-27.646-16.252-42.206-24.812
		c22.396-5.838,44.066-11.486,67.004-17.465C1455.566,335.509,1447.567,349.147,1439.381,363.104z"/>
	<path style="fill:#898179;" d="M1421.959,244.589c5.544-21.56,11.089-43.119,16.807-65.353
		c8.401,14.211,16.572,28.034,24.922,42.159c-13.715,8.112-27.091,16.025-40.468,23.937
		C1422.8,245.085,1422.38,244.837,1421.959,244.589z"/>
	<path style="fill:#898179;" d="M1421.996,379.7c-14.315,9.051-27.686,17.505-41.486,26.229
		c-8.716-13.769-17.092-27.001-26.151-41.311C1377.345,369.744,1399.073,374.589,1421.996,379.7z"/>
	<path style="fill:#898179;" d="M1240.212,163.179c13.127-8.584,26.254-17.168,39.814-26.035
		c8.952,13.684,17.61,26.921,26.802,40.972c-22.716-4.74-44.476-9.28-66.235-13.82
		C1240.466,163.924,1240.339,163.552,1240.212,163.179z"/>
	<path style="fill:#898179;" d="M1282.731,405.288c-14.596-8.348-28.21-16.135-42.366-24.232
		c7.549-14.231,15.586-27.643,24.421-41.202C1270.651,361.241,1276.516,382.627,1282.731,405.288z"/>
	<path style="fill:#887F78;" d="M1191.473,294.978c0-15.138,0-30.838,0-46.777c15.918,0,31.613,0,47.061,0
		C1222.81,263.83,1207.049,279.497,1191.473,294.978z"/>
	<path style="fill:#888079;" d="M1354.352,412.801c-15.106,0-30.805,0-46.739,0c0-15.933,0-31.631,0-46.896
		C1323.167,381.511,1338.854,397.252,1354.352,412.801z"/>
</g>
</svg>
