<?xml version="1.0" encoding="iso-8859-1"?>
<!-- Generator: Adobe Illustrator 27.0.0, SVG Export Plug-In . SVG Version: 6.00 Build 0)  -->
<svg version="1.1" id="Layer_1" xmlns="http://www.w3.org/2000/svg" xmlns:xlink="http://www.w3.org/1999/xlink" x="0px" y="0px"
	 viewBox="0 0 1468 770" style="enable-background:new 0 0 1468 770;" xml:space="preserve">
<g>
	<path style="fill:#115FAA;" d="M1072,0c0.667,0,1.333,0,2,0c1.021,1.119,2.417,0.981,3.7,0.979
		c10.742-0.022,21.484-0.097,32.226-0.156c1.662,0.058,3.324,0.166,4.986,0.166c76.266,0.008,152.531,0.009,228.797-0.003
		c1.826,0,3.652-0.151,5.478-0.232c1.264,0.22,2.733-0.153,3.61,1.274c0.717,2.593-0.564,4.866-1.355,7.192
		c-25.992,76.438-52.006,152.869-78.017,229.301c-11.615,34.13-23.224,68.261-34.865,102.381c-0.494,1.449-1.016,2.817-0.305,4.328
		c1.486,1.426,3.375,1.232,5.182,1.211c5.324-0.06,10.648-0.22,15.973-0.274c34.125-0.346,68.25-0.777,102.375-0.977
		c32.808-0.192,65.617-0.121,98.426-0.225c2.673-0.009,5.248,0.268,7.789,1.035c0,1.667,0,3.333,0,5
		c-2.9,5.995-4.454,12.464-6.518,18.747c-15.199,46.279-30.332,92.579-45.478,138.876c-2.48,7.582-4.869,15.194-7.403,22.758
		c-2.319,6.92-4.483,8.426-11.636,8.457c-1,0.004-2,0.002-3,0c-72.826-0.151-145.653,0.157-218.48-0.238
		c-53.997-0.293-107.997-0.058-161.996-0.058c-17.333,0-34.666,0.018-51.999-0.032c-1.469-0.004-3.191,0.649-4.764-1.049
		c60.762-33.581,111.509-78.113,152.463-133.818c-1.051-0.805-1.805-0.353-2.586-0.11c-11.115,3.461-22.207,6.998-33.366,10.306
		c-2.81,0.833-4.566,2.464-5.999,4.841c-18.89,31.347-41.785,59.301-70.181,82.568c-15.524,12.72-32.437,23.281-50.415,32.153
		c-6.797,3.354-13.876,5.519-22.777,4.396c29.079-12.584,54.447-29.031,77.343-49.386c23.967-21.308,51.895-57.285,58.121-70.532
		c-5.684,1.363-11.137,2.784-16.642,3.967c-14.638,3.148-29.273,6.316-43.96,9.222c-6.159,1.219-10.752,4.114-13.617,9.765
		c-1.201,2.37-2.69,4.596-4.075,6.871c-15.502,25.454-33.34,49.008-55.975,68.644c-7.431,6.447-15.212,12.447-23.485,17.775
		c-6.083,3.917-12.628,5.576-20.766,3.341c45.981-22.397,75.271-60.008,100.714-102.799c-7.482,0.939-13.904,1.679-20.307,2.559
		c-30.252,4.155-60.629,5.843-91.153,4.757c-5.983-0.213-6.249,0.06-8.162,5.701c-9.555,28.176-19.151,56.337-28.719,84.508
		c-0.698,2.054-1.333,4.121-3.09,5.593c-1.803,0.686-3.534,0.722-5.645-0.701c10.58-31.017,21.184-62.101,31.695-92.914
		c-2.926-2.477-3.321-2.705-6.223-2.998c-3.976-0.402-7.957-0.752-11.941-1.069c-19.751-1.57-39.483-3.276-59.01-6.802
		c-2.247-0.406-4.631-0.956-7.218,1.359c-0.466,11.575,2.143,23.267,4.138,35.01c2.038,11.997,5.217,23.707,9.072,35.246
		c3.766,11.274,8.958,21.939,14.498,32.623c-5.546,1.113-6.859,0.781-8.967-3.12c-2.685-4.969-5.249-10.03-7.461-15.224
		c-10.938-25.693-16.174-52.702-18.178-80.423c-0.477-6.598-1.293-7.585-7.744-8.865c-12.735-2.527-25.45-5.16-38.203-7.592
		c-2.845-0.543-5.684-1.684-9.14-1.27c10.609,47.014,32.742,86.409,71.616,115.617c-5.123,3.463-8.819,1.81-12.564-1.42
		c-19.553-16.87-35.061-36.875-46.669-59.906c-7.967-15.806-13.773-32.424-18.028-49.581c-1.382-5.573-4.487-9.08-10.193-10.3
		c-8.478-1.813-16.582-4.891-24.828-7.491c-0.992-0.313-2.018-1.399-3.339-0.202c0.472,4.401,2.175,8.569,3.482,12.819
		c1.367,4.445,2.992,8.817,4.664,13.16c1.612,4.186,3.33,8.338,5.183,12.423c1.854,4.087,3.828,8.127,5.939,12.087
		c2.19,4.11,4.507,8.161,6.955,12.122c2.361,3.82,4.864,7.562,7.481,11.211c2.619,3.652,5.361,7.226,8.226,10.689
		c2.97,3.59,6.2,6.964,9.226,10.51c2.929,3.431,6.276,6.433,9.566,9.486c3.295,3.057,6.689,6.017,10.171,8.859
		c3.611,2.947,7.38,5.701,11.078,8.541c3.449,2.648,7.367,4.708,10.613,7.525c-1.195,1.8-2.396,1.614-3.556,1.579
		c-2.662-0.08-5.324-0.226-7.985-0.218c-55.66,0.166-111.32-0.252-166.98,0.234c-31.83,0.278-63.665-0.058-95.497,0.144
		c-6.218,0.039-9.808-2.431-12.396-7.913c-12.139-25.71-24.511-51.31-36.774-76.961c-26.897-56.26-53.775-112.529-80.695-168.777
		c-0.672-1.404-0.917-3.275-3.042-3.779c-0.509,1.417-1.039,2.792-1.499,4.19c-5.141,15.637-10.298,31.269-15.399,46.92
		c-14.578,44.733-29.141,89.471-43.693,134.212c-6.943,21.346-13.825,42.713-20.786,64.054c-2.08,6.377-4.091,7.967-10.381,7.937
		c-22.994-0.111-45.987,0.06-68.983-0.184c-30.662-0.325-61.334-0.326-91.996-0.001c-22.83,0.242-45.656,0.042-68.484,0.201
		c-2.17,0.015-4.351-0.048-5.896-1.881c-0.9-2.679,0.311-5.005,1.1-7.322c9.692-28.487,19.458-56.949,29.166-85.43
		c25.318-74.273,50.616-148.552,75.924-222.829c18.981-55.706,37.968-111.409,56.945-167.116
		c5.468-16.05,10.925-32.103,16.352-48.166c0.929-2.749,1.905-5.376,5.126-6.187c0.663,0.034,1.327,0.098,1.99,0.098
		C286.656,1,362.405,0.999,438.153,0.989c1.327,0,2.655-0.106,3.982-0.163c3.96,0.897,5.353,4.215,6.822,7.375
		c6.372,13.714,12.678,27.46,19.027,41.185c33.077,71.497,66.156,142.993,99.266,214.475c0.669,1.444,1.005,3.162,2.498,4.128
		c1.831-0.448,2.085-1.941,2.552-3.387c1.736-5.376,3.531-10.733,5.352-16.082c25.603-75.197,51.212-150.392,76.828-225.584
		c1.715-5.035,3.453-10.064,5.278-15.06c1.255-3.436,3.338-6.129,7.171-6.962c7.489,0.027,14.978,0.076,22.466,0.077
		C736.045,1,782.694,0.996,829.343,0.996c24.491,0,48.981-0.021,73.472,0.047c1.697,0.005,3.677-0.87,5.114,0.896
		c-4.588,2.331-9.197,4.623-13.762,6.998C852.379,30.675,813.68,56.88,778.724,88.543c-10.364,9.387-20.164,19.333-30.013,29.238
		l0.141,0.261l-0.114-0.41c1.729,1.153,3.178-0.093,4.658-0.62c9.85-3.507,19.447-7.669,29.67-10.191
		c6.626-1.634,12.62-5.078,18.391-8.777c10.172-6.521,18.661-14.996,27.38-23.234C861.292,44.148,896.802,17.917,938,0
		c1.667,0,3.333,0,5,0c0.239,1.48,2.157,0.386,2.6,1.793c-47.322,24.381-90.167,54.948-128.107,92.654
		c1.314,0.706,2.153,0.56,2.95,0.359c20.492-5.169,41.115-9.697,62.109-12.308c3.424-0.426,5.833-2.111,7.902-4.67
		c13.528-16.738,28.311-32.301,44.071-46.943c10.012-9.301,20.485-18.056,31.348-26.349c4.131-3.154,8.561-4.577,14.527-3.077
		c-31.789,22.954-59.804,48.928-84.874,79.06c1.372,0,1.864,0.05,2.343-0.007c19.197-2.291,38.479-3.138,57.794-3.318
		c5.824-0.054,11.65,0.306,17.476,0.318c3.944,0.008,4.774-0.673,6.055-4.552c5.994-18.158,11.892-36.348,17.952-54.484
		c1.936-5.793,3.478-11.748,6.025-17.073c2.316-1.162,4.129-0.954,5.919,0.525c0.532,3.047-1.377,5.447-2.231,8.037
		c-6.506,19.72-11.699,39.873-19.711,59.1c-2.867,6.88-0.59,10.054,6.827,10.41c0.987,0.048,1.986-0.203,2.98-0.212
		c2.663-0.025,5.359-0.26,7.984,0.061c11.727,1.43,23.544,2.133,35.181,4.302c1.699,0.317,3.333,0.409,5.032-2.077
		c-4.991-26.227-11.261-52.811-20.002-78.663c1.478-2.147,3.283-2.383,5.508-1.536c0.356,0.439,0.864,0.9,1.163,1.47
		c0.461,0.879,0.832,1.815,1.152,2.757c8.213,24.136,14.326,48.815,18.99,73.861c1.064,5.712,1.237,6.067,7.023,7.342
		c13.32,2.934,26.64,5.867,39.962,8.79c0.937,0.205,1.891,0.743,3.261-0.25c-6.651-16.905-14.711-33.202-24.025-48.917
		c-9.295-15.682-20.113-30.307-31.479-44.765c5.108-2.109,7.847,0.1,10.387,3.455c20.297,26.807,36.973,55.694,49.748,86.792
		c2.138,5.205,5.463,8.449,10.803,10.112c12.721,3.961,24.979,9.11,36.953,14.944c4.253,2.072,8.523,4.109,13.739,6.621
		c-21.155-50.914-54.896-90.253-98.578-121.753C1070.734,1.02,1071.367,0.51,1072,0z M630.978,394.016
		c-0.161-0.647,0.678-0.038,0.128-0.414c-0.375-0.256-0.53-0.168-0.527,0.212c0.005,0.666-0.054-0.281,0.428,0.179
		c-0.329,1.533,0.211,2.948,0.565,4.398c2.247,9.211,5.099,18.236,8.517,27.072c15.946,41.219,43.13,72.928,81.043,95.512
		c0.834,0.497,1.705,1.824,3.075,0.424c-5.809-6.4-11.636-12.764-17.402-19.183c-14.929-16.617-26.635-35.221-34.699-56.099
		c-4.731-12.249-8.94-24.675-12.835-37.205c-0.919-2.956-2.404-4.849-5.311-6.008c-6.477-2.581-12.849-5.424-19.273-8.136
		C633.512,394.273,632.408,393.306,630.978,394.016z M1086.817,8.134c0.041-0.224,0.083-0.448,0.124-0.672
		c-0.208,0.025-0.416,0.05-0.623,0.075c0.213,0.167,0.425,0.334,0.637,0.501c0.573,1.281,1.784,1.942,2.782,2.787
		c37.163,31.439,66.752,68.508,84.778,114.147c0.92,2.33,2.4,3.829,4.43,5.122c10.401,6.625,20.262,13.973,29.444,22.222
		c1.326,1.191,2.373,2.772,4.283,3.488c0.768-1.714,0.323-3.338,0.062-4.888c-1.654-9.846-3.999-19.513-7.408-28.92
		c-10.591-29.224-27.904-53.895-50.697-74.825c-18.084-16.607-38.591-29.341-61.666-37.825
		C1091.033,8.635,1089.124,7.189,1086.817,8.134z M1075.278,408.269c0.656-0.101,1.343-0.108,1.963-0.316
		c11.489-3.859,22.96-7.768,34.457-11.603c3.333-1.112,5.678-3.27,7.583-6.143c20.794-31.359,37.063-64.914,48.951-100.605
		c0.58-1.74,1.349-3.422,0.503-5.247c-1.572-1.43-3.362-1.111-5.21-0.979c-11.45,0.821-22.903,1.608-34.387,1.788
		c-6.41,0.101-7.622,1.103-9.287,7.373c-9.754,36.743-22.776,72.234-40.449,105.959c-1.607,3.066-3.743,5.896-4.554,9.356
		c-0.204,0.196-0.606,0.531-0.582,0.566C1074.671,408.993,1075.003,408.764,1075.278,408.269z M866.393,435.748
		c1.69,1.396,2.887,1.242,4.041,1.249c9.815,0.061,19.631,0.218,29.446,0.144c24.668-0.185,49.158-2.585,73.613-5.717
		c8.529-1.092,13.762-5.279,17.521-12.774c15.469-30.841,27.727-62.929,37.923-95.84c2.951-9.526,5.968-19.041,8.227-28.763
		c1.095-4.713,0.091-6.061-4.718-6.393c-2.641-0.182-5.314,0.159-7.974,0.176c-22.478,0.145-44.952-0.086-67.422-0.743
		c-14.306-0.418-28.612-0.883-42.92-1.22c-5.011-0.118-6.119,0.658-7.652,5.378c-4.978,15.331-9.864,30.691-15.258,45.884
		c-0.58,1.635-1.425,3.496,0.22,5.295c1.682,1.187,3.742,0.709,5.692,0.72c22.149,0.128,44.298,0.201,66.446,0.346
		c1.557,0.01,3.341-0.656,4.721,0.947c-0.182,0.624-0.307,1.275-0.562,1.871c-0.391,0.915-0.798,1.839-1.325,2.679
		c-18.262,29.105-44.032,44.068-78.909,41.821c-1.82-0.117-3.648-0.589-6.133,1.04C876.541,406.001,871.468,420.871,866.393,435.748
		z M879.262,90.185c-1.5-1.566-3.009-0.884-4.438-0.694c-20.65,2.752-40.854,7.561-60.918,13.068
		c-4.19,1.15-7.501,3.189-10.403,6.409c-13.286,14.742-25.642,30.204-36.789,46.628c-21.852,32.195-38.119,66.986-48.553,104.484
		c-1.942,6.979-1.078,8.373,6.154,8.677c18.301,0.769,36.547,2.2,54.773,3.982c4.569,0.447,7.162-1.287,8.963-5.559
		c0.323-0.765,0.597-1.553,0.844-2.346c19.52-62.553,49-119.928,89.256-171.701C878.783,92.322,879.21,91.452,879.262,90.185z
		 M973.728,85c-2.262-2.046-4.776-1.968-7.28-2.005c-23.327-0.347-46.564,1.243-69.791,3.135c-4.824,0.393-8.4,2.642-11.333,6.391
		c-25.11,32.085-46.428,66.481-63.827,103.35c-10.66,22.589-18.717,46.166-27.387,69.518c-0.346,0.931-0.634,1.901-0.8,2.879
		c-0.539,3.184,0.783,5.089,4.033,5.679c1.298,0.236,2.652,0.158,3.981,0.217c6.295,0.28,12.602,0.161,18.885,0.854
		c5.004,0.552,7.367-1,9.223-5.706c0.486-1.231,0.836-2.522,1.162-3.808c6.642-26.173,18.659-49.741,35.016-71.081
		c20.789-27.123,48.086-43.012,82.33-46.151c4.728-0.433,7-2.12,8.454-6.639c5.395-16.77,11.175-33.416,16.862-50.091
		C973.976,89.441,974.468,87.403,973.728,85z M826.23,282.118c-11.043-0.731-21.475-1.494-31.917-2.071
		c-3.208-0.177-4.179,0.711-5.192,4.213c-1.339,4.631-2.539,9.304-3.691,13.986c-4.968,20.198-9.032,40.56-11.627,61.22
		c-1.849,14.72-2.889,29.481-3.218,44.295c-0.137,6.151,0.08,12.316,0.296,18.468c0.141,4,1.288,5.207,5.223,6.092
		c1.296,0.292,2.62,0.478,3.941,0.636c6.609,0.791,13.221,1.553,19.832,2.33c17.855,2.099,35.745,3.821,53.691,4.925
		c4.688,0.288,5.978-0.495,7.468-4.817c4.228-12.259,8.127-24.629,12.655-36.787c1.538-4.129,0.695-5.603-3.409-7.331
		c-1.224-0.515-2.513-0.874-3.741-1.382c-8.572-3.545-16.267-8.448-22.48-15.374c-13.916-15.512-20.61-33.881-21.237-54.605
		C822.485,304.707,823.895,293.674,826.23,282.118z M782.87,280.755c-1.977-2.245-4.442-2.016-6.705-2.176
		c-18.417-1.305-36.844-2.47-55.209-4.438c-4.867-0.522-6.068,0.483-7.416,5.308c-0.223,0.799-0.388,1.614-0.561,2.426
		c-3.922,18.399-6.749,36.944-8.278,55.716c-1.899,23.324-1.252,46.521,2.171,69.654c1.019,6.887,2.093,8.066,8.832,9.489
		c13.007,2.745,26.019,5.467,39.035,8.167c8.25,1.711,9.377,0.859,9.234-7.651c-0.332-19.672,0.774-39.261,3.314-58.76
		c3.163-24.278,8.432-48.127,15.101-71.67C782.944,284.858,783.365,282.963,782.87,280.755z M1112.536,287.35
		c-2.318-1.377-5.046-0.812-7.64-0.771c-16.804,0.268-33.607,0.625-50.409,0.971c-1.661,0.034-3.319,0.19-4.979,0.285
		c-2.672,0.152-4.25,1.709-5.104,4.089c-0.448,1.247-0.752,2.549-1.077,3.837c-11.095,43.985-26.646,86.305-47.29,126.728
		c-0.722,1.414-1.803,2.742-1.724,4.92c2.042-0.251,3.987-0.391,5.893-0.74c19.959-3.646,39.662-8.398,59.255-13.65
		c3.859-1.035,6.386-3.105,8.236-6.563c4.703-8.793,9.521-17.521,13.849-26.512c13.381-27.796,23.407-56.794,31.137-86.616
		C1113.167,291.457,1113.872,289.47,1112.536,287.35z M912.519,277.239c1.992,1.813,4.375,1.719,6.683,1.743
		c11.478,0.119,22.948,0.55,34.421,0.781c26.778,0.539,53.556,1.036,80.323,2c4.606,0.166,6.949-1.478,7.904-5.929
		c3.347-15.6,6.752-31.194,8.937-47.015c0.269-1.946,0.622-3.963-0.303-5.858c-1.776-1.79-4.027-1.392-6.148-1.407
		c-13.31-0.088-26.614,0.317-39.932,0.079c-15.974-0.285-31.959,0.144-47.94,0.186c-6.322,0.016-12.645-0.244-18.968-0.259
		c-7.177-0.017-8.531,1.038-10.647,7.896c-4.309,13.967-8.584,27.945-13.748,41.631
		C912.411,272.921,911.459,274.793,912.519,277.239z M962.333,146.686c2.901,1.026,5.224,1.124,7.537,1.321
		c7.832,0.667,15.484,2.188,22.802,5.12c9.34,3.742,15.273,10.39,17.153,20.421c0.24,1.281,0.041,2.716,1.264,3.667
		c1.48,1.167,3.207,0.588,4.823,0.603c10.328,0.093,20.657,0.094,30.986,0.187c6.036,0.054,6.972-0.822,6.951-6.822
		c-0.059-16.827-1.308-33.586-3.059-50.305c-0.849-8.105-2.012-16.183-3.27-24.237c-0.827-5.292-1.834-6.073-6.969-6.787
		c-16.654-2.317-33.346-4.266-50.124-5.46c-6.333-0.451-7.545,0.173-9.507,6.114c-3.129,9.475-6.222,18.962-9.355,28.436
		C968.536,128.096,965.478,137.239,962.333,146.686z M794.376,109.503c-0.948-0.576-1.592-0.507-2.24-0.296
		c-17.392,5.658-34.465,12.137-51.066,19.832c-2.29,1.062-4.214,2.576-5.845,4.551c-21.194,25.677-38.896,53.516-51.928,84.21
		c-5.523,13.007-10.223,26.323-13.642,40.056c-1.038,4.172-0.019,5.74,4.009,6.107c9.607,0.874,19.225,1.557,28.787,2.945
		c5.58,0.81,7.88-0.979,9.498-6.45c0.99-3.346,1.752-6.761,2.788-10.092c14.497-46.617,37.717-88.551,68.086-126.635
		C786.622,118.965,790.505,114.265,794.376,109.503z M699.7,412.131c0.911-2.079,0.396-4.089,0.12-5.966
		c-1.989-13.535-2.927-27.138-2.97-40.811c-0.048-15.503,0.753-30.949,2.719-46.338c1.69-13.223,4.101-26.298,7.343-39.228
		c0.514-2.048,1.174-4.267-0.795-6.247c-2.158-1.119-4.683-1.202-7.148-1.35c-8.651-0.522-17.237-1.571-25.796-2.886
		c-5.266-0.809-6.221-0.195-7.39,5.344c-6.847,32.437-9.843,65.151-6.603,98.253c0.728,7.441,2.14,14.815,3.179,22.228
		c0.539,3.848,2.394,6.283,6.316,7.405c4.626,1.323,9.096,3.183,13.662,4.725C687.999,409.171,693.684,411.013,699.7,412.131z
		 M1122.643,177.252c0.677-1.359,0.234-2.842,0.022-4.281c-0.848-5.757-1.644-11.527-2.678-17.252
		c-2.752-15.237-6.866-30.125-11.662-44.838c-1.417-4.347-4.006-6.876-8.624-7.928c-12.8-2.916-25.522-6.176-38.269-9.321
		c-1.92-0.474-3.802-1.245-6.487,0.015c0.115,9.021,2.301,18.08,3.067,27.26c0.775,9.281,1.852,18.537,2.153,27.856
		c0.299,9.264,0.657,18.526,0.969,27.217c2.095,2.16,4.133,2.024,6.13,2.019c17.649-0.051,35.299-0.105,52.948-0.171
		C1121.019,177.825,1121.888,177.995,1122.643,177.252z M1047.733,281.161c6.218,0,12.015,0,17.812,0
		c14.142,0,28.284,0.01,42.426-0.004c7.212-0.008,7.906-0.59,9.291-7.492c0.425-2.116,0.899-4.223,1.297-6.345
		c2.295-12.25,4.561-24.512,5.402-36.965c0.552-8.175,0.105-8.463-8.035-8.524c-15.8-0.119-31.601,0.283-47.401-0.243
		c-3.106-0.103-6.333-0.63-9.275,0.858C1058.763,223.383,1048.111,277.475,1047.733,281.161z M655.896,397.325
		c0.286-2.958-0.112-4.892-0.398-6.849c-1.758-12.018-2.802-24.102-3.337-36.234c-0.647-14.664,0.29-29.274,2.006-43.808
		c1.302-11.027,1.898-22.222,5.738-32.828c0.394-1.087,0.643-2.247,0.798-3.396c0.446-3.299-1.037-5.879-4.128-7.173
		c-1.86-0.778-3.828-1.049-5.855-1.052c-3.493-0.005-6.954-0.234-10.41-0.936c-6.142-1.247-8.122,0.122-9.319,6.377
		c-1.876,9.801-3.044,19.703-4.254,29.608c-3.063,25.088-1.947,50.134,0.273,75.187c0.374,4.219,2.222,7.699,5.942,9.869
		C640.118,390.271,647.749,393.489,655.896,397.325z M723.136,138.6c-0.261-0.232-0.522-0.465-0.783-0.697
		c-1.038,0.487-2.087,0.952-3.113,1.464c-12.498,6.245-24.485,13.394-36.481,20.534c-7.482,4.453-13.281,10.493-17.417,18.117
		c-10,18.436-18.644,37.472-25.05,57.471c-1.67,5.213-3.625,10.38-4.319,15.846c-0.663,5.224,0.917,7.331,5.979,8.613
		c3.567,0.903,7.24,1.005,10.866,1.471c8.888,1.143,9.82,0.534,12.134-8.148c5.54-20.785,13.392-40.664,23.249-59.776
		c8.407-16.3,18.613-31.459,29.123-46.434C719.29,144.262,721.2,141.422,723.136,138.6z M876.824,12.163
		c-3.51,0.105-6.279,0.715-8.686,2.238c-2.143,1.355-4.463,2.216-6.77,3.14c-16.22,6.5-32.108,13.72-47.552,21.902
		c-50.01,26.497-92.906,61.429-126.794,107.027c-0.722,0.971-1.359,2.005-2.247,3.322c2.002-0.047,3.014-0.95,4.129-1.549
		c12.75-6.841,25.504-13.683,38.714-19.601c4.996-2.238,9.042-5.414,12.595-9.529c8.822-10.22,18.337-19.786,28.189-29.013
		c27.455-25.714,57.583-47.865,89.81-67.2C864.164,19.328,870.238,15.955,876.824,12.163z M1180.699,177.542
		c1.619-1.683,1.137-3.331,0.858-4.97c-1.731-10.16-4.06-20.183-6.566-30.179c-1.396-5.568-4.393-9.376-9.459-12.088
		c-15.555-8.327-31.529-15.669-48.218-21.419c-1.014-0.349-2.003-1.274-3.371-0.377c-0.259,1.476,0.568,2.79,1.025,4.149
		c4.07,12.128,7.635,24.396,10.47,36.876c1.806,7.948,3.132,15.979,4.436,24.019c0.573,3.532,1.289,4.105,4.849,4.403
		c0.662,0.055,1.331,0.04,1.997,0.043c13.484,0.054,26.968,0.108,40.452,0.156C1178.335,178.159,1179.504,178.15,1180.699,177.542z
		 M1180.898,222.32c-0.789-0.146-1.598-0.423-2.407-0.426c-13.829-0.036-27.658-0.092-41.486-0.014
		c-3.916,0.022-4.755,1.028-5.093,5.188c-0.755,9.296-1.801,18.553-3.595,27.713c-1.619,8.265-3.26,16.527-4.879,24.728
		c1.078,0.669,2.102,0.454,3.086,0.486c13.682,0.435,27.266-1.239,40.898-1.885c3.395-0.161,4.912-2.141,5.762-5.198
		c4.106-14.768,7.5-29.671,9.03-44.954C1182.399,226.118,1182.682,224.302,1180.898,222.32z M1200.008,280.675
		c-1.31-0.109-1.963-0.231-2.611-0.207c-5.14,0.188-10.189,1.356-15.375,1.236c-2.877-0.067-5.037,1.661-6.291,4.248
		c-0.793,1.635-1.407,3.369-1.964,5.102c-3.157,9.821-6.615,19.527-10.502,29.088c-9.045,22.245-20.089,43.468-32.413,64.051
		c-1.028,1.718-2.372,3.341-2.963,5.908c5.678-1.885,10.721-3.481,15.708-5.236c5.338-1.879,9.392-5.194,12.605-10.036
		c11.632-17.529,21.458-36.002,29.733-55.311C1191.294,307.011,1195.939,294.235,1200.008,280.675z M1015.244,508.788
		c3.125,0.169,4.715-0.845,6.186-1.813c7.085-4.66,14.217-9.264,21.108-14.2c26.613-19.064,50.882-40.828,73.367-64.575
		c8.924-9.425,17.518-19.174,24.548-30.166c1.306-2.042,2.643-4.07,3.394-6.341c-0.402-0.25-0.569-0.431-0.66-0.399
		c-5.318,1.904-10.604,3.902-15.951,5.723c-4.436,1.51-7.689,4.233-10.383,8.103c-21.321,30.622-46.225,58.025-74.508,82.362
		C1033.898,494.749,1025.412,501.963,1015.244,508.788z M1213.076,223.746c-1.239-1.568-2.384-1.854-3.555-1.842
		c-5.147,0.055-10.288,0.153-15.437-0.201c-2.334-0.161-4.142,1.059-5.053,3.334c-0.621,1.552-0.967,3.147-1.054,4.839
		c-0.324,6.318-1.309,12.555-2.625,18.733c-1.556,7.303-3.323,14.561-4.825,21.874c-0.833,4.057,0.591,5.748,4.661,5.448
		c3.966-0.292,7.888-1.155,11.851-1.546c4.059-0.4,6.042-2.517,7.051-6.448c2.435-9.485,4.834-18.978,6.638-28.597
		C1211.703,234.153,1212.938,228.968,1213.076,223.746z M1180.056,139.589c2.643,11.094,4.9,21.122,7.457,31.072
		c1.385,5.39,3.828,7.1,9.271,7.328c4.316,0.181,8.648-0.267,12.958,0.44c1.155,0.189,2.286-0.316,3.341-1.526
		c1.571-3.663,1.805-7.527-1.305-10.873C1202.574,156.124,1192.313,147.466,1180.056,139.589z"/>
	<path style="fill:#1D61AB;" d="M0,729c2.189-3.272,2.173-7.182,2.96-10.819c6.755-31.204,13.374-62.438,20.019-93.666
		c0.314-1.478,0.713-2.897,1.58-4.059c1.791-1.351,3.787-1.341,5.798-1.314c7.658,0.104,15.317,0.258,22.975,0.278
		c16.327,0.042,32.653-0.002,48.98,0.034c1.794,0.004,3.656-0.417,5.534,0.536c0.109,3.506-0.838,6.863-1.977,10.137
		c-0.833,2.394-2.752,3.71-5.316,3.903c-2.819,0.213-5.643,0.5-8.466,0.512c-12.994,0.054-25.989,0.049-38.984,0.006
		c-3.158-0.01-6.316-0.363-9.473-0.342c-5.695,0.038-7.472,1.45-8.33,7.095c-1.051,6.916-2.419,13.746-4.302,20.482
		c-0.493,1.763-0.869,3.601,0.515,5.319c1.805,1.476,4.05,1.033,6.17,1.025c16.986-0.068,33.971-0.185,50.957-0.285
		c0.833-0.005,1.673-0.014,2.844,0.87c1.255,3.35,0.602,7.03-0.802,10.629c-0.64,1.639-2.007,2.659-3.794,2.904
		c-1.313,0.18-2.655,0.377-3.967,0.297c-13.314-0.811-26.626,0.09-39.937,0.008c-2.992-0.018-5.985-0.391-8.973-0.336
		c-6.08,0.112-8.091,1.896-8.971,7.765c-1.111,7.409-2.63,14.717-4.693,21.928c-0.699,2.444-1.992,5.116,0.361,7.68
		c2.167,1.046,4.593,1.249,7.129,1.179c9.316-0.259,18.638-0.674,27.95-0.538c9.157,0.133,18.306,0.332,27.459-0.013
		c1.207-0.045,2.322,0.058,3.495,0.999c0.846,2.917,0.359,6.074,0.004,9.16c-0.339,2.951-2.044,4.322-5.006,4.601
		c-1.156,0.109-2.331,0.037-3.497,0.037c-23.824,0.001-47.647,0.001-71.471,0.001c-2.308,0-4.649,0.225-6.772-1.013
		C0,732.333,0,730.667,0,729z"/>
	<path style="fill:#1A60AB;" d="M339,770c-1.048-1.567-2.916-1.321-4.387-1.914c-11.022-4.447-13.011-11.722-13.581-20.08
		c-0.059-0.857,0.247-1.633,1.205-2.575c2.547-0.383,5.458-0.911,8.391-1.235c2.764-0.305,4.795,0.992,6.205,3.338
		c1.834,3.052,4.253,5.534,7.324,7.348c8.313,4.909,18.98,3.954,26.537-2.559c7.654-6.598,10.123-15.596,11.75-25.423
		c-2.496,0.3-3.618,1.87-5.067,2.812c-10.124,6.579-21.002,8.049-32.462,4.536c-9.531-2.921-15.202-9.446-16.032-19.471
		c-1.569-18.953,2.089-36.453,15.461-50.886c4.786-5.166,10.321-9.402,16.873-12.183c11.264-4.78,21.739-3.324,31.478,3.961
		c0.798,0.597,1.525,1.287,2.297,1.919c0.618,0.506,1.045,1.323,2.094,1.264c1.247-0.584,0.952-1.925,1.268-2.965
		c1.303-4.288,7.44-6.845,11.325-4.572c2.135,1.249,2.555,3.451,2.201,5.695c-0.517,3.279-1.19,6.536-1.887,9.783
		c-4.638,21.611-9.228,43.233-13.987,64.817c-2.137,9.692-5.837,18.685-12.805,26.079c-5.429,5.761-12.069,9.272-19.651,11.197
		c-0.904,0.23-2.062-0.081-2.55,1.114C353.667,770,346.333,770,339,770z M343.854,704.564c0,1.496-0.056,2.995,0.009,4.489
		c0.341,7.862,4.968,13.129,12.724,14.205c8.838,1.227,16.563-1.385,22.577-7.92c9.64-10.475,13.333-23.281,12.619-37.202
		c-0.515-10.048-7.147-15.504-17.131-15.605c-8.452-0.085-15.115,3.297-20.171,9.954
		C347.286,681.959,344.293,692.844,343.854,704.564z"/>
	<path style="fill:#8A9BCD;" d="M910,0c-0.326,1.035-0.834,1.876-2.071,1.939c-1.437-1.767-3.417-0.892-5.114-0.896
		c-24.49-0.068-48.981-0.047-73.472-0.047c-46.649,0-93.298,0.004-139.947-0.004c-7.489-0.001-14.978-0.05-22.466-0.077
		c0.16-0.295,0.184-0.6,0.07-0.916C748,0,829,0,910,0z"/>
	<path style="fill:#8A9BCD;" d="M1349,0c0.167,0.225,0.229,0.477,0.186,0.754c-1.826,0.081-3.652,0.232-5.478,0.232
		c-76.266,0.012-152.531,0.011-228.797,0.003c-1.662,0-3.324-0.108-4.986-0.166c0.026-0.274,0.051-0.548,0.074-0.823
		C1189.667,0,1269.333,0,1349,0z"/>
	<path style="fill:#8A9BCD;" d="M442,0c0.055,0.274,0.1,0.549,0.135,0.826c-1.327,0.057-2.655,0.163-3.982,0.163
		C362.405,0.999,286.656,1,210.907,0.998c-0.663,0-1.327-0.064-1.99-0.098C209.042,0.609,209.07,0.309,209,0
		C286.667,0,364.333,0,442,0z"/>
	<path style="fill:#BBC3E2;" d="M1110,0c-0.024,0.274-0.048,0.549-0.074,0.823c-10.742,0.059-21.484,0.134-32.226,0.156
		c-1.282,0.003-2.679,0.14-3.7-0.979C1086,0,1098,0,1110,0z"/>
	<path style="fill:#1B61AB;" d="M1268.947,733.609c0-0.987-0.191-1.854,0.028-2.601c4.358-14.852,6.659-30.158,9.953-45.243
		c4.219-19.317,8.078-38.712,12.128-58.066c1.459-6.971,3.854-8.812,11.088-8.584c11.474,0.361,22.943,0.487,34.423,0.08
		c5.145-0.182,10.308,0.113,15.431,0.763c14.157,1.797,22.185,11.515,21.212,25.76c-0.999,14.619-6.844,26.595-19.431,34.708
		c-7.076,4.56-15.042,6.001-23.32,6.137c-8.984,0.148-17.978-0.37-26.953,0.279c-6.636,0.479-8.887,2.225-10.334,8.662
		c-2.222,9.89-4.155,19.846-6.204,29.775c-0.403,1.952-0.647,3.948-1.201,5.856c-1.025,3.532-2.985,4.848-6.64,4.7
		c-0.661-0.027-1.357-0.04-1.971-0.25C1274.633,734.724,1271.814,735.216,1268.947,733.609z M1324.802,632.849
		c-2.994,0-5.989-0.005-8.983,0.001c-8.441,0.017-10.965,2.118-12.404,10.344c-0.143,0.818-0.251,1.65-0.285,2.479
		c-0.165,4.013-0.896,7.924-1.884,11.811c-0.573,2.251-1.002,4.56-1.245,6.87c-0.604,5.731,0.602,7.343,6.252,7.809
		c4.305,0.354,8.669,0.013,12.966,0.417c5.693,0.535,11.324,0.253,16.913-0.658c13.379-2.181,21.945-13.857,20.104-27.042
		c-0.668-4.779-3.288-7.923-7.677-9.575c-1.848-0.695-3.857-1.001-5.816-1.356C1336.803,632.87,1330.793,633.225,1324.802,632.849z"
		/>
	<path style="fill:#1A61AB;" d="M543.981,734.566c2.539-12.069,4.991-23.764,7.461-35.456c5.153-24.392,10.324-48.781,15.468-73.175
		c1.157-5.488,2.507-6.899,8.023-6.739c15.8,0.459,31.606-0.556,47.4,0.269c2.484,0.13,4.997,0.344,7.423,0.865
		c14.648,3.147,20.094,14.13,18.783,26.811c-0.907,8.768-3.608,16.899-9.062,23.939c-8.249,10.647-19.489,15.142-32.619,15.456
		c-9.972,0.238-19.946,0.646-29.922-0.138c-4.748-0.373-6.947,1.438-7.923,6.339c-2.239,11.245-5.146,22.355-6.827,33.713
		c-0.146,0.984-0.294,1.982-0.592,2.926c-1.42,4.499-3.865,6.23-8.518,5.963C550.269,735.178,547.474,734.868,543.981,734.566z
		 M603.712,633.188c-5.274-0.042-10.087-0.023-14.901,0.601c-4.301,0.557-7.002,2.809-8.361,6.805
		c-0.534,1.571-1.052,3.169-1.353,4.796c-1.089,5.898-2.442,11.721-4.392,17.403c-0.427,1.246-0.719,2.58-0.811,3.892
		c-0.298,4.245,1.439,6.296,5.673,6.433c2.819,0.091,5.651-0.237,8.477-0.368c1.992-0.092,4.017-0.436,5.971-0.202
		c5.684,0.68,11.315,0.24,16.918-0.558c12.869-1.832,21.623-12.561,21.063-25.584c-0.196-4.549-2.25-7.937-6.219-10.111
		c-2.35-1.287-4.903-1.959-7.564-2.392C613.249,633.094,608.263,633.115,603.712,633.188z"/>
	<path style="fill:#1A60AB;" d="M696.418,725.955c-2.414,1.505-4.776,3.01-7.171,4.464c-6.188,3.758-12.85,6.207-20.03,7.244
		c-4.35,0.629-8.646,0.414-12.86-0.804c-9.782-2.827-15.472-11.775-13.984-21.89c2.174-14.783,11.976-24.706,28.037-27.805
		c7.34-1.416,14.815-2.127,22.229-3.159c1.811-0.252,3.634-0.444,5.429-0.78c7.287-1.365,11.321-8.433,8.876-15.456
		c-0.766-2.2-2.33-3.759-4.384-4.526c-9.487-3.544-22.974-4.949-30.84,8.044c-3.293,5.439-7.302,6.747-12.937,5.246
		c-0.946-0.252-1.906-0.449-2.695-0.633c-1.054-1.53-0.297-2.797,0.104-4.005c3.174-9.563,9.252-16.288,18.853-19.887
		c11.854-4.445,23.729-4.774,35.672-0.752c9.738,3.279,13.684,10.017,11.644,20.165c-3.113,15.488-6.493,30.922-9.785,46.373
		c-0.348,1.631-0.849,3.226-0.316,4.84c1.577,3.003,4.855,1.6,7.29,2.769c0.395,2.42-0.393,4.651-0.836,6.855
		c-0.371,1.847-1.723,3.072-3.536,3.91c-6.281,2.901-12.902,0.952-16.383-5.055C697.888,729.546,697.265,727.814,696.418,725.955z
		 M701.751,693.98c-3.719,0.767-6.909,1.528-10.135,2.069c-6.219,1.042-12.491,1.79-18.682,2.974
		c-6.652,1.272-11.498,5.058-13.937,11.506c-2.535,6.702,0.985,13.157,8.086,14.17c11.166,1.593,25.667-2.557,31.879-16.991
		C700.76,703.533,701.371,699.131,701.751,693.98z"/>
	<path style="fill:#1A61AB;" d="M264.63,709.003c-2.467,8.237-7.335,14.229-13.566,19.145c-9.848,7.77-21.114,11.4-33.606,9.786
		c-15.48-2.001-25.489-11.087-26.148-28.315c-0.895-23.386,8.667-42.069,28.455-54.874c9.501-6.148,20.24-7.63,31.211-4.726
		c19.049,5.042,27.824,26.794,19.288,44.036c-1.184,2.391-2.738,3.552-5.411,3.521c-16.323-0.189-32.653,0.372-48.971-0.315
		c-6.592-0.277-8.758,1.677-8.719,8.328c0.015,2.695,0.493,5.323,1.231,7.868c2.153,7.432,7.735,11.528,15.491,11.705
		c7.521,0.171,14.049-2.289,19.633-7.261c1.612-1.435,3.255-2.919,4.517-4.648C252.25,707.473,257.774,707.037,264.63,709.003z
		 M212.109,685.984c13.51,0,26.977-0.006,40.444,0.005c2.655,0.002,3.851-1.53,4.363-3.917c1.9-8.85-4.236-18.17-13.166-19.965
		C229.471,659.239,213.922,670.794,212.109,685.984z"/>
	<path style="fill:#1A61AB;" d="M993.718,696.646c-1.557,1.034-3.078,0.91-4.569,0.91c-14.996,0.005-29.993-0.008-44.989,0.012
		c-2.477,0.003-4.92-0.75-7.442,0.004c-3.178,0.95-4.518,2.213-4.783,5.52c-0.226,2.82-0.272,5.672,0.382,8.458
		c2.395,10.21,11.117,15.402,22.267,13.174c6.201-1.239,11.588-4.061,15.899-8.774c0.786-0.86,1.548-1.742,2.31-2.624
		c5.2-6.021,8.31-6.807,16.532-4.022c-0.166,1.959-1.155,3.632-2.099,5.333c-9.012,16.23-26.755,25.409-45.177,23.357
		c-14.642-1.631-24.437-10.844-25.542-26.105c-1.618-22.365,5.858-41.449,24.389-54.889c11.663-8.459,24.927-10.803,38.878-5.989
		c9.893,3.414,15.566,10.59,16.943,20.906c1.05,7.861-0.544,15.587-2.071,23.268C994.524,695.786,993.949,696.294,993.718,696.646z
		 M937.567,685.434c0.562,0.211,0.869,0.425,1.177,0.427c12.8,0.055,25.601,0.141,38.401,0.092c3.208-0.012,4.185-1.181,4.707-4.604
		c1.509-9.91-5.42-18.499-15.395-19.477c-12.088-1.186-24.738,7.741-28.92,18.173C936.861,681.731,936.135,683.465,937.567,685.434z
		"/>
	<path style="fill:#1A60AB;" d="M404.76,766.631c1.805-3.12,0.594-7.005,2.065-10.089c2.092-1.5,4.158-1.148,6.106-1.074
		c11.92,0.454,22.571-13.823,20.775-25.001c-3.613-22.494-6.601-45.089-9.881-67.637c-0.359-2.465-0.91-4.903-1.427-7.342
		c-0.248-1.171-0.406-2.295,0.748-3.96c3.669-0.779,7.916-1.002,12.154-0.753c2.569,0.151,3.57,2.228,3.882,4.525
		c0.56,4.119,1.043,8.249,1.508,12.38c1.469,13.061,2.895,26.127,4.387,39.185c0.316,2.764,0.487,5.592,1.786,8.287
		c1.818-0.646,2.126-2.213,2.78-3.401c9.053-16.456,18.567-32.664,26.65-49.642c0.712-1.495,1.583-2.93,2.515-4.302
		c4.806-7.072,10.613-8.851,18.984-5.875c0.428,0.675,0.106,1.267-0.222,1.845c-17.829,31.367-35.128,63.044-54.539,93.487
		c-2.326,3.647-4.742,7.242-7.247,10.768c-7.823,11.013-17.761,11.99-28.145,10.781C406.646,768.699,405.735,768.225,404.76,766.631
		z"/>
	<path style="fill:#1A60AB;" d="M1054.651,708.84c3.839-1.657,8.112-0.651,11.908-0.878c1.816,1.507,2.158,3.064,2.306,4.785
		c0.56,6.497,4.259,11.074,10.37,12.164c6.835,1.219,13.627,0.567,20.123-1.985c4.62-1.814,7.572-5.288,9.051-10.014
		c1.358-4.341,0.068-7.583-4.086-9.414c-2.418-1.066-5.031-1.709-7.582-2.455c-5.585-1.633-11.19-3.199-16.78-4.813
		c-3.876-1.119-7.477-2.819-10.578-5.427c-5.5-4.624-7.573-10.44-5.524-17.414c3.079-10.476,10.199-17.326,20.047-21.482
		c9.646-4.071,19.581-5.186,29.74-2.095c9.886,3.009,14.921,9.277,15.878,19.516c0.281,3.003-0.495,4.366-3.308,5.319
		c-1.569,0.532-3.211,0.948-4.853,1.143c-3.696,0.437-6.619-1.085-7.181-4.648c-1.205-7.636-6.644-9.361-12.914-10.029
		c-4.683-0.498-9.305,0.159-13.726,1.897c-3.602,1.417-6.158,3.883-7.432,7.581c-1.684,4.891-0.252,8.393,4.497,10.625
		c3.78,1.777,7.883,2.602,11.879,3.737c4.797,1.362,9.654,2.558,14.363,4.18c4.112,1.417,7.869,3.578,10.591,7.181
		c4.017,5.316,4.159,11.069,1.87,17.027c-4.615,12.009-13.091,19.902-25.568,23.18c-8.485,2.229-17.138,2.412-25.737,0.674
		c-12.034-2.432-17.65-9.191-18.12-21.507C1053.805,713.558,1053.442,711.363,1054.651,708.84z"/>
	<path style="fill:#1A60AB;" d="M882.921,733.784c1.183-5.619,2.341-11.1,3.491-16.582c2.732-13.017,5.506-26.026,8.172-39.057
		c1.62-7.919-1.212-13.544-7.791-15.709c-2.919-0.961-5.999-0.954-8.893-0.208c-11.798,3.042-20.318,9.613-23.106,22.144
		c-3.142,14.119-6.53,28.186-9.421,42.355c-1.127,5.525-4.592,7.765-9.412,8.926c-0.939,0.226-2.006,0.206-2.963,0.026
		c-3.095-0.582-4.111-2.193-3.437-5.34c3.272-15.277,6.601-30.541,9.83-45.827c1.682-7.965,3.218-15.96,4.787-23.949
		c1.807-9.203,5.326-11.346,14.874-8.997c1.209,1.01,0.942,2.404,0.934,3.711c-0.007,1.139-0.36,2.306,0.501,3.541
		c2.208-0.71,3.864-2.412,5.79-3.63c9.467-5.986,19.655-8.041,30.57-5.325c10.625,2.643,15.112,9.463,13.835,20.305
		c-1.539,13.067-4.109,25.945-7.062,38.752c-1.643,7.127-3.333,14.245-5.105,21.342c-1.318,5.279-2.865,6.283-8.209,5.118
		C888.045,734.888,885.606,735.358,882.921,733.784z"/>
	<path style="fill:#1A60AB;" d="M131.54,651.949c1.617,2.543-1.815,4.718,0.428,7.144c1.745-0.54,2.987-1.933,4.439-2.935
		c9.853-6.801,20.626-9.059,32.29-6.293c10.13,2.402,14.691,9.093,13.626,19.431c-1.282,12.444-4.257,24.579-6.703,36.81
		c-1.501,7.503-3.116,14.982-4.656,22.477c-1.144,5.571-1.956,6.321-7.522,6.585c-2.456,0.116-4.969,0.633-7.302-0.727
		c-1.535-2.987-0.396-5.954,0.179-8.813c2.296-11.414,4.8-22.785,7.183-34.182c0.885-4.23,1.692-8.477,2.446-12.733
		c0.289-1.632,0.477-3.31,0.461-4.964c-0.072-7.612-4.172-11.812-11.811-11.7c-11.242,0.164-21.46,5.617-26.493,17.126
		c-2.619,5.989-3.607,12.441-5.029,18.755c-2.119,9.41-4.022,18.869-6.044,28.301c-0.348,1.624-0.709,3.265-1.28,4.818
		c-0.948,2.582-2.741,4.092-5.675,3.966c-2.966-0.127-5.987,0.287-9.004-0.972c-0.138-4.238,1.296-8.203,2.119-12.216
		c4.446-21.659,9.095-43.276,13.706-64.901c1.376-6.453,2.74-7.347,9.322-6.151C127.994,651.099,129.935,650.727,131.54,651.949z"/>
	<path style="fill:#1B61AB;" d="M1185.169,734.503c-1.575-1.393-1.133-3.044-0.781-4.688c6.034-28.138,12.069-56.276,18.094-84.415
		c1.499-6.998,2.925-14.011,4.462-21c1.031-4.692,1.978-5.422,6.91-5.045c3.292,0.252,6.637-0.386,10.167,0.524
		c-0.521,5.895-2.141,11.485-3.335,17.133c-5.365,25.388-10.881,50.745-16.312,76.119c-0.414,1.933-0.911,3.915-0.022,6.028
		c1.915,1.528,4.302,1.263,6.588,1.263c15.165-0.005,30.33-0.041,45.495-0.116c1.201-0.006,2.318-0.042,3.45,0.96
		c0.457,2.97,0.11,6.12-0.33,9.206c-0.447,3.133-1.845,4.171-5.059,4.497c-0.826,0.084-1.665,0.041-2.498,0.041
		c-20.833,0.002-41.666,0.008-62.499-0.012C1188.028,734.995,1186.49,735.319,1185.169,734.503z"/>
	<path style="fill:#1A61AB;" d="M801.416,663.47c-2.711-1.417-5.588,0.388-8.576-1.504c-0.205-3.559-0.347-7.357,1.998-10.501
		c1.73-0.637,3.064-0.414,4.391-0.406c4.645,0.031,6.481-1.188,7.593-5.53c0.948-3.701,1.555-7.49,2.316-11.239
		c0.264-1.299,0.498-2.607,0.818-3.892c0.346-1.39,1.25-2.562,2.591-2.8c3.24-0.576,6.574-0.592,9.786,0.018
		c2.227,0.423,2.977,2.313,2.368,5.26c-0.807,3.903-1.779,7.776-2.795,11.632c-1.276,4.843-0.108,6.438,4.873,6.488
		c1.811,0.018,3.648-0.532,5.676,0.286c1.239,2.772,0.493,5.69-0.131,8.547c-0.508,2.325-2.24,2.998-4.523,2.983
		c-8.801-0.056-10.253,1.167-11.796,9.749c-2.414,13.429-5.496,26.714-8.581,39.998c-2.095,9.018-1.028,10.366,8.39,10.509
		c0.465,0.007,0.926,0.265,1.602,0.471c1.02,3.111,0.288,6.161-0.607,9.154c-0.4,1.337-1.563,2.137-2.923,2.495
		c-4.518,1.19-9,2.284-13.756,1.016c-7.12-1.898-10.598-6.331-9.468-13.541c1.313-8.374,3.094-16.681,4.848-24.98
		c1.995-9.437,4.229-18.823,6.252-28.255C802.162,667.556,802.963,665.539,801.416,663.47z"/>
	<path style="fill:#1A60AB;" d="M1033.336,660.326c3.706-1.946,6.459-5.16,9.957-7.413c5.26-3.388,10.83-4.775,17.226-3.659
		c0.847,3.378,0.487,6.673,0.037,9.899c-0.402,2.883-2.14,4.716-5.214,5.249c-2.943,0.511-5.845,1.276-8.747,1.999
		c-9.771,2.436-15.833,8.633-18.539,18.272c-2.068,7.366-3.478,14.876-5.057,22.35c-1.443,6.83-2.706,13.699-4.223,20.512
		c-1.599,7.181-9.056,10.202-15.631,6.263c-0.452-4.277,1.176-8.384,2.025-12.545c4.318-21.16,8.819-42.283,13.316-63.406
		c1.606-7.542,2.563-8.144,10.113-6.96c1.74,0.273,3.759-0.198,5.066,1.783c0.535,2.402-1.736,4.613-0.849,7.153
		c-0.172,0.214-0.532,0.547-0.485,0.622C1032.703,661.031,1033.041,660.74,1033.336,660.326z"/>
	<path style="fill:#1A61AB;" d="M729.377,733.972c-0.512-1.322-0.411-2.31-0.196-3.293c5.273-24.033,10.55-48.064,15.176-72.235
		c1.585-8.283,7.315-10.383,15.231-5.822c1.618,2.78-1.964,5.28-0.292,8.518c7.805-6.848,15.429-14.01,26.997-12.098
		c1.147,3.253,0.968,6.256,0.793,9.201c-0.219,3.676-1.716,5.268-5.398,6.159c-1.121,0.271-2.295,0.384-3.451,0.435
		c-11.456,0.503-18.849,6.618-23.06,16.905c-2.149,5.249-2.951,10.896-4.138,16.414c-2.096,9.745-4.05,19.52-6.106,29.273
		C743.461,734.414,735.842,737.657,729.377,733.972z"/>
	<path style="fill:#1A60AB;" d="M308.476,651.743c0.369,3.112-1.127,5.679,0.095,8.861c7.869-6.411,15.271-13.661,27.085-11.259
		c0.556,3.581,0.645,7.323-0.181,11.041c-0.526,2.367-2.371,3.507-4.644,3.996c-2.763,0.594-5.534,1.153-8.291,1.774
		c-10.204,2.299-16.825,8.439-19.366,18.615c-1.892,7.577-3.46,15.235-5.135,22.865c-1.39,6.332-2.689,12.683-4.095,19.011
		c-1.64,7.384-3.325,8.641-11.054,8.247c-1.462-0.074-3.01,0.307-4.449-0.561c-1.011-1.385-0.309-2.847-0.017-4.245
		c4.861-23.272,9.761-46.536,14.628-69.806c1.971-9.424,3.133-10.285,12.83-9.144C306.686,651.232,307.469,651.503,308.476,651.743z
		"/>
</g>
</svg>
