<?xml version="1.0" encoding="iso-8859-1"?>
<!-- Generator: Adobe Illustrator 27.0.0, SVG Export Plug-In . SVG Version: 6.00 Build 0)  -->
<svg version="1.1" id="Layer_1" xmlns="http://www.w3.org/2000/svg" xmlns:xlink="http://www.w3.org/1999/xlink" x="0px" y="0px"
	 viewBox="0 0 1588.03 277" style="enable-background:new 0 0 1588.03 277;" xml:space="preserve">
<g>
	<path style="fill:#E1A996;" d="M0,11c0.295-0.132,0.596-0.15,0.905-0.055c0.031,1.999,0.088,3.997,0.088,5.996
		c0.004,80.988,0.003,161.976,0.009,242.964c0,1.998,0.075,3.995,0.115,5.993C0.744,265.932,0.372,265.966,0,266C0,181,0,96,0,11z"
		/>
	<path style="fill:#DEA08B;" d="M941,277c0.045-0.295,0.017-0.583-0.083-0.864c8.049-0.013,16.098-0.026,24.146-0.039
		c-0.155,0.292-0.176,0.593-0.063,0.903C957,277,949,277,941,277z"/>
	<path style="fill:#EED4C8;" d="M380,0c-0.011,0.284-0.001,0.566,0.031,0.848c-3.354-0.001-6.709-0.001-10.063-0.002
		C370,0.565,370.01,0.283,370,0C373.333,0,376.667,0,380,0z"/>
	<path style="fill:#BB2426;" d="M1166.164,265.883c-23.193,0-45.657,0-68.481,0c0-84.952,0-169.828,0-254.775
		c0.994-1.121,2.409-0.721,3.692-0.721c40.656-0.017,81.313-0.089,121.969,0.024c17.261,0.048,33.638,3.614,48.377,13.202
		c18.912,12.302,28.963,29.656,30.425,52.143c0.498,7.649,0.974,15.231,0.14,22.921c-2.409,22.205-13.92,37.948-33.396,48.239
		c-5.573,2.945-11.336,5.487-17.902,7.869c9.842,18.872,20.242,37.143,30.317,55.585c10.032,18.363,20.244,36.628,30.589,55.318
		c-22.679,0-45.024,0-67.789,0c-22.561-40.894-45.261-82.041-68.131-123.496c3.807-1.644,7.817-1.541,11.654-2.103
		c6.59-0.965,13.199-1.94,19.477-4.132c12.96-4.525,23.312-12.659,28.456-25.477c4.981-12.412,4.841-25.337-0.768-37.874
		c-2.099-4.692-3.755-9.554-7.052-13.668c-6.038-7.535-14.296-10.658-23.402-11.892c-12.586-1.706-25.204-0.587-38.174,0.065
		C1166.164,119.942,1166.164,192.68,1166.164,265.883z"/>
	<path style="fill:#BB2326;" d="M369.968,0.847c3.354,0.001,6.709,0.001,10.063,0.002c14.196,0.602,28.115,2.733,41.485,7.727
		c32.281,12.057,55.088,34.01,68.436,65.765c6.632,15.777,9.949,32.294,11.313,49.323c1.664,20.785,0.047,41.247-5.352,61.352
		c-5.393,20.083-14.929,38.05-29.181,53.268c-10.934,11.675-23.959,20.45-38.729,26.735c-19.526,8.309-39.874,11.054-60.931,10.151
		c-20.776-0.891-40.402-5.843-58.612-15.934c-23.36-12.945-39.334-32.422-49.415-56.906c-8.489-20.618-11.412-42.246-11.367-64.405
		c0.04-19.942,2.562-39.465,9.29-58.325c10.144-28.437,27.974-50.364,54.922-64.468c13.849-7.248,28.631-11.413,44.148-13.247
		C360.683,1.335,365.325,1.178,369.968,0.847z M436.301,138.079c0.12-15.894-1.492-32.22-6.282-48.139
		c-4.42-14.689-11.002-28.099-22.158-39.01c-17.226-16.849-41.436-17.992-60.421-5.542c-12.592,8.258-20.083,20.606-25.271,34.411
		c-6.089,16.202-8.331,33.145-9.036,50.327c-0.527,12.835,0.078,25.639,1.97,38.345c2.316,15.55,6.342,30.581,14.735,44.106
		c9.242,14.895,21.94,24.849,39.782,27.082c14.749,1.846,27.116-3.438,37.703-13.342c9.166-8.574,15.33-19.141,19.735-30.811
		C433.966,177.202,436.402,158.177,436.301,138.079z"/>
	<path style="fill:#BB2426;" d="M1.116,265.898c-0.04-1.998-0.114-3.995-0.115-5.993C0.996,178.917,0.997,97.929,0.993,16.941
		c0-1.999-0.057-3.997-0.088-5.996c0.817-0.822,1.862-0.563,2.832-0.564c18.666-0.011,37.332-0.01,55.998-0.001
		c0.657,0,1.313,0.098,2.29,0.175c37.766,46.534,75.628,93.184,113.435,139.768c0.479-0.229,0.641-0.282,0.772-0.378
		c0.118-0.086,0.258-0.206,0.289-0.335c0.077-0.321,0.134-0.656,0.135-0.986c0.038-45.661,0.07-91.323,0.112-136.984
		c0-0.153,0.125-0.305,0.461-1.073c13.415-0.399,27.11-0.164,41.134-0.118c0,85.283,0,170.171,0,255.306
		c-12.861,0-25.637,0-38.976,0c-44.067-55.982-88.401-112.303-133.338-169.39c0,56.996,0,112.929,0,169.561
		c-7.609,0.161-15.026,0.064-22.438,0.067C16.112,265.996,8.614,265.932,1.116,265.898z"/>
	<path style="fill:#BB2326;" d="M1588.03,265.814c-24.68,0-49.313,0-74.382,0c-8.447-22.487-16.951-45.129-25.517-67.934
		c-31.592,0-63.012,0-94.6,0c-9.974,22.715-19.901,45.321-29.849,67.977c-14.991,0-29.791,0-44.6,0
		c0.328-4.064,94.741-236.303,103.71-255.149c20.275,0,40.716,0,61.36,0C1486.063,13.155,1586.243,258.882,1588.03,265.814z
		 M1406.636,157.763c22.09,0,43.475,0,65.236,0c-11.038-25.857-21.644-51.5-33.092-77.807
		C1427.842,106.432,1417.339,131.854,1406.636,157.763z"/>
	<path style="fill:#BC2527;" d="M965.063,276.097c-8.049,0.013-16.098,0.026-24.146,0.039c-15.737-0.575-31.16-3.025-45.654-9.33
		c-28.164-12.251-44.538-33.784-49.402-64.12c-1.19-7.42-1.846-14.86-1.845-22.372c0.009-55.166-0.003-110.333,0.01-165.499
		c0-1.306-0.28-2.655,0.431-4.182c21.138,0,42.384,0,63.846,0c0.736,2.057,0.42,4.059,0.42,6c0.02,55,0.03,110,0.004,164.999
		c-0.004,8.187,0.594,16.242,2.993,24.157c3.622,11.951,11.13,20.631,21.706,26.896c1.14,0.675,2.336,1.148,3.688,1.411
		c13.903,2.703,27.883,3.053,41.641-0.215c8.657-2.056,15.351-7.664,20.326-15.158c4.624-6.965,6.45-14.877,7.873-22.924
		c1.948-11.02,2.485-22.123,2.454-33.318c-0.135-48.666-0.063-97.333-0.039-145.999c0.001-1.801-0.368-3.652,0.494-5.76
		c14.953,0,30.012,0,45.019,0c1.152,1.195,0.712,2.601,0.712,3.88c0.022,60.833,0.042,121.666-0.01,182.499
		c-0.006,7.602-2.688,14.661-5.24,21.687c-8.095,22.289-24.362,36.821-45.007,47.135
		C992.663,272.254,979.247,275.712,965.063,276.097z"/>
	<path style="fill:#BB2326;" d="M735.508,265.825c-22.871,0-45.153,0-67.735,0c-22.67-57.431-45.331-114.839-68.306-173.043
		c-20.925,58.148-41.576,115.534-62.264,173.022c-15.142,0-30.078,0-45.452,0c31.625-85.223,63.132-170.13,94.691-255.175
		c17.216,0,34.169,0,51.81,0C670.556,95.396,702.966,180.435,735.508,265.825z"/>
	<path style="fill:#BB2326;" d="M837.201,265.823c-25.05,0-49.682,0-74.946,0c-20.171-57.098-40.428-114.439-61.054-172.825
		c-3.403,7.743-6.436,14.648-9.87,22.461c-7.965-21.258-15.658-41.789-23.365-62.357c5.707-14.243,11.378-28.395,17.057-42.57
		c18.289,0,36.256,0,54.881,0C772.246,95.392,804.667,180.46,837.201,265.823z"/>
	<path style="fill:#BC2526;" d="M629.407,265.867c-13.947,0-27.567,0-41.939,0c10.401-29.268,21.299-57.982,32.168-87.918
		c7.779,19.108,15.192,37.318,22.671,55.687C638.057,244.254,633.813,254.86,629.407,265.867z"/>
</g>
</svg>
