<?xml version="1.0" encoding="iso-8859-1"?>
<!-- Generator: Adobe Illustrator 27.0.0, SVG Export Plug-In . SVG Version: 6.00 Build 0)  -->
<svg version="1.1" id="Layer_1" xmlns="http://www.w3.org/2000/svg" xmlns:xlink="http://www.w3.org/1999/xlink" x="0px" y="0px"
	 viewBox="0 0 1384.936 360" style="enable-background:new 0 0 1384.936 360;" xml:space="preserve">
<g>
	<path style="fill:#D3208B;" d="M0,79c1.012-0.335,0.816-1.288,1.073-2.031c4.861-14.09,20.076-19.985,33.193-12.872
		c8.32,4.511,12.481,14.122,10.678,24.659c-1.379,8.057-9.135,15.597-17.369,17.278c-11.66,2.38-22.428-4.31-26.288-14.616
		C0.97,90.57,1.318,89.326,0,89C0,85.667,0,82.333,0,79z"/>
	<path style="fill:#8A7F79;" d="M1099.08,1.05c-0.027-0.35-0.053-0.7-0.08-1.05c14,0,28,0,42,0
		c-0.035,0.354-0.069,0.709-0.104,1.063C1126.957,1.059,1113.019,1.054,1099.08,1.05z"/>
	<path style="fill:#BFB8B5;" d="M957,360c0.005-0.281-0.017-0.561-0.066-0.838c5.046,0.007,10.092,0.014,15.139,0.021
		c-0.027,0.272-0.051,0.544-0.072,0.817C967,360,962,360,957,360z"/>
	<path style="fill:#40352F;" d="M972.072,359.183c-5.046-0.007-10.092-0.014-15.139-0.021c-13.818-0.315-27.343-2.693-40.974-5.518
		c0-11.547,0-22.812,0-34.342c7.113,1.417,13.982,3.107,20.95,4.107c15.399,2.211,30.766,2.781,46.064-1.286
		c18.651-4.958,30.809-19.287,32.087-38.537c0.229-3.451,1.085-6.904,0.372-10.734c-3.284,1.062-6.353,2.23-9.512,3.045
		c-12.315,3.179-24.709,4.667-37.52,3.227c-12.036-1.353-23.518-4.183-34.202-9.831c-23.313-12.325-37.202-32.046-44.104-57.073
		c-3.525-12.783-4.813-25.891-3.908-39.064c1.807-26.316,10.69-49.625,30.872-67.567c12.062-10.723,26.339-17.11,42.069-20.494
		c12.18-2.62,24.513-3.034,36.783-1.836c21.666,2.116,42.257,8.264,61.414,18.139c0.945,1.308,0.64,2.515,0.641,3.65
		c0.01,53.155,0.024,106.31-0.019,159.465c-0.011,13.724-1.909,27.219-6.368,40.211c-9.449,27.527-28.474,44.553-56.839,51.239
		C987.26,357.729,979.724,358.785,972.072,359.183z M1015.859,237.116c0-37.472,0-74.268,0-111.011
		c-0.499-0.398-0.844-0.798-1.28-0.996c-1.054-0.476-2.147-0.867-3.23-1.276c-9.925-3.749-20.193-5.501-30.782-4.842
		c-18.947,1.18-33.883,9.373-42.852,26.425c-10.902,20.726-11.48,42.502-3.627,64.224c6.223,17.214,18.632,28.341,36.765,32.596
		C986.419,245.888,1001.109,242.403,1015.859,237.116z"/>
	<path style="fill:#40342F;" d="M1099.08,1.05c13.939,0.004,27.877,0.009,41.816,0.013c0.056,11.66,0.143,23.319,0.161,34.979
		c0.027,17.82,0.007,35.64,0.007,53.32c0.977,0.944,1.639,0.259,2.323-0.05c9.697-4.387,19.98-6.064,30.508-6.485
		c14.143-0.566,27.833,1.419,40.733,7.594c21.744,10.407,34.638,27.815,40.254,50.948c1.735,7.147,2.32,14.442,2.325,21.776
		c0.023,36.159,0.011,72.317,0.002,108.476c0,0.823-0.104,1.645-0.158,2.433c-3.781,0.845-36.344,0.956-41.458,0.14
		c-0.846-1.651-0.412-3.51-0.414-5.282c-0.032-34.826-0.034-69.651-0.018-104.477c0.003-6.177-0.342-12.285-2.031-18.288
		c-4.171-14.822-14.154-23.27-28.939-26.21c-14.801-2.943-29.052-0.825-43.122,5.54c0,49.566,0,99.156,0,148.993
		c-14.156,0-27.897,0-41.58,0c-1.001-1.516-0.572-3.052-0.572-4.496c-0.024-88.48-0.023-176.961-0.015-265.441
		C1098.903,3.372,1099.018,2.211,1099.08,1.05z"/>
	<path style="fill:#40352F;" d="M614.378,274.843c-13.983,0-27.777,0-41.665,0c-1.151-1.647-0.546-3.535-0.548-5.284
		c-0.044-34.985-0.039-69.97-0.025-104.955c0.002-5.836-0.301-11.613-1.71-17.328c-3.514-14.256-12.227-23.171-26.569-26.644
		c-15.896-3.849-30.929-0.99-45.815,5.236c0,49.699,0,99.137,0,148.854c-14.005,0-27.75,0-41.841,0c0-57.606,0-115.301,0-173.238
		c17.745-9.119,36.414-15.487,56.472-17.656c18.273-1.976,36.23-0.891,53.623,5.272c24.672,8.743,39.955,25.993,45.611,51.612
		c1.29,5.845,1.9,11.774,2.146,17.78c1.572,38.284,0.257,76.581,0.662,114.869C614.721,273.674,614.58,273.987,614.378,274.843z"/>
	<path style="fill:#40352F;" d="M776.606,99.964c-5.12,9.589-10.174,19.054-15.337,28.725c-5.102-2.148-9.906-4.271-14.786-6.203
		c-9.527-3.773-19.441-5.667-29.691-5.446c-4.823,0.104-9.606,0.931-14.247,2.234c-2.036,0.572-3.98,1.689-5.78,2.846
		c-11.623,7.473-8.353,20.49-1.486,26.33c3.986,3.39,8.724,5.434,13.364,7.65c11.818,5.645,24.239,9.909,35.964,15.787
		c6.139,3.077,11.822,6.788,17.034,11.209c12.384,10.505,17.714,24.091,17.54,40.15c-0.257,23.697-14.026,41.729-36.213,50.616
		c-15.341,6.145-31.317,7.232-47.569,5.473c-16.495-1.785-32.272-6.046-46.853-14.19c-2.72-1.519-5.602-2.828-8.021-5.436
		c5.257-9.644,10.474-19.214,15.79-28.965c5.828,3.184,11.267,6.309,17.11,8.687c11.245,4.578,22.868,7.023,34.999,6.471
		c6.172-0.281,12.16-1.83,17.656-4.749c8.791-4.669,12.547-13.198,10.001-22.079c-1.004-3.502-3.133-6.161-5.753-8.561
		c-5.646-5.174-12.725-7.692-19.553-10.692c-10.475-4.603-21.207-8.604-31.515-13.604c-8.966-4.348-16.836-10.034-22.876-18.063
		c-8.16-10.847-10.696-23.282-8.819-36.345c3.436-23.911,18.574-37.726,40.746-44.81c13.54-4.326,27.406-4.65,41.464-3.325
		c11.371,1.072,22.188,3.974,32.657,8.358C767.317,94.081,771.989,96.547,776.606,99.964z"/>
	<path style="fill:#40352F;" d="M1384.936,239.972c0,11.736,0,23.164,0,34.926c-17.942,0.154-35.638,0.999-52.765-5.612
		c-17.597-6.793-27.943-19.67-33.049-37.272c-2.985-10.29-3.945-20.906-3.954-31.58c-0.047-54.827-0.028-109.654-0.01-164.481
		c0-1.122-0.349-2.328,0.589-3.611c13.438,0,27.025,0,41.097,0c0,18.416,0,36.807,0,55.634c16.212,0,31.947,0,47.89,0
		c0,11.707,0,22.975,0,34.836c-15.697,0-31.406,0-46.975,0c-0.858,2.163-0.537,3.837-0.539,5.461
		c-0.025,20.498-0.201,40.998,0.086,61.491c0.097,6.939,0.318,13.935,1.586,20.839c2.41,13.112,8.064,24.218,28.246,27.658
		C1372.923,239.247,1378.79,238.657,1384.936,239.972z"/>
	<path style="fill:#413630;" d="M369.584,10.503c14.473,0,28.58,0,43.054,0c0,88.005,0,176.015,0,264.264
		c-14.232,0-28.49,0-43.054,0C369.584,186.866,369.584,98.975,369.584,10.503z"/>
	<path style="fill:#3F342E;" d="M811.254,88.242c14.076,0,27.831,0,41.706,0c0,62.151,0,124.06,0,186.221
		c-13.963,0-27.706,0-41.706,0C811.254,212.412,811.254,150.503,811.254,88.242z"/>
	<path style="fill:#74225A;" d="M217.657,126.656c0,49.434,0,98.511,0,147.745c-12.493,0-24.726,0-37.226,0
		c0-49.347,0-98.393,0-147.745C192.981,126.656,205.341,126.656,217.657,126.656z"/>
	<path style="fill:#D3208B;" d="M124.199,102.612c0-12.526,0-24.648,0-37.136c49.23,0,98.377,0,147.762,0
		c0,12.384,0,24.621,0,37.136C222.75,102.612,173.721,102.612,124.199,102.612z"/>
	<path style="fill:#B02432;" d="M8.249,219.755c0-12.535,0-24.774,0-37.185c49.304,0,98.354,0,147.651,0c0,12.462,0,24.698,0,37.185
		C106.748,219.755,57.69,219.755,8.249,219.755z"/>
	<path style="fill:#AF214A;" d="M63.212,10.549c12.291,0,24.364,0,36.737,0c0,49.358,0,98.51,0,147.896c-12.319,0-24.393,0-36.737,0
		C63.212,109.101,63.212,59.938,63.212,10.549z"/>
	<path style="fill:#413630;" d="M856.863,32.6c-0.126,13.253-11.393,24.537-24.667,24.226c-13.482-0.316-24.756-10.028-24.78-24.656
		c-0.023-13.521,10.237-24.633,24.692-24.717C847.116,7.366,856.772,19.437,856.863,32.6z"/>
	<path style="fill:#732059;" d="M199.227,47.889c-12.744,0.07-23.09-9.915-23.102-22.413c-0.012-12.075,9.12-23.084,23.052-23.059
		c13.078,0.024,22.184,10.139,22.485,22.511C221.972,37.697,211.948,47.82,199.227,47.889z"/>
	<path style="fill:#B02432;" d="M280.177,201.455c0.674,11.113-9.516,22.654-22.949,22.441
		c-12.316-0.195-22.227-10.265-22.233-22.781c-0.006-12.714,10.268-23.196,22.735-22.715
		C272.727,178.979,280.871,191.103,280.177,201.455z"/>
	<path style="fill:#B0234A;" d="M104.138,259.5c0.059,11.472-7.985,22.776-22.505,23.029c-14.653,0.256-22.899-11.613-22.829-22.586
		c0.081-12.637,10.077-22.814,22.721-22.82C93.978,237.118,104.037,247.072,104.138,259.5z"/>
</g>
</svg>
