<?xml version="1.0" encoding="iso-8859-1"?>
<!-- Generator: Adobe Illustrator 27.0.0, SVG Export Plug-In . SVG Version: 6.00 Build 0)  -->
<svg version="1.1" id="Layer_1" xmlns="http://www.w3.org/2000/svg" xmlns:xlink="http://www.w3.org/1999/xlink" x="0px" y="0px"
	 viewBox="0 0 1664 516" style="enable-background:new 0 0 1664 516;" xml:space="preserve">
<g>
	<path style="fill:#42508F;" d="M1664,282c-1.754,2.196-1.381,4.993-1.884,7.476c-4.725,23.325-23.958,33.482-42.285,33.725
		c-9.006,0.119-17.487-1.334-25.457-5.707c-11.529-6.326-17.55-16.506-20.077-28.908c-2.721-13.353-2.454-26.833,0.539-40.099
		c3.745-16.597,14.039-27.327,30.716-31.097c15.994-3.615,31.083-1.716,44.076,9.406c5.762,4.932,8.99,11.369,11.361,18.413
		c1.302,3.869,1.121,8.091,3.01,11.791C1664,265.333,1664,273.667,1664,282z M1597.009,269.432
		c-0.268,6.891,0.178,13.811,2.867,20.427c1.41,3.469,3.507,6.244,6.677,8.423c10.961,7.534,28.371,2.819,31.605-12.759
		c2.093-10.084,2.009-20.133,0.441-30.208c-0.533-3.428-1.646-6.747-3.641-9.711c-4.172-6.197-12.088-10.089-22.524-7.538
		c-7.192,1.758-13.286,9.012-14.494,17.316C1597.269,260,1596.937,264.635,1597.009,269.432z"/>
	<path style="fill:#1EBBD3;" d="M264,0c-0.44,1.353-1.626,2.086-2.58,2.972c-16.345,15.184-32.471,30.596-48.362,46.255
		c-1.411,1.391-3.061,2.54-4.588,3.792c-1.654-0.132-2.786-1.145-3.92-2.077c-11.013-9.049-23.548-14.88-37.66-16.695
		c-6.048-0.778-12.194-1.525-18.374-1.199c-3.314,0.175-6.645,0.031-11.015,0.031c6.84-4.055,13.047-7.101,19.368-9.856
		c16.405-7.152,33.356-12.7,50.852-16.512c7.261-1.582,14.543-3.017,21.953-3.831c5.751-0.632,11.427-1.925,17.251-2.004
		C247.288,0.873,247.642,0.305,248,0C253.333,0,258.667,0,264,0z"/>
	<path style="fill:#1EBBD3;" d="M0,264c0.529,0.389,1.112,0.722,1.579,1.174c13.519,13.095,27.013,26.217,40.547,39.296
		c3.107,3.003,6.363,5.852,9.518,8.805c0.959,0.898,2.021,1.744,2.59,3.174c-1.131,3.357-3.832,5.71-5.816,8.515
		c-7.559,10.685-11.547,22.511-12.622,35.568c-0.656,7.967-0.501,15.925-0.767,24.5c-3.829-4.217-5.711-8.991-7.964-13.43
		c-5.775-11.374-10.859-23.092-14.733-35.257c-4.112-12.912-7.451-26.031-9.409-39.481c-0.883-6.067-1.962-12.099-2.021-18.251
		C0.895,277.903,0.674,277.329,0,277C0,272.667,0,268.333,0,264z"/>
	<path style="fill:#1FBBD3;" d="M279,516c6.68-6.454,13.171-13.119,20.089-19.307c8.56-7.657,16.469-15.965,24.745-23.903
		c2.518-2.415,4.994-4.861,8.219-7.021c3.591,2.278,7.307,4.669,11.056,7.006c9.115,5.682,19.012,8.904,29.673,10.464
		c8.471,1.24,16.916,0.17,25.938,0.968c-4.716,3.036-9.371,5.195-14.032,7.259c-17.4,7.705-35.399,13.712-53.934,17.977
		c-9.152,2.106-18.458,3.504-27.795,4.718c-3.975,0.517-8.189-0.095-11.958,1.837C287,516,283,516,279,516z"/>
	<path style="fill:#43508F;" d="M477.069,96.216c0,6.716,0.007,12.705-0.002,18.694c-0.017,11.498-0.077,22.997-0.059,34.495
		c0.027,16.972-7.989,29.437-21.648,38.728c-4.678,3.182-9.844,5.407-15.767,7.273c31.885,30.411,63.508,60.448,94.594,90.865
		c-0.085,1.511-1.142,2.161-1.962,2.942c-11.936,11.383-23.956,22.68-35.814,34.143c-14.416,13.937-31.308,17.194-50.243,12.05
		c-2.541-0.69-5.024-1.591-7.945-2.526c0,41.675,0,83.081,0,123.974c-0.966,1.301-1.84,1.141-2.647,1.142
		c-17.997,0.017-35.996,0.21-53.991-0.015c-20.094-0.251-34.1-10.436-43.527-27.66c-0.785-1.435-0.962-3.201-2.705-4.67
		c-30.472,29.208-60.96,58.43-91.184,87.4c-1.634,0.315-2.213-0.624-2.898-1.286c-12.463-12.039-24.734-24.285-37.415-36.09
		c-14.303-13.314-17.714-35.103-9.216-52.799c0.698-1.453,1.876-2.759,1.827-4.954c-44.609,1.02-89.196,0.701-133.348,0.759
		c-1.252-1.891-0.903-3.259-0.903-4.554c0-15.664,0.063-31.329,0.055-46.993c-0.011-21.842,11.058-36.199,30.324-45.047
		c1.166-0.535,2.494-0.745,3.741-2.04c-30.628-29.426-61.219-58.818-91.701-88.104c0.633-2.068,2.128-2.962,3.303-4.081
		c12.182-11.608,24.358-23.223,36.622-34.744c7.781-7.309,17.086-11.104,27.725-12.277c9.534-1.052,18.472,0.815,27.679,4.288
		c0-42.1,0-83.857,0-125.202c1.008-1.163,1.893-0.916,2.683-0.916c17.663,0.01,35.327,0.106,52.99,0.041
		c12.376-0.045,23.111,4.181,32.391,12.164c6.297,5.417,10.691,12.25,13.746,19.944c0.48,1.21,0.61,2.567,1.754,3.576
		c31.469-30.228,62.935-60.454,94.673-90.941c3.364,3.197,6.595,6.237,9.792,9.312c10.086,9.701,20.353,19.225,30.192,29.171
		c13.811,13.963,16.265,30.587,10.413,48.858c-0.452,1.41-1.021,2.782-1.518,4.178c-0.047,0.131,0.042,0.311,0.139,0.902
		C390.233,96.216,433.319,96.216,477.069,96.216z M156.737,293.051c9.825,6.714,18.966,12.961,28.125,19.22
		c1.459-1.28,2.576-2.265,3.698-3.244c7.275-6.342,14.557-12.677,21.824-19.029c2.002-1.75,4.116-2.81,7.029-1.346
		c3.044,6.775,2.325,14.119,2.513,21.415c-5.656,5.186-11.248,10.312-17.101,15.679c5.301,4.049,10.298,7.867,15.283,11.675
		c0,5.012,0,9.788,0,14.909c11.137-0.357,21.952-1.42,32.905-2.518c0.376-10.311,0.142-20.281,0.951-30.213
		c0.161-1.974-0.29-4.184,1.868-5.329c2.412-1.28,4.409-0.095,6.43,1.291c4.545,3.117,8.806,6.544,12.212,10.195
		c2.512,7.514,0.655,14.893,1.393,22.405c7.599-0.576,14.679-1.112,21.907-1.659c3.908,2.894,6.259,7.5,10.296,10.612
		c7.845-8.809,15.44-17.336,23.242-26.097c-4.199-4.167-8.11-8.008-11.976-11.894c-3.759-3.779-7.595-7.492-11.165-11.445
		c-2.551-2.824-1.491-5.96,2.134-6.653c6.366-1.217,12.83-1.498,19.141-1.92c5.648,5.247,11.072,10.286,16.586,15.408
		c5.453-6.064,10.544-11.727,15.043-16.73c5.478-0.415,9.9,1.628,14.796,0.94c-1.321-10.919-1.214-21.687-2.935-31.921
		c-1.433-0.873-2.456-0.609-3.434-0.65c-10.302-0.427-20.605-0.816-30.906-1.266c-4.447-0.194-4.836-0.538-6.369-4.805
		c3.264-4.996,7.197-9.477,11.727-13.449c1.673-1.466,3.448-2.558,5.795-2.511c4.819,0.097,9.643-0.002,14.448,0.546
		c2.285,0.261,4.596,0.565,6.803-0.256c0-4.622,0-9.089,0-14.148c3.39-3.953,7.146-8.332,11.059-12.893
		c-9.767-7.363-19.3-14.548-28.488-21.475c-1.694,0.246-2.281,1.12-3.006,1.777c-6.659,6.036-13.339,12.05-19.941,18.148
		c-2.12,1.958-4.271,3.128-7.538,1.558c-2.69-6.523-1.846-13.774-3.043-20.521c4.937-5.136,9.618-10.005,14.424-15.004
		c-1.11-1.47-2.625-2.505-4.171-3.415c-6.279-3.694-9.958-8.917-10.758-16.335c-0.267-2.472,0.006-5.434-2.377-7.493
		c-10.324,0.853-20.676,1.933-31.154,3.343c-0.35,7.241-0.692,14.032-0.999,20.823c-0.158,3.487-0.281,6.96-0.757,10.44
		c-0.373,2.727-1.484,4.266-4.542,4.79c-6.129-3.639-11.774-8.162-16.421-13.494c-0.726-6.935,0.15-13.551-0.168-20.134
		c-7.772,0.351-14.943,2.006-22.217,1.706c-3.272-3.233-6.421-6.344-9.805-9.688c-7.417,8.723-15.182,16.37-22.464,25.678
		c1.923,1.532,3.593,2.673,5.039,4.049c4.707,4.475,9.394,8.968,13.739,13.813c1.614,1.8,2.389,3.546,1.168,6.011
		c-7.017,3.582-14.671,2.967-21.979,2.835c-4.66-3.328-7.762-7.809-12.236-11.168c-5.315,5.831-10.55,11.576-15.477,16.983
		c-5.28-0.278-9.898-1.707-15.123-1.465c0.88,9.898,1.726,19.416,2.58,29.021c5.069,0.149,9.67,0.802,14.34,0.752
		c6.661-0.071,13.325,0.186,19.989,0.205c2.138,0.006,4.01,0.358,5.104,2.377c1.16,2.139-0.014,3.763-1.248,5.433
		c-3.472,4.699-7.627,8.772-11.525,13.034c-8.337,0.176-16.562-0.112-24.537,0.158c0.157,8.012,1.619,15.219,1.527,22.523
		C164.356,286,160.842,289.252,156.737,293.051z M295.103,431.484c0.816-0.558,1.286-0.779,1.627-1.127
		c15.505-15.791,32.723-29.854,47.109-46.778c5.882-6.92,13-12.294,21.004-15.691c-6.862-6.965-13.597-13.801-20.555-20.864
		c-1.816,1.966-3.849,4.128-5.838,6.332c-2.565,2.841-5.122,5.689-7.627,8.583c-1.819,2.102-3.868,3.354-6.825,3.501
		c-5.137,0.255-10.244,1.06-15.378,1.45c-10.946,0.831-21.901,1.547-32.853,2.303c-0.855,0.059-1.639,0.247-2.463,1.268
		c0,13.139,0,26.603,0,40.151C280.179,417.77,287.576,424.45,295.103,431.484z M159.992,395.675
		c30.057,0.463,59.917-0.302,90.143,2.071c-0.256-9.061,0.918-17.708,0.616-26.528c-7.465,0.618-14.233,1.178-21.109,1.748
		c-14.337-10.754-28.676-21.509-43.263-32.45c-9.012,8.088-17.887,16.053-26.386,23.68
		C159.992,374.959,159.992,385.067,159.992,395.675z M395.017,289.99c-11.81,13.269-23.517,26.422-35.344,39.709
		c12.329,11.968,24.377,23.663,35.98,34.928c6.578,0,12.492,0,18.545,0c0-15.701,0.065-31.031-0.029-46.36
		c-0.043-6.986-0.037-13.971-0.98-20.94c-1.185-8.756,0.11-17.231,3.816-25.309c0.456-0.994,1.4-1.968,0.495-3.711
		c-7.613-0.49-15.514-0.264-23.465-1.256C393.319,275.063,395.256,282.274,395.017,289.99z M89.976,281.266
		c10.594,10.244,21.081,19.949,31.057,30.154c10.002,10.23,22.344,17.811,31.839,29.076c4.998-4.853,10.532-8.778,15.043-13.891
		c-5.781-4.386-11.295-8.672-16.933-12.789c-1.782-1.301-2.629-2.806-2.791-4.959c-0.701-9.283-1.329-18.576-2.289-27.833
		c-0.715-6.893-0.748-13.869-2.134-20.912c-10.638,0-21.09,0-32.01,0C104.769,266.899,97.511,273.948,89.976,281.266z
		 M246.402,86.093c-8.343,7.682-16.19,15.099-24.245,22.284c-14.72,13.13-27.923,27.973-44.243,39.221
		c4.637,4.457,9.282,8.921,14.205,13.653c3.705-4.115,7.951-8.539,11.828-13.265c1.833-2.235,3.837-3.498,6.635-3.78
		c10.568-1.064,21.136-2.135,31.698-3.263c6.549-0.699,13.086-1.507,19.601-2.262c1.029-12.487,1.231-24.588,1.261-36.554
		C257.557,96.776,252.166,91.614,246.402,86.093z M124.088,152.393c-0.089,1.033-0.218,1.831-0.217,2.63
		c0.016,17.824,0.04,35.648,0.09,53.471c0.004,1.324,0.076,2.679,0.358,3.966c1.58,7.202,2.039,14.476,1.619,21.824
		c-0.062,1.091-0.6,2.288,0.646,3.463c4.89,0,9.981,0,15.31,0c0.184-1.991,0.179-3.792-0.292-5.543
		c-0.703-2.61-0.598-5.283-0.803-7.933c-0.314-4.062,1.054-7.338,3.877-10.361c7.727-8.274,15.244-16.743,22.814-25.163
		c3.192-3.55,6.307-7.169,9.55-10.862c-8.878-8.843-17.268-17.614-26-25.493C141.838,152.393,133.063,152.393,124.088,152.393z
		 M379.758,119.137c-17.004,0-33.458-0.013-49.912,0.011c-3.156,0.005-6.302,0.216-9.456,0.453
		c-11.37,0.855-22.793,2.488-34.209-1.583c-1.093,6.209-1.225,12.052-1.062,18.213c7.171-0.688,13.757-1.32,20.394-1.957
		c14.475,10.885,28.928,21.754,43.524,32.731c10.41-9.902,20.623-19.618,30.721-29.223
		C379.758,131.587,379.758,125.64,379.758,119.137z M449.447,236.775c-1.69-1.509-3.098-2.66-4.387-3.932
		c-14.803-14.606-29.511-29.309-44.411-43.815c-6.825-6.644-13.293-13.484-17.546-22.13c-0.108-0.219-0.48-0.307-0.797-0.497
		c-4.972,4.613-9.945,9.226-15.15,14.056c7.197,5.498,14.032,10.719,20.533,15.685c1.817,16.798,2.377,33.166,4.296,49.613
		c15.948,0.016,31.21,0.795,46.446,1.318C441.959,243.774,445.347,240.607,449.447,236.775z M466.418,253.325
		c-1.003,0.558-1.506,0.715-1.843,1.043c-7.406,7.188-14.934,14.258-22.143,21.64c-6.02,6.165-7.037,13.899-4.823,21.838
		c4.63,16.606,26.279,22.691,39.722,11.367c1.653-1.393,3.288-2.815,4.847-4.312c6.222-5.977,12.41-11.989,18.857-18.227
		C489.31,275.378,477.945,264.429,466.418,253.325z M279.554,448.998c-7.601-7.1-14.283-14.271-21.634-20.787
		c-5.922-5.249-12.486-7.985-20.455-7.231c-9.827,0.93-16.958,5.799-20.642,14.889c-3.711,9.158-2.085,17.619,5.081,24.703
		c6.512,6.437,13.077,12.821,19.662,19.184c0.915,0.884,1.627,2.148,3.44,2.291C256.274,471.268,267.679,460.357,279.554,448.998z
		 M36.851,232.802c11.805,11.285,23.311,22.283,35.051,33.506c8.108-7.959,16.166-15.426,23.69-23.397
		c5.667-6.003,6.961-13.553,4.607-21.401c-5.338-17.79-27.492-21.909-40.253-10.82C52.036,217.564,44.437,224.805,36.851,232.802z
		 M298.422,36.171c-11.968,11.455-23.367,22.365-34.651,33.166c0.287,0.703,0.33,1.09,0.546,1.296
		c7.597,7.237,14.971,14.732,22.895,21.593c6.55,5.671,14.448,7.109,22.933,4.816c16.385-4.428,23.376-24.536,12.355-36.95
		C315.115,51.774,306.723,44.349,298.422,36.171z M135.789,395.109c0-10.36,0.41-20.168-0.098-29.929
		c-0.723-13.894-11.444-23.464-25.284-23.535c-10.43-0.053-22.999,8.259-23.914,20.983c-0.586,8.145-0.296,16.277-0.395,24.415
		c-0.032,2.619-0.005,5.239-0.005,8.065C102.836,395.109,119.061,395.109,135.789,395.109z M415.723,435.044
		c0-16.029,0-31.447,0-46.984c-11.736,0-23.257-0.731-34.646,0.185c-14.272,1.148-21.522,14.154-21.422,23.006
		c0.143,12.64,10.225,23.009,21.917,23.658C392.833,435.534,404.156,435.044,415.723,435.044z M453.189,118.176
		c-16.667,0-32.841,0-49.165,0c0,11.082-0.009,21.859,0.019,32.635c0.002,0.813,0.241,1.633,0.427,2.437
		c3.628,15.67,22.943,24.088,37.755,14.374c6.903-4.527,11.042-10.88,10.873-19.525c-0.072-3.655,0.076-7.314,0.086-10.971
		C453.201,130.856,453.189,124.585,453.189,118.176z M124.082,129.329c8.339,0,16.29,0.03,24.24-0.013
		c3.656-0.02,7.355,0.142,10.959-0.34c11.747-1.571,20.997-12.379,20.798-23.109c-0.239-12.872-10.447-23.267-23.997-23.717
		c-9.466-0.314-18.95-0.131-28.426-0.126c-1.118,0.001-2.321-0.362-3.575,0.549C124.082,97.833,124.082,113.22,124.082,129.329z"/>
	<path style="fill:#42508F;" d="M1501.072,245.855c9.298,4.996,14.949,13.015,17.15,23.219c3.364,15.598,0.898,29.801-11.691,40.887
		c-7.125,6.274-15.92,8.605-25.069,10.028c-6.954,1.082-13.936,0.872-20.92,0.879c-14.634,0.015-29.268,0.004-44.511,0.004
		c-0.493-48.237-0.296-96.231-0.075-143.987c1.516-1.185,2.901-0.78,4.176-0.785c17.152-0.061,34.304-0.066,51.457-0.105
		c6.684-0.015,13.378,0.439,19.714,2.504c15.904,5.185,24.115,15.637,25.539,33.173c1.05,12.931-2.74,23.983-13.741,31.83
		C1502.334,244.051,1501.396,244.53,1501.072,245.855z M1441.219,298.286c6.493,0.115,12.483-0.083,18.455,0.474
		c6.339,0.592,12.627-0.348,18.91-0.947c4.88-0.465,8.823-2.911,11.667-6.882c3.683-5.144,4.74-11.034,3.532-17.103
		c-1.623-8.155-7.672-14.194-17.016-14.883c-7.483-0.552-14.976-0.174-22.464-0.267c-4.282-0.053-8.564-0.01-13.083-0.01
		C1441.219,272.007,1441.219,284.917,1441.219,298.286z M1441.249,236c10.522,0,20.8,0.122,31.074-0.033
		c11.378-0.171,18.187-6.144,19.293-17.301c1.003-10.124-5.964-18.539-14.568-19.567c-11.857-1.417-23.791-1.503-35.799-0.29
		C1441.249,211.275,1441.249,223.517,1441.249,236z"/>
	<path style="fill:#1FBBD3;" d="M662.175,320.743c-7.747,0-14.69,0-21.438,0c-1.115-0.952-0.785-2.02-0.815-2.973
		c-1.047-33.291-0.74-66.592-0.744-99.891c-0.001-7.665-0.188-15.337,0.088-22.993c0.219-6.097,0.732-12.19,0.672-18.589
		c7.644,0,14.919,0,22.637,0c1.595,0.814,2.784,2.565,3.901,4.456c6.915,11.711,13.882,23.392,20.827,35.086
		c10.248,17.255,20.487,34.515,30.74,51.767c1.999,3.364,4.044,6.7,6.849,9.79c0-33.553,0-67.106,0-101.317
		c7.524,0.177,14.688-0.839,22.257,0.593c-0.45,5.418,0.67,10.124,0.67,14.926c-0.003,41.158,0.013,82.316-0.014,123.474
		c-0.001,1.772,0.564,3.685-1.109,5.738c-6.6,0-13.55,0.069-20.498-0.04c-2.24-0.035-3.356-1.908-4.392-3.614
		c-6.113-10.065-12.257-20.113-18.295-30.223c-12.671-21.216-25.28-42.468-37.931-63.696c-0.58-0.974-1.326-1.849-2.457-3.407
		c-0.116,1.985-0.262,3.33-0.263,4.674c-0.024,26.994-0.035,53.988-0.038,80.983C662.82,310.456,661.644,315.337,662.175,320.743z"
		/>
	<path style="fill:#1EBBD3;" d="M1047.005,320.674c-7.325,0-14.253,0-21.315,0c-1.367-2.237-0.065-4.863-0.885-7.283
		c-1.631-0.022-2.601,1.32-3.656,2.143c-7.286,5.678-15.555,7.606-24.652,7.558c-8.008-0.042-15.419-1.672-22.165-6.008
		c-7.297-4.69-11.054-11.48-12.457-19.995c-0.83-5.038-0.754-9.881,0.572-14.709c2.598-9.461,8.525-15.928,17.796-19.302
		c7.068-2.573,14.417-3.654,21.865-3.949c5.986-0.238,11.988-0.029,17.983-0.073c1.456-0.011,2.97,0.324,4.708-0.531
		c0.499-4.386-0.35-8.715-1.586-12.974c-1.621-5.585-6.277-7.443-11.26-8.496c-12.59-2.661-24.29-0.322-35.486,7.055
		c-3.393-5.623-6.705-11.242-9.523-17.356c4.176-3.554,8.945-5.903,13.948-7.487c14.394-4.557,29.039-4.592,43.668-1.248
		c14.03,3.207,21.285,12.561,22.462,27.788c1.451,18.771,0.689,37.573,0.707,56.36
		C1047.736,308.24,1046.991,314.335,1047.005,320.674z M1024.802,277.073c-6.839,0-13.126,0.03-19.413-0.01
		c-4.681-0.03-9.165,0.978-13.541,2.498c-4.795,1.666-7.962,6.183-7.608,11.499c0.301,4.528,2.295,9.152,7.301,10.868
		c8.808,3.019,17.491,2.807,25.86-1.714c3.055-1.65,5.049-4.036,6.233-7.34C1025.427,287.873,1024.889,282.802,1024.802,277.073z"/>
	<path style="fill:#1EBBD3;" d="M1209.307,323.068c-9.504,0.239-18.545-1.652-26.531-6.888
		c-9.955-6.526-15.623-16.062-17.669-27.696c-1.291-7.34-2.44-14.736-1.97-22.232c0.57-9.1,1.677-18.206,5.227-26.632
		c4.19-9.944,11.781-16.853,21.944-20.506c13.287-4.776,26.653-4.735,39.729,0.859c9.256,3.96,16.044,10.808,19.719,20.085
		c4.957,12.514,6.187,25.602,4.503,39.028c-0.661,5.27-1.383,10.431-2.965,15.534c-4.685,15.116-15.284,23.494-30.13,27.378
		C1217.236,323.028,1213.282,322.994,1209.307,323.068z M1230.144,269.586c-0.165-6.189,0.086-12.595-1.984-18.944
		c-3.805-11.673-17.336-17.516-29.704-10.511c-7.368,4.173-9.795,11.429-10.335,19.299c-0.409,5.969-0.135,11.987-0.145,17.982
		c-0.007,4.022,0.908,7.917,2.227,11.647c1.525,4.316,4.193,7.833,8.364,10.14c10.542,5.831,26.749,2.12,30.42-13.502
		C1230.222,280.443,1230.047,275.15,1230.144,269.586z"/>
	<path style="fill:#21BCD3;" d="M1292.834,320.67c-7.495,0-14.924,0-22.304,0c-0.785-4.292-0.987-94.903-0.242-102.279
		c7.523,0,15.083,0,22.578,0c1.864,2.255,0.368,4.98,1.415,7.561c3.58-2.968,7.192-5.603,11.356-7.272
		c20.119-8.063,43.802,0.599,49.403,23.834c0.508,2.107,0.982,4.177,0.981,6.361c-0.008,23.321,0.012,46.642,0.011,69.964
		c0,0.481-0.145,0.962-0.274,1.763c-7.557,0-15.117,0-22.579,0c-1.563-1.671-0.995-3.602-1-5.369
		c-0.064-19.157-0.031-38.314-0.118-57.471c-0.026-5.808-1.717-10.991-5.861-15.383c-7.453-7.899-23.792-7.034-29.728,4.522
		c-1.866,3.634-2.613,7.439-2.606,11.508c0.034,18.824-0.003,37.648-0.067,56.471C1293.793,316.66,1294.288,318.555,1292.834,320.67
		z"/>
	<path style="fill:#1EBBD3;" d="M852.69,319.43c-1.567,1.466-3.542,1.564-5.547,1.557c-4.164-0.016-8.329,0.012-12.492-0.063
		c-4.664-0.084-5.41-0.867-5.588-5.524c-0.025-0.653-0.077-1.305-0.137-2.306c-3.593,1.811-6.248,4.551-9.589,6.294
		c-18.751,9.785-47.295,1.131-51.459-25.601c-0.541-3.475-0.851-6.9-0.85-10.38c0.001-19.989,0.011-39.977,0.051-59.966
		c0.003-1.622-0.32-3.301,0.461-5.114c7.584,0,15.172,0,22.877,0c1.075,1.656,0.551,3.536,0.556,5.293
		c0.056,18.656-0.078,37.314,0.133,55.967c0.069,6.141,1.088,12.156,5.722,16.98c4.893,5.092,10.809,6.3,17.304,4.825
		c7.188-1.633,11.924-6.105,13.957-13.378c0.868-3.103,0.979-6.212,0.982-9.363c0.02-17.823,0.013-35.646,0.051-53.47
		c0.004-1.798-0.291-3.658,0.468-5.342c3.566-2.205,7.405-1.837,11.192-1.823c3.82,0.014,7.639,0.003,11.384,0.003
		C853.35,222.317,853.734,307.808,852.69,319.43z"/>
	<path style="fill:#1FBBD3;" d="M919.614,320.738c-6.457,0.369-12.758,0.302-19.092,0.048c-2.345-2.18-3.333-5.066-4.317-7.812
		c-10.434-29.117-21.144-58.131-32.05-87.075c-0.755-2.002-1.311-4.079-1.911-5.968c0.307-1.068,0.957-1.723,1.796-1.741
		c7.454-0.158,14.926-0.635,22.527,0.503c8.428,22.352,15.516,44.845,23.609,68.145c8.292-23.47,14.869-46.259,23.51-68.526
		c7.891,0,15.478,0,23.069,0C956.723,222.807,923.553,314.358,919.614,320.738z"/>
	<path style="fill:#1FBBD3;" d="M1067.726,237.323c-3.265-0.883-6.712,0.698-9.45-2.019c0-5.478,0-11.077,0-17.051
		c3.282-0.16,6.361-0.31,9.789-0.477c0-10.216,0-20.149,0-29.969c3.928-1.099,17.193-1.266,23.855-0.347c0,9.87,0,19.8,0,30.147
		c5.833,0.917,11.496-0.142,17.234,0.896c1.909,5.989-0.838,11.851,0.064,18.011c-5.528,1.023-10.856,0.079-15.814,0.639
		c-1.511,1.158-1.26,2.559-1.261,3.863c-0.017,15.827,0.021,31.655-0.073,47.482c-0.013,2.213,0.663,4.251,0.92,6.386
		c0.363,3.011,2.106,4.499,5.149,5.171c3.398,0.751,6.856,0.929,10.6,1.033c0.849,6.857,1.206,13.533-0.019,20.911
		c-8.524-0.413-17.288,1.329-25.799-1.964c-6.897-2.669-10.95-7.924-12.849-14.82c-1.317-4.78-1.951-9.725-1.949-14.719
		c0.005-15.994,0.011-31.988-0.016-47.982C1068.102,240.879,1068.388,239.209,1067.726,237.323z"/>
	<path style="fill:#21BCD3;" d="M163.155,444.404c0.959,26.593,14.501,46.062,34.454,62.16
		c-21.568-5.026-41.78-13.079-61.018-23.569c-19.274-10.509-37.112-23.064-53.889-38.591
		C109.823,444.404,136.086,444.404,163.155,444.404z"/>
	<path style="fill:#1EBBD3;" d="M482.33,200.099c18.798-18.952,23.784-41.644,21.896-66.712
		c21.829,36.795,32.833,76.48,34.028,120.088C519.275,235.361,501.035,217.952,482.33,200.099z"/>
	<path style="fill:#1CBBD2;" d="M72.868,82.342c0,24.014,0,47.94,0,72.431c-26.339,1.117-45.271,15.934-62.516,34.624
		C11.238,166.096,52.198,96.336,72.868,82.342z"/>
	<path style="fill:#21BCD3;" d="M453.568,70.598c-25.402,0-49.957,0-74.948,0c-1.719-11.855-4.603-23.245-10.971-33.623
		c-6.383-10.401-15.767-17.877-24.483-26.39C363.709,10.305,434.963,48.899,453.568,70.598z"/>
	<path style="fill:#1EBBD3;" d="M465.128,435.219c0-24.383,0-47.848,0-71.867c25.592-0.817,44.735-14.21,61.655-32.101
		C515.157,370.977,493.968,404.807,465.128,435.219z"/>
	<path style="fill:#21BCD3;" d="M1124.861,320.889c0.337-34.587-1.564-68.436,0.559-102.763c7.343,0.426,14.764-1.259,22.414,1.149
		c0.321,3.694,0.918,7.44,0.93,11.189c0.083,25.967,0.026,51.935,0.067,77.902c0.006,3.659-1.132,7.201-0.698,11.304
		C1140.619,322.345,1133.032,320.36,1124.861,320.889z"/>
	<path style="fill:#43508F;" d="M1557.636,320.615c-7.889,0-15.469,0-23.38,0c0-33.988,0-67.904,0-102.154c7.662,0,15.365,0,23.38,0
		C1557.636,252.55,1557.636,286.454,1557.636,320.615z"/>
	<path style="fill:#1CBBD2;" d="M1148.434,198.789c-8.305,0-15.589,0-23.038,0c-1.454-7.508-1.88-14.82,0-22.475
		c7.455,0,15.019,0,23.094,0C1149.003,183.905,1149.098,191.225,1148.434,198.789z"/>
	<path style="fill:#43508F;" d="M1557.629,176.306c0,7.513,0,14.738,0,22.468c-7.807,0.001-15.509,0.941-23.385-0.565
		c-0.699-7.354-0.378-14.428-0.1-21.954C1541.999,175.819,1549.689,175.893,1557.629,176.306z"/>
	<path style="fill:#1CBBD2;" d="M285.299,219.002c4.961,9.148,12.082,16.359,21.41,20.469c0.587,3.224,0.494,5.606-0.36,8.058
		c-1.911,5.482-1.899,11.098-0.103,16.577c0.919,2.803,0.811,5.508,0.715,8.389c-4.354,3.171-9.211,5.395-13.129,9.039
		c-3.911,3.637-5.332,9.194-10.029,12.727c-10.178-3.588-20.55-3.712-30.636,0.003c-5.079-3.701-6.723-9.536-10.827-13.433
		c-3.986-3.785-9.646-5.198-13.549-9.718c3.489-9.888,3.715-19.914-0.282-30.297c9.496-5.494,18.1-11.61,22.411-21.517
		c2.917-0.531,5.303-0.758,7.479,0.073c6.337,2.42,12.703,2.018,19.024,0.321C279.742,219.072,281.978,219.032,285.299,219.002z"/>
</g>
</svg>
