<?xml version="1.0" encoding="iso-8859-1"?>
<!-- Generator: Adobe Illustrator 27.0.0, SVG Export Plug-In . SVG Version: 6.00 Build 0)  -->
<svg version="1.1" id="Layer_1" xmlns="http://www.w3.org/2000/svg" xmlns:xlink="http://www.w3.org/1999/xlink" x="0px" y="0px"
	 viewBox="0 0 1599.365 390.072" style="enable-background:new 0 0 1599.365 390.072;" xml:space="preserve">
<g>
	<path style="fill:#4C7B3A;" d="M242,0c0.443,1.325,1.591,0.911,2.504,0.972c28.683,1.906,56.693,7.281,83.677,17.225
		c26.413,9.733,50.84,23.119,71.954,41.981c16.742,14.956,30.127,32.445,37.83,53.725c11.794,32.581,8.176,63.725-9.76,93.246
		c-12.15,19.998-28.714,35.718-47.961,48.749c-23.484,15.899-49.277,26.606-76.795,34.088
		c-19.442-29.852-38.848-59.649-58.271-89.47c1.357-1.068,2.523-0.391,3.749,0.018c19.043,6.355,38.093,12.693,57.145,19.021
		c4.714,1.566,9.444,3.083,14.291,4.663c4.313-4.618,7.482-9.887,10.487-15.217c9.199-16.313,14.588-33.769,15.377-52.57
		c1.398-33.321-8.819-62.669-31.129-87.346c-19.864-21.971-44.782-35.047-74.266-39.285c-23.983-3.447-47.205-0.769-69.235,9.213
		c-36.454,16.516-60.608,44.083-69.893,83.178c-8.673,36.521-1.252,70.394,21.434,100.4c19.965,26.406,46.795,42.039,79.416,47.213
		c17.555,2.784,35.17,2.356,52.449-2.63c1.106-0.319,2.276-0.415,3.438-0.619c1.793,0.849,2.474,2.666,3.446,4.153
		c24.94,38.138,49.842,76.302,74.719,114.481c0.747,1.146,2.196,2.132,1.452,3.877c-0.606-0.234-1.261-0.386-1.81-0.715
		c-15.238-9.146-30.487-18.272-45.688-27.478c-30.973-18.758-61.942-37.522-92.855-56.379c-5.999-3.659-11.809-7.494-19.312-6.805
		c-0.95,0.087-1.942-0.417-2.927-0.56c-29.596-4.299-58.01-12.465-84.838-25.854c-23.753-11.854-45.062-26.906-62.235-47.396
		c-12.578-15.008-21.463-31.876-25.972-51.01C1.646,169.578,2.027,165.985,0,163c0-9.333,0-18.667,0-28
		c1.869-0.918,1.445-2.896,1.714-4.345c3.678-19.793,12.831-36.957,25.389-52.367c17.336-21.274,39.174-36.928,63.58-49.004
		c34.572-17.106,71.414-25.747,109.781-28.316C201.388,0.906,202.521,1.275,203,0c2,0,4,0,6,0c0.309,0.986,1.103,1.038,1.948,1.039
		c8.043,0.001,16.086,0.008,24.129,0.019C235.922,1.059,236.717,1.004,237,0C238.667,0,240.333,0,242,0z"/>
	<path style="fill:#8AA176;" d="M237,0c-0.283,1.004-1.078,1.059-1.923,1.058c-8.043-0.011-16.086-0.018-24.129-0.019
		c-0.846,0-1.639-0.053-1.948-1.039C218.333,0,227.667,0,237,0z"/>
	<path style="fill:#4C7B3B;" d="M931.065,96.559c21.206,0,42.128,0,63.614,0c0,9.907,0,19.612,0,30.11
		c4.881-4.11,8.938-7.739,13.213-11.088c13.119-10.278,27.528-18.025,44.039-21.186c10.359-1.983,20.852-2.013,31.345-0.965
		c6.794,0.678,13.449,1.982,19.959,4.073c17.269,5.546,29.17,16.811,35.67,33.683c3.668,9.52,5.392,19.474,6.191,29.647
		c1.477,18.803,0.7,37.627,0.807,56.44c0.144,25.322,0.036,50.645,0.036,75.967c0,1.651,0,3.302,0,5.294
		c-22.267,0-44.302,0-66.844,0c0-1.86,0.001-3.648,0-5.436c-0.031-34.818,0.032-69.637-0.147-104.454
		c-0.062-12.15-1.001-24.252-4.792-35.95c-5.354-16.52-16.434-24.608-33.773-24.823c-9.281-0.115-17.818,1.875-25.122,7.864
		c-5.684,4.661-9.422,10.734-11.937,17.523c-3.134,8.461-4.663,17.277-5.431,26.268c-0.795,9.312-0.73,18.618-0.691,27.948
		c0.118,28.487,0.042,56.975,0.042,85.463c0,1.652,0,3.304,0,4.875c-3.67,1.047-58.443,1.363-66.179,0.418
		C931.065,231.216,931.065,164.163,931.065,96.559z"/>
	<path style="fill:#4C7B3B;" d="M611.298,97.229c22.365,0,44.284,0,66.495,0c0,67.099,0,134.147,0,201.483
		c-21.192,0-42.417,0-63.966,0c0-9.558,0-18.994,0-28.27c-1.797-0.953-2.416,0.42-3.196,1.089c-4.8,4.117-9.511,8.322-14.504,12.229
		c-13.137,10.278-27.665,16.849-44.439,18.478c-17.18,1.668-33.886,0.089-49.959-6.296c-10.666-4.237-19.952-10.524-27.138-19.701
		c-5.687-7.262-8.95-15.559-10.413-24.507c-1.722-10.532-2.125-21.179-1.546-31.857c0.198-3.656,0.115-7.329,0.115-10.995
		c0.006-35.323,0.003-70.646,0.003-105.969c0-1.812,0-3.624,0-5.759c22.326,0,44.386,0,66.515,0
		c0.956,1.733,0.469,3.602,0.471,5.378c0.036,36.656,0.02,73.312,0.038,109.968c0.004,8.657-0.075,17.354,2.213,25.791
		c4.143,15.279,12.946,26.199,29.234,29.17c9.283,1.693,18.659,1.202,27.446-2.606c11.484-4.976,17.375-14.561,20.142-26.281
		c1.375-5.823,2.25-11.765,2.262-17.786c0.078-39.321,0.153-78.642,0.229-117.963C611.301,101.03,611.298,99.234,611.298,97.229z"/>
	<path style="fill:#4C7B3B;" d="M730.624,141.086c-4.504-6.87-8.772-13.38-13.178-20.102c6.012-5.501,12.672-9.529,19.729-12.783
		c27.979-12.902,57.347-17.577,88-14.493c16.695,1.68,32.752,5.529,47.498,13.757c10.276,5.734,18.506,13.548,22.967,24.741
		c2.498,6.267,3.338,12.839,3.336,19.549c-0.007,34.663-0.249,69.328,0.124,103.987c0.138,12.805,0.507,25.615,0.493,38.427
		c-0.002,1.607,0.51,3.328-0.733,5.058c-11.452-0.756-23.094,0.61-34.627-2.003c-13.77-3.119-24.477-10.016-30.795-22.971
		c-0.215-0.441-0.548-0.824-1.007-1.5c-4.01,5.007-8.015,9.838-13.093,13.681c-17.302,13.095-36.83,17.733-58.211,15.838
		c-9.326-0.827-18.422-2.421-27.108-6.079c-24.836-10.461-34.231-30.401-32.599-54.432c0.718-10.566,4.174-20.211,11.639-27.983
		c6.307-6.567,13.99-11.197,22.367-14.688c14.317-5.966,29.354-9.513,44.385-13.031c10.018-2.345,20.185-4.034,30.089-6.902
		c4.329-1.254,8.425-3.034,12.507-4.887c6.276-2.85,9.111-8.014,9.619-14.599c0.871-11.292-4.257-20.01-12.525-26.945
		c-12.076-10.128-26.005-13.955-41.807-12.181c-14.557,1.634-27.8,6.278-39.781,14.592
		C735.472,136.83,733.288,138.895,730.624,141.086z M832.469,190.097c-0.805-0.401-1.653-0.285-2.411,0.004
		c-14.117,5.377-28.61,9.739-42.49,15.751c-7.776,3.368-12.986,9.147-15.612,17.161c-3.068,9.365-3.592,19.003-1.673,28.596
		c2.043,10.21,8.08,16.877,18.714,18.893c3.833,0.727,7.646,0.579,11.449,0.324c16.118-1.083,26.631-9.886,30.366-25.512
		c1.315-5.5,2.054-11.126,2.062-16.81c0.017-11.666,0.013-23.332-0.005-34.997C832.868,192.362,833.128,191.166,832.469,190.097z"/>
	<path style="fill:#4C7B3B;" d="M1380.572,198.251c-46.191,0-91.951,0-137.256,0c-0.992,0.927-1.05,1.598-1.048,2.262
		c0.046,12.528,1.103,24.875,5.513,36.784c7.686,20.754,22.607,32.816,44.136,36.654c24.28,4.328,46.893-0.75,68.029-13.11
		c1.004-0.587,1.977-1.229,2.965-1.844c0.983-0.612,1.966-1.224,2.858-1.779c1.381,0.091,2.256,0.915,3.207,1.537
		c0.947,0.62,2.058,1.069,2.784,2.363c-3.199,6.959-6.546,13.997-9.647,21.142c-0.84,1.936-2.364,2.72-3.93,3.573
		c-12.494,6.801-25.789,11.344-39.721,14.142c-16.991,3.412-34.008,3.25-51.159,1.226c-15.667-1.85-30.673-5.708-44.732-12.889
		c-23.433-11.97-39.178-30.578-46.569-55.81c-7.304-24.935-8.569-50.058-0.03-75.068c7.918-23.189,23.143-40.092,44.78-51.28
		c13.75-7.11,28.53-10.713,43.87-12.309c17.539-1.825,34.93-1.049,52.052,3.188c34.017,8.419,56.31,31.067,62.425,66.608
		C1381.03,174.874,1381.158,186.113,1380.572,198.251z M1242.663,177.739c23.996,0,47.537,0,71.421,0
		c-0.057-15.247-1.104-30.061-6.183-44.331c-1.625-4.565-3.869-8.819-6.956-12.58c-3.593-4.377-8.089-7.673-13.678-8.509
		c-10.955-1.639-20.798,0.897-28.666,9.219c-4.413,4.668-7.467,10.152-9.587,16.165
		C1244.491,150.529,1242.898,163.83,1242.663,177.739z"/>
	<path style="fill:#4C7B3B;" d="M1458.747,206.02c-24.213-37.268-49.795-72.9-74.989-109.486c26.635,0,52.553,0,78.893,0
		c13.761,21.445,26.89,43.568,41.703,65.01c17.41-21.421,34.256-42.667,50.177-64.929c14.069,0,28.152,0,43.253,0
		c-13.581,14.573-26.755,28.523-39.715,42.667c-13.035,14.226-25.858,28.646-38.799,43.01
		c25.903,39.406,53.262,77.269,80.094,116.261c-26.669,0-52.688,0-79.319,0c-14.982-23.595-30.198-47.561-45.649-71.895
		c-18.314,23.599-36.075,47.269-53.615,71.279c-12.575,0-25.155,0-38.635,0C1407.942,266.991,1433.66,236.961,1458.747,206.02z"/>
	<path style="fill:#4C7B3A;" d="M339.021,390.072c-0.365-0.372-0.731-0.743-1.096-1.115
		C339.003,388.628,338.974,389.388,339.021,390.072z"/>
</g>
</svg>
