<?xml version="1.0" encoding="iso-8859-1"?>
<!-- Generator: Adobe Illustrator 27.0.0, SVG Export Plug-In . SVG Version: 6.00 Build 0)  -->
<svg version="1.1" id="Layer_1" xmlns="http://www.w3.org/2000/svg" xmlns:xlink="http://www.w3.org/1999/xlink" x="0px" y="0px"
	 viewBox="0 0 1445 376.132" style="enable-background:new 0 0 1445 376.132;" xml:space="preserve">
<g>
	<path style="fill:#EB3E45;" d="M0.839,143.959c10.698-18.762,19.41-38.624,31.17-56.79c7.784-12.025,16.229-23.582,26.459-33.708
		c3.805-3.766,8.01-7.051,12.705-9.613c11.984-6.539,23.856-6.032,35.544,0.868c8.308,4.905,14.944,11.693,20.932,19.093
		c10.892,13.463,18.106,28.966,24.4,44.959c11.323,28.774,19.745,58.461,27.938,88.225c8.676,31.519,16.916,63.17,27.912,93.998
		c4.916,13.783,10.922,27.068,17.884,39.967c7.006,12.982,16.426,23.761,27.836,32.939c1.297,1.043,2.585,2.099,3.851,3.179
		c0.238,0.203,0.352,0.551,0.658,1.054c-1.64,1.153-3.502,0.635-5.204,0.636c-67.165,0.032-134.33,0.027-201.495,0.027
		c-16,0-31.999-0.007-47.999,0.013c-1.144,0.001-2.337-0.304-3.429,0.324c0-0.667,0-1.333,0-2c1.856-1.398,0.897-3.389,0.898-5.059
		c0.059-71.209,0.051-142.418,0.046-213.626C0.944,146.95,0.876,145.454,0.839,143.959z"/>
	<path style="fill:#F28B7B;" d="M0.839,143.959c0.037,1.496,0.105,2.991,0.105,4.487c0.005,71.209,0.013,142.418-0.046,213.626
		c-0.001,1.67,0.958,3.662-0.898,5.059c0-74.333,0-148.667,0-223C0.266,144.007,0.546,143.949,0.839,143.959z"/>
	<path style="fill:#2E7FC1;" d="M1445,364.132c-1.787,0.664-2.665,2.388-4.074,3.495c-2.608,2.048-5.437,1.677-7.893-1.051
		c-2.258-2.507-2.395-5.302-0.376-7.642c2.712-3.141,5.839-3.341,9.182-0.821c1.194,0.9,1.554,2.608,3.161,3.019
		C1445,362.132,1445,363.132,1445,364.132z"/>
	<path style="fill:#6094CC;" d="M0,2.132C0.33,2.23,0.656,2.217,0.977,2.091C0.99,34.134,1.003,66.177,1.016,98.22
		C0.927,98.803,0.54,99.052,0,99.132C0,66.798,0,34.465,0,2.132z"/>
	<path style="fill:#97B3DC;" d="M1445,198.132l-0.469-0.021l-0.464,0.073c0.021-14.715,0.042-29.43,0.063-44.144
		c0.29,0.029,0.58,0.059,0.87,0.092C1445,168.798,1445,183.465,1445,198.132z"/>
	<path style="fill:#6094CC;" d="M1218.64,375.042c0.12,0.363,0.24,0.726,0.36,1.089c-3.333,0-6.667,0-10,0
		c-0.002-0.332-0.005-0.665-0.007-0.997C1212.209,375.104,1215.424,375.073,1218.64,375.042z"/>
	<path style="fill:#177ABE;" d="M368.884,0.473c0,1.764-0.001,3.087,0,4.41c0.038,30.49,0.078,60.98,0.113,91.47
		c0.04,34.656,0.026,69.312,0.17,103.967c0.021,4.977-1.019,9.579-3.234,13.909c-8.012,15.667-15.359,31.674-24.235,46.9
		c-9.313,15.977-19.561,31.285-31.685,45.28c-3.95,4.559-8.586,8.402-13.717,11.532c-13.997,8.536-29.627,6.947-42.906-2.902
		c-11.141-8.263-19.561-18.93-26.768-30.622c-9.99-16.208-16.899-33.783-22.683-51.837c-10.367-32.357-19.524-65.074-28.984-97.701
		c-6.09-21.004-12.065-42.048-18.986-62.798c-5.578-16.725-12.245-32.989-21.971-47.82c-3.927-5.988-8.179-11.73-13.168-16.902
		c-2.663-2.761-2.616-2.806-2.552-6.888C201.638,0.473,285.006,0.473,368.884,0.473z"/>
	<path style="fill:#EB3D44;" d="M397.541,282.549c0.816,1.722-0.198,3.616,0.858,5.57c2.636-3.846,6.429-4.431,10.604-4.083
		c1.987,0.165,3.995,0.092,5.994,0.092c334.968,0.003,669.935,0.002,1004.903,0.017c4.15,0,8.297-0.093,12.421,0.841
		c3.882,0.879,6.047,3.024,6.786,6.934c0.998,5.28,0.969,10.531,0.354,15.829c-0.66,0.212-1.111,0.477-1.566,0.485
		c-11.314,0.203-22.629,0.53-33.944,0.537c-180.312,0.099-360.624,0.161-540.935,0.223c-151.817,0.052-303.634,0.095-455.451,0.132
		c-2.485,0.001-4.945,0.078-7.404-0.755c-3.067-1.038-4.91-3.093-5.026-6.138c-0.197-5.146-0.057-10.315,0.207-15.461
		C395.419,285.263,395.676,283.405,397.541,282.549z"/>
	<path style="fill:#167ABF;" d="M1324.076,0.485c0,19.578,0.025,38.884-0.014,58.191c-0.013,6.47-2.162,8.67-8.754,8.682
		c-13.662,0.025-27.325-0.114-40.987-0.182c-1.332-0.007-2.676-0.094-3.995,0.044c-2.734,0.287-4.626,1.7-5.373,4.441
		c-0.131,0.481-0.3,0.962-0.349,1.453c-0.687,6.957-1.029,13.905,0.247,20.846c0.747,4.064,3.028,6.455,7.103,7.309
		c1.796,0.376,3.552,0.771,5.404,0.771c6.665,0,13.33,0.068,19.995,0.089c2.996,0.009,5.954,0.213,8.907,0.836
		c5.091,1.075,7.285,3.098,7.739,8.264c0.391,4.456,0.985,8.893,0.934,13.404c-0.117,10.329,0.028,20.662,0.059,30.993
		c0.003,0.999,0.048,2.013-0.101,2.994c-0.579,3.802-2.443,5.578-6.308,5.714c-3.326,0.117-6.661-0.079-9.993-0.085
		c-8.662-0.015-17.325-0.047-25.987,0.017c-5.899,0.043-8.214,2.355-8.341,8.092c-0.096,4.329-0.194,8.659-0.254,12.989
		c-0.03,2.165-0.029,4.334,0.049,6.498c0.344,9.44,3.82,13.242,13.198,14.127c3.474,0.328,6.992,0.184,10.489,0.278
		c5.142,0.137,10.275-0.162,15.431,0.521c3.578,0.474,7.263,0.53,10.922-0.375c2.053-0.508,4.317-0.331,6.472-0.215
		c3.681,0.198,5.07,1.536,5.503,5.125c0.179,1.483,0.179,2.993,0.18,4.491c0.012,15.998,0.018,31.996,0.003,47.994
		c-0.007,7.485-1.1,8.595-8.78,8.589c-25.662-0.02-51.324-0.089-76.985-0.136c-3.163-0.006-6.334,0.141-9.488-0.028
		c-4.822-0.259-6.212-1.645-6.231-6.475c-0.059-15.164,0.001-30.328,0.023-45.493c0.002-1.499,0.09-2.997,0.091-4.496
		c0.042-64.158,0.08-128.316,0.116-192.473c0.004-7.481,0-14.962,0-22.794C1257.969,0.485,1290.693,0.485,1324.076,0.485z"/>
	<path style="fill:#177BBF;" d="M446.772,2.172c5.636,0.349,11.289,0.53,16.904,1.083c9.721,0.957,16.901,6.583,23.065,13.544
		c7.673,8.666,12.002,19.05,14.221,30.318c3.736,18.965,5.389,38.128,5.307,57.455c-0.122,28.774-0.183,57.549-0.272,86.324
		c-0.008,2.496-0.106,4.956-0.762,7.418c-1.072,4.02-1.472,8.143-1.258,12.323c0.093,1.824-0.206,3.607-0.668,5.415
		c-2.282,8.938-3.394,18.173-7.589,26.602c-7.655,15.384-18.779,26.262-36.289,29.65c-13.255,2.565-24.86-1.894-36.248-7.684
		c-0.855-0.435-1.535-1.252-2.232-1.956c-8.364-8.457-13.946-18.454-16.938-29.984c-2.633-10.143-4.424-20.378-5.362-30.835
		c-0.641-7.146-0.694-14.279-0.874-21.416c-0.509-20.302-0.842-40.606-0.841-60.918c0.001-12.823,0.558-25.627,1.309-38.4
		c0.787-13.381,1.498-26.874,5.748-39.792c4.452-13.533,10.835-25.742,23.473-33.556C433.377,4.107,439.673,1.77,446.772,2.172z
		 M466.888,137.177c0.022,0,0.044,0,0.066,0c0-7.661,0.097-15.323-0.021-22.982c-0.208-13.464,0.731-26.956-0.914-40.388
		c-0.646-5.28-1.611-10.516-3.539-15.467c-1.601-4.11-4.585-6.839-9.267-7.288c-4.743-0.455-8.42,1.102-11.009,5.228
		c-1.711,2.726-2.746,5.646-3.257,8.792c-2.004,12.329-2.135,24.811-2.579,37.228c-1.082,30.278-0.127,60.561,0.829,90.833
		c0.168,5.304,0.496,10.574,1.586,15.8c0.557,2.671,1.714,5.003,2.927,7.361c2.283,4.44,6.044,6.781,10.907,6.454
		c5.06-0.341,8.698-3.264,10.29-8.153c2.372-7.284,3.797-14.835,3.901-22.459C467.057,173.819,466.888,155.497,466.888,137.177z"/>
	<path style="fill:#177BBF;" d="M1444.13,154.04c-0.021,14.715-0.042,29.43-0.063,44.144c-1.562,16.637-5.373,32.773-12.143,48.024
		c-7.365,16.59-21.072,24.127-38.773,25.018c-12.606,0.635-23.658-2.85-32.164-12.683c-4.924-5.692-8.935-11.969-11.98-18.859
		c-3.175-7.182-5.126-14.662-6.095-22.471c-0.421-3.39-2.113-6.558-2.467-10.059c-0.52-5.14-1.124-10.278,0.228-15.352
		c1.653-6.201,5.403-9.229,11.705-9.679c6.524-0.466,12.94,0.256,19.252,1.912c3.833,1.006,5.144,2.333,5.198,6.186
		c0.068,4.866,1.991,9.076,4.256,13.111c5.102,9.088,18.491,9.341,22.736,1.164c4.273-8.231,4.667-17.022-1.281-25.41
		c-3.989-5.625-9.661-9.035-15.697-11.899c-4.503-2.137-9.016-4.22-13.223-6.916c-15.795-10.124-25.387-24.545-29.615-42.688
		c-2.084-8.941-2.682-18.056-2.956-27.187c-0.46-15.322-0.098-30.63,4.056-45.5c3.191-11.422,7.476-22.483,16.377-30.881
		c4.435-4.184,8.878-8.523,15.033-10.345c2.082-0.616,3.739-2.124,5.395-3.537c4.917,0,9.746,0.041,14.573-0.025
		c1.397-0.019,2.603,0.341,3.784,1.009c7.783,4.404,15.368,8.808,22.322,14.786c12.044,10.354,16.305,23.637,18.497,38.34
		c1.085,7.28,0.598,14.627,1.172,21.903c0.402,5.098-2.743,7.6-6.343,8.846c-3.503,1.212-7.16,1.352-10.842,1.149
		c-6.398-0.352-12.453-1.98-18.024-5.124c-3.224-1.82-5.831-4.391-7.587-7.74c-0.694-1.323-1.501-2.587-2.278-3.864
		c-1.787-2.937-4.198-4.735-7.827-3.973c-4.046,0.85-6.9,3.826-7.365,7.794c-0.517,4.413,0.152,8.526,2.814,12.327
		c4.332,6.184,10.158,10.455,16.758,13.809c6.524,3.316,12.987,6.666,18.789,11.241c12.011,9.47,19.123,21.883,22.598,36.569
		C1443.484,149.433,1443.744,151.751,1444.13,154.04z"/>
	<path style="fill:#177BBF;" d="M1020.985,0.283c13.672,0,26.965,0,40.833,0c-0.218,6.395,1.192,12.507,2.136,18.688
		c1.801,11.803,3.495,23.622,5.318,35.421c1.518,9.829,3.109,19.647,4.756,29.455c2.14,12.747,4.396,25.474,6.549,38.219
		c1.85,10.945,3.695,21.893,5.417,32.859c1.98,12.612,4.253,25.202,5.576,37.887c0.901,8.635,3.195,16.919,4.791,25.368
		c0.964,5.102,0.518,10.258,1.558,15.345c2.057,10.064,3.721,20.209,5.552,30.319c0.147,0.814,0.411,1.614,0.488,2.433
		c0.452,4.834-0.511,5.94-5.399,5.955c-6.832,0.021-13.668,0.08-20.494-0.125c-8.474-0.255-12.175-3.214-13.976-11.373
		c-1.249-5.66-1.887-11.453-3.008-17.145c-1.055-5.357-3.242-7.174-8.466-7.297c-6.492-0.153-12.987-0.187-19.481-0.271
		c-0.5-0.006-1-0.009-1.5,0.001c-8.869,0.18-12.785,3.759-13.513,12.544c-0.219,2.65-0.209,5.334-0.092,7.993
		c0.141,3.206-0.512,6.304-1.159,9.376c-0.88,4.178-3.325,6.016-7.746,6.312c-4.469,0.3-8.938,0.613-13.411,0.845
		c-1.827,0.094-3.667,0.046-5.496-0.037c-9.373-0.426-11.332-2.539-11.351-11.72c-0.014-6.699,1.583-13.178,2.556-19.73
		c1.997-13.449,4.376-26.84,6.605-40.254c1.902-11.442,3.878-22.873,5.705-34.327c2.167-13.589,4.159-27.206,6.323-40.795
		c1.798-11.289,4.011-22.519,5.538-33.843c1.574-11.675,4.559-23.105,6.013-34.755c1.562-12.516,3.149-25.014,5.389-37.423
		C1018.173,13.681,1019.591,7.2,1020.985,0.283z M1041.761,95.055c-2.815,0.236-2.473,1.812-2.621,3.032
		c-0.459,3.782-0.809,7.578-1.324,11.352c-1.545,11.308-3.064,22.621-4.753,33.908c-1.491,9.966-1.779,20.117-4.489,29.895
		c-0.63,2.274-0.083,4.099,2.059,4.932c6.421,2.498,12.922,2.733,19.364-0.01c1.852-0.789,2.988-2.233,2.595-4.318
		c-1.809-9.607-2.747-19.33-4.003-29.012c-1.17-9.023-2.441-18.032-3.679-27.046C1043.879,110.278,1042.83,102.769,1041.761,95.055z
		"/>
	<path style="fill:#177BBF;" d="M839.766,82.364c-3.496,0-6.995,0.096-10.487-0.02c-7.24-0.242-10.133-2.907-11.169-10.102
		c-0.189-1.311-0.122-2.701-0.542-3.928c-2.033-5.94-6.753-8.169-12.419-7.965c-5.524,0.198-9.111,3.58-10.017,9.32
		c-0.487,3.087-1.377,6.169-0.857,9.385c0.883,5.462,3.205,10.059,7.587,13.577c5.084,4.081,10.569,7.472,16.47,10.244
		c11.038,5.186,20.359,12.544,27.555,22.439c6.671,9.174,10.51,19.523,12.138,30.694c2.068,14.195,2.634,28.497,1.879,42.793
		c-0.873,16.535-4.281,32.563-11.969,47.399c-5.179,9.992-12.155,18.375-23.221,22.178c-22.838,7.849-42.179,1.232-53.793-18.339
		c-7.57-12.756-11.77-26.581-14.091-41.146c-0.813-5.102-0.535-10.28-1.659-15.332c-0.282-1.268-0.169-2.674,0.006-3.984
		c0.472-3.532,2.336-5.311,5.946-5.478c3.491-0.161,6.997,0.016,10.492-0.099c3.477-0.115,6.94-0.09,10.428-0.621
		c7.552-1.151,12.043,2.06,13.973,9.499c0.747,2.881,1.184,5.838,2.539,8.553c2.006,4.02,4.941,6.847,9.644,6.634
		c4.91-0.222,9.071-2.195,11.262-6.945c3.623-7.857,2.216-14.476-3.155-21.211c-7.243-9.082-17.133-14.559-26.723-20.438
		c-9.409-5.767-17.293-12.908-22.529-22.74c-3.382-6.35-5.173-13.158-6.625-20.201c-2.835-13.749-4.282-27.54-3.558-41.569
		c0.361-6.985,1.477-13.836,2.929-20.66c1.343-6.315,2.178-12.74,4.231-18.898c4.7-14.094,13.496-24.601,27.024-31.011
		c2.146-1.017,4.294-1.603,6.707-1.554c5.495,0.111,11.001,0.203,16.49-0.023c3.839-0.158,7.176,0.998,10.424,2.767
		c11.31,6.158,18.775,15.568,23.448,27.434c3.612,9.172,5.294,18.783,6.847,28.433c0.737,4.58,1.516,9.168,1.92,13.783
		c0.516,5.892-0.665,7.037-6.634,7.148c-3.495,0.065-6.992,0.012-10.489,0.012C839.766,82.382,839.766,82.373,839.766,82.364z"/>
	<path style="fill:#167ABF;" d="M907.392,269.419c-1.517-3.929-1.501-7.598-1.497-11.256c0.054-61.158,0.119-122.316,0.167-183.475
		c0.001-1.493,0.063-3.05-0.317-4.466c-0.729-2.72-3.318-4.395-6.61-3.997c-5.454,0.66-10.905,1.02-16.395,1.229
		c-7.127,0.272-10.965-1.533-11.609-11.442c-0.539-8.299-0.238-16.655-0.227-24.986c0.009-6.997,0.289-13.998,0.143-20.99
		c-0.065-3.136,1.867-6.177-0.391-9.619c37.473,0,74.219,0,111.228,0c0,3.535-0.014,6.973,0.002,10.411
		c0.07,14.663,0.151,29.326,0.223,43.989c0.048,9.735-4.824,14.159-14.599,13.158c-2.802-0.287-5.622-0.643-8.359-1.284
		c-4.972-1.165-9.178,0.042-13.154,3.723c0,3.611-0.012,7.425,0.002,11.238c0.03,8.164,0.096,16.329,0.107,24.493
		c0.058,42.16-0.083,84.322,0.289,126.479c0.088,9.966,0.386,19.949,0.48,29.926c0.013,1.328,0.065,2.684-0.161,3.982
		c-0.804,4.616-2.308,5.846-7.101,5.707c-6.156-0.179-12.263,0.007-18.416,0.632C916.438,273.355,911.607,272.4,907.392,269.419z"/>
	<path style="fill:#167ABF;" d="M1101.3,65.304c-2.717-21.609-0.889-43.168-0.753-64.91c36.648,0,73.386,0,110.444,0
		c-0.391,21.833,1.552,43.437-1.15,65.183c-7.174,2.597-14.47,1.708-21.696,1.145c-2.017-0.157-3.891-0.302-5.872,0.235
		c-4.547,1.233-6.167,2.875-6.283,7.636c-0.178,7.329-0.101,14.664-0.102,21.997c-0.005,51.831-0.005,103.661,0.002,155.492
		c0.001,3.999-0.106,8.01,0.153,11.994c0.338,5.204-2.409,8.176-7.583,8.294c-7.452,0.17-14.871,1.224-22.354-0.084
		c-5.302-0.927-7.824-2.993-9.238-8.26c-1.189-4.429-0.955-8.921-0.955-13.395c0.002-56.665,0.052-113.329,0.089-169.994
		c0.001-1.5-0.001-3-0.018-4.5c-0.068-6.364-3.279-10.182-11.541-9.517c-7.303,0.587-14.573,1.329-21.791-0.577
		C1102.343,65.961,1102.073,65.733,1101.3,65.304z"/>
	<path style="fill:#167ABF;" d="M600.561,2.43c13.176-0.752,26.074,0.419,39.699,0.599c0,6.358,0,12.472,0,18.586
		c0,59.32,0.012,118.639-0.035,177.959c-0.002,2.852,0.314,5.637,0.802,8.411c0.773,4.384,3.287,6.774,7.746,7.083
		c4.143,0.287,8.277,0.074,12.432-0.5c4.921-0.681,9.841-1.594,14.86-1.439c8.308,0.256,14.254,4.651,14.111,13.855
		c-0.09,5.818-0.003,11.617-0.806,17.423c-0.498,3.603-0.195,7.316-0.26,10.979c-0.044,2.498,0.053,5.011-0.189,7.491
		c-0.444,4.553-2.807,6.865-7.367,7.274c-2.484,0.223-4.992,0.229-7.489,0.232c-17.329,0.018-34.659-0.006-51.988,0.023
		c-3.48,0.006-6.985-0.333-10.427,0.568c-0.625,0.164-1.327,0.042-1.993,0.043c-8.184,0.006-9.915-1.698-9.911-9.913
		c0.042-72.814,0.096-145.629,0.143-218.443c0.008-11.497-0.017-22.995,0.02-34.492C599.914,6.374,599.529,4.518,600.561,2.43z"/>
	<path style="fill:#167ABF;" d="M530.002,3.079c13.634,0,26.578,0,39.409,0c1.093,1.546,0.675,3.092,0.68,4.543
		c0.079,19.65,0.075,39.3,0.185,58.95c0.062,11.132,0.434,22.281,0.353,33.391c-0.213,29.451-0.826,58.912-0.215,88.351
		c0.483,23.297,0.241,46.585,0.452,69.876c0.097,10.722-2.081,12.751-12.784,12.852c-5.49,0.052-10.941-0.304-16.403-0.78
		c-7.503-0.654-11.043-4.027-11.649-11.628c-0.251-3.149-0.281-6.322-0.279-9.484c0.034-63.117,0.083-126.235,0.141-189.352
		c0.016-17.319,0.072-34.638,0.109-51.957C530.005,6.37,530.002,4.898,530.002,3.079z"/>
	<path style="fill:#EA3F45;" d="M298.163,367.76c5.552-4.272,10.77-8.33,15.539-12.917c12.358-11.886,21.98-25.73,29.727-40.979
		c8.449-16.63,14.544-34.175,20.541-51.768c1.118-3.28,2.262-6.551,3.4-9.846c1.715,0.537,1.375,1.898,1.458,2.913
		c0.204,2.485,0.298,4.985,0.3,7.479c0.021,21.646-0.04,43.292,0.036,64.937c0.033,9.475,0.332,18.948,0.494,28.423
		c0.023,1.33,0.078,2.678-0.094,3.99c-0.777,5.907-3.235,8.243-9.203,8.251c-20.146,0.026-40.291-0.068-60.437-0.13
		C299.497,368.112,299.069,367.947,298.163,367.76z"/>
	<path style="fill:#187CBF;" d="M1.016,98.22C1.003,66.177,0.99,34.134,0.977,2.091C2.124-0.578,4.557,0.07,6.596,0.067
		C15.08,0.056,23.563,0.2,32.047,0.235C40.52,0.27,48.993,0.243,57.886,0.243c-3.387,3.15-6.588,5.968-9.612,8.965
		c-9.762,9.678-16.892,21.275-23.922,32.951C17.544,53.466,13.598,65.966,9.11,78.242c-1.987,5.435-3.855,10.915-5.75,16.384
		C2.873,96.03,2.608,97.549,1.016,98.22z"/>
	<path style="fill:#247DC0;" d="M1044.615,346.286c-2.375,1.187-2.951,3.228-2.823,5.466c0.221,3.848-0.473,7.604-0.913,11.385
		c-0.418,3.589-1.854,4.925-5.02,4.887c-3.435-0.041-5.383-1.638-5.892-4.844c-0.052-0.328-0.063-0.664-0.063-0.997
		c-0.003-11.65-0.003-23.3-0.003-34.739c5.543-4.158,11.042-3.376,14.797,1.93c3.927,5.55,7.787,11.146,11.783,16.875
		c3.38-2.783,3.855-6.239,3.104-9.99c-0.568-2.834-0.85-5.59,0.692-8.554c2.871-1.375,5.819-3.32,9.667-2.228
		c1.399,2.549,1.792,5.288,1.809,8.113c0.052,8.66,0.086,17.321,0.148,25.981c0.019,2.59-0.438,5.052-2.493,6.79
		c-4.27,3.612-8.132,3.986-11.744-1.286c-3.943-5.756-7.818-11.558-11.742-17.327
		C1045.557,347.212,1045.054,346.771,1044.615,346.286z"/>
	<path style="fill:#1E7CBF;" d="M1318.891,365.933c-1.167-12.942-0.664-25.964-0.36-38.53c6.155-3.939,11.422-2.998,15.427,2.367
		c3.772,5.052,7.375,10.23,11.062,15.346c0.751,1.042,1.246,2.363,3.089,2.751c0-4.219-0.001-8.332,0.001-12.444
		c0.001-1.664-0.102-3.337,0.036-4.989c0.344-4.116,1.934-5.467,6.15-5.412c4.2,0.055,5.728,1.383,5.769,5.692
		c0.098,10.314,0.087,20.631-0.023,30.945c-0.05,4.67-3.28,7.082-7.982,6.278c-3.328-0.569-5.715-2.556-7.608-5.199
		c-2.512-3.509-4.944-7.075-7.439-10.597c-1.44-2.032-3.097-3.849-5.231-5.089c-2.059,1.285-1.854,3.234-1.916,4.995
		c-0.093,2.655,0.038,5.317,0.02,7.976C1329.835,367.615,1327.141,369.311,1318.891,365.933z"/>
	<path style="fill:#247DC0;" d="M473.706,346.267c0.277-3.775,1.587-7.138,0.728-10.887c-0.663-2.892-0.432-5.95,1.044-8.609
		c1.615-1.688,3.6-1.8,5.625-1.712c3.475,0.15,4.805,1.401,4.996,4.824c0.102,1.825,0.094,3.664,0.01,5.492
		c-0.337,7.315,0.478,14.593,0.644,21.891c0.015,0.665,0.009,1.332,0.001,1.997c-0.068,5.686-0.998,7.5-4.338,8.474
		c-4.195,1.223-9.139-0.854-11.435-4.89c-3.62-6.364-8.453-11.836-12.614-17.763c-2.788,0.888-2.626,2.962-2.607,4.949
		c0.037,3.994,0.182,7.989,0.117,11.98c-0.081,4.956-4.104,7.33-8.513,5.192c-1.495-0.725-2.342-1.782-2.438-3.444
		c-0.637-11.098-1.658-22.187,0.057-33.291c0.936-6.063,4.414-7.878,9.841-4.935c1.937,1.05,3.567,2.439,4.828,4.242
		c2.95,4.218,5.946,8.407,8.799,12.69C469.695,344.335,471.146,345.695,473.706,346.267z"/>
	<path style="fill:#1E7CBF;" d="M951.108,346.164c0.01-11.575,10.118-22.42,21.372-21.904c13.8,0.633,23.846,8.876,24.099,23.915
		c0.203,12.058-9.517,19.94-22.541,20.5C961.33,369.223,951.097,358.819,951.108,346.164z M963.315,349.636
		c7.494,5.998,13.433,5.962,21.373-0.099c0.17-3.849-0.502-7.63-2.128-11.087c-7.527-1.182-13.615,1.389-19.245,5.326
		C963.315,345.886,963.315,347.846,963.315,349.636z"/>
	<path style="fill:#217CC0;" d="M733.994,346.95c0-5.279-0.033-10.558,0.011-15.837c0.032-3.883,0.076-3.883,3.653-6.676
		c2.464,0.415,4.96,1.088,7.047,3.064c1.601,12.529,2.31,25.078,0.011,37.637c-5.213,4.127-9.064,3.913-13.301-0.925
		c-1.299-1.483-2.245-3.275-3.361-4.92c-1.023-1.508-1.932-3.116-3.112-4.492c-2.558-2.984-5.256-5.847-8.596-9.531
		c-0.505,5.105-0.936,9.273-1.318,13.445c-0.106,1.157-0.262,2.362-0.061,3.485c0.829,4.631-3.029,6.606-7.548,5.439
		c-2.732-0.705-3.605-2.498-3.568-5.182c0.091-6.655-0.164-13.32,0.101-19.966c0.164-4.122-1.205-8.151-0.119-12.345
		c1.115-4.307,2.493-5.651,6.894-5.066c2.511,0.334,4.977,1.183,6.522,3.236c2.898,3.85,5.823,7.642,9.186,11.119
		c1.345,1.391,2.159,3.329,3.078,5.089C730.426,346.268,731.477,347.573,733.994,346.95z"/>
	<path style="fill:#217CC0;" d="M652.615,356.187c-3.138,2.992-0.468,7.374-3.172,10.644c-0.992,0.286-2.228,0.826-3.51,0.977
		c-3.976,0.468-5.899-1.347-5.9-5.323c-0.001-7.979-0.103-15.959,0.008-23.936c0.033-2.38-0.789-4.57-0.923-6.882
		c-0.198-3.415,0.737-5.184,4-5.905c5.982-1.321,12.02-2.401,18.172-0.631c7.87,2.264,12.65,10.965,9.598,17.894
		c-0.864,1.961-2.222,3.612-3.873,5.097c-2.659,2.391-2.78,4.37-1.078,7.505c1.131,2.082,2.905,3.611,4.388,5.391
		c2.685,3.221,1.857,5.802-2.178,7.009c-4.073,1.218-7.739-0.109-9.743-3.922C656.844,361.133,655.021,358.46,652.615,356.187z
		 M654.201,346.983c2.975-2.217,5.475-4.731,5.504-8.902c-1.108-2.902-3.735-3.18-6.199-3.62
		C648.695,339.614,649.011,344.088,654.201,346.983z"/>
	<path style="fill:#1E7CBF;" d="M818.689,364.362c-3.714,4.702-7.791,5.089-11.775,1.159c-0.947-0.934-1.77-1.996-2.73-2.916
		c-4.032-3.868-7.989-4.167-12.439-0.844c-1.862,1.39-3.499,3.08-5.352,4.484c-2.376,1.8-4.943,2.688-7.87,1.111
		c-2.489-1.341-3.123-2.602-2.066-5.253c3.987-10.002,7.463-20.186,10.955-30.366c0.482-1.405,1.212-2.735,1.928-4.045
		c0.563-1.03,1.391-1.874,2.43-2.46c4.6-2.595,13.183,0.475,14.985,5.475c2.19,6.076,4.177,12.225,6.327,18.316
		C814.902,354.172,816.828,359.283,818.689,364.362z M796.848,338.761c-1.206,2.418-2.23,4.452-3.238,6.494
		c-1.138,2.306-0.373,4.237,1.423,5.736c1.508,1.258,3.409,1.737,4.979,0.249c1.625-1.54,2.408-3.527,1.428-5.84
		C800.468,343.103,799.434,340.855,796.848,338.761z"/>
	<path style="fill:#217CC0;" d="M1144.688,364.323c-3.598,4.776-7.691,5.133-11.707,1.13c-1.292-1.288-2.467-2.72-3.885-3.849
		c-3.645-2.901-7.072-2.956-10.884-0.21c-1.469,1.058-2.856,2.272-4.106,3.581c-3.858,4.04-6.87,4.279-11.639,0.75
		c-0.518-1.088-0.44-2.197-0.033-3.339c3.66-10.271,7.261-20.562,10.991-30.807c0.897-2.462,1.725-5.615,4.551-6.147
		c3.826-0.721,7.91-1.257,11.683,0.608c2.628,1.299,3.38,3.989,4.237,6.471c2.752,7.966,5.4,15.968,8.097,23.953
		C1142.889,359.116,1143.808,361.76,1144.688,364.323z M1123.174,335.148c-1.589,3.988-2.763,6.705-3.75,9.489
		c-0.751,2.117-0.857,4.354,0.789,6.118c1.735,1.859,3.854,1.548,6.172,0.442C1130.07,345.359,1125.486,341.085,1123.174,335.148z"
		/>
	<path style="fill:#217CC0;" d="M605.607,326.473c1.694,6.143,0.057,8.414-5.873,8.656c-1.656,0.068-3.315,0.047-4.971,0.117
		c-0.301,0.013-0.591,0.271-1.024,0.485c-1.343,1.497-1.004,3.196-0.426,5.032c3.698,1.641,8.313-0.932,11.393,2.806
		c0.112,0.405,0.336,0.874,0.362,1.354c0.3,5.412-1.481,7.142-7.029,6.601c-1.506-0.147-2.937-0.547-4.382,0.504
		c-1.089,1.228-0.95,2.608,0.019,4.506c4.237,1.358,10.445-0.79,13.007,5.43c-0.512,3.926-3.227,5.788-6.789,5.982
		c-4.964,0.27-9.973,0.151-14.938-0.18c-3.386-0.225-4.97-2.097-4.999-5.677c-0.083-10.137-0.131-20.279,0.122-30.412
		c0.137-5.491,2.346-7.308,7.798-7.551c4.999-0.223,9.92,0.586,14.86,1.105C603.666,325.328,604.534,325.991,605.607,326.473z"/>
	<path style="fill:#217CC0;" d="M1425.672,337.307c-2.673-0.725-4.716-1.326-6.782-1.83c-6.128-1.498-13.476,1.677-12.999,10.077
		c0.075,1.329-0.058,2.686,0.161,3.988c1.01,5.998,7.401,9.256,13.508,6.94c1.519-0.576,2.869-1.811,4.82-1.089
		c2.146,2.22,1.794,5.121,1.6,7.905c-0.141,2.029-1.585,3.16-3.431,3.85c-15.565,5.82-28.541-4.939-29.501-18.599
		c-0.833-11.85,5.09-20.692,15.553-23.712c4.249-1.226,8.53-1.09,12.748,0.289c3.884,1.269,4.682,2.369,4.634,6.547
		C1425.965,333.317,1425.807,334.96,1425.672,337.307z"/>
	<path style="fill:#247DC0;" d="M844.277,334.135c-0.4-1.244-0.909-2.32-1.077-3.447c-0.521-3.507,0.944-5.493,4.533-5.581
		c7.146-0.175,14.3-0.165,21.448-0.052c3.524,0.056,4.621,1.358,4.866,4.92c0.091,1.329,0.188,2.66-0.468,3.746
		c-0.879,1.139-2.052,1.164-3.185,1.449c-4.217,1.061-5.447,2.629-5.482,6.974c-0.052,6.319,0.062,12.639-0.038,18.956
		c-0.078,4.938-2.443,7.15-7.068,6.922c-3.557-0.175-5.446-1.978-5.534-5.645c-0.135-5.648-0.217-11.303-0.112-16.951
		C852.314,337.203,852.175,336.876,844.277,334.135z"/>
	<path style="fill:#1E7CBF;" d="M547.802,326.583c0.607,2.433,0.226,4.559,0.139,6.457c-0.859,1.306-2.043,1.515-3.112,1.905
		c-4.279,1.565-6.177,4.277-5.486,8.651c0.398,2.517,0.461,4.871-0.192,7.344c-0.509,1.929-0.384,3.991,0.194,5.914
		c0.44,1.463,0.601,2.932,0.606,4.418c0.015,4.166-1.475,5.745-5.582,5.951c-1.157,0.058-2.338,0.05-3.482-0.11
		c-2.412-0.338-3.958-1.598-3.996-4.227c-0.01-0.664-0.1-1.347,0.015-1.991c0.993-5.58-0.008-11.165,0.064-16.746
		c0.083-6.335-0.678-7.292-6.556-9.435c-0.62-0.226-1.2-0.563-1.901-0.897c-0.889-2.194-0.699-4.476-0.424-6.67
		c1.206-1.524,2.684-1.938,4.447-2.047C535.389,324.304,544.161,324.744,547.802,326.583z"/>
	<path style="fill:#1E7CBF;" d="M1199.268,357.388c1.795,1.264,1.826,2.512,2.082,3.613c0.818,3.529-0.432,5.886-3.875,6.835
		c-4.333,1.194-8.786,1.713-13.284,1.278c-3.643-0.352-6.101-2.341-7.321-5.808c-1.049-2.981-1.757-6.031-1.771-9.213
		c-0.034-7.805-0.029-15.611-0.125-23.416c-0.029-2.341,0.342-4.628,2.786-5.237c2.661-0.663,5.563-1.208,8.079,0.819
		c1.357,1.093,1.279,2.597,1.278,4.096c-0.001,5.647-0.009,11.295,0.002,16.942c0.015,7.698,2.036,9.79,9.553,9.949
		C1197.651,357.266,1198.63,357.352,1199.268,357.388z"/>
	<path style="fill:#2E7FC1;" d="M397.09,346.383c-0.001-4.991-0.072-9.984,0.018-14.974c0.103-5.662,5.109-8.575,10.053-5.921
		c0.906,0.486,1.567,1.234,1.835,2.256c0.377,1.439,0.813,2.837,0.804,4.382c-0.056,9.65,0.023,19.3-0.051,28.95
		c-0.033,4.297-1.558,6.233-5.001,6.893c-4.421,0.847-7.523-1.544-7.63-6.113C396.998,356.7,397.09,351.54,397.09,346.383z"/>
	<path style="fill:#217CC0;" d="M1283.118,346.181c0.001,5.326-0.229,10.665,0.074,15.974c0.239,4.193-2.598,5.822-6.318,5.856
		c-3.695,0.034-5.78-2-5.799-5.899c-0.048-10.318-0.043-20.638,0.053-30.956c0.051-5.442,4.955-8.207,9.71-5.576
		c1.79,0.991,2.334,2.611,2.305,4.624C1283.066,335.529,1283.117,340.855,1283.118,346.181z"/>
	<path style="fill:#217CC0;" d="M905.961,345.68c0-4.98-0.049-9.961,0.015-14.94c0.057-4.395,1.62-5.782,6.194-5.718
		c4.295,0.06,5.673,1.332,5.709,5.627c0.086,10.291-0.112,20.589,0.205,30.872c0.167,5.433-5.264,7.491-8.95,5.694
		c-2.465-1.201-3.259-3.075-3.245-5.603c0.029-5.311,0.009-10.622,0.009-15.933C905.918,345.68,905.939,345.68,905.961,345.68z"/>
	<path style="fill:#247DC0;" d="M1218.64,375.042c-3.215,0.031-6.431,0.061-9.646,0.092c0.598-4.654,2.54-8.904,4.174-13.217
		c2.107-5.56,5.839-6.516,11.994-3.06C1224,364.56,1220.855,369.631,1218.64,375.042z"/>
	<path style="fill:#EDF0F9;" d="M963.315,349.636c0-1.79,0-3.749,0-5.86c5.629-3.937,11.718-6.508,19.245-5.326
		c1.627,3.457,2.298,7.238,2.128,11.087C976.749,355.598,970.81,355.633,963.315,349.636z"/>
	<path style="fill:#EDF0F9;" d="M654.201,346.983c-5.189-2.895-5.506-7.37-0.695-12.522c2.464,0.44,5.091,0.718,6.199,3.62
		C659.676,342.253,657.175,344.766,654.201,346.983z"/>
	<path style="fill:#EDF0F9;" d="M796.848,338.761c2.586,2.094,3.619,4.343,4.592,6.639c0.98,2.312,0.197,4.299-1.428,5.84
		c-1.57,1.488-3.471,1.01-4.979-0.249c-1.797-1.499-2.562-3.43-1.423-5.736C794.618,343.213,795.642,341.179,796.848,338.761z"/>
	<path style="fill:#EDF0F9;" d="M1123.174,335.148c2.312,5.937,6.896,10.211,3.212,16.049c-2.318,1.106-4.437,1.417-6.172-0.442
		c-1.646-1.764-1.54-4.001-0.789-6.118C1120.411,341.854,1121.585,339.137,1123.174,335.148z"/>
</g>
</svg>
