<?xml version="1.0" encoding="iso-8859-1"?>
<!-- Generator: Adobe Illustrator 27.0.0, SVG Export Plug-In . SVG Version: 6.00 Build 0)  -->
<svg version="1.1" id="Layer_1" xmlns="http://www.w3.org/2000/svg" xmlns:xlink="http://www.w3.org/1999/xlink" x="0px" y="0px"
	 viewBox="0 0 1613 162" style="enable-background:new 0 0 1613 162;" xml:space="preserve">
<g>
	<path style="fill:#7E99AF;" d="M68,162c-5.156-2.072-10.712-2.772-15.9-4.835c-8.873-3.529-16.89-8.28-24.143-14.527
		c-7.519-6.476-13.542-14.066-18.309-22.688c-4.075-7.369-6.61-15.302-8.63-24.022c3.718,0.999,6.792,1.954,10.062,2.32
		c3.736,0.419,7.104-0.222,10.629-1.069c10.801-2.595,20.102-8.458,29.734-13.546c9.119-4.817,18.429-9.189,28.713-10.348
		c10.601-1.195,20.853,0.087,29.522,7.444c1.714,1.455,2.817,3.149,4.156,4.957c-2.09,0.473-4.016,0.868-5.921,1.346
		c-11.173,2.806-15.798,14.775-11.681,24.431c3.695,8.666,11.251,12.007,19.949,12.355c12.912,0.516,24.304-4.151,34.48-11.925
		c2.492-1.904,4.91-3.906,7.362-5.863l-0.054-0.057c0.18,1.184-0.094,2.249-0.533,3.379c-5.195,13.393-13.006,24.808-24.062,34.186
		c-9.994,8.478-21.608,13.312-33.835,17.193c-1.506,0.478-3.443-0.586-4.538,1.267C86,162,77,162,68,162z"/>
	<path style="fill:#809AB0;" d="M1613,159c-5.483,0-10.966,0-16.675,0c-14.64-24.685-29.168-49.18-43.736-73.743
		c-8.561,0-17.017,0-25.293,0c-1.869,1.63-1.19,3.593-1.194,5.335c-0.047,20.833-0.02,41.666-0.056,62.499
		c-0.003,1.777,0.408,3.631-0.576,5.702c-4.541,0.005-9.108,0.338-14.006-0.264c0-51.607,0-102.828,0-154.077
		c1.453-0.886,2.984-0.505,4.432-0.506c14.833-0.009,29.675-0.289,44.496,0.153c11.322,0.337,22.374,2.44,32.023,9.081
		c6.841,4.709,11.356,11.194,13.412,19.109c2.112,8.13,2.237,16.565-0.032,24.632c-3.106,11.043-10.596,18.553-21.109,23.043
		c-5.008,2.139-10.358,3.171-15.668,4.515c-0.127,2.94,1.94,4.742,3.153,6.756c12.916,21.442,26.005,42.781,39.056,64.142
		c0.425,0.696,0.851,1.444,1.772,1.623C1613,157.667,1613,158.333,1613,159z M1526.283,70.897c1.734,1.356,3.112,1.013,4.407,1.02
		c9.147,0.048,18.297-0.025,27.443,0.11c5.886,0.087,11.563-1.015,16.924-3.19c7.794-3.162,14.014-8.086,16.405-16.738
		c0.865-3.128,0.588-6.255,0.649-9.389c0.157-8.173-3.689-14.199-10.185-18.804c-6.727-4.768-14.445-6.506-22.43-6.769
		c-10.301-0.34-20.621-0.115-30.933-0.124c-0.813-0.001-1.677-0.091-2.279,0.763C1526.283,35.474,1526.283,53.226,1526.283,70.897z"
		/>
	<path style="fill:#3A485D;" d="M93,0c3.126,1.971,6.847,1.887,10.246,2.946c32.181,10.025,51.283,31.672,57.88,64.604
		c1.423,7.104,1.013,14.229,0.857,21.202c-8.213,10.304-22.942,20.906-29.206,20.847c6.935-14.112,9.409-28.669,5.042-43.955
		c-3.333-11.667-9.527-21.582-18.82-29.346C99.959,20.39,75.002,17.87,53.293,29.354C31.106,41.089,20.279,64.781,22.628,87.479
		c-6.015,2.838-12.149,3.078-18.551,0.814C2.756,87.825,1.693,86.313,0,87c0-6.333,0-12.667,0-19
		c1.848-0.957,1.276-2.94,1.656-4.398c8.591-32.996,29.068-53.881,62.45-61.848C65.735,1.366,67.786,1.707,69,0C77,0,85,0,93,0z"/>
	<path style="fill:#3B485E;" d="M262.884,33.289c0,41.61,0,83.221,0,125.122c-7.198,0-14.097,0-21.337,0
		c0-51.467,0-102.704,0-154.274c9.245,0,18.485,0,27.972,0c28.078,41.786,56.235,83.689,84.393,125.593
		c0.307-0.118,0.614-0.235,0.921-0.353c0-41.686,0-83.372,0-125.314c7.126,0,13.856,0,20.85,0c0,51.468,0,102.735,0,153.997
		c-4.585,1.008-20.974,1.006-27.177-0.068c-28.085-41.45-56.332-83.137-84.578-124.825
		C263.579,33.207,263.232,33.248,262.884,33.289z"/>
	<path style="fill:#7F9AB0;" d="M749.166,4.035c6.398,0,12.207,0,18.736,0c13.039,44.761,25.659,89.8,38.639,134.857
		c0.546-0.682-0.019,0.037,0.626-0.13c0.139-0.036,0.328-0.124,0.372-0.236c0.359-0.915,0.753-1.823,1.017-2.767
		c12.273-43.822,24.535-87.647,36.836-131.611c4.85,0,9.454,0,14.016,0c1.051,1.087,0.65,2.239,0.336,3.316
		c-5.179,17.739-10.423,35.459-15.566,53.209c-6.474,22.347-12.849,44.722-19.307,67.074c-2.565,8.877-5.246,17.721-7.85,26.586
		c-0.421,1.433-0.851,2.84-2.17,4.375c-5.454,0.225-11.188,0.29-17.102-0.051c-12.998-45.7-25.89-91.029-38.783-136.358
		c-0.255,0.021-0.509,0.041-0.763,0.062c-12.905,45.327-25.811,90.654-38.773,136.182c-5.917,0-11.516,0-17.131,0
		c-2.127-3.043-16.428-51.451-23.402-76.959c-7.036-25.736-14.822-51.267-22.304-76.972c2.815-1.134,5.162-0.561,7.442-0.662
		c2.326-0.104,4.66-0.023,7.542-0.023c12.683,44.934,25.374,89.896,38.065,134.857c0.345-0.031,0.691-0.062,1.036-0.093
		C723.478,93.907,736.278,49.124,749.166,4.035z"/>
	<path style="fill:#3C495E;" d="M500.072,23.76c0,15.464,0,30.224,0,45.514c24.413,0,48.632,0,73.135,0c0,6.784,0,13.041,0,19.802
		c-24.296,0-48.523,0-73.041,0c0,16.557,0,32.616,0,49.294c27.345,0,54.581,0,82.162,0c0,6.98,0,13.349,0,20.03
		c-34.594,0-68.975,0-103.653,0c0-51.494,0-102.735,0-154.288c33.317,0,66.527,0,99.981,0c0,6.435,0,12.715,0,19.065
		c-0.051,0.051-0.164,0.175-0.289,0.285c-0.121,0.107-0.253,0.286-0.381,0.286C552.179,23.76,526.371,23.76,500.072,23.76z"/>
	<path style="fill:#7F9AB0;" d="M1319.178,4.153c31.635,0,62.882,0,94.404,0c0,4.148,0,8.085,0,12.742
		c-5.101,0.223-10.357,0.076-15.603,0.101c-5.331,0.026-10.661,0.006-15.992,0.006c-5.497,0-10.995,0-16.492,0
		c-5.331,0-10.661,0-15.992,0c-5.295,0-10.589,0-16.134,0c0,18.309,0,36.198,0,54.672c12.668,0.569,25.091,0.216,37.505,0.248
		c12.276,0.032,24.552,0.007,37.027,0.007c0,4.542,0,8.481,0,13.119c-24.729,0-49.417,0-74.451,0c0,20.253,0,39.812,0,59.775
		c27.573,0,55.151,0,83.131,0c0,4.75,0,9.118,0,13.763c-32.4,0-64.777,0-97.403,0C1319.178,107.108,1319.178,55.869,1319.178,4.153z
		"/>
	<path style="fill:#809AB0;" d="M996.306,20.073c-19.988,46.877-39.542,92.736-59.094,138.59c-5.218,0-9.994,0-15.464,0
		c22.565-51.746,44.949-103.074,67.387-154.527c5.091,0,10.048,0,15.514,0c21.534,51.09,43.145,102.361,64.897,153.965
		c-3.103,1.238-5.749,0.634-8.302,0.734c-2.64,0.104-5.287,0.023-8.132,0.023C1034.264,112.808,1015.512,66.994,996.306,20.073z"/>
	<path style="fill:#7F9AAF;" d="M1184.104,158.879c-5.389-0.219-9.857,0.438-14.795-0.53c-0.563-11.858-0.163-23.622-0.238-35.373
		c-0.075-11.663-0.016-23.327-0.016-34.991c0-11.83,0.001-23.661,0.001-35.491c0-11.633,0-23.266,0-35.451
		c-17.718,0-35.105,0-52.711,0c0-4.482,0-8.415,0-12.34c3.536-0.958,113.217-1.254,120.374-0.303c0,3.899,0,7.844,0,12.5
		c-5.606,0.217-11.363,0.069-17.11,0.095c-5.832,0.026-11.664,0.006-17.495,0.006c-5.813,0-11.625,0-18.01,0
		C1184.104,64.292,1184.104,111.326,1184.104,158.879z"/>
	<path style="fill:#7E99AF;" d="M158.022,106.031c0.161-0.181,0.322-0.363,0.504-0.568c0.058,0.364-0.13,0.517-0.558,0.511
		L158.022,106.031z"/>
</g>
</svg>
