<?xml version="1.0" encoding="iso-8859-1"?>
<!-- Generator: Adobe Illustrator 27.0.0, SVG Export Plug-In . SVG Version: 6.00 Build 0)  -->
<svg version="1.1" id="Layer_1" xmlns="http://www.w3.org/2000/svg" xmlns:xlink="http://www.w3.org/1999/xlink" x="0px" y="0px"
	 viewBox="0 0 1505 550.156" style="enable-background:new 0 0 1505 550.156;" xml:space="preserve">
<g>
	<path style="fill:#EE2C35;" d="M295,0c3.42,2.082,7.363,1.257,11.009,1.679c22.221,2.571,43.825,7.579,64.777,15.383
		c28.594,10.65,54.635,25.776,78.368,44.917c0.526,0.425,1.007,0.865,1.117,1.577c-2.465,0.997-4.12-0.926-5.815-1.93
		c-10.271-6.085-21.278-10.528-32.412-14.638c-9.858-3.639-20.096-6.046-30.432-7.878c-5.822-1.032-11.746-1.482-17.625-2.194
		c-0.434-0.895-1.229-0.931-2.083-0.93c-8.27,0.011-16.541,0.011-24.811,0c-0.854-0.001-1.649,0.037-2.082,0.932
		c-7.866,0.587-15.679,1.442-23.447,2.965c-17.346,3.401-33.994,8.723-49.797,16.705c-6.633,3.35-13.181,6.824-19.484,10.76
		c-12.94,8.082-25.01,17.252-35.544,28.353c-1.049,1.106-2.159,2.122-1.696,3.863c-0.066,0.344-0.276,0.494-0.631,0.452
		c-0.975,0.018-2.19-0.398-2.26,1.252l0.017-0.141c-0.742-0.034-1.085,0.322-1.038,1.06l0.111,0.025
		c-0.364-0.096-0.776-0.196-0.872,0.3c-0.029,0.149,0.304,0.368,0.471,0.555c-4.231,4.221-8.72,8.215-12.65,12.7
		c-20.244,23.097-34.386,49.576-43.319,78.913c-5.977,19.629-9.686,39.641-11.117,60.127c-1.667,23.874-0.309,47.522,3.931,71.06
		c1.649,9.154,4.16,18.088,6.201,27.14c-42.093-0.003-84.185-0.002-126.278-0.019c-1.996-0.001-3.985-0.124-5.748,1.064
		c-3.815-10.381-5.818-21.208-7.795-32.032c-1.482-8.115-2.575-16.291-3.08-24.535C0.945,296.785,0.748,296.218,0,296
		c0-1.333,0-2.667,0-4c1.423-3.134,1.423-9.576,0-13c0-8.667,0-17.333,0-26c2.008-3.438,1.328-7.377,1.762-11.037
		c2.67-22.563,8.167-44.39,16.323-65.554c13.948-36.197,34.663-68.079,62.028-95.524c18.542-18.596,39.405-34.236,62.459-46.913
		C174.263,16.543,208.07,5.917,244.003,1.825C247.99,1.37,252.218,1.967,256,0c0.667,0,1.333,0,2,0c3.185,1.412,8.589,1.412,12,0
		c3.667,0,7.333,0,11,0c3.393,1.407,7.805,1.407,11,0C293,0,294,0,295,0z"/>
	<path style="fill:#7F7C7C;" d="M1503.783,235.425c0.406-0.142,0.812-0.283,1.217-0.425c0,56.333,0,112.667,0,169
		c-0.409-0.139-0.819-0.279-1.228-0.418c0.074-1.659,0.212-3.318,0.213-4.977c0.011-52.734,0.011-105.468,0-158.202
		C1503.984,238.744,1503.853,237.084,1503.783,235.425z"/>
	<path style="fill:#F05050;" d="M0,279c1.423,3.424,1.423,9.866,0,13C0,287.667,0,283.333,0,279z"/>
	<path style="fill:#F05050;" d="M270,0c-3.411,1.412-8.815,1.412-12,0C262,0,266,0,270,0z"/>
	<path style="fill:#F05050;" d="M292,0c-3.195,1.407-7.607,1.407-11,0C284.667,0,288.333,0,292,0z"/>
	<path style="fill:#F05050;" d="M537.078,358.008c0.162,2.079-0.823,3.887-1.466,5.746c-9.348,27.029-22.611,51.998-39.528,75.048
		c-12.073,16.449-26.414,30.787-41.316,44.608c-0.709,0.658-1.63,1.087-2.452,1.622c-0.891,0.102-1.968-0.176-2.276,1.116
		l0.089-0.089c-0.622,0.093-1.078,0.345-1.043,1.075l0.057-0.031c-1.825-0.281-3.097,0.957-4.537,1.691
		c-8.216,4.19-16.407,8.47-24.997,11.825c-20.14,7.868-41.091,12.159-62.663,13.366c-13.242,0.741-26.453-0.234-39.517-2.162
		c-10.149-1.498-20.161-3.993-29.866-7.53c-4.452-1.623-9.02-2.928-13.536-4.377c-0.275-0.699-0.926-0.82-1.534-1.076
		c-9.819-4.133-19.142-9.195-28.31-14.621c-4.067-2.407-7.672-5.582-12.117-7.349c-0.651-1.21-1.722-2.001-2.798-2.779
		c-8.05-5.815-15.771-12.017-22.812-19.047c-1.751-1.748-3.248-3.791-5.457-5.051c-0.521-1.952-3.556-2.497-2.87-5.125
		c1.505,0.073,2.253,1.317,3.232,2.156c19.764,16.953,41.936,28.242,68.393,30.317c10.918,0.856,21.585,0.11,32.102-2.442
		c23.181-5.624,42.861-17.536,59.709-34.266c14.039-13.941,25.136-30.023,34.274-47.507c5.919-11.326,10.449-23.237,14.792-35.226
		c1.998,0.032,3.996,0.092,5.995,0.093C456.777,358.004,496.927,358.005,537.078,358.008z"/>
	<path style="fill:#0D0C0C;" d="M642.711,290.716c0.112-29.583,8.456-54.992,25.317-77.552
		c14.556-19.476,33.446-33.106,56.381-40.954c14.127-4.834,28.726-6.442,43.701-5.374c33.793,2.411,60.907,17.465,82.128,43.349
		c13.827,16.866,22.369,36.299,25.845,57.922c5.802,36.093-1.777,69.047-23.672,98.331c-17.367,23.228-40.471,38.515-68.91,44.189
		c-36.778,7.338-69.907-1.53-98.385-26.137c-21.76-18.802-34.856-42.681-40.236-70.925
		C643.346,305.501,642.942,297.406,642.711,290.716z M661.339,289.689c0.265,4.571,0.233,9.268,0.858,13.875
		c2.709,19.984,9.712,38.316,22.774,53.828c25.958,30.828,58.836,42.984,98.368,33.887c24.685-5.681,43.841-20.272,57.792-41.325
		c17.779-26.829,22.327-56.271,14.701-87.25c-7.176-29.151-24.108-51.532-50.525-66.157c-16.545-9.159-34.428-12.544-53.346-10.956
		c-18.056,1.515-34.354,7.648-48.597,18.599C675.413,225.681,662.117,254.613,661.339,289.689z"/>
	<path style="fill:#0D0C0C;" d="M916.869,380.297c0,25.962,0,51.924,0,78.176c-6.485,0-12.733,0-19.34,0
		c0-74.239,0-148.438,0-222.938c6.305,0,12.55,0,19.284,0c0,8.044,0,16.077,0,25.041c5.776-6.415,11.143-11.781,17.443-16.151
		c13.752-9.54,29.214-14.179,45.642-12.991c33.84,2.449,56.867,20.92,70.943,51.149c5.548,11.915,8.058,24.794,7.735,37.768
		c-0.815,32.785-14.42,59.063-42.565,76.715c-15.12,9.483-32.113,12.89-49.747,10.602c-17.708-2.298-32.717-10.532-44.878-23.736
		c-1.213-1.317-2.413-2.645-3.619-3.967C917.467,380.075,917.168,380.186,916.869,380.297z M913.626,319.883
		c0.581,22.937,8.503,42.6,27.319,56.598c19.811,14.738,41.339,16.708,63.168,4.977c19.751-10.615,30.532-28.007,34.009-49.98
		c3.069-19.393-0.81-37.335-11.966-53.536c-10.447-15.173-24.889-24.417-43.142-26.728c-13.946-1.765-27.225,1.443-38.846,9.49
		C923.624,274.929,914.216,295.121,913.626,319.883z"/>
	<path style="fill:#0D0C0C;" d="M1096.046,326.145c-0.539,6.707,1.234,12.292,3.081,17.703
		c6.114,17.922,17.163,31.906,34.672,39.767c21.27,9.55,41.444,6.682,60.097-7.056c8.18-6.024,14.161-13.975,18.87-22.917
		c0.763-1.449,1.164-3.102,2.616-4.556c5.347,3.116,10.719,6.248,16.068,9.365c0.3,1.908-0.889,3.244-1.632,4.606
		c-10.487,19.221-25.369,33.508-46.302,40.943c-19.76,7.018-39.194,6.038-58.048-2.942c-25.932-12.35-41.373-33.254-47.391-60.979
		c-6.196-28.548-0.753-54.868,17.777-77.803c16.298-20.172,37.524-30.905,63.688-30.591c20.497,0.246,38.843,6.763,53.951,20.971
		c13.26,12.469,20.975,28.062,24.417,45.809c0.916,4.72,1.512,9.525,1.893,14.32c0.341,4.297,0.524,8.635,0.002,13.358
		C1192.025,326.145,1144.284,326.145,1096.046,326.145z M1219.987,309.011c-0.857-7.821-2.873-15.041-5.842-22.082
		c-13.108-31.088-48.479-42.68-76.083-32.046c-24.616,9.483-37.018,28.778-42.108,54.128
		C1137.497,309.011,1178.567,309.011,1219.987,309.011z"/>
	<path style="fill:#0D0C0C;" d="M1503.783,235.425c0.07,1.659,0.202,3.319,0.202,4.978c0.011,52.734,0.011,105.468,0,158.202
		c0,1.659-0.139,3.318-0.213,4.977c-6.111,0-12.222,0-18.711,0c0-8.13,0-16.024,0-24.746c-1.666,1.854-2.745,3.064-3.833,4.264
		c-12.405,13.677-27.748,22.402-46.004,24.559c-22.249,2.629-42.474-3.315-59.867-17.778c-17.353-14.429-27.697-33.089-30.979-55.2
		c-5.222-35.176,5.748-64.653,33.658-87.076c11.156-8.963,24.196-14.168,38.628-15.645c25.002-2.559,46.041,5.356,63.333,23.481
		c1.375,1.441,2.742,2.89,4.131,4.318c0.081,0.083,0.322,0.011,0.907,0.011c0-8.047,0-16.085,0-24.344
		C1491.56,235.425,1497.671,235.425,1503.783,235.425z M1362.826,312.604c-0.153,20.313,2.548,32.708,9.737,44.283
		c13.725,22.099,33.139,34.033,59.954,31.241c16.058-1.672,29.236-9.351,39.032-21.738c19.186-24.26,21.992-51.171,9.066-79.031
		c-9.491-20.455-25.965-33.209-48.631-36.123c-15.964-2.053-30.74,2.434-43.274,12.711
		C1371.319,278.207,1363.163,296.997,1362.826,312.604z"/>
	<path style="fill:#AE2124;" d="M274.029,499.918c4.515,1.449,9.083,2.754,13.536,4.377c9.705,3.536,19.716,6.032,29.866,7.53
		c13.064,1.928,26.274,2.903,39.517,2.162c21.572-1.208,42.522-5.498,62.663-13.366c8.59-3.356,16.781-7.636,24.997-11.825
		c1.44-0.734,2.711-1.972,4.537-1.691c0.261,1.584-1.223,1.813-2.034,2.46c-33.813,26.976-71.887,45.054-114.116,54.327
		c-23.527,5.166-47.396,7.192-71.415,5.875c-36.353-1.993-71.201-10.353-104.175-26.107c-11.789-5.632-23.265-11.772-34.084-19.107
		c-0.531-0.36-0.947-0.89-1.417-1.341c1.384-2.295,3.626-1.146,5.418-1.149c46.735-0.075,93.471-0.059,140.206-0.059
		c1.164,0,2.329-0.021,3.493,0.006C272.543,502.043,273.53,501.341,274.029,499.918z"/>
	<path style="fill:#A21F21;" d="M363.989,36.916c5.878,0.712,11.803,1.163,17.625,2.194c10.336,1.832,20.574,4.239,30.432,7.878
		c11.134,4.11,22.141,8.553,32.412,14.638c1.694,1.004,3.349,2.926,5.815,1.93l0.012,0.111c-0.281,1.548,0.83,1.317,1.731,1.356
		l-0.04-0.035c0.089,0.712,0.549,0.977,1.207,1.007c6.546,4.598,12.223,10.148,17.57,16.058c-2.37,0.743-4.772,0.987-7.275,0.984
		c-42.912-0.051-85.824-0.037-128.736-0.035c-1.497,0-2.999-0.059-4.489,0.048c-1.038,0.075-1.197,0.968-1.252,1.831
		c-1.803-0.814-3.61-1.621-5.41-2.444c-14.708-6.725-30.137-10.364-46.319-10.173c-18.25,0.216-35.401,4.812-51.462,13.592
		c-7.32,4.002-14.089,8.768-20.765,13.708c-0.463-1.741,0.647-2.757,1.696-3.863c10.533-11.102,22.603-20.271,35.544-28.353
		c6.302-3.936,12.851-7.41,19.484-10.76c15.803-7.982,32.45-13.304,49.797-16.705c7.769-1.523,15.581-2.378,23.447-2.965
		C344.671,36.917,354.33,36.917,363.989,36.916z"/>
	<path style="fill:#E63B39;" d="M549.94,276.996c0.441,17.209-1.481,34.181-5.096,50.984c-40.292,0.005-80.584,0.01-120.875,0.012
		c-1.165,0-2.33-0.019-3.494-0.054c-0.961-0.028-1.448-0.676-1.811-1.463c2.428-16.411,4.089-32.892,4.541-49.485
		C465.45,276.993,507.695,276.995,549.94,276.996z"/>
	<path style="fill:#D32C2B;" d="M540.054,201.983c2.973,8.217,4.339,16.814,5.909,25.355c1.011,5.501,2.068,11.009,2.141,16.636
		c-3.016-0.422-5.733,1.155-8.78,1.098c-39.334-0.732-78.693,1.21-118.015-1.086c-1.778-14.08-4.439-27.993-7.923-41.75
		c2.156-0.079,4.312-0.225,6.469-0.226C459.921,201.991,499.988,201.989,540.054,201.983z"/>
	<path style="fill:#AE2124;" d="M329,84.88c0.054-0.863,0.214-1.756,1.252-1.831c1.49-0.107,2.992-0.048,4.489-0.048
		c42.912-0.001,85.824-0.015,128.736,0.035c2.504,0.003,4.906-0.241,7.275-0.984c8.337,8.312,16.242,16.936,22.99,26.683
		c2.819,4.072,5.526,8.358,8.937,12.049c-2.102,1.174-4.383,1.235-6.724,1.233c-38.581-0.026-77.162-0.02-115.743-0.015
		c-2.134,0-4.329-0.324-6.251,1.008c-7.933-9.505-16.409-18.435-26.351-25.921C341.662,92.611,335.203,88.95,329,84.88z"/>
	<path style="fill:#EB212C;" d="M11.862,354.053c1.763-1.188,3.752-1.065,5.748-1.064c42.093,0.017,84.185,0.016,126.278,0.019
		c1.581,4.493,3.259,8.955,4.724,13.485c2.837,8.769,7.136,16.927,10.508,25.47c-41.983,0.012-83.966,0.024-125.95,0.04
		c-2.14,0.001-4.34-0.325-6.258,1.033c-5.065-8.9-8.456-18.514-11.821-28.122C13.846,361.359,12.294,357.862,11.862,354.053z"/>
	<path style="fill:#B92226;" d="M373.961,123.011c1.923-1.332,4.117-1.008,6.251-1.008c38.581-0.005,77.162-0.011,115.743,0.015
		c2.34,0.002,4.621-0.06,6.724-1.233c8.848,12.552,16.416,25.823,22.45,39.956c-1.345,2.371-3.612,1.194-5.399,1.198
		c-37.63,0.08-75.259,0.065-112.889,0.05c-2.648-0.001-5.284-0.06-7.784,1.008c-0.427-0.704-0.913-1.378-1.271-2.115
		C391.239,147.381,383.17,134.838,373.961,123.011z"/>
	<path style="fill:#C52427;" d="M399.057,162.998c2.501-1.068,5.137-1.009,7.784-1.008c37.63,0.015,75.259,0.03,112.889-0.05
		c1.788-0.004,4.055,1.173,5.399-1.198c6.508,13.192,11.53,26.923,14.924,41.241c-40.066,0.006-80.133,0.008-120.199,0.028
		c-2.156,0.001-4.313,0.147-6.469,0.226c-0.971-3.134-1.973-6.258-2.906-9.403C407.44,182.593,403.115,172.847,399.057,162.998z"/>
	<path style="fill:#0D0C0C;" d="M1347.464,234.163c-1.074,6.55-3.352,12.217-4.845,18.308c-5.902-0.746-11.543-2.018-17.411-0.887
		c-6.344,1.223-12.013,3.619-17.028,7.634c-12.24,9.798-18.768,22.981-22.17,37.911c-1.479,6.493-1.994,13.134-1.988,19.814
		c0.023,26.978-0.006,53.956-0.016,80.934c-0.001,1.801,0,3.602,0,5.639c-6.604,0-12.838,0-19.359,0c0-55.703,0-111.227,0-167.016
		c6.429,0,12.658,0,19.276,0c0,9.855,0,19.571,0,30.477C1297.948,240.953,1317.096,227.062,1347.464,234.163z"/>
	<path style="fill:#DE3532;" d="M421.31,243.986c39.322,2.296,78.681,0.354,118.015,1.086c3.047,0.057,5.765-1.52,8.78-1.098
		c1.656,4.591,0.994,9.457,1.528,14.178c0.704,6.224,0.676,12.554,0.308,18.845c-42.245-0.002-84.49-0.003-126.735-0.005
		C422.573,265.99,421.941,254.988,421.31,243.986z"/>
	<path style="fill:#E02129;" d="M26.912,393.035c1.919-1.357,4.118-1.032,6.258-1.033c41.983-0.016,83.966-0.027,125.95-0.04
		c5.946,10.212,11.891,20.426,18.754,30.067c-14.953-0.01-29.905-0.026-44.858-0.028c-27.413-0.005-54.826-0.003-82.24,0.001
		c-2.444,0-5.005-0.367-6.768,1.978C37.411,414.162,31.356,404.043,26.912,393.035z"/>
	<path style="fill:#D52227;" d="M44.008,423.98c1.763-2.345,4.324-1.978,6.768-1.978c27.413-0.004,54.826-0.006,82.24-0.001
		c14.953,0.003,29.905,0.018,44.858,0.028c5.835,6.518,10.997,13.619,17.176,19.84c-0.012,0.713,0.319,1.085,1.052,1.058
		l-0.031-0.029c-0.011,0.708,0.312,1.073,1.045,1.016l-0.03-0.03c-0.04,0.733,0.281,1.1,1.039,1.021l0.007-0.034
		c-0.686,2.628,2.349,3.172,2.87,5.125c-5.355,1.394-10.822,0.992-16.261,1c-10.81,0.017-21.62,0.005-32.43,0.005
		c-27.44,0-54.881-0.021-82.321,0.051c-1.66,0.004-3.679-0.982-5.007,0.997C57.097,443.36,50.108,434.002,44.008,423.98z"/>
	<path style="fill:#C52427;" d="M64.982,452.049c1.328-1.979,3.347-0.993,5.007-0.997c27.44-0.071,54.881-0.051,82.321-0.051
		c10.81,0,21.62,0.012,32.43-0.005c5.439-0.009,10.906,0.394,16.261-1c2.209,1.261,3.706,3.303,5.457,5.051
		c7.04,7.029,14.762,13.232,22.812,19.047c1.077,0.778,2.147,1.569,2.798,2.779c-2.759,2.087-5.988,2.131-9.232,2.131
		c-41.696-0.003-83.393-0.005-125.089,0.009c-2.154,0.001-4.308,0.16-6.461,0.246C81.481,471.191,72.898,461.942,64.982,452.049z"/>
	<path style="fill:#EF4847;" d="M418.664,326.476c0.363,0.786,0.85,1.434,1.811,1.463c1.164,0.034,2.329,0.054,3.494,0.054
		c40.292-0.002,80.584-0.007,120.875-0.012c-1.629,10.257-4.047,20.31-7.766,30.027c-40.15-0.003-80.301-0.004-120.451-0.012
		c-1.998,0-3.996-0.06-5.995-0.093C413.309,347.427,415.986,336.952,418.664,326.476z"/>
	<path style="fill:#B92226;" d="M91.286,479.259c2.154-0.086,4.307-0.245,6.461-0.246c41.696-0.015,83.393-0.012,125.089-0.009
		c3.244,0,6.472-0.044,9.232-2.131c4.445,1.767,8.05,4.942,12.117,7.349c9.168,5.426,18.491,10.488,28.31,14.621
		c0.609,0.256,1.259,0.377,1.534,1.076c-0.499,1.423-1.486,2.125-3.01,2.09c-1.164-0.027-2.328-0.006-3.493-0.006
		c-46.735,0-93.471-0.016-140.206,0.059c-1.792,0.003-4.034-1.146-5.418,1.149C110.799,496.374,100.639,488.332,91.286,479.259z"/>
	<path style="fill:#EE2C35;" d="M452.015,65.023c-0.901-0.039-2.013,0.192-1.731-1.356
		C451.206,63.677,451.834,64.064,452.015,65.023z"/>
	<path style="fill:#AE2124;" d="M450.039,486.148c0.308-1.291,1.385-1.014,2.276-1.116
		C451.749,485.796,451.225,486.648,450.039,486.148z"/>
	<path style="fill:#EE2C35;" d="M453.182,65.995c-0.658-0.03-1.118-0.295-1.207-1.007C452.668,64.975,453.053,65.331,453.182,65.995
		z"/>
	<path style="fill:#AE2124;" d="M449.086,487.135c-0.036-0.73,0.421-0.983,1.043-1.075
		C450.264,486.886,449.915,487.243,449.086,487.135z"/>
	<path style="fill:#E63B39;" d="M363.989,36.916c-9.659,0.001-19.318,0.001-28.977,0.002c0.434-0.895,1.228-0.933,2.082-0.932
		c8.27,0.011,16.541,0.011,24.811,0C362.759,35.985,363.554,36.021,363.989,36.916z"/>
	<path style="fill:#A21F21;" d="M204.413,100.016c-0.59,0.713-1.115,1.542-2.26,1.252
		C202.224,99.618,203.439,100.034,204.413,100.016z"/>
	<path style="fill:#A21F21;" d="M202.17,101.127c0.07,0.761-0.279,1.111-1.038,1.06C201.085,101.45,201.427,101.093,202.17,101.127z
		"/>
	<path style="fill:#A21F21;" d="M201.243,102.213c-0.134,0.285-0.268,0.57-0.401,0.855c-0.167-0.187-0.5-0.406-0.471-0.555
		C200.467,102.017,200.879,102.117,201.243,102.213z"/>
	<path style="fill:#F05050;" d="M195.05,441.87c0.647,0.058,1.016,0.392,1.052,1.058C195.369,442.955,195.038,442.583,195.05,441.87
		z"/>
	<path style="fill:#F05050;" d="M196.071,442.898c0.665,0.013,1.029,0.335,1.045,1.016
		C196.383,443.971,196.06,443.606,196.071,442.898z"/>
	<path style="fill:#F05050;" d="M197.085,443.884c0.668,0.012,1.029,0.338,1.039,1.021
		C197.366,444.984,197.045,444.618,197.085,443.884z"/>
</g>
</svg>
