<?xml version="1.0" encoding="iso-8859-1"?>
<!-- Generator: Adobe Illustrator 27.0.0, SVG Export Plug-In . SVG Version: 6.00 Build 0)  -->
<svg version="1.1" id="Layer_1" xmlns="http://www.w3.org/2000/svg" xmlns:xlink="http://www.w3.org/1999/xlink" x="0px" y="0px"
	 viewBox="0 0 1519.101 210" style="enable-background:new 0 0 1519.101 210;" xml:space="preserve">
<g>
	<path style="fill:#F7C7BB;" d="M48.051,0.838C48.088,0.56,48.105,0.28,48.101,0c144.333,0,288.667,0,433,0
		c-0.001,0.279,0.017,0.557,0.052,0.833c-1.327,0.055-2.654,0.157-3.981,0.157c-141.547,0.007-283.093,0.007-424.64,0
		C51.039,0.99,49.545,0.891,48.051,0.838z"/>
	<path style="fill:#F7C7BB;" d="M0.101,210c0.027-0.375,0.054-0.749,0.08-1.124c1.498,0.042,2.995,0.122,4.493,0.122
		c136.324,0.002,272.649-0.003,408.973,0.001c1.495,0,2.989,0.113,4.484,0.174c-0.018,0.276-0.028,0.551-0.029,0.827
		C278.768,210,139.434,210,0.101,210z"/>
	<path style="fill:#181717;" d="M1519.101,160c-1.255,0.182-1.244,1.422-1.702,2.194c-0.96,1.617-2.258,2.837-3.782,3.843
		c-3.988,2.63-9.597,2.535-11.91-0.162c-2.402-2.8-2.128-9.156,0.539-12.519c4.693-5.917,12.408-5.622,16.855,0.644
		C1519.101,156,1519.101,158,1519.101,160z"/>
	<path style="fill:#FBE2DA;" d="M418.101,210c0.001-0.276,0.011-0.552,0.029-0.827c5.998-0.2,11.996-0.345,17.994-0.007
		c-0.017,0.278-0.025,0.556-0.023,0.834C430.101,210,424.101,210,418.101,210z"/>
	<path style="fill:#E32138;" d="M436.124,209.166c-5.998-0.338-11.996-0.194-17.994,0.007c-1.495-0.06-2.989-0.174-4.484-0.174
		C277.323,208.995,140.998,209,4.674,208.998c-1.498,0-2.995-0.079-4.493-0.122c-0.728-6.578,0.883-12.892,2.234-19.221
		c5.193-24.331,10.475-48.642,15.651-72.976c5.487-25.797,10.908-51.608,16.321-77.42c1.94-9.253,3.793-18.524,5.644-27.796
		c0.687-3.442,1.75-6.719,3.534-9.553c1.458-1.093,3.045-0.753,4.486-1.072c1.494,0.053,2.988,0.153,4.482,0.153
		c141.547,0.007,283.093,0.007,424.64,0c1.327,0,2.654-0.102,3.981-0.157c1.808,0.123,3.617,0.246,5.837,0.397
		c-15.012,69.235-29.83,138.275-43.659,207.605C440.76,208.953,438.442,209.06,436.124,209.166z M145.782,22.993
		c-9.531-0.425-19.388,0.608-29.167,3.01C99.786,30.135,84.869,37.639,72.53,49.951c-8.469,8.45-14.731,18.396-19.526,29.287
		c-5.041,11.449-8.365,23.382-10.09,35.794c-1.331,9.575-2.706,19.093-0.815,28.759c2.72,13.903,8.808,25.841,20.736,33.957
		c11.152,7.587,23.882,10.634,37.227,11.095c6.991,0.241,13.997,0.014,20.996,0.054c5.851,0.033,11.617-0.701,17.308-1.951
		c31.315-6.878,53.316-25.152,66.112-54.468c4.932-11.301,7.878-23.205,10.057-35.33c1.995-11.099,2.373-22.126-0.384-33.144
		c-3.991-15.949-12.72-27.79-28.44-34.132C172.997,24.742,159.944,22.293,145.782,22.993z M380.246,25.343
		c-10.153-0.634-19.607-1.403-29.076-0.917c-5.496,0.283-10.984,0.395-16.479,0.412c-11.498,0.035-22.996-0.026-34.494,0.029
		c-5.32,0.026-10.631,0.06-15.903,1.159c-14.584,3.039-26.881,9.738-35.183,22.419c-9.73,14.862-13.267,31.428-11.794,48.975
		c0.563,6.702,3.175,12.871,8.397,17.605c5.798,5.257,12.391,8.734,20.184,10.122c6.484,1.155,12.952,0.565,19.432,0.612
		c8.163,0.059,16.328,0,24.489,0.165c4.827,0.098,7.692,2.197,8.249,5.683c0.956,5.974-4.087,17.449-12.639,16.569
		c-2.135-0.22-4.322,0.126-6.485,0.121c-21.662-0.05-43.325-0.117-64.987-0.184c-2.335-0.007-4.649,0.057-6.896,1.39
		c-4.574,12.23-6.489,25.088-8.211,38.546c2.209,0,3.839-0.002,5.47,0c23.329,0.034,46.658,0.081,69.987,0.096
		c5.498,0.004,11.013,0.162,16.49-0.199c17.47-1.149,31.745-8.961,41.974-22.859c10.468-14.223,14.527-30.575,13.544-48.434
		c-0.855-15.535-11.74-24.931-21.943-27.719c-6.157-1.682-12.457-1.956-18.791-1.937c-8.498,0.026-16.996,0.097-25.492-0.006
		c-4.817-0.058-9.538-0.896-14.112-2.575c-1.279-3.341-1.209-6.703-0.548-9.938c1.188-5.808,4.114-10.02,10.695-10.782
		c2.146-0.248,4.272-0.541,6.431-0.542c21.996-0.004,43.993,0.011,65.989-0.028c1.78-0.003,3.646,0.468,5.418-0.471
		C377.005,50.54,379.082,38.308,380.246,25.343z M423.5,186.551c0.835-2.86,1.885-5.824,2.556-8.872
		c2.605-11.824,5.066-23.68,7.624-35.514c3.503-16.21,7.063-32.408,10.565-48.619c3.082-14.267,5.224-28.735,8.936-42.865
		c2.104-8.01,4.141-16.001,4.449-24.535c-0.989-0.345-1.899-0.917-2.826-0.947c-7.807-0.254-15.589-1.465-23.431-0.611
		c-1.811,0.197-3.713,0.403-5.47,0.066c-3.727-0.715-7.248,0.043-10.812,0.718c-1.695,2.073-2.474,4.406-3.012,6.85
		c-1.285,5.831-2.617,11.651-3.854,17.492c-8.35,39.431-16.705,78.861-24.99,118.305c-1.283,6.108-2.796,12.232-2.089,18.549
		C387.018,187.338,417.447,187.334,423.5,186.551z"/>
	<path style="fill:#100F0F;" d="M956.021,167.642c7.993-38.687,15.96-76.797,24.473-115.172c8.129-0.658,16.135-2.11,24.281-0.419
		c2.843,0.59,3.664,2.69,4.196,4.974c1.429,6.129,2.744,12.286,4.049,18.443c3.125,14.748,6.218,29.503,9.305,44.163
		c2.781,1.22,3.703-0.742,4.735-2.42c4.26-6.93,8.509-13.868,12.746-20.813c7.432-12.181,15.095-24.23,22.172-36.613
		c3.478-6.085,8.245-8.517,14.935-8.626c4.854-0.079,9.601,0.698,14.602,1.014c1.112,2.706,0.772,5.511,0.193,8.221
		c-6.432,30.134-12.963,60.248-19.372,90.387c-1.136,5.341-1.837,10.774-2.853,16.845c-8.243,0.65-16.484,0.174-24.965,0.315
		c-1.139-5.309,0.18-10.308,1.221-15.247c3.111-14.755,6.379-29.479,9.687-44.191c0.925-4.115,0.998-8.218,0.751-12.775
		c-2.762,1.971-4.06,4.695-5.561,7.153c-11.589,18.986-23.082,38.031-34.608,57.055c-2.32,3.829-4.568,7.712-7.556,10.768
		c-3.273,0.726-3.617-1.74-4.136-3.472c-1.76-5.874-2.984-11.884-4.214-17.896c-3.555-17.375-6.823-34.81-10.949-52.065
		c-0.446-1.863-0.804-3.765-2.461-6.434c-6.809,25.951-11.044,51.386-16.804,76.716
		C965.491,169.168,960.984,168.515,956.021,167.642z"/>
	<path style="fill:#121111;" d="M1379.35,53.17c3.787-0.887,7.339-1.266,11.201-0.631c0.586,4.334-0.059,8.478-0.907,12.426
		c-6.471,30.142-13.077,60.255-18.96,90.521c-0.505,2.595-0.573,5.256-1.495,7.815c-1.024,2.841-2.571,4.571-5.742,4.511
		c-2.322-0.045-4.645-0.009-7.126-0.009c-16.739-26.836-30.696-55.31-46.796-82.078c-1.627-0.522-2.34,0.378-3.271,0.416
		c-4.237,27.454-11.681,54.001-16.199,81.199c-3.993,0.855-7.763,0.092-11.664,0.656c-0.738-5.113,0.402-9.659,1.297-14.13
		c2.831-14.147,5.991-28.227,8.946-42.35c4.039-19.307,8.005-38.63,12.112-58.473c7.62-1.897,15.41-1.652,22.868,0.022
		c12.958,23.556,25.328,46.974,38.831,69.765c0.103,0.173,0.624,0.098,1.638,0.224c3.405-11.412,5.4-23.256,7.822-34.972
		C1374.315,76.408,1376.746,64.745,1379.35,53.17z"/>
	<path style="fill:#111010;" d="M1103.155,143.62c2.415,3.152,4.509,5.927,6.649,8.667c2.623,3.358,6.005,4.797,10.349,4.972
		c7.494,0.302,14.081-1.027,19.38-6.931c5.092-5.673,5.691-12.267,4.325-19.145c-0.742-3.737-3.884-6.179-7.162-7.93
		c-4.231-2.259-8.616-4.234-12.968-6.262c-3.604-1.679-7.287-3.195-10.632-5.381c-5.45-3.562-8.71-8.248-9.238-15.054
		c-0.417-5.366-0.293-10.565,0.809-15.8c2.93-13.913,21.425-29.573,35.277-30.887c5.99-0.568,11.897-0.871,17.875-0.134
		c11.116,1.37,18.565,7.374,22.718,17.657c0.492,1.219,0.964,2.447,1.538,3.905c-3.72,3.05-7.996,5.133-12.234,7.14
		c-1.638-0.574-1.588-2.08-2.058-3.258c-4.344-10.894-10.19-14.086-21.9-12.082c-11.436,1.958-16.103,13.604-14.663,21.553
		c0.571,3.15,2.394,5.688,5.301,7.484c4.393,2.715,9.083,4.78,13.745,6.935c4.065,1.879,8.093,3.811,11.787,6.41
		c9.193,6.468,12.187,15.609,10.643,26.194c-3.549,24.333-27.136,40.337-45.921,39.349c-5.627-0.296-11.309,0.503-16.873-1.021
		c-7.596-2.08-13.472-6.305-16.948-13.503c-1.925-3.985-1.194-6.486,2.429-8.912c0.548-0.367,1.153-0.651,1.744-0.95
		C1099.037,145.673,1100.951,144.721,1103.155,143.62z"/>
	<path style="fill:#10100F;" d="M582.752,72.572c-2.938,2.592-6.298,4.229-10.02,5.565c-1.62-2.9-3.081-5.675-4.693-8.36
		c-2.151-3.584-5.171-6.097-9.462-6.534c-11.817-1.203-20.03,0.443-24.585,14.519c-1.865,5.765-0.232,10.5,4.651,13.965
		c3.662,2.599,7.733,4.476,11.81,6.336c4.371,1.994,8.722,4.01,12.806,6.605c8.696,5.525,12.368,13.508,12.12,23.589
		c-0.326,13.245-6.634,23.449-16.431,31.699c-8.791,7.404-18.883,11.565-30.618,11.065c-5.136-0.219-10.321,0.437-15.38-1.021
		c-9.366-2.699-16.073-8.17-19.005-17.503c3.235-4.878,5.157-6.138,12.433-8.285c1.68,2.36,3.371,4.801,5.13,7.192
		c2.717,3.692,6.153,5.996,10.983,5.706c2.152-0.129,4.317-0.003,6.476-0.044c14.262-0.273,21.146-16.021,17.092-26.715
		c-1.177-3.104-3.741-5.022-6.369-6.796c-3.73-2.518-7.974-3.976-12.069-5.751c-5.637-2.444-11.247-4.948-15.608-9.536
		c-3.814-4.013-5.531-8.611-6.04-14.237c-2.138-23.632,20.481-45.35,45.152-44.925c6.026,0.104,11.924,0.467,17.516,2.922
		c4.666,2.049,8.548,5.042,11.458,9.287C582.345,64.589,583.653,68.049,582.752,72.572z"/>
	<path style="fill:#111010;" d="M703.708,144.934c1.292,2.025,2.556,4.159,3.969,6.19c2.725,3.917,6.31,5.954,11.299,6.14
		c7.9,0.294,14.896-1.238,20.112-7.642c3.986-4.893,5.749-10.371,4.201-16.714c-0.786-3.219-2.447-5.729-5.089-7.71
		c-4.159-3.12-8.863-5.183-13.572-7.258c-5.466-2.409-10.883-4.867-15.533-8.773c-3.787-3.182-5.948-7.08-6.209-12.01
		c-0.515-9.749-0.091-19.275,5.867-27.69c8.932-12.615,20.991-19.553,36.484-20.177c3.97-0.16,7.953-0.205,11.951,0.467
		c11.654,1.959,18.984,8.723,22.823,19.423c-1.135,5.957-6.482,6.402-10.109,8.922c-2.393-1.883-3.126-4.568-4.552-6.773
		c-4.856-7.511-12.761-10.071-22.156-7.787c-7.252,1.763-13.355,10.722-13.32,17.98c0.021,4.327,1.684,7.721,5.223,10.189
		c3.83,2.67,8.05,4.588,12.277,6.534c4.961,2.285,9.958,4.488,14.446,7.75c5.499,3.997,8.414,9.297,9.071,15.915
		c1.508,15.173-3.24,27.822-15.251,37.539c-6.67,5.396-13.765,10.101-22.474,11.068c-7.929,0.881-15.973,1.297-23.848-0.59
		c-6.867-1.645-12.57-5.217-16.323-11.387c-3.555-5.844-2.342-9.713,3.861-12.233C698.964,145.451,701.131,144.468,703.708,144.934z
		"/>
	<path style="fill:#121111;" d="M937.796,167.418c-9.04,2.003-63.157,2.101-71.208,0.181c0.099-8.09,2.11-15.925,3.753-23.796
		c4.534-21.731,9.168-43.441,13.834-65.144c1.88-8.747,3.946-17.455,5.983-26.428c9.698-0.341,19.233-1.518,28.894-0.71
		c5.433,0.455,10.959,0.269,16.412-0.101c7.681-0.522,15.279,0.146,22.889,0.87c0.947,0.09,1.852,0.617,3.074,1.046
		c-1.101,3.473-2.133,6.731-3.051,9.629c-1.576,1.189-2.953,0.772-4.235,0.776c-10.991,0.036-21.983,0.002-32.975,0.035
		c-2.474,0.008-5.042-0.238-7.387,1.741c-3.843,11.558-5.582,23.827-8.118,36.575c14.035,0,27.62,0,41.339,0
		c0.541,4.352-0.403,7.969-1.307,11.913c-9.209,0-18.341-0.026-27.472,0.013c-3.492,0.015-6.985,0.144-10.475,0.281
		c-2.991,0.117-4.974,1.5-5.696,4.563c-2.852,12.092-5.634,24.195-7.007,36.72c14.613,2.736,29.257,0.486,43.912,1.504
		C939.434,160.947,937.594,164.121,937.796,167.418z"/>
	<path style="fill:#121111;" d="M1506.357,74.504c-3.3,2.163-6.104,4.182-9.481,5.686c-2.468-3.255-4.88-6.393-7.247-9.564
		c-6.421-8.6-15.261-11.345-25.521-10.391c-13.948,1.297-24.698,8.115-32.752,19.408c-8.852,12.412-13.309,26.257-13.276,41.496
		c0.013,5.973-0.618,12.003,1.016,17.886c2.362,8.506,6.828,15.777,15.941,17.365c13.529,2.356,26.914,1.85,38.214-7.826
		c3.423-2.931,6.739-5.959,9.717-9.339c4.403-4.999,4.861-5.143,11.839-3.055c0.641,3.611-0.478,6.894-2.841,9.542
		c-13.339,14.948-29.195,25.036-49.996,25.268c-5.993,0.067-11.914-0.092-17.796-1.74c-19.724-5.526-32.011-22.506-33.247-42.899
		c-2.144-35.36,28.714-69.848,61.294-75.875c8.688-1.607,17.601-2.308,26.276-0.067
		C1491.481,53.752,1500.793,61.686,1506.357,74.504z"/>
	<path style="fill:#10100F;" d="M702.585,52.647c-3.123,3.557-5.707,6.524-8.316,9.468c-11.924,13.459-23.88,26.891-35.771,40.38
		c-4.705,5.338-7.519,11.46-8.833,18.603c-2.698,14.671-6.049,29.221-9.157,43.942c-1.049,0.226-2.336,1.167-3.433,2.666
		c-14.432,1.006-18.292,0.66-21.962-2.117c0.047-5.184,1.346-10.357,2.356-15.535c1.967-10.085,4.303-20.098,6.36-30.167
		c1.105-5.407-0.146-10.478-2.398-15.469c-5.653-12.531-11.139-25.138-16.649-37.733c-1.908-4.361-3.655-8.79-5.099-14.005
		c10.156-0.636,19.879-0.844,30.049,0.401c5.694,12.925,10.685,26.41,17.632,39.263c4.227-2.96,7.506-6.475,10.656-10.086
		c6.896-7.904,13.732-15.861,20.508-23.868c4.516-5.336,9.79-8.341,17.048-6.56C697.6,52.327,699.742,52.333,702.585,52.647z"/>
	<path style="fill:#121111;" d="M819.479,64.272c-6.818-0.403-13.242-0.782-20.025-1.183c0.341-3.664,0.657-7.051,1.017-10.919
		c23.35-1.349,46.546-1.128,70.477-0.161c-1.222,3.858-0.362,7.536-2.184,11.17c-7.346,0.239-14.81,0.058-22.153,1.519
		c-7.739,34.439-14.202,68.819-22.322,103.178c-8.215,2.002-16.371,1.198-24.633-0.137c0.574-11.309,3.601-21.857,5.794-32.539
		c4.368-21.276,8.978-42.502,13.411-63.764C819.326,69.212,819.269,66.881,819.479,64.272z"/>
	<path style="fill:#121111;" d="M1259.479,52.682c7.419-0.68,14.696-0.66,22.229-0.007c0.782,5.039-0.236,9.74-1.2,14.367
		c-6.791,32.599-13.691,65.175-20.551,97.759c-0.172,0.82-0.326,1.633-1.281,2.474c-7.116,0.905-14.537,0.664-22.162,0.351
		c-1.138-5.024,0.045-9.799,0.985-14.387c5.218-25.475,10.727-50.89,16.178-76.316c1.423-6.638,2.977-13.249,4.509-19.864
		C1258.52,55.624,1259.019,54.227,1259.479,52.682z"/>
	<path style="fill:#1A1919;" d="M1165.471,191.471c-0.988-2.441,0.253-4.087,0.911-5.631c4.147-9.731,9.016-19.126,13.949-28.475
		c1.86-3.525,4.363-6.655,8.6-7.748c3.048-0.786,6.211-1.075,8.232,1.617c1.9,2.531,1.429,5.708,0.123,8.502
		c-0.758,1.622-1.785,3.237-3.057,4.48c-8.889,8.693-17.233,17.953-26.812,25.931
		C1166.924,190.558,1166.353,190.876,1165.471,191.471z"/>
	<path style="fill:#E32138;" d="M169.392,90.703c0.128,11.451-2.517,22.845-7.258,33.802c-1.988,4.595-4.453,8.937-7.347,12.983
		c-2.724,3.809-6.136,7.069-10.386,9.178c-13.097,6.499-26.694,7.248-40.713,3.459c-9.13-2.468-13.563-8.909-15.578-17.599
		c-1.453-6.262-1.225-12.476-0.087-18.786c1.623-8.995,3.545-17.861,6.998-26.377c7.76-19.136,22.448-27.374,42.055-27.657
		c5.829-0.084,11.622,0.546,17.215,2.342c8.754,2.81,14.378,9.991,14.889,19.178C169.345,84.201,169.943,87.177,169.392,90.703z"/>
</g>
</svg>
