<?xml version="1.0" encoding="iso-8859-1"?>
<!-- Generator: Adobe Illustrator 27.0.0, SVG Export Plug-In . SVG Version: 6.00 Build 0)  -->
<svg version="1.1" id="Layer_1" xmlns="http://www.w3.org/2000/svg" xmlns:xlink="http://www.w3.org/1999/xlink" x="0px" y="0px"
	 viewBox="0 0 1581.74 291" style="enable-background:new 0 0 1581.74 291;" xml:space="preserve">
<g>
	<path style="fill:#080707;" d="M1225.74,0c-0.014,69.284-0.026,138.569-0.059,207.853c-0.001,1.801,0.308,3.637-0.369,5.698
		c-15.193,0-30.437,0-45.852,0c-1.108-1.744-0.551-3.788-0.552-5.706c-0.033-67.453-0.027-134.905-0.034-202.358
		c0-1.829-0.088-3.658-0.135-5.487C1194.406,0,1210.073,0,1225.74,0z"/>
	<path style="fill:#010101;" d="M815.74,0c0.101,1.318,0.29,2.636,0.29,3.954c0.014,68.264,0.015,136.527-0.005,204.791
		c0,1.281,0.322,2.62-0.407,4.067c-15.185,0-30.417,0-45.555,0c-0.789-1.245-0.482-2.424-0.483-3.54
		c-0.016-68.43-0.016-136.861-0.007-205.291c0-1.327,0.109-2.654,0.167-3.982C785.073,0,800.406,0,815.74,0z"/>
	<path style="fill:#111010;" d="M1343.74,291c-0.873-1.801-2.838-1.279-4.249-1.912c-6.246-2.802-10.757-7.135-12.652-13.809
		c-1.921-6.763-0.208-12.791,4.323-18.01c8.028-9.245,23.219-10.006,32.21-1.706c5.913,5.459,8.035,12.295,5.865,19.865
		c-2.329,8.122-8.08,13.095-16.573,14.566c-0.774,0.134-1.704-0.142-1.925,1.006C1348.406,291,1346.073,291,1343.74,291z
		 M1358.449,270.465c0.127-5.689-4.571-10.211-10.272-10.618c-4.667-0.333-10.433,4.256-10.432,10.401
		c0.001,5.443,4.498,10.148,9.989,10.455C1353.184,281.007,1358.323,276.098,1358.449,270.465z"/>
	<path style="fill:#252323;" d="M1581.74,72c-1.765,1.998-1.907,4.717-3.134,6.982c-5.571,10.288-18.051,15.496-29.328,12.169
		c-13.017-3.841-19.217-15.857-18.3-26.42c0.992-11.423,8.865-21.583,22.037-23.396c11.34-1.561,22.417,4.52,27.171,16.473
		c0.418,1.051-0.161,2.742,1.554,3.192C1581.74,64.667,1581.74,68.333,1581.74,72z M1555.829,88.205
		c10.847,0.559,21.373-7.983,21.848-21.096c0.432-11.921-9.215-21.997-20.862-22.153c-12.041-0.161-22.021,9.666-22.016,21.679
		C1534.802,78.273,1544.289,88.003,1555.829,88.205z"/>
	<path style="fill:#9C9999;" d="M1497.74,291c-0.026-0.277-0.061-0.553-0.106-0.827c3.393-0.022,6.786-0.044,10.178-0.066
		c-0.151,0.287-0.175,0.585-0.073,0.893C1504.406,291,1501.073,291,1497.74,291z"/>
	<path style="fill:#050505;" d="M476.691,194.294c0,24.393,0,48.179,0,72.185c-15.489,0-30.716,0-46.164,0
		c0-70.187,0-140.098,0-210.244c13.507,0,26.952,0,40.781,0c1.156,6.64,2.331,13.384,3.612,20.744
		c6.719-10.246,15.609-16.712,26.414-20.418c14.514-4.978,29.115-4.807,43.354,0.969c22.546,9.147,35.582,26.839,41.644,49.587
		c5.356,20.098,5.237,40.497-1.629,60.418c-7.965,23.109-22.842,39.944-46.902,46.215c-23.115,6.025-43.804,1.006-59.737-18.142
		C477.863,195.367,477.608,195.168,476.691,194.294z M475.681,134.165c-0.284,10.154,1.442,19.821,6.867,28.608
		c12.074,19.554,41.526,19.327,52.647-0.737c9.019-16.272,8.949-33.537,2.235-50.478c-4.97-12.541-14.968-19.44-28.66-19.444
		c-13.886-0.004-23.481,7.108-29.04,19.71C476.596,118.93,475.49,126.44,475.681,134.165z"/>
	<path style="fill:#060605;" d="M743.004,213.051c-13.764,0-27.189,0-40.925,0c-1.112-6.377-2.215-12.698-3.321-19.04
		c-1.351,0.335-1.81,1.288-2.44,2.031c-8.623,10.155-19.638,16.19-32.597,18.772c-11.514,2.293-22.819,1.528-33.797-2.796
		c-21.121-8.32-31.73-27.063-29.58-49.015c1.753-17.896,11.646-29.822,27.464-37.469c11.528-5.573,23.879-7.846,36.408-9.541
		c7.739-1.047,15.584-1.201,23.254-2.801c4.252-0.887,8.371-2.375,8.927-7.321c0.543-4.831-1.69-8.676-6.048-11.129
		c-7.008-3.945-14.589-4.212-22.269-3.263c-14.667,1.812-28.235,7.044-41.316,13.696c-2.632,1.339-5.266,2.675-8.328,4.23
		c-4.912-12.269-9.677-24.171-14.569-36.391c3.844-2.019,7.256-4.039,10.849-5.658c12.719-5.728,25.694-10.776,39.586-12.846
		c18.371-2.738,36.453-1.967,53.881,5.217c17.868,7.365,28.017,21.092,32.549,39.482c1.847,7.495,2.346,15.138,2.373,22.784
		c0.108,29.665,0.04,59.33,0.033,88.995C743.137,211.486,743.075,211.984,743.004,213.051z M696.64,140.911
		c-8.323,4.679-17.259,6.087-26.272,7.349c-5.229,0.732-10.508,1.42-15.425,3.626c-3.756,1.685-6.867,3.929-8.311,8.011
		c-3.06,8.651,1.314,16.582,10.566,19.116c5.548,1.52,11.273,1.727,16.819,0.86c14.136-2.211,20.58-11.482,21.985-21.653
		C696.78,152.583,696.768,146.978,696.64,140.911z"/>
	<path style="fill:#060605;" d="M1152.089,213.057c-13.894,0-27.316,0-41.042,0c-1.115-6.391-2.218-12.706-3.324-19.045
		c-1.347,0.334-1.803,1.293-2.433,2.033c-8.63,10.15-19.649,16.168-32.604,18.773c-11.698,2.353-23.217,1.562-34.271-2.952
		c-20.905-8.538-31.421-27.219-29.04-49.352c1.904-17.702,11.788-29.421,27.399-36.974c11.677-5.65,24.189-7.926,36.901-9.587
		c7.579-0.99,15.253-1.172,22.76-2.753c4.269-0.899,8.351-2.387,8.92-7.327c0.558-4.842-1.676-8.682-6.033-11.133
		c-7.008-3.942-14.59-4.214-22.271-3.262c-14.836,1.838-28.546,7.153-41.757,13.923c-2.358,1.209-4.742,2.367-7.122,3.532
		c-0.125,0.061-0.325-0.033-0.49-0.055c-2.151-3.581-12.912-30.446-14.31-35.735c0.696-1.261,2.093-1.549,3.23-2.147
		c14.906-7.837,30.455-14.062,47.158-16.581c18.336-2.765,36.471-1.841,53.854,5.504c17.615,7.443,27.622,21.104,32.091,39.296
		c1.719,6.996,2.318,14.136,2.341,21.286C1152.147,151.164,1152.089,181.828,1152.089,213.057z M1105.507,141
		c-8.272,4.307-16.654,5.948-25.237,7.102c-5.547,0.746-11.173,1.461-16.401,3.799c-3.605,1.612-6.629,3.773-8.146,7.573
		c-3.351,8.39,0.982,16.803,10.042,19.436c5.351,1.556,10.878,1.691,16.316,1.039c15.152-1.816,21.61-11.934,22.887-21.812
		C1105.677,152.647,1105.24,147.192,1105.507,141z"/>
	<path style="fill:#060605;" d="M1523.892,132.451c0.456,17.313-2.488,31.451-9.747,44.553
		c-9.57,17.276-24.141,28.539-42.742,34.502c-22.926,7.35-45.535,6.254-67.297-4.347c-21.897-10.667-35.26-28.328-40.207-52.039
		c-3.589-17.204-3.092-34.448,2.836-51.173c7.587-21.408,22.125-36.344,43.226-44.713c19.062-7.56,38.868-8.462,58.231-2.691
		c30.466,9.08,49.137,29.596,54.697,61.422C1523.873,123.606,1523.583,129.245,1523.892,132.451z M1475.956,134.811
		c-0.041-4.816-0.082-9.63-1.167-14.376c-1.857-8.116-5.244-15.398-11.57-21.006c-12.9-11.438-36.309-9.964-46.664,7.538
		c-3.996,6.754-5.814,14.079-6.398,21.753c-0.871,11.434,0.139,22.625,5.997,32.804c5.859,10.18,14.757,15.468,26.592,15.526
		c11.982,0.059,21.05-5.039,27.107-15.435C1474.691,153.314,1476.22,144.272,1475.956,134.811z"/>
	<path style="fill:#060605;" d="M836.755,136.427c-0.45-17.473,2.618-32.239,10.716-45.743c8.942-14.912,21.466-25.542,37.81-31.694
		c13.98-5.263,28.286-6.602,43.121-5.096c14.234,1.445,27.212,5.954,38.754,14.232c14.858,10.656,24.668,24.947,28.857,42.83
		c4.253,18.154,4.121,36.226-2.01,54.007c-7.57,21.954-22.491,36.99-44.048,45.12c-23.231,8.762-46.552,8.407-69.228-2.005
		c-24.867-11.418-38.927-31.119-43.139-58.107C836.783,144.815,836.941,139.695,836.755,136.427z M884.67,134.768
		c-0.334,9.755,1.365,19.149,6.571,27.61c6.404,10.409,15.924,15.183,28.078,14.638c11.403-0.511,20.153-5.806,25.339-15.868
		c8.321-16.147,8.342-33.027,1.711-49.621c-5.016-12.55-15.006-19.405-28.671-19.407c-13.877-0.002-23.487,7.108-29.026,19.728
		C885.478,119.12,884.422,126.805,884.67,134.768z"/>
	<path style="fill:#EE5227;" d="M181.735,212.664c-5.36,6.386-11.673,11.839-17.467,17.801
		c-11.128,11.452-22.354,22.807-33.344,34.004c-17.803-17.615-35.163-34.79-52.978-52.417
		c43.405-43.947,87.109-87.534,130.987-131.526c-1.668-1.709-3.242-3.345-4.841-4.955c-6.339-6.381-12.705-12.735-19.011-19.148
		c-0.961-0.978-1.699-2.112-3.291-1.274c-0.035-0.625-0.071-1.25-0.106-1.875c1.54,1.088,2.288-0.197,3.159-1.068
		c10.947-10.952,21.892-21.906,32.835-32.863c5.759-5.767,11.513-11.54,16.804-16.845c17.67,17.41,35.174,34.657,53.008,52.229
		c-43.793,43.49-87.501,86.897-130.944,130.04c0.788,2.721,2.42,3.713,3.649,5.016c7.066,7.494,14.817,14.323,21.519,22.17
		C181.744,212.189,181.751,212.426,181.735,212.664z"/>
	<path style="fill:#EE5226;" d="M181.735,212.664c0.016-0.238,0.008-0.475-0.022-0.711c2.009-0.648,3.236-2.29,4.635-3.693
		c41.623-41.764,83.237-83.536,124.856-125.303c0.694-0.696,1.444-1.335,2.007-1.852c17.425,17.344,34.732,34.57,52.46,52.215
		c-43.387,43.52-86.951,87.217-130.392,130.79c-1.848-0.068-2.482-1.405-3.38-2.304c-15.304-15.313-30.573-30.66-45.888-45.962
		C184.761,214.596,183.863,212.771,181.735,212.664z"/>
	<path style="fill:#EE5226;" d="M181.684,53.275c0.035,0.625,0.071,1.25,0.106,1.875c-8.436,9.442-17.753,18.019-26.624,27.032
		c-16.716,16.983-33.52,33.878-50.325,50.772c-16.919,17.009-33.882,33.975-50.835,50.95c-0.57,0.571-1.241,1.04-1.699,1.42
		C34.867,167.918,17.566,150.65,0,133.117C43.285,89.61,86.836,45.836,130.695,1.751c5.594,5.543,11.021,10.869,16.389,16.252
		c11.054,11.084,22.079,22.196,33.101,33.312C180.759,51.895,181.188,52.618,181.684,53.275z"/>
	<path style="fill:#060605;" d="M1251.775,26.784c15.638-2.325,30.894-4.594,46.582-6.926c0,12.054,0,23.797,0,35.975
		c18.288,0,36.191,0,54.399,0c0,12.155,0,23.879,0,36.021c-17.776,0-35.69,0-53.106,0c-1.472,1.174-1.043,2.253-1.044,3.178
		c-0.027,20.488-0.039,40.975,0.005,61.463c0.006,2.975-0.035,5.934,0.823,8.9c2.222,7.682,6.612,11.29,14.672,11.666
		c9.713,0.453,18.661-2.452,27.421-6.197c1.495-0.639,2.793-1.789,4.797-1.794c4.272,10.707,8.559,21.451,12.758,31.976
		c-0.509,1.794-1.983,2.103-3.1,2.664c-17.383,8.724-35.731,13.353-55.253,12.126c-7.942-0.499-15.789-1.95-23.091-5.503
		c-14.923-7.26-22.243-19.776-24.832-35.615c-0.916-5.605-1.05-11.251-1.047-16.919c0.028-41.975,0.015-83.949,0.015-125.924
		C1251.775,30.385,1251.775,28.895,1251.775,26.784z"/>
	<path style="fill:#161515;" d="M1280.784,251.093c4.004,0,7.644,0,11.668,0c2.332,8.646,4.667,17.301,7.001,25.957
		c0.343-0.005,0.686-0.011,1.03-0.016c1.924-8.546,3.848-17.092,5.813-25.821c3.874,0,7.635,0,11.882,0
		c-3.552,12.959-7.03,25.648-10.523,38.394c-4.84,0-9.294,0-14.109,0c-2.338-7.574-4.667-15.121-7.35-23.814
		c-3.681,8.265-4.874,16.241-7.966,23.781c-4.881,0.331-9.815,0.289-15.097,0.014c-3.138-12.785-6.242-25.435-9.391-38.265
		c3.923-0.698,7.71-0.124,11.835-0.395c2.21,8.304,4.367,16.411,6.753,25.375C1276.098,267.867,1277.519,259.327,1280.784,251.093z"
		/>
	<path style="fill:#161515;" d="M1136.036,289.711c-3.316-3.402-5.759-7.387-8.624-11.035c-2.732-3.478-5.396-7.01-8.711-11.327
		c0,8.022,0,14.959,0,22.157c-3.673,0-7.07,0-10.723,0c0-12.707,0-25.295,0-38.2c3.789-0.658,7.717-0.227,11.77-0.238
		c5.128,6.683,10.248,13.356,16.099,20.98c0-7.618,0-14.005,0-20.724c3.915,0,7.487,0,11.365,0c0,12.487,0,25.067,0,37.93
		C1143.607,290.372,1139.82,289.542,1136.036,289.711z"/>
	<path style="fill:#191717;" d="M1382.667,251.025c7.454,0,14.944-0.073,22.431,0.02c7.791,0.097,12.205,2.937,14.011,8.774
		c2.196,7.094,0.161,12.922-6.41,17.577c2.741,3.791,5.488,7.59,8.665,11.985c-4.699,0-8.704,0-13.103,0
		c-2.13-2.941-4.454-6.15-6.741-9.309c-2.44-0.556-4.765-0.212-7.264-0.242c-1.12,3.021-0.059,6.224-0.728,9.526
		c-3.637,0.922-7.348,0.215-10.978,0.358C1381.65,284.202,1381.771,254.764,1382.667,251.025z M1393.94,270.09
		c3.695,0,6.868,0.166,10.015-0.049c2.818-0.193,3.852-1.401,4-4.09c0.081-1.481,0.151-3.025-1.345-4.484
		c-3.952-1.558-8.292-1.474-12.669-0.824C1393.94,263.914,1393.94,266.869,1393.94,270.09z"/>
	<path style="fill:#161515;" d="M1507.812,290.107c-3.393,0.022-6.786,0.044-10.178,0.066c-4.33-0.352-8.458-1.46-12.613-3.316
		c0-3.259,0-6.529,0-10.191c4.542,1.092,8.63,3.34,13.169,3.936c3.59,0.472,7.207,1.224,10.41-1.034
		c0.798-2.376-0.37-3.238-2.277-3.614c-3.249-0.64-6.505-1.251-9.74-1.954c-1.614-0.351-3.255-0.719-4.771-1.351
		c-8.157-3.404-9.589-12.691-2.927-18.549c1.528-1.343,3.288-2.319,5.192-2.855c8.284-2.335,16.349-1.645,24.287,1.872
		c0,3.318,0,6.447,0,10.155c-7.184-2.34-14.165-5.715-21.503-2.648c-0.244,2.503,0.693,3.197,2.184,3.492
		c3.081,0.611,6.165,1.217,9.226,1.922c1.762,0.405,3.515,0.903,5.211,1.526c4.224,1.551,6.934,4.336,7.281,9.076
		c0.383,5.234-1.866,8.959-6.348,11.428C1512.37,289.191,1510.18,289.968,1507.812,290.107z"/>
	<path style="fill:#161515;" d="M1446.629,275.07c0,4.954,0,9.557,0,14.424c-3.926,0-7.512,0-11.468,0c0-12.679,0-25.362,0-38.277
		c3.613,0,7.219,0,11.116,0c1.117,4.354-0.217,9.023,0.672,13.429c1.399,0.764,2.709,0.239,4.141,0.418
		c3.499-4.647,6.978-9.266,10.488-13.927c4.572,0,9.041,0,14.186,0c-5.147,6.317-10.014,12.29-14.979,18.382
		c4.917,6.466,9.821,12.915,15.119,19.882c-4.56,0-8.557,0-13.129,0c-3.594-4.492-7.516-9.393-11.467-14.331
		C1449.915,275.07,1448.598,275.07,1446.629,275.07z"/>
	<path style="fill:#111010;" d="M1195.562,251.275c0,3.008,0,5.637,0,8.767c-7.146,0-14.21,0-21.043,0
		c-1.58,1.927-0.781,3.567-0.884,5.485c5.632,0,11.08,0,16.605,0c0.853,2.887,0.413,5.467,0.47,8.388c-5.733,0-11.165,0-16.817,0
		c-0.674,2.008-0.248,3.781-0.42,6.029c7.775,0,15.354,0,22.909,0c0.763,3.544-1.154,6.274-0.532,9.532c-11.53,0-22.597,0-33.893,0
		c0-12.731,0-25.324,0-38.202C1173.019,251.275,1184.083,251.275,1195.562,251.275z"/>
	<path style="fill:#111010;" d="M1230.65,261.226c0,9.484,0,18.733,0,28.271c-3.596,0.46-6.856,0.27-10.672,0.154
		c0-9.499,0-18.866,0-28.636c-4.944,0-9.358,0-13.964,0c0-3.48,0-6.542,0-9.814c12.459,0,24.716,0,37.302,0
		c0.447,2.986,0.904,6.043,1.398,9.346C1240.127,261.599,1235.489,260.568,1230.65,261.226z"/>
	<path style="fill:#191717;" d="M1562.201,69.354c1.733,3.338,3.172,6.107,4.751,9.148c-1.885,0.944-3.625,0.303-5.421,0.488
		c-1.401-2.619-2.717-5.078-4.121-7.702c-1.582-0.647-3.364-0.333-5.216-0.224c-1.015,2.438,0.005,4.976-0.643,7.398
		c-1.298,1.062-2.811,0.23-4.516,0.675c0-8.289,0-16.326,0-24.898c3.93,0,7.889-0.284,11.787,0.086
		c3.353,0.318,6.729,1.569,7.661,5.314C1567.471,63.614,1566.839,67.319,1562.201,69.354z M1551.937,65.946
		c2.266,0,4.392,0.187,6.469-0.054c1.976-0.23,3.376-1.472,3.244-3.652c-0.115-1.905-1.404-3.01-3.232-3.149
		c-2.093-0.159-4.207-0.037-6.48-0.037C1551.937,61.468,1551.937,63.526,1551.937,65.946z"/>
</g>
</svg>
