<?xml version="1.0" encoding="iso-8859-1"?>
<!-- Generator: Adobe Illustrator 27.0.0, SVG Export Plug-In . SVG Version: 6.00 Build 0)  -->
<svg version="1.1" id="Layer_1" xmlns="http://www.w3.org/2000/svg" xmlns:xlink="http://www.w3.org/1999/xlink" x="0px" y="0px"
	 viewBox="0 0 1498 306" style="enable-background:new 0 0 1498 306;" xml:space="preserve">
<g>
	<path style="fill:#16B8D0;" d="M1498,248c-4.82,4.726-10.192,8.39-17.052,9.572c-1.996,0.344-3.967,0.468-5.943,0.468
		c-21.165-0.005-42.336,0.212-63.491-0.243c-9.755-0.21-19.312-2.166-28.308-6.586c-11.151-5.479-17.882-14.533-22.186-25.722
		c-3.279-8.526-5.05-17.409-6.147-26.492c-1.076-8.909-2.144-17.81-1.747-26.778c0.542-12.257,1.775-24.472,5.948-36.113
		c5.898-16.452,16.835-27.889,33.781-33.289c4.3-1.37,8.668-2.487,13.075-2.639c13.287-0.458,26.56-1.691,39.877-1.012
		c1.979,0.101,3.921,0.135,5.916,0.547c3.088,0.639,6.299,0.397,9.32-0.781c3.072-1.198,4.881-3.448,4.928-6.779
		c0.12-8.475-0.827-16.897-1.536-25.324c-0.396-4.716,0.103-9.272,1.911-13.583c1.763-4.202,5.036-6.22,9.768-6.394
		c7.347-0.27,14.573,1.143,21.885,1.146C1498,114.667,1498,181.333,1498,248z M1437.683,229c0,0.037,0,0.073,0,0.11
		c6.16,0,12.321,0.102,18.478-0.03c5.478-0.118,7.717-2.174,9.012-7.393c0.567-2.286,0.616-4.57,0.799-6.879
		c0.228-2.876-0.966-5.549-0.816-8.395c0.358-6.784,0.193-13.571,0.576-20.377c0.876-15.593,0.068-31.231-0.874-46.822
		c-0.226-3.74-1.23-7.482-4.255-10.329c-3.283-3.09-7.327-3.563-11.478-3.88c-7.166-0.547-14.239,0.84-21.352,1.26
		c-4.045,0.239-8.231,0.568-12.246,1.755c-10.579,3.128-18.061,9.44-21.501,20.16c-1.836,5.722-2.49,11.689-2.848,17.575
		c-0.826,13.598-0.808,27.265,1.975,40.67c1.783,8.588,6.179,15.659,14.61,19.58c3.977,1.85,8.091,2.913,12.439,2.975
		C1426.028,229.062,1431.856,229,1437.683,229z"/>
	<path style="fill:#A0D7E5;" d="M249,306c0.025-0.312,0.005-0.622-0.06-0.928c8.365-0.012,16.729-0.023,25.094-0.035
		c-0.045,0.32-0.056,0.641-0.034,0.963C265.667,306,257.333,306,249,306z"/>
	<path style="fill:#D0E9F0;" d="M0.837,276.047c-0.28,0-0.559-0.016-0.837-0.047c0-8,0-16,0-24c0.291-0.017,0.582-0.03,0.873-0.04
		C0.861,259.989,0.849,268.018,0.837,276.047z"/>
	<path style="fill:#A0D7E5;" d="M30,306c-0.04-0.277-0.079-0.554-0.117-0.832c8.075-0.006,16.15-0.013,24.225-0.019
		c-0.042,0.283-0.078,0.566-0.108,0.85C46,306,38,306,30,306z"/>
	<path style="fill:#A0D7E5;" d="M55,0c0.04,0.278,0.079,0.555,0.117,0.833c-7.728,0.029-15.455,0.058-23.183,0.088
		C31.992,0.616,32.014,0.309,32,0C39.667,0,47.333,0,55,0z"/>
	<path style="fill:#A0D7E5;" d="M254.909,0.882C254.96,0.59,254.99,0.296,255,0c7.333,0,14.667,0,22,0
		c-0.001,0.31,0.02,0.619,0.063,0.926C269.679,0.911,262.294,0.897,254.909,0.882z"/>
	<path style="fill:#1DB9D1;" d="M254.909,0.882c7.385,0.015,14.769,0.029,22.154,0.044c9.24,5.076,17.94,10.801,23.589,20.08
		c5.052,8.299,6.312,17.327,4.873,26.805c-1.824,12.012-8.509,20.995-17.808,28.329c-3.528,2.782-6.55,6.121-9.96,9.053
		c-8.317,7.15-16.446,14.524-24.503,21.967c-3.182,2.939-3.245,6.3-0.767,9.802c0.287,0.406,0.639,0.769,0.971,1.141
		c4.976,5.574,9.979,11.125,14.925,16.725c7.368,8.342,14.72,16.699,22.016,25.105c1.073,1.236,1.93,2.709,2.663,4.184
		c3.059,6.158,2.35,11.394-2.302,15.344c-5.119,4.347-9.879,5.012-16.023,1.474c-5.184-2.985-8.317-8.062-12.244-12.293
		c-6.095-6.567-11.723-13.565-17.698-20.247c-9.636-10.777-19.427-21.415-29.083-32.173c-4.108-4.577-3.858-8.955,0.786-13.017
		c11.496-10.054,23.098-19.986,34.612-30.019c6.389-5.567,12.705-11.22,19.017-16.876c1.735-1.555,3.408-3.192,4.988-4.904
		c7.62-8.262,4.498-20.238-6.205-23.922c-3.438-1.183-6.492-0.061-9.496,1.527c-4.916,2.6-8.708,6.64-12.842,10.197
		c-7.936,6.83-15.522,14.064-23.376,20.991c-12.329,10.873-24.778,21.61-37.134,32.452c-2.627,2.305-5.133,4.757-7.592,7.244
		c-3.311,3.348-3.418,5.806-0.397,9.559c1.975,2.454,4.073,4.816,6.206,7.137c8.887,9.672,17.883,19.244,26.695,28.984
		c10.365,11.455,20.579,23.046,30.86,34.576c5.862,6.574,11.775,13.104,17.583,19.725c11.83,13.485,23.707,26.932,35.359,40.57
		c5.503,6.442,8.782,14.03,9.197,22.61c0.437,9.05-3.045,16.776-8.321,23.907c-5.762,7.786-13.413,13.245-21.618,18.073
		c-8.365,0.012-16.729,0.023-25.094,0.035c-9.004-1.77-16.033-6.974-22.409-13.156c-5.375-5.212-9.561-11.492-14.617-16.985
		c-5.723-6.218-10.709-13.163-17.607-18.258c-3.401-2.512-5.665-2.533-8.827,0.341c-4.429,4.026-8.668,8.266-13.144,12.238
		c-8.451,7.499-16.976,14.915-25.547,22.277c-3.752,3.223-8.353,5.443-13.147,5.193c-8.15-0.426-14.563-5.25-15.628-14.495
		c-0.838-7.276,2.688-12.799,7.88-17.422c7.692-6.848,15.504-13.562,23.15-20.46c10.98-9.906,22.03-19.731,33.407-29.179
		c1.899-1.577,4.037-2.963,6.26-4.031c3.99-1.917,7.958-1.821,11.792,0.761c2.936,1.977,5.429,4.404,7.73,7.033
		c8.64,9.875,17.227,19.797,25.836,29.7c5.669,6.521,10.911,13.435,17.382,19.22c2.331,2.084,4.662,4.138,7.69,5.364
		c3.652,1.479,6.598,0.371,9.057-2.076c2.487-2.475,4.377-5.268,3.279-9.305c-1.512-5.557-5.02-9.821-8.92-13.573
		c-12.615-12.137-23.095-26.183-35.212-38.768c-6.315-6.559-12.369-13.423-18.19-20.479c-3.591-4.353-8.401-5.852-13.465-1.327
		c-4.581,4.094-9.296,8.036-13.883,12.124c-16.378,14.596-32.662,29.299-49.107,43.819c-12.958,11.441-25.82,22.985-38.647,34.572
		c-7.626,6.889-14.816,14.355-23.65,19.8c-5.084,3.134-10.303,6.045-16.294,7.15c-8.075,0.006-16.15,0.013-24.225,0.019
		c-16.027-3.379-25.361-13.433-29.046-29.122c0.012-8.029,0.024-16.058,0.036-24.087c2.078-10.871,8.616-18.884,16.786-25.736
		c4.454-3.736,8.977-7.375,13.145-11.442c4.16-4.059,8.548-7.862,13.138-11.442c1.827-1.425,3.535-3.071,5.026-4.844
		c2.895-3.446,2.895-7.341,0.059-10.897c-1.344-1.685-2.888-3.236-4.486-4.69c-7.04-6.403-12.879-13.882-19.03-21.083
		c-3.342-3.912-6.647-7.857-10.063-11.703c-3.796-4.273-5.953-9.023-5.663-14.917c0.451-9.156,9.047-15.913,18.125-14.53
		c4.758,0.725,8.411,2.828,11.583,6.16c9.28,9.751,18.16,19.864,27.075,29.945c4.185,4.732,8.531,9.322,12.731,14.04
		c4.745,5.331,9.571,10.6,13.82,16.348c6.182,8.362,4.311,13.629-2.066,19.667c-11.822,11.194-23.994,22.032-36.309,32.684
		c-5.78,4.999-11.835,9.654-17.047,15.292c-2.637,2.854-4.796,5.898-5.584,9.77c2.391,7.391,6.638,10.504,12.983,9.423
		c3.071-0.523,5.536-2.373,7.659-4.419c7.424-7.155,15.085-14.04,22.855-20.812c10.519-9.168,21.033-18.341,31.475-27.595
		c4.976-4.41,9.869-8.921,14.643-13.548c4.475-4.337,4.602-6.947,0.594-12.006c-3.087-3.897-6.392-7.629-9.712-11.334
		c-9.869-11.014-19.825-21.951-29.689-32.97c-13.964-15.599-27.92-31.205-41.794-46.885c-8.914-10.075-17.739-20.231-26.477-30.458
		C9.224,67.624,4.775,60.632,2.945,52.333C-1.442,32.426,5.685,15.285,22.928,5.068c2.834-1.679,5.763-3.291,9.007-4.148
		c7.728-0.029,15.455-0.058,23.183-0.088c7.709,0.725,14.133,4.309,20.187,8.863c7.815,5.879,13.307,13.878,19.6,21.143
		c3.588,4.142,6.893,8.521,10.832,12.363c7.202,7.024,11.68,6.652,18.825,1.684c7.91-5.5,15.521-11.41,22.302-18.308
		c5.016-5.103,10.041-10.197,16.195-13.976c5.501-3.378,14.539-4.628,20.47,0.721c5.451,4.916,8.568,12.359,3.35,20.384
		c-2.024,3.112-4.637,5.643-7.211,8.237c-12.658,12.753-26.355,24.353-39.967,36.052c-6.046,5.196-12.003,10.5-17.924,15.838
		c-6.189,5.58-11.045,5.686-16.829-0.437c-5.469-5.791-10.523-11.974-15.736-18.006c-3.036-3.513-5.921-7.163-9.06-10.58
		c-6.412-6.981-12.968-13.83-19.428-20.767c-2.601-2.794-4.978-5.805-7.68-8.493c-4.499-4.474-8.485-4.812-12.773-1.387
		c-5.748,4.593-6.962,9.128-3.263,14.627c2.389,3.551,5.411,6.704,8.337,9.861c13.892,14.988,27.565,30.165,40.811,45.732
		c3.547,4.169,6.882,8.55,10.935,12.294c5.637,5.208,9.526,5.465,15.868,0.898c5.957-4.29,10.842-9.786,16.34-14.601
		c16.871-14.774,33.408-29.928,50.206-44.786c9.459-8.367,18.849-16.807,28.232-25.257c6.78-6.107,13.826-11.929,20.917-17.676
		c2.346-1.901,4.495-3.97,6.507-6.157c3.053-3.319,6.672-5.329,11.082-6.152C249.159,2.404,252.022,1.58,254.909,0.882z
		 M179.123,154.618c-0.051-0.261-0.046-1.502-0.528-2.51c-4.998-10.454-12.141-18.927-22.674-24.218
		c-2.044-1.027-4.06-1.291-6.2-0.274c-9.128,4.337-16.241,10.785-20.941,19.804c-1.159,2.224-1.238,4.487-0.202,6.709
		c4.839,10.377,12.044,18.572,22.294,23.919c2.718,1.418,5.409,1.293,8.115-0.045c6.203-3.065,11.572-7.228,15.784-12.694
		C176.965,162.461,179.304,159.496,179.123,154.618z"/>
	<path style="fill:#3D3C3E;" d="M355.098,159.243c0-24.652-0.013-49.304,0.009-73.956c0.006-6.318,0.202-12.616,1.887-18.784
		c2.295-8.4,7.646-13.82,15.865-16.394c5.106-1.599,10.387-2.068,15.743-2.144c14.151-0.2,28.299-0.135,42.451-0.015
		c16.152,0.136,32.308-0.253,48.459-0.097c7.464,0.072,14.934-0.042,22.406,1.064c18.067,2.676,30.121,12.527,35.886,29.688
		c5.185,15.435,6.909,31.358,5.492,47.654c-0.737,8.479-2.031,16.814-4.313,24.992c-5.569,19.957-19.689,30.766-40.956,32.762
		c-7.962,0.747-15.94,0.719-23.922,0.709c-17.49-0.021-34.979,0.004-52.469-0.017c-3.154-0.004-6.299,0.081-9.46-0.397
		c-2.28-0.345-4.664-0.217-6.983-0.05c-7.323,0.528-9.207,2.606-9.186,10.085c0.048,17.145,0.144,34.289,0.203,51.434
		c0.006,1.828,0.013,3.669-0.181,5.482c-0.423,3.945-2.368,6.314-6.183,6.627c-8.272,0.68-16.585,1.093-24.854-0.012
		c-5.188-0.693-8.108-3.868-8.926-9.256c-0.826-5.441-0.965-10.927-0.966-16.418C355.095,207.881,355.098,183.562,355.098,159.243z
		 M438.122,81.001c-9.993,0-19.987-0.024-29.98,0.007c-8.661,0.027-12.099,3.437-12.123,12.118
		c-0.018,6.326,0.192,12.653,0.182,18.98c-0.015,10.158-0.173,20.315-0.184,30.473c-0.008,6.98,2.234,9.193,9.315,9.177
		c3.649-0.009,7.296-0.364,10.947-0.456c9.794-0.247,19.581,0.481,29.387,0.05c7.149-0.314,14.323-0.013,21.485-0.076
		c5.985-0.053,11.909-0.423,17.765-2.028c8.441-2.314,13.236-7.765,15.146-16.102c2.613-11.402,2.225-22.775-0.598-34.045
		c-2.845-11.359-9.471-16.214-21.431-17.204C464.733,80.793,451.432,80.964,438.122,81.001z"/>
	<path style="fill:#20B9D1;" d="M942.643,255.869c-1.936-5.503-0.604-10.448-0.765-15.353c-0.966-29.446-0.983-58.904-0.545-88.349
		c0.148-9.947,0.29-19.923,0.745-29.876c0.16-3.493,1.171-6.837,2.418-10.088c1.975-5.153,5.777-8.351,10.901-10.191
		c6.176-2.217,12.674-2.666,19.066-2.743c22.321-0.266,44.677-0.828,66.965,0.082c27.454,1.12,54.897-0.176,82.326,0.777
		c10.836,0.377,20.927,3.435,29.314,10.666c7.207,6.214,10.801,14.51,12.92,23.576c1.418,6.066,0.809,12.234,1.052,18.362
		c1.233,31.108,0.577,62.233,0.885,93.349c0.008,0.833,0.02,1.666-0.002,2.499c-0.177,6.83-2.633,9.504-9.345,9.421
		c-3.846-0.047-7.534,1.046-11.388,0.915c-2.849-0.097-5.605-0.678-8.348-1.149c-4.017-0.691-6.447-4.274-6.735-9.33
		c-0.227-3.987-0.178-7.993-0.18-11.99c-0.013-26.155,0.058-52.311-0.06-78.465c-0.025-5.439-0.644-10.862-2.282-16.147
		c-2.04-6.579-6.441-10.687-12.779-12.829c-3.602-1.218-7.293-2.132-11.176-2.082c-6.162,0.078-12.325,0.008-18.488,0.013
		c-0.999,0.001-2.004,0.001-2.995,0.107c-6.614,0.707-9.387,3.903-10.308,10.564c-0.962,6.962-0.816,13.919-0.819,20.886
		c-0.012,28.988,0.036,57.976,0.061,86.964c0.001,1.333,0.037,2.667-0.021,3.998c-0.287,6.554-4.156,9.58-10.865,8.772
		c-5.305-0.639-10.665-0.47-15.967-0.078c-6.226,0.461-8.412-2.818-9.125-8.611c-0.141-1.149-0.028-2.33-0.027-3.496
		c0.03-35.652,0.06-71.304,0.091-106.956c0.001-1.166,0.02-2.333-0.004-3.499c-0.143-7.036-1.887-8.741-9.008-8.748
		c-12.826-0.012-25.652-0.033-38.478,0.008c-7.473,0.024-10.608,3.039-10.773,10.493c-0.125,5.66,0.016,11.326,0.021,16.99
		c0.029,29.82,0.044,59.639,0.094,89.459c0.005,3.011-0.141,5.967-1.298,8.796c-1.232,3.012-3.413,4.877-6.635,5.371
		c-3.237,0.496-6.363,0.952-9.786,0.304c-4.029-0.763-8.296-0.323-12.46-0.309C946.422,257.956,944.217,257.557,942.643,255.869z"/>
	<path style="fill:#3D3C3E;" d="M526.972,256.704c15.55-36.984,31.007-73.673,46.402-110.387
		c10.714-25.551,21.328-51.144,32.025-76.703c1.473-3.519,3.176-6.922,5.418-10.059c4.971-6.956,11.575-11.526,19.941-13.051
		c8.286-1.51,16.606-1.233,24.558,1.953c10.461,4.191,16.402,12.563,20.53,22.583c7.139,17.33,14.273,34.663,21.521,51.948
		c17.645,42.075,35.349,84.125,53.049,126.177c1.099,2.61,2.028,5.249,2.427,8.048c-1.067,1.31-2.487,0.749-3.716,0.762
		c-10.493,0.116-20.987,0.107-31.48,0.265c-4.381,0.066-7.148-1.775-8.811-5.852c-4.95-12.132-10.283-24.108-14.747-36.437
		c-0.564-1.557-1.121-3.131-1.865-4.605c-1.59-3.148-4.038-5.073-7.666-5.694c-2.833-0.485-5.658-0.6-8.456-0.392
		c-12.478,0.929-24.968,0.269-37.45,0.431c-8.164,0.106-16.331,0.077-24.495-0.002c-4.818-0.047-9.634-0.438-14.451-0.444
		c-7.747-0.011-10.253,2.027-12.87,9.173c-3.708,10.126-7.902,20.054-12.583,29.783c-4.589,9.538-11.793,14.488-22.553,14.039
		c-6.321-0.264-12.654-0.258-18.98-0.419C530.917,257.778,529.084,257.748,526.972,256.704z M602.15,175.352
		c6.552,0.94,72.51,0.616,75.921-0.388c0.2-1.224-0.494-2.22-0.914-3.281c-6.947-17.559-13.898-35.115-20.85-52.672
		c-3.78-9.545-7.541-19.098-11.357-28.628c-0.985-2.459-2.002-4.992-4.966-5.322c-2.325,0.578-3.037,2.29-3.727,3.998
		c-11.034,27.348-22.076,54.692-33.046,82.065C602.686,172.438,601.581,173.719,602.15,175.352z"/>
	<path style="fill:#3D3C3E;" d="M716.536,47.166c11.057,0.163,21.866,0.212,32.673-0.144c4.722-0.155,7.86,2.457,9.774,6.504
		c1.7,3.596,3.131,7.323,4.599,11.025c18.954,47.798,37.898,95.599,56.82,143.409c0.913,2.308,1.587,4.71,2.389,7.062
		c0.72,2.109,1.576,4.073,4.266,4.228c2.978,0.172,4.092-1.93,4.868-4.167c6.362-18.349,14.109-36.157,21.149-54.24
		c12.752-32.756,25.611-65.47,38.472-98.183c1.576-4.008,3.228-7.992,6.296-11.222c2.659-2.798,5.751-4.449,9.626-4.574
		c0.499-0.016,1.006-0.124,1.495-0.069c10.426,1.162,20.874,0.953,31.363,0.211c0.479,1.7-0.351,2.786-0.824,3.911
		c-20.24,48.162-40.471,96.329-60.768,144.467c-6.116,14.507-12.434,28.929-18.632,43.402c-4.114,9.607-10.882,16.181-21.229,18.656
		c-7.722,1.847-15.483,2.001-23.195,0.011c-9.639-2.487-16.487-8.468-20.585-17.435c-3.792-8.296-7.307-16.721-10.843-25.132
		c-21.724-51.671-43.419-103.353-65.12-155.033c-0.835-1.988-1.527-4.042-2.464-5.979C715.661,51.798,715.535,49.773,716.536,47.166
		z"/>
	<path style="fill:#1EB9D1;" d="M1282.001,257.929c-14.829,0-29.664,0.25-44.485-0.091c-9.357-0.215-18.337-2.601-26.496-7.44
		c-11.2-6.643-17.859-16.713-20.914-29.096c-2.579-10.452-4.033-21.133-4.097-31.941c-0.051-8.496-0.257-17.006,0.14-25.485
		c0.442-9.415,1.357-18.895,4.115-27.915c4.602-15.051,14.544-25.47,29.383-30.982c8.721-3.239,17.832-4.733,27.011-6.082
		c10.29-1.512,20.608-1.266,30.867-0.68c10.054,0.574,20.128,2.282,29.529,6.022c14.526,5.778,24.112,16.75,29.822,31.1
		c3.153,7.924,4.699,16.23,4.064,24.819c-0.48,6.492-1.957,12.774-4.968,18.557c-4.454,8.554-12.125,12.014-21.3,12.153
		c-14.825,0.223-29.656,0.058-44.485,0.057c-13.163-0.001-26.327-0.032-39.49,0.015c-5.93,0.021-7.254,1.19-6.751,7.105
		c0.66,7.759,2.101,15.343,6.417,22.156c2.606,4.114,6.431,6.34,10.745,7.529c2.959,0.816,6.105,1.359,9.321,1.333
		c11.162-0.091,22.325,0.03,33.488,0.119c3.14,0.025,6.271-0.211,9.409,0.628c2.772,0.741,5.57-0.572,8.369-0.612
		c7.996-0.114,15.995-0.173,23.991-0.095c6.169,0.06,8.363,2.391,8.39,8.527c0.02,4.498-0.233,9.012,0.07,13.489
		c0.27,3.988-3.053,7.101-7.161,7.042c-14.991-0.214-29.988-0.085-44.982-0.085C1282.001,258.027,1282.001,257.978,1282.001,257.929
		z M1225.4,161.655c2.193,0.758,4.036,0.496,5.85,0.495c20.642-0.011,41.285-0.066,61.927-0.055c6.128,0.003,8.45-2.006,8.814-8.137
		c0.623-10.497-4.396-18.114-13.367-22.507c-16.768-8.211-33.876-7.882-50.776,0.061c-7.06,3.318-11.451,9.013-13.287,16.471
		C1223.423,152.605,1222.923,157.408,1225.4,161.655z"/>
</g>
</svg>
