<?xml version="1.0" encoding="iso-8859-1"?>
<!-- Generator: Adobe Illustrator 27.0.0, SVG Export Plug-In . SVG Version: 6.00 Build 0)  -->
<svg version="1.1" id="Layer_1" xmlns="http://www.w3.org/2000/svg" xmlns:xlink="http://www.w3.org/1999/xlink" x="0px" y="0px"
	 viewBox="0 0 303 303" style="enable-background:new 0 0 303 303;" xml:space="preserve">
<g>
	<path style="fill:#ECEBEB;" d="M209.001,291.998c-1.85,0.479-3.699,0.957-5.8,1.501c2.13,1.029,4.184,0.021,6.072,1.303
		c-3.872,0-7.743,0-12.438,0c2.147,1.944,4.153,0.481,5.585,1.684c-0.914,0.959-2.065,0.4-3.081,0.499
		c-3.827,0.374-7.976-1.158-11.333,1.952c-5.616-0.413-10.689,3.166-16.445,2.128c-2.243-0.405-4.623-0.052-6.94-0.048
		c-1.348,0.003-1.579,0.914-1.622,1.982c-9,0-18,0-27,0c0.047-1.473-0.672-1.96-2.129-2.029c-6.081-0.286-11.907-1.934-17.785-3.376
		c-6.195-1.52-12.291-3.348-18.244-5.589c-7.048-2.653-14.109-5.327-20.344-9.74c-0.901-0.638-1.562-1.125-1.505-2.258
		c1.947-0.056,3.434,1.141,4.958,2.025c12.668,7.343,26.492,11.586,40.566,15.092c1.634,0.407,3.738,1.307,5.492-0.227
		c0.999,0.023,1.999,0.045,2.998,0.068c2.429,2.575,3.602,2.74,7.003,0.985c1.723-0.138,3.14,1.464,4.943,0.87
		c0.822,1.95,2.547,1.095,3.886,1.148c10.175,0.406,20.329,0.091,30.316-2.036c4.431-0.944,9.004-1.229,13.306-2.869
		c1.178-0.449,1.554-0.999,1.525-2.091c0.663-0.025,1.326-0.049,1.988-0.074c1.907,2.391,3.36-0.466,5.071-0.564
		c1.059-0.061,3.327,0.094,2.949-2.345c0.99-0.371,1.807-1.224,2.985-1.066c0.223,0.717,0.724,1.16,1.422,0.812
		c0.645-0.322,0.576-1.097,0.593-1.746c0.989-0.376,1.82-1.182,2.979-1.095c2.319,1.04,4.463,0.023,6.036-2.862
		c4.991-2.661,9.702-5.834,14.899-8.115c1.492,0.235,2.182-0.41,2.094-1.909c0.307-0.03,0.615-0.055,0.922-0.074
		c1.48,0.207,2.17-0.437,2.078-1.926c0.307-0.03,0.614-0.055,0.922-0.074c2.069,0.149,3.043-0.878,3.1-2.888
		c0.298-0.053,0.599-0.09,0.901-0.11c1.5,0.199,2.19-0.448,2.05-1.963c0.307-0.989,1.146-0.979,1.949-1.038
		c2.56-0.078,3.865-1.443,4.053-3.953l0.004-0.003c1.446,0.147,2.118-0.508,2.03-1.954c1.303-1.043,2.607-2.087,3.91-3.13
		c0.687,0.03,1.374,0.059,2.061,0.089l0.044,0.043c0.174,2.77-1.356,4.692-3.443,6.065c-4.927,3.241-7.982,8.604-13.216,11.499
		c-0.527,0.292-0.587,1.429-0.896,2.262c-1.384,0.095-2.669,0.183-4.139,0.284c0.413,0.519,0.7,0.879,1.327,1.665
		c-4.386-0.283-8.246,1.735-10.966,3.91c-2.958,2.366-6.205,4.074-9.337,5.936c-2.015,1.198-4.518,1.67-6.361,3.352
		C208.998,292.002,209.001,291.998,209.001,291.998z"/>
	<path style="fill:#ECEBEB;" d="M107.996,7.998c1.334-0.004,2.668-0.007,4.003-0.011c0.566-0.094,0.892-0.428,0.995-0.988
		c1.829,0.448,3.257-1.055,5-1.025c1.067-0.128,2.396,0.55,3.005-0.98c2.769,0.482,5.23-1.471,7.996-1.012
		c2.136,0.463,3.884-1.406,6.01-0.999c1.913-0.148,3.896,0.418,5.835-0.494c0.056-0.872,0.108-1.68,0.16-2.488c1.667,0,3.333,0,5,0
		c-0.023,1.408,0.603,2.014,2.075,2.017c6.324,0.011,12.67-0.333,18.929,0.969c5.078-0.659,10.003,0.878,15.024,1.161
		c3.102,0.175,6.012,2.139,9.316,2.195c0.671,0.011,0.566,1.049,0.657,1.675c-0.036,0.849-0.143,1.876-1.136,1.909
		c-2.98,0.1-6.034,0.408-8.934-0.091c-5.654-0.973-11.284-1.862-17.039-1.852c-2.281,0.004-4.534-0.363-6.802-0.695
		c-4.007-0.587-8.245-0.947-12.274,0.351c-1.651,0.532-3.425,0.71-4.88,0.263c-2.999-0.921-5.773-0.032-8.552,0.513
		c-1.284,0.252-2.539,0.532-3.854,0.599c-6.696,0.341-13.394,0.661-19.999,1.953c-0.752,0.147-1.236-0.283-1.537-0.942
		C107.328,9.349,107.662,8.674,107.996,7.998z"/>
	<path style="fill:#D8D9D9;" d="M12.997,95c0.617-1.684,2.063-3.034,2.008-4.988c0.657-0.007,1.313-0.014,1.97-0.022
		c0.253,1.425-0.742,2.464-1.204,3.643c-2.351,5.993-5.036,11.872-5.751,18.374c-0.289,0.592-0.741,1.158-0.842,1.78
		c-1.099,6.785-2.705,13.451-3.468,20.338c-0.974,8.79-0.436,17.518-0.671,26.268c-0.019,0.704,0.154,1.29,0.849,1.609
		c0.17,2.655,0.341,5.309,0.511,7.964c-0.097,0.614-0.195,1.229-0.292,1.843c-0.144,0.619-0.486,1.051-1.13,1.199
		c-2.974-1.239-1.676-3.888-1.982-6.007c-0.169-1.586,0.465-3.27-0.614-4.874C1.616,162.086,0.808,162.043,0,162
		c0-1.667,0-3.333,0-5c1.423,0.049,2.165-0.591,2.001-2.059c-0.749-6.702,1.125-13.272,0.995-19.942
		c1.26-7.38,2.031-14.798,4.309-22.052c1.653-5.262,3.42-10.547,4.706-15.943C13.058,96.689,12.995,95.828,12.997,95z"/>
	<path style="fill:#ECEBEB;" d="M303,164c-0.676-0.008-1.352-0.017-2.029-0.025c-0.334-0.993-0.982-1.669-1.995-1.976
		c0.009-6.333,0.018-12.666,0.027-18.999c1.361-0.698,1.307-1.364-0.043-2.003c0.538-1,0.448-1.901,0.125-3.047
		c-0.542-1.922-1.506-3.832-1.081-5.95c0.569-0.107,0.895-0.457,1.015-1.013c2.739,1.071,1.791,3.471,1.987,5.47
		c0.143,1.459-0.749,3.535,1.994,3.542C303,148,303,156,303,164z"/>
	<path style="fill:#CECFD0;" d="M4.977,173.008c0.643-0.148,0.986-0.58,1.13-1.199c0.293,0.103,0.595,0.16,0.905,0.17
		c-0.334,1.884,0.639,3.542,0.983,5.3c3.156,16.114,8.653,31.381,17.137,45.476c3.396,5.641,7.204,11.034,10.825,16.54
		c-2.346,2.221-3.284-0.982-4.973-1.291c-0.266-2.706-2.679-3.98-3.992-5.988c-0.406-1.772-0.339-3.892-2.966-4.028
		c-1.893-2.382-1.342-6.011-4.065-7.97c-1.192-2.73-1.127-6.086-3.98-7.987c0.22-1.185-0.659-2.002-1.005-2.997
		c0.144-1.738,0.039-3.355-1.978-4.034c-0.016-0.323-0.022-0.646-0.02-0.969c-2.082-7.632-4.925-15.062-6.027-22.955
		c-0.141-1.008-0.895-1.729-1.901-2.086c0,0-0.051,0.01-0.051,0.01c0.014-0.668,0.027-1.336,0.041-2.003
		c1.263-0.693,1.223-1.359-0.043-1.998C4.99,174.335,4.984,173.672,4.977,173.008z"/>
	<path style="fill:#D8D9D9;" d="M127.011,296.897c-1.754,1.534-3.858,0.634-5.492,0.227c-14.074-3.506-27.898-7.749-40.566-15.092
		c-1.524-0.883-3.011-2.081-4.958-2.025c-0.109-0.554-0.438-0.887-0.994-0.994c-0.286-1.098-1.173-0.998-2.006-1.005
		c-2.271-0.577-4.361-1.382-5.007-3.995l0.028-0.028c0.697-0.018,1.395-0.036,2.092-0.054c4.689,2.002,8.907,4.895,13.329,7.366
		c9.386,5.246,19.448,8.508,29.598,11.713C117.656,294.47,122.742,294.22,127.011,296.897z"/>
	<path style="fill:#D8D9D9;" d="M30.984,238.004c1.689,0.309,2.627,3.512,4.973,1.291c1.772,1.206,2.943,2.929,4.051,4.707
		c-0.464,2.253,0.677,3.157,2.753,3.277c0.177,1.462,0.354,2.925,0.473,3.902c1.783,3.125,5.358,4.209,5.912,7.688
		c-1.331,0.348-2.176-0.41-3.036-1.258c-5.287-5.214-9.638-11.247-14.617-16.73C30.761,240.077,31.048,238.984,30.984,238.004z"/>
	<path style="fill:#A3A4A7;" d="M49.145,258.87c-0.554-3.478-4.129-4.563-5.912-7.688c-0.118-0.978-0.295-2.44-0.473-3.902
		c0,0,0.286-0.319,0.286-0.319c4.728,4.59,9.457,9.181,14.185,13.771c-0.122,0.142-0.249,0.28-0.381,0.414
		c-2.347,0.125-4.521-0.665-6.729-1.275C49.562,259.766,49.211,259.457,49.145,258.87z"/>
	<path style="fill:#D8D9D9;" d="M50.123,259.87c2.208,0.61,4.382,1.4,6.729,1.275c0.063,2.988,1.927,4.646,4.39,5.769
		c2.634,1.201,5.2,2.45,6.784,5.044c-0.003,0.676-0.007,1.351-0.01,2.027l-0.028,0.028c-2.666,0.511-4.471-1.388-6.027-2.806
		c-3.79-3.453-7.742-6.684-11.721-9.901C49.982,261.098,50.151,260.361,50.123,259.87z"/>
	<path style="fill:#D8D9D9;" d="M5.05,178.99c1.006,0.357,1.761,1.078,1.901,2.086c1.102,7.893,3.945,15.324,6.027,22.955
		c-0.622-0.12-1.472,0.055-1.712-0.701C8.728,195.337,5.902,187.415,5.05,178.99z"/>
	<path style="fill:#ECEBEB;" d="M15.981,212.032c2.853,1.902,2.788,5.258,3.98,7.987c-1.79,0.22-2.289-1.267-2.587-2.394
		C16.885,215.773,15.642,214.086,15.981,212.032z"/>
	<path style="fill:#D8D9D9;" d="M24.026,227.989c2.627,0.136,2.56,2.256,2.966,4.028C24.362,231.883,24.425,229.766,24.026,227.989z
		"/>
	<path style="fill:#D8D9D9;" d="M12.998,205.001c2.017,0.679,2.122,2.295,1.978,4.034C11.937,208.857,13.342,206.5,12.998,205.001z"
		/>
	<path style="fill:#D8D9D9;" d="M4.997,174.999c1.266,0.639,1.306,1.305,0.043,1.998c-0.344,0-0.687-0.001-1.031-0.001
		C4.022,176.174,3.952,175.311,4.997,174.999z"/>
	<path style="fill:#ECEBEB;" d="M72.994,278.008c0.833,0.007,1.72-0.093,2.006,1.005C73.457,280.292,73.457,280.292,72.994,278.008z
		"/>
	<path style="fill:#D8D9D9;" d="M106.994,10.025c0.301,0.659,0.786,1.089,1.537,0.942c6.604-1.292,13.303-1.612,19.999-1.953
		c1.315-0.067,2.57-0.347,3.854-0.599c2.779-0.545,5.553-1.433,8.552-0.513c1.455,0.447,3.23,0.269,4.88-0.263
		c4.028-1.299,8.266-0.939,12.274-0.351c2.267,0.332,4.521,0.699,6.802,0.695c5.755-0.01,11.385,0.879,17.039,1.852
		c2.9,0.499,5.955,0.191,8.934,0.091c0.994-0.033,1.1-1.06,1.136-1.909c2.507-0.066,4.45,1.597,6.555,2.205
		c1.993,0.575,4.216,0.949,6.237,1.749c1.364,0.54,2.645,1.272,4.186,1.051c0.143,3.562,2.793,2.913,5.014,2.985
		c0.331,0.002,0.662,0.006,0.993,0.011c0.832,1.187,1.663,2.375,2.568,3.667c1.625-1.063,2.454-0.588,2.439,1.319
		c-4.432,0.061-8.457-1.328-12.585-2.868c-5.076-1.893-10.786-1.567-15.552-4.003c-0.944,0.667-0.782,1.383-0.895,2.008
		c-0.659-0.134-1.318-0.269-1.978-0.403c-0.262-0.553-0.706-0.724-1.285-0.616c-1.138-0.193-2.302-0.295-3.411-0.594
		c-5.927-1.6-11.935-2.798-18.027-3.493c-10.737-1.225-21.437-1.379-32.247-0.161c-8.272,0.932-16.307,2.585-24.289,4.758
		c-10.437,2.842-20.079,7.59-29.707,12.374c-2.283-0.112-4.399,0.285-6.603,1.104c-2.293,0.853-4.678,2.99-7.411,0.898
		c3.661-2.262,7.488-4.317,10.012-8.001c0.825-0.011,1.683,0.045,1.988-1c4.332-1.335,8.293-3.413,12.001-5.997
		c2.486-0.646,5.13-0.922,6.999-3.004c0.823-0.012,1.685,0.058,2.008-0.979c2.125,0.408,3.967-0.833,5.989-1.03
		C105.665,10.007,106.329,10.016,106.994,10.025z"/>
	<path style="fill:#C3C4C6;" d="M298.004,132.001c-0.425,2.118,0.539,4.028,1.081,5.95c0.323,1.145,0.413,2.046-0.125,3.047
		c-1.243,0.695-1.216,1.362,0.043,2.003c-0.009,6.333-0.018,12.666-0.027,18.999c-1.383,0.993-1.396,1.993-0.014,2.999
		c-1.173,2.835-0.518,5.919-1.103,8.782c-2.066,10.103-4.086,20.254-7.956,29.86c-1.3,3.227-1.993,6.9-4.957,9.287
		c0.039-1.645,0.22-3.177,0.918-4.785c3.321-7.648,6.097-15.501,7.875-23.669c0.262-1.203,0.908-2.635-0.766-3.474
		c0.096-1.155,0.06-2.34,0.309-3.461c1.712-7.737,2.904-15.527,2.619-23.485c0.287-7.104,0.501-14.216-0.408-21.287
		c-0.77-5.99-1.608-11.982-3.536-17.748c0.267-2.73-1.621-5.169-1.073-7.937c0.396-0.051,0.791-0.101,1.187-0.152
		c0.528,0.163,0.848,0.519,0.981,1.051c-0.011,0.67-0.021,1.341-0.032,2.011c0.49,3.807,1.244,7.542,2.985,11.009
		c0.021,0.987,0.041,1.974,0.062,2.961C297.179,126.528,296.253,129.587,298.004,132.001z"/>
	<path style="fill:#D8D9D9;" d="M292.069,106.93c-0.396,0.051-0.791,0.101-1.187,0.152c-3.265-5.197-3.61-11.535-6.682-16.891
		c-1.003-1.749-1.805-3.641-3.15-5.216c0.013-1.352-0.421-2.458-1.139-3.681c-2.147-3.66-3.97-7.51-5.919-11.286
		c1.527-0.118,2.357,0.704,3.037,1.992c1.439,2.727,3.023,5.376,4.509,8.079c0.555,1.009,0.957,2.135,2.442,1.939
		c-0.486,2.973,2.402,4.487,3.018,6.983c-0.125,3.73,2.727,6.371,3.613,9.739c0.053,0.2,0.89,0.193,1.362,0.283
		c0.011,0.99,0.022,1.981,0.034,2.971c0.019,1.014,0.038,2.028,0.057,3.042C292.066,105.667,292.067,106.299,292.069,106.93z"/>
	<path style="fill:#ECEBEB;" d="M219.994,21.004c0.016-1.908-0.814-2.382-2.439-1.319c-0.905-1.292-1.737-2.48-2.568-3.667
		c3.026-0.317,5.184,1.823,7.602,2.963c7.738,3.65,14.504,8.93,21.546,13.733c1.087,0.742,2.054,1.737,1.859,3.293
		c-1.001,0.002-2.002,0.003-3.003,0.005c-0.993-0.675-1.986-1.351-2.979-2.026c0.093-1.434-0.583-2.09-2.01-1.987
		c-1.375-0.633-1.359-2.586-3.016-3.034c-2.202-0.594-3.693-2.339-5.496-3.581C226.637,23.423,223.726,21.213,219.994,21.004z"/>
	<path style="fill:#ECEBEB;" d="M247,37c1.077-0.147,1.999,0.325,2.754,0.95c3.901,3.226,8.161,6.134,10.252,11.044l-0.011,0.011
		c-0.663-0.004-1.326-0.009-1.988-0.013c-0.301-1.044-1.168-0.981-1.985-1.014c0.077-1.425-0.59-2.091-2.019-1.981l0,0
		c0.105-1.441-0.561-2.109-2.004-1.996c-2.09-1.641-4.533-2.981-5.065-5.949C246.955,37.702,246.977,37.351,247,37z"/>
	<path style="fill:#ECEBEB;" d="M296.065,123.961c-0.021-0.987-0.041-1.974-0.062-2.961c2.289-1.428,0.12-3.219-0.227-4.185
		c-0.817-2.272,0.399-5.529-2.758-6.824c0.011-0.67,0.021-1.341,0.032-2.011c0.801,0.057,1.603,0.115,2.43,0.174
		c2.191,5.694,2.943,11.628,4.471,17.359c0.196,0.733-0.31,1.205-0.966,1.486C297.368,126.604,298.611,123.462,296.065,123.961z"/>
	<path style="fill:#ECEBEB;" d="M283.981,82.018c-1.485,0.195-1.887-0.93-2.442-1.939c-1.486-2.703-3.07-5.352-4.509-8.079
		c-0.679-1.288-1.51-2.11-3.037-1.992l-0.001-0.002c0.494-1.831-1.062-3.253-1-4.998l0.017-0.017
		c0.846,0.004,1.693,0.09,2.231,0.829c3.281,4.503,5.846,9.446,8.654,14.237C284.188,80.556,283.964,81.357,283.981,82.018z"/>
	<path style="fill:#ECEBEB;" d="M260.006,48.994c0.477,0.059,1.068-0.043,1.414,0.202c3.135,2.218,4.842,5.526,6.585,8.799
		l-0.018,0.018c-0.992-0.006-1.985-0.013-2.977-0.019c-1.05-0.306-0.972-1.181-1.007-1.998c0.104-1.445-0.579-2.096-2.01-1.99
		c-0.967-0.37-1.645-1.026-1.987-2.014c-0.003-0.996-0.007-1.991-0.01-2.987L260.006,48.994z"/>
	<path style="fill:#ECEBEB;" d="M291.975,99.023c-0.472-0.09-1.309-0.083-1.362-0.283c-0.887-3.368-3.738-6.009-3.613-9.739
		c0.475,0.081,1.32,0.063,1.371,0.257C289.269,92.628,292.153,95.269,291.975,99.023z"/>
	<path style="fill:#D8D9D9;" d="M296.065,123.961c2.546-0.499,1.303,2.643,2.919,3.038c0.012,1.33,0.023,2.659,0.035,3.989
		c-0.12,0.556-0.446,0.906-1.015,1.013C296.253,129.587,297.179,126.528,296.065,123.961z"/>
	<path style="fill:#ECEBEB;" d="M213.993,16.007c-2.221-0.072-4.871,0.577-5.014-2.985C210.812,13.747,213.58,12.9,213.993,16.007z"
		/>
	<path style="fill:#ECEBEB;" d="M270.014,60.986c2.747,0.027,3.107,1.839,2.995,4.005l-0.017,0.017
		c-0.986-0.007-1.971-0.015-2.957-0.022c-0.03-0.321-0.047-0.642-0.051-0.964c0.004-1.006,0.007-2.012,0.011-3.018L270.014,60.986z"
		/>
	<path style="fill:#D8D9D9;" d="M247,37c-0.022,0.351-0.044,0.702-0.067,1.053c-1.677,0.019-3.295-0.072-3.943-2.041
		c1.001-0.002,2.002-0.003,3.003-0.005C246.109,36.561,246.443,36.894,247,37z"/>
	<path style="fill:#ECEBEB;" d="M292.065,105.036c-0.019-1.014-0.038-2.028-0.057-3.042c1.003,0.032,1.941,0.148,1.963,1.483
		C293.992,104.802,293.077,104.977,292.065,105.036z"/>
	<path style="fill:#ECEBEB;" d="M268.005,57.995c2.346-0.129,1.962,1.575,2.01,2.99l-0.019,0.018
		c-2.345,0.129-1.966-1.572-2.009-2.99L268.005,57.995z"/>
	<path style="fill:#C3C4C6;" d="M45.976,47.938c0.76-1.187,1.228-2.458,1.109-3.895c0.306,0.008,0.612,0.001,0.917-0.022
		c1.954-0.55,2.592-3.231,4.981-3.077c0.566,1.333,1.264,0.889,2.248,0.357c3.065-1.658,6.078-3.569,9.804-3.288
		c-4.281,3.691-8.562,7.383-12.842,11.074C50.176,48.406,47.706,50.174,45.976,47.938z"/>
	<path style="fill:#ECEBEB;" d="M284.945,212.927c2.964-2.387,3.657-6.06,4.957-9.287c3.87-9.606,5.89-19.757,7.956-29.86
		c0.585-2.862-0.069-5.947,1.103-8.782c0.667-0.01,1.335-0.019,2.002-0.029c-0.486,12.048-2.582,23.863-7.227,34.941
		c-1.846,4.403-2.213,9.411-5.344,13.304c-3.041,3.78-4.327,8.478-6.366,12.779c-1.383,2.915-3.242,5.35-6.062,6.985
		c-0.023-1.018-0.046-2.036-0.07-3.054c0.063-0.308,0.096-0.62,0.1-0.934c2.671-0.132,2.653-2.195,2.915-4.058
		c0.039-0.313,0.067-0.627,0.085-0.942c2.676-0.159,2.694-2.177,2.86-4.091c0.029-0.32,0.059-0.641,0.092-0.961
		c1.543-0.443,2.233-1.423,1.909-3.039C284.347,214.956,285.137,214.121,284.945,212.927z"/>
	<path style="fill:#ECEBEB;" d="M274.007,235.015c-0.371,4.395-1.791,8.314-5.658,10.791c-1.249,0.8-1.535,2.018-2.298,3.018
		c-1.841,2.412-3.245,5.435-7.051,5.176c-0.036-0.689-0.072-1.378-0.108-2.068l0.045-0.031c3.776-2.418,7.048-5.244,8.029-9.924
		l0.011-0.011c1.495,0.143,2.158-0.516,1.945-2.018l0.025-0.017c1.72-0.787,3.138-1.798,2.954-3.994l0.029-0.045
		C272.623,235.601,273.315,235.308,274.007,235.015z"/>
	<path style="fill:#C3C4C6;" d="M274.007,235.015c-0.692,0.293-1.384,0.586-2.076,0.879c0.227-2.716,0.559-5.364,3.965-5.969
		c0.023,1.018,0.046,2.036,0.07,3.054C275.312,233.658,274.659,234.336,274.007,235.015z"/>
	<path style="fill:#D8D9D9;" d="M300.964,164.969c-0.667,0.01-1.335,0.019-2.002,0.029c-1.382-1.006-1.37-2.006,0.014-2.999
		c1.013,0.307,1.662,0.982,1.995,1.976C300.982,164.307,300.979,164.638,300.964,164.969z"/>
	<path style="fill:#ECEBEB;" d="M208.998,292.002c2.107,0,4.214,0,6.321,0c-3.449,1.223-3.449,1.223-6.318-0.003L208.998,292.002z"
		/>
	<path style="fill:#C3C4C6;" d="M258.893,251.932c0.036,0.689,0.072,1.378,0.108,2.068c-0.562,0.105-0.896,0.438-1.001,1.001
		c-0.689-0.034-1.377-0.069-2.066-0.103C256.005,252.996,256.993,252.009,258.893,251.932z"/>
	<path style="fill:#ECEBEB;" d="M214.702,290.584c1.522-0.731,3.063-0.693,5.615-0.175
		C217.832,291.225,216.266,290.968,214.702,290.584z"/>
	<path style="fill:#ECEBEB;" d="M197.423,298.357c-2.562,0.865-4.116,0.702-5.729,0
		C193.205,298.357,194.717,298.357,197.423,298.357z"/>
	<path style="fill:#ECEBEB;" d="M226.675,286.54c-1.51,0.638-2.856,0.712-4.358-0.065C223.84,285.816,225.186,285.74,226.675,286.54
		z"/>
	<path style="fill:#ECEBEB;" d="M223.278,288.441c-2.162,0.696-3.385,0.721-5.049,0.123
		C219.829,287.694,221.081,287.993,223.278,288.441z"/>
	<path style="fill:#ECEBEB;" d="M255.934,254.898c0.689,0.034,1.377,0.069,2.066,0.103c0.116,1.427-0.557,2.088-1.971,2.028
		l-0.044-0.043c-0.027-0.681-0.054-1.363-0.081-2.044L255.934,254.898z"/>
	<polygon style="fill:#ECEBEB;" points="233.525,280.283 233.64,280.595 233.342,280.56 	"/>
	<polygon style="fill:#ECEBEB;" points="229.472,284.717 229.358,284.404 229.655,284.44 	"/>
	<polygon style="fill:#ECEBEB;" points="188.525,300.283 188.64,300.595 188.342,300.56 	"/>
	<path style="fill:#A3A4A7;" d="M258.893,251.932c-1.9,0.077-2.887,1.064-2.959,2.965l-0.03,0.043
		c-1.356-0.053-2.004,0.611-1.98,1.955c-1.303,1.043-2.607,2.087-3.91,3.13c-1.443-0.144-2.124,0.503-2.03,1.954l-0.004,0.003
		c-2.44,0.201-3.723,1.589-4.053,3.953c-0.803,0.059-1.642,0.049-1.949,1.038c-1.396-0.091-2.072,0.571-2.05,1.963
		c-0.302,0.02-0.603,0.057-0.901,0.11c-2.044-0.122-2.97,0.956-3.1,2.888c-0.308,0.02-0.615,0.044-0.922,0.074
		c-1.428-0.151-2.087,0.527-2.078,1.926c-0.308,0.019-0.615,0.044-0.922,0.074c-1.421-0.157-2.075,0.528-2.094,1.909
		c-5.197,2.282-9.909,5.455-14.899,8.115c-2.73-0.559-4.189,1.561-6.036,2.862c-1.159-0.087-1.99,0.718-2.979,1.095
		c-0.827-0.024-1.676-0.096-2.014,0.934c-1.178-0.158-1.996,0.695-2.985,1.066c-3.112-0.24-5.405,1.778-8.019,2.908
		c-0.663,0.025-1.326,0.049-1.988,0.074c-2.535,0.596-5.048,1.326-7.61,1.763c-8.396,1.432-16.752,3.22-25.331,3.222
		c-4.319,0.001-8.637-0.025-12.956,0.012c-1.094,0.009-2.374-0.463-3.136,0.851c-1.803,0.594-3.22-1.009-4.943-0.87
		c-2.105-1.959-4.677-0.597-7.003-0.985c-0.999-0.023-1.999-0.045-2.998-0.068c-4.269-2.677-9.355-2.428-13.976-3.887
		c-10.15-3.205-20.211-6.467-29.598-11.713c-4.422-2.472-8.64-5.364-13.329-7.366c-0.024-1.365-0.686-2.056-2.082-1.973
		c-1.583-2.595-4.149-3.843-6.784-5.044c-2.463-1.123-4.328-2.781-4.39-5.769c0.132-0.134,0.258-0.272,0.381-0.414
		c0.59,0.291,1.262,0.483,1.758,0.888c9.678,7.909,20.253,14.344,31.594,19.591c17.258,7.984,35.395,12.175,54.361,12.757
		c6.291,0.193,12.572-0.199,18.873-0.635c8.91-0.618,17.575-2.357,26.039-4.771c24.758-7.061,45.948-20.351,64.42-38.155
		c2.401-2.314,3.828-5.382,6.388-7.557c5.386-4.577,9.075-10.565,12.874-16.371c2.138-3.268,4.644-6.481,5.526-10.471
		c4.16-5.847,6.345-12.605,8.883-19.203c1.989-5.17,2.642-10.761,5.023-15.804c1.674,0.839,1.028,2.271,0.766,3.474
		c-1.778,8.168-4.553,16.021-7.875,23.669c-0.698,1.608-0.879,3.14-0.918,4.785c0.191,1.195-0.599,2.029-1.09,2.973
		c-2.184,0.041-1.874,1.648-1.909,3.039c-0.033,0.32-0.063,0.64-0.092,0.961c-2.471,0.303-2.499,2.313-2.86,4.091
		c-0.018,0.315-0.046,0.629-0.085,0.942c-2.548,0.22-2.524,2.288-2.915,4.058c-0.003,0.315-0.037,0.626-0.1,0.934
		c-3.405,0.606-3.737,3.253-3.965,5.969l-0.029,0.045c-2.638,0.108-3.054,1.86-2.954,3.994l-0.025,0.017
		c-1.407-0.059-2.046,0.623-1.945,2.018l-0.011,0.011c-3.437,2.693-6.972,5.306-8.029,9.924L258.893,251.932z"/>
	<path style="fill:#D8D9D9;" d="M141.955,298.821c0.762-1.314,2.042-0.841,3.136-0.851c4.318-0.037,8.637-0.011,12.956-0.012
		c8.579-0.002,16.935-1.79,25.331-3.222c2.562-0.437,5.075-1.167,7.61-1.763c0.029,1.092-0.347,1.642-1.525,2.091
		c-4.302,1.64-8.875,1.925-13.306,2.869c-9.986,2.127-20.141,2.442-30.316,2.036C144.502,299.915,142.778,300.771,141.955,298.821z"
		/>
	<path style="fill:#D8D9D9;" d="M192.976,292.899c2.615-1.13,4.908-3.148,8.019-2.908c0.379,2.439-1.89,2.284-2.949,2.345
		C196.336,292.434,194.883,295.29,192.976,292.899z"/>
	<path style="fill:#D8D9D9;" d="M130.009,296.965c2.326,0.388,4.898-0.973,7.003,0.985
		C133.61,299.705,132.437,299.54,130.009,296.965z"/>
	<path style="fill:#D8D9D9;" d="M208.974,286.896c1.848-1.301,3.307-3.422,6.036-2.862
		C213.437,286.92,211.293,287.936,208.974,286.896z"/>
	<path style="fill:#CECFD0;" d="M243.927,265.936c0.33-2.364,1.614-3.751,4.053-3.953
		C247.791,264.493,246.487,265.859,243.927,265.936z"/>
	<path style="fill:#CECFD0;" d="M235.926,271.936c0.13-1.932,1.056-3.01,3.1-2.888C238.969,271.057,237.996,272.085,235.926,271.936
		z"/>
	<path style="fill:#CECFD0;" d="M239.928,268.937c-0.022-1.391,0.654-2.053,2.05-1.963
		C242.118,268.489,241.428,269.136,239.928,268.937z"/>
	<path style="fill:#CECFD0;" d="M232.927,273.936c-0.009-1.399,0.65-2.077,2.078-1.926
		C235.096,273.499,234.406,274.143,232.927,273.936z"/>
	<path style="fill:#CECFD0;" d="M229.91,275.919c0.02-1.381,0.673-2.066,2.094-1.909
		C232.092,275.508,231.402,276.154,229.91,275.919z"/>
	<path style="fill:#C3C4C6;" d="M253.924,256.896c-0.024-1.344,0.624-2.008,1.98-1.955c0.027,0.681,0.054,1.363,0.081,2.044
		C255.298,256.955,254.611,256.926,253.924,256.896z"/>
	<path style="fill:#D8D9D9;" d="M203.981,288.925c0.338-1.03,1.187-0.958,2.014-0.934c-0.017,0.65,0.052,1.424-0.593,1.746
		C204.705,290.086,204.204,289.643,203.981,288.925z"/>
	<path style="fill:#CECFD0;" d="M247.984,261.98c-0.094-1.451,0.587-2.099,2.03-1.954
		C250.102,261.472,249.429,262.127,247.984,261.98z"/>
	<path style="fill:#626365;" d="M40.008,244.002c-1.108-1.778-2.279-3.5-4.051-4.707c-3.621-5.506-7.429-10.899-10.825-16.54
		c-8.483-14.094-13.981-29.362-17.137-45.476c-0.344-1.758-1.317-3.416-0.983-5.3c0.048-0.748,0.113-1.501-0.613-2.014
		c-0.17-2.655-0.341-5.309-0.511-7.964c2.161,0.503,2.977-2.416,5.102-2.007c0.534,1.032,0.959,2.057,1.007,3.279
		c0.281,7.275,2.113,14.271,4.039,21.235c3.497,12.641,9.357,24.23,15.979,35.469c-1.646,2.445-0.583,5.188,0.638,6.842
		c3.721,5.042,5.626,11.125,9.615,15.947c0.856,1.035,0.72,2.143,0.698,3.293C41.98,245.373,40.994,244.688,40.008,244.002z"/>
	<path style="fill:#828385;" d="M10.99,159.995c-2.125-0.409-2.94,2.509-5.102,2.007c-0.695-0.319-0.868-0.905-0.849-1.609
		c0.235-8.75-0.303-17.478,0.671-26.268c0.763-6.887,2.368-13.553,3.468-20.338c0.101-0.623,0.553-1.188,0.842-1.78
		c2.27,0.213,3.418-2.843,5.896-2.024c-0.082,0.645-0.094,1.308-0.258,1.931c-2.862,10.872-4.835,21.868-4.726,33.165
		C10.98,150.05,10.972,155.023,10.99,159.995z"/>
	<path style="fill:#929497;" d="M15.916,109.982c-2.478-0.819-3.626,2.237-5.896,2.024c0.716-6.502,3.4-12.381,5.751-18.374
		c0.462-1.179,1.457-2.218,1.204-3.643c0.955-1.693,1.58-3.583,2.972-5.017c2.202,0.529,4.039-1.522,6.256-0.888
		C22.351,92.549,18.848,101.152,15.916,109.982z"/>
	<path style="fill:#828385;" d="M6.399,169.966c0.726,0.512,0.66,1.266,0.613,2.014c-0.31-0.011-0.612-0.067-0.905-0.17
		C6.205,171.195,6.302,170.58,6.399,169.966z"/>
	<path style="fill:#D8D9D9;" d="M299.003,143.001c-1.26-0.641-1.286-1.308-0.043-2.003
		C300.31,141.636,300.364,142.303,299.003,143.001z"/>
	<path style="fill:#CECFD0;" d="M68.025,271.958c1.396-0.083,2.058,0.608,2.082,1.973c-0.697,0.018-1.395,0.036-2.092,0.054
		C68.019,273.309,68.022,272.634,68.025,271.958z"/>
	<path style="fill:#A3A4A7;" d="M40.008,244.002c0.986,0.686,1.972,1.371,2.958,2.057c0.024,0.301,0.051,0.601,0.081,0.901
		l-0.286,0.319C40.685,247.159,39.544,246.255,40.008,244.002z"/>
	<path style="fill:#505052;" d="M43.047,246.96c-0.031-0.3-0.058-0.6-0.081-0.901c0.021-1.149,0.157-2.258-0.698-3.293
		c-3.988-4.821-5.894-10.905-9.615-15.947c-1.22-1.654-2.284-4.397-0.638-6.842c3.212,3.545,5.607,7.7,8.565,11.453
		c6.405,8.125,13.549,15.531,21.576,21.911c10.47,8.322,21.744,15.402,34.105,20.897c18.056,8.026,36.937,11.614,56.462,12.714
		c3.819,0.215,7.571-0.571,11.346-0.806c5.448-0.339,10.788-1.072,16.153-2.029c23.045-4.112,43.098-14.453,60.589-29.648
		c12.475-10.838,22.594-23.743,29.874-38.717c2.074-4.267,4.215-8.501,6.325-12.751c3.068,0.198,2.245,2.654,1.792,3.998
		c-0.934,2.766-0.7,5.665-1.734,8.05c0.67,1.006,1.374,0.864,1.998,0.958c-0.882,3.99-3.388,7.203-5.526,10.471
		c-3.799,5.807-7.489,11.795-12.874,16.371c-2.56,2.175-3.986,5.243-6.388,7.557c-18.473,17.804-39.663,31.094-64.42,38.155
		c-8.465,2.414-17.13,4.154-26.039,4.771c-6.301,0.437-12.582,0.829-18.873,0.635c-18.966-0.583-37.103-4.773-54.361-12.757
		c-11.34-5.247-21.915-11.681-31.594-19.591c-0.496-0.406-1.168-0.597-1.758-0.888C52.504,256.141,47.775,251.551,43.047,246.96z"/>
	<path style="fill:#0A0A0B;" d="M277.011,203.002c-2.11,4.249-4.251,8.484-6.325,12.751c-7.28,14.975-17.398,27.879-29.874,38.717
		c-17.491,15.196-37.544,25.537-60.589,29.648c-5.366,0.957-10.705,1.69-16.153,2.029c-3.775,0.235-7.527,1.022-11.346,0.806
		c-19.525-1.1-38.406-4.689-56.462-12.714c-12.362-5.495-23.635-12.575-34.105-20.897c-8.027-6.38-15.171-13.786-21.576-21.911
		c-2.959-3.753-5.353-7.908-8.565-11.453c-6.622-11.24-12.483-22.828-15.979-35.469c-1.926-6.963-3.758-13.959-4.039-21.235
		c-0.047-1.222-0.473-2.248-1.007-3.279c-0.018-4.972-0.01-9.945-0.058-14.917c-0.109-11.297,1.864-22.292,4.726-33.165
		c0.164-0.623,0.176-1.286,0.258-1.931c2.931-8.83,6.435-17.433,10.287-25.897c5.047-8.74,10.679-17.086,16.866-25.059
		c3.041-3.313,6.083-6.627,9.124-9.94c4.281-3.691,8.562-7.383,12.842-11.074c4.994-3.335,9.988-6.67,14.982-10.005
		c9.628-4.784,19.27-9.532,29.707-12.374c7.982-2.173,16.016-3.826,24.289-4.758c10.81-1.218,21.51-1.064,32.247,0.161
		c6.092,0.695,12.101,1.894,18.027,3.493c1.11,0.3,2.273,0.401,3.411,0.594c0.277,0.521,0.692,0.753,1.285,0.616
		c0.659,0.134,1.318,0.269,1.978,0.403c7.956,3.141,15.875,6.368,23.613,10.024c5.71,3.656,11.419,7.312,17.129,10.969
		c5.329,4.669,10.659,9.338,15.988,14.008c5.518,6.54,11.187,12.957,16.218,19.894c4.512,7.903,9.064,15.785,12.945,24.028
		c0.011,1.181,0.458,2.219,0.894,3.305c5.36,13.353,8.003,27.324,9.347,41.584c-0.524,8.092,0.178,16.2-0.931,24.317
		c-0.78,5.706-1.713,11.358-2.78,17.009C281.975,188.74,279.019,195.728,277.011,203.002z M87.983,201.97l0.05,0.043
		c-0.291-1.026-1.11-1-1.931-0.97c-0.678-0.266-1.096-0.678-0.622-2.074c4.137,0.539,7.831,3.628,13.359,3.526
		c-2.657-1.977-4.453-3.293-6.226-4.64c-1.306-0.993-2.779-1.896-2.591-3.892c1.162-0.14,1.995,0.66,2.974,1.043l-0.001-0.002
		c0.069,0.628,0.369,0.978,1.049,0.865c1.887,1.22,3.445,3.051,5.916,3.188l-0.013-0.022c0.105,0.593,0.383,0.966,1.059,0.834
		c1.851,1.044,3.609,2.321,5.864,2.361c2.221,1.304,4.412,2.682,7.095,2.828l-0.026-0.018c0.159,0.521,0.456,0.814,1.041,0.627
		c2.286,0.903,4.549,1.883,7.031,2.146c0.332,0.032,0.663,0.063,0.995,0.095c1.448,1.361,3.625,0.645,5.144,1.805
		c0.25,0.227,0.543,0.32,0.88,0.277c0.994-0.037,1.988-0.073,2.982-0.11c0.349,0.184,0.698,0.368,1.047,0.552
		c0.504,0.732,1.253,0.593,1.974,0.555c2.023-0.044,4.051-0.143,6.028,0.446c0.898,1.01,2.043,0.495,3.104,0.504
		c1.265-0.081,2.53-0.161,3.795-0.242c1.361,0.292,2.719,0.299,4.074-0.037c1.247,0.085,2.494,0.169,3.741,0.254
		c1.098,0.004,2.296,0.573,3.19-0.568c1.972-0.598,4.001-0.226,6.001-0.354c0.748,0.017,1.537,0.16,2.005-0.666
		c11.685-1.995,22.728-5.824,33.174-11.439c6.727-3.616,12.458-8.636,18.681-12.961c0.686,0.228,1.134,0.625,1.035,1.314
		c-0.926,2.292-4.302,2.994-3.697,6.066c2.489,2.158,5.02-0.942,7.801,0.105c-0.603,3.254-1.177,6.35-1.689,9.112
		c0.999,1.491,2.154,1.555,3.335,1.475c1.687-0.115,2.898,0.483,3.446,2.16c-2.406,3.129-4.558,6.499-7.26,9.347
		c-18.775,19.788-41.659,30.777-69.098,31.778c-24.919,0.909-47.055-6.513-66.412-22.238c-1.705-1.386-3.481-2.685-5.678-4.372
		c0.819,3.406,0.855,3.525,3.08,5.313c26.218,21.062,55.894,28.82,88.62,20.868c34.243-8.32,58.035-29.535,71.055-62.425
		c1.301-3.286,3.349-6.551,2.669-10.416l-0.027,0.028c1.152,0.005,0.929-0.892,1.034-1.574l-0.009,0.083
		c0.189-1.148,0.379-2.296,0.568-3.444c1.752-6.145,1.283-12.495,2.429-19.128c-1.136,0.591-1.566,0.815-1.997,1.039
		c-0.452-0.04-0.904-0.08-1.356-0.121c2.222-4.564,4.49-9.106,6.656-13.696c3.357-7.114,6.429-14.337,7.779-22.16
		c1.481-0.803,1.959-2.276,1.897-3.714c-0.088-2.065,1.053-3.664,1.568-5.489c0.498-2.23,0.995-4.46,1.493-6.69
		c1.244-1.39,1.092-2.984,0.734-5.046c-4.757,2.799-9.287,5.464-13.817,8.13c-0.615-0.134-0.911,0.193-1.059,0.733l0.031-0.024
		c-4.287,1.394-7.657,4.571-11.869,6.11c-0.629-0.196-1.009-0.592-1.027-1.279c0.87,0.093,1.68,0.073,1.932-1.075
		c-0.014-0.268,0.07-0.644-0.062-0.914c-16.996-34.718-44.831-54.316-83.114-58.618c-13.442-1.511-26.85,0.097-39.827,4.428
		c-26.68,8.905-46.399,25.923-59.468,50.745c-0.757,1.438-1.856,2.819-1.432,4.642c-0.409,0.03-0.818,0.059-1.226,0.089
		c-2.236,0.756-2.919-2.032-4.794-2.1c-3.627-2.791-7.734-4.632-12.037-6.088c-1.139-2.609-3.804-2.984-5.976-4.082
		c-0.28-0.546-0.776-0.685-0.941-0.078c-0.264,0.968-0.164,1.977,0.721,2.706c-0.085,0.225-0.039,0.418,0.14,0.579
		c-0.005,2.841,0.823,5.469,2.05,7.995c0.53,4.583,2.243,8.795,4.054,12.978c0.37,3.23,1.823,6.081,3.138,8.981
		c0.734,3.242,2.215,6.158,3.908,8.983c1.431,5.673,4.772,10.462,7.834,15.217c7.117,11.053,15.868,20.893,24.496,30.793
		c1.064,1.221,2.618,2.106,2.727,3.982c-1.795,0.384-2.654-0.986-3.735-1.969c-10.041-9.135-18.293-19.709-25.169-31.375
		c-0.557-0.945-1.019-1.642-2.176-1.59c-0.495-1.559,0.074-3.595-2.228-4.625c0.377,5.445,0.075,10.662,0.907,15.979
		c2.56,16.362,8.545,31.212,18.294,44.527c2.292,3.13,4.04,6.876,7.883,8.638c0.338,0.339,0.676,0.677,1.015,1.016
		c0.48,1.81,1.24,3.228,3.522,2.509c1.959,0.034,1.138-2.086,2.065-2.754c1.544-0.718,3.423,0.357,4.843-1.323
		c1.114-0.737,0.185-2.348,0.965-3.43c1.179-1.406,3.317-1.086,4.363-2.162c0.75-2.241-1.194-2.26-1.96-3.142
		c-0.771-0.888-1.048-1.65,0.277-2.25c1.67,0.97,3.34,1.939,5.011,2.909c2.779,2.054,5.645,3.96,8.888,5.224
		c1.09,1.133,2.416,1.812,3.964,2.067c1.118,1.092,2.485,1.696,3.99,2.026c1.508,1.056,3.121,1.856,4.986,2.043
		c1.478,1.141,3.198,1.673,5.003,1.993c1.088,1.392,2.863,0.612,4.168,1.317c13.791,4.288,27.826,4.26,41.914,2.104
		c14.917-2.282,27.922-8.939,39.666-18.19c1.622-1.278,3.768-2.194,4.402-4.498c0.808-0.345,1.234-0.8,0.487-1.611
		c-0.645,0.392-0.507,1.005-0.507,1.575c-1.383-0.253-2.526,0.298-3.749,0.892c-2.805,1.36-5.65,2.668-8.569,3.756
		c-9.237,3.442-18.528,6.729-28.472,7.509c-0.484-0.12-0.892-0.024-1.174,0.42c-2.194,0.732-4.467,0.61-6.727,0.619
		c-0.485-0.154-0.917-0.105-1.251,0.323c-7.693,1.027-15.4,0.712-23.109,0.235c-0.659-0.994-1.603-0.645-2.498-0.529
		c-2.459-0.074-4.918-0.147-7.377-0.221c-0.586-0.644-1.304-0.825-2.136-0.613c-0.984-0.083-1.968-0.166-2.953-0.249
		c-0.226-0.239-0.491-0.297-0.796-0.175c-0.302-0.375-0.628-0.684-1.162-0.423c-1.275-0.634-2.665-0.515-4.021-0.611
		c-1.369-1.425-3.397-0.627-4.94-1.464c-0.827-0.64-1.835-0.456-2.77-0.609c-1.653-0.915-3.348-1.698-5.298-1.673
		c-3.321-1.328-6.643-2.655-9.964-3.983c-1.92-1.003-3.628-2.598-6.06-2.168L89.026,203C89.093,202.236,88.571,202.07,87.983,201.97
		z M46.967,216.967l0.095,0.139c-1.425,0.574-2.41,1.569-2.931,2.964c0.138,1.502,0.864,2.496,2.133,3.092
		c1.284-0.069,2.171-0.717,2.833-1.732c0.293-0.187,0.586-0.374,0.879-0.561c0.603,0.006,0.91-0.27,0.854-0.893
		c0.172-0.273,0.268-0.571,0.288-0.893c2.636-1.302,4.966-2.976,6.791-5.283c-1.191-1.625-1.675-3.471-3.236-4.516
		c-2.661,0.07-4.934,1.831-7.619,1.52c0.079-0.222,0.115-0.451,0.108-0.687c2.028-1.35,4.062-2.696,5.03-5.015
		c-0.572-1.923-1.681-3.322-2.881-4.727c-2.171,0.798-4.396,1.368-6.261,2.773c-1.389-0.075-2.313,0.835-3.32,1.569
		c-0.944,0.248-2.013,0.24-2.607,1.297c-0.026,1.265-0.313,2.621,0.78,3.631c1.684,0.66,2.967-0.094,4.218-0.985
		c0.613,0.245,1.094,0.578,0.904,1.358c-1.913,0.812-2.26,2.656-3.035,4.138c0.754,0.964,0.861,2.075,2.114,2.669
		c0.58-0.284,1.309-0.642,2.038-0.999c0.977-0.191,1.954-0.381,2.931-0.572C47.037,215.824,47.002,216.395,46.967,216.967z
		 M189.7,31.056c-0.371-1.745-0.742-3.49-1.124-5.285c-2.349-0.987-4.466-2.18-7.156-2.537c-0.435,1.348-0.832,2.576-1.229,3.804
		c-0.156,0.614-0.311,1.228-0.467,1.842c-2.398,4.619-3.718,9.578-5.126,14.44c2.545,1.193,4.586,2.126,6.929,2.414
		c1.047-2.922,2.01-5.611,3.216-8.976c1.991,3.963,1.602,7.989,3.26,11.436c2.214,0.999,4.382,1.956,6.952,2.199
		c1.469-4.242,3.266-8.141,4.021-12.395c1.431-1.897,1.923-4.027,1.719-6.323c-1.478-1.736-3.212-2.733-5.425-3.282
		c-1.086,2.227-2.506,4.061-2.483,6.487c-0.434,0.973-0.868,1.946-1.312,2.943c-0.502-1.292-0.994-2.557-1.485-3.821
		C189.894,33.02,189.797,32.038,189.7,31.056z M179.194,266.929c3.029,3.658,7.637,4.16,12.499,1.33
		c-0.33-1.403-0.663-2.82-1.188-5.051c-1.677,1.993-3.55,2.255-5.535,1.945c-1.578-1.528-1.472-3.131-0.624-4.353
		c1.607-1.572,3.244-0.827,4.64-1.375c-0.046-1.894-0.852-3.423-1.74-4.843C178.942,255.571,176.117,260.039,179.194,266.929z
		 M252.545,212.292c0.278,0.362,0.556,0.725,0.835,1.087c0.877,0.9,1.419,2.276,3.187,2.162c1.26-1.424,2.766-2.783,3.845-4.423
		c1.606-2.44,1.262-5.095-0.526-6.79c-1.973-1.871-3.771-1.738-6.587,0.392c-0.891,0.674-1.447,2.529-3.188,1.043
		c0.983-1.149,1.93-2.257,2.882-3.37c-0.734-1.177-1.805-1.864-3.006-2.533c-3.779,2.338-4.505,5.776-3.818,9.745
		C247.86,211.636,249.654,213.277,252.545,212.292z M153.965,272.974c0.067-0.152,0.1-0.336,0.21-0.445
		c0.098-0.098,0.324-0.199,0.417-0.151c1.329,0.691,1.541,2.528,3.583,3.174c1.069-0.048,2.628-0.118,4.571-0.205
		c-1.171-1.943-2.094-3.474-3.188-5.29c2.053-1.89,3.21-4.078,1.587-6.887c-1.592-2.755-4.2-2.942-6.882-2.878
		c-2.08,0.049-4.199,0.101-6.096,0.862c0,2.155,0,3.963,0,5.772c-0.236,1.484-0.58,2.982,0.511,4.308
		c0.095,0.597,0.189,1.193,0.284,1.79c-0.113,0.962-0.262,1.934,0.738,2.669c1.363,0.192,2.777,0.543,4.263-0.414
		C153.965,274.553,153.965,273.763,153.965,272.974z M236.018,240.215c0.508,1.088,1.133,0.667,1.948,0.294
		c2.249-1.029,1.489-3.92,3.327-5.158c2.767,0.05,3.456-2.447,5.238-3.912c-2.23-0.607-4.133-1.124-6.276-1.707
		c0.235-2.87-0.62-5.211-3.697-6.084c-2.862-0.812-4.731,0.864-6.471,2.707c-1.443,1.529-3.176,2.837-4.256,4.818
		C229.246,234.422,232.007,238.01,236.018,240.215z M243.019,74.035c3.411,0.288,6.673-0.117,9.911-1.864
		c-1.82-1.661-3.386-3.089-4.952-4.518c-1.015-1.012-2.69,0.097-3.846-1.066c-0.514-1.226,0.929-2.225-0.312-2.866
		c-1.46-1.68-2.92-3.359-4.356-5.011c-1.841,2.856-2.08,6.262-3.578,9.186c-4.203,0.465-8.406,0.931-13.403,1.484
		c2.274,2.627,4.067,4.7,5.586,6.455c2.466,0.631,4.29-0.62,6.243-0.622c-0.03,2.252-1.713,3.78-1.414,6.153
		c1.494,1.921,2.905,4.296,5.891,6.237c0.166-4.235,2.47-7.357,2.25-11.089C240.949,74.992,242.043,74.605,243.019,74.035z
		 M58.967,62.027c-3.079-1.62-5.361-0.029-7.278,2.07c-2.525,2.764-4.868,5.704-6.605,9.132c1.129,1.57,2.251,2.944,3.842,3.87
		c3.837,3.2,7.675,6.399,11.669,9.73c1.71-2.156,3.121-3.936,4.542-5.727c-1-2.143-3.603-2.619-4.275-4.654
		C66.597,68.525,66.143,65.317,58.967,62.027z M108.146,30.051c-0.398,0.699-1.042,1.214-1.153,2.126
		c-1.03,8.501,6.465,14.937,14.969,12.635c10.552-2.856,11.589-13.754,5.836-18.75C122.488,20.878,111.986,23.01,108.146,30.051z
		 M89.082,38.922c-0.161-1.457-0.973-2.379-2.465-2.932c-2.093,0.745-4.14,1.675-5.525,3.679c0.4,1.294,0.689,2.578,1.935,3.315
		c0.228,0.735,0.707,1.422,0.361,2.434c-1.326,0.828-2.493,3.06-4.498,0.64c-0.495-1.627-1.704-2.631-3.057-3.831
		c-1.543,1.722-3.935,2.031-4.936,3.945c0.123,1.764,0.715,3.041,2.016,3.942c2.572,4.787,5.681,9.214,8.9,13.837
		c2.161-1.656,4.567-2.448,6.03-4.411c-1.06-2.25-2.83-3.875-3.498-6.16c1.266-0.732,2.204-2.127,3.875-1.746
		c1.774,1.54,2.204,4.13,4.395,5.281c1.846-1.54,4.178-2.24,5.699-4.468C95.231,47.93,92.157,43.426,89.082,38.922z M160.78,28.112
		c-1.699-1.411-4.308,0.113-5.967-1.962c2.146-2.105,4.748,0.534,6.788-1.294c0.222-1.291,0.224-2.7-0.328-4.237
		c-4.591,0-9.002,0-13.364,0c-1.053,4.341-1.61,17.293-0.841,20.395c4.527,0,9.121,0,14.076,0c-0.336-1.796,0.759-3.523-0.089-5.146
		c-1.881-1.617-4.659,0.254-6.515-1.955c1.998-1.592,4.174-0.197,6.027-1.203C161.237,31.216,161.069,29.617,160.78,28.112z
		 M114.446,265.734c0.064,2.146,1.335,4.183,3.76,5.346c1.927,0.923,3.971,1.62,6.138,1.801c3.936,0.329,6.779-1.704,7.543-5.553
		c0.637-3.207-0.437-5.928-2.997-7.891c-2.949-2.261-6.276-2.882-9.773-1.357C116.078,259.406,114.764,261.965,114.446,265.734z
		 M78.138,238.804c0.043-3.992-2.793-7.769-6.639-8.835c-3.633-1.007-7.193,0.28-9.103,3.293c-1.951,3.077-1.552,5.271,1.614,8.807
		c0.551,0.616,1.106,1.23,1.694,1.81c2.863,2.828,4.99,3.427,7.946,2.008C76.572,244.484,78.11,242.094,78.138,238.804z
		 M222.948,253.346c-4.581-3.957-8.544-7.606-13.109-10.47c-1.746,1.097-3.267,2.053-5.06,3.18c0.98,4.972,1.483,9.988,3.801,14.659
		c1.864-0.818,3.719-0.959,4.388-3.163c0.395-1.3,2.024-2.252,3.168-1.962C218.823,256.269,220.437,254.496,222.948,253.346z
		 M213.295,62.075c3.672-5.456,7.554-10.382,10.415-16.323c-1.56-1.476-3.086-2.918-4.825-4.562
		c-4.899,5.047-8.378,10.773-12.326,16.605C208.824,59.289,210.572,61.008,213.295,62.075z M92.897,252.131
		c-1.019,2.63-2.681,5.146-3.321,8.311c1.291,0.785,2.248,2.215,4.027,2.18c2.346-2.36,2.927-5.692,5.074-7.945
		c1.049,0.009,1.977,0.787,3.034,0.07c0.526-1.218,1.85-2.23,1.277-4.168c-3.284-1.442-6.339-3.683-10.201-4.848
		c-0.661,1.509-1.846,2.502-1.653,5.206C91.121,251.073,93.016,250.683,92.897,252.131z"/>
	<path style="fill:#CECFD0;" d="M214.574,26.166c-7.737-3.655-15.657-6.883-23.613-10.024c0.113-0.625-0.049-1.341,0.895-2.008
		c4.766,2.436,10.476,2.11,15.552,4.003c4.128,1.54,8.154,2.929,12.585,2.868c3.732,0.209,6.644,2.419,9.494,4.381
		c1.804,1.242,3.294,2.986,5.496,3.581c1.657,0.447,1.641,2.4,3.016,3.034c0.332,0.669,0.663,1.337,0.995,2.006
		c-0.976-0.053-1.933,0.03-2.894-0.422c-3.401-1.598-6.79-3.25-10.292-4.6C222.199,27.593,218.714,25.512,214.574,26.166z"/>
	<path style="fill:#CECFD0;" d="M80.018,28.007c-4.994,3.335-9.988,6.67-14.982,10.005c-3.727-0.28-6.739,1.63-9.804,3.288
		c-0.985,0.533-1.682,0.976-2.248-0.357c0.35-0.974,1.248-1.756,1.03-2.93c2.979-0.491,5.013-2.118,6-4.999
		c1.277-0.018,2.575,0.192,3.217-1.449c0.448-1.144,1.502-1.651,2.772-1.556c2.734,2.092,5.118-0.045,7.411-0.898
		C75.619,28.292,77.734,27.895,80.018,28.007z"/>
	<path style="fill:#CECFD0;" d="M188.984,15.739c-0.592,0.138-1.008-0.094-1.285-0.616
		C188.278,15.015,188.722,15.186,188.984,15.739z"/>
	<path style="fill:#626365;" d="M277.011,203.002c2.009-7.274,4.965-14.262,6.373-21.722c1.067-5.651,2.001-11.303,2.78-17.009
		c1.109-8.118,0.407-16.225,0.931-24.317c0.613,0.142,1.64,0.027,1.637,0.76c-0.015,3.865,2.979,6.685,3.448,10.418
		c0.218,1.732,1.382,3.349,3.72,2.922c0.285,7.958-0.907,15.747-2.619,23.485c-0.248,1.122-0.213,2.306-0.309,3.461
		c-2.381,5.043-3.034,10.634-5.023,15.804c-2.539,6.598-4.723,13.356-8.883,19.203c-0.624-0.093-1.328,0.049-1.998-0.958
		c1.035-2.385,0.801-5.284,1.734-8.05C279.256,205.655,280.078,203.2,277.011,203.002z"/>
	<path style="fill:#828385;" d="M295.9,154.053c-2.338,0.427-3.502-1.19-3.72-2.922c-0.469-3.733-3.463-6.553-3.448-10.418
		c0.003-0.733-1.025-0.618-1.637-0.76c-1.344-14.26-3.987-28.231-9.347-41.584c-0.436-1.085-0.883-2.124-0.894-3.305
		c0.825-0.034,1.583-0.043,2.103,0.84c3.093,5.253,6.806,10.132,9.36,15.716c0.712,1.557,1.229,3.557,3.638,3.399
		c1.928,5.766,2.766,11.759,3.536,17.748C296.401,139.837,296.187,146.949,295.9,154.053z"/>
	<path style="fill:#929497;" d="M291.955,115.019c-2.41,0.158-2.926-1.842-3.638-3.399c-2.554-5.584-6.267-10.463-9.36-15.716
		c-0.52-0.883-1.278-0.874-2.103-0.84c-3.881-8.243-8.432-16.125-12.945-24.028c2.951-0.003,4.431,2.381,5.612,4.298
		c2.116,3.435,5.695,5.346,7.923,8.571c0.874,1.266,2.276,1.141,3.607,1.069c1.345,1.575,2.146,3.467,3.15,5.216
		c3.072,5.356,3.417,11.694,6.682,16.891C290.335,109.849,292.223,112.288,291.955,115.019z"/>
	<path style="fill:#D8D9D9;" d="M293.018,109.991c3.157,1.295,1.942,4.552,2.758,6.824c0.347,0.966,2.516,2.757,0.227,4.185
		C294.261,117.533,293.507,113.798,293.018,109.991z"/>
	<path style="fill:#A3A4A7;" d="M281.05,84.975c-1.331,0.072-2.732,0.197-3.607-1.069c-2.228-3.226-5.807-5.136-7.923-8.571
		c-1.181-1.917-2.661-4.301-5.612-4.298c-5.03-6.937-10.699-13.354-16.218-19.894c1.308-0.149,2.526-0.269,3.7,0.729
		c3.955,3.361,8.882,5.425,12.536,9.153c1.019,1.04,1.981,0.865,3.061,0.982c0.999,0.672,1.997,1.343,2.996,2.015
		c0.004,0.322,0.021,0.643,0.051,0.964c1.31,1.681,1.744,4.051,3.957,5.02l0.001,0.002c1.949,3.776,3.771,7.626,5.919,11.286
		C280.629,82.517,281.064,83.623,281.05,84.975z"/>
	<path style="fill:#C3C4C6;" d="M214.574,26.166c4.14-0.654,7.625,1.427,11.235,2.818c3.502,1.35,6.89,3.002,10.292,4.6
		c0.961,0.452,1.918,0.369,2.894,0.422c0.339-0.006,0.677-0.013,1.016-0.019c0.993,0.675,1.986,1.351,2.979,2.026
		c0.648,1.968,2.267,2.06,3.943,2.041c0.532,2.968,2.974,4.309,5.065,5.949c0.326,1.009,0.992,1.676,2.004,1.996l0,0
		c0,0.333,0,0.667,0,1c-1.29-0.114-2.874,0.531-3.817-0.489c-3.232-3.493-8.009-4.367-11.685-7.149
		c-1.831-1.386-4.073-2.915-6.797-2.227C225.993,33.478,220.284,29.822,214.574,26.166z"/>
	<path style="fill:#D8D9D9;" d="M240.011,33.986c-0.339,0.006-0.677,0.013-1.016,0.019c-0.331-0.669-0.663-1.337-0.995-2.006
		C239.427,31.896,240.103,32.552,240.011,33.986z"/>
	<path style="fill:#D8D9D9;" d="M259.994,49.006c0.003,0.996,0.007,1.991,0.01,2.987c-1.417-0.458-2.071-1.459-2.076-2.921
		l0.078-0.079C258.669,48.997,259.332,49.001,259.994,49.006z"/>
	<path style="fill:#D8D9D9;" d="M254.002,46.998c0-0.333,0-0.667,0-1c1.429-0.11,2.096,0.556,2.019,1.981
		c0,0-0.044,0.045-0.044,0.045C255.319,47.682,254.66,47.34,254.002,46.998z"/>
	<path style="fill:#D8D9D9;" d="M254.002,45.998c-1.012-0.32-1.678-0.987-2.004-1.996C253.441,43.889,254.107,44.557,254.002,45.998
		z"/>
	<path style="fill:#D8D9D9;" d="M256.021,47.979c0.817,0.033,1.684-0.03,1.985,1.014l-0.078,0.079
		c-0.805-0.062-1.651-0.045-1.951-1.048L256.021,47.979z"/>
	<path style="fill:#D8D9D9;" d="M273.992,70.006c-2.213-0.969-2.647-3.339-3.957-5.02c0.986,0.007,1.971,0.015,2.957,0.022
		C272.931,66.753,274.487,68.174,273.992,70.006z"/>
	<path style="fill:#B4B5B7;" d="M255.978,48.024c0.299,1.002,1.146,0.986,1.951,1.048c0.005,1.462,0.659,2.462,2.076,2.921
		c0.342,0.988,1.02,1.643,1.987,2.014c-0.116,1.458,0.57,2.104,2.01,1.99c0.035,0.818-0.042,1.692,1.007,1.998
		c0.392,1.47,2.374,2.155,1.98,4.013c-1.08-0.117-2.042,0.058-3.061-0.982c-3.654-3.728-8.582-5.792-12.536-9.153
		c-1.174-0.998-2.392-0.878-3.7-0.729c-5.329-4.669-10.659-9.338-15.988-14.008c2.723-0.688,4.966,0.841,6.797,2.227
		c3.675,2.782,8.453,3.656,11.685,7.149c0.943,1.02,2.527,0.375,3.817,0.489C254.66,47.34,255.319,47.682,255.978,48.024z"/>
	<path style="fill:#D8D9D9;" d="M266.989,62.007c0.394-1.857-1.587-2.543-1.98-4.013c0.992,0.006,1.985,0.013,2.977,0.019
		c0.043,1.418-0.336,3.119,2.009,2.99c-0.004,1.006-0.007,2.012-0.011,3.018C268.986,63.35,267.988,62.678,266.989,62.007z"/>
	<path style="fill:#D8D9D9;" d="M264.002,55.996c-1.44,0.114-2.127-0.532-2.01-1.99C263.423,53.9,264.106,54.55,264.002,55.996z"/>
	<path style="fill:#A3A4A7;" d="M43.069,59.026c-6.186,7.973-11.819,16.319-16.866,25.059c-2.217-0.634-4.054,1.417-6.256,0.888
		c1.969-7.337,6.801-13.064,10.863-19.214c1.423-2.154,2.63-4.565,5.13-5.793C38.404,60.32,40.578,58.465,43.069,59.026z"/>
	<path style="fill:#B4B5B7;" d="M43.069,59.026c-2.491-0.561-4.665,1.293-7.129,0.939c2.352-4.838,5.904-8.675,10.036-12.027
		c1.73,2.236,4.2,0.468,6.217,1.148C49.152,52.399,46.11,55.713,43.069,59.026z"/>
	<path style="fill:#C3C4C6;" d="M278.995,223.991c0.361-1.778,0.388-3.788,2.86-4.091
		C281.69,221.814,281.672,223.831,278.995,223.991z"/>
	<path style="fill:#C3C4C6;" d="M275.995,228.99c0.391-1.77,0.367-3.838,2.915-4.058
		C278.648,226.795,278.665,228.858,275.995,228.99z"/>
	<path style="fill:#C3C4C6;" d="M281.946,218.939c0.035-1.391-0.275-2.998,1.909-3.039
		C284.179,217.516,283.49,218.496,281.946,218.939z"/>
	<path style="fill:#C3C4C6;" d="M258.938,251.902c1.057-4.618,4.592-7.231,8.029-9.924
		C265.986,246.657,262.714,249.483,258.938,251.902z"/>
	<path style="fill:#C3C4C6;" d="M268.948,239.932c-0.101-2.134,0.316-3.885,2.954-3.994
		C272.086,238.135,270.668,239.145,268.948,239.932z"/>
	<path style="fill:#C3C4C6;" d="M266.978,241.967c-0.101-1.395,0.539-2.077,1.945-2.018
		C269.135,241.451,268.472,242.11,266.978,241.967z"/>
	<path style="fill:#303032;" d="M121.627,144.115c-5.206-2.756-10.413-5.513-15.619-8.269c0.186-0.438,0.372-0.876,0.694-1.634
		c-2.904-0.571-4.623-3.897-8.11-3.092c-0.715,0.006-1.393-0.06-1.668-0.884c0.102-3.471-2.473-1.874-4.061-2.145l0.05,0.057
		c0.249-2.78-1.702-2.078-3.233-2.043l-0.381,0.038l-0.315-0.219c-0.149-0.61-0.552-0.858-1.16-0.814l0.062,0.072
		c-1.091-3.599-3.983-4.069-7.127-4.102c-0.338,0.095-0.607-0.002-0.806-0.291c-0.165-0.514-0.551-0.711-1.056-0.737l0.053,0.045
		c0.036-0.828,0.054-1.766-0.894-2.027c-2.98-0.823-4.993-3.292-7.788-4.437c-1.767-0.724-3.326-2.071-5.44-1.507l0.051,0.066
		c-0.891-3.487-3.721-3.751-6.583-3.962c-0.987-0.016-1.928-0.13-2.428-1.164c0.409-0.03,0.818-0.059,1.226-0.089
		c1.334,0.168,2.047-0.607,2.615-1.668c0.98-1.828,1.997-3.635,2.998-5.451c1.543,0.108,2.839,0.777,4.022,1.775
		c0.595,1.132-0.15,2.717,1.887,4.149c5.738,0.664,11.738,3.046,17.803,5.613c3.82,1.617,8.619,2.622,13.041,1.261
		c1.831-0.563,3.566-0.56,5.365-0.655c5.762-0.305,11.533-0.354,17.298-0.711c7.565-0.468,15.152-1.397,22.755-1.264
		c9.944,0.174,19.807-1.756,29.764-1.033c0.165,0.012,0.345,0.039,0.497-0.009c7.217-2.261,14.742-0.377,22.117-1.794
		c6.25-1.201,12.807-0.377,19.263-0.934c6.877-0.593,13.763-0.849,20.546-2.266c0.548,1.322,2.138,2.093,2,3.778
		c0.017,0.687,0.398,1.083,1.027,1.279c-0.708,0.625-1.416,1.251-2.124,1.876c-3.621,1.124-6.497,3.663-9.897,5.209
		c-0.065-0.152-0.111-0.425-0.198-0.439c-2.823-0.442-6.582,1.742-7.755,4.483l0.016-0.068c-2.453-0.217-4.669-0.044-5.074,3.095
		c-0.3,0.79-0.95,0.923-1.684,0.897c-3.111,0.251-6.45,0.114-7.275,4.265c0.012,0.24-0.012,0.477-0.072,0.71
		c-0.529,0.009-1.058,0.018-1.587,0.028c-3.847,0.008-4.591,0.45-5.362,3.184c-0.297,0.766-0.922,0.874-1.631,0.814
		c-3.889,0.013-4.628,0.457-5.36,3.225c-0.303,0.751-0.904,0.881-1.618,0.774c-3.928,0.012-4.662,0.456-5.377,3.253
		c0.042,0.228,0.012,0.446-0.088,0.654c-0.645,0.038-1.29,0.076-1.935,0.114c-0.346-0.917-1.072-1.139-1.967-1.125
		c-5.561,0.09-10.62-1.679-15.473-4.201c0.495-1.416,1.063-2.79,2.19-3.846c2.087,0.126,2.468-0.844,1.728-2.798
		c-1.527,0.015-3.339-1.011-3.534,1.712c-0.951,0.143-1.902,0.285-2.852,0.428c-0.289-0.373-0.631-1.099-0.859-1.065
		c-2.338,0.349-4.664,0.789-6.968,1.315c-0.199,0.045-0.215,0.888-0.316,1.361c-0.618,0.116-1.237,0.232-1.855,0.347
		c-0.301-0.365-0.686-1.09-0.889-1.042c-2.965,0.699-5.982,1.278-8.634,2.913c-1.982,1.222-3.112,2.852-2.546,5.298
		c0.097,0.195,0.087,0.384-0.031,0.567c-3.061-0.326-1.37,2.896-3.231,4.066C132.71,144.482,127.2,143.49,121.627,144.115z"/>
	<path style="fill:#ECEBEB;" d="M55.867,107.065c0.5,1.034,1.44,1.148,2.428,1.164c1.843,1.905,4.139,3.057,6.583,3.962
		l-0.051-0.066c1.181,2.032,3.251,2.902,5.178,3.959c0.003,1.154-0.11,2.286,0.832,3.258c5.522,5.696,10.312,12.013,15.181,18.247
		c4.658,5.965,9.557,11.732,14.211,17.704c4.755,6.102,9.849,11.955,14.645,18.044c6.415,8.146,13.116,16.062,19.525,24.219
		c2.281,2.903,4.358,6.186,7.733,8.201c1.089,0.65,2.551,1.904,2.561,2.894c0.024,2.501,2.375,1.876,3.266,3.044
		c-1.265,0.081-2.53,0.161-3.795,0.242c-0.957-0.649-2.002-0.753-3.104-0.504c-1.977-0.588-4.004-0.489-6.028-0.446
		c-0.558-0.541-1.204-0.769-1.974-0.555c-0.349-0.184-0.698-0.368-1.047-0.552c0.189-1.603-0.475-2.763-1.549-3.978
		c-6.544-7.4-12.241-15.491-18.795-22.904c-5.327-6.025-10.02-12.607-15.073-18.877c-5.989-7.432-12.091-14.772-18.094-22.193
		c-6.721-8.31-13.391-16.661-20.071-25.003c-2.673-3.338-5.325-6.693-7.967-10.056c-0.694-0.883-0.314-1.5,0.611-1.903
		C52.948,105.032,53.631,107.82,55.867,107.065z"/>
	<path style="fill:#1A1A1B;" d="M75.978,217.53c-0.338-0.339-0.676-0.677-1.015-1.016c1.081-2.737-1.53-3.783-2.703-5.234
		c-8.667-10.717-14.969-22.639-18.642-35.896c-2.114-7.631-3.929-15.355-3.511-23.389c1.157-0.052,1.619,0.645,2.176,1.59
		c6.876,11.666,15.128,22.241,25.169,31.375c1.081,0.983,1.94,2.354,3.735,1.969c2.887,0.543,4.249,2.887,5.849,4.95
		c-0.235,2.462,1.494,2.121,2.998,2.101l-0.013-0.019c-0.188,1.997,1.285,2.899,2.591,3.892c1.773,1.347,3.569,2.663,6.226,4.64
		c-5.528,0.102-9.222-2.987-13.359-3.526c-0.475,1.397-0.057,1.808,0.622,2.074c0.262,1.083,1.104,1.012,1.931,0.97
		c0,0-0.05-0.043-0.05-0.043c-0.004,0.699,0.381,1.005,1.043,1.03L89,202.974c0.351,0.668,0.703,1.337,1.054,2.005
		c-1.325,0.599-1.048,1.362-0.277,2.25c0.766,0.882,2.71,0.901,1.96,3.142c-1.046,1.076-3.184,0.756-4.363,2.163
		c-0.78,1.081,0.149,2.692-0.965,3.429c-1.42,1.68-3.299,0.605-4.843,1.323c-0.927,0.668-0.106,2.788-2.065,2.754
		C78.918,218.372,77.964,217.226,75.978,217.53z M83.819,197.509c-2.157-1.196-4.186-2.321-7.203-3.993
		c1.45,3.689,3.383,5.198,5.508,6.505C83.023,199.367,83.759,198.949,83.819,197.509z"/>
	<path style="fill:#D8D9D9;" d="M51.073,104.964c-0.925,0.403-1.305,1.02-0.611,1.903c2.642,3.363,5.294,6.718,7.967,10.056
		c6.681,8.342,13.35,16.693,20.071,25.003c6.002,7.421,12.105,14.761,18.094,22.193c5.054,6.271,9.746,12.853,15.073,18.877
		c6.554,7.413,12.251,15.504,18.795,22.904c1.074,1.215,1.738,2.375,1.549,3.978c-0.994,0.036-1.988,0.073-2.982,0.11
		c-0.231-0.29-0.427-0.69-0.88-0.277c-1.519-1.16-3.696-0.444-5.144-1.805c-0.127-1.274,0.496-2.8-0.53-3.769
		c-2.028-1.916-3.418-4.317-5.245-6.373c-0.595-0.67-1.396-0.776-2.232-0.762l0,0c0.126-2.178-0.221-4.001-3-3.999
		c-0.558-0.109-0.891-0.443-1-1c0.107-3.478-1.867-5.222-5-6l0,0c0.126-2.178-0.221-4.001-3-3.999l0,0
		c0.149-2.853-0.952-4.705-4-4.999c-0.558-0.109-0.891-0.443-0.999-1.001c0.15-2.853-0.954-4.703-4-5
		c-0.558-0.109-0.891-0.443-0.999-1.001c-0.029-1.425,0.369-3.135-2.001-2.999c-0.558-0.109-0.891-0.442-1-1
		c-0.587-3.961-1.812-5.431-4.999-6l0,0c-0.475-4.238-0.7-4.52-4-5l0,0c-0.03-1.425,0.37-3.136-2.001-2.999
		c-1.005-0.328-1.672-0.995-1.999-2.001c0.104-3.476-1.4-5.611-5-6l0,0c0.076-2.94-1.068-5.066-4.003-5.996l-0.001-0.001
		c0.108-1.439-0.559-2.105-1.996-2.003c-0.558-0.109-0.891-0.443-1-1c0.149-2.853-0.952-4.705-4-5c-2.219-1.54-3.298-4.029-5-6
		c0.107-3.478-1.867-5.222-5-6l0,0c0.126-2.178-0.221-4.001-3-3.999c-0.558-0.109-0.891-0.443-1-1c-0.475-4.238-0.7-4.52-4-5l0,0
		c0.126-2.178-0.221-4.001-3-3.999l0,0c0.464-1.856-1.128-3.325-0.962-5.125C43.339,100.332,47.446,102.174,51.073,104.964z"/>
	<path style="fill:#ECEBEB;" d="M261.114,115.035c-1.561-0.188-2.768,0.283-4.06,1.328c-5.366,4.34-11.117,8.23-16.279,12.79
		c-6.931,6.123-14.683,11.164-21.683,17.184c-4.486,3.858-9.286,7.351-13.96,10.99c-7.396,5.758-14.772,11.543-22.216,17.239
		c-8.618,6.594-16.865,13.668-25.759,19.907c-1.076,0.755-2.002,1.766-2.865,2.772c-1.186,1.383-2.572,2.046-4.389,1.715
		c1.721-2.386,0.494-5.536,2.065-7.961c3.161-0.124,4.75-2.707,6.986-4.343c12.086-8.841,23.635-18.368,35.44-27.566
		c9.605-7.483,19.109-15.097,28.698-22.602c10.361-8.109,20.661-16.301,31.219-24.147c3.22-2.393,5.678-6.213,10.269-6.509
		c-0.515,1.826-1.656,3.424-1.568,5.489C263.072,112.759,262.595,114.232,261.114,115.035z"/>
	<path style="fill:#D8D9D9;" d="M264.579,105.831c-4.591,0.296-7.049,4.116-10.269,6.509c-10.557,7.846-20.858,16.038-31.219,24.147
		c-9.589,7.505-19.092,15.118-28.698,22.602c-11.806,9.198-23.354,18.725-35.44,27.566c-2.236,1.636-3.825,4.219-6.986,4.343
		c-0.125-2.41,0.075-4.768,1.114-6.993c1.845,0.297,3.087-0.628,4.337-1.866c1.513-1.498,2.959-3.033,4.779-4.281
		c6.34-4.35,12.189-9.373,18.286-14.056c10.467-8.04,20.721-16.359,31.263-24.313c1.945-1.467,4.591-2.638,5.254-5.489
		c3.256-1.66,6.906-2.868,8.004-6.996c1.579,0.256,3.098-0.2,4.2-1.163c6.218-5.434,13.059-10.066,19.456-15.238
		c5.365-4.337,10.877-8.431,16.422-12.693c0.407,0.506,0.697,0.867,0.988,1.229C265.574,101.371,265.076,103.601,264.579,105.831z"
		/>
	<path style="fill:#1A1A1B;" d="M218.826,185.921c8.456-8.351,16.462-17.077,22.816-27.193c1.652-2.63,3.357-5.226,5.038-7.837
		c0.452,0.04,0.904,0.08,1.356,0.121c0.14,6.088-1.42,11.993-1.951,18.008c0.019,1.255-1.185,2.841,0.951,3.525l0.009-0.083
		c-0.84,0.199-1.435,0.56-1.034,1.574l0.027-0.028c-2.826,0.379-2.114,3.056-2.661,4.621c-3.456,9.882-7.637,19.339-14.317,27.524
		c-0.549-1.678-1.759-2.275-3.446-2.16c-1.181,0.081-2.336,0.016-3.335-1.475c0.512-2.763,1.086-5.858,1.689-9.112
		c-2.781-1.047-5.312,2.053-7.801-0.105c-0.605-3.072,2.77-3.774,3.697-6.066C219.96,186.546,219.512,186.149,218.826,185.921z"/>
	<path style="fill:#929497;" d="M62.707,99.856c-1.001,1.816-2.019,3.623-2.998,5.451c-0.569,1.061-1.281,1.836-2.615,1.668
		c-0.424-1.823,0.675-3.204,1.432-4.642c13.069-24.823,32.788-41.841,59.468-50.745c12.977-4.331,26.385-5.939,39.827-4.428
		c38.282,4.302,66.118,23.9,83.114,58.618c0.132,0.27,0.048,0.646,0.062,0.914c-0.252,1.148-1.062,1.168-1.932,1.075
		c0.138-1.685-1.452-2.455-2-3.778c0.142-1.079-0.467-1.894-0.94-2.772c-8.141-15.081-19.461-27.246-33.831-36.522
		c-12.713-8.205-26.602-13.052-41.688-14.92c-15.983-1.979-31.353-0.01-46.357,5.509C97.662,61.386,83.881,71.505,72.565,84.98
		C68.735,89.541,65.068,94.286,62.707,99.856z"/>
	<path style="fill:#C3C4C6;" d="M76.999,150.001c0.327,1.006,0.994,1.673,1.999,2.001c-0.083,1.5,0.577,2.504,2.001,2.999l0,0
		c0.966,1.96,1.74,4.075,4,5l0,0c1.042,2.521,2.537,4.663,4.999,6c0.109,0.558,0.442,0.891,1,1c-0.084,1.5,0.577,2.504,2.001,2.999
		c0.109,0.558,0.441,0.892,0.999,1.001c0.178,2.591,2.133,3.76,4,5c0.109,0.558,0.442,0.891,0.999,1.001
		c0.178,2.591,2.133,3.76,4,4.999l0,0c-0.042,2.115,1.379,3.132,3,3.999l0,0c0.391,3.063,2.892,4.367,5,6
		c0.109,0.558,0.442,0.891,1,1c-0.045,2.117,1.38,3.132,3,3.999l0,0c-0.095,1.067,0.545,1.777,1.067,2.632
		c1.765,2.892,4.859,4.808,5.945,8.177c-2.482-0.263-4.744-1.243-7.031-2.146c-0.178-0.49-0.537-0.679-1.041-0.627l0.026,0.018
		c-0.604-4.213-3.861-6.76-6.264-9.811c-3.363-4.27-7.419-8.081-10.247-12.663c-3.349-5.426-7.441-10.066-11.877-14.512
		c-0.705-0.706-1.667-1.316-2.034-2.174c-2.057-4.805-5.77-8.283-9.14-12.092c-3.819-4.315-8.045-8.612-10.867-13.4
		c-4.829-8.191-13.162-13.458-17.103-22.155c-4.279-2.611-6.541-6.832-8.853-11.026c-0.525-0.952-1.474-1.287-2.55-1.227
		c-1.226-2.526-2.055-5.154-2.05-7.995c1.488-0.095,2.369,0.654,3.019,1.948c0.884,1.761,2.254,3.108,3.999,4.052l0,0
		c-0.044,2.117,1.38,3.132,3,3.999l0,0c0.965,1.961,1.74,4.074,4,5c0.109,0.558,0.442,0.891,1,1c-0.042,2.115,1.379,3.132,3,3.999
		l0,0c0.391,3.063,2.893,4.367,5,6c1.701,1.971,2.78,4.461,5,6c0.178,2.591,2.134,3.76,4,5c0.109,0.558,0.442,0.891,1,1
		c-0.101,1.432,0.564,2.1,1.996,2.003l0.001,0.001c0.106,1.255-0.274,2.562,0.419,3.795c0.913,1.148,2.348,1.515,3.584,2.201l0,0
		C72.391,147.063,74.892,148.368,76.999,150.001z"/>
	<path style="fill:#B4B5B7;" d="M35.031,105.996c1.076-0.059,2.026,0.275,2.55,1.227c2.312,4.194,4.574,8.416,8.853,11.026
		c3.941,8.697,12.274,13.964,17.103,22.155c2.822,4.788,7.048,9.085,10.867,13.4c3.371,3.808,7.083,7.287,9.14,12.092
		c0.367,0.858,1.329,1.467,2.034,2.174c4.436,4.446,8.528,9.086,11.877,14.512c2.828,4.582,6.884,8.393,10.247,12.663
		c2.403,3.051,5.66,5.598,6.264,9.811c-2.683-0.145-4.874-1.523-7.095-2.828c-0.074-0.64,0.083-1.463-0.257-1.892
		c-4.789-6.042-9.467-12.218-14.465-18.036c-6.407-7.457-12.48-15.193-18.684-22.791c-6.323-7.744-12.863-15.351-18.766-23.431
		c-2.515-3.443-5.495-6.486-7.947-10.018c-1.872-2.696-3.678-6.321-7.667-7.088C37.274,114.791,35.56,110.578,35.031,105.996z"/>
	<path style="fill:#929497;" d="M229.059,206.153c6.68-8.185,10.862-17.642,14.317-27.524c0.547-1.565-0.165-4.242,2.661-4.621
		c0.68,3.865-1.369,7.13-2.669,10.416c-13.02,32.89-36.812,54.105-71.055,62.425c-32.726,7.951-62.402,0.193-88.62-20.868
		c-2.226-1.788-2.261-1.907-3.08-5.313c2.197,1.688,3.972,2.987,5.678,4.372c19.357,15.725,41.492,23.147,66.412,22.238
		c27.439-1,50.323-11.989,69.098-31.778C224.501,212.652,226.652,209.282,229.059,206.153z"/>
	<path style="fill:#626365;" d="M87.037,191.88c-1.6-2.064-2.962-4.408-5.849-4.95c-0.108-1.876-1.662-2.761-2.727-3.982
		c-8.628-9.9-17.379-19.74-24.496-30.793c-3.062-4.755-6.403-9.543-7.834-15.217c1.748-0.047,2.7,1.251,3.596,2.375
		c5.835,7.319,11.754,14.571,17.652,21.838c8.065,9.936,15.9,20.064,24.152,29.85c1.047,1.241,1.664,2.415,1.464,4.004
		c-0.979-0.383-1.812-1.183-2.974-1.043l0.013,0.019C89.564,192.526,88.483,191.942,87.037,191.88z"/>
	<path style="fill:#929497;" d="M39.084,118.973c3.989,0.766,5.795,4.392,7.667,7.088c2.452,3.532,5.432,6.575,7.947,10.018
		c5.903,8.08,12.443,15.687,18.766,23.431c6.204,7.598,12.277,15.334,18.684,22.791c4.998,5.817,9.676,11.994,14.465,18.036
		c0.34,0.429,0.183,1.252,0.257,1.892c-2.256-0.04-4.013-1.317-5.864-2.361c-0.157-0.527-0.501-0.817-1.059-0.834l0.013,0.022
		c-0.062-1.103,0.03-2.035-0.913-3.114c-3.448-3.946-6.312-8.431-9.951-12.173c-3.736-3.842-5.973-8.722-9.853-12.497
		c-3.966-3.859-6.901-8.753-10.526-12.99c-7.04-8.227-13.472-16.939-20.416-25.23c-1.618-1.932-2.498-5.303-6.078-5.098
		C40.908,125.055,39.454,122.203,39.084,118.973z"/>
	<path style="fill:#ECEBEB;" d="M78.891,46.058c2.005,2.42,3.172,0.188,4.498-0.64c0.345-1.012-0.133-1.699-0.361-2.434
		c1.195-2.581,3.364-3.71,6.055-4.062c3.074,4.504,6.149,9.009,9.232,13.526c-1.521,2.228-3.852,2.928-5.699,4.468
		c-2.191-1.151-2.621-3.741-4.395-5.281c-1.67-0.38-2.609,1.015-3.875,1.746c0.669,2.285,2.438,3.91,3.498,6.16
		c-1.463,1.964-3.868,2.755-6.03,4.411c-3.219-4.623-6.328-9.05-8.9-13.837C73.947,47.348,75.863,45.884,78.891,46.058z"/>
	<path style="fill:#ECEBEB;" d="M127.797,26.061c5.753,4.996,4.716,15.894-5.836,18.75c-8.504,2.302-15.999-4.134-14.969-12.635
		c0.11-0.911,0.755-1.427,1.153-2.126c2.348,0.051,4.497-0.502,6.716-1.396C118.969,26.998,123.198,25.473,127.797,26.061z
		 M116.136,30.211c-1.402,3.948-0.984,6.554,1.27,7.51c1.82,0.772,3.595,0.475,4.933-1.113c1.443-1.713,0.986-3.591-1.48-6.427
		C119.422,29.851,117.959,29.908,116.136,30.211z"/>
	<path style="fill:#ECEBEB;" d="M160.78,28.112c0.29,1.506,0.458,3.105-0.214,4.598c-1.853,1.006-4.029-0.39-6.027,1.203
		c1.856,2.21,4.634,0.338,6.515,1.955c0.849,1.624-0.247,3.35,0.089,5.146c-4.956,0-9.549,0-14.076,0
		c-0.769-3.102-0.212-16.054,0.841-20.395c4.362,0,8.774,0,13.364,0c0.551,1.537,0.55,2.946,0.328,4.237
		c-2.04,1.828-4.642-0.811-6.788,1.294C156.471,28.225,159.081,26.701,160.78,28.112z"/>
	<path style="fill:#ECEBEB;" d="M198.977,37.999c-0.755,4.253-2.552,8.152-4.021,12.395c-2.57-0.244-4.737-1.2-6.952-2.199
		c-1.658-3.447-1.269-7.473-3.26-11.436c-1.206,3.366-2.169,6.055-3.216,8.976c-2.343-0.287-4.383-1.22-6.929-2.414
		c1.408-4.862,2.727-9.821,5.126-14.44c2.456,0.224,4.364,1.48,5.921,3.283c1.171,1.356,2.519,2.117,4.346,1.839
		c0.492,1.264,0.983,2.529,1.485,3.821c0.444-0.996,0.878-1.97,1.312-2.943C195.324,34.982,196.984,36.82,198.977,37.999z"/>
	<path style="fill:#828385;" d="M42.223,127.954c3.58-0.205,4.46,3.165,6.078,5.098c6.944,8.291,13.376,17.003,20.416,25.23
		c3.625,4.237,6.561,9.131,10.526,12.99c3.88,3.776,6.117,8.656,9.853,12.497c3.639,3.742,6.504,8.226,9.951,12.173
		c0.943,1.079,0.851,2.011,0.913,3.114c-2.471-0.137-4.029-1.968-5.916-3.188c-0.176-0.499-0.509-0.808-1.049-0.865l0.001,0.002
		c0.199-1.589-0.418-2.763-1.464-4.004c-8.253-9.786-16.087-19.915-24.152-29.85c-5.898-7.267-11.816-14.518-17.652-21.838
		c-0.896-1.124-1.848-2.422-3.596-2.375C44.438,134.113,42.957,131.196,42.223,127.954z"/>
	<path style="fill:#ECEBEB;" d="M58.967,62.027c7.176,3.29,7.63,6.498,1.894,14.422c0.672,2.035,3.275,2.511,4.275,4.654
		c-1.421,1.791-2.832,3.571-4.542,5.727c-3.994-3.33-7.832-6.53-11.669-9.73c0.609-2.882,1.323-5.658,5.235-5.237
		c0.732,0.258,1.209,1.111,2.177,0.908c0.811-0.743,1.447-1.582,1.141-2.716c-0.966-1.598-2.168-1.219-3.401-0.659
		C54.107,65.879,56.186,63.72,58.967,62.027z"/>
	<path style="fill:#CECFD0;" d="M114.446,265.734c0.317-3.769,1.631-6.328,4.671-7.654c3.498-1.526,6.824-0.904,9.773,1.357
		c2.561,1.963,3.634,4.685,2.997,7.891c-0.764,3.849-3.608,5.882-7.543,5.553c-2.168-0.181-4.212-0.878-6.138-1.801
		C115.781,269.918,114.511,267.881,114.446,265.734z M122.986,268.905c2.354-0.632,3.372-1.967,2.913-4.126
		c-0.272-1.28-1.288-1.881-2.591-1.918c-2.143-0.061-2.799,1.369-3.154,3.128C120.495,267.429,121.426,268.294,122.986,268.905z"/>
	<path style="fill:#D8D9D9;" d="M78.138,238.804c-0.028,3.289-1.566,5.68-4.489,7.083c-2.956,1.419-5.082,0.82-7.946-2.008
		c-0.587-0.58-1.143-1.194-1.694-1.81c-3.166-3.536-3.565-5.73-1.614-8.807c1.91-3.013,5.469-4.301,9.103-3.293
		C75.344,231.036,78.18,234.812,78.138,238.804z M72.691,237.867c-0.913-1.842-1.865-3.262-3.907-2.537
		c-1.523,0.541-2.408,1.819-2.187,3.457c0.158,1.167,0.874,2.151,2.233,2.325C71.129,241.408,72.084,240.015,72.691,237.867z"/>
	<path style="fill:#ECEBEB;" d="M243.019,74.035c-0.976,0.57-2.07,0.957-1.98,2.478c0.219,3.732-2.084,6.854-2.25,11.089
		c-2.986-1.942-4.397-4.316-5.891-6.237c-0.299-2.373,1.384-3.9,1.414-6.153c-1.953,0.002-3.777,1.253-6.243,0.622
		c-1.519-1.755-3.312-3.828-5.586-6.455c4.997-0.553,9.2-1.018,13.403-1.484C239.84,68.109,241.999,70.411,243.019,74.035z"/>
	<path style="fill:#CECFD0;" d="M236.018,240.215c-4.011-2.205-6.772-5.792-10.188-9.042c1.081-1.981,2.813-3.289,4.256-4.818
		c1.74-1.844,3.609-3.52,6.471-2.707c3.078,0.873,3.932,3.215,3.697,6.084c2.143,0.583,4.045,1.1,6.276,1.707
		c-1.782,1.466-2.472,3.963-5.238,3.912c-0.825-0.679-1.752-0.666-2.711-0.417c-0.99,0.793,0.382,1.416-0.035,2.657
		C237.98,238.264,236.182,238.535,236.018,240.215z"/>
	<path style="fill:#CECFD0;" d="M222.948,253.346c-2.511,1.15-4.125,2.923-6.811,2.243c-1.145-0.29-2.774,0.663-3.168,1.962
		c-0.669,2.204-2.524,2.345-4.388,3.163c-2.318-4.671-2.821-9.687-3.801-14.659c1.794-1.127,3.314-2.083,5.06-3.18
		C214.404,245.74,218.367,249.389,222.948,253.346z"/>
	<path style="fill:#CECFD0;" d="M148.168,266.925c0-1.809,0-3.617,0-5.772c1.896-0.76,4.016-0.812,6.096-0.862
		c2.681-0.064,5.289,0.123,6.882,2.878c1.623,2.808,0.466,4.997-1.587,6.887c1.094,1.816,2.017,3.347,3.188,5.29
		c-1.943,0.087-3.503,0.157-4.571,0.205c-2.043-0.646-2.254-2.482-3.583-3.174c-0.093-0.048-0.319,0.053-0.417,0.151
		c-0.109,0.109-0.143,0.293-0.21,0.445c-1.667,0.016-3.334,0.033-5.002,0.049c-0.095-0.597-0.189-1.193-0.284-1.79
		C148.973,269.742,149.377,268.238,148.168,266.925z"/>
	<path style="fill:#D8D9D9;" d="M213.295,62.075c-2.723-1.066-4.471-2.786-6.735-4.281c3.947-5.832,7.427-11.558,12.326-16.605
		c1.739,1.644,3.265,3.087,4.825,4.562C220.848,51.692,216.967,56.618,213.295,62.075z"/>
	<path style="fill:#A3A4A7;" d="M50.108,151.995c-0.419,8.034,1.396,15.758,3.511,23.389c3.674,13.257,9.976,25.18,18.642,35.896
		c1.173,1.451,3.784,2.497,2.703,5.234c-3.843-1.762-5.592-5.509-7.883-8.638c-9.75-13.316-15.735-28.165-18.294-44.527
		c-0.832-5.317-0.529-10.534-0.907-15.979C50.182,148.4,49.613,150.436,50.108,151.995z"/>
	<path style="fill:#D8D9D9;" d="M252.545,212.292c-2.891,0.985-4.686-0.655-6.376-2.687c-0.687-3.969,0.039-7.408,3.818-9.745
		c1.201,0.669,2.272,1.356,3.006,2.533c-0.952,1.113-1.899,2.221-2.882,3.37c1.74,1.486,2.297-0.37,3.188-1.043
		c2.816-2.13,4.614-2.263,6.587-0.392c1.789,1.696,2.132,4.351,0.526,6.79c-1.079,1.64-2.585,3-3.845,4.423
		c-1.768,0.114-2.31-1.262-3.187-2.162c0.362-0.289,0.725-0.579,1.087-0.868c1.486-0.635,2.627-1.46,2.092-3.432
		c-1.649,0.342-2.175,1.567-2.925,2.548C253.271,211.849,252.908,212.07,252.545,212.292z"/>
	<path style="fill:#CECFD0;" d="M266.072,99.141c-0.29-0.361-0.581-0.722-0.988-1.229c-5.545,4.262-11.057,8.355-16.422,12.693
		c-6.397,5.171-13.238,9.804-19.456,15.238c-1.102,0.963-2.621,1.419-4.2,1.163l-0.008-0.007c0.001-0.999,0.001-1.999,0.002-2.998
		c1.132,0,2.265,0,3.314,0c0.913-1.525,1.599-3.033,2.98-3.569c2.814-1.092,4.596-3.478,6.963-5.062
		c3.632-2.431,6.053-6.354,10.462-7.898c1.584-0.555,3.439-2.116,3.242-4.535l-0.031,0.024c0.541,0.028,0.902-0.206,1.059-0.733
		c4.53-2.666,9.061-5.331,13.817-8.13C267.163,96.157,267.315,97.752,266.072,99.141z"/>
	<path style="fill:#CECFD0;" d="M92.897,252.131c0.119-1.448-1.776-1.059-1.763-1.194c-0.193-2.704,0.992-3.696,1.653-5.206
		c3.862,1.165,6.917,3.405,10.201,4.848c0.573,1.938-0.751,2.949-1.277,4.168c-1.058,0.717-1.986-0.061-3.034-0.07
		c-2.147,2.253-2.728,5.585-5.074,7.945c-1.779,0.035-2.736-1.395-4.027-2.18C90.215,257.278,91.877,254.762,92.897,252.131z"/>
	<path style="fill:#929497;" d="M243.019,74.035c-1.02-3.624-3.179-5.926-7.134-6.14c1.498-2.924,1.737-6.33,3.578-9.186
		c1.436,1.652,2.896,3.331,4.356,5.011c1.242,0.641-0.201,1.64,0.312,2.866c1.156,1.163,2.831,0.054,3.846,1.066
		c1.566,1.429,3.132,2.858,4.952,4.518C249.692,73.918,246.43,74.324,243.019,74.035z"/>
	<path style="fill:#D8D9D9;" d="M179.194,266.929c-3.078-6.89-0.252-11.359,8.053-12.347c0.888,1.42,1.695,2.949,1.74,4.843
		c-1.396,0.548-3.034-0.197-4.64,1.375c-0.848,1.221-0.954,2.825,0.624,4.353c0.494,0.544,0.988,1.089,1.611,1.776
		C183.97,266.929,181.582,266.929,179.194,266.929z"/>
	<path style="fill:#C3C4C6;" d="M251.96,102.935c0.196,2.42-1.658,3.98-3.242,4.535c-4.409,1.545-6.83,5.467-10.462,7.898
		c-2.367,1.584-4.149,3.97-6.963,5.062c-1.381,0.536-2.067,2.044-2.98,3.569c-1.049,0-2.181,0-3.314,0
		c1.896-2.686,4.373-4.673,6.985-6.676c2.252-1.728,5.772-2.646,5.983-6.402c0.708-0.625,1.416-1.251,2.124-1.876
		C244.303,107.506,247.673,104.329,251.96,102.935z"/>
	<path style="fill:#A3A4A7;" d="M58.967,62.027c-2.781,1.693-4.86,3.851-4.891,7.369c0.028,0.822,0.056,1.645,0.084,2.467
		c-3.912-0.421-4.627,2.355-5.235,5.237c-1.59-0.927-2.713-2.301-3.842-3.87c1.737-3.428,4.081-6.369,6.605-9.132
		C53.606,61.998,55.888,60.407,58.967,62.027z"/>
	<path style="fill:#B4B5B7;" d="M127.797,26.061c-4.599-0.588-8.828,0.937-12.936,2.593c-2.219,0.895-4.368,1.448-6.716,1.396
		C111.986,23.01,122.488,20.878,127.797,26.061z"/>
	<path style="fill:#ECEBEB;" d="M47.053,210.804c2.685,0.312,4.957-1.45,7.619-1.52c1.561,1.046,2.045,2.892,3.236,4.516
		c-1.826,2.307-4.156,3.98-6.791,5.283c-1.377-0.576-1.439-2.055-2.131-3.102c0.121-0.717-0.314-1.032-0.896-1.241
		C48.097,213.335,46.637,212.316,47.053,210.804z"/>
	<path style="fill:#ECEBEB;" d="M43.05,203.147c1.865-1.405,4.09-1.975,6.261-2.773c1.2,1.405,2.309,2.803,2.881,4.727
		c-0.968,2.32-3.002,3.665-5.03,5.015C45.938,207.707,43.301,206.131,43.05,203.147z"/>
	<path style="fill:#B4B5B7;" d="M198.977,37.999c-1.992-1.179-3.653-3.017-6.189-3.118c-0.023-2.426,1.397-4.26,2.483-6.487
		c2.212,0.55,3.947,1.547,5.425,3.282C200.9,33.973,200.407,36.102,198.977,37.999z"/>
	<path style="fill:#A3A4A7;" d="M179.194,266.929c2.388,0,4.776,0,7.388,0c-0.623-0.687-1.117-1.231-1.611-1.776
		c1.985,0.31,3.858,0.048,5.535-1.945c0.525,2.231,0.858,3.648,1.188,5.051C186.831,271.089,182.223,270.587,179.194,266.929z"/>
	<path style="fill:#B4B5B7;" d="M43.05,203.147c0.251,2.983,2.888,4.56,4.112,6.969c0.007,0.236-0.029,0.465-0.108,0.687
		c-0.416,1.513,1.044,2.532,1.037,3.937c-0.339,0.171-0.679,0.341-1.018,0.512c-0.977,0.191-1.954,0.381-2.931,0.572
		c0.111-2.029-1.652-3.698-1.117-5.809c0.19-0.78-0.291-1.113-0.904-1.358c-0.088-1.744-1.83-2.485-2.391-3.942
		C40.737,203.982,41.661,203.072,43.05,203.147z"/>
	<path style="fill:#C3C4C6;" d="M123.215,213.905c0.305-0.122,0.57-0.063,0.796,0.175c-0.196,2.537-2.542,4.439-2.116,7.16
		c-1.805-0.32-3.525-0.853-5.003-1.993c0.346-2.132,1.611-4.099,1.14-6.376c1.357,0.096,2.746-0.023,4.021,0.611
		C122.324,213.941,122.731,214.029,123.215,213.905z"/>
	<path style="fill:#B4B5B7;" d="M180.191,27.039c0.397-1.228,0.793-2.456,1.229-3.804c2.69,0.356,4.807,1.55,7.156,2.537
		c0.382,1.794,0.753,3.539,1.124,5.285c-1.787-0.338-3.194-1.344-4.627-2.41C183.67,27.603,182.117,26.658,180.191,27.039z"/>
	<path style="fill:#828385;" d="M103.952,213.112c-3.243-1.264-6.109-3.17-8.888-5.224c-0.001-0.915-0.003-1.831-0.004-2.746
		c3.321,1.328,6.643,2.655,9.964,3.983C104.666,210.454,104.309,211.783,103.952,213.112z"/>
	<path style="fill:#B4B5B7;" d="M118.031,212.871c0.472,2.278-0.794,4.245-1.14,6.376c-1.864-0.187-3.477-0.987-4.986-2.043
		c-0.336-2.082,1.299-3.761,1.185-5.798C114.634,212.244,116.662,211.446,118.031,212.871z"/>
	<path style="fill:#D8D9D9;" d="M121.895,221.241c-0.426-2.721,1.92-4.623,2.116-7.16c0.984,0.083,1.968,0.166,2.953,0.249
		c-0.008,0.286,0.018,0.569,0.08,0.849c0.456,2.563-1.53,4.802-0.98,7.378C124.757,221.853,122.983,222.633,121.895,221.241z"/>
	<path style="fill:#A3A4A7;" d="M78.891,46.058c-3.028-0.173-4.944,1.291-5.976,4.057c-1.301-0.901-1.893-2.179-2.016-3.942
		c1.001-1.914,3.394-2.223,4.936-3.945C77.187,43.427,78.396,44.43,78.891,46.058z"/>
	<path style="fill:#828385;" d="M246.084,169.02c0.532-6.016,2.091-11.92,1.951-18.008c0.431-0.224,0.862-0.448,1.997-1.039
		c-1.146,6.634-0.677,12.983-2.429,19.128C247.097,169.074,246.59,169.047,246.084,169.02z"/>
	<path style="fill:#828385;" d="M89.082,38.922c-2.69,0.352-4.86,1.481-6.055,4.062c-1.246-0.737-1.535-2.021-1.935-3.315
		c1.385-2.004,3.432-2.934,5.525-3.679C88.11,36.542,88.922,37.465,89.082,38.922z"/>
	<path style="fill:#D8D9D9;" d="M180.191,27.039c1.926-0.38,3.479,0.564,4.881,1.607c1.433,1.066,2.84,2.072,4.627,2.41
		c0.097,0.982,0.194,1.964,0.291,2.947c-1.826,0.278-3.175-0.483-4.346-1.839c-1.557-1.803-3.465-3.059-5.921-3.283
		C179.88,28.267,180.036,27.653,180.191,27.039z"/>
	<path style="fill:#CECFD0;" d="M39.999,104.001c-1.745-0.944-3.115-2.291-3.999-4.052c-0.65-1.295-1.531-2.043-3.019-1.948
		c-0.179-0.161-0.225-0.354-0.14-0.579c0.073-0.876,0.146-1.752,0.22-2.628c2.172,1.098,4.836,1.473,5.976,4.082
		C38.871,100.676,40.463,102.145,39.999,104.001z"/>
	<path style="fill:#CECFD0;" d="M122.011,207.81c-1.086-3.369-4.18-5.285-5.945-8.177c-0.522-0.856-1.162-1.566-1.067-2.632
		c0.836-0.014,1.637,0.093,2.232,0.762c1.827,2.056,3.217,4.457,5.245,6.373c1.026,0.969,0.403,2.495,0.53,3.769
		C122.674,207.874,122.343,207.842,122.011,207.81z"/>
	<path style="fill:#A3A4A7;" d="M113.091,211.407c0.114,2.036-1.521,3.716-1.185,5.798c-1.505-0.331-2.872-0.934-3.99-2.026
		c0.226-1.776,0.746-3.391,2.405-4.38C111.256,210.951,112.264,210.767,113.091,211.407z"/>
	<path style="fill:#929497;" d="M110.322,210.798c-1.66,0.989-2.18,2.604-2.405,4.38c-1.548-0.255-2.874-0.934-3.964-2.067
		c0.357-1.329,0.715-2.658,1.072-3.987C106.974,209.1,108.668,209.884,110.322,210.798z"/>
	<path style="fill:#828385;" d="M39.73,204.716c0.561,1.457,2.302,2.199,2.391,3.942c-1.25,0.891-2.534,1.645-4.218,0.985
		c-1.093-1.01-0.806-2.366-0.78-3.631C37.717,204.955,38.786,204.964,39.73,204.716z"/>
	<path style="fill:#929497;" d="M49.096,221.43c-0.662,1.015-1.549,1.663-2.833,1.732c-1.268-0.596-1.995-1.59-2.133-3.092
		c0.52-1.395,1.505-2.39,2.931-2.964C46.675,219.048,48.928,219.749,49.096,221.43z"/>
	<path style="fill:#626365;" d="M43.025,210.016c-0.536,2.111,1.228,3.779,1.117,5.809c-0.729,0.357-1.458,0.714-2.038,0.999
		c-1.253-0.594-1.36-1.705-2.114-2.669C40.764,212.672,41.112,210.828,43.025,210.016z"/>
	<path style="fill:#828385;" d="M148.964,273.023c1.667-0.016,3.334-0.033,5.002-0.049c0,0.789,0,1.579,0,2.305
		c-1.486,0.956-2.9,0.605-4.263,0.414C148.701,274.957,148.85,273.986,148.964,273.023z"/>
	<path style="fill:#626365;" d="M95.06,205.142c0.001,0.915,0.003,1.831,0.004,2.746c-1.67-0.97-3.34-1.939-5.011-2.909
		c-0.351-0.668-0.703-1.337-1.054-2.005C91.432,202.544,93.14,204.139,95.06,205.142z"/>
	<path style="fill:#626365;" d="M236.018,240.215c0.164-1.679,1.961-1.951,2.528-2.624c0.417-1.241-0.955-1.864,0.035-2.657
		c0.959-0.249,1.887-0.262,2.711,0.417c-1.838,1.238-1.078,4.129-3.327,5.158C237.151,240.881,236.526,241.302,236.018,240.215z"/>
	<path style="fill:#B4B5B7;" d="M49.096,221.43c-0.169-1.681-2.421-2.382-2.035-4.324c0,0-0.095-0.139-0.095-0.139
		c0.673-0.328,1.346-0.657,2.019-0.985c0.692,1.047,0.753,2.526,2.131,3.102c-0.02,0.322-0.116,0.62-0.288,0.893
		c-0.471,0.119-0.779,0.395-0.854,0.893C49.682,221.056,49.389,221.243,49.096,221.43z"/>
	<path style="fill:#A3A4A7;" d="M75.978,217.53c1.986-0.303,2.94,0.842,3.522,2.509C77.218,220.758,76.459,219.34,75.978,217.53z"/>
	<path style="fill:#ECEBEB;" d="M152.033,211.656c1.305-1.283,2.839-0.537,4.295-0.485c-0.175,0.253-0.36,0.499-0.554,0.739
		C154.527,211.825,153.28,211.741,152.033,211.656z"/>
	<path style="fill:#828385;" d="M148.168,266.925c1.209,1.313,0.805,2.817,0.511,4.308
		C147.589,269.907,147.932,268.409,148.168,266.925z"/>
	<path style="fill:#C3C4C6;" d="M33.061,94.794c-0.073,0.876-0.146,1.752-0.22,2.628c-0.886-0.728-0.986-1.737-0.721-2.706
		C32.285,94.109,32.78,94.248,33.061,94.794z"/>
	<path style="fill:#626365;" d="M48.986,215.981c-0.673,0.328-1.346,0.657-2.019,0.985c0.035-0.571,0.07-1.143,0.105-1.714
		c0.339-0.171,0.679-0.341,1.018-0.512C48.672,214.95,49.107,215.265,48.986,215.981z"/>
	<path style="fill:#929497;" d="M246.084,169.02c0.506,0.027,1.013,0.054,1.519,0.081c-0.189,1.148-0.379,2.296-0.568,3.444
		C244.898,171.861,246.103,170.275,246.084,169.02z"/>
	<path style="fill:#1A1A1B;" d="M141.061,211.432c1.102-0.249,2.147-0.145,3.104,0.504
		C143.104,211.926,141.959,212.441,141.061,211.432z"/>
	<path style="fill:#1A1A1B;" d="M155.774,211.91c0.194-0.239,0.378-0.486,0.554-0.739c0.879,0.057,1.757,0.114,2.636,0.17
		C158.071,212.482,156.872,211.914,155.774,211.91z"/>
	<path style="fill:#626365;" d="M88.033,202.013c-0.827,0.041-1.669,0.113-1.931-0.97C86.923,201.012,87.742,200.987,88.033,202.013
		z"/>
	<path style="fill:#1A1A1B;" d="M138.973,215.693c-0.913,0.203-1.788,0.227-2.498-0.529
		C137.37,215.048,138.314,214.699,138.973,215.693z"/>
	<path style="fill:#C3C4C6;" d="M127.043,215.179c-0.061-0.28-0.088-0.563-0.08-0.849c0.831-0.212,1.55-0.031,2.136,0.613
		C128.413,215.022,127.728,215.1,127.043,215.179z"/>
	<path style="fill:#1A1A1B;" d="M133.059,210.431c0.77-0.214,1.416,0.014,1.974,0.555
		C134.312,211.024,133.563,211.162,133.059,210.431z"/>
	<path style="fill:#1A1A1B;" d="M164.965,210.987c0.424-0.959,1.205-0.842,2.005-0.666
		C166.503,211.147,165.713,211.004,164.965,210.987z"/>
	<path style="fill:#1A1A1B;" d="M212.025,201.938c0-0.57-0.138-1.183,0.507-1.575c0.747,0.812,0.321,1.266-0.487,1.611
		L212.025,201.938z"/>
	<path style="fill:#C3C4C6;" d="M252.989,102.226c-0.158,0.527-0.518,0.761-1.059,0.733
		C252.078,102.419,252.374,102.092,252.989,102.226z"/>
	<path style="fill:#B4B5B7;" d="M113.94,205.038c0.504-0.052,0.863,0.136,1.041,0.627
		C114.395,205.852,114.099,205.559,113.94,205.038z"/>
	<path style="fill:#626365;" d="M89.026,203c-0.662-0.025-1.047-0.331-1.043-1.03C88.571,202.07,89.093,202.236,89.026,203z"/>
	<path style="fill:#B4B5B7;" d="M123.215,213.905c-0.484,0.124-0.89,0.036-1.162-0.423
		C122.587,213.221,122.913,213.53,123.215,213.905z"/>
	<path style="fill:#1A1A1B;" d="M128.15,209.711c0.452-0.412,0.649-0.013,0.88,0.277C128.693,210.031,128.4,209.938,128.15,209.711z
		"/>
	<path style="fill:#1A1A1B;" d="M171.234,214.095c-0.278,0.456-0.648,0.657-1.174,0.42
		C170.343,214.071,170.75,213.975,171.234,214.095z"/>
	<path style="fill:#626365;" d="M92.996,195.003c0.54,0.057,0.873,0.366,1.049,0.865C93.364,195.981,93.065,195.631,92.996,195.003z
		"/>
	<path style="fill:#1A1A1B;" d="M163.333,215.134c-0.325,0.465-0.728,0.626-1.251,0.323
		C162.416,215.029,162.848,214.981,163.333,215.134z"/>
	<path style="fill:#828385;" d="M99.947,199.034c0.558,0.018,0.902,0.307,1.059,0.834C100.33,200,100.052,199.627,99.947,199.034z"
		/>
	<path style="fill:#929497;" d="M246.01,174.036c-0.402-1.015,0.194-1.375,1.034-1.574
		C246.939,173.144,247.162,174.041,246.01,174.036z"/>
	<path style="fill:#929497;" d="M49.975,220.869c0.075-0.498,0.383-0.774,0.854-0.893C50.885,220.6,50.578,220.876,49.975,220.869z"
		/>
	<path style="fill:#1A1A1B;" d="M153.082,184.005c-1.04,2.224-1.239,4.583-1.114,6.993c-1.571,2.425-0.344,5.575-2.065,7.961
		c-0.49-0.027-0.979-0.055-1.483-0.083c-0.995-14.418-4.569-28.391-6.121-42.551c-7.114-4.202-13.892-8.206-20.671-12.211
		c5.573-0.625,11.084,0.367,16.21,0.935c1.861-1.169,0.17-4.392,3.231-4.066c0.182,2.824-1.265,5.994,1.746,8.217
		c1.019,1.465,2.203,2.705,4.087,2.987c4.119,1.813,7.105-0.135,9.74-3.018c3.556-3.89,5.527-8.8,8.333-13.174
		c0.226-0.048,0.446-0.115,0.66-0.201c4.853,2.522,9.912,4.292,15.473,4.201c0.895-0.015,1.621,0.208,1.967,1.125
		c-6.198,4.316-12.84,7.899-19.409,11.585c-4.519,2.536-8.44,5.233-7.709,11.252c-1.758,1.758-0.294,4.075-1.042,6.008
		c-1.774,1.166-0.411,2.713-0.497,4.085c-0.459,0.955-0.472,1.95-0.269,2.965c-0.165,0.95-0.33,1.899-0.495,2.849
		C152.768,181.148,153.008,182.588,153.082,184.005z"/>
	<path style="fill:#1A1A1B;" d="M70.005,116.082c-1.927-1.056-3.997-1.926-5.178-3.959c2.113-0.563,3.672,0.784,5.44,1.507
		c2.795,1.145,4.808,3.614,7.788,4.437c0.948,0.262,0.93,1.2,0.894,2.027C75.469,119.869,73.203,116.936,70.005,116.082z"/>
	<path style="fill:#1A1A1B;" d="M98.59,131.12c3.487-0.806,5.207,2.521,8.11,3.092c-0.322,0.758-0.508,1.196-0.694,1.634
		C103.135,134.897,100.776,133.145,98.59,131.12z"/>
	<path style="fill:#1A1A1B;" d="M80.758,121.078c3.144,0.033,6.036,0.503,7.127,4.102C85.362,124.069,82.893,122.864,80.758,121.078
		z"/>
	<path style="fill:#1A1A1B;" d="M92.861,128.09c1.588,0.271,4.163-1.326,4.061,2.145C95.37,129.896,93.943,129.32,92.861,128.09z"/>
	<path style="fill:#1A1A1B;" d="M89.679,126.104c1.53-0.035,3.481-0.737,3.233,2.043C91.785,127.544,90.466,127.245,89.679,126.104z
		"/>
	<path style="fill:#1A1A1B;" d="M87.823,125.109c0.608-0.043,1.011,0.204,1.16,0.814C88.335,126.023,87.999,125.68,87.823,125.109z"
		/>
	<path style="fill:#1A1A1B;" d="M78.895,120.05c0.505,0.026,0.892,0.223,1.056,0.737C79.364,120.879,79.105,120.501,78.895,120.05z"
		/>
	<path style="fill:#3D3C3E;" d="M62.707,99.856c2.361-5.57,6.028-10.315,9.858-14.877c11.316-13.475,25.097-23.594,41.683-29.695
		c15.004-5.519,30.374-7.489,46.357-5.509c15.086,1.868,28.975,6.715,41.688,14.92c14.37,9.275,25.69,21.441,33.831,36.522
		c0.474,0.878,1.083,1.692,0.94,2.772c-6.783,1.417-13.67,1.673-20.546,2.266c-6.455,0.557-13.012-0.266-19.263,0.934
		c-7.375,1.417-14.9-0.467-22.117,1.794c-0.152,0.048-0.332,0.021-0.497,0.009c-9.957-0.723-19.82,1.207-29.764,1.033
		c-7.603-0.133-15.19,0.796-22.755,1.264c-5.765,0.356-11.536,0.406-17.298,0.711c-1.799,0.095-3.534,0.092-5.365,0.655
		c-4.422,1.361-9.222,0.355-13.041-1.261c-6.065-2.567-12.065-4.95-17.803-5.613c-2.037-1.431-1.292-3.017-1.887-4.149
		C65.546,100.633,64.25,99.965,62.707,99.856z"/>
	<path style="fill:#B4B5B7;" d="M154.148,177.015c-0.203-1.015-0.19-2.01,0.269-2.965c5.633-3.093,10.221-7.608,15.319-11.421
		c8.675-6.49,16.943-13.521,25.478-20.201c8.266-6.469,16.661-12.772,24.977-19.177c1.055-0.812,2.03-1.769,1.781-3.327
		c1.669-1.85,4.28-2.185,6.099-3.794c3.399-1.546,6.276-4.085,9.897-5.209c-0.21,3.755-3.73,4.674-5.983,6.402
		c-2.612,2.004-5.089,3.991-6.985,6.676c-0.486,0.061-1.101-0.048-1.44,0.208c-7.392,5.595-14.891,11.065-22.031,16.967
		c-1.99,1.645-4.802,2.849-5.536,5.819c-0.329,0.003-0.658,0.008-0.988,0.015c-0.628,0.151-1.441,0.102-1.855,0.485
		c-3.004,2.774-6.631,4.883-9.509,7.634c-6.697,6.401-14.822,10.89-21.648,17.099C159.836,174.191,157.619,176.857,154.148,177.015z
		"/>
	<path style="fill:#929497;" d="M154.913,169.965c0.748-1.933-0.717-4.25,1.042-6.008c0.85,0.073,1.565-0.134,2.274-0.691
		c7.571-5.943,15.235-11.77,22.705-17.836c1.504-1.222,4.313-1.513,4.074-4.423c0.1-0.209,0.129-0.427,0.088-0.654
		c2.008-0.728,3.914-1.625,5.377-3.253c0.714,0.107,1.314-0.023,1.618-0.774c1.993-0.732,3.885-1.631,5.36-3.225
		c0.709,0.06,1.334-0.049,1.631-0.814c1.964-0.763,3.887-1.597,5.362-3.184c0.529-0.009,1.058-0.018,1.587-0.028
		c-0.358,3.579-3.669,4.442-5.885,6.228c-7.039,5.669-14.206,11.178-21.316,16.758c-5.304,4.163-10.426,8.587-15.968,12.402
		C160.211,166.284,158.527,169.565,154.913,169.965z"/>
	<path style="fill:#A3A4A7;" d="M154.913,169.965c3.614-0.4,5.298-3.681,7.946-5.504c5.543-3.814,10.664-8.239,15.968-12.402
		c7.11-5.58,14.277-11.09,21.316-16.758c2.217-1.785,5.528-2.648,5.885-6.228c0.06-0.233,0.084-0.469,0.072-0.71
		c2.557-1.197,5.195-2.255,7.275-4.265c0.734,0.025,1.384-0.108,1.684-0.897c1.899-0.692,3.779-1.414,5.074-3.095l-0.016,0.068
		c0.618-0.084,1.236-0.167,1.854-0.251c0.249,1.559-0.726,2.515-1.781,3.327c-8.316,6.405-16.711,12.708-24.977,19.177
		c-8.536,6.68-16.804,13.711-25.478,20.201c-5.097,3.814-9.685,8.328-15.319,11.421
		C154.502,172.679,153.139,171.131,154.913,169.965z"/>
	<path style="fill:#B4B5B7;" d="M165.633,135.794c-0.214,0.085-0.434,0.152-0.66,0.201c-1.83-0.323-3.11,0.522-4.333,1.801
		c-2.155,2.254-4.618,4.186-6.951,6.237c-2.612,2.296-6.051,4.193-6.789,8.155c-1.884-0.282-3.068-1.522-4.087-2.987
		c1.014-2.97,2.601-5.418,5.266-7.309c3.246-2.303,6.863-4.413,7.996-8.715c2.363-0.629,4.727-1.258,7.09-1.887
		c0.951-0.143,1.902-0.285,2.852-0.428c0.693,0.211,1.713-0.122,1.805,1.086C166.696,133.004,166.128,134.379,165.633,135.794z"/>
	<path style="fill:#626365;" d="M185.008,141.007c0.239,2.91-2.57,3.202-4.074,4.423c-7.47,6.066-15.134,11.894-22.705,17.836
		c-0.709,0.557-1.423,0.764-2.274,0.691c-0.731-6.019,3.19-8.716,7.709-11.252c6.569-3.686,13.211-7.269,19.409-11.585
		C183.718,141.083,184.363,141.045,185.008,141.007z"/>
	<path style="fill:#828385;" d="M156.075,133.177c-1.133,4.302-4.75,6.412-7.996,8.715c-2.665,1.89-4.252,4.339-5.266,7.309
		c-3.011-2.223-1.564-5.393-1.746-8.217c0.118-0.183,0.128-0.372,0.031-0.567c2.861-4.346,7.63-5.479,12.068-7.168
		c0.618-0.116,1.237-0.232,1.855-0.347C155.373,132.993,155.724,133.085,156.075,133.177z"/>
	<path style="fill:#1A1A1B;" d="M153.166,133.248c-4.439,1.689-9.208,2.822-12.068,7.168c-0.566-2.446,0.564-4.076,2.546-5.298
		c2.652-1.635,5.669-2.213,8.634-2.913C152.481,132.158,152.866,132.883,153.166,133.248z"/>
	<path style="fill:#1A1A1B;" d="M221.972,119.924c-0.618,0.084-1.236,0.167-1.854,0.251c1.173-2.741,4.932-4.925,7.755-4.483
		c0.087,0.014,0.133,0.286,0.198,0.439C226.252,117.739,223.641,118.074,221.972,119.924z"/>
	<path style="fill:#1A1A1B;" d="M156.075,133.177c-0.351-0.092-0.702-0.184-1.053-0.276c0.101-0.473,0.118-1.316,0.316-1.361
		c2.304-0.526,4.631-0.966,6.968-1.315c0.228-0.034,0.57,0.692,0.859,1.065C160.802,131.919,158.438,132.548,156.075,133.177z"/>
	<path style="fill:#1A1A1B;" d="M213.375,124.099c-2.08,2.01-4.718,3.069-7.275,4.265
		C206.925,124.213,210.264,124.35,213.375,124.099z"/>
	<path style="fill:#1A1A1B;" d="M64.878,112.19c-2.445-0.904-4.741-2.057-6.583-3.962C61.157,108.439,63.987,108.703,64.878,112.19z
		"/>
	<path style="fill:#1A1A1B;" d="M167.823,131.948c-0.092-1.209-1.113-0.875-1.805-1.086c0.195-2.723,2.006-1.697,3.534-1.712
		C170.291,131.105,169.91,132.075,167.823,131.948z"/>
	<path style="fill:#1A1A1B;" d="M197.45,133.1c-1.474,1.594-3.367,2.493-5.36,3.225C192.822,133.557,193.56,133.113,197.45,133.1z"
		/>
	<path style="fill:#1A1A1B;" d="M190.472,137.099c-1.463,1.629-3.369,2.525-5.377,3.253
		C185.81,137.555,186.544,137.111,190.472,137.099z"/>
	<path style="fill:#1A1A1B;" d="M220.133,120.107c-1.295,1.681-3.176,2.403-5.074,3.095
		C215.465,120.062,217.68,119.889,220.133,120.107z"/>
	<path style="fill:#1A1A1B;" d="M204.442,129.102c-1.475,1.587-3.397,2.421-5.362,3.184
		C199.851,129.552,200.595,129.11,204.442,129.102z"/>
	<path style="fill:#0A0A0B;" d="M83.819,197.509c-0.06,1.44-0.796,1.858-1.695,2.513c-2.125-1.307-4.058-2.816-5.508-6.505
		C79.633,195.188,81.663,196.313,83.819,197.509z"/>
	<path style="fill:#0A0A0B;" d="M87.037,191.88c1.446,0.063,2.527,0.647,2.998,2.101C88.531,194,86.802,194.341,87.037,191.88z"/>
	<path style="fill:#CECFD0;" d="M71.999,144.001c-1.237-0.685-2.671-1.053-3.584-2.201c-0.693-1.233-0.313-2.54-0.419-3.795
		C70.932,138.934,72.075,141.06,71.999,144.001z"/>
	<path style="fill:#CECFD0;" d="M76.999,150.001c-2.107-1.633-4.608-2.937-5-6C75.599,144.39,77.103,146.525,76.999,150.001z"/>
	<path style="fill:#CECFD0;" d="M55.999,124.001c-2.107-1.633-4.608-2.937-5-6C54.132,118.779,56.106,120.523,55.999,124.001z"/>
	<path style="fill:#CECFD0;" d="M110.999,192.001c-2.107-1.633-4.608-2.938-5-6C109.132,186.779,111.106,188.523,110.999,192.001z"
		/>
	<path style="fill:#CECFD0;" d="M89.999,166.001c-2.462-1.337-3.958-3.479-4.999-6C88.187,160.57,89.412,162.04,89.999,166.001z"/>
	<path style="fill:#CECFD0;" d="M46.999,113.001c-2.26-0.926-3.035-3.038-4-5C46.299,108.481,46.525,108.763,46.999,113.001z"/>
	<path style="fill:#CECFD0;" d="M102.999,182.001c-1.867-1.24-3.822-2.408-4-4.999C102.047,177.296,103.148,179.148,102.999,182.001
		z"/>
	<path style="fill:#CECFD0;" d="M84.999,160.001c-2.26-0.925-3.034-3.039-4-5C84.299,155.481,84.525,155.763,84.999,160.001z"/>
	<path style="fill:#CECFD0;" d="M64.999,135.001c-1.866-1.24-3.822-2.409-4-5C64.047,130.296,65.148,132.148,64.999,135.001z"/>
	<path style="fill:#CECFD0;" d="M97.999,176.001c-1.867-1.239-3.822-2.409-4-5C97.045,171.298,98.149,173.147,97.999,176.001z"/>
	<path style="fill:#CECFD0;" d="M105.999,186.001c-1.621-0.867-3.042-1.885-3-3.999C105.778,182,106.125,183.823,105.999,186.001z"
		/>
	<path style="fill:#CECFD0;" d="M42.999,108.001c-1.62-0.868-3.045-1.883-3-3.999C42.778,104,43.125,105.823,42.999,108.001z"/>
	<path style="fill:#CECFD0;" d="M114.999,197.001c-1.62-0.868-3.045-1.882-3-3.999C114.778,193,115.125,194.823,114.999,197.001z"/>
	<path style="fill:#CECFD0;" d="M50.999,118.001c-1.621-0.867-3.042-1.885-3-3.999C50.778,114,51.125,115.823,50.999,118.001z"/>
	<path style="fill:#CECFD0;" d="M92.999,170c-1.423-0.495-2.084-1.499-2.001-2.999C93.369,166.865,92.97,168.575,92.999,170z"/>
	<path style="fill:#CECFD0;" d="M80.999,155.001c-1.424-0.495-2.084-1.499-2.001-2.999
		C81.369,151.865,80.969,153.576,80.999,155.001z"/>
	<path style="fill:#CECFD0;" d="M67.995,138.004c-1.433,0.097-2.098-0.571-1.996-2.003
		C67.436,135.899,68.103,136.565,67.995,138.004z"/>
	<path style="fill:#CECFD0;" d="M195.006,147.009c0.329-0.007,0.658-0.012,0.988-0.015c1.81,0.289,3.092-0.509,4.338-1.78
		c4.111-4.194,9.421-6.874,13.8-10.745c0.811-0.716,1.888-0.422,2.861-0.477l0.008,0.009c-0.662,2.85-3.309,4.021-5.254,5.489
		c-10.543,7.954-20.797,16.273-31.263,24.313c-6.096,4.683-11.945,9.707-18.286,14.056c-1.82,1.248-3.266,2.783-4.779,4.281
		c-1.25,1.237-2.492,2.163-4.337,1.866c-0.074-1.417-0.314-2.857,0.571-4.142c2.378,0.242,4.028-1.061,5.589-2.595
		c1.058-1.04,2-2.37,3.277-2.982c4.066-1.95,6.963-5.424,10.628-7.817c5.84-3.814,10.533-9.023,16.374-12.846
		C191.842,152.104,194.532,150.322,195.006,147.009z"/>
	<path style="fill:#CECFD0;" d="M225.006,127.006c-1.098,4.128-4.749,5.336-8.004,6.996l-0.008-0.009
		c1.194-4.019,4.089-6.091,8.005-6.994L225.006,127.006z"/>
	<path style="fill:#1A1A1B;" d="M116.136,30.211c1.823-0.303,3.286-0.36,4.724-0.03c2.466,2.836,2.923,4.714,1.48,6.427
		c-1.338,1.588-3.113,1.885-4.933,1.113C115.152,36.765,114.734,34.159,116.136,30.211z"/>
	<path style="fill:#303032;" d="M54.161,71.863c-0.028-0.822-0.056-1.645-0.084-2.467c1.233-0.56,2.436-0.939,3.401,0.659
		c0.306,1.134-0.33,1.973-1.141,2.716C55.37,72.974,54.893,72.121,54.161,71.863z"/>
	<path style="fill:#1A1A1B;" d="M122.986,268.905c-1.56-0.611-2.49-1.476-2.833-2.915c0.355-1.759,1.011-3.189,3.154-3.128
		c1.303,0.037,2.318,0.638,2.591,1.918C126.358,266.938,125.34,268.273,122.986,268.905z"/>
	<path style="fill:#303032;" d="M72.691,237.867c-0.607,2.148-1.562,3.541-3.86,3.246c-1.36-0.175-2.076-1.159-2.233-2.325
		c-0.221-1.638,0.664-2.917,2.187-3.457C70.826,234.605,71.778,236.025,72.691,237.867z"/>
	<path style="fill:#0A0A0B;" d="M253.634,211.627c0.75-0.981,1.276-2.206,2.925-2.548c0.535,1.971-0.606,2.797-2.092,3.432
		C254.19,212.216,253.912,211.922,253.634,211.627z"/>
	<path style="fill:#0A0A0B;" d="M252.545,212.292c0.363-0.221,0.726-0.443,1.089-0.664c0.278,0.295,0.555,0.589,0.833,0.884
		c-0.362,0.289-0.725,0.579-1.087,0.868C253.102,213.017,252.824,212.654,252.545,212.292z"/>
	<path style="fill:#C3C4C6;" d="M224.998,126.998c-3.917,0.903-6.811,2.975-8.005,6.994c-0.973,0.055-2.05-0.24-2.861,0.477
		c-4.379,3.871-9.689,6.55-13.8,10.745c-1.246,1.271-2.528,2.069-4.338,1.78c0.734-2.97,3.545-4.174,5.536-5.819
		c7.14-5.903,14.639-11.372,22.031-16.967c0.339-0.256,0.954-0.147,1.44-0.208C224.999,124.999,224.999,125.999,224.998,126.998z"/>
	<path style="fill:#C3C4C6;" d="M195.006,147.009c-0.475,3.313-3.165,5.095-5.486,6.614c-5.841,3.823-10.534,9.032-16.374,12.846
		c-3.665,2.393-6.562,5.867-10.628,7.817c-1.276,0.612-2.219,1.942-3.277,2.982c-1.561,1.535-3.211,2.837-5.589,2.595
		c0.165-0.95,0.33-1.899,0.495-2.849c3.472-0.158,5.689-2.824,7.847-4.787c6.825-6.209,14.95-10.698,21.648-17.099
		c2.878-2.751,6.505-4.86,9.509-7.634C193.566,147.111,194.378,147.16,195.006,147.009z"/>
	<path style="fill:#D8D9D9;" d="M146.9,152.188c0.738-3.962,4.178-5.859,6.789-8.155c2.333-2.051,4.796-3.983,6.951-6.237
		c1.223-1.279,2.503-2.124,4.333-1.801c-2.806,4.374-4.778,9.284-8.333,13.174C154.005,152.052,151.019,154.001,146.9,152.188z"/>
</g>
</svg>
