<?xml version="1.0" encoding="iso-8859-1"?>
<!-- Generator: Adobe Illustrator 27.0.0, SVG Export Plug-In . SVG Version: 6.00 Build 0)  -->
<svg version="1.1" id="Layer_1" xmlns="http://www.w3.org/2000/svg" xmlns:xlink="http://www.w3.org/1999/xlink" x="0px" y="0px"
	 viewBox="0 0 1566 157.858" style="enable-background:new 0 0 1566 157.858;" xml:space="preserve">
<g>
	<path style="fill:#CDCDD7;" d="M0,0.858c0.375,0.023,0.749,0.046,1.124,0.069c-0.042,0.83-0.121,1.66-0.121,2.49
		C0.996,53.191,0.994,102.966,1.004,152.74c0,1.327,0.144,2.653,0.221,3.98c-0.408,0.046-0.817,0.092-1.225,0.139
		C0,104.858,0,52.858,0,0.858z"/>
	<path style="fill:#B5B5C5;" d="M449,157.858c0.078-0.425,0.155-0.849,0.233-1.274c5.853,0.509,11.707,0.448,17.561,0.029
		c0.069,0.415,0.138,0.83,0.206,1.245C461,157.858,455,157.858,449,157.858z"/>
	<path style="fill:#B5B5C5;" d="M1117.858,156.673c0.047,0.395,0.095,0.79,0.142,1.185c-6,0-12,0-18,0
		c0.055-0.401,0.11-0.802,0.165-1.203C1106.062,157.019,1111.96,156.983,1117.858,156.673z"/>
	<path style="fill:#B5B5C5;" d="M1236,157.858c0.016-0.358,0.031-0.716,0.047-1.074c5.991,0.036,11.981,0.072,17.972,0.108
		c0.068,0.324,0.062,0.646-0.019,0.966C1248,157.858,1242,157.858,1236,157.858z"/>
	<path style="fill:#B5B5C5;" d="M292,157.858c-0.043-0.32-0.05-0.64-0.022-0.961c5.641-0.058,11.281-0.117,16.922-0.175
		c0.033,0.379,0.066,0.758,0.1,1.136C303.333,157.858,297.667,157.858,292,157.858z"/>
	<path style="fill:#B5B5C5;" d="M784.03,156.926c0.029,0.312,0.019,0.623-0.03,0.933c-5.667,0-11.333,0-17,0
		c0.039-0.385,0.077-0.77,0.116-1.156C772.754,156.777,778.392,156.851,784.03,156.926z"/>
	<path style="fill:#B5B5C5;" d="M1301.736,156.561c0.088,0.433,0.176,0.865,0.264,1.298c-5.667,0-11.333,0-17,0
		c0.014-0.355,0.028-0.709,0.042-1.064C1290.608,156.793,1296.179,157.181,1301.736,156.561z"/>
	<path style="fill:#83839E;" d="M1513.831,156.74c0.056,0.373,0.113,0.745,0.169,1.118c-5.667,0-11.333,0-17,0
		c0.003-0.336,0.005-0.672,0.008-1.008C1502.616,156.814,1508.223,156.777,1513.831,156.74z"/>
	<path style="fill:#9192AA;" d="M1566,16.858c-0.344-0.009-0.687-0.018-1.03-0.028c-0.063-5.227-0.127-10.453-0.19-15.68
		c0.407-0.098,0.814-0.195,1.221-0.293C1566,6.192,1566,11.525,1566,16.858z"/>
	<path style="fill:#B5B5C5;" d="M941.003,156.864c0.034,0.331,0.032,0.663-0.003,0.994c-5.333,0-10.667,0-16,0
		c-0.052-0.307-0.065-0.616-0.039-0.926C930.309,156.91,935.656,156.887,941.003,156.864z"/>
	<path style="fill:#B5B5C5;" d="M1400,157.858c-0.054-0.257-0.079-0.518-0.075-0.781c4.365-0.06,8.731-0.12,13.097-0.18
		c0.028,0.321,0.021,0.641-0.022,0.96C1408.667,157.858,1404.333,157.858,1400,157.858z"/>
	<path style="fill:#223962;" d="M941.003,156.864c-5.347,0.023-10.695,0.045-16.042,0.068c-0.587-1.272-0.349-2.626-0.35-3.944
		c-0.012-49.164-0.012-98.328,0-147.492c0-1.316-0.233-2.665,0.456-4.23c5.47,0,11.073,0,16.894,0
		c18.125,27.91,36.321,55.93,54.988,84.676c18.816-28.591,37.321-56.709,55.818-84.815c5.71,0,11.168,0,16.962,0
		c0,51.827,0,103.553,0,155.64c-5.313,0.662-10.741,0.046-16.636,0.356c0-41.762,0-83.291,0-124.819
		c-0.352-0.129-0.705-0.257-1.057-0.386c-18.448,27.149-36.215,54.76-55.092,82.628c-9.812-13.634-18.358-27.572-27.459-41.124
		c-9.13-13.596-18.046-27.335-27.056-41.012c-0.398,0.096-0.795,0.192-1.193,0.289c0,1.732,0,3.464,0,5.196
		c0,37.831,0.004,75.662-0.009,113.493C941.227,153.214,941.081,155.039,941.003,156.864z"/>
	<path style="fill:#1DA0DB;" d="M598.547,29.217c5.462,4.623,10.265,8.689,15.317,12.965c-1.904,3.716-4.52,6.904-6.418,10.521
		c-10.799,20.578-7.332,47.607,8.11,64.483c12.81,14,28.548,20.453,47.206,18.495c15.892-1.667,28.738-9.474,38.353-22.434
		c9.064-12.218,12.498-26.023,10.725-40.88c-3.004-25.168-20.99-44.756-45.66-49.409c-2.89-0.545-5.73-1.562-9.262-0.831
		c0-3.873,0-7.16,0-10.447c0-3.328,0-6.656,0-9.928c3.692-1.016,66.02-1.386,75.686-0.469c0,6.682,0,13.401,0,20.462
		c-7.71,0-15.318,0-23.651,0c2.819,3.429,5.307,6.214,7.528,9.198c8.899,11.96,14.027,25.314,15.73,40.209
		c1.754,15.346-1.081,29.774-7.795,43.361c-6.52,13.195-16.071,23.995-28.933,31.494c-6.884,4.014-14.064,7.444-21.954,9.095
		c-9.159,1.916-18.301,2.262-27.649,1.026c-13.403-1.773-25.065-7.215-35.581-15.377c-11.288-8.761-19.142-20.044-24.36-33.336
		c-4.597-11.709-5.885-23.86-4.812-36.171c1.278-14.663,6.676-27.942,15.646-39.693C597.279,30.888,597.782,30.224,598.547,29.217z"
		/>
	<path style="fill:#243A63;" d="M1413.022,156.898c-4.365,0.06-8.731,0.12-13.097,0.18c-6.241-6.909-11.519-14.575-17.177-21.94
		c-22.997-29.933-45.932-59.915-68.894-89.875c-3.709-4.839-7.445-9.657-12.118-14.202c0,41.833,0,83.666,0,125.499
		c-5.557,0.62-11.129,0.233-16.695,0.234c-0.047-1.163-0.135-2.326-0.135-3.489c-0.007-49.14-0.009-98.279,0.01-147.419
		c0.001-1.464-0.313-2.975,0.441-4.652c5.013,0,10.112,0,15.503,0c31.528,41.107,63.185,82.382,95.591,124.633
		c0-42.176,0-83.175,0-124.533c5.687,0,10.911,0,16.245,0c1.011,0.834,0.599,2.088,0.6,3.185
		c0.022,49.806,0.019,99.612,0.005,149.418C1413.301,154.924,1413.119,155.911,1413.022,156.898z"/>
	<path style="fill:#253A63;" d="M784.03,156.926c-5.638-0.074-11.276-0.148-16.914-0.223c-0.026-32.484-0.056-64.969-0.075-97.453
		c-0.01-17.659-0.002-35.317-0.002-52.976c0-1.626,0-3.251,0-4.753c1.851-0.865,3.364-0.531,4.817-0.533
		c19.824-0.025,39.649-0.065,59.473,0.002c11.066,0.037,21.861,1.572,31.913,6.598c16.641,8.319,26.641,25.336,24.003,46.328
		c-2.3,18.3-12.952,29.649-29.742,35.878c-3.569,1.324-7.27,2.293-11.527,3.617c15.267,20.898,30.489,41.735,46.075,63.07
		c-7.209,0-13.738,0-20.841,0c-3.459-4.727-7.198-9.785-10.883-14.882c-10.231-14.154-20.4-28.354-30.7-42.457
		c-1.56-2.136-2.417-4.215-2.298-6.878c0.169-3.792,0.043-7.597,0.043-11.142c2.071-1.495,3.96-0.86,5.725-0.915
		c8.107-0.25,15.775-1.976,22.812-6.199c17.197-10.32,17.416-33.272,7.471-44.836c-4.878-5.672-11.249-8.588-18.34-10.333
		c-4.578-1.127-9.24-1.225-13.884-1.256c-14.659-0.101-29.32-0.04-43.98-0.03c-0.642,0-1.283,0.115-2.1,0.193
		c-0.86,1.959-0.488,3.963-0.489,5.89c-0.025,42.647-0.01,85.295-0.051,127.942C784.535,153.352,785.117,155.233,784.03,156.926z"/>
	<path style="fill:#253B64;" d="M163.848,17.001c0,20.439,0,40.372,0,60.929c5.22,0.545,10.653,0.165,16.057,0.234
		c5.497,0.07,10.996,0.016,16.494,0.016s10.996,0,16.494,0s10.996,0,16.494,0c5.456,0,10.911,0,16.582,0c0,5.603,0,10.703,0,16.315
		c-27.377,0-54.609,0-82.12,0c0,15.6,0,30.694,0,46.278c30.768,0,61.664,0,92.846,0c0.596,5.539,0.212,10.616,0.305,15.986
		c-36.997,0-73.707,0-110.692,0c0-51.751,0-103.479,0-155.499c36.443,0,72.831,0,109.521,0c0,5.104,0,10.165,0,15.741
		C225.235,17.001,194.681,17.001,163.848,17.001z"/>
	<path style="fill:#243A63;" d="M308.901,156.722c-5.641,0.058-11.281,0.117-16.922,0.175c-0.095-1.155-0.272-2.309-0.272-3.464
		c-0.014-49.33-0.015-98.66-0.002-147.989c0-1.307-0.263-2.656,0.351-3.925c1.177-0.942,2.564-0.525,3.849-0.527
		c19.999-0.028,39.997-0.054,59.996-0.005c11.603,0.028,22.952,1.621,33.247,7.334c13.977,7.756,21.643,19.692,22.868,35.752
		c1.638,21.46-9.577,39.207-32.55,46.668c-2.812,0.913-5.687,1.634-9.033,2.586c15.37,21.037,30.545,41.808,46.129,63.138
		c-7.343,0-13.893,0-20.896,0c-14.458-19.972-29.079-40.17-43.417-59.975c0-5.631,0-10.748,0-16.15
		c5.477-0.306,10.794-0.088,15.984-1.438c5.7-1.483,11.038-3.554,15.635-7.364c9.655-8.002,12.057-18.536,9.852-30.183
		c-2.155-11.381-9.866-18.086-20.599-21.586c-5.443-1.775-11.085-2.165-16.755-2.181c-15.165-0.043-30.331-0.033-45.496-0.031
		c-0.467,0-0.934,0.152-1.406,0.233c-0.91,1.798-0.458,3.658-0.46,5.444c-0.03,42.664-0.023,85.327-0.027,127.991
		C308.977,153.058,308.927,154.89,308.901,156.722z"/>
	<path style="fill:#233963;" d="M1.225,156.72c-0.077-1.327-0.221-2.653-0.221-3.98C0.994,102.966,0.996,53.191,1.003,3.417
		c0-0.83,0.079-1.66,0.121-2.49c20.491,0.004,40.989-0.298,61.472,0.124C75.629,1.32,87.882,4.895,98.225,13.37
		c8.869,7.267,13.88,16.706,15.827,27.982c1.807,10.468,0.782,20.553-3.365,30.274c-3.706,8.689-9.933,15.265-17.858,20.3
		c-10.103,6.419-21.267,9.169-33.103,9.584c-0.637,0.022-1.283-0.178-2.231-0.321c-0.686-5.15-0.194-10.228-0.352-15.437
		c4.337-1.025,8.533-0.677,12.555-1.787c9.074-2.504,16.883-6.674,22.469-14.612c8.342-11.853,7.919-36.057-9.483-46.146
		c-5.509-3.194-11.604-4.852-17.971-5.514c-8.973-0.933-17.969-0.588-26.958-0.639c-6.313-0.036-12.626-0.007-19.548-0.007
		c0,46.596,0,92.944,0,139.67C12.144,156.72,6.684,156.72,1.225,156.72z"/>
	<path style="fill:#2B3E66;" d="M466.794,156.613c-5.854,0.42-11.708,0.481-17.561-0.029c0-51.632,0-103.264,0-155.262
		c36.568,0,72.923,0,109.734,0c0,4.211,0.028,8.335-0.018,12.458c-0.013,1.118,0.357,2.327-0.695,3.621c-30.078,0-60.36,0-90.562,0
		c-1.037,3.724-1.239,54.842-0.243,60.803c26.991,0,54.061,0,81.337,0c0,5.549,0,10.653,0,16.193c-27.153,0-54.231,0-81.993,0
		C466.794,115.421,466.794,136.017,466.794,156.613z"/>
	<path style="fill:#243A63;" d="M1254.019,156.892c-5.991-0.036-11.981-0.072-17.972-0.108c-8.373-19.32-16.756-38.635-25.116-57.96
		c-10.468-24.199-20.914-48.409-31.38-72.609c-0.651-1.505-1.397-2.968-2.239-4.745c-1.65,1.338-2.047,3.141-2.737,4.724
		c-16.499,37.852-32.982,75.711-49.458,113.573c-2.447,5.624-4.841,11.27-7.259,16.906c-5.898,0.31-11.795,0.346-17.693-0.018
		c9.293-21.111,18.574-42.227,27.883-63.331c13.33-30.218,26.682-60.427,40.029-90.638c0.395-0.895,0.852-1.763,1.301-2.686
		c5.443,0,10.741,0,16.265,0c5.417,12.32,10.82,24.601,16.218,36.885c16.895,38.446,33.796,76.889,50.656,115.35
		C1253.166,153.716,1254.354,155.075,1254.019,156.892z"/>
	<path style="fill:#243A63;" d="M1564.779,1.151c0.063,5.227,0.127,10.453,0.19,15.68c-1.382,1.415-3.127,0.655-4.679,0.665
		c-15.211,0.093-30.423,0.098-45.634,0.128c-0.649,0.221-0.796,0.67-0.584,1.282c-0.005,44.121-0.008,88.243-0.026,132.364
		c-0.001,1.824-0.141,3.647-0.216,5.47c-5.608,0.037-11.215,0.073-16.823,0.11c-0.949-2.559-0.682-5.231-0.682-7.867
		c-0.014-41.814-0.01-83.627-0.01-125.441c0-1.799,0-3.598,0-6.024c-17.078,0-33.797,0-50.712,0
		c-0.611-5.704-0.34-10.79-0.235-15.619c0.957-1.221,2.029-0.912,2.981-0.913c38.149-0.015,76.297-0.013,114.446-0.005
		C1563.457,0.982,1564.118,1.092,1564.779,1.151z"/>
	<path style="fill:#9192AA;" d="M1514.072,18.906c-0.212-0.613-0.065-1.061,0.584-1.282
		C1514.823,18.216,1514.456,18.565,1514.072,18.906z"/>
</g>
</svg>
