<?xml version="1.0" encoding="iso-8859-1"?>
<!-- Generator: Adobe Illustrator 27.0.0, SVG Export Plug-In . SVG Version: 6.00 Build 0)  -->
<svg version="1.1" id="Layer_1" xmlns="http://www.w3.org/2000/svg" xmlns:xlink="http://www.w3.org/1999/xlink" x="0px" y="0px"
	 viewBox="0 0 456 255.124" style="enable-background:new 0 0 456 255.124;" xml:space="preserve">
<g>
	<path style="fill:#074262;" d="M0,167.127c0.439-0.015,0.877-0.045,1.316-0.044c11.759,0.022,23.517,0.031,35.276,0.082
		c3.318,0.015,6.64,0.07,9.951,0.261c5.666,0.328,11.177,1.449,16.438,3.637c1.767,0.735,3.284,1.886,4.787,3.036
		c2.166,1.658,3.965,3.665,5.342,6.022c1.099,1.881,1.662,3.977,2.237,6.055c0.455,1.644,0.44,3.362,0.668,5.043
		c0.167,1.237-0.105,2.467-0.235,3.685c-0.259,2.434-0.924,4.782-1.886,7.048c-1.231,2.901-3.188,5.244-5.578,7.221
		c-4.289,3.549-9.189,5.836-14.67,6.896c-1.721,0.333-3.435,0.696-5.167,0.973c-1.581,0.253-3.171,0.371-4.768,0.429
		c-4.035,0.148-8.07,0.285-12.068,0.208c-0.322,0.294-0.205,0.633-0.207,0.936c-0.039,6.393,0.172,12.782,0.267,19.173
		c0.019,1.274,0.096,2.557,0.407,3.801c0.612,2.448,2.109,4.045,4.589,4.686c1.89,0.489,3.832,0.688,5.787,1.024
		c0,2.101,0,4.162,0,6.222c-0.461,0.244-0.908,0.129-1.333,0.129c-13.279,0.008-26.558,0.006-39.836,0.007
		c-0.44,0-0.879,0.017-1.319,0.026c0-2.158,0-4.316,0-6.474c2.249-0.051,4.425-0.524,6.563-1.182
		c1.505-0.464,2.521-1.517,3.178-2.899c0.48-1.011,0.751-2.105,0.804-3.228c0.111-2.313,0.262-4.624,0.26-6.942
		c-0.01-14.42-0.011-28.84-0.001-43.26c0.002-2.997-0.121-5.989-0.252-8.981c-0.119-2.709-1.583-5.685-5.171-6.227
		c-1.809-0.273-3.588-0.747-5.38-1.13C0,171.283,0,169.205,0,167.127z M31.403,211.543c0.711-0.06,1.298-0.096,1.882-0.163
		c0.911-0.105,1.817-0.279,2.73-0.339c3.098-0.205,6.077-0.943,8.872-2.246c2.389-1.114,4.652-2.468,6.075-4.856
		c1.419-2.379,2.586-4.821,2.901-7.633c0.33-2.951,0.361-5.9,0.07-8.838c-0.246-2.491-1.207-4.761-2.641-6.832
		c-2.405-3.473-5.987-5.048-9.882-6.018c-2.788-0.695-5.671-0.846-8.538-1.018c-0.387-0.023-0.781-0.09-1.269,0.074
		C31.385,186.259,31.485,198.851,31.403,211.543z"/>
	<path style="fill:#074362;" d="M353.52,255.124c-0.058-0.263-0.275-0.234-0.466-0.254c-2.249-0.237-4.365-0.893-6.392-1.899
		c-2.649-1.313-4.722-3.237-6.312-5.703c-1.312-2.036-2.011-4.283-2.421-6.662c-0.313-1.815-0.389-3.656-0.169-5.43
		c0.298-2.4,1.029-4.725,2.542-6.742c2.211-2.948,5.104-4.87,8.522-6.159c4.18-1.576,8.468-2.789,12.738-4.076
		c3.353-1.011,6.726-1.975,9.956-3.349c0.517-0.22,1-0.536,1.488-0.83c1.268-0.764,1.989-1.837,2.145-3.283
		c0.213-1.968,0.368-3.947,0.205-5.922c-0.117-1.419-0.322-2.833-0.797-4.2c-0.797-2.293-3.005-3.757-5.547-3.574
		c-0.639,0.046-1.271,0.005-1.905,0.013c-1.464,0.02-2.888,0.244-4.116,1.16c-0.684,0.509-1.205,1.154-1.541,1.909
		c-1.188,2.662-1.423,5.399-0.547,8.211c0.231,0.743,0.532,1.5,0.191,2.359c-2.018,1.69-4.442,2.506-7.037,2.952
		c-1.886,0.324-3.74,0.219-5.573-0.29c-1.158-0.322-2.219-0.802-3.054-1.733c-0.76-0.847-1.65-1.569-2.19-2.613
		c-0.467-0.903-0.747-1.842-0.969-2.832c-0.658-2.93,0.666-5.371,1.822-7.864c1.167-1.114,2.174-2.408,3.531-3.307
		c1.944-1.287,4.01-2.325,6.267-2.987c2.747-0.805,5.51-1.458,8.395-1.393c0.719,0.016,1.407-0.207,2.134-0.178
		c2.393,0.097,4.791,0.096,7.183,0.215c4.135,0.205,8.179,0.935,11.873,2.871c4.059,2.128,6.937,5.363,8.266,9.814
		c0.606,2.029,0.59,4.15,0.665,6.25c0.224,6.224,0.165,12.452,0.311,18.676c0.08,3.43,0.071,6.862,0.227,10.289
		c0.074,1.633,0.244,3.27,0.156,4.898c-0.097,1.796,0.836,2.747,2.924,3.252c0.603,0.146,1.228,0.321,1.883,0.266
		c0.588-0.049,1.184-0.01,1.908-0.01c-0.029,2.094,0.118,4.07-0.221,6.039c-0.109,0.632-0.619,0.75-1.109,0.91
		c-0.824,0.271-1.704,0.335-2.539,0.395c-2.142,0.153-4.256,0.587-6.409,0.593c-0.713,0.007-1.425,0.014-2.138,0.022
		c-1.307-0.005-2.614-0.011-3.921-0.016c-1.518-0.149-2.984-0.479-4.356-1.177c-2.144-1.09-3.019-3.199-4.053-5.128
		c-0.514,0.074-0.795,0.371-1.1,0.622c-3.677,3.016-7.966,4.603-12.591,5.444c-1.017,0.185-2.069,0.1-3.057,0.45
		C356.72,255.124,355.12,255.124,353.52,255.124z M375.033,220.745c-3.737,1.281-7.332,2.678-10.778,4.438
		c-1.649,0.842-3.102,1.966-4.392,3.287c-1.542,1.578-2.646,3.42-2.912,5.636c-0.219,1.824-0.263,3.678,0.224,5.473
		c0.823,3.037,2.766,4.949,5.887,5.592c1.064,0.219,2.147,0.165,3.225,0.208c2.334,0.093,4.25-0.85,5.681-2.571
		c1.756-2.112,2.941-4.559,3.138-7.357c0.299-4.265,0.307-8.539,0.233-12.813C375.328,222.043,375.3,221.449,375.033,220.745z"/>
	<path style="fill:#074362;" d="M90.72,255.124c-0.597-0.478-1.35-0.314-2.024-0.474c-3.481-0.829-6.705-2.168-9.159-4.861
		c-3.087-3.388-4.937-7.341-4.798-12.013c0.064-2.143,0.188-4.306,0.929-6.364c0.596-1.654,1.729-2.935,2.867-4.228
		c2.547-2.893,5.88-4.418,9.439-5.621c5.582-1.888,11.261-3.463,16.865-5.28c1.174-0.381,2.339-0.788,3.5-1.208
		c0.448-0.162,0.881-0.372,1.303-0.595c1.702-0.899,2.544-2.325,2.654-4.242c0.155-2.709,0.288-5.414-0.204-8.105
		c-0.159-0.868-0.458-1.685-0.871-2.467c-0.786-1.486-2.002-2.338-3.673-2.548c-1.834-0.23-3.653-0.227-5.476,0.165
		c-1.202,0.258-2.148,0.852-2.851,1.825c-1.709,2.363-2.183,5.002-1.672,7.841c0.134,0.745,0.314,1.482,0.473,2.222
		c0.198,0.919-0.11,1.648-0.843,2.211c-0.189,0.145-0.385,0.29-0.596,0.4c-3.552,1.845-7.249,2.739-11.179,1.411
		c-2.93-0.99-4.985-2.923-5.858-5.975c-0.523-1.828-0.616-3.726-0.023-5.479c0.577-1.707,1.435-3.333,2.748-4.704
		c2.202-2.3,4.983-3.567,7.858-4.668c2.799-1.073,5.723-1.562,8.726-1.781c2.436-0.178,4.863-0.232,7.293-0.156
		c3.888,0.121,7.718,0.683,11.43,1.883c3.82,1.235,6.971,3.432,9.122,6.852c1.569,2.494,2.48,5.225,2.691,8.221
		c0.233,3.308,0.153,6.615,0.282,9.919c0.112,2.875,0.06,5.747,0.086,8.621c0.044,4.874,0.036,9.748,0.097,14.621
		c0.015,1.228,0.176,2.456,0.248,3.686c0.059,1.003,1.691,2.288,2.874,2.517c1.216,0.236,2.444,0.227,3.833,0.277
		c-0.118,2.003,0.206,3.967-0.227,5.936c-0.137,0.622-0.473,0.878-1.039,0.958c-1.911,0.268-3.817,0.558-5.74,0.749
		c-1.022,0.101-2.043,0.193-3.068,0.244c-0.793,0.007-1.585,0.014-2.378,0.022c-1.31-0.003-2.621-0.006-3.931-0.009
		c-2.688-0.166-5.086-0.914-6.685-3.292c-0.49-0.729-0.83-1.535-1.242-2.303c-0.139-0.258-0.165-0.641-0.591-0.702
		c-0.788,0.371-1.378,1.039-2.078,1.556c-3.375,2.49-7.251,3.701-11.309,4.48c-0.918,0.176-1.886,0.051-2.761,0.466
		C94.08,255.124,92.4,255.124,90.72,255.124z M112.112,220.833c-0.18,0.011-0.306-0.008-0.411,0.029
		c-4.057,1.432-8.088,2.941-11.799,5.149c-2.802,1.666-4.843,3.981-5.718,7.213c-0.371,1.371-0.315,2.76-0.373,4.153
		c-0.195,4.695,4.588,8.805,9.083,8.122c0.513-0.078,1.032-0.122,1.54-0.226c2.286-0.467,4.114-1.585,5.411-3.592
		c1.557-2.409,2.402-4.996,2.439-7.869c0.051-3.911,0.155-7.822,0.038-11.734C112.311,221.685,112.375,221.275,112.112,220.833z"/>
	<path style="fill:#074362;" d="M198.72,255.124c-0.12-0.385-0.459-0.246-0.705-0.268c-2.709-0.238-5.257-1.101-7.824-1.922
		c-2.288-0.732-4.192-2.108-5.955-3.619c-1.207-1.034-2.646-1.9-3.426-3.389c-1.832-1.455-2.83-3.535-4.035-5.45
		c-0.532-0.846-0.827-1.832-1.248-2.745c-0.639-1.389-1.104-2.867-1.542-4.338c-0.394-1.324-0.76-2.651-0.937-4.045
		c-0.469-3.689-0.376-7.377-0.216-11.07c0.152-3.509,1.108-6.822,2.449-10.052c1.16-2.795,2.614-5.42,4.482-7.786
		c0.863-1.093,1.722-2.203,2.923-3.053c0.962-0.681,1.864-1.508,2.783-2.281c0.395-0.332,0.845-0.512,1.268-0.761
		c2.953-1.74,6.186-2.787,9.488-3.572c1.854-0.441,3.798-0.375,5.712-0.292c0.878,0.038,1.756,0.129,2.634,0.136
		c3.258,0.028,6.316,0.888,9.263,2.2c1.736,0.773,3.449,1.638,4.954,2.778c2.414,1.828,4.575,3.938,6.302,6.468
		c2.829,4.143,4.419,8.787,5.465,13.62c0.476,2.202,0.608,4.481,0.429,6.761c-0.158,2.024-0.121,4.06-0.349,6.082
		c-0.293,2.597-0.847,5.127-1.802,7.566c-1.272,3.25-2.923,6.278-5.125,9.004c-2.431,3.01-5.356,5.417-8.826,7.101
		c-2.544,1.235-5.234,2.073-8.061,2.486c-0.773,0.113-1.633-0.063-2.341,0.442C202.56,255.124,200.64,255.124,198.72,255.124z
		 M191.842,222.752c-0.07,3.315,0.093,6.626,0.164,9.938c0.081,3.745,0.858,7.353,2.389,10.773c1.109,2.476,2.813,4.343,5.635,4.868
		c1.066,0.198,2.141,0.171,3.222,0.102c2.374-0.152,4.029-1.48,5.226-3.357c0.961-1.506,1.624-3.19,2.019-4.954
		c1.077-4.807,1.39-9.702,1.611-14.601c0.252-5.597-0.211-11.162-0.946-16.707c-0.347-2.617-1.021-5.133-2.157-7.541
		c-1.926-4.084-6.201-5.046-9.822-3.921c-2.502,0.778-4.013,2.667-4.991,4.996c-1.34,3.19-2.03,6.543-2.166,9.989
		C191.891,215.806,191.705,219.277,191.842,222.752z"/>
	<path style="fill:#074362;" d="M456,204.532c-0.055,0.054-0.154,0.105-0.158,0.162c-0.135,2.07-1.383,3.536-2.756,4.886
		c-1.538,1.512-3.378,2.502-5.541,2.873c-0.841,0.144-1.651,0.16-2.483-0.006c-1.478-0.295-2.962-0.561-4.515-0.852
		c-0.126-1.208-0.249-2.346-0.361-3.486c-0.106-1.079-0.368-2.123-0.764-3.124c-0.709-1.795-2.007-2.37-3.85-1.741
		c-0.964,0.329-1.778,0.903-2.458,1.648c-0.946,1.037-1.727,2.187-2.332,3.46c-1.578,3.322-2.415,6.826-2.609,10.487
		c-0.311,5.864-0.5,11.732-0.491,17.606c0.003,1.799,0.081,3.593,0.226,5.385c0.102,1.271,0.623,2.378,1.347,3.401
		c0.419,0.591,1.055,0.831,1.725,0.994c2.094,0.511,4.226,0.794,6.482,1.063c0.095,2.055,0.33,4.132,0.251,6.164
		c-11.735,0-23.389,0-35.121,0c0-2.107,0-4.08,0-6.176c2.639-0.138,5.133-0.753,7.039-3.03c0-1.096-0.006-2.333,0.001-3.57
		c0.067-11.147,0.155-22.295,0.048-33.442c-0.014-1.518-0.048-3.033-0.169-4.549c-0.073-0.921-0.366-1.751-0.79-2.54
		c-0.303-0.564-0.843-0.919-1.427-1.138c-1.049-0.393-2.102-0.774-3.208-1.009c-1.63-0.347-1.505-0.463-1.595-1.709
		c-0.083-1.151-0.161-2.31,0.097-3.441c1.786-0.813,20.532-2.516,24.283-2.195c0.194,3.649,0.256,7.325,0.508,11.014
		c0.659-0.14,0.627-0.651,0.85-0.952c1.194-1.616,2.369-3.244,3.926-4.539c1.155-0.96,2.005-2.212,3.277-3.087
		c1.268-0.872,2.537-1.624,4.014-2.068c3.318-0.998,6.642-0.916,9.792,0.399c3.37,1.408,5.798,3.833,6.512,7.611
		c0.035,0.187-0.018,0.409,0.251,0.465C456,201.175,456,202.853,456,204.532z"/>
	<path style="fill:#526581;" d="M120.48,255.124c-0.012-0.069-0.03-0.137-0.053-0.204c1.31,0.003,2.621,0.006,3.931,0.009
		c-0.014,0.065-0.027,0.129-0.038,0.195C123.04,255.124,121.76,255.124,120.48,255.124z"/>
	<path style="fill:#526581;" d="M383.52,255.124c0.012-0.076-0.002-0.146-0.043-0.211c1.307,0.005,2.614,0.011,3.921,0.016
		c-0.014,0.064-0.027,0.129-0.038,0.195C386.08,255.124,384.8,255.124,383.52,255.124z"/>
	<path style="fill:#939BAE;" d="M124.32,255.124c0.011-0.065,0.024-0.13,0.038-0.195c0.793-0.007,1.585-0.014,2.378-0.022
		c-0.03,0.07-0.035,0.142-0.016,0.216C125.92,255.124,125.12,255.124,124.32,255.124z"/>
	<path style="fill:#939BAE;" d="M387.36,255.124c0.011-0.065,0.024-0.13,0.038-0.195c0.713-0.007,1.425-0.014,2.138-0.022
		c-0.03,0.07-0.035,0.142-0.016,0.216C388.8,255.124,388.08,255.124,387.36,255.124z"/>
	<path style="fill:#074362;" d="M336.172,247.25c0.083,2.165,0.162,4.223,0.243,6.346c-10.136,0-20.196,0-30.331,0
		c0-2.146,0-4.285,0-6.552c2.322,0.187,4.058-1.045,5.728-2.602c0-0.325,0.001-0.68,0-1.035c-0.017-9.791-0.032-19.581-0.054-29.372
		c-0.003-1.518-0.068-3.032-0.174-4.548c-0.172-2.455-1.234-4.447-3.089-5.962c-1.248-1.019-2.804-1.492-4.428-1.575
		c-1.552-0.079-3.069,0.2-4.579,0.551c-1.657,0.385-2.972,1.407-4.381,2.253c-0.573,0.344-1.091,0.779-1.614,1.159
		c-0.25,0.389-0.158,0.8-0.16,1.192c-0.025,5.475-0.084,10.95-0.049,16.424c0.036,5.632,0.157,11.264,0.261,16.896
		c0.021,1.117,0.064,2.242,0.226,3.345c0.199,1.351,1.047,2.222,2.311,2.747c0.774,0.321,1.584,0.493,2.385,0.66
		c0.666,0.138,0.93,0.455,1.067,1.075c0.157,0.706,0.258,1.412,0.221,2.128c-0.053,1.038,0.112,2.06,0.242,3.07
		c-0.896,0.261-28.162,0.353-30.451,0.11c0.057-2.151-0.211-4.32,0.198-6.589c2.197,0.341,3.64-1.043,5.335-2.061
		c0-0.259,0-0.574,0-0.889c-0.015-10.03-0.028-20.061-0.048-30.091c-0.003-1.598,0.012-3.2-0.203-4.787
		c-0.197-1.454-0.323-2.97-1.321-4.143c-1.618-1.899-3.668-2.983-6.217-3.065c-3.163-0.101-6.012,0.745-8.529,2.676
		c-0.592,0.454-1.198,0.891-1.759,1.308c-0.242,0.464-0.149,0.913-0.151,1.345c-0.026,5.395-0.085,10.79-0.048,16.184
		c0.04,5.792,0.165,11.584,0.272,17.375c0.018,0.997,0.075,2,0.212,2.986c0.185,1.333,1.094,2.139,2.25,2.675
		c0.568,0.264,1.182,0.42,1.801,0.563c0.948,0.219,1.062,0.504,1.241,1.482c0.232,1.266,0.237,2.534,0.21,3.805
		c-0.009,0.406,0.218,0.764,0.171,1.245c-10.085,0-20.148,0-30.369,0c-0.01-1.038-0.024-2.137-0.029-3.236
		c-0.005-1.072-0.001-2.144-0.001-3.133c0.272-0.294,0.534-0.23,0.754-0.204c1.774,0.214,3.139-0.721,4.517-1.598
		c0.283-0.18,0.44-0.46,0.52-0.867c0.247-1.259,0.209-2.52,0.21-3.783c0.002-11.829,0.005-23.657-0.007-35.486
		c-0.001-1.464-0.048-2.917-0.389-4.373c-0.17-0.723-0.51-1.088-1.055-1.414c-1.185-0.708-2.465-1.175-3.806-1.477
		c-1.236-0.278-1.635-0.75-1.633-1.966c0.001-0.799,0.017-1.599-0.034-2.395c-0.025-0.387,0.122-0.675,0.358-1.09
		c8.006-0.919,16.096-1.71,24.308-2.265c0.182,2.854-0.128,5.608,0.282,8.412c0.917-0.184,1.41-0.979,2.092-1.451
		c1.739-1.205,3.271-2.682,5.045-3.864c2.115-1.409,4.379-2.233,6.892-2.548c2.912-0.366,5.83-0.291,8.734-0.152
		c3.173,0.151,5.783,1.711,8.086,3.832c1.764,1.625,3.252,3.513,4.982,5.194c0.93-0.372,1.549-1.122,2.161-1.817
		c0.944-1.073,2.108-1.858,3.179-2.768c0.742-0.63,1.461-1.279,2.298-1.775c1.934-1.146,4.016-1.943,6.214-2.387
		c2.467-0.499,4.967-0.785,7.488-0.591c2.449,0.189,4.869,0.596,7.166,1.495c1.938,0.759,3.407,2.162,4.713,3.736
		c1.753,2.113,2.717,4.612,3.319,7.241c0.208,0.909,0.287,1.872,0.353,2.827c0.526,7.654,0.313,15.325,0.6,22.983
		c0.079,2.116,0.086,4.236,0.074,6.353c-0.015,2.759,0.149,5.511,0.267,8.264c0.078,1.828,0.803,2.721,2.924,3.358
		C334.099,246.917,335.046,247.236,336.172,247.25z"/>
	<path style="fill:#0C4463;" d="M134.002,57.768c0.839-0.717,1.627-1.485,2.333-2.334c0.639-0.506,1.233-1.057,1.749-1.689
		c1.525-1.457,3.062-2.903,4.574-4.374c4.201-4.086,8.392-8.182,12.585-12.277c0.111-0.108,0.194-0.245,0.289-0.369
		c0.657-0.483,1.223-1.06,1.742-1.685c1.289-1.163,2.593-2.311,3.782-3.579c0.261-0.122,0.455-0.31,0.564-0.579l0.005-0.083
		l0.084,0.003c0.524-0.34,0.939-0.794,1.327-1.276c2.24-1.87,4.261-3.975,6.409-5.944c1.469-1.347,2.883-2.752,4.322-4.131
		c0.509-0.319,0.927-0.739,1.322-1.184c0.506-0.333,0.951-0.732,1.316-1.218c0.509-0.32,0.929-0.74,1.333-1.178
		c0.833-0.457,1.362-1.324,2.272-1.696c0.536,0.201,0.834,0.722,1.328,0.971c0.218,0.298,0.468,0.56,0.803,0.73
		c1.737,1.837,3.605,3.537,5.451,5.261c0.153,0.243,0.331,0.459,0.618,0.553l0.085,0.003l-0.004,0.085
		c0.804,1.021,1.764,1.889,2.72,2.761c1.668,1.929,3.568,3.631,5.351,5.447c4.046,4.121,8.114,8.219,12.175,12.324
		c0.221,0.223,0.466,0.422,0.7,0.632c0.179,0.318,0.428,0.566,0.747,0.745c0.317,0.508,0.813,0.847,1.21,1.28
		c0.197,0.214,0.436,0.338,0.739,0.228c0.488-0.354,0.884-0.792,1.199-1.305c0.876-0.89,1.72-1.807,2.392-2.867
		c0.503-0.397,0.813-0.949,1.173-1.461c1.658-1.88,3.06-3.956,4.573-5.947c1.248-1.644,2.519-3.273,3.631-5.016
		c0.461-0.407,0.757-0.933,1.049-1.461c0.277-0.265,0.51-0.56,0.634-0.929c0.464-0.41,0.756-0.945,1.074-1.462
		c1.128-1.256,1.896-2.771,2.977-4.068c1.015-1.217,1.87-2.562,2.913-3.766c0.733-0.846,1.273-1.862,2.016-2.697
		c1.627-1.828,3.244-3.652,5.14-5.248c1.549-1.305,3.144-2.51,4.844-3.583c2.363-1.491,4.799-2.822,7.495-3.67
		c2.583-0.813,5.175-1.411,7.898-1.505c1.025-0.036,2.058-0.165,3.194-0.207c1.856,1.939,3.991,3.672,5.798,5.739
		c0.262,0.3,0.528,0.595,0.808,0.875c8.199,8.197,16.353,16.44,24.626,24.562c3.563,3.498,7.17,6.953,10.629,10.551
		c4.708,4.898,9.615,9.597,14.321,14.495c2.208,2.299,4.369,4.643,6.541,6.976c0.351,0.377,0.647,0.806,0.968,1.211
		c0.35,0.441,0.325,0.822-0.059,1.272c-0.412,0.485-0.799,0.991-1.252,1.441c-6.26,6.235-12.462,12.529-18.799,18.685
		c-3.667,3.562-7.246,7.214-10.943,10.745c-3.433,3.279-6.859,6.566-10.309,9.827c-1.969,1.861-3.935,3.73-5.992,5.491
		c-1.14,0.976-2.154,2.109-3.483,2.88c-0.457,0.265-0.847,0.381-1.386,0.283c-1.685-1.528-3.54-2.935-5.141-4.626
		c-0.74-0.782-1.462-1.586-2.254-2.315c-8.023-7.388-15.489-15.34-23.271-22.972c-0.17-0.167-0.346-0.327-0.502-0.475
		c-0.415,0.006-0.572,0.329-0.778,0.549c-2.498,2.669-4.861,5.445-7.077,8.359c-4.359,5.732-8.309,11.761-12.74,17.441
		c-1.613,2.068-3.286,4.074-5.049,6.017c-1.502,1.656-3.043,3.255-4.739,4.715c-1.599,1.376-3.308,2.587-5.149,3.602
		c-2.444,1.348-5.035,2.384-7.648,3.342c-1.249,0.458-2.597,0.673-3.941,0.75c-1.755,0.099-3.515,0.131-5.27,0.237
		c-0.704,0.043-1.189-0.214-1.675-0.704c-4.283-4.311-8.589-8.599-12.886-12.895c-11.875-11.871-23.796-23.697-35.587-35.65
		c-2.654-2.691-5.384-5.317-7.926-8.117c-0.958-1.056-1.898-2.136-2.855-3.196c-0.317-0.351-0.574-0.767-1.003-1.008
		c-0.29-0.332-0.58-0.664-0.87-0.996c-0.46-0.785-1.317-1.29-1.596-2.287c0.907-1.519,2.325-2.659,3.419-4.065
		C132.118,59.82,133.107,58.84,134.002,57.768z M228.687,62.724c30.821,0,61.596,0,92.643,0
		c-19.507-19.511-38.851-38.859-58.087-58.1c-4.271-0.195-8.208,0.468-11.898,2.318c-4.042,2.027-7.586,4.726-10.642,8.052
		c-3.548,3.862-6.588,8.125-9.627,12.382c-4.595,6.436-9.211,12.851-14.374,18.855c-0.691,0.804-1.503,1.528-1.989,2.438
		C219.411,53.394,224.057,58.068,228.687,62.724z M134.799,66.905c-0.032,0.077-0.065,0.153-0.097,0.23
		c2.584,2.553,5.176,5.097,7.75,7.66c11.556,11.507,23.103,23.023,34.663,34.526c4.902,4.877,9.864,9.691,14.887,14.444
		c1.335,1.263,2.604,1.914,4.554,1.467c2.723-0.625,5.45-1.197,8.005-2.338c4.961-2.214,8.932-5.746,12.354-9.849
		c3.245-3.89,6.172-8.039,9.096-12.182c3.982-5.641,7.956-11.292,12.59-16.436c0.875-0.971,1.782-1.913,2.677-2.871
		c-4.926-4.886-9.799-9.721-14.769-14.651C196.057,66.905,165.428,66.905,134.799,66.905z M275.982,110.455
		c15.344-14.331,30.262-28.93,45.406-43.528c-0.441-0.024-0.707-0.054-0.972-0.05c-6.713,0.082-13.427-0.04-20.141,0.168
		c-4.99,0.155-9.986,0.04-14.979,0.24c-3.278,0.132-6.549,0.371-9.775,0.896c-5.007,0.814-9.846,2.253-14.442,4.47
		c-3.893,1.877-7.615,4.014-11.004,6.703c-0.776,0.616-1.6,1.192-2.219,2.147C257.036,91.271,266.346,100.919,275.982,110.455z
		 M135.137,62.68c3.275,0,6.432,0.05,9.586-0.011c6.393-0.124,12.788-0.044,19.182-0.226c5.031-0.143,10.072-0.072,15.085-0.553
		c4.101-0.394,8.067-1.45,11.903-2.955c5.258-2.063,10.208-4.689,14.669-8.181c0.932-0.73,1.889-1.442,2.692-2.471
		c-9.272-9.96-19.134-19.237-28.651-28.982C164.706,33.732,149.87,48.083,135.137,62.68z M244.521,78.398
		c5.537-4.715,11.56-8.539,18.477-11.409c-2.313-0.246-29.003-0.157-29.817,0.052C236.905,70.77,240.649,74.52,244.521,78.398z
		 M211.498,51.569c-2.892,2.113-5.565,4.387-8.568,6.197c-3.025,1.823-6.159,3.436-9.621,4.949c10.058,0,19.816,0,29.797,0
		C219.172,58.944,215.595,55.098,211.498,51.569z"/>
	<path style="fill:#074362;" d="M139.346,174.703c-0.423-1.885,0.317-3.568,0.167-5.36c8.247-0.746,16.384-1.483,24.523-2.219
		c0.279,1.638,0.334,3.177,0.362,4.723c0.36,19.616,0.22,39.235,0.328,58.853c0.025,4.553,0.004,9.107,0.004,13.382
		c1.275,2.072,3.082,2.614,4.998,2.866c0.745,0.098,1.449,0.397,2.263,0.26c0,2.069,0,4.01,0,5.939
		c-0.841,0.272-30.766,0.347-32.317,0.079c0-1.926,0-3.868,0-5.935c1.953-0.365,4.075-0.412,5.885-1.768
		c0.831-0.882,0.715-2.158,0.831-3.333c0.172-1.746,0.213-3.508,0.233-5.265c0.087-7.511,0.185-15.022,0.206-22.533
		c0.027-9.27-0.011-18.539-0.038-27.809c-0.006-1.957-0.013-3.918-0.151-5.869c-0.104-1.472-0.316-2.944-1.411-4.129
		c-0.767-0.83-1.816-1.034-2.78-1.314C141.46,174.984,140.429,174.712,139.346,174.703z"/>
</g>
</svg>
