<?xml version="1.0" encoding="iso-8859-1"?>
<!-- Generator: Adobe Illustrator 27.0.0, SVG Export Plug-In . SVG Version: 6.00 Build 0)  -->
<svg version="1.1" id="Layer_1" xmlns="http://www.w3.org/2000/svg" xmlns:xlink="http://www.w3.org/1999/xlink" x="0px" y="0px"
	 viewBox="0 0 1480 1048.291" style="enable-background:new 0 0 1480 1048.291;" xml:space="preserve">
<g>
	<path style="fill:#251B18;" d="M1251,1048.291c-2.303-1.909-5.244-1.424-7.877-1.976c-16.61-3.48-32.058-9.647-45.869-19.596
		c-13.777-9.924-23.45-22.904-28.512-39.192c-5.747-18.496-6.898-37.31-2.092-56.061c6.754-26.349,23.767-44.408,47.929-55.997
		c13.596-6.521,28.139-9.644,43.091-11.271c20.55-2.236,40.834-0.333,61.05,3.242c4.004,0.708,4.971,1.551,5.51,5.81
		c1.023,8.072,1.801,16.175,2.695,24.263c0.529,4.791,1.073,9.58,1.632,14.367c0.249,2.135,0.675,4.261,0.13,6.715
		c-4.47-0.297-8.614-1.956-12.902-2.853c-10.109-2.115-20.252-3.807-30.633-3.446c-9.919,0.345-19.439,2.281-28.148,7.275
		c-21.36,12.248-28.437,37.776-16.595,59.562c7.743,14.246,20.036,20.805,35.875,21.125c18.047,0.365,35.768-2.14,53.447-6.82
		c0.616,2.489,0.277,4.934,0.054,7.323c-1.236,13.238-2.552,26.469-3.864,39.701c-0.396,3.995-1.97,5.576-6.07,5.73
		c-5.486,0.206-10.9,1.401-16.416,1.116c-0.709-0.037-1.283,0.183-1.436,0.986C1285,1048.291,1268,1048.291,1251,1048.291z"/>
	<path style="fill:#251B18;" d="M1381,1048.291c-2.099-1.902-4.811-1.682-7.316-1.965c-3.97-0.449-7.878-1.167-11.797-1.923
		c-6.704-1.292-10.434-5.371-11.818-11.858c-1.075-5.042-1.717-10.151-2.424-15.255c-1.024-7.397-2.328-14.756-3.481-22.135
		c-0.175-1.122-0.179-2.271-0.253-3.29c0.978-1.11,2.021-0.564,2.882-0.344c7.706,1.968,15.434,3.869,23.074,6.073
		c10.923,3.152,21.964,3.165,33.108,1.807c3.237-0.394,5.778-1.907,6.838-5.013c1.009-2.96-0.172-5.507-2.392-7.643
		c-5.768-5.55-12.12-10.408-18.317-15.443c-7.495-6.089-14.979-12.188-22.047-18.768c-5.631-5.241-10.336-11.233-14.146-17.954
		c-14.188-25.031-0.579-52.277,18.76-62.594c7.886-4.207,16.309-6.432,25.066-7.611c11.752-1.582,23.578-1.516,35.375-0.94
		c11.12,0.542,22.145,2.17,33.079,4.271c5.049,0.97,6.161,2.645,6.805,7.739c1.396,11.043,2.967,22.065,4.466,33.095
		c0.51,3.753,1.02,7.505,1.621,11.932c-4.382-1.323-8.252-2.476-12.112-3.659c-10.549-3.232-21.263-5.208-32.37-4.638
		c-3.012,0.155-5.958,0.619-8.908,1.114c-5.375,0.902-9.028,7.162-4.592,12.624c1.591,1.96,3.534,3.515,5.504,5.056
		c11.008,8.609,22.639,16.395,33.318,25.443c9.183,7.78,16.527,16.803,20.313,28.413c0.07,0.216,0.501,0.314,0.764,0.466
		c0,8.667,0,17.333,0,26c-0.61,0.371-0.81,0.977-1.027,1.619c-2.393,7.059-6.546,12.968-11.935,18.041
		c-8.284,7.799-18.273,12.334-29.111,15.342c-2.308,0.641-4.933,0.273-6.927,1.998
		C1414.333,1048.291,1397.667,1048.291,1381,1048.291z"/>
	<path style="fill:#B1AAA8;" d="M0.81,1041.379c0,0-0.415,0.045-0.415,0.045L0,1041.291c0-36.333,0-72.667,0-109
		c0.293-0.013,0.585-0.034,0.877-0.064c0.041,0.662,0.116,1.323,0.116,1.985c0.005,34.564,0.006,69.128-0.004,103.691
		C0.989,1039.062,0.872,1040.22,0.81,1041.379z"/>
	<path style="fill:#B1AAA8;" d="M0.811,896.378l-0.415,0.043L0,896.291c0-8.333,0-16.667,0-25c0.257-0.148,0.527-0.177,0.81-0.088
		C1.12,879.595,1.118,887.986,0.811,896.378z"/>
	<path style="fill:#095296;" d="M481.462,234.22c-9.939-10.237-19.394-20.083-28.966-29.815
		c-27.222-27.677-54.492-55.307-81.743-82.955c-0.234-0.237-0.476-0.467-0.704-0.71c-5.035-5.379-5.175-8.312-0.156-13.704
		c7.716-8.288,15.627-16.396,23.393-24.639c19.41-20.603,38.788-41.235,58.169-61.864c3.989-4.246,7.93-8.536,11.903-12.796
		c0.682-0.731,1.389-1.441,2.122-2.12c4.409-4.082,7.11-4.252,11.716-0.23c3.76,3.283,7.26,6.867,10.844,10.35
		c14.813,14.397,29.588,28.832,44.426,43.203c19.501,18.888,39.039,37.738,58.579,56.586c18.1,17.46,36.23,34.889,54.335,52.344
		c19.065,18.381,38.081,36.813,57.189,55.15c8.289,7.955,16.785,15.69,24.353,24.367c10.159,11.647,18.007,24.686,23.797,38.991
		c0.555,1.372,1.149,2.728,1.68,3.985c1.314,0.154,2.102-0.502,2.948-1.026c32.81-20.311,65.624-40.615,98.428-60.935
		c2.22-1.375,4.845-2.417,5.284-5.462c-0.349-2.078-1.953-3.104-3.283-4.33c-21.658-19.977-43.326-39.943-64.977-59.928
		c-11.746-10.842-23.448-21.733-35.21-32.558c-2.078-1.913-4.453-3.506-6.518-5.432c-2.661-2.482-2.848-4.609-0.674-7.468
		c1.405-1.847,3.011-3.565,4.677-5.186c32.493-31.608,64.171-64.035,96.334-95.974c3.069-3.047,5.856-6.392,9.044-9.302
		c4.14-3.779,6.686-3.668,10.792,0.238c4.829,4.592,9.522,9.327,14.271,14.003c21.607,21.273,43.201,42.56,64.825,63.816
		c17.227,16.935,34.494,33.83,51.737,50.748c18.077,17.736,36.143,35.482,54.221,53.216c13.436,13.182,26.974,26.262,40.305,39.549
		c23.774,23.697,37.937,52.252,42.487,85.506c6.292,45.989-2.039,89.542-23.677,130.282
		c-31.453,59.221-79.734,98.794-143.451,119.511c-17.916,5.825-36.326,9.287-55.128,10.809c-21.667,1.754-43.2,0.698-64.734-1.972
		c-25.884-3.21-50.868-9.588-74.695-20.265c-10.482-4.697-20.62-10.068-29.93-16.837c-7.954-5.783-11.915-13.661-11.622-23.58
		c0.295-9.98,1.608-19.914,1.171-29.93c-0.354-8.117-0.513-16.243-0.771-24.77c-3.018,1.112-4.671,3.124-6.257,5.162
		c-6.542,8.406-12.853,16.984-19.947,24.962c-25.382,28.546-54.287,52.465-89.231,68.546c-20.201,9.296-41.29,15.538-63.323,18.652
		c-21.94,3.101-43.963,5.128-66.13,4.696c-33.481-0.651-65.683-6.878-95.634-22.649c-16.604-8.743-31.278-20.187-45.719-31.986
		c-2.603-2.127-3.613-5.115-3.852-8.377c-0.085-1.16-0.017-2.332-0.017-3.499c0-60.667,0.068-121.333-0.1-181.999
		c-0.018-6.435,2.268-10.557,7.728-13.814c32.842-19.595,65.58-39.364,98.334-59.104c8.971-5.407,17.886-10.907,26.814-16.386
		C478.311,236.435,479.632,235.462,481.462,234.22z M903.839,495.623c22.175-17.406,39.555-37.362,50.346-62.65
		c8.928-20.923,11.699-42.706,7.573-64.953c-6.475-34.918-25.924-61.377-55.192-80.952c-0.786-0.526-1.519-1.301-2.727-0.44
		C903.839,355.96,903.839,425.381,903.839,495.623z M505.154,284.146c0,70.477,0,140.247,0,209.978c1.325,0.333,2-0.549,2.768-1.12
		c7.089-5.265,13.807-10.937,19.718-17.541c27.787-31.045,40.022-67.011,33.386-108.487
		C555.304,331.208,535.625,304.456,505.154,284.146z"/>
	<path style="fill:#251A18;" d="M1298.772,843.92c-1.597,1.034-3.138,0.61-4.591,0.612c-20.495,0.031-40.991,0.028-61.486,0.017
		c-6.39-0.003-6.72-0.232-9.121-6.274c-3.733-9.396-7.535-18.764-10.729-28.368c-1.695-5.095-3.809-6.586-9.255-6.591
		c-7.993-0.007-15.987,0.217-23.98,0.217c-7.993,0-15.986-0.19-23.979-0.231c-7.137-0.037-8.616,1.01-11.146,7.477
		c-3.5,8.949-7.024,17.889-10.534,26.834c-2.193,5.59-4.045,6.924-10.087,6.93c-25.828,0.023-51.657,0.229-77.482-0.058
		c-21.658-0.241-43.317-0.321-64.969-0.113c-20.156,0.193-40.31,0.037-60.464,0.179c-1.333,0.009-2.672,0.077-3.998-0.025
		c-3.879-0.299-5.376-1.59-5.666-5.537c-0.255-3.474-0.028-6.982-0.028-10.475c0.002-46.489,0.007-92.979-0.007-139.468
		c-0.001-4.996-0.169-9.992-0.158-14.988c0.016-7.469,1.691-9.234,9.118-8.995c14.493,0.465,28.985,0.101,43.477,0.21
		c3.493,0.026,6.988-0.266,10.48-0.22c6.346,0.084,7.887,1.581,8.053,8.02c0.103,3.986-0.205,7.981-0.21,11.973
		c-0.047,33.991-0.071,67.983-0.09,101.974c-0.005,9.122,1.699,10.633,10.793,10.555c20.158-0.173,40.317-0.238,60.476-0.264
		c7.242-0.01,9.587,2.574,8.545,9.976c-0.854,6.072-0.148,11.877,1.432,18.42c0.84-1.345,1.445-2.155,1.887-3.046
		c24.14-48.559,46.833-97.798,69.23-147.177c0.751-1.655,1.633-3.26,2.575-4.816c2.036-3.362,5.06-5.055,8.989-5.451
		c4.673-0.472,9.317,0.08,13.973,0.077c18.496-0.01,36.992-0.008,55.487-0.002c6.66,0.002,8.264,1.044,10.838,7.311
		c14.351,34.951,28.781,69.87,43.929,104.484c8.701,19.88,17.614,39.668,26.437,59.494
		C1297.575,838.961,1298.882,841.269,1298.772,843.92z M1180.52,713.226c-5.77,14.964-11.224,29.111-16.675,43.248
		c0.727,0.303,1.026,0.534,1.328,0.537c8.475,0.091,16.951,0.179,25.427,0.212c1.68,0.006,3.31-0.327,4.373-2.092
		c0-0.386,0.136-0.927-0.02-1.366C1190.257,740.521,1185.533,727.287,1180.52,713.226z"/>
	<path style="fill:#251B18;" d="M879.919,933.752c0,3.99-0.003,7.981,0.001,11.971c0.026,29.489,0.054,58.978,0.081,88.467
		c0.001,1,0.012,1.999-0.002,2.999c-0.094,6.911-2.443,9.392-9.476,8.951c-8.15-0.51-16.294-0.64-24.446-0.566
		c-4.482,0.041-8.962,0.415-13.444,0.427c-6.006,0.016-7.628-1.685-7.63-7.74c-0.01-48.983,0.003-97.967-0.017-146.95
		c-0.002-5.659-0.28-11.32-0.218-16.978c0.072-6.474,1.653-8.011,7.95-8.018c25.324-0.028,50.647-0.036,75.971-0.016
		c6.35,0.005,8.957,2.234,10.215,8.55c3.661,18.389,7.291,36.784,10.97,55.169c1.627,8.129,3.356,16.238,5.008,24.362
		c0.433,2.131,1.211,4.078,2.789,6.545c1.89-8.735,3.684-16.743,5.349-24.777c4.14-19.983,8.22-39.979,12.331-59.967
		c0.201-0.975,0.454-1.941,0.715-2.902c1.348-4.962,3.713-6.924,8.914-6.963c8.829-0.065,17.659,0.054,26.489,0.05
		c15.323-0.007,30.646-0.05,45.969-0.075c1.999-0.003,4.005-0.092,5.996,0.042c3.702,0.248,5.333,1.857,5.721,5.591
		c0.154,1.485,0.102,2.994,0.103,4.493c0.006,17.827,0.233,35.658-0.046,53.481c-0.512,32.648,0.457,65.291,0.016,97.935
		c-0.056,4.136,1.059,8.225,0.052,12.415c-0.965,4.015-2.065,5.452-6.22,5.817c-2.639,0.232-5.331,0.147-7.979-0.06
		c-11.307-0.885-22.602-0.472-33.899,0.123c-0.831,0.044-1.666,0.105-2.495,0.068c-5.387-0.242-7.54-2.327-7.581-7.754
		c-0.077-10.162,0.01-20.326,0.008-30.489c-0.005-22.654-0.019-45.308-0.047-67.962c-0.002-1.257,0.078-2.6-1.472-4.024
		c-1.617,7.057-3.134,13.594-4.612,20.141c-5.514,24.425-11.025,48.85-16.505,73.283c-0.652,2.908-1.061,5.871-1.649,8.795
		c-1.191,5.92-3.487,7.865-9.622,7.822c-6.818-0.048-13.634-0.426-20.451-0.415c-7.149,0.012-14.298,0.283-21.445,0.5
		c-7.162,0.218-9.587-1.549-11.108-8.565c-3.093-14.265-5.993-28.573-9.18-42.817c-4.232-18.919-8.038-37.936-12.844-56.725
		c-0.395-1.546-0.959-3.048-1.445-4.57C880.462,933.526,880.191,933.639,879.919,933.752z"/>
	<path style="fill:#251B18;" d="M442.099,952.245c-1.598,0.99-1.427,2.449-1.421,3.976c0.106,27.652,0.194,55.305,0.218,82.958
		c0.004,5.092-1.773,6.815-7.018,6.816c-5.317,0.002-10.636-0.435-15.952-0.41c-10.316,0.048-20.631,0.338-30.947,0.427
		c-6.847,0.058-8.676-1.723-8.703-8.453c-0.054-13.328-0.359-26.668,0.057-39.984c0.807-25.809,0.492-51.621,0.26-77.422
		c-0.129-14.315-0.144-28.635-0.332-42.951c-0.013-1-0.028-2,0.003-2.999c0.196-6.422,1.692-7.907,8.071-7.91
		c21.824-0.011,43.65,0.109,65.473-0.085c5.338-0.047,8.808,2.005,11.267,6.552c5.605,10.363,11.31,20.672,16.997,30.99
		c9.451,17.147,18.904,34.292,28.398,51.415c1.264,2.28,2.385,4.696,4.339,6.617c2.044-1.284,1.233-3.129,1.234-4.627
		c0.024-26.823,0.145-53.648-0.13-80.469c-0.102-9.909,3.544-10.691,10.428-10.437c14.816,0.548,29.641,0.336,44.461,0.033
		c7.256-0.148,7.943,2.317,7.813,8.079c-0.851,37.806-0.068,75.613-0.342,113.417c-0.071,9.829-0.067,19.66,0.01,29.49
		c0.048,6.151,0.301,12.301,0.453,18.452c0.025,0.999,0.065,2.004-0.013,2.998c-0.441,5.664-2.099,7.321-7.84,7.287
		c-13.481-0.08-26.96-0.377-40.441-0.418c-7.146-0.022-14.309,0.07-21.435,0.543c-7.486,0.497-12.525-2.285-16.236-8.954
		c-15.096-27.122-30.486-54.081-45.81-81.075C444.185,954.736,443.775,953.001,442.099,952.245z"/>
	<path style="fill:#251B18;" d="M355.841,848.583c-22.227-0.098-43.508-4.617-63.6-14.15c-25.86-12.27-41.161-32.733-46.351-60.83
		c-3.358-18.177-2.674-36.091,4.16-53.418c8.837-22.405,25.243-37.431,46.979-47.01c16.799-7.403,34.504-10.55,52.764-11.179
		c22.999-0.793,45.459,1.758,66.563,11.47c18.785,8.645,33.897,21.513,43.191,40.412c5.279,10.733,7.819,22.195,8.348,34.088
		c0.618,13.881-0.476,27.613-5.223,40.784c-7.947,22.049-23.411,37.095-44.51,46.578
		C398.367,844.225,377.594,848.747,355.841,848.583z M397.377,755.501c-0.172-2.608-0.096-5.479-0.613-8.24
		c-0.608-3.243-1.361-6.486-2.681-9.566c-6.613-15.435-17.725-25.21-34.849-26.501c-18.026-1.36-31.284,6.859-39.328,22.631
		c-8.823,17.298-6.579,34.262,4.729,49.711c11.762,16.07,33.813,21.179,52.523,9.523
		C390.785,784.569,396.975,771.625,397.377,755.501z"/>
	<path style="fill:#251A18;" d="M0.811,896.378c0.307-8.392,0.309-16.784-0.001-25.176c0.523-3.727,3.052-4.87,6.386-4.881
		c4.497-0.015,8.994,0.047,13.491,0.048c28.321,0.005,56.644-0.166,84.964,0.065c17.259,0.141,33.586,4.132,47.997,14.13
		c14.515,10.07,23.897,23.925,28.58,40.808c6.619,23.864,7.735,47.961-0.388,71.639c-8.537,24.885-24.815,42.42-50.905,49.625
		c-7.267,2.007-14.679,2.64-22.165,2.932c-12.145,0.472-24.293,0.476-36.443,0.467c-21.324-0.016-42.649,0.01-63.973-0.015
		c-5.197-0.006-5.925-0.516-7.544-4.641c0.062-1.158,0.179-2.317,0.179-3.475c0.01-34.564,0.009-69.128,0.004-103.691
		c0-0.662-0.076-1.323-0.116-1.985C0.855,920.278,0.833,908.328,0.811,896.378z M69.532,998.302
		c7.477,0.348,15.21,0.344,22.874-1.64c11.127-2.882,18.064-10.02,21.58-20.762c1.401-4.281,2.218-8.698,2.663-13.155
		c1.104-11.07,0.13-21.883-4.375-32.221c-3.656-8.389-9.867-13.464-18.853-15.395c-4.783-1.028-9.578-0.943-14.394-1.142
		c-3.138-0.13-6.253-0.583-9.098,0.792c-1.87,1.754-1.988,3.874-1.941,6.089c0.123,5.823,0.384,11.653,0.235,17.47
		c-0.464,18.156-0.089,36.313-0.205,54.469C68.007,994.428,67.573,996.174,69.532,998.302z"/>
	<path style="fill:#251B18;" d="M486.998,732.292c0-19.163,0-38.325,0-57.488c0-1.166-0.044-2.335,0.01-3.499
		c0.196-4.214,1.867-6.128,6.113-6.216c5.823-0.121,11.654,0.142,17.481,0.196c12.158,0.114,24.315,0.158,36.472-0.237
		c9.238-0.3,10.861,1.315,10.84,10.441c-0.045,19.659-0.146,39.318-0.162,58.977c-0.009,10.828,0.115,21.657,0.165,32.485
		c0.024,5.182,0.711,10.29,2.112,15.258c2.073,7.354,6.804,11.884,14.466,13.423c5.53,1.11,10.959,0.952,16.277-0.65
		c7.919-2.385,11.498-8.587,13.154-16.123c0.855-3.892,1.204-7.863,1.191-11.892c-0.095-29.993-0.092-59.987-0.119-89.98
		c-0.001-1.5-0.029-3,0.006-4.499c0.134-5.682,1.727-7.376,7.541-7.426c6.658-0.057,13.319,0.158,19.979,0.223
		c10.993,0.108,21.984,0.131,32.975-0.241c9.192-0.311,10.42,0.938,10.42,10.077c0,23.655,0,47.309,0,70.964
		c0,14.324-0.173,28.651,0.043,42.973c0.279,18.461-7.822,32.227-22.981,42.15c-12.717,8.324-26.807,12.882-41.777,15.116
		c-13.733,2.049-27.527,2.3-41.334,1.658c-16.316-0.759-32.398-2.977-47.462-9.852c-10.731-4.897-20.415-11.218-27.254-21.129
		c-5.33-7.724-8.112-16.327-8.139-25.724C486.959,771.616,486.998,751.954,486.998,732.292z"/>
	<path style="fill:#261B18;" d="M885.666,840.223c-1.333,1.498-2.827,1.977-4.588,2.055c-16.62,0.735-33.088,3.059-49.622,4.698
		c-15.244,1.511-30.56,2.298-45.824,0.199c-16.358-2.25-32.28-6.2-46.949-14.051c-16.368-8.759-28.601-21.512-36.008-38.658
		c-9.268-21.454-11.852-43.501-5.001-66.121c7.575-25.013,24.099-42.458,47.18-53.901c13.374-6.631,27.732-9.786,42.581-11.249
		c11.152-1.098,22.286-1.013,33.429-0.766c11.473,0.254,22.86,1.764,34.219,3.344c4.929,0.686,9.842,1.521,14.727,2.471
		c4.237,0.824,4.958,1.596,5.408,5.859c0.976,9.254,1.82,18.521,2.701,27.784c0.563,5.918,1.094,11.839,1.676,18.162
		c-3.618-0.255-6.815-1.553-10.085-2.392c-18.282-4.691-36.77-7.85-55.711-6.386c-17.628,1.362-32.635,8.012-42.058,23.794
		c-8.622,14.44-8.956,29.916-2.495,45.026c5.199,12.157,15.964,18.248,28.518,21.244c6.138,1.465,12.198,1.246,18.154-0.946
		c4.736-1.743,5.477-2.768,5.325-7.641c-0.077-2.48-0.231-4.958-0.338-7.2c-1.492-1.816-3.198-2.214-5.131-1.89
		c-0.98,0.164-1.943,0.478-2.927,0.567c-7.103,0.64-9.804-1.789-9.835-8.975c-0.047-10.662-0.043-21.325,0.005-31.988
		c0.019-4.264,1.341-5.702,5.653-5.841c4.157-0.134,8.324,0.128,12.487,0.12c18.992-0.038,37.983-0.112,56.975-0.167
		c2.488-0.007,5.043-0.262,7.251,1.807c1.357,2.2,1.388,4.84,1.365,7.507c-0.17,19.647-0.537,39.295-0.388,58.939
		c0.068,8.979,0.328,17.965,0.4,26.95C886.78,835.266,886.475,837.868,885.666,840.223z"/>
	<path style="fill:#261C19;" d="M165.024,666.528c8.467,0.913,16.046,2.589,23.231,5.805c12.212,5.468,21.605,14.172,28.862,25.278
		c9.848,15.074,14.942,31.682,16.05,49.615c1.365,22.099-2.577,43.013-14.23,62.028c-9.446,15.415-22.515,26.5-40.331,31.268
		c-2.398,0.642-4.855,1.078-7.302,1.516c-0.794,0.142-1.908,0.32-2.422-0.089c-3.719-2.965-8.001-1.701-12.065-1.71
		c-26.494-0.057-52.988-0.034-79.482-0.026c-5.665,0.002-11.33,0.099-16.994,0.056c-7.793-0.059-10.218-2.396-10.238-10.125
		c-0.031-11.328,0.139-22.657,0.147-33.985c0.023-32.159,0.018-64.319,0-96.478c-0.004-6.495-0.119-12.99-0.165-19.484
		c-0.009-1.331-0.051-2.677,0.115-3.991c0.631-5.009,2.706-7.079,7.643-7.621c1.318-0.145,2.663-0.037,3.996-0.037
		c29.66-0.001,59.32-0.001,88.98,0c1.333,0,2.739-0.266,3.985,0.064C158.649,669.632,162.007,668.633,165.024,666.528z
		 M113.919,795.345c1.579,1.772,2.837,2.025,4.221,2.01c4.158-0.043,8.348,0.268,12.468-0.14
		c14.982-1.482,24.951-8.203,29.431-23.274c3.935-13.236,4.135-26.481,0.014-39.689c-2.632-8.435-7.367-15.176-15.97-18.538
		c-7.76-3.033-15.928-2.782-24.035-3.007c-0.647-0.018-1.295,0.294-1.953,0.378c-2.798,0.359-3.978,2.127-4.149,4.751
		c-0.065,0.994-0.026,1.995-0.026,2.993c-0.001,21.124-0.001,42.248-0.001,63.372C113.919,788.008,113.919,791.815,113.919,795.345z
		"/>
	<path style="fill:#261B19;" d="M822.255,1045.326c-1.39,1.163-2.951,0.681-4.389,0.684c-20.49,0.033-40.98,0.03-61.47,0.018
		c-5.902-0.003-6.33-0.369-8.385-5.729c-3.558-9.278-7.379-18.453-10.519-27.892c-2.116-6.36-4.674-8.264-11.527-7.791
		c-11.483,0.792-22.965,0.21-34.444,0.396c-3.485,0.057-6.971,0.141-10.461-0.383c-1.771-0.266-3.644,0.034-5.459,0.206
		c-3.639,0.344-5.357,2.767-6.597,5.934c-2.659,6.788-4.886,13.712-6.962,20.693c-3.382,11.374-7.622,16.349-21.929,15.41
		c-18.983-1.246-37.946-0.468-56.912-0.843c-1.294-0.026-2.587-0.116-4.384-0.199c1.171-2.573,2.108-4.83,3.201-7.008
		c26.998-53.766,52.205-108.379,76.882-163.237c2.978-6.62,7.267-9.505,14.62-9.404c21.817,0.301,43.641,0.116,65.463,0.107
		c6.876-0.003,8.58,1.093,11.23,7.54c22.746,55.335,46.019,110.444,70.797,164.906C822,1040.913,822.495,1043.038,822.255,1045.326z
		 M719.532,956.062c-4.945-13.734-9.89-27.469-15.043-41.782c-5.623,14.922-11.024,29.256-16.577,43.993c9.505,0,18.617,0,27.73,0
		C716.898,958.273,717.853,957.69,719.532,956.062z"/>
	<path style="fill:#261B18;" d="M169.501,866.587c6.21,0,11.72-0.348,17.17,0.072c11.323,0.873,22.559,0.532,33.805-0.975
		c5.628-0.754,11.313-0.683,16.843,0.857c7.994,2.226,13.698,7.341,17.473,14.596c1.447,2.781,2.703,5.724,3.572,8.731
		c3.25,11.241,8.932,21.363,14.169,31.908c1.844-0.833,2.122-2.577,2.793-3.981c6.867-14.361,13.846-28.671,20.473-43.142
		c2.593-5.662,6.306-8.477,12.663-8.423c21.496,0.182,42.995,0.114,64.493,0.141c0.827,0.001,1.654,0,2.397,0
		c0.365,0.885-0.018,1.467-0.334,1.989c-9.784,16.205-18.549,33.022-29.071,48.779c-5.078,7.604-10.636,14.885-15.755,22.463
		c-9.943,14.72-17.128,30.685-20.731,48.133c-2.64,12.783-3.472,25.684-1.73,38.685c0.375,2.8,0.721,5.606,0.98,8.419
		c0.695,7.541-2.665,11.413-10.264,11.325c-8.309-0.097-16.613-0.801-24.92-0.805c-8.644-0.004-17.288,0.518-25.932,0.793
		c-1.33,0.042-2.679,0.119-3.993-0.04c-3.8-0.459-5.671-2.292-6.26-5.996c-0.104-0.653-0.08-1.329-0.08-1.995
		c-0.004-12.66-0.08-25.32,0.038-37.979c0.041-4.468,0.989-8.885,0.406-13.419c-1.19-9.261-4.753-17.539-9.632-25.392
		c-16.22-26.109-32.376-52.259-48.547-78.399C176.306,877.726,173.123,872.494,169.501,866.587z"/>
	<path style="fill:#261B18;" d="M1431.912,719.019c-6.445-1.825-12.404-3.646-18.435-5.19c-9.362-2.397-18.814-3.998-28.556-2.672
		c-2.65,0.361-5.262,0.824-7.741,1.753c-4.899,1.837-6.269,6.518-3.311,10.879c1.811,2.671,4.408,4.531,6.914,6.432
		c9.407,7.137,18.972,14.068,28.311,21.291c6.996,5.411,13.229,11.586,18.145,19.069c14.758,22.468,9.809,52.737-17.896,67.512
		c-9.899,5.279-20.612,7.999-31.798,9.3c-13.011,1.514-25.885,0.616-38.796-0.812c-6.61-0.731-13.324,0.069-19.904-1.258
		c-0.813-0.164-1.68-0.089-2.476-0.299c-10.053-2.644-13.086-5.867-14.246-17.592c-0.408-4.126-0.245-8.294-0.726-12.44
		c-0.785-6.77-2.011-13.463-3.078-20.185c-0.28-1.768-0.312-3.575-0.462-5.416c2.375-0.634,4.139,0.546,5.895,1.161
		c12.902,4.522,26.063,7.851,39.772,8.339c4.621,0.165,9.298-0.366,13.902-0.955c3.049-0.39,5.755-1.831,6.613-5.205
		c0.845-3.324-0.663-5.832-3.121-7.86c-8.087-6.672-16.23-13.277-24.296-19.974c-9.478-7.869-19.045-15.657-26.273-25.821
		c-5.405-7.601-9.027-15.869-9.259-25.337c-0.426-17.371,8.824-39.254,33.624-47.308c6.967-2.262,14.151-3.443,21.451-4.151
		c20.035-1.944,39.829,0.286,59.597,3.138c7.261,1.048,9.999,3.48,10.79,10.806c1,9.255,2.146,18.485,3.376,27.709
		C1430.583,708.833,1431.219,713.734,1431.912,719.019z"/>
	<path style="fill:#261C19;" d="M1077.998,955.789c0-26.832-0.001-53.663,0.002-80.495c0-1.333-0.085-2.679,0.069-3.996
		c0.306-2.613,1.904-4.182,4.402-4.807c0.795-0.199,1.656-0.202,2.486-0.191c18.993,0.255,37.984,0.215,56.978,0.03
		c5.059-0.049,6.886,2.026,6.957,7.615c0.112,8.832,0.049,17.666,0.026,26.499c-0.047,18.831-0.168,37.661-0.162,56.492
		c0.008,25.997,0.106,51.995,0.166,77.992c0.002,1,0.019,2-0.002,3c-0.138,6.447-1.943,8.435-8.438,8.227
		c-8.315-0.266-16.631-0.052-24.954-0.472c-7.787-0.393-15.626,0.247-23.443,0.427c-1.998,0.046-3.996,0.11-5.994,0.094
		c-6.332-0.05-8.062-1.72-8.083-7.919c-0.033-9.833-0.009-19.666-0.009-29.5C1077.998,991.12,1077.998,973.454,1077.998,955.789z"/>
</g>
</svg>
