<?xml version="1.0" encoding="iso-8859-1"?>
<!-- Generator: Adobe Illustrator 27.0.0, SVG Export Plug-In . SVG Version: 6.00 Build 0)  -->
<svg version="1.1" id="Layer_1" xmlns="http://www.w3.org/2000/svg" xmlns:xlink="http://www.w3.org/1999/xlink" x="0px" y="0px"
	 viewBox="0 0 1517.3 722" style="enable-background:new 0 0 1517.3 722;" xml:space="preserve">
<g>
	<path style="fill:#1B3662;" d="M720,0c-0.015,2.164-0.042,4.328-0.042,6.492c-0.002,235.627-0.002,471.253-0.002,706.88
		c0,1.956,0,3.911,0,6.028c-34.389,0-68.299,0-102.601,0c0-77.516,0-154.767,0-232.423c-31.381-14.688-62.596-29.298-94.246-44.112
		c0,92.348,0,184.273,0,276.499c-91.732,0-183.133,0-274.538,0c-0.984-3.739-1.428-130.229-0.45-142.726
		c91.148-44.407,182.563-88.944,274.554-133.762c-10.091-4.824-19.338-9.285-28.619-13.674
		c-22.665-10.718-45.339-21.416-68.021-32.098c-37.55-17.685-75.126-35.316-112.66-53.036
		c-37.984-17.933-75.924-35.957-113.895-53.917c-13.507-6.389-27.052-12.697-40.568-19.066c-1.343-0.633-2.61-1.429-3.912-2.149
		c-0.017-0.357-0.034-0.714-0.051-1.071c9.408-5.255,19.328-9.46,29.043-14.078c49.036-23.309,98.116-46.526,147.19-69.756
		c77.44-36.658,154.892-73.29,232.33-109.952c47.718-22.591,95.425-45.206,143.119-67.849C710.799,4.251,715.16,2.636,719,0
		C719.333,0,719.667,0,720,0z"/>
	<path style="fill:#1C3662;" d="M0,341c6.035-1.883,11.474-5.094,17.143-7.779c42.911-20.33,85.782-40.746,128.7-61.062
		c2.645-1.252,4.986-3.444,8.232-3.208c-0.776,2.102-0.388,4.286-0.388,6.428c-0.033,145.917-0.04,291.835-0.075,437.752
		c0,1.958,0.425,3.977-0.443,6.011c-1.66,0.982-3.533,0.503-5.301,0.504c-47.473,0.031-94.946,0.02-142.419,0.041
		C3.633,719.686,1.784,719.366,0,720C0,593.667,0,467.333,0,341z"/>
	<path style="fill:#8E8FA9;" d="M1108,722c0.178-0.323,0.163-0.636-0.048-0.94c5.378,0.02,10.756,0.04,16.135,0.06
		c-0.128,0.283-0.157,0.577-0.087,0.88C1118.667,722,1113.333,722,1108,722z"/>
	<path style="fill:#1D3763;" d="M1015.86,718.709c-9.752-13.764-19.551-27.593-29.478-41.605c-8.689,0-17.459,0-26.715,0
		c0,14.019,0,27.91,0,41.998c-3.82,1.031-7.294,0.453-10.71,0.55c-3.464,0.099-6.932,0.022-10.319,0.022
		c-0.8-4.553-1.099-110.496-0.408-122.071c0.925-1.034,2.168-0.583,3.265-0.585c16.988-0.03,33.976-0.029,50.964-0.017
		c7.879,0.006,15.566,1.101,22.901,4.144c18.367,7.618,24.693,25.16,21.98,41.473c-2.48,14.911-11.369,24.724-25.776,29.457
		c-0.468,0.154-0.923,0.355-1.366,0.572c-0.128,0.062-0.191,0.255-0.622,0.873c10.486,14.768,21.092,29.708,32.085,45.19
		C1032.717,718.709,1024.616,718.709,1015.86,718.709z M959.6,617.055c0,13.961,0,27.352,0,40.857
		c12.067,0,23.853,0.041,35.639-0.044c1.796-0.013,3.633-0.459,5.375-0.968c9.832-2.874,15.678-10.152,15.739-18.783
		c0.071-10.128-4.485-16.719-14.212-19.621c-2.368-0.706-4.864-1.347-7.308-1.377C983.201,616.976,971.567,617.055,959.6,617.055z"
		/>
	<path style="fill:#1E3763;" d="M844.779,545.018c-7.494,0-14.29,0-21.409,0c0-40.56,0-81.094,0-121.619
		c0.281-0.176,0.544-0.483,0.808-0.485c19.814-0.103,39.639-0.584,59.438,0.219c11.419,0.463,21.739,4.228,29.911,12.826
		c14.424,15.175,13.896,48.139-11.884,59.941c-2.215,1.014-4.523,1.827-7.339,2.953c5.526,7.723,10.94,15.245,16.306,22.8
		c5.271,7.422,10.494,14.879,16.25,23.047c-9.011,0-17.19,0-25.928,0c-9.592-13.525-19.484-27.473-29.506-41.603
		c-8.678,0-17.446,0-26.647,0C844.779,516.967,844.779,530.696,844.779,545.018z M844.642,483.576
		c0.591,0.162,1.047,0.396,1.503,0.396c10.992,0.017,21.984,0.061,32.976-0.022c4.041-0.03,7.916-1.167,11.475-3.003
		c7.118-3.673,10.94-9.63,10.932-17.668c-0.009-8.397-3.608-14.751-11.611-18.08c-3.866-1.608-7.933-2.361-12.155-2.335
		c-8.327,0.053-16.655,0.015-24.982,0.015c-2.634,0-5.268,0-8.137,0C844.642,456.693,844.642,470.104,844.642,483.576z"/>
	<path style="fill:#1E3763;" d="M1001.614,373.193c-35.861,0.295-64.445-29.385-63.612-65.794
		c0.742-32.458,27.713-61.022,63.38-60.843c35.867,0.179,63.635,28.843,63.352,64.769
		C1064.458,346.466,1035.595,373.584,1001.614,373.193z M992.476,266.925c-8.993,0.43-20.841,8.196-28.632,22.489
		c-4.509,8.271-4.563,17.146-4.048,26.192c1.012,17.772,18.456,41.353,46.323,37.551c15.849-2.163,26.681-11.07,32.847-25.645
		c3.605-8.521,3.608-17.432,2.086-26.448C1037.755,281.529,1019.404,266.181,992.476,266.925z"/>
	<path style="fill:#1B3662;" d="M1042.586,423.089c0,6.258,0,12.332,0,18.801c-23.064,0-45.979,0-69.183,0c0,10.642,0,20.9,0,31.809
		c4.938,0.036,10.028,0.088,15.119,0.107c4.998,0.019,9.996,0.004,14.994,0.004c5.165,0,10.329,0,15.494,0c4.959,0,9.917,0,15.113,0
		c0,6.527,0,12.602,0,19.039c-20.15,0-40.254,0-60.683,0c0,11.077,0,21.803,0,33.095c23.139,0,46.35,0,69.71,0
		c0,6.521,0,12.483,0,18.456c-3.686,1.096-74.412,1.563-90.936,0.568c0-40.518,0-81.057,0-121.878
		C982.262,423.089,1012.303,423.089,1042.586,423.089z"/>
	<path style="fill:#203964;" d="M844.531,332.009c0,13.256,0,26.014,0,38.978c-7.19,0-13.983,0-21.133,0c0-40.652,0-81.363,0-122.12
		c0.94-0.884,2.164-0.532,3.286-0.534c14.327-0.023,28.655-0.125,42.98,0.028c8.67,0.092,17.253,1.017,25.29,4.704
		c14.361,6.588,21.832,17.974,22.962,33.533c1.901,26.166-15.533,40.628-37.199,44.378c-10.094,1.747-20.275,0.783-30.417,1.029
		C848.507,332.046,846.711,332.009,844.531,332.009z M844.94,311.889c0.65,0.172,1.106,0.397,1.563,0.398
		c8.664,0.022,17.329,0.054,25.992-0.001c3.525-0.022,6.908-0.873,10.154-2.254c8.974-3.818,13.095-11.624,12.575-22.719
		c-0.323-6.894-4.971-14.994-15.321-17.346c-11.49-2.611-23.129-0.688-34.963-1.379C844.94,283.372,844.94,297.594,844.94,311.889z"
		/>
	<path style="fill:#1E3863;" d="M1112.035,422.122c6.979,0,13.454,0,20.201,0c17.681,40.778,35.359,81.549,53.23,122.765
		c-7.741,0-14.986,0-22.696,0c-3.915-9.401-7.918-19.014-11.989-28.792c-19.153,0-38.274,0-57.907,0
		c-4.043,9.523-8.163,19.227-12.248,28.85c-7.449,0-14.555,0-22.216,0C1076.376,503.795,1094.16,463.062,1112.035,422.122z
		 M1142.919,496.116c-7.052-16.29-13.758-31.969-21.173-48.304c-7.015,16.617-13.601,32.219-20.39,48.304
		C1115.428,496.116,1128.656,496.116,1142.919,496.116z"/>
	<path style="fill:#1E3863;" d="M1373.727,341.818c-19.463,0-38.418,0-57.859,0c-4.034,9.518-8.093,19.098-12.303,29.032
		c-7.061,0-14.29,0-22.126,0c17.953-41.12,35.77-81.932,53.583-122.732c6.789,0,13.264,0,20.198,0
		c17.653,40.713,35.364,81.561,53.259,122.833c-7.692,0-14.799,0-22.549,0C1381.974,361.507,1377.899,351.777,1373.727,341.818z
		 M1364.616,321.954c-6.834-16.173-13.428-31.779-20.504-48.525c-7.356,16.852-14.2,32.53-21.182,48.525
		C1336.847,321.954,1350.282,321.954,1364.616,321.954z"/>
	<path style="fill:#1D3763;" d="M1124.087,721.12c-5.378-0.02-10.756-0.04-16.135-0.06c-22.576-2.383-37.921-16.662-42.024-38.863
		c-0.855-4.629-1.12-9.261-1.133-13.914c-0.066-22.826-0.036-45.651-0.033-68.477c0-0.792,0.071-1.585,0.119-2.583
		c7.027,0,13.789,0,20.604,0c1.036,1.32,0.507,2.871,0.51,4.294c0.04,21.326,0.032,42.652,0.025,63.979
		c-0.002,6.025,0.692,11.919,2.788,17.626c3.878,10.561,11.54,16.233,22.49,18c5.025,0.811,10.005,0.676,14.845-0.547
		c12.164-3.074,18.628-11.436,20.88-23.444c0.801-4.272,0.995-8.585,0.988-12.926c-0.034-20.659-0.018-41.319-0.021-61.978
		c0-1.624,0-3.248,0-5.038c7.194,0,13.95,0,21.11,0c0.149,5.545,0.371,10.973,0.426,16.402c0.184,18.159,0.343,36.318,0.437,54.478
		c0.041,7.874-1.121,15.598-3.946,22.97C1158.659,710.242,1144.067,719.461,1124.087,721.12z"/>
	<path style="fill:#1E3863;" d="M1190.59,701.481c4.392-5.017,8.638-9.866,12.967-14.811c2.508,1.961,4.654,3.775,6.935,5.399
		c10.563,7.519,22.368,10.698,35.275,9.947c4.24-0.247,8.096-1.622,11.742-3.759c8.989-5.268,8.886-19.413-0.593-23.721
		c-5.169-2.349-10.441-4.243-15.965-5.506c-8.418-1.925-16.727-4.159-24.752-7.458c-11.836-4.866-18.915-13.232-20.015-26.178
		c-1.149-13.52,3.463-24.474,14.763-32.342c5.572-3.879,11.799-6.114,18.485-6.912c16.529-1.974,32.089,0.905,46.422,9.637
		c2.279,1.389,4.495,2.842,6.824,5.152c-3.731,5.305-7.502,10.669-11.46,16.298c-4.596-2.844-8.801-5.797-13.524-7.831
		c-6.807-2.932-13.861-4.578-21.302-4.314c-4.402,0.156-8.479,1.351-12.199,3.797c-2.929,1.926-4.803,4.461-5.607,7.906
		c-1.726,7.392,0.229,11.828,7.022,15.117c7.071,3.424,14.733,5.084,22.252,7.126c6.099,1.656,12.135,3.48,17.878,6.106
		c9.157,4.188,16.424,10.378,18.807,20.609c4.215,18.099-3.618,35.697-23.289,42.212c-16.198,5.365-32.16,3.676-47.798-2.285
		C1205.052,712.466,1197.241,708.123,1190.59,701.481z"/>
	<path style="fill:#1E3863;" d="M1081.074,353.045c4.513-5.136,8.672-9.869,13.031-14.83c2.431,1.886,4.577,3.628,6.802,5.264
		c9.29,6.829,19.927,9.871,31.248,10.378c5.132,0.23,10.219-0.909,14.882-3.476c4.99-2.748,7.703-6.973,7.709-12.521
		c0.006-5.584-2.655-9.668-7.98-12.154c-5.62-2.624-11.474-4.316-17.465-5.698c-8.588-1.98-17.082-4.284-25.071-8.096
		c-10.65-5.082-16.372-13.365-17.402-25.325c-1.976-22.943,14.765-35.738,31.294-38.387c19.476-3.121,37.298,1.276,53.392,12.672
		c0.53,0.375,1.012,0.818,1.848,1.5c-3.885,5.454-7.698,10.806-11.548,16.211c-4.124-2.229-7.619-4.764-11.486-6.701
		c-8.099-4.055-16.581-5.69-25.591-5.034c-4.333,0.316-8.09,1.94-11.387,4.592c-7.13,5.735-6.024,17.443,2.054,21.737
		c6.514,3.463,13.65,5.142,20.76,6.832c6.962,1.655,13.776,3.735,20.291,6.729c12.234,5.623,19.523,14.612,19.652,28.585
		c0.133,14.281-5.736,24.966-18.532,31.7c-8.509,4.478-17.699,5.721-27.07,5.525c-15.338-0.322-29.368-5.023-42.126-13.569
		C1085.875,357.303,1083.677,355.316,1081.074,353.045z"/>
	<path style="fill:#1E3763;" d="M1447.694,544.931c-0.883-1.83-0.479-3.515-0.484-5.137c-0.039-12.988-0.062-25.977,0.015-38.965
		c0.015-2.433-0.595-4.406-1.961-6.476c-14.643-22.196-29.174-44.465-43.718-66.726c-0.894-1.368-1.644-2.83-2.659-4.592
		c8.502,0,16.602,0,25.252,0c11.028,17.499,22.246,35.3,33.939,53.855c11.908-18.177,23.044-36.125,34.474-53.926
		c8.127,0,16.083,0,24.747,0c-3.229,4.94-6.151,9.479-9.141,13.974c-12.517,18.82-25.02,37.649-37.635,56.403
		c-1.304,1.939-1.712,3.813-1.688,6.035c0.145,13.487,0.216,26.975,0.308,40.463c0.011,1.624,0.001,3.248,0.001,5.092
		C1461.725,544.931,1454.676,544.931,1447.694,544.931z"/>
	<path style="fill:#203964;" d="M915.885,597.271c0,6.526,0,12.806,0,19.588c-12.562,0-25.116,0-38.134,0c0,34.363,0,68.23,0,102.46
		c-7.526,0-14.591,0-21.728,0c-0.071-0.079-0.193-0.196-0.29-0.33c-0.094-0.129-0.208-0.269-0.235-0.418
		c-0.088-0.487-0.197-0.981-0.197-1.472c-0.009-33.135-0.008-66.269-0.008-99.883c-12.663,0-25.222,0-38.059,0
		c0-6.87,0-13.266,0-19.946C849.932,597.271,882.654,597.271,915.885,597.271z"/>
	<path style="fill:#203964;" d="M1227.871,268.721c-13.042,0-25.616,0-38.465,0c0-6.875,0-13.294,0-20.061
		c32.819,0,65.672,0,98.82,0c0,6.556,0,12.962,0,19.884c-12.699,0-25.249,0-38.246,0c0,34.391,0,68.273,0,102.405
		c-7.512,0-14.57,0-22.109,0C1227.871,336.928,1227.871,303.053,1227.871,268.721z"/>
	<path style="fill:#213964;" d="M1287.123,442.894c0-6.902,0-13.185,0-19.783c32.836,0,65.542,0,98.604,0c0,6.334,0,12.859,0,19.757
		c-12.569,0-24.986,0-37.942,0c0,34.207,0,68.052,0,102.113c-7.646,0-14.747,0-22.205,0c0-33.851,0-67.595,0-102.058
		c-6.575-0.057-12.828-0.022-19.079-0.028C1300.2,442.889,1293.901,442.894,1287.123,442.894z"/>
	<path style="fill:#1D3763;" d="M1340.909,617.049c-13.243,0-25.709,0-38.514,0c0-6.592,0-12.99,0-19.722
		c32.708,0,65.557,0,98.601,0c0,6.405,0,12.688,0,19.469c-12.452,0-25.01,0-37.998,0c0,34.378,0,68.263,0,102.511
		c-7.491,0-14.556,0-22.089,0C1340.909,685.404,1340.909,651.524,1340.909,617.049z"/>
	<path style="fill:#1B3662;" d="M1514.798,351.633c0,6.877,0,12.833,0,18.762c-3.588,0.988-79.115,1.242-85.753,0.283
		c0-40.529,0-81.09,0-121.998c6.774,0,13.506,0,20.418,0c-0.04-0.029,0.117,0.05,0.224,0.172c0.101,0.115,0.214,0.276,0.214,0.417
		c0.009,33.945,0.009,67.89,0.009,102.364C1471.637,351.633,1493.008,351.633,1514.798,351.633z"/>
	<path style="fill:#1B3662;" d="M1227.081,423.082c0,17.289,0,34.254,0,51.22c0,16.985,0,33.97,0,51.464c21.494,0,42.876,0,64.545,0
		c0,6.573,0,12.647,0,19.075c-28.348,0-56.731,0-85.449,0c0-40.412,0-80.948,0-121.758
		C1212.95,423.082,1219.697,423.082,1227.081,423.082z"/>
	<path style="fill:#1C3662;" d="M153.955,269.06c-0.302-0.925,0.349-1.058,0.994-1.195c0.017,0.357,0.034,0.714,0.051,1.071
		C154.651,268.978,154.303,269.019,153.955,269.06z"/>
</g>
</svg>
