<?xml version="1.0" encoding="iso-8859-1"?>
<!-- Generator: Adobe Illustrator 27.0.0, SVG Export Plug-In . SVG Version: 6.00 Build 0)  -->
<svg version="1.1" id="Layer_1" xmlns="http://www.w3.org/2000/svg" xmlns:xlink="http://www.w3.org/1999/xlink" x="0px" y="0px"
	 viewBox="0 0 1637 437" style="enable-background:new 0 0 1637 437;" xml:space="preserve">
<g>
	<path style="fill:#E52429;" d="M342.002,347.027c-4.73,4.876-9.399,9.812-14.2,14.618c-16.679,16.697-33.441,33.311-50.098,50.03
		c-12.388,12.433-27.159,20.387-44.296,23.989c-1.444,0.304-2.97,0.216-4.459,0.311c-7.004,0.019-14.007,0.039-21.011,0.058
		c-4.903,0.101-9.45-1.55-14.053-2.891c-14.409-4.195-26.247-12.605-36.777-22.95c-13.903-13.659-27.618-27.51-41.372-41.32
		c-29.982-30.105-59.859-60.315-89.946-90.315c-11.446-11.413-19.44-24.659-23.559-40.268C1.502,235.523,1.758,232.49,0,230
		c0-7.333,0-14.667,0-22c0.61-0.394,0.822-0.998,0.894-1.681c0.838-7.973,3.442-15.411,6.693-22.687
		c4.967-11.116,12.673-20.199,21.142-28.696c16.804-16.859,33.661-33.665,50.573-50.417c5.073-5.025,9.827-10.384,15.339-14.96
		c0.792,1.442-0.067,2.732-0.778,3.682c-2.703,3.614-4.479,7.721-6.295,11.761c-3.571,7.941-6.123,16.211-6.55,25.005
		c0.335,7.739-0.61,15.48,0.903,23.233c2.861,14.66,8.662,27.96,18.835,38.826c12.022,12.84,24.779,24.992,37.231,37.428
		c0.652,0.651,1.228,1.687,2.459,1.002l-0.106,0.241c-0.262,0.88,0.225,1.152,0.98,1.205c2.192,3.125,4.608,6.059,7.308,8.766
		c11.994,12.025,23.918,24.12,35.975,36.081c5.191,5.149,10.186,10.489,15.731,15.3c10.837,9.401,26.612,8.999,36.993-1.27
		c17.875-17.682,35.724-35.393,53.351-53.32c6.492-6.602,9.271-14.691,7.53-24.182c-0.616-3.355-2.217-6.193-3.278-9.297
		c2.013-0.263,2.873,1.387,4.048,2.475c4.209,3.894,7.689,8.51,12.152,12.163c5.224,4.276,8.386,10.624,14.257,14.285
		c0.658,0.41,1.218,1.18,1.526,1.909c0.682,1.614,1.939,2.771,3.228,3.709c5.285,3.846,8.809,9.128,12.474,14.367
		c0.981,1.402,1.334,3.506,3.382,4.075c0.182,2.413,1.758,4.232,2.706,6.316c6.881,15.131,9.908,30.919,7.162,47.417
		c-1.811,10.882-5.162,21.336-11.485,30.622c-0.741,1.088-2.029,2.412-0.789,4.04l-0.181,0.103
		C341.751,344.912,342.133,346.206,342.002,347.027z"/>
	<path style="fill:#E32429;" d="M228,0c2.487,2.05,5.656,1.132,8.47,1.8c15.605,3.703,29.02,11.155,40.31,22.431
		c27.59,27.554,55.102,55.185,82.659,82.772c17.782,17.801,35.702,35.466,53.345,53.403c13.35,13.572,21.221,29.896,23.361,48.933
		c2.609,23.207-3.958,43.635-18.37,61.743c-0.999,1.255-1.759,2.92-3.728,3.03c-0.312-1.217-1.387-1.831-2.137-2.703
		c-3.046-3.54-6.937-6.148-10.307-9.326c-9.429-8.893-18.138-18.501-27.91-27.081c-10.356-9.092-19.366-19.624-29.773-28.74
		c-9.867-8.643-18.434-18.666-28.327-27.361c-10.601-9.318-19.832-20.1-30.478-29.448c-9.982-8.765-18.654-18.92-28.69-27.704
		c-10.121-8.858-19.31-18.754-28.969-28.125c-15.638-15.171-31.713-29.905-46.88-45.561c-6.707-6.923-14.457-12.745-20.936-19.905
		c-0.679-0.75-1.486-1.336-2.527-1.503c1.338-1.222,2.704-2.415,4.011-3.669c11.323-10.874,24.681-17.864,39.954-21.47
		C203.374,0.974,206.092,2.183,208,0C214.667,0,221.333,0,228,0z"/>
	<path style="fill:#0B2235;" d="M1637,303c-1.451,0.511-1.485,1.989-2.027,3.079c-16.496,33.157-42.671,54.114-79.216,60.527
		c-28.196,4.948-55.427,0.882-80.149-14.493c-26.911-16.736-43.858-40.872-50.431-71.798c-4.957-23.322-3.093-46.363,6.556-68.393
		c12.482-28.499,33.272-48.537,62.339-59.735c16.584-6.389,33.97-8.257,51.53-6.874c22.478,1.771,42.383,10.371,59.851,24.676
		c13.652,11.179,23.853,24.87,31.058,41.564c-14.784,6.212-29.36,12.337-43.79,18.401c-1.198-0.69-1.388-1.707-1.834-2.586
		c-11.675-23.028-30.383-35.147-56.241-35.389c-32.869-0.308-57.636,23.221-62.445,54.042c-3.31,21.215,2.035,40.335,16.96,56.193
		c9.652,10.256,21.693,16.633,35.584,18.577c23.091,3.232,42.705-3.636,57.821-21.863c4.153-5.008,7.247-10.697,9.779-16.504
		c1.869-0.905,3.076,0.382,4.354,0.925c12.51,5.322,24.985,10.726,37.463,16.125c0.922,0.399,1.792,0.884,2.839,0.525
		C1637,301,1637,302,1637,303z"/>
	<path style="fill:#E95742;" d="M208,437c-0.02-0.322-0.041-0.645-0.061-0.967c7.004-0.019,14.007-0.039,21.011-0.058
		c0.017,0.342,0.033,0.683,0.05,1.025C222,437,215,437,208,437z"/>
	<path style="fill:#0B2235;" d="M1407.854,274.294c-58.151,0-115.899,0-174.016,0c1.019,6.185,3.126,11.548,5.854,16.649
		c9.641,18.03,24.557,28.763,44.743,32.253c10.609,1.835,21.229,2.265,31.687-0.365c18.412-4.63,32.014-15.596,40.905-32.381
		c0.538-1.016,1.024-2.059,1.725-3.473c13.566,7.817,27.014,15.567,40.674,23.438c-5.776,11.249-13.156,20.792-22.042,29.173
		c-16.626,15.681-36.46,24.519-59.04,27.445c-21.973,2.847-43.474,1.263-64.186-7.064c-30.82-12.391-51.923-34.314-62.121-65.89
		c-11-34.06-7.871-67.026,11.334-97.612c15.014-23.91,36.611-39.565,63.792-47.274c17.596-4.99,35.457-5.297,53.369-1.898
		c19.854,3.767,37.486,12.213,52.466,25.859c16.607,15.128,27.005,33.891,31.931,55.73
		C1408.252,243.608,1408.236,258.562,1407.854,274.294z M1236.639,232.016c40.368,0,80.277,0,120.558,0
		c-4.12-15.187-11.793-27.256-25.47-35.049c-11.681-6.656-24.395-8.494-37.531-7.972c-22.42,0.89-39.611,11.159-51.787,29.849
		C1239.893,222.706,1237.665,226.834,1236.639,232.016z"/>
	<path style="fill:#0B2235;" d="M546.84,363.564c0-89.074,0-177.85,0-266.462c1.273-1.287,2.684-0.81,3.954-0.811
		c29.154-0.027,58.31-0.197,87.462,0.03c29.082,0.226,53.84,10.642,73.191,32.703c13.322,15.188,20.675,32.975,22.681,53.126
		c2.042,20.514-1.744,39.759-12.073,57.522c-14.992,25.781-37.177,41.497-66.773,46.428c-6.914,1.152-13.871,1.635-20.872,1.633
		c-12.482-0.005-24.964-0.001-37.838-0.001c0,25.351,0,50.428,0,75.392C592.812,364.192,554.25,364.477,546.84,363.564z
		 M596.884,240.552c0.633,0.258,0.927,0.482,1.221,0.482c13.666,0.009,27.339,0.28,40.994-0.117
		c8.211-0.239,16.132-2.616,23.024-7.225c18.583-12.427,25.402-31.418,21.308-52.55c-4.908-25.336-27.528-38.798-47.578-38.282
		c-11.658,0.3-23.331,0.038-34.997,0.076c-1.278,0.004-2.664-0.441-3.971,0.622C596.884,175.768,596.884,208.068,596.884,240.552z"
		/>
	<path style="fill:#0B2235;" d="M1034.956,363.766c-17.022,0-33.449,0-50.217,0c0-2.022,0-3.816,0-5.61
		c0.001-36.82,0.017-73.641-0.01-110.461c-0.005-7.324-0.305-14.647-1.687-21.862c-3.23-16.859-11.74-29.623-28.725-35.021
		c-20.367-6.473-42.918-1.772-56.071,15.047c-6.394,8.176-9.735,17.653-11.277,27.821c-0.901,5.944-0.928,11.935-0.924,17.932
		c0.022,35.654,0.011,71.308,0.011,106.962c0,1.635,0,3.271,0,5.165c-16.668,0-33.054,0-49.435,0c0-71.422,0-142.655,0-214.179
		c16.566,0,32.64,0,49.103,0c0,8.312,0,16.573,0,25.394c2.412-1.382,3.342-3.357,4.759-4.799
		c13.374-13.614,29.177-22.532,48.395-24.232c20.397-1.805,40.18,0.552,58.224,11.145c13.967,8.2,23.645,20.195,29.754,35.116
		c5.292,12.924,7.596,26.499,7.925,40.354c0.355,14.987,0.162,29.987,0.171,44.981c0.016,26.99,0.005,53.98,0.005,80.969
		C1034.956,360.13,1034.956,361.771,1034.956,363.766z"/>
	<path style="fill:#0B2235;" d="M1133.273,149.298c14.705,0,28.964,0,43.447,0c0,15.014,0,29.585,0,44.558
		c-14.455,0-28.713,0-42.671,0c-1.258,1.569-0.811,2.954-0.812,4.232c-0.029,25.164-0.049,50.329-0.005,75.493
		c0.014,7.993,0.21,15.994,1.732,23.875c1.837,9.515,6.98,15.934,16.921,17.911c4.245,0.844,8.459,1.734,12.81,1.718
		c3.828-0.014,7.656-0.003,11.444-0.003c1.096,3.848,1.444,32.181,0.57,46.868c-3.703,0-7.471,0.094-11.233-0.017
		c-11.647-0.343-23.212-1.129-34.663-3.733c-24.373-5.541-38.553-20.694-43.82-44.825c-2.677-12.263-3.662-24.688-3.741-37.172
		c-0.166-26.33-0.063-52.662-0.071-78.993c0-1.621,0-3.242,0-5.201c-12.17,0-23.935,0-36.054,0c0-14.906,0-29.469,0-44.581
		c11.785,0,23.669,0,35.904,0c0-11.141,0-21.747,0-32.524c16.638-11.285,33.11-22.456,50.242-34.076
		C1133.273,105.337,1133.273,127.099,1133.273,149.298z"/>
	<path style="fill:#DC2429;" d="M132.063,52.166c8.035-8.812,16.35-17.35,25.049-25.51c1.041,0.167,1.848,0.752,2.527,1.503
		c6.479,7.161,14.229,12.982,20.936,19.905c15.167,15.656,31.242,30.39,46.88,45.561c9.659,9.371,18.848,19.267,28.969,28.125
		c10.036,8.784,18.708,18.939,28.69,27.704c10.646,9.348,19.877,20.129,30.478,29.448c9.893,8.695,18.46,18.718,28.327,27.361
		c10.407,9.116,19.416,19.647,29.773,28.74c9.772,8.58,18.481,18.188,27.91,27.081c3.37,3.179,7.261,5.786,10.307,9.326
		c0.75,0.871,1.825,1.486,2.137,2.703c-6.523,9.099-15.093,16.234-23.013,23.993c0.186-1.756-1.181-2.6-2.129-3.723
		c-2.367-2.802-5.673-4.476-8.217-7.111c-6.914-7.159-14.028-14.126-21.077-21.155c-3.152-3.144-6.813-5.661-10.33-8.359
		c-1.056-0.81-2.142-0.72-3.283-0.757c-2.048-0.569-2.401-2.673-3.382-4.075c-3.665-5.238-7.19-10.521-12.474-14.367
		c-1.289-0.938-2.546-2.095-3.228-3.709c-0.308-0.729-0.868-1.499-1.526-1.909c-5.871-3.66-9.033-10.009-14.257-14.285
		c-4.463-3.653-7.943-8.269-12.152-12.163c-1.176-1.087-2.036-2.738-4.048-2.475c-1.136-1.398-2.159-2.909-3.424-4.178
		c-18.298-18.375-36.632-36.715-54.944-55.077c-1.423-1.427-3.063-2.514-4.791-3.516c-4.577-2.656-9.582-3.473-14.774-3.532
		c0.35-1.906-0.798-3.064-2.019-4.259c-4.017-3.931-8.177-7.696-12.345-11.467c-9.949-9.004-19-18.936-28.917-28.023
		c-12.825-11.751-24.604-24.633-37.541-36.301C134.451,56.109,132.845,54.439,132.063,52.166z"/>
	<path style="fill:#0B2235;" d="M758.472,149.499c16.572,0,32.832,0,49.4,0c0,71.385,0,142.629,0,214.189c-16.251,0-32.667,0-49.4,0
		C758.472,292.537,758.472,221.297,758.472,149.499z"/>
	<path style="fill:#0B2235;" d="M782.983,127.904c-10.269-0.089-19.432-2.897-25.488-11.826
		c-9.343-13.776-8.795-40.374,13.841-48.183c12.682-4.375,24.989-2.681,35.114,7.133c4.563,4.424,6.689,10.121,7.609,16.394
		c0.71,4.838,0.631,9.646-0.464,14.312c-3.266,13.923-13.28,20.771-26.124,22.149C785.992,128.041,784.48,127.904,782.983,127.904z"
		/>
	<path style="fill:#D42429;" d="M345.998,257.001c1.141,0.036,2.227-0.054,3.283,0.757c3.517,2.698,7.177,5.216,10.33,8.359
		c7.049,7.029,14.163,13.996,21.077,21.155c2.544,2.634,5.85,4.309,8.217,7.111c0.948,1.122,2.315,1.966,2.129,3.723
		c-3.803,3.899-7.571,7.832-11.414,11.69c-10.29,10.328-20.602,20.633-30.931,30.923c-1.633,1.626-3.395,3.123-5.097,4.679
		c-1.24-1.628,0.049-2.952,0.789-4.04c6.323-9.286,9.673-19.74,11.485-30.622c2.746-16.498-0.281-32.286-7.162-47.417
		C347.756,261.232,346.18,259.413,345.998,257.001z"/>
	<path style="fill:#D42429;" d="M342.002,347.027c0.131-0.821-0.251-2.115,1.408-1.528
		C343.201,346.248,342.776,346.798,342.002,347.027z"/>
	<path style="fill:#C72228;" d="M179.05,165.133c-9.065,9.787-18.587,19.118-28.31,28.246c-3.691-2.755-7.427-5.472-10.635-8.795
		c-16.709-17.308-34.874-33.13-51.501-50.519c-1.519-1.588-3.484-2.48-5.175-3.789c-0.546-0.422-1.593-0.197-2.411-0.269
		c0.427-8.794,2.979-17.064,6.55-25.005c1.817-4.04,3.592-8.147,6.295-11.761c0.711-0.95,1.57-2.24,0.778-3.682l0.07,0.016
		c0.429,0.141,0.858,0.283,1.288,0.424c1.895,0.54,3.392-1.328,5.017-0.943c6.014,4.08,10.661,9.305,15.692,14.116
		c6.717,6.423,13.358,12.938,20.039,19.386c13.517,13.044,27.077,26.054,40.508,39.192
		C178.221,162.694,179.19,163.614,179.05,165.133z"/>
	<path style="fill:#BC2327;" d="M81.018,130.008c0.818,0.071,1.865-0.154,2.411,0.269c1.691,1.308,3.657,2.2,5.175,3.789
		c16.627,17.389,34.792,33.211,51.501,50.519c3.208,3.323,6.943,6.04,10.635,8.795c-1.571,1.699-3.124,3.416-4.717,5.095
		c-8.321,8.77-10.241,18.821-6.077,30.11c0.227,0.615,0.336,1.274,0.499,1.912c-1.232,0.685-1.807-0.351-2.459-1.002
		c-12.452-12.436-25.209-24.588-37.231-37.428c-10.173-10.865-15.974-24.165-18.835-38.826
		C80.408,145.488,81.353,137.747,81.018,130.008z"/>
	<path style="fill:#BC2327;" d="M140.34,230.737c0.688,0.108,0.797,0.687,0.98,1.205
		C140.565,231.889,140.078,231.617,140.34,230.737z"/>
	<path style="fill:#D32429;" d="M179.05,165.133c0.14-1.519-0.829-2.439-1.794-3.382c-13.432-13.137-26.991-26.147-40.508-39.192
		c-6.681-6.448-13.322-12.963-20.039-19.386c-5.032-4.811-9.678-10.036-15.692-14.116c-1.626-0.386-3.122,1.483-5.017,0.943
		c-0.116-0.429-0.233-0.858-0.349-1.286l0.048,0.012c0.828,0.152,1.183-0.178,1.036-1.018l0.115,0.253l-0.176-0.215
		c1.324,0.255,1.267-0.726,1.387-1.549c10.922-11.756,22.182-23.174,34.003-34.03c0.782,2.273,2.388,3.944,4.113,5.5
		c12.938,11.668,24.716,24.55,37.541,36.301c9.917,9.086,18.968,19.018,28.917,28.023c4.167,3.772,8.328,7.537,12.345,11.467
		c1.221,1.195,2.369,2.352,2.019,4.259c-7.762,0.522-14.155,3.74-19.574,9.339C191.45,153.226,185.187,159.119,179.05,165.133z"/>
	<path style="fill:#E52429;" d="M98.06,86.195c-0.12,0.823-0.063,1.804-1.387,1.549C96.843,86.966,97.285,86.432,98.06,86.195z"/>
	<path style="fill:#E52429;" d="M96.734,87.707c0.146,0.84-0.208,1.17-1.036,1.018C95.807,88.145,96.159,87.813,96.734,87.707z"/>
	<path style="fill:#E52429;" d="M95.65,88.713c0.116,0.429,0.233,0.858,0.349,1.286c-0.429-0.141-0.858-0.283-1.288-0.424
		C94.84,89.087,95.148,88.795,95.65,88.713z"/>
</g>
</svg>
