<?xml version="1.0" encoding="iso-8859-1"?>
<!-- Generator: Adobe Illustrator 27.0.0, SVG Export Plug-In . SVG Version: 6.00 Build 0)  -->
<svg version="1.1" id="Layer_1" xmlns="http://www.w3.org/2000/svg" xmlns:xlink="http://www.w3.org/1999/xlink" x="0px" y="0px"
	 viewBox="0 0 1344.874 713" style="enable-background:new 0 0 1344.874 713;" xml:space="preserve">
<g>
	<path style="fill:#C22327;" d="M410.873,0c0.087,0.287,0.084,0.729,0.274,0.838c10.222,5.872,20.461,11.715,30.784,17.61
		c9.416-3.629,18.68-7.199,28.142-10.846c7.313,5.094,14.59,10.038,21.717,15.189c2.807,2.028,5.691,3.174,9.178,3.333
		c3.805,0.174,7.587,0.85,11.643,1.339c2.575,3.743,5.204,7.566,8.229,11.964c15.112,1.313,30.645,2.662,46.522,4.041
		c9.169,10.069,18.459,20.271,27.796,30.524c15.845,0,31.65,0,47.886,0c7.328,9.764,14.804,19.725,22.45,29.912
		c7.297,0,14.758,0,22.692,0c4.696,8.941,9.456,18.002,14.321,27.265c5.399,0.28,10.696,0.724,15.996,0.756
		c2.505,0.015,4.425,0.747,6.37,2.219c6.095,4.612,12.3,9.08,18.554,13.672c8.017-4.041,15.869-7.998,24.006-12.099
		c11.788,7.34,23.611,14.702,35.571,22.148c15.279-4.785,30.456-9.539,45.855-14.362c9.235,6.945,18.395,13.833,27.667,20.805
		c6.153-0.488,12.032-2.405,18.065-3.461c5.069-0.887,10.165-1.813,15.088-3.265c2.961-0.873,5.057-0.095,7.403,1.405
		c13.309,8.512,26.67,16.942,40.014,25.4c0.829,0.525,1.657,1.052,2.792,1.773c8.92-10.433,17.761-20.774,26.683-31.209
		c8.153,2.624,16.197,5.213,24.786,7.978c11.71-7.435,23.745-15.076,36.05-22.888c17.92,13.748,35.519,27.672,52.871,41.781
		c6.865-1.439,13.513-2.833,19.962-4.185c2.617,1.27,3.966,3.466,5.638,5.262c7.711,8.285,15.381,16.61,22.919,25.051
		c1.458,1.633,3.192,2.31,5.072,2.903c10.448,3.294,20.883,6.634,31.385,9.751c2.587,0.768,4.244,2.029,5.647,4.352
		c18.649,30.883,37.372,61.723,56.153,92.526c4.01,6.576,9.638,11.885,14.654,17.654c25.888,29.774,51.887,59.452,77.84,89.17
		c0.53,0.606,0.977,1.284,1.436,1.893c-0.702,1.325-1.781,0.941-2.649,0.941c-66.493,0.015-132.987,0.009-199.48-0.005
		c-0.661,0-1.322-0.122-1.984-0.188c0.187-2.472-1.893-2.947-3.453-3.682c-10.614-5.002-20.942-10.57-31.649-15.409
		c-14.156-6.397-27.73-14.025-41.903-20.439c-13.703-6.201-26.849-13.559-40.568-19.776c-13.999-6.344-27.51-13.723-41.436-20.263
		c-19.906-9.35-39.526-19.313-59.246-29.057c-1.831-0.905-3.644-1.545-5.699-1.33c-0.017-1.998-0.048-3.996-0.049-5.994
		c-0.007-34.634,0.006-69.268-0.066-103.902c-0.003-1.674,0.952-3.665-0.902-5.064c-6.582,0-13.164,0-19.974,0
		c0,2.316,0,3.96,0,5.605c0,18.801,0.016,37.602-0.005,56.403c-0.015,13.308-0.079,26.616-0.122,39.924
		c-2.058,0.3-3.862-0.368-5.675-1.286c-8.681-4.395-17.414-8.688-26.083-13.108c-1.956-0.997-3.871-1.826-6.107-1.608
		c-0.07-28.556-0.14-57.112-0.21-85.88c-7.024,0-13.492,0-19.959,0c-1.695,1.279-0.801,3.087-0.806,4.617
		c-0.086,23.101-0.089,46.202-0.112,69.303c-5.087-1.432-9.671-4.094-14.399-6.3c-14.331-6.685-28.25-14.221-42.646-20.808
		c-11.094-5.076-21.872-10.842-32.789-16.306c-2.931-1.467-5.988-2.61-9.116-3.575c-0.044-7.552-0.051-15.105-0.166-22.656
		c-0.021-1.403,0.632-2.957-0.566-4.222c-7.13-0.019-14.261-0.038-21.391-0.057c-1.173,0.564-0.847,1.644-0.857,2.581
		c-0.039,3.781-0.048,7.562-0.069,11.343c-0.984-0.049-1.945,0.023-2.913-0.438c-4.316-2.056-8.695-3.979-13.008-6.041
		c-13.568-6.485-26.812-13.613-40.528-19.826c-13.994-6.339-27.422-13.876-41.438-20.223c-13.696-6.202-26.823-13.587-40.555-19.767
		c-13.255-5.965-25.959-13.098-39.216-19.116c-13.84-6.283-27.135-13.706-40.996-19.996c-13.84-6.281-27.212-13.552-40.984-20.02
		c-20.948-9.837-41.572-20.366-62.348-30.571c-14.984-7.359-30.002-14.648-44.975-22.028c-1.667-0.822-4.048-1.088-4.012-3.793
		c2.541-0.648,5.051-1.392,7.738-1.262c1.688,0.082,3.227-0.614,4.696-1.434c18.193-10.158,36.391-20.306,54.578-30.476
		c0.392-0.219,0.654-0.669,0.977-1.011C408.873,0,409.873,0,410.873,0z M775.886,202.185c-0.788,0.17-0.965,0.733-0.965,1.443
		c0.005,9.581,0.005,19.162,0,28.742c0,0.71,0.177,1.274,0.965,1.443c6.257,0,12.513,0,18.731,0c0-10.802,0-21.173,0-31.629
		C788.144,202.185,782.015,202.185,775.886,202.185z"/>
	<path style="fill:#2D2C2B;" d="M399.873,713c1.196-1.838,0.592-3.89,0.593-5.83c0.038-58.802,0.031-117.604,0.031-176.406
		c0-1.809,0-3.618,0-5.34c2.305-0.793,4.273-0.269,6.784-0.459c0,14.134,0,28.019,0,42.388c2.064-1.211,2.077-2.837,2.62-4.083
		c8.645-19.826,22.519-34.066,43.846-39.579c23.762-6.142,45.543-2.182,63.898,14.998c10.459,9.789,16.775,22.147,20.393,35.891
		c6.666,25.323,5.776,50.305-4.232,74.646c-6.963,16.934-18.314,29.952-35.426,37.348c-9.652,4.172-19.834,5.211-30.226,4.713
		c-6.151-0.295-12.217-1.141-18.133-2.95c-18.884-5.771-31.622-18.199-39.382-36.115c-0.755-1.744-0.891-3.855-2.543-5.168
		c-1.206,0.645-0.824,1.742-0.825,2.646c-0.021,20.323-0.013,40.645-0.011,60.967c0,0.833-0.033,1.671,0.613,2.332
		C405.207,713,402.54,713,399.873,713z M535.154,604.007c0.448-9.926-1.496-21.517-5.358-32.765
		c-4.169-12.143-10.437-23.076-20.695-31.09c-16.466-12.863-35.11-15.11-54.716-9.461c-18.223,5.251-30.69,17.617-38.408,34.561
		c-11.325,24.863-11.544,50.573-3.543,76.309c10.862,34.939,44.082,48.619,74.869,41.638c15.916-3.609,27.203-13.551,35.373-27.121
		C531.909,640.743,535.313,623.786,535.154,604.007z"/>
	<path style="fill:#2D2C2B;" d="M1344.874,688c-3.488-0.023-6.977-0.098-10.464-0.049c-2.189,0.031-4.283-0.303-6.387-0.896
		c-7.544-2.128-10.849-6.1-11.043-13.946c-0.164-6.627-0.034-13.262-0.034-20.985c-2.645,4.42-4.076,8.3-6.456,11.645
		c-8.205,11.531-19.226,19.132-32.577,23.484c-17.794,5.801-35.658,5.831-53.288-0.357c-13.937-4.892-23.766-14.204-26.126-29.32
		c-2.336-14.967-1.419-29.546,8.993-41.951c6.977-8.313,16.27-12.382,26.573-14.485c9.957-2.032,20.084-2.553,30.21-3.203
		c12.081-0.776,24.291-0.577,36.116-3.832c1.438-0.396,2.898-0.745,4.286-1.279c7.393-2.842,11.515-8.271,12.151-16.13
		c0.566-6.998,0.119-14.009-1.428-20.845c-3.152-13.937-12.593-22.116-25.839-25.555c-14.742-3.827-29.647-3.459-44.197,1.566
		c-16.355,5.648-25.803,17.399-29.502,34.04c-0.679,3.055-1.032,6.181-1.536,9.273c-1.965,1.156-3.931,0.252-6.118,0.679
		c-0.959-5.929,0.738-11.158,2.268-16.317c5.341-18.013,17.538-29.516,35.161-34.983c16.602-5.151,33.524-5.051,50.027,0.518
		c15.544,5.245,24.239,16.696,27.237,32.701c0.773,4.128,0.915,8.253,0.913,12.419c-0.016,32.821,0.135,65.642-0.1,98.461
		c-0.067,9.339,2.604,13.089,14.244,12.928c2.308-0.032,4.611-0.379,6.916-0.581C1344.874,683.333,1344.874,685.667,1344.874,688z
		 M1316.857,592.958c-5.03,4.374-6.972,5.336-13.036,7.279c-11.387,3.649-23.212,3.936-34.967,4.446
		c-11.464,0.498-22.915,0.936-34.174,3.299c-15.052,3.159-26.172,11.685-29.417,28.532c-0.593,3.08-0.775,6.274-0.812,9.42
		c-0.097,8.266,1.316,16.144,6.479,22.965c4.468,5.903,10.473,9.654,17.261,12.173c13.35,4.954,27.081,5.167,40.728,1.869
		c25.947-6.271,45.206-25.453,47.777-55.045C1317.686,616.499,1316.857,604.944,1316.857,592.958z"/>
	<path style="fill:#272625;" d="M21.642,427.781c-7.593,0-14.388,0-21.478,0c0-75.175,0-150.213,0-225.309
		c0.949-0.898,2.175-0.453,3.275-0.454c34.82-0.027,69.64-0.108,104.459,0.023c12.631,0.047,24.673,2.932,35.933,8.847
		c12.396,6.511,20.834,16.47,25.031,29.705c5.337,16.828,4.226,33.53-3.196,49.524c-7.205,15.526-19.799,24.554-37.269,28.323
		c2.567,0.662,4.321,1.146,6.09,1.565c16.331,3.863,26.162,14.322,30.255,30.294c2.19,8.546,2.927,17.32,3.182,26.157
		c0.355,12.284,0.954,24.558,3.796,36.609c1.193,5.059,2.973,9.814,6.036,14.548c-8.032,0-15.694,0-23.689,0
		c-2.622-3.3-3.445-7.61-3.991-11.784c-1.035-7.903-1.637-15.871-2.164-23.83c-0.648-9.783-1.224-19.582-3.071-29.216
		c-2.041-10.645-6.087-20.343-14.744-27.506c-5.57-4.609-12-7.208-19.183-7.312c-16.654-0.241-33.313-0.24-49.97-0.282
		c-11.328-0.029-22.657,0.034-33.986,0.055c-1.627,0.003-3.254,0-5.318,0C21.642,361.232,21.642,394.295,21.642,427.781z
		 M21.742,308.995c1.958,0,3.59,0,5.223,0c24.49,0,48.981-0.029,73.471,0.022c5.531,0.012,10.99-0.572,16.271-2.075
		c17.368-4.944,29.096-15.617,32.711-33.781c1.368-6.875,1.047-13.962-0.61-20.819c-3.106-12.853-10.192-22.53-22.798-27.624
		c-7.038-2.844-14.359-3.988-21.909-3.985c-26.156,0.011-52.313-0.004-78.469,0.029c-1.259,0.002-2.67-0.498-3.89,0.744
		C21.742,250.369,21.742,279.333,21.742,308.995z"/>
	<path style="fill:#272625;" d="M711.782,202.079c7.13,0.019,14.261,0.038,21.391,0.057c-0.029,12.473-0.073,24.946-0.086,37.419
		c-0.064,62.699-0.12,125.399-0.178,188.098c-6.557,0.075-13.114,0.151-19.672,0.223c-0.693,0.008-1.263-0.25-1.649-0.85
		c0.014-1.357,0.028-2.714,0.042-4.07c0.442-18.348,0.248-36.696,0.026-55.044c0-16.422,0-32.844,0-48.86
		c-0.854-0.999-1.563-0.869-2.203-0.87c-43.107-0.028-86.215-0.046-129.322-0.053c-0.758,0-1.705-0.309-2.007,0.841
		c-0.41,1.682-0.334,3.369-0.065,5.06c-0.232,10.996-0.329,21.993-0.011,32.989c-0.237,14.666-0.324,29.331-0.013,43.997
		c0,8.791,0,17.581,0,26.623c-7.425,0-14.351,0-21.854,0c-0.111-13.165-0.224-26.404-0.336-39.644
		c0.4-15.665,0.314-31.331-0.011-46.996c0.411-5.672,0.3-11.345,0.045-17.018c0.373-9.997,0.272-19.994-0.009-29.992
		c0.353-5.335,0.264-10.67,0.008-16.005c0.331-6.002,0.24-12.004,0.004-18.006c0.001-5.333,0.003-10.667,0.004-16
		c-0.001-5.004-0.002-10.008-0.003-15.011c-0.003-6.674-0.006-13.347-0.01-20.021c0.45-2.203-0.376-4.558,0.789-7.106
		c6.402,0,12.799,0,19.197,0c0.642,0.064,1.283,0.128,1.924,0.192c0.08,8.658,0.159,17.316,0.239,25.974
		c0.005,4.669,0.011,9.337,0.016,14.006c0.001,4.668,0.002,9.336,0.003,14.004c0.001,5,0.003,10.001,0.004,15.001
		c0,9.569,0,19.138,0,28.927c8.102,0,15.732,0.023,23.362-0.005c15.463-0.055,30.925-0.138,46.387-0.209
		c16.025,0.359,32.049,0.311,48.074-0.014c5.231,0.409,10.447,0.262,15.71,0.102c0-11.263,0-21.993,0-32.723
		c0.076-1.813,0.217-3.627,0.218-5.44C711.805,241.796,711.79,221.938,711.782,202.079z"/>
	<path style="fill:#272625;" d="M514.901,369.994c-0.06,17.316-0.108,34.633-0.197,51.949c-0.009,1.797,0.329,3.632-0.381,5.676
		c-5.878,0-11.802,0-18.253,0c0-9.865,0-19.889,0-29.913c-7.214,14.079-18.493,23.136-32.49,29.178
		c-10.417,4.496-21.299,5.836-32.604,5.181c-17.737-1.027-32.779-7.696-45.008-20.563c-9.617-10.119-15.358-22.307-18.562-35.771
		c-5.639-23.694-4.834-47.094,3.398-70.111c1.168-3.266,2.665-6.415,4.01-9.619c0.716-1.095,1.498-2.152,2.139-3.29
		c5.589-9.922,13.87-17.252,22.903-23.863c6.897-2.924,13.664-6.197,21.03-7.866c1.158-0.034,2.337,0.064,3.469-0.124
		c8.574-1.423,17.135-1.39,25.694,0.093c15.11,2.618,27.589,9.68,37.156,21.791c2.764,3.499,4.16,7.761,6.751,11.333
		c0.102,0.472,0.311,0.601,0.596,0.353c0.105-0.092,0.223-0.242,0.225-0.368c0.017-1.327,0.012-2.654,0.011-3.981
		c-0.013-20.738-0.041-41.475-0.033-62.213c0.003-8.623,0.084-17.247,0.129-25.87c6.519,0,13.039,0,19.977,0
		c0,3.428,0,6.199,0,8.971c0,4.671-0.001,9.342-0.001,14.012c0,5.666,0,11.333,0,16.999c-0.231,6.002-0.326,12.004,0.006,18.006
		c-0.256,5.335-0.343,10.67,0.009,16.005c-0.28,9.997-0.382,19.993-0.01,29.99c-0.244,6.007-0.384,12.013,0.044,18.019
		C514.592,339.329,514.493,354.661,514.901,369.994z M487.892,310.986c-3.494-10.4-10.08-18.471-18.809-24.911
		c-10.674-7.876-22.873-9.925-35.755-9.22c-3.588,0.196-7.233,0.271-10.508,2.104c-11.461,3.04-19.909,10.015-26.081,19.964
		c-0.509,0.633-1.102,1.215-1.514,1.906c-6.328,10.59-9.242,22.18-10.598,34.361c-1.743,15.655-0.11,30.891,5.415,45.543
		c7.975,21.146,24.918,35.598,49.148,34.802c21.197-0.696,36.672-10.323,46.5-28.921c5.672-10.733,8.048-22.396,8.241-34.509
		c0.954-0.747,0.594-1.81,0.655-2.766c0.345-5.338-0.235-10.659-0.914-15.908C492.677,325.747,491.529,318.024,487.892,310.986z"/>
	<path style="fill:#272625;" d="M343.535,351.833c-41.476,0-82.765,0-124.216,0c-1.33,4.642-0.015,9.04,0.654,13.343
		c1.726,11.114,5.375,21.544,12.484,30.5c7.567,9.533,16.836,16.723,29.071,18.704c14.603,2.364,28.905,1.464,41.469-7.592
		c8.632-6.222,14.049-14.929,17.83-24.718c0.95-2.461,1.666-5.012,2.603-7.867c6.404,0,12.973,0,19.842,0
		c-1.043,7.273-3.542,13.915-6.547,20.323c-7.577,16.163-19.08,28.273-36.459,33.915c-11.226,3.644-22.799,4.15-34.506,3.6
		c-13.998-0.657-26.684-4.882-37.924-13.276c-10.297-7.69-17.47-17.869-21.772-29.782c-10.373-28.727-10.567-57.598,0.842-86.103
		c7.238-18.082,19.637-31.942,38.229-38.369c23.568-8.147,46.776-7.349,67.927,7.76c12.884,9.203,20.6,22.209,25.586,36.896
		c4.201,12.375,5.49,25.271,5.73,38.284C344.404,348.801,344.255,350.106,343.535,351.833z M218.71,334.347
		c35.493,0,70.228,0,104.933,0c0.999-9.609-4.055-27.093-12.247-37.942c-18.659-24.712-51.638-24.662-70.236-8.514
		C227.149,300.058,221.641,316.15,218.71,334.347z"/>
	<path style="fill:#F5E4DA;" d="M399.857,268.846c-9.034,6.611-17.314,13.942-22.903,23.863c-0.641,1.137-1.422,2.195-2.139,3.29
		c-0.632-0.157-1.314-0.209-1.887-0.486c-11.591-5.595-23.095-11.375-34.766-16.796c-22.174-10.3-43.605-22.129-65.818-32.294
		c-12.342-5.648-23.497-13.363-35.762-18.927c-14.002-6.353-26.758-14.792-40.129-22.193c-3.311-1.833-6.807-3.332-9.969-5.443
		c-0.698-0.466-1.341-0.981-1.53-1.865c-0.307-1.366,0.676-2.091,1.407-2.994c5.278-6.517,10.506-13.076,15.789-19.589
		c1.353-1.668,2.759-3.313,4.654-4.427c9.404,6.459,19.886,11.013,29.729,16.711c8.4,4.862,17.35,8.835,26.24,12.854
		c13.699,6.194,26.878,13.472,40.552,19.767c15.007,6.908,29.584,14.734,44.552,21.762c16.306,7.657,32.381,15.809,48.535,23.787
		C397.777,266.541,399.85,266.544,399.857,268.846z"/>
	<path style="fill:#E7BAA4;" d="M493.958,294.074c-2.591-3.572-3.988-7.835-6.751-11.333c-9.567-12.111-22.046-19.173-37.156-21.791
		c-8.56-1.483-17.12-1.517-25.694-0.093c-1.132,0.188-2.312,0.09-3.469,0.124c0.086-2.315-1.968-2.393-3.335-3.067
		c-10.367-5.111-20.618-10.439-31.151-15.236c-13.975-6.365-27.414-13.861-41.422-20.207c-13.688-6.202-26.88-13.44-40.526-19.776
		c-18.88-8.767-37.407-18.295-56.077-27.512c-6.822-3.368-13.56-6.913-20.455-10.123c-3.85-1.793-7.996-2.967-11.096-6.099
		c0.161-2.826,2.672-4.152,4.199-5.932c4.602-5.368,8.279-11.536,13.741-16.164c0.579,1.429,2.052,1.584,3.192,2.144
		c12.304,6.046,24.449,12.403,36.945,18.074c13.233,6.006,25.983,13.02,39.198,19.11c14.848,6.842,29.205,14.732,44.09,21.538
		c12.768,5.838,25.081,12.606,37.866,18.446c14.72,6.723,28.965,14.462,43.643,21.318c16.765,7.831,33.253,16.254,49.868,24.405
		c1.329,0.652,2.659,1.399,4.246,1.102C493.861,273.358,493.909,283.716,493.958,294.074z"/>
	<path style="fill:#C7372A;" d="M339.885,34.184c-0.036,2.705,2.345,2.972,4.012,3.793c14.973,7.381,29.991,14.669,44.975,22.028
		c20.776,10.204,41.4,20.733,62.348,30.571c13.772,6.467,27.143,13.738,40.984,20.02c13.86,6.29,27.156,13.713,40.996,19.996
		c13.257,6.018,25.961,13.151,39.216,19.116c13.732,6.18,26.859,13.564,40.555,19.767c14.016,6.347,27.444,13.884,41.438,20.223
		c13.715,6.213,26.96,13.341,40.528,19.826c4.313,2.062,8.692,3.985,13.008,6.041c0.968,0.461,1.929,0.389,2.913,0.438
		c-0.008,6.329-0.015,12.659-0.023,18.988c-0.862,0.04-1.576-0.323-2.341-0.692c-11.912-5.74-23.598-11.931-35.657-17.39
		c-13.249-5.999-25.985-13.068-39.239-19.107c-14.136-6.441-27.723-14.048-41.892-20.47c-13.55-6.142-26.566-13.387-40.13-19.546
		c-14.144-6.423-27.725-14.043-41.894-20.467c-13.549-6.143-26.602-13.315-40.121-19.563c-14.702-6.794-28.983-14.493-43.696-21.3
		c-12.151-5.621-23.913-12.033-36.105-17.605c-14.732-6.732-28.933-14.588-43.689-21.314c-9.484-4.323-18.698-9.24-28.005-13.945
		c-1.795-0.907-3.545-1.797-5.62-1.713c1.571-3.256,3.958-4.809,7.769-5.103C326.797,36.267,333.33,35.084,339.885,34.184z"/>
	<path style="fill:#CD563E;" d="M577.785,202.032c-0.642-0.064-1.283-0.128-1.925-0.192c0.148-2.488-2.009-2.862-3.533-3.624
		c-7.237-3.619-14.566-7.049-21.903-10.465c-13.036-6.07-25.682-12.935-38.776-18.926c-14.578-6.67-28.633-14.441-43.243-21.094
		c-13.085-5.958-25.699-12.901-38.778-18.92c-14.713-6.771-28.934-14.586-43.682-21.329c-12.777-5.842-25.122-12.579-37.868-18.522
		c-16.181-7.545-31.929-16.009-48.174-23.44c-1.683-0.77-3.256-1.666-4.017-3.496c2.689-3.928,5.709-7.587,8.98-11.042
		c-0.095,2.309,1.942,2.421,3.317,3.093c13.665,6.679,27.09,13.825,40.96,20.113c13.998,6.345,27.441,13.862,41.447,20.246
		c13.987,6.375,27.426,13.897,41.451,20.238c13.555,6.129,26.593,13.331,40.125,19.553c15.165,6.973,29.843,14.984,45.036,21.946
		c11.717,5.369,23.026,11.585,34.761,16.964c14.725,6.748,28.93,14.591,43.692,21.305c12.938,5.885,25.384,12.79,38.33,18.705
		c14.732,6.731,28.92,14.614,43.689,21.311c8.738,3.962,17.224,8.484,25.79,12.82c2.364,1.197,4.762,2.214,7.368,2.707
		c0,4.928,0,9.856,0,14.591c-1.241,0.357-1.865,0.462-2.523,0.154c-4.024-1.883-8.058-3.743-12.086-5.617
		c-13.308-6.193-26.212-13.197-39.575-19.309c-14.843-6.789-29.187-14.645-44.012-21.516c-10.034-4.65-19.83-9.816-29.724-14.77
		C581.286,202.702,579.737,201.691,577.785,202.032z"/>
	<path style="fill:#CA4732;" d="M710.833,249.983c-2.607-0.494-5.005-1.511-7.368-2.707c-8.566-4.336-17.052-8.858-25.79-12.82
		c-14.77-6.697-28.958-14.58-43.689-21.311c-12.946-5.915-25.392-12.821-38.33-18.705c-14.762-6.714-28.967-14.557-43.692-21.305
		c-11.735-5.378-23.044-11.594-34.761-16.964c-15.193-6.962-29.871-14.973-45.036-21.946c-13.532-6.222-26.57-13.424-40.125-19.553
		c-14.024-6.341-27.464-13.864-41.451-20.238c-14.006-6.384-27.449-13.9-41.447-20.246c-13.87-6.288-27.295-13.434-40.96-20.113
		c-1.375-0.672-3.412-0.784-3.317-3.093c2.313-3.212,4.66-6.394,7.577-9.104c2.074-0.084,3.825,0.806,5.62,1.713
		c9.307,4.705,18.522,9.622,28.005,13.945c14.757,6.726,28.958,14.582,43.689,21.314c12.193,5.572,23.954,11.984,36.105,17.605
		c14.713,6.807,28.995,14.506,43.696,21.3c13.519,6.247,26.572,13.419,40.121,19.563c14.169,6.424,27.75,14.044,41.894,20.467
		c13.564,6.159,26.58,13.404,40.13,19.546c14.169,6.423,27.756,14.029,41.892,20.47c13.254,6.039,25.99,13.109,39.239,19.107
		c12.059,5.46,23.745,11.65,35.657,17.39c0.765,0.369,1.479,0.732,2.341,0.692C710.833,239.989,710.833,244.986,710.833,249.983z"/>
	<path style="fill:#2D2C2B;" d="M0,687.931c0-75.543,0-150.482,0-225.325c1.121-1.04,2.345-0.598,3.446-0.599
		c32.663-0.028,65.325-0.062,97.988,0c11.146,0.021,21.705,2.678,31.593,7.851c21.421,11.206,30.021,32.714,27.243,54.809
		c-2.339,18.606-12.074,32.401-29.055,40.82c-3.72,1.844-7.783,2.702-11.638,3.968c-0.11,1.784,1.152,1.39,2.034,1.562
		c23.441,4.578,39.221,17.864,44.426,41.466c4.762,21.595,0.522,41.355-16.143,57.169c-8.54,8.104-19.094,12.475-30.352,15.258
		c-8.419,2.081-16.981,3.052-25.671,3.039c-29.496-0.045-58.993-0.017-88.489-0.017C3.742,687.931,2.101,687.931,0,687.931z
		 M6.919,573.376c0,36.284,0,71.833,0,107.692c1.094,0,1.898,0,2.701,0c29.821,0,59.642,0.025,89.463-0.017
		c7.683-0.011,15.256-1.194,22.618-3.293c10.224-2.916,19.524-7.651,26.555-15.889c13.405-15.706,15.559-33.825,9.871-52.918
		c-4.781-16.047-16.71-25.496-32.089-30.914c-10.474-3.69-21.401-4.588-32.388-4.628c-27.155-0.099-54.311-0.032-81.466-0.032
		C10.541,573.376,8.897,573.376,6.919,573.376z M6.946,469.174c0,32.418,0,64.782,0,97.45c2.129,0,3.94,0,5.752,0
		c28.14,0,56.28-0.002,84.419,0.001c7.013,0.001,13.954-0.758,20.671-2.742c14.717-4.348,26.22-12.709,32.477-27.177
		c3.87-8.949,4.318-18.271,2.86-27.846c-1.988-13.053-8.233-23.355-19.258-30.6c-10.607-6.97-22.517-9.48-35.033-9.495
		c-29.139-0.035-58.278-0.017-87.416,0.006C9.97,468.773,8.457,468.433,6.946,469.174z"/>
	<path style="fill:#D67B5D;" d="M514.862,210.966c0-2.771,0-5.543,0-8.971c-6.938,0-13.457,0-19.977,0
		c-1.988-1.155-3.914-2.435-5.974-3.443c-9.634-4.713-19.146-9.659-28.93-14.086c-13.682-6.191-26.859-13.439-40.506-19.752
		c-15.278-7.066-30.103-15.099-45.409-22.145c-11.542-5.313-22.708-11.397-34.27-16.707c-14.848-6.819-29.176-14.739-44.068-21.504
		c-6.768-3.074-13.331-6.6-19.978-9.938c-1.633-0.82-3.238-1.685-5.158-1.487c1.005-3.082,3.722-4.895,5.625-7.28
		c2.404-3.012,4.406-6.429,7.556-8.819c0.435,1.711,1.989,2.147,3.302,2.761c3.426,1.604,6.948,3.008,10.35,4.66
		c13.809,6.708,27.354,13.939,41.356,20.274c13.682,6.19,26.804,13.545,40.507,19.743c13.981,6.324,27.379,13.881,41.39,20.199
		c13.087,5.901,25.633,12.932,38.727,18.869c13.976,6.337,27.441,13.754,41.38,20.218c16.622,7.708,32.954,16.045,49.392,24.148
		c1.826,0.9,3.626,1.605,5.695,1.238c0.003,6.674,0.006,13.347,0.01,20.021c-4.423-0.267-8.055-2.773-11.888-4.511
		c-8.13-3.687-16.026-7.889-24.012-11.892C518.36,211.75,516.812,210.724,514.862,210.966z"/>
	<path style="fill:#D1674B;" d="M555.874,208.946c-2.069,0.367-3.869-0.338-5.695-1.238c-16.438-8.103-32.77-16.44-49.392-24.148
		c-13.939-6.464-27.405-13.88-41.38-20.218c-13.095-5.938-25.641-12.968-38.727-18.869c-14.011-6.318-27.408-13.876-41.39-20.199
		c-13.703-6.198-26.825-13.554-40.507-19.743c-14.002-6.335-27.547-13.566-41.356-20.274c-3.402-1.652-6.923-3.056-10.35-4.66
		c-1.313-0.614-2.867-1.05-3.302-2.761c3.683-5.227,7.729-10.156,12.111-14.811c0.761,1.83,2.334,2.726,4.017,3.496
		c16.246,7.431,31.993,15.895,48.174,23.44c12.745,5.943,25.091,12.68,37.868,18.522c14.748,6.743,28.969,14.558,43.682,21.329
		c13.079,6.019,25.693,12.962,38.778,18.92c14.61,6.653,28.666,14.423,43.243,21.094c13.093,5.991,25.74,12.857,38.776,18.926
		c7.338,3.416,14.666,6.846,21.903,10.465c1.524,0.762,3.681,1.135,3.533,3.624c-6.397,0-12.795,0-19.197,0
		C555.498,204.387,556.324,206.743,555.874,208.946z"/>
	<path style="fill:#2D2C2B;" d="M1071.25,687.554c-2.382,0.539-4.187,0.451-6.16,0.19c-1.058-1.635-0.571-3.501-0.572-5.252
		c-0.029-30.832-0.034-61.664-0.011-92.496c0.007-8.994-0.149-17.98-1.61-26.874c-2.168-13.2-7.299-24.776-20.097-30.793
		c-15.721-7.392-37.637-6.434-52.929,8.149c-10.38,9.899-15.984,22.256-18.999,35.992c-1.684,7.67-2.099,15.46-2.085,23.302
		c0.05,27.499,0.019,54.997,0.019,82.496c0,1.651,0,3.302,0,5.077c-2.217,0.994-4.286,0.537-6.606,0.44
		c0-54.191,0-108.125,0-162.237c0.739-0.994,1.999-0.461,3.099-0.547c0.973-0.076,1.956-0.016,3.315-0.016
		c0,12.674,0,25.104,0,38.557c1.524-2.06,1.784-3.517,2.298-4.876c6.9-18.259,19.083-31.367,38.353-35.955
		c18.958-4.513,36.395-1.211,50.016,14.204c4.471,5.06,7.342,11.035,9.454,17.386c0.417,1.253,0.563,2.585,1.743,3.704
		c2.836-9.334,7.802-17.222,15.027-23.636c9.027-8.013,19.703-12.153,31.633-13.104c9.036-0.72,18.022,0.004,26.553,3.112
		c16.409,5.978,25.013,18.442,28.116,35.174c1.461,7.875,2.037,15.817,2.023,23.832c-0.058,32.832-0.024,65.664-0.024,98.495
		c0,1.811,0,3.621,0,5.598c-2.322,0.734-4.37,0.473-6.467,0.294c-0.698-2.064-0.375-3.901-0.378-5.691
		c-0.052-35.164-0.027-70.329-0.139-105.493c-0.023-7.328-0.935-14.639-3.067-21.656c-3.966-13.054-12.421-21.696-25.877-25.077
		c-9.352-2.35-18.804-2.855-28.141-0.413c-16.468,4.307-27.384,15.026-33.812,30.55c-3.419,8.257-4.645,16.953-4.656,25.819
		c-0.043,32.165-0.017,64.33-0.016,96.495C1071.25,683.957,1071.25,685.61,1071.25,687.554z"/>
	<path style="fill:#F5E4DA;" d="M711.63,422.955c-0.014,1.357-0.028,2.714-0.042,4.07c-26.95,0-53.899,0-81.036,0
		c-1.81-2.573-4.863-3.102-7.48-4.414c-6.796-3.409-13.541-6.925-20.399-10.204c-8.162-3.903-16.421-7.604-24.638-11.392
		c-0.312-14.666-0.224-29.331,0.013-43.997c3.96,0.086,7.113,2.49,10.492,3.998c13.976,6.237,27.825,12.766,41.698,19.229
		c14.5,6.755,28.619,14.317,43.148,21.047c10.936,5.066,21.592,10.737,32.371,16.141c1.617,0.811,3.149,1.886,5.111,1.561
		C711.176,420.304,710.23,421.855,711.63,422.955z"/>
	<path style="fill:#272625;" d="M833.773,202.083c6.468,0,12.935,0,19.959,0c0.07,28.768,0.14,57.324,0.21,85.88
		c-0.005,5.663-0.01,11.326-0.015,16.989c-0.008,5.331-0.017,10.663-0.025,15.994c-0.004,5.001-0.008,10.002-0.013,15.003
		c-0.008,8.66-0.016,17.32-0.024,25.981c-0.001,5.012-0.003,10.023-0.004,15.035c0,4.338,0.001,8.676,0.001,13.014
		c0.002,5.001,0.005,10.001,0.007,15.002c-0.247,7.33-0.338,14.66,0.001,21.99c-0.357,0.645-0.938,0.888-1.638,0.889
		c-5.648,0.01-11.296,0.015-16.944,0.023c-0.701,0.001-1.285-0.213-1.651-0.855c0.323-9.365,0.287-18.729-0.018-28.094
		c0.349-7.619,0.302-15.238-0.004-22.857c0.354-15.662,0.276-31.324-0.033-46.986c0.076-1.986,0.217-3.971,0.217-5.957
		C833.801,282.782,833.785,242.433,833.773,202.083z"/>
	<path style="fill:#272625;" d="M891.807,303.964c0.042-13.308,0.107-26.616,0.122-39.924c0.021-18.801,0.005-37.602,0.005-56.403
		c0-1.645,0-3.29,0-5.605c6.81,0,13.392,0,19.974,0c0.016,37.676,0.029,75.351,0.06,113.027c0.002,1.983,0.155,3.966,0.238,5.95
		c-0.086,9.759-0.234,19.518-0.241,29.278c-0.008,12.244,0.101,24.488,0.16,36.733c-0.282,13.336-0.355,26.673-0.018,40.01
		c-0.36,0.648-0.945,0.856-1.645,0.855c-5.644-0.008-11.289-0.013-16.933-0.022c-0.697-0.001-1.284-0.238-1.674-0.852
		c0.007-1.676,0.014-3.353,0.021-5.029c0.003-5,0.006-10.001,0.009-15.001c0.001-4.338,0.001-8.676,0.002-13.014
		c-0.002-5.011-0.004-10.022-0.005-15.033c-0.007-8.661-0.015-17.322-0.022-25.983c-0.004-5.001-0.008-10.002-0.013-15.003
		c-0.008-5.332-0.017-10.663-0.025-15.995C891.816,315.956,891.811,309.96,891.807,303.964z"/>
	<path style="fill:#2D2C2B;" d="M864.419,681.357c0.271,2.286,0.344,4.211-0.077,6.382c-5.001,0.206-9.814,0.726-14.54-0.296
		c-9.143-1.978-12.581-6.344-12.675-15.715c-0.05-4.999,0.003-10-0.018-14.999c-0.005-1.152,0.205-2.339-0.362-3.447
		c-0.254,0.177-0.633,0.296-0.737,0.535c-8.949,20.565-25.678,31.326-46.685,35.879c-14.99,3.249-30.128,2.589-44.693-2.804
		c-14.268-5.284-24.008-14.908-26.156-30.487c-1.655-12.003-1.274-23.973,5.044-34.887c7.01-12.11,18.19-17.908,31.491-20.527
		c11.802-2.324,23.776-2.562,35.708-3.402c8.784-0.618,17.626-0.681,26.293-2.559c3.74-0.81,7.372-1.856,10.794-3.645
		c5.312-2.777,8.302-7.271,8.96-13.009c0.914-7.973,0.473-15.98-1.509-23.788c-3.319-13.072-12.393-20.693-24.845-24.08
		c-15.608-4.245-31.386-3.848-46.573,1.929c-15.711,5.976-24.696,17.963-27.926,34.307c-0.545,2.757-1.434,5.488-1.104,8.11
		c-1.202,1.214-2.431,0.885-3.557,0.875c-0.959-0.008-2.007,0.332-3.156-0.657c-0.391-4.974,0.945-9.938,2.358-14.816
		c5.269-18.194,17.246-29.985,35.181-35.583c16.477-5.143,33.148-5.071,49.561,0.173c15.451,4.937,24.311,16.023,27.701,31.74
		c0.816,3.784,0.998,7.572,0.997,11.406c-0.008,33.499,0.105,66.998-0.067,100.495c-0.057,11.177,4.709,13.146,14.198,13.073
		C859.988,681.545,861.95,681.013,864.419,681.357z M836.842,593.345c-6.469,5.039-7.986,5.67-16.615,7.934
		c-10.219,2.682-20.704,2.969-31.139,3.403c-11.641,0.483-23.281,0.877-34.69,3.373c-13.8,3.019-23.839,10.561-28.056,24.612
		c-1.548,5.159-1.803,10.475-1.692,15.803c0.312,14.991,7.415,25.602,21.127,31.506c15.467,6.66,31.533,6.794,47.303,1.86
		c25.211-7.888,40.291-25.36,43.512-51.613C838.061,618.255,836.842,605.958,836.842,593.345z"/>
	<path style="fill:#E4AF96;" d="M493.812,263c-1.587,0.297-2.917-0.45-4.246-1.102c-16.615-8.151-33.103-16.574-49.868-24.405
		c-14.679-6.857-28.923-14.595-43.643-21.318c-12.786-5.84-25.098-12.608-37.866-18.446c-14.885-6.806-29.241-14.696-44.09-21.538
		c-13.215-6.09-25.965-13.104-39.198-19.11c-12.496-5.671-24.641-12.028-36.945-18.074c-1.139-0.56-2.613-0.715-3.192-2.144
		c2.367-4.139,5.492-7.66,8.916-10.938c5.816,2.744,11.611,5.535,17.434,8.261c14.512,6.793,28.614,14.432,43.215,21.078
		c13.077,5.951,25.674,12.907,38.749,18.912c14.709,6.755,28.909,14.585,43.655,21.307c12.925,5.892,25.375,12.764,38.308,18.683
		c14.717,6.735,28.878,14.651,43.662,21.293c6.785,3.048,13.341,6.606,19.997,9.939c1.619,0.811,3.145,1.901,5.11,1.605
		C493.811,252.335,493.811,257.667,493.812,263z"/>
	<path style="fill:#E1A287;" d="M493.81,247.002c-1.965,0.296-3.491-0.794-5.11-1.605c-6.656-3.333-13.212-6.891-19.997-9.939
		c-14.784-6.641-28.945-14.557-43.662-21.293c-12.933-5.919-25.384-12.791-38.308-18.683c-14.746-6.722-28.946-14.552-43.655-21.307
		c-13.075-6.005-25.672-12.96-38.749-18.912c-14.602-6.645-28.703-14.285-43.215-21.078c-5.824-2.726-11.618-5.517-17.434-8.261
		c0.974-3.489,4.42-5.117,6.108-8.127c0.999-1.781,2.732-3.15,4.136-4.704c0.609,1.866,2.445,2.163,3.872,2.85
		c9.974,4.799,19.752,9.982,29.859,14.532c13.71,6.172,26.855,13.528,40.563,19.762c14.137,6.429,27.72,14.034,41.882,20.462
		c13.543,6.148,26.587,13.326,40.112,19.553c15.008,6.91,29.561,14.793,44.554,21.777c10.497,4.89,20.747,10.31,31.121,15.466
		c2.503,1.244,5,2.565,7.924,2.506C493.81,235.668,493.81,241.335,493.81,247.002z"/>
	<path style="fill:#C7372A;" d="M912.923,316.991c2.054-0.215,3.868,0.425,5.699,1.33c19.72,9.744,39.339,19.707,59.246,29.057
		c13.926,6.541,27.437,13.919,41.436,20.263c13.719,6.217,26.865,13.576,40.568,19.776c14.174,6.414,27.747,14.041,41.903,20.439
		c10.707,4.839,21.035,10.407,31.649,15.409c1.56,0.735,3.639,1.209,3.453,3.682c-12.333,0.372-24.666,0.296-36.999-0.002
		c0.183-2.468-1.892-2.943-3.451-3.676c-7.913-3.722-15.679-7.737-23.622-11.413c-14.835-6.865-29.204-14.709-44.091-21.502
		c-12.768-5.826-25.065-12.621-37.845-18.464c-14.865-6.796-29.218-14.679-44.081-21.521c-10.059-4.63-19.849-9.844-29.772-14.77
		c-1.314-0.652-2.506-1.662-4.103-1.608c-0.036-4.322-0.073-8.645-0.109-12.967C912.843,319.68,912.883,318.336,912.923,316.991z"/>
	<path style="fill:#EFD1C1;" d="M216.824,158.959c3.1,3.132,7.246,4.306,11.096,6.099c6.895,3.21,13.633,6.755,20.455,10.123
		c18.67,9.218,37.197,18.746,56.077,27.512c13.646,6.336,26.838,13.574,40.526,19.776c14.008,6.347,27.446,13.842,41.422,20.207
		c10.534,4.797,20.784,10.125,31.151,15.236c1.368,0.674,3.422,0.752,3.335,3.067c-7.366,1.669-14.133,4.942-21.03,7.866
		c-0.007-2.302-2.08-2.305-3.445-2.979c-16.155-7.978-32.229-16.13-48.535-23.787c-14.968-7.028-29.545-14.854-44.552-21.762
		c-13.674-6.295-26.853-13.574-40.552-19.767c-8.89-4.019-17.84-7.991-26.24-12.854c-9.843-5.698-20.325-10.253-29.729-16.711
		C209.635,166.553,212.502,162.15,216.824,158.959z"/>
	<path style="fill:#DD9477;" d="M493.81,230.001c-2.924,0.059-5.421-1.262-7.924-2.506c-10.374-5.156-20.624-10.577-31.121-15.466
		c-14.993-6.984-29.546-14.867-44.554-21.777c-13.525-6.227-26.57-13.405-40.112-19.553c-14.161-6.429-27.744-14.034-41.882-20.462
		c-13.708-6.233-26.853-13.589-40.563-19.762c-10.107-4.55-19.885-9.733-29.859-14.532c-1.427-0.687-3.263-0.984-3.872-2.85
		c2.99-3.686,5.979-7.373,8.969-11.059c0.734,2.005,2.733,2.256,4.308,3.057c14.884,7.569,29.827,15.011,44.974,22.052
		c11.686,5.433,23.023,11.582,34.746,16.977c14.862,6.84,29.23,14.721,44.123,21.533c12.624,5.774,24.846,12.381,37.408,18.311
		c21.935,10.355,43.606,21.27,65.36,31.937C493.81,220.673,493.81,225.337,493.81,230.001z"/>
	<path style="fill:#2D2C2B;" d="M576.888,687.765c-2.489,0-4.427,0-6.655,0c0-75.209,0-150.252,0-225.538c2.132,0,4.194,0,6.555,0
		c0,33.766,0,67.373,0,101.108c1.716-0.687,1.304-2.163,1.67-3.169c8.093-22.238,23.856-34.875,47.239-38.278
		c12.116-1.763,23.877-0.663,35.234,3.849c18.519,7.358,28.396,21.573,31.934,40.745c0.943,5.109,1.024,10.25,1.024,15.409
		c-0.003,33.491-0.001,66.982-0.001,100.473c0,1.648,0,3.297,0,5.122c-2.248,0.748-4.319,0.429-6.426,0.309
		c-0.933-1.919-0.494-3.774-0.496-5.548c-0.032-34.658-0.033-69.315-0.017-103.973c0.004-8.077-1.493-15.805-4.788-23.216
		c-4.678-10.522-12.144-18.334-22.843-22.502c-18.339-7.144-36.471-6.708-53.609,3.6c-13.837,8.322-21.613,21.287-25.773,36.541
		c-2.103,7.709-3.082,15.615-3.067,23.648c0.052,28.659,0.02,57.318,0.02,85.977C576.889,683.977,576.888,685.629,576.888,687.765z"
		/>
	<path style="fill:#D7876A;" d="M493.81,230.001c0-4.664,0-9.328,0-14.099c-21.754-10.667-43.425-21.582-65.36-31.937
		c-12.562-5.93-24.784-12.538-37.408-18.311c-14.893-6.811-29.261-14.693-44.123-21.533c-11.723-5.395-23.059-11.544-34.746-16.977
		c-15.147-7.042-30.09-14.483-44.974-22.052c-1.575-0.801-3.575-1.052-4.308-3.057c2.467-3.119,4.629-6.495,7.702-9.101
		c1.92-0.199,3.525,0.667,5.158,1.487c6.647,3.338,13.21,6.863,19.978,9.938c14.892,6.765,29.22,14.685,44.068,21.504
		c11.562,5.31,22.728,11.394,34.27,16.707c15.306,7.046,30.131,15.079,45.409,22.145c13.647,6.312,26.824,13.56,40.506,19.752
		c9.784,4.427,19.296,9.373,28.93,14.086c2.06,1.008,3.986,2.288,5.974,3.443c-0.045,8.623-0.125,17.247-0.129,25.87
		c-0.008,20.738,0.02,41.475,0.033,62.213c0.001,1.327,0.005,2.654-0.011,3.981c-0.002,0.125-0.119,0.276-0.225,0.368
		c-0.285,0.248-0.495,0.119-0.596-0.353c-0.048-10.358-0.097-20.716-0.145-31.075c-0.001-5.332-0.002-10.665-0.003-15.997
		C493.81,241.335,493.81,235.668,493.81,230.001z"/>
	<path style="fill:#2D2C2B;" d="M227.796,609.842c0.089-20.931,3.425-37.574,12.196-52.734
		c10.282-17.772,25.011-29.935,45.501-34.288c35.875-7.623,67.364,9.946,81.272,42.869c6.973,16.506,9.16,33.813,7.332,51.708
		c-1.508,14.762-5.337,28.701-13.307,41.282c-11.487,18.131-27.735,29.477-49.173,32.111c-40.541,4.981-67.352-18.159-78.084-49.271
		C229.603,630.123,227.636,618.38,227.796,609.842z M367.947,607.278c-0.258-14.471-2.498-27.677-8.125-40.126
		c-13.654-30.208-43.094-45.72-76.307-36.781c-19.291,5.192-32.7,18.288-40.587,36.379c-11.223,25.742-11.55,52.149-0.731,77.99
		c9.525,22.75,26.555,37.064,51.83,39.696c24.547,2.556,44.402-6.15,58.846-26.22C363.962,642.808,367.457,625.006,367.947,607.278z
		"/>
	<path style="fill:#272625;" d="M795.105,427.027c-0.368,0.639-0.952,0.852-1.652,0.851c-5.642-0.008-11.283-0.013-16.925-0.022
		c-0.699-0.001-1.281-0.24-1.634-0.888c0.152-0.366,0.305-0.733,0.457-1.099c1.122-1.501,0.497-3.22,0.498-4.816
		c0.04-50.055,0.024-100.111,0.062-150.166c0.001-1.906-0.617-3.963,0.755-5.851c6.003,0,11.984,0,17.966,0l0.341-0.066
		c-0.004,2.81-0.023,5.621-0.009,8.431c0.061,12.226,0.133,24.452,0.2,36.678c-0.308,15.995-0.383,31.991-0.034,47.986
		c-0.294,7.309-0.364,14.618,0,21.927c-0.314,12.331-0.347,24.663-0.033,36.995C794.833,420.334,794.784,423.681,795.105,427.027z"
		/>
	<path style="fill:#CD563E;" d="M1070.879,426.948c-14.666,0.363-29.331,0.245-43.996-0.025c-0.037-0.856-0.415-1.381-1.101-2.013
		c-2.66-2.453-6.174-3.077-9.262-4.569c-13.234-6.39-26.319-13.078-39.557-19.465c-21.242-10.249-42.386-20.711-64.05-31.129
		c0-6.846,0-13.805,0-20.765c1.369-0.116,2.557,0.328,3.79,0.931c7.418,3.629,14.789,7.342,22.317,10.759
		c13.546,6.148,26.579,13.356,40.132,19.538c14.283,6.515,28.034,14.169,42.324,20.717c8.272,3.791,16.307,8.097,24.491,12.084
		c7.126,3.472,14.328,6.786,21.457,10.252C1068.978,424.021,1071.059,424.48,1070.879,426.948z"/>
	<path style="fill:#CA4732;" d="M1070.879,426.948c0.18-2.468-1.901-2.927-3.456-3.683c-7.128-3.466-14.331-6.78-21.457-10.252
		c-8.184-3.987-16.219-8.293-24.491-12.084c-14.29-6.549-28.04-14.203-42.324-20.717c-13.553-6.182-26.586-13.389-40.132-19.538
		c-7.528-3.417-14.899-7.13-22.317-10.759c-1.233-0.603-2.421-1.047-3.79-0.931c0-4.997-0.001-9.994-0.001-14.992
		c1.597-0.053,2.789,0.956,4.103,1.608c9.923,4.926,19.713,10.14,29.772,14.77c14.864,6.841,29.216,14.724,44.081,21.521
		c12.78,5.843,25.076,12.638,37.845,18.464c14.886,6.793,29.255,14.637,44.091,21.502c7.943,3.676,15.709,7.69,23.622,11.413
		c1.559,0.733,3.634,1.209,3.451,3.676C1090.212,427.33,1080.545,427.215,1070.879,426.948z"/>
	<path style="fill:#D1674B;" d="M912.912,333.992c0,4.997,0.001,9.994,0.001,14.992c0,6.959,0,13.919,0,20.765
		c21.663,10.418,42.808,20.88,64.05,31.129c13.237,6.387,26.323,13.075,39.557,19.465c3.089,1.491,6.602,2.115,9.262,4.569
		c0.686,0.632,1.064,1.157,1.101,2.013c-14.331,0.377-28.663,0.217-42.994-0.008c0.142-2.151-1.527-2.73-3.018-3.415
		c-3.573-1.641-7.244-3.086-10.734-4.884c-17.978-9.264-36.325-17.769-54.471-26.686c-0.885-0.435-1.685-1.074-2.757-0.947
		c-0.301-1.314,0.636-2.872-0.785-3.964c-0.059-12.244-0.168-24.488-0.16-36.733c0.006-9.759,0.155-19.519,0.241-29.278
		c0.199,0,0.399,0.005,0.598,0.017C912.839,325.347,912.876,329.67,912.912,333.992z"/>
	<path style="fill:#F5E4DA;" d="M514.901,369.994c-0.408-15.332-0.309-30.665,0.008-45.997c3.517,0.215,6.547,1.946,9.611,3.365
		c8.763,4.059,17.421,8.344,26.096,12.59c1.676,0.82,3.37,1.236,5.218,1.046c0.325,15.665,0.411,31.331,0.011,46.996
		c-1.961,0.308-3.49-0.771-5.107-1.58c-9.305-4.654-18.604-9.319-27.925-13.941C520.318,371.236,517.813,369.943,514.901,369.994z"
		/>
	<path style="fill:#2D2C2B;" d="M886.888,687.82c-2.45,0-4.256,0-6.416,0c0-54.143,0-108.177,0-162.562
		c1.803-0.508,3.774-0.197,6.202-0.254c0,12.933,0,25.832,0,38.732c4.57-13.229,11.393-24.478,23.341-32.129
		c12.473-7.987,26.225-10.796,40.765-10.534c0.856,2.941,0.856,2.941,0.394,6.585c-1.664,0.546-3.5,0.275-5.276,0.254
		c-25.365-0.306-45.817,15.208-54.021,38.772c-3.415,9.811-4.957,19.966-4.974,30.33c-0.047,28.483-0.016,56.966-0.016,85.449
		C886.889,684.103,886.888,685.742,886.888,687.82z"/>
	<path style="fill:#E7BAA4;" d="M775.351,425.869c-0.152,0.366-0.305,0.733-0.457,1.099c-2.667-0.001-5.334-0.002-8.001-0.003
		c0.056-1.295-0.461-2.317-1.668-2.781c-9.393-3.614-18.031-8.781-27.079-13.104c-1.334-0.637-2.655-1.374-4.232-1.084
		c0.005-9.333,0.011-18.665,0.016-27.998c2.05-0.227,3.867,0.395,5.683,1.32c6.618,3.372,13.188,6.862,19.956,9.911
		c5.077,2.287,9.942,5.076,15.286,6.762c0.061,1.824,0.134,3.647,0.181,5.471C775.212,412.263,774.734,419.075,775.351,425.869z"/>
	<path style="fill:#2D2C2B;" d="M201.644,687.691c-2.153,0.367-3.953,0.313-5.743,0.072c-1.128-4.007-1.63-142.453-0.585-162.26
		c1.93-1.06,4.04-0.204,6.327-0.65C201.644,579.3,201.644,633.317,201.644,687.691z"/>
	<path style="fill:#D67B5D;" d="M912.909,390.983c1.072-0.128,1.872,0.512,2.757,0.947c18.146,8.918,36.493,17.423,54.471,26.686
		c3.49,1.798,7.162,3.243,10.734,4.884c1.491,0.685,3.16,1.264,3.018,3.415c-10.002,0.371-20.005,0.219-30.008,0.032
		c0.087-1.824-1.147-2.466-2.556-3.207c-12.503-6.577-25.449-12.23-38.416-18.539C912.909,400.555,912.909,395.769,912.909,390.983z
		"/>
	<path style="fill:#D7876A;" d="M733.93,381.998c-0.005,9.333-0.011,18.665-0.016,27.998c0.002,5.668,0.004,11.335,0.006,17.003
		c-0.208,0.418-0.39,0.877-1.012,0.654c0.059-62.699,0.115-125.399,0.178-188.098c0.013-12.473,0.056-24.946,0.086-37.419
		c1.198,1.265,0.545,2.819,0.566,4.222c0.115,7.551,0.122,15.104,0.166,22.656c0.006,6.331,0.012,12.663,0.017,18.994
		c0.003,5.332,0.005,10.663,0.008,15.995c0.003,5.666,0.005,11.332,0.008,16.998c-0.001,6.002-0.002,12.003-0.003,18.005
		c0,5.455,0,10.91,0,16.524c5.146,1.34,9.595,3.803,14.13,6.081c7.222,3.629,14.465,7.218,21.698,10.824
		c1.614,0.805,3.139,1.903,5.105,1.537c-0.001,5.003-0.002,10.007-0.003,15.01c-2.603-0.467-4.991-1.48-7.347-2.672
		c-9.27-4.689-18.568-9.321-27.881-13.925c-1.689-0.835-3.388-2.228-5.7-0.652c0,5.029,0,10.149,0,15.269c0,6-0.001,12-0.001,18
		C733.934,370.669,733.932,376.334,733.93,381.998z"/>
	<path style="fill:#E1A287;" d="M795.097,416.987c-0.314-12.332-0.281-24.663,0.033-36.995c1.679-0.118,3.225,0.163,4.763,0.977
		c8.729,4.624,18.001,8.127,26.667,12.895c1.849,1.017,3.725,2.095,5.768,2.437c0.84,0.764,0.152,2.13,1.291,2.63
		c0.305,9.364,0.341,18.729,0.018,28.094l-0.385,0.04l-0.376-0.091c0-4.786,0-9.573,0-14.075c-2.874-2.49-6.257-2.952-9.16-4.453
		c-7.315-3.781-14.701-7.425-22.088-11.066c-1.687-0.832-3.385-2.231-5.739-0.611c0,3.991,0,8.11,0,12.23
		c-0.016,2.662-0.032,5.324-0.048,7.986C795.593,416.993,795.345,416.994,795.097,416.987z"/>
	<path style="fill:#D7876A;" d="M912.909,390.983c0,4.786,0,9.573,0,14.219c12.967,6.309,25.913,11.962,38.416,18.539
		c1.408,0.741,2.643,1.384,2.556,3.207c-13.925,0.027-27.85,0.054-41.774,0.081c-0.337-13.337-0.264-26.673,0.018-40.01
		C913.545,388.11,912.608,389.669,912.909,390.983z"/>
	<path style="fill:#E1A287;" d="M891.875,421.98c-0.007,1.676-0.014,3.353-0.021,5.029c-12.661-0.013-25.322-0.027-37.983-0.04
		c-0.34-7.33-0.248-14.66-0.001-21.99c1.942-0.268,3.478,0.766,5.09,1.572c7.939,3.97,15.882,7.932,23.825,11.895
		C885.705,419.904,888.747,421.053,891.875,421.98z"/>
	<path style="fill:#E4AF96;" d="M795.889,409c0-4.12,0-8.24,0-12.23c2.355-1.62,4.052-0.221,5.739,0.611
		c7.386,3.641,14.773,7.285,22.088,11.066c2.903,1.5,6.287,1.962,9.16,4.453c0,4.502,0,9.289,0,14.075c-1,0.003-2,0.005-3,0.008
		c0.169-2.13-1.46-2.706-2.94-3.448c-5.568-2.79-11.069-5.719-16.701-8.372C805.53,412.946,800.677,411.042,795.889,409z"/>
	<path style="fill:#E7BAA4;" d="M795.889,409c4.788,2.042,9.641,3.946,14.347,6.163c5.632,2.653,11.134,5.581,16.701,8.372
		c1.48,0.742,3.109,1.318,2.94,3.448c-11.335,0.003-22.67,0.007-34.004,0.01c-0.011-3.336-0.021-6.671-0.032-10.007
		C795.857,414.324,795.873,411.662,795.889,409z"/>
	<path style="fill:#EFD1C1;" d="M733.921,427c-0.002-5.668-0.004-11.335-0.006-17.003c1.577-0.289,2.897,0.447,4.232,1.084
		c9.048,4.323,17.686,9.49,27.079,13.104c1.207,0.464,1.724,1.486,1.668,2.781C755.903,426.977,744.912,426.988,733.921,427z"/>
	<path style="fill:#2D2C2B;" d="M201.614,493.882c-2.199,0.133-4.134,0.344-6.269-0.21c0-10.471,0-20.858,0-31.337
		c2.121-0.569,4.058-0.341,6.269-0.222C201.614,472.609,201.614,483.004,201.614,493.882z"/>
	<path style="fill:#E4AF96;" d="M795.841,416.986c0.011,3.336,0.021,6.671,0.032,10.007l-0.382,0.072l-0.386-0.038
		c-0.321-3.346-0.272-6.693-0.008-10.04C795.345,416.994,795.593,416.993,795.841,416.986z"/>
	<path style="fill:#D1674B;" d="M710.833,249.983c0-4.997,0.001-9.994,0.001-14.991c0.008-6.329,0.015-12.659,0.023-18.988
		c0.02-3.781,0.029-7.562,0.069-11.343c0.01-0.937-0.316-2.017,0.857-2.581c0.009,19.858,0.024,39.717,0.016,59.575
		c-0.001,1.813-0.142,3.627-0.218,5.44c-1.157,0.868-0.649,2.116-0.658,3.197c-0.061,6.898-0.061,13.796-0.082,20.694
		c-1.374,0.155-2.554-0.31-3.791-0.904c-7.296-3.5-14.508-7.161-21.877-10.526c-13.832-6.316-27.222-13.556-41.002-20.019
		c-20.661-9.691-40.998-20.07-61.477-30.148c-1.471-0.724-2.879-1.712-4.669-1.383c-0.08-8.658-0.159-17.316-0.239-25.974
		c1.952-0.341,3.501,0.671,5.128,1.485c9.894,4.953,19.689,10.119,29.724,14.77c14.825,6.871,29.17,14.727,44.012,21.516
		c13.363,6.112,26.266,13.116,39.575,19.309c4.028,1.874,8.062,3.734,12.086,5.617c0.658,0.308,1.282,0.203,2.523-0.154
		C710.833,259.839,710.833,254.911,710.833,249.983z"/>
	<path style="fill:#C7372A;" d="M733.922,248.008c-0.006-6.331-0.012-12.663-0.017-18.994c3.128,0.965,6.185,2.108,9.116,3.575
		c10.917,5.463,21.695,11.229,32.789,16.306c14.396,6.587,28.315,14.123,42.646,20.808c4.729,2.206,9.312,4.868,14.399,6.3
		c-0.007,6.329-0.015,12.658-0.022,18.987c-1.594,0.088-2.773-0.932-4.075-1.577c-9.265-4.593-18.513-9.221-27.764-13.842
		c-1.608-0.803-3.131-1.867-5.077-1.581c-0.018-2.807,0.068-5.62-0.096-8.418c-0.09-1.542,0.815-3.332-0.848-4.601
		c0,0-0.341,0.066-0.341,0.066c-0.181-0.25-0.359-0.716-0.542-0.718c-5.955-0.073-11.911-0.123-17.867-0.118
		c-1.035,0.001-1.213,0.947-1.415,1.754c-1.974,0.389-3.484-0.749-5.094-1.552c-8.561-4.267-17.088-8.606-25.7-12.769
		C740.801,250.08,737.6,248.339,733.922,248.008z"/>
	<path style="fill:#D1674B;" d="M832.833,294.99c0.007-6.329,0.015-12.658,0.022-18.987c0.023-23.101,0.026-46.202,0.112-69.303
		c0.006-1.529-0.889-3.338,0.806-4.617c0.013,40.35,0.028,80.699,0.028,121.049c0,1.986-0.142,3.971-0.217,5.957
		c-1.161,0.863-0.655,2.11-0.666,3.19c-0.062,6.234-0.059,12.469-0.078,18.704c-0.632-0.15-1.317-0.191-1.889-0.466
		c-9.654-4.63-19.313-9.251-28.922-13.972c-1.969-0.967-3.87-1.846-6.116-1.567c-0.021-7.068-0.011-14.137-0.093-21.205
		c-0.014-1.235,0.596-2.653-0.655-3.695c-0.068-12.226-0.139-24.452-0.2-36.678c-0.014-2.81,0.005-5.621,0.009-8.431
		c1.662,1.269,0.757,3.059,0.848,4.601c0.164,2.798,0.078,5.611,0.096,8.418c0.001,5.33,0.002,10.659,0.003,15.989
		c0,4.459,0,8.918,0,13.47c3.005,1.345,5.873,2.52,8.646,3.89c7.537,3.724,15.021,7.556,22.556,11.285
		c1.684,0.833,3.385,2.243,5.709,0.611c0-4.34,0-8.796,0-13.252C832.832,304.984,832.832,299.987,832.833,294.99z"/>
	<path style="fill:#C7372A;" d="M891.807,303.964c0.005,5.996,0.009,11.992,0.014,17.988c-1.58,0.375-2.889-0.398-4.209-1.037
		c-10.017-4.856-20.017-9.746-30.045-14.577c-1.16-0.559-2.225-1.458-3.639-1.386c0.005-5.663,0.01-11.326,0.015-16.989
		c2.236-0.219,4.15,0.61,6.107,1.608c8.669,4.419,17.402,8.713,26.083,13.108C887.944,303.595,889.749,304.264,891.807,303.964z"/>
	<path style="fill:#272625;" d="M775.886,202.185c6.129,0,12.258,0,18.732,0c0,10.456,0,20.827,0,31.629c-6.218,0-12.475,0-18.731,0
		C775.886,223.271,775.886,212.728,775.886,202.185z"/>
	<path style="fill:#CD563E;" d="M912.803,321.025c-0.199-0.011-0.398-0.017-0.598-0.017c-0.083-1.983-0.237-3.966-0.238-5.95
		c-0.031-37.676-0.043-75.351-0.06-113.027c1.854,1.399,0.898,3.391,0.902,5.064c0.072,34.634,0.058,69.268,0.066,103.902
		c0,1.998,0.032,3.996,0.049,5.994C912.883,318.336,912.843,319.68,912.803,321.025z"/>
	<path style="fill:#2D2C2B;" d="M775.886,202.185c0,10.543,0,21.086,0,31.629c-0.788-0.169-0.965-0.733-0.965-1.443
		c0.004-9.581,0.004-19.162,0-28.742C774.921,202.918,775.098,202.355,775.886,202.185z"/>
	<path style="fill:#EFD1C1;" d="M710.868,418.993c-1.962,0.325-3.495-0.75-5.111-1.561c-10.779-5.404-21.435-11.075-32.371-16.141
		c-14.529-6.73-28.647-14.292-43.148-21.047c-13.873-6.463-27.722-12.992-41.698-19.229c-3.379-1.508-6.532-3.912-10.492-3.998
		c-0.318-10.996-0.22-21.993,0.011-32.989c4.218,1.794,8.502,3.45,12.642,5.409c12.809,6.064,25.282,12.8,38.196,18.679
		c14.094,6.417,27.679,13.915,41.781,20.362c10.167,4.648,20.009,10.001,30.064,14.9c3.212,1.565,6.422,3.298,10.1,3.644
		C710.851,397.68,710.859,408.337,710.868,418.993z"/>
	<path style="fill:#E7BAA4;" d="M710.842,387.023c-3.678-0.346-6.888-2.079-10.1-3.644c-10.055-4.899-19.898-10.252-30.064-14.9
		c-14.102-6.447-27.686-13.945-41.781-20.362c-12.914-5.879-25.387-12.615-38.196-18.679c-4.14-1.96-8.424-3.615-12.642-5.409
		c-0.269-1.69-0.345-3.378,0.065-5.06c9.58,0.036,19.161,0.072,28.741,0.107c0,2.268,2.031,2.312,3.389,3.029
		c19.862,10.489,40.348,19.713,60.416,29.787c6.92,3.474,13.8,7.029,20.931,10.107c6.628,2.86,12.966,6.394,19.241,9.536
		C710.842,377.043,710.842,382.033,710.842,387.023z"/>
	<path style="fill:#D67B5D;" d="M578.023,228.006c1.79-0.329,3.198,0.659,4.669,1.383c20.479,10.078,40.817,20.457,61.477,30.148
		c13.78,6.464,27.17,13.703,41.002,20.019c7.369,3.365,14.581,7.026,21.877,10.526c1.237,0.593,2.417,1.059,3.791,0.904
		c-0.074,2.583,0.377,5.21-0.439,8.037c-4.984,0-9.761,0-14.538,0c-0.996-0.012-1.992-0.023-2.988-0.035
		c0.208-2.462-1.842-2.959-3.408-3.695c-7.305-3.434-14.537-7.025-21.819-10.5c-15.925-7.599-31.63-15.661-47.577-23.235
		c-12.808-6.083-25.29-12.846-38.263-18.6c-1.227-0.544-2.38-1.154-3.77-0.945C578.034,237.343,578.029,232.674,578.023,228.006z"/>
	<path style="fill:#E4AF96;" d="M710.842,387.023c0-4.99,0-9.98,0-15.488c-6.275-3.142-12.613-6.676-19.241-9.536
		c-7.131-3.077-14.011-6.633-20.931-10.107c-20.068-10.073-40.554-19.298-60.416-29.787c-1.358-0.717-3.389-0.761-3.389-3.029
		c11.332-0.002,22.665-0.003,33.997-0.005c-0.139,2.064,1.695,2.248,2.902,2.863c7.905,4.024,15.943,7.772,23.967,11.556
		c10.717,5.053,21.21,10.579,31.851,15.795c3.657,1.792,7.345,3.569,11.288,4.7c0.008,2.126-0.116,4.263,0.057,6.375
		c0.206,2.518-0.776,5.161,0.728,7.551c0.222,18.348,0.416,36.696-0.026,55.044c-1.4-1.1-0.454-2.652-0.762-3.962
		C710.859,408.337,710.851,397.68,710.842,387.023z"/>
	<path style="fill:#D7876A;" d="M578.039,242.012c1.39-0.209,2.543,0.401,3.77,0.945c12.973,5.755,25.454,12.517,38.263,18.6
		c15.946,7.574,31.651,15.636,47.577,23.235c7.282,3.475,14.514,7.066,21.819,10.5c1.566,0.736,3.616,1.233,3.408,3.695
		c-8.807,0-17.614,0-26.439,0c-1.869-2.137-4.206-3.337-6.583-4.532c-3.39-1.703-6.972-2.983-10.357-4.648
		c-14.816-7.288-29.469-14.905-44.479-21.806c-7.205-3.313-14.228-7.025-21.303-10.618c-1.809-0.919-3.599-1.665-5.673-1.367
		C578.041,251.348,578.04,246.68,578.039,242.012z"/>
	<path style="fill:#DD9477;" d="M578.042,256.016c2.074-0.299,3.864,0.448,5.673,1.367c7.075,3.592,14.098,7.305,21.303,10.618
		c15.01,6.902,29.663,14.518,44.479,21.806c3.385,1.665,6.967,2.945,10.357,4.648c2.377,1.194,4.714,2.395,6.583,4.532
		c8.825,0,17.632,0,26.439,0c0.996,0.012,1.992,0.023,2.988,0.035c0.001,0.231,0.003,0.463,0.007,0.694
		c-16.025,0.325-32.049,0.373-48.074,0.014c-0.85-1.222-2.122-0.685-3.214-0.703c-3.644-0.058-7.29-0.022-10.855-0.022
		c-1.064-1.626-2.515-2.337-4.005-3.067c-16.748-8.207-33.478-16.452-50.224-24.665c-0.424-0.208-0.966-0.176-1.453-0.256
		C578.045,266.017,578.044,261.016,578.042,256.016z"/>
	<path style="fill:#E7BAA4;" d="M514.866,305.978c-0.372-9.997-0.27-19.993,0.01-29.99c1.957-0.287,3.496,0.769,5.117,1.58
		c9.314,4.661,18.621,9.336,27.955,13.957c2.497,1.236,5.002,2.546,7.923,2.463c0.281,9.997,0.382,19.994,0.009,29.992
		c-3.138-0.96-6.203-2.102-9.144-3.572c-8.58-4.289-17.183-8.532-25.736-12.875C519.036,306.536,517.115,305.695,514.866,305.978z"
		/>
	<path style="fill:#E1A287;" d="M578.046,271.017c0.487,0.08,1.029,0.048,1.453,0.256c16.745,8.214,33.475,16.458,50.224,24.665
		c1.489,0.73,2.94,1.441,4.005,3.067c3.565,0,7.21-0.036,10.855,0.022c1.092,0.017,2.364-0.519,3.214,0.703
		c-15.462,0.071-30.925,0.154-46.387,0.209c-7.63,0.027-15.26,0.005-23.362,0.005C578.046,290.155,578.046,280.586,578.046,271.017z
		"/>
	<path style="fill:#E1A287;" d="M514.867,259.983c-0.332-6.002-0.237-12.004-0.006-18.006c1.57-0.227,2.909,0.439,4.255,1.093
		c10.548,5.123,21.099,10.239,31.645,15.366c1.628,0.791,3.153,1.894,5.121,1.542c0.236,6.002,0.327,12.004-0.004,18.006
		c-1.966,0.339-3.492-0.758-5.12-1.55c-10.543-5.127-21.092-10.242-31.638-15.362C517.776,260.419,516.439,259.742,514.867,259.983z
		"/>
	<path style="fill:#EFD1C1;" d="M514.866,305.978c2.249-0.284,4.171,0.558,6.133,1.555c8.553,4.343,17.156,8.586,25.736,12.875
		c2.94,1.47,6.006,2.612,9.144,3.572c0.256,5.673,0.366,11.346-0.045,17.018c-1.848,0.19-3.542-0.226-5.218-1.046
		c-8.675-4.246-17.334-8.531-26.096-12.59c-3.064-1.419-6.093-3.15-9.611-3.365C514.482,317.992,514.622,311.985,514.866,305.978z"
		/>
	<path style="fill:#DD9477;" d="M555.882,259.978c-1.968,0.352-3.494-0.751-5.121-1.542c-10.546-5.127-21.097-10.243-31.645-15.366
		c-1.346-0.654-2.685-1.32-4.255-1.093c0-5.666,0-11.333,0-16.999c1.591-0.062,2.783,0.94,4.091,1.588
		c7.963,3.944,15.819,8.117,23.893,11.818c4.289,1.967,8.452,4.301,13.042,5.594C555.885,249.311,555.884,254.645,555.882,259.978z"
		/>
	<path style="fill:#E4AF96;" d="M514.867,259.983c1.573-0.241,2.909,0.436,4.254,1.088c10.546,5.12,21.095,10.236,31.638,15.362
		c1.628,0.792,3.154,1.889,5.12,1.55c0.256,5.335,0.345,10.67-0.008,16.005c-2.921,0.083-5.426-1.227-7.923-2.463
		c-9.334-4.621-18.641-9.296-27.955-13.957c-1.621-0.811-3.159-1.867-5.117-1.58C514.524,270.654,514.611,265.319,514.867,259.983z"
		/>
	<path style="fill:#D7876A;" d="M555.887,243.978c-4.59-1.292-8.753-3.627-13.042-5.594c-8.073-3.701-15.93-7.875-23.893-11.818
		c-1.308-0.648-2.5-1.649-4.091-1.588c0-4.671,0.001-9.342,0.001-14.012c1.949-0.242,3.497,0.784,5.121,1.598
		c7.986,4.002,15.882,8.205,24.012,11.892c3.833,1.738,7.465,4.244,11.888,4.511C555.885,233.97,555.886,238.974,555.887,243.978z"
		/>
	<path style="fill:#DD9477;" d="M711.656,367.911c-1.503-2.39-0.521-5.033-0.728-7.551c-0.173-2.113-0.05-4.249-0.057-6.375
		c0-5.806,0-11.612,0-17.174c-11.121-6.929-23.521-10.506-34.639-17.74c-11.384,0-23.377,0-35.37,0
		c-11.332,0.002-22.665,0.003-33.997,0.005c-9.58-0.036-19.161-0.072-28.741-0.107c0.302-1.15,1.249-0.842,2.007-0.841
		c43.107,0.007,86.215,0.025,129.322,0.053c0.64,0,1.349-0.129,2.203,0.87C711.656,335.068,711.656,351.489,711.656,367.911z"/>
	<path style="fill:#D7876A;" d="M695.87,299.716c-0.003-0.231-0.006-0.463-0.007-0.694c4.777,0,9.554,0,14.538,0
		c0.816-2.827,0.365-5.454,0.439-8.037c0.02-6.898,0.02-13.796,0.082-20.694c0.01-1.081-0.498-2.329,0.658-3.197
		c0,10.73,0,21.46,0,32.723C706.317,299.978,701.101,300.125,695.87,299.716z"/>
	<path style="fill:#F5E4DA;" d="M493.93,352.104c-0.082-1.813-0.163-3.626-0.253-5.615c-6.768-3.45-13.554-6.767-20.466-9.887
		c-8.583-3.874-16.811-8.528-25.331-12.554c-17.176-8.117-34.182-16.572-51.142-25.125c6.172-9.949,14.621-16.924,26.081-19.964
		c1.368,1.097,2.552,2.34,4.216,3.152c18.904,9.218,37.758,18.537,56.625,27.831c1.336,0.658,2.665,1.325,4.231,1.044
		c3.638,7.037,4.785,14.76,5.78,22.443c0.679,5.249,1.259,10.57,0.914,15.908C494.524,350.293,494.884,351.357,493.93,352.104z"/>
	<path style="fill:#EFD1C1;" d="M487.892,310.986c-1.566,0.281-2.895-0.386-4.231-1.044c-18.867-9.294-37.721-18.614-56.625-27.831
		c-1.664-0.811-2.849-2.055-4.216-3.152c3.275-1.833,6.92-1.907,10.508-2.104c12.882-0.705,25.082,1.344,35.755,9.22
		C477.812,292.516,484.398,300.587,487.892,310.986z"/>
	<path style="fill:#D1674B;" d="M891.858,352.949c0.007,8.661,0.015,17.322,0.022,25.983c-1.164,0.099-2.216-0.049-3.333-0.593
		c-5.601-2.729-11.237-5.388-16.907-7.97c-5.971-2.719-11.514-6.336-17.775-8.439c0.008-8.66,0.016-17.32,0.024-25.981
		c1.93-0.206,3.469,0.802,5.083,1.608c8.521,4.257,17.065,8.469,25.566,12.765C886.883,351.507,889.257,352.522,891.858,352.949z"/>
	<path style="fill:#D7876A;" d="M795.165,310.079c1.251,1.042,0.641,2.459,0.655,3.695c0.081,7.068,0.071,14.136,0.093,21.205
		c0,4.456,0,8.912,0,13.537c2.567,0.682,4.716,1.851,6.899,2.946c8.101,4.063,16.193,8.146,24.316,12.163
		c1.684,0.833,3.385,2.245,5.711,0.598c0-4.331,0-8.785,0-13.24c0.019-6.235,0.016-12.47,0.078-18.704
		c0.011-1.08-0.496-2.328,0.666-3.19c0.309,15.662,0.387,31.323,0.033,46.986c-1.557,0.832,0.065,3.038-2.49,4.172
		c-11.679-4.739-22.996-11.714-34.743-16.774c-1.201-1.879,0.443-3.941-1.252-5.407C794.781,342.07,794.856,326.074,795.165,310.079
		z"/>
	<path style="fill:#DD9477;" d="M795.13,358.065c1.695,1.466,0.052,3.528,1.252,5.407c11.747,5.06,23.064,12.035,34.743,16.774
		c2.556-1.135,0.933-3.341,2.49-4.172c0.306,7.619,0.352,15.238,0.004,22.857c-1.139-0.5-0.451-1.866-1.291-2.63
		c-2.044-0.342-3.92-1.42-5.768-2.437c-8.666-4.768-17.938-8.271-26.667-12.895c-1.538-0.815-3.085-1.096-4.763-0.977
		C794.766,372.684,794.837,365.375,795.13,358.065z"/>
	<path style="fill:#CA4732;" d="M853.927,304.951c1.413-0.072,2.478,0.827,3.639,1.386c10.029,4.831,20.029,9.72,30.045,14.577
		c1.32,0.64,2.629,1.413,4.209,1.037c0.008,5.332,0.017,10.663,0.025,15.995c-1.966,0.412-3.477-0.715-5.08-1.514
		c-9.262-4.619-18.524-9.238-27.78-13.869c-1.614-0.807-3.152-1.819-5.083-1.617C853.91,315.614,853.918,310.283,853.927,304.951z"
		/>
	<path style="fill:#CD563E;" d="M853.902,320.946c1.93-0.202,3.469,0.81,5.083,1.617c9.256,4.631,18.518,9.25,27.78,13.869
		c1.604,0.8,3.114,1.926,5.08,1.514c0.004,5.001,0.008,10.002,0.013,15.003c-2.601-0.427-4.975-1.442-7.32-2.627
		c-8.501-4.296-17.045-8.509-25.566-12.765c-1.614-0.806-3.153-1.815-5.083-1.608C853.893,330.948,853.898,325.947,853.902,320.946z
		"/>
	<path style="fill:#DD9477;" d="M891.875,421.98c-3.128-0.927-6.169-2.076-9.091-3.534c-7.943-3.962-15.886-7.925-23.825-11.895
		c-1.613-0.806-3.149-1.84-5.09-1.572c-0.002-5.001-0.005-10.001-0.007-15.002c1.59-0.062,2.781,0.939,4.088,1.586
		c7.958,3.94,15.854,8.008,23.862,11.843c3.204,1.534,6.374,3.348,10.071,3.571C891.881,411.979,891.878,416.98,891.875,421.98z"/>
	<path style="fill:#D67B5D;" d="M853.865,361.93c6.261,2.103,11.804,5.72,17.775,8.439c5.67,2.582,11.306,5.241,16.907,7.97
		c1.117,0.544,2.169,0.692,3.333,0.593c0.002,5.011,0.004,10.022,0.005,15.033c-0.855,0.068-1.57-0.258-2.335-0.63
		c-10.187-4.954-20.399-9.854-30.592-14.796c-1.629-0.789-3.164-1.803-5.097-1.574C853.862,371.953,853.864,366.941,853.865,361.93z
		"/>
	<path style="fill:#D7876A;" d="M853.861,376.965c1.933-0.229,3.468,0.785,5.097,1.574c10.193,4.941,20.405,9.842,30.592,14.796
		c0.766,0.372,1.48,0.698,2.335,0.63c0,4.338-0.001,8.676-0.002,13.014c-3.697-0.223-6.867-2.037-10.071-3.571
		c-8.008-3.834-15.904-7.902-23.862-11.843c-1.307-0.647-2.498-1.648-4.088-1.586C853.862,385.64,853.862,381.303,853.861,376.965z"
		/>
	<path style="fill:#2D2C2B;" d="M774.809,265.955c0.202-0.806,0.38-1.753,1.415-1.754c5.956-0.006,11.911,0.044,17.867,0.118
		c0.184,0.002,0.362,0.468,0.542,0.718c-5.982,0-11.963,0-17.966,0c-1.373,1.888-0.754,3.945-0.755,5.851
		c-0.038,50.055-0.022,100.111-0.062,150.166c-0.001,1.596,0.624,3.315-0.498,4.816c-0.617-6.795-0.14-13.606-0.316-20.407
		c-0.047-1.824-0.12-3.647-0.181-5.471c0.331-5.667,0.268-11.335,0.004-17.002c0.324-6.002,0.24-12.004,0.002-18.005
		c0.001-5.333,0.003-10.667,0.004-16c0.001-5.003,0.002-10.007,0.003-15.01c-0.002-5.342-0.005-10.684-0.007-16.026
		c-0.004-6-0.008-12-0.012-18c-0.005-5.999-0.01-11.998-0.015-17.997C774.825,276.618,774.817,271.286,774.809,265.955z"/>
	<path style="fill:#E4AF96;" d="M774.859,382.989c0.264,5.668,0.327,11.335-0.004,17.002c-5.344-1.686-10.209-4.475-15.286-6.762
		c-6.767-3.048-13.337-6.539-19.956-9.911c-1.816-0.925-3.633-1.547-5.683-1.32c0.002-5.665,0.004-11.329,0.006-16.994
		c2.583,0.543,4.986,1.526,7.346,2.718c9.134,4.615,18.327,9.112,27.459,13.731C770.699,382.444,772.605,383.323,774.859,382.989z"
		/>
	<path style="fill:#E1A287;" d="M774.859,382.989c-2.254,0.334-4.16-0.545-6.118-1.536c-9.132-4.619-18.325-9.116-27.459-13.731
		c-2.36-1.192-4.763-2.175-7.346-2.718c0-6,0.001-12,0.001-18c1.962-0.304,3.477,0.803,5.101,1.593
		c10.523,5.116,21.05,10.224,31.58,15.325c1.335,0.647,2.661,1.377,4.242,1.062C775.099,370.985,775.183,376.987,774.859,382.989z"
		/>
	<path style="fill:#D1674B;" d="M774.848,299.947c0.004,6,0.008,12,0.012,18c-1.28,0.3-2.215-0.568-3.214-1.052
		c-11.511-5.57-22.99-11.207-34.502-16.775c-1.004-0.486-1.94-1.328-3.209-1.113c0.001-6.002,0.002-12.003,0.003-18.005
		c2.571,0.533,4.96,1.511,7.307,2.696c9.818,4.954,19.669,9.842,29.525,14.719C772.068,299.058,773.235,300.118,774.848,299.947z"/>
	<path style="fill:#CD563E;" d="M774.848,299.947c-1.613,0.171-2.78-0.889-4.078-1.531c-9.857-4.877-19.708-9.764-29.525-14.719
		c-2.347-1.185-4.736-2.162-7.307-2.696c-0.003-5.666-0.005-11.332-0.008-16.998c1.774-0.317,3.207,0.595,4.668,1.339
		c10.573,5.38,21.173,10.704,31.996,15.571c1.347,0.606,2.649,1.415,4.239,1.037C774.838,287.949,774.843,293.948,774.848,299.947z"
		/>
	<path style="fill:#D67B5D;" d="M733.935,299.006c1.269-0.215,2.205,0.628,3.209,1.113c11.512,5.568,22.991,11.205,34.502,16.775
		c1,0.484,1.934,1.352,3.214,1.052c0.002,5.342,0.005,10.684,0.007,16.026c-1.966,0.366-3.491-0.732-5.105-1.537
		c-7.233-3.607-14.476-7.196-21.698-10.824c-4.535-2.278-8.984-4.741-14.13-6.081C733.935,309.916,733.935,304.461,733.935,299.006z
		"/>
	<path style="fill:#DD9477;" d="M774.861,364.983c-1.581,0.315-2.907-0.415-4.242-1.062c-10.53-5.101-21.058-10.208-31.58-15.325
		c-1.624-0.79-3.139-1.897-5.101-1.593c0-5.12,0-10.24,0-15.269c2.312-1.576,4.011-0.183,5.7,0.652
		c9.312,4.604,18.611,9.236,27.881,13.925c2.356,1.192,4.744,2.204,7.347,2.672C774.864,354.317,774.862,359.65,774.861,364.983z"/>
	<path style="fill:#CA4732;" d="M774.833,281.949c-1.59,0.378-2.892-0.431-4.239-1.037c-10.823-4.867-21.423-10.191-31.996-15.571
		c-1.461-0.743-2.894-1.656-4.668-1.339c-0.003-5.332-0.005-10.663-0.008-15.995c3.677,0.331,6.878,2.072,10.093,3.626
		c8.612,4.162,17.139,8.501,25.7,12.769c1.61,0.803,3.12,1.941,5.094,1.552C774.817,271.286,774.825,276.618,774.833,281.949z"/>
	<path style="fill:#CA4732;" d="M832.833,294.99c0,4.997-0.001,9.994-0.001,14.991c-1.776,0.343-3.196-0.6-4.671-1.314
		c-9.337-4.522-18.666-9.058-28.004-13.578c-1.333-0.645-2.661-1.364-4.237-1.111c-0.001-5.33-0.002-10.659-0.003-15.989
		c1.946-0.286,3.468,0.777,5.077,1.581c9.251,4.621,18.499,9.249,27.764,13.842C830.06,294.058,831.238,295.079,832.833,294.99z"/>
	<path style="fill:#D67B5D;" d="M832.839,350.983c0,4.454,0,8.909,0,13.24c-2.326,1.647-4.028,0.235-5.711-0.598
		c-8.124-4.017-16.215-8.1-24.316-12.163c-2.184-1.095-4.332-2.265-6.899-2.946c0-4.625,0-9.081,0-13.537
		c2.246-0.279,4.147,0.6,6.116,1.567c9.61,4.721,19.268,9.342,28.922,13.972C831.523,350.792,832.207,350.833,832.839,350.983z"/>
	<path style="fill:#CD563E;" d="M795.92,293.978c1.575-0.253,2.904,0.466,4.237,1.111c9.338,4.52,18.667,9.056,28.004,13.578
		c1.475,0.714,2.894,1.657,4.671,1.314c0,4.456,0,8.912,0,13.252c-2.324,1.632-4.025,0.223-5.709-0.611
		c-7.535-3.729-15.019-7.561-22.556-11.285c-2.773-1.37-5.641-2.546-8.646-3.89C795.92,302.897,795.92,298.437,795.92,293.978z"/>
	<path style="fill:#E1A287;" d="M640.862,319.072c11.993,0,23.985,0,35.37,0c11.118,7.233,23.518,10.811,34.639,17.74
		c0,5.561,0,11.368,0,17.174c-3.943-1.132-7.631-2.908-11.288-4.7c-10.642-5.215-21.135-10.742-31.851-15.795
		c-8.024-3.783-16.062-7.532-23.967-11.556C642.556,321.32,640.723,321.135,640.862,319.072z"/>
</g>
</svg>
