<?xml version="1.0" encoding="iso-8859-1"?>
<!-- Generator: Adobe Illustrator 27.0.0, SVG Export Plug-In . SVG Version: 6.00 Build 0)  -->
<svg version="1.1" id="Layer_1" xmlns="http://www.w3.org/2000/svg" xmlns:xlink="http://www.w3.org/1999/xlink" x="0px" y="0px"
	 viewBox="0 0 1588 653" style="enable-background:new 0 0 1588 653;" xml:space="preserve">
<g>
	<path style="fill:#E5612C;" d="M149,0c4.185,1.742,8.717,1.155,13.063,1.92c14.677,2.583,28.824,6.436,41.418,14.826
		c14.172,9.441,23.55,22.263,27.817,38.779c4.247,16.439,4.594,32.937-0.52,49.177c-7.421,23.564-23.608,38.341-47.158,45.27
		c-1.748,0.514-3.531,0.912-5.36,1.379c0.955,1.417,2.476,1.405,3.862,1.731c11.533,2.712,19.896,9.298,25.414,19.887
		c5.49,10.533,9.105,21.698,12.437,33.012c4.97,16.872,10.018,33.72,15.044,50.575c0.185,0.62,0.49,1.205,0.922,2.249
		c8.358,0,16.778,0,25.428,0c0,9.916,0,19.331,0,28.973c-18.648,0-37.089,0-56.059,0c-1.723-5.451-3.52-11.089-5.289-16.736
		c-7.688-24.544-14.724-49.317-23.27-73.558c-6.018-17.069-18.668-27.993-36.961-31.449c-6.223-1.176-12.508-1.907-18.839-1.934
		c-15.478-0.066-30.957-0.022-46.792-0.022c0,31.51,0,62.871,0,94.633c8.124,0,16.222,0,24.649,0c0,9.798,0,19.209,0,28.957
		c-29.244,0-58.66,0-88.444,0c0-9.305,0-18.835,0-28.819c8.133,0,16.21,0,24.517,0c0-76.682,0-152.916,0-229.589
		c-8.187,0-16.27,0-24.879,0C10,19.221,10,9.611,10,0C56.333,0,102.667,0,149,0z M74,134.861c1.361,0,2.163,0,2.965,0
		c13.987-0.004,27.974,0.07,41.96-0.034c12.668-0.094,25.222-1.372,37.437-4.891c12.263-3.532,23.227-9.301,30.494-20.253
		c9.675-14.579,9.729-30.362,4.391-46.328c-5.475-16.374-18.426-24.576-34.068-29.326c-12.685-3.852-25.8-4.682-38.946-4.85
		c-13.485-0.172-26.974-0.055-40.461-0.018c-1.258,0.003-2.685-0.515-3.771,0.744C74,64.657,74,99.435,74,134.861z"/>
	<path style="fill:#DB9C29;" d="M0,489c2.022-2.508,1.367-5.68,1.786-8.481c3.247-21.681,10.361-41.885,22.729-60.027
		c10.443-15.319,23.639-27.784,39.744-37.207c14.832-8.678,30.816-14.13,47.615-16.793c13.607-2.157,27.373-3.013,41.264-1.773
		c12.651,1.129,25.001,3.35,37.014,7.326c14.889,4.927,28.11,12.737,39.282,23.835c0.928,0.922,1.494,2.21,2.227,3.328
		c0.439-0.253,0.879-0.506,1.318-0.76c0-6.315,0-12.63,0-19.189c10.265,0,20.002,0,29.716,0c0.673,4.382,0.759,82.165,0.087,87.595
		c-10.358,0-20.752,0-31.371,0c-1.475-8.534-3.752-16.627-7.346-24.332c-10.495-22.499-27.843-36.822-51.655-43.438
		c-10.975-3.049-22.262-4.218-33.567-3.856c-22.22,0.711-42.982,6.141-60.642,20.593c-15.196,12.435-24.658,28.466-30.256,47.072
		c-3.52,11.701-5.509,23.728-5.538,35.819c-0.052,21.819,1.468,43.56,10.609,63.914c9.907,22.059,25.508,38.229,48.513,46.778
		c10.516,3.908,21.346,5.863,32.498,6.887c14.102,1.295,27.944,0.131,41.444-3.705c23.866-6.781,39.29-22.684,47.506-45.835
		c1.605-4.522,2.893-9.156,4.435-14.087c12.659,0,25.386,0,38.262,0c1.027,3.563-0.285,6.967-0.894,10.282
		c-3.195,17.394-9.54,33.479-20.639,47.473c-12.358,15.581-28.377,25.912-46.91,32.539c-14.653,5.24-29.831,7.455-45.369,8.384
		c-19.82,1.186-39.14-1.014-58.137-6.397c-20.701-5.865-38.903-16.271-54.248-31.371c-15.608-15.358-26.15-33.832-32.41-54.765
		c-3.098-10.358-5.349-20.895-6.109-31.711C0.902,526.274,0.935,525.418,0,525C0,513,0,501,0,489z"/>
	<path style="fill:#DB9C29;" d="M1588,620c-1.606,1.036-1.379,2.908-1.863,4.393c-5.504,16.877-20.917,27.18-39.316,25.47
		c-14.27-1.327-28.557-12.486-32.137-30.211c-3.229-15.984,6.749-36.499,25.54-42.042c12.126-3.577,23.289-1.329,33.325,6.367
		c7.581,5.813,12.187,13.41,13.638,22.893c0.063,0.408,0.532,0.755,0.812,1.13C1588,612,1588,616,1588,620z"/>
	<path style="fill:#EDCE99;" d="M384,653c0.048-0.302,0.023-0.598-0.076-0.887c7.055,0.008,14.11,0.017,21.165,0.025
		c-0.078,0.283-0.107,0.57-0.089,0.862C398,653,391,653,384,653z"/>
	<path style="fill:#ECC88D;" d="M857.069,652.081c-0.133,0.298-0.156,0.604-0.069,0.919c-7,0-14,0-21,0
		c0.09-0.315,0.067-0.621-0.068-0.92C842.978,652.081,850.023,652.081,857.069,652.081z"/>
	<path style="fill:#EDCE99;" d="M1039.091,652.141c-0.075,0.282-0.105,0.568-0.091,0.859c-7,0-14,0-21,0
		c0.051-0.303,0.027-0.6-0.074-0.89C1024.981,652.12,1032.036,652.131,1039.091,652.141z"/>
	<path style="fill:#E5622D;" d="M650.997,251.638c-3.784,5.426-6.922,10.669-10.689,15.559
		c-8.594,11.156-19.721,18.32-33.404,21.178c-27.15,5.669-53.315,3.3-77.473-11.297c-17.968-10.856-29.533-27.015-36.445-46.61
		c-6.76-19.162-8.194-38.909-6.2-59.03c1.511-15.241,5.599-29.642,13.112-43.041c10.635-18.968,26.299-31.975,46.775-39.043
		c19.975-6.895,40.375-8.084,60.836-2.559c17.85,4.82,31.32,15.645,40.603,31.67c1.057,1.825,1.684,3.949,4.071,6.136
		c0.069-3.558,0.146-6.376,0.173-9.194c0.028-2.832,0.007-5.665,0.006-8.498c0-2.999-0.001-5.999-0.002-8.998
		c0-2.807,0-5.613,0-8.731c19.575,0,38.786,0,58.248,0c0,8.529,0,16.932,0,25.793c-7.91,0-15.662,0-23.87,0c0,2.215,0,3.998,0,5.781
		c0,50.156,0.015,100.311-0.012,150.467c-0.006,11.837-0.893,23.6-3.746,35.134c-4.527,18.298-13.819,33.398-29.9,43.786
		c-10.474,6.766-22.059,10.578-34.275,12.873c-16.345,3.07-32.788,2.687-49.246,1.925c-13.693-0.634-27.04-3.053-39.683-8.66
		c-16.931-7.509-27.037-20.45-30.777-38.474c-0.772-3.719-1.539-7.463-1.073-11.629c11.424,0,22.844,0,34.51,0
		c0.919,1.134,1.083,2.781,1.521,4.355c3.797,13.651,12.453,22.826,26.246,25.997c19.27,4.43,38.67,4.255,57.683-1.639
		c16.36-5.072,25.944-16.678,29.99-33.072c2.243-9.088,3.064-18.349,3.027-27.699C650.973,266.623,650.997,259.131,650.997,251.638z
		 M649.37,190.295c0.013-14.267-1.534-26.904-6.332-38.999c-5.569-14.038-14.069-25.604-27.714-32.786
		c-13.559-7.137-28.022-8.341-42.673-5.084c-21.065,4.684-35.404,17.538-42.794,37.874c-8.06,22.178-8.014,44.699-1.571,67.135
		c4.092,14.252,11.969,26.25,24.517,34.77c11.926,8.098,25.186,10.752,39.37,10.04c20.173-1.013,35.51-10.111,45.818-27.425
		C646.577,221.4,649.438,205.493,649.37,190.295z"/>
	<path style="fill:#DC9D2A;" d="M1039.091,652.141c-7.055-0.01-14.11-0.021-21.165-0.031c-26.083-1.409-49.038-10.016-66.971-29.673
		c-10.989-12.045-17.786-26.371-21.305-42.223c-5.815-26.192-5.805-52.194,4.379-77.393c12.9-31.92,36.762-50.94,70.388-57.695
		c19.237-3.864,38.429-2.979,57.218,2.517c29.317,8.575,48.346,28.059,58.345,56.657c4.021,11.498,6.273,23.351,7.206,35.509
		c0.419,5.459,0.888,10.881,0.663,16.776c-54.579,0-108.978,0-163.538,0c-1.193,5.374-0.043,10.278,0.77,15.087
		c2.044,12.094,6.14,23.388,13.943,33.127c8.689,10.845,19.946,17.645,33.458,20.032c15.412,2.723,30.764,2.195,45.618-3.689
		c14.789-5.859,25.039-15.962,29.927-31.25c0.45-1.409,0.875-2.826,1.342-4.342c10.876,0,21.633,0,32.641,0
		c-0.268,5.318-2.146,9.911-3.878,14.538c-5.192,13.871-13.197,25.747-25.343,34.429c-10.949,7.826-23.178,12.902-36.412,15.376
		C1050.668,650.959,1044.914,651.867,1039.091,652.141z M964.423,529.842c42.287,0,83.828,0,125.487,0
		c0-1.252,0.148-2.249-0.023-3.188c-1.575-8.677-3.853-17.141-7.74-25.11c-7.133-14.624-18.095-24.87-33.905-29.477
		c-10.329-3.01-20.799-3.803-31.527-2.286c-9.879,1.397-19.072,4.318-27.183,10.216
		C972.759,492.192,966.289,509.578,964.423,529.842z"/>
	<path style="fill:#DC9D2A;" d="M405.089,652.138c-7.055-0.008-14.11-0.017-21.165-0.025c-26.467-1.4-49.646-10.244-67.669-30.351
		c-11.131-12.418-17.549-27.242-21.227-43.375c-3.134-13.749-3.909-27.725-2.845-41.672c1.943-25.46,10.619-48.243,29.14-66.511
		c13.515-13.331,29.853-21.454,48.423-25.014c19.748-3.786,39.352-3.037,58.666,2.753c25.822,7.741,43.842,24.309,54.577,48.863
		c6.042,13.819,9.03,28.396,10.137,43.417c0.391,5.297,0.978,10.566,0.701,16.312c-54.521,0-108.921,0-163.249,0
		c-1.368,2.408-0.749,4.607-0.578,6.66c1.148,13.76,4.586,26.794,12.577,38.325c9.317,13.442,22.166,21.259,38.249,23.642
		c14.498,2.148,28.795,1.56,42.687-3.812c15.365-5.943,26.027-16.237,30.705-32.289c0.324-1.113,0.751-2.196,1.211-3.524
		c10.698,0,21.455,0,32.607,0c-0.746,6.197-2.761,11.759-5.015,17.227c-9.297,22.558-26.265,36.624-49.091,44.171
		C424.56,650.032,414.865,651.302,405.089,652.138z M456.264,529.951c-1.391-11.309-4.292-21.641-9.49-31.191
		c-7.225-13.273-17.914-22.529-32.639-26.724c-10.012-2.852-20.13-3.715-30.536-2.359c-9.207,1.2-17.854,3.706-25.683,8.703
		c-14.631,9.339-22.303,23.268-25.871,39.809c-0.821,3.808-1.677,7.653-1.079,11.762
		C372.715,529.951,414.122,529.951,456.264,529.951z"/>
	<path style="fill:#E5612C;" d="M920.771,197.14c-54.668,0-109.08,0-163.784,0c-0.502,8.621,0.902,16.582,3.095,24.391
		c5.058,18.014,15.135,32.034,32.574,40.008c11.372,5.2,23.403,6.168,35.635,5.117c8.625-0.741,17.053-2.523,25.072-6.055
		c14.246-6.275,23.854-16.566,28.117-31.657c0.226-0.8,0.468-1.596,0.785-2.672c10.812,0,21.725,0,32.899,0
		c-5.983,27.609-20.803,47.687-47.153,58.514c-10.238,4.207-20.935,6.206-31.896,7.444c-11.677,1.318-23.348,1.31-34.865-0.417
		c-39.828-5.971-66.784-27.569-77.583-66.951c-7.713-28.129-7.454-56.36,4.201-83.593c12.922-30.192,36.034-48.43,68.041-55.079
		c21.413-4.448,42.757-3.385,63.496,3.84c27.028,9.416,44.211,28.623,53.526,55.288c4.247,12.158,6.438,24.723,7.236,37.564
		C920.455,187.492,921.114,192.079,920.771,197.14z M757.428,170.603c41.945,0,83.656,0,125.595,0c0-0.901,0.076-1.55-0.011-2.176
		c-1.8-12.836-5.64-24.996-13.25-35.586c-6.126-8.526-14.146-14.938-24.134-18.624c-13.468-4.97-27.288-5.625-41.243-2.857
		c-16.173,3.209-28.659,12.005-37.248,26.075C760.976,147.528,758.364,158.734,757.428,170.603z"/>
	<path style="fill:#E5612C;" d="M463.609,197.077c-54.787,0-109.349,0-164.33,0c0.243,5.857,0.669,11.24,1.653,16.586
		c2.331,12.653,7.051,24.192,15.686,33.928c9.595,10.816,21.755,16.58,35.958,18.471c12.563,1.672,24.943,0.804,36.971-3.064
		c17.595-5.658,30.068-16.624,34.782-35.149c0.081-0.318,0.242-0.623,0.412-0.907c0.164-0.274,0.388-0.513,0.656-0.858
		c10.702,0,21.465,0,32.654,0c-4.128,18.632-11.951,34.811-26.839,46.743c-12.85,10.299-27.792,15.857-44.063,18.349
		c-13.597,2.082-27.167,2.491-40.777,0.87c-27.527-3.279-50.592-14.652-66.73-37.925c-8.159-11.767-12.96-24.979-15.64-39.011
		c-2.486-13.016-2.976-26.177-1.877-39.288c2.108-25.154,11.088-47.542,29.414-65.369c12.521-12.18,27.586-19.988,44.773-23.755
		c20.582-4.511,41.035-4.103,61.176,1.786c28.528,8.341,47.359,27.238,57.531,54.951c5.078,13.834,7.687,28.174,8.08,42.897
		C463.192,189.771,464.148,193.191,463.609,197.077z M299.971,170.338c42.365,0,84.076,0,125.799,0
		c-0.254-6.656-3.079-17.824-6.571-25.693c-6.568-14.799-16.898-25.709-32.423-31.26c-11.552-4.131-23.453-4.56-35.433-3.084
		c-6.759,0.833-13.305,2.803-19.393,6.053C310.498,127.804,302.422,147.137,299.971,170.338z"/>
	<path style="fill:#E5612C;" d="M1527.301,114.99c-7.571,0-14.642,0-21.889,0c0-8.87,0-17.274,0-25.905c26.025,0,51.802,0,78.299,0
		c0.009,4.24,0.021,8.496,0.025,12.751c0.004,4.148,0.001,8.295,0.001,12.939c-6.958,0-13.698,0-20.496,0
		c-4.752,10.509-9.348,20.621-13.902,30.751c-18.995,42.254-37.979,84.513-56.963,126.773c-6.123,13.631-12.4,27.197-18.273,40.936
		c-2.802,6.554-5.231,13.226-8.817,19.453c-9.653,16.765-23.9,26.134-43.148,28.51c-10.737,1.326-21.136-0.016-31.809-1.548
		c0-9.605,0-18.855,0-28.177c6.99,0.838,13.645,2.329,20.526,1.69c12.864-1.194,22.251-7.431,27.715-19.112
		c4.358-9.316,8.292-18.831,12.495-28.44c-25.613-56.827-51.26-113.729-77.03-170.905c-6.918,0-13.696,0-20.779,0
		c0-8.632,0-16.878,0-25.489c26.943,0,54.004,0,81.39,0c0,8.254,0,16.673,0,25.626c-6.734,0-13.645,0-21.319,0
		c19.116,42.827,37.905,84.921,56.993,127.686C1489.447,199.72,1508.245,157.644,1527.301,114.99z"/>
	<path style="fill:#DB9C29;" d="M569.636,448.442c0,10.708,0,20.994,0,31.487c1.828-0.69,1.999-2.102,2.593-3.188
		c8.914-16.314,22.854-26.086,40.56-30.652c13.001-3.352,26.222-3.872,39.592-2.332c10.64,1.225,20.961,3.373,30.588,8.202
		c17.344,8.701,27.667,22.822,32.045,41.555c1.87,8,2.227,16.115,2.226,24.276c-0.006,32.494-0.002,64.989-0.002,97.483
		c0,1.794,0,3.587,0,5.783c6.064,0,11.659,0,17.543,0c0,8.676,0,16.94,0,25.255c-3.284,0.886-61.392,1.192-69.738,0.287
		c0-8.215,0-16.467,0-25.158c5.348,0,10.767,0,15.575,0c1.79-1.29,1.361-2.557,1.362-3.659c0.021-34.161,0.067-68.322,0.001-102.482
		c-0.051-26.399-17.827-40.943-38.868-44.455c-10.95-1.828-21.886-1.886-32.592,1.444c-17.555,5.462-29.302,17.06-35.557,34.281
		c-2.69,7.405-4.024,15.06-4.027,22.944c-0.008,29.495-0.02,58.99-0.03,88.484c0,0.813,0,1.626,0,2.916c6.297,0,12.369,0,18.764,0
		c0,8.851,0,17.231,0,25.852c-24.461,0-48.859,0-73.494,0c0-8.439,0-16.705,0-25.565c6.198,0,12.421,0,18.854,0
		c0-49.001,0-97.411,0-146.127c-6.16-0.906-12.293,0.035-18.774-0.568c-0.639-4.269-0.225-8.553-0.297-12.802
		c-0.073-4.314-0.016-8.631-0.016-13.264C533.783,448.442,551.355,448.442,569.636,448.442z"/>
	<path style="fill:#E5612C;" d="M934.316,288.71c0-8.747,0-17.029,0-25.71c6.445,0,12.704,0,19.295,0c0-48.974,0-97.547,0-146.727
		c-6.182,0-12.572,0-19.178,0c0-9.01,0-17.413,0-26.045c17.804,0,35.395,0,53.356,0c0,10.786,0,21.548,0,32.309
		c0.907-0.013,1.16-0.332,1.376-0.797c8.693-18.747,23.8-29.684,43.44-34.214c20.487-4.725,41.055-4.027,60.999,2.946
		c22.454,7.85,35.728,23.974,40.373,47.241c1.438,7.205,1.969,14.497,1.964,21.843c-0.022,32.493-0.016,64.987,0.01,97.48
		c0.001,1.787-0.343,3.626,0.462,5.763c5.566,0,11.167,0,17.054,0c0,8.806,0,17.213,0,25.914c-23.311,0-46.559,0-70.14,0
		c0-8.424,0-16.956,0-25.917c5.582,0,11.004,0,16.205,0c1.036-1.805,0.661-3.33,0.662-4.785c0.023-33.16,0.003-66.32,0.027-99.48
		c0.006-8.944-1.222-17.559-6.001-25.367c-7.269-11.874-18.398-18.105-31.564-20.74c-12.051-2.412-24.129-2.098-35.925,2.067
		c-16.845,5.947-27.827,17.623-33.699,34.286c-2.728,7.741-3.933,15.782-3.941,23.984c-0.027,28.994-0.019,57.988-0.018,86.982
		c0,0.818,0.077,1.635,0.143,2.944c6.15,0,12.221,0,18.558,0c0,8.904,0,17.316,0,26.024
		C983.397,288.71,959.008,288.71,934.316,288.71z"/>
	<path style="fill:#DB9C29;" d="M1446.959,459.031c0.833-3.535-0.174-6.92,0.711-10.029c4.071-0.905,22.897-0.977,27.741-0.09
		c0,16.984,0,34.034,0,51.437c-9.255,0-18.339,0-27.714,0c-0.383-0.503-1.002-1.087-1.349-1.804
		c-7.212-14.901-19.801-22.433-35.45-25.396c-11.643-2.205-23.421-3.11-35.233-1.145c-7.114,1.183-13.837,3.207-19.455,8.162
		c-11.206,9.884-9.388,29.062,3.423,37.022c6.056,3.763,12.687,5.705,19.599,6.878c13.911,2.36,27.91,4.11,41.885,6.033
		c15.448,2.125,30.199,6.404,43.2,15.455c14.189,9.878,21.39,23.603,22.719,40.72c1.006,12.956-1.819,24.821-9.589,35.269
		c-7.023,9.443-16.351,16.064-27.2,20.436c-13.229,5.332-27.015,7.883-41.31,8.158c-14.336,0.276-28.526-0.246-42.449-4.103
		c-8.592-2.38-16.37-6.378-23.749-11.268c-0.828-0.549-1.67-1.077-2.523-1.587c-0.105-0.063-0.314,0.047-0.899,0.157
		c0,4.291,0,8.687,0,13.37c-9.504,0-18.592,0-28.018,0c0-20.642,0-41.369,0-62.402c8.996,0,18.073,0,27.465,0
		c0.824,1.536,0.28,3.417,0.524,5.155c1.58,11.264,7.757,19.213,17.555,24.563c8.284,4.523,17.282,6.779,26.56,7.925
		c10.436,1.289,20.907,1.586,31.36,0.086c7.919-1.136,15.662-2.883,22.766-6.79c6.17-3.394,11.253-7.875,13.392-14.775
		c3.301-10.651-1.015-22.457-12.631-28.442c-7.474-3.851-15.552-5.713-23.772-7c-12.789-2.003-25.568-4.119-38.408-5.731
		c-10.281-1.291-20.339-3.231-29.841-7.425c-15.753-6.953-27.11-18.009-31.226-35.189c-5.539-23.117,3.088-45.422,23.073-58.636
		c10.039-6.637,21.168-10.273,32.995-11.842c17.165-2.277,34.169-0.897,51.024,2.744c7.194,1.554,13.89,4.454,20.29,8.045
		C1443.72,457.715,1444.934,458.583,1446.959,459.031z"/>
	<path style="fill:#E5622D;" d="M1352.027,155.392c-11.12,0-21.725,0-32.468,0c-0.528-1.945-1.025-3.677-1.468-5.423
		c-4.41-17.366-15.247-29.012-32.101-34.561c-16.97-5.586-33.74-4.644-49.767,3.839c-12.847,6.8-21.038,17.602-26.153,30.909
		c-4.217,10.97-5.991,22.409-6.159,34.149c-0.201,14.067,1.056,27.892,6.026,41.191c6.799,18.195,18.628,31.517,37.733,36.786
		c17.34,4.782,34.309,3.145,50.045-6.151c12.509-7.39,19.415-18.763,22.306-32.784c0.13-0.628,0.273-1.253,0.457-2.095
		c11.055,0,21.972,0,33.16,0c-2.408,17.072-7.475,32.766-18.841,45.942c-7.697,8.923-17.312,14.955-28.242,19
		c-17.828,6.599-36.252,7.992-55.029,6.003c-14.55-1.542-28.324-5.483-40.869-13.231c-18.479-11.412-30.589-27.81-37.592-48.159
		c-5.371-15.605-7.177-31.818-6.738-48.163c0.585-21.799,5.75-42.444,18.426-60.656c13.365-19.203,31.809-30.919,54.49-35.848
		c18.981-4.125,38.079-3.592,56.86,1.161c28.992,7.338,46.646,26.153,53.747,55.021
		C1350.866,146.473,1352.162,150.628,1352.027,155.392z"/>
	<path style="fill:#DC9D2A;" d="M857.069,652.081c-7.046,0-14.091-0.001-21.137-0.001c-10.749-0.59-20.985-3.121-30.498-8.24
		c-16.33-8.787-25.55-22.769-29.334-40.611c-1.453-6.852-1.91-13.82-1.908-20.823c0.01-33.653,0.012-67.305-0.022-100.958
		c-0.002-1.773,0.488-3.64-0.757-5.797c-9.711,0-19.631,0-29.893,0c0-8.853,0-17.236,0-26.106c10.009,0,19.935,0,30.282,0
		c0-15.735,0-31,0-46.689c11.621-4.462,23.015-8.837,34.741-13.339c1.254,4.267,0.521,8.211,0.649,12.081
		c0.127,3.828,0.029,7.663,0.029,11.494c0,3.998,0,7.997,0,11.995c0,3.832,0,7.663,0,11.495c0,3.969,0,7.937,0,12.312
		c26.599,0,52.839,0,79.285,0c1.185,4.574,0.451,8.873,0.581,13.108c0.132,4.317,0.029,8.642,0.029,13.697
		c-26.648,0.014-53.049,0-79.249,0.009c-1.267,1.063-0.927,2.306-0.927,3.427c-0.004,36.318,0.017,72.636,0.015,108.954
		c0,5.198,0.779,10.315,2.299,15.226c4.368,14.109,13.412,21.086,28.343,22.672c5.452,0.579,10.92,0.385,16.388-0.758
		c11.01-2.302,18.448-8.763,22.779-18.905c2.421-5.67,3.735-11.678,4.275-17.837c0.071-0.815,0.225-1.622,0.438-3.125
		c10.907-0.091,21.777-0.188,32.641,0.092C916.674,619.621,897.785,648.682,857.069,652.081z"/>
	<path style="fill:#DC9D2A;" d="M1201.963,448.64c0,10.756,0,21.236,0,32.67c3.07-4.76,5.598-8.781,8.523-12.536
		c10.977-14.091,25.402-22.149,42.958-24.677c9.241-1.331,18.502-1.714,27.814-0.178c6.086,1.004,11.421,3.33,16.323,7.349
		c0,10.372,0,20.812,0,31.248c-2.05,0.764-3.295-0.658-4.51-1.597c-19.937-15.416-45.934-9.687-61.855,3.149
		c-13.695,11.041-21.326,25.553-25.282,42.363c-1.805,7.672-2.309,15.442-2.309,23.277c-0.001,22.828-0.007,45.656,0,68.484
		c0,0.988,0.11,1.977,0.2,3.485c7.146,0,14.229,0,21.594,0c0,8.765,0,17.005,0,25.203c-3.691,1.044-70.08,1.421-80.174,0.465
		c0-8.496,0-17.03,0-25.942c7.415,0,14.697,0,22.312,0c0-48.918,0-97.464,0-146.378c-7.357,0-14.623,0-22.601,0
		c-0.123-8.912-0.029-17.475-0.064-26.385C1163.886,448.64,1182.614,448.64,1201.963,448.64z"/>
</g>
</svg>
