<?xml version="1.0" encoding="iso-8859-1"?>
<!-- Generator: Adobe Illustrator 27.0.0, SVG Export Plug-In . SVG Version: 6.00 Build 0)  -->
<svg version="1.1" id="Layer_1" xmlns="http://www.w3.org/2000/svg" xmlns:xlink="http://www.w3.org/1999/xlink" x="0px" y="0px"
	 viewBox="0 0 1532 354" style="enable-background:new 0 0 1532 354;" xml:space="preserve">
<g>
	<path style="fill:#D32931;" d="M354,0c0.064,1.659,0.185,3.318,0.185,4.977c0.009,114.682,0.009,229.364,0,344.047
		c0,1.659-0.121,3.318-0.185,4.977c-118,0-236,0-354,0C0,236,0,118,0,0C118,0,236,0,354,0z M265.621,88.919
		c-5.479-1.044-173.394-0.835-176.871,0.176c0,58.732,0,117.47,0,176.299c29.605,0,58.846,0,88.497,0c0-29.569,0-58.828,0-88.457
		c29.671,0,58.932,0,88.374,0C265.621,147.331,265.621,118.1,265.621,88.919z"/>
	<path style="fill:#514E4E;" d="M1530.934,128.153c0.355-0.051,0.711-0.102,1.066-0.153c0,38,0,76,0,114
		c-0.332,0.003-0.663,0.007-0.995,0.01C1530.981,204.058,1530.958,166.106,1530.934,128.153z"/>
	<path style="fill:#060606;" d="M1060.281,265.602c-7.777-8.053-15.638-16.192-23.986-24.836c0-36.769,0-74.412,0-112.447
		c7.809-7.632,15.778-15.421,24.063-23.519c26.836,0,53.952,0,81.563,0c0-20.226,0-40.116,0-60.366c13.543,0,26.598,0,39.998,0
		c0,65.632,0,131.356,0,196.638c-8.067,8.292-15.955,16.401-23.863,24.53C1125.476,265.602,1093.011,265.602,1060.281,265.602z
		 M1074.999,184.997c0,12.48-0.034,24.961,0.014,37.441c0.026,6.852,2.817,9.609,9.728,9.624
		c16.308,0.036,32.615,0.031,48.923,0.002c7.263-0.013,9.932-2.584,9.949-9.895c0.059-24.628,0.06-49.256,0-73.883
		c-0.018-7.557-2.758-10.252-10.229-10.273c-15.975-0.046-31.95,0.068-47.924-0.049c-7.803-0.057-10.637,3.923-10.521,10.591
		C1075.15,160.7,1074.999,172.85,1074.999,184.997z"/>
	<path style="fill:#090808;" d="M1336.063,213.635c8.592,8.263,16.746,16.104,25.261,24.293
		c-9.504,9.31-18.858,18.474-28.252,27.677c-32.546,0-65.012,0-97.874,0c-7.635-7.937-15.476-16.087-24.02-24.969
		c0-36.511,0-74.305,0-111.465c8.041-8.355,15.764-16.38,23.385-24.298c32.998,0,65.628,0,98.348,0
		c7.772,7.942,15.565,15.906,23.88,24.403c0,22.747,0,46.349,0,70.367c-35.558,0-70.959,0-106.451,0
		c-0.739,2.293-0.422,4.287-0.434,6.233c-0.038,6.164-0.111,12.331,0.043,18.492c0.112,4.461,2.621,7.053,6.997,7.624
		c1.149,0.15,2.329,0.075,3.495,0.075c16.994,0.004,33.989-0.093,50.981,0.07c4.171,0.04,7.266-1.29,10.116-4.285
		C1326.112,223.044,1331.011,218.546,1336.063,213.635z M1318.12,168.085c0-7.658,0.096-14.792-0.034-21.921
		c-0.087-4.803-2.405-7.274-7.158-8.007c-1.304-0.201-2.652-0.148-3.98-0.149c-15.297-0.009-30.595-0.009-45.892-0.002
		c-1.823,0.001-3.622,0.018-5.438,0.475c-3.335,0.839-5.432,3.045-5.55,6.225c-0.288,7.746-0.094,15.509-0.094,23.377
		C1272.832,168.085,1295.214,168.085,1318.12,168.085z"/>
	<path style="fill:#090808;" d="M640.731,104.861c33.314,0,65.782,0,98.16,0c7.989,8.012,15.858,15.905,23.894,23.964
		c0,23.307,0,46.768,0,70.643c-35.413,0-70.817,0-105.663,0c-1.722,1.285-1.263,2.551-1.269,3.653
		c-0.038,6.83-0.091,13.661,0.011,20.49c0.083,5.557,2.708,8.371,8.262,8.405c18.491,0.112,36.983,0.031,55.474,0.054
		c2.901,0.004,5.095-1.371,6.95-3.374c4.755-5.134,9.453-10.322,14.535-15.883c9.265,8.898,17.59,16.893,26.156,25.121
		c-9.637,9.447-19.003,18.629-28.286,27.73c-32.714,0-65.186,0-97.99,0c-7.73-8.031-15.575-16.182-23.864-24.793
		c0-36.964,0-74.768,0-111.215C625.501,120.841,633.188,112.775,640.731,104.861z M655.914,167.984c23.069,0,45.45,0,68.136,0
		c0-7.701,0.124-15.152-0.052-22.596c-0.09-3.794-2.24-5.96-5.956-6.981c-1.638-0.45-3.292-0.401-4.951-0.401
		c-15.464-0.004-30.928-0.002-46.392-0.003c-1.828,0-3.622,0.058-5.424,0.576c-3.295,0.947-5.213,3.156-5.298,6.41
		C655.78,152.588,655.914,160.195,655.914,167.984z"/>
	<path style="fill:#070606;" d="M1530.934,128.153c0.024,37.952,0.047,75.905,0.071,113.857
		c-7.968,7.777-15.936,15.553-24.223,23.641c-31.783,0-64.09,0-96.775,0c-7.903-7.728-15.983-15.629-24.058-23.525
		c0-37.951,0-75.749,0-113.139c8.003-8.204,15.776-16.172,23.521-24.112c32.844,0,65.472,0,97.999,0
		C1515.354,112.697,1523.144,120.425,1530.934,128.153z M1424.563,184.972c0,12.494-0.043,24.989,0.017,37.483
		c0.034,7.023,2.643,9.579,9.665,9.604c10.662,0.038,21.324,0.011,31.986,0.01c6.164-0.001,12.33,0.104,18.491-0.042
		c5.142-0.122,7.904-2.935,8.272-8.049c0.083-1.16,0.015-2.331,0.015-3.498c0-16.992,0-33.985,0-50.977
		c0-7.497,0.08-14.994-0.029-22.49c-0.083-5.73-2.84-8.543-8.488-8.99c-0.994-0.079-1.998-0.021-2.998-0.021
		c-15.16-0.001-30.32-0.002-45.48,0.002c-1.332,0-2.685-0.101-3.992,0.089c-4.821,0.701-6.999,3.05-7.398,7.898
		c-0.109,1.325-0.06,2.663-0.06,3.996C1424.562,161.65,1424.563,173.311,1424.563,184.972z"/>
	<path style="fill:#090808;" d="M929.758,240.841c-8.228,8.589-16.053,16.759-23.69,24.731c-30.697,0-60.82,0-91.069,0
		c-9.427-9.052-18.89-18.14-28.121-27.775c8.515-7.862,16.799-15.511,25.401-23.454c4.831,4.558,9.634,8.845,14.141,13.424
		c3.144,3.195,6.596,4.466,11.12,4.392c14.657-0.239,29.321-0.076,43.982-0.095c7.462-0.01,10.322-2.776,10.466-10.1
		c0.059-2.998,0.058-5.998-0.001-8.996c-0.101-5.155-1.582-7.044-6.428-7.887c-8.334-1.45-16.698-2.725-25.033-4.171
		c-16.999-2.95-33.997-5.902-50.971-8.993c-5.281-0.962-10.185-2.941-14.087-6.893c-3.439-3.482-5.311-7.705-5.352-12.509
		c-0.127-14.654-0.046-29.309-0.046-43.072c8.266-8.54,16.01-16.54,23.781-24.568c30.571,0,61.042,0,92.406,0
		c7.826,8.408,16.086,17.283,24.661,26.495c-7.498,7.139-15.766,15.01-24.218,23.056c-3.314-2.208-5.78-5.106-8.467-7.719
		c-9.42-9.159-6.736-8.744-21.328-8.71c-12.495,0.029-24.991-0.007-37.486,0.021c-1.656,0.004-3.359,0.008-4.959,0.37
		c-4.408,0.997-6.401,3.55-6.513,8.139c-0.069,2.831-0.045,5.665-0.005,8.496c0.061,4.345,1.41,6.148,5.531,6.893
		c7.996,1.445,16.022,2.724,24.029,4.107c17.331,2.995,34.661,5.993,51.98,9.049c1.945,0.343,3.844,1.002,5.727,1.625
		c9.286,3.072,14.292,9.64,14.475,19.292C929.968,211.137,929.758,226.292,929.758,240.841z"/>
	<path style="fill:#080707;" d="M498.205,129.318c8.097-8.477,15.794-16.535,23.278-24.371c24.64,0,48.741,0,73.091,0
		c0,10.98,0,21.728,0,32.499c-1.202,0.986-2.591,0.528-3.858,0.532c-13.662,0.04-27.324,0.025-40.987,0.025
		c-1.166,0-2.334-0.039-3.499,0.008c-6.686,0.273-9.278,2.909-9.283,9.603c-0.022,25.992-0.009,51.983-0.009,77.975
		c0,13.154,0,26.307,0,39.816c-12.925,0-25.639,0-38.339,0C497.876,261.013,497.58,141.04,498.205,129.318z"/>
	<path style="fill:#090908;" d="M1007.473,265.532c-12.889,0-25.466,0-38.023,0c-0.821-1.951-0.431-3.794-0.432-5.581
		c-0.028-36.492-0.021-72.983-0.021-109.475c0-1,0.009-2-0.001-2.999c-0.072-7.342-2.191-9.454-9.513-9.471
		c-3.79-0.009-7.581-0.002-11.518-0.002c0-11.219,0-21.973,0-33.009c19.89,0,39.607,0,59.294,0
		C1007.906,108.924,1008.124,257.948,1007.473,265.532z"/>
	<path style="fill:#0A0909;" d="M968.171,81.714c0-12.609,0-24.733,0-36.851c3.424-1.003,31.258-1.3,39.83-0.397
		c0,12.322,0,24.675,0,37.248C994.751,81.714,981.69,81.714,968.171,81.714z"/>
</g>
</svg>
