<?xml version="1.0" encoding="iso-8859-1"?>
<!-- Generator: Adobe Illustrator 27.0.0, SVG Export Plug-In . SVG Version: 6.00 Build 0)  -->
<svg version="1.1" id="Layer_1" xmlns="http://www.w3.org/2000/svg" xmlns:xlink="http://www.w3.org/1999/xlink" x="0px" y="0px"
	 viewBox="0 0 1729.283 622" style="enable-background:new 0 0 1729.283 622;" xml:space="preserve">
<g>
	<path style="fill:#E7654A;" d="M0,13c0.351,0.052,0.702,0.105,1.053,0.157c-0.018,0.833-0.051,1.665-0.051,2.498
		c0.002,197.772,0.006,395.543,0.01,593.315C0.675,608.98,0.337,608.99,0,609C0,410.333,0,211.667,0,13z"/>
	<path style="fill:#F1AE97;" d="M818.065,621.124c-0.097,0.286-0.119,0.578-0.065,0.876c-9.667,0-19.333,0-29,0
		c0.023-0.289-0.001-0.574-0.073-0.855C798.64,621.138,808.352,621.131,818.065,621.124z"/>
	<path style="fill:#F2B19A;" d="M790.945,0.894C791.062,0.602,791.08,0.304,791,0c8.667,0,17.333,0,26,0
		c-0.048,0.295-0.027,0.585,0.065,0.87C808.358,0.878,799.651,0.886,790.945,0.894z"/>
	<path style="fill:#DF2126;" d="M790.945,0.894c8.707-0.008,17.413-0.016,26.12-0.024c85.091,4.161,156.314,38.184,215.054,99.458
		c-32.409,39.586-64.566,78.864-97.009,118.491c-27.006-36.303-62.206-58.857-106.625-65.625
		c-35.104-5.349-68.764,0.392-99.947,17.572c-60.493,33.327-94.022,100.789-80.159,171.088
		c13.202,66.942,67.697,120.224,140.887,127.638c66.847,6.771,126.951-29.494,154.528-81.509c-53.606,0-107,0-160.579,0
		c0-44.466,0-88.529,0-132.787c107.473,0,214.731,0,322.563,0c0,75.01,0,149.993,0,224.976c0.265,0.031,0.53,0.061,0.795,0.092
		c66.338-156.139,132.676-312.278,199.039-468.478c56.567,0,112.858,0,169.182,0c1.41,0.846,1.624,2.436,2.186,3.756
		c64.554,151.631,129.082,303.274,193.612,454.915c19.129,44.951,38.26,89.902,57.396,134.849c0.39,0.915,0.861,1.794,1.295,2.69
		c-0.122,0.721-0.522,1.266-1.248,1.326c-1.16,0.095-2.33,0.074-3.496,0.074c-60.655,0.003-121.309,0.002-181.964,0.002
		c-0.987,0-1.974,0-3.576,0c-12.324-29.012-24.675-58.085-37.009-87.121c-74.351,0-148.314,0-222.739,0
		c-12.158,28.671-24.371,57.474-36.672,86.483c-89.581,0-179.18,0-269.314,0c0-12.193,0-24.418,0-37.404
		c-47.807,30.625-99.298,47.158-155.2,49.767c-9.713,0.007-19.426,0.014-29.138,0.021c-28.015-1.738-55.512-6.339-82.117-15.454
		c-30.749-10.534-59.428-25.168-85.558-44.571c-27.362-20.319-50.919-44.374-70.392-72.401
		c-21.983-31.639-37.56-66.147-46.855-103.528c-2.65-10.66-4.352-21.487-6.312-33.361c-12.325,17.787-26.887,32.302-44.215,43.956
		c-17.35,11.669-36.263,20.202-56.428,27.764c59.139,61.808,117.944,123.266,177.262,185.261c-71.873,0-143.032,0-214.954,0
		c-60.222-63.01-120.934-126.533-181.647-190.055c-0.302,0.14-0.605,0.281-0.907,0.421c0,63.2,0,126.4,0,189.385
		c-1.712,0.872-3.06,0.577-4.358,0.578c-56.15,0.017-112.3,0.015-168.449,0.007c-0.995,0-1.99-0.115-2.984-0.176
		C1.008,411.199,1.004,213.427,1.002,15.655c0-0.833,0.033-1.665,0.051-2.498c1.829-0.052,3.658-0.15,5.487-0.15
		C97.854,13,189.168,12.977,280.481,13.019c21.167,0.01,42.321,1.013,63.245,4.194c33.597,5.107,65.965,14.182,95.478,31.773
		c13.963,8.323,26.683,18.202,38.117,29.713c15.282,15.385,27.657,32.826,36.356,52.754c5.474,12.541,9.354,25.601,12.248,38.964
		c0.166,0.764,0.069,1.643,0.843,2.27c1.522-0.395,1.711-1.898,2.263-2.993c11.984-23.79,27.264-45.363,44.661-65.418
		c10.378-11.963,22.099-22.641,34.231-32.835c23.255-19.54,49.181-34.772,76.992-46.71c21.908-9.404,44.696-16.121,68.312-19.9
		C765.737,2.828,778.324,1.746,790.945,0.894z M177.09,285.307c13.436,0,26.413,0.03,39.389-0.006
		c22.986-0.064,45.974-0.01,68.956-0.325c10.362-0.142,20.494-2.261,30.179-6.024c16.473-6.401,28.873-17.024,34.344-34.397
		c3.146-9.992,3.453-20.19,2.225-30.603c-2.245-19.031-11.699-32.852-28.717-41.53c-13.658-6.964-28.473-9.156-43.489-9.32
		c-33.644-0.367-67.293-0.178-100.941-0.207c-0.639-0.001-1.342-0.115-1.946,0.778C177.09,203.858,177.09,244.275,177.09,285.307z
		 M1451.101,387.51c-20.2-49.948-40.232-99.479-60.458-149.49c-19.821,50.092-39.408,99.592-59.151,149.49
		C1371.519,387.51,1410.925,387.51,1451.101,387.51z"/>
</g>
</svg>
