<?xml version="1.0" encoding="iso-8859-1"?>
<!-- Generator: Adobe Illustrator 27.0.0, SVG Export Plug-In . SVG Version: 6.00 Build 0)  -->
<svg version="1.1" id="Layer_1" xmlns="http://www.w3.org/2000/svg" xmlns:xlink="http://www.w3.org/1999/xlink" x="0px" y="0px"
	 viewBox="0 0 1555 562" style="enable-background:new 0 0 1555 562;" xml:space="preserve">
<g>
	<path style="fill:#E98E3D;" d="M244,0c4.557,2.692,9.173,5.289,13.659,8.094c9.586,5.996,19.326,11.728,29.186,17.257
		c1.697,0.952,3.434,1.832,5.152,2.746c0.407,2.113-0.919,3.36-2.244,4.67c-4.494,4.442-8.946,8.926-13.414,13.394
		c-38.684,38.684-77.373,77.362-116.027,116.075c-1.345,1.347-3.388,2.315-3.313,4.706c-15.21,0.096-30.421,0.192-45.648,0.288
		c0,16.168,0,31.843,0,47.938c9.424,0,18.533,0,27.643,0c0.069,2.189-1.794,3.084-3.027,4.323
		c-13.49,13.558-27.026,27.069-40.55,40.593c-30.223,30.223-60.439,60.453-90.692,90.646C3.378,352.073,2.405,354.119,0,354
		c0-71.333,0-142.667,0-214c4.679-1.003,8.153-4.272,12.15-6.537c17.025-9.647,34.002-19.381,50.948-29.165
		c17.961-10.37,35.849-20.868,53.805-31.247c16.808-9.716,33.672-19.335,50.496-29.023c18.118-10.433,36.271-20.809,54.303-31.389
		C228.82,8.462,236.29,4.865,243,0C243.333,0,243.667,0,244,0z"/>
	<path style="fill:#EC993F;" d="M0,354c2.405,0.119,3.378-1.927,4.725-3.271c30.253-30.193,60.469-60.423,90.692-90.646
		c13.524-13.524,27.061-27.035,40.55-40.593c1.233-1.239,3.095-2.135,3.027-4.323c4.27-0.205,8.54-0.419,13.22,0.187
		c0,10.643,0,21.051,0,31.761c2.245,0,4.054,0,5.862,0c23.146,0.001,46.291-0.003,69.437,0.014c1.823,0.001,3.646,0.154,5.469,0.236
		c0.387,1.923-0.839,3.038-2.041,4.212c-2.364,2.308-4.64,4.707-7.033,6.983c-1.26,1.199-2.218,2.432-1.915,4.283
		c-1.827,0.051-3.655,0.146-5.482,0.147c-33.287,0.011-66.574,0.003-99.861,0.033c-1.768,0.002-3.609-0.356-5.3,0.324
		c0,15.959,0,31.669,0,47.84c13.695,0,27.085,0,40.538,0c0,20.913,0,41.361,0,61.809c-2.374-0.03-3.337,2.007-4.685,3.351
		c-24.825,24.758-49.608,49.558-74.398,74.351c-2.683,2.683-5.234,5.523-8.708,7.255c-1.178-0.59-2.391-1.12-3.529-1.779
		c-16.086-9.311-32.097-18.756-48.287-27.881C8.293,426.046,4.672,422.951,0,422C0,399.333,0,376.667,0,354z"/>
	<path style="fill:#F2B744;" d="M243,562c-2.965-2.955-7.345-3.803-10.233-6.872c1.809-0.672,2.844-2.267,4.121-3.544
		c44.889-44.856,89.759-89.731,134.631-134.604c0.824-0.824,1.61-1.691,2.476-2.47c1.164-1.047,1.074-2.344,0.879-3.688
		l-0.078-0.053c2.913,1.027,4.209-1.298,5.789-2.878c33.899-33.869,67.773-67.763,101.686-101.617
		c1.347-1.345,2.321-3.392,4.726-3.275c0.05,1.828,0.143,3.656,0.143,5.484c0.006,35.796,0.006,71.591-0.018,107.387
		c-0.001,1.809,0.299,3.651-0.364,5.677c-14.649,8.462-29.433,17.004-44.219,25.544c-18.105,10.457-36.211,20.911-54.317,31.367
		c-20.693,11.95-41.387,23.899-62.077,35.853c-19.395,11.205-38.779,22.429-58.183,33.62C259.938,552.558,251.76,556.922,244,562
		C243.667,562,243.333,562,243,562z"/>
	<path style="fill:#464343;" d="M1553.974,159.163c0.342-0.054,0.684-0.109,1.026-0.163c0,19.667,0,39.333,0,59
		c-0.333,0.001-0.667,0.001-1,0.002C1553.992,198.389,1553.983,178.776,1553.974,159.163z"/>
	<path style="fill:#262525;" d="M1041.039,408.046c-21.666,0.082-41.069-3.426-59.149-12.081
		c-40.102-19.197-64.826-50.529-71.915-94.744c-5.855-36.517,2.668-69.757,25.651-98.778c20.328-25.667,47.199-41.156,79.294-46.996
		c25.842-4.702,51.594-3.109,76.075,6.702c42.888,17.188,70.102,48.276,78.956,94.077c5.846,30.244,1.445,59.214-13.828,86.217
		c-13.706,24.232-33.41,41.96-58.701,53.526C1079.002,404.393,1059.679,408.465,1041.039,408.046z M1102.085,280.906
		c0.093-5.712-0.755-11.276-1.986-16.815c-6.377-28.693-30.915-50.711-62.517-49.368c-20.197,0.859-36.33,9.12-47.812,25.531
		c-13.239,18.922-15.752,39.889-9.127,61.831c5.469,18.115,16.759,31.555,34.144,39.41c10.682,4.826,21.923,6.262,33.601,4.668
		c10.775-1.471,20.621-5.129,29.098-11.953C1094.474,320.534,1101.63,302.237,1102.085,280.906z"/>
	<path style="fill:#262525;" d="M1553.974,159.163c0.009,19.613,0.017,39.226,0.026,58.839c-1.823,0.083-3.646,0.237-5.47,0.239
		c-20.493,0.017-40.985-0.002-61.478,0.035c-1.617,0.003-3.318-0.456-5.311,0.704c0,61.342,0,122.904,0,184.685
		c-23.014,0-45.572,0-68.576,0c0-61.81,0-123.37,0-185.369c-24.512,0-48.584,0-72.889,0c0-19.86,0-39.281,0-58.715
		c0.772-0.928,1.843-0.566,2.785-0.566c69.475-0.018,138.95-0.017,208.425-0.01C1552.317,159.005,1553.146,159.108,1553.974,159.163
		z"/>
	<path style="fill:#272626;" d="M663.477,158.288c22.943,0,45.382,0,68.091,0c0,81.548,0,162.89,0,244.474
		c-22.69,0-45.258,0-68.091,0C663.477,321.318,663.477,239.974,663.477,158.288z"/>
	<path style="fill:#F1AF43;" d="M486.997,303c-2.405-0.116-3.379,1.93-4.726,3.275c-33.913,33.854-67.787,67.748-101.686,101.617
		c-1.581,1.579-2.876,3.905-5.789,2.878c0.014-0.667-0.111-1.252-0.518-1.843c-10.405-15.134-20.82-30.26-31.159-45.439
		c-5.581-8.193-11.022-16.481-16.527-24.726c0.642-2.024,2.359-3.188,3.753-4.583c27.423-27.454,54.865-54.889,82.304-82.327
		c23.199-23.199,46.389-46.407,69.621-69.574c1.349-1.346,2.323-3.395,4.73-3.278c0.051,0.993,0.147,1.985,0.147,2.978
		c0.003,39.347-0.001,78.695-0.012,118.042C487.134,301.013,487.045,302.007,486.997,303z"/>
	<path style="fill:#EEA641;" d="M487,179c-2.408-0.118-3.381,1.932-4.73,3.278c-23.232,23.166-46.422,46.375-69.621,69.574
		c-27.438,27.438-54.881,54.873-82.304,82.327c-1.394,1.395-3.111,2.559-3.753,4.583c-3.258-3.888-6.138-8.024-8.704-12.709
		c2.199-1.137,4.123-2.044,5.964-3.096c12.712-7.269,24.349-15.78,32.182-28.536c6.3-10.26,9.982-21.465,10.838-33.434
		c0.652-9.112,0.698-18.282-0.871-27.357c-1.505-8.703-4.168-16.975-8.396-24.807c-3.369-6.242-8.438-11.055-12.703-16.541
		c0.581-1.863,2.214-2.866,3.482-4.136c25.481-25.522,50.994-51.012,76.471-76.539c1.353-1.356,3.334-2.384,3.197-4.775
		c3.277,0.864,5.896,3.01,8.764,4.633c13.284,7.52,26.512,15.139,39.693,22.838c3.518,2.055,6.8,4.515,10.49,6.99
		C487,153.767,487,166.383,487,179z"/>
	<path style="fill:#EB943F;" d="M156.998,166.942c-0.075-2.391,1.968-3.359,3.313-4.706
		c38.654-38.713,77.344-77.391,116.027-116.075c4.468-4.468,8.92-8.952,13.414-13.394c1.325-1.31,2.651-2.556,2.244-4.67
		c6.914,3.254,13.251,7.521,19.849,11.328c13.077,7.547,26.1,15.186,39.145,22.787c0.039,2.182-1.824,3.075-3.06,4.314
		c-22.458,22.517-44.954,44.997-67.441,67.485c-9.301,9.301-18.601,18.604-27.905,27.902c-1.405,1.404-3.104,2.645-2.586,5.032
		c-1.82,0.054-3.64,0.155-5.461,0.156c-25.702,0.013-51.404,0.019-77.106,0.008C163.954,167.106,160.476,167,156.998,166.942z"/>
	<path style="fill:#EC9C40;" d="M249.998,166.944c-0.518-2.387,1.181-3.628,2.586-5.032c9.305-9.298,18.604-18.601,27.905-27.902
		c22.488-22.488,44.983-44.967,67.441-67.485c1.236-1.239,3.099-2.131,3.06-4.314c10.034,5.17,19.625,11.115,29.387,16.762
		c5.75,3.326,11.648,6.414,17.255,9.964c6.533,4.137,13.185,8.064,19.792,12.073c3.467,2.104,7.573,3.003,10.628,5.822
		c0.137,2.391-1.844,3.419-3.197,4.775c-25.477,25.526-50.99,51.016-76.471,76.539c-1.268,1.27-2.901,2.273-3.482,4.136
		c-10.294-8.756-21.414-15.98-34.66-19.586c-12.715-3.462-25.67-5.069-38.782-5.546
		C264.314,166.891,257.153,167.001,249.998,166.944z"/>
	<path style="fill:#EEA641;" d="M151.887,372.995c0,12.311,0,24.621,0,36.443c1.176,1.069,1.952,1.297,2.815,1.297
		c21.258-0.002,42.516-0.001,64.48-0.001c0-8.848,0-17.291,0-25.734c2.384,0.488,3.579-1.267,4.96-2.647
		c9.589-9.58,19.172-19.167,28.756-28.751c1.388-1.388,2.602-3.11,4.98-2.603c4.954,6.302,8.77,13.353,13.18,20.013
		c4.358,6.58,8.713,13.162,13.07,19.743c-1.46,2.728-4.381,3.877-6.466,5.97c-36.395,36.551-72.881,73.011-109.381,109.457
		c-2.473,2.469-4.726,5.057-6.403,8.127c-7.008-2.567-13.091-6.899-19.421-10.652c-16.072-9.527-32.319-18.746-48.474-28.124
		c-9.45-5.486-18.931-10.918-28.409-16.356c-0.576-0.331-1.203-0.551-1.477-1.224c3.475-1.732,6.025-4.572,8.708-7.255
		c24.79-24.793,49.573-49.593,74.398-74.351C148.55,375.002,149.513,372.966,151.887,372.995z"/>
	<path style="fill:#EDA144;" d="M232.981,247.365c1.906-0.67,3.993,0.212,6.1-0.752c-0.039-2.71-1.711-3.633-4.096-3.687
		c-2.995-0.069-5.993-0.023-8.99-0.026c-1.808-0.001-3.616,0-5.81,0c-0.683-5.496-0.19-10.74-0.361-15.629
		c1.242-1.368,2.48-1.01,3.6-1.012c14.152-0.021,28.306-0.126,42.456,0.047c5.626,0.069,11.251,0.76,16.597,2.759
		c10.531,3.936,16.38,11.535,17.36,22.719c1.58,18.02-9.713,28.392-25.388,31.185c-5.267,0.939-10.569,0.954-15.888,0.938
		c-12.637-0.039-25.275-0.012-38.598-0.012c-0.233-5.421-0.087-10.649-0.106-16.513c4.967-0.047,9.717-0.15,14.465-0.112
		c2.623,0.021,4.577-0.706,5.166-3.537c0.027-0.132-0.048-0.285-0.163-0.889c-5.717,0-11.525,0-17.334,0
		c-0.303-1.851,0.655-3.084,1.915-4.283c2.393-2.277,4.669-4.675,7.033-6.983C232.142,250.403,233.369,249.288,232.981,247.365z"/>
	<path style="fill:#F1AF43;" d="M161.877,514.309c1.677-3.07,3.93-5.657,6.403-8.127c36.5-36.446,72.987-72.906,109.381-109.457
		c2.085-2.094,5.006-3.242,6.466-5.97c4.549,5.282,7.774,11.484,11.858,17.09c0.579,0.795,1.135,1.605,2.104,2.978
		c25.396,0,51.09,0,76.784,0c0.195,1.345,0.285,2.641-0.879,3.688c-0.865,0.779-1.652,1.645-2.476,2.47
		c-44.872,44.873-89.742,89.748-134.631,134.604c-1.277,1.276-2.312,2.871-4.121,3.544c-6.645-2.638-12.49-6.76-18.666-10.244
		c-16.723-9.433-33.267-19.183-49.889-28.796C163.352,515.591,162.451,515.172,161.877,514.309z"/>
	<path style="fill:#EEA641;" d="M257.878,351c-2.378-0.507-3.592,1.215-4.98,2.603c-9.585,9.584-19.167,19.171-28.756,28.751
		c-1.381,1.38-2.576,3.135-4.96,2.647c0-15.799,0-31.598,0-47.754c9.779,0,19.507,0,29.626,0
		C251.881,341.529,255.289,345.986,257.878,351z"/>
</g>
</svg>
