<?xml version="1.0" encoding="iso-8859-1"?>
<!-- Generator: Adobe Illustrator 27.0.0, SVG Export Plug-In . SVG Version: 6.00 Build 0)  -->
<svg version="1.1" id="Layer_1" xmlns="http://www.w3.org/2000/svg" xmlns:xlink="http://www.w3.org/1999/xlink" x="0px" y="0px"
	 viewBox="0 0 1579 441" style="enable-background:new 0 0 1579 441;" xml:space="preserve">
<g>
	<path style="fill:#483B67;" d="M131.042,0.965c13.033,1.381,25.396,5.187,36.965,11.192c34.82,18.075,55.558,46.899,62.625,85.185
		c6.121,33.164-0.215,64.138-19.494,92.121c-5.114,7.423-10.983,14.228-17.842,20.134c-1.763,1.518-3.46,3.112-5.41,4.873
		c34.739,30.857,49.322,70.604,52.257,115.936c-16.486,0-32.394,0-48.774,0c-0.404-5.989-0.557-11.774-1.293-17.511
		c-4.951-38.589-32.832-63.882-64.919-71.009c-13.795-3.064-27.869-4.498-41.658-7.571c-11.065-2.466-21.789-5.832-31.891-11.043
		c-0.728-0.376-1.509-0.65-2.819-1.208c0,36.247,0,72.137,0,107.741c-2.015,1.306-3.728,0.848-5.349,0.853
		c-12.829,0.04-25.659,0.011-38.488,0.037C3.302,330.699,1.62,330.411,0,331c0-75.667,0-151.333,0-227
		c0.699-0.302,0.858-0.899,0.939-1.589c0.881-7.439,2.504-14.717,4.983-21.783C21.03,37.56,50.774,11.159,95.564,1.775
		C98.033,1.258,100.838,1.853,103,0c5.667,0,11.333,0,17,0C123.535,1.987,127.36,0.66,131.042,0.965z M48.754,116.202
		c0.17,22.051,6.18,38.622,18.832,52.426c21.179,23.108,52.611,27.673,77.92,14.799c23.63-12.02,36.303-32.279,38.28-58.543
		c1.758-23.345-6.085-43.406-23.569-59.424c-19.172-17.565-48.373-22.421-72.466-10.164C61.77,68.514,49.773,90.831,48.754,116.202z
		"/>
	<path style="fill:#493C68;" d="M1027,0c-0.542,1.282-0.317,2.632-0.317,3.952c-0.011,39.828-0.014,79.657,0.019,119.485
		c0.001,1.409-0.496,2.932,0.449,4.232c0.854,0.049,1.225-0.576,1.664-1.036c18.436-19.356,41.044-31.307,67.279-35.123
		c40.757-5.929,76.483,5.22,105.562,34.994c17.385,17.8,27.378,39.483,31.05,64.004c8.084,53.979-20.395,102.542-64.121,123.7
		c-19.039,9.213-38.999,12.828-59.975,11.946c-53.141-2.234-97.201-39.821-108.653-89.992c-2.007-8.792-3.089-17.667-3.086-26.696
		c0.02-65.825-0.004-131.65-0.004-197.475c0-3.997,0.087-7.993,0.134-11.99C1007,0,1017,0,1027,0z M1115.359,297.321
		c45.951,1.675,88.931-37.837,88.977-88.996c0.044-49.147-39.951-89.223-88.291-89.542c-48.763-0.323-89.424,39.834-89.479,89.352
		C1026.511,258.905,1069.063,298.878,1115.359,297.321z"/>
	<path style="fill:#493C67;" d="M1579,222c-1.98,1.94-1.31,4.648-1.784,6.946c-9.588,46.422-37.094,77.101-81.722,92.174
		c-19.924,6.73-40.59,6.89-61.114,2.473c-45.526-9.799-82.325-47.053-90.477-93.159c-6.729-38.061,2.359-71.94,28.044-100.962
		c17.777-20.087,40.117-32.434,66.504-37.457c54.156-10.311,108.169,18.403,130.329,68.035c4.766,10.675,8.026,21.79,9.247,33.455
		c0.073,0.696,0.2,1.288,0.974,1.495C1579,204,1579,213,1579,222z M1460.472,297.322c45.861,1.547,88.581-37.853,88.753-88.76
		c0.167-49.339-39.905-89.355-88.099-89.781c-47.044-0.416-89.837,37.129-89.734,89.619
		C1371.498,262.265,1416.331,299.024,1460.472,297.322z"/>
	<path style="fill:#483C67;" d="M693,0c-0.013,51.149-0.032,102.298-0.038,153.447c-0.007,57.147-0.002,114.294-0.002,171.442
		c0,1.788,0,3.577,0,5.542c-16.406,0-32.321,0-48.422,0c-0.711-2.11-0.412-4.106-0.412-6.047
		c-0.016-106.297-0.014-212.594-0.019-318.891c0-1.831-0.07-3.662-0.107-5.492C660.333,0,676.667,0,693,0z"/>
	<path style="fill:#473B67;" d="M595,0c0.55,1.454,0.301,2.97,0.301,4.457c0.012,106.994,0.011,213.988,0.011,320.982
		c0,1.485,0,2.971,0,5.078c-16.16,0.323-32.03,0.117-47.581,0.12c-1.26-1.334-0.902-2.556-0.902-3.671
		c-0.017-108.161-0.016-216.321-0.008-324.482c0-0.828,0.117-1.656,0.179-2.484C563,0,579,0,595,0z"/>
	<path style="fill:#5DBE93;" d="M111,441c-3.263-1.957-7.037-1.186-10.535-1.775c-18.956-3.188-36.249-10.156-52.079-21.046
		c-16.687-11.479-29.368-26.288-38.094-44.527c-0.417-0.873-0.754-1.784-1.305-3.099c11.404,0,22.442,0,33.672,0
		c19.203,28.767,46.467,42.719,81.041,42.62c34.364-0.098,61.471-14.075,80.742-42.824c11.017,0,21.974,0,32.942,0
		c0.669,1.575-0.411,2.604-0.932,3.701c-9.843,20.736-25.025,36.578-44.512,48.469c-12.867,7.852-26.785,13.032-41.5,16.032
		c-3.704,0.755-7.463,1.583-11.319,1.531c-1.07-0.014-2.392-0.425-3.12,0.917C127.667,441,119.333,441,111,441z"/>
	<path style="fill:#807492;" d="M131.042,0.965C127.36,0.66,123.535,1.987,120,0c3.667,0,7.333,0,11,0
		C131.014,0.322,131.028,0.643,131.042,0.965z"/>
	<path style="fill:#483B67;" d="M449.006,126.591c0-9.204,0-18.278,0-27.554c16.26,0,32.175,0,48.354,0
		c0,77.081,0,153.971,0,230.824c-3.662,1.037-37.87,1.379-48.175,0.479c0-9.194,0-18.438,0-27.525
		c-1.42-0.612-1.834,0.211-2.281,0.807c-12.133,16.194-28.576,25.685-48.006,29.993c-17.903,3.969-36,4.287-53.901-0.158
		c-25.491-6.33-45.975-20.417-61.809-41.254c-13.671-17.991-21.635-38.299-24.379-60.749c-3.32-27.155,0.471-53.064,13.301-77.358
		c11.751-22.25,28.591-39.533,51.36-50.626c14.384-7.007,29.582-10.697,45.687-10.659c15.254,0.036,30.187,1.67,44.464,7.4
		c12.444,4.995,22.935,12.663,31.514,22.977C446.15,124.409,446.799,126.115,449.006,126.591z M306.659,218.264
		c0.22,2.652,0.309,5.323,0.696,7.949c0.386,2.619,0.982,5.218,1.638,7.786c8.361,32.736,38.834,57.367,74.368,54.242
		c12.937-1.138,24.713-5.289,34.958-13.098c22.406-17.079,32.087-39.985,29.928-67.955c-2.636-34.137-30.061-61.729-59.799-65.645
		c-19.008-2.502-36.469,1.017-51.812,12.626C315.466,170.188,305.973,191.887,306.659,218.264z"/>
	<path style="fill:#483B67;" d="M756.206,422.444c0-15.358,0-30.501,0-45.541c1.242-1.246,2.621-0.686,3.895-0.649
		c11.082,0.32,21.682-1.581,30.712-8.323c15.136-11.301,23.901-26.096,23.213-45.539c-0.19-5.365-1.753-10.461-3.836-15.392
		c-8.979-21.253-18-42.488-26.926-63.763c-19.654-46.847-39.26-93.715-58.882-140.576c-0.444-1.059-0.85-2.134-1.414-3.553
		c17.737,0,35.161,0,53.155,0c22.007,55.234,44.106,110.698,66.178,166.097c0.413-0.045,0.573-0.041,0.719-0.084
		c0.149-0.044,0.374-0.104,0.411-0.211c19.096-55.188,38.18-110.381,57.341-165.798c17.022,0,33.949,0,51.199,0
		c0.425,2.053-0.751,3.778-1.381,5.517c-11.595,31.988-23.253,63.953-34.889,95.926c-16.062,44.134-32.303,88.205-48.068,132.446
		c-4.981,13.979-10.561,27.565-18.337,40.21c-10.5,17.074-24.042,30.98-42.07,40.155c-15.677,7.979-32.419,10.569-49.83,9.617
		C757.102,422.965,756.82,422.729,756.206,422.444z"/>
	<path style="fill:#493C68;" d="M1302.638,320.344c-1.147,0.16-1.791,0.326-2.435,0.327c-8.81,0.017-17.621,0.012-26.367,0.012
		c-1.05-3.922-1.474-212.937-0.491-224.549c9.668,0,19.364,0,29.294,0C1302.638,170.863,1302.638,245.413,1302.638,320.344z"/>
	<path style="fill:#493C68;" d="M1287.818,4.996c11.932-0.011,21.693,9.532,21.82,21.333c0.129,11.961-9.769,21.722-21.978,21.674
		c-11.909-0.047-21.582-9.745-21.523-21.579C1266.196,14.563,1275.863,5.007,1287.818,4.996z"/>
</g>
</svg>
