<?xml version="1.0" encoding="iso-8859-1"?>
<!-- Generator: Adobe Illustrator 27.0.0, SVG Export Plug-In . SVG Version: 6.00 Build 0)  -->
<svg version="1.1" id="Layer_1" xmlns="http://www.w3.org/2000/svg" xmlns:xlink="http://www.w3.org/1999/xlink" x="0px" y="0px"
	 viewBox="0 0 1584.099 511.174" style="enable-background:new 0 0 1584.099 511.174;" xml:space="preserve">
<g>
	<path style="fill:#68829A;" d="M1104.099,0c0.238,0.27,0.27,0.561,0.095,0.876c-11,0.054-22,0.108-33,0.162
		c-0.032-0.346-0.063-0.692-0.095-1.038C1082.099,0,1093.099,0,1104.099,0z"/>
	<path style="fill:#CEE7CA;" d="M1583.31,109.934c0.268-0.041,0.531-0.019,0.789,0.066c0,4,0,8,0,12l-0.396,0.074l-0.402-0.01
		C1583.304,118.021,1583.307,113.978,1583.31,109.934z"/>
	<path style="fill:#183056;" d="M566.451,142.955c-11.97,0-23.709,0-36.019,0c9.418-44.276,18.759-88.19,28.017-131.714
		c1.573-1.283,2.961-0.913,4.254-0.915c15.322-0.024,30.648-0.244,45.964,0.067c9.784,0.199,19.534,0.945,28.933,4.417
		c11.741,4.337,17.928,12.77,19.282,24.863c0.966,8.627-0.096,16.939-5.699,24.126c-4.363,5.597-10.32,8.742-16.752,11.202
		c-4.523,1.729-9.284,2.458-14.613,3.367c2.98,2.093,6.029,3.452,7.915,6.258c2.451,3.648,3.959,7.669,4.984,11.874
		c3.421,14.023,6.771,28.063,10.118,42.104c0.307,1.289,0.406,2.629,0.652,4.28c-11.676,0-23.258,0-35.236,0
		c-1.607-4.481-2.071-9.433-3.075-14.245c-1.896-9.094-3.412-18.257-5.841-27.251c-1.635-6.052-4.759-9.507-11.328-9.831
		c-3.486-0.172-6.943-0.274-11.028-0.329C573.469,108.474,569.978,125.63,566.451,142.955z M581.867,65.953
		c6.668-0.01,12.927,0.189,19.214-0.557c4.326-0.513,8.543-1.172,12.439-3.214c5.98-3.134,8.477-8.2,7.594-15.38
		c-0.693-5.631-4.385-9.588-10.99-10.504c-7.209-0.999-14.506-0.33-21.704-0.375C586.183,46.179,584.071,55.855,581.867,65.953z"/>
	<path style="fill:#183056;" d="M812.569,128.604c-4.218,18.605-8.349,36.83-12.513,55.198c-11.622,0-23.064,0-34.719,0
		c9.8-46.619,21.081-92.671,30.248-139.239c10.13,0,20.229,0,30.493,0c0.144,5.247-1.683,9.999-2.15,15.708
		c2.861-2.73,5.091-5.037,7.505-7.13c11.044-9.575,23.868-13.028,38.077-9.915c10.518,2.305,17.987,8.912,22.711,18.631
		c2.964,6.097,4.404,12.59,4.615,19.258c0.432,13.659-1.861,26.835-8.45,38.991c-8.996,16.598-22.839,25.488-41.873,25.856
		c-3.979,0.077-7.935,0.212-11.898-0.86c-7.686-2.078-13.932-6.086-18.662-12.512C815.026,131.329,814.483,129.654,812.569,128.604z
		 M861.068,91.385c0.063-5.49-0.462-9.074-1.77-12.534c-2.371-6.271-6.938-9.591-13.522-9.923
		c-5.599-0.282-10.65,1.425-14.719,5.047c-8.839,7.87-13.157,17.789-11.905,29.754c0.933,8.918,6.871,15.692,14.41,15.949
		c5.862,0.2,11.51-1.036,16.29-4.994C857.763,108.136,860.419,99.321,861.068,91.385z"/>
	<path style="fill:#183056;" d="M1071.194,1.038c11-0.054,22-0.108,33-0.162c-0.245,6.521-2.247,12.729-3.552,19.046
		c-6.788,32.849-13.715,65.67-20.727,98.472c-1.772,8.29-3.274,16.598-3.995,25.326c-10.419,0-20.828,0-31.657,0
		c0.152-4.587,1.976-8.963,1.977-14.502c-1.901,2.036-3.211,3.468-4.552,4.87c-7.653,7.997-17.023,11.77-28.087,11.979
		c-8.565,0.161-16.5-1.23-23.504-6.538c-9.123-6.914-14.469-16.21-15.724-27.337c-1.826-16.195,0.568-31.879,8.775-46.268
		c6.278-11.007,15.292-18.804,27.723-22.068c12.555-3.296,24.697-2.281,36.151,4.235c2.482,1.412,4.675,3.184,6.618,5.266
		c1.802,1.931,3.329,4.08,5.079,7.144c2.585-12.596,4.936-24.365,7.433-36.103C1067.809,16.606,1068.995,8.712,1071.194,1.038z
		 M1051.105,88.759c0-1.329,0.103-2.668-0.017-3.986c-0.766-8.438-5.795-15.267-12.806-16.457
		c-6.705-1.137-12.852,0.918-18.094,5.216c-9.875,8.097-14.002,25.043-9.109,36.845c2.354,5.677,7.806,9.42,14.054,9.338
		c6.214-0.082,11.782-2.142,16.1-6.701C1047.642,106.247,1051.027,98.139,1051.105,88.759z"/>
	<path style="fill:#5AB74B;" d="M1108.509,74.159c8.171,0,15.953,0,23.848,0c0.392,4.259-1.569,8.151-1.254,12.86
		c5.274-6.692,11.421-11.252,19.161-13.46c9.55-2.724,18.716-2.357,27.242,3.321c4.619,3.077,7.787,7.17,8.941,12.697
		c1.582-0.285,1.804-1.826,2.587-2.82c8.258-10.484,19.431-14.583,32.361-14.749c10.122-0.13,17.925,4.324,23.568,12.553
		c2.566,3.743,3.964,7.976,4.213,12.596c0.389,7.224-0.594,14.322-2.324,21.25c-4.385,17.554-7.907,35.294-11.847,52.943
		c-0.139,0.623-0.433,1.212-0.735,2.036c-8.335,0-16.587,0-25.1,0c-0.146-4.834,1.49-9.233,2.411-13.703
		c3.315-16.085,7.239-32.042,10.019-48.241c0.455-2.651,0.626-5.286,0.603-7.945c-0.069-8.149-6.979-11.637-13.046-11.235
		c-7.12,0.472-12.491,4.03-16.253,10.118c-3.362,5.44-5.339,11.408-6.84,17.546c-4.181,17.09-7.364,34.396-11.052,51.594
		c-0.103,0.479-0.314,0.934-0.463,1.368c-3.55,0.968-20.211,1.127-25.297,0.242c-0.655-2.723,0.637-5.244,1.154-7.776
		c3.286-16.097,6.869-32.133,10.24-48.212c0.919-4.382,1.746-8.803,1.595-13.338c-0.232-6.96-5.941-12.275-12.863-11.575
		c-6.03,0.61-11.045,3.169-14.75,8.247c-5.029,6.891-7.47,14.821-9.366,22.905c-3.599,15.342-6.87,30.761-10.236,46.157
		c-0.287,1.313-0.564,2.594-1.368,3.901c-8.013,0-16.114,0-24.888,0C1095.363,140.276,1101.889,107.454,1108.509,74.159z"/>
	<path style="fill:#183056;" d="M685.598,47.459c17.302-4.979,34.904-7.329,52.944-3.438c3.258,0.703,6.388,1.828,9.369,3.31
		c11.228,5.581,16.643,14.883,17.054,27.206c0.269,8.055-1.6,15.865-3.385,23.636c-3.306,14.395-7.013,28.704-8.822,43.402
		c-0.08,0.649-0.35,1.275-0.602,2.16c-9.227,0-18.447,0-27.963,0c0.095-4.274,1.619-8.253,0.859-12.938
		c-6.479,8.746-14.999,13.28-25.034,14.688c-8.791,1.233-17.629,1.158-26.023-2.468c-8.881-3.837-13.736-10.708-14.866-20.233
		c-2.335-19.691,8.506-31.363,25.715-37.642c11.274-4.113,23.063-4.804,34.938-4.263c3.949,0.18,7.931-0.129,11.777,1.022
		c1.724-8.876-2.747-14.756-12.13-15.931c-10.551-1.321-20.85-0.144-30.732,3.971c-1.992,0.829-3.963,1.71-5.954,2.572
		C682.112,69.118,683.695,55.081,685.598,47.459z M729.055,100.019c-8.415-0.553-16.646-1.091-24.741,1.169
		c-3.184,0.889-6.262,2.179-8.81,4.415c-3.044,2.671-5.098,5.87-3.837,10.042c1.309,4.333,4.421,6.992,8.975,7.513
		c6.696,0.765,12.812-0.759,18.146-5.067C724.481,113.492,727.354,107.322,729.055,100.019z"/>
	<path style="fill:#5AB74B;" d="M1583.31,109.934c-0.003,4.043-0.006,8.086-0.009,12.13c-1.578,15.056-7.075,28.29-18.375,38.688
		c-8.274,7.613-18.083,12.198-29.169,14.118c-8.297,1.437-16.51,1.232-24.713-0.697c-15.986-3.76-26.216-13.835-29.635-29.56
		c-4.991-22.949,0.738-43.189,18.684-59.068c6.918-6.122,15.194-9.966,24.296-12.01c9.938-2.232,19.854-2.292,29.547,0.708
		C1570.264,79.298,1581.005,90.308,1583.31,109.934z M1506.783,132.563c0.066,1.304,0.069,3.643,0.321,5.954
		c0.916,8.397,5.592,14.433,13.302,16.118c9.818,2.146,18.627-0.249,25.243-8.07c9.604-11.354,12.458-24.753,10.214-39.183
		c-1.044-6.714-4.689-13.046-14.138-14.65c-10.346-1.756-18.668,1.66-25.097,9.65
		C1509.82,110.845,1506.925,120.757,1506.783,132.563z"/>
	<path style="fill:#5AB74B;" d="M62.183,388.725c5.729,10.404,14.081,17.834,25.131,22.232c8.566,3.409,17.509,5.048,26.637,6.022
		c15.495,1.653,30.949,0.541,46.304-1.176c18.148-2.029,36.171-5.088,53.982-9.257c7.27-1.702,14.585-3.213,21.879-4.811
		c-0.011,0.415-0.022,0.83-0.033,1.246c-35.255,12.389-70.979,23.175-107.659,30.465c-17.609,3.5-35.413,6.033-53.413,6.325
		c-12.848,0.208-25.651-0.984-37.931-4.905C20.221,429.484,7.39,419.5,1.871,401.816c-0.707-2.265-0.807-4.575-1.348-6.831
		c5.802,0.581,11.564-0.579,17.203-1.306c6.192-0.798,12.417-0.599,18.607-1.468c4.978-0.698,10.082-1.333,15.209-1.462
		c2.679-0.067,5.487-0.743,8.28-0.761C60.839,389.981,61.845,389.985,62.183,388.725z"/>
	<path style="fill:#5AB74B;" d="M151.975,362.053c8.286,14.41,21.907,20.299,37.339,22.887c12.837,2.153,25.772,2.414,38.807,1.45
		c25.941-1.918,51.337-6.808,76.545-12.934c1.452-0.353,2.94-0.562,4.411-0.837c-0.006,0.428-0.011,0.855-0.017,1.283
		c-21.457,7.513-43.173,14.204-65.145,20.024c-18.459,4.89-37.111,8.818-56.087,11.285c-11.602,1.508-23.199,2.16-34.838,1.699
		c-12.007-0.476-23.758-2.443-34.727-7.814c-12.244-5.995-19.683-15.964-23.933-28.597c-0.352-1.046-0.095-2.298-0.121-3.454
		c1.989-0.051,4.13,0.359,5.937-0.241c4.942-1.64,10.107-1.011,15.108-1.531c5.837-0.606,11.736-1.853,17.698-1.307
		c0.482,0.044,0.988-0.057,1.47-0.156C140.212,362.618,146.12,362.598,151.975,362.053z"/>
	<path style="fill:#5AB74B;" d="M1399.407,74.76c-2.072,7.179-3.986,13.812-5.997,20.78c-5.05-1.606-9.595-3.517-14.594-3.989
		c-12.138-1.148-21.948,2.788-28.962,12.825c-8.054,11.525-9.724,24.217-5.602,37.534c3.32,10.727,13.839,13.945,23.253,12.793
		c5.773-0.706,11.457-1.973,17.576-4.835c-0.967,7.154-1.856,13.74-2.735,20.242c-5.714,3.079-11.626,3.729-17.57,4.379
		c-8.593,0.939-16.955-0.025-24.969-3.155c-11.796-4.608-19.551-13.169-22.605-25.429c-4.868-19.543-1.377-37.811,10.826-53.783
		c10.359-13.558,24.845-20.069,41.814-21.181C1379.75,70.292,1389.337,71.888,1399.407,74.76z"/>
	<path style="fill:#5AB74B;" d="M380.033,341.819c-23.645,8.311-47.646,15.395-72.053,21.116
		c-13.912,3.261-27.926,6.072-42.114,7.585c-16.063,1.714-32.227,2.359-48.126-1.573c-13.71-3.391-25.425-9.767-32.064-23.077
		c-2.169-4.348-3.907-8.812-3.449-13.82c6.315,0.487,12.508-1.037,18.797-1.287c3.887-0.154,7.903-0.324,11.808-0.854
		c7.35-0.999,14.674-2.114,22.124-1.851c6.792,13.711,18.795,19.961,33.014,22.973c13.958,2.956,28.014,2.344,42.137,1.386
		c18.262-1.238,36.146-4.678,54.007-8.357c5.352-1.102,10.662-2.403,15.992-3.613C380.08,340.904,380.057,341.361,380.033,341.819z"
		/>
	<path style="fill:#183056;" d="M908.363,143.794c6.785-33.171,13.516-66.084,20.29-99.203c11.554,0,22.793,0,34.796,0
		c-6.782,33.185-13.511,66.112-20.274,99.203C931.559,143.794,920.132,143.794,908.363,143.794z"/>
	<path style="fill:#5AB74B;" d="M1442.491,89.336c3.856-5.267,8.195-10.029,13.829-13.482c7.322-4.487,15.097-5.565,23.846-3.199
		c-1.772,8.096-3.529,16.125-5.261,24.035c-1.541,0.886-2.832,0.253-4.067,0.007c-10.792-2.156-19.654,1.137-26.663,9.483
		c-4.582,5.456-7.321,11.928-8.877,18.753c-3.282,14.395-6.178,28.879-9.206,43.332c-0.306,1.46-0.469,2.942-1.487,4.121
		c-8.128,0-16.22,0-24.808,0c6.383-33.061,13.962-65.504,20.018-98.495c3.856-1.121,7.842-0.411,11.762-0.53
		c3.974-0.121,7.955-0.027,12.316-0.027c0.323,5.442-2.116,10.2-2.271,15.246c-0.456,0.766-0.938,1.533,0.114,2.452
		C1442.008,90.417,1442.249,89.876,1442.491,89.336z"/>
	<path style="fill:#5AB74B;" d="M575.096,193.04c-15.971-5.923-32.562-7.733-49.433-6.933c-16.763,0.795-33.37,2.968-49.858,6.259
		c-18.719,3.736-37.212,8.379-55.735,12.928c0.03-0.406,0.06-0.813,0.089-1.219c34.924-13.845,70.699-24.965,107.448-32.756
		c23.825-5.051,47.967-7.654,72.36-6.116c7.892,0.498,15.777,1.489,23.38,4.295c3.503,1.293,7.353,1.732,10.714,3.593
		c-0.049,0.805-0.098,1.609-0.16,2.637c-1.093,0.135-2.095,0.119-3.01,0.392c-10.002,2.988-20.172,5.359-30.212,8.18
		c-7.845,2.204-15.86,3.811-23.565,6.544C575.867,191.286,574.949,191.539,575.096,193.04z"/>
	<path style="fill:#1F3559;" d="M232.153,495.195c16.722-8.415,33.534-16.654,50.145-25.283
		c29.002-15.066,57.54-30.956,84.915-48.865c17.791-11.639,34.866-24.27,51.82-37.075c4.559,0.422,8.708-1.434,12.973-2.486
		c8.722-2.151,17.374-4.592,26.036-6.984c1.638-0.452,3.186-1.224,4.264,0.836c-5.32,4.366-10.851,8.442-16.522,12.347
		c-41.489,28.563-85.178,53.255-130.815,74.536c-26.011,12.129-52.362,23.445-79.316,33.329c-0.775,0.284-1.596,0.446-2.395,0.665
		C232.889,495.875,232.521,495.535,232.153,495.195z"/>
	<path style="fill:#5AB74B;" d="M1284.558,172.791c-8.693,0-16.965,0-25.892,0c7.176-33.3,14.28-66.261,21.376-99.189
		c8.755,0,17.013,0,25.888,0C1298.778,106.796,1291.708,139.608,1284.558,172.791z"/>
	<path style="fill:#5AB74B;" d="M486.095,224.056c-9.942-2.758-20.13-3.948-30.376-4.774c-6.651-0.536-13.272,0.23-19.898,0.507
		c-18.603,0.779-36.883,4.017-55.085,7.694c-9.89,1.998-19.73,4.245-29.593,6.38c0.008-0.556,0.017-1.112,0.025-1.668
		c28.816-10.176,58.053-19.002,87.85-25.743c22.393-5.066,45.097-8.538,68.174-8.283c10.503,0.116,20.846,1.657,30.898,4.835
		c2.208,0.698,4.411,1.432,6.257,2.918c-1.388,0.154-1.368,2.029-3.073,2.146c-6.426,0.44-12.191,3.747-18.533,4.588
		c-4.429,0.587-8.417,2.599-12.787,3.487c-7.352,1.494-14.527,3.849-21.807,5.726C486.835,222.207,485.97,222.559,486.095,224.056z"
		/>
	<path style="fill:#1F3559;" d="M547.098,359.269c-10.456,8.138-21.518,15.4-32.502,22.793
		c-18.536,12.477-37.644,23.993-57.098,34.958c-43.691,24.625-88.988,45.887-135.456,64.698c-0.299,0.121-0.645,0.127-0.968,0.187
		c0.014-0.613,0.027-1.225,0.041-1.838c15.051-7.328,30.219-14.428,45.132-22.026c43.825-22.33,84.947-48.866,123.206-79.813
		c3.853-3.116,7.462-6.551,11.682-9.203c1.803-0.084,3.689,0.144,5.396-0.305c10.335-2.719,20.614-5.653,30.947-8.378
		C540.6,359.518,543.75,358.329,547.098,359.269z"/>
	<path style="fill:#1F3559;" d="M172.126,507.188c19.08-8.951,38.396-17.42,57.065-27.221c26.21-13.76,51.865-28.449,75.929-45.795
		c12.962-9.343,25.369-19.393,38.006-29.15c1.961-0.179,3.924,0.218,5.899-0.444c8.355-2.802,17.09-4.278,25.417-7.211
		c1.482-0.522,3.182-1.1,4.552,0.46c-2.635,2.118-5.215,4.31-7.915,6.343c-39.562,29.795-82.079,54.649-126.954,75.487
		c-23.478,10.902-47.495,20.525-71.963,28.997C172.151,508.164,172.138,507.676,172.126,507.188z"/>
	<path style="fill:#476C92;" d="M1378.838,264.934c-3.709,0-6.818,0-9.782,0c-1.077-1.382-0.671-2.766-0.677-4.053
		c-0.037-8.832,0.002-17.664-0.036-26.495c-0.009-2.161,0.034-4.369-0.374-6.473c-1.677-8.665-10.336-11.533-17.011-5.63
		c-4.434,3.921-5.717,9.243-5.816,14.866c-0.132,7.496-0.011,14.997-0.05,22.495c-0.009,1.635,0.299,3.306-0.371,5.203
		c-2.994,0-6.049,0-9.13,0c-0.939-1.603-0.47-3.301-0.481-4.913c-0.054-8.498-0.034-16.997-0.02-25.495
		c0.004-2.336-0.277-4.609-0.739-6.916c-0.823-4.113-2.585-7.248-7.015-7.991c-4.228-0.709-7.87,0.662-10.663,3.89
		c-3.57,4.127-4.466,9.207-4.537,14.435c-0.106,7.831-0.01,15.664-0.047,23.495c-0.005,1.121,0.359,2.33-0.586,3.574
		c-2.805,0-5.752,0-9.061,0c0-17.464,0-34.999,0-52.737c2.712,0,5.314,0,8.026,0c1.19,2.357-0.013,4.949,0.795,7.291
		c11.868-12.211,22.961-11.851,32.28,1.224c4.542-6.978,10.8-10.433,19.231-9.691c7.957,0.7,14.164,6.141,15.2,14.04
		c0.494,3.767,0.968,7.556,0.908,11.409C1378.74,245.767,1378.838,255.077,1378.838,264.934z"/>
	<path style="fill:#5AB74B;" d="M402.057,258.475c-11.288-3.096-22.829-4.557-34.486-4.248c-18.45,0.489-36.747,2.601-54.887,6.13
		c-11.552,2.247-23.08,4.575-34.507,7.389c0.005-0.491,0.01-0.983,0.015-1.474c29.633-10.886,59.952-19.419,90.824-25.911
		c17.432-3.665,35.122-5.73,52.974-5.295c10.637,0.259,21.227,1.356,31.04,6.095c-0.415,3.521-3.801,3.136-5.748,3.584
		c-14.319,3.292-28.27,7.95-42.578,11.243C403.221,256.329,402.305,256.969,402.057,258.475z"/>
	<path style="fill:#476C92;" d="M836.77,219.537c7.989-8.429,16.773-9.06,25.992-6.057c8.279,2.696,12.12,9.56,13.951,17.47
		c1.709,7.381,1.151,14.729-1.472,21.993c-5.781,16.009-24.561,18.887-35.915,8.978c-0.727-0.634-1.464-1.256-2.411-2.068
		c-1.379,2.168,0.038,4.496-1.215,6.589c-2.584,0.589-5.331,0.26-8.361,0.207c0-26.336,0-52.351,0-78.579c3.141,0,6.08,0,9.43,0
		C836.77,198.151,836.77,208.232,836.77,219.537z M837.034,238.649c-0.108,5.315,0.924,9.454,3.072,13.299
		c5.286,9.464,18.361,9.763,23.566,0.359c4.106-7.418,4.467-15.079,1.685-23.012c-1.869-5.33-5.323-8.734-11.089-9.316
		c-6.218-0.627-11.013,1.759-14.197,7.172C837.826,230.969,836.967,235.158,837.034,238.649z"/>
	<path style="fill:#476C92;" d="M1240.152,241.067c-0.402,8.35,4.924,15.243,12.413,16.994c5.606,1.311,10.819,0.094,15.939-2.041
		c1.503-0.626,2.953-1.377,4.986-2.332c0.605,3.268,0.35,6.143,0.185,8.902c-7.28,5.762-25.308,6.256-34.21-0.225
		c-5.549-4.04-8.604-9.568-9.716-16.229c-1.516-9.08-1.249-17.858,4.406-25.749c3.043-4.247,7.16-6.809,12.044-8.367
		c4.224-1.347,8.582-1.456,12.84-0.785c6.769,1.066,11.977,4.587,15.125,10.92c2.878,5.79,3.655,11.937,3.911,18.911
		C1265.193,241.067,1252.648,241.067,1240.152,241.067z M1267.028,233.816c0.337-10.374-6.98-14.605-13.249-14.627
		c-7.846-0.027-13.842,6.581-13.392,14.627C1249.134,233.816,1257.891,233.816,1267.028,233.816z"/>
	<path style="fill:#476C92;" d="M992.063,239.348c0.106,12.984-9.242,28.049-27.031,28.182
		c-17.229,0.128-27.543-13.516-27.574-28.108c-0.031-14.414,10.558-27.806,27.268-27.964
		C980.78,211.306,991.831,224.499,992.063,239.348z M981.304,238.085c0.147-4.702-1.676-9.738-5.644-13.885
		c-5.923-6.19-15.038-6.961-21.634-0.213c-8.267,8.457-8.042,23.253,0.844,31.319c5.769,5.237,14.076,5.114,19.819-0.167
		C979.385,250.82,981.354,245.393,981.304,238.085z"/>
	<path style="fill:#476C92;" d="M1060.435,212.563c3.149-0.508,6.41-0.437,10.219,0.035c4.556,14.081,9.137,28.24,14.115,43.628
		c5.756-14.981,9.782-29.416,14.941-43.502c3.135-0.802,6.067-0.425,8.799-0.32c0.967,1.178,0.547,2.116,0.21,3.045
		c-7.193,19.812-14.38,39.625-21.601,59.427c-0.565,1.55-1.256,3.082-2.094,4.501c-5.021,8.507-11.395,11.138-21.527,8.966
		c-0.709-0.866-0.405-1.903-0.389-2.863c0.027-1.638,0.186-3.273,0.29-4.924c7.939,1.274,11.627-0.723,14.893-7.702
		c1.353-2.89,1.312-5.52,0.152-8.592c-6.152-16.302-12.057-32.698-18.04-49.063C1060.115,214.411,1059.952,213.597,1060.435,212.563
		z"/>
	<path style="fill:#365979;" d="M547.098,359.269c-3.348-0.939-6.498,0.249-9.62,1.072c-10.334,2.725-20.612,5.659-30.947,8.378
		c-1.707,0.449-3.593,0.22-5.396,0.305c7.927-6.945,15.836-13.912,23.788-20.828c4.347-3.781,8.768-7.479,13.155-11.214
		c1.634-0.077,3.236,0.1,4.899-0.356c12.86-3.523,25.73-7.012,38.649-10.311c2.633-0.672,5.303-1.946,8.186-1.088
		c-12.725,11.939-26.508,22.575-40.553,32.886C548.607,358.592,547.821,358.888,547.098,359.269z"/>
	<path style="fill:#476C92;" d="M1184.609,220.385c-3.602,0-7.218,0-10.933,0c-0.722-2.798-0.531-5.194-0.205-8.109
		c3.886,0,7.63,0,11.75,0c0-4.256,0-8.025,0-11.744c3.142-2.011,6.471-2.117,9.723-3.357c1.456,5.006,0.019,9.868,1.076,15.008
		c4.469,0,8.884,0,13.44,0c0.652,2.907,0.283,5.298,0.324,7.773c-4.77,1.236-9.314-0.047-14.174,0.989c0,2.304,0,4.423,0,6.542
		c0,6.324-0.016,12.648,0.011,18.972c0.007,1.66,0.04,3.334,0.247,4.977c0.709,5.623,4.571,8.444,10.126,7.569
		c1.3-0.205,2.364-1.258,4.175-0.899c0.761,2.234,0.528,4.6,0.058,7.351c-6.203,2.446-12.355,2.343-18.17-0.805
		c-5.249-2.841-6.65-8.011-6.684-13.597c-0.052-8.321,0.008-16.642-0.032-24.963
		C1185.334,224.462,1185.681,222.779,1184.609,220.385z"/>
	<path style="fill:#85C77B;" d="M62.183,388.725c-0.338,1.26-1.344,1.256-2.36,1.262c-2.794,0.018-5.601,0.693-8.28,0.761
		c-5.127,0.129-10.231,0.763-15.209,1.462c-6.191,0.869-12.415,0.67-18.607,1.468c-5.639,0.727-11.401,1.887-17.203,1.306
		c-0.912-6.118-0.792-12.141,1.648-17.951c3.044-0.118,6.308,0.305,9.085-0.263c5.378-1.101,10.919,0.014,16.152-1.754
		c0.925-0.312,2.029-1,2.792-0.744c5.158,1.73,10.169-2.23,15.281-0.274c4.484-1.812,9.208-0.583,13.796-1.088
		C59.702,378.283,60.677,383.553,62.183,388.725z"/>
	<path style="fill:#476C92;" d="M1011.426,264.409c-0.429-2.889-0.117-5.481,0.256-8.412c2.858,0.91,5.457,1.855,8.121,2.554
		c3.094,0.812,6.199,0.871,9.322-0.177c2.818-0.945,4.461-2.771,4.982-5.642c0.517-2.852-0.901-4.875-3.109-6.313
		c-2.221-1.446-4.624-2.611-6.939-3.915c-2.312-1.303-4.738-2.449-6.896-3.972c-8.376-5.914-7.85-18.49,0.887-23.908
		c6.068-3.763,12.582-3.653,19.238-2.332c1.442,0.286,2.831,0.836,4.489,1.339c0.492,2.591,0.071,5.175-0.14,8.025
		c-3.085-0.738-5.995-1.254-8.78-2.155c-2.453-0.793-4.701-0.06-6.826,0.67c-4.415,1.515-5.502,6.687-2.323,10.134
		c1.607,1.742,3.681,2.802,5.805,3.785c2.41,1.116,4.847,2.195,7.166,3.481c5.559,3.085,8.777,7.711,8.121,14.237
		c-0.685,6.819-4.125,11.864-10.773,14.257C1026.267,268.858,1018.777,267.894,1011.426,264.409z"/>
	<path style="fill:#476C92;" d="M1401.089,263.516c0.172-2.814-0.172-5.457,0.592-8.373c3.606,1.611,7.107,3.096,10.948,3.376
		c0.657,0.048,1.332,0.394,1.954,0.301c5.453-0.817,7.874-1.775,9.271-6.137c0.971-3.032-0.554-5.373-5.149-8.108
		c-2.564-1.526-5.265-2.824-7.905-4.221c-8.01-4.238-10.696-8.784-9.566-16.194c0.983-6.447,5.985-11.18,13.56-12.832
		c5.01-1.092,11.638-0.219,17.059,2.296c0.084,2.398,0.196,4.849-1.124,7.329c-2.284,0.454-4.422-0.819-6.559-1.34
		c-2.771-0.675-5.271-0.23-7.845,0.34c-2.014,0.445-3.877,1.338-4.302,3.621c-0.474,2.544-0.312,5.028,1.986,6.789
		c1.984,1.521,4.153,2.72,6.452,3.73c2.274,0.999,4.475,2.175,6.671,3.342c11.544,6.135,8.475,22.21-0.785,26.945
		c-6.291,3.216-12.741,3.264-19.376,1.628C1405.038,265.531,1403.124,264.962,1401.089,263.516z"/>
	<path style="fill:#476C92;" d="M1156.287,213.159c-0.302,3.194,0.15,5.855-0.602,8.444c-2.681-0.648-5.34-1.033-7.799-1.954
		c-2.608-0.978-4.969-0.333-7.275,0.511c-5.225,1.914-6.121,7.444-1.745,10.989c1.648,1.335,3.719,2.155,5.624,3.16
		c1.614,0.851,3.277,1.609,4.9,2.443c7.871,4.041,10.878,9.476,9.561,17.248c-1.1,6.493-7.136,11.921-14.838,12.794
		c-5.973,0.677-11.951,0.45-17.808-2.585c-0.357-2.611-0.393-5.363,0.105-8.373c2.838,0.914,5.505,1.755,8.161,2.633
		c3.314,1.096,6.593,0.937,9.717-0.529c5.047-2.369,5.659-8.441,1.137-11.755c-1.997-1.463-4.289-2.531-6.473-3.73
		c-1.892-1.039-3.837-1.98-5.73-3.015c-5.105-2.791-8.031-7.049-7.656-12.928c0.414-6.47,3.381-11.372,9.889-13.566
		C1142.292,210.642,1149.071,211.024,1156.287,213.159z"/>
	<path style="fill:#1F3559;" d="M241.128,166.072c9.111-5.727,18.998-9.946,28.668-14.56c30.081-14.354,60.92-26.905,92.279-38.181
		c4.674-1.68,9.422-3.152,14.117-4.775c1.107-0.383,2.145-0.918,3.585-0.283c-0.647,1.016-1.662,1.291-2.605,1.702
		c-35.268,15.386-70.193,31.483-103.91,50.088c-4.934,2.723-9.616,5.903-14.794,8.184c-2.505-1.662-5.329-1.786-7.962-0.859
		c-2.609,0.918-5.166,0.403-7.739,0.582C241.454,168.061,241.154,167.155,241.128,166.072z"/>
	<path style="fill:#85C77B;" d="M151.975,362.053c-5.855,0.545-11.762,0.565-17.553,1.756c-0.482,0.099-0.988,0.2-1.47,0.156
		c-5.962-0.546-11.861,0.7-17.698,1.307c-5.001,0.519-10.166-0.109-15.108,1.531c-1.807,0.6-3.948,0.19-5.937,0.241
		c-0.44-5.841-0.998-11.693,1.619-17.248c3.312,0.758,6.504-0.65,9.697-0.636c6.257,0.027,12.37-1.779,18.637-1.15
		c0.65,0.065,1.326,0.014,1.976-0.079c7.43-1.07,14.841-2.358,22.402-1.754C148.961,351.625,149.489,357.051,151.975,362.053z"/>
	<path style="fill:#1F3559;" d="M931.953,28.496c1.9-8.69,3.693-16.887,5.512-25.207c11.547,0,22.8,0,34.759,0
		c-1.836,8.508-3.622,16.788-5.438,25.207C955.21,28.496,943.958,28.496,931.953,28.496z"/>
	<path style="fill:#365979;" d="M462.305,375.34c-1.078-2.06-2.626-1.288-4.264-0.836c-8.662,2.391-17.313,4.833-26.036,6.984
		c-4.264,1.052-8.413,2.908-12.973,2.486c11.063-8.971,21.819-18.319,33.173-26.932c2.099-0.24,4.161-0.046,6.322-0.65
		c11.095-3.104,22.284-5.868,33.414-8.848c1.35-0.361,2.49-1.032,3.302,0.672c-5.428,5.97-11.671,10.978-18.053,15.89
		c-4.148,3.193-8.072,6.698-12.354,9.738C464.04,374.407,463.152,374.844,462.305,375.34z"/>
	<path style="fill:#CEE7CA;" d="M657.321,191.984c2.791,3.567,5.013,7.405,5.729,11.965c-0.497,0.018-1.019-0.056-1.488,0.068
		c-20.146,5.305-40.287,10.627-60.429,15.948c-2.009-3.658-4.017-7.316-6.026-10.975c1.5-0.657,2.946-1.514,4.51-1.939
		c13.211-3.594,26.419-7.203,39.68-10.604C645.29,194.911,651.121,192.687,657.321,191.984z"/>
	<path style="fill:#ACBBC8;" d="M587.942,282.883c2.496-6.249,6.521-11.712,9.19-17.872c1.15-0.076,2.349,0.032,3.443-0.257
		c11.483-3.029,22.907-6.294,34.439-9.12c5.354-1.312,10.464-3.834,16.163-3.623c-2.704,6.204-6.83,11.57-10.239,17.358
		c-0.424,0.72-0.93,1.369-1.771,1.651c-2.424-1.762-4.724-0.107-6.925,0.465C617.485,275.321,602.911,279.863,587.942,282.883z"/>
	<path style="fill:#A7D59E;" d="M657.321,191.984c-6.201,0.702-12.031,2.926-18.024,4.463c-13.261,3.401-26.469,7.01-39.68,10.604
		c-1.563,0.425-3.009,1.282-4.51,1.939c-3.12-4.244-7.408-7.287-11.174-10.866c2.89,0.104,5.408-1.262,8.099-1.973
		c16.924-4.471,33.89-8.78,50.824-13.212c1.506-0.394,3.367-0.76,3.303-3.03C651.454,182.479,654.381,187.238,657.321,191.984z"/>
	<path style="fill:#92A5B6;" d="M87.086,269.982c2.26-3.605,6.021-5.612,9.075-8.352c5.391-4.837,10.805-9.692,16.941-13.622
		c-0.093,1.915,1.143,2.209,2.585,1.944c7.054-1.293,14.2-1.522,21.329-1.95c0.974-0.059,1.968,0.11,2.888-0.402
		c1.859-1.035,3.781-0.515,5.817-0.475c0.181,0.868,0.31,1.485,0.438,2.101c-4.565,5.523-10.609,9.446-15.657,14.456
		c-2.309,2.291-5.012,4.184-7.537,6.257c-1.247-0.293-2.557-0.994-3.731-0.813c-7.244,1.118-14.512,1.717-21.839,1.952
		c-2.717,0.087-5.385,1.121-8.206,0.949C87.723,271.939,87.087,271.388,87.086,269.982z"/>
	<path style="fill:#1F3559;" d="M320.1,154.992c8.558-5.374,17.831-9.374,26.96-13.581c29.182-13.448,58.856-25.715,89.375-35.843
		c1.976-0.656,3.857-2.062,6.182-1.437c0.061,1.198-0.967,1.247-1.566,1.503c-23.061,9.845-45.773,20.433-68.258,31.535
		c-12.384,6.114-24.42,12.836-36.503,19.492c-1.011,0.557-2.089,0.995-3.135,1.488c-0.421-1.232-1.454-1.148-2.453-1.148
		c-2.827,0.002-5.655-0.049-8.48,0.018C320.737,157.057,320.065,156.444,320.1,154.992z"/>
	<path style="fill:#7F96AA;" d="M631.334,281.045c-0.826,3.024-3.473,4.721-5.326,6.934c-3.748,4.476-7.224,9.23-11.692,13.073
		c-2.278,0.092-4.476,0.024-6.812,0.623c-10.083,2.589-20.128,5.293-30.167,8.048c-4.004,1.099-8.065,2.916-12.464,2.145
		c5.365-6.314,10.729-12.627,16.094-18.941c1.642-0.017,3.252,0.181,4.918-0.277c11.475-3.149,22.937-6.364,34.494-9.187
		C623.994,282.581,627.389,280.473,631.334,281.045z"/>
	<path style="fill:#E2E7EB;" d="M88.102,308.003c-3.726,5.586-7.452,11.172-11.242,16.852c-15.07,1.371-30.055,2.734-44.962,4.089
		c-1.08-1.366-1.2-2.789-0.263-3.803c4.903-5.308,9.216-11.145,14.456-16.148c0.799,2.267,2.867,2.533,4.479,1.896
		c4.715-1.864,9.715-1.023,14.514-1.593C72.663,308.397,80.372,307.29,88.102,308.003z"/>
	<path style="fill:#A7D59E;" d="M59.278,372.911c-4.587,0.505-9.312-0.723-13.796,1.088c-5.112-1.956-10.123,2.005-15.281,0.274
		c-0.763-0.256-1.867,0.431-2.792,0.744c-5.234,1.768-10.775,0.653-16.152,1.754c-2.777,0.568-6.041,0.145-9.085,0.263
		c0.471-5.083,2.722-9.522,5.035-13.94c6.628,0.558,13.157-0.852,19.717-1.303c4.242-0.291,8.559-0.266,12.763-0.882
		c7.157-1.049,14.324-1.726,21.545-1.925C60.787,363.656,60.397,368.335,59.278,372.911z"/>
	<path style="fill:#365979;" d="M241.128,166.072c0.026,1.083,0.325,1.989,1.638,1.898c2.573-0.179,5.13,0.336,7.739-0.582
		c2.633-0.927,5.457-0.803,7.962,0.859c-7.735,4.83-15.485,9.635-23.201,14.496c-7.019,4.422-14.001,8.903-20.999,13.358
		c-8.26-0.661-16.363,1.119-24.886,1.378c-0.35-0.23-0.355-1.334-1.327-1.486c7.164-5.588,15.427-9.369,23.182-13.977
		c8.016-4.764,16.301-9.077,24.499-13.53C237.461,167.546,239.123,166.407,241.128,166.072z"/>
	<path style="fill:#365979;" d="M320.1,154.992c-0.035,1.453,0.637,2.065,2.121,2.029c2.825-0.068,5.653-0.017,8.48-0.018
		c0.999-0.001,2.033-0.084,2.453,1.148c-3.716,3.085-8.106,5.091-12.218,7.529c-12.165,7.211-23.765,15.295-35.69,22.874
		c-0.184-0.878-0.637-1.542-1.605-1.507c-2.255,0.083-4.471,0.016-6.767,0.419c-4.593,0.807-9.328,1.353-13.894-0.495
		c7.349-5.068,15.113-9.462,22.835-13.914c10.641-6.135,21.454-11.963,32.438-17.469C318.824,155.301,319.482,155.186,320.1,154.992
		z"/>
	<path style="fill:#A7D59E;" d="M555.651,213.941c3.912,1.828,6.255,4.982,7.593,8.985c-0.536,1.081-1.337,1.691-2.54,2.119
		c-3.397,1.208-6.907,1.769-10.428,2.419c-4.946,0.913-9.435,3.444-14.457,4.269c-1.587,0.261-3.227-0.021-4.814,0.782
		c-6.888,3.488-14.854,3.408-21.896,6.45c-0.278,0.12-0.655,0.011-0.985,0.008c-2.894-4.239-7.605-6.398-11.224-9.806
		c1.435-0.349,2.896-0.249,4.379-0.652c11.023-2.996,22.113-5.741,33.156-8.667C541.531,217.968,548.58,215.916,555.651,213.941z"/>
	<path style="fill:#7F96AA;" d="M146.161,249.227c-0.129-0.617-0.257-1.234-0.438-2.101c-2.037-0.04-3.959-0.56-5.817,0.475
		c-0.92,0.512-1.914,0.343-2.888,0.402c-7.13,0.428-14.276,0.657-21.329,1.95c-1.442,0.264-2.678-0.029-2.585-1.944
		c4.574-4.526,9.939-8.078,14.999-11.992c4.162-3.22,8.293-6.551,12.995-9.021c-0.077,1.863,1.086,2.036,2.569,2.031
		c5.868-0.021,11.632-1.581,17.534-1.147c0.571,0.042,1.223-0.798,1.773-0.727c2.746,0.354,5.82-1.515,8.229,1.153
		c-6.415,6.086-13.323,11.603-20.235,17.09C149.375,246.659,148.585,249.024,146.161,249.227z"/>
	<path style="fill:#68829A;" d="M462.777,347.796c3.297-3.42,6.588-6.852,10.36-9.761c2.761-2.129,4.734-4.985,7.122-7.454
		c1.349-1.395,2.385-3.176,4.336-3.917c1.464,0.376,2.858,0.378,4.378-0.047c7.852-2.195,15.69-4.483,23.638-6.27
		c3.943-0.887,7.683-3.216,11.987-2.195c-3.979,5.033-7.709,10.279-13.031,14.094c-1.447,1.037-2.686,2.346-3.635,3.982
		c-0.889,1.533-2.139,2.928-3.864,3.707c-0.064-0.639,0.022-1.34-0.829-1.778c-0.812,0.259-1.714,0.588-2.637,0.836
		c-9.87,2.655-19.762,5.23-29.602,7.987C468.262,347.746,465.598,348.321,462.777,347.796z"/>
	<path style="fill:#7F96AA;" d="M190.108,238.014c9.321-7.78,18.768-15.395,29.017-21.948c-0.089,1.952,1.217,2.052,2.625,1.931
		c5.972-0.512,11.969-0.75,17.897-1.751c2.588-0.437,5.211-0.704,7.6,0.856c-4.748,5.116-10.607,8.945-15.819,13.529
		c-2.948,2.593-5.67,5.59-9.28,7.397c-1.8,0.005-3.273-1.354-5.246-0.958c-6.245,1.252-12.588,1.725-18.95,1.918
		c-2.105,0.064-4.254-0.283-5.883,0.942C190.926,239.422,190.378,238.846,190.108,238.014z"/>
	<path style="fill:#85C77B;" d="M402.057,258.475c0.249-1.506,1.165-2.146,2.647-2.488c14.308-3.294,28.259-7.951,42.578-11.243
		c1.947-0.448,5.333-0.062,5.748-3.584c5.509,2.104,10.248,5.324,14.142,9.766c-0.318,0.902-1.144,1.197-1.915,1.406
		c-5.817,1.577-11.649,3.101-17.474,4.65c-6.139,1.632-12.33,3.098-18.397,4.968c-4.708,1.451-9.427,2.64-14.331,3.081
		C410.723,262.846,406.39,260.661,402.057,258.475z"/>
	<path style="fill:#365979;" d="M409.808,138.444c-11.867,7.185-23.959,14.001-35.514,21.7c-4.616,3.075-9.35,5.974-14.03,8.952
		c-5.222,0.138-10.455-0.763-15.67,0.766c-2.121,0.622-4.587,0.444-6.663-0.916c7.146-5.05,14.759-9.335,22.384-13.596
		c10.957-6.122,21.943-12.192,33.184-17.784c1.165-0.58,2.217-1.486,3.631-1.461c-0.083,1.899,1.175,1.886,2.566,1.931
		C403.068,138.145,406.468,137.599,409.808,138.444z"/>
	<path style="fill:#68829A;" d="M171.203,228.305c-2.409-2.668-5.483-0.799-8.229-1.153c-0.55-0.071-1.202,0.769-1.773,0.727
		c-5.902-0.434-11.667,1.125-17.534,1.147c-1.483,0.005-2.647-0.168-2.569-2.031c9.803-7.786,20.089-14.859,31.005-21.001
		c-0.043,1.439,0.645,1.886,2.083,2.066c3.193,0.4,6.059-1.298,9.23-1.108c2.583,0.155,5.147-0.097,7.777-0.662
		c2.132-0.458,5.226-1.872,7.021,1.285c-5.156,5.144-11.454,8.83-17.105,13.344C177.893,223.485,174.901,226.379,171.203,228.305z"
		/>
	<path style="fill:#E2E7EB;" d="M603.089,246.99c0.012-2.158-0.162-4.338,0.097-6.465c0.193-1.587,0.945-3.105,1.585-5.075
		c19.034-5.008,38.006-10.766,58.016-15.043c0.599,5.068-0.592,8.917-2.694,12.593c-1.964,0.183-3.91-0.132-5.911,0.408
		C637.169,238,620.124,242.478,603.089,246.99z"/>
	<path style="fill:#5AB74B;" d="M1283.93,55.767c1.871-8.363,3.635-16.249,5.451-24.365c8.497,0,16.878,0,25.85,0
		c-1.805,8.214-3.558,16.191-5.354,24.365C1301.333,55.767,1292.943,55.767,1283.93,55.767z"/>
	<path style="fill:#E2E7EB;" d="M174.107,287.008c-2.778,5.624-7.28,10.096-10.526,15.887c-13.915,1.003-27.925,3.389-43.321,3.044
		c5.421-6.271,9.357-12.244,14.826-16.939c2.359,0.775,4.895,1.731,7.208,0.781c2.308-0.947,4.543-0.645,6.821-0.768
		c1.654-0.09,3.353,0.154,4.966-0.129C160.712,287.721,167.393,287.219,174.107,287.008z"/>
	<path style="fill:#CEE7CA;" d="M508.124,238.974c0.331,0.002,0.707,0.112,0.985-0.008c7.042-3.042,15.008-2.963,21.896-6.45
		c1.586-0.803,3.227-0.522,4.814-0.782c5.021-0.825,9.511-3.356,14.457-4.269c3.521-0.65,7.031-1.211,10.428-2.419
		c1.203-0.428,2.004-1.038,2.54-2.119c2.476,3.654,4.418,7.521,4.797,12.013c-2.448-0.294-4.415,1.361-6.588,1.742
		c-8.086,1.417-15.743,4.343-23.683,6.225c-1.418,0.336-2.853,0.422-4.309,0.861c-6.395,1.927-12.891,3.518-19.35,5.23
		C512.116,245.656,510.12,242.315,508.124,238.974z"/>
	<path style="fill:#85C77B;" d="M646.159,179.909c0.064,2.27-1.797,2.636-3.303,3.03c-16.934,4.432-33.9,8.741-50.824,13.212
		c-2.691,0.711-5.209,2.077-8.099,1.973c-2.792-1.962-6.26-2.75-8.837-5.085c-0.147-1.501,0.772-1.754,2.018-2.196
		c7.705-2.733,15.719-4.34,23.565-6.544c10.04-2.821,20.21-5.192,30.212-8.18c0.915-0.274,1.917-0.258,3.01-0.392
		c0.062-1.028,0.111-1.832,0.16-2.637C638.8,174.111,642.434,177.091,646.159,179.909z"/>
	<path style="fill:#ACBBC8;" d="M213.158,246.036c-5.441,5.23-10.857,10.484-16.339,15.671c-1.398,1.323-2.405,3.24-4.649,3.443
		c-2.341-2.429-5.363-1.292-7.862-0.961c-8.441,1.117-16.864,2.048-25.39,1.751c0.09-1.034,0.564-1.858,1.339-2.538
		c6.613-5.804,13.222-11.613,19.831-17.421c-0.009,1.42,0.616,2.063,2.114,2.045c2.637-0.032,5.25-0.775,7.771-0.849
		C197.712,246.948,205.381,245.259,213.158,246.036z"/>
	<path style="fill:#ACBBC8;" d="M553.172,281.01c-2.939,5.821-6.695,11.084-10.936,16.016c-1.631,0.085-3.245-0.177-4.897,0.307
		c-7.629,2.236-15.205,4.772-22.97,6.38c-5.391,1.116-10.472,3.903-16.205,3.315c1.999-3.535,3.964-7.09,6.014-10.595
		c0.824-1.409,1.777-2.736,2.036-4.397c0.992-0.044,2.029,0.085,2.969-0.159c9.282-2.406,18.518-4.996,27.831-7.278
		C542.369,283.286,547.451,280.676,553.172,281.01z"/>
	<path style="fill:#85C77B;" d="M555.651,213.941c-7.07,1.975-14.12,4.027-21.215,5.907c-11.042,2.926-22.133,5.671-33.156,8.667
		c-1.483,0.403-2.944,0.303-4.379,0.652c-3.602-1.704-7.203-3.408-10.805-5.111c-0.125-1.497,0.74-1.848,2.053-2.187
		c7.279-1.877,14.454-4.232,21.807-5.726c4.369-0.888,8.357-2.899,12.787-3.487c6.342-0.841,12.107-4.148,18.533-4.588
		c1.705-0.117,1.685-1.992,3.073-2.146C548.641,207.854,553.113,209.535,555.651,213.941z"/>
	<path style="fill:#85C77B;" d="M234.954,328.058c-7.449-0.263-14.774,0.852-22.124,1.851c-3.905,0.531-7.921,0.7-11.808,0.854
		c-6.289,0.249-12.482,1.774-18.797,1.287c-0.588-4.074-0.394-8.08,1.045-11.977c5.981,0.59,11.852-0.832,17.755-1.29
		c3.918-0.304,7.893-0.359,11.794-0.876c6.675-0.884,13.321-1.949,20.083-1.827C232.746,320.216,234.25,324.069,234.954,328.058z"/>
	<path style="fill:#68829A;" d="M564.872,311.868c4.399,0.771,8.46-1.046,12.464-2.145c10.038-2.755,20.084-5.459,30.167-8.048
		c2.336-0.6,4.534-0.531,6.812-0.623c-4.51,5.441-9.771,10.141-14.833,15.037c-1.798,0.025-3.544-0.16-5.385,0.349
		c-13.648,3.773-27.357,7.331-40.989,11.16c-1.742,0.489-2.827-0.129-4.152-0.68C553.758,321.368,559.681,317.006,564.872,311.868z"
		/>
	<path style="fill:#CEE7CA;" d="M237.097,294.99c-1.045,4.036-2.09,8.072-3.136,12.108c-15.883,1.802-31.789,3.333-47.768,3.975
		c2.09-4.469,3.96-9.055,6.923-13.062c2.655-1.087,5.44-1.082,8.239-1.008c1.157,0.031,2.339,0.112,3.471-0.069
		c6.459-1.03,12.935-1.854,19.487-1.922c1.481-0.015,2.911-0.43,4.332-0.629C231.424,293.995,234.43,292.952,237.097,294.99z"/>
	<path style="fill:#1F3559;" d="M409.808,138.444c-3.34-0.845-6.74-0.299-10.111-0.408c-1.392-0.045-2.649-0.032-2.566-1.931
		c11.07-5.929,22.455-11.209,33.947-16.251c22.607-9.917,45.522-19.049,69.006-26.707c-0.001,0.569-0.002,1.137-0.003,1.706
		c-13.461,6.426-27.279,12.057-40.706,18.576c-15.462,7.507-30.897,15.046-45.978,23.299
		C412.236,137.364,411.006,137.875,409.808,138.444z"/>
	<path style="fill:#CDD6DE;" d="M88.102,308.003c-7.73-0.713-15.439,0.394-23.017,1.293c-4.8,0.57-9.8-0.271-14.514,1.593
		c-1.612,0.637-3.68,0.371-4.479-1.896c4.265-5.056,8.918-9.724,13.962-14.003c1.825-0.032,3.386,1.594,5.257,0.987
		c4.016-1.302,8.194-0.535,12.237-1.078c7.48-1.004,14.956-1.821,22.505-1.92C96.069,297.988,92.086,302.995,88.102,308.003z"/>
	<path style="fill:#68829A;" d="M247.247,217.101c-2.389-1.559-5.012-1.293-7.6-0.856c-5.928,1.001-11.925,1.239-17.897,1.751
		c-1.407,0.121-2.713,0.021-2.625-1.931c9.293-7.182,19.03-13.716,29.028-19.869c-0.068,1.595,0.932,1.678,2.215,1.85
		c4.294,0.576,8.324-1.453,12.602-1.091c1.904,0.161,3.84,0.261,5.761-0.683c1.185-0.582,2.987-0.872,3.475,1.314
		c-5.4,5.393-11.89,9.419-17.832,14.132C252.05,213.563,250.019,215.838,247.247,217.101z"/>
	<path style="fill:#92A5B6;" d="M307.272,210.13c-4.43,5.096-9.952,9.006-14.893,13.547c-1.633,1.501-3.129,3.372-5.277,4.325
		c-8.858-0.112-17.665,0.484-26.406,1.956c-1.706,0.287-3.257-0.156-4.724-0.996c6.468-6.928,13.495-13.187,21.677-18.059
		c7.897,0.471,15.669-0.642,23.444-1.793C303.227,208.794,305.382,208.767,307.272,210.13z"/>
	<path style="fill:#CEE7CA;" d="M61.232,358.985c-7.221,0.199-14.388,0.877-21.545,1.925c-4.205,0.616-8.521,0.59-12.763,0.882
		c-6.56,0.45-13.09,1.86-19.717,1.303c1.611-3.885,3.48-7.632,5.907-11.082c6.123,0.589,12.135-0.902,18.198-1.279
		c4.059-0.252,8.211-0.236,12.251-0.823c7.145-1.037,14.281-1.956,21.513-1.909C64.275,351.831,63.232,355.575,61.232,358.985z"/>
	<path style="fill:#E2E7EB;" d="M256.12,261.023c-0.655,3.367-3.38,5.513-4.958,8.342c-1.19,2.133-2.713,4.079-3.961,5.922
		c-1.01,0.891-2.036,0.685-3.013,0.711c-6.871,0.181-13.674,0.983-20.491,1.858c-4.035,0.518-8.183,0.087-12.218,1.103
		c-1.375,0.346-2.603-0.23-3.395-2.163c4.068-4.953,7.457-10.782,13.001-14.806c3.686,2.074,7.751,1.247,11.489,0.837
		C240.413,261.969,248.207,260.833,256.12,261.023z"/>
	<path style="fill:#68829A;" d="M294.148,198.099c9.396-7.466,19.218-14.305,29.687-20.194c3.957,1.852,8.052,1.233,12.138,0.655
		c3.467-0.491,6.975-1.672,10.232,0.732c-6.58,5.159-13.156,10.323-19.742,15.475c-1.807,1.413-3.644,2.789-5.467,4.182
		c-1.794,0.045-3.421-1.784-5.214-0.765c-2.206,1.253-4.511,0.636-6.773,0.807c-2.268,0.172-4.483-0.012-6.795,0.765
		c-2.083,0.7-4.577,0.258-6.884,0.18C294.29,199.901,294.167,198.958,294.148,198.099z"/>
	<path style="fill:#92A5B6;" d="M458.106,319c-3.564,6.252-8.858,11.217-12.816,17.18c-0.226,0.341-0.812,0.444-1.23,0.658
		c-0.022-0.663-0.046-1.324-0.613-1.586c-8.594,2.273-17.057,4.523-25.527,6.746c-4.549,1.194-8.905,3.28-13.774,3.019
		c3.326-5.001,6.652-10.002,9.978-15.003c0.993-0.03,2.035,0.128,2.97-0.12c6.134-1.628,12.235-3.378,18.365-5.023
		C442.991,322.85,450.424,320.443,458.106,319z"/>
	<path style="fill:#E2E7EB;" d="M513.12,274.017c0.815-3.317,1.629-6.633,2.547-10.372c16.509-4.108,32.963-9.064,50.344-13.102
		c0.013,5.482-1.273,9.656-3.892,13.471c-1.213-1.837-3.003-1.139-4.468-0.754c-10.222,2.686-20.389,5.585-30.622,8.23
		C522.471,272.669,517.983,274.435,513.12,274.017z"/>
	<path style="fill:#A7D59E;" d="M148.539,346.176c-7.561-0.603-14.972,0.684-22.402,1.754c-0.65,0.094-1.326,0.144-1.976,0.079
		c-6.267-0.629-12.38,1.177-18.637,1.15c-3.193-0.014-6.385,1.394-9.697,0.636c0.374-3.804,1.911-7.237,3.406-10.683
		c6.614,0.468,13.143-0.79,19.675-1.349c6-0.513,12.031-1.058,18.034-1.719c2.754-0.304,5.547,0.283,8.297-0.854
		c1.174-0.485,2.981-0.81,4.001,0.875C148.798,339.42,149.471,342.854,148.539,346.176z"/>
	<path style="fill:#CEE7CA;" d="M149.24,336.065c-1.02-1.685-2.827-1.36-4.001-0.875c-2.75,1.137-5.543,0.551-8.297,0.854
		c-6.003,0.662-12.034,1.206-18.034,1.719c-6.532,0.559-13.061,1.817-19.675,1.349c1.565-3.91,3.485-7.631,5.882-11.099
		c3.99,0.554,7.734-1.369,11.744-1.059c5.26,0.406,10.468-0.817,15.702-1.183c6.829-0.477,13.644-1.503,20.515-1.768
		C151.899,328.055,151.403,332.325,149.24,336.065z"/>
	<path style="fill:#476C92;" d="M912.708,265.815c-3.325,0-6.265,0-9.458,0c0-17.763,0-35.332,0-53.101
		c3.059-0.818,6.126-0.391,9.458-0.349C912.708,230.265,912.708,247.822,912.708,265.815z"/>
	<path style="fill:#476C92;" d="M363.971,386.929c5.987-6.406,12.702-12.031,19.197-17.892c2.142-0.094,4.376,0.172,6.41-0.348
		c7.571-1.935,15.058-4.198,22.616-6.189c2.811-0.741,5.587-2.072,8.645-1.272c-1.424,0.873-2.18,2.415-3.291,3.487
		c-5.131,4.956-10.566,9.598-15.891,14.353c-1.958,0.059-3.878,0.13-5.858,0.43c-5.059,0.767-9.634,3.134-14.634,3.939
		C375.384,384.369,370.066,387.568,363.971,386.929z"/>
	<path style="fill:#365979;" d="M363.971,386.929c6.095,0.639,11.413-2.56,17.193-3.491c5-0.805,9.575-3.172,14.634-3.939
		c1.98-0.3,3.9-0.371,5.858-0.43c-6.985,6.939-14.821,12.85-22.661,18.756c-1.37-1.56-3.07-0.982-4.552-0.46
		c-8.327,2.933-17.062,4.409-25.417,7.211c-1.976,0.663-3.938,0.265-5.899,0.444C349.834,398.713,356.779,392.679,363.971,386.929z"
		/>
	<path style="fill:#68829A;" d="M420.838,361.229c-3.058-0.8-5.834,0.531-8.645,1.272c-7.557,1.992-15.044,4.254-22.616,6.189
		c-2.033,0.52-4.268,0.253-6.41,0.348c4.956-5.357,9.913-10.715,14.869-16.072c1.966-0.085,3.913,0.23,5.899-0.336
		c9.703-2.767,19.454-5.368,29.147-8.172c1.507-0.436,2.917-0.365,4.388-0.356c-0.88,2.467-2.992,3.935-4.766,5.611
		C428.696,353.499,425.215,357.827,420.838,361.229z"/>
	<path style="fill:#CDD6DE;" d="M603.089,246.99c17.035-4.512,34.08-8.99,51.093-13.582c2.001-0.54,3.947-0.225,5.911-0.408
		c-1.164,3.397-1.381,7.175-4.006,9.986c-0.75-1.46-1.786-0.869-2.944-0.55c-12.403,3.423-24.787,6.926-37.255,10.101
		c-5.194,1.323-10.291,3.218-15.729,3.488C601.034,252.98,601.535,249.815,603.089,246.99z"/>
	<path style="fill:#E2E7EB;" d="M425.109,305.009c0.255-3.278,1.317-6.358,2.292-9.434c10.197-3.766,44.482-12.5,48.511-12.219
		c-1.11,3.668-0.906,7.64-3.784,10.647c-1.787,0.145-3.525,0.042-5.359,0.576c-8.595,2.506-17.213,4.998-25.945,6.951
		C435.594,302.7,430.657,305.289,425.109,305.009z"/>
	<path style="fill:#CDD6DE;" d="M174.107,287.008c-6.713,0.211-13.395,0.713-20.025,1.876c-1.613,0.283-3.312,0.039-4.966,0.129
		c-2.278,0.123-4.513-0.179-6.821,0.768c-2.314,0.949-4.85-0.006-7.208-0.781c3.932-4.725,8.258-9.057,12.965-13.009
		c1.814-0.052,3.303,1.425,5.275,0.915c5.75-1.487,11.719-1.111,17.56-1.885c1.94-0.257,3.859-0.12,5.853-0.672
		c1.976-0.547,4.516-1.444,6.398,0.75c-0.627,3.274-3.818,4.751-5.266,7.504C176.994,284.27,175.386,285.552,174.107,287.008z"/>
	<path style="fill:#BCC8D2;" d="M600.16,256.025c5.438-0.27,10.535-2.165,15.729-3.488c12.467-3.175,24.852-6.678,37.255-10.101
		c1.158-0.32,2.194-0.91,2.944,0.55c-0.672,1.776-1.697,3.373-2.223,5.259c-0.392,1.404-0.904,3.157-2.688,3.766
		c-5.699-0.211-10.809,2.311-16.163,3.623c-11.532,2.826-22.956,6.091-34.439,9.12c-1.094,0.289-2.293,0.181-3.443,0.257
		C597.637,261.846,599.794,259.238,600.16,256.025z"/>
	<path style="fill:#BCC8D2;" d="M100.053,292.98c-7.548,0.099-15.025,0.916-22.505,1.92c-4.043,0.543-8.221-0.224-12.237,1.078
		c-1.872,0.607-3.432-1.02-5.257-0.987c3.971-4.71,8.312-9.047,13.045-12.991c0.327,3.434,3.221,2.227,4.52,1.815
		c3.256-1.032,6.486-0.677,9.732-0.812c0.822-0.034,1.663,0.068,2.465-0.072c7.065-1.231,14.179-1.868,21.349-1.894
		C107.461,285.018,103.757,288.999,100.053,292.98z"/>
	<path style="fill:#92A5B6;" d="M631.334,281.045c-3.945-0.572-7.339,1.536-10.956,2.419c-11.557,2.822-23.019,6.038-34.494,9.187
		c-1.667,0.457-3.277,0.26-4.918,0.277c1.837-3.688,4.463-6.827,6.976-10.045c14.969-3.019,29.543-7.561,44.301-11.398
		c2.201-0.572,4.501-2.227,6.925-0.465C636.495,274.313,634.961,278.497,631.334,281.045z"/>
	<path style="fill:#CEE7CA;" d="M426.115,279.99c-1.337-2.665-2.673-5.331-4.01-7.996c1.303-0.102,2.578,0.006,3.906-0.407
		c11.981-3.728,24.104-6.918,36.305-9.862c3.347-0.807,6.998-1.512,9.896-3.801c1.973,2.726,3.647,5.579,3.858,9.055
		c-11.79,3.065-23.588,6.1-35.366,9.208C435.845,277.47,431.082,279.12,426.115,279.99z"/>
	<path style="fill:#ACBBC8;" d="M111.164,281.036c-7.17,0.026-14.284,0.663-21.349,1.894c-0.801,0.14-1.643,0.038-2.465,0.072
		c-3.246,0.135-6.476-0.22-9.732,0.812c-1.3,0.412-4.193,1.619-4.52-1.815c4.443-4.261,9.112-8.259,13.987-12.018
		c0.001,1.406,0.637,1.957,2.105,2.047c2.821,0.171,5.489-0.862,8.206-0.949c7.327-0.235,14.595-0.833,21.839-1.952
		c1.174-0.181,2.484,0.52,3.731,0.813C120.052,274.723,114.99,277.222,111.164,281.036z"/>
	<path style="fill:#A7D59E;" d="M472.213,257.924c-2.898,2.289-6.549,2.994-9.896,3.801c-12.202,2.943-24.325,6.134-36.305,9.862
		c-1.329,0.413-2.603,0.305-3.906,0.407c-2.35-2.321-4.7-4.642-7.049-6.962c4.904-0.44,9.623-1.629,14.331-3.081
		c6.066-1.87,12.257-3.336,18.397-4.968c5.825-1.549,11.657-3.072,17.474-4.65c0.771-0.209,1.597-0.504,1.915-1.406
		C469.104,253.078,471.28,255.054,472.213,257.924z"/>
	<path style="fill:#CDD6DE;" d="M513.12,274.017c4.863,0.418,9.351-1.348,13.909-2.526c10.232-2.645,20.399-5.544,30.622-8.23
		c1.465-0.385,3.255-1.083,4.468,0.754c-0.685,3.295-2.682,6.002-4.039,8.995c-2.438,0.228-4.839-0.15-7.338,0.588
		c-8.578,2.532-17.201,4.971-25.922,6.939c-4.914,1.109-9.546,3.437-14.705,3.472C511.118,280.678,512.119,277.347,513.12,274.017z"
		/>
	<path style="fill:#A7D59E;" d="M186.193,311.073c15.98-0.641,31.885-2.173,47.768-3.975c-1.035,2.913-0.732,5.985-1.06,8.982
		c-6.762-0.122-13.408,0.943-20.083,1.827c-3.901,0.517-7.875,0.572-11.794,0.876c-5.903,0.458-11.774,1.88-17.755,1.29
		C183.622,316.87,184.935,313.981,186.193,311.073z"/>
	<path style="fill:#CDD6DE;" d="M256.12,261.023c-7.913-0.191-15.708,0.946-23.546,1.804c-3.737,0.409-7.803,1.236-11.489-0.837
		c3.606-4.394,7.608-8.394,11.977-12.029c3.315,2.266,7.103,1.224,10.484,0.856c7.512-0.818,14.983-1.899,22.563-1.811
		C263.026,253.217,260.364,257.778,256.12,261.023z"/>
	<path style="fill:#CDD6DE;" d="M425.109,305.009c5.548,0.281,10.485-2.309,15.716-3.479c8.732-1.953,17.349-4.445,25.945-6.951
		c1.833-0.535,3.571-0.431,5.359-0.576c-0.907,3.197-1.603,6.488-4.042,8.996c-1.302,0.107-2.574,0.021-3.904,0.4
		c-8.761,2.493-17.516,5.04-26.368,7.168c-5.204,1.251-10.15,3.799-15.71,3.437C423.106,311.005,424.107,308.007,425.109,305.009z"
		/>
	<path style="fill:#92A5B6;" d="M498.165,307.028c5.733,0.589,10.813-2.199,16.205-3.315c7.765-1.607,15.341-4.144,22.97-6.38
		c1.652-0.484,3.266-0.223,4.897-0.307c-3.178,2.924-4.121,7.626-7.968,10.018c-0.499-0.009-1.029-0.134-1.492-0.011
		c-9.156,2.43-18.282,4.977-27.464,7.305c-4.411,1.118-8.676,3.168-13.427,2.543C493.389,313.22,496.129,310.348,498.165,307.028z"
		/>
	<path style="fill:#BCC8D2;" d="M183.137,275.099c-1.881-2.194-4.422-1.297-6.398-0.75c-1.994,0.552-3.913,0.415-5.853,0.672
		c-5.84,0.774-11.81,0.398-17.56,1.885c-1.973,0.51-3.461-0.967-5.275-0.915c3.344-3.651,6.196-7.834,10.866-10.05
		c8.526,0.297,16.949-0.635,25.39-1.751c2.499-0.331,5.521-1.467,7.862,0.961c0.075,1.327-0.766,2.171-1.661,2.908
		C187.878,270.226,186.202,273.391,183.137,275.099z"/>
	<path style="fill:#476C92;" d="M548.955,326.917c1.325,0.551,2.409,1.17,4.152,0.68c13.633-3.829,27.341-7.386,40.989-11.16
		c1.842-0.509,3.587-0.324,5.385-0.349c-2.994,3.289-5.997,6.569-9.67,9.139c-2.884-0.859-5.553,0.415-8.186,1.088
		c-12.919,3.299-25.789,6.788-38.649,10.311c-1.663,0.456-3.265,0.279-4.899,0.356C541.113,332.989,545.294,330.234,548.955,326.917
		z"/>
	<path style="fill:#7F96AA;" d="M491.886,316.881c4.751,0.625,9.016-1.425,13.427-2.543c9.182-2.327,18.308-4.874,27.464-7.305
		c0.464-0.123,0.993,0.002,1.492,0.011c-2.478,3.135-4.959,6.268-7.433,9.405c-0.601,0.763-1.156,1.577-2.239,1.702
		c-4.304-1.021-8.044,1.308-11.987,2.195c-7.948,1.788-15.786,4.075-23.638,6.27c-1.52,0.425-2.914,0.424-4.378,0.047
		C486.232,322.812,488.859,319.697,491.886,316.881z"/>
	<path style="fill:#BCC8D2;" d="M510.116,284.008c5.159-0.035,9.791-2.363,14.705-3.472c8.72-1.968,17.344-4.407,25.922-6.939
		c2.5-0.738,4.901-0.36,7.338-0.588c-1.708,2.623-2.113,6.045-4.908,8.001c-5.721-0.333-10.804,2.276-16.158,3.588
		c-9.312,2.282-18.548,4.872-27.831,7.278c-0.94,0.244-1.977,0.115-2.969,0.159C507.516,289.36,508.816,286.684,510.116,284.008z"/>
	<path style="fill:#ACBBC8;" d="M255.972,228.962c1.468,0.84,3.018,1.283,4.724,0.996c8.741-1.472,17.547-2.068,26.406-1.956
		c-3.23,4.492-7.623,7.731-11.926,11.067c-1.313-0.611-2.557-1.671-4.115-0.566c-1.033,0.733-2.232,0.456-3.373,0.494
		c-6.7,0.22-13.358,0.813-19.98,1.907c-1.403,0.232-3.563,0.929-3.599-1.886C247.863,235.429,251.316,231.487,255.972,228.962z"/>
	<path style="fill:#BCC8D2;" d="M244.109,239.018c0.036,2.815,2.196,2.117,3.599,1.886c6.622-1.094,13.28-1.687,19.98-1.907
		c1.141-0.037,2.34,0.24,3.373-0.494c1.557-1.105,2.802-0.046,4.115,0.566c-3.07,3.269-5.181,7.413-9.067,9.937
		c-7.58-0.088-15.051,0.993-22.563,1.811c-3.382,0.368-7.169,1.41-10.484-0.856C236.377,245.943,239.991,242.227,244.109,239.018z"
		/>
	<path style="fill:#BCC8D2;" d="M422.104,314.003c5.56,0.363,10.506-2.185,15.71-3.437c8.853-2.128,17.607-4.675,26.368-7.168
		c1.33-0.378,2.602-0.292,3.904-0.4c-1.833,3.436-3.13,7.191-5.964,10.032c-1.808-1.967-3.927-1.103-5.933-0.555
		c-7.729,2.111-15.376,4.563-23.177,6.353c-4.926,1.13-9.584,3.649-14.851,3.191C419.476,319.347,420.79,316.675,422.104,314.003z"
		/>
	<path style="fill:#7F96AA;" d="M294.148,198.099c0.02,0.859,0.143,1.802,1.181,1.837c2.308,0.077,4.801,0.52,6.884-0.18
		c2.312-0.777,4.527-0.593,6.795-0.765c2.263-0.171,4.568,0.446,6.773-0.807c1.793-1.019,3.419,0.81,5.214,0.765
		c-4.254,4.121-8.744,7.951-13.723,11.182c-1.89-1.363-4.045-1.336-6.179-1.02c-7.775,1.151-15.547,2.264-23.444,1.793
		C282.378,205.642,288.217,201.812,294.148,198.099z"/>
	<path style="fill:#E2E7EB;" d="M65.076,348.002c-7.233-0.047-14.368,0.872-21.513,1.909c-4.04,0.586-8.191,0.57-12.251,0.823
		c-6.063,0.377-12.075,1.868-18.198,1.279c0.983-2.468,2.722-4.452,4.123-6.721c0.716-0.103,1.357-0.276,1.997-0.275
		c7.883,0.018,15.665-1.214,23.488-1.791c5.226-0.385,10.421-1.417,15.699-1.248c2.422,0.077,4.905,0.462,6.958-1.079
		C68.499,343.807,66.076,345.843,65.076,348.002z"/>
	<path style="fill:#476C92;" d="M462.777,347.796c2.822,0.525,5.486-0.049,8.222-0.816c9.841-2.758,19.733-5.332,29.602-7.987
		c0.923-0.248,1.825-0.577,2.637-0.836c0.851,0.438,0.765,1.139,0.829,1.778c-2.977,2.722-4.995,6.465-8.824,8.28
		c-0.811-1.704-1.951-1.033-3.302-0.672c-11.13,2.98-22.319,5.744-33.414,8.848c-2.161,0.604-4.222,0.41-6.322,0.65
		C455.44,353.628,458.935,350.514,462.777,347.796z"/>
	<path style="fill:#ACBBC8;" d="M418.162,322.019c5.267,0.458,9.925-2.061,14.851-3.191c7.801-1.79,15.448-4.242,23.177-6.353
		c2.006-0.548,4.125-1.412,5.933,0.555c-1.339,1.99-2.678,3.98-4.017,5.97c-7.682,1.442-15.115,3.85-22.647,5.871
		c-6.129,1.645-12.231,3.395-18.365,5.023c-0.935,0.248-1.978,0.09-2.97,0.12C414.889,327.056,417.027,324.791,418.162,322.019z"/>
	<path style="fill:#476C92;" d="M198.212,207.575c-1.795-3.156-4.889-1.743-7.021-1.285c-2.629,0.565-5.194,0.817-7.777,0.662
		c-3.171-0.191-6.037,1.507-9.23,1.108c-1.438-0.18-2.126-0.627-2.083-2.066c5.113-3.661,10.226-7.321,15.953-10.003
		c0.972,0.153,0.977,1.257,1.327,1.486c8.523-0.258,16.626-2.039,24.886-1.378C209.306,200.47,203.768,204.035,198.212,207.575z"/>
	<path style="fill:#7F96AA;" d="M437.47,344.102c-1.471-0.01-2.881-0.08-4.388,0.356c-9.692,2.804-19.443,5.405-29.147,8.172
		c-1.986,0.566-3.933,0.252-5.899,0.336c1.835-2.804,3.823-5.491,6.11-7.948c4.869,0.262,9.225-1.824,13.774-3.019
		c8.47-2.224,16.933-4.474,25.527-6.746c0.567,0.262,0.591,0.924,0.613,1.586C442.049,339.428,440.232,342.194,437.47,344.102z"/>
	<path style="fill:#E2E7EB;" d="M601.133,219.965c20.142-5.32,40.283-10.643,60.429-15.948c0.469-0.124,0.991-0.05,1.488-0.068
		c0.275,1.095,0.551,2.19,0.98,3.895c-20.331,5.447-40.67,10.896-60.902,16.316C601.943,222.733,601.034,221.582,601.133,219.965z"
		/>
	<path style="fill:#92A5B6;" d="M213.158,246.036c-7.777-0.777-15.446,0.912-23.186,1.14c-2.52,0.074-5.134,0.817-7.771,0.849
		c-1.498,0.018-2.122-0.625-2.114-2.045c3.34-2.656,6.681-5.311,10.021-7.967c0.269,0.832,0.818,1.409,1.961,1.915
		c1.629-1.225,3.778-0.878,5.883-0.942c6.361-0.193,12.704-0.666,18.95-1.918c1.973-0.396,3.446,0.964,5.246,0.958
		C219.837,241.467,216.098,243.303,213.158,246.036z"/>
	<path style="fill:#E2E7EB;" d="M153.076,324.002c-6.871,0.265-13.685,1.291-20.515,1.768c-5.234,0.366-10.442,1.589-15.702,1.183
		c-4.01-0.309-7.754,1.614-11.744,1.059c0.915-2.377,2.361-4.338,5.035-6.11c14.414-1.298,29.387-2.646,44.626-4.018
		C155.101,320.53,154.471,322.366,153.076,324.002z"/>
	<path style="fill:#E2E7EB;" d="M426.115,279.99c4.967-0.87,9.73-2.52,14.59-3.802c11.779-3.108,23.576-6.143,35.366-9.208
		c1.416,3.832,1.418,3.838-2.251,5.14c-7.967,2.828-16.24,4.574-24.361,6.856c-5.313,1.493-10.678,2.804-15.968,4.372
		c-1.119,0.331-2.17,0.656-3.334,0.658C426.836,284.01,426.735,283.922,426.115,279.99z"/>
	<path style="fill:#476C92;" d="M272.207,197.587c-0.488-2.186-2.29-1.896-3.475-1.314c-1.921,0.943-3.857,0.844-5.761,0.683
		c-4.278-0.362-8.308,1.667-12.602,1.091c-1.282-0.172-2.283-0.255-2.215-1.85c4.794-3.314,9.5-6.768,14.826-9.226
		c4.565,1.848,9.301,1.302,13.894,0.495c2.296-0.403,4.512-0.336,6.767-0.419c0.969-0.036,1.421,0.629,1.605,1.507
		C281.222,192.03,276.867,195.029,272.207,197.587z"/>
	<path style="fill:#476C92;" d="M346.204,179.292c-3.257-2.403-6.765-1.222-10.232-0.732c-4.086,0.578-8.18,1.197-12.138-0.655
		c4.418-3.429,8.932-6.706,14.097-8.959c2.076,1.36,4.541,1.538,6.663,0.916c5.214-1.529,10.447-0.628,15.67-0.766
		C355.888,172.923,351.184,176.297,346.204,179.292z"/>
	<path style="fill:#E2E7EB;" d="M514.112,248.997c6.459-1.713,12.955-3.303,19.35-5.23c1.456-0.439,2.891-0.525,4.309-0.861
		c7.94-1.882,15.596-4.808,23.683-6.225c2.173-0.381,4.14-2.036,6.588-1.742c0,1.138,0,2.276,0,3.868
		c-17.747,4.605-35.201,9.95-53.119,13.5C513.792,251.006,514.23,249.933,514.112,248.997z"/>
	<path style="fill:#E2E7EB;" d="M237.097,294.99c-2.668-2.038-5.673-0.995-8.452-0.606c-1.421,0.199-2.851,0.614-4.332,0.629
		c-6.552,0.068-13.028,0.892-19.487,1.922c-1.132,0.181-2.314,0.1-3.471,0.069c-2.8-0.074-5.584-0.079-8.239,1.008
		c-0.13-2.413,2.012-3.223,3.461-4.939c13.424-1.252,27.055-2.524,41.015-3.826C240.532,291.141,238.699,293.063,237.097,294.99z"/>
	<path style="fill:#476C92;" d="M902.671,190.189c3.537,0,6.801,0,10.313,0c0,3.564,0,6.932,0,10.563c-3.496,0-6.876,0-10.625,0
		C902.249,197.118,901.767,193.618,902.671,190.189z"/>
	<path style="fill:#365979;" d="M321.115,480.066c-0.014,0.613-0.027,1.225-0.041,1.838c-5.034,2.659-10.338,4.637-15.782,6.263
		c-0.621-0.133-1.243-0.266-1.864-0.399C309.118,484.729,315.085,482.324,321.115,480.066z"/>
	<path style="fill:#365979;" d="M500.081,94.854c0.001-0.569,0.002-1.137,0.003-1.706c3.078-1.535,6.283-2.648,9.766-2.926
		C506.894,92.42,503.572,93.814,500.081,94.854z"/>
	<path style="fill:#85C77B;" d="M309.06,373.901c0.006-0.428,0.011-0.855,0.017-1.283c2.938-1.572,6.152-2.002,9.405-2.314
		C315.529,372.029,312.422,373.304,309.06,373.901z"/>
	<path style="fill:#476C92;" d="M303.428,487.768c0.621,0.133,1.243,0.266,1.864,0.399c-3.337,1.925-6.872,3.24-10.711,3.636
		C297.345,489.991,300.241,488.545,303.428,487.768z"/>
	<path style="fill:#85C77B;" d="M278.193,266.271c-0.005,0.491-0.01,0.983-0.015,1.474c-2.663,1.273-5.506,1.797-8.473,1.943
		C272.366,268.111,275.127,266.823,278.193,266.271z"/>
	<path style="fill:#365979;" d="M172.126,507.188c0.012,0.488,0.024,0.976,0.037,1.465c-2.343,1.174-4.731,2.197-8.356,2.522
		C166.859,508.945,169.437,507.954,172.126,507.188z"/>
	<path style="fill:#A7D59E;" d="M236.083,402.981c0.011-0.415,0.022-0.83,0.033-1.246c2.289-1.353,4.695-2.131,8.565-1.493
		C241.076,401.28,238.961,403.162,236.083,402.981z"/>
	<path style="fill:#85C77B;" d="M380.033,341.819c0.024-0.457,0.048-0.915,0.072-1.372c2.201-1.201,4.607-1.521,7.059-1.639
		l0.132,0.189C385.228,340.847,382.574,341.188,380.033,341.819z"/>
	<path style="fill:#85C77B;" d="M351.169,232.196c-0.008,0.556-0.017,1.112-0.025,1.668c-1.854,1.131-3.972,1.179-6.031,1.467
		c0.005-0.422,0.011-0.843,0.016-1.265C347.124,233.383,349.001,232.319,351.169,232.196z"/>
	<path style="fill:#476C92;" d="M232.153,495.195c0.368,0.34,0.736,0.68,1.103,1.02c-1.389,1.165-2.987,1.729-5.127,1.904
		C228.93,495.948,230.72,495.816,232.153,495.195z"/>
	<path style="fill:#A7D59E;" d="M345.129,234.066c-0.005,0.422-0.011,0.843-0.016,1.265c-0.903,1.015-1.874,1.034-2.943,0.215
		C342.926,234.528,343.894,234.031,345.129,234.066z"/>
	<path style="fill:#A7D59E;" d="M420.16,204.074c-0.03,0.406-0.06,0.813-0.089,1.219c-0.802,1.157-1.785,1.016-2.897,0.394
		C417.797,204.406,418.831,203.974,420.16,204.074z"/>
	<path style="fill:#A7D59E;" d="M340.81,236.522c-0.677,0.521-1.369,0.659-2.281-0.015
		C339.369,235.837,340.07,235.873,340.81,236.522z"/>
	<path style="fill:#CEE7CA;" d="M391.45,337.715c0.69-1.01,1.394-0.656,2.204-0.42C392.965,338.286,392.262,337.95,391.45,337.715z"
		/>
	<path style="fill:#CEE7CA;" d="M387.163,338.808c0.715-1.332,1.63-1.08,2.637-0.35c-0.698,0.941-1.634,0.582-2.505,0.539
		L387.163,338.808z"/>
	<path style="fill:#365979;" d="M512.661,89.407c-0.385,0.55-0.826,0.583-1.348,0.181C511.685,88.969,512.146,89.068,512.661,89.407
		z"/>
	<path style="fill:#85C77B;" d="M267.955,270.619c-0.598,0-0.88,0-1.197,0C267.056,270.097,267.348,270.331,267.955,270.619z"/>
	<path style="fill:#A7D59E;" d="M414.29,206.479c0.487-0.38,0.971-0.731,1.588-0.067
		C415.391,207.363,414.847,206.967,414.29,206.479z"/>
	<path style="fill:#476C92;" d="M227.1,498.478c-0.529,0.445-1.006,0.739-1.609,0.14C225.978,497.694,226.506,498.066,227.1,498.478
		z"/>
</g>
</svg>
