<?xml version="1.0" encoding="iso-8859-1"?>
<!-- Generator: Adobe Illustrator 27.0.0, SVG Export Plug-In . SVG Version: 6.00 Build 0)  -->
<svg version="1.1" id="Layer_1" xmlns="http://www.w3.org/2000/svg" xmlns:xlink="http://www.w3.org/1999/xlink" x="0px" y="0px"
	 viewBox="0 0 1489 539" style="enable-background:new 0 0 1489 539;" xml:space="preserve">
<g>
	<path style="fill:#375083;" d="M0,393c1.775-1.531,1.379-3.844,2.034-5.773c1.642-4.834,3.21-5.996,8.26-6.4
		c7.475-0.598,14.956-0.489,22.438-0.503c35.82-0.067,71.641-0.154,107.462-0.181c6.89-0.005,13.213-1.263,18.103-6.658
		c3.123-3.445,4.997-7.507,5.617-12.02c1.126-8.203-5.208-15.181-14.599-16.314c-1.646-0.199-3.327-0.141-4.991-0.141
		c-31.824-0.007-63.648-0.02-95.473,0.009c-5.011,0.005-10.006-0.213-14.881-1.359c-12.443-2.924-20.934-12.032-22.716-24.872
		c-1.743-12.562,0.76-24.189,9.142-34.104c6.277-7.426,14.589-11.425,23.881-13.467c6.334-1.392,12.776-2.118,19.297-2.109
		c30.158,0.038,60.316,0.029,90.474,0.011c11.329-0.007,22.657-0.083,33.986-0.123c1.166-0.004,2.339-0.06,3.497,0.045
		c3.493,0.317,4.548,1.461,3.874,4.802c-0.569,2.822-0.426,5.63-0.536,8.45c-0.254,6.465-2.641,8.813-8.934,8.566
		c-42.955-1.684-85.927-0.245-128.888-0.656c-7.666-0.073-14.879,1.468-20.148,7.926c-3.213,3.938-4.703,8.457-4.672,13.367
		c0.046,7.329,4.548,12.223,12.284,13.341c3.928,0.567,7.896,1.034,11.912,1.034c30.989-0.004,61.979,0.104,92.968,0.095
		c6.049-0.002,11.884,0.898,17.646,2.723c11.962,3.789,18.053,12.176,19.935,24.298c4.303,27.704-19.242,47.401-40.931,48.125
		c-19.143,0.639-38.287,0.507-57.432,0.569c-26.108,0.084-52.216,0.211-78.325,0.314C6.824,402.009,3.331,402.328,0,401
		C0,398.333,0,395.667,0,393z"/>
	<path style="fill:#375083;" d="M1489,304c-1.808,1.776-1.191,4.297-1.928,6.423c-1.806,5.209-3.836,7.069-9.3,7.427
		c-2.489,0.163-4.993,0.152-7.49,0.15c-34.815-0.035-69.63-0.081-104.446-0.125c-0.833-0.001-1.666-0.002-2.499,0
		c-7.931,0.022-8.721,0.76-9.454,8.687c-0.338,3.652-1.208,7.208-2.197,10.725c-0.366,1.299-0.951,2.503,0.04,4.062
		c1.988,1.495,4.563,0.956,6.989,0.953c32.648-0.032,65.296-0.118,97.944-0.159c2.629-0.003,5.343-0.394,8.2,1.222
		c0.62,4.516-0.938,8.958-1.835,13.45c-0.373,1.87-2.005,2.626-3.702,2.889c-1.468,0.228-2.987,0.165-4.484,0.165
		c-28.486,0.008-56.972,0.015-85.458-0.003c-4.993-0.003-9.989-0.239-14.98-0.157c-6.213,0.102-6.997,1.044-7.572,7.174
		c-0.263,2.799-0.969,5.556-1.469,8.333c-0.412,2.292-0.701,4.584-0.139,6.719c2.169,2.182,4.722,1.906,7.201,1.906
		c27.653,0.002,55.307,0.002,82.96,0.002c10.495,0,20.99-0.015,31.485,0.014c1.797,0.005,3.677-0.339,5.857,1.131
		c1.13,5.205-0.3,10.374-2.645,15.334c-0.837,1.77-2.903,2.163-4.715,2.425c-1.472,0.213-2.991,0.123-4.489,0.124
		c-31.152,0.005-62.303-0.009-93.455,0.01c-13.992,0.009-27.984,0.097-41.975,0.109c-2.113,0.002-4.381,0.435-6.186-1.534
		c-0.846-2.337-0.476-4.84-0.033-7.268c3.401-18.623,6.91-37.227,10.311-55.85c1.939-10.615,3.736-21.256,5.608-31.883
		c0.173-0.981,0.399-1.954,0.652-2.918c1.076-4.096,1.623-4.643,5.79-4.671c10.161-0.068,20.323-0.039,30.485-0.02
		c21.988,0.04,43.976,0.113,65.963,0.145c16.989,0.025,33.978,0.008,50.967,0.01C1489,300.667,1489,302.333,1489,304z"/>
	<path style="fill:#F99F55;" d="M908,0c6.333,0,12.667,0,19,0c0.008,0.302,0.041,0.601,0.099,0.897
		c-6.41-0.016-12.821-0.033-19.231-0.049C907.912,0.565,907.956,0.283,908,0z"/>
	<path style="fill:#FDC799;" d="M908,0c-0.044,0.283-0.088,0.565-0.132,0.848c-4.303,0.03-8.607,0.059-12.91,0.089
		C895.099,0.631,895.113,0.318,895,0C899.333,0,903.667,0,908,0z"/>
	<path style="fill:#FDC799;" d="M927.099,0.897C927.041,0.601,927.008,0.302,927,0c3.667,0,7.333,0,11,0
		c-0.04,0.299-0.016,0.594,0.073,0.882C934.415,0.887,930.757,0.892,927.099,0.897z"/>
	<path style="fill:#ABADC6;" d="M1328,539c0.012-0.286-0.013-0.569-0.075-0.849c3.383,0,6.766,0,10.149,0
		c-0.062,0.28-0.087,0.563-0.075,0.849C1334.667,539,1331.333,539,1328,539z"/>
	<path style="fill:#F58322;" d="M1101.558,71.797c-9.759,1.809-18.714,3.557-27.7,5.118c-32.086,5.574-63.707,13.152-94.975,22.192
		c-41.489,11.995-82.205,26.283-122.313,42.263c-31.314,12.475-62.146,26.094-92.818,40.076
		c-29.008,13.223-57.599,27.37-87.184,39.317c-34.687,14.008-70.135,25.654-106.633,33.912c-21.067,4.766-42.34,8.443-63.879,10.482
		c-10.439,0.988-20.903,1.424-31.35,2.133c-12.511,0.849-24.971,0.312-37.372-0.541c-62.803-4.316-120.339-23.438-170.928-61.759
		c-11.038-8.362-21.498-17.37-31.473-26.934c-4.919-4.716-9.355-9.938-13.953-14.984c-0.705-0.773-1.705-1.501-1.641-2.755
		c1.014-0.694,1.584-0.022,2.221,0.501c37.839,31.052,80.989,51.16,128.55,61.975c20.606,4.686,41.518,7.37,62.645,8.6
		c14.151,0.824,28.295,0.933,42.419,0.362c13.437-0.543,26.842-1.806,40.215-3.474c21.948-2.738,43.621-6.841,65.141-11.872
		c36.279-8.482,71.537-20.176,106.199-33.736c26.919-10.531,53.378-22.138,79.604-34.278c44.933-20.799,90.788-39.26,138.011-54.201
		c31.824-10.069,64.052-18.68,96.882-24.805c17.139-3.198,34.399-5.692,51.757-7.563c13.222-1.426,26.464-2.615,39.722-3.36
		c9.094-0.511,17.291,2.793,24.167,8.959C1098.22,68.635,1099.524,69.896,1101.558,71.797z"/>
	<path style="fill:#F58322;" d="M213.123,128.843c25.793,17.421,53.556,30.667,83.427,39.484c19.309,5.699,38.98,9.47,58.964,11.875
		c23.194,2.791,46.457,3.53,69.751,2.569c16.089-0.664,32.126-2.24,48.114-4.39c56.545-7.604,111.137-22.689,164.544-42.419
		c33.016-12.197,65.446-25.832,97.59-40.137c47.898-21.316,97.113-38.73,148.273-50.369c20.24-4.604,40.685-8.136,61.325-10.612
		c23.866-2.862,47.787-3.479,71.756-2.642c10.787,0.377,21.559,1.384,32.262,2.893c5.715,0.805,12.315,4.097,16.844,8.31
		c-1.881,1.373-3.995,1.392-6.105,1.467c-17.127,0.612-34.133,2.456-51.092,4.866c-68.423,9.724-133.998,29.726-198.168,54.813
		c-33.722,13.183-66.811,27.846-99.72,42.912c-30.675,14.043-61.914,26.656-93.944,37.242
		c-30.282,10.008-61.085,18.148-92.453,23.955c-19.438,3.598-39.021,6.208-58.784,7.554c-16.644,1.134-33.291,1.371-49.905,0.566
		c-47.86-2.32-93.634-12.957-136.17-35.696c-24.666-13.186-46.994-29.569-66.739-49.418c-0.815-0.819-1.522-1.744-2.279-2.62
		C211.449,128.979,212.286,128.911,213.123,128.843z"/>
	<path style="fill:#F58322;" d="M927.099,0.897c3.658-0.005,7.316-0.01,10.974-0.015c27.062,1.161,62.975,8.973,78.026,15.955
		c-2.785,1.716-5.686,1.009-8.209,0.726c-9.328-1.045-18.602-0.059-27.889,0.229c-46.445,1.444-91.658,10.275-136.287,22.703
		c-37.826,10.534-74.431,24.412-110.478,39.856c-31.126,13.336-61.978,27.321-93.649,39.369
		c-37.438,14.242-75.576,26.21-114.674,34.952c-19.936,4.457-40.071,7.871-60.352,10.521c-26.316,3.439-52.727,4.777-79.181,3.551
		c-40.63-1.884-80.108-9.637-117.544-26.061c-24.061-10.556-46.094-24.45-65.985-41.669c-0.49-0.424-0.827-1.026-1.235-1.545
		c0.171-0.219,0.348-0.432,0.532-0.64c5.914,1.757,11.255,4.852,16.842,7.351c28.515,12.758,58.187,21.337,89.078,26.046
		c28.772,4.386,57.688,4.998,86.617,3.506c36.544-1.885,72.639-7.346,108.373-15.374c47.872-10.755,94.361-25.893,140.249-43.072
		c27.37-10.246,54.02-22.214,80.979-33.442c35.177-14.651,71.261-26.415,108.524-34.402c16.73-3.586,33.635-6.233,50.722-7.612
		c4.14-0.334,8.27-0.769,12.424-0.895c4.303-0.03,8.607-0.059,12.91-0.089C914.278,0.864,920.688,0.881,927.099,0.897z"/>
	<path style="fill:#375083;" d="M853.441,353.889c21.5,15.568,43.001,31.136,64.518,46.717c-0.973,1.658-2.267,1.036-3.296,1.042
		c-8.83,0.052-17.661-0.044-26.489,0.075c-2.663,0.036-4.799-0.754-6.884-2.338c-18.291-13.889-36.65-27.689-54.924-41.599
		c-3.735-2.843-7.688-4.216-12.445-4.171c-17.159,0.161-34.32,0.078-51.48,0.046c-2.315-0.004-4.617-0.025-6.954-0.336
		c-5.806-0.773-8.403,1.154-9.199,7.044c-1.18,8.737-2.935,17.366-4.405,26.048c-0.582,3.436-1.172,6.874-1.879,10.286
		c-0.83,4-2.084,5.142-6.015,5.269c-3.158,0.102-6.338,0.081-9.486-0.164c-5.063-0.394-6.853-2.558-6.066-7.597
		c1.59-10.175,3.366-20.32,5.098-30.473c2.821-16.533,5.672-33.061,8.504-49.592c2.3-13.426,4.534-26.864,6.919-40.275
		c0.772-4.339,1.651-5.013,5.975-5.01c42.981,0.021,85.962,0.078,128.943,0.14c6.382,0.009,12.555,1.377,18.552,3.393
		c12.182,4.095,19.982,12.101,21.986,25.182c2.197,14.34,0.292,27.567-10.249,38.47c-7.907,8.178-17.768,12.674-28.779,14.865
		c-7.184,1.429-14.44,2.264-21.807,1.978C853.534,353.221,853.488,353.555,853.441,353.889z M751.582,331.523
		c3.545,2.122,7.08,0.752,10.49,0.759c32.807,0.071,65.614,0.05,98.421,0.029c2.66-0.002,5.333-0.063,7.978-0.321
		c11.317-1.102,20.274-8.847,23.029-19.785c0.663-2.634,0.679-5.228-0.021-7.878c-2.139-8.092-7.851-11.95-15.644-13.421
		c-6.603-1.246-13.276-0.708-19.92-0.729c-30.474-0.097-60.948-0.131-91.422-0.165c-6.028-0.007-6.727,0.586-7.771,6.561
		c-1.655,9.48-3.238,18.972-4.874,28.455C751.49,327.11,750.329,329.133,751.582,331.523z"/>
	<path style="fill:#365083;" d="M1312.306,299.436c1.108,1.066,1.552,2.318,1.298,3.693c-0.573,3.102-1.141,6.212-1.922,9.265
		c-0.889,3.478-3.309,5.282-6.877,5.464c-2.162,0.11-4.33,0.14-6.495,0.141c-25.997,0.009-51.994-0.008-77.99,0.013
		c-8.897,0.007-17.523,1.528-25.779,4.923c-14.58,5.996-22.835,16.888-24.3,32.523c-1.082,11.549,4.371,21.072,15.812,25.514
		c6.311,2.45,12.998,2.777,19.628,2.817c22.663,0.135,45.327,0.05,67.991,0.054c2.663,0.001,5.333,0.164,7.987,0.02
		c2.366-0.129,4.28-1.199,4.362-3.887c0.175-5.698,1.57-11.167,2.855-16.665c0.11-0.47,0.015-0.988,0.015-1.339
		c-1.491-2.772-4.047-2.266-6.282-2.265c-13.829,0.003-27.657,0.119-41.486,0.143c-1.925,0.003-4.066,0.597-5.864-1.712
		c-0.174-4.193,1.187-8.416,2.902-12.529c0.687-1.648,2.252-2.433,4.016-2.567c1.825-0.138,3.66-0.193,5.49-0.194
		c18.331-0.013,36.662-0.029,54.993,0.011c3.26,0.007,6.586-0.824,9.678,0.437c1.5,1.654,1.324,3.35,0.972,5.252
		c-2.361,12.737-4.628,25.491-6.895,38.246c-0.61,3.436-1.055,6.901-1.678,10.334c-0.974,5.365-2.58,6.74-8.074,6.73
		c-18.155-0.03-36.31-0.051-54.464-0.208c-12.827-0.111-25.655,0.67-38.476,0c-10.794-0.564-21.567-1.37-31.721-5.622
		c-14.545-6.091-23.535-16.598-25.035-32.557c-2.915-31.007,15.438-54.628,42.499-62.321c9.463-2.69,19.183-4.104,29.039-4.139
		c29.161-0.104,58.323-0.128,87.485-0.156C1308.128,298.855,1310.324,298.504,1312.306,299.436z"/>
	<path style="fill:#385183;" d="M545.11,400.112c-0.577-5.22,1.092-10.013,1.963-14.891c4.875-27.304,9.811-54.598,14.791-81.883
		c1.022-5.601,1.89-6.219,7.639-6.21c32.152,0.052,64.307-0.106,96.454,0.302c13.109,0.167,25.76,2.994,36.448,11.434
		c9.028,7.129,13.775,16.658,14.389,27.95c0.914,16.806-3.911,31.933-15.334,44.509c-7.695,8.473-17.597,13.549-28.539,16.55
		c-13.278,3.641-26.897,4.101-40.567,4.082c-26.655-0.036-53.31,0.038-79.965,0.016C549.984,401.97,547.33,402.687,545.11,400.112z
		 M570.54,380.69c2.407,2.47,4.489,2.328,6.43,2.114c12.578-1.385,25.186,0.332,37.793-0.551c8.612-0.603,17.309,0.031,25.969,0.055
		c6.156,0.017,12.306-0.071,18.385-1.278c11.565-2.296,21.258-7.606,27.885-17.62c5.201-7.86,8.089-16.375,5.868-25.925
		c-2.47-10.618-12.63-18.37-24.969-19.601c-9.621-0.96-19.252-1.228-28.904-1.2c-17.487,0.051-34.974,0.12-52.461,0.205
		c-1.469,0.007-3.015-0.323-5.152,1.199C577.83,338.603,574.159,359.795,570.54,380.69z"/>
	<path style="fill:#364F82;" d="M967.295,402.163c-0.975-3.781,0.476-7.315,1.131-10.834c4.738-25.463,9.433-50.932,13.766-76.468
		c0.583-3.435,1.23-6.859,1.864-10.286c0.87-4.704,1.874-5.654,6.543-5.709c4.495-0.053,8.991,0.115,13.487,0.124
		c28.146,0.055,56.294-0.053,84.438,0.218c9.5,0.092,18.88,1.738,27.572,5.925c14.749,7.105,21.939,19.17,22.908,35.277
		c1.716,28.547-16.166,51.491-44.691,59.375c-9.654,2.668-19.561,3.818-29.558,3.862c-30.147,0.135-60.295,0.163-90.443,0.213
		C972.02,403.865,969.602,404.32,967.295,402.163z M992.266,381.687c1.34,2.7,3.616,2.212,5.759,2.214
		c18.81,0.02,37.621,0.014,56.431,0.116c8.828,0.048,17.627-0.126,26.29-2.025c16.715-3.665,29.883-12.188,33.757-32.672
		c2.404-12.712-3.593-23.724-15.691-28.236c-5.508-2.054-11.312-2.949-17.099-3.002c-24.305-0.224-48.612-0.189-72.918-0.19
		c-4.559,0-5.998,1.267-6.733,5.608C998.793,342.801,995.559,362.109,992.266,381.687z"/>
	<path style="fill:#375083;" d="M404.024,321.971c-1.684,9.185-3.373,18.145-4.964,27.123c-2.549,14.389-5.019,28.792-7.55,43.184
		c-1.923,10.931-0.696,9.525-11.96,9.593c-2.665,0.016-5.331-0.01-7.996,0.006c-1.187,0.007-2.339-0.037-3.279-1.123
		c-0.887-1.836-0.391-3.853-0.04-5.774c4.472-24.495,9.02-48.976,13.515-73.466c1.139-6.205,2.169-12.43,3.23-18.649
		c0.778-4.562,1.802-5.457,6.541-5.796c9.717-0.694,18.408,1.987,26.078,7.95c14.845,11.54,29.618,23.172,44.511,34.65
		c15.55,11.985,31.203,23.836,46.818,35.736c0.784,0.597,1.632,1.11,2.43,1.648c1.335-0.99,1.386-2.359,1.612-3.617
		c3.96-22.056,7.904-44.115,11.847-66.174c0.379-2.123,0.778-4.244,1.072-6.379c0.33-2.394,1.879-3.584,4.044-3.678
		c3.987-0.173,8.002-0.266,11.978,0.002c3.96,0.267,5.169,1.839,5.186,5.825c0.025,5.703-1.505,11.196-2.5,16.741
		c-4.399,24.513-8.754,49.032-12.734,73.616c-0.186,1.148-0.452,2.287-0.743,3.414c-0.993,3.853-2.169,4.771-6.22,5.193
		c-9.752,1.015-18.453-1.642-26.137-7.595c-10.524-8.154-20.911-16.485-31.448-24.622c-20.016-15.458-40.094-30.835-60.156-46.233
		C406.383,322.952,405.695,322.165,404.024,321.971z"/>
	<path style="fill:#375083;" d="M365.234,401.872c-8.392,0-16.045-0.02-23.699,0.012c-2.447,0.01-4.145-0.995-5.035-3.297
		c-0.179-0.463-0.356-0.927-0.518-1.396c-3.489-10.108-11.026-14.449-21.27-15.058c-5.336-0.317-10.62,0.435-15.933,0.547
		c-23.654,0.499-47.308,0.02-70.963-0.004c-1-0.001-2.003,0.054-2.999-0.009c-4.401-0.277-7.658,1.499-10.1,5.175
		c-3.485,5.248-8.123,9.257-13.94,11.737c-5.897,2.514-12.03,3.631-18.469,2.677c-1.968-0.292-3.985-0.365-5.978-0.35
		c-1.711,0.013-2.887-0.561-3.361-1.835c16.234-14.99,31.214-31.019,46.747-46.482c16.762-16.686,33.189-33.708,49.819-50.528
		c8.616-8.715,24.221-8.607,32.836,0.063c2.251,2.265,4.091,4.828,5.694,7.555c16.606,28.248,34.779,55.51,52.292,83.187
		C361.862,396.241,363.286,398.668,365.234,401.872z M284.407,316.851c-15.344,15.799-31.369,31.111-47.023,47.714
		c26.526,0,52.079,0,78.538,0c-9.926-15.741-19.466-30.874-29.018-46C286.367,317.715,285.734,316.923,284.407,316.851z"/>
	<path style="fill:#364F82;" d="M1202.95,270.124c-1.706-7.846-3.274-15.288-4.946-22.707
		c-8.047-35.705-18.623-70.599-34.247-103.784c-13.171-27.976-29.658-53.84-50.291-76.987c-6.529-7.324-13.485-14.226-20.593-21.266
		c2.104-0.617,3.486,0.576,4.957,1.155c20.578,8.097,38.264,20.563,54.141,35.802c21.027,20.181,36.618,44.23,49.945,69.894
		c9.667,18.617,17.585,37.923,22.568,58.36c2.752,11.284,3.981,22.578,0.546,33.964
		C1221.889,254.968,1212.814,267.06,1202.95,270.124z"/>
	<path style="fill:#365083;" d="M1239.445,226.494c-1.924-8.733-3.509-16.809-5.492-24.785
		c-9.17-36.887-24.542-70.787-48.667-100.446c-11.602-14.264-24.771-26.905-39.217-38.245c-0.641-0.503-1.411-0.869-1.687-1.958
		c4.614,0.209,8.835,1.763,12.922,3.452c21.156,8.742,41.073,19.635,58.185,35.059c20.509,18.485,34.962,40.683,41.078,67.94
		c2.345,10.448,2.298,20.603-1.515,30.775C1251.298,208.299,1246.117,217.414,1239.445,226.494z"/>
	<path style="fill:#385183;" d="M1338.075,538.151c-3.383,0-6.766,0-10.149,0c-7.565-0.638-14.68-2.678-21.092-6.851
		c-3.809-2.479-4.103-3.939-1.702-7.712c0.965-1.517,1.891-3.059,2.726-4.413c1.763-0.708,2.686,0.352,3.801,1.072
		c9.138,5.899,18.999,7.93,29.498,4.649c7.773-2.429,11.894-8.254,12.797-16.202c0.391-3.437,0.066-6.956,0.066-10.482
		c-2.021,0.086-3.068,1.533-4.416,2.417c-4.336,2.843-8.925,5.069-13.993,6.315c-16.054,3.945-30.613-5.108-36.425-19.053
		c-4.223-10.133-4.312-20.444-0.085-30.576c7.934-19.02,29.135-25.946,46.884-15.431c2.553,1.513,4.937,3.312,7.635,5.138
		c1.269-3.275,0.779-7.492,4.912-9.061c3.221-1.222,6.15-0.562,9.477,1.493c0,3.574,0.007,7.369-0.001,11.164
		c-0.041,17.979-0.086,35.958-0.129,53.938c-0.012,4.858-0.648,9.631-2.504,14.135
		C1360.358,530.859,1350.735,536.657,1338.075,538.151z M1309.875,471.603c-0.304,3.242,0.276,6.356,1.246,9.374
		c3.145,9.782,12.69,15.831,23.797,14.481c9.312-1.131,18.47-10.041,19.557-19.828c1.017-9.152-1.325-16.941-8.62-22.589
		c-7.464-5.778-15.869-6.477-24.4-2.379C1312.72,454.862,1310.039,462.601,1309.875,471.603z"/>
	<path style="fill:#3A5284;" d="M1210.505,471.232c-1.759,1.687-3.637,1.457-5.456,1.457c-15.664-0.002-31.329,0.017-46.993-0.047
		c-1.69-0.007-3.298-0.124-4.994,1.171c-0.643,4.861,1.43,8.934,4.46,12.578c4.764,5.729,11.16,8.209,18.437,8.577
		c7.011,0.354,13.502-1.356,19.385-5.267c1.37-0.911,2.597-2.114,4.682-2.407c3.07,1.16,4.334,4.46,6.732,6.67
		c-0.598,3.065-2.813,4.633-4.92,6.187c-8.018,5.915-17.225,7.598-26.922,7.181c-3.479-0.15-6.933-0.782-10.3-1.768
		c-15.496-4.537-25.656-18.157-25.498-34.198c0.157-15.997,10.874-29.943,26.385-34.27c8.825-2.462,17.423-1.695,25.838,1.872
		C1202.116,443.534,1211.641,455.881,1210.505,471.232z M1195.903,461.448c-2.019-9.659-10.849-13.154-18.287-13.257
		c-8.527-0.118-19.045,2.957-22.476,13.543c0.848,0.737,1.878,0.554,2.862,0.579c11.121,0.282,22.257-0.561,33.371,0.486
		C1192.855,462.939,1194.308,462.452,1195.903,461.448z"/>
	<path style="fill:#3A5284;" d="M1010.103,487.276c3.383,1.471,4.586,4.791,6.849,7.052c-0.174,0.662-0.147,1.282-0.443,1.58
		c-18.47,18.613-48.374,14.238-61.464-5.075c-12.759-18.825-4.154-44.717,17.297-52.674c14.426-5.352,29.372-2.284,39.095,8.039
		c5.184,5.505,7.992,12.162,9.261,19.513c0.896,5.194-0.639,6.951-6.115,6.965c-15.301,0.039-30.601,0.017-45.902,0.007
		c-1.803-0.001-3.677-0.46-5.62,1.363c-0.447,4.748,1.516,9.007,4.78,12.683c6.589,7.421,15.214,9.014,24.551,7.936
		c4.841-0.559,9.348-2.266,13.273-5.278C1007.003,488.362,1008.52,487.76,1010.103,487.276z M965.185,461.729
		c1.519,1.012,3.233,0.526,4.86,0.572c10.812,0.311,21.64-0.543,32.445,0.459c1.37,0.127,2.605-0.321,3.458-1.479
		c-1.694-8.564-10.229-13.112-19.35-13.126C976.975,448.141,966.976,453.271,965.185,461.729z"/>
	<path style="fill:#375083;" d="M1271.242,177.068c-2.17-21.598-9.844-40.796-22.789-57.832
		c-10.135-13.338-22.451-24.477-35.791-34.518c-4.487-3.377-9.034-6.675-14.192-10.479c4.411-0.291,7.775,0.971,11.15,1.833
		c21.321,5.442,40.981,14.477,58.287,28.14c8.592,6.784,15.58,15.122,18.397,26.007c4.673,18.058-0.844,33.333-13.579,46.391
		C1272.53,176.81,1272.125,176.806,1271.242,177.068z"/>
	<path style="fill:#375083;" d="M928.276,401.69c-1.208-1.976-1.008-3.608-0.713-5.276c3.409-19.301,6.831-38.601,10.189-57.911
		c1.849-10.633,3.576-21.286,5.378-31.927c0.222-1.31,0.545-2.604,0.863-3.895c0.65-2.636,2.362-3.993,5.065-3.813
		c3.513,0.234,6.974-0.047,10.435-0.6c2.249-0.359,4.277,0.221,6.087,1.732c1.078,2.396,0.846,4.971,0.205,7.318
		c-3.162,11.574-4.55,23.478-6.728,35.23c-3.238,17.475-6.135,35.014-9.233,52.516c-1.179,6.658-2.595,7.902-9.245,7.765
		C936.488,402.745,932.246,403.758,928.276,401.69z"/>
	<path style="fill:#385183;" d="M1464.399,439.312c-5.122,12.07-10.05,23.676-14.972,35.284
		c-7.387,17.423-14.767,34.85-22.158,52.272c-0.714,1.682-1.346,3.419-2.25,4.996c-2.998,5.236-8.997,6.728-14.342,3.318
		c2.868-7.463,5.764-15.022,8.682-22.572c0.479-1.238,1.038-2.447,1.585-3.658c1.54-3.405,1.298-6.697-0.205-10.108
		c-7.765-17.628-15.443-35.294-23.14-52.951c-0.924-2.121-1.777-4.273-2.655-6.394c7.211-3.94,14.176-1.89,17.175,5.276
		c5.383,12.863,10.536,25.822,15.789,38.739c0.482,1.185,0.994,2.357,1.552,3.676c1.765-1.344,2.008-3.228,2.649-4.889
		c4.661-12.085,9.31-24.175,13.974-36.259c0.478-1.238,0.999-2.462,1.555-3.667c1.463-3.167,3.685-5.002,7.449-4.57
		C1458.022,438.142,1461.053,437.797,1464.399,439.312z"/>
	<path style="fill:#3A5284;" d="M1110.696,506.663c-2.623,0.648-5.466,0.39-8.251,0.367c-2.855-0.024-4.27-1.715-4.42-4.959
		c-0.138-2.991,0.053-5.996,0.022-8.994c-0.1-9.811,0.738-19.652-0.907-29.413c-0.275-1.633-0.583-3.274-1.052-4.859
		c-2.468-8.354-9.155-11.893-17.415-9.273c-9.311,2.953-15.415,10.784-15.708,20.88c-0.28,9.651-0.544,19.312-0.133,28.974
		c0.09,2.105,0.576,4.375-1.472,6.392c-3.498,0.675-7.255,0.476-10.706,0.127c-2.08-1.571-1.658-3.512-1.655-5.296
		c0.018-10.829,0.101-21.658,0.107-32.486c0.004-7.83-0.099-15.66-0.112-23.49c-0.011-6.311,0.296-6.589,6.404-6.523
		c1.826,0.02,3.652,0.003,5.226,0.003c3.933,2.548,1.07,6.492,2.678,9.459c0.606,0.184,0.946-0.434,1.316-0.922
		c6.729-8.868,15.914-11.04,26.271-9.176c11.722,2.11,18.464,9.895,20.004,22.324c1.831,14.777,0.633,29.605,0.784,44.41
		C1111.686,505.08,1111.328,505.819,1110.696,506.663z"/>
	<path style="fill:#3A5284;" d="M1276.918,450.733c-0.789,0-0.965,0.035-1.121-0.005c-10.325-2.667-17.217,0.914-20.752,12.347
		c-2.822,9.126-3.163,18.654-2.59,28.146c0.232,3.833,0.245,7.653,0.182,11.471c-0.053,3.187-1.137,4.159-4.229,4.297
		c-2.477,0.111-4.962,0.022-6.825,0.022c-2.422-1.561-2.478-3.372-2.477-5.254c0.015-19.664,0.01-39.328,0.007-58.993
		c0-1.506-0.097-3.031,1.585-4.434c3.207-0.659,6.824-0.137,10.323-0.227c2.785,2.543,1.039,5.882,1.945,8.724
		c1.824-0.14,2.305-1.75,3.109-2.83c3.391-4.556,7.985-6.921,13.488-7.696c4.534-0.638,7.021,1.293,7.424,5.822
		C1277.234,444.908,1277.365,447.712,1276.918,450.733z"/>
	<path style="fill:#FBBE7C;" d="M213.123,128.843c-0.837,0.068-1.674,0.135-2.511,0.203c-2.623-0.353-3.459-2.47-5.032-4.897
		C209.411,124.532,211.199,126.798,213.123,128.843z"/>
	<path style="fill:#F58322;" d="M200.617,99.471c-0.535-0.256-1.123-0.448-1.314-1.152c0.829-0.606,1.381-0.215,1.846,0.511
		C200.965,99.039,200.788,99.252,200.617,99.471z"/>
</g>
</svg>
