<?xml version="1.0" encoding="iso-8859-1"?>
<!-- Generator: Adobe Illustrator 27.0.0, SVG Export Plug-In . SVG Version: 6.00 Build 0)  -->
<svg version="1.1" id="Layer_1" xmlns="http://www.w3.org/2000/svg" xmlns:xlink="http://www.w3.org/1999/xlink" x="0px" y="0px"
	 viewBox="0 0 432 112.059" style="enable-background:new 0 0 432 112.059;" xml:space="preserve">
<g>
	<path style="fill:#2F793E;" d="M0,48.115c1.141-0.32,2.281-0.64,3.469-0.974c0.633,1.759,1.259,3.476,2.095,5.1
		c1.784,3.467,3.914,6.67,7.042,9.107c2.547,1.984,5.385,3.041,8.661,2.883c4.427-0.214,7.804-3.003,8.731-7.327
		c0.868-4.05-0.092-7.567-3.094-10.496c-1.992-1.944-4.312-3.416-6.721-4.762c-2.681-1.498-5.464-2.812-8.041-4.496
		c-2.689-1.756-5.212-3.696-7.183-6.27c-2.71-3.54-3.721-7.562-3.149-11.928C2.9,10.635,7.886,5.601,15.678,3.143
		c4.697-1.482,9.512-1.513,14.341-0.648c2.281,0.409,4.522,0.969,6.702,1.761c0.297,0.108,0.59,0.224,0.918,0.35
		c0.631,4.63,1.258,9.239,1.892,13.894c-1.057,0.412-2.159,0.554-3.235,0.837c-0.371-0.332-0.401-0.789-0.548-1.185
		c-1.029-2.775-2.255-5.445-4.165-7.745c-2.379-2.864-5.407-4.418-9.172-4.404c-4.963,0.019-8.812,3.608-9.281,8.529
		c-0.324,3.398,0.812,6.161,3.331,8.42c1.979,1.774,4.256,3.093,6.583,4.335c2.638,1.408,5.368,2.641,7.922,4.208
		c3.116,1.913,6.035,4.056,8.245,7.023c2.652,3.561,3.678,7.588,3.135,11.95c-1.011,8.12-5.851,13.183-13.257,16.072
		c-3.468,1.353-7.1,1.772-10.811,1.763c-5.409-0.013-10.492-1.353-15.421-3.522c-0.557-1.65-0.852-3.335-1.154-5.016
		c-0.613-3.412-1.137-6.838-1.508-10.286C0.177,49.32,0.155,49.167,0,49.073C0,48.754,0,48.435,0,48.115z"/>
	<path style="fill:#428047;" d="M432,9.558c-0.355,0.021-0.711,0.088-1.131-0.077c-0.104-1.215-0.211-2.46-0.337-3.935
		c-0.463,1.426-0.853,2.627-1.244,3.83c-0.382,0.232-0.758,0.203-1.21,0.027c-0.361-1.119-0.731-2.269-1.102-3.419
		c-0.064,0.008-0.128,0.017-0.192,0.025c-0.055,1.151-0.11,2.303-0.162,3.398c-0.376,0.247-0.677,0.204-1.107,0.067
		c0.119-1.665,0.24-3.352,0.362-5.069c0.575-0.141,1.076-0.109,1.652-0.032c0.403,1.155,0.805,2.306,1.219,3.491
		c0.407-1.173,0.797-2.296,1.189-3.424c0.484-0.228,0.962-0.06,1.503-0.161c0.282,0.854,0.227,1.688,0.311,2.502
		c0.047,0.451-0.126,0.949,0.249,1.341C432,8.6,432,9.079,432,9.558z"/>
	<path style="fill:#72BC4A;" d="M202.245,111.8c0.025,0.086,0.05,0.172,0.075,0.258c-1.28,0-2.56,0-3.84,0
		c0.02-0.054,0.047-0.106,0.059-0.161c0.005-0.026-0.019-0.058-0.03-0.087C199.754,111.807,201,111.804,202.245,111.8z"/>
	<path style="fill:#2F793E;" d="M106.189,6.838c0-1.127,0-2.191,0-3.241c0.23-0.262,0.523-0.205,0.796-0.205
		c9.556,0.008,19.112-0.024,28.668,0.049c3.512,0.027,7.02,0.287,10.423,1.315c2.567,0.775,4.861,2.033,6.839,3.822
		c2.718,2.458,4.2,5.58,4.636,9.187c0.539,4.452-0.287,8.573-3.184,12.131c-1.663,2.042-3.748,3.574-6.062,4.803
		c-0.878,0.466-1.781,0.884-2.691,1.333c0.123,0.708,0.52,1.272,0.835,1.856c3.614,6.701,7.545,13.21,11.972,19.412
		c0.999,1.4,2.095,2.716,3.33,3.918c1.47,1.43,3.072,2.658,5.067,3.318c-0.081,1.101-0.304,2.1-0.556,3.129
		c-0.777,0-1.529,0.03-2.278-0.005c-3.152-0.146-6.289-0.4-9.383-1.09c-4.376-0.977-7.833-3.258-10.357-6.968
		c-2.246-3.3-4.082-6.834-5.995-10.324c-1.109-2.024-2.198-4.059-3.322-6.075c-0.859-1.541-2.004-2.778-3.771-3.298
		c-1.316-0.388-2.652-0.447-3.953-0.327c-0.277,0.298-0.183,0.591-0.183,0.859c-0.006,4.788-0.018,9.576,0.004,14.364
		c0.007,1.433,0.107,2.863,0.385,4.28c0.379,1.929,1.542,3.098,3.403,3.604c0.962,0.261,1.942,0.459,2.94,0.537
		c0.513,0.04,1.027,0.071,1.549,0.284c0,1.063,0,2.127,0,3.185c-0.962,0.187-27.317,0.255-29.4,0.076
		c-0.18-0.522-0.06-1.08-0.082-1.624c-0.022-0.552-0.005-1.105-0.005-1.653c1.038-0.366,2.071-0.191,3.027-0.487
		c0.113-0.035,0.238-0.028,0.356-0.049c3.271-0.595,4.575-2.073,4.84-5.401c0.134-1.672,0.174-3.344,0.173-5.019
		c-0.006-12.209-0.002-24.418-0.004-36.628c0-1.636-0.082-3.262-0.397-4.876c-0.35-1.791-1.412-2.883-3.132-3.408
		c-1.23-0.376-2.503-0.489-3.766-0.673C106.682,6.917,106.453,6.879,106.189,6.838z M127.017,35.686
		c2.151-0.052,4.169,0.041,6.199-0.219c4.864-0.623,8.047-3.323,9.603-7.846c1.513-4.399,1.388-8.878-0.295-13.214
		c-1.474-3.798-4.277-6.163-8.363-6.87c-1.628-0.282-3.264-0.243-4.875,0.132c-1.365,0.319-1.919,0.983-2.135,2.382
		c-0.098,0.632-0.137,1.264-0.137,1.904c0.005,7.493,0.003,14.985,0.003,22.478C127.017,34.788,127.017,35.143,127.017,35.686z"/>
	<path style="fill:#2F793E;" d="M69.198,40.566c-0.042,0.278-0.075,0.393-0.075,0.508c0.006,5.068,0,10.135,0.038,15.202
		c0.007,0.951,0.145,1.909,0.305,2.849c0.337,1.986,1.561,3.141,3.502,3.624c1.48,0.368,2.989,0.501,4.495,0.672
		c0.274,0.031,0.549,0.056,0.881,0.09c0.18,1.081,0.045,2.137,0.092,3.261c-10.153,0-20.214,0-30.362,0c0-1.008,0-2.067,0-3.203
		c0.656-0.217,1.41-0.238,2.148-0.326c0.755-0.091,1.492-0.25,2.232-0.42c2.166-0.5,3.189-1.952,3.478-4.049
		c0.186-1.346,0.251-2.699,0.251-4.056c-0.001-13.049,0.001-26.097-0.003-39.146c-0.001-1.635-0.072-3.262-0.436-4.871
		c-0.361-1.599-1.332-2.576-2.866-3.066c-1.374-0.438-2.819-0.499-4.275-0.798c-0.138-1.112-0.035-2.206-0.057-3.208
		c0.296-0.285,0.546-0.237,0.78-0.237c9.277,0.008,18.555-0.02,27.831,0.047c3.436,0.025,6.873,0.305,10.181,1.34
		c6.717,2.102,11.087,6.484,12.172,13.509c1.495,9.677-2.72,18.296-12.908,21.99c-2.724,0.988-5.533,1.501-8.403,1.798
		c-2.041,0.211-3.957-0.335-5.896-0.79C71.294,41.051,70.286,40.819,69.198,40.566z M69.119,36.56
		c1.596,0.656,3.168,0.97,4.765,0.977c4.728,0.021,8.13-2.273,10.046-6.452c2.384-5.201,2.49-10.668,0.75-16.081
		c-1.337-4.161-4.306-6.707-8.653-7.503c-1.573-0.288-3.17-0.336-4.749,0.098c-1.167,0.32-1.823,1.058-2.044,2.234
		c-0.104,0.554-0.114,1.108-0.114,1.665c-0.001,8.091-0.001,16.182-0.001,24.273C69.119,36.007,69.119,36.243,69.119,36.56z"/>
	<path style="fill:#2F793E;" d="M285.906,6.867c0-1.165,0-2.233,0-3.388c8.133,0,16.267,0,24.484,0
		c0.139,1.1,0.089,2.194,0.022,3.342c-0.788,0.114-1.531,0.212-2.271,0.332c-0.951,0.154-1.86,0.445-2.728,0.866
		c-1.825,0.887-2.901,2.352-3.231,4.326c-0.414,2.478-0.664,4.974-0.784,7.488c-0.312,6.502-0.075,13.007-0.192,19.509
		c-0.08,4.44-0.545,8.833-1.932,13.078c-2.764,8.464-8.678,13.471-17.295,15.281c-5.532,1.162-11.067,0.815-16.453-0.935
		c-7.184-2.334-11.68-7.214-13.526-14.533c-0.933-3.699-1.257-7.461-1.258-11.261c-0.002-7.983,0.025-15.966-0.019-23.948
		c-0.01-1.827-0.066-3.66-0.348-5.484c-0.357-2.305-1.643-3.656-3.895-4.104c-1.056-0.21-2.13-0.324-3.196-0.484
		c-0.23-0.034-0.459-0.077-0.728-0.122c-0.143-1.108-0.055-2.174-0.053-3.227c0.846-0.258,27.848-0.332,29.388-0.085
		c0,1.089,0,2.186,0,3.311c-1.265,0.194-2.491,0.329-3.693,0.578c-2.55,0.528-3.557,1.656-4.012,4.246
		c-0.319,1.818-0.337,3.656-0.348,5.484c-0.044,7.104-0.06,14.21-0.002,21.314c0.035,4.312,0.365,8.601,1.826,12.721
		c0.656,1.851,1.495,3.606,2.693,5.169c2.478,3.233,5.787,4.932,9.836,5.212c2.411,0.167,4.795,0.012,7.104-0.766
		c3.826-1.29,6.397-3.947,8.117-7.506c1.189-2.461,1.844-5.083,2.274-7.765c0.55-3.437,0.651-6.905,0.659-10.376
		c0.011-4.828,0.056-9.656-0.157-14.481c-0.125-2.832-0.434-5.641-0.927-8.434c-0.35-1.986-1.499-3.295-3.285-4.11
		c-1.622-0.741-3.365-0.968-5.113-1.167C286.587,6.918,286.308,6.901,285.906,6.867z"/>
	<path style="fill:#2F793E;" d="M418.933,18.563c-1.202,0.291-2.239,0.542-3.317,0.802c-0.468-1.185-0.89-2.338-1.375-3.464
		c-1.229-2.847-2.797-5.467-5.251-7.455c-3.509-2.844-8.695-3.287-12.217-0.992c-3.263,2.126-4.493,5.266-4.272,9.037
		c0.147,2.515,1.32,4.546,3.14,6.251c1.854,1.738,4.008,3.032,6.221,4.234c2.734,1.485,5.579,2.759,8.249,4.364
		c2.925,1.759,5.664,3.747,7.882,6.374c5.224,6.19,4.947,15.011,0.625,21.238c-2.826,4.071-6.785,6.571-11.441,8.048
		c-4.339,1.376-8.787,1.534-13.284,1.069c-4.055-0.418-7.869-1.657-11.542-3.238c-0.874-2.084-2.677-12.452-2.888-16.572
		c1.026-0.56,2.217-0.703,3.328-1.145c0.391,0.593,0.495,1.228,0.724,1.809c1.713,4.348,3.966,8.35,7.452,11.553
		c1.945,1.787,4.162,3.134,6.798,3.574c4.242,0.708,7.929-0.418,10.186-3.729c2.1-3.08,2.863-8.806-0.731-12.924
		c-1.757-2.014-3.871-3.574-6.164-4.893c-2.386-1.373-4.839-2.628-7.236-3.981c-2.614-1.477-5.056-3.191-7.285-5.222
		c-7.674-6.994-6.456-17.712-1.403-23.793c3.033-3.65,6.992-5.772,11.544-6.81c6.968-1.588,13.717-0.551,20.361,1.876
		C417.666,9.222,418.291,13.834,418.933,18.563z"/>
	<path style="fill:#307A3F;" d="M350.313,7.999c0,0.377,0,0.807,0,1.237c0,15.163-0.003,30.325,0.004,45.488
		c0.001,1.434,0.006,2.868,0.299,4.287c0.372,1.802,1.369,2.998,3.175,3.517c1.391,0.4,2.813,0.567,4.243,0.698
		c0.556,0.051,1.118,0.046,1.716,0.254c0.161,1.038,0.023,2.109,0.078,3.164c-0.856,0.25-29.406,0.354-31.817,0.117
		c0-1.05,0-2.109,0-3.239c0.463-0.251,1.018-0.244,1.564-0.29c1.433-0.119,2.857-0.295,4.237-0.731
		c1.588-0.502,2.542-1.564,2.919-3.179c0.338-1.449,0.402-2.93,0.405-4.397c0.026-15.362,0.016-30.724,0.014-46.087
		c0-0.31-0.028-0.621-0.046-0.984c-2.208,0-4.357-0.007-6.505,0.003c-1.403,0.006-2.784,0.218-4.16,0.479
		c-2.088,0.396-3.657,1.512-4.75,3.319c-1.165,1.927-1.835,4.052-2.491,6.182c-0.244,0.792-0.46,1.592-0.689,2.389
		c-1.186,0-2.293,0-3.55,0c0.407-6.403,0.809-12.746,1.216-19.157c0.715-0.229,1.468-0.047,2.161-0.099
		c0.117,0.064,0.213,0.084,0.252,0.142c1.198,1.755,2.898,2.302,4.967,2.296c13.316-0.036,26.631-0.035,39.947-0.002
		c2.231,0.005,4.056-0.716,5.452-2.395c0.814,0,1.563,0,2.422,0c0.202,6.289,0.582,12.526,1.077,18.825
		c-1.144,0.374-2.298,0.17-3.387,0.288c-0.332-0.25-0.332-0.582-0.407-0.884c-0.588-2.359-1.295-4.673-2.418-6.847
		c-1.331-2.576-3.4-4.001-6.305-4.341c-3.113-0.365-6.228-0.197-9.342-0.22C350.53,7.832,350.464,7.907,350.313,7.999z"/>
	<path style="fill:#71BC49;" d="M115.816,110.935c-0.47,0.144-0.782,0.153-1.24-0.009c-3.041-7.458-6.12-15.01-9.2-22.561
		c-0.061,0.018-0.122,0.037-0.183,0.055c-0.094,1.609-0.205,3.217-0.277,4.827c-0.128,2.828-0.196,5.658-0.359,8.484
		c-0.106,1.833-0.163,3.656,0.032,5.486c0.155,1.459,0.537,1.923,1.952,2.332c0.651,0.188,1.36,0.019,1.991,0.338
		c0.166,0.448,0.135,0.868-0.015,1.365c-3.457,0-6.913,0-10.405,0c-0.215-0.396-0.1-0.825-0.085-1.21
		c0.233-0.364,0.579-0.303,0.886-0.349c1.817-0.273,2.511-0.927,2.806-2.727c0.193-1.178,0.378-2.361,0.478-3.55
		c0.291-3.453,0.534-6.911,0.803-10.366c0.114-1.469,0.251-2.936,0.368-4.405c0.067-0.836,0.038-1.665-0.115-2.499
		c-0.163-0.887-0.662-1.392-1.489-1.687c-0.723-0.258-1.514-0.148-2.258-0.488c-0.158-0.39-0.077-0.812-0.055-1.307
		c2.834,0,5.615,0,8.549,0c2.957,6.621,5.949,13.32,9.01,20.174c3.117-6.843,6.163-13.531,9.198-20.193c2.842,0,5.586,0,8.386,0
		c0,0.472,0,0.893,0,1.314c-0.445,0.259-0.925,0.251-1.394,0.306c-1.67,0.196-2.256,0.778-2.344,2.441
		c-0.053,0.994-0.071,2,0.02,2.99c0.114,1.234,0.104,2.468,0.136,3.702c0.107,4.185,0.199,8.37,0.309,12.554
		c0.014,0.516,0.094,1.03,0.16,1.543c0.174,1.345,0.69,1.897,2.007,2.15c0.47,0.09,0.944,0.154,1.415,0.239
		c0.068,0.012,0.126,0.079,0.206,0.131c0.142,0.375,0.031,0.769,0.055,1.237c-4.173,0-8.308,0-12.479,0
		c-0.17-0.389-0.052-0.784-0.095-1.199c0.412-0.306,0.889-0.308,1.355-0.376c1.463-0.216,1.916-0.687,2.117-2.133
		c0.33-2.384,0.162-4.783,0.107-7.168c-0.056-2.431-0.079-4.862-0.098-7.293c-0.014-1.752-0.003-3.504-0.213-5.312
		C122.507,95.493,119.161,103.215,115.816,110.935z"/>
	<path style="fill:#71BC49;" d="M240.711,110.959c-0.45,0.124-0.798,0.139-1.222-0.027c-3.05-7.489-6.119-15.024-9.187-22.559
		c-0.054,0.01-0.108,0.02-0.162,0.03c-0.064,0.821-0.15,1.641-0.188,2.463c-0.121,2.629-0.167,5.263-0.353,7.887
		c-0.15,2.112-0.167,4.223-0.188,6.335c-0.005,0.518,0.01,1.038,0.03,1.556c0.086,2.157,0.692,2.797,2.862,3.038
		c0.354,0.039,0.725-0.008,1.123,0.238c0.14,0.399,0.074,0.85,0.037,1.356c-3.497,0-6.922,0-10.408,0
		c-0.218-0.434-0.051-0.897-0.113-1.279c0.395-0.314,0.769-0.27,1.119-0.33c1.529-0.262,2.232-0.964,2.512-2.466
		c0.489-2.628,0.683-5.29,0.915-7.947c0.267-3.056,0.489-6.116,0.699-9.176c0.074-1.073,0.096-2.154,0.065-3.23
		c-0.048-1.661-0.718-2.357-2.389-2.575c-0.472-0.062-0.951-0.069-1.414-0.295c-0.127-0.415-0.095-0.837-0.011-1.324
		c2.804,0,5.587,0,8.471,0c2.962,6.633,5.941,13.306,9.013,20.189c3.115-6.836,6.163-13.528,9.211-20.216c2.832,0,5.582,0,8.335,0
		c0.287,0.437,0.077,0.869,0.158,1.267c-0.569,0.333-1.135,0.307-1.679,0.39c-1.55,0.236-2.114,0.809-2.128,2.365
		c-0.026,2.91-0.018,5.821,0.173,8.729c0.078,1.193,0.043,2.393,0.076,3.59c0.07,2.591,0.15,5.181,0.23,7.771
		c0.009,0.279,0.018,0.561,0.067,0.834c0.234,1.314,0.787,1.856,2.106,2.082c0.51,0.087,1.023,0.161,1.54,0.242
		c0.187,0.452,0.112,0.874,0.082,1.363c-4.191,0-8.332,0-12.513,0c-0.256-0.396-0.038-0.827-0.142-1.301
		c0.499-0.102,0.917-0.2,1.34-0.271c1.648-0.274,2.2-0.852,2.261-2.539c0.053-1.475,0.033-2.953,0.034-4.429
		c0.003-4.986,0.001-9.972-0.132-14.993C247.406,95.452,244.097,103.252,240.711,110.959z"/>
	<path style="fill:#72BC4A;" d="M97.229,110.353c-0.015,0.495,0.007,0.891-0.253,1.316c-3.792,0.038-7.376-0.35-9.656-4.055
		c-1.315-2.137-2.566-4.308-3.81-6.485c-1.136-1.987-1.806-2.321-4.181-2.172c-0.209,0.124-0.185,0.332-0.185,0.526
		c0,2.353,0,4.706,0.005,7.06c0.001,0.279,0.012,0.559,0.038,0.836c0.132,1.429,0.711,2.055,2.145,2.281
		c0.51,0.08,1.028,0.103,1.533,0.31c0.122,0.428,0.142,0.848-0.082,1.309c-4.175,0-8.356,0-12.571,0
		c-0.214-0.44-0.054-0.863-0.099-1.264c0.587-0.268,1.148-0.273,1.691-0.366c1.411-0.241,2.011-0.892,2.132-2.307
		c0.041-0.476,0.039-0.956,0.039-1.435c0.002-6.023,0.003-12.045-0.001-18.068c0-0.518,0.001-1.039-0.054-1.553
		c-0.124-1.159-0.726-1.79-1.88-1.994c-0.545-0.096-1.115-0.049-1.657-0.314c-0.12-0.408-0.09-0.832-0.03-1.206
		c0.155-0.196,0.32-0.18,0.476-0.18c4.317,0.005,8.633,0.01,12.95,0.02c1.203,0.003,2.391,0.169,3.549,0.479
		c2.862,0.766,4.777,2.477,5.336,5.479c0.565,3.032-0.407,5.486-2.844,7.365c-0.755,0.582-1.627,0.979-2.529,1.444
		c0.959,1.943,2.039,3.747,3.18,5.512c1.188,1.839,2.334,3.707,3.837,5.328C95.133,109.112,96.012,109.891,97.229,110.353z
		 M79.324,97.227c0.54,0,1.167,0.013,1.794-0.004c0.556-0.015,1.103-0.082,1.656-0.18c2.726-0.482,4.144-2.882,4.357-4.899
		c0.092-0.872,0.089-1.748,0.021-2.623c-0.26-3.352-2.793-5.512-6.144-5.237c-1.534,0.126-1.86,0.461-1.864,1.996
		c-0.008,3.382-0.004,6.764,0.001,10.147C79.146,96.655,79.079,96.901,79.324,97.227z"/>
	<path style="fill:#71BC49;" d="M310.967,97.372c1.864,3.519,3.874,6.811,6.222,9.881c0.988,1.292,2.092,2.525,3.69,3.085
		c0.098,0.457,0.011,0.838-0.154,1.375c-1.141-0.068-2.321-0.093-3.491-0.217c-2.868-0.304-4.948-1.8-6.442-4.237
		c-1.229-2.004-2.387-4.046-3.544-6.09c-1.142-2.02-1.928-2.429-4.288-2.171c-0.21,0.274-0.109,0.604-0.111,0.909
		c-0.011,2.035-0.007,4.07-0.005,6.104c0,0.359,0.002,0.718,0.021,1.077c0.092,1.714,0.677,2.355,2.354,2.602
		c0.432,0.064,0.862,0.143,1.303,0.217c0.211,0.445,0.115,0.865,0.095,1.354c-4.269,0-8.482,0-12.727,0
		c-0.167-0.41-0.043-0.802-0.093-1.222c0.497-0.245,1.001-0.29,1.508-0.359c1.635-0.223,2.232-0.861,2.334-2.485
		c0.04-0.636,0.039-1.276,0.039-1.914c0.003-5.745,0.003-11.491-0.001-17.236c0-0.558-0.004-1.119-0.055-1.674
		c-0.114-1.255-0.681-1.87-1.915-2.08c-0.543-0.092-1.102-0.099-1.624-0.323c-0.128-0.399-0.06-0.794-0.047-1.181
		c0.255-0.31,0.599-0.188,0.902-0.189c3.838-0.008,7.677-0.004,11.515-0.006c1.522-0.001,3.032,0.105,4.512,0.484
		c2.729,0.699,4.662,2.285,5.324,5.081c0.738,3.117-0.141,5.747-2.719,7.739C312.814,96.483,311.959,96.915,310.967,97.372z
		 M302.849,97.176c1.084,0,2.043,0.087,2.981-0.017c2.54-0.279,4.235-1.777,4.868-4.254c0.401-1.569,0.344-3.142-0.091-4.71
		c-0.77-2.776-3.254-4.288-6.292-3.873c-1.11,0.152-1.452,0.505-1.457,1.522C302.837,89.586,302.849,93.327,302.849,97.176z"/>
	<path style="fill:#71BC49;" d="M172.534,99.012c-0.037,0.067-0.108,0.136-0.108,0.205c-0.017,2.829-0.178,5.661,0.116,8.485
		c0.102,0.978,0.646,1.583,1.608,1.849c0.647,0.179,1.345,0.121,2.003,0.461c0,0.368,0,0.759,0,1.233c-4.175,0-8.353,0-12.595,0
		c-0.238-0.349-0.075-0.784-0.094-1.237c0.518-0.25,1.07-0.264,1.61-0.349c1.437-0.227,2.076-0.927,2.199-2.39
		c0.03-0.357,0.038-0.718,0.038-1.076c0.002-6.186,0.002-12.372-0.001-18.558c0-0.438-0.002-0.881-0.06-1.314
		c-0.165-1.246-0.749-1.834-1.98-2.039c-0.506-0.084-1.013-0.163-1.523-0.245c-0.16-0.467-0.111-0.89-0.052-1.288
		c0.272-0.243,0.565-0.152,0.833-0.152c3.8-0.007,7.599-0.003,11.399-0.006c1.804-0.001,3.592,0.126,5.318,0.695
		c2.559,0.844,4.235,2.533,4.72,5.211c0.521,2.881-0.234,5.365-2.591,7.248c-0.814,0.65-1.744,1.113-2.642,1.578
		c-0.013,0.12-0.055,0.214-0.026,0.271c1.754,3.361,3.757,6.571,6.034,9.602c1.01,1.345,2.161,2.562,3.764,3.162
		c0.096,0.526,0,0.935-0.303,1.366c-1.672-0.142-3.385-0.08-5.051-0.59c-1.497-0.459-2.754-1.231-3.729-2.467
		c-1.34-1.699-2.332-3.613-3.426-5.464c-0.425-0.72-0.825-1.455-1.233-2.185C175.701,99.121,174.788,98.686,172.534,99.012z
		 M172.382,97.166c1.155,0,2.197,0.108,3.208-0.021c2.508-0.321,4.08-1.819,4.713-4.26c0.286-1.101,0.259-2.21,0.179-3.32
		c-0.252-3.497-2.995-5.718-6.467-5.262c-1.235,0.162-1.616,0.521-1.624,1.764C172.366,89.726,172.382,93.385,172.382,97.166z"/>
	<path style="fill:#71BC49;" d="M335.214,111.271c-4.228,0-8.366,0-12.532,0c-0.185-0.409-0.043-0.805-0.109-1.226
		c0.485-0.258,0.989-0.298,1.494-0.37c1.411-0.203,2.009-0.856,2.121-2.29c0.037-0.477,0.047-0.956,0.048-1.435
		c0.003-6.025,0.003-12.05-0.001-18.074c0-0.518-0.01-1.039-0.063-1.554c-0.129-1.25-0.705-1.839-1.954-2.041
		c-0.472-0.076-0.947-0.139-1.419-0.217c-0.069-0.011-0.13-0.073-0.21-0.121c-0.166-0.374-0.024-0.772-0.074-1.153
		c0.865-0.251,9.722-0.343,12.339-0.134c0.24,0.394,0.11,0.824,0.103,1.29c-0.489,0.217-0.998,0.251-1.505,0.324
		c-1.316,0.19-1.949,0.797-2.019,2.103c-0.164,3.069-0.068,6.142-0.06,9.214c0,0.068,0.075,0.136,0.139,0.245
		c1.026-0.17,1.779-0.828,2.492-1.511c2.076-1.991,4.071-4.059,5.888-6.293c0.453-0.557,0.904-1.116,1.354-1.676
		c0.325-0.405,0.596-0.839,0.738-1.353c-0.583-1.001-1.692-0.579-2.523-1.01c-0.174-0.37-0.064-0.801-0.057-1.311
		c3.706,0,7.393,0,11.098,0c0.157,0.412,0.083,0.803,0.063,1.198c-0.266,0.31-0.658,0.306-0.99,0.334
		c-1.985,0.167-3.705,0.94-5.189,2.229c-2.746,2.384-5.184,5.076-7.762,7.696c0.835,1.383,1.804,2.592,2.739,3.819
		c2.418,3.173,4.866,6.323,7.487,9.335c1.097,1.26,2.358,2.26,4.071,2.544c0.109,0.018,0.208,0.103,0.315,0.159
		c0.109,0.398,0.098,0.786,0.003,1.257c-2.693,0-5.392,0-8.18,0c-1.745-2.074-3.404-4.316-5.085-6.538
		c-1.491-1.972-2.943-3.973-4.443-5.938c-0.498-0.652-0.99-1.382-1.918-1.365c-0.27,0.155-0.256,0.359-0.255,0.556
		c0.007,2.873,0.014,5.745,0.024,8.618c0.001,0.279,0.014,0.559,0.038,0.837c0.118,1.357,0.698,2.001,2.059,2.23
		c0.549,0.092,1.11,0.115,1.649,0.31C335.331,110.375,335.193,110.794,335.214,111.271z"/>
	<path style="fill:#71BC49;" d="M373.624,82.655c0.148,2.186,0.287,4.247,0.43,6.359c-0.406,0.4-0.941,0.239-1.46,0.331
		c-0.301-0.825-0.564-1.61-0.871-2.377c-0.647-1.62-1.864-2.434-3.607-2.455c-1.639-0.02-3.279-0.027-4.918-0.034
		c-0.318-0.001-0.645-0.008-0.902,0.236c-0.291,1.004-0.393,7.328-0.172,10.597c0.202,0.277,0.502,0.195,0.767,0.189
		c1.596-0.037,3.19,0.046,4.79-0.121c1.327-0.139,2.012-0.824,2.297-2.042c0.081-0.345,0.153-0.691,0.239-1.079
		c0.475-0.154,0.94-0.086,1.55-0.053c0,1.447,0,2.869,0,4.291c0,1.435,0,2.87,0,4.315c-0.48,0.282-0.946,0.161-1.425,0.12
		c-0.362-0.521-0.295-1.154-0.504-1.707c-0.311-0.822-0.862-1.39-1.716-1.485c-1.98-0.22-3.968-0.083-6.052-0.114
		c0,1.007-0.003,1.875,0.001,2.744c0.007,1.955,0.016,3.91,0.027,5.865c0.002,0.279,0.011,0.559,0.035,0.837
		c0.134,1.507,0.725,2.179,2.229,2.308c1.232,0.106,2.476,0.076,3.716,0.083c0.559,0.003,1.124-0.011,1.675-0.091
		c1.521-0.222,2.635-1.061,3.438-2.35c0.609-0.979,1.061-2.039,1.586-3.113c0.485-0.006,0.953-0.022,1.468,0.262
		c-0.323,2.368-0.903,4.7-1.483,7.089c-7.403,0-14.738,0-22.091,0c-0.168-0.408-0.082-0.8-0.069-1.246
		c0.496-0.232,1.041-0.264,1.585-0.329c1.8-0.217,2.402-0.713,2.605-2.509c0.058-0.513,0.063-1.035,0.063-1.552
		c0.004-5.786,0.001-11.573,0.005-17.359c0.001-0.759-0.042-1.512-0.182-2.26c-0.197-1.051-0.662-1.529-1.709-1.711
		c-0.275-0.048-0.559-0.043-0.835-0.088c-0.271-0.044-0.537-0.119-0.805-0.18c-0.154-0.462-0.114-0.883-0.028-1.368
		C360.057,82.655,366.793,82.655,373.624,82.655z"/>
	<path style="fill:#72BC4A;" d="M156.69,92.198c0,2.923,0,5.779,0,8.677c-0.467,0.17-0.923,0.137-1.356,0.042
		c-0.39-0.466-0.314-1.025-0.456-1.513c-0.311-1.066-0.995-1.663-2.052-1.698c-1.868-0.062-3.739-0.017-5.59-0.017
		c-0.059,0.096-0.135,0.16-0.135,0.226c-0.006,2.952-0.041,5.905,0.008,8.856c0.03,1.827,0.718,2.51,2.549,2.642
		c1.555,0.112,3.118,0.109,4.674-0.003c1.613-0.116,2.875-0.839,3.755-2.229c0.66-1.041,1.181-2.151,1.647-3.27
		c0.563-0.007,1.037-0.033,1.526,0.293c-0.384,2.365-0.911,4.712-1.514,7.077c-7.378,0-14.686,0-22.029,0
		c-0.283-0.376-0.118-0.809-0.125-1.268c0.525-0.242,1.074-0.271,1.622-0.33c1.832-0.199,2.442-0.827,2.59-2.651
		c0.032-0.397,0.025-0.797,0.025-1.196c0.001-5.945,0.003-11.89-0.003-17.835c-0.001-0.675,0.02-1.35-0.152-2.02
		c-0.284-1.105-0.723-1.546-1.855-1.707c-0.508-0.072-1.032-0.047-1.544-0.304c-0.092-0.413-0.064-0.835-0.012-1.316
		c6.787,0,13.521,0,20.341,0c0.156,2.162,0.31,4.287,0.461,6.382c-0.51,0.324-0.986,0.274-1.484,0.273
		c-0.29-0.797-0.551-1.583-0.859-2.35c-0.629-1.57-1.813-2.394-3.501-2.432c-1.758-0.04-3.518-0.029-5.277-0.036
		c-0.2-0.001-0.401,0.021-0.397,0.018c-0.471,0.352-0.471,0.678-0.471,0.997c-0.002,3.192-0.002,6.384,0.004,9.576
		c0,0.109,0.06,0.217,0.124,0.432c1.979-0.057,3.967,0.129,5.946-0.21c0.825-0.141,1.368-0.63,1.632-1.408
		c0.178-0.524,0.301-1.066,0.454-1.62C155.717,92.092,156.175,92.178,156.69,92.198z"/>
	<path style="fill:#2F7B40;" d="M180.445,61.853c-2.665-2.021-4.805-4.528-6.688-7.263c-0.97-1.408-1.857-2.87-2.537-4.446
		c0.063-0.055,0.127-0.109,0.19-0.164c0.757,0.957,1.514,1.914,2.28,2.882c0.247-0.545-0.11-0.929-0.312-1.344
		c-2.059-4.227-3.049-8.699-2.886-13.387c0.158-4.54,1.322-8.858,3.167-13.007c1.886-4.239,4.413-8.081,7.212-11.758
		c0.14-0.185,0.344-0.321,0.518-0.48c0.615,0.385,0.529,1.004,0.529,1.591c0.001,4.942-0.004,9.884,0.011,14.826
		c0.001,0.362-0.224,0.806,0.226,1.089c-1.647,1.076-3.508,1.672-5.327,2.36c-0.37,0.14-0.747,0.258-1.141,0.394
		c-0.331,1.143-0.394,2.303-0.444,3.446c-0.293,6.662,1.476,12.742,5.271,18.234c0.204,0.295,0.393,0.599,0.588,0.899
		c-0.501,0.124-0.378,0.534-0.38,0.867c-0.009,1.341-0.02,2.682,0.005,4.022C180.737,61.062,180.655,61.466,180.445,61.853z"/>
	<path style="fill:#71BC49;" d="M55.828,111.292c-0.179-0.465-0.062-0.855-0.103-1.214c0.421-0.397,0.929-0.338,1.379-0.463
		c1.109-0.308,1.425-0.842,1.092-1.956c-0.614-2.054-1.385-4.052-2.149-6.084c-2.914,0-5.783,0-8.733,0
		c-0.841,2.038-1.564,4.134-2.098,6.291c-0.188,0.757,0.151,1.289,0.949,1.558c0.639,0.215,1.312,0.328,1.985,0.49
		c0.142,0.426,0.104,0.852,0.031,1.346c-3.2,0-6.383,0-9.615,0c-0.258-0.366-0.097-0.8-0.108-1.208
		c0.259-0.268,0.578-0.318,0.889-0.349c1.5-0.151,2.476-0.993,3.114-2.303c0.837-1.719,1.479-3.519,2.185-5.292
		c2.487-6.244,4.96-12.493,7.441-18.739c0.116-0.293,0.258-0.577,0.401-0.893c0.609-0.179,1.214-0.357,1.873-0.55
		c0.734,1.53,1.22,3.128,1.789,4.689c2.37,6.5,4.661,13.029,7.16,19.482c0.129,0.334,0.275,0.661,0.409,0.992
		c0.617,1.523,1.655,2.511,3.365,2.669c0.229,0.021,0.449,0.131,0.68,0.202c0.092,0.467,0.147,0.891-0.115,1.331
		C63.741,111.292,59.826,111.292,55.828,111.292z M48.011,99.262c2.474,0,4.81,0,7.243,0c-1.162-3.38-2.292-6.664-3.515-10.22
		C50.439,92.608,49.242,95.887,48.011,99.262z"/>
	<path style="fill:#71BC49;" d="M262.225,111.262c-0.163-0.431-0.097-0.819-0.06-1.223c0.282-0.259,0.634-0.303,0.988-0.35
		c1.326-0.178,2.266-0.869,2.887-2.059c0.812-1.556,1.395-3.206,2.043-4.829c2.62-6.57,5.226-13.146,7.838-19.72
		c0.073-0.183,0.153-0.362,0.249-0.589c0.598-0.182,1.202-0.367,1.873-0.571c0.687,1.27,1.057,2.655,1.547,3.986
		c2.47,6.712,4.825,13.467,7.404,20.139c0.143,0.37,0.311,0.73,0.462,1.098c0.607,1.477,1.62,2.435,3.277,2.601
		c0.233,0.023,0.457,0.133,0.713,0.211c0.149,0.415,0.093,0.834,0.049,1.313c-4.007,0-7.951,0-11.934,0
		c-0.259-0.375-0.114-0.806-0.11-1.209c0.369-0.362,0.832-0.318,1.248-0.423c1.192-0.299,1.576-0.862,1.223-1.992
		c-0.638-2.044-1.374-4.056-2.191-6.07c-2.9,0-5.768,0-8.722,0c-0.805,2.044-1.591,4.115-2.054,6.291
		c-0.173,0.815,0.097,1.283,0.902,1.557c0.637,0.217,1.309,0.33,1.965,0.489c0.225,0.428,0.07,0.857,0.109,1.35
		C268.657,111.262,265.445,111.262,262.225,111.262z M275.567,89.375c-0.079-0.011-0.159-0.022-0.238-0.033
		c-1.195,3.296-2.391,6.591-3.594,9.909c2.459,0,4.789,0,7.229,0C277.807,95.886,276.687,92.63,275.567,89.375z"/>
	<path style="fill:#71BC49;" d="M18.551,83.947c0-0.283-0.005-0.518,0.002-0.752c0.004-0.153,0.026-0.306,0.047-0.529
		c6.806,0,13.574,0,20.402,0c0.156,2.175,0.309,4.311,0.466,6.508c-0.362,0.274-0.867,0.18-1.28,0.367
		c-0.381-0.314-0.369-0.742-0.49-1.102c-0.242-0.718-0.514-1.417-0.901-2.073c-0.538-0.911-1.294-1.515-2.344-1.695
		c-2.218-0.379-4.441-0.153-6.534-0.164c-0.471,0.474-0.523,0.904-0.523,1.349c0,3.192,0.001,6.383,0.007,9.575
		c0,0.11,0.062,0.22,0.121,0.419c2.104-0.015,4.217,0.079,6.322-0.108c0.982-0.087,1.688-0.603,1.995-1.624
		c0.136-0.451,0.101-0.961,0.421-1.369c0.416-0.188,0.847-0.048,1.351-0.088c0,2.904,0,5.748,0,8.596
		c-0.47,0.141-0.894,0.075-1.253,0.051c-0.286-0.271-0.292-0.554-0.347-0.826c-0.354-1.757-0.908-2.311-2.701-2.483
		c-1.071-0.103-2.156-0.057-3.235-0.068c-0.838-0.009-1.675-0.002-2.455-0.002c-0.324,0.261-0.223,0.56-0.223,0.826
		c-0.007,2.274,0.002,4.548-0.007,6.822c-0.003,0.721,0.081,1.43,0.183,2.14c0.141,0.979,0.676,1.605,1.649,1.803
		c0.778,0.158,1.567,0.263,2.366,0.394c0.185,0.426,0.108,0.852,0.055,1.346c-4.352,0-8.687,0-13.094,0
		c-0.093-0.432-0.067-0.85-0.023-1.273c0.525-0.208,1.036-0.247,1.543-0.321c1.362-0.199,1.843-0.714,2.062-2.067
		c0.115-0.712,0.156-1.424,0.155-2.142c-0.003-5.705-0.004-11.41,0.001-17.115c0.001-0.759-0.036-1.512-0.178-2.259
		c-0.211-1.11-0.658-1.586-1.785-1.786C19.776,84.2,19.211,84.197,18.551,83.947z"/>
	<path style="fill:#71BC49;" d="M202.245,111.8c-1.245,0.003-2.491,0.007-3.736,0.01c-1.631-0.027-3.104-0.66-4.603-1.196
		c-0.369-0.132-0.589-0.397-0.67-0.778c-0.465-2.178-0.844-4.369-1.057-6.604c0.41-0.341,0.889-0.381,1.329-0.522
		c0.45,0.328,0.442,0.854,0.615,1.28c0.774,1.912,1.806,3.632,3.447,4.94c1.438,1.145,3.082,1.526,4.846,1.151
		c3.068-0.651,4.531-4.379,2.86-7.156c-0.612-1.017-1.509-1.733-2.468-2.401c-1.448-1.007-3.09-1.663-4.581-2.59
		c-0.816-0.507-1.588-1.064-2.34-1.661c-4.662-3.699-3.69-10.837,1.883-13.363c2.931-1.328,5.974-1.213,9.026-0.425
		c0.54,0.139,1.073,0.304,1.606,0.466c0.071,0.022,0.127,0.092,0.266,0.198c0.251,1.973,0.51,4.011,0.769,6.052
		c-0.433,0.316-0.89,0.385-1.41,0.349c-0.303-0.729-0.583-1.467-0.914-2.181c-0.44-0.948-1.031-1.796-1.835-2.482
		c-1.704-1.453-4.482-1.586-6.108-0.293c-2.085,1.659-2.287,4.826-0.418,6.795c1.032,1.087,2.323,1.81,3.641,2.484
		c1.456,0.745,2.932,1.455,4.274,2.401c1.216,0.857,2.327,1.822,3.098,3.119c1.569,2.642,1.341,6.255-0.638,8.762
		C207.383,110.363,205.049,111.543,202.245,111.8z"/>
	<path style="fill:#72BC4A;" d="M393.322,84.48c0,0.501,0,0.853,0,1.205c0,6.741-0.001,13.481,0.002,20.222
		c0,0.478,0.001,0.959,0.043,1.434c0.115,1.288,0.576,1.866,1.833,2.174c0.771,0.189,1.57,0.264,2.376,0.394
		c0.223,0.407,0.099,0.84,0.087,1.344c-4.583,0-9.15,0-13.727,0c-0.152-0.428-0.103-0.815-0.044-1.241
		c0.54-0.287,1.14-0.268,1.723-0.343c1.726-0.222,2.365-0.908,2.465-2.649c0.036-0.637,0.036-1.276,0.036-1.914
		c0.002-6.462,0.001-12.923,0.001-19.385c0-0.356,0-0.711,0-1.242c-1.979,0.041-3.917-0.198-5.825,0.327
		c-0.731,0.201-1.203,0.76-1.573,1.397c-0.484,0.834-0.757,1.751-1.016,2.668c-0.097,0.345-0.172,0.691-0.352,1.038
		c-0.419,0.123-0.843,0.078-1.398,0.03c0.005-2.823,0.326-5.576,0.458-8.329c0.509-0.253,0.92-0.256,1.242,0.15
		c0.59,0.745,1.399,0.834,2.263,0.833c5.516-0.006,11.032-0.003,16.548-0.003c0.36,0,0.72-0.017,1.079,0.003
		c0.8,0.045,1.515-0.175,2.086-0.728c0.386-0.373,0.778-0.531,1.409-0.295c0.14,2.672,0.283,5.392,0.43,8.189
		c-0.477,0.067-0.893,0.125-1.328,0.187c-0.399-0.588-0.427-1.244-0.619-1.839c-0.93-2.895-1.804-3.569-4.82-3.624
		C395.627,84.463,394.553,84.48,393.322,84.48z"/>
	<path style="fill:#67B548;" d="M232.345,54.633c-1.353,2.337-3.014,4.424-5.057,6.201c-0.238-0.638-0.255-1.299-0.254-1.973
		c0.011-4.679,0.006-9.359,0.005-14.039c0-0.317,0.013-0.636-0.01-0.951c-0.018-0.25-0.225-0.291-0.432-0.304
		c0.656-2.333,1.259-4.674,1.499-7.099c0.28-2.83,0.21-5.643-0.192-8.457c-0.316-2.214-1.016-4.326-1.611-6.467
		c0.558-0.358,0.508-0.924,0.507-1.475c-0.001-3.09-0.008-6.18,0.009-9.27c0.002-0.356-0.213-0.817,0.307-1.036
		c2.2,1.946,4.06,4.171,5.536,6.711c-0.191,0.035-0.403,0.018-0.536,0.247c-0.01,0.09-0.033,0.207-0.033,0.323
		c-0.002,12.151-0.001,24.303-0.011,36.454C232.072,53.911,232.145,54.281,232.345,54.633z"/>
	<path style="fill:#348041;" d="M182.157,30.392c-0.45-0.282-0.225-0.726-0.226-1.089c-0.016-4.942-0.01-9.884-0.011-14.826
		c0-0.587,0.086-1.206-0.529-1.591c1.385-1.952,3.076-3.636,4.702-5.378c0.433-0.464,0.947-0.853,1.297-1.395
		c0.116-0.078,0.274-0.126,0.223-0.326c-0.197-0.126-0.346-0.061-0.466,0.122c-1.863,0.994-3.4,2.411-4.961,3.797
		c-0.322,0.286-0.646,0.571-0.968,0.856c-0.241-1.28-0.286-2.572-0.262-3.872c0.018-0.989-0.015-1.979-0.025-2.968
		c2.37-1.473,4.943-2.399,7.697-2.834c0.005,1.033-0.032,2.069,0.031,3.099c0.033,0.536-0.443,0.999-0.22,1.495
		c0.313,0.696,0.192,1.405,0.196,2.107c0.016,3.378,0.007,6.756,0.007,10.135c0,1.828-0.01,3.657,0.008,5.485
		c0.004,0.358-0.2,0.829,0.358,1.006C187.403,27.023,185.047,29.002,182.157,30.392z M187.747,5.361l0.068,0.044l0.008-0.073
		L187.747,5.361z"/>
	<path style="fill:#71BC49;" d="M232.345,54.633c-0.2-0.352-0.273-0.722-0.273-1.134c0.01-12.151,0.009-24.303,0.011-36.454
		c0-0.117,0.023-0.233,0.033-0.323c0.133-0.229,0.345-0.213,0.536-0.247c1.839,2.681,3.073,5.644,3.964,8.744
		c1.415,4.92,1.744,9.922,1.018,15c-0.719,5.026-2.456,9.681-4.983,14.062C232.576,54.413,232.449,54.516,232.345,54.633z"/>
	<path style="fill:#348041;" d="M180.445,61.853c0.21-0.387,0.292-0.791,0.284-1.24c-0.025-1.34-0.014-2.681-0.005-4.022
		c0.002-0.333-0.121-0.743,0.38-0.867c1.264,1.426,2.539,2.839,4.085,3.977c0.09,0.07,0.181,0.139,0.271,0.209
		c0.048,0.094,0.101,0.227,0.225,0.129c0.1-0.079,0.044-0.205-0.028-0.301c-0.068-0.078-0.136-0.157-0.204-0.235
		c-1.692-2.458-2.932-5.108-3.409-8.073c-0.993-6.174,0.226-11.806,4.227-16.714c1.56-1.914,3.514-3.354,5.779-4.361
		c0.249-0.111,0.478-0.313,0.852-0.128c-0.131,0.388-0.51,0.547-0.777,0.78c-3.413,2.973-5.731,6.618-6.694,11.05
		c-0.936,4.303-0.502,8.447,1.495,12.438c0.704,1.407,1.729,2.502,2.716,3.661c-0.618,0.198-0.52,0.711-0.521,1.18
		c-0.003,2.577-0.006,5.154-0.009,7.731c-2.567-0.792-4.731-2.319-6.918-3.797C181.571,62.851,180.948,62.423,180.445,61.853z"/>
	<path style="fill:#3C8842;" d="M189.007,24.214c-0.559-0.177-0.355-0.648-0.358-1.006c-0.018-1.828-0.008-3.656-0.008-5.485
		c0-3.378,0.009-6.756-0.007-10.135c-0.003-0.702,0.117-1.411-0.196-2.107c-0.223-0.496,0.253-0.96,0.22-1.495
		c-0.063-1.03-0.026-2.065-0.031-3.099c1.949-0.641,3.987-0.676,6-0.843c1.104-0.092,2.222-0.016,3.329-0.016
		c0.046,0.193-0.043,0.316-0.157,0.434c-3.072,3.158-4.737,7.005-5.563,11.27c-0.521,2.691-0.784,5.428-1.458,8.09
		C190.387,21.362,189.901,22.872,189.007,24.214z"/>
	<path style="fill:#2F7B40;" d="M180.929,3.722c0.01,0.989,0.043,1.979,0.025,2.968c-0.024,1.3,0.02,2.591,0.262,3.872
		c-1.581,1.838-3.25,3.601-4.643,5.598c-2.1,3.01-4.044,6.094-4.919,9.719c-0.026,0.107-0.042,0.243-0.233,0.287
		c-0.605-4.894-0.226-9.66,1.866-14.183C174.935,8.422,177.427,5.596,180.929,3.722z"/>
	<path style="fill:#61B048;" d="M226.598,43.566c0.207,0.013,0.414,0.055,0.432,0.304c0.023,0.316,0.01,0.634,0.01,0.951
		c0,4.68,0.005,9.359-0.005,14.039c-0.002,0.673,0.016,1.335,0.254,1.973c-1.501,1.518-3.142,2.855-5.022,3.885
		c-0.009-3.299-0.017-6.597-0.026-9.896c-0.002-0.636-0.014-1.272,0.003-1.908c0.01-0.371-0.178-0.492-0.506-0.496
		C223.854,49.739,225.475,46.789,226.598,43.566z"/>
	<path style="fill:#4A9344;" d="M205.44,69.914c-2.148,0.357-4.283,0.045-6.416-0.153c-0.662-0.061-1.362-0.024-1.986-0.35
		c0.007-2.728,0.014-5.457,0.021-8.185c2.784,0.43,5.58,0.435,8.382,0.242C205.441,64.284,205.441,67.099,205.44,69.914z"/>
	<path style="fill:#3C8842;" d="M197.06,61.226c-0.007,2.728-0.014,5.457-0.021,8.185c-2.759-0.389-5.412-1.135-7.928-2.343
		c0.003-2.577,0.006-5.154,0.009-7.731c0.001-0.469-0.097-0.982,0.521-1.18c1.678,1.456,3.784,1.971,5.823,2.629
		C195.989,60.955,196.558,60.97,197.06,61.226z"/>
	<path style="fill:#5CA947;" d="M221.738,52.419c0.327,0.004,0.516,0.125,0.506,0.496c-0.017,0.635-0.005,1.272-0.003,1.908
		c0.008,3.299,0.017,6.597,0.026,9.896c-1.613,1.053-3.289,1.988-5.091,2.684c-0.144,0.056-0.303,0.075-0.455,0.111
		c0-2.984-0.002-5.968,0.003-8.952c0.001-0.477,0.033-0.953-0.255-1.374c1.012-0.828,2.016-1.667,3.039-2.481
		C220.349,54.037,220.834,53.025,221.738,52.419z"/>
	<path style="fill:#55A247;" d="M216.468,57.187c0.287,0.421,0.255,0.897,0.255,1.374c-0.005,2.984-0.003,5.968-0.003,8.952
		c-1.762,0.813-3.604,1.36-5.52,1.662c-0.014-3.075-0.027-6.149-0.041-9.224C213.004,59.174,214.749,58.206,216.468,57.187z"/>
	<path style="fill:#61B048;" d="M227.116,9.763c-0.52,0.219-0.305,0.681-0.307,1.036c-0.017,3.09-0.01,6.18-0.009,9.27
		c0,0.551,0.051,1.116-0.507,1.475c-0.898-1.791-1.543-3.704-2.637-5.399c-0.793-1.227-1.593-2.45-2.39-3.675
		c0.238-1.271,0.291-2.553,0.257-3.843c-0.02-0.746-0.006-1.493-0.002-2.24c0.001-0.267-0.06-0.567,0.294-0.686
		C223.788,6.786,225.531,8.173,227.116,9.763z"/>
	<path style="fill:#509B46;" d="M211.159,59.951c0.014,3.075,0.027,6.15,0.041,9.224c-1.888,0.495-3.801,0.79-5.759,0.739
		c0.001-2.815,0.001-5.631,0.002-8.446C207.365,61.029,209.297,60.622,211.159,59.951z"/>
	<path style="fill:#5CA947;" d="M221.815,5.7c-0.354,0.119-0.292,0.419-0.294,0.686c-0.003,0.747-0.017,1.494,0.002,2.24
		c0.034,1.29-0.019,2.572-0.257,3.843c-1.565-1.689-2.97-3.528-4.768-4.997c-0.769-0.628-1.512-1.288-2.267-1.934
		c0.339-0.11,0.331-0.388,0.33-0.668c-0.003-0.9-0.001-1.801-0.001-2.701c2.06,0.69,4.088,1.445,5.858,2.757
		C220.843,5.242,221.465,5.231,221.815,5.7z"/>
	<path style="fill:#55A247;" d="M214.56,2.169c0,0.9-0.001,1.801,0.001,2.701c0.001,0.28,0.01,0.558-0.33,0.668
		c-0.847-0.364-1.506-1.014-2.285-1.484c-2.556-1.542-5.214-2.861-8.057-3.84C207.548,0.32,211.134,0.793,214.56,2.169z"/>
	<path style="fill:#428047;" d="M422.54,5.299c-0.66-0.031-1.125-0.054-1.553-0.074c-0.232-0.299-0.232-0.551-0.021-0.859
		c1.351,0,2.731,0,4.122,0c0.27,0.202,0.192,0.472,0.123,0.755c-0.458,0.312-1.011-0.005-1.583,0.248c0,1.329,0,2.701,0,4.022
		c-0.376,0.282-0.683,0.19-1.089,0.12C422.54,8.156,422.54,6.784,422.54,5.299z"/>
	<path style="fill:#2F7B40;" d="M171.097,49.472c-0.113,0.181-0.236,0.136-0.358,0.016c-0.014-0.014-0.018-0.06-0.006-0.073
		C170.882,49.25,170.991,49.352,171.097,49.472z"/>
	<path style="fill:#2F7B40;" d="M171.22,50.144c-0.073-0.118-0.198-0.258-0.008-0.352c0.091-0.045,0.174,0.078,0.199,0.189
		C171.347,50.035,171.283,50.09,171.22,50.144z"/>
	<polygon style="fill:#3C8842;" points="187.747,5.361 187.823,5.333 187.815,5.405 	"/>
</g>
</svg>
