<?xml version="1.0" encoding="iso-8859-1"?>
<!-- Generator: Adobe Illustrator 27.0.0, SVG Export Plug-In . SVG Version: 6.00 Build 0)  -->
<svg version="1.1" id="Layer_1" xmlns="http://www.w3.org/2000/svg" xmlns:xlink="http://www.w3.org/1999/xlink" x="0px" y="0px"
	 viewBox="0 0 1580.046 713" style="enable-background:new 0 0 1580.046 713;" xml:space="preserve">
<g>
	<path style="fill:#080707;" d="M0,687c7.603-9.005,15.206-18.009,23.073-27.327c6.17,4.749,12.735,8.519,19.664,11.722
		c10.998,5.083,22.445,6.949,34.462,5.704c2.358-0.244,4.457-1.082,6.616-1.982c5.725-2.386,6.211-11.328,1.43-14.556
		c-3.359-2.268-7.006-3.719-10.866-4.762c-9.758-2.636-19.569-5.09-29.26-7.954c-8.116-2.398-15.983-5.407-22.986-10.446
		c-8.772-6.311-13.778-14.756-14.946-25.366c-1.498-13.608,1.221-26.102,10.587-36.653c6.13-6.906,13.798-11.325,22.42-14.29
		c8.759-3.011,17.837-3.935,27.006-3.738c15.781,0.34,31.039,3.148,45.137,10.677c4.968,2.654,9.875,5.429,14.2,9.41
		c-6.886,9.707-13.697,19.309-20.655,29.118c-3.507-2.015-6.781-3.87-10.03-5.769c-9.989-5.836-20.873-8.333-32.328-8.798
		c-3.423-0.139-6.632,0.666-9.615,2.164c-6.208,3.119-6.619,11.128-0.844,15.01c2.921,1.964,6.186,3.099,9.567,4.048
		c10.85,3.046,21.991,4.994,32.647,8.768c5.65,2.001,11.155,4.339,16.328,7.336c13.164,7.626,19.268,19.412,19.078,34.358
		c-0.277,21.769-11.605,37.048-32.759,44.405c-7.103,2.471-14.39,3.948-21.947,3.983c-1.011,0.005-2.404-0.666-2.979,0.937
		c-2,0-4,0-6,0c-0.962-1.764-2.648-0.926-3.986-0.985c-15.13-0.677-29.453-4.365-43.069-11.014C12.739,697.482,6.518,692.531,0,688
		C0,687.667,0,687.333,0,687z"/>
	<path style="fill:#080707;" d="M1232,713c-2.411-2.195-5.584-1.187-8.356-1.823c-20.785-4.775-29.314-21.804-27.227-40.338
		c1.879-16.685,14.05-26.394,29.977-29.659c11.22-2.3,25.57-2.22,42.345,2.463c1.34-10.914-5.209-18.621-16.576-19.703
		c-13.019-1.24-25.459,1.064-37.908,6.005c-2.821-9.377-5.62-18.683-8.482-28.194c3.269-2.529,7.23-3.249,10.916-4.412
		c16.446-5.188,33.363-5.902,50.345-4.118c7.391,0.776,14.592,2.927,21.194,6.775c11.073,6.454,17.328,16.078,19.768,28.493
		c0.808,4.112,1.125,8.238,1.132,12.39c0.042,22.815,0.02,45.63,0.02,68.748c-13.234,0-26.455,0-39.979,0c0-3.515,0-6.964,0-10.707
		c-2.187,0.594-3.383,2.036-4.721,3.138c-7.418,6.108-15.761,9.762-25.469,9.99c-0.795,0.019-1.698-0.149-1.979,0.954
		C1235.333,713,1233.667,713,1232,713z M1269.597,662.554c-5.709-2.601-11.624-3.144-17.566-3.048
		c-3.807,0.062-7.554,0.848-10.876,3.063c-4.496,2.998-6.091,7.371-5.822,12.444c0.257,4.848,2.747,8.388,7.271,10.431
		c9.323,4.209,25.639-1.262,26.717-14.909C1269.531,667.879,1269.567,665.261,1269.597,662.554z"/>
	<path style="fill:#A7A4A4;" d="M1053,0c-0.034,0.372-0.068,0.745-0.102,1.117c-1.998-0.039-3.996-0.113-5.994-0.113
		C923.91,0.998,800.916,0.999,677.922,0.994c-1.998,0-3.995-0.081-5.993-0.124C671.982,0.582,672.005,0.292,672,0
		C799,0,926,0,1053,0z"/>
	<path style="fill:#807D7D;" d="M666,713c-0.021-0.312-0.042-0.624-0.064-0.935c5.364-0.012,10.728-0.025,16.093-0.037
		c-0.067,0.214-0.161,0.425-0.189,0.644c-0.013,0.101,0.103,0.218,0.16,0.328C676.667,713,671.333,713,666,713z"/>
	<path style="fill:#030202;" d="M671.929,0.87c1.998,0.043,3.995,0.124,5.993,0.124c122.994,0.006,245.989,0.005,368.983,0.01
		c1.998,0,3.996,0.074,5.994,0.113c0.034,1.665,0.098,3.33,0.098,4.994c0.005,96.826-0.037,193.653,0.038,290.479
		c0.016,20.053-1.855,39.827-6.997,59.253c-2.86,10.805-6.931,21.16-12.072,31.031c-6.486,12.452-14.557,23.773-24.853,33.512
		c-12.969,12.266-27.683,21.69-44.041,28.691c-16.197,6.931-33.15,10.48-50.647,12.035c-6.164,0.548-12.297,0.627-18.449,0.628
		c-120.991,0.019-241.983,0.014-362.974,0.014c-1.805,0-3.609,0-5.224,0c-1.204-1.443-0.753-2.834-0.753-4.099
		c-0.025-100.826-0.278-201.653,0.141-302.478c0.117-28.203,6.549-55.342,19.591-80.631c4.744-9.2,10.194-18.077,17.273-25.558
		c10.899-11.518,23.318-21.283,37.336-28.943c17.885-9.773,37.115-15.074,57.161-17.796C662.974,1.646,667.46,1.322,671.929,0.87z
		 M889.911,97.958c-0.59-0.817-1.464-0.58-2.254-0.58c-15.881-0.008-31.763-0.002-47.644-0.011
		c-1.323-0.001-2.647-0.081-3.805,0.736c-1.829-0.052-3.657-0.149-5.486-0.149c-42.13-0.009-84.261-0.01-126.391-0.002
		c-4.817,0.001-9.589,0.207-14.402,0.9c-14.566,2.099-26.995,8.666-36.96,19.01c-16.769,17.408-24.019,39.058-24.728,62.895
		c-0.48,16.143,4.317,30.974,12.473,44.901c13.276,22.671,33.296,33.572,59.106,34.297c14.476,0.407,28.971,0.151,43.457,0.193
		c-2.816,7.042-6.656,13.576-10.132,20.287c-4.987,9.626-9.509,19.496-15.072,28.821c-20.437,0-40.873,0-61.512,0
		c-9.469,18.467-18.917,36.893-28.526,55.633c21.128,0,41.567,0,62.006,0c20.642-0.001,41.283-0.002,61.925-0.002
		c1.162,0.056,2.323,0.16,3.485,0.16c41.292,0.008,82.585,0.008,123.878,0.005c3.493,0,6.931-0.355,10.403-0.909
		c21.865-3.492,37.784-15.503,48.7-34.288c7.583-13.05,11.819-27.217,12.945-42.413c0.636-8.575-0.001-16.995-1.969-25.153
		c-3.178-13.176-9.211-25.071-17.867-35.725c-12.479-15.359-28.849-22.632-48.073-23.494c-15.788-0.708-31.627-0.276-47.443-0.349
		c0.381-2.521,1.938-4.522,3.061-6.693c7.292-14.1,14.669-28.157,22.017-42.228c20.605,0,41.21,0,62.037,0
		c9.62-18.574,19.148-36.969,28.922-55.841C930.817,97.958,910.364,97.958,889.911,97.958z"/>
	<path style="fill:#070707;" d="M245.287,709.798c-13.957,0-27.256,0-40.886,0c0-38.38,0-76.769,0-115.48c13.252,0,26.638,0,40.36,0
		c0,4.597,0,9.205,0,14.36c2.105-1.053,2.982-2.615,4.093-3.842c12.546-13.862,31.025-17.437,48.296-9.979
		c4.363,1.884,8.07,4.587,10.934,8.413c1.487,1.987,3.022,3.938,4.679,6.094c2.416-2.263,4.717-4.638,7.241-6.745
		c14.05-11.735,29.996-14.632,47.172-8.91c13.404,4.465,20.329,14.776,22.836,28.38c0.943,5.119,0.993,10.267,0.992,15.433
		c-0.003,22.329-0.001,44.659-0.001,66.988c0,1.639,0,3.277,0,5.162c-13.574,0-26.837,0-40.242,0
		c-1.025-1.18-0.488-2.747-0.491-4.172c-0.041-18.83-0.027-37.66-0.028-56.49c0-4.165-0.151-8.266-1.781-12.241
		c-2.074-5.057-5.562-8.22-11.021-8.832c-6.104-0.684-11.635,0.497-15.489,5.85c-3.15,4.375-3.968,9.393-3.959,14.658
		c0.032,18.663,0.012,37.327,0.012,55.99c0,1.643,0,3.286,0,5.211c-13.479,0-26.698,0-39.904,0
		c-0.692-1.756-0.366-3.423-0.368-5.047c-0.028-17.997-0.036-35.994-0.001-53.99c0.007-3.346-0.114-6.701-0.817-9.942
		c-1.696-7.821-6.805-13.073-15.759-12.947c-9.365,0.132-14.234,7.51-15.189,13.782c-0.474,3.114-0.639,6.3-0.649,9.455
		c-0.058,18.163-0.028,36.327-0.028,54.49C245.287,706.76,245.287,708.074,245.287,709.798z"/>
	<path style="fill:#060505;" d="M518.137,609.783c2.175-2.287,3.865-4.346,5.834-6.088c14.15-12.517,30.439-15.853,48.244-10.075
		c12.802,4.155,19.789,13.907,22.785,26.774c1.03,4.42,1.198,8.926,1.22,13.391c0.119,25.15,0.057,50.301,0.057,75.798
		c-13.496,0-26.862,0-40.226,0c-0.613-1.734-0.32-3.399-0.322-5.029c-0.025-17.991,0.017-35.981-0.046-53.972
		c-0.011-3.152-0.123-6.361-0.712-9.444c-1.509-7.902-5.979-13.76-15.727-13.357c-8.204,0.339-14.213,5.657-15.356,14.156
		c-0.398,2.96-0.568,5.971-0.577,8.959c-0.051,17.991-0.026,35.981-0.026,53.972c0,1.491,0,2.982,0,4.767
		c-13.402,0-26.626,0-39.958,0c-0.605-1.672-0.313-3.337-0.315-4.957c-0.024-18.49-0.027-36.981-0.006-55.471
		c0.004-3.847-0.293-7.619-1.647-11.274c-2.146-5.795-5.97-9.417-12.326-10.074c-6.999-0.723-12.426,1.686-15.868,7.92
		c-1.623,2.939-2.361,6.145-2.356,9.573c0.029,19.489-0.027,38.979-0.053,58.468c-0.002,1.813,0,3.627,0,5.773
		c-13.569,0-26.936,0-40.532,0c0-38.43,0-76.812,0-115.395c13.228,0,26.294,0,39.629,0c0,4.775,0,9.391,0,14.736
		c2.879-2.806,5.208-5.19,7.657-7.443c14.485-13.332,36.079-13.333,50.687-3.271C512.22,600.992,514.943,605.038,518.137,609.783z"
		/>
	<path style="fill:#060505;" d="M1053.848,709.796c0-50,0-99.605,0-149.162c0.665-0.754,1.522-0.633,2.344-0.633
		c26.319,0.013,52.637,0.037,78.956,0.038c8.273,0,16.131,1.975,23.754,4.984c7.532,2.973,13.602,7.991,17.438,15.01
		c7.895,14.446,6.681,36.1-11.821,47.805c-1.959,1.24-3.994,2.361-6.095,3.596c3.893,1.761,7.868,3.201,11.489,5.261
		c12.727,7.241,17.533,18.56,17.389,32.907c-0.184,18.372-13.16,31.428-28.996,36.239c-8.793,2.671-17.818,4.056-27.016,4.069
		c-24.986,0.036-49.972,0.016-74.958,0.013C1055.685,709.923,1055.037,709.859,1053.848,709.796z M1094.148,676.029
		c12.065,0,23.687,0.022,35.31-0.016c2.846-0.009,5.572-0.763,8.2-1.827c5.398-2.187,8.062-6.129,8.086-11.904
		c0.022-5.369-2.635-9.2-7.982-11.44c-2.932-1.228-5.982-1.919-9.181-1.919c-5.819,0.001-11.638-0.031-17.457-0.039
		c-5.6-0.007-11.2-0.002-16.976-0.002C1094.148,658.071,1094.148,666.81,1094.148,676.029z M1094.17,619.127
		c10.379,0,20.21-0.005,30.041,0.003c3.054,0.002,5.929-0.75,8.654-2.069c3.311-1.603,5.571-4.028,6.322-7.799
		c1.585-7.965-2.544-13.818-11.007-15.284c-3.779-0.654-7.594-0.876-11.442-0.832c-7.453,0.087-14.908,0.025-22.567,0.025
		C1094.17,602.032,1094.17,610.446,1094.17,619.127z"/>
	<path style="fill:#070707;" d="M1535.043,709.606c-3.695-6.383-7.421-12.851-11.176-19.301
		c-3.749-6.439-7.528-12.862-11.459-19.575c-3.884,3.538-7.134,7.467-10.713,11.539c0,8.951,0,18.068,0,27.419
		c-13.56,0-26.814,0-40.384,0c0-51.843,0-103.713,0-155.779c13.371,0,26.638,0,40.311,0c0,25.662,0,51.265,0,76.867
		c0.305,0.141,0.61,0.283,0.916,0.424c10.025-12.288,20.051-24.576,30.2-37.015c15.157,0,30.393,0,46.229,0
		c-13.543,15.569-26.738,30.738-40.105,46.105c13.68,23.025,27.315,45.973,41.184,69.316
		C1565.023,709.606,1550.347,709.606,1535.043,709.606z"/>
	<path style="fill:#090908;" d="M867.76,709.841c-13.78,0-26.919,0-40.028,0c-1.177-1.159-0.633-2.569-0.636-3.822
		c-0.04-19.493-0.059-38.986,0.001-58.479c0.01-3.367-0.413-6.609-1.524-9.771c-2.469-7.026-7.994-10.341-16.506-9.91
		c-6.776,0.343-12.47,4.911-14.053,11.397c-0.831,3.402-1.119,6.867-1.108,10.387c0.055,18.327,0.026,36.653,0.026,54.98
		c0,1.628,0,3.255,0,5.091c-13.62,0-26.891,0-40.196,0c-1.003-3.957-1.431-93.63-0.502-115.37c13.346,0,26.712,0,40.448,0
		c0,4.845,0,9.622,0,15.593c2.533-2.702,4.328-4.577,6.081-6.492c11.564-12.628,31.08-15.525,46.436-8.509
		c13.002,5.94,19.179,16.801,20.855,30.601c0.927,7.633,0.698,15.3,0.703,22.959c0.01,18.66,0.003,37.32,0.003,55.98
		C867.76,706.111,867.76,707.747,867.76,709.841z"/>
	<path style="fill:#060505;" d="M1442.108,709.929c-1.814,0-3.284,0-4.754,0c-11.623,0-23.246,0-34.796,0
		c-0.91-1.712-0.539-3.229-0.542-4.674c-0.029-18.825-0.03-37.65-0.012-56.474c0.004-4.541-0.578-8.911-2.689-13.038
		c-2.91-5.688-7.648-7.981-13.816-7.986c-6.337-0.005-11.304,2.419-14.368,8.093c-1.597,2.956-2.32,6.164-2.317,9.582
		c0.022,19.657-0.032,39.315-0.059,58.972c-0.002,1.64,0,3.28,0,5.222c-13.505,0-26.756,0-40.065,0
		c-1.045-3.806-1.5-84.432-0.581-115.282c13.195,0,26.407,0,39.899,0c0,4.865,0,9.788,0,14.855c1.835-0.44,2.392-1.92,3.317-2.95
		c8.938-9.951,19.933-15.479,33.447-14.96c19.048,0.732,31.921,10.906,36.265,30.14c1.077,4.767,1.173,9.59,1.195,14.39
		c0.112,23.989,0.048,47.978,0.04,71.967C1442.274,708.283,1442.2,708.78,1442.108,709.929z"/>
	<path style="fill:#080707;" d="M682.029,712.027c-5.364,0.012-10.728,0.025-16.093,0.037
		c-28.265-2.464-51.131-24.464-55.099-51.266c-4.366-29.487,14.282-61.875,51.026-68.469c19.876-3.567,38.543,0.311,54.347,13.442
		c17.528,14.564,24.291,33.508,20.847,56.051C732.975,688.547,709.729,709.513,682.029,712.027z M649.85,652.748
		c-0.215,1.511,0.51,4.307,1.274,6.988c2.971,10.417,11.048,17.774,22.862,18.129c10.836,0.325,19.903-6.081,23.299-16.699
		c1.609-5.03,1.887-10.084,0.755-15.225c-1.966-8.93-7.124-15.505-15.655-18.573c-8.854-3.184-17.368-1.87-24.56,4.746
		C652.202,637.286,650.299,644.017,649.85,652.748z"/>
	<path style="fill:#090908;" d="M877.506,694.883c5.218-8.318,10.151-16.18,15.04-23.974c2.086-0.173,3.251,1.191,4.632,1.994
		c10.197,5.923,21.055,9.731,32.895,10.505c3.01,0.197,5.974,0.103,8.782-1.116c4.485-1.946,5.011-6.285,1.168-9.232
		c-2.835-2.174-6.189-3.175-9.532-4.107c-9.268-2.584-18.538-5.161-27.333-9.128c-6.638-2.994-12.15-7.347-16.198-13.538
		c-6.372-9.744-5.31-29.934,4.515-40.591c6.036-6.548,13.374-10.462,21.749-12.344c22.675-5.096,43.729-0.32,64.018,11.142
		c-4.728,8.733-9.287,17.154-13.941,25.751c-2.667-0.321-4.573-2.035-6.776-3.022c-8.518-3.817-17.174-7.164-26.678-7.358
		c-2.132-0.043-4.302-0.211-6.375,0.73c-1.923,0.873-3.384,1.942-3.648,4.266c-0.285,2.504,0.797,4.328,2.859,5.301
		c3.142,1.483,6.41,2.743,9.709,3.845c8.803,2.943,17.891,5.055,26.303,9.13c4.663,2.259,8.973,4.988,12.663,8.695
		c4.791,4.813,7.305,10.519,7.704,17.303c0.466,7.923-0.068,15.635-3.993,22.742c-5.314,9.623-13.795,15.462-24.159,17.832
		C924.554,715.74,900.274,710.349,877.506,694.883z"/>
	<path style="fill:#0C0B0B;" d="M187.483,709.813c-13.449,0-26.584,0-40.072,0c0-38.488,0-76.988,0-115.683
		c13.266,0,26.522,0,40.072,0C187.483,632.577,187.483,670.956,187.483,709.813z"/>
	<path style="fill:#1B1919;" d="M147.323,553.501c13.577,0,26.678,0,40.125,0c0,9.925,0,19.799,0,29.997
		c-13.144,0-26.494,0-40.125,0C147.323,573.642,147.323,563.765,147.323,553.501z"/>
	<path style="fill:#EB4043;" d="M806.255,260c8.778-17.099,17.542-34.205,26.354-51.285c1.052-2.039,1.765-4.289,3.414-5.995
		c15.816,0.073,31.655-0.36,47.443,0.349c19.223,0.863,35.594,8.136,48.073,23.494c8.656,10.654,14.689,22.549,17.867,35.725
		c1.968,8.158,2.605,16.578,1.969,25.153c-1.127,15.196-5.363,29.363-12.945,42.413c-10.915,18.785-26.835,30.796-48.7,34.288
		c-3.472,0.555-6.909,0.909-10.403,0.909c-41.292,0.003-82.585,0.003-123.878-0.005c-1.162,0-2.323-0.105-3.485-0.16
		c9.588-18.645,18.932-37.418,29.021-55.802c10.814,0.024,21.628,0.077,32.441,0.064c19.631-0.023,39.265,0.082,58.892-0.204
		c9.764-0.142,16.564-5.328,20.167-14.333c2.706-6.76,1.947-13.677-0.282-20.431c-2.281-6.912-7.194-10.76-14.298-12.279
		c-6.039-1.291-12.077-1.909-18.248-1.882C841.859,260.097,824.057,260.018,806.255,260z"/>
	<path style="fill:#EB4044;" d="M836.208,98.103c-14.226,22.677-33.355,39.525-58.665,48.822c-8.094,2.973-16.46,5.162-25.088,6.074
		c-1.19,0.126-2.261,0.452-3.306,0.97c-14.157,0.009-28.325-0.306-42.468,0.15c-8.314,0.269-15.014,4.271-18.471,12.26
		c-3.545,8.192-3.338,16.603,0.322,24.633c2.275,4.991,6.464,8.648,11.949,9.792c6.808,1.421,13.739,2.354,20.756,1.887
		c17.1,0,34.2,0,51.872,0c-3.817,7.381-7.317,14.143-10.811,20.907c-6.304,12.203-12.23,24.601-19.022,36.55
		c-14.486-0.043-28.981,0.214-43.457-0.193c-25.81-0.725-45.829-11.626-59.106-34.297c-8.156-13.927-12.953-28.759-12.473-44.901
		c0.709-23.837,7.959-45.487,24.728-62.895c9.965-10.344,22.393-16.911,36.96-19.01c4.813-0.694,9.585-0.899,14.402-0.9
		c42.13-0.008,84.261-0.007,126.391,0.002C832.551,97.954,834.379,98.051,836.208,98.103z"/>
	<path style="fill:#EA4043;" d="M861.101,153.799c9.603-18.614,19.207-37.227,28.81-55.841c20.453,0,40.906,0,62.149,0
		c-9.774,18.872-19.302,37.267-28.922,55.841C902.312,153.799,881.706,153.799,861.101,153.799z"/>
	<path style="fill:#EA4043;" d="M718.073,309.256c-5.418,11.852-11.855,23.189-17.645,34.853
		c-3.443,6.936-6.924,13.854-10.387,20.779c-20.439,0-40.878,0-62.006,0c9.609-18.74,19.057-37.166,28.526-55.633
		C677.199,309.256,697.636,309.256,718.073,309.256z"/>
	<path style="fill:#030202;" d="M806.255,260c17.802,0.018,35.603,0.097,53.404,0.02c6.171-0.027,12.208,0.591,18.248,1.882
		c7.104,1.519,12.017,5.367,14.298,12.279c2.229,6.753,2.987,13.67,0.282,20.431c-3.604,9.004-10.404,14.19-20.167,14.333
		c-19.628,0.286-39.261,0.181-58.892,0.204c-10.814,0.013-21.628-0.041-32.441-0.064c3.13-7.613,7.312-14.701,11.048-22.009
		C796.676,277.999,801.506,269.021,806.255,260z"/>
	<path style="fill:#060505;" d="M721.239,202.692c-7.017,0.467-13.948-0.467-20.756-1.887c-5.486-1.145-9.674-4.801-11.949-9.792
		c-3.661-8.029-3.867-16.44-0.322-24.633c3.457-7.989,10.156-11.992,18.471-12.26c14.143-0.457,28.311-0.141,42.468-0.15
		c-3.434,7.299-7.857,14.042-11.848,21.027C732.006,184.262,726.598,193.463,721.239,202.692z"/>
</g>
</svg>
