<?xml version="1.0" encoding="iso-8859-1"?>
<!-- Generator: Adobe Illustrator 27.0.0, SVG Export Plug-In . SVG Version: 6.00 Build 0)  -->
<svg version="1.1" id="Layer_1" xmlns="http://www.w3.org/2000/svg" xmlns:xlink="http://www.w3.org/1999/xlink" x="0px" y="0px"
	 viewBox="0 0 1646 277.013" style="enable-background:new 0 0 1646 277.013;" xml:space="preserve">
<g>
	<path style="fill:#13395A;" d="M294.46,235.847c3.042,4.361,5.221,9.208,7.798,13.831c3.391,6.083,6.831,12.14,10.199,18.235
		c0.62,1.122,1.678,2.116,1.376,3.862c-7.889,0.346-15.818,0.835-23.755,1.013c-21.616,0.485-43.237,0.75-64.852,1.262
		c-38.579,0.914-77.159,1.639-115.747,2.018c-1.159,0.011-2.72-0.795-3.478,0.945c-1.667,0-3.333,0-5,0
		c-0.252-1.083-1.112-1.044-1.936-1.027c-2.993,0.063-5.986,0.141-8.979,0.214c-7.002-0.032-14.004-0.065-21.005-0.097
		c-6.195-0.026-12.39-0.056-18.585-0.072c-0.949-0.002-2.001-0.202-2.495,0.982c-2.333,0-4.667,0-7,0
		c1.403-3.179,2.745-6.388,4.763-9.25c36.021-2.235,71.988-5.101,107.883-9.499c-32.293-2.479-64.473-5.712-96.565-9.804
		c1.383-2.322,2.766-4.644,4.149-6.967c21.02,2.324,42.114,3.681,63.243,4.291c24.148,0.696,48.304,0.387,72.453-0.214
		c2.904-0.072,5.854-0.046,9.809-1.173c-15.845-1.548-30.563-2.947-45.271-4.437c-11.085-1.122-22.163-2.317-33.236-3.561
		c-9.749-1.095-19.492-2.253-29.226-3.473c-9.889-1.24-19.802-2.33-29.567-4.404c1.697-2.516,3.395-5.033,5.092-7.549
		c2.598,0.607,5.225,0.954,7.889,1.193c14.252,1.277,28.43,3.257,42.706,4.356c12.605,0.97,25.175,2.401,37.77,3.516
		c11.275,0.999,22.557,1.942,33.848,2.731c11.126,0.778,22.267,1.331,33.402,1.982c2.967,0.46,5.94,0.311,8.914,0.093
		c5.077,0.334,10.158,0.518,15.246,0.284c2.578,1.229,5.268,0.81,7.948,0.536c7.552,0.304,15.106,0.515,22.665,0.28
		C288.102,236.306,291.283,236.299,294.46,235.847z"/>
	<path style="fill:#F7B31E;" d="M61.23,241.494c-1.383,2.322-2.766,4.644-4.149,6.967c-4.21,6.178-8.119,12.532-11.318,19.303
		c-2.018,2.862-3.36,6.072-4.763,9.25c-13.667,0-27.333,0-41,0c2.05-5.619,4.979-10.817,7.826-16.042
		c14.776-27.12,29.525-54.256,44.453-81.293c15.09-27.331,30.376-54.553,45.581-81.82c10.433-18.71,20.862-37.423,31.33-56.114
		c1.12-2,2.086-4.122,3.724-5.799c1.74,2.887,4.368,5.254,5.115,8.723c-13.249,26.559-26.256,53.235-38.354,80.342
		c-2.76,6.184-6.309,12.043-7.953,18.704c-0.428,0.193-0.842,0.564-0.426,0.937c0.449,0.403,0.69-0.101,0.809-0.528
		c0.46-0.454,1.016-0.843,1.365-1.37c12.087-18.236,24.524-36.229,37.559-53.801c6.019-8.114,11.602-16.573,18.486-24.024
		c1.542,2.051,3.431,3.917,3.57,6.714c-3.766,5.26-7.595,10.476-11.288,15.788c-18.671,26.855-35.396,54.921-51.459,83.38
		c-3.818,6.764-7.989,13.387-10.817,20.686c-1.101,0.89-1.801,1.979-2.137,3.21c1.025,0.476,1.414,0.079,1.675-0.31
		c0.456-0.678,0.799-1.432,1.189-2.154c0.562-0.599,1.196-1.145,1.674-1.805c16.059-22.166,32.022-44.402,48.179-66.497
		c9.697-13.261,19.628-26.354,30.172-38.966c1.566,2.51,3.089,5.04,3.769,7.969c-9.668,13.271-19.47,26.447-28.97,39.837
		c-13.247,18.672-26.34,37.454-39.356,56.288c-7.257,10.501-14.533,20.998-21.186,31.904c-1.697,2.516-3.395,5.033-5.092,7.549
		C66.411,232.663,63.799,237.065,61.23,241.494z"/>
	<path style="fill:#213F5F;" d="M1646,70.013c-1.724,0.933-1.413,2.83-1.942,4.29c-3.905,10.779-15.426,16.999-26.991,14.476
		c-11.075-2.416-19.053-13.207-17.945-24.273c1.132-11.301,10.602-20.054,22.15-20.471c12.379-0.447,21.855,7.3,23.777,19.466
		c0.108,0.685,0.177,1.293,0.951,1.512C1646,66.68,1646,68.347,1646,70.013z M1622.285,48.864
		c-9.786,0.034-17.428,8.038-17.27,18.086c0.156,9.854,7.728,17.363,17.501,17.355c9.788-0.008,16.834-7.476,16.777-17.782
		C1639.237,56.357,1631.987,48.83,1622.285,48.864z"/>
	<path style="fill:#485874;" d="M48,277.013c0.493-1.184,1.546-0.984,2.495-0.982c6.195,0.016,12.39,0.046,18.585,0.072
		c-0.067,0.3-0.094,0.603-0.08,0.91C62,277.013,55,277.013,48,277.013z"/>
	<path style="fill:#777D95;" d="M69,277.013c-0.014-0.307,0.012-0.61,0.08-0.91c7.002,0.032,14.004,0.065,21.005,0.097
		c-0.049,0.269-0.077,0.54-0.085,0.813C83,277.013,76,277.013,69,277.013z"/>
	<path style="fill:#A6A9B9;" d="M90,277.013c0.008-0.273,0.036-0.544,0.085-0.813c2.993-0.073,5.986-0.151,8.979-0.214
		c0.824-0.017,1.684-0.056,1.936,1.027C97.333,277.013,93.667,277.013,90,277.013z"/>
	<path style="fill:#0F3858;" d="M1067.807,224.647c-12.403,0-24.846,0-37.976,0c-23.598-38.12-47.435-76.629-71.273-115.138
		c-0.223,0.055-0.446,0.11-0.67,0.165c0,38.217,0,76.433,0,114.938c-11.983,0-23.57,0-35.517,0c0-57.587,0-115.282,0-173.233
		c12.438,0,24.867,0,37.598,0c23.843,38.441,47.783,77.039,71.723,115.636c0.336-0.112,0.672-0.224,1.009-0.336
		c0-38.362,0-76.724,0-115.319c11.9,0,23.333,0,34.768-0.001C1068.448,54.814,1068.797,217.214,1067.807,224.647z"/>
	<path style="fill:#0F3858;" d="M682.613,224.703c-12.661,0-24.938,0-37.556,0c0-24.786,0-49.376,0-74.327
		c-23.393,0-46.448,0-70.022,0c0,24.543,0,49.251,0,74.241c-12.914,0-25.313,0-38.014,0c0-57.668,0-115.241,0-173.153
		c12.338,0,24.748,0,37.667,0c0,21.936,0,43.986,0,66.29c23.571,0,46.636,0,70.035,0c0-22.048,0-43.982,0-66.272
		c12.724,0,25.125,0,37.89,0C682.613,109.004,682.613,166.696,682.613,224.703z"/>
	<path style="fill:#13395A;" d="M1336.99,192.77c31.004,0,61.751,0,92.737,0c0,10.827,0,21.234,0,31.891
		c-43.74,0-87.311,0-131.177,0c0-57.695,0-115.268,0-173.192c42.902,0,85.8,0,129.355,0c0.031,5.028,0.076,10.28,0.092,15.532
		c0.016,5.326,0.004,10.652,0.004,16.568c-30.375,0-60.569,0-91.013,0c0,12.482,0,24.373,0,36.721c27.797,0,55.374,0,83.295,0
		c0,10.022,0,19.598,0,29.868c-13.845,0.143-27.754,0.044-41.661,0.062c-13.791,0.018-27.583,0.004-41.631,0.004
		C1336.99,164.568,1336.99,178.459,1336.99,192.77z"/>
	<path style="fill:#113959;" d="M871.914,192.617c0,11.065,0,21.354,0,31.966c-43.608,0-87.151,0-130.959,0
		c0-57.705,0-115.287,0-173.166c42.947,0,85.833,0,128.902,0c0,10.731,0,21.295,0,32.275c-30.335,0-60.412,0-90.734,0
		c0,12.324,0,24.232,0,36.569c27.754,0,55.334,0,82.79,0c1.092,3.896,1.285,24.011,0.337,29.886c-27.527,0-55.121,0-83.043,0
		c0,14.275,0,28.173,0,42.47C809.932,192.617,840.685,192.617,871.914,192.617z"/>
	<path style="fill:#103859;" d="M344.182,167.192c12.395,0,24.208,0,35.99,0c1.332,1.019,0.822,2.491,0.961,3.73
		c1.507,13.389,8.948,21.936,21.589,25.852c11.073,3.43,22.338,3.224,33.487,0.181c4.867-1.328,9.199-3.761,12.564-7.7
		c6.351-7.436,5.496-18.167-2.024-24.43c-6.445-5.368-14.302-7.658-22.156-9.76c-12.501-3.346-25.136-6.201-37.417-10.332
		c-7.438-2.502-14.53-5.751-20.767-10.604c-10.468-8.145-15.833-18.817-16.463-32.138c-1.171-24.776,14.618-42.263,36.1-49.904
		c12.704-4.519,25.803-5.815,39.288-4.365c11.02,1.185,21.68,3.32,31.485,8.639c17.599,9.547,26.641,24.4,27.162,44.419
		c0.016,0.62,0.253,1.349-0.649,2.041c-11.695,0-23.635,0-35.657,0c-1.232-1.109-0.81-2.772-1.045-4.141
		c-1.995-11.656-9.292-18.081-20.379-20.466c-7.523-1.618-15.181-1.939-22.793-0.22c-5.365,1.211-9.886,3.823-13.295,8.202
		c-6.252,8.032-3.909,19.088,5.048,23.722c6.694,3.464,13.984,5.194,21.201,7.1c11.546,3.05,23.182,5.779,34.664,9.051
		c13.177,3.755,24.106,10.904,32.03,22.382c3.905,5.657,5.941,11.93,6.552,18.591c1.447,15.798-2.35,30.101-13.552,41.78
		c-8.281,8.633-18.665,13.776-30.201,16.537c-22.902,5.481-45.545,4.999-67.417-4.361c-16.852-7.212-28.228-19.598-32.741-37.694
		C344.467,178.164,343.808,172.925,344.182,167.192z"/>
	<path style="fill:#123959;" d="M1164.161,83.544c-17.619,0-34.418,0-51.562,0c0-10.821,0-21.369,0-32.172
		c47.051,0,93.976,0,141.619,0c0.125,10.54,0.017,21.094,0.067,32.165c-17.216,0-34.116,0-51.557,0c0,47.236,0,93.962,0,141.028
		c-12.949,0-25.361,0-38.476,0c-0.194-5.54-0.064-11.301-0.086-17.053c-0.023-6-0.005-12-0.005-18c0-5.833,0-11.666,0-17.5
		c0-5.833,0-11.666,0-17.5c0-5.833-0.001-11.666-0.001-17.5c0-6,0-12,0-18c0-5.833,0-11.666,0-17.5
		C1164.161,95.725,1164.161,89.936,1164.161,83.544z"/>
	<path style="fill:#0F3858;" d="M1480.267,51.299c12.632,0,24.901,0,37.553,0c0,47.069,0,93.966,0,141.405
		c28.244,0,56.114,0,84.233,0c0,10.93,0,21.319,0,31.954c-40.606,0-81.014,0-121.786,0
		C1480.267,167.015,1480.267,109.341,1480.267,51.299z"/>
	<path style="fill:#E26227;" d="M164.04,92.944c-0.68-2.929-2.203-5.459-3.769-7.969c-1.96-4.679-4.042-9.294-7.188-13.334
		c-0.139-2.797-2.029-4.663-3.57-6.714c-2.974-7.237-6.845-13.966-11.485-20.26c-0.747-3.469-3.375-5.836-5.115-8.723
		c0.761-2.939,2.572-5.352,4.031-7.932c4.581-8.099,9.232-16.159,13.868-24.227c0.738-1.285,1.272-2.729,2.9-3.785
		c5.413,8.752,10.844,17.471,16.215,26.226c38.598,62.907,75.972,126.545,113.42,190.139c3.793,6.441,7.412,12.985,11.111,19.481
		c-3.177,0.452-6.358,0.459-9.543,0.099c-15.669-24.048-31.775-47.799-48.56-71.085c-4.349-6.033-8.13-12.49-13.266-17.942
		c-0.057-0.438-0.231-0.783-0.72-0.884c-0.625,0.587-0.21,0.975,0.267,1.353c0.214,1.867,1.262,3.397,2.042,5.035
		c6.268,13.15,12.646,26.248,18.776,39.461c6.685,14.41,13.186,28.907,18.796,43.782c-2.68,0.273-5.369,0.693-7.948-0.536
		c-2.869-6.532-5.556-13.15-8.636-19.581c-17.388-36.307-37.394-71.163-58.676-105.304c-0.548-0.879-0.708-2.298-2.191-2.183
		c-0.716,0.384-0.37,0.779-0.178,1.207c8.648,19.222,17.354,38.417,25.912,57.678c9.969,22.438,19.721,44.97,28.523,67.9
		c-2.974,0.217-5.947,0.367-8.914-0.093c-0.477-2.489-1.946-4.555-2.931-6.827c-19.008-43.81-38.868-87.225-60.199-129.958
		C166.149,96.236,165.712,94.212,164.04,92.944z M222.287,145.573c-0.962-1.561-1.44-1.522-1.997-0.937
		C220.684,144.821,221.059,144.997,222.287,145.573z"/>
	<path style="fill:#213F5F;" d="M1613.55,55.979c4.263-1.425,8.433-1.186,12.522-0.683c2.683,0.33,5.134,1.597,5.876,4.653
		c0.677,2.788-0.428,4.849-2.708,6.418c-0.241,0.166-0.343,0.535-0.627,1.004c2.927,2.72,3.103,6.657,4.241,10.305
		c-1.762,1.057-3.528,0.378-5.11,0.433c-1.836-2.454-1.341-5.464-3.168-7.713c-1.504-0.813-3.208-1.259-5.16-1.088
		c-1.176,2.769,0.066,5.699-0.839,8.481c-1.608,0.688-3.182,0.597-5.027-0.001C1613.55,70.702,1613.55,63.593,1613.55,55.979z
		 M1619.22,64.971c1.74,0.523,3.199,0.395,4.637,0.118c1.465-0.283,2.267-1.253,2.381-2.732c0.119-1.537-0.753-2.496-2.077-2.993
		c-1.553-0.584-3.158-0.456-4.942-0.065C1619.22,61.127,1619.22,62.871,1619.22,64.971z"/>
</g>
</svg>
