<?xml version="1.0" encoding="iso-8859-1"?>
<!-- Generator: Adobe Illustrator 27.0.0, SVG Export Plug-In . SVG Version: 6.00 Build 0)  -->
<svg version="1.1" id="Layer_1" xmlns="http://www.w3.org/2000/svg" xmlns:xlink="http://www.w3.org/1999/xlink" x="0px" y="0px"
	 viewBox="0 0 1583 469" style="enable-background:new 0 0 1583 469;" xml:space="preserve">
<g>
	<path style="fill:#BA2132;" d="M470,0c0.048,1.664,0.137,3.327,0.137,4.991c0.006,138.664-0.024,277.328,0.071,415.992
		c0.007,9.634-1.778,18.505-7.6,26.306c-7.988,10.702-18.664,16.28-32.058,16.329c-18.666,0.069-37.333,0.027-55.999,0.001
		c-1.642-0.002-3.334,0.337-5.349-0.588c15.702-84.152,31.422-168.396,47.203-252.967c-20.393,0-40.159,0-60.542,0
		c-15.943,84.387-31.894,168.821-47.874,253.406c-36.958,0-73.569,0-110.003,0c0.687-0.89,1.923-1.165,3.223-1.541
		c25.934-7.502,48.198-20.725,64.663-42.521c8.921-11.809,14.742-25.189,17.741-39.706c3.482-16.855,3.665-33.709-1.075-50.368
		c-4.974-17.479-15.16-31.607-28.673-43.526c-11.943-10.533-25.588-18.413-39.478-26.01c-10.64-5.819-21.132-11.99-30.438-19.864
		c-7.704-6.518-14.291-13.903-17.093-24.001c-4.281-15.43-0.176-28.639,10.851-39.725c9.885-9.938,22.353-14.64,36.092-16.299
		c25.351-3.062,49.223,2.002,72.022,13.044c1.001,0.485,1.886,1.466,3.718,0.974c6.406-16.133,12.926-32.551,19.513-49.14
		c-11.619-6.817-23.95-11.01-36.822-13.738c-15.374-3.259-30.952-4.534-46.63-4.006c-28.979,0.975-56.215,8.01-80.229,24.879
		c-24.192,16.993-39.146,40.094-43.067,69.547c-3.874,29.092,4.807,54.182,25.98,74.785c11.781,11.464,25.237,20.578,39.469,28.649
		c6.934,3.932,13.881,7.849,20.718,11.946c7.893,4.731,14.902,10.568,21.271,17.237c14.919,15.619,16.17,40.477,3.672,57.88
		c-8.575,11.939-20.684,18.42-34.585,21.991c-13.764,3.537-27.645,3.126-41.606,1.254c-15.589-2.091-30.481-6.42-44.735-13.038
		c-4.831-2.243-9.467-4.821-14.418-7.942c-6.925,16.566-13.813,33.046-20.864,49.914c13.45,10.169,29.384,14.275,45.741,19.495
		c-33.765,0-66.632-0.002-99.498,0.007c-1.155,0-2.342-0.192-3.446,0.353C0,319.667,0,175.333,0,31
		c1.703-0.696,1.405-2.465,1.878-3.746C6.634,14.357,15.34,5.639,28.553,1.496C29.712,1.133,31.305,1.512,32,0C178,0,324,0,470,0z
		 M397.005,173.137c17.67,0.048,33.297-10.912,36.491-29.554c2.402-14.02-1.513-27.144-14.452-34.858
		c-8.154-4.861-17.069-5.095-26.002-3.107c-13.079,2.912-25.42,13.59-27.423,31.048
		C363.544,154.759,373.864,173.442,397.005,173.137z"/>
	<path style="fill:#050404;" d="M1429,469c-2.85-1.99-6.28-1.402-9.405-1.87c-20.818-3.118-40.196-9.797-57.391-22.205
		c-20.585-14.854-33.835-34.839-41.18-58.937c-3.798-12.461-5.526-25.227-6.218-38.235c-1.155-21.709,1.822-42.751,9.279-63.115
		c7.191-19.637,18.031-37.021,33.685-51.053c16.448-14.743,35.571-24.04,57.505-27.653c14.266-2.35,28.531-2.808,42.758-0.7
		c32.075,4.752,56.543,21.014,72.566,49.425c8.065,14.301,12.829,29.747,15.429,45.921c2.177,13.542,2.629,27.154,1.866,40.812
		c-0.249,4.449-0.998,8.869-1.547,13.544c-56.7,0-112.969,0-169.632,0c0.035,13.583,3.6,25.729,11.241,36.554
		c9.656,13.679,23.32,21.483,39.231,25.512c18.206,4.61,36.608,3.569,55.043,1.369c14.377-1.716,28.405-4.843,42.653-9.723
		c3.148,14.748,6.246,29.263,9.386,43.974c-7.727,3.848-15.633,6.231-23.623,8.268c-14.658,3.737-29.475,6.614-44.655,7.165
		c-0.795,0.029-1.697-0.147-1.99,0.946c-1,0-2,0-3,0c-0.276-1.017-1.074-1.047-1.919-1.047c-7.72,0.001-15.44-0.006-23.16-0.017
		c-0.848-0.001-1.64,0.06-1.921,1.065C1432.333,469,1430.667,469,1429,469z M1376.969,309.463c36.921,0,73.667,0,110.227,0
		c0.875-1.136,0.675-2.181,0.587-3.13c-0.459-4.964-0.71-9.956-1.773-14.846c-4.759-21.891-17.639-39.755-42.894-43.038
		c-16.65-2.164-31.754,1.679-44.347,13.225c-10.223,9.374-16.344,21.222-19.814,34.521
		C1377.838,300.48,1376.428,304.744,1376.969,309.463z"/>
	<path style="fill:#211F1F;" d="M1583,230c-1.497,0.34-1.227,1.843-1.697,2.785c-3.598,7.206-11.055,11.703-18.558,11.022
		c-8.335-0.756-14.687-5.962-17.073-13.805c-2.947-9.689,3.368-21.3,15.398-22.903c10.809-1.441,18.166,3.769,21.235,14.294
		c0.073,0.249,0.456,0.407,0.695,0.608C1583,224.667,1583,227.333,1583,230z M1577.234,225.647
		c0.606-6.858-4.297-14.143-13.193-14.342c-7.452-0.167-13.353,5.774-13.671,13.58c-0.316,7.761,5.724,14.174,13.431,14.259
		C1571.605,239.23,1577.089,233.72,1577.234,225.647z"/>
	<path style="fill:#575453;" d="M1434,469c0.281-1.004,1.072-1.066,1.921-1.065c7.72,0.011,15.44,0.018,23.16,0.017
		c0.845,0,1.643,0.031,1.919,1.047C1452,469,1443,469,1434,469z"/>
	<path style="fill:#060505;" d="M1122.54,463.533c-20.641,0-41.23,0-62.039,0c-0.709-1.838-0.387-3.677-0.388-5.448
		c-0.022-46.499-0.029-92.999-0.009-139.498c0.005-11.706-1.005-23.261-5.119-34.329c-2.936-7.898-7.108-15.04-14.01-20.178
		c-11.734-8.734-24.946-10.517-38.292-5.586c-20.315,7.507-31.406,23.003-34.787,44.238c-0.949,5.961-0.898,11.943-0.897,17.938
		c0.006,45.666,0.003,91.332,0.003,136.998c0,1.822,0,3.644,0,5.778c-20.804,0-41.391,0-62.163,0
		c-1.299-1.656-0.638-3.732-0.639-5.635c-0.04-55.999-0.08-111.999-0.009-167.998c0.028-22.168-0.487-44.321-1.232-66.473
		c-0.145-4.301-1.04-8.57-0.631-13.261c18.13,0,36.178,0,54.816,0c1.026,12.204,2.061,24.529,3.1,36.889
		c2.542,0.035,2.742-2.054,3.574-3.293c9.892-14.733,22.521-26.326,39.18-32.78c23.167-8.975,46.539-10.31,69.76,0.034
		c15.314,6.822,26.598,17.952,34.299,32.783c0.612,1.178,1.21,2.364,1.784,3.56c0.566,1.179,1.093,2.376,1.634,3.557
		c1.719-0.342,1.993-1.825,2.682-2.879c12.353-18.89,29.077-32.553,50.487-39.471c20.255-6.545,40.914-6.818,61.09,1.084
		c19.057,7.463,32.271,21.26,41.144,39.393c6.183,12.636,9.489,26.117,11.172,40.055c1.52,12.594,1.92,25.222,1.904,37.891
		c-0.055,43.666-0.015,87.332-0.042,130.998c-0.001,1.784,0.418,3.633-0.488,5.608c-20.547,0-41.137,0-61.977,0
		c-0.724-1.738-0.382-3.579-0.383-5.345c-0.024-44.333-0.025-88.666-0.015-132.998c0.003-11.687-0.899-23.266-4.01-34.585
		c-2.36-8.586-5.932-16.519-12.249-23.033c-9.043-9.326-20.333-12.263-32.785-11.203c-24.747,2.107-41.251,24.434-43.261,44.174
		c-0.474,4.656-0.771,9.282-0.771,13.944c-0.005,47.833,0.002,95.665-0.023,143.498
		C1122.949,459.743,1123.318,461.585,1122.54,463.533z"/>
	<path style="fill:#070706;" d="M756.244,112.367c0,17.715,0,35.458,0,53.557c-30.682,0-61.267,0-92.251,0
		c0,99.23,0,198.108,0,296.86c-3.786,1.189-54.691,1.61-64.033,0.652c-0.122-0.114-0.259-0.215-0.361-0.345
		c-0.098-0.124-0.192-0.269-0.228-0.419c-0.077-0.321-0.135-0.65-0.164-0.979c-0.029-0.331-0.016-0.666-0.016-0.999
		c-0.025-97.965-0.049-195.93-0.086-293.895c0-0.12-0.186-0.24-0.626-0.772c-29.901,0-60.146,0-90.608,0c0-18.005,0-35.599,0-53.2
		C511.381,111.836,744.718,111.373,756.244,112.367z"/>
	<path style="fill:#0A0909;" d="M849.649,463.532c-21.397,0-42.498,0-63.574,0c-0.962-3.559-1.278-246.237-0.317-253.527
		c21.188,0,42.416,0,63.891,0C849.649,294.418,849.649,378.687,849.649,463.532z"/>
	<path style="fill:#070606;" d="M816.626,173.269c-17.92,0.027-30.122-11.447-33.573-25.226
		c-6.097-24.343,10.68-44.961,35.753-44.273c6.241,0.171,12.218,1.324,17.707,4.297c12.625,6.839,18.846,21.118,17.225,34.488
		c-1.75,14.436-9.671,24.334-23.817,28.902C825.904,172.755,821.816,173.106,816.626,173.269z"/>
	<path style="fill:#282626;" d="M1556.492,217.077c3.118-1.776,6.511-0.972,9.753-0.928c2.314,0.031,4.651,0.783,5.678,3.291
		c0.844,2.062,0.144,3.479-2.883,6.211c2.85,1.852,2.918,5.017,3.774,8.029c-1.65,1.042-3.375,0.59-5.241,0.345
		c-0.697-1.884-1.371-3.706-1.969-5.322c-1.256-0.861-2.315-0.987-3.8-0.198c0,1.592,0,3.35,0,5.095
		c-1.869,1.087-3.459,0.608-5.311,0.451C1556.492,228.327,1556.492,222.747,1556.492,217.077z M1566.733,221.718
		c-0.853-2.3-2.629-1.999-4.418-1.741c-0.727,1.302-0.742,2.507-0.04,3.955C1564.207,224.097,1566.154,224.454,1566.733,221.718z"/>
</g>
</svg>
