<?xml version="1.0" encoding="iso-8859-1"?>
<!-- Generator: Adobe Illustrator 27.0.0, SVG Export Plug-In . SVG Version: 6.00 Build 0)  -->
<svg version="1.1" id="Layer_1" xmlns="http://www.w3.org/2000/svg" xmlns:xlink="http://www.w3.org/1999/xlink" x="0px" y="0px"
	 viewBox="0 0 1545.107 319" style="enable-background:new 0 0 1545.107 319;" xml:space="preserve">
<g>
	<path style="fill:#B2CF39;" d="M168.868,48c2.782,7.321,5.571,9.281,13.435,9.285c29.33,0.014,58.66,0.026,87.99-0.027
		c2.846-0.005,5.645,0.256,8.425,0.708c7.72,1.255,13.269,8.134,13.569,16.183c0.357,9.582-7.431,15.876-13.437,16.842
		c-0.984,0.158-1.986,0.214-2.962,0.406c-7.383,1.449-11.344,6.019-10.882,12.519c0.454,6.381,5.284,10.317,12.82,10.366
		c6.332,0.041,12.667-0.072,18.997,0.033c5.611,0.093,10.93,1.126,14.868,5.694c4.699,5.45,5.756,11.724,2.925,18.133
		c-2.726,6.17-7.63,9.987-14.824,9.984c-21.831-0.008-43.662,0.073-65.492-0.041c-8.757-0.046-15.69-7.049-16.174-15.851
		c-0.462-8.418,5.657-15.945,14.091-17.323c1.637-0.267,3.283-0.483,4.92-0.756c6.035-1.007,9.522-5.66,9.166-12.211
		c-0.33-6.084-4.387-10.155-10.662-10.195c-16.164-0.104-32.329-0.036-48.494-0.037c-2.5,0-5.003-0.082-7.499,0.018
		c-6.082,0.244-10.609,4.893-10.719,10.905c-0.117,6.374,4.224,11.21,10.555,11.606c2.814,0.176,5.621,0.124,8.435,0.61
		c7.767,1.342,13.53,7.582,14.117,15.214c0.621,8.075-4.189,15.026-11.866,17.59c-2.252,0.752-4.624,0.462-6.947,0.462
		c-44.828,0.011-89.657,0.008-134.485,0.008c-10.166,0-20.343-0.299-30.493,0.096c-7.854,0.306-15.184-4.417-17.323-12.178
		C0.814,135.641,0.317,135.345,0,135c0-2.667,0-5.333,0-8c0.358-0.297,0.895-0.521,1.047-0.9c3.345-8.336,9.64-11.704,18.42-11.439
		c7.473,0.225,14.959,0.023,22.439,0.065c1.84,0.01,3.626-0.176,5.414-0.604c5.181-1.24,8.523-5.371,8.822-10.624
		c0.204-3.58-1.388-6.393-3.269-9.164c0.082-3.178,3.002-3.45,4.896-4.124c12.773-4.543,25.461-9.307,38.165-14.036
		c3.47-1.292,6.943-2.92,10.764-3.172c1.557,7.95-5.679,18.024-15.544,18.144c-1.829,0.022-3.665,0.013-5.484,0.174
		c-6.403,0.566-10.927,5.118-11.263,11.246c-0.315,5.753,3.719,10.382,10.006,11.731c1.661,0.357,3.29,0.403,4.945,0.404
		c15.478,0.009,30.956-0.025,46.434,0.038c2.361,0.01,4.674-0.239,6.896-0.862c5.538-1.554,8.934-7.719,7.523-13.331
		c-1.396-5.552-4.823-8.455-10.924-9.28c-2.124-0.287-4.275-0.073-6.379-0.886c-7.899-3.051-12.159-10.428-10.887-19.133
		c1.024-7.012,7.399-12.644,15.236-13.402c3.861-0.373,7.528-1.201,10.489-3.941c2.584,0.564,4.839-0.638,7.17-1.371
		C159.58,51.066,163.884,48.487,168.868,48z"/>
	<path style="fill:#0A6489;" d="M114,319c-1.015-1.541-2.886-1.355-4.303-2.102c-6.649-3.504-10.297-11.552-8.528-19.097
		c1.606-6.851,8.372-12.544,15.485-12.736c6.325-0.17,12.658-0.058,18.987-0.066c10.122-0.014,13.015-2.303,15.129-11.971
		c2.592-0.362,4.883-1.56,7.28-2.508c4.312-1.706,8.323-4.359,13.184-4.445c-5.594,6.876-1.302,19.503,10.389,18.976
		c6.469-0.292,12.981,0.261,19.439-0.131c7.805-0.475,16.381,6.6,17.373,14.723c0.953,7.804-3.253,15.169-11.355,18.26
		c-0.746,0.285-1.675,0.177-2.079,1.097C174.667,319,144.333,319,114,319z"/>
	<path style="fill:#64A15A;" d="M50.713,206.121c-3.018-1.13-6.159-1.161-9.328-1.138c-6.983,0.051-13.967,0.025-20.95,0.014
		c-10.985-0.017-15.941-3.594-19.499-13.995C0.801,190.608,0.32,190.332,0,190c0-1.667,0-3.333,0-5
		c1.573-0.564,1.245-2.197,1.779-3.314c3.228-6.75,8.353-10.648,15.971-10.664c24.119-0.05,48.239-0.063,72.358,0.005
		c7.552,0.021,13.522,4.694,15.792,11.965c-1.889,0.511-3.738,1.09-5.563,1.851c-10.734,4.471-21.572,8.696-32.263,13.264
		C62.218,200.609,56.03,202.44,50.713,206.121z"/>
	<path style="fill:#C4D89D;" d="M116.847,0.767C116.863,0.504,116.914,0.248,117,0c28.667,0,57.333,0,86,0
		c0.042,0.271,0.085,0.542,0.13,0.812c-28.598,0.018-57.196,0.036-85.794,0.05C117.173,0.862,117.01,0.8,116.847,0.767z"/>
	<path style="fill:#115174;" d="M931.358,209.915c-1.355,2.388-2.477,4.592-3.804,6.667c-9.343,14.615-22.97,22.491-39.97,24.115
		c-19.982,1.909-36.693-4.819-49.112-20.919c-6.813-8.833-10.1-19.124-10.327-30.173c-0.319-15.494-0.126-30.998-0.138-46.498
		c-0.011-14.5-0.002-29-0.002-43.5c0-1.624,0-3.249,0-5.075c3.73,0,6.989,0,10.483,0c0.674,1.842,0.364,3.68,0.366,5.452
		c0.024,28.5,0.074,57-0.014,85.5c-0.03,9.59,1.993,18.595,7.576,26.416c10.044,14.07,24.299,19.175,40.999,17.555
		c11.081-1.075,20.797-5.543,28.253-14.249c6.652-7.768,10.205-16.738,10.398-26.902c0.219-11.496,0.104-22.998,0.111-34.498
		c0.011-18-0.008-36,0.022-54c0.003-1.633-0.346-3.312,0.452-5.208c3.132-0.532,6.365-0.308,9.597-0.157
		c0.893,2.056,0.497,3.906,0.499,5.687c0.031,28.333,0.091,56.667-0.015,84.999c-0.037,9.947,2.167,19.123,8.002,27.274
		c10.032,14.012,28.393,20.25,46.177,16.124c21.202-4.919,33.072-22.766,33.132-41.41c0.094-29,0.029-58,0.067-86.999
		c0.002-1.781-0.389-3.628,0.505-5.711c3.072-0.102,6.165-0.275,9.087,0.123c1.302,1.27,0.907,2.678,0.908,3.964
		c0.018,29,0.084,58-0.022,86.999c-0.047,12.768-2.898,24.83-11.067,35.008c-13.12,16.346-30.43,22.616-50.945,19.894
		C953.507,237.862,939.913,227.446,931.358,209.915z"/>
	<path style="fill:#115174;" d="M1449.526,165.887c-44.109,0-87.697,0-131.579,0c-0.764,6.848,0.462,13.2,2.425,19.268
		c7.288,22.529,22.024,37.577,45.345,43.306c12.561,3.086,25.174,2.393,37.372-1.843c14.474-5.027,24.238-15.317,30.627-29.022
		c0.35-0.752,0.635-1.534,0.959-2.298c0.256-0.604,0.527-1.202,0.893-2.035c3.359-0.574,6.794-0.12,10.767-0.318
		c-3.256,9.916-7.525,18.605-14.08,26.04c-11.206,12.711-25.47,19.201-42.2,21.102c-14.623,1.661-28.6-0.283-41.699-6.826
		c-23.066-11.522-36.452-30.298-40.368-55.776c-2.867-18.648,0.638-36.126,10.518-52.133c10.61-17.189,25.642-28.967,45.613-32.86
		c27.839-5.427,50.795,3.705,68.576,25.675c8.538,10.549,13.604,22.76,15.827,36.114
		C1449.119,157.87,1449.167,161.551,1449.526,165.887z M1437.829,155.049c-3.085-27.265-29.222-55.352-63.296-53.371
		c-28.513,1.658-52.896,26.813-55.257,53.371C1358.668,155.049,1398.037,155.049,1437.829,155.049z"/>
	<path style="fill:#115174;" d="M1202.368,236.794c-2.829,0-5.908,0-9.348,0c0-10.841,0-21.548,0-32.532
		c-2.104,1.178-2.613,3.041-3.583,4.515c-12.513,19.013-30.193,29.943-52.733,31.699c-19.596,1.526-37.076-4.833-51.62-18.297
		c-15.383-14.24-23.412-31.911-24.22-52.911c-0.903-23.488,7.077-43.489,24.142-59.451c16.839-15.75,37.231-22.371,59.799-17.41
		c29.002,6.375,47.078,25.201,55.136,53.668c2.745,9.699,2.956,19.719,3.035,29.689c0.156,19.651,0.048,39.304,0.032,58.956
		C1203.008,235.348,1203.227,236.063,1202.368,236.794z M1070.624,162.241c0.173,22.221,6.431,38.251,19.835,51.149
		c25.615,24.647,65.013,21.954,87.236-5.939c17.643-22.144,19.046-54.388,3.368-78.436c-17.007-26.087-50.361-36.02-77.778-20.02
		C1081.653,121.62,1071.381,141.139,1070.624,162.241z"/>
	<path style="fill:#115174;" d="M732.182,290.495c0-3.507,0-6.603,0-9.93c4.097-0.52,8.069-0.404,11.972-1.285
		c20.456-4.615,32.649-19.223,35.836-38.16c1.434-8.523,0.91-17.128,0.899-25.818c-1.809,0.413-2.078,1.914-2.842,2.917
		c-10.173,13.345-23.697,20.421-40.34,21.886c-12.029,1.059-23.613-0.541-34.362-6.103c-19.546-10.112-30.341-26.674-31.057-48.322
		c-0.986-29.788-0.305-59.631-0.323-89.45c0-0.471,0.193-0.943,0.35-1.663c3.084-0.544,6.165-0.135,9.111-0.227
		c1.119,2.083,0.648,3.941,0.65,5.715c0.036,25.988-0.002,51.977,0.043,77.965c0.01,6.164,0.469,12.324,2.383,18.228
		c5.858,18.066,18.254,29.13,36.805,32.61c16.559,3.106,31.792-0.386,44.501-12.005c8.289-7.578,12.746-17.245,14.332-28.32
		c0.688-4.803,0.807-9.612,0.801-14.448c-0.029-24.656-0.025-49.311,0.009-73.967c0.002-1.783-0.425-3.634,0.505-5.581
		c3.207,0,6.46,0,9.611,0c1.114,1.326,0.668,2.718,0.669,3.992c0.025,43.48,0.065,86.96-0.009,130.44
		c-0.024,13.92-2.959,27.027-11.516,38.47c-10.062,13.453-23.611,20.564-40.104,22.453
		C737.638,290.175,735.149,290.275,732.182,290.495z"/>
	<path style="fill:#115174;" d="M508.121,130.82c-3.684,0-6.975,0-10.277,0c-1.082-0.711-1.221-1.961-1.618-2.991
		c-5.209-13.541-15.328-21.471-29.061-24.873c-13.706-3.395-27.362-2.979-40.719,2.013c-4.881,1.824-9.31,4.41-13.033,8.09
		c-6.058,5.989-8.057,13.251-6.357,21.5c1.117,5.417,4.708,9.01,9.344,11.715c6.423,3.747,13.494,5.428,20.717,6.752
		c11.593,2.125,23.397,3.015,34.839,6.015c6.432,1.686,12.717,3.705,18.747,6.593c21.53,10.311,24.548,33.41,16.779,49.491
		c-5.203,10.769-14.18,17.14-25.023,20.768c-22.534,7.539-45.001,6.502-66.594-3.291c-15.535-7.046-24.674-19.659-27.678-36.854
		c3.403-0.878,6.629-0.276,9.915-0.368c1.434,3.537,2.209,6.926,3.738,10.059c5.92,12.13,16.149,18.891,28.629,22.216
		c14.35,3.822,28.942,4.199,43.424,0.264c7.493-2.036,14.288-5.482,19.717-11.156c10.609-11.087,9.824-29.402-1.66-38.156
		c-5.771-4.4-12.561-6.68-19.453-8.65c-8.983-2.567-18.24-3.601-27.44-4.991c-9.199-1.389-18.245-3.371-27.062-6.505
		c-26.599-9.454-27.725-38.086-10.655-53.55c8.049-7.292,17.699-11.049,28.191-12.811c14.026-2.355,27.985-1.573,41.376,3.176
		C493.479,101.151,503.728,113.107,508.121,130.82z"/>
	<path style="fill:#115174;" d="M656.241,236.876c-4.571,0-8.543,0-12.754,0c-18.476-27.551-36.964-55.121-55.667-83.011
		c-12.604,12.106-24.719,23.744-36.853,35.399c0,15.802,0,31.442,0,47.351c-3.396,0.719-6.656,0.344-10.165,0.257
		c0-47.374,0-94.622,0-142.216c3.225,0,6.302,0,9.548,0c-0.031-0.024,0.117,0.064,0.225,0.187c0.102,0.116,0.233,0.268,0.233,0.405
		c0.01,26.148,0.01,52.297,0.01,78.586c0.97-0.39,0.07-0.134,0.702,0.077c0.153,0.051,0.359,0.095,0.488,0.033
		c0.296-0.143,0.597-0.314,0.832-0.541c27.194-26.278,54.383-52.562,81.624-78.896c4.468,0,8.901,0,14.534,0
		c-9.207,9.431-18.147,17.736-26.949,26.182c-8.766,8.412-17.431,16.93-26.572,25.822
		C615.605,176.446,635.698,206.327,656.241,236.876z"/>
	<path style="fill:#115174;" d="M1244.223,104.841c-6.677,0-12.773,0-19.192,0c-0.184-3.626-0.34-6.856,0.156-10.505
		c6.283,0,12.378,0,18.942,0c0-10.149,0-19.894,0-29.926c3.702,0,6.925,0,10.634,0c0,9.881,0,19.625,0,29.839
		c12.869,0,25.272,0,37.933,0c0,3.706,0,6.935,0,10.614c-12.578,0-24.989,0-36.981,0c-1.258,1.268-0.886,2.328-0.887,3.271
		c-0.022,26.659,0.022,53.318-0.036,79.977c-0.015,6.896,0.765,13.646,3.287,20.067c4.168,10.61,11.997,16.834,23.217,18.915
		c3.734,0.693,7.486,1.066,11.464,0.893c0,3.374,0,6.294,0,9.186c-18.323,2.789-35.038-5.726-42.536-21.117
		c-4.551-9.341-5.996-19.304-5.998-29.561c-0.005-25.16-0.003-50.319-0.003-75.479
		C1244.223,109.197,1244.223,107.379,1244.223,104.841z"/>
	<path style="fill:#297A77;" d="M91.001,261.834c-11.666,0.276-23.332,0.269-34.998,0.001c-0.187-1.849,1.442-2.124,2.522-2.595
		c6.451-2.815,12.939-5.547,19.45-8.22c10.741-4.409,21.51-8.75,32.266-13.125c5.302-2.157,10.641-4.231,15.873-6.547
		c1.487-0.658,3.783-0.694,3.888-3.182c9.25-0.055,18.519-0.495,27.746-0.056c8.927,0.424,15.189-5.029,14.047-14.634
		c0.168-1.215,1.219-1.522,2.099-1.879c4.255-1.724,8.416-3.787,12.713-5.268c10.559-3.64,20.51-8.693,30.939-12.619
		c9.193-3.46,18.207-7.394,27.297-11.127c6.97-2.862,13.919-5.779,20.917-8.572c1.418-0.566,2.241-1.305,2.242-2.844
		c11.001-0.226,22.002-0.357,33.001,0.062c0.483,2.451-1.387,3.075-3.026,3.766c-8.744,3.684-17.499,7.345-26.267,10.971
		c-10.579,4.375-21.167,8.729-31.769,13.049c-6.654,2.711-13.341,5.342-20.014,8.009c-2.049-1.064-3.989-2.567-6.31-2.792
		c-4.801-0.464-9.677-0.66-14.437,0.036c-5.653,0.826-9.274,5.538-9.285,11.254c-0.003,1.492,0.14,2.984,0.216,4.475
		c-0.984,0.06-1.948-0.026-2.929,0.382c-13.201,5.49-26.412,10.957-39.636,16.392c-11.095,4.56-22.213,9.063-33.314,13.609
		c-6.995,2.865-13.96,5.805-20.98,8.608C91.83,259.556,91,260.288,91.001,261.834z"/>
	<path style="fill:#96C043;" d="M116.847,0.767c0.163,0.033,0.326,0.095,0.489,0.095c28.598-0.014,57.196-0.032,85.794-0.05
		c4.157,0.186,7.612,1.85,10.392,4.936c-2.062,1.034-4.045,2.282-6.198,3.069c-20.384,7.454-40.805,14.81-61.189,22.265
		c-1.746,0.639-4.009,0.986-4.148,3.608c-8.605-0.269-17.206,0.307-25.827-0.47c-8.51-0.767-15.658-8.476-15.318-17.07
		C101.198,8.184,107.396,1.645,116.847,0.767z"/>
	<path style="fill:#0A6489;" d="M257.002,228.164c6.488-0.046,12.98-0.238,19.464-0.098c7.134,0.154,14.018,5.955,15.458,12.684
		c1.714,8.004-1.6,15.551-8.436,19.051c-2.533,1.297-5.224,2.188-8.107,2.184c-30.792-0.039-61.585-0.097-92.377-0.15
		c0.554-2.893,3.304-2.902,5.241-3.74c6.603-2.856,13.327-5.431,19.981-8.172c8.774-3.613,17.523-7.289,26.289-10.924
		c6.345-2.63,12.718-5.192,19.035-7.889C254.938,230.519,256.969,230.442,257.002,228.164z"/>
	<path style="fill:#115174;" d="M1544.834,90.381c0.401,3.529,0.289,6.766,0.108,10.234c-6.39,0.331-12.499,0.004-18.574,1.145
		c-19.923,3.744-32.022,15.684-37.337,34.919c-1.516,5.485-1.778,11.161-1.792,16.808c-0.064,25.804-0.017,51.608-0.053,77.412
		c-0.002,1.777,0.468,3.636-0.574,5.563c-3.042,0-6.153,0-9.211,0c-1.212-0.855-0.958-2.089-0.958-3.221
		c-0.003-27.968-0.475-55.947,0.152-83.902c0.573-25.564,12.815-44.235,36.358-54.82
		C1522.993,90.005,1533.715,89.248,1544.834,90.381z"/>
	<path style="fill:#A6C941;" d="M141.988,34.69c0.139-2.621,2.401-2.969,4.148-3.608c20.384-7.454,40.805-14.81,61.189-22.265
		c2.152-0.787,4.136-2.035,6.198-3.069c5.295,4.804,6.263,10.857,4.148,17.24c-2.085,6.292-6.691,10.078-13.457,11.122
		c-7.126,1.099-14.31,0.906-21.405,0.476c-9.638-0.583-14.559,5.763-13.941,13.414c-4.984,0.487-9.288,3.066-13.952,4.533
		c-2.331,0.733-4.585,1.936-7.17,1.371c2.946-4.803,3.852-9.655,0.516-14.703C146.725,36.875,144.4,35.747,141.988,34.69z"/>
	<path style="fill:#166D81;" d="M147.984,266.044c-3.273-3.122-7.136-4.344-11.666-4.097c-3.758,0.204-7.542-0.056-11.314-0.11
		c-0.189-1.849,1.44-2.128,2.519-2.594c5.705-2.464,11.465-4.8,17.217-7.153c10.746-4.396,21.507-8.756,32.249-13.164
		c6.357-2.608,12.718-5.21,19.01-7.968c1.682-0.738,4.029-1.089,4.005-3.774c3.129-0.02,6.272-0.241,9.384-0.02
		c6.552,0.466,11.119-2.176,13.781-8.159c1.853,0.219,3.483-0.442,5.194-1.072c4.536-1.669,8.714-4.347,13.64-4.932
		c-0.48,4.379,0.013,8.507,3.089,11.968c-3.933,0.135-7.121,2.318-10.6,3.756c-10.297,4.256-20.676,8.313-31.007,12.487
		c-10.635,4.296-21.269,8.595-31.869,12.975c-6.976,2.883-13.911,5.869-20.816,8.919
		C149.569,263.649,147.761,263.966,147.984,266.044z"/>
	<path style="fill:#20747C;" d="M242.003,213c-4.926,0.585-9.103,3.263-13.64,4.932c-1.711,0.63-3.341,1.291-5.194,1.072
		c1.098-4.583-0.351-8.477-3.242-11.982c6.672-2.667,13.359-5.298,20.014-8.009c10.602-4.32,21.19-8.674,31.769-13.049
		c8.769-3.626,17.523-7.288,26.267-10.971c1.639-0.69,3.509-1.315,3.026-3.766c7.331,0.737,12.524,5.095,14.027,11.771
		c-1.362-0.107-2.536,0.353-3.799,0.879c-6.824,2.839-13.726,5.489-20.571,8.277c-7.61,3.1-15.218,6.211-22.753,9.485
		c-1.492,0.649-3.802,0.694-3.904,3.197c-2.488,0.055-4.994,0.329-7.46,0.123C249.845,204.401,244.983,206.943,242.003,213z"/>
	<path style="fill:#3B876F;" d="M163.841,205.398c-4.469-0.768-8.975-0.271-13.463-0.389c-4.221-0.112-8.175-0.944-11.429-3.876
		c-0.128-2.068,1.28-2.871,2.886-3.532c3.632-1.495,7.249-3.026,10.886-4.507c10.914-4.445,21.848-8.842,32.748-13.322
		c4.851-1.994,9.647-4.122,14.446-6.241c1.01-0.446,2.269-0.811,2.089-2.369c12.331-0.263,24.662-0.272,36.994,0.003
		c-0.339,2.817-3.053,2.737-4.78,3.644c-2.585,1.358-5.496,2.083-8.217,3.201c-10.457,4.296-20.891,8.646-31.338,12.966
		c-8.932,3.694-17.888,7.332-26.787,11.103C166.282,202.754,164.31,203.237,163.841,205.398z"/>
	<path style="fill:#328173;" d="M163.841,205.398c0.469-2.161,2.441-2.644,4.035-3.319c8.899-3.771,17.855-7.409,26.787-11.103
		c10.447-4.321,20.881-8.67,31.338-12.966c2.721-1.118,5.631-1.843,8.217-3.201c1.727-0.907,4.441-0.827,4.78-3.644
		c9.668-0.268,19.336-0.273,29.004,0.001c-0.002,1.539-0.824,2.278-2.242,2.844c-6.998,2.793-13.947,5.71-20.917,8.572
		c-9.09,3.733-18.104,7.667-27.297,11.127c-10.429,3.925-20.38,8.979-30.939,12.619c-4.297,1.481-8.458,3.544-12.713,5.268
		c-0.88,0.357-1.931,0.664-2.099,1.879C170.066,209.874,167.624,206.975,163.841,205.398z"/>
	<path style="fill:#0F6886;" d="M147.984,266.044c-0.223-2.078,1.585-2.395,2.816-2.938c6.905-3.05,13.84-6.036,20.816-8.919
		c10.6-4.381,21.235-8.679,31.869-12.975c10.331-4.174,20.71-8.231,31.007-12.487c3.479-1.438,6.667-3.621,10.6-3.756
		c3.452,2.996,7.689,3.065,11.91,3.196c-0.032,2.278-2.064,2.354-3.453,2.947c-6.316,2.697-12.69,5.258-19.035,7.889
		c-8.766,3.634-17.514,7.31-26.289,10.924c-6.654,2.74-13.378,5.316-19.981,8.172c-1.937,0.838-4.688,0.847-5.241,3.74
		c-4.459-0.073-8.48,1.067-11.77,4.239c-4.861,0.086-8.872,2.739-13.184,4.445c-2.397,0.948-4.687,2.146-7.28,2.508
		C149.992,270.64,149.363,268.192,147.984,266.044z"/>
	<path style="fill:#328173;" d="M130.001,228.165c-0.105,2.489-2.4,2.524-3.888,3.182c-5.232,2.316-10.571,4.391-15.873,6.547
		c-10.755,4.375-21.525,8.716-32.266,13.125c-6.511,2.673-12.999,5.405-19.45,8.22c-1.08,0.471-2.709,0.747-2.522,2.595
		c-5.784,0.053-11.57,0.195-17.353,0.124c-3.137-0.038-6.176-0.737-8.766-2.711c0.4-1.712,1.885-2.252,3.236-2.785
		c5.778-2.279,11.513-4.653,17.239-7.064c15.05-6.337,30.247-12.327,45.41-18.394c1.412-0.565,2.235-1.304,2.232-2.841
		C108.668,227.893,119.334,227.891,130.001,228.165z"/>
	<path style="fill:#529565;" d="M50.713,206.121c5.318-3.681,11.505-5.512,17.361-8.014c10.692-4.568,21.529-8.794,32.263-13.264
		c1.825-0.76,3.674-1.34,5.563-1.851c3.57,10.232-3.585,20.869-14.758,21.93c-0.656,0.062-1.326,0.13-1.977,0.067
		c-6.195-0.598-10.875,1.847-14.22,7.012c-2.262,0.447-4.333,1.462-6.502,2.171c-3.864,1.263-7.27,3.941-11.587,3.805
		C56.482,213.158,54.791,209.021,50.713,206.121z"/>
	<path style="fill:#478E6B;" d="M56.855,217.978c4.317,0.136,7.724-2.542,11.587-3.805c2.169-0.709,4.24-1.724,6.502-2.171
		c-0.743,5.217-0.005,10.031,3.812,14.007c-7.28,3.006-14.545,6.047-21.842,9.009c-11.551,4.689-23.124,9.325-34.687,13.984
		c-2.215-12.042,5.052-20.893,17.247-21.004c0.829-0.008,1.658,0,2.488-0.001C51.067,227.984,53.682,226.225,56.855,217.978z"/>
	<path style="fill:#3B876F;" d="M22.228,249.002c11.563-4.659,23.136-9.295,34.687-13.984c7.297-2.962,14.562-6.004,21.842-9.009
		c2.767,1.525,5.759,2.003,8.881,2.003c3.455,0.001,6.91,0.098,10.364,0.153c0.003,1.536-0.821,2.276-2.232,2.841
		c-15.163,6.067-30.36,12.057-45.41,18.394c-5.726,2.411-11.46,4.785-17.239,7.064c-1.351,0.533-2.836,1.073-3.236,2.785
		C25.508,257.196,23.24,253.568,22.228,249.002z"/>
	<path style="fill:#166D81;" d="M264.002,204.836c0.103-2.503,2.412-2.548,3.904-3.197c7.535-3.275,15.143-6.385,22.753-9.485
		c6.845-2.789,13.747-5.438,20.571-8.277c1.263-0.526,2.438-0.986,3.799-0.879c2.811,6.922,0.497,14.69-5.719,18.765
		c-2.958,1.939-6.235,3.213-9.828,3.211C287.656,204.968,275.829,204.888,264.002,204.836z"/>
	<path style="fill:#529565;" d="M133.092,191.996c-3.802-9.375,5.49-20.938,15.096-20.954c11.268-0.018,22.537,0.073,33.806,0.117
		c-0.337,2.801-3,2.896-4.746,3.636c-10.818,4.581-21.718,8.972-32.644,13.294C140.841,189.578,137.298,191.787,133.092,191.996z"/>
	<path style="fill:#478E6B;" d="M133.092,191.996c4.205-0.209,7.749-2.418,11.512-3.907c10.925-4.322,21.826-8.713,32.644-13.294
		c1.746-0.739,4.409-0.834,4.746-3.636c6.67-0.262,13.341-0.273,20.011,0.002c0.18,1.558-1.079,1.923-2.089,2.369
		c-4.799,2.118-9.595,4.247-14.446,6.241c-10.9,4.481-21.834,8.877-32.748,13.322c-3.637,1.481-7.255,3.012-10.886,4.507
		c-1.606,0.661-3.014,1.464-2.886,3.532C135.656,198.947,133.725,195.887,133.092,191.996z"/>
	<path style="fill:#A6C941;" d="M52.873,94.334c-3.547-2.438-7.504-3.222-11.761-3.223c-8.259-0.003-14.912-6.87-15.925-14.387
		c-1.06-7.862,3.52-15.382,11.018-18.087c2.812-1.014,5.779-1.362,8.78-1.36c13.961,0.009,27.922,0.043,41.882-0.027
		c2.524-0.013,4.997,0.349,7.377,0.921c4.702,1.131,8.488,3.72,10.193,8.486c0.756,2.113,2.841,3.766,2.261,6.347
		c-3.82,0.251-7.294,1.88-10.764,3.172C83.23,80.903,70.542,85.667,57.769,90.21C55.875,90.883,52.955,91.155,52.873,94.334z"/>
	<path style="fill:#20747C;" d="M200.004,227.183c0.025,2.684-2.323,3.036-4.005,3.774c-6.292,2.759-12.653,5.36-19.01,7.968
		c-10.742,4.408-21.503,8.768-32.249,13.164c-5.752,2.353-11.512,4.689-17.217,7.153c-1.08,0.466-2.709,0.745-2.519,2.594
		c-11.334,0.277-22.669,0.269-34.003-0.002c0-1.546,0.829-2.278,2.252-2.847c7.02-2.803,13.985-5.743,20.98-8.608
		c11.101-4.546,22.219-9.049,33.314-13.609c13.224-5.435,26.435-10.902,39.636-16.392c0.98-0.408,1.945-0.322,2.929-0.382
		C192.557,223.564,195.41,226.572,200.004,227.183z"/>
</g>
</svg>
