<?xml version="1.0" encoding="iso-8859-1"?>
<!-- Generator: Adobe Illustrator 27.0.0, SVG Export Plug-In . SVG Version: 6.00 Build 0)  -->
<svg version="1.1" id="Layer_1" xmlns="http://www.w3.org/2000/svg" xmlns:xlink="http://www.w3.org/1999/xlink" x="0px" y="0px"
	 viewBox="0 0 1581 244" style="enable-background:new 0 0 1581 244;" xml:space="preserve">
<g>
	<path style="fill:#0C8157;" d="M0,240c1.879-1.779,2.175-4.322,2.985-6.561c8.413-23.253,16.717-46.546,25.071-69.82
		c0.473-1.319,0.749-2.825,2.452-3.921c0.957,3.04,1.135,5.784,1.408,8.532c1.058,10.648,3.438,20.953,8.072,30.673
		c8.496,17.822,25.072,28.844,45.803,27.269c12.822-0.974,22.953-6.434,29.546-17.602c6.488-10.99,4.19-22.293-5.82-30.176
		c-3.945-3.106-8.433-5.296-12.95-7.422c-9.461-4.453-19.491-7.62-28.606-12.871c-8.151-4.695-15.751-9.989-21.167-17.875
		c-5.831-8.49-7.618-17.929-6.337-28.036c2.887-22.781,16.179-38.107,35.526-48.809c13.125-7.261,27.43-10.113,42.349-8.993
		c13.941,1.046,27.061,5.037,38.941,12.863c5.107-1.694,9.737-4.302,14.575-6.427c4.789-2.103,9.303-4.898,15.367-6.415
		c-8.188,22.969-16.105,45.177-24.073,67.531c-2.229-1.015-1.881-2.64-2.106-4.003c-2.129-12.929-6.836-24.66-16.32-34.018
		c-10.876-10.732-23.988-14.901-39.158-13.155c-8.408,0.968-15.668,4.237-21.916,9.809c-6.789,6.055-9.117,13.795-7.626,22.587
		c1.236,7.289,6.41,11.862,12.194,15.711c6.388,4.252,13.422,7.281,20.479,10.235c8.281,3.467,16.437,7.192,24.139,11.838
		c11.474,6.92,20.055,16.155,21.919,29.913c1.65,12.18-0.538,23.9-6.691,34.665c-11.181,19.559-28.229,31.126-50.096,35.341
		c-23.407,4.511-45.186-0.542-65.925-12.942c-6.377,3.079-13.082,6.32-19.791,9.552C8.206,239.417,4.258,241.553,0,243
		C0,242,0,241,0,240z"/>
	<path style="fill:#251F21;" d="M1581,180c-1.818,2.697-1.432,5.908-1.959,8.879c-2.246,12.68-5.857,24.819-13.041,35.689
		c-3.158,4.78-7.094,8.806-11.603,12.275c-11.569,8.903-29.946,8.441-41.187-1.017c-8.694-7.315-14.373-16.519-18.042-27.003
		c-6.408-18.312-8.237-37.183-6.426-56.501c1.173-12.52,3.921-24.558,9.632-35.784c4.034-7.929,9.312-14.92,16.669-20.169
		c13.497-9.63,29.745-8.289,42.138,2.584c10.352,9.083,16.126,20.945,19.721,33.961c1.588,5.748,2.93,11.589,3.132,17.607
		c0.024,0.7,0.173,1.292,0.964,1.478c0,0.667,0,1.333,0,2c-0.719,0.193-1.054,0.685-1.052,1.405
		c0.013,5.707,0.033,11.413,0.051,17.12c0.002,0.716,0.316,1.222,1.001,1.475C1581,176,1581,178,1581,180z M1547.951,165.996
		c0-3.661,0.125-7.327-0.034-10.98c-0.174-3.984-0.431-7.982-0.974-11.929c-0.927-6.728-1.863-13.476-4.794-19.734
		c-0.779-1.663-1.577-3.277-2.912-4.589c-3.179-3.124-6.457-3.138-9.551-0.007c-1.794,1.815-2.808,4.071-3.725,6.4
		c-2.21,5.608-3.219,11.522-3.843,17.434c-1.874,17.763-1.678,35.533,0.908,53.228c0.815,5.575,1.974,11.12,4.678,16.163
		c1.448,2.7,3.248,5.097,6.768,5.076c3.5-0.022,5.282-2.423,6.774-5.098c1.295-2.323,2.142-4.845,2.811-7.411
		C1547.353,191.902,1548.082,178.987,1547.951,165.996z"/>
	<path style="fill:#251F21;" d="M1007,244c-12.104-5.172-16.975-15.737-19.51-27.472c-3.022-13.991-2.688-28.123,1.084-42.01
		c3.458-12.729,11.455-21.948,22.893-28.243c6.25-3.44,12.74-6.41,19.326-9.155c1.523-0.635,3.132-1.085,4.658-2.601
		c-0.917-4.112-2.949-7.773-6.105-10.802c-3.517-3.375-7.581-3.57-12.018-2.039c-5.66,1.954-9.283,6.288-12.91,10.65
		c-0.942,1.133-1.783,2.35-3.003,3.97c-3.004-9.055-5.846-17.623-8.724-26.299c10.49-13.335,23.118-21.766,40.708-19.84
		c12.936,1.416,21.514,8.777,26.705,20.438c3.343,7.51,4.952,15.44,5.91,23.562c1.548,13.125,0.85,26.295,0.967,39.448
		c0.099,11.165,0.021,22.331,0.021,33.497c0,10.83,0.908,21.588,2.646,32.551c-11.012,0-21.954,0-33.15,0
		c-2.091-4.487-1.094-9.543-1.867-14.909c-8.516,6.989-14.683,16.39-25.631,19.254C1008.333,244,1007.667,244,1007,244z
		 M1022.806,209.013c3.078-0.629,4.867-2.705,6.33-5.225c1.344-2.315,2.193-4.818,2.929-7.366
		c3.365-11.643,3.72-23.612,3.811-35.605c0.009-1.227-0.138-2.454-0.229-3.954c-9.447,5.304-16.707,11.638-19.123,22.306
		c-1.606,7.089-2.384,14.131-0.443,21.202C1017.094,204.059,1018.553,207.664,1022.806,209.013z"/>
	<path style="fill:#251F21;" d="M1118,244c-0.169-0.262-0.314-0.733-0.51-0.756c-15.463-1.783-25.517-11.033-32.931-23.88
		c-4.955-8.586-7.725-17.972-9.405-27.65c-1.681-9.687-2.458-19.5-1.876-29.33c1.031-17.387,4.103-34.268,13.504-49.388
		c3.995-6.424,8.804-12.128,15.158-16.335c15.046-9.96,29.884-8.827,43.312,3.062c0.99,0.876,1.937,1.799,2.812,2.615
		c-0.357,4.484-6.335,25.566-8.411,29.699c-2.02-1.058-3.976-2.276-6.077-3.147c-7.345-3.046-14.651-1.332-19.183,5.624
		c-3.537,5.429-5.302,11.495-6.073,17.748c-1.494,12.108-1.509,24.232,1.696,36.148c0.952,3.537,2.313,6.96,4.484,9.937
		c6.6,9.054,12.463,8.966,19.797,5.778c1.502-0.653,2.943-1.448,4.971-2.454c2.661,10.217,5.267,20.223,7.967,30.588
		c-6.021,5.767-12.977,9.533-21.287,10.753c-1.019,0.15-2.416-0.668-2.948,0.987C1121.333,244,1119.667,244,1118,244z"/>
	<path style="fill:#0F8158;" d="M886,0c7.549,5.952,11.09,14.159,13.198,23.225c2.967,12.758,2.633,25.402-1.199,37.916
		c-1.564,5.105-3.823,9.883-7.905,13.898c-4.763-2.094-7.311-6.196-9.629-10.392c-3.67-6.643-5.405-13.954-6.132-21.408
		c-1.129-11.563-0.044-22.94,4.691-33.715C880.461,6.252,882.329,3.169,884,0C884.667,0,885.333,0,886,0z"/>
	<path style="fill:#6D6666;" d="M1581,174c-0.686-0.253-0.999-0.759-1.001-1.475c-0.018-5.707-0.038-11.413-0.051-17.12
		c-0.002-0.72,0.334-1.212,1.052-1.405C1581,160.667,1581,167.333,1581,174z"/>
	<path style="fill:#D3D0CF;" d="M1245.035,243.159c-0.034,0.279-0.046,0.56-0.035,0.841c-3,0-6,0-9,0
		c0-0.277-0.013-0.554-0.037-0.831C1238.987,243.166,1242.011,243.162,1245.035,243.159z"/>
	<path style="fill:#241F20;" d="M797.502,168.3c6.626-37.4,14.321-74.389,22.405-111.365c15.181,0,29.936,0,44.923,0
		c0,60.937,0,121.682,0,182.706c-11.127,0-22.192,0-33.683,0c0-41.465,0-82.876,0-124.287
		c-8.677,41.533-17.642,82.91-27.097,124.353c-7.138,0-14.096,0-21.584,0c-9.8-41.444-18.815-83.207-27.266-125.182
		c0,41.574,0,83.149,0,125.058c-9.107,0-17.83,0-26.856,0c0-60.695,0-121.422,0-182.495c15.179,0,30.404,0,46.056,0
		C782.759,93.948,790.536,131.071,797.502,168.3z"/>
	<path style="fill:#241F20;" d="M1377.783,203.46c0-15.821,0-31.296,0-47.115c11.395,0,22.592,0,33.985,0
		c0,25.699,0,51.299,0,77.139c-13.355,6.783-27.449,10.851-42.559,9.304c-11.697-1.197-21.931-6.335-30.742-14.153
		c-12.301-10.914-20.163-24.634-24.578-40.288c-8.182-29.013-8.741-58.044,1.194-86.807c4.917-14.236,12.778-26.612,24.735-36.106
		c9.406-7.469,20.241-11.643,32.095-12.01c11.103-0.343,21.53,2.989,31.322,9.023c-2.857,10.938-5.651,21.631-8.473,32.431
		c-5.528-1.89-10.885-2.681-16.358-3.099c-8.903-0.681-15.849,2.881-21.526,9.36c-5.257,6-8.444,13.113-10.205,20.807
		c-4.579,20.004-4.449,39.872,2.36,59.43c2.329,6.688,5.938,12.672,11.186,17.464
		C1365.038,203.241,1370.398,206.367,1377.783,203.46z"/>
	<path style="fill:#252021;" d="M1245.035,243.159c-3.024,0.004-6.048,0.007-9.072,0.011c-6.335-0.834-11.649-3.796-16.199-8.107
		c-7.891-7.477-13.036-16.764-16.747-26.829c-6.834-18.536-9.125-37.667-7.233-57.357c1.383-14.397,4.83-28.132,12.329-40.602
		c5.957-9.907,14.018-17.258,25.81-19.558c11.603-2.263,21.376,0.868,28.983,10.057c6.174,7.458,9.599,16.258,11.814,25.533
		c3.627,15.185,3.991,30.634,3.254,46.143c-0.014,0.291-0.265,0.571-0.618,1.29c-7.736,0-15.691,0-23.647,0
		c-7.977,0-15.954,0-24.43,0c0.243,10.189,1.229,19.83,7.139,28.169c4.273,6.028,10.488,7.884,17.659,5.783
		c4.207-1.233,7.922-3.379,11.239-6.232c1.227-1.056,2.466-2.098,4.002-3.403c2.999,10.275,5.86,20.079,8.746,29.969
		C1268.431,236.404,1257.811,242.112,1245.035,243.159z M1250.967,148.752c0-3.579,0.208-6.718-0.051-9.818
		c-0.358-4.281-0.605-8.58-1.63-12.801c-0.671-2.766-1.415-5.433-3.054-7.794c-3.593-5.173-9.198-5.088-12.434,0.234
		c-0.683,1.124-1.301,2.32-1.731,3.559c-2.549,7.328-2.431,15.004-2.761,22.608c-0.054,1.243,0.24,2.606,1.045,3.779
		c0.474,0.077,0.957,0.222,1.441,0.223C1237.933,148.757,1244.073,148.752,1250.967,148.752z"/>
	<path style="fill:#0C8157;" d="M281.865,195.47c0.033-16.931,5.998-31.812,16.05-45.167c14.319-19.025,32.662-32.132,56.326-36.664
		c13.017-2.493,25.812-1.463,37.671,5.341c12.085,6.934,18.704,17.537,21.124,31.036c2.74,15.286-0.892,29.456-8.113,42.744
		c-13.937,25.648-35.07,42.226-63.734,48.496c-9.143,2-18.506,1.753-27.632-0.926c-18.347-5.386-30.816-21.277-31.683-40.365
		C281.806,198.47,281.865,196.968,281.865,195.47z M313.563,204.62c0.139,2.706,0.136,5.211,0.419,7.684
		c1.008,8.831,7.15,14.449,15.987,14.656c7.289,0.171,13.59-2.565,19.357-6.781c6.567-4.802,11.343-11.153,15.528-18.006
		c7.07-11.579,11.658-24.179,14.881-37.271c1.546-6.278,2.64-12.696,2.18-19.243c-0.949-13.515-9.559-19.818-22.833-16.927
		c-7.456,1.624-13.357,5.718-18.566,11.001c-6.01,6.096-10.605,13.204-14.271,20.897
		C319.566,174.645,314.631,189.176,313.563,204.62z"/>
	<path style="fill:#0F8158;" d="M601.348,232.943c-7.343,3.356-14.414,6.588-22.615,10.337
		c6.965-20.054,13.684-39.074,20.645-58.007c0.406,0.044,0.812,0.087,1.219,0.131c0.452,3.164,0.882,6.331,1.359,9.491
		c1.304,8.632,3.837,16.772,8.983,24.006c10.734,15.088,34.959,15.69,45.733,5.24c2.171-2.106,4.131-4.332,5.232-7.198
		c2.606-6.781,0.832-13.342-4.853-17.875c-5.142-4.1-11.181-6.508-17.191-8.918c-6.484-2.601-12.893-5.324-18.714-9.244
		c-4.886-3.29-9.248-7.166-11.947-12.484c-5.581-10.995-3.8-21.737,2.195-31.828c7.751-13.047,19.779-20.408,34.369-23.506
		c15.215-3.23,29.713-0.731,43.385,6.648c0.872,0.471,1.769,0.895,2.911,1.47c6.316-2.852,12.754-5.76,20.046-9.053
		c-1.343,6.285-3.568,11.205-5.283,16.27c-1.755,5.185-3.701,10.306-5.62,15.434c-1.871,5-2.956,10.345-5.94,15.179
		c-2.1-1.721-1.853-3.669-2.232-5.388c-2.809-12.732-9.23-22.798-21.613-28.026c-9.666-4.081-19.438-3.751-28.991,0.688
		c-3.078,1.43-5.583,3.664-7.633,6.32c-4.37,5.66-5.055,15.342,3.262,21.634c3.878,2.934,8.243,4.969,12.678,6.878
		c7.168,3.085,14.445,5.94,21.222,9.865c4.789,2.774,9.264,5.993,12.624,10.431c7.869,10.394,7.711,21.597,2.55,32.95
		c-5.32,11.702-14.823,19.063-26.535,23.549c-18.871,7.228-37.393,5.493-55.482-2.993c-0.6-0.282-1.161-0.645-1.747-0.958
		C602.779,233.673,602.187,233.376,601.348,232.943z"/>
	<path style="fill:#272223;" d="M925.425,93.494c10.563,0,21.002,0,32.123,0c0.4,5.53,0.138,11.125,0.185,16.701
		c0.047,5.464,0.01,10.928,0.794,16.433c1.179-5.476,2.305-10.965,3.554-16.425c1.076-4.706,2.709-9.237,5.158-13.408
		c4.583-7.804,11.773-9.079,18.845-3.408c1.032,0.827,2.029,1.733,2.887,2.735c1.398,1.631,3.025,3.108,3.97,5.41
		c-1.63,6.888-3.31,13.973-4.985,21.06c-1.637,6.928-3.269,13.856-5.036,21.347c-1.24-0.669-2.132-1.235-3.09-1.652
		c-6.59-2.869-13.141-0.798-16.738,5.449c-3.473,6.032-4.913,12.735-5.072,19.564c-0.317,13.651-0.229,27.312-0.272,40.969
		c-0.032,10.307-0.006,20.615-0.006,31.288c-10.827,0-21.389,0-32.318,0C925.425,191.066,925.425,142.4,925.425,93.494z"/>
	<path style="fill:#0E8158;" d="M273.316,171.39c-0.358-6.171-0.212-11.492-1.223-16.75c-1.114-5.795-2.98-11.253-6.331-16.113
		c-6.42-9.311-16.532-12.59-27.155-9.034c-9.919,3.321-17.024,10.217-23.356,18.069c-10.879,13.488-16.393,29.144-17.996,46.239
		c-0.549,5.85,0.387,11.591,2.499,17.132c3.312,8.688,9.81,13.133,18.797,14.202c10.355,1.232,19.656-2.24,28.696-6.719
		c7.914-3.921,15.296-8.696,22.135-14.147c1.675,1.099,0.79,2.233,0.327,3.148c-1.967,3.893-4.597,7.343-7.641,10.44
		c-15.53,15.801-34.058,24.755-56.552,24.021c-23.595-0.769-41.855-19.53-42.529-43.153c-0.474-16.597,4.926-31.373,13.757-45.055
		c11.654-18.054,27.381-31.11,47.887-38.072c9.61-3.263,19.428-4.459,29.474-2.454c4.784,0.955,9.126,3.048,13.208,5.679
		c1.67,1.076,3.287,2.235,5.113,3.483c7.575-2.719,14.471-7.148,22.246-9.664C294.761,116.697,276.615,167.12,273.316,171.39z"/>
	<path style="fill:#221D1E;" d="M1186.872,239.794c-10.658,0-20.948,0-31.579,0c0-64.106,0-128.135,0-192.438
		c10.368,0,20.781,0,31.579,0C1186.872,111.332,1186.872,175.35,1186.872,239.794z"/>
	<path style="fill:#241F20;" d="M1425.215,93.483c10.564,0,20.973,0,31.71,0c0,11.801,0,23.408,0,35.014
		c2.723-6.236,3.263-12.922,5.038-19.311c1.205-4.336,2.637-8.552,4.961-12.421c4.797-7.986,12.107-9.147,19.234-3.042
		c2.412,2.066,4.465,4.455,6.409,7.632c-3.266,13.856-6.603,28.01-9.927,42.111c-1.874,0.111-2.937-1.168-4.338-1.648
		c-6.002-2.057-11.763-0.146-15.189,5.23c-2.918,4.58-4.304,9.742-4.96,15.007c-0.615,4.938-1.117,9.907-1.088,14.93
		c0.11,19.155,0.047,38.311,0.049,57.466c0,1.639,0,3.278,0,5.192c-10.717,0-21.129,0-31.899,0
		C1425.215,191.034,1425.215,142.369,1425.215,93.483z"/>
	<path style="fill:#0E8158;" d="M441.777,130.935c-7.77,0-15.674,0-23.541,0c-0.187-2.382,1.358-2.993,2.604-3.705
		c21.773-12.452,43.561-24.876,65.357-37.289c1.082-0.616,2.105-1.699,4.169-0.631c-2.817,7.994-5.65,16.035-8.587,24.371
		c3.544,1.244,6.997,0.48,10.361,0.616c3.326,0.134,6.661,0.029,9.992,0.029c3.481,0,6.962,0,11.03,0
		c-1.335,5.998-3.638,11.183-5.571,16.701c-10.707,0-21.167,0-31.9,0c-3.203,8.881-6.353,17.588-9.485,26.303
		c-4.992,13.89-9.991,27.778-14.944,41.682c-1.113,3.125-2.164,6.294-2.246,9.662c-0.158,6.504,2.908,11.142,8.99,13.475
		c5.075,1.947,10.27,2.368,15.644,1.271c7.107-1.451,14.053-3.417,20.584-6.262c1.399,1.615,0.274,2.51-0.343,3.375
		c-4.671,6.557-11.136,10.924-18.214,14.396c-10.005,4.907-20.629,7.439-31.796,7.025c-8.4-0.311-16.065-3.04-22.101-9.044
		c-7.315-7.277-8.58-16.351-6.055-25.904c3.054-11.557,7.769-22.581,11.693-33.861c4.468-12.846,9.129-25.625,13.71-38.432
		C441.51,133.638,442.201,132.634,441.777,130.935z"/>
	<path style="fill:#0E8158;" d="M579.216,88.899c-2.868,8.196-5.735,16.393-8.82,25.211c12.714,0,24.935,0,37.8,0
		c-1.41,6.075-3.801,11.119-5.498,16.714c-12.644,0-25.259,0-38.204,0c-2.78,7.63-5.516,15.054-8.192,22.5
		c-5.499,15.299-11.002,30.596-16.423,45.922c-1.601,4.525-3.066,9.092-2.19,14.064c0.911,5.174,3.941,8.307,8.867,9.666
		c4.214,1.162,8.422,1.397,12.785,0.297c6.407-1.615,12.818-3.149,18.489-6.177c1.782,1.446,0.695,2.429,0.103,3.312
		c-3.887,5.802-9.196,10.009-15.22,13.393c-10.23,5.747-21.169,8.943-32.932,7.99c-10.546-0.854-19.156-5.396-24.101-15.267
		c-3.296-6.58-3.244-13.472-1.11-20.385c3.867-12.527,8.662-24.731,13.046-37.077c4.437-12.495,8.91-24.977,13.538-37.941
		c-5.91,0-11.491,0-16.945,0c-0.836-2.685,1.069-3.241,2.376-4.072c9.114-5.801,18.26-11.552,27.391-17.327
		c9.975-6.309,19.942-12.629,29.916-18.939c1.383-0.875,2.786-1.719,4.18-2.578C578.454,88.436,578.835,88.668,579.216,88.899z"/>
	<path style="fill:#282324;" d="M880.562,93.473c10.406,0,20.85,0,31.281,0c1.079,3.624,1.554,134.1,0.489,146.333
		c-5.15,0.273-10.409,0.077-15.655,0.112c-5.317,0.035-10.635,0.008-15.903,0.008C879.842,236.157,879.655,99.219,880.562,93.473z"
		/>
	<path style="fill:#168159;" d="M946.915,52.866c0.493,2.678-0.788,4.619-2.043,6.571c-3.423,5.325-8.272,9.179-13.617,12.262
		c-7.701,4.441-16.064,7.226-24.983,7.923c-3.773,0.295-7.6,0.233-11.208-1.689c-0.44-3.652,1.712-6.1,3.587-8.559
		c4.025-5.278,9.442-8.824,15.274-11.802c7.8-3.982,15.976-6.492,24.826-6.466C941.61,51.113,944.289,51.741,946.915,52.866z"/>
	<path style="fill:#168159;" d="M925.264,19.262c5.43,11.93-4.856,31.391-17.364,32.853
		C901.944,41.283,912.239,21.805,925.264,19.262z"/>
	<path style="fill:#282324;" d="M1301.763,173.617c-5.672,0-10.801,0-16.212,0c-0.968-4.136-0.333-8.263-0.452-12.337
		c-0.116-3.965-0.025-7.936-0.025-12.218c5.684,0,11.062,0,16.689,0C1301.763,157.124,1301.763,165.194,1301.763,173.617z"/>
</g>
</svg>
