<?xml version="1.0" encoding="iso-8859-1"?>
<!-- Generator: Adobe Illustrator 27.0.0, SVG Export Plug-In . SVG Version: 6.00 Build 0)  -->
<svg version="1.1" id="Layer_1" xmlns="http://www.w3.org/2000/svg" xmlns:xlink="http://www.w3.org/1999/xlink" x="0px" y="0px"
	 viewBox="0 0 1501 297" style="enable-background:new 0 0 1501 297;" xml:space="preserve">
<g>
	<path style="fill:#050505;" d="M1087,297c-2.998-2.121-6.622-1.387-9.889-1.82c-18.14-2.404-35.162-7.981-51.145-16.816
		c-32.644-18.045-55.229-44.74-68.111-79.649c-4.379-11.866-6.955-24.153-7.957-36.814c-3.115-39.352,7.265-74.694,31.886-105.492
		c21.262-26.596,48.896-43.575,82.066-51.287c25.12-5.84,50.343-5.49,74.831,2.452c51.185,16.601,85.665,50.478,100.088,102.698
		c12.19,44.136,4.48,85.558-21.606,123.279c-14.883,21.522-34.559,37.442-58.085,48.917c-14.51,7.077-29.722,11.192-45.604,13.232
		c-2.633,0.338-5.319,0.26-7.982,0.357c-0.7,0.025-1.293,0.157-1.492,0.944c-0.667,0-1.333,0-2,0
		c-0.194-0.728-0.709-0.997-1.418-1.001c-3.241-0.017-6.481-0.037-9.722-0.056c-0.822-0.005-1.629,0.019-1.86,1.056
		C1088.333,297,1087.667,297,1087,297z M1001.737,148.495c-0.702,50.49,40.661,93.825,92.666,94.634
		c53.247,0.828,95.077-41.646,95.648-93.082c0.568-51.195-40.016-95.708-95.447-95.332
		C1045.47,55.048,1001.598,95.255,1001.737,148.495z"/>
	<path style="fill:#050504;" d="M415,0c0.381,1.03,1.279,0.85,2.074,0.866c13.475,0.27,26.369,3.685,38.727,8.531
		c49.907,19.573,81.62,55.464,93.121,107.917c9.878,45.05-0.443,86.108-28.797,122.318c-19.076,24.362-43.905,40.717-73.576,49.7
		c-17.918,5.424-36.265,7.056-54.768,5.395c-30.057-2.698-56.988-13.698-80.313-32.902c-24.039-19.791-40.272-44.826-48.642-74.863
		c-4.32-15.503-5.923-31.291-4.953-47.383c1.895-31.43,12.188-59.679,31.991-84.222c21.282-26.377,48.575-43.399,81.544-51.312
		c6.312-1.515,12.688-2.586,19.164-3.042C391.277,0.955,391.858,0.811,392,0c1.333,0,2.667,0,4,0c3.189,1.393,15.002,1.393,18,0
		C414.333,0,414.667,0,415,0z M309.892,147.844c-0.584,47.734,37.943,93.804,93.641,94.109
		c54.105,0.297,94.437-42.644,94.681-93.485c0.243-50.543-39.713-95.652-95.96-95.017
		C349.686,54.044,309.588,97.393,309.892,147.844z"/>
	<path style="fill:#050505;" d="M1392.952,296.108c-35.095-2.722-63.671-18.054-87.131-44.861
		c14.426-9.713,28.444-19.152,42.454-28.585c1.939,0.387,3.178,1.794,4.643,2.828c15.644,11.04,32.859,17.361,52.183,16.446
		c12.91-0.612,24.934-4.171,34.28-13.797c5.606-5.774,8.399-12.606,6.796-20.868c-0.838-4.321-3.262-7.538-6.365-10.399
		c-5.816-5.362-12.665-9.061-19.819-12.258c-11.206-5.008-22.84-8.848-34.492-12.649c-15.49-5.052-30.483-11.262-44.254-20.078
		c-12.644-8.094-23.43-18.054-30.542-31.545c-10.956-20.784-10.937-42.085-2.435-63.506c7.892-19.885,22.267-33.975,41.092-43.701
		c18.302-9.456,37.894-13.21,58.313-11.992c34.072,2.033,62.737,15.807,85.922,40.896c0.9,0.974,1.678,2.063,2.474,3.127
		c0.187,0.249,0.219,0.615,0.506,1.484c-13.719,9.247-27.573,18.584-41.348,27.869c-1.609,0.022-2.564-0.956-3.596-1.749
		c-14.428-11.088-30.988-16.679-48.92-17.528c-12.822-0.607-25.147,2.21-35.505,10.593c-6.177,4.999-10.287,11.174-10.664,19.449
		c-0.25,5.489,1.51,10.063,5.281,14.008c4.564,4.774,10.238,7.857,15.969,10.913c11.475,6.12,23.834,9.88,36.133,13.856
		c16.585,5.362,32.779,11.7,47.596,21.052c8.207,5.18,15.513,11.512,21.887,18.83c9.166,10.523,14.894,22.67,16.604,36.604
		c0.085,0.692,0.183,1.291,0.987,1.456c0,6.333,0,12.667,0,19c-1.111,0.231-0.927,1.147-1.058,1.932
		c-3.478,20.907-13.68,37.82-30.267,50.944c-18.057,14.288-38.79,21.165-61.609,22.278
		C1403.028,296.139,1397.99,296.124,1392.952,296.108z"/>
	<path style="fill:#050505;" d="M109,0c0.48,1.309,1.634,0.826,2.538,0.917c33.104,3.31,60.527,17.588,82.368,42.644
		c0.431,0.495,0.773,1.067,1.498,2.08c-14.089,9.498-28.077,18.929-41.955,28.284c-1.279-0.012-1.977-0.82-2.741-1.411
		c-11.654-9.016-24.781-14.877-39.291-17.033c-15.451-2.295-30.526-1.21-43.913,8.201c-5.598,3.935-9.818,8.906-11.732,15.614
		c-2.199,7.704-0.707,14.462,5.203,20.04c5.998,5.661,13.149,9.484,20.595,12.848c11.498,5.194,23.558,8.809,35.459,12.896
		c18.082,6.209,35.812,13.306,51.102,25.155c14.139,10.957,24.932,24.361,29.007,42.274c5.68,24.969,0.388,47.576-15.644,67.352
		c-14.804,18.263-34.317,29.065-57.368,33.285c-46.561,8.523-85.478-5.593-117.386-40.093c-0.45-0.487-0.841-1.032-1.227-1.572
		c-0.19-0.266-0.305-0.585-0.612-1.194c13.962-9.463,27.957-18.949,42.102-28.536c2.956,2.032,5.736,4.107,8.67,5.934
		c15.809,9.842,32.906,15.011,51.629,13.245c9.507-0.897,18.581-3.616,26.306-9.6c6.861-5.315,11.512-11.878,11.518-21.037
		c0.004-5.543-2.277-9.938-6.181-13.63c-5.995-5.671-13.159-9.474-20.594-12.864c-14.054-6.409-28.955-10.469-43.405-15.778
		c-15.636-5.745-30.649-12.694-43.873-23.035C14.819,132.273,4.349,116.098,1.185,95.456C0.857,93.311,2.173,90.807,0,89
		c0-2,0-4,0-6c1.373-0.385,0.936-1.544,1.006-2.446c1.076-13.97,5.215-26.998,13.172-38.501C30.037,19.128,52.452,6.64,79.612,1.945
		C82.745,1.403,86.135,1.883,89,0c0.667,0,1.333,0,2,0c0.304,0.957,1.062,1.046,1.909,1.041c3.717-0.019,7.435-0.025,11.152-0.018
		C104.906,1.025,105.665,0.932,106,0C107,0,108,0,109,0z"/>
	<path style="fill:#4A4847;" d="M414,0c-2.998,1.393-14.811,1.393-18,0C402,0,408,0,414,0z"/>
	<path style="fill:#484645;" d="M106,0c-0.335,0.932-1.094,1.025-1.939,1.023c-3.717-0.007-7.435-0.001-11.152,0.018
		C92.062,1.046,91.304,0.957,91,0C96,0,101,0,106,0z"/>
	<path style="fill:#B2B0AF;" d="M1408.066,296.155c-0.065,0.278-0.087,0.56-0.066,0.845c-5,0-10,0-15,0
		c0.091-0.303,0.075-0.6-0.048-0.892C1397.99,296.124,1403.028,296.139,1408.066,296.155z"/>
	<path style="fill:#827F7F;" d="M1089,297c0.231-1.037,1.037-1.061,1.86-1.056c3.241,0.019,6.481,0.039,9.722,0.056
		c0.709,0.004,1.224,0.273,1.418,1.001C1097.667,297,1093.333,297,1089,297z"/>
	<path style="fill:#050505;" d="M813.178,11.227c4.383-0.622,44.895-0.785,52.566-0.259c0,93.652,0,187.322,0,281.895
		c-59.18-55.285-117.778-110.027-177.081-165.427c0,52.634,0,104.354,0,156.319c-17.86,0-35.255,0-52.802,0
		c0-93.333,0-186.432,0-280.615c15.454,13.975,29.817,27.892,44.485,41.472c14.792,13.695,29.48,27.502,44.197,41.277
		c14.595,13.661,29.154,27.362,43.757,41.014c14.688,13.731,29.411,27.423,44.878,41.838
		C813.178,115.548,813.178,63.351,813.178,11.227z"/>
</g>
</svg>
