<?xml version="1.0" encoding="iso-8859-1"?>
<!-- Generator: Adobe Illustrator 27.0.0, SVG Export Plug-In . SVG Version: 6.00 Build 0)  -->
<svg version="1.1" id="Layer_1" xmlns="http://www.w3.org/2000/svg" xmlns:xlink="http://www.w3.org/1999/xlink" x="0px" y="0px"
	 viewBox="0 0 988 992" style="enable-background:new 0 0 988 992;" xml:space="preserve">
<g>
	<path style="fill:#040404;" d="M0.901,448.913c3.511-17.145,11.392-31.447,26.833-40.681c5.072-3.033,10.613-4.304,16.642-4.296
		c75.653,0.095,151.308,0.334,226.96-0.005c99.48-0.446,198.958,0.334,298.436-0.072c9.303-0.038,16.85,3.003,23.742,8.579
		c12.139,9.82,18.242,22.928,20.451,38.114c1.062,7.298,0.622,14.624,0.63,21.951c0.029,25.659,0.176,51.318,0.269,76.977
		c0.011,2.999,0.028,6.001-0.078,8.998c-0.124,3.513-1.245,4.761-4.656,5.317c-0.979,0.159-1.993,0.131-2.992,0.13
		c-27.162-0.051-54.323-0.108-81.485-0.175c-0.974-0.002-1.947-0.124-3.087-0.201c-0.74-1.896-0.44-3.736-0.443-5.509
		c-0.036-21.496,0.081-42.993-0.097-64.488c-0.08-9.717-4.634-17.111-13.061-22.039c-1.897-1.109-3.94-1.698-6.172-1.664
		c-2.164,0.032-4.33-0.084-6.495-0.084c-112.98-0.003-225.959,0-338.939,0.002c-16.33,0-32.661-0.01-48.991,0
		c-1.665,0.001-3.338,0.028-4.992,0.193c-5.037,0.503-8.017,2.903-9.095,7.749c-0.685,3.079-0.756,6.257,0.326,9.351
		c1.958,5.598,3.534,6.907,9.379,6.942c21.495,0.126,42.991,0.117,64.486,0.256c27.824,0.18,55.649,0.435,83.471-0.186
		c16.206-0.362,28.35,6.869,37.475,19.83c7.914,11.241,11.49,23.791,11.404,37.488c-0.092,14.662-0.297,29.32-0.087,43.987
		c0.164,11.45-2.148,22.61-8.394,32.356c-6.831,10.659-15.161,20.009-28.327,22.89c-7.838,1.715-15.911,1.697-23.888,1.562
		c-16.164-0.273-32.324-0.074-48.486-0.077c-59.989-0.01-119.978-0.062-179.967-0.113C7.68,651.989,3.774,651.35,0,650
		c0-0.667,0-1.333,0-2c0.984-0.301,1.055-1.082,1.046-1.934c-0.067-6.059-0.125-12.118-0.185-18.178
		c0.034-9.496,0.059-18.992,0.104-28.488c0.022-4.66-0.327-9.329,0.277-13.978c0.828-0.06,1.655-0.172,2.483-0.172
		c61.655-0.009,123.311-0.007,184.966-0.02c2.998-0.001,6.002-0.038,8.993-0.22c6.206-0.377,7.748-1.654,9.487-7.541
		c0.235-0.796,0.656-1.574,0.716-2.381c0.673-9.085-1.77-14.426-11.814-14.092c-0.832,0.028-1.666,0.004-2.499,0.004
		c-46.659,0-93.318,0-139.977,0c-4.826,0-9.626-0.098-14.401-1.076c-8.551-1.751-15.975-5.53-21.953-11.902
		c-8.269-8.813-12.805-19.63-16.269-30.99c-0.035-8.36-0.071-16.72-0.106-25.08C0.879,477.606,0.89,463.26,0.901,448.913z"/>
	<path style="fill:#040404;" d="M471,992c-0.303-1.057-1.187-0.963-1.996-0.997c-16.648-0.707-33.046-3.523-49.511-5.808
		c-44.109-6.121-86.404-18.836-127.567-35.432c-42.571-17.163-81.95-40-118.475-67.829c-27.659-21.073-53.152-44.423-75.793-70.825
		c-19.418-22.643-36.932-46.691-52.37-72.225c-3.603-5.959-7.046-12.02-9.69-18.492c-0.304-0.743-0.901-1.434-0.081-2.562
		c3.278,2.543,5.779,5.774,8.361,8.913c11.008,13.382,22.126,26.791,34.733,38.59c17.112,16.016,34.521,31.763,53.642,45.553
		c32.577,23.495,66.948,43.734,103.896,59.48c29.779,12.691,60.432,22.756,92.083,29.738c13.13,2.897,26.268,5.773,39.569,7.684
		c12.831,1.844,25.709,3.419,38.654,4.368c24.799,1.82,49.625,0.643,74.437,0.704c7.452,0.018,14.91-1.273,22.359-2.026
		c15.214-1.539,30.319-3.846,45.355-6.611c16.798-3.089,33.433-6.917,49.839-11.646c50.204-14.472,97.197-36.027,141.065-64.39
		c40.705-26.317,76.337-58.413,108.095-94.935c9.296-10.691,17.869-21.928,25.965-33.531c2.162-3.098,4.573-4.674,8.524-4.951
		c15.984-1.122,31.979-0.349,47.964-0.616c18.158-0.304,36.326-0.143,54.482,0.492c1.157,0.04,2.308,0.231,3.462,0.352
		c0,0.667,0,1.333,0,2c-0.276,0.102-0.734,0.136-0.802,0.317c-4.552,12.171-11.461,23.151-17.602,34.501
		c-12.854,23.753-28.929,45.318-45.514,66.564c-10.578,13.551-22.223,26.186-34.158,38.397
		c-12.046,12.324-25.114,23.765-38.724,34.523c-25.729,20.336-52.519,38.998-81.509,54.428
		c-38.299,20.385-78.143,36.895-120.19,47.8c-21.996,5.705-44.225,10.413-66.792,13.267c-14.184,1.794-28.403,3.339-42.676,4.292
		c-0.793,0.053-1.695-0.151-2.032,0.911C515.667,992,493.333,992,471,992z"/>
	<path style="fill:#868382;" d="M0.901,448.913c-0.011,14.347-0.022,28.693-0.033,43.04C0.58,491.984,0.29,492,0,492
		c0-14.333,0-28.667,0-43C0.308,449.055,0.609,449.026,0.901,448.913z"/>
	<path style="fill:#827F7F;" d="M0,585c0.414,0.141,0.827,0.282,1.241,0.422c-0.604,4.649-0.254,9.318-0.277,13.978
		c-0.045,9.496-0.071,18.992-0.104,28.488C0.576,627.947,0.29,627.984,0,628C0,613.667,0,599.333,0,585z"/>
	<path style="fill:#6A6767;" d="M0,492c0.29,0,0.58-0.016,0.868-0.047c0.035,8.36,0.071,16.72,0.106,25.08
		C0.649,517.022,0.325,517.011,0,517C0,508.667,0,500.333,0,492z"/>
	<path style="fill:#AEABAB;" d="M491.948,0.897C492.083,0.605,492.101,0.306,492,0c7.333,0,14.667,0,22,0
		c-0.059,0.295-0.038,0.584,0.063,0.867C506.692,0.877,499.32,0.887,491.948,0.897z"/>
	<path style="fill:#4F4D4C;" d="M0,628c0.29-0.016,0.576-0.053,0.86-0.111c0.061,6.059,0.118,12.119,0.185,18.178
		C1.055,646.918,0.984,647.699,0,648C0,641.333,0,634.667,0,628z"/>
	<path style="fill:#030303;" d="M491.948,0.897c7.372-0.01,14.744-0.02,22.115-0.03c10.612-0.851,20.753,2.305,31.107,3.651
		c3.628,0.472,7.269,1.215,10.903,1.212c11.368-0.01,22.547,1.651,33.713,3.424c12.618,2.003,25.222,4.06,37.719,6.802
		c34.08,7.477,67.16,18.015,99.211,31.778c29.034,12.468,56.628,27.602,83.16,44.752c18.63,12.042,35.989,25.719,53.047,39.838
		c21.245,17.585,40.309,37.329,58.186,58.266c2.434,2.85,4.717,5.824,7.116,9.813c-5.244-1.696-9.074-4.233-12.785-6.896
		c-18.137-13.018-37.412-24.044-57.922-32.835c-11.648-4.992-23.794-8.1-36.554-8.878c-12.319-0.751-23.111-5.652-32.518-13.578
		c-2.987-2.517-4.748-5.946-6.395-9.411c-1.281-2.695-2.516-5.412-3.803-8.103c-1.316-2.753-3.298-4.911-5.705-6.806
		c-5.8-4.568-10.792-3.163-15.452,1.481c-2.723,2.714-4.563,6.109-6.283,9.539c-1.412,2.815-2.767,5.664-4.301,8.412
		c-4.41,7.901-13.021,10.872-21.317,7.315c-6.572-2.818-12.824-6.286-18.832-10.14c-6.32-4.054-12.921-7.398-20.101-9.671
		c-8.403-2.66-15.505-7.461-21.66-13.742c-8.162-8.33-16.352-16.631-24.591-24.885c-2.112-2.116-4.45-4.008-6.844-6.145
		c-7.874-0.334-15.326,1.875-22.685,4.037c-1.059,1.477-1.908,2.859-2.461,4.689c4.065,1.862,8.153,3.65,12.168,5.591
		c8.723,4.22,16.823,9.385,23.845,16.13c2.932,2.816,4.765,6.21,6.15,10.067c2.352,6.552,0.406,11.776-4.225,16.286
		c-4.546,4.427-9.952,7.164-16.474,7.19c-3.973,0.016-7.945,0.003-11.964,0.003c-2.182-6.714-1.028-13.508-2.482-20.082
		c-2.581-1.561-5.549-0.988-8.265-1.494c-4.4-0.82-8.862-1.478-13.376-1.476c-2.977,0.001-5.702,0.732-7.414,3.317
		c-4.112,6.208-8.477,12.318-9.724,20.248c4.914,1.851,9.866,3.651,14.767,5.578c5.424,2.133,10.707,4.58,15.208,8.374
		c10.49,8.843,11.157,17.87,5.555,27.748c-5.507,9.71-14.6,13.71-24.832,15.636c-9.787,1.843-19.671,3.184-29.526,4.655
		c-6.896,1.029-12.96,3.99-18.645,7.818c-15.255,10.272-27.438,23.675-38.366,38.265c-8.587,11.464-15.578,23.878-21.028,37.155
		c-2.21,5.383-3.488,11.051-5.43,16.508c-1.59,4.467-3.89,8.422-8.28,10.864c-3.576-0.829-6.647-2.68-8.959-5.222
		c-8.926-9.812-20.303-16.679-30.062-25.473c-4.825-4.347-9.55-8.815-14.532-12.976c-6.558-5.477-14.008-9.496-22.086-12.269
		c-8.222-2.823-16.364-2.021-24.378,0.965c-9.85,3.67-18.216,9.408-25.066,17.467c-6.106,7.184-5.267,14.272,0.06,20.698
		c4.193,5.058,9.475,8.745,15.292,11.781c7.364,3.844,15.346,6.232,22.762,9.943c5.699,2.851,10.957,6.226,15.251,11.033
		c2.649,2.966,4.087,6.468,4.837,10.223c0.698,3.494,0.142,6.842-1.847,10.025c-5.823,9.325-18.028,14.044-28.719,10.938
		c-5.136-1.492-9.982-3.61-14.44-6.564c-6.649-4.406-13.264-8.865-19.896-13.297c-3.742-2.501-7.731-4.501-11.966-6.037
		c-2.215-0.803-4.453-0.898-6.014,0.915c-4.617,5.36-10.702,6.624-17.35,7.308c-8.45,0.869-16.847,2.061-25.373,1.39
		c-1.673-0.132-3.303-0.32-5.116-1.236c-1.794-3.918-0.337-7.902,0.589-11.889c0.787-3.388,1.844-6.701,2.632-10.098
		c1.144-4.933-0.449-8.839-3.454-12.426c-4.447-5.308-9.944-9.27-16.118-12.369c-8.457-4.245-16.944-8.446-24.687-13.96
		c-3.258-2.32-6.372-4.783-9.195-7.652c-3.7-3.762-5.479-8.307-5.779-13.412c-0.332-5.653-0.02-11.297,0.488-16.958
		c0.925-10.304,0.823-20.638-0.691-30.899c-0.389-2.636-1.446-5.104-4.134-7.096c-34.968,49.366-68.941,99.156-88.429,157.518
		c-39.428,0-78.818,0-118.424,0c0.138-1.086,0.108-1.937,0.362-2.695c12.228-36.545,26.74-72.058,46.53-105.288
		c17.003-28.552,36.483-55.257,59.023-79.634c33.175-35.878,70.327-67.041,112.195-92.393c33.99-20.581,69.509-37.89,107.28-50.547
		c26.144-8.761,52.643-16.005,79.799-20.692c8.827-1.524,17.556-3.668,26.506-4.5c9.108-0.846,18.195-1.937,27.313-2.636
		c8.462-0.648,16.861-1.636,25.124-3.546C487.324,1.073,489.641,1.178,491.948,0.897z"/>
	<path style="fill:#030303;" d="M928.213,404.288c0.181,21.742,0.972,43.19-0.381,64.755c-3.253,1.161-6.595,0.871-9.888,0.872
		c-59.499,0.018-118.997,0.013-178.496,0.013c-1.667,0-3.371,0.229-4.994-0.036c-11.93-1.952-15.361,11.98-11.785,19.382
		c1.359,2.814,3.377,4.44,6.569,4.485c4.666,0.066,9.331,0.219,13.997,0.23c38.666,0.098,77.332,0.15,115.998,0.271
		c8.331,0.026,16.661,0.334,24.992,0.404c13.05,0.108,22.877,6.632,30.645,16.253c9.371,11.607,13.945,25.177,13.796,40.183
		c-0.171,17.164,0.269,34.374-0.85,51.479c-1.358,20.757-11.975,36.267-30.45,45.962c-7.089,3.72-15.098,3.718-22.929,3.718
		c-11.833,0-23.665-0.255-35.498-0.243c-55.166,0.054-110.332,0.383-165.496,0.169c-35-0.136-69.997,0.006-104.995,0.192
		c-14.832,0.079-29.67,0.594-44.494,0.316c-54.66-1.026-109.325-0.446-163.986-0.794c-12.995-0.083-23.581-6.228-31.937-16.075
		c-9.239-10.887-13.026-23.707-13.031-37.804c-0.012-33.166-0.025-66.332-0.036-99.498c0-0.833-0.039-1.671,0.028-2.499
		c0.251-3.093,1.156-4.002,4.347-4.276c1.158-0.1,2.332-0.049,3.498-0.028c23.994,0.43,47.994-0.427,71.986,0.331
		c3.968,0.125,7.957-0.003,12.3,0.854c0,6.666,0.004,13.151-0.001,19.635c-0.01,16.166-0.043,32.333-0.026,48.499
		c0.005,4.712,0.991,9.016,3.619,13.209c4.856,7.747,11.712,10.808,20.511,10.772c18.999-0.077,38.02,0.555,56.992-0.167
		c39.492-1.502,79.006-1.384,118.466-0.549c71.991,1.523,143.972,0.122,215.953,0.827c5.106,0.05,8.936-1.946,12.542-5.579
		c0-3.157,0.132-6.484-0.032-9.796c-0.233-4.717-2.976-7.636-7.668-8.316c-1.472-0.213-2.99-0.154-4.486-0.158
		c-45.332-0.099-90.663-0.216-135.995-0.256c-6.84-0.006-13.639-0.364-20.419-1.218c-10.548-1.329-18.562-7.047-24.981-15.056
		c-8.369-10.444-12.662-22.421-12.628-35.933c0.036-14.332,0.247-28.683-0.422-42.988c-0.411-8.78,0.148-17.332,2.62-25.638
		c4.059-13.636,11.356-25.019,24.211-32.205c4.463-2.495,9.106-3.978,14.187-3.978c85.499,0.008,170.997,0.034,256.496,0.062
		C926.548,404.074,927.031,404.167,928.213,404.288z"/>
	<path style="fill:#151414;" d="M750.75,263.922c3.401-2.891,6.255-5.399,9.199-7.796c3.039-2.474,5.584-5.472,6.738-9.112
		c1.614-5.092,4.775-8.629,9.176-11.33c0.724-3.958,1.395-7.867,2.163-11.757c0.554-2.806,1.807-5.341,3.477-7.638
		c3.954-5.438,9.093-8.057,15.958-6.71c2.413,0.474,4.893,0.608,7.429,0.907c0.721,3.189-0.394,5.791-1.947,8.122
		c-12.19,18.297-27.634,33.13-46.977,43.755C754.685,263.067,753.419,263.905,750.75,263.922z"/>
</g>
</svg>
