<?xml version="1.0" encoding="iso-8859-1"?>
<!-- Generator: Adobe Illustrator 27.0.0, SVG Export Plug-In . SVG Version: 6.00 Build 0)  -->
<svg version="1.1" id="Layer_1" xmlns="http://www.w3.org/2000/svg" xmlns:xlink="http://www.w3.org/1999/xlink" x="0px" y="0px"
	 viewBox="0 0 1558.166 469" style="enable-background:new 0 0 1558.166 469;" xml:space="preserve">
<g>
	<path style="fill:#D3E9D0;" d="M0,221c0.275-0.046,0.551-0.063,0.83-0.053c0.001,6.702,0.002,13.404,0.003,20.106
		C0.554,241.06,0.276,241.043,0,241C0,234.333,0,227.667,0,221z"/>
	<path style="fill:#E0F0DE;" d="M225.968,0.84c0.024-0.28,0.035-0.56,0.032-0.84c5.667,0,11.333,0,17,0
		c-0.006,0.283,0.005,0.565,0.031,0.847C237.344,0.845,231.656,0.842,225.968,0.84z"/>
	<path style="fill:#E0F0DE;" d="M226,469c0.002-0.28-0.009-0.559-0.032-0.838c5.688-0.004,11.376-0.007,17.063-0.011
		c-0.027,0.282-0.037,0.565-0.031,0.849C237.333,469,231.667,469,226,469z"/>
	<path style="fill:#55BA5D;" d="M243.031,468.151c-5.688,0.004-11.376,0.007-17.063,0.011c-28.127-1.154-55.314-6.83-81.328-17.581
		c-19.601-8.1-37.76-18.83-54.415-31.988c-33.226-26.248-57.664-59.06-73.346-98.423c-6.542-16.42-10.923-33.414-13.619-50.817
		c-1.448-9.346-2.373-18.803-2.426-28.301c-0.001-6.702-0.002-13.404-0.003-20.106c2.071-33.791,10.904-65.722,26.721-95.643
		C41.144,99.59,58.995,77.225,81.015,58.148c15.429-13.367,32.167-24.737,50.487-33.667c18.869-9.197,38.595-15.938,59.343-19.595
		c11.639-2.051,23.326-3.471,35.122-4.046c5.688,0.002,11.376,0.005,17.063,0.007c34.817,1.683,67.882,9.969,98.845,26.2
		c19.278,10.106,36.72,22.739,52.589,37.636c23.634,22.187,41.665,48.272,54.413,77.993c7.217,16.825,12.342,34.296,15.291,52.425
		c2.384,14.653,3.927,29.378,3.577,44.185c-0.816,34.504-8.648,67.384-23.985,98.396c-10.474,21.178-23.845,40.298-40.086,57.483
		c-22.378,23.678-48.58,41.878-78.452,54.648c-16.81,7.186-34.302,12.431-52.465,15.18
		C262.893,466.486,252.994,467.606,243.031,468.151z M405.153,189.459c0.042-8.74-3.946-15.169-11.96-19.796
		c-17.751-10.25-36.444-18.324-55.934-24.622c-21.508-6.95-43.424-12.043-65.811-15.254c-14.814-2.125-29.674-3.761-44.597-4.509
		c-11.61-0.582-23.256-0.956-34.901-0.503c-8.475,0.33-16.946,0.394-25.428,0.981c-18.095,1.253-35.986,3.743-53.748,7.301
		c-8.783,1.759-17.531,3.713-25.942,6.845c-8.277,3.082-12.894,9.373-13.749,17.957c-0.918,9.227,2.78,16.458,10.979,21.256
		c6.064,3.548,12.27,3.38,18.745,1.476c22.24-6.541,45.074-9.866,68.114-11.342c13.913-0.891,27.874-1.438,41.894-0.695
		c14.284,0.757,28.531,1.418,42.739,3.255c13.841,1.79,27.562,4.09,41.145,7.264c26.312,6.149,51.493,15.253,75.046,28.636
		c1.435,0.815,3.007,1.411,4.557,1.997C389.967,214.867,405.523,204.221,405.153,189.459z M193.38,205.058
		c-9.409-0.442-19.894,0.348-30.318,1.295c-18.195,1.653-36.14,5.03-53.796,9.785c-3.509,0.945-7.119,1.629-10.406,3.322
		c-5.994,3.088-10.947,9.214-9.96,18.502c0.75,7.056,5.901,12.959,13.18,15.26c4.266,1.348,8.208,0.256,12.199-0.861
		c19.076-5.338,38.477-9.029,58.248-10.09c15.782-0.847,31.594-0.848,47.408,0.441c17.745,1.447,35.284,3.871,52.551,8.267
		c21.625,5.506,42.608,12.655,62.135,23.659c3.906,2.201,7.782,4.486,11.827,6.405c6.728,3.192,13.282,2.739,19.151-2.058
		c5.945-4.858,8.097-11.22,6.338-18.69c-1.339-5.685-5.144-9.428-10.12-12.331c-25.26-14.737-52.118-25.46-80.504-32.412
		C252.79,208.566,223.879,204.772,193.38,205.058z M194.559,281.189c-5.125,0.236-14.787,0.396-24.397,1.193
		c-12.074,1.002-24.108,2.543-36.044,4.667c-8.324,1.481-16.66,2.989-24.87,4.982c-7.935,1.926-12.202,9.426-10.382,17.182
		c1.852,7.888,8.779,12.466,16.806,11.001c3.587-0.655,7.134-1.523,10.704-2.275c14.315-3.016,28.769-4.957,43.349-6.222
		c10.783-0.936,21.581-1.752,32.369-1.4c13.434,0.438,26.852,1.274,40.181,3.504c16.934,2.833,33.326,7.361,49.19,13.854
		c10.159,4.157,19.921,9.118,29.353,14.737c3.52,2.097,7.33,3.272,11.434,2.185c5.59-1.481,9.419-5.024,10.67-10.708
		c1.518-6.893-0.948-12.558-6.986-16.21c-15.395-9.31-31.625-16.93-48.677-22.624C258.668,285.508,229.2,281.173,194.559,281.189z"
		/>
	<path style="fill:#55BA5E;" d="M1314.334,180.098c21.133,0,41.769,0,63.046,0c5.443,12.034,9.588,24.6,14.448,36.865
		c4.828,12.183,9.36,24.484,14.014,36.736c4.704,12.385,9.4,24.773,15,37.255c12.823-36.46,25.646-72.92,38.402-109.188
		c1.27-1.339,2.661-1.657,4.233-1.653c11.331,0.024,22.662,0.039,33.993-0.012c2.042-0.009,3.609,0.471,4.465,2.952
		c-3.935,10.204-7.975,20.721-12.044,31.226c-16.66,43.007-33.398,85.985-49.94,129.037c-3.584,9.328-7.37,18.495-12.991,26.801
		c-6.034,8.916-13.687,15.869-24.116,19.228c-7.694,2.478-15.685,3.042-23.672,2.438c-10.162-0.769-20.018-3.018-29.167-7.752
		c-1.179-0.61-2.353-1.24-3.476-1.945c-0.544-0.342-0.965-0.879-1.951-1.808c2.958-8.945,7.678-17.314,11.448-26.07
		c0.699-1.624,1.141-3.561,3.48-4.187c1.838,0.148,3.547,1.236,5.301,2.11c4.698,2.342,9.756,3.248,14.885,3.792
		c6.922,0.734,12.335-1.971,16.273-7.65c1.609-2.32,3.073-4.734,4.154-7.745c-17.022-40.981-34.135-82.181-51.326-123.569
		c-11.177,0-22.249,0-33.308,0c-0.913,1.88-0.485,3.737-0.486,5.525c-0.03,37.993-0.011,75.985-0.053,113.978
		c-0.002,2.075,0.732,4.377-1.35,6.335c-12.771,0-25.733,0-38.838,0c-1.709-2.478-1.328-5.441-1.321-8.131
		c0.038-14.488-0.384-28.976,0.225-43.467c0.265-6.306-0.271-12.643-0.29-18.966c-0.051-16.478-0.017-32.957-0.017-49.435
		c0-1.806,0-3.612,0-5.588c-6.428-1.483-12.87,0.682-19.54-1.569c-0.163-11.624-0.043-23.172-0.092-35.073
		c6.892-1.196,13.218-0.108,19.684-0.766c0.682-3.852,0.294-7.663,0.325-11.436c0.056-6.699,0.953-13.243,3.038-19.611
		c5.494-16.781,17.21-26.439,34.378-29.53c14.322-2.579,28.471-1.345,42.4,2.758c0.832,0.245,1.514,0.642,2.493,1.59
		c0,10.591,0.018,21.552-0.035,32.513c-0.004,0.862-0.863,1.366-1.951,1.855c-4.866-1.216-9.91-2.857-15.167-3.584
		c-3.324-0.459-6.669-0.543-9.967-0.194c-7.217,0.764-11.856,4.755-13.529,11.976
		C1314.393,170.465,1313.928,174.949,1314.334,180.098z"/>
	<path style="fill:#56BA5E;" d="M759.595,179.998c2.403,6.623,0.483,13.184,1.457,19.742c1.851-0.217,2.546-1.859,3.588-2.927
		c8.541-8.754,18.411-15.217,30.48-17.989c12.903-2.964,25.767-3.02,38.354,1.283c28.897,9.881,45.495,30.538,51.566,60.034
		c3.82,18.562,3.476,37.046-3.066,54.994c-9.373,25.714-27.118,42.924-53.965,49.125c-24.283,5.609-46.171,0.187-64.204-17.844
		c-0.691-0.691-1.084-1.68-2.1-3.303c-1.156,2.605-0.882,4.044-0.884,5.394c-0.022,18.664-0.005,37.329-0.027,55.993
		c-0.002,2.108,0.533,4.418-1.996,6.15c-12.304,0-24.931,0-37.589,0c-1.457-0.767-2.088-2.021-2.062-3.665
		c0.018-1.166,0-2.333,0-3.5c0-65.492,0.001-130.985,0.002-196.477c0-0.833-0.022-1.667,0.005-2.5
		c0.126-3.819,0.632-4.469,4.277-4.488C735.258,179.96,747.085,179.998,759.595,179.998z M845.288,258.132
		c0.123-4.351-1.231-11.837-4.34-18.936c-5.046-11.522-13.067-20.27-25.365-23.746c-21.312-6.024-40.313,2.974-50.139,21.52
		c-4.464,8.425-5.955,17.501-5.548,27.008c0.556,12.985,4.837,24.319,14.033,33.661c15.382,15.625,41.087,16.271,57.146,0.959
		C841.608,288.555,845.335,275.728,845.288,258.132z"/>
	<path style="fill:#55BA5E;" d="M699.727,154.121c-7.282,10.905-14.553,21.103-21.854,30.912c-3.223-0.123-4.812-2.019-6.67-3.307
		c-12.017-8.331-24.939-14.718-39.429-17.173c-9.05-1.533-18.219-1.622-27.147,1.37c-3.038,1.018-5.707,2.643-8.303,4.467
		c-10.392,7.301-10.292,25.972,0.807,32.581c6.789,4.043,14.03,6.778,21.506,9.007c13.026,3.885,26.495,6.154,39.29,10.928
		c8.132,3.034,15.925,6.647,23.193,11.408c13.436,8.801,21.684,20.99,23.527,37.021c1.857,16.144-0.453,31.601-9.915,45.271
		c-8.867,12.812-21.317,20.826-36.077,25.249c-14.699,4.405-29.71,4.841-44.944,3.431c-23.478-2.172-44.368-10.803-63.44-24.276
		c-4.331-3.059-8.562-6.3-12.512-10.875c7.577-10.134,16-19.443,23.974-28.931c2.78-0.38,4.173,1.504,5.781,2.839
		c9.785,8.127,20.27,15.074,32.335,19.39c13.268,4.746,26.867,6.046,40.742,3.558c5.6-1.004,10.677-3.207,15.321-6.763
		c9.145-7.002,10.764-25.125-1.194-32.832c-5.079-3.274-10.602-5.479-16.284-7.358c-9.935-3.286-20.21-5.296-30.289-8.043
		c-12.681-3.456-25.151-7.505-36.373-14.578c-16.153-10.182-24.377-24.869-24.909-43.977c-0.248-8.887,0.195-17.626,3.497-26.005
		c6.736-17.094,19.085-28.544,35.922-35.308c15.808-6.35,32.201-7.197,49.014-5.411c15.262,1.621,29.565,5.945,43.099,13.006
		C685.772,143.57,692.672,148.14,699.727,154.121z"/>
	<path style="fill:#55BA5E;" d="M898.745,261.077c-0.023-21.373,7.153-40.079,21.54-55.811
		c19.781-21.631,44.81-30.534,73.657-28.071c37.769,3.225,67.316,29.241,75.628,64.938c9.064,38.927-9.001,76.7-43.385,94.578
		c-10.534,5.477-21.856,8.545-33.807,9.544c-17.009,1.421-33.201-1.284-48.234-9.251c-24.616-13.046-39.483-33.382-44.3-60.98
		C898.975,271.051,899.019,266.087,898.745,261.077z M985.092,213.89c-18.8-0.036-33.764,9.734-40.983,27.105
		c-3.834,9.226-4.948,18.831-3.262,28.801c3.297,19.498,13.757,32.793,32.975,38.499c20.203,5.998,41.479-3.229,51.123-21.915
		c4.96-9.61,6.244-19.789,5.209-30.456C1027.871,232.386,1009.13,213.554,985.092,213.89z"/>
	<path style="fill:#55BA5D;" d="M1094.379,217.032c-6.198-1.33-12.817,1.093-19.151-1.553c0-11.701,0-23.099,0-35.146
		c6.479-0.762,12.778-0.024,19.698-0.499c0-14.074,0-28.102,0-41.904c4.496-1.339,35.852-1.438,40.764-0.213
		c0.843,4.393,0.273,9.033,0.375,13.622c0.104,4.662,0.023,9.327,0.023,13.991c0,4.65,0,9.3,0,14.494c13.738,0,27.301,0,40.004,0
		c2.276,1.458,2.636,2.846,2.634,4.426c-0.01,9.328-0.007,18.655-0.009,27.983c0,1.201-0.357,2.285-1.082,3.283
		c-1.657,1.46-3.707,1.169-5.683,1.171c-10.161,0.009-20.321-0.015-30.482,0.024c-1.624,0.006-3.306-0.368-4.896,0.403
		c-0.897,1.571-0.462,3.271-0.464,4.89c-0.033,22.32-0.023,44.64-0.02,66.96c0,2.494,0.313,4.951,0.6,7.433
		c0.853,7.389,6.634,11.255,13.36,11.628c7.261,0.403,14.189-1.054,20.931-3.638c1.669-0.64,3.184-1.946,5.251-1.295
		c1.54,0.735,1.759,2.144,1.755,3.73c-0.022,9.657-0.011,19.315-0.011,29.111c-3.308,2.978-7.356,4.602-11.395,5.911
		c-15.772,5.11-31.658,5.798-47.342-0.264c-9.597-3.71-16.397-10.556-20.201-20.197c-2.645-6.704-4.084-13.662-4.088-20.896
		c-0.014-25.984-0.027-51.968-0.081-77.953C1094.865,220.749,1095.311,218.89,1094.379,217.032z"/>
	<path style="fill:#57BA5F;" d="M1235.244,180.286c1.971,1.559,1.617,3.316,1.618,4.946c0.011,50.821,0.012,101.642-0.002,152.463
		c0,1.633,0.405,3.39-1.447,5.023c-12.66,0-25.757,0-38.812,0c-1.267-0.929-1.469-2.204-1.431-3.581c0.019-0.666,0-1.333,0-1.999
		c0-50.321-0.006-100.642,0.022-150.964c0.001-1.92-0.622-4.054,1.534-5.887C1209.358,180.286,1222.294,180.286,1235.244,180.286z"
		/>
	<path style="fill:#56BA5E;" d="M1216.271,160.003c-14.389,0.008-26.472-11.759-26.028-25.882
		c0.449-14.292,10.682-25.918,26.151-25.857c16.502,0.065,25.678,14.004,25.745,25.758
		C1242.224,149.051,1228.667,161.146,1216.271,160.003z"/>
	<path style="fill:#69BF6C;" d="M1532.824,179.859c14.871-0.454,25.753,12.87,25.331,25.737
		c-0.462,14.097-11.393,25.276-25.485,25.306c-14.071,0.03-25.642-11.579-25.648-25.732
		C1507.015,190.917,1518.348,179.8,1532.824,179.859z M1555.203,205.027c0.345-10.349-7.437-22.06-22.317-22.699
		c-12.591-0.54-23.049,10.41-22.95,23.147c0.099,12.688,10.212,22.665,22.908,22.603
		C1545.446,228.016,1555.295,217.862,1555.203,205.027z"/>
	<path style="fill:#65BE69;" d="M1539.138,208.415c1.356,3.257,4.431,5.583,5.845,9.198c-1.837,0.794-3.606,0.228-5.29,0.403
		c-2.647-2.801-4.052-6.311-6.806-8.843c-1.583-0.345-3.186-0.543-5.063,0.298c0,2.583,0,5.191,0,7.602
		c-1.738,1.609-3.449,0.607-5.376,1.031c0-8.961,0-17.67,0-26.696c4.718-0.62,9.541-0.666,14.242-0.08
		c3.692,0.46,6.87,2.324,7.71,6.689c0.762,3.96-0.666,6.763-3.853,8.904C1540.002,207.287,1539.352,207.534,1539.138,208.415z
		 M1527.932,203.965c2.849,0,5.152,0.17,7.417-0.049c2.174-0.21,3.651-1.474,3.694-3.864c0.043-2.369-1.288-3.775-3.517-3.968
		c-2.543-0.22-5.176-0.695-7.594,0.424C1527.932,198.978,1527.932,201.247,1527.932,203.965z"/>
</g>
</svg>
