<?xml version="1.0" encoding="iso-8859-1"?>
<!-- Generator: Adobe Illustrator 27.0.0, SVG Export Plug-In . SVG Version: 6.00 Build 0)  -->
<svg version="1.1" id="Layer_1" xmlns="http://www.w3.org/2000/svg" xmlns:xlink="http://www.w3.org/1999/xlink" x="0px" y="0px"
	 viewBox="0 0 1541 307.276" style="enable-background:new 0 0 1541 307.276;" xml:space="preserve">
<g>
	<path style="fill:#67BE5B;" d="M247.036,142.007c-0.036,25.023-7.948,47.404-23.668,66.71
		c-14.903,18.303-34.032,30.485-57.083,36.189c-8.415,2.083-16.979,2.98-25.647,2.974c-22.316-0.015-44.632-0.009-66.948,0.002
		c-1.957,0.001-4.01-0.386-5.687,1.102c-1.174-1.876-3.027-0.942-4.539-0.951c-13.796-0.076-27.593-0.045-41.39-0.045
		c-1.158,0-2.317,0-3.475,0c7.5,5.425,15.025,10.099,22.646,14.611c2.799,1.657,5.306,3.971,8.736,4.404
		c-9.433,8.542-18.044,17.92-27.175,26.771c-3.567,3.457-7.046,7.007-10.516,10.561c-3.944,4.039-7.558,3.927-11.245-0.408
		C0.745,303.577,0.35,303.308,0,303c0-18.667,0-37.333,0-56c1.363-0.409,2.094-1.596,3.017-2.519
		c33.164-33.14,66.314-66.293,99.453-99.457c0.925-0.926,2.089-1.674,2.549-3.005c0.331-0.012,0.661-0.019,0.992-0.02
		C153.019,142.002,200.028,142.004,247.036,142.007z"/>
	<path style="fill:#15A74F;" d="M105.019,142.02c-0.46,1.33-1.624,2.078-2.549,3.005c-33.139,33.165-66.289,66.318-99.453,99.457
		C2.094,245.404,1.363,246.591,0,247c0-52,0-104,0-156c2.045-2.772,1.71-6.194,2.46-9.305C8.222,57.779,20.797,38.21,39.887,22.816
		c12.165-9.81,25.926-16.381,41.15-20.045C85.343,1.735,89.871,1.794,94,0c3.667,0,7.333,0,11,0
		C105.006,47.34,105.013,94.68,105.019,142.02z"/>
	<path style="fill:#33B557;" d="M105.019,142.02C105.013,94.68,105.006,47.34,105,0c47.333,0,94.667,0,142,0
		c-0.775,1.736-2.333,2.795-3.612,4.075C198.8,48.7,154.192,93.303,109.607,137.931c-1.275,1.276-2.865,2.302-3.595,4.069
		C105.68,142.001,105.35,142.007,105.019,142.02z"/>
	<path style="fill:#83C565;" d="M106.011,142c0.731-1.767,2.321-2.794,3.595-4.069C154.192,93.303,198.8,48.7,243.388,4.075
		C244.667,2.795,246.225,1.736,247,0c0.333,0,0.667,0,1,0c-0.064,1.825-0.185,3.65-0.185,5.475
		c-0.011,43.78,0.004,87.56-0.054,131.34c-0.002,1.716,0.823,3.653-0.725,5.192C200.028,142.004,153.019,142.002,106.011,142z"/>
	<path style="fill:#B7B4B4;" d="M1540.004,58.997c0.332-0.04,0.664-0.039,0.996,0.003c0,51.333,0,102.667,0,154
		c-0.374-0.03-0.749-0.06-1.123-0.089c0.041-1.83,0.118-3.66,0.118-5.49C1540.003,157.946,1540.003,108.471,1540.004,58.997z"/>
	<path style="fill:#080707;" d="M509.747,200.324c0,9.648-0.032,19.295,0.022,28.942c0.014,2.52-0.183,4.997-0.812,7.423
		c-2.016,7.779-9.863,13.129-17.756,12.151c-7.728-0.957-13.999-7.703-14.145-15.623c-0.169-9.161-0.056-18.327-0.057-27.49
		c-0.002-30.157-0.018-60.314,0.012-90.471c0.008-7.839,4.574-14.135,11.561-16.202c8.719-2.579,17.875,2.512,20.341,11.315
		c0.347,1.239,0.022,2.702,1.209,3.665c1.231,0.003,1.583-1.081,2.191-1.77c12.606-14.299,28.336-17.774,46.158-12.835
		c16.413,4.549,27.417,15.556,33.097,31.259c6.612,18.28,6.526,36.771-1.337,54.884c-7.731,17.81-27.058,31.077-47.705,29.727
		c-11.893-0.778-21.943-4.663-30.15-13.292C511.722,201.321,511.252,200.311,509.747,200.324z M508.846,156.945
		c-0.329,4.801,0.784,10.119,3.113,15.157c8.588,18.576,32.119,20.027,43.523,7.275c10.138-11.336,10.064-32.665,1.306-43.951
		c-9.861-12.707-28.042-13.855-39.307-2.315C511.249,139.493,508.546,147.294,508.846,156.945z"/>
	<path style="fill:#090808;" d="M748.488,215.968c-23.743-1.027-42.864-10.484-54.314-31.947
		c-14.899-27.926-4.975-64.435,25.608-79.616c23.152-11.492,46.189-9.712,67.299,5.558c12.474,9.023,19.468,21.774,22.029,37.138
		c5.031,30.182-14.201,60.29-46.707,67.469C757.881,215.568,753.225,216.175,748.488,215.968z M719.851,156.005
		c-0.276,7.568,1.887,14.49,6.589,20.718c12.184,16.137,38.763,14.054,48.044-3.43c3.22-6.066,4.267-12.463,3.694-19.259
		c-1.846-21.872-21.156-33.426-41.229-26.072C725.947,131.991,719.086,144.876,719.851,156.005z"/>
	<path style="fill:#090808;" d="M895.76,197.659c-3.545,4.424-6.803,7.928-10.739,10.763c-13.556,9.763-34.54,9.329-47.448-1.138
		c-7.18-5.822-10.753-13.729-12.465-22.595c-0.854-4.421-1.093-8.891-1.074-13.407c0.082-18.655-0.007-37.311,0.054-55.966
		c0.026-7.886,4.654-14.264,11.53-16.252c10.184-2.945,19.935,3.701,21.157,14.467c0.187,1.648,0.151,3.325,0.152,4.989
		c0.01,14.991,0.014,29.982-0.001,44.973c-0.003,2.835,0.29,5.593,0.954,8.378c2.245,9.417,9.248,14.541,19.523,13.965
		c11.875-0.666,18.306-8.662,18.594-20.535c0.306-12.652,0.069-25.316,0.073-37.975c0.001-4.164-0.127-8.334,0.055-12.491
		c0.323-7.37,4.812-13.538,11.15-15.653c10.142-3.383,20.707,3.609,21.615,14.323c0.084,0.993,0.042,1.997,0.042,2.996
		c0.002,25.984-0.022,51.969,0.029,77.953c0.007,3.368-0.53,6.632-1.608,9.747c-2.51,7.256-9.643,11.579-17.215,10.698
		c-7.631-0.888-13.453-7.063-14.142-14.995C895.952,199.409,895.892,198.915,895.76,197.659z"/>
	<path style="fill:#090808;" d="M418.391,215.01c-15.432,0.179-29.354-4.585-42.215-12.865c-8.847-5.696-7.258-16.693-0.936-21.02
		c4.497-3.078,9.299-3.348,14.045-0.525c7.032,4.183,14.405,7.483,22.479,9.035c4.451,0.855,8.955,0.797,13.429,0.303
		c1.427-0.158,2.88-0.813,4.149-1.542c4.576-2.631,5.157-8.148,1.27-11.705c-2.633-2.409-5.922-3.64-9.236-4.711
		c-6.298-2.034-12.634-3.95-18.957-5.905c-3.657-1.131-7.094-2.766-10.389-4.679c-17.754-10.311-21.75-33.647-8.521-49.442
		c7.397-8.832,17.271-12.801,28.337-13.805c14.056-1.275,27.378,1.944,40.078,7.919c4.129,1.943,7.15,4.919,8.049,9.517
		c0.952,4.869,0.038,9.294-3.946,12.671c-4.244,3.598-9.052,3.872-14.042,2.028c-3.875-1.432-7.593-3.293-11.479-4.693
		c-4.696-1.692-9.524-2.854-14.605-2.645c-2.211,0.091-4.284,0.592-6.217,1.566c-4.9,2.469-5.545,7.817-1.361,11.37
		c2.427,2.061,5.347,3.276,8.312,4.354c7.155,2.6,14.356,5.083,21.461,7.814c5.449,2.094,10.542,4.916,14.957,8.8
		c8.043,7.074,11.028,16.089,9.304,26.476c-2.973,17.911-13.617,27.967-31.55,30.739C426.664,214.707,422.549,214.91,418.391,215.01
		z"/>
	<path style="fill:#0C0B0B;" d="M976.999,99.891c5.623,0,10.617-0.198,15.587,0.053c5.585,0.282,9.205,3.652,11.121,8.645
		c3.359,8.756-2.813,17.811-12.424,18.289c-4.604,0.229-9.229,0.039-13.569,0.039c-0.98,1.498-0.647,2.686-0.649,3.808
		c-0.025,14.154-0.019,28.308-0.014,42.462c0.001,1.994,0.034,3.961,0.611,5.927c1.322,4.505,3.818,6.619,8.552,6.867
		c1.661,0.087,3.331-0.021,4.995,0.023c6.843,0.18,12.033,4.812,13.314,11.853c1.027,5.646-2.697,11.903-8.641,14.147
		c-10.611,4.005-21.527,4.238-32.324,1.301c-11.73-3.19-16.848-12.166-18.464-23.508c-0.656-4.606-0.788-9.272-0.779-13.945
		c0.055-28.974,0.03-57.949,0.024-86.923c-0.001-3.853,0.276-7.626,2.247-11.094c3.688-6.488,10.657-9.668,17.721-8.015
		c7.361,1.722,12.43,7.731,12.665,15.27C977.117,89.728,976.999,94.376,976.999,99.891z"/>
	<path style="fill:#090808;" d="M644.333,115.008c3.128-5.388,6.329-10.347,10.997-14.312c4.255-3.613,8.956-5.667,14.455-5.775
		c6.996-0.138,13.911-0.712,20.613-2.862c2.812-0.902,5.599-1.884,8.784-2.961c0.88,4.053,0.033,7.889-0.856,11.642
		c-3.084,13.028-11.468,21.359-23.683,26.143c-2.615,1.024-5.256,2.074-7.979,2.71c-13.594,3.174-21.483,14.993-22.719,27.7
		c-0.434,4.456-0.279,8.975-0.301,13.465c-0.04,8.324-0.057,16.648,0.014,24.971c0.022,2.524-0.224,5.023-0.812,7.423
		c-1.87,7.634-9.567,12.61-17.938,11.811c-7.286-0.696-13.759-7.528-13.861-15.203c-0.187-13.981-0.099-27.967-0.102-41.95
		c-0.003-14.65-0.005-29.299,0.045-43.949c0.024-6.879,3.562-11.689,9.544-14.537c9.196-4.378,20.321,1.38,22.448,11.388
		C643.253,111.992,643.123,113.371,644.333,115.008z"/>
	<path style="fill:#0F0E0D;" d="M1482.931,149.365c-0.148-6.234-0.533-11.661-2.619-16.806
		c-3.726-9.189-11.087-13.702-20.408-15.583c-11.849-2.39-23.023,0.821-34.143,4.257c-2.818,0.871-5.517,2.126-8.494,3.293
		c-2.426-4.219-3.242-8.809-5.199-13.192c4.222-2.836,8.955-4.235,13.684-5.601c14.278-4.122,28.737-5.413,43.274-1.729
		c18.725,4.745,27.968,18.934,28.889,36.082c1.18,21.955,0.279,43.949,0.453,65.926c0.017,2.14,0.38,4.323-0.426,6.705
		c-5.015,0.384-10.085,0.296-15.553,0.033c0-4.961,0-9.732,0-14.203c-1.136-0.814-1.556-0.272-1.993,0.193
		c-13.484,14.338-30.015,18.746-49.017,14.967c-5.078-1.01-9.764-3.04-14.211-5.718c-20.265-12.205-20.319-43.667,0.564-55.805
		c7.631-4.435,15.916-6.499,24.612-7.057C1455.875,144.259,1469.207,145.702,1482.931,149.365z M1482.715,162.756
		c-0.766-0.274-1.367-0.518-1.985-0.707c-7.988-2.436-16.271-3.237-24.513-3.895c-8.841-0.706-17.615,0.185-25.747,4.208
		c-7.557,3.739-11.552,9.95-11.41,18.352c0.146,8.584,4.407,14.947,12.264,18.35c14.869,6.441,28.839,4.234,41.675-5.385
		c4.527-3.393,7.363-8.172,8.844-13.558C1483.397,174.475,1483.153,168.652,1482.715,162.756z"/>
	<path style="fill:#0F0E0D;" d="M1237.191,158.63c0.457,31.481-25.847,57.527-57.234,57.323
		c-31.69-0.206-57.025-25.785-56.924-57.723c0.096-30.214,24.133-56.932,57.33-56.825
		C1213.322,101.51,1237.578,128.318,1237.191,158.63z M1179.294,201.085c9.479,0.262,17.296-2.668,24.203-7.972
		c17.583-13.503,22.477-41.005,7.809-60.791c-14.386-19.406-41.408-21.854-58.416-4.869c-11.528,11.512-15.234,25.575-11.764,41.232
		C1145.781,189.695,1163,201.538,1179.294,201.085z"/>
	<path style="fill:#0F0E0D;" d="M1107.846,114.448c-2.383,3.96-4.682,7.779-7.127,11.842c-3.42-1.782-6.505-3.672-9.802-5.054
		c-9.465-3.966-19.218-6.487-29.573-4.274c-6.319,1.351-11.447,4.302-13.61,10.955c-1.765,5.429-0.247,9.803,4.009,13.361
		c3.23,2.7,7.08,4.26,10.949,5.768c8.639,3.366,17.772,5.274,26.308,8.957c3.062,1.321,6.004,2.823,8.804,4.627
		c13.078,8.429,14.974,22.116,9.822,34.64c-4.311,10.479-13.09,16.11-23.781,18.635c-14.827,3.502-28.994,0.789-42.64-5.437
		c-5.301-2.419-10.263-5.4-15.093-9.391c2.635-3.838,5.224-7.611,7.893-11.498c2.018,0.447,3.27,1.822,4.724,2.775
		c10.818,7.094,22.493,11.228,35.614,10.742c4.256-0.158,8.266-1.158,11.901-3.216c9.711-5.496,12.258-18.941,0.746-25.895
		c-3.562-2.152-7.372-3.741-11.33-5.005c-7.261-2.317-14.552-4.551-21.754-7.038c-2.957-1.021-5.819-2.428-8.55-3.968
		c-15.5-8.74-18.635-28.789-6.743-42.153c6.321-7.103,14.541-10.29,23.605-11.593
		C1076.219,100.218,1095.93,105.533,1107.846,114.448z"/>
	<path style="fill:#0F0E0D;" d="M1338.57,184.765c3.679,3.121,7.012,6.288,9.999,9.765c-13.044,18.092-37.008,25.112-58.409,19.48
		c-25.007-6.581-39.301-28.304-41.067-49.668c-2.558-30.954,15.625-51.372,35.126-59.082c21.811-8.624,49.085-2.963,64.123,15.827
		c-3.402,3.703-6.635,7.633-10.667,11.083c-1.799-1.684-3.464-3.276-5.165-4.829c-9.444-8.621-20.395-13.017-33.282-11.317
		c-10.771,1.421-19.196,6.93-25.61,15.639c-12.41,16.848-10.786,42.518,3.653,57.344c12.72,13.061,32.788,15.612,48.473,6.2
		C1330.474,192.37,1334.712,188.934,1338.57,184.765z"/>
	<path style="fill:#010101;" d="M1540.004,58.997c-0.001,49.474-0.001,98.949-0.01,148.423c0,1.83-0.077,3.66-0.118,5.49
		c-5.128,0-10.255,0-15.643,0c0-51.341,0-102.496,0-154.16C1529.525,58.791,1534.757,58.453,1540.004,58.997z"/>
	<path style="fill:#171515;" d="M1367.527,103.882c5.333,0,10.598,0,16.138,0c0,36.284,0,72.464,0,108.888
		c-5.331,0-10.585,0-16.138,0C1367.527,176.554,1367.527,140.359,1367.527,103.882z"/>
	<path style="fill:#1CA850;" d="M49.98,267.004c-3.43-0.433-5.937-2.747-8.736-4.404c-7.621-4.512-15.146-9.186-22.646-14.611
		c1.158,0,2.317,0,3.475,0c13.797,0,27.594-0.032,41.39,0.045c1.513,0.008,3.365-0.926,4.539,0.951
		C62.206,255.201,56.28,261.29,49.98,267.004z"/>
	<path style="fill:#0C0B0B;" d="M1384.552,79.785c-6.221,0-12.159,0-18.288,0c0-5.97,0-11.721,0-17.771c6.058,0,11.98,0,18.288,0
		C1384.552,67.743,1384.552,73.608,1384.552,79.785z"/>
</g>
</svg>
