<?xml version="1.0" encoding="iso-8859-1"?>
<!-- Generator: Adobe Illustrator 27.0.0, SVG Export Plug-In . SVG Version: 6.00 Build 0)  -->
<svg version="1.1" id="Layer_1" xmlns="http://www.w3.org/2000/svg" xmlns:xlink="http://www.w3.org/1999/xlink" x="0px" y="0px"
	 viewBox="0 0 1514 333.208" style="enable-background:new 0 0 1514 333.208;" xml:space="preserve">
<g>
	<path style="fill:#019582;" d="M346.033,1.056c-3.817,2.082-8.128,2.608-12.224,3.769c-30.434,8.621-59.842,19.851-87.512,35.225
		c-16.744,9.303-32.54,20.058-45.924,34.028c-13.838,14.445-22.823,31.133-25.614,51.182c-2.331,16.751-2.145,33.45-1.059,50.248
		c0.867,13.415,2.905,26.66,5.038,40.103c-57.456,0-114.675,0-172.235,0c-2.93-16.539-4.968-32.958-5.641-49.542
		c0.006-8.377,0.012-16.753,0.017-25.13c0.168-3.488,0.619-6.948,0.964-10.419c2.17-21.809,10.781-40.486,26.106-56.243
		C45.985,55.734,67.687,42.608,90.644,31.4c20.157-9.841,41.181-17.588,62.652-24.077c8.085-2.443,16.135-5.051,24.495-6.463
		c1.827,0.046,3.654,0.132,5.482,0.132c23.954,0.009,47.909,0.006,71.863,0.006c27.947,0,55.894,0.021,83.841-0.053
		C340.637,0.942,342.644,1.935,344,0c0.667,0,1.333,0,2,0C346.011,0.352,346.022,0.704,346.033,1.056z"/>
	<path style="fill:#35363C;" d="M1514,175c-0.567,0.041-0.771,0.403-0.942,0.906c-4.259,12.595-15.923,19.419-29.007,16.813
		c-5.914-1.178-11.388-3.514-16.285-7.153c0-2.394,0-4.666,0-7.44c3.988,2.431,7.443,5.009,11.41,6.602
		c5.012,2.013,10.12,3.334,15.507,1.365c6.239-2.28,10.47-6.363,11.467-13.142c1.051-7.149-1.538-12.64-7.758-16.472
		c-4.419-2.722-9.312-4.341-14.015-6.405c-2.429-1.065-4.949-1.951-7.291-3.179c-11.801-6.187-13.4-20.527-6.96-29.526
		c6.904-9.647,16.669-12.048,27.797-10.004c4.384,0.805,8.694,2.157,12.232,4.862c0,2.285,0,4.383,0,6.947
		c-5.235-2.582-10.098-4.98-15.534-5.893c-8.908-1.496-17.063,2.734-19.814,10.464c-2.284,6.417-0.537,12.29,4.9,16.373
		c2.815,2.114,6.067,3.406,9.262,4.787c4.106,1.774,8.302,3.353,12.347,5.254c6.155,2.893,10.734,7.215,11.947,14.305
		c0.037,0.214,0.483,0.358,0.738,0.535C1514,168.333,1514,171.667,1514,175z"/>
	<path style="fill:#62A89A;" d="M177.791,0.86C177.879,0.578,177.949,0.291,178,0c55.333,0,110.667,0,166,0
		c-1.356,1.935-3.363,0.942-5.023,0.946c-27.947,0.074-55.894,0.053-83.841,0.053c-23.954,0-47.909,0.003-71.863-0.006
		C181.445,0.992,179.618,0.906,177.791,0.86z"/>
	<path style="fill:#B2CFC8;" d="M0,141c0.295,0.002,0.588-0.019,0.88-0.061c-0.006,8.377-0.012,16.753-0.017,25.13
		C0.576,166.041,0.288,166.018,0,166C0,157.667,0,149.333,0,141z"/>
	<path style="fill:#62A89A;" d="M346.033,1.056C346.022,0.704,346.011,0.352,346,0c1.333,0,2.667,0,4,0
		C349.009,1.595,347.39,0.834,346.033,1.056z"/>
	<path style="fill:#076DAB;" d="M51.599,322c33.179-8.911,65.201-20.159,95.445-36.038c19.049-10.001,37.191-21.477,52.29-37.068
		c10.387-10.725,19.051-22.66,23.215-37.287c2.597-9.121,3.839-18.46,4.726-27.921c1.252-13.35,0.474-26.627-0.518-39.882
		c-0.841-11.239-2.174-22.468-4.449-33.545c-0.232-1.129-0.51-2.285,0.073-3.683c56.964,0,114.03,0,171.149,0
		c1.955,6.12,2.478,12.265,3.268,18.309c2.265,17.33,3.817,34.741,3.039,52.243c-0.494,11.115-1.761,22.135-4.693,32.959
		c-3.153,11.644-9.057,21.683-16.592,30.907c-13.041,15.964-29.432,27.81-47.022,38.163c-27.639,16.268-57.353,27.598-87.937,36.841
		c-6.665,2.014-13.369,3.879-20.158,5.452c-1.655,0.383-3.262,0.549-4.923,0.549C164.033,322,109.552,322,55.071,322
		C53.914,322,52.756,322,51.599,322z"/>
	<path style="fill:#38393F;" d="M1320.263,234.837c2.036-0.342,3.669-0.407,5.578,0.221c20.731,23.887,41.627,47.965,63.217,72.841
		c0-24.907,0-48.658,0-72.48c2.193-1.363,4.296-0.655,6.618-0.785c0,28.182,0,56.054,0,84.157c-1.884,0-3.656,0-5.681,0
		c-20.693-23.87-41.489-47.859-62.89-72.546c-0.83,6.718-0.311,12.576-0.407,18.403c-0.099,5.993-0.022,11.99-0.022,17.985
		s0.001,11.99,0.001,17.985c0,5.963,0,11.925,0,18.031c-2.272,0.58-4.204,0.334-6.414,0.296
		C1320.263,290.887,1320.263,262.991,1320.263,234.837z"/>
	<path style="fill:#36363D;" d="M578.403,106.659c19.905-0.211,37.543,12.893,42.791,32.246
		c6.219,22.935-8.539,47.836-31.753,52.878c-15.417,3.349-29.783,0.908-41.926-9.994c-23.181-20.812-17.931-60.81,15.131-72.666
		c2.174-0.78,4.428-1.462,6.703-1.804C572.136,106.901,574.983,106.888,578.403,106.659z M615.372,149.445
		c0.321-20.431-17.056-37.191-38.363-36.55c-21.849,0.657-37.019,19.013-36.277,38.294c0.788,20.475,17.749,35.898,38.008,35.638
		C598.785,186.571,616.012,170.79,615.372,149.445z"/>
	<path style="fill:#38393F;" d="M1018.168,108.036c1.607-0.758,3.242-0.464,5.333-0.173c20.785,24.042,41.778,48.326,63.33,73.255
		c0-24.74,0-48.722,0-72.725c2.391-1.211,4.445-0.892,6.761-0.427c0,27.878,0,55.632,0,83.605c-1.655,0.958-3.494,0.167-5.38,0.54
		c-20.884-24.063-41.702-48.051-63.183-72.802c0,24.606,0,48.262,0,71.874c-2.372,1.437-4.515,0.482-6.86,1.015
		C1018.168,163.875,1018.168,135.976,1018.168,108.036z"/>
	<path style="fill:#38393F;" d="M518.823,274.781c2.34,0.905,4.213,1.54,6.013,2.341c10.479,4.661,12.686,11.688,12.73,20.074
		c0.046,8.842-5.48,15.98-14.176,19.184c-2.493,0.918-5.071,1.52-7.711,1.922c-4.688,0.715-25.684,0.911-31.074,0.15
		c0-27.713,0-55.465,0-83.844c5.862,0,11.644,0.027,17.424-0.009c4.513-0.028,8.937,0.455,13.289,1.73
		c13.176,3.862,16.123,14.51,14.703,23.769c-0.749,4.879-3.466,8.549-7.002,11.716C521.914,272.802,520.591,273.545,518.823,274.781
		z M491.467,312.848c7.806,0,15.398,0.128,22.98-0.084c2.075-0.058,4.199-0.946,6.166-1.774c6.268-2.64,9.489-7.403,9.657-14.263
		c0.173-7.074-2.832-12.037-9.346-14.933c-3.401-1.512-7.008-2.102-10.614-2.243c-6.228-0.244-12.472-0.068-18.843-0.068
		C491.467,290.826,491.467,301.714,491.467,312.848z M491.465,273.282c7.462-0.24,14.451,0.692,21.222-1.792
		c6.943-2.547,10.379-7.335,10.365-14.689c-0.014-7.365-3.446-12.394-10.317-14.746c-6.857-2.347-13.942-2.251-21.27-1.853
		C491.465,251.198,491.465,261.932,491.465,273.282z"/>
	<path style="fill:#35363C;" d="M642.016,246.582c0,23.943,0,47.886,0,71.991c-1.947,0.611-3.724,0.278-5.854,0.286
		c0-28.033,0-55.901,0-83.829c1.561-0.725,3.193-0.468,5.257-0.151c20.792,23.953,41.784,48.135,63.542,73.201
		c0-25.148,0-49.042,0-72.837c2.256-0.993,4.202-0.565,6.473-0.535c0,28.016,0,55.73,0,83.571c-0.603,0.921-1.68,0.591-2.636,0.637
		c-0.826,0.04-1.656,0.008-2.845,0.008c-20.932-24.119-41.953-48.34-62.973-72.56C642.659,246.437,642.337,246.509,642.016,246.582z
		"/>
	<path style="fill:#36373E;" d="M1008.456,191.781c-3.077,0-5.381,0-7.922,0c-5.117-7.897-10.275-15.821-15.393-23.77
		c-2.343-3.639-4.904-7.103-7.578-10.51c-2.427-3.092-5.61-4.835-9.247-5.364c-5.414-0.787-10.905-0.419-16.851-0.279
		c0,13.426,0,26.506,0,39.639c-2.559,0.636-4.63,0.543-6.959,0.151c0-27.925,0-55.681,0-83.463c0.534-0.201,0.996-0.53,1.454-0.526
		c8.988,0.094,17.983-0.411,26.964,0.352c2.853,0.242,5.582,1,8.174,2.096c7.278,3.078,11.915,8.389,12.811,16.413
		c0.994,8.899-1.996,16.029-9.919,20.714c-1.546,0.914-3.152,1.727-4.815,2.632C990.847,162.464,998.445,177.605,1008.456,191.781z
		 M951.475,145.862c6.039,0,11.834,0.148,17.615-0.064c2.791-0.103,5.598-0.749,8.228-1.811c4.185-1.69,7.344-4.413,8.758-8.894
		c3.126-9.908-2.046-18.727-12.608-20.939c-7.175-1.503-14.476-1.342-21.992-0.964C951.475,124.02,951.475,134.616,951.475,145.862z
		"/>
	<path style="fill:#3A3A40;" d="M801.907,152.274c0,13.208,0,26.137,0,39.258c-2.183,0.637-4.14,0.375-6.069,0.308
		c-1.016-3.696-1.434-71.66-0.532-83.687c0.996-0.886,2.212-0.501,3.339-0.533c0.969-0.028,1.943,0.104,3.292,0.189
		c0,12.789,0,25.37,0,38.189c18.617,0,36.834,0,55.544,0c0-12.732,0-25.285,0-37.99c2.549-0.611,4.621-0.561,6.991-0.074
		c0,27.84,0,55.558,0,83.289c-0.889,1.116-2.141,0.62-3.246,0.698c-0.983,0.07-1.975,0.015-3.407,0.015c0-13.277,0-26.348,0-39.662
		C839.115,152.274,820.853,152.274,801.907,152.274z"/>
	<path style="fill:#35363C;" d="M877.428,235.064c1.94-0.804,3.896-0.372,6.309-0.343c0,12.791,0,25.341,0,37.783
		c4.43,0.983,51.166,1.032,55.79,0.1c0-12.377,0-24.82,0-37.33c2.289-1.095,4.344-0.695,6.368-0.439
		c0.602,4.192,0.69,78.661,0.105,83.729c-1.831,0.66-3.765,0.3-6.179,0.255c0-13.211,0-26.277,0-39.57c-18.75,0-37.014,0-55.774,0
		c0,13.03,0,26.076,0,39.316c-2.382,0.528-4.322,0.373-6.618,0.215C877.428,290.852,877.428,262.987,877.428,235.064z"/>
	<path style="fill:#32333A;" d="M1051.333,234.805c9.557,0.028,19.216-0.707,28.778,0.39c7.696,0.882,14.406,4.237,18.086,11.663
		c3.874,7.817,3.079,20.769-7.686,27.094c-1.568,0.921-3.181,1.768-5.124,2.844c11.206,12.752,19.227,27.614,29.101,41.728
		c-2.918,0.642-5.201,0.322-7.87,0.33c-4.709-7.464-9.51-15.019-14.25-22.61c-2.295-3.675-4.797-7.193-7.466-10.603
		c-3.383-4.324-7.78-6.705-13.266-6.84c-4.628-0.114-9.26-0.023-14.349-0.023c0,13.471,0,26.558,0,39.59
		c-2.185,0.881-3.975,0.486-5.724,0.442C1050.563,315.226,1050.331,241.09,1051.333,234.805z M1057.373,273.022
		c7.736-0.236,15.048,0.658,22.25-1.002c4.257-0.982,8.165-2.59,10.739-6.502c6.081-9.241,1.787-20.648-9.328-23.994
		c-7.706-2.32-15.64-1.529-23.661-1.373C1057.373,251.21,1057.373,261.786,1057.373,273.022z"/>
	<path style="fill:#35363C;" d="M637.362,107.801c1.632-0.344,3.554-0.282,5.362-0.003c1.103,1.36,0.633,2.748,0.636,4.027
		c0.034,14.329,0.011,28.657,0.026,42.986c0.005,4.843,0.525,9.592,2.248,14.192c4.593,12.257,14.994,18.266,27.666,17.719
		c16.935-0.732,26.118-13.05,26.659-27.988c0.542-14.976,0.233-29.982,0.295-44.975c0.008-1.819,0.001-3.638,0.001-5.439
		c2.303-1.141,4.385-0.751,6.759-0.407c0,5.131,0,10.111,0,15.09c0,11.496,0.194,22.997-0.06,34.488
		c-0.232,10.506-3.565,19.899-11.583,27.159c-5.897,5.339-12.883,8.154-20.829,8.328c-3.807,0.083-7.608,0.195-11.418-0.725
		c-13.482-3.256-21.421-11.914-25.083-24.984c-1.09-3.891-1.33-7.89-1.369-11.847c-0.148-15.16-0.063-30.323-0.063-45.485
		C636.611,109.28,636.541,108.598,637.362,107.801z"/>
	<path style="fill:#36373E;" d="M996.351,234.457c1.482-0.668,2.633-0.482,4.237-0.278c12.721,27.944,25.538,56.098,38.393,84.335
		c-2.27,0.678-4.252,0.381-6.73,0.307c-4.332-9.418-8.74-19.002-13.202-28.703c-13.55,0-27.001,0-40.975,0
		c-4.359,9.355-8.82,18.929-13.305,28.552c-2.183,0.422-4.306,0.331-7.112,0.009C970.63,290.441,983.461,262.513,996.351,234.457z
		 M998.673,244.965c-6.218,13.585-11.953,26.114-17.782,38.849c12.119,0,23.535,0,35.403,0
		C1010.453,270.937,1004.79,258.451,998.673,244.965z"/>
	<path style="fill:#38393F;" d="M1340.13,191.637c-2.39,0.62-4.372,0.361-6.815,0.273c-4.288-9.453-8.646-19.061-13.053-28.776
		c-13.604,0-27.063,0-41.022,0c-4.307,9.351-8.726,18.947-13.118,28.482c-2.267,0.843-4.409,0.126-7.436,0.644
		c13.21-28.754,26.091-56.791,38.799-84.452c1.483-0.981,2.623-0.774,4.249-0.465
		C1314.393,135.134,1327.164,163.171,1340.13,191.637z M1317.517,157.012c-5.907-13.021-11.608-25.588-17.664-38.939
		c-6.201,13.534-11.952,26.087-17.841,38.939C1294.009,157.012,1305.434,157.012,1317.517,157.012z"/>
	<path style="fill:#36373E;" d="M581.825,234.475c1.594-0.739,2.711-0.396,3.932-0.381c12.884,28.118,25.701,56.09,38.64,84.33
		c-2.469,0.804-4.524,0.513-6.754,0.323c-4.364-9.537-8.691-18.995-13.094-28.619c-13.605,0-27.213,0-41.274,0
		c-4.351,9.35-8.803,18.919-13.27,28.517c-2.25,0.429-4.359,0.428-6.856-0.053C556.151,290.315,569.069,262.219,581.825,234.475z
		 M601.569,283.956c-6.032-13.12-11.797-25.659-17.918-38.972c-6.113,13.52-11.79,26.077-17.621,38.972
		C578.025,283.956,589.323,283.956,601.569,283.956z"/>
	<path style="fill:#33353B;" d="M884.193,191.665c0-28.179,0-55.932,0-83.853c15.301,0,30.396,0,45.448,0
		c0.59,1.637,0.371,3.112,0.207,5.127c-12.841,0-25.713,0-38.69,0c0,11.456,0,22.369,0,33.661c12.652,0,25.077,0,37.413,0
		c0.658,1.992,0.512,3.619,0.174,5.626c-12.397,0-24.821,0-37.532,0c0,11.441,0,22.507,0,34.008c13.188,0,26.249,0,39.154,0
		c1.036,1.982,0.478,3.586,0.594,5.43C915.304,191.665,899.914,191.665,884.193,191.665z"/>
	<path style="fill:#36363D;" d="M803.908,305.405c0.704,2.488,0.504,4.416,0.331,6.452c-13.55,7.298-27.737,10.68-42.756,6.54
		c-16.541-4.56-27.629-15.391-31.162-32.285c-3.681-17.605,1.962-32.477,16.331-43.65c11.386-8.854,24.347-10.779,38.184-8.067
		c6.335,1.242,12.507,3.1,18.226,6.184c0.593,2.201,0.304,4.293,0.149,6.941c-4.602-1.627-8.47-3.802-12.7-5.039
		c-8.902-2.602-17.858-3.783-26.999-1.551c-14.923,3.643-25.968,17.472-26.621,32.848c-0.4,9.418,1.2,18.177,7.085,25.811
		c8.756,11.358,20.673,14.868,34.417,13.85C787.334,312.777,795.439,309.42,803.908,305.405z"/>
	<path style="fill:#36363D;" d="M1486.992,305.431c0.536,2.638,0.525,4.587,0.113,6.84c-14.859,7.43-30.209,10.703-46.49,4.913
		c-18.398-6.542-28.968-24.202-27.879-43.685c1.282-22.941,23.439-42.293,47.762-39.723c9.04,0.955,17.538,3.156,25.799,6.911
		c0.831,2.202,0.254,4.314,0.52,6.878c-4.879-1.556-8.882-3.87-13.282-5.147c-10.089-2.929-20.205-4.075-30.321-0.408
		c-13.702,4.967-22.952,18.375-23.34,32.916c-0.248,9.29,1.505,17.886,7.469,25.209c8.727,10.716,20.379,14.289,33.758,13.348
		c7.386-0.519,14.278-2.853,20.987-5.827C1483.576,306.998,1485.052,306.313,1486.992,305.431z"/>
	<path style="fill:#35363C;" d="M815.115,312.637c0-2.512,0-4.822,0-7.359c3.345,1.9,6.414,3.859,9.666,5.439
		c4.697,2.282,9.612,3.524,14.953,2.564c7.065-1.271,12.547-6.278,14.011-13.109c1.388-6.479-1.679-13.064-7.94-16.897
		c-3.557-2.177-7.473-3.599-11.337-5.097c-3.561-1.38-7.018-2.954-10.405-4.715c-12.168-6.329-12.107-20.375-7.58-27.89
		c4.959-8.232,12.498-12.282,22.018-12.252c6.729,0.021,13.058,1.925,18.916,5.418c0.568,2.239,0.288,4.366,0.26,6.56
		c-1.994,0.319-3.227-0.927-4.641-1.599c-5.306-2.52-10.739-4.324-16.76-3.8c-7.18,0.625-13.444,5.787-14.899,12.64
		c-1.174,5.531,0.489,10.175,4.826,13.801c3.236,2.705,7.143,4.174,10.987,5.736c4.3,1.748,8.611,3.441,12.78,5.526
		c14.239,7.119,13.454,25.981,5.394,34.152c-8.456,8.572-18.269,10.087-29.292,6.451C822.271,316.951,818.7,315.189,815.115,312.637
		z"/>
	<path style="fill:#36363D;" d="M1224.857,238.811c0,2.505,0,4.649,0,7.116c-4.38-2.126-8.4-4.407-12.951-5.404
		c-6.078-1.331-11.855-1.073-17.069,2.796c-8.771,6.508-8.535,18.231,0.527,24.319c3.466,2.328,7.377,3.743,11.222,5.289
		c3.226,1.297,6.519,2.466,9.633,3.996c8.725,4.287,12.982,12.004,12.079,21.5c-0.95,9.985-7.265,17.917-16.258,20.49
		c-8.65,2.475-16.746,0.721-24.546-3.191c-1.769-0.887-3.415-2.018-5.159-3.061c-0.481-2.357-0.228-4.666-0.196-7.402
		c2.3,0.584,3.805,2.108,5.551,3.114c6.148,3.542,12.471,6.235,19.834,4.882c6.693-1.23,12.211-6.309,13.418-12.481
		c1.394-7.129-1.215-13.168-7.374-17.126c-4.08-2.622-8.636-4.186-13.099-5.962c-2.152-0.856-4.271-1.797-6.397-2.718
		c-7.676-3.323-12.247-9.043-12.772-17.471c-0.56-8.984,3.556-15.7,11.047-20.365c6.783-4.224,14.222-4.137,21.699-2.572
		C1217.762,235.337,1221.345,236.693,1224.857,238.811z"/>
	<path style="fill:#35363C;" d="M1146.806,185.627c0-2.295,0-4.418,0-6.843c1.845-0.008,2.816,1.275,3.965,1.995
		c4.397,2.754,8.975,5.14,14.12,5.982c7.142,1.169,13.3-1.057,17.597-6.879c3.829-5.188,4.166-11.054,1.352-16.954
		c-1.334-2.797-3.597-4.69-6.188-6.316c-4.532-2.846-9.613-4.45-14.456-6.589c-1.968-0.869-3.957-1.692-5.938-2.533
		c-13.633-5.79-15.538-24.794-4.254-34.447c8.531-7.299,18.047-7.49,28.073-4.603c2.819,0.812,5.685,1.839,8.168,3.802
		c0,2.136,0,4.25,0,6.667c-2.22-0.258-3.739-1.629-5.483-2.389c-6.345-2.767-12.734-4.803-19.743-2.531
		c-7.228,2.344-11.36,8.21-11.113,15.803c0.156,4.797,2.793,7.997,6.44,10.633c3.54,2.558,7.668,3.892,11.614,5.61
		c3.798,1.653,7.701,3.125,11.331,5.094c14.372,7.795,13.019,28.191,2.334,36.421c-6.672,5.139-14.086,6.448-22.077,4.995
		C1156.789,191.497,1151.482,189.167,1146.806,185.627z"/>
	<path style="fill:#32333A;" d="M1410.384,107.982c15.24,0,30.301,0,45.41,0c0.706,1.579,0.443,3.027,0.218,4.965
		c-12.855,0-25.744,0-38.813,0c0,11.412,0,22.332,0,33.649c12.516,0,24.928,0,37.34,0c1.08,2.052,0.676,3.81,0.424,5.931
		c-12.493,0-24.921,0-37.651,0c0,11.446,0,22.528,0,34.006c13.001,0,26.08,0,38.944,0c1.476,1.813,0.948,3.414,0.756,5.233
		c-15.494,0-30.91,0-46.629,0C1410.384,163.905,1410.384,136.055,1410.384,107.982z"/>
	<path style="fill:#35363C;" d="M518.76,111.858c0.191,2.452,0.369,4.598-0.154,6.979c-4.463-1.934-8.666-4.235-13.356-5.368
		c-8.29-2.002-16.371,0.595-20.413,6.763c-4.609,7.034-2.783,15.956,4.214,20.536c3.359,2.198,7.108,3.581,10.788,5.103
		c3.065,1.268,6.201,2.378,9.214,3.758c8.927,4.09,13.523,11.113,13.212,20.932c-0.311,9.816-5.658,16.521-14.352,20.431
		c-9.064,4.076-17.884,2.063-26.392-2.117c-1.781-0.875-3.433-2.013-5.269-3.105c0-2.286,0-4.561,0-6.852
		c2.047-0.158,3.137,1.329,4.523,2.143c4.622,2.716,9.381,5.045,14.802,5.6c9.731,0.996,17.472-5.815,18.926-12.78
		c1.365-6.539-0.522-11.814-5.564-15.997c-3.235-2.684-7.135-4.213-10.995-5.739c-4.323-1.709-8.603-3.476-12.733-5.643
		c-13.039-6.842-12.348-22.858-5.516-30.833c5.61-6.549,12.725-9.28,21.21-8.919C507.157,107.015,512.941,108.848,518.76,111.858z"
		/>
	<path style="fill:#32333A;" d="M1169.145,312.936c0.855,2.291,0.54,3.873,0.401,5.718c-15.507,0-30.754,0-46.015,0
		c-0.968-3.431-1.253-76.463-0.281-83.659c14.889,0,29.812,0,44.839,0c1.111,1.475,0.634,3.033,0.413,4.89
		c-13.003,0-25.782,0-38.91,0c0,11.317,0,22.338,0,33.76c12.616,0,25.049,0,37.225,0c1.458,1.896,0.681,3.487,0.875,5.46
		c-12.819,0-25.245,0-37.549,0c-1.092,3.841-1.337,26.942-0.423,33.831C1142.77,312.936,1155.871,312.936,1169.145,312.936z"/>
	<path style="fill:#36373E;" d="M1236.522,112.928c0,26.776,0,52.714,0,78.87c-2.361,0-4.441,0-6.792,0c0-26.148,0-52.101,0-78.52
		c-10.476,0-20.704,0-30.757,0c-1.289-1.948-0.878-3.542-0.53-5.402c23.096,0,46.177,0,69.238,0
		c0.472,1.611,0.379,3.079,0.072,5.052C1257.58,112.928,1247.347,112.928,1236.522,112.928z"/>
	<path style="fill:#36363D;" d="M1399.744,107.836c0.33,1.824,0.41,3.275-0.081,5.067c-10.076,0-20.169,0-30.735,0
		c0,26.377,0,52.409,0,78.584c-2.474,0.853-4.544,0.446-7.039,0.486c0-26.37,0-52.423,0-78.87c-10.676,0-20.931,0-31.151,0
		c-0.954-1.927-0.521-3.483-0.352-5.267C1353.554,107.836,1376.494,107.836,1399.744,107.836z"/>
	<path style="fill:#35363C;" d="M753.905,191.821c-2.685,0-4.493,0-6.789,0c0-26.151,0-52.208,0-78.651c-10.734,0-20.994,0-31.144,0
		c-1.145-1.891-0.865-3.459-0.347-5.3c22.946,0,45.889,0,68.948,0c0.908,1.52,0.246,3.115,0.487,5.04c-10.434,0-20.531,0-31.157,0
		C753.905,139.3,753.905,165.341,753.905,191.821z"/>
	<path style="fill:#3C3C42;" d="M1300.664,318.688c-2.129,0.378-3.931,0.341-6.096,0.009c0-27.817,0-55.659,0-83.585
		c1.859-0.93,3.823-0.461,6.096-0.392C1300.664,262.681,1300.664,290.509,1300.664,318.688z"/>
	<path style="fill:#3C3C42;" d="M1241.601,333.208c-1.441-5.181,3.747-8.611,2.539-12.103c-0.3-2.53-1.785-1.893-2.661-2.866
		c0-3.317,0-6.918,0-10.854c2.621-0.817,5.332-0.336,8.302-0.308C1250.177,316.843,1250.857,326.278,1241.601,333.208z"/>
	<path style="fill:#32333A;" d="M1513.009,307.036c0,3.397,0,6.193,0,8.988c0,0.803,0,1.606,0,2.651
		c-2.588,0.6-4.982,0.296-7.65,0.219c0-3.883,0-7.594,0-11.605C1507.707,306.717,1510.104,307.068,1513.009,307.036z"/>
</g>
</svg>
