<?xml version="1.0" encoding="iso-8859-1"?>
<!-- Generator: Adobe Illustrator 27.0.0, SVG Export Plug-In . SVG Version: 6.00 Build 0)  -->
<svg version="1.1" id="Layer_1" xmlns="http://www.w3.org/2000/svg" xmlns:xlink="http://www.w3.org/1999/xlink" x="0px" y="0px"
	 viewBox="0 0 1198.152 83" style="enable-background:new 0 0 1198.152 83;" xml:space="preserve">
<g>
	<path style="fill:#1760AA;" d="M945.006,0c0.611,1.502,1.991,0.833,3.034,1.036c8.858,1.721,16.302,5.6,21.053,13.645
		c1.789,3.03,2.423,6.465,3.332,9.979c2.355,0,4.636,0,7.229,0c1.159-4.6-0.071-9.436,0.775-14.297c5.793,0,11.389,0,17.383,0
		c0.765,4.679,0.02,9.471,0.494,14.637c3.811,0,7.389,0,11.329,0c-0.019,4.083,0.314,7.67-0.303,11.383
		c-3.548,1.106-7.086,0.003-10.491,0.703c-1.18,1.069-0.665,2.492-0.675,3.757c-0.052,6.664-0.046,13.329-0.018,19.993
		c0.026,6.38,1.14,7.424,7.678,7.357c0.986-0.01,1.971-0.001,3.496-0.001c0.576,4.541,0.545,8.877-0.01,13.648
		c-6.51-0.076-12.606,0.819-18.709-0.595c-5.439-1.26-8.613-4.477-9.77-10.004c-0.692-3.305-0.806-6.594-0.82-9.914
		c-0.032-7.967-0.01-15.934-0.01-24.36c-3.051,0-5.8,0-8.92,0c0-3.362,0-6.289,0-9.706c-5.942,0-11.517,0-16.93,0
		c-3.182-9.975-12.073-13.418-20.533-8.394c-2.102,1.248-3.692,2.78-3.739,5.46c-0.052,2.964,2.141,3.885,4.275,4.865
		c4.415,2.026,9.202,2.726,13.872,3.839c5.17,1.233,10.307,2.546,15.11,4.922c7.08,3.503,11.614,8.804,11.985,16.993
		c0.42,9.252-2.247,17.059-10.587,22.165c-4.94,3.024-10.397,4.268-16.059,4.881c-0.91,0.099-2.068-0.354-2.471,1.008
		c-2.333,0-4.667,0-7,0c-2.283-1.955-5.255-1.184-7.861-1.933c-4.354-1.251-8.525-2.782-12.134-5.539
		c-6.53-4.987-9.32-11.811-9.593-20.197c6.651,0,13.203,0,19.732,0c0.976,0.974,0.587,2.244,0.885,3.335
		c0.734,2.696,2.21,4.951,4.694,6.17c5.15,2.528,10.549,2.852,15.9,0.688c2.808-1.135,4.45-3.283,4.445-6.561
		c-0.005-3.296-2.171-4.704-4.712-5.717c-4.177-1.665-8.668-2.171-13.007-3.242c-5.341-1.318-10.463-3.137-15.212-5.957
		c-15.219-9.037-13.66-27.839-1.666-36.688c4.769-3.518,10.172-5.481,16.001-6.36c0.912-0.138,2.063,0.284,2.529-1
		C941.006,0,943.006,0,945.006,0z"/>
	<path style="fill:#1660AA;" d="M435.006,83c-1.519-2.055-3.952-1.273-5.89-1.638c-12.413-2.333-21.224-9.379-26.434-20.574
		c-5.711-12.271-6.294-24.941-0.857-37.613c4.42-10.302,11.676-17.575,22.43-21.166c1.352-0.451,2.977-0.456,3.751-2.01
		c5.333,0,10.667,0,16,0c1.423,1.486,3.447,1.592,5.22,2.279c10.636,4.118,17.658,13.751,17.971,24.661
		c0.013,0.469-0.152,0.944-0.278,1.667c-5.787,0-11.552,0-17.346,0c-0.18-0.211-0.483-0.417-0.573-0.693
		c-1.432-4.375-3.058-8.294-8.539-9.19c-6.575-1.075-12.527-0.1-16.66,5.23c-7.525,9.704-7.839,24.834,0.207,35.295
		c2.716,3.531,6.453,5.666,11.14,5.739c6.703,0.106,11.407-3.51,12.887-10.057c0.289-1.277,0.205-2.66,1.225-3.793
		c6.375,0,12.787,0,19.54,0c-0.582,8.947-3.979,16.175-10.188,22.185c-5.229,5.062-11.621,7.518-18.648,8.638
		c-0.793,0.126-1.696-0.052-1.958,1.038C437.006,83,436.006,83,435.006,83z"/>
	<path style="fill:#1660AA;" d="M1037.006,83c-0.215-0.748-0.794-0.892-1.483-1.035c-12.599-2.609-19.844-10.911-23.155-22.758
		c-2.672-9.559-1.403-18.839,4.746-26.933c7.391-9.728,17.693-12.898,29.204-10.727c11.48,2.165,19.259,9.458,22.494,20.832
		c4.21,14.805-2.311,30.151-15.322,36.964c-2.667,1.396-5.456,2.394-8.472,2.669c-0.804,0.073-1.691-0.055-2.013,0.987
		C1041.006,83,1039.006,83,1037.006,83z M1042.336,37.021c-6.092-0.084-9.631,2.159-11.33,6.358
		c-2.219,5.486-2.22,11.068,0.106,16.48c1.71,3.978,4.853,6.259,9.371,6.214c4.381-0.044,7.744-1.856,9.537-5.951
		c2.453-5.602,2.487-11.297,0.124-16.949C1048.417,39.041,1045.147,37.146,1042.336,37.021z"/>
	<path style="fill:#1560AA;" d="M499.006,83c-0.563-1.69-2.245-1.227-3.369-1.546c-20.587-5.844-27.805-32.472-16.565-48.568
		c6.697-9.59,19.977-14.316,31.973-10.851c11.4,3.293,19.696,12.059,21.054,25.139c1.068,10.284-1.41,19.469-8.879,26.977
		c-4.235,4.258-9.307,6.887-15.244,7.814c-0.794,0.124-1.699-0.051-1.97,1.034C503.673,83,501.34,83,499.006,83z M514.12,51.539
		c0.183-2.607-0.236-5.213-1.161-7.718c-1.565-4.232-4.995-6.684-9.401-6.822c-4.853-0.152-8.372,1.975-10.129,6.444
		c-2.078,5.287-2.059,10.693-0.061,15.996c1.689,4.483,5.22,6.699,10.006,6.612c4.665-0.085,8.009-2.557,9.651-7.133
		C513.872,56.556,514.249,54.122,514.12,51.539z"/>
	<path style="fill:#1660AA;" d="M846.695,61.156c-2.776,9.405-8.635,15.295-16.818,18.637c-16.923,6.91-37.531-1.366-41.163-23.933
		c-2.342-14.553,5.872-30.643,23.145-34.194c17.545-3.607,34.8,6.079,36.432,25.031c0.291,3.384,0.141,6.579-0.558,10.284
		c-13.008,0-26.089,0-39.183,0c0.25,5.632,2.35,8.688,6.672,10.129c5.161,1.721,8.458,0.254,13.331-5.954
		C834.333,61.156,840.138,61.156,846.695,61.156z M828.976,44.906c-1.106-7.195-5.084-11.132-10.811-10.979
		c-5.578,0.149-9.177,4.079-9.869,10.979C815.046,44.906,821.777,44.906,828.976,44.906z"/>
	<path style="fill:#1B61AB;" d="M674.566,43.333c0.523-4.975-0.666-6.758-4.976-7.961c-5.457-1.524-9.599,0.497-12.643,6.393
		c-5.406,0.515-10.969,0.153-16.758,0.182c0.42-7.378,3.818-12.28,9.836-15.46c9.09-4.802,18.631-5.724,28.489-2.963
		c9.432,2.643,14,8.653,14.154,18.567c0.106,6.823,0.006,13.648,0.025,20.472c0.016,5.787-0.344,11.604,1.636,17.643
		c-3.167,0.896-6.13,0.413-9.019,0.438c-2.809,0.024-5.646,0.352-8.389-0.252c-1.352-1.042-1.016-2.831-1.93-3.867
		c-0.309-0.407-0.552-0.365-0.9-0.097c-7.39,5.674-15.67,6.912-24.5,4.569c-6.576-1.745-10.586-6.143-11.448-12.944
		c-0.902-7.117,0.959-13.214,7.524-17.128c4.952-2.953,10.538-3.845,16.074-4.94C665.938,45.157,670.282,44.989,674.566,43.333z
		 M673.569,54.542c-4.719,1.427-9.176,2.623-13.52,4.142c-2.821,0.987-4.34,3.806-3.837,6.209c0.496,2.371,2.442,3.893,5.522,4.113
		c1.649,0.118,3.326,0.101,4.972-0.055c3.305-0.312,5.459-2.057,6.397-5.329C673.895,60.867,674.134,58.114,673.569,54.542z"/>
	<path style="fill:#1D61AB;" d="M593.728,80.498c-5.873,0.314-11.615,0.276-17.223,0.04c-1.047-1.866-0.607-3.561-0.617-5.179
		c-0.051-7.999-0.02-15.999-0.026-23.999c-0.001-1.828-0.03-3.631-0.422-5.456c-1.158-5.389-2.541-6.851-7.29-7.259
		c-5.208-0.448-8.411,1.498-10.254,6.01c-1.046,2.561-0.995,5.206-1.002,7.86c-0.023,9.157-0.009,18.315-0.009,27.821
		c-6.107,0-11.99,0-18.221,0c0-18.732,0-37.29,0-56.096c5.686,0,11.279,0,16.876,0c1.362,1.304-0.098,3.241,1.322,4.876
		c3.907-4.557,9.167-6.401,14.896-6.758c13.396-0.835,21.848,5.464,22.19,19.448c0.298,12.159,0.067,24.331,0.053,36.497
		C594.001,78.938,593.847,79.573,593.728,80.498z"/>
	<path style="fill:#1D61AB;" d="M726.667,24.202c5.877,0,11.486,0,16.983,0c0.926,1.517,0.155,3.083,0.86,4.833
		c3.981-3.702,8.483-5.844,13.733-6.551c4.582-0.617,8.993-0.148,13.178,1.59c8.091,3.359,10.269,10.489,10.504,18.267
		c0.321,10.644,0.11,21.304,0.068,31.957c-0.008,1.96,0.374,3.964-0.45,6.23c-5.67,0.258-11.407,0.276-17.032-0.016
		c-1.072-1.804-0.613-3.5-0.623-5.111c-0.052-8.322-0.018-16.645-0.029-24.968c-0.002-1.657-0.024-3.289-0.424-4.947
		c-1.199-4.971-2.807-6.557-7.61-7.087c-4.002-0.442-8.062,1.843-9.703,5.544c-1.028,2.318-1.247,4.796-1.241,7.311
		c0.017,7.99,0.033,15.98-0.02,23.969c-0.011,1.614,0.446,3.312-0.652,5.15c-5.601,0-11.347,0-17.065,0
		C726.093,76.73,725.727,34.847,726.667,24.202z"/>
	<path style="fill:#2062AB;" d="M605.361,10.359c6.012,0,11.78,0,17.81,0c1.199,4.602,0.079,9.294,0.704,14.082
		c3.36,1.416,7.122-0.2,10.786,0.998c0,3.598,0,7.191,0,11.039c-3.396,0.965-6.925-0.043-10.15,0.59
		c-1.218,1.045-0.782,2.292-0.789,3.386c-0.044,7.165-0.069,14.332-0.007,21.497c0.044,5.047,1.238,6.212,6.157,6.311
		c1.471,0.03,2.962-0.459,4.73,0.32c0.467,4.102,0.451,8.326-0.08,13.213c-6.712,0.049-13.268,0.998-19.811-0.799
		c-4.838-1.329-7.65-4.598-8.569-9.381c-0.625-3.253-1.094-6.55-1.047-9.91c0.093-6.664,0.027-13.331,0.027-19.997
		c0-1.461,0-2.923,0-4.813c-3.177,0-5.935,0-8.88,0c0-4.193,0-7.926,0-11.95c2.85,0,5.468,0,8.312,0
		C605.808,20.066,604.611,15.232,605.361,10.359z"/>
	<path style="fill:#1660AA;" d="M873.009,80.475c-6.342,0-11.94,0-17.837,0c0-18.735,0-37.274,0-56.146c5.587,0,11.296,0,17.31,0
		c0.116,1.994,0.23,3.939,0.382,6.538c4.674-4.942,9.897-7.942,16.934-8.618c0.416,5.768,0.143,11.437,0.182,17.456
		c-4.857-0.054-9.039,0.829-12.585,4.069c-2.895,2.645-4.522,5.492-4.432,9.505c0.163,7.31,0.046,14.627,0.046,21.941
		C873.009,76.858,873.009,78.496,873.009,80.475z"/>
	<path style="fill:#2563AC;" d="M718.548,80.637c-6.294,0-12.07,0-18.078,0c0-19.009,0-37.766,0-57.208
		c6.004-0.263,11.892-0.102,18.078-0.103C718.548,42.589,718.548,61.476,718.548,80.637z"/>
	<path style="fill:#2062AB;" d="M700.653,4.131c6.033,0,11.801,0,17.853,0c0.797,4.436,0.241,8.83,0.337,13.546
		c-6.083,0-11.964,0-18.19,0C700.653,13.425,700.653,9.049,700.653,4.131z"/>
	<path style="fill:#1560AA;" d="M257.952,80.335c0-19.686,0-39.145,0-58.968c-5.646,0-11.027,0-16.761,0c0,19.556,0,39.156,0,59.128
		c-6.718,0-13.109,0-19.927,0c0-19.451,0-39.035,0-59.236c-7.767,0-15.148,0-22.745,0c-0.366-6.023-0.361-11.428-0.032-17.046
		c26.208,0,52.134,0,78.391,0c0,8.02,0,15.947,0,24.759c4.03-4.79,8.377-7.445,13.805-8.256
		c13.805-2.063,20.858,5.076,23.145,15.569c0.527,2.419,0.795,4.939,0.814,7.416c0.084,11.331,0.037,22.663,0.034,33.995
		c0,0.824,0.066,1.671-0.864,2.66c-5.927,0-12.152,0-18.365,0c-0.801-1.917-0.409-3.761-0.418-5.554
		c-0.047-8.998-0.043-17.997-0.006-26.996c0.009-2.187-0.214-4.303-0.924-6.381c-1.286-3.76-3.09-5.281-6.763-5.58
		c-3.981-0.325-6.371,0.912-8.026,4.526c-1.833,4.004-2.116,8.345-2.148,12.669c-0.066,8.986-0.02,17.972-0.02,27.294
		C270.797,80.335,264.722,80.335,257.952,80.335z"/>
	<path style="fill:#1B61AB;" d="M146.473,3.09c3.481,0.13,7.288-0.727,10.806,0.518c1.219,1.89,0.518,3.385-0.041,4.986
		c-7.776,22.24-15.535,44.487-23.214,66.761c-0.898,2.604-2.437,3.823-5.126,3.751c-1.166-0.031-2.333,0.007-3.499,0.007
		c-30.996,0.001-61.992,0.002-92.987,0c-7.216-0.001-7.871-0.45-10.26-7.447C15.394,51.883,8.642,32.098,1.947,12.295
		C1.026,9.571-1.009,6.962,0.6,3.598C4.278,2.42,8.092,3.216,11.698,3.054c1.72,1.074,2.049,2.717,2.592,4.298
		c5.548,16.165,11.136,32.316,16.724,48.468c0.488,1.409,0.985,2.822,1.593,4.182c1.713,3.831,4.655,5.966,8.889,6.2
		c1.33,0.073,2.663,0.112,3.995,0.112c22.33,0.007,44.661,0.008,66.991-0.002c1.497-0.001,3.002-0.03,4.491-0.17
		c4.463-0.419,7.329-2.925,8.758-7.07c5.893-17.093,11.727-34.207,17.638-51.294C143.953,6.087,144.423,4.217,146.473,3.09z"/>
	<path style="fill:#1660AA;" d="M380.413,57.087c-13.121,0-26.055,0-38.965,0c-0.248,4.883,1.972,8.477,5.907,9.961
		c5.198,1.96,8.951,0.379,13.525-5.842c5.792,0,11.739,0,17.691,0c-0.58,11.971-15.822,22.211-31.48,20.685
		c-16.34-1.592-27.788-15.789-25.933-35.219c1.5-15.711,15.204-27.55,34.384-25.518C373.036,23.008,383.567,37.723,380.413,57.087z
		 M361.731,44.854c-1.946-8.113-5.709-11.45-12.005-10.872c-5.213,0.479-8.446,4.435-8.714,10.872
		C347.903,44.854,354.783,44.854,361.731,44.854z"/>
	<path style="fill:#1560AA;" d="M21.708,3.374c3.728-0.664,7.493-0.424,11.251-0.17c1.667,1.904,2.219,4.194,2.977,6.358
		c3.341,9.539,6.598,19.107,9.941,28.645c2.229,6.359,5.482,8.64,12.296,8.652c13.985,0.025,27.97,0.032,41.955-0.003
		c6.479-0.017,9.782-2.359,11.955-8.457c3.616-10.146,7.182-20.31,10.732-30.479c0.546-1.564,0.94-3.176,2.223-4.657
		c3.637-0.452,7.407-0.366,11.06-0.06c1.799,1.748,1.088,3.561,0.503,5.252c-5.152,14.88-10.317,29.755-15.554,44.605
		c-1.761,4.993-4.413,6.904-9.688,6.917c-21.644,0.052-43.287,0.026-64.931,0.017c-4.681-0.002-7.871-2.143-9.431-6.634
		c-5.22-15.029-10.471-30.047-15.674-45.081C20.84,6.88,20.409,5.394,21.708,3.374z"/>
	<path style="fill:#1660AA;" d="M43.018,3.223c3.627-0.363,7.261-0.329,11.073-0.01c2.282,3.903,3.402,8.253,4.86,12.45
		c3.586,10.329,4.914,11.336,15.762,11.336c3.999,0,7.999,0.024,11.998-0.006c6.19-0.046,9.067-2,11.261-7.861
		c1.687-4.504,3.197-9.075,4.776-13.619c0.275-0.792,0.552-1.572,1.557-2.292c3.483-0.391,7.255-0.315,10.88-0.04
		c1.765,1.839,1.029,3.643,0.452,5.332c-2.844,8.322-5.711,16.637-8.664,24.922c-1.736,4.869-4.142,6.639-9.305,6.671
		c-12.497,0.077-24.995,0.002-37.492,0.036c-4.578,0.013-7.541-2.121-9.027-6.402c-2.937-8.46-5.893-16.912-8.789-25.386
		C41.829,6.805,41.259,5.152,43.018,3.223z"/>
	<path style="fill:#1760AA;" d="M1170.91,61.141c-3.843,12.509-14.665,20.479-27.243,20.949
		c-13.566,0.507-25.031-7.396-28.868-19.306c-3.372-10.465-3.519-20.663,3.347-29.832c7.645-10.211,18.465-13.411,30.56-11.589
		c11.426,1.721,19.335,8.339,22.755,19.704c1.806,6.001,1.873,10.624,0.188,16.067c-12.786,0-25.72,0-38.656,0
		c0.17,5.817,2.146,8.618,6.804,10.068c4.975,1.55,8.634-0.15,12.89-6.061C1158.571,61.141,1164.534,61.141,1170.91,61.141z
		 M1153.056,44.927c-0.792-6.841-4.749-10.931-10.294-10.995c-5.818-0.067-9.252,3.514-10.378,10.995
		C1139.146,44.927,1145.877,44.927,1153.056,44.927z"/>
	<path style="fill:#2062AB;" d="M1076.378,80.518c0-18.83,0-37.367,0-56.248c5.748-0.558,11.461-0.197,17.484-0.252
		c0,2.447,0,4.556,0,7.58c5.195-5.442,10.458-9.161,17.81-9.141c0.365,5.735,0.276,11.305,0.068,17.213
		c-4.308,0.231-8.267,0.604-11.762,3.366c-3.413,2.696-5.321,5.732-5.289,10.085c0.058,7.813,0.02,15.627,0,23.44
		c-0.003,1.139,0.232,2.328-0.832,4.052C1088.375,80.738,1082.509,80.792,1076.378,80.518z"/>
	<path style="fill:#426EB3;" d="M1198.093,20.057c0.731,7.177-5.4,13.915-13.712,13.777c-9.335-0.155-13.683-7.241-13.595-13.496
		c0.11-7.735,5.682-13.353,13.575-13.397C1192.376,6.896,1198.052,12.318,1198.093,20.057z M1172.795,20.199
		c-0.243,8.302,6.313,11.487,11.524,11.708c6.65,0.283,11.82-4.774,11.889-11.34c0.071-6.738-4.691-11.542-11.521-11.626
		C1177.828,8.857,1172.833,13.585,1172.795,20.199z"/>
	<path style="fill:#3669B0;" d="M1188.749,14.981c1.073,3.251,0.516,5.39-2.389,6.391c1.033,1.829,1.925,3.406,2.953,5.227
		c-4.528,1.189-3.492-4.432-6.634-4.772c-1.477,1.306,0.111,3.492-1.136,4.909c-0.618,0.398-1.25,0.224-2.133-0.024
		c-0.657-4.173-0.237-8.451-0.222-12.907C1182.637,12.672,1185.709,13.351,1188.749,14.981z M1182.16,18.996
		c2.148,0.009,4.167,0.679,4.686-2.394c-1.628-0.758-3.068-1.08-4.686-0.141C1182.16,17.129,1182.16,17.754,1182.16,18.996z"/>
</g>
</svg>
