<?xml version="1.0" encoding="iso-8859-1"?>
<!-- Generator: Adobe Illustrator 27.0.0, SVG Export Plug-In . SVG Version: 6.00 Build 0)  -->
<svg version="1.1" id="Layer_1" xmlns="http://www.w3.org/2000/svg" xmlns:xlink="http://www.w3.org/1999/xlink" x="0px" y="0px"
	 viewBox="0 0 1528 338" style="enable-background:new 0 0 1528 338;" xml:space="preserve">
<g>
	<path style="fill:#545151;" d="M44.94,0.968C44.888,0.641,44.908,0.318,45,0c13.333,0,26.667,0,40,0
		c-0.118,0.367-0.236,0.735-0.353,1.102C71.411,1.057,58.176,1.013,44.94,0.968z"/>
	<path style="fill:#585655;" d="M1087,0c-0.126,0.372-0.252,0.744-0.378,1.116c-13.241-0.059-26.481-0.118-39.722-0.177
		c-0.066-0.324-0.033-0.637,0.1-0.939C1060.333,0,1073.667,0,1087,0z"/>
	<path style="fill:#807C7C;" d="M0,58c0.333-0.001,0.665-0.002,0.998-0.002C0.998,67,0.997,76.002,0.997,85.004
		C0.664,85.003,0.332,85.001,0,85C0,76,0,67,0,58z"/>
	<path style="fill:#999595;" d="M1528,89c-0.297-0.011-0.59,0.016-0.88,0.081c0.006-4.391,0.012-8.781,0.018-13.172
		c0.289,0.015,0.576,0.046,0.861,0.091C1528,80.333,1528,84.667,1528,89z"/>
	<path style="fill:#807C7C;" d="M1358.036,337.035c-0.012,0.322-0.024,0.643-0.036,0.965c-3.667,0-7.333,0-11,0
		c0.157-0.323,0.133-0.632-0.072-0.927C1350.631,337.06,1354.333,337.047,1358.036,337.035z"/>
	<path style="fill:#070707;" d="M448.829,240.195c0,21.788,0,43.399,0,65.471c9.543,2.797,19.786,3.856,29.904,6.657
		c0,6.493,0,13.111,0,20.083c-37.122,0-74.317,0-111.777,0c0-6.695,0-13.274,0-20.172c8.244-1.941,16.427-3.867,24.393-5.742
		c1.061-1.664,0.647-3.2,0.648-4.651c0.023-64.31,0.008-128.62,0.045-192.93c0.003-4.352-0.395-8.654-1.059-12.927
		c-1.344-8.651-7.185-14.189-16.783-15.957c-1.638-0.302-3.29-0.471-5.056-1.168c-0.683-3.326-0.239-6.811-0.314-10.265
		c-0.075-3.461-0.016-6.924-0.016-10.314c5.022-0.769,71.282-0.759,76.137,0.053c-1.453,9.641-0.499,19.448-2,29.965
		c2.271-3.055,3.983-5.486,5.826-7.814c11.049-13.958,25.569-21.839,43.061-24.46c17.864-2.677,35.201-0.798,51.48,7.168
		c19.589,9.585,31.825,25.665,38.56,46.103c3.289,9.979,4.6,20.305,5.421,30.801c1.293,16.543-0.773,32.567-6.422,48.004
		c-11.362,31.051-32.879,51.355-65.314,59.125c-22.34,5.351-44.189,3.666-65.105-6.438
		C450.031,240.58,449.564,240.459,448.829,240.195z M448.497,209.535c9.52,7.868,20.307,10.869,32.139,10.636
		c10.299-0.204,19.612-3.178,27.367-10.226c7.982-7.254,12.878-16.393,15.97-26.573c4.569-15.044,5.04-30.496,3.824-45.986
		c-0.714-9.104-2.698-18.065-6.834-26.348c-3.88-7.769-9.182-14.274-17.274-18.004c-13.91-6.412-33.586-3.216-44.182,10.52
		c-6.726,8.719-9.96,18.834-10.463,29.573C447.859,158.435,448.85,183.776,448.497,209.535z"/>
	<path style="fill:#060606;" d="M1358.036,337.035c-3.703,0.013-7.405,0.025-11.108,0.038
		c-10.794-2.337-16.193-12.579-16.884-22.631c-0.645-9.383,2.422-17.644,7.545-25.267c7.42-11.039,17.11-19.869,27.327-28.243
		c8.627-7.07,17.93-13.197,27.052-19.939c-2.775-13.477-5.531-26.932-8.317-40.381c-5.211-25.162-10.397-50.33-15.681-75.477
		c-1.941-9.239-3.967-18.456-6.341-27.606c-2.613-10.07-8.486-16.239-18.919-17.804c-0.811-0.122-1.583-0.508-2.611-0.85
		c0-6.851,0-13.765,0-20.921c23.903,0,47.649,0,72.131,0c8.99,47.831,17.834,95.864,26.88,144.359
		c5.511-5.225,9.831-10.885,14.289-16.394c13.222-16.339,24.404-33.966,32.537-53.394c5.933-14.173,9.865-28.861,10.016-44.37
		c0.008-0.829,0.001-1.659,0.001-2.811c-4.158,1.635-7.633,4.129-11.902,4.954c-13.305,2.572-25.676-6.283-28.144-19.637
		c-2.596-14.048,6.381-26.956,16.316-31.926c14.591-7.298,32.912-5.464,43.914,6.881c5.238,5.878,8.042,12.897,9.756,20.42
		c0.737,3.233,1.276,6.526,1.245,9.873c-0.006,4.391-0.012,8.781-0.018,13.172c-0.955,17.819-6.274,34.462-13.706,50.517
		c-8.989,19.419-21.097,36.815-34.725,53.213c-17.724,21.327-37.918,40.125-59.22,57.786c-0.896,0.743-1.737,1.566-2.688,2.229
		c-3.301,2.302-4.805,5.534-5.951,9.36c-5.184,17.306-11.309,34.258-21.013,49.658c-4.823,7.654-10.513,14.571-18.12,19.668
		C1367.543,334.295,1363.162,336.612,1358.036,337.035z"/>
	<path style="fill:#080707;" d="M279.903,138.065c-0.14-11.442,0.785-22.418-1.743-33.25c-3.034-12.997-11.129-20.88-24.124-23.512
		c-9.403-1.904-18.85-1.959-28.149,0.889c-0.934,0.286-1.811,0.76-2.766,1.169c6.496,7.425,8.118,15.901,5.344,25.158
		c-4.02,13.414-18.967,20.554-33.041,15.961c-9.183-2.997-15.664-11.492-16.456-21.113c-1.311-15.936,6.258-27.053,19.028-35.275
		c10.357-6.669,21.931-10.126,34.016-11.943c10.555-1.587,21.182-2.567,31.856-1.944c15.755,0.919,30.9,4.153,44.389,12.935
		c14.146,9.21,22.448,22.335,25.705,38.747c1.266,6.378,1.76,12.857,1.763,19.363c0.008,23.831-0.024,47.662,0.031,71.493
		c0.011,4.81-0.101,9.617,1.077,14.393c1.626,6.589,5.583,10.83,11.94,12.826c3.146,0.988,6.406,1.609,9.883,2.461
		c0,6.826,0,13.757,0,20.679c-3.698,0.824-54.753,1.121-63.634,0.35c-3.175-7.046-6.418-14.244-9.883-21.934
		c-4.363,5.159-8.912,9.459-14.125,12.986c-15.552,10.522-32.719,13.993-51.24,11.91c-8.826-0.993-17.274-3.058-25.158-7.224
		c-15.363-8.118-23.977-20.913-26.668-37.98c-1.158-7.344-1.01-14.595,0.64-21.792c3.495-15.246,12.732-26.036,26.388-33.203
		c12.055-6.326,25.065-9.481,38.484-11.17c13.611-1.713,27.273-1.221,40.93-0.982C276.041,138.09,277.692,138.065,279.903,138.065z
		 M279.884,160.978c-0.975-0.242-1.762-0.559-2.569-0.62c-11.707-0.885-23.356-0.324-34.561,3.275
		c-7.931,2.548-13.805,7.763-16.35,16.13c-1.632,5.367-1.966,10.859-1.215,16.308c1.341,9.736,6.64,16.602,16.202,19.495
		c9.298,2.814,18.489,2.264,26.927-2.876c6.561-3.997,11.165-9.822,11.458-17.706C280.198,183.685,279.884,172.358,279.884,160.978z
		"/>
	<path style="fill:#060505;" d="M792.776,154.457c-41.188,0-81.809,0-122.619,0c-0.519,5.128,0.891,9.779,1.847,14.426
		c1.958,9.509,5.494,18.403,11.297,26.297c9.597,13.054,22.817,19.311,38.65,20.885c19.152,1.903,35.574-4.368,50.144-16.386
		c1.906-1.572,3.782-3.179,5.913-4.973c4.542,4.35,8.949,8.57,13.432,12.863c-2.78,4.942-6.14,9.071-9.7,12.994
		c-15.364,16.927-34.49,26.65-57.15,29.482c-19.115,2.389-37.857,0.88-55.983-5.85c-28.214-10.476-46.274-30.66-54.153-59.399
		c-7.099-25.893-6.004-51.768,4.915-76.581c11.481-26.09,31.404-42.7,58.931-50.17c19.019-5.161,38.257-5.579,57.24-0.757
		c30.026,7.628,48.859,26.981,56.379,57.074C795.185,127.434,795.063,140.655,792.776,154.457z M738.29,129.752
		c0.106-10.503-1.187-20.439-5.222-29.911c-7.811-18.336-25.627-21.563-40.104-15.261c-8.978,3.908-14.401,11.445-18.035,20.312
		c-3.229,7.88-5.012,16.087-5.326,24.86C692.381,129.752,715.099,129.752,738.29,129.752z"/>
	<path style="fill:#070707;" d="M968.247,65.497c0,15.461,0,30.583,0,45.983c-6.516,0-12.782,0-19.159,0
		c-1.504-1.989-1.935-4.501-2.948-6.743c-5.963-13.197-16.173-20.636-30.381-22.909c-9.167-1.467-18.225-1.715-26.933,2.084
		c-10.446,4.557-14.345,12.63-12.712,23.308c0.656,4.292,3.272,7.526,7.041,9.815c5.341,3.243,11.286,4.633,17.279,6.006
		c13.732,3.148,27.735,5.025,41.304,8.948c6.881,1.989,13.538,4.559,19.627,8.258c8.756,5.319,15.423,12.655,18.888,22.467
		c5.323,15.075,5.605,30.32,0.292,45.407c-5.763,16.366-17.776,26.921-33.227,33.871c-10.219,4.596-21.073,6.72-32.167,8.086
		c-8.485,1.045-16.961,1.179-25.427,0.75c-19.902-1.008-39.111-5.096-57.075-14.069c-1.457-0.728-3.096-1.258-4.127-2.643
		c-0.525-4.864-0.467-42.63,0.106-47.117c6.207,0,12.455,0,18.966,0c2.397,5.911,4.613,11.942,8.153,17.408
		c6.83,10.546,16.414,16.612,28.687,18.706c9.597,1.638,19.209,1.878,28.751-0.138c5.066-1.07,9.737-3.283,13.706-6.736
		c6.225-5.415,8.203-12.346,6.815-20.26c-1.044-5.954-5.171-9.474-10.405-11.859c-5.94-2.707-12.348-3.768-18.659-5.145
		c-13.273-2.896-26.756-4.893-39.734-9.05c-12.756-4.085-24.177-10.158-31.616-21.966c-3.689-5.856-6.047-12.262-6.879-19.035
		c-1.471-11.97-1.316-23.874,3.233-35.373c4.778-12.077,12.861-21.157,24.067-27.628c9.037-5.218,18.812-8.135,29.015-9.892
		c22.519-3.879,44.72-1.607,66.781,3.394C955.807,60.855,961.967,62.731,968.247,65.497z"/>
	<path style="fill:#050505;" d="M1046.9,0.939c13.241,0.059,26.481,0.118,39.722,0.177c0.082,8.989,0.198,17.977,0.236,26.966
		c0.041,9.656,0.009,19.312,0.009,29.469c19.29,0,38.36,0,57.713,0c0,9.398,0,18.296,0,27.714c-19.196,0-38.26,0-57.052,0
		c-0.96,1.758-0.646,3.112-0.647,4.411c-0.017,31.16-0.004,62.32-0.015,93.48c-0.002,5.171,0.392,10.25,1.725,15.305
		c2.698,10.23,9.769,16.517,22.506,16.45c11.53-0.06,22.396-2.784,31.44-10.584c0.496-0.428,1.124-0.702,2.076-1.283
		c3.085,6.592,6.125,13.089,9.214,19.69c-4.55,5.523-9.88,9.729-15.479,13.632c-16.766,11.689-35.355,16.558-55.657,14.495
		c-7.418-0.754-14.753-2.138-21.792-4.868c-16.56-6.423-25.503-18.867-28.855-35.88c-1.264-6.414-1.33-12.903-1.337-19.39
		c-0.033-33.16-0.015-66.319-0.016-99.479c0-1.798,0-3.596,0-5.842c-9.534,0-18.627,0-28.02,0c0-9.359,0-18.258,0-27.575
		c9.904,0,19.675,0,29.812,0c1.895-7.644,3.728-14.987,5.535-22.336c2.691-10.944,5.369-21.892,8.033-32.843
		C1046.21,1.994,1046.284,1.345,1046.9,0.939z"/>
	<path style="fill:#040404;" d="M0.997,85.004C0.997,76.002,0.998,67,0.998,57.998c7.957-0.63,15.928-0.089,23.89-0.29
		c1.804-0.046,3.642,0.32,5.777-0.425c2.415-9.745,4.884-19.648,7.321-29.559c2.052-8.347,4.072-16.702,6.085-25.059
		c0.158-0.654,0.263-1.292,0.869-1.697c13.235,0.045,26.471,0.089,39.706,0.134c0.081,7.322,0.207,14.644,0.233,21.966
		c0.04,11.323,0.01,22.645,0.01,34.466c19.277,0,38.344,0,57.699,0c0,9.395,0,18.294,0,27.709c-19.169,0-38.231,0-57.006,0
		c-1.024,1.74-0.689,3.097-0.69,4.391c-0.018,31.326,0,62.652-0.018,93.978c-0.003,5.178,0.5,10.24,1.877,15.278
		c2.733,10.002,9.758,15.928,21.811,16.011c11.702,0.08,22.749-2.626,31.944-10.548c0.497-0.428,1.12-0.708,2.1-1.314
		c3.085,6.582,6.125,13.069,9.22,19.674c-4.541,5.488-9.842,9.721-15.444,13.624c-16.766,11.682-35.347,16.589-55.649,14.523
		c-7.915-0.806-15.721-2.326-23.178-5.417C43.631,239.671,35.2,229.24,31.15,214.998c-2.205-7.754-2.453-15.741-2.454-23.737
		c-0.003-33.326,0.006-66.651-0.022-99.976c-0.001-1.795,0.384-3.644-0.536-5.819C19.185,85.313,10.091,85.158,0.997,85.004z"/>
	<path style="fill:#080808;" d="M1246.972,58.02c-0.611,11.595-1.274,22.7-1.164,34.176c1.987-1.209,2.323-3.09,3.1-4.591
		c6.091-11.775,14.15-21.776,25.968-28.191c10.229-5.552,21.057-6.963,32.263-3.301c12.132,3.964,20.055,16.571,18.716,30.277
		c-1.223,12.514-9.197,23.081-23.464,25.407c-10.675,1.74-21.638-4.307-26.285-14.125c-0.625-1.321-1.112-2.706-1.766-4.316
		c-5.409,2.172-9.047,6.277-12.293,10.656c-6.411,8.648-9.433,18.641-10.014,29.239c-0.483,8.807-0.197,17.657-0.205,26.489
		c-0.018,18.664-0.005,37.328-0.005,55.992c0,1.643,0,3.286,0,5.368c10.05,2.098,19.892,4.153,30.006,6.264
		c0,6.653,0,13.239,0,20.112c-37.102,0-74.174,0-111.614,0c-0.581-6.589-0.11-13.182-0.285-20.17
		c8.281-1.956,16.441-3.884,24.333-5.748c0.922-0.869,0.83-1.727,0.829-2.545c-0.018-38.328-0.059-76.656-0.034-114.983
		c0.002-3.373-0.517-6.668-1.272-9.881c-2.003-8.528-8.267-12.436-16.283-14.099c-1.769-0.367-3.565-0.533-5.355-1.251
		c0-6.893,0-13.682,0-20.779C1196.967,58.02,1221.673,58.02,1246.972,58.02z"/>
</g>
</svg>
