<?xml version="1.0" encoding="iso-8859-1"?>
<!-- Generator: Adobe Illustrator 27.0.0, SVG Export Plug-In . SVG Version: 6.00 Build 0)  -->
<svg version="1.1" id="Layer_1" xmlns="http://www.w3.org/2000/svg" xmlns:xlink="http://www.w3.org/1999/xlink" x="0px" y="0px"
	 viewBox="0 0 1138.947 974.995" style="enable-background:new 0 0 1138.947 974.995;" xml:space="preserve">
<g>
	<path style="fill:#1190C8;" d="M587.564,850.92c13.407-5.345,26.342-10.439,39.229-15.651
		c23.027-9.314,46.051-18.638,69.029-28.073c19.459-7.99,38.9-16.027,58.257-24.26c16.928-7.199,33.758-14.629,50.576-22.085
		c23.942-10.614,47.86-21.283,71.733-32.051c11.49-5.183,22.841-10.674,34.279-15.974c10.982-5.088,22.167-9.72,32.847-15.474
		c15.118-8.145,29.147-17.834,42.48-28.626c9.862-7.983,18.997-16.717,27.703-25.904c15.508-16.366,28.611-34.487,39.566-54.211
		c10.783-19.415,18.471-39.958,23.088-61.644c1.898-8.915,3.215-17.961,3.459-27.082c0.156-5.823,1.074-11.576,0.979-17.422
		c-0.687-42.317-12.173-81.359-35.006-117.058c-11.091-17.341-24.231-32.957-39.301-46.913
		c-14.188-13.138-29.654-24.713-46.569-34.048c-11.451-6.319-23.603-11.377-35.493-16.887c-10.078-4.671-20.206-9.235-30.354-13.752
		c-17.565-7.818-35.128-15.645-52.758-23.317c-18.23-7.933-36.529-15.709-54.815-23.514c-19.654-8.388-39.357-16.659-58.984-25.11
		c-19.18-8.259-38.308-16.639-57.427-25.039c-27.015-11.869-53.909-24.004-80.541-36.712c-1.494-0.713-2.96-1.485-4.435-2.228
		c0.242-1.298,1.252-1.4,2.141-1.732c24.19-9.03,48.543-17.6,72.872-26.247c28.381-10.087,56.927-19.665,85.545-29.043
		c28.452-9.324,57.087-18.078,85.868-26.306c21.93-6.269,44.141-11.55,66.187-17.422c16.786-4.471,33.687-8.458,50.759-11.604
		c11.388-2.099,22.855-3.751,34.46-4.635c9.991-0.761,19.958-0.967,29.915-0.631c19.008,0.641,37.492,4.239,55.137,11.531
		c8.731,3.608,15.181,10.166,20.804,17.441c9.201,11.904,14.523,25.536,17.081,40.332c2.508,14.505,5.377,28.948,7.791,43.468
		c1.982,11.92,3.557,23.908,5.258,35.873c1.631,11.472,3.28,22.943,4.75,34.436c0.905,7.07,1.458,14.184,2.225,21.272
		c0.891,8.236,1.91,16.459,2.744,24.701c0.417,4.125,0.756,8.278,1.004,12.4c0.65,10.778,1.775,21.515,2.452,32.291
		c1.062,16.909,2.25,33.805,3.084,50.731c0.327,6.641,0.285,13.303,0.827,19.921c0.926,11.296,0.432,22.637,1.186,33.91
		c0.578,8.656,0.44,17.292,0.71,25.935c1.124,35.967,1.313,71.952,0.687,107.919c-0.418,23.977-0.121,47.969-1.034,71.923
		c-0.565,14.815-0.082,29.643-0.962,44.422c-0.604,10.151-0.24,20.305-0.832,30.427c-0.483,8.26-1.67,16.481-2.612,24.712
		c-0.434,3.792-0.557,7.601-1.015,11.403c-1.112,9.22-1.489,18.526-2.358,27.779c-1.146,12.211-2.52,24.401-3.718,36.608
		c-0.811,8.256-1.287,16.549-2.284,24.78c-0.876,7.232-1.575,14.484-2.569,21.708c-1.151,8.365-1.976,16.779-3.236,25.139
		c-1.48,9.822-2.584,19.705-4.278,29.488c-2.595,14.989-5.32,29.967-8.88,44.764c-2.59,10.769-5.515,21.457-8.294,32.181
		c-1.333,5.143-4.496,9.219-7.893,13.087c-10.843,12.344-24.707,19.32-40.672,22.308c-8.984,1.681-17.975,2.348-27.205,1.351
		c-6.569-0.71-13.264-0.84-19.871-1.461c-7.58-0.712-15.163-1.467-22.721-2.497c-8.205-1.118-16.451-1.945-24.622-3.334
		c-12.395-2.108-24.837-3.968-37.178-6.353c-21.592-4.174-43.041-9.033-64.29-14.719c-16.134-4.317-32.191-8.891-48.172-13.766
		c-22.476-6.856-44.742-14.318-66.885-22.156c-21.535-7.622-42.934-15.62-64.173-24.032c-19.244-7.622-38.441-15.363-57.644-23.089
		c-7.834-3.152-15.636-6.384-23.434-9.626C590.44,852.921,588.976,852.553,587.564,850.92z"/>
	<path style="fill:#0E90C7;" d="M554.361,117.665c-10.403,4.917-20.108,9.609-29.903,14.107
		c-12.501,5.741-25.044,11.392-37.622,16.961c-17.734,7.852-35.491,15.653-53.287,23.365c-20.069,8.697-40.181,17.294-60.292,25.893
		c-19.806,8.468-39.672,16.797-59.441,25.349c-19.473,8.424-38.848,17.077-58.285,25.584
		c-24.617,10.774-48.972,22.123-73.203,33.725c-10.047,4.811-19.209,11.23-28.162,17.852c-11.923,8.819-23.143,18.469-33.321,29.28
		c-21.427,22.758-37.969,48.568-49.059,77.876c-5.656,14.947-9.506,30.334-11.671,46.091c-1.581,11.506-2.496,23.143-2.035,34.795
		c0.968,24.491,5.012,48.41,13.914,71.355c8.71,22.45,20.781,43.006,35.324,62.149c10.204,13.432,21.684,25.733,34.157,37.027
		c22.445,20.325,47.435,36.782,75.371,48.744c14.326,6.134,28.325,13.03,42.52,19.474c20.532,9.32,41.069,18.631,61.678,27.78
		c17.116,7.599,34.307,15.029,51.52,22.405c22.389,9.594,44.773,19.204,67.268,28.543c23.1,9.59,46.316,18.901,69.512,28.259
		c13.364,5.391,26.788,10.633,40.18,15.953c0.431,0.171,0.814,0.463,1.557,0.895c-2.821,2.469-6.223,3.22-9.301,4.477
		c-22.232,9.076-44.487,18.098-66.78,27.024c-22.289,8.924-44.774,17.342-67.354,25.5c-21.945,7.928-44.044,15.412-66.337,22.302
		c-30.662,9.476-61.569,18.017-92.929,24.946c-18.101,4-36.289,7.491-54.551,10.567c-10.442,1.758-20.969,3.098-31.488,4.44
		c-11.187,1.426-22.406,2.504-33.62,3.505c-14.373,1.283-28.821,2.223-43.033-1.759c-16.688-4.675-30.749-13.057-40.513-27.855
		c-2.937-4.45-3.731-9.554-5.099-14.438c-5.802-20.719-10.291-41.759-13.944-62.948c-2.503-14.515-4.666-29.096-6.454-43.735
		c-1.747-14.311-3.579-28.606-4.99-42.959c-0.989-10.066-2.087-20.12-2.952-30.201c-1.049-12.221-2.528-24.404-3.697-36.615
		c-0.838-8.755-1.381-17.539-2.221-26.294c-0.791-8.247-1.799-16.473-2.703-24.71c-0.091-0.827-0.166-1.66-0.171-2.49
		c-0.079-11.649-0.627-23.291-0.817-34.93c-0.54-32.972-1.089-65.947-1.638-98.916c-0.455-27.317-0.651-54.629-0.321-81.933
		C0.4,424.63,0.391,405.137,1.18,385.68c0.418-10.312,0.28-20.635,0.889-30.927c0.864-14.606,1.366-29.224,1.995-43.838
		c0.442-10.285,1.193-20.56,1.937-30.83c0.934-12.912,1.892-25.824,3.042-38.717c1.193-13.376,2.479-26.748,3.997-40.091
		c1.835-16.131,3.657-32.274,6.027-48.332c3.213-21.771,6.373-43.557,10.609-65.17c2.226-11.356,3.437-22.928,7.222-33.938
		c3.539-10.294,8.741-19.652,15.798-28.016c8.262-9.793,18.971-15.143,31.04-18.729c21.637-6.428,43.741-7.911,66.06-6.712
		c12.054,0.648,24.023,2.444,35.972,4.456c29.917,5.038,58.981,13.537,88.328,20.902c31.462,7.896,62.42,17.504,93.404,27.056
		c26.255,8.094,52.331,16.728,78.328,25.589c26.628,9.076,53.07,18.702,79.575,28.139c8.89,3.165,17.726,6.48,26.578,9.751
		C552.578,116.493,553.1,116.918,554.361,117.665z"/>
	<path style="fill:#050605;" d="M396.284,595.16c3.721,0.458,6.946,0.013,9.941-1.724c15.707-9.112,30.847-18.972,43.728-31.978
		c5.216-5.266,9.062-11.456,12.957-17.642c13.888-22.055,26.578-44.829,40.204-67.04c14.374-23.431,29.859-46.059,49.08-65.891
		c11.862-12.239,24.711-23.338,39.209-32.32c5.841-3.619,12.527-5.228,19.55-3.541c4.901,1.177,8.447,3.766,9.229,9.144
		c0.19,1.309,0.5,2.601,0.768,3.897c0.767,3.71,1.522,4.866,4.653,7.154c1.375-0.179,1.152-1.422,1.513-2.276
		c4.619-10.931,13.494-16.094,24.69-17.658c6.253-0.873,12.601-1.115,18.936-0.234c4.099,0.57,6.66,2.843,7.15,6.987
		c0.455,3.848,0.169,7.656-1.449,11.248c-9.247,20.534-17.442,41.51-26.102,62.29c-13.118,31.478-25.792,63.136-35.797,95.782
		c-2.134,6.962-4.112,13.972-6.206,20.947c-0.39,1.297-0.703,2.558-0.328,4.116c0.604,0.548,1.269,1.306,2.076,1.856
		c5.007,3.42,8.68,2.711,12.156-2.313c13.422-19.401,25.871-39.41,37.555-59.901c26.46-46.406,48.671-94.879,69.922-143.816
		c12.531-28.855,25.044-57.718,37.29-86.694c2.289-5.417,6.217-7.901,11.345-9.295c4.05-1.102,8.219-1.345,12.387-0.895
		c6.434,0.695,12.824,1.792,19.607,1.989c0.421,5.231,0.651,10.168-1.492,15.138c-36.577,84.835-73.073,169.706-109.591,254.567
		c-2.506,5.824-4.319,11.821-4.882,18.172c-0.329,3.71,0.204,7.239,1.707,10.756c4.812,1.213,9.232,0.299,13.422-2.101
		c2.613-1.497,5.019-3.315,7.115-5.45c8.631-8.789,16.794-17.888,23.346-28.477c17.5-28.286,31.82-58.147,44.799-88.687
		c9.196-21.639,18.204-43.359,27.039-65.147c2.677-6.601,7.358-9.789,14.056-11.075c6.875-1.32,13.614,0.162,20.409,0.457
		c2.646,0.115,5.277,0.59,8.231,0.938c1.115,5.309,0.081,10.63-1.205,15.929c-2.125,8.76-5.875,16.897-10.007,24.825
		c-5.609,10.765-9.052,22.393-13.852,33.475c-7.698,17.776-16.118,35.241-23.164,53.298c-6.227,15.956-11.049,32.305-13.063,49.372
		c-0.468,3.963-0.516,7.978-0.691,11.972c-0.24,5.511,4.112,8.828,9.495,7.401c2.937-0.778,4.885-2.718,6.619-5.016
		c8.217-10.892,15.601-22.326,22.316-34.198c13.658-24.147,24.398-49.643,34.846-75.275c10.747-26.366,21.049-52.925,34.079-78.297
		c0.752-1.464,1.546-2.905,2.422-4.545c6.663,0.793,13.222-0.162,19.81-0.92c5.902-0.679,11.641-0.333,16.309,4.888
		c-1.713,4.739-3.425,9.531-5.175,14.31c-15.663,42.788-34.066,84.43-52.697,125.975c-13.348,29.763-26.854,59.457-39.729,89.43
		c-0.521,1.212-1.028,2.464-1.767,3.542c-12.724,18.546-25.709,36.909-42.474,52.135c-11.675,10.604-24.558,19.312-40.258,22.845
		c-20.027,4.506-39.612,3.62-58.362-5.507c-8.496-4.135-15.583-10.065-21.75-17.223c-5.47-6.35-4.835-16.93,3.264-22.773
		c4.579-3.304,9.585-2.403,14.433-1.48c8.59,1.636,16.134,5.836,23.5,10.397c7.187,4.45,14.076,9.427,21.822,12.921
		c7.701,3.474,15.584,5.564,24.165,3.43c2.222-0.553,3.983-1.375,5.594-2.922c10.069-9.671,17.836-20.982,24.167-33.369
		c6.791-13.287,11.912-27.24,17.12-41.387c-1.567-0.724-2.385,0.37-3.226,0.869c-7.697,4.569-15.213,9.464-23.331,13.283
		c-7.269,3.42-14.779,5.814-22.999,5.494c-4.226-0.164-8.183-1.073-12.213-2.701c-3.9-7.294-5.018-15.318-5.59-23.445
		c-0.479-6.812-0.731-13.639-1.136-20.456c-0.086-1.45-0.008-3.008-1.331-4.236c-5.321,4.846-9.812,10.439-14.617,15.737
		c-6.713,7.4-13.127,15.084-20.906,21.456c-6.893,5.645-14.336,10.18-23.188,11.987c-5.446,1.112-10.941,0.876-16.41,0.235
		c-2.167-0.254-3.975-1.327-5.551-3c-4.511-4.791-6.743-10.619-7.834-16.912c-1.163-6.711-2.093-13.465-2.945-20.224
		c-0.274-2.174-0.946-4.197-1.517-6.624c-5.452,3.655-9.65,8.367-13.727,13.165c-4.85,5.709-9.485,11.6-14.297,17.342
		c-4.401,5.252-9.294,9.984-15.051,13.78c-8.234,5.431-17.138,6.869-26.674,4.588c-2.296-0.549-4.248-1.713-5.938-3.448
		c-5.806-5.961-8.556-13.323-9.903-21.315c-1.077-6.388-2.034-12.798-2.927-19.215c-0.234-1.68-0.716-3.231-1.583-5.328
		c-4.074,5.115-7.964,10.002-11.856,14.886c-7.386,9.268-15.061,18.273-24.841,25.152c-9.823,6.909-20.626,10.523-33.012,9.121
		c-5.728-4.833-8.763-11.408-10.697-18.524c-2.146-7.898-2.83-16.044-3.023-24.19c-0.161-6.812-0.638-13.584-1.327-21.003
		c-3.613,4.064-6.929,7.733-10.18,11.46c-9.418,10.798-18.618,21.807-29.167,31.547c-10.932,10.094-22.649,19.044-37.194,23.396
		c-8.365,2.503-16.912,4.227-25.447,1.146c-12.46-4.498-21.219-12.602-24.334-26.041c-4.169-17.986-5.616-36.219-4.128-54.546
		c3.065-37.73,16.86-71.433,39.743-101.439c13.615-17.853,29.187-33.691,48.421-45.654c8.372-5.208,17-9.678,26.814-11.396
		c8.31-1.455,16.24-0.075,23.654,3.812c3.3,1.73,5.473,4.849,7.549,7.87c4.519,6.576,6.731,13.973,7.56,21.859
		c2.481,23.583-5.106,44.289-18.756,62.914c-18.09,24.682-41.554,42.248-71.038,51.331c-4.745,1.462-9.425,3.139-14.195,4.51
		c-4.958,1.424-7.452,4.667-7.885,9.686c-0.702,8.129-1.597,16.253-1.132,24.431c0.435,7.673,1.779,15.167,5.038,22.195
		C389.986,587.627,392.525,591.707,396.284,595.16z M522.474,573.362c10.903-3.528,21.238-12.474,28.395-21.138
		c11.359-13.752,19.518-29.639,29.488-44.319c0.456-0.672,0.704-1.49,1.023-2.251c4.03-9.608,8.181-19.168,12.057-28.838
		c9.815-24.488,17.827-49.499,21.335-75.753c-3.326-3.806-3.826-4.006-9.381-3.551C554.973,444.964,528.032,503.716,522.474,573.362
		z M460.324,387.196c-15.46,15.043-27.341,32.363-37.209,51.129c-11.355,21.594-19.543,44.474-27.193,67.565
		c-0.099,0.297-0.012,0.656-0.012,0.99c0.526,1.246,1.199,2.367,2.485,3.23c13.068-9.708,25.282-20.369,35.927-32.815
		c15.11-17.666,26.353-37.269,31.088-60.259c1.412-6.855,2.077-13.802,2.2-20.779C467.708,390.777,465.301,387.904,460.324,387.196z
		"/>
	<path style="fill:#050606;" d="M312.039,364.846c0.825,15.621,1.728,31.231,3.62,46.783c2.55,20.961,4.986,41.944,6.96,62.966
		c1.839,19.578,2.366,39.231,1.146,58.891c-0.331,5.336-1.646,10.39-3.888,15.304c-10.701,23.449-26.674,41.872-50.037,53.468
		c-7.391,3.668-15.379,5.208-23.331,6.673c-8.663,1.595-17.461,2.577-26.316,2.163c-15.529-0.726-30.18-4.244-42.986-13.646
		c-11.472-8.423-18.843-19.513-21.752-33.434c-1.683-8.054-0.463-15.861,2.983-23.316c1.87-4.046,5.623-5.556,9.518-6.45
		c7.234-1.66,13.669-0.087,19.48,4.864c7.518,6.406,13.98,13.796,20.664,20.99c5.675,6.108,11.46,12.087,18.311,16.908
		c9.791,6.889,20.492,8.969,32.182,6.173c10.279-2.459,16.752-8.939,20.311-18.654c2.015-5.499,3.084-11.226,3.475-17.023
		c0.56-8.291,2.372-16.555,1.39-24.886c-1.186-10.061-2.643-20.097-4.26-30.099c-2.515-15.564-5.414-31.064-7.784-46.657
		c-1.45-9.539-2.828-19.094-3.633-28.687c-1.114-13.267-1.728-26.555-0.431-39.914c1.259-12.965,3.613-25.599,8.262-37.771
		c5.66-14.818,13.748-28.272,25.719-38.65c15.372-13.326,32.953-22.686,53.481-25.827c24.237-3.709,44.631,4.59,62.089,20.447
		c11.094,10.076,14.762,23.184,11.122,38.186c-1.672,6.892-6.314,9.973-12.411,11.299c-4.024,0.876-8.288,0.661-12.314-0.802
		c-2.539-0.922-4.631-2.315-6.361-4.533c-8.204-10.518-16.811-20.677-27.388-28.965c-7.137-5.592-14.946-9.784-23.827-11.922
		c-3.674-0.884-7.209-0.919-10.75,0.465c-8.2,3.205-14.471,8.647-18.92,16.22c-2.908,4.951-2.771,10.603-3.242,15.989
		C312.15,342.511,311.432,353.665,312.039,364.846z"/>
	<path style="fill:#333434;" d="M878.799,581.897c-0.082-8.078,6.366-14.689,14.307-14.668c7.682,0.02,14.253,6.514,14.407,14.239
		c0.155,7.777-6.672,14.703-14.474,14.685C885.332,596.135,878.878,589.673,878.799,581.897z M880.788,581.294
		c-0.131,7.216,5.181,12.798,12.219,12.841c6.761,0.042,12.354-5.301,12.662-12.096c0.306-6.751-5.505-12.753-12.423-12.831
		C886.412,569.131,880.912,574.467,880.788,581.294z"/>
	<path style="fill:#383838;" d="M899.651,589.859c-3.105-0.5-3.443-3.164-4.66-4.85c-1.182-1.637-2.053-3.478-4.648-2.551
		c-1.284,2.174,0.526,5.11-1.757,7.204c-1.11-5.272-0.695-10.538-0.739-16.091c3.066-0.16,5.668-0.269,8.294,0.121
		c2.134,0.318,3.885,1.13,4.285,3.458c0.427,2.486-0.793,4.102-3.071,4.992c-0.436,0.17-0.888,0.298-1.329,0.445
		C896.747,585.139,899.254,586.712,899.651,589.859z M890.001,575.258c-0.01,2.055-0.427,3.534,0.461,5.172
		c2.455,0.028,5.037,0.603,7.254-0.865c0.742-1.593,0.555-2.786-0.806-3.967C894.894,574.921,892.636,575.249,890.001,575.258z"/>
</g>
</svg>
