<?xml version="1.0" encoding="iso-8859-1"?>
<!-- Generator: Adobe Illustrator 27.0.0, SVG Export Plug-In . SVG Version: 6.00 Build 0)  -->
<svg version="1.1" id="Layer_1" xmlns="http://www.w3.org/2000/svg" xmlns:xlink="http://www.w3.org/1999/xlink" x="0px" y="0px"
	 viewBox="0 0 1593.012 223.016" style="enable-background:new 0 0 1593.012 223.016;" xml:space="preserve">
<g>
	<path style="fill:#444444;" d="M1593.012,146c-0.792,0.123-0.936,0.741-1.172,1.381c-3.498,9.505-10.809,14.407-20.282,16.553
		c-8.554,1.938-17.223,1.425-25.833,0.596c-5.108-0.492-10.237-1.124-15.244-2.432c-1.165-0.305-2.251-0.526-3.191-1.906
		c-0.139-3.586-0.651-7.51,0.296-11.224c2.083-1.583,4.13-0.932,6.032-0.67c8.912,1.227,17.847,1.964,26.851,1.814
		c2.352-0.039,4.61-0.429,6.88-1.021c3.865-1.008,5.835-3.648,6.579-7.34c0.726-3.603-0.515-6.48-3.402-8.784
		c-4.104-3.275-8.907-5.125-13.728-6.918c-5.596-2.081-11.305-3.865-16.875-6.01c-6.826-2.629-11.938-7.068-14.284-14.292
		c-3.554-10.944,0.506-21.229,10.627-26.624c7.568-4.034,15.846-4.964,24.18-4.946c8.813,0.019,17.567,1.187,26.208,2.994
		c1.105,0.231,2.138,0.81,3.408,1.308c0.76,4.425,1.548,8.721-0.703,13.174c-4.101-0.386-7.881-0.665-11.641-1.114
		c-6.113-0.73-12.247-1.147-18.395-1.294c-3.336-0.08-6.602,0.568-9.798,1.563c-1.617,0.503-3.078,1.251-4.346,2.357
		c-2.991,2.609-3.262,6.181-0.692,9.247c2.78,3.315,6.62,4.956,10.503,6.468c7.107,2.767,14.273,5.38,21.358,8.2
		c5.489,2.185,10.308,5.284,13.717,10.355c1.388,2.065,1.346,4.663,2.945,6.565C1593.012,138,1593.012,142,1593.012,146z"/>
	<path style="fill:#F36D29;" d="M126.012,0c0.635,0.713,1.373,1.359,1.886,2.151c1.495,2.308,1.242,4.387-0.642,6.215
		c-1.847,1.792-4.156,1.995-6.287,0.553c-1.984-1.343-2.597-3.684-1.683-6.106c0.4-1.062,1.762-1.504,1.726-2.812
		C122.679,0,124.346,0,126.012,0z"/>
	<path style="fill:#444343;" d="M672.46,164.081c-5.161,0.085-10.405,0.514-16.306-0.371c-0.097-9.736-0.034-19.173-0.045-28.608
		c-0.011-9.259-0.002-18.518-0.002-28.163c-1.905,1.326-2.243,3.033-2.915,4.455c-5.955,12.594-11.932,25.179-17.651,37.881
		c-1.508,3.35-3.486,4.592-7.152,4.86c-5.963,0.436-9.258-1.505-11.704-7.291c-5.353-12.665-11.621-24.944-17.499-37.389
		c-0.347-0.735-0.419-1.638-1.957-1.948c0,9.415,0.043,18.741-0.012,28.067c-0.054,9.272,0.255,18.556-0.239,28.172
		c-5.727,0.882-10.982,0.29-15.793,0.418c-1.682-1.342-1.375-2.757-1.375-4.046c-0.016-25.979-0.032-51.958,0.004-77.937
		c0.007-5.365,1.745-6.976,7.266-7.079c2.164-0.04,4.332,0.062,6.494-0.022c3.769-0.146,6.135,1.519,7.823,4.933
		c6.103,12.344,12.395,24.595,18.641,36.869c2.028,3.985,4.132,7.931,6.277,12.041c2.13-1.686,2.798-3.969,3.825-5.983
		c7.088-13.898,14.273-27.75,21.086-41.782c2.213-4.558,5.172-6.619,10.15-6.097c1.977,0.207,3.998-0.053,5.991,0.053
		c4.211,0.225,6.039,2.03,6.36,6.116c0.026,0.331,0.005,0.666,0.005,0.999c0,25.813-0.001,51.625,0.002,77.438
		C673.732,161,673.84,162.348,672.46,164.081z"/>
	<path style="fill:#434242;" d="M887.793,102.44c0,20.265,0,40.53,0,61.164c-5.268,0.985-10.114,0.775-14.473,0.277
		c-1.637-1.544-1.298-2.948-1.299-4.243c-0.015-25.821-0.022-51.643-0.002-77.464c0.004-5.149,1.71-6.931,6.761-7.056
		c3.663-0.091,7.331,0.046,10.994-0.037c3.334-0.075,5.463,1.31,7.221,4.248c11.435,19.103,23.037,38.107,34.604,57.131
		c0.74,1.218,1.106,2.778,3.18,3.566c0-21.251,0-42.259,0-63.613c5.423-2.211,10.516-1.387,15.19-0.813
		c1.297,1.483,1.036,2.694,1.037,3.832c0.012,25.988,0.019,51.976,0.001,77.964c-0.004,5.424-1.291,6.705-6.795,6.802
		c-3.83,0.068-7.667-0.099-11.493,0.045c-3.757,0.141-6.055-1.495-8.01-4.708c-10.452-17.178-21.099-34.237-31.7-51.323
		c-1.279-2.062-2.294-4.336-4.075-6.035C888.553,102.265,888.173,102.353,887.793,102.44z"/>
	<path style="fill:#464545;" d="M1495.082,163.667c-6.495-10.53-13.107-21.252-19.889-32.248c-6.297,0-12.566,0-19.512,0
		c0,10.546,0,21.255,0,31.7c-4.235,1.483-11.514,1.701-16.87,0.714c-1.541-1.34-1.53-3.163-1.53-5.015
		c0.01-25.487,0.012-50.974-0.005-76.461c-0.001-1.693,0.199-3.309,1.083-4.995c2.006-1.894,4.829-1.855,7.382-2.013
		c10.286-0.637,20.571-1.693,30.897-1.057c6.327,0.39,12.567,1.368,18.413,3.966c10.302,4.576,15.545,12.574,15.874,23.833
		c0.332,11.399-4.137,19.956-14.674,24.955c-0.74,0.351-1.472,0.721-2.677,1.313c6.997,11.601,13.878,23.01,20.776,34.447
		C1510.661,164.651,1501.361,164.978,1495.082,163.667z M1455.732,90.047c0,4.834-0.102,9.147,0.028,13.453
		c0.133,4.395-0.582,8.847,0.49,13.429c7.716,0,15.17,0.077,22.62-0.052c1.957-0.034,3.979-0.489,5.838-1.133
		c3.573-1.239,6.313-3.319,7.437-7.315c2.677-9.521-1.483-16.584-11.175-18.364C1472.744,88.555,1464.513,89.303,1455.732,90.047z"
		/>
	<path style="fill:#434242;" d="M1025.771,131.33c0,10.784,0,21.363,0,32.29c-5.994,1.124-11.521,0.436-17.404,0.459
		c0-29.113,0-57.655,0-86.297c2.158-2.638,5.493-2.257,8.284-2.414c9.947-0.557,19.886-1.744,29.879-1.08
		c5.652,0.375,11.246,1.141,16.599,3.064c15.787,5.672,22.859,23.312,15.432,38.422c-1.956,3.979-4.85,7.121-8.707,9.338
		c-1.861,1.07-3.748,2.097-5.96,3.332c2.989,4.978,5.934,9.911,8.908,14.827c3.266,5.398,6.58,10.767,9.827,16.176
		c0.742,1.236,1.876,2.425,0.995,4.431c-5.77,0-11.703,0-18.121,0c-6.542-10.611-13.23-21.462-20.066-32.55
		C1039.175,131.33,1032.898,131.33,1025.771,131.33z M1026.151,116.913c8.265,0.054,16.049,0.504,23.831-0.093
		c1.797-0.138,3.598-0.618,5.327-1.165c2.428-0.768,4.463-2.184,5.878-4.371c5.006-7.737,1.402-17.738-7.455-20.45
		c-9.094-2.785-18.278-1.442-27.581-0.791C1026.151,99.07,1026.151,107.675,1026.151,116.913z"/>
	<path style="fill:#444444;" d="M854.86,120.221c0.142,5.267,0.202,11.12-1.203,16.825c-3.571,14.503-13.037,23.223-27.274,26.757
		c-10.75,2.669-21.529,2.203-31.847-1.997c-10.266-4.179-17.535-11.554-20.355-22.427c-3.138-12.099-3.069-24.512-0.606-36.645
		c3.156-15.548,13.759-24.206,28.842-27.457c10.295-2.219,20.532-1.535,30.372,2.572c11.84,4.942,18.725,13.874,21.188,26.378
		C854.984,109.335,854.911,114.491,854.86,120.221z M836.194,120.127c0-3.326,0.152-6.661-0.028-9.978
		c-0.551-10.141-5.764-16.702-15.406-19.696c-2.761-0.857-5.59-0.769-8.406-0.719c-12.601,0.225-20.934,8.212-21.461,20.784
		c-0.25,5.978-0.249,11.981-0.04,17.962c0.412,11.806,6.841,19.511,18.411,21.182c13.173,1.903,23.485-3.56,26.534-16.595
		C836.782,128.861,836.351,124.452,836.194,120.127z"/>
	<path style="fill:#444343;" d="M563.918,119.952c0.171,5.996,0.319,12.01-1.241,17.868c-3.622,13.599-12.505,21.998-25.933,25.645
		c-11.073,3.007-22.142,2.682-32.791-1.62c-13.43-5.426-20.587-15.771-21.962-30.107c-0.716-7.467-0.594-14.944-0.171-22.443
		c0.969-17.169,11.474-30.296,30.138-34.097c9.107-1.855,18.164-1.356,27.099,1.522c15.5,4.993,23.674,17.243,24.823,32.741
		C564.138,112.939,563.918,116.453,563.918,119.952z M499.987,119.58c0,3.329-0.193,6.672,0.04,9.985
		c0.491,6.997,3.366,12.887,9.254,16.869c5.032,3.403,10.871,4.043,16.755,3.449c10.739-1.085,17.527-7.646,19.135-18.4
		c1.162-7.771,1.032-15.584,0.022-23.367c-1.198-9.224-6.435-15.035-15.272-17.685c-3.246-0.974-6.595-0.816-9.91-0.644
		c-9.406,0.487-16.551,6.411-19.146,15.416C499.491,109.968,500.168,114.786,499.987,119.58z"/>
	<path style="fill:#434242;" d="M463.069,163.991c-5.568,0.225-10.966,0.623-16.917-0.374c0-12.713,0-25.112,0-37.702
		c-13.864,0-27.141,0-41.001,0c0,12.292,0,24.688,0,37.546c-6.024,1.424-11.572,0.499-16.898,0.649
		c-1.594-4.023-2.206-63.35-1.093-87.134c0.811-1.539,2.226-1.967,3.79-1.855c4.54,0.325,9.239-0.936,14.044,1.135
		c0,11.265,0,22.355,0,33.639c13.73,0,27.008,0,40.773,0c0-10.934,0-22.006,0-33.478c6.095-2.269,11.835-1.404,17.472-0.728
		C464.353,80.57,464.264,159.501,463.069,163.991z"/>
	<path style="fill:#454444;" d="M1178.172,75.903c6.037-1.215,11.66-1.235,17.033-0.12c1.252,2.196,0.788,4.069,0.793,5.86
		c0.04,15.319,0.043,30.639,0.007,45.959c-0.008,3.339,0.198,6.639,1.015,9.882c1.542,6.125,5.192,10.295,11.36,12.032
		c5.728,1.613,11.487,1.573,17.186-0.098c7.08-2.077,10.414-7.308,11.455-14.24c0.319-2.125,0.256-4.317,0.258-6.479
		c0.019-15.819-0.004-31.638,0.018-47.457c0.007-5.466,0.644-6.096,5.916-6.143c2.664-0.024,5.331-0.077,7.992,0.014
		c3.638,0.124,4.494,0.872,4.505,4.408c0.054,17.651,0.594,35.325-0.129,52.946c-0.807,19.657-11.749,30.021-31.24,32.342
		c-7.411,0.883-14.929,0.702-22.273-1.32c-14.13-3.891-23.118-13.379-23.701-27.922
		C1177.582,115.968,1178.172,96.316,1178.172,75.903z"/>
	<path style="fill:#454444;" d="M1160.693,76.303c1.691,4.185,1.25,8.17,0.485,11.924c-2.063,1.358-3.945,0.97-5.743,0.976
		c-9.991,0.033-19.982,0.049-29.973-0.007c-2.519-0.014-4.963,0.201-7.996,1.238c-2.988,6.488-0.749,13.601-1.585,20.845
		c10.106,0,19.564,0,29.022,0c3.33,0,6.661-0.002,9.991,0.001c1.658,0.002,3.37-0.171,4.885,1.7
		c0.453,3.409,0.302,7.192,0.074,10.799c-1.473,2.159-3.526,1.949-5.525,1.948c-10.99-0.006-21.98-0.003-32.97-0.003
		c-1.624,0-3.248,0-5.309,0c0,6.65-0.156,12.941,0.058,19.22c0.13,3.81,1.713,5.072,5.892,5.12
		c7.992,0.092,15.985,0.029,23.978,0.03c3.83,0.001,7.662-0.077,11.489,0.025c3.225,0.086,4.165,0.953,4.218,4.192
		c0.043,2.624,0.546,5.325-0.602,8.116c-3.734,2.432-8.259,1.855-12.411,2.181c-10.779,0.847-21.636,1.111-32.417,0.19
		c-12.623-1.078-16.505-6.893-18.066-18.608c-0.24-1.805-0.175-3.657-0.177-5.487c-0.013-13.987,0.005-27.975-0.016-41.962
		c-0.005-3.337,0.291-6.617,0.977-9.896c1.681-8.038,6.765-12.802,14.888-13.835c5.618-0.715,11.253-1,16.91-0.917
		C1140.579,74.238,1150.365,74.7,1160.693,76.303z"/>
	<path style="fill:#454444;" d="M1371.921,111.279c12.773,0,24.767,0,36.762,0c1.166,0,2.333-0.025,3.499,0.009
		c2.393,0.07,3.71,1.264,3.731,3.716c0.019,2.166,0.086,4.336-0.013,6.497c-0.145,3.144-1.043,4.08-4.284,4.192
		c-3.661,0.126-7.33,0.03-10.996,0.031c-9.328,0-18.657,0-28.143,0c-1.066,3.315-0.404,6.641-0.533,9.903
		c-0.111,2.828-0.097,5.667-0.003,8.496c0.151,4.571,1.447,5.913,6.076,5.944c11.163,0.074,22.327,0.009,33.49,0.043
		c1.775,0.005,3.72-0.514,5.382,1.449c0.58,3.456,0.54,7.21-0.046,11.165c-4.679,1.807-9.568,1.812-14.289,2.064
		c-9.47,0.505-18.969,0.603-28.463,0.228c-2.695-0.106-5.316-0.552-7.863-1.244c-7.093-1.927-11.255-7.715-12.108-16.554
		c-0.192-1.987-0.308-3.99-0.303-5.985c0.04-15.324,0.131-30.648,0.173-45.973c0.007-2.349,0.38-4.618,0.923-6.893
		c1.917-8.032,6.575-12.315,14.734-13.347c10.105-1.277,20.219-1.138,30.358-0.305c4.805,0.395,9.643,0.357,14.406,1.263
		c0.842,0.16,1.613,0.362,2.467,1.252c0.589,3.484,0.575,7.231-0.004,10.798c-1.731,1.677-3.656,1.162-5.429,1.17
		c-9.664,0.043-19.328,0.021-28.992,0.021c-1,0-2-0.028-2.999,0.005c-6.38,0.214-7.499,1.351-7.53,7.718
		C1371.903,101.569,1371.921,106.196,1371.921,111.279z"/>
	<path style="fill:#444444;" d="M693.398,160.528c-0.703-6.092-0.599-8.429,0.529-11.881c1.821-1.233,3.847-0.583,5.759-0.318
		c8.913,1.238,17.853,1.919,26.857,1.785c2.36-0.035,4.623-0.438,6.88-1.059c3.605-0.993,5.593-3.538,6.408-6.97
		c0.839-3.533-0.244-6.549-3.109-8.896c-2.732-2.239-5.799-3.917-9.064-5.155c-6.046-2.294-12.149-4.442-18.252-6.58
		c-2.832-0.992-5.623-2.078-8.168-3.658c-7.596-4.713-11.206-11.705-10.891-20.522c0.307-8.59,4.83-14.621,12.407-18.459
		c7.314-3.705,15.257-4.612,23.246-4.639c8.984-0.031,17.896,1.198,26.705,3.007c1.101,0.226,2.128,0.808,3.213,1.234
		c0.511,4.212,0.404,8.159,0.125,11.903c-1.043,1.151-2.015,1.369-3.304,1.228c-7.597-0.831-15.202-1.608-22.814-2.286
		c-4.164-0.371-8.322,0.052-12.404,0.886c-1.937,0.396-3.848,1.1-5.498,2.274c-4.119,2.93-4.501,7.557-0.798,11.043
		c2.829,2.663,6.369,4.15,9.959,5.514c6.975,2.65,13.943,5.32,20.889,8.042c1.694,0.664,3.33,1.497,4.933,2.364
		c8.246,4.457,12.342,11.349,11.932,20.764c-0.411,9.435-4.811,16.402-13.179,20.824c-6.516,3.443-13.601,4.205-20.795,4.216
		c-9.668,0.015-19.244-0.953-28.687-3.123C695.27,161.833,694.35,161.607,693.398,160.528z"/>
	<path style="fill:#484646;" d="M1295.912,163.419c-1.388-4.478-0.432-9.307-0.594-14.035c-0.171-4.987-0.038-9.984-0.038-14.976
		c0-4.826,0-9.652,0-14.478c0-4.993,0-9.985,0-14.978c0-4.806,0-9.612,0-14.668c-4.806-0.768-9.439-0.148-14.034-0.375
		c-4.567-0.226-9.211,0.574-13.866-0.578c-0.677-4.496-0.363-8.599-0.256-12.391c1.345-1.932,3.039-1.854,4.708-1.854
		c21.801,0,43.602,0.001,65.403-0.001c1.506,0,3.023-0.061,4.538,1.615c0.422,3.805,0.448,8.032-0.151,12.972
		c-9.246,0.591-18.322-0.017-27.876,0.361c0,8.348,0,16.439,0,24.529c0,8.155,0.089,16.31-0.025,24.463
		c-0.113,8.092,0.523,16.216-0.398,24.102C1309.088,164.728,1301.118,164.851,1295.912,163.419z"/>
	<path style="fill:#484646;" d="M371.93,76.924c0.052,3.936,0.369,7.904-0.291,12.446c-9.145,1.34-18.417-0.084-27.747,0.813
		c-0.605,24.347,0.503,48.455-0.603,72.538c-0.012,0.27-0.382,0.523-0.912,1.205c-5.047,0.822-10.427,0.654-15.456,0.111
		c-2.024-2.203-1.634-4.437-1.635-6.569c-0.012-20.492-0.007-40.984-0.007-61.476c0-1.815,0-3.629,0-5.348
		c-1.712-1.2-3.426-0.686-5.032-0.703c-5.997-0.063-11.995-0.001-17.993-0.041c-1.614-0.011-3.381,0.465-4.882-1.275
		c-0.587-3.864-0.182-7.97-0.201-11.555c1.458-2.204,3.2-1.98,4.848-1.98c21.658-0.007,43.317-0.005,64.975-0.003
		C368.656,75.087,370.369,74.93,371.93,76.924z"/>
	<path style="fill:#F26A25;" d="M234.564,124.317c-7.315,0.02-13.22-5.673-13.215-12.739c0.005-7.211,5.71-12.644,13.101-12.84
		c7.394-0.196,13.077,5.665,13.202,12.719C247.779,118.583,241.877,124.298,234.564,124.317z"/>
	<path style="fill:#F26824;" d="M13.309,124.274c-7.343,0.064-13.123-5.451-13.305-12.565c-0.172-6.722,5.863-13.131,12.909-12.972
		c7.428,0.167,13.132,5.368,13.221,12.58C26.223,118.559,20.63,124.21,13.309,124.274z"/>
	<path style="fill:#F26A25;" d="M229.495,65.908c6.156,0.062,11.177,4.975,11.237,10.994c0.062,6.205-5.126,11.225-11.537,11.167
		c-6.214-0.057-11.133-4.882-11.184-10.97C217.957,70.819,223.063,65.843,229.495,65.908z"/>
	<path style="fill:#F26A25;" d="M18.099,157.062c-6.212-0.094-11.091-4.961-11.092-11.063c-0.001-6.301,5.103-11.188,11.579-11.087
		c6.146,0.096,11.139,5.058,11.146,11.077C29.739,152.203,24.532,157.159,18.099,157.062z"/>
	<path style="fill:#F26A25;" d="M229.459,157.125c-6.431,0.039-11.516-4.956-11.451-11.249c0.062-6.09,4.996-10.892,11.226-10.926
		c6.411-0.035,11.656,5.055,11.549,11.206C240.678,152.165,235.596,157.088,229.459,157.125z"/>
	<path style="fill:#F26A25;" d="M18.405,88.121C11.978,88.138,6.93,83.148,7.007,76.853c0.075-6.106,4.983-10.851,11.237-10.863
		c6.466-0.013,11.437,4.851,11.469,11.221C29.741,83.065,24.518,88.104,18.405,88.121z"/>
	<path style="fill:#F26A25;" d="M49.444,161.082c-5.409-0.086-9.901-4.448-9.978-9.687c-0.077-5.254,4.846-10.064,10.283-10.047
		c5.277,0.017,10.149,5.101,9.922,10.354C59.443,156.99,54.886,161.169,49.444,161.082z"/>
	<path style="fill:#F36B27;" d="M198.164,61.958c5.543,0.045,9.843,4.246,9.861,9.633c0.018,5.49-4.671,10.153-10.128,10.074
		c-5.262-0.077-9.835-4.629-9.892-9.846C187.944,66.191,192.354,61.911,198.164,61.958z"/>
	<path style="fill:#F26A25;" d="M214.876,59.103c-5.282-0.022-9.703-4.266-9.714-9.325c-0.011-5.203,4.758-9.79,10.027-9.645
		c5.04,0.139,9.567,4.778,9.476,9.711C224.571,55.009,220.218,59.125,214.876,59.103z"/>
	<path style="fill:#F36B27;" d="M214.974,163.941c5.307,0.014,9.674,4.203,9.701,9.306c0.026,4.945-4.533,9.539-9.554,9.627
		c-5.244,0.092-10.069-4.627-9.938-9.721C205.315,168.02,209.665,163.927,214.974,163.941z"/>
	<path style="fill:#F26A25;" d="M42.164,49.911c-0.078,5.341-4.167,9.254-9.595,9.182c-5.274-0.07-9.539-4.286-9.536-9.427
		c0.003-5.223,4.725-9.718,10.015-9.532C38.281,40.318,42.242,44.566,42.164,49.911z"/>
	<path style="fill:#F26A25;" d="M42.165,173.094c0.067,5.391-3.849,9.607-9.083,9.777c-5.298,0.172-9.962-4.262-10.022-9.529
		c-0.058-5.084,4.244-9.331,9.525-9.402C38.025,163.867,42.099,167.759,42.165,173.094z"/>
	<path style="fill:#F26A25;" d="M166.067,60.852c5.412-0.077,9.627,3.951,9.604,9.177c-0.022,4.96-4.129,9.001-9.249,9.099
		c-5.147,0.099-9.327-3.766-9.479-8.763C156.775,64.858,160.543,60.93,166.067,60.852z"/>
	<path style="fill:#F36B27;" d="M172.444,49.749c0.483-4.872,5.229-8.902,10.043-8.529c5.219,0.405,9.154,5.207,8.504,10.377
		c-0.594,4.724-5.252,8.503-9.877,8.011C176.031,59.069,171.977,54.459,172.444,49.749z"/>
	<path style="fill:#F26A25;" d="M81.096,162.196c-5.41,0.019-9.172-3.619-9.233-8.927c-0.06-5.181,3.807-9.17,8.994-9.277
		c5.267-0.108,9.796,4.225,9.706,9.287C90.473,158.319,86.376,162.178,81.096,162.196z"/>
	<path style="fill:#F26A25;" d="M56.86,172.338c0.098-5.079,4.28-9.123,9.296-8.988c5.064,0.136,9.059,4.318,8.958,9.376
		c-0.101,5.024-4.391,9.238-9.356,8.963C60.339,181.389,56.381,177.118,56.86,172.338z"/>
	<path style="fill:#F36B27;" d="M92.907,166.163c0.082-4.822,3.866-8.359,8.746-8.174c4.422,0.167,8.288,4.129,8.206,8.41
		c-0.086,4.511-4.346,8.451-8.932,8.26C96.45,174.472,92.831,170.639,92.907,166.163z"/>
	<path style="fill:#F36B27;" d="M193.39,202.996c-4.393-0.078-8.306-3.993-8.25-8.252c0.06-4.492,3.732-8.053,8.325-8.073
		c4.847-0.021,8.589,3.718,8.421,8.414C201.727,199.537,197.926,203.076,193.39,202.996z"/>
	<path style="fill:#F26A25;" d="M154.666,56.699c0.125,4.259-3.818,8.225-8.262,8.311c-4.836,0.093-8.396-3.163-8.539-7.809
		c-0.14-4.559,3.339-8.449,7.812-8.734C150.145,48.181,154.533,52.201,154.666,56.699z"/>
	<path style="fill:#F36B27;" d="M201.887,28.175c0.079,4.467-3.671,8.15-8.298,8.15c-4.674,0-8.447-3.581-8.449-8.018
		c-0.002-4.354,3.937-8.285,8.315-8.298C197.891,19.997,201.809,23.792,201.887,28.175z"/>
	<path style="fill:#F26A25;" d="M62.218,28.136c0.049,4.641-3.458,8.285-8.044,8.358c-4.386,0.07-8.277-3.769-8.295-8.183
		c-0.018-4.577,3.592-8.265,8.121-8.296C58.63,19.983,62.168,23.48,62.218,28.136z"/>
	<path style="fill:#F26A25;" d="M62.186,194.969c-0.068,4.631-3.64,8.1-8.269,8.03c-4.544-0.068-8.101-3.759-8.048-8.348
		c0.053-4.601,3.595-7.933,8.372-7.876C59.077,186.834,62.258,190.114,62.186,194.969z"/>
	<path style="fill:#F36C28;" d="M169.155,36.61c0.099,4.462-3.317,8.044-7.69,8.065c-4.271,0.02-8.151-3.717-8.119-7.819
		c0.031-3.949,3.615-7.627,7.613-7.813C165.343,28.839,169.059,32.27,169.155,36.61z"/>
	<path style="fill:#F36B27;" d="M93.672,185.664c0.119,4.012-3.841,7.955-8.018,7.983c-4.128,0.027-7.605-3.343-7.766-7.529
		c-0.172-4.47,3.143-8.028,7.572-8.126C89.788,177.896,93.546,181.406,93.672,185.664z"/>
	<path style="fill:#F36C28;" d="M67.946,125.124c4.217,0.073,7.965,3.961,7.792,8.083c-0.172,4.086-4.261,7.798-8.359,7.588
		c-4.072-0.209-7.413-3.781-7.381-7.89C60.032,128.521,63.579,125.048,67.946,125.124z"/>
	<path style="fill:#F26A25;" d="M32.361,125.666c0.388-4.21,4.463-7.519,8.649-7.023c4.579,0.543,7.486,4.077,7.037,8.557
		c-0.431,4.302-4.315,7.301-8.786,6.785C35.249,133.521,31.998,129.602,32.361,125.666z"/>
	<path style="fill:#F36B27;" d="M207.13,104.511c-4.24-0.095-8.013-4.041-7.772-8.128c0.255-4.316,3.964-7.585,8.391-7.394
		c4.246,0.183,7.442,3.538,7.387,7.753C215.08,101.123,211.488,104.608,207.13,104.511z"/>
	<path style="fill:#F36C28;" d="M187.173,90.286c-0.054,4.253-3.346,7.573-7.561,7.625c-4.413,0.054-7.832-3.451-7.755-7.952
		c0.073-4.281,3.354-7.581,7.584-7.629C183.883,82.28,187.231,85.726,187.173,90.286z"/>
	<path style="fill:#F36D29;" d="M130.967,169.901c-0.087,3.873-3.483,7.113-7.455,7.113c-4.187,0-7.664-3.515-7.494-7.576
		c0.161-3.844,3.66-7.255,7.464-7.275C127.452,162.142,131.058,165.869,130.967,169.901z"/>
	<path style="fill:#F36C28;" d="M131.161,53.496c-0.05,3.934-3.377,7.271-7.29,7.313c-3.697,0.039-7.443-3.573-7.519-7.25
		c-0.084-4.03,3.527-7.514,7.704-7.435C128.127,46.2,131.214,49.402,131.161,53.496z"/>
	<path style="fill:#F36C28;" d="M115.651,69.034c3.935-0.08,7.332,3.219,7.376,7.166c0.045,4.024-3.123,7.324-7.141,7.439
		c-3.737,0.107-7.382-3.393-7.539-7.239C108.194,72.673,111.722,69.114,115.651,69.034z"/>
	<path style="fill:#F36B27;" d="M139.166,147.464c-0.077,3.931-3.514,7.262-7.358,7.132c-3.943-0.133-7.06-3.502-6.949-7.509
		c0.115-4.124,3.278-7.17,7.335-7.063C136.225,140.131,139.246,143.354,139.166,147.464z"/>
	<path style="fill:#F36C28;" d="M150.025,130.849c3.993,0.024,7.004,2.961,6.974,6.803c-0.029,3.658-3.426,6.973-7.095,6.922
		c-3.756-0.052-6.955-3.309-6.906-7.03C143.051,133.608,145.973,130.824,150.025,130.849z"/>
	<path style="fill:#F36B27;" d="M104.907,85.919c0.034,3.74-3.129,6.928-6.898,6.954c-3.738,0.025-6.975-3.138-7.005-6.846
		c-0.031-3.774,3.072-6.909,6.868-6.938C101.622,79.06,104.873,82.216,104.907,85.919z"/>
	<path style="fill:#F36B27;" d="M78.279,7.989c3.721,0.095,6.644,3.008,6.608,6.586c-0.039,3.8-3.264,6.693-7.218,6.472
		c-3.562-0.198-6.579-3.426-6.394-6.839C71.466,10.697,74.622,7.895,78.279,7.989z"/>
	<path style="fill:#F36B27;" d="M78.133,215.01c-3.638,0.034-6.777-2.872-6.871-6.362c-0.093-3.442,2.949-6.539,6.553-6.67
		c4.002-0.146,7.119,2.756,7.073,6.584C84.845,212.123,81.857,214.975,78.133,215.01z"/>
	<path style="fill:#F26A25;" d="M176.16,14.615c-0.025,3.764-2.862,6.468-6.733,6.417c-3.844-0.051-6.586-2.832-6.538-6.63
		c0.048-3.774,2.88-6.466,6.744-6.411C173.508,8.046,176.186,10.763,176.16,14.615z"/>
	<path style="fill:#F36B27;" d="M107.843,199.006c-3.674-0.054-6.727-3.064-6.695-6.6c0.032-3.532,3.117-6.443,6.816-6.433
		c3.654,0.01,6.741,3.015,6.707,6.528C114.638,195.937,111.361,199.058,107.843,199.006z"/>
	<path style="fill:#F36C28;" d="M169.551,215.13c-3.764-0.011-6.61-2.774-6.675-6.483c-0.07-3.96,2.853-6.8,6.897-6.702
		c3.823,0.092,6.457,2.842,6.398,6.679C176.113,212.384,173.309,215.14,169.551,215.13z"/>
	<path style="fill:#F36B27;" d="M146.204,30.571c0.004,3.81-2.713,6.542-6.51,6.548c-3.716,0.005-6.632-2.833-6.679-6.502
		c-0.046-3.498,3.032-6.553,6.658-6.609C143.363,23.951,146.201,26.802,146.204,30.571z"/>
	<path style="fill:#F36C28;" d="M117.515,145.922c-0.003,3.438-2.76,6.137-6.365,6.232c-3.811,0.101-6.85-2.715-6.799-6.301
		c0.048-3.425,3.459-6.615,6.897-6.451C114.607,139.563,117.518,142.592,117.515,145.922z"/>
	<path style="fill:#F36D29;" d="M136.893,71.332c3.568-0.008,6.236,2.688,6.278,6.345c0.042,3.663-2.533,6.358-6.13,6.417
		c-3.802,0.063-6.885-2.903-6.751-6.494C130.414,74.278,133.509,71.34,136.893,71.332z"/>
	<path style="fill:#F36C28;" d="M46.166,103.021c-0.097,3.571-2.875,6.183-6.468,6.081c-3.619-0.103-6.421-2.864-6.39-6.297
		c0.032-3.515,3.395-6.67,6.89-6.463C43.703,96.55,46.264,99.416,46.166,103.021z"/>
	<path style="fill:#F36C28;" d="M214.163,120.014c0.071,3.44-2.715,6.503-6.045,6.646c-3.527,0.152-6.764-2.963-6.772-6.518
		c-0.008-3.423,2.801-6.152,6.394-6.21C211.354,113.874,214.09,116.465,214.163,120.014z"/>
	<path style="fill:#F36F2A;" d="M182.812,118.679c-3.384,0.052-6.563-3.05-6.453-6.296c0.103-3.038,3.245-6.043,6.286-6.011
		c2.99,0.032,6.168,3.153,6.227,6.116C188.931,115.433,185.798,118.634,182.812,118.679z"/>
	<path style="fill:#F36D29;" d="M201.609,148.151c-3.404,0.077-6.169-2.358-6.388-5.624c-0.215-3.214,2.919-6.418,6.262-6.4
		c3.001,0.016,6.086,3.039,6.175,6.053C207.749,145.262,204.897,148.078,201.609,148.151z"/>
	<path style="fill:#F36C28;" d="M58.747,110.662c-0.041-3.367,2.434-6.001,5.772-6.141c3.085-0.129,6.152,2.643,6.339,5.73
		c0.192,3.178-2.99,6.484-6.177,6.415C61.373,116.595,58.788,113.979,58.747,110.662z"/>
	<path style="fill:#F36C28;" d="M46.149,74.849c3.417-0.004,5.938,2.433,6.016,5.816c0.079,3.396-2.902,6.356-6.245,6.203
		c-3.132-0.144-5.898-3.065-5.875-6.204C40.069,77.483,42.829,74.853,46.149,74.849z"/>
	<path style="fill:#F36C28;" d="M101.651,13.013c-3.313-0.043-5.6-2.305-5.654-5.593c-0.059-3.571,2.269-5.732,6.007-5.575
		c3.131,0.132,5.757,2.794,5.643,5.723C107.532,10.532,104.755,13.053,101.651,13.013z"/>
	<path style="fill:#F36D29;" d="M146.1,13.014c-3.134,0.057-5.824-2.374-5.959-5.384c-0.15-3.347,2.411-5.829,5.968-5.785
		c3.115,0.038,5.774,2.603,5.772,5.566C151.879,10.353,149.191,12.958,146.1,13.014z"/>
	<path style="fill:#F36C28;" d="M101.632,221.16c-3.495-0.003-5.655-2.088-5.633-5.438c0.02-3.14,2.463-5.655,5.571-5.734
		c3.304-0.085,6.207,2.716,6.056,5.843C107.48,218.852,104.881,221.163,101.632,221.16z"/>
	<path style="fill:#F36D29;" d="M145.903,221.16c-3.36-0.014-5.754-2.275-5.77-5.449c-0.016-3.041,2.532-5.628,5.637-5.725
		c3.298-0.103,6.16,2.624,6.1,5.814C151.815,218.704,149.067,221.173,145.903,221.16z"/>
	<path style="fill:#F36C28;" d="M151.162,164.569c-0.035,3.27-2.483,5.604-5.695,5.429c-2.796-0.152-5.348-2.789-5.324-5.501
		c0.027-2.954,2.88-5.589,5.876-5.425C149.005,159.235,151.194,161.574,151.162,164.569z"/>
	<path style="fill:#F36C28;" d="M107.023,58.808c-0.112,3.01-2.508,5.255-5.552,5.202c-2.966-0.052-5.449-2.497-5.456-5.372
		c-0.008-3.072,2.813-5.721,5.864-5.509C104.798,53.333,107.13,55.907,107.023,58.808z"/>
	<path style="fill:#F36F2A;" d="M182.571,133.401c0.09,2.54-2.343,5.128-4.941,5.257c-2.666,0.132-5.254-2.078-5.473-4.674
		c-0.229-2.711,2.367-5.524,5.15-5.581C179.775,128.352,182.484,130.924,182.571,133.401z"/>
	<path style="fill:#F36D29;" d="M129.191,187.986c2.888,0.04,4.958,2.118,4.971,4.99c0.013,2.814-2.115,4.971-4.966,5.035
		c-3.089,0.069-5.326-2.201-5.196-5.271C124.121,189.903,126.259,187.945,129.191,187.986z"/>
	<path style="fill:#F36D29;" d="M195.678,160.152c-0.041,2.596-2.514,4.975-5.181,4.984c-2.719,0.009-5.226-2.279-5.336-4.87
		c-0.112-2.638,2.74-5.379,5.479-5.266C193.304,155.11,195.719,157.58,195.678,160.152z"/>
	<path style="fill:#F36D29;" d="M123.704,29.891c0.087,2.579-2.25,5.003-4.94,5.124c-2.874,0.13-5.541-2.362-5.473-5.114
		c0.063-2.572,2.542-4.91,5.211-4.915C121.189,24.982,123.616,27.269,123.704,29.891z"/>
	<path style="fill:#F36F2A;" d="M75.05,89.213c0.121,2.71-2.134,5.301-4.748,5.456c-2.592,0.153-5.166-2.231-5.298-4.905
		c-0.134-2.72,2.08-5.249,4.754-5.43C72.34,84.158,74.931,86.547,75.05,89.213z"/>
	<path style="fill:#F36D29;" d="M159.364,152.447c1.419-4.148,3.187-5.723,5.958-5.307c2.19,0.328,4.364,2.589,4.529,4.709
		c0.164,2.112-1.73,4.577-3.941,5.13C162.968,157.713,161.276,156.542,159.364,152.447z"/>
	<path style="fill:#F36F2A;" d="M123.704,213.121c2.739-0.063,5.209,2.285,5.185,4.928c-0.025,2.783-2.35,5.035-5.127,4.965
		c-2.643-0.066-4.687-2.057-4.8-4.674C118.837,215.411,120.858,213.186,123.704,213.121z"/>
	<path style="fill:#F36C28;" d="M57.273,57.944c3.022,0.027,4.943,2.022,4.892,5.083c-0.049,2.973-2.167,5.048-5.069,4.969
		c-2.748-0.075-5.109-2.492-5.049-5.168C52.111,59.996,54.334,57.918,57.273,57.944z"/>
	<path style="fill:#F36D29;" d="M82.632,65.995c2.669-0.056,5.154,2.253,5.254,4.881c0.101,2.662-2.174,5.02-4.955,5.135
		c-2.881,0.119-5.018-1.916-5.075-4.832C77.798,68.211,79.785,66.054,82.632,65.995z"/>
	<path style="fill:#F36F2A;" d="M100.026,133.489c0.104,2.607-1.945,5-4.396,5.134c-2.463,0.135-4.925-2.052-5.079-4.512
		c-0.154-2.454,1.969-4.831,4.507-5.046C97.605,128.85,99.923,130.915,100.026,133.489z"/>
	<path style="fill:#F3722E;" d="M159.195,125.726c-2.448,0.068-4.8-2.15-4.874-4.595c-0.072-2.407,2.194-4.755,4.647-4.816
		c2.418-0.06,4.863,2.215,4.925,4.584C163.954,123.215,161.575,125.659,159.195,125.726z"/>
	<path style="fill:#F36F2A;" d="M93.629,102.385c-1.524,4.153-2.796,5.201-5.75,4.67c-2.237-0.402-3.498-1.82-3.81-4.016
		c-0.292-2.059,1.355-4.379,3.37-4.936C90.101,97.367,91.701,98.474,93.629,102.385z"/>
	<path style="fill:#F36B27;" d="M152.502,94.15c-3.059,0.072-4.688-1.517-4.642-4.524c0.04-2.617,1.709-4.44,4.226-4.615
		c2.664-0.186,4.904,1.781,5.008,4.396C157.202,92.129,155.309,94.084,152.502,94.15z"/>
	<path style="fill:#F3722E;" d="M152.015,189.2c0.122,2.384-1.881,4.591-4.199,4.626c-2.211,0.033-4.524-2.101-4.686-4.325
		c-0.169-2.32,1.851-4.447,4.285-4.514C149.873,184.918,151.891,186.767,152.015,189.2z"/>
	<path style="fill:#F3722E;" d="M70.553,54.012c-2.458,0.045-4.465-1.837-4.556-4.272c-0.089-2.39,1.944-4.608,4.225-4.609
		c2.223-0.002,4.525,2.151,4.667,4.365C75.033,51.752,72.905,53.969,70.553,54.012z"/>
	<path style="fill:#F3722E;" d="M177.259,177.861c-2.364,0.007-4.335-2.063-4.32-4.54c0.015-2.477,1.98-4.389,4.458-4.339
		c2.419,0.049,4.571,2.18,4.489,4.446C181.808,175.587,179.441,177.854,177.259,177.861z"/>
	<path style="fill:#F36D29;" d="M104.631,33.43c-1.495,3.984-2.669,5.055-5.23,4.51c-2.108-0.449-3.502-1.619-3.588-4.013
		c-0.083-2.316,1.028-3.76,3.087-4.479C101.157,28.658,102.804,29.859,104.631,33.43z"/>
	<path style="fill:#F3722E;" d="M84.07,36.167c1.942-0.099,3.797,1.569,3.958,3.56c0.176,2.175-1.672,4.159-3.858,4.143
		c-1.956-0.014-3.736-1.798-3.78-3.787C80.348,38.232,82.2,36.261,84.07,36.167z"/>
	<path style="fill:#F3722E;" d="M163.694,186.906c-2.542-0.563-4.369-1.754-4.121-4.34c0.183-1.914,1.458-3.373,3.632-3.414
		c1.868-0.036,3.272,1.034,3.727,2.72C167.602,184.346,166.319,185.974,163.694,186.906z"/>
	<path style="fill:#F3722E;" d="M159.104,107.971c-1.769,0.077-3.597-1.533-3.711-3.269c-0.109-1.644,1.646-3.497,3.39-3.58
		c1.765-0.084,3.504,1.496,3.647,3.315C162.57,106.226,161.005,107.889,159.104,107.971z"/>
	<path style="fill:#F36C28;" d="M89.348,122.185c-2.098,0.073-3.481-1.212-3.474-3.226c0.007-1.856,1.682-3.648,3.403-3.434
		c1.798,0.223,3.005,1.335,3.311,3.143C92.885,120.427,91.247,122.119,89.348,122.185z"/>
</g>
</svg>
