<?xml version="1.0" encoding="iso-8859-1"?>
<!-- Generator: Adobe Illustrator 27.0.0, SVG Export Plug-In . SVG Version: 6.00 Build 0)  -->
<svg version="1.1" id="Layer_1" xmlns="http://www.w3.org/2000/svg" xmlns:xlink="http://www.w3.org/1999/xlink" x="0px" y="0px"
	 viewBox="0 0 1830 347" style="enable-background:new 0 0 1830 347;" xml:space="preserve">
<g>
	<path style="fill:#0798B8;" d="M0,237c2.194-3.139,5.157-2.378,8.063-1.503c10.147,3.055,20.268,6.194,30.417,9.245
		c7.288,2.191,14.604,4.292,21.991,6.458c2.622-1.365,4.335-3.596,6.588-6.06c-19.161-5.827-37.965-11.545-57.017-17.339
		c2.009-2.818,4.328-4.702,6.442-6.673c2.773-0.494,5.044,0.775,7.376,1.468c15.235,4.523,30.441,9.142,45.654,13.739
		c5.645,1.706,7.369,1.056,10.975-4.615c-18.306-6.461-37.087-10.958-55.991-17.465c3.624-4.386,7.441-7.929,11.463-11.277
		c1.975,1.507,4.321,2.245,6.629,2.949c11.886,3.622,23.783,7.211,35.714,10.682c5.474,1.593,10.793,3.818,16.549,4.347
		c23.289,7.025,46.576,14.056,69.867,21.075c32.16,9.692,64.327,19.364,96.479,29.081c3.417,1.033,6.815,2.064,10.842,2.781
		c-0.942-4.348-1.703-8.197-2.617-12.009c-2.738-11.418-5.606-22.806-8.295-34.236c-5.947-25.276-11.823-50.569-17.714-75.858
		c-3.527-15.141-6.891-30.322-10.626-45.411c-1.049-4.239-1.14-8.833-3.775-12.619c2.462-3.394,6.074-5.55,9.042-8.402
		c9.199-8.84,18.384-17.696,27.664-26.45c2.627-2.478,5.564-4.627,8.358-6.926c2.726,7.269,3.777,14.972,5.724,22.444
		c2.79,10.707,5.001,21.564,7.513,32.345c5.587,23.976,11.16,47.956,16.83,71.912c4.109,17.359,8.435,34.667,12.541,52.028
		c6.465,27.338,12.832,54.7,19.226,82.055c1.579,6.753,3.103,13.52,4.649,20.281c0.147,0.644,0.29,1.29,0.408,1.94
		c0.864,4.727-0.295,8.789-3.973,12.015c-2.667,0-5.333,0-8,0c-0.247-4.844-1.939-9.383-3.021-14.046
		c-3.253-14.018-6.692-27.994-9.9-42.022c-0.53-2.319-1.577-3.72-3.834-3.808c-1.408-0.055-2.671-1.639-4.564-0.173
		c3.352,18.95,9.078,37.565,12.501,57.126c-3.532-1.054-6.521-1.272-9.49-3.014c-4.64-19.373-9.332-38.961-14.076-58.768
		c-2.713-0.025-4.728-2.188-7.826-0.837c0.598,2.851,1.138,5.726,1.808,8.57c3.376,14.33,6.814,28.646,10.144,42.987
		c0.355,1.531,0.836,3.219-0.021,4.725c-0.965,0.354-1.74,0.115-2.54-0.123c-11.257-3.356-22.532-6.65-33.776-10.048
		c-33.582-10.148-67.145-20.36-100.73-30.5c-31.047-9.374-62.108-18.705-93.173-28.019c-18.223-5.464-36.498-10.758-54.684-16.34
		C10.195,250.984,4.111,249.939,0,245C0,242.333,0,239.667,0,237z"/>
	<path style="fill:#085776;" d="M274.081,51.981c-2.795,2.3-5.731,4.449-8.358,6.926c-9.281,8.754-18.466,17.609-27.664,26.45
		c-2.967,2.852-6.58,5.008-9.042,8.402c-4.616,4.308-9.252,8.595-13.844,12.929c-33.841,31.937-67.698,63.857-101.486,95.85
		c-6.374,6.035-13.148,11.673-18.833,18.417c-5.757-0.529-11.075-2.754-16.549-4.347c-11.931-3.471-23.828-7.06-35.714-10.682
		c-2.308-0.703-4.653-1.442-6.629-2.949c7.981-8.704,16.912-16.429,25.459-24.545c23.037-21.877,46.213-43.608,69.332-65.398
		c33.65-31.716,67.305-63.426,100.94-95.158C238.072,11.857,244.315,5.69,251,0c3,0,6,0,9,0c0.63,2.432,3.322,3.62,3.817,6.75
		c-13.861,14.305-29.069,27.703-43.75,41.863c0.59,2.744,0.447,5.625,2.332,8.197c14.237-13.394,28.402-26.719,42.937-40.393
		c2.087,3.164,2.338,6.359,2.878,9.926c-14.392,13.647-28.867,27.372-42.984,40.758c-0.918,3.165,0.383,5.43,0.968,7.896
		c1.787,0.304,2.681-1.051,3.684-1.992c9.467-8.885,18.874-17.834,28.343-26.716c3.749-3.516,7.611-6.912,12.076-10.955
		C272.19,41.16,273.611,46.443,274.081,51.981z"/>
	<path style="fill:#0D5777;" d="M1830,261c-7.194,1.51-14.352,1.456-21.244,0.198c-1.107-2.769-0.77-4.956-0.771-7.092
		c-0.018-25.482,0.008-50.963-0.003-76.445c-0.001-2.486,0.037-4.958-0.521-7.445c-2.302-10.27-8.589-15.755-19.124-16.347
		c-11.228-0.63-22.214,1.14-33.12,3.552c-2.255,0.499-4.47,1.175-7.24,1.912c0,33.705,0,67.442,0,100.348
		c-1.305,1.89-2.396,2.214-3.609,2.217c-4.662,0.011-9.325-0.018-13.987,0.012c-2.83,0.018-4.168-1.487-4.757-4.124
		c-0.371-1.66-0.37-3.301-0.371-4.958c-0.008-50.963-0.006-101.926-0.005-152.89c0-0.999-0.055-2.005,0.036-2.996
		c0.474-5.167,1.291-6.302,6.29-7.61c4.807-1.258,9.688-2.228,14.427-3.3c2.507,1.762,2.027,4.227,2.032,6.485
		c0.031,14.156,0.017,28.313,0.017,42.469c0,1.647,0,3.294,0,5.277c6.156-0.161,11.664-2.085,17.354-2.724
		c12.575-1.411,25.109-2.537,37.68,0.364c13.748,3.172,22.843,10.944,26.04,25.001c0.094,0.411,0.576,0.733,0.877,1.096
		C1830,196.333,1830,228.667,1830,261z"/>
	<path style="fill:#0E5777;" d="M1170.289,172.806c3.439,0.99,5.832,1.59,8.166,2.365c13.701,4.548,21.056,14.347,23.541,28.295
		c1.509,8.471,1.593,16.887-0.509,25.233c-4.167,16.549-15.447,25.838-31.379,30.139c-7.24,1.954-14.636,3.064-22.162,3.07
		c-24.989,0.021-49.978,0.044-74.967,0.03c-6.006-0.003-6.879-0.894-6.881-7.005c-0.016-52.977-0.012-105.954,0.004-158.93
		c0-1.64-0.272-3.346,0.734-4.983c1.681-1.779,3.979-2.017,6.343-2.016c24.989,0.012,49.98-0.149,74.966,0.155
		c7.771,0.095,15.614,0.878,23.147,3.22c14.921,4.638,22.891,15.152,25.51,30.207c1.24,7.131,1.272,14.274-0.141,21.339
		c-2.627,13.138-9.549,22.865-22.665,27.401C1173.062,171.65,1172.157,172.057,1170.289,172.806z M1090.132,183.036
		c0,19.86,0,39.553,0,59.414c0.906,0.115,1.539,0.265,2.173,0.267c16.974,0.054,33.951,0.279,50.92,0.033
		c5.933-0.086,11.943-0.644,17.702-2.539c8.295-2.729,14.129-7.815,16.336-16.544c1.745-6.904,1.525-13.843,0.152-20.731
		c-1.925-9.663-8.231-15.303-17.462-17.788c-4.964-1.337-10.06-2.227-15.238-2.243c-17.473-0.055-34.946-0.069-52.419-0.087
		C1091.666,182.816,1091.035,182.941,1090.132,183.036z M1090.026,163.02c20.179,0,39.824,0.069,59.467-0.053
		c4.372-0.027,8.503-1.566,12.299-3.738c7.052-4.036,10.751-10.243,11.214-18.298c0.21-3.653,0.186-7.338-0.015-10.993
		c-0.531-9.673-6.405-17.078-15.634-19.708c-3.036-0.865-6.179-1.215-9.38-1.204c-17.999,0.063-35.998,0.033-53.996,0.076
		c-1.271,0.003-2.67-0.466-3.954,0.701C1090.026,127.305,1090.026,144.92,1090.026,163.02z"/>
	<path style="fill:#0F5777;" d="M910.762,307.446c-0.479-4.993-1-9.433,0.306-13.868c2.249-1.177,4.545-1.366,6.872-1.071
		c4.5,0.571,8.942,0.116,13.435-0.246c6.344-0.511,10.606-3.762,13.231-9.202c2.378-4.926,3.928-10.272,6.516-15.07
		c3.493-6.477,2.695-12.274-0.037-18.893c-12.102-29.313-23.721-58.826-35.534-88.259c-0.55-1.371-1.277-2.671-1.977-4.119
		c-16.757,0-33.382,0-50.018,0c-1.002,1.124-0.638,2.519-0.641,3.81c-0.047,23.995,0.044,47.991-0.161,71.985
		c-0.063,7.355,2.994,13.803,13.995,14.612c6.361,0.468,12.608-0.319,18.826-1.584c2.416-0.492,4.873-0.784,7.117-1.136
		c2.892,4.197,4.222,9.199,3.945,14.463c-2.194,2.172-5.246,2.553-8.104,3.216c-12.265,2.846-24.591,3.981-37.032,0.992
		c-11.704-2.811-18.193-10.46-20.278-22.017c-0.795-4.405-1.163-8.88-1.155-13.407c0.068-39.159,0.026-78.317,0.017-117.476
		c0-0.833-0.017-1.667,0.004-2.499c0.123-4.905,0.554-5.439,5.538-6.69c3.383-0.85,6.768-1.695,10.168-2.471
		c1.773-0.405,3.579-0.789,5.387-0.159c1.912,1.663,1.663,3.887,1.665,6.036c0.011,9.831-0.002,19.663,0.047,29.494
		c0.008,1.614-0.378,3.298,0.601,5.253c1.524,0,3.15-0.001,4.776,0c18.663,0.014,37.326,0.031,55.988,0.039
		c7.134,0.003,7.242,0.116,9.785,6.684c10.312,26.629,20.653,53.248,30.995,79.865c0.166,0.426,0.482,0.793,0.865,1.407
		c1.377-0.772,1.628-2.122,2.073-3.271c10.081-26.013,20.141-52.034,30.207-78.052c0.419-1.082,0.847-2.162,1.296-3.232
		c0.923-2.202,2.445-3.446,4.977-3.4c4.664,0.084,9.331,0.063,13.996,0.061c2.01-0.001,3.593,0.615,4.472,3.327
		c-2.935,7.55-6.038,15.586-9.182,23.606c-9.271,23.65-18.564,47.291-27.839,70.939c-5.153,13.139-10.32,26.272-15.409,39.435
		c-1.735,4.488-3.18,9.088-4.895,13.585c-1.063,2.789-2.332,5.504-3.598,8.211c-2.812,6.012-7.604,9.686-14.029,10.91
		C935.569,311.62,923.227,311.626,910.762,307.446z"/>
	<path style="fill:#0D5777;" d="M1508.825,206.604c-0.551,9.629,0.514,19.06,4.771,27.972c2.955,6.187,8.348,9.583,14.597,11.177
		c10.44,2.663,21.117,2.151,31.737,0.941c6.941-0.79,13.723-2.436,20.482-4.158c1.629-0.415,3.239-0.655,5.175-0.193
		c1.33,4.435,3.581,8.741,3.264,13.498c-1.732,2.466-4.272,2.971-6.606,3.689c-19.433,5.978-39.233,6.984-59.173,3.477
		c-20.782-3.655-31.738-14.586-35.87-35.485c-2.761-13.965-2.755-28.101-1.604-42.258c0.513-6.311,1.369-12.525,3.217-18.614
		c4.746-15.636,15.259-25.085,31.032-28.449c10.262-2.189,20.651-2.861,31.231-1.548c7.841,0.973,15.369,2.369,22.417,6.051
		c10.641,5.559,16.422,14.741,19.427,25.937c1.945,7.246,2.911,14.665,3.115,22.179c0.072,2.657,0.569,5.316,0.482,7.962
		c-0.203,6.177-2.246,7.268-7.031,7.237c-24.986-0.16-49.974-0.059-74.961-0.005
		C1512.742,206.017,1510.885,205.568,1508.825,206.604z M1572.635,188.426c0.742-4.713-0.158-8.685-0.838-12.53
		c-1.899-10.729-6.65-18.699-19.718-21.536c-8.57-1.86-17.186-1.621-25.66,0.702c-5.126,1.405-9.396,4.27-12.308,8.774
		c-4.769,7.376-5.401,15.744-5.938,24.59C1529.902,188.426,1551.124,188.426,1572.635,188.426z"/>
	<path style="fill:#0C5776;" d="M1388.12,201.88c0.169,9.303-0.384,19.552-2.864,29.667c-4.018,16.391-14.014,26.938-30.402,30.882
		c-15.265,3.674-30.65,3.626-45.881-0.465c-15.621-4.196-24.745-14.791-28.894-30.055c-1.796-6.607-2.671-13.399-2.858-20.209
		c-0.346-12.639-0.707-25.317,1.755-37.823c1.521-7.725,4.085-15.107,9.091-21.338c7.623-9.488,17.998-13.816,29.746-15.511
		c10.127-1.461,20.267-1.414,30.338,0.116c17.758,2.697,31.879,11.665,37.014,32.001
		C1387.807,179.605,1388.17,190.183,1388.12,201.88z M1365.056,200.313c-0.133-7.976,0.378-15.963-1.028-23.903
		c-1.778-10.042-6.321-18.008-16.552-21.127c-8.707-2.654-17.632-2.81-26.634-0.807c-10.692,2.379-16.9,9.042-18.734,19.51
		c-3.096,17.674-3.105,35.468,0.008,53.131c1.791,10.163,7.665,17.082,18.26,19.335c7.081,1.506,14.139,1.689,21.305,0.716
		c12.378-1.682,20.08-8.606,22.389-22.941C1365.351,216.28,1364.946,208.293,1365.056,200.313z"/>
	<path style="fill:#0C5776;" d="M526.864,90.532c1.515,5.352,0.732,10.972,0.691,16.421c-2.402,2.165-5.046,2.121-7.707,2.119
		c-15.326-0.008-30.651,0-45.977,0.033c-1.645,0.004-3.322-0.278-4.963,0.305c-1.185,1.461-0.671,3.196-0.672,4.801
		c-0.021,45.477-0.006,90.955-0.004,136.432c0,2.332-0.078,4.663-0.09,6.995c-0.012,2.36-1.27,4.056-3.465,4.17
		c-6.276,0.326-12.572,0.329-18.466-0.093c-2.202-2.854-1.86-5.571-1.859-8.195c0.014-46.144,0.047-92.287,0.052-138.431
		c0-1.805,0.336-3.651-0.348-5.43c-1.551-0.972-3.262-0.526-4.883-0.532c-15.326-0.053-30.651-0.068-45.977-0.048
		c-2.682,0.003-5.29-0.12-7.866-1.823c-0.176-5.444-0.64-11.043,0.222-16.349c2.346-1.787,4.643-1.921,6.999-1.92
		c42.812,0.008,85.624,0.002,128.436,0.012C522.967,89,525.013,88.847,526.864,90.532z"/>
	<path style="fill:#115877;" d="M671.843,159.343c0,34.095,0,67.848,0,101.105c-1.099,1.106-1.847,1.434-2.715,1.436
		c-4.998,0.011-9.998,0.113-14.992-0.022c-2.871-0.078-3.756-1.096-4.074-3.96c-0.11-0.99-0.079-1.997-0.079-2.996
		c0-31.156,0.003-62.311,0.013-93.467c0-1.499-0.001-3.003,0.123-4.495c0.613-7.403,3.587-11.115,10.686-13.274
		c7.962-2.422,16.153-3.885,24.31-5.403c7.52-1.398,15.176-2.069,22.818-2.247c8.838-0.206,17.621,0.606,25.976,3.857
		c12.215,4.753,18.5,13.998,20.192,26.746c0.529,3.982,0.571,7.963,0.573,11.96c0.014,25.324,0.046,50.649,0.051,75.973
		c0,2.295,0.382,4.7-1.329,6.636c-5.4,1.336-16.372,1.081-20.132-0.481c-1.41-2.048-1.026-4.439-1.026-6.733
		c-0.004-24.658,0.047-49.316,0.023-73.973c-0.003-3.49,0.088-7.062-0.581-10.454c-1.889-9.573-8.781-15.041-19.225-15.681
		c-9.713-0.596-19.253,0.831-28.74,2.661C679.974,157.253,676.292,158.278,671.843,159.343z"/>
	<path style="fill:#0E5777;" d="M1475.109,259.002c-5.419,3.354-11.282,4.017-16.966,4.832c-7.74,1.111-15.536,1.318-23.391,0.315
		c-15.694-2.004-25.546-12.517-25.753-28.47c-0.189-14.494-0.013-28.992-0.015-43.488c-0.004-27.16-0.02-54.319-0.031-81.479
		c-0.001-2.645,0-5.29,0-8.205c7.135-1.926,13.753-4.484,21.675-4.337c0.76,7.081,0.277,13.861,0.353,20.607
		c0.075,6.623,0.016,13.247,0.016,20.446c7.079,0,13.696-0.1,20.309,0.028c6.439,0.124,12.922-0.581,19.669,0.566
		c1.432,5.425,1.284,10.581,0.049,16.328c-13.243,0-26.332,0-38.987,0c-1.394,1.722-0.997,3.106-0.998,4.385
		c-0.032,23.994,0.102,47.989-0.117,71.981c-0.066,7.201,3.102,13.885,13.997,14.623c6.545,0.443,12.946-0.333,19.31-1.691
		c2.616-0.558,5.225-0.74,8.03-0.383C1473.939,249.474,1475.354,253.836,1475.109,259.002z"/>
	<path style="fill:#0E5777;" d="M1704.769,242.97c1.538,3.231,2.022,6.376,2.737,9.439c0.979,4.197,0.383,5.224-3.673,6.737
		c-6.886,2.57-14.079,3.893-21.33,4.766c-8.94,1.076-17.916,1.318-26.887,0.125c-10.563-1.405-20.405-4.331-28.329-12.069
		c-6.99-6.826-10.472-15.392-12.157-24.635c-3.309-18.154-3.136-36.406-0.059-54.6c0.523-3.091,1.408-6.159,2.473-9.112
		c5.058-14.025,15.235-22.35,29.584-25.466c18.599-4.04,37.001-2.507,55.157,2.856c1.892,0.559,3.899,0.944,5.496,3.018
		c0.276,4.922-1.606,9.704-3.008,14.688c-3.401,0.888-6.28-0.681-9.236-1.563c-8.656-2.582-17.465-4.197-26.517-4
		c-4.646,0.101-9.267,0.621-13.834,1.662c-8.689,1.981-13.759,7.573-16.218,15.846c-1.864,6.271-2.196,12.786-2.578,19.243
		c-0.799,13.475-1.014,26.959,2.547,40.166c2.451,9.09,8.305,14.337,17.671,16.031c13.392,2.422,26.49,0.799,39.51-2.284
		C1698.91,243.158,1701.641,242.819,1704.769,242.97z"/>
	<path style="fill:#085776;" d="M536.163,261.538c-7.063,0.691-13.023,0.493-18.969,0.266c-1.877-0.072-2.963-1.437-3.121-3.326
		c-0.139-1.657-0.192-3.326-0.193-4.989c-0.008-29.482-0.01-58.964,0.013-88.446c0.003-3.492-0.035-6.988,0.532-10.462
		c0.926-5.669,4.05-9.195,9.64-10.796c8.317-2.381,16.746-4.232,25.266-5.634c5.402-0.889,10.87-1.401,16.319-1.975
		c3.618-0.381,7.252-0.465,10.939-0.016c1.357,5.658,1.562,11.041,0.081,16.993c-6.622,1.28-13.63,0.502-20.451,1.694
		c-6.683,1.167-13.377,2.138-20.008,4.597c0,17.099,0.008,34.067-0.002,51.035C536.199,227.252,536.26,244.028,536.163,261.538z"/>
	<path style="fill:#145878;" d="M619.266,261.469c-6.448,0.945-12.867,0.444-18.673,0.407c-2.101-1.563-2.497-3.145-2.564-4.86
		c-0.052-1.331-0.084-2.664-0.084-3.996c-0.005-34.816-0.012-69.632,0.01-104.448c0.002-2.79-0.33-5.671,1.542-8.559
		c6.432-0.258,13.031-0.316,19.436,0.024c1.733,2.376,1.763,4.691,1.763,7.02c-0.003,35.815-0.005,71.631,0.001,107.446
		C620.698,256.674,620.643,258.823,619.266,261.469z"/>
	<path style="fill:#0C5776;" d="M804.009,261.508c-6.134,0.726-12.668,0.796-18.755,0.009c-1.847-2.049-1.482-3.973-1.484-5.75
		c-0.028-36.661-0.02-73.322,0.002-109.982c0.001-1.652-0.076-3.334,0.524-4.922c4.83-1.58,17.282-1.4,21.539,0.613
		c0,38.456,0.001,77.234-0.003,116.012C805.832,258.868,805.423,260.107,804.009,261.508z"/>
	<path style="fill:#035675;" d="M1228.696,140.047c7.011-0.318,13.611-0.251,19.955-0.014c2.073,2.564,1.516,5.163,1.522,7.577
		c0.056,22.316,0.031,44.633,0.035,66.949c0.002,12.657,0.028,25.314,0.014,37.971c-0.002,1.995-0.066,4-0.269,5.983
		c-0.189,1.856-1.348,3.265-3.187,3.296c-6.117,0.105-12.279,0.768-18.573-0.672c-0.722-8.188-0.252-16.17-0.329-24.136
		c-0.078-8.16-0.026-16.321-0.03-24.481c-0.004-7.994-0.008-15.988-0.012-23.982c-0.005-8.16-0.174-16.325,0.03-24.48
		C1228.049,156.171,1226.885,148.196,1228.696,140.047z"/>
	<path style="fill:#115877;" d="M784.429,87.08c6.779-1.505,13.391-1.317,19.779-0.236c2.541,5.942,2.229,28.391-0.412,32.92
		c-6.033,0-12.276,0-18.511,0C783.205,115.363,782.653,97.516,784.429,87.08z"/>
	<path style="fill:#0E5777;" d="M1248.859,86.462c2.083,9.965,0.582,19.445,1.053,28.822c0.088,1.754-0.438,3.278-2.354,4.795
		c-4.829,0-10.143,0.09-15.453-0.035c-2.99-0.071-4.012-0.962-4.114-3.853c-0.33-9.31-0.317-18.624,0.057-28.525
		C1234.708,84.91,1241.404,86.461,1248.859,86.462z"/>
	<path style="fill:#115877;" d="M619.696,87.368c0,11.185,0,21.281,0,31.814c-6.556,1.857-12.986,0.438-18.872,0.916
		c-2.536-1.692-2.838-3.809-2.841-6.02c-0.009-7.153-0.012-14.306,0.033-21.459c0.013-2.005,0.267-3.987,2.133-6.034
		C606.385,86.168,613.019,85.226,619.696,87.368z"/>
</g>
</svg>
