<?xml version="1.0" encoding="iso-8859-1"?>
<!-- Generator: Adobe Illustrator 27.0.0, SVG Export Plug-In . SVG Version: 6.00 Build 0)  -->
<svg version="1.1" id="Layer_1" xmlns="http://www.w3.org/2000/svg" xmlns:xlink="http://www.w3.org/1999/xlink" x="0px" y="0px"
	 viewBox="0 0 1571.805 348" style="enable-background:new 0 0 1571.805 348;" xml:space="preserve">
<g>
	<path style="fill:#7B9C3F;" d="M95.89,6.291c6.971,7.143,13.935,14.294,20.921,21.424c1.261,1.287,2.525,2.55,3.537,4.383
		c-42.103,19.966-69.773,51.997-80.185,97.335c-8.703,37.893-2.649,73.974,17.655,107.142c1.625,0.702,2.899,0.729,3.993,0.242
		c0.712-0.485,0.494-1.019,0.377-1.436c-2.293-8.161-4.325-16.366-5.46-24.795c-3.637-27.012,0.454-52.671,13.209-76.84
		c15.081-28.578,37.39-49.843,65.923-64.694c4.679-2.436,9.39-4.957,15.016-6.421c10.036,10.233,20.149,20.544,30.155,30.745
		c-0.435,1.523-1.571,1.44-2.475,1.776c-45.321,16.875-73.683,49.168-86.17,95.541c-3.966,14.728-4.415,29.859-2.783,45.076
		c4.207,39.223,24.56,68.441,55.927,90.902c5.546,3.971,11.373,7.504,17.517,10.501c1.171,0.571,2.519,0.947,3.507,2.374
		c0.104,2.208,0.22,4.686,0.336,7.164c-1.713,0.933-3.214,0.128-4.73-0.572c-3.315-1.529-6.693-2.934-9.939-4.599
		c-37.352-19.16-70.566-43.778-99.077-74.707c-16.137-17.505-29.587-36.75-39.425-58.456C7.169,193.919,2.682,178.87,1.01,163.04
		C0.924,162.224,0.993,161.356,0,161c0-6,0-12,0-18c1.397-3.458,1.397-7.832,0-11c0-0.667,0-1.333,0-2
		c1.927-2.877,1.384-6.298,1.902-9.444c3.711-22.535,11.446-43.52,23.668-62.818C40.455,34.237,60.152,15.863,84.578,2.542
		C85.812,1.869,87.361,1.517,88,0c0.667,0,1.333,0,2,0C91.291,2.727,93.755,4.355,95.89,6.291z"/>
	<path style="fill:#2A7DBF;" d="M258,348c-10.311-10.613-20.622-21.225-31.481-32.402c14.782-7.528,28.747-15.642,40.532-27.004
		c11.73-11.309,21.454-24.087,28.821-38.596c7.422-14.617,11.973-30.15,14.132-46.401c2.147-16.164,1.081-32.201-2.256-48.062
		c-3.375-16.046-9.62-31.001-18.393-44.79c-1.311-0.817-2.574-0.808-3.848-0.353c-0.737,0.778-0.413,1.557-0.158,2.34
		c4.673,14.338,6.821,29.049,6.641,44.124c-0.276,23.152-6.885,44.446-18.714,64.219c-12.276,20.522-28.858,36.877-48.818,49.84
		c-8.635,5.608-17.838,10.228-26.945,13.709c-10.509-10.299-20.825-20.408-31.513-30.881c1.641-0.635,3.088-1.229,4.558-1.759
		c15.982-5.756,30.131-14.474,42.907-25.681c12.702-11.142,22.622-24.382,30.338-39.232c6.84-13.164,11.22-27.221,13.428-41.973
		c0.79-5.278,0.878-10.584,1.564-15.858c0.775-5.96-0.382-11.969-0.942-17.905c-1.03-10.925-3.661-21.553-7.791-31.765
		c-4.96-12.264-11.759-23.367-20.285-33.519c-12.952-15.421-28.697-27.115-46.583-36.11c-0.59-0.297-1.134-0.683-1.883-1.139
		C180.681,5.949,181.196,2.953,181,0c0.667,0,1.333,0,2,0c0.564,1.446,2.062,1.492,3.183,1.992
		c25.351,11.319,48.203,26.638,69.983,43.667c13.27,10.375,25.585,21.813,36.993,34.193c17.114,18.572,31.605,38.941,41.49,62.33
		c5.964,14.11,9.885,28.717,11.535,44.038c2.852,26.484-0.958,51.923-10.703,76.561c-8.936,22.59-22.25,42.307-39.967,58.907
		c-9.6,8.995-20.327,16.579-31.831,23.031c-1.647,0.924-3.874,1.126-4.682,3.281C258.667,348,258.333,348,258,348z"/>
	<path style="fill:#96AD64;" d="M0,132c1.397,3.168,1.397,7.542,0,11C0,139.333,0,135.667,0,132z"/>
	<path style="fill:#2A7DBF;" d="M1393.267,283.079c-2.835-0.044-5.092,1.458-7.486,2.514c-11.384,5.019-23.198,6.314-35.519,4.737
		c-6.859-0.878-13.253-2.737-19.307-6.019c-11.417-6.19-18.85-15.832-22.777-27.885c-6.287-19.299-6.303-38.851-0.267-58.282
		c4.159-13.389,12.187-23.826,24.387-30.935c7.449-4.34,15.518-6.683,24.074-7.171c7.305-0.417,14.594-0.402,21.722,1.894
		c3.338,1.076,6.456,2.553,9.62,3.993c2.219,1.009,4.387,2.375,6.691,1.949c2.047-1.023,1.767-3.12,2.988-4.31
		c6.129-1.184,27.78-0.782,30.973,0.586c0.942,1.141,0.74,2.527,0.739,3.832c-0.033,43.144-0.029,86.288-0.194,129.431
		c-0.027,6.986-1.373,13.858-4.212,20.33c-5.624,12.822-16.068,20.076-28.873,24.18c-15.696,5.03-31.808,5.925-48.205,4.361
		c-10.146-0.967-19.96-3.022-29.582-6.223c-5.907-1.965-7.13-3.612-7.173-9.705c-0.035-4.997-0.096-9.998,0.065-14.99
		c0.136-4.207,2.157-5.636,6.151-4.383c3.31,1.038,6.598,2.216,9.766,3.624c13.179,5.856,27.058,6.386,41.077,5.283
		c5.095-0.401,10.107-1.841,14.698-4.31c8.736-4.698,11.897-12.621,12.176-21.927
		C1394.902,290.158,1396.069,286.31,1393.267,283.079z M1395.02,224.825c0-8.323-0.118-16.648,0.035-24.968
		c0.14-7.62-4.302-11.546-9.685-13.593c-7.32-2.784-14.947-2.764-22.473-0.586c-9.757,2.824-15.715,9.649-18.816,18.986
		c-4.235,12.748-4.121,25.819-1.642,38.848c0.989,5.198,3.056,10.165,6.663,14.285c8.64,9.87,26.651,12.658,37.968,5.912
		c5.299-3.158,8.056-7.637,7.973-13.917C1394.93,241.471,1395.013,233.147,1395.02,224.825z"/>
	<path style="fill:#2B7DBF;" d="M802.238,290.615c-1.962-2.121-1.237-4.576-1.239-6.824c-0.041-50.486-0.032-100.972-0.032-151.458
		c0-1.816,0-3.633,0-4.927c1.983-2.831,4.431-2.402,6.728-2.403c24.327-0.009,48.653-0.006,72.98-0.006
		c5.665,0,11.33-0.016,16.995,0.011c1.638,0.008,3.378-0.291,4.698,1.14c1.042,3.861,1.149,19.907,0.16,24.675
		c-1.581,1.809-3.714,1.15-5.635,1.154c-17.328,0.043-34.657,0.015-51.985,0.041c-1.787,0.003-3.666-0.397-5.248,0.601
		c-1.153,3.649-1.401,32.188-0.368,37.85c1.574,1.257,3.477,0.746,5.247,0.752c12.996,0.043,25.993,0.038,38.989,0.011
		c2.343-0.005,4.653,0.023,7.458,1.466c1.735,7.925,0.575,16.257,0.615,23.754c-2.472,2.604-4.663,2.451-6.836,2.449
		c-13.163-0.012-26.326-0.022-39.489,0.014c-1.798,0.005-3.669-0.41-5.367,0.531c-1.264,3.368-1.743,32.437-0.707,42.752
		c1.618,1.614,3.727,1.015,5.644,1.019c18.828,0.045,37.656,0.024,56.484,0.031c2.142,0.001,4.358-0.324,6.27,1.268
		c0.669,1.078,1.181,2.285,1.182,3.66c0.004,6.165,0.112,12.332-0.036,18.494c-0.081,3.398-1.302,4.304-5.257,4.319
		c-10.83,0.04-21.661,0.014-32.491,0.014c-21.161,0-42.321,0.008-63.482-0.015C805.714,290.986,803.858,291.318,802.238,290.615z"/>
	<path style="fill:#2B7DBF;" d="M720.972,159.977c-5.233-1.107-9.599-3.969-14.356-5.842c-7.008-2.759-14.301-4.73-21.715-4.867
		c-12.824-0.238-25.168,2.101-35.281,10.976c-7.338,6.44-11.994,14.629-14.502,23.935c-4.272,15.851-4.594,31.833-0.166,47.714
		c5.152,18.481,16.779,30.075,36.143,33.265c14.904,2.455,29.069,0.732,42.39-6.747c2.676-1.502,5.375-3.537,8.856-2.243
		c1.562,1.574,1.53,3.565,1.522,5.572c-0.022,4.997-0.164,10.001,0.034,14.99c0.216,5.452-2.449,8.77-7.211,10.751
		c-6.772,2.819-13.835,4.545-21.109,5.383c-9.601,1.105-19.25,1.591-28.891,1.009c-13.536-0.817-26.618-3.771-38.485-10.56
		c-17.483-10.003-27.509-25.602-32.1-44.843c-3.3-13.832-3.886-27.854-2.325-42.042c1.077-9.794,2.979-19.29,6.731-28.41
		c6.862-16.68,18.242-29.111,34.497-37.058c11.512-5.629,23.735-8.357,36.445-8.914c6.602-0.289,13.171-0.991,19.856-0.146
		c8.928,1.128,17.648,2.902,26.077,5.986c5.395,1.974,6.413,3.607,6.461,9.277c0.046,5.497,0.006,10.994,0.011,16.491
		C723.857,156.021,723.75,158.337,720.972,159.977z"/>
	<path style="fill:#2B7DBF;" d="M1448.288,165.164c1.23-1.675,2.889-2.092,4.846-2.08c8.666,0.052,17.334-0.041,26,0.051
		c4.047,0.043,5.108,0.926,6.285,4.979c6.883,23.698,13.728,47.407,20.568,71.118c1.423,4.932,2.705,9.906,4.186,14.82
		c0.505,1.677,0.984,3.558,2.742,4.194c1.548-0.178,1.808-1.035,2.097-2.077c8.108-29.203,16.242-58.399,24.404-87.587
		c1.406-5.029,2.062-5.463,7.309-5.475c6.5-0.015,13,0.019,19.5-0.015c2.234-0.012,4.408-0.035,5.58,2.856
		c-0.197,2.486-1.116,5.148-1.987,7.792c-14.478,43.908-29.014,87.796-43.466,131.712c-1.864,5.666-3.417,11.418-6.034,16.824
		c-7.406,15.3-19.682,23.368-36.487,24.615c-4.14,0.307-8.345,0.259-12.485-0.068c-5.993-0.473-7.403-2.219-7.431-8.226
		c-0.02-4.333-0.052-8.667,0.01-13c0.067-4.648,1.06-5.593,5.581-5.569c2.666,0.014,5.332,0.071,7.998,0.053
		c5.165-0.035,8.87-2.495,11.17-7.031c1.425-2.81,2.44-5.79,3.432-8.791c1.116-3.374,0.711-6.578-0.467-9.718
		c-6.871-18.313-12.748-36.967-19.117-55.453c-7.829-22.722-15.589-45.468-23.314-68.226
		C1448.638,169.186,1447.51,167.543,1448.288,165.164z"/>
	<path style="fill:#2B7DBF;" d="M1187.138,261.275c0.233,0.179,0.439,0.255,0.486,0.387c2.398,6.791,1.521,13.723,0.581,20.577
		c-0.372,2.714-3.099,3.683-5.459,4.621c-6.67,2.653-13.66,4.107-20.724,4.951c-7.749,0.927-15.553,1.57-23.388,1.123
		c-10.961-0.625-21.768-1.949-32.083-6.085c-15.692-6.291-26.189-17.44-30.723-33.666c-5.453-19.516-5.213-39.012,2.202-58.104
		c5.887-15.159,16.825-25.428,31.958-30.793c17.449-6.186,35.308-6.216,52.717-0.005c14.13,5.041,23.201,15.645,28.203,29.703
		c3.478,9.774,5.349,19.856,5.155,30.251c-0.06,3.221,1.422,6.6-1.343,10.454c-4.937,0.513-10.551,0.117-16.13,0.188
		c-5.662,0.072-11.325,0.016-16.988,0.016s-11.326,0-16.988,0s-11.326,0-16.988,0c-5.641,0-11.282,0-16.515,0
		c-1.983,1.696-2.165,3.472-2.067,5.351c0.658,12.622,5.702,19.756,16.994,24.538c5.629,2.384,11.713,3.382,17.961,3.522
		c11.776,0.263,23.133-1.499,34.133-5.71C1181.041,261.483,1183.98,260.117,1187.138,261.275z M1160.943,211.792
		c0.908-9.905-1.309-18.933-10.05-24.705c-9.361-6.181-19.618-6.146-29.083-0.195c-8.998,5.657-12.659,14.392-11.812,24.895
		C1114.259,213.463,1156.751,213.458,1160.943,211.792z"/>
	<path style="fill:#2A7DBF;" d="M932.848,165.161c1.468-1.334,2.477-1.986,3.672-1.99c9.786-0.035,19.572-0.02,28.473-0.02
		c2.572,1.7,2.339,3.861,3.528,5.453c2.83,1.082,5.428-0.236,7.943-1.368c7.292-3.282,14.751-5.879,22.759-6.795
		c10.784-1.233,21.303-0.348,31.112,4.483c8.22,4.049,13.013,11.19,15.557,19.805c2.026,6.863,3.107,13.917,3.122,21.098
		c0.059,26.482,0.121,52.963,0.141,79.445c0.004,5.5-0.397,5.823-6.074,5.834c-7.828,0.014-15.656,0.02-23.484-0.01
		c-1.471-0.006-3.01,0.332-4.433-0.574c-1.876-1.684-1.243-3.986-1.247-6.072c-0.042-21.985,0.03-43.97-0.07-65.955
		c-0.023-4.974-0.327-9.98-0.962-14.912c-1.558-12.104-8.387-18.132-20.723-18.441c-4.997-0.125-9.907,0.723-14.624,2.434
		c-5.871,2.13-8.732,6.169-8.737,12.449c-0.024,27.814-0.015,55.629-0.007,83.443c0.001,2.501,0.152,5.021-1.801,7.002
		c-1.728,0.973-3.598,0.611-5.399,0.621c-7.495,0.041-14.99,0.027-22.485,0.014c-5.947-0.01-6.245-0.268-6.252-6.168
		c-0.022-21.152-0.009-42.305-0.009-63.457c0-16.822,0-33.644,0-50.466C932.848,169.025,932.848,167.034,932.848,165.161z"/>
	<path style="fill:#2A7DBF;" d="M535.097,290.826c-11.778,0-23.366,0-34.723,0c-2.145-2.217-1.43-4.677-1.433-6.922
		c-0.042-41.307-0.025-82.614-0.046-123.92c-0.001-2.269,0.573-4.722-1.57-6.616c-1.509-0.681-3.197-0.345-4.833-0.35
		c-11.493-0.032-22.985,0.015-34.478-0.033c-4.926-0.021-5.87-0.984-5.908-5.793c-0.044-5.663-0.076-11.327,0.012-16.989
		c0.06-3.874,1.198-4.912,5.111-5.092c0.665-0.031,1.332-0.006,1.999-0.006c38.642,0,77.284-0.002,115.925,0.005
		c2.144,0,4.362-0.337,6.969,1.711c1.154,8.007,1.186,16.602-0.172,25.571c-7.774,1.164-15.07,0.452-22.322,0.581
		c-7.149,0.127-14.302,0.028-20.904,0.028c-2.9,1.61-2.581,3.873-2.581,6.03c0.003,14.99,0.002,29.981,0.002,44.971
		c0,26.65,0.008,53.299-0.016,79.949C536.128,286.069,536.517,288.272,535.097,290.826z"/>
	<path style="fill:#2B7DBF;" d="M1250.687,163.172c2.378,2.724,1.912,5.255,2.445,7.21c2.462,1.271,4.244,0.07,5.977-0.754
		c3.295-1.568,6.475-3.375,9.747-4.994c6.261-3.099,12.975-4.178,19.837-3.519c5.315,0.51,7.438,2.121,7.289,7.942
		c-0.141,5.491,0.035,10.99-0.052,16.483c-0.068,4.286-1.653,5.469-5.94,4.852c-6.291-0.905-12.678-1.149-18.921-0.308
		c-9.055,1.22-17.106,6.176-17.15,18.989c-0.083,24.643-0.04,49.285-0.051,73.928c-0.001,1.332,0.096,2.677-0.053,3.993
		c-0.302,2.66-1.477,3.929-4.179,3.956c-9.49,0.095-18.981,0.03-28.472,0.03c-1.058,0-1.949-0.346-2.715-1.279
		c-0.867-1.601-0.51-3.469-0.511-5.271c-0.021-37.963-0.016-75.927-0.013-113.89c0-1.165,0.029-2.33,0.043-3.496
		c0.025-2.172,1.287-3.762,3.238-3.795C1231.151,163.082,1241.1,163.172,1250.687,163.172z"/>
</g>
</svg>
