<?xml version="1.0" encoding="iso-8859-1"?>
<!-- Generator: Adobe Illustrator 27.0.0, SVG Export Plug-In . SVG Version: 6.00 Build 0)  -->
<svg version="1.1" id="Layer_1" xmlns="http://www.w3.org/2000/svg" xmlns:xlink="http://www.w3.org/1999/xlink" x="0px" y="0px"
	 viewBox="0 0 1627 565" style="enable-background:new 0 0 1627 565;" xml:space="preserve">
<g>
	<path style="fill:#070808;" d="M83,0c0.669,2.121,0.314,4.301,0.315,6.449c0.021,110.803,0.005,221.606,0.031,332.409
		c0.004,19.026,1.816,37.813,7.537,56.102c7.761,24.81,20.668,46.367,40.266,63.596c16.692,14.674,36.228,23.956,57.937,28.311
		c34.849,6.992,68.193,2.572,99.192-15.237c23.605-13.561,40.892-33.212,52.61-57.745c8.315-17.408,12.92-35.788,14.398-55.02
		c0.447-5.823,0.75-11.628,0.75-17.46c-0.001-112.969,0-225.938-0.001-338.908c0-0.833-0.022-1.666-0.033-2.499c28,0,56,0,84,0
		c-0.642,1.784-0.312,3.633-0.312,5.448c-0.018,181.108-0.017,362.216-0.018,543.325c0,1.957,0,3.914,0,5.894
		c-27.86,0-55.235,0-82.802,0c0-16.932,0-33.532,0-50.197c-0.497,0.166-0.876,0.185-1.089,0.382
		c-1.221,1.132-2.411,2.298-3.595,3.469c-20.778,20.539-45.06,35.428-72.604,45.074c-17.977,6.296-36.441,9.997-55.501,10.688
		c-1.345,0.049-3.022-0.679-4.079,0.916c-1.667,0-3.333,0-5,0c-0.214-0.72-0.729-1.008-1.446-1.01
		c-5.724-0.018-11.447-0.038-17.171-0.052c-0.722-0.002-1.219,0.322-1.383,1.062c-0.667,0-1.333,0-2,0
		c-0.265-1.093-1.165-0.946-1.963-1.009c-18.433-1.457-36.411-5.037-53.933-11.048c-27.089-9.294-51.217-23.483-71.944-43.255
		c-21.22-20.242-37.014-44.213-48.181-71.292c-7.755-18.805-12.815-38.272-15.147-58.496C1.454,376.618,2.073,373.015,0,370
		C0,246.667,0,123.333,0,0C27.667,0,55.333,0,83,0z"/>
	<path style="fill:#060707;" d="M583,0c0,67.084,0,134.167,0,201.337c1.52-0.233,2.049-1.178,2.735-1.848
		c17.55-17.131,37.606-30.567,59.965-40.566c16.889-7.553,34.419-12.777,52.852-15.158c17.959-2.32,35.924-2.614,53.815-0.441
		c32.573,3.956,62.794,14.655,90.434,32.635c37.431,24.35,64.198,57.341,81.118,98.509c12.424,30.227,16.867,61.783,14.812,94.216
		c-2.059,32.497-11.735,62.78-28.214,90.886c-18.479,31.517-43.3,56.725-74.772,75.332c-20.719,12.249-42.771,21.154-66.42,25.776
		c-9.288,1.815-18.697,3.121-28.196,3.446c-6.061-0.049-12.122-0.097-18.183-0.148c-0.836-0.007-1.645,0.022-1.946,1.023
		c-2.333,0-4.667,0-7,0c-0.589-1.546-1.95-0.935-2.997-0.995c-11.978-0.682-23.807-2.473-35.351-5.649
		c-33.736-9.281-63.63-25.538-89.056-49.76c-1.258-1.198-2.244-2.937-4.664-3.143c0,16.498,0,32.905,0,49.179
		c-26.561,0-52.769,0-79.039,0c0-1.533,0-2.698,0-3.864c0-182.259-0.001-364.517,0.004-546.776c0-1.331,0.068-2.662,0.105-3.993
		C529.667,0,556.333,0,583,0z M719.983,213.375c-9.172,0.57-19.433,1.033-29.561,3.402c-41.432,9.691-72.136,33.419-92.39,70.608
		c-15.771,28.958-19.714,59.956-14.135,92.233c5.527,31.973,20.844,58.585,45.287,79.787c18.908,16.4,40.648,27.269,65.379,32.062
		c20.96,4.062,41.685,3.414,62.203-2.339c27.989-7.848,51.517-22.801,70.022-45.269c27.332-33.185,37.53-71.287,30.999-113.631
		c-4.288-27.802-16.612-52.141-35.584-72.756C795.095,228.015,760.948,213.941,719.983,213.375z"/>
	<path style="fill:#050606;" d="M1625.971,221.865c-10.16,0.045-20.322-0.045-30.478,0.17c-11.663,0.246-23.098,1.671-34.226,5.688
		c-20.093,7.254-34.471,20.93-44.792,39.114c-9.133,16.091-12.351,33.836-13.145,52.109c-0.145,3.328-0.234,6.66-0.235,9.991
		c-0.013,73.304-0.01,146.607-0.01,219.911c0,1.826,0,3.653,0,5.815c-26.629,0-53.158,0-79.862,0c0-134.574,0-269.091,0-403.776
		c26.321,0,52.405,0,78.868,0c0,16.152,0,32.171,0,48.261c1.766-0.314,2.035-1.635,2.649-2.551
		c13.573-20.238,31.627-34.804,54.602-43.103c8.957-3.235,18.288-4.658,27.747-5.501c11.642-1.038,23.302-0.648,34.957-0.755
		c1.652-0.015,3.303-0.156,4.955-0.238c0,0.667,0,1.333,0,2c-1.863,1.39-0.911,3.381-0.918,5.054
		C1625.987,176.658,1625.991,199.262,1625.971,221.865z"/>
	<path style="fill:#424040;" d="M1625.971,221.865c0.02-22.604,0.016-45.208,0.111-67.811c0.007-1.673-0.945-3.665,0.918-5.054
		c0,24.333,0,48.667,0,73C1626.657,221.955,1626.314,221.91,1625.971,221.865z"/>
	<path style="fill:#726F6F;" d="M195,565c0.165-0.74,0.661-1.064,1.383-1.062c5.724,0.014,11.447,0.034,17.171,0.052
		c0.717,0.002,1.232,0.29,1.446,1.01C208.333,565,201.667,565,195,565z"/>
	<path style="fill:#737070;" d="M721,565c0.302-1.001,1.111-1.031,1.946-1.023c6.061,0.051,12.122,0.099,18.183,0.148
		c-0.161,0.274-0.204,0.566-0.129,0.876C734.333,565,727.667,565,721,565z"/>
	<path style="fill:#080808;" d="M1378.715,379.055c-109.855,0-219.282,0-328.984,0c0.903,8.008,2.808,15.382,5.337,22.531
		c12.995,36.743,36.877,63.992,72.354,80.271c21.465,9.849,44.251,13.4,68.011,11.51c20.027-1.594,38.791-6.785,56.43-16.244
		c17.891-9.595,32.5-23.027,45.089-38.796c0.828-1.037,1.655-2.074,2.494-3.1c0.098-0.12,0.275-0.176,0.893-0.555
		c18.99,14.076,38.15,28.279,57.383,42.535c-1.83,3.785-4.563,6.507-6.962,9.428c-21.385,26.036-47.564,45.865-78.349,59.445
		c-17.044,7.518-34.873,12.489-53.397,15.113c-14.558,2.062-29.121,3.099-43.798,2.619c-47.967-1.57-91.211-16.5-128.908-46.394
		c-27.933-22.151-48.298-50.179-62.172-82.953c-7.552-17.839-12.134-36.426-14.269-55.694c-1.713-15.46-2.167-30.919-0.658-46.368
		c2.407-24.629,8.885-48.169,19.547-70.574c10.831-22.761,24.96-43.214,43.021-60.725c28.686-27.811,62.5-46.155,101.859-54.258
		c19.942-4.106,40.022-5.065,60.122-3.489c42.532,3.335,80.75,18.099,113.517,45.782c23.383,19.754,40.745,44.023,52.961,72.103
		c8.405,19.318,13.853,39.408,16.49,60.227C1379.114,340.325,1379.08,359.317,1378.715,379.055z M1051.646,315.01
		c82.022,0,163.586,0,245.193,0c-9.221-51.379-53.055-98.126-112.406-102.073C1110.154,207.997,1062.95,261.539,1051.646,315.01z"/>
</g>
</svg>
