<?xml version="1.0" encoding="iso-8859-1"?>
<!-- Generator: Adobe Illustrator 27.0.0, SVG Export Plug-In . SVG Version: 6.00 Build 0)  -->
<svg version="1.1" id="Layer_1" xmlns="http://www.w3.org/2000/svg" xmlns:xlink="http://www.w3.org/1999/xlink" x="0px" y="0px"
	 viewBox="0 0 102 118" style="enable-background:new 0 0 102 118;" xml:space="preserve">
<g>
	<path style="fill:#077C40;" d="M0,103c0-29,0-58,0-87c1.805-0.088,3.721,0.182,5.391-0.339c3.476-1.084,6.934-1.929,10.595-1.726
		c1.204,4.212,1.033,8.531,1.017,12.841c-0.019,5.165-0.107,10.333,0.018,15.496c0.222,9.12-0.71,18.273,0.754,27.358
		c-2.175-1.666-1.912-4.073-1.917-6.384c-0.014-5.742-0.004-11.484-0.004-17.477c-2.633,0-4.717,0-6.902,0
		c2.332,2.457,2.351,2.457,2.378,5.939c0.025,3.156,0.14,6.319-0.035,9.466c-0.223,4.001,0.69,7.551,3.361,10.589
		c-0.936,0.236-1.995,0.252-2.745,2.15c0,9.599,0,19.981,0,30.362C7.883,104.383,4.044,102.734,0,103z"/>
	<path style="fill:#C5DC8F;" d="M95,118c-0.667,0-1.333,0-2,0c-2.627-2.363-5.993-1.623-9.056-2.155
		c-1.13-4.224-0.959-8.544-0.95-12.853c1.251-0.199,2.702,0.424,3.676-0.87c0-28.552,0-57.074,0-85.451
		c-1.624-1.045-3.173-0.516-4.616-0.75c1.533-3.948,0.615-8.122,1.124-12.165c3.899-0.978,7.804-1.911,11.861-1.902
		C95.027,40.568,95.013,79.284,95,118z"/>
	<path style="fill:#CFE1A1;" d="M95.04,1.852C96.134,0.752,98.143,1.607,99,0c1,0,2,0,3,0c0,39.333,0,78.667,0,118
		c-2.333,0-4.667,0-7,0C95.013,79.284,95.027,40.568,95.04,1.852z"/>
	<path style="fill:#0C8744;" d="M15.985,13.936c1.564-0.901,3.259-1.048,5.011-0.875c0.101,0.926-0.181,1.972,1.281,2.938
		c1.933,0,4.331,0,6.729,0c0.329,0,0.658,0.002,0.987,0.006c-1.451,9.151-0.94,18.325-0.955,27.975c3.743,0,6.859,0,9.974,0
		c1.084,0.156,2.244-0.312,3.315,0.403c-1.301,0.825-0.086,2.501-1.064,3.283c-1.01,0.543-2.173,0.11-2.75,1.063
		c-1.724,1.758-0.732,4.511-2.438,6.275c-0.27-2.005-0.359-4.008,0.096-6.002c0.486-0.277,0.72-0.701,0.734-1.254
		c0.569-0.413,1.139-0.825,2.544-1.844c-4.081,0.567-7.337-0.955-10.39,1.046c0.393,1.07,0.985,2.052,0.978,3.274
		c-0.036,6.075-0.017,12.151-0.017,17.172c-0.786,2.507-3.015,2.506-3.03,4.334c-3.347,0.506-6.796,1.461-9.216-2.101
		c-1.464-9.085-0.532-18.238-0.754-27.358c-0.126-5.162-0.037-10.33-0.018-15.496C17.018,22.466,17.19,18.147,15.985,13.936z"/>
	<path style="fill:#0C8744;" d="M24.765,106.106c-4.338-0.239-8.667-0.545-12.856-1.831c0-10.381,0-20.762,0-30.362
		c0.75-1.897,1.809-1.914,2.745-2.15c0.265,0.088,0.449,0.262,0.553,0.52c-0.018,1.464,0.843,1.706,2.047,1.473l-0.065-0.109
		c0.607,1.923,1.64,1.547,2.794,0.519c3.119-0.301,6.503,0.5,9.05-2.178l-0.069,0.09c0.347-0.025,0.693-0.049,1.04-0.074
		c0.368,0.342,0.736,0.683,1.104,1.025c0.799,1.84,3.037,0.217,4.101,1.608c-1.212,0.812-2.801-0.143-4.23,1.614
		c0,8.552,0,17.639,0,26.726c-2.201,0.253-4.532-0.486-6.075,0.26C23.64,104.742,26.572,105.032,24.765,106.106z"/>
	<path style="fill:#D9E9DE;" d="M15.207,72.284c-0.104-0.258-0.288-0.432-0.553-0.52c-2.671-3.038-3.585-6.589-3.361-10.589
		c0.176-3.146,0.06-6.31,0.035-9.466c-0.027-3.482-0.046-3.482-2.378-5.939c2.185,0,4.269,0,6.902,0
		c0,5.992-0.009,11.735,0.004,17.477c0.005,2.311-0.258,4.718,1.917,6.384c2.42,3.562,5.869,2.607,9.216,2.101
		c0.677,0.117,1.453-0.555,2.043,0.256c-2.547,2.678-5.931,1.877-9.05,2.178c-0.931-0.173-1.863-0.346-2.794-0.519
		c0,0,0.065,0.109,0.065,0.109C16.775,72.983,16.002,72.618,15.207,72.284z"/>
	<path style="fill:#87BC43;" d="M82.054,15.92c1.443,0.234,2.992-0.295,4.616,0.75c0,28.378,0,56.9,0,85.451
		c-0.974,1.294-2.425,0.672-3.676,0.87c-0.676-0.085-1.352-0.169-2.028-0.254c-1.633-9.202-0.741-18.493-0.97-27.744
		c0.855-1.33,0.904-2.661,0.005-3.994c0.357-2.108,1.063-4.11,1.049-6.336c-0.102-16.159-0.069-32.319-0.078-48.478
		C81.332,16.097,81.693,16.008,82.054,15.92z"/>
	<path style="fill:#B0D26A;" d="M80.966,102.738c0.676,0.085,1.352,0.169,2.028,0.254c-0.009,4.308-0.18,8.629,0.95,12.853
		c-4.266-0.812-8.531-1.625-12.797-2.437c-0.039-3.458-0.079-6.916-0.118-10.374c0.996-0.057,1.991-0.115,2.987-0.172
		C76.332,102.82,78.649,102.779,80.966,102.738z"/>
	<path style="fill:#B0D26A;" d="M82.054,15.92c-0.361,0.089-0.722,0.177-1.083,0.266c-1.986-0.043-3.972-0.085-5.959-0.128
		c-0.564,0.047-0.891,0.388-1.096,0.881c-0.956-0.014-1.912-0.029-2.868-0.043c-0.014-2.666-0.053-5.332-0.03-7.998
		c0.012-1.408-0.218-2.656-1.569-3.415c4.576-0.576,9.153-1.152,13.729-1.729C82.67,7.797,83.587,11.972,82.054,15.92z"/>
	<path style="fill:#A1CB4F;" d="M69.45,5.483c1.351,0.759,1.581,2.007,1.569,3.415c-0.022,2.666,0.017,5.332,0.03,7.998
		c-0.688,0.056-1.375,0.112-2.063,0.167c-2.331-0.013-4.663-0.027-6.994-0.04c-1.303-0.036-2.607-0.071-3.91-0.107
		c-0.195-1.347,0.487-2.525,0.702-3.776c0.346-2.011,0.94-4.273-1.424-5.682C61.303,6.267,65.388,5.946,69.45,5.483z"/>
	<path style="fill:#7AB544;" d="M57.361,7.458c2.364,1.409,1.77,3.671,1.424,5.682c-0.215,1.252-0.898,2.429-0.702,3.776
		c-1.034,0.044-2.067,0.088-3.101,0.132c-1.656-0.029-3.312-0.058-4.968-0.087c0.153-2.898,1.487-5.661,0.977-8.634
		C53.114,8.037,55.237,7.747,57.361,7.458z"/>
	<path style="fill:#6DAF44;" d="M50.991,8.327c0.51,2.973-0.824,5.737-0.977,8.634c-1.009-0.308-1.869-1.116-3.033-0.908
		c-0.991-0.02-1.983-0.04-2.974-0.06c-0.013-2.203-0.025-4.407-0.038-6.61C46.279,8.828,48.602,8.356,50.991,8.327z"/>
	<path style="fill:#3E9B47;" d="M29.993,16.005c-0.329-0.005-0.658-0.007-0.987-0.006c-0.021-1.017,0.344-1.863,1.065-2.588
		c0.546-0.55,0.573-1.091-0.209-1.486c2.903-1.309,6.058-1.276,9.124-1.723c-0.432,1.915-1.321,3.753-0.987,5.798
		C35.33,16.002,32.661,16.004,29.993,16.005z"/>
	<path style="fill:#4EA246;" d="M37.998,16.001c-0.334-2.046,0.555-3.883,0.987-5.798c1.661-0.273,3.323-0.546,4.984-0.819
		c0.013,2.203,0.025,4.407,0.038,6.61c-1.341,0.015-2.682,0.03-4.023,0.045C39.322,16.026,38.66,16.014,37.998,16.001z"/>
	<path style="fill:#118F46;" d="M29.862,11.925c0.782,0.395,0.755,0.936,0.209,1.486c-0.721,0.725-1.086,1.571-1.065,2.588
		c-2.398,0-4.796,0-6.729,0c-1.462-0.966-1.179-2.012-1.281-2.938c0.637-0.297,1.289-0.46,1.987-0.224
		c0.178,0.223,0.357,0.447,0.535,0.67c0.125-0.257,0.251-0.514,0.376-0.771C25.806,11.9,27.824,11.836,29.862,11.925z"/>
	<path style="fill:#0C8744;" d="M23.894,12.735c-0.125,0.257-0.251,0.514-0.376,0.771c-0.178-0.223-0.357-0.447-0.535-0.67
		C23.258,12.55,23.562,12.516,23.894,12.735z"/>
	<path style="fill:#87BC43;" d="M65.957,112.804c-4.327-0.692-8.653-1.385-12.98-2.077c-1.097-2.478-1.013-5.105-0.976-7.726
		c0.985-0.023,1.97-0.046,2.955-0.069c3.342,0.014,6.684,0.029,10.025,0.043C65.345,106.247,66.442,109.447,65.957,112.804z"/>
	<path style="fill:#A1CB4F;" d="M65.957,112.804c0.486-3.357-0.612-6.557-0.975-9.829c1.329-0.042,2.658-0.084,3.987-0.126
		c0.687,0.062,1.374,0.124,2.06,0.186c0.039,3.458,0.079,6.916,0.118,10.374C69.381,113.513,67.655,113.281,65.957,112.804z"/>
	<path style="fill:#6DAF44;" d="M52.001,103.001c-0.038,2.621-0.122,5.248,0.976,7.726c-1.995-0.317-3.991-0.634-5.986-0.951
		c0.378-2.358-0.49-4.535-0.987-6.766c0.034-0.305,0.056-0.611,0.064-0.918C48.057,102.324,49.927,103.325,52.001,103.001z"/>
	<path style="fill:#5FA846;" d="M46.004,103.009c0.497,2.231,1.365,4.407,0.987,6.766c-2.421,0.336-4.666-0.616-6.995-0.955
		c0.002-1.926,0.004-3.853,0.006-5.779C42.002,103.031,44.003,103.02,46.004,103.009z"/>
	<path style="fill:#269547;" d="M24.765,106.106c1.807-1.073-1.125-1.364,0.14-2.869c1.543-0.746,3.874-0.007,6.075-0.26
		c0.678,0.011,1.357,0.022,2.035,0.033c-0.299,1.439,2.069,3.285-0.664,4.352C29.791,107.133,27.154,107.366,24.765,106.106z"/>
	<path style="fill:#4EA246;" d="M32.351,107.362c2.734-1.067,0.365-2.913,0.664-4.352c2.329-0.012,4.657-0.024,6.986-0.036l0,0.068
		c-0.002,1.926-0.004,3.853-0.006,5.779C37.421,108.469,34.797,108.381,32.351,107.362z"/>
	<path style="fill:#269547;" d="M46.004,103.009c-2.001,0.011-4.002,0.022-6.003,0.032l0-0.068c-0.303-2.623-2.12-4.888-1.969-7.583
		c0.384-6.882-1.008-13.832,0.849-20.663c0.389-1.429-0.013-2.662-1.862-2.739c-0.023-0.8-0.096-1.577-0.943-1.986
		c-0.34-5-0.338-9.999-0.001-14.999c1.706-1.764,0.714-4.517,2.438-6.275c0.578-0.953,1.74-0.52,2.75-1.063
		c0.978-0.781-0.238-2.458,1.064-3.283c-1.071-0.715-2.232-0.247-3.315-0.403c0.024-9.324-0.412-18.665,0.972-27.942
		c1.341-0.015,2.682-0.03,4.023-0.045c0.991,0.02,1.983,0.04,2.974,0.06c0.325,3.141-1.28,6.014-1.051,9.219
		c0.513,7.156-0.727,14.402,1.068,21.504c-0.594,0.154-1.188,0.308-2.428,0.629c0.704,0.395,1.067,0.6,1.431,0.804
		c-1.456,1.001-2.099,2.267-2.045,4.147c0.142,4.982,0.036,9.97,0.057,14.956c0.005,1.141-0.341,2.505,0.651,3.306
		c1.753,1.416,1.313,3.284,1.324,5.05c0.053,8.808,0.058,17.615,0.08,26.423C46.06,102.398,46.038,102.704,46.004,103.009z"/>
	<path style="fill:#118F46;" d="M39.984,16.039c-1.385,9.277-0.948,18.617-0.972,27.942c-3.116,0-6.231,0-9.974,0
		c0.015-9.651-0.495-18.824,0.955-27.975c2.668-0.001,5.337-0.003,8.005-0.004C38.66,16.014,39.322,16.026,39.984,16.039z"/>
	<path style="fill:#269547;" d="M29.059,46.951c2.389-0.146,2.645,1.644,2.666,3.262c0.077,6.072,0.276,12.166-0.184,18.205
		c-0.125,1.647,0.596,3.081,0.252,4.624c-0.228-0.004-0.456-0.009-0.684-0.014c-0.368-0.342-0.736-0.683-1.104-1.025
		c0.018-0.491-0.218-0.904-0.691-0.86c-0.521,0.048-0.573,0.49-0.349,0.934l0.069-0.09c-0.59-0.81-1.366-0.139-2.043-0.256
		c0.015-1.828,2.245-1.827,3.03-4.334c0-5.022-0.02-11.097,0.017-17.172C30.045,49.004,29.453,48.021,29.059,46.951z"/>
	<path style="fill:#118F46;" d="M36.171,49.003c-0.146-0.647,0.163-1.028,0.734-1.254C36.891,48.302,36.657,48.726,36.171,49.003z"
		/>
	<path style="fill:#118F46;" d="M31.109,73.028c0.228,0.005,0.456,0.009,0.684,0.014c1.386,0.258,2.766,0.205,4.143-0.074
		c0.361-0.326,0.722-0.652,1.083-0.978c1.849,0.076,2.251,1.31,1.862,2.739c-1.858,6.831-0.465,13.781-0.849,20.663
		c-0.15,2.695,1.666,4.96,1.969,7.583c-2.329,0.012-4.657,0.024-6.986,0.036c-0.678-0.011-1.357-0.022-2.035-0.033
		c0-9.087,0-18.174,0-26.726c1.429-1.757,3.018-0.803,4.23-1.614C34.146,73.245,31.907,74.868,31.109,73.028z"/>
	<path style="fill:#077C40;" d="M17.189,73.647c0.931,0.173,1.863,0.346,2.794,0.519C18.829,75.195,17.796,75.57,17.189,73.647z"/>
	<path style="fill:#077C40;" d="M15.207,72.284c0.795,0.334,1.567,0.7,2.047,1.473C16.05,73.99,15.19,73.747,15.207,72.284z"/>
	<path style="fill:#D9E9DE;" d="M28.964,72.077c-0.224-0.443-0.173-0.885,0.349-0.934c0.473-0.044,0.71,0.368,0.691,0.86
		C29.658,72.028,29.311,72.052,28.964,72.077z"/>
	<path style="fill:#7AB544;" d="M75.013,16.058c1.986,0.043,3.972,0.085,5.959,0.128c0.01,16.16-0.024,32.319,0.078,48.478
		c0.014,2.225-0.692,4.228-1.049,6.336c-1.231-0.294-1.82-1.953-3.363-1.585l0.059-0.119c0.471-1.743-0.177-2.802-1.943-3.176
		l0.086,0.088c0.216-1.677-0.3-2.828-2.162-3.015l0.08,0.07c-0.251-3.044,1.6-5.203,3.153-7.191c0-1.782,0.076-3.272-0.026-4.749
		c-0.07-1.01-0.947-1.224-1.805-1.316c-0.255-0.218-0.412-0.493-0.47-0.823c2.113-1.022,1.916-3.381,1.773-4.808
		c-0.912-9.13-0.06-18.262-0.383-27.382C75,16.682,75.004,16.37,75.013,16.058z"/>
	<path style="fill:#7AB544;" d="M80.966,102.738c-2.317,0.041-4.633,0.082-6.95,0.124c1.125-1.585,0.993-3.402,0.99-5.208
		c-0.013-7.549-0.003-15.098-0.001-22.647c1.664-0.004,3.328-0.009,4.991-0.013C80.224,84.245,79.332,93.536,80.966,102.738z"/>
	<path style="fill:#5FA846;" d="M79.996,74.993c-1.664,0.004-3.328,0.009-4.991,0.013c-0.847-0.343-0.979-1.079-1.027-1.862
		c1.607,0.892,3.248,1.313,4.994,0.394c0.205-1.969-2.006-2.51-2.334-4.123c1.544-0.368,2.132,1.291,3.363,1.585
		C80.9,72.332,80.851,73.663,79.996,74.993z"/>
	<path style="fill:#6DAF44;" d="M73.978,73.144c0.047,0.783,0.18,1.52,1.027,1.862c-0.002,7.549-0.011,15.098,0.001,22.647
		c0.003,1.806,0.135,3.623-0.99,5.208c-0.996,0.057-1.991,0.115-2.987,0.172c-0.687-0.062-1.374-0.124-2.06-0.186
		c0-10.318,0-20.636,0-30.337c0.899-1.572,1.955-1.723,2.825-2.171l0.003,0.203c-0.918,2.149,0.705,2.219,2.055,2.513L73.978,73.144
		z"/>
	<path style="fill:#6DAF44;" d="M75,16.994c0.323,9.12-0.529,18.251,0.383,27.382c0.142,1.427,0.34,3.786-1.773,4.808
		c-1.259-0.894-2.519-1.787-3.778-2.681c-0.69-2.208-0.871-4.462-0.854-6.775c0.056-7.555,0.014-15.11,0.009-22.665
		c0.688-0.056,1.375-0.112,2.063-0.167c0.956,0.014,1.912,0.029,2.868,0.043C74.278,16.957,74.639,16.976,75,16.994z"/>
	<path style="fill:#87BC43;" d="M75,16.994c-0.361-0.018-0.722-0.037-1.083-0.055c0.205-0.493,0.532-0.834,1.096-0.881
		C75.004,16.37,75,16.682,75,16.994z"/>
	<path style="fill:#4EA246;" d="M54.982,17.048c1.034-0.044,2.067-0.088,3.101-0.132c1.303,0.036,2.607,0.071,3.91,0.107
		c0.006,8.989,0.011,17.977,0.017,26.966c-2.567-0.204-5.241,0.574-8.025-0.801C54.344,34.447,53.141,25.71,54.982,17.048z"/>
	<path style="fill:#5FA846;" d="M62.009,43.989C62.004,35,61.998,26.012,61.993,17.023c2.331,0.013,4.663,0.027,6.994,0.04
		c0.004,7.555,0.046,15.11-0.009,22.665c-0.017,2.313,0.164,4.568,0.854,6.775c-0.936-0.182-1.872-0.363-2.807-0.545
		c-0.043-0.174-0.115-0.335-0.215-0.484C65.853,42.898,63.615,44.465,62.009,43.989z"/>
	<path style="fill:#3E9B47;" d="M62.009,43.989c1.606,0.476,3.844-1.091,4.799,1.485c-5.551-0.632-10.893-0.346-13.444,0.718
		c0.254,0.797,0.932,0.738,1.564,0.771c1.785,1.922,1.075,4.157,1.011,7.331c-2.361-4.187-5.121-6.562-8.941-7.518
		c-1.795-7.102-0.555-14.349-1.068-21.504c-0.23-3.205,1.376-6.078,1.051-9.219c1.164-0.209,2.023,0.6,3.033,0.908
		c1.656,0.029,3.312,0.058,4.968,0.087c-1.84,8.662-0.638,17.399-0.998,26.14C56.768,44.563,59.442,43.785,62.009,43.989z"/>
	<path style="fill:#5FA846;" d="M71.793,70.341c-0.87,0.447-1.926,0.599-2.825,2.171c0,9.7,0,20.019,0,30.337
		c-1.329,0.042-2.658,0.084-3.987,0.126c-3.342-0.014-6.684-0.029-10.025-0.043c0.017-7.248,0.075-14.496,0.031-21.743
		c-0.017-2.808,0.089-5.571,1.041-8.242c1.273,0.204,2.558,0.582,4.183-0.437c0-6.866-0.053-13.929,0.041-20.99
		c0.02-1.539-0.798-3.302,0.742-4.628l-0.049,0.454c0,8.277,0,16.553,0,24.83c0.344,0.005,0.687,0.01,1.031,0.014
		c0-7.851,0-15.703,0-23.107c1.603-1.449,3.075-0.891,4.292-1.364l0.031-0.075c0.01,0.278,0.019,0.556,0.029,0.834
		c0.215-0.135,0.431-0.269,0.646-0.404c2.706,1.177,3.278,3.455,3.093,6.086c-0.27,3.836-3.286,5.079-6.364,6.219
		C67.742,62.877,69.815,66.57,71.793,70.341z"/>
	<path style="fill:#3E9B47;" d="M56.028,72.947c-0.952,2.672-1.058,5.434-1.041,8.242c0.044,7.247-0.014,14.495-0.031,21.743
		c-0.985,0.023-1.97,0.046-2.955,0.069c-2.074,0.324-3.945-0.677-5.933-0.91c-0.022-8.808-0.026-17.616-0.08-26.423
		c-0.011-1.766,0.43-3.634-1.324-5.05c-0.991-0.801-0.646-2.165-0.651-3.306c-0.021-4.986,0.084-9.974-0.057-14.956
		c-0.053-1.879,0.59-3.145,2.045-4.147c1.478,1.682,2.956,3.363,5.104,5.807c2.29,6.061,1.413,12.492-4.113,18.01
		c0.097,1.086,0.413,2.017,1.761,1.857c1.358-0.161,1.994-1.058,2.117-2.369c1.621-1.493,3.242-2.986,5.158-4.751
		C56.028,69.111,56.028,71.029,56.028,72.947z"/>
	<path style="fill:#0C8744;" d="M37.019,71.989c-0.361,0.326-0.722,0.652-1.083,0.978c0.047-0.988,0.094-1.976,0.141-2.964
		C36.923,70.413,36.996,71.189,37.019,71.989z"/>
	<path style="fill:#5FA846;" d="M72.757,63.263c-0.979-0.876-1.957-1.753-3.239-2.901c3.838-2.661,6.791-5.504,4.561-10.355
		c0.859,0.092,1.735,0.306,1.805,1.316c0.102,1.477,0.026,2.967,0.026,4.749C74.356,58.06,72.506,60.219,72.757,63.263z"/>
	<path style="fill:#5FA846;" d="M74.839,66.208c-1.1-0.733-1.848-1.718-2.162-3.015C74.539,63.38,75.055,64.531,74.839,66.208z"/>
	<path style="fill:#5FA846;" d="M76.696,69.297c-1.214-0.712-1.664-1.892-1.943-3.176C76.519,66.495,77.167,67.554,76.696,69.297z"
		/>
	<path style="fill:#5FA846;" d="M71.796,70.543c1.001,0.579,1.493,1.575,2.055,2.513C72.501,72.763,70.878,72.692,71.796,70.543z"/>
	<path style="fill:#CFE1A1;" d="M67.024,45.958c-0.971,0.38-2.245-0.232-2.984,0.909c-1.031,0.16-2.062,0.319-3.094,0.479
		l0.049-0.454c-2.036-1.152-4.059-1.268-6.066,0.072c-0.633-0.032-1.31,0.027-1.564-0.771c2.55-1.064,7.892-1.35,13.444-0.718
		C66.909,45.623,66.98,45.784,67.024,45.958z"/>
	<path style="fill:#3E9B47;" d="M60.946,47.346c1.031-0.16,2.062-0.319,3.094-0.479c0.78,0.188,1.719-0.041,2.23,0.852
		c-1.217,0.473-2.689-0.086-4.292,1.364c0,7.404,0,15.255,0,23.107c-0.344-0.005-0.687-0.01-1.031-0.014
		C60.946,63.899,60.946,55.623,60.946,47.346z"/>
	<path style="fill:#3E9B47;" d="M66.301,47.645c0.326-0.015,0.551,0.128,0.675,0.431c-0.215,0.135-0.431,0.269-0.646,0.404
		C66.32,48.201,66.31,47.923,66.301,47.645z"/>
	<path style="fill:#269547;" d="M46.993,72.026c1.306-0.071,2.648,0.135,3.877-0.512c-0.123,1.311-0.759,2.208-2.117,2.369
		C47.406,74.043,47.09,73.112,46.993,72.026z"/>
</g>
</svg>
