<?xml version="1.0" encoding="iso-8859-1"?>
<!-- Generator: Adobe Illustrator 27.0.0, SVG Export Plug-In . SVG Version: 6.00 Build 0)  -->
<svg version="1.1" id="Layer_1" xmlns="http://www.w3.org/2000/svg" xmlns:xlink="http://www.w3.org/1999/xlink" x="0px" y="0px"
	 viewBox="0 0 1559.719 362" style="enable-background:new 0 0 1559.719 362;" xml:space="preserve">
<g>
	<path style="fill:#0A7C45;" d="M964,0c1.155,1.86,3.002,0.865,4.514,1c11.801,1.054,23.392,3.005,34.412,7.582
		c17.981,7.467,27.704,20.727,29.3,40.316c1.403,17.222-3.748,31.868-15.884,43.908c-9.027,8.956-20.244,14.408-32.296,18.171
		c-3.003,0.938-6.057,1.709-9.125,2.567c0.489,1.847,2.092,1.241,3.254,1.457c12.996,2.414,25.496,5.989,36.501,13.804
		c10.62,7.541,17.722,17.449,21.011,29.979c3.459,13.173,3.377,26.399-1.031,39.343c-4.99,14.651-14.8,25.387-28.06,33.145
		c-15.271,8.935-31.923,12.84-49.418,13.856c-29.462,1.712-58.943,0.12-88.026,0.89c-1.559-1.134-1.152-2.397-1.152-3.499
		c-0.017-79.979-0.014-159.958-0.007-239.937c0-0.497,0.083-0.994,0.127-1.491c1.331-0.031,2.662-0.09,3.993-0.09
		c27.143-0.005,54.286,0.015,81.428-0.054C955.015,0.942,956.9,2.058,958,0C960,0,962,0,964,0z M922.098,223.838
		c6.71,0,13.037,0.392,19.3-0.072c20.681-1.533,36.073-15.591,39.75-35.831c1.907-10.498,1.414-20.94-1.321-31.164
		c-3.335-12.466-10.822-21.471-23.241-26.05c-11.267-4.155-22.847-2.488-34.489-2.855
		C922.098,160.123,922.098,191.737,922.098,223.838z M922.207,105.905c6.066,0,11.727,0.259,17.356-0.048
		c18.489-1.006,32.134-11.826,37.223-29.407c1.815-6.27,2.615-12.726,2.075-19.248c-1.564-18.884-12.412-30.029-29.187-33.999
		c-8.969-2.123-18.132-1.272-27.467-1.247C922.207,49.995,922.207,77.73,922.207,105.905z"/>
	<path style="fill:#273C70;" d="M202.781,1.146c0.046,1.163,0.133,2.327,0.133,3.49c0.005,42.494,0.04,84.987-0.016,127.481
		c-0.025,19.217-1.86,38.221-7.921,56.59c-6.213,18.834-16.463,34.852-33.268,46.015c-10.387,6.9-21.952,11.019-34.16,13.241
		c-15.819,2.879-31.72,3.237-47.717,1.386c-8.79-1.017-17.375-2.707-25.788-5.434c-24.689-8.003-39.579-25.253-46.982-49.6
		c-3.352-11.024-5.103-22.34-6.065-33.796C0.92,159.597,1.286,158.46,0,158c0-1.333,0-2.667,0-4c1.387-3.028,1.387-8.381,0-12
		C0,95,0,48,0,1c17.916,0,35.832,0,53.989,0c0,2.396,0,4.203,0,6.011c0.001,42.966,0.012,85.931-0.005,128.897
		c-0.004,11.157-0.028,22.317,1.077,33.431c0.855,8.602,2.109,17.145,4.944,25.37c5.046,14.644,14.459,24.91,29.734,28.925
		c8.084,2.125,16.315,2.499,24.736,1.697c15.866-1.51,27.529-9.048,35.161-22.89c6.374-11.562,8.839-24.284,10.329-37.197
		c1.72-14.902,1.821-29.888,1.804-44.875c-0.042-37.97-0.017-75.939-0.004-113.909c0.001-1.824,0.145-3.648,0.223-5.471
		C175.586,1.042,189.183,1.094,202.781,1.146z"/>
	<path style="fill:#A2A4A6;" d="M652,362c0-21.438,0-42.875,0-64.093c0.777-1.056,1.558-0.919,3-0.374c0,21.328,0,42.897,0,64.467
		C654,362,653,362,652,362z"/>
	<path style="fill:#8CAD8E;" d="M958,0c-1.1,2.058-2.985,0.942-4.457,0.946C926.4,1.015,899.257,0.995,872.114,1
		c-1.331,0-2.662,0.059-3.993,0.09C868.081,0.727,868.04,0.363,868,0C898,0,928,0,958,0z"/>
	<path style="fill:#8CAD8E;" d="M1402.016,1.015c-0.005-0.338-0.011-0.676-0.016-1.015c16.333,0,32.667,0,49,0
		c0.002,0.331,0.005,0.662,0.007,0.994C1434.677,1.001,1418.347,1.008,1402.016,1.015z"/>
	<path style="fill:#8283A4;" d="M161.988,0.989C161.992,0.659,161.996,0.33,162,0c13.667,0,27.333,0,41,0
		c-0.073,0.382-0.146,0.764-0.219,1.146C189.183,1.094,175.586,1.042,161.988,0.989z"/>
	<path style="fill:#61658E;" d="M0,142c1.387,3.619,1.387,8.972,0,12C0,150,0,146,0,142z"/>
	<path style="fill:#0A7C45;" d="M1402.016,1.015c16.33-0.007,32.66-0.014,48.991-0.021c0.077,1.991,0.22,3.983,0.221,5.974
		c0.011,46.811,0.007,93.622,0.006,140.433c0,1.752,0,3.503,0,5.255c0.287,0.107,0.573,0.214,0.86,0.322
		c23.129-25.897,46.258-51.794,69.401-77.706c10.707,0,21.293,0,32.735,0c-20.509,21.354-40.537,42.208-60.766,63.27
		c22.052,35.618,43.979,71.033,66.255,107.013c-19.294,0-37.836,0-57.098,0c-16.629-27.123-33.524-54.68-50.419-82.237
		c-0.295,0.075-0.59,0.15-0.885,0.225c0,27.274,0,54.549,0,82.073c-16.598,0-32.685,0-48.795,0
		c-1.107-0.883-0.693-2.138-0.693-3.235c-0.021-79.629-0.02-159.258-0.011-238.887C1401.819,2.668,1401.948,1.841,1402.016,1.015z"
		/>
	<path style="fill:#273C70;" d="M381.504,245.73c-16.107,0-32.065,0-48.244,0c-0.859-1.769-0.491-3.616-0.493-5.372
		c-0.027-29.329,0.083-58.658-0.08-87.986c-0.051-9.136-0.376-18.32-2.696-27.254c-1.733-6.671-4.311-12.928-9.488-17.785
		c-9.473-8.887-30.177-10.114-40.54,6.977c-5.861,9.667-7.921,20.389-7.99,31.518c-0.108,17.663-0.021,35.328-0.018,52.992
		c0.002,13.831,0,27.662,0,41.494c0,1.645,0,3.29,0,5.247c-16.53,0-32.785,0-49.081,0c-0.933-3.268-1.241-163.041-0.253-170.18
		c16.214,0,32.464,0,49.155,0c0,8.103,0,16.17,0,25.28c2.32-2.854,3.859-4.965,5.617-6.875
		c16.392-17.813,36.566-25.208,60.623-22.021c7.673,1.016,14.965,2.977,21.528,7.237c10.883,7.065,16.263,17.732,19.319,29.813
		c2.668,10.548,3.283,21.347,3.283,32.191c0,33.828,0.013,67.656,0.007,101.484C382.151,243.456,382.38,244.48,381.504,245.73z"/>
	<path style="fill:#273C70;" d="M717.349,245.683c-16.728,0-32.817,0-49.187,0c0-56.756,0-113.325,0-170.225
		c16.16,0,32.378,0,49.119,0c0,8.079,0,16.095,0,25.194c2.61-3.155,4.353-5.526,6.36-7.647
		c16.361-17.287,36.314-24.341,59.973-21.251c11.066,1.445,21.002,5.067,28.789,13.311c6.946,7.354,10.483,16.464,12.567,26.174
		c2.174,10.128,2.896,20.425,2.911,30.76c0.049,33.319,0.026,66.638,0.009,99.956c-0.001,1.129,0.3,2.321-0.53,3.65
		c-16.104,0-32.353,0-48.743,0c-1.05-1.624-0.509-3.503-0.512-5.257c-0.04-29.82-0.051-59.641-0.017-89.461
		c0.011-9.349-0.528-18.624-3.066-27.679c-1.357-4.839-3.299-9.451-6.562-13.305c-11.002-12.993-31.824-11.641-41.832,2.7
		c-5.167,7.404-7.509,15.873-8.561,24.699c-0.59,4.95-0.77,9.944-0.757,14.952c0.074,29.32,0.036,58.641,0.037,87.962
		C717.349,241.871,717.349,243.526,717.349,245.683z"/>
	<path style="fill:#0C7D45;" d="M1379.146,245.713c-16.258,0-32.383,0-48.703,0c-0.732-1.841-0.386-3.682-0.388-5.452
		c-0.027-29.653-0.025-59.306-0.016-88.959c0.003-9.179-0.652-18.278-2.939-27.211c-0.704-2.751-1.845-5.312-2.92-7.925
		c-7.811-18.98-34.807-20.278-46.037-3.087c-4.739,7.254-7.044,15.356-8.113,23.837c-0.686,5.449-0.842,10.936-0.828,16.442
		c0.073,28.82,0.035,57.64,0.035,86.46c0,1.816,0,3.633,0,5.749c-16.518,0-32.738,0-49.202,0c0-56.725,0-113.292,0-170.149
		c16.311,0,32.53,0,49.106,0c0,7.968,0,15.74,0,23.364c1.721,0.737,2.067-0.508,2.614-1.199
		c16.379-20.659,37.664-29.066,63.76-25.805c10.882,1.36,20.694,4.922,28.433,12.949c7.279,7.551,10.839,17.003,13.017,27.038
		c2.199,10.133,2.755,20.462,2.801,30.774c0.146,33.151,0.06,66.302,0.04,99.453C1379.803,243.116,1380.139,244.32,1379.146,245.713
		z"/>
	<path style="fill:#273C70;" d="M472.852,164.722c-0.071-19.978,3.203-37.125,12.034-52.9c8.389-14.984,20.299-26.132,36.261-32.873
		c19.602-8.278,39.866-9.72,60.652-6.33c10.925,1.782,21.225,5.341,30.761,11.024c16.166,9.634,27.076,23.569,32.327,41.491
		c7.772,26.53,5.924,52.855-5.369,77.944c-11.001,24.438-30.243,39.44-56.71,44.983c-17.599,3.686-35.125,3.345-52.317-1.51
		c-28.861-8.151-46.81-27.321-54.438-56.225C473.661,181.269,472.599,172.034,472.852,164.722z M526.285,162.8
		c0.558,8.108,0.315,17.285,1.737,26.353c0.591,3.768,1.161,7.551,2.021,11.263c2.075,8.958,4.948,17.619,11.085,24.745
		c10.176,11.817,26.66,11.987,37.126,0.459c4.424-4.872,7.363-10.632,9.688-16.707c4.244-11.092,6.31-22.649,7.322-34.451
		c1.57-18.307,1.552-36.542-2.305-54.595c-1.923-9-5.147-17.401-11.262-24.619c-9.341-11.027-29.636-10.811-38.895-0.758
		c-6.075,6.596-9.392,14.401-11.698,22.794C527.102,131.849,526.862,146.835,526.285,162.8z"/>
	<path style="fill:#0E7D46;" d="M1212.859,228.881c0,3.717,0,6.849,0,10.196c-9.008,3.989-17.983,8.143-27.934,8.59
		c-16.116,0.723-28.225-6.174-36.082-20.348c-0.402-0.725-0.725-1.494-1.101-2.234c-0.375-0.737-0.771-1.463-1.158-2.193
		c-1.695,0.155-1.928,1.719-2.655,2.71c-9.285,12.641-21.739,19.62-37.285,21.53c-11.649,1.432-22.943,0.441-33.725-4.203
		c-13.956-6.011-21.947-16.642-24.008-31.803c-2.974-21.876,6.121-37.734,24.223-49.122c12.365-7.779,26.088-12.285,40.09-15.975
		c9.791-2.58,19.665-4.84,29.483-7.322c1.07-0.271,2.307-0.352,3.438-1.551c0-5.528,0.619-11.394-0.346-17.119
		c-2.102-12.462-10.236-20.023-21.728-23.717c-16.356-5.258-31.527-2.479-44.946,8.553c-3.634,2.988-6.307,6.778-8.608,10.804
		c-1.761,0.246-3.384,0.424-5.274-0.231c-1.416-6.73-2.845-13.519-4.317-20.518c6.918-6.956,15.136-11.975,24.056-15.635
		c17.702-7.262,36.183-9.595,55.243-7.741c8.49,0.826,16.776,2.383,24.735,5.455c20.073,7.749,30.413,22.77,30.921,43.929
		c0.616,25.643,0.252,51.31,0.307,76.966c0.012,5.831,0.001,11.663,0.003,17.494c0,0.833-0.023,1.668,0.024,2.499
		c0.531,9.513,4.391,12.679,13.858,11.377C1210.876,229.162,1211.681,229.047,1212.859,228.881z M1146.182,151.909
		c-10.426,3.354-20.018,6.519-28.727,11.883c-20.465,12.604-21.604,35.333-14.869,50.696c2.361,5.385,6.544,8.619,12.417,9.675
		c9.836,1.768,17.672-1.425,23.563-9.399c5.131-6.946,6.989-15.044,7.373-23.433c0.38-8.313,0.196-16.652,0.239-24.979
		C1146.201,161.715,1146.182,157.079,1146.182,151.909z"/>
	<path style="fill:#283D70;" d="M454.607,245.724c-16.668,0-32.802,0-49.247,0c0-56.731,0-113.313,0-170.248
		c16.252,0,32.617,0,49.247,0C454.607,132.211,454.607,188.786,454.607,245.724z"/>
	<path style="fill:#197E47;" d="M454.391,53.444c-16.465,0-32.537,0-48.609-0.002c-0.958-3.493-1.222-29.29-0.354-37.218
		c16.198,0,32.425,0,48.963,0C454.391,28.44,454.391,40.656,454.391,53.444z"/>
	<path style="fill:#A1A2A5;" d="M855.249,352.951c-3.876-11.401-7.666-22.551-11.456-33.701c-0.312,0.001-0.624,0.001-0.937,0.002
		c-3.79,11.188-7.58,22.375-11.398,33.644c-2.499,0-4.788,0-7.592,0c-5.601-16.102-11.211-32.226-16.935-48.683
		c3.212,0,5.992,0,9.106,0c4.453,11.226,7.143,23.084,11.844,35.444c4.177-12.422,8.043-23.917,11.863-35.278
		c2.66-0.763,4.923-0.322,7.372-0.405c3.979,11.839,7.841,23.327,11.703,34.816c0.267-0.052,0.534-0.104,0.801-0.156
		c3.666-11.4,7.333-22.799,10.991-34.174c2.931-0.72,5.511-0.56,8.095-0.217c0.007,3.615-13.635,43.747-16.504,48.709
		C860.126,352.951,857.984,352.951,855.249,352.951z"/>
	<path style="fill:#A1A2A5;" d="M397.195,352.72c-3.188,0-5.464,0-7.993,0c0-16.152,0-32.078,0-48.239
		c2.637-1.036,5.449-0.133,8.362-0.611c5.571,7.113,9.417,15.252,15.4,22.622c4.967-7.625,9.72-14.921,14.532-22.307
		c2.995,0,5.935,0,9.164,0c0,16.112,0,32.038,0,48.228c-2.527,1.159-5.292,0.217-8.496,0.623c0-11.481,0-22.52,0-33.56
		c-0.291-0.088-0.582-0.177-0.872-0.265c-4.68,6.923-9.36,13.846-14.408,21.315c-5.848-6.759-9.657-14.495-15.687-22.198
		C397.195,330.491,397.195,341.442,397.195,352.72z"/>
	<path style="fill:#A1A2A5;" d="M1072.142,319.392c-4.595,6.836-9.19,13.672-14.141,21.037c-6.169-6.48-9.522-14.729-15.87-21.778
		c0,11.779,0,22.68,0,33.664c-2.655,1.046-5.087,0.545-7.848,0.518c0-16.225,0-32.265,0-48.572c2.672,0,5.283,0,8.534,0
		c5.258,6.553,9.144,14.682,14.98,22.151c5.588-7.074,9.443-14.949,14.819-22.165c2.68-0.544,5.644-0.204,8.968-0.133
		c0,16.145,0,32.19,0,48.52c-2.557,0.699-5.184,0.098-8.379,0.423C1072.831,341.689,1073.225,330.602,1072.142,319.392z"/>
	<path style="fill:#A2A4A6;" d="M735.045,337.254c0-11.499,0-21.972,0-32.587c2.788-1.267,5.552-0.491,8.593-0.569
		c0,16.247,0,32.279,0,48.585c-2.359,0-4.617,0-7.138,0c-8.57-11.038-17.251-22.219-26.559-34.206c0,11.98,0,22.906,0,34.05
		c-3,0.726-5.711,0.442-8.662,0.255c0-16.24,0-32.152,0-48.326c2.514-0.894,5.148-0.302,7.941-0.447
		C717.598,314.794,725.998,325.607,735.045,337.254z"/>
	<path style="fill:#A1A2A5;" d="M450.938,328.048c-0.589-13.596,10.863-25.191,25.719-25.04
		c14.425,0.146,25.382,10.898,25.217,25.633c-0.154,13.748-10.305,25.144-25.958,25.102
		C460.468,353.701,450.25,341.949,450.938,328.048z M459.947,328.304c-0.805,7.567,5.14,17.387,15.877,17.265
		c10.276-0.116,16.498-5.83,16.893-16.938c0.353-9.898-7-17.508-16.393-17.621C466.79,310.896,459.941,318.15,459.947,328.304z"/>
	<path style="fill:#A1A2A5;" d="M1281.349,304.027c8.286,0,16.275-0.385,24.211,0.094c10.76,0.65,15.647,8.499,15.378,16.052
		c-0.2,5.612-3.192,9.61-7.667,12.642c-0.945,0.64-2.057,1.036-3.385,1.688c3.534,6.278,8.162,11.622,12.369,18.132
		c-3.443,0.557-6.484,0.218-9.851,0.304c-3.97-5.557-7.985-11.177-11.985-16.775c-3.423,0-6.693,0-10.271,0
		c-0.744,5.504,0.321,10.986-0.659,16.236c-2.889,0.864-5.34,0.498-8.139,0.435C1281.349,336.674,1281.349,320.645,1281.349,304.027
		z M1289.122,312.017c0,3.249,0,5.734,0,8.219c0,2.452,0,4.903,0,7.812c4.452,0,8.406,0.021,12.36-0.009
		c1.813-0.014,3.568-0.082,5.348-0.822c3.859-1.603,5.694-4.395,5.158-8.507c-0.465-3.569-3.191-6.446-6.986-6.632
		C1299.896,311.829,1294.769,312.017,1289.122,312.017z"/>
	<path style="fill:#9FA1A4;" d="M557.702,352.832c-2.212,0-4.026,0-6.477,0c-8.574-10.979-17.4-22.282-26.226-33.584
		c-0.297,0.094-0.595,0.187-0.892,0.281c0,10.976,0,21.952,0,33.166c-2.792,0-5.068,0-7.367,0
		c-1.019-3.398-1.392-38.244-0.472-48.308c2.342-0.744,4.793-0.272,7.453-0.346c8.512,10.922,17.021,21.84,26.175,33.584
		c0-11.697,0-22.278,0-32.949c2.591-1.15,5.037-0.547,7.807-0.588C557.702,320.287,557.702,336.328,557.702,352.832z"/>
	<path style="fill:#A1A2A5;" d="M363.818,334.9c3.561,6.199,8.55,11.384,12.105,17.912c-3.409,0-6.373,0-9.791,0
		c-3.791-5.345-7.701-10.859-11.785-16.618c-3.425,0-7.027,0-10.898,0c-0.947,5.394,0.065,10.869-0.602,16.43
		c-2.615,0.608-5.012,0.218-7.659,0.253c0-16.327,0-32.246,0-48.195c0.885-1.043,2.129-0.662,3.241-0.668
		c6.493-0.035,12.987-0.005,19.48-0.02c3.914-0.009,7.608,1.042,10.716,3.267c9.725,6.963,7.38,21.383-1.988,25.502
		C365.721,333.164,364.804,333.549,363.818,334.9z M343.059,311.954c0,2.929,0,5.385,0,7.842c0,2.615,0,5.23,0,8.198
		c5.318,0,10.151,0.416,14.878-0.112c5.161-0.577,8.275-3.387,8.059-8.277c-0.203-4.602-3.406-7.523-8.645-7.63
		C352.738,311.879,348.123,311.954,343.059,311.954z"/>
	<path style="fill:#A2A4A6;" d="M320.77,344.811c0,3.135,0,5.401,0,7.812c-12.12,0-23.998,0-35.779,0
		c-1.082-3.799-1.417-39.413-0.476-48.632c5.844,0,11.774,0,17.703,0c5.987,0,11.975,0,18.03,0c1.345,2.329,0.387,4.605,0.811,7.23
		c-4.948,1.248-9.586,0.507-14.144,0.644c-4.453,0.133-8.914,0.029-13.633,0.029c0,4.149,0,7.884,0,12.202
		c8.029,0,15.921,0,23.629,0c1.488,2.719,0.874,5.004,0.864,7.654c-8.11,0-16.038,0-24.363,0c0,4.424,0,8.482,0,13.062
		C302.287,344.811,311.348,344.811,320.77,344.811z"/>
	<path style="fill:#A2A4A6;" d="M1367.998,323.88c1.241,3.136,0.909,5.374,0.692,8.012c-8.175,0-16.101,0-24.24,0
		c-0.815,4.423-0.338,8.487-0.385,13.06c9.371,0,18.428,0,27.709,0c0,2.773,0,5.04,0,7.657c-11.906,0-23.791,0-35.642,0
		c-1.253-3.342-1.65-40.478-0.548-48.112c3.934-0.624,29.965-0.754,36.015-0.151c0.6,2.178,0.521,4.4-0.149,7.192
		c-4.354,0.717-8.816,0.264-13.235,0.339c-4.487,0.077-8.977,0.017-13.627,0.017c-1.213,3.875-0.21,7.666-0.704,11.986
		C1352.095,323.88,1359.988,323.88,1367.998,323.88z"/>
	<path style="fill:#A2A4A6;" d="M769.186,344.895c9.143,0,18.079,0,27.181,0c0.7,2.729,0.885,5.078-0.212,7.733
		c-11.941,0-23.825,0-35.966,0c0-16.073,0-31.995,0-48.278c11.691,0,23.417,0,35.41,0c0.911,2.259,0.161,4.657,0.408,7.384
		c-9.07,0-17.677,0-26.457,0c-1.236,4.003-0.437,7.789-0.605,12.034c7.849,0,15.586,0,23.36,0c1.106,2.83,0.63,5.244,0.57,8.14
		c-7.931,0-15.669,0-23.688,0C769.186,336.317,769.186,340.248,769.186,344.895z"/>
	<path style="fill:#A2A4A6;" d="M957.667,352.856c-2.835,0.013-5.297,0.47-8.354-0.548c-0.533-6.432,0.056-13.047-0.333-19.916
		c-7.585,0-14.978,0-22.774,0c0,6.619,0,13.212,0,19.882c-2.9,1.094-5.473,0.711-7.981,0.435
		c-1.358-3.358-1.823-39.344-0.644-48.494c2.523-0.4,5.124-0.243,8.237-0.083c0,6.47,0,12.873,0,19.588c7.886,0,15.272,0,22.985,0
		c0.747-6.392-0.041-12.836,0.47-19.454c2.848-0.45,5.448-0.298,8.395-0.138C957.667,320.283,957.667,336.325,957.667,352.856z"/>
	<path style="fill:#9FA1A4;" d="M1206.247,352.719c-3.232,0-5.507,0-8.039,0c0-16.147,0-32.07,0-48.229
		c2.291-0.914,4.733-0.388,7.68-0.388c0,6.534,0,12.931,0,19.635c8.107,0,15.696,0,23.802,0c0-6.245,0-12.653,0-19.104
		c2.863-1.003,5.291-0.563,8.04-0.511c0,16.217,0,32.256,0,48.565c-2.516,0.392-4.911,0.348-7.721,0.003c0-6.827,0-13.423,0-20.319
		c-7.991,0-15.58,0-23.76,0C1206.247,338.939,1206.247,345.663,1206.247,352.719z"/>
	<path style="fill:#A1A2A5;" d="M1107.238,352.724c-3.488,0-6.08,0-8.927,0c0-16.125,0-32.029,0-48.047
		c0.77-1.043,2.026-0.659,3.134-0.665c5.987-0.034,11.981-0.205,17.958,0.038c6.679,0.272,12.179,2.89,15.293,9.217
		c4.416,8.973-0.534,20.076-10.151,22.654c-2.698,0.723-5.434,1.319-8.312,1.125c-2.808-0.19-5.639-0.041-8.994-0.041
		C1107.238,342.194,1107.238,347.251,1107.238,352.724z M1107.226,329.052c3.456,0,6.587,0.005,9.719-0.003
		c0.999-0.002,2.009,0.051,2.996-0.071c4.473-0.552,7.159-3.809,7.177-8.628c0.017-4.691-2.719-7.993-7.348-8.285
		c-4.098-0.259-8.225-0.054-12.543-0.054C1107.226,317.737,1107.226,323.014,1107.226,329.052z"/>
	<path style="fill:#A1A2A5;" d="M992.221,303.285c2.462,0,4.754,0,7.566,0c7.068,16.158,14.194,32.451,21.493,49.136
		c-2.993,0.904-5.611,0.343-8.373,0.546c-2.728-3.346-3.433-7.706-5.508-11.711c-7.462,0-15.063,0-22.816,0
		c-2.55,3.341-3.323,7.724-5.451,11.338c-2.696,0.584-5.142,0.319-7.586,0.279C971.523,349.409,981.955,324.484,992.221,303.285z
		 M995.981,314.03c-3.426,6.919-6.244,12.859-8.199,19.624c5.673,0,10.739,0,16.164,0
		C1002.002,327.067,998.786,321.343,995.981,314.03z"/>
	<path style="fill:#A1A2A5;" d="M1156.044,316.557c0.858,3.776,3.263,5.478,6.508,6.471c4.241,1.298,8.666,1.952,12.732,3.886
		c3.377,1.606,6.216,3.482,7.709,7.216c2.475,6.191-1.448,15.2-8.371,17.917c-9.659,3.792-23.042-0.024-28.378-6.497
		c1.448-1.878,2.326-4.264,4.843-5.587c3.686,2.766,7.78,4.798,12.368,5.771c2.535,0.538,4.949,0.188,7.293-0.748
		c2.269-0.906,3.952-2.389,4.24-5.006c0.307-2.79-1.366-4.165-3.587-5.35c-3.405-1.818-7.219-2.286-10.814-3.46
		c-1.565-0.511-3.109-1.052-4.644-1.646c-5.628-2.179-8.24-6.199-8.044-12.288c0.192-5.979,2.99-9.948,8.362-12.354
		c8.016-3.59,18.612-1.753,25.368,4.492c-0.613,2.294-2.297,3.871-3.442,5.498c-1.801,0.506-2.821-0.353-3.963-1.073
		c-3.149-1.985-6.571-2.92-10.356-2.855C1159.948,311.012,1157.071,312.228,1156.044,316.557z"/>
	<path style="fill:#A1A2A5;" d="M248.566,341.393c5.101-12.967,9.86-25.064,14.616-37.155c3.052,0,5.815,0,9.256,0
		c-6.746,16.398-13.309,32.352-19.962,48.526c-2.528,0.532-5.129,0.318-7.924,0.145c-6.615-16.034-13.199-31.993-19.916-48.275
		c3.28-1.118,6.172-0.525,9.326-0.494C238.728,316.296,243.467,328.384,248.566,341.393z"/>
	<path style="fill:#A1A2A5;" d="M585.958,311.944c-5.19,0-9.807,0-14.654,0c-0.469-2.711-0.364-5.101-0.117-7.721
		c13.221,0,26.146,0,39.298,0c0.669,2.482,0.407,4.874,0.216,7.674c-5.195,0-10.13,0-15.602,0c0,13.779,0,27.169,0,40.85
		c-3.113,0.197-5.674,0.569-8.764-0.455C585.76,339.078,586.41,325.821,585.958,311.944z"/>
	<path style="fill:#A2A4A6;" d="M1263.778,304.113c0,16.491,0,32.381,0,48.573c-2.756,0.452-5.358,0.279-7.937,0.154
		c-1.033-3.696-1.399-36.153-0.547-48.36C1257.93,303.521,1260.668,304.103,1263.778,304.113z"/>
</g>
</svg>
