<?xml version="1.0" encoding="iso-8859-1"?>
<!-- Generator: Adobe Illustrator 27.0.0, SVG Export Plug-In . SVG Version: 6.00 Build 0)  -->
<svg version="1.1" id="Layer_1" xmlns="http://www.w3.org/2000/svg" xmlns:xlink="http://www.w3.org/1999/xlink" x="0px" y="0px"
	 viewBox="0 0 1544 112.185" style="enable-background:new 0 0 1544 112.185;" xml:space="preserve">
<g>
	<path style="fill:#24406C;" d="M1112,0c0.546,1.632,1.93,0.904,2.957,0.974c6.705,0.454,13.083,2.159,19.234,4.818
		c1.39,0.601,2.76,1.169,3.762,3.211c-1.5,5.245-0.712,11.554-4.017,16.774c-2.789-0.221-4.006-1.907-5.42-3.28
		c-8.592-8.346-18.884-10.908-30.346-8.294c-8.147,1.858-13.777,7.196-17.066,14.815c-4.516,10.465-5.352,21.53-4.678,32.743
		c0.328,5.464,0.883,10.929,2.531,16.211c1.143,3.666,2.633,7.153,4.743,10.38c3.655,5.59,8.888,8.884,15.254,10.434
		c5.09,1.239,15.35,0.579,20.993-1.221c0.169-12.274-0.102-24.681,0.161-37.394c6.429-0.546,12.006-0.473,17.087-0.143
		c1.883,1.474,1.686,3.022,1.687,4.51c0.001,12.162-0.087,24.324,0.06,36.484c0.038,3.161-1.189,4.789-3.988,6.057
		c-9.975,4.519-20.518,5.227-31.22,5.089c-6.182-0.08-12.235-0.932-18.154-2.815c-12.004-3.819-20.83-11.409-25.141-23.16
		c-7.412-20.208-7.688-40.686,0.55-60.786c5.41-13.2,16.014-20.292,29.653-23.459c2.781-0.646,5.911,0.092,8.359-1.949
		C1103.333,0,1107.667,0,1112,0z"/>
	<path style="fill:#23406C;" d="M0.798,5.825c0.96-2.675,2.848-3.924,5.7-3.841c2.331,0.068,4.671-0.077,6.998,0.037
		c3.219,0.159,5.215,2.071,5.534,5.227c0.134,1.321,0.062,2.664,0.063,3.997c0.003,21.333,0.01,42.666-0.008,63.998
		c-0.003,3.005,0.2,5.968,0.734,8.94c1.617,9.001,7.342,14.624,16.322,15.548c4.322,0.445,8.707,0.235,12.909-0.855
		c6.342-1.645,10.23-5.955,11.889-12.243c0.853-3.232,1.089-6.539,1.082-9.895c-0.047-22.333-0.028-44.666-0.017-66.998
		c0.001-1.972-0.27-3.967,1.258-5.678c2.47-2.766,12.281-3.077,14.833-0.378c1.773,1.875,1.742,4.201,1.74,6.56
		c-0.018,21.333-0.015,42.666-0.007,63.998c0.001,4.181-0.52,8.291-1.518,12.348c-2.33,9.464-7.691,16.625-16.661,20.53
		c-14.981,6.522-30.065,6.327-44.819-0.754C8.864,102.544,4.309,95.761,1.891,87.354C1.376,85.564,1.819,83.35,0,82
		c0-0.333,0-0.667,0-1c1.914-0.907,0.966-2.625,0.971-3.938C1.03,60.453,1.016,43.843,0.982,27.234
		C0.967,20.098,0.862,12.961,0.798,5.825z"/>
	<path style="fill:#384C75;" d="M1544,29c-1.571,0.532-1.274,2.172-1.859,3.267c-3.255,6.085-10.083,9.206-16.318,7.306
		c-6.472-1.973-10.484-8.071-9.805-14.904c0.61-6.136,5.72-11.266,12.028-12.076c6.44-0.827,12.799,3.398,14.894,9.897
		c0.28,0.868-0.232,2.07,1.06,2.512C1544,26.333,1544,27.667,1544,29z M1518.796,26.478c0.05,6.316,4.755,11.368,10.687,11.477
		c6.005,0.11,11.279-5.289,11.305-11.571c0.026-6.573-4.752-11.5-11.13-11.476C1523.153,14.932,1518.742,19.631,1518.796,26.478z"/>
	<path style="fill:#8083A1;" d="M0.798,5.825c0.064,7.136,0.169,14.273,0.184,21.409C1.016,43.843,1.03,60.453,0.971,77.062
		C0.966,78.375,1.914,80.093,0,81C0,56,0,31,0,6C0.238,5.813,0.504,5.755,0.798,5.825z"/>
	<path style="fill:#27426D;" d="M575.99,47.067c0-11.185,0-21.986,0-32.788c0-1.832-0.045-3.665,0.009-5.495
		c0.123-4.127,1.59-5.716,5.685-5.934c2.49-0.132,5.002-0.132,7.489,0.035c3.199,0.214,4.882,1.767,5.389,4.862
		c0.213,1.299,0.113,2.654,0.114,3.984c0.005,29.808,0.004,59.615,0.003,89.423c0,0.999,0.071,2.005-0.021,2.996
		c-0.368,3.953-2.084,5.579-6.081,5.726c-1.996,0.073-3.997,0.042-5.994,0.008c-4.924-0.085-6.566-1.668-6.581-6.555
		c-0.038-12.156-0.013-24.312-0.013-36.468c0-1.66,0-3.32,0-5.324c-14.533,0-28.893,0-43.246,0
		c-0.946,1.713-0.527,3.408-0.533,5.026c-0.038,11.823-0.162,23.649,0.039,35.468c0.1,5.838-2.21,8.447-8.013,7.884
		c-1.65-0.16-3.331,0.038-4.993-0.038c-3.69-0.169-5.433-1.776-5.884-5.422c-0.122-0.985-0.041-1.996-0.041-2.995
		c-0.001-30.141-0.005-60.281,0.011-90.422c0.001-1.319,0.007-2.681,0.316-3.949c0.608-2.496,2.166-4.126,4.89-4.19
		c2.828-0.066,5.668-0.167,8.485,0.017c3.186,0.209,4.654,1.785,5.037,5.06c0.154,1.316,0.124,2.658,0.125,3.988
		c0.009,9.991-0.017,19.983,0.027,29.974c0.007,1.624-0.412,3.316,0.537,5.131C546.913,47.067,561.166,47.067,575.99,47.067z"/>
	<path style="fill:#26426D;" d="M164.768,91.735c0.681-1.59,0.322-3.232,0.324-4.822c0.029-21.661,0.034-43.322,0.002-64.983
		c-0.004-2.729-0.232-5.728,2.846-6.803c3.654-1.276,7.532-1.532,11.07,0.645c1.197,0.737,1.531,2.185,1.733,3.489
		c0.202,1.306,0.139,2.657,0.139,3.988c0.006,25.993,0.008,51.987-0.003,77.98c-0.001,1.496,0.068,3.027-0.215,4.48
		c-0.501,2.576-2.201,4.075-4.868,4.142c-4.829,0.122-9.664,0.079-14.495,0.02c-3.587-0.044-5.796-2.08-7.217-5.223
		c-3.693-8.169-7.449-16.309-11.138-24.48c-6.625-14.674-13.222-29.359-19.817-44.047c-0.465-1.035-0.766-2.151-2.017-3.184
		c-0.726,1.828-0.416,3.57-0.418,5.233c-0.024,20.995-0.013,41.989-0.023,62.984c-0.001,1.494,0.074,3.022-0.199,4.475
		c-0.52,2.759-2.022,4.323-4.747,4.167c-3.561-0.203-7.89,1.797-10.28-2.81c-0.643-1.24-0.45-2.607-0.45-3.93
		c-0.008-27.326-0.02-54.653,0.008-81.979c0.005-4.797,1.456-6.486,6.037-6.703c3.987-0.188,7.994-0.042,11.989,0.071
		c4.639,0.131,7.513,2.432,9.397,6.801c4.997,11.583,10.37,23.004,15.561,34.504c5.053,11.195,10.052,22.415,15.125,33.602
		C163.492,90.19,163.645,91.292,164.768,91.735z"/>
	<path style="fill:#24406C;" d="M411.756,62.345c0.001-13.645-0.02-27.291,0.011-40.936c0.013-5.706,1.359-7.127,7.03-7.056
		c12.802,0.161,25.628-0.687,38.403,0.603c12.173,1.23,21.746,6.761,27.757,17.695c2.992,5.443,4.708,11.351,5.412,17.494
		c1.352,11.806,1.485,23.576-2.387,35.021c-4.571,13.51-14.013,21.349-28.026,23.857c-3.791,0.679-7.574,0.895-11.408,0.874
		c-9.485-0.052-18.97-0.016-28.455-0.018c-7.79-0.001-8.33-0.518-8.335-8.098C411.749,88.638,411.755,75.491,411.756,62.345z
		 M430.168,98.791c7.332-0.091,14.257,0.239,21.22-0.562c8.416-0.968,14.084-5.364,17.635-12.822
		c2.172-4.562,3.063-9.468,3.547-14.438c0.961-9.849,0.6-19.633-2.633-29.075c-2.99-8.732-9.051-14.554-18.311-15.577
		c-7.011-0.774-14.177-0.153-21.458-0.153C430.168,50.293,430.168,74.219,430.168,98.791z"/>
	<path style="fill:#24406C;" d="M993.995,53.528c0-10.673-0.009-20.991,0.003-31.309c0.008-6.447,1.375-7.819,7.916-7.871
		c1.99-0.016,4.015-0.057,5.964,0.27c3.35,0.562,4.477,1.951,4.777,5.366c0.087,0.992,0.016,1.998,0.016,2.998
		c0,26.158,0,52.317-0.001,78.475c0,1.166,0.107,2.347-0.039,3.496c-0.427,3.376-2.072,4.79-5.72,4.914
		c-2.33,0.079-4.666,0.069-6.997,0.003c-4.362-0.123-5.871-1.619-5.899-6.146c-0.063-10.33-0.02-20.66-0.02-30.99
		c0-1.649,0-3.298,0-5.245c-12.177,0-24.092,0-36.071,0c-1.232,1.187-0.71,2.776-0.716,4.206
		c-0.044,10.496,0.001,20.993-0.033,31.49c-0.018,5.603-1.118,6.656-6.741,6.693c-2.332,0.015-4.674,0.123-6.995-0.046
		c-2.788-0.203-4.115-1.572-4.477-4.397c-0.168-1.315-0.142-2.659-0.143-3.99c-0.007-26.158-0.006-52.317-0.004-78.475
		c0-0.999-0.034-2.003,0.045-2.997c0.282-3.56,1.649-5.167,5.178-5.536c2.473-0.259,5.004-0.242,7.488-0.057
		c4.327,0.322,5.618,1.836,5.643,6.5c0.05,9.163-0.008,18.327,0.036,27.491c0.008,1.623-0.402,3.315,0.57,5.157
		C969.579,53.528,981.488,53.528,993.995,53.528z"/>
	<path style="fill:#24406C;" d="M1244.749,61.633c0.004-7.433,0.579-15.173,2.92-22.756c4.507-14.6,14.018-23.257,29.194-25.787
		c9.592-1.599,19.07-0.971,28.044,2.336c10.114,3.726,16.645,11.592,19.793,21.779c4.826,15.615,5.082,31.569,0.736,47.27
		c-4.885,17.647-15.723,25.424-32.893,27.193c-7.788,0.802-15.576,0.322-23.148-2.357c-10.11-3.577-16.685-10.485-20.536-20.328
		C1245.459,80.295,1244.657,71.241,1244.749,61.633z M1308.982,62.431c0-4.322,0.273-8.666-0.07-12.961
		c-0.409-5.126-1.42-10.19-3.763-14.873c-2.391-4.777-5.661-8.702-11.022-10.118c-12.443-3.286-23.922,0.118-28.226,14.472
		c-1.694,5.649-2.067,11.431-2.433,17.217c-0.632,9.998-0.337,20.013,2.635,29.635c4.046,13.101,13.046,16.852,24.998,14.901
		c8.89-1.451,13.429-7.892,15.886-16.059C1309.171,77.39,1309.352,69.917,1308.982,62.431z"/>
	<path style="fill:#25416D;" d="M1210.075,65.947c6.008,11.24,12.024,22.493,18.039,33.748c0.783,1.465,1.603,2.911,2.33,4.403
		c0.846,1.738,1.094,3.48-0.66,5.497c-4.252,0.624-8.889,0.294-13.495,0.194c-2.098-0.046-2.934-1.968-3.778-3.595
		c-3.747-7.222-7.486-14.448-11.204-21.685c-3.49-6.791-6.948-13.598-10.424-20.396c-0.755-1.477-1.45-2.967-1.349-4.603
		c0.7-2.003,2.231-2.393,4.011-2.397c1.498-0.004,3-0.003,4.494-0.103c8.305-0.558,12.781-4.74,13.729-12.949
		c0.386-3.348-0.042-6.713-1.22-9.83c-2.141-5.663-6.802-8.006-12.515-8.225c-5.807-0.223-11.629-0.049-17.491-0.049
		c-1.227,1.716-0.621,3.605-0.624,5.349c-0.05,23.318-0.033,46.636-0.035,69.954c0,1.332,0.118,2.682-0.055,3.992
		c-0.389,2.943-1.943,4.453-4.946,4.596c-3.157,0.15-6.335,0.165-9.49-0.009c-2.802-0.154-4.131-1.635-4.379-4.426
		c-0.088-0.992-0.02-1.997-0.02-2.997c0-26.816-0.003-53.631,0.002-80.447c0.001-6.194,1.338-7.66,7.546-7.614
		c11.142,0.083,22.296-0.482,33.426,0.492c2.314,0.203,4.598,0.484,6.896,0.956c15.157,3.109,23.565,16.171,19.255,33.577
		c-1.83,7.39-7.085,11.755-13.821,14.658C1212.967,64.612,1211.396,64.662,1210.075,65.947z"/>
	<path style="fill:#24406C;" d="M1418.185,53.002c0,9.165,0.017,18.329-0.005,27.494c-0.021,8.829-2.404,16.709-9.115,22.91
		c-4.297,3.97-9.492,6.1-15.045,7.34c-7.902,1.765-15.893,1.649-23.785-0.058c-14.677-3.174-23.911-14.357-24.067-29.571
		c-0.204-19.994-0.073-39.991-0.034-59.986c0.009-4.794,1.437-6.439,6.051-6.73c2.802-0.177,5.635-0.274,8.464,0.256
		c2.721,0.509,4.087,2.053,4.308,4.693c0.111,1.324,0.047,2.664,0.048,3.997c0.002,19.162,0.02,38.325-0.019,57.487
		c-0.006,2.849,0.257,5.628,0.91,8.405c1.493,6.348,5.47,10.149,11.763,11.436c3.608,0.737,7.318,0.736,10.924-0.055
		c7.333-1.608,11.585-6.586,12.4-14.35c0.173-1.651,0.13-3.328,0.131-4.994c0.008-19.162,0.005-38.325,0.006-57.487
		c0-1.333-0.108-2.68,0.045-3.995c0.387-3.341,1.642-4.75,4.98-5.218c2.126-0.298,4.33-0.355,6.469-0.168
		c4.127,0.36,5.529,1.904,5.553,6.101C1418.226,31.339,1418.185,42.171,1418.185,53.002z"/>
	<path style="fill:#25416D;" d="M752.393,87.754c-11.365,0-22.514,0-33.858,0c-2.143,4.136-2.753,8.806-4.414,13.105
		c-0.536,1.387-0.751,2.896-1.244,4.304c-1.046,2.986-3.218,4.564-6.37,4.706c-1.663,0.075-3.333,0.053-4.998,0.009
		c-4.177-0.112-5.472-1.662-4.354-5.636c1.257-4.469,2.776-8.865,4.196-13.287c7.402-23.053,14.801-46.107,22.221-69.153
		c2.036-6.323,3.32-7.277,10.005-7.456c2.83-0.076,5.667-0.055,8.497,0.033c4.546,0.141,7.233,2.376,8.577,6.866
		c2.902,9.695,6.156,19.284,9.26,28.918c5.495,17.054,10.986,34.11,16.479,51.165c0.357,1.108,0.797,2.196,1.06,3.326
		c0.777,3.344-0.483,5.052-3.957,5.207c-2.661,0.119-5.333,0.076-7.997,0.013c-4.319-0.102-5.991-1.269-7.363-5.327
		c-1.434-4.244-2.756-8.528-4.039-12.82C753.713,90.451,753.346,89.203,752.393,87.754z M735.988,30.173
		c-0.26,0.061-0.521,0.121-0.781,0.182c-4.52,15.037-9.041,30.075-13.648,45.401c9.37,0,18.269,0,27.383,0
		C744.57,60.373,740.279,45.273,735.988,30.173z"/>
	<path style="fill:#28426E;" d="M638.198,27.683c0,8.945,0,17.371,0,26.305c2.22,0,4.332,0,6.444,0
		c8.493,0,16.986-0.027,25.479,0.01c4.815,0.021,6.575,1.844,6.562,6.609c-0.013,4.744-1.692,6.378-6.736,6.395
		c-8.826,0.03-17.652,0.008-26.479,0.008c-1.637,0-3.274,0-5.183,0c0,9.982,0,19.688,0,29.799c5.499,0,10.789,0,16.078,0
		c6.828,0,13.656-0.031,20.483,0.009c6.522,0.038,7.482,1.066,7.337,7.665c-0.022,0.99-0.147,1.977-0.206,2.722
		c-1.382,2.464-3.432,2.707-5.705,2.703c-16.986-0.035-33.972,0.008-50.958-0.037c-4.607-0.012-5.929-1.345-5.978-5.964
		c-0.076-7.16-0.02-14.321-0.02-21.482c0-19.817,0-39.635,0-59.452c0-1.166-0.099-2.343,0.032-3.495
		c0.288-2.543,1.454-4.274,4.225-4.805c1.498-0.287,2.965-0.347,4.454-0.348c14.655-0.01,29.309-0.006,43.964-0.006
		c0.333,0,0.666-0.007,0.999,0.001c6.465,0.162,9.259,4.326,6.943,10.429c-0.818,2.155-2.675,2.852-4.789,2.914
		c-2.329,0.069-4.662,0.018-6.994,0.018C658.329,27.683,648.506,27.683,638.198,27.683z"/>
	<path style="fill:#26416D;" d="M351.785,53.992c10.145,0,20.31-0.014,30.476,0.005c6.189,0.012,9.17,4.757,6.531,10.419
		c-0.965,2.071-2.772,2.632-4.957,2.613c-6.499-0.058-12.999-0.02-19.499-0.02c-4.294,0-8.588,0-13.1,0c0,9.967,0,19.566,0,29.186
		c1.114,1.095,2.521,0.59,3.787,0.595c10.666,0.043,21.334,0.127,31.998-0.016c5.777-0.077,8.558,0.473,7.989,8.046
		c-0.062,0.823-0.079,1.649-0.108,2.272c-1.331,2.392-3.282,2.827-5.611,2.821c-16.999-0.048-33.999-0.001-50.998-0.042
		c-4.823-0.012-6.157-1.363-6.163-6.313c-0.035-27.499-0.034-54.998,0.001-82.497c0.006-4.73,1.477-6.4,6.141-6.671
		c4.153-0.241,8.33-0.062,12.497-0.062c10.833-0.002,21.666-0.001,32.499-0.001c1,0,2.001-0.034,3,0.006
		c6.079,0.244,9.18,5.48,6.365,10.84c-1.286,2.449-3.664,2.523-6.068,2.517c-9.666-0.027-19.333-0.011-28.999-0.011
		c-1.988,0-3.977,0-5.925,0C350.673,32.418,350.787,50.435,351.785,53.992z"/>
	<path style="fill:#29436E;" d="M1457.893,25.825c0,2.407,0,4.22,0,6.033c0,23.15,0.001,46.3-0.002,69.449
		c0,1.332,0.102,2.682-0.082,3.991c-0.418,2.991-1.917,4.413-4.956,4.562c-2.824,0.138-5.667,0.143-8.491-0.001
		c-3.178-0.161-4.737-1.806-5.031-5.035c-0.09-0.991-0.017-1.997-0.017-2.997c0-26.314-0.002-52.628,0.001-78.942
		c0.001-7.372,1.212-8.557,8.771-8.567c8.827-0.011,17.655-0.09,26.48,0.038c3.811,0.055,7.697,0.163,11.408,0.931
		c10.066,2.083,16.988,7.928,20.063,17.964c1.996,6.514,2.17,13.121,0.65,19.697c-2.399,10.377-11.013,17.76-21.854,19.021
		c-4.95,0.576-9.912,0.432-14.853-0.058c-4.594-0.456-7.136-2.61-6.971-5.622c0.16-2.937,2.235-4.132,7.278-4.18
		c3.155-0.03,6.311,0.1,9.37-0.993c4.891-1.747,8.084-4.983,9.456-10.058c1.341-4.958,1.245-9.889-0.15-14.771
		c-1.737-6.084-5.995-9.539-12.15-10.244C1470.723,25.348,1464.573,25.591,1457.893,25.825z"/>
	<path style="fill:#28426E;" d="M875.317,28.011c-7.426,0-14.228-0.038-21.029,0.021c-2.408,0.021-5.109,0.117-5.945-2.497
		c-0.945-2.955-1.274-6.206,0.432-9.166c0.516-0.895,1.466-1.234,2.45-1.567c1.631-0.552,3.278-0.479,4.936-0.48
		c19.142-0.003,38.284-0.002,57.426-0.002c0.333,0,0.666-0.007,0.999,0.001c6.477,0.166,9.61,5.046,6.947,10.909
		c-0.915,2.014-2.555,2.847-4.826,2.81c-5.658-0.091-11.318-0.029-16.978-0.029c-1.645,0-3.29,0-4.835,0
		c-1.172,1.76-0.674,3.465-0.677,5.064c-0.036,22.638-0.024,45.275-0.026,67.913c0,1.331,0.07,2.671-0.052,3.992
		c-0.307,3.328-1.73,4.741-5.065,4.886c-2.658,0.116-5.335-0.117-7.986,0.058c-3.539,0.234-5.489-2.184-5.748-5.48
		c-0.091-1.158-0.023-2.329-0.023-3.494c-0.001-22.305,0-44.609,0-66.914C875.317,32.221,875.317,30.405,875.317,28.011z"/>
	<path style="fill:#27426D;" d="M289.888,28.795c0,1.292,0,2.916,0,4.54c0,22.817,0,45.633-0.001,68.45
		c0,1.166,0.092,2.343-0.036,3.495c-0.299,2.699-1.774,4.362-4.432,4.537c-3.151,0.207-6.332,0.197-9.487,0.029
		c-2.901-0.155-4.464-1.82-4.794-4.757c-0.13-1.151-0.026-2.329-0.027-3.495c0-22.65,0-45.3,0-67.95c0-1.656,0-3.313,0-5.164
		c-3.512-0.927-6.99-0.353-10.417-0.447c-3.661-0.1-7.331,0.071-10.99-0.055c-3.151-0.108-4.52-1.455-4.837-4.529
		c-0.136-1.317-0.068-2.662-0.011-3.991c0.118-2.705,1.595-4.318,4.207-4.805c1.295-0.242,2.638-0.314,3.959-0.315
		c18.32-0.019,36.64-0.013,54.96-0.013c0.167,0,0.333-0.003,0.5,0c6.705,0.144,9.663,4.409,7.315,10.701
		c-0.863,2.312-2.754,3.057-5.194,3.016c-5.827-0.098-11.658-0.049-17.487-0.013C292.165,28.035,291.116,27.687,289.888,28.795z"/>
	<path style="fill:#26426D;" d="M813.816,96.32c8.219,0,15.848,0,23.476,0c2.498,0,5.003-0.113,7.493,0.029
		c3.557,0.204,5.066,1.77,5.332,5.263c0.063,0.828,0.039,1.665,0.013,2.497c-0.134,4.241-1.495,5.663-5.69,5.762
		c-3.163,0.075-6.329,0.016-9.493,0.016c-11.159,0-22.318,0.02-33.477-0.009c-5.333-0.014-6.484-1.118-6.489-6.402
		c-0.026-27.481-0.024-54.962-0.002-82.442c0.004-5.265,1.475-6.642,6.906-6.709c2.165-0.027,4.34-0.131,6.493,0.032
		c3.461,0.262,5.037,1.873,5.396,5.36c0.136,1.319,0.039,2.662,0.039,3.995c0.001,22.151,0.001,44.302,0.001,66.454
		C813.816,91.977,813.816,93.788,813.816,96.32z"/>
	<path style="fill:#25416D;" d="M228.005,61.986c0,13.487,0.012,26.975-0.005,40.462c-0.008,6.006-1.371,7.387-7.217,7.434
		c-1.998,0.016-4.001,0.093-5.993-0.018c-3.653-0.204-5.329-1.933-5.603-5.634c-0.061-0.828-0.012-1.664-0.012-2.497
		c0-26.309,0-52.617,0-78.926c0-0.666-0.024-1.333,0.003-1.998c0.194-4.684,1.75-6.304,6.335-6.471c2.162-0.078,4.331-0.078,6.493,0
		c4.258,0.153,5.924,1.826,5.98,6.187c0.077,5.993,0.019,11.988,0.019,17.983C228.005,46.334,228.005,54.16,228.005,61.986z"/>
	<path style="fill:#3F5079;" d="M1526.574,33.978c-0.695,0.25-1.311,0.194-2.151-0.526c-0.251-4.807-0.342-9.871,0.074-14.862
		c2.025-0.889,3.867-0.485,5.651-0.478c2.38,0.01,4.745,0.386,5.716,3.034c0.872,2.376-0.127,4.122-3.466,6.382
		c1.17,1.951,2.344,3.908,3.532,5.889c-1.142,1.255-2.15,0.882-2.905-0.127c-0.888-1.188-1.551-2.541-2.365-3.787
		c-0.713-1.092-1.372-2.319-3.087-2.2C1526.285,29.418,1527.766,31.935,1526.574,33.978z M1532.932,21.659
		c-1.64-1.568-3.547-1.755-5.638-1.11c-0.252,1.669-0.632,3.091,0.332,4.416c1.643,0.088,3.267,0.386,4.625-0.425
		C1533.195,23.656,1533.277,22.742,1532.932,21.659z"/>
</g>
</svg>
