<?xml version="1.0" encoding="iso-8859-1"?>
<!-- Generator: Adobe Illustrator 27.0.0, SVG Export Plug-In . SVG Version: 6.00 Build 0)  -->
<svg version="1.1" id="Layer_1" xmlns="http://www.w3.org/2000/svg" xmlns:xlink="http://www.w3.org/1999/xlink" x="0px" y="0px"
	 viewBox="0 0 1572.242 295" style="enable-background:new 0 0 1572.242 295;" xml:space="preserve">
<g>
	<path style="fill:#B1A25B;" d="M297.242,0c0.377,3.9,3.428,6.359,5.372,9.306c14.824,22.464,29.911,44.755,44.922,67.096
		c14.917,22.201,29.848,44.393,44.746,66.607c0.914,1.362,2.17,2.571,2.416,5.181c-13.437,19.875-27.246,40.298-41.343,61.149
		c-34.559-51.519-68.754-102.498-103.369-154.102c-35.001,43.57-69.619,86.665-104.643,130.264
		C116.63,142.689,88.181,100.27,59.712,57.823c5.644-8.344,11.042-16.307,16.422-24.283c6.131-9.09,12.233-18.2,18.377-27.281
		c1.209-1.787,2.552-3.484,3.833-5.223c27.767-0.013,55.535-0.035,83.302-0.009c1.209,0.001,2.72-0.688,3.557,0.927
		c-15.545,19.421-31.091,38.842-46.75,58.406c3.832,6.719,8.122,12.736,12.28,18.736c1.788-0.382,2.402-1.659,3.206-2.665
		c3.216-4.017,6.35-8.101,9.572-12.113c16.632-20.711,33.282-41.408,49.93-62.107c0.526-0.654,1.074-1.277,0.801-2.21
		c0.667,0,1.333,0,2,0c0.638,1.473,1.959,0.979,3.037,0.98c24.309,0.022,48.617,0.022,72.926,0c1.078-0.001,2.399,0.493,3.037-0.98
		C295.909,0,296.575,0,297.242,0z M379.459,147.695c-30.882-45.931-61.714-91.786-92.851-138.096
		c-9.398,11.658-18.535,22.991-27.689,34.347c31.753,47.224,63.242,94.055,95.096,141.429
		C362.618,172.635,370.951,160.295,379.459,147.695z M76.27,57.725c23.429,34.868,46.509,69.219,69.865,103.978
		c8.261-10.473,16.514-19.927,23.871-30.315c-23.965-35.661-47.721-71.01-71.818-106.868C90.729,35.821,83.631,46.573,76.27,57.725z
		 M223.22,13.391c-20.976,26.049-42.198,52.405-63.573,78.951c6.476,9.519,12.215,19.084,19.253,28.174
		c28.722-35.886,57.019-71.242,85.739-107.125C250.53,13.391,237.142,13.391,223.22,13.391z M157.577,13.331
		c-17.248,0-33.54,0-50.332,0c7.786,11.527,15.26,22.592,23.022,34.084C139.472,35.927,148.342,24.857,157.577,13.331z"/>
	<path style="fill:#090808;" d="M1572.242,143c-1.137,0.169-0.959,1.135-1.166,1.889c-3.278,11.951-11.071,19.675-22.361,24.361
		c-10.287,4.27-21.061,5.947-32.046,6.474c-14.158,0.679-28.282,0.326-42.206-2.751c-7.849-1.734-15.246-4.496-21.647-9.563
		c-7.139-5.651-11.073-13.099-12.501-21.962c-0.365-2.268-0.445-4.581-0.682-7.169c12.475,0,24.732,0,37.054,0
		c0.126,0.16,0.454,0.384,0.481,0.64c0.927,8.82,5.765,14.062,14.296,16.391c10.532,2.875,21.001,2.533,31.518,0.191
		c1.967-0.438,3.709-1.408,5.418-2.449c4.789-2.918,6.664-7.163,5.962-12.683c-0.655-5.149-4.097-7.768-8.528-9.355
		c-4.709-1.687-9.691-2.174-14.601-3.003c-15.031-2.536-30.347-3.481-45.026-7.997c-4.145-1.275-8.12-2.981-11.65-5.483
		c-7.967-5.648-12.065-13.301-12.462-23.217c-0.42-10.513,1.914-19.857,9.798-27.181c5.723-5.317,12.759-8.19,20.265-10.145
		c12.389-3.227,25-3.298,37.661-3.146c10.551,0.126,20.833,1.705,30.788,5.221c10.419,3.681,18.874,9.741,23.472,20.16
		c1.857,4.208,3.153,8.617,3.039,13.521c-12.247,0-24.191,0-36.114,0c-0.229-0.258-0.565-0.462-0.618-0.723
		c-1.836-9.072-7.506-14.006-16.471-15.653c-9.447-1.736-18.774-2.395-27.893,1.549c-2.677,1.158-4.845,2.903-6.49,5.255
		c-3.902,5.58-2.316,12.053,3.742,15.184c2.973,1.537,6.24,2.164,9.525,2.699c16.213,2.64,32.448,5.157,48.617,8.042
		c6.379,1.138,12.409,3.634,17.831,7.303c6.469,4.378,10.772,10.258,12.021,18.121c0.108,0.683,0.176,1.294,0.973,1.479
		C1572.242,133.667,1572.242,138.333,1572.242,143z"/>
	<path style="fill:#151413;" d="M1196.242,295c-0.772-1.717-2.309-0.898-3.495-0.952c-3.815-0.173-7.597-0.182-11.412-0.891
		c-13.945-2.593-15.911-9.829-16.808-19.366c-0.195-2.072-0.635-4.357,1.025-6.407c3.025,0,6.163,0,9.489,0
		c1.171,2.844,0.647,5.892,0.964,8.78c0.659,6.001,4.579,8.588,8.926,8.947c9.641,0.796,19.274,0.84,28.896-0.085
		c5.897-0.567,8.895-3.703,9.49-9.648c0.313-3.125,0.31-6.253,0.175-9.408c-0.273-6.401-3.833-9.462-10.146-9.964
		c-3.807-0.303-7.642-0.276-11.439-0.647c-6.29-0.616-12.637-0.245-18.909-1.285c-1.805-0.299-3.578-0.668-5.356-1.067
		c-6.989-1.569-11.05-6.191-12.066-12.963c-0.782-5.212-0.772-10.571,0.465-15.875c1.707-7.321,6.319-11.525,13.396-13.09
		c7.823-1.73,15.81-1.907,23.788-1.733c3.485,0.076,6.973,0.358,10.444,0.703c10.435,1.037,17.986,4.963,19.033,17.665
		c0.095,1.158,0.242,2.314,0.289,3.474c0.018,0.458-0.17,0.925-0.33,1.709c-3.486,0.156-6.912,0.279-10.464-0.119
		c-0.311-2.242-0.547-4.386-0.916-6.506c-0.792-4.555-2.834-6.638-7.46-7.373c-9.944-1.58-19.912-1.306-29.831,0.151
		c-5.32,0.781-7.668,3.725-7.939,9.206c-0.09,1.829-0.075,3.666-0.026,5.498c0.222,8.324,3.504,11.82,11.752,12.297
		c7.304,0.422,14.615,0.809,21.928,0.951c3.694,0.072,7.308,0.633,10.886,1.278c7.509,1.354,12.286,5.933,13.28,13.541
		c0.816,6.245,1.031,12.601-0.644,18.824c-1.541,5.727-5.096,9.525-10.742,11.436c-4.962,1.679-10.065,1.927-15.238,1.99
		c-1.996,0.024-4.258-0.945-6.004,0.93C1199.575,295,1197.909,295,1196.242,295z"/>
	<path style="fill:#C1B37C;" d="M186.242,0c0.039,0.856-0.044,1.647-1.038,1.953c-0.837-1.615-2.348-0.925-3.557-0.927
		c-27.767-0.026-55.535-0.004-83.302,0.009C98.31,0.691,98.276,0.345,98.242,0C127.575,0,156.909,0,186.242,0z"/>
	<path style="fill:#C3C0C0;" d="M212.242,295c-0.039-0.263-0.064-0.527-0.076-0.793c0.658-0.066,1.316-0.189,1.974-0.189
		c27.377,0.007,54.753,0.024,82.13,0.041c0,0.314-0.009,0.628-0.028,0.941C268.242,295,240.242,295,212.242,295z"/>
	<path style="fill:#C1B37C;" d="M295.242,0c-0.638,1.473-1.959,0.979-3.037,0.98c-24.309,0.022-48.617,0.022-72.926,0
		c-1.078-0.001-2.399,0.493-3.037-0.98C242.575,0,268.909,0,295.242,0z"/>
	<path style="fill:#ABADB4;" d="M508.294,294.161c-0.044,0.278-0.062,0.557-0.052,0.839c-6,0-12,0-18,0
		c0.01-0.281-0.008-0.561-0.052-0.839C496.224,294.161,502.259,294.161,508.294,294.161z"/>
	<path style="fill:#0B0A0A;" d="M610.95,172.528c0-40.909,0-81.357,0-122.133c16.231,0,32.299,0,48.875,0
		c11.813,28.798,23.741,57.874,35.927,87.581c12.275-29.609,24.335-58.699,36.391-87.781c16.305,0,32.287,0,48.266,0
		c0.964,3.415,1.235,115.808,0.262,122.322c-10.401,0-20.843,0-31.992,0c-0.147-15.937-0.05-31.869-0.067-47.799
		c-0.017-15.809-0.004-31.619-0.004-47.428c-0.338-0.086-0.677-0.173-1.015-0.259c-12.604,31.716-25.207,63.431-37.921,95.425
		c-9.053,0-18.157,0-27.832,0c-12.555-31.904-25.199-64.032-37.843-96.161c-0.257,0.038-0.514,0.075-0.771,0.113
		c0,31.963,0,63.927,0,96.119C632.311,172.528,621.871,172.528,610.95,172.528z"/>
	<path style="fill:#555253;" d="M296.27,294.059c-27.376-0.016-54.753-0.034-82.13-0.041c-0.658,0-1.316,0.123-1.974,0.189
		c-0.201-0.229-0.599-0.633-0.574-0.661c12.902-14.479,24.12-30.319,36.858-45.136c-4.251-6.381-8.385-12.587-12.921-19.396
		c-9.323,10.806-17.738,21.836-26.48,32.59c-8.702,10.704-17.335,21.466-26.119,32.351c-11.941,0-23.912,0.031-35.882-0.009
		c-11.307-0.038-22.615-0.135-33.922-0.238c-3.657-0.034-7.313-0.182-10.971-0.253c-1.072-0.021-1.979-0.225-2.295-1.424
		c3.071-2.753,5.79-5.778,7.416-9.643c4.267-3.316,6.928-8.001,10.194-12.149c6.049-7.682,12.503-15.057,17.955-23.202
		c3.132-3.161,6.023-6.502,7.888-10.605c5.04-4.186,8.478-9.746,12.475-14.799c21.766-27.515,43.389-55.143,65.055-82.738
		c8.008-10.2,15.992-20.419,24.002-30.618c0.9-1.145,1.894-2.216,3.186-3.719c29.343,43.769,58.472,87.22,87.536,130.573
		c-0.316,2.302-1.869,3.693-2.957,5.304C320.526,258.329,308.391,276.189,296.27,294.059z M320.04,235.935
		c-24.331-36.173-48.325-71.844-72.701-108.085c-11.907,14.835-23.301,29.031-34.618,43.131
		c25.169,37.666,50.04,74.715,75.436,112.246C299.059,267.057,309.439,251.66,320.04,235.935z M175.995,279.694
		c16.953-21.237,33.852-42.406,50.873-63.728c-7.757-11.505-15.298-22.689-22.969-34.067
		c-26.264,32.717-52.181,64.899-78.371,97.794C142.844,279.694,159.149,279.694,175.995,279.694z M256.742,261.042
		c-5.055,6.276-9.788,12.154-14.957,18.571c9.494,0,18.176,0,27.433,0C265.012,273.353,261.047,267.451,256.742,261.042z"/>
	<path style="fill:#0E0D0D;" d="M1050.282,112.955c10.569,3.831,13.338,12.176,14.941,21.313c0.926,5.279,0.859,10.608,1.037,15.935
		c0.257,7.683,1.355,15.198,5.917,22.223c-12.141,0-23.971,0-35.999,0c-1.784-2.75-2.793-5.832-2.941-9.223
		c-0.276-6.322-0.577-12.644-0.892-18.965c-0.074-1.488-0.164-2.953-0.568-4.434c-2.232-8.171-6.491-11.752-14.871-11.987
		c-5.661-0.159-11.33-0.048-16.996-0.05c-8.331-0.004-16.662-0.001-25.461-0.001c0,14.813,0,29.554,0,44.645
		c-11.358,0-22.255,0-33.501,0c0-40.583,0-81.152,0-121.781c1.143-0.997,2.538-0.538,3.799-0.539
		c27.995-0.031,55.99-0.007,83.986-0.036c5.352-0.006,10.601,0.647,15.799,1.887c14.48,3.455,23.255,13.533,24.554,28.287
		c0.397,4.509,0.146,9.003-0.991,13.377c-1.693,6.515-5.288,11.765-11.034,15.403
		C1055.104,110.249,1053.057,111.347,1050.282,112.955z M974.466,73.762c0,10.268,0,20.149,0,30.243
		c15.386,0,30.513,0.247,45.626-0.098c8.283-0.189,13.312-6.198,13.571-14.867c0.25-8.358-4.424-13.943-12.725-15.03
		c-2.135-0.279-4.32-0.234-6.482-0.238c-11.822-0.021-23.644-0.01-35.466-0.01C977.539,73.762,976.086,73.762,974.466,73.762z"/>
	<path style="fill:#0B0A0A;" d="M1249.651,125.469c12.104,0,23.865,0,36.091,0c-1.389,13.114-6.289,24.182-15.82,32.981
		c-9.449,8.724-21.018,13.163-33.424,15.45c-15.19,2.801-30.497,2.885-45.663-0.016c-17.068-3.264-31.765-10.584-40.938-26.305
		c-4.413-7.563-6.657-15.765-7.79-24.43c-1.396-10.677-1.215-21.241,1.242-31.693c4.612-19.624,16.466-32.829,35.528-39.593
		c13.418-4.761,27.309-5.391,41.319-5.015c10.332,0.277,20.521,1.655,30.284,5.21c19.245,7.009,30.875,20.551,34.552,40.779
		c0.203,1.119,0.457,2.288-0.135,3.673c-11.495,0-23.092,0-34.651,0c-1.331-0.678-1.045-2.058-1.345-3.1
		c-3.458-11.983-11.443-19.038-23.414-21.971c-7.928-1.942-15.73-1.741-23.592,0.431c-11.601,3.204-18.889,10.961-22.479,22.003
		c-4.017,12.358-3.835,24.972,0.949,37.118c5.282,13.409,15.756,20.047,29.936,21.088c6.68,0.491,13.324,0.285,19.649-2.239
		C1240.839,145.497,1247.345,137.471,1249.651,125.469z"/>
	<path style="fill:#090808;" d="M806.243,50.186c38.087,0,75.703,0,113.65,0c0,7.664,0,15.247,0,23.27c-26.574,0-53.307,0-80.344,0
		c0,8.513,0,16.598,0,25.156c25.359,0,50.757,0,76.4,0c0,7.56,0,14.657,0,22.178c-25.334,0-50.729,0-76.414,0
		c0,9.483,0,18.553,0,28.107c26.963,0,54.014,0,81.302,0c0,8.057,0,15.633,0,23.536c-38.216,0-76.267,0-114.594,0
		C806.243,131.746,806.243,91.176,806.243,50.186z"/>
	<path style="fill:#090808;" d="M599.923,172.544c-12.377,0-23.965,0-35.816,0c-3.294-8.341-6.569-16.633-9.891-25.044
		c-18.626,0-37.075,0-55.984,0c-3.346,8.252-6.753,16.655-10.126,24.975c-11.987,0-23.73,0-36.001,0
		c18.094-41.002,35.996-81.569,53.934-122.216c13.497,0,26.783,0,40.311,0C564.139,90.862,581.928,131.468,599.923,172.544z
		 M507.242,124.75c12.717,0,25.214,0,37.993,0c-6.291-15.843-12.457-31.37-19.014-47.883
		C519.61,93.547,513.469,109.039,507.242,124.75z"/>
	<path style="fill:#090808;" d="M1436.915,172.61c-12.556,0-24.025,0-35.811,0c-3.282-8.303-6.559-16.591-9.909-25.064
		c-18.54,0-36.976,0-56.009,0c-3.3,8.121-6.71,16.513-10.153,24.987c-11.871,0-23.633,0-35.994,0
		c18.08-40.974,35.98-81.537,53.939-122.237c13.429,0,26.712,0,40.345,0C1401.061,90.782,1418.852,131.387,1436.915,172.61z
		 M1363.623,77.993c-0.317,0.017-0.635,0.033-0.952,0.05c-6.136,15.502-12.273,31.004-18.476,46.674c12.731,0,25.217,0,37.933,0
		C1375.874,108.925,1369.748,93.459,1363.623,77.993z"/>
	<path style="fill:#ABADB4;" d="M143.313,236.431c-1.865,4.103-4.756,7.444-7.888,10.605c-0.694-0.211-0.945-0.799-1.32-1.359
		c-14.35-21.427-28.736-42.829-43.102-64.246c-13.909-20.737-27.768-41.508-41.735-62.205c-2.153-3.19-4.084-6.62-7.187-9.527
		c-8.537,12.832-16.84,25.31-25.13,37.77c1.359,1.959,2.495,3.567,3.601,5.196c9.477,13.95,18.985,27.878,28.415,41.86
		c18.949,28.098,37.85,56.23,56.795,84.331c0.744,1.104,1.758,2.031,1.514,3.532c-1.626,3.865-4.345,6.89-7.416,9.643
		c-1.699,0.091-2.052-1.303-2.789-2.393c-7.593-11.23-15.23-22.43-22.861-33.634c-11.91-17.487-23.838-34.961-35.733-52.458
		C25.745,184.818,13.043,166.071,0,146.848c13.837-20.508,27.766-41.153,41.88-62.072c4.205,4.075,6.778,8.884,9.768,13.335
		c12.997,19.345,25.668,38.911,38.788,58.172c17.31,25.413,34.357,50.999,51.373,76.607
		C142.55,234.004,143.527,234.943,143.313,236.431z"/>
	<path style="fill:#090808;" d="M1120.964,172.538c-10.705,0-21.455,0-32.454,0c0-40.777,0-81.352,0-122.198
		c10.818,0,21.566,0,32.324,0C1121.805,53.923,1121.973,167.44,1120.964,172.538z"/>
	<path style="fill:#131111;" d="M932.117,210.178c5.924,0,11.402,0,17.234,0c16.933,24.822,33.947,49.763,50.961,74.704
		c0.263-0.054,0.525-0.108,0.788-0.162c0-24.744,0-49.489,0-74.442c3.789,0,7.042,0,10.604,0c0,27.681,0,55.24,0,83.146
		c-5.601,0-11.18,0-17.212,0c-16.735-24.304-33.66-48.884-51.02-74.095c-1.477,3.612-0.646,6.687-0.812,9.63
		c-0.168,2.988-0.037,5.994-0.037,8.992c0,3.164,0,6.329,0,9.493c0,2.998,0,5.996,0,8.994c0,3.164,0,6.329,0,9.493
		c0,2.998,0,5.996,0,8.994c0,3.164,0.058,6.33-0.017,9.493c-0.07,2.965,0.362,5.962-0.328,9.104
		c-3.389,0.394-6.639,0.371-10.162,0.004C932.117,265.783,932.117,238.196,932.117,210.178z"/>
	<path style="fill:#1A1919;" d="M1030.506,293.392c0-27.753,0-55.202,0-82.545c1.221-1.252,2.633-0.768,3.897-0.771
		c14.663-0.036,29.327-0.097,43.989,0.013c6.02,0.045,11.905,1.088,17.093,4.429c8.001,5.152,11.184,13.12,11.594,22.074
		c0.473,10.308,0.634,20.687-0.014,30.976c-0.757,12.029-6.627,23.538-23.661,25.641c-1.816,0.224-3.64,0.53-5.461,0.535
		c-15.163,0.044-30.326,0.029-45.489,0.016C1031.98,293.76,1031.504,293.586,1030.506,293.392z M1041.421,284.975
		c12.679,0,25.002,0.408,37.285-0.114c12.445-0.529,16.428-6.349,17.406-16.542c1.033-10.771,0.786-21.65,0.211-32.461
		c-0.535-10.059-7.379-16.675-17.37-16.925c-10.989-0.275-21.989-0.135-32.984-0.138c-1.448,0-2.945-0.296-4.547,0.359
		C1041.421,240.953,1041.421,262.712,1041.421,284.975z"/>
	<path style="fill:#1A1919;" d="M706.443,293.598c0-27.873,0-55.336,0-82.832c0.844-1.13,2.108-0.692,3.209-0.694
		c14.999-0.028,30.001-0.205,44.995,0.049c9.462,0.16,18.115,2.663,23.661,11.297c3.231,5.031,4.669,10.686,4.816,16.547
		c0.237,9.493,0.158,18.997,0.034,28.495c-0.057,4.351-1.208,8.554-3.013,12.509c-3.594,7.873-9.994,12.236-18.283,13.91
		c-2.919,0.59-5.951,0.844-8.934,0.861c-14.665,0.085-29.331,0.04-43.996,0.033C708.283,293.773,707.635,293.685,706.443,293.598z
		 M717.331,284.989c12.623,0,24.761,0.077,36.898-0.046c3.651-0.037,7.225-0.808,10.46-2.773c5.464-3.318,7.17-8.793,7.407-14.476
		c0.444-10.636,0.438-21.309,0.127-31.952c-0.24-8.225-5.838-14.722-13.518-16.419c-2.404-0.531-4.958-0.507-7.444-0.521
		c-9.989-0.054-19.979-0.043-29.968,0.004c-1.261,0.006-2.636-0.464-3.961,0.566C717.331,241.048,717.331,262.79,717.331,284.989z"
		/>
	<path style="fill:#131111;" d="M508.294,294.161c-6.035,0-12.069,0-18.104,0c-3.794-0.416-7.597-0.295-11.418-0.925
		c-14.121-2.33-18.564-10.53-19.366-21.589c-0.952-13.119-1-26.323-0.004-39.441c0.846-11.135,6.338-21.044,21.671-22.335
		c11.959-1.007,23.919-1.045,35.876,0.106c3.521,0.339,6.848,1.266,9.908,3.014c5.32,3.04,8.192,7.632,8.376,13.797
		c0.074,2.474,0.012,4.952,0.012,7.703c-3.54,0-6.786,0-10.182,0c-1.186-2.209-0.43-4.594-0.646-6.851
		c-0.489-5.1-2.447-7.646-7.362-8.635c-2.922-0.588-5.867-1.155-8.907-1.018c-8.97,0.407-17.988-0.772-26.926,0.861
		c-7.275,1.329-10.48,4.63-11.021,11.917c-1.01,13.625-1.101,27.265-0.092,40.895c0.598,8.075,4.761,12.472,12.772,13.355
		c10.617,1.171,21.264,1.094,31.883-0.012c6.174-0.643,8.85-3.456,9.7-9.441c0.683-4.809,0.508-9.618,0.358-15.084
		c-4.781-0.383-9.552-0.131-14.301-0.175c-4.828-0.045-9.656-0.01-14.613-0.01c-1.083-2.667-0.453-5.245-0.577-8.052
		c13.388,0,26.476,0,40.113,0c0,6.72,0.014,13.463-0.012,20.205c-0.005,1.328-0.074,2.67-0.275,3.981
		c-1.176,7.656-4.874,13.206-12.615,15.725C517.867,293.675,513.109,293.974,508.294,294.161z"/>
	<path style="fill:#131111;" d="M1509.434,260.296c0,11.478,0,22.244,0,33.236c-3.505,0-6.602,0-9.689,0
		c-1.092-3.895-1.546-66.682-0.61-82.737c1.034-1.241,2.463-0.703,3.714-0.707c13.662-0.039,27.325,0.003,40.987-0.041
		c4.022-0.013,7.957,0.599,11.855,1.426c8.292,1.759,12.991,7.15,14.246,15.31c0.834,5.419,0.825,11.007-0.029,16.419
		c-0.942,5.973-4.23,10.389-10.477,12.003c-0.942,0.243-1.816,0.748-3.13,1.304c4.105,0.755,7.609,1.973,10.004,5.091
		c2.438,3.176,3.004,6.903,2.966,10.818c-0.069,6.959-0.019,13.92-0.019,21.114c-3.64,0-6.883,0-10.365,0
		c-0.774-2.913-0.32-5.736-0.396-8.509c-0.119-4.327-0.05-8.66-0.207-12.985c-0.21-5.778-2.996-10.502-10.215-11.315
		c-3.501-0.394-6.972-0.392-10.458-0.41C1528.472,260.265,1519.335,260.296,1509.434,260.296z M1509.742,251.663
		c11.946,0,23.402,0.031,34.859-0.032c1.813-0.01,3.641-0.351,5.431-0.697c4.997-0.967,8.433-4.026,9.088-8.676
		c0.738-5.244,0.889-10.565,0.081-15.833c-0.464-3.023-2.326-5.197-5.181-6.163c-2.013-0.681-4.081-1.336-6.303-1.338
		c-11.975-0.01-23.95-0.096-35.925-0.15c-0.654-0.003-1.322-0.006-2.05,0.738C1509.742,229.871,1509.742,240.453,1509.742,251.663z"
		/>
	<path style="fill:#131111;" d="M547.233,251.56c-0.003-6.996,0.002-13.991-0.006-20.987c-0.003-2.701,0.752-5.249,1.613-7.76
		c2.939-8.575,9.982-11.479,18.042-12.753c8.092-1.278,16.274-0.959,24.415-0.759c4.782,0.118,9.585,0.573,14.236,2.026
		c8.265,2.583,12.724,8.443,13.542,16.723c1.508,15.267,1.455,30.587,0.245,45.89c-1.027,12.983-9.215,18.953-20.939,19.804
		c-9.944,0.722-20.022,0.723-29.967,0.012c-12.362-0.885-20.665-7.245-21.139-21.707C547.051,265.226,547.237,258.39,547.233,251.56
		z M609.318,252.064c-0.499-7.833,0.669-15.673-0.958-23.439c-1.255-5.991-3.632-8.486-9.627-9.818
		c-6.759-1.502-13.598-0.528-20.396-0.787c-3.657-0.139-7.292-0.027-10.895,0.876c-5.262,1.318-8.41,4.443-9.154,9.836
		c-0.453,3.278-0.691,6.608-0.728,9.918c-0.098,8.655,0.038,17.313-0.069,25.968c-0.041,3.347,0.338,6.644,0.774,9.924
		c0.838,6.299,4.424,9.797,10.73,10.518c9.442,1.079,18.91,1.069,28.355,0.047c6.76-0.731,9.807-3.853,11.146-10.674
		C609.957,266.992,608.812,259.488,609.318,252.064z"/>
	<path style="fill:#151413;" d="M1434.929,218.737c0,9.589,0,18.516,0,27.751c15.418,0,30.54,0,45.724,0
		c1.015,2.832,0.513,5.411,0.51,8.405c-15.51,0-30.757,0-46.267,0c0,10.162,0,19.905,0,30.088c16.081,0,32.177,0,48.248,0
		c0.828,3.042,0.386,5.648,0.401,8.523c-19.942,0-39.521,0-59.4,0c0-27.62,0-55.209,0-83.12c19.594,0,39.152,0,58.745,0
		c0.981,3.553,0.985,3.677,0.148,8.354C1467.185,218.737,1451.257,218.737,1434.929,218.737z"/>
	<path style="fill:#151413;" d="M848.29,293.637c-3.886,0-7.193,0-11.316,0c11.4-28.02,22.638-55.641,33.917-83.361
		c5.033,0,9.82,0,15.111,0c11.328,27.45,22.736,55.093,34.321,83.164c-3.77,0-7.15,0-10.9,0c-2.343-5.606-4.761-11.393-7.236-17.314
		c-15.516,0-30.971,0-46.635,0C853.156,281.905,850.761,287.679,848.29,293.637z M899.047,267.848
		c-6.751-16.457-13.403-32.671-20.359-49.627c-6.834,16.902-13.38,33.092-20.065,49.627
		C872.435,267.848,885.57,267.848,899.047,267.848z"/>
	<path style="fill:#151413;" d="M1376.671,286.266c9.813-25.641,19.394-50.673,29.041-75.879c3.625-0.671,7.249-0.198,11.583-0.34
		c-11.168,28.182-22.152,55.9-33.105,83.541c-5.202,0-9.991,0-15.106,0c-10.947-27.711-21.876-55.374-32.926-83.344
		c4.045,0,7.661,0,11.474,0C1357.271,235.48,1366.876,260.625,1376.671,286.266z"/>
	<path style="fill:#1A1919;" d="M636.445,293.42c0-27.752,0-55.184,0-82.86c3.371-1.016,6.779-0.326,10.59-0.473
		c0,25.007,0,49.714,0,74.821c15.804,0,31.194,0,46.835,0c0.602,2.947,0.346,5.551,0.25,8.512
		C675.023,293.42,655.995,293.42,636.445,293.42z"/>
	<path style="fill:#1A1919;" d="M1280.578,293.481c0-27.967,0-55.385,0-83.115c3.413,0,6.665,0,10.501,0c0,24.641,0,49.47,0,74.673
		c15.959,0,31.349,0,46.979,0c0,2.96,0,5.55,0,8.443C1318.996,293.481,1299.971,293.481,1280.578,293.481z"/>
	<path style="fill:#1A1919;" d="M1249.721,210.16c3.604,0,6.745,0,10.208,0c0,27.806,0,55.507,0,83.389c-3.422,0-6.671,0-10.208,0
		C1249.721,265.753,1249.721,238.186,1249.721,210.16z"/>
</g>
</svg>
