<?xml version="1.0" encoding="iso-8859-1"?>
<!-- Generator: Adobe Illustrator 27.0.0, SVG Export Plug-In . SVG Version: 6.00 Build 0)  -->
<svg version="1.1" id="Layer_1" xmlns="http://www.w3.org/2000/svg" xmlns:xlink="http://www.w3.org/1999/xlink" x="0px" y="0px"
	 viewBox="0 0 1447 411" style="enable-background:new 0 0 1447 411;" xml:space="preserve">
<g>
	<path style="fill:#F9D07C;" d="M407,0c0.418,0.932,1.248,0.881,2.088,0.949c15.355,1.247,28.454,7.362,38.9,18.68
		c6.463,7.003,10.045,15.478,10.98,25.007c0.129,1.319,0.334,2.594,0.646,3.898c0.824,3.451-1.436,6.313-5.021,6.358
		c-4.72,0.06-8.3-1.991-10.372-6.375c-2.624-5.55-5.276-11.075-8.945-16.054c-6.665-9.045-14.955-15.165-26.524-16.652
		c-10.98-1.412-21.744-0.686-32.623,0.903c-24.541,3.584-47.747,11.729-70.634,20.723c-19.587,7.697-38.734,16.496-56.235,28.428
		c-1.354,0.923-2.711,1.844-4.584,3.118c13.478,9.574,26.648,18.929,40.04,28.441c1.152,4.017-1.69,6.351-4.468,8.37
		c-2.564,1.863-5.524,3.26-8.736,0.987c-4.597-3.253-9.187-6.518-13.824-9.712c-7.508-5.172-14.995-10.377-22.603-15.399
		c-4.514-2.979-9.196-2.217-13.628,0.353c-7.895,4.579-15.362,9.821-22.804,15.088c-15.027,10.636-29.739,21.684-43.87,33.502
		c-12.619,10.554-24.951,21.408-36.916,32.712c-6.046,5.712-12.089,11.424-17.884,17.38c-2.992,3.076-6.004,6.396-4.828,11.417
		c3.217,5.763,8.674,9.513,13.499,13.729c9.482,8.284,19.305,16.178,29.27,23.903c14.298,11.084,29.117,21.389,44.194,31.354
		c4.704,3.109,9.312,6.373,14.429,8.789c3.756,1.773,5.397,4.91,5.328,8.805c-0.07,3.944-1.753,7.064-6.772,8.332
		c-4.131-2.451-8.84-5.149-13.455-7.999c-14.677-9.063-28.936-18.756-42.687-29.16c-11.108-8.403-21.933-17.175-32.691-26.03
		c-5.892-4.85-11.152-10.438-17.497-14.756c-1.951-1.328-4.041-2.223-5.939-3.079c-4.487,0.845-7.471,3.519-9.9,6.721
		c-12.429,16.387-24.591,32.948-33.675,51.539c-5.547,11.352-10.193,23.113-11.91,35.572c-1.444,10.471-1.633,21.241,4.692,30.835
		c5.317,8.064,12.885,12.92,21.992,15.139c10.862,2.646,21.902,2.703,33.07,1.497c8.891-0.96,17.659-2.29,26.391-4.171
		c11.493-2.475,22.625-6.086,33.617-10.157c14.897-5.517,29.55-11.63,43.882-18.494c0.785-0.376,1.54-0.594,2.392-0.358
		c2.76,11.603-2.262,17.632-11.182,21.192c-14.883,5.94-29.76,11.866-45.026,16.805c-11.329,3.665-22.844,6.555-34.522,8.614
		c-13.102,2.31-26.442,3.217-39.694,2.051c-14.099-1.241-27.317-5.507-37.526-16.061c-7.966-8.235-12.164-18.192-13.578-29.659
		c-1.737-14.087,1.806-27.169,6.068-40.244c6.276-19.255,16.246-36.557,27.788-53.066c5.706-8.162,12.181-15.731,17.951-23.83
		c5.096-7.153,4.944-11.638-0.579-18.424c-5.026-6.175-10.26-12.181-15.413-18.253c-10.428-12.285-19.842-25.246-27.815-39.309
		c-7.653-13.499-13.293-27.71-17.14-42.683c-0.819-3.189-1.716-6.381-1.751-9.718C0.956,70.831,0.71,70.276,0,70c0-6,0-12,0-18
		c0.998-0.361,0.869-1.232,0.987-2.043C3.002,36.085,9.922,25.246,21.28,17.139C31.45,9.88,43.15,6.981,55.266,6.185
		c14.08-0.926,28.222-0.38,42.166,1.993c13.976,2.379,27.762,5.713,41.217,10.234c10.645,3.577,21.104,7.663,31.442,12.062
		c8.989,3.825,18.031,7.547,26.308,12.794c5.472,3.468,11.121,6.582,16.89,9.512c8.468,4.301,17.094,4.619,25.94,1.313
		c3.586-1.34,6.975-3.064,10.217-5.071c10.694-6.622,21.343-13.215,32.923-18.365c18.737-8.334,37.504-16.479,57.308-21.964
		c14.324-3.968,28.751-7.418,43.724-7.765C384.359,0.905,385.445,1.178,386,0C393,0,400,0,407,0z M80.958,176.843
		c2.041-0.587,3.473-1.688,4.762-3.019c15.858-16.376,32.283-32.147,49.718-46.857c7.351-6.202,14.66-12.444,22.244-18.369
		c14.634-11.433,30.001-21.858,44.889-32.936c3.23-2.404,6.83-4.473,9.522-7.594c-0.478-0.506-0.656-0.822-0.925-0.961
		c-22.816-11.772-45.912-22.909-70.101-31.658c-20.748-7.504-42.029-12.679-64.04-14.282c-10.912-0.795-21.972-0.797-32.66,1.998
		c-9.28,2.428-17.516,6.804-23.262,15.056c-6.754,9.698-7.395,20.688-5.806,31.562c2.561,17.528,9.698,33.563,18.698,48.767
		c6.177,10.436,13.318,20.2,20.843,29.674c6.395,8.05,13.044,15.9,19.653,23.778C76.19,174.027,77.943,176.104,80.958,176.843z"/>
	<path style="fill:#0C5C9C;" d="M1172,411c-0.575-1.56-1.954-0.909-2.995-1.021c-11.375-1.23-21.034-5.892-28.763-14.371
		c-1.335-1.465-2.564-3.089-3.538-4.811c-2.74-4.845-1.711-8.769,2.83-12.075c2.191-1.595,4.668-2.53,7.149-3.471
		c2.015-0.764,4.081-1.4,6.136-2.057c2.051-0.655,4.116-1.264,6.165-1.89c1.663,0.238,2.763,1.32,3.422,2.666
		c5.472,11.164,15.086,12.462,25.839,10.795c2.587-0.401,5.187-1.087,7.598-2.304c6.205-3.135,9.026-8.073,8.461-14.996
		c-0.327-4.007-2.032-6.029-6.127-6.562c-8.571-1.115-17.009-2.888-25.374-4.985c-8.053-2.019-14.833-5.771-17.957-14.192
		c-2.416-6.513-2.413-13.051-0.317-19.544c5.962-18.464,18.24-30.246,37.445-33.991c9.788-1.908,19.742-2.517,29.753-1.303
		c10.339,1.254,18.483,6.08,24.635,14.388c0.686,0.927,1.249,1.966,1.738,3.014c1.75,3.748,1.203,6.058-2.395,7.847
		c-4.898,2.435-9.895,4.728-15.141,6.337c-5.12,1.571-9.818,0.163-13.201-3.68c-4.599-5.224-10.223-5.739-16.373-4.812
		c-3.792,0.572-7.398,1.84-10.765,3.748c-2.086,1.183-3.848,2.716-4.882,4.857c-2.73,5.652-0.657,10.594,6.063,11.542
		c8.86,1.249,17.713,2.825,26.186,5.888c4.88,1.764,9.354,4.179,13.069,7.978c4.518,4.621,6.171,10.19,5.601,16.365
		c-1.899,20.581-12.904,34.775-31.338,43.393c-7.708,3.603-15.867,5.885-24.457,6.255c-0.713,0.031-1.279,0.216-1.469,0.991
		C1176.667,411,1174.333,411,1172,411z"/>
	<path style="fill:#0B5C9C;" d="M1447,150c-3.912,2.344-6.69,5.873-9.533,9.297c-8.823,10.628-17.871,21.017-27.758,30.714
		c-16.795,16.473-27.688,36.386-32.551,59.436c-1.058,5.014-3.794,8.321-7.913,10.878c-3.885,2.412-8.157,3.718-12.644,4.264
		c-1.956,0.238-3.944,0.166-5.936-0.348c-6.002-1.548-7.391-4.282-4.598-9.792c3.167-6.247,5.541-12.749,7.033-19.6
		c2.705-12.417,1.848-24.755-0.584-37.08c-2.093-10.605-5.482-20.84-8.947-31.048c-1.23-3.623-2.14-7.317-3.05-11.022
		c-0.486-1.98-0.539-3.986-0.325-5.952c0.375-3.434,2.199-5.799,5.656-6.81c2.436-0.712,4.91-1.029,7.403-0.768
		c3.63,0.38,7.226,1.092,10.859,1.423c4.724,0.431,6.935,3.135,7.917,7.547c1.837,8.254,3.908,16.456,5.88,24.68
		c0.811,3.384,1.618,6.77,2.468,10.327c2.184-0.17,2.984-2.008,4.065-3.294c6.954-8.276,13.824-16.623,20.722-24.948
		c0.212-0.256,0.41-0.525,0.629-0.776c12.202-14.016,14.012-14.319,33.519-12.619c2.549,0.222,5.327,0.003,7.691,1.491
		C1447,147.333,1447,148.667,1447,150z"/>
	<path style="fill:#065B9A;" d="M342.137,266.401c-0.545-1.499,0.06-2.871,0.442-4.306c3.839-14.434,7.642-28.877,11.447-43.32
		c1.334-5.066,3.4-6.913,8.612-7.534c1.152-0.137,2.329-0.106,3.494-0.101c13.493,0.06,26.985,0.13,40.478,0.195
		c1.5,0.007,3.001,0.045,4.499-0.011c5.905-0.222,8.561-2.175,9.815-7.951c1.447-6.665,3.475-13.153,5.372-19.685
		c0.786-2.708,1.777-5.364,2.423-8.103c2.229-9.453,2.266-18.74-2.052-27.762c-6.381-13.334-20.172-18.954-32.587-17.451
		c-17.509,2.119-32.794,9.471-45.143,22.319c-6.903,7.182-11.826,15.635-14.997,25.051c-10.637,31.582-21.312,63.153-31.715,94.812
		c-3.983,12.122-5.352,24.621-3.468,37.396c1.86,12.613,9.112,20.367,21.113,23.791c4.78,1.364,9.719,2.146,14.742,2.326
		c14.305,0.51,28.616,1.254,42.924,0.723c12.113-0.45,24.235-1.024,36.3-2.382c3.451-0.388,6.944-0.404,10.958-0.62
		c-0.424,1.594-0.682,2.801-1.065,3.966c-6.218,18.9-12.577,37.754-18.613,56.712c-1.962,6.161-5.399,9.129-12.046,9.8
		c-27.216,2.749-54.484,3.61-81.779,2.479c-14.752-0.611-29.574-1.595-43.898-5.756c-19.683-5.717-35.992-16.198-47.002-33.939
		c-9.078-14.627-12.099-30.706-11.548-47.714c0.358-11.064,2.946-21.72,5.485-32.364c7.672-32.152,17.173-63.747,29.678-94.387
		c8.112-19.877,17.049-39.304,29.594-56.904c16.247-22.794,36.593-40.858,61.554-53.498c17.447-8.835,36.013-14.349,55.376-17.293
		c7.904-1.201,15.852-2.241,23.786-2.413c31.208-0.679,64.951,11.237,81.264,46.922c7.243,15.846,9.032,32.603,6.732,49.747
		c-2.838,21.158-9.438,41.398-15.792,61.674c-4.018,12.824-8.212,25.592-12.38,38.369c-1.945,5.964-4.326,7.667-10.597,7.669
		c-39.158,0.013-78.316,0.01-117.474-0.009C344.768,266.847,343.401,267.188,342.137,266.401z"/>
	<path style="fill:#075B9A;" d="M761.478,62.336c-3.15,8.6-5.961,16.366-8.838,24.106c-4.162,11.196-8.373,22.374-12.561,33.56
		c-2.197,5.868-3.828,6.72-10.043,6.297c-4.801-0.326-9.628-0.356-14.453,0.137c-2.967,0.303-6.003,0.435-8.968,0.179
		c-10.973-0.95-21.978-0.736-32.93-0.335c-11.932,0.436-23.932,0.281-35.778,2.418c-13.786,2.487-22.686,10.537-27.077,23.588
		c-5.767,17.141-11.274,34.37-16.878,51.567c-0.715,2.193-1.784,4.292-1.937,6.632c1.379,1.144,2.94,0.625,4.372,0.624
		c23.324-0.009,46.649-0.067,69.973-0.106c1.665-0.003,3.34-0.044,4.992,0.114c4.869,0.466,6.4,2.553,5.47,7.367
		c-0.156,0.809-0.492,1.584-0.755,2.371c-4.005,11.971-7.054,24.204-10.002,36.465c-1.804,7.503-4.408,9.535-12.239,9.541
		c-16.158,0.013-32.317,0.078-48.475-0.036c-5.811-0.041-11.617-0.603-17.429-0.807c-7.528-0.264-12.645,3.283-15.602,10.137
		c-2.248,5.211-3.26,10.79-4.853,16.194c-7.272,24.664-14.461,49.351-21.653,74.038c-2.646,9.08-5.134,18.206-7.852,27.264
		c-2.293,7.64-5.968,10.559-13.752,10.437c-22.156-0.345-44.31-0.199-66.465-0.09c-0.829,0.004-1.67,0.049-2.515-0.567
		c5.348-17.726,10.665-35.524,16.086-53.29c19.414-63.628,38.566-127.335,58.32-190.859c5.652-18.175,12.366-35.787,23.104-51.622
		c16.999-25.068,40.439-39.783,70.556-43.831c4.477-0.602,8.936-0.842,13.423-0.968c39.463-1.11,78.935-0.26,118.402-0.524
		C756.935,62.326,758.749,62.336,761.478,62.336z"/>
	<path style="fill:#0A5C9C;" d="M966.342,206.886c4.966-15.88,10.389-30.997,13.692-46.75c0.614-2.929,1.388-5.797,2.678-8.533
		c2.682-5.689,7.078-8.586,13.375-8.74c5.998-0.146,11.814,1.594,18.218,1.081c-2.886,9.815-5.594,19.034-8.307,28.251
		c-7.966,27.063-15.928,54.128-23.905,81.188c-2.065,7.003-4.696,8.808-11.931,8.508c-2.99-0.124-5.992-0.108-8.984-0.007
		c-5.581,0.19-8.993-2.602-11.117-7.55c-4.26-9.923-8.582-19.82-12.972-29.686c-4.106-9.229-8.333-18.404-12.502-27.593
		c-1.461,0.625-1.419,1.891-1.755,2.987c-4.918,16.018-10.019,31.982-14.697,48.069c-1.584,5.448-4.792,9.105-9.636,11.365
		c-5.295,2.47-10.804,4.411-16.835,2.627c-4.652-1.376-5.943-3.576-4.598-8.115c10.089-34.046,20.186-68.09,30.302-102.128
		c0.472-1.587,1.053-3.156,1.747-4.658c1.316-2.845,3.622-4.465,6.757-4.148c4.173,0.422,8.323,0.152,12.478,0.056
		c5.138-0.118,8.662,2.241,10.444,6.915c6.459,16.939,15.11,32.893,22.114,49.585C961.998,202.21,963.179,204.768,966.342,206.886z"
		/>
	<path style="fill:#0C5C9C;" d="M1279.15,220.806c-2.295-1.341-4.638-0.846-6.924-0.81c-7.158,0.111-9.347-1.953-9.348-9.041
		c-0.001-2.982,0.053-5.947,0.951-8.89c1.116-3.657,3.532-5.494,7.125-6.034c1.146-0.172,2.332-0.22,3.49-0.153
		c12.813,0.738,25.632,0.379,38.45,0.264c1.307-0.012,2.616,0.117,3.788,0.174c0.844,1.344,0.376,2.492,0.065,3.552
		c-4.156,14.168-8.427,28.302-12.494,42.496c-0.932,3.254-2.601,5.639-5.431,7.4c-16.783,10.442-34.784,16.446-54.802,15.098
		c-4.646-0.313-9.271-0.957-13.739-2.277c-14.535-4.295-22.628-14.548-23.031-29.62c-0.707-26.415,7.428-50.093,24.221-70.57
		c7.058-8.606,16.645-13.697,27.026-17.176c13.822-4.632,27.933-6.103,42.178-2.107c14.416,4.044,22.872,15.984,22.341,30.946
		c-0.066,1.853-0.406,3.629-0.935,5.387c-1.362,4.527-3.579,6.188-8.121,5.097c-2.804-0.674-5.31,0.093-7.871,0.458
		c-5.781,0.824-9.641-0.871-12.674-6.251c-4.895-8.68-12.651-13.022-22.876-11.827c-6.433,0.752-11.478,4.187-15.651,8.954
		c-8.911,10.182-13.649,22.249-15.919,35.435c-0.906,5.264-1.38,10.558-1.338,15.887c0.049,6.17,2.984,10.068,8.916,11.621
		c7.05,1.845,14.194,1.726,21.235,0.008c3.478-0.849,6.338-2.947,8.074-6.225C1277.8,228.93,1279.431,225.15,1279.15,220.806z"/>
	<path style="fill:#0A5C9C;" d="M1174.887,262.962c-2.665,0-5.335,0.112-7.993-0.024c-5.188-0.265-9.277-2.472-11.685-7.239
		c-3.45-6.83-6.203-13.935-8.15-21.34c-0.716-2.724-1.293-5.484-1.995-8.212c-0.377-1.468-1.108-2.777-2.201-3.854
		c-2.706-2.664-6.508-2.106-8.291,1.252c-1.428,2.689-1.878,5.705-2.315,8.625c-0.942,6.296-3.339,12.146-5.149,18.166
		c-3.334,11.09-18.203,15.679-26.103,12.843c-5.234-1.879-6.397-3.529-4.817-8.861c4.244-14.315,8.58-28.603,12.847-42.911
		c5.925-19.87,11.814-39.751,17.728-59.625c2.158-7.252,3.837-8.542,11.314-8.441c13.435,0.183,26.87,0.44,40.305,0.649
		c4.703,0.073,9.229,1.069,13.656,2.562c10.965,3.696,18.793,10.992,17.061,26.094c-1.342,11.703-5.438,22.21-13.985,30.652
		c-3.105,3.067-6.704,5.444-10.559,7.451c-1.177,0.613-2.432,1.1-3.542,1.814c-4.086,2.628-5.041,5.152-3.43,9.742
		c3.352,9.548,6.834,19.049,10.247,28.576c0.502,1.402,0.963,2.823,1.366,4.257c1.307,4.651-0.092,6.866-4.822,7.683
		c-0.49,0.085-0.995,0.113-1.493,0.115c-2.664,0.011-5.328,0.005-7.992,0.005C1174.887,262.949,1174.887,262.956,1174.887,262.962z
		 M1152.436,195.69c2.332,0.291,4.616,0.023,6.936-0.335c2.311-0.356,4.586-0.807,6.751-1.631
		c7.618-2.901,12.34-9.852,11.776-17.275c-0.25-3.291-1.185-6.359-4.578-7.679c-8.262-3.214-19.132-2.29-24.544,7.035
		c-2.111,3.638-3.384,7.571-3.747,11.751C1144.354,195.356,1144.632,195.62,1152.436,195.69z"/>
	<path style="fill:#0A5C9C;" d="M889.318,289.481c1.108,2.641,0.971,4.452,0.258,6.184c-4.941,12.004-7.403,24.765-11.325,37.083
		c-3.118,9.796-5.705,19.761-8.525,29.651c-0.272,0.955-0.588,1.903-0.78,2.875c-2.185,11.033,2.176,17.132,13.372,18.716
		c10.343,1.464,18.513-2.267,24.973-10.304c5.154-6.412,7.239-14.139,9.527-21.767c5.147-17.157,10.251-34.328,15.211-51.539
		c1.195-4.145,3.583-7.005,7.244-9.029c5.493-3.037,11.298-4.817,17.64-4.463c1.321,0.074,2.634,0.126,3.91,0.664
		c3.355,1.414,4.277,3.066,3.274,6.644c-1.298,4.633-2.746,9.224-4.099,13.841c-5.176,17.669-9.988,35.443-15.912,52.892
		c-5.302,15.617-14.097,28.608-28.049,37.656c-17.54,11.374-36.531,13.442-56.402,7.676c-12.422-3.604-18.82-11.124-20.716-26.237
		c-1.412-11.258,1.861-21.746,4.574-32.285c4.761-18.492,11.027-36.535,17.429-54.519c1.786-5.017,4.443-7.065,9.562-7.17
		C877.04,285.915,883.191,287.936,889.318,289.481z"/>
	<path style="fill:#0E5D9C;" d="M1064.927,292.376c-1.772,3.825-2.055,8.161-2.847,12.387c-1.108,5.91-3.51,8.223-9.314,8.335
		c-9.147,0.175-18.285,0.96-27.439,0.555c-3.983-0.176-7.958-0.559-11.933-0.888c-10.055-0.833-13.021,5.795-13.495,12.342
		c-0.585,8.081,1.224,10.44,9.211,8.171c1.409-0.4,2.983-0.432,4.462-0.342c8.989,0.547,17.98,0.231,26.971,0.196
		c1.636-0.006,3.272-0.001,4.943-0.001c-1.985,16.933-13.507,25.552-26.711,25.037c-4.818-0.188-9.616-0.107-14.427-0.921
		c-9.412-1.592-15.917,2.762-18.29,11.996c-0.983,3.824-2.055,7.725-0.549,11.734c2.521,1.725,5.295,2.049,8.15,1.836
		c13.971-1.043,27.959-0.268,41.937-0.412c0.29-0.003,0.583,0.276,1.061,0.517c-0.681,5.014-1.38,10.08-2.711,15.045
		c-1.287,4.802-4.076,7.786-9.239,8.517c-2.995,0.424-5.982,0.479-8.962,0.488c-22.329,0.067-44.658,0.039-66.987,0.03
		c-0.811,0-1.622-0.121-2.797-0.214c3.273-11.019,6.498-21.783,9.667-32.563c7.3-24.837,14.571-49.683,21.862-74.523
		c0.421-1.434,0.923-2.844,1.376-4.269c1.864-5.857,3.874-7.407,10.144-7.416c10.83-0.015,21.66,0.066,32.49,0.121
		c10.828,0.055,21.657,0.169,32.485,0.163c2.349-0.001,4.632,0.377,6.945,0.601C1063.005,289.097,1064.287,290.144,1064.927,292.376
		z"/>
	<path style="fill:#0C5C9C;" d="M1033.571,237.183c17.666,0,34.766,0,52.209,0c-0.739,5.482-1.145,10.551-2.515,15.497
		c-1.891,6.83-4.427,9.083-11.59,9.28c-8.156,0.224-16.32,0.155-24.481,0.148c-13.49-0.013-26.98-0.166-40.469-0.092
		c-9.557,0.052-11.38-2.062-8.631-11.317c6.661-22.421,13.499-44.789,20.197-67.2c2.993-10.015,5.806-20.084,8.734-30.119
		c0.463-1.587,0.992-3.175,1.687-4.671c1.259-2.711,3.228-4.605,6.387-4.927c1.485-0.151,2.962-0.545,4.442-0.546
		c14.991-0.003,29.982,0.037,44.973,0.104c3.649,0.016,7.287-0.042,10.948,0.407c2.754,0.338,5.597,0.229,8.436-0.342
		c2.844-0.571,5.9-1.242,8.942,0.811c0.513,5.778,0.281,11.521-1.545,17.118c-1.486,4.552-5,6.623-9.535,6.618
		c-10.822-0.011-21.649,0.613-32.467-0.122c-2.999-0.204-5.998-0.328-8.971,0.132c-4.373,0.677-7.839,2.821-9.736,6.919
		c-1.821,3.932-2.79,8.083-2.372,12.953c15.564,0,30.976,0,46.758,0c-1.853,5.553-3.616,10.505-5.89,15.294
		c-3.031,6.383-8.092,9.525-14.989,9.788c-5.323,0.203-10.659,0.286-15.984,0.188c-4.182-0.077-8.291,0.495-12.428,0.855
		c-4.251,0.37-7.12,2.668-8.613,6.565C1035.1,225.669,1033.999,231.023,1033.571,237.183z"/>
	<path style="fill:#0A5C9C;" d="M893.889,143.629c0.351,6.03,0.081,11.786-1.63,17.367c-1.127,3.674-3.929,5.642-7.746,6.137
		c-7.942,1.031-15.933,0.67-23.904,0.852c-4.002,0.091-7.942-0.731-11.916-0.94c-13.832-0.728-19.911,5.351-19.516,19.814
		c15.202,0,30.432,0,46.272,0c-1.553,7.387-3.171,14.056-7.47,19.702c-2.678,3.517-6.567,4.886-10.837,5.47
		c-5.963,0.816-11.951,0.585-17.935,0.646c-3.827,0.039-7.655,0.125-11.481,0.232c-5.099,0.142-8.321,2.736-10.009,7.519
		c-1.224,3.466-1.884,7.052-2.631,10.623c-0.372,1.781-0.571,3.597-0.929,5.927c17.464,0,34.858,0,52.408,0
		c-0.644,5.613-0.884,10.73-2.405,15.663c-1.803,5.851-4.206,7.835-10.299,8.344c-1.491,0.125-2.994,0.154-4.491,0.155
		c-21.151,0.009-42.302,0.019-63.453,0c-7.936-0.007-9.46-2.053-7.121-9.742c9.028-29.67,18.06-59.339,26.568-89.165
		c0.955-3.348,1.833-6.718,2.819-10.057c2.071-7.012,4.94-9.193,12.216-9.169c20.647,0.069,41.293,0.172,61.94,0.284
		C885.944,143.31,889.578,142.141,893.889,143.629z"/>
	<path style="fill:#0F5D9C;" d="M848.816,287.326c-2.15,16.466-12.07,25.866-27.657,26.491c-4.674,0.187-9.267-0.69-13.859-1.429
		c-3.148-0.507-6.223-0.45-9.391,0.232c-4.88,1.051-8.047,4-9.757,8.404c-1.429,3.681-2.357,7.576-1.983,12.302
		c6.165,0,12.244,0,18.323,0c6.053,0,12.106,0,17.885,0c2.26,6.058,0.16,17.553-3.654,21.257c-2.061,2.002-4.551,3.357-7.542,3.41
		c-1.496,0.026-2.994-0.097-4.491-0.078c-6.311,0.082-12.607-0.074-18.924,0.644c-7.022,0.798-11.128,4.784-13.532,10.917
		c-3.21,8.189-6.036,16.486-7.204,25.294c-1.067,8.048-4.157,10.929-12.078,12.18c-3.775,0.596-7.534,1.322-11.387,1.041
		c-4.623-0.338-6.523-2.321-6.721-6.89c-0.183-4.216,0.714-8.234,1.899-12.245c7.891-26.714,15.734-53.443,23.593-80.166
		c1.216-4.134,2.276-8.324,3.695-12.387c2.413-6.907,5.725-9.177,13.043-9.163c20.31,0.038,40.62,0.123,60.931,0.186
		C842.806,287.334,845.607,287.326,848.816,287.326z"/>
	<path style="fill:#0A5C9C;" d="M1045.039,406.77c2.373-8.157,4.664-16.079,6.983-23.993c8.342-28.476,16.384-57.043,25.918-85.156
		c0.266-0.786,0.562-1.561,0.835-2.344c2.24-6.428,5.229-8.718,11.876-8.055c5.095,0.508,10.139,1.663,15.154,2.762
		c2.569,0.563,3.23,2.011,2.244,4.957c-1.945,5.813-3.805,11.643-5.519,17.533c-5.514,18.94-11.212,37.827-16.819,56.74
		c-0.564,1.904-1.195,3.821-1.444,5.777c-0.453,3.556,1.296,5.672,4.908,6.124c3.328,0.417,6.635-0.085,9.93-0.518
		c2.979-0.392,5.95-0.472,8.92,0.044c3.478,0.604,6.906,0.56,10.398-0.171c5.276-1.105,7.635,0.489,8.241,5.795
		c1.216,10.642-5.671,20.746-16.952,20.742c-20.643-0.008-41.286,0-61.93-0.011C1046.972,406.994,1046.162,406.865,1045.039,406.77z
		"/>
</g>
</svg>
