<?xml version="1.0" encoding="iso-8859-1"?>
<!-- Generator: Adobe Illustrator 27.0.0, SVG Export Plug-In . SVG Version: 6.00 Build 0)  -->
<svg version="1.1" id="Layer_1" xmlns="http://www.w3.org/2000/svg" xmlns:xlink="http://www.w3.org/1999/xlink" x="0px" y="0px"
	 viewBox="0 0 1506.189 707" style="enable-background:new 0 0 1506.189 707;" xml:space="preserve">
<g>
	<path style="fill:#282424;" d="M1057.302,0c3.425,1.792,7.289,1.192,10.917,1.983c20.94,4.571,38.038,14.873,49.103,33.572
		c12.141,20.516,9.996,52.168-11.854,71.422c-12.949,11.41-28.089,17.131-45.044,19.134c-14.082,1.663-27.898,1.068-41.458-3.104
		c-17.31-5.325-31.59-14.979-40.613-30.961c-12.371-21.913-9.886-52.566,12.709-72.023c11.914-10.259,25.64-16.371,41.081-18.798
		c1.964-0.309,3.986-0.241,5.981-0.348c5.407,0.046,10.815,0.088,16.222,0.142c0.846,0.008,1.638-0.036,1.955-1.018
		C1056.635,0,1056.969,0,1057.302,0z M1048.169,108.649c2.823-0.182,5.645-0.361,8.467-0.546c9.58-0.626,18.571-3.148,26.809-8.197
		c25.201-15.445,24.801-47.019,10.845-62.706c-7.164-8.053-15.962-13.38-26.278-16.265c-9.243-2.585-18.668-2.803-28.173-2.067
		c-13.701,1.061-25.757,5.786-35.718,15.495c-10.843,10.568-13.942,23.566-11.349,37.949c2.543,14.106,11.305,23.674,23.993,29.854
		C1026.681,106.994,1037.275,108.583,1048.169,108.649z"/>
	<path style="fill:#363131;" d="M1436.302,707c-0.161-0.789-0.757-0.906-1.437-1.057c-7.053-1.568-10.821-5.991-11.42-13.225
		c1.293-1.2,2.722-0.751,4.121-0.469c2.603,8.844,8.578,12.162,17.433,9.73c3.745-1.029,6.061-3.716,6.348-7.367
		c0.316-4.014-1.13-6.643-5.055-8.18c-2.758-1.08-5.702-1.708-8.591-2.425c-2.421-0.601-4.817-1.273-7.025-2.425
		c-7.422-3.871-8.38-13.34-1.924-18.644c5.448-4.477,15.973-4.53,21.444-0.091c3.031,2.46,4.383,5.701,4.364,9.613
		c-1.19,0.915-2.461,0.601-3.721,0.316c-2.166-7.918-6.798-10.67-14.88-8.88c-4.257,0.943-6.719,3.567-6.873,7.325
		c-0.152,3.715,1.679,6.28,5.787,7.629c2.668,0.876,5.443,1.428,8.171,2.125c1.442,0.369,2.923,0.629,4.319,1.127
		c6.066,2.164,9.235,6.719,8.693,12.361c-0.577,6.013-5.078,10.563-11.289,11.538c-1.173,0.184-2.717-0.713-3.465,0.998
		C1439.635,707,1437.969,707,1436.302,707z"/>
	<path style="fill:#655E5E;" d="M1056.302,0c-0.317,0.983-1.109,1.027-1.955,1.018c-5.407-0.053-10.815-0.096-16.222-0.142
		c0.109-0.282,0.168-0.574,0.177-0.877C1044.302,0,1050.302,0,1056.302,0z"/>
	<path style="fill:#2666A8;" d="M1502.885,446.944c-10.626,0.356-21.251,0.759-31.88,1.059c-28.649,0.808-57.315,0.618-85.962,1.239
		c-35.158,0.762-70.315,0.494-105.471,0.903c-83.321,0.97-166.649,0.468-249.969,1.103c-133.49,1.018-266.979,0.617-400.469,0.734
		c-69.165,0.061-138.335,0.164-207.496-0.452c-63.324-0.564-126.652-0.036-189.97-0.893c-37.823-0.512-75.652-0.277-113.468-1.07
		c-18.325-0.384-36.649-0.413-54.971-0.711c-15.989-0.26-31.975-0.702-47.959-1.175c-4.426-0.131-8.841-0.659-13.254-1.559
		c11.139-0.376,22.277-0.827,33.418-1.115c28.649-0.742,57.313-0.661,85.961-1.238c42.823-0.862,85.652-0.336,128.469-0.98
		c70.156-1.056,140.315-0.439,210.47-0.977c184.155-1.414,368.312-0.592,552.467-0.687c28.666-0.015,57.337-0.204,85.996,0.258
		c58.989,0.951,117.986,0.141,176.97,0.976c41.323,0.585,82.652,0.31,123.967,1.092c17.823,0.337,35.661,0.066,53.466,0.915
		c12.489,0.595,24.985,0.385,37.467,0.911c4.085,0.172,8.158,0.623,12.236,0.946
		C1502.898,446.462,1502.892,446.703,1502.885,446.944z"/>
	<path style="fill:#2666A8;" d="M1506.189,196.422c-4.786,0.624-8.773,1.271-12.887,1.341c-31.815,0.541-63.632,0.987-95.444,1.561
		c-30.322,0.547-60.642,0.359-90.959,0.833c-69.976,1.094-139.962,0.397-209.937,1.123c-56.817,0.59-113.631,0.542-170.446,0.682
		c-94.818,0.234-189.637,0.214-284.455,0.164c-93.985-0.05-187.972,0.1-281.953-0.554c-56.815-0.395-113.635-0.099-170.444-1.006
		c-30.486-0.487-60.979-0.184-91.455-0.946c-18.82-0.47-37.651-0.248-56.456-1.053c-9.655-0.413-19.312-0.376-28.964-0.72
		c-3.661-0.13-7.245-0.605-11.8-1.569c18.821-0.404,36.629-0.977,54.443-1.416c31.151-0.768,62.31-0.402,93.453-1.088
		c46.482-1.023,92.971-0.339,139.45-0.965c89.309-1.201,178.626-0.325,267.934-1.051c110.807-0.901,221.613-0.46,332.42-0.628
		c41.66-0.063,83.325-0.288,124.978,0.27c53.15,0.713,106.3,0.301,159.448,0.687c25.495,0.185,50.998-0.201,76.486,0.285
		c40.65,0.775,81.307,0.302,121.952,1.01c22.154,0.386,44.308,0.485,66.46,0.828c15.321,0.237,30.64,0.61,45.957,1.056
		C1491.122,195.475,1498.267,195.999,1506.189,196.422z"/>
	<path style="fill:#282424;" d="M21.953,123.742c-1.275,0-2.252,0-3.229,0c-5.978,0-11.956,0-18.723,0
		c3.858-13.767,8.565-26.745,12.769-39.872c4.242-13.247,8.737-26.413,13.089-39.626c4.352-13.212,8.663-26.437,13.085-39.94
		c8.563,0,17.148,0,26.045,0c9.576,32.235,19.185,64.581,29.131,98.06c3.221-6.974,4.526-13.491,6.486-19.768
		c2.024-6.483,3.929-13.003,5.88-19.508c1.999-6.666,3.984-13.336,5.99-19.999c1.959-6.504,3.932-13.004,5.908-19.503
		c1.969-6.475,3.949-12.945,5.936-19.456c8.598,0,16.9,0,25.584,0c13.034,39.675,26.079,79.385,39.223,119.395
		c-7.734,0-14.843,0-22.294,0c-9.846-32.889-19.661-65.675-29.794-99.526c-10.205,33.946-20.055,66.711-29.907,99.484
		c-8.585,0-16.855,0-25.333,0c-9.801-32.949-19.549-65.72-29.296-98.49c-0.28,0.056-0.559,0.113-0.839,0.169
		C41.783,57.943,31.903,90.725,21.953,123.742z"/>
	<path style="fill:#292525;" d="M9.598,515.438c7.592,0,14.045,0,20.81,0c9.091,30.342,18.158,60.605,27.226,90.869
		c0.324,0.043,0.649,0.087,0.973,0.13c4.908-14.977,9.198-30.153,13.76-45.24c4.599-15.209,9.18-30.423,13.798-45.734
		c7.932,0,15.542,0,23.586,0c9.07,30.536,18.138,61.068,27.207,91.6c0.317-0.034,0.634-0.069,0.952-0.103
		c9.199-30.505,18.398-61.01,27.597-91.516c7.053,0,13.676,0,20.798,0c-12.246,37.254-24.387,74.192-36.592,111.321
		c-8.028,0-15.969,0-24.359,0c-9.008-30.339-18.049-60.791-27.409-92.315c-9.467,31.468-18.621,61.894-27.797,92.395
		c-8.057,0-15.855,0-23.949,0C34.059,589.896,21.924,552.959,9.598,515.438z"/>
	<path style="fill:#292525;" d="M1034.915,608.607c9.512-31.53,18.781-62.257,28.089-93.114c6.901,0,13.493,0,20.785,0
		c-12.264,37.31-24.402,74.238-36.59,111.317c-8.047,0-16.001,0-24.338,0c-8.971-30.245-17.954-60.529-26.936-90.813
		c-10.142,29.928-18.891,60.23-28.256,90.679c-7.872,0-15.781,0-24.008,0c-12.098-36.803-24.235-73.726-36.514-111.083
		c6.987,0,13.552,0,20.802,0c9.055,30.195,18.214,60.736,27.374,91.277c0.28,0.018,0.561,0.035,0.841,0.053
		c9.159-30.466,18.318-60.933,27.5-91.478c7.955,0,15.576,0,23.602,0C1016.391,546.193,1025.521,576.956,1034.915,608.607z"/>
	<path style="fill:#2C2727;" d="M561.731,76.617c10.407,15.254,20.676,30.307,31.357,45.963c-8.125,0-15.47,0-23.234,0
		c-4.698-6.583-9.633-13.45-14.515-20.354c-5.28-7.468-10.45-15.013-15.801-22.429c-1.345-1.864-2.012-3.691-1.954-5.981
		c0.118-4.636,0.035-9.276,0.035-14.567c3.439,0,6.542,0.009,9.646-0.002c4.827-0.017,9.59-0.159,14.208-2.02
		c5.973-2.408,9.35-6.565,10.093-12.986c0.389-3.362,0.277-6.691-0.592-9.904c-1.964-7.266-7.384-10.773-14.312-12.264
		c-3.079-0.663-6.226-1.077-9.414-1.074c-22.161,0.024-44.322,0.01-66.483,0.019c-0.813,0-1.669-0.163-2.899,0.745
		c0,33.356,0,67.076,0,100.978c-6.786,0-13.078,0-19.368,0c-1.023-3.42-1.402-110.807-0.412-119.163
		c1.126-0.934,2.515-0.485,3.78-0.486c29.659-0.03,59.319-0.054,88.978-0.001c7.182,0.013,14.273,0.808,20.93,3.813
		c12.138,5.48,18.685,15.128,20.281,28.1c0.625,5.08,0.557,10.242-0.613,15.388c-2.485,10.932-9.005,18.31-19.136,22.628
		C569.117,74.381,565.731,75.274,561.731,76.617z"/>
	<path style="fill:#282324;" d="M769.843,76.532c10.535,15.423,20.825,30.489,31.47,46.073c-7.975,0-15.307,0-23.139,0
		c-1.293-1.747-2.9-3.833-4.418-5.981c-8.632-12.221-17.234-24.463-25.872-36.68c-0.974-1.378-1.821-2.693-1.792-4.513
		c0.083-5.152,0.029-10.307,0.029-15.582c3.249-1.176,6.41-0.455,9.492-0.556c4.82-0.157,9.578-0.203,14.188-2.11
		c5.359-2.218,8.669-5.875,9.782-11.592c2.25-11.547-2.93-21.777-15.734-23.715c-2.971-0.45-5.919-0.866-8.92-0.866
		c-21.986-0.003-43.972-0.005-65.958,0.011c-0.797,0.001-1.667-0.261-2.703,0.615c0,33.325,0,66.903,0,100.618
		c-3.462,1.244-6.784,0.508-10.025,0.642c-3.138,0.13-6.286,0.028-9.78,0.028c0-39.933,0-79.622,0-119.343
		c1.167-0.921,2.55-0.479,3.826-0.48c29.481-0.028,58.963-0.052,88.444-0.002c8.374,0.014,16.615,0.989,24.078,5.201
		c10.653,6.014,16.313,15.332,17.426,27.397c0.458,4.959,0.467,9.923-0.667,14.884c-2.738,11.974-10.294,19.378-21.567,23.395
		C775.514,74.862,772.957,75.562,769.843,76.532z"/>
	<path style="fill:#292525;" d="M1203.624,627.007c0-37.375,0-74.169,0-110.907c1.098-1.279,2.523-0.824,3.796-0.826
		c22-0.024,44.001-0.165,65.999,0.044c12.367,0.117,24.519,1.705,35.668,7.762c13.901,7.553,23.105,18.742,26.585,34.302
		c3.065,13.699,2.619,27.159-4.29,39.728c-8.9,16.19-22.831,25.464-40.878,28.878c-5.454,1.032-10.93,1.015-16.424,1.016
		c-21.667,0.006-43.333,0.002-65,0.002C1207.426,627.007,1205.771,627.007,1203.624,627.007z M1222.531,610.282
		c21.032-0.195,41.822,0.622,62.573-0.438c9.457-0.483,17.384-5.117,23.488-12.581c4.655-5.692,7.231-12.176,8.22-19.44
		c2.78-20.418-8.328-39.611-29.557-44.144c-4.905-1.047-9.885-1.359-14.863-1.389c-15.316-0.091-30.632-0.046-45.949-0.012
		c-1.277,0.003-2.659-0.439-3.912,0.543C1222.531,558.51,1222.531,584.234,1222.531,610.282z"/>
	<path style="fill:#282324;" d="M740.145,515.795c1.7-0.88,3.222-0.515,4.686-0.517c21.154-0.027,42.309-0.021,63.463-0.016
		c8.178,0.002,16.276,0.806,24.207,2.828c22.147,5.647,39.514,23.597,40.975,49.19c1.384,24.242-8.878,41.629-29.776,53.114
		c-7.678,4.22-16.147,6.388-24.855,6.47c-25.816,0.245-51.635,0.114-77.453,0.12c-0.324,0-0.647-0.131-1.246-0.26
		C740.145,589.743,740.145,552.706,740.145,515.795z M758.687,610.265c3.542,0,6.531,0.009,9.519-0.001
		c17.146-0.059,34.297,0.136,51.434-0.282c10.283-0.251,18.83-4.783,25.36-12.888c8.351-10.366,9.935-22.19,7.378-34.817
		c-2.568-12.681-10.189-21.263-21.906-26.483c-6.559-2.922-13.533-3.383-20.485-3.476c-15.812-0.212-31.629-0.076-47.445-0.049
		c-1.279,0.002-2.684-0.412-3.855,0.771C758.687,558.556,758.687,584.137,758.687,610.265z"/>
	<path style="fill:#2B2626;" d="M1505.242,610.112c0,5.89,0,11.036,0,16.199c-3.85,1.007-98.327,1.452-116.456,0.515
		c0-37.001,0-74.022,0-111.308c37.367,0,74.599,0,112.138,0c0,5.523,0,10.935,0,16.814c-31.074,0-62.151,0-93.439,0
		c0,9.567,0,18.675,0,28.193c21.569,0,42.974,0,64.606,0c0.673,5.81,0.141,11.23,0.342,17.039c-21.748,0-43.163,0-64.87,0
		c0,10.963,0,21.537,0,32.549C1439.954,610.112,1472.335,610.112,1505.242,610.112z"/>
	<path style="fill:#282324;" d="M291.869,630.007c-17.542,0.257-33.872-3.76-48.313-14.166
		c-17.29-12.458-24.841-29.465-23.03-50.496c1.175-13.641,7.387-25.041,17.552-34.167c11.575-10.391,25.17-16.335,40.63-18.287
		c12.857-1.623,25.608-1.44,38.052,2.221c17.323,5.096,31.711,14.44,40.64,30.689c10.953,19.933,8.095,50.417-13.544,67.648
		c-13.248,10.55-28.298,15.674-44.998,16.541C296.534,630.111,294.199,630.007,291.869,630.007z M291.36,613.07
		c12.151,0.407,23.344-1.816,33.713-7.948c21.304-12.599,24.233-39.989,11.849-56.334c-7.12-9.398-16.711-15.136-28.064-17.736
		c-8.628-1.977-17.382-2.502-26.281-1.304c-10.272,1.383-19.446,4.877-27.886,11.006c-20.826,15.123-20.427,50.935,4.897,64.717
		C269.638,610.94,280.241,613.557,291.36,613.07z"/>
	<path style="fill:#282324;" d="M519.722,626.783c-9.088-12.773-17.993-25.421-27.066-37.947c-2.244-3.098-3.577-6.179-3.218-10.094
		c0.303-3.294,0.062-6.639,0.062-9.917c1.524-1.421,3.269-0.766,4.848-0.8c4.658-0.098,9.304,0.024,13.925-0.925
		c7.907-1.624,12.752-6.942,13.086-14.682c0.43-9.935-3.466-16.004-11.66-18.487c-4.208-1.275-8.531-1.594-12.835-1.618
		c-20.162-0.112-40.324-0.052-60.487-0.042c-0.646,0-1.291,0.134-2.515,0.271c0,31.458,0,62.833,0,94.224
		c-6.536,0-12.472,0-18.538,0c0-37.155,0-74.071,0-110.822c1.218-1.032,2.435-0.668,3.557-0.669
		c27.328-0.021,54.655-0.091,81.982,0.032c7.478,0.034,14.96,0.512,21.839,4.125c10.746,5.644,16.556,14.523,17.617,26.543
		c0.396,4.486,0.455,8.995-0.568,13.418c-2.973,12.854-11.44,20.189-23.841,23.481c-1.108,0.294-2.328,0.197-3.653,1.512
		c9.521,13.955,19.104,28,28.925,42.394C533.852,626.783,526.948,626.783,519.722,626.783z"/>
	<path style="fill:#1E64A6;" d="M1383.254,359.157c3.218-4.213,6.323-8.28,9.493-12.43c7.163,3.822,14.062,7.436,21.501,9.891
		c11.472,3.786,23.277,5.562,35.295,5.144c7.424-0.258,14.916-0.847,21.998-3.653c3.445-1.365,6.605-3.052,9.199-5.765
		c6.192-6.476,4.846-15.941-2.95-20.266c-5.548-3.078-11.75-3.464-17.842-4.036c-12.565-1.18-25.171-1.941-37.726-3.206
		c-6.588-0.663-13.161-1.825-19.411-4.175c-8.281-3.114-14.244-8.272-15.604-17.643c-1.684-11.6,2.646-20.412,12.042-26.992
		c7.549-5.287,16.224-7.627,25.157-8.724c17.849-2.192,35.488-1.002,52.638,4.772c6.911,2.327,13.463,5.459,19.779,9.769
		c-2.863,4.711-7.063,7.809-10.244,11.99c-8.151-3.938-16.419-7.355-25.199-9.28c-14.112-3.093-28.285-3.908-42.478-0.529
		c-3.736,0.89-7.311,2.261-10.178,4.985c-4.767,4.529-4.521,10.538,0.602,14.643c2.256,1.808,4.927,2.703,7.68,3.393
		c8.269,2.073,16.757,2.295,25.191,2.935c9.935,0.754,19.907,1.144,29.717,3.067c5.876,1.152,11.562,2.902,17.032,5.404
		c18.718,8.558,17.183,31.897,8.388,42.07c-6.137,7.098-14.043,11.083-22.878,13.357c-14.505,3.734-29.226,3.736-44.064,2.385
		c-11.52-1.049-22.567-3.633-33.1-8.365C1392.312,365.662,1387.604,362.94,1383.254,359.157z"/>
	<path style="fill:#2165A7;" d="M1215.467,269.34c26.381,28.412,52.867,56.936,80.091,86.256c0-29.388,0-57.755,0-86.361
		c6.069,0,11.648,0,17.492,0c0,35.014,0,69.931,0,105.455c-6.767,0-13.542,0.023-20.316-0.015c-1.89-0.011-2.865-1.553-3.985-2.748
		c-6.49-6.929-12.976-13.862-19.424-20.83c-9.953-10.756-19.861-21.553-29.813-32.31c-8.369-9.046-16.771-18.062-25.164-27.085
		c-0.778-0.837-1.604-1.629-3.103-3.145c0,29.044,0,57.198,0,86.066c-6.067,0.133-11.636,0.119-17.552-0.021
		c0-35.118,0-70.014,0-105.261C1200.628,269.34,1207.71,269.34,1215.467,269.34z"/>
	<path style="fill:#1E64A6;" d="M1052.807,265.877c15.462-0.041,29.98,3.149,43.005,11.996
		c17.452,11.853,26.051,28.095,24.286,49.237c-1.127,13.499-7.221,24.7-17.466,33.639c-11.44,9.981-24.896,14.813-39.837,16.458
		c-15.396,1.696-30.284-0.033-44.328-6.436c-15.783-7.196-27.933-18.215-32.099-35.828c-5.281-22.327,1.833-41.364,20.502-55.288
		C1020.528,269.47,1036.088,265.78,1052.807,265.877z M1003.335,322.038c0,1.831-0.043,3.664,0.02,5.493
		c0.028,0.821,0.242,1.64,0.414,2.451c3.066,14.452,12.705,22.994,25.857,27.968c9.944,3.761,20.35,4.352,30.932,3.239
		c9.628-1.013,18.447-3.947,26.4-9.493c12.445-8.68,18.006-24.725,13.739-39.762c-3.58-12.613-12.275-20.912-24.075-25.585
		c-16.781-6.646-33.906-6.566-50.406,0.893C1013.162,293.144,1002.45,304.901,1003.335,322.038z"/>
	<path style="fill:#282424;" d="M399.868,122.821c-7.848,0-14.66,0-21.91,0c-17.661-33.767-35.39-67.663-53.486-102.26
		c-18.273,34.399-36.292,68.322-54.309,102.24c-7.044,0-13.85,0-21.474,0c6.565-13.915,14.034-26.881,20.914-40.138
		c6.875-13.247,13.942-26.394,20.948-39.572c7.072-13.301,14.173-26.587,21.264-39.886c8.357,0,16.493,0,24.975,0
		C357.676,42.81,378.607,82.502,399.868,122.821z"/>
	<path style="fill:#1E64A6;" d="M469.369,344.544c4.678,2.6,9.296,5.168,14.325,7.964c-4.215,5.538-9.149,9.844-14.686,13.478
		c-10.375,6.809-21.867,10.092-34.185,11.131c-11.363,0.958-22.605,0.571-33.626-2.304c-16.583-4.325-30.199-13.123-38.735-28.326
		c-9.781-17.42-8.675-42.244,6.378-58.548c11.159-12.087,24.993-18.883,41.27-21.067c12.502-1.677,24.833-1.374,37.11,1.678
		c15.083,3.749,27.191,11.975,37.236,24.211c-5.158,2.347-10.297,3.98-15.467,5.718c-3.757-2.66-6.846-5.967-10.769-8.184
		c-14.037-7.931-29.08-9.698-44.834-7.645c-9.63,1.255-18.11,4.82-25.736,10.923c-18.312,14.655-17.776,44.91,3.072,58.754
		c7.095,4.711,14.818,7.554,23.163,8.38c10.285,1.018,20.626,1.203,30.72-1.685c7.777-2.225,14.689-6.114,20.795-11.425
		C466.521,346.622,467.38,345.329,469.369,344.544z"/>
	<path style="fill:#272223;" d="M1420.547,21.938c-19.334,0-37.947,0-56.883,0c0-5.982,0-11.704,0-17.686c44.398,0,88.8,0,133.462,0
		c0,5.771,0,11.493,0,17.629c-18.893,0-37.633,0-56.699,0c0,34.015,0,67.619,0,101.54c-6.717,0-13.11,0-19.88,0
		C1420.547,89.734,1420.547,56.148,1420.547,21.938z"/>
	<path style="fill:#282324;" d="M1249.172,21.737c0,34.265,0,67.727,0,101.336c-3.349,1.275-6.679,0.495-9.923,0.638
		c-3.134,0.138-6.28,0.03-9.981,0.03c0-33.999,0-67.696,0-101.842c-19.301,0-38.04,0-56.985,0c0-6.062,0-11.674,0-17.596
		c44.363,0,88.783,0,133.565,0c0,5.519,0,11.241,0,17.434C1287.202,21.737,1268.472,21.737,1249.172,21.737z"/>
	<path style="fill:#1E64A6;" d="M114.264,269.18c6.639,0,12.765,0,19.562,0c-19.168,35.434-38.106,70.444-57.085,105.53
		c-6.591,0-13.052,0-19.886,0C38.056,339.74,19.206,304.675,0.152,269.23c6.717,0,12.972,0,19.579,0
		c15.514,28.966,31.106,58.078,47.046,87.84C82.745,327.515,98.461,298.428,114.264,269.18z"/>
	<path style="fill:#1E64A6;" d="M608.548,284.131c-16.189,30.582-31.95,60.357-47.795,90.29c-6.365,0-12.6,0-19.394,0
		c18.73-35.273,37.256-70.163,55.855-105.19c7.397,0,14.682,0,22.336,0c18.301,34.725,36.7,69.635,55.413,105.142
		c-6.729,0-12.627,0-19.118,0C640.331,344.772,624.691,314.931,608.548,284.131z"/>
	<path style="fill:#1E64A6;" d="M309.312,373.967c-6.553,0-12.515,0-19.093,0c-15.572-29.723-31.262-59.673-47.326-90.336
		c-16.107,30.5-31.922,60.444-47.688,90.298c-6.477,0-12.591,0-19.473,0c18.811-35.455,37.367-70.429,55.93-105.415
		c7.483,0,14.599,0,22.097,0C272.206,303.531,290.659,338.56,309.312,373.967z"/>
	<path style="fill:#2C2727;" d="M591.905,515.487c6.181,0,12.089,0,18.448,0c0,31.64,0,63.046,0,94.716c28.721,0,56.993,0,85.69,0
		c0.723,5.605,0.086,10.985,0.391,16.581c-35.018,0-69.614,0-104.528,0C591.905,589.881,591.905,552.966,591.905,515.487z"/>
	<path style="fill:#1E64A6;" d="M760.243,374.695c0-30.168,0-59.75,0-89.697c-16.768,0-33.186,0-50.093,0
		c-0.957-5.327-0.368-10.373-0.444-15.703c39.498,0,78.709,0,118.246,0c0,4.967,0,10.014,0,15.493c-16.486,0-32.893,0-49.812,0
		c0,29.956,0,59.493,0,88.931c-3.113,1.702-5.985,0.779-8.727,0.94C766.613,374.823,763.796,374.695,760.243,374.695z"/>
	<path style="fill:#322D2D;" d="M908.758,122.247c-6.583,0-13.159,0-19.91,0c0-39.373,0-78.908,0-118.802c6.526,0,12.924,0,19.37,0
		C909.277,7.111,909.756,105.813,908.758,122.247z"/>
	<path style="fill:#2C2727;" d="M1145.783,627.607c-6.137,0-12.073,0-18.244,0c0-37.413,0-74.615,0-111.736
		c1.382-0.914,2.75-0.508,4.038-0.523c4.63-0.055,9.261-0.022,14.207-0.022C1145.783,552.941,1145.783,590.145,1145.783,627.607z"/>
	<path style="fill:#1763A6;" d="M894.335,269.228c5.723,0,11.14,0,16.762,0c0,34.936,0,69.648,0,104.597c-5.606,0-11.018,0-16.762,0
		C894.335,339.032,894.335,304.329,894.335,269.228z"/>
	<path style="fill:#363131;" d="M1467.906,670.044c0,11.567,0,23.134,0,34.373c-1.619,1.313-2.872,1.121-4.391,0.643
		c0-14.586,0-29.187,0-44.04c1.952-0.789,4.033-0.485,6.398-0.128c4.658,12.443,9.331,24.926,14.004,37.409
		c0.302,0.008,0.603,0.017,0.904,0.025c4.587-12.473,9.174-24.945,13.714-37.288c2.218-0.734,4.175-0.376,6.424-0.372
		c0,14.821,0,29.407,0,44.191c-1.163,0.964-2.545,0.706-4.398-0.106c0-11.756,0-23.67,0-35.585c-0.28-0.047-0.56-0.094-0.84-0.142
		c-4.47,12.065-8.941,24.13-13.289,35.864c-1.531,0.819-2.671,0.426-4.171,0.461c-4.427-11.86-8.846-23.696-13.264-35.533
		C1468.634,669.891,1468.27,669.968,1467.906,670.044z"/>
</g>
</svg>
