<?xml version="1.0" encoding="iso-8859-1"?>
<!-- Generator: Adobe Illustrator 27.0.0, SVG Export Plug-In . SVG Version: 6.00 Build 0)  -->
<svg version="1.1" id="Layer_1" xmlns="http://www.w3.org/2000/svg" xmlns:xlink="http://www.w3.org/1999/xlink" x="0px" y="0px"
	 viewBox="0 0 1581 526" style="enable-background:new 0 0 1581 526;" xml:space="preserve">
<g>
	<path style="fill:#1D6295;" d="M253.878,88.899c-9.602-25.448-20.434-50.35-33.098-74.437c-0.378-0.719-0.913-1.357-1.422-2.1
		c-12.505-0.55-24.937-1.096-37.567-1.651C180.442,7.238,181.831,3.516,181,0c0.667,0,1.333,0,2,0
		c1.261,1.172,2.843,0.668,4.28,0.747c7.783,0.424,15.581,0.605,23.366,0.824c31.528,0.888,63.058,0.541,94.572-0.848
		C306.188,0.68,307.238,0.874,308,0c0.667,0,1.333,0,2,0c0,3.445,0,6.889,0,10.618c-13.252,0.869-25.947,1.375-38.606,1.61
		c-0.898,6.931,8.741,47.986,15.628,66.994c0.64,1.989,0.67,4.22,2.309,5.812c0.796,5.986,3.23,11.489,5.185,17.114
		c9.701,27.905,20.63,55.354,31.077,82.981c18.488,48.891,37.44,97.606,55.166,146.783c0.54,1.499,0.802,3.116,2.006,4.332
		c1.467-0.721,1.715-2.116,2.274-3.257c18.584-37.878,37.443-75.624,55.35-113.832c18.743-39.991,37.037-80.186,53.288-121.266
		c8.727-22.06,17.228-44.232,22.73-67.391c1.378-5.802,2.896-11.61,2.605-18.101c-10.663-0.575-21.234-1.144-32.067-1.728
		C485.98,7.091,485.934,3.557,487,0c0.333,0,0.667,0,1,0c0.666,0.623,1.497,0.625,2.333,0.641
		c17.805,0.329,35.608,0.835,53.414,0.896c5.969,0.021,11.964-0.404,17.951-0.494c6.992-0.106,13.986-0.181,20.977-0.352
		C584.123,0.655,585.698,1.078,587,0c0.667,0,1.333,0,2,0c0,3.448,0,6.895,0,10.605c-10.222,0.831-19.791,1.498-29.636,1.555
		c-5.439,6.885-10.235,14.246-14.806,21.744c-18.527,30.396-34.035,62.384-49.436,94.415
		c-24.387,50.718-48.693,101.474-72.908,152.274c-12.928,27.121-25.626,54.351-38.356,81.566
		c-4.641,9.923-8.585,20.132-11.922,30.573c-0.636,1.989-0.976,4.399-4.462,4.148c-1.134-3.593-2.332-7.325-3.491-11.07
		c-12.123-39.154-25.967-77.706-40.593-115.984c-20.779-54.382-41.537-108.772-62.343-163.144c-1.416-3.7-2.499-7.559-4.679-10.939
		C256.112,93.254,255.168,91.013,253.878,88.899z"/>
	<path style="fill:#DDE0EA;" d="M308,0c-0.762,0.874-1.812,0.68-2.782,0.723c-31.514,1.389-63.044,1.736-94.572,0.848
		c-7.785-0.219-15.584-0.4-23.366-0.824C185.843,0.668,184.261,1.172,183,0C224.667,0,266.333,0,308,0z"/>
	<path style="fill:#E5E7EF;" d="M587,0c-1.302,1.078-2.877,0.655-4.325,0.691c-6.991,0.171-13.984,0.246-20.977,0.352
		c-5.987,0.091-11.983,0.515-17.951,0.494c-17.805-0.061-35.609-0.567-53.414-0.896C489.497,0.625,488.666,0.623,488,0
		C521,0,554,0,587,0z"/>
	<path style="fill:#78C8C1;" d="M770,526c-23,0-46,0-69,0c0.009-0.318-0.005-0.634-0.043-0.949
		c23.036,0.01,46.071,0.02,69.107,0.031C770.03,525.387,770.009,525.693,770,526z"/>
	<path style="fill:#99D3CE;" d="M0,266c0.317,0.038,0.631,0.019,0.941-0.056c0.005,6.7,0.009,13.4,0.014,20.101l-0.475-0.078L0,286
		C0,279.333,0,272.667,0,266z"/>
	<path style="fill:#B1DCD8;" d="M770,526c0.009-0.307,0.03-0.613,0.064-0.919c6.664,0.002,13.328,0.005,19.992,0.007
		c-0.071,0.301-0.09,0.604-0.056,0.911C783.333,526,776.667,526,770,526z"/>
	<path style="fill:#A2AFCA;" d="M1581,272c-0.301-0.016-0.6,0.004-0.896,0.061c-0.002-6.373-0.004-12.746-0.006-19.119
		c0.298,0.064,0.599,0.083,0.902,0.058C1581,259.333,1581,265.667,1581,272z"/>
	<path style="fill:#B1DCD8;" d="M700.957,525.051c0.038,0.315,0.052,0.632,0.043,0.949c-5.333,0-10.667,0-16,0
		c0.04-0.31,0.023-0.617-0.051-0.921C690.285,525.07,695.621,525.06,700.957,525.051z"/>
	<path style="fill:#20B6AC;" d="M700.957,525.051c-5.336,0.01-10.672,0.019-16.008,0.029c-1-0.023-2-0.084-2.999-0.064
		c-13.992,0.274-27.936-1.024-41.917-1.27c-12.619-0.222-25.231-1.113-37.833-1.914c-13.583-0.863-27.162-1.839-40.723-2.995
		c-13.879-1.183-27.741-2.578-41.598-4.002c-11.87-1.22-23.765-2.318-35.572-4.007c-13.275-1.899-26.591-3.48-39.841-5.595
		c-11.277-1.8-22.609-3.286-33.865-5.239c-22.168-3.846-44.282-7.935-66.292-12.653c-24.433-5.237-48.759-10.908-72.835-17.539
		c-24.734-6.812-49.186-14.604-73.343-23.285c-19.51-7.011-38.664-14.868-57.49-23.556c-25.089-11.579-49.169-24.929-71.615-41.065
		c-18.32-13.169-34.976-28.155-48.247-46.601c-9.93-13.803-16.72-28.951-19.629-45.759c-0.197-1.141-0.137-2.326-0.196-3.491
		c-0.005-6.7-0.009-13.4-0.014-20.101c0.715-8.673,3.317-16.877,6.688-24.796c5.574-13.093,13.642-24.606,22.974-35.315
		c17.218-19.757,38.025-35.076,60.185-48.645c18.107-11.088,37.019-20.654,56.368-29.468c26.719-12.171,54.284-21.979,82.096-31.193
		c8.156-2.702,16.414-5.094,24.625-7.629c1.29,2.114,2.234,4.355,2.49,6.845c-9.165,3.376-18.387,6.604-27.481,10.162
		c-14.353,5.616-28.58,11.517-42.5,18.182c-19.35,9.266-38.057,19.591-55.831,31.624c-14.248,9.646-27.439,20.525-39.078,33.195
		c-12.971,14.12-23.169,29.87-27.589,48.856c-4.009,17.221-2.097,33.895,4.52,50.161c7.307,17.961,19.49,32.354,33.356,45.48
		c13.82,13.081,29.31,23.932,45.568,33.749c28.219,17.04,58.157,30.367,88.98,41.911c30.882,11.566,62.424,20.952,94.316,29.175
		c22.734,5.861,45.648,11.047,68.691,15.537c19.319,3.764,38.749,7.017,58.206,10.001c13.086,2.007,26.169,4.095,39.369,5.406
		c12.187,1.21,24.279,3.41,36.471,4.534c8.422,0.776,16.836,1.683,25.272,2.353c9.581,0.761,19.133,1.878,28.707,2.739
		c5.291,0.476,10.618,0.642,15.911,0.91c7.8,0.395,15.596,0.966,23.389,1.42c17.763,1.033,35.539,1.531,53.312,2.221
		c12.483,0.484,24.949,0.539,37.422,0.602c21.826,0.11,43.661,0.319,65.477-0.169c12.468-0.279,24.946-0.519,37.412-0.966
		c11.948-0.429,23.894-1.103,35.817-1.983c10.434-0.77,20.882-1.292,31.312-2.037c12.558-0.896,25.068-2.456,37.605-3.655
		c8.422-0.805,16.875-1.314,25.28-2.263c9.209-1.039,18.357-2.636,27.572-3.607c8.408-0.886,16.781-1.968,25.132-3.253
		c9.651-1.485,19.316-2.883,28.952-4.459c10.938-1.789,21.869-3.636,32.77-5.637c11.384-2.089,22.767-4.189,34.04-6.856
		c15.766-3.729,31.585-7.234,47.343-10.998c16.096-3.845,31.886-8.803,47.756-13.464c24.49-7.193,48.419-16.002,71.99-25.735
		c22.876-9.447,45.011-20.443,66.05-33.55c0.131-0.082,0.202-0.262,0.301-0.396c9.155,6.865,18.593,13.251,29.012,18.118
		c9.321,4.354,19.142,7.201,28.956,10.103c-6.166,5.144-13.476,8.419-20.367,12.361c-20.774,11.885-42.512,21.801-64.689,30.704
		c-24.582,9.869-49.63,18.426-75.027,26.023c-19.498,5.832-39.066,11.327-58.85,16.09c-22.509,5.418-45.068,10.587-67.85,14.74
		c-15.945,2.907-31.829,6.208-47.846,8.641c-14.889,2.262-29.791,4.489-44.728,6.477c-14.936,1.989-29.888,3.845-44.85,5.596
		c-11.691,1.369-23.472,1.96-35.162,3.333c-13.842,1.626-27.758,2.275-41.619,3.629c-5.773,0.564-11.602,0.773-17.399,1.059
		c-9.96,0.491-19.925,1.031-29.89,1.458c-17.272,0.742-34.534,1.619-51.824,1.82c-6.664-0.002-13.328-0.005-19.992-0.007
		C747.028,525.071,723.993,525.061,700.957,525.051z"/>
	<path style="fill:#1C6295;" d="M1390.156,393.155c-9.814-2.902-19.635-5.749-28.956-10.103
		c-10.419-4.867-19.858-11.253-29.012-18.118c-7.158-7.172-14.432-14.203-20.371-22.517c-11.206-15.688-18.035-33.148-21.774-51.93
		c-2.349-11.8-3.197-23.795-2.661-35.734c1.711-38.083,15.66-70.66,44.708-96.129c2.613-2.291,5.776-3.894,8.087-6.551
		c5.698-3.576,11.396-7.152,17.095-10.728c5.888-1.786,11.193-4.953,16.979-7.035c13.663-4.915,27.644-8.058,42.111-9.46
		c10.647-1.032,21.282-1.247,31.913-0.695c21.421,1.113,42.087,5.58,61.376,15.301c32.262,16.26,53.761,41.658,64.27,76.256
		c3.683,12.127,5.674,24.561,6.176,37.229c0.002,6.373,0.004,12.746,0.006,19.119c-2.134,30.289-12.448,57.29-33.072,79.814
		c-13.661,14.919-30.311,25.764-49.145,33.17c-15.372,6.045-31.304,9.581-47.772,11.152c-11.641,1.111-23.259,1.084-34.873,0.551
		C1406.807,396.363,1398.465,394.739,1390.156,393.155z M1357.688,348.216c0.225,1.416,1.292,2.265,2.187,3.224
		c7.238,7.763,15.183,14.737,24.402,20.006c7.398,4.228,14.861,8.543,23.533,9.83c1.313,1.123,2.947,1.383,4.557,1.779
		c16.254,3.995,32.592,4.066,48.988,1.061c25.112-4.603,45.694-16.584,60.826-37.43c13.426-18.496,19.127-39.642,20.71-62.011
		c1.022-14.453,0.522-28.924-1.785-43.31c-2.783-17.357-7.809-33.938-16.202-49.426c-11.247-20.755-27.038-36.985-48.3-47.498
		c-11.416-5.645-23.625-8.482-36.341-9.767c-18.454-1.866-36.144,0.751-53.183,7.759c-4.703,1.934-9.539,3.91-13.432,7.437
		c-6.581,3.409-11.885,8.374-16.807,13.803c-4.005,3.331-7.082,7.463-10.032,11.697c-15.065,21.622-20.715,46.109-21.676,71.959
		c-0.446,12.001,0.716,23.909,2.714,35.757c3.248,19.253,9.928,37.173,20.569,53.547
		C1351.107,340.77,1353.697,345.078,1357.688,348.216z"/>
	<path style="fill:#1C6295;" d="M751.774,220.039c-66.362,0-132.149,0-198.425,0c-0.441,4.083-1.054,7.971-1.245,11.88
		c-0.538,10.989-0.906,22.015,0.009,32.976c2.358,28.257,9.568,54.964,26.836,78.097c16.907,22.651,39.481,36.399,67.331,40.805
		c28.169,4.456,54.511-1.655,79.123-15.718c5.45-3.114,10.775-6.447,16.253-9.736c2.516,2.359,3.892,5.156,5.462,7.95
		c-17.726,14.274-37.628,23.149-59.67,27.733c-16.15,3.358-32.436,3.85-48.702,2.721c-29.098-2.02-56.025-10.703-79.445-28.69
		c-20.716-15.91-34.518-36.622-42.243-61.475c-4.02-12.935-5.76-26.182-6.375-39.727c-1-22.006,2.682-43.136,11.46-63.159
		c17.131-39.077,46.229-64.66,87.736-75.694c14.797-3.934,29.884-5.095,45.034-3.772c29.933,2.613,55.459,14.448,74.776,37.999
		c10.967,13.37,17.69,28.789,20.359,45.919C750.634,211.911,751.145,215.689,751.774,220.039z M708.265,209.842
		c-0.202-8.285-1.995-15.883-4.323-23.313c-5.15-16.442-14.006-30.433-28.254-40.553c-13.248-9.409-28.064-13.046-44.25-12.223
		c-18.926,0.962-35.149,7.9-48.72,20.999c-11.499,11.1-18.837,24.758-23.779,39.813c-1.623,4.945-3.229,9.892-3.867,15.277
		C606.249,209.842,656.989,209.842,708.265,209.842z"/>
	<path style="fill:#1C6295;" d="M1004.664,358.224c2.561,2.546,3.829,5.24,5.627,8.039c-4.687,3.677-9.354,7.043-14.27,10.107
		c-15.595,9.722-32.632,15.497-50.642,18.571c-16.347,2.79-32.764,2.717-49.246,1.185c-19.093-1.775-37.19-6.878-54.189-15.688
		c-33.584-17.405-54.431-44.886-63.908-81.294c-4.457-17.122-5.401-34.606-3.781-52.038c3.034-32.647,15.476-61.408,38.659-84.938
		c19.23-19.518,42.605-31.512,69.627-36.193c21.298-3.69,42.441-3.314,63.021,3.929c34.879,12.275,57.519,35.962,66.453,72.21
		c1.396,5.665,1.899,11.451,2.736,17.153c-0.142,0.167-0.237,0.296-0.349,0.406c-0.118,0.116-0.241,0.286-0.382,0.309
		c-0.491,0.08-0.991,0.148-1.487,0.148c-65.155,0.045-130.31,0.084-195.466,0.134c-0.136,0-0.272,0.159-0.803,0.488
		c-0.388,4.135-0.985,8.551-1.182,12.985c-0.458,10.324-0.722,20.678,0.008,30.983c2.009,28.355,9.501,54.933,26.715,78.09
		c16.986,22.851,39.743,36.534,67.753,41.01c21.124,3.376,41.732,0.673,61.627-7.357c9.443-3.811,18.279-8.724,26.9-14.076
		C1000.196,361.078,1002.285,359.731,1004.664,358.224z M971.417,209.756c-0.646-11.251-3.246-21.685-7.473-31.678
		c-11.883-28.095-36.869-45.554-67.477-44.404c-25.003,0.939-44.685,11.475-59.506,31.3c-9.907,13.252-15.688,28.358-18.946,44.783
		C869.068,209.756,919.956,209.756,971.417,209.756z"/>
	<path style="fill:#1D6295;" d="M1265.257,367.557c0.638,2.694,1.125,4.749,1.661,7.015c-7.491,4.571-15.357,8.08-23.333,11.296
		c-13.898,5.604-28.29,9.556-43.104,11.842c-4.43,0.684-8.934,0.923-13.412,1.252c-8.634,0.635-17.299,0.699-25.91-0.01
		c-28.88-2.375-55.159-11.529-77.415-30.66c-23.577-20.267-36.798-46.188-41.896-76.627c-2.217-13.238-2.917-26.592-1.581-39.814
		c4.039-40.001,21.229-72.877,54.063-97.073c20.019-14.753,42.549-22.799,66.816-26.826c14.553-2.415,29.193-2.537,43.818-1.655
		c13.437,0.81,26.64,3.577,39.823,6.255c7.311,1.485,14.578,3.134,22.183,5.505c-4.045,15.239-3.41,30.622-2.592,46.391
		c-1.686,0.981-3.783,0.246-6.017,0.409c-1.582-6.377-1.361-12.741-2.723-19.337c-17.439-15.105-37.428-25.315-61.148-27.852
		c-16.141-1.727-31.951-0.815-47.202,4.687c-26.261,9.474-44.613,27.672-56.232,52.825c-6.393,13.84-10.074,28.414-11.338,43.628
		c-2.517,30.28,1.704,59.406,15.497,86.675c11.455,22.647,28.473,40.027,51.596,50.928c11.639,5.487,23.968,8.408,36.839,9.86
		c20.109,2.269,38.929-2.307,57.523-8.948C1249.124,374.486,1256.948,371.315,1265.257,367.557z"/>
	<path style="fill:#2EB7AE;" d="M1357.273,141.345c-5.698,3.576-11.396,7.152-17.095,10.728
		c-17.058-11.278-35.05-20.817-53.554-29.509c-29.751-13.975-60.589-24.989-91.915-34.752
		c-28.585-8.909-57.535-16.427-86.762-22.915c-7.89-1.752-15.926-2.878-23.72-5.237c0.312-2.689,2.004-2.784,3.958-2.405
		c11.85,2.295,23.731,4.437,35.54,6.927c20.056,4.229,40.083,8.607,59.897,13.884c18.054,4.808,36.101,9.641,53.925,15.269
		c23.522,7.427,46.854,15.409,69.686,24.744C1324.267,125.041,1341.108,132.483,1357.273,141.345z"/>
	<path style="fill:#41BAB1;" d="M289.332,85.035c-1.639-1.592-1.669-3.823-2.309-5.812c6.301-0.658,12.22-2.946,18.34-4.377
		c19.611-4.586,39.206-9.225,59.019-12.887c8.584-1.587,17.137-3.335,25.514-4.973c1.149,0.528,1.987,1.029,2.143,2.229
		c-2.245,2.386-5.503,2.027-8.225,2.533c-29.519,5.489-58.39,13.525-87.237,21.686C294.206,84.104,291.888,85.151,289.332,85.035z"
		/>
	<path style="fill:#1FB6AC;" d="M1373.647,149.868c8.977,5.662,18.086,11.127,26.9,17.031c14.815,9.923,28.643,21.113,40.863,34.136
		c11.086,11.815,20.493,24.835,27.025,39.785c6.311,14.444,8.876,29.581,7.38,45.191c-1.413,14.741-6.861,28.294-14.48,40.914
		c-9.74,16.133-22.901,29.268-36.993,41.565c-5.264,4.593-10.57,9.109-16.534,12.786c-8.672-1.287-16.135-5.601-23.533-9.83
		c-9.219-5.269-17.164-12.243-24.402-20.006c-0.895-0.96-1.961-1.808-2.187-3.224c1.842-2.415,4.465-3.95,6.77-5.812
		c15.518-12.528,28.897-26.897,38.829-44.309c6.667-11.688,10.571-24.278,11.503-37.646c0.637-9.142-1.043-18.132-3.532-26.957
		c-5.132-18.198-15.716-33.118-28.28-46.777c-7.889-8.577-16.771-16.105-26.138-23.044
		C1361.762,158.242,1367.066,153.277,1373.647,149.868z"/>
</g>
</svg>
