<?xml version="1.0" encoding="iso-8859-1"?>
<!-- Generator: Adobe Illustrator 27.0.0, SVG Export Plug-In . SVG Version: 6.00 Build 0)  -->
<svg version="1.1" id="Layer_1" xmlns="http://www.w3.org/2000/svg" xmlns:xlink="http://www.w3.org/1999/xlink" x="0px" y="0px"
	 viewBox="0 0 772.939 338" style="enable-background:new 0 0 772.939 338;" xml:space="preserve">
<g>
	<path style="fill:#863994;" d="M0,26c7.338-1.253,14.667-2.46,22.176-2.006c9.888,0.599,18.729,3.785,26.399,10.117
		c6.907,5.703,11.662,13.019,16.058,20.708c12.657,22.136,25.497,44.167,38.258,66.244c0.163,0.282,0.222,0.625,0.329,0.94
		c0.574,1.736,1.916,2.349,3.568,2.937c3.331,1.184,6.787,0.779,10.164,1.247c-0.091,3.682-2.64,6.337-4.276,9.239
		c-8.077,14.332-16.523,28.456-24.839,42.653c-6.604-10.116-12.278-20.779-18.333-31.217c-16.954-29.226-33.819-58.504-50.71-87.766
		c-5.63-9.753-11.219-19.53-16.869-29.272C1.359,28.847,1.081,27.638,0,27C0,26.667,0,26.333,0,26z"/>
	<path style="fill:#854291;" d="M384,338c-2.466-2.816-5.403-5.424-4.454-9.72c1.602-1.416,3.148-1.128,4.631-0.449
		c1.326,1.193,0.125,3.147,2.039,4.406c6.089,2.597,9.478,0.427,9.682-6.772c-1.065-0.614-1.873,0.335-2.639,0.658
		c-3.642,1.539-7.044,0.909-9.746-1.58c-2.811-2.588-3.663-6.052-2.704-9.969c0.642-2.624,1.413-5.061,3.242-7.123
		c4.599-5.185,9.378-5.779,15.365-1.832c1.884-2.281,1.884-2.281,5.184-1.596c1.182,2.519-0.368,4.836-0.645,7.236
		c-0.589,5.089-1.262,10.178-2.184,15.215c-0.959,5.243-3.485,9.482-8.769,11.526C390,338,387,338,384,338z M385.958,316.331
		c0.049,3.695,2.014,5.827,5.257,5.704c3.992-0.151,7.645-4.583,7.435-9.021c-0.144-3.04-2.378-5.098-5.499-5.067
		C389.121,307.987,385.897,311.745,385.958,316.331z"/>
	<path style="fill:#2FABE1;" d="M85,0c0.322,0.941,1.24,0.798,1.934,1.064c1.436,3.461,1.265,7.032,0.82,11.146
		c-0.785,0.66-1.811,1.501-2.813,2.369c-4.381,3.797-10.557,2.919-13.638-1.919c-0.508-0.798,0.089-2.078-1.146-2.528
		c0.93-4.475,3.747-7.338,7.85-9.027C78.734,0.807,79.638,0.931,80,0C81.667,0,83.333,0,85,0z"/>
	<path style="fill:#9B609F;" d="M112.145,10.064C113.215,5.054,117.12,2.538,121,0c2.333,0,4.667,0,7,0
		c0.063,0.282,0.081,0.567,0.054,0.855c-0.07,0.853,0.201,1.558,0.646,2.315c2.476,4.204,1.301,8.637-2.962,11.497
		c-3.749,2.516-8.708,1.663-11.432-2.067C113.642,11.69,113.441,10.428,112.145,10.064z M121.657,2.771
		c-2.384,1.062-3.995,2.511-4.737,4.741c2.777,4.159,3.128,4.269,7.522,2.479C125.288,5.719,125.288,5.719,121.657,2.771z"/>
	<path style="fill:#111010;" d="M437.907,138.342c13.838,19.093,27.552,38.016,41.614,57.419c-7.23,0-13.684,0-20.711,0
		c-12.784-18.345-25.782-36.996-38.743-55.594c-2.141-0.337-4.102-0.325-6.563,0.027c0,18.452,0,36.84,0,55.521
		c-5.9,0.376-11.301,0.283-16.988,0.055c0-44.27,0-88.313,0-132.778c6.624,0,13.081-0.053,19.537,0.014
		c6.814,0.071,13.599-0.018,20.422,0.897c24.218,3.25,34.04,23.19,32.654,40.393c-1.277,15.86-11.998,29.569-27.604,33.221
		C440.422,137.777,439.315,138.022,437.907,138.342z M413.585,78.167c0,16.03,0,31.576,0,47.507
		c8.087,0.154,15.824-0.059,23.356-2.319c11.204-3.362,16.395-10.434,16.299-21.966c-0.09-10.915-5.652-18.172-16.713-21.136
		C429.134,78.272,421.539,77.573,413.585,78.167z"/>
	<path style="fill:#111010;" d="M336.737,138.292c13.972,19.277,27.609,38.091,41.597,57.392c-7.236,0-13.795,0-20.727,0
		c-12.769-18.335-25.678-36.87-38.637-55.477c-2.143-0.374-4.239-0.553-6.626,0.259c0,18.297,0,36.588,0,55.163
		c-5.693,0.595-11.094,0.219-16.803,0.273c0-44.346,0-88.396,0-132.358c0.8-0.729,1.664-0.542,2.464-0.541
		c9.831,0.009,19.664-0.109,29.491,0.112c7.178,0.161,14.236,1.419,20.72,4.675c12.57,6.314,18.755,16.877,19.772,30.665
		c0.497,6.741-0.519,13.268-3.462,19.411C359.012,129.372,349.724,135.876,336.737,138.292z M312.59,78.156
		c0,16.015,0,31.581,0,47.551c7.93,0.022,15.526-0.098,22.918-2.253c11.854-3.456,16.776-10.453,16.563-23.265
		c-0.166-10.018-6.489-17.455-17.427-20.113C327.518,78.345,320.258,77.582,312.59,78.156z"/>
	<path style="fill:#111010;" d="M679.548,162.985c-5.012,10.978-9.953,21.797-14.956,32.756c-5.85,0-11.643,0-17.446,0
		c0.555-4.11,51.318-116.259,62.354-137.801c2.246,2.43,61.883,131.898,63.439,137.804c-5.839,0-11.631,0-17.745,0
		c-4.973-10.858-9.989-21.809-15.004-32.758C719.824,162.985,699.715,162.985,679.548,162.985z M732.986,146.935
		c-7.7-17.476-15.191-34.476-23.127-52.488c-7.979,18.162-15.444,35.154-23.058,52.488
		C702.391,146.935,717.345,146.935,732.986,146.935z"/>
	<path style="fill:#111010;" d="M197.56,63.203c23.884,0,47.48,0,71.261,0c0,4.985,0,9.765,0,15.064c-17.881,0-35.766,0-53.496,0
		c-1.17,4.136-1.508,24.92-0.69,36.798c8.738,0,17.526,0,26.315,0c8.782,0,17.564,0,26.554,0c0,5.396,0,10.297,0,15.654
		c-17.674,0-35.092,0-52.814,0c0,16.531,0,32.61,0,49.094c17.794,0,35.708,0,53.969,0c0,5.443,0,10.501,0,15.843
		c-23.507,0-47.093,0-70.702,0C196.992,192.079,196.59,74.906,197.56,63.203z"/>
	<path style="fill:#111010;" d="M637.501,69.221c0,6.439,0,12.51,0,19.351c-13.035-10.461-27.386-14.604-43.255-12.227
		c-13.016,1.95-23.6,8.538-31.867,18.757c-16.265,20.104-15.631,50.517,0.949,69.902c14.314,16.735,43.922,28.03,74.097,4.899
		c0,6.447,0,12.649,0,18.964c-22.032,14.821-59.661,14.226-84.385-10.753c-25.104-25.364-26.211-65.422-3.858-92.61
		C572.454,57.198,613.256,53.427,637.501,69.221z"/>
	<path style="fill:#2FABE1;" d="M119.98,95.958c4.628-9.697,10.514-18.689,15.811-28.009c4.555-8.016,8.688-16.325,14.22-23.736
		c6.45-8.64,14.197-15.799,25.089-18.317c8.848-2.045,17.839-3.048,26.751-0.366c1.607,0.484,3.338-0.178,4.772,0.803
		c0.963,2.123-0.478,3.553-1.371,5.031c-6.694,11.09-12.773,22.534-19.537,33.591c-5.786,9.459-10.712,19.442-16.429,28.946
		c-3.29,5.469-6.156,11.253-10.377,16.138c-3.36,1.831-5.181,5.596-8.852,7.035c-0.481-1.316-1.441-2.335-2.627-2.858
		c-5.279-2.329-9.853-5.872-14.961-8.502c-3.781-1.947-7.267-4.463-11.023-6.465C119.858,98.403,120.05,97.234,119.98,95.958z"/>
	<path style="fill:#111010;" d="M496.309,63.16c5.413,0,10.688,0,16.296,0c0,44.006,0,88.015,0,132.4c-5.198,0-10.585,0-16.296,0
		C496.309,151.712,496.309,107.697,496.309,63.16z"/>
	<path style="fill:#61276D;" d="M98.794,197.04c-2.373-3.121-4.273-6.515-5.834-10.104c0.535-0.362,1.282-0.601,1.572-1.104
		c5.27-9.12,10.457-18.289,15.722-27.412c4.278-7.413,8.783-14.699,12.892-22.203c1.78-3.252,4.515-6.108,4.851-10.074
		c1.312-0.485,3.046,0.485,4.021-1.165c0.653-0.051,1.306-0.103,1.959-0.154c0.861,0.195,1.639,0.17,2.068-0.78
		c2.577,0.225,4.468-1.905,6.945-2.023c-1.257,7.049-6.073,12.348-9.321,18.375c-6.716,12.462-14.141,24.542-21.288,36.771
		c-3.407,5.83-6.913,11.603-10.217,17.49C101.342,196.121,100.534,197.108,98.794,197.04z"/>
	<path style="fill:#1D1C1C;" d="M327.439,258.722c-2.8,0-4.731,0-6.888,0c-1.338-7.399-2.645-14.625-3.953-21.851
		c-0.291-0.067-0.582-0.135-0.872-0.202c-3.455,7.743-6.909,15.486-10.695,23.971c-4.526-8.306-7.279-16.691-11.607-25.157
		c-1.504,8.269-2.87,15.781-4.225,23.235c-2.43,0.306-4.386,0.355-6.835-0.049c2.833-14.521,5.637-28.897,8.442-43.273
		c0.267-0.027,0.534-0.053,0.802-0.08c4.256,9.689,8.512,19.378,13.257,30.181c4.707-10.67,8.999-20.398,13.291-30.126
		c0.258-0.002,0.516-0.004,0.774-0.007C321.74,229.679,324.549,243.993,327.439,258.722z"/>
	<path style="fill:#52235C;" d="M98.794,197.04c1.739,0.068,2.548-0.918,3.37-2.382c3.304-5.887,6.811-11.66,10.217-17.49
		c7.146-12.229,14.571-24.31,21.288-36.771c3.248-6.027,8.063-11.326,9.321-18.375c2.145-1.95,5.312-2.439,7.067-4.947
		c3.671-1.439,5.493-5.204,8.852-7.035c0.417,1.473-0.49,2.546-1.142,3.677c-17.295,29.972-34.594,59.941-51.923,89.893
		c-0.462,0.799-0.652,1.917-2.134,2.291C101.873,203.131,100.033,200.266,98.794,197.04z"/>
	<path style="fill:#1D1C1C;" d="M158.158,258.845c-2.584,0-4.39,0-6.168,0c-1-3.699-1.31-29.504-0.487-40.523
		c1.976-0.649,4.039-0.255,6.484-0.314c0,5.248,0,10.178,0,15.344c5.782,0,11.18,0,16.977,0c0-4.99,0-9.919,0-15.106
		c2.309,0,4.241,0,6.499,0c0,13.3,0,26.678,0,40.343c-1.872,0.703-3.829,0.141-6.204,0.503c0-6.406,0-12.474,0-18.802
		c-5.856,0-11.26,0-17.102,0C158.158,246.288,158.158,252.353,158.158,258.845z"/>
	<path style="fill:#111010;" d="M495.62,218.173c2.504-0.198,4.462-0.371,6.811,0.168c-0.246,9.46,0.461,18.917-0.478,28.346
		c-0.79,7.93-7.426,13.397-15.478,13.08c-8.111-0.32-14.263-6.195-14.432-14.211c-0.19-8.965-0.044-17.938-0.044-26.961
		c1.949-1.258,3.939-0.175,5.724-0.678c1.125,1.803,0.588,3.493,0.637,5.093c0.232,7.47-0.453,14.962,0.48,22.413
		c0.651,5.196,3.271,7.721,7.92,7.801c4.973,0.086,7.567-2.332,8.469-7.791c0.738-4.466,0.294-8.957,0.373-13.436
		C495.681,227.524,495.62,223.048,495.62,218.173z"/>
	<path style="fill:#1D1C1C;" d="M252.794,243.239c0,5.054,0,10.108,0,15.33c-2.297,0.59-4.239,0.331-6.492,0.327
		c0-13.492,0-26.868,0-40.912c4.355,0.078,8.954-0.498,13.474,0.377c5.024,0.972,8.174,4.257,9.14,9.307
		c1.024,5.352-1.107,9.866-5.716,12.711c-0.697,0.43-1.428,0.806-2.471,1.39c3.911,5.525,7.783,10.997,12.007,16.963
		c-3.032,0-5.293,0-7.997,0c-3.594-5.074-7.376-10.412-11.157-15.75C253.318,243.068,253.056,243.154,252.794,243.239z
		 M253.026,236.194c3.531-0.066,6.881,0.4,8.987-3.063c1.259-2.07,1.185-4.271-0.262-6.072c-2.257-2.81-5.355-3.388-8.725-2.767
		C253.026,228.371,253.026,232.117,253.026,236.194z"/>
	<path style="fill:#772E84;" d="M127.998,126.143c-0.336,3.965-3.071,6.822-4.851,10.074c-4.108,7.504-8.614,14.79-12.892,22.203
		c-5.265,9.123-10.452,18.292-15.722,27.412c-0.291,0.503-1.038,0.742-1.572,1.104c-2.041-2.76-4.104-5.506-5.124-8.857
		c8.316-14.197,16.762-28.321,24.839-42.653c1.636-2.903,4.185-5.557,4.276-9.239C120.634,126.172,124.316,126.157,127.998,126.143z
		"/>
	<path style="fill:#1D1C1C;" d="M643.104,249.121c-5.658,0-10.967,0-16.605,0c-1.5,3.118-3.055,6.35-4.651,9.669
		c-2.232,0-4.356,0-7.171,0c6.666-14.574,13.161-28.774,20.077-43.895c6.852,14.949,13.359,29.145,19.972,43.573
		c-2.612,0.742-4.702,0.487-7.067,0.325C646.195,255.685,644.728,252.569,643.104,249.121z M640.342,242.871
		c-1.983-4.354-3.201-8.402-5.825-12.189c-1.825,4.197-3.509,8.071-5.3,12.189C633.096,242.871,636.368,242.871,640.342,242.871z"/>
	<path style="fill:#1D1C1C;" d="M206.039,249.149c-1.493,3.174-2.962,6.297-4.459,9.48c-2.178,0.535-4.296,0.369-7.205,0.072
		c6.622-14.498,13.092-28.664,20.01-43.81c6.921,15.1,13.413,29.264,19.984,43.601c-2.53,0.776-4.654,0.28-6.935,0.511
		c-1.611-3.381-3.152-6.615-4.695-9.853C217.099,249.149,211.638,249.149,206.039,249.149z M219.999,242.833
		c-1.848-4.114-3.577-7.964-5.612-12.494c-2.057,4.653-4.038,8.318-5.303,12.494C212.816,242.833,216.232,242.833,219.999,242.833z"
		/>
	<path style="fill:#1D1C1C;" d="M376.697,258.54c-2.602,0.613-4.584,0.414-6.728,0.282c-2.344-2.754-2.864-6.562-4.977-9.645
		c-5.482,0-10.938,0-16.637,0c-1.435,3.075-2.889,6.19-4.402,9.433c-2.283,0.563-4.524,0.473-7.236-0.004
		c6.608-14.432,13.104-28.621,20.02-43.726C363.649,229.996,370.138,244.192,376.697,258.54z M356.555,230.603
		c-1.874,4.265-3.567,8.12-5.28,12.02c3.672,0,7.154,0,11.018,0C360.216,238.52,359.082,234.529,356.555,230.603z"/>
	<path style="fill:#1D1C1C;" d="M440.914,223.821c0,3.489,0,6.126,0,9.053c4.983,0.809,9.956-0.028,14.875,0.51
		c0.996,1.964,0.709,3.89,0.211,6.295c-4.903,0-9.801,0-14.948,0c0,4.369,0,8.276,0,12.532c5.153,1.088,10.481-0.31,15.66,0.776
		c0.348,1.934,0.316,3.705,0.044,5.716c-7.594,0-14.979,0-22.571,0c0-13.567,0-26.949,0-40.496c7.599,0,14.991,0,22.572,0
		c0,1.833,0,3.449,0,5.615C451.696,223.821,446.47,223.821,440.914,223.821z"/>
	<path style="fill:#1D1C1C;" d="M701.565,246.116c1.207,5.195,3.235,7.16,7.067,7.07c3.007-0.071,4.666-1.367,5.802-4.535
		c0.963-2.685,0.425-4.744-1.977-6.527c-1.182-0.878-2.587-1.467-3.924-2.119c-1.779-0.868-3.62-1.612-5.382-2.511
		c-4.429-2.261-6.798-5.744-6.131-10.873c0.634-4.873,3.72-7.542,8.186-8.957c6.293-1.994,11.767,0.286,14.957,6.436
		c-1.076,1.459-2.912,1.924-4.175,2.909c-1.632-0.058-1.839-1.516-2.734-2.178c-2.234-1.653-4.641-1.781-7.021-0.6
		c-3.132,1.553-3.423,5.329-0.432,7.202c2.216,1.387,4.798,2.188,7.204,3.277c3.916,1.773,6.832,4.262,8.178,8.7
		c1.504,4.959-1.043,12.704-7.887,15.411c-6.48,2.563-13.408,0.039-16.615-6.009c-0.846-1.596-1.703-3.217-1.513-5.399
		C697.091,246.698,699.012,245.808,701.565,246.116z"/>
	<path style="fill:#1D1C1C;" d="M604.728,249.104c0,2.529,0,4.937,0,7.307c-10.779,6.985-22.285,1.961-27.426-4.238
		c-6.797-8.195-6.599-19.772,0.335-27.852c5.766-6.72,18.492-10.388,27.174-3.978c0,2.208,0,4.518,0,7.239
		c-3.773-2.24-7.354-4.504-11.82-4.196c-4.61,0.318-8.252,2.294-10.967,5.995c-4.372,5.96-3.968,13.804,0.964,19.243
		C588.351,254.536,594.906,254.721,604.728,249.104z"/>
	<path style="fill:#111010;" d="M121.301,242.804c0,5.604,0,10.707,0,15.817c-2.336,0.434-4.291,0.448-6.468,0.015
		c0-13.442,0-26.844,0-40.493c4.73-0.074,9.3-0.54,13.892,0.497c7.343,1.659,9.265,6.333,9.198,11.666
		c-0.076,6.104-3.925,10.526-10.119,11.65C125.878,242.307,123.917,242.47,121.301,242.804z M121.352,224.51
		c0.079,3.807-0.529,7.668,0.391,11.466c7.098,0.106,10.15-1.924,9.838-6.345C131.298,225.62,127.562,223.675,121.352,224.51z"/>
	<path style="fill:#1D1C1C;" d="M418.786,220.218c0,2.217,0,4.499,0,6.853c-11.387-5.162-17.569-4.501-22.725,2.341
		c-4.138,5.491-3.829,13.453,0.734,18.888c5.186,6.177,11.484,6.469,22.021,0.944c0,2.375,0,4.68,0,6.969
		c-8.497,6.406-20.751,3.41-26.929-3.521c-6.709-7.525-7.154-19.685-0.787-27.438C398.222,216.582,409.444,214.506,418.786,220.218z
		"/>
	<path style="fill:#1299D0;" d="M150.056,117.074c-1.755,2.508-4.922,2.996-7.067,4.947c-2.477,0.118-4.368,2.248-6.945,2.023
		c-0.823-0.095-1.629-0.144-2.068,0.78c-0.653,0.051-1.306,0.103-1.959,0.154c0.192-2.412-1.844-2.822-3.345-3.675
		c-4.933-2.804-9.87-5.602-14.837-8.344c-1.303-0.72-1.92-1.704-1.85-3.16c2.249-4.854,5.073-9.376,7.995-13.842
		c0.07,1.276-0.122,2.445,1.466,3.292c3.756,2.002,7.242,4.518,11.023,6.465c5.108,2.63,9.682,6.173,14.961,8.502
		C148.616,114.739,149.575,115.758,150.056,117.074z"/>
	<path style="fill:#854291;" d="M187.475,290.755c4.901-0.873,9.655-0.339,14.092,1.336c4,1.51,5.394,6.139,3.903,10.576
		c-1.329,3.955-2.442,5.131-8.516,8.908c1.923,4.824,5.482,8.891,7.221,13.939c-1.96,0.833-3.757,0.46-5.877,0.364
		c-2.464-4.528-4.974-9.142-7.798-14.333c-2.317,4.753-1.704,9.513-3.089,13.582c-0.714,0.928-1.57,0.884-2.393,0.878
		c-0.809-0.005-1.618-0.073-3.058-0.144C183.806,314.114,185.611,302.62,187.475,290.755z M190.597,306.6
		c2.658,1.039,4.824-0.112,6.899-0.954c2.281-0.926,3.779-4.091,3.205-6.183c-0.656-2.389-2.436-3.436-4.813-3.523
		c-1.13-0.041-2.298-0.326-3.425,0.272C191.323,299.483,191.012,302.919,190.597,306.6z"/>
	<path style="fill:#1D1C1C;" d="M524.467,223.914c-3.584,0-6.341,0-9.244,0c0-1.988,0-3.604,0-5.534
		c3.946-0.86,8.067-0.268,12.141-0.376c4.143-0.11,8.291-0.024,12.462-0.024c1.006,1.867,0.488,3.649,0.469,5.84
		c-2.988,0-5.881,0-9.209,0c0,11.788,0,23.156,0,34.664c-2.306,0.702-4.243,0.465-6.619,0.289
		C524.467,247.356,524.467,235.973,524.467,223.914z"/>
	<path style="fill:#854291;" d="M519.218,301.79c2.078,1.898,4.55,2.494,6.768,3.577c7.989,3.902,6.851,11.288,3.451,15.786
		c-2.274,3.009-5.252,5.083-9.036,5.675c-6.424,1.004-10.973-3.029-11.313-9.863c0.347-1.035,1.285-0.913,2.047-1.129
		c0.776-0.219,1.472-0.801,2.687-0.393c1.617,1.273,0.308,4.659,3.095,5.509c1.621,0.494,3.303,0.576,4.922,0.077
		c3.185-0.982,4.407-3.724,3.902-8.595c-1.454-1.888-3.716-2.57-5.791-3.571c-5.32-2.568-7.334-5.297-6.89-9.232
		c0.488-4.33,3.811-7.913,8.61-9.286c5.364-1.534,9.146,0.076,12.016,5.113c-0.715,1.513-2.279,1.784-3.902,2.664
		c-2.764-3.054-5.958-4.529-9.632-1.118C518.745,298.313,518.58,299.82,519.218,301.79z"/>
	<path style="fill:#854291;" d="M435.086,314.485c-0.903-2.366-2.313-3.672-4.205-4.54c-1.506-0.69-2.97-1.471-4.476-2.162
		c-6.523-2.993-5.926-10.102-1.983-14.001c5.779-5.714,13.552-5.076,17.579,1.668c-0.686,1.704-2.251,2.126-3.67,2.52
		c-1.493-0.217-1.996-1.43-2.858-2.156c-2.593-2.182-7.491,0.477-8.301,2.998c-0.598,1.86,0.373,3.274,1.958,4.121
		c1.744,0.931,3.62,1.612,5.412,2.457c4.274,2.016,5.987,5.303,5.521,10.079c-0.687,7.05-8.706,13.003-15.455,11.19
		c-4.761-1.279-6.835-4.101-7.269-9.996c1.364-0.898,2.984-1.129,4.926-1.62c0.879,3.088,1.37,6.589,5.895,6.302
		C432.532,321.07,433.976,318.145,435.086,314.485z"/>
	<path style="fill:#854291;" d="M448.32,317.154c-0.606,2.993-1.158,5.72-1.697,8.379c-1.598,0.842-3.003,0.328-4.948,0.352
		c1.569-13.775,4.078-26.978,6.074-39.946c2.096-0.87,3.506-0.779,5.054,0.233c-0.459,7.565-2.823,15.027-3.024,23.165
		c4.716-1.901,7.043-8.035,13.329-5.37c-2.249,4.016-6.758,5.675-9.613,9.389c2.526,4.059,5.022,8.068,7.623,12.246
		c-2.36,0.613-4.313,0.468-6.139,0.247C452.172,323.346,451.657,319.248,448.32,317.154z"/>
	<path style="fill:#1D1C1C;" d="M672.925,252.611c4.162,0,7.789,0,11.621,0c0.638,2.113,0.408,3.99,0.23,6.106
		c-6.172,0-12.076,0-18.272,0c0-13.52,0-26.889,0-40.361c2.007-0.758,3.956-0.162,6.421-0.448
		C672.925,229.594,672.925,240.976,672.925,252.611z"/>
	<path style="fill:#6B3672;" d="M106.07,37.129c7.385,1.186,11.294,6.373,10.916,13.95c-0.275,5.53-6.032,11.772-12.493,11.775
		c-10.311,0.005-16.184-8.18-12.488-17.969c-0.525,3.747,2.695,4.952,4.511,7.021c2.517,0.138,4.817,0.348,6.998-0.103
		C110.093,45.869,110.486,43.536,106.07,37.129z"/>
	<path style="fill:#6B3672;" d="M112.145,10.064c1.296,0.363,1.497,1.625,2.161,2.535c2.725,3.73,7.683,4.583,11.432,2.067
		c4.262-2.86,5.438-7.293,2.962-11.497c-0.446-0.757-0.716-1.462-0.646-2.315c7.165,1.654,10.336,6.051,9.9,13.729
		c-0.356,6.263-5.184,11.256-11.743,12.142c-5.554,0.751-12.077-3.584-13.83-9.234C111.623,15.05,112.068,12.546,112.145,10.064z"/>
	<path style="fill:#2780AA;" d="M70.157,10.133c1.236,0.45,0.638,1.729,1.146,2.528c3.082,4.838,9.257,5.716,13.638,1.919
		c1.002-0.868,2.028-1.709,2.813-2.369c0.445-4.113,0.616-7.684-0.82-11.146c6.976,2.361,9.976,7.344,8.978,14.918
		c-0.77,5.85-6.615,10.778-12.884,10.864c-6.64,0.091-11.677-4.325-13.12-11.097C69.482,13.751,70.076,11.999,70.157,10.133z"/>
	<path style="fill:#854291;" d="M657.013,315.959c-5.614,0-10.712,0-15.742,0c-1.027,2.853-0.015,4.711,2.132,5.616
		c3.763,1.586,6.253-0.799,8.478-3.376c1.842-0.222,2.669,1.182,3.804,1.898c-0.083,0.494-0.046,0.845-0.195,1.076
		c-2.462,3.788-6.171,5.447-10.486,5.664c-4.959,0.25-8.22-2.293-9.527-7.009c-2.23-8.048,4.577-16.935,12.864-16.793
		c5.456,0.093,8.533,3.169,8.668,8.687C657.04,313.013,657.013,314.305,657.013,315.959z M652.007,311.699
		c-0.549-2.357-1.639-3.699-4.023-3.814c-2.765-0.133-4.644,1.054-6.215,3.79C645.406,312.153,648.589,312.14,652.007,311.699z"/>
	<path style="fill:#854291;" d="M306.992,316.07c-5.764,0-10.868,0-15.908,0c-0.757,2.858,0.223,4.709,2.455,5.595
		c3.847,1.527,6.092-1.402,8.458-3.513c1.805,0.035,2.745,1.206,3.931,2.336c-2.885,4.154-6.637,6.501-11.676,6.367
		c-4.544-0.121-7.486-2.489-8.731-6.748c-2.349-8.039,4.269-17.079,12.496-17.071c5.746,0.006,8.857,3.082,8.972,8.883
		C307.012,313.059,306.992,314.201,306.992,316.07z M301.999,311.699c-0.622-2.321-1.668-3.719-4.066-3.815
		c-2.759-0.111-4.659,1.034-6.142,3.812C295.391,312.14,298.574,312.146,301.999,311.699z"/>
	<path style="fill:#854291;" d="M587.924,315.915c-5.778,0-11.052,0-16.481,0c-0.187,2.911,0.81,4.932,3.118,5.82
		c3.679,1.417,5.81-1.417,8.107-3.548c1.63,0.078,2.839,0.849,3.861,1.968c-0.047,0.32,0.005,0.673-0.144,0.878
		c-2.836,3.878-6.656,5.892-11.474,5.831c-3.433-0.043-6.222-1.6-7.697-4.635c-2.507-5.159-1.199-10.084,1.98-14.498
		c2.903-4.031,7.151-5.29,11.908-4.563c3.754,0.574,6.36,3.6,6.797,7.549C588.061,312.192,587.924,313.7,587.924,315.915z
		 M582.659,311.838c-1.517-3.66-1.761-3.924-4.206-3.944c-2.64-0.022-4.662,0.875-5.486,3.944
		C576.391,311.838,579.505,311.838,582.659,311.838z"/>
	<path style="fill:#854291;" d="M226.993,316.111c-5.569,0-10.685,0-15.803,0c-0.456,2.827,0.592,4.665,2.774,5.528
		c3.827,1.512,6.16-1.263,8.593-3.529c1.488,0.43,2.927,0.787,3.644,2.522c-2.049,3.765-5.553,5.526-9.588,6.178
		c-5.891,0.951-10.567-2.819-10.868-8.767c-0.405-8.005,4.513-13.325,9.001-14.466c3.722-0.947,7.273-1.069,10.21,1.858
		C227.832,308.298,228.19,311.749,226.993,316.111z M221.951,311.852c0.217-3.083-1.411-3.866-3.653-3.966
		c-2.864-0.128-4.809,1.088-5.934,3.966C215.677,311.852,218.63,311.852,221.951,311.852z"/>
	<path style="fill:#1D1C1C;" d="M558.482,258.722c-2.243,0.278-4.044,0.407-6.133-0.087c0-13.373,0-26.764,0-40.406
		c1.957,0,3.888,0,6.133,0C558.482,231.594,558.482,244.985,558.482,258.722z"/>
	<path style="fill:#854291;" d="M313.806,325.699c-1.636,0.447-2.925,0.414-4.791-0.043c0.792-7.235,2.08-14.431,3.515-22.285
		c4.407,1.036,8.621-0.611,12.916-0.207c3.008,0.283,5.536,3.446,5.09,6.969c-0.657,5.185-1.012,10.473-2.62,15.444
		c-1.617,0.626-3.035,0.593-4.759,0.003c-0.441-5.66,2.941-11.122,1.502-16.762c-5.367-1.456-7.76,0.014-8.661,5.002
		C315.275,317.824,315.196,321.968,313.806,325.699z"/>
	<path style="fill:#854291;" d="M254.933,325.575c-0.36-5.955,2.36-11.394,0.997-16.988c-5.504-0.985-6.88-0.258-8.005,4.61
		c-0.927,4.01-1.547,8.092-2.327,12.273c-1.453,0.951-3.059,0.575-5.166,0.235c1.131-7.297,2.251-14.521,3.295-21.257
		c2.581-1.814,4.303-0.932,5.867,0.227c1.159-0.526,2.171-1.18,3.277-1.455c5.451-1.357,9.256,1.582,9.042,7.254
		c-0.193,5.097-1.271,10.104-2.286,15.074C258.046,326.214,256.638,326.167,254.933,325.575z"/>
	<path style="fill:#854291;" d="M492.946,325.696c-1.878,0.391-3.163,0.491-4.745-0.06c-0.945-5.718,3.023-11.355,1.227-17.098
		c-5.523-0.896-7.584,0.416-8.461,5.168c-0.718,3.893-1.338,7.805-1.987,11.622c-1.479,1.066-2.942,0.682-4.974,0.428
		c0.488-7.361,2.003-14.537,3.18-21.304c2.429-2.543,4.542,0.53,6.557-0.335c2.055-0.882,4.109-1.317,6.284-1.025
		c3.091,0.414,4.823,2.453,4.982,5.785C495.282,314.555,493.951,320.023,492.946,325.696z"/>
	<path style="fill:#854291;" d="M605.635,308.704c-5.53-1.177-7.711,0.145-8.663,4.834c-0.815,4.016-0.976,8.161-2.339,12.186
		c-1.47,0.529-2.871,0.207-4.39,0.163c-0.749-4.015,0.606-7.548,1.173-11.042c0.576-3.548,0.323-7.309,2.329-10.927
		c-0.101,0.068,0.212-0.313,0.433-0.266c3.623,0.772,7.127-0.302,10.687-0.529c3.986-0.253,5.989,2.025,6.151,6.078
		c0.176,4.407-1.097,12.76-2.531,16.533c-1.255,0.497-2.557,0.289-4.13,0.088C603.118,320.04,607.033,314.397,605.635,308.704z"/>
	<path style="fill:#854291;" d="M361.66,325.594c-1.727,0.531-3.14,0.685-4.816-0.195c0.304-7.194,1.973-14.22,3.096-21.158
		c2.295-1.382,4.065-1.116,5.498,0.473c1.366-0.567,2.543-1.267,3.813-1.547c5.239-1.154,8.659,1.695,8.717,7.109
		c0.055,5.169-1.585,10.073-2.164,15.014c-1.484,1.22-2.958,0.475-4.03,0.627c-0.851-0.482-0.926-0.984-0.866-1.468
		c0.485-3.936,0.82-7.902,1.582-11.785c0.322-1.639,0.187-2.895-0.734-4.189c-5.515-0.931-6.688-0.246-7.887,5.157
		C363.013,317.488,362.424,321.402,361.66,325.594z"/>
	<path style="fill:#2780AA;" d="M111.986,109.8c-0.07,1.456,0.547,2.44,1.85,3.16c4.967,2.742,9.904,5.54,14.837,8.344
		c1.501,0.853,3.537,1.263,3.345,3.675c-0.975,1.65-2.708,0.68-4.021,1.165c-3.682,0.014-7.364,0.028-11.046,0.043
		c-3.377-0.468-6.833-0.062-10.164-1.247c-1.652-0.587-2.994-1.201-3.568-2.937c1.228,0.242,1.581-0.636,2.16-1.471
		C107.779,117.072,109.212,113.022,111.986,109.8z"/>
	<path style="fill:#854291;" d="M631.815,319.68c-0.393,1.877-0.786,3.753-1.158,5.534c-2.523,1.458-5.134,2.134-7.761,1.608
		c-7.549-1.511-10.191-6.222-8.591-13.515c1.805-8.229,11.44-12.383,19.322-8.692c0.766,2,0.046,3.829-0.812,5.696
		c-0.789,0.598-1.161-0.27-1.493-0.609c-4.234-4.315-11.26-0.337-12.229,6.194c-0.53,3.567,3.259,6.781,6.777,5.855
		c1.873-0.493,3.729-1.212,5.112-2.865C631.259,319.151,631.537,319.415,631.815,319.68z"/>
	<path style="fill:#854291;" d="M551.776,319.412c0.416,1.835,0.303,3.616-0.328,5.566c-3.688,2.446-7.67,2.583-11.653,0.731
		c-5.137-2.389-6.703-8.574-3.886-14.554c3.531-7.494,11.685-10.202,18.792-6.025c-0.337,1.762-0.691,3.616-1.061,5.554
		c-5.504-3.458-8.621-3.437-11.65-0.044c-2.198,2.462-2.765,6.546-1.214,8.737C543.048,322.584,545.748,322.599,551.776,319.412z"/>
	<path style="fill:#854291;" d="M263.68,304.308c2.276-1.136,3.835-1.356,5.438-0.385c2.025,3.388,1.874,7.606,4.265,11.465
		c2.641-4.149,5.07-7.965,7.346-11.54c1.993-0.743,3.545-0.794,5.511,0.627c-4.802,7.453-9.571,14.852-14.856,23.055
		C268.66,319.319,266.213,311.943,263.68,304.308z"/>
	<path style="fill:#854291;" d="M334.367,325.908c-1.485-6.339,3.713-12.323-0.22-18.79c0.596-3.526,5.207-6.082,3.963-10.532
		c1.812-1.673,3.465-1.603,5.459-0.424c-0.08,2.008-0.993,4.057-0.426,6.762c0.196,0.694,1.575,0.093,2.568,0.957
		c0.674,1.153,0.162,2.592,0.047,3.8c-1.012,1.52-2.625,0.932-4.124,1.784c-0.86,5.123-1.756,10.463-2.638,15.719
		C337.616,326.496,336.098,325.891,334.367,325.908z"/>
	<path style="fill:#9B609F;" d="M106.07,37.129c4.416,6.406,4.024,8.74-2.556,14.674c-2.18,0.45-4.481,0.24-6.998,0.103
		c-1.816-2.068-5.036-3.274-4.511-7.021C94.22,38.838,100.279,35.497,106.07,37.129z M103.538,40.78
		c-2.815-1.331-5.099-1.297-6.879,1.123c-1.114,1.514-0.989,3.069,0.263,4.532c1.663,1.944,2.972,2.054,6.697,0.416
		C104.249,44.987,104.208,43.067,103.538,40.78z"/>
	<path style="fill:#1D1C1C;" d="M768.638,69.748c-0.909,2.337-1.614,4.152-2.361,6.073c-4.471,0.48-2.876-4.078-4.937-5.662
		c-1.336,1.644,0.137,3.798-0.92,5.395c-0.59,0.542-1.238,0.418-2.109,0.25c-0.51-4.197-0.253-8.456-0.151-12.548
		c1.097-0.894,2.076-0.704,3.243-0.486c1.888,2.327,1.872,5.761,3.921,8.668c1.136-3.147,2.073-5.742,2.981-8.258
		c1.167-0.63,2.238-0.882,3.511-0.109c0,4.189,0,8.447,0,12.579c-0.827,0.494-1.446,0.322-2.139,0.083
		C768.651,74.133,769.663,72.166,768.638,69.748z"/>
	<path style="fill:#854291;" d="M351.566,325.664c-1.969,0.411-3.57,0.699-5.277-0.239c1.112-7.117,2.224-14.228,3.311-21.181
		c1.729-1.363,3.268-1.084,5.359-0.032C353.862,311.149,352.741,318.236,351.566,325.664z"/>
	<path style="fill:#854291;" d="M561.337,325.508c-2.118,0.715-3.404,0.468-5.346,0.341c1.141-7.384,2.251-14.574,3.334-21.586
		c1.749-1.233,3.286-1.235,5.317-0.114C563.549,311.212,562.436,318.408,561.337,325.508z"/>
	<path style="fill:#854291;" d="M235.539,325.698c-1.941,0.376-3.4,0.534-5.282-0.155c1.118-7.161,2.243-14.37,3.328-21.322
		c1.899-1.389,3.427-0.923,5.337-0.135C237.804,311.228,236.692,318.332,235.539,325.698z"/>
	<path style="fill:#854291;" d="M471.83,304.11c0.526,3.804-0.826,7.321-1.278,10.891c-0.447,3.532-0.643,7.211-2.123,10.78
		c-1.34,0.457-2.75,0.156-4.171,0.109c-1.026-3.989,0.416-7.52,1.009-10.995c0.605-3.548,0.262-7.336,2.119-10.782
		C468.576,303.098,469.95,303.074,471.83,304.11z"/>
	<path style="fill:#1D1C1C;" d="M756.579,64.155c-1.414,1.372-2.882,0.525-4.558,1.259c0,3.337,0,6.908,0,10.332
		c-1.127,0.301-1.756,0.293-2.601-0.242c0-3.096,0-6.375,0-9.14c-1.08-2.173-3.208-0.559-4.095-2.082
		c0.052-0.275,0.022-0.8,0.181-0.865C748.928,62.017,754.092,62.311,756.579,64.155z"/>
	<path style="fill:#875291;" d="M563.045,297.958c-1.794-0.023-3.107-1.428-3.007-3.218c0.104-1.856,2.121-3.737,3.983-3.714
		c1.801,0.022,3.043,1.374,2.967,3.23C566.908,296.214,565.022,297.984,563.045,297.958z"/>
	<path style="fill:#854291;" d="M356.77,296.153c-3.916,2.32-3.916,2.32-6.534-0.993c0.602-2.324,1.578-4.52,4.546-3.991
		C357.48,291.649,357.152,293.876,356.77,296.153z"/>
	<path style="fill:#854291;" d="M237.485,297.98c-1.873-0.336-2.593-1.429-3.228-2.615c-0.076-1.934,1.564-4.028,3.399-4.284
		c1.49-0.208,2.623,0.422,3.212,1.763C241.678,294.684,240.678,296.157,237.485,297.98z"/>
	<path style="fill:#854291;" d="M474.613,293.832c-0.442,2.169-1.231,4.117-3.963,4.071c-1.452-0.024-2.427-0.82-2.648-2.375
		c-0.3-2.115,0.665-3.571,2.535-4.257C472.77,290.452,473.836,291.945,474.613,293.832z"/>
	<path style="fill:#BA89BA;" d="M121.657,2.771c3.631,2.948,3.631,2.948,2.785,7.22c-4.394,1.79-4.745,1.68-7.522-2.479
		C117.663,5.282,119.273,3.834,121.657,2.771z"/>
	<path style="fill:#2780AA;" d="M133.977,124.825c0.439-0.924,1.245-0.875,2.068-0.78
		C135.616,124.995,134.838,125.02,133.977,124.825z"/>
	<path style="fill:#BA89BA;" d="M103.538,40.78c0.67,2.287,0.711,4.208,0.08,6.071c-3.724,1.639-5.034,1.528-6.697-0.416
		c-1.252-1.463-1.376-3.018-0.263-4.532C98.439,39.483,100.723,39.449,103.538,40.78z"/>
</g>
</svg>
