<?xml version="1.0" encoding="iso-8859-1"?>
<!-- Generator: Adobe Illustrator 27.0.0, SVG Export Plug-In . SVG Version: 6.00 Build 0)  -->
<svg version="1.1" id="Layer_1" xmlns="http://www.w3.org/2000/svg" xmlns:xlink="http://www.w3.org/1999/xlink" x="0px" y="0px"
	 viewBox="0 0 1572.035 506" style="enable-background:new 0 0 1572.035 506;" xml:space="preserve">
<g>
	<path style="fill:#BBD437;" d="M1572.035,290c-1.786,2.168-1.295,4.944-1.927,7.417c-4.91,19.226-16.213,32.722-35.073,39.547
		c0.313-1.575-0.592-2.87-0.971-4.288c-4.52-16.893-8.982-33.801-13.545-50.682c-5.757-21.299-11.848-42.511-17.322-63.882
		c-5.434-21.217-11.243-42.329-16.879-63.49c-4.333-16.268-8.89-32.476-13.198-48.75c-4.517-17.062-8.618-34.237-13.336-51.242
		c-4.932-17.773-9.726-35.58-14.431-53.498c-0.801-0.061-1.627-0.123-2.454-0.186c0.182-0.295,0.228-0.61,0.137-0.945c5,0,10,0,15,0
		c0.385,0.981,1.263,0.882,2.073,0.965c3.497,0.355,6.799,1.412,10.033,2.751c17.275,7.152,28.339,19.852,33.483,37.724
		c6.505,22.601,12.887,45.237,19.322,67.859c12.642,44.444,25.39,88.858,37.858,133.351c3.736,13.333,8.374,26.435,10.801,40.125
		c0.017,0.098,0.282,0.151,0.431,0.226C1572.035,285.333,1572.035,287.667,1572.035,290z"/>
	<path style="fill:#2AAAC2;" d="M447.819,505.204c0.003,0.284,0.075,0.549,0.215,0.796c-4.333,0-8.667,0-13,0
		c0.198-0.244,0.28-0.522,0.246-0.834C439.46,505.179,443.64,505.192,447.819,505.204z"/>
	<path style="fill:#22303B;" d="M112.575,435.954c5.888-22.039,11.685-43.603,17.407-65.187
		c11.09-41.834,22.132-83.681,33.221-125.516c0.552-2.081,1.24-4.144,2.073-6.128c2.584-6.156,7.28-9.814,13.807-10.955
		c4.089-0.715,8.212-1.306,12.401-1.178c7.304,0.223,14.637-0.449,21.907,0.955c1.479,0.285,2.887,0.718,4.313,1.116
		c5.668,1.583,8.247,5.812,7.848,12.237c-0.173,2.791-0.841,5.595-1.619,8.297c-21.695,75.352-43.435,150.692-65.157,226.036
		c-0.736,2.551-1.175,5.203-2.085,7.686c-3.745,10.214-11.548,15.572-21.883,17.44c-8.852,1.6-17.828,2.062-26.814,1.478
		c-4.641-0.302-9.286-0.509-13.931-0.941c-15.446-1.437-23.828-10.667-27.825-24.604c-15.629-54.504-31.086-109.058-46.601-163.594
		c-5.99-21.054-11.966-42.111-17.943-63.169c-1.046-3.687-1.808-7.411-1.679-11.284c0.165-4.961,2.308-7.987,7.085-9.662
		c3.303-1.158,6.708-1.878,10.219-1.969c6.993-0.181,13.986-0.46,20.978,0.008c1.328,0.089,2.665,0.116,3.98,0.296
		c10.12,1.39,16.399,6.741,18.994,16.945c4.944,19.443,10.458,38.739,15.613,58.129c11.46,43.108,22.842,86.237,34.271,129.353
		C111.49,433.014,111.991,434.239,112.575,435.954z"/>
	<path style="fill:#22303B;" d="M855.653,371.623c0.268-7.025,0.79-14.054-0.855-20.863c-2.592-10.732-9.114-17.891-24.478-19.826
		c-9.155-1.153-18.204,0.299-27.25,1.474c-11.548,1.501-22.827,4.357-34.195,6.771c-6.379,1.355-9.525-0.339-11.444-6.437
		c-2.647-8.413-4.363-17.074-5.218-25.842c-0.697-7.148,2.078-10.846,9.002-12.894c15.324-4.534,30.925-7.611,46.846-9.196
		c11.107-1.106,22.279-1.829,33.367-1.547c28.702,0.732,50.102,13.897,63.021,39.835c3.568,7.163,4.728,15.174,6.389,22.955
		c2.055,9.63,3.125,19.502,2.74,29.227c-1.242,31.313-0.152,62.623-0.671,93.927c-0.209,12.61-5.09,19.127-16.773,23.753
		c-23.714,9.389-48.335,13.006-73.737,12.029c-16.684-0.642-33.132-2.522-48.711-9.007c-16.291-6.781-28.478-17.725-33.848-34.98
		c-5.354-17.203-4.878-34.488,1.314-51.358c6.517-17.758,20.254-27.904,37.696-33.528c9.843-3.174,20.024-4.507,30.353-5.239
		c14.993-1.063,29.902-0.459,44.819,0.957C854.473,371.879,854.946,371.721,855.653,371.623z M856.027,414.408
		c-11.46-1.788-22.483-3.045-33.632-2.161c-4.785,0.379-9.573,0.893-14.137,2.647c-6.057,2.327-10.625,6.076-12.562,12.5
		c-1.407,4.666-1.874,9.387-1.261,14.265c1.212,9.637,6.828,15.097,15.957,17.467c10.145,2.635,20.466,2.405,30.737,1.514
		c5.034-0.437,10.171-1.303,14.897-3.728C856.027,442.852,856.027,428.898,856.027,414.408z"/>
	<path style="fill:#22303B;" d="M447.819,505.204c-4.179-0.013-8.359-0.026-12.538-0.039c-13.168-0.247-26.176-1.658-38.914-5.177
		c-8.215-2.27-15.958-5.536-23.105-10.228c-13.78-9.047-21.318-22.067-24.053-38.021c-1.961-11.44-1.454-22.889,1.257-34.17
		c4.679-19.461,16.826-32.402,35.311-39.521c13.98-5.383,28.622-7.169,43.496-7.254c11.649-0.067,23.312-0.343,34.917,1.125
		c0.977,0.124,1.984,0.016,3.541,0.016c0.127-8.853,0.614-17.65-2.786-25.983c-3.297-8.081-10.008-12.106-18.206-13.985
		c-7.737-1.774-15.53-1.3-23.336-0.549c-14.916,1.435-29.54,4.479-44.141,7.737c-6.765,1.51-9.701-0.204-11.742-6.657
		c-2.556-8.08-4.449-16.372-5.236-24.802c-0.89-9.538,3.551-12.053,9.226-13.722c21.316-6.267,43.016-9.968,65.27-10.224
		c3.985-0.046,7.967-0.337,11.952-0.487c28.596-1.075,54.429,14.56,66.067,40.414c4.308,9.572,6.378,19.901,8.017,30.234
		c1.407,8.872,2.303,17.852,1.888,26.838c-1.398,30.305-0.252,60.622-0.694,90.929c-0.134,9.178-4.525,15.9-12.871,19.651
		c-12.62,5.672-25.867,9.345-39.509,11.635C463.744,504.293,455.807,504.997,447.819,505.204z M467.054,414.346
		c-2.075-0.254-3.549-0.401-5.013-0.619c-11.557-1.723-23.155-2.689-34.758-0.714c-11.722,1.995-20.575,6.662-21.766,21.246
		c-1.241,15.191,4.365,22.568,17.756,25.512c9.011,1.981,18.243,1.821,27.357,0.958c5.676-0.537,11.457-1.464,16.425-4.244
		C467.054,442.348,467.054,428.57,467.054,414.346z"/>
	<path style="fill:#22303B;" d="M632.593,282.99c22.632-0.243,42.73,3.796,62.353,10.525c6.985,2.395,9.24,6.384,8.468,13.738
		c-0.802,7.637-2.743,15.02-4.456,22.46c-0.148,0.642-0.408,1.259-0.621,1.886c-2.383,7.029-5.306,8.775-12.417,6.835
		c-8.817-2.405-17.653-4.666-26.709-5.973c-9.042-1.304-18.099-2.428-27.259-1.533c-3.389,0.331-6.403,1.748-9.101,3.77
		c-5.981,4.484-8.98,14.251-0.772,21.583c3.264,2.915,7.119,4.906,11.076,6.655c5.46,2.413,11.026,4.535,16.723,6.376
		c14.774,4.775,28.735,11.327,41.437,20.327c11.549,8.183,18.627,19.397,20.694,33.366c2.088,14.113,2.114,28.162-3.899,41.619
		c-3.227,7.223-7.294,13.877-13.049,19.291c-6.863,6.457-15.192,10.663-23.862,14.111c-14.129,5.62-28.768,7.268-43.971,6.33
		c-20.533-1.267-40.531-4.836-60.036-11.297c-0.944-0.313-1.874-0.671-2.821-0.975c-4.978-1.598-7.333-5.171-7.004-10.217
		c0.604-9.28,1.532-18.557,4.226-27.505c2.037-6.765,5.702-8.814,12.554-6.957c13.156,3.566,26.471,6.307,39.956,8.221
		c6.255,0.888,12.518,1.812,18.875,1.673c2.847-0.062,5.624-0.422,8.354-1.238c15.386-4.597,15.716-21.651,8.079-29.662
		c-3.503-3.674-7.708-6.292-12.287-8.364c-6.074-2.749-12.556-4.239-18.927-6.067c-9.584-2.75-18.934-6.057-27.712-10.893
		c-18.868-10.397-29.628-26.126-31.693-47.668c-2.121-22.121,4.982-40.577,22.203-54.782c9.987-8.238,21.804-12.481,34.473-14.573
		C621.742,283.015,628.056,282.916,632.593,282.99z"/>
	<path style="fill:#22303B;" d="M980.062,337.718c-8.198,0-15.838-0.023-23.477,0.01c-3.832,0.017-7.627-0.211-11.442-0.672
		c-4.086-0.495-6.746-2.489-8.276-6.198c-0.956-2.318-1.631-4.712-1.76-7.224c-0.383-7.489-0.648-14.977-0.075-22.473
		c0.128-1.673,0.439-3.281,0.87-4.897c1.731-6.481,4.55-9.034,11.172-9.227c8.821-0.257,17.652-0.199,26.479-0.271
		c1.813-0.015,3.626-0.002,5.102-0.002c1.296-1.27,1.036-2.492,1.023-3.626c-0.138-11.823,0.252-23.648-0.189-35.473
		c-0.104-2.799,0.226-5.689,0.853-8.422c0.939-4.091,3.328-7.232,7.443-8.721c3.601-1.303,7.275-2.302,11.136-2.48
		c7.827-0.36,15.652-0.396,23.477,0.011c3.663,0.191,7.284,0.758,10.718,2.053c4.59,1.73,7.177,5.13,7.939,10.002
		c0.646,4.129,0.85,8.27,0.848,12.442c-0.017,57.308-0.023,114.617,0.008,171.925c0.003,5.314-0.201,10.635,0.963,15.914
		c1.592,7.216,6.069,11.231,13.47,11.654c9.847,0.563,19.619-0.28,29.368-1.571c1.98-0.262,3.963-0.568,5.954-0.668
		c5.301-0.268,7.768,1.254,9.26,6.359c1.3,4.448,2.186,9.03,3.031,13.594c0.664,3.589,1.059,7.233,1.446,10.867
		c0.908,8.521-2.069,13.089-10.208,15.063c-13.588,3.295-27.338,5.663-41.354,6.074c-5.994,0.176-12,0.384-17.988,0.194
		c-13.199-0.419-25.044-5-35.442-12.948c-4.491-3.433-7.471-8.447-10.379-13.302c-6.993-11.673-10.661-24.328-10.272-37.956
		c0.574-20.156,0.159-40.311,0.285-60.466C980.128,364.314,980.062,351.341,980.062,337.718z"/>
	<path style="fill:#22303B;" d="M311.136,393.456c0,28.648,0.024,57.296-0.029,85.944c-0.007,3.805,0.192,7.617-0.8,11.411
		c-1.216,4.648-4.083,7.468-8.504,8.921c-6.254,2.056-12.723,2.504-19.224,2.193c-7.285-0.348-14.653-0.112-21.796-1.874
		c-7.856-1.939-10.513-5.064-11.506-13.018c-0.226-1.81-0.193-3.658-0.194-5.489c-0.022-59.128-0.034-118.256-0.047-177.384
		c0-0.333,0.003-0.666,0.009-0.999c0.187-10.713,4.247-15.504,14.885-17.057c11.106-1.621,22.26-1.473,33.358,0.087
		c9.577,1.346,13.65,5.964,13.686,15.827c0.11,30.479,0.04,60.959,0.04,91.439C311.055,393.456,311.096,393.456,311.136,393.456z"/>
	<path style="fill:#A6CC4B;" d="M1399.958,33.846c3.841-10.847,11.241-18.783,20.582-25.122c1.077-0.731,2.034-1.732,3.467-1.787
		c1.255,2.702,1.491,5.675,2.265,8.502c5.523,20.164,11.418,40.231,16.588,60.484c5.05,19.785,10.531,39.451,15.737,59.191
		c4.665,17.688,9.638,35.298,14.254,52.994c5.483,21.019,11.327,41.941,16.745,62.976c3.097,12.022,6.295,24.019,9.545,36
		c3.463,12.768,7.19,25.466,10.49,38.274c1.258,4.883,2.951,9.7,3.36,14.787c-12.038-0.243-22.458-4.736-31.629-12.284
		c-1.603-1.32-3.782-2.206-4.469-4.489c0.675-3.54-0.385-6.881-1.292-10.204c-4.133-15.146-8.439-30.245-12.487-45.413
		c-4.553-17.061-8.778-34.21-13.359-51.264c-5.43-20.214-11.394-40.289-16.564-60.567c-5.374-21.076-11.289-42.003-16.736-63.056
		c-3.481-13.457-6.878-26.942-10.722-40.296C1403.928,46.307,1403.009,39.737,1399.958,33.846z"/>
	<path style="fill:#B3D23F;" d="M1512.991,340.147c-0.41-5.088-2.103-9.905-3.36-14.787c-3.3-12.809-7.027-25.507-10.49-38.274
		c-3.25-11.982-6.448-23.978-9.545-36c-5.418-21.035-11.262-41.957-16.745-62.976c-4.616-17.696-9.589-35.306-14.254-52.994
		c-5.206-19.74-10.687-39.406-15.737-59.191c-5.17-20.253-11.065-40.32-16.588-60.484c-0.774-2.827-1.01-5.8-2.265-8.502
		c5.871-3.342,11.945-6.043,18.892-5.993c0.827,0.063,1.654,0.125,2.454,0.186c4.705,17.918,9.499,35.725,14.431,53.498
		c4.719,17.005,8.82,34.18,13.336,51.242c4.308,16.274,8.866,32.482,13.198,48.75c5.636,21.16,11.445,42.273,16.879,63.49
		c5.474,21.371,11.565,42.583,17.322,63.882c4.563,16.881,9.025,33.789,13.545,50.682c0.38,1.419,1.285,2.714,0.971,4.288
		c-6.096,2.979-12.718,3.353-19.305,3.863C1514.791,340.898,1513.748,340.99,1512.991,340.147z"/>
	<path style="fill:#0C85BD;" d="M1325.02,341.842c-17.071,4.539-34.229-3.97-42.425-16.731c-3.061-4.767-4.875-10.118-6.422-15.527
		c-7.769-27.157-15.484-54.33-23.209-81.499c-0.676-2.377-1.283-4.773-1.922-7.16c0.558-5.276-1.912-9.95-3.083-14.863
		c-1.933-8.107-4.263-16.122-6.534-24.145c-0.351-1.241-0.16-3.291-2.523-2.965c2.263-10.921,5.265-21.504,13.954-29.353
		c5.229-4.724,11.121-8.247,18.173-9.524c0.335,1.262,0.672,2.523,1.006,3.785c2.849,10.741,5.677,21.487,8.551,32.221
		c3.128,11.685,6.318,23.354,9.447,35.039c3.213,11.998,6.344,24.017,9.584,36.008c4.095,15.151,8.321,30.267,12.386,45.425
		C1316.405,308.967,1320.686,325.412,1325.02,341.842z"/>
	<path style="fill:#0E8EC9;" d="M1325.02,341.842c-4.334-16.431-8.615-32.876-13.016-49.289
		c-4.065-15.159-8.291-30.275-12.386-45.425c-3.24-11.99-6.371-24.01-9.584-36.008c-3.129-11.685-6.318-23.354-9.447-35.039
		c-2.874-10.734-5.702-21.481-8.551-32.221c-0.335-1.262-0.671-2.523-1.006-3.785c6.195-2.303,12.4-1.317,18.496,0.258
		c2.964,0.766,6.101,1.457,8.512,3.658c0.142,1.636-0.072,3.248,0.396,4.92c2.815,10.069,5.484,20.178,8.198,30.275
		c3.139,11.676,6.293,23.348,9.406,35.031c4.5,16.891,8.947,33.796,13.455,50.685c4.172,15.628,8.313,31.265,12.642,46.85
		c1.44,5.183,2.071,10.657,4.973,15.377C1341.879,335.238,1334.067,339.467,1325.02,341.842z"/>
	<path style="fill:#98CA5A;" d="M1399.958,33.846c3.051,5.89,3.97,12.46,5.774,18.728c3.844,13.354,7.241,26.839,10.722,40.296
		c5.447,21.054,11.362,41.98,16.736,63.056c5.171,20.278,11.134,40.353,16.564,60.567c4.581,17.053,8.806,34.202,13.359,51.264
		c4.048,15.168,8.354,30.267,12.487,45.413c0.907,3.323,1.967,6.664,1.292,10.204c-7.139-6.244-11.195-14.44-13.759-23.266
		c-9.979-34.348-19.705-68.77-29.494-103.174c-7.25-25.48-14.447-50.976-21.692-76.457c-0.304-1.069-0.855-2.067-1.451-3.474
		c-1.905,6.479-3.824,12.47-5.38,18.555c-0.646,2.527-2.601,4.622-2.316,7.411c-2.416-0.295-2.384-2.357-2.835-4.012
		c-2.991-10.962-5.891-21.95-8.943-32.896c-1.916-6.873-3.035-13.993-6.184-20.495c0.537-5.658,2.751-10.885,4.241-16.293
		c2.81-10.199,5.8-20.349,8.733-30.514C1398.312,37.032,1398.556,35.183,1399.958,33.846z"/>
	<path style="fill:#1D3B4C;" d="M1225.814,305.052c-1.644,6.046-2.776,12.292-5.043,18.094
		c-4.182,10.704-11.756,17.702-23.725,18.905c-0.063-0.827,0.036-1.706-0.212-2.472c-3.682-11.358-6.517-22.967-9.556-34.489
		c-5.586-21.177-11.4-42.293-16.876-63.497c-1.264-4.893-3.45-9.604-3.444-14.801c12.222-5.695,29.895,0.663,36.081,15.756
		c3.085,7.527,4.541,15.571,6.928,23.324c0.473,1.537,0.979,3.065,1.492,4.589c0.01,0.031,0.31,0.01,0.438-0.057
		c0.139-0.074,0.235-0.23,0.349-0.351c3.579,0.242,3.086,3.464,3.667,5.52c2.548,9.013,4.791,18.113,7.128,27.185
		C1223.418,304.223,1224.293,305.008,1225.814,305.052z"/>
	<path style="fill:#1C98D4;" d="M1347.107,327.129c-2.902-4.72-3.533-10.194-4.973-15.377c-4.33-15.585-8.471-31.222-12.642-46.85
		c-4.508-16.889-8.955-33.794-13.455-50.685c-3.112-11.683-6.267-23.355-9.406-35.031c-2.714-10.097-5.384-20.206-8.198-30.275
		c-0.467-1.672-0.254-3.284-0.396-4.92c9.551,4.734,15.991,12.24,18.995,22.393c6.933,23.427,13.603,46.932,20.456,70.383
		c0.485,1.66,0.486,3.641,2.138,4.84c2.781-8.129,4.335-16.612,7.473-24.614c1.84-0.206,2.412,1.363,2.583,2.48
		c0.428,2.802,1.622,5.335,2.328,8.027c3.691,14.08,7.379,28.161,11.045,42.248c0.329,1.264,1.082,2.004,2.283,2.37
		c-1.234,5.578-3.294,10.945-4.743,16.403c-1.547,5.828-3.206,11.672-4.689,17.537c-1.483,5.864-2.681,11.887-5.9,17.172
		C1349.166,324.613,1348.704,326.301,1347.107,327.129z"/>
	<path style="fill:#22303B;" d="M1166.958,226.792c-0.006,5.197,2.18,9.908,3.444,14.801c5.477,21.204,11.291,42.32,16.876,63.497
		c3.039,11.522,5.873,23.131,9.556,34.489c0.248,0.767,0.15,1.646,0.212,2.472c-11.929,2.317-24.854-4.971-30.087-17.026
		c-3.313-7.633-4.968-15.785-7.263-23.735c-3.721-12.89-7.34-25.809-11.081-38.694c-2.505-8.627-1.553-16.779,3.283-24.343
		C1155.49,232.638,1160.267,228.417,1166.958,226.792z"/>
	<path style="fill:#22303B;" d="M1114.993,311.552c0,2.658,0.157,5.326-0.028,7.971c-0.684,9.802-5.731,15.991-15.212,18.538
		c-8.681,2.332-17.427,2.182-26.044-0.25c-7.595-2.143-12.057-7.471-13.516-15.103c-1.252-6.546-1.223-13.136-0.413-19.817
		c1.169-9.644,6.387-16.444,17.275-18.375c7.401-1.313,14.876-1.416,22.223,0.411c9.786,2.433,14.905,8.619,15.69,18.658
		c0.207,2.648,0.254,5.31,0.374,7.965C1115.225,311.551,1115.109,311.551,1114.993,311.552z"/>
	<path style="fill:#7DC173;" d="M1384.84,85.565c3.149,6.502,4.268,13.622,6.184,20.495c3.051,10.946,5.951,21.933,8.943,32.896
		c0.452,1.655,0.42,3.717,2.835,4.012c-0.39,3.311-1.761,6.349-2.684,9.51c-2.89,9.891-5.853,19.76-8.787,29.638
		c-2.188,0.083-2.833-1.633-3.181-3.169c-3.524-15.554-8.337-30.768-12.186-46.237c-0.508-2.041-0.207-4.819-3.035-5.765
		c-0.208-2.893,1.254-5.37,1.998-8.026c2.827-10.095,5.61-20.202,8.502-30.278C1383.728,87.594,1383.818,86.332,1384.84,85.565z"/>
	<path style="fill:#47B3A4;" d="M1386.153,200.065c-0.055,4.413-2.144,8.317-3.253,12.456c-2.383,8.895-5.245,17.662-7.91,26.482
		c-2.454,0.308-2.078-1.922-2.406-3.068c-2.614-9.119-5.095-18.276-7.512-27.45c-1.833-6.958-3.405-13.986-5.348-20.911
		c-0.403-1.435-0.287-3.979-3.089-3.688c1.749-8.937,4.689-17.55,7.173-26.287c1.212-4.265,2.018-8.663,3.953-12.706
		c2.703,0.701,2.617,3.326,3.116,5.176c4.187,15.547,8.137,31.157,12.23,46.729C1383.501,198.306,1383.919,200.122,1386.153,200.065
		z"/>
	<path style="fill:#2AAAC2;" d="M1356.633,183.887c2.802-0.291,2.687,2.253,3.089,3.688c1.943,6.925,3.515,13.954,5.348,20.911
		c2.417,9.173,4.898,18.331,7.512,27.45c0.328,1.146-0.047,3.375,2.406,3.068c-0.602,5.279-2.764,10.149-4.124,15.226
		c-1.612,6.015-3.053,12.124-5.527,17.89c-1.202-0.366-1.955-1.106-2.283-2.37c-3.666-14.087-7.354-28.168-11.045-42.248
		c-0.706-2.691-1.9-5.225-2.328-8.027c-0.171-1.118-0.743-2.686-2.583-2.48c0.911-5.875,3.008-11.437,4.615-17.123
		C1353.23,194.509,1354.295,188.998,1356.633,183.887z"/>
	<path style="fill:#185270;" d="M1225.814,305.052c-1.52-0.044-2.396-0.83-2.773-2.294c-2.337-9.073-4.579-18.172-7.128-27.185
		c-0.581-2.056-0.088-5.278-3.667-5.52c4.284-15.456,8.575-30.91,13.579-46.155c2.811-0.175,2.566,2.455,2.952,3.83
		c2.596,9.251,4.86,18.596,7.314,27.888c0.395,1.496,0.617,3.388,2.893,3.39c-2.612,11.404-6.283,22.514-9.401,33.778
		C1228.441,296.906,1227.076,300.965,1225.814,305.052z"/>
	<path style="fill:#136D9A;" d="M1238.983,259.007c-2.276-0.002-2.498-1.895-2.893-3.39c-2.454-9.292-4.717-18.637-7.314-27.888
		c-0.386-1.375-0.141-4.005-2.952-3.83c0.76-5.256,2.723-10.188,4.136-15.267c2.471-8.882,4.942-17.766,7.579-26.599
		c0.3-1.005,0.252-2.358,1.363-3.079c2.363-0.326,2.172,1.724,2.523,2.965c2.271,8.023,4.6,16.038,6.534,24.145
		c1.172,4.913,3.642,9.586,3.083,14.863c-1.764,0.881-1.52,2.773-1.945,4.222c-3.137,10.706-6.131,21.454-9.2,32.181
		C1239.728,257.926,1239.294,258.449,1238.983,259.007z"/>
	<path style="fill:#61BA8C;" d="M1386.153,200.065c-2.234,0.056-2.652-1.759-3.048-3.265c-4.093-15.572-8.044-31.182-12.23-46.729
		c-0.498-1.85-0.412-4.475-3.116-5.176c1.286-6.109,2.749-12.167,5.168-17.949c2.828,0.946,2.527,3.724,3.035,5.765
		c3.849,15.469,8.662,30.683,12.186,46.237c0.348,1.536,0.993,3.252,3.181,3.169C1390.08,188.236,1388.521,194.268,1386.153,200.065
		z"/>
</g>
</svg>
