<?xml version="1.0" encoding="iso-8859-1"?>
<!-- Generator: Adobe Illustrator 27.0.0, SVG Export Plug-In . SVG Version: 6.00 Build 0)  -->
<svg version="1.1" id="Layer_1" xmlns="http://www.w3.org/2000/svg" xmlns:xlink="http://www.w3.org/1999/xlink" x="0px" y="0px"
	 viewBox="0 0 1597.758 431.137" style="enable-background:new 0 0 1597.758 431.137;" xml:space="preserve">
<g>
	<path style="fill:#070606;" d="M1597.758,231.037c-2.925,3.25-3.835,7.519-5.568,11.342c-17.643,38.918-35.145,77.9-52.697,116.86
		c-6.257,13.888-12.542,27.764-18.82,41.643c-0.469,1.038-0.981,2.056-1.92,4.016c-16.36-33.298-32.382-65.907-48.554-98.822
		c-16.379,32.848-32.627,65.432-48.845,97.957c-1.744-0.403-1.756-1.836-2.188-2.799c-23.292-52-46.545-104.018-69.755-156.055
		c-2.671-5.988-6.098-11.359-12.402-16.144c2.503,0,3.87,0,5.237,0c9.663,0,19.325-0.004,28.988,0.001
		c18.003,0.009,30.667,7.97,37.684,24.821c7.766,18.651,15.807,37.187,23.729,55.774c1.427,3.347,2.856,6.693,4.584,10.741
		c16.011-32.291,31.762-64.059,47.88-96.566c15.845,32.164,31.368,63.672,46.887,95.174c1.551-0.277,1.578-1.573,2.002-2.557
		c10.614-24.64,21.255-49.269,31.804-73.937c1.85-4.326,3.629-8.836-1.712-13.448c11.921,0,22.793,0,33.666,0
		C1597.758,229.704,1597.758,230.37,1597.758,231.037z"/>
	<path style="fill:#040404;" d="M515.739,398.966c0-14.781,0-28.926,0-43.071c0-62.132-0.051-124.265,0.049-186.397
		c0.019-11.599-3.13-21.602-12.346-29.174c-0.213-0.175-0.269-0.54-0.416-0.855c0.606-0.761,1.467-0.414,2.195-0.414
		c37.148-0.013,74.298-0.233,111.443,0.096c20.771,0.184,39.545,6.681,55.023,20.974c10.074,9.303,16.368,20.86,18.019,34.599
		c2.95,24.547-8.362,41.775-28.387,54.381c-5.783,3.64-12.067,6.199-18.539,8.345c0.273,1.592,1.6,1.373,2.66,1.619
		c15.667,3.641,29.724,10.494,41.384,21.655c12.398,11.869,19.493,26.42,19.841,43.739c0.412,20.469-8.279,37.002-23.419,50.203
		c-14.396,12.552-31.621,19.08-50.239,22.437c-8.406,1.516-16.839,1.901-25.344,1.884c-28.819-0.056-57.637-0.021-86.456-0.021
		C519.571,398.966,517.935,398.966,515.739,398.966z M570.904,374.281c7.926,0,15.411,0.027,22.895-0.01
		c4.326-0.021,8.612-0.294,12.903-1.107c26.087-4.945,45.215-28.449,39.589-58.91c-4.133-22.378-23.074-37.33-44.992-39.394
		c-8.823-0.831-17.644-0.392-26.465-0.519c-1.27-0.018-2.667-0.475-3.93,0.632C570.904,307.835,570.904,340.777,570.904,374.281z
		 M570.974,250.008c7.161,0,14.162,0.55,21.048-0.112c15.369-1.478,27.967-8.132,36.078-21.772
		c6.572-11.052,7.191-22.965,4.082-35.144c-3.205-12.56-10.791-21.357-22.999-26.203c-4.548-1.805-9.196-2.773-13.975-3.326
		c-8.069-0.934-16.145-0.333-24.234-0.501C570.974,192.28,570.974,221.012,570.974,250.008z"/>
	<path style="fill:#060606;" d="M1163.359,313.925c1.413-36.66,18.89-63.155,51.342-79.841c15.079-7.753,31.411-10.885,48.271-9.874
		c26.899,1.613,49.889,12.088,67.85,32.432c15.797,17.894,23.256,39.057,21.676,62.856c-1.573,23.698-11.416,43.781-28.986,59.942
		c-13.932,12.815-30.229,20.898-48.856,24.125c-46.913,8.127-93.408-18.905-107.297-63.52
		C1164.72,331.564,1163.377,322.905,1163.359,313.925z M1299.061,323.192c0.121-15.009-2.463-27.444-7.11-39.473
		c-3.687-9.541-8.577-18.336-16.296-25.281c-11.677-10.506-27.422-11.878-39.555-2.219c-6.908,5.5-11.372,12.897-14.38,21.156
		c-4.988,13.691-6.198,27.739-4.227,42.161c1.815,13.286,5.705,25.851,12.35,37.507c4.346,7.623,9.855,14.271,17.749,18.427
		c9.245,4.868,18.591,5.447,27.966,0.004c5.958-3.46,10.169-8.493,13.572-14.285C1296.391,348.83,1299.078,335.303,1299.061,323.192
		z"/>
	<path style="fill:#080707;" d="M930.745,397.056c0-14.546,0-28.592,0-43.487c1.567,2.909,2.654,5.091,3.887,7.188
		c5.812,9.889,14.419,15.841,25.66,17.964c8.475,1.601,16.859,1.35,25.045-1.62c12.394-4.498,15.905-17.54,7.445-27.702
		c-3.915-4.703-9-7.856-14.461-10.387c-6.609-3.064-13.357-5.827-19.953-8.917c-8.49-3.977-16.15-9.186-22.765-15.898
		c-15.083-15.303-18.658-40.657-9.714-59.268c4.781-9.949,12.601-16.929,22.276-22.061c10.183-5.401,21.207-7.664,32.484-8.596
		c17.466-1.444,34.422,1.538,50.974,7.053c0.605,0.202,1.122,0.666,1.759,1.057c0,13.681,0,27.329,0,40.993
		c-1.655,0.052-1.897-1.556-2.602-2.553c-7.79-11.023-18.037-18.459-31.31-21.412c-9.828-2.187-19.55-1.877-28.714,2.611
		c-10.331,5.06-11.991,16.722-3.763,24.787c3.243,3.179,7.118,5.389,11.174,7.366c10.421,5.079,21.335,9.115,31.38,14.991
		c8.948,5.235,17.468,10.96,23.973,19.236c7.427,9.45,10.549,20.232,9.671,32.118c-1.726,23.368-15.202,37.949-35.958,46.45
		c-19.787,8.103-40.318,9.038-61.143,4.604C940.917,400.472,935.777,399.214,930.745,397.056z"/>
	<path style="fill:#040404;" d="M1070.498,253.015c-9.749,0-18.88,0-28.963,0c26.935-24.022,53.218-47.464,80.141-71.476
		c0,16.148,0,31.493,0,47.326c16.482,0,32.557,0,48.883,0c-1.904,6.695-4.879,12.188-9.384,16.75
		c-4.752,4.812-10.548,7.407-17.39,7.419c-7.133,0.013-14.266,0.003-21.18,0.003c-1.149,1.518-0.693,2.895-0.694,4.167
		c-0.031,31.993-0.02,63.986-0.033,95.98c-0.001,2.507,0.259,4.974,0.6,7.458c1.712,12.442,12.161,17.483,23.093,13.743
		c3.168-1.084,6.023-2.756,8.845-4.505c1.245-0.772,2.477-1.566,3.761-2.38c0.56,0.716,1.002,1.213,1.369,1.762
		c2.846,4.262,5.677,8.534,8.603,12.94c-7.052,9.907-16.641,16.148-28.001,19.709c-12.543,3.933-25.223,4.106-37.774-0.005
		c-17.629-5.774-31.135-20.465-31.665-40.383c-0.133-4.995-0.198-9.994-0.202-14.991c-0.018-29.327-0.009-58.654-0.009-87.982
		C1070.498,256.911,1070.498,255.273,1070.498,253.015z"/>
	<path style="fill:#040404;" d="M834.857,280.466c-4.004-6.969-8.908-11.712-15.31-14.894c-18.552-9.224-40.621-0.485-48.086,18.889
		c-0.764,1.982-0.722,3.898-0.723,5.87c-0.018,34.154-0.013,68.308-0.013,102.462c0,1.823,0,3.646,0,5.821
		c-16.891,0-33.619,0-50.626,0c-0.998-1.424-0.414-3.309-0.415-5.049c-0.039-47.482-0.026-94.965-0.046-142.447
		c-0.001-2.325-0.152-4.656-0.36-6.973c-0.529-5.886-2.797-10.877-8.619-14.914c2.036-0.09,3.213-0.185,4.39-0.187
		c9.663-0.012,19.327,0.061,28.989-0.043c3.369-0.036,6.698,0.329,9.852,1.252c6.129,1.793,10.99,5.44,13.892,11.297
		c1.017,2.052,1.793,4.223,2.833,6.706c1.525-0.992,2.03-2.597,2.863-3.87c5.918-9.043,13.533-16.085,24.126-18.978
		c14.413-3.935,26.843-0.122,37.253,10.493C834.857,250.547,834.857,265.005,834.857,280.466z"/>
	<path style="fill:#040404;" d="M844.587,229.258c20.534,0,40.134,0,59.924,0c0,56.463,0,112.704,0,168.908
		c-3.818,1.051-37.86,1.403-50.552,0.538c-0.827-1.604-0.403-3.457-0.404-5.206c-0.029-47.306-0.019-94.612-0.039-141.918
		c-0.001-2.324-0.205-4.65-0.344-6.973C852.807,238.498,850.512,233.371,844.587,229.258z"/>
	<path style="fill:#E52226;" d="M84.172,0.599c5.841,1.35,11.312,3.803,16.95,5.752c8.469,2.928,16.801,6.25,25.262,9.2
		c12.561,4.38,23.747,18.905,23.603,32.896c-0.108,10.496-0.012,20.994-0.011,31.491c0,35.157-0.001,70.314-0.002,105.471
		c0,1.812,0,3.623,0,5.446c-4.139-0.185-39.5-12.649-50.654-17.763c-0.816-1.693-0.391-3.551-0.392-5.342
		c-0.028-44.321-0.173-88.643,0.072-132.963c0.072-13.053-4.314-23.662-14.117-32.144c-0.481-0.416-0.815-1-1.218-1.506
		C83.835,0.96,84.005,0.781,84.172,0.599z"/>
	<path style="fill:#E52326;" d="M216.647,217.828c-4.554,10.319-7.901,21.091-11.879,31.627c-2.165,5.733-4.236,11.502-6.326,17.192
		c-1.848,0.971-3.716,0.524-5.507,0.525c-44.497,0.028-88.995,0.115-133.491-0.036c-12.789-0.043-23.406,4.148-31.677,13.991
		c-0.439,0.522-0.915,0.956-1.656,1.012c-1.055-1.113-0.172-2.136,0.2-3.152c4.742-12.936,9.809-25.764,14.162-38.83
		c3.759-11.285,18.898-24.262,34.704-24.117c44.66,0.409,89.326,0.145,133.99,0.135c1.996,0,3.991-0.123,5.987-0.189
		c0.551,0.032,1.102,0.064,1.653,0.097l-0.114-0.111C216.677,216.591,216.662,217.209,216.647,217.828z"/>
	<path style="fill:#0966A4;" d="M216.647,217.828c0.015-0.618,0.03-1.237,0.044-1.855c0.425,0.12,0.849,0.24,1.274,0.361
		c11.996,5.262,24.564,8.997,36.758,13.731c4.164,1.616,8.366,3.135,12.423,4.651c1.248,1.845,0.699,3.73,0.7,5.496
		c0.035,44.456,0.123,88.913-0.03,133.369c-0.047,13.782,4.865,24.866,15.909,33.176c0.332,0.25,0.527,0.68,1.024,1.345
		c-2.762,0.073-4.766-1.224-6.881-1.99c-12.626-4.57-25.213-9.245-37.836-13.821c-12.406-4.498-23.381-19.45-23.3-33.609
		c0.257-44.788,0.097-89.578,0.086-134.368C216.818,222.151,216.707,219.989,216.647,217.828z"/>
	<path style="fill:#E52126;" d="M217.965,216.333c-0.425-0.12-0.849-0.24-1.274-0.361l0.114,0.111
		c0.073-0.549,0.147-1.097,0.22-1.646c4.792-11.11,8.439-22.65,12.756-33.939c1.891-4.945,3.656-9.939,5.472-14.894
		c1.766-1.048,3.639-0.541,5.415-0.542c44.601-0.033,89.204-0.197,133.804,0.079c13.328,0.083,23.846-4.733,32.258-14.774
		c0.202-0.241,0.519-0.386,0.782-0.575c0.212,0.212,0.426,0.424,0.64,0.634c-3.504,11.238-7.967,22.132-11.906,33.215
		c-0.833,2.343-1.788,4.649-2.502,7.027c-4.095,13.654-19.147,25.777-36.045,25.643c-44.581-0.353-89.167-0.121-133.752-0.113
		C221.953,216.198,219.959,216.286,217.965,216.333z"/>
	<path style="fill:#0A66A5;" d="M241.428,148.439c6.106-16.664,12.237-33.4,18.421-50.277c2.167,0,3.983,0,5.798,0
		c44.466,0,88.934-0.178,133.398,0.113c12.552,0.082,22.65-4.097,30.798-13.447c0.294-0.337,0.819-0.474,1.275-0.725
		c1.309,1.241,0.575,2.456,0.146,3.631c-4.83,13.241-9.385,26.592-14.591,39.683c-4.902,12.327-19.411,21.92-31.978,21.852
		c-46.13-0.248-92.263-0.094-138.394-0.117C244.839,149.152,243.306,149.538,241.428,148.439z"/>
	<path style="fill:#0666A4;" d="M1.279,348.597c0.981-4.57,2.911-8.82,4.492-13.183c3.505-9.67,7.38-19.215,10.613-28.973
		c3.899-11.767,19.62-23.687,33.98-23.556c45.328,0.413,90.662,0.148,135.993,0.169c1.809,0.001,3.662-0.341,5.98,0.565
		c-6.087,16.626-12.169,33.24-18.213,49.747c-1.865,1.17-3.742,0.643-5.512,0.645c-44.498,0.034-88.997,0.174-133.494-0.066
		c-12.89-0.07-23.239,4.54-31.716,13.96c-0.437,0.485-0.961,0.892-1.445,1.336C1.744,349.014,1.517,348.799,1.279,348.597z"/>
	<path style="fill:#E52126;" d="M284.311,240.784c16.719,6.1,33.486,12.217,50.448,18.406c0,2.027,0,3.841,0,5.655
		c0,44.482,0.125,88.965-0.084,133.447c-0.055,11.708,3.835,21.405,11.963,29.609c0.78,0.788,2.001,1.322,1.938,2.735
		c-1.297,0.985-2.498,0.293-3.739-0.163c-12.925-4.752-25.904-9.363-38.77-14.269c-12.247-4.669-22.501-19.411-22.432-32.67
		c0.238-46.147,0.088-92.296,0.105-138.445C283.741,243.782,283.43,242.423,284.311,240.784z"/>
	<path style="fill:#0666A4;" d="M217.025,214.438c-0.073,0.549-0.147,1.097-0.22,1.646c-0.551-0.032-1.102-0.064-1.653-0.097
		c-8.239-3.894-16.964-6.528-25.447-9.789c-7.733-2.973-15.599-5.6-23.318-8.349c-1.084-1.844-0.595-3.719-0.596-5.503
		c-0.03-44.801-0.175-89.602,0.076-134.401c0.069-12.329-5.579-24.702-15.934-32.549c1.581-0.589,2.825-0.305,4.184,0.202
		c12.896,4.804,25.745,9.745,38.74,14.266c12.591,4.38,24.253,19.69,24.104,35.19c-0.426,44.463-0.153,88.933-0.141,133.401
		C216.821,210.449,216.954,212.443,217.025,214.438z"/>
	<path style="fill:#080707;" d="M906.778,172.704c0.075,16.067-14.003,28.863-28.984,28.751c-12.4-0.093-28.385-10.19-28.369-29.362
		c0.013-15.522,12.178-28.862,28.978-28.659C896.56,143.652,907.568,159.348,906.778,172.704z"/>
	<path style="fill:#E52226;" d="M83.663,1.138c-0.589-0.055-1.23,0.058-1.673-0.541c0.729-1.012,1.455-0.547,2.182,0.002
		C84.005,0.781,83.835,0.96,83.663,1.138z"/>
	<path style="fill:#E52126;" d="M407.512,149.792c0.189-0.436,0.499-0.882,0.954-0.47c0.418,0.378,0.067,0.808-0.314,1.105
		C407.938,150.216,407.725,150.004,407.512,149.792z"/>
	<path style="fill:#E52326;" d="M25.588,283.36c-0.064,0.131-0.118,0.242-0.173,0.354c-0.164-0.111-0.327-0.223-0.491-0.334
		c0.109-0.111,0.216-0.308,0.328-0.31C25.363,283.067,25.479,283.258,25.588,283.36z"/>
	<path style="fill:#0666A4;" d="M1.959,349.24c-0.238,0.29-0.476,0.58-0.722,0.879c-0.674-0.626-0.341-1.077,0.042-1.523
		C1.517,348.799,1.744,349.014,1.959,349.24z"/>
	<path style="fill:#0666A4;" d="M0.293,351.102c0.092,0.137,0.261,0.277,0.254,0.409c-0.007,0.132-0.189,0.255-0.294,0.381
		c-0.092-0.137-0.26-0.277-0.253-0.41C0.007,351.351,0.189,351.228,0.293,351.102z"/>
</g>
</svg>
