<?xml version="1.0" encoding="iso-8859-1"?>
<!-- Generator: Adobe Illustrator 27.0.0, SVG Export Plug-In . SVG Version: 6.00 Build 0)  -->
<svg version="1.1" id="Layer_1" xmlns="http://www.w3.org/2000/svg" xmlns:xlink="http://www.w3.org/1999/xlink" x="0px" y="0px"
	 viewBox="0 0 1483 658.31" style="enable-background:new 0 0 1483 658.31;" xml:space="preserve">
<g>
	<path style="fill:#1B1919;" d="M1483,639c-0.279,0.101-0.795,0.181-0.805,0.305c-0.736,8.802-6.221,14.15-13.946,16.396
		c-17.474,5.083-33.855,3.251-47.641-10.055c0.603-1.931,1.807-3.255,3.195-4.569c1.815,0.285,2.68,1.882,3.86,2.937
		c6.083,5.444,13.114,8.267,21.308,8.22c4.821-0.028,9.637,0.154,14.359-1.181c3.074-0.869,5.985-2.029,8.427-4.119
		c5.131-4.391,5.132-11.2,0.016-15.585c-3.611-3.096-7.992-3.832-12.552-3.952c-5.984-0.157-11.976,0.304-17.959-0.347
		c-1.669-0.182-3.253-0.533-4.868-0.949c-13.163-3.391-14.319-17.315-7.351-25.176c3.946-4.452,9.085-6.785,14.727-7.683
		c12.487-1.986,24.123,0.133,34.336,8.379c-0.282,1.898-1.755,3.003-2.999,4.389c-1.953-0.17-3.23-1.631-4.806-2.428
		c-9.474-4.79-19.247-5.919-29.448-2.701c-2.749,0.868-5.128,2.314-7.197,4.295c-2.943,2.818-3.709,6.276-2.496,10.04
		c1.144,3.549,4.162,5.033,7.547,5.739c4.969,1.036,9.917,0.255,14.852-0.43c4.63-0.643,9.275-1.07,13.869,0.103
		c9.372,2.393,13.249,6.782,14.66,16.423c0.084,0.572,0.401,0.83,0.91,0.948C1483,638.333,1483,638.667,1483,639z"/>
	<path style="fill:#1B1919;" d="M0,591c1.93,1.433,4.287-0.138,6.829,1.333c8.605,17.878,17.488,36.334,26.694,55.462
		c9.308-19.084,18.298-37.517,27.297-55.968c2.19-0.312,4.097-0.388,6.574,0.144c-10.409,21.595-20.658,42.859-30.822,63.946
		c-2.062,0.812-3.853,0.453-5.929,0.327c-4.211-8.832-8.405-17.622-12.594-26.414c-5.557-11.663-11.102-23.332-16.684-34.982
		C1.043,594.172,1.087,593.141,0,593C0,592.333,0,591.667,0,591z"/>
	<path style="fill:#EEC6B3;" d="M615,0c-0.06,0.414-0.12,0.827-0.18,1.241c-2.16-0.081-4.32-0.234-6.48-0.234
		c-85.124-0.012-170.248-0.01-255.372-0.013c-1.998,0-3.997-0.043-5.995-0.065C346.95,0.618,346.959,0.309,347,0
		C436.333,0,525.667,0,615,0z"/>
	<path style="fill:#EDC3AF;" d="M206,0c-0.1,0.45-0.199,0.9-0.299,1.35c-1.79-0.547-3.632-0.338-5.453-0.338
		c-62.19-0.009-124.38-0.01-186.571,0.003c-1.823,0-3.646,0.158-5.469,0.242C8.139,0.838,8.069,0.419,8,0C74,0,140,0,206,0z"/>
	<path style="fill:#EEC6B3;" d="M664.047,1.075C664.031,0.717,664.016,0.358,664,0c64,0,128,0,192,0
		c-0.071,0.425-0.142,0.851-0.213,1.276c-1.99-0.093-3.981-0.267-5.971-0.267C801.375,0.994,752.935,0.991,704.494,1
		C691.012,1.003,677.529,1.049,664.047,1.075z"/>
	<path style="fill:#CD3A27;" d="M664.047,1.075C677.529,1.049,691.012,1.003,704.494,1c48.441-0.009,96.881-0.007,145.322,0.008
		c1.99,0.001,3.981,0.174,5.971,0.267c0,2.656,0,5.312,0,8.647c-5.845,0.156-11.603,0.057-17.355,0.074
		c-5.833,0.017-11.666,0.004-17.499,0.004c-5.666,0-11.333,0-16.999,0c-5.819,0-11.638,0-18.263,0
		c43.899,123.606,87.631,246.743,131.364,369.88c0.306,0.023,0.612,0.045,0.918,0.068c44.64-123.183,89.279-246.366,134.039-369.881
		c-22.73,0-45.037,0-67.562,0c-0.902-3.052-0.36-5.932-0.408-9.016c155.129,0,309.881,0,464.975,0c0,36.471,0,72.854,0,109.386
		c-2.087,0.787-4.222,0.292-6.665,0.428c-2.14-5.618-4.179-11.195-6.381-16.706c-4.688-11.73-9.797-23.276-15.958-34.316
		c-14.499-25.978-36.409-41.908-65.58-47.567c-7.654-1.485-15.476-2.282-23.332-2.28c-36.332,0.013-72.664,0.005-108.996,0.005
		c-0.979,0-1.959,0-3.194,0c0,66.069,0,131.787,0,197.5c1.433,0.876,2.97,0.474,4.43,0.478c14.999,0.033,30,0.15,44.998-0.028
		c9.163-0.109,18.266-1.174,27.186-3.386c13.32-3.302,23.636-10.958,31.833-21.833c8.348-11.074,13.091-23.833,17.55-36.72
		c3.258-9.418,5.853-19.046,8.129-28.753c0.303-1.295,0.497-2.606,1.586-3.745c1.859,0,3.823,0,5.753,0
		c0.997,3.679,1.411,189.319,0.455,198.973c-2.02,0.717-4.143,0.247-6.388,0.37c-1.527-2.791-1.731-5.806-2.422-8.662
		c-4.101-16.959-8.317-33.865-16.161-49.619c-6.228-12.508-14.605-22.871-26.995-29.899c-8.476-4.809-17.539-6.891-27.042-7.841
		c-8.144-0.815-16.307-0.669-24.469-0.675c-10.833-0.008-21.666-0.002-32.499-0.002c-1.636,0-3.272,0-5.22,0
		c0,76.668,0,152.921,0,229.331c0.738,1.051,2.006,0.633,3.103,0.633c39.498,0.013,78.997-0.033,118.495,0.008
		c25.875,0.027,48.962-7.542,69.23-23.981c23.715-19.233,40.281-43.088,48.857-72.435c3.214-10.998,6.643-21.942,8.232-33.341
		c0.042-0.3,0.331-0.565,0.589-0.983c2.021-0.454,4.13-0.265,6.537-0.119c0,46.586,0,92.981,0,139.632
		c-129.494,0-258.89,0-388.623,0c-0.306-2.839-0.324-5.565,0.056-8.656c23.484,0,46.763,0,70.361,0c0-145.432,0-290.503,0-435.912
		c-30.678,0-61.42,0-92.692,0c-55.118,151.316-110.333,302.896-165.592,454.598c-5.522,0-10.816,0-16.651,0
		c-36.429-101.777-72.934-203.767-109.439-305.758c-0.337-0.036-0.674-0.073-1.011-0.109
		c-37.04,101.908-74.08,203.816-111.175,305.873c-5.76,0-11.388,0-17.628,0C588.302,313.552,534.256,161.927,480.171,10.189
		c-17.62,0-35.07,0-52.818,0c-57.312,151.509-114.623,303.015-172,454.697c-5.618,0-11.053,0-16.836,0
		C180.897,313.41,123.25,161.858,65.478,9.981c-18.959,0-37.896,0-57.27,0c0-3.152,0-5.938,0-8.724
		c1.823-0.084,3.646-0.241,5.469-0.242c62.19-0.013,124.38-0.012,186.571-0.003c1.821,0,3.663-0.209,5.453,0.338
		c0,2.647,0,5.294,0,8.439c-23.264,0-46.325,0-70.242,0c46.897,123.495,93.52,246.268,140.142,369.04
		c0.308,0.058,0.615,0.115,0.923,0.173c46.55-122.753,93.1-245.505,139.879-368.862c-23.48,0-46.499,0-69.765,0
		c-0.16-3.416-0.781-6.322,0.334-9.212c1.998,0.023,3.997,0.065,5.995,0.065c85.124,0.003,170.248,0.001,255.372,0.013
		c2.16,0,4.32,0.153,6.48,0.234c0,2.659,0,5.319,0,8.698c-5.454,0.125-10.875,0.045-16.29,0.059
		c-5.498,0.014-10.995,0.003-16.493,0.003s-10.995,0-16.493,0c-5.478,0-10.956,0-17.185,0
		c43.908,123.636,87.627,246.737,131.346,369.838c0.293-0.021,0.587-0.042,0.88-0.063c2.388-6.445,4.824-12.873,7.156-19.339
		c18.799-52.14,37.574-104.29,56.365-156.433c6.695-18.579,13.36-37.17,20.188-55.701c0.941-2.554,0.808-4.656-0.085-7.15
		c-12.539-34.997-24.98-70.029-37.448-105.051c-3.054-8.579-6.124-17.152-9.279-25.984c-17.685,0-35.295,0-53.243,0
		C663.645,6.937,663.945,4,664.047,1.075z"/>
	<path style="fill:#1D1B1B;" d="M626.553,604.212c-4.987,18.044-9.656,34.937-14.341,51.885c-2.389,0.528-4.491,0.3-6.719,0.145
		c-6.929-21.387-13.799-42.593-20.771-64.113c2.152-0.872,4.087-0.444,6.481-0.453c5.638,17.697,11.288,35.432,17.186,53.948
		c4.911-18.401,9.587-35.916,14.256-53.409c1.868-0.996,3.65-0.639,5.896-0.333c4.585,17.095,9.197,34.292,14.029,52.31
		c3.104-4.402,3.459-9.066,5.063-13.196c1.674-4.309,2.833-8.818,4.229-13.236c1.347-4.261,2.717-8.515,4.062-12.776
		c1.389-4.402,2.76-8.809,4.095-13.077c2.175-0.435,3.974-0.458,6.478,0.115c-6.352,21.531-13.183,42.814-19.725,63.97
		c-2.04,0.562-3.681,0.537-5.808,0.157C636.289,639.298,631.566,622.278,626.553,604.212z"/>
	<path style="fill:#1A1818;" d="M439.161,602.347c-0.583,1.752-1.456,2.727-2.436,3.599c-0.98,0.104-1.577-0.568-2.135-1.092
		c-3.689-3.465-7.792-6.201-12.784-7.373c-12.336-2.896-25.529,0.694-32.665,10.469c-11.978,16.406-2.174,39.396,17.98,42.172
		c6.366,0.877,12.593,0.627,18.605-1.729c7.149-2.802,10.272-6.632,9.895-14.272c-0.097-1.969-0.015-3.946-0.015-6.619
		c-7.569-0.25-14.82,0-22.266-0.153c-0.535-1.901-0.441-3.635-0.121-5.429c0.585-0.118,1.064-0.297,1.543-0.298
		c8.818-0.017,17.635-0.012,26.265-0.012c1.5,0.926,0.944,2.217,0.962,3.284c0.066,3.996-0.197,8.01,0.075,11.988
		c0.489,7.16-3.054,12.033-8.517,15.875c-3.724,2.619-7.973,4.139-12.446,4.76c-10.272,1.427-20.254,0.739-29.162-5.293
		c-10.909-7.388-15.668-18.08-14.496-30.857c1.263-13.76,8.95-23.537,22.004-28.189c12.608-4.493,24.816-3.38,35.74,5.158
		c0.784,0.613,1.515,1.303,2.22,2.007C437.99,600.924,438.496,601.58,439.161,602.347z"/>
	<path style="fill:#0F0E0E;" d="M740.483,603.058c0,17.587,0,35.175,0,52.628c-1.975,1.094-3.599,0.719-5.548,0.481
		c0-21.263,0-42.513,0-64.017c1.435-1.06,3.252-0.456,5.458-0.384c14.281,17.754,28.706,35.688,43.131,53.621
		c0.332-0.149,0.663-0.297,0.995-0.446c0-17.587,0-35.175,0-52.629c1.977-1.087,3.601-0.717,5.549-0.475c0,21.263,0,42.513,0,64.014
		c-1.44,1.058-3.255,0.461-5.454,0.383c-14.285-17.757-28.711-35.689-43.137-53.622C741.145,602.761,740.814,602.91,740.483,603.058
		z"/>
	<path style="fill:#1B1919;" d="M1083.64,601.955c-0.831,1.614-1.926,3.011-3.559,4.243c-5.77-3.775-11.996-6.252-18.913-6.964
		c-5.751-0.592-11.246,0.228-16.574,2.309c-1.372,0.536-2.688,1.324-3.873,2.208c-3.967,2.961-5.735,7.028-4.518,10.757
		c1.402,4.297,4.803,5.957,9.047,6.633c4.693,0.748,9.25-0.09,13.843-0.663c5.137-0.641,10.258-0.997,15.313,0.528
		c7.572,2.285,12.221,7.229,13.148,15.166c0.859,7.35-2.477,12.836-8.417,16.867c-3.632,2.465-7.761,3.852-12.05,4.432
		c-14.569,1.971-28.187,0.084-39.543-10.364c-0.598-0.55-1.466-0.807-2.079-1.132c1.358-2.436,2.568-3.762,3.904-4.984
		c1.905,0.914,3.151,2.511,4.645,3.8c5.351,4.619,11.551,7.171,18.604,7.384c5.467,0.165,10.989,0.496,16.317-1.209
		c2.043-0.654,4.154-1.316,5.972-2.41c3.554-2.138,6.266-5.058,6.084-9.586c-0.177-4.405-2.693-7.305-6.423-9.369
		c-3.319-1.837-6.926-2.151-10.59-2.201c-6.153-0.083-12.338,0.388-18.448-0.478c-6.527-0.925-12.21-3.362-14.575-10.285
		c-2.525-7.388,0.93-15.314,8.478-19.798c5.934-3.525,12.427-4.357,19.158-4.241C1068.371,592.771,1075.978,595.583,1083.64,601.955
		z"/>
	<path style="fill:#151313;" d="M1000.911,591.868c0.815,1.698,0.563,3.305,0.167,5.386c-15.197,0-30.43,0-45.897,0
		c0,7.724,0,14.982,0,22.65c8.299,0,16.546,0,24.641,0c0.867,1.825,0.602,3.291,0.344,5.193c-8.18,0.756-16.458-0.09-24.953,0.459
		c0,7.973,0,15.907,0,24.212c15.995,0,32.07,0,48.244,0c0.89,2.203,0.473,4.145,0.468,6.347c-18.522,0-36.903,0-55.49,0
		c0-21.495,0-42.738,0-64.248C966.053,591.868,983.464,591.868,1000.911,591.868z"/>
	<path style="fill:#201E1E;" d="M185.187,644.899c0-17.575,0-35.149,0-52.479c1.898-1.308,3.565-0.605,5.507-0.905
		c0,21.664,0,43.04,0,64.503c-1.511,0.754-3.153,0.368-5.334,0.186c-14.337-17.831-28.897-35.939-44.196-54.967
		c0,18.971,0,36.888,0,54.749c-2.166,0.585-3.768,0.634-5.659-0.051c0-21.187,0-42.421,0-63.733
		c1.619-1.058,3.447-0.564,5.689-0.473c14.263,17.725,28.691,35.654,43.118,53.583C184.604,645.175,184.895,645.037,185.187,644.899
		z"/>
	<path style="fill:#201E1E;" d="M1185.922,656.118c-2.449,0.517-4.565,0.251-7.593,0.171c10.422-21.779,20.59-43.029,30.757-64.276
		c1.877-0.755,3.683-0.344,5.886-0.338c10.457,21.202,20.965,42.508,31.627,64.124c-2.326,0.939-4.257,0.572-6.389,0.47
		c-3.597-7.419-7.191-14.832-10.809-22.294c-10.938,0-21.709,0-32.708,0C1193.061,641.441,1189.456,648.854,1185.922,656.118z
		 M1226.41,626.904c-4.654-9.553-8.496-18.7-13.517-28.202c-4.625,9.896-8.819,18.87-13.181,28.202
		C1208.865,626.904,1217.292,626.904,1226.41,626.904z"/>
	<path style="fill:#0D0C0C;" d="M523.828,649.879c0,2.392,0,4.023,0,6.369c-18.138,0.093-36.176,0.015-54.49,0.048
		c0-21.57,0-42.803,0-64.309c17.373,0,34.637,0,52.175,0c1.206,1.403,0.141,3.179,0.606,5.303c-15.575,0-30.643,0-45.945,0
		c0,7.669,0,14.919,0,22.548c8.09,0,16.176,0,24.058,0c1.371,1.881,0.424,3.47,0.904,5.449c-8.584,0-16.66,0-24.962,0
		c0,8.338,0,16.256,0,24.592C491.925,649.879,507.665,649.879,523.828,649.879z"/>
	<path style="fill:#201E1E;" d="M322.546,592.055c2.093-0.819,3.893-0.38,5.927-0.346c10.218,21.322,20.413,42.594,30.77,64.206
		c-2.178,0.818-4.105,0.423-6.44,0.411c-3.549-7.317-7.137-14.717-10.809-22.287c-10.822,0-21.577,0-32.764,0
		c-3.496,7.191-7.091,14.588-10.686,21.984c-1.989,0.63-3.957,0.434-6.692,0.182C302.204,634.569,312.416,613.227,322.546,592.055z
		 M325.583,598.419c-4.597,9.863-8.845,18.975-13.232,28.388c9.119,0,17.666,0,26.561,0
		C334.474,617.355,330.195,608.241,325.583,598.419z"/>
	<path style="fill:#050404;" d="M1350.494,597.045c0,7.961,0,15.075,0,22.776c8.304,0,16.676,0,24.978,0
		c0.628,1.992,0.542,3.413,0.121,5.339c-8.188,0-16.423,0-24.979,0c0,8.39,0,16.293,0,24.681c16.158,0,32.382,0,48.448,0
		c1.183,2.179,0.421,3.959,0.792,6.074c-18.628,0-36.866,0-55.182,0c-0.862-3.111-1.155-56.388-0.25-63.981
		c17.234,0,34.495,0,51.882,0c1.186,1.38,0.508,3.029,0.496,5.111C1381.505,597.045,1366.278,597.045,1350.494,597.045z"/>
	<path style="fill:#050404;" d="M831.485,597.145c0,7.882,0,14.998,0,22.61c8.203,0,16.435,0,24.355,0
		c1.357,1.815,0.856,3.28,0.759,4.639c-0.168,0.203-0.261,0.429-0.383,0.446c-8.069,1.083-16.214-0.029-24.612,0.643
		c0,8.091,0,15.997,0,24.376c16.035,0,32.102,0,48.421,0c0,2.197,0,3.947,0,6.065c-18.148,0-36.376,0-54.957,0
		c0-21.075,0-42.3,0-63.864c17.281,0,34.678,0,52.171,0c0.864,1.52,0.635,3.088,0.105,5.085
		C862.232,597.145,847.133,597.145,831.485,597.145z"/>
	<path style="fill:#1A1818;" d="M1161.773,591.85c0.318,1.927,0.435,3.558-0.148,5.52c-7.705,0-15.478,0-23.745,0
		c0,19.718,0,39.103,0,58.26c-2.052,1.102-3.677,0.802-5.746,0.552c0-19.401,0-38.779,0-58.724c-8.456,0-16.495,0-24.302,0
		c-0.926-2.173-0.541-3.766-0.428-5.607C1125.573,591.85,1143.494,591.85,1161.773,591.85z"/>
	<path style="fill:#1A1818;" d="M1293.142,656.145c-2.399,0.291-4.032,0.595-5.926-0.495c0-19.076,0-38.325,0-58.113
		c-8.209,0-16.085,0-23.807,0c-0.654-2.177-0.354-3.814-0.33-5.673c18.216,0,36.268,0,54.303,0c0.551,1.867,0.64,3.464-0.122,5.408
		c-7.871,0-15.82,0-24.117,0C1293.142,617.052,1293.142,636.48,1293.142,656.145z"/>
	<path style="fill:#050404;" d="M220.27,597.413c0-2.308,0-3.749,0-5.434c18.109,0,36.023,0,54.078,0
		c1.212,1.351,0.235,3.026,0.738,5.083c-8.258,0-16.156,0-24.708,0c-0.178,6.882-0.072,13.305-0.09,19.722
		c-0.019,6.491-0.004,12.982-0.004,19.473c0,6.466,0,12.931,0,19.344c-1.773,1.067-3.369,0.679-5.473,0.422
		c0-19.391,0-38.763,0-58.61C236.41,597.413,228.502,597.413,220.27,597.413z"/>
	<path style="fill:#242222;" d="M692.292,591.795c1.95-0.25,3.581-0.551,5.309,0.434c0,21.159,0,42.387,0,63.544
		c-1.735,0.98-3.364,0.685-5.309,0.429C692.292,634.823,692.292,613.458,692.292,591.795z"/>
	<path style="fill:#050404;" d="M93.197,591.904c1.636-0.25,3.193-0.381,4.95,0.185c0,21.214,0,42.299,0,63.528
		c-1.278,1.297-3.007,0.456-4.95,0.642C93.197,634.843,93.197,613.5,93.197,591.904z"/>
</g>
</svg>
