<?xml version="1.0" encoding="iso-8859-1"?>
<!-- Generator: Adobe Illustrator 27.0.0, SVG Export Plug-In . SVG Version: 6.00 Build 0)  -->
<svg version="1.1" id="Layer_1" xmlns="http://www.w3.org/2000/svg" xmlns:xlink="http://www.w3.org/1999/xlink" x="0px" y="0px"
	 viewBox="0 0 1506.409 141.515" style="enable-background:new 0 0 1506.409 141.515;" xml:space="preserve">
<g>
	<path style="fill:#199ED8;" d="M1505.441,43.486c0.323-0.035,0.645-0.071,0.968-0.106c0,3.667,0,7.333,0,11l-0.456-0.11
		l-0.464,0.068C1505.473,50.72,1505.457,47.103,1505.441,43.486z"/>
	<path style="fill:#1665AD;" d="M171.015,28.424c6.384,0,12.508,0,19.06,0c0,15.147,0,30.231,0,45.316
		c0.309,0.093,0.619,0.186,0.928,0.278c8.265-15.141,16.53-30.281,24.874-45.566c5.326-0.375,10.598-0.254,16.247-0.054
		c2.473,15.492,4.925,30.849,7.574,47.44c6.307-16.486,12.209-31.914,18.122-47.371c6.711,0,13.15,0,20.403,0
		c-11.062,28.521-21.943,56.573-32.819,84.614c-6.623,0-12.909,0-19.61,0c-2.566-16.117-5.116-32.13-7.703-48.375
		c-2.012,0.551-2.473,2.431-3.269,3.875c-7.541,13.667-15.021,27.369-22.531,41.054c-0.636,1.158-1.363,2.266-2.022,3.356
		c-6.412,0-12.676,0-19.253,0C171.015,84.822,171.015,56.916,171.015,28.424z"/>
	<path style="fill:#1C7CC0;" d="M6.445,99.922c30.404-14.037,92.151-15.737,127.759-0.095c-7.464,21.471-32.171,39.718-58.23,41.508
		C39.25,143.856,13.736,119.569,6.445,99.922z"/>
	<path style="fill:#1665AD;" d="M869.645,113.836c-7.364,0-13.816,0-20.6,0c-5.388-15.897-10.742-31.689-16.095-47.482
		c-0.333-0.018-0.666-0.036-0.999-0.054c-3.032,15.644-6.063,31.288-9.082,46.868c-3.483,1.122-14.689,1.296-20.232,0.248
		c5.485-28.226,10.97-56.45,16.469-84.745c7.616,0,14.746,0,22.358,0c5.102,15.083,10.228,30.237,15.353,45.39
		c0.237,0.019,0.475,0.039,0.712,0.058c2.871-15.086,5.742-30.172,8.639-45.398c6.778,0,13.209,0,20.049,0
		C880.667,57.223,875.167,85.473,869.645,113.836z"/>
	<path style="fill:#1665AD;" d="M714.331,113.891c-7.049,0-13.509,0-20.449,0c-2.781-8.117-5.568-16.224-8.338-24.338
		c-2.715-7.954-5.412-15.914-8.755-23.685c-3.11,16.015-6.221,32.031-9.311,47.944c-6.732,0-12.838,0-19.692,0
		c5.108-28.398,10.725-56.305,15.978-84.398c3.645-1.456,7.326-0.529,10.906-0.692c3.645-0.166,7.304-0.037,11.415-0.037
		c5.226,15.212,10.431,30.365,15.947,46.423c3.228-16.036,6.263-31.115,9.296-46.186c6.619,0,12.724,0,19.547,0
		C725.524,57.418,719.963,85.5,714.331,113.891z"/>
	<path style="fill:#1364AC;" d="M271.964,83.141c1.208-14.49,3.602-27.112,10.794-38.352c5.305-8.292,12.404-14.212,22.132-16.639
		c8.049-2.008,16.083-2.215,24.075,0.236c7.908,2.425,12.967,7.73,15.5,15.545c1.823,5.623,2.306,11.415,1.698,17.233
		c-0.793,7.592-2.111,15.113-4.748,22.324c-3.298,9.019-7.611,17.513-15.724,23.104c-12.159,8.379-25.461,10.115-39.277,4.73
		c-8.769-3.418-12.681-10.854-13.937-19.737C272.018,88.342,271.387,85.001,271.964,83.141z M294.19,82.678
		c0.106,2.382,0.01,4.574,0.335,6.702c0.994,6.5,5.612,9.389,11.939,7.514c3.444-1.02,6.227-2.995,8.307-6.015
		c3.752-5.448,5.767-11.525,6.966-17.958c1.305-7.003,3.194-13.914,1.824-21.179c-1.377-7.306-6.081-10.063-13.03-7.404
		c-5.027,1.923-7.989,5.912-10.042,10.547C296.549,63.78,294.545,73.158,294.19,82.678z"/>
	<path style="fill:#1565AC;" d="M1211.502,54.996c-6.573,0-12.671,0-18.669,0c-0.668-1.798,0.226-3.165,0.408-4.616
		c0.548-4.377-1.696-7.05-6.058-7.237c-7.649-0.329-13.466,2.941-17.802,9.097c-3.515,4.991-5.319,10.695-6.566,16.557
		c-1.28,6.02-2.101,12.117-1.509,18.315c0.531,5.556,2.556,7.875,7.974,9.375c6.016,1.665,11.799,0.847,17.622-1.171
		c1.173-6.147,2.317-12.142,3.518-18.436c-5.904-0.926-11.708,0.163-17.697-0.674c0.952-4.952,1.852-9.63,2.8-14.558
		c11.806,0,23.553,0,35.748,0c-2.774,14.463-5.507,28.715-8.234,42.932c-5.168,3.857-10.92,5.897-16.933,7.308
		c-9.5,2.229-18.96,2.78-28.409-0.433c-11.681-3.972-17.112-12.694-18.145-24.359c-1.108-12.512,1.475-24.509,6.92-35.785
		c9.88-20.461,29.938-28.238,50.304-23.816c7.603,1.651,13.562,5.796,15.358,13.897
		C1213.103,45.772,1212.763,50.303,1211.502,54.996z"/>
	<path style="fill:#1364AC;" d="M348.99,83.009c0.98-14.13,3.435-26.558,10.399-37.71c9.203-14.739,22.803-19.983,39.602-18.229
		c1.81,0.189,3.655,0.347,5.398,0.83c11.117,3.079,18.148,11.119,18.654,23.625c0.719,17.789-2.976,34.638-14.167,49.17
		c-5.225,6.784-12.32,10.64-20.448,12.371c-7.159,1.524-14.384,1.818-21.653-0.463c-10.456-3.28-15.735-10.555-17.272-20.929
		C349.023,88.424,348.555,85.09,348.99,83.009z M371.509,83.462c0,1.824-0.045,3.65,0.025,5.472
		c0.025,0.641,0.321,1.275,0.512,1.907c1.575,5.217,4.151,6.986,9.589,6.442c5.034-0.504,8.522-3.389,11.052-7.555
		c4.467-7.357,6.346-15.569,7.712-23.928c0.858-5.25,1.449-10.504,0.009-15.782c-1.245-4.566-3.924-6.708-8.621-6.579
		c-3.475,0.096-6.413,1.521-8.934,3.848c-2.481,2.291-4.198,5.108-5.515,8.19C373.518,64.414,371.838,73.81,371.509,83.462z"/>
	<path style="fill:#1364AC;" d="M1332.077,27.273c2.859-0.063,6.681,0.125,10.376,1.254c10.752,3.286,16.872,10.87,17.703,21.749
		c1.281,16.774-1.923,32.818-11.241,47.152c-7.355,11.314-18.067,16.752-31.519,16.968c-4.512,0.072-8.93-0.226-13.304-1.529
		c-10.436-3.109-16.418-10.311-17.443-20.79c-1.537-15.714,1.398-30.82,9.123-44.735
		C1303.431,33.55,1315.445,27.137,1332.077,27.273z M1338.458,58.875c0.043-3.522-0.035-7.003-1.553-10.275
		c-1.723-3.715-4.356-5.093-8.393-4.698c-7.02,0.686-10.99,5.31-13.617,11.068c-4.602,10.085-6.836,20.751-6.394,31.908
		c0.094,2.368,0.696,4.573,1.647,6.713c0.95,2.136,2.565,3.503,4.876,3.793c3.92,0.492,7.579-0.097,10.745-2.769
		c2.731-2.305,4.757-5.104,6.208-8.319C1335.911,77.576,1337.783,68.361,1338.458,58.875z"/>
	<path style="fill:#1364AC;" d="M476.368,79.468c3.862,2.515,5.195,6.587,5.715,10.939c0.847,7.078,1.474,14.182,2.213,21.468
		c-3.289,1.238-6.617,0.469-9.858,0.609c-3.143,0.136-6.297,0.029-9.364,0.029c-1.246-1.552-1.33-3.2-1.467-4.829
		c-0.432-5.131-0.882-10.26-1.282-15.393c-0.527-6.766-2.639-8.76-9.387-8.777c-1.319-0.003-2.637,0-4.375,0
		c-2.757,9.428-3.787,19.144-6.263,28.671c-6.585,0-13.021,0-19.959,0c5.952-28.202,11.852-56.152,17.762-84.154
		c5.035-0.669,9.684-0.373,14.303-0.288c7.297,0.133,14.621-0.74,21.893,0.669c8.588,1.665,14.991,6.94,15.875,14.442
		c1.598,13.554-2.016,25.362-13.198,34.101C478.092,77.645,476.866,77.948,476.368,79.468z M452.223,68.199
		c2.299,0,3.975,0.25,5.552-0.041c10.134-1.865,15.629-6.557,15.484-17.777c-0.056-4.326-1.906-6.015-6.088-7.234
		c-3.562-1.038-6.779,0.535-10.296,0.439C455.315,51.843,453.815,59.778,452.223,68.199z"/>
	<path style="fill:#1565AC;" d="M1229.81,28.381c11.422,0,22.444-0.608,33.37,0.157c13.081,0.916,21.328,9.2,18.848,25.285
		c-1.655,10.735-6.697,19.323-16.331,25.628c4.362,3.145,5.666,7.455,6.147,12.19c0.704,6.931,1.841,13.826,1.718,21.524
		c-6.442,0.185-12.806,0.044-19.539,0.094c-0.54-5.021-1.036-9.609-1.525-14.199c-0.316-2.971-0.54-5.955-0.952-8.912
		c-0.562-4.032-2.513-5.864-6.598-6.022c-2.28-0.088-4.625-0.424-7.092,0.387c-1.894,9.233-3.781,18.437-5.69,27.74
		c-6.717,0-13.126,0-20.061,0C1218.026,84.207,1223.871,56.518,1229.81,28.381z M1246.635,44.012
		c-1.452,7.56-2.857,14.835-4.231,22.115c-0.114,0.604-0.015,1.247-0.015,1.837c11.977,1.919,20.285-4.628,20.706-16.109
		c0.175-4.762-2.24-8.053-6.556-8.403C1253.437,43.201,1250.276,43.162,1246.635,44.012z"/>
	<path style="fill:#1565AC;" d="M1418.502,28.404c7.033,0,13.652,0,20.868,0c-1.006,5.201-1.967,10.151-2.921,15.103
		c-2.7,14.004-5.364,28.016-8.112,42.011c-1.161,5.912-3.04,11.572-6.892,16.358c-5.097,6.334-11.572,10.304-19.672,11.69
		c-7.654,1.31-15.195,1.429-22.603-1.202c-8.641-3.069-13.3-9.646-13.814-18.795c-0.332-5.916,1.032-11.56,2.143-17.251
		c3.081-15.787,6.259-31.554,9.462-47.651c3.379-0.852,6.854-0.308,10.273-0.403c3.291-0.091,6.586-0.02,10.109-0.02
		c0.398,3.962-0.852,7.28-1.484,10.618c-2.991,15.804-6.222,31.563-9.267,47.358c-1.122,5.819,0.246,9.683,3.511,10.929
		c4.945,1.887,11.361-0.084,14.231-4.489c1.742-2.675,2.594-5.702,3.187-8.833c3.332-17.598,6.711-35.188,10.096-52.776
		C1417.774,30.248,1418.135,29.485,1418.502,28.404z"/>
	<path style="fill:#1565AC;" d="M749.588,97.255c-3.171,5.416-6.188,10.569-9.201,15.715c-7.402,0-14.632,0-22.685,0
		c16.217-28.537,32.111-56.504,48.028-84.513c6.8,0,13.406,0,20.332,0c4.162,28.179,8.301,56.197,12.487,84.536
		c-7.203,0-13.941,0-20.633,0c-1.632-4.951-1.179-10.014-2.076-15.161c-4.269-1.206-8.573-0.404-12.803-0.546
		C758.716,97.142,754.387,97.255,749.588,97.255z M771.315,56.875c-3.994,7.663-7.987,15.326-12.188,23.387
		c5.419,0.396,10.239,1.579,15.365,0.34C774.385,72.643,772.459,65.032,771.315,56.875z"/>
	<path style="fill:#1364AC;" d="M1032.952,97.542c-8.476,0-16.931,0-25.704,0c-3.049,5.17-6.154,10.432-9.246,15.674
		c-7.492,0-14.777,0-22.13,0c1.5-3.573,44.921-79.4,48.406-84.548c6.178,0,12.466,0,19.366,0
		c4.155,28.068,8.302,56.081,12.496,84.41c-6.874,0-13.628,0-20.626,0C1033.716,108.256,1034.857,102.915,1032.952,97.542z
		 M1032.063,80.776c-0.983-8.208-1.875-15.649-2.766-23.09c-0.283-0.071-0.566-0.141-0.849-0.212
		c-3.986,7.669-7.973,15.338-12.113,23.302C1021.834,80.776,1026.709,80.776,1032.063,80.776z"/>
	<path style="fill:#1C7CC0;" d="M0.314,71.38C0.61,40.897,14.711,18.682,42.152,6.234c33.87-15.365,73.704-1.481,90.975,32.358
		c4.73,9.268,7.71,19.049,7.355,29.618c-0.2,0.734,0.06,1.731-1.08,1.922c-0.167-0.047-0.39-0.04-0.457-0.138
		c-0.457-0.681-0.949-1.352-1.307-2.086c-6.461-13.239-15.996-23.337-28.764-31.001c-12.175-7.309-25.341-9.326-38.946-10.577
		c-2.118-0.195-3.797,1.001-5.796,1.071c-8.255,0.289-15.984,2.424-23.583,5.788C27.213,39.093,16.553,47.951,8.353,59.92
		c-1.145,1.671-2.165,3.327-1.949,5.456c-0.003,0.33-0.007,0.661-0.01,0.991c-1.756-0.252-2.097,1.221-2.622,2.297
		C3.035,70.172,2.339,71.578,0.314,71.38z"/>
	<path style="fill:#1665AD;" d="M955.76,56.802c-7.079,0-14.179,0-21.238,0c-1.125-4.042,2.579-8.094-0.687-11.731
		c-7.147-2.23-12.002-0.501-16.197,5.947c-2.835,4.357-4.709,9.173-5.702,14.254c-1.394,7.141-3.239,14.256-1.675,21.665
		c1.318,6.245,4.573,9.163,10.932,9.545c6.35,0.381,12.121-1.555,17.728-4.242c2.325-1.114,4.506-2.616,7.677-3.24
		c-0.603,6.959-2.409,13.165-3.412,19.906c-6.523,2.989-13.549,4.801-20.831,5.342c-4.616,0.343-9.26,0.392-13.902-0.712
		c-13.757-3.271-19.678-11.99-20.927-24.062c-1.489-14.39,1.402-28.15,8.302-40.919c9.647-17.853,26.422-24.543,45.459-20.119
		C955.846,31.82,960.153,46.56,955.76,56.802z"/>
	<path style="fill:#1565AC;" d="M1505.441,43.486c0.016,3.617,0.032,7.234,0.048,10.852c-1.705,12.251-8.162,21.159-19.037,26.899
		c-4.366,2.305-9.221,2.651-14.013,2.973c-3.468,0.233-6.963,0.045-10.81,0.045c-2.741,9.553-3.798,19.268-6.303,28.858
		c-6.588,0-13.148,0-20.11,0c6.159-28.295,12.244-56.249,18.417-84.609c3.476,0,6.77,0.014,10.064-0.003
		c6.155-0.032,12.312,0.014,18.463-0.158c4.243-0.119,8.282,0.754,12.161,2.236C1500.28,32.856,1504.345,36.936,1505.441,43.486z
		 M1466.094,68.771c2.913,0.862,4.981,0.032,7.056-0.368c9.325-1.8,13.983-7.886,13.36-17.333c-0.282-4.287-2.404-6.841-6.634-7.41
		c-3.434-0.462-6.882-0.253-10.119,1.236C1468.901,53.007,1466.436,60.641,1466.094,68.771z"/>
	<path style="fill:#1B66AD;" d="M552.169,113.795c5.533-28.36,11.01-56.435,16.54-84.782c17.311,0,34.366,0,51.853,0
		c-0.187,5.976-1.956,11.437-3.042,17.156c-10.38,0-20.347,0-30.55,0c-2.321,4.399-2.08,9.306-3.617,14.345
		c9.74,0,19.142,0,29.109,0c-0.091,6.294-1.935,11.752-2.778,17.747c-9.833,0-19.419,0-29.413,0
		c-2.426,11.974-4.786,23.623-7.199,35.534C566.281,113.795,559.544,113.795,552.169,113.795z"/>
	<path style="fill:#1665AD;" d="M1084.946,95.62c10.37,0,20.274,0,30.703,0c-0.823,6.308-1.82,11.933-3.362,17.562
		c-17.291,0-34.382,0-52.042,0c5.508-28.217,10.958-56.134,16.466-84.352c6.81,0,13.548,0,21.01,0
		C1093.873,51.056,1088.847,72.919,1084.946,95.62z"/>
	<path style="fill:#1665AD;" d="M530.956,27.887c-5.516,28.555-10.905,56.457-16.312,84.447c-7.573,0-14.672,0-22.438,0
		c2.26-14.391,5.333-28.374,8.071-42.42c2.722-13.961,5.307-27.949,7.971-42.027C515.82,27.887,522.913,27.887,530.956,27.887z"/>
	<path style="fill:#1565AC;" d="M630.386,28.744c7.649,0,14.74,0,22.608,0c-5.46,28.283-10.848,56.192-16.282,84.345
		c-7.436,0-14.661,0-22.276,0C619.779,84.837,625.086,56.771,630.386,28.744z"/>
	<path style="fill:#1565AC;" d="M967.47,28.74c7.377,0,13.985,0,21.182,0c-5.467,28.279-10.869,56.223-16.314,84.388
		c-6.887,0-13.648,0-21.169,0C956.618,84.92,962.034,56.884,967.47,28.74z"/>
	<path style="fill:#A3D7F2;" d="M138.344,91.311c-0.761,2.139-1.523,4.277-2.377,6.677c-2.329-11.033-9.239-18.74-17.343-25.48
		c-3.26-2.711-7.147-4.668-10.745-6.974c-7.219-4.625-15.824-5.211-23.65-8.073c-1.032-0.378-2.309-0.097-3.473-0.103
		c-5.488-0.031-10.955-0.388-16.431-0.723c-3.784-0.231-7.704,1.161-11.509,2.056c-3.813,0.897-7.622,1.894-11.321,3.173
		c-6.094,2.108-11.534,5.58-16.927,9.009c-6.216,3.952-10.741,9.648-14.921,15.651c-2.209,3.174-3.464,6.679-4.541,10.395
		c-1.799-1.51-1.66-3.821-2.623-5.614c1.482-0.435,2.009-1.482,1.889-2.944c0.042-1.283,0.083-2.567,0.125-3.85
		c1.379-0.058,2.074-0.713,1.878-2.148c0.471-2.275,3.591-3.181,3.082-5.963c1.09-1.61,2.936-2.761,3.028-4.979
		c0.548-0.103,0.869-0.43,0.96-0.98c2.436-1.15,3.529-3.898,5.98-5.03c1.584,0.16,2.795-0.385,4.014-1.493
		c6.958-6.319,15.161-10.504,24.125-13.032c6.612-1.865,13.319-3.345,20.295-3.579c7.169-0.24,14.177,0.707,21.081,2.207
		c6.564,1.426,12.903,3.548,18.729,7.295c3.1,1.994,6.153,4.323,9.741,5.569c0.321,0.016,0.642,0.026,0.964,0.029
		c1.496,3.844,4.169,6.51,8.012,8.004c3.045,4.608,6.659,8.827,9.037,13.895C136.504,86.607,136.498,89.348,138.344,91.311z"/>
	<path style="fill:#1CACE2;" d="M4.497,84.51c-0.042,1.283-0.083,2.567-0.125,3.85c-0.725,0.041-1.45,0.082-2.175,0.124
		c-0.919-0.516-0.788-1.339-0.632-2.168c1.601-4.941,3.426-9.801,6.029-14.305c1.058-1.831,2.743-3.316,2.815-5.633l0,0
		c1.352-0.43,2.303-1.499,2.969-2.559c2.61-4.154,6.445-6.972,10.092-10.087c11.671-9.969,25.51-14.669,40.39-16.194
		c8.149-0.835,16.427-0.447,24.57,1.751c9.133,2.465,17.762,5.551,25.315,11.573c2.981,2.377,5.654,5.543,9.667,6.514l0,0
		c1.025,3.811,4.267,5.683,6.998,8.001l0,0c-0.085,1.501,0.574,2.506,2,3l0,0c0.301,2.086,0.927,3.977,2.998,5.001
		c-0.223,1.187,0.674,1.994,1.013,2.99c-0.121,1.432,0.542,2.101,1.971,2.025c0.924,1.354,1.152,2.881,1.113,4.475
		c-0.085,1.483-0.17,2.967-0.254,4.45c-0.498-0.406-1.313-0.728-1.445-1.23c-1.63-6.228-5.765-11.101-8.845-16.54
		c-0.536-0.947-1.49-1.229-2.544-1.178l-0.001,0c0.099-3.476-1.883-5.212-5.01-5.989l-0.001-0.001
		c-2.059-2.817-4.441-5.252-7.401-7.192c-6.737-4.415-13.74-8.141-21.561-10.354c-7.151-2.024-14.527-2.306-21.782-3.49
		c-2.599-0.424-4.795,1.035-7.3,1.072c-8.957,0.132-17.48,2.634-25.437,6.369c-8.863,4.16-16.536,10.239-23.104,17.619
		c-1.106,1.243-1.597,2.456-1.374,4.034c-0.092,0.551-0.412,0.877-0.96,0.98c-3.294,1.086-4.087,2.39-3.028,4.979
		c0.509,2.782-2.611,3.688-3.082,5.963C4.869,82.31,4.25,83.031,4.497,84.51z"/>
	<path style="fill:#1D88C9;" d="M6.404,65.375c-0.216-2.129,0.804-3.785,1.949-5.456c8.2-11.968,18.86-20.827,32.196-26.731
		c7.598-3.364,15.328-5.5,23.583-5.788c2-0.07,3.678-1.265,5.796-1.071c13.605,1.25,26.771,3.268,38.946,10.577
		c12.768,7.664,22.302,17.762,28.764,31.001c0.358,0.734,0.85,1.405,1.307,2.086c0.066,0.099,0.289,0.092,0.457,0.138
		c1.141-0.191,0.88-1.188,1.08-1.922c1.401,3.064,1.032,6.116-0.064,9.163c-0.326-0.339-0.809-0.622-0.955-1.026
		c-3.111-8.662-7.88-16.246-14.354-22.814c-4.199-4.259-8.99-7.648-13.869-11.077c-6.164-4.332-13.008-6.741-19.964-9.037
		c-4.034-1.331-8.347-1.568-12.49-2.446c-4.806-1.018-9.738-1.192-14.31-0.319c-7.121,1.358-14.249,2.597-21.222,5.362
		c-9.112,3.614-16.775,8.839-24.052,15.049C14.281,55.263,11.001,60.903,6.404,65.375z"/>
	<path style="fill:#1B93D1;" d="M6.404,65.375c4.597-4.473,7.877-10.113,12.797-14.311c7.277-6.209,14.94-11.435,24.052-15.049
		c6.973-2.766,14.101-4.004,21.222-5.362c4.573-0.872,9.505-0.699,14.31,0.319c4.143,0.878,8.456,1.115,12.49,2.446
		c6.957,2.296,13.8,4.705,19.964,9.037c4.88,3.429,9.67,6.818,13.869,11.077c6.474,6.567,11.243,14.152,14.354,22.814
		c0.145,0.404,0.629,0.687,0.955,1.026c-0.198,1.85,0.645,3.874-0.913,5.499c0.04-1.594-0.189-3.121-1.113-4.475
		c0.129-1.44-0.535-2.108-1.971-2.025c-0.339-0.996-1.236-1.804-1.013-2.99c0.037-2.288-0.129-4.456-2.998-5.001l0,0
		c-0.029-1.425,0.365-3.132-2-3l0,0c-0.343-4.408-3.29-6.537-6.998-8.001l0,0c0.16-1.321-0.638-2.148-1.48-2.99
		c-2.923-2.922-6.27-5.286-9.522-7.814c-10.848-8.433-23.511-11.364-36.571-13.096c-7.899-1.048-15.728,0.679-23.448,2.421
		C37.578,39.24,25.566,47.362,15.278,58.167c-2.137,2.245-5.045,4.425-4.87,8.212l0,0c-2.316-0.313-2.09,2.771-4.003,2.996
		c-0.004-1.003-0.007-2.006-0.011-3.008C6.397,66.036,6.401,65.706,6.404,65.375z"/>
	<path style="fill:#3FBBEA;" d="M126.417,68.372c1.054-0.051,2.008,0.232,2.544,1.178c3.079,5.439,7.214,10.312,8.845,16.54
		c0.131,0.502,0.947,0.824,1.445,1.23c-0.361,1.317-1.077,2.553-0.906,3.99c-1.847-1.963-1.841-4.703-2.921-7.006
		c-2.378-5.068-5.993-9.287-9.037-13.895C126.396,69.731,126.407,69.052,126.417,68.372z"/>
	<path style="fill:#199ED8;" d="M6.405,69.375c1.913-0.226,1.687-3.309,4.003-2.996c-0.072,2.317-1.756,3.801-2.815,5.633
		c-2.603,4.504-4.428,9.363-6.029,14.305c-0.443-1.98-1.627-3.836-1.003-5.994c1.802-3.02,3.629-6.026,5.384-9.073
		C6.253,70.713,6.259,70.004,6.405,69.375z"/>
	<path style="fill:#1D88C9;" d="M6.405,69.375c-0.145,0.629-0.151,1.338-0.459,1.873c-1.755,3.047-3.582,6.053-5.384,9.073
		c-0.539-2.968-0.815-5.943-0.246-8.941c2.025,0.197,2.72-1.208,3.457-2.717c0.525-1.076,0.867-2.549,2.622-2.297
		C6.397,67.369,6.401,68.372,6.405,69.375z"/>
	<path style="fill:#3FBBEA;" d="M2.196,88.484c0.725-0.041,1.45-0.082,2.175-0.124c0.12,1.463-0.407,2.51-1.889,2.944
		C2.387,90.364,2.292,89.424,2.196,88.484z"/>
	<path style="fill:#3FBBEA;" d="M13.444,70.44c-0.223-1.578,0.268-2.791,1.374-4.034c6.568-7.38,14.241-13.459,23.104-17.619
		c7.958-3.735,16.48-6.237,25.437-6.369c2.506-0.037,4.701-1.496,7.3-1.072c7.255,1.184,14.631,1.466,21.782,3.49
		c7.821,2.213,14.824,5.939,21.561,10.354c2.96,1.94,5.343,4.375,7.401,7.192c-1.01,0.008-2.021,0.016-3.031,0.023
		c-0.321-0.003-0.643-0.013-0.964-0.029c0.066-2.395-1.77-3.641-3.367-4.606c-6.901-4.166-13.991-7.907-21.871-10.076
		c-11.257-3.099-22.608-4.508-34.122-2.236c-10.018,1.977-19.621,5.263-28.234,10.99c-3.845,2.556-7.895,4.851-10.391,8.961
		C16.973,66.542,15.88,69.29,13.444,70.44z"/>
	<path style="fill:#66C5ED;" d="M19.425,65.41c2.496-4.11,6.547-6.405,10.391-8.961c8.613-5.727,18.215-9.013,28.234-10.99
		c11.513-2.272,22.865-0.863,34.122,2.236c7.88,2.17,14.97,5.91,21.871,10.076c1.598,0.965,3.433,2.211,3.367,4.606
		c-3.588-1.246-6.642-3.575-9.741-5.569c-5.826-3.747-12.165-5.868-18.729-7.295c-6.904-1.5-13.912-2.447-21.081-2.207
		c-6.977,0.234-13.683,1.714-20.295,3.579c-8.965,2.528-17.168,6.713-24.125,13.032C22.219,65.025,21.009,65.57,19.425,65.41z"/>
	<path style="fill:#66C5ED;" d="M118.374,62.406c1.01-0.008,2.021-0.016,3.031-0.023l0.001,0.001
		c0.401,3.058,2.887,4.372,5.01,5.989l0.001,0c-0.01,0.679-0.021,1.358-0.031,2.037C122.542,68.916,119.87,66.25,118.374,62.406z"/>
	<path style="fill:#3FBBEA;" d="M9.456,76.399c-1.059-2.589-0.266-3.893,3.028-4.979C12.392,73.638,10.546,74.789,9.456,76.399z"/>
	<path style="fill:#3FBBEA;" d="M4.497,84.51c-0.247-1.479,0.372-2.201,1.878-2.148C6.571,83.797,5.875,84.452,4.497,84.51z"/>
	<path style="fill:#199ED8;" d="M10.408,66.378c-0.175-3.787,2.733-5.967,4.87-8.212c10.287-10.805,22.3-18.927,37.111-22.269
		c7.72-1.742,15.549-3.468,23.448-2.421c13.06,1.732,25.723,4.663,36.571,13.096c3.252,2.528,6.6,4.891,9.522,7.814
		c0.842,0.842,1.64,1.669,1.48,2.99c-4.013-0.971-6.685-4.137-9.667-6.514c-7.553-6.022-16.182-9.109-25.315-11.573
		c-8.143-2.197-16.421-2.586-24.57-1.751c-14.88,1.525-28.719,6.224-40.39,16.194c-3.647,3.115-7.482,5.932-10.092,10.087
		C12.711,64.88,11.76,65.948,10.408,66.378z"/>
	<path style="fill:#199ED8;" d="M123.411,57.377c3.708,1.464,6.656,3.594,6.998,8.001C127.678,63.061,124.436,61.188,123.411,57.377
		z"/>
	<path style="fill:#3FBBEA;" d="M126.416,68.373c-2.123-1.617-4.609-2.931-5.01-5.989C124.533,63.161,126.514,64.897,126.416,68.373
		z"/>
	<path style="fill:#199ED8;" d="M132.41,68.378c2.87,0.546,3.035,2.713,2.998,5.001C133.337,72.355,132.711,70.464,132.41,68.378z"
		/>
	<path style="fill:#199ED8;" d="M130.409,65.379c2.365-0.133,1.971,1.575,2,3C130.983,67.885,130.325,66.88,130.409,65.379z"/>
	<path style="fill:#199ED8;" d="M136.422,76.37c1.436-0.083,2.1,0.585,1.971,2.025C136.964,78.471,136.3,77.802,136.422,76.37z"/>
</g>
</svg>
