<?xml version="1.0" encoding="iso-8859-1"?>
<!-- Generator: Adobe Illustrator 27.0.0, SVG Export Plug-In . SVG Version: 6.00 Build 0)  -->
<svg version="1.1" id="Layer_1" xmlns="http://www.w3.org/2000/svg" xmlns:xlink="http://www.w3.org/1999/xlink" x="0px" y="0px"
	 viewBox="0 0 1539 432" style="enable-background:new 0 0 1539 432;" xml:space="preserve">
<g>
	<path style="fill:#EAAA22;" d="M1207,0c0.667,0,1.333,0,2,0c1.587,1.869,3.73,0.952,5.586,0.954
		c74.099,0.068,148.199,0.073,222.298,0.087c0.315,0.947,0.706,1.877,0.935,2.845c7.399,31.356,14.767,62.72,22.173,94.074
		c12.521,53.011,25.071,106.014,37.598,159.024c9.166,38.788,18.307,77.582,27.477,116.369c4.623,19.554,9.287,39.099,13.933,58.648
		c-54.667,0-109.333,0-164,0c-0.093-1.319-0.033-2.669-0.3-3.952c-8.613-41.296-17.249-82.587-25.9-123.875
		c-9.638-46-19.287-91.999-28.973-137.989c-0.287-1.361-0.289-2.964-1.724-3.97c-1.584,0.836-1.637,2.438-2.039,3.789
		c-3.837,12.89-7.625,25.794-11.451,38.687c-22.014,74.175-44.034,148.348-66.054,222.521c-0.465,1.566-1.268,3.088-0.559,4.789
		c-68,0-136,0-204,0c-0.094-0.655-0.106-1.335-0.293-1.963c-9.882-33.121-19.797-66.233-29.67-99.357
		c-16.376-54.94-32.723-109.889-49.103-164.829c-0.397-1.332-0.473-2.939-2.357-3.88c-1.478,3.252-1.862,6.546-2.55,9.729
		c-7.268,33.627-14.507,67.261-21.732,100.898c-6.457,30.063-12.87,60.135-19.334,90.197C903.999,385.869,898.989,408.932,894,432
		c-58.333,0-116.667,0-175,0c-0.06-0.361-0.12-0.722-0.181-1.084c-0.037-0.816-1.003-1.61,0.114-2.463
		c0.758-0.579,1.139-1.486,1.024-2.509c2.269-6.471,3.607-13.165,4.753-19.905c-0.411-3.626,0.936-7.007,1.459-10.503
		c0.316-0.013,0.87,0.064,0.915-0.053c1.261-3.312,2.533-6.631,1.969-10.294c-0.316-2.529,1.086-4.74,1.328-7.165
		c2.467-0.61,1.49-2.556,1.585-4.086l-0.032,0.074c1.445-1.737,1.599-3.723,1.119-5.829c0.214-4.637,1.929-8.947,2.969-13.4
		c3.57-15.296,7.244-30.568,10.901-45.843c2.327-9.719,4.736-19.418,7.036-29.142c7.841-33.15,15.642-66.311,23.476-99.463
		c5.169-21.875,10.384-43.739,15.555-65.613c6.24-26.4,12.486-52.799,18.665-79.213c2.602-11.125,5.041-22.288,7.554-33.434
		c0.319-0.393,0.638-0.787,0.957-1.18c8.821,0.035,17.642,0.098,26.463,0.101c68.08,0.023,136.159,0.035,204.239,0.051
		c0.415,1.262,0.865,2.514,1.241,3.787c6.997,23.728,13.98,47.461,20.977,71.189c17.941,60.837,35.89,121.671,53.818,182.512
		c0.457,1.551,0.631,3.2,2.049,4.352c1.505-1.122,1.672-2.624,2.084-4.013c8.211-27.697,16.442-55.388,24.641-83.089
		c16.54-55.881,33.073-111.765,49.565-167.66C1206.023,5.475,1207.558,2.952,1207,0z"/>
	<path style="fill:#056A39;" d="M819.209,2.075c-2.513,11.146-4.951,22.309-7.554,33.434c-6.179,26.414-12.425,52.813-18.665,79.213
		c-5.17,21.874-10.385,43.738-15.555,65.613c-7.835,33.152-15.635,66.312-23.476,99.463c-2.3,9.725-4.709,19.424-7.036,29.142
		c-3.657,15.276-7.331,30.547-10.901,45.843c-1.039,4.453-2.755,8.763-2.969,13.4c-1.362,1.753-1.267,3.786-1.119,5.829l0.032-0.074
		c-1.78,0.876-0.708,2.859-1.585,4.086c-0.242,2.426-1.644,4.636-1.328,7.165c-1.764,3.225-1.74,6.949-2.884,10.347
		c-0.523,3.496-1.871,6.877-1.459,10.503c-0.727,0.149-1.211,0.649-1.367,1.301c-1.39,5.801-2.749,11.61-4.08,17.425
		c-0.111,0.486,0.193,0.943,0.694,1.179c0.115,1.023-0.266,1.93-1.024,2.509c-1.117,0.853-0.151,1.646-0.114,2.463
		c-2.33,0.028-4.66,0.08-6.991,0.081c-71.916,0.004-143.833,0.003-215.749,0.005c-1.498,0-2.996,0.014-4.494,0.024
		c-0.723,0.005-1.254,0.329-1.585,0.974c-0.667,0-1.333,0-2,0c0.536-1.532-0.209-2.868-0.619-4.271
		c-11.842-40.478-23.665-80.961-35.505-121.44c-12.959-44.306-25.925-88.609-38.924-132.903c-0.432-1.472-0.524-3.232-2.065-4.301
		c-1.961,1.932-2.123,4.373-2.777,6.533c-5.005,16.527-9.897,33.089-14.825,49.639c-15.449,51.875-30.885,103.753-46.357,155.621
		c-4.984,16.707-10.062,33.385-15.097,50.077c-2.164,0.015-4.328,0.044-6.492,0.044c-72.419,0.002-144.838,0.002-217.258,0.003
		c-1.498,0-2.996,0.014-4.494,0.024c-0.723,0.005-1.254,0.33-1.586,0.974c-0.667,0-1.333,0-2,0c0.714-1.315,0.076-2.616-0.207-3.833
		c-6.374-27.494-12.801-54.976-19.23-82.458c-10.816-46.234-21.658-92.463-32.459-138.701
		C34.849,150.262,21.608,93.512,8.396,36.756C5.8,25.602,3.365,14.41,0.855,3.235C1.24,0.089,3.696,1.029,5.487,1.028
		C62.289,1.003,119.092,1.02,175.894,1.031c2.031,9.245,4.114,18.478,6.082,27.736c5.873,27.627,11.699,55.264,17.547,82.896
		c7.5,35.434,15.015,70.865,22.504,106.302c3.401,16.093,6.726,32.203,10.197,48.282c0.259,1.201-0.01,3.133,2.046,3.505
		c1.334-1.947,1.728-4.103,2.345-6.142c8.029-26.532,16.023-53.076,23.997-79.625c15.233-50.715,30.375-101.457,45.729-152.134
		c3.123-10.308,5.813-20.764,9.688-30.84c67.634,0.004,135.267,0.008,202.901,0.012c0.282,0.601,0.648,1.177,0.833,1.807
		c17.141,58.459,34.268,116.923,51.396,175.386c8.401,28.675,16.778,57.357,25.251,86.01c0.566,1.914,0.51,4.3,2.666,5.682
		c1.422-1.403,1.444-3.158,1.775-4.682c2.791-12.824,5.459-25.675,8.187-38.512c6.215-29.248,12.457-58.49,18.663-87.74
		c6.482-30.552,12.905-61.116,19.414-91.662c3.289-15.434,6.709-30.841,10.07-46.26C690.999,1.033,724.813,1.013,758.626,1
		c18.489-0.007,36.979-0.022,55.468,0.034C815.819,1.04,817.81,0.263,819.209,2.075z"/>
	<path style="fill:#EFBC5B;" d="M1051,0c-0.044,0.349-0.088,0.697-0.132,1.046c-68.08-0.015-136.159-0.027-204.239-0.051
		c-8.821-0.003-17.642-0.066-26.463-0.101C820.071,0.604,820.015,0.306,820,0C897,0,974,0,1051,0z"/>
	<path style="fill:#51825A;" d="M331.831,430.955c0.056,0.348,0.113,0.697,0.169,1.045c-76.667,0-153.333,0-230,0
		c0.332-0.645,0.863-0.969,1.586-0.974c1.498-0.01,2.996-0.024,4.494-0.024c72.419-0.001,144.838-0.001,217.258-0.003
		C327.502,430.999,329.666,430.97,331.831,430.955z"/>
	<path style="fill:#51825A;" d="M490,432c0.332-0.645,0.862-0.97,1.585-0.974c1.498-0.01,2.996-0.024,4.494-0.024
		c71.916-0.001,143.833,0,215.749-0.005c2.33,0,4.66-0.053,6.991-0.081c0.06,0.361,0.12,0.722,0.181,1.084
		C642.667,432,566.333,432,490,432z"/>
	<path style="fill:#EFBC5B;" d="M1437,0c-0.038,0.347-0.077,0.694-0.116,1.041c-74.099-0.014-148.199-0.019-222.298-0.087
		C1212.73,0.952,1210.587,1.869,1209,0C1285,0,1361,0,1437,0z"/>
	<path style="fill:#51825A;" d="M519,0c-0.023,0.34-0.047,0.681-0.07,1.021c-67.634-0.004-135.267-0.008-202.901-0.012
		C316.019,0.673,316.01,0.336,316,0C383.667,0,451.333,0,519,0z"/>
	<path style="fill:#52825A;" d="M176,0c-0.035,0.344-0.071,0.687-0.106,1.031C119.092,1.02,62.289,1.003,5.487,1.028
		C3.696,1.029,1.24,0.089,0.855,3.235C0.537,3.277,0.252,3.199,0,3c0-1,0-2,0-3C58.667,0,117.333,0,176,0z"/>
	<path style="fill:#528259;" d="M820,0c0.015,0.306,0.071,0.604,0.166,0.895c-0.319,0.393-0.638,0.787-0.957,1.18
		c-1.399-1.812-3.39-1.035-5.115-1.041C795.605,0.978,777.116,0.994,758.626,1c-33.814,0.013-67.628,0.033-101.441,0.049
		C657.123,0.7,657.062,0.35,657,0C711.333,0,765.667,0,820,0z"/>
	<path style="fill:#CCC49D;" d="M719.958,425.945c-0.501-0.236-0.805-0.693-0.694-1.179c1.331-5.815,2.69-11.624,4.08-17.425
		c0.156-0.652,0.641-1.152,1.367-1.301C723.564,412.779,722.227,419.473,719.958,425.945z"/>
	<path style="fill:#CAC39A;" d="M726.17,395.536c1.144-3.398,1.12-7.122,2.884-10.347c0.564,3.662-0.708,6.982-1.969,10.294
		C727.041,395.6,726.487,395.523,726.17,395.536z"/>
	<path style="fill:#C4BE93;" d="M731.935,374.013c-0.148-2.043-0.243-4.076,1.119-5.829
		C733.533,370.29,733.38,372.275,731.935,374.013z"/>
	<path style="fill:#C4BE93;" d="M730.382,378.024c0.877-1.227-0.196-3.209,1.585-4.086
		C731.872,375.469,732.849,377.414,730.382,378.024z"/>
</g>
</svg>
