<?xml version="1.0" encoding="iso-8859-1"?>
<!-- Generator: Adobe Illustrator 27.0.0, SVG Export Plug-In . SVG Version: 6.00 Build 0)  -->
<svg version="1.1" id="Layer_1" xmlns="http://www.w3.org/2000/svg" xmlns:xlink="http://www.w3.org/1999/xlink" x="0px" y="0px"
	 viewBox="0 0 1613.042 711" style="enable-background:new 0 0 1613.042 711;" xml:space="preserve">
<g>
	<path style="fill:#080707;" d="M228,711c-0.359-1.395-1.526-1.063-2.424-1.019c-25.565,1.254-48.594-7.4-71.051-18.219
		c-6.426-3.096-12.763-6.385-18.532-10.647c-10.457-7.726-18.976-17.109-25.052-28.693c-8.971-17.103-10.343-34.751-4.216-53.024
		c5.141-15.331,13.681-28.71,23.708-41.229c15.385-19.208,33.432-35.735,52.076-51.659c36.597-31.257,73.811-61.774,110.816-92.543
		c16.927-14.075,34.94-26.563,53.116-38.88c1.366-0.926,2.718-1.872,4.051-2.792c3.477-21.863,14.322-39.884,28.182-56.394
		c14.043-16.728,26.592-34.483,36.934-53.757c5.362-9.993,9.666-20.313,10.963-31.746c0.548-4.834,0.494-9.641,0.471-14.463
		c-0.047-9.892,7.761-15.103,16.882-11.182c3.272,1.407,6.046,3.522,8.264,6.287c5.011,6.25,7.484,13.504,8.852,21.348
		c2.148,12.315-2.208,22.869-8.239,33.032c-5.88,9.909-13.214,18.773-20.547,27.599c-13.401,16.13-26.986,32.108-40.527,48.121
		c-3.787,4.479-7.392,9.068-8.329,15.057c-0.579,3.699-1.478,7.581,1.531,10.643c2.316,0.543,3.74-0.84,5.337-1.614
		c13.985-6.776,26.651-15.631,38.93-25.041c9.645-7.391,19.11-15.019,28.568-22.65c5.975-4.821,11.073-10.59,16.616-15.879
		c6.267-5.979,12.638-11.791,20.798-15.251c3.717-1.576,7.591-2.682,11.488-3.009c6.002-0.505,10.506,2.06,12.245,9.807
		c0.47,2.091,0.563,4.266,1.554,6.49c3.763,0.696,7.509,0.364,11.144-0.939c28.205-10.113,56.472-20.057,84.508-30.637
		c6.349-2.396,12.494-5.418,19.259-6.593c4.224-0.734,8.39-2.074,12.775-0.664c1.882,0.605,3.469,1.47,4.064,3.313
		c2.079,6.435,5.037,12.704,3.822,19.805c-0.536,3.131-1.456,6.104-2.693,9.02c-3.815,8.996-7.904,17.896-9.934,27.54
		c-0.656,3.115-0.809,6.247-0.714,9.425c0.18,6.025,3.904,6.661,7.899,3.769c6.194-4.485,12.376-8.988,18.597-13.436
		c20.965-14.99,42.19-29.599,63.783-43.673c4.363-2.844,9.036-4.711,14.15-5.85c3.615-0.806,6.981-0.331,10.33,0.552
		c4.504,1.188,7.226,5.277,7.522,10.64c0.389,7.058-1.253,13.89-2.487,20.747c-1.587,8.817-3.695,17.544-5.119,26.384
		c-1.004,6.233-1.293,12.595,0.493,18.819c1.87,6.519,6.222,8.386,12.185,6.458c3.186-1.03,6.049-2.693,8.978-4.22
		c22.076-11.508,44.117-23.102,64.729-37.136c12.369-8.421,24.464-17.245,36.631-25.96c2.564-1.837,4.922-3.965,7.34-6.001
		c5.288-4.452,11.267-7.576,17.901-9.489c2.14-0.617,4.236-0.674,6.371,0.02c10.34,3.359,15.765,14.028,12.178,24.271
		c-4.382,12.514-8.921,24.977-14.909,36.837c-1.272,2.52-1.64,5.062-1.257,7.732c0.71,4.953,4.837,7.391,9.502,5.581
		c1.522-0.591,3.009-1.467,4.271-2.505c12.608-10.368,26.022-19.642,39.312-29.083c11.253-7.994,22.448-16.053,33.263-24.651
		c6.245-4.965,13.245-8.721,21.036-11.009c4.607-1.353,8.224-0.136,11.395,2.901c5.881,5.634,7.283,12.897,6.623,20.612
		c-0.553,6.462-2.668,12.649-4.008,18.976c-2.269,10.717-4.716,21.408-6.054,32.287c-0.636,5.174,0.477,10.273,2.547,15.053
		c2.611,6.027,6.956,8.487,13.545,7.744c7.114-0.802,13.891-3.167,20.837-4.752c17.461-3.984,35.028-7.419,52.656-10.561
		c19.443-3.466,38.877-6.989,58.344-10.319c11.948-2.043,23.949-3.772,35.927-5.636c9.857-1.534,19.773-2.561,29.69-3.611
		c6.877-0.728,13.671,0.271,20.425,0.921c11.238,1.082,22.395,3.005,33.589,4.553c11.846,1.638,23.504,4.26,35.199,6.685
		c16.594,3.441,33.247,6.721,50.126,8.144c17.754,1.497,35.57,1.971,53.416,0.632c13.42-1.007,26.798-2.811,40.323-2.368
		c9.672,0.317,19.288,1.047,28.737,3.102c4.127,0.898,8.651,1.764,10.167,7.147c-1.052,4.23-4.225,7.208-7.442,10.057
		c-7.076,6.269-15.591,9.266-24.817,10.618c-12.27,1.799-24.606,1.035-36.911,0.923c-13.153-0.12-26.31-0.527-39.449-1.162
		c-12.962-0.626-25.955-0.869-38.865-2.363c-14.543-1.683-28.662-5.435-42.86-8.82c-16.447-3.922-32.813-8.247-49.475-11.171
		c-13.627-2.392-27.382-3.369-41.254-2.693c-20.974,1.022-41.628,4.3-62.248,8.065c-24.969,4.56-49.717,10.071-74.329,16.235
		c-15.306,3.834-30.848,6.444-46.39,9.108c-10.106,1.732-20.161,2.218-30.302,0.888c-9.652-1.266-17.869-5.038-23.153-13.715
		c-1.495-2.455-2.279-5.066-2.431-7.995c-0.506-9.758,1.169-19.209,3.591-28.584c1.387-5.369,2.032-10.716,0.552-16.242
		c-2.069-7.725-7.147-8.134-11.749-4.405c-5.299,4.294-10.788,8.365-15.952,12.813c-14.26,12.282-28.505,24.586-42.526,37.138
		c-6.072,5.436-11.818,11.232-18.517,15.925c-3.81,2.669-7.705,5.205-12.219,6.589c-4.304,1.319-8.069,0.761-11.474-2.511
		c-6.442-6.189-9.601-13.627-8.279-22.468c1.89-12.637,4.866-25.057,8.515-37.314c0.995-3.341,2.665-6.411,3.498-9.829
		c0.564-2.312,0.824-4.586,0.728-6.907c-0.19-4.607-2.629-6.602-7.195-5.851c-2.965,0.488-5.674,1.75-8.359,3.085
		c-7.614,3.784-14.433,8.852-21.655,13.267c-28.496,17.422-55.988,36.413-84.401,53.963c-4.934,3.048-9.905,6.069-15.582,7.65
		c-9.701,2.702-18.821-1.51-22.935-10.828c-2.967-6.721-3.383-13.802-2.496-21.026c1.256-10.233,3.616-20.25,5.933-30.269
		c0.769-3.326,0.918-6.641,0.341-9.904c-1.235-6.981-4.586-8.352-10.349-4.267c-3.526,2.499-6.898,5.235-10.201,8.028
		c-16.911,14.301-33.826,28.599-50.633,43.022c-5.813,4.989-11.486,10.126-17.967,14.262c-1.121,0.715-2.219,1.47-3.375,2.124
		c-11.476,6.504-22.657,5.208-32.632-3.55c-5.037-4.422-6.528-9.775-5.153-16.174c1.684-7.838,4.872-15.14,8.122-22.389
		c4.036-9.003,6.633-18.409,8.162-28.085c0.694-4.388,0.993-8.952-0.408-13.36c-1.844-5.804-5.998-8.203-11.914-6.77
		c-4.679,1.134-9.246,2.705-13.566,4.801c-23.238,11.276-45.074,24.872-65.798,40.258c-7.122,5.288-12.466,11.865-14.496,20.827
		c-0.833,3.677-0.624,7.286-0.341,10.912c1.094,13.982,0.92,27.943,0.042,41.937c-0.876,13.966-2.579,27.796-5.143,41.545
		c-6.521,34.96-18.173,68.103-34.843,99.513c-18.282,34.448-41.65,64.953-70.97,90.689c-23.64,20.75-49.971,37.298-79.2,49.22
		c-16.062,6.552-32.519,11.405-49.702,13.644c-4.602,0.6-9.208,1.482-13.9,1.359c-0.888-0.023-2.052-0.415-2.508,0.914c-1,0-2,0-3,0
		c-0.074-0.149-0.13-0.418-0.224-0.431c-6.179-0.893-12.361-0.904-18.539,0.007c-0.098,0.014-0.159,0.277-0.238,0.424
		C229.333,711,228.667,711,228,711z M471.349,359.077c-1.674-1.365-3.535-1.063-5.593-0.705c-3.524,0.614-5.665,3.322-8.455,5.022
		c-16.234,9.894-33.515,17.372-51.769,22.641c-6.899,1.991-13.855,3.606-21.11,2.833c-3.472-0.37-6.911-0.949-10.42-1.084
		c-2.619-0.101-4.717,0.459-6.877,2.103c-11.914,9.065-23.959,17.957-35.96,26.908c-22.812,17.016-45.497,34.187-67.195,52.632
		c-22.735,19.327-44.557,39.639-65.821,60.556c-11.398,11.212-23.289,21.935-33.744,34.09
		c-8.844,10.282-16.177,21.368-20.745,34.301c-5.653,16.005-2.828,30.306,7.312,43.531c1.341,1.749,3,3.056,4.809,4.277
		c19.751,13.334,41.734,20.201,65.319,21.687c18.634,1.175,37.301,0.314,55.918-1.134c2.981-0.232,6.008-0.445,8.904-1.131
		c26.455-6.268,51.457-16.15,74.838-30.11c29.393-17.551,52.454-41.114,68.652-71.366c13.194-24.642,20.951-51.099,26.652-78.278
		c2.591-12.353,4.299-24.859,6.539-37.27c2.857-15.827,7.271-31.33,9.947-47.202C474.915,387.357,476.617,373.377,471.349,359.077z"
		/>
	<path style="fill:#070606;" d="M0,336c1.789-0.837,1.061-2.655,1.374-3.964c3.994-16.699,12.06-31.52,20.992-45.942
		c10.083-16.28,21.847-31.381,32.975-46.93c8.51-11.891,16.556-24.115,25.142-35.95c7.469-10.295,16.521-19.153,26.467-27.092
		c5.728-4.571,11.542-8.98,18.579-11.408c0.94-0.324,1.876-0.677,2.84-0.908c5.956-1.432,10.719,0.981,12.469,6.878
		c2.463,8.3,1.692,16.419-2.514,24.101c-5.906,10.787-12.345,21.252-19.137,31.497c-13.596,20.508-29.554,38.954-47.932,55.351
		c-8.206,7.321-15.805,15.289-22.434,24.119c-5.019,6.685-9.213,13.793-11.367,21.959c-0.905,3.43-1.014,6.909-0.513,10.4
		c0.636,4.433,3.65,7.267,7.496,8.199c6.763,1.639,12.901-0.163,18.881-2.66c8.612-3.596,16.367-8.643,23.741-14.428
		c12.688-9.954,25.887-19.228,39.522-27.857c20.015-12.666,38.606-27.219,56.571-42.597c6.743-5.772,12.043-12.885,17.729-19.633
		c5.481-6.504,11.108-12.874,18.193-17.729c5.912-4.051,12.206-6.161,19.645-5.584c8.017,0.622,11.409,5.911,12.114,13.669
		c0.598,6.587-1.598,12.666-5.08,18.407c-8.033,13.247-17.483,25.491-26.382,38.128c-9.563,13.58-19.143,27.158-26.172,42.305
		c-2.66,5.732-4.781,11.641-5.655,17.954c-0.536,3.87-0.066,7.665,0.95,11.341c1.242,4.493,3.577,6.143,8.302,6.51
		c6.412,0.499,12.546-0.838,18.594-2.809c5.077-1.654,9.778-3.927,14.248-6.935c22.666-15.257,44.616-31.449,65.076-49.581
		c35.074-31.084,65.579-66.201,92.246-104.711c9.845-14.218,19.382-28.652,27.724-43.777c14.202-25.748,29.536-50.794,45.243-75.629
		c4.529-7.161,8.441-14.678,11.831-22.42c4.452-10.167,4.885-20.972,3.844-31.837c-0.411-4.295-0.764-8.603-1.48-12.886
		c-1.035-6.19,0.496-8.546,6.03-11.626C481.417,1.222,483.181,1.53,484,0c1.333,0,2.667,0,4,0
		c11.13,3.318,18.025,11.17,22.621,21.363c1.355,3.006,2.337,6.192,3.345,9.341c4.647,14.519,1.012,27.84-6.081,40.592
		c-5.5,9.888-11.833,19.229-18.652,28.264c-12.425,16.464-22.66,34.394-34.197,51.454c-5.585,8.259-11.333,16.41-16.856,24.71
		c-7.271,10.928-12.911,22.809-19.616,34.067c-11.776,19.771-25.865,37.885-40.473,55.603
		c-17.523,21.255-37.223,40.394-57.385,59.105c-11.842,10.989-23.528,22.118-36.496,31.816c-17.236,12.89-35.582,23.8-55.866,31.145
		c-9.656,3.496-19.515,6.367-29.97,6.533c-4.099,0.065-7.767-1.58-11.695-2.17c-5.717-0.859-11.418-1.969-16.956-3.805
		c-6.487-2.151-12.504-7.535-12.861-17.068c-0.308-8.239,1.029-16.282,2.534-24.25c0.683-3.617-0.992-6.827,0.076-10.546
		c-6.388,0.157-12.033,1.831-17.502,4.195c-15.435,6.671-29.65,15.537-43.921,24.328c-11.163,6.876-21.782,14.643-33.462,20.667
		c-7.736,3.99-15.784,6.836-24.71,6.709c-6.201-0.088-11.788-1.85-16.796-5.315c-11.451-7.922-20.035-17.9-22.329-32.213
		C0.72,354.315,0.261,354.174,0,354C0,348,0,342,0,336z"/>
	<path style="fill:#413F3E;" d="M230,711c0.078-0.147,0.14-0.41,0.238-0.424c6.178-0.911,12.36-0.9,18.539-0.007
		c0.093,0.013,0.15,0.282,0.224,0.431C242.667,711,236.333,711,230,711z"/>
	<path style="fill:#080707;" d="M1563.89,398.001c-11.487-0.015-22.233-7.795-25.585-18.63c-0.633-2.046-1.006-4.187-0.495-6.375
		c0.985-4.219,2.665-8.271,4.923-11.823c2.893-4.551,8.175-6.075,13.112-5.634c7.62,0.681,15.006,2.878,20.404,8.996
		c5.146,5.833,6.538,12.443,3.842,19.821c-0.396,1.083-0.779,2.17-1.18,3.25C1576.243,394.797,1571.599,398.011,1563.89,398.001z"/>
	<path style="fill:#181717;" d="M1324.442,191.223c19.959,0.019,32.42,19.274,23.564,36.677
		c-4.757,9.349-13.095,13.276-23.207,13.613c-16.242,0.541-27.699-11.713-26.707-26.616
		C1299.077,200.115,1310.971,191.094,1324.442,191.223z M1305.777,216.627c-0.294,10.048,7.432,18.219,18.767,18.315
		c10.673,0.09,18.558-8.033,18.71-18.549c0.133-9.23-6.83-18.405-18.895-18.256C1312.678,198.281,1305.556,206.422,1305.777,216.627
		z"/>
	<path style="fill:#151414;" d="M1394.454,217.686c7.301,6.488,10.927,15.204,16.883,22.963c-3.129,0.447-5.685,0.348-8.49,0.118
		c-2.396-3.726-4.825-7.477-7.226-11.247c-1.25-1.964-2.614-3.826-4.141-5.595c-2.685-3.111-5.855-4.749-10.424-3.82
		c0,6.683,0,13.441,0,20.302c-2.566,0.956-4.803,0.317-7.241,0.605c0-16.575,0-32.661,0-48.935c5.187,0,10.193-0.345,15.132,0.084
		c6.735,0.585,14.13,4.734,13.047,15.465C1401.521,212.33,1398.707,215.368,1394.454,217.686z M1381.172,198.233
		c0,5.079,0,9.792,0,14.761c2.504,0,4.803,0.201,7.052-0.045c3.774-0.413,6.285-3.26,6.478-6.948
		c0.183-3.508-1.794-6.156-5.44-7.223C1386.715,198.032,1384.127,197.745,1381.172,198.233z"/>
	<path style="fill:#121110;" d="M1146.297,192.066c5.025,0,9.839-0.269,14.613,0.057c9.403,0.643,15.065,8.041,13.085,16.691
		c-0.883,3.859-2.359,5.693-7.24,8.803c7.115,6.443,10.767,15.236,16.898,23.105c-3.228,0-5.652,0-8.364,0
		c-2.761-3.265-4.936-7.167-7.271-10.958c-1.31-2.126-2.846-4.061-4.485-5.952c-2.713-3.128-5.88-4.717-10.4-3.702
		c0,6.685,0,13.451,0,20.32c-2.344,0.904-4.458,0.271-6.835,0.627C1146.297,224.691,1146.297,208.646,1146.297,192.066z
		 M1153.197,212.968c2.817,0,5.168,0.216,7.462-0.05c3.484-0.405,6.003-3.262,6.329-6.716c0.312-3.308-1.833-6.251-5.353-7.378
		c-2.714-0.869-5.458-1.028-8.438-0.615C1153.197,203.139,1153.197,207.878,1153.197,212.968z"/>
	<path style="fill:#1B1A1A;" d="M1229.937,212.951c0.67,2.341,0.606,4.271,0.052,6.764c-6.352,0-12.736,0-19.347,0
		c0,4.98,0,9.41,0,14.431c6.852,0,13.752,0,20.722,0c0.596,2.484,0.478,4.387,0.203,6.548c-9.477,0-18.71,0-28.23,0
		c0-16.13,0-32.169,0-48.462c9.103,0,18.153,0,27.253,0c0.706,1.909,0.152,3.703,0.474,6.038c-6.836,0-13.381,0-20.1,0
		c-1.033,5.089-0.367,9.685-0.571,14.68C1217.063,212.951,1223.499,212.951,1229.937,212.951z"/>
	<path style="fill:#1B1A1A;" d="M1251.065,236.851c0-2.804,0-5.457,0-8.632c1.418,1.261,2.524,2.314,3.703,3.279
		c2.928,2.399,6.249,3.744,10.092,3.534c2.658-0.145,4.873-1.215,6.107-3.632c1.285-2.517,0.426-4.839-1.127-6.98
		c-1.403-1.934-3.399-3.154-5.345-4.425c-2.5-1.632-5.119-3.098-7.521-4.86c-5.979-4.386-7.161-8.277-5.461-15.191
		c1.284-5.222,6.903-8.575,13.232-8.719c4.264-0.097,8.142,1.122,11.832,3.57c0,2.306,0,4.6,0,6.964
		c-1.579,0.777-2.286-0.758-3.298-1.371c-3.081-1.866-6.368-2.938-9.962-2.37c-2.512,0.397-4.884,1.287-5.585,4.196
		c-0.616,2.557,0.45,4.496,2.339,6.128c2.916,2.518,6.373,4.193,9.604,6.221c3.756,2.357,6.944,5.257,8.234,9.629
		c2.843,9.637-4.226,17.974-14.569,17.32C1258.655,241.215,1255.86,240.18,1251.065,236.851z"/>
	<path style="fill:#181717;" d="M1480.2,228.403c1.539,1.411,2.598,2.444,3.724,3.399c1.807,1.532,3.981,2.436,6.215,3.021
		c3.949,1.035,8.401-0.603,9.675-3.331c1.404-3.006,0.092-6.773-3.597-9.449c-2.817-2.043-5.872-3.753-8.768-5.692
		c-3.349-2.242-6.44-4.736-7.451-8.942c-2.018-8.395,3.785-15.644,12.958-16.186c4.211-0.249,7.906,0.848,12.208,3.672
		c0.442,2.197,0.261,4.495,0.117,6.77c-1.568,0.864-2.136-0.601-2.999-1.133c-3.056-1.882-6.299-3.011-9.91-2.538
		c-2.545,0.334-4.875,1.183-5.779,3.97c-0.839,2.585,0.368,4.518,2.125,6.211c2.174,2.095,4.877,3.414,7.424,4.965
		c2.407,1.466,4.786,2.952,6.832,4.966c4.267,4.203,5.439,9.989,3.193,15.546c-2.107,5.215-7.466,8.131-13.783,7.843
		c-4.419-0.201-8.461-1.482-12.183-4.363C1480.2,234.459,1480.2,231.673,1480.2,228.403z"/>
	<path style="fill:#121110;" d="M1444.479,198.754c0,14.06,0,27.972,0,41.995c-2.682,0-4.794,0-7.376,0c0-14.1,0-28.021,0-42.342
		c-5.726,0-10.994,0-16.307,0c-0.912-2.082-0.432-3.894-0.529-5.635c3.502-0.96,33.162-1.257,40.792-0.423
		c0.603,1.759,0.363,3.557,0.133,5.637C1455.863,198.99,1450.371,197.829,1444.479,198.754z"/>
	<path style="fill:#2D2B2B;" d="M1613.042,407.34c-0.011,8.383-6.74,15.193-15.092,15.274c-8.142,0.079-15.19-6.898-15.334-15.179
		c-0.147-8.456,6.954-15.522,15.486-15.41C1606.529,392.135,1613.053,398.822,1613.042,407.34z M1604.979,416.085
		c0.443,0.254,0.91,0.405,1.34,0.021c4.218-3.752,5.042-10.561,1.878-15.445c-3.438-5.307-10.144-7.174-15.768-4.39
		c-5.337,2.641-8.014,9.034-6.216,14.842c1.677,5.417,7.586,9.15,13.196,8.168c2.237-0.392,5.031-0.107,5.69-3.319L1604.979,416.085
		z"/>
	<path style="fill:#222020;" d="M1605.1,415.963c-0.99-0.051-1.98-0.102-2.824-0.146c-2.673-1.827-2.581-5.907-6.08-6.964
		c-1.902,2.072-0.09,4.694-1.336,6.646c-0.753,0.689-1.543,0.431-2.598,0.161c0-5.547,0-11.152,0-17.014
		c2.625-0.746,5.376-0.537,8.146-0.086c2.146,0.349,3.839,1.36,4.37,3.53c0.546,2.231,0.159,4.323-1.977,5.706
		c-0.527,0.341-1.297,0.406-1.346,1.278c0.753,2.531,3.124,4.277,3.524,7.012C1604.979,416.085,1605.1,415.962,1605.1,415.963z
		 M1595.735,405.856c2.235,0.156,4.748,1.055,5.96-2.156c-2.092-2.43-4.868-3.242-6.358-1.654
		C1595.318,403.085,1594.851,404.344,1595.735,405.856z"/>
	<path style="fill:#D9D7D7;" d="M1595.735,405.856c-0.884-1.511-0.417-2.77-0.398-3.81c1.491-1.588,4.266-0.776,6.358,1.654
		C1600.482,406.911,1597.969,406.011,1595.735,405.856z"/>
</g>
</svg>
