<?xml version="1.0" encoding="iso-8859-1"?>
<!-- Generator: Adobe Illustrator 27.0.0, SVG Export Plug-In . SVG Version: 6.00 Build 0)  -->
<svg version="1.1" id="Layer_1" xmlns="http://www.w3.org/2000/svg" xmlns:xlink="http://www.w3.org/1999/xlink" x="0px" y="0px"
	 viewBox="0 0 1577 232" style="enable-background:new 0 0 1577 232;" xml:space="preserve">
<g>
	<path style="fill:#050404;" d="M873,232c-3.021-2.022-6.607-1.343-9.906-1.915c-6.424-1.114-12.68-2.631-18.485-5.599
		c-7.917-4.047-13.156-10.54-16.289-18.765c-2.191-5.753-3.418-11.735-4.082-18.621c15.792-0.047,31.323-0.042,46.926,0.007
		c0.848,2.63,1.505,5.007,2.378,7.302c1.852,4.869,5.243,7.86,10.513,8.845c3.314,0.62,6.633,1.039,9.934,0.693
		c9.599-1.005,14.636-3.333,16.684-14.503c1.401-7.639,0.798-15.506,0.584-23.258c-1.335-0.066-1.792,0.726-2.325,1.302
		c-6.792,7.354-14.955,11.952-25.057,13.024c-13.009,1.381-25.545,0.202-37.196-6.255c-13.552-7.51-20.787-19.615-24.605-34.148
		c-0.859-3.27-1.565-6.579-2.572-9.851c-1.452,9.841-4.217,19.161-9.203,27.733c-9.171,15.769-22.973,25.668-40.281,30.476
		c-16.037,4.455-32.255,4.22-48.154-0.983c-21.162-6.925-35.265-21.139-42.531-42.176c-0.299-0.867,0.002-2.013-1.333-2.742
		c0,14.795,0,29.428,0,44.387c-45,0-89.722,0-134.722,0c0-60.454,0-121.04,0-181.931c18.709,0,37.435,0,56.582,0
		c0,44.468,0,89.053,0,133.929c25.965,0,51.512,0,77.579,0c-1.129-6.977-1.762-13.855-1.442-20.778
		c1.339-28.951,14.562-50.049,41.709-61.122c22.725-9.27,45.538-8.343,67.427,2.915c18.137,9.328,28.547,24.801,32.857,44.55
		c0.454,2.082,0.869,4.173,1.527,6.256c1.134-8.07,2.522-16.022,5.566-23.585c5.248-13.035,13.127-23.857,25.92-30.434
		c11.693-6.011,24.083-7.308,36.826-4.603c8.129,1.726,14.44,6.518,19.45,13.084c1.078,1.413,1.851,3.097,3.916,4.578
		c0-4.937,0-9.385,0-13.833c0.265-0.267,0.529-0.534,0.794-0.801c15.945,0,31.889,0,48.369,0c0,1.537,0,2.969,0,4.401
		c0,35.948,0.028,71.896-0.023,107.844c-0.011,7.971,0.175,16.006-1.951,23.785c-4.628,16.931-14.708,29.07-31.468,35.213
		c-7.358,2.697-14.848,4.702-22.762,4.667c-6.059-0.035-12.118-0.066-18.177-0.109c-0.853-0.006-1.629,0.074-1.977,1.019
		C880.333,232,876.667,232,873,232z M726.606,121.354c0.124,2.495,0.022,5.026,0.414,7.478c1.333,8.345,3.995,16.153,10.481,22.025
		c7.109,6.436,15.622,6.111,22.343-0.201c2.569-2.413,4.614-5.223,6.161-8.398c2.959-6.071,4.399-12.527,4.501-19.231
		c0.152-10.001-1.694-19.524-7.932-27.697c-7.787-10.203-20.588-10.052-28.251,0.266
		C728.642,103.244,726.608,111.998,726.606,121.354z M912.357,119.819c-0.016-11.182-2.488-19.199-8.943-25.744
		c-7.153-7.252-18.546-6.761-25.432,0.016c-10.818,10.646-12.471,32.315-1.515,45.225c8.616,10.153,21.985,8.892,29.471-1.197
		C910.457,132.027,912.458,125.147,912.357,119.819z M819.208,125.482c0.17-0.071,0.339-0.142,0.509-0.213c0-3.597,0-7.193,0-10.79
		c-0.17,0.003-0.339,0.005-0.509,0.008C819.208,118.152,819.208,121.817,819.208,125.482z M820.414,127.448
		c-0.106,0.284-0.234,0.534-0.278,0.798c-0.015,0.088,0.186,0.212,0.288,0.32c0.149-0.197,0.396-0.385,0.415-0.593
		C820.853,127.815,820.574,127.632,820.414,127.448z"/>
	<path style="fill:#CA2327;" d="M454,0c2.141,1.916,4.952,1.238,7.404,1.692c17.017,3.152,31.754,10.689,44.074,22.733
		c11.438,11.182,18.87,24.84,22.849,40.263c6.356,24.63,6.013,49.126-3.405,72.959c-10.254,25.949-28.974,43.107-55.997,50.35
		c-26.224,7.028-51.813,4.863-75.803-8.42c-19.899-11.017-32.349-28.293-38.934-49.803c-4.07-13.295-5.584-26.989-4.527-40.909
		c0.818-1.561,0.318-3.196,0.271-4.805c0.032-0.397,0.064-0.795,0.096-1.192c-0.017-0.27-0.03-0.541-0.04-0.812
		c2.054-2.142,0.522-4.801,1.036-7.166c-0.009-0.212-0.024-0.424-0.044-0.636c1.077-0.471,1.191-1.336,0.96-2.342
		c0.064-3.201,1.238-6.167,2.121-9.163c5.363-18.2,15.242-33.321,30.469-44.905c12.496-9.506,26.739-14.388,42.021-16.8
		C427.441,0.902,428.623,1.376,429,0C437.333,0,445.667,0,454,0z M475.027,95.909c0.051-12.693-1.211-21.366-4.139-29.475
		c-7.634-21.139-32.403-28.454-49.07-14.45c-6.081,5.109-9.566,11.917-11.656,19.384c-3.833,13.691-3.927,27.601-1.658,41.562
		c1.073,6.602,3.09,12.889,6.404,18.753c9.998,17.688,34.172,18.978,46.285,8.181c5.679-5.063,8.802-11.609,10.726-18.775
		C474.218,112.527,475.198,103.778,475.027,95.909z"/>
	<path style="fill:#CA2327;" d="M191.997,186.814c-0.98,0.116-1.96,0.331-2.94,0.332c-20.135,0.019-40.27,0.015-60.405,0.009
		c-0.657,0-1.314-0.069-2.432-0.132c-10.141-18.179-22.432-35.322-30.554-55.183c-9.347,19.047-20.259,36.687-29.436,55.321
		c-2.693,0-5.012,0.005-7.331-0.001C39.266,187.108,19.633,187.054,0,187c0-0.333,0-0.667,0-1c1.608-0.185,1.9-1.698,2.59-2.713
		c19.136-28.15,38.252-56.313,57.307-84.517c1.834-2.715,4.152-5.161,5.334-8.403C52.68,73.927,40.192,57.549,27.679,41.189
		C18.699,29.448,9.688,17.731,0.69,6.004c1.025-2.087,2.935-1.103,4.416-1.112c13.664-0.08,27.329-0.047,40.993-0.047
		c6.154,0,12.309,0,18.611,0c11.428,16.546,23.068,32.802,33.347,50.393c9.685-17.407,19.756-33.82,29.794-50.393
		c1.874,0,3.528,0,5.182,0c13.331,0,26.663-0.024,39.994,0.01c6.325,0.016,12.649,0.142,18.973,0.218
		c0.027,0.386,0.055,0.772,0.082,1.157c-0.903,1.38-1.728,2.819-2.722,4.13C175.304,28.917,161.22,47.453,147.152,66
		c-6.12,8.069-12.221,16.152-18.4,24.32c0.748,1.246,1.377,2.399,2.103,3.487c14.76,22.112,29.581,44.183,44.273,66.341
		c5.684,8.572,11.726,16.915,16.876,25.837C191.999,186.262,191.996,186.538,191.997,186.814z"/>
	<path style="fill:#4A4747;" d="M884,232c0.348-0.945,1.125-1.025,1.977-1.019c6.059,0.043,12.118,0.074,18.177,0.109
		c-0.131,0.29-0.183,0.593-0.154,0.91C897.333,232,890.667,232,884,232z"/>
	<path style="fill:#A6A3A3;" d="M1576.144,139.923c0.288-0.003,0.573,0.023,0.856,0.077c0,3,0,6,0,9
		c-0.276,0.08-0.558,0.108-0.844,0.082C1576.152,146.029,1576.148,142.976,1576.144,139.923z"/>
	<path style="fill:#060606;" d="M1022.165,138.633c1.787,0.608,3.635,0.352,5.457,0.355c13.984,0.02,27.968,0.011,42.12,0.011
		c0.929,2.123,0.98,4.251,1.237,6.357c1.119,9.18,5.963,13.642,15.139,13.845c3.642,0.081,7.325,0.268,10.839-1.15
		c1.709-0.69,3.338-1.496,4.73-2.696c4.933-4.252,4.195-11.075-1.658-13.901c-4.641-2.241-9.667-3.416-14.69-4.526
		c-10.674-2.357-21.462-4.235-31.861-7.737c-4.263-1.436-8.364-3.221-12.127-5.672c-11.398-7.425-16.671-17.993-16.472-31.587
		c0.2-13.627,5.969-23.895,17.541-30.991c5.562-3.41,11.477-5.965,17.888-7.233c21.023-4.156,41.959-4.432,62.528,2.345
		c15.383,5.068,24.614,15.708,27.253,31.844c0.24,1.47,0.602,2.921,0.986,4.756c-15.429,0-30.649,0-46.021,0
		c-0.226-0.448-0.672-1.004-0.792-1.623c-1.233-6.341-5.455-9.291-11.503-9.862c-4.127-0.39-8.313-0.691-12.364,0.753
		c-3.934,1.402-5.485,3.381-5.611,7.242c-0.131,4.046,1.022,5.934,5.144,7.506c5.912,2.254,12.134,3.34,18.347,4.393
		c9.819,1.665,19.607,3.551,28.96,7.02c12.42,4.606,22.995,11.314,26.617,25.457c0-26.333,0-52.666,0-78.845
		c17.198-16.7,34.14-33.152,51.934-50.431c0.045,4.99,0.095,8.986,0.112,12.983c0.018,4.166,0.004,8.332,0.004,12.498
		s0,8.332,0,12.498c0,4.12,0,8.24,0,12.751c12.132,0,23.878,0,35.83,0c0,12.801,0,25.198,0,38c-11.934,0-23.68,0-35.83,0
		c0,2.503-0.002,4.624,0,6.745c0.016,12.331,0.027,24.662,0.058,36.992c0.005,1.828,0.067,3.641,0.48,5.457
		c1.444,6.356,3.619,8.39,10.129,8.856c6.474,0.463,12.955,0.86,19.458,0.699c1.796-0.044,3.634-0.314,5.661,0.36
		c0,11.557,0,23.157,0,34.753c-1.092,0.987-2.46,0.956-3.771,1.012c-13.642,0.582-27.28,1.768-40.944,0.861
		c-8.956-0.595-17.849-1.574-25.897-6.172c-9.177-5.243-13.984-13.391-15.988-23.479c-0.192-0.965-0.25-1.967-0.545-2.897
		c-0.126-0.399-0.699-0.658-1.173-1.071c-5.584,19.455-20.127,28.473-38.46,32.771c-14.238,3.338-28.744,3.313-43.198,1.916
		c-6.234-0.602-12.392-2.138-18.362-4.273c-15.71-5.62-25.049-16.83-29.131-32.763c-0.643-2.51-1.397-4.991-2.1-7.485
		C1022.135,143.06,1022.15,140.847,1022.165,138.633z"/>
	<path style="fill:#CB2527;" d="M192,5.074c2.568-0.808,5.216-0.687,7.855-0.687c20.49,0.002,40.98,0.008,61.469-0.001
		c11.656-0.005,23.289,0.296,34.908,1.417c29.928,2.889,50.149,24.572,53.865,52.181c0.624,4.638,0.964,9.266,0.96,13.932
		c-0.026,0.779-0.052,1.559-0.079,2.338c0.02,0.212,0.035,0.424,0.044,0.636c-2.03,2.145-0.575,4.794-1.036,7.166
		c0.01,0.271,0.024,0.541,0.04,0.812c-0.607,0.17-0.972,0.534-0.96,1.199c-0.288,1.69-0.577,3.38-0.865,5.071
		c-5.843,19.838-22.553,38.34-50.465,41.016c-13.799,1.323-27.59,0.515-41.38,0.844c-1.787,0.043-3.576,0.006-5.73,0.006
		c0,18.917,0,37.312,0,55.513c-1.774,1.004-3.298,0.627-4.753,0.63c-15.972,0.03-31.945,0.031-47.917,0.003
		c-1.987-0.003-3.973-0.219-5.959-0.336c-0.001-0.276,0.001-0.552,0.007-0.829c2.747-1.086,1.295-3.452,1.298-5.109
		c0.096-56.487,0.08-112.974,0.078-169.461c0-1.333-0.004-2.666-0.053-3.997c-0.028-0.754-0.457-1.183-1.245-1.187
		C192.055,5.845,192.028,5.46,192,5.074z M250.736,87.981c8.496,0,16.632,0.246,24.748-0.052
		c16.015-0.589,21.279-8.486,19.548-23.32c-0.711-6.091-3.996-10.423-9.8-12.722c-2.96-1.172-5.987-1.986-9.19-2.022
		c-7.32-0.084-14.641-0.183-21.962-0.227c-1.105-0.007-2.366-0.387-3.345,0.932C250.736,62.705,250.736,75.005,250.736,87.981z"/>
	<path style="fill:#020202;" d="M1443.054,144.148c-2.75,16.829-11.62,29.431-26.482,37.671c-9.437,5.233-19.776,7.325-30.479,8.263
		c-12.07,1.058-23.932,0.504-35.535-3.091c-23.513-7.285-38.259-22.993-44.403-46.768c-0.572-2.213-1.462-4.369-2.062-6.697
		c0,17.786,0,35.572,0,53.552c-17.176,0-33.904,0-50.851,0c0-44.103,0-88.003,0-132.131c16.908,0,33.635,0,50.706,0
		c0,18.557,0,36.992,0,55.428c1.964-6.408,3.373-12.877,6.114-18.942c8.611-19.053,22.975-31.322,43.22-36.655
		c20.167-5.313,39.929-4.258,58.772,4.882c17.689,8.58,27.979,22.95,30.806,42.506c0.116,0.802,0.015,1.635,0.015,2.784
		c-16.072,0-32.101,0-48.21,0c-0.51-1.713-0.95-3.281-1.442-4.831c-2.337-7.361-7.142-11.957-14.992-12.595
		c-7.96-0.646-14.265,2.327-18.368,9.427c-2.449,4.237-3.87,8.861-4.392,13.642c-1.031,9.443-1.265,18.859,1.351,28.202
		c4.351,15.537,18.72,17.919,29.656,13.29c3.847-1.629,6.476-4.56,7.865-8.535c0.486-1.392,0.914-2.804,1.318-4.049
		c0.741-0.86,1.596-0.776,2.416-0.776c14.494-0.004,28.988-0.009,43.482,0.014c0.809,0.001,1.618,0.245,2.427,0.376
		C1442.763,140.624,1442.962,142.396,1443.054,144.148z M1304.117,130.312c1.187-4.692,1.034-12.704,0-16.141
		C1304.117,119.918,1304.117,125.115,1304.117,130.312z"/>
	<path style="fill:#060606;" d="M1576.144,139.923c0.004,3.053,0.007,6.106,0.011,9.159c-1.719,17.154-11.669,28.08-26.807,34.783
		c-8.697,3.851-17.984,5.524-27.483,6.173c-8.966,0.613-17.901,1.096-26.87-0.037c-8.073-1.019-15.952-2.466-23.501-5.801
		c-13.844-6.117-21.793-16.823-25.3-31.179c-0.702-2.876-1.595-5.78-1.263-8.828c0.023-1.666,0.046-3.332,0.069-4.998
		c15.477,0,30.955,0,46.82,0c0.347,1.986,0.782,4.049,1.06,6.132c1.267,9.496,5.94,13.717,15.573,13.898
		c4.497,0.084,8.985,0.061,13.065-2.348c2.901-1.713,4.813-4.089,5.238-7.465c0.478-3.792-1.285-6.546-5.669-8.36
		c-5.836-2.416-11.994-3.782-18.155-5.111c-9.556-2.061-19.164-3.933-28.444-7.087c-7.18-2.44-13.653-6.082-18.845-11.73
		c-5.385-5.857-8.149-12.853-8.597-20.73c-0.283-4.985-0.297-9.977,1.154-14.862c2.632-8.861,7.994-15.599,15.794-20.416
		c8.623-5.325,18.092-7.961,28.125-9.191c9.321-1.142,18.637-1.107,27.948-0.711c9.651,0.411,19.181,2.013,28.124,5.863
		c14.979,6.447,22.999,17.93,24.074,34.227c-0.089,0.492-0.177,0.983-0.266,1.475c-14.968,0-29.936,0-44.867,0
		c-0.947-0.901-0.931-2.127-1.269-3.227c-1.668-5.437-5.583-8.105-11.051-8.434c-3.961-0.238-7.973-0.654-11.887,0.626
		c-4.383,1.433-6.038,3.317-6.239,7.29c-0.214,4.217,1.016,6.051,5.48,7.774c5.759,2.222,11.845,3.137,17.873,4.242
		c12.55,2.3,25.062,4.621,36.687,10.309C1568.711,117.222,1575.042,126.75,1576.144,139.923z"/>
	<path style="fill:#050404;" d="M1022.165,138.633c-0.015,2.214-0.029,4.427-0.044,6.64c0,13.785,0,27.57,0,41.682
		c-16.882,0-33.736,0-50.809,0c0-43.896,0-87.617,0-131.647c16.89,0,33.763,0,50.595,0c0.752,0.957,0.433,1.984,0.433,2.928
		c0.023,25.64,0.021,51.279,0.01,76.919C1022.35,136.315,1022.229,137.474,1022.165,138.633z"/>
	<path style="fill:#070606;" d="M1445,139.195c-0.023,1.666-0.046,3.332-0.069,4.998c-0.616-0.44-1.242-0.435-1.877-0.044
		c-0.092-1.752-0.291-3.525,0.929-5.035C1444.322,139.141,1444.661,139.168,1445,139.195z"/>
	<path style="fill:#E39A82;" d="M348.202,89.137c0.288-1.69,0.577-3.38,0.865-5.071l0.431-0.068l0.432,0.061
		c0.047,1.609,0.547,3.244-0.271,4.805C349.174,88.955,348.688,89.046,348.202,89.137z"/>
	<path style="fill:#060505;" d="M911.989,55.18c-0.265,0.267-0.529,0.534-0.794,0.801C911.028,55.287,911.305,55.032,911.989,55.18z
		"/>
	<path style="fill:#070606;" d="M1572,92.779c0.089-0.492,0.177-0.983,0.266-1.475C1572.83,91.914,1573.411,92.526,1572,92.779z"/>
	<path style="fill:#4A4747;" d="M819.208,125.482c0-3.665,0-7.33,0-10.995c0.17-0.003,0.339-0.005,0.509-0.008
		c0,3.597,0,7.193,0,10.79C819.548,125.339,819.378,125.411,819.208,125.482z"/>
	<path style="fill:#060505;" d="M820.414,127.448c0.159,0.184,0.438,0.367,0.424,0.525c-0.019,0.208-0.266,0.396-0.415,0.593
		c-0.102-0.108-0.302-0.232-0.288-0.32C820.18,127.982,820.308,127.732,820.414,127.448z"/>
	<path style="fill:#D6654D;" d="M349.987,82.055c0.461-2.372-0.995-5.021,1.036-7.166C350.509,77.254,352.041,79.914,349.987,82.055
		z"/>
	<path style="fill:#D6654D;" d="M350.979,74.254c0.026-0.779,0.053-1.559,0.079-2.338c0.295,0.24,0.589,0.238,0.882-0.004
		C352.17,72.918,352.056,73.783,350.979,74.254z"/>
	<path style="fill:#D6654D;" d="M349.931,84.06l-0.432-0.061l-0.431,0.068c-0.011-0.665,0.353-1.029,0.96-1.199
		C349.995,83.265,349.963,83.662,349.931,84.06z"/>
	<path style="fill:#4A4747;" d="M1304.117,130.312c0-5.197,0-10.394,0-16.141C1305.152,117.608,1305.304,125.62,1304.117,130.312z"
		/>
</g>
</svg>
