<?xml version="1.0" encoding="iso-8859-1"?>
<!-- Generator: Adobe Illustrator 27.0.0, SVG Export Plug-In . SVG Version: 6.00 Build 0)  -->
<svg version="1.1" id="Layer_1" xmlns="http://www.w3.org/2000/svg" xmlns:xlink="http://www.w3.org/1999/xlink" x="0px" y="0px"
	 viewBox="0 0 1523.054 424.027" style="enable-background:new 0 0 1523.054 424.027;" xml:space="preserve">
<g>
	<path style="fill:#5E5E60;" d="M117.054,0.027c0.54,1.213,1.662,0.864,2.592,0.917c33.547,1.913,65.638,9.826,95.974,24.221
		c28.669,13.603,53.278,32.512,73.008,57.623c19.927,25.363,32.429,53.988,38.175,85.584c3.016,16.585,4.019,33.388,3.036,50.227
		c-0.941,16.123-3.74,31.977-8.097,47.54c-0.168,0.601-0.671,1.108-1.171,1.902c-3.365-8.279-7.339-15.92-12.245-23.057
		c-9.7-14.113-22.362-24.969-36.946-33.75c-17.755-10.69-36.873-18.086-56.569-24.347c-26.467-8.413-53.852-12.982-80.626-20.03
		c-28.404-7.477-56.711-15.448-82.425-30.371c-11.291-6.553-21.837-13.867-30.199-24.168C12.763,101.48,7.232,89.22,4.163,75.77
		c-1.625-7.121-2.748-14.353-3.135-21.672c-0.043-0.82-0.005-1.684-0.975-2.071c0-1.667,0-3.333,0-5
		c1.936-1.149,0.941-3.012,0.953-4.512C1.115,28.721,1.109,14.926,1.136,1.132c3.956-0.06,7.911-0.12,11.867-0.179
		c32.517,0.03,65.034,0.061,97.551,0.087c0.961,0.001,2.039,0.244,2.5-1.013C114.387,0.027,115.72,0.027,117.054,0.027z"/>
	<path style="fill:#5E5E60;" d="M2.238,198.883c9.033,4.915,18.002,9.932,27.227,14.505c24.799,12.293,50.828,21.036,77.625,27.693
		c25.745,6.396,51.751,11.737,77.292,18.948c15.82,4.467,31.345,9.856,46.152,17.037c9.322,4.52,17.833,10.409,24.906,18.062
		c7.493,8.107,11.248,18.093,12.291,28.856c1.125,11.61,0.999,23.252-3.247,34.467c-6.364,16.809-17.571,29.696-32.414,39.373
		c-18.196,11.864-38.453,18.524-59.732,22.31c-7.689,1.368-15.378,2.684-23.197,3.067c-0.375,0.018-0.725,0.54-1.086,0.827
		c-8.333,0-16.667,0-25,0c-0.46-0.868-1.256-0.925-2.113-0.925c-4.31,0-8.62-0.022-12.93-0.036
		c-5.679,0.007-11.264-1.071-16.737-2.252c-31.055-6.704-61.054-16.362-88.531-32.78c-0.819-0.49-1.549-1.33-2.69-1.007
		c0-0.667,0-1.333,0-2c1.932-1.357,0.947-3.365,0.948-5.025c0.062-58.389,0.051-116.778,0.051-175.166c0-1.331,0.016-2.662,0-3.992
		C1.042,199.932,1.359,199.244,2.238,198.883z"/>
	<path style="fill:#5F5F61;" d="M1171.054,424.027c-0.203-0.759-0.772-0.945-1.475-1.028c-22.56-2.675-37.948-15.146-46.724-35.568
		c-9.311-21.665-9.743-43.965-1.268-65.989c7.94-20.632,23.765-32.723,44.786-38.22c10.003-2.616,20.22-2.924,30.607-2.474
		c20.082,0.871,38.9,6.181,57.087,14.302c0.598,0.267,1.164,0.603,2.179,1.133c0,41.274,0,82.674,0,124.475
		c-3.732,0.85-7.856,0.236-11.927,0.347c-4.146,0.113-8.299,0.025-12.577,0.025c-1.164-3.199-0.022-6.424-0.845-9.769
		c-13.218,5.538-26.352,11.012-40.803,11.802c-4.702-0.018-9.403-0.032-14.104-0.059c-0.842-0.005-1.615,0.067-1.936,1.023
		C1173.054,424.027,1172.054,424.027,1171.054,424.027z M1230.955,386.328c0-25.778,0-50.716,0-75.711
		c-17.807-8.058-35.991-10.555-55.096-6.838c-15.415,2.999-25.76,11.741-31.168,26.272c-2.208,5.933-2.542,12.307-3.025,18.62
		c-0.92,12.043,1.031,23.508,6.46,34.297c4.244,8.434,11.01,14.135,19.99,16.944c7.571,2.369,15.3,2.236,23.197,1.384
		C1205.946,399.717,1218.423,393.007,1230.955,386.328z"/>
	<path style="fill:#5F5F61;" d="M845.054,424.027c-2.685-2.019-5.987-1.169-8.97-1.832c-27.847-6.188-48.263-24.766-53.936-54.101
		c-3.038-15.706-1.96-31.119,4.421-45.925c9.008-20.904,25.114-33.487,46.882-38.974c18.163-4.578,36.343-3.985,54.032,2.149
		c20.441,7.088,34.518,21.188,41.264,41.706c6.639,20.192,5.516,40.281-3.744,59.668c-7.762,16.25-20.738,26.493-37.472,32.279
		c-6.283,2.172-12.711,3.907-19.442,4.063c-0.809,0.019-1.692-0.06-2.034,0.967c-1.333,0-2.667,0-4,0
		c-0.264-0.701-0.783-0.993-1.517-0.993c-3.659-0.001-7.319-0.012-10.978-0.021c-0.734-0.002-1.248,0.312-1.505,1.014
		C847.054,424.027,846.054,424.027,845.054,424.027z M856.128,302.037c-3.834-0.043-7.635,0.186-11.434,0.811
		c-17.687,2.911-29.724,12.723-35.349,29.713c-3.769,11.384-4.237,23.105-1.373,34.899c3.916,16.126,13.336,27.384,29.237,32.469
		c13.829,4.422,27.76,4.393,41.51-0.879c10.411-3.991,18.333-10.701,22.975-20.921c7.56-16.644,7.582-33.547,0.589-50.279
		c-4.81-11.509-13.68-18.963-25.552-22.873C870.023,302.768,863.163,301.842,856.128,302.037z"/>
	<path style="fill:#5F5F61;" d="M1523.054,50.027c-3.788,6.04-6.132,12.762-8.952,19.246
		c-17.538,40.329-34.938,80.717-52.476,121.046c-2.986,6.867-6.658,13.39-11.316,19.318c-8.228,10.47-18.735,16.35-32.185,17.668
		c-11.801,1.157-22.764-1.292-33.594-5.348c-1.22-0.457-2.533-0.823-3.8-2.267c2.162-6.319,5.405-12.384,8.313-18.817
		c5.014,1.889,9.583,3.755,14.482,4.653c4.483,0.822,8.955,0.858,13.392,0.168c5.449-0.848,9.903-3.553,13.43-7.889
		c3.595-4.419,6.47-9.241,9.168-14.786c-21.73-44.693-43.562-89.594-65.543-134.802c9.332,0,18.281,0,27.632,0
		c16.546,35.584,33.121,71.231,50.195,107.951c7.99-18.544,15.069-36.434,22.38-54.226c7.367-17.927,14.764-35.841,22.211-53.916
		c9.035,0,17.847,0,26.66,0C1523.054,48.694,1523.054,49.36,1523.054,50.027z"/>
	<path style="fill:#7C797B;" d="M2.238,198.883c-0.879,0.361-1.195,1.049-1.184,1.96c0.016,1.331,0,2.661,0,3.992
		c0,58.389,0.01,116.778-0.051,175.166c-0.002,1.66,0.984,3.668-0.948,5.025c0-62.333,0-124.667,0-187
		C0.948,197.889,1.769,197.935,2.238,198.883z"/>
	<path style="fill:#7E7B7C;" d="M113.054,0.027c-0.46,1.256-1.539,1.013-2.5,1.013C78.037,1.013,45.52,0.982,13.003,0.952
		c0.034-0.307,0.051-0.616,0.05-0.925C46.387,0.027,79.72,0.027,113.054,0.027z"/>
	<path style="fill:#A19E9F;" d="M457.178,1.116c-0.041-0.363-0.083-0.726-0.124-1.089c23,0,46,0,69,0
		c-0.042,0.302-0.006,0.594,0.106,0.878c-1.649,0.047-3.298,0.133-4.948,0.136C499.868,1.073,478.523,1.093,457.178,1.116z"/>
	<path style="fill:#7C797B;" d="M1.136,1.132C1.109,14.926,1.115,28.721,1.007,42.515c-0.012,1.5,0.983,3.364-0.953,4.512
		c0-15.333,0-30.667,0-46C0.415,1.062,0.775,1.097,1.136,1.132z"/>
	<path style="fill:#BFBCBD;" d="M538.111,423.141c-0.082,0.291-0.101,0.587-0.058,0.886c-7,0-14,0-21,0
		c0.047-0.301,0.028-0.597-0.056-0.889C524.036,423.139,531.073,423.14,538.111,423.141z"/>
	<path style="fill:#969395;" d="M1174.054,424.027c0.321-0.956,1.094-1.028,1.936-1.023c4.702,0.027,9.403,0.041,14.104,0.059
		c-0.014,0.321-0.027,0.643-0.041,0.964C1184.72,424.027,1179.387,424.027,1174.054,424.027z"/>
	<path style="fill:#969395;" d="M108.054,424.027c-0.014-0.32-0.028-0.641-0.042-0.962c4.31,0.014,8.62,0.036,12.93,0.036
		c0.856,0,1.653,0.058,2.113,0.925C118.054,424.027,113.054,424.027,108.054,424.027z"/>
	<path style="fill:#969395;" d="M848.054,424.027c0.256-0.702,0.771-1.016,1.505-1.014c3.659,0.009,7.319,0.019,10.978,0.021
		c0.734,0,1.253,0.292,1.517,0.993C857.387,424.027,852.72,424.027,848.054,424.027z"/>
	<path style="fill:#969395;" d="M1.136,1.132c-0.361-0.035-0.722-0.07-1.083-0.104c-0.194-0.861,0.137-1.039,1-1.026
		c3.999,0.06,8,0.026,12,0.026c0.001,0.309-0.016,0.618-0.05,0.925C9.048,1.012,5.092,1.072,1.136,1.132z"/>
	<path style="fill:#5F5F61;" d="M457.178,1.116c21.345-0.023,42.689-0.043,64.034-0.075c1.649-0.002,3.298-0.088,4.948-0.136
		c25.149,2,47.644,10.511,66.033,28.109c14.623,13.994,23.431,31.182,26.064,51.435c3.118,23.979-1.723,45.998-16.187,65.523
		c-11.696,15.788-27.394,26.424-45.338,34.041c-19.057,8.089-38.84,9.442-59.177,7.26c-13.755-1.475-27.006-4.955-39.921-8.443
		c-0.961-1.268-0.722-2.305-0.721-3.277c0.038-57.482,0.089-114.963,0.144-172.445C457.058,2.444,457.136,1.78,457.178,1.116z
		 M482.163,161.773c3.47,0.646,6.704,1.292,9.953,1.847c14.537,2.482,29.052,3.251,43.539-0.438
		c27.843-7.089,46.624-23.829,54.673-51.721c4.578-15.865,3.918-31.728-3.026-46.747c-11.5-24.87-32.266-37.029-58.62-40.744
		c-12.417-1.75-24.936-0.957-37.418-0.963c-2.954-0.002-5.907,0-9.102,0C482.163,69.408,482.163,115.328,482.163,161.773z"/>
	<path style="fill:#5F5F61;" d="M538.111,423.141c-7.038-0.001-14.076-0.002-21.114-0.003c-26.63-2.076-49.542-12.767-70.014-30.133
		c5.282-5.969,10.433-11.79,15.793-17.847c3.83,2.856,7.62,5.736,11.465,8.54c12.587,9.18,26.632,15.144,42.031,17.011
		c10.197,1.236,20.63,1.445,30.718-1.624c6.615-2.013,12.464-5.26,17.24-10.463c7.927-8.637,10.265-28.52-5.612-37.552
		c-7.912-4.501-16.483-6.906-25.198-9.059c-13.835-3.418-27.97-5.696-41.339-10.896c-7.778-3.026-15.281-6.572-21.7-12.003
		c-8.955-7.578-13.621-17.243-14.481-29.015c-0.97-13.272,2.219-25.169,10.987-35.18c8.453-9.651,19.289-15.822,31.732-18.679
		c18.987-4.36,37.961-3.584,56.647,1.863c12.292,3.583,27.232,11.187,35.389,19.138c-3.768,6.818-9.633,12.236-14.142,18.783
		c-3.018-2.074-5.726-3.981-8.48-5.819c-10.501-7.009-21.938-12.068-34.417-13.719c-12.928-1.71-25.948-1.692-37.967,4.824
		c-7.546,4.091-12.711,9.944-14.274,18.703c-1.343,7.526,2.195,19.215,10.977,23.802c10.121,5.286,20.775,8.691,31.811,11.199
		c9.702,2.205,19.503,4.061,28.99,7.086c10.335,3.296,20.228,7.622,28.563,14.794c8.867,7.631,13.654,17.289,14.432,29.055
		c1.607,24.333-11.758,41.963-32.052,50.766C555.836,420.297,547.135,422.459,538.111,423.141z"/>
	<path style="fill:#5F5F61;" d="M1167.362,60.225c11.239-5.989,23.204-9.297,35.328-12.178c13.735-3.264,27.73-4.028,41.653-2.772
		c23.094,2.083,42.079,11.718,53.873,32.702c5.21,9.269,7.748,19.446,8.543,29.935c1.025,13.519,0.166,26.927-4.773,39.781
		c-6.042,15.726-16.159,27.789-31.779,34.681c-9.392,4.144-19.327,5.495-29.593,5.739c-15.863,0.377-31.002-2.792-45.883-7.824
		c-0.618-0.209-1.285-0.273-1.772-0.373c-0.314,0.143-0.479,0.174-0.574,0.272c-0.111,0.114-0.229,0.288-0.229,0.435
		c-0.01,15.138-0.009,30.275-0.009,45.769c-8.43,0-16.475,0-24.784,0C1167.362,171.087,1167.362,115.864,1167.362,60.225z
		 M1192.142,154.086c3.431,2.492,7.009,3.847,10.545,5.263c14.406,5.769,29.32,8.516,44.812,6.669
		c8.994-1.072,16.942-4.667,22.934-11.802c4.245-5.054,7.024-10.879,8.65-17.224c3.151-12.3,3.336-24.849,0.667-37.101
		c-3.241-14.879-11.738-25.94-27.026-30.463c-4.926-1.457-9.989-2.232-15.144-2.773c-6.049-0.635-11.983-0.049-17.907,0.519
		c-9.625,0.923-18.789,3.713-27.529,7.998C1192.142,101.571,1192.142,127.708,1192.142,154.086z"/>
	<path style="fill:#606062;" d="M776.105,126.913c-37.668,1.136-74.737,0.77-112.364,0.854c3.065,13.187,8.549,24.158,19.792,31.092
		c14.901,9.19,30.871,10.423,47.382,4.705c8.928-3.092,16.764-7.973,23.536-14.565c0.463-0.451,1.002-0.825,1.739-1.425
		c5.648,3.906,10.48,8.676,15.636,12.889c0.158,1.804-1.257,2.414-2.135,3.288c-8.335,8.297-17.653,15.13-28.787,19.274
		c-12.234,4.553-24.777,5.8-37.73,4.241c-10.333-1.244-20.122-3.852-29.343-8.837c-18.001-9.731-29.755-24.178-34.048-44.31
		c-3.962-18.58-2.541-36.826,5.482-54.087c8.584-18.468,23.471-29.187,43.456-33.027c15.829-3.042,31.356-2.359,46.706,2.743
		c16.325,5.427,27.453,16.472,34.498,31.805c4.28,9.316,6.139,19.266,6.178,29.532C776.121,116.227,776.105,121.372,776.105,126.913
		z M664.026,106.047c29.028,0,57.408,0,86.179,0c-0.244-7.858-2.457-14.858-5.97-21.469c-3.557-6.694-8.889-11.389-16.011-14.229
		c-10.493-4.183-21.308-4.994-32.256-3.039c-10.278,1.836-19.226,6.307-25.045,15.529C666.518,89.82,663.91,97.344,664.026,106.047z
		"/>
	<path style="fill:#606062;" d="M984.72,310.371c0,37.065,0,73.532,0,110.33c-8.397,0-16.622,0-25.12,0c0-41.461,0-82.885,0-124.553
		c7.28-3.911,15.088-6.611,23.03-8.977c14.753-4.396,29.897-6.289,45.219-6.746c11.228-0.335,22.157,1.038,32.417,6.272
		c15.28,7.795,23.511,20.505,26.717,36.947c0.896,4.598,1.132,9.238,1.13,13.909c-0.008,26.662,0.006,53.325,0.013,79.987
		c0,0.972,0,1.944,0,3.204c-8.352,0-16.425,0-24.749,0c-0.664-1.686-0.301-3.526-0.303-5.294
		c-0.026-24.829,0.051-49.659-0.041-74.488c-0.032-8.767-1.737-17.16-6.856-24.573c-5.127-7.425-12.492-11.818-21.034-13.122
		C1017.872,300.63,1001.167,303.614,984.72,310.371z"/>
	<path style="fill:#606062;" d="M799.58,60.312c8.514-4.06,17.472-7.572,26.779-9.914c16.685-4.197,33.707-6.207,50.907-5.235
		c13.489,0.763,25.577,5.455,35.346,15.187c8.606,8.572,12.782,19.193,14.415,31.03c0.892,6.465,0.742,12.95,0.743,19.437
		c0.004,22.986,0.006,45.972-0.038,68.958c-0.003,1.781,0.491,3.653-0.685,5.66c-7.782,0-15.702,0-23.689,0
		c-1.356-1.109-0.868-2.716-0.851-4.143c0.118-9.487,0.131-18.978,0.217-28.464c0.158-17.311-0.312-34.627-0.501-51.942
		c-0.037-3.358-0.734-6.611-1.684-9.784c-4.297-14.363-14.455-22.235-28.883-23.804c-16.266-1.769-32.054,1.227-47.546,7.689
		c0,36.802,0,73.54,0,110.522c-8.348,0-16.258,0-24.531,0C799.58,143.722,799.58,102.178,799.58,60.312z"/>
	<path style="fill:#5F5F61;" d="M1142.143,61.827c-4.047,6.074-7.882,11.83-11.614,17.432c-2.232-0.247-3.436-1.503-4.86-2.305
		c-12.694-7.144-26.223-11.178-40.883-10.985c-6.011,0.079-11.484,2.166-16.347,5.411c-8.549,5.705-8.642,16.631-0.306,22.635
		c6.433,4.633,14.002,6.757,21.475,9.027c8.723,2.65,17.625,4.724,26.117,8.116c7.478,2.987,14.612,6.663,20.079,12.681
		c9.028,9.937,10.114,21.656,6.609,34.084c-3.537,12.54-12.502,20.055-23.935,25.093c-12.103,5.333-24.757,5.634-37.674,4.191
		c-17.576-1.964-33.402-8.302-47.863-18.303c-0.949-0.656-2.011-1.209-2.673-2.44c4.04-5.374,8.12-10.801,12.194-16.221
		c1.731-0.105,2.809,1.028,4.037,1.779c11.42,6.987,23.409,12.594,36.782,14.587c6.777,1.01,13.602,1.116,20.345-0.525
		c4.284-1.043,8.036-3.105,11.38-5.95c6.647-5.654,7.486-17.197-0.277-23.158c-3.49-2.68-7.329-4.496-11.381-6.059
		c-9.78-3.774-20.11-5.649-30.058-8.849c-9.08-2.921-17.698-6.624-25.176-12.723c-6.17-5.032-9.292-11.574-10.089-19.335
		c-2.231-21.712,12.007-36.392,30.833-41.854c15.684-4.55,31.247-3.107,46.659,1.372
		C1124.804,52.227,1133.604,56.088,1142.143,61.827z"/>
	<path style="fill:#5F5F61;" d="M1016.07,182.7c-4.084,2.547-8.408,3.069-12.579,3.96c-7.416,1.584-14.801,1.788-22.146-0.689
		c-9.687-3.266-15.995-9.767-19.304-19.355c-1.807-5.236-2.771-10.647-2.78-16.136c-0.08-46.821-0.057-93.642-0.054-140.463
		c0-0.802-0.192-1.669,0.644-2.621c7.852,0,15.911,0,24.226,0c0.569,13.527-0.342,26.837,0.763,40.59c7.956,0,15.87,0,23.976,0
		c0,7.103,0,13.713,0,20.907c-7.972,0-16.023,0-23.807,0c-1.073,1.961-0.703,3.483-0.704,4.935
		c-0.026,23.827-0.046,47.654,0.015,71.481c0.008,3.15,0.172,6.354,0.762,9.438c1.586,8.302,6.583,12.305,15.354,11.008
		c2.597-0.384,5.126-1.232,8.054-1.958C1010.992,170.039,1013.448,176.163,1016.07,182.7z"/>
	<path style="fill:#616163;" d="M713.831,420.83c-8.739,0-16.855,0-25.235,0c0-42.31,0-84.415,0-126.532
		c21.148-16.061,67.245-19.958,94.023-1.698c-3.504,6.226-7.037,12.503-10.755,19.11c-18.945-10.943-38.027-14.109-58.033-3.523
		C713.831,345.867,713.831,383.148,713.831,420.83z"/>
	<path style="fill:#5E5E60;" d="M1329.234,7.953c8.1-1.629,16.17-0.443,24.5-0.83c0,59.586,0,118.824,0,178.325
		c-8.109,1.041-16.149-0.675-24.5-0.247C1329.234,126.097,1329.234,67.356,1329.234,7.953z"/>
	<path style="fill:#636264;" d="M626.638,283.867c8.273,0,16.354,0,24.799,0c0,45.679,0,91.207,0,136.956c-8.24,0-16.354,0-24.799,0
		C626.638,375.265,626.638,329.721,626.638,283.867z"/>
	<path style="fill:#666567;" d="M651.576,246.367c0,7.803,0,15.346,0,23.155c-8.303,0-16.377,0-25.188,0
		c-0.209-7.569-0.034-15.232-0.094-23.155C634.959,246.367,643.15,246.367,651.576,246.367z"/>
</g>
</svg>
