<?xml version="1.0" encoding="iso-8859-1"?>
<!-- Generator: Adobe Illustrator 27.0.0, SVG Export Plug-In . SVG Version: 6.00 Build 0)  -->
<svg version="1.1" id="Layer_1" xmlns="http://www.w3.org/2000/svg" xmlns:xlink="http://www.w3.org/1999/xlink" x="0px" y="0px"
	 viewBox="0 0 1550 339" style="enable-background:new 0 0 1550 339;" xml:space="preserve">
<g>
	<path style="fill:#D5232D;" d="M486.939,338.122c-24.476-0.873-48.236-5.426-70.664-15.338
		c-44.017-19.453-72.025-52.721-84.309-99.281c-5.967-22.616-7.658-45.67-5.681-68.799c3.886-45.457,22.502-83.885,56.713-114.552
		c22.182-19.884,48.36-31.198,77.197-37.023c5.198-1.05,10.525-1.459,15.794-2.15C476.781,0.876,477.685,1.059,478,0
		c1.667,0,3.333,0,5,0c0.169,0.263,0.326,0.746,0.509,0.756c5.332,0.287,10.667,0.397,15.999,0.01
		c0.182-0.013,0.329-0.5,0.492-0.766c2,0,4,0,6,0c3.425,1.854,7.283,1.413,10.933,1.916c30.275,4.168,57.335,15.405,79.91,36.349
		c17.355,16.101,28.77,36.019,35.952,58.388c5.825,18.141,8.994,36.79,9.256,55.881c0.131,9.494,0.199,18.989,0.206,28.484
		c0.002,2.979,0.063,5.991-1.201,8.836c-1.605,3.611-4.081,6.038-8.197,6.35c-2.32,0.176-4.645,0.394-6.968,0.395
		c-68.966,0.021-137.931,0.017-206.897,0.017c-1.952,0-3.904,0-6.204,0c0.348,9.084,2.376,17.279,5.748,25.007
		c11.815,27.083,32.229,43.681,61.313,49.535c12.48,2.512,25.085,3.326,37.743,2.774c13.189-0.575,25.932-3.779,38.556-7.507
		c12.313-3.636,23.953-8.875,35.478-14.424c1.794-0.864,3.543-1.868,5.413-2.519c6.046-2.104,10.886,0.178,13.045,6.198
		c3.697,10.309,7.286,20.656,10.92,30.988c0.716,2.036,1.432,4.071,2.139,6.11c2.52,7.278,1.409,10.557-5.216,14.624
		c-9.803,6.018-20.242,10.714-31.066,14.557c-22.639,8.039-45.925,13.245-69.81,15.766c-2.646,0.279-5.321,0.287-7.982,0.421
		C501.694,338.139,494.316,338.13,486.939,338.122z M562.847,137.644c0.545-7.529-0.432-14.743-1.96-21.852
		c-3.584-16.673-11.46-30.772-25.557-40.89c-9.953-7.143-21.142-10.931-33.308-12.168c-17.575-1.788-34.132,1.234-49.405,10.244
		c-16.749,9.88-27.752,24.548-34.562,42.524c-2.686,7.089-4.841,14.348-5.561,22.142
		C462.721,137.644,512.639,137.644,562.847,137.644z"/>
	<path style="fill:#D5222D;" d="M1078,0c0.329,1.046,1.23,0.888,2.025,0.969c30.075,3.069,57.507,13.131,81.848,31.189
		c25.437,18.87,43.115,43.537,54.021,73.152c5.833,15.84,9.103,32.214,10.367,49.055c2.28,30.377-1.975,59.669-14.093,87.684
		c-10.844,25.069-26.899,46.13-48.72,62.716c-21.047,15.998-44.683,25.871-70.662,30.44c-8.867,1.559-17.774,2.493-26.747,2.968
		c-4.024-0.006-8.048-0.012-12.073-0.018c-19.252-0.524-38.025-3.704-56.169-10.261c-38.729-13.995-67.362-39.409-85.812-76.216
		c-8.411-16.78-13.419-34.611-16.085-53.167c-2.526-17.583-2.909-35.221-0.688-52.794c4.928-38.994,20.171-73.225,48.648-100.855
		c18.839-18.28,41.073-30.851,66.397-37.996c9.477-2.674,19.154-4.141,28.82-5.758c0.792-0.132,1.701-0.011,1.923-1.109
		C1053.333,0,1065.667,0,1078,0z M979.971,168.032c0,3.332-0.094,6.667,0.016,9.995c0.543,16.393,3.207,32.405,9.067,47.779
		c5.555,14.573,13.771,27.28,26.455,36.75c16.594,12.389,35.646,15.243,55.469,13.104c25.591-2.763,44.113-16.484,55.869-39.242
		c7.969-15.426,11.549-32.079,13.234-49.264c1.111-11.335,0.775-22.613-0.047-33.921c-1.129-15.52-4.058-30.661-10.184-45.011
		c-8.387-19.644-21.593-34.71-42.271-41.894c-15.971-5.548-32.314-5.809-48.663-1.638c-21.228,5.417-35.974,18.917-45.65,38.06
		C982.916,123.226,979.497,145.282,979.971,168.032z"/>
	<path style="fill:#D5222D;" d="M1550,329c-2.994,3.778-6.886,5.093-11.691,5.061c-21.497-0.141-42.996-0.233-64.491,0.028
		c-7.933,0.097-12.833-3.285-15.824-10.372c-5.231-12.394-10.641-24.705-16.962-36.604c-11.671-21.971-25.158-42.698-41.519-61.494
		c-3.389-3.894-6.948-7.618-11.219-11.494c-4.123,4.671-8.265,9.149-12.172,13.824c-22.864,27.354-41.121,57.593-56.11,89.871
		c-1.398,3.011-2.771,6.05-4.418,8.926c-2.791,4.872-7.082,7.274-12.76,7.265c-19.664-0.031-39.329,0.009-58.993-0.027
		c-4.65-0.009-6.908-2.426-7.035-7.102c-0.065-2.402,0.691-4.589,1.495-6.775c8.631-23.479,19.947-45.649,32.976-66.95
		c16.491-26.96,35.89-51.654,58.406-73.861c3.077-3.035,6.311-5.91,9.578-8.958c-0.696-2.056-2.168-3.417-3.396-4.932
		c-27.731-34.21-52.75-70.198-72.192-109.86c-5.931-12.099-11.021-24.526-15.163-37.344c-0.409-1.264-0.85-2.533-1.089-3.834
		c-0.934-5.096,1.959-8.84,7.159-9.318c0.992-0.091,1.998-0.048,2.998-0.048c21.497-0.002,42.998,0.207,64.491-0.111
		c7.869-0.117,12.998,2.928,16.217,9.904c4.175,9.046,8.286,18.128,12.761,27.025c12.203,24.265,25.977,47.575,42.834,68.959
		c0.915,1.161,1.648,2.498,3.536,3.554c3.467-4.028,7.104-8.057,10.526-12.261c20.874-25.645,38.04-53.709,53.81-82.68
		c1.429-2.626,2.811-5.297,4.481-7.768c2.995-4.431,7.189-6.67,12.66-6.649C1496.558,5.042,1514.223,5,1531.887,5
		c0.5,0,1.001-0.025,1.5,0.005c5.91,0.361,8.816,4.114,7.084,9.852c-1.676,5.552-3.753,11.001-5.947,16.376
		c-9.786,23.972-22.765,46.167-37.663,67.288c-14.421,20.443-30.257,39.732-47.193,58.13c-2.026,2.2-4.046,4.405-5.947,6.474
		c0.26,1.962,1.674,2.742,2.691,3.77c32.877,33.266,59.784,70.942,82.496,111.707c7.69,13.802,14.253,28.145,20.051,42.838
		c0.242,0.612,0.311,1.293,1.042,1.559C1550,325,1550,327,1550,329z"/>
	<path style="fill:#D5222D;" d="M0,324c3.646-8.697,6.888-17.552,10.839-26.133c21.608-46.925,50.437-88.695,88.137-124.187
		c1.196-1.126,2.615-2.064,3.622-3.981c-3.085-3.865-6.281-7.843-9.45-11.843C72.759,132.124,54.04,105.253,38.011,76.57
		c-10.226-18.3-19.267-37.154-25.784-57.135c-0.719-2.204-1.498-4.398-1.442-6.796c0.105-4.509,2.389-7.099,6.939-7.559
		c1.486-0.15,2.996-0.078,4.496-0.078c20.498-0.004,41.009,0.429,61.488-0.185c10.176-0.305,15.779,4.103,19.414,12.91
		c4.882,11.829,10.647,23.255,16.673,34.545c10.433,19.545,21.957,38.401,35.431,56.02c1.604,2.097,3.357,4.08,5.178,6.282
		c10.328-11.116,19.37-22.816,27.854-34.973c13.818-19.799,26.234-40.448,37.662-61.704c1.179-2.193,2.469-4.333,3.819-6.426
		c2.849-4.415,6.996-6.47,12.206-6.471c17.831-0.001,35.663,0.073,53.494-0.037c7.107-0.044,10.385,3.919,8.118,11.072
		c-2.711,8.552-6.15,16.845-9.87,25.009c-14.171,31.099-33.331,59.013-54.701,85.508c-8.996,11.154-18.324,22.023-28.179,32.434
		c-1.366,1.443-2.589,3.023-3.812,4.461c0.183,1.246,1.056,1.833,1.754,2.52c26.982,26.55,49.273,56.785,69.453,88.653
		c12.918,20.398,24.077,41.725,33.001,64.189c0.429,1.08,0.942,2.132,1.299,3.235c2.109,6.511-0.522,10.833-7.257,11.828
		c-1.471,0.217-2.993,0.124-4.491,0.124c-20.998,0.006-41.999-0.229-62.991,0.12c-8.362,0.139-13.534-3.276-16.587-10.768
		c-7.913-19.419-17.134-38.187-28.079-56.094c-10.884-17.807-23.043-34.64-37.736-49.54c-1.15-1.166-2.1-2.62-3.944-3.195
		c-11.919,12.74-22.776,26.377-32.67,40.815c-14.135,20.627-26.487,42.275-36.453,65.177c-4.317,9.919-10.538,14.146-21.513,13.682
		c-17.134-0.725-34.323-0.308-51.485-0.105C5.344,334.133,2.287,333.218,0,330C0,328,0,326,0,324z"/>
	<path style="fill:#EBA894;" d="M831.935,0.888C832.051,0.599,832.073,0.303,832,0c9,0,18,0,27,0
		c-0.036,0.294-0.011,0.582,0.076,0.865C850.029,0.872,840.982,0.88,831.935,0.888z"/>
	<path style="fill:#EDAF9C;" d="M486.939,338.122c7.378,0.008,14.756,0.016,22.134,0.025c-0.073,0.28-0.097,0.565-0.072,0.853
		c-7.333,0-14.667,0-22,0C487.057,338.702,487.036,338.409,486.939,338.122z"/>
	<path style="fill:#E27E68;" d="M500,0c-0.163,0.266-0.311,0.752-0.492,0.766c-5.332,0.388-10.667,0.277-15.999-0.01
		C483.326,0.746,483.169,0.263,483,0C488.667,0,494.333,0,500,0z"/>
	<path style="fill:#F5D4C8;" d="M1053.965,338.156c4.024,0.006,8.048,0.012,12.073,0.018c-0.022,0.275-0.034,0.55-0.038,0.826
		c-4,0-8,0-12,0C1054.009,338.718,1053.997,338.436,1053.965,338.156z"/>
	<path style="fill:#D4222C;" d="M831.935,0.888c9.047-0.008,18.094-0.015,27.141-0.023c10.274,0.83,20.575,1.396,30.631,3.971
		c6.762,1.731,8.784,4.303,8.646,11.252c-0.103,5.213-1.688,10.162-2.606,15.224c-1.482,8.17-3.283,16.283-4.977,24.414
		c-0.271,1.3-0.604,2.6-1.049,3.85c-1.722,4.84-4.326,6.121-9.529,5.818c-11.618-0.677-23.121-2.932-34.826-2.41
		c-10.512,0.468-20.924,1.606-30.778,5.489c-18.695,7.367-30.026,20.63-32.76,40.966c-1.716,12.766-1.891,25.558-1.889,38.38
		c0.012,55.655,0.043,111.309,0.043,166.964c0,2.324,0.005,4.693-0.411,6.963c-1.451,7.916-5.981,11.8-14.041,12.175
		c-2.994,0.139-5.997,0.074-8.996,0.075c-13.164,0.006-26.328,0.004-39.492,0.001c-1.5,0-3.001,0.02-4.498-0.044
		c-8.355-0.357-13.229-4.701-14.466-12.979c-0.27-1.805-0.333-3.654-0.333-5.483c0.003-59.321-0.006-118.641,0.067-177.962
		c0.018-14.661,0.959-29.257,3.051-43.802c4.968-34.541,23.313-59.472,53.845-75.727c14.078-7.495,29.25-11.637,44.945-14.126
		C810.358,2.177,821.111,1.195,831.935,0.888z"/>
</g>
</svg>
